<?xml version="1.0" encoding="UTF-8"?><svg xmlns="http://www.w3.org/2000/svg" width="200" height="200" xmlns:xlink="http://www.w3.org/1999/xlink" viewBox="0 0 200 200"><defs><linearGradient id="uuid-985f37e0-8616-4eb2-958d-fee8e91b00b7" x1="64.04221" y1="113.98666" x2="104.26511" y2="143.14295" gradientUnits="userSpaceOnUse"><stop offset="0" stop-color="#ee7b30" stop-opacity="0"/><stop offset=".02526" stop-color="#ea742e" stop-opacity=".13985"/><stop offset=".07137" stop-color="#e4692b" stop-opacity=".3661"/><stop offset=".11891" stop-color="#de5f28" stop-opacity=".56089"/><stop offset=".16715" stop-color="#da5726" stop-opacity=".71988"/><stop offset=".21628" stop-color="#d75125" stop-opacity=".84308"/><stop offset=".26667" stop-color="#d44d23" stop-opacity=".93071"/><stop offset=".31912" stop-color="#d34a23" stop-opacity=".98295"/><stop offset=".37691" stop-color="#d34a23"/><stop offset=".63552" stop-color="#c64528"/><stop offset="1" stop-color="#fb5c12" stop-opacity="0"/></linearGradient><linearGradient id="uuid-4ce6e51d-76c4-4aa0-bab1-e82ae165ebda" x1="151.3546" y1="55.10486" x2="128.71687" y2="36.84863" gradientUnits="userSpaceOnUse"><stop offset="0" stop-color="#ed8433"/><stop offset=".03064" stop-color="#ef7c2d"/><stop offset=".13394" stop-color="#f56a1e"/><stop offset=".24183" stop-color="#f95f14"/><stop offset=".36077" stop-color="#fb5c12"/><stop offset="1" stop-color="#c64528"/></linearGradient><linearGradient id="uuid-21fc63b0-4bc0-422b-ada1-c109d593b197" x1="40.53317" y1="159.60498" x2="68.83817" y2="160.8819" xlink:href="#uuid-985f37e0-8616-4eb2-958d-fee8e91b00b7"/><linearGradient id="uuid-025ee6ae-8d61-4520-a474-c4528cc3f2ba" x1="72.49563" y1="97.92943" x2="149.3235" y2="94.73714" gradientUnits="userSpaceOnUse"><stop offset="0" stop-color="#ee7b30" stop-opacity="0"/><stop offset=".00888" stop-color="#ee792e" stop-opacity=".05268"/><stop offset=".04907" stop-color="#f17227" stop-opacity=".27201"/><stop offset=".09064" stop-color="#f46c22" stop-opacity=".4665"/><stop offset=".1327" stop-color="#f6671d" stop-opacity=".63055"/><stop offset=".17535" stop-color="#f76319" stop-opacity=".76432"/><stop offset=".2188" stop-color="#f96015" stop-opacity=".86801"/><stop offset=".26334" stop-color="#fa5d13" stop-opacity=".94173"/><stop offset=".3097" stop-color="#fa5c12" stop-opacity=".98567"/><stop offset=".36077" stop-color="#fb5c12"/><stop offset=".62619" stop-color="#d34a23"/><stop offset=".70505" stop-color="#c64528"/><stop offset=".94297" stop-color="#fb5c12" stop-opacity="0"/></linearGradient><linearGradient id="uuid-b97e2fba-8b7f-46d9-bfc3-7300419832e5" x1="137.37771" y1="106.94031" x2="78.00105" y2="59.05591" gradientUnits="userSpaceOnUse"><stop offset=".39882" stop-color="#ff7300"/><stop offset=".48814" stop-color="#fe7a09"/><stop offset=".63444" stop-color="#fc9021"/><stop offset=".81839" stop-color="#fab249"/><stop offset=".94572" stop-color="#f8ce69"/></linearGradient></defs><g id="uuid-02501228-a15b-4c67-960f-33c4624a4b6e"><ellipse cx="62.38482" cy="181.59137" rx="37.02248" ry="5.35034" fill="#090909" opacity=".07"/></g><g id="uuid-c79975e2-432e-4f4a-98bb-97b66c06aebe"><path d="M185.63865,65.10188c.00159-.02745.00262-.055.00421-.08245.00159-.02688.00262-.05375.00421-.08051.00159-.02722.00262-.05443.00421-.08165.00171-.0271.00262-.05443.00421-.08154.00171-.0271.00273-.05432.00433-.08142.00159-.02722.00262-.05443.00421-.08165.00159-.0271.00262-.05421.00421-.08142.00159-.0271.00262-.05443.00421-.08154.00171-.02722.00273-.05443.00421-.08154.00171-.0271.00273-.05432.00433-.08142.00159-.02722.00262-.05443.00421-.08165.00171-.0271.00262-.05443.00421-.08154.00171-.02745.00273-.055.00433-.08234.00159-.02688.00262-.05387.0041-.08074.00171-.0271.00273-.05432.00433-.08142s.00262-.05443.00421-.08154c.00171-.02722.00262-.05443.00421-.08154.00171-.0271.00273-.05443.00433-.08154s.00262-.05443.00421-.08154.00262-.05443.00421-.08154.00262-.05432.00421-.08154c.00171-.0271.00262-.05443.00421-.08154.00171-.0271.00273-.05432.00433-.08142.00159-.02745.00262-.05512.00421-.08256.00171-.02676.00262-.05375.00421-.08063.00159-.0271.00262-.05432.00421-.08142.00171-.02722.00262-.05443.00421-.08165.00171-.0271.00273-.05432.00433-.08154.00159-.0271.00262-.05421.00421-.08142.00171-.0271.00262-.05443.00421-.08154.00171-.0271.00273-.05432.00433-.08142.00159-.02722.00262-.05443.00421-.08165.00159-.0271.00262-.05443.00421-.08154s.00262-.05432.00421-.08142c.00171-.02722.00262-.05443.00421-.08165.00171-.02745.00273-.055.00433-.08245.00159-.02676.00262-.05364.00421-.08051.00159-.0271.00262-.05443.00421-.08154s.00262-.05443.00421-.08154c.00171-.0271.00262-.05443.00421-.08154.00171-.0271.00273-.05443.00433-.08154s.00262-.05432.00421-.08154c.00171-.0271.00262-.05443.00421-.08154.00171-.0271.00273-.05443.00433-.08154s.00262-.05432.00421-.08142c.00159-.02722.00262-.05443.00421-.08165.00171-.02733.00273-.05489.00433-.08234.00159-.02688.00251-.05387.0041-.08074.00171-.0271.00273-.05432.00433-.08154.00159-.0271.00262-.05421.00421-.08142.00159-.0271.00262-.05443.00421-.08154.00159-.02722.00273-.05443.00421-.08154.00171-.0271.00262-.05432.00421-.08142.00171-.02722.00273-.05443.00433-.08165.00159-.0271.00262-.05432.00421-.08142.00171-.02722.00262-.05443.00421-.08165.00171-.0271.00273-.05432.00433-.08154.00159-.02745.00262-.055.00421-.08234.00159-.02688.00262-.05387.00421-.08063.00159-.02722.00262-.05443.00421-.08154.00171-.0271.00262-.05443.00421-.08154.00171-.0271.00273-.05443.00433-.08154s.00262-.05432.00421-.08154c.00159-.0271.00262-.05443.00421-.08154s.00273-.05443.00421-.08154c.00171-.0271.00262-.05432.00421-.08142.00171-.02722.00273-.05443.00433-.08165.00159-.0271.00262-.05443.00421-.08154.00171-.0271.00262-.05432.00421-.08142.00171-.02745.00273-.055.00433-.08256.00159-.02676.00262-.05364.0041-.08051.00171-.0271.00273-.05443.00433-.08154.00159-.02722.00262-.05443.00421-.08154.00171-.0271.00262-.05432.00421-.08142.00171-.02722.00273-.05443.00433-.08165.00159-.0271.00262-.05443.00421-.08154s.00262-.05432.00421-.08142c.00159-.02722.00262-.05443.00421-.08165.00171-.0271.00262-.05432.00421-.08142.00171-.0271.00273-.05443.00433-.08154.00159-.02756.00262-.05512.00421-.08256.00171-.02676.00262-.05364.00421-.08051.00159-.0271.00262-.05443.00421-.08154.00171-.0271.00273-.05443.00421-.08154.00171-.0271.00273-.05432.00433-.08154.00159-.0271.00262-.05443.00421-.08154.00171-.0271.00262-.05432.00421-.08142.00171-.02722.00273-.05443.00433-.08165.00159-.0271.00262-.05443.00421-.08154s.00262-.05432.00421-.08142c.00159-.02722.00262-.05443.00421-.08165.00171-.02733.00273-.055.00433-.08245.00159-.02676.00262-.05364.00421-.08051.00159-.0271.00262-.05443.00421-.08154s.00262-.05432.00421-.08142c.00159-.02722.00262-.05443.00421-.08165.00171-.0271.00273-.05443.00421-.08154.00171-.0271.00273-.05432.00433-.08142.00159-.02722.00262-.05443.00421-.08165.00171-.0271.00262-.05432.00421-.08154.00171-.0271.00273-.05432.00433-.08142s.00262-.05443.00421-.08154c.00159-.02722.00262-.05443.00421-.08154.00171-.02745.00273-.055.00433-.08245.00159-.02688.00251-.05387.0041-.08063.00171-.0271.00273-.05432.00433-.08154.00159-.0271.00262-.05443.00421-.08154s.00262-.05443.00421-.08154.00262-.05432.00421-.08142c.00171-.02722.00262-.05443.00421-.08165.00171-.0271.00273-.05443.00433-.08154s.00262-.05432.00421-.08142c.00171-.02722.00262-.05443.00421-.08165.00171-.0271.00273-.05421.00433-.08142.00159-.02745.00262-.055.00421-.08256.00159-.02676.00262-.05375.00421-.08051.00159-.0271.00262-.05432.00421-.08142.00171-.02722.00262-.05443.00421-.08165.00171-.0271.00273-.05443.00433-.08154s.00262-.05432.00421-.08142c.00159-.02722.00262-.05443.00421-.08165.00159-.0271.00262-.05432.00421-.08142.00171-.0271.00262-.05443.00421-.08154.00171-.02722.00273-.05443.00433-.08154s.00262-.05443.00421-.08154c.00171-.02745.00262-.055.00421-.08245.00171-.02688.00273-.05387.00421-.08063.00171-.0271.00262-.05432.00421-.08154.00171-.0271.00273-.05443.00433-.08154s.00262-.05432.00421-.08142c.00171-.02722.00262-.05443.00421-.08165.00171-.0271.00273-.05443.00433-.08154s.00262-.05432.00421-.08142c.00159-.02722.00262-.05443.00421-.08165.00159-.0271.00273-.05432.00421-.08154.00171-.0271.00262-.05421.00421-.08142.00171-.0271.00273-.05443.00433-.08154.00159-.02745.00262-.055.00421-.08245.00171-.02676.00262-.05387.00421-.08063.00159-.0271.00273-.05443.00421-.08154.00171-.0271.00262-.05432.00421-.08142.00171-.02722.00273-.05443.00433-.08165.00159-.0271.00262-.05432.00421-.08154.00171-.0271.00262-.05432.00421-.08142.00171-.0271.00273-.05443.00433-.08154s.00262-.05443.00421-.08154.00262-.05443.00421-.08154.00273-.05443.00421-.08154c.00171-.02745.00273-.055.00433-.08245.00159-.02676.00262-.05375.00421-.08063.00159-.0271.00262-.05443.00421-.08154s.00262-.05432.00421-.08142c.00159-.02722.00262-.05443.00421-.08165.00171-.0271.00262-.05432.00421-.08142.00171-.02722.00273-.05443.00433-.08165.00159-.0271.00262-.05432.00421-.08154.00171-.0271.00262-.05421.00421-.08142.00171-.0271.00273-.05443.00433-.08154.00159-.02722.00262-.05443.00421-.08154s.00262-.05432.00421-.08142c.00171-.02756.00273-.05512.00433-.08256.00159-.02676.00251-.05375.0041-.08051.00171-.02722.00273-.05443.00433-.08165.00159-.0271.00262-.05432.00421-.08154.00159-.0271.00262-.05432.00421-.08142s.00262-.05443.00421-.08154c.00171-.02722.00273-.05443.00421-.08154.00171-.0271.00273-.05443.00433-.08154s.00262-.05443.00421-.08154c.00171-.0271.00262-.05432.00421-.08154.00171-.0271.00273-.05443.00433-.08154.00159-.02745.00262-.055.00421-.08245.00159-.02688.00262-.05375.00421-.08051.00159-.02722.00262-.05443.00421-.08165.00171-.0271.00262-.05443.00421-.08154.00171-.0271.00273-.05432.00433-.08142.00159-.02722.00262-.05443.00421-.08165.00159-.0271.00262-.05421.00421-.08142.00159-.0271.00262-.05443.00421-.08154.00171-.02722.00273-.05443.00421-.08154.00171-.0271.00273-.05432.00433-.08142.00159-.02722.00262-.05443.00421-.08165.00171-.02745.00262-.055.00421-.08245.00171-.02676.00273-.05375.00421-.08051.00171-.02722.00262-.05443.00421-.08165.00171-.0271.00273-.05432.00433-.08142s.00262-.05443.00421-.08154c.00171-.02722.00262-.05443.00421-.08154.00171-.0271.00273-.05443.00433-.08154s.00262-.05443.00421-.08154.00262-.05443.00421-.08154.00262-.05432.00421-.08154c.00171-.0271.00262-.05443.00421-.08154.00171-.0271.00273-.05432.00433-.08142.00159-.02745.00262-.05512.00421-.08256.00171-.02676.00262-.05375.00421-.08063.00159-.0271.00262-.05432.00421-.08142.00171-.02722.00262-.05443.00421-.08165.00171-.0271.00273-.05432.00433-.08154.04054-.66962.06138-1.34368.06138-2.02184,0-21.496-20.65248-38.92201-46.12861-38.92201-24.70481,0-44.87296,16.3872-46.07133,36.98172-.00171.0271-.00273.05432-.00433.08142-.00159.02722-.00262.05443-.00421.08165-.00171.0271-.00262.05421-.00421.08142-.00171.0271-.00273.05443-.00433.08154-.00159.02722-.00262.05443-.00421.08154s-.00262.05432-.00421.08142c-.00159.02722-.00262.05455-.00421.08165-.00171.0271-.00273.05432-.00421.08154-.00171.0271-.00273.05432-.00433.08142-.00159.02722-.00262.05443-.00421.08165-.00171.02745-.00262.055-.00421.08234-.00171.02688-.00273.05387-.00421.08063-.00171.02722-.00273.05443-.00421.08154-.00171.0271-.00273.05443-.00433.08154s-.00262.05443-.00421.08154c-.00171.0271-.00262.05443-.00421.08154-.00171.0271-.00273.05432-.00433.08154-.00159.0271-.00262.05443-.00421.08154s-.00262.05432-.00421.08142c-.00159.02722-.00262.05443-.00421.08165-.00171.0271-.00273.05443-.00421.08154-.00171.02733-.00273.05489-.00433.08245-.00159.02676-.00262.05375-.00421.08063-.00159.0271-.00262.05432-.00421.08154-.00159.0271-.00262.05421-.00421.08142-.00171.0271-.00262.05443-.00421.08154-.00171.0271-.00273.05432-.00433.08142-.00159.02722-.00262.05443-.00421.08165-.00171.0271-.00262.05443-.00421.08154-.00171.0271-.00273.05432-.00433.08142-.00159.02722-.00262.05443-.00421.08165-.00159.0271-.00262.05432-.00421.08154-.00171.02745-.00273.055-.00433.08234-.00159.02688-.00251.05387-.0041.08063-.00171.02722-.00273.05443-.00433.08154s-.00262.05443-.00421.08154-.00262.05443-.00421.08154-.00262.05432-.00421.08154c-.00171.0271-.00262.05443-.00421.08154-.00171.0271-.00273.05443-.00433.08154s-.00262.05432-.00421.08142c-.00171.02722-.00262.05455-.00421.08165-.00171.0271-.00273.05432-.00433.08154-.00159.0271-.00262.05432-.00421.08142-.00171.02745-.00262.055-.00421.08256-.00159.02676-.00262.05364-.00421.08051-.00171.0271-.00262.05443-.00421.08154-.00171.02722-.00273.05443-.00433.08154s-.00262.05432-.00421.08142c-.00159.02722-.00262.05455-.00421.08165s-.00273.05432-.00421.08154c-.00171.0271-.00262.05432-.00421.08142-.00171.02722-.00273.05443-.00433.08165-.00159.0271-.00262.05432-.00421.08142-.00171.0271-.00262.05443-.00421.08154-.00171.02756-.00273.05512-.00433.08256-.00159.02676-.00262.05364-.0041.08051-.00171.0271-.00273.05443-.00433.08154s-.00262.05443-.00421.08154c-.00171.0271-.00262.05432-.00421.08154-.00171.0271-.00273.05443-.00433.08154s-.00262.05432-.00421.08142c-.00159.02722-.00262.05455-.00421.08165s-.00273.05432-.00421.08154c-.00171.0271-.00262.05432-.00421.08142-.00171.02722-.00273.05443-.00433.08165-.00159.02733-.00262.055-.00421.08245-.00171.02676-.00262.05364-.00421.08051-.00159.0271-.00262.05443-.00421.08154-.00171.0271-.00262.05432-.00421.08142-.00171.02722-.00273.05455-.00433.08165s-.00262.05432-.00421.08154c-.00171.0271-.00262.05432-.00421.08142-.00171.02722-.00273.05443-.00433.08165-.00159.0271-.00262.05432-.00421.08154-.00159.0271-.00262.05432-.00421.08142s-.00262.05443-.00421.08154c-.00171.0271-.00262.05443-.00421.08154-.00171.02745-.00273.055-.00433.08245-.00159.02688-.00262.05375-.00421.08063-.00159.0271-.00262.05432-.00421.08154-.00159.0271-.00262.05443-.00421.08154-.00171.0271-.00273.05443-.00421.08154-.00171.0271-.00273.05432-.00433.08142-.00159.02722-.00262.05455-.00421.08165-.00171.0271-.00262.05432-.00421.08142-.00171.02722-.00273.05443-.00433.08165-.00159.0271-.00262.05432-.00421.08154-.00159.0271-.00262.05421-.00421.08142-.00171.02745-.00273.055-.00433.08256-.00159.02676-.00251.05375-.0041.08051-.00171.0271-.00273.05432-.00433.08142-.00159.02722-.00262.05455-.00421.08165s-.00262.05432-.00421.08142c-.00159.02722-.00262.05443-.00421.08165-.00171.0271-.00273.05432-.00421.08154-.00171.0271-.00273.05432-.00433.08142s-.00262.05443-.00421.08154c-.00171.02722-.00262.05443-.00421.08154-.00171.0271-.00273.05443-.00433.08154-.00159.02745-.00262.055-.00421.08245-.00159.02688-.00262.05375-.00421.08063-.00159.0271-.00262.05443-.00421.08154-.00171.0271-.00262.05443-.00421.08154-.00171.0271-.00273.05432-.00433.08142-.00159.02722-.00262.05455-.00421.08165s-.00262.05432-.00421.08154c-.00159.0271-.00262.05432-.00421.08142-.00171.02722-.00262.05443-.00421.08165-.00171.0271-.00273.05421-.00433.08142-.00159.0271-.00262.05443-.00421.08154-.00171.02722-.00262.05443-.00421.08154-.00171.02745-.00273.055-.00433.08245-.00159.02688-.00262.05387-.0041.08063-.00171.0271-.00273.05432-.00433.08154-.00159.0271-.00262.05432-.00421.08142-.00171.02722-.00262.05443-.00421.08165-.00171.0271-.00273.05432-.00433.08142s-.00262.05443-.00421.08154c-.00159.02722-.00262.05443-.00421.08154s-.00262.05443-.00421.08154c-.00171.0271-.00262.05443-.00421.08154-.00171.0271-.00273.05443-.00433.08154-.00159.02745-.00262.055-.00421.08245-.00171.02688-.00262.05375-.00421.08063-.00159.0271-.00262.05432-.00421.08142-.00171.02722-.00262.05443-.00421.08165-.00171.0271-.00273.05443-.00433.08154s-.00262.05432-.00421.08142c-.00171.02722-.00262.05443-.00421.08165-.00171.0271-.00273.05432-.00433.08154-.00159.0271-.00262.05421-.00421.08142-.00159.0271-.00262.05443-.00421.08154s-.00262.05432-.00421.08142c-.00171.02722-.00262.05443-.00421.08165-.00171.02745-.00273.055-.00433.08245-.00159.02676-.00262.05375-.00421.08051-.00159.02722-.00262.05443-.00421.08165-.00159.0271-.00273.05432-.00421.08154-.00171.0271-.00262.05432-.00421.08142-.00171.0271-.00273.05443-.00433.08154s-.00262.05443-.00421.08154c-.00171.0271-.00262.05443-.00421.08154-.00171.0271-.00273.05443-.00433.08154s-.00262.05432-.00421.08154c-.00159.0271-.00262.05443-.00421.08154-.00171.02745-.00273.055-.00433.08245-.00159.02688-.00251.05375-.0041.08051-.00171.02722-.00273.05455-.00433.08165s-.00262.05432-.00421.08142c-.00159.02722-.00262.05443-.00421.08165-.00159.0271-.00273.05432-.00421.08154-.00171.0271-.00262.05421-.00421.08142-.00171.0271-.00273.05443-.00433.08154-.00159.02722-.00262.05443-.00421.08154-.00171.0271-.00262.05432-.00421.08142-.00171.02722-.00273.05455-.00433.08165-.00159.02745-.00262.055-.00421.08245-.00159.02676-.00262.05375-.00421.08063-.00159.0271-.00262.05432-.00421.08154-.00171.0271-.00262.05432-.00421.08142-.00171.0271-.00273.05443-.00433.08154-.00159.02722-.00262.05443-.00421.08154s-.00262.05443-.00421.08154-.00262.05443-.00421.08154c-.00171.0271-.00262.05432-.00421.08154-.00171.0271-.00273.05443-.00433.08154s-.00262.05443-.00421.08154c-.00171.0271-.00262.05432-.00421.08142-.00171.02745-.00273.05512-.00433.08256-.00159.02688-.00262.05375-.0041.08063-.00171.0271-.00273.05432-.00433.08142-.00159.02722-.00262.05443-.00421.08165-.00171.0271-.00262.05432-.00421.08154-.00171.0271-.00273.05421-.00433.08142-.00159.0271-.00262.05443-.00421.08154s-.00262.05432-.00421.08142c-.00159.02722-.00262.05455-.00421.08165-.00171.0271-.00273.05432-.00421.08154-.00171.0271-.00273.05432-.00433.08142-.00159.02756-.00262.05512-.00421.08256-.00171.02676-.00262.05375-.00421.08063-.00159.0271-.00262.05432-.00421.08142-.00171.0271-.00262.05443-.00421.08154-.00171.0271-.00273.05443-.00433.08154s-.00262.05443-.00421.08154c-.00171.0271-.00262.05443-.00421.08154-.00171.0271-.00273.05432-.00433.08154-.00159.0271-.00262.05443-.00421.08154s-.00262.05443-.00421.08154-.00262.05432-.00421.08142c-.00171.02745-.00273.05512-.00433.08256-.00159.02676-.00262.05375-.00421.08051-.00159.02722-.00262.05443-.00421.08165-.00159.0271-.00262.05432-.00421.08154-.00159.0271-.00262.05421-.00421.08142-.00171.0271-.00262.05443-.00421.08154-.00171.02722-.00273.05443-.00433.08154s-.00262.05432-.00421.08142c-.00171.02722-.00262.05455-.00421.08165-.04066.66962-.0615,1.34368-.0615,2.02184,0,4.70179.98905,9.20839,2.79987,13.38086l-65.37023,59.3768c-.27616.25088-.40314.59662-.3864.93553-.00057.02722-.00558.05432-.00421.08154-.00057.02722-.00558.05421-.00433.08154-.00046.02722-.00547.05421-.00421.08154-.00046.02722-.00558.05421-.00421.08154-.00046.02722-.00558.05421-.00421.08142-.00057.02733-.00558.05432-.00421.08154-.00057.02722-.00569.05432-.00433.08154-.00046.02722-.00558.05432-.00421.08154-.00057.02733-.00558.05443-.00421.08165-.00046.02722-.00558.05421-.00421.08142-.00057.02722-.00558.05432-.00421.08154-.00057.02722-.00569.05432-.00433.08154-.00046.02722-.00558.05432-.00421.08142-.00057.02733-.00558.05443-.00421.08154-.00057.02733-.00558.05443-.00433.08154-.00046.02733-.00547.05432-.00421.08154-.00046.02733-.00558.05432-.00421.08154-.00046.02733-.00558.05432-.00421.08154-.00057.02733-.00558.05432-.00421.08154-.00057.02733-.00569.05443-.00433.08165-.00046.02722-.00547.05421-.00421.08142-.00046.02722-.00558.05432-.00421.08154-.00046.02722-.00558.05432-.00421.08154-.00057.02722-.00558.05421-.00421.08154-.00057.02722-.00569.05421-.00433.08154-.00046.02722-.00558.05421-.00421.08142-.00057.02733-.00558.05432-.00421.08154-.00057.02722-.00558.05432-.00433.08154-.00046.02722-.00547.05432-.00421.08154-.00046.02722-.00558.05432-.00421.08154-.00046.02733-.00558.05443-.00421.08165-.00057.02722-.00558.05421-.00421.08142-.00057.02722-.00558.05432-.00433.08154-.00046.02722-.00547.05432-.00421.08154-.00057.02722-.00558.05432-.00421.08142-.00046.02733-.00558.05443-.00421.08154-.00057.02733-.00558.05432-.00421.08154-.00057.02733-.00569.05432-.00433.08154-.00046.02733-.00558.05432-.00421.08154-.00057.02733-.00558.05432-.00421.08154-.00057.02733-.00558.05432-.00433.08154-.00046.02722-.00547.05432-.00421.08154-.00046.02733-.00558.05443-.00421.08165-.00046.02722-.00558.05421-.00421.08142-.00057.02722-.00558.05421-.00421.08154-.00057.02722-.00558.05421-.00433.08154-.00046.02722-.00547.05421-.00421.08154-.00046.02722-.00558.05421-.00421.08142-.00046.02733-.00558.05432-.00421.08154-.00057.02722-.00558.05432-.00421.08154-.00057.02722-.00569.05432-.00433.08154-.00046.02722-.00558.05432-.00421.08154-.00057.02722-.00558.05432-.00421.08154-.00057.02722-.00558.05443-.00421.08165-.00057.02722-.00558.05421-.00421.08142-.00057.02722-.00569.05432-.00433.08142-.00046.02733-.00558.05443-.00421.08154-.00057.02733-.00558.05443-.00421.08154-.00057.02733-.00558.05432-.00433.08154-.00046.02733-.00547.05432-.00421.08154-.00046.02733-.00558.05432-.00421.08154-.00046.02733-.00558.05432-.00421.08154-.00057.02722-.00558.05432-.00421.08154-.00057.02722-.00569.05432-.00433.08154-.00046.02733-.00558.05443-.00421.08165-.00046.02722-.00558.05421-.00421.08142-.00057.02722-.00558.05421-.00421.08154-.00057.02722-.00558.05421-.00421.08154-.00057.02722-.00569.05421-.00433.08142-.00046.02733-.00558.05432-.00421.08154-.00057.02722-.00558.05432-.00421.08154-.00057.02722-.00558.05432-.00433.08154-.00046.02722-.00547.05432-.00421.08154-.00046.02722-.00558.05432-.00421.08154-.00046.02722-.00558.05432-.00421.08154-.00057.02722-.00558.05432-.00421.08154-.00057.02722-.00569.05432-.00433.08165-.00046.02722-.00547.05421-.00421.08131-.00046.02733-.00558.05443-.00421.08154-.00057.02733-.00558.05432-.00421.08154-.00057.02733-.00558.05432-.00421.08154-.00057.02733-.00569.05432-.00433.08154-.00046.02733-.00558.05432-.00421.08154-.00057.02733-.00558.05432-.00421.08154-.00057.02722-.00558.05432-.00433.08154-.00046.02722-.00547.05432-.00421.08154-.00046.02722-.00558.05432-.00421.08154-.00046.02733-.00558.05443-.00421.08165-.00057.02722-.00558.05421-.00421.08142-.00057.02722-.00558.05421-.00433.08154-.00046.02722-.00547.05421-.00421.08142-.00046.02733-.00558.05432-.00421.08154-.00046.02722-.00558.05432-.00421.08154-.00057.02722-.00558.05432-.00421.08154-.00057.02722-.00569.05432-.00433.08154-.00046.02722-.00558.05432-.00421.08154-.00057.02722-.00558.05432-.00421.08154-.00057.02722-.00558.05432-.00433.08154-.00046.02722-.00547.05432-.00421.08142-.00046.02733-.00558.05443-.00421.08177-.00046.0271-.00558.05421-.00421.08131-.00057.02733-.00558.05432-.00421.08154-.00057.02733-.00558.05432-.00433.08154-.00046.02733-.00547.05432-.00421.08154-.00046.02733-.00558.05432-.00421.08154-.00046.02722-.00558.05432-.00421.08154-.00057.02722-.00558.05432-.00421.08154-.00057.02722-.00569.05432-.00433.08154-.00046.02722-.00558.05421-.00421.08154-.00057.02722-.00558.05421-.00421.08154-.00057.02722-.00558.05443-.00421.08165-.00057.02722-.00558.05409-.00421.08131-.00057.02733-.00569.05432-.00433.08154-.00046.02722-.00558.05432-.00421.08154-.00057.02722-.00558.05432-.00421.08154-.00057.02722-.00558.05432-.00433.08154-.00046.02722-.00547.05432-.00421.08154-.00046.02722-.00558.05432-.00421.08154-.00046.02722-.00558.05432-.00421.08154-.00057.02722-.00558.05432-.00421.08142-.00057.02733-.00569.05443-.00433.08154-.00046.02733-.00558.05443-.00421.08177-.00046.0271-.00558.05421-.00421.08131-.00046.02733-.00558.05432-.00421.08154-.00057.02733-.00558.05432-.00421.08154-.00057.02733-.00569.05432-.00433.08154-.00046.02722-.00558.05432-.00421.08154-.00057.02722-.00558.05432-.00421.08154-.00057.02722-.00558.05432-.00433.08154-.00046.02722-.00547.05432-.00421.08154-.00046.02722-.00558.05421-.00421.08154-.00046.02722-.00558.05421-.00421.08154-.00057.02722-.00558.05421-.00421.08142-.00057.02733-.00569.05443-.00433.08165-.00046.02733-.00547.05421-.00421.08142-.00057.02722-.00558.05432-.00421.08154-.00046.02722-.00558.05432-.00421.08154-.00057.02722-.00558.05432-.00421.08154-.00057.02722-.00569.05432-.00433.08154-.00046.02722-.00558.05432-.00421.08154-.00057.02722-.00558.05432-.00421.08142-.00057.02733-.00558.05443-.00433.08154-.00046.02733-.00547.05443-.00421.08154-.00046.02733-.00558.05432-.00421.08154-.00046.02733-.00558.05443-.00421.08177-.00057.0271-.00558.05421-.00421.08131-.00057.02733-.00558.05432-.00433.08154-.00046.02733-.00547.05432-.00421.08154-.00046.02722-.00558.05432-.00421.08154-.00046.02722-.00558.05432-.00421.08154-.00057.02722-.00558.05432-.00421.08154-.00057.02722-.00569.05421-.00433.08154-.00046.02722-.00558.05421-.00421.08154-.00057.02722-.00558.05421-.00421.08154-.00057.02722-.00558.05421-.00433.08142-.00046.02733-.00547.05443-.0041.08165-.00057.02722-.00569.05421-.00433.08142-.00046.02722-.00558.05432-.00421.08154-.00057.02722-.00558.05432-.00421.08154-.00057.02722-.00558.05432-.00433.08154-.00046.02722-.00547.05432-.00421.08154-.00046.02722-.00558.05432-.00421.08154-.00046.02722-.00558.05432-.00421.08142-.00057.02733-.00558.05443-.00421.08154-.00057.02733-.00569.05432-.00433.08154-.00046.02733-.00558.05432-.00421.08154-.00057.02733-.00558.05432-.00421.08154-.00057.02733-.00558.05443-.00421.08165-.00057.02722-.00558.05421-.00421.08142-.00057.02722-.00569.05432-.00433.08154-.00046.02722-.00558.05432-.00421.08154-.00057.02722-.00558.05432-.00421.08154-.00057.02722-.00558.05432-.00433.08154-.00046.02722-.00547.05421-.00421.08154-.00046.02722-.00558.05421-.00421.08154-.00046.02722-.00558.05421-.00421.08142-.00057.02733-.00558.05432-.00421.08154-.00057.02722-.00569.05432-.00433.08154-.00046.02733-.00558.05443-.00421.08165-.00046.02722-.00558.05421-.00421.08142-.00046.02722-.00558.05432-.00421.08154-.00057.02722-.00558.05432-.00421.08154-.00057.02722-.00569.05432-.00433.08154-.00046.02722-.00558.05432-.00421.08142-.00057.02733-.00558.05443-.00421.08154-.00057.02733-.00558.05443-.00433.08154-.00046.02733-.00547.05432-.00421.08154-.00046.02733-.00558.05432-.00421.08154-.00046.02733-.00558.05432-.00421.08154-.00057.02733-.00558.05443-.00421.08165-.00057.02722-.00558.05421-.00433.08142-.00046.02722-.00547.05432-.00421.08154-.00046.02722-.00558.05432-.00421.08154-.00046.02722-.00558.05432-.00421.08154-.00057.02722-.00558.05421-.00421.08154-.00057.02722-.00569.05421-.00433.08154-.00046.02722-.00558.05421-.00421.08154-.00057.02722-.00558.05421-.00421.08142-.00057.02733-.00558.05432-.00433.08154-.00046.02722-.00547.05432-.00421.08154-.00695.36476.14725.73054.46816.97106l20.08695,15.05912c.4586.34369,1.09747.30998,1.51735-.08017l6.79822-6.31855c.43149-.40097,1.09212-.42409,1.5506-.05421l15.43709,12.4549c.4652.37535,1.1371.3454,1.56711-.06992l17.02368-16.44334c.25521-.24655.37376-.57681.3602-.90182.00068-.02722.00535-.05421.00421-.08154.00068-.02733.00535-.05432.00421-.08165.00068-.02722.00535-.05421.00421-.08142.00068-.02722.00535-.05421.00421-.08142.0008-.02722.00547-.05432.00433-.08154.00068-.02722.00535-.05432.00421-.08154.00068-.02722.00535-.05432.00421-.08154.00068-.02722.00535-.05432.00421-.08154.0008-.02722.00535-.05432.00421-.08154.0008-.02722.00547-.05432.00433-.08154.00068-.02722.00535-.05432.00421-.08154.00068-.02722.00535-.05432.00421-.08154.00068-.02722.00547-.05432.00433-.08154.00068-.02722.00535-.05432.00421-.08165.00068-.0271.00535-.05421.00421-.08131.00068-.02733.00535-.05432.00421-.08154.00068-.02733.00535-.05432.00421-.08154.0008-.02722.00547-.05432.00433-.08154.00068-.02722.00535-.05432.00421-.08154.00068-.02722.00535-.05432.00421-.08154.00068-.02722.00535-.05421.00421-.08154.0008-.02722.00535-.05421.00421-.08154.0008-.02722.00547-.05421.00433-.08154.00068-.02722.00535-.05432.00421-.08154.00068-.02722.00535-.05432.00421-.08154.00068-.02733.00535-.05421.00421-.08142.0008-.02722.00535-.05432.00421-.08154.0008-.02722.00547-.05432.00433-.08154.00068-.02722.00535-.05432.00421-.08154.00068-.02722.00535-.05432.00421-.08154.0008-.02722.00547-.05432.00433-.08154.00068-.02722.00535-.05432.00421-.08154.00068-.02722.00535-.05421.00421-.08142.00068-.02733.00535-.05443.00421-.08154.0008-.02733.00535-.05443.00421-.08165.0008-.02722.00547-.05421.00433-.08142.00068-.02733.00535-.05443.00421-.08165.00068-.02722.00535-.05421.00421-.08142.00068-.02722.00535-.05432.00421-.08154.0008-.02722.00535-.05432.00421-.08154.0008-.02722.00547-.05421.00433-.08154.00068-.02722.00535-.05432.00421-.08154.0008-.02722.00535-.05421.00421-.08154.00068-.02722.00547-.05421.00433-.08154.00068-.02722.00535-.05421.00421-.08154.00068-.02722.00535-.05421.00421-.08154.00068-.02722.00535-.05421.00421-.08154.0008-.02722.00535-.05432.00421-.08154.0008-.02722.00547-.05421.00433-.08142.00068-.02722.00535-.05432.00421-.08154.00068-.02722.00535-.05432.00421-.08154.00068-.02722.00535-.05432.00421-.08154.0008-.02722.00535-.05432.00421-.08154.0008-.02722.00547-.05421.00433-.08142.00068-.02733.00535-.05443.00421-.08154.00068-.02733.00535-.05432.00421-.08154.00068-.02733.00547-.05432.00433-.08154.00068-.02733.00535-.05432.00421-.08154.00068-.02733.00535-.05443.00421-.08165.00068-.02722.00535-.05421.00421-.08142.00068-.02722.00535-.05432.00421-.08154.00068-.02722.00547-.05421.00433-.08154.00068-.02722.00535-.05432.00421-.08154.00068-.02722.00535-.05421.00421-.08154.00068-.02722.00535-.05421.00421-.08154.0008-.02722.00535-.05421.00421-.08154.0008-.02722.00547-.05421.00433-.08154.00068-.02722.00535-.05421.00421-.08142.00068-.02733.00535-.05432.00421-.08165.00068-.02722.00547-.05421.00433-.08142.00068-.02733.00535-.05443.00421-.08165.00068-.02722.00535-.05421.00421-.08142.00068-.02722.00535-.05432.00421-.08154.0008-.02722.00535-.05432.00421-.08154.0008-.02722.00547-.05432.00433-.08154.00068-.02722.00535-.05432.00421-.08142.00068-.02733.00535-.05443.00421-.08154.00068-.02733.00535-.05432.00421-.08154.0008-.02733.00535-.05432.00421-.08154.0008-.02733.00547-.05432.00433-.08154.00068-.02733.00535-.05432.00421-.08154.00068-.02733.00535-.05443.00421-.08165.00068-.02722.00535-.05421.00421-.08142.0008-.02722.00535-.05432.00421-.08154.0008-.02722.00547-.05432.00433-.08154.00068-.02722.00535-.05421.00421-.08154.0008-.02722.00535-.05421.00421-.08154.0008-.02722.00547-.05421.00433-.08154.00068-.02722.00535-.05421.00421-.08142.00068-.02722.00535-.05432.00421-.08154.00068-.02722.00535-.05432.00421-.08154.0008-.02733.00535-.05432.00421-.08154.0008-.02733.00547-.05432.00433-.08165.00068-.02722.00535-.05421.00421-.08142.00068-.02722.00535-.05432.00421-.08154.00068-.02722.00535-.05432.00421-.08154.0008-.02722.00535-.05421.00421-.08142.0008-.02733.00547-.05443.00433-.08154.00068-.02733.00535-.05432.00421-.08154.00068-.02733.00535-.05432.00421-.08154.00068-.02733.00547-.05432.00433-.08154.00068-.02733.00535-.05432.00421-.08154.00068-.02733.00535-.05432.00421-.08154.00068-.02733.00535-.05432.00421-.08154.0008-.02733.00535-.05443.00421-.08165.0008-.02722.00547-.05421.00433-.08142.00068-.02722.00535-.05421.00421-.08154.00068-.02722.00535-.05421.00421-.08154.00068-.02722.00535-.05421.00421-.08154.0008-.02722.00535-.05421.00421-.08154.0008-.02722.00547-.05421.00433-.08142.00068-.02722.00535-.05432.00421-.08154.00068-.02722.00535-.05432.00421-.08154.00068-.02722.00547-.05432.00433-.08154.00068-.02733.00535-.05432.00421-.08154.00068-.02733.00535-.05432.00421-.08165.00068-.02722.00535-.05421.00421-.08142.00068-.02722.00535-.05432.00421-.08154.00068-.02722.00547-.05432.00433-.08142.00068-.02733.00535-.05432.00421-.08154.00068-.02733.00535-.05432.00421-.08154.00068-.02733.00535-.05432.00421-.08154.0008-.02733.00535-.05432.00421-.08154.0008-.02733.00547-.05432.00433-.08154.00068-.02722.00535-.05432.00421-.08154.00068-.02733.00535-.05432.00421-.08154.00068-.02733.00547-.05443.00433-.08165.00068-.02722.00524-.05421.0041-.08142.0008-.02722.00547-.05421.00433-.08154.00068-.02722.00535-.05421.00421-.08154.0008-.02722.00535-.05421.00421-.08154.00068-.02722.00547-.05421.00433-.08142.00068-.02722.00535-.05432.00421-.08154.00068-.02722.00535-.05432.00421-.08154.00068-.02722.00535-.05432.00421-.08154.0008-.02722.00535-.05432.00421-.08154.0008-.02722.00547-.05432.00433-.08154.00068-.02722.00535-.05432.00421-.08154.00068-.02733.00535-.05432.00421-.08165.00068-.0271.00535-.05421.00421-.08131.0008-.02733.00535-.05443.00421-.08154.0008-.02733.00547-.05432.00433-.08154.00068-.02733.00535-.05432.00421-.08154.0008-.02733.00535-.05432.00421-.08154.00068-.02733.00547-.05432.00433-.08154.00068-.02722.00535-.05432.00421-.08154.00068-.02722.00535-.05432.00421-.08154.00068-.02733.00535-.05432.00421-.08154.0008-.02733.00535-.05432.00421-.08154.0008-.02733.00547-.05443.00433-.08165.00068-.02722.00535-.05421.00421-.08142.00068-.02722.00535-.05421.00421-.08154.00068-.02722.00535-.05421.00421-.08142.0008-.02722.00535-.05432.00421-.08154.00046-.01765.00376-.03508.00342-.05261l6.8153,5.37653c.45188.35645,1.09451.33675,1.5235-.04692l17.50141-15.64629c.27536-.2461.40485-.58705.39346-.92357.00091-.02733.00512-.05432.00421-.08165.00091-.02722.00512-.05421.00421-.08142.00091-.02722.00512-.05421.00421-.08154.00091-.02722.00524-.05421.00433-.08142.00091-.02733.00512-.05432.00421-.08154.00091-.02733.00512-.05432.00421-.08154.00091-.02733.00512-.05432.00421-.08154.00102-.02733.00524-.05432.00421-.08154.00102-.02733.00524-.05432.00433-.08154.00091-.02733.00512-.05432.00421-.08154.00091-.02733.00512-.05432.00421-.08154.00091-.02733.00524-.05432.00433-.08165.00091-.02722.00501-.05421.0041-.08142.00102-.02733.00524-.05421.00433-.08154.00091-.02722.00512-.05421.00421-.08154.00091-.02722.00512-.05421.00421-.08154.00091-.02722.00524-.05421.00433-.08142.00091-.02733.00512-.05432.00421-.08165.00091-.02722.00512-.05421.00421-.08154.00091-.02722.00524-.05421.00421-.08142.00102-.02733.00524-.05432.00421-.08154.00102-.02733.00524-.05432.00433-.08154.00091-.02733.00512-.05432.00421-.08165.00091-.02722.00512-.05421.00421-.08142.00091-.02722.00512-.05421.00421-.08142.00102-.02733.00512-.05432.00421-.08154.00102-.02733.00524-.05432.00433-.08154.00091-.02733.00512-.05421.00421-.08154.00091-.02733.00512-.05432.00421-.08154.00091-.02733.00524-.05432.00433-.08154.00091-.02733.00512-.05432.00421-.08154.00091-.02733.00512-.05432.00421-.08154.00091-.02733.00524-.05421.00421-.08154.00102-.02733.00524-.05421.00421-.08154.00102-.02733.00524-.05432.00433-.08165.00091-.02722.00512-.05409.00421-.08142.00091-.02722.00512-.05421.00421-.08154.00091-.02722.00512-.05421.00421-.08154.00102-.02722.00512-.05421.00421-.08142.00102-.02733.00524-.05432.00433-.08154.00091-.02733.00512-.05432.00421-.08154.00091-.02733.00512-.05432.00421-.08154.00091-.02733.00524-.05432.00433-.08154.00091-.02733.00512-.05432.00421-.08154.00091-.02733.00512-.05432.00421-.08154.00091-.02733.00524-.05432.00421-.08165.00102-.02722.00512-.05409.00421-.08131.00091-.02733.00524-.05432.00433-.08154.00091-.02733.00512-.05421.00421-.08154.00091-.02733.00512-.05432.00421-.08154.00091-.02733.00512-.05432.00421-.08154.00102-.02733.00512-.05432.00421-.08154.00102-.02733.00524-.05432.00433-.08154.00091-.02733.00512-.05432.00421-.08154.00091-.02733.00512-.05421.00421-.08154.00091-.02733.00524-.05421.00433-.08154.00091-.02733.00512-.05432.00421-.08165.00091-.02722.00512-.05409.00421-.08142.00091-.02722.00512-.05421.00421-.08154.00091-.02722.00512-.05421.00421-.08142.00091-.02733.00524-.05432.00433-.08154.00091-.02733.00512-.05432.00421-.08154.00091-.02733.00512-.05421.00421-.08154.00091-.02733.00524-.05432.00421-.08154.00102-.02733.00524-.05432.00421-.08154.00102-.02733.00524-.05432.00433-.08154.00091-.02722.00512-.05432.00421-.08154.00091-.02722.00512-.05421.00421-.08154.00091-.02733.00524-.05432.00433-.08165.00091-.02722.00501-.05421.0041-.08131.00102-.02733.00524-.05421.00433-.08154.00091-.02733.00512-.05432.00421-.08154.00091-.02733.00512-.05421.00421-.08154.00091-.02733.00524-.05421.00433-.08154.00091-.02733.00512-.05432.00421-.08154.00091-.02733.00512-.05421.00421-.08154.00091-.02733.00524-.05421.00421-.08154.00102-.02733.00524-.05421.00421-.08154.00102-.02733.00524-.05421.00433-.08154.00091-.02733.00512-.05432.00421-.08165.00091-.02722.00512-.05409.00421-.08142.00091-.02722.00512-.05421.00421-.08142.00102-.02733.00512-.05432.00421-.08154.00102-.02733.00524-.05421.00433-.08154.00091-.02733.00512-.05432.00421-.08154.00091-.02733.00512-.05432.00421-.08154.00091-.02733.00524-.05432.00433-.08154.00091-.02733.00512-.05432.00421-.08154.00091-.02722.00512-.05432.00421-.08154.00091-.02722.00524-.05421.00421-.08154.00102-.02733.00524-.05432.00421-.08165.00102-.02722.00524-.05409.00433-.08131.00091-.02733.00512-.05432.00421-.08154.00091-.02733.00512-.05432.00421-.08154.00091-.02733.00512-.05421.00421-.08154.00102-.02733.00512-.05421.00421-.08154.00102-.02733.00524-.05421.00433-.08154.00091-.02733.00512-.05421.00421-.08154.00091-.02733.00512-.05421.00421-.08154.00091-.02733.00524-.05421.00433-.08154.00091-.02733.00512-.05421.00421-.08154.00091-.02722.00512-.05421.00421-.08154.00091-.02733.00524-.05432.00421-.08154.00102-.02733.00512-.05421.00421-.08142.00091-.02733.00524-.05432.00433-.08154.00091-.02733.00512-.05421.00421-.08154.00091-.02733.00512-.05432.00421-.08154.00091-.02722.00512-.05421.00421-.08154.00102-.02722.00512-.05432.00421-.08154.00102-.02722.00524-.05432.00433-.08154.00091-.02722.00512-.05421.00421-.08154.00091-.02722.00512-.05421.00421-.08154.00091-.02722.00524-.05421.00433-.08154.00091-.02722.00512-.05432.00421-.08165.00091-.02722.00512-.05409.00421-.08131.00091-.02733.00512-.05421.00421-.08154.00091-.02733.00512-.05421.00421-.08154.00091-.02733.00524-.05421.00433-.08154.00091-.02733.00512-.05421.00421-.08154.00091-.02733.00512-.05421.00421-.08154.00091-.02733.00524-.05421.00421-.08154.00102-.02733.00524-.05421.00421-.08154.00102-.02722.00524-.05421.00433-.08154.00091-.02722.00512-.05421.00421-.08154.00091-.02722.00512-.05421.00421-.08154.00091-.02722.00524-.05421.00433-.08154.00091-.02733.00501-.05421.0041-.08142.00102-.02733.00524-.05432.00433-.08154.00091-.02733.00512-.05432.00421-.08154.00091-.02722.00512-.05421.00421-.08154.00091-.02722.00524-.05421.00433-.08154.00091-.02722.00512-.05421.00421-.08154.00091-.02722.00512-.05421.00421-.08154.00091-.02722.00524-.05421.00421-.08154.00102-.02722.00524-.05421.00421-.08142.00102-.02733.00524-.05432.00433-.08154.00091-.02733.00512-.05443.00421-.08165.00091-.02722.00512-.05421.00421-.08142.00091-.02733.00512-.05421.00421-.08154.00102-.02733.00512-.05421.00421-.08154.00102-.02733.00524-.05421.00433-.08154.00091-.02733.00512-.05421.00421-.08154.00091-.02733.00512-.05421.00421-.08154.00091-.02733.00524-.05421.00433-.08154.00091-.02722.00512-.05421.00421-.08154.00091-.02722.00512-.05421.00421-.08154.00091-.02722.00524-.05421.00421-.08154.00102-.02722.00524-.05421.00421-.08154.00102-.02733.00524-.05421.00433-.08142.00091-.02733.00512-.05432.00421-.08154.00091-.02722.00512-.05421.00421-.08154.00091-.02722.00512-.05421.00421-.08154.00102-.02722.00512-.05421.00421-.08154.00102-.02722.00524-.05421.00433-.08142.00091-.02733.00512-.05432.00421-.08165.00091-.02722.00512-.05421.00421-.08142.00091-.02733.00524-.05432.00433-.08154.00091-.02733.00512-.05432.00421-.08154.00091-.02733.00512-.05432.00421-.08154.00091-.02733.00524-.05432.00421-.08165.00102-.02722.00512-.05421.00421-.08142.00091-.02733.00524-.05421.00433-.08154.00091-.02733.00512-.05421.00421-.08154.00091-.02722.00512-.05421.00421-.08154.00091-.02722.00512-.05421.00421-.08154.00102-.02722.00524-.05421.00421-.08154.00102-.02722.00524-.05421.00433-.08154.00091-.02722.00512-.05421.00421-.08154.00091-.02722.00512-.05421.00421-.08154.00091-.02722.00524-.05421.00433-.08142.00091-.02733.00512-.05432.00421-.08165.00091-.02722.00512-.05421.00421-.08142.00091-.02722.00512-.05421.00421-.08154.00091-.02722.00512-.05421.00421-.08154.00091-.02722.00524-.05421.00433-.08142.00091-.02733.00512-.05432.00421-.08154.00091-.02733.00512-.05432.00421-.08165.00091-.02722.00524-.05421.00421-.08142.00102-.02733.00524-.05432.00421-.08154.00102-.02733.00524-.05432.00433-.08154.00091-.02733.00512-.05432.00421-.08154.00091-.02733.00512-.05432.00421-.08165.00091-.02722.00512-.05409.00421-.08142.00102-.02733.00512-.05421.00421-.08154.00102-.02733.00524-.05421.00433-.08154.00091-.02722.00512-.05421.00421-.08154.00091-.02722.00512-.05421.00421-.08154.00091-.02722.00524-.05421.00433-.08142.00091-.02733.00512-.05432.00421-.08165.00091-.02722.00512-.05421.00421-.08154.00091-.02722.00524-.05421.00421-.08142.00102-.02733.00524-.05432.00421-.08154.00102-.02733.00524-.05432.00433-.08154.00091-.02733.00512-.05432.00421-.08165.00091-.02722.00512-.05421.00421-.08142.00091-.02722.00512-.05421.00421-.08142.00102-.02733.00512-.05432.00421-.08154.00102-.02733.00524-.05432.00433-.08154.00091-.02733.00512-.05421.00421-.08154.00091-.02733.00512-.05432.00421-.08154.0123-.35667-.12971-.71676-.43389-.96275l-7.27845-5.88376,10.79919-10.03721c.29381-.27309.70401-.37524,1.09303-.2773,4.1842,1.05351,8.61644,1.62109,13.20651,1.62109,24.70481,0,44.87285-16.3872,46.07133-36.98183.00171-.0271.00273-.05443.00433-.08154ZM139.563,48.40219c6.39485,0,11.99163,2.88016,15.0704,7.18655-3.19845,3.70112-8.37399,6.10822-14.21834,6.10822-6.39485,0-11.99163-2.88027-15.0704-7.18655,3.19845-3.70123,8.37399-6.10822,14.21834-6.10822Z" fill="#f75e28"/><path d="M103.02626,134.24056l-15.55681-12.27271c-.45862-.36187-1.11253-.33537-1.54044.06238l-5.23616,4.86663c-.52383.48664-.5003,1.323.0501,1.77982l14.38487,11.93292c.54336.45048.57448,1.27359.06673,1.76381l-1.5659,1.51263,8.54545,6.74168c.45186.35635,1.09445.33648,1.52353-.04692l.22331-.19957v-15.90136c-.31012.04251-.6339-.03368-.89467-.23932Z" fill="url(#uuid-985f37e0-8616-4eb2-958d-fee8e91b00b7)"/><path d="M139.82665,48.40226c6.39485,0,11.99164,2.88006,15.07038,7.18636,2.11782-2.45057,3.37056-5.46754,3.37056-8.73266,0-8.19634-7.87477-14.84086-17.58885-14.84086s-17.58871,6.64452-17.58871,14.84086c0,2.80057.92041,5.41951,2.51833,7.6545,3.19839-3.70124,8.37397-6.1082,14.21828-6.1082Z" fill="url(#uuid-4ce6e51d-76c4-4aa0-bab1-e82ae165ebda)"/><path d="M76.34016,158.88699l-15.43715-12.45489c-.45848-.37015-1.11908-.34697-1.55058.0541l-6.79827,6.31853c-.17535.16286-.38934.25974-.61202.297v15.86686l6.55812-6.09523c.43157-.40107,1.0921-.42425,1.55058-.05438l15.43708,12.45489c.46524.3754,1.13723.34531,1.56714-.06983l.21261-.20536v-15.86768c-.32061.05024-.65839-.02705-.92752-.24401Z" fill="url(#uuid-21fc63b0-4bc0-422b-ada1-c109d593b197)"/><path d="M140.67875,85.77824c-4.58991,0-9.02228-.56779-13.20644-1.62111-.38899-.09799-.79917.00414-1.093.27741l-19.62441,18.23958c-.52825.49078-.49906,1.33569.06169,1.78921l7.91135,6.39527,10.79921-10.03717c.29383-.27299.70394-.37512,1.093-.27713,4.18415,1.05332,8.61646,1.62083,13.20651,1.62083,9.75017,0,18.78784-2.55905,26.2376-6.9153v-15.89225c-7.28104,4.05815-16.00583,6.42066-25.38551,6.42066Z" fill="url(#uuid-025ee6ae-8d61-4520-a474-c4528cc3f2ba)"/><path d="M31.00986,137.70366l20.08695,15.05909c.45858.34379,1.09749.31005,1.51731-.08014l6.79826-6.31849c.4315-.40105,1.0921-.42416,1.55058-.05426l15.4371,12.45492c.46522.37535,1.13717.34536,1.56711-.06992l17.02369-16.4434c.50777-.49046.47667-1.31335-.06668-1.76408l-14.38491-11.93291c-.55037-.45656-.57394-1.29292-.05015-1.77975l5.23621-4.86668c.42789-.3977,1.0818-.42416,1.54044-.06235l15.55682,12.27269c.45183.35644,1.09445.33666,1.5235-.04691l17.50142-15.64634c.5445-.48679.52318-1.34553-.04482-1.80469l-15.18977-12.27929c-.5608-.45335-.58996-1.29832-.06176-1.78925l19.62442-18.23955c.29386-.27312.70399-.37525,1.09303-.2773,4.18414,1.05346,8.61649,1.62099,13.20647,1.62099,25.47611,0,46.12858-17.42599,46.12858-38.92214,0-21.49601-20.65247-38.922-46.12858-38.922-25.47611,0-46.12865,17.42599-46.12865,38.922,0,8.33723,3.1077,16.06162,8.39768,22.39504.40353.48312.34423,1.20156-.12172,1.6248L30.92395,135.87865c-.55084.50033-.50949,1.37864.08592,1.82502ZM140.47509,61.57491c-9.71401,0-17.58878-6.64452-17.58878-14.841,0-8.19634,7.87477-14.84086,17.58878-14.84086,9.71401,0,17.58878,6.64452,17.58878,14.84086s-7.87477,14.841-17.58878,14.841Z" fill="#ff8000"/><path d="M31.00986,137.70366l20.08695,15.05909c.45858.34379,1.09749.31005,1.51731-.08014l6.79826-6.31849c.4315-.40105,1.0921-.42416,1.55058-.05426l15.4371,12.45492c.46522.37535,1.13717.34536,1.56711-.06992l17.02369-16.4434c.50777-.49046.47667-1.31335-.06668-1.76408l-14.38491-11.93291c-.55037-.45656-.57394-1.29292-.05015-1.77975l5.23621-4.86668c.42789-.3977,1.0818-.42416,1.54044-.06235l15.55682,12.27269c.45183.35644,1.09445.33666,1.5235-.04691l17.50142-15.64634c.5445-.48679.52318-1.34553-.04482-1.80469l-15.18977-12.27929c-.5608-.45335-.58996-1.29832-.06176-1.78925l19.62442-18.23955c.29386-.27312.70399-.37525,1.09303-.2773,4.18414,1.05346,8.61649,1.62099,13.20647,1.62099,25.47611,0,46.12858-17.42599,46.12858-38.92214,0-21.49601-20.65247-38.922-46.12858-38.922-25.47611,0-46.12865,17.42599-46.12865,38.922,0,8.33723,3.1077,16.06162,8.39768,22.39504.40353.48312.34423,1.20156-.12172,1.6248L30.92395,135.87865c-.55084.50033-.50949,1.37864.08592,1.82502ZM140.47509,61.57491c-9.71401,0-17.58878-6.64452-17.58878-14.841,0-8.19634,7.87477-14.84086,17.58878-14.84086,9.71401,0,17.58878,6.64452,17.58878,14.84086s-7.87477,14.841-17.58878,14.841Z" fill="url(#uuid-b97e2fba-8b7f-46d9-bfc3-7300419832e5)"/><path d="M31.03113,137.67529c7.27894,4.15376,14.185,8.77461,20.99745,13.58262-.00002.00003.12669.08902.12669.08902-.1905-.1644-.48031-.18252-.69739-.05041l-.06995.04846c.03911-.04673.27186-.26263.32017-.31555,2.04563-2.00108,4.44924-4.32209,6.55603-6.25136,1.15574-.95974,2.97158-.89199,4.07008.12139.16287.11478.58412.49311.75136.61663,4.66742,3.81027,9.83414,8.08074,14.30516,11.95695-.15237-.09374-.4141-.04486-.49805.08569,0,0,.24206-.21559.24206-.21559,5.80782-5.18264,11.68836-10.2963,17.85608-15.09168-5.00539,5.99814-10.32157,11.69685-15.70153,17.32215-.86348,1.0853-2.52813,1.39965-3.70192.61335-.18147-.12791-.47656-.34589-.6437-.47337.00004.00003-4.11471-3.15573-4.11471-3.15573-3.72079-2.82227-7.41225-5.81589-11.08167-8.7102.25461.21603.7325.21109.99024-.04873-.18121.15705-.57848.53899-.76307.70239-1.36562,1.26424-3.412,3.10417-4.80322,4.35048-.926.77942-1.91223,1.95934-3.23095,1.93513-.85522.04544-1.65727-.34756-2.28038-.90965-6.3583-5.14972-12.94087-10.4147-18.6288-16.20199h0Z" fill="#ff8000"/><path d="M80.53931,128.55444c-.69636-.26301-.96587-1.45052-.35945-2.14112.07013-.10283.32891-.44666.40656-.55797.89038-1.23636,1.82379-2.47621,2.77212-3.65478-.00002,0,1.15001-1.41773,1.15001-1.41773l.07227-.08801c2.22454-2.28358,4.88488.4456,6.93029,1.61247,4.51572,2.92843,8.85142,6.09637,13.07495,9.40365-.37805-.26051-.86022-.36707-1.30493-.29273-.33337.05381-.66063.20887-.91016.43787,4.6087-4.03416,9.43456-7.79593,14.59472-11.12269,1.02809-.65795,2.06666-1.30407,3.1349-1.91722l1.52771-.8551c.35168-.18396.54187-.80847.17444-1.34058.83962.3241,1.02112,1.61388.2736,2.37181-4.55766,6.365-10.00811,12.02335-15.75929,17.29814-1.46905,1.37637-3.96829,1.3948-5.46415.0745-.10129-.07144-.42017-.3451-.52818-.42472-4.94427-3.94967-9.74245-8.1189-14.22084-12.61526.25552.14333.65095.0515.74793-.18678,0,.00001-.09327.06569-.09327.06569-1.70491,1.20729-3.56059,2.45438-5.34546,3.54088,0,.00001-.39075.2433-.39075.2433l-.19543.12158c-.48381.19757-.68844.85314-.2876,1.44482h0Z" fill="#ff8000"/><path d="M106.61292,104.34119c-.50098-.29871-.74231-1.05249-.41492-1.65393.30619-.47063.79372-.94574,1.14359-1.3648-.00003.00005,2.31308-2.57148,2.31308-2.57148,3.09112-3.41562,6.24299-6.77157,9.44115-10.08253,1.79218-1.862,3.5814-3.73952,5.40358-5.57139.62707-.71791,1.54364-1.19615,2.50831-1.18687.79721.02245,1.10522.17941,1.72445.27056,24.70841,4.89501,53.82303-8.80926,57.87137-35.44701,1.4108,9.45597-2.41228,19.34223-8.79669,26.41529-12.41856,13.53518-32.63846,17.92549-50.04231,13.21145,0,0-.86267-.24488-.86267-.24488-.25293-.06836-.02136-.01379.06531-.02771.21622-.00879.43612-.10525.58813-.25806-.03271.02088-.19763.16602-.29004.24304-6.3494,5.38228-12.82209,10.70709-19.4303,15.78052l-.69019.52246c-.22253.18005-.4884.34119-.62903.51257-.31738.37024-.32178,1.03613.09717,1.45276h0Z" fill="#ff8000"/><path d="M94.34644,46.73389c.53126,4.79213,1.89766,9.50664,4.11686,13.77269,1.26867,2.71514,3.24138,4.95405,4.76859,7.4922.40779.82849.82941,1.68483.26942,2.56849-.36662.57961-1.12279.87448-1.64215,1.26041-.52187.33504-1.04116.67305-1.54751,1.02498.39893-.47034.78503-.95483,1.16858-1.44202.20148-.30672.93077-1.02175.91799-1.33934-.01854-.16025-.22111-.33278-.37428-.33781-.00904.00503-.05897-.03965-.08644-.05698l-.38562-.29541c-5.46284-5.9628-7.98136-14.64919-7.20544-22.64722h0Z" fill="#ff8000"/><path d="M122.51794,46.73389c-1.87793-9.95381,8.80279-17.6407,17.95717-17.28468,4.73216.04054,9.52122,1.70289,13.03697,4.89918,3.40444,3.02195,5.61811,7.91358,4.55174,12.38552-.98838-4.27493-3.63511-7.42202-6.84117-9.43838-9.56825-6.0869-25.14856-2.6461-27.96807,9.43834.00005.00001-.73664.00001-.73664.00001h0Z" fill="#ff8000"/><path d="M29.91371,75.0119c17.93889,4.95369,21.95464,8.96944,26.90833,26.90833,4.95369-17.93889,8.96944-21.95464,26.90833-26.90833-17.93889-4.95369-21.95464-8.96944-26.90833-26.90833-4.95369,17.93889-8.96944,21.95464-26.90833,26.90833Z" fill="#ff8000"/><path d="M14.24788,48.29052c9.22451,2.54728,11.28949,4.61225,13.83676,13.83676,2.54728-9.22451,4.61225-11.28949,13.83676-13.83676-9.22451-2.54728-11.28949-4.61225-13.83676-13.83676-2.54728,9.22451-4.61225,11.28949-13.83676,13.83676Z" fill="#ff8000"/></g></svg>