<?xml version="1.0" encoding="UTF-8"?><svg xmlns="http://www.w3.org/2000/svg" width="200" height="200" xmlns:xlink="http://www.w3.org/1999/xlink" viewBox="0 0 200 200"><defs><linearGradient id="uuid-96a25f9d-e863-4376-9c86-ab3347cc5821" x1="33.62354" y1="68.60944" x2="66.2005" y2="167.75671" gradientUnits="userSpaceOnUse"><stop offset="0" stop-color="#fbe7b4"/><stop offset=".04726" stop-color="#fcc285"/><stop offset=".09594" stop-color="#fca35c"/><stop offset=".14605" stop-color="#fd883b"/><stop offset=".19708" stop-color="#fe7421"/><stop offset=".24944" stop-color="#fe660e"/><stop offset=".30392" stop-color="#fe5d03"/><stop offset=".36395" stop-color="#ff5b00"/><stop offset="1" stop-color="#c64528"/></linearGradient><linearGradient id="uuid-e72c7ae8-1cf2-472a-9556-e516df3058c5" x1="34.68098" y1="67.13214" x2="67.25794" y2="166.27941" gradientUnits="userSpaceOnUse"><stop offset="0" stop-color="#fbe9bb"/><stop offset=".00143" stop-color="#fbe7b9"/><stop offset=".04902" stop-color="#fbc289"/><stop offset=".09798" stop-color="#fca260"/><stop offset=".14769" stop-color="#fd883f"/><stop offset=".19834" stop-color="#fd7425"/><stop offset=".25031" stop-color="#fd6612"/><stop offset=".30437" stop-color="#fd5d07"/><stop offset=".36395" stop-color="#fe5b04"/><stop offset="1" stop-color="#c64528"/></linearGradient><linearGradient id="uuid-ea5af487-02df-4aa2-882a-9cd3bbda8029" x1="35.73842" y1="65.65484" x2="68.31538" y2="164.80211" gradientUnits="userSpaceOnUse"><stop offset="0" stop-color="#fcebc2"/><stop offset=".00495" stop-color="#fce6bc"/><stop offset=".05207" stop-color="#fcc28c"/><stop offset=".10059" stop-color="#fda263"/><stop offset=".14982" stop-color="#fd8942"/><stop offset=".19997" stop-color="#fd7528"/><stop offset=".25143" stop-color="#fd6715"/><stop offset=".30496" stop-color="#fd5e0a"/><stop offset=".36395" stop-color="#fe5c07"/><stop offset="1" stop-color="#c64528"/></linearGradient><linearGradient id="uuid-32896059-bad3-4317-acfd-dba9880beba6" x1="36.79585" y1="64.17754" x2="69.37282" y2="163.32481" gradientUnits="userSpaceOnUse"><stop offset="0" stop-color="#fceec8"/><stop offset=".00671" stop-color="#fce8c0"/><stop offset=".05359" stop-color="#fcc390"/><stop offset=".10186" stop-color="#fca367"/><stop offset=".15086" stop-color="#fc8946"/><stop offset=".20077" stop-color="#fc752c"/><stop offset=".25198" stop-color="#fc6719"/><stop offset=".30525" stop-color="#fc5e0e"/><stop offset=".36395" stop-color="#fd5c0b"/><stop offset="1" stop-color="#c64528"/></linearGradient><linearGradient id="uuid-2c2a1e22-3c2d-4b9c-9e43-7f5efa111ac3" x1="37.85329" y1="62.70023" x2="70.43025" y2="161.84751" gradientUnits="userSpaceOnUse"><stop offset="0" stop-color="#fcf0cf"/><stop offset=".00928" stop-color="#fce7c4"/><stop offset=".05582" stop-color="#fcc394"/><stop offset=".10377" stop-color="#fca36b"/><stop offset=".1524" stop-color="#fc894a"/><stop offset=".20195" stop-color="#fc7530"/><stop offset=".25279" stop-color="#fc671d"/><stop offset=".30567" stop-color="#fc5e12"/><stop offset=".36395" stop-color="#fc5c0f"/><stop offset="1" stop-color="#c64528"/></linearGradient><linearGradient id="uuid-89ab9c6a-c7f3-42e6-b190-05df6e23bedd" x1="38.91073" y1="61.22293" x2="71.48769" y2="160.37021" gradientUnits="userSpaceOnUse"><stop offset="0" stop-color="#fdf2d6"/><stop offset=".01264" stop-color="#fce6c7"/><stop offset=".05872" stop-color="#fcc297"/><stop offset=".1062" stop-color="#fba26e"/><stop offset=".15438" stop-color="#fb894d"/><stop offset=".20347" stop-color="#fb7533"/><stop offset=".25383" stop-color="#fb6720"/><stop offset=".30622" stop-color="#fb5e15"/><stop offset=".36395" stop-color="#fb5c12"/><stop offset="1" stop-color="#c64528"/></linearGradient><linearGradient id="uuid-cc3d328a-be6e-49cc-aca2-4f3ded515cd2" x1="39.96817" y1="59.74563" x2="72.54513" y2="158.89291" gradientUnits="userSpaceOnUse"><stop offset="0" stop-color="#fdf4dd"/><stop offset=".01507" stop-color="#fce6cb"/><stop offset=".06084" stop-color="#fcc29b"/><stop offset=".10798" stop-color="#fba372"/><stop offset=".15584" stop-color="#fb8951"/><stop offset=".20459" stop-color="#fb7637"/><stop offset=".2546" stop-color="#fb6824"/><stop offset=".30662" stop-color="#fb5f19"/><stop offset=".36395" stop-color="#fb5d16"/><stop offset="1" stop-color="#c64528"/></linearGradient><linearGradient id="uuid-ec96e3e1-b3f4-452f-9f30-4329dbdf154e" x1="41.02561" y1="58.26833" x2="73.60257" y2="157.4156" gradientUnits="userSpaceOnUse"><stop offset="0" stop-color="#fef6e4"/><stop offset=".01833" stop-color="#fde5ce"/><stop offset=".06366" stop-color="#fcc19e"/><stop offset=".11038" stop-color="#fba275"/><stop offset=".15779" stop-color="#fb8954"/><stop offset=".20607" stop-color="#fa753a"/><stop offset=".2556" stop-color="#fa6827"/><stop offset=".30715" stop-color="#fa5f1c"/><stop offset=".36395" stop-color="#fa5d19"/><stop offset="1" stop-color="#c64528"/></linearGradient><linearGradient id="uuid-782f6650-c279-4ece-9aac-256fd4addabc" x1="42.08304" y1="56.79103" x2="74.66" y2="155.9383" gradientUnits="userSpaceOnUse"><stop offset="0" stop-color="#fef8eb"/><stop offset=".02062" stop-color="#fde5d2"/><stop offset=".06566" stop-color="#fcc1a2"/><stop offset=".11208" stop-color="#fba279"/><stop offset=".15917" stop-color="#fa8958"/><stop offset=".20713" stop-color="#f9753e"/><stop offset=".25632" stop-color="#f9682b"/><stop offset=".30753" stop-color="#f95f20"/><stop offset=".36395" stop-color="#f95d1d"/><stop offset="1" stop-color="#c64528"/></linearGradient><linearGradient id="uuid-7a362c3f-6461-4176-a284-76a5457334e1" x1="43.14048" y1="55.31373" x2="75.71744" y2="154.461" gradientUnits="userSpaceOnUse"><stop offset="0" stop-color="#fefbf1"/><stop offset=".02215" stop-color="#fde6d6"/><stop offset=".06698" stop-color="#fbc2a6"/><stop offset=".11318" stop-color="#faa37d"/><stop offset=".16007" stop-color="#f9895c"/><stop offset=".20782" stop-color="#f87642"/><stop offset=".2568" stop-color="#f8682f"/><stop offset=".30778" stop-color="#f85f24"/><stop offset=".36395" stop-color="#f85d21"/><stop offset="1" stop-color="#c64528"/></linearGradient><linearGradient id="uuid-5c583572-e9a7-4210-961d-6993559e0ae6" x1="44.19792" y1="53.83643" x2="76.77488" y2="152.9837" gradientUnits="userSpaceOnUse"><stop offset="0" stop-color="#fffdf8"/><stop offset=".0251" stop-color="#fde6d9"/><stop offset=".06955" stop-color="#fcc2a9"/><stop offset=".11535" stop-color="#fba380"/><stop offset=".16184" stop-color="#f98a5f"/><stop offset=".20918" stop-color="#f97645"/><stop offset=".25774" stop-color="#f86832"/><stop offset=".30827" stop-color="#f86027"/><stop offset=".36395" stop-color="#f85e24"/><stop offset="1" stop-color="#c64528"/></linearGradient><linearGradient id="uuid-9bda788f-7157-4043-95be-8495d6fe9ace" x1="45.25536" y1="52.35912" x2="77.83232" y2="151.5064" gradientUnits="userSpaceOnUse"><stop offset="0" stop-color="#fff"/><stop offset=".02732" stop-color="#fde5dd"/><stop offset=".07147" stop-color="#fbc2ad"/><stop offset=".11698" stop-color="#faa384"/><stop offset=".16314" stop-color="#f98a63"/><stop offset=".21018" stop-color="#f87649"/><stop offset=".25842" stop-color="#f76836"/><stop offset=".30863" stop-color="#f7602b"/><stop offset=".36395" stop-color="#f75e28"/><stop offset="1" stop-color="#c64528"/></linearGradient><linearGradient id="uuid-b96c7857-42b1-4f95-8378-b8d50a406e5f" x1="98.87293" y1="135.75826" x2="18.37478" y2="79.33874" gradientUnits="userSpaceOnUse"><stop offset="0" stop-color="#c64528"/><stop offset=".05038" stop-color="#c94628" stop-opacity=".93629"/><stop offset=".1429" stop-color="#d14a28" stop-opacity=".76737"/><stop offset=".26723" stop-color="#de5128" stop-opacity=".49376"/><stop offset=".41708" stop-color="#f15b28" stop-opacity=".11991"/><stop offset=".46225" stop-color="#f75e28" stop-opacity="0"/><stop offset="1" stop-color="#f6c243"/></linearGradient><linearGradient id="uuid-6a64efa9-4ea9-4885-b0c1-570e3d1c1bab" x1="163.31792" y1="48.13113" x2="126.62731" y2="181.55156" xlink:href="#uuid-9bda788f-7157-4043-95be-8495d6fe9ace"/><linearGradient id="uuid-642858b7-c5b1-496e-b508-1e7a50a54a92" x1="139.38187" y1="118.33896" x2="137.8081" y2="91.58493" gradientUnits="userSpaceOnUse"><stop offset=".08242" stop-color="#c64528"/><stop offset=".14396" stop-color="#cb4728" stop-opacity=".88339"/><stop offset=".27336" stop-color="#da4f28" stop-opacity=".58285"/><stop offset=".45851" stop-color="#f15b28" stop-opacity=".1052"/><stop offset=".49754" stop-color="#f75e28" stop-opacity="0"/></linearGradient><linearGradient id="uuid-9e7dbb8f-8155-4b9e-920f-b11adc4b4171" x1="146.22652" y1="96.39181" x2="171.87891" y2="75.14597" xlink:href="#uuid-642858b7-c5b1-496e-b508-1e7a50a54a92"/><linearGradient id="uuid-50004bea-692d-4635-9cfe-30f7203dd7b3" x1="143.04446" y1="142.74087" x2="112.04127" y2="137.70481" xlink:href="#uuid-642858b7-c5b1-496e-b508-1e7a50a54a92"/><linearGradient id="uuid-7b652f2c-47d1-4e1e-9036-a003ef30e62a" x1="169.49385" y1="132.64689" x2="98.29419" y2="85.18045" gradientUnits="userSpaceOnUse"><stop offset=".17361" stop-color="#f75e28" stop-opacity=".7"/><stop offset=".27041" stop-color="#f7632f" stop-opacity=".67432"/><stop offset=".40425" stop-color="#f87446" stop-opacity=".6021"/><stop offset=".55971" stop-color="#f98f6a" stop-opacity=".48338"/><stop offset=".73144" stop-color="#fbb59d" stop-opacity=".31804"/><stop offset=".91439" stop-color="#fde6dd" stop-opacity=".10859"/><stop offset="1" stop-color="#fff" stop-opacity="0"/></linearGradient></defs><g id="uuid-eae5fdb1-4654-4add-9662-38e3b518e9ba"><ellipse cx="70.59551" cy="181.59137" rx="37.02248" ry="5.35034" fill="#090909" opacity=".07"/></g><g id="uuid-54c6457e-e9b4-41d0-abb9-796f1dba35e3"><path d="M67.99157,112.19592c-5.76861-17.15534-16.846-24.8171-27.26077-21.31506-10.41477,3.50204-14.61237,16.30013-8.84376,33.45548,5.76916,17.15696,16.84708,24.82033,27.26185,21.31829,10.41477-3.50204,14.61183-16.30175,8.84267-33.45871ZM6.05843,133.02141c-8.8383-26.28431-3.39383-57.89777,26.04524-67.79688,29.43907-9.89911,52.87822,12.00202,61.71652,38.28633,8.83884,26.28592,3.39438,57.89939-26.0447,67.7985-29.43907,9.89911-52.87822-12.00202-61.71706-38.28794Z" fill="url(#uuid-96a25f9d-e863-4376-9c86-ab3347cc5821)"/><path d="M69.34386,111.61599c-5.76861-17.15534-16.846-24.8171-27.26077-21.31506-10.41477,3.50204-14.61237,16.30013-8.84376,33.45548,5.76916,17.15696,16.84708,24.82033,27.26185,21.31829,10.41477-3.50204,14.61183-16.30175,8.84267-33.45871ZM7.41072,132.44147c-8.8383-26.28431-3.39383-57.89777,26.04524-67.79688,29.43907-9.89911,52.87822,12.00202,61.71652,38.28633,8.83884,26.28592,3.39438,57.89939-26.0447,67.7985s-52.87822-12.00202-61.71706-38.28794Z" fill="url(#uuid-e72c7ae8-1cf2-472a-9556-e516df3058c5)"/><path d="M70.69614,111.03605c-5.76861-17.15534-16.846-24.8171-27.26077-21.31506-10.41477,3.50204-14.61237,16.30013-8.84376,33.45548,5.76916,17.15696,16.84708,24.82033,27.26185,21.31829,10.41477-3.50204,14.61183-16.30175,8.84267-33.45871ZM8.763,131.86154C-.07529,105.57723,5.36917,73.96376,34.80824,64.06465c29.43907-9.89911,52.87822,12.00202,61.71652,38.28633,8.83884,26.28592,3.39438,57.89939-26.0447,67.7985-29.43907,9.89911-52.87822-12.00202-61.71706-38.28794Z" fill="url(#uuid-ea5af487-02df-4aa2-882a-9cd3bbda8029)"/><path d="M72.04843,110.45611c-5.76861-17.15534-16.846-24.8171-27.26077-21.31506-10.41477,3.50204-14.61237,16.30013-8.84376,33.45548,5.76916,17.15696,16.84708,24.82033,27.26185,21.31829,10.41477-3.50204,14.61183-16.30175,8.84267-33.45871ZM10.11529,131.2816c-8.8383-26.28431-3.39383-57.89777,26.04524-67.79688,29.43907-9.89911,52.87822,12.00202,61.71652,38.28633,8.83884,26.28592,3.39438,57.89939-26.0447,67.7985-29.43907,9.89911-52.87822-12.00202-61.71706-38.28794Z" fill="url(#uuid-32896059-bad3-4317-acfd-dba9880beba6)"/><path d="M73.40072,109.87618c-5.76861-17.15534-16.846-24.8171-27.26077-21.31506-10.41477,3.50204-14.61237,16.30013-8.84376,33.45548,5.76916,17.15696,16.84708,24.82033,27.26185,21.31829,10.41477-3.50204,14.61183-16.30175,8.84267-33.45871ZM11.46758,130.70166c-8.8383-26.28431-3.39383-57.89777,26.04524-67.79688s52.87822,12.00202,61.71652,38.28633c8.83884,26.28592,3.39438,57.89939-26.0447,67.7985-29.43907,9.89911-52.87822-12.00202-61.71706-38.28794Z" fill="url(#uuid-2c2a1e22-3c2d-4b9c-9e43-7f5efa111ac3)"/><path d="M74.753,109.29624c-5.76861-17.15534-16.846-24.8171-27.26077-21.31506-10.41477,3.50204-14.61237,16.30013-8.84376,33.45548,5.76916,17.15696,16.84708,24.82033,27.26185,21.31829,10.41477-3.50204,14.61183-16.30175,8.84267-33.45871ZM12.81986,130.12173c-8.8383-26.28431-3.39383-57.89777,26.04524-67.79688,29.43907-9.89911,52.87822,12.00202,61.71652,38.28633,8.83884,26.28592,3.39438,57.89939-26.0447,67.7985s-52.87822-12.00202-61.71706-38.28794Z" fill="url(#uuid-89ab9c6a-c7f3-42e6-b190-05df6e23bedd)"/><path d="M76.10529,108.7163c-5.76861-17.15534-16.846-24.8171-27.26077-21.31506-10.41477,3.50204-14.61237,16.30013-8.84376,33.45548,5.76916,17.15696,16.84708,24.82033,27.26185,21.31829,10.41477-3.50204,14.61183-16.30175,8.84267-33.45871ZM14.17215,129.54179c-8.8383-26.28431-3.39383-57.89777,26.04524-67.79688,29.43907-9.89911,52.87822,12.00202,61.71652,38.28633,8.83884,26.28592,3.39438,57.89939-26.0447,67.7985-29.43907,9.89911-52.87822-12.00202-61.71706-38.28794Z" fill="url(#uuid-cc3d328a-be6e-49cc-aca2-4f3ded515cd2)"/><path d="M77.45758,108.13637c-5.76861-17.15534-16.846-24.8171-27.26077-21.31506-10.41477,3.50204-14.61237,16.30013-8.84376,33.45548,5.76916,17.15696,16.84708,24.82033,27.26185,21.31829,10.41477-3.50204,14.61183-16.30175,8.84267-33.45871ZM15.52443,128.96185c-8.8383-26.28431-3.39383-57.89777,26.04524-67.79688,29.43907-9.89911,52.87822,12.00202,61.71652,38.28633,8.83884,26.28592,3.39438,57.89939-26.0447,67.7985-29.43907,9.89911-52.87822-12.00202-61.71706-38.28794Z" fill="url(#uuid-ec96e3e1-b3f4-452f-9f30-4329dbdf154e)"/><path d="M78.80986,107.55643c-5.76861-17.15534-16.846-24.8171-27.26077-21.31506-10.41477,3.50204-14.61237,16.30013-8.84376,33.45548,5.76916,17.15696,16.84708,24.82033,27.26185,21.31829,10.41477-3.50204,14.61183-16.30175,8.84267-33.45871ZM16.87672,128.38192c-8.8383-26.28431-3.39383-57.89777,26.04524-67.79688,29.43907-9.89911,52.87822,12.00202,61.71652,38.28633,8.83884,26.28592,3.39438,57.89939-26.0447,67.7985s-52.87822-12.00202-61.71706-38.28794Z" fill="url(#uuid-782f6650-c279-4ece-9aac-256fd4addabc)"/><path d="M80.16215,106.97649c-5.76861-17.15534-16.846-24.8171-27.26077-21.31506-10.41477,3.50204-14.61237,16.30013-8.84376,33.45548,5.76916,17.15696,16.84708,24.82033,27.26185,21.31829,10.41477-3.50204,14.61183-16.30175,8.84267-33.45871ZM18.22901,127.80198c-8.8383-26.28431-3.39383-57.89777,26.04524-67.79688,29.43907-9.89911,52.87822,12.00202,61.71652,38.28633,8.83884,26.28592,3.39438,57.89939-26.0447,67.7985s-52.87822-12.00202-61.71706-38.28794Z" fill="url(#uuid-7a362c3f-6461-4176-a284-76a5457334e1)"/><path d="M81.51443,106.39656c-5.76861-17.15534-16.846-24.8171-27.26077-21.31506-10.41477,3.50204-14.61237,16.30013-8.84376,33.45548,5.76916,17.15696,16.84708,24.82033,27.26185,21.31829,10.41477-3.50204,14.61183-16.30175,8.84267-33.45871ZM19.58129,127.22205c-8.8383-26.28431-3.39383-57.89777,26.04524-67.79688,29.43907-9.89911,52.87822,12.00202,61.71652,38.28633,8.83884,26.28592,3.39438,57.89939-26.0447,67.7985-29.43907,9.89911-52.87822-12.00202-61.71706-38.28794Z" fill="url(#uuid-5c583572-e9a7-4210-961d-6993559e0ae6)"/><path d="M82.86672,105.81662c-5.76861-17.15534-16.846-24.8171-27.26077-21.31506-10.41477,3.50204-14.61237,16.30013-8.84376,33.45548,5.76916,17.15696,16.84708,24.82033,27.26185,21.31829,10.41477-3.50204,14.61183-16.30175,8.84267-33.45871ZM20.93358,126.64211c-8.8383-26.28431-3.39383-57.89777,26.04524-67.79688,29.43907-9.89911,52.87822,12.00202,61.71652,38.28633,8.83884,26.28592,3.39438,57.89939-26.0447,67.7985s-52.87822-12.00202-61.71706-38.28794Z" fill="url(#uuid-9bda788f-7157-4043-95be-8495d6fe9ace)"/><path d="M20.93358,126.64211c-8.8383-26.28431-3.39383-57.89777,26.04524-67.79688,29.43907-9.89911,52.87822,12.00202,61.71652,38.28633,8.83884,26.28592,3.39438,57.89939-26.0447,67.7985s-52.87822-12.00202-61.71706-38.28794ZM82.86672,105.81662c-5.76861-17.15534-16.846-24.8171-27.26077-21.31506-10.41477,3.50204-14.61237,16.30013-8.84376,33.45548,5.76916,17.15696,16.84708,24.82033,27.26185,21.31829,10.41477-3.50204,14.61183-16.30175,8.84267-33.45871Z" fill="#ff8000"/><path d="M20.93358,126.64211c-8.8383-26.28431-3.39383-57.89777,26.04524-67.79688,29.43907-9.89911,52.87822,12.00202,61.71652,38.28633,8.83884,26.28592,3.39438,57.89939-26.0447,67.7985s-52.87822-12.00202-61.71706-38.28794ZM82.86672,105.81662c-5.76861-17.15534-16.846-24.8171-27.26077-21.31506-10.41477,3.50204-14.61237,16.30013-8.84376,33.45548,5.76916,17.15696,16.84708,24.82033,27.26185,21.31829,10.41477-3.50204,14.61183-16.30175,8.84267-33.45871Z" fill="url(#uuid-b96c7857-42b1-4f95-8378-b8d50a406e5f)"/><path d="M159.06193,61.92328c-18.34602-3.30303-33.48592,9.68884-42.04074,27.55259l-8.18715-1.56068c-.40408-.09491-.80859.15574-.9035.55989l-3.36822,14.3419c-.0581.24739.06754.48662.28224.60011.01625.00959.03439.01572.05179.02368.02523.01021.04598.02715.07325.03368l6.00881,1.41106c-.3966,1.13326-.82535,2.95889-1.09833,4.12113-.2577,1.09734-.61751,2.63556-.8155,3.946l-5.92553-1.15c-.3596-.0843-.71959.1388-.80407.49825l-3.33426,14.19739c-.09824.4183.16122.83703.57952.93527l7.7584,1.82215c-.85313,20.821,7.46631,40.29135,26.96639,44.87093.68915.16187,1.36914.30556,2.0402.4315l13.42883,2.59147c9.69685,1.8245,17.5157-.11012,23.76058-5.86297.39351-.3625.53299-.92495.33983-1.4239l-7.91542-20.44659c-.12606-.32562-.41076-.5635-.7536-.62967l-12.90469-2.49044c-1.06164.71298-2.2136,1.27696-3.42649,1.67825-2.48569-2.09874-4.34944-5.33032-4.93485-10.1228l3.50929.82402,12.54337,2.42071c.50967.09836,1.0061-.22317,1.12477-.72849l3.30118-14.05651c.08365-.35618-.13728-.71274-.49347-.79639l-19.22501-4.51487c.06486-1.38575.4548-3.04604.72776-4.20829.23422-.99732.58367-2.48003,1.00638-3.5794l6.62948,1.55701,12.57555,2.42673c.49169.09488.9706-.2153,1.08509-.7028l3.32262-14.14772c.07593-.32333-.12462-.64699-.44794-.72293l-16.44577-3.86239c2.33447-3.6782,5.09003-5.63854,7.90361-6.51788,1.3857,1.13265,2.57456,2.57208,3.54526,4.33994l.01544-.01449,12.78531,2.48402c.41124.0799.83581-.04284,1.14098-.32986l16.80007-15.80053c.35456-.33346.45318-.86413.22866-1.29598-4.01977-7.73195-10.99465-13.32205-21.28607-15.73896-.60174-.14125-1.20021-.26515-1.79531-.3717l-13.42873-2.59147Z" fill="url(#uuid-6a64efa9-4ea9-4885-b0c1-570e3d1c1bab)"/><polygon points="144.69956 120.99996 131.99604 117.7875 134.35669 110.35145 146.43369 113.21227 144.69956 120.99996" fill="url(#uuid-642858b7-c5b1-496e-b508-1e7a50a54a92)"/><path d="M153.15273,97.76017l-11.95016-2.98901s5.71417-12.25117,19.85376-3.52887c0,0-5.57183,2.46658-7.90361,6.51788Z" fill="url(#uuid-9e7dbb8f-8155-4b9e-920f-b11adc4b4171)"/><path d="M143.93943,137.85149l-11.82536-2.71322s1.41557,16.93763,16.7602,12.83601c0,0-3.85044-2.57025-4.93485-10.1228Z" fill="url(#uuid-50004bea-692d-4635-9cfe-30f7203dd7b3)"/><path d="M107.33864,129.25567l-7.75841-1.82207c-.41829-.09824-.67774-.51696-.57951-.93525l3.33428-14.1974c.08446-.35962.44445-.58268.80406-.49822l5.88998,1.38327c.18816-1.35669.57808-3.01697.85105-4.17927s.70172-2.98794,1.09833-4.1212l-6.00881-1.41118c-.29399-.06904-.47634-.36334-.4073-.65733l3.36822-14.34193c.0949-.40409.49941-.65474.9035-.55984l8.03068,1.88602c8.79696-18.60434,24.71273-32.03309,43.96554-27.51154,10.61409,2.49274,17.70041,8.36062,21.65546,16.4724l-17.88413,16.82017c-2.09793-3.82093-5.20256-6.12643-9.15189-7.05393-5.0603-1.18842-11.20519-.52973-15.75269,6.63511l17.03122,3.99981-3.66507,15.60592-19.86994-4.66648c-.51989,1.10431-.94864,2.92995-1.22161,4.09224s-.66289,2.82258-.72777,4.20822l19.86994,4.66648-3.66507,15.60592-17.03122-3.99981c.84359,8.60643,5.68933,12.37175,10.9962,13.61807,3.94933.92751,7.79474.07875,10.88708-1.99778l8.42947,21.77457c-6.76909,6.6431-15.44126,8.6356-26.4252,6.056-19.50009-4.57963-27.81953-24.05002-26.9664-44.87096Z" fill="#ff8000"/><path d="M107.33864,129.25567l-7.75841-1.82207c-.41829-.09824-.67774-.51696-.57951-.93525l3.33428-14.1974c.08446-.35962.44445-.58268.80406-.49822l5.88998,1.38327c.18816-1.35669.57808-3.01697.85105-4.17927s.70172-2.98794,1.09833-4.1212l-6.00881-1.41118c-.29399-.06904-.47634-.36334-.4073-.65733l3.36822-14.34193c.0949-.40409.49941-.65474.9035-.55984l8.03068,1.88602c8.79696-18.60434,24.71273-32.03309,43.96554-27.51154,10.61409,2.49274,17.70041,8.36062,21.65546,16.4724l-17.88413,16.82017c-2.09793-3.82093-5.20256-6.12643-9.15189-7.05393-5.0603-1.18842-11.20519-.52973-15.75269,6.63511l17.03122,3.99981-3.66507,15.60592-19.86994-4.66648c-.51989,1.10431-.94864,2.92995-1.22161,4.09224s-.66289,2.82258-.72777,4.20822l19.86994,4.66648-3.66507,15.60592-17.03122-3.99981c.84359,8.60643,5.68933,12.37175,10.9962,13.61807,3.94933.92751,7.79474.07875,10.88708-1.99778l8.42947,21.77457c-6.76909,6.6431-15.44126,8.6356-26.4252,6.056-19.50009-4.57963-27.81953-24.05002-26.9664-44.87096Z" fill="url(#uuid-7b652f2c-47d1-4e1e-9036-a003ef30e62a)"/><path d="M56.84646,57.72676h0c-3.21495.26042-5.60791.70401-7.18737,1.05304-.78923.17889-1.38137.31735-1.77211.42415l-.588.15446c-3.12955.84851-6.17953,2.03336-9.06707,3.55323-2.88194,1.52908-5.59064,3.40592-8.03798,5.5898-2.44713,2.18538-4.59753,4.70358-6.43548,7.42792-1.84016,2.72526-3.34745,5.67403-4.50881,8.74797-1.16978,3.07167-2.0192,6.25809-2.59214,9.48653-.57111,3.23042-.83325,6.50503-.89071,9.77353l-.01167.9716c-.00283,2.94438.17017,5.88391.48807,8.80456l.00093.00814c.38394,3.30892,1.0042,6.58839,1.84913,9.80781.84952,3.219,1.90618,6.38568,3.2131,9.44772,1.30539,3.06201,2.82564,6.03157,4.55585,8.87364,1.72523,2.84503,3.67775,5.55248,5.83962,8.08083,2.16189,2.52668,4.5195,4.89152,7.09503,6.99579,2.57386,2.10357,5.34316,3.97123,8.2855,5.5105,2.94576,1.5288,6.06003,2.73652,9.27661,3.5109l.60314.14333c.40508.08219,1.00836.22553,1.82327.36012,1.62266.2815,4.0929.62021,7.37865.51933h0c-1.64112-.05408-3.0686-.20716-4.2809-.39326-1.21186-.18925-2.21494-.37772-3.00854-.56839-.79659-.17565-1.38382-.34898-1.77786-.45101l-.58615-.1729c-3.12253-.9297-6.12477-2.22817-8.93309-3.8542-2.81661-1.61101-5.45578-3.51977-7.88967-5.65659-2.43356-2.13742-4.68704-4.47772-6.72386-6.99438-2.03718-2.5162-3.87272-5.1923-5.5187-7.97784-1.64087-2.78927-3.07535-5.69902-4.2988-8.69329-1.22535-2.99332-2.25762-6.06615-3.06022-9.19854-.80473-3.13009-1.39056-6.31566-1.7468-9.52565l-.00091-.00791c-.3246-2.84768-.50733-5.70907-.51926-8.56937l.0066-.94346c.03258-3.17463.29354-6.34276.79741-9.46839.50516-3.12473,1.27654-6.20558,2.35544-9.17524,1.0818-2.96711,2.45864-5.82757,4.15382-8.49246,1.69302-2.66623,3.71495-5.12241,5.99818-7.31575,2.28559-2.19196,4.84937-4.10016,7.60209-5.69848,2.74577-1.61449,5.69202-2.89389,8.73392-3.89796l.57206-.18407c.38035-.12665.95748-.2951,1.72917-.51484,1.5471-.42054,3.88757-1.01788,7.07853-1.49093Z" fill="#ff911a"/><path d="M75.35783,139.33552h0c1.44962-.50046,2.48368-1.04766,3.1429-1.45412.33473-.19729.58071-.35487.73731-.47063l.24027-.1667c1.28185-.89311,2.39882-2.03356,3.33077-3.31239.92955-1.28399,1.63775-2.72296,2.16373-4.21547.53109-1.49366.85633-3.04783,1.07047-4.60497.17588-1.32574.27109-2.65881.28019-3.98914l-.00564-.70144c-.01537-1.56224-.11345-3.11817-.26692-4.66502-.16167-1.5457-.40624-3.07752-.67238-4.6022-.27267-1.52274-.59337-3.03319-.933-4.53817l-.00193-.00798c-.39878-1.60466-.86066-3.19512-1.40968-4.75943-.56706-1.55967-1.20102-3.09966-1.95911-4.58293-.75439-1.48441-1.62385-2.91414-2.59791-4.27121-.96973-1.36018-2.06677-2.63431-3.28338-3.7864-1.21591-1.15049-2.54009-2.19731-3.98728-3.04757-1.44277-.85406-2.99683-1.52489-4.61378-1.95206-1.55644-.40111-3.16397-.59249-4.75458-.5224l-.32127.02663c-.21344.02544-.53556.02745-.95847.09761-.84703.09766-2.11527.3613-3.68092.98898h0c.41277-.09045.79273-.19322,1.15467-.25531.36372-.05403.69581-.1242,1.00832-.15238l.85477-.08571c.25946-.01047.49297-.01989.70054-.02826.41362-.02347.72523.00924.93124.00683l.30935.0078c1.52743.0926,3.02911.39706,4.45193.90866,1.484.51613,2.88986,1.23782,4.17639,2.13055,1.28822.88889,2.48636,1.9068,3.56285,3.04542,1.07694,1.13783,2.04508,2.37743,2.92646,3.67642.87604,1.30333,1.65483,2.6757,2.32503,4.10239.67407,1.42427,1.28207,2.8827,1.80097,4.37671.5078,1.49645.93387,3.02159,1.30064,4.56257l.00185.00774c.34868,1.47129.67861,2.9463.96047,4.42797.28251,1.48229.51309,2.9711.71754,4.46035.19691,1.48958.33974,2.98371.40316,4.47715l.02749.67076c.02062,1.26872.01114,2.53622-.0891,3.795-.11512,1.48036-.36545,2.94291-.7509,4.36598-.38266,1.42406-.94257,2.79977-1.70882,4.06159-.74698,1.27385-1.70349,2.43201-2.82886,3.42497l-.21139.18612c-.13755.12895-.35575.30711-.6566.5347-.59727.45782-1.52191,1.13014-2.88739,1.82897Z" fill="#ff911a"/><path d="M133.43789,110.07367l19.72612,4.63269.04824-.20541-19.69001-4.62425c-.02871.06107-.05614.13176-.08435.19698Z" fill="#f6c243"/><path d="M117.19379,89.57524c4.23894-8.96496,10.13151-16.727,17.2534-21.85895-7.1722,5.09289-13.11046,12.8497-17.38797,21.82738l.13457.03157Z" fill="#f6c243"/><path d="M147.5978,138.4073l-16.85126-3.95756c.0074.07557.01746.14789.02545.22277l16.77756,3.94019.04824-.20541Z" fill="#f6c243"/><path d="M105.07043,103.41154l6.0088,1.41114c-.39661,1.13326-.82529,2.95892-1.09829,4.12123-.25928,1.10396-.62205,2.65435-.81918,3.96999l.19633.04607c.18814-1.35668.57805-3.01698.85104-4.17925.27289-1.16232.70167-2.98792,1.09829-4.12123l-6.0088-1.41114c-.29401-.06906-.47633-.36337-.40727-.65737l3.36826-14.34194c.03167-.13507.10014-.25074.18943-.34432-.20245.09373-.36267.27349-.41773.50751l-3.36816,14.34194c-.06906.29401.11326.58831.40727.65737Z" fill="#f6c243"/><path d="M155.7787,88.30233c-3.64678-.85647-7.85671-.75268-11.62612,2.05322,3.71061-2.64375,7.82444-2.72924,11.39792-1.89003,3.94937.9275,7.05401,3.233,9.15192,7.05391l.20886-.19643c-2.09761-3.80059-5.19495-6.09592-9.13258-7.02066Z" fill="#f6c243"/><path d="M134.63405,173.9006c-19.50009-4.57961-27.81951-24.05-26.9664-44.87095l-7.75844-1.82206c-.41822-.09827-.6777-.51698-.57943-.9353l3.33422-14.1974c.02713-.11553.08495-.21478.15983-.29647-.18805.081-.33762.24507-.38803.45966l-3.33422,14.1974c-.09827.41832.16121.83703.57953.9353l7.75834,1.82206c-.85311,20.82095,7.46631,40.29134,26.9664,44.87095,9.34874,2.19558,17.02165.75778,23.27295-3.71922-6.20948,4.34184-13.80976,5.72489-23.04475,3.55604Z" fill="#f6c243"/></g></svg>