<?xml version="1.0" encoding="UTF-8"?><svg xmlns="http://www.w3.org/2000/svg" width="200" height="200" xmlns:xlink="http://www.w3.org/1999/xlink" viewBox="0 0 200 200"><defs><linearGradient id="uuid-9e452c87-2555-418b-8bbe-b20f2fb5577f" x1="41.88186" y1="134.48801" x2="152.62255" y2="20.85591" gradientUnits="userSpaceOnUse"><stop offset="0" stop-color="#ff8000"/><stop offset=".04075" stop-color="#f16f0a"/><stop offset=".10796" stop-color="#e05a18"/><stop offset=".17409" stop-color="#d64e20"/><stop offset=".23736" stop-color="#d34a23"/><stop offset=".51329" stop-color="#c64528"/><stop offset=".62249" stop-color="#cb4a24"/><stop offset=".76679" stop-color="#db5b18"/><stop offset=".93006" stop-color="#f67606"/><stop offset=".97678" stop-color="#ff8000"/></linearGradient><linearGradient id="uuid-cd042ca5-d1fc-4a84-a16e-20d877723b36" x1="154.3516" y1="128.61078" x2="12.49157" y2="56.16239" gradientUnits="userSpaceOnUse"><stop offset=".47863" stop-color="#f75e28"/><stop offset=".65686" stop-color="#fb7011"/><stop offset=".78003" stop-color="#ff8000"/><stop offset=".80453" stop-color="#fd8407"/><stop offset=".8415" stop-color="#fb911c"/><stop offset=".88633" stop-color="#f6a63e"/><stop offset=".9351" stop-color="#f0c36b"/></linearGradient><linearGradient id="uuid-335264b7-e40a-45b0-9b3a-d7440b2ffa7e" x1="63.23373" y1="75.95456" x2="164.06482" y2="75.95456" gradientUnits="userSpaceOnUse"><stop offset=".29047" stop-color="#c64528"/><stop offset=".47863" stop-color="#cf4928"/><stop offset=".78585" stop-color="#e75628"/><stop offset=".94663" stop-color="#f75e28"/></linearGradient><linearGradient id="uuid-5f0421dd-1ffe-4a32-86af-d35a76e2170b" x1="182.79602" y1="54.36496" x2="64.82681" y2="77.78531" gradientUnits="userSpaceOnUse"><stop offset=".02944" stop-color="#ff7300"/><stop offset=".40205" stop-color="#fc9528"/><stop offset=".94572" stop-color="#f8ce69"/></linearGradient><linearGradient id="uuid-af5cb9a3-6341-4347-8e1c-c1eba30bcf18" x1="114.79216" y1="48.48608" x2="113.08422" y2="105.13257" gradientUnits="userSpaceOnUse"><stop offset=".0025" stop-color="#c64528"/><stop offset=".11755" stop-color="#c74528" stop-opacity=".97774"/><stop offset=".24226" stop-color="#ca4728" stop-opacity=".91191"/><stop offset=".37154" stop-color="#cf4928" stop-opacity=".80241"/><stop offset=".50399" stop-color="#d74d28" stop-opacity=".64905"/><stop offset=".63888" stop-color="#e05228" stop-opacity=".45168"/><stop offset=".77377" stop-color="#ec5828" stop-opacity=".214"/><stop offset=".87957" stop-color="#f75e28" stop-opacity="0"/></linearGradient><linearGradient id="uuid-6bff3556-95a5-405b-bc15-1e2b48e9d7b1" x1="118.45092" y1="137.04827" x2="80.28441" y2="159.60121" gradientTransform="translate(134.08899 -26.09148) rotate(45)" xlink:href="#uuid-5f0421dd-1ffe-4a32-86af-d35a76e2170b"/><linearGradient id="uuid-766f2895-a94e-4823-af69-680deba370fc" x1="102.78496" y1="119.73151" x2="68.08813" y2="147.92268" gradientTransform="translate(120.19363 -19.40427) rotate(45)" xlink:href="#uuid-5f0421dd-1ffe-4a32-86af-d35a76e2170b"/><linearGradient id="uuid-907794d7-fa9c-4fc9-9f28-70542503f18d" x1="89.11043" y1="106.02857" x2="50.94393" y2="135.52087" gradientTransform="translate(106.29827 -12.71706) rotate(45)" xlink:href="#uuid-5f0421dd-1ffe-4a32-86af-d35a76e2170b"/><linearGradient id="uuid-a8063a96-6474-47cc-854e-743d1c01d421" x1="77.37556" y1="95.27415" x2="29.66742" y2="121.73047" gradientTransform="translate(92.4029 -6.02986) rotate(45)" gradientUnits="userSpaceOnUse"><stop offset=".02944" stop-color="#ff7300"/><stop offset=".33524" stop-color="#fc9528"/><stop offset=".78142" stop-color="#f8ce69"/></linearGradient><linearGradient id="uuid-2b8e1986-025a-4fd0-8a7a-881668b3b6ef" x1="80.13938" y1="99.19638" x2="32.33507" y2="125.70604" xlink:href="#uuid-335264b7-e40a-45b0-9b3a-d7440b2ffa7e"/><linearGradient id="uuid-ba9799ae-789e-4025-b879-253a08acc551" x1="95.15057" y1="112.6173" x2="47.34626" y2="139.12697" xlink:href="#uuid-335264b7-e40a-45b0-9b3a-d7440b2ffa7e"/><linearGradient id="uuid-c9b5ff1a-5eca-491e-92c7-24d1db9e80c2" x1="110.16177" y1="126.03823" x2="62.35746" y2="152.54789" xlink:href="#uuid-335264b7-e40a-45b0-9b3a-d7440b2ffa7e"/><linearGradient id="uuid-7babc79e-14ec-4da8-8f2e-cd0dd83df1cd" x1="125.17297" y1="139.45915" x2="77.36865" y2="165.96882" gradientUnits="userSpaceOnUse"><stop offset=".29047" stop-color="#c64528"/><stop offset=".45489" stop-color="#ce4e21"/><stop offset=".72328" stop-color="#e66611"/><stop offset=".94822" stop-color="#ff8000"/></linearGradient></defs><g id="uuid-6104dd41-7b6f-4968-afbf-13f32957534c"><ellipse cx="94.35466" cy="181.59137" rx="37.02248" ry="5.35034" fill="#090909" opacity=".07"/></g><g id="uuid-3a499c40-d333-4f43-ba05-ae5b0b41353c"><path d="M171.22478,46.84192c-1.98583-3.48914-4.47005-6.78614-7.46417-9.78013-17.10542-17.10542-45.27916-16.66503-62.92785.98366l-.04338.04163c-19.79103-17.79907-50.02197-17.42619-68.75583,1.30768-17.79257,17.79245-19.0125,45.95081-3.84253,65.69133,2.04158,3.52251,4.5428,6.85364,7.49879,9.91289-.16538,2.94599.86991,5.94486,3.12075,8.19582h.00013c.30439.30439.62627.57952.95616.83978.48127,1.70357,1.38768,3.31213,2.72936,4.65393h.00013c2.34147,2.34134,5.49247,3.36688,8.55084,3.09475.46877,1.77307,1.3928,3.45051,2.78336,4.84107.30339.30339.6244.57702.95304.83641.48327,1.70494,1.39018,3.31488,2.73261,4.65731,2.34247,2.34247,5.49484,3.36826,8.55434,3.09425.46677,1.77307,1.38893,3.45076,2.77986,4.84157.30276.30276.6234.5759.95141.83503.48127,1.70557,1.39093,3.31538,2.73423,4.65868,2.34122,2.34122,5.49347,3.37601,8.55234,3.10625.46927,1.76894,1.39405,3.44201,2.78186,4.82969.30276.30289.62252.5774.95054.83653.48289,1.70507,1.39255,3.31463,2.73511,4.65706,4.19892,4.19892,11.00668,4.19892,15.20572,0l14.13331-14.13331c1.44668-1.44656,2.38259-3.20513,2.83236-5.05795,8.57196,1.55706,17.33781-7.89681,16.33689-15.37435,6.12187,2.6286,18.23072-8.66534,16.49577-15.47636,11.42107.59452,15.90275-10.10365,15.1906-14.78408,16.23739-16.23739,16.80654-40.25033,3.47426-57.30913Z" fill="url(#uuid-9e452c87-2555-418b-8bbe-b20f2fb5577f)"/><path d="M102.79299,39.98243c-19.70197-19.70197-51.38204-19.96511-70.75941-.58773-19.37737,19.37737-19.11424,51.05744.58773,70.75941l63.19891,53.67692s16.29955-13.88097,19.55584-19.67681c8.77679,2.19153,18.02928-7.5653,17.0024-15.23628,6.1219,2.62862,18.23071-8.66544,16.49587-15.47638,11.42104.59443,15.90271-10.10376,15.19048-14.78406-1.87762-2.40363-61.27183-58.67507-61.27183-58.67507Z" fill="url(#uuid-cd042ca5-d1fc-4a84-a16e-20d877723b36)"/><path d="M63.23373,74.12598s12.77728,14.89937,30.67955.86865l22.86477-21.743,47.28677,45.40587-43.73666-41.83794-22.76137,21.94132s-14.04695,12.91493-34.33307-4.6349Z" fill="url(#uuid-335264b7-e40a-45b0-9b3a-d7440b2ffa7e)"/><path d="M164.06482,98.65749c17.64868-17.64868,16.80127-44.49027-.30417-61.59571-17.10544-17.10544-45.27923-16.66506-62.92791.98363l-37.59903,36.08055v.00002c8.21524,8.74929,21.98244,9.13909,30.67957.86865l22.86477-21.743,47.28677,45.40587Z" fill="url(#uuid-5f0421dd-1ffe-4a32-86af-d35a76e2170b)"/><path d="M164.06482,98.65749l-44.45919-41.14144-22.03883,21.24482s-14.04695,12.43303-34.33307-4.6349l19.13837,26.03127s40.64544,48.46744,81.69273-1.49976Z" fill="url(#uuid-af5cb9a3-6341-4347-8e1c-c1eba30bcf18)"/><path d="M63.35693,74.01025c7.59528,7.66134,20.87961,7.96947,28.52224.55934,1.60095-1.49731,4.05942-4.17469,5.66492-5.8114,3.62612-3.77342,13.33379-13.87406,17.07957-17.772,0,0,2.17114-2.25915,2.17114-2.25915l2.14868,2.26965,45.12134,47.66077-49.45203-43.15076,4.31946.0105c-7.25916,6.23207-17.68017,15.50243-24.92558,21.56918-9.11659,7.38807-23.50399,6.06265-30.89618-2.84494-.00001.00025.24645-.2312.24645-.2312h0Z" fill="#ff8000"/><path d="M115.37606,144.15421c8.77679,2.19153,18.02928-7.5653,17.0024-15.23628,6.1219,2.62862,18.23071-8.66544,16.49587-15.47638,11.42104.59443,15.90271-10.10376,15.19048-14.78406" fill="none" stroke="#c64528" stroke-miterlimit="10" stroke-width="2.43338"/><rect x="77.79389" y="138.06191" width="41.49162" height="21.50417" rx="10.75207" ry="10.75207" transform="translate(-76.36577 113.2647) rotate(-45)" fill="url(#uuid-6bff3556-95a5-405b-bc15-1e2b48e9d7b1)"/><rect x="62.77403" y="124.63233" width="41.49162" height="21.50417" rx="10.75207" ry="10.75207" transform="translate(-71.26884 98.71062) rotate(-45)" fill="url(#uuid-766f2895-a94e-4823-af69-680deba370fc)"/><rect x="47.75418" y="111.20274" width="41.49162" height="21.50417" rx="10.75206" ry="10.75206" transform="translate(-66.1719 84.15655) rotate(-45)" fill="url(#uuid-907794d7-fa9c-4fc9-9f28-70542503f18d)"/><rect x="32.73433" y="97.77316" width="41.49162" height="21.50417" rx="10.75207" ry="10.75207" transform="translate(-61.07497 69.60247) rotate(-45)" fill="url(#uuid-a8063a96-6474-47cc-854e-743d1c01d421)"/><path d="M68.14964,93.85575c4.19895,4.19895,4.19895,11.00678,0,15.20573l-14.13328,14.13328c-3.76691,3.76691-9.63346,4.15449-13.83244,1.16275-.48159-.34313-.94125-.73072-1.37329-1.16275l1.28569,1.28569c4.19895,4.19895,11.00678,4.19895,15.20573,0l14.13328-14.13328c4.19895-4.19895,4.19895-11.00678,0-15.20573l-1.28569-1.28569Z" fill="url(#uuid-2b8e1986-025a-4fd0-8a7a-881668b3b6ef)"/><path d="M83.16084,107.27667c4.19895,4.19895,4.19895,11.00678,0,15.20573l-14.13328,14.13328c-3.76691,3.76691-9.63346,4.15449-13.83244,1.16275-.48159-.34313-.94125-.73072-1.37329-1.16275l1.28569,1.28569c4.19895,4.19895,11.00678,4.19895,15.20573,0l14.13328-14.13328c4.19895-4.19895,4.19895-11.00678,0-15.20573l-1.28569-1.28569Z" fill="url(#uuid-ba9799ae-789e-4025-b879-253a08acc551)"/><path d="M98.17204,120.6976c4.19895,4.19895,4.19895,11.00678,0,15.20573l-14.13328,14.13328c-3.76691,3.76691-9.63346,4.15449-13.83244,1.16275-.48159-.34313-.94125-.73072-1.37329-1.16275l1.28569,1.28569c4.19895,4.19895,11.00678,4.19895,15.20573,0l14.13328-14.13328c4.19895-4.19895,4.19895-11.00678,0-15.20573l-1.28569-1.28569Z" fill="url(#uuid-c9b5ff1a-5eca-491e-92c7-24d1db9e80c2)"/><path d="M113.18323,134.11852c4.19895,4.19895,4.19895,11.00678,0,15.20573l-14.13328,14.13328c-3.76691,3.76691-9.63346,4.15449-13.83244,1.16275-.48159-.34313-.94125-.73072-1.37329-1.16275l1.28569,1.28569c4.19895,4.19895,11.00678,4.19895,15.20573,0l14.13328-14.13328c4.19895-4.19895,4.19895-11.00678,0-15.20573l-1.28569-1.28569Z" fill="url(#uuid-7babc79e-14ec-4da8-8f2e-cd0dd83df1cd)"/><line x1="133.3714" y1="98.65749" x2="149.02953" y2="113.69278" fill="none" stroke="#c64528" stroke-linecap="round" stroke-miterlimit="10" stroke-width="2.43338"/><line x1="116.80587" y1="113.7431" x2="132.464" y2="128.7784" fill="none" stroke="#c64528" stroke-linecap="round" stroke-miterlimit="10" stroke-width="2.43338"/><path d="M68.14966,93.85571c5.03847,3.69561,5.22249,11.62558.92121,15.99253.00018.00002-2.35334,2.4114-2.35334,2.4114-3.94222,3.98668-7.95168,7.88857-12.05161,11.71707-4.32224,4.21454-12.0941,3.98059-15.85526-.7822,4.12013,3.49975,10.76193,3.34604,14.42896-.66683,0,.00014,2.30542-2.43443,2.30542-2.43443,3.09291-3.24193,6.2132-6.45719,9.40648-9.59963.00002.00002,2.39174-2.34617,2.39174-2.34617,3.91409-3.68335,4.08488-10.01766.8064-14.29175h0Z" fill="#ff8000"/><path d="M83.16089,107.27673c5.03842,3.69535,5.2225,11.6257.92109,15.99241.00018.00002-2.35321,2.4114-2.35321,2.4114-3.9423,3.98671-7.95155,7.88871-12.05173,11.71707-4.32215,4.21473-12.09389,3.9804-15.85526-.78207,4.12032,3.49948,10.762,3.34606,14.42908-.66695,0,.00014,2.30542-2.43443,2.30542-2.43443,3.09291-3.24193,6.2132-6.45719,9.40648-9.59963.00002.00002,2.39174-2.34605,2.39174-2.34605,3.91386-3.68342,4.08498-10.01768.8064-14.29175h0Z" fill="#ff8000"/><path d="M98.172,120.69763c5.03854,3.69521,5.22258,11.62571.92121,15.99241.00018.00002-2.35334,2.4114-2.35334,2.4114-3.9422,3.98688-7.95151,7.88861-12.05161,11.71707-4.32214,4.21473-12.09404,3.98047-15.85526-.78207,4.12035,3.49966,10.76195,3.34599,14.42908-.66695,0,.00014,2.30542-2.43443,2.30542-2.43443,3.09264-3.24181,6.21335-6.45719,9.40635-9.59963.00002.00002,2.39186-2.34605,2.39186-2.34605,3.91378-3.68342,4.085-10.01772.80627-14.29175h0Z" fill="#ff8000"/><path d="M113.18323,134.11853c5.03843,3.69542,5.22258,11.62554.92121,15.99241.00018.00002-2.35334,2.4114-2.35334,2.4114-3.94207,3.98696-7.95166,7.88853-12.05161,11.71719-4.3223,4.21452-12.09403,3.98049-15.85526-.7822,4.12013,3.49971,10.76194,3.34605,14.42896-.66683,0,.00014,2.30542-2.43455,2.30542-2.43455,3.09298-3.24181,6.21327-6.45707,9.40648-9.59963.00002.00002,2.39174-2.34605,2.39174-2.34605,3.91405-3.68327,4.08494-10.01768.8064-14.29175h0Z" fill="#ff8000"/><path d="M83.28516,27.77258c-27.80739-8.12148-57.71691,8.54386-63.67535,37.17504-1.94818,8.99488-1.40863,18.54249,1.4577,27.49842-5.96368-12.90782-5.54728-28.79284.98067-41.54711,10.98824-22.19314,38.40057-32.70304,61.23698-23.12635h0Z" fill="#f6c243"/></g></svg>