<svg xmlns="http://www.w3.org/2000/svg" width="200" height="200" xmlns:xlink="http://www.w3.org/1999/xlink"><defs><radialGradient id="h" cx="-2825.053" cy="794.989" fx="-2825.053" fy="794.989" r="1.049" gradientTransform="matrix(.9265 1.95511 45.68097 -21.6534 -33639.743 22887.892)" xlink:href="#c"/><radialGradient id="o" cx="-2443.693" cy="785.326" fx="-2443.693" fy="785.326" r=".197" gradientTransform="matrix(1.38618 1.68465 69.15366 -55.9456 -50830.214 48093.285)" xlink:href="#c"/><radialGradient id="n" cx="-2443.496" cy="785.6" fx="-2443.496" fy="785.6" r=".197" gradientTransform="matrix(1.50214 1.55668 63.98214 -61.75245 -46485.127 52340.85)" xlink:href="#c"/><radialGradient id="m" cx="-2034.952" cy="920.614" fx="-2034.952" fy="920.614" r="1.049" gradientTransform="matrix(1.17862 .92129 13.43233 -17.0941 -9902.58 17657.201)" xlink:href="#c"/><radialGradient id="c" cx="-557.794" cy="777.833" fx="-557.794" fy="777.833" r="1.049" gradientTransform="matrix(2.16338 -.0186 -.3191 -37.10393 1573.277 28921.278)" gradientUnits="userSpaceOnUse"><stop offset="0" stop-color="#fdf2ef" stop-opacity=".7"/><stop offset=".293" stop-color="#fff" stop-opacity="0"/></radialGradient><radialGradient id="f" cx="-2442.722" cy="791.599" fx="-2442.722" fy="791.599" r="1.049" gradientTransform="matrix(1.13168 1.8439 43.08037 -26.44331 -31201.374 25545.178)" xlink:href="#c"/><radialGradient id="g" cx="-552.228" cy="762.725" fx="-552.228" fy="762.725" r="1.049" gradientTransform="matrix(2.12939 .3825 8.9344 -49.75262 -5525.668 38301.367)" xlink:href="#c"/><radialGradient id="l" cx="-2032.36" cy="919.369" fx="-2032.36" fy="919.369" r="1.049" gradientTransform="matrix(.96305 1.13734 16.60251 -14.05678 -13260.736 15300.557)" xlink:href="#c"/><linearGradient id="i" x1="426.392" y1="1009.452" x2="464.036" y2="1009.452" gradientTransform="rotate(-13.619 -3836.332 1963.032)" xlink:href="#a"/><linearGradient id="j" x1="453.962" y1="1013.741" x2="427.513" y2="1002.258" gradientTransform="rotate(-13.619 -3836.332 1963.032)" xlink:href="#b"/><linearGradient id="k" x1="426.64" y1="1007.711" x2="460.762" y2="1007.711" gradientTransform="rotate(-13.619 -3836.332 1963.032)" gradientUnits="userSpaceOnUse"><stop offset="0" stop-color="#ff8000"/><stop offset=".042" stop-color="#fe7e02"/><stop offset=".668" stop-color="#f06327"/><stop offset="1" stop-color="#ec5a36"/></linearGradient><linearGradient id="b" x1="133.236" y1="129.012" x2="39.289" y2="88.224" gradientUnits="userSpaceOnUse"><stop offset=".399" stop-color="#ff7300"/><stop offset=".488" stop-color="#fe7b09"/><stop offset=".634" stop-color="#fd9022"/><stop offset=".818" stop-color="#fab349"/><stop offset=".946" stop-color="#f8ce69"/></linearGradient><linearGradient id="e" x1="68.469" y1="59.802" x2="21.465" y2="39.395" xlink:href="#b"/><linearGradient id="d" x1="-9411.461" y1="49.913" x2="-9356.851" y2="49.913" gradientTransform="matrix(-1 0 0 1 -9341.434 0)" xlink:href="#a"/><linearGradient id="a" x1="35.305" y1="113.778" x2="169.019" y2="113.778" gradientUnits="userSpaceOnUse"><stop offset=".019" stop-color="#f6c243"/><stop offset=".024" stop-color="#f5bb41"/><stop offset=".051" stop-color="#f19b3b"/><stop offset=".081" stop-color="#ee8136"/><stop offset=".114" stop-color="#eb6d32"/><stop offset=".152" stop-color="#ea5e2f"/><stop offset=".197" stop-color="#e9562d"/><stop offset=".271" stop-color="#e9542d"/><stop offset=".353" stop-color="#e6532c"/><stop offset=".394" stop-color="#de4f2b"/><stop offset=".427" stop-color="#d14a29"/><stop offset=".445" stop-color="#c64528"/><stop offset=".51" stop-color="#c84528"/><stop offset=".542" stop-color="#d04929"/><stop offset=".568" stop-color="#dd4e2b"/><stop offset=".583" stop-color="#e9542d"/><stop offset=".75" stop-color="#e9562c"/><stop offset=".835" stop-color="#ec5e29"/><stop offset=".902" stop-color="#f16b25"/><stop offset=".959" stop-color="#f87e1f"/><stop offset="1" stop-color="#ff911a"/></linearGradient></defs><ellipse cx="78.591" cy="181.591" rx="37.022" ry="5.35" fill="#090909" opacity=".07"/><path d="M168.375 109.87c1.097 1.672.848 4.149-1.183 5.396l-34.742 21.336a3.827 3.827 0 0 0-1.769 2.61l-6.089 35.252c-.499 2.889-3.927 4.167-6.196 2.31L96.02 158.45a3.827 3.827 0 0 0-3.986-.533l-33.744 15.082c-1.425.638-2.833.352-3.854-.426l-.035-.028-.035-.028-17.357-13.895-.035-.028c-1.563-1.162-2.29-3.418-1.013-5.413l19.978-31.219a4.016 4.016 0 0 0-.13-4.519l-17.06-23.58c-1.865-2.579-.135-6.198 3.043-6.365l39.366-2.068a4.016 4.016 0 0 0 2.847-1.407l27.835-32.69c1.8-2.114 4.848-1.714 6.283.189.01.012.018.025.027.038l13.601 18.927c.01.013.78 1.387.806 2.264l.454 15.597 20.66 2.679c1.29.167 2.263.86 2.852 1.779l11.853 17.065z" fill="url(#a)"/><path d="M111.84 51.332 84.003 84.023a4.016 4.016 0 0 1-2.847 1.407L41.79 87.498c-3.178.167-4.908 3.786-3.043 6.364l17.06 23.581a4.016 4.016 0 0 1 .13 4.519l-19.978 31.22c-2.15 3.358 1.38 7.457 5.021 5.83l35.408-15.826a4.016 4.016 0 0 1 4.183.559l23.481 19.228c2.38 1.949 5.978.608 6.502-2.424l6.39-36.991a4.016 4.016 0 0 1 1.855-2.739l36.455-22.387c3.227-1.982 2.17-6.918-1.585-7.405l-30.405-3.943a4.016 4.016 0 0 1-3.498-3.865l-.856-29.4c-.107-3.676-4.688-5.287-7.072-2.487z" fill="#ff8000"/><path d="M111.84 51.332 84.003 84.023a4.016 4.016 0 0 1-2.847 1.407L41.79 87.498c-3.178.167-4.908 3.786-3.043 6.364l17.06 23.581a4.016 4.016 0 0 1 .13 4.519l-19.978 31.22c-2.15 3.358 1.38 7.457 5.021 5.83l35.408-15.826a4.016 4.016 0 0 1 4.183.559l23.481 19.228c2.38 1.949 5.978.608 6.502-2.424l6.39-36.991a4.016 4.016 0 0 1 1.855-2.739l36.455-22.387c3.227-1.982 2.17-6.918-1.585-7.405l-30.405-3.943a4.016 4.016 0 0 1-3.498-3.865l-.856-29.4c-.107-3.676-4.688-5.287-7.072-2.487z" fill="url(#b)"/><path d="M15.68 48.317c-.448.683-.347 1.694.483 2.204l14.189 8.714c.383.235.646.623.722 1.066l2.487 14.397a1.563 1.563 0 0 0 2.53.944l9.14-7.484a1.563 1.563 0 0 1 1.628-.218L60.64 74.1a1.52 1.52 0 0 0 1.575-.174l.014-.011.014-.012 7.089-5.675.014-.011c.639-.475.936-1.396.414-2.21L61.6 53.255a1.64 1.64 0 0 1 .054-1.846l6.968-9.63c.761-1.054.055-2.532-1.243-2.6L51.3 38.335a1.64 1.64 0 0 1-1.163-.574L38.77 24.409c-.735-.863-1.98-.7-2.566.078l-.011.015-5.555 7.73c-.004.006-.319.567-.33.925l-.185 6.37-8.438 1.094a1.599 1.599 0 0 0-1.164.727l-4.841 6.97z" fill="url(#d)"/><path d="m38.77 24.41 11.368 13.35a1.64 1.64 0 0 0 1.163.575l16.078.845c1.298.068 2.004 1.546 1.243 2.6l-6.968 9.63a1.64 1.64 0 0 0-.053 1.846l8.16 12.75c.877 1.372-.565 3.046-2.052 2.382l-14.46-6.464a1.64 1.64 0 0 0-1.71.228l-9.59 7.853a1.64 1.64 0 0 1-2.655-.99l-2.61-15.108a1.64 1.64 0 0 0-.757-1.118l-14.89-9.144c-1.317-.809-.885-2.825.648-3.024l12.418-1.61a1.64 1.64 0 0 0 1.429-1.579l.35-12.007c.043-1.502 1.914-2.16 2.888-1.016z" fill="#ff8000"/><path d="m38.77 24.41 11.368 13.35a1.64 1.64 0 0 0 1.163.575l16.078.845c1.298.068 2.004 1.546 1.243 2.6l-6.968 9.63a1.64 1.64 0 0 0-.053 1.846l8.16 12.75c.877 1.372-.565 3.046-2.052 2.382l-14.46-6.464a1.64 1.64 0 0 0-1.71.228l-9.59 7.853a1.64 1.64 0 0 1-2.655-.99l-2.61-15.108a1.64 1.64 0 0 0-.757-1.118l-14.89-9.144c-1.317-.809-.885-2.825.648-3.024l12.418-1.61a1.64 1.64 0 0 0 1.429-1.579l.35-12.007c.043-1.502 1.914-2.16 2.888-1.016z" fill="url(#e)"/><path fill="url(#c)" d="m115.614 58.278 3.594-.03 2.213 25.432-3.594.031-2.213-25.433z"/><path fill="url(#f)" d="m149.91 97.096 1.88 3.063-28.506 19.838-1.88-3.063 28.506-19.838z"/><path fill="url(#g)" d="m113.233 125.03 3.537.636-4.166 34.479-3.537-.636 4.166-34.479z"/><path fill="url(#h)" d="m73.202 140.43 1.539 3.248-30.48 16.654-1.539-3.247 30.48-16.655z"/><path d="M118.167 22.684c.41.384.507 1.078.034 1.555l-8.092 8.14c-.218.22-.331.522-.31.831l.67 10.05c.055.823-.798 1.4-1.542 1.042l-7.337-3.53a1.077 1.077 0 0 0-1.126.118l-8.233 6.364a1.047 1.047 0 0 1-1.083.139l-.012-.006-.011-.005-5.67-2.651-.011-.006c-.505-.214-.854-.783-.637-1.413l3.397-9.867a1.13 1.13 0 0 0-.335-1.228l-6.23-5.32a1.13 1.13 0 0 1 .41-1.944l10.634-3.175a1.13 1.13 0 0 0 .686-.574l5.449-10.79c.352-.697 1.213-.79 1.731-.364l.01.009 4.976 4.277c.004.002.306.327.37.566l1.159 4.237 5.83-.636c.365-.04.677.085.898.297l4.375 3.884z" fill="url(#i)"/><path d="m98.818 10.415-5.45 10.79a1.13 1.13 0 0 1-.685.573l-10.634 3.175a1.13 1.13 0 0 0-.41 1.943l6.23 5.321c.354.302.486.79.335 1.228l-3.397 9.867c-.365 1.061.873 1.949 1.76 1.262l8.64-6.677a1.13 1.13 0 0 1 1.182-.125l7.699 3.705a1.13 1.13 0 0 0 1.618-1.094l-.704-10.545a1.13 1.13 0 0 1 .326-.872l8.491-8.542c.751-.756.135-2.037-.925-1.921l-8.58.936a1.13 1.13 0 0 1-1.213-.825l-2.184-7.988c-.272-.998-1.633-1.136-2.1-.211z" fill="#ff8000"/><path d="m98.818 10.415-5.45 10.79a1.13 1.13 0 0 1-.685.573l-10.634 3.175a1.13 1.13 0 0 0-.41 1.943l6.23 5.321c.354.302.486.79.335 1.228l-3.397 9.867c-.365 1.061.873 1.949 1.76 1.262l8.64-6.677a1.13 1.13 0 0 1 1.182-.125l7.699 3.705a1.13 1.13 0 0 0 1.618-1.094l-.704-10.545a1.13 1.13 0 0 1 .326-.872l8.491-8.542c.751-.756.135-2.037-.925-1.921l-8.58.936a1.13 1.13 0 0 1-1.213-.825l-2.184-7.988c-.272-.998-1.633-1.136-2.1-.211z" fill="url(#j)"/><path d="M85.18 44.58c.131.094.262.152.378.185.117.034.22.042.3.042h.057l.05-.005.041-.004.034-.006.06-.01c.16-.038.312-.11.444-.21l2.36-1.773 3.513-2.652 2.842-2.154c.056-.04.114-.076.175-.106a1.007 1.007 0 0 1 .507-.088.99.99 0 0 1 .343.096l3.579 1.758 4.092 2.004a1.357 1.357 0 0 0 1.948-1.309l-.114-1.883-.273-4.393-.268-4.271a.847.847 0 0 1 .247-.651l1.259-1.263c.417-.423.836-.844 1.252-1.268a353.848 353.848 0 0 0 3.065-3.16l2.82-2.946a1.222 1.222 0 0 0 .307-.558c.049-.21.033-.427-.028-.623a1.302 1.302 0 0 0-.205-.384 1.226 1.226 0 0 0-1.107-.463l-1.927.209-2.188.238-2.188.235c-.76.08-1.52.162-2.279.243a1.328 1.328 0 0 1-.099.002 1.066 1.066 0 0 1-.098-.014c-.016-.003-.031-.009-.047-.014a.759.759 0 0 1-.046-.016.87.87 0 0 1-.087-.046.913.913 0 0 1-.078-.06c-.024-.021-.046-.047-.067-.07-.02-.025-.038-.053-.055-.078a2.651 2.651 0 0 1-.045-.082 2.515 2.515 0 0 1-.033-.083l-.023-.083c-.007-.027-.012-.053-.017-.077l-.013-.073a.727.727 0 0 0-.011-.067l-.011-.062a.382.382 0 0 0-.012-.06.316.316 0 0 0-.014-.056l-.137-.495a48.386 48.386 0 0 0-.644-2.106c-.23-.697-.478-1.39-.726-2.083-.189-.53-.38-1.06-.564-1.59a86.247 86.247 0 0 1-.537-1.598l-.022-.063-.032-.077a1.221 1.221 0 0 0-.25-.366c-.091-.094-.228-.16-.39-.23l-.002.004-.001.004-.002.004.005-.013-.005.013-.003.007a.978.978 0 0 1 .372.238.96.96 0 0 1 .184.257c.019.038.032.073.044.102l.024.076.016.06v.001c.122.548.238 1.098.35 1.649.111.55.216 1.104.323 1.656.14.722.279 1.445.435 2.163.156.718.328 1.431.517 2.14l.133.495c.015.046.03.09.048.134.02.043.042.084.065.125.012.02.027.039.04.058l.043.056c.03.035.064.068.098.1.035.03.072.058.11.084.038.026.08.047.119.068.04.02.084.035.125.051l.126.036c.043.01.085.017.126.023.042.005.084.007.123.011l.119.003.113-.002c.148-.007.282-.02.415-.034l2.278-.254 2.188-.243 2.188-.24 1.926-.21c.136-.016.275-.005.406.032.131.038.254.1.358.187.103.085.189.19.252.304a1.064 1.064 0 0 1-.038 1.098 1.34 1.34 0 0 1-.161.192l-2.93 2.837a353.712 353.712 0 0 0-3.141 3.084c-.422.418-.84.84-1.261 1.26l-1.255 1.266a1.418 1.418 0 0 0-.405 1.093l.302 4.27.314 4.39.136 1.882a.927.927 0 0 1-.089.464.915.915 0 0 1-.909.498.951.951 0 0 1-.29-.082l-4.12-1.947-3.607-1.7a1.3 1.3 0 0 0-.864-.083c-.086.022-.17.053-.25.092-.079.04-.154.087-.224.141l-2.801 2.208-3.452 2.732-2.31 1.836h-.001c-.125.099-.27.173-.425.215l-.058.012-.033.007-.04.005-.048.006-.056.002c-.08.002-.18-.003-.296-.033a1.201 1.201 0 0 1-.381-.173z" fill="url(#k)"/><path fill="url(#l)" opacity=".4" d="m50.273 59.425 1.6 1.889-10.501 10.69-1.6-1.89 10.5-10.69z"/><path fill="url(#m)" opacity=".4" d="m68.041 38.316 1.958 1.53L61.87 52.42l-1.958-1.53 8.128-12.574z"/><path fill="url(#n)" d="m112.537 20.027.468.485-7.975 8.217-.468-.485 7.975-8.217z"/><path fill="url(#o)" d="m94.657 36.98.432.525-8.66 7.492-.432-.525 8.66-7.492z"/></svg>