<?xml version="1.0" encoding="UTF-8"?><svg xmlns="http://www.w3.org/2000/svg" width="200" height="200" xmlns:xlink="http://www.w3.org/1999/xlink" viewBox="0 0 200 200"><defs><linearGradient id="uuid-9580834f-15f6-4c27-a23a-297ca6e9cd6c" x1="213.10236" y1="158.4162" x2="-43.895" y2="35.70122" gradientTransform="translate(-.57237 .12877)" gradientUnits="userSpaceOnUse"><stop offset=".08498" stop-color="#f8c762"/><stop offset=".46538" stop-color="#f8c862"/><stop offset=".79435" stop-color="#f8ce69"/><stop offset=".92806" stop-color="#f8cf6c"/><stop offset="1" stop-color="#f8d172"/></linearGradient><linearGradient id="uuid-e872ab88-c656-4f00-bed8-27171366a492" x1="213.61643" y1="158.35725" x2="-43.36778" y2="35.64855" gradientTransform="translate(-1.14475 .25754) skewX(-.01249)" gradientUnits="userSpaceOnUse"><stop offset=".08498" stop-color="#f9c05c"/><stop offset=".46538" stop-color="#f9c35c"/><stop offset=".79435" stop-color="#f8ce69"/><stop offset=".89257" stop-color="#f8cf6c"/><stop offset=".97088" stop-color="#f8d276"/><stop offset="1" stop-color="#f9d47c"/></linearGradient><linearGradient id="uuid-e08a9618-731b-4690-8b8d-836add705899" x1="214.13025" y1="158.29837" x2="-42.84081" y2="35.59594" gradientTransform="translate(-1.71712 .38631) skewX(-.01872)" gradientUnits="userSpaceOnUse"><stop offset=".08498" stop-color="#f9b855"/><stop offset=".46538" stop-color="#f9bd55"/><stop offset=".79435" stop-color="#f8ce69"/><stop offset=".87804" stop-color="#f8cf6c"/><stop offset=".94476" stop-color="#f8d276"/><stop offset="1" stop-color="#f9d785"/></linearGradient><linearGradient id="uuid-54926502-ff7d-4a70-8bc0-60722c8aefe7" x1="214.64381" y1="158.23954" x2="-42.31412" y2="35.54339" gradientTransform="translate(-2.28949 .51509) rotate(-.01248) skewX(-.02495)" gradientUnits="userSpaceOnUse"><stop offset=".08498" stop-color="#fab14f"/><stop offset=".46538" stop-color="#fab74f"/><stop offset=".79435" stop-color="#f8ce69"/><stop offset=".86894" stop-color="#f8cf6c"/><stop offset=".92849" stop-color="#f8d276"/><stop offset=".98267" stop-color="#f9d786"/><stop offset="1" stop-color="#fada8e"/></linearGradient><linearGradient id="uuid-be3ee261-6cd3-406c-9346-19aca663a7a3" x1="215.15712" y1="158.18078" x2="-41.78769" y2="35.49089" gradientTransform="translate(-2.86187 .64386) rotate(-.0156) skewX(-.03118)" gradientUnits="userSpaceOnUse"><stop offset=".08498" stop-color="#faaa48"/><stop offset=".46538" stop-color="#fab248"/><stop offset=".79435" stop-color="#f8ce69"/><stop offset=".86193" stop-color="#f8cf6c"/><stop offset=".91587" stop-color="#f8d276"/><stop offset=".96496" stop-color="#f9d786"/><stop offset="1" stop-color="#fadd98"/></linearGradient><linearGradient id="uuid-54052448-a8bc-4f3b-8bef-eede6eaa5adb" x1="215.67017" y1="158.12207" x2="-41.26152" y2="35.43845" gradientTransform="translate(-3.43424 .77263) rotate(-.01872) skewX(-.03741)" gradientUnits="userSpaceOnUse"><stop offset=".08498" stop-color="#fba342"/><stop offset=".46538" stop-color="#fbac42"/><stop offset=".48852" stop-color="#faae44"/><stop offset=".79435" stop-color="#f8ce69"/><stop offset=".85721" stop-color="#f8cf6c"/><stop offset=".9074" stop-color="#f8d276"/><stop offset=".9532" stop-color="#f9d786"/><stop offset=".99616" stop-color="#fadf9e"/><stop offset="1" stop-color="#fbe0a1"/></linearGradient><linearGradient id="uuid-0f746497-a0b0-4fb0-9325-1af9397f080e" x1="216.18297" y1="158.06343" x2="-40.73562" y2="35.38606" gradientTransform="translate(-4.00661 .9014) rotate(-.02183) skewX(-.04362)" gradientUnits="userSpaceOnUse"><stop offset=".08498" stop-color="#fb9c3b"/><stop offset=".46538" stop-color="#fba63b"/><stop offset=".53197" stop-color="#faae44"/><stop offset=".79435" stop-color="#f8ce69"/><stop offset=".85309" stop-color="#f8cf6c"/><stop offset=".89998" stop-color="#f8d276"/><stop offset=".94277" stop-color="#f9d786"/><stop offset=".98291" stop-color="#fadf9e"/><stop offset="1" stop-color="#fbe3ab"/></linearGradient><linearGradient id="uuid-454f596f-f767-4f3f-a341-af5043e63aa9" x1="216.69551" y1="158.00484" x2="-40.20998" y2="35.33373" gradientTransform="translate(-4.57899 1.03017) rotate(-.02494) skewX(-.04984)" gradientUnits="userSpaceOnUse"><stop offset=".08498" stop-color="#fc9535"/><stop offset=".46538" stop-color="#fca135"/><stop offset=".56023" stop-color="#faae44"/><stop offset=".79435" stop-color="#f8ce69"/><stop offset=".85007" stop-color="#f8cf6c"/><stop offset=".89455" stop-color="#f8d276"/><stop offset=".93516" stop-color="#f9d786"/><stop offset=".97322" stop-color="#fadf9e"/><stop offset="1" stop-color="#fbe6b4"/></linearGradient><linearGradient id="uuid-8d52fee4-15a9-46f3-81e9-99d0122d611a" x1="217.2078" y1="157.94632" x2="-39.68461" y2="35.28145" gradientTransform="translate(-5.15136 1.15894) rotate(-.02805) skewX(-.05605)" gradientUnits="userSpaceOnUse"><stop offset=".08498" stop-color="#fc8d2e"/><stop offset=".46538" stop-color="#fc9b2e"/><stop offset=".58616" stop-color="#faae44"/><stop offset=".79435" stop-color="#f8ce69"/><stop offset=".84752" stop-color="#f8cf6c"/><stop offset=".88998" stop-color="#f8d276"/><stop offset=".92874" stop-color="#f9d786"/><stop offset=".96505" stop-color="#fadf9e"/><stop offset=".99977" stop-color="#fbe9bc"/><stop offset="1" stop-color="#fceabd"/></linearGradient><linearGradient id="uuid-7fbc6e1d-e9eb-4bef-bf26-7459b3e40ea2" x1="217.71983" y1="157.88786" x2="-39.1595" y2="35.22923" gradientTransform="translate(-5.72373 1.28771) rotate(-.03116) skewX(-.06225)" gradientUnits="userSpaceOnUse"><stop offset=".08498" stop-color="#fc8627"/><stop offset=".46538" stop-color="#fc9527"/><stop offset=".60675" stop-color="#faae44"/><stop offset=".79435" stop-color="#f8ce69"/><stop offset=".84511" stop-color="#f8cf6c"/><stop offset=".88563" stop-color="#f8d276"/><stop offset=".92263" stop-color="#f9d786"/><stop offset=".95753" stop-color="#fadf9e"/><stop offset=".99064" stop-color="#fbe9bc"/><stop offset="1" stop-color="#fcedc7"/></linearGradient><linearGradient id="uuid-cdae9e1e-91b1-4588-9153-666cf2837bc5" x1="218.23161" y1="157.82945" x2="-38.63465" y2="35.17707" gradientTransform="translate(-6.29611 1.41648) rotate(-.03427) skewX(-.06845)" gradientUnits="userSpaceOnUse"><stop offset=".08498" stop-color="#fd7f21"/><stop offset=".46538" stop-color="#fd8f21"/><stop offset=".62133" stop-color="#faae44"/><stop offset=".79435" stop-color="#f8ce69"/><stop offset=".84323" stop-color="#f8cf6c"/><stop offset=".88226" stop-color="#f8d276"/><stop offset=".91788" stop-color="#f9d786"/><stop offset=".95148" stop-color="#fadf9e"/><stop offset=".98338" stop-color="#fce9bc"/><stop offset="1" stop-color="#fdf0d0"/></linearGradient><linearGradient id="uuid-77a0e328-bf5a-4941-a528-89ad75fc46b4" x1="218.74313" y1="157.77111" x2="-38.11007" y2="35.12496" gradientTransform="translate(-6.86848 1.54526) rotate(-.03738) skewX(-.07465)" gradientUnits="userSpaceOnUse"><stop offset=".08498" stop-color="#fd781a"/><stop offset=".46538" stop-color="#fd8a1a"/><stop offset=".63481" stop-color="#faae44"/><stop offset=".79435" stop-color="#f8ce69"/><stop offset=".84157" stop-color="#f8cf6c"/><stop offset=".87927" stop-color="#f8d276"/><stop offset=".9137" stop-color="#f9d786"/><stop offset=".94616" stop-color="#fadf9e"/><stop offset=".97696" stop-color="#fbe9bc"/><stop offset="1" stop-color="#fdf3d9"/></linearGradient><linearGradient id="uuid-24b0abd1-4864-4ab9-a107-2111c11fddda" x1="219.2544" y1="157.71283" x2="-37.58576" y2="35.07291" gradientTransform="translate(-7.44085 1.67403) rotate(-.04048) skewX(-.08084)" gradientUnits="userSpaceOnUse"><stop offset=".08498" stop-color="#fe7114"/><stop offset=".46538" stop-color="#fe8414"/><stop offset=".64527" stop-color="#faae44"/><stop offset=".79435" stop-color="#f8ce69"/><stop offset=".83993" stop-color="#f8cf6c"/><stop offset=".87633" stop-color="#f8d276"/><stop offset=".90955" stop-color="#f9d786"/><stop offset=".94089" stop-color="#fadf9e"/><stop offset=".97061" stop-color="#fce9bc"/><stop offset=".99926" stop-color="#fdf5e1"/><stop offset="1" stop-color="#fef6e3"/></linearGradient><linearGradient id="uuid-322642eb-0210-412c-a000-f9858e396a05" x1="219.76542" y1="157.6546" x2="-37.0617" y2="35.02091" gradientTransform="translate(-8.01323 1.8028) rotate(-.04359) skewX(-.08703)" gradientUnits="userSpaceOnUse"><stop offset=".08498" stop-color="#fe690d"/><stop offset=".46538" stop-color="#fe7e0d"/><stop offset=".6558" stop-color="#faae44"/><stop offset=".79435" stop-color="#f8ce69"/><stop offset=".83861" stop-color="#f8cf6c"/><stop offset=".87395" stop-color="#f8d276"/><stop offset=".90622" stop-color="#f9d786"/><stop offset=".93665" stop-color="#fadf9e"/><stop offset=".9658" stop-color="#fbe9bd"/><stop offset=".99361" stop-color="#fdf5e2"/><stop offset="1" stop-color="#fef9ec"/></linearGradient><linearGradient id="uuid-ab21d2ce-7c56-4c8d-8f2d-dfb219479c2c" x1="220.27618" y1="157.59644" x2="-36.53791" y2="34.96896" gradientTransform="translate(-8.5856 1.93157) rotate(-.04669) skewX(-.09321)" gradientUnits="userSpaceOnUse"><stop offset=".08498" stop-color="#ff6207"/><stop offset=".46538" stop-color="#ff7907"/><stop offset=".66365" stop-color="#faae44"/><stop offset=".79435" stop-color="#f8ce69"/><stop offset=".83728" stop-color="#f8cf6c"/><stop offset=".87157" stop-color="#f8d276"/><stop offset=".90288" stop-color="#f9d786"/><stop offset=".9324" stop-color="#fadf9e"/><stop offset=".96068" stop-color="#fce9bd"/><stop offset=".98765" stop-color="#fef5e2"/><stop offset="1" stop-color="#fffcf6"/></linearGradient><linearGradient id="uuid-a2d94b3d-c742-42cf-b66d-0adcff1b26c0" x1="220.78669" y1="157.53833" x2="-36.01438" y2="34.91708" gradientTransform="translate(-9.15798 2.06034) rotate(-.04979) skewX(-.09939)" gradientUnits="userSpaceOnUse"><stop offset=".08498" stop-color="#ff5b00"/><stop offset=".46538" stop-color="#ff7300"/><stop offset=".67173" stop-color="#faae44"/><stop offset=".79435" stop-color="#f8ce69"/><stop offset=".8362" stop-color="#f8cf6c"/><stop offset=".86962" stop-color="#f8d276"/><stop offset=".90014" stop-color="#f9d786"/><stop offset=".92892" stop-color="#fadf9e"/><stop offset=".95649" stop-color="#fbe9bd"/><stop offset=".98277" stop-color="#fdf5e2"/><stop offset="1" stop-color="#fff"/></linearGradient><radialGradient id="uuid-587b020b-83ad-4631-895b-15e2cf3a3430" cx="150.76652" cy="103.37312" fx="150.76652" fy="103.37312" r="65.71633" gradientUnits="userSpaceOnUse"><stop offset=".2804" stop-color="#fff"/><stop offset=".59619" stop-color="#fefefd"/><stop offset=".70994" stop-color="#fefcf6"/><stop offset=".79101" stop-color="#fef8ea"/><stop offset=".85657" stop-color="#fdf2d9"/><stop offset=".91274" stop-color="#fcebc3"/><stop offset=".96156" stop-color="#fbe2a9"/><stop offset="1" stop-color="#fada8e"/></radialGradient></defs><g id="uuid-4614e9de-1a76-44fd-9275-8ea95e03a317"><path d="M173.50005,49.14307s-1.33321-9.1096-9.74026-7.97982L13.18758,74.56238s-5.40667.56247-7.22242,5.36492c-.41826,1.1062-.47197,2.2975-.28095,3.44176.184,1.1024.53568,2.9384,1.20751,5.92452l18.34132,81.52486s1.89407,6.83533,10.3002,5.48246l151.00276-33.89996s6.45468-2.38467,5.71694-8.84291l-18.75291-84.41496Z" fill="#b9471e"/><path d="M174.41615,48.11181s-1.33321-9.1096-9.74026-7.97982L14.10369,73.53111s-5.40667.56247-7.22242,5.36492c-.41826,1.1062-.47197,2.2975-.28095,3.44176.184,1.1024.53568,2.9384,1.20751,5.92452l18.34132,81.52486s1.89407,6.83533,10.3002,5.48246l151.00276-33.89996s6.45468-2.38467,5.71694-8.84291l-18.75291-84.41496Z" fill="#f96422"/><path d="M14.2104,73.3932s-5.39263.55254-7.19844,5.36696c-.20801.55403-.32842,1.13118-.37093,1.71618-.03917.53901-.00541,1.10441.097,1.71677.18428,1.10308.53589,2.93789,1.20655,5.91877l18.34242,81.52976s1.8942,6.83573,10.30135,5.48266l150.93837-33.88418s6.45468-2.38467,5.71694-8.84291l-18.75291-84.41496s-1.33321-9.1096-9.74026-7.97982L14.2104,73.3932Z" fill="#f96b26"/><path d="M14.31711,73.25528s-5.37859.54262-7.17446,5.36899c-.20539.551-.32803,1.12663-.37202,1.71329-.03772.50299-.00488,1.05416.10511,1.71085.18455,1.10375.53611,2.93738,1.20559,5.91302l18.34352,81.53465s1.89433,6.83612,10.30249,5.48286l150.87398-33.86839s6.45468-2.38467,5.71694-8.84291l-18.75291-84.41496s-1.33321-9.1096-9.74026-7.97982L14.31711,73.25528Z" fill="#f9712b"/><path d="M14.42382,73.11737s-5.36455.53269-7.15048,5.37102c-.20277.54797-.32764,1.12207-.37311,1.7104-.03609.46698-.00436,1.00391.11322,1.70493.18483,1.10443.53633,2.93687,1.20463,5.90727l18.34462,81.53955s1.89446,6.83652,10.30363,5.48306l150.80958-33.85261s6.45468-2.38467,5.71694-8.84291l-18.75291-84.41496s-1.33321-9.1096-9.74026-7.97982L14.42382,73.11737Z" fill="#f9782f"/><path d="M14.53053,72.97945s-5.3505.52276-7.1265,5.37305c-.20015.54493-.32724,1.1175-.3742,1.70751-.0343.43099-.00384.95365.12132,1.69901.1851,1.1051.53654,2.93637,1.20366,5.90151l18.34572,81.54444s1.89459,6.83691,10.30478,5.48326l150.74519-33.83682s6.45468-2.38467,5.71694-8.84291l-18.75291-84.41496s-1.33321-9.1096-9.74026-7.97982L14.53053,72.97945Z" fill="#f97e34"/><path d="M14.63724,72.84154s-5.33646.51283-7.10252,5.37509c-.19753.5419-.32685,1.11292-.37529,1.70462-.03233.395-.00332.9034.12943,1.69309.18538,1.10578.53676,2.93586,1.2027,5.89576l18.34682,81.54933s1.89472,6.83731,10.30592,5.48346l150.6808-33.82104s6.45468-2.38467,5.71694-8.84291l-18.75291-84.41496s-1.33321-9.1096-9.74026-7.97982L14.63724,72.84154Z" fill="#f98538"/><path d="M14.74395,72.70362s-5.32242.50291-7.07854,5.37712c-.19491.53887-.32646,1.10834-.37637,1.70173-.0302.35902-.00279.85315.13754,1.68717.18565,1.10645.53698,2.93535,1.20174,5.89001l18.34792,81.55423s1.89485,6.8377,10.30706,5.48366l150.6164-33.80526s6.45468-2.38467,5.71694-8.84291l-18.75291-84.41496s-1.33321-9.1096-9.74026-7.97982L14.74395,72.70362Z" fill="#f98c3d"/><path d="M14.85066,72.56571s-5.30838.49298-7.05456,5.37915c-.19229.53584-.32606,1.10374-.37746,1.69884-.0279.32306-.00227.8029.14564,1.68125.18593,1.10713.53719,2.93484,1.20078,5.88426l18.34902,81.55912s1.89498,6.8381,10.3082,5.48386l150.55201-33.78947s6.45468-2.38467,5.71694-8.84291l-18.75291-84.41496s-1.33321-9.1096-9.74026-7.97982L14.85066,72.56571Z" fill="#f99241"/><path d="M14.95737,72.4278s-5.29434.48305-7.03058,5.38118c-.18967.5328-.32567,1.09914-.37855,1.69595-.02544.28711-.00175.75265.15375,1.67533.1862,1.10781.53741,2.93433,1.19981,5.87851l18.35012,81.56402s1.89511,6.83849,10.30935,5.48407l150.48762-33.77369s6.45468-2.38467,5.71694-8.84291l-18.75291-84.41496s-1.33321-9.1096-9.74026-7.97982L14.95737,72.4278Z" fill="#f99946"/><path d="M15.06408,72.28988s-5.2803.47312-7.0066,5.38322c-.18705.52977-.32527,1.09452-.37964,1.69306-.02282.25117-.00123.7024.16186,1.66942.18648,1.10848.53763,2.93382,1.19885,5.87276l18.35122,81.56891s1.89524,6.83889,10.31049,5.48427l150.42322-33.7579s6.45468-2.38467,5.71694-8.84291l-18.75291-84.41496s-1.33321-9.1096-9.74026-7.97982L15.06408,72.28988Z" fill="#f8a04a"/><path d="M15.17079,72.15197s-5.26625.46319-6.98261,5.38525c-.18443.52674-.32487,1.0899-.38073,1.69017-.02003.21524-.00071.65214.16997,1.6635.18675,1.10916.53784,2.93332,1.19789,5.867l18.35232,81.57381s1.89536,6.83928,10.31163,5.48447l150.35883-33.74212s6.45468-2.38467,5.71694-8.84291l-18.75291-84.41496s-1.33321-9.1096-9.74026-7.97982L15.17079,72.15197Z" fill="#f8a64e"/><path d="M15.2775,72.01405s-5.25221.45327-6.95863,5.38728c-.18181.5237-.32447,1.08527-.38182,1.68728-.01708.17933-.00018.60189.17807,1.65758.18703,1.10983.53806,2.93281,1.19692,5.86125l18.35342,81.5787s1.89549,6.83968,10.31277,5.48467l150.29444-33.72634s6.45468-2.38467,5.71694-8.84291l-18.75291-84.41496s-1.33321-9.1096-9.74026-7.97982L15.2775,72.01405Z" fill="#f8ad53"/><path d="M15.38422,71.87614s-5.23817.44334-6.93465,5.38932c-.17919.52067-.32407,1.08063-.38291,1.68439-.01398.14344.00034.55164.18618,1.65166.1873,1.11051.53828,2.9323,1.19596,5.8555l18.35452,81.5836s1.89562,6.84007,10.31392,5.48487l150.23004-33.71055s6.45468-2.38467,5.71694-8.84291l-18.75291-84.41496s-1.33321-9.1096-9.74026-7.97982L15.38422,71.87614Z" fill="#f8b457"/><path d="M15.49093,71.73822s-5.22413.43341-6.91067,5.39135c-.17657.51764-.32368,1.07599-.384,1.6815-.01071.10755.00086.50139.19429,1.64574.18758,1.11118.53849,2.93179,1.195,5.84975l18.35562,81.58849s1.89575,6.84047,10.31506,5.48507l150.16565-33.69477s6.45468-2.38467,5.71694-8.84291l-18.75291-84.41496s-1.33321-9.1096-9.74026-7.97982L15.49093,71.73822Z" fill="#f8ba5c"/><path d="M15.59764,71.60031s-5.21009.42348-6.88669,5.39338c-.17395.5146-.32327,1.07133-.38508,1.67861-.0073.07169.00138.45114.20239,1.63982.18785,1.11186.53871,2.93128,1.19404,5.844l18.35672,81.59339s1.89588,6.84086,10.3162,5.48527l150.10125-33.67898s6.45468-2.38467,5.71694-8.84291l-18.75291-84.41496s-1.33321-9.1096-9.74026-7.97982L15.59764,71.60031Z" fill="#f8c160"/><path d="M15.70435,71.46239s-5.19605.41356-6.86271,5.39541c-.17133.51157-.32287,1.06667-.38617,1.67572-.00372.03584.00191.40089.2105,1.6339.18813,1.11253.53893,2.93078,1.19307,5.83825l18.35782,81.59828s1.89601,6.84126,10.31735,5.48547l150.03686-33.6632s6.45468-2.38467,5.71694-8.84291l-18.75291-84.41496s-1.33321-9.1096-9.74026-7.97982L15.70435,71.46239Z" fill="#f8c765"/><path d="M175.6097,46.0388s-1.33321-9.1096-9.74026-7.97982L15.81106,71.32448s-6.29114.49002-7.22599,7.07028c0,0,.00851,1.2281,1.41072,7.46048l18.35892,81.60318s1.89614,6.84166,10.31849,5.48568l149.97247-33.64742s6.45468-2.38467,5.71694-8.84291l-18.75291-84.41496Z" fill="#f8ce69"/><path d="M175.59262,46.10111s-1.33304-9.10963-9.74219-7.97939L15.75388,71.39581s-6.27941.4869-7.21488,7.06738c0,0,.01109,1.22745,1.41333,7.45993l18.35919,81.6044s1.88004,6.84435,10.3045,5.4879l150.01065-33.65601s6.45637-2.38505,5.71881-8.84333l-18.75285-84.41497Z" fill="url(#uuid-9580834f-15f6-4c27-a23a-297ca6e9cd6c)"/><path d="M175.57554,46.16342s-1.33286-9.10967-9.74411-7.97896L15.6967,71.46714s-6.26767.48378-7.20378,7.06449c0,0,.01368,1.2268,1.41593,7.45938l18.35946,81.60562s1.86394,6.84705,10.29052,5.49012l150.04882-33.6646s6.45806-2.38543,5.72068-8.84375l-18.7528-84.41498Z" fill="url(#uuid-e872ab88-c656-4f00-bed8-27171366a492)"/><path d="M175.55847,46.22573s-1.33269-9.10971-9.74604-7.97852L15.63952,71.53847s-6.25594.48066-7.19267,7.06159c0,0,.01626,1.22615,1.41854,7.45883l18.35974,81.60684s1.84784,6.84975,10.27653,5.49234l150.087-33.67318s6.45976-2.38581,5.72255-8.84417l-18.75274-84.415Z" fill="url(#uuid-e08a9618-731b-4690-8b8d-836add705899)"/><path d="M175.54139,46.28804s-1.33252-9.10975-9.74796-7.97809L15.58234,71.6098s-6.2442.47754-7.18156,7.0587c0,0,.01885,1.2255,1.42114,7.45828l18.36001,81.60806s1.83174,6.85245,10.26255,5.49456l150.12518-33.68177s6.46145-2.38619,5.72441-8.84459l-18.75268-84.41501Z" fill="url(#uuid-54926502-ff7d-4a70-8bc0-60722c8aefe7)"/><path d="M175.52431,46.35035s-1.33234-9.10979-9.74989-7.97766L15.52516,71.68113s-6.23247.47442-7.17046,7.0558c0,0,.02143,1.22485,1.42375,7.45774l18.36028,81.60929s1.81564,6.85514,10.24856,5.49678l150.16336-33.69036s6.46315-2.38657,5.72628-8.84501l-18.75262-84.41502Z" fill="url(#uuid-be3ee261-6cd3-406c-9346-19aca663a7a3)"/><path d="M175.50724,46.41266s-1.33217-9.10983-9.75181-7.97722L15.46798,71.75247s-6.22073.4713-7.15935,7.05291c0,0,.02401,1.2242,1.42635,7.45719l18.36056,81.61051s1.79954,6.85784,10.23458,5.49901l150.20154-33.69895s6.46484-2.38695,5.72815-8.84543l-18.75257-84.41504Z" fill="url(#uuid-54052448-a8bc-4f3b-8bef-eede6eaa5adb)"/><path d="M175.49016,46.47497s-1.33199-9.10987-9.75374-7.97679L15.4108,71.8238s-6.209.46818-7.14824,7.05001c0,0,.0266,1.22355,1.42896,7.45664l18.36083,81.61173s1.78344,6.86054,10.22059,5.50123l150.23972-33.70754s6.46654-2.38733,5.73002-8.84585l-18.75251-84.41505Z" fill="url(#uuid-0f746497-a0b0-4fb0-9325-1af9397f080e)"/><path d="M175.47309,46.53727s-1.33182-9.10991-9.75567-7.97636L15.35362,71.89513s-6.19726.46506-7.13714,7.04712c0,0,.02918,1.22291,1.43156,7.45609l18.3611,81.61295s1.76734,6.86324,10.20661,5.50345l150.27789-33.71613s6.46823-2.38772,5.73188-8.84627l-18.75245-84.41506Z" fill="url(#uuid-454f596f-f767-4f3f-a341-af5043e63aa9)"/><path d="M175.45601,46.59958s-1.33165-9.10995-9.75759-7.97592L15.29644,71.96646s-6.18553.46194-7.12603,7.04422c0,0,.03176,1.22226,1.43417,7.45554l18.36138,81.61417s1.75124,6.86593,10.19262,5.50567l150.31607-33.72472s6.46992-2.3881,5.73375-8.84669l-18.75239-84.41508Z" fill="url(#uuid-8d52fee4-15a9-46f3-81e9-99d0122d611a)"/><path d="M175.43893,46.66189s-1.33147-9.10999-9.75952-7.97549L15.23926,72.03779s-6.17379.45882-7.11492,7.04133c0,0,.03435,1.22161,1.43677,7.45499l18.36165,81.6154s1.73514,6.86863,10.17864,5.50789l150.35425-33.73331s6.47162-2.38848,5.73562-8.84711l-18.75233-84.41509Z" fill="url(#uuid-7fbc6e1d-e9eb-4bef-bf26-7459b3e40ea2)"/><path d="M175.42186,46.7242s-1.3313-9.11003-9.76144-7.97506L15.18208,72.10912s-6.16206.4557-7.10382,7.03843c0,0,.03693,1.22096,1.43938,7.45444l18.36192,81.61662s1.71904,6.87133,10.16465,5.51012l150.39243-33.7419s6.47331-2.38886,5.73749-8.84753l-18.75228-84.4151Z" fill="url(#uuid-cdae9e1e-91b1-4588-9153-666cf2837bc5)"/><path d="M175.40478,46.78651s-1.33113-9.11006-9.76337-7.97463L15.1249,72.18045s-6.15032.45258-7.09271,7.03553c0,0,.03952,1.22031,1.44198,7.4539l18.3622,81.61784s1.70294,6.87403,10.15067,5.51234l150.43061-33.75049s6.47501-2.38924,5.73935-8.84795l-18.75222-84.41511Z" fill="url(#uuid-77a0e328-bf5a-4941-a528-89ad75fc46b4)"/><path d="M175.38771,46.84882s-1.33095-9.1101-9.76529-7.97419L15.06772,72.25179s-6.13858.44945-7.0816,7.03264c0,0,.0421,1.21966,1.44459,7.45335l18.36247,81.61906s1.68684,6.87673,10.13668,5.51456l150.46879-33.75908s6.4767-2.38962,5.74122-8.84837l-18.75216-84.41513Z" fill="url(#uuid-24b0abd1-4864-4ab9-a107-2111c11fddda)"/><path d="M175.37063,46.91113s-1.33078-9.11014-9.76722-7.97376L15.01054,72.32312s-6.12685.44633-7.0705,7.02974c0,0,.04468,1.21901,1.4472,7.4528l18.36274,81.62028s1.67074,6.87942,10.1227,5.51678l150.50696-33.76767s6.4784-2.39,5.74309-8.84879l-18.7521-84.41514Z" fill="url(#uuid-322642eb-0210-412c-a000-f9858e396a05)"/><path d="M175.35355,46.97344s-1.33061-9.11018-9.76914-7.97333L14.95336,72.39445s-6.11511.44321-7.05939,7.02685c0,0,.04727,1.21836,1.4498,7.45225l18.36301,81.62151s1.65464,6.88212,10.10871,5.519l150.54514-33.77626s6.48009-2.39038,5.74496-8.84921l-18.75205-84.41515Z" fill="url(#uuid-ab21d2ce-7c56-4c8d-8f2d-dfb219479c2c)"/><path d="M175.33648,47.03575s-1.33043-9.11022-9.77107-7.97289L14.89618,72.46578s-6.10338.44009-7.04828,7.02395c0,0,.04985,1.21771,1.45241,7.4517l18.36329,81.62273s1.63854,6.88482,10.09473,5.52123l150.58332-33.78485s6.48178-2.39076,5.74682-8.84963l-18.75199-84.41517Z" fill="url(#uuid-a2d94b3d-c742-42cf-b66d-0adcff1b26c0)"/><path d="M176.63195,57.23307c-.53448-.35406-1.18997-.52337-1.84178-.44776l-7.97523.91361h0c-.06909.00766-.13851.01966-.20782.03623-.90448.21599-1.46254,1.12433-1.24657,2.02882l.64322,2.69287c.01206.05421-.02162.1082-.07583.12113-.02455.00587-.0491.00231-.06996-.00831l.00043.00033c-5.64135-3.07265-11.83836-5.88355-18.48337-8.07583-1.27797-.47343-2.68901-.58619-4.11407-.24584v.00033l-.00369.0009-.00011-.00033c-1.42506.34035-2.63285,1.07857-3.55895,2.07841v.00003c-22.81438,22.91277-31.12953,53.28836-31.34582,54.89912h.00011c-.08006.38171-.07919.78673.01749,1.19125.29603,1.23943,1.39497,2.07713,2.61351,2.09321l8.06323-.35754c1.0972.0365,2.08881.73605,2.46414,1.79075.35827,1.24296,7.81489,26.94827,11.88007,36.75045l17.20736-3.8606c-.94457-3.07336-2.29271-7.51976-3.64379-12.15418-.04628-.1589-.10679-.35692-.15339-.51745v-.00003c-.16154-.54912-.58325-.95997-1.09677-1.1255-2.64371-.83175-4.82019-2.92792-5.64928-5.74778-2.95038-10.56403-6.09815-22.83507-7.81706-32.6149-.14524-.81339.35936-1.61364,1.1727-1.82295.85288-.21949,1.72228.29399,1.94183,1.1469.01043.04066.01923.08134.0264.122,1.15467,6.51699,2.93496,14.1226,4.86418,21.58533v-.00003c.25963,1.00896,1.2884,1.61688,2.29728,1.35722,1.00899-.25966,1.61636-1.28837,1.35673-2.29733-1.9415-7.51376-3.73026-15.16917-4.88004-21.71017-.14513-.81342.35947-1.61364,1.17281-1.82295.85288-.21949,1.72228.29396,1.94172,1.1469.01054.04063.01934.08131.02651.12197,1.14858,6.48261,2.91638,14.04286,4.83387,21.46765v.00003c.00043.00147.00076.00293.00119.0044.26126,1.0054,1.2872,1.61011,2.2938,1.35108,1.0041-.25841,1.61006-1.27908,1.35836-2.28332h0c-1.93086-7.47967-3.70821-15.09378-4.85256-21.60398-.14513-.81339.35947-1.61364,1.17281-1.82295.85288-.21949,1.72228.29396,1.94172,1.1469.01054.04063.01934.08131.02651.12197,1.68393,9.50423,4.69841,21.32374,7.56503,31.63878.00185.00652.0252.09014.02694.09666.01412.05225.02792.10475.04117.15749.00011.00019.00011.00038.00011.0006.00869.03403.01695.06817.0252.10239.67972,2.84612-.14818,5.69974-1.96801,7.72171-.32449.36161-.48385.85736-.39771,1.3696,0,0,.19022,1.64341,2.74648,9.21833.52731,1.53163.98335,2.84069,1.3589,3.91057l18.31847-4.10986c-1.04745-7.86101-1.87013-12.16738-1.87013-12.16738-.112-.46897-.55425-.7351-1.04169-.69498l-5.48709.53567c-.87504.05318-1.49773-.34527-1.82917-.93911-.20228-.35982-.26257-.80411-.26257-.80411-5.23397-31.44492,2.47435-44.30419,2.47435-44.30419.22802-.37848.3926-.54534.3926-.54534.2227-.2601.52666-.45469.88504-.54029.69156-.16518,1.38584.12449,1.76932.67494,0,0,.13525.19554.30917.71196,3.2022,9.51256,6.7241,26.16008,9.26233,39.19732,1.43744,7.38332,2.58048,13.72394,3.18253,17.12893l3.02751-.67923s6.45469-2.38467,5.71685-8.84292l-16.54752-74.48752Z" fill="url(#uuid-587b020b-83ad-4631-895b-15e2cf3a3430)"/><path d="M39.97268,126.17845l-1.97551-9.76373c-.09891-.48886.21726-.96533.70614-1.06415l13.83441-2.79635c.4885-.09874.96463.21696,1.06382.70537l1.92755,9.49115c.09795.48229-.20833.95419-.6887,1.06112l-13.78645,3.06893c-.49348.10985-.98099-.20682-1.08125-.70234Z" fill="#b9471e"/><path d="M38.92149,125.53124l-1.97551-9.76373c-.09891-.48886.21726-.96533.70614-1.06415l13.83441-2.79635c.4885-.09874.96463.21696,1.06382.70537l1.92755,9.49115c.09795.48229-.20833.95419-.6887,1.06112l-13.78645,3.06893c-.49348.10985-.98099-.20682-1.08125-.70234Z" fill="#fff"/><path d="M75.69293,101.94347c-.03961.01711-.07856.03689-.11656.05946-.49472.2915-.65925.92861-.36784,1.42313,2.06861,3.5105,3.30975,7.57905,3.58926,11.76576.25519,3.82339-.29245,7.67911-1.58403,11.15092-.19997.53798.07388,1.13656.61195,1.33674.53828.20009,1.13637-.07429,1.33673-.61195,1.39298-3.74522,1.98433-7.89964,1.7096-12.01434-.30088-4.50848-1.64007-8.89398-3.87255-12.6824-.26884-.45653-.83247-.63213-1.30656-.42731Z" fill="#b9471e"/><path d="M70.98548,105.03123c-.04915.02123-.0971.04638-.14368.07585-.48554.30648-.63072.94852-.32432,1.43386,1.67072,2.64706,2.66843,5.76305,2.88507,9.01074.1887,2.82244-.22047,5.65831-1.18284,8.20086-.20336.53698.06718,1.13699.60407,1.34015.5368.20295,1.13687-.06688,1.34013-.60407,1.0672-2.81942,1.52121-5.95767,1.31298-9.07536-.23951-3.5917-1.34655-7.04338-3.20124-9.98183-.27701-.43897-.82831-.59972-1.29017-.40019Z" fill="#b9471e"/><path d="M71.16081,115.70141c.15419,2.30849-.19373,4.63332-1.00593,6.72315-.20823.5354-.81065.80033-1.34545.59234-.5351-.20811-.80024-.81045-.59234-1.34546.70285-1.80805,1.00358-3.82456.86946-5.83139-.16585-2.48359-.97269-4.82512-2.33319-6.77119-.32907-.47062-.21432-1.11871.25617-1.44748.05897-.04123.12069-.07552.18436-.10303.4436-.19165.97557-.05232,1.26311.35921,1.57789,2.25673,2.51294,4.96223,2.7038,7.82385Z" fill="#b9471e"/><path d="M63.24102,109.97813c-.09187.03969-.17946.09328-.25966.16115-.43825.37095-.49273,1.02696-.12186,1.46501,1.07812,1.27365,1.73761,2.95852,1.85657,4.744.08653,1.29401-.11772,2.59109-.59057,3.75122-.21681.53148.03847,1.13832.57006,1.35484.53177.21693,1.13831-.03846,1.35483-.57006.59161-1.45089.84741-3.06728.74003-4.67443-.14849-2.2258-.98097-4.33845-2.34406-5.94871-.303-.35785-.79617-.4598-1.20534-.28302Z" fill="#b9471e"/><path d="M75.69293,101.94347c-.03961.01711-.07856.03689-.11656.05946-.49472.2915-.65925.92861-.36784,1.42313,2.06861,3.5105,3.30975,7.57905,3.58926,11.76576.25519,3.82339-.29245,7.67911-1.58403,11.15092-.19997.53798.07388,1.13656.61195,1.33674.53828.20009,1.13637-.07429,1.33673-.61195,1.39298-3.74522,1.98433-7.89964,1.7096-12.01434-.30088-4.50848-1.64007-8.89398-3.87255-12.6824-.26884-.45653-.83247-.63213-1.30656-.42731Z" fill="#b9471e"/><path d="M70.98548,105.03123c-.04915.02123-.0971.04638-.14368.07585-.48554.30648-.63072.94852-.32432,1.43386,1.67072,2.64706,2.66843,5.76305,2.88507,9.01074.1887,2.82244-.22047,5.65831-1.18284,8.20086-.20336.53698.06718,1.13699.60407,1.34015.5368.20295,1.13687-.06688,1.34013-.60407,1.0672-2.81942,1.52121-5.95767,1.31298-9.07536-.23951-3.5917-1.34655-7.04338-3.20124-9.98183-.27701-.43897-.82831-.59972-1.29017-.40019Z" fill="#b9471e"/><path d="M71.16081,115.70141c.15419,2.30849-.19373,4.63332-1.00593,6.72315-.20823.5354-.81065.80033-1.34545.59234-.5351-.20811-.80024-.81045-.59234-1.34546.70285-1.80805,1.00358-3.82456.86946-5.83139-.16585-2.48359-.97269-4.82512-2.33319-6.77119-.32907-.47062-.21432-1.11871.25617-1.44748.05897-.04123.12069-.07552.18436-.10303.4436-.19165.97557-.05232,1.26311.35921,1.57789,2.25673,2.51294,4.96223,2.7038,7.82385Z" fill="#b9471e"/><path d="M63.24102,109.97813c-.09187.03969-.17946.09328-.25966.16115-.43825.37095-.49273,1.02696-.12186,1.46501,1.07812,1.27365,1.73761,2.95852,1.85657,4.744.08653,1.29401-.11772,2.59109-.59057,3.75122-.21681.53148.03847,1.13832.57006,1.35484.53177.21693,1.13831-.03846,1.35483-.57006.59161-1.45089.84741-3.06728.74003-4.67443-.14849-2.2258-.98097-4.33845-2.34406-5.94871-.303-.35785-.79617-.4598-1.20534-.28302Z" fill="#b9471e"/><path d="M73.08291,100.69538c-.03829.0199-.07573.04241-.11201.06763-.47264.32609-.59145.97342-.26526,1.44576,2.31384,3.35339,3.84261,7.3228,4.42043,11.47936.52762,3.7954.25676,7.68039-.78356,11.23557-.16104.55089.15487,1.12838.70586,1.28962.55119.16114,1.12837-.15486,1.28961-.70586,1.12193-3.83514,1.41505-8.02119.84714-12.10576-.62233-4.47588-2.27123-8.75483-4.76847-12.37343-.30087-.43636-.87549-.57106-1.33375-.3329Z" fill="#fff"/><path d="M73.82947,114.1462c.43036,3.09486.20166,6.25752-.66145,9.14596-.16438.55034-.74364.86233-1.29357.69824-.55003-.16429-.86273-.74344-.69825-1.29358.77832-2.6048.9839-5.46264.5941-8.2644-.44804-3.22392-1.66575-6.2607-3.52127-8.78167-.34027-.46222-.24133-1.11298.22109-1.45336.04435-.03272.09039-.06123.1379-.08592.44642-.23201,1.0078-.11105,1.31546.30702,2.05983,2.79848,3.41057,6.16228,3.90599,9.7277Z" fill="#fff"/><path d="M69.54499,114.74187c.31888,2.29198.13789,4.63573-.52338,6.77793-.16925.5488-.75091.85618-1.29961.68662-.54849-.16916-.85598-.75102-.68662-1.29962.57182-1.85332.72756-3.88607.45055-5.87849-.34282-2.46591-1.31473-4.74363-2.81085-6.58726-.36174-.44571-.29357-1.10034.15214-1.46208.05588-.04533.11499-.08395.17653-.11593.42878-.22284.96914-.12176,1.28554.26808,1.73504,2.13777,2.86073,4.76968,3.25569,7.61076Z" fill="#fff"/><path d="M61.23686,109.59877c-.0888.04615-.17214.10576-.24748.17928-.41043.4012-.41822,1.05933-.01692,1.46997,1.16614,1.1935,1.94427,2.82696,2.19076,4.59949.17843,1.28443.06734,2.59278-.32145,3.78372-.1783.5456.11967,1.13267.66537,1.31066.54601.1786,1.13266-.11967,1.31065-.66537.48647-1.48944.62628-3.11977.40458-4.71525-.30739-2.2096-1.28853-4.25721-2.76304-5.7663-.32778-.3353-.82697-.40176-1.22248-.19621Z" fill="#fff"/><path d="M176.63195,57.23307c-.53448-.35406-1.18997-.52337-1.84178-.44776l-7.97523.91361h0c-.06909.00766-.13851.01966-.20782.03623-.90448.21599-1.46254,1.12433-1.24657,2.02882l.64322,2.69287c.01206.05421-.02162.1082-.07583.12113-.02455.00587-.0491.00231-.06996-.00831l.00043.00033c-5.64135-3.07265-11.83836-5.88355-18.48337-8.07583-1.27797-.47343-2.68901-.58619-4.11407-.24584v.00033l-.00369.0009-.00011-.00033c-1.42506.34035-2.63285,1.07857-3.55895,2.07841v.00003c-22.81438,22.91277-31.12953,53.28836-31.34582,54.89912h.00011c-.08006.38171-.07919.78673.01749,1.19125.29603,1.23943,1.39497,2.07713,2.61351,2.09321l8.06323-.35754c1.0972.0365,2.08881.73605,2.46414,1.79075.35827,1.24296,7.81489,26.94827,11.88007,36.75045l17.20736-3.8606c-.94457-3.07336-2.29271-7.51976-3.64379-12.15418-.04628-.1589-.10679-.35692-.15339-.51745v-.00003c-.16154-.54912-.58325-.95997-1.09677-1.1255-2.64371-.83175-4.82019-2.92792-5.64928-5.74778-2.95038-10.56403-6.09815-22.83507-7.81706-32.6149-.14524-.81339.35936-1.61364,1.1727-1.82295.85288-.21949,1.72228.29399,1.94183,1.1469.01043.04066.01923.08134.0264.122,1.15467,6.51699,2.93496,14.1226,4.86418,21.58533v-.00003c.25963,1.00896,1.2884,1.61688,2.29728,1.35722,1.00899-.25966,1.61636-1.28837,1.35673-2.29733-1.9415-7.51376-3.73026-15.16917-4.88004-21.71017-.14513-.81342.35947-1.61364,1.17281-1.82295.85288-.21949,1.72228.29396,1.94172,1.1469.01054.04063.01934.08131.02651.12197,1.14858,6.48261,2.91638,14.04286,4.83387,21.46765v.00003c.00043.00147.00076.00293.00119.0044.26126,1.0054,1.2872,1.61011,2.2938,1.35108,1.0041-.25841,1.61006-1.27908,1.35836-2.28332h0c-1.93086-7.47967-3.70821-15.09378-4.85256-21.60398-.14513-.81339.35947-1.61364,1.17281-1.82295.85288-.21949,1.72228.29396,1.94172,1.1469.01054.04063.01934.08131.02651.12197,1.68393,9.50423,4.69841,21.32374,7.56503,31.63878.00185.00652.0252.09014.02694.09666.01412.05225.02792.10475.04117.15749.00011.00019.00011.00038.00011.0006.00869.03403.01695.06817.0252.10239.67972,2.84612-.14818,5.69974-1.96801,7.72171-.32449.36161-.48385.85736-.39771,1.3696,0,0,.19022,1.64341,2.74648,9.21833.52731,1.53163.98335,2.84069,1.3589,3.91057l18.31847-4.10986c-1.04745-7.86101-1.87013-12.16738-1.87013-12.16738-.112-.46897-.55425-.7351-1.04169-.69498l-5.48709.53567c-.87504.05318-1.49773-.34527-1.82917-.93911-.20228-.35982-.26257-.80411-.26257-.80411-5.23397-31.44492,2.47435-44.30419,2.47435-44.30419.22802-.37848.3926-.54534.3926-.54534.2227-.2601.52666-.45469.88504-.54029.69156-.16518,1.38584.12449,1.76932.67494,0,0,.13525.19554.30917.71196,3.2022,9.51256,6.7241,26.16008,9.26233,39.19732,1.43744,7.38332,2.58048,13.72394,3.18253,17.12893l3.02751-.67923s6.45469-2.38467,5.71685-8.84292l-16.54752-74.48752Z" fill="#ffefe1" opacity=".29"/></g><g id="uuid-8070e40a-51f2-430c-8642-3d969334e3be"><ellipse cx="57.33218" cy="181.59137" rx="37.02248" ry="5.35034" fill="#090909" opacity=".07"/></g></svg>