<svg xmlns="http://www.w3.org/2000/svg" width="200" height="200" xmlns:xlink="http://www.w3.org/1999/xlink"><defs><linearGradient id="m" x1="135.657" y1="151.868" x2="179.891" y2="127.98" xlink:href="#a"/><linearGradient id="e" x1="77.434" y1="153.64" x2="39.934" y2="137.819" gradientUnits="userSpaceOnUse"><stop offset=".19" stop-color="#c64528"/><stop offset=".433" stop-color="#eb6b0d"/><stop offset=".592" stop-color="#ff8000"/><stop offset=".641" stop-color="#fe8103"/><stop offset=".679" stop-color="#fc870d"/><stop offset=".715" stop-color="#f9911d"/><stop offset=".749" stop-color="#f49f35"/><stop offset=".78" stop-color="#eeb153"/><stop offset=".806" stop-color="#e9c372"/></linearGradient><linearGradient id="d" x1="72.396" y1="42.01" x2="46.543" y2="10.791" gradientUnits="userSpaceOnUse"><stop offset=".372" stop-color="#f75e28"/><stop offset=".644" stop-color="#fa6e14"/><stop offset=".981" stop-color="#ff8000"/></linearGradient><linearGradient id="g" x1="105.08" y1="171.625" x2="102.153" y2="-18.617" gradientUnits="userSpaceOnUse"><stop offset=".19" stop-color="#f75e28"/><stop offset=".369" stop-color="#fa6e14"/><stop offset=".592" stop-color="#ff8000"/><stop offset=".648" stop-color="#fe8103"/><stop offset=".693" stop-color="#fc870d"/><stop offset=".734" stop-color="#f9911d"/><stop offset=".773" stop-color="#f49f35"/><stop offset=".809" stop-color="#eeb153"/><stop offset=".839" stop-color="#e9c372"/></linearGradient><linearGradient id="t" x1="147.061" y1="88.951" x2="188.036" y2="88.464" gradientUnits="userSpaceOnUse"><stop offset=".25" stop-color="#9a8962" stop-opacity="0"/><stop offset=".314" stop-color="#a49572" stop-opacity=".103"/><stop offset=".565" stop-color="#cac1ad" stop-opacity=".482"/><stop offset=".768" stop-color="#e6e2d9" stop-opacity=".761"/><stop offset=".913" stop-color="#f8f7f4" stop-opacity=".934"/><stop offset=".986" stop-color="#fff"/></linearGradient><linearGradient id="i" x1="117.298" y1="30.232" x2="81.079" y2="29.5" gradientUnits="userSpaceOnUse"><stop offset=".052" stop-color="#f75e28"/><stop offset=".455" stop-color="#ff8000"/><stop offset=".698" stop-color="#fb6f13"/><stop offset="1" stop-color="#f75e28"/></linearGradient><linearGradient id="j" x1="107.726" y1="52.796" x2="130.084" y2="56.048" gradientUnits="userSpaceOnUse"><stop offset=".02" stop-color="#e5683b"/><stop offset=".315" stop-color="#e87238"/><stop offset=".979" stop-color="#ef8733"/></linearGradient><linearGradient id="k" x1="117.612" y1="33.107" x2="88.283" y2="31.4" gradientUnits="userSpaceOnUse"><stop offset=".014" stop-color="#ff8000"/><stop offset=".356" stop-color="#fbb56f"/><stop offset=".659" stop-color="#f8e1cb"/><stop offset=".795" stop-color="#f7f3f0"/><stop offset=".9" stop-color="#f8f5f3"/><stop offset=".984" stop-color="#fefdfd"/><stop offset=".995" stop-color="#fff"/></linearGradient><linearGradient id="l" x1="96.576" y1="13.905" x2="93.405" y2="73.661" gradientUnits="userSpaceOnUse"><stop offset=".087" stop-color="#f5f3ef"/><stop offset=".316" stop-color="#f8c999"/><stop offset=".553" stop-color="#fca247"/><stop offset=".722" stop-color="#fe8913"/><stop offset=".804" stop-color="#ff8000"/></linearGradient><linearGradient id="a" x1="117.003" y1="145.425" x2="76.516" y2="166.888" gradientUnits="userSpaceOnUse"><stop offset=".19" stop-color="#f75e28"/><stop offset=".369" stop-color="#fa6e14"/><stop offset=".592" stop-color="#ff8000"/><stop offset=".641" stop-color="#fe8103"/><stop offset=".679" stop-color="#fc870d"/><stop offset=".715" stop-color="#f9911d"/><stop offset=".749" stop-color="#f49f35"/><stop offset=".78" stop-color="#eeb153"/><stop offset=".806" stop-color="#e9c372"/></linearGradient><linearGradient id="f" x1="39.756" y1="15.848" x2="58.049" y2="50.238" gradientUnits="userSpaceOnUse"><stop offset=".085" stop-color="#f3e0c8"/><stop offset=".11" stop-color="#f3dac1"/><stop offset=".45" stop-color="#f5986f"/><stop offset=".69" stop-color="#f66e3b"/><stop offset=".807" stop-color="#f75e28"/></linearGradient><linearGradient id="n" x1="15.786" y1="86.294" x2="66.273" y2="115.562" gradientUnits="userSpaceOnUse"><stop offset=".087" stop-color="#fff"/><stop offset=".111" stop-color="#ffecd9"/><stop offset=".147" stop-color="#ffd3a6"/><stop offset=".185" stop-color="#ffbc7a"/><stop offset=".224" stop-color="#ffaa54"/><stop offset=".264" stop-color="#ff9a35"/><stop offset=".307" stop-color="#ff8e1e"/><stop offset=".351" stop-color="#ff860d"/><stop offset=".4" stop-color="#ff8103"/><stop offset=".461" stop-color="#ff8000"/><stop offset=".715" stop-color="#fa6e14"/><stop offset=".919" stop-color="#f75e28"/></linearGradient><linearGradient id="o" x1="51.102" y1="74.497" x2="45.98" y2="125.716" gradientUnits="userSpaceOnUse"><stop offset="0" stop-color="#ff8000"/><stop offset=".109" stop-color="#eb6b0d"/><stop offset=".259" stop-color="#d6561c"/><stop offset=".405" stop-color="#ca4925"/><stop offset=".542" stop-color="#c64528"/><stop offset=".662" stop-color="#c94825"/><stop offset=".768" stop-color="#d3531e"/><stop offset=".867" stop-color="#e46412"/><stop offset=".962" stop-color="#fd7d01"/><stop offset=".969" stop-color="#ff8000"/></linearGradient><linearGradient id="b" x1="105.096" y1="20.13" x2="59.974" y2="84.764" gradientUnits="userSpaceOnUse"><stop offset=".008" stop-color="#ff8000"/><stop offset=".353" stop-color="#fbb56f"/><stop offset=".658" stop-color="#f8e1cb"/><stop offset=".795" stop-color="#f7f3f0"/><stop offset=".903" stop-color="#f8f5f3"/><stop offset=".989" stop-color="#fefdfd"/><stop offset="1" stop-color="#fff"/></linearGradient><linearGradient id="p" x1="46.205" y1="17.542" x2="49.62" y2="47.541" xlink:href="#b"/><linearGradient id="c" x1="43.795" y1="117.921" x2="46.396" y2="87.84" gradientUnits="userSpaceOnUse"><stop offset=".217" stop-color="#c64528"/><stop offset=".446" stop-color="#eb6b0d"/><stop offset=".595" stop-color="#ff8000"/><stop offset=".739" stop-color="#f7b775"/><stop offset=".845" stop-color="#f2ddc5"/><stop offset=".893" stop-color="#f0ece5"/></linearGradient><linearGradient id="q" x1="115.95" y1="164.089" x2="95.584" y2="165.553" xlink:href="#c"/><linearGradient id="r" x1="146.216" y1="160.807" x2="167.191" y2="150.075" xlink:href="#c"/><linearGradient id="s" x1="104.97" y1="19.335" x2="116.189" y2="72.017" xlink:href="#d"/><linearGradient id="u" x1="147.061" y1="88.951" x2="188.036" y2="88.464" gradientUnits="userSpaceOnUse"><stop offset=".248" stop-color="#e97435" stop-opacity="0"/><stop offset=".313" stop-color="#eb8249" stop-opacity=".103"/><stop offset=".565" stop-color="#f3b796" stop-opacity=".482"/><stop offset=".768" stop-color="#f9ddce" stop-opacity=".761"/><stop offset=".913" stop-color="#fdf5f1" stop-opacity=".934"/><stop offset=".986" stop-color="#fff"/></linearGradient><radialGradient id="h" cx="40.429" cy="108.721" fx="40.429" fy="108.721" r="41.438" gradientUnits="userSpaceOnUse"><stop offset="0" stop-color="#433823"/><stop offset="0" stop-color="#573b23"/><stop offset="0" stop-color="#8e4526"/><stop offset="0" stop-color="#dd542a"/><stop offset=".137" stop-color="#dd542a" stop-opacity=".892"/><stop offset=".428" stop-color="#dd542a" stop-opacity=".614"/><stop offset=".844" stop-color="#dd542a" stop-opacity=".173"/><stop offset="1" stop-color="#dd542a" stop-opacity="0"/></radialGradient></defs><ellipse cx="106.875" cy="181.591" rx="48.625" ry="5.35" fill="#090909" opacity=".07"/><path d="M38.194 147.654c-.886 2.792 5.032 7.161 13.217 9.758 8.185 2.596 15.54 2.437 16.425-.356l7.26-18.749-28.901-12.805-8 22.152z" fill="url(#e)"/><path d="M47.334 47.269c.572-.597-1.349-15.945-2.84-27.165-.345-2.594 3.113-3.797 4.455-1.55L61.56 39.665 47.334 47.27z" fill="url(#f)"/><path fill="url(#d)" d="M61.56 39.666 48.95 18.553l24.318 13.768-11.707 7.345z"/><ellipse cx="103.816" cy="89.466" rx="73.719" ry="65.67" fill="url(#g)"/><path d="M46.13 121.844c7.101 0 13.771-9.828 13.771-21.951S41.343 83.206 42.803 77.942c40.593 4.208 45.723 28.523 43.02 43.902-3.1 17.634-12.686 38.155-39.694 0z" fill="url(#h)"/><path d="M83.844 33.145a2.16 2.16 0 0 1-.523-4.255 84.53 84.53 0 0 1 20.495-2.502c4.891 0 9.785.418 14.545 1.244a2.16 2.16 0 1 1-.738 4.256 81.004 81.004 0 0 0-13.807-1.181c-6.607 0-13.15.798-19.447 2.373a2.157 2.157 0 0 1-.525.065z" fill="url(#i)"/><path d="m110.211 59.304 4.025-11.707 17.655 5.266c2.152.642 1.875 3.773-.356 4.028l-20.976 2.393" fill="url(#j)"/><path d="M84.37 33.08c6.313-1.58 12.821-2.59 19.446-2.59 4.656 0 9.277.612 13.807 1.398-4.505-.782-9.175-.965-13.807-.965-6.59 0-13.167.587-19.447 2.157z" fill="url(#k)"/><path d="m78.39 54.162 22.056-32.469c1.733-2.767 5.977-1.862 6.43 1.372l3.342 36.219-31.829-5.122z" fill="url(#l)"/><ellipse cx="98.82" cy="166.966" rx="15.488" ry="3.415" transform="rotate(-5.386 98.82 166.966)" fill="#c64528"/><ellipse cx="161.388" cy="154.27" rx="15.325" ry="3.415" transform="rotate(-20.692 161.389 154.27)" fill="#c64528"/><path d="M114.24 165.512c-.178-1.878-7.225-2.749-15.74-1.946s-15.276 2.976-15.1 4.853l-1.292-23.118s13.364-6.341 29-2.195l3.131 22.406z" fill="url(#a)"/><path d="M175.725 148.855c-.853-1.464-6.849-1.036-14.488 1.835-8.007 3.01-14.23 7.007-14.276 8.756l-7.027-12.72s-3.283-12.756 6.87-19.394c11.19-7.317 16.453.134 16.453.134l12.468 21.39z" fill="url(#m)"/><ellipse cx="39.243" cy="99.893" rx="13.772" ry="21.951" fill="url(#n)"/><path d="M46.13 121.844c7.605 0 13.771-9.828 13.771-21.951S53.735 77.942 46.13 77.942h-6.886c7.606 0 13.772 9.828 13.772 21.951s-6.166 21.951-13.772 21.951h7.606" fill="url(#o)"/><path d="m79.324 54.283-1.113-.243 22.056-32.468c.847-1.353 2.349-1.99 3.919-1.655 1.568.335 2.467 1.56 2.69 3.148-.236-1.678-1.694-2.493-2.78-2.725-1.088-.232-2.568.032-3.467 1.468L79.324 54.283z" fill="url(#b)"/><path d="m47.828 46.743-.494.526-.334.35c.168-.334.387-4.114-2.72-27.487-.195-1.464.732-2.472 1.737-2.822 1.006-.351 2.173-.025 2.932 1.243-.676-1.132-2.01-1.107-2.79-.835-.778.27-1.624 1.05-1.45 2.357 3.53 26.56 3.324 26.454 3.12 26.668z" fill="url(#p)"/><path d="M39.243 121.844c7.475 0 13.124-9.966 13.124-21.95s-5.649-21.952-13.124-21.952c7.714 0 13.988 9.728 13.988 21.951s-6.274 21.951-13.988 21.951z" fill="url(#c)"/><path d="M83.4 168.44c-.122-1.307 2.131-2.383 4.224-3.056 2.867-.921 6.722-1.643 10.855-2.033 4.134-.39 8.056-.4 11.044-.032 2.182.27 4.593.866 4.716 2.173v.04c-.072-.773-1.99-1.44-4.769-1.784-2.958-.366-6.847-.354-10.95.033-4.104.387-7.926 1.102-10.764 2.014-2.666.857-4.428 1.83-4.355 2.604v.04z" fill="url(#q)"/><path d="M146.961 159.446c.052-1.969 6.302-5.99 14.2-8.958 7.252-2.725 13.546-3.381 14.564-1.633-.773-1.326-6.992-.751-14.413 2.037-8.04 3.022-14.31 7.006-14.35 8.554z" fill="url(#r)"/><path fill="url(#s)" d="m110.218 59.284-3.343-36.22 7.368 24.512-4.025 11.708z"/><ellipse cx="103.816" cy="89.466" rx="73.719" ry="65.67" fill="url(#t)"/><ellipse cx="103.816" cy="89.466" rx="73.719" ry="65.67" fill="url(#u)"/><ellipse cx="67.762" cy="76.407" rx="4.507" ry="2.57" transform="rotate(-67.789 67.762 76.407)" fill="#c64528"/><ellipse cx="47.333" cy="67.507" rx="4.409" ry="2.514" transform="rotate(-67.789 47.333 67.507)" fill="#c64528"/></svg>