<?xml version="1.0" encoding="UTF-8"?><svg xmlns="http://www.w3.org/2000/svg" width="200" height="200" xmlns:xlink="http://www.w3.org/1999/xlink" viewBox="0 0 200 200"><defs><linearGradient id="uuid-701acd46-5b9b-4ac5-b803-e2f923842658" x1="35.30542" y1="113.77824" x2="169.01854" y2="113.77824" gradientUnits="userSpaceOnUse"><stop offset=".01891" stop-color="#f6c243"/><stop offset=".02365" stop-color="#f5bb41"/><stop offset=".05131" stop-color="#f19b3b"/><stop offset=".0814" stop-color="#ee8136"/><stop offset=".11431" stop-color="#eb6d32"/><stop offset=".15151" stop-color="#ea5e2f"/><stop offset=".19656" stop-color="#e9562d"/><stop offset=".27118" stop-color="#e9542d"/><stop offset=".35267" stop-color="#e6532c"/><stop offset=".39426" stop-color="#de4f2b"/><stop offset=".42673" stop-color="#d14a29"/><stop offset=".44543" stop-color="#c64528"/><stop offset=".50958" stop-color="#c84528"/><stop offset=".54232" stop-color="#d04929"/><stop offset=".56788" stop-color="#dd4e2b"/><stop offset=".5826" stop-color="#e9542d"/><stop offset=".7499" stop-color="#e9562c"/><stop offset=".8353" stop-color="#ec5e29"/><stop offset=".90216" stop-color="#f16b25"/><stop offset=".95905" stop-color="#f87e1f"/><stop offset="1" stop-color="#ff911a"/></linearGradient><linearGradient id="uuid-43e5c032-d104-4c87-b07d-aabf0866d021" x1="133.23636" y1="129.01247" x2="39.28887" y2="88.22388" gradientUnits="userSpaceOnUse"><stop offset=".3988" stop-color="#ff7300"/><stop offset=".4881" stop-color="#fe7b09"/><stop offset=".6344" stop-color="#fd9022"/><stop offset=".8184" stop-color="#fab349"/><stop offset=".9457" stop-color="#f8ce69"/></linearGradient><linearGradient id="uuid-a8c7ead2-5381-4192-97ca-043899d12d98" x1="-9411.4615" y1="49.9132" x2="-9356.85078" y2="49.9132" gradientTransform="translate(-9341.43405) rotate(-180) scale(1 -1)" xlink:href="#uuid-701acd46-5b9b-4ac5-b803-e2f923842658"/><linearGradient id="uuid-4cb4f1a9-3656-42e5-af36-890664e6768b" x1="68.4695" y1="59.80211" x2="21.46543" y2="39.39465" xlink:href="#uuid-43e5c032-d104-4c87-b07d-aabf0866d021"/><radialGradient id="uuid-6f1c6a55-c696-4e9e-ba48-810f9ef94614" cx="-557.7944" cy="777.83344" fx="-557.7944" fy="777.83344" r="1.04939" gradientTransform="translate(1573.27741 28921.27835) rotate(-.49274) scale(2.16346 -37.1053)" gradientUnits="userSpaceOnUse"><stop offset="0" stop-color="#fdf2ef" stop-opacity=".7"/><stop offset=".2935" stop-color="#fff" stop-opacity="0"/></radialGradient><radialGradient id="uuid-47bec149-6d62-4b99-be70-9f5114a82109" cx="-2442.72163" cy="791.59857" fx="-2442.72163" fy="791.59857" r="1.04939" gradientTransform="translate(-31201.37373 25545.17769) rotate(58.46074) scale(2.16349 -50.54866) skewX(-.0679)" xlink:href="#uuid-6f1c6a55-c696-4e9e-ba48-810f9ef94614"/><radialGradient id="uuid-4d459fdc-504f-48d1-a207-cc6d607599bf" cx="-552.22843" cy="762.72466" fx="-552.22843" fy="762.72466" r="1.04938" gradientTransform="translate(-5525.66756 38301.36684) rotate(10.18359) scale(2.16347 -50.54846) skewX(-.07286)" xlink:href="#uuid-6f1c6a55-c696-4e9e-ba48-810f9ef94614"/><radialGradient id="uuid-2cec73e3-737f-48e4-98cc-107ce6914450" cx="-2825.05255" cy="794.98884" fx="-2825.05255" fy="794.98884" r="1.04932" gradientTransform="translate(-33639.74251 22887.89224) rotate(64.6446) scale(2.16353 -50.55315) skewX(-.14446)" xlink:href="#uuid-6f1c6a55-c696-4e9e-ba48-810f9ef94614"/><linearGradient id="uuid-ec631251-57af-4a01-b574-2c9c0c78092f" x1="426.39174" y1="1009.45216" x2="464.03563" y2="1009.45216" gradientTransform="translate(-570.06926 -848.1006) rotate(-13.61857)" xlink:href="#uuid-701acd46-5b9b-4ac5-b803-e2f923842658"/><linearGradient id="uuid-4ede326e-67b0-40a9-b86b-896ad8614228" x1="453.96197" y1="1013.74101" x2="427.51319" y2="1002.25791" gradientTransform="translate(-570.06926 -848.1006) rotate(-13.61857)" xlink:href="#uuid-43e5c032-d104-4c87-b07d-aabf0866d021"/><linearGradient id="uuid-0a8b4276-af7c-4d82-95de-997cbc6fd25b" x1="426.64025" y1="1007.71081" x2="460.76153" y2="1007.71081" gradientTransform="translate(-570.06926 -848.1006) rotate(-13.61857)" gradientUnits="userSpaceOnUse"><stop offset="0" stop-color="#ff8000"/><stop offset=".04235" stop-color="#fe7e02"/><stop offset=".66825" stop-color="#f06327"/><stop offset=".99953" stop-color="#ec5a36"/></linearGradient><radialGradient id="uuid-bde48fa1-4ea9-4d06-87ee-7c88e22ed9fb" cx="-2032.35972" cy="919.36853" fx="-2032.35972" fy="919.36853" r="1.04924" gradientTransform="translate(-13260.73596 15300.557) rotate(49.74346) scale(1.4903 -21.754) skewX(.04496)" xlink:href="#uuid-6f1c6a55-c696-4e9e-ba48-810f9ef94614"/><radialGradient id="uuid-1ee4e1ef-3347-425e-ba16-dca7eb3275ce" cx="-2034.95219" cy="920.61352" fx="-2034.95219" fy="920.61352" r="1.04924" gradientTransform="translate(-9902.58024 17657.20145) rotate(38.01353) scale(1.49597 -21.74011) skewX(2.12514)" xlink:href="#uuid-6f1c6a55-c696-4e9e-ba48-810f9ef94614"/><radialGradient id="uuid-5a4a6327-2891-47f0-aba2-909d57e33467" cx="-2443.49624" cy="785.60003" fx="-2443.49624" fy="785.60003" r=".19691" gradientTransform="translate(-46485.12667 52340.84919) rotate(46.02157) scale(2.16326 -88.92176) skewX(-.23138)" xlink:href="#uuid-6f1c6a55-c696-4e9e-ba48-810f9ef94614"/><radialGradient id="uuid-c2f9aff8-8b82-4c79-b1a6-8236be9d5e39" cx="-2443.69292" cy="785.32595" fx="-2443.69292" fy="785.32595" r=".19691" gradientTransform="translate(-50830.21446 48093.28544) rotate(50.55137) scale(2.18164 -88.94714) skewX(18.69877)" xlink:href="#uuid-6f1c6a55-c696-4e9e-ba48-810f9ef94614"/></defs><g id="uuid-4cc5dbc2-f4fb-4f63-98af-f39d0107ab13"><ellipse cx="78.59143" cy="181.59137" rx="37.02248" ry="5.35034" fill="#090909" opacity=".07"/></g><g id="uuid-cf7a72e7-d3ef-4d44-9bf1-353cb7522f13"><path d="M168.37459,109.87083c1.09716,1.67098.8489,4.14788-1.18294,5.39561l-34.74179,21.33524c-.93709.57548-1.58133,1.52623-1.76851,2.60985l-6.08902,35.25239c-.49899,2.88891-3.92774,4.16699-6.19598,2.30961l-22.377-18.32395c-1.12084-.91784-2.66384-1.12411-3.98643-.53296l-33.74377,15.08274c-1.42565.63722-2.83271.35182-3.85458-.42641-.01195-.0089-.02298-.01891-.0348-.02792-.01197-.00886-.02306-.01891-.03492-.02792l-17.35675-13.89481c-.01203-.00894-.02314-.01899-.03506-.02804-1.56313-1.16256-2.28972-3.41836-1.01338-5.41288l19.97814-31.21942c.8893-1.38969.83814-3.18194-.12898-4.51861l-17.06121-23.5811c-1.8651-2.57786-.13447-6.19753,3.04296-6.36443l39.36621-2.06768c1.10201-.05792,2.13162-.5667,2.84703-1.40688l27.83527-32.69104c1.79911-2.11295,4.84835-1.71303,6.28274.18983.00947.01221.01785.02545.02718.03781l13.60109,18.92751c.00953.01233.78013,1.38662.80566,2.26337l.45433,15.59727,20.6601,2.67898c1.29072.16737,2.26264.86052,2.85134,1.77872l11.85308,17.06514Z" fill="url(#uuid-701acd46-5b9b-4ac5-b803-e2f923842658)"/><path d="M111.83907,51.3322l-27.83527,32.69103c-.7154.8402-1.74502,1.349-2.84701,1.40688l-39.36622,2.06771c-3.17742.16689-4.90807,3.78656-3.04297,6.3644l17.06122,23.58111c.96713,1.33671,1.01828,3.12893.12898,4.51863l-19.97813,31.21943c-2.1493,3.35867,1.38096,7.4581,5.02135,5.83093l35.40825-15.82671c1.38782-.62032,3.00694-.40386,4.18307.55924l23.48079,19.22781c2.38012,1.94902,5.978.60786,6.50161-2.42355l6.38936-36.99124c.1964-1.13708.87244-2.13473,1.85575-2.73859l36.45549-22.38763c3.2264-1.98136,2.16964-6.9178-1.58514-7.40468l-30.40508-3.9426c-1.9575-.25383-3.44031-1.89258-3.49778-3.86563l-.85639-29.39999c-.10707-3.6757-4.6879-5.28638-7.07185-2.48656Z" fill="#ff8000"/><path d="M111.83907,51.3322l-27.83527,32.69103c-.7154.8402-1.74502,1.349-2.84701,1.40688l-39.36622,2.06771c-3.17742.16689-4.90807,3.78656-3.04297,6.3644l17.06122,23.58111c.96713,1.33671,1.01828,3.12893.12898,4.51863l-19.97813,31.21943c-2.1493,3.35867,1.38096,7.4581,5.02135,5.83093l35.40825-15.82671c1.38782-.62032,3.00694-.40386,4.18307.55924l23.48079,19.22781c2.38012,1.94902,5.978.60786,6.50161-2.42355l6.38936-36.99124c.1964-1.13708.87244-2.13473,1.85575-2.73859l36.45549-22.38763c3.2264-1.98136,2.16964-6.9178-1.58514-7.40468l-30.40508-3.9426c-1.9575-.25383-3.44031-1.89258-3.49778-3.86563l-.85639-29.39999c-.10707-3.6757-4.6879-5.28638-7.07185-2.48656Z" fill="url(#uuid-43e5c032-d104-4c87-b07d-aabf0866d021)"/><path d="M15.67972,48.31735c-.4481.68246-.3467,1.69407.48313,2.20366l14.18914,8.71368c.38272.23503.64584.62334.72229,1.06591l2.48686,14.39768c.2038,1.17988,1.60416,1.70187,2.53054.94328l9.13915-7.48381c.45777-.37486,1.08796-.45911,1.62813-.21767l13.78153,6.16005c.58226.26025,1.15693.14369,1.57428-.17415.00488-.00363.00938-.00772.01421-.0114.00489-.00362.00942-.00772.01426-.0114l7.08879-5.67488c.00491-.00365.00945-.00775.01432-.01145.63841-.47481.93516-1.39612.41388-2.21071l-8.15941-12.75055c-.36321-.56757-.34231-1.29956.05268-1.84548l6.96809-9.63093c.76174-1.05284.05492-2.53118-1.2428-2.59934l-16.07783-.84448c-.45008-.02365-.87059-.23145-1.16277-.57459l-11.3684-13.35158c-.73479-.86297-1.98015-.69963-2.56598.07753-.00387.00499-.00729.01039-.0111.01544l-5.55492,7.73032c-.00389.00503-.31862.56632-.32904.9244l-.18556,6.37019-8.43794,1.09414c-.52715.06836-.9241.35145-1.16453.72646l-4.841,6.96969Z" fill="url(#uuid-a8c7ead2-5381-4192-97ca-043899d12d98)"/><path d="M38.76979,24.40917l11.3684,13.35157c.29218.34315.7127.55095,1.16277.57459l16.07784.84449c1.29771.06816,2.00454,1.54649,1.2428,2.59933l-6.96809,9.63093c-.39499.54594-.41588,1.27791-.05268,1.84549l8.15941,12.75055c.87781,1.37174-.56401,3.04602-2.05081,2.38145l-14.46133-6.4639c-.56681-.25335-1.22809-.16494-1.70844.2284l-9.58995,7.85297c-.97208.79601-2.44152.24826-2.65537-.98982l-2.60952-15.10786c-.08021-.4644-.35632-.87186-.75792-1.11849l-14.88904-9.14349c-1.31772-.80922-.88612-2.82535.6474-3.0242l12.41795-1.61022c.79947-.10367,1.40508-.77296,1.42855-1.57879l.34976-12.00746c.04373-1.50122,1.91462-2.15905,2.88827-1.01555Z" fill="#ff8000"/><path d="M38.76979,24.40917l11.3684,13.35157c.29218.34315.7127.55095,1.16277.57459l16.07784.84449c1.29771.06816,2.00454,1.54649,1.2428,2.59933l-6.96809,9.63093c-.39499.54594-.41588,1.27791-.05268,1.84549l8.15941,12.75055c.87781,1.37174-.56401,3.04602-2.05081,2.38145l-14.46133-6.4639c-.56681-.25335-1.22809-.16494-1.70844.2284l-9.58995,7.85297c-.97208.79601-2.44152.24826-2.65537-.98982l-2.60952-15.10786c-.08021-.4644-.35632-.87186-.75792-1.11849l-14.88904-9.14349c-1.31772-.80922-.88612-2.82535.6474-3.0242l12.41795-1.61022c.79947-.10367,1.40508-.77296,1.42855-1.57879l.34976-12.00746c.04373-1.50122,1.91462-2.15905,2.88827-1.01555Z" fill="url(#uuid-4cb4f1a9-3656-42e5-af36-890664e6768b)"/><polygon points="115.61391 58.27811 119.2077 58.24722 121.42051 83.68048 117.82672 83.71137 115.61391 58.27811" fill="url(#uuid-6f1c6a55-c696-4e9e-ba48-810f9ef94614)"/><polygon points="149.91036 97.09604 151.79032 100.15911 123.28381 119.9967 121.40386 116.93364 149.91036 97.09604" fill="url(#uuid-47bec149-6d62-4b99-be70-9f5114a82109)"/><polygon points="113.2326 125.03038 116.7699 125.66579 112.60436 160.14462 109.06706 159.5092 113.2326 125.03038" fill="url(#uuid-4d459fdc-504f-48d1-a207-cc6d607599bf)"/><polygon points="73.2017 140.43027 74.74074 143.67809 44.26112 160.33235 42.72208 157.08453 73.2017 140.43027" fill="url(#uuid-2cec73e3-737f-48e4-98cc-107ce6914450)"/><path d="M118.16686,22.68382c.41096.38447.50722,1.07864.03399,1.55472l-8.09152,8.14053c-.21825.21957-.3315.52242-.31089.83132l.67076,10.04911c.05497.82352-.79846,1.4005-1.5422,1.04265l-7.33727-3.53034c-.36752-.17684-.80337-.13099-1.12607.11843l-8.23291,6.36361c-.34783.26886-.75174.28404-1.08293.13884-.00386-.00164-.00754-.00365-.01137-.00533-.00386-.00163-.00756-.00364-.01141-.00532l-5.67007-2.65125c-.00388-.00165-.00759-.00366-.01145-.00535-.50475-.21447-.85309-.78352-.63608-1.41386l3.39681-9.86632c.15121-.43919.0184-.92617-.33482-1.2278l-6.23128-5.32113c-.68119-.5817-.44761-1.68681.41071-1.9431l10.63401-3.17523c.29768-.0889.54567-.29636.68572-.57366l5.44907-10.7898c.3522-.69739,1.21302-.79009,1.73162-.36453.0034.00271.00657.00578.00994.00854l4.97608,4.27721c.00343.00274.30537.32768.37047.56588l1.15821,4.23748,5.83044-.63651c.36425-.03976.67613.08546.89807.29767l4.37435,3.88352Z" fill="url(#uuid-ec631251-57af-4a01-b574-2c9c0c78092f)"/><path d="M98.81768,10.41455l-5.44907,10.78979c-.14005.27731-.38804.48478-.68572.57366l-10.63401,3.17524c-.85832.25629-1.09191,1.36139-.41071,1.94309l6.23129,5.32113c.35322.30163.48602.78861.33482,1.2278l-3.39681,9.86632c-.36544,1.06145.87222,1.94909,1.76042,1.26256l8.63902-6.67751c.3386-.26172.79596-.30982,1.18161-.12427l7.69919,3.70448c.78042.3755,1.67595-.22995,1.61827-1.09409l-.70385-10.54479c-.02164-.32414.0972-.64192.32622-.87232l8.49065-8.54207c.75144-.75599.13508-2.03661-.92455-1.92093l-8.58054.93674c-.55242.06031-1.06676-.28978-1.21328-.82582l-2.18317-7.98742c-.27295-.99862-1.63309-1.13567-2.09977-.21158Z" fill="#ff8000"/><path d="M98.81768,10.41455l-5.44907,10.78979c-.14005.27731-.38804.48478-.68572.57366l-10.63401,3.17524c-.85832.25629-1.09191,1.36139-.41071,1.94309l6.23129,5.32113c.35322.30163.48602.78861.33482,1.2278l-3.39681,9.86632c-.36544,1.06145.87222,1.94909,1.76042,1.26256l8.63902-6.67751c.3386-.26172.79596-.30982,1.18161-.12427l7.69919,3.70448c.78042.3755,1.67595-.22995,1.61827-1.09409l-.70385-10.54479c-.02164-.32414.0972-.64192.32622-.87232l8.49065-8.54207c.75144-.75599.13508-2.03661-.92455-1.92093l-8.58054.93674c-.55242.06031-1.06676-.28978-1.21328-.82582l-2.18317-7.98742c-.27295-.99862-1.63309-1.13567-2.09977-.21158Z" fill="url(#uuid-4ede326e-67b0-40a9-b86b-896ad8614228)"/><path d="M85.18091,44.57988h0c.13028.09435.26116.15254.37759.1855.11676.03321.21878.0412.29966.04185l.05708-.00072c.01772-.001.03411-.00306.04929-.00436l.04173-.00401c.01258-.00171.02377-.00415.03379-.00584l.06006-.01092c.16007-.03764.3117-.11021.44403-.2086l.00045-.00033c.78622-.5911,1.57243-1.18221,2.35865-1.77331,1.17116-.88409,2.34233-1.76819,3.51349-2.65228.94741-.71788,1.89482-1.43576,2.84223-2.15364l.00041-.0003c.05521-.04043.11364-.07603.1751-.10563.06211-.02821.12658-.05069.19266-.06705.10294-.02353.20935-.0307.31408-.02127.11923.00987.23517.04516.3425.09635l.00048.00023c1.19289.58571,2.38578,1.17141,3.57866,1.75712,1.36415.66819,2.7283,1.33637,4.09245,2.00456l.00058.00027c.13349.06448.27889.10851.42817.12762.14937.01901.30201.01055.44907-.02036.31455-.06891.60026-.25104.79612-.50747.04988-.06343.09138-.13318.12944-.2045.03602-.07246.0673-.14753.09024-.22533.04703-.15526.06319-.31886.05449-.47861l-.00003-.00058c-.0382-.62772-.07639-1.25544-.11459-1.88316-.09095-1.46449-.1819-2.92899-.27285-4.39348-.08921-1.42364-.17843-2.84728-.26764-4.27092v-.00043c-.00736-.1196.0111-.24042.05364-.35215.04245-.11177.10883-.21405.19339-.29817l.00032-.00033c.41933-.42083.83867-.84166,1.258-1.2625.41727-.42288.83648-.84384,1.25217-1.26829,1.02957-1.04547,2.04848-2.10153,3.0651-3.15987.93976-.98209,1.87952-1.96418,2.81929-2.94627l.0004-.00043c.07285-.07829.1383-.16421.19111-.25808.0518-.09452.09035-.19588.11547-.29979.04947-.2088.03431-.42647-.02762-.62232-.0465-.14058-.1165-.27061-.20419-.38452-.0889-.11325-.1964-.20887-.31416-.28493-.23748-.15133-.52116-.20882-.79308-.17844l-.00055.00005-1.9261.20967c-.72934.07939-1.45868.15879-2.18802.23818-.72948.07816-1.45895.15631-2.18843.23447-.75955.08126-1.5191.16253-2.27865.24379l-.00055.00004c-.0329.00191-.06591.0026-.09872.00206-.03285-.00298-.06551-.00821-.09762-.01416-.01601-.00363-.03176-.00919-.04738-.01434-.01563-.00507-.03111-.01027-.04628-.0163-.03016-.01317-.05912-.02946-.08705-.04564-.02746-.01811-.05334-.0388-.07802-.0592-.02422-.0219-.04576-.04773-.06712-.07044-.02031-.02525-.03778-.05343-.0551-.07871-.01586-.02801-.03038-.05557-.04409-.08188-.01203-.02878-.02328-.05629-.03337-.08309l-.02349-.08229c-.00624-.02714-.01117-.05369-.01706-.07786-.00361-.02611-.00852-.04965-.01297-.07248-.00254-.02415-.00681-.04595-.011-.06708-.00208-.02235-.00644-.04256-.01064-.06245-.00244-.02075-.00692-.03999-.01218-.05881-.00302-.01975-.00771-.03859-.01415-.057l-.00013-.00046-.13666-.49434c-.19852-.70631-.41302-1.40825-.64378-2.10575-.2306-.69754-.47799-1.3905-.72601-2.08327-.1886-.52987-.37938-1.05914-.56393-1.59011-.18411-.5311-.36372-1.06342-.53722-1.59741l-.00018-.00054-.02195-.06271c-.00777-.02071-.01895-.04607-.03156-.07664-.01411-.03001-.0305-.06494-.0523-.10328-.04298-.07675-.1045-.16906-.19712-.26313-.09217-.09414-.22922-.16095-.39083-.23066v.00003c-.00057.00138-.00112.00277-.00168.00415l-.00166.00415-.00166.00415c-.00222.00554.00722-.01802.005-.01249l-.00499.01246s.00169-.00421-.00275.00686c.1573.05326.28174.14896.37132.23835.09029.09008.14689.18164.18424.25731.01924.03774.0322.07248.04397.10185.01038.02995.01839.05509.0243.07531l.0158.06121.00013.00053c.12224.54801.23836,1.09768.34999,1.64859.11119.55103.21615,1.10376.32328,1.65589.13884.72262.27831,1.44507.43458,2.16293.1561.7179.32847,1.43136.51682,2.14045l.13379.49513.00018.00061c.01398.04489.02971.08935.04711.1329.01968.04279.04205.08444.06542.12499.01228.02.02641.03903.04026.05798.0138.01899.02775.03776.04254.05582.0305.03555.06407.06856.09763.10024.03516.03053.07271.05828.11.0846.03848.02532.08015.04632.11928.06778.04102.0196.0843.03497.12514.05081.04281.01347.08518.02536.12638.03645.04289.00861.08471.01644.12569.02292.04215.00448.08368.00708.12322.01076l.11837.003c.03909-.00158.07652-.00162.11321-.00239.14777-.00639.28185-.01987.41527-.03421l.00056-.00005,2.27758-.25361,2.18747-.24325c.72929-.07984,1.45858-.15969,2.18788-.23953l1.92598-.21086.00055-.00005c.13617-.01487.27533-.00446.40637.03305.13083.03762.254.10052.35727.18628.10361.08523.18901.19.25196.30482.06245.11528.10357.23974.12269.36522.02397.1752.00796.35108-.04988.50899-.02825.07915-.06663.15354-.11126.22363-.04732.06866-.10114.13242-.16071.19145l-.00037.00037c-.9764.94568-1.95279,1.89135-2.92919,2.83703-1.05219,1.02299-2.10207,2.04826-3.1413,3.08412-.42193.41825-.84036.83998-1.26071,1.2598-.41829.42187-.83659.84373-1.25488,1.2656l-.00045.00047c-.14089.14257-.25086.31544-.32026.50318-.06962.18765-.09869.39018-.08468.58958l.00003.00068c.10079,1.42287.20157,2.84573.30236,4.2686.10449,1.46359.20899,2.92718.31348,4.39077.04557.62723.09114,1.25446.13671,1.88169l.00004.00053c.00669.10745-.0024.21464-.03192.31632-.01424.051-.03437.1001-.05708.14799-.02479.04681-.05084.09339-.08366.13558-.12726.17135-.31887.29715-.52776.34545-.09774.02134-.19856.02859-.29797.01709-.09934-.01173-.19711-.03961-.28984-.08278l-.00044-.00019c-1.37339-.64899-2.74678-1.29797-4.12017-1.94696-1.20207-.56663-2.40413-1.13326-3.6062-1.69989l-.00053-.00024c-.14289-.06545-.29697-.10829-.45371-.11858-.13777-.00983-.27681.00234-.41045.03579-.08589.02276-.16937.05366-.2493.09211-.07929.03984-.1543.08747-.2245.14133l-.00048.00036c-.93346.73593-1.86691,1.47186-2.80037,2.20779l-3.45208,2.73174c-.77015.61189-1.5403,1.22378-2.31045,1.83566l-.00044.00033c-.12516.09886-.26974.17349-.42454.21481l-.05818.01233c-.00972.00194-.02058.00466-.03281.00669l-.04062.00509c-.01479.0017-.03077.00421-.04808.0057l-.05586.00234c-.07927.00169-.1798-.00313-.2962-.03255-.11607-.02921-.24775-.08301-.3808-.17349Z" fill="url(#uuid-0a8b4276-af7c-4d82-95de-997cbc6fd25b)"/><polygon points="50.27256 59.42457 51.87231 61.31395 41.37161 72.0037 39.77187 70.11432 50.27256 59.42457" fill="url(#uuid-bde48fa1-4ea9-4d06-87ee-7c88e22ed9fb)" opacity=".4"/><polygon points="68.04103 38.31591 69.9989 39.84641 61.87132 52.42045 59.91345 50.88996 68.04103 38.31591" fill="url(#uuid-1ee4e1ef-3347-425e-ba16-dca7eb3275ce)" opacity=".4"/><polygon points="112.53696 20.02699 113.00519 20.51221 105.03009 28.72938 104.56186 28.24416 112.53696 20.02699" fill="url(#uuid-5a4a6327-2891-47f0-aba2-909d57e33467)"/><polygon points="94.65736 36.97999 95.08945 37.5051 86.42869 44.99703 85.9966 44.47191 94.65736 36.97999" fill="url(#uuid-c2f9aff8-8b82-4c79-b1a6-8236be9d5e39)"/></g></svg>