<?xml version="1.0" encoding="UTF-8"?><svg xmlns="http://www.w3.org/2000/svg" width="200" height="200" xmlns:xlink="http://www.w3.org/1999/xlink" viewBox="0 0 200 200"><defs><linearGradient id="uuid-b2e60180-d13c-41e5-b703-8f5784d97894" x1="31.41171" y1="62.28529" x2="105.14097" y2="174.74103" gradientUnits="userSpaceOnUse"><stop offset="0" stop-color="#fff"/><stop offset=".02732" stop-color="#fde5dd"/><stop offset=".07147" stop-color="#fbc2ad"/><stop offset=".11698" stop-color="#faa384"/><stop offset=".16314" stop-color="#f98a63"/><stop offset=".21018" stop-color="#f87649"/><stop offset=".25842" stop-color="#f76836"/><stop offset=".30863" stop-color="#f7602b"/><stop offset=".36395" stop-color="#f75e28"/><stop offset=".88495" stop-color="#c64528"/></linearGradient><linearGradient id="uuid-1e362672-0859-4628-8d14-6f4a93d4582e" x1="75.7088" y1="134.54661" x2="74.34344" y2="104.38465" gradientUnits="userSpaceOnUse"><stop offset=".08242" stop-color="#c64528"/><stop offset=".14396" stop-color="#cb4728" stop-opacity=".88339"/><stop offset=".27336" stop-color="#da4f28" stop-opacity=".58285"/><stop offset=".45851" stop-color="#f15b28" stop-opacity=".1052"/><stop offset=".49754" stop-color="#f75e28" stop-opacity="0"/></linearGradient><linearGradient id="uuid-a4bc58ba-e5f7-4d0f-8217-506b0b3890b2" x1="22.84292" y1="114.61969" x2="3.89342" y2="104.77257" xlink:href="#uuid-1e362672-0859-4628-8d14-6f4a93d4582e"/><linearGradient id="uuid-24e60757-6131-4b76-9148-5c15b77bce74" x1="30.98084" y1="139.00741" x2="9.29032" y2="127.73592" xlink:href="#uuid-1e362672-0859-4628-8d14-6f4a93d4582e"/><linearGradient id="uuid-e0ace1d6-d6d3-4e6e-8554-74a0ff4147eb" x1="68.47917" y1="110.31288" x2="67.1018" y2="79.88557" xlink:href="#uuid-1e362672-0859-4628-8d14-6f4a93d4582e"/><linearGradient id="uuid-38d43725-9b33-4b65-9a70-4e6eabf24e47" x1="70.53142" y1="86.8078" x2="68.65326" y2="45.31737" xlink:href="#uuid-1e362672-0859-4628-8d14-6f4a93d4582e"/><linearGradient id="uuid-84b28d60-e2d6-46a0-9ef2-ac756f53f5ef" x1="119.08904" y1="133.50661" x2="22.27285" y2="72.43793" gradientUnits="userSpaceOnUse"><stop offset=".08242" stop-color="#c64528"/><stop offset=".14396" stop-color="#cb4728" stop-opacity=".88339"/><stop offset=".27336" stop-color="#da4f28" stop-opacity=".58285"/><stop offset=".45851" stop-color="#f15b28" stop-opacity=".1052"/><stop offset=".49754" stop-color="#f75e28" stop-opacity="0"/><stop offset=".56706" stop-color="#f77040" stop-opacity=".11376"/><stop offset=".7183" stop-color="#fa9f7f" stop-opacity=".405"/><stop offset=".93821" stop-color="#fde9e2" stop-opacity=".8657"/><stop offset="1" stop-color="#fff"/></linearGradient><linearGradient id="uuid-983ea0ad-d98b-4195-b676-ea86c0bd2c09" x1="148.29714" y1="31.44352" x2="130.55261" y2="180.59352" gradientUnits="userSpaceOnUse"><stop offset="0" stop-color="#fff"/><stop offset=".02732" stop-color="#fde5dd"/><stop offset=".07147" stop-color="#fbc2ad"/><stop offset=".11698" stop-color="#faa384"/><stop offset=".16314" stop-color="#f98a63"/><stop offset=".21018" stop-color="#f87649"/><stop offset=".25842" stop-color="#f76836"/><stop offset=".30863" stop-color="#f7602b"/><stop offset=".36395" stop-color="#f75e28"/><stop offset="1" stop-color="#c64528"/></linearGradient><linearGradient id="uuid-ab0d8529-997c-4a75-b03a-7a3a8cbd814a" x1="175.54093" y1="136.61447" x2="89.9355" y2="71.87087" gradientUnits="userSpaceOnUse"><stop offset=".17361" stop-color="#f75e28" stop-opacity=".7"/><stop offset=".27041" stop-color="#f7632f" stop-opacity=".67432"/><stop offset=".40425" stop-color="#f87446" stop-opacity=".6021"/><stop offset=".55971" stop-color="#f98f6a" stop-opacity=".48338"/><stop offset=".73144" stop-color="#fbb59d" stop-opacity=".31804"/><stop offset=".91439" stop-color="#fde6dd" stop-opacity=".10859"/><stop offset="1" stop-color="#fff" stop-opacity="0"/></linearGradient></defs><g id="uuid-0cb00bd7-d37b-403e-9464-0acee616261c"><ellipse cx="78.96759" cy="181.59137" rx="37.02248" ry="5.35034" fill="#090909" opacity=".07"/></g><g id="uuid-861a27b0-bce3-4e85-af12-9df3175b6fca"><g id="uuid-7f612c78-b354-45e9-9643-69a0f68ded1d"><path d="M76.30484,85.81315l-1.43492.08393,9.04052-6.95039c3.69397-7.0619,7.38792-14.12401,11.08188-21.18592.09663-.18473.0356-.4122-.14306-.51964-3.48227-2.09422-9.20372-4.99473-16.73125-6.42891-2.81584-.53641-22.64198-4.01075-37.03146,6.98881-.00644.00494-.01288.01009-.01932.01503l-.01932.01481c-.00633.00472-.01261.00966-.01889.01438-.00665.00515-.0132.0103-.0198.01524-.00644.00494-.01283.01009-.01932.01503-.00644.00494-.01283.00987-.01932.01481-.00628.00472-.01261.00966-.01884.01438-.00665.00515-.0132.0103-.01986.01524-.00644.00494-.01283.01009-.01932.01503-.00644.00494-.01283.00987-.01932.01481-.00644.00494-.01283.00987-.01932.01481-.00628.00494-.01256.00966-.01884.0146-.0066.00494-.01315.01009-.0198.01524l-.01932.01481-.01932.01481c-.00633.00494-.01256.00966-.01889.0146-.0066.00494-.01315.01009-.01975.01524l-.01932.01481-.01932.01481-.01932.01481c-.00633.00494-.01261.00966-.01889.0146-.00665.00494-.0132.01009-.0198.01524-.00644.00494-.01283.00987-.01932.01481-.00644.00494-.01283.00987-.01932.01481-.00628.00494-.01261.00966-.01884.0146-.00665.00494-.0132.01009-.01986.01524-.00644.00494-.01283.00987-.01932.01481-.00644.00494-.01283.00987-.01932.01481-.00628.00494-.01256.00966-.01884.0146-.0066.00494-.01315.01009-.0198.01524l-.01932.01481-.01932.01481c-.00644.00494-.01288.01009-.01932.01503-.00633.00472-.01256.00966-.01889.01438-.0066.00515-.01315.0103-.01975.01524l-.01932.01481c-.00644.00494-.01288.01009-.01932.01503-.00655.00494-.01299.00987-.01953.01481-.00633.00494-.01277.01009-.01916.01481-.00644.00494-.01283.00987-.01932.01503-.00644.00472-.01283.00987-.01932.01481-.00644.00494-.01283.00987-.01932.01481-.00628.00472-.01261.00966-.01884.0146-.00665.00494-.0132.01009-.01986.01503-.00644.00515-.01283.01009-.01932.01503-.00644.00494-.01283.00987-.01932.01481-.00628.00494-.01256.00966-.01884.01438-.0066.00515-.01315.0103-.0198.01545-.00644.00472-.01288.00987-.01932.01481l-.01932.01481-.01932.01481c-.00633.00494-.01256.00966-.01889.0146-.0066.00494-.01315.01009-.01975.01524l-.01932.01481-.01932.01481c-.00633.00494-.01261.00966-.01889.0146-.00665.00494-.0132.01009-.0198.01524-.00644.00494-.01283.00987-.01932.01481-.00644.00494-.01283.00987-.01932.01481-.00644.00494-.01283.01009-.01932.01481-.00628.00494-.01261.00987-.01884.0146-.00665.00515-.0132.0103-.01986.01524-.00644.00494-.01283.00987-.01932.01481-.00644.00494-.01283.00987-.01932.01503-.00628.00472-.01256.00944-.01884.01438-.0066.00494-.01315.01009-.0198.01524l-.01932.01481c-.00644.00494-.01288.01009-.01932.01481-.00633.00494-.01256.00987-.01889.0146-.0066.00515-.01315.0103-.01975.01524l-.01932.01481c-.00644.00494-.01288.00987-.01932.01503-.00644.00472-.01288.00987-.01932.01481-.00633.00472-.01261.00966-.01889.01438-.00665.00515-.0132.0103-.0198.01524-.00644.00494-.01283.01009-.01932.01481-.00644.00515-.01283.01009-.01932.01503-.00628.00472-.01261.00966-.01884.01438-.00665.00515-.0132.0103-.01986.01524-.00644.00494-.01283.00987-.01932.01503-.00644.00472-.01283.00987-.01932.01481-.00644.00494-.01283.00987-.01932.01481-.00628.00472-.01256.00966-.01884.0146-.0066.00494-.01315.01009-.0198.01503-.00644.00515-.01288.01009-.01932.01503l-.01932.01481c-.00633.00494-.01256.00966-.01889.01438-.0066.00515-.01315.0103-.01975.01545-.00644.00472-.01288.00987-.01932.01481-.00665.00494-.01331.01009-.01996.01524-.00622.00472-.01245.00966-.01867.01438-.00633.00494-.01261.00966-.01889.0146-.00665.00494-.0132.01009-.0198.01524-.00644.00494-.01283.00987-.01932.01481-.00644.00494-.01283.00987-.01932.01481-.00628.00494-.01261.00966-.01884.0146-.00665.00494-.0132.01009-.01986.01524-.00644.00494-.01283.00987-.01932.01481-.00644.00494-.01283.00987-.01932.01481-.00644.00494-.01283.01009-.01932.01503-.00628.00472-.01256.00966-.01884.01438-.0066.00515-.01315.0103-.0198.01524l-.01932.01481c-.00644.00494-.01288.01009-.01932.01503-.00633.00472-.01256.00966-.01889.01438-.0066.00515-.01315.0103-.01975.01524l-.01932.01481c-.00644.00494-.01288.01009-.01932.01503-.00633.00472-.01261.00966-.01889.01438-.00665.00515-.0132.0103-.0198.01524-.00644.00494-.01283.00987-.01932.01481-.00644.00494-.01283.01009-.01932.01503-.00644.00494-.01283.00987-.01932.01481-.00628.00472-.01261.00966-.01884.01438-.00665.00515-.0132.0103-.01986.01524-.00644.00494-.01283.01009-.01932.01503-.00644.00494-.01283.00987-.01932.01481-.00628.00472-.01256.00966-.01884.01438-.0066.00515-.01315.0103-.0198.01524-.00644.00494-.01288.01009-.01932.01503l-.01932.01481-.01932.01481c-.00633.00494-.01256.00966-.01889.0146-.0066.00494-.01315.01009-.01975.01524l-.01932.01481-.01932.01481c-.00633.00494-.01261.00966-.01889.0146-.00665.00494-.0132.01009-.0198.01524-.00644.00494-.01283.00987-.01932.01481-.00644.00494-.01283.00987-.01932.01481-.00644.00494-.01283.00987-.01932.01481-.00628.00494-.01261.00966-.01884.0146-.00665.00494-.0132.01009-.01986.01524-.00644.00494-.01283.00987-.01932.01481-.00644.00494-.01283.00987-.01932.01481-.00628.00494-.01256.00966-.01884.0146-.0066.00494-.01315.01009-.0198.01524l-.01932.01481-.01932.01481c-.00644.00494-.01288.01009-.01932.01503-.00633.00472-.01256.00966-.01889.01438-.00682.00515-.01358.01052-.02039.01567-.00622.00494-.01245.00966-.01867.01438-.00644.00515-.01288.01009-.01932.01503-.00633.00472-.01261.00966-.01889.01438-.00665.00515-.0132.0103-.0198.01524-.00644.00494-.01283.00987-.01932.01503-.00644.00472-.01283.00987-.01932.01481-.00628.00472-.01261.00966-.01884.01438-.00665.00515-.0132.0103-.01986.01524-.00644.00494-.01283.01009-.01932.01481-.00644.00515-.01283.01009-.01932.01503-.00644.00494-.01283.00987-.01932.01481-.00628.00494-.01256.00966-.01884.01438-.0066.00515-.01315.0103-.0198.01545-.00644.00472-.01288.00987-.01932.01481l-.01932.01481c-.00633.00472-.01256.00966-.01889.0146-.0066.00494-.01315.01009-.01975.01503-.00644.00515-.01288.01009-.01932.01503l-.01932.01481-.01932.01481c-.00633.00494-.01261.00966-.01889.0146-.00665.00494-.0132.01009-.0198.01524-.00644.00494-.01283.00987-.01932.01481-.00644.00494-.01283.00987-.01932.01481-.00628.00494-.01261.00966-.01884.0146-.00665.00494-.0132.01009-.01986.01524-.00644.00494-.01283.00987-.01932.01481-.00644.00494-.01283.00987-.01932.01481-.00644.00494-.01283.00987-.01932.01503-.00628.00472-.01256.00944-.01884.01438-.0066.00494-.01315.01009-.0198.01524l-.01932.01481c-.00644.00494-.01288.01009-.01932.01481-.00633.00494-.01256.00987-.01889.0146-.0066.00515-.01315.0103-.01975.01524l-.01932.01481c-.00644.00494-.01288.00987-.01932.01503-.00644.00472-.01288.00987-.01932.01481-.00633.00472-.01261.00966-.01889.01438-.00665.00515-.0132.0103-.0198.01524-.00644.00494-.01283.01009-.01932.01481-.00644.00515-.01283.01009-.01932.01503-.00628.00472-.01261.00966-.01884.01438-.00665.00515-.0132.0103-.01986.01524-.00644.00494-.01283.00987-.01932.01503-.00644.00472-.01283.00987-.01932.01481-.00628.00472-.01256.00966-.01884.01438-.0066.00515-.01315.0103-.0198.01524-.00644.00494-.01288.01009-.01932.01481-.00644.00515-.01288.01009-.01932.01503l-.01932.01481c-.00649.00494-.01299.01009-.01948.01503l-.01916.01481-.01932.01481-.01932.01481c-.00633.00494-.01261.00966-.01889.0146-.00665.00494-.0132.01009-.0198.01524-.00644.00494-.01283.00987-.01932.01481-.00644.00494-.01283.00987-.01932.01481-.00644.00494-.01283.00987-.01932.01481-.00628.00494-.01261.00966-.01884.0146-.00665.00494-.0132.01009-.01986.01524-.00644.00494-.01283.00987-.01932.01481-.00644.00494-.01283.00987-.01932.01481-.00628.00494-.01256.00966-.01884.0146-.0066.00494-.01315.01009-.0198.01524l-.01932.01481-.01932.01481c-.00644.00494-.01288.01009-.01932.01503-.00633.00472-.01256.00966-.01889.01438-.0066.00515-.01315.0103-.01975.01524l-.01932.01481c-.00644.00494-.01288.01009-.01932.01503-.00633.00472-.01261.00966-.01889.01438-.00665.00515-.0132.0103-.0198.01524-.00644.00494-.01283.00987-.01932.01481-.00644.00494-.01283.01009-.01932.01503-.00644.00494-.01283.00987-.01932.01481-.00628.00472-.01261.00966-.01884.01438-.00665.00515-.0132.0103-.01986.01524-.00644.00494-.01283.01009-.01932.01503-.00644.00494-.01283.00987-.01932.01481-.00628.00472-.01256.00966-.01884.01438-.0066.00515-.01315.0103-.0198.01524-.00644.00494-.01288.01009-.01932.01503l-.01932.01481c-.00633.00472-.01256.00966-.01889.01438-.0066.00515-.01315.0103-.01975.01524-.00644.00494-.01288.01009-.01932.01503l-.01932.01481-.01932.01481c-.00633.00494-.01261.00966-.01889.0146-.00665.00494-.0132.01009-.0198.01524-.00644.00494-.01283.00987-.01932.01481-.00644.00494-.01283.00987-.01932.01481-.00628.00494-.01261.00966-.01884.0146-.00665.00494-.0132.01009-.01986.01524-.00644.00494-.01283.00987-.01932.01481-.00644.00494-.01283.00987-.01932.01481-.00644.00494-.01283.00987-.01932.01481-.00628.00494-.01256.00966-.01884.0146-.0066.00494-.01315.01009-.0198.01524s-.01331.0103-.01996.01524c-.00622.00494-.01245.00966-.01867.0146-.00633.00472-.01256.00944-.01889.01438-.0066.00494-.01315.01009-.01975.01524l-.01932.01481c-.00644.00494-.01288.01009-.01932.01481-.00644.00515-.01288.01009-.01932.01503-.00633.00472-.01261.00966-.01889.01438-.00665.00515-.0132.0103-.0198.01524-.00644.00494-.01283.00987-.01932.01503-.00644.00472-.01283.00987-.01932.01481-.00628.00472-.01261.00966-.01884.01438-.00665.00515-.0132.0103-.01986.01524-.00644.00494-.01283.01009-.01932.01481-.00644.00515-.01283.01009-.01932.01503-.00628.00472-.01256.00966-.01884.01438-.0066.00515-.01315.0103-.0198.01524-.00644.00494-.01288.00987-.01932.01503-.00644.00472-.01288.00987-.01932.01481l-.01932.01481c-.00633.00472-.01256.00966-.01889.0146-.0066.00494-.01315.01009-.01975.01503-.00644.00515-.01288.01009-.01932.01503l-.01932.01481c-.00633.00494-.01261.00966-.01889.01438-.00665.00515-.0132.0103-.0198.01545-.00644.00472-.01283.00987-.01932.01481-.00644.00494-.01283.00987-.01932.01481-.00644.00494-.01283.00987-.01932.01481-.00628.00494-.01261.00966-.01884.0146-.00665.00494-.0132.01009-.01986.01524-.00644.00494-.01283.00987-.01932.01481-.00644.00494-.01283.00987-.01932.01481-.00628.00494-.01256.00966-.01884.0146-.0066.00494-.01315.01009-.0198.01524l-.01932.01481-.01932.01481c-.00644.00494-.01288.01009-.01932.01481-.00633.00494-.01256.00987-.01889.0146-.0066.00515-.01315.0103-.01975.01524l-.01932.01481c-.00644.00494-.01288.00987-.01932.01503-.00633.00472-.01261.00944-.01889.01438-.00665.00494-.0132.01009-.0198.01524-.00644.00494-.01283.00987-.01932.01481-.00644.00494-.01283.01009-.01932.01481-.00644.00515-.01283.01009-.01932.01503-.00628.00472-.01261.00966-.01884.01438-.00665.00515-.0132.0103-.01986.01524-.00644.00494-.01283.00987-.01932.01503-.00644.00472-.01283.00987-.01932.01481-.00628.00472-.01256.00966-.01884.01438-.00682.00515-.01358.01052-.02045.01588-.00622.00472-.01245.00944-.01867.01438l-.01932.01481c-.00633.00472-.01256.00966-.01889.01438-.0066.00515-.01315.0103-.01975.01524-.00644.00494-.01288.01009-.01932.01503l-.01932.01481-.01932.01481c-.00633.00494-.01261.00966-.01889.0146-.00665.00494-.0132.01009-.0198.01524-.00644.00494-.01283.00987-.01932.01481-.00644.00494-.01283.00987-.01932.01481-.00628.00494-.01261.00966-.01884.0146-.00665.00494-.0132.01009-.01986.01524-.00644.00494-.01283.00987-.01932.01481-.00644.00494-.01283.00987-.01932.01481-.00644.00494-.01283.00987-.01932.01481-.00628.00494-.01256.00966-.01884.0146-.0066.00494-.01315.01009-.0198.01524l-.01932.01481-.01932.01481c-.00633.00494-.01256.00966-.01889.0146-.0066.00494-.01315.01009-.01975.01524l-.01932.01481-.01932.01481c-.00644.00494-.01288.01009-.01932.01503-.00633.00472-.01261.00966-.01889.01438-.00665.00515-.0132.0103-.0198.01524-.00644.00494-.01283.00987-.01932.01481-.00644.00494-.01283.01009-.01932.01503-.00628.00472-.01261.00966-.01884.01438-.00665.00515-.0132.0103-.01986.01524-.00644.00494-.01283.00987-.01932.01481-.00644.00494-.01283.01009-.01932.01503-.00644.00494-.01283.00987-.01932.01481-.00628.00472-.01256.00966-.01884.01438-.0066.00515-.01315.0103-.0198.01524-.00644.00494-.01288.01009-.01932.01503l-.01932.01481c-.00633.00472-.01256.00966-.01889.01438-.0066.00515-.01315.0103-.01975.01524-.00644.00494-.01288.01009-.01932.01503l-.01932.01481c-.00633.00472-.01261.00966-.01889.01438-.00665.00515-.0132.0103-.0198.01524-.00644.00494-.01283.01009-.01932.01503-.00644.00494-.01283.00987-.01932.01481-.00644.00494-.01283.00987-.01932.01481-.00628.00494-.01261.00966-.01884.0146-.00665.00494-.0132.01009-.01986.01524-.00644.00494-.01283.00987-.01932.01481-.00644.00494-.01283.00987-.01932.01481-.00644.00494-.01293.01009-.01943.01503-.00644.00494-.01277.00987-.01921.01481l-.01932.01481-.01932.01481c-.00644.00494-.01288.00987-.01932.01503-.00633.00472-.01256.00944-.01889.01438-.0066.00494-.01315.01009-.01975.01524l-.01932.01481c-.00644.00494-.01288.01009-.01932.01481-.00633.00494-.01261.00987-.01889.0146-.00665.00515-.0132.0103-.0198.01524-.00644.00494-.01283.00987-.01932.01481-.00644.00494-.01283.00987-.01932.01503-.00644.00472-.01283.00987-.01932.01481-.00628.00472-.01261.00966-.01884.01438-.00665.00515-.0132.0103-.01986.01524-.00644.00494-.01283.01009-.01932.01481-.00644.00515-.01283.01009-.01932.01503-.00628.00472-.01256.00966-.01884.01438-.0066.00515-.01315.0103-.0198.01524-.00644.00494-.01288.00987-.01932.01503-.00644.00472-.01288.00987-.01932.01481l-.01932.01481c-.00633.00472-.01256.00966-.01889.0146-.0066.00494-.01315.01009-.01975.01503-.00644.00515-.01288.01009-.01932.01503l-.01932.01481c-.00633.00494-.01261.00966-.01889.01438-.00665.00515-.0132.0103-.0198.01545-.00644.00472-.01283.00987-.01932.01481-.00644.00494-.01283.00987-.01932.01481-.00628.00472-.01261.00966-.01884.0146-.00665.00494-.0132.01009-.01986.01503-.00644.00515-.01283.01009-.01932.01503-.00644.00494-.01283.00987-.01932.01481-.00644.00494-.01283.00987-.01932.01481-.00628.00494-.01256.00966-.01884.0146-.0066.00494-.01315.01009-.0198.01524l-.01932.01481-.01932.01481c-.00633.00494-.01256.00966-.01889.0146-.0066.00494-.01315.01009-.01975.01524l-.01932.01481-.01932.01481c-.00644.00494-.01288.00987-.01932.01503-.00633.00472-.01261.00944-.01889.01438-.00665.00494-.0132.01009-.0198.01524-.00644.00494-.01283.00987-.01932.01481-.00644.00494-.01283.01009-.01932.01481-.00628.00494-.01261.00987-.01884.0146-.00665.00515-.0132.0103-.01986.01524-.00644.00494-.01283.00987-.01932.01481-.00665.00515-.01325.0103-.01991.01545-.00628.00472-.01245.00966-.01873.01438s-.01256.00966-.01884.01438c-.0066.00515-.01315.0103-.0198.01524-.00644.00494-.01288.01009-.01932.01503l-.01932.01481c-.00633.00472-.01256.00966-.01889.01438-.0066.00515-.01315.0103-.01975.01524-.00644.00494-.01288.01009-.01932.01503l-.01932.01481-.01932.01481c-.00633.00494-.01261.00966-.01889.0146-.00665.00494-.0132.01009-.0198.01524-.00644.00494-.01283.00987-.01932.01481-.00644.00494-.01283.00987-.01932.01481-.00628.00494-.01261.00966-.01884.0146-.00665.00494-.0132.01009-.01986.01524-.00644.00494-.01283.00987-.01932.01481-.00644.00494-.01283.00987-.01932.01481-.00628.00494-.01256.00966-.01884.0146-.0066.00494-.01315.01009-.0198.01524l-.01932.01481-.01932.01481-.01932.01481c-.00633.00494-.01256.00966-.01889.0146-.0066.00494-.01315.01009-.01975.01524l-.01932.01481-.01932.01481c-.00633.00494-.01261.00966-.01889.0146-.00665.00494-.0132.01009-.0198.01524-.00644.00494-.01283.00987-.01932.01481-.00644.00494-.01283.00987-.01932.01481-.00644.00494-.01283.01009-.01932.01503-.00628.00472-.01261.00966-.01884.01438-.00665.00515-.0132.0103-.01986.01524-.00644.00494-.01283.00987-.01932.01481-.00644.00494-.01283.01009-.01932.01503-.00628.00472-.01256.00966-.01884.01438-.0066.00515-.01315.0103-.0198.01524l-.01932.01481c-.00644.00494-.01288.01009-.01932.01503l-.01932.01481c-.00633.00472-.01256.00966-.01889.01438-.0066.00515-.01315.0103-.01975.01524-.00644.00494-.01288.01009-.01932.01503l-.01932.01481c-.00633.00472-.01261.00966-.01889.01438-.00665.00515-.0132.0103-.0198.01524-.00644.00494-.01283.01009-.01932.01503-.00644.00494-.01283.00987-.01932.01481-.00644.00494-.01283.00987-.01932.01481-.00628.00494-.01261.00966-.01884.0146-.00687.00515-.01363.0103-.02045.01567-.00628.00472-.01245.00966-.01873.01438-.00644.00494-.01283.00987-.01932.01481-.00628.00494-.01256.00966-.01884.0146-.0066.00494-.01315.01009-.0198.01524l-.01932.01481-.01932.01481c-.00633.00494-.01256.00966-.01889.0146-.0066.00494-.01315.01009-.01975.01524l-.01932.01481-.01932.01481c-.00644.00494-.01288.01009-.01932.01481-.00633.00494-.01261.00987-.01889.0146-.00665.00515-.0132.0103-.0198.01524-.00644.00494-.01283.00987-.01932.01481-.00644.00494-.01283.00987-.01932.01503-.00628.00472-.01261.00944-.01884.01438-.00665.00494-.0132.01009-.01986.01524-.00644.00494-.01283.00987-.01932.01481-.00644.00494-.01283.01009-.01932.01481-.00644.00515-.01283.01009-.01932.01503-.00628.00472-.01256.00966-.01884.01438-.0066.00515-.01315.0103-.0198.01524-.00644.00494-.01288.00987-.01932.01503-.00644.00472-.01288.00987-.01932.01481-.00633.00472-.01256.00966-.01889.01438-.0066.00515-.01315.0103-.01975.01524-.00644.00494-.01288.01009-.01932.01481-.00644.00515-.01288.01009-.01932.01503l-.01932.01481c-.00633.00494-.01261.00966-.01889.01438-.00665.00515-.0132.0103-.0198.01545-.00644.00472-.01283.00987-.01932.01481-.00644.00494-.01283.00987-.01932.01481-.00628.00472-.01261.00966-.01884.0146-.00665.00494-.0132.01009-.01986.01503-.00644.00515-.01283.01009-.01932.01503-.00644.00494-.01283.00987-.01932.01481-.00628.00494-.01256.00966-.01884.01438-.0066.00515-.01315.0103-.0198.01545-.00644.00472-.01288.00987-.01932.01481l-.01932.01481-.01932.01481c-.00633.00494-.01256.00966-.01889.0146-.0066.00494-.01315.01009-.01975.01524l-.01932.01481-.01932.01481c-.00633.00494-.01261.00966-.01889.0146-1.22211.93266-2.40516,1.96963-3.53529,3.12145-5.7375,5.84815-8.23013,12.73951-9.10236,15.22581-1.25538,3.57887-1.90712,6.9184-2.22577,9.80867-.27867.04035-.55729.08092-.8359.12128l-9.40765,7.23657c-.16711.12854-.24456.34228-.1986.54803,1.09905,4.91957,2.1981,9.83932,3.29715,14.7589.05899.26406.30362.44422.5733.42221,2.3814-.1944,4.7628-.3888,7.14427-.58322.28009-.02287.52853.16978.57737.44653.17266.97838.39703,2.02433.68158,3.12043.05463.21042-.01966.43481-.19187.5675,0,0-5.3855,4.14124-6.11736,4.70005-.05095.0389-.07192.10273-.05653.16495,1.27739,5.16276,2.55487,10.32572,3.83226,15.48849.06539.2643.31664.43912.58719.40857,3.26261-.36836,6.52523-.73672,9.78794-1.10508,2.16797,3.98069,5.79717,9.65563,11.5848,15.22559,4.03082,3.87916,16.38106,15.76458,35.25107,16.71527,4.01595.20242,17.48935.88093,28.05359-7.47628l9.66258-7.4327c.70963-.56045,1.40634-1.16126,2.08605-1.80607,2.54388-2.4131,4.23245-4.84939,5.29594-6.61982-7.06125-5.62706-14.12248-11.25391-21.18373-16.88098l-5.91341,4.54887c-4.22255,2.00205-8.21012,1.83097-9.80889,1.74017-1.99675-.11366-6.62012-.44022-10.93498-3.8159l.00014-.00057c2.34855-.32757,4.69709-.65534,7.04563-.98312l9.68163-7.4473c-1.3516-4.91973-2.70318-9.83967-4.05478-14.75941-.04776-.17386-.21379-.28805-.39323-.27045l-25.01058,2.45199c-.28975-.76072-.56853-1.59829-.82002-2.5024,4.76935-.60016,9.53872-1.20033,14.30807-1.80049l9.68163-7.4473-4.05295-15.01627c-.04922-.18235-.21963-.30514-.40818-.29411ZM56.6787,84.20434c4.85709-1.20741,10.79196-.63343,16.71538,1.83118-5.98306.56088-11.96618,1.12176-17.94924,1.68265.31768-1.37612.7538-2.5361,1.23387-3.51383Z" fill="url(#uuid-b2e60180-d13c-41e5-b703-8f5784d97894)"/><polygon points="63.7507 128.95293 66.48142 134.49711 77.37326 132.8989 87.00314 125.47748 63.7507 128.95293" fill="url(#uuid-1e362672-0859-4628-8d14-6f4a93d4582e)"/><polygon points="9.98959 116.47622 19.20079 109.06732 27.31018 108.40534 17.13386 115.893 9.98959 116.47622" fill="url(#uuid-a4bc58ba-e5f7-4d0f-8217-506b0b3890b2)"/><polygon points="16.44652 140.78951 26.59645 133.33862 35.91606 132.23713 26.23446 139.68443 16.44652 140.78951" fill="url(#uuid-24e60757-6131-4b76-9148-5c15b77bce74)"/><polygon points="71.08435 108.57083 80.76598 101.12353 55.47581 103.67315 56.77628 110.37132 71.08435 108.57083" fill="url(#uuid-e0ace1d6-d6d3-4e6e-8554-74a0ff4147eb)"/><path d="M56.6787,84.20434s6.51354-16.45466,27.23175-5.25765l-9.04052,6.95039-1.47586.13845s-9.22962-3.95984-16.71538-1.83118Z" fill="url(#uuid-38d43725-9b33-4b65-9a70-4e6eabf24e47)"/><path d="M94.99233,57.76077c-3.69397,7.06191-7.38791,14.12402-11.08188,21.18592-9.81082-4.37909-19.79827-3.55461-24.99018,1.98595-1.12694,1.20269-2.67492,3.31785-3.47543,6.78553,6.94959-.65152,13.89921-1.30303,20.8488-1.95455.19344-.01813.37178.10581.42222.29344,1.35005,5.02209,2.70007,10.04439,4.05012,15.06647l-24.99015,3.14442c.08414,1.5721.31293,3.42711.82748,5.46135.2923,1.15568.6355,2.20596.993,3.14442l25.01058-2.45199c.17944-.01759.34547.0966.39323.27045,1.3516,4.91974,2.70318,9.83968,4.05478,14.75941-7.11639.99297-14.23281,1.98595-21.3492,2.97892.77467,1.40296,2.19985,3.56084,4.63393,5.46157,4.31139,3.36679,8.92796,3.69285,10.92284,3.8064,1.84275.10475,6.85843.32047,11.75035-2.81342,1.83913-1.17822,3.13489-2.49295,3.97195-3.47562,7.06125,5.62706,14.12248,11.25391,21.18373,16.88098-1.06349,1.77044-2.75206,4.20672-5.29594,6.61982-10.7959,10.24119-25.83738,9.48348-30.1206,9.26775-18.87001-.95069-31.22023-12.8361-35.25104-16.71527-5.78768-5.56997-9.41688-11.2449-11.58485-15.22559-3.4203.38616-6.84054.77231-10.26083,1.15847-1.32396-5.35102-2.64798-10.70226-3.97195-16.05329,2.59282-.33099,5.18558-.66198,7.7784-.99297-.4058-1.05393-.80129-2.21412-1.15847-3.47562-.45372-1.60258-.77081-3.10428-.99303-4.46838-2.70315.22066-5.40624.44132-8.10939.66198-1.15847-5.18553-2.31694-10.37127-3.47541-15.5568,3.4203-.49649,6.84054-.99297,10.26083-1.48946-.09455-3.6467.19807-9.37572,2.48249-15.88779.87218-2.4863,3.36486-9.37765,9.10236-15.22581,14.4353-14.71387,37.49334-10.67693,40.54695-10.09523,7.52754,1.43418,13.24898,4.33469,16.73125,6.42891.17866.10744.23969.33491.14306.51964Z" fill="#ff8000"/><path d="M94.99237,57.76081c-3.69401,7.06188-7.38796,14.12399-11.08192,21.18589-9.81082-4.37909-19.79827-3.55461-24.99018,1.98595-1.12694,1.20269-2.67492,3.31785-3.47543,6.78553,6.94959-.65152,13.89921-1.30303,20.8488-1.95455.19344-.01813.37178.10581.42222.29344,1.35005,5.02209,2.70007,10.04439,4.05012,15.06647l-24.99015,3.14442c.08414,1.5721.31293,3.42711.82748,5.46135.2923,1.15568.6355,2.20596.993,3.14442l25.01058-2.45199c.17944-.01759.34547.0966.39323.27045,1.3516,4.91974,2.70318,9.83968,4.05478,14.75941-7.11639.99297-14.23281,1.98595-21.3492,2.97892.77467,1.40296,2.19985,3.56084,4.63393,5.46157,4.31139,3.36679,8.92796,3.69285,10.92284,3.8064,1.84275.10475,6.85843.32047,11.75035-2.81342,1.83913-1.17822,3.13489-2.49295,3.97195-3.47562,7.06125,5.62706,14.12248,11.25391,21.18373,16.88098-1.06349,1.77044-2.75206,4.20672-5.29594,6.61982-10.7959,10.24119-25.83738,9.48348-30.1206,9.26775-18.87001-.95069-31.22023-12.8361-35.25104-16.71527-5.78768-5.56997-9.41688-11.2449-11.58485-15.22559-3.4203.38616-6.84054.77231-10.26083,1.15847-1.32396-5.35102-2.64798-10.70226-3.97195-16.05329,2.59282-.33099,5.18558-.66198,7.7784-.99297-.4058-1.05393-.80129-2.21412-1.15847-3.47562-.45372-1.60258-.77081-3.10428-.99303-4.46838-2.70315.22066-5.40624.44132-8.10939.66198-1.15847-5.18553-2.31694-10.37127-3.47541-15.5568,3.4203-.49649,6.84054-.99297,10.26083-1.48946-.09455-3.6467.19807-9.37572,2.48249-15.88779.87218-2.4863,3.36486-9.37765,9.10236-15.22581,14.4353-14.71387,37.49334-10.67693,40.54695-10.09523,7.5276,1.43419,13.24908,4.33473,16.7313,6.42894.17866.10744.23968.33491.14305.51964Z" fill="url(#uuid-84b28d60-e2d6-46a0-9ef2-ac756f53f5ef)"/><path d="M80.73877,100.97753l-24.75751,3.11513c.00277.0523.00714.10747.01027.16048l24.7893-3.11924c-.01408-.05209-.02805-.10428-.04207-.15637Z" fill="#f2a33d"/><path d="M87.02764,125.30871c-7.03883.98221-14.07766,1.96432-21.11649,2.94653.02548.04613.05779.09945.08471.14733,7.0246-.98016,14.04925-1.96041,21.07391-2.94057-.01408-.05106-.0281-.10223-.04212-.15329Z" fill="#f2a33d"/><path d="M97.01608,131.43304c-.00555-.00442-.01099-.00884-.01649-.01315-.29194.34264-.64342.72721-1.05048,1.13077.41107-.39576.7646-.77262,1.06697-1.11762Z" fill="#f2a33d"/><path d="M26.19168,91.84575c-.09457-3.64671.19803-9.37569,2.4825-15.88777.87217-2.48635,3.36484-9.37775,9.10235-15.2258.18026-.1837.36278-.36227.54561-.54022-.24761.23703-.49337.47837-.73625.72597-5.73751,5.84806-8.23012,12.73945-9.10235,15.2257-2.25261,6.42146-2.56767,12.07728-2.48532,15.73016.06447-.00935.12899-.0187.19346-.02805Z" fill="#f2a33d"/><path d="M59.34388,80.3403c5.32854-5.02633,14.95816-5.6472,24.42483-1.42174.03807-.07284.07618-.14569.1143-.21853-9.55672-4.23902-19.26622-3.5412-24.53913,1.64027Z" fill="#f2a33d"/><path d="M82.95743,164.00266c-18.87005-.95067-31.22021-12.83603-35.25108-16.71525-5.78764-5.56993-9.41689-11.24487-11.58484-15.2256-3.42027.3861-6.84054.77231-10.26081,1.15852-1.31109-5.2989-2.62217-10.59801-3.93326-15.89681-.07644.00966-.15288.01952-.22932.02918,1.32398,5.35109,2.64796,10.70229,3.97194,16.05339,3.42032-.38621,6.84054-.77241,10.26086-1.15852,2.16795,3.98062,5.79715,9.65566,11.58484,15.2256,4.03081,3.87911,16.38103,15.76458,35.25103,16.71525,4.28325.21576,19.32473.97348,30.12062-9.26771.05435-.05168.10274-.10315.15637-.15483-10.79342,10.20759-25.80763,9.45223-30.08636,9.23678Z" fill="#f2a33d"/><path d="M28.31808,112.88416c.34018,1.20156.71549,2.30809,1.10103,3.32154.08266-.01058.16536-.02116.24802-.03164-.40578-1.05392-.80128-2.21419-1.15846-3.47565-.45371-1.60256-.77082-3.10434-.993-4.46834-2.70318.22059-5.40627.44128-8.1094.66196-1.14711-5.13451-2.29412-10.26923-3.44123-15.40375-.0749.01089-.14985.02178-.2248.03267,1.15846,5.18558,2.31693,10.37126,3.47539,15.55683,2.70318-.22069,5.40627-.44138,8.1094-.66196.22223,1.364.53934,2.86577.99305,4.46834Z" fill="#f2a33d"/><path d="M159.70109,48.94221c-.01469-.00247-.02949-.00498-.04423-.00771l-22.68346-3.96696c-21.12492-2.96954-41.79757,19.86058-46.17354,50.99238-4.37608,31.1318,9.20165,58.7764,30.32657,61.74563,0,0,21.88798,2.71536,21.8888,2.71556.01356.00185.02707.00288.04058.00493.00113,0,.00211.00021.00318.00041,20.91836,2.94057,41.38886-19.6665,45.7221-50.49373,4.26722-30.358-8.70653-57.36684-29.08-60.99053ZM144.30494,103.64228c-1.09255,7.77272-3.83134,14.56178-7.37382,19.25081-2.09177-5.43021-2.84543-12.63979-1.76356-20.33669,1.09559-7.79388,3.86406-14.58526,7.43644-19.23401,2.05006,5.45861,2.77932,12.64853,1.70094,20.31989Z" fill="url(#uuid-983ea0ad-d98b-4195-b676-ea86c0bd2c09)"/><path d="M136.97339,44.96752c-21.12492-2.96951-41.79754,19.86062-46.17356,50.99241-4.37603,31.13179,9.20164,58.77635,30.32657,61.74565,21.12492,2.96951,41.79754-19.86062,46.17356-50.99241,4.37603-31.13179-9.20162-58.77635-30.32657-61.74565ZM144.30496,103.64227c-2.18113,15.51707-10.92199,27.11605-19.52325,25.90684-8.60124-1.209-13.80577-14.76795-11.62464-30.28502,2.18113-15.51707,10.92201-27.11605,19.52325-25.90684,8.60127,1.209,13.80579,14.76816,11.62464,30.28502Z" fill="#ff8000"/><path d="M136.97339,45.08414c-21.12492-2.96951-41.79754,19.86062-46.17356,50.99241-4.37603,31.13179,9.20164,58.77635,30.32657,61.74565,21.12492,2.96951,41.79754-19.86062,46.17356-50.99241,4.37603-31.13179-9.20162-58.77635-30.32657-61.74565ZM144.30496,103.7589c-2.18113,15.51707-10.92199,27.11605-19.52325,25.90684-8.60124-1.209-13.80577-14.76795-11.62464-30.28502,2.18113-15.51707,10.92201-27.11605,19.52325-25.90684,8.60127,1.209,13.80579,14.76816,11.62464,30.28502Z" fill="url(#uuid-ab0d8529-997c-4a75-b03a-7a3a8cbd814a)"/><path d="M124.7817,129.47577h0c-1.44541-.33175-2.40072-.88429-3.01551-1.25037-.29761-.20535-.52507-.34816-.66663-.45931l-.21064-.1686c-.57018-.43565-1.07616-.9479-1.56412-1.46733-.46523-.54446-.91037-1.10316-1.2958-1.70664-.79309-1.18872-1.44198-2.47231-1.96882-3.80431-.52577-1.33256-.96244-2.70261-1.29119-4.10151-.32915-1.39858-.57062-2.81795-.75614-4.24445-.17958-1.42764-.28492-2.86626-.31051-4.30723-.01836-.50613-.00686-1.0137-.01854-1.52013-.00043-.50681.0159-1.01391.02274-1.5207l.05997-1.2821c.09016-1.43836.23909-2.87297.44124-4.30048l.00115-.00816c.19923-1.42798.45156-2.8481.76145-4.25563.31304-1.40847.70599-2.79627,1.13008-4.17311.42184-1.37807.9197-2.7319,1.4859-4.05471.5716-1.32008,1.19501-2.61788,1.89696-3.87152.70166-1.25405,1.4991-2.45063,2.37186-3.58661.87363-1.13515,1.85124-2.19011,2.9413-3.11413.53686-.47384,1.11878-.88817,1.71607-1.28328.61225-.36478,1.23984-.71769,1.90803-.97926.84162-.34866,1.73347-.57735,2.65167-.6942l.39895-.02781c.13322-.00514.30108-.03028.50195-.02563l.70717.01536h0l-.70103-.11752c-.20145-.03398-.37167-.0333-.50746-.04766l-.4093-.03047c-.94996-.02768-1.90497.1207-2.8308.37228-1.46536.40067-2.8306,1.12269-4.07124,1.99574-1.23839.88195-2.35472,1.92301-3.3705,3.04631-1.01685,1.12469-1.90656,2.35397-2.72318,3.62369-.81604,1.27127-1.54189,2.59796-2.176,3.96535-.63966,1.36479-1.20763,2.76224-1.69698,4.18576-.49113,1.42315-.89434,2.87446-1.24419,4.33672-.33969,1.46337-.61918,2.9397-.84312,4.42463l-.00119.00851c-.19409,1.48908-.33243,2.98519-.40932,4.48544l-.04744,1.33753c-.01038,1.05787-.01902,2.11681.04785,3.17414.07795,1.50327.23867,3.00315.47728,4.49139.23257,1.48922.56454,2.96459.99849,4.41157.43494,1.44564.95128,2.87256,1.61867,4.234.66674,1.35981,1.45281,2.66828,2.40008,3.85745.95188,1.18123,2.06517,2.25165,3.36328,3.04077l.24114.14923c.1615.09784.41951.22073.7527.39517.6799.31536,1.75618.73544,3.23365.85183Z" fill="#ff911a"/></g></g></svg>