<svg xmlns="http://www.w3.org/2000/svg" width="200" height="200" viewBox="0 0 200 200"><defs><style>.cls-3{fill:#ff8000}.cls-5{fill:#5c3e5b}.cls-6{fill:#715e54}.cls-7{fill:#e4c7bd}.cls-8{fill:#fff}</style></defs><path id="BG_Strong_Light" d="M180.98 106.2c-9.13-12.97-14.78-28.06-15.79-43.89l.37-4.36a39.86 39.86 0 0 0-28.01-41.44l-.24-.07c-9.64-3-19.55-2.77-29.25-.86a.5.5 0 0 0-.39.08c-7.5 1.51-14.86 4.02-21.88 6.81-16.01 6.38-33.21 13.5-46.19 25.13-12.94 11.59-19.5 27.33-20.59 44.52-1.08 17.22 1.35 35.7 7.66 51.8 14.26 36.39 52.52 48.19 88.69 43.19l2.65-.39c.21.13.34.36.63.37-.03-.15-.08-.34-.28-.42 11.23-1.69 23.09-4.31 33.97-8.77l-.06.45c.28-.19.32-.38.4-.58l.4-.16.05.21s.08-.14.17-.11q-.01-.11-.07-.16c7.34-3.09 14.2-7.05 20.07-12.16a50.7 50.7 0 0 0 15.23-23.21q.04 0 .02-.02h-.02l.03-.1v-.02q.24-.8.44-1.6c1.6-6.23 2.02-19.96-8.03-34.24Z" data-name="BG_Strong Light" style="fill:#edebe8"/><g id="Illustrations"><g id="Outline"><path d="M-37.26-69.21h270.45v304.26H-37.26z" style="fill:none"/><path d="M62.36 71.88s5.71 1.9 12.18 0l-5.79 19.09z" style="fill:#d6e8ea"/><path d="M59.11 37.08s11.31 1.29 11.48.44.65-2.79 1.02-3.28 2.26-2.09 2.26-2.09l1.14-.08s2.28 1.64 2.92 2.76 2.84 5.87 2.91 7.17c.33 6.45 2.71 9.25 2.71 9.25l-2.47.66s.18 3.09-.08 4.57c-.27 1.47-.66 2.29-1.26 3.33s-2.24.86-2.57.86h-2.16l-.31 10.44-.83 1.21s-3.81.7-5.71.49-5.3-.28-5.3-.28-1.07-1.63-1.21-1.89-1.93-5.42-1.93-5.42c.04-.72.2-8.11.2-8.11s1.82-1.85 2.09-3.36c.28-1.51 1.37-5.59 1.37-5.59s-1.15-1.69-.43-2.76 1.01-1.45 1.47-1.81-3.73-1.98-3.23-2.27m92.49 46.44c-.05-.12-.64-3.5-1.06-4.49-.41-.99-1.08-4.34-1.08-4.34l11.32-5.41 8.9 2.55 2.2 3.05s-2.71-.22-3.14.02-5.67.14-5.77.29-1.09 1.14-1.09 1.14l-.24 2.76s1.05 1.13 3.03-.23c1.98-1.37 3.78.61 3.78.61l.55.92s.11.52-1.54 1-2.38 1.15-3.8 1.62c-1.43.47-3.18.79-5.11.52s-4.6-1.26-4.6-1.26z" class="cls-7"/><path d="M77.58 53.65c1.03.7 2.34.53 3.5.33.32-.05.53-.46.43-.76-.11-.34-.42-.49-.76-.43l-.39.06-.1.01h.02l-.15.02a7 7 0 0 1-.77.04q-.19 0-.36-.03c.17.04-.04 0-.07-.02l-.16-.04-.16-.05-.07-.02c-.11-.02-.24-.13-.33-.19-.27-.18-.69-.06-.84.22a.63.63 0 0 0 .22.84Z" class="cls-6"/><path d="m154.25 86.75-2.24-9.83a.7.7 0 0 0-.22-.36c-.06-.28-.27-.51-.64-.48-4.01.31-7.7 1.96-11.11 4.03-3.52 2.14-6.78 4.67-10.27 6.86a35 35 0 0 1-5.12 2.67 27 27 0 0 1-5.84 1.71c-3.92.7-8.16.71-12.02-.24a29 29 0 0 1-10.9-5.22q-.57-.45-1.13-.92l-.03-.04c-2.27-2.2-4.4-4.54-6.61-6.8a25 25 0 0 0-6.36-4.87 26 26 0 0 0-2.9-1.25 78 78 0 0 1 2.33-6.29c.12-.28-.06-.59-.3-.76a.6.6 0 0 0-.34-.21l-3.04-.58a.8.8 0 0 0-.79.02.6.6 0 0 0-.32.4l-.01.22a688 688 0 0 0-7.28 24.39 974 974 0 0 0-6.25-18.93l-1.98-5.74c-.16-.47-.66-.56-1-.4a19 19 0 0 1-5.31-.67c-.49-.13-.82.25-.85.64v.27l.81 6q-1.36.31-2.69.73-.1 0-.2.03c-6.63 2.08-12.64 5.7-18.16 9.86-5.53 4.17-10.88 8.76-15 14.37a44 44 0 0 0-5.21 9.15 25 25 0 0 0-2.03 10.05c.06 1.79.52 3.55 1.21 5.2a17 17 0 0 0 2.58 4.39c2.05 2.42 4.88 4.06 7.74 5.34a43 43 0 0 0 9.86 3.06 297 297 0 0 1-5.26 23.22c-.17.63.5.99.96.8a119 119 0 0 0 60.24.78.6.6 0 0 0 .43-.33l.05-.15c1.34-7.71 2.3-15.49 3.06-23.27a450 450 0 0 0 1.51-20.45 39 39 0 0 0 10.44 3.27c4.26.69 8.6.68 12.86.02 4.33-.66 8.53-2 12.5-3.84a51 51 0 0 0 11.46-7.34 106 106 0 0 0 10.26-10.25l1.17-1.31c.36-.41.12-.94-.25-1.13l.41-5.57c0-.11.19-.13.4-.11l.04.18c.2.86 1.52.5 1.32-.36Z" style="fill:#ff8100"/><path d="M140.38 105.47c3.69-3.13 6.96-13.44 10.18-17.04l1.17-1.31" style="fill:none;opacity:0;stroke:#df5426;stroke-miterlimit:10"/><path d="M68.12 88.32q.34 35.76-2.21 71.45c-.07.92 1.36.91 1.43 0a882 882 0 0 0 2.21-71.45c0-.92-1.44-.92-1.43 0m-26.91 57.92c5.43-4.17 10.53-8.77 15.7-13.26.7-.6-.32-1.61-1.01-1.01-5.08 4.41-10.08 8.94-15.42 13.04-.72.55 0 1.79.72 1.23Zm32.94-16.69q4.72 6.9 9.93 13.43c.57.72 1.58-.3 1.01-1.01q-5.1-6.39-9.71-13.14c-.52-.75-1.75-.04-1.23.72m119.37-13.4q-.67-9.13-1.45-18.25-.46-5.34-.94-10.66-.01-.15-.08-.28a.6.6 0 0 0-.61-.41l-11.49.11c-.22-4.58-3.77-7.29-8.38-7.29-.02 0-.28-.18-.3-.18-3.12.02-5.49.15-7 2.88l.75 1.53.03-.05q.31.19.54.13c.4-.12 2.11-.58 3.01-.96.39-.16.84-.12 1.23-.02-.01.08.63.13.65.22.08.39-.18.67.21.59q.3-.06.62-.07h.02c1.69 0 3.16 1.38 3.52 3.25l-3.61.04-4.32.04c-.55 0-2.26.55-2.12.95l-.07.01c-.13.11-2.69.09-4.82.06.18-.41-.02-.99-.6-.99l-6.35.02a.6.6 0 0 0-.6.39 1 1 0 0 0-.09.3q-.7 9.34-1.32 18.68a1854 1854 0 0 0-1.62 28.78c-.01.27.11.46.28.56h.01q.15.12.39.11l17.08-.13 18.88-.14 8.97-.07q.1 0 .19-.03c.35 0 .68-.21.65-.66q-.6-9.25-1.27-18.5Z" class="cls-8"/><path d="M182.76 110.89a26 26 0 0 0-2.89-4.29.3.3 0 0 1-.08-.19 36 36 0 0 0-.55-3.96.7.7 0 0 0-.56-.51s-1.9-.23-1.9-.23h-.05a.4.4 0 0 0-.4.4v.66l-.02.02h-.02a27 27 0 0 0-3.84-2.9 1.7 1.7 0 0 0-.94-.29q-.53 0-.94.29a31 31 0 0 0-10.32 11.01.65.65 0 0 0 .43.91l1.89.36c.25.07.44.29.47.55.02.33.37 7.79.82 9.73.07.28.33.48.63.48h.01c1.1-.03 2.11-.05 3.21-.06h.09c.12 0 .21-.1.21-.21-.04-.65-.14-2.14-.22-3.71v-.13a.4.4 0 0 0-.19-.32 2 2 0 0 1-.99-1.65c-.1-2.62-.15-5.64 0-8 .01-.2.17-.35.37-.36.21 0 .38.16.39.37v.03c-.09 1.58-.1 3.44-.07 5.28 0 .25.21.45.46.44.25 0 .45-.21.44-.46a76 76 0 0 1 .07-5.31c.01-.2.17-.35.37-.36.21 0 .38.16.39.37v.03c-.09 1.57-.1 3.42-.07 5.25 0 .25.21.45.46.44.25 0 .44-.21.44-.45-.03-1.84-.02-3.71.07-5.28.01-.2.17-.35.37-.36.21 0 .38.16.39.37v.03c-.14 2.3-.09 5.21 0 7.76v.09c0 .7-.35 1.31-.88 1.68a.4.4 0 0 0-.17.3s-.05.39.13 2.29l.17 1.66q.02.16.2.17h3.94a.2.2 0 0 0 .2-.18c.25-2.28.31-3.56.31-3.56q-.02-.19-.2-.22l-1.3-.18q-.31-.07-.37-.32c-.03-.09-.02-.2-.02-.2.53-7.59 3.03-10.15 3.03-10.15q.11-.11.12-.1a.4.4 0 0 1 .24-.08.4.4 0 0 1 .37.25l.03.18a88 88 0 0 1-.02 9.61c-.11 2.69-.25 4.8-.25 4.8q.01.15.16.16l2.15.04h.01c.3 0 .56-.21.63-.48.45-1.93.81-9.39.82-9.73a.6.6 0 0 1 .47-.55l1.89-.36a.65.65 0 0 0 .43-.91Z" class="cls-3"/><path d="M79.35 159.15q-.67-9.13-1.45-18.25-.45-5.34-.94-10.66-.01-.15-.08-.28a.6.6 0 0 0-.61-.41l-11.49.11a8.64 8.64 0 0 0-8.62-8.22h-.07c-2.11.02-4.1.81-5.64 2.16-2.59 1.54-4.71 3.87-6.63 6.22q-3.02 0-6.03.02a.6.6 0 0 0-.6.39 1 1 0 0 0-.09.3q-.7 9.34-1.32 18.68a1854 1854 0 0 0-1.62 28.78q0 .4.28.56h.01q.15.11.39.11l17.08-.13 18.88-.14 8.97-.07q.1 0 .19-.03c.35 0 .68-.21.65-.66q-.6-9.25-1.27-18.5Zm-23.29-29.4-3.52.03c.25-1.36.88-2.63 2.31-3.09q.21-.06.36-.17.13.03.3 0 .3-.06.62-.07h.02c1.69 0 3.16 1.38 3.52 3.25l-3.61.04Z" class="cls-8"/><path d="M69.22 153.76a26 26 0 0 0-2.89-4.29.3.3 0 0 1-.08-.19 36 36 0 0 0-.55-3.96.7.7 0 0 0-.56-.51s-1.9-.23-1.9-.23h-.05a.4.4 0 0 0-.4.4v.66l-.02.02h-.02a27 27 0 0 0-3.84-2.9 1.7 1.7 0 0 0-.94-.29q-.53 0-.94.29a31 31 0 0 0-10.32 11.01.65.65 0 0 0 .43.91l1.89.36c.25.07.44.29.47.55.02.33.37 7.79.82 9.73.07.28.33.48.63.48h.01c1.1-.03 2.11-.05 3.21-.06h.09c.12 0 .21-.1.21-.21-.04-.65-.14-2.14-.22-3.71v-.13a.4.4 0 0 0-.19-.32 2 2 0 0 1-.99-1.65c-.1-2.62-.15-5.64 0-8 .01-.2.17-.35.37-.36.21 0 .38.16.39.37v.03c-.09 1.58-.1 3.44-.07 5.28 0 .25.21.45.46.44.25 0 .45-.21.44-.46a76 76 0 0 1 .07-5.31c.01-.2.17-.35.37-.36.21 0 .38.16.39.37v.03c-.09 1.57-.1 3.42-.07 5.25 0 .25.21.45.46.44.25 0 .44-.21.44-.45-.03-1.84-.02-3.71.07-5.28.01-.2.17-.35.37-.36.21 0 .38.16.39.37v.03c-.14 2.3-.09 5.21 0 7.76v.09c0 .7-.35 1.31-.88 1.68a.4.4 0 0 0-.17.3s-.05.39.13 2.29l.17 1.66q.02.16.2.17h3.94a.2.2 0 0 0 .2-.18c.25-2.28.31-3.56.31-3.56q-.02-.18-.2-.22l-1.3-.18q-.31-.07-.37-.32c-.03-.09-.02-.2-.02-.2.53-7.59 3.03-10.15 3.03-10.15q.11-.11.12-.1a.4.4 0 0 1 .24-.08.4.4 0 0 1 .37.25l.03.18a88 88 0 0 1-.02 9.61c-.11 2.69-.25 4.8-.25 4.8q.01.15.16.16l2.15.04H65c.3 0 .56-.21.63-.48.45-1.93.81-9.39.82-9.73a.6.6 0 0 1 .47-.55l1.89-.36a.65.65 0 0 0 .43-.91Z" class="cls-3"/><path d="M59.29 57.12q.03 3.36-.13 6.73a47 47 0 0 1-.62 6.64c-.05.33.09.66.43.76.3.08.7-.1.76-.43.38-2.26.55-4.56.66-6.85s.15-4.56.13-6.84c0-.79-1.24-.79-1.23 0Zm14.96 2.16c-.11 3.94-.06 7.88-.18 11.82-.02.79 1.21.79 1.23 0 .11-3.94.06-7.88.18-11.82.02-.79-1.21-.79-1.23 0" class="cls-5"/><path d="M66.94 30.1c-4.32.58-7.97 3.55-9.72 7.49s-1.89 8.59-.62 12.82c.72 2.41 1.77 4.71 2.77 7.01.13.31.58.38.84.22.31-.18.35-.54.22-.84-1.6-3.68-3.36-7.46-3.48-11.54-.12-3.98 1.15-8.32 4.14-11.08a11 11 0 0 1 5.84-2.86c.33-.04.62-.25.62-.62 0-.3-.28-.66-.62-.62Zm6.65 29.32c1.23.43 2.55.73 3.85.83.88.07 1.84.03 2.64-.39.96-.52 1.12-1.5 1.27-2.49.28-1.87.34-3.76.34-5.65 0-.79-1.23-.79-1.23 0 0 1.58-.04 3.16-.22 4.73q-.1.9-.3 1.78 0 .06-.03.1c.04-.11 0 0-.01.02l-.12.2c.08-.11-.06.05-.09.08s-.11.09-.01.02l-.13.09-.18.1c-.15.07.07-.03-.03.01l-.13.05c-.15.05-.4.1-.49.11a8 8 0 0 1-2.31-.13 21 21 0 0 1-2.48-.64c-.75-.26-1.07.93-.33 1.19Z" class="cls-6"/><path d="M66.94 31.33c2.7-.14 5.67.02 8.04 1.44 1.99 1.19 3.03 3.25 3.9 5.32q.8 1.9 1.32 3.9c.2.77 1.39.44 1.19-.33a30 30 0 0 0-2.82-6.98 9 9 0 0 0-2.5-2.69q-1.8-1.2-3.92-1.56-2.58-.46-5.2-.33c-.79.04-.79 1.27 0 1.23Z" class="cls-5"/><path d="M80.18 41.82c.09 1.9.17 3.88.67 5.73.24.89.65 1.65 1.17 2.4q.47.66.86 1.37c.38.7 1.45.07 1.06-.62-.41-.75-.95-1.42-1.38-2.16l-.27-.54-.01-.03-.06-.17-.12-.37q-.27-.94-.38-1.9a46 46 0 0 1-.3-3.7c-.04-.79-1.27-.79-1.23 0Z" class="cls-5"/><path d="M83.38 50.65q-.6.16-1.21.28l-.64.12-.14.02-.09.01c.02 0 .15-.02.06 0l-.28.03c-.32.02-.63.27-.62.62.01.31.27.64.62.62.89-.06 1.78-.28 2.64-.5.31-.08.53-.45.43-.76s-.42-.52-.76-.43Z" class="cls-6"/><path d="M77.16 45.64c.79 0 .79-1.23 0-1.23s-.79 1.23 0 1.23m86.81 30.42c2.47.02 4.99.13 7.43.52.33.05.66-.08.76-.43.08-.29-.1-.71-.43-.76a53 53 0 0 0-7.76-.56c-.79 0-.79 1.23 0 1.23m-1.27-1.95.89.17q.44.08.84.24c.14.05.35.01.47-.06s.25-.22.28-.37q.07-.25-.06-.47c-.13-.22-.21-.22-.37-.28q-.41-.16-.84-.24c-.43-.08-.59-.13-.89-.17q-.25-.06-.47.06a.6.6 0 0 0-.28.37.6.6 0 0 0 .06.47c.08.13.21.26.37.28" class="cls-5"/><path d="M164.44 74.53c2.34.58 4.72 1.17 6.97 2.04.31.12.68-.13.76-.43.1-.35-.12-.64-.43-.76a58 58 0 0 0-6.97-2.04c-.77-.19-1.1 1-.33 1.19m5.66 9.6c.21.18-.2.44-.36.5-.52.22-1.07.36-1.58.62-.91.46-1.74 1.02-2.7 1.36-1.78.63-3.76.86-5.63.59a7 7 0 0 1-2.69-.91c-.68-.42-1.3.65-.62 1.06 1.83 1.13 4.17 1.33 6.26 1.11q1.7-.16 3.3-.76.81-.32 1.56-.74c.57-.32 1.13-.68 1.75-.9s1.37-.39 1.76-1.01c.34-.54.35-1.34-.17-1.78-.25-.21-.62-.25-.87 0-.22.22-.26.66 0 .87Zm3-5.89c-2.1.4-4.28.59-6.43.56-.79-.01-.79 1.22 0 1.23 2.25.03 4.54-.18 6.75-.6.33-.06.51-.46.43-.76-.09-.34-.43-.49-.76-.43Z" class="cls-5"/><path d="m171.33 76.5.59.66.28.34.13.16.06.08c.02.02.09.12.02.02q.54.7 1.02 1.46c.17.27.56.41.84.22s.41-.55.22-.84a21 21 0 0 0-2.3-2.98.6.6 0 0 0-.87 0 .63.63 0 0 0 0 .87Zm-4.71 1.9-.1.1c-.07.07.15-.1.05-.04l-.07.05-.38.23q-.5.26-1 .48c-.56.26-1.15.47-1.7.76a.6.6 0 0 0-.22.84c.19.29.54.38.84.22.56-.3 1.16-.51 1.74-.78q.52-.22 1-.49c.24-.13.53-.29.71-.5.2-.25.26-.63 0-.87-.22-.21-.66-.27-.87 0" class="cls-5"/><path d="m164.22 83.42-.04-.21c0-.02-.02-.19 0-.05l-.03-.37q0-.36.03-.72v-.08q0 .12 0 0l.03-.16.09-.36.11-.36.06-.15c-.05.13.03-.08.05-.1.14-.29.09-.68-.22-.84-.27-.14-.7-.09-.84.22a5.6 5.6 0 0 0-.42 3.5c.07.32.46.53.76.43.33-.11.5-.42.43-.76Z" class="cls-5"/><path d="M163.6 84.19c1.36-.09 2.49-.86 3.79-1.18 1.15-.28 2.28.29 2.53 1.5.16.78 1.34.45 1.19-.33-.3-1.51-1.75-2.59-3.28-2.48s-2.74 1.16-4.23 1.25c-.79.05-.79 1.29 0 1.23Zm-6.94 2.04c-.56.14-1.09.38-1.62.59a.7.7 0 0 0-.37.28c-.08.13-.11.33-.06.47s.14.29.28.37.32.12.47.06c.53-.21 1.07-.44 1.62-.59.31-.08.53-.44.43-.76s-.42-.52-.76-.43Zm-10.33-3.58a96 96 0 0 1 16.7-8.54c.31-.12.53-.41.43-.76-.08-.3-.45-.55-.76-.43a97 97 0 0 0-16.99 8.67c-.67.43-.05 1.49.62 1.06" class="cls-5"/><path d="m71.24 52.64 18.8-4.19s-.44 4.27-.61 4.88l-18.19-.68Z" style="fill:#603b5d"/><path d="M60.76 46.31a4.9 4.9 0 0 1 0-9.78 2.08 2.08 0 1 1 0 4.16c-.4 0-.72.32-.72.72s.32.72.72.72a2.08 2.08 0 1 1 0 4.16Z" class="cls-6"/><path d="M66.81 122.86c-1.2-2.22-4.19-2.87-6.36-5.73-3.1-.77 1.7-.68-1.19-.31-.32.04-3.96-.59-4.16-.42-.65.22-6.85-.17-6.89.42-.81-.5-4.86-.46-4.93.56-.07 1.11.42 7 .22 8.09-.16.89 5.26-1.5 5.23-.52-.03 1.11.74 3.19 1.35 3.19 1.27 1.55 6.21.62 7.43 0 2.56-1.3-1.16-4.42-.76-5.56.54-1.55 3.22-.31 3.91.13.36 0 4.28 1.74 4.64 1.73 1.08-.04 2.02-.61 1.5-1.57Z" class="cls-7"/><path d="M59.54 117.45q1.81 1.52 3.58 3.08c1.08.95 2.19 1.89 3.17 2.94.54.58 1.41-.29.87-.87-.98-1.05-2.09-1.99-3.17-2.94a208 208 0 0 0-3.58-3.08c-.26-.21-.62-.25-.87 0-.22.22-.26.66 0 .87m-10.65 6.9q-.4-.06-.81.01l-1.35.18q-1.4.22-2.81.42l-.15.02h.06l-.1.01q-.12 0-.23.03l-.29.02c-.33-.02-.62.3-.62.62 0 .35.28.6.62.62.35.02.74-.07 1.08-.12l1.74-.26.93-.14.44-.06.21-.03.08-.01q.32-.05.65-.07l.22-.01c.08 0 .25.03-.01-.02.33.06.66-.09.76-.43.08-.3-.1-.7-.43-.76Z" class="cls-5"/><path d="M41.06 118.01a96 96 0 0 1 18.91-.38c.79.06.79-1.17 0-1.23a95 95 0 0 0-18.91.38c-.33.04-.62.26-.62.62 0 .3.28.66.62.62Zm25.1 4.88c-.37.63-1.22.87-1.91.74l-.3-.09-.22-.11q-.44-.24-.86-.52c-1.09-.71-2.09-1.55-3.18-2.27-.66-.44-1.28.63-.62 1.06 1.21.81 2.33 1.76 3.58 2.53.62.38 1.23.66 1.97.66a3 3 0 0 0 2.61-1.37c.41-.68-.66-1.3-1.06-.62Zm-17.83 2.38a5.6 5.6 0 0 0 3.9 4.2c.31.09.68-.11.76-.43s-.1-.66-.43-.76l-.31-.1-.15-.06-.05-.02q-.3-.13-.57-.31l-.27-.18-.05-.04-.11-.09a5 5 0 0 1-.47-.45l-.2-.23-.04-.05-.1-.13q-.19-.27-.34-.56l-.14-.29-.02-.05-.06-.15a5 5 0 0 1-.17-.63c-.06-.32-.46-.53-.76-.43-.34.11-.5.42-.43.76Zm2.56-.16c.54 1.02 1.09 2.05 1.92 2.87s1.85 1.34 2.99 1.37c.33 0 .62-.29.62-.62s-.28-.61-.62-.62c-.38 0-.82-.13-1.16-.31a4 4 0 0 1-1.05-.8c-.69-.72-1.16-1.63-1.63-2.52-.16-.29-.57-.38-.84-.22a.6.6 0 0 0-.22.84Zm2.88-.81c.44.96.91 1.96 1.7 2.7s1.91 1.19 3.03.97c.33-.07.51-.45.43-.76-.09-.34-.43-.5-.76-.43l-.1.02h-.11l-.31-.01c.11.01-.08-.02-.08-.02l-.15-.04-.3-.1q-.06-.03 0 0l-.06-.03-.14-.07-.27-.17-.13-.09-.08-.06-.23-.22a3 3 0 0 1-.38-.45l-.36-.58q-.34-.63-.63-1.29c-.14-.3-.58-.38-.84-.22-.31.18-.36.54-.22.84Z" class="cls-5"/><path d="M54.98 120.85a17 17 0 0 1 2.81 6.34c.17.78 1.36.45 1.19-.33a18 18 0 0 0-2.93-6.64c-.19-.27-.54-.4-.84-.22-.27.16-.42.57-.22.84Z" class="cls-5"/><path d="m71.24 52.38-6.26-13.82 23.91.26A22.24 22.24 0 1 0 52.8 63.37h31.33a22 22 0 0 0 6.25-12.04z" style="fill:#79577a"/><path d="M39.65 104.11c-.21-.15-.9.32-1.51 1.47a7.3 7.3 0 0 0-.54 5 7.3 7.3 0 0 0 2.78 4.19c.27.19.59.37.92.45s.66.04.87-.06c.44-.21.46-.53.38-.62-.08-.1-.28-.06-.51-.15s-.37-.24-.69-.66a10 10 0 0 1-1.8-3.64 10 10 0 0 1-.07-4.05c.19-1.07.41-1.78.17-1.94Zm53.37 2.43c-.53.16-.56 1.62-.35 3.32s.59 3.11 1.15 3.14 1.07-1.49.83-3.38c-.23-1.89-1.11-3.24-1.63-3.08m-5.97-10.81c-.03-.09-.47-.92-1.3-1.96s-.03-.06-.04-.09l-.23-1.8q-.05-.19-.25-.23l-.86-.11h-.02c-.1 0-.19.08-.18.18v.3l-.01.01a12 12 0 0 0-1.73-1.33 1 1 0 0 0-.43-.13q-.23 0-.43.13c-3 1.81-4.66 4.79-4.73 4.96s-.03.08-.03.12q.01.21.22.29l.86.17q.18.06.21.25c0 .15.14 3.54.33 4.42q.06.2.28.22l1.45-.02h.04a.1.1 0 0 0 .1-.1l-.09-1.68v-.06a.2.2 0 0 0-.08-.15 1 1 0 0 1-.44-.75c-.04-1.19-.04-2.56.03-3.63q.02-.15.17-.16.15.02.18.17c-.05.73-.06 1.57-.05 2.41q.02.18.21.2a.2.2 0 0 0 .2-.21c-.01-.84 0-1.69.05-2.41q.02-.15.17-.16.15.02.18.17a31 31 0 0 0-.05 2.4c0 .11.1.2.21.2a.2.2 0 0 0 .2-.2c0-.84 0-1.69.05-2.4q.02-.15.17-.16.15.02.18.17a41 41 0 0 0-.03 3.53s0 .03 0 .03c0 .33-.17.6-.41.77q-.07.05-.08.13s-.02.18.05 1.04l.07.75s.04.08.09.08h.65l.65.01h.49s.08-.02.09-.07c.12-1.03.15-1.61.15-1.61q0-.08-.09-.1l-.59-.08q-.14-.03-.17-.14v-.09c.27-3.45 1.41-4.6 1.41-4.6l.06-.05.11-.03q.12 0 .17.12l.01.08c.09 1.08.03 2.93-.05 4.36l-.13 2.18s.03.07.07.07l.98.03a.3.3 0 0 0 .29-.22c.21-.88.4-4.26.41-4.41a.3.3 0 0 1 .21-.25l.86-.16q.2-.06.23-.29 0-.07-.03-.12v.02Z" class="cls-8"/></g></g></svg>