<svg xmlns="http://www.w3.org/2000/svg" viewBox="0 0 200 200"><defs><clipPath id="clippath"><path class="cls-1" d="M163.18 153.55c-.2-5.4-1.13-6.26-3.18-11.27l-2.22-5.42-17.23-36.98c-3.11-6.66-7-11.46-13.71-14.82v.05c-.64-.42-1.26-.79-1.82-1.11-3.13-1.65-13.93-6.36-13.93-6.36l-1.6-7.42s-8.92 2.71-14.74 2.69c-5.84-.02-17.4-1.16-17.4-1.16l.96 6.98-7 3.01c-.84.37-1.68.74-2.49 1.16-.96.49-1.85.94-2.64 1.36-1.08.54-2.1 1.11-3.03 1.73-1.77 1.11-3.11 2.22-4.41 3.6-1.77 1.82-3.28 3.89-4.61 6.21-.07.1-.15.2-.22.32-.37.57-.71 1.33-1.04 2.07-.15.3-.27.57-.42.86l-27.29 37.27 7.86 5.15c-2.05 4.98-2.86 10.43-2.24 15.78.39 3.28 1.28 6.38 3.18 7.59.15.1.3.2.44.27 4.31 2.61 9.59 3.2 14.42 1.73l.49-.15c.42-.12.81-.25 1.21-.39l-1.8 21.99 12.23 4.68c8.6 3.3 17.6 5.47 26.77 6.31 3.06.27 6.14.44 9.22.49h.47c7.25.12 14.49-.37 21.64-1.5 8.28-1.31 16.24-4.14 23.52-8.28l.3-.17c-.25-3.5-1.87-13.73-3.4-22.53 10.11 4.07 17.53 1.6 17.53 1.6 1.9-1.18 6.38-10.43 6.19-15.33Zm-31.58-24.8c-.35-1.45-.67-2.74-.91-3.77-.25-.99-.17-2.1.15-3.28"/></clipPath><clipPath id="clippath-1"><path class="cls-1" transform="rotate(-65.32 67.5 161.982)" d="M47.63 123.29h39.71v77.38H47.63z"/></clipPath><style>.cls-1{fill:none}.cls-4{fill:#6a4a6b}.cls-5{fill:#eeece9}.cls-6{fill:#f0eeec}.cls-7{fill:#fff}.cls-8{fill:#fcb9c4}.cls-11{fill:#e4683b}.cls-12{fill:#efedea}.cls-14{fill:#a08675}.cls-15{fill:#b64e33}.cls-16{fill:#b4cacc}.cls-17{fill:#ce9352}.cls-21{fill:#573f59}.cls-22{fill:#846c5f}.cls-23{fill:#78577a}</style></defs><path class="cls-12" d="M23.77 135.19c25.25 81.1 159.97 53.9 168.34-23.01C183.97-38.75-59.45-19.18 23.77 135.19Z" id="BG_Strong"/><g id="Illustrations"><path class="cls-12" d="M104.58 179.61s-.02-.02-.05-.02h.05v.02ZM107.79 178.82c-.02.07-.02.12-.1.17-.1 0-.12-.05-.12-.12.07 0 .15-.02.22-.05ZM106.04 179.26c.12-.02.27-.05.39-.1.02 0 .05 0 .07-.02.07-.02.12-.02.2-.05 0 0 0 .02-.02.02-.22.27-.39.52-.67.71.1-.17.15-.39.02-.57ZM156.91 139.03c-.12.2-.22.32-.35.42.12-.15.25-.27.35-.42ZM59.37 164.57c-.27-.1-.32-.27-.3-.44.15.12.3.22.44.32-.02.07-.07.12-.15.12ZM60.63 165.73c-.12-.25-.25-.44-.25-.64.07.05.17.12.25.17-.07.35.35.2.49.47-.1-.12-.15-.2-.2-.25.17.12.32.25.49.35-.02 0-.05.02-.1.05l.22.1c-.2.42-.69-.02-.91-.25ZM61.64 166.02s.07.05.12.07c-.05.02-.1 0-.12-.07ZM61.93 166.24s.02 0 .02.02c0 0-.02 0-.02-.02ZM95.07 179.85c.1 0 .2.02.27.02-.05.02-.15.02-.27-.02ZM95.56 181.75c-.44-.15-.71-.02-1.11-.17.05.07.07.2.07.27a.375.375 0 0 1-.35-.35c.22-.39 1.23.35 1.04.1.47-.15.32.05.35.15ZM100.04 180.1s.02-.02.02-.05h.25c-.07.12-.17.17-.27.05ZM99.01 181.68c.15-.07.22-.15.07.05l-.07-.05ZM102.31 181.23l-.05-.05c-.07-.25.42-.39.59-.35l-.02.1c-.07.02-.2.05-.42.05l-.1.25ZM103.64 180.54c-.22.05-.37.1-.47.15.05-.2.07-.42.2-.62.35.07.3.3.32.54-.07.02-.12.05-.17.07-.02-.07.05-.1.12-.15ZM159.01 136.89c-.15.1-.3.2-.42.27.39-.44.81-.94 1.31-1.48 0 .32-.59.91-.89 1.21Z"/><g id="Layer_5"><path class="cls-8" d="M89.45 73.43c-.69-2.47-.74-5.03-.64-7.52.22-4.81 1.04-9.52 2.42-13.98 1.36-4.36 3.25-8.48 4.86-12.72.22-.59.37-1.21.44-1.82l.79-6.34c.35-2.71 2.02-5.08 4.51-6.24 2.02-.94 4.14-1.38 6.31-.69 1.53.52 2.88 1.55 4.07 2.76 1.08 1.11 2.05 2.39 2.54 3.87.44 1.31.47 2.69.32 4.02l-.49 3.38c-.62 4.09 2.02 7.94 6.04 8.97.02 0 .05 0 .07.02 2.39.62 4.88 1.97 6.06 4.31.81 1.6.91 3.5.54 5.2s-1.16 3.2-2.02 4.66c-5.42 8.92-14.05 14.91-22.53 20.56-.96.64-1.95 1.28-3.11 1.41-1.36.15-2.76-.47-3.97-1.26-2.93-1.97-5.23-5.13-6.21-8.6Z"/><path class="cls-8" d="M94.99 75.43c.59-2.49.57-5.05.35-7.54-.39-4.78-1.38-9.47-2.96-13.88-1.53-4.31-3.57-8.36-5.35-12.52-.25-.57-.42-1.18-.52-1.8l-1.04-6.29c-.44-2.69-2.22-5-4.73-6.06-2.05-.86-4.19-1.23-6.34-.44-1.5.57-2.83 1.68-3.97 2.91-1.04 1.13-1.97 2.47-2.39 3.97-.37 1.31-.37 2.71-.17 4.02l.64 3.35c.76 4.07-1.7 8.01-5.69 9.19-.02 0-.05.02-.07.02-2.37.71-4.78 2.14-5.89 4.54-.76 1.63-.76 3.53-.35 5.2.42 1.68 1.28 3.18 2.19 4.56 5.77 8.73 15.58 20.66 29.95 11.91.99-.59-4.63 9-3.48 9.07 1.36.1 2.74-.57 3.92-1.41 2.86-2.05 5.03-5.28 5.89-8.8Z"/></g><path class="cls-14" d="M106.16 71.22s-.42-6.36-.37-8.87c.07-5.69 2.39-10.85 2.83-12.55.44-1.7.05-1.77.05-1.77s2.74.59 3.89-1.18c1.16-1.77 1.48-5.35.84-6.43s-.52-.67-2.47-1.06c-1.95-.39.17-2.42.17-2.42s-3.85-5.87-5.3-7.86c-1.45-1.97-5.89-5.89-10.21-7s-8.26-1.77-11.17-1.31-7.1 2.49-8.85 4.66 2.1 13.93-4.73 12.82c-1.41-.22.81 6.04 1.23 8.26s3.2-.37 4.66.35c0 0 1.11 7.12 1.58 7.57s3.53 7.74 3.53 7.74l.02 10.45s10.01.67 12.89.42c2.91-.25 9.1-.59 9.47-.84s1.92-.96 1.92-.96Z"/><path class="cls-8" d="m110.64 37.64-.1-.22c-.07-1.43-.79-2.83-1.48-4.07-.05-.91-.25-1.8-.69-2.59-.44-.84-1.73-.1-1.28.74.3.54.44 1.11.52 1.7-.1.2-.1.42.02.67l.02.02c.05 1.75-.44 3.65-.22 5.3.1.84.39 2.37 1.53 2.22 1.11-.15 2.05-1.87 2.61-2.71.42-.69-.35-1.31-.94-1.06ZM104.63 27.73a.725.725 0 0 0-.62-.22h-.07s-.05 0-.07.02c-2.49.42-3.6-1.45-4.76-3.3-.89-1.41-2.17-2.44-3.92-2.19-.67.1-1.33.37-1.85.81-.79.69-.99 1.9-2.22 1.92-1.06.02-1.92-.74-2.88-1.04-.84-.27-1.73-.22-2.54.12-3.75 1.5-3.25 6.31-.76 8.73 2.61 2.54 7.17 3.25 10.48 1.73.91-.42 1.65-1.04 2.19-1.87.42-.62.67-1.23 1.43-1.5.57-.2 1.23-.17 1.8-.17 1.6-.02 3.62-.44 4.02-2.24 0-.02.02-.07.02-.1v-.1c0-.25-.07-.44-.25-.59ZM77.76 31.43c-.52.84-1.01 1.68-1.48 2.54-.02-.64-.05-1.28-.05-1.9-.02-.91-1.38-.96-1.48-.12-.74 1.31-1.53 2.86-1.58 4.39l-.05.07c-.59-.3-1.43.35-.99 1.01.64.99 2.64 4.14 3.75 1.97.44-.86.47-1.92.44-2.86.74-1.55 1.6-3.03 2.47-4.49.44-.67-.62-1.28-1.04-.62Z"/><path class="cls-11" d="M111.73 23.59c.07.86.15 1.73.2 2.59.12 2.02.17 4.07.17 6.09 0 1.82-.02 3.65-.2 5.47-.05.44-.3.81-.76.84-.2 0-.42-.07-.57-.22-.22-.15-.35-.39-.39-.67-.05-.37-.12-.79-.22-1.16-.35-1.53-.84-2.83-1.68-4.14-.39-.62-.67-.99-1.18-1.53-.44-.47-.94-.91-1.43-1.31-.02-.02-.12-.1-.15-.12a.591.591 0 0 0-.17-.12c-.12-.1-.27-.17-.39-.27-.27-.17-.54-.32-.81-.49-.3-.15-.59-.3-.89-.44-.15-.07-.32-.15-.47-.2a.308.308 0 0 0-.12-.05c-.05-.02-.1-.05-.17-.05-1.23-.47-2.51-.76-3.8-.96-.32-.05-.67-.1-.99-.12-.02 0-.17-.02-.17-.02-.05 0-.12 0-.17-.02-.17-.02-.32-.02-.47-.02-.64-.05-1.28-.07-1.95-.07-1.33 0-2.66.05-3.99.22-3.35.44-6.66 1.68-9.54 3.55-2.88 1.85-5.42 4.34-7.3 7.25-.1.2-.25.35-.47.39-.39.12-.89-.12-.99-.54-.44-1.92-1.04-3.87-1.26-5.87l-1.13-12.42 41.39-3.99.07 8.43Z"/><path d="M81.16 3.13 54.91 21.27c-.96.67-.52 1.95.71 2.14l42.57 6.61c.44.07.86-.02 1.21-.25L126 11.28c.96-.67.49-1.95-.74-2.14L82.34 2.88c-.42-.07-.86.02-1.18.25Z" style="fill:#ee8533"/><path class="cls-23" d="M163.18 153.55c-.2-5.4-1.13-6.26-3.18-11.27l-2.22-5.42-17.23-36.98c-3.11-6.66-7-11.46-13.71-14.82v.05c-.64-.42-1.26-.79-1.82-1.11-3.13-1.65-13.93-6.36-13.93-6.36l-1.6-7.42s-8.92 2.71-14.74 2.69c-5.84-.05-17.4-1.16-17.4-1.16l.96 6.98-7 3.01c-.84.37-1.68.74-2.49 1.16-.96.49-1.85.94-2.64 1.36-1.13.57-2.19 1.18-3.18 1.82-1.68 1.06-2.96 2.12-4.17 3.43-1.82 1.85-3.35 3.94-4.68 6.34-.07.1-.12.2-.2.32-.37.57-.71 1.33-1.06 2.07-.15.27-.27.57-.42.86l-27.31 37.22 7.86 5.15c-2.05 4.98-2.86 10.43-2.24 15.78.39 3.28 1.28 6.38 3.18 7.59.15.1.3.2.44.27 4.31 2.61 9.59 3.2 14.42 1.73l.49-.15c.42-.12.81-.25 1.21-.39l-1.8 21.99 12.23 4.68c8.6 3.3 17.6 5.47 26.77 6.31 3.06.27 6.14.44 9.22.49h.47c7.25.12 14.49-.37 21.64-1.5 8.28-1.31 16.24-4.14 23.52-8.28l.3-.17c-.22-3.5-1.87-13.73-3.4-22.53 10.11 4.07 17.53 1.6 17.53 1.6 1.9-1.18 6.38-10.43 6.19-15.33Zm-32.34-31.82.76 7.03c-.35-1.45-.64-2.74-.91-3.75-.27-1.01-.17-2.12.15-3.28Z"/><path class="cls-21" d="M113.95 40.5c-.37-.52-.91-.91-1.55-1.01s-1.26.02-1.85.22c-.37.12-.62.52-.52.91.1.37.54.64.91.52s.69-.22 1.04-.22c.1 0 .25.02.32.05.17.07.32.22.42.35.17.25.3.59.37.96.1.39.12.81.1 1.23 0 .12-.02.22-.02.35v.15c-.02.2-.07.39-.12.59-.1.42-.22.81-.37 1.23-.12.32-.27.64-.47.96-.05.07-.07.12-.12.2l-.05.07-.02.02s-.07.1-.12.15l-.07.07-.02.02c-.64.42-1.43.32-2.17.17-.07-.25-.25-.47-.52-.54-.37-.1-.81.12-.91.52-.84 3.7-1.95 7.37-3.6 10.7-.62 1.23-1.31 2.44-2.12 3.55-.07.12-.17.25-.27.37-.05.05-.07.12-.12.17-.02.02-.05.05-.07.1-.17.22-.35.44-.54.67-.35.39-.71.79-1.08 1.16-.35.35-.71.67-1.08.99-.05.02-.07.07-.12.1l-.05.05c-.02.02-.07.05-.07.07-.05.02-.1.07-.15.1-.17.12-.35.25-.54.37-.32.22-.67.42-1.01.62-.17.07-.32.17-.49.25-.07.02-.15.07-.25.1-.05.02-.07.02-.1.05-.57.22-1.11.42-1.7.54-.25.05-.49.1-.74.12s-.1 0-.15.02c-.1 0-.2.02-.3.02-.3.02-.59.02-.89 0-.05 0-.1 0-.15-.02-.05 0-.1-.02-.17-.02-.39 0-.76 0-1.16-.05-.05 0-.07-.02-.12-.02-.1-.02-.22-.02-.32-.05-.25-.05-.47-.1-.69-.17-.27-.07-.52-.15-.79-.25-.15-.05-.3-.1-.42-.17-.02 0-.05-.02-.1-.02-.07-.02-.12-.05-.2-.07-.67-.3-1.31-.67-1.9-1.08l-.52-.37c-.05-.02-.07-.05-.12-.1-.1-.07-.17-.15-.27-.22-.37-.3-.71-.62-1.06-.94-.37-.37-.71-.74-1.06-1.11-.17-.22-.37-.42-.54-.64-.05-.05-.07-.1-.12-.15-.02-.02-.07-.07-.07-.1-.07-.1-.17-.22-.25-.32-.79-1.06-1.48-2.17-2.1-3.35-1.63-3.06-2.76-6.34-3.65-9.76-.27-1.04-.52-2.1-.74-3.16-.07-.39-.54-.62-.91-.52-.39.12-.59.52-.52.91 0 .05.02.12.05.17-.71.17-1.53.37-2.22.05a.51.51 0 0 1-.2-.12c-.02-.02-.05-.02-.07-.05l-.02-.02s-.1-.1-.12-.15l-.07-.07s0-.02-.02-.05c-.2-.3-.37-.64-.52-.94-.15-.35-.27-.74-.37-1.11-.05-.2-.1-.37-.12-.57-.02-.1-.05-.2-.05-.3 0-.05 0-.07-.02-.12v-.1c-.07-.79-.02-1.68.35-2.34.15-.3.37-.52.74-.59h.25c.12 0 .15 0 .25.02.22.05.47.12.69.2.37.12.81-.15.91-.52.12-.39-.12-.79-.52-.91-1.06-.37-2.27-.42-3.11.44-.76.79-1.01 2-1.04 3.06s.22 2.05.59 2.98c.35.89.76 1.85 1.58 2.39 1.04.69 2.39.54 3.55.25.76 3.3 1.8 6.56 3.2 9.66.37.84.79 1.65 1.23 2.47 0 .05 0 .12.02.17.49 2.56.89 5.15 1.04 7.77.12 1.77.1 3.55.1 5.32 0 .81 0 1.63.05 2.44.02.39.32.74.74.74.37 0 .76-.35.74-.74-.1-1.53-.05-3.08-.05-4.61-.02-2.1-.15-4.19-.39-6.29-.07-.57-.15-1.13-.22-1.7.32.44.67.86 1.04 1.28 1.21 1.41 2.66 2.64 4.26 3.55 1.06.59 2.24 1.08 3.45 1.31.59.12 1.26.25 1.87.17h.05c-.1 0-.35-.05.02 0h.07c.2.02.42.02.64.02.99 0 2-.17 2.93-.49 1.58-.49 2.98-1.36 4.26-2.39 1.82-1.48 3.28-3.38 4.49-5.4.1-.15.17-.32.27-.47 0 .94.02 1.87.05 2.81.05 2.39.12 4.81.27 7.2.07 1.01.15 2 .3 3.01.05.39.57.62.91.52.42-.12.57-.52.52-.91 0-.02 0-.07-.02-.1 0-.07-.02-.15-.02-.22-.02-.2-.05-.39-.07-.59-.05-.47-.07-.91-.1-1.38-.07-1.13-.12-2.27-.17-3.4-.1-2.37-.15-4.76-.17-7.15v-2.71c.91-2.05 1.63-4.19 2.22-6.34.2-.69.37-1.41.54-2.1.94.2 1.92.25 2.81-.17.89-.39 1.38-1.28 1.75-2.14.39-.94.69-1.95.74-2.96.15-.99-.02-2.22-.67-3.11Zm-6.8 32.29s-.02-.1 0 0Zm4.68-25.51s.02-.02 0 0Z"/><path class="cls-17" d="m101.94 146.97 8.26 12.37 19.25 13.93-7.91-12.72-19.6-13.58z"/><g style="clip-path:url(#clippath);fill:none"><path class="cls-16" d="M68.71 71.76c.07-.05.15-.1.25-.15.25-.02.49-.07.71-.17.96-.39 1.43-1.23 1.5-2.24.25-2.71-2.76-5.03-5.3-4.19-1.43.47-2.12 1.75-1.87 3.2-.32.99-.15 2.14.67 2.96 1.01 1.04 2.74 1.41 4.04.59Z"/><path class="cls-4" d="M71.33 84.63c-.64-.1-1.26.02-1.8.27-.62-.05-1.23.07-1.8.39-2.02 1.16-1.97 4.04-.44 5.57 1.55 1.53 4.51 1.73 5.67-.37.12-.22.22-.47.27-.69.67-.84.99-1.85.64-2.91-.35-1.16-1.31-2.1-2.54-2.27Zm-1.65 4.49s.02.02 0 0ZM85.5 81.4c.15.02.3.02.44.02 1.31-.05 2.34-1.04 2.37-2.37.05-.49.05-.99.02-1.5 0-.22-.02-.42-.05-.64-.05-.3-.07-.57-.12-.86s-.05-.27.02.02c.02-1.26-1.18-2.69-2.54-2.54-1.28.12-2.49.81-3.11 1.92-.3.37-.47.86-.47 1.43a3.03 3.03 0 0 0-.17 2.69c.62 1.48 2.17 2.12 3.6 1.82Z"/><path class="cls-16" d="M98.84 65.67c1.38.89 3.43.64 4.51-.62.3-.35.54-.74.64-1.21.2-.44.32-.91.32-1.43-.02-.89-.37-1.77-1.01-2.42-.76-.76-2.02-1.16-3.06-.79-.69.25-1.23.62-1.6 1.23-.2.1-.37.2-.54.35-.79.67-.94 1.85-.71 2.81.2.86.74 1.6 1.45 2.07ZM81.48 56.99c.07.76.27 1.5.84 2.14 1.38 1.53 3.94.79 4.44-1.13.05-.25.07-.49.07-.74.15-.15.27-.27.37-.44 1.45-1.95-.54-4.78-2.79-4.46-.49.07-.89.25-1.23.49-.37.12-.71.32-.99.59-.74.57-1.11 1.65-.99 2.61.02.32.12.64.27.94ZM52.2 56.3c.15.57.42 1.04.76 1.43.12.2.27.37.42.57.59.69 1.43.86 2.22.71.39.25.84.44 1.36.52 2.79.37 4.36-2.66 3.08-4.95-.67-1.18-1.92-2.02-3.23-2.24-.57-.27-1.23-.39-1.87-.27-1.41-.59-2.59.52-2.83 1.9-.12.69-.12 1.38.05 2.02.02.12.02.22.05.32ZM57.3 85.09c.64-1.16.22-2.74-.44-3.82-.71-1.13-2.02-1.8-3.35-1.48-.96.22-1.65.91-1.92 1.82-.3.49-.49 1.08-.49 1.68 0 1.48 1.06 2.83 2.49 3.2 1.43.37 2.98-.05 3.72-1.41Z"/><path class="cls-4" d="M62.58 105.11c-1.18-.49-2.22-.15-3.08.57-.44.12-.81.42-1.06.84-.57.2-1.04.54-1.38 1.13-.47.81-.52 1.92 0 2.74.67 1.06 1.77 1.77 2.96 1.9 1.26.86 2.98.54 3.85-.79.54-.81.62-1.95.59-2.91-.1-1.43-.44-2.86-1.87-3.48ZM88.53 99.27c-.86-1.53-2.47-2.59-4.17-1.58-.99.57-1.38 1.48-1.43 2.49-.35.32-.59.71-.69 1.13-.27 1.18.22 2.12 1.16 2.83.54.42 1.23.69 1.9.81.94.17 1.82-.02 2.44-.74a3.17 3.17 0 0 0 1.33-1.87c.3-.57.39-1.23.17-1.95-.15-.49-.39-.86-.71-1.13ZM102.98 86.15c.74.44 1.58.39 2.27.05h.07c.27-.05.52-.15.74-.3.12-.02.22-.07.35-.12.47-.2 1.04-.57 1.23-1.06.27-.62.44-1.16.42-1.85-.02-.62-.2-1.31-.54-1.85-.76-1.23-2.17-2.12-3.7-1.73-1.38.37-2.19 1.65-2.22 3.03 0 .12 0 .22.02.35-.02.05-.05.1-.05.15-.32 1.33.27 2.64 1.41 3.33Zm-.12-2.79c-.05-.12-.02-.1 0 0Z"/><path class="cls-16" d="M123.69 71.07c-.94-.47-2.17-.44-2.93.37-.02.02-.02.05-.05.07-.15.05-.3.15-.44.25-.47.35-.81.74-1.04 1.23-.3.35-.49.74-.54 1.26-.12.86.17 1.48.69 2.14.37.47.96.76 1.58.86.32.12.67.2 1.01.22 1.16.02 2.32-.54 2.96-1.48.2-.17.35-.35.47-.57.2-.39.32-.81.35-1.26.02-.67-.3-1.23-.69-1.73-.32-.62-.76-1.08-1.36-1.38ZM120.87 58.94c.69-.17 1.26-.62 1.65-1.21.15-.1.3-.2.42-.35.57-.57.99-1.65.64-2.44-.02-.02-.02-.07-.05-.12-.02-1.04-.54-2.02-1.53-2.56-.42-.22-.86-.35-1.31-.37-.59-.15-1.23-.15-1.85.02-1.43.42-2.27 1.75-2.27 3.2 0 1.01.39 2.14 1.06 2.88.84.89 2.1 1.23 3.23.94Z"/><path class="cls-4" d="M124.6 93.52c.22-.96-.15-1.95-1.01-2.47-.52-.32-1.11-.42-1.7-.35-.25 0-.49 0-.71.07-.15-.02-.3-.02-.44-.02-1.18.05-2.27.89-2.59 2.05-.57 2.02 1.04 4.26 3.18 4.24 1.92-.05 3.33-1.75 3.28-3.53Z"/><path class="cls-16" d="M136.45 62.44c-.2.35-.32.71-.37 1.08 0 .07-.02.15-.02.22v.25c.02 1.33.86 2.64 1.77 3.55.54.54 1.38.67 2.1.47.69-.05 1.36-.3 1.82-.86.59-.71.86-1.7.64-2.56.74-1.36-.2-2.93-1.53-3.4-1.53-.54-3.5-.3-4.41 1.26ZM141.19 82.46c-.59-.17-1.13-.07-1.63.15-.64-.1-1.28.02-1.85.37-.35.22-.64.54-.89.91-.54.54-.89 1.28-.86 2.05.02 2.19 2.51 3.55 4.41 2.61.27-.05.54-.12.81-.27 1.48-.79 2.1-2.51 1.7-4.09-.17-.84-.89-1.5-1.7-1.73Z"/><path class="cls-4" d="M105.94 104.74c-.71-.22-1.55-.2-2.24.1-.59-.12-1.26.02-1.7.52-.76.84-.96 1.87-.76 2.96.15.74.57 1.5 1.16 1.97.74.59 1.55.94 2.51.94 1.04-.02 1.95-.54 2.59-1.36 1.33-1.75.59-4.46-1.55-5.13ZM75.27 116.08c-.35.32-.57.74-.69 1.18-.69.96-.91 2.29-.52 3.45 0 .02.02.05.02.07.02.15.07.3.15.44 1.06 2.49 4.41 2.02 5.45-.2.44-.91.67-1.97.37-2.96a2.97 2.97 0 0 0-.74-1.26c-.15-.25-.32-.49-.54-.69-.96-.91-2.49-1.01-3.5-.05ZM63.27 129.39c.12-.89.05-1.7-.62-2.37-.57-.57-1.58-.91-2.37-.62-.42.15-.81.37-1.16.62-.76.07-1.48.52-1.87 1.21-.54.94-.49 2.17.12 3.06.1.52.27 1.01.54 1.43.67 1.04 1.77 1.65 3.03 1.28.49-.15.94-.42 1.28-.79a2.91 2.91 0 0 0 1.38-1.65c.17-.71.02-1.58-.35-2.17ZM75.64 145.09h.07s.15.02.17.02.02 0 0 0c0-.02-.05-.05-.22-.12 1.06.47 2.22.39 2.96-.59.47-.62.64-1.6.32-2.37.05-.67-.2-1.33-.74-1.8-.25-.32-.54-.62-.91-.79-.17-.1-.37-.17-.59-.25-.1-.12-.22-.2-.37-.3-.99-.62-2.34-.3-3.13.49-.67.69-.96 1.6-.84 2.51-.12.54-.07 1.16.12 1.6.37.91 1.28 1.53 2.27 1.53.35 0 .62.02.89.05ZM97.6 124.78c-.79-.49-1.73-.54-2.56-.25-.32.05-.64.12-.96.22-.2.02-.39.05-.57.12-.81.25-1.36.91-1.55 1.7-.42.76-.59 1.68-.35 2.54.42 1.5 1.73 2.51 3.28 2.49 1.21 0 2.37-.69 3.23-1.5.69-.64.89-1.68.64-2.56.2-1.08-.22-2.17-1.16-2.76Zm-3.11 6.04s.07.02.12.05c.02.02.07.02.1.05-.1-.02-.17-.07-.22-.1ZM124.62 120.15c1.97-.52 2.34-2.71 1.65-4.36-.39-.94-1.06-1.53-1.87-1.97-.42-.42-.96-.64-1.55-.59-1.18-.22-2.56.62-2.81 1.8-.07.3-.12.62-.2.91-.17.15-.3.32-.44.49-.67.96-.42 2.32.37 3.11.49.52 1.18.79 1.9.79.2.05.39.07.57.1.79.12 1.6.1 2.24-.27.02.02.1 0 .15 0ZM137.88 109.65c.25.15.52.27.79.32.94.22 2.07-.15 2.54-1.04.2-.35.3-.74.3-1.13.02-.37-.1-.69-.25-.99.1-.22.15-.49.12-.74-.02-.49-.17-.91-.44-1.23-.22-.37-.54-.69-.91-.84-.62-.27-1.18-.42-1.85-.25-.17.05-.37.12-.54.22-.67.07-1.28.35-1.8.81-.71.67-.99 1.8-.71 2.74.35 1.13 1.38 1.87 2.51 1.97.1.05.17.1.25.15Z"/><path class="cls-16" d="M154.1 72.79c-.89.22-1.75.81-2.14 1.65-.37.76-.54 1.77 0 2.51.44.59.91 1.13 1.41 1.68.86.96 2.07 1.45 3.33.91 1.68-.71 1.92-2.79 2.51-4.34.32-.86-.05-1.97-.69-2.59-.71-.71-1.63-.86-2.59-.69-.69.15-1.33.44-1.82.86Zm4.04 2.44s0-.05-.02-.07c0-.07-.02-.15-.02-.22.02.1.05.2.05.3Zm-1.7-1.9-.1-.07c.05.02.12.07.22.15-.05-.02-.07-.05-.12-.07ZM155.56 55.39c.62-.81.81-1.85.57-2.83-.05-.17-.1-.35-.17-.52.1-.59.02-1.23-.35-1.68-.02-.05-.05-.07-.1-.12-.54-.71-1.08-1.18-2.02-1.31-.1 0-.2-.02-.3-.02-.3-.05-.59-.02-.91.1-.35.1-.69.27-.94.52-.69.49-1.23 1.13-1.48 2-.42 1.43-.02 2.88.96 3.97 1.31 1.45 3.48 1.53 4.73-.1Zm-4.46-.99c.07.1.12.17.2.25-.07-.07-.15-.15-.2-.25Zm2.98-2.49s0 .12-.02.17c0-.07 0-.12.02-.17Zm-.22.17s.1-.07.15-.12c-.05.05-.1.07-.15.12ZM154.42 96.16c-.59.05-1.18.27-1.63.64-1.95 1.33-1.41 4.26.25 5.65 1.01.86 2.47 1.21 3.67.49 1.21-.69 1.73-2 1.43-3.38-.39-1.65-1.77-3.57-3.72-3.4Z"/><path class="cls-4" d="M143.09 126.56c-.49-.81-1.41-1.36-2.37-1.36-.49 0-.94.12-1.36.37-.27.15-.47.35-.62.54-1.06.52-1.82 1.77-1.8 2.93.02 1.48 1.01 2.93 2.54 3.2.84.15 1.65.07 2.42-.35.69-.39 1.23-1.06 1.43-1.82.15-.54.15-1.08.07-1.58.15-.67.07-1.36-.32-1.95Zm-1.53 2.79s-.02.02 0 0q-.17.2 0 0Zm-3.28-.57-.02-.17c.02.07.02.12.02.17Z"/><path class="cls-16" d="M116.78 133.11c-.99-.81-2.29-1.21-3.48-.52-.27.17-.52.37-.74.59-1.23.2-2.29 1.13-2.22 2.59.05 1.08.54 1.97 1.28 2.59.05.1.1.2.17.3.52.81 1.38 1.26 2.34 1.11.39-.05.74-.2 1.04-.42.12-.02.25-.05.37-.07 1.16-.25 2.47-1.16 2.79-2.34.37-1.38-.49-2.96-1.55-3.82Z"/><path class="cls-4" d="M96.52 149.56c.57-.81.35-2.17-.37-2.83a2.5 2.5 0 0 0-1.11-.59 3.276 3.276 0 0 0-1.8-1.31c-1.18-.37-2.66.42-2.96 1.63-.74.76-1.04 1.92-.69 2.98.52 1.58 2.12 2.54 3.77 2.19.47-.1.94-.3 1.33-.59.17-.12.35-.27.52-.39.49-.2.94-.57 1.31-1.08Zm-1.36 1.13.02-.02-.02.02ZM61.93 149.56c-.49-.84-1.33-1.45-2.44-1.6-.86-.12-1.73.07-2.47.57-1.01.69-1.5 1.65-1.6 2.88-.1 1.16 1.04 2.44 2.22 2.54.12.07.22.17.35.25.57.35 1.23.52 1.9.52 1.95.02 3.4-1.77 2.91-3.67-.15-.57-.44-1.08-.86-1.48ZM118.14 150.62c.59.25 1.16.27 1.68.12.42.17.86.22 1.26.17.86-.12 1.75-.76 1.92-1.65.2-.91.1-1.9-.42-2.71-.05-.07-.1-.15-.15-.22-.15-1.04-.67-2-1.55-2.54-1.33-.81-3.18-.2-3.92 1.13-.32.57-.42 1.13-.35 1.7-.49 1.48-.1 3.3 1.53 3.99Zm-.49-3.25s0-.05-.02-.1c.02.02.05.07.02.1ZM134.9 145.12s-.02-.07-.05-.12c0-.02-.02-.05-.02-.07-.39-.79-1.04-1.43-1.77-1.9-1.58-1.04-4.02.3-3.87 2.22 0 .15.02.27.05.42-.1.3-.17.59-.17.91-.02 1.36.74 2.54 2 3.06 1.21.52 2.22.35 3.13-.67.62-.69 1.36-1.65 1.16-2.44-.1-.47-.25-.96-.44-1.41ZM158.44 125.64c.57-.44.91-1.01 1.01-1.73v-.05c.17-.44.22-.96.07-1.45-.15-.57-.42-1.16-.69-1.68-.62-1.08-1.95-1.6-3.13-1.28h-.02c-.71-.25-1.55-.2-2.17.2a2.63 2.63 0 0 0-1.18 2.88c.12.57.27 1.11.42 1.68.25.99 1.16 1.7 2.12 1.82.3.05.59.02.86-.05.91.35 1.92.27 2.71-.35ZM151.02 142.53c-.1 0-.2 0-.27.02-.3.05-.57.15-.84.27-.37.05-.74.15-1.06.35-.81.52-1.41 1.43-1.36 2.42.05.89.47 1.65 1.13 2.22.12.32.27.62.54.89.54.59 1.36.79 2.12.69.32-.05.62-.15.89-.3.47-.2.86-.52 1.06-.99v-.02c1.53-.94 1.95-2.98 1.13-4.54-.67-1.18-2.17-1.5-3.35-1.01ZM133.15 164.17c-.74-.52-1.95-.39-2.66.2a2.93 2.93 0 0 0-1.5.37c-2 1.08-1.6 3.8-.22 5.18.64.64 1.48 1.16 2.37 1.28.39.05.81.02 1.21-.07.76.02 1.55-.25 2.12-.86 1.77-1.92.62-4.78-1.31-6.09Z"/><path class="cls-16" d="M97.38 171.77c1.18.91 2.56.81 3.45-.44 1.53-2.14.52-6.04-2.32-6.43-1.92-.25-3.11 1.7-3.08 3.4.02 1.13.54 2.29 1.43 3.01.17.15.35.32.52.47Z"/><path class="cls-4" d="M80.57 160.23c-.2-.47-.67-.79-1.16-.99-.37-.2-.76-.32-1.18-.32-.86 0-1.65.44-2.12 1.16-.17.1-.32.2-.49.3-.81.64-1.38 1.7-1.28 2.76.15 1.68 1.48 2.91 3.16 2.88 1.31-.02 2.56-.89 3.11-2.05 0 0 0-.02.02-.02.2-.22.37-.52.49-.84.2-.57.12-1.08-.1-1.53-.07-.49-.25-.91-.44-1.36ZM153.22 164.37c-.12-.2-.27-.37-.44-.54-.37-.37-.81-.67-1.31-.81-.47-.15-.96-.15-1.41-.07-.05 0-.1 0-.15-.02-.25-.05-.49-.05-.74 0-.3 0-.57.05-.84.1-.71.12-1.28.76-1.55 1.41-.32.76-.2 1.41.12 2.14.76 1.75 2.74 2.96 4.59 2.34.02 0 .05 0 .07-.02.02 0 .05-.02.07-.02s.05-.02.1-.02c.12-.05.25-.1.37-.17 1.7-.02 2.59-1.92 1.85-3.38-.27-.37-.49-.67-.74-.91Z"/><path class="cls-16" d="M136.87 38.95c-.52.07-1.04.27-1.5.59-.96.32-1.6 1.18-1.53 2.17-.17 1.01.2 2 .91 2.66.05.07.07.12.12.2.57.81 1.53 1.21 2.47.81.32-.12.62-.37.84-.67.07-.05.17-.12.25-.17.35-.15.67-.37.94-.69.71-.79.96-1.95.67-2.96-.44-1.36-1.77-2.14-3.16-1.95ZM106.7 46.91c.86.42 1.95.35 2.71-.37.91-.84 1.11-2.27.49-3.35-.02-.05-.05-.07-.07-.12-.02-.07-.05-.12-.07-.2-.1-.39-.22-.81-.44-1.11-.35-.49-.74-.86-1.36-1.04-.54-.15-1.26-.07-1.73.22-.64.42-1.01 1.04-1.08 1.73-.47.47-.74 1.08-.76 1.77 0 1.26 1.08 2.29 2.32 2.47ZM69.18 46.86c.1.07.22.15.35.2.02.05.05.1.07.15.59 1.11 2.22 1.53 3.28.86.86-.57 1.26-1.48 1.13-2.42.27-.52.42-1.13.39-1.75-.05-1.73-1.41-3.23-3.23-2.88-.71.12-1.26.62-1.65 1.21v.02c-.49.3-.84.76-1.01 1.28-.1.15-.2.3-.27.44-.49 1.13-.02 2.22.94 2.88Zm5.05-2.49v.05c.02-.12.02-.17 0-.05ZM45.47 65.96c-.54-.27-1.23-.39-1.85-.22-1.08-.07-2.17.39-2.76 1.36-.57.94-.52 2.1.05 3.01v.12c-.1 1.16.96 2.14 2.02 2.29.94.12 2.02-.37 2.44-1.26.1-.07.17-.15.25-.25.44-.27.76-.71.96-1.18.22-.52.17-.99 0-1.45.2-.91-.3-2-1.11-2.42ZM45.07 94.83c-1.58.44-2.56 2.1-2.1 3.7.02.12.07.22.12.35.1.69.44 1.33 1.04 1.8.2.15.39.27.62.37.25.15.49.27.76.37.22.02.44.05.64.1.35 0 .64-.05.94-.22.47-.2.94-.54 1.18-1.01.02-.07.07-.15.12-.22.25-.3.39-.62.54-.96.12-.37.15-.79.05-1.16 0-.52-.15-1.04-.37-1.5-.07-.12-.15-.25-.22-.37v-.02c-.12-.17-.25-.32-.39-.49-.22-.25-.49-.42-.79-.52-.17-.07-.35-.12-.54-.17-.52-.15-1.08-.17-1.6-.02Z"/><path class="cls-4" d="M43.77 119.51v.02c-.47.25-.84.62-1.13 1.11-.81 1.5-.1 3.4 1.58 3.87.42.12.86.2 1.31.27.91.2 1.82.02 2.51-.67.27-.27.47-.57.57-.91.07-.1.12-.17.2-.27l.15-.3s.07-.05.12-.05c.89-.49 1.16-1.5.99-2.42-.25-1.23-1.41-2.12-2.64-2.34-1.41-.59-3.18 0-3.65 1.68ZM46.38 138.78c-.67-.44-1.53-.37-2.24-.02-1.08.05-2 .76-2.37 1.82-.67 2 .71 4.49 2.81 4.88 1.5.3 2.91-.64 2.96-2.24v-.37c.2-.3.32-.64.37-.99.07-.49-.02-.96-.22-1.36-.2-.69-.67-1.28-1.31-1.73ZM172.52 111.67c-.02-.17-.07-.35-.12-.49.27-1.48-.35-3.13-1.82-3.85-.86-.42-1.77-.49-2.64 0-.47.27-.89.76-1.11 1.28-.52.32-.91.81-1.16 1.45-.52 1.36.2 2.64 1.33 3.3.2.15.42.27.64.37.02.02.07.02.1.05.79 1.04 1.97 1.58 3.25 1.04 1.28-.57 1.75-1.82 1.53-3.16Z"/><path class="cls-16" d="M172.57 86.92c-.12-.44-.35-.81-.67-1.11l-.15-.15c-.35-.94-1.43-1.48-2.39-1.33-1.43-.27-2.86.52-3.43 1.87-.52 1.23-.3 2.66.69 3.62.42.42 1.01.74 1.6.91.69.2 1.23.12 1.92 0 .49-.07 1.11-.57 1.41-1.01.12-.1.25-.2.37-.32.57-.74.89-1.58.64-2.49ZM167.19 66.26c.64.44 1.45.47 2.17.22.49.12.94.12 1.48-.1.62-.25 1.26-.84 1.36-1.53.07-.52.12-.94.02-1.43-.05-.22-.15-.44-.25-.64 0-.02.02-.07.02-.12.02-.05.02-.07.05-.12.22-.64.02-1.36-.39-1.9-.52-.67-1.5-1.01-2.34-.79-.49-.15-1.04-.17-1.6 0a3.395 3.395 0 0 0-2.42 3.08c0 1.36.81 2.61 1.9 3.33Z"/><path class="cls-4" d="M171.63 136.89c-.05-.15-.12-.3-.2-.42-.35-.52-.81-.91-1.43-1.06-.52-.15-1.06-.07-1.53.15-.69-.15-1.45 0-2.02.47-.35.27-.59.59-.76.99-.25.54-.22 1.01-.12 1.6.12.91.64 1.85 1.31 2.47.32.3.67.49 1.04.59.62.52 1.45.79 2.27.54 1.95-.62 2.71-2.79 1.75-4.54-.02-.05-.07-.12-.1-.17-.05-.22-.12-.42-.2-.62ZM60.63 168.12l-.05-.05c-.2-.42-.47-.81-.86-1.11-.15-.15-.32-.3-.52-.39a2.32 2.32 0 0 0-.89-.32c-.25-.07-.52-.12-.76-.1-1.11.05-2.07.64-2.59 1.6-.25.49-.49 1.01-.71 1.5-.3.62-.49 1.36-.27 2.05.22.64.62 1.26 1.23 1.58 1.75.96 4.09.54 5.18-1.23.07-.1.12-.22.17-.35.12-.12.2-.27.27-.39.3-.49.37-1.06.3-1.6-.07-.44-.22-.81-.49-1.18Z"/><path class="cls-16" d="M170.67 161.46c-.17-.62-.52-1.18-.99-1.6-.25-.22-.49-.37-.74-.54l-.05-.05s.02.02.02.05c0 0-.02 0-.02-.02-.2-.2-.39-.39-.64-.54a2.92 2.92 0 0 0-1.85-.35c-.52.07-.96.25-1.38.57-.49.37-.74.81-.99 1.36-.2.32-.3.71-.3 1.16.02 1.08.37 2.27 1.18 3.03.94.91 2.27 1.28 3.5.86 1.68-.52 2.71-2.22 2.24-3.92Zm-1.68-2.07.05.05c-.02-.02-.05-.02-.05-.05ZM45.22 167.08c.25-1.26-.05-2.51-.91-3.48-.86-.94-2.19-1.31-3.43-1.04-.74.17-1.41.59-1.9 1.16-.37.25-.69.57-.94 1.01-.39.71-.47 1.58-.25 2.34.27 1.01.99 1.97 1.95 2.42 1.18.54 2.51.59 3.67-.05.89-.47 1.6-1.36 1.8-2.37Zm-1.38-1.38s0 .07.02.1c-.05-.12-.07-.27-.12-.39.02.1.07.2.1.3Zm.05.17s0-.02 0 0c-.02-.17-.05-.32-.05-.47 0 .15.02.3.05.47ZM38.76 40.57c-.42 1.06-.17 2.39.42 3.35.02.05.07.1.1.17.59 1.38 1.8 2.54 3.4 2.49 1.06-.02 1.95-.54 2.59-1.36.69-.91.86-1.97.69-3.08-.27-1.55-1.63-2.64-2.98-3.25-1.8-.84-3.5-.17-4.22 1.68Zm4.51 1.13Zm-.2-.32.02.02s-.02 0-.02-.02Zm.84-.81s-.02-.02-.05-.02c-.02-.05 0-.07.05.02ZM166.77 43.26c.81 1.26 2.34 1.77 3.77 1.43 1.63-.39 2.44-2.12 2.47-3.67.02-1.41-.62-2.83-1.85-3.55-1.43-.84-3.35-.62-4.51.54-1.41 1.38-1.41 3.7-.02 5.1.02.05.1.1.15.15ZM184.3 73.04c-.42-.22-.91-.32-1.38-.27-.02-.02-.07-.02-.1-.05-.94-.39-2.07.17-2.74.81-.67.62-.96 1.55-.96 2.44 0 1.68 1.08 3.28 2.71 3.75 1.58.47 3.45-.32 4.19-1.8.86-1.77 0-3.99-1.73-4.88Zm-2.59 3.77s.07.1.1.12c-.02-.02-.05-.07-.1-.12ZM185.66 49.57c-.32-.42-.62-.74-1.11-.96-.47-.2-1.04-.27-1.53-.12-.37.12-.69.32-.94.54-.67.17-1.23.62-1.58 1.23-.79 1.43-.3 3.06.99 3.97.99.69 2.47.74 3.5.12.42-.25.79-.59 1.06-1.01.39-.62.44-1.31.25-2.02-.17-.54-.3-1.28-.64-1.75ZM187.8 25.96c-1.55-1.65-4.76-1.45-5.74.74-.27.62-.44 1.21-.25 1.9.02.07.05.15.07.22.15 2.34 2.69 3.72 4.78 2.83 2.22-.91 2.76-3.97 1.13-5.69Zm-1.82 3.67c.12-.12.25-.27.35-.42-.1.12-.17.22-.27.35l-.07.07Zm-.12.12c.1-.02.17-.07.27-.12-.07.05-.17.1-.27.12ZM183.88 97.22c-.54-.1-1.06-.07-1.53.07-.47.05-.91.2-1.31.42-.96.57-1.58 1.58-1.58 2.71 0 .94.37 2 1.08 2.66 1.6 1.53 4.34 1.26 5.37-.79.44-.86.57-1.87.27-2.81-.3-1.06-1.21-2.1-2.32-2.27Z"/><path class="cls-4" d="M183.27 122.46c-.42-.12-.81-.15-1.31-.05-.47.1-.94.37-1.26.74-.62.69-.91 1.55-.79 2.49 0 .07.02.15.05.22-.05.57.07 1.13.35 1.6.42.71 1.11 1.23 1.92 1.43 1.8.42 3.72-.71 3.99-2.59.15-1.04-.22-1.95-.91-2.74-.57-.64-1.28-.96-2.05-1.11Z"/><path class="cls-16" d="M185.02 151.08c-.59-.64-1.58-.91-2.42-.69-.76.2-1.28.67-1.73 1.28-.2.17-.37.35-.49.57-.64.96-.62 2.12-.17 3.08.07.25.17.47.32.67 1.04 1.63 3.25 2.02 4.68.67.99-.94 1.01-2.29.67-3.5-.07-.79-.37-1.53-.86-2.07ZM182.38 175.64c-.84-.47-1.9-.54-2.79.05-.91.62-1.48 1.7-1.38 2.81.1 1.21.67 2.14 1.63 2.86 1.8 1.33 5.23 1.04 5.57-1.58.27-1.92-1.18-3.94-3.03-4.14ZM160.59 178.08c-.57-.25-1.28-.05-1.8.27-.15.05-.3.12-.44.2-1.11.64-1.55 1.9-1.33 3.11.17.86.76 1.65 1.43 2.19.94.76 2.05 1.33 3.28.99 1.04-.3 1.8-1.18 2.05-2.24.27-1.13-.07-2.34-.89-3.16-.62-.69-1.45-1.01-2.29-1.36Z"/><path class="cls-4" d="M142.76 180.02c-.1-.15-.2-.3-.35-.44-.22-.27-.47-.47-.84-.59-.25-.07-.42-.07-.69-.12.54.07-.3-.02-.49 0-.81.1-1.5.54-2.12 1.06-.57.49-1.06 1.08-1.31 1.8-.37 1.04.07 2.19.91 2.86.74.57 1.75.76 2.64.49.91-.27 1.58-.94 2.07-1.7.49-.79.76-1.68.54-2.59-.07-.3-.2-.54-.37-.76ZM114.88 178.3c-1.13-.94-2.81-.94-3.99.1-1.8.32-2.32 2.42-1.36 3.87.91 1.36 2.66 2.1 4.24 1.82 1.75-.3 3.08-2.05 2.66-3.82-.2-.86-.81-1.58-1.55-1.97ZM88.02 180.25c-.1-.22-.25-.39-.47-.54-.79-.57-1.85-.76-2.76-.49-1.16.35-1.95 1.45-1.97 2.66-.02 1.11.57 2.22 1.58 2.74.1.05.2.1.3.12.47.25.99.42 1.5.44 1.58.1 2.93-1.21 2.88-2.79 0-.86-.44-1.58-1.06-2.14Zm-1.92 1.53s-.02 0-.02-.02l.02-.02s0 .02-.02.02c.02 0 .02.02.02.02Zm-.02-.05Zm.35-.02s.02 0 .02.02l-.02-.02ZM69.92 182.12c-.07-.05-.15-.07-.25-.12-.1-.02-.15-.05-.17-.05-.1-.07-.2-.15-.37-.2-.35-.1-.79-.02-1.13.07-.49.15-.91.44-1.26.81-1.48 1.08-2.07 3.11-1.11 4.73.27.44.62.74 1.04.86.25.2.49.37.76.52 1.55.76 3.5.32 4.41-1.21.71-1.21.67-2.79-.07-3.99a3.297 3.297 0 0 0-1.85-1.43ZM50.64 183.75c-.37-1.38-1.82-2.27-3.2-2.14-.74.07-1.41.37-1.9.81-1.06.57-1.77 1.65-1.43 3.03.15.59.49 1.11.94 1.48.42.74 1.06 1.31 1.92 1.53 1.95.49 3.72-1.11 3.87-3.01.02-.35 0-.67-.1-.99 0-.25-.02-.49-.1-.71Zm-2.61.64c.02.12-.02.17 0 0Zm0 0c.02.07.02.12 0 0Z"/><path class="cls-16" d="M30.04 179.11c-1.31-.74-3.08-.74-4.19.32-.99.96-1.08 2.29-.59 3.43.1.71.42 1.41.99 1.95 1.18 1.13 2.98 1.04 4.22.12 1.48-.15 2.56-1.63 2.12-3.18-.32-1.23-1.36-2.19-2.54-2.64ZM33.46 151.16c-.69-.49-1.65-.64-2.59-.57-.84-.17-1.73.02-2.47.71-.2.2-.37.42-.49.64-1.04 1.16-1.38 2.83-.52 4.26.89 1.45 2.83 1.92 4.36 1.28.57-.25 1.04-.62 1.38-1.06.15-.12.32-.25.47-.37 1.38-1.38 1.58-3.7-.15-4.91ZM27.55 130.03c-.22.2-.42.44-.57.69-.25.22-.42.49-.47.81v.07c-.27.39-.44.86-.44 1.36 0 1.36 1.13 2.44 2.44 2.56.64.07 1.28-.1 1.82-.42.37-.22.71-.52.94-.86.12-.15.22-.32.3-.49.57-1.16.54-2.64-.37-3.62-1.04-.99-2.59-1.04-3.65-.1ZM33.78 114.01c.25-.05.52-.17.76-.32 1.63-1.04 1.5-3.4.27-4.68-1.18-1.26-3.25-1.48-4.54-.22-1.11 1.06-1.33 2.86-.57 4.17.81 1.43 2.66 1.75 4.07 1.06ZM31.76 83c-1.16.3-1.5 1.45-1.26 2.49-.39.62-.59 1.38-.47 2.14.25 1.58 1.8 2.66 3.35 2.05.3-.12.54-.27.79-.44.12.05.25.07.39.12.79.2 1.63-.27 1.85-1.06.52-1.82-.1-5.52-2.61-5.4-.27.02-.49.07-.71.17-.42-.15-.89-.2-1.33-.07ZM29.17 58.15c-.39.2-.74.49-1.01.94-.44.71-.49 1.58-.22 2.32-.2.37-.27.79-.22 1.23.07.64.44 1.45 1.18 1.55 1.36.2 2.74-.27 3.53-1.36.2-.17.37-.39.49-.64.49-.89.39-2-.07-2.88-.22-.39-.52-.69-.84-.94-.2-.22-.42-.42-.67-.62-.59-.44-1.58-.22-2.07.27-.05.05-.07.1-.1.12ZM58.26 30.96c-.57-.54-1.5-.71-2.22-.32-.3.05-.59.2-.81.44-.35.42-.62.89-.79 1.38-.12.12-.22.27-.3.44-.69 1.33-.02 3.03 1.41 3.48.22.07.42.1.64.1.3.07.62.1.96.05 1.13-.15 2.1-1.04 2.37-2.14.32-1.28-.35-2.54-1.26-3.43Zm-1.7 2.59.05.05-.05-.05ZM35.51 28.96c1.36.76 3.13.35 4.22-.71 1.26-1.23 1.23-3.25.2-4.61-1.18-1.53-3.7-1.8-4.83-.2-.54.44-.96 1.06-1.13 1.75-.42 1.45.22 3.06 1.55 3.77Zm1.6-3.45ZM27.77 44.15c1.55-.35 2.71-1.92 2.56-3.5-.15-1.63-1.28-2.91-2.91-3.13-1.45-.2-2.83.69-3.23 1.97-.39.71-.52 1.6-.3 2.44.44 1.68 2.22 2.56 3.87 2.22Zm-.67-3.38s.02.07 0 0ZM72.53 28.27c1.13 1.16 2.98 1.18 4.22.17.22-.2.42-.42.57-.67.25-.27.42-.64.47-1.01v-.22c.42-2.07-.69-4.68-2.96-4.73-1.5-.02-2.51 1.23-2.69 2.59-.84 1.18-.64 2.81.39 3.87ZM86.88 40.01c.37.12.71.15 1.06.1.12.02.27.05.39.05 1.31.12 2.42-.57 2.83-1.63.15-.3.22-.62.17-.96 0-.3-.05-.59-.17-.89-.25-.71-.76-1.43-1.38-1.95-.32-.37-.76-.62-1.28-.71-.49-.15-1.04-.2-1.55-.07-1.92.47-2.59 2.59-1.82 4.24.22.81.91 1.55 1.75 1.82ZM121.32 36.53h.15c.25.02.52.02.76-.02.42-.02.79-.17 1.13-.37.02 0 .05-.02.05-.02.12-.07.25-.17.35-.3.64-.59 1.04-1.5.99-2.42-.1-1.7-1.53-2.96-3.23-2.96-2.22.02-3.97 2.22-2.83 4.31.54 1.04 1.55 1.65 2.64 1.77ZM151.84 34.81c2.14 1.26 4.59-1.04 4.14-3.28-.15-.71-.52-1.31-1.06-1.8-.59-.76-1.55-1.23-2.64-.86-.44.15-.74.39-.94.71-.12.15-.25.3-.35.44-.3.47-.37.94-.32 1.41-.42 1.16.05 2.74 1.16 3.38Zm1.04-2.71s-.02 0 0 0v-.02.02s-.02 0 0 0ZM167.39 25.69c.05.1.1.22.17.32 1.18 1.87 4.26 1.21 4.78-.89.05-.25.07-.49.07-.71.02-.15.05-.27.05-.42 0-1.11-.67-2.17-1.73-2.51-.62-.2-1.18-.12-1.7.12-.17.02-.37.05-.54.1-1.5.39-2.39 2.02-1.55 3.43.1.22.27.42.44.57ZM189.82 65.62c.1.17.22.32.37.47 1.26 1.21 3.38.84 4.26-.62.94-1.48.12-3.55-1.33-4.34-1.82-.99-4.12.05-4.41 2.14-.12.91.37 1.8 1.11 2.34ZM191.4 87.46c-.57.05-1.08.27-1.53.71-.59.57-.81 1.31-.74 2.02-.05.91.42 1.82 1.28 2.29.62.35 1.36.44 2.05.3.84.02 1.68-.22 2.27-.79.94-.94 1.06-2.49.37-3.6-.81-1.33-2.47-1.7-3.7-.94ZM190.39 111.86c-.49 0-.94.3-1.16.81-1.06 1.13-1.23 2.96-.07 4.19 1.21 1.26 3.2 1.33 4.46.15.2-.2.35-.42.42-.69.2-.22.37-.52.47-.81.89-2.54-1.95-4.49-4.12-3.65ZM192.09 137.55c-1.92-.59-3.8 1.36-3.45 3.23-.15.59-.1 1.23.2 1.77.71 1.36 2.42 1.77 3.75 1.06.86-.47 1.41-1.36 1.45-2.27.3-1.55-.32-3.3-1.95-3.8ZM192.9 167.21c-.07-.1-.2-.15-.3-.2a.971.971 0 0 0-.37-.07c-.07 0-.17.02-.25.02-.17.05-.3.12-.42.25 0 0-.02.02-.02.05-1.04.15-1.01 1.82.15 1.82.1 0 .17-.02.25-.02.1.05.2.07.32.05.25 0 .49-.1.67-.27.17-.2.27-.42.27-.67v-.25c0-.17-.05-.35-.12-.49-.07-.1-.12-.17-.17-.22ZM175.75 193.31c-1.06-.76-2.56-.76-3.6 0-.07.05-.17.07-.25.15-.57.37-.91.91-1.06 1.5-.37.86-.47 1.85-.17 2.74.42 1.23 1.68 2.07 2.98 1.68.37-.12.69-.32.96-.57.57-.12 1.11-.42 1.55-.86 1.28-1.38 1.11-3.55-.42-4.63Z"/><path class="cls-4" d="M128.86 194.52c-.47-.69-1.23-1.21-2.1-1.31-1.53-.2-2.96.86-3.4 2.32-.42 1.43.22 3.01 1.45 3.8 1.31.84 3.03.57 4.09-.54 1.13-1.21 1.13-3.08-.05-4.26ZM101.67 192.62c-.27-.07-.57-.1-.84-.05-.59-.27-1.21-.37-1.8-.02-.1.05-.2.12-.27.2-.3.1-.54.27-.74.52-1.21 1.01-1.45 2.96-.27 4.12.94.91 2.51.89 3.5.1.91-.27 1.75-1.16 2.02-2 .37-1.23-.42-2.51-1.6-2.86Z"/><path class="cls-16" d="M59.81 201.42c.07-.39.02-.79-.17-1.06-.05-.05-.1-.1-.12-.17-.81-1.6-3.08-2.24-4.59-1.11-.64.49-1.08 1.33-.79 2.12-.2 1.28.57 2.69 1.97 3.13.84.27 1.65.12 2.32-.3.32-.02.64-.12.94-.35.62-.44 1.11-1.43.57-2.17-.07 0-.1-.05-.12-.1ZM38.66 198.39c-.15-.1-.27-.2-.44-.27-.69-.54-1.68-.67-2.54-.39-2.47.79-2.42 3.99-.59 5.25 1.06 1.28 3.25 1.77 4.17.02.17-.32.27-.69.27-1.04.71-1.26.22-2.76-.86-3.57ZM18.13 166.71c-.02-.1-.07-.22-.12-.32-.22-.74-.62-1.45-1.26-1.95-.91-.74-2.05-.64-2.71.35-.39.57-.74 1.21-.96 1.9-.05.12-.1.27-.15.39-.12.32-.15.67-.1 1.01 0 .57.12 1.11.44 1.63.84 1.38 2.71 2.17 4.19 1.31 1.45-.89 1.7-2.96.67-4.31 0 .02 0 0 0 0ZM16.11 74.69c-.79-.05-1.55.59-1.75 1.33 0 .02 0 .05-.02.07-.1.12-.2.22-.27.37-.12.2-.22.39-.3.59-.44.47-.74 1.21-.49 1.82.32.76.74 1.28 1.38 1.63.02.05.07.12.1.17.47.89 1.7 1.16 2.54.67.62-.35.89-.94.89-1.53.71-.62 1.08-1.55.94-2.54-.25-1.53-1.53-2.51-3.01-2.59ZM15.89 106.37c.71-.2 1.26-.69 1.68-1.28.15-.1.27-.2.42-.32.49-.47.62-1.13.47-1.75.12-.86-.05-1.75-.71-2.44-1.28-1.38-3.35-1.11-4.41.15-.07.07-.15.17-.2.27-.22.35-.39.76-.47 1.23-.02.22-.02.42-.02.64-.27 1.82 1.21 4.07 3.25 3.5ZM9.85 126.14c0 .42.07.81.25 1.18-.02.39.07.79.37 1.16.44.57 1.31.89 2 .62h.15c.64 0 1.26-.2 1.77-.54.62-.1 1.13-.52 1.36-1.23.22-.79.15-1.63-.27-2.24-.02-.05-.02-.07-.05-.12.22-.49.22-1.06-.07-1.58-.79-1.38-2.81-1.43-3.75-.2-.54-.02-1.11.22-1.45.69-.35.47-.49 1.26-.22 1.82-.05.15-.07.3-.07.44ZM52.62 12.47c.07.86.74 1.8 1.7 1.7.35-.02.67-.07.99-.15.76.25 1.68.07 2.37-.64.27-.3.47-.62.57-.96.44-.69.57-1.5.44-2.37-.15-1.01-1.43-1.43-2.32-1.08-.05-.05-.1-.1-.12-.15-.44-.52-1.48-.69-2.05-.27-.76.59-1.28 1.38-1.26 2.34-.25.49-.37 1.04-.32 1.58ZM93.88 18.56c.91-.27 1.6-.99 1.9-1.87.44-.42.71-.99.69-1.65-.02-.86-.62-1.38-1.31-1.48-.15-.2-.3-.37-.47-.52-.54-.49-1.28-.67-1.97-.37-.54.22-1.04.79-1.11 1.38-.12.07-.22.15-.32.25-.84.79-.94 2.12-.37 3.11.59 1.04 1.82 1.5 2.96 1.16ZM105.32 28.25c1.41.96 3.23-.07 3.67-1.55.02-.05.02-.1.02-.15.05-.02.1-.05.17-.1.86-.54 1.21-1.7.69-2.61-.1-.17-.2-.32-.32-.44-.12-.44-.35-.84-.69-1.18-.35-.35-.74-.52-1.16-.59-.67-.3-1.48-.22-2.02.37-.57.62-.86 1.41-.84 2.17-.02.07-.05.17-.07.27-.05.2-.07.39-.05.57-.07.22-.12.42-.17.59-.02.12-.05.25-.05.37-.27.84.05 1.75.81 2.29ZM134.61 24.43c.42.52 1.04.84 1.7.94.67.12 1.36.02 1.97-.32.62-.35.99-.94 1.16-1.58.05-.12.07-.22.1-.35.32-.59.3-1.33-.17-1.9-.02-.96-.49-1.9-1.53-2.32-1.11-.47-2.51-.17-3.33.76-.84.99-.96 2.44-.52 3.65.12.39.35.79.62 1.11ZM150.63 11.02c.07 1.43 1.21 2.76 2.69 2.81 1.41.02 2.64-1.08 2.83-2.42.15-.32.22-.67.22-1.06 0-.49-.17-.89-.42-1.23.02-1.43-1.28-2.64-2.81-2.27-.94.22-1.6.86-1.95 1.68-.05.05-.07.1-.12.17-.27.3-.44.67-.37 1.11 0 .1.02.2.05.32-.07.25-.12.57-.12.89ZM183 14.62c.49.1.99.07 1.43-.1h.1c.32-.02.62-.12.86-.27h.1c.99-.15 1.33-1.45.89-2.19-.12-.22-.3-.44-.47-.64-.1-.2-.22-.37-.35-.52-.05-.76-.39-1.55-1.28-1.55-.25 0-.49.05-.71.17-.96-.12-2 .25-2.47 1.13s-.35 1.97.22 2.76c.35.59 1.01 1.06 1.68 1.21ZM200.52 39.81c.02-.57-.37-1.16-1.01-1.13-.05 0-.1 0-.15.02-.67-.32-1.45-.37-2.1 0-1.26.07-2.32 1.01-2.37 2.32-.07 1.28.81 2.39 2.02 2.76.32.1.64.12.96.1.12 0 .22 0 .35-.02.47.15 1.01.12 1.43-.15 1.26-.91 1.6-2.59.86-3.89ZM13.84 149.85c1.38-.37 2.42-1.68 2.47-3.11.02-.86-.27-1.7-.81-2.34-.1-.3-.25-.59-.42-.86-.59-.81-1.65-1.01-2.39-.54-.89 0-1.73.32-2.22 1.16-.32.54-.42 1.21-.35 1.87-.02.07-.05.15-.05.2-.3.42-.39.96-.27 1.53.2 1.04.99 1.73 1.95 2.07.25.1.52.1.79.05.39.12.86.1 1.31-.02Z"/></g><path class="cls-8" d="M108.3 33.47c.79 1.53 1.9 3.38 1.41 5.13"/><path class="cls-21" d="M99.53 44.42c.96 0 .96-1.48 0-1.48s-.94 1.48 0 1.48ZM81.95 42.94c-.99-.1-1.06 1.48-.07 1.48 1.01.1 1.08-1.48.07-1.48Z"/><path class="cls-8" d="M109.34 38.82c.07.39-.1.81-.39 1.08-.37-.91-.52-1.92-.42-2.91"/><path class="cls-22" d="M93.49 58.05c1.6-.02 1.6 2.49 0 2.47-1.6.02-1.6-2.49 0-2.47Z"/><path class="cls-22" d="M93.49 60.89c-2.1.02-2.1-3.25 0-3.2 2.1-.02 2.1 3.25 0 3.2Zm0-2.47c-1.13-.02-1.13 1.75 0 1.73 1.13.02 1.13-1.75 0-1.73Z"/><path class="cls-21" d="M90.16 55.32c-4.61-.69-1.48-4.14-1.63-7.81 0-.35.27-.62.62-.62s.62.27.62.62c0 1.95-.84 5.25-.91 5.5-.17.64.52.99 1.41 1.11.71.07.64 1.23-.1 1.21Zm-1.9-2.56Z"/><path d="M90.97 13.58c-.15-.44-.64-.71-1.08-.57L61.27 22.2c-.37.12-.62.47-.59.86l.71 16.84c0 .1.02.2.05.27-1.04.35-1.8 1.31-1.8 2.47 0 1.04.59 1.92 1.45 2.34L55.4 55.51c-.17.3-.12.67.07.94a6.317 6.317 0 0 0 4.95 2.42c.49 0 1.01-.05 1.5-.17l1.26-.32c.2-.05.39-.17.52-.35l.94-1.38.64.59c.22.22.54.27.86.17l2.51-.81c.25-.07.44-.25.52-.49.1-.22.07-.49-.02-.71l-5.42-10.6a2.61 2.61 0 0 0 1.11-2.12c0-1.16-.76-2.12-1.8-2.47.05-.1.07-.22.05-.35l-.69-16.2 28-9c.47-.12.71-.62.57-1.08Z" style="fill:#654c69"/><path class="cls-23" d="M34.05 125.27c-.79.96-6.24 1.04-7.64 2.54-1.36 1.45-2.54 4.95-3.3 5.87-.25.3-.49.59-.59.96-.15.44-.05.94.05 1.41.39 1.85.76 3.72 1.5 5.47.74 1.75 3.6 4.49 5.2 5.52"/><path style="fill:#bf7326" d="m110.87 160.13-70.31-32.32 14.25-4.11 49.89 22.92 6.17 13.51z"/><path class="cls-5" d="M63.73 55.54c-.1 0-.02-.1-.12-.1h-.02l-.02.02v.05s0 .05.02.07c0 .02.05 0 .1 0 .02-.02.02-.05.05-.05ZM64.77 55.36s.02.02.05.02h.02l.02-.02s-.05-.02-.1-.02c0 0-.02 0 0 .02-.02-.02-.02 0 0 0ZM64.62 54.63s.02-.02.02-.05h-.05l-.02.02s.02 0 .05.02ZM63.71 55.41s0 .02 0 0v.05l.02.02.02-.02v-.05s-.02-.02-.05 0c0-.02 0 0 0 0ZM64.57 54.43l.02-.02h-.05s-.02 0-.02.02h.05ZM63.44 54.43v.02l.02.02s0-.02.02-.05h-.05ZM65.11 56.15s.02 0 .02-.02h-.05l-.02.02h.05ZM64.03 55.54s-.02 0 0 0h-.05l.02.02s.02 0 .02-.02ZM63.91 55.39l.02-.02s0-.02-.02-.02c0 0-.02 0-.02.02l.02.02ZM63.78 55.39h.02-.02s.02 0 0 0ZM65.19 55.86s.02 0 .02-.02l-.02.02ZM63.27 52.36s0 .05.05.02h.02s-.02-.05.02-.07h-.02c-.07 0-.1.02-.07.05ZM63.17 51.84s.05.05.07.02v-.02h-.05s0-.02.02-.02v-.02h-.05c-.07.02-.02.02 0 .05ZM63.34 52.43s0-.02-.02-.02v.05s.02 0 .05.02h.02s-.05-.02-.05-.05ZM63.51 53.61l-.1.07h.07l.02-.02s.02-.02 0-.05ZM63.32 53.89s-.02 0 0 0v.05s0 .02.02.02h.05s-.05-.1-.07-.07ZM63.27 52.23s-.02 0-.02.02l.02-.02.02.02s-.02.02 0 .02c0 0 .02 0 .02-.02.02-.02 0-.02-.05-.02ZM63.24 53.2h-.05s-.02.02-.02.05.05 0 .07-.05c0 .02 0 0 0 0ZM63.56 52.55s0-.02 0 0c-.05-.02-.07-.02-.1.02h.02l.07-.02ZM64.15 53l.02-.05h-.02s-.02.02-.02.05h.02ZM63.61 54.23s0-.02 0 0c0-.02-.02-.02-.05-.02h-.02v.02s.02 0 .05.02c0-.02.02-.02.02-.02ZM63.17 51.45s.02 0 0 0l.02-.05-.02-.02-.02.02.02.05ZM63.02 51.59l-.02.02v.02l.02-.05ZM63.44 53.71v.02l.02.02s0-.02.02-.02l-.05-.02ZM63.07 51.69s-.02 0-.02.02l.02-.02s0 .02 0 0c0 .02 0 0 0 0ZM63.41 53.24s0-.02 0 0h-.02l.02.02v-.02ZM63.29 53.76s-.02 0 0 0c-.02.02 0 .02 0 .05 0-.02.02-.02.02-.02l-.02-.02ZM63.34 53.98s-.02 0 0 0c-.02.02 0 .02 0 .05v-.05ZM63.24 52.21s.02 0 0 0ZM63.66 54.06s-.02-.02 0 0h-.02.02ZM63.27 52.63s.02.02 0 0ZM63.44 53.29s0-.02 0 0h-.02.02ZM63.41 52.55s0 .02 0 0ZM63.27 52.11s0 .02 0 0h.02-.02ZM63.27 53.15h-.03l.03.02v-.02zM63.22 53.15h.02-.02c.02 0 0 0 0 0ZM63.12 52.9s0 .02 0 0c0 .02 0 0 0 0ZM63.78 53.79l-.02.02s.05 0 .02-.02c.02.02.02 0 0 0ZM63.88 53.44s.02 0 .05-.02h-.02l-.02.02c-.02 0 0 0 0 0ZM63.86 53.29s0-.02 0 0ZM63.36 54.43s0 .02.02.05c0 0 0-.02.02-.02l-.05-.02ZM63.34 54.38h-.02s0 .02.02.05l.02-.02s-.02 0-.02-.02ZM63.56 54.23s-.02 0 0 0h-.02.02ZM64.4 54.33s0-.02 0 0ZM64.5 54.45s.02 0 .02-.02l-.02.02ZM64.5 54.28h.05s-.02-.02-.05 0c.02-.02 0 0 0 0ZM64.15 56.89s.02 0 0 0c0-.02-.07-.02-.12-.02-.02.05.05.07.12.02.02 0 0 0 0 0M64.6 56.47c-.02.1-.27 0-.35 0-.07.02-.15.07-.12.1.02.07.27-.02.35.02.02.02 0 .15.15.1.07-.02.05-.15 0-.15v.02"/><path class="cls-6" d="m64.52 44.81-.02-.05.02.05ZM64.42 44.69s.05.1.07.17c-.02-.07-.02-.05-.05-.12 0 0 .02.02.02.05 0-.02.02 0 0-.02h-.02l-.02-.07ZM64.05 44.64s.02.05.05.1c0-.02-.02-.05-.02-.05s0-.02-.02-.05ZM63.88 44.74s-.02-.02 0 0ZM60.46 44.99l.02-.03-.02.03zM62.33 45.09v.15-.15ZM63.04 44.94v.02-.02ZM60.78 45.48s0-.05.02-.05c-.02.02-.05.05-.02.05ZM64.42 44.86v.02-.02ZM63.04 45.6s-.02-.02-.02-.05v.02l.02.02ZM64.1 44.99s.02.02 0 0c.02.02 0 0 0 0ZM64.18 44.96s0 .02 0 0ZM63.61 45.18v.02s.02 0 0-.02ZM64.4 44.89s.02 0 0 0ZM64.4 44.91s.02.05.02.02v-.02s-.05-.05-.02 0ZM64.15 44.69h.02l-.02-.05c-.05-.07.02.05 0 .05ZM64.1 44.67s-.02-.02-.02-.05l.02.05ZM63.71 44.84l-.02-.05s0 .02.02.05ZM63.76 45.18l.02.03-.02-.05v.02zM62.87 45.01l.02.07s-.02-.1-.02-.07ZM61.71 45.06v-.02l-.02.02h.02z"/><path d="m127.46 126.24 3.13-1.65c-.49-2.05-1.58.79-3.62 1.26l-63.28 14.84c-2.05.49-3.45.79-2.98 2.83 3.99 3.18 9.24 4.36 14.22 3.2l4.24-.99 40.55-9.61a16.68 16.68 0 0 0 10.92-8.46l.02-.05c-.39-1.82-1.53-1.75-3.2-1.38Z" style="fill:#a3b2b4"/><path class="cls-11" d="m109.36 137.97 4.61-1.08-1.92-8.18-33.75 7.91 1.92 8.18 4.61-1.08c2.32-.54 4.59.62 5.05 2.64l2.29 9.79 16.1-3.77-2.29-9.79c-.44-2.02 1.06-4.07 3.38-4.61Z"/><path class="cls-15" d="m84.84 143.71-4.61 1.08 2.83 12.1c.17.71.99 1.16 1.82.96l7.3-1.7-2.29-9.79c-.47-2.02-2.74-3.2-5.05-2.66ZM113.97 136.89l-4.61 1.08c-2.32.54-3.82 2.61-3.38 4.61l2.29 9.79 3.48-.79c.84-.2 1.38-.94 1.23-1.68l.99-13.02Z"/><path d="m63.12 136.49 62.49-14.67c2.27-.54 4.54.86 5.08 3.13s-.86 4.54-3.13 5.08L65.07 144.7c-2.27.54-4.54-.86-5.08-3.13s.86-4.54 3.13-5.08Z" style="fill:#bbdbdf"/><path class="cls-6" d="M60.26 40.16s.02.07.02.05l-.02-.05ZM60.36 40.28s-.02-.1-.05-.17c.02.07 0 .05.02.12 0 0-.02-.02-.02-.05 0 .02-.02 0 0 .02.02.05.05.05.02 0 .02.05.02.07.02.07ZM60.7 40.38s-.02-.07-.02-.1v.05s.02.02.02.05ZM60.9 40.3s.02.02 0 0ZM64.33 40.52l-.03.03.03-.03zM62.5 40.18s.02-.07 0-.15c0 .02-.02.12 0 .15ZM61.76 40.23v-.02s-.02 0 0 .02ZM64.05 40.01l-.02.05c.02-.02.05-.05.02-.05ZM60.38 40.11v-.02.02ZM61.79 39.56ZM61.86 39.56s0 .02.02.05v-.02l-.02-.02ZM64.23 53.61s-.02.05-.02.07c.02-.05.05-.07.02-.07Z"/><path class="cls-6" d="M64.67 55.54c.32-1.5-.27.22-.15-.59-.27-.15-.05-.1.02-.17.07-.27-.44 0-.05-.25-.35 0 .05-.1.02-.27-.37.35-.12-.25-.39-.15.07-.17.42.15.22-.15-.25-.12-.07.17-.25 0-.07-.15.35-.02.17-.12-.25 0 .02-.17-.25-.17.49-.59-.59-1.73-.64-2.49-.32-.47.05.39-.25-.1.17.37-.2.71-.02.17-.17-.12-.12.64.25.37-.59.44-.35.37-.3 1.06.32.05-.12-.47.1-.59-.3-.12.22-.02 0-.17.2-.2.1.64.27.3 0-.17.05-.02.05.05-.27.22.05.15.2.39.02.22-.27-.25-.25-.05-.37 0 .02.12.22.42.05-.02-.2-.32.07-.15-.07-.02 0 .12.05.3-.3-.05-.2.02-.32-.22-.27-.54.1 1.04.1.35.3.52-.42-.07.02.57-.27-.22.02.15-.2.12-.02 0 .49.74.67 1.08-.32.2.49 1.48-.15.57-.47-.37-.17 1.63.25 1.06.02.02.12-.05.07-.07 0 0-.02 0-.02.02.05-.07.1-.17.15-.32-.07-.15.49-.05.12-.02-.15.12.27.12-.02.25-.15.05.22.02 0 .12-.12.07-.22.22-.05.17.37.07.07-.17.27-.3.39.64.64-1.04 0-1.01Zm-1.38-3.99c.05-.15.05-.3.1-.05-.05-.05-.07 0-.1.05Zm-.15.94s-.02 0 0 0Zm.39-.47s-.2-.05-.1-.07c.1-.1.12-.15.1.07Zm.57 2.27s-.05.05-.05.02l.05-.02Zm-.25-1.08c.07.2.15.42-.05.27.25-.27-.2.07.05-.27Zm.07 1.23c-.02-.07-.1-.17-.05-.25.02.07.1.15.05.25Zm.02-.35c-.1.05-.27-.49-.15-.44.07-.07.02.39.2.37.07.07-.12 0-.05.07Zm.07.39c.07-.02.07.05.12.05-.05.02-.15 0-.12-.05Zm.1.27c-.02-.07-.1-.12-.02-.2 0 .07.07.15.02.2Zm-.1 1.5c-.12-.05-.27-.59 0-.52-.15.12.12.44 0 .52Zm.27-.81c-.1-.2-.22-.76-.02-.27 0 .1.1.17.02.27Zm.2-.67s-.05-.02-.12-.02c.07-.02.17-.05.12.02Zm-.1 1.45c-.1-.07.05-.1.12-.12-.12.02-.1.07-.12.12Zm0-.64c0 .1.12.1.17.2-.15.05-.3-.07-.17-.2Zm.22-.25c-.2.07-.05-.02.02-.1-.02.02-.02.05-.02.1Zm.15.89c-.07-.02-.15-.1-.02-.12.07-.05.12.12.02.12Zm.07-.22c-.32-.32.35-.25-.02-.07.07.05.25-.02.02.07Z"/><path class="cls-6" d="M63.66 55.19c.07.07.1.12.22.07.25-.2-.27-.35-.22-.07Zm.12-.05s-.02.07-.05.02c-.02-.05.05-.1.05-.02Z"/><path class="cls-6" d="M63.66 55.02a.61.61 0 0 0-.15-.3c-.1.02.07.62.15.3ZM63.68 54.8s.07.07.05.12c.1.07.17-.37-.05-.12Z"/><path class="cls-6" d="M63.59 54.6c.05.35.22-.02.05-.05 0-.17-.32.22-.05.05ZM63.66 55.22c-.05-.12-.12.22-.02.15.17-.1-.05-.02.02-.15ZM64.01 55.51c.1-.05-.07-.1-.12-.07-.05.07 0 .1.12.07ZM63.91 55s-.02.05.02.07c.02-.02.02-.05-.02-.07ZM63.19 52.78c.02-.1-.1-.02-.05.02.07 0 .2.05.07.07-.2.07.1.05.05.1.12.02-.25.02 0 .15.2.07.1-.49-.07-.35Zm.12.3s-.02-.02 0-.02v.02ZM63.24 53.32c-.12.05.05.2.12.07-.02-.2-.1.15-.12-.07Z"/><path class="cls-6" d="M63.34 53.27c-.07-.2-.15.17 0 0ZM63.59 54.4c.02-.07.02-.17-.07-.15-.07.02 0 .27.07.15ZM61.17 45.01s.02-.02 0-.02v.02ZM64.45 44.81s-.05-.12 0 0Z"/><path class="cls-6" d="M63.59 45.13s.1.17.1 0c.05.12 0-.02.02 0 .1-.02.1.15.12-.05.02.1.17-.1.27-.02-.07-.25 0-.05 0-.1 0 0-.02-.15.02 0 0-.02-.02-.12 0-.05.1.22 0-.15.12.07.12.05 0-.35.12-.15.05.05.07.02.07 0-.1-.15-.05.02-.2-.2.07.3-.47-.15-.27.3-.32-.32-.52.2-.57-.07 0 .15-.05.1-.15-.07-.02-.02.07.27 0 .15 0-.05-.05-.22-.02-.02-.05-.17.05.35-.1-.02-.1.02.1.17 0 .2-.07-.35-.05.1-.12-.12-.12.35-.47.1-.44.27 0 .07-.02-.02-.05-.07-.02.22-.02-.1-.02 0 0 .22-.05.02-.1-.07-.3.2 0-.2-.35.02 0-.05-.22.02-.32-.07-.05.27 0-.02-.05 0l-.02.12c-.15-.17-.54-.07-.57-.1-.05.27.05-.27-.12.05.05-.17-.05.05-.02-.1-.39-.07-.71-.12-.59.2-.1.02.27.37.44.07-.02.07-.1.35.02.12.05-.07-.05.2.02.1.1-.22 0 .05.07-.07-.05.12.07-.07.17.17.2-.2.39 0 .57.07.2-.12 1.04.05 1.38-.22.39-.12.49-.1.54-.32Zm-2.47.32v-.05.05Z"/><path class="cls-6" d="M62.58 45.13s.02.02 0 0c.02-.02 0-.05 0 0ZM64.18 40.03s.02-.02.05-.07c-.02 0-.05.05-.05.07Z"/><path class="cls-6" d="M60.55 40.33c-.07-.22.1-.02.3 0-.02-.47.07.15.12-.12.17-.05.17 0 .25.12.15-.47.25.25.27-.15.05 0 .05.32.05.05.02.2 0-.1.02-.12.17.27 0 .07.07-.02.02.17.1.15.17-.02 0 .27.02-.02.05.02 0-.15.15.12.15-.1 0 .39.15-.22.17.15.07-.47.17.27.3-.1.07.05 0 .3.05.2 0-.22.02.2.1-.1-.05.2.1-.12.07.05.05-.07.02.12.12-.1-.02.37.1-.05.2.2 0-.02.07-.2.02-.05.15-.02.2.2.44 0 .12-.07.02.02.12.02-.15.42.22-.35.05.15.15-.05.15-.12.42.07.62.2.2-.76-.07-.39.17-.25-.94-.47-1.6-.54-.67-.12-1.16.27-1.23.35-.12-.12-.59.2-.54.22-.12-.39-.15.17-.17 0-.22-.07 0 .17.1.22Zm3.18-.35v.05-.05Z"/><path class="cls-6" d="M60.38 40.2s-.02-.05-.02-.07c0 0 0 .02.02.07ZM63.61 40.45l.02-.02-.02.02ZM60.63 40.03ZM61.24 39.88s-.02-.02 0 0c-.02 0 0 0 0 0ZM60.41 40.08v-.02.02ZM60.41 40.06s-.02-.05-.02-.02v.02s.05.05.02 0ZM60.6 40.33h-.02s.02.05.02.07c.05.05-.02-.07 0-.07ZM60.68 40.35s0 .02.02.05c0-.02 0-.05-.02-.05ZM61.1 40.23l.02.05s-.02-.02-.02-.05ZM61.1 39.88l-.03-.02v.05l.03-.03zM61.93 40.18v-.07s-.02.1 0 .07ZM62.23 40.08s0 .07.02.02c-.02 0-.02-.05-.02-.02Z"/><path transform="rotate(-65.32 67.423 161.998)" style="fill:#fbae5e" d="M47.56 123.31h39.71v77.38H47.56z"/><path class="cls-14" d="M32.43 164.67c-.27 2.44 1.04 4.76 2.49 6.73.39.52.84 1.06 1.45 1.21s.39-.32.3-.96c.42.67.32 1.53.74 2.19.39.67 1.41.49 2.17.57s1.33-1.04 1.16-1.8c.67.91 2.19 2.1 3.13 1.48l1.06-.91c.05.2.44 1.01.64 1.13.35.25.84.15 1.18-.07s.59-.59.81-.94c.84-1.23.3-.54 1.13-1.77 1.08-1.6-.17-10.67.44-12.52s1.13-.54.27-2.29c1.8.99 7.15 3.57 9.19 3.82.84.1 1.85.07 2.24-.67.37-.71-.15-1.55-.71-2.12-2.05-2.02-3.13-3.3-5.69-4.63l-1.9-.59c-1.16-.57-2.07-.62-2.88-1.6-.3-.37-.54.2-.99.02-.96-.37-2.05-2.71-3.08-2.71-1.38.02-1.38-2.71-2.76-2.74-1.65-.02-5.42 4.22-11.39 12.99m15.21 11.44.74-2.05c-.17.69-.44 1.38-.74 2.05Z"/><path class="cls-14" d="m26.29 133.63-.05.12a8.69 8.69 0 0 0-.02 5.1l4.54 9.02 1.53 11.17 11.29-12.25-1.13-11.36a8.654 8.654 0 0 0-2.54-5.2 8.234 8.234 0 0 0-9.1-1.65 8.27 8.27 0 0 0-4.51 5.05ZM154.42 153.99c-1.63-3.65-5.79-5.28-9.39-7.07-1.97-.99-3.3-3.75-5.13-5-.71-.49-1.45-1.23-1.97-1.95-.64-.86-1.28-1.45-1.55-2.49-.49-1.8-1.16-2.27-1.65-4.07-.74-2.76-1.5-5.55-2.83-8.09-.86-1.68-1.97-3.2-3.08-4.73-2.07-2.88-4.41-8.38-6.48-11.27-.86 1.53-1.38 6.16-.91 7.84l1.36 4.71c-.94.27-1.26.69-2.22.49l.1.3c-3.65-.07-7.27-.17-10.92-.25-.25 0-.52 0-.74.12-.54.3-.47 1.18 0 1.6s1.11.54 1.7.69 1.26.42 1.53.96c-1.41-.02-2.83-.07-4.24-.1-1.38-.02-2.93 0-3.85 1.04-.1.12-.2.27-.2.44 0 .37.44.57.79.64.99.22 1.97.42 2.96.57-.44.37-.89.81-.96 1.38-.12.86.76 1.6 1.63 1.75s1.75-.12 2.61-.25 1.87-.02 2.47.62c-1.82.79-4.76 2.59-4.02 4.17 1.87.12 4.63-.99 6.48-1.26 1.8-.25.96.89 2.64 1.6 1.23.52 3.25 1.97 4.59 2.1.47.05 1.41-.71 1.77-.42.22.17.32 1.38.47 1.65.86 1.48 2.05 2.37 2.91 3.85 2.54 4.39 2.79 7.4 4.34 12.25.71 2.24 3.2 6.14 4.49 8.09 2.54 3.87 7.91 4.02 12.5 3.48 1.43-.17 2.96-.57 3.89-1.68.76-.91 2.12-2.27 2.32-3.45.47-2.79-.22-5.65-1.38-8.26Z"/><path class="cls-21" d="M43.03 145.88c.96 0 .96-1.48 0-1.48s-.94 1.48 0 1.48Z"/><path class="cls-21" d="M61.37 158.68c-.07-.86-.62-1.55-1.28-2.07s-1.31-.99-1.97-1.5-1.36-1.06-2.07-1.55a22.06 22.06 0 0 0-4.41-2.37c-.25-.1-.57-.27-.84-.32-.17-.07-.35-.15-.52-.25-.71-.35-1.41-.71-2.1-1.11-.49-.3-.99-.62-1.43-.94-.27-.2-.35-.25-.59-.44-.22-.17-.44-.37-.64-.57-.22-.22-.44-.44-.64-.67-.1-.1-.17-.22-.27-.32 0 0 0-.02-.02-.02-.05-.07-.1-.15-.15-.22-.15-.22-.3-.44-.42-.69l-.07-.17c0-.02-.02-.07-.05-.1-.05-.12-.1-.27-.15-.39-.32-2.56-.67-5.13-.96-7.69-.2-1.6-.59-3.13-1.28-4.59-.64-1.33-1.5-2.64-2.61-3.62-1.8-1.6-4.19-2.24-6.56-1.87a7.975 7.975 0 0 0-5.42 3.65c-.74 1.18-1.06 2.54-1.18 3.92-.17 1.8.05 3.67.59 5.4.49 1.53 1.21 2.98 1.97 4.39.67 1.21 1.36 2.42 1.8 3.7 1.01 2.79.96 5.67.94 8.65-.02 3.03-.17 6.09.25 9.1.22 1.63.62 3.28 1.48 4.71.52.89 1.04 1.7 2.07 2.07.42.15.89.2 1.33.17.27.74.91 1.31 1.65 1.58.44.17.96.12 1.43.05.42-.05.84-.22 1.18-.47.17-.12.32-.27.44-.42.39.49.86.91 1.5 1.11s1.38.07 1.97-.25c.15-.07.27-.17.39-.27.1.2.32.35.62.35.44-.02.89.02 1.33-.05.47-.07.86-.27 1.23-.57.52-.42.94-.99 1.23-1.55.54-1.06.74-2.27.79-3.48.12-2.59-.37-5.15-.3-7.74 0-.3.02-.62.05-.91 0-.07.02-.15.02-.22-.02.15.02-.12.02-.15.02-.15.05-.27.07-.42.07-.35.17-.69.27-1.04.05-.15.1-.3.17-.42.94.37 1.82.81 2.71 1.36.84.52 1.73.96 2.66 1.23.74.22 1.5.37 2.27.47.81.1 1.68.05 2.39-.42.69-.47 1.16-1.21 1.08-2.05Zm-16.79-12.15c-.05-.07-.02-.02 0 0Zm-4.63 25.96s.05-.05.05-.07c-.02.02-.05.05-.05.07Zm3.8.67.02-.02s-.07.1-.02.02Zm15.16-13.48c-.71.12-1.53-.1-2.22-.27-.32-.07-.64-.17-.96-.27-.15-.05-.27-.1-.42-.15-.05-.02-.1-.05-.15-.05-.02 0-.07-.05-.1-.05-.44-.2-.84-.44-1.26-.69-1.11-.67-2.24-1.23-3.45-1.68-.02 0-.05-.02-.07-.02s-.02 0-.05-.02a.657.657 0 0 0-.59.1c-.02.02-.05.02-.05.05l-.02.02s-.02.02-.05.02c-.57.52-.81 1.16-.99 1.87a9.96 9.96 0 0 0-.32 1.73c-.12 1.21-.05 2.42.02 3.62.1 1.28.2 2.54.25 3.82 0 .59 0 1.21-.05 1.8-.02.32-.02.37-.1.69-.05.27-.12.54-.2.81-.1.35-.12.42-.27.67-.12.25-.3.49-.47.71-.2.25-.42.49-.69.62-.37.17-.81.1-1.23.1.02-.07.05-.12.07-.2.17-.64.15-1.28.1-1.95-.02-.39-.32-.76-.74-.74-.37.02-.76.32-.74.74.02.27.02.54.02.79 0 .12 0 .25-.02.37v.07l-.02.15c-.02.12-.07.25-.1.37v.02s-.05.12-.1.17c-.02.02-.02.05-.05.07s-.07.07-.07.1l-.05.05s-.02 0-.02.02c-.02.02-.05.05-.07.05-.05.02-.07.05-.12.07 0 0-.02 0-.02.02h-.02c-.1.02-.2.05-.27.07h-.3s-.07-.02-.1-.02c-.05 0-.1-.02-.15-.05-.07-.05-.12-.07-.2-.12-.05-.02-.17-.07-.02-.02-.1-.05-.22-.2-.3-.27l-.12-.12s-.02-.02-.02-.05l-.02-.02a.76.76 0 0 0-.2-.2c.12-.22.17-.49.22-.74.05-.47.05-.94.07-1.41.02-.39-.35-.76-.74-.74-.42.02-.71.32-.74.74s-.02.81-.05 1.23v.12s-.02.05-.02.07c-.02.02-.02.05-.05.07 0 0-.02.02-.02.05s-.07.1-.12.15c-.1.15-.22.27-.32.42l-.02.02-.02.02s-.1.1-.15.17-.1.1-.15.15l-.02.02-.17.1c-.02 0-.15.07-.05.02s-.05.02-.07.02c-.07.02-.17.05-.25.07 0 0-.05 0-.1.02h-.42s-.12-.02-.17 0c-.02 0-.07-.02-.1-.02h-.02c-.07-.02-.12-.07-.2-.1-.02-.02-.05-.02-.07-.05h-.02s-.12-.1-.17-.15l-.05-.05c.07.07-.02-.05-.02-.05-.05-.07-.07-.15-.12-.22v-.02s-.02-.12-.05-.17v-.57c0-.17 0-.37-.02-.54v-1.38c0-.39-.35-.76-.74-.74s-.74.32-.74.74c0 .47-.02.91 0 1.38v.32c-.12 0-.22 0-.35-.02h-.05s-.02 0-.05-.02c-.07-.02-.12-.02-.2-.05-.05 0-.1-.02-.12-.05a.46.46 0 0 1-.1-.05c-.05-.02-.22-.15-.22-.15-.05-.05-.12-.1-.17-.15-.05-.05-.07-.07-.1-.12 0-.02-.05-.05-.05-.07-.05-.07-.1-.15-.15-.2-.3-.44-.57-.91-.79-1.41-.32-.74-.52-1.53-.69-2.29-.27-1.31-.37-2.54-.42-3.94-.05-1.5-.02-3.01-.02-4.49.02-2.83.17-5.74-.39-8.55-.3-1.43-.81-2.81-1.48-4.12-.62-1.21-1.31-2.39-1.92-3.62-1.36-2.79-2.14-6.09-1.18-9.15.17-.52.3-.84.62-1.36.12-.2.25-.39.39-.59.02-.02.07-.1.07-.1.05-.05.1-.1.12-.15.1-.1.17-.2.27-.3.17-.17.35-.35.54-.49l.1-.07s.07-.05.12-.1c.1-.07.22-.15.32-.22.2-.12.42-.25.64-.37.12-.05.25-.12.37-.17s.02-.02 0 0c.07-.02.17-.07.25-.1.47-.17.96-.3 1.43-.37.02 0 .1 0 .1-.02.05 0 .12 0 .17-.02.12 0 .25-.02.37-.02.27 0 .54 0 .79.02.1 0 .17.02.27.02.02 0 .12.02.12.02.07 0 .12.02.2.02.27.05.52.12.79.2.1.02.22.07.32.12.07.02.12.05.2.07.02 0 .05.02.05.02h.02c.25.12.49.25.74.39.49.3.79.52 1.21.96.47.47.86.99 1.23 1.55.84 1.28 1.41 2.69 1.73 4.17.27 1.33.37 2.71.54 4.04.2 1.55.39 3.11.59 4.68 0 .1.02.17.02.27 0 .07 0 .15.02.22.59 2.02 2.29 3.53 3.97 4.71 1.18.81 2.47 1.53 3.8 2.1.94.42 1.9.74 2.81 1.21 1.43.74 2.74 1.65 3.99 2.66.64.52 1.28 1.01 1.95 1.5.42.32 1.08.79 1.04 1.36-.05.39-.54.69-1.01.76Z"/><path class="cls-17" d="m54.81 123.7-14.25 4.16-23.74-1.67 14.28-4.66 23.71 2.17z"/><path class="cls-21" d="M108.43 126.04c.96 0 .96-1.48 0-1.48s-.96 1.48 0 1.48ZM123.32 121.73s.05.1 0 0ZM108.67 122.05s.07-.05 0 0Z"/><path class="cls-21" d="M156.64 157.22c-.57-1.95-1.65-3.7-2.93-5.25-1.43-1.7-3.16-3.16-5.03-4.34-.25-.15-.49-.3-.74-.44-3.11-2.02-6.38-3.92-8.78-6.78-.74-.89-1.41-1.9-1.95-2.91-.3-.52-.54-1.04-.74-1.6s-.35-1.18-.49-1.77c-.3-1.06-.54-2.14-.79-3.2-.27-1.18-.54-2.34-1.06-3.45-.99-2.12-2.49-3.92-3.87-5.79a35.156 35.156 0 0 1-3.77-6.46c-.52-1.13-.94-2.29-1.31-3.48s-.91-2.37-2.17-2.79-2.34.44-2.66 1.63c-.2.67-.2 1.36-.15 2.05.1 1.65.35 3.28.64 4.88.2 1.11.39 2.24.71 3.33-3.77-.12-7.52-.27-11.29-.39-.49-.02-1.01-.1-1.5 0-.44.1-.94.42-1.21.79-.44.69-.27 1.55.02 2.27.2.44.44.81.76 1.11-.62.02-1.23.02-1.82.07-.76.05-1.63.15-2.32.59-.81.54-1.53 1.48-1.43 2.49.1 1.16 1.53 1.08 2.37 1.13.52.02 1.01.05 1.53.05-.39.44-.64.99-.69 1.58-.02.49.17.91.59 1.16.42.22.99.2 1.45.25 1.53.1 3.08.05 4.61 0-.22.1-.47.22-.69.32-.69.32-1.36.67-2 1.08-.62.39-1.23.89-1.6 1.5-.17.3-.3.64-.3.99 0 .1.02.22.05.32.05.17-.02-.12 0-.05.05.22.07.39.22.57.39.52 1.16.52 1.75.47 1.01-.1 2.02-.32 3.01-.62 1.06-.3 2.07-.64 3.11-1.01.39.44.86.81 1.33 1.16.62.47 1.26.89 1.95 1.26.67.35 1.36.69 2.07.86.79.2 1.63.12 2.44.2h.12l.07.17c1.53 2.05 2.93 4.22 4.17 6.46.59 1.11 1.13 2.22 1.58 3.38.49 1.31.89 2.64 1.31 3.97 1.45 4.86 3.08 10.16 7.49 13.14 3.97 2.69 9.44 3.48 13.71 1.04 1.85-1.06 3.43-2.64 4.24-4.63.49-1.65.47-3.55-.02-5.28Zm-52.51-29.56v-.07.07Zm3.03 2.69c-.12-.02-.02-.02 0 0Zm2.27 5.47v-.1.1Zm46.05 24.77c0 .07 0 .05 0 0Zm0-.02s0 .02 0 0c0 .07-.02.1-.02.15-.02.12-.05.22-.07.35-.05.2-.1.42-.17.62-.02.1-.05.17-.1.27-.02.05-.02.1-.05.12l-.05.12c-.17.37-.37.74-.59 1.08-.12.2-.2.3-.32.44-.15.2-.32.37-.47.54-.35.35-.71.69-1.11.99-1.77 1.31-3.87 1.97-6.06 1.95-2.19-.02-4.36-.69-6.29-1.77-4.31-2.42-6.04-7.27-7.37-11.76-.76-2.49-1.48-4.98-2.61-7.35s-2.42-4.41-3.87-6.48c-.07-.12-.15-.22-.25-.35.2.1.37.2.54.3.32.22.81.05 1.01-.27.22-.37.07-.79-.27-1.01-.81-.57-1.77-.81-2.74-.94-.84-.1-1.7-.05-2.54-.15-.02 0-.07 0-.1-.02-.07-.02-.15-.02-.22-.05-.15-.05-.32-.1-.47-.15-.37-.12-.52-.2-.89-.39-.69-.35-1.36-.76-1.97-1.21-.3-.22-.52-.37-.81-.67-.25-.22-.49-.44-.69-.71l-.12-.12c-.2-.2-.47-.32-.74-.22-1.77.67-3.6 1.28-5.47 1.63-.07.02-.17.02-.27.05-.05 0-.1.02-.15.02-.17.02-.32.02-.49.05h-.25s.02-.05 0 0 .05-.07.07-.12c0-.02.02-.05.05-.07.02-.02.07-.1.1-.12.1-.12.22-.22.35-.35.05-.05.12-.1.17-.15l.02-.02s.05-.02.07-.05c.15-.12.3-.22.47-.32.59-.37 1.21-.69 1.85-.99.12-.05.27-.12.39-.17.05-.02.12-.05.2-.07.02-.02.07-.02.1-.05h.02c.17-.07.35-.15.54-.22.57-.2 1.18-.3 1.77-.39.84-.15 1.7-.27 2.54-.42.64-.12 1.31-.2 1.92-.44.22-.05.37-.17.47-.35s.15-.37.1-.57l-.07-.17a.592.592 0 0 0-.37-.32.528.528 0 0 0-.39-.02c-2.17.05-4.34.1-6.51.17-1.08.02-2.17.07-3.28.07-.54 0-1.08 0-1.6-.02-.27 0-.57-.02-.84-.05-.05 0-.12-.02-.17-.02 0-.02.02-.05.02-.1.05-.1.15-.27.22-.37.22-.27.49-.44.84-.59.91-.35 1.92-.3 2.88-.32h.22c2.12.15 4.24.47 6.38.42.62-.02.84-.64.64-1.06.05-.39-.2-.84-.71-.84-1.92-.05-3.82-.05-5.74 0h-.69c-1.63-.1-3.23-.02-4.86-.05a37.6 37.6 0 0 1-2.37-.12h-.07s0-.02.02-.05c.07-.25.3-.52.54-.69.07-.05.15-.1.22-.15.02-.02.2-.1.2-.1.12-.05.25-.07.37-.1.37-.07.54-.1.94-.12.69-.05 1.36-.05 2.02-.07 1.48-.05 2.96-.1 4.46-.07.32.02.67.02.99.05 1.13.07 2.27.05 3.4.05.96 0 .96-1.48 0-1.48s-1.87 0-2.83-.02c-.27 0-.54-.02-.84-.05-.05-.02-.12-.02-.2-.02h-.17c-.39-.02-.76-.05-1.16-.07-.32 0-.67-.02-.99-.05-.2-.02-.57-.1-.86-.2-.15-.05-.2-.07-.35-.17-.12-.07-.27-.15-.39-.25-.1-.07-.2-.15-.3-.25-.05-.05-.07-.07-.1-.12 0 0-.1-.15-.12-.17-.2-.3-.25-.44-.32-.74-.02-.05-.02-.12-.05-.17 0-.02-.02-.12-.02-.12v-.17s-.02 0 0-.02v.02-.02s.02-.02.05-.02c.15-.1.2-.12.37-.15.44-.02.91.02 1.36.05 1.8.05 3.62.12 5.42.2 2 .07 3.99.15 5.99.2h.05c.05.15.12.3.2.42.44.84 1.73.1 1.28-.74-.05-.1-.07-.17-.12-.27 0 .02.02.02.02.05 0-.02-.02-.05-.02-.05-.02-.07-.05-.15-.07-.22-.1-.3-.2-.59-.27-.86-.2-.74-.37-1.5-.54-2.27-.17-.84-.32-1.68-.44-2.51-.02-.2-.05-.39-.1-.59-.02-.1-.02-.2-.05-.3 0-.02-.02-.15 0-.02 0-.05-.02-.12-.02-.17-.05-.37-.1-.74-.12-1.13-.05-.59-.12-1.18-.1-1.77 0-.37.02-.59.15-.96.1-.32.27-.54.54-.57.32-.02.69.25.91.57.3.44.44.99.62 1.48.39 1.18.84 2.34 1.33 3.48.99 2.24 2.24 4.39 3.67 6.36 1.33 1.82 2.81 3.57 3.82 5.6.52 1.01.79 2.05 1.04 3.13.25 1.06.49 2.1.76 3.13.3 1.18.62 2.32 1.13 3.43s1.18 2.1 1.9 3.08c2.29 3.13 5.57 5.18 8.78 7.25.05.1.15.17.27.25.3.15.57.32.86.49.12.07.22.15.35.22.44.3.89.59 1.33.91.05.02.1.05.15.07 2.42 1.75 4.51 4.04 5.67 6.75 0 0 .07.17.07.2.05.1.07.2.1.3.07.22.15.44.22.67.05.2.1.39.15.62.02.1.05.2.05.3 0 .05.02.1.02.15 0 .02.02.07.02.12.05.39.07.79.05 1.21.05.15.02.35 0 .54Z"/><path class="cls-7" d="M95.88 182.91c0-.15-.07-1.6-.59-3.62v-.15c.32-.89.59-1.8.81-2.74.02-.1 0-.2-.02-.27-.05-.1-.1-.17-.2-.2l-1.16-.71s-.02 0-.02-.02c-.07-.02-.15-.02-.22 0s-.12.07-.17.15l-.2.42c-.44-1.06-.99-2.05-1.6-3.01-.12-.2-.3-.37-.52-.47s-.44-.12-.69-.1c-5.42.69-9.71 3.87-9.91 4.07-.05.05-.1.1-.12.17-.05.1-.05.2-.02.3s.07.2.15.25l1.11.79c.07.05.12.15.15.22s.02.17 0 .27c-.1.22-2.07 5.15-2.37 6.53-.02.1 0 .2.05.3s.12.17.22.2c.71.3 1.38.59 2.1.91l.05.02h.1s.02-.02.05-.02.02-.02.02-.05c.17-.44.54-1.43.96-2.47 0-.02.02-.05.02-.07.02-.05.02-.1.02-.12 0-.05-.02-.1-.05-.12-.12-.2-.22-.42-.25-.67s0-.47.1-.69c.71-1.73 1.58-3.7 2.37-5.18.02-.05.1-.1.15-.12.07-.02.15-.02.2.02.05.02.12.07.12.15.02.07.02.15 0 .2v.02c-.52.99-1.08 2.19-1.6 3.4-.02.05-.02.07-.02.12s0 .07.02.12.02.07.07.1.07.05.1.07.07.02.12.02.07 0 .12-.02.07-.05.1-.07.05-.07.07-.1c.52-1.21 1.08-2.42 1.63-3.4.02-.07.07-.12.15-.15s.15-.02.2 0 .12.07.15.15.02.15 0 .2v.02c-.52.99-1.08 2.19-1.6 3.38-.02.07-.02.17 0 .25s.1.15.17.17c.07.02.17.05.25 0 .07-.02.15-.1.17-.17.52-1.21 1.08-2.42 1.6-3.4.02-.07.07-.12.15-.15s.15-.02.2 0c.07.02.12.07.15.15s.02.15 0 .2v.02c-.76 1.45-1.6 3.35-2.32 5.03v.07c-.1.22-.25.39-.44.54s-.39.25-.64.27c-.05 0-.07.02-.12.05-.02.02-.05.05-.07.1 0 0-.15.25-.59 1.53-.2.57-.32.96-.39 1.13v.1l.07.07.12.05c.25.1.47.22.74.35l.1.05.91.42.69.32s.07.02.1 0c.02 0 .05-.02.07-.05a48.26 48.26 0 0 0 1.26-2.22c.02-.02.02-.07 0-.12s-.05-.07-.07-.1l-.79-.49s-.1-.07-.12-.12-.02-.12-.02-.17.02-.1.05-.12c2.59-4.76 4.98-5.67 4.98-5.67.02-.02.07-.02.1-.02.05 0 .12 0 .17.02s.1.07.12.12.05.1.05.17c0 .05-.02.07-.02.12-.57 1.6-1.85 4.19-2.88 6.21-.86 1.7-1.58 3.03-1.58 3.03v.1s0 .02.02.05l.02.02c.44.22.91.44 1.38.67.1.05.2.05.3.02.1-.02.2-.07.25-.15.86-1.11 3.3-5.84 3.43-6.04.05-.07.12-.15.2-.17.07-.05.17-.05.27-.05l1.33.32c.1.02.2 0 .3-.05s.17-.12.2-.22c.02-.12.02-.2.02-.27Z" style="clip-path:url(#clippath-1);fill:none"/><path class="cls-17" d="m70.27 141.37 9.15 4.19-2.1 4.59c-.15.3-.49.44-.79.3l-8.04-3.7c-.3-.15-.44-.49-.3-.79l2.07-4.59ZM67.97 170.19l-3.38-1.55-2.66 1.06-1.11-2.79-.91-.42c-.3-.15-.67 0-.79.3l-5.08 11.02 9.15 4.19 5.08-11.04c.12-.27 0-.64-.3-.76Z"/><path class="cls-7" d="M96.42 120.86c.11.13.28.19.43.29.15.09.29.21.4.35.05.07.1.15.11.21 0 .03.01.06 0 .08 0 0 0 .02-.02.02l.04-.02c.05-.02.03 0-.12-.02-.06-.02-.06.02-.06 0 0 0 .02.04-.04.09-.06.05-.18.06-.31-.02a1.16 1.16 0 0 1-.33-.39c-.08-.16-.14-.33-.27-.44-.12-.1-.34-.13-.58.05-.25.18-.49.57-.49 1.15 0 .57.32 1.34 1.05 1.75.71.43 1.82.32 2.57-.38.38-.36.61-.77.72-1.25.11-.47.03-1.01-.18-1.41-.46-.82-1.19-1.06-1.71-1.08-.55-.02-.97.21-1.16.45-.19.24-.17.46-.07.58Z"/></g><g id="Outline"><path class="cls-7" d="M91.5 127.78c.71-.1-.45-10.88-.09-24.17.3-13.29 2-24 1.29-24.14-.32-.06-1.15 2.55-1.98 6.9-.42 2.17-.8 4.78-1.12 7.68-.31 2.91-.54 6.12-.63 9.49-.08 3.38 0 6.59.15 9.51.18 2.92.43 5.54.74 7.73.61 4.38 1.31 7.03 1.63 6.99ZM59.86 116.71c-.62-.27-1.69.85-2.4 2.49-.71 1.64-.78 3.19-.16 3.46s1.69-.85 2.4-2.49c.71-1.64.78-3.19.16-3.46ZM99.48 195.56c.33-.05.38-1.54.1-3.33s-.77-3.2-1.1-3.15c-.33.05-.38 1.54-.1 3.33s.77 3.2 1.1 3.15ZM159.86 142.88c.11-.09-.37-.92-1.53-1.92-.58-.5-1.34-1-2.25-1.46-.91-.44-1.97-.82-3.12-1.06-1.15-.22-2.27-.27-3.28-.22-1.01.08-1.91.25-2.64.49-1.46.47-2.21 1.06-2.15 1.19.08.17.95-.12 2.35-.35.7-.12 1.54-.19 2.47-.21.93 0 1.95.09 3.01.29 1.05.22 2.02.54 2.89.88.85.37 1.61.76 2.21 1.14 1.21.75 1.9 1.35 2.04 1.22Z"/></g></svg>