<svg xmlns="http://www.w3.org/2000/svg" viewBox="0 0 200 200"><defs><style>.cls-10,.cls-12,.cls-14,.cls-15,.cls-16,.cls-17,.cls-3,.cls-4,.cls-5,.cls-6,.cls-7,.cls-9{stroke-width:0}.cls-3{fill:#d2e9eb}.cls-4{fill:#bf9dd6}.cls-5{fill:#bbdbdf}.cls-6{fill:#c1dade}.cls-7{fill:#ff8000}.cls-9{fill:#fff}.cls-10{fill:#e8f8f9}.cls-12{fill:#ffc101}.cls-14{fill:#e4f9f9}.cls-15{fill:#ffcf4e}.cls-16{fill:#f2a6b0}.cls-17{fill:#f75e28}</style></defs><path d="m9.92 130.52 1.72 21.39c.81 10 9 17.79 19.03 18.09l136.37 4.04c13.48-.34 24.2-11.41 24.2-24.89V87.42c.59-49.37-39.86-57.37-81.02-52.57-23.37-4.84-28.1 10.84-47.04 13.86-64.4 2.03-61.02 29.1-53.8 83.32" style="fill:#efedea;stroke-width:0" id="BG_Strong"/><g id="Illustrations"><path class="cls-7" d="M182.8 42.06c-.08-.09-.11-.13 0 0ZM186.54 55.73v.06-.05ZM14.59 134.21s.01.04.01.06c.01-.36-.03-.46-.05-.39v.04c0 .1.02.2.03.3Z"/><path class="cls-7" d="M191.19 48.04c-1.37-6.11-5.38-11.09-10.31-14.76-6.5-4.83-14.63-7.34-22.5-8.76-12.03-2.17-24.38-2.08-36.52-1.02-1.84.16-3.68.35-5.52.55a13.08 13.08 0 0 0-3.12-5.89c-3.85-4.19-9.75-5.4-15.04-3.1-2.17 1.02-3.94 2.93-5.31 5.04-2.04 3.14-2.67 6.92-1.73 10.37 1.36 5.01 5.74 8.82 10.9 9.47.53.07 1.05.1 1.57.1 4.58 0 8.99-2.48 11.32-6.48l.1-.19a13.64 13.64 0 0 0 1.46-4.26c8.74-.99 17.54-1.47 26.35-1.14a116.88 116.88 0 0 1 10.24.83c.09.01.18.02.27.04.05 0 .1.01.13.02l1.06.15c1.23.19 2.46.4 3.68.64 4.19.82 8.29 1.98 12.24 3.59.12.05.27.11.32.14.22.1.44.19.65.29.43.19.85.4 1.27.6.81.4 1.6.83 2.38 1.28.74.43 1.46.88 2.17 1.37l.9.63c.13.1.26.2.4.3.07.05.14.11.2.16 1.17.94 2.26 1.97 3.26 3.08.24.27.47.54.7.82.1.12.19.25.3.37-.1-.11-.16-.18-.2-.23.07.09.17.21.23.28a21.494 21.494 0 0 1 2.09 3.52l.18.39c.11.3.23.59.34.89.43 1.21.68 2.44.91 3.69.02.15.03.31.05.46.03.33.05.65.07.98a22.011 22.011 0 0 1-.06 2.88c-.01.17-.03.33-.05.5v.07c0-.03 0-.05.01-.08 0 .03 0 .06-.02.09-.04.35-.04.25 0 .05-.12.63-.21 1.26-.35 1.89a27.22 27.22 0 0 1-1.25 4.03c-.06.14-.12.28-.17.43 0 .02-.01.02-.02.04-.16.36-.32.72-.5 1.08-.33.69-.69 1.37-1.07 2.04-.77 1.36-1.63 2.68-2.56 3.94-.12.17-.25.33-.37.5-.02.02-.02.03-.04.05-.01.02-.02.02-.04.05-.27.33-.53.67-.81 1-.56.67-1.14 1.33-1.73 1.97a57.967 57.967 0 0 1-3.88 3.8c-.72.64-1.45 1.26-2.2 1.87-.31.25-.62.49-.93.74-.09.07-.24.19-.3.23-.22.17-.45.33-.67.5-3.41 2.51-7.05 4.72-10.82 6.65a91.513 91.513 0 0 1-4.58 2.18c-.24.11-.48.21-.72.32-.1.04-.42.18-.58.25-2.22.92-4.47 1.78-6.75 2.54-4.92 1.66-9.96 2.96-15.05 3.94-1.37.26-2.75.5-4.13.72l-1.99.3c-.09.01-.72.1-.76.1-.35.05-.71.09-1.06.14-2.03.25-4.07.47-6.1.71-3.88.46-7.77.95-11.64 1.47-7.75 1.03-15.48 2.16-23.19 3.45-7.1 1.19-14.18 2.5-21.22 4.01-6.23 1.34-12.43 2.83-18.56 4.6-5.32 1.54-10.58 3.3-15.68 5.47-3.71 1.58-7.39 3.39-10.6 5.84-2.72 2.07-5.22 4.56-6.3 7.88-.98 3.01-.29 6.26 1.34 8.91 2.22 3.58 5.72 6.26 9.2 8.52 5.38 3.49 11.29 6.13 17.21 8.55 8.51 3.48 17.27 6.35 26.07 8.98 12.04 3.6 24.22 6.73 36.45 9.63 15.86 3.76 31.82 7.12 47.81 10.27 9.16 1.8 18.34 3.53 27.53 5.21 1.35.25 2.74-.37 3.13-1.78.34-1.24-.42-2.88-1.78-3.13-17.99-3.28-35.95-6.76-53.83-10.62-14.04-3.03-28.03-6.28-41.91-9.97-10.39-2.76-20.74-5.76-30.9-9.29a220.48 220.48 0 0 1-11.73-4.42c-.2-.08-.39-.16-.59-.24-.06-.02-.28-.12-.42-.18-.14-.06-.36-.15-.4-.17l-.63-.27c-.81-.35-1.62-.71-2.43-1.08-1.47-.67-2.92-1.36-4.36-2.09-2.44-1.24-4.84-2.58-7.13-4.1-.49-.33-.98-.66-1.46-1.01-.22-.16-.43-.31-.64-.47-.07-.05-.14-.1-.2-.15-.78-.62-1.54-1.27-2.26-1.96-.61-.59-1.17-1.22-1.72-1.87-.12-.17-.24-.33-.35-.5-.2-.3-.39-.6-.56-.91-.14-.26-.26-.53-.4-.8 0 0 0-.02-.01-.03-.05-.15-.11-.3-.15-.46-.08-.27-.14-.54-.2-.81v.11c0-.06 0-.11-.01-.17v-.03a.859.859 0 0 1-.02-.3c-.01-.27-.02-.55 0-.82 0-.07.01-.14.02-.21.06-.29.13-.58.22-.86.04-.13.09-.26.13-.39.28-.54.55-1.08.9-1.58.06-.09.13-.18.2-.28.01-.02.03-.04.04-.05.23-.28.47-.55.72-.81.53-.56 1.1-1.08 1.69-1.57.15-.13.3-.25.46-.37l.02-.01c.02-.02.03-.02.06-.04.36-.26.72-.52 1.08-.77 1.62-1.1 3.33-2.07 5.08-2.95 1-.5 2.02-.98 3.04-1.44.25-.11.51-.22.76-.33.11-.05.23-.1.34-.15h.01c.55-.23 1.1-.45 1.66-.67 2.45-.97 4.93-1.84 7.44-2.65 5.78-1.87 11.66-3.43 17.58-4.82 6.77-1.59 13.59-2.96 20.43-4.2a626.51 626.51 0 0 1 22.36-3.6c1.93-.28 3.87-.55 5.81-.81l.65-.09c-.77.1-.06 0 .13-.02.51-.07 1.03-.14 1.54-.2.98-.13 1.95-.25 2.93-.38 3.88-.5 7.77-.97 11.66-1.41 10.58-1.21 21.02-3.46 30.94-7.37 8.32-3.28 16.21-7.58 23.13-13.29 5.34-4.4 10.18-9.81 13.16-16.11 2.59-5.48 3.79-11.57 2.44-17.56Zm-176.64 84.9c-.03.13-.04.2 0 0Zm.03-.18s.01-.08.01-.12c0 .03 0 .07-.01.12Z"/><path class="cls-16" d="M66.78 51.56c-.02-.05-.03-.11-.05-.16 0-.03-.02-.05-.02-.08-.05-.16-.1-.31-.15-.47 0-.02-.01-.04-.02-.06-.12-.35-.25-.68-.38-1.01-.3-.76-.61-1.49-.95-2.2a28.415 28.415 0 0 0-3.57-5.68 26.528 26.528 0 0 0-6.17-5.51c-.05-.03-.1-.06-.15-.1 0 0-.02-.01-.03-.02-.17-.11-.35-.22-.52-.33-.04-.03-.08-.05-.13-.08-.14-.08-.28-.17-.42-.25-.13-.08-.27-.15-.4-.23-.03-.02-.07-.04-.1-.06-.02 0-.03-.02-.05-.02-1.37-.76-2.98-1.54-4.78-2.18-.01 0-.02 0-.04-.01l-.09-.03-.09-.03c-4.95-1.79-9.7-1.82-13.75-1.1-2.39.38-4.51 1.02-6.5 1.89-.75.31-1.54.69-2.35 1.14-.87.48-1.76 1.04-2.66 1.67-.05.04-.1.07-.15.11-.17.12-.34.24-.51.37-.1.07-.2.15-.29.22-3.45 2.63-6.81 6.32-8.66 10.8 0 .01-.01.03-.02.04-1.25 2.7-2.24 6.05-2.47 9.71-.32 3.6.05 7.1 1.11 10.56 0 .01 0 .02.01.03a32.7 32.7 0 0 0 1.54 4.44c.36.84.78 1.7 1.23 2.54.95 1.87 2.04 3.62 3.36 5.52.68.98 1.42 2 2.23 3.09.03.04.06.08.09.13.74 1 1.52 2 2.28 2.95.02.02.03.04.05.06 1.28 1.58 2.5 3.01 3.36 3.97.6.67 1.31 1.44 2.07 2.25.69.74 1.33 1.41 1.92 2.03.5.52.99 1.04 1.46 1.53 1.81 1.9 5.94 5.7 6.64 6.35.01.01.02.02.04.03.33.31.54.51.58.55.06.07.16.08.27.05.09-.02.17-.05.25-.09.07-.02.13-.06.19-.11.83-.63 2.99-2.7 5.54-5.28.85-.83 1.73-1.71 2.59-2.57 3.15-3.2 6.3-6.75 7.75-8.62.11-.15.24-.32.39-.5.92-1.15 1.82-2.35 2.67-3.57 1.67-2.29 3.54-5 4.69-7.1.69-1.26 1.28-2.5 1.79-3.69 0 0 0-.02.01-.03.1-.2.2-.44.31-.69.56-1.32 1.24-3.33 1.73-5.78.24-1.23.43-2.57.53-4 .22-3.17-.03-6.75-1.2-10.4ZM39.56 105.55v.21c-1.76.13-3.51.76-5.02 1.86-2.25 1.63-3.7 4.07-3.97 6.71-.4 3.83 1.61 7.63 5.01 9.46.35.19.7.35 1.06.49 3.16 1.22 6.87.69 9.55-1.46l.12-.1c3.24-2.77 4.35-7.09 2.81-11-1.54-3.92-5.3-6.34-9.57-6.16Zm.26 9.3c.05-.04.1-.08.15-.1v.3l-.15-.21Z"/><path class="cls-6" d="M138.76 175.67c-1.54-3.92-5.3-6.34-9.57-6.16v.21c-1.76.13-3.51.76-5.02 1.86-2.25 1.63-3.7 4.07-3.97 6.71-.4 3.83 1.61 7.63 5.01 9.46.35.19.7.35 1.06.49 3.16 1.22 6.87.69 9.55-1.46l.12-.1c3.24-2.77 4.35-7.09 2.81-11Zm-9.16 3.05v.3l-.15-.21c.05-.04.1-.08.15-.1ZM171.36 88.18c-.03-.08-.05-.16-.08-.25a.564.564 0 0 0-.04-.12c-.08-.24-.15-.47-.24-.71l-.03-.09c-.19-.53-.38-1.04-.58-1.54-.45-1.16-.94-2.28-1.45-3.36-1.56-3.26-3.39-6.15-5.47-8.69a40.96 40.96 0 0 0-4.04-4.27 41.715 41.715 0 0 0-5.4-4.16c-.07-.05-.15-.1-.22-.15-.02 0-.03-.02-.05-.03-.26-.17-.53-.34-.8-.5-.06-.04-.13-.08-.19-.12-.21-.13-.42-.25-.64-.38-.2-.12-.41-.24-.62-.36-.05-.03-.11-.06-.16-.09-.02-.01-.05-.02-.07-.04a48.797 48.797 0 0 0-7.32-3.34c-.02 0-.04-.01-.05-.02-.05-.02-.09-.03-.14-.05-.04-.02-.09-.03-.13-.05-7.58-2.74-14.85-2.78-21.04-1.69-3.66.58-6.9 1.56-9.95 2.9a35.46 35.46 0 0 0-3.6 1.74c-1.33.73-2.7 1.59-4.07 2.55-.08.05-.16.11-.23.17-.26.18-.52.37-.77.56-.15.11-.3.22-.45.34-5.28 4.02-10.42 9.68-13.25 16.53 0 .02-.02.04-.03.07-1.92 4.14-3.44 9.26-3.78 14.86-.49 5.5.08 10.86 1.69 16.16 0 .02.01.03.02.05a51.33 51.33 0 0 0 2.35 6.8c.55 1.29 1.19 2.6 1.88 3.89 1.46 2.86 3.13 5.55 5.14 8.45 1.04 1.5 2.17 3.06 3.41 4.73.05.07.1.13.14.2 1.13 1.52 2.32 3.06 3.49 4.51.03.03.05.07.08.1 1.95 2.42 3.82 4.6 5.14 6.08.92 1.03 2.01 2.21 3.16 3.44 1.05 1.13 2.03 2.15 2.94 3.1.76.8 1.52 1.59 2.24 2.35 2.77 2.91 9.1 8.72 10.16 9.71.02.02.04.03.06.05.51.48.83.78.88.84.09.11.25.11.41.08.13-.03.27-.08.38-.14.11-.03.2-.09.3-.16 1.28-.97 4.58-4.14 8.47-8.09 1.3-1.27 2.65-2.61 3.96-3.94 4.82-4.89 9.64-10.33 11.87-13.2.17-.22.37-.48.59-.77 1.41-1.76 2.78-3.6 4.09-5.46 2.55-3.51 5.42-7.65 7.18-10.87 1.06-1.93 1.97-3.82 2.74-5.64 0-.01.01-.03.02-.04.15-.31.31-.67.47-1.06.85-2.02 1.9-5.09 2.64-8.85.37-1.88.66-3.94.82-6.12.34-4.86-.04-10.34-1.83-15.92Z"/><rect class="cls-12" x="143.57" y="111.41" width="7.61" height="15.53" rx="2.7" ry="2.7" transform="rotate(-89.76 147.368 119.172)"/><path class="cls-12" d="m107.93 114.36 7.08.02.16-43.08-7.07-.03-.04 11.32-.13 31.77z"/><path style="fill:#ffd066;stroke-width:0" d="m104.8 87.83-.26 20.75-.06 4.78-.18 14.95 51.17.2.03-7.51.02-4.78.11-28.33-50.83-.06z"/><path class="cls-17" d="m123.17 101.35-.08 19.49-.02 5.96-13.88-.06.06-16.04.04-9.4 13.88.05z"/><path class="cls-10" transform="rotate(-179.78 140.305 108.926)" d="M132.55 101.42h15.52v15h-15.52z"/><path class="cls-4" transform="rotate(-179.78 129.76 127.216)" d="M101.97 125.85h55.6v2.71h-55.6z"/><path class="cls-5" d="M145.01 83.37h4.09c.19 0 .34.15.34.34v9.03c0 .19-.15.34-.34.34h-4.09c-.19 0-.34-.15-.34-.34v-9.03c0-.19.15-.34.34-.34Z" transform="rotate(-89.76 147.053 88.228)"/><path class="cls-5" d="m121.5 91.08 9.03.04c.19 0 .34.16.34.35v.69l-9.72-.04v-.69c0-.19.16-.34.35-.34Z"/><path class="cls-4" d="M102.1 92.04v2.71l19.04.07 9.72.04 26.65.1v-2.71l-4.2-15.49-23.71-.09-9.72-.04-13.44-.05-2.46 8.77-1.34 4.78-.54 1.91Z"/><path class="cls-6" d="m132.52 116.39 15.52.06.06-15-1.94 3.36a8.478 8.478 0 0 1-5.75 4.09 8.523 8.523 0 0 0-5.6 3.83l-2.29 3.65Z"/><path class="cls-15" transform="rotate(-89.78 140.72 109.681)" d="M140.01 101.16h1.44v17.05h-1.44z"/><path class="cls-15" transform="rotate(-179.78 140.297 110.196)" d="M139.59 101.05h1.44v18.28h-1.44z"/><path class="cls-4" d="m30.69 67.67-4.41-.05.28-26.9 4.41.05-.07 7.06-.21 19.84z"/><path style="fill:#d3c3dd;stroke-width:0" d="m55.43 76.6-31.94-.33.26-25.36 31.73.42-.05 25.27z"/><rect x="23.73" y="51.15" width="6.09" height="2.99" rx="1.33" ry="1.33" transform="rotate(.57 27.405 53.14)" style="stroke-width:0;fill:#f96800"/><path class="cls-17" d="m56.7 55.44-.32-1.2-.8-3-1.46-5.49-8.42-.09-6.08-.06-14.85-.16-2.78 9.64-.02 1.69 16.69.17 6.09.07 11.93.12.02-1.69z"/><rect class="cls-10" x="26.56" y="60.54" width="6.24" height="5.12" rx=".14" ry=".14" transform="rotate(.59 29.458 62.972)"/><rect class="cls-17" x="22.22" y="76.34" width="34.71" height="1.69" rx=".71" ry=".71" transform="rotate(.59 40.215 77.484)"/><path style="fill:#7e557c;stroke-width:0" d="m43.77 66.38.06-5.87-8.67-.09-.12 12.17-.04 3.72 8.66.09.11-10.02z"/><path class="cls-14" transform="rotate(.59 40.145 63.888)" d="M36.13 61.44h6.79v5.12h-6.79z"/><path class="cls-6" d="m32.75 65.69-6.2-.06s-.02 0-.02-.02v-1.42c1.37 1.07 2.65.02 3.53-1.09s1.38-1.51 2.5-2.34l.25-.18s.02 0 .02.02l-.05 5.08s0 .02-.02.02ZM42.87 66.56l-6.66-.07s-.02 0-.02-.02v-1.42c1.47 1.07 2.84.02 3.78-1.08s1.48-1.51 2.69-2.34l.26-.18s.02 0 .02.02l-.05 5.08s0 .02-.02.02Z"/><path class="cls-10" d="M49.79 63.09c.87-1.09 1.39-1.5 2.51-2.32l-5.91-.06s-.01 0-.01.01l-.04 3.53c1.33.94 2.59-.08 3.46-1.17Z"/><path class="cls-14" d="m52.6 60.78-.05 4.89s0 .02-.02.02l-6.21-.06v.19s0 .01.01.01l6.21.06s.01 0 .01-.01l.05-5.09s0-.01-.01-.01Z"/><path class="cls-3" d="M52.6 60.78v-.19s0-.02-.02-.02l-.25.18s-.02.02-.03.02h.3ZM46.23 64.18v1.44h.09l.01-1.36c-.04-.02-.07-.05-.11-.08Z"/><path class="cls-6" d="m52.55 65.66.05-4.89h-.3c-1.12.81-1.64 1.23-2.51 2.32-.87 1.08-2.12 2.1-3.46 1.17v1.36l6.19.06c.01 0 .02 0 .02-.02Z"/><path class="cls-17" d="M25.6 65.59h7.83v1.6H25.6zM45.68 65.59h7.83v1.6h-7.83z"/><path class="cls-9" d="M108 76.3c2.44-.68 4.91-.69 7.36 0-2.44.69-4.91.68-7.36 0ZM25.86 45.24c1.71-.68 3.46-.69 5.18 0-1.71.69-3.46.68-5.18 0Z"/></g></svg>