<?xml version="1.0" encoding="UTF-8"?><svg xmlns="http://www.w3.org/2000/svg" viewBox="0 0 200 200"><defs><style>.cls-1{fill:none;}.cls-2{fill:#c0d9dd;}.cls-3{fill:#f47f20;}.cls-4{fill:#eeece9;}.cls-5{fill:#a0b3b4;}.cls-6{fill:#f47721;}.cls-7{fill:#f7b3c2;}.cls-8{fill:#fff;}.cls-9{fill:#e4b241;}.cls-10{fill:#f1a5af;}.cls-11{fill:#f8ee92;}.cls-12{fill:#ffcf67;}.cls-13{fill:#a5cf62;}.cls-14{fill:#f5c141;}.cls-15{fill:#b3c9cb;}.cls-16{fill:#5b3d5b;}</style></defs><g id="BG_x5F_Strong"><path class="cls-4" d="M13.97,171.64c129.63,63.34,75.71-9.51,132.5-20.52,87.77,3.12,50.06-159.46-22.29-141.07-39.95,9.69-80.76,46.67-82.94,89.49,12.49,32.92-42.96,47.03-27.28,72.1Z"/></g><g id="Illustrations"><path class="cls-4" d="M67.42,137.48s-.06-.02-.1,0c0,0,0,0,0,.02l.11.06v-.06s0,0,0,0Z"/><path class="cls-4" d="M67.73,139.93v-.09c-.1.1-.16.06-.1.39.27.19.39-.31.75.06-.05-.08-.09-.21-.12-.34-.09.24-.32.13-.53-.02h0Z"/><path class="cls-4" d="M68.27,139.95s0,0,0-.02c.02-.03.03-.06.04-.09-.02-.07-.04-.13-.04-.19-.03.07-.03.18,0,.29h0Z"/><path class="cls-4" d="M50.36,112.88c-.08-.05-.17-.1-.24-.13.11.09.18.12.24.13Z"/><path class="cls-4" d="M66.38,135.55c0-.07-.02-.15-.04-.23-.02-.04-.04-.08-.06-.13l.1.36Z"/><path class="cls-4" d="M67.76,138.22l-.38-1.09.05.34c.2.1.11.66.34.74h0Z"/><path class="cls-4" d="M65.23,134.57s-.04-.09-.07-.16c.03.06.05.12.07.16Z"/><path class="cls-4" d="M60.6,125.96c.11.29.24.43.36.26-.18-.3-.17-.08-.36-.26Z"/><polygon class="cls-4" points="61.13 126.62 61.11 126.87 61.19 126.54 61.13 126.62"/><path class="cls-4" d="M61.88,128.44c.08.09.15.17.13.07-.03,0-.09-.03-.13-.07Z"/><path class="cls-4" d="M61.83,128.24l-.1.03s.07.07.11.12c-.03-.05-.05-.11-.01-.15h0Z"/><path class="cls-4" d="M61.97,128.87l.3.22.06-.49c-.32-.3.1.49-.37.27h0Z"/><path class="cls-4" d="M63.43,130.65c.03.55-.3-.24-.44-.35.09.38.73.7.51,1.04.61.93.41-.47,1.04.65-.32-1.18-.84-.3-1.1-1.34h0Z"/><path class="cls-4" d="M63.42,129.88c-.18.02.02.47.19.56-.04-.14.06-.46-.19-.56Z"/><polygon class="cls-4" points="64.03 132.55 64.16 132.59 64.01 132.19 64.03 132.55"/><path class="cls-4" d="M64.14,133.17c.11.07.28.54.31.23l-.31-.23Z"/><path class="cls-4" d="M65.13,135l.04.15c-.08-.01-.1.38-.28.02.05.32.57.42.24-.16h0Z"/><path class="cls-4" d="M67.03,138.87c-.07-.21-.21-.43-.28-.36l.3.53v-.18Z"/><path class="cls-4" d="M67.76,137.48c.11.44.05.41.27.93.19-.29-.22-.52-.27-.93Z"/><path class="cls-4" d="M66.91,139.66c-.16-.11-.18-.37-.22-.52-.12.12.06.5.22.52Z"/><path class="cls-4" d="M68.12,141.45c-.34-.6-.94-.74-.69-1.19l-.65-.36c.12.54.46.27.57.64-.03.22-.16.01-.18.18.04.44.22.86.45,1.03.07-.15.31-.41.5-.29h0Z"/><path class="cls-4" d="M68.04,139.61c.29-.21-.24-.49-.33-.68l-.02.39c.12-.12.24.12.36.29h0Z"/><polygon class="cls-4" points="69.28 144.42 68.97 143.97 69.37 144.66 69.28 144.42"/><polygon class="cls-4" points="69.08 144.48 68.99 144.54 69.41 145.01 69.08 144.48"/><polygon class="cls-4" points="69.01 144.8 69.31 145.28 69.29 145.19 69.01 144.8"/><path class="cls-4" d="M69.73,146.13c.13.13.3.51.26.67l.06-.2c-.13-.16-.15-.6-.32-.47h0Z"/><path class="cls-4" d="M154.21,35.27c.15.05.3.09.43.11-.24-.09-.37-.12-.43-.11Z"/><path class="cls-4" d="M20.33,73.71c.03-.18.18-.23.27-.37-.12-.47-.3.71-.33.11-.06.16-.08.29-.09.42l.34-.11c.03-.34-.17.17-.2-.05Z"/><path class="cls-4" d="M23.36,68.68c.05-.05.1-.1.14-.14-.1.04-.14.09-.14.14Z"/><path class="cls-4" d="M18.75,81.98s-.03-.04-.05-.05c.02.03.03.04.05.05Z"/><path class="cls-4" d="M147.47,32.81c-.22,0-.47-.15-.45,0,.09.1.54.14.45,0Z"/><path class="cls-4" d="M58.62,36.32c.04-.08.08-.15.11-.22-.08.1-.11.16-.11.22Z"/><path class="cls-4" d="M159.64,35.01s.02.03.03.05c.04-.03,0-.05-.03-.05Z"/><path class="cls-4" d="M161.14,36.24l.14.15s-.08-.09-.14-.15Z"/><path class="cls-16" d="M118.2,155.55c.17-.45.48-.44.94-.43.12,0,.24,0,.38,0,1.18-.02,2.83.05,3.43.09h.02c.55.04,1.98.18,2.25.29.16.07.26.37.26.79,0,.39-.09.78-.21.95-.15.21-1.77.13-2.72.07l-2.99-.2c-1.45-.1-1.5-.22-1.48-.81l.1-.04h0s0,0,0,0l-.1.03h0c0-.31.05-.57.12-.76Z"/><path class="cls-15" d="M92.07,104.41c.46-5.04,2.56-30.18,2.64-31.79.08-1.61,1.89-25.51,2.06-27.97.17-2.46.49-9.21,1.08-10.44.59-1.24,1.54-3.11,2.97-3.75,1.43-.64,3.42-1.23,7.8-1.03,4.37.2,28.91,1.51,32.64,1.76,3.11.21,18.65,1.34,24.61,1.67.02-.18.16-.36.35-.36h0c2.37.13,4.82.61,6.84,1.9.76.48,1.44,1.06,1.99,1.77.65.84,1.03,1.85,1.27,2.88.34,1.47.44,2.99.42,4.5,0,.33-.2,2.79-.22,3-.08,1.25-.15,2.51-.23,3.76-.01.21-.27.34-.45.3,0,0,0,0-.01,0v.05s-1.16-.1-1.16-.1l-.88,11.84,1.21.08c.05-.01.1-.01.15,0,.23.04.32.25.3.45h0c-.11,1.56-.21,3.12-.31,4.68.02.05.03.11.02.17h0c-.39,5.52-.76,11.04-1.14,16.56-.38,5.58-.76,11.16-1.15,16.74-.41,5.85-.81,11.69-1.18,17.54-.36,5.78-.7,11.57-1.04,17.35-.34,5.77-.67,11.53-1.02,17.29-.04.75-.09,1.49-.14,2.24-.02.26-.24.39-.45.38-.03.74-.08,1.64-.13,2.53.02,0,.04,0,.06,0,.23.04.32.25.3.45h0c-.08,1.24-.15,2.49-.23,3.73,0,0,0,.02,0,.03-.01.46-.04.92-.09,1.38-.01.2-.02.39-.04.59,0,.05-.02.1-.05.14-.23,1.57-.68,3.1-1.39,4.54-.59,1.18-1.44,2.15-2.54,2.88-1.17.78-2.54,1.29-3.94,1.45-.85.1-1.72.05-2.57,0-.44-.02-.88-.05-1.31-.09-.9-.05-1.8-.1-2.7-.15-2.71-.15-5.42-.3-8.13-.46-2.25-.13-4.5-.3-6.76-.46-4.48-.32-8.97-.61-13.46-.92-4.74-.32-9.48-.67-14.21-1.16-.17-.02-.35-.04-.52-.06-2.65-.23-5.29-.55-7.93-.8-.41-.04-.83-.07-1.24-.11-.18-.01-.35-.03-.53-.04-.08,0-.16-.01-.24-.02-.03,0-.05,0-.08,0-.01,0-.02,0-.03,0-.01,0-.03,0-.04,0-.01,0-.02,0-.03,0-.03,0-.05,0-.08,0h0c-1.05-.07-2.1-.18-3.15-.31-1.04-.12-2.11-.23-3.12-.52-1.49-.43-2.89-1.18-3.89-2.39-.93-1.12-1.47-2.53-1.72-3.95-.25-1.42-.33-2.87-.41-4.31-.01-.24.16-.37.34-.39.08-3.37.29-10.13.77-18.86.57-10.33,1.65-29.17,2.12-34.21Z"/><path class="cls-14" d="M173.24,62.55c.11-3.16.29-6.32.55-9.47.08-.92.16-1.83.24-2.75.02-.21.27-.34.45-.3.1.02.18.08.23.15.57,0,1.15-.01,1.71.03.57.04.85.47.88,1.01.04.59.01,1.18,0,1.77,0,.61-.02,1.22-.03,1.83-.07,2.41-.24,4.81-.52,7.2-.03.29-.1.57-.35.75-.23.15-.51.15-.77.15-.59,0-1.17-.05-1.76-.11-.06.06-.14.1-.23.1-.19.01-.42-.15-.41-.36h0Z"/><path class="cls-2" d="M172.36,45.89l.19-2.11s-.04,0-.06,0c-.21-.01-.34-.27-.3-.45.04-.23.24-.32.45-.3,1.26.08,2.52.11,3.77.19.21.01.34.27.3.45,0,.02-.01.05-.02.07-.01.46-.05.93-.09,1.39-.02.27-.04.53-.06.79,0,.11-.02.23-.02.34,0,.05,0,.1-.01.16,0,0,0,.01,0,.02,0,0,0,0,0,.03,0,0,0,0,0,0,0,0,0,0,0,0,0-.01,0-.03,0-.04,0,0,0,.02,0,.04,0,.03,0,.06,0,.09-.02.1-.07.17-.14.22,0,0,0,0,0,0,0,0-.01,0-.02.01-.05.04-.11.06-.18.07-.03,0-.06,0-.09,0,0,0,0,0-.01,0-1.24-.08-2.49-.16-3.73-.25-.21-.01-.34-.27-.3-.45.04-.18.18-.26.35-.28Z"/><path class="cls-2" d="M165.15,158.22l.16-2.47c-.1-.06-.18-.15-.19-.28-.01-.19.15-.42.36-.41h0c1.12.04,2.23.11,3.35.15.09-.07.23-.11.33-.09.22.04.31.24.3.44,0,0,0,0,0,.01,0,.03,0,.06,0,.1-.07,1.05-.15,2.11-.21,3.16,0,.13-.11.23-.23.28-.09.06-.2.09-.31.08-1.19-.08-2.38-.16-3.57-.24-.21-.01-.34-.27-.3-.45.03-.17.17-.24.32-.27Z"/><path class="cls-8" d="M171.18,98.55c-.37,5.14-.74,10.29-1.11,15.43-.04.51-.81.35-.78-.15.37-5.14.74-10.29,1.11-15.43.04-.51.81-.35.78.15h0Z"/><path class="cls-8" d="M170.64,98.23c.68-.8,1.35-1.6,2.03-2.39.13-.16.4-.19.56-.04s.18.39.04.56c-.68.8-1.35,1.6-2.03,2.39-.13.16-.4.19-.56.04s-.18-.39-.04-.56h0Z"/><path class="cls-8" d="M170.15,113.68c.52,1.04,1.04,2.09,1.55,3.13l-.73-.04c.07-.21.15-.42.22-.62s.35-.27.53-.18c.21.1.25.33.18.53s-.15.42-.22.62c-.05.14-.24.23-.38.22-.17-.01-.27-.11-.35-.26-.52-1.04-1.04-2.09-1.55-3.13-.1-.19.06-.44.24-.5.22-.08.41.05.5.24h0Z"/><path class="cls-2" d="M165.51,158.41s0,0,0-.01c.01-.16.02-.33.03-.49.41-6.31.78-12.61,1.15-18.92.36-6.16.71-12.31,1.08-18.47.38-6.3.78-12.6,1.22-18.9.44-6.24.87-12.47,1.3-18.71.42-6.16.84-12.32,1.27-18.48h0c0-.06,0-.12-.02-.17.18-2.62.35-5.24.53-7.86.23-3.37.46-6.74.68-10.12.06-.93.12-1.87.19-2.81,0,0,0,0,0,0h0s0,0,0,0c0,0,0-.02,0-.03.14-2.06.31-4.11-.23-6.14-.28-1.03-.73-2.12-1.49-2.89-.58-.6-1.36-.99-2.14-1.27-1.22-.43-2.5-.62-3.79-.7-3.48-.22-6.95-.46-10.43-.69-5.5-.42-11-.8-16.51-1.14-5.42-.34-10.84-.65-16.26-.93-2.76-.14-5.53-.28-8.29-.41-1.43-.07-2.87-.13-4.3-.2-1.24-.06-2.48-.15-3.73-.15-2.01,0-4.27.35-5.85,1.68-1.72,1.45-2.7,3.49-2.97,5.7-.14,1.12-.16,2.27-.23,3.4-.06.88-.12,1.76-.18,2.64-.11,1.53-.2,3.05-.28,4.58-.01.03-.02.06-.02.1-.09,1.26-.18,2.52-.28,3.79-.73,9.91-1.53,19.81-2.32,29.71-.77,9.64-1.55,19.28-2.25,28.92-.7,9.64-1.32,19.29-1.81,28.95-.25,4.93-.41,9.87-.65,14.81-.1,2.08-.32,4.24.13,6.3.38,1.74,1.36,3.14,2.9,4.05,2.66,1.58,6,1.39,8.98,1.68,2.31.23,4.61.53,6.92.75.34.04.67.07,1.01.11,4.69.48,9.39.83,14.09,1.15,4.43.3,8.87.58,13.3.9,2.23.16,4.46.33,6.68.46,2.7.16,5.39.31,8.09.46,1.2.07,2.41.13,3.61.2.54.03,1.07.07,1.61.08.81.06,1.64.13,2.45.11,1.41-.04,2.83-.53,3.92-1.44,1.15-.96,1.8-2.26,2.19-3.68.34-1.21.48-2.45.55-3.7,0-.08.01-.17.02-.25,0,0,0-.01,0-.02,0-.12.02-.23.02-.35.04-.53.09-1.07.11-1.6Z"/><path class="cls-5" d="M101.28,169.36s.02,0,.02,0c-.03,0-.04,0-.02,0Z"/><polygon class="cls-5" points="176.51 46.57 176.51 46.57 176.51 46.57 176.51 46.57"/><path class="cls-4" d="M88.84,37.29s-.05-.05-.07-.07c.04.02.06.05.07.07Z"/><path class="cls-4" d="M162.61,97.08c-.03-.1-.05-.2-.07-.27.07.13.08.22.07.27Z"/><path class="cls-14" d="M94.03,59.82c.06-.91.14-1.81.21-2.72.07-.89.14-1.79.2-2.68.03-.46.07-.91.1-1.36.03-.39.03-.8.11-1.19.08-.38.3-.73.68-.87.35-.12.76-.03.97.29.11.17.07.34-.03.45l-.66,8.66c.16.22.08.6-.27.62-.34.02-.71,0-.99-.21-.32-.24-.36-.62-.33-1Z"/><path class="cls-14" d="M93.03,73.26c.05-.9.11-1.81.19-2.71.14-1.75.28-3.5.52-5.23.05-.4.21-.81.6-.98.34-.15.75-.07.97.25.13.19.07.38-.07.49l-.83,8.51c.11.06.21.13.28.23.29.39-.3.8-.61.47,0,0-.01,0-.03,0-.06,0-.12,0-.18,0-.18,0-.34-.02-.49-.11-.32-.19-.38-.56-.36-.9Z"/><path class="cls-2" d="M176.64,44.93c-.04.58-.08,1.16-.12,1.74,0,.09-.09.2-.16.24-.08.05-.2.08-.29.06-.1-.02-.19-.08-.24-.16-.06-.09-.07-.18-.06-.29.04-.58.08-1.16.12-1.74,0-.09.09-.2.16-.24.08-.05.2-.08.29-.06.1.02.19.08.24.16.06.09.07.18.06.29"/><path class="cls-8" d="M99.85,62.1c.3-3.51.66-7.02,1.01-10.53.51-3.24-.03-8.09,3.86-9.49,0,0,.03.06.05.13h0c.1-.04.23-.07.4-.09-.15-.01-.3-.02-.45-.04,3.65-.62,7.35-.06,11.03.03l10.95.6,21.91,1.26s10.95.7,10.95.7c3.53.16,9.09.24,8.79,4.98-.77,14.34-3.41,49.9-4.5,64.63-.79,10.55-1.61,21.11-2.76,31.63-1.08,8.22.1,10.7-9.85,9.85-17.02-1.24-34.96-2.89-52.01-3.79,0,0-1.37-.08-1.37-.08-3.54.09-4.01-2.68-3.92-5.39,1.07-27.43,3.41-57.08,5.91-84.41Z"/><path class="cls-16" d="M136.3,38.5c-2.38.17-2.65-3.52-.27-3.7,2.38-.17,2.65,3.52.27,3.7"/><path class="cls-8" d="M99.95,60.08c.04-.38.07-.77.11-1.15.27-3.1.61-6.2.93-9.29.49-2.86-.09-7.15,3.78-8.36,0,0,.03.06.05.11h0c.1-.03.23-.06.4-.08-.15-.01-.3-.02-.45-.03,3.64-.52,7.35,0,11.02.11l10.95.61,21.91,1.28s10.95.7,10.95.7c3.53.17,9.09.28,8.83,4.47-.21,3.92-.58,9.65-1.02,16.06l-67.45-4.44Z"/><path class="cls-16" d="M122.35,168.6c.17-.45.48-.44.94-.43.12,0,.24,0,.38,0,1.18-.02,2.83.05,3.43.09h.02c.55.04,1.98.18,2.25.29.16.07.26.37.26.79,0,.39-.09.78-.21.95-.15.21-1.77.13-2.72.07l-2.99-.2c-1.45-.1-1.5-.22-1.48-.81l.1-.04h0s0,0,0,0l-.1.03h0c0-.31.05-.57.12-.76Z"/><g id="Layer_7"><path class="cls-10" d="M159.35,93.96c.08-.7.15-1.41.2-2.12,0,0,0-.01,0-.02.21-2.19.41-4.38.6-6.58.19-2.25.37-4.5.53-6.76.16-2.23.32-4.45.46-6.68.15-2.23.28-4.46.42-6.69.07-1.12.14-2.25.2-3.37.03-.49.04-1-.19-1.45-.21-.41-.61-.66-1.03-.79-.23-.07-.47-.1-.71-.13-1.03-.08-2.06-.15-3.08-.23-.48-.04-.97-.07-1.45-.11-1.31-.1-2.62-.2-3.92-.29-1.91-.14-3.83-.29-5.74-.43-2.32-.17-4.64-.35-6.96-.52-2.51-.19-5.02-.38-7.53-.57-2.48-.19-4.96-.37-7.44-.56-2.25-.17-4.5-.34-6.74-.51-1.81-.14-3.62-.27-5.43-.41l-3.46-.26c-.98-.07-2.23-.28-2.82.72-.28.47-.3,1.04-.35,1.57-.05.53-.11,1.05-.15,1.58,0,0,0,.01,0,.02-.21,2.19-.41,4.38-.6,6.57-.19,2.25-.37,4.5-.53,6.76-.16,2.23-.32,4.45-.46,6.68-.15,2.23-.28,4.46-.42,6.69-.07,1.12-.14,2.25-.2,3.37-.03.49-.04,1,.19,1.45.21.41.61.66,1.03.79.23.07.47.1.71.13,3.52.26,7.03.53,10.55.79,2.88.22,5.75.43,8.63.65,2.65.2,5.29.4,7.94.59,2.83.21,5.65.42,8.48.63,3.41.26,6.83.51,10.24.77.49.04.98.07,1.46.11,1.02.08,2.04.16,3.05.24.62.05,1.24.1,1.86.14.51.04,1.04.1,1.54-.09.31-.11.57-.3.76-.57.24-.33.31-.74.36-1.14h0Z"/></g><g id="Layer_16"><path class="cls-9" d="M118.52,57.28s0,0,0,0h0Z"/><path class="cls-9" d="M118.51,57.28h.01s-.01,0-.01,0Z"/><path class="cls-9" d="M118.43,57.28h.06s-.04,0-.06,0Z"/><path class="cls-9" d="M118.5,57.28h.01s-.01,0-.01,0Z"/><path class="cls-1" d="M159.84,59.38c.24.02.48.06.71.13.42.13.83.38,1.03.79.23.45.22.96.19,1.45-.03.57-.07,1.15-.1,1.72.08.05.14.09.18.11.1.05.17-.75.23-1.41.06-.65.83-1.89.05-2.49-.79-.6-3.9-.84-3.9-.84.1.1.22.27.32.44.44.03.87.07,1.31.1h0Z"/></g><g id="Layer_11"><path class="cls-11" d="M118.14,73.68c.03-.43.05-.85.08-1.28.05-.84.16-1.67.2-2.51.02-.4-.01-.8-.18-1.16-.14-.3-.4-.54-.69-.69-.44-.22-.91-.26-1.39-.3-.31-.02-.61-.05-.92-.07-.6-.05-1.2-.09-1.8-.14-.37-.03-.74-.06-1.1-.08-.26-.02-.52-.04-.78-.03-.32.02-.66.09-.94.26-.32.19-.53.49-.66.83-.14.38-.17.8-.2,1.2-.03.35-.05.71-.07,1.06-.01.2-.03.39-.04.59-.05.82-.16,1.64-.2,2.46-.02.37,0,.76.13,1.11.13.33.36.59.67.76.35.2.74.27,1.14.31,1.31.1,2.61.19,3.92.3.4.03.79.08,1.19.02.34-.05.66-.16.94-.37.3-.24.47-.59.55-.95.1-.43.12-.88.15-1.32h0Z"/></g><path class="cls-6" d="M112.4,80.83c-.2-.18-.97.35-1.73,1.2-.37.43-.68.82-.86,1.21-.09.19-.13.38-.12.51,0,.13.06.21.12.23.14.03.29-.12.56-.32.26-.2.67-.55,1.04-.97.75-.84,1.2-1.67,1-1.86Z"/><path class="cls-6" d="M112.02,83.77c.12-.05.16-.28.1-.61-.07-.33-.24-.75-.53-1.16-.29-.41-.63-.72-.91-.89-.29-.17-.51-.21-.61-.11-.18.21.21.85.71,1.57.51.72.98,1.31,1.24,1.2Z"/><path class="cls-6" d="M117.73,81.52c-.19-.19-.87.19-1.51.84-.64.66-1,1.34-.81,1.53.19.19.87-.19,1.51-.84.64-.66,1-1.34.81-1.53Z"/><path class="cls-6" d="M117.56,84.21c.13-.03.21-.26.17-.63-.04-.36-.22-.84-.55-1.27-.34-.43-.75-.72-1.09-.85-.34-.13-.58-.11-.64,0-.06.12.05.32.24.56.19.23.44.54.72.89.26.35.5.68.68.92.19.24.35.4.48.37Z"/><path class="cls-6" d="M125.13,82.07c-.2-.19-.88.21-1.53.89-.65.68-1.01,1.39-.82,1.57.2.19.88-.21,1.53-.89s1.01-1.39.82-1.57Z"/><path class="cls-6" d="M124.92,84.86c.22-.17-.09-.93-.67-1.71-.59-.78-1.24-1.27-1.46-1.11-.22.17.09.93.67,1.71.59.78,1.24,1.27,1.46,1.11Z"/><path class="cls-6" d="M129.91,82.31c-.18-.2-.91.19-1.54.94-.63.75-.89,1.54-.66,1.69.23.15.82-.35,1.41-1.05.59-.7.98-1.38.79-1.58Z"/><path class="cls-6" d="M129.81,85.31c.24-.13.02-.98-.58-1.82-.6-.85-1.32-1.33-1.52-1.15-.2.18.16.92.72,1.72.56.8,1.14,1.38,1.38,1.25Z"/><path class="cls-6" d="M137.48,83.15c-.16-.21-.98.14-1.72.9-.75.76-1.1,1.58-.88,1.74.22.17.88-.34,1.58-1.04.69-.71,1.19-1.38,1.03-1.6Z"/><path class="cls-6" d="M137.12,86c.12-.05.17-.28.11-.62-.06-.34-.23-.77-.53-1.19-.3-.42-.65-.73-.94-.9-.3-.17-.53-.2-.62-.1-.17.22.25.84.76,1.57.51.72.96,1.33,1.22,1.24Z"/><path class="cls-6" d="M142.43,83.5c-.2-.19-.9.24-1.56.96-.66.71-1.04,1.44-.84,1.63s.9-.24,1.56-.96c.66-.71,1.04-1.44.84-1.63Z"/><path class="cls-6" d="M142.19,86.68c.24-.13.05-.95-.43-1.83-.48-.88-1.06-1.48-1.29-1.35-.24.13-.05.95.43,1.83.48.88,1.06,1.48,1.29,1.35Z"/><path class="cls-7" d="M126.43,56.87c-.91-.07-1.81-.14-2.72-.2-2.25-.17-4.5-.34-6.74-.51-1.81-.14-3.62-.27-5.43-.41l-3.46-.26c-.98-.07-2.23-.28-2.82.72-.28.47-.3,1.04-.35,1.57-.05.53-.11,1.05-.15,1.58,0,0,0,.01,0,.02-.21,2.19-.41,4.38-.6,6.57-.17,2.01-.33,4.02-.48,6.04,4.5-7.48,13.23-12.08,22.75-15.13Z"/><path class="cls-8" d="M121.92,63.01c.06,0,.17-.26.02-.72-.07-.23-.22-.5-.49-.74-.27-.24-.67-.42-1.14-.42-.23,0-.48.03-.72.13-.25.1-.47.25-.66.43-.39.36-.65.81-.93,1.17-.13.17-.28.32-.45.44-.17.12-.36.2-.51.2-.15,0-.26-.03-.36-.14-.1-.11-.19-.3-.23-.53-.1-.44.02-1.05-.15-1.72-.09-.34-.28-.67-.53-.91-.25-.24-.54-.4-.83-.49-.58-.19-1.16-.16-1.66-.01-.51.16-.9.44-1.21.72-.61.57-.92,1.14-1.12,1.53-.2.39-.27.63-.21.66.06.04.24-.13.52-.45.29-.31.68-.79,1.24-1.21.28-.2.62-.39.97-.46.36-.08.78-.06,1.15.08.37.14.65.41.73.79.05.2.06.44.06.72,0,.14,0,.29,0,.44,0,.16.02.34.06.51.07.34.2.71.49,1.02.29.31.75.47,1.15.42.4-.04.71-.22.97-.4.26-.19.47-.43.63-.66.31-.45.53-.86.78-1.13.25-.28.53-.41.83-.44.3-.03.58.04.79.17.21.13.37.3.47.46.21.32.25.56.32.56Z"/><path class="cls-9" d="M118.25,73.43c0-.07-.31-.13-.82-.18-.25-.03-.56-.05-.89-.06-.08,0-.17,0-.26-.01-.05,0-.08,0-.14,0-.06,0-.11,0-.17.01-.22.03-.45.13-.63.29-.18.16-.31.37-.38.59-.03.1-.05.23-.05.32,0,.09,0,.18-.01.26-.02.34-.02.64-.02.9,0,.51.03.83.1.84s.16-.3.24-.81c.04-.25.09-.56.13-.89,0-.08.02-.17.03-.26,0-.09.02-.14.04-.21.04-.13.13-.26.24-.35.11-.1.25-.16.38-.18.07-.01.13-.01.23-.01.09,0,.17,0,.26,0,.34,0,.64-.02.89-.04.51-.04.82-.1.83-.16Z"/><path class="cls-9" d="M115.58,67.88c-.07,0-.13.32-.19.83-.03.26-.05.56-.07.9,0,.08,0,.17-.01.26,0,.05,0,.08,0,.14,0,.06,0,.11,0,.17.03.23.12.45.28.64.16.18.36.32.58.38.1.03.23.05.32.05.09,0,.17,0,.26.01.34.02.64.02.89.02.51,0,.83-.04.83-.11,0-.07-.3-.16-.81-.24-.25-.04-.55-.09-.89-.13-.08,0-.17-.02-.26-.03-.09,0-.14-.02-.21-.04-.13-.04-.26-.13-.35-.24-.1-.11-.16-.25-.18-.39-.01-.07-.01-.14-.01-.23,0-.09,0-.18,0-.26,0-.34-.02-.64-.04-.9-.04-.51-.09-.83-.16-.83Z"/><path class="cls-9" d="M109.82,70.65c0,.07.31.13.82.18.25.03.56.05.89.06.08,0,.17,0,.26.01.05,0,.08,0,.14,0,.06,0,.11,0,.17-.01.23-.03.45-.13.63-.29.18-.16.31-.37.38-.59.03-.1.05-.23.05-.32,0-.09,0-.18.01-.26.02-.34.02-.64.02-.9,0-.51-.03-.83-.1-.84s-.16.3-.24.81c-.04.25-.09.56-.13.89,0,.08-.02.17-.03.26,0,.09-.02.14-.04.21-.04.13-.13.26-.24.35-.11.1-.25.16-.38.18-.07.01-.13.01-.23.01-.09,0-.17,0-.26,0-.34,0-.64.02-.89.04-.51.04-.82.1-.83.16Z"/><path class="cls-9" d="M112.32,76.07c.07,0,.13-.32.19-.83.03-.26.05-.56.07-.9,0-.08,0-.17.01-.26,0-.05,0-.08,0-.14,0-.06,0-.11,0-.17-.03-.23-.12-.45-.28-.64-.16-.18-.36-.32-.58-.38-.1-.03-.23-.05-.32-.05-.09,0-.17,0-.26-.01-.34-.02-.64-.02-.89-.02-.51,0-.83.04-.83.11,0,.07.3.16.81.24.25.04.55.09.89.13.08,0,.17.02.26.03.09,0,.14.02.21.04.13.04.26.13.35.24.1.11.16.25.18.39.01.07.01.14.01.23,0,.09,0,.18,0,.26,0,.34.02.64.04.9.04.51.09.83.16.83Z"/><path class="cls-13" d="M125.6,141.19c-12.93-.84-21.76-14-14.67-25.78,10.47-16.83,36.04-10.65,35.01,9.94-.7,10.21-10.69,16.94-20.34,15.84h0ZM125.62,140.89c13.97,1.04,22.36-16.91,13.64-27.42-9.37-11.56-27.83-6.44-28.24,8.92-.47,8.51,5.54,17.86,14.6,18.5h0Z"/><path class="cls-13" d="M149.16,110.96c0-.6-.25-1.17-.69-1.59-.9-.87-2.33-.84-3.2.05l-17.34,17.88-6.7-9.53c-.35-.49-.87-.82-1.46-.93-.62-.11-1.2.03-1.69.38-.49.35-.82.87-.93,1.46-.1.6.03,1.2.38,1.69l8.27,11.76c.39.55.99.9,1.66.95h0s0,0,0,0c.68.05,1.33-.2,1.8-.68l19.24-19.84c.42-.43.65-1,.64-1.61Z"/><path class="cls-8" d="M88.19,171.6c2.95-5.89,6.15-11.63,9.44-17.32,1.61-2.83,3.35-5.71,4.98-8.44,1.53-2.51,1.64-5.18-.65-7.14-8.87-9.48-17.95-19.43-25.93-29.65,4.96,4.34,9.69,8.88,14.35,13.49,4.07,3.96,9.74,9.91,13.73,14.07,3.19,2.84,3.2,7.36.92,10.69-5.44,8.3-10.82,16.4-16.84,24.29h0Z"/><path class="cls-3" d="M101.74,138.27l-37.89-43.06c-1.25-1.25-2.9-1.93-4.66-1.93-1.76,0-3.42.69-4.66,1.93l-30.42,30.43c-2.57,2.57-2.57,6.75,0,9.32l46.99,50.4c.11.11.22.22.34.32,2.59,2.25,6.52,2.14,8.99-.32l21.31-37.77c2.42-3.52,2.57-6.75,0-9.32Z"/><path class="cls-8" d="M92.17,129.39c1.67,1.67,3.46,3.56,5.08,5.29.8.78.32,2.04-.9,1.72-9.14-4.52-18.05-9.46-26.89-14.52-11.09-6.48-22.53-13.35-32.99-20.79,5.94,2.7,11.72,5.67,17.46,8.73,14.48,7.76,28.99,16.24,42.69,25.29,0,0,.13.08.13.08l.06.04.03.02c-.17-.11-.37.04-.4.28-1.22-1.6-2.98-4.22-4.27-6.14h0Z"/><path class="cls-3" d="M101.76,140.9c-.46-1.7-1.55-3.12-3.08-4l-62.22-35.81c-1.53-.88-3.3-1.11-5-.65-1.7.46-3.12,1.55-4,3.08l-1.03,1.79h0l-20.43,35.5c-1.81,3.15-.73,7.19,2.43,9l62.22,35.81c.11.07.23.13.34.18,3.09,1.55,6.91.43,8.66-2.61l4.52-7.86h0s6.16-10.7,6.16-10.7h0s10.78-18.73,10.78-18.73c.88-1.53,1.11-3.3.65-5Z"/><path class="cls-8" d="M33.39,139.89c1.36.66,3.13.13,3.77-1.22.41-.68.84-1.35,1.27-2.02.75-1.44,1.76-3.22,2.61-4.75.94-1.23.83-2.98-.61-3.75,0,0-1.88-1.11-1.88-1.11-5.61-3.35-11.17-6.83-16.54-10.57-.59-.36-1.32-.52-2.04-.39.69-.25,1.5-.23,2.2.09l1.95,1c1.3.66,2.57,1.36,3.85,2.06,3.82,2.1,7.6,4.28,11.33,6.53,1.22.8,3.13,1.56,3.54,3.15.47,1.22.03,2.67-.71,3.64-.97,1.53-1.96,3.08-2.96,4.59-.46.61-1.03,1.36-1.46,1.87-.91,1.43-3,1.88-4.34.89h0Z"/><path class="cls-3" d="M40.32,127.57l-19.45-11.65c-.71-.42-1.54-.53-2.34-.33-.8.21-1.47.71-1.89,1.42l-.49.83h0s-4.19,6.67-4.19,6.67c-.86,1.47-.37,3.36,1.1,4.22l19.45,11.65c.05.03.11.06.16.09,1.44.74,3.23.23,4.06-1.18l1.41-2.01,3.27-5.49c.42-.71.53-1.54.33-2.34-.21-.8-.71-1.47-1.42-1.89Z"/><path class="cls-8" d="M36.27,129.19c-.21-.33-.48-.62-.79-.87-.29-.23-.63-.44-.99-.54-.69-.19-1.42-.06-2.06.25-.34.16-.65.38-.94.62-.31.27-.58.58-.78.95-.04.09-.08.17-.12.26,0,.02,0,.03,0,.05-.13.2-.24.41-.31.64-.1.32-.12.65-.06.97.02.45.12.9.29,1.32.16.4.38.8.69,1.1.27.26.6.46.96.57.79.26,1.64.16,2.4-.16.38-.16.75-.37,1.07-.63.23-.19.43-.42.57-.68.01,0,.02-.02.03-.03.11-.2.21-.42.3-.63.13-.29.23-.61.29-.92.04-.2.03-.41.01-.62-.02-.19-.05-.38-.1-.57-.1-.39-.26-.75-.47-1.09h0Z"/><path class="cls-14" d="M71.58,47.86s0-.03,0-.04c0-.38-.3-.61-.64-.64-1.37-.13-2.74-.29-4.05-.72-1.19-.39-2.21-1.06-3.06-1.96-1.69-1.82-2.53-4.31-3.12-6.69-.41-1.67-.68-3.37-.8-5.09-.03-.35-.28-.64-.64-.64-.02,0-.04,0-.06,0-.02,0-.04,0-.07,0-.33,0-.67.29-.64.64.19,2.85-.07,5.82-1.24,8.46-.99,2.23-2.61,4.19-4.75,5.38-.59.33-1.16.57-1.81.76-.83.24-1.7.34-2.53.58-.76.22-.47,1.38.26,1.25.05.03.1.06.16.08,4.82,1.76,8.02,6.27,9.39,11.07.42,1.47.69,2.98.84,4.5.03.34.27.64.64.64.28,0,.58-.22.63-.51.09-.11.16-.24.18-.39.06-.37.06-.74.12-1.08.06-.38.14-.77.24-1.14.38-1.56.97-3.07,1.72-4.48.66-1.23,1.45-2.41,2.27-3.53.35-.48.72-.94,1.16-1.43.44-.49.9-.95,1.38-1.4,1.25-1.14,2.65-2.07,4.13-2.93.28-.16.35-.44.29-.68h0ZM60.15,55.52s0-.04-.01-.05h0s0,.05,0,.05h0Z"/><path class="cls-8" d="M82.88,75.48s0-.03,0-.04c0-.49-.38-.79-.83-.83-.98-.1-2.02-.2-2.91-.65-.79-.41-1.36-1.04-1.81-1.8-1.02-1.74-1.43-3.93-1.58-5.94-.03-.45-.36-.83-.83-.83-.01,0-.02,0-.04,0-.01,0-.03,0-.04,0-.43,0-.86.38-.83.83.07,1.09.03,2.19-.19,3.26-.12.19-.2.41-.2.66,0,.05,0,.11,0,.16-.21.71-.52,1.39-.93,2.02-.47.71-1.11,1.36-1.83,1.81-.39.24-.76.42-1.18.55-.54.17-1.11.23-1.65.39-.94.27-.65,1.63.2,1.64.02,0,.04.02.06.03,3.71,1.37,5.56,5.36,5.92,9.09.04.45.35.83.83.83.32,0,.67-.23.79-.54.15-.23.15-.52.18-.8.03-.28.11-.65.2-.99.25-.22.4-.54.42-.91,0-.11.01-.21.02-.32,0-.02.01-.11.02-.17h0c.18-.46.39-.9.63-1.33.78-1.38,1.61-2.55,2.77-3.6.74-.67,1.54-1.2,2.43-1.71.33-.19.43-.49.39-.78h0Z"/><path class="cls-12" d="M59.92,32.71c-.03-.35-.28-.64-.64-.64-.02,0-.04,0-.06,0-.02,0-.04,0-.07,0-.33,0-.67.29-.64.64.19,2.85-.07,5.82-1.24,8.46-.99,2.23-2.61,4.19-4.75,5.38-.59.33-1.16.57-1.81.76-.83.24-1.7.34-2.53.58-.76.22-.47,1.38.26,1.25.05.03.1.06.16.08,3.23,1.18,5.73,3.59,7.44,6.5.16-.31.33-.62.41-.73.18-.26.15.15.26,0s.59-1.26.78-1.63c.18-.37,1.06-1.53,1.27-1.82.21-.29.91-1.24.91-1.24,0,0,1.37-2.56,1.7-3.07l.33-.52v.48s.2-.96.58-1.44c.32-.41.79-1.24,1.13-1.75-1.41-1.76-2.17-4.02-2.7-6.2-.41-1.67-.68-3.37-.8-5.09h0Z"/></g></svg>