<svg xmlns="http://www.w3.org/2000/svg" viewBox="0 0 200 200"><defs><style>.cls-2{fill:none}.cls-4{fill:#e7d5d1}.cls-5{fill:#bd9cd4}.cls-6{fill:#f96800}.cls-7{fill:#573f59}.cls-8{fill:#ebc05c}.cls-9{fill:#fff}.cls-11{fill:#c3d6da}.cls-12{fill:#78587a}.cls-14{fill:#dcc5bc}.cls-2{stroke:#57405a;stroke-linecap:round;stroke-linejoin:round;stroke-width:.75px}.cls-16{fill:#e2673b}.cls-17{fill:#ec8333}</style></defs><path d="M6.19 32.47c-17.53 139.75 32.71 66.92 60.84 115.9 24.86 82.05 163.11-4.17 123.25-65.18-21.57-33.83-68.63-59.84-108.87-48.32C54.95 56.82 24.4 10.06 6.2 32.47z" style="fill:#eceae7" id="BG_Strong"/><g id="Illustrations"><path class="cls-17" d="M81.78 19.83c-3.62-1.5-4.93-1.22-9.04-1.49H27.49c-5.65 0-10.24 4.58-10.24 10.24v104.78l4.06 3.2H87.5V36.83s.02-4.69 0-6.25c-.06-5.13-1.68-9.08-5.73-10.75z"/><path class="cls-17" d="M81.78 19.83c-3.37-1.57-7.15-1.36-10.77-1.47l-10.96.03c-7.25.02-25.86.07-32.87.11-4.57.06-8.68 3.61-9.54 8.06-.5 12.23.21 92.82.09 106.8l-.18-.37 4.07 3.19-.3-.11 66.19.16-.33.33.16-59.47.08-29.74.04-14.87c.26-4.77-.69-10.68-5.69-12.65zm0 0c5.01 1.95 6 7.88 5.77 12.65l.04 14.87.08 29.74c-.05.29.2 59.54.16 59.8h-.33l-66.36.16-.13-.11-4.05-3.21-.18-.14v-.23c.21-14.49-.09-94.16.5-106.87.91-4.59 5.19-8.25 9.89-8.28 6.93 0 25.71.05 32.88.07l10.96.03c3.62.08 7.4-.02 10.77 1.52z"/><path class="cls-9" d="M26.23 137.93c-.81-28.33-.92-58.03-.99-86.35.02-3.59.06-12.72.07-16.19.08-1.67-.13-3.87.23-5.55.91-4.85 5.31-8.76 10.25-8.92 1.83-.05 6.25.1 8.14.11l21.58.41 10.79.28c3.24.24 8.19-.62 9.81 2.99-1.75-3.46-6.62-2.35-9.8-2.49l-10.79.14-21.59.13c-1.82.04-6.29-.02-8.05.08-4.17.22-7.87 3.52-8.59 7.6-.3 1.38-.1 3.75-.15 5.22.01 3.43.06 12.64.07 16.19-.07 28.31-.18 58.02-.99 86.35z"/><path class="cls-9" d="M28.64 53.46c0-.8.65-1.45 1.45-1.45l55.22.73"/><path class="cls-9" d="M28.64 53.46c-.06-.6.31-1.25.93-1.51.53-.21 1.29-.13 1.84-.2 17.96-.77 35.99-.59 53.9.98-17.95 1.11-35.97.81-53.91-.43-.45-.01-1.32-.18-1.74-.07-.53.12-.98.62-1.03 1.23zM64.25 37.53c-.05-.13-.72-1.45-1.98-3.11s-.05-.09-.06-.14c-.11-1.7-.32-2.83-.32-2.83-.03-.2-.2-.34-.39-.37l-1.35-.2h-.04c-.16 0-.29.12-.29.28v.47s-.02.02-.03.02h-.01a20.12 20.12 0 0 0-2.68-2.14c-.19-.13-.42-.21-.67-.22-.25 0-.48.06-.68.19-4.75 2.77-7.45 7.4-7.55 7.65-.03.06-.05.12-.05.2 0 .22.14.4.34.46l1.34.29c.18.05.31.21.33.4 0 .24.12 5.56.41 6.95.05.2.23.35.44.36h.01c.79 0 1.51 0 2.29.02s.06 0 .06 0c.08 0 .15-.07.15-.15-.02-.47-.06-1.53-.09-2.65v-.09c0-.1-.05-.18-.13-.23-.4-.25-.66-.69-.68-1.19-.02-1.87 0-4.02.14-5.7.01-.14.13-.25.27-.25.15 0 .27.12.27.27v.02c-.1 1.12-.14 2.45-.14 3.76 0 .18.14.32.32.32s.32-.14.32-.32c0-1.32.05-2.66.15-3.78.01-.14.13-.25.27-.25.15 0 .27.12.27.27v.02c-.09 1.12-.14 2.44-.15 3.74 0 .18.14.32.32.32s.32-.14.32-.32c.01-1.31.05-2.64.15-3.76.01-.14.13-.25.27-.25.15 0 .27.12.27.27v.02c-.14 1.64-.16 3.71-.14 5.53v.07c-.01.5-.27.93-.66 1.18-.07.05-.12.12-.13.21 0 0-.04.28.05 1.64.04.59.08 1 .09 1.19 0 .07.07.13.14.13h.13c.26 0 .53.01.81.02h.1c.35 0 .69.02 1.01.03l.76.03c.07 0 .13-.05.15-.12.22-1.62.28-2.53.28-2.53 0-.08-.06-.14-.14-.16l-.92-.15a.31.31 0 0 1-.26-.24c-.02-.07 0-.14 0-.14.52-5.4 2.35-7.17 2.35-7.17a.391.391 0 0 1 .26-.12c.12 0 .22.08.26.19 0 0 .01.04.02.13.11 1.7-.04 4.59-.19 6.85-.13 1.91-.27 3.41-.27 3.41 0 .07.05.11.11.12.51.02 1 .04 1.53.07h.01c.21 0 .4-.14.46-.33.36-1.37.75-6.68.76-6.92.03-.19.17-.34.35-.39l1.35-.22c.2-.04.36-.22.36-.44 0-.07-.01-.14-.04-.2zM80.23 130.26c-14.5.03-30.5.11-45.07.32-.95.12-1.89-.58-1.78-1.68v-.46l-.05-3.68c-.21-18.36-.61-44.31-.58-62.55v-1.84c-.07-1.08.97-2.25 2.13-2.19 9.81.02 19.62.04 29.44.14l14.72.17.92.01c.22 0 .84 0 1.24.28.52.32.85.91.85 1.52-.04 2.68-.11 8.97-.15 11.73-.25 15.33-.47 40.09-.49 55.19v1.84c.04.63-.51 1.21-1.14 1.19zm0 0c.63.02 1.18-.57 1.13-1.19v-1.84c-.01-2.28-.02-8.66-.03-11.04-.07-15.05-.42-40.13-.6-55.19V60.31c0-.03 0-.07-.01-.1-.17-.62-.85-.26-1.69-.34-14.28.23-29.96.28-44.15.31-.06 3.86-.69 63.19-.73 64.59l-.05 3.68V129.14c0 .05 0 .11.01.16.14.49.5.69 1.07.64 14.6.18 30.55.33 45.07.32z"/><path class="cls-17" d="M81.17 19.47c-3.62-1.5-4.93-1.22-9.04-1.49l-44.63.35c-5.65 0-10.24 4.58-10.24 10.24v104.78l4.06 3.2h66.19V36.83s.02-4.69 0-6.25c-.06-5.13-2.3-9.43-6.35-11.11z"/><path class="cls-17" d="M81.17 19.47c-2.84-1.33-5.98-1.33-9.04-1.47l-41.37.44c-1.46.06-3.7-.07-5.13.22-5.22.9-8.72 6.08-8.17 11.25.04 13.32.24 88.47.28 103.43l-.18-.37 4.07 3.19c-1.63-.15 66.27.05 65.89.06l-.33.33c.05-19.92.19-70.42.25-89.65l.04-14.94c.28-4.86-1.46-10.5-6.31-12.49zm0 0c4.86 1.97 6.65 7.62 6.39 12.49l.04 14.94.08 29.88c-.05.29.2 59.84.17 60.1h-.33l-66.36.16-.13-.11-4.05-3.21-.18-.14c.03-15.58.25-89.75.28-103.66-.52-5.31 3.12-10.67 8.5-11.55 1.48-.28 3.68-.16 5.19-.2l41.37-.21c3.06.16 6.21.17 9.04 1.51z"/><path class="cls-9" d="M26.23 137.93c-.81-28.33-.92-58.03-.99-86.35.02-3.59.06-12.72.07-16.19.08-1.67-.13-3.87.23-5.55.91-4.85 5.31-8.76 10.25-8.92 1.83-.05 6.25.1 8.14.11l21.58.41 10.79.28c3.24.24 8.19-.62 9.81 2.99-1.75-3.46-6.62-2.35-9.8-2.49l-10.79.14-21.59.13c-1.82.04-6.29-.02-8.05.08-4.17.22-7.87 3.52-8.59 7.6-.3 1.38-.1 3.75-.15 5.22.01 3.43.06 12.64.07 16.19-.07 28.31-.18 58.02-.99 86.35z"/><path class="cls-9" d="M80.35 36.32c-.04-.11-.59-1.19-1.62-2.54s-.04-.07-.05-.11c-.09-1.39-.26-2.32-.26-2.32a.372.372 0 0 0-.32-.3l-1.1-.16h-.03c-.13 0-.24.1-.24.23v.39l-.02.01c-.65-.61-1.38-1.21-2.19-1.75a.996.996 0 0 0-.54-.18c-.2 0-.39.05-.55.15-3.89 2.26-6.09 6.05-6.18 6.26s-.04.1-.04.16c0 .18.11.33.28.37l1.1.24c.15.04.26.17.27.33 0 .19.1 4.55.33 5.68.04.16.18.29.36.29.64 0 1.23 0 1.87.01s.05 0 .05 0c.07 0 .12-.05.13-.12-.02-.38-.05-1.25-.07-2.17v-.07c0-.08-.04-.15-.11-.19-.33-.21-.54-.57-.55-.97-.02-1.53 0-3.29.12-4.66 0-.11.11-.2.22-.2.12 0 .22.1.22.22v.02c-.08.92-.11 2-.12 3.08 0 .14.11.26.26.26.14 0 .26-.11.26-.26 0-1.08.04-2.17.12-3.09 0-.11.11-.2.22-.2.12 0 .22.1.22.22v.02c-.08.91-.11 1.99-.12 3.06 0 .15.11.26.26.26s.26-.12.26-.26c0-1.07.04-2.16.12-3.08 0-.11.11-.2.22-.2.12 0 .22.1.22.22v.02c-.11 1.34-.13 3.04-.12 4.52s0 .03 0 .04c0 .42-.22.78-.54.98-.06.04-.1.1-.1.17 0 0-.03.23.04 1.34.03.48.06.82.07.97 0 .06.05.1.11.11s.07 0 .11 0c.21 0 .43.01.66.02h.08c.29 0 .56.02.82.02l.63.02c.06 0 .11-.04.12-.1.18-1.32.23-2.07.23-2.07 0-.07-.05-.12-.12-.13l-.76-.12a.246.246 0 0 1-.21-.19c-.01-.06 0-.12 0-.12.42-4.41 1.92-5.87 1.92-5.87.04-.04.07-.06.07-.06a.23.23 0 0 1 .14-.04c.1 0 .18.07.21.15 0 0 .01.03.02.11.09 1.39-.03 3.76-.16 5.6-.11 1.56-.22 2.79-.22 2.79 0 .05.04.09.09.1l1.25.06c.18 0 .33-.11.37-.27.29-1.12.61-5.46.63-5.66.02-.15.14-.28.28-.31l1.11-.18a.384.384 0 0 0 .27-.52zM36.05 130.26c-1.14-.05-1.19-1.22-1.17-2.1l-.08-2.69c-.53-22.51-.76-47.55-.8-70.03.02-.3-.02-1.55 0-1.85-.03-1.12.92-2.23 2.09-2.19 10.57-.07 28.85.08 39.39.1.8.02 3.24 0 4.04.02h.75c1.13-.06 2.05 1.26 1.91 2.18-.07 2.34-.27 22.75-.33 25.59-.17 7.18-.26 14.36-.49 21.55-.23-7.18-.32-14.36-.49-21.55-.07-3.23-.22-23.15-.38-25.91-.07-.14-.17-.19-.3-.17h-.67c-2.68.02-11.97.05-14.81.06-5.25.02-23.71.12-28.65.06-.2.05-.1.61-.13.76v1.35c-.05 22.47-.27 47.53-.8 70.03l-.08 2.69c-.07.86-.1 2.01 1.02 2.1zM62.64 38.54c-.02-.21-2.37-.21-6.16-.04-.95.05-1.98.1-3.09.15-.54.02-1.07.02-1.54-.09a2.09 2.09 0 0 1-.63-.26c-.18-.11-.37-.29-.58-.5-.22-.22-.46-.47-.81-.71-.34-.24-.88-.44-1.41-.35-.53.07-.97.37-1.27.66-.31.3-.51.61-.72.89-.2.29-.38.56-.57.79-.18.22-.37.38-.49.42-.03 0-.06.01-.09.02h-.09a.442.442 0 0 1-.16-.06c-.1-.07-.23-.24-.3-.49-.08-.25-.12-.54-.11-.82 0-.13.02-.3.03-.48.02-.18.03-.37.04-.55.02-.38.04-.78-.05-1.23-.08-.44-.28-.93-.64-1.29-.36-.37-.85-.6-1.31-.65-.46-.07-.9 0-1.3.12-.4.13-.76.31-1.09.57-.32.26-.56.53-.77.82-.42.57-.7 1.15-.98 1.66-.27.52-.53.95-.85 1.32-.32.36-.67.63-1.03.75s-.73.09-1.08-.04c-.7-.28-1.21-.94-1.44-1.54-.25-.63-.32-1.26-.35-1.77-.05-1.03-.05-1.64-.16-1.65-.09 0-.29.55-.42 1.63-.05.54-.08 1.24.14 2.04.24.81.76 1.71 1.8 2.24.51.25 1.19.36 1.83.19.64-.17 1.19-.56 1.63-1.01.44-.45.79-1 1.09-1.52.3-.52.58-1.04.92-1.47.16-.21.36-.41.54-.55.18-.14.41-.25.64-.31.47-.14.93-.06 1.13.18.12.13.2.3.24.54.04.24.04.54.02.86l-.05.51c-.02.18-.04.36-.04.59 0 .43.04.87.18 1.31.14.43.39.92.88 1.27.51.34 1.15.42 1.7.21s.87-.58 1.12-.88c.25-.31.45-.62.63-.89s.36-.53.53-.7c.18-.18.32-.25.44-.27.13-.03.25 0 .44.11.18.12.39.31.62.53.23.22.5.47.85.67.34.2.7.32 1.05.39.7.14 1.33.09 1.9.04 1.12-.11 2.15-.23 3.09-.34 3.77-.44 6.09-.81 6.08-1.02z"/><path class="cls-4" d="M122.56 144.33c-.02-.05.79-4.03.79-4.03l.26-2.8s-1.48-.16-2.11-.22c-.63-.06-3.05-.69-3.05-.69h-.59s-.16 3.51-.17 3.7c-.01.2-.09 2.11-.09 2.11s.51.82.86 1.16 1.18.99 1.64 1.1 1.18-.06 1.55 0 .9-.32.9-.32z"/><path class="cls-16" d="M104.18 150.51c-.33-.68-.41-1.46-.25-2.2v-.04c-.01-.12.06-.2.15-.23.29-.39.77-.51 1.23-.57.5-.06 1-.11 1.5-.21.98-.18 1.94-.48 2.85-.86s1.81-.88 2.63-1.45c.79-.55 1.63-1.17 2.06-2.06s.6-1.86 1.38-2.49c.06-.05.12-.06.18-.04.2-.04.47.11.63.21.27.16.5.38.67.64.32.49.42 1.07.38 1.65.84.81 1.78 1.7 3 1.77.59.03 1.13-.16 1.55-.58.47-.46.84-1.04 1.22-1.57v-.07c.02-.1.14-.21.25-.18.5.15.9.49 1.11.97.09.21.13.45.13.68 0 .15-.02.35-.09.49.48 1.03.93 2.22.48 3.32.17.19.3.41.38.65.04.14.07.29.08.44 0 .13-.02.27 0 .4s.1.26.13.39.06.27.07.4c.02.28-.03.56-.14.82-.02.06-.06.1-.11.11-.01.02-.03.04-.05.06-1.09.93-2.67.98-4.03.88-.71-.05-1.41-.16-2.12-.21s-1.47-.02-2.2.09c-1.46.22-2.91.48-4.38.59-1.41.1-2.84.08-4.24-.14-1.48-.23-2.93-.69-4.23-1.44-.05-.03-.08-.06-.09-.11a.254.254 0 0 1-.14-.13z"/><path class="cls-7" d="M124.16 136.54c-.37 2.61-.78 5.22-1.23 7.82-.09.51-.88.37-.79-.15.44-2.6.85-5.21 1.23-7.82.07-.51.87-.37.79.15zM118.29 136.03c-.05 2.36-.19 4.72-.43 7.08-.02.22-.27.36-.47.32-.23-.04-.35-.25-.32-.47.23-2.28.37-4.57.41-6.87 0-.22.14-.42.37-.43.2-.02.44.15.43.37z"/><path class="cls-9" d="M105.7 148.9c.06-.12 1.02.52 2.78.58.87.04 1.92-.06 3.07-.29 1.15-.22 2.41-.58 3.79-.82s2.78-.29 3.99.01c1.2.3 2.18.7 3.03.82.85.14 1.55.06 2.01-.09.46-.14.69-.3.73-.26.03.03-.14.28-.62.53-.47.25-1.25.43-2.19.35-.95-.07-1.99-.44-3.12-.67-1.12-.24-2.38-.18-3.71.05-1.33.23-2.6.57-3.8.76-1.2.2-2.31.25-3.23.14-.93-.11-1.65-.37-2.1-.63-.46-.25-.66-.46-.63-.5z"/><path class="cls-4" d="m147.85 138.28-.96-4-.93-2.66s-1.41.47-2.01.68c-.6.21-3.06.65-3.06.65l-.54.24s1.33 3.26 1.39 3.44c.07.18.8 1.95.8 1.95s.81.53 1.26.7 1.49.41 1.94.31 1.04-.55 1.41-.65.68-.67.68-.67z"/><path class="cls-16" d="M133.88 150.98c-.57-.47-.97-1.14-1.13-1.86 0-.01-.02-.02-.02-.03-.06-.1-.03-.2.03-.27.1-.47.48-.77.87-1.02.42-.26.85-.51 1.26-.8.8-.57 1.54-1.22 2.2-1.95s1.26-1.53 1.76-2.38c.48-.82.98-1.72 1-2.69s-.23-1.91.21-2.8c.03-.07.09-.1.15-.11.17-.12.46-.1.65-.07.3.04.6.14.86.3.49.3.82.79 1.02 1.32 1.08.38 2.29.79 3.42.35.54-.21.95-.61 1.15-1.15.23-.6.33-1.27.45-1.91l-.03-.06c-.03-.1.04-.24.15-.26.5-.07 1.01.07 1.39.42.17.15.3.35.39.56.06.14.13.32.12.48.85.73 1.74 1.6 1.79 2.77.23.1.44.24.61.43.1.11.18.23.25.36.06.12.09.25.16.36s.19.19.28.29.16.21.23.33c.13.24.2.51.21.79 0 .06-.02.11-.05.15 0 .02 0 .05-.02.07-.59 1.28-1.98 1.97-3.24 2.44-.66.25-1.33.44-1.98.68s-1.32.58-1.93.99c-1.21.8-2.4 1.63-3.68 2.33-1.22.67-2.5 1.24-3.85 1.62-1.42.4-2.91.59-4.38.45-.05 0-.09-.03-.13-.06-.06 0-.12-.02-.18-.06z"/><path class="cls-7" d="M146.06 130.52c.75 2.53 1.47 5.07 2.15 7.61.13.5-.65.7-.78.2-.68-2.55-1.4-5.09-2.15-7.61-.15-.5.64-.7.78-.2zM140.51 132.52c.95 2.17 1.8 4.37 2.57 6.61.07.21-.09.44-.29.49-.23.06-.42-.08-.49-.29-.74-2.17-1.57-4.31-2.49-6.41-.09-.2-.05-.44.16-.55.18-.1.46-.04.55.16z"/><path class="cls-9" d="M134.58 148.91c0-.13 1.13.05 2.73-.62.8-.33 1.69-.84 2.62-1.52.93-.67 1.92-1.51 3.06-2.3 1.13-.78 2.37-1.4 3.58-1.63 1.19-.23 2.23-.27 3.05-.51.82-.22 1.42-.59 1.76-.9.35-.32.49-.56.55-.53.04.02-.01.31-.33.73s-.94.9-1.82 1.21c-.88.32-1.96.43-3.06.68-1.1.25-2.21.82-3.3 1.57-1.1.75-2.09 1.57-3.08 2.24-.99.67-1.96 1.17-2.84 1.45-.88.28-1.63.35-2.14.31-.51-.04-.78-.14-.77-.18z"/><path class="cls-11" d="m122.65 93.57-4.36 17.61-1.67 26.34 7.84.69 6.03-28.05 11.01-19.81c1.19-2.15 2.24-4.48 1.92-6.92l.06-2.82-21.32 2.96.48 10z"/><path class="cls-11" d="m130.49 112.89 8.58 22.12 8.38-2.66-7.02-22.06-1.46-25.8-13.57.87 5.09 27.53z"/><path class="cls-9" d="M130.71 111.17c-.48-.25 1.08-4.74 3.5-10.04 2.41-5.3 4.76-9.39 5.24-9.14.48.25-1.61 4.17-4.03 9.47-2.41 5.3-4.23 9.96-4.71 9.71zM122.07 96.11c-.32-.12.2-3.16 1.16-6.78s.94-4.13 1.26-4.01c.32.12.47.5-.49 4.12s-1.61 6.79-1.93 6.66zM130.54 46.17s4.65 0 9.49 5.58c4.32 4.98 8.19 11.44 8.19 11.44l-3.81 7.53v12.65l-19.54 1.12.56-9.49-3.72-7.07-2.79 7.16s.19-4-2.79-6.7-5.02-1.67-5.02-1.67l5.95-13.67s2.14-6.42 13.49-6.88z"/><path class="cls-14" d="m117.83 70.62-2.59 4.47s-.93 2.46-4.14 1.62c-3.21-.84-11.58-8.37-11.58-8.37l-3.63-2.62 2.41-3.94 12.38 7.11.42-2.16s3.74-.89 6.73 3.89z"/><path class="cls-17" d="M118.02 69.62c.39-2.15.83-4.3 1.18-6.46.69-4.26 1.03-8.71-.38-12.85-.59.01-2.32 2.43-2.89 3.35-.64 1.04-5.03 11.75-5.38 13.01l-8.45-4.22c-.06-.04-3.59 5.78-3.59 5.78s2.88 2.35 6.32 5.33c1.91 1.65 5.24 3.75 7.43 3.53 2.3-.22 3.57-2.19 4.99-4.34.06-.09.12-.19.18-.28.16-.97.41-1.93.58-2.86z"/><path class="cls-9" d="M119.79 56.25s.08-.3.25-.66 0-.02 0-.03c-.05-.32-.05-.54-.05-.54 0-.04.02-.07.06-.08l.24-.09s.06 0 .07.04l.02.09c.12-.17.26-.34.42-.5s.07-.06.12-.07.09 0 .13 0c.99.33 1.68 1.08 1.71 1.13s.01.02.02.03c0 .04 0 .08-.04.1l-.24.11s-.05.05-.04.09c0 .04.2 1.04.2 1.31s-.03.07-.07.08c-.15.03-.28.06-.42.09h-.01s-.03 0-.03-.02c-.01-.09-.05-.29-.09-.5v-.02s0-.04.02-.05c.06-.06.1-.15.08-.25-.07-.35-.16-.75-.25-1.06s-.03-.04-.06-.04-.05.03-.04.06c.06.21.12.45.18.7s-.01.07-.05.07c-.03 0-.07-.01-.07-.05-.05-.25-.11-.49-.18-.7 0-.03-.03-.04-.06-.04s-.05.03-.04.06c.06.21.12.45.17.69s-.01.07-.05.07c-.03 0-.07-.01-.07-.05-.05-.24-.11-.49-.18-.69 0-.03-.03-.04-.06-.04s-.05.03-.04.06c.09.3.18.69.24 1.03.02.1.09.17.17.2.01 0 .03.02.03.03 0 0 .02.05.06.31.02.11.03.19.03.22s0 .03-.02.03h-.02s-.1.03-.15.04h-.02c-.07.02-.13.04-.19.05l-.14.04s-.03 0-.03-.02c-.1-.29-.15-.46-.15-.46 0-.02 0-.03.02-.04l.17-.06s.04-.03.04-.05v-.03c-.31-.98-.72-1.24-.72-1.24-.01 0-.02-.01-.02-.01h-.03c-.02 0-.04.02-.04.05v.03c.05.32.19.85.31 1.27.1.35.18.62.18.62s0 .02-.02.03c-.09.02-.19.05-.28.07s-.08 0-.1-.04c-.12-.24-.4-1.21-.41-1.26a.087.087 0 0 0-.08-.06h-.26s-.07-.02-.08-.06v-.04z" id="Layer_6"/><path class="cls-9" d="M114.41 70.71c-.19.09-.83-.94-1.79-2.05-.95-1.12-1.88-1.9-1.76-2.07.05-.08.36.02.8.29.44.27.99.72 1.5 1.32.51.59.88 1.21 1.08 1.68.2.47.26.79.17.83zM118.21 58.68c.2-.02.6 2.57.9 5.78.3 3.21.39 5.83.19 5.84-.2.02-.6-2.57-.9-5.78-.3-3.21-.39-5.83-.19-5.84zM100.8 69.84c-.12-.09.12-.6 1.83-3.31 1.71-2.72 1.89-2.72 2.01-2.63.12.09.15.25-1.57 2.96-1.71 2.72-2.16 3.07-2.28 2.98zM143.91 72.66c-.63-2.78-1.28-5.06-1.56-5.52.05-.25-1.24-2.42-2.98-4.99-1.81-2.67-3.41-4.74-3.57-4.63-.16.11 1.17 2.36 2.99 5.03.86 1.27 2.22 2.93 3.1 5.02.74 1.76 1.29 4.01 1.59 5.33.72 3.14 1.37 7.76 1.56 7.72.19-.04-.4-4.81-1.12-7.95z"/><path class="cls-17" d="M130.3 51.09c.38-.66.66-1.01 1.12-1.32s1.89-.87 1.89-.91-.65-.33-1.14-.51c-.49-.18-1.39-.31-1.39-.31l.04-.75c-.22 0-.27-.36-.03-.41 2.24-.38 4.47-.75 6.71-1.14.56-.1 1.12-.19 1.68-.29h.03c2.32-.41 4.64-.83 6.96-1.25l2.34-.42c.45-.11.91-.19 1.37-.23.42-.04.85 0 1.2.26.35.27.56.66.71 1.06.17.45.28.92.39 1.4l.42 1.91v.07c.44 2.31.88 4.62 1.33 6.94.31 1.63.63 3.26.92 4.9.16.91.31 1.83.45 2.75.14.92.29 1.78.32 2.68.02.39 0 .81-.16 1.17-.19.4-.54.57-.95.68-.94.26-1.91.37-2.86.54h-.02c-.74.13-1.49.22-2.24.32-.26.03-.33-.37-.07-.4.04 0 .09-.01.13-.02.08-.24.15-.69.03-1.37-.2-1.11-.68-3.37-1.42-4.71-.75-1.35-1.65-3.29-2.4-4s-2.3-2.58-2.67-2.9c-.37-.32-2.89-2.5-3.32-2.89-.4-.37-2.91-1.53-3.27-1.79-.1.04-.23.01-.27-.11-.5-.05-1.67-.01-2 .1-.41.14-1.36.72-1.81 1.16-.45.44-1.48 2.22-1.48 2.22l-.93-.45-.37-.33s.41-.96.79-1.61z"/><path class="cls-9" d="M139.78 56.31c.02-.09.32-1.02.98-2.23s.03-.06.02-.1c-.1-1.12-.07-1.89-.07-1.89 0-.13.09-.24.22-.28l.86-.27h.02c.1-.02.2.05.22.15l.05.31s0 .01.01 0c.44-.57.96-1.14 1.54-1.67a.77.77 0 0 1 .41-.21c.16-.03.32 0 .46.05 3.39 1.34 5.61 4.1 5.71 4.25s.04.08.05.12c.03.14-.05.28-.18.33l-.85.33c-.11.05-.18.17-.17.3.02.16.47 3.65.43 4.59-.01.14-.11.25-.25.28-.52.08-.99.16-1.49.24h-.04c-.05.02-.11-.02-.12-.07-.03-.31-.11-1.01-.21-1.74v-.06c0-.06.02-.13.06-.17.24-.2.37-.52.32-.85-.17-1.22-.4-2.63-.66-3.72a.186.186 0 0 0-.2-.14c-.1.02-.16.11-.15.21.17.74.33 1.6.47 2.46.02.12-.06.23-.18.24s-.23-.06-.24-.18c-.14-.86-.3-1.73-.47-2.46a.186.186 0 0 0-.2-.14c-.1.02-.16.11-.15.21.17.73.33 1.6.47 2.45.02.12-.06.22-.18.24-.12.02-.22-.06-.24-.18-.14-.86-.3-1.73-.47-2.45a.186.186 0 0 0-.2-.14c-.1.02-.16.11-.15.21.25 1.07.48 2.43.65 3.62s0 .02 0 .03c.06.34.27.59.55.72.05.02.09.07.1.12 0 0 .05.18.13 1.07l.06.79s-.03.09-.08.1h-.08c-.17.05-.34.08-.53.11h-.07c-.23.05-.45.09-.66.13l-.5.09s-.09-.02-.11-.07c-.31-1.04-.44-1.63-.44-1.63 0-.05.02-.1.08-.12l.59-.19c.09-.03.14-.1.15-.18v-.09c-.88-3.48-2.25-4.46-2.25-4.46-.04-.03-.07-.04-.07-.04-.03-.02-.07-.02-.12-.02a.18.18 0 0 0-.15.15v.09c.1 1.13.48 3 .81 4.46.28 1.24.51 2.21.51 2.21s-.02.08-.06.09c-.33.06-.65.13-1 .2a.296.296 0 0 1-.33-.17c-.37-.86-1.15-4.3-1.19-4.45a.311.311 0 0 0-.27-.22h-.91c-.14-.02-.26-.12-.28-.26v-.13z"/><path class="cls-17" d="M137.39 43.66c.33-.68 1.06-1.21 1.77-1.5 1.41-.58 3.27-.66 4.5.37.65.54 1.08 1.33 1.07 2.19 0 .24-.35.23-.4.02l-1.56.28c-.06.18-.37.21-.4-.02-.11-.83-.6-1.57-1.33-1.99-.13-.07-.26-.13-.4-.18h-.02c-.54.03-.89.46-1.05.94-.17.51-.17 1.09 0 1.6.04.1.01.22-.1.27-.06.03-.16.02-.22-.02l-1.57.2c.05.25-.34.31-.4.06-.18-.72-.22-1.52.11-2.2zM137.26 85.97c3.55-.86 7.02-2.07 10.33-3.64.06-.03.1-.08.11-.13 0-.03.01-.06 0-.09-.11-.73-.22-1.46-.34-2.18-.45-2.67-1.01-5.32-1.66-7.94-.02-.06-.05-.11-.1-.13.59-.19 1.83-1.05 2.38-1.52.56-.47 1.18-1.7 1.44-2.2s-.03-2.45-.26-3.36c-.23-.91-1.25-3.4-1.84-4.57-.59-1.17-2.12-3.16-3.05-4.15-.93-.99-2.82-2.64-3.99-3.66s-2.75-1.77-3.53-2.05c-.78-.27-1.76-.39-2.41-.31-.66.09-1.02.4-1.48.71-.46.31-.9.78-1.37 1.39-.46.61-.68 1.33-.68 1.33l-.93-.84c.24-1.21 1.09-2.36 1.52-2.85.31-.36 1.11 0 1.59-.14.06.02.29-.65.36-.63.25.09.39-.3.14-.38-.83-.29-1.68-.52-2.53-.73v-.04c.15-1.26.19-2.52.13-3.78s-.03-.09-.06-.11c-.05-.07-.14-.1-.24-.05-.84.45-1.71.86-2.6 1.2-2.95 1.13-6.34 1.47-9.26.07-.2-.1-.34.17-.22.32.25 1.18.6 2.2 1.03 3.33-.12.09-2.4 2.78-2.49 2.96s0 .77 0 .77.25 20.97.52 22.92c.54 3.89 1.29 7.76 2.27 11.56 0 .02.01.04.02.05.03.06.08.11.16.11 2.05.2 4.11.26 6.17.2"/><path class="cls-17" d="M119.64 50.86v-.05c-.03-.18.27-.72.43-1.01 0 0 .02 0 .03.01-.11.26-.31.72-.46 1.05z"/><g id="Layer_6-2"><path class="cls-4" d="M131.88 61.23c.03.16 1.07-1.18 1.32-1.5.25-.32.81-1.09.81-1.09s-.5-.43-.72-.77c-.22-.34-.49-.71-.58-1.42-.09-.71-.16-1.02-.36-1.3-.21-.29-.7-.89-1.11-1.2s-.59-.69-.99-.93c-.4-.25-.53-.39-.69-.46s-.54.15-.54.15l-.17.5s-.38-.03-.57.18-.36.63-.36.76.05.42.05.42-.18-.2-.39.04-.33.52-.3.65.08.37.08.37-.19.11-.23.35 0 .64.05.77.11.43.11.43-.2.32-.15.59c.05.27.39 1.01.57 1.25s.84 1.06 1.03 1.1 1.27.42 1.52.48.88.34.97.37.65.26.65.26z"/><path class="cls-17" d="M130.79 62.04s.03-.08.07-.12a21.78 21.78 0 0 0 3.57-4.32c.12-.19.36-.08.4.08 1.78 1.89 3.93 3.42 6.28 4.5.67.3 1.35.57 2.05.8.28.09.12.52-.16.43a20.471 20.471 0 0 1-8.38-5.27c-.99 1.51-2.16 2.9-3.48 4.14-.05.05-.11.06-.16.06 1.12 3.08 2.88 6.01 5.59 7.93 1.25.88 2.67 1.54 4.18 1.81 1.58.29 3.25.15 4.75-.44 1.5-.6 2.91-1.61 3.45-3.12.54-1.5.14-3.19-.31-4.66-.95-3.09-2.81-5.83-5.03-8.15a30.916 30.916 0 0 0-3.63-3.23c-1.29-.98-2.61-1.82-4.15-2.13-.37-.07-.74-.11-1.12-.12-.29 0-.25-.46.04-.45 1.64.02 3.16.73 4.5 1.62 1.38.92 2.66 2.02 3.86 3.17 2.39 2.31 4.44 5.06 5.62 8.19.29.78.54 1.58.71 2.4.17.81.26 1.66.16 2.49-.1.83-.41 1.6-.93 2.25s-1.18 1.18-1.89 1.6c-1.44.85-3.14 1.22-4.81 1.16-1.67-.07-3.19-.57-4.59-1.35-3.01-1.68-5.09-4.59-6.4-7.71-.17-.4-.32-.81-.47-1.22-.07-.19.12-.35.27-.32z"/><path class="cls-7" d="M128.4 53.75zM127.23 58.92c.34.55.75 1.06 1.3 1.41.33.22.7.38 1.07.54.43.19.85.38 1.24.6.57.33 1.1.72 1.6 1.15.14.12.38.06.48-.09.11-.16.05-.36-.09-.48a9.75 9.75 0 0 0-1.67-1.19c-.4-.22-.82-.42-1.24-.61-.18-.08-.35-.15-.52-.24-.04-.02-.08-.04-.13-.06 0 0-.07-.03-.03-.01l-.04-.02-.21-.12c-.46-.29-.83-.7-1.12-1.16-.1-.15-.2-.32-.27-.49.12.08.3.06.41-.03.15-.13.15-.34.04-.49-.23-.3-.42-.64-.54-1.01a1.17 1.17 0 0 1-.05-.2c.07.1.13.2.21.3.11.16.35.15.49.04.15-.12.15-.34.04-.49-.13-.18-.21-.3-.32-.5-.05-.09-.1-.19-.14-.29-.02-.05-.04-.09-.06-.14-.02-.06-.02-.04-.03-.1v-.12c0-.02.01-.04.02-.05v-.01c.02-.03.04-.07.06-.1l.02-.02c.1.25.24.49.39.7.11.16.35.14.49.04.16-.12.14-.34.04-.49-.04-.06-.11-.17-.16-.27s-.1-.21-.15-.32c0-.02-.01-.04-.02-.05 0 0-.01-.04-.01-.05-.01-.05-.03-.11-.04-.16 0-.03 0-.06-.01-.09v-.17c0-.03 0-.06.01-.09v-.02c.01-.04.03-.08.05-.12.01-.02.03-.04.04-.06.01-.02.02-.03.04-.05 0 .01-.01.02-.02.02l.03-.03a.5.5 0 0 0 .08-.07s.03-.02.04-.02l.06-.03h.02c.04.08.08.15.11.23 0 .01.01.02.02.03-.09.08-.15.2-.15.32 0 .15.05.27.12.4.06.1.12.2.19.3.25.33.64.61 1.07.6s.01 0 .02 0c.12.07.27.07.4-.03.14-.11.17-.36.04-.49-.22-.22-.42-.45-.61-.7-.1-.13-.19-.26-.28-.39 0-.02-.02-.03-.03-.05l-.06-.09c-.04-.06-.07-.13-.11-.19-.07-.14-.18-.29-.15-.46.02-.09.05-.13.12-.14.13-.02.23.05.35.11a7.425 7.425 0 0 1 1.96 1.7c.21.27.43.54.58.87.15.33.11.73.19 1.08.15.7.48 1.3.99 1.8.47.46.97.91 1.52 1.29.37.26.76-.31.4-.57-.33-.23-.63-.48-.93-.75-.28-.25-.58-.51-.81-.81-.21-.27-.36-.61-.44-.94-.11-.41-.08-.85-.22-1.24-.13-.39-.4-.74-.65-1.07-.23-.3-.47-.57-.74-.83-.28-.27-.58-.52-.88-.74-.3-.22-.65-.5-1.02-.58-.4-.09-.79.05-.99.42-.04.07-.06.15-.08.22-.49.08-.86.52-.95 1-.02.1-.02.19-.02.29-.37.23-.66.6-.64 1.06 0 .09.02.18.05.28-.26.33-.3.78-.18 1.2.04.12.08.25.13.37-.34.59-.03 1.32.29 1.83zm1.38-5.33h.02-.02zm-.98 1.55s0 .01 0 0z"/></g><path class="cls-9" d="M130.85 52.47c-.19.02-.41-.26-.5-.79-.09-.52 0-1.27.36-1.99.37-.72.92-1.23 1.39-1.47.47-.24.83-.23.93-.06.11.17-.04.46-.26.83-.22.37-.51.82-.78 1.36-.27.53-.47 1.04-.63 1.43-.17.39-.31.68-.52.7zM130.66 63.61c.22-.03.46.99 1.17 2.43.7 1.43 1.97 3.3 3.94 4.67 1.97 1.36 4.16 1.91 5.75 2.06 1.6.16 2.63.03 2.68.24.05.17-.94.68-2.7.78-.88.05-1.94-.03-3.08-.31-1.14-.29-2.35-.8-3.48-1.58a10.76 10.76 0 0 1-2.69-2.7c-.67-.97-1.11-1.93-1.37-2.77-.52-1.69-.39-2.79-.22-2.81zM134.18 58.12s-.12 0-.18-.1c-.07-.1-.1-.3-.01-.51.08-.21.26-.44.59-.56.35-.12.71-.06 1.04.06.33.13.6.3.87.45a41.407 41.407 0 0 1 2.88 1.83c2.78 1.91 4.85 3.72 4.63 4.05s-2.66-.95-5.44-2.86c-.7-.48-1.35-.95-1.93-1.39-.29-.22-.56-.44-.82-.64-.26-.21-.48-.41-.65-.52-.16-.12-.32-.17-.4-.19-.1-.02-.22.03-.31.08-.17.09-.2.25-.28.31zM137.2 45.72c-.03-.2 1.64-.62 3.72-.94 2.09-.32 3.8-.42 3.83-.23.03.2-1.64.62-3.72.94-2.09.32-3.8.42-3.83.23zM137.78 43.74c-.06-.07.1-.33.51-.58.2-.12.47-.23.79-.29.31-.06.67-.07 1.03-.02.36.06.7.18.98.33.28.16.5.33.66.51.32.36.39.66.31.71-.09.06-.3-.11-.64-.31-.34-.21-.84-.42-1.42-.52a3.83 3.83 0 0 0-1.51.07c-.39.09-.64.19-.71.11zM124.01 83.35c-.05-.17-.11-.36-.18-.56-.06-.21-.12-.43-.19-.67-.13-.48-.31-1.02-.44-1.64-.08-.3-.15-.62-.24-.96-.08-.33-.14-.68-.22-1.04-.16-.72-.28-1.5-.42-2.31a61.48 61.48 0 0 1-.55-5.37c-.22-3.83-.15-7.32-.13-9.86.02-1.78.16-3.31.1-3.93.03-1.72-.06-1.65-.12-2.74-.12-2.02-.37-3.65-.57-3.64-.2.01-.26 1.66-.15 3.68.22 3.68.08 5.47-.01 6.6-.21 2.53-.4 6.05-.18 9.95.12 1.95.35 3.8.65 5.47.17.83.32 1.62.53 2.35.1.36.18.72.28 1.05.11.33.21.65.31.96.19.61.41 1.15.6 1.62.1.24.18.46.27.65.1.2.19.37.27.53.33.64.54.97.6.95.07-.03-.02-.42-.22-1.1z"/><path class="cls-6" d="M132.59 72.9c.26-.21 1.66 1.24 3.75 2.44 2.07 1.23 4.02 1.74 3.96 2.07-.02.15-.56.22-1.41.08-.42-.07-.92-.19-1.46-.38-.53-.19-1.11-.45-1.68-.78-.57-.33-1.07-.71-1.5-1.08-.43-.38-.78-.75-1.05-1.09-.53-.68-.74-1.18-.62-1.27zM118.1 78.21c-.01-.16.1-.31.21-.46.12-.15.25-.3.41-.46.15-.16.29-.31.43-.43s.28-.24.44-.24c.15 0 .31.15.34.45.04.29-.08.7-.38 1.01-.3.32-.7.46-.99.44-.29-.02-.46-.16-.47-.31z"/><path class="cls-14" d="M99 67.44c-.67.14-3.72.06-3.72.06s-1.18-.67-1.91-.6-.28-.47.25-1 1.77-.93 1.77-.93-.51-1.39-2.09-1.09-2.63 1.74-2.63 1.74.05-2.05.79-2.42c0 0 .07-1.47 1.72-1.74 0 0-.07-.95 2.14-.81 0 0 .49-.26 1.79.2s1.62.81 1.62.81l.27 5.79z"/><path class="cls-5" d="M76.85 126.43c.7-1.5 2.21-2.36 3.83-2.44.28-.01.5.26.5.52 0 .29-.24.49-.52.5-.13 0-.27.02-.4.04-.14.79-.37 2.21-.41 2.41-.06.27-.4 1.11-.33 1.42s.7.9 1.24.95c.54.05 1.02-.29 1.31-.8.23-.4.72-2.49.92-3.38-.05-.04-.11-.07-.17-.11-.23-.14-.32-.47-.17-.7.15-.23.46-.32.7-.17.28.17.55.37.76.62.21.25.38.53.52.82.33.7.5 1.44.55 2.21.1 1.4-.44 2.81-1.46 3.78-.54.51-1.18.85-1.92.94-.36.05-.73.1-1.09.05-.35-.05-.7-.15-1.04-.25-.65-.18-1.3-.42-1.83-.85-.55-.44-.9-1.06-1.15-1.72-.47-1.24-.4-2.66.16-3.86zM159.74 125.52c.32-.57 1.19-.04.87.53l-.06.12c.81.82 2.67 2.72 2.95 3.04.37.41 1.19.91 1.53.73s.96-1.05.54-1.63c-.43-.58-2.71-3.04-2.78-3.11-.04-.04-.29-.46-.48-.8-.05.03-.1.05-.15.08-.57.33-1.07-.56-.5-.89 1.34-.77 2.94-.97 4.44-.64.72.16 1.44.46 2.04.89.61.43 1.05.98 1.37 1.66.43.9.66 1.87.72 2.86.11 1.48-.32 3-1.23 4.18-.6.78-1.34 1.41-2.28 1.75-.44.16-.9.21-1.36.26-.5.05-.95.01-1.43-.11-.87-.22-1.75-.44-2.54-.88-.82-.45-1.42-1.15-1.82-1.99-.92-1.89-.9-4.21.15-6.04z"/><path class="cls-8" d="M134.67 129.99c.16-8.12 3.46-15.74 9.28-21.44 5.85-5.73 13.52-8.79 21.59-8.63 16.72.33 30.05 14.21 29.71 30.92v.36c0 .19 0 .36-.02.61s0 .02 0 .03 0 .06-.01.09c-.06.23-.25.4-.5.4l-1.28-.03c-.22 0-.44-.18-.49-.4a.38.38 0 0 1-.07-.26l.03-.86c.31-15.43-11.99-28.23-27.42-28.53-15.43-.31-28.23 11.99-28.53 27.42v.31c0 .21-.16.38-.36.41-.07.03-.14.05-.22.05-.4 0-.8.06-1.2.06a.5.5 0 0 1-.36-.16c-.03-.03-.05-.07-.08-.11a.438.438 0 0 1-.08-.25z"/><path class="cls-8" d="M79.39 128.02c-.11.39-.05.79.12 1.16.14.3.39.59.69.74.73.35 1.65.05 2.06-.65v-.02c.05-.05.09-.12.11-.21.09-.31.17-.63.26-.94.72-2.58 1.48-5.16 2.24-7.74.81-2.72 1.64-5.43 2.48-8.14.86-2.76 1.73-5.52 2.61-8.28.69-2.17 1.39-4.33 2.1-6.5l.14.11c.82.64 1.66 1.25 2.5 1.86 1.17.85 2.35 1.69 3.53 2.53 1.43 1.02 2.86 2.03 4.3 3.03l4.8 3.36c1.68 1.18 3.37 2.35 5.05 3.53 1.67 1.17 3.33 2.33 5 3.49 1.57 1.1 3.14 2.2 4.7 3.3 1.38.97 2.76 1.95 4.14 2.93 1.11.79 2.22 1.59 3.32 2.39.48.35.96.71 1.44 1.07-.42 1.13-.84 2.26-1.25 3.4-1.03 2.84-2.04 5.7-2.99 8.57-.14.42.24.68.58.63.13.39.81.49.98-.02.11-.34.22-.67.34-1.01.98-2.92 2.02-5.82 3.08-8.72 1.13-3.07 2.28-6.13 3.43-9.19 1.19-3.16 2.4-6.31 3.59-9.48.7-1.86 1.4-3.73 2.09-5.59 1.52 1.83 3.05 3.66 4.59 5.48 3.01 3.57 6.04 7.11 9.09 10.64 2.97 3.42 5.96 6.81 9 10.17.21.23.51.4.82.47.28.06.57.07.85 0 .32-.09.56-.27.76-.53.38-.48.41-1.19.13-1.73l-.02-.02a.524.524 0 0 0-.11-.19c-1.72-1.9-3.42-3.81-5.1-5.74-3.17-3.62-6.3-7.29-9.41-10.97-3.12-3.7-6.21-7.43-9.3-11.16.01-.03.03-.07.04-.11 1.06-2.92 2.09-5.86 3.06-8.82.17-.53-.49-.81-.83-.52-.25-.21-.71-.19-.84.21-.12.35-.23.7-.35 1.05-1 2.97-2.04 5.93-3.11 8.87-.77 2.12-1.56 4.23-2.35 6.35-.11.02-.22.03-.34.05-3.04.4-6.16.39-9.21.08l-.8-.09c-.18-.02-.35-.04-.53-.07-.23-.03-.46-.06-.69-.1l-.4-.06c-.25-.04-.51-.08-.77-.13l-.31-.06c-.28-.05-.56-.1-.83-.16l-.19-.04c-.89-.18-1.77-.39-2.64-.62-.16-.04-.32-.09-.48-.13-.18-.05-.36-.1-.53-.15l-.63-.18a4.94 4.94 0 0 0-.36-.11c-.23-.07-.47-.15-.7-.22-.14-.05-.28-.09-.42-.14-.18-.06-.36-.13-.54-.19-.69-.24-1.37-.5-2.05-.77-.08-.03-.16-.06-.25-.1-.23-.09-.47-.19-.7-.29l-.21-.09c-1.05-.45-2.09-.93-3.11-1.45-.08-.04-.17-.08-.25-.13-.21-.1-.41-.21-.62-.32-.12-.06-.23-.12-.34-.18-.19-.1-.37-.2-.55-.3-.19-.11-.39-.22-.58-.32-.18-.1-.37-.21-.55-.31-.21-.12-.42-.25-.64-.37-.11-.07-.22-.13-.33-.2-.2-.12-.4-.24-.6-.37-.11-.07-.22-.13-.32-.2-.22-.14-.43-.27-.65-.41-.08-.05-.17-.11-.25-.16-.29-.19-.59-.38-.88-.58l-.18-.12c-.23-.16-.46-.31-.69-.47-.12-.08-.24-.16-.36-.25-.16-.11-.32-.23-.48-.34l-.42-.3c-.12-.09-.24-.17-.36-.26-.63-.46-1.26-.93-1.87-1.42-.03-.02-.06-.05-.09-.07-.21-.17-.42-.33-.63-.5-.05-.04-.09-.08-.14-.12l-.62-.5a.5.5 0 0 1-.08-.07c-.4-.32-.79-.66-1.18-.99-.06-.05-.12-.1-.17-.15l-.43-.37c-.13-.11-.26-.23-.39-.34-.12-.1-.24-.21-.36-.32-.16-.14-.32-.29-.48-.43-.09-.09-.19-.17-.28-.25-.26-.23-.51-.47-.77-.71-.03-.02-.05-.04-.08-.06.18-.55.36-1.11.55-1.66.37.07.77.15 1.14.05.35-.09.69-.35.79-.71.12-.4-.05-.77-.31-1.07-.27-.32-.63-.53-1.02-.7-.17-.09-.33-.17-.48-.25-.75-.37-1.61-.78-2.47-.82-.04-.02-.09-.04-.14-.06-.6-.23-1.39-.08-1.58.62-.15.53.16.98.57 1.27.13.13.27.23.42.34-.03.1-.07.21-.1.31-.89 2.69-1.76 5.39-2.63 8.09-.88 2.72-1.74 5.44-2.6 8.17-.86 2.74-1.7 5.48-2.54 8.22-.82 2.69-1.62 5.39-2.41 8.09-.77 2.63-1.53 5.27-2.26 7.92h.01zm15.49-31.07c-.71-.53-1.43-1.05-2.12-1.6.32-.99.65-1.97.97-2.96a82.856 82.856 0 0 0 7.78 6.39 64.691 64.691 0 0 0 7.62 4.74l.18.09c.06.03.12.06.17.09.11.06.22.11.32.16l.48.24c.21.11.42.21.64.31.11.05.22.1.33.16.24.12.49.23.74.35.08.04.16.07.23.11.26.12.52.24.79.35.02 0 .03.01.05.02.09.04.19.08.28.12 1.68.72 3.4 1.37 5.15 1.91 3.22 1.01 6.54 1.7 9.9 1.99 2.86.25 5.73.19 8.57-.18-.1.26-.19.52-.29.77-1.17 3.11-2.35 6.21-3.53 9.32-.46 1.22-.92 2.44-1.38 3.67a96.41 96.41 0 0 0-2.03-1.5c-1.17-.85-2.35-1.69-3.53-2.53-1.43-1.02-2.86-2.03-4.3-3.03l-4.8-3.36c-1.68-1.18-3.37-2.35-5.05-3.53-1.67-1.17-3.33-2.33-5-3.49-1.57-1.1-3.14-2.2-4.7-3.3-1.38-.97-2.76-1.95-4.14-2.93-1.11-.79-2.22-1.59-3.32-2.39z"/><path class="cls-8" d="M75.22 99.18c.03-.1.1-.19.18-.26v-.02H75.46c.1-.05.22-.08.34-.05 4.14-.75 8.5-.63 12.59.36l-.11.44c.72.17 1.4.37 2.08.6v-.04c.07-.22.32-.34.54-.27 5.99 2.01 11.32 5.96 15.01 11.13 3.82 5.34 5.77 11.64 5.64 18.23-.13 6.58-2.36 12.94-6.45 18.1-.08.1-.2.15-.32.16s-.01 0-.02 0h-.07c-.13 0-.27-.05-.36-.16-.14-.18-.3-.34-.48-.49-.09-.07-.18-.13-.27-.19a.546.546 0 0 1-.23-.31c-.01-.06-.02-.12-.01-.18a.432.432 0 0 1 .04-.45c3.69-4.77 5.7-10.49 5.82-16.54.12-6.05-1.67-11.87-5.19-16.79-3.4-4.76-8.3-8.41-13.81-10.27a.438.438 0 0 1-.27-.54c.01-.03.03-.07.05-.1-.59-.15-1.21-.3-1.84-.43-.05.21-.23.34-.42.34-.03 0-.06 0-.09-.01-3.65-.86-7.55-.97-11.24-.32-.08.02-.17.02-.25 0a.511.511 0 0 1-.3-.24c-.2-.42-.4-.85-.6-1.27a.529.529 0 0 1-.04-.39z"/><path class="cls-5" d="M118 130.79c1.16.99 2.35 1.95 3.54 2.9.16.13.32.25.48.38-.46.86-.73 1.83-.82 2.81a7.55 7.55 0 0 0 1.03 4.48 4.86 4.86 0 0 0 1.73 1.73c.71.41 1.49.66 2.28.87.38.1.77.22 1.16.29.43.08.86.06 1.29.02.86-.09 1.68-.26 2.43-.72.6-.37 1.12-.85 1.57-1.4 1.36.98 2.72 1.95 4.12 2.87.23.15.56.06.7-.17.15-.24.06-.55-.17-.7-1.25-.83-2.47-1.7-3.69-2.57l-.37-.27a6.94 6.94 0 0 0 .96-4.06v-.09c-.03-.49-.09-.98-.2-1.46-.19-.86-.5-1.73-.97-2.48-.4-.64-.94-1.12-1.59-1.51-1.31-.78-2.88-1.1-4.39-.94-1.53.17-3.02.81-4.09 1.94-.15.16-.3.34-.43.51-1.29-1.02-2.56-2.05-3.83-3.13-.21-.18-.51-.22-.72-.01-.19.18-.22.54-.01.72zm14.7 9.41c-.08.17-.17.34-.26.51-2.33-1.7-4.63-3.42-6.92-5.18-.73-.56-1.45-1.12-2.16-1.68.29-.39.64-.74 1.03-1.02 1.08-.78 2.37-1.12 3.67-1.07.56.02 1.13.11 1.68.28.02.02.05.04.07.05.32.17.62.36.91.57 2.29 1.72 3.17 4.94 1.98 7.54zm-10.35-4.16c.11-.46.27-.91.47-1.33 2.24 1.76 4.5 3.48 6.79 5.18.74.55 1.49 1.11 2.24 1.66-.58.71-1.31 1.28-2.18 1.53-.32.1-.69.14-1 .18-.33.03-.78.06-1.05 0-.72-.15-1.46-.35-2.15-.6-.62-.22-1.24-.53-1.72-.98-.49-.47-.85-1.12-1.09-1.71-.5-1.26-.61-2.66-.31-3.93z"/><circle cx="127.46" cy="137.34" r="1.45" style="fill:#ff7f00"/><path class="cls-12" d="M138.02 89.53s.01-.06.02-.08c.48-1.14 1.88-1.27 2.95-1.18.65.05 1.3.12 1.96.13.63.01 1.26-.02 1.88-.07 1.31-.13 2.57-.46 3.85-.78 1.24-.31 2.51-.57 3.79-.49.73.04 1.45.18 2.13.47.68.28 1.29.71 1.89 1.13.12.08.19.21.16.35.01.03.02.06.02.1.14 1.84.12 3.69-.05 5.53 0 .06-.04.11-.08.15a.21.21 0 0 1-.04.06c-1.43 1.78-3.74 2.69-6 2.53-1.42-.1-2.8-.52-4.15-.96-1.37-.44-2.73-.94-4.08-1.47-1.53-.6-3.04-1.23-4.56-1.86-.14-.06-.19-.18-.17-.29v-.13c.1-.62.16-1.25.24-1.87.04-.28.07-.55.12-.83.03-.14.05-.29.1-.43zM54.27 126.08c-.23 2.86.01 5.77.69 8.57a26.78 26.78 0 0 0 3.31 7.92c1.62 2.59 3.7 4.89 6.1 6.77 2.14 1.68 4.55 2.99 7.09 3.95 2.55.96 5.24 1.55 7.96 1.77 2.72.22 5.47.05 8.15-.5 2.75-.57 5.43-1.55 7.86-2.95 2.46-1.41 4.65-3.25 6.36-5.51.03-.04.04-.08.06-.12.32-.38.64-.77.94-1.17 1.68-2.23 2.99-4.73 3.92-7.36.93-2.63 1.46-5.41 1.57-8.2.1-2.73-.23-5.47-.98-8.1-.74-2.57-1.85-5.03-3.3-7.28a27.963 27.963 0 0 0-5.2-6.02c-2.19-1.89-4.66-3.4-7.34-4.49-1.09-.44-2.21-.77-3.35-1.08-1.48-.4-2.99-.69-4.52-.84-3.11-.29-6.28 0-9.29.8-2.79.74-5.46 1.92-7.86 3.51a27.245 27.245 0 0 0-5.96 5.33 27.376 27.376 0 0 0-4.22 6.89 25.982 25.982 0 0 0-1.97 8.1zm3.47 6.51c-.46-2.32-.57-4.7-.34-7.05.26-2.62 1-5.21 2.11-7.6a23.94 23.94 0 0 1 4.63-6.68c1.81-1.83 3.91-3.37 6.2-4.54a23.5 23.5 0 0 1 7.85-2.42c2.78-.34 5.72-.22 8.44.47 2.32.58 4.53 1.39 6.61 2.58 2.27 1.3 4.29 2.98 6.01 4.95 1.63 1.87 2.97 3.99 3.98 6.26 1 2.25 1.67 4.67 1.94 7.12.27 2.47.17 5-.34 7.44-.51 2.48-1.41 4.86-2.65 7.06-1.35 2.4-3.07 4.57-5.03 6.5-.73.68-1.5 1.31-2.32 1.87-1.05.71-2.18 1.3-3.33 1.81-2.26.99-4.7 1.63-7.16 1.88-2.47.26-4.99.17-7.43-.29-2.45-.46-4.84-1.28-7.04-2.46a22.806 22.806 0 0 1-5.72-4.37 25.126 25.126 0 0 1-4.1-5.81 25.462 25.462 0 0 1-2.33-6.73zM137.85 130.14c0 .05 0 .1.02.14 0 .17 0 .33.01.49.15 4.22 1.33 8.37 3.33 12.08 2.01 3.73 4.86 7.01 8.3 9.48 3.53 2.53 7.67 4.08 11.97 4.64 4.3.56 8.76.11 12.86-1.31 2.07-.72 4.06-1.67 5.9-2.88 1.55-1.02 3.08-2.2 4.19-3.7 0 0 .01-.01.01-.02 1.88-1.99 3.46-4.27 4.66-6.73a27.69 27.69 0 0 0 2.49-7.84c.43-2.71.45-5.47.02-8.18-.41-2.63-1.23-5.19-2.39-7.58a27.99 27.99 0 0 0-4.43-6.57 26.485 26.485 0 0 0-6.24-5.07 27.075 27.075 0 0 0-7.91-3.04c-2.79-.59-5.67-.77-8.51-.49-1.42.14-2.83.38-4.22.75-1.36.36-2.68.84-3.99 1.34-1.36.52-2.71 1.1-3.92 1.93-1.11.75-2.22 1.57-3.18 2.51a27.44 27.44 0 0 0-3.8 4.26c-.89 1.24-1.63 2.58-2.31 3.95-.54 1.09-1.04 2.19-1.46 3.34-.86 2.4-1.24 4.92-1.38 7.45a.59.59 0 0 0-.02.14v.53c0 .12-.01.24-.01.36zm44.13 17.36c-.39.41-.8.8-1.24 1.16-1.85 1.55-4.04 2.75-6.33 3.52-2.72.91-5.58 1.28-8.43 1.4-2.85.11-5.8.11-8.55-.74-2.39-.74-4.58-2.05-6.51-3.64-3.82-3.15-6.96-7.32-8.74-11.96-.88-2.28-1.44-4.69-1.57-7.14-.13-2.49.2-4.98.96-7.36a22.53 22.53 0 0 1 3.48-6.68c1.5-2 3.35-3.69 5.39-5.13 3.94-2.76 8.76-4.34 13.56-4.53 4.51-.17 9.08.81 13.08 2.91 1.98 1.04 3.81 2.34 5.4 3.9 1.73 1.7 3.14 3.68 4.21 5.86 2.21 4.49 2.89 9.7 2.02 14.62-.9 5.07-3.3 9.81-6.67 13.68-.03.04-.06.08-.08.12z"/><path class="cls-9" d="M144.35 89.06c.13-.3 1.8.21 3.85-.06 2.05-.23 3.56-1.13 3.75-.87.09.12-.19.52-.82.96-.62.44-1.62.88-2.8 1.02-1.17.14-2.25-.04-2.96-.32-.72-.27-1.08-.6-1.03-.73zM139.56 91.81c.09-.15.98.29 2.46.82.74.27 1.63.54 2.63.79 1 .23 2.12.43 3.3.53 1.18.1 2.31.09 3.34.04 1.03-.07 1.95-.19 2.72-.33 1.54-.27 2.5-.55 2.56-.39.05.13-.81.67-2.37 1.16-.78.25-1.74.45-2.81.59a18.7 18.7 0 0 1-3.53.05c-1.25-.11-2.42-.35-3.47-.65-1.04-.32-1.95-.68-2.67-1.06-1.46-.75-2.22-1.43-2.14-1.54zM91.92 87.44c.12-.11.78.49 1.78.83.99.36 1.88.32 1.9.48.01.07-.21.18-.59.23-.38.05-.93.01-1.49-.18-.56-.2-1.01-.52-1.27-.8-.27-.28-.37-.51-.31-.55zM88.19 98.69c.05-.15.86-.02 1.82.28.96.3 1.7.66 1.66.81-.05.15-.86.02-1.82-.28-.96-.3-1.7-.66-1.66-.81zM143.95 108.55c-.13-.07.29-1.05 1.24-1.94.93-.89 1.89-1.31 1.97-1.18.09.14-.71.75-1.58 1.59-.88.83-1.48 1.61-1.62 1.53zM146.03 110.31c-.1-.12.56-.8 1.46-1.51.9-.71 1.71-1.2 1.81-1.08.1.12-.56.8-1.46 1.51-.9.71-1.71 1.2-1.81 1.08zM87.13 101.69c.03-.15.92-.11 1.96.21s1.8.78 1.74.92c-.06.14-.89-.08-1.9-.39-1-.31-1.82-.59-1.79-.74z"/><path class="cls-12" d="M112.26 77.1c-1.45.01-2.57-.47-2.92-.66-2.5 2.59-6.38 4.76-9.95 3.87-4.37-1.09-7.8-5.92-7.37-10.32.17-1.78 1.1-3.34 2.79-4.13.36-.17.58-.51.68-.89s-2.86-1.32-3.17-1.12c-3.86 2.6-3.92 8.27-2.04 12.19 1.32 2.75 3.77 5.21 6.55 6.48 2.99 1.36 6.21 1.09 9.16-.21 2.3-1.01 4.55-2.63 6.17-4.57.16-.19.39-.47.45-.7l-.34.05z"/><path style="fill:none;stroke:#78587a;stroke-miterlimit:10;stroke-width:3px" d="m94.37 85.53 2.01-4.92"/><path style="fill:#f0a4ae" d="m55.31 109.81 5.05 2.79 12.88 43.81H48.98l-4.76-2.79v-43.81h11.09z"/><path class="cls-9" d="M59.42 112.65c-3.16.14-6.33.25-9.5.3l.3-.3.11 5.48c.12 12.76.13 25.6-.42 38.34-.55-12.74-.54-25.58-.42-38.34l.11-5.48v-.31c3.27.06 6.53.16 9.79.31z"/><path class="cls-4" d="M127.59 37.66c-.08.33.03 1.18.03 1.18s.18.96.14 1.03c-.1.21.27.99.27.99l.08.64.54 3.94s-4.88 3.21-5.47 3.23c-.59.02-2.01-1.95-2.01-1.95l-.2-1.31-1.97-2.1s-.52-1.85-.65-1.96c-.08-.06.19-1.26-.47-1.37-.52-.09-1-.64-1-.64s.89-2.24.87-2.74.15-2.83.15-2.83c.24-.92.46-1.7.95-2.31.49-.61.55-1.08 1.42-1.18.87-.09 1.43-.41 2.23.05.8.46 1.78 1.1 2.4 1.86.63.76 1.09 1.56 1.09 1.56s.54 1.22.55 1.27.19.65.19.65l.85 1.97z"/><path class="cls-7" d="M128.56 47.72c-.17-1.91-.45-3.81-.78-5.7-.32-1.89-.69-3.77-1.16-5.62-.06-.23-.12-.46-.19-.69-.03-.09.03.05 0 .01 0-.01 0-.03-.02-.04v-.01c.26-1.2.07.1.05.07a.3.3 0 0 1-.06-.11c-.1-.24-.16-.51-.26-.76-.1-.26-.22-.52-.34-.77-.24-.48-.51-.94-.83-1.36-1.05-1.41-2.88-3.03-4.73-2.03-1.85 1-2.17 3.46-2.16 5.39 0 .23.01.47.02.7.01.18-.19.32-.35.31-.2-.01-.3-.17-.31-.35-.12-2.2.09-4.89 2-6.32.44-.33.94-.58 1.49-.67s1.07-.03 1.57.14c1.03.34 1.9 1.09 2.59 1.91.89 1.06 1.55 2.3 1.94 3.63l-.08-.15c.06.08.09.16.12.25.07.2.12.41.18.61.23.86.42 1.73.6 2.6.4 1.92.73 3.86 1.01 5.8.14 1.01.27 2.01.36 3.03.02.18-.07.35-.26.39-.16.03-.38-.08-.39-.26zM121.24 44.89c.17 1.29.38 2.56.64 3.83.09.42-.57.56-.65.14-.26-1.27-.47-2.55-.64-3.83-.02-.18.07-.36.26-.39.17-.04.37.08.39.26z"/><path class="cls-7" d="M119.49 36.66v-.03s-.02-.09 0-.13c0-.04.02-.08.05-.12.02-.04.05-.07.09-.09.03-.03.07-.05.12-.05h.09c.06 0 .11.02.16.05l.06.06s.07.1.08.15v.03s.02.09 0 .13c0 .04-.02.08-.05.12-.02.04-.05.07-.09.09-.03.03-.07.05-.12.05h-.09c-.06 0-.11-.02-.16-.05l-.06-.06s-.07-.1-.08-.15z"/><path class="cls-8" d="M118.37 44.46c.49.43 1.1.69 1.71.87.66.19 1.35.29 2.04.28.69 0 1.38-.11 2.04-.31.64-.2 1.31-.47 1.82-.91.54-.47.72-1.12.85-1.8.14-.74.21-1.49.23-2.24v-.96c.11.3.22.6.34.89.05.13.17.14.27.1.1.01.19-.05.24-.15.3-.62.4-1.32.42-2 .01-.65-.04-1.31-.1-1.96-.07-.71-.16-1.42-.29-2.12-.22-1.2-.69-2.49-1.9-2.99s-.04-.01-.06-.01c-.38-.21-.63-.62-.86-.95-.26-.37-.59-.74-1.04-.9-.21-.07-.43-.08-.64-.03-.23.05-.46.18-.7.13-.38-.08-.67-.38-1.07-.36-.25.01-.45.14-.66.27-.19.12-.38.19-.61.17-.45-.03-.86-.24-1.31-.25-.82-.02-1.57.61-1.71 1.42-.12.74.33 1.51 1.01 1.8.03.05.08.08.16.07H118.67c.96-.05 1.9-.16 2.84-.35.24.19.43.46.63.68s.4.43.62.64c.44.42.92.8 1.43 1.13l.06.03c.38.39.77.78 1.15 1.17-.29 1.35-.6 2.69-.93 4.02s-.07.04-.11.06c-.05.03-.11.06-.16.1-.12.07-.23.14-.34.21-.23.14-.46.27-.69.41-.41.24-.82.49-1.23.73l-.63-.83-.03-.03a.196.196 0 0 0-.13-.12 7.44 7.44 0 0 0-3.18-.27c-.1.01-.15.08-.17.16-.03.04-.04.09-.02.15.15.73-.13 1.45-.18 2.18-.05.74.21 1.4.77 1.89zm3.55-12.5s-.07-.07-.11-.1h.03l.08.11zm4.64 9.13s0-.02.01-.03 0 .03 0 .04l-.01-.01z"/><path class="cls-7" d="M118.09 36.79c-.04.37-.16.72-.31 1.05s-.34.62-.49.93c-.11.22-.15.46 0 .67.17.22.46.23.68.1.15-.09.37 0 .45.14.09.17.01.36-.14.45-.37.23-.87.22-1.24-.02s-.56-.67-.52-1.09.29-.76.48-1.11.37-.75.42-1.16a.34.34 0 0 1 .35-.31c.17.01.33.17.31.35z"/><path class="cls-4" d="M125.24 35.64s.28-.3.5-.34.56.29.6.62c.04.33 0 1.2-.3 1.38-.3.18-.7.15-.86.1s-.67-.32-.67-.32l.73-1.45z"/><path class="cls-7" d="M124.96 35.54c.13-.34.44-.55.8-.56s.68.25.82.57c.15.36.14.78.09 1.16-.05.36-.17.72-.48.95-.18.13-.38.21-.61.2s-.41-.12-.59-.24c-.15-.1-.2-.31-.1-.46s.3-.2.46-.1c.04.02.07.05.11.07 0 0 .09.05.04.02.02 0 .04.02.06.02.03 0 .04.01.02 0s-.01 0 .02 0h.06c-.08 0 .02-.01.03-.01-.07.01.04-.02.05-.03.06-.03-.02.03.03-.02.02-.02.05-.04.07-.06.03-.03.03-.03 0 0 .01-.02.02-.03.04-.05 0 0 .05-.08.02-.04.04-.07.06-.15.08-.23.02-.07 0 .01 0-.05 0-.05.01-.09.02-.14 0-.08.01-.15.01-.23 0-.19 0-.31-.04-.48-.02-.07.02.03-.01-.03 0-.01-.07-.12-.03-.06-.02-.03-.04-.05-.06-.07-.03-.03-.03-.03 0 0-.01 0-.03-.02-.04-.03-.02-.01-.02-.01 0 0-.02 0-.03-.01-.05-.02-.07-.02.05 0-.02 0h-.05.01c-.02 0-.09.03-.02 0-.02.01-.05.02-.07.03-.03.02-.03.02 0 0-.01.01-.03.02-.04.03-.06.04.03-.05-.01.01 0 .01-.02.03-.03.04.02-.04.02-.04 0 0-.06.16-.25.28-.42.21-.16-.06-.28-.25-.21-.42z"/><path class="cls-17" d="M115.46 34.15c.22-3.84 3.52-6.79 7.36-6.57 3.84.22 6.79 3.52 6.58 7.36 0 .06-.03.12-.07.16a.24.24 0 0 1-.12.07h-.07c-.78-.04-1.57-.09-2.35-.13-.12.7-.58 1.27-1.2 1.55 0 .02.01.05 0 .08s-.04 2.75-.04 2.75c-.01.85 0 1.71-.07 2.56-.1 1.45-.42 3.23-1.74 4.08-.32.2-.7.37-1.08.4-.42.04-.8-.07-1.16-.28-.32-.19 0-.68.32-.49.24.14.5.23.78.19.31-.04.61-.17.87-.34.51-.34.83-.91 1.03-1.47.52-1.44.44-3.05.46-4.56l.04-2.75c-.12.02-.24.02-.37.01-1.07-.05-1.9-.91-1.97-1.95-2.3-.12-4.6-.25-6.9-.38-.04 0-.08-.01-.11-.03a.26.26 0 0 1-.21-.26z"/><path d="M120.21 40.31c-.24.71-.93 1.19-1.68 1.18-.17 0-.33-.18-.31-.35a.34.34 0 0 1 .35-.31c.03 0 .14-.02.04 0 .03 0 .06 0 .1-.01.07-.01.13-.03.2-.05.07-.02-.05.02-.01 0 .02 0 .03-.01.05-.02.03-.01.07-.03.1-.05.03-.01.06-.03.08-.05.02 0 .03-.02.05-.03.05-.03-.04.03 0 0 .05-.04.11-.08.16-.13l.07-.07c.05-.05 0 0 0 0l.03-.04a.99.99 0 0 0 .11-.17s.03-.07.01-.02 0-.02 0-.02c.01-.03.03-.07.04-.1.06-.16.25-.28.42-.21s.27.24.21.42z" style="fill:#af9380"/><path class="cls-2" d="M93.8 66.86c3.3.84 5.2.58 5.2.58s-.12-.15 1.49 1.2M102.96 64.85l-3.78-2.83s-.31-.35-1.62-.81c-1.3-.47-2.24-.58-2.24-.58-2.21-.14-2.14.81-2.14.81-1.65.28-1.72 1.74-1.72 1.74-.74.37-.79 2.42-.79 2.42s1.05-1.44 2.63-1.74c1.58-.3 2.09 1.09 2.09 1.09"/><path class="cls-2" d="M95.67 61.92s-1.4-.55-2.49-.47M94.01 62.7s-1.24-.32-2.55.5"/></g></svg>