<svg xmlns="http://www.w3.org/2000/svg" viewBox="0 0 200 200"><defs><style>.cls-1{fill:none}.cls-2{fill:#f2a6b0}.cls-3{fill:#f6c243}.cls-4{fill:#f75e28}.cls-5{fill:#e87003}.cls-6{fill:#fff}.cls-7{fill:#e5cfb1}.cls-8{fill:#ffd066}.cls-11{fill:#efedea}.cls-12{fill:#e5b342}.cls-13{fill:#ff8000}.cls-14{fill:#a08675}.cls-15{fill:#c1dade}.cls-18{fill:#d6e8ea}.cls-21{fill:#5b3d5b}</style></defs><path class="cls-11" d="M11.08 103.11c3.5 48.23 17.48 47.7 61.36 51.48 32.52 28.65 80.29 39.05 121.25 20.38 13.25-24.31-15.25-62.54-29.32-83.74-13.6-14.66-37.22-.73-50.45-16.83C96.36 12.08-25.03 46.34 11.08 103.11Z" id="BG_Strong"/><g id="Illustrations"><path d="M26.4 190.35s.02-.02.03-.02c1.49-.57 2.96-1.19 4.45-1.74l1.17-.42a9.9 9.9 0 0 1 2.86-2.2v-.04c.07-.37.31-.69.63-.89.06-.04.12 0 .13.06 0 0 .02 0 .02.02.3.35.59.7.89 1.05.28.32.58.64.93.89.34.24.74.43 1.16.46.43.04.84-.11 1.21-.3.18-.1.38-.2.55-.32.12-.09.24-.2.36-.28.03-.02.06-.02.09 0 .22.12.43.25.64.39.2.14.39.29.55.47.02 0 .04.03.04.06.14.84.12 1.71-.03 2.55.02.02.04.04.04.07.08.53.07 1.06-.03 1.58.07.09.04.26-.11.27l-6.02.06-5.89.06-3.44.04s-.06 0-.08-.02h-.05l-.01-.03c-.03 0-.07-.02-.09-.06-.14-.3-.23-.62-.26-.96-.02-.25-.04-.61.23-.74Z" style="fill:#cc5e05"/><path class="cls-13" d="M40.84 191.18s.02-.02.03-.02c1.49-.57 2.96-1.19 4.45-1.74l1.17-.42a9.9 9.9 0 0 1 2.86-2.2v-.04c.07-.37.31-.69.63-.89.06-.04.12 0 .13.06 0 0 .02 0 .02.02.3.35.59.7.89 1.05.28.32.58.64.93.89.34.24.74.43 1.16.46.43.04.84-.11 1.21-.3.18-.1.38-.2.55-.32.12-.09.24-.2.36-.28.03-.02.06-.02.09 0 .22.12.43.25.64.39.2.14.39.29.55.47.02 0 .04.03.04.06.14.84.12 1.71-.03 2.55.02.02.04.04.04.07.08.53.07 1.06-.03 1.58.07.09.04.26-.11.27l-6.02.06-5.89.06-3.44.04s-.06 0-.08-.02h-.05l-.01-.03c-.03 0-.07-.02-.09-.06-.14-.3-.23-.62-.26-.96-.02-.25-.04-.61.23-.74Z"/><ellipse class="cls-11" cx="108.06" cy="181.14" rx="64.05" ry="10.31"/><g id="Cupcake_balloon"><path class="cls-15" d="M61.98 27.64c-2.5-5.6-6.47-10.65-11.64-14-2.55-1.65-5.39-2.87-8.36-3.52-3.15-.68-6.4-.71-9.57-.18-6.35 1.06-12.32 4.42-16.65 9.18-4.66 5.12-7.21 11.82-7.72 18.68-.27 3.51 0 7.06.76 10.49.68 3.11 1.74 6.19 3.3 8.97 1.37 2.43 3.09 4.67 4.96 6.73 2.09 2.3 4.4 4.4 6.88 6.28 4.73 3.59 10.3 6.62 16.27 7.33.85.1 1.71.15 2.56.13-.22.56-.44 1.12-.67 1.68-.15.37.28.71.62.62 1.44-.39 2.84-.88 4.21-1.48.35-.15.32-.71 0-.87-.46-.23-.92-.47-1.38-.7l-.06-.03c5.26-3.08 9.71-7.47 13.02-12.59 3.53-5.46 5.77-11.75 6.43-18.22a36.5 36.5 0 0 0-2.96-18.5Z"/><path class="cls-1" d="M37.42 21.89v.02h.02l-.01-.02ZM59.9 24.04l-.06-.03c-.73-.21-1.47-.31-2.24-.23.78-.04 1.56.05 2.3.26ZM54.98 36.69a.683.683 0 0 1-.34-.17c.06.09.11.18.17.28.05-.04.11-.07.16-.11ZM46.99 15.91c0 .07-.02.14-.05.2l.16-.09s-.07-.08-.11-.11ZM40.04 13.52c-.33-.24-.7-.4-1.12-.44.39.09.76.24 1.12.44ZM60.86 26.51c-.33-.24-.7-.4-1.12-.44.39.09.76.24 1.12.44ZM59.67 53.12c-2.35 1.55-.12 4.86.97 6.41.09.13.14.25.15.38.99-2.01 1.81-4.09 2.46-6.23-1.08-.88-2.33-1.38-3.58-.56ZM52.97 24.68c.23-.28.48-.53.76-.77.09-.12.17-.24.27-.35-.4.33-.74.71-1.02 1.12ZM58.24 34.88v.02h.02l-.01-.02ZM43.27 43.41c-.12-.16-.25-.32-.38-.48.13.25.25.49.35.72 0 .02 0 .03.01.05.07-.04.14-.08.2-.12a.548.548 0 0 1-.18-.16ZM16.97 54.45c-.33-.24-.7-.4-1.12-.44.39.09.76.24 1.12.44ZM16.01 51.98l-.06-.03c-.73-.21-1.47-.31-2.24-.23.78-.04 1.56.05 2.3.26ZM23.92 56.83c0 .07-.02.14-.05.2.05-.03.11-.06.16-.09-.04-.04-.07-.08-.11-.11ZM10.1 51.5c-.14.12-.27.24-.4.37 0 .03.02.05.03.08.04-.03.07-.07.11-.1.09-.12.17-.24.27-.35ZM31.4 62.7c.23-.28.48-.53.76-.77.09-.12.17-.24.27-.35-.4.33-.74.71-1.02 1.12ZM39.07 11.05l-.06-.03c-.73-.21-1.47-.31-2.24-.23.78-.04 1.56.05 2.3.26ZM39.29 64.52c-.33-.24-.7-.4-1.12-.44.39.09.76.24 1.12.44ZM46.25 66.91c0 .07-.02.14-.05.2l.16-.09s-.07-.08-.11-.11ZM33.25 74.81l.16-.11a.62.62 0 0 1-.33-.17c.06.09.11.18.17.28ZM38.33 62.05l-.06-.03c-.73-.21-1.47-.31-2.24-.23.78-.04 1.56.05 2.3.26ZM36.68 72.9v.02h.02l-.01-.02ZM19.06 27.79c-.33-.24-.7-.4-1.12-.44.39.09.76.24 1.12.44ZM26.02 30.18c0 .07-.02.14-.05.2.05-.03.11-.06.16-.09-.04-.04-.07-.08-.11-.11ZM16.45 36.16v.02h.02l-.01-.02ZM32.9 10.92c.09-.12.17-.24.27-.35-.4.33-.74.71-1.02 1.12.23-.28.48-.53.76-.77ZM34.16 23.71a.62.62 0 0 1-.33-.17c.06.09.11.18.17.28.05-.04.11-.07.16-.11Z"/><path class="cls-1" d="M60.32 60.66s-.04.03-.06.04c-.82.56-1.63 1.12-2.45 1.68-.15.28-.43.49-.73.5-.21.15-.43.29-.64.44-.3.21-.6.18-.82.04a.8.8 0 0 1-.51-.28c-2.28-2.63-3.24-6-2.66-9.43.47-2.79 1.63-6.06 3.99-7.81 2.22-1.65 5.34-1.68 7.85-.69.2.08.39.16.58.25.41-4.74-.11-9.5-1.53-14.02-1.05-1.76-3.34-5.04-5.36-3.51-1.13.85-.5 2.71 0 3.75.53 1.11 1.26 2.11 1.99 3.11.22.3.16.59-.02.8-.05.16-.15.3-.35.42-.11.07-.22.13-.33.2-.4.28-.8.55-1.21.8-.06.07-.13.13-.22.18-.32.17-.64.34-.95.51-.14.08-.28.15-.42.23l-.57.3c-.05.03-.11.05-.16.07-.01 0-.02.01-.04.02-.12.06-.24.08-.36.08-.09.04-.18.09-.27.13-.25.12-.48.11-.66.02a.698.698 0 0 1-.51-.34c-1.77-2.83-3.53-5.91-3.56-9.34-.02-2.79 1.15-5.65 3.67-7.04 1.22-.68 2.59-.97 3.97-.95-2.14-2.87-4.74-5.4-7.75-7.35a25.665 25.665 0 0 0-6.07-2.9c1.67 1.35 3.09 3.03 4.42 4.68.23.29.21.63.07.89.15.32.11.72-.28.94-1.36.76-2.71 1.51-4.07 2.27-.3.17-.6.11-.81-.06a.67.67 0 0 1-.66-.36c-.84-1.5-3.41-5.7-5.65-4.01-1.13.85-.5 2.71 0 3.75.53 1.11 1.26 2.11 1.99 3.11.22.3.16.59-.02.8-.05.16-.15.3-.35.42-.11.07-.22.13-.33.2-.4.28-.8.55-1.21.8-.06.07-.13.13-.22.18-.32.17-.64.34-.95.51-.14.08-.28.15-.42.22l-.57.3c-.05.03-.11.05-.16.07-.01 0-.02.01-.04.02-.12.06-.24.08-.36.08-.09.04-.18.09-.27.13-.25.12-.48.11-.66.02a.698.698 0 0 1-.51-.34c-1.77-2.83-3.53-5.91-3.56-9.34-.02-2.2.71-4.43 2.25-5.97-6.16 1.16-11.91 4.46-16.12 9.08a27.9 27.9 0 0 0-2.94 3.86c2.39-1.1 5.26-.84 7.62.23 3.02 1.37 5.25 3.95 7.28 6.48.23.29.21.63.07.89.15.32.11.72-.28.94-1.36.76-2.71 1.51-4.07 2.27-.3.17-.6.11-.81-.06a.67.67 0 0 1-.66-.36c-.84-1.5-3.41-5.7-5.65-4.01-1.13.85-.5 2.71 0 3.75.53 1.11 1.26 2.11 1.99 3.11.22.3.16.59-.02.8-.05.16-.15.3-.35.42-.11.07-.22.13-.33.2-.4.28-.8.55-1.21.8-.06.07-.13.13-.22.18-.32.17-.64.34-.95.51-.14.08-.28.15-.42.23l-.57.3c-.05.03-.11.05-.16.07-.01 0-.02.01-.04.02-.12.06-.24.08-.36.08-.09.04-.18.09-.27.13-.25.12-.48.11-.66.02a.698.698 0 0 1-.51-.34c-1.4-2.24-2.8-4.64-3.33-7.24-.43 1.78-.71 3.6-.85 5.43-.27 3.51 0 7.06.76 10.49.16.73.34 1.46.55 2.19.28-.22.57-.42.89-.6 2.48-1.38 5.59-1.16 8.11-.02 3.02 1.37 5.25 3.95 7.28 6.48.23.29.21.63.07.89.15.32.11.72-.28.94-1.36.76-2.71 1.51-4.07 2.27-.3.17-.6.11-.81-.06a.67.67 0 0 1-.66-.36c-.84-1.5-3.41-5.7-5.65-4.01-1.13.85-.5 2.71 0 3.75.53 1.11 1.26 2.11 1.99 3.11.08.11.12.22.13.32l.72.81c2.09 2.3 4.4 4.4 6.88 6.28 2.37 1.81 4.96 3.47 7.71 4.76-1.46-2.46-2.74-5.12-2.76-8.03-.02-2.79 1.15-5.65 3.67-7.04 2.48-1.38 5.59-1.16 8.11-.02 3.02 1.37 5.25 3.95 7.28 6.48.23.29.21.63.07.89.15.32.11.72-.28.94-1.36.76-2.71 1.51-4.07 2.27-.3.17-.6.11-.81-.06a.67.67 0 0 1-.66-.36c-.84-1.5-3.41-5.7-5.65-4.01-1.13.85-.5 2.71 0 3.75.53 1.11 1.26 2.11 1.99 3.11.22.3.16.59-.02.8-.05.16-.15.3-.35.42-.11.07-.22.13-.33.2-.4.28-.8.55-1.21.8-.06.07-.13.13-.22.18-.32.17-.64.34-.95.51-.14.08-.28.15-.42.23l-.39.21c1.81.64 3.67 1.11 5.58 1.33.85.1 1.71.15 2.56.13-.22.56-.44 1.12-.67 1.68-.15.37.28.71.62.62 1.44-.39 2.84-.88 4.21-1.48.35-.15.32-.71 0-.87-.46-.23-.92-.47-1.38-.7l-.06-.03c5.26-3.08 9.71-7.47 13.02-12.59.75-1.15 1.43-2.34 2.06-3.56-.04.03-.08.05-.12.07ZM46.26 43.65c-.32.52-.94.81-1.45 1.11-.72.42-1.44.84-2.17 1.26-.44.25-.9.07-1.17-.31-1.16-1.57-3.49-4.52-5.78-3.01-2.35 1.55-.12 4.86.97 6.41.34.48.08.94-.32 1.14-.02.02-.04.03-.06.04-.82.56-1.63 1.12-2.45 1.68-.15.28-.43.49-.73.5-.21.15-.43.29-.64.44-.3.21-.6.18-.82.04a.8.8 0 0 1-.51-.28c-2.28-2.63-3.24-6-2.66-9.43.47-2.79 1.63-6.06 3.99-7.81 2.22-1.65 5.34-1.68 7.85-.69 2.4.95 4.45 2.82 5.52 5.18.48 1.07 1.12 2.63.43 3.74Z"/><path class="cls-1" d="M13.19 37.98a.683.683 0 0 1-.34-.17c.06.09.11.18.17.28.05-.04.11-.07.16-.11ZM18.1 25.32l-.06-.03c-.73-.21-1.47-.31-2.24-.23.78-.04 1.56.05 2.3.26ZM11.17 25.96c.23-.28.48-.53.76-.77.09-.12.17-.24.27-.35-.4.33-.74.71-1.02 1.12Z"/><path class="cls-18" d="M40.31 34.72c-2.5-.99-5.62-.97-7.85.69-2.36 1.75-3.52 5.02-3.99 7.81-.58 3.43.38 6.8 2.66 9.43.16.18.34.27.51.28.23.15.52.17.82-.04.21-.15.43-.29.64-.44.29 0 .57-.21.73-.5.82-.56 1.63-1.12 2.45-1.68.02-.01.04-.03.06-.04.41-.2.66-.66.32-1.14-1.09-1.55-3.32-4.86-.97-6.41 2.28-1.51 4.61 1.44 5.78 3.01.28.37.74.56 1.17.31.72-.42 1.44-.84 2.17-1.26.51-.3 1.12-.59 1.45-1.11.69-1.12.05-2.68-.43-3.74-1.07-2.36-3.12-4.23-5.52-5.18Zm2.94 8.96s0-.03-.01-.05c-.09-.23-.21-.47-.35-.72.13.16.26.32.38.48.05.07.12.12.18.16-.07.04-.14.08-.2.12ZM56.44 45.83c-2.36 1.75-3.52 5.02-3.99 7.81-.58 3.43.38 6.8 2.66 9.43.16.18.34.27.51.28.23.15.52.17.82-.04.21-.15.43-.29.64-.44.29 0 .57-.21.73-.5.82-.56 1.63-1.12 2.45-1.68.02-.01.04-.03.06-.04.04-.02.08-.05.12-.07.12-.23.24-.46.35-.69a.796.796 0 0 0-.15-.38c-1.09-1.55-3.32-4.86-.97-6.41 1.24-.82 2.5-.32 3.58.56.77-2.52 1.3-5.12 1.57-7.75.02-.18.03-.36.05-.53a5.96 5.96 0 0 0-.58-.25c-2.5-.99-5.62-.97-7.85.69ZM50.32 28.78c.02 3.43 1.79 6.51 3.56 9.34.13.21.32.32.51.34.19.09.42.1.66-.02.09-.04.18-.09.27-.13.11 0 .23-.02.36-.08.01 0 .02-.01.04-.02.05-.02.11-.04.16-.07l.57-.3c.14-.07.28-.15.42-.23.32-.17.64-.34.95-.51.09-.05.16-.11.22-.18.41-.26.82-.52 1.21-.8.11-.07.22-.13.33-.2.19-.11.3-.26.35-.42.18-.21.24-.5.02-.8-.72-.99-1.46-2-1.99-3.11-.49-1.04-1.13-2.89 0-3.75 2.02-1.53 4.31 1.76 5.36 3.51-.42-1.34-.91-2.65-1.49-3.94a35.165 35.165 0 0 0-3.89-6.65c-1.38-.02-2.75.28-3.97.95-2.52 1.4-3.69 4.26-3.67 7.04Zm3.4-4.88c-.27.24-.52.5-.76.77.28-.42.62-.8 1.02-1.12-.09.11-.18.23-.27.35Zm4.52 10.97v.02-.02Zm1.49-8.81c.43.04.8.2 1.12.44-.36-.2-.74-.35-1.12-.44Zm.1-2.06.06.03a7.14 7.14 0 0 0-2.3-.26c.77-.08 1.51.02 2.24.23Zm-4.85 12.69c-.05.04-.11.07-.16.11-.06-.09-.11-.18-.17-.28.11.1.22.16.34.17ZM33.06 25.14c.13.21.32.32.51.34.19.09.42.1.66-.02.09-.04.18-.09.27-.13.11 0 .23-.02.36-.08.01 0 .02-.01.04-.02.05-.02.11-.04.16-.07l.57-.3c.14-.07.28-.15.42-.22.32-.17.64-.34.95-.51.09-.05.16-.11.22-.18.41-.26.82-.52 1.21-.8.11-.07.22-.13.33-.2.19-.11.3-.26.35-.42.18-.21.24-.5.02-.8-.72-.99-1.46-2-1.99-3.11-.49-1.04-1.13-2.89 0-3.75 2.23-1.69 4.8 2.51 5.65 4.01.16.28.41.38.66.36.21.17.5.23.81.06 1.36-.76 2.71-1.51 4.07-2.27.4-.22.44-.62.28-.94.14-.26.17-.6-.07-.89-1.33-1.66-2.75-3.34-4.42-4.68-.75-.24-1.52-.45-2.29-.62-3.15-.68-6.4-.71-9.57-.18l-.53.09c-1.54 1.54-2.27 3.78-2.25 5.97.02 3.43 1.79 6.51 3.56 9.34Zm4.37-3.24v.02-.02ZM47 15.92s.07.08.11.11l-.16.09c.03-.07.04-.13.05-.2Zm-8.08-2.83c.43.04.8.2 1.12.44-.36-.2-.74-.35-1.12-.44Zm.1-2.06.06.03a7.14 7.14 0 0 0-2.3-.26c.77-.08 1.51.02 2.24.23Zm-4.85 12.69c-.05.04-.11.07-.16.11-.06-.09-.11-.18-.17-.28.11.1.22.16.33.17Zm-.99-13.14c-.09.11-.18.23-.27.35-.27.24-.52.5-.76.77.28-.42.62-.8 1.02-1.12ZM35.31 75.63c.32-.17.64-.34.95-.51.09-.05.16-.11.22-.18.41-.26.82-.52 1.21-.8.11-.07.22-.13.33-.2.19-.11.3-.26.35-.42.18-.21.24-.5.02-.8-.72-.99-1.46-2-1.99-3.11-.49-1.04-1.13-2.89 0-3.75 2.23-1.69 4.8 2.51 5.65 4.01.16.28.41.38.66.36.21.17.5.23.81.06 1.36-.76 2.71-1.51 4.07-2.27.4-.22.44-.62.28-.94.14-.26.17-.6-.07-.89-2.03-2.53-4.26-5.11-7.28-6.48-2.52-1.14-5.63-1.36-8.11.02-2.52 1.4-3.69 4.26-3.67 7.04.02 2.91 1.3 5.57 2.76 8.03.98.46 1.97.88 2.99 1.24l.39-.21c.14-.07.28-.15.42-.23Zm1.37-2.73v.02-.02Zm9.57-5.98s.07.08.11.11l-.16.09c.03-.07.04-.13.05-.2Zm-8.08-2.83c.43.04.8.2 1.12.44-.36-.2-.74-.35-1.12-.44Zm.1-2.06.06.03a7.14 7.14 0 0 0-2.3-.26c.77-.08 1.51.02 2.24.23Zm-6.11-.1c-.27.24-.52.5-.76.77.28-.42.62-.8 1.02-1.12-.09.11-.18.23-.27.35Zm1.1 12.89c-.06-.09-.11-.18-.17-.28.11.1.22.16.33.17l-.16.11ZM12.6 39.75c.19.09.42.1.66-.02.09-.04.18-.09.27-.13.11 0 .23-.02.36-.08.01 0 .02-.01.04-.02.05-.02.11-.04.16-.07l.57-.3c.14-.07.28-.15.42-.23.32-.17.64-.34.95-.51.09-.05.16-.11.22-.18.41-.26.82-.52 1.21-.8.11-.07.22-.13.33-.2.19-.11.3-.26.35-.42.18-.21.24-.5.02-.8-.72-.99-1.46-2-1.99-3.11-.49-1.04-1.13-2.89 0-3.75 2.23-1.69 4.8 2.51 5.65 4.01.16.28.41.38.66.36.21.17.5.23.81.06 1.36-.76 2.71-1.51 4.07-2.27.4-.22.44-.62.28-.94.14-.26.17-.6-.07-.89-2.03-2.53-4.26-5.11-7.28-6.48-2.36-1.07-5.23-1.33-7.62-.23-1.83 2.88-3.13 6.07-3.94 9.39.53 2.61 1.93 5 3.33 7.24.13.21.32.32.51.34Zm3.85-3.58v.02-.02Zm9.57-5.98s.07.08.11.11c-.05.03-.11.06-.16.09.03-.07.04-.13.05-.2Zm-8.08-2.83c.43.04.8.2 1.12.44-.36-.2-.74-.35-1.12-.44Zm.1-2.06.06.03a7.14 7.14 0 0 0-2.3-.26c.77-.08 1.51.02 2.24.23Zm-4.85 12.69c-.05.04-.11.07-.16.11-.06-.09-.11-.18-.17-.28.11.1.22.16.34.17Zm-2.02-12.01c.28-.42.62-.8 1.02-1.12-.09.11-.18.23-.27.35-.27.24-.52.5-.76.77ZM14.09 59.55c-.49-1.04-1.13-2.89 0-3.75 2.23-1.69 4.8 2.51 5.65 4.01.16.28.41.38.66.36.21.17.5.23.81.06 1.36-.76 2.71-1.51 4.07-2.27.4-.22.44-.62.28-.94.14-.26.17-.6-.07-.89-2.03-2.53-4.26-5.11-7.28-6.48-2.52-1.14-5.63-1.36-8.11.02-.32.18-.62.38-.89.6.15.53.31 1.06.49 1.59.13-.13.26-.26.4-.37-.09.11-.18.23-.27.35-.04.03-.07.07-.11.1.59 1.77 1.33 3.49 2.24 5.11 1.19 2.12 2.65 4.08 4.24 5.92a.659.659 0 0 0-.13-.32c-.72-.99-1.46-2-1.99-3.11Zm9.84-2.71s.07.08.11.11c-.05.03-.11.06-.16.09.03-.07.04-.13.05-.2Zm-8.08-2.83c.43.04.8.2 1.12.44-.36-.2-.74-.35-1.12-.44Zm.1-2.06.06.03a7.14 7.14 0 0 0-2.3-.26c.77-.08 1.51.02 2.24.23Z"/></g><path class="cls-21" d="M44 78.34c2 5.19 4.02 10.37 6.07 15.54 1.91 4.84 3.84 9.68 5.78 14.51 1.95 4.86 3.92 9.71 5.88 14.56 2.09 5.15 4.18 10.31 6.29 15.45 2.08 5.08 4.26 10.15 7.07 14.88.35.59.71 1.17 1.08 1.75.45.71 1.59.05 1.14-.66-2.94-4.6-5.22-9.58-7.31-14.61-2.14-5.14-4.21-10.31-6.31-15.47-1.97-4.85-3.94-9.71-5.9-14.57a2197.074 2197.074 0 0 1-11.73-29.68c-.26-.68-.53-1.36-.79-2.04-.13-.33-.44-.56-.81-.46-.32.09-.59.48-.46.81Z" id="Balloon_wire1"/><g id="Turmeric_balloon"><path class="cls-2" d="M71.2 82.47c-.48.62-.82 1.34-1.01 2.09-.05.21.02.44.2.58.16.13.43.17.61.04.56-.38.97-.91 1.2-1.55h-1.06l.32 1.4c.06.27.41.49.67.38a1.587 1.587 0 0 0 1.04-1.49l-1.08.14c.21.61.81.94 1.44.83.28-.05.47-.41.38-.67-.1-.3-.37-.44-.67-.38.15-.03.04 0 0 0h.04l-.1-.03c.04 0 .1.05.02 0-.01 0-.02-.01-.03-.02-.03-.02-.02-.01.04.03l-.06-.06c-.04-.04.05.1.01.01-.02-.04-.05-.14 0 0-.09-.26-.32-.43-.6-.39-.26.04-.48.26-.48.54V84v-.03c.01.01-.02.1-.03.11 0 .02-.01.04-.02.05-.01.04 0 .02.02-.04 0 .03-.05.09-.07.12-.07.12.06-.05-.02.03l-.08.08c-.08.08.08-.04-.01 0-.03.02-.18.09-.04.03l.67.38-.32-1.4a.558.558 0 0 0-.53-.4c-.25.01-.44.16-.53.4 0 .03-.02.05-.03.08-.05.12.04-.07 0 0-.03.05-.05.1-.07.15-.03.05-.06.11-.09.16-.02.02-.03.05-.05.07 0 .01-.08.11-.03.04.04-.06-.01.02-.02.02-.02.02-.04.04-.05.06-.04.05-.09.09-.13.13-.04.04-.08.07-.12.11-.1.09.06-.04 0 0l-.09.06.8.62c.04-.18.1-.35.16-.53.02-.04.03-.09.05-.13 0-.01.05-.13.02-.06-.03.07.03-.07.04-.08l.06-.12c.16-.32.35-.63.57-.91.08-.11.09-.3.05-.42-.04-.13-.13-.27-.25-.33-.29-.15-.56-.05-.75.2h-.01Z"/><path class="cls-3" d="M91.81 39.27c-1.87-5.24-5.07-10.06-9.5-13.48-2.17-1.67-4.62-2.97-7.25-3.78-2.77-.85-5.72-1.14-8.6-.88-5.86.51-11.48 3.09-15.77 7.11-4.52 4.23-7.31 10.06-8.26 16.15-.49 3.12-.52 6.3-.11 9.43.39 2.9 1.11 5.8 2.33 8.47 1.05 2.31 2.45 4.45 4 6.45a45.39 45.39 0 0 0 5.76 6.16c2.13 1.89 4.44 3.6 6.93 5 2.3 1.28 4.78 2.33 7.37 2.82.46.09.92.16 1.39.21-.5.78-.95 1.59-1.37 2.42-.15.3.02.82.44.76 1.85-.25 3.69-.54 5.53-.89.41-.08.44-.58.22-.85-.51-.63-1.08-1.21-1.69-1.73 5.09-2.41 9.49-6.14 12.91-10.61 3.54-4.64 6-10.15 7.03-15.9 1-5.64.58-11.45-1.35-16.85ZM71.39 83.38c-.09.03-.18.06-.26.11-.12.06-.22.13-.32.21.14-.23.29-.46.44-.69h.18c-.06.11-.08.24-.04.37Z"/><path class="cls-1" d="M71.25 83.01c-.15.23-.3.46-.44.69.1-.08.21-.15.32-.21.09-.04.17-.08.26-.11a.483.483 0 0 1 .04-.37h-.18ZM88.21 39.57c-2.68 2.03-5.34 4.21-6.63 7.42-1.19 2.96-1.02 6.54 1.4 8.84 2.54 2.41 6.73 1.59 9.78.79.11-.03.21-.05.32-.08.03-.14.05-.27.08-.41.4-2.25.57-4.52.51-6.78-.36.2-.73.41-1.09.62-1.67.96-3.16-1.61-1.5-2.57.78-.44 1.56-.88 2.34-1.31-.29-2.31-.83-4.6-1.62-6.81-.27-.76-.57-1.5-.9-2.24-.78.94-1.72 1.79-2.7 2.53ZM60.31 65.93a42.22 42.22 0 0 0 5-4.64c.88-.96 2.79-3.32.92-4.31-1.53-.82-3.7 0-5.11.7-1.9.95-3.55 2.28-5.18 3.63-1.75 1.45-3.52 2.88-5.35 4.24-.93.69-1.86 1.36-2.81 2.01.29.4.58.79.88 1.18a45.8 45.8 0 0 0 3.16 3.66c.87-.81 1.78-1.58 2.74-2.31 1.89-1.43 3.9-2.69 5.75-4.15ZM48.91 32.73c2.67-.44 5.2-1.53 7.42-3.06 2.88-1.97 5.08-4.77 6.42-7.93a27.013 27.013 0 0 0-12.07 6.5 25.748 25.748 0 0 0-3.89 4.64c.71.02 1.42-.04 2.11-.15Z"/><path class="cls-1" d="M63.32 75.69c2.88-1.88 6.5-2.74 9.91-2.53 1.76.11 3.62.46 5.37.09 1.52-.33 2.7-1.27 3.82-2.31 2.29-2.13 4.47-4.04 7.5-5.02.98-1.98 1.79-4.05 2.4-6.18-.93.21-1.86.38-2.83.48-3.49.38-6.99-.21-9.32-3.06-2.25-2.75-2.79-6.4-1.85-9.79.93-3.39 3.21-6.26 5.89-8.46 1.38-1.13 2.92-2.08 4.16-3.37.38-.4.77-.9 1.05-1.46-1.82-3.19-4.2-6.05-7.12-8.3-1.58-1.21-3.3-2.23-5.13-3.01-.34 3.78-1.63 7.47-3.6 10.72-4.37 7.2-11.45 11.49-18.76 15.22-4.03 2.05-8.76 4.55-11.96 8.11.42 1.87 1 3.71 1.79 5.45.44.96.94 1.89 1.48 2.8.11-.08.23-.16.34-.23 2.27-1.57 4.46-3.24 6.58-5 3.3-2.73 7.1-6.14 11.67-6.15 2 0 4.06.84 4.88 2.77.96 2.25-.16 4.53-1.61 6.26-3.22 3.83-7.34 6.53-11.33 9.46-.96.7-1.86 1.46-2.72 2.26.16.14.32.29.48.43 1.78 1.58 3.69 3.03 5.73 4.29.8-1.38 1.82-2.59 3.19-3.49Z"/><path class="cls-1" d="M74.26 21.78a22.77 22.77 0 0 0-7.8-.65l-.34.03c-1.5 4.55-4.46 8.54-8.55 11.25-3.3 2.19-8.19 3.99-12.41 3.33a29.713 29.713 0 0 0-2.73 8.64c-.46 2.94-.51 5.93-.17 8.88 5.98-5.64 14.2-7.93 20.76-12.75 6.06-4.46 10.84-11.11 11.24-18.73ZM82.84 74.46c-2.75 2.06-5.78 1.95-9.05 1.7-3.18-.24-6.42.34-9.09 2.18-.83.57-1.48 1.35-2.01 2.25 1.91.96 3.93 1.71 6.03 2.11.46.09.92.16 1.39.21-.5.78-.95 1.59-1.37 2.42-.15.3.02.82.44.76 1.85-.25 3.69-.54 5.53-.89.41-.08.44-.58.22-.85-.51-.63-1.08-1.21-1.69-1.73 5.09-2.41 9.49-6.14 12.91-10.61.3-.39.58-.78.86-1.18-1.42 1.15-2.67 2.5-4.16 3.62ZM71.4 83.38c-.09.03-.18.06-.26.11-.12.06-.22.13-.32.21.14-.23.29-.46.44-.69h.18c-.06.11-.08.24-.04.37Z"/><path class="cls-8" d="M64.69 78.35c2.68-1.83 5.92-2.42 9.09-2.18 3.26.25 6.3.36 9.05-1.7 1.49-1.12 2.74-2.47 4.16-3.62 1.1-1.56 2.08-3.21 2.93-4.93-3.02.98-5.2 2.89-7.5 5.02-1.12 1.04-2.29 1.98-3.82 2.31-1.75.38-3.61.02-5.37-.09-3.41-.21-7.03.65-9.91 2.53-1.37.89-2.39 2.11-3.19 3.49.4.24.8.48 1.2.71.44.25.89.48 1.34.71.53-.9 1.18-1.68 2.01-2.25ZM84.21 38.91c-2.68 2.2-4.96 5.07-5.89 8.46-.94 3.39-.4 7.04 1.85 9.79C82.5 60 86 60.6 89.49 60.22c.96-.11 1.9-.28 2.83-.48.3-1.06.56-2.13.76-3.2-.11.03-.21.06-.32.08-3.05.8-7.24 1.62-9.78-.79-2.42-2.29-2.6-5.87-1.4-8.84 1.29-3.21 3.96-5.39 6.63-7.42.98-.74 1.93-1.59 2.7-2.53a30.18 30.18 0 0 0-1.49-2.95c-.29.55-.67 1.06-1.05 1.46-1.24 1.29-2.78 2.24-4.16 3.37Z"/><path class="cls-8" d="M92.58 49.96c.36-.21.73-.41 1.09-.62-.03-1.09-.11-2.18-.25-3.26-.78.43-1.57.86-2.34 1.31-1.66.95-.16 3.52 1.5 2.57ZM54.82 48.72c7.31-3.73 14.39-8.02 18.76-15.22 1.97-3.25 3.26-6.93 3.6-10.72-.69-.29-1.4-.55-2.11-.77-.27-.08-.53-.16-.8-.23-.41 7.62-5.18 14.27-11.24 18.73-6.56 4.83-14.78 7.11-20.76 12.75l.06.55c.13 1.01.31 2.02.54 3.02 3.2-3.56 7.93-6.06 11.96-8.11ZM67.99 62.74c1.45-1.73 2.57-4.01 1.61-6.26-.82-1.93-2.88-2.77-4.88-2.77-4.57 0-8.36 3.41-11.67 6.15a99.882 99.882 0 0 1-6.58 5c-.11.08-.23.16-.34.23.51.85 1.06 1.67 1.64 2.48.95-.66 1.89-1.33 2.81-2.01 1.83-1.36 3.6-2.78 5.35-4.24 1.63-1.35 3.28-2.68 5.18-3.63 1.41-.71 3.58-1.52 5.11-.7 1.87.99-.05 3.36-.92 4.31a42.22 42.22 0 0 1-5 4.64c-1.86 1.47-3.87 2.72-5.75 4.15-.96.72-1.87 1.49-2.74 2.31.68.71 1.39 1.4 2.12 2.07.86-.8 1.77-1.55 2.72-2.26 3.99-2.93 8.11-5.63 11.33-9.46ZM57.57 32.42c4.09-2.71 7.05-6.7 8.55-11.25-1.13.12-2.26.31-3.36.57-1.34 3.17-3.55 5.96-6.42 7.93-2.22 1.52-4.76 2.62-7.42 3.06-.68.11-1.4.17-2.11.15-.6.92-1.15 1.88-1.65 2.87 4.22.67 9.11-1.14 12.41-3.33Z"/></g><path class="cls-21" d="M78.06 155.11c-.67-4.92-1.29-9.85-1.83-14.79-.49-4.42-.92-8.85-1.29-13.29-.35-4.25-.65-8.5-.91-12.75-.27-4.4-.5-8.81-.71-13.22-.24-4.92-.46-9.84-.7-14.76l-.09-1.95c-.04-.84-1.35-.85-1.31 0 .24 5 .46 10.01.71 15.01.21 4.47.44 8.94.71 13.4.25 4.27.54 8.54.89 12.81.35 4.42.77 8.83 1.24 13.24a549.196 549.196 0 0 0 2.05 16.65c.05.35.5.54.81.46.38-.11.51-.46.46-.81Z" id="Balloon_wire2"/><g id="Layer_10"><path d="M58.51 64.36c3.53-5.46 5.77-11.75 6.43-18.22a36.5 36.5 0 0 0-2.96-18.5c-.75-1.67-1.63-3.3-2.63-4.84-3.2 1.24-6.16 3.09-8.66 5.44-4.52 4.23-7.31 10.06-8.26 16.15-.49 3.12-.52 6.3-.11 9.43.39 2.9 1.11 5.8 2.33 8.47 1.05 2.31 2.45 4.45 4 6.45.97 1.25 2.01 2.45 3.1 3.59 2.58-2.35 4.86-5.04 6.76-7.97Z" style="fill:#cc9e40"/><path class="cls-1" d="M58.51 64.36c3.53-5.46 5.77-11.75 6.43-18.22a36.5 36.5 0 0 0-2.96-18.5c-.75-1.67-1.63-3.3-2.63-4.84-3.2 1.24-6.16 3.09-8.66 5.44-4.52 4.23-7.31 10.06-8.26 16.15-.49 3.12-.52 6.3-.11 9.43.39 2.9 1.11 5.8 2.33 8.47 1.05 2.31 2.45 4.45 4 6.45.97 1.25 2.01 2.45 3.1 3.59 2.58-2.35 4.86-5.04 6.76-7.97Z"/><path class="cls-1" d="M42.89 56.85c.42 1.87 1 3.71 1.79 5.45.44.96.94 1.89 1.48 2.8.11-.08.23-.16.34-.23 2.27-1.57 4.46-3.24 6.58-5 2.98-2.47 6.36-5.48 10.34-6.05.76-2.5 1.28-5.07 1.54-7.67.12-1.2.18-2.4.19-3.6-3.19 2.38-6.72 4.35-10.31 6.18-4.03 2.05-8.76 4.55-11.96 8.11ZM55.97 61.32c-1.75 1.45-3.52 2.88-5.35 4.24-.93.69-1.86 1.36-2.81 2.01.29.4.58.79.88 1.18.97 1.25 2.01 2.45 3.1 3.59 2.58-2.35 4.86-5.04 6.76-7.97a41.92 41.92 0 0 0 3.7-7.17c-.39.15-.76.32-1.09.49-1.9.95-3.55 2.28-5.18 3.63ZM57.6 32.43c-3.3 2.19-8.19 3.99-12.41 3.33a29.713 29.713 0 0 0-2.73 8.64c-.46 2.94-.51 5.93-.17 8.88 5.98-5.64 14.2-7.93 20.76-12.75.67-.49 1.31-1.01 1.95-1.55-.35-3.69-1.28-7.31-2.74-10.74-1.32 1.6-2.89 3.02-4.66 4.2ZM48.94 32.74c2.67-.44 5.2-1.53 7.42-3.06 1.75-1.2 3.26-2.71 4.47-4.42-.45-.83-.93-1.65-1.45-2.45-3.2 1.24-6.16 3.09-8.66 5.44a25.748 25.748 0 0 0-3.89 4.64c.71.02 1.42-.04 2.11-.15Z"/><path class="cls-3" d="m42.29 53.28.06.55c.13 1.01.31 2.02.54 3.02 3.2-3.56 7.93-6.06 11.96-8.11 3.59-1.83 7.13-3.8 10.31-6.18 0-1.19-.05-2.39-.17-3.57-.63.54-1.28 1.06-1.95 1.55-6.56 4.83-14.78 7.11-20.76 12.75ZM46.51 64.86c-.11.08-.23.16-.34.23.51.85 1.06 1.67 1.64 2.48.95-.66 1.89-1.33 2.81-2.01 1.83-1.36 3.6-2.78 5.35-4.24 1.63-1.35 3.28-2.68 5.18-3.63.33-.16.7-.33 1.09-.49.44-1.11.84-2.24 1.19-3.39-3.98.57-7.36 3.58-10.34 6.05a99.882 99.882 0 0 1-6.58 5ZM56.37 29.68c-2.22 1.52-4.76 2.62-7.42 3.06-.68.11-1.4.17-2.11.15-.6.92-1.15 1.88-1.65 2.87 4.22.67 9.11-1.14 12.41-3.33 1.77-1.18 3.34-2.6 4.66-4.2-.08-.2-.16-.39-.25-.58-.36-.81-.76-1.61-1.18-2.39a17.718 17.718 0 0 1-4.47 4.42Z"/></g><g id="Confetti"><path class="cls-2" d="M117.99 54.76c-1.4-.12-2.36-1.67-1.71-2.94.92-1.79 2.85-.95 4.42-.98 3.64-.05 5.64-3.9 4.24-7.09-.33-.74-.8-1.42-1.39-1.98-.62-.59-1.51-1.01-1.49-1.98.04-2.07 2.52-1.77 3.87-1.65 3.12.27 5.84-1.93 6.01-5.14.1-1.83-.9-3.19-2.07-4.48-.98-1.07-1.98-2.73-.39-3.85 1.45-1.02.07-3.42-1.4-2.39-1.46 1.03-2.33 2.6-2.2 4.38.15 1.97 1.53 3.07 2.66 4.52.89 1.14.8 2.61-.28 3.62-1.41 1.3-3.66.15-5.38.59s-3.24 1.9-3.53 3.73a4.3 4.3 0 0 0 .36 2.57c.49 1 1.4 1.49 2.12 2.29 1.05 1.16 1.24 3.53-.62 4.03-1 .27-2.14-.18-3.16-.16-.93.03-1.83.3-2.59.83-1.66 1.16-2.59 3.28-2.01 5.27s2.44 3.39 4.53 3.57c1.77.15 1.77-2.62 0-2.77Z"/><path class="cls-15" d="M164.34 46.63a.898.898 0 0 0-.21-.31.924.924 0 0 0-.15-.36 43.968 43.968 0 0 0-5.32-6.24c-.21-.21-.53-.24-.8-.15-.3.03-.59.2-.71.48a29.143 29.143 0 0 1-6.94 10.34c-.13.13-.19.3-.2.48-.16.35-.08.75.22 1.03.32.29.63.59.94.89.15.15.3.31.45.46l.05.05s.05.06.06.07c.08.08.15.17.23.25.58.64 1.12 1.31 1.63 2.01.27.36.83.49 1.2.2h.01c.43.15.85-.06 1.07-.44a19.12 19.12 0 0 1 7.96-7.65c.41-.21.68-.64.5-1.11Z"/><path class="cls-13" d="M97.26 25.9c-1.14-1.66-2.93-2.85-4.96-2.97-.35-.02-.65.31-.66.65-.34 1.22-.67 2.43-1.01 3.65-.05.2 0 .42.12.58.03.3.24.58.63.57.28 0 .5.05.75.19.21.12.41.3.55.49.35.49.43 1.06.28 1.63-.16.58-.52 1.12-1.03 1.48-.64.45-1.4.41-2.15.34a.542.542 0 0 0-.43.16c-.19.07-.34.23-.42.44-.44 1.25-.89 2.51-1.33 3.76-.03.09-.03.18-.02.28 0 .29.2.54.48.64 3.03 1.08 6.74.06 8.76-2.45 2.12-2.63 2.34-6.64.42-9.44Z"/><path class="cls-3" d="M188.43 72.2s-.03-.08-.05-.12c-.04-.29-.14-.59-.22-.82-.37-1.08-.82-2.16-1.4-3.14-1.16-1.94-2.87-3.49-5.06-4.15-2.06-.62-4.32-.44-6.27.46-1.92.89-3.33 2.55-4.1 4.5-.85 2.17-.77 4.63.2 6.74.08.18.24.3.43.35.19.13.43.19.67.11l4.72-1.47c.41-.13.72-.58.58-1.02a.663.663 0 0 0-.09-.19c-.02-.07-.04-.15-.06-.23 0-.03-.01-.05-.02-.06v-.39s.02-.14.02-.16c.03-.17.08-.34.14-.5l.1-.21c.04-.07.08-.15.13-.22.35-.55.9-.96 1.58-1.09.02 0 .15-.02.17-.02h.43s.02 0 .06.02c.12.03.23.05.35.09.22.07.26.09.47.2.17.09.35.21.44.28.34.28.55.53.75.88.19.34.3.65.36 1.1.03.22.18.39.37.49.2.17.47.22.76.18 1.23-.18 2.46-.37 3.69-.55.06 0 .13-.01.19-.03h.08c.43-.08.71-.64.58-1.03Z"/><path class="cls-2" d="M26.91 86.12a.526.526 0 0 0-.31-.37.588.588 0 0 0-.52-.3c-1.45.05-2.89.23-4.31.52-.15.03-.27.13-.35.27-.13.15-.18.35-.13.56.05.21.09.42.12.63v.03c0 .05.01.11.02.17v.48c-.02.11-.05.2-.08.3v.01c-.03.05-.05.1-.08.14 0 .02-.05.06-.06.08l-.07.07-.03.03c-.03.02-.07.04-.1.06 0 0-.02.01-.03.02-.04 0-.08.04-.12.04-.05.01-.1.02-.14.04s-.09 0-.13 0c-.04 0-.12-.02-.16-.01h-.02c-.05-.01-.1-.02-.15-.04 0 0-.04-.01-.06-.02h-.02c-.03-.02-.06-.03-.1-.05-.04-.02-.08-.05-.11-.07l-.02-.01c-.08-.08-.15-.15-.22-.23l-.01-.01c-.01-.02-.02-.04-.03-.05a.638.638 0 0 1-.08-.14c-.03-.05-.07-.11-.08-.16 0 0 .04.11.02.04l-.03-.09c-.04-.11-.07-.22-.09-.34v-.05c0-.07 0-.13-.01-.2 0-.25-.17-.49-.41-.57-.15-.14-.37-.19-.59-.16-1.39.22-2.78.48-4.15.77-.21.05-.37.23-.42.44a.62.62 0 0 0-.09.3c-.24 2.97 1.95 5.84 4.84 6.49 3.02.67 6.21-.83 7.63-3.58.8-1.55 1.05-3.32.73-5.03Zm-5.51 1.25v.04-.04Zm-1.22 1.45s.02 0 0 0Zm-.26-.14-.03-.02s.01.01.03.02Zm-.19-.19s-.02-.02-.03-.04c.01.02.03.04.03.04Z"/></g><path class="cls-13" d="M156.85 103.04c-4.32-.6-8.64-1.22-12.95-1.84-1-.14-2-.29-3-.43.02-.1.03-.2.03-.31.07-4.88-.31-9.85-1.84-14.51-.75-2.27-1.71-4.54-3.07-6.51a20.573 20.573 0 0 0-4.79-4.93c-3.53-2.59-8.15-3.8-12.42-2.57s-7.65 4.52-9.68 8.35c-2.38 4.48-2.99 9.64-3.16 14.64l-.03 1.19c-3.93-.45-7.87-.86-11.81-1.24-.57-.05-1.14-.11-1.71-.16-.35-.03-.66.33-.66.66 0 .04 0 .08.01.12-2.27.42-9.8 1.84-11.39 2.2-1.87.42-9.59 2.5-9.6 2.76s5.49 1 5.49 1 17.11 2.45 19.64 2.8 38.14 4.51 38.14 4.51l20.37-4.75.41.06c.55.08 1.1.15 1.65.23.35.05.71-.09.81-.46.09-.31-.11-.76-.46-.81Zm-25.14-3.58c-4.01-.57-8.02-1.12-12.03-1.64-3.41-.45-6.83-.87-10.24-1.28.05-2.23.15-4.47.43-6.68.32-2.25.84-4.46 1.7-6.56.56-1.28 1.27-2.49 2.1-3.6.75-.94 1.59-1.79 2.52-2.54.74-.55 1.53-1.03 2.38-1.41.83-.34 1.69-.58 2.57-.71.84-.09 1.68-.08 2.51.01.99.16 1.95.43 2.88.8 1.1.49 2.13 1.1 3.09 1.82 1.08.86 2.05 1.84 2.91 2.92.97 1.3 1.73 2.71 2.38 4.19 1.05 2.54 1.73 5.22 2.12 7.94.32 2.51.41 5.03.39 7.55l-5.71-.81Z"/><path class="cls-4" d="M93.08 95.36s0-.09-.02-.13c-.1-.37-.46-.52-.81-.46-5.82.97-11.6 2.11-17.31 3.63-1.77.47-3.54.96-5.3 1.47-.81.23-.47 1.5.35 1.27.58-.17 1.15-.33 1.73-.49l7.18 1.3 12.93 1.92c.24.57 1.26.49 1.26-.26v-8.12s0-.08-.01-.12Z"/><path d="M161.43 179.16c-.26-4.94-.53-9.88-.8-14.82-.27-4.94-.53-9.72-.8-14.59s-.53-9.6-.8-14.41c-.27-4.8-.53-9.66-.8-14.49-.27-4.95-.54-9.89-.8-14.84-.03-.62-.07-1.24-.1-1.86 0-.09-.03-.16-.05-.23.05-.14.07-.28.03-.41-.1-.37-.46-.52-.81-.46-5.82.97-11.6 2.11-17.31 3.63-1.77.47-3.54.96-5.3 1.47-.75.21-.51 1.3.16 1.29l-.55 30.81-.5 31.9s.08 11.04-.01 13.94c-.07.01-.14.02-.22.04-.35.05-.55.5-.46.81.1.37.46.51.81.46 3.9-.6 7.75-1.49 11.56-2.53 3.8-1.05 7.2-2.13 10.77-3.29 1.83-.6 3.66-1.2 5.49-1.78.03-.01.07-.03.1-.04.23-.08.41-.27.39-.59Z" style="fill:#e5a355"/><path d="m133.97 107.97-12.9-1.35-.31-.03v-.11c.07-4.88-.31-9.85-1.84-14.51-.75-2.27-1.71-4.54-3.07-6.51a20.573 20.573 0 0 0-4.79-4.93c-3.53-2.59-8.15-3.8-12.42-2.57-4.28 1.23-7.65 4.52-9.68 8.35-2.38 4.48-2.99 9.64-3.16 14.64-.02.47-.03.94-.04 1.41-.46-.07-.91-.13-1.37-.2-4.28-.62-8.54-1.29-12.8-2-.49-.08-.99-.17-1.48-.25a.62.62 0 0 0-.32-.09c-.39 0-.61.3-.66.66-.64 5.16-1.29 10.31-1.93 15.47-.59 4.72-1.16 9.43-1.71 14.15a790.423 790.423 0 0 0-2.82 28.44c-.43 5.4-.81 10.81-1.13 16.22-.04.73-.09 1.45-.13 2.18-.01.25.09.43.25.53.07.05.15.09.24.11 4.52.76 9.04 1.5 13.56 2.21 4.52.71 9.34 1.44 14.01 2.12 4.71.68 9.42 1.34 14.14 1.97a1095.346 1095.346 0 0 0 27.79 3.35c.55.06 1.1.12 1.65.17.16.02.31-.05.43-.16.12-.09.2-.23.22-.41v-.12c-.09-5.75-.13-11.51-.1-17.26.03-5.07.11-10.15.22-15.22.11-4.7.24-9.41.37-14.11.13-4.74.26-9.48.35-14.21.1-5.09.16-10.19.16-15.28v-2.04c0-.46-.39-.67-.74-.63Zm-44.7-5.22c.04-2.3.14-4.6.43-6.88.32-2.25.84-4.46 1.7-6.56.56-1.28 1.27-2.48 2.1-3.6.75-.94 1.59-1.79 2.52-2.54.74-.55 1.53-1.03 2.38-1.41.83-.34 1.69-.58 2.57-.71.84-.09 1.68-.08 2.51.01.99.16 1.95.43 2.88.8 1.1.49 2.13 1.1 3.09 1.82 1.08.86 2.05 1.84 2.91 2.92.97 1.3 1.73 2.71 2.38 4.19 1.05 2.54 1.73 5.22 2.12 7.94.32 2.48.41 4.98.39 7.48-2.84-.31-5.69-.61-8.53-.94-4.05-.46-8.11-.94-12.15-1.45-2.43-.31-4.88-.63-7.32-.97v-.1Z" style="fill:#fbae5e"/><path class="cls-1" d="M131.74 186.06c-.16.46-.5.83-.93 1.04 2.66.16 2.54-.47 2.7-2.79.06-.9.14-3.83.24-7.95-.69 4.12-1.41 7.84-2.01 9.7ZM105.48 173.19c.05-.35.26-.64.55-.8 1.61-.92 2.75-2.6 2.92-4.59v-.25c.34-7.3.89-15.61 1.83-22.13v-.09a1.086 1.086 0 0 0-2.16-.23c-.64 4.47-1.11 9.78-1.45 15.05-.05.71-.66 1.24-1.37 1.19s-1.24-.66-1.2-1.37c.34-5.23.8-10.51 1.43-14.96v-.09a1.086 1.086 0 0 0-2.16-.23c-.65 4.49-1.12 9.83-1.46 15.12a1.287 1.287 0 1 1-2.57-.17c.34-5.25.8-10.56 1.44-15.04v-.09a1.086 1.086 0 0 0-2.16-.23c-.97 6.71-1.54 15.34-1.87 22.82-.06 2.01.9 3.83 2.44 4.93.3.22.48.57.47.96 0 .11 0 .26-.01.37-.13 3.96-.21 7.75-.24 9.87 1.82.25 3.64.5 5.44.73-.02-.88-.05-2.33-.08-4.25-.05-5.46.18-6.56.18-6.56ZM123.26 186.16s.89-5.98 1.85-13.62c1.13-9 2.39-20.54 2.33-27.4 0-.37-.05-.53-.05-.53-.13-.44-.52-.77-1-.82-.25-.02-.49.04-.69.16 0 0-.14.07-.37.27 0 0-7.74 6.7-11.03 28.21 0 0-.05.3 0 .58.09.46.41.85.99 1l3.67.82c.32.08.55.34.53.67 0 0-.47 3.63-1.71 10.06v.02c1.37.17 2.63.32 3.72.44.62.07 1.21.14 1.77.2v-.08Z"/><path class="cls-1" d="M88.09 154.53a1.86 1.86 0 0 0-1.22-1.69l-5.31-1.48a1.861 1.861 0 0 1-1.25-1.91c.02-.28.11-.55.24-.78.48-1 12.34-18.93 32.01-28.94.81-.45 1.75-.67 2.75-.59 1 .08 1.89.46 2.62 1.03 3.84 2.84 7.27 5.98 10.27 9.17s.03.02.04.02c.04 0 .07-.02.07-.06l.16-1.88a1.152 1.152 0 0 1 1.38-1.03l4.65.96v-.8c.09-14.54 0-17.39 0-17.39s-33.45-3.14-49.03 12.64c-15.58 15.77-9.6 58.11-9.6 58.11s5.14.74 12.14 1.71c-.66-6.63.02-26.18.05-27.09Z"/><path class="cls-6" d="M133.77 175.27c.29-13.15.66-36.78.75-47.93l-4.65-.96s-.09-.02-.14-.02c-.63-.05-1.19.42-1.24 1.05l-.16 1.88s-.04.07-.07.06c-.02 0-.03 0-.04-.02-3.01-3.19-6.43-6.33-10.27-9.17-.73-.58-1.62-.95-2.62-1.03-1-.08-1.94.14-2.75.59-19.67 10.01-31.53 27.94-32.01 28.94-.13.23-.22.49-.24.78-.07.87.46 1.64 1.25 1.91l5.31 1.48c.7.26 1.2.92 1.22 1.69-.03.91-.71 20.46-.05 27.09 3.62.51 7.74 1.08 11.9 1.64.04-2.12.11-5.91.24-9.87 0-.11 0-.25.01-.37.01-.39-.17-.75-.47-.96a5.845 5.845 0 0 1-2.44-4.93c.33-7.48.9-16.11 1.87-22.82a1.086 1.086 0 0 1 2.16.23v.09c-.64 4.47-1.1 9.78-1.44 15.04a1.287 1.287 0 1 0 2.57.17c.34-5.29.81-10.63 1.46-15.12a1.086 1.086 0 0 1 2.16.23v.09c-.63 4.45-1.1 9.73-1.43 14.95-.04.71.49 1.32 1.2 1.37.71.05 1.32-.49 1.37-1.19.34-5.26.81-10.58 1.45-15.05a1.086 1.086 0 0 1 2.16.23v.09c-.93 6.52-1.49 14.83-1.83 22.13v.25a5.823 5.823 0 0 1-2.92 4.59c-.29.17-.5.45-.55.8 0 0-.23 1.11-.18 6.56.03 1.92.06 3.37.08 4.25 4.52.6 8.85 1.17 12.38 1.6v-.02c1.24-6.43 1.71-10.06 1.71-10.06.03-.33-.2-.59-.53-.67l-3.67-.82c-.58-.15-.9-.54-.99-1-.05-.28 0-.58 0-.58 3.3-21.51 11.03-28.21 11.03-28.21.23-.2.37-.27.37-.27.2-.12.44-.18.69-.16.48.04.87.37 1 .82 0 0 .05.16.05.53.05 6.85-1.21 18.4-2.33 27.4-.96 7.64-1.85 13.62-1.85 13.62v.08c2.82.33 4.85.6 6.31.76 1.24.14 2.75.32 3.38.36.64.04.86-.21.82-1.71-.04-1.5 0-10.37 0-10.37Z"/><path class="cls-13" d="M185.4 167.71c-1.18-10.19-4.77-19.89-9.78-28.8-.27-1.06-.57-2.12-.84-3.19-.85-2.82-3-4.78-6.04-4.81-3.58-.03-6.14 2.53-6.69 6.01-.01.07-.01.13 0 .19-.09 1.08-.11 2.16-.2 3.23-3.48 9.75-4.63 20.17-4.84 30.46 0 .39.25.62.54.67.05.02.11.04.18.04 4.14.5 8.3.43 12.45 0 5-.43 9.92-1.56 14.69-3.12.02 0 .05-.02.07-.03.28-.06.5-.28.46-.66Z"/><path class="cls-1" d="M176.48 141.09c.02.38.03.9.08 1.41.02-.02.04-.03.07-.05.22-.17.43-.35.64-.53-.3-.59-.58-1.11-.81-1.54 0 .24 0 .48.02.71ZM170.66 154.57c-.07-.18-.11-.39-.07-.62.09-.65.03-1.5-.27-2.16l-.12.47c-.09.39-.17.8-.23 1.2-.13.9-.15 1.83-.1 2.74.02.38.03.9.08 1.41.02-.02.04-.03.07-.05.4-.31.78-.64 1.15-.98.28-.26.56-.53.83-.81-.63.18-1.32-.47-1.33-1.19ZM160.05 160.85c-.75.02-1.67 1.12-2.13 1.62-.13.14-.3.23-.48.28-.03.35-.05.7-.08 1.05.57-.4 1.14-.82 1.68-1.28.29-.25 2-1.69 1-1.67Z"/><path class="cls-1" d="M185.24 166.6s-.05.04-.08.06c-.54.42-1.19 1.07-1.92 1.06-1.65 0-1.62-2.92-1.7-4.06-.12-1.83-.04-4.12.74-5.8.2-.44.53-.81.91-1.06-.55-1.88-1.26-4.06-2.17-6.48-.86-2.32-1.85-4.51-2.73-6.35l-.42.33c-.54.42-1.19 1.07-1.92 1.06-1.65 0-1.62-2.92-1.7-4.06-.07-1.13-.07-2.44.13-3.68-1.12.22-3.29.59-5.92.82-3.88.33-6.34-.21-6.39 0-.17.79-.18 2.13-.18 2.13 1.61-.25 2.25 1.33 1.58 2.61-.78 1.49-2.03 2.88-3.23 4.05l-.45.42c-.53 2.17-1 4.36-1.3 5.93-.18.97-.36 2.31-.53 3.81.28.54.4 1.15.43 1.79.56-.33 1.17-.55 1.8-.57 1.48-.06 2.53 1.12 2.42 2.57-.12 1.72-1.83 2.88-3.06 3.84-.76.59-1.55 1.11-2.35 1.63-.05 1.02-.07 1.87-.07 2.45.04 2.8.04 2.52 2.07 2.64s9.12-.03 9.12-.03c.1 0 .22-.01.35-.02.15-1.34.34-2.79 1.11-3.94.71-1.05 2.14-1.74 2.95-.37.34.57.48 1.25.51 1.94.56-.33 1.17-.55 1.8-.57 1.17-.05 2.07.68 2.34 1.71.36-.07.69-.14.95-.2.95-.21 5.63-1.54 6.33-1.74.69-.2.69-.54.66-1.11-.01-.17-.05-.44-.1-.79Zm-8.86-12.86c-.78 1.49-2.03 2.88-3.23 4.05-.6.58-1.23 1.12-1.89 1.62-.54.42-1.19 1.07-1.92 1.06-1.65 0-1.62-2.92-1.7-4.06-.12-1.83-.04-4.12.74-5.8.59-1.27 2.18-1.99 3.28-.84.59.62.92 1.44 1.07 2.31.65-.47 1.36-.83 2.08-.94 1.61-.25 2.25 1.33 1.58 2.61Z"/><path class="cls-1" d="M183.77 163.46c.02.38.03.9.08 1.41.02-.02.04-.03.07-.05.32-.25.62-.51.92-.77-.05-.31-.1-.64-.15-.97-.11-.74-.32-1.82-.66-3.19-.06.28-.11.55-.15.83-.13.9-.15 1.83-.1 2.74Z"/><path class="cls-4" d="M174.81 151.13c-.72.11-1.43.47-2.08.94-.15-.87-.48-1.69-1.07-2.31-1.1-1.15-2.7-.43-3.28.84-.78 1.69-.85 3.98-.74 5.8.07 1.15.05 4.06 1.7 4.06.73 0 1.38-.65 1.92-1.06.66-.51 1.3-1.05 1.89-1.62 1.2-1.17 2.45-2.56 3.23-4.05.67-1.28.04-2.86-1.58-2.61Zm-3.64 5.45c-.37.34-.75.67-1.15.98-.02.02-.04.03-.07.05-.05-.5-.06-1.03-.08-1.41-.05-.91-.02-1.84.1-2.74.06-.4.14-.8.23-1.2l.12-.47c.3.66.36 1.51.27 2.16-.03.23 0 .44.07.62.01.73.7 1.37 1.33 1.19-.27.28-.55.55-.83.81ZM162.61 161.15c.1-1.45-.94-2.63-2.42-2.57-.63.03-1.24.25-1.8.57-.04-.64-.16-1.25-.43-1.79-.19 1.7-.37 3.59-.51 5.39.18-.04.34-.13.48-.28.45-.51 1.37-1.61 2.13-1.62 1-.02-.7 1.42-1 1.67-.54.46-1.1.88-1.68 1.28-.07 1.01-.13 1.97-.17 2.81.8-.51 1.59-1.03 2.35-1.63 1.23-.96 2.94-2.13 3.06-3.84ZM175.06 168.72c-.63.03-1.24.25-1.8.57-.04-.7-.18-1.37-.51-1.94-.81-1.37-2.24-.68-2.95.37-.77 1.14-.97 2.59-1.11 3.94 1.59-.11 5.22-.58 5.22-.58s-.19-.77.57-.85c.69-.07.87.6.87.6s1.1-.21 2.06-.4c-.27-1.03-1.17-1.76-2.34-1.71ZM163.47 143.16c.67-1.28.04-2.86-1.58-2.61-.57 1.22-1.39 4.12-2.11 7.07l.45-.42c1.2-1.17 2.45-2.56 3.23-4.05ZM182.28 157.86c-.78 1.69-.85 3.98-.74 5.8.07 1.15.05 4.06 1.7 4.06.73 0 1.38-.65 1.92-1.06.03-.02.05-.04.08-.06-.09-.63-.24-1.53-.41-2.56-.3.27-.6.53-.92.77-.02.02-.04.03-.07.05-.05-.5-.06-1.03-.08-1.41-.05-.91-.02-1.84.1-2.74.04-.28.09-.56.15-.83-.22-.91-.5-1.94-.84-3.09-.38.25-.71.62-.91 1.06ZM174.25 141.29c.07 1.15.05 4.06 1.7 4.06.73 0 1.38-.65 1.92-1.06l.42-.33c-.36-.75-.71-1.44-1.02-2.05-.21.18-.43.36-.64.53-.02.02-.04.03-.07.05-.05-.5-.06-1.03-.08-1.41-.01-.24-.02-.48-.02-.71-.51-.94-.83-1.49-.83-1.49l-.41-1.45s-.3.07-.83.17c-.2 1.23-.2 2.54-.13 3.68Z"/><g id="Ladys_leg2"><path class="cls-7" d="M174.62 170.93s.83 6.49 1.12 7.77 1.33 5.22 1.33 5.22-.77.9-.73 1.67 1.83 3.21 1.83 3.21 2.02 2.41 2.73 2.59 4.83.18 4.83.18-2.87-2.32-3.57-3.48c-.69-1.16-2.24-3.9-2.22-4.06s0-5.28 0-6.42-.19-7.7-.19-7.7l-5.13 1.04Z"/><path class="cls-21" d="M179.03 169.8c.27 4.69.26 9.36 0 14.05-.05.92 1.38.92 1.44 0 .26-4.69.27-9.36 0-14.05-.05-.92-1.49-.92-1.44 0ZM173.9 170.93c.4 4.49 1.21 8.86 2.48 13.18.26.88 1.64.51 1.38-.38a66.33 66.33 0 0 1-2.43-12.8c-.08-.91-1.52-.92-1.44 0Z"/><path class="cls-13" d="M186.48 190.82c-1.26-.93-2.69-1.78-3.65-3.04-.87-1.14-1.47-2.46-2.07-3.74-.15-.31-.41-.41-.66-.36-1.09-.08-2.19-.07-3.29-.05-.24-.03-.48.07-.62.36-.41.83-.77 1.66-.51 2.56v.01c.44 1.49.53 3.02.41 4.56-.07.92 1.36.92 1.44 0 .07-.83.07-1.66 0-2.48.36.37.67.77.96 1.18.03.09.07.18.15.27.06.08.14.15.22.23.51.69 1.05 1.34 1.86 1.76.12.13.28.21.51.21h4.86c.47 0 .7-.38.69-.75a.73.73 0 0 0-.3-.72Zm-2.41.03h-.11s.03-.03.04-.05c.02.02.04.03.06.05Zm-6.8-5.79c.8-.01 1.61 0 2.41.03.62 1.31 1.27 2.62 2.18 3.76.3.37.64.71 1 1.03-.48.28-1.56.13-1.91.05-.54-.12-.93-.43-1.28-.84-.24-.37-.48-.75-.75-1.07-.35-.42-.75-.73-1.16-1.07-.71-.6-.78-1.13-.48-1.89Z"/></g><g id="Ladys_leg1"><path class="cls-7" d="M161.99 171.74s.39 8.15.67 9.56c.28 1.41.68 3.25.56 3.49s-.93 1.61-.56 2.24 2.16 1.83 2.46 2.53 1.96 2.22 2.94 1.99c.98-.22 2.59.18 2.13-.45-.46-.62-2.35-2.83-2.73-3.73s-.72-2.18-.86-2.98c-.14-.8.86-10.42.88-11.21l.04-1.54-5.54.09Z"/><path class="cls-21" d="M161.3 171.39c.17 4.56.58 9.09 1.23 13.6.13.91 1.51.52 1.38-.38-.63-4.39-1.01-8.79-1.18-13.22-.03-.92-1.47-.92-1.44 0ZM167.02 184.59a69.01 69.01 0 0 0 1.11-13.07c-.01-.92-1.44-.92-1.44 0 .05 4.27-.3 8.48-1.06 12.69-.16.9 1.22 1.29 1.38.38Z"/><path class="cls-13" d="M172.77 191.51c-1.26-.93-2.69-1.78-3.65-3.04-.87-1.14-1.47-2.46-2.07-3.74-.14-.31-.4-.4-.65-.36-1.1-.08-2.2-.07-3.3-.05-.24-.03-.48.07-.62.36-.41.83-.77 1.66-.51 2.56.44 1.49.53 3.02.41 4.57-.07.92 1.36.92 1.44 0 .07-.83.07-1.66 0-2.48.36.37.67.77.96 1.18.03.09.07.18.15.27.06.08.14.15.22.23.51.69 1.05 1.34 1.86 1.76.12.13.28.21.51.21h4.86c.47 0 .7-.38.69-.75a.73.73 0 0 0-.3-.72Zm-2.41.03h-.1s.03-.03.04-.05c.02.01.04.03.06.05Zm-6.8-5.79c.8-.01 1.6 0 2.41.03.62 1.31 1.27 2.62 2.18 3.76.3.37.64.71.99 1.03-.48.28-1.56.12-1.91.05-.54-.12-.93-.43-1.28-.84-.24-.37-.48-.75-.75-1.07-.35-.42-.75-.73-1.16-1.07-.71-.6-.78-1.13-.48-1.89Z"/></g><g id="Ladys_torso"><path class="cls-15" d="M176.55 128.47s0-.05-.01-.08c-.05-.2-.09-.41-.14-.62s0-.01 0-.01c-.56-2.34-1.44-4.85-4.37-4.46-.06 0-.12.02-.17.04h-.04c-.49.13-.98.23-1.48.32-.24.04-.41.24-.48.46 0 .01-.01.03-.02.04-.23.66-.47 1.31-.73 1.95-.17.43-.39 1.36-.77 1.83-.45-.44-1.01-1.59-1.22-1.92-.47-.74-.93-1.49-1.38-2.25-.02-.04-.05-.07-.07-.1v-.01c-.02-.03-.05-.05-.08-.07-.01 0-.02-.02-.03-.03-.02-.02-.04-.03-.07-.04s-.05-.03-.07-.04h-.02c-.03-.01-.05-.02-.08-.03-.27-.07-.56-.09-.83-.12-.3-.03-.59-.05-.89.01-2.77.43-4.17 3.49-4.2 6v.07c-.1 2.75.22 5.45.47 8.19.02.2.1.35.22.46a.7.7 0 0 0 .5.26c5.35.48 10.73.08 15.95-1.17.06-.01.11-.03.16-.06.33-.03.64-.26.65-.69.04-2.67-.22-5.32-.78-7.93Z"/><path class="cls-6" d="M168.72 131.2h.1c.1 0 .19-.02.28-.06.09-.03.17-.08.23-.15.07-.07.12-.14.15-.23.04-.09.07-.18.06-.28l-.03-.19a.916.916 0 0 0-.18-.32l-.14-.11a.653.653 0 0 0-.36-.1h-.1c-.1 0-.19.02-.28.06-.09.03-.17.08-.23.15-.07.07-.12.14-.15.23-.04.09-.07.18-.06.28l.03.19c.04.12.1.23.18.32l.14.11c.11.07.23.1.36.1ZM169.24 135.94c.92 0 .92-1.44 0-1.44s-.92 1.44 0 1.44Z"/></g><g id="Ladys_head"><path class="cls-7" d="M168.3 128.05s-1.7-2.74-1.98-3.05-.36-.65-.36-.65.13-2.01.13-2.15-.33-1.62-.57-2.28-.37-2.62-.19-3.27.67-1.5 1.24-1.77 3.88-.27 4.24-.13 1.16 1.55 1.03 2.51-.42 2.71-.83 3.58-1.17 1.72-1.14 1.74-.24 2.25-.24 2.25-.35 1.07-.64 1.84-.7 1.36-.7 1.36Z"/><path class="cls-3" d="m174.28 119.42-.15.03c.02-.1.02-.21 0-.31l-.41-2.03c-.06-.3-.26-.46-.49-.5-.02-.38-.04-.7-.06-.84-.11-.79-.3-1.51-.66-2.22s-1.52-.22-1.31.55c.52 1.91 1 3.82.27 5.72h-.06c-.92-.03-.92 1.41 0 1.44.57.02 1.12-.07 1.67-.2.52-.12 1.05-.13 1.57-.25.9-.21.52-1.59-.38-1.38Z"/><path class="cls-21" d="M172.19 114.69c-.27-.88-1.66-.5-1.38.38.67 2.15.53 5.3-1.62 6.56-.54.31-.38.98.02 1.24v.5c0 .1-.01.21-.03.31 0 0-.01.08-.02.1-.01.05-.02.1-.04.15-.24.89 1.15 1.27 1.38.38.16-.61.18-1.28.09-1.9v-.03c2.12-1.79 2.39-5.16 1.6-7.7ZM165.48 121.96c0 .61-.04 1.22-.13 1.82-.06.38.09.77.5.88.34.09.83-.12.88-.5.11-.73.18-1.47.18-2.2 0-.92-1.43-.92-1.44 0Z"/><path class="cls-3" d="M170.48 113.65c0 .11.02.2.06.29.03.09.08.17.15.23.07.07.14.12.23.15.09.04.18.07.28.06l.19-.03c.12-.04.23-.1.32-.18l.11-.14c.07-.11.1-.23.1-.36 0-.11-.02-.2-.06-.29a.513.513 0 0 0-.15-.23.574.574 0 0 0-.23-.15.546.546 0 0 0-.28-.06l-.19.03c-.12.04-.23.1-.32.18l-.11.14c-.07.11-.1.23-.1.36Z"/><path class="cls-3" d="M174.65 116.59c-.24-1.03-.62-2.05-1.24-2.91-1.09-1.52-2.89-2.41-4.73-2-2.76-.52-4.68 1.96-5.57 4.33-.5 1.33-.93 3.07-.6 4.49.26 1.13 1.54 1.34 2.61 1.4.27.09.55.13.84.1.29-.04.58-.2.68-.47.11-.18.11-.42-.06-.65-1.15-1.57-.88-3.71-.02-5.47 1.84-.28 3.73-.3 5.59-.28.17 0 .31-.05.42-.12.06.1.11.2.16.3.33.69.51 1.44.67 2.19.18.85.48 1.69.55 2.56.07.91 1.51.92 1.44 0-.09-1.17-.44-2.33-.71-3.46Zm-3.42-2.9c0-.07-.02-.13-.05-.19.09.06.18.12.26.19h-.21Z"/></g><path class="cls-15" d="M164.93 124.67c.26-.14.42-.41.28-.77-.45-1.14-.95-2.25-1.51-3.33a.616.616 0 0 0-.79-.32c-.19.02-.38.12-.51.31l-4.86 6.89c-.08.11-.12.23-.12.33-.06.27.02.56.32.75.65.41 1.32.77 2.02 1.07.29.12.61.11.84-.09.18.11.3.17.3.17 1.03.58 3.25.71 4.34-1.01.97-1.53.14-3.16-.3-4.03Z"/><path class="cls-7" d="M158.63 125.96s-1.24-3.31-1.69-5.28-1.11-6.78-.9-7.61.72-3.33 1.63-5.37 3.39-5.91 3.55-6.4.64-2.62 1.49-3.25 1.18-.65 1.6-.04c.42.61 1.31.03 1.63.94.31.9.71.37.85 1.5s-.2 1.11-.78 1.62-.23.45-.78.71-1.52-.18-1.89 0-1.69 4.12-1.93 4.92-1.4 4.61-1.4 4.61.68 6.7 1.21 7.72 1.18 1.95 1.03 2.08-3.06 4.26-3.06 4.26l-.56-.4Z"/><path class="cls-21" d="M167.59 100.2c-.14-.19-.5-.29-.6-.45-.12-.19-.04-.53-.12-.74-.21-.58-.56-.67-1.09-.78s-.14.15-.55-.18c-.21-.18-.31-.47-.55-.65-.55-.43-1.27-.45-1.91-.19-1.5.63-1.71 2.4-2.19 3.76-2.56 3.65-4.21 7.57-5.23 11.91-.02.06-.03.12-.03.18-.09 4.71 1 9.33 3.17 13.51.43.82 1.66.1 1.24-.72a26.544 26.544 0 0 1-2.97-12.69c1.01-4.19 2.6-7.96 5.09-11.5a.71.71 0 0 0 .12-.31c.28-.84.37-1.88 1.01-2.55.82-.85 1.16.49 1.8.8.16.07.58.03.68.1.09-.14.12-.1.09.14l.06.4c.09.27.28.4.39.62.09.09.2.15.32.18-.19.24-.44.38-.73.41-.34.09-.49.37-.53.69-.04.37.06.21-.26.22-.39 0-.68-.07-1.01-.29-.38-.25-.75-.07-.93.23a.77.77 0 0 0-.19.29c-1.08 3.07-2.04 6.17-3.3 9.17-.07.17-.07.31-.03.44-.16 3.49.63 6.75 2.12 9.9.39.83 1.63.11 1.24-.72-1.39-2.94-2.08-6-1.92-9.26v-.03c1.16-2.76 2.06-5.61 3.03-8.43.51.17 1.05.2 1.59.05.65-.18.89-.52 1.01-1.03 1-.42 2.01-1.35 1.19-2.48Z"/><g id="Ladys_arm_2"><path class="cls-15" d="M178.94 127.44a.727.727 0 0 0-.11-.26 127.08 127.08 0 0 0-5.08-6.94c-.13-.17-.28-.24-.44-.24-.28-.1-.6-.03-.76.33-.48 1.12-.86 2.26-1.12 3.46-.09.4.13.69.42.82l-.03.12c-.81 3.47 1.92 4.02 3.57 3.97.12.12.28.2.51.19.92-.04 1.76-.18 2.61-.44.47-.14.58-.64.42-1Z"/><path class="cls-7" d="M174.79 122.23s3.04-2.75 4.05-4.21 2.66-4.17 3.32-5.71c.65-1.54 2.17-6.65 2.17-6.65s-.89-.61-1.09-1.42.48-.55.25-1.23c-.23-.68-.77-.67-.24-1.26s.66-.17 1.44-.45.59-.28 1.09 0 1.38.23 1.85.44 1.07.56.91 1.3-.56 1.56-.92 2.19-.61 1.56-.61 1.56-1.38 7.03-2.32 8.96c-.94 1.93-1.83 3.95-2.72 5.17-.89 1.22-4.76 5.55-4.76 5.55l-2.4-4.25Z"/><path class="cls-21" d="M189.12 102.27c-.17-.5-.55-.94-1.04-1.14-.35-.14-.71 0-1.04-.1-.35-.11-.28-.21-.54-.46-.35-.35-.79-.41-1.25-.25-.26.09-.4.24-.66.25-.21 0-.45-.17-.69-.15-1.34.07-1.49 1.41-1.21 2.42-.33.4-.48.73-.22 1.42.24.62.64 1.03 1.14 1.33-.66 3.01-1.71 5.92-3.2 8.63-1.57 2.85-3.56 5.74-6.22 7.68-.74.54-.02 1.78.72 1.24 5.51-4.02 8.89-11.19 10.2-17.72.03-.13.02-.24-.01-.35a.702.702 0 0 0-.47-.55c-.23-.09-.8-.42-.83-.67-.02-.15.02-.12.2-.32.16-.18.28-.46.18-.7-.18-.45-.36-.69.11-.76.19-.03.39.06.59.03.18-.03.48-.27.68-.35-.05.09.22.34.29.4.55.51 1.29.1 1.73.61.56.65-.47 2.02-.95 2.8-.09.08-.15.19-.18.33-.03.08-.04.15-.04.22-.61 3.81-1.53 7.62-3.2 11.12-1.56 3.26-3.72 6.12-6.33 8.61-.67.64.35 1.65 1.01 1.01 2.69-2.56 4.96-5.54 6.56-8.9 1.74-3.66 2.73-7.59 3.36-11.58.69-1.18 1.81-2.66 1.32-4.08Z"/></g><path class="cls-14" d="m35.42 181.41 1.78 6.42s1.13.82 2.11.31 1.5-.9 1.53-.97 0-5.62 0-5.62l-5.42-.14ZM50.06 181.65c.17-.18 5.15.16 5.15.16s-.44 6.36-.56 6.78-1.32.75-2.21.48c-.89-.27-1.13-1.35-1.3-1.91s-1.08-5.51-1.08-5.51Z"/><path d="M59.35 177.77c-.09-.25-.31-.44-.66-.43h-.63c0-4.94-.33-9.88-.46-14.81-.04-7.58-.91-15.32-2.51-22.73-.01-.06-.04-.12-.06-.17-.09-.24-.31-.42-.66-.37-6.18.79-12.45 1.15-18.62.07-.18-.03-.35 0-.48.07-.18.07-.32.22-.4.45-2.56 7.88-4.13 16.23-4.24 24.52v.19c.08 4.49.54 8.99 1.38 13.41-.12 0-.25.02-.37.02-.45.03-.87.45-.71.94.34 1.04.74 2.05 1.19 3.05.04.33.27.61.7.59 3.74-.21 7.49-.1 11.23-.31.25-.01.43-.12.54-.28.18-.12.3-.31.31-.58.04-1.02.08-2.04.11-3.05.01-.4-.35-.74-.74-.74h-.63c-.31-3.25-.7-6.5-.89-9.77-.14-2.51.57-5.06 1.06-7.51.3-1.49.6-2.98.87-4.47.93 2.91 1.85 5.8 2.2 8.87.02 4.24-.19 8.49-.14 12.74h-.23c-.53 0-.78.46-.71.94.14 1.05.31 2.1.49 3.14.04.2.13.34.25.42.12.1.27.17.47.18 3.72.08 7.5.26 11.21 0 .49-.04.73-.46.71-.84.17-1 .35-1.99.52-2.99a.73.73 0 0 0-.11-.55Z" style="fill:#ba8d3c"/><path class="cls-21" d="M34.94 181.79c.42 1.86.85 3.71 1.3 5.57.23.92 1.65.53 1.43-.39-.45-1.85-.89-3.71-1.3-5.57-.21-.93-1.63-.53-1.43.39ZM54.39 181.33c-.11 2.27-.25 4.55-.48 6.81-.1.94 1.38.94 1.48 0 .24-2.27.37-4.54.48-6.81.05-.95-1.43-.95-1.48 0ZM40.1 181.55c.05 1.85.07 3.69.04 5.54-.02.95 1.46.95 1.48 0 .04-1.85.02-3.69-.04-5.54-.03-.95-1.51-.95-1.48 0ZM49.49 181.52l.94 6.5c.14.94 1.56.54 1.43-.39l-.94-6.5c-.14-.94-1.56-.54-1.43.39Z"/><g id="Gent_forearm_1"><path class="cls-2" d="M56.8 134.08c1.17-1.46.95-3.46.46-5.14-1.09-3.76-2.96-7.88-5.67-10.76-1.21-1.29-2.91-2.28-4.74-2.14-1.4.11-2.38 1.06-2.71 2.36-2.15-.22-4.63-.27-6.72.48-.21-.78-.68-1.41-1.53-1.8-1.11-.51-2.43-.4-3.52.09-1.37.61-2.35 1.79-3.23 2.96a32.613 32.613 0 0 0-2.82 4.53c-.43.84-.96 2.22-1.35 3.7-2.65-.11-5.38.19-8 .28-.26 0-.44.12-.56.29a.76.76 0 0 0-.21.46c-.24 2.39-.43 4.78-.55 7.18-.01.23.07.41.2.53.12.14.3.22.54.21 3.02-.16 5.96-.06 8.95-.65 1.27-.25 2.65-.6 3.71-1.3.82-.23 1.58-.68 2.23-1.24-.07 2.78-.05 5.56.17 8.34 0 .02 0 .04.01.06-.02.3.13.6.53.65 7.93 1.07 16.22.9 24.06-.71h.02c.33-.04.64-.27.63-.71-.05-2.3-.23-4.69-.61-7.05.25-.16.48-.36.7-.63Z"/><path class="cls-14" d="m16.8 130.79-2.11.67s.51-1.97-.16-2.53-1.11-1.19-2.09-.84-1.39.26-1.39.26-.13.53-.69 1.43c-.56.9-.72.67-.66 1.7s.5 2.28 1.5 2.52 4.17.68 4.17.68h1.03l.4-3.88Z"/><path class="cls-21" d="M14 131.66c.11.34.43.63.88.52.99-.24 1.98-.48 2.98-.67.93-.18.54-1.61-.39-1.43-.68.13-1.35.28-2.02.44.01-1.37-.22-2.46-1.75-2.98-.41-.14-.89-.33-1.33-.28-.23.03-.39.1-.6.22-.11.07-.2.15-.27.27l.03-.09c-.47.04-.71-.37-1.24-.13-.4.18-.61.55-.65.97-.02.21.05.42.07.63 0 .08.02.14.02.18-.03 0-.06.03-.11.09-.35.38-.6.52-.59 1.11 0 .35.14.59.1.96-.02.22-.16.45-.16.69 0 .52.25 1.04.57 1.42 1.77 2.06 5.46 1.93 7.93 2.16.95.09.94-1.39 0-1.48-1.94-.18-4.09-.17-5.89-1.01-.75-.35-1.02-.8-.95-1.56.03-.3-.03-.6-.01-.89.04-.51.62-.81.6-1.51v-.12c.2.06.44.09.53.08.27-.01.47-.15.69-.28.07-.04.14-.24.21-.29-.04.05.33.2.33.2.28.1.7.13.88.38.33.45.11 1.58.09 2.09 0 .12.02.23.06.32Z"/></g><path class="cls-2" d="M54.78 127.5c-2.42-.97-5.15-1.3-7.73-1.52-.44-.04-.68.27-.7.61-.64 2.15-1.32 4.29-2.05 6.42-.12.34.02.61.24.76.07.06.16.11.27.15 2.52.78 5.2 1.14 7.83.89 2.04-.19 4.77-.62 5.44-2.93.64-2.18-1.56-3.69-3.31-4.39Z"/><path class="cls-14" d="m46.4 127.34-1.79-.21s-1.22-2.04-1.86-2.65c-.64-.62-.63-1.23-1.28-.6s-.23.74-.89 1.51-.17 1.19-.68 1.77-1 .87-.52 1.31 2.21.83 2.83 1.19 3 1.6 3 1.6l1.19-3.91Z"/><path class="cls-21" d="m47.21 126.81-2.14-.36c-.7-1.18-1.67-2.97-2.95-3.4-.51-.17-1.1-.09-1.52.25-.56.45-.28 1.09-.6 1.57-.36.54-.8.56-.81 1.34 0 .42.09.41-.14.77-.17.27-.4.45-.48.77-.41 1.61 1.76 2.24 2.91 2.4h.01c1.46.48 2.64 1.79 4.02 2.48.85.43 1.6-.85.75-1.28-1.43-.72-2.62-1.96-4.12-2.53a.523.523 0 0 0-.23-.08c-.01 0-.02 0-.03-.01-.1-.03-.19-.04-.28-.03-.47-.06-1.21-.16-1.38-.44-.21-.34.21-.49.37-.78.19-.32.15-.59.16-.94.02-.45.01-.27.37-.64.21-.21.33-.45.4-.74.1-.44-.08-.75.43-.46.41.23.75.91 1.02 1.29.35.5.68 1.01 1 1.53.14.23.34.33.55.35h.03l2.26.38c.39.07.8-.1.91-.52.1-.35-.12-.84-.52-.91Z"/><path class="cls-14" d="m38.61 119.58.06-1.83 4.4-.04.1 1.54s-2.12 1.82-4.55.34Z"/><g id="Gentlemans_head"><path class="cls-21" d="M36.74 115.32c.42 0 .42-.66 0-.66s-.42.66 0 .66Z"/><path class="cls-14" d="M37.45 110.58s-.59 2.25-.26 3.84c.33 1.58.57 3.62 1.68 4.23s1.74.58 2.81.26c1.06-.32 1.76-.85 2.2-2.24.44-1.39.64-3.76.64-3.76l-.19-2.33s-5.45-1.22-6.88 0Z"/><path class="cls-21" d="M45.39 114.86a.508.508 0 0 0-.22-.11c.29-1.89.19-4.07-.57-5.74-.67-1.48-2.27-3.03-3.99-2.73-.07 0-.14 0-.23.01-3.55.71-4.38 4.93-3.85 8.39-.05.04-.08.09-.09.15-.09.08-.12.21-.1.33.17 1.27.73 2.66 1.65 3.63 0 .22 0 .44-.03.65-.04.4.37.74.74.74.31 0 .54-.18.66-.43.66.25 1.38.24 2.06 0 .36-.13.69-.31.99-.52.04.4.31.74.74.74.37 0 .78-.34.74-.74l-.12-1.11c.27-.32.5-.67.7-1.05.35-.49.68-1 .98-1.53.04-.07.05-.13.04-.19a.43.43 0 0 0-.11-.49Zm-7.42-2.69c.16-1.68.59-3.59 2.23-4.27.09 0 .2 0 .31-.05 1.46-.57 2.63 1.22 2.98 2.4.41 1.35.41 3.01.19 4.42-.51 0-1.03-.05-1.45-.27-.55-.27-.91-.83-1.53-.97-.71-.17-1.36.22-1.93.6-.26.18-.52.32-.8.43a10.4 10.4 0 0 1 0-2.3Zm1.43 5.44v-.02h.01v.03h-.01Zm3.21-.98c-.16.29-.41.41-.74.44-.17.01-.35.02-.51 0-.04 0-.12 0-.16-.03-.04-.03-.03.04 0-.09.09-.32-.16-.63-.45-.72a.967.967 0 0 0-.34-.05c-.25-.04-.51-.02-.76.08-.13.05-.25.16-.24.32v.16c-.02.05-.04.11-.05.18-.05-.02-.11-.02-.17-.04-.16-.06-.24-.19-.3-.34-.13-.36-.15-.76-.12-1.15.14-.07.29-.16.44-.24.57-.32 1.17-.56 1.78-.2.5.29.93.63 1.5.81.14.04.28.07.42.1-.09.27-.17.54-.31.78Z"/><path class="cls-13" d="m46.39 110.08-.06-.15c-.06-.4-.15-.79-.28-1.17-.08-.3-.2-.58-.42-.85-.28-.33-.65-.53-1.05-.58-.26-1.36-1.38-2.42-2.82-2.6-1.79-.23-3.24.82-4.24 2.19-1.59.34-2.04 1.89-2.23 3.37-.01.09 0 .18.04.27.07.39.41.76.91.67 3.05-.54 6.15-.52 9.2.05.27.05.48-.03.64-.18.01 0 .03 0 .04-.02.38-.22.42-.64.27-1.01Z"/><path class="cls-5" d="M43.96 106.47s.02.02.05.02h.02s-.01-.03-.02-.03h-.04ZM42.54 106.41s.03.02.04.02c.06-.01.02-.06.03-.09 0 0-.02-.03-.04-.04-.01 0-.03 0-.07.05l.02-.06h-.07s-.01.02-.02.03c0 .02.02.05.04.05l-.02.02c-.05 0-.09 0-.11.06.08 0 .09 0 .12-.08h.02s.09-.02.03.04ZM43.98 106.67s-.06-.04-.07-.07l-.02-.06-.04.04c0 .04.02.08.04.12.04.08.05.08.11.03.02-.02.07-.06.07-.06-.03-.04-.05 0-.08 0ZM43.04 106.95s.06-.08.02-.11c-.04-.03-.08.03-.1.06-.01.02.02.07.04.14.03-.05.03-.07.05-.09Z"/><path class="cls-5" d="M42.13 106.57c.08 0 .16 0 .2.07l.03-.03h.02c.07 0 .05 0 .06-.08 0-.07-.08-.04-.07-.09-.1.02-.18.08-.26.13h.02Zm.26-.05v.05s-.01 0-.02.01v-.04s.01 0 .03-.02ZM44.09 106.57s.05.04.07.07c.02.03.01.05-.01.07-.03.03 0 .04.02.04.03 0 .05-.02.07-.04.02-.02.02-.05.02-.08-.06 0-.02-.1-.09-.1-.05 0-.05-.03-.02-.07 0-.01 0-.03.02-.08-.03 0-.06 0-.06.06 0 .05-.01.08-.08.08 0 .03.01.06.06.06ZM44.03 106.39v-.06h-.06c-.01 0-.02.03-.03.04l-.02-.02s-.02.02-.02.03c0 .01 0 .03.02.04.04.02.08 0 .1-.03ZM42.35 106.68v.04h.09s-.06-.01-.09-.03ZM42.46 106.79v.05l.04-.02.02-.02s-.02-.02-.03-.02h-.03ZM43.77 106.54s.03 0 .02-.02h-.02l-.02-.02c0 .01 0 .03.02.04ZM44.29 106.63s.03.01.04.02l.02-.02c-.01 0-.03 0-.04-.01l-.02.02ZM44.21 106.34s-.01.02-.02.03c.02-.01.02-.02.03-.04ZM43.68 106.57l.04.07.02-.02c0-.02 0-.04-.01-.05h-.04ZM39.49 106.42h-.02s-.03 0-.06-.01.03.02.05.03h.03ZM42.88 106.51v-.05c.02-.03.04-.05.06-.07-.05-.02-.1.02-.13.04-.04.02-.07.07-.08.11-.01.07.05-.01.05.01v.11h-.02c-.03-.06-.07 0-.1 0-.06 0-.12.01-.14.05v.04c.02 0 .04.01.06.01.04 0 .08-.03.12-.02.04.01.08.05.12.07.01 0 .02.03.03.04h.03v-.04a.471.471 0 0 1-.06-.24s0-.02.02-.03l.02.02.06.05s.04-.1-.05-.11Z"/><path class="cls-1" d="m46.39 110.08-.06-.15c-.06-.4-.15-.79-.28-1.17-.08-.3-.2-.58-.42-.85-.11-.13-.24-.24-.38-.33-.03.02-.06.01-.08-.02-.01-.02-.02-.04-.04-.04-.04 0-.08.01-.11.03-.02.01 0 .06-.04.02-.05-.06-.11-.11-.17-.16l-.01-.01c-.02 0-.03 0-.05-.01h-.01c-.01.02-.03.04-.05.04h-.09c.01-.03.02-.06.03-.08s-.04 0-.05-.01v-.04c-.03.01-.06.02-.09.04-.05.03-.06.03-.08-.06s-.01 0-.01-.01v-.02c-.06.03-.11.02-.16.01-.01 0-.03-.03-.03-.05 0-.03 0-.06.04-.06s.09.04.11-.04c0 0 .05 0 .08.02-.01.08.04.07.08.07.01 0 .02 0 .03-.01 0-.04-.02-.08-.03-.11l-.02-.02c-.05.03-.08-.08-.13-.02 0-.01-.01-.02-.01-.03 0-.05-.02-.06-.06-.04-.01 0-.02.03-.04.03h-.06v-.06c.03-.02.01-.09.07-.07.04 0 .11 0 .14.02l.04.03v-.04c-.02-.04-.03-.09-.05-.13-.06.02-.11 0-.14.05-.04.04-.1.05-.1.13 0 .02-.02.05-.04.06 0 0-.03-.01-.05-.03v-.03c0-.03.04-.08-.02-.09-.07 0-.04.04-.02.08v.01c-.02.02-.06.05-.06.07.02.05.04.1.07.15 0 .01.04.02.05.01s.04-.04.04 0c0 .01-.02.04-.02.04-.06-.02-.13-.04-.19-.07-.01 0 0-.07 0-.1.02-.07 0-.09-.06-.09-.05 0-.06-.03-.05-.08 0-.01-.02-.04-.03-.04-.03 0-.05 0-.08-.01q-.09-.02-.06-.12s.02-.07-.04-.07c-.09 0-.14-.03-.21-.13.02 0 .04-.02.06-.03.11-.02.11-.02.1-.13 0 0 0-.02.01-.03 0 0 .02 0 .02.01.06.05.12.11.21.18s.03-.04-.01-.08a.108.108 0 0 1-.03-.07c0-.03 0-.07.05-.06h.07s.02-.01.02-.02c0 0-.02-.01-.02-.02-.04-.04-.1-.02-.14-.05 0 .03 0 .06-.01.08 0 .02-.02.04-.03.05 0 0-.03 0-.04-.02l-.06-.09c-.02 0-.04 0-.06-.02-.06-.04-.06-.04-.08.04h-.06c-.02 0-.05.03-.07.04l.08.05s.03.01.04.02c-.01.01-.02.02-.04.03-.01 0-.03 0-.04.01l-.09.04s.04.04.05.07l.03.06c.02.04.08.06.04.11 0 0-.06-.02-.09-.04-.04-.03-.06-.07-.11-.01 0 0-.04-.01-.05-.02-.07-.04-.13-.03-.2 0 0 .04.02.08.03.12 0 0 .03.02.04.02.03 0 .07.02.03-.04-.02-.04 0-.06.05-.05.02 0 .03.01.04.02.1.05.18.16.3.16.02.05.03.09.09.08.03 0 .05 0 .05-.04 0-.06.02-.07.06-.02.02.02.04.04.06.04.07.01.03.06.03.1 0 .05-.03.05-.06.04-.02 0-.04.02-.06.02-.04 0-.07 0-.02-.05l-.02-.03c-.04.03-.09.02-.14.02-.01 0-.02.03-.04.04-.03.02-.07.03-.07-.03h.04s-.02-.02-.05-.02c0-.01 0 0-.02 0h-.1s-.02 0-.03-.02c0 0 0-.02.02-.02l.06-.05s0-.03-.02-.04c-.08-.05-.08-.05-.09.03-.01.09-.07.17-.11.14-.05-.03-.06 0-.08.03h-.04v-.05c0-.07-.02-.04-.05-.02 0 0-.04-.02-.04-.03 0-.07-.09-.04-.09-.1h-.31l.01-.01c-.02 0-.03-.03-.03-.06h-.05c0-.02.01-.05 0-.07-.03-.03-.07-.05-.1-.07-.01 0-.02.01-.03.02-.03.05-.04.06-.05.05l-.06-.06c-.03-.03-.05 0-.07.01-.01.01-.04.03 0 .04.06.02.11.09.18.08.05 0 .07.04.09.07.03.08.1.01.14.05l.03-.04v.09c-.08.02-.15 0-.21-.05-.01-.01-.04-.01-.05 0-.02 0-.03.04-.04 0 0-.02-.02-.05-.04-.07-.02-.02-.05-.02-.06.02v.03s0 .02-.01.03c0-.01-.02-.02-.02-.03 0-.05-.11-.04-.06-.11 0 0 0-.02-.01-.03 0 0-.02.01-.02.02 0 .02 0 .05-.02.07-.04.05-.02.06.03.07 0 0 .01.03.01.04 0 0-.01.02-.02.02-.06.01-.1-.01-.13-.08 0-.02 0-.04-.01-.06 0-.02-.01-.03-.02-.04-.02-.01-.04-.03-.05-.03-.02 0-.04.02-.05.04 0 .01.02.03.03.05.01.02.06 0 .05.04 0 .03-.06.04-.09.02-.02-.01-.04-.01-.05-.03-.04-.04-.04-.11.02-.12.11-.01-.02-.05.12-.09.09-.05.07-.08.05-.09h-.05c-.03.02-.05.04-.07.06-.01.01-.02.03-.03.04h-.04l-.04.05s-.06.05-.09 0c-.02-.02-.04-.03-.04 0s0 .06-.04.08l.08.05h.03c0 .01.02.04.02.04-.01.01-.04.03-.05.02-.06-.02-.12-.04-.16-.08s-.09-.03-.13-.03c-.02.09-.1.06-.15.05-.04-.01-.06-.02-.08.01-.02.02-.03.01-.05 0-.07-.05-.16-.06-.22-.03-.02.01-.08 0-.08 0-.02-.04-.03-.07-.06-.02-.03.04-.06.03-.1.03-.04 0-.1.01-.12 0-.08-.06-.03.04-.07.04-.05 0-.1-.05-.15 0l-.02-.08v-.02l-.02-.02-.01.02c0 .06-.08.04-.08.03-.04-.07-.09-.07-.16-.05-.06-.05-.16 0-.21-.07h-.03v.02c0 .02.02.04.03.06.01.04 0 .06-.05.06h-.05c-.02.02-.05.04-.07.06-.03.03-.05-.05-.09 0-.03.03-.09.02-.14-.02l-.02-.06h.05s.06 0 .07-.02c.01-.02-.06-.08-.09-.08-.01 0-.03.02-.04.04l.02.04h-.05c-.04 0-.05-.02-.04-.04 0-.02.02-.04.03-.06 0-.01 0-.03-.02-.03-.01 0-.04 0-.04.01 0 .07-.07.05-.11.05s-.04-.02-.03-.05c0-.01.04-.03 0-.04-.03 0-.05-.02-.08-.02-.04 0-.09 0-.07.05 0 .03 0 .04-.04.04h-.07c-.02 0-.04.02-.05.02.02.02.03.04.05.05s.06 0 .08 0c.04 0 .07-.03.1-.03.04 0 .08 0 .11.02s.04.01.06 0h.04s.01.03 0 .04c-.03.04-.06.08-.14.05-.04.04-.08.04-.12 0-.04-.04-.04 0-.04.02v.04c-.04.02-.02-.02-.03-.02a.218.218 0 0 0-.08-.05c-.11-.07-.12-.07-.21 0-.04.04-.08.02-.12.01-.02 0-.04-.02-.05-.03h-.04v.02c.01.02.09.04.02.06-.05.02-.04-.03-.06-.04-.01 0-.02-.02-.03-.03l-.02-.02s0 .02-.02.03c-.03.02-.07.04-.09.05-.02.02-.04 0-.05 0-.03-.01-.02-.02 0-.03.02-.02.08-.03.05-.06l-.09.05h-.01c-.02.02-.04.01-.06 0-.02 0-.04-.01-.06-.02v.06c-.08 0-.14.06-.24.03a.599.599 0 0 0-.12-.02h-.08c-1.43.42-1.86 1.9-2.04 3.32-.01.09 0 .18.04.27.07.39.41.76.91.67 3.05-.54 6.15-.52 9.2.05.27.05.48-.03.64-.18.01 0 .03 0 .04-.02.38-.22.42-.64.27-1.01Zm-2.95-3.8s.02-.02.03-.01c.02 0 .03.02.05.04-.03.02-.04.03-.05.03-.04 0-.04-.03-.03-.05Zm-.12.19h.04s.02.01.02.02l-.03.02-.03-.03Zm.14.23s.01 0 .03-.01v.05s-.02 0-.02.01v-.05Zm.02.19v-.03c0-.01.02-.02.02-.03v.05h-.02Zm.04-.1v-.06c0-.01.02-.02.02-.03v.08h-.02Zm-1.27.02-.04-.05s.02-.02.03-.02c0 0 .02 0 .03.01 0 .03-.01.04-.02.05Zm-5.05.27s-.03-.01-.05-.02l.02-.01c.02 0 .04 0 .07.01l-.04.02Zm.07-.02s-.02 0-.01-.01c0 0 .01 0 .02-.01l.02.02h-.03Zm3.97-.1s-.02-.02-.02-.03c0-.01.01-.03.02-.04l.02.02c0 .01 0 .03-.01.04Zm1.37.08s-.05-.02-.07-.03l.08-.04.08.05s-.06.02-.09.02Zm.96.14-.05-.05.04-.02s.02.03.02.05c0 0 0 .02-.01.03Zm.17-.04s-.02-.03-.02-.04c.02-.02.04-.03.05-.04l.04.03s-.05.03-.08.04Z"/><path class="cls-5" d="M43.58 106.1s-.04.03-.06.05c.02 0 .04.01.05.03v.06c.04-.03.09-.03.14-.02l-.02-.11s-.08-.01-.11 0ZM43.78 106.51v.01c.01 0 0 0 0-.01ZM44.17 106.33v-.03.04Z"/><path class="cls-1" d="M37.71 106.74s.03.02.03.04c.05 0 .07-.04.13-.02.04.01.13 0 .16-.01.07-.05.13-.07.21-.02h.02c.05-.06.09-.02.14 0h.05c.05-.05.12-.03.18-.04.06-.01.12-.02.14-.07h.08l.07.01c.04.06.11.03.13 0 .02-.01.03-.02.05-.02v.02s.04-.02.05-.03c.03-.02.05-.04.08-.06.04-.02.06-.05.05-.09 0-.02.02-.03.09-.05s-.01 0-.01 0h-.02c-.11 0-.15.03-.18.05-.02.01-.03.01-.04 0-.02.01-.03.03-.04.05l-.03.03h-.06s-.03 0-.06-.01-.07-.02.05-.07c-.19.06-.21.06-.24.07.02.01.04.03.06.04h-.09v.04s0 .02-.01.02c-.04.01-.1-.02-.09-.05 0 0 .03-.02.04-.03.04-.01.05 0 .05.01v-.03c0-.01 0-.02.02-.04.01-.02.01-.03 0-.04l-.04.03-.02-.02s.01-.02.02-.03-.03-.02-.03-.02v-.02s0-.05.03-.07v-.02h.05s.07.02.08.05v.01l-.06.05s.05.02.06.04c.03.02.05.02.09 0 .06-.03.06-.09.11-.12.01 0 .04-.02.05-.02.02.02.05.03.08.03h-.02s-.02-.02-.02-.03a.138.138 0 0 1-.03-.04h.06c.02 0 .05.03.06.02.03-.02.05-.04.06-.07 0-.01-.03-.03-.03-.05-.01-.04.01-.05.05-.05l.06.02v.04c-.04.05-.02.07.04.07.05 0 .09.01.14.01s.1-.02.11.04c.06.01.11-.02.16-.04 0 0 .02-.02.02-.04 0 0-.02-.02-.03-.02-.07.02-.12-.01-.16-.05-.04-.03-.06-.03-.09 0h-.05c0-.02.02-.03.03-.04.02-.02.06-.03.06-.05.01-.09.12-.11.17-.17h.02s0 .02.01.02c0 .03-.07.12-.11.12-.06 0-.04.02-.02.05.05.05.13.06.2.08.04.01.08.02.08.05 0 .02-.04.05-.07.07-.08.05-.15.1-.19.18-.03.07-.1.07-.18.04-.1-.04-.18 0-.2.08-.07 0-.1.05-.12.09h.03c.06 0 .09-.04.09-.09h.1c.03 0 .05.05.08 0h.02v.03c-.04.02-.08.06-.14.06 0 0-.01.02 0 .02.05.04.12.03.17 0l.06-.07s.02-.02.09 0c.02 0 .04 0 .05-.02.01 0 .04-.02 0-.04-.03-.02-.03-.04 0-.05h.07c.02.07.07.05.11.02.03-.02.06-.03.07 0 .01.05.03.04.07.02.06-.03.09-.06.11-.11s.08-.05.12-.06c.04-.02.08 0 .11.03 0 0 .17-.02.17-.03v-.04c0-.01-.01-.02-.02-.03.08 0 .05-.06.06-.1 0-.02.04-.05.06-.06.02 0 .07-.02.07.03 0 .04.03.03.06.02.02-.01.05-.02.07-.02 0-.1 0-.1-.11-.09-.06 0-.1-.02-.15-.03 0 0 0-.04-.01-.05h.05c.06.04.1.05.13-.03.01-.03.08-.02.11.02q.07.07.15 0s.06-.03.06-.05c0-.05.04-.05.08-.05.05 0 .09 0 .14.03h.03s-.01.03-.02.03c-.03.01-.07.03-.1.03-.08 0-.14.04-.19.1-.04.05-.1.07-.16.1-.03.05-.06.1-.13.09 0 .03-.02.06.02.07h.07c.08-.02-.02.07.04.06.03 0 .07-.02.07.04 0 .04-.04.02-.06.03-.02 0-.04.03-.07.03-.03 0-.06.01-.07-.04 0-.03-.04-.04-.06 0-.02.05-.05.1-.12.1-.01 0-.02.01-.04.02.02 0 .03 0 .04.01.06.03.05.04.02.09-.03.04-.07.04-.11.04-.04 0-.09-.03-.11.03l.12.03c.07.02.14-.05.21 0 .02-.03.08-.01.09-.06 0-.02-.02-.06.03-.06h.09c.02 0 .03.03.05.04.03.02.05.01.07-.01.01-.02.02-.05.02-.06-.01-.03-.04-.05-.05-.07l.1-.04h.04v.03c0 .02-.04.05-.03.06.02.04.05.01.08 0 .01 0 .04 0 .05.01h.05c.02-.1.07-.04.11-.02 0 0 .03-.01.03-.02s0-.03-.02-.04h-.03c-.03 0-.05 0-.05-.04 0-.02-.02-.04-.03-.07.04 0 .07-.02.1-.02.05.01.1.04.15.07 0 0 .01.04 0 .04-.07.05-.02.08.02.11 0 .01.07.07.08.07v-.05c-.06-.02 0-.06-.02-.1-.01-.04.05-.01.07-.02.03 0 .08.02.1 0 .05-.04.07-.03.11.01.03.04.07.05.11.02 0 0 .02 0 .03-.01v-.02c.02-.02.02-.03 0-.06v-.05l-.04.03c-.07.06-.1.04-.14-.02a.249.249 0 0 0-.19-.07c-.09 0-.03-.04-.02-.06.02-.05.06-.06.09-.02.04.05.1.04.14.07.04.05.1-.05.13.02h.03c0-.01.01-.04 0-.04l-.09-.06.12-.02s.01 0 .01-.01c0-.02-.01-.03-.02-.05h.07v.07h.04c.02-.09.11-.13.16-.2 0-.01.04-.01.05-.01 0 0 0 .02 0 0l-.04.18h-.03c-.04-.02-.05-.02-.07.02-.03.06-.1.11-.17.16h.07l.07.03h.03s.01 0 .01-.01c-.02-.06.07-.03.08-.08 0-.03.05-.04.06-.07 0-.02-.02-.07-.01-.07.05-.03 0-.05 0-.07 0-.02.01-.06.03-.07.02 0 .06 0 .07.02.04.03.08.07.06.14v.04c0-.02.02-.03.03-.05.02-.02.04-.04.1-.04 0 .01.01.03.02.03.03 0 .05 0 .04-.02.04-.02.03-.04.03-.04-.02 0-.03 0-.05.02-.06-.07-.05-.12-.01-.11.07 0 .11-.04.16-.08h.04c0 .02 0 .03-.01.04-.01.02-.04.03-.05.05v.02h.12s.04-.02.05-.04c.02-.02.05-.07.09-.01 0 0 .04-.01.05-.02.01-.02 0-.04.02-.06h.03c.01 0 .03 0 .03.01l-.02.18s-.04-.02-.06-.01c-.02 0-.02.04-.03.05 0 0 0 .02-.01.04.11 0 .11 0 .09.09 0 .02-.02.04-.04.04-.04 0-.09 0-.13.01h-.04v.05s.07.07.12 0c.03-.04.07-.03.11-.02.02 0 .04.04.04.01 0-.04.08-.05.02-.09-.02-.02-.06-.05-.02-.08.05-.04-.02-.05 0-.08 0-.01.02-.03.03-.03.04 0 .08.02.09-.05 0 0 .05-.01.05 0 .05.05.07.04.09-.02 0-.02.04-.03.06-.03.05 0 .12-.03.16 0 .02.02 0 .06 0 .1.03 0 .05.06.09 0 .03-.04.04-.1.11-.09.02 0 .04.02.06.03-.01.02-.02.03-.04.05h-.03c0 .01-.02.04-.01.04 0 .01.03.02.04.02.02 0 .04-.03.06-.04h.04v.03s-.08.04 0 .06c.04 0 .07.01.07-.04v-.03a3.318 3.318 0 0 0-2.32-1.41c-1.55-.2-2.84.56-3.81 1.65h.02s0 .02-.01.02c-.03.04-.07.08-.1.12 0 0-.02.01-.03.02h-.02c-.02.02-.04.05-.06.07 0 0 .02 0 .02.01v.02l-.06.03s-.01.02-.02.03h.04c0 .01-.02.03-.01.04Zm5.64-.83c.05 0 .07.03.09.07 0 0-.01.04-.02.04-.05 0-.11 0-.18.01 0 0-.01-.01-.01-.02.01-.04.08-.1.12-.1Zm-.7.03s.04.02.06.04l-.12.1-.05-.07c.03-.03.07-.06.11-.07Zm-.22.04s.02.02.03.02l-.05.02v-.03s0-.01.02-.01Zm-.21.01h.04v.06s-.04 0-.06.01l-.03-.06h.06Zm-1.58.71s-.02-.02-.02-.03c0-.05.04-.03.07-.04l.02.02s-.05.03-.07.05Zm.07-.06s0-.05.01-.05c.06-.02.13-.03.19-.04l.03.03-.23.06Zm.32-.17h-.02l-.13-.12v-.02h.03c.04.01.05.07.11.06 0 0 .02.03.02.04v.04Zm.13.1s-.02-.02-.02-.03c0 0 0-.02.01-.03h.03l-.02.05Zm.01-.16s-.02 0-.03-.01v-.03l.06.02s-.02.02-.03.02Zm.07-.1c-.12 0-.21-.05-.32-.03l-.02-.02v-.03c.04-.01.09-.05.13-.01.05-.05.09-.03.13.02.01.01.04.01.05.02s.02.03.04.04h-.03v.01Zm0-.11h-.03v-.07l.07.04-.04.04Zm.71-.24H42c.01.04.04.07.08.08l-.05.05-.11-.1s.02-.03.04-.04Zm-.09.17s.05 0 .07.01c0 .02 0 .04-.02.06l-.02.02c-.02.02-.04.07-.05.07-.03 0-.07-.02-.1-.04v-.03s.01-.03.02-.03c.05 0 .09 0 .11-.07Zm-.05-.13s.02 0 .03.01v.03c-.02.05-.06.07-.12.06h-.04s.02-.05.03-.06a.3.3 0 0 1 .1-.04Zm-.12-.07s.02 0 .02.02l-.04.02-.03-.02s.03-.01.04-.02Zm-.16-.04s.06.03.07.05c0 .02-.01.06-.03.12-.02-.05-.04-.08-.04-.11v-.07Zm0 .18s.07.03.11.05c-.01.02-.02.05-.04.07-.04.02-.02-.01-.03-.03 0 0-.01-.02-.02-.02-.03 0-.09.09-.09.13v.03s.02-.02.02-.03l.04-.03.02.05c-.05.03-.03.08-.04.12 0 .01-.02.02-.03.03h-.05c-.02-.07-.07-.07-.14-.07 0 0 0-.01-.01-.02.06-.02 0-.1.07-.11.05 0 .07-.04.07-.09 0-.05.06-.05.09-.06Zm-.11-.09c.05 0 0 .02 0 .04-.02.09-.07.09-.15.09l-.06-.02.04-.04s.03-.02.04-.04c.03-.05.09-.05.13-.04Zm-.41-.12h.01l.01.02-.03.12s-.02.02-.03.02c-.01 0-.04-.02-.03-.02.02-.04.05-.09.08-.13Zm-1.21.19h-.02v-.06l.02.02v.04Zm.07.12h-.04l.04-.06.02.02c0 .02-.01.03-.02.04Zm.33.2s-.05.02-.07.01c0 0-.02-.03-.02-.05 0-.05.04-.04.08-.04l.05.02s-.02.05-.04.06Zm.17-.09s-.04.03-.07.03c0 0-.03-.01-.03-.02s0-.03.01-.04h.11l-.02.02Zm.1.04s0 .05-.04.05c0 0-.03-.01-.02-.01 0-.02 0-.04.02-.05.01-.02.03-.03.04-.04 0 0 .02 0 .02-.01l.02.03s-.03.02-.04.04Zm.08-.36h.04l-.05.05-.02-.02c0-.02.02-.03.03-.04Zm-.06.17s-.08.02-.11.03h-.11s-.02-.02-.01-.02c.02-.05.19-.08.24-.05.04.02.01.05 0 .05Zm-.15-.19h.1c.01 0 .03.02.04.03-.01.01-.03.03-.04.03-.04 0-.08.02-.11-.02 0 0-.02-.01-.02-.02 0 0 .02-.01.03-.02Zm-.06 0-.04.04a.187.187 0 0 0-.03-.04c.01-.01.03-.02.05-.04 0 .01.02.02.02.03Zm-.15-.05.09.04s-.04.04-.06.05c-.01 0-.05-.01-.05-.02 0-.02 0-.04.02-.07Zm-.18.14s.02-.06.05-.07c.02 0 .05.02.08.03v.04c-.04.01-.07.04-.08.08h-.04v-.07Zm.01.23c-.05-.05 0-.09.04-.11.04-.03.09-.03.12-.05.04-.02.05-.06.09-.09h.04c-.05.04.03.07 0 .11-.12.04-.14.05-.22.14-.03.03-.07.06-.11.09 0-.03.04-.07.02-.09Zm-.05.1h.03s.02.04.06.04c.02 0 .03.02.04.03-.01.01-.03.03-.04.03-.05-.02-.1 0-.15.02h-.07s.04-.03.05-.04c.02-.03.09-.02.07-.07Zm-.11-.47.1.05c-.03.02-.04.03-.05.03-.05 0-.06-.02-.07-.05l.02-.03Zm-.27.06h.04l-.02.03h-.04l.03-.02Zm-.14.24h-.05l.04-.03h.06s-.03.03-.05.03Zm-.15-.14c.07 0 .09-.05.14-.08h.04V106.08s0 .05-.04.02h-.08c-.02 0-.05-.01-.07-.03v-.05Zm-.19.05s.05-.02.07 0v.09s-.06 0-.08-.02c-.01 0-.02-.03-.02-.04 0-.01.02-.03.03-.04Zm-.18.17v-.07l.02-.02c.01.02.02.03.03.04.02.02.04.04.01.06-.01 0-.03.02-.05.03l-.02.03s-.02 0-.02-.02h-.02c-.05-.02.02-.04.03-.06Zm-.17-.05h.06s-.02.03-.03.03h-.07l.05-.02Zm-.53.46-.02-.02s.02-.01.03-.01c.01 0 .02 0 .03.01l-.04.02Zm.11-.04-.03-.02c0-.01.02-.02.04-.03 0 0 .02 0 .05.02-.03.01-.04.02-.06.03Zm.11.03h-.02v-.05l.03.02v.03Zm.14-.11s-.01.02-.02.03c-.05.04-.1.04-.14-.02-.03-.05-.02-.06.05-.07.02 0 .04-.01.05-.02l.1-.1h.02v-.02l.04.03v.02c-.02.02-.04.05-.06.07-.03.02-.12.04-.03.08Zm.15-.07s-.04.02-.05.03c-.05 0-.04-.02-.04-.04 0-.01 0-.02.01-.04l.08.05Zm-.19-.26s.04 0 .05-.01h.09s-.01.02-.02.03c-.03.02-.04.06-.09.06-.04 0-.05 0-.05-.02s-.02-.04.03-.05Zm-.07-.02h.02c-.04.04-.07.09-.11.13h-.06c0-.02.11-.12.14-.12Zm-.29.08s.06.01.09.02c0 0-.02.02-.02.03-.04-.04-.07.04-.11.02 0 0-.02-.01-.01-.02.02-.02.04-.06.06-.06Zm-.09.15s.05.02.06.04l-.06.06c-.03-.03-.05-.04-.05-.06 0 0 .04-.04.05-.04Zm-.19.23c.06 0 .05-.02.02-.04v-.03s.04-.01.04 0c.04.02.1.01.11 0 .02-.06.11-.06.16-.09.04-.02.05-.03.05-.05v-.06s0-.02.01-.02c0 0 .02 0 .02.02.01.04.04.04.07 0l.06-.05h.03s.01.01.02.03.05 0 .05 0a.32.32 0 0 1-.07.06h-.03s-.13.06-.06.12c0 0-.01.03-.02.03h-.05v.03s-.01 0-.02.01v-.02c-.13.03-.24.07-.34.13h-.05v-.04Z"/><path class="cls-5" d="M40.43 106.64s.03.04.03.03c0-.01-.01-.03-.02-.03ZM40.97 106.85h.11s.02-.01.02-.02c0-.03-.09-.08-.12-.08-.01 0-.03.02-.03.04s-.01.05.03.05ZM39.17 106.75l-.04-.04h-.02l.02.05h.04ZM38.09 106.82l.21.03c.05 0 .02-.02.03-.04.01-.01.01-.03.02-.05h-.07c-.05.04-.1 0-.15.01h-.04c-.01 0-.02.02-.02.03 0 0 0 .02.02.02ZM44.98 107.49s.02-.03.03-.04c-.03-.01-.07-.03-.1-.04v.02c.02.02.05.04.08.06ZM39.43 106.86h.06s0-.01.01-.02h-.01c-.06 0-.12.01-.16-.04 0 0-.02.01-.02.02 0 .02.01.05.02.06h.09ZM44.39 107.24ZM39.7 106.73s.06-.02.1-.04c.02 0 .04 0 .06-.01l-.05-.02c-.05 0-.1 0-.13.04 0 .01-.03.02-.04.02h.06ZM40.52 106.5s-.05-.01-.08-.01c0 0-.02 0-.02.01l.09.04.02-.04ZM40.35 106.65l.09.04-.03-.05h-.06v.01Z"/><path class="cls-5" d="M40.38 106.58s-.02-.03-.03-.03c-.03 0-.06.03-.08.03-.02 0-.03-.04-.05-.05h-.05c-.01.01-.02.04-.02.05.05.02.11.05.16.07.04.01.05-.02.06-.06ZM42.77 106.37s.04 0 .04-.01c0-.07.02-.13.08-.17v-.02s0-.03-.01-.03h-.04c-.03.07-.06.13-.09.2 0 0 .01.02.02.02ZM39.37 106.36l.05.03s-.02-.04-.07-.06c-.02 0-.04 0-.05.02h.02l-.02.03s.02.01.03.02h.03s0-.03.01-.04ZM37.74 106.85s.03-.03.03-.04c0-.01-.02-.02-.03-.03 0 0-.01 0-.01-.01-.02.03-.03.06-.04.08h.05ZM39.09 106.39v.02-.02ZM41.74 106.69s.08-.01 0 0ZM42.99 106.23s0 .02.01.03c.02-.01.04-.03.06-.05h-.02c-.03 0-.05 0-.05.03ZM40.61 106.31s.02.01.03.01l.07-.04s-.03-.03-.03-.02c-.02.02-.05.03-.07.05ZM39.09 106.44h-.01.01ZM44.39 107.24v.03l.05-.04s-.02-.01-.05.01ZM37.7 106.9s.03.02.06.02h.02l-.06-.03s-.01.01-.01.02ZM40.35 106.85l.01-.02-.04-.07s-.04.03-.05.05l.08.04ZM44.39 107.24v.04-.04ZM44.41 106.88s-.09-.01-.14-.02c-.06-.01-.04.06-.07.07v.06h.06c.02 0 .03-.02.04-.03.04-.02.06-.02.06.04 0 .01 0 .02.01.03.05-.06.08.05.13.02 0 .01.01.02.02.02-.02-.07-.04-.13-.06-.19v.04l-.04-.03ZM44.59 107.43h.09c.02 0 .04-.02.05-.04h.01c-.04 0-.08-.02-.12-.02s-.02.06-.03.09Z"/><path class="cls-5" d="M44 106.21c-.08-.02 0-.04 0-.06v-.03h-.04c-.02.01-.04.03-.06.04-.01 0-.04 0-.04-.02 0-.01 0-.03.01-.04h.03c.01-.01.02-.03.04-.05-.02 0-.04-.02-.06-.03-.07-.01-.08.05-.11.09-.04.05-.06 0-.09 0l.02.11s.1.02.14.05c0 0 .02.01.02.02l-.02.02h-.07c-.05-.01-.06.03-.05.06 0 .02.02.05.03.07.04.04-.01.05.01.08.01 0 .02.01 0 .01 0 .02 0 .03-.02.02l-.02-.04h.02c-.09-.07-.15-.12-.21-.18 0 0-.02 0-.02-.01 0 0-.01.02-.01.03q0 .1-.1.13s-.04.02-.06.03c.07.1.12.13.21.13.05 0 .05.04.04.07q-.02.1.06.12s.05 0 .08.01c.02 0 .04.03.03.04 0 .05 0 .08.05.08.06 0 .08.02.06.09 0 .03-.01.09 0 .1.06.03.12.05.19.07 0 0 .02-.03.02-.04 0-.05-.02-.02-.04 0-.02 0-.04 0-.05-.01-.03-.05-.05-.1-.07-.15 0-.01.04-.04.06-.07v-.01c-.02-.04-.05-.08.02-.08.05 0 .01.05.02.09v.03c.01.01.04.03.05.03.02-.01.04-.04.04-.06 0-.08.07-.09.1-.13.04-.04.08-.03.14-.05a.487.487 0 0 1-.04-.11c0 .01-.01.02-.02.02-.02 0-.03-.01-.04-.02 0 0 .01-.02.02-.02s.02 0 .04.01c-.04-.09-.09-.19-.14-.28 0 .01 0 .02-.03.04.01-.02.02-.03.02-.04 0-.01-.01-.02-.02-.03v.02s-.01-.02-.01-.03c-.03-.05-.06-.11-.1-.16v.03c0 .06-.04.05-.07.04Zm-.29.43-.04-.07h.04s.01.02.01.04c0 0-.01.02-.02.02Zm.21-.29.02.02s.02-.04.03-.04h.06v.06c-.03.04-.06.04-.1.03-.01 0-.02-.02-.02-.04 0 0 .02-.02.02-.03Zm.1.13H44s-.04 0-.05-.01h.04l.02.02Zm-.03.24c-.07.05-.07.05-.11-.03-.02-.04-.03-.08-.04-.12l.04-.04.02.06s.03.08.07.07c.03 0 .05-.05.08 0 0 0-.04.04-.07.06Zm.11-.3c0-.05.02-.06.06-.06-.01.04 0 .06-.02.08-.03.04-.02.07.02.07.07 0 .03.09.09.1 0 .03 0 .06-.02.08-.02.02-.04.03-.07.04-.02 0-.05 0-.02-.04.02-.02.04-.05.01-.07s-.05-.07-.07-.07c-.05 0-.05-.03-.06-.06.07 0 .08-.03.08-.08ZM44.42 107.12l-.08-.02c-.02.08-.07.05-.11.04-.04 0-.04.03-.04.06 0 .02.02.05.03.05.05.01.1.02.17-.01 0 0 0-.01 0 0 .04-.02.04-.02.05-.01l-.04.04c.02.09.03.09.08.06.03-.02.06-.03.09-.04 0-.04-.02-.08-.03-.12-.01 0-.02 0-.03.01-.04 0-.09.01-.08-.07ZM44.97 107.56s.03 0 .04-.02c.03-.02.07-.03.11-.03.01 0 .02.03.04.04.03.04.06.04.08.02-.07-.05-.15-.09-.23-.12-.01 0-.02.02-.03.04-.03-.02-.05-.04-.08-.06v-.02c-.04-.01-.08-.03-.12-.04a1.288 1.288 0 0 1 .18.17ZM43.78 106.51h.02Z"/><path class="cls-5" d="M42.85 106.55s-.01.02-.02.03c-.01.06.02.16.06.24v.04h-.03c-.01 0-.02-.03-.03-.04-.04-.03-.07-.06-.12-.07-.04 0-.08.01-.12.02-.02 0-.04 0-.06-.01 0 0-.02-.03 0-.04.02-.04.08-.06.14-.05.04 0 .07-.05.1 0h.02v-.11c0-.03-.06.06-.05-.01 0-.04.04-.09.08-.11.04-.02.08-.06.13-.04v-.05h.04c.04 0 .09 0 .13-.01.02 0 .04-.02.04-.04.02-.09.02-.09-.09-.09-.02.02-.04.04-.06.05 0 0-.01-.02-.01-.03 0-.04.03-.04.05-.03h.02c0-.02 0-.03.01-.04 0-.02.02-.05.03-.05.01 0 .04 0 .06.01l.02-.18s-.02-.01-.03-.01h-.03c0 .02 0 .05-.02.06 0 .01-.05.03-.05.02-.04-.06-.07-.01-.09.01-.02.02 0 .05-.05.05h-.12v-.03c.02-.02.04-.03.05-.05 0-.01 0-.03.01-.04h-.04c-.05.04-.08.08-.16.08-.04 0-.05.05.01.11.02 0 .03-.01.05-.02 0 0 .01.02-.03.04.02.02 0 .02-.04.02 0 0-.01-.02-.02-.03-.06 0-.08.02-.1.04-.01.01-.02.03-.03.05 0-.02-.01-.03 0-.04.02-.06-.02-.1-.06-.14-.02-.02-.05-.02-.07-.02-.02 0-.02.04-.03.07s.05.04 0 .07c0 0 .02.05.01.07-.01.03-.05.05-.06.07 0 .05-.1.01-.08.08l-.01.01h-.03l-.07-.03h-.07c.07-.05.14-.11.17-.16.02-.04.03-.05.07-.02h.03l.04-.18c-.02 0-.05 0-.05.01-.04.07-.13.12-.16.2h-.04v-.07h-.07s.01.03.02.05c0 0 0 .01-.01.01l-.12.02.09.06v.04s-.03.01-.03 0c-.04-.07-.09.03-.13-.02-.03-.04-.1-.03-.14-.07-.03-.04-.07-.02-.09.02-.01.02-.08.07.02.06.07 0 .14.02.19.07.05.05.07.07.14.02l.04-.03v.05c0 .03.02.04 0 .06v.02s-.02 0-.02.01c-.04.03-.08.02-.11-.02s-.06-.05-.11-.01c-.02.02-.06 0-.1 0-.03 0-.09-.02-.07.02.01.03-.04.08.02.1v.05h.04c.01-.02.02-.03.03-.04.02-.02.04-.05.07-.06h.05c.02.01.03.04-.05.09.08-.01.01 0 0 0-.14.04-.01.08-.12.09-.05 0-.06.08-.02.12.01.01.04.02.05.03.03.02.08.01.09-.02.01-.05-.04-.02-.05-.04 0-.02-.04-.04-.03-.05 0-.02.03-.04.05-.04.02 0 .04.01.05.03.01 0 .02.03.02.04 0 .02 0 .04.01.06.02.07.06.09.13.08 0 0 .02-.01.02-.02 0-.02 0-.04-.01-.04-.05-.01-.07-.02-.03-.07.01-.02.01-.05.02-.07l.02-.02s.02.02.01.03c-.04.07.06.06.06.11 0 .01.01.02.02.03 0 0 0-.02.01-.03v-.03c0-.04.04-.04.06-.02.02.02.03.04.04.07.01.04.02.01.04 0h.05c.06.06.13.08.21.05v-.09l-.03.04c-.04-.04-.11.03-.14-.05-.01-.03-.04-.07-.09-.07-.07 0-.12-.06-.18-.08-.04-.01-.01-.03 0-.04.02-.02.04-.04.07-.01l.06.06c.01.01.02 0 .05-.05 0 0 .02-.01.03-.02.03.02.07.04.1.07.01.01 0 .04 0 .07h.05c0 .03.02.06.03.06 0 0-.01 0-.01.01H42.7c0 .06.1.03.09.1l.04.03c.03-.02.05-.05.05.02v.05s.04.02.04 0c.02-.03.02-.06.08-.03.04.02.1-.06.11-.14.01-.08.01-.08.09-.03.02.01.06 0 .02.04l-.06.05s-.01.02-.02.02c0 0 .02.01.03.02h.1s.02-.01.02 0h.05-.04c0 .07.04.06.07.04.02 0 .02-.04.04-.04.05 0 .09.02.14-.02 0 0 .02.02.02.03-.05.04-.02.05.02.05.02 0 .04-.02.06-.02.04 0 .07.01.06-.04 0-.03.04-.08-.03-.1-.02 0-.05-.02-.06-.04-.04-.05-.05-.04-.06.02 0 .04-.03.04-.05.04-.06 0-.08-.04-.09-.08-.12 0-.2-.11-.3-.16-.01 0-.03-.01-.04-.02-.04-.01-.07.01-.05.05.04.06 0 .05-.03.04-.02 0-.04 0-.04-.02l-.03-.12-.06-.05-.02-.02Zm0-.39h.04s0 .02.01.03v.02c-.06.04-.09.1-.08.17 0 0-.03.01-.04.01l-.02-.02c.03-.07.05-.13.09-.2Zm-.48.55v-.04c.03.01.06 0 .09.02h-.09Zm.14.12-.04.02v-.05h.03s.02 0 .03.01c0 0-.01.02-.02.02Zm0-.45c-.04.08-.05.08-.12.08-.01.05.07.02.07.09 0 .07.01.07-.06.08h-.02l-.03.03c-.05-.07-.12-.07-.2-.07h-.02c.08-.05.16-.11.26-.13.02-.05.05-.07.11-.06l.02-.02s-.05-.02-.04-.05c0 0 0-.02.02-.03h.07l-.02.06c.04-.06.06-.06.07-.05.02 0 .04.03.04.04 0 .03.02.08-.03.09l-.04-.02c.06-.06.02-.05-.03-.04h-.03Zm.46.53s.06-.09.1-.06c.04.03.02.08-.02.11-.02.01-.02.04-.05.09-.02-.07-.05-.12-.04-.14Z"/><path class="cls-5" d="m42.22 106.76.04.05s.01-.02.02-.05c-.01 0-.02-.01-.03-.01-.01 0-.02 0-.03.02ZM43.57 106.18s-.03-.02-.05-.03c.02-.02.04-.04.06-.05h.11c0-.03.01-.08 0-.1-.05-.04-.11 0-.16 0-.02 0-.06.01-.06.03-.02.06-.04.08-.09.02h-.05c0 .07-.05.04-.09.05-.01 0-.02.02-.03.03-.02.03.05.04 0 .08-.04.03 0 .06.02.08.06.04-.02.06-.02.09s-.02 0-.04-.01c-.04-.01-.08-.02-.11.02-.05.07-.08.02-.12 0-.02.02-.05.04-.06.07v.05c.09 0 .04.07.05.11.07-.03.13-.04.2 0 .02 0 .05.03.05.02.04-.05.07-.01.11.01.03.02.08.05.09.04.05-.05-.02-.07-.04-.11l-.03-.06a.18.18 0 0 1-.05-.07l.09-.04s.03 0 .04-.01c.01 0 .03-.02.04-.03-.01 0-.03-.01-.04-.02l-.08-.05s.05-.03.07-.04h.06q.02-.07.08-.04s.04.01.06.02v-.06ZM43.24 106.03c.07 0 .12 0 .18-.01 0 0 .02-.03.02-.04-.02-.04-.03-.07-.09-.07-.04 0-.11.06-.12.1l.01.02Z"/><path class="cls-5" d="M43.58 106.24s.04.07.06.09c0 .01.04.02.04.02.01-.01.02-.03.03-.05 0-.03 0-.06.01-.08-.05 0-.1 0-.14.02ZM42.25 106.05v-.07h-.04l-.06.02.03.06s.05 0 .06-.01ZM43.74 107.11l.02.04s.05-.03.08-.04l-.04-.03s-.04.02-.05.04ZM43.47 106.33s.02-.01.05-.03c-.02-.02-.03-.03-.05-.04 0 0-.03 0-.03.01 0 .03 0 .06.03.05ZM42.71 105.98s-.05-.05-.06-.04c-.04.02-.08.04-.11.07 0 0 .03.05.05.07l.12-.1ZM43.54 107.13l.05.05s.02-.02.01-.03c0-.02-.02-.03-.02-.05l-.04.02ZM42.55 107s.05.03.07.03c.03 0 .06-.01.09-.02l-.08-.05-.08.04ZM43.52 106.72v.06h.03l-.01-.09s-.02.02-.02.03ZM43.47 106.85v.03h.03l-.01-.06s-.02.02-.02.03ZM43.49 106.68s-.03 0-.03.01v.05s.02 0 .02-.01v-.05ZM43.36 106.46h-.04l.03.03.03-.02s-.01-.02-.02-.02ZM42.39 106.56v-.05c-.01 0-.03.01-.03.02v.04s.02 0 .02-.01ZM37.53 107c.09.03.16-.02.24-.03v-.06h-.02c-.03 0-.06 0-.06-.02 0 0 0-.01.01-.02.02 0 .04.02.06.03.02.01.04.02.06.02.02.01.04.02.06 0h.01l.09-.05s-.03.04-.05.06c-.01.01-.02.02 0 .03.02 0 .03.02.05 0 .03-.02.06-.04.09-.05 0 0 .01-.02.02-.03l.02.02s.01.02.03.03c.02.01 0 .06.06.04.07-.02 0-.04-.02-.06v-.02h.04c.02 0 .04.03.05.03.04 0 .08.03.12-.01.08-.08.1-.08.21 0 .03.02.05.04.08.05.01 0 0 .04.03.02v-.04c0-.02 0-.05.04-.02.04.04.08.04.12 0 .07.04.1-.01.14-.05v-.04h-.04c-.02.02-.03.03-.06 0-.03-.02-.07-.02-.11-.02-.04 0-.07.02-.1.03h-.08c-.02 0-.03-.03-.05-.05.02 0 .04-.02.05-.02h.07c.04 0 .05-.01.04-.04-.02-.05.03-.05.07-.05.03 0 .05.02.08.02.05 0 .01.02 0 .04-.02.02-.02.05.03.05.04 0 .11.02.11-.05 0 0 .03-.02.04-.01.01 0 .02.02.02.03 0 .02-.02.04-.03.06 0 .02 0 .05.04.04h.05l-.02-.04s.03-.04.04-.04c.03 0 .1.06.09.08-.01.02-.05.02-.07.03h-.05l.02.05c.05.04.11.04.14.02.05-.04.06.04.09 0 .02-.02.04-.04.07-.06h.05c.05 0 .07-.02.05-.06 0-.02-.02-.04-.03-.06v-.02h.03c.05.07.15.03.21.07.07-.03.13-.03.16.05 0 0 .07.03.08-.03 0 0 0-.02.01-.02 0 0 .02.01.02.02v.02l.02.08c.05-.05.1 0 .15 0 .05 0 0-.11.07-.04.03.02.08 0 .12 0 .04 0 .07 0 .1-.03.04-.05.05-.03.06.02h.08a.2.2 0 0 1 .22.03c.02.02.03.03.05 0 .02-.03.04-.02.08-.01.05.01.13.04.15-.05.05 0 .09 0 .13.03.05.04.11.05.16.08.01 0 .03-.01.05-.02 0 0 0-.03-.02-.04h-.03l-.08-.05s.04-.05.04-.08c0-.04.02-.03.04 0 .03.05.06.04.09 0l.04-.05-.08-.07c-.03-.04-.08-.07-.02-.11v-.04c-.05-.03-.1-.06-.15-.07-.03 0-.07.01-.1.02.01.02.03.04.03.07 0 .04.02.05.05.04h.03c0 .01.02.03.02.04 0 0-.02.03-.03.02-.04-.01-.09-.08-.11.02h-.05c-.02 0-.04-.02-.05-.01-.03.02-.05.05-.08 0 0-.01.02-.04.03-.06v-.03H41l-.1.04s.05.05.05.07c0 .02 0 .04-.02.06-.02.02-.04.04-.07.01-.02-.02-.03-.04-.05-.04-.03 0-.06-.01-.09 0-.04 0-.02.04-.03.06 0 .05-.07.04-.09.06-.07-.05-.14.02-.21 0l-.12-.03.04.07s0 .02-.01.02l-.08-.04.05-.05c.02-.06.07-.02.11-.03.04 0 .08 0 .11-.04.04-.04.04-.05-.02-.09-.01 0-.03 0-.04-.01.01 0 .02-.02.04-.02.07 0 .1-.05.12-.1.02-.04.06-.04.06 0 .01.05.04.04.07.04.02 0 .04-.02.07-.03.02 0 .06.02.06-.03s-.04-.04-.07-.04c-.06 0 .04-.08-.04-.06h-.07c-.04 0-.02-.04-.02-.07l-.07.04s-.02 0-.03-.01c.02-.02.05-.04.07-.05 0 0 .02 0 .03.02.07 0 .1-.04.13-.09-.02 0-.05.01-.07.02-.03.01-.05.02-.06-.02 0-.05-.05-.04-.07-.03-.03.01-.05.04-.06.06-.01.04.02.09-.06.1 0 .01.01.02.02.03v.04s-.16.04-.17.03c-.03-.04-.07-.05-.11-.03-.04.02-.11.01-.12.06s-.05.09-.11.11c-.05.02-.06.03-.07-.02 0-.03-.04-.01-.07 0-.04.02-.09.05-.11-.02 0 0-.05-.01-.07 0-.03.01-.03.04 0 .05.03.02 0 .03 0 .04-.02.01-.04.02-.05.02q-.07-.02-.09 0l-.06.07s-.11.04-.17 0v-.02c.06 0 .09-.04.14-.06v-.03h-.02c-.03.05-.05-.01-.08 0h-.1c0 .05-.03.08-.09.09h-.03s.05-.09.12-.09c.02-.09.1-.12.2-.08.08.03.15.02.18-.04a.37.37 0 0 1 .19-.18c.03-.02.07-.05.07-.07 0-.03-.04-.04-.08-.05-.07-.02-.14-.02-.2-.08-.03-.03-.04-.04.02-.05.04 0 .11-.09.11-.12 0 0 0-.02-.01-.02h-.02c-.05.06-.16.08-.17.17 0 .02-.04.03-.06.05-.01.01-.02.03-.03.04.02 0 .05.01.05 0 .03-.04.06-.04.09 0 .04.04.09.07.16.05 0 0 .03.01.03.02s0 .03-.02.04c-.05.02-.1.05-.16.04 0-.07-.06-.04-.11-.04s-.09 0-.14-.01c-.06 0-.07-.03-.04-.07 0-.01.04-.03 0-.04l-.06-.02s-.06 0-.05.05c0 .02.04.04.03.05-.01.02-.04.05-.06.07 0 0-.04-.02-.06-.02h-.06c0 .01.02.02.03.04 0 0 .02.01.02.02h.02s-.05 0-.08-.02c0 0-.03 0-.05.02-.05.03-.05.09-.11.12-.04.02-.06.02-.09 0a.21.21 0 0 1-.06-.04l.06-.05s-.05-.06-.08-.06 0-.01-.01-.01h-.03v.02s-.04.05-.03.07v.02s0 .02.02.02 0 .02-.02.03l.02.02.04-.03v.04c0 .01-.02.03-.02.04v.03c0-.02-.02-.02-.05-.01-.02 0-.04.02-.04.03 0 .03.06.06.09.05 0 0 .01-.02.02-.02v-.02h.09s-.04-.04-.06-.05c.03 0 .05-.02.24-.07-.12.05-.08.05-.05.07.02 0 .04.02.06.02h.06s.02-.02.03-.04c.01-.02.03-.03.04-.05h.04c.04-.03.08-.05.18-.05-.01 0-.02 0-.03-.02l.02-.02h-.02s.04-.04.05-.04c.05.02.09.04.07.06l-.05-.03s-.01.03-.01.04h-.03.04c-.07.02-.09.04-.09.05 0 .04-.02.07-.05.09-.03.02-.05.04-.08.06-.02.01-.03.02-.05.03v-.02s-.04.01-.06.02c-.02.02-.09.05-.13 0h-.14s-.08.05-.14.06c-.06.01-.13 0-.18.04h-.05c-.04-.02-.08-.06-.14 0h-.02c-.07-.05-.13-.03-.21.02-.03.02-.13.03-.16.01-.06-.02-.08.02-.13.02l.01.01c.01.01.03.02.03.03 0 .01-.02.03-.03.04h-.05c0-.03.02-.05.04-.08 0-.01-.02-.02-.03-.04 0-.01 0-.03.01-.04h-.04c-.06.07-.11.15-.17.22-.07.02-.13.03-.19.05h.08c.04 0 .09 0 .12.02Zm3.41-.2s.02-.04.03-.04c.03 0 .12.05.12.08 0 0 0 .02-.02.02h-.11s-.03-.04-.03-.06Zm-.52-.16s.02.02.02.03c0 0 0 .01-.03-.03Zm.02-.15s.05 0 .08.01l-.02.04-.09-.04s.02-.02.02-.01Zm0 .21-.09-.04s.04-.01.06-.01l.03.05Zm-.27-.17h.05c.02.02.04.05.05.05.03 0 .05-.02.08-.03 0 0 .01 0 .03.03-.01.03-.02.07-.06.06-.06-.01-.11-.04-.16-.07 0 0 0-.04.02-.05Zm-.49.17s.07-.03.13-.04l.05.02s-.04 0-.06.01c-.03.01-.06.03-.1.04h-.06c.01 0 .03-.01.04-.02Zm-.34.09c.04.05.1.04.16.04h.01s0 .02-.01.02h-.15c-.01 0-.02-.04-.02-.06 0 0 .02-.01.02-.02Zm-.25-.4v.02-.02Zm.01.05h-.01.01Zm.32-.04s.05.01.06.01h.02-.03c-.02 0-.03-.02-.05-.03Zm-.28.31.04.04h-.04l-.02-.05h.02Zm-1.04.07h.04c.05-.02.1.03.15-.01h.07c0 .02 0 .04-.02.05-.01.01.02.04-.03.04l-.21-.03s-.02-.01-.02-.02c0 0 .01-.02.02-.03ZM41.19 105.99l.1-.03.02-.02h-.03s-.09-.05-.14-.04c-.04 0-.07 0-.08.05 0 .02-.04.03-.06.05-.08.08-.08.08-.15 0-.04-.03-.1-.05-.11-.02-.03.08-.07.07-.13.03h-.05c0 .02 0 .05.01.05.05.01.09.04.15.03.1-.02.1-.01.11.09.06-.03.11-.05.16-.1a.32.32 0 0 1 .19-.1Z"/><path class="cls-5" d="M37.88 106.72c.1-.05.21-.1.32-.13v.02s.03 0 .03-.01v-.02h.05l.02-.04c-.06-.05.02-.08.06-.11s.03 0 .03 0a.32.32 0 0 0 .07-.06h-.05c-.01-.02-.02-.02-.02-.03h-.03l-.06.05s-.06.03-.07 0l-.02-.02-.01.02v.06c0 .03-.01.04-.05.05-.05.03-.14.03-.16.09 0 .02-.07.02-.11 0h-.04s-.01.03 0 .03c.04.02.05.03-.02.04v.04h.05ZM41.37 106.22c-.07.01 0 .09-.07.11 0 0 0 .02.01.02.06 0 .11 0 .14.07h.05s.03-.02.03-.03c0-.04-.01-.09.04-.12 0 0-.01-.03-.02-.05l-.04.03s-.02.02-.02.03v-.03c0-.03.06-.12.09-.13 0 0 .01.02.02.02 0 .01 0 .05.03.03.02-.01.03-.04.04-.07-.04-.02-.08-.05-.11-.05-.03.01-.09 0-.09.06 0 .05-.02.09-.07.09ZM40.04 106.27c.08-.09.1-.1.22-.14.02-.04-.06-.07 0-.11-.02 0-.04-.01-.04 0-.03.03-.05.07-.09.09-.04.02-.09.03-.12.05s-.09.05-.04.11c.01.02-.02.06-.02.09.04-.03.07-.06.11-.09Z"/><path class="cls-5" d="M38.54 106.49s.05-.04.06-.07v-.02l-.02-.03v.02h-.03l-.1.1s-.03.02-.05.02c-.08.01-.09.02-.05.07.04.05.09.06.14.02 0 0 .02-.02.02-.03-.09-.05 0-.06.03-.08ZM41.18 106.24s-.08-.07-.13-.02c-.05-.04-.09 0-.13.01v.03c0 .01.01.02.02.02.11-.02.2.04.32.03h.03s-.02-.04-.04-.05-.04-.01-.05-.02ZM39.3 106.13s.06-.02.08 0c.04.02.05.02.05-.02v-.04s0-.05-.01-.07c0 0-.03-.02-.04 0-.04.03-.07.08-.14.08 0 .02-.01.04 0 .05.02.02.04.02.07.03ZM41.26 106.04l-.04.04.06.02c.07 0 .13 0 .15-.09 0-.02.05-.04 0-.04s-.1-.01-.13.04c0 .01-.02.02-.04.04ZM40.26 106.13s0 .02.01.02h.11s.07 0 .11-.02c.02 0 .05-.03 0-.05-.05-.03-.22 0-.24.05ZM41.74 106.22v.03c.03.02.07.04.1.04.02 0 .04-.05.05-.07l.02-.02c0-.02.01-.04.02-.06-.03 0-.07-.01-.07-.01-.02.06-.05.07-.11.07 0 0-.01.02-.02.03ZM39.79 106.48h.07s.09-.03.15 0c0 0 .03-.02.04-.03-.02 0-.03-.03-.04-.03-.04 0-.07 0-.06-.04h-.03c.01.05-.05.04-.07.07-.01.02-.03.02-.05.04ZM39.96 106.11H40s.03-.06.08-.07V106c-.02-.02-.06-.04-.08-.03-.02 0-.03.04-.05.07v.07ZM38.5 106.32c.05 0 .06-.04.09-.06 0 0 .01-.02.02-.03h-.09c-.02 0-.04 0-.05.01-.05.01-.03.03-.03.05 0 .03.02.03.05.02ZM42.08 106.04s-.07-.04-.08-.08h-.05c-.02 0-.04.04-.04.04l.11.1.05-.05ZM40.1 106.32s0 .05.02.05.05 0 .07-.01.03-.04.04-.06l-.05-.02s-.09 0-.08.04ZM40.91 106.54c-.07 0-.13.02-.19.04 0 0 0 .04-.01.05l.23-.06s-.02-.03-.03-.03ZM39.11 106.2v-.04s.01-.04 0-.05c-.01-.03-.05-.01-.07 0-.01 0-.03.02-.03.04s0 .04.02.04c.02.01.05.01.07.02ZM37.86 106.53s.07-.08.1-.12c0 0 0-.02.01-.02h-.02c-.05.05-.09.11-.14.16h.02s.02-.01.03-.02ZM37.78 106.63s-.01 0-.02-.01c-.02.02-.03.04-.05.06.02 0 .04-.02.06-.03 0 0 .01-.02 0-.02ZM40.92 106.32h-.03v.02l.13.12h.02v-.04s-.01-.04-.02-.04c-.05 0-.07-.05-.11-.06ZM41.73 106.09c.05 0 .09-.01.12-.06V106s-.02-.01-.03-.01c-.03.01-.07.03-.1.04-.02 0-.02.03-.03.04h.04v.01ZM38.08 106.38s.07-.06.11-.02c0 0 .03-.03.02-.03-.02-.01-.05-.03-.09-.02-.02 0-.04.04-.06.06 0 0 0 .01.01.02ZM40.45 105.99s.03-.02.04-.03c-.02 0-.03-.02-.04-.03s-.03 0-.05 0h-.05s-.02.01-.03.02c0 0 .02.01.02.02.03.04.07.02.11.02ZM38.85 106.33s.01 0 .02.02l.02-.03s.04-.02.05-.03c.03-.02.01-.04-.01-.06-.02-.01-.02-.03-.03-.04 0 0-.02.01-.02.02v.07c0 .02-.07.04-.03.06h.02ZM41 105.98l.03-.12v-.02h-.02c-.03.04-.05.09-.08.13 0 0 .02.02.03.02 0 0 .03 0 .03-.02ZM40.47 106.25l-.04.04c-.01.02-.02.03-.02.05l.02.01c.04 0 .04-.02.04-.05 0-.02.02-.03.04-.04l-.02-.03s-.02 0-.02.01ZM40.23 105.93l-.09-.04s-.02.04-.02.07c0 0 .04.02.05.02.02 0 .04-.03.06-.05ZM39.84 105.98s.02-.01.05-.03c-.04-.02-.07-.04-.1-.05 0 0-.03.02-.02.03.01.03.02.06.07.05ZM40.33 106.25h-.05c-.01 0-.02.03-.01.04 0 0 .02.02.03.02.02 0 .05-.02.07-.03l.02-.02h-.06ZM38.43 106.23h-.02c-.03 0-.14.1-.14.12h.06c.03-.04.07-.09.11-.13ZM40.61 106.66l.02.03c.02-.01.05-.03.07-.05l-.02-.02s-.08-.02-.07.04ZM38.58 106.49s0 .05.04.04c.01 0 .02-.01.05-.03l-.08-.05s-.01.02-.01.04ZM38.24 106.62s.02.02.03.02c.02 0 .03-.01.06-.03-.03-.01-.04-.02-.05-.02-.02 0-.03.02-.04.03ZM38.04 106.55s.07-.05.06-.06c-.01-.02-.04-.03-.06-.04 0 0-.05.03-.05.04 0 .02.03.03.05.06ZM41.21 106.2h.03c.01 0 .02-.02.04-.04l-.06-.04v.07h-.01ZM37.16 107.06s.03.01.05.02c0 0 .02 0 .04-.02-.03 0-.05-.01-.07-.01 0 0-.03.01-.02.01ZM39.87 106.1l-.04.05h.04s.01-.02.02-.03l-.02-.02ZM38.75 106.23h-.06l-.05.01h.07c.01 0 .02-.01.03-.02ZM40.54 106.02l.05-.05s-.04-.02-.04 0c-.01 0-.02.03-.03.04l.02.02ZM40.24 105.99s.04-.03.04-.04c0 0-.01-.02-.02-.03-.02.01-.04.02-.05.04 0 0 .01.02.03.04ZM39.34 106.2h.05c.02 0 .03-.02.05-.02h-.06l-.04.02ZM41.23 106.93s0 .02.02.03c0-.02.01-.03.01-.04 0 0 0-.02-.02-.02 0 .01-.01.03-.02.04ZM37.27 107.05l.01.01h.03l-.02-.03s-.02 0-.02.01ZM41.14 106.54s.01.02.02.03l.02-.04h-.03s-.01 0-.01.01ZM41.14 106.4s.02.01.03.01c.01 0 .02-.01.03-.02l-.04-.02v.03h-.01ZM39.78 105.98v.06h.02V106l-.02-.02ZM41.72 105.94l-.02-.02c-.02 0-.03 0-.04.02l.03.02.04-.02ZM38.15 106.67l.02.02.04-.02s-.02-.01-.03-.01c0 0-.02 0-.03.01ZM39.57 105.97h-.07.04s.02-.01.02-.02ZM42.46 105.99s-.02-.02-.03-.02c0 0-.02 0-.03.01v.03l.06-.02ZM41.58 106.05c.02-.06.04-.1.03-.12 0-.02-.04-.03-.07-.05v.07c0 .03.02.05.04.11ZM38.36 106.68h.02v-.03s-.01 0-.03-.02v.05Z"/></g></g><g id="Outline"><path class="cls-6" d="M87.42 111.94c.08 0 .18-.07.23-.28.05-.2.01-.56-.23-.9-.24-.34-.64-.65-1.19-.82-.28-.08-.6-.12-.96-.08-.32.04-.64.13-.94.25-.61.24-1.16.61-1.66.89-.26.15-.46.24-.7.31-.23.07-.46.1-.62.08-.17-.02-.23-.06-.29-.14-.08-.06-.1-.13-.15-.35-.04-.2-.05-.51-.03-.87.03-.4.05-.8.08-1.21.02-.44.03-.95-.08-1.51-.05-.28-.16-.58-.3-.88-.18-.3-.37-.59-.64-.8-.51-.48-1.24-.68-1.82-.66-.6.01-1.12.18-1.57.43-.92.53-1.38 1.25-1.75 1.83-.35.59-.61 1.09-.87 1.58-1.01 1.93-1.49 3.22-1.21 3.4.28.18 1.27-.77 2.64-2.47.69-.81 1.46-2.07 2.21-2.37.18-.08.39-.11.54-.1.16.02.23.05.27.13.07.06.11.13.15.37.04.23.05.55.03.93-.02.38-.06.78-.07 1.23-.01.44-.01.93.12 1.49.05.27.18.57.33.85.18.28.39.55.65.74.5.43 1.19.61 1.73.59 1.1-.04 1.87-.52 2.45-.95.55-.43.95-.8 1.31-1.03.18-.12.35-.21.51-.28.12-.06.26-.09.41-.09.29-.01.57.06.76.15.39.17.49.5.67.52Z"/><path class="cls-12" d="M35.36 153.43c-.33 0-.54 3.98-.46 8.87.08 4.9.41 8.86.74 8.85.33 0 .54-3.98.46-8.87s-.41-8.86-.74-8.85ZM50.69 154.08c-.34.09.46 3.89.72 8.63.29 4.74-.06 8.61.29 8.66.31.06 1.21-3.84.91-8.73-.27-4.89-1.63-8.66-1.93-8.56ZM42.44 176.16c-.05-.33-2.31-.28-5.07.1-2.75.39-4.94.96-4.9 1.29s2.31.28 5.07-.1c2.75-.39 4.94-.96 4.9-1.29ZM57.07 176.64c0-.33-2.05-.55-4.56-.48-2.51.07-4.54.4-4.53.73 0 .33 2.05.55 4.56.48 2.51-.07 4.54-.4 4.53-.73Z"/><path class="cls-6" d="M33.42 124.57c-.33-.07-1.02 1.96-1.54 4.52-.52 2.56-.69 4.7-.36 4.76.33.07 1.02-1.96 1.54-4.52.52-2.56.69-4.7.36-4.76ZM55.53 126.82c.07-.14-.36-.53-1.19-.93-.82-.4-2.05-.79-3.45-.92-1.4-.13-2.68.03-3.56.28-.88.25-1.38.55-1.34.7.09.34 2.21-.03 4.79.22 2.58.22 4.59.97 4.75.65ZM57.5 133.34c-.1-.15-.86.23-2.11.72-.62.25-1.37.49-2.22.72-.85.21-1.79.4-2.79.51-1 .1-1.96.11-2.84.07-.87-.05-1.66-.14-2.32-.25-1.32-.22-2.14-.44-2.21-.27-.06.14.66.65 2.01 1.1.67.23 1.5.41 2.43.53.93.1 1.97.12 3.06.02 1.08-.12 2.09-.36 2.99-.65.89-.31 1.66-.66 2.27-1.02 1.23-.72 1.83-1.36 1.74-1.49Z"/><path d="M149.4 167.42c.66-.04.36-13.58-.67-30.24-1.04-16.66-2.41-30.13-3.08-30.09-.66.04-.36 13.58.67 30.24 1.04 16.66 2.41 30.13 3.08 30.09Z" style="fill:#ce9352"/></g></svg>