<svg xmlns="http://www.w3.org/2000/svg" viewBox="0 0 200 200"><defs><clipPath id="clippath-4"><path class="cls-1" d="M142.45 110.8c-1.61-2.11-4.75-7.18-10.76-10.57 0 0-13.92 16.73-37.82 20.06-23.89 3.34-41.85-6.36-41.85-6.36-9.73 12.57-9.35 26.97-9.15 34.44.21 7.79.58 21.72 10.14 31.59 3.86 3.98 12.04 10.22 17.86 8.92.63-.14 1.61-.46 3.07-.4 4.15.16 5.43 3.08 9.04 4.25 3.81 1.24 4.38-1.37 9.75-.98 5.74.42 6.36 3.49 12.1 3.73 1.13.05 4.96.16 8.76-1.93 3.95-2.18 3.79-4.49 7.73-6.24 3.24-1.44 4.26-.27 7.5-1.56 3.46-1.38 5.07-3.81 7.67-7.01 5.95-7.33 7.8-7.19 10.91-11.31 6.4-8.47 6.1-18.99 5.91-25.62-.13-4.57-1.11-18.18-10.87-31.01z"/></clipPath><style>.cls-1{fill:none}.cls-2{fill:#78577a}.cls-3{fill:#f0a4ae}.cls-4{fill:#864732}.cls-6{fill:#db552a}.cls-7{fill:#f45f29}.cls-11{fill:#fd7f03}.cls-12{fill:#f4c044}.cls-14{fill:#9eb2b3}.cls-16{fill:#fb678a}.cls-17{fill:#b2c8ca}</style></defs><path d="M171.66 24.7c-3.87-5.21-8.32-10.67-14.56-13.04-6.69-2.54-14.97-.53-21.72.98-7.43 1.66-14.65 4.26-21.5 7.58-6.34 3.07-13.18 6.4-11.83 14.62 1.22 7.39 7.79 12.76 8.86 20.01.95 6.41-7.18 20.79-14.91 19.3-2.56-.49-4.52.81-5.52 2.61-8.59 1.55-17.33 2.66-25.48 5.11-15.77 4.75-30.79 13.18-41.19 26.18-10.94 13.67-14.93 30.41-13.58 47.72.29 3.75.34 8.31 2.24 11.69 2.06 3.66 6.1 5 9.73 6.58 8.64 3.77 17.34 6.98 26.71 7.84 2.53 1.92 6.9 1.59 8-2.39a44.62 44.62 0 0 1 1.63-4.77c3.55-.19 5.15-4.37 3.79-7.27a42.442 42.442 0 0 1 25.11-18.06c16.75-4.3 34.45-.87 51.27-5.05 15.13-3.77 28.48-13.67 36.58-26.97 5.03-8.26 8.97-18.97 9.92-29.5 4.48-21.72.06-44.82-13.55-63.16zm-59.2 9.32c-.04.11-.06.22-.09.33-.05-1.01.45-1.82 1.68-2.88a6.25 6.25 0 0 0-1.6 2.55zm6.18 32.73c.2-.45.37-.91.55-1.37.09.25.19.49.29.73-.28.21-.55.43-.83.63z" style="fill:#edebe8" id="BG_Strong"/><g id="Illustrations"><path class="cls-11" d="M99.45 54.24c-13.97-5.29-58.67-2.23-41.99 11.18 33.26 26.73 121.81 19.07 41.99-11.18z"/><path d="M37.03 79.59c-.41.37-.3 1.06-.23 1.47.07.39.19.67.21.7 1.3 2.81 2.52 5.72 3.9 8.5 1.56 3.14 2.94 6.49 4.56 9.42.33.6 1.02 1.7 1.79 1.99.42.16.59.13.86-.19.47-.56-.23-1.84-.55-2.46-1.18-2.23-1.96-4.54-3.14-6.78-2.3-4.35-3.4-6.67-3.61-7.24-.63-1.69-1.92-3.14-2.31-4.9-.02-.1-.1-.47-.4-.65-.31-.19-.81-.12-1.09.14z" style="fill:#cccac8"/><path class="cls-6" d="M35.19 76.58c-1.84 1.24-2.7 1.87-3.48 4.37-.48 1.52-1.34 5.33-.69 5.62.64.29 1.2-.52 1.95-1.58.56-.79 1.06-1.88 1.44-1.88 1.33-.01.81 2.45 1.17 2.62.29.13.77-.2 1.06-.53 1.13-1.28.08-3.29 1.83-3.84 1.45-.45 3.17 1.05 4.31.1.71-.59-1.29-1.53-.98-2.12.35-.69 2.07-.06 3.59-.15 1.07-.06 1.2-.5 1.15-.93-.06-.5-1.36-1.03-2.68-1.41-4.4-1.25-3.92-1.74-5.6-1.53-1.46.19-2.49.87-3.07 1.26z"/><path class="cls-2" d="M160.03 91.64c.32-1.55 1.55-2.44 3.81-4.26 2.9-2.33 3.27-3.53 7.66-6.8.96-.71 2.04-1.46 2.52-1.13.57.4-.2 2.29-.24 2.4-.52 1.58-1.21 2.25-1.25 3.4-.03.87.44 1.02.52 1.11.87 1.1 4.69 1.8 4.69 2.95 0 .52-.72.58-2.01.99-1.88.61-2.18.52-2.42 1.02-.2.42-.12.99.21 1.34 1.86 1.9 3.7 3.98 2.81 4.63-.68.5-2.07-.43-3.7-1.29-2.26-1.19-4.77-2.5-7.55-2.57-2.29-.06-3.53.75-4.45-.13-.86-.83-.63-1.6-.62-1.66zM147.91 92.06c-3.42-.37-6.84-1.22-9.76-1.71-.59-.1-1.19-.05-1.38.27-.24.42.32 1.15.45 1.32.92 1.2 2.07 1.7 2.6 2.18.18.16.52.41.52.7 0 .83-2.78 1.58-2.19 2.59.17.29.65.32 1.47.42 1.56.2 2.48.31 2.96.9.47.57.14 1.39.04 1.7-.42 1.35-1.29 3.34-.4 3.72.84.37 2.28-.46 2.89-.96 2.65-2.21 2.48-2.55 4.86-4.99 1.12-1.15 2.09-1.41 2.48-2.6.1-.3.47-1.55-.15-2.45-.56-.83-1.54-.77-4.4-1.08z"/><path d="M154.86 88.6c-.64.21-1.96.66-3.1 1.92-.53.59-1.64 1.81-1.57 3.54.09 2.3 2.19 3.61 2.31 3.68 2.56 1.54 5.72.12 6.75-.42 1.26-.66 3.03-1.86 3.47-3.9.31-1.44-.06-2.93-1.2-3.81-2.24-1.74-5.84-1.27-6.67-1z" style="fill:#5b3d5b"/><path class="cls-6" d="M93.88 120.29c23.89-3.34 37.82-20.06 37.82-20.06-19.23-10.86-45.84-8.13-62.21.27-5.3 2.72-11.82 6.16-17.46 13.43 0 0 17.96 9.69 41.85 6.36z"/><path class="cls-7" d="M110.92 71.25c.26-.52-.72-1.52-2.13-3.03-.72-.75-1.52-1.67-2.36-2.71-.82-1.05-1.67-2.24-2.48-3.54-.78-1.32-1.43-2.62-1.98-3.84-.52-1.23-.97-2.36-1.3-3.34-.69-1.96-1.12-3.29-1.7-3.3-.52-.01-1.11 1.39-1.09 3.76 0 1.18.2 2.59.61 4.11.44 1.51 1.1 3.12 2.04 4.68.95 1.55 2.07 2.89 3.2 3.98 1.15 1.07 2.3 1.9 3.35 2.45 2.1 1.12 3.61 1.25 3.84.78zM73.89 58.94c-.15.5 1.1 1.45 3.47 2.11 1.18.34 2.64.54 4.27.58 1.63.01 3.43-.15 5.26-.59 1.83-.45 3.51-1.12 4.95-1.88 1.43-.78 2.63-1.63 3.53-2.47 1.81-1.67 2.49-3.09 2.12-3.46-.4-.42-1.72.21-3.7 1.12-.99.46-2.17.96-3.48 1.47-1.32.48-2.79.96-4.35 1.34-1.57.37-3.09.61-4.49.79-1.4.15-2.68.25-3.77.29-2.18.1-3.64.14-3.8.7zM88.8 69.57c.22.48 1.3.58 2.8-.03 1.49-.6 3.34-2 4.68-4.08 1.34-2.08 1.86-4.34 1.79-5.95-.06-1.62-.6-2.56-1.13-2.56-.57 0-1.05.84-1.65 2.02-.59 1.19-1.35 2.73-2.37 4.33-1.03 1.58-2.12 2.91-2.96 3.94-.83 1.03-1.4 1.82-1.16 2.33z"/><path class="cls-4" d="M103.92 32.54c-2.19.87-3.26 3.2-5.29 7.83-2.43 5.53-.98 4.48-3.52 12.43-.32 1-.91 2.79-.02 3.99.5.68 1.44 1.11 2.32 1.08.98-.04 1.69-.63 2.2-1.12 1.99-1.92 2.51-3.89 3.76-6.24 1.05-1.97 2.1-3.25 4.02-5.57 1.54-1.87 2.62-2.91 4.02-5.17 1.54-2.5 1.53-3.37 1.42-3.92-.4-1.9-2.67-2.83-3.45-3.14-.37-.15-2.94-1.16-5.46-.16z"/><path d="M112.82 35.85c-.4-1.9-2.67-2.83-3.45-3.14-.37-.15-2.94-1.16-5.46-.16 0 0-2.06 2.01 1.87 4.06s6.22.52 6.69.03.34-.79.34-.79z" style="fill:#564942"/><path class="cls-12" d="M144.2 59.14c-1.57 2.39-2.59 4.43-3.92 6.66 0 0-.16.28-1.57 3.23-.26.55-.49 1.04-.4 1.67.12.9.52 1.25.79 1.49.68.57 2.89.37 4.55.51 3.17.27 4.7 1.14 6.16-.47.33-.36.62-.82.93-1.83.29-.95.06-1.79-.25-2.73-1.18-3.56-1.99-3.68-2.93-6.47-.51-1.5-.78-2.99-1.67-3.18-.18-.04-.78-.26-1.69 1.12zM148.73 33.95c-.3-1.1-.86-2.11-1.28-3.18-.84-2.14-1.31-3.38-1.98-4.83 0-.01-1.32-2.41-.43-3.65.26-.37.71-.78 1.35-.99 1.71-.55 2.21-.27 3.5.01 2.3.5 2.46.5 4.24.48 1-.02 3.46-.45 4.41.12.2.12.77.47.94 1.11.15.58-.31 1.36-.56 1.69-1.47 1.9-2.32 2.98-3.58 4.32-1.36 1.44-3.05 3.53-3.56 4.37-.35.58-.2.47-.63.96-.17.19-1.11 1.24-1.75 1.02-.4-.14-.48-.69-.68-1.43z"/><path d="M150.12 32.73c-.39-.06-1.46-.21-2.69.26 0 0-1.09.42-1.99 1.36-1.56 1.65-1.7 4.2-2.14 6.93-.8 5.03-1.84 5.99-2.1 10.8-.08 1.47-.06 2.78.7 4.09.2.35 1.42 2.38 3.72 2.69 2.59.35 4.49-1.76 4.79-2.1 1.13-1.26 1.09-2.21 2.06-7.33 1.04-5.49 1.56-8.23 1.58-8.37.66-3.1.95-4.01.41-5.23-.76-1.69-2.62-2.83-4.35-3.1z" style="fill:#ca9c41"/><path class="cls-12" d="M152.95 35.72c0-.27-.58-.52-1.54-.57-.96-.05-2.3.14-3.66.7-1.36.57-2.44 1.38-3.08 2.1-.64.72-.87 1.3-.69 1.5.41.4 2.18-.79 4.53-1.75 2.33-.99 4.43-1.41 4.44-1.98zM152.68 42.94c-.02-.54-2.54-.85-5.41.21-2.87 1.04-4.61 2.9-4.27 3.32.34.46 2.39-.52 4.96-1.45 2.56-.95 4.76-1.52 4.72-2.09zM151.45 50.02c-.12-.53-2.47-.43-5.05.72-2.59 1.14-4.24 2.82-3.92 3.26.32.46 2.33-.37 4.74-1.43 2.4-1.07 4.37-2.01 4.24-2.55z"/><path class="cls-14" d="M78.77 91.67c.35 0 .65.06.93.16.27-.88.53-1.88.79-3.09.31-1.46.49-3.94-.6-4.64-.96-.61-2.5 1.36-3.32 2.83-.72 1.29-1.02 2.11-1.41 2.65-.06 1.37-.97 2.7-2.74 2.7-2.67 0-3.39-2.99-2.19-4.64-.55-.55-.74-.72-1.09-1.03-2.43-2.14-3.5-.52-3.82 1.09-.16.79-.3 1.56-.43 2.74 1.92 1.39 1.37 5.21-1.63 5.21-1.68 0-2.59-1.2-2.73-2.49-.75-.2-1.52-.5-2.53-.87-2.86-1.04-2.23 1.32-1.53 2.99.34.8 1.32 2.52 2.92 4.3.13.14.27.29.41.43.43-.78 1.22-1.34 2.38-1.34 2.8 0 3.46 3.3 2 4.88 1.11.71 2.38 1.41 3.86 2.09 3.14 1.45 5.21 2.4 6.7 1.48 1.21-.75 1.04-2.11 1.69-5.01.47-2.1.93-3.62 1.38-4.91-2.63-.94-2.3-5.53 1-5.53zm-7.81 8.97c-3.68 0-3.67-5.71 0-5.71s3.67 5.71 0 5.71z"/><path class="cls-17" d="M62.15 98.66c-1.16 0-1.95.57-2.38 1.34 1.1 1.16 2.5 2.35 4.37 3.54 1.46-1.58.8-4.88-2-4.88zM63.24 95.65c3.01 0 3.55-3.82 1.63-5.21-.02.13-.03.24-.05.38-.2 1.86-1.11 2.62-2.52 2.59-.66-.01-1.23-.11-1.79-.26.14 1.3 1.04 2.49 2.73 2.49zM70.96 94.94c-3.67 0-3.68 5.71 0 5.71s3.68-5.71 0-5.71zM72.41 92.29c1.77 0 2.68-1.33 2.74-2.7-.3.41-.64.66-1.28.77-.54.09-1.42-.47-2.6-1.66-.47-.47-.79-.79-1.04-1.05-1.2 1.65-.48 4.64 2.19 4.64zM78.77 91.67c-3.3 0-3.63 4.59-1 5.53.67-1.92 1.31-3.33 1.93-5.37-.28-.09-.59-.16-.93-.16zM71.87 105.77c2.59 0 3.35-2.84 2.28-4.51-1.19.26-2.33.75-3.26 1.43-.14.1-.81.6-1.52 1.46.38.92 1.21 1.63 2.5 1.63zM68.6 108.24c-.44 0-.82.09-1.16.23-.04.37-.07.75-.06 1.15.05 1.8.71 3.24 1.45 4.31 3.42-.25 3.36-5.68-.24-5.68zM76.5 107.02c-3.67 0-3.68 5.71 0 5.71s3.68-5.71 0-5.71z"/><path class="cls-14" d="M94.79 125.86c-.33-.81-1.28-2.54-2.85-4.34-.69-.8-1.53-1.62-2.54-2.45-.36.97-1.21 1.74-2.55 1.74-2.74 0-3.43-3.17-2.09-4.78-.44-.23-.89-.47-1.37-.7-3.12-1.5-5.17-2.48-6.67-1.59-1.22.73-1.07 2.09-1.77 4.99-1.57 6.55-2.96 7.42-4.3 13.3-.33 1.46-.55 3.93.53 4.64.95.63 2.52-1.32 3.37-2.78 1.32-2.27 1.28-3.14 2.74-3.37.55-.08 1.42.49 2.57 1.7 1.46 1.52 1.6 1.65 2.11 2.11 2.39 2.18 3.49.57 3.84-1.03.19-.87.35-1.69.53-3.11.23-1.86 1.15-2.6 2.56-2.55 1.55.05 2.54.52 4.31 1.2 2.85 1.09 2.25-1.28 1.58-2.97z"/><path class="cls-17" d="M86.85 120.8c1.34 0 2.19-.77 2.55-1.74-1.24-1.02-2.75-2.04-4.64-3.05-1.35 1.61-.65 4.78 2.09 4.78zM79.86 119.19c-3.67 0-3.68 5.71 0 5.71s3.68-5.71 0-5.71zM81.4 107c.75 0 1.34-.25 1.78-.62-.02-.05-.03-.1-.05-.14-.58-1.53-1.25-2.95-3.57-4.26-1.65 1.51-1.05 5.02 1.84 5.02z"/><path d="M83.58 111.51c.11 0 .2.02.3.03.18-2.06-.3-4.08-.69-5.16-.44.38-1.03.62-1.78.62-2.89 0-3.49-3.52-1.84-5.02l-.13-.08c-1.64-.89-3.53-1.02-5.29-.64 1.07 1.67.31 4.51-2.28 4.51-1.29 0-2.12-.71-2.5-1.63-.82.98-1.7 2.44-1.92 4.32.33-.14.72-.23 1.16-.23 3.59 0 3.66 5.43.24 5.68a9.116 9.116 0 0 0 2.08 2.15c.42.3.88.56 1.35.78.44-.73 1.21-1.26 2.32-1.26 1.54 0 2.43 1.01 2.68 2.17 1.58-.11 3.07-.61 4.22-1.49-1.33-1.62-.63-4.77 2.1-4.77zm-7.08 1.21c-3.68 0-3.67-5.71 0-5.71s3.67 5.71 0 5.71z" style="fill:#bfd8dc"/><path class="cls-17" d="M82.65 115.11c.77-1.07 1.12-2.33 1.23-3.57-.1 0-.19-.03-.3-.03-2.73 0-3.43 3.15-2.1 4.77.44-.34.84-.72 1.16-1.17zM74.59 115.6c-1.11 0-1.89.53-2.32 1.26 1.54.72 3.32 1.03 5 .91-.25-1.16-1.13-2.17-2.68-2.17z"/><path class="cls-3" d="M114.29 97.55c-1.43-.58-3.11-1.03-5-1.15-1.19 1.68-4.17 5-7.83 8.66-4.26 4.27-8.05 7.61-9.34 8.28.06 2.07.5 4.08 1.28 5.88 1.52-1.77 5.68-5.71 10.31-10.56 5.11-5.31 9.16-9.99 10.57-11.12zM107.94 96.38c-.68.02-1.38.06-2.11.18-7.43 1.2-11.03 7.06-11.5 7.87-1.43 2.42-2.14 5.23-2.2 8.02 1.13-1.64 4.17-5.04 7.92-8.79 3.17-3.18 6.08-5.84 7.9-7.27zM122.6 105.34c.09.79-1.85 4.92-5.51 9.04-3.93 4.48-8.12 6.98-8.42 6.54-.35-.46 3.16-3.57 6.92-7.87 3.79-4.27 6.45-8.13 6.95-7.85-.72-1.56-1.69-2.98-2.85-4.16-1.24 2.31-4.52 7.11-9.22 12.01-6.35 6.69-12.66 10.78-12.96 10.35-.35-.46 5.29-5.19 11.51-11.73 4.66-4.86 8.31-9.35 10.07-11.18-.77-.68-2.27-1.84-4.36-2.76-.62 1.53-4.26 6.8-9.58 12.32-4.85 5.06-9.54 8.72-11.46 9.82 1.08 2.17 2.7 3.96 4.84 5.03 5.95 2.98 13.88.17 16.89-1.36 2.84-1.44 5.44-2.99 7.46-7.63 1.51-3.49 1.18-7.33-.29-10.59z"/><path class="cls-16" d="M109.29 96.4c-.44-.03-.88-.03-1.34-.02-1.81 1.43-4.73 4.1-7.9 7.27-3.75 3.76-6.79 7.15-7.92 8.79 0 .3-.01.6 0 .9 1.29-.67 5.08-4.01 9.34-8.28 3.66-3.66 6.63-6.98 7.83-8.66zM105.16 110.06c5.32-5.52 8.96-10.78 9.58-12.32-.15-.06-.3-.12-.45-.19-1.42 1.13-5.46 5.81-10.57 11.12-4.63 4.84-8.79 8.78-10.31 10.56.1.22.19.44.3.65 1.92-1.11 6.61-4.76 11.46-9.82zM97.52 123.42c.3.43 6.6-3.67 12.96-10.35 4.69-4.9 7.98-9.7 9.22-12.01-.01-.01-.02-.03-.04-.04-.08-.08-.27-.27-.56-.52-1.76 1.84-5.42 6.33-10.07 11.18-6.22 6.55-11.86 11.27-11.51 11.73z"/><path d="M122.54 105.21s.04.08.05.12c0-.06-.02-.1-.05-.12z" style="fill:#fff"/><path class="cls-16" d="M115.59 113.05c-3.77 4.3-7.27 7.41-6.92 7.87.3.43 4.49-2.07 8.42-6.54 3.65-4.12 5.6-8.24 5.51-9.04-.02-.04-.04-.08-.05-.12-.5-.29-3.15 3.57-6.95 7.85z"/><path class="cls-1" d="M25.38 75.43c-.73.3-1.34.56-1.64.92-.21.23-.33.55-.31.73.02.16.07.27.31.42.51.29 1.56.29 2.45.24.39-.03.78-.09 1.16-.15-.01 0-.02-.01-.03-.02-.91-.74-1.51-1.44-1.94-2.12zM31.98 61.31s-.06.05-.09.08c.56.02 1.13.08 1.69.2-.08-.09-.16-.18-.25-.24-.45-.33-.89-.33-1.35-.03z"/><path class="cls-11" d="M33.5 65.2c.37-.8.62-1.58.6-2.26 0-.36-.07-.64-.21-.91-.08-.16-.19-.31-.3-.44-.56-.11-1.13-.18-1.69-.2-.41.32-.72.81-.94 1.38-.25.61-.43 1.29-.73 1.94-.3.66-.69 1.22-1.12 1.67-.87.9-1.83 1.42-2.64 1.67-1.05.32-1.81.3-2.23.21-.21 1.64-.09 3.17.06 4.05.08.43.16.86.28 1.29.3-.12.58-.23.83-.36 3.76-1.71 6.59-4.81 8.09-8.04z"/><path class="cls-11" d="M28.26 65.65c.32-.41.59-.88.79-1.42.2-.55.33-1.2.57-1.94.08-.24.18-.49.31-.75-1.29.24-2.47.76-3.38 1.63-1.36 1.29-2.01 3.08-2.27 4.79.4-.08 1.06-.22 1.89-.62.68-.33 1.44-.87 2.09-1.68zM35.18 65.95c-1.58 3.68-4.7 7.17-8.94 9.11-.3.14-.58.26-.86.37.43.69 1.04 1.39 1.94 2.12.01 0 .02.01.03.02.51-.09 1-.2 1.48-.35 3.36-1.08 5.72-3.61 7.1-5.94 1.4-2.38 1.96-4.62 2.31-6.15.1-.45.17-.83.24-1.16-.8-.7-1.72-1.27-2.72-1.69.04.2.08.4.09.59.06 1.12-.27 2.16-.67 3.08z"/><path class="cls-11" d="M38.38 75.09c1.39-1.63 2.15-3.49 2.54-4.89.17-.59.28-1.09.38-1.49-.55-2.31-1.92-3.86-2.26-4.22 0 .23-.01.47-.03.74-.12 1.62-.48 4.03-1.84 6.72-.68 1.34-1.63 2.72-2.9 3.97-1.2 1.18-2.73 2.22-4.53 2.91.72.23 1.47.37 2.22.41.36-.21 1.07-.47 1.99-.89 1.32-.6 3.04-1.64 4.43-3.27z"/><path class="cls-6" d="M26.46 68.05c.81-.25 1.77-.77 2.64-1.67.43-.45.82-1.01 1.12-1.67.29-.65.48-1.33.73-1.94.22-.57.53-1.06.94-1.38-.67-.02-1.33.03-1.96.15-.12.26-.23.51-.31.75-.24.74-.37 1.39-.57 1.94-.2.54-.47 1.01-.79 1.42-.64.81-1.41 1.35-2.09 1.68-.83.4-1.5.54-1.89.62-.02.1-.03.21-.04.31.41.08 1.18.11 2.23-.21zM37.17 71.96c1.36-2.69 1.72-5.1 1.84-6.72.02-.27.03-.51.03-.74l-.04-.04c-.16-.17-.34-.33-.52-.49-.07.33-.15.72-.24 1.16-.35 1.53-.91 3.78-2.31 6.15-1.38 2.33-3.73 4.87-7.1 5.94-.48.15-.97.27-1.48.35.72.58 1.53.98 2.38 1.26 1.79-.68 3.33-1.73 4.53-2.91a15.06 15.06 0 0 0 2.9-3.97zM26.24 75.06c4.25-1.94 7.36-5.44 8.94-9.11.4-.93.73-1.96.67-3.08 0-.19-.05-.39-.09-.59-.7-.3-1.43-.53-2.18-.68.12.13.23.27.3.44.14.27.2.56.21.91.02.69-.23 1.47-.6 2.26-1.5 3.24-4.33 6.33-8.09 8.04-.25.13-.53.24-.83.36.17.61.41 1.21.8 1.83.27-.11.56-.23.86-.37zM36.41 78.4c.4-.19 4.32-2.11 5.02-6.53.18-1.16.09-2.22-.13-3.16-.1.4-.22.9-.38 1.49-.39 1.4-1.15 3.26-2.54 4.89-1.39 1.63-3.11 2.67-4.43 3.27-.91.42-1.63.68-1.99.89 1.56.08 3.13-.22 4.45-.84z"/></g><g id="Outline"><path class="cls-11" d="M142.45 110.8c-1.61-2.11-4.75-7.18-10.76-10.57 0 0-13.92 16.73-37.82 20.06-23.89 3.34-41.85-6.36-41.85-6.36-9.73 12.57-9.35 26.97-9.15 34.44.21 7.79.58 21.72 10.14 31.59 3.86 3.98 12.04 10.22 17.86 8.92.63-.14 1.61-.46 3.07-.4 4.15.16 5.43 3.08 9.04 4.25 3.81 1.24 4.38-1.37 9.75-.98 5.74.42 6.36 3.49 12.1 3.73 1.13.05 4.96.16 8.76-1.93 3.95-2.18 3.79-4.49 7.73-6.24 3.24-1.44 4.26-.27 7.5-1.56 3.46-1.38 5.07-3.81 7.67-7.01 5.95-7.33 7.8-7.19 10.91-11.31 6.4-8.47 6.1-18.99 5.91-25.62-.13-4.57-1.11-18.18-10.87-31.01z"/><g style="clip-path:url(#clippath-4)"><path class="cls-7" d="M138.8 134.67c0-.08-.33.07-.39.09.12.09.48-.13.39-.09zM140.02 135.6l-.15.03.41.06-.26-.09zM140.39 136.78c.56-.3-.22-.4-.08-.68l.12-.08-.51.06c.16.22.57.46.46.69zM139.29 137.78c.22-.1.24.07.03-.16-.02.02-.03.03-.05.04.01.02.02.06.02.12z"/><path class="cls-7" d="M139.27 137.66c-.05-.12-.17.14 0 0zM139.57 138.18l-.26-.1c-.13.07-.12.22-.23.2.16.13.29.06.49-.1zM140.05 138.21l-.11-.06c-.05.03-.07.06.11.06zM139.7 138.03l.24.12c.09-.05.28-.11-.09-.06.18-.03 0-.02-.15-.06zM139.76 137.9c.1-.13.15-.27.4-.16-.18-.29-.58-.12-.4.16zM141.02 136.65l.14-.18-.23-.05c.11.02-.09.29.1.23zM139.52 139.27c.13-.02.33-.14.49-.19l-.18-.08c-.07.08-.12.22-.31.28z"/><path class="cls-7" d="m140.01 139.08.26.13c-.01-.17-.13-.17-.26-.13zM140.72 138.06l-.54-.17c.19.07.38.15.57.23l-.02-.06zM139.67 139.96l-.32-.03.49.07-.17-.04zM139.83 140.4c-.26-.02-.4.2-.57.15.07.11.3.17.51.23-.13-.08-.12-.19.05-.38zM140.09 140.88c-.07-.04-.19-.07-.31-.1.07.04.16.08.31.1zM140.28 139.53c-.07.03-.27.11-.33.23l.34-.16s0-.05-.01-.07zM140.31 139.59h-.01c0 .08.02.14.02.16v-.16zM140.28 139.51v.02s.05-.02 0-.02zM140.52 138.63c.23.05.5.23.75-.07-.27-.01-.41.16-.75.07zM140.71 139.31l.03-.22c-.09.03-.22.1-.34.07l.3.15zM140.85 139.38l-.14-.07-.01.08.15-.01zM140.36 140.47c.18.05.21.14.25.24a.66.66 0 0 0 .04-.36c-.12 0-.33 0-.29.12zM140.38 140.04h.03s.04-.02-.03 0zM140.83 141.74l.06-.03h-.06v.03z"/><path class="cls-7" d="M140.72 140.32c.05-.1-.05-.13-.17-.15.05.06.09.12.1.19.05 0 .09-.01.06-.03zM140.32 141.13c.07-.06.12-.12.17-.19-.11.07-.27.19-.17.19zM140.31 140.1h-.02c-.07.04-.03.03.02 0zM140.31 140.1c.06.03.16.04.25.06a.418.418 0 0 0-.15-.11c-.02.02-.06.04-.09.05zM143.23 141.62c-.34.05-.7-.12-.38-.39-.29-.15-1.38.2-1.97.49.15-.02.28-.05.52.11.17-.1.34-.52.68-.41.23.23-.08.24-.23.4.4-.19.68.22 1.28.05l-.26-.2c.1-.02.27.03.34-.05zM140.85 141.34l-.06-.07c-.04.1-.16.2-.4.37.19.1.32.1.44.09l-.03-.4.06.02z"/><path class="cls-7" d="M140.71 140.91c.38-.01.58.15.95-.05-.07-.23-.34-.1-.53-.21.17.36-.23-.07-.38.25-.08-.06-.11-.12-.14-.18-.03.08-.07.15-.13.23 0 0 .01 0 .02-.01.04-.03.07-.04.05-.01.05 0 .1-.01.14-.01-.05.13-.09.04-.14.01h-.06l.28.34c.03-.09 0-.19-.07-.36zM142.1 138.57s-.06.03-.08.03c.05.01.08.02.08-.03zM141.92 138.78c-.06-.02-.21 0-.19-.1.09-.11.17-.04.29-.08-.11-.03-.31-.13-.44.09h.06c-.09.2-.49.51-.55.49.32-.12.54-.22.83-.4zM141.44 139.84l.25.28.28-.23-.19.05c.04-.2-.19-.11-.34-.1zM140.65 141.81l-.4.04.59.07-.19-.11zM140.78 142.21l-.34.05.22.07.12-.12zM145.36 166.53l.08.11a.242.242 0 0 0-.08-.11zM145.49 165.81l-.17-.04c.09.05.15.07.17.04zM141.86 152.49c-.32.15-.81.32-.43.29l.38-.05c-.07-.1-.03-.17.05-.24zM144.04 159.73s.08-.02.12-.04a7.58 7.58 0 0 1-.36-.12c.07.05.15.1.24.15zM145.59 159.91l-.25.18c.09-.04.17-.1.25-.18zM145.11 170.51l.35.19c.03-.18-.17-.14-.35-.19zM141.53 146.45c-.13.14-.19.24-.2.32.2-.17.51-.32.2-.32zM141.44 165.68c.06.07.13.1.22.11a.253.253 0 0 0-.22-.11zM141.37 147.11s.05-.05.08-.07c-.07-.08-.13-.16-.12-.27-.15.12-.24.25.04.34zM141.39 184.34s-.03.01-.05.02c.05.02.05 0 .05-.02zM136.56 187.17s0-.11.02-.17c-.03.02-.05.07-.02.17zM140.89 143.9c-.04-.08-.04 0 0 0zM142.29 143.24s.1.02.19 0h-.19zM143.8 147.79c.07-.03.06-.03 0 0zM141.04 143.74s-.07.08-.09.13c.03-.02.06-.06.09-.13zM140.87 143.79s.02-.06.02-.08c-.06 0-.1.01-.02.08z"/><path class="cls-7" d="M140.93 144.02s0-.1.01-.15c-.02.02-.04.03-.06.03 0 .02.02.06.04.12zM142.41 176.72s-.02 0-.04.01c.13.13.12.08.04-.01zM145.82 154.81s-.01 0-.02-.01h-.01l.03.01zM146.1 155.15c-.47-.14-.41-.22-.31-.33l-1.09.12 1.4.22zM145.44 164.7c.08.08.33.25.08.27-.47-.14-.23-.17-.08-.27zm-.57-5.45c.14.06.06.13-.1.21-.03-.07-.01-.14.1-.21zm-3.51-14.43h.02c-.14.17-.09.11-.02 0zm.15-.33c-.06-.02-.12-.01-.18 0 .11 0 .12.07.1.15.11-.04.18-.09.07-.16zm-2.08 32.5.12-.03c.08.16-.01.1-.12.03zM145.41 159.89c-.07.02-.15.02-.23.02.07.03.15.04.23-.02zM145.04 170.48c.02.01.05.02.07.02l-.07-.03zM145.55 148.91c-.06.07-.13.11-.21.14.1 0 .19-.04.21-.14zM140.55 143.03l.14.17c-.04-.09.05-.14.11-.19-.1.02-.23.08-.25.02zM142.8 140.89c-.06-.02-.02-.06-.07-.08l-.19.05c.04.12.21.17.26.03zM141.9 142.62c.35-.08.21-.18.12-.3v.02c-.49.05-.31.16-.12.28zM142 142.29s-.04-.08-.03-.12c-.2.02-.03.06.03.12zM141.22 144.14c.08-.08-.45.03-.32-.03-.45 0 .6.34.32.03zM143.02 142.31l-.42.12.36.02.06-.14zM142.89 143.44l.08-.24c-.07.01-.12 0-.16-.04 0 .14-.05.3.07.27z"/><path class="cls-7" d="M142.82 143.17c0-.07-.02-.14-.1-.16.01.04.04.12.1.16zM143.2 142.59l-.08.08v.16l.08-.24zM143.13 145.82l.15.23c.15 0 .24-.07.16-.15-.11-.05-.18-.13-.32-.07zM144.22 144.94c-.08.08-.18.09-.31.15l.54-.06-.22-.09zM144.44 145.64c.15 0 .47.31.4 0-.15 0-.31-.24-.4 0zM144.1 149.39l-.01-.06-.89.07.9-.01zM146.38 152.57c.21-.3-.55-.05-.29-.33-.21-.06-.21.23-.39.16.22.17.1.27.68.17zM145.7 152.4s-.08-.06-.14-.09c.06.05.1.07.14.09zM135.91 187.68l-.23.12.32-.02-.09-.1zM136.43 188.21l-.55-.13.45.26s-.03-.14.1-.13zM146.64 164.29l-.13-.03c-.15.01-.17.06-.2.15l.33-.12zM145.88 166.84l.01-.04-.51.01.5.03zM146.18 169.1c.04-.08-.06-.21-.02-.29.06.21-.61.21.02.29z"/><path class="cls-6" d="M168.12 97.61c-.51.19-.58 1.49-.1 3.44.48 1.94 1.56 4.51 3.25 7.05s3.65 4.52 5.26 5.71c1.61 1.2 2.85 1.63 3.22 1.23.75-.85-2.08-4.52-5.15-9.16-3.11-4.61-5.4-8.64-6.47-8.28z"/><path class="cls-6" d="M160.31 90.71c-.51-.01-1.11 1.68-.99 4.52.05 1.41.35 3.08.89 4.88.58 1.78 1.42 3.69 2.58 5.53 1.18 1.83 2.55 3.39 3.93 4.67 1.4 1.25 2.79 2.22 4.05 2.87 2.52 1.31 4.31 1.48 4.51 1.01.24-.53-1.04-1.6-2.89-3.32-.93-.85-1.97-1.92-3.05-3.14a41.623 41.623 0 0 1-3.18-4.23c-1-1.59-1.82-3.18-2.5-4.67-.65-1.5-1.18-2.89-1.56-4.09-.79-2.4-1.21-4.02-1.8-4.02z"/></g><path class="cls-4" d="M59.85 145.05c-.39-5.09 2.89-9.23 2.89-9.23 3.86-4.53 8.23-4.31 8.95-4.31.57 0 4.91.25 8.41 4.01 2.1 2.25 3.42 9.37 2.46 9.99-1.2.77-5.89 1.5-6.87.15-.09-.13-.3-.93-.47-1.76-.57-2.85-.55-2.75-.98-3.47-1.56-2.64-4.7-1.59-5.87.27-.81 1.29-.93 3.32-1.11 3.94-.19.68-.51 1.34-.83 1.5-1.23.6-6.53-.24-6.6-1.08zM107.18 140.27c-1.01-5 1.75-9.52 1.75-9.52 3.29-4.96 7.65-5.27 8.36-5.37.57-.07 4.65-.63 8.52 3.12 2.43 2.35 4.71 8.54 3.98 9.18-1.07.95-5.88 2.36-6.85 1.41-.11-.11-.36-1.04-.64-1.84-.69-1.99-.88-2.45-1.39-3.12-1.87-2.43-4.86-1.21-5.79.77-.65 1.38-.64 3.46-.74 4.1-.11.7-.23 1.35-.52 1.54-1.14.75-6.51.55-6.68-.27zM94.6 143.97c-1.26 2.21-2.22 3.43-3.68 7.7-.47 1.37.25 1.73 1.35 1.6 3.18-.37 8.27-.95 9.57-1.13 1.41-.19 2.12-.9 1.57-1.85-.83-1.43-2.8-4.19-5.92-7.16-.98-.94-2.12-.51-2.89.83zM70.15 156.43c-.22 2.66 3.27 10.33 9.22 14.55 7.55 5.35 16.12 4.73 19.35 4.49 3.1-.23 10.36-.86 17.18-6.2 4.23-3.31 6.13-6.34 9.15-12.31 1.84-3.62 2.62-5.69 1.89-6.43-.38-.38-1.08-.5-1.51-.26-3.26 1.76-9.42 4.96-12.93 6.32-1.23.47-.71 1.57-.52 2.33.16.65.39 1.48.61 2.82.15.92.2 1.28-.84 2.08-.7.54-4.53 1.85-7.84 1.93-.6.02-1.13-.31-1.37-.7-.5-.84-.28-2.01-.58-4.41-.05-.42-.21-1.32-1.28-1.21-2.59.26-4.31.38-7.27.59-1.03.07-1.35.57-1.5 1.06-.26.82.23 2.99.02 4.53-.07.53-.41.75-1.08.79-1.68.11-5.19.26-8.2-.97-.47-.19-1.11-.39-1.3-.89-.29-.75.33-2.12.72-4.26.11-.6.05-1.13-.96-1.45-1.75-.55-5.55-1.84-9.72-3.23-.89-.3-1.18 0-1.25.81z"/><path class="cls-7" d="M66.04 171.35c-.51.19-.58 1.49-.1 3.44.48 1.94 1.56 4.51 3.25 7.05s3.65 4.52 5.26 5.71c1.61 1.2 2.85 1.63 3.22 1.23.75-.85-2.08-4.52-5.15-9.16-3.11-4.61-5.4-8.64-6.47-8.28z"/><path class="cls-7" d="M58.23 164.45c-.51-.01-1.11 1.68-.99 4.52.05 1.41.35 3.08.89 4.88.58 1.78 1.42 3.69 2.58 5.53 1.18 1.83 2.55 3.39 3.93 4.67 1.4 1.25 2.79 2.22 4.05 2.87 2.52 1.31 4.31 1.48 4.51 1.01.24-.53-1.04-1.6-2.89-3.32-.93-.85-1.97-1.92-3.05-3.14a41.623 41.623 0 0 1-3.18-4.23c-1-1.59-1.82-3.18-2.5-4.67-.65-1.5-1.18-2.89-1.56-4.09-.79-2.4-1.21-4.02-1.8-4.02zM142.02 138.27c-1.11.33.42 7.98.21 17.4-.11 9.42-1.89 17.01-.79 17.38.5.16 1.63-1.57 2.71-4.68 1.07-3.1 2-7.6 2.09-12.63.08-5.03-.69-9.56-1.66-12.69-.97-3.14-2.04-4.92-2.55-4.77z"/></g></svg>