<?xml version="1.0" encoding="UTF-8"?><svg xmlns="http://www.w3.org/2000/svg" viewBox="0 0 200 200"><defs><style>.cls-1{fill:none;}.cls-2{fill:#f7b7c2;}.cls-3{fill:#f47f20;}.cls-4{fill:#eeece9;}.cls-5{fill:#be7329;}.cls-6{fill:#faad5f;}.cls-7{fill:#f7b3c2;}.cls-8{fill:#c64528;}.cls-9{fill:#fff;}.cls-10{fill:#f1a5af;}.cls-11{fill:#ffcf67;}.cls-12{fill:#f5c141;}.cls-13{fill:#f05f2b;}</style></defs><g id="BG_x5F_Strong"><path class="cls-4" d="M15.85,138.55c34.32,85.84,150.65,39.76,168.67-35.7,12.87-25.3-22.95-36.49-13.56-61.24-4.73-50.29-73.46-10.13-104.49-12.25-28.84,14.13-24.3,52.67-40.56,75.31-12.06,7.94-16.87,20.35-10.06,33.88Z"/></g><g id="Illustrations"><g id="Layer_12"><path class="cls-1" d="M21.51,33.46c0,.07-.02.13-.05.19.05-.03.1-.06.15-.08-.04-.04-.07-.07-.1-.11Z"/><path class="cls-1" d="M28.7,39.09c.22-.27.46-.52.73-.74.08-.12.17-.23.26-.34-.38.32-.71.68-.98,1.08Z"/><path class="cls-2" d="M29.42,38.35c-.26.23-.5.48-.73.74.27-.4.6-.77.98-1.08-.09.11-.18.22-.26.34Z"/><path class="cls-2" d="M21.51,33.46s.07.07.1.11c-.05.03-.1.06-.15.08.03-.06.04-.13.05-.19Z"/></g><path class="cls-12" d="M168.9,124.05c-1.46-1.05-3.16-2.2-5.06-1.89-.5.09-.94.61-.81,1.13.11.54.58.81.97,1.05.79.41,1.53.93,2.19,1.53,8.4,7.9,2.21,21.59-3.95,29.01l-.18.21v.07c-2.41,3.05-5.3,5.7-8.51,7.85-3.01,2.01-6.32,3.51-9.77,4.59-.25-1.72-1.59-10.81-1.59-10.81l-.29-1.96-1.4,1.42-16.02,16.25-.98.99s1.16.81,1.16.81c1.36.96,23.29,16.39,23.76,16.72-.25-1.86-1.19-9.01-1.64-12.41,4.98-1.54,9.51-4.13,13.52-7.45,0,0-.17.09-.33.17,7.41-5.33,13.63-13.09,15.71-22.14,1.44-7.86-.4-19.81-6.8-25.13Z"/><path class="cls-7" d="M83.75,34.45c-5.91-7.47-12-15.18-18.09-22.48-.24,1.74-1.27,8.87-1.74,12.21-5.15.12-10.14,1.31-14.85,3.38-.05.02-.09.04-.15.06-4.24,1.7-8.33,3.86-11.95,6.69-3.61,2.82-6.83,6.29-8.93,10.44-3.41,7.27-4.65,19.34.05,26.13,1.12,1.43,2.43,2.99,4.38,3.22.53.05,1.14-.36,1.17-.93.05-.61-.35-1.02-.66-1.36-1.9-1.83-3.02-4.42-3.26-7.02-.51-8.49,6.95-16.57,13.4-21.28l.5-.35s0-.07.01-.09c5.92-4.41,13.03-7.15,20.44-7.64-.29,3.68-.62,7.36-1.02,11.04,0,0-.11.96-.11.96,6.78-4.11,13.69-8,20.64-11.81l.78-.44-.58-.74Z"/><path class="cls-11" d="M168.94,123.91c-1.46-1.05-3.16-2.19-5.07-1.88-.5.09-.94.62-.81,1.13.11.54.58.81.97,1.04.79.41,1.53.93,2.2,1.52,8.41,7.89,2.26,21.59-3.89,29.02l-.18.21v.07c-2.4,3.05-5.28,5.71-8.5,7.87-3,2.01-6.31,3.53-9.76,4.61-.26-1.71-1.61-10.81-1.61-10.81l-.29-1.95-1.4,1.42-15.99,16.28-.97.99s1.16.81,1.16.81c1.37.96,23.33,16.34,23.79,16.67-.25-1.86-1.21-9.01-1.67-12.41,4.98-1.55,9.5-4.15,13.51-7.48,0,0-.17.09-.33.17,7.4-5.34,13.61-13.12,15.67-22.18,1.42-7.87-.44-19.81-6.85-25.12Z"/><path class="cls-10" d="M41.39,44.85c.62-.5,1.23-.98,1.84-1.42l.5-.35s0-.07.01-.09c5.93-4.4,13.05-7.12,20.45-7.6-.3,3.68-.63,7.36-1.04,11.04,0,0-.11.96-.11.96,6.79-4.1,13.7-7.97,20.66-11.77l.78-.43-.58-.74c-1-1.27-2.02-2.56-3.03-3.84-5.84-.19-11.12-.74-15.48-1.96-10.57,2.61-18.01,8.64-24,16.21Z"/><path class="cls-1" d="M169.83,139.86c-1.15,5.57-4.37,11.15-7.58,15.02l-.18.21v.07c-2.41,3.05-5.3,5.7-8.51,7.85-3.01,2.01-6.32,3.51-9.77,4.59-.02-.15-.05-.36-.09-.61-4.87,3.72-9.98,7.06-15.26,9.96,6.64,4.68,19.63,13.81,19.99,14.07-.25-1.86-1.19-9.01-1.64-12.41,4.98-1.54,9.51-4.13,13.52-7.45,0,0-.17.09-.33.17,7.41-5.33,13.63-13.09,15.71-22.14.87-4.76.53-11.01-1.28-16.39-1.44,2.41-2.97,4.77-4.59,7.07Z"/><path class="cls-12" d="M142.2,156.79l-.29-1.96-1.4,1.42-16.02,16.25-.98.99s1.16.81,1.16.81c.32.22,1.76,1.24,3.77,2.66,5.28-2.9,10.39-6.24,15.26-9.96-.38-2.61-1.5-10.21-1.5-10.21Z"/><path class="cls-12" d="M168.9,124.05c-1.46-1.05-3.16-2.2-5.06-1.89-.5.09-.94.61-.81,1.13.11.54.58.81.97,1.05.79.41,1.53.93,2.19,1.53,4.02,3.78,4.69,8.88,3.64,13.99,1.62-2.3,3.15-4.66,4.59-7.07-1.18-3.5-2.99-6.64-5.51-8.74Z"/><g id="JET_bag"><path class="cls-3" d="M153.48,64.9c-3.34-.33-6.67-.66-10-1.01-.81-.08-1.61-.17-2.42-.25.02-.08.02-.17.02-.26-.1-3.74-.54-7.53-1.86-11.05-.64-1.7-1.44-3.39-2.52-4.85-1.06-1.42-2.32-2.62-3.79-3.61-2.77-1.87-6.32-2.67-9.55-1.61-3.23,1.06-5.69,3.67-7.13,6.65-1.69,3.49-1.99,7.45-1.97,11.27,0,.33,0,.67.01,1-3.07-.22-6.14-.42-9.21-.59-.44-.02-.88-.05-1.32-.07-.25-.01-.46.25-.45.49,0,.03,0,.06.01.08-1.68.39-7.49,1.72-8.71,2.05-1.43.38-7.29,2.22-7.29,2.42h0s4.24.59,4.24.59c0,0,13.21,1.35,15.17,1.54s29.43,2.27,29.43,2.27l15.59-4.31c.08,0,.16.02.23.02.43.04.85.08,1.27.13.25.02.5-.08.56-.35.05-.22-.1-.54-.35-.56ZM134.07,62.94c-3.09-.31-6.19-.61-9.28-.89-2.61-.24-5.32-.46-8.01-.67-.04-1.73-.03-3.46.12-5.18.18-1.74.51-3.47,1.11-5.12.4-1.01.9-1.97,1.52-2.86.55-.75,1.17-1.44,1.87-2.04.58-.47,1.2-.87,1.86-1.2.6-.27,1.23-.47,1.88-.6.67-.1,1.34-.13,2.02-.08.77.09,1.52.27,2.24.53.87.34,1.69.79,2.45,1.31.86.63,1.65,1.35,2.34,2.16.8.98,1.44,2.06,1.99,3.2.89,1.93,1.5,3.98,1.88,6.08.32,1.92.47,3.87.53,5.83-1.51-.15-3.01-.31-4.52-.46Z"/><path class="cls-5" d="M104.24,60.96s0-.07-.02-.11c-.08-.26-.34-.35-.59-.3-2.32.48-4.64.99-6.94,1.57-2.1.53-4.18,1.12-6.25,1.76-1.34.42-2.68.85-4.02,1.29-.57.19-.29,1.08.29.89h0c.41-.14.82-.27,1.24-.41l5.64.79,10.04,1.08c.2.38.9.28.88-.24l-.25-6.24s0-.05-.01-.08Z"/><path class="cls-13" d="M159.34,123.18c-.35-3.78-.71-7.57-1.07-11.35-.36-3.73-.71-7.45-1.07-11.18-.35-3.68-.71-7.36-1.06-11.04-.36-3.7-.71-7.4-1.06-11.1-.36-3.79-.72-7.58-1.08-11.37-.04-.48-.09-.95-.13-1.43,0-.07-.02-.12-.05-.18.04-.1.05-.21.02-.31-.08-.26-.34-.35-.59-.3-2.32.48-4.64.99-6.94,1.57-2.1.53-4.18,1.12-6.25,1.76-1.34.42-2.68.85-4.02,1.29-.52.17-.33.94.15.91l.54,23.72.61,24.52s.41,8.58.43,10.75c-.05.01-.1.02-.15.03-.25.05-.37.37-.3.59.08.26.34.35.59.3h0c2.98-.58,5.91-1.39,8.81-2.31,2.74-.87,5.44-1.86,8.14-2.86,1.39-.52,2.78-1.04,4.18-1.54.03,0,.05-.02.08-.04.16-.06.27-.21.25-.43Z"/><path class="cls-6" d="M136.63,69.82s0-.07-.01-.1c-.03-.14-.13-.24-.24-.29-.07-.03-.15-.06-.23-.06-3.34-.21-6.68-.42-10.02-.64-.11,0-.23-.02-.34-.02,0-.04,0-.07,0-.11-.1-3.74-.54-7.53-1.86-11.05-.64-1.7-1.44-3.39-2.52-4.85-1.09-1.46-2.32-2.62-3.79-3.61-2.77-1.87-6.32-2.67-9.55-1.61-3.23,1.06-5.69,3.67-7.13,6.65-1.69,3.49-1.99,7.45-1.97,11.27,0,.39,0,.78.02,1.17-.39-.04-.78-.08-1.17-.12-3.3-.34-6.6-.72-9.9-1.13-.42-.05-.84-.11-1.25-.16,0,0-.02,0-.03,0-.03,0-.06,0-.09,0-.09,0-.16.03-.23.07,0,0,0,0,0,0,0,0-.02.01-.03.02-.08.06-.15.14-.17.26,0,.04-.01.08,0,.12,0,0,0,0,0,0h0c-.33,3.98-.67,7.96-1,11.94-.3,3.64-.6,7.28-.87,10.92-.27,3.64-.52,7.16-.73,10.74-.22,3.73-.41,7.46-.56,11.2-.16,4.16-.28,8.32-.36,12.49-.01.56-.02,1.12-.03,1.68,0,.19.09.32.22.38.04.03.09.05.14.05h0c3.49.45,6.99.87,10.48,1.28,3.61.42,7.21.81,10.83,1.19,3.61.38,7.27.74,10.91,1.07,3.6.33,7.21.64,10.82.93,3.54.28,7.08.54,10.63.78.42.03.85.06,1.27.08.12,0,.22-.05.31-.13.08-.07.13-.16.14-.29,0-.02,0-.04,0-.06,0,0,0-.01,0-.02-.25-4.42-.46-8.83-.61-13.25-.14-3.9-.23-7.8-.31-11.7-.07-3.62-.11-7.23-.16-10.85-.05-3.62-.1-7.29-.17-10.93-.08-3.91-.2-7.83-.35-11.74l-.06-1.57s0,0,0,0c0,0,0,0,0,0ZM101.48,66.72h0c-.04-1.77-.03-3.55.12-5.31.18-1.74.51-3.47,1.11-5.12.4-1.01.9-1.97,1.52-2.86.55-.75,1.17-1.44,1.87-2.04.58-.47,1.2-.87,1.86-1.2.6-.27,1.23-.47,1.88-.6.67-.1,1.34-.13,2.02-.08.77.09,1.52.27,2.24.53.87.34,1.69.79,2.45,1.31.86.63,1.65,1.35,2.34,2.16.8.98,1.44,2.06,1.99,3.2.89,1.93,1.5,3.98,1.88,6.08.32,1.9.47,3.83.53,5.76-2.23-.15-4.45-.3-6.68-.46-3.13-.23-6.26-.47-9.38-.74-1.92-.16-3.84-.34-5.76-.52,0-.03,0-.06,0-.1Z"/></g><path class="cls-1" d="M136.79,129.4h0c-.11.36-.36.65-.68.83,2.05.04,1.94-.44,1.98-2.23.02-.7,0-2.94-.06-6.11-.4,3.19-.84,6.06-1.24,7.51Z"/><path class="cls-1" d="M116.22,120.33c.03-.27.18-.5.4-.63,1.21-.76,2.03-2.08,2.1-3.62,0-.02,0-.04,0-.05h0s0-.06,0-.09c0,0,0-.05,0-.05.03-5.62.2-12.02.71-17.05,0-.02,0-.04,0-.07.01-.46-.35-.84-.82-.86-.44-.01-.81.32-.85.75-.36,3.45-.55,7.55-.64,11.6-.02.54-.47.97-1.01.96-.55-.01-.98-.46-.96-1.01h0c.1-4.02.28-8.09.63-11.53,0-.02,0-.04,0-.07.01-.46-.35-.84-.82-.86-.44-.01-.81.32-.85.75-.36,3.47-.55,7.59-.65,11.66-.01.55-.47.98-1.01.97-.55-.01-.98-.47-.97-1.01h0c.09-4.04.28-8.14.63-11.59,0-.02,0-.04,0-.07.01-.46-.35-.84-.82-.86-.44-.01-.81.32-.85.75h0c-.53,5.18-.7,11.83-.72,17.58.01,1.54.81,2.91,2.03,3.71.24.16.39.42.39.73h0c0,.09,0,.2,0,.28.02,3.05.08,5.96.12,7.59,1.4.13,2.81.27,4.2.39-.04-.68-.11-1.79-.19-3.26-.21-4.19-.07-5.05-.07-5.05h0Z"/><path class="cls-1" d="M130.29,129.74h0s.5-4.62.99-10.52c.59-6.94,1.19-15.85.94-21.11-.01-.29-.05-.4-.05-.4-.11-.33-.42-.58-.8-.59-.19,0-.37.05-.52.15,0,0-.11.06-.28.22,0,0-5.73,5.39-7.59,22.01,0,0-.03.23.02.44.08.35.34.64.79.74h0l2.85.51c.25.05.44.25.43.5,0,0-.25,2.8-1,7.78,0,0,0,0,0,.01,1.06.09,2.03.16,2.87.22.48.03.94.07,1.37.1,0-.02,0-.03,0-.05h0s0,0,0,0Z"/><path class="cls-1" d="M102.29,106.55c-.04-.59-.44-1.08-.99-1.26l-4.12-.97c-.61-.18-1.05-.76-1.02-1.43,0-.22.07-.42.16-.6.34-.78,8.89-14.92,23.68-23.22h0c.61-.37,1.33-.57,2.09-.54h0c.77.03,1.46.29,2.04.71,3.04,2.06,5.77,4.36,8.17,6.72h0s.02.01.03.01c.03,0,.05-.02.06-.05l.06-1.45c.02-.49.43-.87.92-.85.04,0,.07,0,.11.01l3.6.59c0-.21-.01-.42-.02-.62-.38-11.17-.54-13.35-.54-13.35,0,0-25.78-1.36-37.26,11.23-11.48,12.6-5.56,44.93-5.56,44.93,0,0,3.97.41,9.38.94-.71-5.07-.8-20.1-.81-20.81h0Z"/><path class="cls-9" d="M138.02,121.05h0c-.19-10.11-.64-28.26-.92-36.83l-3.6-.59s-.07,0-.11-.01c-.49-.02-.9.36-.92.85l-.06,1.45s-.03.05-.06.05c-.01,0-.03,0-.03-.01h0c-2.41-2.36-5.13-4.66-8.17-6.72-.58-.42-1.27-.68-2.04-.71h0c-.77-.03-1.48.17-2.09.54h0c-14.8,8.3-23.34,22.44-23.68,23.22-.1.18-.15.39-.16.6-.03.67.41,1.25,1.02,1.43l4.12.97c.55.18.95.67.99,1.26,0,.7.09,15.74.81,20.81,2.8.28,5.98.59,9.19.89-.04-1.63-.1-4.54-.12-7.59,0-.09,0-.2,0-.28h0c0-.3-.16-.57-.39-.73-1.22-.8-2.01-2.17-2.03-3.71.02-5.75.19-12.4.72-17.58h0c.04-.43.41-.76.85-.75.46.01.83.39.82.86,0,.02,0,.04,0,.07-.35,3.45-.54,7.55-.63,11.59h0c-.01.55.42,1,.97,1.01.55.01,1-.42,1.01-.97.1-4.07.29-8.19.65-11.66.04-.43.41-.76.85-.75.46.01.83.39.82.86,0,.02,0,.04,0,.07-.35,3.44-.54,7.51-.63,11.53h0c-.01.55.42,1,.96,1.01.54.01,1-.42,1.01-.96.1-4.05.29-8.15.64-11.6.04-.43.41-.76.85-.75.46.01.83.39.82.86,0,.02,0,.04,0,.07-.51,5.04-.68,11.44-.71,17.05,0,0,0,.05,0,.05,0,.03,0,.06,0,.09h0s0,.04,0,.06c-.06,1.53-.89,2.86-2.1,3.62-.22.14-.37.36-.4.63,0,0-.14.86.07,5.05.08,1.48.15,2.59.19,3.26,3.49.32,6.83.62,9.56.84,0,0,0,0,0-.01.76-4.98,1-7.78,1-7.78,0-.25-.17-.45-.43-.5l-2.85-.51h0c-.45-.1-.71-.39-.79-.74-.05-.21-.02-.44-.02-.44,1.86-16.62,7.59-22.01,7.59-22.01.17-.16.28-.22.28-.22.15-.1.33-.15.52-.15.37.02.68.26.8.59,0,0,.04.12.05.4.25,5.26-.35,14.17-.94,21.11-.5,5.89-.99,10.52-.99,10.52h0s0,.04,0,.06c2.18.17,3.74.31,4.87.39h0c.96.07,2.12.16,2.61.17.49,0,.65-.19.58-1.34-.08-1.15-.32-7.96-.32-7.96h0Z"/><g id="Confetti"><path class="cls-12" d="M174.45,90.28c.12.04.25,0,.35-.09"/></g><path class="cls-9" d="M100.83,74.5c-.13.05-.13.31-.33.44-.09.07-.22.13-.41.17-.18.04-.42.05-.63,0-.1-.03-.2-.07-.26-.12-.04-.03-.04-.04-.09-.09-.05-.05-.09-.1-.14-.16-.18-.23-.36-.54-.55-.93-.2-.39-.41-.86-.77-1.36-.37-.52-.9-.95-1.48-1.25-1.19-.6-2.54-.62-3.62-.16-1.09.46-1.74,1.31-2.06,2.05-.33.75-.34,1.43-.26,1.86.09.44.26.64.38.62.27-.03.3-.91,1.02-1.84.35-.45.88-.91,1.53-1.1.64-.2,1.46-.14,2.17.21.35.19.65.41.88.7.24.3.47.69.72,1.1.26.41.56.84.96,1.19.1.09.2.17.31.24.1.07.27.16.4.21.28.11.55.13.79.13.48-.02.88-.18,1.18-.39.3-.21.52-.51.59-.79.07-.29-.01-.52-.1-.62-.09-.11-.17-.14-.23-.11Z"/><path class="cls-8" d="M148.83,113.21c.51-.06-.11-9.45-1.38-20.98-1.27-11.53-2.71-20.84-3.22-20.78-.51.06.11,9.45,1.38,20.98,1.27,11.53,2.71,20.84,3.22,20.78Z"/><path class="cls-3" d="M36.55,95.57l26.55-6.97,56.34.3-26.65,8.2s-56.23-1.53-56.23-1.53Z"/><polygon class="cls-13" points="118.34 137.46 92.79 145.73 92.79 97.24 118.34 89.16 118.34 137.46"/><polygon class="cls-5" points="69.98 96.48 57.08 96.38 81.43 88.2 93.09 88.2 69.98 96.48"/><path class="cls-9" d="M62.28,88.2c19.04-.68,38.1-.91,57.16-.96,0,0,.99,0,.99,0-.09,7.15-.32,14.3-.6,21.44-.31,6.82-.68,13.63-1.28,20.43-.57-13.63-.44-27.28-.09-40.92,0,0,.98,1,.98,1-19.05-.06-38.11-.3-57.16-1h0Z"/><polygon class="cls-6" points="92.79 145.73 92.79 97.1 36.55 95.57 36.55 142.66 92.23 145.71 92.79 145.73"/><path class="cls-9" d="M89.15,135.59c-.05-.12-.63-1.31-1.79-2.81l-.05-.12c-.05-.85-.15-1.71-.3-2.57-.01-.09-.07-.16-.12-.22-.08-.06-.14-.11-.23-.09l-1.22-.18s-.02,0-.03-.01c-.07,0-.13.03-.18.08s-.08.11-.09.18v.42h-.01c-.75-.72-1.55-1.35-2.41-1.93-.17-.12-.38-.2-.6-.21s-.41.06-.61.16c-4.27,2.51-6.71,6.69-6.8,6.92-.02.06-.05.12-.04.19,0,.1.03.18.09.26s.13.14.21.15l1.21.26c.08.01.16.08.2.13s.08.13.1.23c0,.22.11,5.03.36,6.28.01.09.07.16.15.23s.16.1.26.09h0c.7,0,1.36,0,2.07.01h.05s.02,0,.04-.01l.04-.02s.01-.03.03-.04.01-.03,0-.05h0c-.01-.43-.06-1.38-.08-2.4,0-.02,0-.05,0-.07,0-.05-.01-.09-.02-.11-.02-.04-.06-.07-.09-.09-.17-.12-.33-.27-.44-.47s-.17-.39-.16-.61c-.02-1.69,0-3.64.12-5.15,0-.05.05-.12.08-.16.05-.05.11-.07.17-.05.05,0,.13.02.16.08.05.05.07.11.07.16v.02c-.07,1.01-.11,2.21-.11,3.4,0,.05,0,.07.02.11s.03.06.06.09.05.05.1.06.08.01.11.03.07,0,.11-.02.06-.03.09-.06.04-.07.06-.1.01-.08.03-.11c0-1.19.04-2.4.14-3.41,0-.07.02-.13.07-.18s.11-.07.16-.07.13.02.18.07.07.11.07.16v.02c-.07,1.01-.11,2.21-.12,3.38,0,.07.04.15.09.21s.13.09.21.08c.07,0,.16-.02.21-.09.05-.05.09-.13.08-.21,0-1.19.04-2.4.12-3.4,0-.07.02-.13.07-.18s.11-.07.16-.07c.07,0,.13.02.18.07s.07.11.07.16v.02c-.11,1.48-.13,3.36-.13,5.01v.02s.02.02.02.02v.02c0,.22-.06.42-.17.61s-.24.35-.44.45c-.04.02-.05.05-.09.09-.01.03-.02.06-.03.11,0,0-.04.26.05,1.48.04.54.08.91.08,1.08l.04.08s.06.02.09.04h.12c.24,0,.47.01.74.02h.1s.91.03.91.03l.69.02s.07,0,.08-.04c.02,0,.03-.04.04-.07.2-1.47.25-2.3.25-2.3.01-.03,0-.07-.04-.1s-.07-.04-.1-.06l-.83-.13s-.11-.03-.15-.06-.06-.09-.08-.13-.01-.09,0-.12c.46-4.89,2.12-6.5,2.12-6.5.01-.03.05-.05.07-.06.04-.02.1-.04.15-.04s.11.03.15.06.08.06.1.13c.02.04,0,.07.02.11.1,1.54-.04,4.15-.18,6.2-.11,1.72-.23,3.09-.23,3.09l.02.04.02.04s0,.02.04.03h.03c.45.04.92.06,1.39.07h0c.1,0,.18-.03.26-.09.07-.06.14-.13.15-.21.32-1.23.67-6.04.7-6.25.01-.08.05-.17.1-.21.04-.07.13-.1.21-.14l1.22-.21c.09-.01.16-.07.23-.15s.1-.16.09-.26c-.02-.11-.05-.17-.08-.23h0Z"/><path class="cls-5" d="M58.45,114.86c.38-.32.97-.44,1.33,0,.14.17.28.34.43.51.3-.33.6-.66.88-1.01.37-.45,1.24-.36,1.48.2.13.3.21.6.3.91.03-.04.07-.08.1-.12.16-.21.32-.46.48-.69.39-.56.96-.63,1.48-.2.32.26.59.56.85.87.05.06.11.12.17.18.03-.05.06-.1.09-.14.17-.27.31-.55.5-.8.48-.64.67-.6,1.47-.27.42.17,1.89,1.35,2.01,1.46v-19.71h-12.16v19.51c.17-.26.35-.5.57-.69Z"/></g></svg>