<svg xmlns="http://www.w3.org/2000/svg" width="200" height="200" viewBox="0 0 200 200"><defs><clipPath id="clippath"><path d="m148 72.2-2.83 42.5-17.01-2.04 8.38-48.77z" style="fill:none"/></clipPath><style>.cls-2{fill:#ff8000}.cls-3,.cls-4{fill:#a1b5b6}.cls-5{fill:#6d5f56}.cls-6{fill:#5c3e5b}.cls-7{fill:#e8f8f9}.cls-9{fill:#fff}.cls-10{fill:#d0ab8c}.cls-13{fill:#f5c045}.cls-14{fill:#ef859e}.cls-16{fill:#d3e6e8}.cls-17{fill:#c1dade}.cls-18{fill:#eed7d3}.cls-20{fill:#ddc6bc}</style></defs><path id="BG_Strong_Light" d="M175.85 115.41c14.42-12.85 20.68-32.85 15.23-51.38a51 51 0 0 0-5.88-13.01c-13.26-20.88-38.82-23.48-50.68-24.81-19.19-2.15-33.3 2.6-49.82 8.17-44.63 15.03-62.65 41.06-63.06 47.25-.03.53-.12 3.65-1.28 7.63-.96 3.28-2.21 5.57-2.66 6.42-4.48 8.43-10.45 15.53-10.73 25.52-.23 8.39 3.13 16.69 8.59 22.97 6.01 6.92 14.92 11.37 23.86 12.97 10 1.79 19.58-.12 28.27 6.29 7.86 5.8 8.18 4.76 17.51 8.42 7.65 3 16.64 3.53 24.15.32 24.75-10.57 37.82-24.11 44.15-32.77a129 129 0 0 1 18.23-20.29l4.11-3.66Z" data-name="BG_Strong Light" style="fill:#eae8e5"/><g id="Illustrations"><g id="Outline"><path d="m28.13 97.57-.01.01a2 2 0 0 0-.78.04c-7.72 2.39-15.89 5-21.48 10.21-1.23 1.15-2.48 2.71-1.43 4.16l.87 1.68c2.31 2.67 5.19 5.4 8.6 7.21 3.43 1.82 7.38.37 9.53-2.33 2.26-2.84 3.4-6.43 4.25-9.65a44 44 0 0 0 1.31-8.65l1.11-1.4c.91-1.15-1.07-2.44-1.99-1.28Z" class="cls-14"/><ellipse cx="19.46" cy="103.01" rx="14.69" ry="2.27" style="fill:#f75e23" transform="rotate(-22.75 19.46 103.03)"/><path d="m30.07 100.78 3.58-11.3s4.55.75 5.5.82 2.13-.1 2.85-.34 1.09-.63 1.09-.63-1.61-.41-2.39-1.34-2.1-3.15-2.1-3.15-.4-.04-1.12-.37-2.19-1.68-2.45-2.63-.42-1.4.06-2.1.67-1 1.46-1.01 1.58.72 1.6.43.82-3.36 1.1-4.53.53-3.35.41-4.27-.16-2.2-.16-2.2 1.08 2.24 1.23 2.8.24 1.49.24 1.49 3.02-.38 3.83-.39 7.2-.73 7.2-.73.47 1.73.73 2.19.77 2.2.77 2.2 1.59 2.93 1.85 3.45.7 1.37.61 1.72-.71.9-.88.95l-.93.3s.13 2.65.23 3.41.04 4.3-.22 4.79-.39.73-.73.93-3.1.45-3.27.55-1.97.35-1.97.35-.55 1.97-.64 2.44-.29 1.99-.29 1.99l.39 5.26v6.07l-3.79 4.23s-3.84-1.42-4.48-1.41-9.31-9.96-9.31-9.96Z" class="cls-10"/><path d="M54.04 83.9a7 7 0 0 1-3.17.24c-.41-.05-.74.53-.49.86q.45.6 1.11.93c.95.49 2.04.5 3.05.15.28-.1.5-.4.4-.7-.09-.28-.4-.51-.7-.4q-.22.08-.44.13l-.16.03-.1.02q-.33.04-.65.01c-.03 0-.22-.03-.06 0l-.12-.02-.3-.08c-.08-.02-.16-.08-.24-.09.13.02.06.03 0 0l-.12-.06-.36-.22c-.05-.03-.11-.12 0 0l-.07-.05-.12-.11-.16-.16.03.04-.49.86c1.16.15 2.35.05 3.47-.28.29-.08.5-.41.4-.7s-.4-.49-.7-.4Z" style="fill:#998577"/><path d="M51.53 71.83a22 22 0 0 1 1.36 3.78c.08.3.41.48.7.4s.48-.4.4-.7q-.54-2.1-1.48-4.06c-.13-.28-.53-.35-.78-.21-.29.17-.34.5-.21.78Z" class="cls-6"/><path d="M53.05 75.97s-.04-.13 0 .02l.07.19.19.53q.27.74.61 1.43a10 10 0 0 0 1.86 2.39l.18.19.07.08q-.05-.06 0 0 .04.08 0-.04-.03-.15.05-.3c.02-.1.06-.06-.02 0-.21.19-.36.29-.61.47l-.94.61-.39.23-.15.08c-.13.07.05-.02 0 0-.27.1-.45.36-.37.66.07.26.39.47.66.37.48-.18.92-.49 1.35-.76s.95-.58 1.29-.98c.5-.58-.11-1.13-.51-1.54a8 8 0 0 1-1.58-2.1c-.33-.67-.51-1.41-.83-2.08-.12-.26-.5-.33-.73-.19-.27.16-.32.47-.19.73Z" class="cls-6"/><path d="M53.59 82.79c.47 2.51.48 5.11.03 7.63-.05.28.07.56.36.64.25.07.59-.08.64-.36.49-2.71.47-5.47-.03-8.18-.05-.28-.38-.43-.64-.36-.29.08-.41.36-.36.64Z" class="cls-6"/><path d="M53.58 90.39c-.02.07 0 .16 0 .02 0 .03-.12.17 0 .03-.04.04-.23.2-.11.12q-.15.1-.31.18l-.04.02-.2.08a8 8 0 0 1-1.73.38c-.97.13-2.04.17-3.06.23-.73.04-.74 1.19 0 1.15.83-.05 1.65-.07 2.48-.16a9 9 0 0 0 3.14-.72c.42-.21.82-.55.92-1.03.16-.72-.94-1.03-1.1-.3Z" class="cls-6"/><g style="clip-path:url(#clippath)"><path d="m140.63 114.7 6.91-50.81h.46v50.81z" class="cls-3"/><path d="m128.32 114.7-.16-.02V63.89h19.38l-6.91 50.81z" class="cls-3"/></g><path d="M48.12 77.27v.1q0 .12.06.22.03.1.12.18.08.09.18.12.1.06.22.05l.15-.02q.15-.05.25-.15l.09-.12a1 1 0 0 0 .08-.29v-.1a.4.4 0 0 0-.06-.22.4.4 0 0 0-.12-.18.4.4 0 0 0-.18-.12.4.4 0 0 0-.22-.05l-.15.02a1 1 0 0 0-.25.15l-.09.12a1 1 0 0 0-.08.29" class="cls-6"/><path d="M43.07 88.77a3.7 3.7 0 0 1-2.46-1.45 10 10 0 0 1-1.69-3c-.16-.43-.77-.24-.76.15-.6-.02-1.74-.19-2.32-1.19-.81-1.39-1.26-2.23-1.05-2.93s.92-1.75 1.74-1.64a6 6 0 0 1 1.71.63l.02-.1q.17-.02.25-.23c.51-1.55.93-3.13 1.18-4.74q.34-2.27.24-4.56.57 1.3.63 2.75.02.26.23.32.08.05.2.03l12.66-1.31c.23-.02.34-.2.34-.38v-.14c-.49-3-1.93-5.84-4.19-7.89a11 11 0 0 0-8.41-2.81 10 10 0 0 0-4.69 1.75l-.1-.05c-2.12-.65-4.33.26-5.81 1.81-.7.73-1.23 1.6-1.66 2.52-.44.94-.78 1.95-1.38 2.8-.63.89-1.54 1.36-2.48 1.88a8 8 0 0 0-2.31 1.87 7 7 0 0 0-1.32 2.68c-.24.97-.29 1.97-.44 2.96-.16 1.07-.48 2.19-1.35 2.91-.85.71-1.98.96-3.05.7q-.25-.05-.37.13a.3.3 0 0 0-.09.3c.13 1.1.2 2.28.71 3.29a4.5 4.5 0 0 0 1.96 2.06c.98.49 2.06.37 3.11.29a5 5 0 0 1 1.7.06c.47.12.9.37 1.28.66.76.57 1.39 1.3 2.14 1.88a5 5 0 0 0 2.78 1.08 7 7 0 0 0 3.23-.82 6.3 6.3 0 0 1 3.35-.73c2.24.21 4.96 1.22 6.77-.71.16-.17.12-.36 0-.49 0-.16-.11-.3-.32-.32Z" class="cls-6"/><path d="M38.29 83.65a.5.5 0 0 1-.22.22c-.15.07-.22.06-.38.06h.05l-.21-.04-.26-.07-.15-.05-.03-.01-.07-.03-.32-.17-.18-.12-.13-.11-.17-.17-.07-.08-.05-.06c-.06-.08-.2-.31-.27-.46a4 4 0 0 1-.29-1.16c-.03-.44 0-.78.17-1.2l.04-.08.05-.1.15-.23c-.05.07.09-.1.12-.13l.08-.07.05-.04q.12-.09.27-.15c-.1.05 0 0 .03 0l.17-.05.1-.02c-.12.02.03 0 .06 0h.16c.12 0-.06-.02.07 0 .23.05.38.1.56.2q.37.21.66.5c.53.51 1.34-.3.81-.81-.82-.79-1.97-1.34-3.09-.86-1.02.43-1.53 1.5-1.6 2.55-.14 1.83.96 3.64 2.78 4.09.89.22 1.89-.09 2.21-1.04.1-.29-.11-.63-.4-.7-.31-.09-.61.11-.7.4Z" class="cls-5"/><path d="M47.87 99.63a16 16 0 0 1-.04-3.55c.14-1.29.48-2.55.88-3.78.22-.66-.82-.94-1.03-.28a18 18 0 0 0-.88 7.62c.03.29.22.53.53.53.26 0 .57-.25.53-.53Z" class="cls-6"/><path d="M143.68 59.69c0-.49-.66-1.77-.66-1.77s-4.03-4.49-4.65-8.02-1.23-6.26-.84-8.02 2.14-6.15 2.72-7.22 2.4-3.24 3.74-3.94c2.15-1.12 6.33-1.4 8.49-1.05s5.05 3.49 5.57 5.63 1.73 7.93 1.73 7.93l.86-.06s.62.03 1.23.54 1.81.4 1.68 1.65-.41 2.6-.7 2.89-.55.55-1.04.63-1.98-.25-1.98-.25-.38 7.31-.6 7.53-.45 4.88-.45 4.88.7 4.13-1.28 4.51-12.8 15.71-14.61 15.39.37-16.28.37-16.28l.31-1.68z" class="cls-18"/><path d="M140.65 42.54c.66 0 .66-1.02 0-1.02s-.66 1.02 0 1.02m9.6.41.09.09.16.11q.1.05.2.04.1 0 .2-.04a.4.4 0 0 0 .16-.11l.08-.1.07-.26-.02-.14-.13-.22-.09-.09-.16-.11a.3.3 0 0 0-.2-.04l-.2.04a.4.4 0 0 0-.16.11l-.08.1-.07.26.02.14q.04.13.13.22" class="cls-6"/><path d="M195.64 110.83a31 31 0 0 0-1.83-5.73 230 230 0 0 0-5.43-12.61q-2.97-6.29-6.4-12.33c-1.09-1.93-2.17-3.9-3.64-5.58a21 21 0 0 0-5.12-3.99 50 50 0 0 0-12.21-4.93l-1.6-.43-.09-.01.02-.66c.25-.29-.53-1.06-.51-.6.2 4.48-9.87 7.74-11.68 8.52-1.12.48-2.9-7.29-4.02-7.75-.2-.08-.43.09-.49.28-.07.23.08.41.28.49l.03.01-.11.57h-.18a95 95 0 0 0-18.89 6.51c-1.54.72-6.15 4.04-7.66 4.85.49-2.1.89-11.62 1.28-13.72L96.04 89.88c.43 2.33 1.4 4.71 3.11 6.4q.78.78 1.76 1.28c0 .16.08.31.28.35q.81.16 1.64.26l.22.03c3.28.39 6.62.12 9.84-.65 1.93-.46 3.78-1.16 5.65-1.84l5.27-1.89q2.63-.96 5.19-2.04a123 123 0 0 0-.57 9.79c-.12 4.98-.12 9.97-.16 14.95l-.06 7.98q0 .13.06.22c.03.17.16.31.37.31h6.54l5.36-.01 6.22-.02 6.71-.02 6.73-.02 6.37-.02 5.61-.01 4.45-.01h3.3q.1 0 .18-.04.78.08 1.56.12 2.33.1 4.64-.22c1.49-.21 3-.54 4.4-1.12a8 8 0 0 0 4.84-5.59q.18-.7.25-1.43.38-2.9-.17-5.8Zm-59.24 13.39-4.45.01h-2.94v-.92l8.78.02.02.89z" class="cls-17"/><path d="M152.46 94.53c-.1-.15-2.74-3.63-3.6-3.39s-2.36 1.36-3.08 1.5-1.28.11-1.28.11.12 1.3.46 1.54.82.44.82.44 2.43-.91 3.36-.95 3.32.76 3.32.76Z" class="cls-20"/><path d="m162.02 101.74-3.32-.4-2.83-2.82c-.58-.57-2.82-3.43-3.4-3.69s-1.47-1.25-2.7-1.13-3.56.68-5.38 1.63-3.08 1.83-3.08 1.83l-.29 1.54s.37.39.15.46-.66.06-.8.54-.17 1.29.31 1.64 1 .55 1 .55-.68.99-.33 1.64 1.27 1.4 1.61 1.54.54.4.54.4.05 1.49.92 1.91 3.53 1.04 4.84 1.28 4.34.53 4.61.51l2.29-.15 2.55 1.37z" class="cls-20"/><path d="M141.01 102.16c-.68 1.27.24 2.57 1.37 3.16 1.25.66 2.7.99 4.1 1.14.25.03.47-.24.47-.47 0-.28-.22-.44-.47-.47-1.13-.12-2.29-.4-3.32-.86a3 3 0 0 1-1.17-.84c-.24-.34-.37-.81-.16-1.19.28-.53-.53-1.01-.81-.47Z" class="cls-5"/><path d="M143.03 105.34c-.15.85.2 1.67.86 2.22.71.6 1.62.81 2.51.99 2.05.42 4.11.91 6.21 1.03q1.78.1 3.55-.1c.25-.03.47-.2.47-.47 0-.23-.22-.5-.47-.47-2.4.27-4.75.06-7.11-.41-1.13-.23-2.29-.4-3.4-.72-.78-.23-1.89-.83-1.71-1.83.1-.59-.8-.85-.91-.25Zm11.23-9.02-2.36-3.44c-.14-.21-.41-.3-.64-.17-.21.12-.31.43-.17.64l2.36 3.44c.14.21.41.3.64.17.21-.12.31-.43.17-.64m-4.24-5.41c-.76-.38-1.59-.26-2.33.1s-1.32.94-2.08 1.19q-.27.1-.55.11c-.17 0-.33-.05-.49-.05-.45 0-.67.43-.65.84.04.76.48 1.46 1.15 1.83.53.3 1-.51.47-.81q-.35-.19-.53-.53c-.06-.11-.22-.46-.15-.57l-.17.17q-.22 0-.03.03l.22.03h.36q.34-.03.66-.14.68-.26 1.27-.67c.65-.43 1.56-1.11 2.37-.7.54.27 1.02-.54.47-.81Z" class="cls-5"/><path d="m159.44 101.41-6.65-6.61c-.48-.47-.97-.96-1.58-1.25s-1.31-.36-1.99-.28c-1.37.17-2.71.64-3.98 1.17a25 25 0 0 0-4.16 2.22c-.5.33-.03 1.15.47.81a22 22 0 0 1 7.11-3.15 3.5 3.5 0 0 1 1.99.01c.55.22.99.66 1.4 1.06l3.13 3.11 3.59 3.57c.43.43 1.09-.24.66-.66Z" class="cls-6"/><path d="m147.33 97.93-3.67.48-1.84.24q-.47.05-.92.17c-.12-.2-.4-.32-.62-.1a34 34 0 0 1-3.93 3.4l-.06.05-.11.04c-.18.12-.25.35-.14.54l.06.11-1.05.74a.4.4 0 0 0-.18.24.4.4 0 0 0 .04.31c.11.17.36.27.54.14l1.03-.73.02.04q.08.14.24.18t.31-.04l.03-.03q.1 0 .2-.06l3.22-1.93c.58.52 1.42.66 2.2.68 1.34.03 2.69-.05 4.02-.09.51-.01.51-.8 0-.79l-3.15.08c-.81.02-1.83.12-2.5-.43-.4-.32-.71-1.14-.19-1.5.34-.24.86-.23 1.25-.29l1.63-.21 3.57-.46c.21-.03.39-.16.4-.4 0-.19-.18-.42-.4-.4Zm8.54 11.71c.6 0 .61-.94 0-.94s-.61.94 0 .94m2.33-8.32c.6 0 .61-.94 0-.94s-.61.94 0 .94m5.72 1.37c.6 0 .61-.94 0-.94s-.61.94 0 .94" class="cls-5"/><path d="M70.13 152.06c-3.14-12.09-10.63-19.7-14.99-31.33-.04-.16.47-3.28.43-3.44-.02-.07-.62 2.79-.59 2.67 2.52-8.95-1.09-15.65-4.15-20.13l-1.24-1.35c-1.13-.86-1.57-1.68-2.66-1.26q-.6.23-1.32.47a18.2 18.2 0 0 1-13.38-.86c-2.46-.69-2.98.26-3.98 2.02a46 46 0 0 0-3.41 7.53c-3.84 11.11-2.65 22.8-1.62 34.27.61 6.86 1.44 13.7 3.23 20.37l.09.21c.09.47.42.87 1.05.95 7.68.92 15.58 1.86 23.23.29 6.9-1.41 13.19-4.73 18.83-8.87.52-.38.61-.97.46-1.56Z" class="cls-13"/><path d="M48.91 68.04a9 9 0 0 1-.24 4.36l1.34-.14s.06-2.47-.47-3.46c-.47-.88-.64-.77-.64-.77Z" class="cls-10"/><ellipse cx="35.32" cy="79.91" class="cls-4" rx="6.21" ry="7.04" transform="rotate(-5.78 35.29 79.93)"/><path d="M39.56 79.48c.38 3.72-1.53 6.96-4.27 7.24s-6.05-2.21-6.43-5.93 2.33-7.26 5.07-7.54 5.25 2.51 5.63 6.23" class="cls-7"/><path d="m41.55 60.27-1.49.24a6 6 0 0 0-1.54.43c-7.48 3.15-5.3 14.62-5.3 14.62l2.83-.37s-2.36-12.31 5.5-14.91Z" class="cls-7"/><path d="m43.58 107.27-.08.02a18 18 0 0 0-9.3-9.94c-1.03-.47-2.13-.84-3.26-.82s-2.3.48-2.94 1.41c-3.97 4.03-5.99 9.75-6.85 15.38-.95 6.2-.41 12.53.13 18.78.84 9.66-3.2 18.18-2.16 31.71l34.58 1.24a96.3 96.3 0 0 0-10.13-57.77Z" class="cls-14"/><path d="M104.52 60.91s-10.74 14.61-8.48 28.97 17.18 8.81 17.18 8.81l4.17-34.97-7.74-1.95" class="cls-17"/><path d="M94.24 95.53v.22" class="cls-9"/><path d="m106.59 61.85.34-.71-.32-1.4s-1.13-1.32-1.85-2.93-1.44-3.21-1.53-4.37-.57-1.84-.93-3.25-1.47-2.3-1.25-2.66.66-.92 1.18-.15 1.08 1.63 1.62 2.18 1.3 1.17 1.3 1.17.28-.91.21-2.37-.31-1.63-.3-2.66-.17-1.83.38-1.69.62.68 1.18 2.01 1.36 3.89 1.36 3.89l.31.99s.71-1.17.86-2.16.35-3.03.48-3.7-.47-1.81 0-2.18 1.06-.38 1.14.85.25 2.32.25 3.57.41 2.37.77 2.88.33-.18.8-.71 1.27-1.51 1.55-2.2.05-1.96.41-2.41 1.04 0 .91 1.19.27 2.19 0 3.17-.24.96-.27 2.05.25 2.69.25 2.69.36-2.09 1.31-2.62 1.49-.11 1.22 1.44-.25 1.65-.91 2.63-.36.92-.99 2-1.4 2.08-1.76 2.41l-1.11 1.02-.37 2.95z" class="cls-18"/><path d="m113.93 62.76.12-1.8.08-1.16c.02-.28-.26-.55-.53-.53-.31.01-.51.24-.53.53l-.12 1.8-.08 1.16c-.02.28.26.55.53.53.31-.01.51-.24.53-.53m3.94-13.04a1.5 1.5 0 0 0-1.49.24c-.36.31-.54.78-.7 1.2l-.11.28-.05.13c-.03.09 0 .03 0 0l-.03.08c-.11.25-.21.56-.46.69-.22.11-.48.13-.7.26q-.2.12-.38.26c-.31.22-.62.51-.96.68-.23.12-.29.44-.17.65.14.23.42.29.65.17.27-.14.52-.37.77-.55l.45-.32.14-.09s-.15.05-.01.01l.27-.08c.32-.1.63-.25.85-.52q.27-.36.43-.79l.25-.62.06-.15.03-.06.14-.29.08-.13.06-.07.1-.1.05-.03c.06-.03-.07.02 0 0l.08-.02h-.02.09q.15 0 .35.07c.58.2.83-.72.25-.92Z" class="cls-6"/><path d="M96.77 111.7c-.96-.56-2.42 1.62-3.34 2.1-3.96 2.03-7.19 2.13-11.22 4.01-2.3 1.07-6.16 2.91-8.48 3.93-1.14.5-1.68-.93-2.72-1.66-.88-.62-1.5-1.52-2.15-2.36a58 58 0 0 0-4.73-5.39c.04-.35-.08-.72-.44-1.03l-5.14-4.37c-1.38-1.17-2.81-2.64-4.67-1.42-3.01 1.98-2.65 6.13-1.33 8.98a37 37 0 0 0 6.35 9.57 47 47 0 0 0 10.97 8.15c3.85 2.04 13.95-6.02 17.69-8.23l5.59-3.3c1.53-.91 2.5-2.43 3.6-3.89.93-1.24 2-2.22 1.33-3.65a3.4 3.4 0 0 0-1.32-1.46Z" class="cls-10"/><path d="M103.76 51.9a17 17 0 0 1-1.57-3.53l-.31-.9-.16-.46c-.02-.05-.02-.27-.05-.31 0 .01-.03-.06-.02-.02h-.06l.08.05q.15.11.29.26.29.3.43.7c.14.4.36.45.66.37.26-.07.47-.38.37-.66-.26-.71-.85-1.65-1.67-1.77-.44-.06-.84.19-1.03.59s-.11.86.03 1.27c.58 1.69 1.12 3.44 2.08 4.95.37.58 1.3.04.92-.54Z" class="cls-6"/><path d="M102.48 47.65c.19.68.72 1.12 1.19 1.61a4 4 0 0 1 .84 1.17c.07.14.16.32.2.43.1.24.32.41.58.33.22-.06.43-.35.33-.58a7 7 0 0 0-1.15-1.86q-.32-.35-.66-.68l-.17-.19-.03-.04-.06-.08-.12-.21-.01-.02-.04-.14c-.07-.25-.34-.4-.58-.33s-.4.34-.33.58Z" class="cls-6"/><path d="M105.75 50.6c-.09-1.21-.14-2.43-.27-3.64-.06-.57-.2-1.12-.33-1.68a3 3 0 0 1-.06-1.56c.21-.66-.82-.94-1.03-.28-.38 1.16.2 2.27.34 3.41.16 1.24.2 2.5.29 3.75.05.68 1.12.69 1.07 0Z" class="cls-6"/><path d="M104.99 43.89c-.07.06-.02-.02.01.04l.18.25q.17.35.31.73l.72 1.79 1.39 3.53c.11.27.36.46.66.37.26-.07.48-.39.37-.66l-1.76-4.45-.45-1.1c-.13-.32-.25-.68-.45-.96-.41-.58-1.18-.8-1.74-.29-.51.47.25 1.22.76.76Z" class="cls-6"/><path d="M54.16 98.3c-.77-.76-1.8-.16-2 .65-.18.25-.28.58-.21.95.28 1.68-.98 3.23-1.91 4.49-.94 1.27 3.15-.17 2.55 1.3-1.06 2.63 1.7 6.91 2.33 9.68.69 3.03-.97 6.9 1.28 8.98 2.5 2.3.79 4.33 3.56 6.29l9.59-15.76c-4.57-5.96-9.88-11.29-15.2-16.57Z" class="cls-13"/><path d="M109.05 49.8c-.14-.63.21-1.29.31-1.91.11-.73.07-1.48.1-2.22s.1-1.47.2-2.2q.07-.54.18-1.08l.1-.3q.01-.05.05-.08s-.18 0 0 0c.69.04.68-1.03 0-1.07-.81-.05-1.12.79-1.24 1.44a27 27 0 0 0-.34 2.66c-.06.84.01 1.71-.1 2.55s-.5 1.6-.31 2.48c.15.67 1.18.39 1.03-.28Z" class="cls-6"/><path d="M109.63 41.85c.44.38.58.94.65 1.51.09.75.11 1.51.16 2.27s.07 1.59.17 2.38q.07.58.25 1.12c.08.25.27.64.15.91s-.08.57.19.73c.23.13.62.07.73-.19.37-.85-.06-1.54-.22-2.37-.17-.88-.16-1.81-.22-2.7-.06-.84-.08-1.69-.2-2.52a3 3 0 0 0-.91-1.89c-.52-.45-1.28.3-.76.76Z" class="cls-6"/><path d="M112.46 50.16c-.02-1.12.72-2.06 1.25-2.99q.47-.76.71-1.61c.18-.65.34-1.25.76-1.8.18-.23.22-.53 0-.76-.18-.18-.58-.23-.76 0a5 5 0 0 0-.97 2c-.15.62-.4 1.16-.72 1.71-.63 1.07-1.38 2.14-1.35 3.44.02.69 1.08.69 1.07 0Zm.61 3.37a3.2 3.2 0 0 0-2.3 1.34c-.08.1-.09.29-.05.41s.13.26.25.32q.19.12.41.05c.22-.07.23-.13.32-.25-.02.03-.08.1-.02.03l.04-.04.08-.1.18-.18.1-.08.04-.04c.05-.04-.1.08-.03.02l.21-.14.21-.12.06-.03-.05.02c.02-.02.09-.03.12-.05q.26-.09.51-.12l-.14.02h.06q.22-.01.38-.16.15-.15.16-.38c.01-.23-.05-.28-.16-.38q-.16-.16-.38-.16Zm1.03 6.48c.67-.68 1.34-1.38 1.88-2.17q.4-.6.66-1.27l.06-.15c-.06.16-.04.1-.03.06l.04-.08.14-.22c.71-1.05 1.44-2.1 1.68-3.38q.28-1.5-.33-2.89c-.11-.27-.51-.32-.73-.19-.28.16-.3.46-.19.73.55 1.29.21 2.67-.46 3.84q-.4.66-.85 1.3c-.45.64-.45.95-.72 1.4-.51.85-1.21 1.56-1.91 2.27-.48.49.27 1.25.76.76Zm-11.14-8.18c-.6.6-.16 1.54.07 2.21q.4 1.17.95 2.27a19 19 0 0 0 2.77 4.08l-.14-.52-.4 2.11c-.13.7.9.96 1.03.28l.21-1.09c.07-.37.21-.79.21-1.17 0-.28-.24-.47-.41-.66l-.45-.54a18 18 0 0 1-2.19-3.63 18 18 0 0 1-.8-2.15l-.1-.37c-.02-.09.04-.13 0-.08.49-.49-.27-1.24-.76-.76Z" class="cls-6"/><path d="m115.29 43.63.04-.06-.19.19c.17-.13-.16.02-.12-.04l.06.34.03.81a8 8 0 0 1-.17 1.7c-.09.47-.24.92-.35 1.38q-.16.77-.24 1.56c-.03.29.27.53.53.53.32 0 .5-.25.53-.53.15-1.36.63-2.64.73-4 .05-.67.11-1.52-.15-2.16-.28-.72-1.17-.89-1.65-.26-.17.23-.04.6.19.73.27.16.56.04.73-.19Z" class="cls-6"/><path d="M114.39 49.56c.19.48.16.96.15 1.51q0 .87-.11 1.74c-.03.28.27.55.53.53.32-.01.5-.24.53-.53q.1-.9.11-1.8c0-.57.02-1.19-.19-1.73-.1-.26-.36-.47-.66-.37-.25.08-.48.38-.37.66Zm-46.54 67.96 5.18 6.47c.18.23.57.19.76 0 .22-.22.18-.53 0-.76l-5.18-6.47c-.18-.23-.57-.19-.76 0-.22.22-.18.53 0 .76" class="cls-6"/><path d="M73.26 122.76c4.47-2.19 9.2-3.79 13.79-5.72a64 64 0 0 0 3.68-1.66c.62-.3.08-1.23-.54-.92-4.47 2.19-9.2 3.79-13.79 5.72a64 64 0 0 0-3.68 1.66c-.62.3-.08 1.23.54.92m-11.51 4.74a18 18 0 0 0 6.27 3.71c.65.22.93-.81.28-1.03a17 17 0 0 1-5.8-3.44c-.51-.46-1.27.29-.76.76Z" class="cls-6"/><path d="M67.93 131.2c.21.11.3.19.48.36q.23.23.45.48c.34.36.71.68 1.18.85.88.33 1.96.06 2.59-.63a.56.56 0 0 0 0-.76.55.55 0 0 0-.76 0 1 1 0 0 1-.36.29l-.12.06q-.05.03 0 0l-.05.02-.27.07h-.05s.04 0 0 0h-.14l-.27-.01-.05-.01-.13-.03-.09-.03-.09-.04c-.31-.16-.54-.44-.79-.72a4 4 0 0 0-.98-.83c-.26-.13-.58-.07-.73.19-.14.24-.07.6.19.73Zm33.19-19.47a38 38 0 0 1 5.64.39c.28.04.58-.07.66-.37.07-.25-.09-.61-.37-.66a41 41 0 0 0-5.92-.43c-.69 0-.69 1.06 0 1.07Zm1.86 1.77q-.41.55-.79 1.11l-.59.81-.14.19-.07.09-.26.33-.25.29-.1.09c-.1.09.13-.08.02-.02-.25.14-.36.51-.2.76s.49.35.76.2c.18-.1.33-.27.46-.43l.61-.77 1.15-1.59.37-.51c.18-.23.04-.63-.2-.76-.29-.16-.57-.05-.76.2Z" class="cls-6"/><path d="M100.86 116.98s.57.8 2.08-.24c1.5-1.04 3.19.72 3.19.72l.42.7s.09.4-1.17.76-1.81.88-2.89 1.23-2.42.6-3.88.39-2.69-1.24-2.69-1.24l3.5-1.27" class="cls-10"/><path d="M106.2 118.26c.69 0 .69-1.07 0-1.07s-.69 1.07 0 1.07" class="cls-5"/><path d="M101.06 117.63c.69-.04 1.31-.3 1.95-.56q.43-.19.89-.32l.24-.05h.02l.11-.01h.36c.1 0-.12-.02.05 0 .28.05.58-.08.66-.37.07-.26-.09-.61-.37-.66-.73-.13-1.4.04-2.08.31q-.46.2-.92.37-.24.09-.49.15l-.22.05h-.06s.04 0 0 0l-.14.01c-.29.02-.53.23-.53.53 0 .28.24.55.53.53Z" class="cls-6"/><path d="m137.81 71.49 2.1-.36a12.2 12.2 0 0 1 7.8 1.25s-4.98-8.23-4.98-8.23-4.03 3.44-5.79 5.96a.88.88 0 0 0 .87 1.38" class="cls-16"/><path d="M146.31 74.68c0 .46-.38.84-.84.84s-.84-.38-.84-.84" class="cls-4"/><path d="M70.38 146.93c-1.84-4.31-4.38-8.26-6.7-12.32-2.44-4.25-4.21-8.86-6.75-13.05 0 0 2.72-7.35-1.67-22.09-.65-2.18-5.55-2.3-7.48-2.4l4.15 17.88c.42 2.45.64 4.95 1.2 7.37.53 2.28 1.69 4.22 2.63 6.34 1.98 4.44 2.99 9.29 4.55 13.88 1.62 4.81 4.42 11.16 6.51 15.78l5.55-4.98c-.08-2.1-1.18-4.5-2-6.4Z" class="cls-14"/><path d="M44.14 146.01c-.05-4.64 3.22-10 5.86-14.3 1.74-2.85 3.24-5.31 3.37-6.81.44-5.38-1.71-8.32-4.16-11.11a19 19 0 0 0-2.01-1.9c-1.25-1.08-2.55-2.2-3.25-3.76-.64-1.44-.66-3.03-.68-4.57-.02-1.46-.03-2.84-.54-4.11-.7-1.74-2.24-3-3.73-4.21q-.64-.52-1.27-1.06c-.95-.84-3.96-3.81-2.8-6.96l.72.27c-1 2.69 1.73 5.36 2.58 6.12q.61.53 1.25 1.04c1.57 1.28 3.19 2.6 3.96 4.52.56 1.4.58 2.92.6 4.38.02 1.53.03 2.97.61 4.27.63 1.4 1.8 2.42 3.05 3.49.71.62 1.45 1.25 2.08 1.97 2.45 2.8 4.81 6.01 4.34 11.68-.14 1.68-1.69 4.22-3.48 7.15-2.58 4.22-5.79 9.48-5.74 13.9z" class="cls-6"/><path d="M49.71 114.13c-.06-.12-1.52-2.98-1.15-9.04.1-1.69.31-3.32.49-4.77.44-3.53.79-6.32-.7-6.74l.21-.73c2.12.6 1.73 3.68 1.25 7.57a73 73 0 0 0-.48 4.72c-.36 5.82 1.05 8.61 1.07 8.64l-.68.35Z" class="cls-6"/><path d="M72.54 141.79c-.37-1.05-.35-.23-1.37-.47-4.33-1.03-9.39-3.14-13.69-4.34q-3.66-1.02-7.3-2.11c-1.19-.36-2.47-.67-3.48-1.44-.85-.65-1.44-1.58-2.05-2.44a56 56 0 0 0-4.52-5.57q.1-.54-.4-1.04l-4.96-4.57c-1.33-1.23-2.7-2.75-4.61-1.6-3.08 1.86-1.86 4.93-.65 7.82 1.43 3.43 4.93 10.83 5.56 13.68.44 2.02 5.73 1.97 9.65 2.95 4.22 1.06 8.55 1.76 12.83 2.51l6.39 1.11c1.75.31 3.63.81 5.41.41a4.3 4.3 0 0 0 3.23-2.95c.18-.64.16-1.34-.06-1.96Z" class="cls-10"/><path d="M43.93 122.36c-1.29-3.08-2.63-6.22-4.36-8.96-1.5-2.38-3.33-4.31-5.67-5.19a8.4 8.4 0 0 0-6.68.37c-3.87 1.91-6.11 6.53-6.38 11.51l1.11 8.2c.48 1.28 1.08 6.03 1.98 6.95l21.68-8.16c-.11-1.62-1.09-3.3-1.68-4.72" class="cls-13"/><path d="m159.33 48.63-.73 13.18-.19 3.4c-.04.65.98.65 1.02 0l.73-13.18.19-3.4c.04-.65-.98-.65-1.02 0" class="cls-6"/><path d="M159.82 65.04c-4.05.28-9.05 3.57-11.87 6.83l-.34.39 1.4-.37c2.45-.64 5.03-.5 7.4.39l2.63 1a.88.88 0 0 0 1.16-1.05l-.38-7.21Z" class="cls-16"/><path d="M104.68 116.69q.16.03.31.09l-.13-.05q.18.08.35.21l-.11-.08q.17.14.32.32l-.08-.11q.16.21.27.47l-.05-.13q.1.23.14.47c.02.13.14.26.25.32.11.07.28.1.41.05s.25-.12.32-.25a.6.6 0 0 0 .05-.41c-.16-.89-.83-1.75-1.76-1.93a.6.6 0 0 0-.41.05.5.5 0 0 0-.25.32c-.06.26.08.6.37.66m39.54-66.28h-.04c-.65-.03-.9-.35-1.08-.59q-.12-.17-.31-.32l-.2-.04c-.37-.08-1.25-.28-1.21-1.31.03-.64.5-.86.73-.97l.14-.07c.25-.16.36-.45.55-1 .2-.6.46-1.34 1.11-2.15.18-.22.5-.25.72-.08.22.18.25.5.08.72-.54.68-.76 1.3-.94 1.84-.2.6-.4 1.16-.96 1.52q-.14.09-.27.14l-.14.07v.02c0 .15 0 .18.41.27.2.05.41.09.59.22q.36.3.5.52c.13.17.14.18.29.19.1-.04.31-.21.43-.32.24-.2.46-.39.72-.47.41-.13.72.05.91.15l.12.06.18-.07a.5.5 0 0 1 .04-.53.5.5 0 0 1 .71-.12q.27.2.32.55a1 1 0 0 1-.22.71c-.23.26-.54.36-.74.42-.41.13-.72-.05-.91-.15l-.12-.06c-.08.04-.25.18-.36.27-.33.27-.67.56-1.07.56Zm-.89 8.09c-.37 2.15-.62 4.32-1 6.47-.05.27.07.55.36.63.25.07.58-.08.63-.36.37-2.15.62-4.32 1-6.47.05-.27-.07-.55-.36-.63-.25-.07-.58.08-.63.36m15.4-17.99c.2 1.44.3 2.92.2 4.37-.03.51.59.65.91.38.61-.51 1.69-1.39 2.52-.81.34.23.45.67.49 1.05q.04.32.03.63c0 .18 0 .08-.04.26-.25 1.1-1.21 2.45-2.5 2.06-.66-.2-.94.83-.28 1.03 1.56.47 2.92-.64 3.53-2.01.29-.65.4-1.27.33-1.98-.11-.99-.56-1.97-1.62-2.22-1.26-.29-2.31.47-3.23 1.22l.91.38c.1-1.55-.03-3.13-.24-4.66-.04-.29-.41-.44-.66-.37-.31.08-.41.37-.37.66Z" class="cls-6"/><path d="M152.91 57.28c-2.61 1.06-5.61 1.66-8.32.72l-.25-.09-.1-.04c-.1-.04-.01 0-.01 0l-.33-.15-.16-.09-.26-.17-.2-.14c-.12-.09.06.05-.02-.01l-.12-.09q-.64-.53-1.19-1.15l-.33-.39-.09-.11-.05-.06-.06-.08-.09-.12a12 12 0 0 1-.69-1.04 16.5 16.5 0 0 1-2.09-6.3q-.29-2.36-.14-4.73c.1-1.76.33-3.54.79-5.25l.42-1.55c.18-.66-.85-.95-1.03-.28-.24.87-.51 1.75-.69 2.63a32 32 0 0 0-.53 8.19c.21 2.51.81 5 2 7.23a13 13 0 0 0 2.77 3.56c.53.46 1.06.83 1.71 1.1 2.46 1.02 5.32.77 7.81 0q.77-.24 1.52-.55c.27-.11.46-.36.37-.66-.07-.25-.39-.48-.66-.37Z" class="cls-6"/><path d="M37.71 145.15c-.72-.02-1.33.59-1.39 1.38-.29 3.55-1.02 12.52 1.31 13.27 2.62.84 7.67.46 11.09.48a1.8 1.8 0 0 0 1.77-1.48c.64-3.63 2.11-12.67 1.05-12.8-5.45-.68-10.23-.77-13.84-.85Z" style="fill:#f7b3c2"/><path d="M31.06 131.26a18 18 0 0 0 3 6.49c.17.23.46.35.73.19.23-.13.36-.5.19-.73a17 17 0 0 1-2.9-6.24c-.16-.67-1.19-.39-1.03.28Z" class="cls-6"/><path d="M34.08 137.81s.09.2.06.11l.05.15a4 4 0 0 1 .13.67v.02l.02.14.03.21q.09.75.54 1.34a2.5 2.5 0 0 0 2.46.84c.27-.07.46-.39.37-.66a.55.55 0 0 0-.66-.37l-.13.03c.13-.02 0 0-.03 0h-.27c-.13 0 .08.02-.03 0l-.13-.03-.25-.08c.11.05-.02-.01-.03-.02l-.12-.07-.11-.07c-.12-.08.07.07-.03-.03l-.22-.22-.07-.11-.07-.12-.02-.05-.09-.3-.06-.31-.02-.16c-.02-.12 0 .06 0-.07a4 4 0 0 0-.37-1.38c-.13-.25-.49-.34-.73-.19a.55.55 0 0 0-.19.73Zm7.67-9.27 5.18 6.47c.18.23.57.19.76 0 .22-.22.18-.53 0-.76l-5.18-6.47c-.18-.23-.57-.19-.76 0-.22.22-.18.53 0 .76m-9.44-38.17a13 13 0 0 1-1.93 5.8c-.36.59.56 1.12.92.54a14 14 0 0 0 2.07-6.34c.06-.69-1.01-.68-1.07 0Z" class="cls-6"/><path d="M47.24 97.76c.69 0 .69-1.07 0-1.07s-.69 1.07 0 1.07" class="cls-5"/><path d="M168.77 91.06c-.25.11 1.54 4.66 4 10.15a.74.74 0 0 1-.45 1.06q-.15.04-.31 0l-.16-.04-.24-.1-.93-.38q-1.83-.73-3.23-1.26c-1.85-.69-3.02-1.05-3.07-.92s1.02.72 2.8 1.57q1.35.65 3.14 1.45l.91.41.24.1q.16.07.34.11.36.08.74 0c.49-.12.92-.46 1.14-.92.24-.45.21-1.08 0-1.49-2.46-5.49-4.66-9.85-4.91-9.74Z" class="cls-9"/><path d="M164.05 101.77a87 87 0 0 1-5.72-1.38c-.58-.16-.83.75-.25.91 1.89.51 3.8 1 5.72 1.38.59.12.84-.79.25-.91" class="cls-5"/><path d="M164.05 101.77a87 87 0 0 1-5.72-1.38c-.58-.16-.83.75-.25.91 1.89.51 3.8 1 5.72 1.38.59.12.84-.79.25-.91" class="cls-5"/><path d="M164.05 101.77a87 87 0 0 1-5.72-1.38c-.58-.16-.83.75-.25.91 1.89.51 3.8 1 5.72 1.38.59.12.84-.79.25-.91m-18.6-48.14c-1.5 0-2.45-.69-2.51-.74a.5.5 0 0 1-.1-.71.5.5 0 0 1 .71-.1c.07.05 1.6 1.14 3.85.06a.5.5 0 0 1 .68.24c.12.25.01.56-.24.68-.89.43-1.7.57-2.39.57m15.37-17.43c-.12-1.62-2.76-5.36-2.63-3.72.18 2.33.48 10.06.48 12.4 0 1.64 2.42-.03 2.42-1.67q0-3.5-.27-7Z" class="cls-6"/><path d="M137.66 34.97c-.4-.91-.27-1.97.05-2.91 1.01-2.97 3.84-5.1 6.91-5.75s6.3.04 9.12 1.41l.13.06c1.69 1.01 1.41 1.58 2.08 1.3a5 5 0 0 1 2.19-.19c1.85.28 3.95 1.56 4.84 3.88s-.32 7.55-2.1 9.82c-2.59-7.87-3.75-9.66-6.26-11.97a11.9 11.9 0 0 1-12.95 1.83c-.43.81-.55 1.84-1.36 2.63-.66.64-1.76 1.42-2.6-.03" class="cls-6"/><path d="M138.15 34.83c-.61-1.48.1-3.18.95-4.41a9 9 0 0 1 3.14-2.72c2.97-1.57 6.5-1.34 9.58-.24.78.28 1.58.59 2.26 1.06.37.26.65.59.99.88s.66.28 1.05.15a5 5 0 0 1 1.89-.18 5.5 5.5 0 0 1 4.75 4.93c.08 1.43-.18 2.87-.57 4.25a11 11 0 0 1-1.68 3.68l.85.22a69 69 0 0 0-2.58-6.92 16 16 0 0 0-2.29-3.72q-.72-.82-1.52-1.55a.53.53 0 0 0-.72 0A11.4 11.4 0 0 1 141.91 32c-.24-.12-.56-.08-.7.18-.47.92-.63 1.95-1.43 2.67a2 2 0 0 1-.83.49c-.37.07-.63-.24-.83-.56-.34-.56-1.22-.05-.88.51s.81 1.02 1.48 1.07c.51.04 1-.2 1.4-.5q.75-.55 1.2-1.37c.3-.58.46-1.23.76-1.81l-.7.18a12.5 12.5 0 0 0 10.95-.1q1.44-.73 2.62-1.8h-.72c.95.87 1.76 1.75 2.42 2.78a24 24 0 0 1 2.18 4.6q.81 2.17 1.53 4.37c.11.32.6.55.85.22.83-1.07 1.38-2.34 1.79-3.62s.71-2.77.76-4.18-.19-2.61-.93-3.76a7 7 0 0 0-3.43-2.7 5.4 5.4 0 0 0-3.29-.19l-.32.09-.12.04c-.12.06.03 0-.02 0h.03l.07.03-.03-.02c-.03 0 .08.08.02.02l-.08-.07q-.25-.26-.51-.5a8 8 0 0 0-2.24-1.29c-3.33-1.38-7.17-1.78-10.54-.31a10 10 0 0 0-4.02 3.19c-1.08 1.47-1.95 3.63-1.21 5.42.1.25.34.43.63.36.24-.07.46-.37.36-.63Zm21.25 74.77-1.63-.41c-.58-.16-.82.72-.25.91.26.09.56.19 1.63.41.59.12.84-.79.25-.9Z" class="cls-6"/><rect width="2.1" height="5.35" x="33.78" y="83.86" class="cls-7" rx=".98" ry=".98" transform="rotate(-5.78 34.85 86.56)"/><path d="m100.69 75.52-2.1 1.44c-.54.37-1.15.86-1.13 1.52.02.77.86 1.23 1.61 1.4.29.07.62.11.88-.04.22-.12.36-.35.49-.58q1.16-2.07 1.86-4.33a9 9 0 0 0 .09 4.02c.18.72.65 1.55 1.39 1.52.53-.03.94-.54 1.02-1.07a3 3 0 0 0-.3-1.55q-.28-.7-.66-1.35c-.41-.35-.73-.8-.86-1.32q.47.63.86 1.32.6.5 1.37.7a6 6 0 0 0 3.11-.22 1 1 0 0 0 .49-.27c.31-.39-.11-.94-.53-1.21a6 6 0 0 0-4.26-.84q-.31.11-.64.15.32-.09.64-.15a3.3 3.3 0 0 0 1.91-1.59c.49-.95.48-2.15-.04-3.09-.08-.14-.19-.29-.35-.3-.14 0-.25.1-.35.19-.97.97-1.74 2.14-2.26 3.41q-.2.77-.49 1.5.19-.77.49-1.5c.24-.95.34-1.93.12-2.88a4 4 0 0 0-.56-1.27c-.8-1.19-2.74-.5-2.63.94q.12 1.61.71 3.12.13.3.31.61l.19.08 1.08.73c-.54.05-.97-.33-1.27-.81a7 7 0 0 0-2.77-.57q-.52 1.43-.96 2.95.22.03.45.04a8 8 0 0 0 3.05-.7ZM116.35 65a6.5 6.5 0 0 0-5.55.1q-.23.1-.34.28c-.09.17-.03.37.04.55.42.96 1.53 1.47 2.58 1.5s2.07-.34 3.05-.7l-2.1 1.44c-.54.37-1.15.86-1.13 1.52.02.77.86 1.23 1.61 1.4.29.07.62.11.88-.04.22-.12.36-.35.49-.58q.5-.9.93-1.86l.34-2.87a2 2 0 0 1-.8-.74m51.34 25.79a6 6 0 0 0-4.26-.84q-.31.11-.64.15.32-.09.64-.15a3.3 3.3 0 0 0 1.91-1.59c.49-.95.48-2.15-.04-3.09-.08-.14-.19-.29-.35-.3q-.2.02-.35.19c-.97.97-1.74 2.14-2.26 3.41q-.2.77-.49 1.5.19-.77.49-1.5c.24-.95.34-1.93.13-2.88a4 4 0 0 0-.56-1.27c-.8-1.19-2.74-.5-2.63.94q.12 1.61.71 3.12.13.3.31.61l.19.08 1.08.73c-.54.05-.97-.33-1.27-.81a6.5 6.5 0 0 0-5.55.1c-.14.07-.28.15-.34.28-.09.17-.03.37.04.55.42.96 1.53 1.47 2.58 1.5a8 8 0 0 0 3.05-.7l-2.1 1.44c-.54.37-1.15.86-1.13 1.52.02.77.86 1.23 1.61 1.4.29.07.62.11.88-.04.22-.12.36-.35.49-.58q1.16-2.07 1.86-4.33a9 9 0 0 0 .09 4.02c.18.72.65 1.55 1.39 1.52.53-.03.94-.54 1.02-1.07a3 3 0 0 0-.3-1.55q-.28-.7-.66-1.35c-.41-.35-.73-.8-.86-1.32q.47.63.86 1.32.6.5 1.37.7a6 6 0 0 0 3.11-.22 1 1 0 0 0 .49-.27c.31-.39-.11-.94-.52-1.21ZM129.28 72.8l.19.08 1.08.73c-.54.05-.97-.33-1.27-.81a6.5 6.5 0 0 0-5.55.1q-.23.1-.34.28c-.09.17-.03.37.04.55.42.96 1.53 1.47 2.58 1.5s2.07-.34 3.05-.7l-2.1 1.44c-.54.37-1.15.86-1.13 1.52.02.77.86 1.23 1.61 1.4.29.07.62.11.88-.04.22-.12.36-.35.49-.58q1.16-2.07 1.86-4.33a9 9 0 0 0 .09 4.02c.18.72.65 1.55 1.39 1.52.53-.03.94-.54 1.02-1.07a3 3 0 0 0-.3-1.55q-.28-.7-.66-1.35c-.41-.35-.73-.8-.86-1.32q.47.63.86 1.32.6.5 1.37.7a6 6 0 0 0 3.11-.22 1 1 0 0 0 .49-.27c.31-.39-.11-.94-.52-1.21a6 6 0 0 0-4.26-.84q-.31.11-.64.15.32-.09.64-.15a3.3 3.3 0 0 0 1.91-1.59c.49-.95.48-2.15-.04-3.09-.08-.14-.19-.29-.35-.3-.14 0-.25.09-.35.19-.97.97-1.74 2.14-2.26 3.41q-.2.77-.49 1.5.19-.77.49-1.5c.24-.95.34-1.93.12-2.88q-1.5.54-2.97 1.13.18.84.49 1.65.13.31.31.61Zm26.87 47.12a6 6 0 0 0-4.26-.84q-.31.11-.64.15.32-.09.64-.15a3.3 3.3 0 0 0 1.91-1.59c.49-.95.48-2.15-.04-3.09-.08-.14-.19-.29-.35-.3q-.2.02-.35.19c-.97.97-1.74 2.14-2.26 3.41q-.2.77-.49 1.5.18-.77.49-1.5c.24-.95.34-1.93.13-2.88a4 4 0 0 0-.56-1.27c-.8-1.19-2.74-.5-2.63.94q.12 1.61.71 3.12.13.31.31.61l.19.08 1.08.73c-.54.05-.97-.33-1.27-.81a6.5 6.5 0 0 0-5.55.1c-.14.07-.28.15-.34.28-.09.17-.03.37.04.55.42.96 1.53 1.47 2.58 1.5s2.07-.34 3.05-.7l-2.1 1.44c-.54.37-1.15.86-1.13 1.52.02.77.86 1.23 1.61 1.4.29.07.62.11.88-.04.22-.12.36-.35.49-.58q1.16-2.07 1.86-4.33a9 9 0 0 0 .09 4.02c.18.72.65 1.55 1.39 1.52.53-.03.94-.54 1.02-1.07a3 3 0 0 0-.3-1.55q-.28-.7-.66-1.35c-.41-.35-.73-.8-.86-1.32q.47.63.86 1.32.6.5 1.37.7a6 6 0 0 0 3.11-.22 1 1 0 0 0 .49-.27c.31-.39-.11-.94-.53-1.21Z" class="cls-16"/><path d="M157.84 108.82a715 715 0 0 1-1.32-14.13q-.24-3-.44-6.01l-.53-7.34c-.09-1.19-.12-2.44-.63-3.53a3 3 0 0 0-1.1-1.28 4 4 0 0 0-1.85-.51q-.5-.02-1 0-5.04-.05-10.07-.03-5.06 0-10.12.04l-10.07.06q-5.03.03-10.07.02l-5.06-.02c-1.18 0-2.47-.11-3.63.18h-.03a4.8 4.8 0 0 0-3.3 2.67l-.04.16q-.15.34-.2.74-.05.53 0 1.04l1.08 12.78.91 10.8.66 7.83c.07.97.11 2.08.75 2.87.73.89 2.06 1.06 3.14 1.07 1.3.01 2.6-.07 3.89-.1l4.1-.08 4.59-.04-.66 3.24-1.19 5.82q-.03.17.06.28c-.01.18.1.37.33.37h23.78a.3.3 0 0 0 .23-.09q.17-.1.17-.29-.07-1.14.02-2.28a.3.3 0 0 0-.09-.23l-.01-.01a.3.3 0 0 0-.17-.09h-.07l-8.13-.02q.18-3.32.39-6.64l15.37.16 4.03.03c.79 0 1.63-.05 2.4-.29l.1-.02a7 7 0 0 0 2.4-1.41 5 5 0 0 0 1.31-2.2l.02-.1c.27-1.08.12-2.27.03-3.39Z" class="cls-2"/><path d="M116 70.12c.08-.26-2.96-1.47-6.86-2.53-3.89-1.07-7.13-1.57-7.19-1.31-.06.27 3.06 1.21 6.93 2.27 3.87 1.05 7.04 1.83 7.12 1.57m51.1 46.18c.23.11 1.65-2.8 1.94-6.73.32-3.93-.63-7.02-.87-6.95-.29.06.19 3.12-.12 6.87-.28 3.76-1.22 6.71-.94 6.81Zm-20.71-40.35c.28 0 .5-.65.5-1.46s-.22-1.46-.5-1.46-.5.65-.5 1.46.22 1.46.5 1.46" class="cls-9"/><path d="M171.55 74.73q-.2.77-.49 1.5.18-.77.49-1.5c.24-.95.34-1.93.13-2.88a4 4 0 0 0-.56-1.27c-.8-1.19-2.74-.5-2.63.94q.12 1.61.71 3.12.13.3.31.61l.19.08 1.08.73c-.54.05-.97-.33-1.27-.81a6.5 6.5 0 0 0-5.55.1q-.23.1-.34.28c-.09.17-.03.37.04.55.42.96 1.53 1.47 2.58 1.5a8 8 0 0 0 3.05-.7l-2.1 1.44c-.54.37-1.15.86-1.13 1.52.02.77.86 1.23 1.61 1.4.29.07.62.11.88-.04.22-.12.36-.35.49-.58q1.16-2.07 1.86-4.33a9 9 0 0 0 .09 4.02c.18.72.65 1.55 1.39 1.52.53-.03.94-.54 1.02-1.07s-.09-1.06-.3-1.55q-.28-.7-.66-1.35c-.41-.35-.73-.8-.86-1.32q.47.63.86 1.32.6.5 1.37.7a6 6 0 0 0 3.11-.22 1 1 0 0 0 .49-.27c.31-.39-.11-.94-.53-1.21a6 6 0 0 0-4.26-.84q-.31.11-.64.15.32-.09.64-.15a3.3 3.3 0 0 0 1.91-1.59c.49-.95.48-2.15-.04-3.09l-.05-.07-.35-.22a.5.5 0 0 0-.3.18c-.97.97-1.74 2.14-2.26 3.41Z" class="cls-16"/><path d="M88.08 123.81c-.03-.09 4.75-5.93 4.43-6.68-.31-.75-.82-3.3-.82-3.3l8.61-4.11 8.15 2.94.03 3.08s-.54-.09-.87.1-5.57-1.74-5.64-1.63.68 1.1.68 1.1l-1.79 1.67s.57.8 2.08-.24c1.5-1.04 3.19.72 3.19.72l.42.7s.09.4-1.17.76-1.81.88-2.89 1.23-2.42.6-3.88.39-2.69-1.24-2.69-1.24l-7.83 4.5Z" class="cls-10"/><path d="M181.33 88.38q.18-.77.49-1.5c.24-.95.34-1.93.13-2.88a4 4 0 0 0-.56-1.27c-.8-1.19-2.74-.5-2.63.94q.12 1.61.71 3.12.13.3.31.61l.19.08 1.08.73c-.54.05-.97-.33-1.27-.81a6.5 6.5 0 0 0-5.55.1c-.14.07-.28.15-.34.28-.09.17-.03.37.04.55.42.96 1.53 1.47 2.58 1.5a8 8 0 0 0 3.05-.7l-2.1 1.44c-.54.37-1.15.86-1.13 1.52.02.77.86 1.23 1.61 1.4.29.07.62.11.88-.04.22-.12.36-.35.49-.58q1.16-2.07 1.86-4.33a9 9 0 0 0 .09 4.02c.18.72.65 1.55 1.39 1.52.53-.03.94-.54 1.02-1.07a3 3 0 0 0-.3-1.55q-.28-.7-.66-1.35c-.41-.35-.73-.8-.86-1.32q.47.63.86 1.32.6.5 1.37.7a6 6 0 0 0 3.32-.3l-.85-1.73a6 6 0 0 0-3.66-.51q-.31.11-.64.15.32-.09.64-.15a3.2 3.2 0 0 0 2.19-2.37l-1.18-2.22c-.89.93-1.6 2.03-2.09 3.22q-.2.77-.49 1.5Zm5.88 18.9c.31-.39-.11-.94-.53-1.21a6 6 0 0 0-4.26-.84q-.31.11-.64.15.32-.09.64-.15a3.3 3.3 0 0 0 1.91-1.59c.49-.95.48-2.15-.04-3.09-.08-.14-.19-.29-.35-.3-.14 0-.25.1-.35.19-.97.97-1.74 2.14-2.26 3.41q-.2.77-.49 1.5.19-.77.49-1.5c.24-.95.34-1.93.12-2.88a4 4 0 0 0-.56-1.27c-.8-1.19-2.74-.5-2.63.94q.12 1.61.71 3.12.13.3.31.61l.19.08 1.08.73c-.54.05-.97-.33-1.27-.81a6.5 6.5 0 0 0-5.55.1c-.14.07-.28.15-.34.28-.09.17-.03.37.04.55.42.96 1.53 1.47 2.58 1.5s2.07-.34 3.05-.7l-2.1 1.44c-.54.37-1.15.86-1.13 1.52.02.77.86 1.23 1.61 1.4.29.07.62.11.88-.04.22-.12.36-.35.49-.58q1.16-2.07 1.86-4.33a9 9 0 0 0 .09 4.02c.18.72.65 1.55 1.39 1.52.53-.03.94-.54 1.02-1.07a3 3 0 0 0-.3-1.55q-.28-.7-.66-1.35c-.41-.35-.73-.8-.86-1.32q.47.63.86 1.32.6.5 1.37.7a6 6 0 0 0 3.11-.22 1 1 0 0 0 .49-.27Zm8.69 5.58-.45.06q-.31.11-.64.15.32-.09.64-.15.23-.08.44-.19a18 18 0 0 0-.52-3.04q-.6.88-1.01 1.85-.2.77-.49 1.5.19-.77.49-1.5c.24-.95.34-1.93.12-2.88a4 4 0 0 0-.56-1.27c-.8-1.19-2.74-.5-2.63.94q.12 1.61.71 3.12.13.3.31.61l.19.08 1.08.73c-.54.05-.97-.33-1.27-.81a6.5 6.5 0 0 0-5.55.1c-.14.07-.28.15-.34.28-.09.17-.03.37.04.55.42.96 1.53 1.47 2.58 1.5s2.07-.34 3.05-.7l-2.1 1.44c-.54.37-1.15.86-1.13 1.52.02.77.86 1.23 1.61 1.4.29.07.62.11.88-.04.22-.12.36-.35.49-.58q1.16-2.07 1.86-4.33a9 9 0 0 0 .09 4.02c.18.72.65 1.55 1.39 1.52q.09-.01.16-.04l.2-.63q.18-.7.25-1.43.04-.31.06-.64-.27-.63-.6-1.23c-.41-.35-.73-.8-.86-1.32q.47.63.86 1.32.3.26.67.44.05-1.17-.04-2.34Zm-21.91 9.76c-.41-.35-.73-.8-.86-1.32q.47.63.86 1.32.6.5 1.37.7a6 6 0 0 0 3.11-.22 1 1 0 0 0 .49-.27c.31-.39-.11-.94-.53-1.21a6 6 0 0 0-4.26-.84q-.31.11-.64.15.32-.09.64-.15a3.3 3.3 0 0 0 1.91-1.59c.49-.95.48-2.15-.04-3.09-.08-.14-.19-.29-.35-.3-.14 0-.25.09-.35.19-.97.97-1.74 2.14-2.26 3.41q-.2.77-.49 1.5.19-.77.49-1.5c.24-.95.34-1.93.13-2.88a4 4 0 0 0-.56-1.27c-.8-1.19-2.74-.5-2.63.94q.12 1.61.71 3.12.13.3.31.61l.19.08 1.08.73c-.54.05-.97-.33-1.27-.81a6.5 6.5 0 0 0-5.55.1c-.14.07-.28.15-.34.28-.09.17-.03.37.04.55.42.96 1.53 1.47 2.58 1.5s2.07-.34 3.05-.7l-2.1 1.44c-.54.37-1.15.86-1.13 1.52q0 .17.07.33h3.16q.99-1.86 1.61-3.86a9 9 0 0 0 .06 3.86h2.43a4 4 0 0 0-.28-.94q-.28-.7-.66-1.35Z" class="cls-16"/><path d="M187.8 124.15c-.01-.1-.45-.18-1.2-.22l-1.36-.21q-.8-.16-1.78-.4a79 79 0 0 1-10.06-3.52c-7.73-3.21-13.82-6.29-14.03-5.91-.19.34 5.62 4.04 13.46 7.29a47 47 0 0 0 10.42 3.17q1.05.14 1.9.19.85.01 1.45-.04 1.2-.2 1.2-.36ZM99.94 79.23q8.67-.04 17.35-.11 8.76-.08 17.53-.11h8.81q2.21 0 4.43.03l2.22.02c.55 0 1.16 0 1.66.25s.7.77.79 1.31c.11.65.11 1.31.16 1.97q.15 2.2.34 4.4.37 4.42.78 8.83a637 637 0 0 1 1.1 13.18c.1 1.47.22 2.83.11 4.24q-.08 1-.35 1.96c-.17.58.74.83.91.25.4-1.37.46-2.8.41-4.22s-.18-2.96-.29-4.43q-.34-4.46-.76-8.9c-.42-4.44-.55-6.01-.81-9.01q-.2-2.23-.36-4.46l-.17-2.27c-.04-.64-.06-1.29-.19-1.92-.12-.58-.38-1.13-.85-1.5s-1.09-.52-1.69-.57c-.7-.06-1.41-.03-2.11-.04l-2.28-.02q-4.48-.03-8.96-.03-8.94 0-17.88.09-8.84.08-17.68.13h-2.21c-.6 0-.61.94 0 .94Z" class="cls-9"/><path d="M72.38 132.4c.7-.12 1.4-.36 2.07-.59q1.92-.65 3.78-1.45a72 72 0 0 0 17.43-10.53c.22-.18.19-.57 0-.76-.22-.22-.53-.18-.76 0a70 70 0 0 1-11.66 7.71 63 63 0 0 1-8.75 3.88c-.78.27-1.59.56-2.41.7-.28.05-.44.4-.37.66.08.3.37.42.66.37Z" class="cls-6"/><path d="M117.15 122.55a474 474 0 0 0 1.23-25.11l-.47.47 4.81.16 7.67.26 1.77.06-.47-.47c.19 6.4 0 12.79-.2 19.18l-.16 5.51c-.02.6.92.6.94 0 .17-6.39.45-12.79.45-19.18q0-2.76-.08-5.51a.5.5 0 0 0-.47-.47l-4.81-.16-7.67-.26-1.77-.06a.5.5 0 0 0-.47.47 442 442 0 0 1-1.23 25.11c-.05.6.89.6.94 0Z" class="cls-9"/><path d="M90.73 115.39c1.55-1 3.09-2.01 4.71-2.9 1.6-.87 3.28-1.58 4.98-2.24.27-.11.46-.36.37-.66-.07-.26-.39-.48-.66-.37-1.76.69-3.5 1.41-5.16 2.31s-3.21 1.92-4.78 2.93c-.58.37-.04 1.3.54.92Z" class="cls-6"/><path d="M100.08 129.15c-4.53 0-8.22-3.69-8.22-8.22s3.69-8.22 8.22-8.22a8.23 8.23 0 0 1 8.22 8.22 8.23 8.23 0 0 1-8.22 8.22m0-13.9a5.68 5.68 0 0 0 0 11.34c3.12 0 5.67-2.55 5.67-5.67s-2.55-5.67-5.67-5.67" class="cls-9"/><path d="M100.26 110.16q1.72.44 3.41.96c1.03.31 2.08.61 3.08 1 .27.1.59-.12.66-.37.08-.3-.1-.55-.37-.66-1.01-.39-2.05-.69-3.08-1a78 78 0 0 0-3.41-.96c-.67-.17-.95.86-.28 1.03Z" class="cls-6"/><path d="m106.65 112.07.45.51.22.26.1.12.05.06c.02.03.07.11 0 0l.39.53.39.58c.16.25.5.37.76.2.25-.16.37-.5.2-.76a16 16 0 0 0-1.76-2.28c-.2-.21-.59-.22-.79 0a.57.57 0 0 0 0 .79Z" class="cls-6"/><path d="m106.73 112.03.88 1.57.41.81.08.17c.04.08-.05-.12 0 .01q0 .04.03.08l.12.41c-.05-.04 0-.14 0-.03l.01-.09-.03.09-.06.19c.04-.15.03-.03 0-.02 0 0-.08.06 0 0 0 0 .13-.1.08-.07s.11-.02.04-.01l-.09.02c.02 0 .12 0 0 0h-.12l-.26.02c-.1 0-.16-.04-.01 0l-.17-.04-.04-.02c-.1-.03.08.04.03.01l-.12-.06-.33-.19q-.5-.32-1-.69c-.23-.17-.6-.04-.73.19-.16.27-.04.56.19.73.52.38 1.05.8 1.66 1.03q.38.13.79.07c.32-.03.62-.06.86-.29.21-.2.35-.61.36-.9 0-.54-.32-1.1-.55-1.57q-.53-1.01-1.1-1.99c-.14-.25-.49-.34-.73-.19s-.33.48-.19.73Z" class="cls-6"/><path d="M121.4 148.59a1503 1503 0 0 0-2.67-26.08q-.01-.14-.07-.25a.6.6 0 0 0-.56-.36l-10.38.3-4.62.14-3.26.1-5.26.15-5.51.13-5.73.13a.54.54 0 0 0-.53.36l-.07.27a1581 1581 0 0 0-1.81 42.94q.02.36.26.5h.01q.14.1.35.1l15.43-.42 17.05-.47 8.1-.22q.1 0 .17-.03c.31 0 .61-.21.58-.61q-.7-8.35-1.48-16.69Z" class="cls-9"/><path d="M84.73 146.98c1.51-.54-.18-1.91-1.7-1.36-.9.32 2.09-.48 1.16-.41.24-.22.41-.53.41-.82 0-.67.23-.7-.46-.76l-2.15-.18a1 1 0 0 0-.73.21l-.07-.25c-.35-.01-1.05-.86-1.4-.87 1.38-.61 2.23-1.4 2.56-2.79.24-1.02.02-.94-1-.52a43 43 0 0 1-8.29 2.5c-.86.17-1.06.88-.82 1.46-.52.43-.68 1.2-.23 1.64q-.75.31-1.39.95c-1.96 1.94-1.79.81.16 1.81.07.04 2.08 1.25 2.15 1.27a9.7 9.7 0 0 0 6.43 1.97c1.4-.07.83.81-.17.38 1.34-.01.58-.93 1.91-1.14l1.18-.43c.27-.02-.16-.11.11-.15.66-.08 1.43-1.1 1.39-1.77m17.08-30.74s.57.8 2.08-.24c1.5-1.04 3.19.72 3.19.72l.42.7s.09.4-1.17.76-1.81.88-2.89 1.23-2.42.6-3.88.39-2.69-1.24-2.69-1.24l3.5-1.27" class="cls-10"/><path d="M111.48 141.99c-.06-.17-.96-1.82-2.61-3.88s-.07-.11-.08-.18c-.19-2.15-.5-3.58-.5-3.58a.6.6 0 0 0-.51-.46s-1.72-.21-1.72-.21h-.05c-.2 0-.36.16-.36.36v.6s0 .02-.02.02h-.01a24 24 0 0 0-3.47-2.62 1.5 1.5 0 0 0-.85-.26q-.48 0-.85.26a28 28 0 0 0-9.33 9.95l-.06.25c0 .27.19.51.44.57l1.71.33c.23.06.4.26.43.5.01.3.34 7.04.74 8.79.07.25.3.44.57.44h.01l2.9-.05h.08c.11 0 .19-.09.19-.19-.04-.59-.13-1.93-.2-3.35v-.12a.3.3 0 0 0-.17-.29 1.9 1.9 0 0 1-.9-1.49c-.09-2.36-.14-5.1 0-7.23a.34.34 0 0 1 .34-.32c.19 0 .35.15.35.34v.03a67 67 0 0 0-.06 4.77c0 .22.19.4.41.4s.4-.19.4-.41a68 68 0 0 1 .06-4.8.34.34 0 0 1 .34-.32c.19 0 .35.15.35.34v.03a67 67 0 0 0-.06 4.75c0 .22.19.4.41.4s.4-.19.4-.41c-.03-1.67-.02-3.35.06-4.78a.34.34 0 0 1 .34-.32c.19 0 .35.15.35.34v.03a82 82 0 0 0 0 7.02v.08c0 .63-.32 1.19-.8 1.52a.4.4 0 0 0-.15.27s-.04.35.11 2.07l.15 1.5q.03.15.18.16h3.57q.15-.01.18-.16c.22-2.06.28-3.21.28-3.21q-.02-.16-.18-.2l-1.18-.16a.4.4 0 0 1-.34-.29c-.02-.09-.01-.18-.01-.18.48-6.86 2.74-9.17 2.74-9.17l.11-.09a.4.4 0 0 1 .21-.07q.24.02.34.23l.03.16c.2 2.16.1 5.83-.02 8.69-.1 2.43-.23 4.34-.23 4.34q.01.13.14.14l1.94.04h.01a.6.6 0 0 0 .57-.44c.41-1.75.73-8.49.74-8.79.03-.24.2-.44.43-.5l1.71-.33a.6.6 0 0 0 .44-.57l-.06-.25Z" class="cls-2"/><path d="M80.46 142.93a9 9 0 0 0 2.15-2.06c.3-.4.57-.87.55-1.38s-.39-.96-.89-1.1-1 .03-1.45.26l-1.44.73a26 26 0 0 1-6.45 2.07c-.28.05-.45.4-.37.66.08.3.37.43.66.37q3.44-.64 6.6-2.13.78-.38 1.54-.78c.17-.09.38-.2.58-.16.21.04.16.21.09.38-.19.45-.58.87-.92 1.21q-.54.57-1.2 1.01c-.57.38-.03 1.31.54.92Zm-3.48 6.08c1.06.96 2.8 1.23 4.19 1.19a4 4 0 0 0 1.93-.46c.62-.4.89-1.18.55-1.87-.29-.58-1-.72-1.58-.55-.66.19-.38 1.22.28 1.03l.08-.02c.11-.03-.06 0-.02 0h.2l.08.02c-.13-.04.05.03 0 0q-.01 0 0 0l.02.08v.19c.01-.08-.01.03-.02.05-.02.07.05-.09.01-.03l-.03.06c-.08.11.05-.05-.02.02l-.06.06-.08.05-.16.08c.09-.04-.04.01-.07.02l-.14.05-.39.09-.32.04-.43.02a8 8 0 0 1-2.26-.35l-.23-.08-.11-.04-.03-.01-.38-.2-.17-.11.01.01-.1-.09c-.51-.46-1.27.29-.76.76Z" class="cls-6"/><path d="M79.4 142.92a5 5 0 0 0 1.72 1.09c.55.19 1.16.22 1.74.2.3 0 .61-.08.87.03.05.02.15.09.19.14l.07.11c.05.07-.02-.1 0 0 0 .06 0 .16.01.02v.1c0-.15 0-.01-.02.04.04-.12 0 0-.02.02q-.05.08 0 0l-.07.08-.13.12q-.2.16-.46.29c-.6.33-.06 1.25.54.92s1.23-.82 1.23-1.55c0-.69-.61-1.25-1.25-1.39-.38-.08-.78-.01-1.16 0q-.49.02-.87-.07c-.63-.13-1.13-.46-1.63-.92s-1.26.29-.76.76Z" class="cls-6"/><path d="M78.08 147.19a5 5 0 0 0 3.15 1.15q.85.05 1.71-.02c.48-.03 1.04-.02 1.5-.19a1.6 1.6 0 0 0 .91-2.05 1.5 1.5 0 0 0-.89-.93c-.5-.19-.95-.02-1.45.06a4.2 4.2 0 0 1-3.39-.94c-.51-.46-1.27.29-.76.76a5 5 0 0 0 2.81 1.25q.81.1 1.62-.03l.34-.07.16-.04c.15-.03.08-.01.05 0 .02 0 .22.01.14 0l.12.03c.05.02-.05-.03.03.02.04.03.13.12.16.17.01.02.06.12.02.03l.03.09.02.09c.03.11 0-.07 0 .05v.1q-.01.1-.05.19c.04-.11-.08.12-.04.08s-.15.13-.07.07a1 1 0 0 1-.41.14l-.62.05q-.72.06-1.45.05c-1.01-.01-2.13-.15-2.91-.86-.51-.46-1.27.29-.76.76Zm-41.13-5.96c.88.4 1.85.65 2.78.93q2.72.78 5.46 1.45a152 152 0 0 0 15.66 3.02c3.16.43 6.33.74 9.52.84.69.02.69-1.05 0-1.07-5.57-.16-11.12-.96-16.59-2.01a152 152 0 0 1-15.28-3.72l-.7-.23-.26-.1-.1-.04.03.01c-.26-.12-.58-.07-.73.19-.13.23-.07.61.19.73Z" class="cls-6"/><path d="M70.11 147.39q1.09.84 2.25 1.57.79.47 1.61.87c1.69.88 3.49 1.95 5.48 1.73.85-.09 1.68-.45 2.11-1.23.33-.6-.59-1.14-.92-.54-.25.45-.74.66-1.3.71-.87.08-1.74-.15-2.54-.46s-1.57-.77-2.35-1.17a30 30 0 0 1-1.47-.79 27 27 0 0 1-2.33-1.62c-.23-.17-.6-.04-.73.19-.16.27-.04.56.19.73Zm-23.1-12.81c3.18.83 6.31 1.85 9.44 2.84q5.62 1.79 11.24 3.52 2.34.73 4.71 1.37c.67.18.95-.86.28-1.03-3.18-.83-6.31-1.85-9.44-2.84q-5.62-1.79-11.24-3.52-2.34-.73-4.71-1.37c-.67-.18-.95.86-.28 1.03m58.5-17.36c.06.05-.02-.06.03.03l.03.09q.06.2.08.41c0 .11-.02.26 0 .3 0 0-.03.09 0 .03s.08-.05.02-.05-.2.11-.26.13c-.45.16-.89.31-1.32.54q-.59.35-1.21.67a9 9 0 0 1-4.64.74 5 5 0 0 1-2.27-.71c-.59-.36-1.13.56-.54.92 1.59.98 3.63 1.05 5.42.77a9 9 0 0 0 2.69-.85c.49-.25.94-.55 1.43-.78s1.09-.29 1.48-.69c.28-.29.31-.75.27-1.13s-.12-.9-.44-1.18c-.52-.44-1.28.31-.76.76Zm-4.39-5.49a38 38 0 0 1 5.64.39c.28.04.58-.07.66-.37.07-.25-.09-.61-.37-.66a41 41 0 0 0-5.92-.43c-.69 0-.69 1.06 0 1.07Z" class="cls-6"/><path d="M44.08 123.02c-.11-.26-4.95 1.51-10.82 3.94s-10.54 4.61-10.43 4.87 4.95-1.51 10.82-3.94 10.54-4.61 10.43-4.87m22.63-9.82c-.22-.16-2.19 2.16-4.16 5.35s-3.18 5.98-2.94 6.11 1.83-2.43 3.79-5.58c1.95-3.15 3.54-5.71 3.31-5.87Zm-42.9-4.02c.29.03.78-3.16 1.93-6.93.56-1.91 1.13-3.56 1.99-4.42.83-.9 1.64-1.06 1.61-1.21.02-.12-.97-.22-2.1.7a6 6 0 0 0-1.47 1.95c-.4.82-.7 1.73-1 2.7-1.18 3.89-1.24 7.2-.97 7.22Zm28.14 39.16c.02-.28-3.57-.7-7.99-1.16s-8.02-.78-8.06-.51 3.51 1.04 7.95 1.5 8.08.43 8.09.16Z" class="cls-9"/></g></g></svg>