<svg xmlns="http://www.w3.org/2000/svg" viewBox="0 0 200 200"><defs><style>.cls-1{fill:none}.cls-4{fill:#e4c7bd}.cls-6{fill:#fff}.cls-7{fill:#ffcf4e}.cls-8{fill:#efedea}.cls-10{fill:#c1dade}.cls-11{fill:#afcbcd}.cls-13{fill:#c99b40}.cls-15{fill:#5b3d5b}.cls-16{fill:#78577a}</style></defs><path class="cls-8" d="M182.26 97.19c-45.6-77.43-48.32-15.09-82.58-28.07-38.89-96.1-117.12 27.7-94.55 85.25 18.91 31.58 63.42 22.9 94.93 17.52 38.58-9.68 122.43-18.13 82.2-74.7Z" id="BG_Strong"/><g id="Illustrations"><g id="Layer_12"><path class="cls-10" d="M125.07 176.99c-.93-.46-2.05-1.02-2.72-1.85-.94-1.17.4-1.72 1.39-2.03 1.1-.34.63-2.08-.48-1.73-1.54.48-3.3 1.42-3.04 3.32s2.42 3.08 3.94 3.84c1.03.51 1.94-1.04.91-1.55Z"/><path class="cls-10" d="m124.6 171.34-2.85-3.31c-.76-.87-2.02.4-1.27 1.27l2.85 3.31c.76.87 2.02-.4 1.27-1.27ZM162.33 94.54c-12.39-3.87-25.9-3.66-38.15.61-1.08.38-.62 2.11.48 1.73a59.521 59.521 0 0 1 37.2-.61c1.11.35 1.58-1.39.48-1.73Z"/><path class="cls-10" d="M166.84 117c-.12-4.22-.28-8.43-.54-12.64 0-.16-.05-.29-.12-.4a.827.827 0 0 0-.15-.23l-2.03-2.36c1.3-.54 2.5-1.45 2.29-3.04-.26-1.9-2.42-3.08-3.94-3.84-.7-.35-1.35.26-1.36.84-.06-.02-.12-.04-.18-.07-2.82-1.01-8.86-2.09-15.63-2.59-6.77-.49-14.58 1.54-16.14 1.93-.73.18-2.34.52-3.88 1.08-.24-.34-.7-.55-1.18-.33-1.68.79-3.56 2.02-3.39 4.14.09 1.09.88 1.94 1.84 2.19-.6.89-1.26 1.74-1.97 2.55-.07.08-.11.16-.15.24a.3.3 0 0 1-.04.08v.02c-.03.09-.06.18-.07.29-1.04 16.88-1.18 33.88-.77 50.79.1 4.26.26 8.53.55 12.78.05.78.9 1.03 1.42.75l2.13 3.07s-.81.29-2.04 1.1c-1.23.82-.36.74 0 2.09.22.82 1.26 1.44 2.15 1.84-.16.45-.02 1.01.56 1.2 12.39 3.87 25.9 3.66 38.15-.61.2-.07.34-.18.44-.32 1.62-.79 3.32-2 3.15-4.03a2.486 2.486 0 0 0-1.84-2.19c.49-.73 1.03-1.42 1.59-2.1.33-.1.61-.37.64-.81 1.15-17.08 1.01-34.32.52-51.43Z"/></g><path d="M159.04 93.13c-6.88-1.46-13.95-2.43-20.99-1.87-3.75.3-7.49 1.02-11.03 2.3-1.2.43-3.23.9-3.92 2.08-.46.78-.18 1.63.47 2.04.85.82 2.53 1.01 3.55 1.27 3.25.86 6.56 1.46 9.9 1.82 6.75.74 13.6.44 20.26-.86 1.68-.33 3.35-.72 5-1.18 1.04-.29 2.51-.62 2.9-1.8.84-2.59-4.62-3.49-6.14-3.81Zm-34.18 3.6s-.03-.05-.05-.07c.02 0 .03-.02.05-.03.02.04.05.07.08.1h-.08Zm.9.22s-.02 0-.04-.01l.23-.06c.02.05.03.09.05.14-.08-.02-.16-.05-.25-.07Zm4.95 1.25h.1c.01 0 .02.01.03.02-.04 0-.09-.02-.13-.03Z" style="fill:#e8f8f9"/><path d="M139.28 164.09c-1.23-.98-2.5-1.94-3.91-2.65-1.33-.67-2.85-1.12-4.39-1.25l-2.97-11.29-3.54-13.48-1.81-6.87a.691.691 0 0 0-.14-.27c-.07-.21-.23-.4-.46-.45a442.49 442.49 0 0 0-19.86-3.39 456.176 456.176 0 0 0-31.31-3.54c-.04 0-.08-.01-.12 0h-.04c-.06 0-.12 0-.18.02-4.11.48-8.22.97-12.32 1.48-4.3.53-8.59 1.09-12.88 1.67-2.25.3-4.49.61-6.74.94-.13 0-.27.03-.38.12l-.06.06-.03.03c-.03.03-.05.07-.07.11v.01a233.307 233.307 0 0 0-12.32 26.41c-.82 2.1-1.61 4.21-2.37 6.34-2.03.18-4.04.56-5.98 1.19-.47.15-.94.32-1.4.5-.46.19-.94.44-1.12.95-.35 1 .69 1.65 1.48 1.93.27.1.55.19.83.28.01.03.03.07.05.1 1.26 2.1 2.86 3.99 4.74 5.57.06.05.12.09.19.12v.02a79.91 79.91 0 0 0 9.12 18.32s.01.02.02.02c.03.07.08.14.14.19 1.73 1.39 3.78 2.22 5.87 2.9 2.32.75 4.65 1.44 6.98 2.16l7.18 2.21c2.35.73 4.7 1.5 7.08 2.15 2.64.72 5.38 1.23 8.12.95.07 0 .15-.03.21-.05 3.93-.44 7.86-.9 11.78-1.38 3.99-.49 8.21-1.04 12.3-1.6 4.11-.56 8.22-1.15 12.33-1.78s8.04-1.25 12.06-1.93c1.97-.33 3.93-.66 5.89-1.02 1.55-.29 2.85-1.54 3.71-2.8.25-.36.46-.74.64-1.14 0-.01 0-.02.01-.04.89-2.04 1.76-4.1 2.53-6.19.66-1.79 1.24-3.6 1.79-5.42.37-1.21.73-2.43 1.09-3.64 2.37-1.56 4.53-3.42 6.91-4.96.25-.16.37-.45.31-.72.03.02.05.04.08.06.28.23.67.28.95 0 .23-.23.29-.72 0-.95Z" style="fill:#f6c243"/><g id="Layer_15"><path class="cls-4" d="M59.41 20.64s-.4-3.36-.64-4.79.32-3.47.32-3.47.79-2.08 1.32-2.1 2.04-1.56 2.76-1.6c.99-.06 2.41.84 2.87.89s1.66 1.55 2.04 1.86c.73.59.76 2.82.76 2.82l.29 3.14-1.05 2.68-1.85 2.7-1.74 1.14s-2.27.22-2.77-.13-1.46-1.29-1.46-1.29l-.84-1.84ZM89.71 63.41v8.15l1.3-1.28s.67 1.98 1.11 2.7 1.09.96 1.09.96l.5-1.61s1.33.5 1.59.44.44-.44.44-.44-.49-.96-.37-1.42.49-.85.78-.96 1.01-.49 1.01-.49l-1.14-1.32-2.06-2.39-.09-3.02-4.18.69Z"/></g><g id="Body"><path class="cls-15" d="m61.21 28.21 8.16-.66c.36-.03.67-.29.67-.67 0-.34-.31-.7-.67-.67l-8.16.66c-.36.03-.67.29-.67.67 0 .34.31.7.67.67ZM69.79 16.14c0-1.29-.01-2.62-.42-3.86s-1.21-2.35-2.27-3.13c-2.06-1.52-5.06-1.6-6.99.17-1.92 1.75-2.45 4.74-2.32 7.23.13 2.48.98 4.97 2.58 6.92.44.54.94 1.01 1.48 1.44.63.49 1.37 1.02 2.21.94.77-.07 1.53-.59 2.14-1.04.65-.47 1.19-1.04 1.42-1.83.25-.83-1.05-1.19-1.3-.36-.13.43-.48.79-.87 1.07-.21.15-.44.29-.66.42-.25.15-.52.35-.82.39-.45.06-.99-.41-1.31-.66-.39-.31-.8-.7-1.14-1.09-1.35-1.53-2.15-3.64-2.35-5.65-.11-1.08-.07-2.21.12-3.21.21-1.1.57-2.2 1.26-3.09.61-.79 1.49-1.31 2.44-1.44s1.97.09 2.82.56c.99.55 1.83 1.52 2.21 2.57.43 1.18.43 2.38.43 3.65 0 .87 1.35.87 1.35 0Z"/><path class="cls-15" d="M61.06 24.36c.27 1.29.6 2.56.98 3.82.1.34.48.58.83.47s.58-.47.47-.83c-.38-1.26-.71-2.53-.98-3.82-.07-.35-.5-.58-.83-.47-.36.12-.55.46-.47.83Z"/><path d="M92.86 117.07c-.53-3.79-1.13-7.56-1.8-11.32-.68-3.76-1.39-7.28-2.18-10.89-.46-2.12-.94-4.24-1.44-6.35-.53-5.68-1.06-11.36-1.6-17.04L85.42 67c-.03-.36-.28-.67-.67-.67a.71.71 0 0 0-.63.43c-1.64.05-6.08.19-8.58.21-3.11.02-13.61-1.38-13.61-1.38l-.02.25c-.39 0-.62.31-.66.67-.66 6.09-1.19 12.21-1.46 18.33-.07 1.56-.12 3.13-.14 4.69 0 .13.03.24.08.33.46 3.21.98 6.41 1.53 9.6.6 3.47 1.24 6.93 1.94 10.38.35 1.7.71 3.39 1.11 5.08.13.55.72.59 1.07.32l.89 4.36 6.2-.04-.42-3.12c.03 0 .06 0 .08-.01.38-.1.54-.47.47-.83-.63-3.47-1.2-6.95-1.7-10.43-.45-3.19-.83-6.39-1.18-9.59-.21-1.97-.41-3.94-.61-5.9.01-.03.02-.06.03-.1.84-5.27 1.76-10.53 2.75-15.78.27-1.43.54-2.86.83-4.29l.69.12 4.31 16.43 1.22 4.66s.03.08.04.12c0 .06 0 .13.02.2 1.7 6.75 3.52 13.49 5.01 20.3.42 1.93.82 3.86 1.18 5.8.07.36.5.56.83.47.21-.06.35-.2.42-.37l5.02-.44c.03.22.07.45.1.67.05.36.51.56.83.47.39-.11.52-.47.47-.83Z" style="fill:#a5a4a4"/></g><path class="cls-4" d="M46.71 18.49s5.28-3.16 5.36-3.31 4.71-1.54 4.71-1.54l3.29.06 2.55.67-2.46 1.01 1.76 1.55-2.78.06.51 1.42-2.88-.34-1.13-.05s-.12.82-1.32 1.23c-1.2.41-2.33.34-2.33.34l-2.17 2.49-2.38-2.34-.73-1.25Z"/><g id="Layer_18"><path class="cls-8" d="M55.61 43.38s-.03 0-.04-.01c-.03-.02-.11-.02-.13-.06h-.02s-.02.01-.01.02c0 .01.02.03.03.04 0 0-.01.02-.02.03-.02 0-.04 0-.04-.02-.02-.02-.02-.05-.04-.07-.02-.02-.05-.03-.09-.03-.04 0-.07 0-.09-.03-.04-.05-.11-.09-.14-.15 0 0 0-.02.02-.03.06-.02.06-.03.01-.04-.08-.02-.09-.02-.04-.06l-.1.04h-.03c-.02 0-.02-.02-.04-.03-.04-.02-.04-.02.03-.04.01 0 .03-.03.02-.03h-.02l.09-.03h-.16l.06-.04s.02-.01.03-.02l.06-.03h-.12s.03-.03.05-.04c.05-.02.06-.03.02-.05-.05-.02-.09-.03-.06-.08s0-.09 0-.14c0-.01-.02-.02-.03-.02v-.02c.08 0 .06-.04.08-.06.01-.01.04-.02.07-.03.09-.06-.01-.08.01-.12-.08.03-.07-.05-.17 0 0 0-.03 0-.03-.01 0-.03.02-.06.04-.08.04-.04.04-.08-.02-.09-.02 0-.04 0-.06-.01l.08-.04.06-.03h-.06c-.08 0-.1-.02-.07-.06.02-.03 0-.06-.02-.09 0 0-.02-.02 0-.02.06-.05.04-.08 0-.1-.03-.01-.03-.02.03-.04.03 0 .06-.03.09-.05h-.08s-.12.02-.17 0c-.07-.02-.01-.04.03-.07l.08-.04.02-.02c-.01 0-.03.01-.04.01h-.04c.01-.05.02-.11-.04-.14 0 0 .02-.03.03-.05.02-.03.03-.05-.04-.05-.05 0-.03-.02-.01-.04.02-.02.04-.05.1-.05h.07c-.01 0-.02-.02-.03-.03-.03-.01-.08-.02-.11-.03-.02-.01-.05-.03.03-.06 0 0 .01-.02 0-.02h-.05c-.1.02-.1.02-.07-.03 0-.02.02-.04 0-.05-.07-.01-.02-.04.02-.07.01 0 .03-.01.04-.02 0 0 .02.01.02.02 0 .02-.01.04-.01.06 0 0 .02 0 .02.01.01 0 .03-.02.03-.02.02-.04.06-.08 0-.09v-.02h.04s.02-.01.04-.01c0 0 0-.02-.02-.02-.06 0-.07-.02-.08-.04-.01-.02-.05-.04-.09-.06 0 0-.04.01-.06.02h-.04v-.02c.04-.04.03-.06-.04-.06-.04 0-.05-.06-.01-.09.05-.04.09-.01.13-.02.01 0 .02.02.04 0 .01-.02.04-.03.07-.05.06-.03.07-.04.01-.05-.04 0-.07-.02-.07-.05h-.06l-.13.03v-.02l.07-.04.02-.01.04-.03h.01c.05-.02.05-.02.02-.04 0 0-.02-.02-.02-.03l-.02.02h-.03l.03-.06h.02s.01-.04.03-.06l-.02-.02c-.01-.02-.04-.04.02-.08.01 0 .02-.02.01-.03a.27.27 0 0 0-.07-.08s-.05-.02-.07.02l-.06.03c0-.01-.02-.02-.02-.03.02-.03.01-.05 0-.06 0 0-.01-.02 0-.02.02-.02.04-.03.06-.04 0 0 .02.02.02.03v.03c.02-.01.04-.03.04-.04v-.14h.03l.02-.03c.02 0 .05-.03.03 0l-.03.06v.02c.01 0 .03 0 .03-.02.02-.03.04-.03.07-.02.03.02.04.04.08.05.04.01.08.02.13.03h.03v-.02c-.04-.01-.04-.04 0-.07v-.03c-.01-.02-.03-.03 0-.05v-.02q-.05-.03 0-.08s.02-.03 0-.04h-.03l.02.03s-.06.02-.09 0h-.06c-.03 0-.04 0-.02-.02v-.03c-.04 0-.03-.03-.03-.05s.05-.02.07-.03c.02-.01.05 0 .07 0 .04-.02.03-.05 0-.06-.04-.01-.05-.09-.03-.12h.01s.02.01.02.02c0 .04.02.08.06.11.02.02.01.05 0 .07 0 .02 0 .04.03.04.02 0 .03 0 .04.01s.02.01.04.02h-.04c-.01 0-.02.02-.02.03v.06c.1 0 .07.07.06.11v.02c0 .02 0 .02.03 0H55c.07 0 .13-.05.09-.08-.06-.04-.06-.09-.08-.14.06-.04 0-.06 0-.09s-.01-.06-.02-.1c0-.04-.04-.05-.08-.07-.01 0-.03 0-.04-.02v-.02h.02c.02 0 .03 0 .02-.02 0-.02-.02-.03-.02-.05v-.03h.02s.03.06.07.05l.01.01c.01.03.03.07.04.1 0 .03.01.06.02.08.04 0 .04-.03.04-.05v-.04c.07.02.11.05.12.1 0 0 .04.02.06.02.06 0 .06.03.09.04.02 0 0 .03.01.05h-.04c-.02-.02-.03-.03-.04-.05 0-.02-.03-.02-.04 0-.02.01-.04.02-.05.04-.02.03 0 .04.04.04.08 0 .07 0 .08.04 0 .02.04.04.06.06h.02c.02.05.06.08.13.1 0 0-.02.02-.03.02-.05 0-.06.02-.06.04 0 .01.02.02.03.03 0 0 .02.01.02.02-.02.04 0 .06.07.05h.05l-.05.04a.19.19 0 0 0-.14.07l.07-.02s.05 0 .08-.02h.01l.02-.02s.04 0 .02.02l.08.12v.01l-.22.05s-.05-.04-.07-.06v-.02s-.04.02-.05.02c0 0 0 .02-.02.02-.02.03-.01.05 0 .07h-.05H55.4v.05h.02s.03 0 .03-.01v-.04c.08 0 .17-.02.25-.04 0 0 .02 0 .02.01-.01.02-.02.05-.05.07-.01 0-.05.02-.08.02-.09 0-.09 0-.09.05 0 .04.05.07-.05.12v.02l.1.05s.02 0 .02.01c.06.03.13.07.19.1.01 0 0 .03 0 .04-.09.06-.12.12-.06.16h.05c.04 0 .08-.02.11-.04.01 0 .02-.02.02-.03 0-.01 0-.02.02-.03 0 0 .03-.02.04-.02v.02s-.03.07.02.08l-.02.02h-.03s-.02 0-.03-.01h-.04s0 .02-.02.03c-.04.06-.04.11.01.14 0 0 .02.01.03.02.03.01.07.02-.02.04-.02 0-.04.06-.03.07.03.05.01.11.03.15.01.03.05.05.08.08.02.02.04.04.06.07 0 0 0 .02.02.03 0 0 .01 0 .02.01h-.04c-.01 0-.04.01-.04.02 0 .03.01.07.02.1H56l.02-.02.04-.06s.02.02.03.02c.01.02.02.05-.05.07-.04.02-.06.03-.04.04h.08c.01 0 .03 0 .04-.02.09-.06.09-.02.09 0 0 .03.08.04.03.09l-.02.02h-.02v-.02l-.04-.02c-.02 0-.03.02-.05.02-.03 0-.07.03-.08.02-.07-.03-.13.02-.18.05-.03.02-.04.03-.06 0 0 0-.04 0-.06-.01 0 .01-.02.03-.01.04.01.01.04.03.07.03.02 0 .07 0 .1-.01h.03c.07 0 .1-.02.13-.05l.02-.02s.01.01 0 .02c-.03.03-.05.07-.08.1h-.09c-.05.03-.03.1.03.1h.04v-.02c-.01-.03 0-.04.07-.03h.1c.03 0 .06.04.09-.02 0 0 .01 0 .02-.01 0 0 .01 0 .01.01 0 .02.02.03.02.05 0 0-.02.02-.04.02-.1.02-.1.03-.05.05.01 0 0 .02 0 .03 0 0-.02 0-.02.01 0 .04 0 .07.02.1h.1c.01 0 .03 0 .02.01-.02.02-.02.04.02.04.01 0 .02 0 .02.01.02.05.03.1.04.15 0 0-.01.02-.02.02h-.04c-.02-.02-.09-.04-.03-.08 0 0-.01-.02-.03-.02h-.15s-.07 0 0-.03c.02 0 .02-.02.04-.02.09-.03 0-.03 0-.03-.1.02-.08-.01-.09-.04 0-.01-.02-.02-.03-.03l-.04.01c0 .02-.02.04-.01.05.02.04.05.08.07.12v.01c-.1.08.04.1.02.17h.11s.01-.02 0-.02c-.07-.01 0-.07-.02-.09h.01c.03.02 0 .06.1.04-.02.04-.04.08-.07.12-.04.04-.08.04-.11.02h-.03l-.02.02c0 .03 0 .06-.06.1H56.14s.01.01.02.01h.04l-.2.05-.06.01h.09c.06-.01.15 0 .16.03 0 .01.03.02.04.03.02.02.04.04.03.06 0 .02-.07.04-.11.06-.02 0-.03.01-.05.02h.05s.04 0 .04.01c0 .02.05.04 0 .08 0 0 .02.02.04.02.08 0 .1.04.06.1-.02.02-.03.02-.04.01-.01 0-.02-.01-.02-.02 0-.02 0-.05-.06 0h-.03c.07-.08 0-.1-.05-.12-.06-.03-.03-.09-.04-.13 0-.01-.02-.02-.02-.04-.02.02-.05.03-.05.05 0 .03 0 .06.01.09v.07c0 .02.02.04.04.05.03.02.04.04 0 .07-.09.05-.09.09-.09.13 0 .03-.04.03-.07.04h-.02l-.09-.06c-.01 0-.03-.02-.05-.02h-.03c-.02.02-.04.05-.05.07 0 .02.02.04.02.07 0 .01-.02.02-.03.04h-.02Zm-.53-3.91.02-.03-.03-.03v.04s.01 0 .02.01Zm-.56.35s.01-.02 0-.03c0-.02-.03-.03-.04-.04-.02.01-.04.02-.03.02.01.02.02.03.04.05h.02Zm.33.58-.05.03.08.02s.03-.02.02-.03c0-.01-.03-.02-.04-.02Zm0-.19Zm-.1-.07h.04l-.01-.01h-.03Zm-.02.03h-.01.01Zm.43-.07h.01-.01Zm-.6.06.57-.46s.04-.02.05-.03c-.02-.03-.03-.04-.08-.02-.03.01-.06.02-.04.04.01.01.04.02.07.02Zm-.25.17v-.02c-.01-.01-.03-.02-.04-.03 0 .02.01.03.02.05h.02Zm-.14.14h.05l-.04.02c-.03.02-.05.04-.05.06l.13-.03c.01-.02.03-.03.05-.04.03-.02.06-.02.07 0 0 0 .02.02.03.02.02-.02.04-.03.06-.05.02-.02.01-.04.03-.05.04-.03 0-.03-.03-.02.06-.04.03-.08.03-.12v-.02h.04c.02 0 .03.02.04.03.02.01.03.03.04.03.07-.02.07.02.08.04-.01 0-.03.01-.04.02s-.01.02-.02.03c-.01 0-.03-.01-.04-.02v-.01s-.01.01 0 .01V40.49l.04.02v-.08h.05l.01-.05s.01-.02.02-.03h.02l.08-.05-.04-.02s-.02-.01-.03-.02c0-.01 0-.03-.05 0-.03.01-.07 0-.06-.03 0-.02 0-.04-.02-.05H54.47s-.02.01-.04.01v.03c0 .02.03.05-.04.07 0 0-.01.01-.01.02.02.03.04.06.07.08-.02 0-.05.02-.07.01-.02 0-.02-.01-.04.01s-.08.03-.13.04l-.04-.02.06-.03c.01 0 .04-.02.03-.03 0-.02-.02-.03-.04-.04h-.02c0 .03-.07.06-.04.09v.02h-.01Zm-.22.11.02-.03v-.03s-.02.01-.03.02l-.02.02.02.02Zm.04.09v-.02h-.02s.01.02.02.03Zm.15.19s.02-.03.01-.04-.02-.01-.03-.02c0 .01-.02.03-.02.04 0 0 .02 0 .04.02Zm.39-.12v-.05s-.03 0-.05-.01l-.11.05.05.03s.06.04.11-.01Zm.23-.03.03-.01-.11-.03s-.03 0-.03-.01c0-.02.01-.04 0-.06h-.05s-.07.11.03.13c.04 0 .03.05.12 0Zm-.6.26s.01 0 .01-.01c0-.02-.01-.03-.02-.05-.02-.02-.05 0-.07.01-.02.01-.04.04-.03.04h.11Zm.32-.04v.02c.01 0 .02-.01.03-.01.07-.01.08-.03.07-.06 0-.01.03-.03.05-.05l.03-.03h-.06l-.04.02h-.03l-.04-.01s-.02.03 0 .03c.06.02.05.04 0 .08Zm-.41.14.02-.02s-.02 0-.03-.01l-.02.02h.04Zm.87-.06v.04h.03c.03-.03.04-.02.06-.01h.03c0-.01.02-.02.02-.02 0-.01-.01-.03-.03-.03-.03 0-.08 0-.11.02Zm-.72.15s.02-.03.03-.04c0 0-.02 0-.02-.01l-.02.04.02.02Zm.12.02s.03-.02.03-.03c0 0-.01-.02-.03-.02 0 0-.03 0-.05.01l.05.04Zm-.13.11s.03-.02.02-.02c0 0-.02 0-.02-.01 0 0-.03.01-.03.02 0 0 .01 0 .03.02Zm.44-.1.07-.06.06-.06-.03-.03c-.03 0-.08.02-.09.04-.02.02-.08.04-.05.07.02.01.03.03.05.04Zm.25.03s-.04.03-.04.04c0 .01.04.01.08.02.01-.03.03-.04.02-.05 0 0-.04 0-.06-.01Zm-.26.03.02.02s.02 0 .04.01c.01-.01.03-.03.02-.03-.01-.01-.03-.03-.05-.03h-.07l.03.03Zm-.23.13s.04-.03.03-.04c0-.01-.04-.01-.06-.02l-.02.04.05.02Zm.54.09s-.02 0-.04-.01c-.01.01-.03.03-.03.04 0 0 .02.02.03.02h.02s.02-.03.01-.04Zm-.14-.04-.02.01.04.02v-.02s-.02-.01-.03-.02Zm.26-.16-.05.05.02.01.05-.05h-.02Zm-.6.29.04-.02.08-.05h-.05s-.05.03-.06.05v.03Zm.2-.05s.04.01.06.01c.02 0 .04-.01.07-.03h-.09s-.03.02-.04.02Zm-.56.19s.01-.02 0-.02c0 0-.02 0-.03-.01 0 0-.02.02-.01.02 0 0 .02 0 .04.01Zm.47-.11.02-.02h-.03s-.02 0-.05.02h.06Zm.05.08.12.03V41.64l-.05-.02-.06.05Zm-.4.2s.08-.04.07-.05c-.01-.02-.04-.04-.07-.06h-.02l-.1.09s.07.04.11.01Zm.15.2s.01-.04 0-.05c0-.01-.03-.02-.05-.03h.01s.04-.11-.11-.04h-.02s-.03-.02-.06 0c-.01.02 0 .04 0 .04.11-.01.13.02.13.06H54.37Zm.37-.19v-.03c0-.01-.01-.02-.02-.02h-.04c0 .03-.05.03-.08.04-.05.02-.06.04-.03.04s.08 0 .14.01c.01-.02.02-.03.03-.05Zm.09-.01s0 .02.02.03c.02-.02.04-.03.04-.04 0 0-.02 0-.03-.01-.01 0-.04.02-.04.02Zm.15.09h.05v-.03s0-.03.01-.04c0 0 .02 0 .03-.01v.03s.02.01.03.02l.03-.03v-.05c.02-.06 0-.1-.1-.11-.05 0-.08-.01-.07-.04v-.12h-.02c-.02 0-.05.02-.05.03 0 .04 0 .08.01.11.01.05.11.08.06.14-.03.04 0 .06.03.08Zm-.12.04s-.01 0-.02-.01c-.01 0-.03.02-.03.03 0 0 .02 0 .03.01.01-.01.02-.02.02-.03Zm-.26.11v.02c.01 0 .03-.02.03-.02 0-.01.01-.02.02-.04l-.04-.02v.03s-.02.02-.02.03Zm.18-.02h.05c.03-.01.06-.03.08-.04h-.07l-.06.04Zm-.42.15s.02-.05.03-.07h-.01l-.06.06s.02 0 .04.02Zm.8-.21H55.26v-.07s-.04 0-.07.01h-.03l-.03.01c.01.02.02.04.04.05Zm-.29.13s.03-.02.02-.03c-.01 0-.03 0-.05-.01-.01 0-.03.02-.03.03 0 0 .03 0 .05.01Zm.26-.05s.05 0 .08.01c0 0 .02-.02.05-.04h-.09c-.01 0-.03.01-.04.02Zm-.77.23s.02-.01.03-.02h-.04s-.02.01-.03.02h.03Zm.36 0s.04-.02.04-.04v-.08s-.02.01-.03.02l-.04.06s0 .02-.01.03h.03Zm.57.72-.04.02h.02s.02 0 .02-.01Zm-.06-.29s-.04.05-.04.06h.09l.08-.04-.13-.03Zm-.23.09s-.02 0-.04-.01c-.01.01-.03.02-.04.03 0 0 .02 0 .04.01.02-.01.04-.03.04-.03Zm-.1-.12-.03.03.02.02s.02-.03.03-.04h-.02Zm-.34-.24s-.03-.04-.04-.06c-.02 0-.04 0-.05.02-.06.04-.05.07 0 .09.07 0 .08-.03.09-.05Zm.09.18s.03-.02.06-.03h-.05c-.02.01-.04.02-.05.04h.04Zm.38-.13.04.02c0-.02.01-.02 0-.03-.01 0-.03 0-.05-.01v.02Zm-.2.11.02-.02s-.02 0-.03-.01l-.03.03h.04Zm.44-.11.02-.02c.02-.03.02-.05-.03-.05-.02 0-.04-.01-.03-.02 0-.03-.01-.04-.06-.02-.03 0-.05.03-.07.05.02.02.03.03.04.03.03.01.06.03.09.04h.05Zm-.36.13h.07s.02-.02.01-.02c0 0-.02 0-.04-.01l-.05.03Zm-.08.06s.03-.02.04-.03c0 0-.01 0-.02-.01l-.02.03Zm.4-.09v-.02c-.03-.01-.06-.03-.1-.04l-.03.01c0 .01 0 .03.02.03.03 0 .07 0 .11.01Zm-.47.13h.02l.04-.04-.07.04Zm-.35.26s.01-.02 0-.03l-.04-.11s-.02-.02-.03-.04c0 .03-.02.05-.02.08 0 .04 0 .07.02.1h.06Zm.18-.02h-.05c.01 0 .02.02.04.02h.13s.03-.01.03-.02c0 0 .02-.02.01-.02-.04 0-.07-.01-.11-.02l-.02.02c-.01 0-.03.02-.04.02Zm-.17.13v-.05l.03-.03h-.02l-.03.03v.04s.02 0 .02.01Zm.67-.18-.05.05.01.02c.03-.02.06-.04.08-.05 0 0-.03-.01-.04-.02Zm-.5.29s.05-.02.05-.03c0-.03.03-.05.08-.08.01 0 0-.02.01-.03-.01 0-.03-.02-.04-.02-.04 0-.11.03-.12.04-.02.03 0 .07-.1.1 0 .04.09 0 .13 0Zm.32-.02.06-.06v-.02c-.02 0-.05.01-.07.02s-.02.02-.04.04l-.03.02h.08Zm.34.05-.03.03-.02.02h.06v-.05Zm-.79.09.1-.03-.1.03Zm.6-.04s-.02.02-.01.02h.06c.03 0 .06-.01.09-.02-.02 0-.04-.02-.07-.02-.01 0-.05.01-.07.02Zm-.24.14s.02-.03.02-.05h-.07v.05s-.01.02-.02.02c.03 0 .07-.01.07-.02Zm.49 0h-.04s-.03-.03-.05-.03h-.05l-.05.05h.12c.02 0 .04-.01.06-.02Zm-.07.08s.03.01.05.01l.03-.02-.05-.02s-.03.02-.02.02ZM54.75 38.84h.03v.02c-.04 0-.02.02 0 .04v.02c.04 0 .03.03.04.05 0 .03.04.06.08.05.04-.02.07 0 .09.03.03.03.07.05.11.07 0 .03.03 0 .05.01 0 0 .01 0 .02-.02-.01 0-.02-.01-.03-.01h-.03c0-.02 0-.04-.03-.05-.04 0-.02-.01 0-.02.02-.02.01-.03-.02-.04 0 0-.02 0-.02-.02l-.03-.04-.01-.01v.01h-.02l-.02-.02c0-.01.02-.02.02-.03v-.02s-.01-.02-.02-.02h-.01l-.03.08v.02h-.04v-.03c0-.02 0-.03-.01-.05v-.04h.05v-.04s0-.01-.01-.02v.01h-.04v-.03l-.01-.02-.06.09v.02ZM54.63 38.99s.03 0 .03.02l.06.03h.02v-.08c-.01-.02-.02-.02-.02-.04v-.02h-.04v-.05l-.02.02h-.04c-.01 0-.02-.02-.03-.03v.04c0 .03-.01.05-.02.08v.02c.02 0 .04-.01.07-.02ZM54.76 38.74s.01-.03.01-.05v-.03c-.02 0-.04 0-.05-.03s0 .07.02.11l.02.02s0-.01.01-.02Z"/><path class="cls-8" d="M55.54 39.62v.07c.02.02.03.04.05.06h.05c.03-.01.02-.08-.02-.09-.06 0-.05-.03-.06-.05 0 0-.01 0-.02-.01 0 0-.02.01-.02.02ZM55.19 39.26c.02.01.03.02.06.03.02 0 .05-.05.03-.07-.02-.01-.03-.02-.05-.04h-.02c-.04.04-.05 0-.07-.01l-.01-.01v.02l.06.08ZM54.58 39.04h-.01l-.02.07v.02c0 .01.02.02.03.03 0-.02.02-.03.02-.04 0-.02.02-.04.02-.05v-.02s-.04 0-.05-.01ZM54.55 39.31s.02.04.02.06-.08-.04-.11-.06a.21.21 0 0 0-.06.04c-.01 0-.03.02-.03.03 0 .05.06.06.1.08 0 0 .02-.01.03-.02.01 0 .02-.02.03-.03 0 0 .02.02.02.03-.03.04.01.04.02.06 0 .01.01.03 0 .03-.02.02-.05.05-.07.05-.05 0-.03.02-.04.03h-.03v.02h-.02v-.13h-.02l-.09.07-.03.02s-.01-.02 0-.03c.01-.02.03-.04.04-.06l.02-.02c-.01-.04.02-.1-.01-.13v-.08c0-.01-.02-.02-.01-.03l.08-.11.03-.03v-.03s-.01.01-.02.01-.03.01-.04.01v-.03c0-.01.02-.01.04-.02.02-.02.04-.02.07-.01.05.02.06.05 0 .11-.01.02-.02.05-.02.06.03.02.02.05.03.08.01-.01.02-.02.03-.04 0-.01 0-.03.02-.04 0 0 .02 0 .03-.01v.02s-.02.06 0 .09Zm-.15-.08h.01v-.03c0-.01 0 0-.01-.01 0 0-.01.01-.01.02v.02Zm.11.28s-.01.01-.01.02l.01.01c0-.01.01-.02.01-.02h-.01ZM55.89 41.18l.06.02.04-.06s-.03-.03-.05-.04c-.02-.01-.03-.03-.04-.04 0 .02 0 .03-.02.05-.05.04-.04.06 0 .08ZM55.65 40.35h.07c0-.01.01-.02.01-.03 0-.02 0-.03-.01-.04s-.04-.02-.05-.02l-.04-.02s-.05.04-.04.05c.01.02.04.04.07.05ZM54.43 38.94s0-.08-.04-.08h-.02l-.02.04h.02s.01 0 .01.01l.02.05v.03s.02-.03.02-.04ZM55.54 40.21s.02.01.03.01c.04 0 .07-.02.11-.03h.01l.03-.02s-.02-.01-.04 0c-.04 0-.08.01-.12.02-.01 0-.02.02-.02.03ZM55.34 39.47h.11l.02-.04c-.04 0-.07-.02-.08-.01-.02 0-.03.03-.05.04ZM54.91 39.33s.01-.03 0-.04c0-.01-.03-.02-.04-.02l-.03.03.07.03ZM54.4 40.39s-.04.03-.04.04l.04.02.09-.05s-.05-.01-.08 0ZM54.31 40.2l-.03.03h.07l.04-.02h-.08ZM55.5 39.51s.03.02.05.03c.02-.02.03-.03.04-.05h-.07l-.02.02ZM54.82 42.27l-.02.02c.01.01.03.02.06.04.02-.03.04-.04.04-.05h-.07ZM56.35 42.88s.03.01.05.02c.01-.02.03-.03.02-.04l-.04-.02c-.01 0-.04.02-.04.03ZM55.73 39.95s-.02-.06-.08-.04l.02.04h.05ZM55.74 40.48s.04-.03.04-.04c0 0-.03-.01-.05-.02l-.02.03.02.02ZM54.67 39.05v.02s.02.01.03.02c0-.02.01-.03 0-.03 0 0-.02-.01-.03-.02ZM54.49 40.74s-.03.02-.04.04c0 0 .02 0 .04.01.01-.02.03-.03.03-.04 0 0-.02 0-.03-.01Z"/><path class="cls-8" d="m54.37 39.57-.03.04h.03s.02-.02.02-.03c0 0-.02 0-.02-.01ZM56.51 42.97s.04-.03.04-.04l-.02-.02c-.01.01-.03.02-.04.03 0 0 0 .01.02.03ZM54.41 39.95l-.05.03h.03c.02 0 .04-.02.05-.03h-.04ZM54.32 40.08s-.01 0-.02.01l.05.02.02-.02s-.03 0-.05-.01ZM54.38 40.26s-.02 0-.03-.01l-.03.03h.05l.02-.02ZM55.04 39.21v-.04h-.02v.05ZM55.04 39.21zM54.76 38.95h.02s.01-.01.01-.02v-.02l-.01.01v.02ZM56.28 42.68l.02-.02h-.03s-.02.01-.03.02h.05ZM55.48 39.69s-.02.01-.02.02h.06-.04ZM55.49 39.75s-.02.01-.02.02.02 0 .04.02c0-.02.02-.02.01-.03h-.03ZM54.51 41.84l-.02.02.03.02s.02-.02.01-.02c0 0-.02 0-.02-.01ZM55.49 39.61l.02-.02h-.03c-.01 0-.02.01-.03.02h.04ZM54.42 40.24h.02c0-.01.02-.02.02-.02h-.02s-.02.01-.02.02ZM54.44 41.06l-.02.02h.04s-.02-.01-.02-.02ZM54.58 41.42l-.02-.02-.02.02h.05ZM55.47 40.35h.05s.01-.01 0-.01h-.04s-.01 0-.02.01ZM54.51 38.87v.03-.02ZM56.41 42.47l.02.02c0-.01.02-.02.02-.02s-.01 0-.02-.01l-.02.01ZM56.26 42.03s.01-.02.02-.02h-.02s-.02.01-.02.02h.02ZM54.54 38.93v.01ZM54.73 42.62s-.01.02 0 .02c0 0 .01 0 .02.01v-.03ZM55.8 40.55s.01 0 .01-.01h-.04l.02.01ZM54.49 41.17l-.03.02h.02l.03-.01h-.01ZM55.18 43.31h.02v-.01h-.02ZM55.69 39.83h.02v-.01h-.02s-.01 0 0 0ZM55 39.6h-.02v.01H55v-.01ZM55.28 43.36h.01-.02ZM56.16 43.31v.02s.01-.01 0-.01ZM54.68 39.63l.03-.03s-.02 0-.03-.01c0 0-.02.01-.02.02l.02.02ZM55.1 42.02l-.03.02.04-.02h-.01z"/></g><g id="Layer_6"><path class="cls-15" d="M97.44 44.77c-1.55-2.57-3.57-4.81-5.68-6.92-2.11-2.11-4.14-4.16-6.47-5.92a17.42 17.42 0 0 0-3.7-2.17.666.666 0 0 0-.32-.21c-1.98-.62-3.94-1.27-5.91-1.91-.98-.32-1.96-.64-2.95-.94-.65-.2-1.32-.38-2-.47-.66-3.31-.76-6.74-.61-10.09.02-.36-.32-.67-.67-.67-.38 0-.66.31-.67.67-.14 3.36-.04 6.8.6 10.13-.22.13-.33.38-.32.62-1.99.02-5.41.04-5.56-.02-.05-.02-.66.19-1.53.52-.1-.31-.39-.54-.79-.42-2.47.77-4.88 1.74-7.2 2.88-.33.16-.42.62-.24.92.16.27.44.36.72.31l1.01 4.64c-.12.12-.19.28-.17.44.37 2.99.98 5.94 1.85 8.82.03.09.07.17.12.23.92 3.31 1.95 6.59 3.09 9.83-.04.08-.06.17-.07.27l-.52 9.39s-.04.08-.05.13c-.09.34.11.75.47.83a84.813 84.813 0 0 0 20.59 1.96c1.95-.06 3.89-.18 5.83-.37.15-.01.29-.07.4-.15.28-.12.49-.4.39-.77a118.3 118.3 0 0 0-3.12-10.4c-.34-.97-.69-1.93-1.06-2.89-.2-1.42-.49-2.82-.71-4.24.03-.07.05-.15.05-.24.05-1.01.07-2.03.09-3.04 1.45 1.17 2.94 2.31 4.44 3.41-.15 3.79-.01 7.59.42 11.35.13 1.1.28 2.19.45 3.28.04.24.26.41.5.47.13.05.28.06.42.03l6.73-1.38c.19-.04.33-.18.42-.35.12-.12.19-.29.21-.48a1364.742 1364.742 0 0 0 1.62-16.52v-.11c.03-.14.01-.3-.09-.46Z"/><path class="cls-15" d="M93.22 59.55c-.03.21-.05.43-.08.64.03-.19 0-.01 0 .02l-.02.15c-.02.11-.03.22-.04.32-.06.43-.13.86-.2 1.29-.03.18-.03.35.07.52.08.14.24.27.4.31.32.07.77-.1.83-.47.15-.92.28-1.85.39-2.78.02-.16-.09-.37-.2-.48-.12-.12-.31-.2-.48-.2s-.35.07-.48.2c-.13.14-.17.29-.2.48ZM88.75 61.05c.09.75.19 1.5.29 2.25.02.19.06.34.2.48.12.12.31.2.48.2s.35-.07.48-.2c.11-.12.22-.31.2-.48-.1-.75-.2-1.5-.29-2.25-.02-.18-.06-.34-.2-.48-.12-.12-.31-.2-.48-.2s-.35.07-.48.2c-.11.12-.22.3-.2.48Z"/><path class="cls-15" d="m97.66 68.99-2.91-3.38c.33-1.17.11-2.5-.61-3.48-.21-.28-.59-.45-.92-.24-.28.18-.46.62-.24.92.08.11.15.22.22.33.03.06.06.11.09.17.02.04.13.22.03.07.12.2.17.5.21.73v.03c0 .07.01.13.02.2v.39c0 .06 0 .14-.02.2.06-.18 0 .02-.01.07-.02.13-.06.26-.1.38-.17.26-.12.6.09.84l2.61 3.03c-.18.07-.35.13-.52.22-.54.29-.89.84-.88 1.46 0 .31.08.61.19.89.04.1.07.18.11.26-.07 0-.14-.02-.22-.03-.27-.06-.5-.16-.74-.31-.33-.21-.72-.04-.92.24-.19.27-.25.57-.3.88-.57-.98-1-2.03-1.28-3.13-.18-.73-1.19-.56-1.31.06.15-2.16.23-4.33.12-6.49-.02-.36-.3-.67-.67-.67-.35 0-.69.31-.67.67.14 2.83-.04 5.66-.28 8.48-.02.26.19.52.41.61.27.11.51.04.74-.14l.83-.65c.39 1.02.91 2 1.55 2.89.19.26.44.37.76.31.5-.11.83-.52.98-.99.06-.17.07-.36.09-.54.41.14.85.21 1.27.17.87-.08 1.19-.9.93-1.66-.09-.25-.22-.49-.26-.75a.43.43 0 0 1 .04-.28v-.02l.04-.02c-.08.06.04-.02.05-.03.21-.12.33-.14.59-.25.32-.13.59-.26.85-.49.29-.25.22-.7 0-.95Zm-7.43 1.33c0-.12.02-.24.03-.36 0 .05 0 .09.02.14.01.05.03.11.04.16l-.09.06Zm4.86 2.08v-.04.04Zm0-.05v.02-.01Z"/></g><path d="M70.97 12.68s-.01-.07-.02-.11c-.01-.36-.04-.72-.1-1.06-.1-.59-.33-1.14-.8-1.52-.61-.5-1.83-.37-2.25-1.04l-.09-.12c-.33-1.16-1.38-2.04-2.61-2.04-.47 0-.92.19-1.38.2-.61 0-1.06-.39-1.59-.61-.53-.23-1.12-.32-1.7-.16-.54.15-1.03.48-1.36.93-.23.3-.31.59-.44.93-.19.47-.33.5-.73.75-.4.25-.72.47-.75.98-.02.29.09.53.25.76.11.16.73.56.71.75-.02.16.02.28.08.38.08.28.35.44.64.48.84.11 1.68.26 2.51.42.16.03.3.01.42-.04.03 0 .06 0 .09-.01 1.39-.37 2.75-.8 4.09-1.31a.68.68 0 0 0 .19-.11c.61.44 1.18.93 1.72 1.47-.02.05-.05.1-.06.15-.33 1.22-.58 2.46-.75 3.72-.08.58.63 1.23 1.12.66.05-.06.14-.17.25-.3-.02.12-.04.21-.05.27l-.04.33-2 1.62s-.06-.03-.09-.04c-.96-.32-1.93-.57-2.92-.75h-.06c-.01 0-.03 0-.04-.01-.77-.13-1.33.15-1.99.52-.62.34-1.24.7-1.85 1.06-.23-.26-.39-.59-.48-.93-.14-.58-.81-.59-1.13-.26-.19.14-.3.38-.21.67.23.79.64 1.5 1.22 2.09.18 1.25.54 2.45 1.07 3.58-.9 2.33-.87 4.85-.21 7.27.74 2.71 3 5.38 2.57 8.29-.2 1.38-.72 2.64-.69 4.06.02 1.3.34 2.59.91 3.76 1.08 2.2 3.11 3.76 5.43 4.46.7.21 1.06-.69.66-1.12 0-.05-.02-.1-.04-.15-.91-2.25-1.47-4.26-.86-6.7.28-1.1.67-2.16.79-3.3.12-1.14-.07-2.34-.32-3.49-.28-1.23-.66-2.45-.73-3.72-.07-1.4.31-2.75.65-4.09.61-2.39.86-4.8.67-7.26.3-.71.53-1.45.7-2.2.11.77 1.35.74 1.33-.09-.03-1.52.05-3.02.25-4.52.03-.17.05-.34.07-.51 0-.03 0-.05.01-.08v-.13c.08-.9.02-1.84-.06-2.76ZM60.63 23.33s-.02-.05-.02-.07c.01.02.03.04.04.06h-.01Zm1.79.86-.01-.01h.08c-.02 0-.05 0-.07.01Zm.32 1.64Zm1.83-3.03c-.27.02-.55.04-.82.05l.04-.58c.21-.12.36-.33.35-.58-.02-.37-.3-.68-.67-.67h-.82c-.35.02-.69.32-.67.68.01.3.2.55.47.64l-.03.5c-.17 0-.33-.02-.5-.04-.4-.64-.74-1.33-1-2.05a.66.66 0 0 0-.12-.22c.13-.07.26-.15.39-.23.39-.22 1.22-.87 1.68-.79h.06c.01 0 .03 0 .04.01.82.15 1.63.35 2.43.6l-.81 2.67Z" style="fill:#ff8000"/><g id="Layer_5"><path class="cls-15" d="M58.45 35.42c-.29-1.78-1.3-4.08-2.8-5.22l-1.07-.1c-.07-.14-.2-.25-.4-.31-.94-.26-1.88-.51-2.84-.67-.72-.12-1.48-.19-2.24-.24.8-1.67 1.52-3.39 2.14-5.14.19-.27.15-.62-.07-.87l-5.46-6.07a.329.329 0 0 0-.07-.16c-.17-.29-.63-.46-.92-.24-4.01 2.94-7.39 6.67-9.57 11.17-.61 1.27-1.13 2.58-1.56 3.91-.13.25-.11.6.11.8 2.56 2.32 5.42 4.38 8.42 6.08 3 1.7 6.27 2.83 9.62 3.5 1.63.33 3.29.5 4.94.68.36.04.67-.34.67-.67h.05s1.54-3.41 1.05-6.44Z"/><path class="cls-15" d="M62.79 13.72c-1.7-.58-3.49-.91-5.28-.99-.05 0-.1 0-.14.01-.05 0-.1 0-.16.02-.93.24-1.86.45-2.78.72-.77.22-1.59.48-2.31.87-.11 0-.22.03-.32.08a38.507 38.507 0 0 0-7.11 4.82c-.28.24-.24.71 0 .95.27.27.68.24.95 0 1.96-1.69 4.11-3.13 6.38-4.37.13 0 .26-.02.37-.09.76-.5 1.56-.73 2.47-.99.89-.26 1.77-.46 2.65-.68 1.01.05 2.01.18 2.99.4-.52.11-1.06.31-1.02.96.03.66.61.77 1.08.97l-1.26-.08c-.29-.02-.56 0-.78.2s-.31.51-.22.81c.04.13.1.23.18.34l-.56-.09-1.82-.3c-.31-.05-.63.06-.78.34-.2.18-.4.36-.61.53-.01.01-.09.07-.13.1-.06.05-.12.09-.19.13-.13.09-.26.17-.4.25-.06.04-.13.07-.19.1-.02 0-.14.06-.16.07-.13.05-.26.09-.4.13l-.16.03s-.15.02-.17.02h-.36a.708.708 0 0 0-.29 0 .71.71 0 0 0-.77.13c-1.53 1.45-2.75 3.18-3.78 5.01-.18.32-.08.74.24.92s.74.08.92-.24c.92-1.65 1.99-3.19 3.34-4.51.82.14 1.61-.03 2.34-.41.6-.31 1.11-.76 1.61-1.21.96.16 1.92.32 2.88.46.29.04.6.07.87-.09s.44-.45.45-.76c0-.19-.05-.37-.14-.54l.73.05c.62.04 1.41.13 1.85-.43.54-.7-.26-1.29-.78-1.65a1.74 1.74 0 0 0-.18-.11l.83-.16c.32-.06.52-.42.49-.73.03-.05.06-.1.07-.16.1-.37-.13-.71-.47-.83Zm-2.15 1.29s-.02 0 0 0Zm-.04.82s-.06 0 0 0Zm-1.24 1.99c.05 0 .1.01 0 0Zm2.42-1.34c.04-.05.05 0 0 0Z"/></g><g id="Layer_21"><path class="cls-1" d="M33.77 31.15c-.17.54-.25.86-.25.86.14.15.36.37.65.63-.13-.35-.26-.72-.35-1.09-.04-.14-.05-.28-.04-.4ZM95.87 60.88c-.58-.74-1.16-1.48-1.74-2.21-.45-.57-.57-1.34 0-1.9.47-.47 1.45-.57 1.9 0 .13.16.26.33.39.49.3-3.13.65-7.02.76-9.13.02-.42.03-.81.02-1.18-.3-.36-.57-.74-.83-1.14-.39-.6-.14-1.37.39-1.78a5.487 5.487 0 0 0-1.54-2.41c-.32-.3-.94-.99-1.78-1.9.03 1.14-1.75 1.9-2.55.69-.8-1.21-1.6-2.41-2.39-3.62-.47-.71-.15-1.4.41-1.74-1.1-1.05-2.25-2.05-3.38-2.87-.7-.51-1.42-.96-2.17-1.37.53 1.18-1.1 2.57-2.2 1.49-1.03-1.02-1.81-2.18-2.42-3.46-2.05-.7-3.9-1.17-5.11-1.61-2.52-.92-4.95-1.66-4.95-1.66v.47c.67-.24 1.51-.03 1.73.87.21.87.8 1.68 1.64 2.02.68.27 1.15.89.94 1.66-.18.65-.98 1.21-1.66.94-1.3-.52-2.37-1.41-3.02-2.61-.38 1.78-.92 3.12-.92 3.12l-8.14-4.48c-2.65.73-5.28 2.22-5.28 2.22-2.22-.96-4.94-.72-4.94-.72.74-1.51 2.37-5.84 2.37-5.84s-1.58-1.92-3.11-3.38c-.19-.18-.39-.38-.58-.58.36.76.87 1.42 1.53 1.99 1.31 1.14-.6 3.04-1.9 1.9-1.23-1.08-2.1-2.5-2.56-4.07-.29-1.01.53-1.66 1.34-1.66-.61-.76-1.04-1.33-1.04-1.33l-1.11.87a34.972 34.972 0 0 0-4.44 4.18c.27.92.69 1.79 1.23 2.6.96 1.45-1.37 2.8-2.32 1.36-.33-.5-.62-1.03-.86-1.56-.64.87-1.2 1.72-1.66 2.55a28.89 28.89 0 0 0-1.95 4.43c.58-.82 2.1-.9 2.42.35.38 1.5 1.15 2.75 2.3 3.78.6.54.51 1.23.11 1.71 1.23.87 2.51 1.7 3.65 2.29 8.03 4.18 13.69 3.78 13.69 3.78.11.58.36 1.54.69 2.67.58-.04 1.18.23 1.42.92.42 1.2 1.27 2.12 2.38 2.72 1.53.82.17 3.15-1.36 2.32-.25-.14-.49-.29-.73-.45.8 2.46 1.49 4.48 1.49 4.48-.07.49-.17 1.88-.27 3.49.12.1.22.22.29.37.62 1.38 1.59 2.4 2.94 3.07.66.32.83 1.25.48 1.84-.39.66-1.19.81-1.84.48-.78-.39-1.5-.9-2.12-1.51-.09 1.57-.15 2.75-.15 2.75.81.16 3.82 1.05 10.9 1.63 1.34.11 2.68.19 3.98.24a7.018 7.018 0 0 1-1.82-2.35c-.31-.66-.19-1.45.48-1.84.59-.35 1.53-.17 1.84.48.55 1.14 1.43 2.07 2.64 2.5.57.21.99.7.99 1.3 3.59.02 6.49-.14 7.74-.32-1.29-.71-2.36-1.75-3.02-3.11-.32-.66-.19-1.45.48-1.84.59-.35 1.53-.17 1.84.48.26.54.6 1.03 1.02 1.43-.6-1.96-3.61-10.96-3.61-10.96l-.46-2.89c-.43.39-1.12.55-1.6.19-1.29-.96-2.36-2.1-3.17-3.49-.87-1.5 1.45-2.86 2.32-1.36.57.97 1.3 1.85 2.21 2.53.04.03.09.07.13.11l-.15-2.96 4.64 3.47s.09 1.06 0 2.88c-.02.43 0 1.19.03 2.12.28.1.53.29.68.57.54 1.07 1.22 2 2.09 2.83 1.25 1.2-.66 3.1-1.9 1.9-.2-.19-.39-.39-.58-.6.14 1.91.3 3.61.42 4.2.27 1.43.47 1.36.87 1.29.4-.07 5.76-1.14 6.44-1.29s1.14-.69 1.14-.69.04-.37.1-.99a.769.769 0 0 1-.18-.18ZM48.64 37.66c-.54.54-1.35.47-1.9 0a9.654 9.654 0 0 1-2.63-3.57c-.28-.67-.21-1.44.48-1.84.57-.33 1.56-.19 1.84.48.5 1.19 1.22 2.18 2.21 3.02.56.47.48 1.42 0 1.9Zm10.25.18c-.55.55-1.34.46-1.9 0-1.26-1.04-2.14-2.41-2.67-3.94-.24-.69.27-1.47.94-1.66.73-.2 1.42.25 1.66.94.38 1.11 1.08 2.01 1.98 2.75.56.47.48 1.43 0 1.9Zm10.48 21.53c-.34.57-1.26.92-1.84.48-1.34-1.02-2.47-2.2-3.38-3.62-.93-1.47 1.4-2.82 2.32-1.36.64 1.01 1.45 1.93 2.41 2.66.58.44.89 1.15.48 1.84Zm3.61-10.88c-.18.66-.98 1.2-1.66.94-1.68-.63-2.95-1.93-3.43-3.67-.46-1.68 2.13-2.38 2.6-.72.22.8.8 1.51 1.55 1.79.68.26 1.15.9.94 1.66Zm-1.95-11.42c-.26-.68.29-1.48.94-1.66.75-.21 1.4.26 1.66.94.38 1.01 1.11 1.86 2.02 2.43 1.46.92.11 3.25-1.36 2.32-1.54-.97-2.62-2.35-3.26-4.04Zm8.12 20.16c1.53.81.17 3.14-1.36 2.32-1.73-.92-2.98-2.47-3.6-4.32-.55-1.65 2.05-2.35 2.6-.72.4 1.2 1.25 2.12 2.36 2.71Zm4.53-14.33c-1.16-1.11-1.99-2.43-2.59-3.91-.27-.68.3-1.48.94-1.66.76-.21 1.39.26 1.66.94.42 1.04 1.09 1.95 1.89 2.73 1.25 1.2-.65 3.1-1.9 1.9Zm8.06 8.06c-.54-1.11-1.19-2.16-1.94-3.13-.45-.58-.08-1.51.48-1.84.68-.4 1.4-.09 1.84.48.76.98 1.4 2.02 1.94 3.13.32.66.18 1.45-.48 1.84-.59.35-1.52.17-1.84-.48Z"/><path class="cls-16" d="M40.78 23.71c-.54-.81-.96-1.67-1.23-2.6-.71.79-1.36 1.59-1.96 2.39.24.54.52 1.06.86 1.56.96 1.44 3.29.09 2.32-1.36ZM38.71 34.62c-1.15-1.03-1.92-2.28-2.3-3.78-.32-1.25-1.84-1.17-2.42-.35-.09.25-.16.47-.22.67 0 .13 0 .26.04.4.09.37.22.73.35 1.09.99.9 2.77 2.35 4.66 3.69.39-.48.48-1.17-.11-1.71ZM48.64 35.75c-.99-.84-1.7-1.83-2.21-3.02-.28-.67-1.27-.82-1.84-.48-.69.41-.77 1.17-.48 1.84.58 1.37 1.49 2.6 2.63 3.57.55.47 1.36.54 1.9 0 .48-.48.56-1.43 0-1.9ZM44.8 19.05c.46 1.57 1.33 2.99 2.56 4.07 1.3 1.14 3.21-.76 1.9-1.9a6.005 6.005 0 0 1-1.53-1.99c-.57-.61-1.14-1.27-1.6-1.84-.81 0-1.63.66-1.34 1.66ZM58.89 35.93c-.9-.74-1.59-1.65-1.98-2.75-.24-.69-.92-1.14-1.66-.94-.67.18-1.18.97-.94 1.66.53 1.53 1.41 2.9 2.67 3.94.56.46 1.35.55 1.9 0 .48-.48.56-1.44 0-1.9ZM60.66 48.71c-1.11-.6-1.96-1.52-2.38-2.72-.24-.69-.85-.96-1.42-.92.48 1.66 1.13 3.71 1.72 5.51.23.16.47.31.73.45 1.53.82 2.88-1.5 1.36-2.32ZM63.51 63.83c.35-.59.17-1.52-.48-1.84-1.35-.67-2.32-1.69-2.94-3.07-.07-.15-.17-.27-.29-.37-.09 1.4-.18 2.96-.25 4.26.62.61 1.34 1.12 2.12 1.51.65.32 1.46.17 1.84-.48ZM68.89 57.52c-.96-.72-1.77-1.64-2.41-2.66-.93-1.46-3.26-.11-2.32 1.36.91 1.42 2.03 2.6 3.38 3.62.58.44 1.51.09 1.84-.48.4-.69.1-1.4-.48-1.84ZM77.42 66.24c-1.21-.44-2.09-1.36-2.64-2.5-.31-.66-1.25-.83-1.84-.48-.67.39-.8 1.18-.48 1.84.44.92 1.07 1.71 1.82 2.35 1.44.06 2.83.09 4.13.1 0-.59-.41-1.09-.99-1.3ZM74.2 55.23c.62 1.85 1.86 3.4 3.6 4.32 1.53.81 2.89-1.51 1.36-2.32-1.11-.59-1.96-1.51-2.36-2.71-.55-1.64-3.15-.93-2.6.72ZM72.04 46.83c-.75-.28-1.33-.99-1.55-1.79-.46-1.67-3.06-.96-2.6.72.48 1.75 1.76 3.04 3.43 3.67.68.26 1.48-.28 1.66-.94.21-.76-.26-1.4-.94-1.66ZM79.95 45.67c-.87-1.5-3.2-.14-2.32 1.36.81 1.39 1.88 2.53 3.17 3.49.48.35 1.18.19 1.6-.19v-.06l-.11-1.97c-.04-.04-.09-.07-.13-.11-.91-.67-1.64-1.55-2.21-2.53ZM85.45 62.75c-.32-.66-1.25-.83-1.84-.48-.67.39-.8 1.18-.48 1.84.66 1.36 1.72 2.4 3.02 3.11.05 0 .1-.01.14-.02 1.95-.32.63-1.47.26-2.78-.02-.06-.04-.14-.07-.23-.42-.41-.76-.9-1.02-1.43ZM75.65 38.78c-.91-.57-1.64-1.42-2.02-2.43-.26-.68-.91-1.15-1.66-.94-.65.18-1.2.97-.94 1.66.64 1.69 1.73 3.07 3.26 4.04 1.47.92 2.82-1.4 1.36-2.32ZM71.35 31.49c.68.27 1.48-.29 1.66-.94.21-.76-.26-1.39-.94-1.66-.85-.34-1.43-1.15-1.64-2.02-.22-.89-1.05-1.11-1.73-.87-.02.99-.18 1.99-.37 2.88.65 1.19 1.72 2.09 3.02 2.61ZM83.38 30.79c-1.53-.84-3.13-1.47-4.62-1.98.61 1.29 1.4 2.45 2.42 3.46 1.1 1.09 2.73-.3 2.2-1.49ZM83.69 38.26c-.27-.68-.9-1.15-1.66-.94-.64.18-1.21.98-.94 1.66.59 1.49 1.43 2.8 2.59 3.91 1.25 1.2 3.16-.7 1.9-1.9-.81-.77-1.48-1.68-1.89-2.73ZM88.51 36.77c.8 1.21 1.6 2.41 2.39 3.62.8 1.21 2.58.45 2.55-.69-1.19-1.3-2.8-3.04-4.53-4.68-.56.35-.88 1.03-.41 1.74ZM94.07 49.59c-.54-1.11-1.19-2.16-1.94-3.13-.44-.57-1.16-.88-1.84-.48-.57.33-.93 1.26-.48 1.84.76.98 1.4 2.02 1.94 3.13.32.65 1.25.83 1.84.48.67-.39.8-1.19.48-1.84ZM89.57 57.22c-.87-.83-1.55-1.76-2.09-2.83-.14-.28-.39-.47-.68-.57.06 1.37.16 3.11.28 4.71.19.2.38.41.58.6 1.25 1.2 3.16-.7 1.9-1.9ZM94.14 56.76c-.57.57-.45 1.33 0 1.9.58.74 1.16 1.48 1.74 2.21.05.07.12.13.18.18.09-.87.22-2.24.37-3.8-.13-.16-.26-.33-.39-.49-.45-.57-1.43-.47-1.9 0ZM96.38 45.8c.25.39.53.77.83 1.14-.02-1.21-.19-2.16-.44-2.92-.53.4-.78 1.18-.39 1.78Z"/></g><path class="cls-7" d="M92.72 173.3c-.36-6.07-6.21-7.58-9.23-11.84-1.63-2.3-1.18-5.44-1.34-8.1-.17-2.69-.67-5.31-2.29-7.53-3.01-4.13-8.33-5.42-13.17-5.8-5.17-.4-10.36.89-13.62 5.16-2.92 3.83-3.71 8.91-3.12 13.59.29 2.26 1.65 5.01.73 7.21-.87 2.08-3.14 3.67-4.52 5.41-3.34 4.25-3.54 9.89-.4 14.36 3.46 4.91 9.8 7.26 15.66 7.13 6.46-.15 12.92-3.19 18.97-5.49.98.42 2.16.33 3.14-.66 3.56-3.59 9.52-7.79 9.18-13.44Zm-7.56 3.19c-1.35 1.51-2.83 2.94-4.28 4.37-.2.03-.4.08-.61.16-8.1 2.91-18.95 9.11-27.18 3.56-3.95-2.67-4.48-6.9-1.35-10.4 2.26-2.53 4.74-4.86 5.23-8.39.53-3.85-1.5-7.53-1.09-11.45.41-3.87 2.39-7.34 6.45-8.14 3.54-.7 9.14-.16 11.93 2.37 3.05 2.77 1.6 8.16 2.35 11.82 1.02 4.98 4.75 6.88 8.1 10.13 2.09 2.04 2.48 3.72.46 5.97ZM120.43 169.33c-1.23.88-2.2 1.94-3.02 3.21-.69 1.05-1.28 3.04-2.36 3.71-1.41.88-4.51.29-6.19.27-1.65-.02-3.31-.08-4.95.11-3.16.37-6.02 1.68-8.14 4.1-3.39 3.87-3.68 9.15-1.46 13.42 2.23-.31 4.46-.64 6.69-.97-.06-.07-.12-.15-.19-.22-3.07-3.16-2.31-8.42 2.04-9.99 4.4-1.59 9.5.75 13.91-.81 3.94-1.39 4.07-5.64 7.06-7.86 2.04-1.51 4.45-1.18 6.07.17.02-.06.04-.11.05-.17.37-1.21.73-2.43 1.09-3.64.7-.46 1.38-.95 2.06-1.45-1.25-.9-2.73-1.54-4.41-1.8-2.86-.45-5.88.24-8.24 1.92ZM109.14 150.08c.19.07.33.09.44.08v.65M34.48 169.44c-.47-1.45-1.45-2.88-1.54-4.43-.08-1.48.79-2.64 1.44-3.92 2.71-5.36.65-10.67-3.58-14.67-.67-.64-1.42-1.17-2.22-1.6-.8 1.87-1.58 3.75-2.33 5.64 1.83 1.71 3.65 5.28 3.4 6.45-.29 1.4-1.41 2.72-1.96 4.04-.67 1.59-.99 3.15-.77 4.88.45 3.53 2.76 6.23 2.11 9.94a9.92 9.92 0 0 1-1.89 4.36c.56 1.05 1.14 2.1 1.75 3.13.47.8.96 1.59 1.46 2.37 2.35-2.32 3.98-5.35 4.58-8.64.45-2.52.35-5.1-.45-7.54ZM44.01 139.93c3.01.13 5.81-.91 8.07-2.88 1.21-1.05 2.15-2.43 3.78-2.83 1.65-.4 3.58.04 5.25.12 5.71.26 11.09-2.65 13.39-8.03.8-1.88.92-3.56.57-5.06-1.39-.12-2.77-.24-4.16-.35-.04 0-.08-.01-.12 0h-.04c-.06 0-.12 0-.18.02l-2.26.27c.23.23.42.47.56.72.88 1.52-.34 3.27-1.64 4.48-3.28 3.05-7.33 1.36-11.28 1.75-1.9.19-3.64.77-5.17 1.93-1.62 1.22-2.79 3.08-4.82 3.66-4.15 1.18-7.39-2.22-9.41-5.55a231.15 231.15 0 0 0-3.09 6.08c2.66 3.17 6.19 5.49 10.56 5.67Z"/><path class="cls-7" d="M97.09 141.5c1.6 2.49 4.56 3.01 6.37 5.16 2.15 2.54 1.02 5.77 1.91 8.73 1.65 5.42 8.89 6.62 13.74 5.97 4.15-.56 7.91-2.49 10.73-5.44-.61-2.33-1.23-4.67-1.84-7l-.04-.15c-.37.23-.7.56-.98 1.01-2.04 3.34-5.58 5.43-9.49 5.7-1.67.11-4.29 0-5.67-1.14-1.59-1.31-.78-4.89-1.26-6.8-.49-1.95-1.51-3.73-2.86-5.21-1.43-1.56-3.43-2.15-4.94-3.52-1.71-1.56-1.11-4.37-.87-6.44.3-2.61.69-5.21 1.12-7.8-.27-.04-.55-.09-.82-.13-1.71-.25-3.42-.5-5.14-.73-.5 3.07-.96 6.15-1.28 9.24-.3 2.88-.32 6.02 1.31 8.55Z"/><path class="cls-15" d="M75.86 123.23c.14-1.24.16-2.42-.36-3.59-.24-.55-.55-1.08-.85-1.6l-.98-1.75a.674.674 0 0 0-.21-.23.634.634 0 0 0-.55-.32c-2.08-.06-4.16-.04-6.24.03l-.19-.88c-.06-.28-.37-.5-.65-.49-.64 0-1.29.02-1.93.03-.3 0-.5.18-.59.4-.17.17-.24.42-.19.67.27 1.37-.55 2.79-1.88 3.37-.87.37-1.8.64-2.69.96-.81.28-1.68.53-2.32 1.13-.35.33-.57.76-.62 1.25-.04.36.07.69.16 1.03h-.09c-.87 0-.87 1.35 0 1.35h19.97c.8 0 .86-1.13.19-1.32Z"/><path d="M95.37 124.26h-.12c.14-1.23.15-2.4-.36-3.56-.24-.55-.55-1.08-.85-1.6l-.98-1.75a.615.615 0 0 0-.31-.29.64.64 0 0 0-.62-.49c-1.96-.05-3.92-.05-5.88.01l-.16-.64a.675.675 0 0 0-.65-.49c-.72 0-1.43.01-2.15.03-.27 0-.53.18-.63.43-.14.16-.2.4-.15.63.27 1.37-.55 2.79-1.88 3.37-.87.37-1.8.64-2.69.96-.81.28-1.68.53-2.32 1.13-.35.33-.57.76-.62 1.25-.04.36.08.69.16 1.03h-.09c-.87 0-.87 1.35 0 1.35h20.28c.87 0 .87-1.35 0-1.35Z" style="fill:#6a4a6b"/><path class="cls-6" d="M105.1 141.95c-.85-.7-1.81-1.38-2.88-1.95-.2-.12-.44-.18-.71-.16-.26.02-.5.11-.71.26-4.92 3.38-7.63 8.51-7.73 8.79-.03.07-.05.14-.05.21 0 .23.16.41.37.45l1.42.17c.19.04.33.19.35.39.01.25.28 5.81.62 7.23.05.2.24.34.47.32h.01c.83-.09 1.58-.16 2.4-.24h.07c.09-.01.16-.09.16-.18-.03-.49-.1-1.59-.16-2.76v-.1c0-.1-.06-.19-.14-.23-.43-.22-.72-.65-.75-1.17-.07-1.95-.11-4.2 0-5.98 0-.15.13-.28.28-.29.16-.01.29.1.29.26v.02c-.07 1.18-.08 2.58-.05 3.95 0 .19.16.32.34.31.19-.02.34-.18.33-.37-.02-1.38-.02-2.78.05-3.97 0-.15.13-.28.28-.29.16-.01.29.1.29.26v.02c-.07 1.17-.08 2.56-.05 3.92 0 .19.16.32.34.3.18-.02.33-.18.33-.36-.02-1.37-.02-2.77.05-3.94 0-.15.13-.27.28-.29.16-.01.29.1.29.26v.02c-.1 1.72-.07 3.89 0 5.79v.07c0 .52-.26 1-.66 1.31-.07.05-.12.14-.13.23 0 0-.04.3.09 1.7.06.61.11 1.04.13 1.23 0 .07.07.13.15.12h.13c.27-.03.56-.06.85-.08h.11c.37-.04.72-.07 1.06-.09l.8-.06c.08 0 .14-.07.15-.14.19-1.71.23-2.66.23-2.66 0-.08-.07-.14-.15-.15l-.98-.06c-.15-.02-.25-.1-.28-.22-.02-.07-.01-.15-.01-.15.4-5.68 2.27-7.73 2.27-7.73.05-.06.09-.09.09-.09.05-.04.11-.07.18-.07.13 0 .24.06.28.17 0 0 .02.04.02.13.16 1.76.08 4.79-.02 7.15-.09 2.01-.19 3.58-.19 3.58 0 .07.05.12.12.11.53-.03 1.06-.07 1.61-.1h.01c.23-.02.42-.19.47-.4.34-1.46.6-7.02.62-7.27.02-.2.16-.37.35-.44l1.42-.38c.21-.07.37-.27.37-.5 0-.07-.02-.14-.05-.2h-.02c-.05-.14-.79-1.43-2.16-3.03s-.06-.09-.06-.14c-.16-1.76-.41-2.91-.41-2.91a.448.448 0 0 0-.42-.35l-1.42-.07h-.04c-.16.01-.3.16-.3.32v.49s0 .02-.02.02M94.53 180.65c.33-.11.56-1.2.5-2.43-.06-1.23-.38-2.15-.71-2.05-.33.1-.56 1.19-.5 2.43.06 1.24.38 2.16.71 2.04Z"/><path class="cls-6" d="M114.14 173.61c-.04-.33-4.47-.05-9.9.63-5.43.68-9.8 1.5-9.76 1.83.04.33 4.47.04 9.9-.64 5.43-.68 9.8-1.49 9.76-1.82Z"/><path class="cls-6" d="M114.24 178.04c.33-.1.61-1.17.61-2.41s-.27-2.16-.61-2.08-.61 1.16-.61 2.41.27 2.17.61 2.08ZM114.02 178.34c-.12-.33-4.4 1-9.84 1.72-5.43.76-9.91.6-9.94.95-.05.31 4.5 1.02 10.09.24 5.59-.74 9.81-2.63 9.69-2.91Z"/></g><g id="Outline"><path class="cls-11" d="M166.17 161.82c-.18-.11-.66.83-2.2 1.52-.76.35-1.77.58-2.96.59-1.18 0-2.54-.25-3.8-.95-1.3-.7-2.52-1.81-3.56-3.25s-1.91-3.19-2.66-5.12c-1.5-3.84-2.46-8.35-2.4-13.11.04-4.76 1.12-9.25 2.75-13.03.79-1.91 1.74-3.6 2.87-4.95 1.12-1.35 2.45-2.3 3.82-2.8 1.31-.47 2.7-.44 3.84-.17 1.15.26 2.06.75 2.67 1.29.62.54.96 1.1 1.14 1.51.17.41.26.66.35.65.07 0 .15-.26.12-.77-.04-.51-.29-1.28-.93-2.04-.63-.77-1.65-1.49-2.97-1.94a7.947 7.947 0 0 0-4.75-.15c-1.71.49-3.41 1.59-4.79 3.1-1.38 1.5-2.51 3.36-3.4 5.37-1.86 3.99-3.09 8.8-3.13 13.91-.07 5.11 1.04 9.94 2.76 13.99.86 2.02 1.87 3.9 3.13 5.49 1.25 1.58 2.78 2.83 4.39 3.56 1.63.76 3.27.9 4.64.77 1.38-.14 2.52-.57 3.34-1.11.82-.54 1.31-1.14 1.55-1.59.23-.45.27-.72.2-.75Z"/><path class="cls-6" d="M163.32 103.13c-.19-.71-9.26 1.68-20.63 1.37-11.38-.2-20.33-3-20.55-2.29-.1.29 2.02 1.38 5.7 2.48.92.27 1.93.55 3.04.79 1.1.27 2.29.47 3.54.69 2.51.39 5.29.68 8.23.75 2.93.06 5.73-.1 8.25-.38 1.26-.17 2.46-.31 3.56-.54a42.9 42.9 0 0 0 3.07-.65c3.72-.93 5.89-1.92 5.8-2.22Z"/><path class="cls-11" d="M144.59 97.82c-.04-.19-1.61.09-4.12 0-1.24-.06-2.77-.21-4.3-.63-.73-.23-1.51-.59-1.93-1.16-.42-.54-.38-1.28.16-1.82.26-.27.61-.48.97-.6.35-.12.75-.15 1.15-.12.81.06 1.61.34 2.4.63 1.58.59 3.02 1.11 4.23 1.53 2.42.84 3.95 1.28 4.01 1.12s-1.36-.88-3.7-1.92c-1.17-.52-2.57-1.12-4.14-1.77-.79-.32-1.67-.68-2.71-.77-.51-.04-1.07-.02-1.62.16-.54.18-1.05.48-1.46.91-.42.43-.72 1.02-.77 1.66-.04.63.17 1.26.54 1.71.36.46.8.77 1.24 1 .44.23.89.39 1.33.51 1.76.41 3.29.45 4.61.41 2.62-.12 4.15-.71 4.12-.85ZM138.69 110.18c-.02-.69-4.14-1.09-9.1-1.98-4.96-.86-8.98-1.88-9.23-1.23-.11.31.76.97 2.34 1.69 1.58.72 3.86 1.47 6.47 1.93 2.6.46 5.01.53 6.74.39 1.73-.14 2.78-.47 2.78-.79Z"/><path class="cls-6" d="M161.77 172.51c-.25-.67-6.91 1.52-15.4 2.15-8.48.71-15.4-.41-15.55.29-.06.31 1.6 1 4.45 1.56 1.42.28 3.13.5 5.05.62 1.91.11 4.03.11 6.24-.06 2.21-.18 4.3-.51 6.17-.92 1.87-.42 3.53-.9 4.89-1.41 2.72-1 4.26-1.94 4.15-2.24ZM66.71 165c.66.13 2.5-6.45 4.13-14.71 1.62-8.25 2.41-15.04 1.75-15.17-.66-.13-2.5 6.45-4.13 14.71-1.62 8.25-2.41 15.04-1.75 15.17Z"/><path class="cls-6" d="M73.19 135.71c.17-.65-6.94-3.07-15.88-5.4-8.94-2.34-16.32-3.71-16.49-3.06s6.94 3.07 15.88 5.4c8.94 2.34 16.32 3.71 16.49 3.06ZM60.37 174.29c.09-.69-9.04-2.4-20.1-5.23-11.07-2.79-19.91-5.64-20.16-4.99-.24.59 8.33 4.5 19.57 7.34 11.22 2.87 20.62 3.52 20.7 2.89Z"/><path class="cls-13" d="M64.99 167.6c.03-.17-2.26-.64-5.94-1.39-3.68-.76-8.75-1.85-14.31-3.25-5.55-1.41-10.53-2.87-14.13-3.97-3.6-1.09-5.83-1.78-5.89-1.61-.06.15 2.07 1.12 5.62 2.42 3.54 1.3 8.51 2.91 14.1 4.33s10.72 2.38 14.46 2.92 6.07.71 6.09.55Z"/><ellipse class="cls-6" cx="102.87" cy="171.22" rx="32.61" ry="1.21" transform="rotate(-5.19 103.002 171.374)"/><path class="cls-13" d="M130.65 161.47c-.03-.33-14.59.72-32.53 2.35-17.93 1.63-32.45 3.22-32.42 3.55.03.33 14.59-.72 32.53-2.35s32.45-3.22 32.42-3.55Z"/><path class="cls-6" d="M121.27 131.43c-.06-.67-11.05-.3-24.56.82-13.51 1.12-24.42 2.57-24.36 3.23.06.67 11.05.3 24.56-.82 13.51-1.12 24.42-2.57 24.36-3.23ZM46.54 32.52c.26.22 1.15-.43 2.01-1.45.85-1.01 1.34-2.01 1.08-2.22-.26-.22-1.15.43-2.01 1.45s-1.34 2.01-1.08 2.23ZM78.83 42.2c-.24.24.33 1.18 1.27 2.12.94.93 1.89 1.49 2.12 1.26s-.33-1.18-1.27-2.12c-.94-.93-1.89-1.49-2.12-1.26ZM89.97 115.28c.17-.05-.37-2.49-1.24-6.42-.87-3.94-2.03-9.38-3.14-15.42-1.1-6.05-1.92-11.55-2.5-15.54-.57-3.99-.93-6.46-1.1-6.45-.16.01-.11 2.52.25 6.55.36 4.03 1.05 9.58 2.16 15.66 1.11 6.07 2.41 11.52 3.5 15.41 1.08 3.9 1.92 6.26 2.07 6.22Z"/><path d="M69.54 34.83c.32.11 1.15-1.45 1.86-3.48s1.04-3.77.72-3.88c-.32-.11-1.15 1.45-1.86 3.48s-1.04 3.77-.72 3.88Z" style="fill:#d7c2df"/><path class="cls-6" d="M56.1 39.23c-.33 0-.6.87-.59 1.94s.28 1.94.62 1.93c.33 0 .6-.87.59-1.94 0-1.07-.28-1.94-.62-1.93Z"/><circle class="cls-6" cx="69.49" cy="48.7" r=".95"/><circle class="cls-6" cx="70.75" cy="58.5" r=".95"/></g></svg>