<svg xmlns="http://www.w3.org/2000/svg" viewBox="0 0 200 200"><defs><style>.cls-1{fill:none}.cls-2{fill:#f2a6b0}.cls-4{fill:#f75e28}.cls-6{fill:#fff}.cls-9{fill:#e5b342}.cls-10{fill:#ff8000}.cls-13{fill:#d0aa8c}.cls-16{fill:#cc5e05}.cls-17{fill:#dd542a}.cls-18{fill:#877166}.cls-19{fill:#5b3d5b}</style></defs><path d="M184.26 128c-5.3-10.96-4.42-30.39-20.5-30.06-21.61 12.3-66.78 4.16-41.07-26.1 14.96-4.69-4.77-24.89-7.04-34.67-13.09-9.54-23.84-25.87-39.96-29.92-34.11 13.39-63.98 55.63-51 93.35C44.36 219.18 220.1 225.82 184.26 128Z" style="fill:#efedea" id="BG_Strong"/><g id="Illustrations"><g id="Layer_4"><path class="cls-13" d="M64.55 21.49s1.67.6 2.32.24.87-.98.88-1.57-.22-3.17-.33-3.6-.84-1.89-1.11-1.89-1.17.6-1.31.79-.31.48-.31.48-2.22-4.1-2.93-4.81-3.47-2.64-5.07-2.77c-1.6-.13-4.77-.01-6.3.62s-3.49 1.34-4.16 3.01c-.66 1.68-1.05 3.65-.95 5.3s1.18 8.49 1.39 9.38.72 2.81.72 2.81 1.35-.62 2.05-1.28 2.32-1.33 2.86-1.42 1.84-.24 2.55 0 2.47 1.02 3.31 1.43 1.99.42 2.13.3 2.6-2.52 3-3.09 1.25-3.92 1.25-3.92ZM54.51 41.21l-.25-1.75s2.99-.67 4.45-1.48c1.47-.81 3.83-2.57 4.94-4.13s1.95-3.75 2.11-4.62.55-5.32.55-5.32l3.77 13.72s-1.42 1.12-3.48 1.67-12.1 1.9-12.1 1.9ZM3.83 36.17s-.31-2.14-.68-2.48-.99-.89-1.13-.61-.32.73-.27 1.79.24 3.95.24 3.95-.85 3.9-.84 4.64.02 1.79.02 1.79l.85.81s-.83 1.29-.67 1.83 1.06 1.66 1.63 2.46.78 1.73.82 2.71.22 2.49.58 3.43 1.11 3.64 1.5 4.09.84 1.95.85 2.38 0 1.22.49 1.42 1.07 1.12 1.07 1.12 4.19 14.39 4.76 15.98 2.91 7.38 3.72 8.44 3.52 3.61 4.64 4.18c1.12.57 3.6 1.12 3.6 1.12s5.37-1.96 8.24-5.02c2.87-3.06 8.12-8.25 8.12-8.25l1-1.62-15.75-8.13-1.07 2.43s-6.47-9.23-7.08-10.27-3.39-5.91-3.39-5.91 1.22-1.97 1.47-2.95 1.07-4.32 1.05-4.81-1.46-4.4-1.95-5.19-.86-1.94-1.45-2.2-4.31-2.85-4.52-2.74-.99 0-.89.8.96 2.95 1.64 3.52 1.74 1.35 1.74 1.35l.93 2.92-1.53-1.52-1.15-1.1-.37 1.16.77 3.42.41 1.29-1.51.6-.94-2.18-.34-1.56s.7-.72 1.08-.97.96-1.67.53-1.76-1.62-.16-1.96 0-.77.34-.77.34l-.58-2.51s1.07-1.85 1.35-2.39.44-1.65.29-1.87-.93-.5-1.14-.41-1.68 1.21-1.82 1.45-.68.33-.68.33l.18-1.7s1.04-2.27.92-2.96-.24-1.46-.24-1.46-1.29.39-1.74.79ZM111.24 49.18s6.21 2.63 7.14 3.19 5.13 3.42 5.92 4.61 1.86 2.83 2.07 3.07.88 1.62.26 2.26-2.73 2.62-3.56 3.25-3.2 1.54-4.68 1.75c-1.48.21-6.96.48-8.05.44-1.09-.04-9.32-.48-10.25-.77S92 65 90.69 65.56c-1.31.56-1.74 1.17-2.68 1.53s-2.95.77-3.8.6-4.4-1.17-4.4-1.17-2.5 1.02-3.11.57-1.43-1.27-1.66-1.33-1.94-.3-2.28-.44-1.56-.33-1.56-.33l-2.6.84s-1.79.94-2.28.83-1.19-.61-1.19-.61.97-1.14 1.29-1.46 1.44-1.26 1.44-1.26l-3.35 1.05s-1.16.92-1.64 1.04-1.94.06-2.14-.22-.36-.4-.97-.31-1.55-.3-1.55-.3l.16-.89-1.36-.73s-.32-.56-.32-.74 5.14-2.57 5.54-2.49 4.92-1.78 5.11-1.79 5.65.47 6.09.51 2.03-.06 2.61-.11 1.51.49 1.77.42 8.51.44 8.51.44l2.19.1s1.47-.86 1.75-.84 1.71 0 2.41-.13 14.88-3.32 14.88-3.32l1.36-.84 2.35-5.02Z"/><path d="M141.45 174.24s-24.36.11-25.08.28-32.05.67-32.43.48-10.23-.43-10.66-.64-2.68-1.21-3.37-3.96-1.38-8.76-1.58-10.77-2.49-26.66-2.49-26.66-2.06-24.39-2.33-27.71c-.26-3.32-1.67-20.97-1.73-22.67s.58-6.36 1.26-7.27 1.76-2.89 5.14-2.88 27.38 0 27.38 0h33.23l3.43.52 1 7.6 4.14 2.03 1.78 20.05s4.46 48.36 4.73 50.97 1.51 13.64 1.45 14.56-.33 2.97-.72 3.62-1.59 2.44-3.16 2.45Z" style="fill:#c1dade"/><path d="m173.77 18.59-7.1-3.82s-1.87-6.2-2.79-7.3-2.3-4.77-2.8-4.71-1.79.07-1.79.07S157.71.95 157.5.85s-1.71.25-2.47.36-5.39.9-6.24 1.35-2.57 1.66-3.23 2.71-1.79 2.39-1.79 3.65.28 2.58.48 3.4 2.42 3.12 2.85 3.44 2.63.75 2.63.75 2.84 2.7 3.81 3.23c.97.53 4.3 1.18 4.71 1.39s1.37.27 1.37.27l3.67 3.27 12.34-2.17-1.87-3.92Z" style="fill:#e4c7bd"/><path class="cls-2" d="M50.55 101.9s-6.34-16.28-6.77-17.55-3.25-10.74-3.8-14.01-1.71-8.93-1.12-12.62 2.34-8.28 2.34-8.28 2.51-3 4.89-4.25 8.41-3.98 8.41-3.98 6.61-.64 8.69-1.08 7.28-2.58 7.28-2.58 6.36 1.96 7.03 2.12 2.4.33 3.73.49 11.66 1.91 13.33 2.31c1.67.4 17.57 4.92 17.57 4.92l-3.61 7.46-17.19 4.02s-.87-.72-1.45-.4-1.87.85-1.87.85l-8.55-.55h-1.65l-1.1-.84-1.93.84s-6.46-1.21-6.71-1.08-2.13.73-2.47.91-3.36 1.14-3.36 1.14l-5.19 2.25s-1.12-.53-2.19-.12-4.06 1.43-4.72 2.59-1.64 3.94-1.59 7.29.81 12.79.81 12.79l1.2 17.35Z"/><path class="cls-18" d="M103.01 56.61c3.15.92 4.5 4.67 3.98 7.66-.17.97-.5 1.9-1.01 2.75-.37.63.61 1.2.98.57 1.93-3.26 1.7-7.83-1.08-10.55-.72-.71-1.6-1.24-2.57-1.52-.7-.2-1 .89-.3 1.09Z"/><path class="cls-18" d="M112.52 56.53c-.53-.88-1.2-1.68-1.98-2.33-.24-.19-.57-.23-.8 0-.2.2-.24.6 0 .8.05.04.1.09.15.13-.49-.03-.97.07-1.43.28a.36.36 0 0 0-.1.07 6.81 6.81 0 0 0-1.05-.78c-.63-.37-1.2.6-.57.98 1.3.78 2.24 2.06 2.75 3.48.62 1.72.65 3.58.43 5.37-.11.92-.31 1.85-.84 2.63-.17.25-.05.63.2.77.28.16.6.05.77-.2.09-.14.17-.28.25-.42.19.26.59.35.86.09l.11-.11c.07.05.16.09.25.11-.03.22.05.45.26.58.25.14.64.07.77-.2 1.72-3.52 2.05-7.79-.02-11.25Zm-2.42.71c-.06.01-.04 0 0 0Zm.69 2.37v-.02h.02s0 .01-.01.02Zm1.56.79c.06-.05.01.03 0 0Zm-.05.94s0 .01-.01.03c0-.02 0-.03.01-.03Zm-.57-1.08h.05v.02c-.03 0-.05.01-.08.02-.01-.03-.02-.05.02-.04Zm-.5-2.39-.01-.01.01.01Z"/><path class="cls-18" d="M112.71 54.41c1.63.69 2.43 2.44 2.88 4.04.52 1.83.6 3.79.24 5.67-.21 1.07-.54 2.12-1.02 3.1-.13.27-.07.61.2.77.25.14.64.07.77-.2.94-1.93 1.42-4.06 1.39-6.21-.03-2.04-.49-4.21-1.55-5.97-.56-.93-1.34-1.75-2.34-2.18-.28-.12-.61-.08-.77.2-.14.24-.08.65.2.77ZM26.12 73.37zM39.22 84.21l-.5-3.26c-.03-.21-.23-.36-.44-.4a.49.49 0 0 0-.37-.14c-1 .11-2.01.2-3.02.26l-.67-2.5a.59.59 0 0 0-.63-.41c-.05-.01-.09-.02-.14-.01-.82.09-1.63.2-2.44.34l-.4-2.55a.477.477 0 0 0-.16-.26c-.09-.2-.28-.35-.5-.33l-2.48.26c-.11-.61-.17-1.17-.22-1.83-.02-.29-.24-.58-.57-.57-.29.01-.59.25-.57.56.06.87.18 1.74.35 2.6.04.22.31.44.55.42l2.55-.27.41 2.58c.02.13.11.24.23.31.13.21.37.3.63.25.45-.09.91-.16 1.36-.23.12-.02.23-.03.35-.05h.06c.05 0 .11-.01.16-.02l.5-.06.63 2.35c.05.18.19.32.36.38.1.12.24.2.41.19 1.01-.06 2.01-.15 3.02-.25l.45 2.95c.05.29.43.48.7.4.32-.1.44-.38.4-.7Z"/><path class="cls-18" d="M28.36 78.71c.73 0 .73-1.13 0-1.13s-.73 1.13 0 1.13ZM31.62 81.9c.73 0 .73-1.13 0-1.13s-.73 1.13 0 1.13ZM35.37 84.69c.73 0 .73-1.13 0-1.13s-.73 1.13 0 1.13ZM61.7 37.18c.82.02 1.63.24 2.34.67s1.29 1.11 1.78 1.79c.18.25.49.37.77.2.24-.14.38-.53.2-.77-.62-.84-1.29-1.65-2.19-2.2s-1.89-.8-2.91-.83c-.73-.02-.73 1.12 0 1.13ZM57.25 40.99c0-.11.01-.21.02-.32v-.08.03c-.01-.03.02-.12.02-.15.04-.2.08-.39.15-.58.02-.05.03-.09.05-.14 0-.02.02-.05.03-.07.02-.06.02-.05-.02.03.02-.02.04-.1.06-.13.02-.04.04-.09.06-.13.09-.17.19-.33.3-.48.17-.24.05-.64-.2-.77-.29-.15-.59-.05-.77.2-.54.75-.8 1.66-.83 2.58-.01.3.27.58.57.57.32-.01.55-.25.57-.57ZM63.04 39.75c-.42-.88-1.44-1.32-2.38-1.16-.94.16-1.65.96-1.79 1.84-.05.29.08.62.4.7.27.06.64-.08.7-.4.01-.08.03-.16.05-.24 0-.03.02-.05.03-.07 0 .03 0 .02 0 0 .05.07.1.13.18.17.13.07.3.11.44.06.27-.1.55-.18.83-.22.08 0 .15-.02.23-.02.12 0 .23-.04.33-.11 0 0 0 .02.01.02.13.27.53.36.77.2a.58.58 0 0 0 .2-.77ZM63.95 35.33l.39-.08.16-.03s.2-.02.13-.02l-.29-.08.05.02-.2-.2v.01l.03.11.05.19.11.41c.05.18.21.36.4.4.46.1.94.15 1.42.14l-.57-.57.08.7c.03.27.03.59.24.79.19.18.43.2.68.24l.74.13-.42-.55c-.02.36-.1.7-.21 1.04-.09.28.11.64.4.7.23.05.38.11.57.24.25.17.63.05.77-.2.16-.28.05-.6-.2-.77s-.55-.29-.84-.35l.4.7c.14-.43.22-.88.25-1.34.02-.23-.19-.5-.42-.55l-.61-.11c-.17-.03-.37-.04-.53-.1l.25.14c.08.22.11.27.09.16l-.02-.12-.03-.25-.06-.49c-.04-.3-.23-.57-.57-.57-.38 0-.74-.02-1.12-.1l.4.4c-.1-.38-.15-.97-.52-1.19s-.92 0-1.31.08c-.3.07-.47.41-.4.7.08.31.4.46.7.4ZM29.51 83.69c1.82 1.58 3.62 3.17 5.42 4.77.23.2.57.22.8 0 .21-.21.23-.6 0-.8-1.8-1.6-3.6-3.19-5.42-4.77-.23-.2-.57-.23-.8 0-.2.2-.23.6 0 .8ZM29.99 86.17c.95 1.49 2.55 2.32 3.72 3.6.21.23.59.21.8 0 .22-.22.21-.57 0-.8-.57-.62-1.24-1.13-1.88-1.66-.32-.26-.64-.53-.93-.83-.14-.14-.27-.28-.4-.43s-.19-.24-.33-.45c-.17-.26-.5-.36-.77-.2-.26.15-.37.52-.2.77ZM116.39 54s.03.02.05.04c-.01 0-.03-.02-.04-.03Z"/><path class="cls-18" d="M120.13 61.43s.03-.06.04-.09c.01-.02.02-.06.03-.07.15-.36.31-.72.47-1.08.06-.14.1-.28.06-.44a.57.57 0 0 0-.19-.29s0-.02-.01-.02c-.35-.61-.78-1.18-1.27-1.69v-.07c0-.05-.02-.1-.02-.15v-.1c0-.03 0-.06-.01-.09 0-.05 0-.09-.01-.13-.02-.19-.03-.37-.04-.56-.02-.38-.01-.76 0-1.14 0-.06 0-.12-.03-.18a.635.635 0 0 0-.16-.46c-.63-.72-1.34-1.36-2.1-1.93-.11-.08-.31-.09-.44-.06a.63.63 0 0 0-.34.26.61.61 0 0 0-.06.44c.05.15.14.24.26.34s.06.05.09.07l.02.02s.01 0 .02.01h.01c.02.01.03.02.04.03.08.07.17.13.25.2a11.807 11.807 0 0 1 1.29 1.25c-.05.83 0 1.65.14 2.46 0 .15.05.29.16.41.22.23.43.46.62.71.21.28.41.57.59.87-.29.65-.57 1.31-.83 1.97-.05.13 0 .32.06.44.01.03.03.05.06.08v.05c.09.62.25 1.23.47 1.82l-.81 1.48c-.14.26-.07.63.2.77s.62.07.77-.2l.87-1.6c.05-.1.08-.21.07-.33.04-.11.05-.22.01-.34-.23-.62-.4-1.26-.5-1.91 0-.04-.03-.08-.05-.12.05-.13.1-.26.16-.39.04-.09.08-.19.12-.28Z"/><path class="cls-18" d="m118.41 66.56.24.48c.04.07.08.12.14.16.05.05.12.08.19.1.07.02.15.03.23 0 .07 0 .14-.02.21-.07l.12-.09a.48.48 0 0 0 .14-.25l.02-.15c0-.1-.03-.2-.08-.29l-.24-.48a.439.439 0 0 0-.14-.16.435.435 0 0 0-.19-.1.362.362 0 0 0-.23 0c-.07 0-.14.02-.21.07l-.12.09a.48.48 0 0 0-.14.25l-.02.15c0 .1.03.2.08.29Z"/><path d="M196.49 108.19c-.34-.85-.99-1.48-1.65-2.1-.87-.82-1.75-1.63-2.63-2.43-3.43-3.1-6.99-6.05-10.44-9.12-.87-.78-1.74-1.57-2.6-2.37-.79-.74-1.59-1.74-2.74-1.86-1.1-.12-2.07.81-2.88 1.43-.91.68-1.81 1.38-2.69 2.1-3.49 2.81-6.83 5.8-10.32 8.62-.88.72-1.76 1.43-2.58 2.21-.78.74-1.6 1.5-2.19 2.4-.51.79-.79 1.74-.61 2.68.14.79.71 1.4 1.44 1.7.43.17.89.22 1.35.22h11.94c.48 3.58.5 7.23.09 10.81a43.36 43.36 0 0 1-2.73 10.93c-1.2 3.02-2.76 5.91-4.62 8.58-1.85 2.66-4 5.11-6.4 7.29a41.28 41.28 0 0 1-7.98 5.67c-.45.24-.9.48-1.35.7-.33.17-.42.63-.24.93.06.11.15.19.25.24.29 2.7 1.47 13.92 1.41 14.92-.07 1.14-1.17 3.64-1.97 4.37-.79.74-2.58 1.66-4.48 1.52s-15.56.22-15.56.22l-42.21-.07s-10.71.39-14.14-.33c-3.43-.72-5.34-1.91-8.02-4.28-2.68-2.36-3.69-4.89-4.51-6.27-.82-1.38-.69-3.08-.93-4.75s-1.12-11.16-1.28-13.07c-.14-1.62-1.16-9.51-1.46-11.86.15-.02.29-.09.39-.19.28-.28.23-.67 0-.96-2.9-3.56-5.55-7.38-7.48-11.56-1.8-3.9-3.19-8.03-5.85-11.46-2.27-2.92-5.48-5.01-8.99-6.14-3.48-1.11-7.29-1.27-10.84-.41-3.6.87-6.89 2.86-9.47 5.5a22.767 22.767 0 0 0-5.57 9.62c-1.24 4.38-.9 8.97.04 13.37.88 4.14 2.24 8.15 3.93 12.03 1.72 3.95 3.78 7.75 6.12 11.36 2.18 3.37 4.62 6.59 7.3 9.58.02.13.07.26.19.38 10.21 10.4 23.04 18.65 36.66 23.8 7.12 2.69 14.57 4.59 22.06 5.91 7.62 1.34 15.36 2.02 23.09 1.93 7.71-.09 15.41-.93 22.94-2.59 3.75-.83 7.49-1.82 11.08-3.18 3.59-1.37 7.06-3.07 10.4-4.97 5.9-3.37 11.22-7.42 15.73-12.52 4.42-5 8.02-10.7 10.81-16.76 6.22-13.54 8.09-28.59 6.69-43.36-.16-1.66-.36-3.31-.59-4.95h11.52c.05 0 .11 0 .16-.02.85-.07 1.63-.44 2.15-1.14.5-.67.58-1.54.27-2.31Z" style="fill:#f6c243"/><path d="M145.48 165.09c-.12-1.53-.4-7.89-.4-7.89s-.15.06-.41.17c-.13-.36-.54-.65-.99-.42-4.59 2.27-9.61 3.62-14.66 4.42-5.07.8-10.26 1-15.38.86-5.13-.14-10.44-.72-15.56-1.75-5.08-1.02-10.08-2.5-14.88-4.47-2.45-1.01-4.85-2.14-7.25-3.26-2.25-1.05-4.46-2.17-6.57-3.48-.39-.24-.78-.48-1.18-.72-.75-.45-1.44.73-.69 1.17s.05.03.07.05v.1l.58 6.24c.03.33 1.11 11.43 1.65 13.53.54 2.1 2.32 3.96 2.96 4.52.63.56 6.72.77 8.39.5 1.68-.27 13.42-.04 15.97-.25 2.54-.21 17.78.02 20.22 0s15.02.05 15.02.05 9.08-.21 10.19-.77c1.1-.56 2.05-1.89 2.52-2.81s.52-4.27.4-5.79Z" style="fill:#d6e8ea"/></g><path class="cls-9" d="M6.54 123.73c-.33-.22-.66-.36-.98-.44-.45 2.35-.5 4.73-.28 7.11 6.99 5.9 8.47 15.39 8.62 24.46.69 1.19 1.4 2.37 2.15 3.53 1.18 1.81 2.43 3.58 3.75 5.3.06-.24.11-.5.12-.78.45-14.22-.28-30.46-13.37-39.17ZM163.97 154.06c4-1.59 6.96-5.22 8.7-9.06 3.58-7.89 2.69-17.47-2.51-24.43-.04.63-.1 1.27-.17 1.9-.32 2.8-.92 5.57-1.78 8.26.73 3.05.7 6.26-.22 9.4-.81 2.77-2.38 5.73-4.79 7.43-1.93 1.36-4 1.36-6.03.8-.31.3-.61.61-.93.9a40.269 40.269 0 0 1-4.51 3.53c3.89 1.77 8.05 2.93 12.25 1.26ZM171.69 93.19c-.27.22-.56.43-.83.64-1.76 1.42-3.49 2.88-5.21 4.35 1.55 7.4 8.52 13.07 14.02 18.2 1.34 1.25 2.56 2.55 3.59 3.93-.07-1.24-.16-2.47-.27-3.71-.16-1.66-.36-3.31-.59-4.95h1.14c-1.61-1.48-3.29-2.91-4.9-4.39-3.87-3.55-8.09-8.5-6.94-14.07ZM148.31 171.74c-.07 1.14-1.18 3.63-1.97 4.37-.79.74-2.58 1.66-4.48 1.52-.85-.06-4.05-.02-7.33.04-4.28 2.35-8.61 4.51-13.49 4.64-9.18.24-17.63-5.38-26.6-.7-6.24 3.26-9.84 9.93-11.86 16.52 2.04.35 4.08.66 6.13.91 1.68-5.13 4.51-10.38 9.57-12.5 7.14-2.98 15.4 2.07 22.76 1.9 8.05-.19 14.58-4.99 21.56-8.35 5.08-2.44 14.58-4.64 17.68 1.78a52.93 52.93 0 0 0 4.43-4.31c-3.59-4.94-10.24-6.86-16.4-5.82ZM22.08 108.01c1.5 2.87 3 5.75 4.5 8.62 1.08 2.06 2.12 4.18 3.87 5.76 3.67 3.32 9.74 3.47 14.37 4.36 1.07.2 1.96-.1 2.62-.66-.27-.52-.52-1.05-.77-1.58-.6-1.3-1.16-2.63-1.73-3.96-1.63-.31-3.26-.62-4.89-.94-2.07-.4-4.45-.59-5.93-2.24-1.34-1.5-2.17-3.7-3.09-5.45-1.01-1.94-2.03-3.89-3.04-5.83-2.09-.24-4.22-.15-6.27.26-.04.52.07 1.08.37 1.65ZM33.19 144.06c-3.68 9.49 5.93 15.82 6.71 24.58.42 4.76.9 9.07 4.43 12.65 2.83 2.87 6.75 4.59 10.69 5.21 7.02 1.1 15.5-2.02 17.15-8.78-.88-.06-1.64-.15-2.21-.27-1.42-.3-2.57-.68-3.63-1.18-.8 5.2-10.35 4.77-14.02 3.15-2.61-1.15-4.85-3.12-5.68-5.91-.93-3.15-.44-6.56-1.42-9.73-1.63-5.25-6.98-9.87-6.67-15.59.44-8.29 11.18-1.23 14.47.98.79.53 1.57.62 2.25.43-.02-.2-.03-.37-.04-.51-.07-.88-.41-3.58-.74-6.26-6.68-4.1-17.51-8.49-21.28 1.24Z"/><path class="cls-19" d="M24.98 95.95c2.89-.87 5.51-2.44 7.88-4.28 2.37-1.84 4.67-4.14 6.72-6.49 1.13-1.3 2.2-2.64 3.24-4 .22-.29.05-.76-.24-.93-.35-.2-.71-.05-.93.24-1.79 2.34-3.7 4.61-5.79 6.69s-4.39 4.05-6.96 5.55c-1.36.79-2.77 1.45-4.28 1.9-.84.25-.48 1.56.36 1.31Z"/><path class="cls-2" d="M111.54 47.04a260.59 260.59 0 0 1-3.58 7.08c-.17.32-.08.74.24.93.31.18.76.08.93-.24 1.23-2.34 2.42-4.7 3.58-7.08.16-.33.09-.73-.24-.93-.3-.17-.77-.09-.93.24Z"/><path d="M44.52 46.33c-.18-.3-.62-.45-.93-.24-.76.51-1.55.99-2.27 1.56-.82.64-1.55 1.4-2.25 2.16-1.43 1.53-2.79 3.14-4.11 4.77a102.681 102.681 0 0 0-10.77 16.25l-.03.06c0 .02-.02.04-.03.07 0 .02-.01.04-.01.07 0 .02 0 .04-.01.07v.06c0 .24.11.49.33.61 4.58 2.38 9.11 4.84 13.69 7.21 1.29.67 2.59 1.33 3.89 1.98.33.16.74.09.93-.24.18-.3.09-.77-.24-.93-.18-.09-.35-.18-.53-.26-.56-2.58-2.22-10.17-2.52-11.05-.37-1.06-.87-10.51-.46-12.92.27-1.58 1.32-4.28 2.01-5.96.24-.23.48-.45.73-.67.71-.62 1.56-1.1 2.35-1.64.3-.21.44-.6.24-.93Z" style="fill:#cc939f"/><path class="cls-2" d="M54.15 40.37c-3.76 2.26-8.21 3.41-11.45 6.49-3.13 2.97-4.38 7.37-4.59 11.57-.12 2.32.12 4.65.41 6.95.31 2.49.73 4.95 1.26 7.4 1.05 4.81 2.51 9.51 4.17 14.14 1.7 4.74 3.6 9.41 5.5 14.08l.72 1.78c.14.34.45.58.84.48.32-.09.61-.49.48-.84-1.87-4.63-3.77-9.24-5.51-13.92-1.69-4.54-3.21-9.15-4.36-13.86-.58-2.38-1.07-4.78-1.44-7.19s-.66-4.73-.72-7.11c-.09-3.92.63-8.24 3.17-11.37 2.75-3.39 7.11-4.68 10.84-6.63.47-.24.93-.5 1.38-.77.75-.45.07-1.63-.69-1.17Z"/><path class="cls-16" d="M148.52 16.83c-.4 3.34-.15 6.81.67 10.07.12.46.66.78 1.11.63s.76-.62.63-1.11c-.41-1.63-.62-3.08-.72-4.71-.1-1.63-.07-3.26.12-4.88.06-.47-.46-.93-.91-.91-.54.02-.84.4-.91.91Z"/><path class="cls-10" d="M196.91 24.71c-.22-1.41-.44-2.81-.67-4.22a.478.478 0 0 0-.1-.23.643.643 0 0 0-.42-.34c-2.95-.74-5.9-1.48-8.85-2.23l-10.6-2.67c-1.45-.37-2.9-.73-4.35-1.09a.646.646 0 0 0-.19-.04.63.63 0 0 0-.59.3c-.12.16-.18.37-.11.59.02.08.05.15.1.22 1.41 2.56 2.73 5.18 3.94 7.85.15.33.64.41.93.24.2-.12.3-.3.32-.5l.47.06 11.91 4.85 1.7 8.22a.64.64 0 0 0-.45.31c-.17.29-.1.78.24.93l7.75 3.4c.33.15.73.1.93-.24a.69.69 0 0 0 .08-.32.4.4 0 0 0 .02-.19 467 467 0 0 0-2.04-14.89Z"/><path class="cls-19" d="M65.1 15.67c-.89-2.51-2.28-4.88-4.48-6.45-2.34-1.67-5.31-1.9-8.07-1.45-2.54.41-5.29 1.38-6.75 3.63-1.5 2.31-1.3 5.35-1.06 7.97.32 3.49 1.09 6.92 2.01 10.3.23.84 1.54.48 1.31-.36-.76-2.8-1.43-5.64-1.8-8.53-.17-1.37-.29-2.76-.3-4.14 0-1.2.09-2.41.51-3.54.84-2.25 3.12-3.27 5.3-3.79 2.41-.57 5.13-.66 7.37.57 2.34 1.29 3.8 3.7 4.67 6.15.12.35.46.58.84.48.33-.09.6-.49.48-.84ZM70.98 37.7c-1.33-3.6-2.3-7.34-3.23-11.05-.25-1.02-.5-2.04-.74-3.06-.08-.36-.49-.57-.84-.48-.37.1-.56.48-.48.84.89 3.84 1.87 7.66 3.05 11.42.29.91.58 1.81.91 2.7.13.34.46.58.84.48.33-.09.6-.49.48-.84ZM53.58 39.47c.05.65.13 1.29.27 1.93.08.35.5.58.84.48.36-.12.56-.46.48-.84-.07-.3-.12-.6-.16-.9l.02.18c-.04-.28-.07-.56-.09-.85a.718.718 0 0 0-.2-.48c-.12-.12-.31-.21-.48-.2s-.36.07-.48.2-.21.3-.2.48Z"/><path d="M66.03 22.04c0-.13-.01-.21-.01-.21l-.81-.19a.687.687 0 0 0-.48-.81c-.34-.09-.75.12-.84.48-.12.54-.19 1.09-.31 1.63-.06.3-.14.6-.23.9-.05.16-.12.42-.16.52-.02.06-.16.26-.23.37-.42.6-.82 1.21-1.35 1.72-.56.55-1.17 1.04-1.77 1.56-.5-.03-.99-.07-1.47-.21-.52-.16-.94-.44-1.38-.71-.49-.29-.95-.6-1.48-.81-.53-.2-1.11-.29-1.67-.31-.92-.03-1.82.16-2.71.38-.32.08-.63.17-.92.32-.43.23-.81.59-1.15.94-.36.37-.71.75-1.14 1.04-.43.29-.84.43-1.35.44-.38 0-.6.27-.65.56-.04.09-.06.18-.05.28l.25 2.19c.08.74.15 1.49.29 2.22.24 1.17.81 2.24 1.63 3.11 1.6 1.69 3.96 2.52 6.26 2.42 2.68-.12 5.25-1.29 7.37-2.88 1.07-.8 2.03-1.71 2.8-2.81.69-.99 1.2-2.12 1.56-3.27.83-2.66.9-5.5.93-8.26 0-.56-.54-.76-.95-.6Z" style="fill:#78577a"/><path class="cls-19" d="M4.01 33.71c-.43-.65-1.32-1.59-2.19-1.27-.48.17-.59.64-.65 1.09s-.09.86-.1 1.29c0 .79.08 1.57.12 2.36s.1 1.6.2 2.4c.05.36.28.68.68.68.33 0 .73-.31.68-.68-.16-1.27-.2-2.55-.28-3.83-.04-.62-.05-1.24.02-1.86.01-.11.05-.22.05-.33 0-.36-.38.36-.43.17 0 .03.16.1.19.12.22.14.4.34.54.55.2.31.6.44.93.24.3-.18.45-.62.24-.93Z"/><path class="cls-4" d="M11.87 52.31c0-.07 0-.14-.03-.21-.45-1.27-.86-2.56-1.27-3.84-.11-.34-.48-.59-.84-.48-.33.11-.55.42-.49.75-.22.19-.51.47-.69.63-.16-.15-.39-.23-.62-.15-.33.11-.6.48-.48.84.41 1.12.82 2.24 1.24 3.37.1.28.36.5.65.5l.15.03c.19.02.38 0 .56-.02s.37-.06.55-.13c.4-.15.77-.37 1.06-.68.12-.13.2-.3.2-.48 0-.04 0-.08-.01-.11ZM9.86 45.9c-.38-1.29-.75-2.59-1.1-3.9-.09-.34-.49-.59-.84-.48-.35.11-.57.47-.48.84.06.22.12.44.18.65-.34.61-.72 1.3-.85 1.55-.13-.04-.28-.06-.4-.01-.16.05-.32.15-.41.31-.08.16-.13.35-.07.52a76 76 0 0 0 .55 1.61c.06.17.15.31.31.41.14.09.36.12.52.07.16-.05.32-.15.41-.31a.74.74 0 0 0 .09-.36l.99-.21c.17.14.4.21.61.14.35-.11.58-.47.48-.84ZM4.23 39.98c.11.39.22.78.33 1.16.05.17.16.32.31.41s.36.12.52.07.32-.15.41-.31.12-.34.07-.52l-.33-1.16c-.05-.17-.17-.32-.31-.41s-.36-.12-.52-.07-.32.15-.41.31-.12.34-.07.52Z"/><path class="cls-4" d="M8.03 39.18c-.67-2.64-1.16-5.33-1.67-8.01-.12-.61-.24-1.22-.35-1.83a.537.537 0 0 0-.17-.29.726.726 0 0 0-.56-.31c-.46-.03-.93 0-1.38.11-.4.1-.78.28-1.16.43-.02 0-.05.02-.07.03h-.01c-.03.01-.06.03-.09.05 0 0-.02 0-.03.02a.55.55 0 0 0-.09.07l-.02.02c-.02.02-.03.03-.04.05-.1.12-.16.26-.15.42s0 .02 0 .03v.06c.09.95.26 1.9.42 2.85.18 1.06.37 2.11.6 3.16.08.36.5.57.84.48.37-.1.55-.47.48-.83.15-.06.75-.3 1.23-.3.11.56.23 1.12.35 1.67L4.9 39.81l.24 1.55.95-.89.77-.65c.39.49 1.37.12 1.18-.63Z"/><path class="cls-19" d="M14.93 57.52v.02l.06-.16c-.07.17-.16.32-.27.46l.11-.14c-.11.14-.24.28-.39.39l.14-.11c-.14.11-.29.2-.46.27l.16-.07s-.03.01-.05.02c-.09.02-.17.06-.23.12a.52.52 0 0 0-.17.19c-.09.14-.12.36-.07.52s.15.32.31.41.36.14.52.07c.19-.07.37-.15.54-.26s.32-.23.46-.37.26-.3.37-.46.19-.35.27-.54c.03-.09.03-.18.01-.27 0-.09-.03-.17-.08-.25-.08-.14-.24-.28-.41-.31-.17-.04-.37-.03-.52.07l-.14.11a.69.69 0 0 0-.17.3ZM9.82 52.75c-.32-.14-.74-.1-.93.24-.16.3-.1.77.24.93.19.09.36.19.53.3.04.03.09.06.13.09.01.01.03.03.05.04l.23.2c.08.07.14.14.21.22.03.04.07.08.1.12l.02.02v.01c.12.17.24.35.34.54.02.05.05.09.07.14 0 .01.02.04.03.06.03.08.07.17.1.26.06.19.11.39.14.59v.06c0 .04 0 .08.01.12 0 .11.01.22 0 .33 0 .1-.01.2-.02.3v.02l-.03.18c-.07.35.1.75.48.84.34.08.76-.1.84-.48.42-2.03-.62-4.28-2.54-5.15Z"/><path class="cls-19" d="M26.78 75.63c-.19-.28-.38-.56-.56-.84.38-.82.77-1.64 1.16-2.46.08-.17.12-.34.07-.52a.712.712 0 0 0-.31-.41c-.3-.16-.77-.1-.93.24-.29.61-.58 1.23-.86 1.84-1.99-2.94-4-5.85-5.91-8.84a96.66 96.66 0 0 1-3.71-6.28c.26-.04.46-.24.56-.49.36-.93.74-1.86 1.05-2.8.31-.94.55-1.89.76-2.86 0-.01 0-.02.01-.03.34-1.5.14-3.23-.58-4.6-.81-1.53-1.67-3-2.6-4.45a.614.614 0 0 0-.25-.23.812.812 0 0 0-.32-.21c-.69-.28-1.5-.69-2.19-1.11-.73-.44-1.36-.91-1.99-1.45a.743.743 0 0 0-.21-.13c-.3-.22-.67-.25-1-.13-.15-.32-.39-.6-.74-.8-.47-.26-1.01-.27-1.49-.03-.33.17-.62.44-.9.69-.22.2-.43.41-.64.62v-.23c.53-.74 1.04-1.55 1.21-2.45.18-.98 0-2-.68-2.77a.632.632 0 0 0-.57-.19c-.12 0-.24.02-.36.08-.85.4-1.66.91-2.18 1.71-.27.41-.44.88-.6 1.34-.16.46-.33.94-.49 1.41C.88 41.19.36 43.21.48 45.27c.01.23.13.44.31.56.05.05.1.11.15.16.07.07.15.13.23.19 0 0 .01 0 .02.01-.22.49-.4 1-.53 1.52a.67.67 0 0 0 .04.45c.25 1.24 1.3 1.97 2.01 2.95.17.23.33.48.42.76.09.27.07.49.04.76-.07.52-.05 1.04.01 1.56.14 1.09.39 2.18.81 3.2.42 1.02.85 2.02 1.28 3.03.25.59.52 1.17.79 1.75 0 .12.02.24.09.35 0 .01.01.02.02.03v.16c-.04.22-.08.43-.1.65-.03.3.03.6.16.87.22.45.69.73 1.14.93l.15.06c1.21 5.01 2.65 9.96 4.31 14.83.82 2.41 1.64 4.83 2.68 7.16.91 2.03 2.07 3.92 3.73 5.42.88.8 1.86 1.52 2.89 2.1.94.53 1.98 1 3.06 1.15.36.05.73-.09.84-.48.09-.32-.11-.79-.48-.84-1.83-.26-3.53-1.36-4.94-2.54-.38-.32-.74-.65-1.09-1.01l-.42-.45c-.07-.08-.14-.17-.21-.25a5.88 5.88 0 0 1-.14-.17c-.72-.95-1.31-2-1.82-3.07-1.04-2.19-1.81-4.52-2.6-6.81-.84-2.43-1.62-4.87-2.34-7.34-.82-2.79-1.58-5.61-2.26-8.44a.594.594 0 0 0-.67-.48h-.01c-.1-.05-.2-.09-.3-.14-.05-.02-.09-.05-.14-.08-.01 0-.08-.06-.12-.09 0 0-.02-.01-.02-.02l-.03-.03s-.01-.02-.02-.03c0-.02 0-.03-.01-.05v-.19c.06-.36.14-.72.08-1.07a.738.738 0 0 0-.08-.41c-.31-.63-.6-1.26-.88-1.9-.35-.8-.71-1.69-1.1-2.62-.41-.98-.72-2.01-.88-3.06-.07-.43-.1-.97-.06-1.45v-.05l.03-.2c.06.35.51.58.84.48.38-.12.54-.46.48-.84l-.03-.2c0-.04-.01-.08-.02-.12-.01-.13-.03-.25-.04-.38-.02-.27-.03-.55-.03-.82 0-.27.01-.53.04-.79.01-.12.02-.24.04-.36 0-.03.02-.13.02-.14 0-.05.02-.11.03-.17.37-.39.73-.79 1.12-1.17.21-.21.43-.4.66-.59l.09-.06.18-.12c.13-.09.27-.16.41-.23h.04c.27-.03.54-.02.8.01.16.02.32.05.48.09-.01.07-.03.12-.05.18-.02.05-.05.09-.07.14l-.06.06-.06.06s-.02.01-.03.02c-.07.05-.14.08-.22.12-.35.17-.71.31-1.07.46a.47.47 0 0 0-.12.09c-.15.08-.27.22-.31.4-.13.54-.31 1.08-.52 1.59v.01s0 .02-.01.03v.01c-.07.16-.1.31-.05.48.02.06.05.13.09.19v.02l.07.16c.05.08.12.15.19.2.14.11.27.24.39.37.12.12.24.25.35.39.01.02.02.03.03.05.09.15.24.26.41.31.09.03.18.03.27.01.09 0 .17-.03.25-.08.14-.09.27-.23.31-.41s.03-.37-.07-.52c-.08-.13-.18-.25-.28-.37l-.27-.3c-.1-.11-.21-.21-.32-.31.16-.39.29-.8.4-1.21.28-.12.57-.24.85-.36.36-.17.66-.4.89-.71.03-.03.04-.07.07-.11.44.38.84.8 1.2 1.26-.5.39-.93.87-1.27 1.4-.19.3-.07.76.24.93.33.18.72.08.93-.24l.21-.3c.21-.26.45-.5.71-.71.06-.05.13-.09.19-.13.15.1.34.14.53.08.34-.11.59-.47.48-.84-.37-1.12-.76-2.23-1.19-3.33 0-.21-.09-.42-.33-.56-.96-.54-1.83-1.25-2.39-2.21A4.34 4.34 0 0 1 9.45 42c-.03-.21-.05-.49-.03-.69 1.32 1.1 2.79 1.99 4.37 2.65.91 1.42 1.74 2.86 2.53 4.35l.09.18c.02.03.03.06.04.09.05.14.11.29.15.43.1.32.16.64.22.96v-.02c0 .05.01.09.02.13 0 .09.02.18.02.27.01.18.02.36.02.54 0 .18-.02.36-.03.54 0 .08-.01.09 0 .02 0 .05-.01.09-.02.13-.01.08-.03.16-.05.23 0 0 0 .02-.01.03-.22.98-.46 1.94-.77 2.89s-.69 1.87-1.05 2.8c-.05.14-.04.29.02.42-.4.09-.75.53-.5 1.01 2.03 3.81 4.4 7.43 6.82 11.01 1.2 1.78 2.42 3.56 3.62 5.34 1.2 1.79 2.38 3.51 3.32 5.4s1.65 4.11 1.31 6.28c-.06.36.09.73.48.84.32.09.78-.11.84-.48.69-4.34-1.79-8.25-4.09-11.72ZM7.4 63.55v.02-.02Zm0 .05s0-.01 0 0Zm.14.14Zm-.09-.07Zm-.04-.06v-.03s0 .02.01.03ZM5.78 51.93c0 .05 0 .05 0 0Zm5.67-5.22c.06.15.12.31.17.47-.23-.2-.47-.39-.72-.57-.03-.11-.07-.22-.11-.33.21.16.43.3.66.44Zm-2.32-5.67.08.08a.23.23 0 0 1-.08-.07Zm-6.37-1.23c.14-.44.3-.88.45-1.32.14-.39.26-.78.47-1.14.3-.52.78-.86 1.3-1.14.01.04.05.14.06.16.02.08.04.15.05.23 0 0 .02.17.02.19v.28c0 .02-.02.17-.02.19-.01.08-.03.16-.05.24-.1.41-.24.69-.45 1.05s-.46.71-.7 1.05c-.11.16-.12.36-.06.54 0 .3.02.61.05.91.02.23.05.47.09.7-.38.49-.75.99-1.1 1.5-.37.54-.73 1.1-1.06 1.68-.04-1.76.4-3.46.95-5.12Zm3.19 4.71-.15.39c-.06.15-.05.14-.14.34-.14.31-.31.61-.49.89-.42.64-1.01 1.22-1.67 1.67-.3.21-.44.6-.24.93.18.3.62.45.93.24.15-.1.29-.21.43-.31v.02c-.03.05-.05.1-.06.15-.15.85-.2 1.69-.15 2.54-.05-.13-.1-.26-.16-.39-.31-.65-.83-1.17-1.31-1.7-.4-.43-.76-.88-.89-1.44.14-.49.31-.9.51-1.32.05-.1.1-.2.15-.31a.6.6 0 0 0 .13-.25c.23-.43.47-.84.73-1.25.49-.79 1.03-1.53 1.6-2.24.05-.04.1-.09.13-.15.24-.29.49-.58.75-.86.38-.41.79-.88 1.26-1.17.02-.01.18-.09.11-.07.07-.02.05-.01.12.02.03.01.14.1.17.14.17.22.12.56.01.84-.28.72-.91 1.25-1.24 1.95-.21.44-.36.9-.52 1.36Zm2.44 2.52h-.03s.09-.04.13-.08l-.1.08Zm1.91-1.16a.964.964 0 0 0-.24 0c-.37-.07-.74-.14-1.12-.17-.18-.01-.37-.02-.55 0-.14.01-.27.03-.41.05-.11.02-.2.06-.29.12-.03.01-.06.02-.08.03-.33.17-.64.38-.92.61-.03-.02-.05-.04-.07-.06-.02-.01-.04-.03-.06-.04.22-.38.41-.77.57-1.19.1-.25.19-.51.28-.76.04-.12.08-.23.12-.34.02-.05.04-.11.06-.16 0-.02 0-.02.01-.03v-.02c.18-.38.42-.72.67-1.05.04.12.07.23.11.34.4 1.06 1.07 1.95 1.91 2.67Zm6.17 2.65Z"/><path class="cls-10" d="M58.43 81.49c.42 5.59.85 11.19 1.29 16.78.45 5.64.9 11.28 1.38 16.93.47 5.64.97 11.39 1.47 17.09s1.02 11.34 1.56 17.01a2323.408 2323.408 0 0 0 1.86 18.81c.04.36.29.68.68.68.34 0 .72-.31.68-.68-.57-5.58-1.13-11.16-1.66-16.75-.54-5.63-1.06-11.27-1.56-16.91-.51-5.69-1-11.39-1.48-17.08-.48-5.67-.94-11.35-1.39-17.03-.45-5.6-.88-11.21-1.3-16.82l-.15-2.04c-.07-.87-1.42-.87-1.36 0Z"/><path class="cls-10" d="M59.78 81.49c-.16-2.35-.31-4.72.43-6.99.31-.96.76-1.87 1.46-2.61.78-.81 1.78-1.43 2.88-1.68.6-.13 1.22-.08 1.83-.08h5.82c2.62 0 5.24.01 7.85.02 5.29.01 10.58.03 15.87.04 5.14 0 10.27.02 15.41.01 4.74 0 9.48-.01 14.23-.04h1.63c.87 0 .88-1.36 0-1.36-4.78.03-9.55.04-14.32.05H97.24c-5.37 0-10.74-.02-16.11-.04-2.68 0-5.37-.01-8.05-.02h-3.94c-1.31 0-2.6-.04-3.89 0-2.4.07-4.67 1.76-5.73 3.87s-1.3 4.54-1.2 6.9c.03.65.07 1.31.11 1.96.02.37.29.68.68.68.35 0 .7-.31.68-.68Z"/><path class="cls-10" d="M126.97 70.17h2.94c.75 0 1.51 0 2.25.06.37.03.68-.33.68-.68 0-.39-.31-.65-.68-.68-.75-.07-1.51-.06-2.25-.06h-2.94c-.87 0-.88 1.36 0 1.36ZM49.22 74.09z"/><path class="cls-10" d="M148.99 170.53c-.04-1.57-.26-3.14-.42-4.7v-.03a1736.403 1736.403 0 0 1-3.37-32.89c-.5-5.4-.98-10.6-1.45-15.9-.46-5.22-.92-10.44-1.37-15.66-.45-5.22-.91-10.45-1.37-15.67-.06-.64-.11-1.29-.17-1.93-.05-.51-.53-.72-.91-.63-.35-.04-1.1-.25-1.71-.43 0-.06-.01-.11-.02-.17-.04-.36-.28-.68-.68-.68-.33 0-.72.31-.68.68.57 4.96.91 9.95 1.34 14.93s.89 10.37 1.34 15.55a2761.058 2761.058 0 0 0 2.93 31.74c.55 5.51 1.12 11.01 1.72 16.52.08.69.15 1.39.23 2.08.13 1.29.28 2.57.36 3.87.03.48.04.94.01 1.42-.04.57-.09.95-.21 1.51-.25 1.14-.64 1.97-1.6 2.64-.46.32-.93.57-1.39.71-.59.18-1.2.27-1.8.32-1.67.13-3.36.05-5.03.07h-.05c-4.4.02-8.8.04-13.2.05-4.79.02-9.58.03-14.37.05s-9.64.03-14.46.05c-4.49.02-8.98.03-13.48.05-1.1 0-2.22.04-3.32 0-1.1-.04-2.27-.27-3.19-.99-1.79-1.39-2.33-3.78-2.69-5.9-.1-.55-.17-1.11-.23-1.66-.54-5.27-1.05-10.54-1.55-15.81-.5-5.32-.99-10.64-1.46-15.96-.48-5.38-.94-10.75-1.39-16.13a4083.322 4083.322 0 0 1-2.52-31.95c-.05-.64-.1-1.28-.14-1.92-.14-2.22-.29-4.45.41-6.59.29-.9.7-1.76 1.36-2.45.72-.76 1.65-1.35 2.67-1.58.55-.12 1.13-.08 1.7-.08h5.45c2.45 0 4.9.01 7.34.02 4.95.01 9.9.03 14.85.04 4.81 0 9.61.02 14.42.01 4.44 0 8.87-.01 13.31-.04h1.31c1.17 0 2.34-.01 3.51 0 1.11.02 2.11.11 3.17.45.35.11.74-.13.84-.48.1-.37-.12-.72-.47-.83l-.18-2.8-.04-4.69s-.03-.19-.09-.41c.41-.23.58-.89.05-1.18-1.75-.94-3.71-1.32-5.67-1.54-.36-.04-.68.34-.68.68 0 .19.07.34.18.45-.95.92-2.94 2.98-4.04 3.5-1.39.66-4.9 1.59-5.67 1.49s-6.5-.02-6.5-.02-12.73-1.45-13.19-1.54-2.41-.52-3.64-.62c-1.23-.11-3.3.35-3.3.35s-2.23 1.66-3.48 1.73c-1.25.07-4.79-.55-4.79-.55s-2.06-.6-2.58-.25-2.25.07-2.62-.15c-.37-.22-.77-1.05-1.54-1.07s-2.42-.68-2.81-.78c-.39-.1-1.63.39-1.63.39s-2.37.86-2.99 1.2-1.44.37-1.83 0c-.38-.36-.44-.79.04-1.21s1.88-1.5 1.88-1.5l.19-.51s-2.75.92-3.12 1.2c-.36.27-.82.84-1.64 1.04s-1.62-.12-1.88-.17c-.26-.05-.06-.33-.83-.27s-1.99-.17-1.95-.4l.16-.89s-.96 0-1.16-.36c-.09-.17-.32-.41-.53-.62h.01c.87 0 .88-1.36 0-1.36-1.32 0-2.65-.1-3.9.4a7.505 7.505 0 0 0-2.86 2.02c-1.46 1.7-2.05 4.05-2.17 6.25-.07 1.34.02 2.69.11 4.03v.02c.37 4.98.76 9.96 1.16 14.94.41 5.14.84 10.27 1.27 15.41.25 2.92.5 5.84.76 8.76.03.36.29.68.68.68.21 0 .44-.12.57-.3 1.09 0 3.4 0 3.94.23.7.29 1.98 1.83 2.17 2.9s-.02 4.51-.31 5.17c-.29.65-.64 1.83-1.08 1.83s-2.85.02-3 .14c-.07.05-.36.12-.64.18-.07-.31-.31-.57-.66-.57s-.71.31-.68.68c.47 5.16.95 10.31 1.44 15.46s.97 10.08 1.48 15.12l.84 8.29v.02c.4 3.66 2.08 7.09 4.52 9.82 1.08 1.21 2.33 2.25 3.75 3.04 1.5.83 3.12 1.45 4.77 1.89 1.71.46 3.48.74 5.26.79.29 0 .57.01.86.01 4.79 0 9.58-.04 14.37-.06 5.2-.02 10.4-.04 15.6-.05s10.45-.04 15.68-.05l14.56-.06h1.66c1.68-.02 3.37.04 5.06-.05 1.43-.07 2.84-.33 4.08-1.06.62-.36 1.21-.82 1.65-1.38.42-.53.7-1.15.9-1.8.35-1.12.5-2.35.47-3.52ZM65.98 69.45a14.204 14.204 0 0 1 0 0Zm-7.01 8.62c.03-.88.14-1.76.32-2.59-.11 2.16.05 6.63.07 8.03.01.87.36 5.62.68 9.85-.53-6.35-1.12-13.75-1.06-15.3Zm1.38-5.57c.22-.38.45-.7.71-.95-.24.3-.48.62-.71.95Zm2.76 57.86v-.11c.25 2.56.62 6.35.99 10.17l-.99-10.06Z"/><path class="cls-19" d="M60.12 64.07h-.01ZM59.29 64.3l.01-.01-.01.01zM126.27 59.09c-.62-1.46-1.5-2.78-2.66-3.85a.234.234 0 0 0-.07-.07 16.33 16.33 0 0 0-.47-.39c-2.72-2.23-5.81-3.92-9.05-5.29-1-.42-2.01-.81-3.02-1.18-.34-.12-.74.14-.84.48-.1.38.13.71.48.84 2.34.85 4.65 1.83 6.83 3.03-.4-.03-.81-.04-1.22-.03-2.71.06-5.37.82-7.99 1.43l-8.07 1.87-9.06 2.1s-.02 0-.03.01c-.08-.05-.16-.1-.24-.13-.38-.18-.79-.22-1.19-.07-.33.13-.62.31-.91.51l-.69.46c-.68-.11-1.35-.2-2.03-.28-1.01-.35-2.05-.62-3.11-.81-.35-.06-.75.09-.84.48-1.4-.06-2.81-.07-4.21-.03-.06-.04-.13-.08-.21-.11s.02 0 .04.02c-.01 0-.03-.01-.04-.02s-.01 0-.02 0c0 0-.02 0-.02-.01-.05-.02-.11-.05-.16-.08-.09-.05-.18-.1-.26-.16-.3-.2-.61-.33-.98-.24-.23.06-.45.19-.67.28l-.61.26c-2.51-.18-4.98-.95-7.5-.82-.15-.02-.3 0-.45.07-1 .5-2.04.93-3.07 1.4-.07 0-.14 0-.22.03-2.01.6-3.99 1.34-5.91 2.18-.78.34-2.32.8-2.03 1.95.13.51.57.77 1.03.93.15.06.3.1.46.14 0 .02-.01.03-.02.05-.18.53.15 1.04.57 1.33.31.22.7.29 1.07.31a4 4 0 0 0 1.19-.14c.49.7 1.59.83 2.38.71.91-.14 1.72-.67 2.43-1.25.08-.03.17-.05.25-.08-.12.12-.25.23-.37.36-.16.17-.25.36-.26.56a.64.64 0 0 0 .04.57c.46.75 1.45 1.04 2.29.96a3.76 3.76 0 0 0 2.18-.98c.88-.14 1.73-.43 2.51-.88.95.57 2.07.78 3.17.88 1.3 1.41 3.43 1.76 5.13.92 1.05.4 2.19.63 3.28.87.55.12 1.1.24 1.66.28.83.06 1.72-.08 2.51-.34.84-.27 1.79-.71 2.4-1.37.02 0 .04-.02.05-.03.51-.36 1.12-.4 1.73-.39.8 0 1.6.08 2.39.19 1.47.19 2.92.49 4.38.73 2.52.41 5.06.72 7.61.93 2.61.22 5.23.36 7.85.28 2.37-.07 4.83-.29 7.11-.97 1.15-.34 2.28-.83 3.26-1.53 1.07-.77 1.94-1.73 2.66-2.82.03-.04.04-.08.06-.12.13-.19.26-.36.39-.55.24-.35.4-.74.43-1.16.08-.95-.62-1.65-1.32-2.18Zm-.08 1.84s.01.03 0 0Zm.06.2v-.04.04Zm-68.04 1.12c.37-.17.74-.33 1.12-.48.02 0 .03-.01.05-.02-.35.33-.69.67-1.02 1.01-.32 0-.64-.06-.95-.16.26-.13.54-.24.8-.36Zm-1.14.23s-.01-.03 0 0Zm0 .32.01-.01c0 .02 0 .02-.01.01Zm1.71 1.5s-.01 0 0 0Zm65.75-.6c-.34.36-.79.77-1.11 1-.4.29-.83.55-1.27.77-.48.24-.83.38-1.37.56-2.17.71-4.46.94-6.73 1.02-2.59.1-5.19-.02-7.77-.23-2.58-.21-4.98-.49-7.44-.88-1.64-.26-3.26-.59-4.9-.8-.86-.11-1.72-.2-2.59-.2-.8 0-1.65.11-2.32.57 0 0-.02.01-.02.02-.09.03-.18.08-.25.16-.44.5-1.18.84-1.78 1.05-.7.24-1.45.36-2.19.32-.07 0-.14-.01-.22-.02-.1-.02-.2-.03-.31-.05-.26-.05-.52-.1-.78-.16-.61-.13-1.23-.28-1.83-.44-.47-.12-.95-.25-1.4-.41a.68.68 0 0 0-.78-.07c-1.33.82-2.95.53-3.94-.65a.6.6 0 0 0-.47-.2.593.593 0 0 0-.23-.05c-.14-.01-.29-.02-.44-.04-.02 0-.09-.01-.13-.02-.04 0-.08-.01-.12-.02-.28-.04-.56-.1-.83-.18l-.39-.12c-.07-.02-.14-.05-.2-.08-.02 0-.03-.01-.04-.02 0 0-.02 0-.02-.01-.26-.12-.5-.26-.73-.42-.16-.12-.38-.12-.58-.05-.09.01-.17.04-.25.09-.2.13-.41.24-.62.35-.09.05-.2.12-.3.14.09-.04.1-.04.03-.01l-.09.03-.15.06c-.22.08-.43.14-.65.2-.11.03-.22.05-.32.07-.06.01-.12.02-.19.03-.04 0-.26.04-.05 0-.19.02-.34.06-.47.19-.05.03-.1.06-.15.1-.05.05-.1.1-.16.14-.01.01-.03.02-.04.03-.02.01-.04.03-.05.04-.12.08-.24.15-.37.22-.03.02-.07.03-.1.05-.07.02-.13.05-.2.07-.07.02-.14.04-.2.05-.03 0-.07.02-.1.02h-.56c-.03 0-.06-.01-.07-.02-.03 0-.07-.02-.1-.02-.04 0-.07-.02-.11-.03l.29-.28.68-.67c.11-.1.22-.21.32-.31.05-.05.1-.1.16-.15.02-.02.04-.03.06-.05.21-.15.43-.29.64-.43.08-.06.15-.13.21-.21a15.75 15.75 0 0 1 3.71-1.46c1.11.17 2.22.25 3.34.3.57.03 1.14.05 1.72.09.54.04 1.1.04 1.55-.28.3-.21.44-.6.24-.93-.17-.3-.63-.45-.93-.24-.29.2-.72.1-1.09.08-.53-.03-1.07-.06-1.6-.08-1.03-.05-2.05-.11-3.06-.28-.11-.02-.21-.01-.31 0-.06 0-.13 0-.19.02-1.19.31-2.35.75-3.46 1.3a.733.733 0 0 0-.54.05c-.29.14-.57.28-.86.41-.08.04-.17.07-.25.11-.13.05.05-.02-.09.04-.15.06-.29.12-.44.18-.59.23-1.2.43-1.81.62-.14.04-.26.13-.35.24 0 0-.02.01-.03.02-.23.19-.44.35-.75.53s-.47.26-.85.35c-.02 0-.17.03-.19.04-.06 0-.12.01-.18.01h-.32c-.03 0-.07-.01-.1-.02-.01 0-.02 0-.04-.01.27-.24.55-.48.83-.72l.65-.53c.06-.05.12-.1.18-.14.01 0 .02-.02.03-.03l.03-.02.01-.01c.11-.09.23-.17.35-.26.04-.03.08-.07.12-.1 1.46-1.06 3.03-1.96 4.7-2.66 2.63-.03 5.23.61 7.84.9.1.01.2-.01.29-.06.04-.01.07-.03.11-.05l.77-.43c.08-.04.14-.1.19-.17.06-.07.1-.14.12-.23.03-.09.03-.18.01-.27 0-.09-.03-.17-.08-.25-.09-.14-.23-.27-.41-.31s-.36-.02-.52.07l-.6.34c-2.48-.28-5.08-.9-7.64-.88a.564.564 0 0 0-.34 0c-1.88.77-3.66 1.75-5.3 2.97-.05.04-.09.08-.13.12-.72.54-1.41 1.11-2.09 1.71-.09.01-.17.04-.25.08l-.18.09c-.02.01-.05.02-.08.04h-.01c-.08.04-.03.01 0 0-.07.02-.33.11-.36.12-.13.04-.26.07-.39.09h-.06c.03 0 .06 0 0 0h-.03.03c-.07 0-.14.01-.21.02h-.28c-.02 0-.03 0-.05-.01.82-.86 1.67-1.7 2.55-2.51l.01-.01h.01c1.86-1.38 4.06-2.14 6.13-3.14 2.51-.13 4.97.63 7.46.81.09.02.18.02.26 0H75.29c.04-.01.09-.03.13-.05.37-.16.73-.32 1.1-.46.05.04.11.07.16.11.22.14.45.24.69.34h.03c.11.1.26.16.45.15 2.64-.1 5.28 0 7.9.31.14.05.29.1.43.15.15.06.32.03.46-.04l1.23.18c.08.01.16.01.24 0 .18.06.37.06.54-.06s.83-.55.83-.55c.14-.09.27-.18.41-.27.06-.04.13-.08.19-.11.02-.01.07-.05.1-.05l-.06.03s.05-.02.07-.02c.01 0 .06 0 .07-.01.02 0 .04.02.04 0l.06.03c.06.03.12.07.18.1.14.08.28.15.44.18.28.06.5.01.76-.1.03-.01.05-.03.08-.05l15.34-3.55 3.89-.9c1.3-.3 2.49-.57 3.76-.72 2.13-.25 4.34-.09 6.18.89 1.84.98 3.34 2.69 4.14 4.71.06.15.16.28.28.37.04.04.09.09.14.12s.06.05.09.07h.01c.06.05.12.1.17.15l.18.18c.02.03.05.06.08.08l.01.02c.05.07.09.14.13.22v.01c0 .03.02.06.03.09l.02.06v.15c-.01.06-.03.12-.05.17-.02.03-.03.06-.05.09-.07.12-.14.24-.23.35-.17.25-.36.48-.5.75v.02c-.27.39-.53.73-.87 1.1Z"/><path class="cls-4" d="M55.84 114.4c.87 0 .88-1.36 0-1.36s-.88 1.36 0 1.36Z"/><path class="cls-17" d="M59.11 116.73c-.19-.92-.53-1.9-1.14-2.64-.49-.59-1.26-.92-2.02-1.03-.04 0-.08-.02-.11-.02h-.14c-1.7-.14-3.43-.18-5.13-.01h-.04c-.06 0-.12 0-.18.02h-.02c-.06 0-.11.02-.17.04-.58.11-1.11.38-1.56.8-.71.65-1.12 1.63-1.27 2.59-.18 1.1-.12 2.19.05 3.29.15.98.41 1.97.91 2.83.5.86 1.2 1.51 2.14 1.77.26.07.53.1.79.1 1.82.23 3.66.27 5.46-.08.02 0 .03-.01.04-.01h.04s.03-.01.04-.02c.95-.35 1.49-1.14 1.86-2.05.38-.92.56-1.81.64-2.75.08-.94 0-1.89-.19-2.81Z"/><path class="cls-6" d="M102.78 122.84s-.02.02-.04.03l-.02.02-.12.15c0 .01-.02.03-.02.04-.03.07-.07.14-.09.21 0 .02 0 .03-.01.05-.01.07-.03.15-.03.23 0 .1.01.19.03.28 0 .02 0 .03.01.05.02.07.05.14.09.21 0 .02.02.03.02.04.04.06.09.12.14.18.01.01.02.02.03.04.03.02.06.05.09.07.03.02.06.05.09.07.01 0 .03.02.04.02.06.03.12.05.18.07h.01c.03 0 .06.01.09.01.09.02.18.02.27-.01.03-.01.13-.05.17-.07h.01s.02 0 .02-.01c.06-.04.12-.09.18-.14.01-.01.02-.02.03-.04.05-.06.1-.12.14-.18 0-.01.02-.03.02-.05l.09-.21c.03-.09.04-.19.04-.28v-.06c0-.08-.02-.15-.03-.23-.02-.09-.06-.18-.1-.26 0-.02-.02-.03-.03-.05-.02-.03-.05-.06-.07-.09s-.05-.06-.07-.09a.138.138 0 0 0-.04-.03l-.15-.12h-.01l-.16-.07s-.07-.01-.1-.01-.08-.01-.12-.01h-.02c-.06 0-.14.02-.19.02h-.03c-.06.02-.13.05-.18.08-.14.07-.24.19-.33.32-.03.04-.05.09-.07.14-.05.13-.06.16-.07.31v.05c0 .06.02.13.02.19.01.08.05.15.09.22.04.08.1.14.17.19.07.06.14.1.23.12.09.03.18.03.27.01.09 0 .17-.03.25-.08l.14-.11a.69.69 0 0 0 .17-.3l.02-.18c0-.12-.03-.24-.09-.34v-.02l.07.16s0-.03-.01-.05l.02.18v-.05l-.02.18s0-.04.02-.05l-.07.16s.02-.04.04-.06l-.11.14.05-.05-.14.11s.03-.02.05-.03l-.16.07s.03-.01.05-.01l-.18.02h.05l-.18-.02-.16-.07s.02.01.02.02l-.14-.11.06.06-.11-.14s.03.05.04.07l-.07-.16.03.11-.02-.18v.12l.02-.18-.03.11.07-.16s-.03.06-.05.08l.11-.14-.06.06.14-.11s-.04.03-.06.04l.52-.07s-.02 0-.03-.01l.16.07s-.05-.02-.07-.04l.14.11-.06-.06.11.14s-.04-.06-.05-.09l.07.16-.03-.11.02.18v-.12l-.02.18s.01-.07.03-.1l-.07.16s.02-.05.04-.07l-.11.14s.03-.04.06-.06c.07-.06.11-.13.14-.22a.583.583 0 0 0 0-.52.518.518 0 0 0-.14-.22l-.14-.11a.692.692 0 0 0-.34-.09l-.18.02c-.12.03-.22.09-.3.17ZM103.73 131.18c-.07.02-.13.05-.2.08-.02 0-.03.02-.04.02-.06.04-.12.09-.17.13l-.04.04c-.05.05-.09.11-.13.17 0 .01-.02.03-.03.04-.03.06-.06.13-.09.2 0 .02-.01.03-.02.05s0 .03 0 .05c-.01.07-.03.15-.03.22v.05c0 .07.01.15.03.22.02.07.05.13.08.2 0 .01.01.03.02.04.04.06.08.11.13.17l.04.04c.05.05.11.09.17.13.01 0 .03.02.04.02.06.03.13.06.19.08.02 0 .03.01.05.01.04.01.09.01.13.02s.09.02.13.02h.04c.07 0 .15-.01.22-.03.02 0 .03 0 .05-.01.07-.02.14-.05.2-.09s.12-.08.17-.13c.01 0 .02-.02.03-.03.05-.05.09-.11.13-.17 0-.01.02-.03.02-.04.03-.06.06-.13.08-.19 0-.02 0-.03.01-.05l.03-.22v-.05c0-.07-.02-.15-.03-.22 0-.02 0-.03-.01-.05a.722.722 0 0 0-.09-.2c-.02-.04-.05-.07-.08-.11s-.05-.07-.08-.1l-.02-.02c-.05-.04-.1-.08-.16-.12l.31.41-.07-.17v-.02c-.02-.03-.05-.06-.06-.08a.614.614 0 0 0-.33-.25.487.487 0 0 0-.11-.04c-.03 0-.07 0-.1-.01s-.07 0-.1-.01h-.02s-.08.01-.1.01c-.02 0-.07 0-.1.02s-.07.03-.1.04a.26.26 0 0 0-.1.04h-.01c-.02.02-.05.04-.07.06-.02.02-.05.04-.07.05-.05.05-.09.1-.13.16-.02.03-.03.07-.05.11-.01.03-.03.07-.04.11 0 .03-.01.08-.01.1 0 .03-.01.07-.01.1v.02c0 .05.02.14.02.19 0 .04.03.07.04.11s.03.08.05.11c.04.08.1.14.17.19.07.06.14.1.23.12.09.03.18.03.27.01.09 0 .17-.03.25-.08l.14-.11a.69.69 0 0 0 .17-.3l.02-.18c0-.12-.03-.24-.09-.34 0 0-.01-.02-.02-.03l.07.16v-.03l.02.18v-.04l-.02.18s0-.03.01-.04l-.07.16s.01-.02.02-.03l-.11.14.02-.02-.14.11s.02-.01.03-.02l-.16.07h.03l-.18.02h.04l-.18-.02h.04l-.16-.07s.03.01.04.02l-.14-.11.02.02-.11-.14s.01.02.02.03l-.07-.16c.02.06.05.11.07.17.04.08.1.14.17.19.03.02.06.04.09.07l-.14-.11s.04.03.05.05l-.11-.14s.03.04.04.07l-.07-.16s.02.06.02.09l-.02-.18v.09l.02-.18s-.01.06-.02.09l.07-.16s-.02.04-.04.06l.11-.14s-.03.04-.05.05l.14-.11s-.04.03-.06.04l.16-.07s-.05.02-.08.02l.18-.02h-.1l.18.02s-.07-.01-.1-.03l.16.07s-.06-.03-.08-.05l.14.11-.06-.06.11.14s-.03-.04-.04-.06l.07.16s-.02-.05-.02-.07l.02.18v-.09l-.02.18s.01-.07.02-.1l-.07.16s.03-.06.05-.09l-.11.14s.04-.05.06-.07l-.14.11s.05-.03.07-.04l-.16.07s.02 0 .03-.01c.09-.02.17-.06.23-.12a.52.52 0 0 0 .17-.19c.05-.08.08-.16.08-.25.02-.09.02-.18-.01-.27l-.07-.16a.69.69 0 0 0-.24-.24l-.16-.07a.731.731 0 0 0-.36 0h.01ZM76.69 113.22c-.5-.03-.99-.03-1.49-.02-.53 0-1.05 0-1.54.24-.42.2-.77.58-.89 1.04-.1.4-.06.82-.04 1.23.12 2.26.28 4.52.47 6.78.11 1.28.22 2.57.34 3.85.03.36.29.68.68.68.34 0 .71-.31.68-.68-.19-2.08-.37-4.16-.52-6.24-.08-1.06-.15-2.11-.21-3.17-.03-.5-.06-1-.08-1.49 0-.15-.02-.3-.01-.46 0-.05 0-.1.01-.15 0 .02-.01.08 0 0 0-.03.02-.07.03-.1-.03.08-.04.05-.01.05.06 0 .09-.09.15-.12.03-.01.1-.05.19-.07.19-.05.43-.03.66-.03.53-.01 1.06 0 1.59.02.37.02.68-.33.68-.68 0-.38-.31-.66-.68-.68ZM79.39 114.57c.33 0 .67 0 1-.01.3 0 .7-.05.95 0 .31.05.43.19.49.51.08.44.08.92.12 1.37.17 2.03.34 4.06.49 6.1.08 1.16.16 2.31.23 3.47.02.37.3.68.68.68.35 0 .7-.31.68-.68-.13-2.21-.3-4.42-.48-6.63l-.27-3.32c-.08-1-.07-2.17-1.14-2.65-.51-.23-1.03-.21-1.57-.19-.39 0-.79 0-1.18.02-.87.01-.88 1.37 0 1.36ZM73.72 128.98c.22 2.51.43 5.01.65 7.52l.33 3.76c.08.92.09 2.05.87 2.7.87.72 2.25.5 3.28.44.37-.02.68-.3.68-.68 0-.35-.31-.7-.68-.68-.45.02-.91.05-1.37.05-.19 0-.38 0-.56-.01.12.01 0 0-.02 0l-.15-.03c-.07-.02-.2-.06-.22-.07-.07-.03-.08-.03-.15-.12.04.05-.08-.16-.09-.18a1.86 1.86 0 0 1-.12-.33c-.11-.46-.11-.96-.15-1.43l-.6-6.96c-.12-1.33-.23-2.65-.35-3.98-.03-.36-.29-.68-.68-.68-.34 0-.71.31-.68.68ZM81.61 143.47c.8-.02 1.77.11 2.5-.29.95-.52 1.09-1.64 1.05-2.62-.11-2.51-.33-5.02-.54-7.53-.12-1.48-.24-2.96-.35-4.43-.02-.37-.29-.68-.68-.68-.35 0-.7.31-.68.68.17 2.42.39 4.83.58 7.25.09 1.18.18 2.35.25 3.53.03.53.07 1.06.07 1.6 0 .22-.01.37-.05.55-.05.21-.09.28-.21.41-.01.01-.12.1-.03.03s-.02 0-.04.02c-.02.01-.05.02-.07.04-.1.07.12-.02 0 0-.06 0-.13.03-.2.05-.02 0-.13.02-.03 0 .11-.01-.06 0-.07 0-.5.03-1.01.02-1.51.03-.87.02-.88 1.38 0 1.36ZM92.19 113.31c-.5-.03-.99-.03-1.49-.02-.53 0-1.05 0-1.54.24-.42.2-.77.58-.89 1.04-.1.4-.06.82-.04 1.23.12 2.26.28 4.52.47 6.78.11 1.28.22 2.57.34 3.85.03.36.29.68.68.68.34 0 .71-.31.68-.68-.19-2.08-.37-4.16-.52-6.24-.08-1.06-.15-2.11-.21-3.17-.03-.5-.06-1-.08-1.49 0-.15-.02-.3-.01-.46 0-.05 0-.1.01-.15 0 .02-.01.08 0 0 0-.03.02-.07.03-.1-.03.08-.04.05-.01.05.06 0 .09-.09.15-.12.03-.01.1-.05.19-.07.19-.05.43-.03.66-.03.53-.01 1.06 0 1.59.02.37.02.68-.33.68-.68 0-.38-.31-.66-.68-.68ZM94.89 114.66c.33 0 .67 0 1-.01.3 0 .7-.05.95 0 .31.05.43.19.49.51.08.44.08.92.12 1.37.17 2.03.34 4.06.49 6.1.08 1.16.16 2.31.23 3.47.02.37.3.68.68.68.35 0 .7-.31.68-.68-.13-2.21-.3-4.42-.48-6.63l-.27-3.32c-.08-1-.07-2.17-1.14-2.65-.51-.23-1.03-.21-1.57-.19-.39 0-.79 0-1.18.02-.87.01-.88 1.37 0 1.36ZM89.21 129.07c.22 2.51.43 5.01.65 7.52l.33 3.76c.08.92.09 2.05.87 2.7.87.72 2.25.5 3.28.44.37-.02.68-.3.68-.68 0-.35-.31-.7-.68-.68-.45.02-.91.05-1.37.05-.19 0-.38 0-.56-.01.12.01 0 0-.02 0l-.15-.03c-.07-.02-.2-.06-.22-.07-.07-.03-.08-.03-.15-.12.04.05-.08-.16-.09-.18a1.86 1.86 0 0 1-.12-.33c-.11-.46-.11-.96-.15-1.43l-.6-6.96c-.12-1.33-.23-2.65-.35-3.98-.03-.36-.29-.68-.68-.68-.34 0-.71.31-.68.68ZM97.11 143.56c.8-.02 1.77.11 2.5-.29.95-.52 1.09-1.64 1.05-2.62-.11-2.51-.33-5.02-.54-7.53-.12-1.48-.24-2.96-.35-4.43-.02-.37-.29-.68-.68-.68-.35 0-.7.31-.68.68.17 2.42.39 4.83.58 7.25.09 1.18.18 2.35.25 3.53.03.53.07 1.06.07 1.6 0 .22-.01.37-.05.55-.05.21-.09.28-.21.41-.01.01-.12.1-.03.03s-.02 0-.04.02c-.02.01-.05.02-.07.04-.1.07.12-.02 0 0-.06 0-.13.03-.2.05-.02 0-.13.02-.03 0 .11-.01-.06 0-.07 0-.5.03-1.01.02-1.51.03-.87.02-.88 1.38 0 1.36ZM110.99 113.22c-.5-.03-.99-.03-1.49-.02-.53 0-1.05 0-1.54.24-.42.2-.77.58-.89 1.04-.1.4-.06.82-.04 1.23.12 2.26.28 4.52.47 6.78.11 1.28.22 2.57.34 3.85.03.36.29.68.68.68.34 0 .71-.31.68-.68-.19-2.08-.37-4.16-.52-6.24-.08-1.06-.15-2.11-.21-3.17-.03-.5-.06-1-.08-1.49 0-.15-.02-.3-.01-.46 0-.05 0-.1.01-.15 0 .02-.01.08 0 0 0-.03.02-.07.03-.1-.03.08-.04.05-.01.05.06 0 .09-.09.15-.12.03-.01.1-.05.19-.07.19-.05.43-.03.66-.03.53-.01 1.06 0 1.59.02.37.02.68-.33.68-.68 0-.38-.31-.66-.68-.68ZM113.69 114.57c.33 0 .67 0 1-.01.3 0 .7-.05.95 0 .31.05.43.19.49.51.08.44.08.92.12 1.37.17 2.03.34 4.06.49 6.1.08 1.16.16 2.31.23 3.47.02.37.3.68.68.68.35 0 .7-.31.68-.68-.13-2.21-.3-4.42-.48-6.63l-.27-3.32c-.08-1-.07-2.17-1.14-2.65-.51-.23-1.03-.21-1.57-.19-.39 0-.79 0-1.18.02-.87.01-.88 1.37 0 1.36ZM108.01 128.98c.22 2.51.43 5.01.65 7.52l.33 3.76c.08.92.09 2.05.87 2.7.87.72 2.25.5 3.28.44.37-.02.68-.3.68-.68 0-.35-.31-.7-.68-.68-.45.02-.91.05-1.37.05-.19 0-.38 0-.56-.01.12.01 0 0-.02 0l-.15-.03c-.07-.02-.2-.06-.22-.07-.07-.03-.08-.03-.15-.12.04.05-.08-.16-.09-.18a1.86 1.86 0 0 1-.12-.33c-.11-.46-.11-.96-.15-1.43l-.6-6.96c-.12-1.33-.23-2.65-.35-3.98-.03-.36-.29-.68-.68-.68-.34 0-.71.31-.68.68ZM115.91 143.47c.8-.02 1.77.11 2.5-.29.95-.52 1.09-1.64 1.05-2.62-.11-2.51-.33-5.02-.54-7.53-.12-1.48-.24-2.96-.35-4.43-.02-.37-.29-.68-.68-.68-.35 0-.7.31-.68.68.17 2.42.39 4.83.58 7.25.09 1.18.18 2.35.25 3.53.03.53.07 1.06.07 1.6 0 .22-.01.37-.05.55-.05.21-.09.28-.21.41-.01.01-.12.1-.03.03s-.02 0-.04.02c-.02.01-.05.02-.07.04-.1.07.12-.02 0 0-.06 0-.13.03-.2.05-.02 0-.13.02-.03 0 .11-.01-.06 0-.07 0-.5.03-1.01.02-1.51.03-.87.02-.88 1.38 0 1.36ZM126.22 113.34c-.5-.03-.99-.03-1.49-.02-.53 0-1.05 0-1.54.24-.42.2-.77.58-.89 1.04-.1.4-.06.82-.04 1.23.12 2.26.28 4.52.47 6.78.11 1.28.22 2.57.34 3.85.03.36.29.68.68.68.34 0 .71-.31.68-.68-.19-2.08-.37-4.16-.52-6.24-.08-1.06-.15-2.11-.21-3.17-.03-.5-.06-1-.08-1.49 0-.15-.02-.3-.01-.46 0-.05 0-.1.01-.15 0 .02-.01.08 0 0 0-.03.02-.07.03-.1-.03.08-.04.05-.01.05.06 0 .09-.09.15-.12.03-.01.1-.05.19-.07.19-.05.43-.03.66-.03.53-.01 1.06 0 1.59.02.37.02.68-.33.68-.68 0-.38-.31-.66-.68-.68ZM128.92 114.69c.33 0 .67 0 1-.01.3 0 .7-.05.95 0 .31.05.43.19.49.51.08.44.08.92.12 1.37.17 2.03.34 4.06.49 6.1.08 1.16.16 2.31.23 3.47.02.37.3.68.68.68.35 0 .7-.31.68-.68-.13-2.21-.3-4.42-.48-6.63l-.27-3.32c-.08-1-.07-2.17-1.14-2.65-.51-.23-1.03-.21-1.57-.19-.39 0-.79 0-1.18.02-.87.01-.88 1.37 0 1.36ZM123.24 129.1c.22 2.51.43 5.01.65 7.52l.33 3.76c.08.92.09 2.05.87 2.7.87.72 2.25.5 3.28.44.37-.02.68-.3.68-.68 0-.35-.31-.7-.68-.68-.45.02-.91.05-1.37.05-.19 0-.38 0-.56-.01.12.01 0 0-.02 0l-.15-.03c-.07-.02-.2-.06-.22-.07-.07-.03-.08-.03-.15-.12.04.05-.08-.16-.09-.18a1.86 1.86 0 0 1-.12-.33c-.11-.46-.11-.96-.15-1.43l-.6-6.96c-.12-1.33-.23-2.65-.35-3.98-.03-.36-.29-.68-.68-.68-.34 0-.71.31-.68.68ZM131.14 143.59c.8-.02 1.77.11 2.5-.29.95-.52 1.09-1.64 1.05-2.62-.11-2.51-.33-5.02-.54-7.53-.12-1.48-.24-2.96-.35-4.43-.02-.37-.29-.68-.68-.68-.35 0-.7.31-.68.68.17 2.42.39 4.83.58 7.25.09 1.18.18 2.35.25 3.53.03.53.07 1.06.07 1.6 0 .22-.01.37-.05.55-.05.21-.09.28-.21.41-.01.01-.12.1-.03.03s-.02 0-.04.02c-.02.01-.05.02-.07.04-.1.07.12-.02 0 0-.06 0-.13.03-.2.05-.02 0-.13.02-.03 0 .11-.01-.06 0-.07 0-.5.03-1.01.02-1.51.03-.87.02-.88 1.38 0 1.36Z"/><path class="cls-19" d="M48.48 20.69v-.16c0-.09-.02-.18-.06-.26a.518.518 0 0 0-.14-.22.464.464 0 0 0-.22-.14.583.583 0 0 0-.26-.06l-.18.02c-.12.03-.22.09-.3.17l-.11.14c-.06.11-.09.22-.09.34v.16c0 .09.02.18.06.26.03.08.07.16.14.22.06.07.13.11.22.14.08.04.17.06.26.06l.18-.02c.12-.03.22-.09.3-.17l.11-.14c.06-.11.09-.22.09-.34ZM55.29 19.78c.87 0 .88-1.36 0-1.36s-.88 1.36 0 1.36ZM52.48 26.02c-.27-.05-.53-.11-.8-.18-.12-.03-.24-.06-.35-.09-.07-.02-.15-.05-.22-.06-.11 0 .08.06-.01 0l.24.24.03.05v.36c.12-.73.29-1.44.37-2.17s.13-1.41.13-2.12c0-.37-.31-.68-.68-.68s-.68.31-.68.68c0 1.05-.1 2.1-.29 3.12-.11.58-.43 1.37.24 1.72.24.13.54.18.81.24.28.07.56.13.84.19.36.07.73-.1.84-.48.09-.34-.11-.76-.48-.84ZM53.09 30.02c1.09.24 2.23 0 3.12-.69s1.35-1.67 1.41-2.74c.02-.36-.33-.69-.68-.68-.39.02-.66.3-.68.68 0 .06 0 .11-.01.17 0-.06.01-.09 0-.01-.02.1-.04.2-.07.31-.02.09-.06.18-.09.27-.02.08.05-.1 0 .02-.02.05-.05.1-.08.15-.05.08-.09.17-.14.24-.02.04-.05.08-.08.12-.04.07.07-.07-.02.02-.06.07-.12.14-.19.21l-.12.12c-.01.01-.13.11-.06.06l-.07.05c-.04.03-.08.05-.12.08-.08.05-.17.1-.26.14-.05.02-.12.05-.03.02a3.25 3.25 0 0 1-.46.14c-.05.01-.1.02-.14.03-.06.01-.12.02-.02 0-.1 0-.2.02-.3.02-.11 0-.22 0-.33-.01-.03 0-.16-.03-.02 0-.06-.01-.12-.02-.17-.03-.35-.07-.75.1-.84.48-.08.34.1.75.48.84Z"/><path class="cls-2" d="M112.31 46.73c-4.04-1.22-8.08-2.45-12.15-3.55-4.08-1.1-7.79-1.97-11.74-2.67-2.38-.42-4.78-.76-7.19-1.03h-.03c-.54-.03-1.09-.03-1.64 0-2.75-.73-5.56-1.21-8.26-2.12a.746.746 0 0 0-.18-.63c-.28-.28-.68-.24-.96 0-1.7 1.41-3.8 2.01-5.91 2.51-2.24.53-4.51.9-6.79 1.11-1.3.12-2.61.18-3.91.19-.87 0-.88 1.36 0 1.36 2.42-.02 4.83-.22 7.22-.59 1.2-.19 2.39-.41 3.58-.69 1.18-.27 2.27-.55 3.36-.96.87-.33 1.69-.75 2.46-1.26 2.13.8 4.34 1.28 6.55 1.79a6.31 6.31 0 0 0-2.24 1.8c-.23.29-.28.68 0 .96.24.24.73.29.96 0 .68-.86 1.51-1.48 2.51-1.8 1.08-.34 2.14-.37 3.29-.31 4.09.46 8.15 1.15 12.16 2.06s7.79 1.95 11.64 3.07c2.31.68 4.62 1.38 6.92 2.07.84.25 1.2-1.06.36-1.31Z"/><path class="cls-16" d="M198.65 79.88c-.11-.39-.47-.53-.84-.48-.36.05-.71.1-1.07.16l-13.4-5.48s-24.16 3.13-28.54 3.57c-3.65.37-16.07 2.1-20.14 2.67-.35-.15-.7-.29-1.05-.44-.34-.14-.73-.1-.93.24-.17.29-.1.78.24.93 3.83 1.65 7.69 3.23 11.57 4.78l3.24 1.29c.13.05.27.04.39 0h.19c6.46-.93 12.95-1.73 19.43-2.5 6.45-.77 12.89-1.51 19.33-2.34 3.7-.48 7.39-.98 11.08-1.53.36-.05.56-.51.48-.84Z"/><path class="cls-17" d="M198.65 79.91v-.02a840.9 840.9 0 0 0-3.39-20.59 1321.2 1321.2 0 0 0-3.8-20.53c-.73-3.82-1.48-7.64-2.23-11.45-.05-.27-.31-.45-.57-.49a.69.69 0 0 0-.15-.07c-3.88-1.55-7.75-3.12-11.58-4.77-.34-.14-.73-.1-.93.24-.17.29-.1.78.24.93.21.09.41.17.62.26l6.4 49.99c-.2.02-.39.11-.5.32-.17.29-.1.78.24.93 3.83 1.65 7.69 3.23 11.57 4.78l3.24 1.29c.15.06.32.03.46-.04.1-.05.19-.12.25-.2.06-.07.1-.15.13-.24.03-.12.03-.24 0-.34Z"/><path class="cls-19" d="M144.5 9.74v-.01.01zM175.72 19.09a34.63 34.63 0 0 1-8.37-4.8.99.99 0 0 0-.17-.11c-.17-.45-.34-.9-.52-1.34a.612.612 0 0 0-.05-.12 72.724 72.724 0 0 0-4.35-9.08c-.27-.47-.57-.94-1.04-1.24-.5-.33-1.08-.38-1.62-.16-.04-.02-.08-.04-.13-.08-.12-.09-.25-.26-.34-.38-.26-.37-.48-.77-.8-1.1-.35-.36-.8-.62-1.31-.65s-.99.26-1.49.4c-1 .29-2.06.28-3.08.38-1.03.1-1.99.29-2.88.77-.02.01-.04.03-.06.04-.06 0-.12 0-.17.03-3.1 1.03-5.29 3.89-6.01 7.02-.17.77-.32 1.63-.23 2.42v.04c.13 1.82 1.26 3.28 2.61 4.41.36.3.73.58 1.1.86.35.26.7.53 1.1.72.59.28 1.25.4 1.89.34.54.48 1.05 1 1.59 1.49.71.65 1.4 1.17 2.19 1.62 1.53.86 3.26 1.35 5.02 1.45.21.01.43.02.65.01l3.61 2.86c.28.22.69.29.96 0 .23-.25.3-.72 0-.96l-2.62-2.08c.14-.02.28-.05.41-.08.36-.08.57-.5.48-.84-.1-.37-.48-.55-.84-.48-3.08.67-6.4-.23-8.74-2.34-.29-.26-.57-.53-.85-.8 1.02.05 2.05-.25 2.45-1.22.06.03.12.06.19.08.75.31 1.47.49 2.24.67.69.16 1.27.51 1.87.89.64.4 1.25.84 1.81 1.34.27.24.69.27.96 0 .25-.25.27-.72 0-.96-.93-.84-2-1.57-3.11-2.15-.66-.34-1.35-.45-2.06-.63s-1.31-.43-1.94-.73c-.62-.3-1.28-.66-1.9-1.03-.51-.3-1.07-.59-1.5-.97-.19-.17-.35-.33-.47-.52s-.17-.35-.14-.6c-.01.12.08-.24.03-.13.03-.06.06-.12.1-.18 0 0 .05-.06.04-.05.13-.16.23-.23.38-.31.02 0 .04-.02.05-.03.03-.01.05-.03.08-.04.15-.08.47-.18.73-.21H151.87c.21 0 .43.02.64.04.82.08 1.6.19 2.41.09h.03c.4 0 .8-.01 1.2 0 .15 0 .29 0 .44.02.06 0 .13 0 .19.01.03 0 .14.02.16.02.03 0 .06.01.08.01l.16.03c.11.03.22.06.32.09.12.04.23.08.35.13.02 0 .04.01.05.02 0 0 .01 0 .04.02.08.04.16.07.24.11.82.37 1.63.83 2.49 1.1.51.16 1.05.21 1.58.22h1.28c.7.12 1.41.48 1.9.96.24.62.48 1.23.7 1.86.12.34.46.58.84.48.02 0 .03-.01.04-.02 2.57 1.91 5.37 3.48 8.35 4.68.34.14.75-.15.84-.48.11-.39-.13-.7-.48-.84Zm-29.12-4.6c-1.02-.86-2.03-1.98-2.13-3.38v-.04c-.04-.3-.02-.61 0-.91 0-.14.02-.28.04-.42v-.02.01c0-.04.01-.07.02-.11l.06-.33c.13-.67.34-1.37.61-1.97.48-1.07 1.13-2.04 1.97-2.84-.73 1.46-1.26 3.03-1.54 4.64-.24 1.39-.52 3.2.33 4.41.03.09.09.17.17.25.61.58 1.21 1.21 1.86 1.77-.48-.32-.94-.7-1.38-1.07Zm3.96-7.88c-.35 1.04-.66 2.09-.83 3.17-.3.2-.56.45-.74.77-.36.62-.36 1.37-.06 2.01.3.65.84 1.08 1.38 1.46s1.2.73 1.8 1.08c.25.14.51.28.77.41-.02.08-.02.08-.08.15-.09.1-.12.11-.24.17-.16.08-.42.14-.65.15-.62.02-1.21-.18-1.74-.48-1.05-.6-1.92-1.52-2.79-2.37a.572.572 0 0 0-.16-.15c-.05-.04-.09-.09-.14-.13-.1-.13-.19-.3-.24-.46-.1-.32-.12-.57-.12-.93 0-.79.1-1.59.26-2.36.28-1.45.77-2.84 1.44-4.14.05-.05.09-.1.13-.17.42-.77.82-1.53 1.57-1.98s1.58-.59 2.4-.66c1.02-.1 2.06-.11 3.06-.35.24-.05.47-.12.69-.21.2-.07.41-.19.62-.22.11-.02.19.02.3.1.07.05.24.24.32.34.1.14.2.28.29.43-.26-.02-.51-.03-.76-.04-.93-.04-1.81-.05-2.71.01-.62.05-1.26.14-1.77.5-.48.35-.81.84-1.05 1.38-.37.82-.68 1.67-.97 2.53Zm13.83 4.65c-.92-.31-1.88-.1-2.82-.24-.94-.14-1.74-.66-2.57-1.03-.53-.24-1.07-.49-1.64-.6a8.65 8.65 0 0 0-.89-.1c.11-.32.21-.64.28-.97.5.1 1 .16 1.51.15.36 0 .69-.31.68-.68-.02-.37-.3-.69-.68-.68h-.49c-.08 0-.17-.01-.25-.02-.04 0-.09-.01-.13-.01-.33-.05-.66-.13-.98-.24-.32-.11-.79.12-.84.48-.1.68-.28 1.35-.54 1.99H154.91c-.05 0-.1 0-.14.01-.78.13-1.58-.06-2.36-.12-.4-.03-.8-.03-1.2.02.03-.12.06-.23.08-.35.12-.48.26-.96.42-1.44.26-.79.54-1.57.85-2.34.14-.34.31-.76.53-1.03.29-.36.72-.45 1.19-.49.82-.07 1.66-.06 2.48-.03.98.03 1.82.07 2.7.31.4.11.68-.1.8-.39.04 0 .1.02.11.02.14.06.25.17.35.29.26.31.44.72.64 1.07.45.81.88 1.62 1.3 2.44.68 1.33 1.31 2.69 1.9 4.06-.06-.02-.12-.05-.19-.07Z"/><path class="cls-16" d="M157.05 10.85c2.07 1 3.65 2.25 5.21 3.92.39.41.76.84 1.11 1.29.05.06.09.12.14.18.11.14.05.06.02.03l.27.36c.18.24.35.49.52.74.64.94 1.21 1.93 1.71 2.95.14.28.27.56.39.85.03.07.06.14.09.2.08.17-.03-.08.05.11.06.14.11.27.17.41.23.6.44 1.2.62 1.81.14.45.64.79 1.11.63s.78-.63.63-1.11c-1.34-4.52-4.06-8.81-7.77-11.76-1.05-.83-2.16-1.57-3.36-2.15-.43-.21-1-.13-1.24.33-.22.41-.13 1.02.33 1.24Z"/><path d="M184.03 74.08v-.03c0-.04 0-.07-.01-.11-.77-6.68-1.58-13.35-2.43-20.02-.86-6.74-1.77-13.47-2.71-20.2-.53-3.75-1.07-7.5-1.62-11.25-.04-.25-.27-.43-.52-.48a.823.823 0 0 0-.52-.07c-3.32.52-6.65 1.05-9.97 1.59-.4.06-.8.13-1.2.2-.25-2.29-.8-4.56-1.53-6.74-.77-2.29-1.72-4.76-3.52-6.44-1.16-1.08-2.57-1.66-4.14-1.82-.47-.05-.93.45-.91.91.02.53.4.86.91.91s.1.01.16.02c.04 0 .21.03.19.03.13.02.26.05.39.08a6.447 6.447 0 0 1 .66.21c.03.01.06.02.07.03.02 0 .04.02.07.04.24.11.47.24.69.39l.18.12c.02.01.07.05.09.07.1.08.2.16.29.25a7.007 7.007 0 0 1 .81.88c0 .01.01.02.02.03l.15.21c.32.46.6.94.86 1.44.12.24.23.48.34.72.05.11.1.22.14.32v.02l.02.04c.03.08.07.16.1.24.22.53.41 1.07.6 1.62.39 1.14.72 2.31.99 3.48.15.65.28 1.31.39 1.97.03.18.06.36.08.55v.03l.03.27c.02.15.03.29.05.44-1.7.28-3.4.57-5.09.86-2.44.42-4.88.86-7.32 1.32-1.9.36-3.8.72-5.7 1.1-.04-1.4-.04-2.79.03-4.19.02-.44.05-.87.09-1.31l.06-.63c.01-.1.02-.21.04-.31 0-.05.01-.11.02-.17v-.04c.12-.86.29-1.7.52-2.54.12-.43.26-.86.42-1.28.01-.03.07-.17.08-.2.04-.1.09-.19.13-.29.1-.2.2-.41.31-.6.23-.41.12-1-.33-1.24-.44-.23-1-.12-1.24.33-.84 1.53-1.31 3.23-1.58 4.95-.29 1.83-.39 3.68-.4 5.53 0 .78.02 1.57.04 2.35-.11.02-.23.04-.34.07-3.2.64-6.39 1.28-9.59 1.94-.4.08-.81.16-1.21.25-.08 0-.16.02-.23.05-.34.1-.53.5-.44.82 0 .01 0 .02.01.04a426.566 426.566 0 0 0 .32 38.72c.19 3.65.44 7.3.72 10.95v.02c0 .05 0 .11.02.15.04.16.14.28.25.36.11.09.24.14.4.14.05 0 .11 0 .16-.02h.02c6.5-.93 13.02-1.73 19.54-2.5s12.97-1.51 19.44-2.35c3.65-.47 7.3-.97 10.94-1.51.03 0 .07 0 .1-.01h.04c.15-.02.27-.12.36-.24.1-.12.16-.26.14-.41Zm-20.85-50.79s.02.11 0 0Z" style="fill:#fbae5e"/><path class="cls-19" d="M64.84 17.28c.11-.38.26-.73.46-1.06.17-.29.41-.65.67-.83.03-.02.14-.05.09-.05-.07 0-.01 0 .03.03.08.06.19.17.26.28.21.31.32.65.41 1.02.19.81.27 1.68.32 2.52.03.43.04.88-.03 1.31-.03.18-.06.38-.13.56.03-.07-.05.09-.06.11-.05.09-.04.04.05.01-.08.02-.16.05-.24.06-.04 0-.08.02-.12.02h-.08s.05 0 0 0h-.11a9.965 9.965 0 0 1-1.61-.44c-.34-.13-.74.14-.84.48-.1.38.13.71.48.84.89.33 1.92.66 2.86.36 1.15-.37 1.24-1.94 1.21-2.95-.01-.6-.09-1.19-.16-1.79-.06-.53-.12-1.07-.25-1.59-.26-1-1-2.4-2.25-2.16-.64.12-1.09.7-1.44 1.2s-.63 1.1-.81 1.71c-.24.84 1.07 1.2 1.31.36Z"/><path class="cls-6" d="m122.68 83.24 6.38-.04c.87 0 .88-1.36 0-1.36l-6.38.04c-.87 0-.88 1.36 0 1.36ZM122.98 86.94l6.38-.04c.87 0 .88-1.36 0-1.36l-6.38.04c-.87 0-.88 1.36 0 1.36Z"/><g id="Layer_6"><path class="cls-1" d="M168.35 74.82c-.7-3.28-.7-3.97-.7-3.97-.01-.22.08-.42.23-.55.86-.75 1.34-1.9 1.2-3.12V67.03c-.7-4.44-1.38-9.51-1.62-13.55v-.05a.665.665 0 0 0-.75-.57c-.35.05-.6.36-.58.7.16 2.77.53 6.02.97 9.23.06.43-.25.83-.68.88a.789.789 0 0 1-.89-.67c-.44-3.19-.81-6.42-.97-9.18v-.05a.665.665 0 0 0-.75-.57c-.35.05-.6.36-.58.7.16 2.78.54 6.06.98 9.28.06.43-.24.83-.68.89s-.83-.24-.89-.68c-.44-3.2-.81-6.46-.98-9.23v-.05a.665.665 0 0 0-.75-.57c-.35.05-.6.36-.58.7.24 4.16.96 9.42 1.67 13.96a3.582 3.582 0 0 0 2.08 2.67c.21.09.36.29.4.52.01.07.03.15.04.22.36 2.13.73 4.17.98 5.5.95-.11 1.91-.22 2.84-.33l.47-.06c-.11-.5-.26-1.14-.43-1.91Z"/><path class="cls-1" d="m153.96 60.89-3.38-.24c-.51-.07-.92-.47-.99-1-.02-.17 0-.34.05-.5.17-.66 5.11-12.91 15.72-21.35.43-.37.97-.62 1.58-.69.61-.07 1.19.04 1.7.3 2.66 1.24 5.11 2.71 7.31 4.26s.02 0 .03 0c.02 0 .04-.02.04-.05l-.14-1.15c-.05-.39.23-.74.62-.79h3.19c-.43-3.09-.74-5.38-.74-5.38l-30.6 2.77s-5.14 22.42-5.18 22.41 14.03 18.57 14.03 18.57l.97-.11c-1.21-4.02-3.17-15.66-3.26-16.21-.1-.46-.48-.8-.94-.86ZM177.43 51.28c-.05-.22-.1-.31-.1-.31a.709.709 0 0 0-.7-.37c-.15.02-.29.08-.39.18 0 0-.08.06-.19.21 0 0-3.83 4.98-3.18 18.34 0 0 0 .19.07.35.11.26.35.46.72.48l2.31.04c.21 0 .38.14.4.34 0 0 .14 1.85.19 5.19 1.19-.16 2.33-.31 3.32-.45-.09-1.46-.25-4.13-.49-7.22-.43-5.55-1.08-12.66-1.96-16.78Z"/><path class="cls-6" d="M164.45 71.4a.698.698 0 0 0-.4-.52 3.626 3.626 0 0 1-2.08-2.67c-.72-4.54-1.43-9.81-1.67-13.96a.668.668 0 0 1 1.33-.13v.05c.17 2.77.54 6.02.98 9.23.06.43.46.74.89.68.43-.06.74-.46.68-.89-.44-3.22-.82-6.5-.98-9.28a.668.668 0 0 1 1.33-.13v.05c.16 2.76.53 5.99.97 9.18.06.43.46.74.89.68.43-.06.73-.45.68-.88-.44-3.21-.81-6.47-.97-9.23a.668.668 0 0 1 1.33-.13v.05c.24 4.04.92 9.11 1.62 13.55v.04s.01.05.02.07 0 .03 0 .05c.14 1.22-.34 2.37-1.2 3.12-.15.14-.24.33-.23.55 0 0 0 .69.7 3.97.17.77.31 1.41.43 1.91 2.18-.26 5.12-.65 7.78-1.01-.05-3.35-.19-5.19-.19-5.19-.02-.2-.19-.33-.4-.34l-2.31-.04c-.37-.02-.61-.22-.72-.48-.07-.16-.07-.35-.07-.35-.65-13.35 3.18-18.34 3.18-18.34.11-.15.19-.21.19-.21.11-.1.24-.16.39-.18.3-.04.57.12.7.37 0 0 .05.09.1.31.87 4.12 1.53 11.22 1.96 16.78.24 3.1.41 5.76.49 7.22 2.05-.28 3.48-.48 3.48-.48s.73-.16.61-1.36-1.59-14.31-2.07-17.77c-.31-2.23-1.44-10.41-2.21-15.98h-3.19c-.39.05-.66.4-.62.79l.14 1.15s-.01.04-.04.05h-.03c-2.2-1.55-4.65-3.02-7.31-4.26-.51-.26-1.09-.38-1.7-.3-.61.07-1.15.32-1.58.69-10.62 8.44-15.55 20.69-15.72 21.35-.05.16-.07.32-.05.5.06.53.48.93.99 1l3.38.24c.45.07.84.41.94.86.09.55 2.05 12.19 3.26 16.21 1.45-.16 4.33-.49 7.31-.84-.25-1.33-.62-3.37-.98-5.5-.01-.07-.03-.15-.04-.22ZM81.45 86.73c-.04-.1-.62-1.05-1.65-2.23s-.05-.06-.05-.1c-.17-1.27-.39-2.11-.39-2.11a.364.364 0 0 0-.31-.26l-1.03-.08h-.03c-.12 0-.21.11-.21.23l.02.36s0 .01-.01.01c-.64-.52-1.35-1.03-2.13-1.46a.884.884 0 0 0-.51-.13c-.19 0-.36.07-.5.18-3.43 2.33-5.21 5.96-5.28 6.15s-.03.1-.03.15c0 .16.12.29.28.33l1.02.15c.14.03.24.14.27.29.02.18.39 4.17.67 5.2.05.15.19.25.35.24.59-.04 1.13-.07 1.72-.11h.05c.06 0 .11-.06.11-.12-.04-.35-.13-1.15-.21-1.99v-.07c0-.07-.05-.14-.11-.17a1.08 1.08 0 0 1-.57-.86c-.12-1.4-.22-3.02-.19-4.3 0-.11.08-.19.19-.2.11 0 .21.08.22.19v.02c-.01.85.03 1.85.09 2.84 0 .13.12.24.26.23s.24-.12.23-.26c-.06-.99-.1-2-.09-2.85 0-.11.08-.19.19-.2.11 0 .21.08.22.19v.02c-.01.84.03 1.84.09 2.82 0 .13.12.24.26.23s.23-.12.23-.26c-.06-.99-.1-1.99-.09-2.84 0-.11.08-.19.19-.2.11 0 .21.08.22.19v.02c-.02 1.24.07 2.8.19 4.17s0 .03 0 .03c.02.39-.16.73-.43.94-.05.04-.08.1-.08.16 0 0-.02.21.12 1.23.06.44.11.75.13.89 0 .05.05.09.11.09h.1c.19 0 .4-.02.61-.03h.08c.26-.02.52-.03.76-.04l.58-.02c.05 0 .1-.05.1-.1.08-1.23.08-1.92.08-1.92 0-.06-.05-.11-.12-.11l-.7-.07a.242.242 0 0 1-.21-.16c-.02-.05-.01-.11-.01-.11.1-4.09 1.39-5.52 1.39-5.52l.06-.06c.03-.03.08-.05.12-.05.09 0 .17.05.21.13 0 0 .01.03.02.1.17 1.28.21 3.46.22 5.16 0 1.45-.02 2.58-.02 2.58s.04.08.09.08l1.16-.03c.16 0 .29-.12.33-.28.19-1.05.21-5.06.21-5.24 0-.14.11-.26.24-.31l1.01-.24c.15-.05.26-.19.25-.35 0-.05-.02-.1-.04-.15Z"/></g></g><g id="Outline"><path class="cls-6" d="M129.27 69.82s-.62-.09-1.79-.14c-1.17-.05-2.91-.1-5.14-.15-4.46-.1-10.92-.21-18.9-.32-7.98-.09-17.48-.2-28.03-.32-1.32-.01-2.66-.02-4.01-.04-1.36 0-2.75.02-4.16.17-1.41.16-2.84.44-4.22 1.02-1.37.58-2.66 1.49-3.61 2.72-.5.59-.86 1.28-1.19 1.98-.29.71-.55 1.44-.7 2.19-.34 1.49-.42 3.02-.4 4.53.02 1.51.16 3.02.31 4.52.14 1.49.29 3 .44 4.51 1.13 12.11 1.96 23.68 2.79 34.2.81 10.52 1.64 19.99 2.5 27.93.84 7.94 1.83 14.35 2.9 18.7.54 2.17 1.1 3.84 1.67 4.89.28.53.57.89.81 1.09.11.11.22.16.29.19.07.03.11.04.11.03.03-.04-.55-.33-1-1.43-.48-1.05-.97-2.71-1.43-4.89-.92-4.35-1.77-10.75-2.51-18.68-.74-7.94-1.48-17.41-2.24-27.93-.76-10.52-1.56-22.1-2.69-34.23-.15-1.52-.29-3.02-.44-4.52-.15-1.5-.29-2.96-.31-4.41-.02-1.45.05-2.89.36-4.25.13-.69.37-1.33.62-1.96.29-.61.6-1.21 1.03-1.72.81-1.06 1.91-1.85 3.13-2.37s2.55-.8 3.88-.95c2.67-.28 5.39-.15 8.03-.17 10.55.02 20.05.04 28.03.05 7.98 0 14.44-.03 18.9-.07 2.23-.02 3.96-.05 5.14-.08s1.79-.07 1.79-.11Z"/><path d="M187.44 49.29c-.34.04-.01 5.78.72 12.82.73 7.05 1.6 12.73 1.94 12.69.34-.04.01-5.78-.72-12.82-.73-7.05-1.6-12.73-1.94-12.69Z" style="fill:#c64528"/><path class="cls-6" d="M146.01 34.73c-.08-.02-.22.2-.41.61-.2.4-.45 1-.93 1.5-.46.49-1.31.84-1.9.4-.3-.2-.58-.6-.86-1.09-.29-.48-.58-1.07-1.13-1.6-.27-.26-.62-.49-.99-.61s-.75-.16-1.11-.14c-.72.05-1.34.33-1.84.69-.5.35-.9.84-1.14 1.3-.25.47-.41.93-.5 1.34-.19.84-.2 1.51-.19 1.97.02.46.07.72.16.73.08 0 .19-.23.32-.67.13-.43.27-1.07.54-1.78.28-.71.69-1.5 1.46-1.97.75-.48 1.83-.65 2.46.01.35.33.63.83.94 1.33.31.5.68 1.06 1.3 1.43a2.144 2.144 0 0 0 1.92.14c.55-.22.95-.58 1.23-.95.54-.77.65-1.47.72-1.92.06-.46.04-.72-.04-.74Z"/></g></svg>