<svg xmlns="http://www.w3.org/2000/svg" viewBox="0 0 200 200"><defs><style>.cls-1{fill:none}.cls-2{fill:#f2a6b0}.cls-3{fill:#f6c243}.cls-5{fill:#fff}.cls-7{fill:#ff8000}.cls-8{fill:#a08675}.cls-9{fill:#b7957e}.cls-11{fill:#d6909f}.cls-12{fill:#877166}.cls-13{fill:#5b3d5b}.cls-14{fill:#603b5d}.cls-15{fill:#78577a}</style></defs><path d="M194.77 103.3c-9.52-49.26-56.93-60.81-96.64-35.79-22.95 3.57-43.6-16.82-65.93 5.71-106.3 100.67 161.24 123.69 162.57 30.08Z" style="fill:#efedea" id="BG_Strong"/><g id="Illustrations"><path class="cls-9" d="M157.68 87.38c.08-.1-3.85-9.22-3.85-9.22s-3.94-.05-5.15-.46-2.17-.69-2.62-1.7c-.44-1.01-2.17-4.57-2.52-5.21s-.26-1.47-1.49-1.68-2.59-.52-3.18-.16-1.31 1.61-1.34 2.14.31 1.55-.08 1.61-1.12-.37-1.12-.37-1.33-4.87-1.22-5.4.48-1.8.45-2.51-.7-1.84-1.74-1.99c0 0-1.85 1.41-2.66 1.46-.81.05-1.31-.41-1.72-.08s-2.34 1.96-3.5 2.41c-1.16.45-4.31.98-4.31.98s.42 5.49.62 6.64c.21 1.15.67 2.71.67 2.71s-.42 3.97-.57 5.49c-.15 1.52-.4 3.06-.04 3.53s1.42 1.02 1.98.91 2.49-.32 2.49-.32 2.12 3.74 2.65 4.42 2.1 2.13 3.45 2.11c1.34-.02 4.24-.46 4.63-.56s2.53-.77 2.53-.77l1.29 5.43s4.73-.84 7.46-2.48c2.73-1.65 7.67-5.46 8.89-6.94ZM126.24 139.54s-5.18-.84-9.03-1.82c-3.85-.98-7.14-2-8.52-2.63-1.38-.63-4.33-2.31-4.33-2.31s-.48-3.4-1.97-5.26c-1.49-1.86-3.36-3.37-4.98-4.4-1.63-1.03-4.61-3.12-5.89-3.36-1.27-.24-4.5.99-5.44 1.38-.94.4-1.89.83-1.8 1.11s.47 1.15 1.21 1.47c.74.32 2.16.59 2.78.56.63-.03 2.91-.06 2.91-.06s1.78 1.69 2.13 2.56.25 2.09.25 2.09l6.45 5.21s-.63 1.57-.92 1.51-7.16 3.22-7.16 3.22-1.55-.41-1.73-.81c-.18-.4-7.28-6.46-7.28-6.46l-4.14-3.47s-.65.58-.92 1.19-.27 1.32.33 1.7 1.22.26 1.57.82c.36.56 1.55 2.68 2.27 3.07.73.39 1.36 1.02 2.07 2.11s1.82 2.32 2.8 2.8c.98.48 3.46 1.24 4.26 1.37.8.13 8.17.96 8.17.96s7.29 4.28 8.27 4.83 12.82 6.49 13.18 7.02 3.15 1.78 3.15 1.78l2.29-16.22ZM76.79 126.2l-3.55-2.78s-1.16.54-1.29 1.06c-.13.52.27 1.74.6 1.93s1.52.07 1.9.18 2.34-.39 2.34-.39Z"/><g id="Layer_23"><path class="cls-8" d="M186.13 139.49c-.09-.15-.17-.3-.23-.46-.04-.11-.09-.23-.12-.35-.04-.14-.13-.26-.26-.33s-.3-.1-.43-.06-.26.13-.33.26-.1.28-.06.43c.08.28.19.56.33.82-.47.66-.89 1.39-.98 2.21-.05.44.04.84.21 1.23 0 .02.05.17.08.24-.15.07-.45.23-.48.24a46.4 46.4 0 0 1-4.81 1.93c-.39-.45-.7-.96-.89-1.52a.72.72 0 0 0-.12-.21.568.568 0 0 0-.45-.24c-1.18-.02-2.37-.11-3.53-.28-.07-.08-.13-.15-.19-.23-.22-.3-.41-.62-.57-.96-.06-.12-.21-.22-.33-.26-.13-.04-.31-.02-.43.06s-.22.19-.26.33a.59.59 0 0 0 .06.43c.26.56.61 1.07 1.03 1.52.06.06.13.1.21.13.04.02.08.03.12.04 1.17.17 2.35.28 3.53.31.3.71.72 1.35 1.27 1.9.14.13.36.2.54.14 1.87-.62 3.7-1.35 5.48-2.19.42-.2.84-.38.94-.88s-.21-.83-.29-1.28c-.15-.79.46-1.6.89-2.2.05-.07.07-.15.08-.23.02-.04.05-.08.06-.13a.59.59 0 0 0-.06-.43Z"/><path class="cls-8" d="M179.25 140.81c.25.44.47.89.68 1.35.05.12.21.22.33.26.13.04.31.02.43-.06s.22-.19.26-.33l.02-.15c0-.1-.03-.19-.08-.28-.2-.46-.43-.91-.68-1.35-.07-.12-.2-.22-.33-.26s-.31-.02-.43.06c-.26.16-.35.49-.2.76ZM185.8 146.58c.72 0 .72-1.11 0-1.11s-.72 1.11 0 1.11ZM183.69 147.59c.72 0 .72-1.11 0-1.11s-.72 1.11 0 1.11ZM181.5 148.53c.72 0 .72-1.11 0-1.11s-.72 1.11 0 1.11ZM179.15 148.53v.08c0 .08.01.15.05.21.02.07.06.13.12.18.05.05.11.09.18.12.07.04.14.05.21.05l.15-.02c.09-.03.18-.07.24-.14l.09-.11c.05-.09.08-.18.08-.28v-.08c0-.08-.01-.15-.05-.21a.36.36 0 0 0-.12-.18.567.567 0 0 0-.18-.12.406.406 0 0 0-.21-.05l-.15.02c-.09.03-.18.07-.24.14l-.09.11c-.05.09-.08.18-.08.28ZM176.08 146.76l-2.32-.52c-.28-.06-.62.09-.68.39-.06.28.08.62.39.68l2.32.52c.28.06.62-.09.68-.39.06-.28-.08-.62-.39-.68ZM187.76 140.9c-.4.59-.77 1.21-1.1 1.85-.13.26-.08.62.2.76.25.13.62.08.76-.2.33-.64.7-1.25 1.1-1.85.16-.24.05-.63-.2-.76-.28-.15-.58-.06-.76.2ZM188.19 139.01l-.52-1.15c-.05-.12-.21-.22-.33-.26-.13-.04-.31-.02-.43.06s-.22.19-.26.33l-.02.15c0 .1.03.19.08.28l.52 1.15c.05.12.21.22.33.26.13.04.31.02.43-.06s.22-.19.26-.33l.02-.15c0-.1-.03-.19-.08-.28ZM172.45 145.16l-1.28-2.28c-.14-.25-.51-.36-.76-.2s-.35.49-.2.76l1.28 2.28c.14.25.51.36.76.2s.35-.49.2-.76ZM192.8 147.24c-2.05 1.27-4.2 2.38-6.37 3.42s-4.32 2.02-6.6 2.71c-1.5.45-3.03.8-4.58 1.05-.3.05-.46.42-.39.68.09.32.39.44.68.39 2.6-.43 5.12-1.13 7.55-2.13 2.33-.97 4.61-2.04 6.84-3.21 1.16-.61 2.31-1.25 3.42-1.94.61-.38.05-1.34-.56-.96Z"/></g><path d="M16.08 61.02c1.19 4.21 2.01 8.53 3.65 12.6 1.4 3.48 3.44 6.65 5.97 9.42 5.08 5.54 11.86 9.38 18.92 11.8 7.9 2.72 16.53 3.72 24.77 2.1.67 1.65 1.34 3.3 2.02 4.95 1.33 3.27 2.66 6.54 4 9.81 1.33 3.25 2.65 6.51 3.98 9.76.14.36.55.62.93.38.88-.57.63-1.64.51-2.51-.15-1.04-.29-2.08-.44-3.12-.53-3.73-1.05-7.46-1.58-11.19l-1.5-10.6c2.3-1.06 4.49-2.36 6.51-3.89 3.8-2.88 7.07-6.53 9.28-10.77 2.53-4.86 3.61-10.32 6.02-15.23 1.04-1.83 2.08-3.66 3.05-5.53 1.57-3.01 2.99-6.16 3.67-9.5.67-3.28.61-6.69.04-9.99-1.18-6.89-5.2-13.37-11.07-17.22-7.21-4.73-15.95-3.89-24.16-4.35-4.38-.24-8.64-1.15-12.88-2.23s-8.46-2.29-12.8-2.92c-8.15-1.19-16.75.04-23.66 4.73-6.18 4.2-10.6 11.06-11.14 18.59-.63 8.71 3.61 16.75 5.92 24.91Zm63.59 59.74Z" style="fill:#d6e8ea" id="Layer_8"/><path class="cls-1" d="M119.65 150.87c-1.47 1.68 2.62 2.25 3.41 2.55.18.07.35.14.52.23.07-.63.13-1.26.21-1.89l.06-.47c-1.18-.77-3.19-1.56-4.19-.41Z"/><path class="cls-1" d="M120.25 138.95c-1.59-.28-3.18-.54-4.75-.91-1.51-.36-3-.84-4.47-1.34-2.54-.87-4.96-1.98-7.21-3.45s-.02-.02-.03-.03c-.02-.01-.03-.03-.05-.04-.01 0-.02-.02-.03-.03a.732.732 0 0 1-.23-.5 9.382 9.382 0 0 0-.97-3.55c-.23-.46-.49-.91-.78-1.34-.13-.2-.27-.39-.41-.58 0-.01-.13-.17-.04-.05-.02-.03-.05-.06-.07-.09-.07-.09-.14-.17-.21-.26-.76-.92-1.71-1.63-2.7-2.29-1.14-.75-2.31-1.47-3.47-2.2-.59-.37-1.17-.74-1.76-1.11-.48-.3-.97-.63-1.54-.74-.62-.13-1.28.07-1.88.22-.66.17-1.31.36-1.95.58-.6.21-1.2.43-1.79.68-.29.12-.58.25-.88.35-.01 0-.03 0-.04.01.04.08.08.16.12.23.04.07.08.13.12.2 0 0 .1.11.14.14.02.02.03.02.02.02.02.01.03.02.05.04.05.03.1.07.15.1.1.06.2.12.3.17.22.12.43.2.68.28.31.1.63.18.95.25.09.02.18.03.27.05.03 0 .19.02.23.02.47.03.94.02 1.4 0 .93-.06 1.8-.15 2.71-.44.81-.26 1.16.95.44 1.28.4.4.75.84 1.04 1.33.51.85.83 1.81 1.01 2.78.01.07.01.15 0 .22 1.77 1.52 3.54 3.05 5.32 4.55a.7.7 0 0 1 .36.29c.05.08.08.16.08.25.02.09.02.18-.01.27-.07.48-.3.9-.59 1.28-.15.19-.32.34-.52.48-.14.11-.3.19-.46.27a37.17 37.17 0 0 1-6.99 3.14s-.05.01-.07.02c0 0-.02 0-.03.01-.13.05-.29.03-.42-.02a.708.708 0 0 1-.38-.18c-.77-.68-1.56-1.35-2.34-2.02-.37.08-.75.14-1.13.16-.78.04-1.67-.07-2.19-.71-.56-.68-.79-1.75-.25-2.52-.79-.67-1.58-1.33-2.37-2-.56.18-1.14.28-1.73.29.2.54.52 1.01.96 1.41.57.52 1.35.73 1.93 1.25.55.48.74 1.2 1.1 1.81.32.55.72 1.01 1.2 1.43 1.03.9 2.33 1.43 3.64 1.77 1.52.4 3.1.6 4.67.8 1.65.21 3.32.37 4.98.49.23.02.43.12.55.29 1.64.94 3.28 1.89 4.92 2.83 3.28 1.89 6.58 3.76 9.92 5.55.97.52 1.94 1.03 2.91 1.53-.07-.97.37-1.96 1.41-2.59 1.51-.92 3.47-.52 5.03.3.39-3.08.84-6.16 1.37-9.23-1.71-.51-3.46-.86-5.21-1.17ZM127.43 121.49c.45.64 1.12 1.14 1.74 1.61.12-.46.25-.92.38-1.38-.84-.31-1.67-.61-2.51-.91.12.24.24.48.39.69ZM126.61 46.77c.03-.1 0-.04 0 0ZM86.02 135.16v-.02.02ZM116.37 63.46s0-.01-.02-.03c-.32.31.06.01.02.03ZM72.89 124.41s-.09.06-.13.08l-.01.02c-.03.03-.05.06-.08.09 0 .02-.05.06-.06.08-.02.03-.04.07-.05.1 0 .02-.03.08-.03.1 0 .04-.02.07-.02.11V125.2c0 .04.01.08.03.11 0 .01.04.1.04.11.02.04.04.08.07.12.01.01.05.06.06.08.07.07.14.15.21.21.02.01.04.03.06.04.05.03.1.06.16.09.03.02.06.03.08.04-.06-.02-.06-.02-.02 0l.18.06c.24.07.46.07.75.05.35-.02.72-.08 1.1-.13-.67-.57-1.34-1.13-2.01-1.7a.65.65 0 0 1-.22.11c-.03 0-.06.02-.09.03ZM86.03 135.11v-.02.05-.03ZM153.49 78.86c-1.16.08-2.32.03-3.47-.16-1.07-.18-2.15-.46-3.13-.92a2.82 2.82 0 0 1-1.18-1.01c-.16-.24-.27-.51-.38-.77-.02-.05-.13-.31-.06-.14a.886.886 0 0 0-.08-.17c-.19-.42-.39-.83-.59-1.24l-.09.47c-.14.61-.37 1.21-.67 1.77-.24.46-.55.93-.95 1.27-.01.33-.07.65-.18.96-.17.44-.48.82-.95.94-.56.15-1.02-.16-1.43-.5-.57-.48.07-1.26.68-1.08-.68-.29-1.23-.95-1.49-1.65-.13-.34.14-.74.47-.84.38-.1.71.14.84.47.1.28.34.56.59.71-.06-.18-.14-.35-.23-.53-.42-.75.74-1.42 1.15-.67.08.14.15.29.21.44.86-1.5 1.06-3.38.43-5-.14-.35-.36-.72-.64-.99-.15-.14-.29-.25-.5-.33.08.03-.16-.04-.18-.05-.03 0-.07-.02-.1-.02h-.35c.08 0-.14.03-.18.04-.22.06-.27.08-.44.18-.17.1-.22.14-.36.3q-.05.05-.11.15c-.05.08-.09.17-.13.26-.15.34-.64.41-.93.24-.34-.2-.39-.59-.24-.93.07-.15.15-.29.24-.43s-.09.05-.13.07c-.05.03-.1.06-.14.09 0 0-.01 0-.02.01-.06.07-.14.14-.21.2l-.02.02v.02c-.02.04-.05.08-.08.12a.37.37 0 0 0-.05.11s-.04.08-.04.11c-.04.12-.07.24-.1.37l-.03.15c.01-.05-.01.09-.01.11-.06.57-.06 1.15-.09 1.72 0 .1-.03.18-.06.27 0 .02 0 .05-.01.07-.04.16-.17.32-.31.41-.08.05-.16.08-.25.08-.09.02-.18.02-.27-.01-.25-.08-.51-.14-.77-.18h-.06c-.12 0-.24-.03-.34-.09l-.14-.11c-.13-.12-.19-.31-.2-.48v-.03c-.01-.03-.03-.07-.04-.1l-.69-2.88-.36-1.49c-.12-.5-.25-.98-.17-1.49.12-.76.66-1.55.56-2.33-.07-.57-.65-.95-1.17-1.15-.24.22-.49.43-.77.61-.69.45-1.6.87-2.44.89a1.503 1.503 0 0 1-.86-.27h-.01c-.31.2-.56.5-.85.74a12.072 12.072 0 0 1-4.49 2.34c-.69.19-1.39.3-2.1.36-.08 1.33-.04 2.67.14 3.98.2 1.5.59 2.95 1.04 4.39 0 .02 0 .04.01.06.07.14.1.31.04.46-.3.85-.38 1.69-.43 2.57s-.06 1.76-.11 2.64c-.04.82-.21 1.67-.26 2.44-.04.59.15 1.34.87 1.47.43.08.94-.12 1.36-.21l1.5-.32h.27c.2.03.4.14.49.32 0 .01.01.02.02.03.19.36.38.71.58 1.07l.14-.03h.11c.07-.01.14-.03.21-.04.14-.03.28-.07.42-.12.07-.02.14-.05.2-.07 0 0 .04-.01.06-.02.01 0 .02 0 .02-.01.13-.06.26-.13.39-.2.13-.08.26-.16.39-.25 0 0 .02-.02.04-.03-.03.02 0-.02.03-.02l.17-.14a4.533 4.533 0 0 0 .45-.47s.04-.06.06-.07c.22-.3.58-.43.93-.24.3.16.46.64.24.93a5.263 5.263 0 0 1-3.16 2.05c.46.77.94 1.53 1.43 2.27.45.64.95 1.16 1.65 1.48 1.25.57 2.99.28 4.3.05.76-.13 1.5-.3 2.24-.52.67-.2 1.17-.38 1.76-.73.14-.08.27-.1.39-.09-.32-.11-.64-.25-.94-.44-1.88-1.21-2.05-3.72-.06-4.94 1.91-1.17 4.54-.22 6.18 1.02 1.28.97 2.27 2.29 2.81 3.79 1.35-1.06 2.58-2.39 4.31-2.74 1.28-.26 2.76-.05 3.71.85.2-.18.4-.36.59-.54-.21-.54-.42-1.08-.64-1.62-.93-2.32-1.93-4.6-2.83-6.93Zm-26.58-3.39c-.87 0-.87-1.36 0-1.36s.87 1.36 0 1.36ZM122.8 114.03c-1.07-.82-3.46-1.97-4.58-.69-1.47 1.68 2.62 2.25 3.41 2.55 1.34.51 2.36 1.46 3.03 2.68h.18c.1-.07.21-.13.37-.16.06 0 .13-.01.19-.02a.686.686 0 0 1-.18-.36 6.547 6.547 0 0 0-2.41-4.01Z"/><path class="cls-1" d="M86.02 135.16V135.4c0 .04.02.08.03.11 0 .02.01.04.02.06.02.03.03.07.05.1.02.03.04.07.06.1l.02.02c.04.04.07.07.1.11 0 0 .01 0 .01.01.02.01.04.02.06.04 0 0 .02 0 .03.01.04.01.06.02.06.02.05.02.1.03.15.04l.12.03h.01c.13.01.27 0 .4.01-.38-.32-.75-.65-1.12-.97v.08ZM84.88 122.34s-.02 0-.03.01l.02-.01ZM119.7 120.18c-1.55.5-2.74 2.14-2.59 3.8.04.43.11.54.55.38.42-.15.82-.43 1.19-.67.79-.52 1.5-1.14 2.13-1.84.49-.53.95-1.1 1.48-1.54-.12-.04-.23-.08-.35-.12-.78-.25-1.62-.26-2.41 0ZM178.58 103.57c-.5-1.08-2.2-.88-3.06-.46-.46.22-.88.51-1.28.82.46.71.89 1.45 1.28 2.2h.39c1.13-.06 3.39-.99 2.67-2.56ZM144.55 87.55c-1.07-.82-3.46-1.97-4.58-.69-1.47 1.68 2.62 2.25 3.41 2.55 1.34.51 2.36 1.46 3.03 2.68h.18c.1-.07.21-.13.37-.16.06 0 .13-.01.19-.02a.686.686 0 0 1-.18-.36 6.547 6.547 0 0 0-2.41-4.01ZM141.28 78.4c.19.16.19.17.21 0-.14-.02-.29-.06-.42-.11.07.03.14.06.21.12ZM177.55 110.9c-.05-.21-.2-.38-.4-.53.1.34.19.67.29 1.01.11-.13.16-.29.11-.48ZM190.76 127.35c-.5-1.08-2.2-.88-3.06-.46-.41.2-.79.45-1.15.72.42.76.82 1.53 1.22 2.29h.32c1.13-.06 3.39-.99 2.67-2.56ZM129.91 85.91c-.01.01-.02.02-.03.02.01-.01.03-.02.04-.02ZM152.32 89.12c-1.39.67-2.44 1.9-3.71 2.76.86.04 1.72.15 2.58.21 1.34-.9 2.61-1.9 3.84-2.95-.7-.57-1.99-.38-2.71-.03ZM142.73 95.38c.49-.53.95-1.1 1.48-1.54-.12-.04-.23-.08-.35-.12-.78-.25-1.62-.26-2.41 0-.05.02-.09.04-.14.06.18.77.37 1.54.55 2.31.07-.01.15-.02.21-.04.23-.21.45-.43.66-.66ZM129.86 85.94ZM144 91.89s.03.01.05.02a4.06 4.06 0 0 0-1.28-.8c-.69-.26-1.43-.37-2.13-.58.34.22.49.74.15 1.06.03.14.07.28.1.43a6.1 6.1 0 0 1 1.59-.28c.51-.02 1.03.04 1.52.16ZM139.19 96.03c.13-.3.53-.38.82-.28.14.02.27.08.39.17.01.01.03.02.04.03-.11-.47-.23-.95-.34-1.42-.62.57-1.05 1.33-1.19 2.15.09-.22.19-.43.28-.65ZM126.86 118.35c1.2.05 2.39.25 3.6.25.33-1.1.68-2.2 1.05-3.3-.35.06-.68.16-.94.28-1.39.67-2.44 1.9-3.71 2.76ZM92.46 126.67c-.24-.41-.4-.62-.69-.94a7.12 7.12 0 0 0-.48-.47c-.08-.08-.17-.15-.26-.22-.08-.06 0 0-.06-.04 0 0-.01 0-.02-.01-.27.04-.53.07-.8.09.53.46 1.07.93 1.61 1.39.35.3.7.61 1.06.91-.02-.05-.05-.1-.07-.15-.09-.19-.18-.37-.29-.55Z"/><path class="cls-1" d="M86.37 135.95s.04.01.06.02c-.02 0-.02 0-.05-.01ZM121.14 157.71c-1.55.5-2.74 2.14-2.59 3.8.04.43.11.54.55.38.42-.15.82-.43 1.19-.67.79-.52 1.5-1.14 2.13-1.84.22-.24.44-.49.66-.74l.09-1.02a3.83 3.83 0 0 0-2.04.09ZM78.86 129.24s-.11.09-.12.1c-.1.09-.19.18-.28.28-.03.09-.12.18-.16.27-.01.03-.03.07-.03.09.02.04.04.08.07.11.01.02.08.12.1.14.01.01.09.11.11.13.03.04.07.08.11.11.04.04 0 0 .07.05s.14.1.22.14c.52.31 1.13.44 1.72.45.23 0 .44 0 .65-.03-.77-.65-1.55-1.3-2.32-1.94-.04.03-.08.06-.13.09ZM167.05 191.64c.04.43.11.54.55.38.42-.15.82-.43 1.19-.67.52-.35 1.01-.74 1.47-1.17-1.03.09-2.06.18-3.09.25-.11.39-.16.8-.12 1.21ZM86.48 135.98s-.03 0-.05-.01c.02 0 .04.01.05.01Z"/><path class="cls-12" d="M128.1 86.69h-.06c.09-.01.11-.01.06 0Z"/><path class="cls-12" d="M131.75 85.92c.21-.29.06-.77-.24-.93-.35-.19-.7-.06-.93.24s-.06.08-.06.07c.01-.02.08-.09.02-.02-.01.02-.02.02-.02.02-.05.06-.09.11-.14.16-.1.11-.2.21-.31.31-.05.05-.11.1-.17.14l-.04.02c-.01.01-.03.03-.04.03-.12.09-.25.17-.39.25-.13.07-.26.14-.39.2 0 0-.01 0-.02.01.03-.01.05-.02 0 0-.07.03-.03.01 0 0-.02 0-.05.02-.06.02-.07.03-.14.05-.2.07-.14.05-.28.08-.42.12-.07.02-.14.03-.21.04h-.06.02-.06.04-.05c-.05 0-.1.02-.14.03.23.42.47.83.71 1.24 1.27-.28 2.37-.99 3.16-2.05Z"/><path class="cls-12" d="M129.02 86.43c.06-.02.04-.01 0 0-.03.01-.07.03 0 0ZM129.9 85.92l-.03.02s.01 0 .03-.02ZM130.52 85.3l.02-.02c.06-.07 0 0-.02.02Z"/><path class="cls-13" d="M72.63 124.63s.02-.02.03-.04l-.03.04ZM72.49 125.04s0-.04.01-.06c0 0 0 .02-.01.06ZM72.53 124.83s.02-.03.02-.05c0-.01 0 0-.02.05ZM72.69 125.62s-.02-.02-.03-.02c.04.04.03.04.03.02ZM72.56 125.41s-.01-.03-.02-.04l.02.04ZM72.5 125.2s0-.04-.01-.06c0 .06.01.07.01.06ZM72.91 125.83h-.01c.05.04.05.04.02.01ZM72.87 124.42h.03c.04-.02.03-.02-.03.01Z"/><path class="cls-13" d="M74.12 126.11c-.29.02-.51.02-.75-.05l-.18-.06c-.04-.02-.04-.02.02 0-.03-.01-.06-.03-.08-.04-.06-.03-.11-.06-.16-.09-.02-.01-.04-.03-.06-.04.04.03.03.03-.02-.01h.01a1.39 1.39 0 0 1-.21-.21c0 .01.01.02-.03-.02 0 0 .02.02.03.02a.555.555 0 0 0-.06-.08.746.746 0 0 0-.07-.12l-.02-.04c0 .01.01.03.02.04 0-.01-.04-.09-.04-.11-.01-.04-.02-.08-.03-.11l-.01-.06c0 .02 0 .04.01.06v-.1c0-.02.01-.11 0-.11 0 .02 0 .04-.01.06 0-.05.01-.06.01-.06 0-.04.01-.07.02-.11 0-.02.03-.08.03-.1 0 .02-.02.03-.02.05.02-.05.03-.06.02-.05.02-.04.03-.07.05-.1a.555.555 0 0 1 .03-.04c.04-.04.04-.05.03-.04.03-.03.05-.06.08-.09l.01-.02c-.04.01.03-.04 0 0 .04-.02.09-.05.13-.08h-.02c.07-.03.08-.04.03-.01h-.01c.03 0 .06-.02.09-.03a.65.65 0 0 0 .22-.11c-.37-.32-.75-.64-1.12-.96-.44.28-.76.74-.88 1.25-.18.75.05 1.49.57 2.05 1.2 1.3 3.08.76 4.6.54.06 0 .12-.03.17-.06-.44-.37-.88-.75-1.32-1.12-.38.06-.74.11-1.1.13ZM72.76 124.49s-.04.01 0 0ZM85.22 136.71c.53.64 1.42.75 2.19.71.38-.02.76-.07 1.13-.16-.46-.4-.93-.8-1.39-1.2-.13 0-.26 0-.4-.01h-.01c.18.03-.08 0 0 0-.04 0-.08-.01-.12-.03-.05-.01-.1-.03-.15-.04 0 0-.02 0-.05-.01-.02 0-.04-.01-.06-.02.02 0 .03 0 .05.01-.01 0-.02 0-.03-.01a.21.21 0 0 1-.06-.04c.01.01.03.02.04.04-.1-.07-.12-.09-.06-.05 0 0 .01 0 .02.01 0 0-.01 0-.01-.01-.04-.03-.07-.07-.1-.11 0 .01.02.03.03.04-.07-.09-.08-.1-.03-.05l-.02-.02c-.02-.03-.04-.07-.06-.1-.02-.03-.03-.07-.05-.1v.02c.03.07.02.05-.02-.05 0 .01.01.03.02.04 0-.02-.01-.04-.02-.06-.01-.04-.02-.08-.03-.11v-.04.03c-.02-.12-.02-.14 0-.06v.04-.27c-.04-.03-.08-.07-.12-.1-.31-.27-.63-.53-.94-.8-.53.77-.31 1.84.25 2.52Z"/><path class="cls-13" d="M86.75 136.05c-.07 0 .18.03 0 0ZM86.43 135.97s.03 0 .05.01c0 0-.01 0-.06-.02ZM86.03 135.11v.05-.06ZM86.03 135.38v-.07c-.01-.07 0-.05 0 .06ZM86.03 135.11v-.02.02ZM86.37 135.95l-.04-.04s-.01 0-.02-.01c-.06-.04-.03-.02.06.05ZM86.09 135.58v-.02c0-.01-.01-.03-.02-.04.04.1.05.12.02.05ZM86.24 135.83s-.02-.03-.03-.04a.58.58 0 0 0 .03.05Z"/><path class="cls-2" d="M176.14 107.93c.08.03.16.06.25.1-.02-.05-.04-.11-.06-.16-.06 0-.11 0-.17.01 0 .02-.01.03-.02.05ZM177.44 111.38c-.09-.34-.19-.68-.29-1.01-.25-.19-.57-.33-.84-.44.18.6.35 1.22.51 1.81.24-.06.48-.18.61-.35ZM178.18 114.66c.02-.09.02-.19 0-.29-.08-.38-.18-.76-.27-1.15-.21.11-.42.19-.63.24.3.4.6.79.9 1.19ZM172.86 189.94l.55-.06.06-.57c-.21.18-.42.4-.61.63ZM155.71 190.17c-.48.23-.97.46-1.45.69 3.69.01 7.38-.1 11.06-.32.05-.31.13-.62.23-.92-4.35.25-8.78.49-9.85.55ZM177.12 188.76c.07.14.15.27.24.39.06.08.12.15.19.23.04 0 .09-.01.13-.02h.02c.05 0 .11-.01.16-.03h.02c.15-.02.27-.11.35-.24.04-.04.06-.09.09-.15-.24-.09-.48-.17-.71-.26-.1.01-.27.04-.49.06ZM167.17 190.43c1.03-.07 2.06-.16 3.09-.25.23-.21.45-.43.66-.67.07-.07.13-.15.2-.22-1.06.06-2.26.14-3.53.21-.18.29-.33.6-.42.93ZM175.3 188.99c-.03.23-.05.46-.08.69.13-.02.26-.03.38-.05-.08-.19-.17-.42-.27-.64h-.03ZM178.05 186.11l-.12-.98c-.19.16-.39.32-.59.48l.05.45c.22.02.44.03.65.05ZM177.1 183.53c.19-.16.39-.32.58-.49-.13-1.14-.25-2.27-.35-3.41-.21.12-.43.24-.64.36l.41 3.54Z"/><path class="cls-13" d="M154.51 78.47c-.08.16-.24.26-.41.31-.02 0-.05 0-.08.01-.06.02-.13.04-.2.05-.11.01-.23.01-.34.02.91 2.32 1.9 4.61 2.83 6.93.22.54.43 1.08.64 1.62.36-.33.71-.66 1.06-1-.86-2.15-1.75-4.28-2.63-6.42-.26-.62-.5-1.25-.75-1.88-.01-.03-.03-.05-.04-.08.02.15-.02.3-.09.43Z"/><path class="cls-7" d="M79.08 127.73c.87 0 .87 1.33.03 1.35-.04.02-.07.04-.11.06h-.01c.77.65 1.55 1.3 2.32 1.94.4-.05.78-.14 1.2-.3.34-.13.74.14.84.47.1.38-.13.7-.47.83l-.27.09c.79.66 1.58 1.33 2.37 2 .01-.02.02-.04.03-.05.23-.3.57-.43.93-.24.15.08.27.26.31.41.04.15.03.39-.07.52-.03.04-.06.08-.09.13 0 .01-.01.02-.02.03 0 .03-.02.07-.03.1.38.32.75.65 1.12.97h.2c.09 0 .19 0 .28-.02.05 0 .1 0 .16-.02h.02c.16-.03.33-.06.49-.1.37-.09.72.11.84.47.11.34-.13.75-.47.84-.04 0-.08.01-.12.02.78.67 1.57 1.34 2.34 2.02.11.1.25.16.38.18.14.05.29.08.42.02 0 0 .02 0 .03-.01.02 0 .05 0 .07-.02a37.17 37.17 0 0 0 6.99-3.14c.16-.07.32-.15.46-.27.19-.15.37-.3.52-.48.29-.37.52-.8.59-1.28.03-.09.03-.18.01-.27 0-.09-.03-.18-.08-.25a.646.646 0 0 0-.36-.29c.06.05.12.1.17.15.17.15.23.39.18.61-.02.15-.1.3-.25.41-.02.01-.04.03-.06.04h-.01c-2.22 1.3-4.57 2.37-7.01 3.18-.27.09-.56-.04-.73-.26-1.54-1.29-3.07-2.59-4.6-3.89-3.12-2.65-6.23-5.32-9.35-7.98-2.87-2.45-5.73-4.9-8.63-7.32-.17-.14-.22-.36-.19-.57 0-.14.03-.29.1-.42-.01 0-.03.01-.04.02-.55.5-1.02 1.09-1.38 1.75-.08.14-.11.3-.08.46v.06c0 .01 0 .02.01.03.02.07.05.13.1.19.04.06.1.11.15.15 1.24 1.09 2.49 2.16 3.74 3.24.16-.11.34-.19.54-.24.37-.1.72.13.84.48.09.27-.04.56-.25.72.67.57 1.34 1.13 2.01 1.7l.79-.12c.38-.06.71.09.84.47.09.26-.05.62-.3.77.18.15.36.31.54.46.28.23.55.46.83.69.34-.29.75-.52 1.16-.52ZM86.03 135.08Z"/><path class="cls-7" d="M73.46 123.55a.692.692 0 0 0-.84-.47c-.19.05-.37.13-.54.24.37.32.74.64 1.12.96.22-.16.34-.46.25-.72ZM76.84 126.33c-.12-.39-.46-.53-.84-.47-.27.04-.53.08-.79.12.44.37.88.75 1.32 1.12.25-.15.39-.51.3-.77ZM87.81 136.03h-.01c-.11.02.15-.02.01 0ZM86.03 135.09l.03-.1c0 .01-.01.02-.02.03-.03.06-.02.05.02-.06v.02c0-.01.01-.02.02-.03.03-.04.06-.09.09-.13.1-.13.11-.37.07-.52a.702.702 0 0 0-.31-.41c-.36-.19-.7-.06-.93.24s-.02.03-.03.05c.31.27.63.53.94.8.04.03.08.07.12.1Z"/><path class="cls-7" d="M86.05 135.02s.01-.02.02-.03v-.02c-.05.1-.05.12-.02.06ZM88.67 137.24c.34-.08.58-.49.47-.84a.692.692 0 0 0-.84-.47c-.16.04-.33.07-.49.1.14-.02-.13.02-.01 0h.01-.02c-.05 0-.1.01-.16.02-.09 0-.19.02-.28.02h-.2c.47.4.93.8 1.39 1.2.04 0 .08-.01.12-.02Z"/><path class="cls-13" d="M127.34 87.38c.02.34.3.72.68.68.19-.02.38-.05.57-.09-.24-.41-.48-.82-.71-1.24-.3.08-.55.31-.54.65ZM126.91 74.12c-.87 0-.87 1.36 0 1.36s.88-1.36 0-1.36Z"/><path class="cls-2" d="M129.18 123.1c.63.47 1.36 1.07 2.17 1.16.49.05 1.41-.24 1.25-.89-.14-.57-1.03-.89-1.5-1.08-.51-.2-1.03-.39-1.55-.58-.13.46-.25.92-.38 1.38h.01ZM151.92 179.59c-.21-.04-.42-.08-.63-.13.05.17.11.34.15.51.16-.12.31-.25.47-.38ZM123.9 157.84c-.12-.04-.23-.08-.35-.12-.12-.04-.25-.06-.38-.09l-.09 1.02c.26-.29.53-.57.82-.81ZM164.66 107.7c-1.55.5-2.74 2.14-2.59 3.8.04.43.11.54.55.38.42-.15.82-.43 1.19-.67.79-.52 1.5-1.14 2.13-1.84.49-.53.95-1.1 1.48-1.54-.12-.04-.23-.08-.35-.12-.78-.25-1.62-.26-2.41 0ZM152.71 92.13c1.13-.06 3.39-.99 2.67-2.56a1.23 1.23 0 0 0-.35-.43 43.487 43.487 0 0 1-3.84 2.95c.51.04 1.01.06 1.53.03ZM158.41 132.32c-.22-.1-.43-.18-.59-.25-1.34-.53-2.7-1.01-4.06-1.5.12.24.24.48.39.69.45.65 1.13 1.14 1.75 1.61.63.47 1.36 1.07 2.17 1.16h.14c.18-.26.38-.51.6-.74-.14-.32-.27-.65-.4-.97ZM130.96 118.6c1.13-.06 3.39-.99 2.67-2.56-.35-.76-1.29-.88-2.12-.74-.36 1.09-.71 2.19-1.05 3.3h.5ZM171.81 105.87c1.24.06 2.46.26 3.71.25-.4-.75-.82-1.48-1.28-2.2-.82.63-1.57 1.37-2.43 1.95ZM146.42 129.95c-1.55.5-2.74 2.14-2.59 3.8.04.43.11.54.55.38.42-.15.82-.43 1.19-.67.79-.52 1.5-1.14 2.13-1.84.49-.53.95-1.1 1.48-1.54-.12-.04-.23-.08-.35-.12-.78-.25-1.62-.26-2.41 0ZM171.99 108.32c.12.24.24.48.39.69.45.65 1.13 1.14 1.75 1.61.58.44 1.26.98 2 1.13a47.7 47.7 0 0 0-.62-2.13c-1.17-.45-2.34-.87-3.52-1.3ZM188.81 131.9c-.04-.09-.08-.18-.13-.26-.15.02-.3.03-.46.04.2.07.39.15.58.23ZM187.38 134.76c.3-.18.76-.08.93.24.08.15.15.3.23.45.32-.14.64-.28.95-.43.08-.04.16-.06.24-.07.02-.08.03-.17 0-.27-.14-.57-1.03-.89-1.5-1.08-1.34-.53-2.7-1.01-4.06-1.5.12.24.24.48.39.69.45.65 1.13 1.14 1.75 1.61.26.2.54.41.83.6.05-.1.13-.19.23-.25Z"/><path class="cls-2" d="M125.7 140.19c-.08-.02-.16-.04-.24-.07-.52 3.07-.97 6.14-1.37 9.23.42.22.81.46 1.15.72 1.28.97 2.27 2.29 2.81 3.79.93-.73 1.8-1.57 2.81-2.15-.03-1.94.18-3.87.76-5.75.62-2.02 1.64-4.05 3.23-5.47.35-.32.74-.59 1.15-.83.04-.04.09-.08.14-.11.1-.05.2-.09.31-.13 1.23-.57 2.62-.74 3.89-.29 1.88.66 3.25 2.19 4.24 3.94.73 1.29 1.21 2.7 1.76 4.08h.04c.76.25 1.45.4 2.24.39.5 0 .99-.08 1.47-.2-.34-.1-.62-.37-.62-.82-.08-5.05.2-10.1.79-15.11-.52.43-.99 1.15-1.28 1.47-.73.81-1.58 1.52-2.49 2.12-.82.54-1.85 1.19-2.88.96-.98-.22-1.45-1.09-1.54-2.03-.19-1.94.83-3.92 2.42-5.01.87-.6 1.93-.92 2.98-.96.51-.02 1.03.04 1.52.16.01 0 .03.01.05.02a4.06 4.06 0 0 0-1.28-.8c-1.11-.42-2.32-.46-3.34-1.11-1.88-1.21-2.05-3.72-.06-4.94 1.91-1.17 4.54-.22 6.18 1.02 1.28.97 2.27 2.29 2.81 3.79 1.35-1.06 2.58-2.39 4.31-2.74 1.62-.33 3.59.07 4.34 1.71.85 1.86-.46 3.91-2.2 4.65-.27.11-.54.2-.81.26.09.26.19.52.28.78.03.02.06.03.1.05 1.41.75 2.26 2.39 1.44 3.69 1.3 2.89 2.77 5.71 4.23 8.53.65-.26 1.3-.5 1.96-.73-.08-.14-.16-.28-.24-.41-.44-.76.73-1.44 1.17-.68.12.21.24.43.37.65.58-.19 1.16-.38 1.75-.56 3.36-1.04 6.77-1.89 10.15-2.87.13-1.82.29-3.63.5-5.45-.52.43-.99 1.15-1.28 1.47-.73.81-1.58 1.52-2.49 2.12-.82.54-1.85 1.19-2.88.96-.98-.22-1.45-1.09-1.54-2.03-.19-1.94.83-3.92 2.42-5.01.87-.6 1.93-.92 2.98-.96.51-.02 1.03.04 1.52.16.01 0 .03.01.05.02a4.06 4.06 0 0 0-1.28-.8c-1.11-.42-2.32-.46-3.34-1.11-1.88-1.21-2.05-3.72-.06-4.94 1.91-1.17 4.54-.22 6.18 1.02 1.28.97 2.27 2.29 2.81 3.79.65-.51 1.27-1.08 1.93-1.57-.94-1.64-1.92-3.27-2.94-4.86a117.42 117.42 0 0 0-4.55-6.54c-.04.25-.21.47-.48.55-.34.1-.76-.12-.84-.47l-.27-1.17c-1.29 0-2.58-.8-3.64-1.6-.79-.6-1.56-1.22-2.12-2.05-.11-.17-.3-.67-.5-1.13-.64 5.14-.92 10.32-.84 15.49.02 1.16-1.78 1.15-1.8 0-.08-5.05.2-10.1.79-15.11-.52.43-.99 1.15-1.28 1.47-.73.81-1.58 1.52-2.49 2.12-.82.54-1.85 1.19-2.88.96-.98-.22-1.45-1.09-1.54-2.03-.19-1.94.83-3.92 2.42-5.01.87-.6 1.93-.92 2.98-.96.51-.02 1.03.04 1.52.16.01 0 .03.01.05.02a4.06 4.06 0 0 0-1.28-.8c-1.11-.42-2.32-.46-3.34-1.11-.27-.17-.49-.37-.69-.59h-.01c-1.36-.16-2.75-.06-4.05.38-.62.21-1.21.51-1.73.9a.55.55 0 0 1-.09.07c-.05.04-.1.08-.14.13-.1.09-.19.18-.28.28-.19.2-.25.29-.39.49-.68.98-1.09 2.06-1.35 3.19s-.37 2.44-.22 3.54c.05.36-.08.73-.47.84-.32.09-.78-.11-.84-.47-.22-1.56-.09-3.14.32-4.66.35-1.28.86-2.47 1.72-3.56s2.14-1.77 3.46-2.15c1.09-.32 2.22-.42 3.34-.37-.22-1.08.2-2.23 1.36-2.94 1.91-1.17 4.54-.22 6.18 1.02 1.28.97 2.27 2.29 2.81 3.79.57-.45 1.11-.93 1.68-1.38-.32-.43-.64-.86-.97-1.28-1.51-1.89-3.11-3.53-4.71-5.25-.14-.16-.28-.31-.43-.47v-.01l-7.95-9.11c-.23-.27-.66-.39-.99-.07-.05.05-.11.1-.16.16.25.63.5 1.26.74 1.9.13.35-.15.75-.47.84-.38.1-.7-.13-.84-.47-.16-.42-.33-.84-.5-1.26-.2.18-.39.36-.59.54.25.24.47.52.63.87.85 1.86-.46 3.91-2.2 4.65-.65.28-1.31.39-1.97.42.53.19 1.05.4 1.53.66 1.66.89 2.55 3 .84 4.36-1.82 1.44-3.9.25-5.46-.95-.79-.6-1.56-1.22-2.12-2.05-.11-.17-.3-.67-.5-1.13-.64 5.14-.92 10.32-.84 15.49.02 1.16-1.78 1.15-1.8 0-.08-5.05.2-10.1.79-15.11-.52.43-.99 1.15-1.28 1.47-.73.81-1.58 1.52-2.49 2.12-.82.54-1.85 1.19-2.88.96-.34-.08-.62-.24-.84-.45a276.5 276.5 0 0 0-2.38 5.6c-.28.68-.55 1.36-.8 2.05v.01c-.9 2.15-1.72 4.34-2.48 6.54 1.29.04 2.57.57 3.14 1.82.85 1.86-.46 3.91-2.2 4.65-.65.28-1.31.39-1.97.42.53.19 1.05.4 1.53.66 1.66.89 2.55 3 .84 4.36-1.56 1.24-3.32.53-4.78-.46a178.413 178.413 0 0 0-2.98 13.84c.12.04.25.07.37.1.83.26.48 1.57-.36 1.31Z"/><path class="cls-2" d="M183.99 129.66c1.26.06 2.51.27 3.78.25-.4-.77-.8-1.54-1.22-2.29-.87.65-1.66 1.43-2.56 2.04ZM179.94 125.33c-1.07-.82-3.46-1.97-4.58-.69-1.47 1.68 2.62 2.25 3.41 2.55 1.34.51 2.36 1.46 3.03 2.68h.18c.1-.07.21-.13.37-.16.06 0 .13-.01.19-.02a.686.686 0 0 1-.18-.36 6.547 6.547 0 0 0-2.41-4.01ZM151.43 128.33h.12c.1-.07.21-.13.37-.16.06 0 .13-.01.19-.02a.686.686 0 0 1-.18-.36 6.547 6.547 0 0 0-2.41-4.01c-1.07-.82-3.46-1.97-4.58-.69-1.47 1.68 2.62 2.25 3.41 2.55 1.34.51 2.36 1.46 3.03 2.68h.06ZM176.84 131.49c-1.55.5-2.74 2.14-2.59 3.8.04.43.11.54.55.38.42-.15.82-.43 1.19-.67.79-.52 1.5-1.14 2.13-1.84.49-.53.95-1.1 1.48-1.54-.12-.04-.23-.08-.35-.12-.78-.25-1.62-.26-2.41 0ZM167.07 103.59s.07.06.1.08c1.05.54 1.88 1.38 2.45 2.41h.18c.1-.07.21-.13.37-.16.06 0 .13-.01.19-.02a.686.686 0 0 1-.18-.36 6.547 6.547 0 0 0-2.41-4.01c-1.07-.82-3.46-1.97-4.58-.69-.52.6-.33 1.05.15 1.41 1.31.28 2.58.75 3.75 1.33ZM185.13 135.75c-.79-.6-1.56-1.22-2.12-2.05-.11-.17-.3-.67-.5-1.13-.22 1.76-.39 3.52-.53 5.28 1.39-.43 2.78-.89 4.14-1.41-.35-.22-.68-.45-.99-.69ZM128.47 158.33c.12.24.24.48.39.69.45.65 1.13 1.14 1.75 1.61.59.45 1.28 1 2.04 1.14-.22-.7-.42-1.4-.59-2.11-1.19-.46-2.39-.89-3.6-1.32ZM128.3 155.88c1 .04 2 .2 3 .25a27.2 27.2 0 0 1-.32-2.38c-.92.66-1.74 1.5-2.68 2.13ZM139.76 185.91c-2.57-2.61-5.1-5.26-7.5-8.03a.76.76 0 0 1-.15-.28.834.834 0 0 1-.08-.12c-.44-.94-.59-1.96-.58-3 .04-3.44 1.22-6.75 2.24-9.99-.14-.31-.26-.62-.39-.93-1.36.11-2.75-.73-3.87-1.59-.79-.6-1.56-1.22-2.12-2.05-.11-.17-.3-.67-.5-1.13-.64 5.14-.92 10.32-.84 15.49.02 1.16-1.78 1.15-1.8 0-.08-5.05.2-10.1.79-15.11-.52.43-.99 1.15-1.28 1.47-.27.29-.55.57-.84.83-.18 2.29-.33 4.57-.44 6.86a255.824 255.824 0 0 0-.25 18.71v.08c.01.09.04.18.08.25 0 .01.01.02.02.04 0 .01.02.03.03.04.09.12.21.22.36.25 5.73 1.1 11.51 1.89 17.32 2.42 1.55.14 3.11.26 4.67.36-.37-.24-.72-.51-1.06-.8-1.35-1.16-2.57-2.51-3.82-3.78ZM150.93 96.63c.63.47 1.36 1.07 2.17 1.16.49.05 1.41-.24 1.25-.89-.14-.57-1.03-.89-1.5-1.08-1.34-.53-2.7-1.01-4.06-1.5.12.24.24.48.39.69.45.65 1.13 1.14 1.75 1.61ZM123.58 153.64c1.09.54 1.94 1.4 2.52 2.45h.18c.1-.07.21-.13.37-.16.06 0 .13-.01.19-.02a.686.686 0 0 1-.18-.36 6.547 6.547 0 0 0-2.41-4.01c-.12-.09-.25-.18-.39-.28l-.06.47-.21 1.89ZM158.22 127.78c.05.16.11.32.16.47 1.15-.3 2.57-1.16 1.97-2.44-.5-1.08-2.2-.88-3.06-.46-1.39.67-2.44 1.9-3.71 2.76 1.14.05 2.26.23 3.41.25-.02-.08-.05-.15-.08-.23-.26-.84 1.05-1.19 1.31-.36ZM138.84 174.48c.17.09.35.16.53.24-.38-.45-.79-.87-1.18-1.3.03.14.06.28.1.42.1.33.24.48.54.64ZM140.39 95.92a.807.807 0 0 0-.39-.17c-.29-.1-.69-.02-.82.28-.09.21-.19.43-.28.65-.05.27-.07.55-.04.83.04.43.11.54.55.38.42-.15.82-.43 1.19-.67l.11-.08c-.09-.4-.19-.79-.28-1.19-.01 0-.03-.02-.04-.03ZM141.89 96.21c.06-.06.12-.11.18-.17-.07.01-.14.03-.21.04l.03.13ZM152.6 132.16c-.11-.17-.3-.67-.5-1.13-.64 5.14-.92 10.32-.84 15.49 0 .19-.05.34-.12.47 2.34-.96 4.03-3.04 4.92-5.38.53-1.39.78-2.81.98-4.28.08-.56.2-1.12.37-1.65-.96-.26-1.9-.86-2.69-1.47-.79-.6-1.56-1.22-2.12-2.05ZM159.02 133.8c-.07-.17-.14-.34-.21-.5-.22.23-.42.48-.6.74.26 0 .58-.08.81-.24Z"/><path class="cls-14" d="M151.09 152.3c1.02-.01 1.99-.51 2.85-1.02.96-.57 1.87-1.22 2.84-1.79 3.66-2.15 7.73-3.52 11.92-4.13-.11-.2-.22-.4-.34-.6l-2.52-.6c-.33.13-.66.24-.99.37-.28.12-.6-.06-.76-.31 0-.01-.02-.02-.02-.03-.62-1.21-1.25-2.42-1.87-3.64-.86-1.68-1.69-3.38-2.47-5.1-.76.43-1.56.45-2.33.24-.17.53-.29 1.09-.37 1.65-.21 1.46-.45 2.89-.98 4.28-.89 2.34-2.58 4.43-4.92 5.38-.21.35-.66.47-1.05.35-.48.12-.97.19-1.47.2-.79.01-1.48-.14-2.24-.39h-.04c.2.49.4.97.63 1.44.78 1.61 2.1 3.73 4.12 3.7Z"/><path class="cls-2" d="M177.28 113.48c-.23.06-.46.09-.69.09.09.39.19.78.27 1.17.08.36.5.57.84.47.27-.07.44-.29.48-.55-.3-.4-.6-.79-.9-1.19ZM176.82 111.73c-.16-.59-.33-1.2-.51-1.81-.1-.04-.19-.08-.27-.11-.18-.07-.36-.13-.54-.2.23.71.43 1.42.62 2.13.06.01.11.03.17.03.15.02.34 0 .52-.05ZM176.14 107.93s.02-.03.02-.05h-.12c.03.01.07.03.1.04ZM157.45 88.68c.13.34.46.58.84.47.33-.09.61-.49.47-.83-.24-.64-.49-1.27-.74-1.9-.35.33-.7.67-1.06 1 .16.42.33.84.5 1.26ZM157.87 102.35c-1.32.38-2.59 1.06-3.46 2.15s-1.38 2.28-1.72 3.56c-.41 1.52-.54 3.1-.32 4.66.05.36.52.56.84.47.39-.11.52-.47.47-.84-.15-1.1-.05-2.41.22-3.54.26-1.13.67-2.21 1.35-3.19.14-.2.2-.28.39-.49.09-.1.18-.19.28-.28.05-.04.1-.09.14-.13.01-.01.06-.05.09-.07 0 0-.02.01-.03.02.04-.03.04-.03.03-.02.52-.39 1.12-.69 1.73-.9 1.3-.44 2.69-.53 4.05-.38h.01c-.38-.42-.63-.91-.73-1.41-1.12-.05-2.25.05-3.34.37ZM167.17 103.67s-.06-.06-.1-.08c-1.17-.58-2.45-1.05-3.75-1.33.88.64 2.75.95 3.26 1.15.2.08.4.17.59.27Z"/><path class="cls-2" d="M156.12 104.69s.02-.01.03-.02c.01-.01.02-.01-.03.02ZM140.43 95.95c.09.4.19.79.28 1.19.41-.28.81-.59 1.18-.93l-.03-.13c-.49.08-1.07.12-1.43-.13ZM186.78 136.82c-.22-.11-.44-.24-.65-.37-1.36.52-2.75.98-4.14 1.41-.01.18-.03.37-.04.55 1.79-.58 3.62-1.19 4.84-1.59ZM177.7 139.74c.65-.19 1.5-.46 2.43-.75.01-.2.03-.39.04-.59-3.37.98-6.79 1.83-10.15 2.87-.59.18-1.17.37-1.75.56.11.18.21.37.32.56 1.76-.51 6.6-1.91 9.12-2.65ZM165.25 143.5s.01.04.02.06c.42-.2 1.07-.47 1.99-.77-.1-.17-.19-.34-.29-.51-.66.23-1.31.48-1.96.73.08.16.16.32.25.48Z"/><path class="cls-9" d="M196.14 157.68c-.24-.55-.65-1.02-1.05-1.46a.714.714 0 0 1-.18-.37c0-.02-.02-.04-.02-.06-.43-1.61-.9-3.2-1.41-4.79-1.51-4.71-3.38-9.3-5.56-13.75-.03 0-.06-.01-.09-.02-1.06.44-2.14.84-3.23 1.22-.9.31-1.8.6-2.71.87l-1.82.54c-3.7 1.07-7.45 2-11.11 3.2a310.7 310.7 0 0 1 1.76 3.1c1.57 2.82 3.13 5.65 4.75 8.44 1.35 2.32 2.74 4.65 4.36 6.8.22.29.04.76-.24.93-.34.2-.71.05-.93-.24-.49-.65-.95-1.31-1.4-1.98-.14.08-.28.16-.43.24l-.18 18.13c2.62-1.46 5.19-3.02 7.64-4.74 1.53-1.07 2.86-2.09 4.27-3.33 1.24-1.09 2.41-2.27 3.44-3.55.07-.08.13-.16.2-.25 0 0 .01-.01.01-.02.02-.03.05-.06.07-.09l.33-.45c.21-.3.41-.6.6-.91.43-.7.79-1.43 1.12-2.19.56-1.28 1.13-2.55 1.74-3.8.24-.49.26-.96.05-1.45Z"/><path class="cls-2" d="M189.49 135.03c-.32.15-.63.29-.95.43l.06.12c.42 0 1.03-.2 1.14-.62-.08.01-.16.03-.24.07ZM165.01 144.43c-.29.17-.72.08-.9-.22.15.25.48.43.76.31.33-.13.66-.25.99-.37l-.54-.13c-.04.16-.14.31-.31.41Z"/><path class="cls-13" d="m165.85 144.15 2.52.6c-.24-.42-.48-.84-.71-1.26-.6.21-1.2.44-1.8.66Z"/><path class="cls-2" d="M167.32 142.9s-.04-.07-.06-.11c-.92.3-1.57.57-1.99.77 0 .02.01.04.02.06.52-.17 1.42-.47 2.03-.72Z"/><path class="cls-2" d="M167.32 142.9c-.61.25-1.51.55-2.03.72.04.13.06.27.02.4l.54.13c.6-.23 1.2-.45 1.8-.66-.11-.2-.22-.39-.34-.59ZM178.7 139.74c-2.06.93-7.47 1.99-10.11 2.66.12.21.24.43.37.65 3.66-1.19 7.41-2.13 11.11-3.2.01-.23.03-.45.05-.68-.51.19-.99.38-1.41.57ZM181.93 138.54c-.02.26-.03.52-.05.77.91-.28 1.81-.56 2.71-.87 1.09-.37 2.17-.78 3.23-1.22a5.22 5.22 0 0 1-.93-.35c-.1.04-.21.09-.31.13-.99.4-2.84.95-4.65 1.55ZM172.4 187.97c-.12-.04-.23-.08-.35-.12-.78-.25-1.62-.26-2.41 0-.66.21-1.25.64-1.71 1.19 1.24-.09 2.47-.2 3.71-.32.25-.27.5-.52.76-.74ZM176.38 183.59c-.13-1.08-.24-2.16-.34-3.24-.44.24-.89.48-1.34.71.71.73 1.28 1.59 1.68 2.53ZM167.68 186.82c.87-.6 1.93-.92 2.98-.96.51-.02 1.03.04 1.52.16.01 0 .03.01.05.02a4.06 4.06 0 0 0-1.28-.8c-.93-.35-1.93-.44-2.83-.84-1.85.9-3.71 1.77-5.58 2.63-1.78.82-3.57 1.64-5.35 2.46.68 0 1.37-.02 2.05-.04 2.17-.05 4.34-.14 6.5-.27.43-.94 1.1-1.78 1.94-2.36ZM171.56 183.55c1.34.51 2.36 1.46 3.03 2.68h.18c.1-.07.21-.13.37-.16.06 0 .13-.01.19-.02a.686.686 0 0 1-.18-.36 6.53 6.53 0 0 0-2.11-3.75c-.86.44-1.72.88-2.58 1.31.49.13.9.22 1.11.3Z"/><path class="cls-2" d="M159.24 189.45c-.68.02-1.37.03-2.05.04-.49.23-.99.46-1.48.69 1.07-.06 5.5-.3 9.85-.55.05-.15.12-.3.18-.44-2.17.13-4.33.22-6.5.27ZM167.93 189.03c-.13.15-.24.31-.34.47 1.26-.07 2.47-.14 3.53-.21.17-.2.35-.39.52-.58-1.24.12-2.47.23-3.71.32ZM175.3 188.99h.03c0-.02-.02-.04-.03-.06v.07ZM176.38 183.59c.06.13.11.26.16.4.19-.15.37-.3.56-.46l-.41-3.54c-.22.12-.43.24-.65.36.1 1.08.22 2.16.34 3.24ZM176.97 188.46c.05.1.1.2.15.29.22-.03.39-.05.49-.06-.21-.08-.43-.15-.64-.23ZM177.39 186.06l-.05-.45c-.18.14-.36.28-.55.4.2 0 .4.03.6.04Z"/><path class="cls-9" d="M138 167.55zM168.15 181c-.64.73-.23 1.25.51 1.63 1.04-.51 2.07-1.03 3.1-1.56-1.18-.62-2.76-1.05-3.61-.07Z"/><path class="cls-9" d="M171.71 163.76c-3.66 2.82-7.14 6.16-10.36 9.2-2.43 2.3-4.86 4.61-7.44 6.75l-.01.01c-.8.67-1.62 1.32-2.45 1.94 0 0-.01 0-.02.01-.02.02-.04.03-.06.05-.12.09-.28.11-.43.09h-.03c-.02 0-.04 0-.06-.01-.23-.06-.43-.23-.48-.47-.13-.61-.28-1.21-.47-1.8-.17-.52-.3-.87-.54-1.33-.51-1.01-1.19-1.96-1.97-2.78-1.59-1.7-3.73-2.79-5.57-4.2-.92-.71-1.8-1.48-2.52-2.4-.3-.38-.59-.89-.93-1.15a.585.585 0 0 0-.17-.1c-.02 0-.08-.03-.1-.03-.05-.01-.04-.01 0 0h-.07c-.01 0-.03.02-.04.02.1-.03-.04.05-.02.02-.02.02-.05.06-.07.07 0 0-.06.11-.09.15 0 0-.05.12-.05.13l-.06.22c-.03.14-.02.1-.03.21-.02.28-.03.57-.01.86.04.56.17 1.12.4 1.63.48 1.09 1.37 1.9 2.14 2.78 1.65 1.87 2.59 4.26 2.55 6.77-.01.87-1.37.87-1.36 0 .01-.87-.1-1.73-.34-2.56a.564.564 0 0 1-.4-.19c-.51-.63-1.02-1.29-1.77-1.64-.34-.16-.7-.28-1.01-.5-.4-.28-.66-.66-.83-1.11-.27-.73-.32-1.58-.42-2.35-.1-.72-.18-1.42-.31-2.14a.918.918 0 0 1 .01-.37v-.02l-.03-.41a.581.581 0 0 1-.17-.18c-.57-.84-1.1-1.72-1.57-2.63-.12.39-.25.79-.37 1.18-.48 1.58-.93 3.17-1.19 4.8-.12.77-.18 1.57-.19 2.32 0 .75.07 1.53.39 2.21s.04.1.05.16c1.3 1.5 2.63 2.97 4 4.41 1.23 1.3 2.48 2.58 3.73 3.85 1.19 1.21 2.34 2.49 3.63 3.58 2.25 1.9 5.34 2.32 8.06 1.32l.87-.42c.09-.04.17-.08.26-.12.02 0 .03-.01.05-.02 3.02-1.43 6.07-2.8 9.1-4.21 1.31-.61 2.62-1.23 3.92-1.86l6.73-3.38c.09-.05.19-.1.28-.15.93-.49 1.85-.99 2.77-1.5l.18-18.13c-1.8 1.01-3.5 2.17-5.13 3.43Z"/><path class="cls-9" d="M153.81 189.58s.03-.01.05-.02c-.02 0-.03.01-.05.02Z"/><path class="cls-2" d="M178.7 139.74c.42-.19.9-.38 1.41-.57 0-.06 0-.12.01-.18-.93.29-1.77.56-2.43.75-2.51.74-7.35 2.14-9.12 2.65v.01c2.64-.67 8.05-1.73 10.11-2.66ZM186.59 137c.1-.04.21-.08.31-.13-.04-.02-.08-.04-.11-.06-1.22.41-3.05 1.01-4.84 1.59v.14c1.81-.59 3.66-1.14 4.65-1.55ZM158.38 128.25c-.05-.16-.11-.32-.16-.47-.26-.83-1.57-.48-1.31.36.02.08.05.15.08.23.23 0 .46.01.69 0 .2-.01.44-.05.7-.12ZM158.94 133.14c.09-.1.19-.15.3-.18-.16-.27-.5-.48-.83-.64.13.33.26.65.4.97.05-.05.09-.1.14-.15ZM160.21 135.13l1.36 2.61 3 5.44c.14-.06.29-.11.44-.17-1.45-2.82-2.93-5.63-4.23-8.53-.14.22-.33.44-.57.64ZM159.24 130.75c-.1-.26-.19-.52-.28-.78-.38.09-.77.14-1.15.16.49.18.98.38 1.44.62Z"/><path class="cls-2" d="M164.5 143.22s.05-.02.07-.03l-3-5.44-1.36-2.61-.03.03c-.14.11-.29.21-.43.29.78 1.72 1.61 3.42 2.47 5.1.62 1.21 1.25 2.43 1.87 3.64 0 .01.02.02.02.03-.03-.05-.06-.11-.08-.16-.11-.38.13-.7.47-.83ZM158.94 133.14s-.09.1-.14.15c.07.17.14.34.21.5.22-.15.37-.36.3-.65-.02-.07-.05-.13-.08-.19-.1.03-.2.08-.3.18Z"/><path class="cls-2" d="M164.88 143.75c.09-.05.23-.12.39-.19 0-.02 0-.04-.02-.06-.08-.16-.16-.32-.25-.48-.15.06-.29.11-.44.17l.31.57Z"/><path class="cls-2" d="M165.01 144.43c.16-.1.26-.24.31-.41l-.63-.15s.07-.04.2-.12l-.31-.57s-.05.02-.07.03c-.34.14-.58.45-.47.83.02.06.04.11.08.16.18.3.61.39.9.22Z"/><path class="cls-2" d="M165.27 143.56c-.16.08-.29.14-.39.19 0 0 .17-.05.41-.13 0-.02-.01-.04-.02-.06Z"/><path class="cls-2" d="m164.68 143.87.63.15c.03-.13.02-.27-.02-.4-.24.08-.4.13-.41.13-.13.07-.2.12-.2.12Z"/><path class="cls-15" d="M142.37 58.03c-.19-.04 0 0 0 0ZM145.08 57.92c-.86.32-1.74.32-2.63.12h-.01c-.03.05-.06.13-.07.15-.1.19-.2.37-.31.56-.24.4-.52.78-.81 1.14a9.775 9.775 0 0 1-4.4 3.06c-.5.17-.96-.36-.84-.83.15-.56.24-1.13.27-1.71-.48.28-.86.82-1.17 1.27-.38.55-.78 1.05-1.26 1.49.51.21 1.09.58 1.17 1.15.1.79-.44 1.57-.56 2.33-.08.51.05 1 .17 1.49l.36 1.49.69 2.88s.02.07.04.1v.03c0 .17.07.36.2.48l.14.11c.11.06.22.09.34.09h.06c.26.04.52.1.77.18.09.03.18.03.27.01.09 0 .18-.03.25-.08.14-.08.28-.24.31-.41 0-.02 0-.05.01-.07.03-.08.06-.17.06-.27.02-.57.03-1.15.09-1.72 0-.03.02-.17.01-.11 0-.05.02-.1.03-.15.02-.12.06-.25.1-.37 0-.02.04-.1.04-.11.02-.04.03-.07.05-.11.02-.04.05-.08.08-.12v-.02l.02-.02c.06-.06.15-.13.21-.2 0 0 .01 0 .02-.01.05-.03.09-.06.14-.09.04-.02.08-.05.13-.07.65-.91 1.91-1.35 2.97-1.1 1.21.29 1.97 1.43 2.34 2.55.36 1.08.42 2.25.24 3.38.2.41.4.83.59 1.24.02.06.05.12.08.17-.08-.17.04.09.06.14.11.26.22.53.38.77.29.45.7.78 1.18 1.01.98.46 2.06.74 3.13.92 1.15.19 2.31.25 3.47.16-.05-.13-.1-.26-.15-.38-.13-.34.15-.75.47-.84.35-.1.64.1.79.4 0-.03 0-.06-.02-.09-.18-.47-.35-.94-.52-1.41-.5-2.39-.99-4.77-1.48-7.16-.63-3.09-1.41-6.2-2.93-8.98-.74-1.36-1.68-2.62-2.76-3.73-.49.56-1.12.99-1.82 1.26Z"/><path class="cls-15" d="M153.81 77.65c-.33.09-.61.49-.47.84.05.13.1.26.15.38.11 0 .23-.01.34-.02.07 0 .14-.02.2-.05.03 0 .05 0 .08-.01.16-.05.32-.16.41-.31.07-.13.11-.28.09-.43-.15-.3-.44-.49-.79-.4Z"/><path class="cls-7" d="M134.04 160.91c-.14-.57-1.03-.89-1.5-1.08-.15-.06-.31-.12-.46-.17.17.71.36 1.42.59 2.11.04 0 .08.02.13.02.49.05 1.41-.24 1.25-.89ZM132.4 156.13c1.13-.06 3.39-.99 2.67-2.56-.5-1.08-2.2-.88-3.06-.46-.37.18-.71.39-1.04.63.08.79.19 1.59.32 2.38.37.02.73.02 1.1 0Z"/><path class="cls-7" d="M135.01 164.83c-.1.31-.19.63-.29.94.44.63 1.16 1.71 1.61 2.52.09-.86.41-1.71 1.25-2.02 1.34-.5 2.14.89 2.84 1.75.75.92 1.66 1.7 2.61 2.39 2.03 1.48 4.29 2.7 5.89 4.68.68.84 1.3 1.69 1.77 2.7.25.54.44 1.1.61 1.67.21.05.42.09.63.13a90.5 90.5 0 0 0 4.22-3.62c3.44-3.12 6.74-6.4 10.22-9.49 3.14-2.79 6.45-5.52 10.16-7.53-.08-.13-.16-.25-.24-.38-2.53-4.04-4.8-8.23-7.11-12.4-1.09.18-3.83.64-4.58.92-.94.35-5.73 2.31-7.66 3.44-1.93 1.14-4.33 2.46-5.47 2.41s-2.45-.42-3.08-1.04c-.42-.42-1.26-2.16-1.76-3.26-.2-.05-.4-.11-.6-.17-.35-.12-.58-.47-.47-.84.09-.33.46-.57.8-.48-.55-1.38-1.03-2.79-1.76-4.08-.99-1.75-2.37-3.28-4.24-3.94-1.28-.45-2.66-.28-3.89.29-.1.04-.21.08-.31.13-.06.03-.1.06-.14.11-.41.23-.8.51-1.15.83-1.59 1.42-2.61 3.46-3.23 5.47-.58 1.88-.79 3.81-.76 5.75.46-.27.95-.48 1.5-.59 1.62-.33 3.59.07 4.34 1.71.85 1.86-.46 3.91-2.2 4.65-.65.28-1.31.39-1.97.42.53.19 1.05.4 1.53.66 1.66.89 2.55 3 .84 4.36-.51.41-1.05.6-1.59.64.12.31.25.62.39.93v-.02c.26-.83 1.58-.51 1.31.36Z"/><path class="cls-7" d="M145.54 147.63c-.1.37.12.72.47.84.2.07.4.12.6.17.5 1.1 1.34 2.84 1.76 3.26.63.63 1.93.99 3.08 1.04s3.54-1.27 5.47-2.41c1.93-1.13 6.72-3.09 7.66-3.44.75-.28 3.49-.74 4.58-.92-.15-.27-.31-.54-.46-.82-4.19.61-8.26 1.99-11.92 4.13-.97.57-1.88 1.22-2.84 1.79-.86.51-1.83 1.01-2.85 1.02-2.02.02-3.34-2.1-4.12-3.7-.23-.47-.43-.95-.63-1.44-.34-.09-.71.15-.8.48ZM136.3 169.08c-.01-.26 0-.53.02-.8-.45-.8-1.17-1.89-1.61-2.52-.05.17-.11.34-.16.51.48.9 1 1.78 1.57 2.63.05.07.11.13.17.18ZM153.92 179.7l-.01.01.01-.01Z"/><path class="cls-13" d="M141.49 78.4s0-.05.01-.08c.03-.2.06-.39.06-.6 0-.27-.06-.52-.14-.76-.25-.14-.49-.43-.59-.71-.12-.33-.46-.58-.84-.47-.33.09-.6.49-.47.84.26.7.82 1.36 1.49 1.65.02 0 .03.01.05.02.14.05.28.09.42.11ZM139.06 70.97c.29.17.78.09.93-.24.04-.09.08-.17.13-.26q.06-.1.11-.15c.15-.16.19-.2.36-.3.17-.1.22-.12.44-.18.03 0 .26-.04.18-.04h.35c-.09-.01 0 0 0 0 .04 0 .07.01.1.02.02 0 .26.08.18.05.2.08.35.19.5.33.28.27.5.64.64.99.64 1.62.44 3.5-.43 5 .23.55.37 1.16.34 1.75.4-.34.71-.81.95-1.27.3-.56.53-1.16.67-1.77.04-.15.07-.31.09-.47-.45-.94-.93-1.87-1.45-2.77-.24-.41 0-.8.33-.95-.34-.62-.76-1.31-1.08-1.61-.28-.27-.83-.33-1.3-.33.05.18.03.39-.05.55-.18.34-.61.4-.93.24-.01 0-.03-.01-.04-.02-.05 0-.11-.04-.16-.05-.01 0-.04-.01-.07-.02h-.38s-.1.02-.14.03c-.08.02-.22.04-.28.09.09-.04.1-.04.03-.01l-.04.02c-.09.13-.18.27-.24.43-.15.34-.1.73.24.93ZM141.56 69.8s-.09-.01 0 0ZM139.8 69.48h.07-.07Z"/><path class="cls-13" d="M139.07 69.6c.06-.05.2-.07.28-.09l.14-.03h.38c.03 0 .06.02.07.02.05.01.11.04.16.05.01 0 .03.01.04.02.32.16.75.1.93-.24.09-.17.11-.37.05-.55.47 0 1.03.07 1.3.33.32.3.73.99 1.08 1.61-.34.15-.57.54-.33.95.52.9 1 1.83 1.45 2.77.18-1.12.12-2.3-.24-3.38-.37-1.12-1.13-2.26-2.34-2.55-1.06-.25-2.32.19-2.97 1.09l.04-.02c.07-.03.06-.03-.03.01Zm.79-.11h-.07.07Z"/><path class="cls-5" d="M141.68 77.05h.04c.09-.01.16-.04.24-.09.17-.12.3-.29.41-.46.07-.1.12-.2.18-.31-.06-.15-.13-.3-.21-.44-.42-.75-1.57-.08-1.15.67.1.17.17.35.23.53.05.03.11.06.16.08.02 0 .1.02.1.02ZM141.49 78.4c-.03.18-.02.17-.21 0-.07-.06-.14-.09-.21-.12-.02 0-.03-.01-.05-.02-.61-.17-1.25.6-.68 1.08.4.34.87.65 1.43.5.47-.12.78-.5.95-.94.12-.31.17-.63.18-.96-.09.07-.18.15-.28.21-.38.23-.76.29-1.13.24ZM141.68 77.05h-.02.02Z"/><path class="cls-5" d="M142.55 76.19c-.06.1-.11.21-.18.31-.11.17-.24.34-.41.46-.08.05-.15.08-.24.09h-.02.02-.06.02s-.08-.01-.1-.02c-.05-.02-.11-.05-.16-.08.08.24.13.49.14.76 0 .21-.02.4-.06.6 0 .04 0 .05-.01.08.36.05.75-.01 1.13-.24.1-.06.19-.14.28-.21.02-.6-.11-1.21-.34-1.75ZM141.02 78.26s.03.01.05.02c-.02 0-.03-.01-.05-.02ZM141.73 77.06h-.02.02Z"/><path class="cls-3" d="M121.02 67.38c.03-.37.29-.68.68-.68.35 0 .71.31.68.68l-.03.45c.71-.06 1.41-.17 2.1-.36 1.65-.45 3.17-1.25 4.49-2.34.28-.24.54-.54.85-.74h.01c.03.03.07.05.11.07.23.14.48.21.75.2.84-.02 1.75-.44 2.44-.89.28-.18.53-.39.77-.61-.07-.03-.15-.06-.21-.08-.35-.12-.58-.47-.47-.84.09-.34.49-.59.84-.47.07.02.13.05.2.07.24-.37.59-.86.97-1.38.76-1.02 1.77-.94 1.77-.94l-.2 2.48s1.47-.41 2.45-1.06c.97-.65 2.85-3.5 2.85-3.5s.76-.02 1.34.06c.37.05 1.37-.27 2.03-.5-.23-.58.58-1.25 1.13-.72.12.12.23.25.35.37.08-.09.17-.18.24-.28.31-.22.52-.59.51-.97-.02-.48-.36-.79-.58-1.19s-.34-.8-.54-1.19c-.2-.39-.44-.74-.72-1.07a5.66 5.66 0 0 0-1.94-1.53c-.56-.27-1.26-.43-1.86-.27-.53-1.24-1.4-2.32-2.41-3.22-.63-.57-1.33-1.07-2.15-1.34-.39-.13-.84-.22-1.25-.16-.58.07-.92.62-.75 1.18.09.3.29.55.47.82-1.03-.64-2.19-1.07-3.41-.95-1 .09-1.91.49-2.8.92-.65.32-1.34.65-2.02.98 0-.25.03-.5.08-.75.1-.48.32-.97.03-1.43-.63-1.01-2.13.05-2.72.59-.69.64-1.16 1.47-1.55 2.32-.21.46-.4.93-.62 1.38-.1.22-.2.44-.32.64-.1-.13-.19-.26-.26-.41-.14-.3-.17-.64-.2-.98-.04-.45-.12-.9-.38-1.28-.29-.41-.73-.69-1.25-.68-.29 0-.48.16-.58.36a7.72 7.72 0 0 0-3.39 6.84c-.61-.2-1.26-.3-1.9-.27-.2 0-.4.11-.53.26-.21.13-.39.35-.45.59-.12.41-.13.89-.13 1.32 0 .88.18 1.76.48 2.58.3.82.71 1.6 1.18 2.34.23.35.46.69.71 1.03.12.16.25.32.36.48-.39.15-.8.19-1.18.38-.43.22-.79.6-.9 1.07-.05.21-.01.38.08.52.05.16.16.3.31.41 1.87 1.34 4.13 2.08 6.42 2.17 0-.16.01-.32.03-.48Zm5.59-20.61s.03-.1 0 0Zm-10.26 16.66.02.03c.04-.01-.34.28-.02-.03Z"/><path class="cls-3" d="M122.35 67.83c0-.15.01-.3.03-.45.03-.37-.33-.68-.68-.68-.39 0-.65.31-.68.68l-.03.48c.45.02.91 0 1.36-.03ZM145.42 57.01c-.67.24-1.66.55-2.03.5-.58-.08-1.34-.06-1.34-.06s-1.88 2.85-2.85 3.5c-.97.65-2.45 1.06-2.45 1.06l.2-2.48s-1.02-.08-1.77.94c-.38.52-.72 1.01-.97 1.38-.07-.02-.13-.05-.2-.07-.35-.12-.74.13-.84.47-.1.37.12.72.47.84.07.03.14.05.21.08.47-.44.88-.94 1.26-1.49.31-.45.69-.99 1.17-1.27a8.45 8.45 0 0 1-.27 1.71c-.13.48.34 1.01.84.83a9.775 9.775 0 0 0 4.4-3.06c.29-.36.57-.74.81-1.14.11-.18.21-.37.31-.56.01-.02.04-.09.07-.15h.01c.88.2 1.77.2 2.63-.12.71-.27 1.33-.7 1.82-1.26-.12-.12-.23-.25-.35-.37-.55-.53-1.35.14-1.13.72Zm-3.05 1.02s-.19-.05 0 0Z"/><path class="cls-13" d="M153.61 190.62c-.64.15-1.29.32-1.71.45-.6.19-1.65.22-2.78.11-.27.06-.47.09-.59.08-.56-.04-1.19-.22-1.85-.51a6.95 6.95 0 0 1-1.31-.5c-.13.17-.32.28-.53.27-.07 0-.13-.01-.2-.02.97.65 2.05 1.11 3.22 1.33 1.75.33 3.59.2 5.26-.43.01 0 .02-.01.03-.01.04-.01.09-.03.13-.05.33-.16.66-.31.99-.47h-.15c-.23 0-.4-.1-.51-.25Z"/><path class="cls-13" d="M155.46 190.19s-.91.2-1.85.43c.11.14.28.24.51.25h.15c.48-.23.96-.46 1.45-.69-.16 0-.25.01-.25.01ZM176.94 179.03c-.09.05-.19.1-.29.15v.45l.04.36c.21-.12.43-.24.64-.36a.73.73 0 0 0-.39-.6ZM145.37 190.24c.34.17.76.35 1.31.5-.76-.33-1.57-.78-2.36-1.31-1.49-.98-6.9-6.9-7.96-8.03-1.06-1.12-3.24-3.57-3.75-4.26s-.44-3.66-.31-4.81c.11-.97 1.49-5.35 1.92-6.69-.19-.38-.37-.76-.53-1.15-1.02 3.24-2.2 6.55-2.24 9.99-.01 1.04.14 2.05.58 3 .02.05.05.08.08.12.03.1.08.19.15.28 2.39 2.77 4.93 5.42 7.5 8.03 1.25 1.27 2.47 2.62 3.82 3.78.34.29.69.56 1.06.8.07 0 .13.01.2.02.21.01.41-.1.53-.27ZM188.34 135.55l.14.03h.11l-.06-.12c-.06.03-.13.06-.19.09ZM148.53 191.25c.12 0 .32-.02.59-.08-.81-.08-1.66-.22-2.44-.43.66.29 1.29.47 1.85.51Z"/><path class="cls-13" d="M176.65 179.18c.1-.05.19-.1.29-.15a.689.689 0 0 0-.29-.07v.22ZM153.57 189.82c-1.81.62-3.52 1.16-4.44 1.36 1.13.11 2.18.08 2.78-.11.42-.13 1.07-.3 1.71-.45a.747.747 0 0 1-.04-.8Z"/><path class="cls-13" d="M154.48 189.5c-.3.11-.61.21-.91.31-.14.24-.13.57.04.8.95-.23 1.85-.43 1.85-.43s.09 0 .25-.01c.49-.23.99-.46 1.48-.69-.9.01-1.81.02-2.71.02ZM175.97 179.63c.02.24.05.48.07.71.22-.12.43-.24.65-.36l-.04-.36v-.45l-.67.35v.1Z"/><path class="cls-13" d="M153.81 189.58c-.09.04-.17.08-.26.12l-.87.42c-2.72 1-5.82.58-8.06-1.32-1.29-1.09-2.44-2.37-3.63-3.58-1.25-1.27-2.5-2.55-3.73-3.85-1.36-1.44-2.7-2.91-4-4.41a.983.983 0 0 0-.05-.16c-.32-.69-.39-1.46-.39-2.21s.06-1.56.19-2.32c.26-1.63.71-3.23 1.19-4.8.12-.39.25-.79.37-1.18-.11-.21-.22-.42-.33-.64-.43 1.34-1.81 5.72-1.92 6.69-.13 1.15-.2 4.12.31 4.81s2.68 3.14 3.75 4.26c1.06 1.12 6.48 7.04 7.96 8.03.79.53 1.6.98 2.36 1.31.77.21 1.63.36 2.44.43.92-.2 2.63-.74 4.44-1.36.06-.1.13-.18.24-.24Z"/><path class="cls-13" d="M153.85 189.56s-.03.01-.05.02c-.11.06-.18.14-.24.24.3-.1.61-.21.91-.31h-.36c-.1 0-.19.02-.26.05ZM176.65 178.96c-.31 0-.64.25-.67.58.23-.12.46-.24.68-.35v-.22ZM134.72 165.77c.1-.31.2-.63.29-.94.27-.88-1.05-1.19-1.31-.36v.02c.17.39.35.77.53 1.15.08-.25.13-.39.13-.39s.15.2.36.52Z"/><path class="cls-13" d="M134.72 165.77c-.22-.32-.36-.52-.36-.52s-.05.14-.13.39c.11.21.22.43.33.64.05-.17.11-.34.16-.51ZM138.27 166.91a2.66 2.66 0 0 0-.35-.08c-.27-.03-.62.51-.87 1 .02.02.03.05.05.07.2-.52.75-.93 1.17-.99ZM138.4 175.02c.62.66 2.74 2.14 2.74 2.14s.02-.93 0-1.45c-.02-.53-1.84-2.08-2.21-2.82-.29-.58-1.32-2.64-1.73-3.86-.04.04-.08.09-.13.12-.11.06-.23.08-.34.08 0 .65.5 2.1.59 2.72.08.62.47 2.41 1.1 3.07Zm.98-.29c-.18-.08-.36-.15-.53-.24-.3-.16-.45-.31-.54-.64-.04-.14-.07-.28-.1-.42.39.44.79.86 1.18 1.3ZM151.03 181.13l1.76-1.4c-.29-.04-.58-.09-.87-.14l-.47.38-.15-.51c-.26-.06-.51-.12-.77-.19.32.99.5 1.86.5 1.86ZM176.86 158.21c-.13-.2-2.58-4.38-3.97-6.81l3.97 7.08v-.27ZM140.53 169.17c.64.72 3.58 2.82 5.14 3.89 1.26.87 2.44 2.17 3.33 3.31-.47-.71-1.01-1.45-1.46-1.86-1.02-.94-3.08-2.31-3.97-2.94-.89-.64-2.46-1.87-2.99-3.02-.35-.74-1.16-1.22-1.82-1.48.54.43 1.27 1.52 1.77 2.1ZM167.9 141.19c-.44-.76-1.61-.07-1.17.69.08.13.16.27.24.41.43-.15.87-.3 1.3-.45-.12-.22-.24-.43-.37-.65ZM176.84 159.57v-.02c-.9.53-2.88 1.7-3.89 2.29-.86.51-4.94 4.13-8.41 7.28 2.61-2.32 6-5.3 6.95-6.05 1.14-.9 4.2-2.8 5.35-3.51ZM169.9 146.5l.76 1.14h.1l-.69-1.23a.95.95 0 0 1-.17.1ZM169.26 144.96l-.89-.21c.11.2.22.4.34.6.24-.03.47-.07.71-.1-.05-.09-.11-.19-.16-.29Z"/><path class="cls-13" d="M167.92 142.58s.04-.02.06-.02c.1-.03.3-.09.6-.17-.11-.19-.21-.37-.32-.56-.44.15-.87.29-1.3.45.1.17.19.34.29.51.21-.07.43-.14.67-.21Z"/><path class="cls-13" d="M167.98 142.57s-.05 0-.06.02c0 0 .02 0 .06-.02ZM176.86 158.22v.27l.43.77c-.06-.16-.3-.83-.43-1.04ZM177.3 159.29c-.01 0-.18.11-.46.27v.02l.46-.28ZM168.31 143.27c-.22.07-.44.14-.65.22.24.42.48.84.71 1.26l.89.21c-.38-.67-.71-1.26-.95-1.69ZM167.92 142.58c-.24.07-.46.14-.67.21.02.04.04.07.06.11.31-.13.54-.24.6-.32Z"/><path class="cls-13" d="M167.65 143.49c.22-.08.44-.14.65-.22l-.38-.68c-.07.08-.3.19-.6.32.11.2.22.39.34.59ZM169.44 145.24c.06 0 .12-.02.19-.03.37-.04.68.35.68.68 0 .21-.09.36-.22.48l.72 1.25h.05c.61-.02.79.63.54 1.04l5.46 9.54c.13.22.37.89.43 1.04v.03h.01s-.17.11-.46.28v.76c.13-.08.27-.17.42-.24.45.67.91 1.34 1.4 1.98.22.29.59.44.93.24.29-.17.47-.64.24-.93-1.62-2.15-3.01-4.47-4.36-6.8-1.62-2.79-3.18-5.62-4.75-8.44-.58-1.04-1.17-2.07-1.76-3.1-.16.05-.33.11-.49.16.36.64.77 1.59.97 2.03Z"/><path class="cls-13" d="M169.44 145.24c-.2-.44-.62-1.38-.97-2.03-.05.02-.11.04-.16.05.24.43.57 1.02.95 1.69h.02l.16.28Z"/><path class="cls-13" d="M167.98 142.57c.11.03.28.29.48.65.16-.05.33-.11.49-.16-.12-.22-.24-.43-.37-.65-.22.06-.43.11-.61.16Z"/><path class="cls-13" d="M167.98 142.57s-.04.01-.06.02.15.26.38.68c.05-.02.11-.04.16-.05-.2-.36-.37-.62-.48-.65ZM152.79 179.73l-1.76 1.4s-.18-.87-.5-1.86c-.14-.04-.29-.07-.43-.11a.705.705 0 0 1-.47-.84c.04-.19.17-.33.34-.41-.21-.36-.56-.94-.96-1.53-.88-1.15-2.07-2.45-3.33-3.31-1.55-1.07-4.5-3.17-5.14-3.89-.51-.58-1.24-1.67-1.77-2.1-.18-.07-.35-.12-.49-.16-.42.06-.97.48-1.17.99.07.1.14.21.21.31.17.25.09.59-.11.81.42 1.22 1.44 3.28 1.73 3.86.37.74 2.19 2.29 2.21 2.82.02.53 0 1.45 0 1.45s-2.11-1.48-2.74-2.14c-.63-.66-1.01-2.45-1.1-3.07-.08-.62-.58-2.07-.59-2.72-.15 0-.29-.05-.41-.14 0 .14.02.28.03.41v.02a.77.77 0 0 0-.01.37c.13.72.21 1.42.31 2.14.1.77.15 1.62.42 2.35.17.46.43.83.83 1.11.31.22.67.34 1.01.5.75.36 1.26 1.01 1.77 1.64.1.12.24.18.4.19.24.83.36 1.7.34 2.56-.01.87 1.34.87 1.36 0 .04-2.51-.9-4.9-2.55-6.77-.77-.88-1.66-1.69-2.14-2.78-.22-.51-.36-1.07-.4-1.63-.02-.29 0-.57.01-.86 0-.11 0-.07.03-.21l.06-.22c0-.01.05-.13.05-.13l.09-.15.07-.07c-.03.03.12-.05.02-.02.01 0 .03-.02.04-.02h.07s-.05-.02 0 0c.01 0 .07.02.1.03.06.03.12.07.17.1.34.26.64.76.93 1.15.72.92 1.59 1.69 2.52 2.4 1.84 1.41 3.98 2.5 5.57 4.2.77.82 1.46 1.77 1.97 2.78.23.46.37.81.54 1.33.19.59.34 1.19.47 1.8.05.24.25.41.48.47.02 0 .04 0 .06.01h.03c.15.03.3 0 .43-.09.02-.02.04-.03.06-.05 0 0 .01 0 .02-.01.84-.63 1.65-1.28 2.45-1.94-.11.08-.24.12-.37.11l-.74-.09Zm-14.8-12.18ZM171.49 163.08c-.95.75-4.35 3.73-6.95 6.05-1.86 1.69-3.55 3.24-4.47 4.11-2.07 1.93-4.9 4.46-6.03 5.46.11.11.17.26.18.45 0 .21-.11.43-.29.56 2.58-2.14 5.01-4.45 7.44-6.75 3.22-3.04 6.7-6.38 10.36-9.2 1.63-1.26 3.33-2.42 5.13-3.43v-.76c-1.15.71-4.21 2.61-5.35 3.51ZM168.59 142.41v-.01c-.3.09-.51.15-.6.17.18-.05.38-.11.61-.16Z"/><path class="cls-13" d="M167.98 142.57c-.04.01-.06.02-.06.02.02 0 .04-.01.06-.02ZM170.08 146.38s-.01.02-.02.02c.23.41.47.83.69 1.23h.05l-.72-1.25ZM176.86 158.22l-5.46-9.55c0 .01-.01.03-.02.04l1.51 2.69c1.4 2.43 3.85 6.61 3.97 6.81ZM169.28 144.97h-.02c.05.09.11.19.16.28h.02l-.16-.28Z"/><path class="cls-13" d="M153.53 179.14s6.58-5.95 8.12-7.4c.51-.48 1.6-1.47 2.89-2.62 3.47-3.15 7.55-6.77 8.41-7.28 1.01-.59 3-1.77 3.89-2.29v-1.07l-3.96-7.08c-.26-.46-.49-.86-.66-1.15-.33-.59-.88-1.56-1.47-2.62h-.1l-.76-1.14c.06-.03.12-.06.17-.1-.17-.31-.35-.62-.51-.92l.07.61s-.18.03-.46.07c2.32 4.16 4.58 8.36 7.11 12.4.08.13.16.26.24.38-3.71 2.01-7.02 4.74-10.16 7.53-3.48 3.09-6.78 6.37-10.22 9.49a90.5 90.5 0 0 1-4.22 3.62c.29.05.58.1.87.14l.74-.59ZM136.71 169.23c.12 0 .23-.01.34-.08.05-.03.09-.08.13-.12-.12-.34-.19-.61-.18-.77 0-.12.04-.23.08-.35-.02-.02-.03-.05-.05-.07.25-.48.6-1.03.87-1 .08 0 .21.04.35.08.05 0 .09-.02.14-.01.1 0 .22.07.35.18.66.26 1.47.73 1.82 1.48.54 1.15 2.1 2.38 2.99 3.02.89.64 2.95 2.01 3.97 2.94.45.41.98 1.14 1.46 1.86.2.27.4.53.57.77.39.56.72 1.38.96 2.13.26.07.51.13.77.19-.17-.57-.36-1.13-.61-1.67-.47-1.01-1.09-1.86-1.77-2.7-1.6-1.98-3.86-3.2-5.89-4.68-.95-.7-1.87-1.47-2.61-2.39-.7-.86-1.49-2.25-2.84-1.75-.84.31-1.16 1.16-1.25 2.02.23.42.39.76.39.92v.02Z"/><path class="cls-13" d="M169.55 145.48c-.04-.08-.09-.16-.13-.24-.24.03-.47.07-.71.1.15.27.31.54.46.82.28-.05.46-.07.46-.07l-.07-.61ZM177.29 159.26l-.43-.77v1.07c.26-.16.43-.26.44-.27 0 0 0-.01-.01-.03ZM177.3 159.28v-.03.03ZM170.85 147.63h-.05l.59 1.04c.24-.41.07-1.06-.54-1.04Z"/><path class="cls-13" d="M170.08 146.38c.13-.12.22-.28.22-.48 0-.33-.31-.72-.68-.68-.06 0-.12.02-.19.03v.01l.64 1.12ZM169.44 145.26v-.01ZM149.61 178.32c-.08.36.11.73.47.84l.43.12c-.25-.75-.57-1.57-.96-2.13-.17-.24-.36-.5-.57-.77.39.59.74 1.17.96 1.53-.17.08-.3.23-.34.41ZM137.3 168.22c-.07-.1-.14-.21-.21-.31-.04.11-.08.23-.08.35 0 .16.06.43.18.77.2-.21.28-.56.11-.81ZM154.21 179.14a.68.68 0 0 0-.18-.45c1.13-1 3.96-3.53 6.03-5.46.92-.86 2.61-2.42 4.47-4.11a177.2 177.2 0 0 0-2.89 2.62c-1.54 1.45-8.12 7.4-8.12 7.4l-.74.59c.24.03.49.07.74.09.13.01.26-.03.37-.11l.01-.01c.18-.13.3-.35.29-.56ZM136.3 169.08c.12.09.26.14.41.14v-.02c0-.17-.16-.51-.39-.92-.03.27-.04.54-.02.8ZM138.4 166.9s-.09 0-.14.01c.15.04.31.09.49.16-.13-.1-.25-.17-.35-.18ZM171.4 148.67l-.59-1.04h-.05c.59 1.06 1.14 2.03 1.47 2.62.17.29.39.7.66 1.15l-1.51-2.69s.01-.03.02-.04Z"/><path class="cls-13" d="M169.44 145.26c.05.11.09.19.1.22.17.3.34.6.51.92 0 0 .01-.02.02-.02l-.64-1.12Z"/><path class="cls-13" d="m169.54 145.47-.1-.22s-.01-.01-.02-.01c.04.08.09.16.13.24Z"/><path class="cls-5" d="M70.48 117.44c.2.18.25.5.14.75l21.65 18.57c.05-.05.1-.1.16-.13.16-.1.35-.11.52-.07.16.04.32.17.41.31.05.08.08.16.08.25.02.09.02.18-.01.27v.03a33.69 33.69 0 0 0 4.68-2.28c.02-.01.05-.02.07-.03.12-.05.23-.12.33-.19.09-.08.17-.16.25-.25.07-.1.13-.21.19-.32.05-.14.09-.28.11-.42.02-.17.17-.32.31-.41.16-.1.35-.11.52-.07.01 0 .03.01.04.02-1.78-1.51-3.55-3.03-5.32-4.55-.02.28-.18.54-.48.62-.33.09-.77-.11-.84-.47-.08-.45-.2-.9-.35-1.33-.04-.1-.08-.21-.12-.31 0-.02-.01-.03-.01-.03v-.02c-.35-.3-.7-.61-1.06-.91-.54-.46-1.07-.93-1.61-1.39-.44.04-.87.07-1.3.08-1.31.03-2.68-.23-3.83-.88-.46-.26-.83-.59-1.09-1.04-.29-.51-.52-1.11-.16-1.65.2-.3.5-.44.82-.56.24-.09.39-.14.59-.23-1.88-1.61-3.75-3.22-5.65-4.81a.795.795 0 0 0-.54-.19.941.941 0 0 0-.41-.03c-2.88.5-5.76.95-8.65 1.36-.17.02-.31.15-.39.3a.7.7 0 0 1 .92.02Z"/><path class="cls-5" d="M69.64 118.41c2.9 2.42 5.76 4.87 8.63 7.32 3.11 2.66 6.22 5.33 9.35 7.98 1.53 1.3 3.06 2.6 4.6 3.89.16.22.46.35.73.26 2.44-.81 4.79-1.88 7.01-3.18h.01c.02-.01.04-.03.06-.04.15-.11.23-.26.25-.41.04-.22 0-.46-.18-.61-.06-.05-.12-.1-.17-.15-.01 0-.03-.01-.04-.02-.17-.04-.37-.03-.52.07-.14.09-.29.24-.31.41-.02.14-.06.28-.11.42-.05.11-.12.22-.19.32-.08.09-.16.17-.25.25-.1.07-.21.14-.33.19-.02.01-.05.02-.07.03-1.5.88-3.06 1.63-4.68 2.28v-.03c.03-.09.03-.18.01-.27 0-.09-.03-.18-.08-.25-.08-.14-.24-.28-.41-.31-.17-.04-.37-.03-.52.07-.05.04-.11.08-.16.13l-21.65-18.57c.11-.25.06-.57-.14-.75a.678.678 0 0 0-.92-.02.79.79 0 0 0-.1.42c-.03.21.02.44.19.57Z"/><path class="cls-13" d="M85.27 121.81c-.22.22-.52.24-.78.12-.12.27-.23.57-.23.76 0 .42.24.55 1.21 1.06.64.33 1.84.65 2.58.83a.67.67 0 0 1 .18-.33c.27-.27.68-.24.96 0 .32.28.64.55.96.83.27-.02.54-.05.8-.09 0 0 .01 0 .02.01.05.04-.02-.02.06.04.09.07.18.15.26.22.17.15.33.31.48.47.29.32.45.53.69.94.1.18.2.36.29.55.02.05.05.1.07.15l1.8 1.56v-.22c-.18-.97-.5-1.93-1.01-2.78-.29-.49-.64-.93-1.04-1.33.72-.32.36-1.54-.44-1.28-.91.3-1.78.39-2.71.44-.47.03-.94.04-1.4 0-.03 0-.2-.02-.23-.02-.09-.01-.18-.03-.27-.05a6.33 6.33 0 0 1-.95-.25 4.426 4.426 0 0 1-.98-.45c-.05-.03-.1-.06-.15-.1-.02-.01-.03-.02-.05-.04l-.02-.02c-.03-.03-.13-.14-.14-.14-.04-.06-.09-.13-.12-.2-.04-.08-.08-.15-.12-.23.01 0 .03 0 .04-.01.3-.1.59-.23.88-.35.59-.25 1.19-.48 1.79-.68.64-.22 1.3-.42 1.95-.58.6-.16 1.26-.35 1.88-.22.57.11 1.06.44 1.54.74.59.37 1.17.74 1.76 1.11 1.16.73 2.33 1.45 3.47 2.2.99.65 1.94 1.37 2.7 2.29.07.08.14.17.21.26.02.03.05.06.07.09-.09-.12.03.04.04.05.14.19.28.38.41.58.29.43.55.88.78 1.34.54 1.09.89 2.31.97 3.55.01.2.1.38.23.5l.03.03c.02.01.03.03.05.04.01 0 .02.02.03.03 2.25 1.47 4.67 2.59 7.21 3.45 1.47.5 2.96.98 4.47 1.34 1.57.37 3.16.63 4.75.91 1.75.31 3.5.66 5.21 1.17l.24-1.35c-3.02-.89-6.15-1.23-9.22-1.91-1.53-.34-3.03-.8-4.52-1.29-1.21-.4-2.44-.84-3.56-1.35-1.24-.56-2.43-1.23-3.57-1.96-.23-2.25-1.18-4.31-2.57-6.09-.78-1-1.74-1.8-2.78-2.52-1.19-.82-2.44-1.57-3.67-2.35-.65-.41-1.29-.82-1.94-1.23-.58-.37-1.19-.75-1.87-.92-.8-.2-1.61-.06-2.39.13a26.964 26.964 0 0 0-4.28 1.44c-.05.02-.08.04-.12.05a.5.5 0 0 1 .08.07c.28.24.24.72 0 .96Zm-.39.53s-.01 0-.02.01c0-.01.01-.02.03-.02Z"/><path class="cls-13" d="M125.7 140.19c.84.26 1.19-1.05.36-1.31-.12-.04-.25-.07-.37-.1l-.24 1.35c.08.02.16.04.24.07ZM92.82 127.37v.02s0 .02.01.03c.04.1.08.21.12.31.15.44.26.88.35 1.33.07.36.5.57.84.47.3-.08.46-.34.48-.62l-1.8-1.56ZM83.78 121.56c-.36.54-.13 1.14.16 1.65.26.46.64.78 1.09 1.04 1.15.66 2.52.91 3.83.88.43 0 .86-.04 1.3-.08-.32-.28-.64-.55-.96-.83-.28-.24-.69-.27-.96 0-.09.09-.15.21-.18.33-.75-.18-1.94-.5-2.58-.83-.97-.51-1.21-.64-1.21-1.06 0-.19.11-.49.23-.76.25.12.56.1.78-.12.24-.24.28-.72 0-.96a.5.5 0 0 1-.08-.07c-.2.08-.36.14-.59.23-.32.12-.63.26-.82.56ZM117.65 151.65c-.97-.5-1.94-1.01-2.91-1.53-3.34-1.79-6.63-3.66-9.92-5.55-1.64-.94-3.28-1.89-4.92-2.83-.12-.17-.33-.27-.55-.29-1.66-.12-3.32-.28-4.98-.49-1.56-.2-3.14-.4-4.67-.8-1.31-.35-2.61-.88-3.64-1.77-.48-.42-.89-.88-1.2-1.43-.35-.61-.55-1.33-1.1-1.81-.58-.52-1.36-.73-1.93-1.25-.43-.4-.76-.87-.96-1.41.58-.01 1.17-.11 1.73-.29-.43-.36-.87-.73-1.3-1.1-.21.02-.42.04-.65.03-.6-.01-1.2-.14-1.72-.45-.08-.04-.15-.09-.22-.14-.08-.05-.03-.01-.07-.05-.04-.03-.07-.07-.11-.11-.02-.02-.1-.11-.11-.13-.02-.03-.09-.12-.1-.14-.02-.04-.05-.08-.07-.11 0-.02.02-.07.03-.09.04-.09.12-.18.16-.27.09-.1.18-.19.28-.28.01-.01.11-.09.12-.1.04-.03.08-.06.13-.09l-1.08-.9c-.15.13-.28.26-.4.39-.51.58-.83 1.39-.39 2.1.52.85 1.38 1.35 2.32 1.59 0 .07 0 .14.02.22.2.72.56 1.37 1.05 1.94s1.09.94 1.74 1.28c.27.14.55.29.74.53.22.28.34.64.49.95.31.64.74 1.23 1.24 1.73 2.28 2.31 5.64 2.79 8.71 3.2 1.86.25 3.72.45 5.59.59.04.03.08.07.13.1 3.08 1.77 6.14 3.55 9.23 5.29 3.3 1.86 6.62 3.69 10.01 5.38.12.06.24.11.36.17-.67-.56-1.05-1.31-1.1-2.07ZM123.37 155.6c-.28-.2-.58-.38-.91-.5-.64-.24-1.32-.36-1.98-.54.91.43 1.82.85 2.74 1.25.04 0 .08.01.12.02 0-.08.02-.15.02-.23Z"/><path class="cls-13" d="M83.34 131.27c-.09-.33-.49-.6-.84-.47-.42.16-.81.25-1.2.3.43.36.87.73 1.3 1.1.09-.03.18-.05.27-.09.34-.13.58-.46.47-.83ZM78.99 129.14s.07-.04.11-.06c.84-.02.84-1.35-.03-1.35-.42 0-.83.23-1.16.52l1.08.9H79ZM123.74 155.91c-.12-.11-.24-.21-.37-.3 0 .08-.02.15-.02.23.12.02.24.03.35.06.01 0 .03.01.05.02Z"/><path class="cls-11" d="M119.12 153.99c.43.27.89.44 1.37.57-.58-.28-1.16-.55-1.73-.84.11.1.23.19.36.27ZM123.69 160.65c.3-.32.77-1.05 1.28-1.47-.6 5.01-.87 10.06-.79 15.11.02 1.15 1.81 1.16 1.8 0-.08-5.18.19-10.36.84-15.49.21.46.39.96.5 1.13.56.83 1.33 1.45 2.12 2.05 1.12.85 2.5 1.7 3.87 1.59-.23-.59-.45-1.19-.65-1.79-.76-.14-1.45-.69-2.04-1.14-.62-.47-1.3-.97-1.75-1.61a4.58 4.58 0 0 1-.39-.69c1.2.43 2.41.87 3.6 1.32-.02-.07-.04-.14-.05-.21-.28-1.09-.53-2.2-.72-3.32-1-.05-2-.2-3-.25.94-.64 1.76-1.47 2.68-2.13-.07-.68-.11-1.36-.12-2.04-1.01.58-1.88 1.42-2.81 2.15a8.324 8.324 0 0 0-2.81-3.79c-.34-.26-.73-.5-1.15-.72-.08.64-.17 1.28-.24 1.93.14.09.28.19.39.28 1.29.99 2.12 2.42 2.41 4.01.03.14.09.26.18.36-.06 0-.13 0-.19.02a.7.7 0 0 0-.37.16h-.18c-.58-1.05-1.43-1.91-2.52-2.45l-.09.81c.27.12.53.24.8.35.34.14.41.64.24.93-.2.35-.59.39-.93.24l-.27-.12c-.06.59-.11 1.18-.16 1.77.13.03.25.05.38.09.12.04.24.08.35.12-.29.24-.56.52-.82.81-.08.95-.16 1.89-.23 2.84.29-.27.58-.54.84-.83Z"/><path class="cls-7" d="M132.02 159.44c.02.07.04.13.05.2.15.06.31.11.46.17.47.19 1.36.51 1.5 1.08.16.65-.76.94-1.25.89-.04 0-.08-.02-.13-.02.19.61.41 1.2.65 1.79.54-.05 1.08-.24 1.59-.64 1.72-1.36.83-3.47-.84-4.36-.49-.26-1.01-.47-1.53-.66.66-.03 1.31-.14 1.97-.42 1.74-.74 3.04-2.78 2.2-4.65-.75-1.64-2.72-2.05-4.34-1.71-.54.11-1.03.33-1.5.59.01.68.05 1.36.12 2.04.33-.24.67-.45 1.04-.63.86-.42 2.55-.62 3.06.46.73 1.56-1.54 2.49-2.67 2.56-.37.02-.74.01-1.1 0"/><path class="cls-11" d="M123.34 155.83s-.08-.01-.12-.02c.04.02.08.03.11.05v-.03Z"/><path class="cls-14" d="M123.37 155.6c.04-.38.08-.77.13-1.15-1.98-.87-3.92-1.81-5.84-2.8.06.76.43 1.51 1.1 2.07.57.28 1.15.56 1.73.84.66.18 1.34.3 1.98.54.32.12.63.29.91.5Z"/><path class="cls-11" d="M123.74 155.91s-.03-.01-.05-.02c-.11-.03-.23-.04-.35-.06v.03l.27.12c.34.14.73.1.93-.24.17-.28.1-.78-.24-.93-.27-.11-.53-.24-.8-.35-.04.38-.09.77-.13 1.15.13.09.25.19.37.3ZM151.13 147c.08-.13.13-.28.12-.47-.08-5.18.19-10.36.84-15.49.21.46.39.96.5 1.13.56.83 1.33 1.45 2.12 2.05.8.61 1.73 1.22 2.69 1.47a5.796 5.796 0 0 1 .8-1.65h-.14c-.81-.09-1.54-.69-2.17-1.16-.62-.47-1.3-.97-1.75-1.61a4.58 4.58 0 0 1-.39-.69c1.36.49 2.72.97 4.06 1.5.16.06.38.15.59.25-.52-1.3-1-2.61-1.42-3.95-1.14-.02-2.27-.2-3.41-.25 1.28-.86 2.32-2.09 3.71-2.76.86-.42 2.55-.62 3.06.46.6 1.28-.82 2.14-1.97 2.44.19.58.38 1.15.58 1.72.27-.06.54-.15.81-.26 1.74-.74 3.04-2.78 2.2-4.65-.75-1.64-2.72-2.05-4.34-1.71-1.73.36-2.96 1.68-4.31 2.74a8.324 8.324 0 0 0-2.81-3.79c-1.64-1.23-4.27-2.19-6.18-1.02-1.99 1.22-1.82 3.73.06 4.94 1.02.65 2.24.69 3.34 1.11.47.18.91.46 1.28.8-.02 0-.03-.01-.05-.02-.49-.12-1.01-.18-1.52-.16-1.05.04-2.11.35-2.98.96-1.58 1.09-2.6 3.08-2.42 5.01.09.93.56 1.81 1.54 2.03 1.03.23 2.06-.42 2.88-.96.91-.6 1.76-1.31 2.49-2.12.3-.32.77-1.05 1.28-1.47-.6 5.01-.87 10.06-.79 15.11 0 .45.29.73.62.82.21-.05.41-.11.62-.18.15-.05.28-.12.43-.18Zm-3.43-15.38c-.63.7-1.34 1.32-2.13 1.84-.37.25-.77.52-1.19.67-.44.16-.51.05-.55-.38-.15-1.66 1.03-3.3 2.59-3.8.79-.25 1.63-.25 2.41 0 .12.04.24.08.35.12-.53.44-1 1.01-1.48 1.54Zm.64-5.96c-.79-.3-4.87-.87-3.41-2.55 1.12-1.29 3.52-.13 4.58.69 1.29.99 2.12 2.42 2.41 4.01.03.14.09.26.18.36-.06 0-.13 0-.19.02a.7.7 0 0 0-.37.16h-.18c-.67-1.22-1.69-2.17-3.03-2.68Z"/><path class="cls-11" d="M160.78 134.49c.82-1.31-.03-2.94-1.44-3.69-.03-.02-.06-.03-.1-.05.08.2.15.41.23.61.41 1.05.85 2.09 1.31 3.13Z"/><path class="cls-14" d="M158.2 134.04c-.22.32-.4.65-.56 1-.09.21-.17.43-.24.65.78.21 1.57.19 2.33-.24-.25-.55-.49-1.1-.72-1.65-.24.16-.55.24-.81.24Z"/><path class="cls-11" d="M151.13 147c-.14.06-.28.13-.43.18-.21.07-.42.13-.62.18.38.11.84 0 1.05-.35ZM157.68 128.37c-.23.01-.46 0-.69 0 .42 1.34.9 2.65 1.42 3.95.33.16.67.36.83.64.57-.16 1.18.61.66 1.14-.05.05-.1.11-.15.16l.46.88c.24-.2.43-.41.57-.64-.46-1.03-.9-2.07-1.31-3.13-.08-.2-.15-.41-.23-.61-.46-.24-.94-.44-1.44-.62.39-.02.77-.07 1.15-.16-.2-.57-.4-1.15-.58-1.72-.25.07-.49.11-.7.12Z"/><path class="cls-11" d="m160.21 135.13-.46-.88c.05-.05.1-.11.15-.16.52-.53-.09-1.3-.66-1.14.04.06.06.12.08.19.07.29-.08.5-.3.65l.72 1.65c.15-.08.29-.17.43-.29.01 0 .02-.02.03-.03ZM176.15 107.4c.06.16.06.33.01.48.06 0 .11 0 .17-.01-.05-.13-.09-.27-.14-.4-.01-.03-.03-.05-.04-.07ZM176.82 111.73c.17.64.32 1.24.44 1.72l.02.02c.21-.05.42-.14.63-.24-.15-.62-.3-1.24-.47-1.85-.14.17-.37.29-.61.35ZM175.88 108.24l-.1.03c.18.5.36 1.07.54 1.66.27.11.59.25.84.44-.23-.79-.49-1.57-.77-2.34-.08-.03-.16-.07-.25-.1-.05.12-.13.23-.26.31Z"/><path class="cls-11" d="M168.75 100.06c-1.64-1.23-4.27-2.19-6.18-1.02-1.16.71-1.58 1.86-1.36 2.94.71.03 1.41.13 2.11.28-.48-.35-.67-.81-.15-1.41 1.12-1.29 3.52-.13 4.58.69 1.29.99 2.12 2.42 2.41 4.01.03.14.09.26.18.36-.06 0-.13 0-.19.02a.7.7 0 0 0-.37.16h-.18c-.57-1.03-1.39-1.87-2.45-2.41.24.2.3.58.15.84-.19.33-.6.41-.93.24-1.38-.68-2.91-1.19-4.44-1.37.2.22.42.42.69.59 1.02.65 2.24.69 3.34 1.11.47.18.91.46 1.28.8-.02 0-.03-.01-.05-.02-.49-.12-1.01-.18-1.52-.16-1.05.04-2.11.35-2.98.96-1.58 1.09-2.6 3.08-2.42 5.01.09.93.56 1.81 1.54 2.03 1.03.23 2.06-.42 2.88-.96.91-.6 1.76-1.31 2.49-2.12.3-.32.77-1.05 1.28-1.47-.6 5.01-.87 10.06-.79 15.11.02 1.15 1.81 1.16 1.8 0-.08-5.18.19-10.36.84-15.49.21.46.39.96.5 1.13.56.83 1.33 1.45 2.12 2.05 1.06.81 2.35 1.61 3.64 1.6-.14-.61-.3-1.21-.46-1.81-.74-.15-1.42-.69-2-1.13-.62-.47-1.3-.97-1.75-1.61a4.58 4.58 0 0 1-.39-.69c1.18.42 2.35.85 3.52 1.3-.19-.6-.4-1.2-.63-1.79-.13-.34.15-.75.47-.84.35-.1.65.1.79.4-.01-.03-.01-.06-.03-.09-.19-.4-.4-.79-.6-1.19-1.25.01-2.47-.19-3.71-.25.85-.58 1.61-1.32 2.43-1.95-.32-.49-.65-.98-1-1.46-.57.45-1.11.93-1.68 1.38a8.324 8.324 0 0 0-2.81-3.79Zm-2.81 9.31c-.63.7-1.34 1.32-2.13 1.84-.37.25-.77.52-1.19.67-.44.16-.51.05-.55-.38-.15-1.66 1.03-3.3 2.59-3.8.79-.25 1.63-.25 2.41 0 .12.04.24.08.35.12-.53.44-1 1.01-1.48 1.54Z"/><path class="cls-11" d="m177.28 113.48-.02-.02c-.12-.48-.27-1.08-.44-1.72-.19.05-.37.07-.52.05-.06 0-.11-.02-.17-.03.16.6.31 1.21.46 1.81.23 0 .46-.03.69-.09ZM176.32 109.93c-.18-.59-.36-1.16-.54-1.66l.1-.03c.13-.08.21-.19.26-.31-.03-.01-.07-.03-.1-.04h.12c.05-.15.04-.32-.01-.48-.15-.3-.45-.5-.79-.4-.33.09-.61.49-.47.84.23.59.43 1.19.63 1.79.18.07.36.13.54.2.08.03.17.07.27.11ZM167.31 104.52a.69.69 0 0 0-.15-.84c-.19-.1-.38-.19-.59-.27-.51-.19-2.38-.5-3.26-1.15-.7-.15-1.4-.25-2.11-.28.1.51.35 1 .73 1.41 1.53.18 3.07.68 4.44 1.37.33.16.74.09.93-.24Z"/><path class="cls-14" d="m141.31 93.77-.42-1.76c-.03-.14-.07-.28-.1-.43.33-.32.18-.84-.15-1.06-.09-.03-.18-.06-.28-.09-.12-.01-.26 0-.39.09-.59.35-1.09.53-1.76.73-.73.22-1.48.39-2.24.52-1.31.23-3.04.53-4.3-.05-.7-.32-1.2-.84-1.65-1.48-.5-.75-.97-1.5-1.43-2.27-.19.04-.38.07-.57.09-.38.04-.66-.34-.68-.68-.02-.34.24-.57.54-.65-.2-.35-.39-.71-.58-1.07 0-.01-.01-.02-.02-.03-.1-.19-.29-.3-.49-.32h-.27l-1.5.32c-.42.09-.93.28-1.36.21-.71-.13-.9-.88-.87-1.47.05-.77.21-1.62.26-2.44.05-.88.06-1.76.11-2.64s.13-1.72.43-2.57c.05-.15.03-.32-.04-.46 0-.02 0-.04-.01-.06-.44-1.44-.83-2.89-1.04-4.39-.18-1.32-.22-2.65-.14-3.98-.45.04-.9.04-1.36.03-.17 2.96.35 5.86 1.22 8.69-.55 1.73-.43 3.65-.53 5.43-.02.42-.06.92-.11 1.28-.06.46-.16.93-.15 1.4.02 1.07.63 2.04 1.65 2.42.62.23 1.26.08 1.89-.05l1.38-.29c.77 1.43 1.61 2.82 2.5 4.18l.02.02c.49.69 1.05 1.34 1.79 1.77.8.47 1.74.66 2.67.67.83 0 1.67-.1 2.49-.23.82-.12 1.61-.29 2.4-.51.45-.12.89-.26 1.33-.43l.09.38c.15.64.31 1.28.46 1.92.11.47.23.95.34 1.42.36.25.93.21 1.43.13-.18-.77-.37-1.54-.55-2.31Z"/><path class="cls-11" d="M140.64 90.52a.66.66 0 0 0-.28-.09c.09.03.18.06.28.09ZM141.51 98.77c.91-.6 1.76-1.31 2.49-2.12.3-.32.77-1.05 1.28-1.47-.6 5.01-.87 10.06-.79 15.11.02 1.15 1.81 1.16 1.8 0-.08-5.18.19-10.36.84-15.49.21.46.39.96.5 1.13.56.83 1.33 1.45 2.12 2.05 1.56 1.19 3.64 2.38 5.46.95 1.72-1.36.83-3.47-.84-4.36-.49-.26-1.01-.47-1.53-.66.66-.03 1.31-.14 1.97-.42 1.74-.74 3.04-2.78 2.2-4.65-.16-.35-.38-.63-.63-.87-.44.4-.89.8-1.34 1.19.14.11.27.25.35.43.73 1.56-1.54 2.49-2.67 2.56-.51.03-1.02 0-1.53-.03-2.1 1.42-4.34 2.6-6.77 3.36-.76.24-1.53.43-2.31.58h-.03c-.06.06-.12.11-.18.17.1.42.2.84.3 1.25.2.85-1.11 1.21-1.31.36-.06-.23-.11-.46-.16-.69l-.11.08c-.37.25-.77.52-1.19.67-.44.16-.51.05-.55-.38-.03-.28 0-.55.04-.83-.37.87-.75 1.73-1.12 2.6.22.21.5.37.84.45 1.03.23 2.06-.42 2.88-.96Zm11.33-2.94c.47.19 1.36.51 1.5 1.08.16.65-.76.94-1.25.89-.81-.09-1.54-.69-2.17-1.16-.62-.47-1.3-.97-1.75-1.61a4.58 4.58 0 0 1-.39-.69c1.36.49 2.72.97 4.06 1.5Z"/><path class="cls-11" d="M140.88 97.83c.2.85 1.51.49 1.31-.36-.1-.42-.2-.84-.3-1.25-.37.33-.76.64-1.18.93.06.23.11.46.16.69ZM133.46 125.39c1.72-1.36.83-3.47-.84-4.36-.49-.26-1.01-.47-1.53-.66.66-.03 1.31-.14 1.97-.42 1.74-.74 3.04-2.78 2.2-4.65-.57-1.25-1.85-1.78-3.14-1.82-.21.61-.41 1.22-.61 1.82.83-.14 1.77-.02 2.12.74.73 1.56-1.54 2.49-2.67 2.56h-.5c-.2.66-.41 1.32-.6 1.98-.11.38-.21.76-.31 1.14.52.19 1.03.38 1.55.58.47.19 1.36.51 1.5 1.08.16.65-.76.94-1.25.89-.81-.09-1.54-.69-2.17-1.16h-.01c-.17.61-.33 1.23-.49 1.84 1.45.98 3.22 1.69 4.78.46ZM177.34 185.61c.2-.15.39-.31.59-.48-.09-.69-.17-1.39-.25-2.09-.19.16-.39.32-.58.49l.24 2.08ZM177.7 188.68s-.03 0-.09.01c.24.09.48.17.71.26.04-.08.07-.17.05-.27v-.04c0-.04 0-.09-.02-.13-.11-.8-.21-1.6-.31-2.4-.22-.02-.44-.04-.65-.05l.31 2.62ZM167.59 189.5l-2.03.12c-.11.3-.18.61-.23.92.61-.04 1.23-.07 1.84-.11.09-.33.24-.64.42-.93ZM174.95 189.03c-.32.04-1.81.14-3.84.26-.07.07-.13.15-.2.22-.21.23-.43.45-.66.67.81-.07 1.62-.13 2.42-.22.06 0 .12-.01.18-.02.19-.23.39-.46.61-.63l-.06.57c.6-.07 1.21-.13 1.81-.2.03-.23.05-.46.08-.69-.12.01-.24.03-.35.04ZM177.36 189.15c-.09-.12-.16-.26-.24-.39-.46.06-1.14.15-1.79.23.1.22.19.45.27.64.65-.08 1.3-.16 1.94-.25-.06-.08-.13-.15-.19-.23ZM173.62 181.64c-.2.1-.39.2-.59.3 1.11.97 1.85 2.29 2.11 3.75.03.14.09.26.18.36-.06 0-.13 0-.19.02a.7.7 0 0 0-.37.16h-.18c-.67-1.22-1.69-2.17-3.03-2.68-.2-.08-.62-.17-1.11-.3-.77.39-1.55.77-2.33 1.14.9.4 1.9.49 2.83.84.47.18.91.46 1.28.8-.02 0-.03-.01-.05-.02-.49-.12-1.01-.18-1.52-.16-1.05.04-2.11.35-2.98.96-.84.58-1.51 1.41-1.94 2.36.73-.04 1.46-.09 2.19-.15.45-.54 1.04-.97 1.71-1.19.79-.25 1.63-.25 2.41 0 .12.04.24.08.35.12-.27.22-.52.48-.76.74 1.77-.17 3.54-.37 5.31-.61-.2-1.5-.39-3-.56-4.51-.4-.94-.97-1.8-1.68-2.53-.36.19-.72.39-1.08.58Z"/><path class="cls-11" d="M165.74 189.18c-.07.15-.13.29-.18.44l2.03-.12c.1-.17.22-.32.34-.47l-2.19.15ZM176.38 183.59c.18 1.5.37 3.01.56 4.51-1.76.24-3.53.44-5.31.61-.18.19-.35.39-.52.58 2.03-.12 3.52-.22 3.84-.26.11-.01.23-.03.35-.04v-.07c0 .02.02.04.03.06.64-.08 1.32-.17 1.79-.23-.05-.1-.1-.19-.15-.29.21.08.43.15.64.23.05 0 .09-.01.09-.01l-.31-2.62c-.2-.02-.4-.04-.6-.04.19-.13.37-.26.55-.4l-.24-2.08c-.18.15-.37.31-.56.46-.05-.13-.1-.27-.16-.4Z"/><path class="cls-13" d="M173.89 179.96c-.09.05-.19.1-.28.15-.61.32-1.23.64-1.85.96a179.54 179.54 0 0 1-4.88 2.42c-1.31.63-2.61 1.25-3.92 1.86-3.03 1.41-6.08 2.78-9.1 4.21.08-.03.16-.05.26-.05h.36c.9 0 1.81 0 2.71-.02 1.78-.82 3.57-1.63 5.35-2.46 1.87-.86 3.73-1.74 5.58-2.63.78-.38 1.55-.76 2.33-1.14.86-.43 1.72-.87 2.58-1.31.2-.1.39-.2.59-.3.36-.19.72-.39 1.08-.58.45-.24.89-.47 1.34-.71-.02-.24-.05-.48-.07-.71v-.1c.04-.32.37-.58.67-.58v-.5c-.91.51-1.83 1.01-2.76 1.5Z"/><path class="cls-11" d="M190.42 135.27h-.01.01zM190.17 136.2c-.29.17-.78.09-.93-.24a.488.488 0 0 1-.03-.07c-.11.05-.25.11-.38.17.1.2.21.41.31.61.35-.15.69-.31 1.04-.47.33-.15.41-.62.25-.91.14.33.09.72-.25.91ZM190.42 135.29v-.02.01ZM180.93 123.85c-1.64-1.23-4.27-2.19-6.18-1.02-1.99 1.22-1.82 3.73.06 4.94 1.02.65 2.24.69 3.34 1.11.47.18.91.46 1.28.8-.02 0-.03-.01-.05-.02-.49-.12-1.01-.18-1.52-.16-1.05.04-2.11.35-2.98.96-1.58 1.09-2.6 3.08-2.42 5.01.09.93.56 1.81 1.54 2.03 1.03.23 2.06-.42 2.88-.96.91-.6 1.76-1.31 2.49-2.12.3-.32.77-1.05 1.28-1.47-.22 1.81-.37 3.63-.5 5.45l1.82-.54c.13-1.76.31-3.53.53-5.28.21.46.39.96.5 1.13.56.83 1.33 1.45 2.12 2.05.31.24.64.48.99.69.39-.15.77-.3 1.16-.46l-.15-.3a.773.773 0 0 1 0-.68c-.29-.19-.57-.41-.83-.6-.62-.47-1.3-.97-1.75-1.61a4.58 4.58 0 0 1-.39-.69c1.36.49 2.72.97 4.06 1.5.47.19 1.36.51 1.5 1.08.02.1.02.19 0 .27.27-.04.53.05.68.31-.51-1.13-1.05-2.25-1.61-3.36-.19-.08-.39-.16-.58-.23.15 0 .31-.02.46-.04-.29-.58-.6-1.15-.91-1.73-1.27.02-2.52-.19-3.78-.25.9-.61 1.69-1.4 2.56-2.04-.29-.52-.59-1.03-.88-1.55-.66.49-1.28 1.06-1.93 1.57a8.324 8.324 0 0 0-2.81-3.79Zm-2.81 9.31c-.63.7-1.34 1.32-2.13 1.84-.37.25-.77.52-1.19.67-.44.16-.51.05-.55-.38-.15-1.66 1.03-3.3 2.59-3.8.79-.25 1.63-.25 2.41 0 .12.04.24.08.35.12-.53.44-1 1.01-1.48 1.54Zm4.22-3.44a.7.7 0 0 0-.37.16h-.18c-.67-1.22-1.69-2.17-3.03-2.68-.79-.3-4.87-.87-3.41-2.55 1.12-1.29 3.52-.13 4.58.69 1.29.99 2.12 2.42 2.41 4.01.03.14.09.26.18.36-.06 0-.13 0-.19.02ZM181.94 138.41c.01-.18.03-.37.04-.55-.6.19-1.21.37-1.82.54-.01.2-.03.39-.04.59.58-.19 1.19-.38 1.81-.58Z"/><path class="cls-11" d="M187.57 136.55c-.09-.19-.19-.38-.28-.56-.38.16-.77.31-1.16.46.21.13.43.26.65.37.31-.1.57-.19.79-.26ZM188.59 135.57l.24.48c.14-.06.27-.12.38-.17.01.02.02.04.03.07.15.33.64.42.93.24.34-.2.39-.58.25-.91v-.01c-.15-.26-.42-.35-.68-.31-.11.42-.72.62-1.14.62ZM187.91 137.25s-.02-.03-.02-.05c-.02 0-.04.02-.06.03.03 0 .06.01.09.02Z"/><path class="cls-2" d="M186.9 136.87c.3.15.62.27.93.35.02 0 .04-.02.06-.03-.1-.21-.2-.41-.31-.61-.22.09-.45.19-.69.29Z"/><path class="cls-11" d="M180.11 139.17c-.01.23-.03.45-.05.68.61-.17 1.21-.35 1.82-.54.02-.26.03-.52.05-.77-.62.21-1.24.42-1.82.63ZM187.58 136.59s-.01-.02-.02-.03c-.22.07-.48.16-.79.26.04.02.08.04.11.06.23-.1.46-.19.69-.29Z"/><path class="cls-11" d="M181.93 138.54v-.14c-.62.2-1.23.4-1.81.58 0 .06 0 .12-.01.18.58-.21 1.19-.42 1.82-.63Z"/><path class="cls-14" d="M188.5 136.95c.06.12.12.26.19.41.25 0 .5-.02.75-.08l-.3-.6c-.21.09-.42.19-.64.28Z"/><path class="cls-14" d="M197.21 156.8c-.27-.5-.64-.94-1.01-1.37-1.5-5.57-3.46-11-5.87-16.25-.29-.64-.59-1.27-.9-1.9-.25.06-.5.08-.75.08-.07-.15-.13-.29-.19-.41.21-.09.43-.18.64-.28-.1-.21-.2-.41-.31-.61l-.24-.48h-.11c-.05 0-.09-.02-.14-.03.06-.03.13-.06.19-.09-.08-.15-.15-.3-.23-.45-.17-.33-.63-.42-.93-.24-.11.06-.18.15-.23.25-.11.2-.12.46 0 .68l.15.3c.1.19.19.38.28.56.18-.06.34-.11.44-.15-.14.06-.28.12-.43.18.1.2.21.41.31.61 0 .02.02.03.02.05a101.12 101.12 0 0 1 6.97 18.54c0 .02.02.04.02.06.02.14.08.27.18.38.4.44.81.91 1.05 1.46.21.49.19.96-.05 1.45-.61 1.26-1.18 2.52-1.74 3.8-.33.75-.69 1.48-1.12 2.19-.19.31-.39.61-.6.91l-.33.45a.55.55 0 0 1-.07.09l-.01.02c-.06.08-.13.16-.2.25-1.03 1.29-2.21 2.46-3.44 3.55-1.41 1.25-2.74 2.26-4.27 3.33-2.46 1.72-5.02 3.28-7.64 4.74v.5c.1 0 .2.03.28.07.22.11.36.34.39.6 2.37-1.33 4.71-2.72 6.95-4.25 3-2.04 5.94-4.32 8.29-7.1.99-1.17 1.89-2.43 2.56-3.81.59-1.22 1.07-2.49 1.65-3.71.3-.62.7-1.24.82-1.92.11-.69-.05-1.41-.39-2.05Z"/><path class="cls-11" d="M188.01 136.41c-.11.04-.27.09-.44.15 0 .01.01.02.02.03.14-.06.29-.12.43-.18Z"/><circle class="cls-14" cx="164.28" cy="157.75" r="2"/><path d="M32.2 73.22c22.23-22.41 42.78-2.34 65.6-5.66.4-1.03.83-2.04 1.31-3.04 1.04-1.83 2.08-3.66 3.05-5.53 1.57-3.01 2.99-6.16 3.67-9.5.67-3.28.61-6.69.04-9.99-1.18-6.89-5.2-13.37-11.07-17.22-7.21-4.73-15.95-3.89-24.16-4.35-4.38-.24-8.64-1.15-12.88-2.23s-8.46-2.29-12.8-2.92c-8.15-1.19-16.75.04-23.66 4.73-6.18 4.2-10.6 11.06-11.14 18.59-.63 8.71 3.61 16.75 5.92 24.91 1.19 4.21 2.01 8.53 3.65 12.6 1.13 2.8 2.67 5.39 4.55 7.74 2.37-2.65 5-5.36 7.93-8.14Z" style="fill:#e8f8f9"/><path class="cls-7" d="M73.01 52.8c-.1-.26-1.5-2.85-4.09-6.08a.546.546 0 0 1-.12-.28c-.3-3.37-.78-5.61-.78-5.61a.925.925 0 0 0-.79-.72l-2.69-.33h-.07a.57.57 0 0 0-.57.57v.93s-.02.03-.04.03h-.02a38.727 38.727 0 0 0-5.44-4.11c-.38-.26-.84-.4-1.33-.4-.5 0-.95.15-1.33.4-9.3 5.74-14.42 15.08-14.62 15.59a.86.86 0 0 0-.09.39c0 .43.3.79.7.89l2.68.52c.36.1.63.41.67.78.02.47.53 11.04 1.16 13.78.1.4.46.69.89.69h.02c1.56-.04 3-.06 4.54-.09h.13c.16 0 .3-.14.3-.3-.06-.93-.2-3.04-.31-5.26v-.18a.601.601 0 0 0-.27-.46c-.8-.48-1.35-1.34-1.41-2.33-.14-3.7-.21-7.99 0-11.34.02-.28.24-.5.53-.51.3 0 .54.23.55.53v.04c-.13 2.23-.14 4.87-.1 7.48 0 .35.3.63.65.63.35 0 .63-.3.63-.65-.05-2.62-.04-5.28.1-7.52.02-.28.24-.5.53-.51.3 0 .54.23.55.53v.04c-.13 2.22-.14 4.85-.1 7.44 0 .35.3.63.65.63.35 0 .63-.29.63-.64-.05-2.61-.03-5.25.1-7.48.02-.28.24-.5.53-.51.3 0 .54.23.55.53v.04c-.19 3.26-.13 7.38 0 11v.13c0 .99-.5 1.86-1.25 2.39-.14.09-.23.24-.24.42 0 0-.07.56.18 3.25.12 1.17.2 1.99.24 2.36.02.14.14.25.28.25h5.59c.14.01.26-.1.28-.24.35-3.22.44-5.04.44-5.04 0-.16-.12-.28-.29-.31l-1.85-.26c-.29-.05-.47-.23-.53-.45-.04-.13-.02-.28-.02-.28.75-10.75 4.29-14.37 4.29-14.37.1-.11.17-.15.17-.15.09-.07.21-.11.33-.11.24 0 .45.15.53.36 0 0 .03.08.05.26.31 3.38.16 9.13-.03 13.62-.16 3.81-.36 6.8-.36 6.8 0 .13.1.23.22.23l3.05.06h.02c.43 0 .79-.29.89-.69.64-2.74 1.14-13.31 1.16-13.78.04-.38.31-.68.67-.78l2.68-.52c.4-.1.7-.46.7-.89a.86.86 0 0 0-.09-.39Z" id="Layer_4"/></g><g id="Outline"><path class="cls-5" d="M155.84 126.3c-.6.27.74 4.54 3 9.53 2.26 4.99 4.58 8.82 5.18 8.54.6-.27-.74-4.54-3-9.53-2.26-4.99-4.58-8.82-5.18-8.54ZM169.12 150.22c.05 0-.04-.71-.96-1.47-.9-.73-2.67-1.3-4.72-.75-1.02.29-2.01.84-2.97 1.55-.96.71-1.87 1.56-2.84 2.39-.96.83-2.02 1.62-3.23 2.14-.6.25-1.24.43-1.89.47-.64.04-1.29-.06-1.9-.3-1.22-.51-2.17-1.55-2.85-2.69-.69-1.14-1.09-2.39-1.44-3.63-.66-2.46-1.25-4.87-2.53-6.54a7.52 7.52 0 0 0-2.03-1.88c-.7-.43-1.39-.66-1.96-.74-1.16-.16-1.76.17-1.74.21.02.11.63-.04 1.64.24.5.14 1.09.41 1.68.84.59.44 1.2 1.04 1.71 1.82.52.76.91 1.72 1.25 2.79.33 1.07.59 2.27.91 3.54.32 1.26.73 2.65 1.49 3.94.74 1.28 1.84 2.54 3.4 3.2.78.32 1.63.44 2.44.39.81-.07 1.57-.28 2.27-.59 1.38-.61 2.52-1.5 3.5-2.38.98-.88 1.84-1.74 2.72-2.43.87-.69 1.76-1.24 2.61-1.53 1.75-.57 3.35-.21 4.21.32.88.55 1.13 1.15 1.23 1.09ZM154.76 109.52c.17-.06.07-.64.19-1.57.13-.92.59-2.24 1.76-3.39.57-.57 1.31-1.09 2.16-1.4.87-.32 1.89-.47 2.97-.42 2.17.1 4.55.97 6.77 2.42.57.34 1.08.74 1.61 1.12.5.42 1.01.8 1.47 1.24.95.84 1.79 1.73 2.57 2.61 1.55 1.77 2.83 3.51 3.9 4.98 2.11 2.97 3.46 4.83 3.76 4.66.27-.16-.54-2.3-2.33-5.56-.91-1.63-2.08-3.53-3.64-5.49-.79-.97-1.66-1.97-2.67-2.92-.49-.49-1.05-.93-1.59-1.39-.58-.43-1.15-.88-1.79-1.26-2.47-1.61-5.31-2.63-8.01-2.61-1.35 0-2.65.28-3.77.8-1.15.53-2.03 1.3-2.66 2.11-1.3 1.62-1.58 3.4-1.42 4.51.18 1.14.62 1.62.74 1.56Z"/></g></svg>