<?xml version="1.0" encoding="UTF-8"?><svg xmlns="http://www.w3.org/2000/svg" xmlns:xlink="http://www.w3.org/1999/xlink" viewBox="0 0 200 200"><defs><style>.cls-1{fill:none;}.cls-2{fill:#ea5e2b;}.cls-3{fill:#e1b6aa;}.cls-4{fill:#9bafb0;}.cls-5{fill:#e2e2e2;}.cls-6{fill:#f6f6f6;}.cls-7{fill:#ea3d25;}.cls-8{fill:#f4b13e;}.cls-9{fill:#ebf2f3;}.cls-10{fill:#ec7140;}.cls-11{clip-path:url(#clippath-1);}.cls-12{clip-path:url(#clippath-2);}.cls-13{fill:#fff;}.cls-14{fill:#f09cb4;}.cls-15{fill:#4d2b4b;}.cls-16{fill:#ef859e;}.cls-17{fill:#bdd5d9;}.cls-18{fill:#d3e6e8;}.cls-19{fill:#4e2d4c;}.cls-20{fill:#d9768d;}.cls-21{fill:#6a4069;}.cls-22{fill:#f5c243;}.cls-23{fill:#ec752f;}.cls-24{fill:#e7e4e0;}.cls-25{clip-path:url(#clippath);}</style><clipPath id="clippath"><path class="cls-1" d="M9.88,102.52s8.63-7.43,29.46-19.95c13.35-8.02,28.68-61.66,96.82-63.53s51.66,85.32,41.71,99.41c-9.95,14.08-27,67.68-93.9,61.03-53.17-5.29-51.3-29.95-60.63-41.66-9.33-11.72-19.98-20.06-13.45-35.3Z"/></clipPath><clipPath id="clippath-1"><path class="cls-1" d="M128.39,176.66c82.7-28.95,43.32-160.5-44.42-147.86-97.37,14.02-123.45,180.21,22.81,166.82,1.4-.13,20.32-18.45,21.61-18.96ZM63.18,176.12l-.06.08s.04-.06.06-.08ZM25.96,153.12c0,.06-.04.07-.06.11-.02-.08-.02-.08.06-.11ZM15.64,100.2s-.05-.09-.04-.14c.11,0,.05.07.04.14ZM15.82,99.35c.11.03.07.1.04.18,0-.07-.01-.13-.04-.18ZM15.49,100.62c.06-.03,0,.07,0,.1,0,0,0-.1,0-.1ZM79.4,41.43s.03-.05.05-.07c0,0-.04.07-.05.07ZM15.94,98.72c.05-.06.04.04.08.08-.02-.04-.07-.05-.08-.08ZM15.45,100.83,60.41,174.61s0,0,0,0c0,.01,0,0,0,0ZM131.44,172.26s-.1.05-.15.08c.04-.04.16-.19.15-.08ZM152.76,137.77c.04-.08.09-.16.13-.23.06.11.05.31-.13.23ZM152.92,137.46c.04-.07.08-.14.11-.21-.02.23-.06.23-.11.21ZM160.29,115.02c-.11,0-.05-.1-.05-.17.04.02.06.06.05.17ZM152.37,82.29c0,.08-.03,0-.05-.03.02,0,.04.01.05.03ZM124.95,51.41c-.07-.08-.25-.15-.26-.23.15.06.23.14.26.23ZM123.48,50c.44.79-.44-.16-.8-.36.19-.21.6.17.8.36ZM74.63,40.25,18.81,90.39l.08-.03c-.01.16,0,.26-.08.03ZM13.87,101.53c.18.08.04.1-.01.26,0-.1,0-.18.01-.26ZM21.76,145.66c.38.58-.75-.54-.23-.58.34-.08.11.74.23.58ZM23.94,150.07s-.06.07-.1.1c0-.05.05-.08.1-.1ZM25.91,152.78c.31-.03.7.34.21.38.11-.19-.26-.21-.21-.38ZM59.78,174.98s0,.01,0,0c.06.02-.02.02,0,0ZM63.43,174.83c.52,0,.41.28.08.6-.24-.16-.14-.36-.08-.6ZM75.96,176.78c.09.02.18,0,.22.09-.16-.02-.22-.05-.22-.09Z"/></clipPath><clipPath id="clippath-2"><path class="cls-1" d="M78.73,108.89c-.76-1.74-2.91-2.3-4.77-2.67-1.95-.24-3.93-.82-5.84-1.27-2.9-.68-5.82-1.25-8.42-2.73-2.63-1.49-5.89-1.8-8.81-2.45-2.23-.49-4.5-.99-6.78-.81-1.42.11-2.95.58-3.7,1.78-.74,1.18-.52,2.74.04,4.02.17.39.37.76.59,1.12-.61,2.61-.88,5.33-1.09,7.98-.16,1.99-.26,3.99-.38,5.98-.49,8.04-1.37,16.19-4.41,23.65-.52,1.27-1.03,2.9-.04,3.85.43.41,1.04.56,1.63.68,2.72.53,5.53.6,8.28.23.36-.05.73-.11,1.03-.31.52-.36.69-1.04.82-1.66,2.19-10.92,3.56-22.08,7.31-32.57.08-.22.16-.44.24-.67,3.37.74,6.76,1.46,9.71,3.21.5.3,1,.65,1.27,1.16.42.8.16,1.78-.09,2.64-1.84,6.17-3.46,12.41-4.85,18.69-.11.48-.2,1.04.1,1.43.18.24.48.36.76.47,1.07.41,2.16.77,3.26,1.08,1.58.44,3.23.78,4.85.54,1.62-.24,3.22-1.16,3.91-2.65.37-.8.45-1.69.53-2.57.47-4.72,1.3-9.41,2.46-14.02.95-3.76,2.13-7.47,2.63-11.31.12-.95.2-1.95-.18-2.83Z"/></clipPath></defs><g id="BG_Strong"><path class="cls-24" d="M10.27,102.47s16.16-11.19,29.07-19.9c12.91-8.71,28.68-62.5,96.82-64.36s51.66,85.32,41.71,99.41c-9.95,14.08-27,67.68-93.9,61.03-53.17-5.29-51.3-29.95-60.63-41.66-9.33-11.72-19.59-19.28-13.06-34.51Z"/></g><g id="Illustrations"><path class="cls-13" d="M141.68,76.87c11.14,2.48,44.15,2.58,52.53-3.48,3.28-8.58-4.73-19.49-13.89-14.7-1.25,1.54-2.39,0-2.97-1.2-4.27-10.93-20.62-4.32-24.89,3.59-8.41-4.4-15.6,10.53-10.78,15.78Z"/><path class="cls-5" d="M95.92,147.57v-.09s.06,0,.09,0l-.09.09Z"/><path class="cls-22" d="M110.79,71.54c-.1.03-1.26.03-1.26.03.11-.85-.1-5.31-.15-6.04-.03-.59-.49-21.29-.51-21.75,0-.11,0-.23,0-.34.25,0,1.31.03,1.57.02.38-.01.34,27.78.35,28.08Z"/><path class="cls-2" d="M118.47,54.86c.99.17,1.89.08,2.91.37s1.88.83,2.87,1.09v.24s-.5.15-.59.22c-.13.11-.13,1.21-.04,1.4.07.15.71.54.87.57.4.09,3.74.86,3.2.83-5.38-.38-9.31-2.26-9.22-3.03.02-.14,0-1.54,0-1.68Z"/><path class="cls-7" d="M132.66,57.92c0,.34-.33.31-.54.44-.08.05-.12.15-.14.16s-.36.08-.42.17l-.59.09v.17c-.14,0-.29,0-.43,0-.27.01-.74.24-.85.25-.1.02-.23,0-.34,0-.14.01-.28,0-.42,0-.26,0-.51-.02-.76.08-.03,0-.06,0-.08,0-.23,0-.11.15-.29.18-.73.09-2.08-.3-2.09-.35.27-.15.56,0,.72,0h2.29c.25,0,1.43-.24,1.68-.35.07-.03.24-.26.43-.35.45-.22,1-.16,1.22-.67l.62.18Z"/><path class="cls-10" d="M128.92,59.19v.17c-.31,0-.51-.06-.76-.08.25-.1.5-.08.76-.08Z"/><path class="cls-23" d="M134.54,47.07c-.24.02-.49.08-.73.12-.24.04-6.53.69-6.56.32-.07-.81,0-1.63.01-2.44,0-.16-.1-.24-.22-.26-.04-.03-.1-.05-.15-.05-1.18-.09-2.39-.29-3.5-.72-1.01-.38-1.94-.95-2.91-1.44-1.8-.92-3.81-.72-4.39-.62-.57.09-1.13.22-1.69.35-.55.13-1.09.27-1.6.49-.6.25-1.11.62-1.61,1.03-.05.04-.07.09-.08.15-.02,0-.04,0-.06,0,0,.03,0,.06,0,.08,0,.05.02.09.02.13-.02.05-.02.11,0,.16.14.77.46,1.49.74,2.23.27.71.46,1.44.57,2.19.21,1.54.03,3.08-.47,4.55-.14.41-.29.82-.4,1.24-.08.32-.35,1.58.47,1.23.39-.17.81-.26,1.22-.37,1.25-.17,2.53-.2,3.79-.14.86.04,1.71.11,2.57.19.44.04.87.09,1.31.14.42.05.85.08,1.27.17.74.16.82.22,1.54.45-.25,1.34-.4,2.6-.18,2.8.2.17,4.34,1.09,6.31.55.94-.26,1.86-.38,2.73-.83.11-.05,1.13-.43.52-.9-.34-.26-2.46-2.33-2.69-2.67-.19-.28-.35-.58-.5-.89.77-1.2,1.81-2.18,2.74-3.24.56-.64,1.06-1.31,1.54-2.01.24-.34.5-.69.7-1.05.09-.17.18-.37.17-.56-.01-.25-.24-.39-.47-.37Z"/><path class="cls-22" d="M110.81,40.66c-.02-.12-.08-.24-.14-.36,0-.02,0-.03,0-.05-.08-.53-.71-.68-1.15-.72-.49-.05-1.05.29-1.16.79-.04.17-.03.35,0,.52,0,.02,0,.04,0,.06h.02c.08.29.24.55.44.74.19.17.43.26.68.26.25,0,.54-.06.77-.17.24-.12.39-.4.48-.64.05-.14.08-.28.05-.43Z"/><path class="cls-13" d="M127.34,44.83c.39,2.64.89,8.64-.77,10.77,1.24-2.06.76-8.16.77-10.77h0Z"/><path class="cls-13" d="M117.18,48.64h0s.31-.5.83-1.06h0s.02-.03.03-.05h0c.1-.61.22-1.02.22-1.02.02-.07.08-.12.15-.12h0l.5-.02h0s0,0,.01,0c.06,0,.1.05.1.11v.17s-.01,0,0,0c0,0,0,0,0,0h0c.31-.24.67-.48,1.05-.68h0c.07-.04.16-.06.25-.06h0c.09,0,.17.04.24.09h0c1.62,1.18,2.43,2.95,2.46,3.05h0s.01.05.01.07c0,.08-.06.14-.14.15l-.5.06c-.07.01-.12.07-.13.13-.01.09-.25,2.01-.4,2.5h0c-.02.07-.09.12-.17.11h0c-.29-.03-.55-.05-.83-.08h-.02s-.05-.03-.05-.06h0c.02-.17.08-.55.13-.96,0-.01,0-.02,0-.03h0s.03-.06.06-.08c.15-.08.27-.23.29-.41.08-.68.15-1.46.16-2.07h0c0-.05-.04-.09-.09-.1-.05,0-.1.03-.11.09h0c0,.42-.04.9-.08,1.38h0c0,.06-.06.11-.13.11-.06,0-.11-.06-.11-.13h0c.04-.48.08-.97.08-1.38,0-.05-.04-.09-.09-.1-.05,0-.1.03-.11.09h0c0,.42-.04.9-.08,1.37h0c0,.06-.06.11-.13.11-.06,0-.11-.06-.11-.13h0c.04-.48.08-.96.08-1.37,0-.05-.04-.09-.09-.1-.05,0-.1.03-.11.09h0c0,.61-.08,1.36-.15,2.02h0s0,.01,0,.02h0c-.01.19.07.35.2.46.02.02.04.05.04.08,0,0,0,.1-.08.59-.04.21-.06.36-.08.43h0s-.03.04-.05.04h-.05s0,0,0,0c-.09,0-.19-.01-.29-.02h-.04c-.13-.01-.25-.02-.37-.03l-.28-.02h0s-.05-.02-.05-.05h0c-.02-.59-.01-.93-.01-.93,0-.03.03-.05.06-.05l.34-.02h0c.05,0,.09-.04.1-.08,0-.02,0-.05,0-.05,0-1.98-.59-2.69-.59-2.69-.02-.02-.03-.03-.03-.03-.02-.01-.04-.02-.06-.02-.04,0-.08.02-.1.06,0,0,0,.01-.01.05-.1.61-.15,1.67-.18,2.49-.02.7-.03,1.25-.03,1.25h0s-.02.04-.04.04h0c-.18-.01-.37-.02-.56-.03h0c-.08,0-.14-.06-.15-.14h0c-.08-.51-.03-2.45-.03-2.54,0-.07-.05-.13-.11-.15l-.48-.13c-.07-.02-.12-.09-.11-.17,0-.03,0-.05.02-.07h0Z"/><path class="cls-9" d="M72.27,141.09v.17c-.16.08-.14-.17,0-.17Z"/><g class="cls-25"><path class="cls-4" d="M110.71,68.09h.71c3.15,2.51,7.16,6.31,10.35,8.34,5.02,3.19,11.18,3.7,15.7,6.87,2.67,1.87,4.25,5.06,6.43,6.97,5.84,5.09,15.9,9.09,22.9,15.18,9.78,8.52,16.09,14.74,10.91,28.22-4.57,11.88-14.86,24.39-23.98,33.14-1.54.34-1.59-.76-2.01-1.83-3.43-8.61-3.7-19.49-7.33-27.97-1.13-2.64-3.76-4.69-3.95-5.22-1.16-3.35,1.74-6.9-2.68-10.01-2.67-1.87-11.84-3.39-12.82-6.21-2.02-5.82,6.32-8.87,1.88-15.98-5.29-8.48-19.62-8.95-22.28-14.38-2.75-5.62,2.39-12.23,4.77-17.12.3.13.98-.09,1.41,0Z"/><path class="cls-17" d="M151.72,164.98c-3.43-8.61-3.7-19.49-7.33-27.97-1.13-2.64-3.76-4.69-3.95-5.22-1.16-3.35,1.74-6.9-2.68-10.01-2.67-1.87-11.84-3.39-12.82-6.21-2.02-5.82,6.32-8.87,1.88-15.98-5.29-8.48-19.62-8.95-22.28-14.38-2.75-5.62,2.39-12.23,4.77-17.12-.36-.16-.7-.11-.71-.71-10.35,13.3-32.75,40.77-53.59,40.9-.64,0-1.26.69-1.41.71-.71.08-2.19.13-2.82,0-4.56-.92-4.87-.38-8.46-.71-.93-.09-4.28-1.75-5.64-2.12-10.95-2.91-12.69-5.94-12.63-18.15-11.52,8.53-28.37,20.71-18.97,38.11,2.97,5.49,8.26,9.24,11.72,14.37,2.16,3.2,3.92,6.87,5.77,10.09,2.63-1.47,5.38-2.45,8.46-2.12-.88,3.53.06,3.63,0,5.64,2.33-.4,4.5.69,6.75.78,1.39.06,2.14-.76,2.42-.78.23-.02.47.03.71,0,1.27-.17,2.66-.75,2.82-.71-.19-2.43,1.02-4.83,1.41-7.05,5.08-.67,9.24.76,14.1,1.41-.08-.42.04-.95,0-1.41,3.78.37,10.57,3.37,13.4-.71,2.28,1.84,4.85,2.55,7.76,2.82,6.14.57,23.06,20.71,23.25,20.83,1.63,1.08,23.5,6.13,30.35,11.61,8.07-3.78,13.39-8,19.74-14.1-1.54.34-1.59-.76-2.01-1.83Z"/><g class="cls-11"><path class="cls-4" d="M121.45,182.69h-40.37c-1.39-.94-2.71-2.01-3.76-3.32-.62-.77-1.12-1.61-1.53-2.49-.18-.38-.34-.76-.48-1.15-.44-1.2-.72-2.46-.89-3.75-.19-1.41-.23-2.84-.18-4.25.02-.68.07-1.35.13-2.03.17-1.82.49-3.63.98-5.39.25-.92.55-1.82.89-2.71.38-.98.81-1.93,1.3-2.86.34-.64.71-1.27,1.1-1.88.44-.68.92-1.34,1.43-1.98.89-1.12,1.88-2.15,2.97-3.08,1.17-1.02,2.46-1.91,3.83-2.64.68-.36,1.91-.88,3.2-1.22.31-.08.65-.2.97-.19.26.01.5.04.76.02.73-.06,1.46-.06,2.18.02.25.03.5.08.71.24.23.18.32.36.3.65-.04.54-.08,1.07-.13,1.61-.15,1.47-.49,2.96-.91,4.38-.34,1.18-.74,2.36-1.08,3.49-.18.62-.35,1.23-.47,1.82-.08.4-.15.86.1,1.19.28.38.83.41,1.31.41,1.03,0,2.09.08,3.1-.11.92-.17,1.39.77,1.74,1.46.22.43.43.89.55,1.35.09.33.12.7.15,1.04.02.28.05.57.17.82.33.68,1.22.87,1.99.85.76-.02,1.58-.15,2.26.2.15.08.3.19.39.33.15.23.14.53.13.8-.03.8-.06,1.6-.1,2.4-.03.83-.07,1.65-.1,2.48,0,.15-.01.31-.02.46,0,.05,0,.1,0,.15-.02.56,0,1.16.38,1.58.29.33.73.47,1.16.55,1.81.33,3.74-.34,5.49.23,1.25.41,2.22,1.4,3.4,1.98.16.08.33.15.5.22,1.41.56,3.02.7,4.27,1.56.17.12.34.25.5.4,1.02.94,1.57,2.34,1.73,3.72.1.87.06,1.75-.04,2.63Z"/><path class="cls-18" d="M139.64,182.09c-.02.24-.17.44-.36.6H4.9v-33.13c.08,0,.15,0,.23-.01,5.24-.29,11.01-.81,14.66-4.58.14-.14.27-.28.4-.43.64-.7,1.26-1.44,2.11-1.83.96-.44,2.06-.38,3.11-.29,2.45.22,4.94.63,7.36.21,2.98-.51,5.66-2.22,8.64-2.71,2.97-.5,5.98.24,8.93.83,6.82,1.37,13.79,1.99,20.75,1.86,6.88-.13,13.97-.98,20.61.54.92.21,1.83.46,2.72.77l.31.11-.19.1c-.17.09-.33.18-.5.27-1.68.92-3.37,1.84-5.05,2.75,0,0,0,0,0,0-.22.12-.44.24-.66.36-.45.24-.94.56-1.26.95-.26.31-.41.67-.35,1.08.1.66.73,1.08,1.31,1.42,1.57.93,3.15,1.86,4.72,2.79.03.02.07.04.11.06,1,.59,2,1.18,3,1.77.71.42,1.47,1.01,1.96,1.67.49.66.7,1.4.33,2.12-.51.97-1.9,1.27-2.31,2.29-.57,1.41,1.11,2.65,2.53,3.17.03.01.07.02.1.04,1.86.68,3.77,1.21,5.71,1.66.3.07.61.14.92.21,1.75.38,3.52.71,5.29,1.04h0c4.02.74,8.03,1.47,11.86,2.83.61.22,1.22.45,1.82.7,2.82,1.18,5.44,2.74,7.95,4.49,2.39,1.66,4.69,3.48,6.97,5.29.33.26.69.59.65,1.01Z"/></g></g><path class="cls-8" d="M69.58,137.96s0,0,0,0h0c-.43.5-.84,1.01-1.28,1.5-.41.46-.87.9-1.42,1.19-.55.29-1.16.4-1.76.23-.36-.1-.71-.28-1.04-.47-.12.16-.33.2-.51.11-.18-.09-.23-.32-.15-.5-.04-.02-.07-.02-.1-.01,0-.04,0-.08-.02-.12-.05-.08-.15-.1-.23-.06h0c-.49.26-.94.61-1.31,1.03-.01.02-.02.04-.03.06-.09-.05-.21-.03-.23.1h0c-.18,1.06-.17,2.15.03,3.21,0,.03.02.06.04.07,0,0,0,.01,0,.02-.1.66-.08,1.33.04,1.98-.09.09-.06.29.11.29l7.82.08,7.79.08,4.39.05c.07.05.17.05.22-.05.23-.48.38-1,.42-1.54.03-.33.05-.79-.19-1.05,0-.07-.03-.14-.11-.17-2.41-.8-4.84-1.55-7.28-2.26-1.2-1.13-2.59-2.06-4.11-2.72,0,0,0-.02,0-.02-.09-.47-.4-.9-.81-1.14,0,0-.01,0-.02,0-.07.06-.15.1-.23.11Z"/><path class="cls-13" d="M81.09,145.51c-.03-.23-4.26.14-9.48-.09-5.22-.2-9.41-.92-9.46-.69-.05.19,4.13,1.27,9.43,1.47,5.29.23,9.55-.5,9.52-.7Z"/><path class="cls-13" d="M70.86,141.79c.15.16.65-.07,1.13-.52s.73-.93.59-1.09c-.15-.16-.65.07-1.13.52-.47.45-.73.93-.59,1.09Z"/><path class="cls-13" d="M72.51,143.28c.14.16.71-.1,1.28-.6.56-.49.9-1.03.76-1.19s-.71.1-1.28.6c-.56.49-.9,1.03-.76,1.19Z"/><path class="cls-8" d="M43.04,145.05s0,0,0,0h0c-.43.5-.84,1.01-1.28,1.5-.41.46-.87.9-1.42,1.19-.55.29-1.16.4-1.76.23-.36-.1-.71-.28-1.04-.47-.12.16-.33.2-.51.11-.18-.09-.23-.32-.15-.5-.04-.02-.07-.02-.1-.01,0-.04,0-.08-.02-.12-.05-.08-.15-.1-.23-.06h0c-.49.26-.94.61-1.31,1.03-.01.02-.02.04-.03.06-.09-.05-.21-.03-.23.1h0c-.18,1.06-.17,2.15.03,3.21,0,.03.02.06.04.07,0,0,0,.01,0,.02-.1.66-.08,1.33.04,1.98-.09.09-.06.29.11.29l7.82.08,7.79.08,4.39.05c.07.05.17.05.22-.05.23-.48.38-1,.42-1.54.03-.33.05-.79-.19-1.05,0-.07-.03-.14-.11-.17-2.41-.8-4.84-1.55-7.28-2.26-1.2-1.13-2.59-2.06-4.11-2.72,0,0,0-.02,0-.02-.09-.47-.4-.9-.81-1.14,0,0-.01,0-.02,0-.07.06-.15.1-.23.11Z"/><path class="cls-13" d="M54.55,152.6c-.03-.23-4.26.14-9.48-.09-5.22-.2-9.41-.92-9.46-.69-.05.19,4.13,1.27,9.43,1.47,5.29.23,9.55-.5,9.52-.7Z"/><path class="cls-13" d="M44.31,148.88c.15.16.65-.07,1.13-.52s.73-.93.59-1.09c-.15-.16-.65.07-1.13.52-.47.45-.73.93-.59,1.09Z"/><path class="cls-13" d="M45.97,150.36c.14.16.71-.1,1.28-.6.56-.49.9-1.03.76-1.19s-.71.1-1.28.6c-.56.49-.9,1.03-.76,1.19Z"/><path class="cls-3" d="M65.17,64.32c.29.02.5-.27.38-.54-.32-.73-.63-1.47-.95-2.2-.08-.18-.18-.55-.32-.84.01-.33.02-.66,0-.99-.04-1.17-.02-2.78-1.42-3.08-.41-.09-.84-.05-1.26,0-.7.09-1.38.26-2.04.51-1.61.6-4.98.73-5.78,2.15-.85,1.5.95,4.45.49,6.11-.05.17-.09.35-.02.51.1.25.41.33.68.38,2.28.42,4.56.84,6.84,1.26.32.06.69.11.94-.1.03-.03.06-.05.09-.09.39-.48.6-1.08.72-1.68l.31-1.6c.44.09.89.15,1.33.18Z"/><path class="cls-20" d="M39.54,119.85c-.49,8.04-1.37,16.19-4.41,23.65-.52,1.27-1.03,2.9-.04,3.85.43.41,1.04.56,1.63.68,2.72.53,5.53.6,8.28.23.36-.05.73-.11,1.03-.31.52-.36.69-1.04.82-1.66,2.19-10.92,3.56-22.08,7.31-32.57.86-2.39,1.84-5.03.92-7.4-.66-1.71-2.21-2.92-3.86-3.73-1.37-.67-2.86-1.12-4.37-1.31-2.29-.29-4.69.65-5.39,2.98-.94,3.09-1.27,6.41-1.52,9.62-.16,1.99-.26,3.99-.38,5.98Z"/><path class="cls-16" d="M73.95,106.22c1.86.37,4.02.93,4.77,2.67.38.88.31,1.88.18,2.83-.5,3.84-1.68,7.56-2.63,11.31-1.16,4.6-1.99,9.29-2.46,14.02-.09.87-.17,1.77-.53,2.57-.68,1.49-2.28,2.41-3.91,2.65-1.62.24-3.27-.1-4.85-.54-1.1-.31-2.19-.67-3.26-1.08-.28-.11-.58-.23-.76-.47-.3-.39-.21-.95-.1-1.43,1.4-6.28,3.02-12.52,4.85-18.69.26-.87.51-1.84.09-2.64-.27-.52-.77-.86-1.27-1.16-3.89-2.31-8.55-2.82-12.92-3.97-4.38-1.15-8.95-3.35-10.74-7.51-.55-1.28-.78-2.84-.04-4.02.76-1.2,2.29-1.67,3.7-1.78,2.28-.18,4.55.32,6.78.81,2.92.64,6.18.96,8.81,2.45,2.61,1.48,5.53,2.05,8.42,2.73,1.92.45,3.89,1.02,5.84,1.27Z"/><g class="cls-12"><path class="cls-14" d="M38.45,110.45c3.24.75,5.83,3.52,5.76,6.96-.09,4.22-3.38,6.36-7.08,7.33-1.46.39-.84,2.65.63,2.27,4.72-1.24,8.72-4.31,8.8-9.6.07-4.44-3.23-8.25-7.48-9.23-1.47-.34-2.1,1.93-.63,2.27h0Z"/><path class="cls-14" d="M32.65,130.96c3.24.75,5.83,3.52,5.76,6.96-.09,4.22-3.38,6.36-7.08,7.33-1.46.39-.84,2.65.63,2.27,4.72-1.24,8.72-4.31,8.8-9.6.07-4.44-3.23-8.25-7.48-9.23-1.47-.34-2.1,1.93-.63,2.27h0Z"/><path class="cls-14" d="M50.05,137.09c-2.98-1.99-4.23-5.95-2.51-9.18,1.85-3.47,5.4-4.03,8.98-3.66,1.5.15,1.49-2.2,0-2.35-4.82-.49-9.49,1-11.46,5.79-1.74,4.23.1,8.96,3.8,11.43,1.26.84,2.44-1.19,1.19-2.03h0Z"/><path class="cls-14" d="M76.64,120.99c-1.59-1.11-2.19-3.26-1.12-4.94,1.05-1.66,2.86-1.79,4.64-1.62,1.5.15,1.49-2.2,0-2.35-2.98-.29-5.85.68-7.09,3.61-1.16,2.74.04,5.69,2.39,7.32,1.24.87,2.42-1.17,1.19-2.03h0Z"/><path class="cls-14" d="M74.66,136.13c-1.59-1.11-2.19-3.26-1.12-4.94s2.86-1.79,4.64-1.62c1.5.15,1.49-2.2,0-2.35-2.98-.29-5.85.68-7.09,3.61-1.16,2.74.04,5.69,2.39,7.32,1.24.87,2.42-1.17,1.19-2.03h0Z"/><path class="cls-14" d="M62.91,124.28c1.62.44,2.9,1.74,2.89,3.5,0,2.31-1.86,3.35-3.84,3.85-1.47.37-.84,2.64.63,2.27,3.02-.77,5.55-2.75,5.57-6.12.01-2.78-2.01-5.05-4.62-5.77-1.46-.4-2.08,1.87-.63,2.27h0Z"/><path class="cls-14" d="M67.94,102.44c-.75,2.66-3.22,4.71-6.08,4.39-3.36-.38-4.83-3.08-5.5-6.08-.33-1.48-2.59-.85-2.27.63.89,4.03,3.34,7.47,7.76,7.81,3.9.3,7.31-2.44,8.35-6.11.41-1.46-1.86-2.08-2.27-.63h0Z"/><path class="cls-14" d="M55.38,115.02c1.15-1.75,3.4-2.67,5.39-1.79,2.35,1.04,2.8,3.32,2.59,5.64-.1,1.14,1.68,1.2,1.78.06.27-3.12-.72-6.16-3.84-7.41-2.75-1.1-5.84.11-7.42,2.53-.63.96.87,1.93,1.5.97h0Z"/></g><path class="cls-23" d="M67.06,66.7c.2.04.42.09.56.24.17.18-4.95,4.9-5.11,5.85-.07.42.03.85.13,1.27,2.19,8.91,3.06,18.14,2.57,27.3-.04.8-.14,1.68-.73,2.22-.34.31-.8.45-1.24.57-5.12,1.45-10.52,1.9-15.8,1.32-2.38-.26-4.89-.81-6.54-2.55-1.07-1.13-1.65-2.64-2.01-4.15-.71-2.97-.7-6.08-.35-9.12.79-6.82,3.32-13.5,7.69-18.8,1.33-1.62,2.88-3.15,4.69-4.24,1.99-1.19,4.94-1.7,7.23-1.42,2.99.37,5.97.89,8.91,1.52Z"/><path class="cls-23" d="M60.57,102.87c-5.87.99-11.98,1.38-17.69-.3-.72-.21-1.44-.46-2.19-.46-.51,0-1.13.21-1.21.72-.04.29.11.56.28.79.77,1,2.04,1.45,3.25,1.79,6.84,1.92,14.33,1.87,20.9-.84.53-.22,1.06-.46,1.49-.83.82-.71,1.22-2.52-.37-2.01-1.48.48-2.92.89-4.46,1.15Z"/><path class="cls-23" d="M47.63,68.11c-2.28-.53-5.54-.6-8.87-.51-1.47.04-5.51.64-5.77,2.09-.69,3.85-1.81,10.56-1.96,12.02-.54,5.04-.94,10.1-.85,15.17.02,1.27.09,2.61.76,3.69.96,1.57,2.92,2.25,4.63,2.7,1.6.42,3.24.71,4.89.89,2.77.31,5.68.62,8.45.17,0,0,0,0-.01-.01-.81-.92-1.08-2.02-1.23-3.16-.05-.35-.08-.69-.12-1.04-.9-9.15-2.1-18.15-1.05-27.44.15-1.65,1.35-3.15,3.15-3.6.4-.09.82-.1,1.24-.03-1.01-.78-1.99-.63-3.24-.92Z"/><path class="cls-2" d="M53.7,101.89c.37-.68.42-1.49.46-2.26.35-7.5-.61-14.99-.74-22.5-.05-2.68-.1-5.67-1.97-7.59-.18-.18-.37-.35-.57-.51-.42-.06-.84-.06-1.24.03-1.8.45-3,1.95-3.15,3.6-1.05,9.3.15,18.3,1.05,27.44.15,1.5.3,3,1.35,4.2,0,0,0,0,.01.01.73-.12,1.44-.29,2.15-.52,1.06-.36,2.12-.92,2.65-1.9Z"/><path class="cls-23" d="M67.76,66.85c-.95-.44-1.98-.66-3-.88-3.13-.67-6.32-1.34-9.52-1.1-1.08.08-3.05.4-3.28,1.75-.13.76.6.86,1.21.9,1.06.07,2.13-.09,3.18-.14,1.54-.07,3.08.02,4.61.18,1.88.2,7.16-.54,6.79-.71Z"/><path class="cls-3" d="M69.08,107.32c1.2.45,2.23,1.33,2.86,2.45.36.64.67,1.43,1.37,1.64.1.03.21.04.29-.01.05-.04.09-.1.11-.16.15-.39-.04-.83-.27-1.19-.23-.35-.52-.69-.58-1.11.92.46,1.26,1.56,1.86,2.4.14.2.38.4.6.3.14-.06.2-.22.23-.37.11-.6-.19-1.21-.58-1.69-.39-.48-.87-.88-1.21-1.39.48-.07.86.36,1.16.73.41.51.86.99,1.33,1.44.19.18.48.37.69.21.11-.08.15-.22.16-.35.06-.59-.31-1.14-.75-1.53-.44-.4-.96-.7-1.35-1.14-.06-.07-.12-.16-.1-.25.04-.14.23-.15.37-.11.49.12.94.38,1.28.74.28.3.55.69.96.71.05,0,.1,0,.14-.03.06-.05.07-.14.07-.21-.02-.67-.4-1.27-.82-1.79-1.17-1.46-2.73-2.58-4.43-3.38-.74-.35-1.52-.64-2.34-.68-.97-.04-1.98.31-2.6,1.05-.59.71-.65,1.62-.43,2.49.22.88,1.23.95,1.96,1.23Z"/><path class="cls-23" d="M58.17,91.6c1.3,4.67,3.2,9.22,6.04,13.15.35.49.74.99,1.29,1.23.59.26,1.28.19,1.92.07,1.67-.32,3.28-.95,4.71-1.85.39-.24.79-.53.95-.96.17-.44.05-.94-.09-1.39-.41-1.25-1.05-2.41-1.65-3.58-1.11-2.18-2.06-4.44-3.02-6.69-.89-2.1-1.78-4.19-2.66-6.29-1.02-2.41-2.04-4.83-2.75-7.35-.39-1.41-.76-2.95-1.9-3.87-.99-.79-2.47-.91-3.57-.28-1.86,1.07-1.87,3.46-1.63,5.31.34,2.69.74,5.37,1.28,8.02.31,1.5.66,3,1.07,4.48Z"/><path class="cls-21" d="M64.53,104.4c1.23-.41,2.47-.79,3.72-1.13.06-.02.11-.05.15-.09.04-.03.07-.08.09-.12.04-.1.04-.19.02-.3l-.24-.91c-.03-.09-.12-.19-.2-.23-.02-.01-.05-.02-.08-.03-.08-.03-.18-.04-.28-.01h0c-1.25.32-2.49.68-3.72,1.07-.16.05-.23.16-.25.28,0,0,0,.02,0,.03.15.48.31.97.47,1.45.03,0,.06,0,.1,0,.07.02.15.02.23,0Z"/><path class="cls-13" d="M57,86.12c-.1,0-.18.74-.09,1.92.09,1.18.38,2.81.99,4.52.61,1.71,1.42,3.16,2.1,4.13.68.97,1.21,1.49,1.29,1.43.19-.14-1.48-2.5-2.65-5.82-1.2-3.31-1.4-6.19-1.64-6.18Z"/><path class="cls-13" d="M53,75.33c.11.05.39-.51,1.06-1.21.65-.69,1.76-1.51,3.17-1.8,1.41-.29,2.75,0,3.63.37.89.37,1.38.76,1.47.67.07-.06-.3-.63-1.22-1.17-.9-.54-2.41-.98-4.04-.65-1.63.34-2.84,1.36-3.44,2.22-.62.87-.72,1.54-.63,1.57Z"/><path class="cls-13" d="M52.73,71.21c.1.08.51-.4,1.33-.91.8-.51,2.08-1.03,3.52-.96,1.44.07,2.67.68,3.43,1.26.78.57,1.15,1.08,1.26,1.01.08-.04-.14-.68-.89-1.43-.74-.74-2.09-1.54-3.76-1.62-1.67-.07-3.09.62-3.88,1.3-.81.69-1.08,1.31-1,1.36Z"/><path class="cls-6" d="M42.2,82.61h0c-.02-.06-.34-.7-.95-1.5h0s-.03-.04-.03-.07h0c-.05-.82-.15-1.37-.15-1.37-.02-.09-.1-.17-.19-.18h0l-.65-.1h0s-.01,0-.02,0c-.08,0-.14.06-.14.13v.23s0,0-.01,0c0,0,0,0,0,0h0c-.38-.36-.81-.72-1.29-1.03h0c-.09-.06-.2-.1-.32-.11h0c-.12,0-.23.03-.33.09h0c-2.3,1.33-3.6,3.56-3.65,3.69h0s-.02.06-.02.09c0,.1.07.19.16.22l.65.14c.09.03.15.1.16.19,0,.12.05,2.68.19,3.35h0c.02.1.11.17.21.17h0c.38,0,.73,0,1.1,0h0s.03,0,.03,0h0s.07-.03.07-.07h0c-.01-.23-.03-.74-.04-1.28,0-.01,0-.03,0-.04h0s-.03-.09-.06-.11c-.19-.12-.32-.33-.33-.58,0-.9,0-1.94.07-2.75h0c0-.07.06-.12.13-.12.07,0,.13.06.13.13,0,0,0,0,0,.01h0c-.05.54-.07,1.18-.07,1.81h0c0,.09.07.16.15.16s.16-.07.16-.15h0c0-.64.03-1.28.07-1.83,0-.07.06-.12.13-.12.07,0,.13.06.13.13,0,0,0,0,0,.01-.05.54-.07,1.18-.07,1.81h0c0,.09.07.15.15.16.09,0,.16-.07.16-.15h0c0-.63.03-1.28.07-1.82,0-.07.06-.12.13-.12.07,0,.13.06.13.13,0,0,0,0,0,.01-.07.79-.08,1.79-.07,2.67h0s0,.02,0,.02h0c0,.25-.13.46-.32.58-.03.02-.06.06-.06.1,0,0-.02.13.02.79.02.29.04.48.04.57h0s.03.06.07.06h0s.04,0,.06,0h0c.12,0,.26,0,.39.01h.03s.03,0,.03,0c.17,0,.33.01.49.01h.37s.06-.01.07-.04h0c.11-.78.14-1.22.14-1.22,0-.04-.03-.07-.07-.08l-.45-.07h0c-.07-.01-.11-.06-.13-.11,0-.03,0-.07,0-.07.25-2.6,1.14-3.46,1.14-3.46.03-.03.04-.03.04-.03.02-.02.05-.03.08-.02.06,0,.11.04.13.09,0,0,0,.02,0,.06.05.82-.02,2.22-.1,3.31-.07.92-.13,1.65-.13,1.65h0s.02.06.05.06h0c.24.01.48.02.74.04h0c.1,0,.19-.06.22-.16h0c.17-.66.37-3.22.38-3.34.01-.09.08-.16.17-.19l.65-.11c.1-.02.17-.11.17-.21,0-.03,0-.07-.02-.1h0Z"/><path class="cls-23" d="M40.36,67.94c-.08-1.4,1.33-2.64,2.73-2.3,1.36.33,2.1,1.77,1.97,3.08-.06.61.89.6.95,0,.17-1.84-1.09-3.81-3-4.06s-3.7,1.37-3.6,3.28c.03.61.98.61.95,0h0Z"/><path class="cls-13" d="M33.37,70.98c.48.15.97.23,1.47.3.66.1,1.33.17,2,.22,1.47.13,2.94.2,4.41.26.95.04,1.9.06,2.85.09.74.02,1.52.13,2.23-.14.5-.19.95-.49,1.39-.79.86-.59,1.68-1.22,2.51-1.84.12-.09,0-.3-.12-.2-.76.57-1.52,1.14-2.3,1.69-.42.3-.85.6-1.32.82-.69.33-1.43.26-2.17.23-2.3-.09-4.61-.13-6.91-.31-.77-.06-1.54-.13-2.3-.23-.56-.08-1.12-.16-1.66-.33-.15-.05-.21.18-.06.23h0Z"/><path class="cls-13" d="M46.12,74.03c0,3.42-.1,6.84-.1,10.26,0,3.83.07,7.67.51,11.48.21,1.82.5,3.65,1.01,5.41.04.15.27.08.23-.06-.46-1.57-.73-3.19-.94-4.8-.23-1.83-.36-3.68-.45-5.52-.17-3.8-.14-7.6-.09-11.4.03-1.79.06-3.58.06-5.37,0-.15-.24-.15-.24,0h0Z"/><path class="cls-15" d="M75.19,111.91c-.23,0-.47-.15-.67-.43-.19-.26-.35-.54-.51-.82-.03-.06-.07-.12-.1-.17.1.31.11.59.01.84-.05.12-.11.21-.2.27-.13.09-.29.1-.49.05-.69-.21-1.04-.87-1.35-1.46-.05-.1-.1-.2-.16-.29-.59-1.07-1.59-1.92-2.73-2.35-.15-.06-.31-.1-.48-.15-.67-.19-1.42-.41-1.63-1.24-.15-.59-.16-1.15-.05-1.64l.46.11c-.1.42-.08.9.05,1.42.14.56.7.73,1.3.9.17.05.35.1.51.16,1.25.46,2.33,1.4,2.98,2.56.05.1.11.2.16.3.28.53.57,1.07,1.07,1.22.05.02.08.02.09.01,0,0,0-.02.02-.04.1-.25.01-.58-.25-.97-.04-.06-.09-.13-.13-.19-.21-.31-.43-.62-.49-1.01l-.07-.46.41.21c.7.36,1.09,1.04,1.47,1.69.15.26.31.54.48.78.11.15.25.25.31.23.03-.01.07-.07.09-.2.1-.57-.23-1.13-.53-1.5-.15-.19-.33-.37-.49-.55-.25-.27-.52-.54-.73-.86l-.21-.31.37-.06c.64-.1,1.12.5,1.38.81.41.5.85.97,1.31,1.42.16.15.33.24.39.19.03-.02.06-.09.06-.18.06-.58-.39-1.08-.67-1.33-.17-.15-.34-.29-.53-.43-.29-.22-.58-.45-.83-.73-.05-.06-.21-.24-.15-.47.07-.24.34-.36.66-.28.53.13,1.02.41,1.4.81.05.05.1.11.15.17.2.22.38.43.61.47-.02-.64-.42-1.21-.77-1.64-1.07-1.34-2.57-2.48-4.34-3.32-.04-.02-.08-.03-.13-.05-.47-.17-1.44-.53-2.42-3.1l.44-.17c.9,2.37,1.74,2.67,2.14,2.82.06.02.12.04.17.07,1.83.86,3.39,2.06,4.51,3.45.39.49.85,1.15.87,1.93,0,.19-.05.33-.17.41-.08.06-.18.08-.29.07-.43-.03-.72-.35-.97-.63-.05-.05-.1-.11-.14-.16-.31-.33-.73-.57-1.17-.67,0,0-.01,0-.02,0,.22.24.47.44.75.64.19.14.38.29.56.46.34.31.9.95.82,1.73-.03.29-.16.44-.26.51-.27.2-.64.11-1-.24-.2-.19-.39-.39-.58-.59.22.39.37.87.28,1.37-.05.27-.18.46-.37.55-.07.03-.14.05-.22.05ZM77.55,108.41h0Z"/><path class="cls-15" d="M63.7,65.76l-.46-.13c.12-.44.23-.91.36-1.54l.05-.23.24.04c.46.09.93.16,1.4.18.05,0,.07-.03.08-.04.01-.02.02-.04,0-.08l-.99-2.3c-.03-.08-.07-.18-.11-.29-.06-.17-.13-.37-.21-.54l-.03-.05v-.06c.02-.35.02-.67,0-.97v-.17c-.02-.64-.05-1.37-.29-1.91l.43-.2c.28.63.31,1.41.33,2.09v.17c.01.3.01.61,0,.95.08.18.15.37.2.53.04.1.07.2.09.26l.99,2.3c.08.18.06.38-.05.54-.11.16-.3.25-.5.24-.41-.02-.83-.07-1.24-.15-.11.54-.21.96-.32,1.35Z"/><path class="cls-19" d="M69.47,53.51c-.6-.58-1.37-.95-2.2-1.03-.96-.09-1.8.34-2.67.65-.15.06-.37.08-.52.15,0-.05,0-.11,0-.15.03-.44.09-.89-.12-1.29-.45-.85-1.61-.88-2.45-.75-1.01.17-1.9.72-2.74,1.28-.34.23-.86.75-1.29.68-.42-.06-.76-.53-1.06-.79-.82-.7-1.88-.92-2.66-.02-.55.64-.79,1.43-.77,2.25-7.42,4.57.11,13.72,4.67,10.51.36-.25,1.04-.63.67-.87-.7-.46-1.4-.92-2.1-1.38-.58-.38-1.11-.76-.56-1.45.42-.53,1.07-.95,1.75-.66.69.29,1,1.03,1.18,1.7.19.7,1.28.41,1.09-.3-.02-.08-.05-.16-.07-.24.11-.16-.75-2.5,1.49-2.55,1.28-.03,2.55.16,3.82,0,.32-.04.54-.23.57-.57.01-.15,0-.25-.06-.4-.02-.05-.04-.1-.07-.14.22,0,.4.07.62.14.62.19,1.29.27,1.94.21.47-.05,1.02-.13,1.21-.64.12-.31.06-.71-.03-1.08.26,0,.52,0,.77-.12.39-.19.62-.54.63-.97.01-.8-.47-1.63-1.03-2.17Z"/><path class="cls-3" d="M62.32,60.99c.31,0,.31-.47,0-.47s-.31.47,0,.47h0Z"/><path class="cls-19" d="M62.04,61.12c.48,0,.48-.74,0-.74s-.48.74,0,.74h0Z"/><path class="cls-4" d="M175.81,172.43c.31,0,.31-.47,0-.47s-.31.47,0,.47h0Z"/></g></svg>