<?xml version="1.0" encoding="UTF-8"?>
<svg xmlns="http://www.w3.org/2000/svg" xmlns:xlink="http://www.w3.org/1999/xlink" viewBox="0 0 200 200">
  <defs>
    <style>
      .cls-1, .cls-2 {
        fill: none;
      }

      .cls-3 {
        clip-path: url(#clippath);
      }

      .cls-4 {
        fill: #e8f8f9;
      }

      .cls-5 {
        fill: #fff;
      }

      .cls-6 {
        fill: #ef470d;
      }

      .cls-7 {
        fill: #ffbc00;
      }

      .cls-8 {
        fill: #ffcf4e;
      }

      .cls-9 {
        fill: #ffcc20;
      }

      .cls-10 {
        fill: #ffa2af;
      }

      .cls-11 {
        fill: #ffc101;
      }

      .cls-12 {
        fill: #ff5000;
      }

      .cls-13 {
        fill: #efedea;
      }

      .cls-14 {
        fill: #ff5b00;
      }

      .cls-15 {
        fill: #ff7800;
      }

      .cls-16 {
        fill: #7e567c;
      }

      .cls-17 {
        fill: #7e557c;
      }

      .cls-18 {
        fill: #a0b4b5;
      }

      .cls-19 {
        fill: #bbdbdf;
      }

      .cls-20 {
        fill: #d6e8ea;
      }

      .cls-21 {
        fill: #c499d8;
      }

      .cls-22 {
        fill: #d9c0e0;
      }

      .cls-23 {
        fill: #b2dbdf;
      }

      .cls-24 {
        fill: #70486d;
      }

      .cls-25 {
        fill: #603b5d;
      }

      .cls-26 {
        clip-path: url(#clippath-1);
      }

      .cls-2 {
        stroke: #ff5000;
        stroke-miterlimit: 10;
        stroke-width: 10px;
      }
    </style>
    <clipPath id="clippath">
      <polygon class="cls-1" points="64.39 51.73 63.91 49.95 62.73 45.49 60.55 37.31 48.02 37.18 38.96 37.09 16.86 36.86 12.73 51.2 12.7 53.72 37.54 53.98 46.61 54.07 64.36 54.25 64.39 51.73"/>
    </clipPath>
    <clipPath id="clippath-1">
      <polygon class="cls-1" points="172.42 91.6 171.58 88.6 169.48 81.1 165.64 67.33 144.1 67.28 128.53 67.24 90.53 67.15 83.62 91.38 83.61 95.63 126.32 95.74 141.89 95.78 172.41 95.85 172.42 91.6"/>
    </clipPath>
  </defs>
  <g id="BG_Light">
    <path class="cls-13" d="m26.8,27.6C-1.22,39.9,4.09,112.07,20.19,156.03c0,0,.98,2.31,2.43,2.78,31.66,10.3,63.17,4.57,107.31,12.15,63.98,5.87,60.93-6.04,64.17-73.39.5-10.37-1.73-49.54-17.38-53.53C136.41,33.79,29.15,25.28,26.8,27.6Zm143.85,143.46s.04.04.06.07c0,0-.07-.07-.06-.07Zm3.52-1.87s.08-.04.12-.06c-.01.07-.06.08-.12.06Zm.62-.33c.07-.05.12-.06.02.04,0-.02-.01-.03-.02-.04Zm.77-.46c.32-.18.8-.66.31-.05.4-.1-.05.24-.31.05Zm.85-.56s.02-.02,0,0c-.16.01.35-.34,0,0ZM41.42,29.85c.29.25-.06.15-.23.13-.03-.1.11-.11.23-.13Zm-2.19-.78c.07.06-.13.12-.2.13-.1-.19.1-.13.2-.13Zm103.69,9.2s-.03-.02-.07-.04c.02.02.04.03.07.04Zm0,.09c.24.12-.06.27-.2.19.1-.06.19-.13.2-.19Zm48.3,22.43c.05-.1.07-.06,0,.01,0,0,0-.01,0-.01Zm-88.13,106.72c-.14-.05-.13-.09-.08-.13.02.05.05.09.08.13Zm-.52.17c-.1-.02-.3-.03-.32-.2.1-.04.2.15.32.2ZM32.58,27.8c.14-.19-.54.31-.62-.05-.12-.44,1.28.21.62.05Zm2.25.21l.04-.05c.08.18.04.12-.04.05Zm5.39,1.27c-.07-.04-.13-.02-.2.02.06-.17.08-.23.2-.02Zm103.14,9.26c-.54-.1.02-.23.25-.14,0,0-.25.14-.25.14Zm50.08,58.46-.03,5.42s.05-.03.08-.04c0,0-.08.04-.08.04Zm-15.03,63.65c.14-.12.24-.29.42-.34-.34.24-.18.48-.42.34Zm.13,2.08c-.44.42-.73-.32-.13-.06-.32-.27.11-.28.13.06Zm-.8.38s-.07-.01-.1-.03c.03,0,.07.02.1.03Zm-1.1.55c-.03.06-.06.06-.11.01.04-.04.08-.08.11-.01Zm-1.21.08c-1.52.37-.76-.42.29-.04.12-.25-.07.94-.29.04Zm-2.13.43c.1-.04.2-.08.3-.13-.08.11-.16.2-.3.13Zm-2.93.84s.01-.02.03-.02c-.01,0-.02.02-.03.02Zm-12.93-.12s.1,0,.15,0c-.04,0-.08,0-.15,0Zm-52.92-2.49c.12.21.37.2.44.27-.25.12-.7.01-.44-.27Zm-1.72-.03c-.15-.03-.27-.06-.32-.13.11.02.24.05.32.13ZM8.31,70.64l-.07.07s.05-.05.07-.07Z"/>
  </g>
  <g id="Illustrations">
    <g>
      <path class="cls-10" d="m66.01,47.1c-.02-.05-.03-.11-.05-.16,0-.03-.02-.05-.02-.08-.05-.16-.1-.31-.16-.47,0-.02-.01-.04-.02-.06-.12-.35-.25-.69-.38-1.01-.3-.76-.62-1.5-.95-2.21-1.02-2.15-2.23-4.04-3.6-5.72-.83-1.01-1.72-1.95-2.66-2.81-1.11-1.01-2.3-1.92-3.55-2.74-.05-.03-.1-.07-.15-.1-.01,0-.02-.01-.03-.02-.17-.11-.35-.22-.53-.33-.04-.03-.08-.05-.13-.08-.14-.08-.28-.17-.42-.25-.13-.08-.27-.16-.41-.23-.04-.02-.07-.04-.1-.06-.02,0-.03-.02-.05-.02-1.38-.77-3-1.55-4.81-2.2-.01,0-.02,0-.04-.01-.03-.01-.06-.02-.09-.03-.03-.01-.06-.02-.09-.03-4.99-1.8-9.77-1.83-13.84-1.11-2.41.38-4.54,1.03-6.55,1.91,0,0,0,0,0,0-.75.31-1.55.69-2.37,1.15-.87.48-1.77,1.04-2.68,1.68-.05.04-.1.07-.15.11-.17.12-.34.24-.51.37-.1.07-.2.15-.3.22-3.47,2.65-6.85,6.37-8.72,10.87,0,.01-.01.03-.02.04-1.26,2.72-2.26,6.09-2.49,9.78-.32,3.62.05,7.15,1.11,10.63,0,.01,0,.02.01.03.42,1.56.94,3.05,1.55,4.47.36.85.78,1.71,1.24,2.56.96,1.88,2.06,3.65,3.38,5.56.68.99,1.43,2.01,2.25,3.11.03.04.06.09.1.13,0,0,0,0,0,0,.74,1,1.53,2.01,2.29,2.97.02.02.03.04.05.06,1.28,1.59,2.51,3.03,3.38,4,.6.68,1.32,1.45,2.08,2.26.69.74,1.34,1.42,1.93,2.04.5.53,1,1.05,1.47,1.55,1.82,1.91,5.98,5.74,6.68,6.39.01.01.03.02.04.03.33.31.55.51.58.55.06.07.16.08.27.05.09-.02.18-.05.25-.09.07-.02.13-.06.19-.11.84-.64,3.01-2.72,5.57-5.32.86-.84,1.75-1.72,2.6-2.59,3.17-3.22,6.34-6.79,7.81-8.68.11-.15.25-.32.39-.51,0,0,0,0,0,0,.93-1.16,1.83-2.37,2.69-3.59,1.68-2.31,3.57-5.03,4.73-7.15.7-1.27,1.29-2.51,1.8-3.71,0,0,0-.02.01-.03.1-.2.2-.44.31-.7.56-1.33,1.25-3.35,1.74-5.82.24-1.24.44-2.59.54-4.02.22-3.2-.03-6.8-1.21-10.48Z"/>
      <polygon class="cls-21" points="25.01 70.53 18.32 70.46 18.75 29.71 25.43 29.78 25.32 40.48 25.01 70.53"/>
      <path class="cls-5" d="m26.46,36.79c0-.29-1.92-.56-4.29-.59-2.37-.04-4.3.17-4.3.46,0,.29,1.92.56,4.29.59,2.37.04,4.3-.17,4.3-.46Z"/>
      <polygon class="cls-22" points="62.5 84.07 14.1 83.57 14.49 45.15 62.56 45.77 62.5 84.07"/>
      <rect class="cls-14" x="14.47" y="45.5" width="9.22" height="4.52" rx=".37" ry=".37" transform="translate(.48 -.19) rotate(.57)"/>
      <polygon class="cls-6" points="64.41 52 63.93 50.18 62.72 45.65 60.51 37.32 47.76 37.19 38.53 37.09 16.04 36.86 11.83 51.46 11.8 54.02 37.09 54.28 46.32 54.38 64.39 54.57 64.41 52"/>
      <rect class="cls-4" x="18.75" y="59.73" width="9.46" height="7.75" rx=".03" ry=".03" transform="translate(.66 -.24) rotate(.59)"/>
      <rect class="cls-12" x="12.17" y="83.67" width="52.59" height="2.57" rx=".15" ry=".15" transform="translate(.88 -.39) rotate(.59)"/>
      <path class="cls-25" d="m174.44,194.16c-58.74-10.7-102.7-21.15-130.67-31.07C13.86,152.48.72,141.97,1.15,129.02c.46-13.77,14.44-31.1,119.37-43.05,32.4-3.69,52.66-18.79,57.78-31.27,2.09-5.09,1.68-9.33-1.26-12.97-11.08-13.74-46.75-13-76.43-7.73l-3.4-19.13c46.89-8.33,80.61-3.13,94.95,14.66,7.36,9.12,8.86,20.99,4.11,32.55-9.1,22.19-37.98,39.14-73.56,43.19-82.02,9.34-98.77,21.47-101.73,24.45,1.69,2.1,8.6,8.28,35.25,17.08,27.15,8.97,68.1,18.47,121.69,28.23l-3.48,19.12Z"/>
      <path class="cls-16" d="m115.34,10.95c-5.37-5.85-13.62-7.55-21.01-4.33h0c-3.02,1.43-5.51,4.09-7.42,7.04-2.85,4.39-3.73,9.67-2.42,14.49,1.9,7,8.02,12.32,15.23,13.23.73.09,1.47.14,2.2.14,6.39,0,12.56-3.46,15.81-9.06l.15-.26c3.82-7.08,2.83-15.42-2.53-21.25Z"/>
      <path class="cls-15" d="m171.31,83.97c-.03-.08-.05-.17-.08-.25-.01-.04-.02-.08-.04-.12-.08-.24-.15-.48-.24-.72-.01-.03-.02-.06-.03-.09-.19-.54-.38-1.05-.58-1.55-.46-1.17-.94-2.3-1.46-3.39-1.57-3.29-3.41-6.19-5.51-8.75-1.27-1.55-2.63-2.98-4.07-4.3-1.7-1.55-3.52-2.94-5.44-4.19-.08-.05-.15-.1-.23-.15-.02,0-.03-.02-.05-.03-.27-.17-.54-.34-.81-.5-.06-.04-.13-.08-.19-.12-.21-.13-.43-.26-.64-.38-.2-.12-.41-.24-.62-.36-.05-.03-.11-.06-.16-.09-.02-.01-.05-.02-.07-.04-2.11-1.18-4.59-2.37-7.37-3.36-.02,0-.04-.01-.05-.02-.05-.02-.09-.03-.14-.05-.04-.02-.09-.03-.13-.05-7.63-2.76-14.95-2.8-21.19-1.7-3.68.59-6.95,1.57-10.02,2.92,0,0,0,0,0,0-1.15.47-2.37,1.06-3.62,1.75-1.34.74-2.72,1.6-4.1,2.57-.08.06-.16.11-.24.17-.26.19-.52.37-.78.57-.15.11-.3.23-.45.34-5.31,4.05-10.49,9.75-13.35,16.64,0,.02-.02.04-.03.07-1.93,4.16-3.46,9.33-3.81,14.96-.5,5.54.08,10.94,1.71,16.27,0,.02.01.03.02.05.64,2.39,1.44,4.67,2.37,6.84.55,1.3,1.2,2.61,1.9,3.92,1.47,2.88,3.15,5.59,5.18,8.51,1.05,1.51,2.19,3.08,3.44,4.76.05.07.1.13.15.2,0,0,0,0,0,0,1.13,1.53,2.34,3.08,3.51,4.54.03.03.05.07.08.1,1.97,2.44,3.85,4.63,5.17,6.12.92,1.03,2.02,2.22,3.19,3.46,1.06,1.13,2.05,2.17,2.96,3.13.77.81,1.53,1.61,2.26,2.37,2.79,2.93,9.16,8.78,10.23,9.78.02.02.04.04.06.05.51.48.84.78.89.84.09.11.25.12.42.08.13-.03.27-.08.39-.14.11-.03.2-.09.3-.17,1.29-.97,4.61-4.16,8.53-8.14,1.31-1.28,2.67-2.63,3.99-3.96,4.86-4.92,9.71-10.4,11.95-13.29.17-.22.38-.49.6-.78,0,0,0,0,0,0,1.42-1.77,2.8-3.63,4.12-5.49,2.57-3.53,5.46-7.7,7.23-10.94,1.06-1.94,1.98-3.85,2.76-5.68,0-.01.01-.03.02-.04.15-.31.31-.67.48-1.07.86-2.03,1.92-5.13,2.66-8.91.37-1.9.67-3.96.82-6.16.34-4.89-.04-10.41-1.84-16.03Z"/>
      <polygon class="cls-11" points="92.94 127.27 104.28 127.32 104.55 58.26 93.21 58.21 93.14 76.35 92.94 127.27"/>
      <path class="cls-5" d="m105.01,66.49c0-.42-2.8-.81-6.26-.86-3.46-.05-6.27.25-6.27.67,0,.42,2.8.81,6.26.86s6.27-.25,6.27-.67Z"/>
      <path class="cls-10" d="m48.24,107.66c-1.55-3.95-5.33-6.38-9.63-6.2v.21c-1.77.13-3.53.77-5.05,1.87-2.26,1.64-3.72,4.1-4,6.75-.4,3.85,1.63,7.68,5.04,9.52.35.19.7.35,1.07.49,3.19,1.23,6.92.69,9.62-1.47l.12-.1c3.27-2.79,4.38-7.13,2.83-11.07Zm-9.22,3.06v.31s-.15-.21-.15-.21c.05-.04.1-.08.15-.1Z"/>
      <path class="cls-15" d="m138.48,172.06c-1.55-3.95-5.33-6.38-9.63-6.2v.21c-1.77.13-3.53.77-5.05,1.87-2.26,1.64-3.72,4.1-4,6.75-.4,3.85,1.63,7.68,5.04,9.52.35.19.7.35,1.07.49,3.19,1.23,6.92.69,9.62-1.47l.12-.1c3.27-2.79,4.38-7.13,2.83-11.07Zm-9.22,3.06v.31s-.15-.21-.15-.21c.05-.04.1-.08.15-.1Z"/>
      <rect class="cls-21" x="47.93" y="55.83" width="3.65" height="7.45" rx="1.3" ry="1.3" transform="translate(-10.01 109.06) rotate(-89.76)"/>
      <rect class="cls-21" x="44.7" y="70.06" width="3.65" height="7.45" rx="1.3" ry="1.3" transform="translate(-27.46 120.01) rotate(-89.76)"/>
      <rect class="cls-21" x="48.09" y="74.56" width="3.65" height="7.45" rx="1.3" ry="1.3" transform="translate(-28.58 127.87) rotate(-89.76)"/>
      <rect class="cls-7" x="112.24" y="130.11" width="7.67" height="15.63" rx="2.72" ry="2.72" transform="translate(-22.34 253.42) rotate(-89.76)"/>
      <rect class="cls-7" x="123.94" y="120.46" width="7.67" height="15.63" rx="2.72" ry="2.72" transform="translate(-1.04 255.51) rotate(-89.76)"/>
      <g>
        <path class="cls-8" d="m158.86,135.15v-2.22c.02-1.5,1.24-2.72,2.74-2.71l7.62.03.18-45.4-81.47-.1-.42,33.27,7.7.03c1.5,0,2.72,1.23,2.71,2.73v2.22c-.02,1.5-1.24,2.72-2.74,2.71l-7.77-.03-.3,23.96,82.03.32.05-12.04-7.62-.03c-1.5,0-2.72-1.23-2.71-2.73Zm7.88,7.37v2.22c-.02,1.5-1.24,2.72-2.74,2.71l-10.19-.04c-1.5,0-2.72-1.23-2.71-2.73v-2.22c.02-1.5,1.24-2.72,2.74-2.71l10.19.04c1.5,0,2.72,1.23,2.71,2.73Z"/>
        <path class="cls-11" d="m97.91,123.01v-2.22c.02-1.5-1.2-2.73-2.7-2.73l-7.7-.03-.1,7.66,7.77.03c1.5,0,2.73-1.21,2.73-2.71Z"/>
        <path class="cls-11" d="m161.6,130.22c-1.5,0-2.73,1.21-2.73,2.71v2.22c-.02,1.5,1.2,2.73,2.7,2.73l7.62.03.03-7.67-7.62-.03Z"/>
        <path class="cls-11" d="m157.81,135.78h2.22c1.5,0,2.72,1.22,2.72,2.72v10.19c0,1.5-1.22,2.72-2.72,2.72h-2.22c-1.5,0-2.72-1.22-2.72-2.72v-10.19c0-1.5,1.22-2.72,2.72-2.72Z" transform="translate(14.65 301.91) rotate(-89.76)"/>
      </g>
      <rect class="cls-11" x="113.12" y="99.6" width="7.67" height="15.63" rx="2.72" ry="2.72" transform="translate(9.05 223.92) rotate(-89.76)"/>
      <rect class="cls-21" x="17.46" y="70.55" width="3.65" height="7.45" rx="1.3" ry="1.3" transform="translate(-55.07 93.25) rotate(-89.76)"/>
      <rect class="cls-11" x="106.05" y="90.45" width="7.67" height="15.63" rx="2.72" ry="2.72" transform="translate(11.15 207.73) rotate(-89.76)"/>
      <rect class="cls-7" x="143.33" y="107.35" width="7.67" height="15.63" rx="2.72" ry="2.72" transform="translate(31.37 261.84) rotate(-89.76)"/>
      <rect class="cls-11" x="155.03" y="97.7" width="7.67" height="15.63" rx="2.72" ry="2.72" transform="translate(52.68 263.93) rotate(-89.76)"/>
      <rect class="cls-11" x="126.85" y="129.37" width="7.67" height="15.63" rx="2.72" ry="2.72" transform="translate(-7.05 267.29) rotate(-89.76)"/>
      <polygon class="cls-12" points="117.36 106.43 117.24 137.67 117.2 147.21 94.95 147.13 95.05 121.42 95.11 106.34 117.36 106.43"/>
      <rect class="cls-4" x="132.4" y="106.54" width="24.88" height="24.04" transform="translate(289.21 237.68) rotate(-179.78)"/>
      <rect class="cls-19" x="83.38" y="145.7" width="89.12" height="4.35" transform="translate(255.29 296.25) rotate(-179.78)"/>
      <polygon class="cls-6" points="114.13 109.56 114.16 129.03 113.97 129.52 98.05 129.62 98.13 117.66 98.21 109.66 114.13 109.56"/>
      <polygon class="cls-6" points="98.04 143.63 114.2 143.69 114.11 132.32 97.95 132.26 98.04 143.63"/>
      <g>
        <path class="cls-23" d="m152.38,77.6h6.56c.3,0,.55.25.55.55v14.48c0,.3-.25.55-.55.55h-6.56c-.3,0-.55-.25-.55-.55v-14.48c0-.3.25-.55.55-.55Z" transform="translate(69.61 240.69) rotate(-89.76)"/>
        <path class="cls-23" d="m114.68,89.95l14.48.06c.3,0,.55.25.55.55v1.1s-15.59-.06-15.59-.06v-1.11c0-.31.25-.55.56-.55Z"/>
        <path class="cls-19" d="m83.6,91.49l-.02,4.35,30.53.12,15.58.06,42.72.17.02-4.35-6.75-24.83-38.01-.15-15.58-.06-21.54-.08-3.94,14.06-2.15,7.66-.86,3.07Z"/>
      </g>
      <g class="cls-3">
        <path class="cls-2" d="m13.55,40c-1.08-.61-.21-2.52,1.03-2.54s2.2,1.09,2.73,2.21c.53,1.12.84,2.39,1.68,3.29,1.29,1.39,3.75,1.45,5.11.12.99-.97,1.33-2.41,1.89-3.69s1.61-2.57,3-2.53c3.1.07,3.03,5.83,6.07,6.41,1.66.32,3.07-1.17,4.04-2.56.97-1.38,2.15-2.97,3.84-2.97,3.45,0,4.08,6.24,7.53,6.4,2.94.14,4.3-6.55,7.24-6.34,2.58.19,3.37,2.66,4.36,3.4.99.74,1.03,1.3,2.27,1.35,1.23.04,2.57-1.1,2.2-2.28"/>
        <path class="cls-2" d="m12.52,49.93c-1.08-.61-.21-2.52,1.03-2.54,1.24-.02,2.2,1.09,2.73,2.21.53,1.12.84,2.39,1.68,3.29,1.29,1.39,3.75,1.45,5.11.12.99-.97,1.33-2.41,1.89-3.69s1.61-2.57,3-2.53c3.1.07,3.03,5.83,6.07,6.41,3.63.55,4.45-5.5,7.88-5.53,3.45,0,4.08,6.24,7.53,6.4,2.94.14,4.3-6.16,7.24-6.34,1.23-.07,2.35,2.43,3.34,3.17.99.74,2.05,1.53,3.29,1.58s2.57-1.1,2.2-2.28"/>
      </g>
      <g class="cls-26">
        <path class="cls-18" d="m84.4,60.4c.65.36,1.17.85,1.57,1.46.45.66.57.79.36.37l.76,1.79c-.05-.14-.09-.29-.1-.44l.27,1.99c-.02-.16-.02-.31,0-.47l-.27,1.99c.04-.25.09-.47.17-.72l-.76,1.79c.33-.78,1.06-1.21-.49.42.52-.5.22-.28-.92.67.15-.09.3-.17.46-.23l-1.79.76c.16-.06.33-.11.5-.13l-1.99.27c.34-.03.64-.01.98.03l-1.99-.27c.36.08.67.18,1.01.32l-1.79-.76c.22.1.42.22.62.35-1.02-.83-1.24-.99-.67-.48.18.17.35.36.5.55-.73-.99-.94-1.24-.61-.77.47.83.9,1.65,1.27,2.53l-.76-1.79c1.26,3.01,2.44,6.16,5.08,8.27,2.8,2.25,6.25,3.68,9.91,3.38s7.09-1.56,9.47-4.3,3.38-5.76,4.7-9l-.76,1.79c.19-.45.39-.89.62-1.31.15-.27,1.09-1.58.21-.44s.24-.09.37-.29c-1.08.79-1.31.97-.69.55.19-.12.39-.22.6-.31l-1.79.76c.33-.13.63-.21.97-.28l-1.99.27c.39-.05.76-.06,1.16-.02l-1.99-.27c.37.06.71.15,1.05.28l-1.79-.76c.11.05.66.43.74.41-.21.06-1.68-1.55-.85-.62.17.19.35.39.53.58.41.44-1.3-1.91-.55-.67.57.94,1.09,1.89,1.59,2.87,1.54,3,3.42,5.81,6.35,7.63,1.96,1.22,4.53,1.85,6.82,1.66,3.39-.28,6.14-1.71,8.64-3.97,1.64-1.48,2.91-3.37,4.18-5.17.79-1.13-1.12,1.32-.27.34.32-.37.64-.75.99-1.1.6-.6,1.1-.57-.44.23.41-.21.77-.5,1.19-.71l-1.79.76c.43-.18.85-.31,1.31-.4l-1.99.27c.48-.06.93-.07,1.41-.01l-1.99-.27c.45.07.87.19,1.29.36l-1.79-.76c.24.11.45.24.68.36.98.51-1.07-.93-.79-.65.42.42.85.81,1.25,1.25.78.87-.38-.47-.55-.74.16.25.35.48.52.72.35.49.69,1,1.02,1.5,1.9,2.83,3.86,5.56,6.79,7.41,3.65,2.3,8.6,2.48,12.3.21,2.88-1.77,4.83-4.52,6.66-7.28.36-.55.72-1.1,1.1-1.64.19-.28.39-.56.59-.84.76-1.07-1.13,1.35-.49.63.41-.47.83-.9,1.26-1.35.6-.63-1.76,1.15-.76.59.27-.15.51-.3.79-.42l-1.79.76c.31-.11.61-.19.94-.24l-1.99.27c.32-.03.63-.01.95.02l-1.99-.27c.66.09,1.27.25,1.89.5l-1.79-.76c.27.13,1,.72,1.28.73-.07,0-1.49-1.28-.85-.64.16.16.34.32.5.48.28.29.55.6.81.91,1.02,1.24-1.07-1.41-.31-.42s1.47,2.05,2.37,2.9c.53.5,1.15.9,1.73,1.35.42.32-1.26-1.13-.73-.55.31.34.7.66,1.05.96,3.77,3.25,8.61,3.77,13.09,1.62s6.82-7.34,5.63-12.14c-.95-3.81-5.44-6.46-9.23-5.24s-6.26,5.15-5.24,9.23l.08.32-.27-1.99c.04.21.04.43.02.64l.27-1.99c-.02.21-.07.42-.15.62l.76-1.79c-.08.2-.17.39-.29.58.84-1,1.05-1.29.63-.88-.42.4-.14.18.84-.64-.2.13-.41.24-.63.33l1.79-.76c-.34.13-.66.22-1.02.3l1.99-.27c-.49.06-.94.04-1.43-.02l1.99.27c-.29-.06-.55-.13-.83-.24l1.79.76c-1.39-.72,1.3,1.23.5.44-.29-.28-.59-.55-.89-.82-.59-.48-1.19-.95-1.8-1.4-.73-.55-.42-.31.93.71-.16-.2-.38-.38-.55-.58-.41-.47-1.25-1.59.46.62-.49-.64-.98-1.28-1.48-1.91-.44-.56-.88-1.11-1.39-1.61-4-3.99-10.1-5.67-15.3-3.06-3.17,1.59-5.28,4.63-7.19,7.5-.39.58-.77,1.17-1.17,1.75-.15.21-.29.43-.44.64-.42.59-1.34,1.35.42-.51-.43.45-.82.93-1.26,1.37-1.03,1.02,1.58-.97.68-.52-.24.12-.46.27-.71.38l1.79-.76c-.31.12-.61.21-.94.26l1.99-.27c-.36.04-.71.03-1.07-.01l1.99.27c-.46-.07-.88-.19-1.31-.36l1.79.76c-.28-.13-.53-.28-.79-.42-1.23-.67,1.11.97.69.56s-.81-.77-1.17-1.2c-.42-.49-1.03-1.51.47.63-.2-.28-.4-.55-.6-.83-.35-.5-.68-1.01-1.02-1.51-1.88-2.8-3.91-5.61-6.91-7.31-5.11-2.89-10.98-1.57-15.24,2.17-1.67,1.47-2.94,3.38-4.22,5.17-1.13,1.58.89-.95,0,0-.27.28-.51.58-.79.86-.18.18-.37.36-.56.53-.59.49-.38.33.62-.48-.42.12-.87.5-1.28.68l1.79-.76c-.34.12-.67.21-1.02.28l1.99-.27c-.37.04-.7.05-1.07.03l1.99.27c-.44-.06-.84-.15-1.26-.31l1.79.76c-.24-.11-.47-.24-.7-.36-1.13-.59,1.41,1.37.71.56-.15-.17-.32-.34-.48-.5-.75-.74,1.18,1.72.58.77-.57-.9-1.11-1.79-1.6-2.73-1.19-2.3-2.43-4.73-4.42-6.46-3.9-3.39-9.39-4.28-13.95-1.51-2.18,1.32-4.04,3.34-5.27,5.57-1.05,1.89-1.69,4-2.51,6l.76-1.79c-.2.47-.41.94-.66,1.39-.12.22-.25.44-.39.65.77-.95.97-1.2.6-.76-.12.15-.25.29-.39.42-.56.5-.3.31.77-.56-.39.16-.74.44-1.13.61l1.79-.76c-.51.19-1.02.33-1.56.42l1.99-.27c-.66.08-1.29.08-1.95.01l1.99.27c-.65-.1-1.26-.27-1.87-.52l1.79.76c-.2-.09-.39-.18-.57-.29-.63-.4-.39-.19.72.63-.17-.14-.33-.28-.47-.44-.51-.58-.36-.37.45.63-.15-.44-.55-.89-.76-1.32-.23-.46-.43-.93-.63-1.41l.76,1.79c-1.2-2.88-2.26-5.63-4.56-7.86-2.86-2.78-7.04-4.35-11-3.27-3.51.96-6.32,3.9-7.31,7.38-1.19,4.22.59,8.41,4.22,10.72,3.32,2.1,8.42.8,10.26-2.69,1.96-3.7.85-8.02-2.69-10.26h0Z"/>
        <path class="cls-18" d="m85.15,72.88c.65.36,1.17.85,1.57,1.46.45.66.57.79.36.37l.76,1.79c-.05-.14-.09-.29-.1-.44l.27,1.99c-.02-.16-.02-.31,0-.47l-.27,1.99c.04-.25.09-.47.17-.72l-.76,1.79c.33-.78,1.06-1.21-.49.42.52-.5.22-.28-.92.67.15-.09.3-.17.46-.23l-1.79.76c.16-.06.33-.11.5-.13l-1.99.27c.34-.03.64-.01.98.03l-1.99-.27c.36.08.67.18,1.01.32l-1.79-.76c.22.1.42.22.62.35-1.02-.83-1.24-.99-.67-.48.18.17.35.36.5.55-.73-.99-.94-1.24-.61-.77.47.83.9,1.65,1.27,2.53l-.76-1.79c1.26,3.01,2.44,6.16,5.08,8.27,2.8,2.25,6.25,3.68,9.91,3.38s7.09-1.56,9.47-4.3,3.38-5.76,4.7-9l-.76,1.79c.19-.45.39-.89.62-1.31.15-.27,1.09-1.58.21-.44s.24-.09.37-.29c-1.08.79-1.31.97-.69.55.19-.12.39-.22.6-.31l-1.79.76c.33-.13.63-.21.97-.28l-1.99.27c.39-.05.76-.06,1.16-.02l-1.99-.27c.37.06.71.15,1.05.28l-1.79-.76c.11.05.66.43.74.41-.21.06-1.68-1.55-.85-.62.17.19.35.39.53.58.41.44-1.3-1.91-.55-.67.57.94,1.09,1.89,1.59,2.87,1.54,3,3.42,5.81,6.35,7.63,1.96,1.22,4.53,1.85,6.82,1.66,3.39-.28,6.14-1.71,8.64-3.97,1.64-1.48,2.91-3.37,4.18-5.17.79-1.13-1.12,1.32-.27.34.32-.37.64-.75.99-1.1.6-.6,1.1-.57-.44.23.41-.21.77-.5,1.19-.71l-1.79.76c.43-.18.85-.31,1.31-.4l-1.99.27c.48-.06.93-.07,1.41-.01l-1.99-.27c.45.07.87.19,1.29.36l-1.79-.76c.24.11.45.24.68.36.98.51-1.07-.93-.79-.65.38.39.81.74,1.17,1.16.42.48,1.05,1.48-.47-.65.15.21.3.41.45.61.35.49.69,1,1.02,1.5,1.89,2.81,3.81,5.49,6.67,7.39,3.65,2.43,8.51,2.56,12.32.47,2.94-1.61,4.96-4.45,6.82-7.15.41-.6.82-1.2,1.23-1.79.18-.26.36-.51.55-.76.79-1.09-1.24,1.5-.37.49.4-.46.85-.87,1.26-1.32.59-.65-1.73,1.12-.71.56.29-.16.55-.32.85-.45l-1.79.76c.33-.12.66-.21,1.01-.26l-1.99.27c.23-.02.42-.02.65,0l-1.99-.27c.15.03.29.07.43.14l-1.79-.76c1.31.63-1.3-1.32-.35-.36.28.29.56.57.82.87.62.72,1.17,1.49,1.77,2.23,1.55,1.9,3.84,3.52,6.05,4.59,3.95,1.92,8.36,2.43,12.34.22,4.28-2.38,6.5-7.22,5.31-11.98-.95-3.81-5.44-6.46-9.23-5.24s-6.26,5.15-5.24,9.23l.08.32-.27-1.99c.04.21.04.43.02.64l.27-1.99c-.02.21-.07.42-.15.62l.76-1.79c-.08.2-.17.39-.29.58.84-1,1.05-1.29.63-.88-.42.4-.14.18.84-.64-.2.13-.41.24-.63.33l1.79-.76c-.34.13-.66.22-1.02.3l1.99-.27c-.38.04-.72.05-1.11.02l1.99.27c-.68-.09-1.31-.27-1.95-.52l1.79.76c-.89-.4-1.71-.9-2.51-1.45-.23-.16-.45-.32-.68-.48-.73-.53-.45-.31.82.64-.17-.2-.38-.37-.55-.57-.96-1.08-1.74-2.31-2.75-3.35-3.65-3.76-9.16-4.54-13.6-1.67-2.9,1.88-4.86,4.66-6.78,7.47-.36.52-.71,1.05-1.08,1.56-.19.27-.99,1.31-.04.09s.16-.22-.05.03c-.37.42-.77.8-1.17,1.19-.73.72,1.75-1.11.81-.64-.25.12-.48.28-.74.39l1.79-.76c-.32.13-.64.22-.98.27l1.99-.27c-.37.04-.73.03-1.1-.01l1.99.27c-.46-.07-.88-.19-1.31-.36l1.79.76c-.28-.13-.53-.28-.79-.42-1.23-.67,1.11.97.69.56s-.81-.77-1.17-1.2c-.42-.49-1.03-1.51.47.63-.2-.28-.4-.55-.6-.83-.35-.5-.68-1.01-1.02-1.51-1.88-2.8-3.91-5.61-6.91-7.31-5.11-2.89-10.98-1.57-15.24,2.17-1.67,1.47-2.94,3.38-4.22,5.17-1.13,1.58.89-.95,0,0-.27.28-.51.58-.79.86-.18.18-.37.36-.56.53-.59.49-.38.33.62-.48-.42.12-.87.5-1.28.68l1.79-.76c-.34.12-.67.21-1.02.28l1.99-.27c-.37.04-.7.05-1.07.03l1.99.27c-.44-.06-.84-.15-1.26-.31l1.79.76c-.24-.11-.47-.24-.7-.36-1.13-.59,1.41,1.37.71.56-.15-.17-.32-.34-.48-.5-.75-.74,1.18,1.72.58.77-.57-.9-1.11-1.79-1.6-2.73-1.19-2.3-2.43-4.73-4.42-6.46-3.9-3.39-9.39-4.28-13.95-1.51-2.18,1.32-4.04,3.34-5.27,5.57-1.05,1.89-1.69,4-2.51,6l.76-1.79c-.2.47-.41.94-.66,1.39-.12.22-.25.44-.39.65.77-.95.97-1.2.6-.76-.12.15-.25.29-.39.42-.56.5-.3.31.77-.56-.39.16-.74.44-1.13.61l1.79-.76c-.51.19-1.02.33-1.56.42l1.99-.27c-.66.08-1.29.08-1.95.01l1.99.27c-.65-.1-1.26-.27-1.87-.52l1.79.76c-.2-.09-.39-.18-.57-.29-.63-.4-.39-.19.72.63-.17-.14-.33-.28-.47-.44-.51-.58-.36-.37.45.63-.15-.44-.55-.89-.76-1.32-.23-.46-.43-.93-.63-1.41l.76,1.79c-1.2-2.88-2.26-5.63-4.56-7.86-2.86-2.78-7.04-4.35-11-3.27-3.51.96-6.32,3.9-7.31,7.38-1.19,4.22.59,8.41,4.22,10.72,3.32,2.1,8.42.8,10.26-2.69,1.96-3.7.85-8.02-2.69-10.26h0Z"/>
        <path class="cls-18" d="m85.9,87.82c.65.36,1.17.85,1.57,1.46.45.66.57.79.36.37l.76,1.79c-.05-.14-.09-.29-.1-.44l.27,1.99c-.02-.16-.02-.31,0-.47l-.27,1.99c.04-.25.09-.47.17-.72l-.76,1.79c.33-.78,1.06-1.21-.49.42.52-.5.22-.28-.92.67.15-.09.3-.17.46-.23l-1.79.76c.16-.06.33-.11.5-.13l-1.99.27c.34-.03.64-.01.98.03l-1.99-.27c.36.08.67.18,1.01.32l-1.79-.76c.22.1.42.22.62.35-1.02-.83-1.24-.99-.67-.48.18.17.35.36.5.55-.73-.99-.94-1.24-.61-.77.47.83.9,1.65,1.27,2.53l-.76-1.79c1.26,3.01,2.44,6.16,5.08,8.27,2.8,2.25,6.25,3.68,9.91,3.38s7.09-1.56,9.47-4.3,3.38-5.76,4.7-9l-.76,1.79c.19-.45.39-.89.62-1.31.15-.27,1.09-1.58.21-.44s.24-.09.37-.29c-1.08.79-1.31.97-.69.55.19-.12.39-.22.6-.31l-1.79.76c.33-.13.63-.21.97-.28l-1.99.27c.39-.05.76-.06,1.16-.02l-1.99-.27c.37.06.71.15,1.05.28l-1.79-.76c.11.05.66.43.74.41-.21.06-1.68-1.55-.85-.62.17.19.35.39.53.58.41.44-1.3-1.91-.55-.67.57.94,1.09,1.89,1.59,2.87,1.54,3,3.42,5.81,6.35,7.63,1.96,1.22,4.53,1.85,6.82,1.66,3.39-.28,6.14-1.71,8.64-3.97,1.64-1.48,2.91-3.37,4.18-5.17.79-1.13-1.12,1.32-.27.34.32-.37.64-.75.99-1.1.6-.6,1.1-.57-.44.23.41-.21.77-.5,1.19-.71l-1.79.76c.43-.18.85-.31,1.31-.4l-1.99.27c.48-.06.93-.07,1.41-.01l-1.99-.27c.45.07.87.19,1.29.36l-1.79-.76c.24.11.45.24.68.36.98.51-1.07-.93-.79-.65.42.42.85.81,1.25,1.25.78.87-.38-.47-.55-.74.16.25.35.48.52.72.35.49.69,1,1.02,1.5,1.9,2.83,3.86,5.56,6.79,7.41,3.65,2.3,8.6,2.48,12.3.21,2.88-1.77,4.83-4.52,6.66-7.28.36-.55.72-1.1,1.1-1.64.19-.28.39-.56.59-.84.76-1.07-1.13,1.35-.49.63.41-.47.83-.9,1.26-1.35.6-.63-1.76,1.15-.76.59.27-.15.51-.3.79-.42l-1.79.76c.31-.11.61-.19.94-.24l-1.99.27c.32-.03.63-.01.95.02l-1.99-.27c.66.09,1.27.25,1.89.5l-1.79-.76c.27.13,1,.72,1.28.73-.07,0-1.49-1.28-.85-.64.16.16.34.32.5.48.28.29.55.6.81.91,1.02,1.24-1.07-1.41-.31-.42s1.47,2.05,2.37,2.9c.53.5,1.15.9,1.73,1.35.42.32-1.26-1.13-.73-.55.31.34.7.66,1.05.96,3.77,3.25,8.61,3.77,13.09,1.62s6.82-7.34,5.63-12.14c-.95-3.81-5.44-6.46-9.23-5.24s-6.26,5.15-5.24,9.23l.08.32-.27-1.99c.04.21.04.43.02.64l.27-1.99c-.02.21-.07.42-.15.62l.76-1.79c-.08.2-.17.39-.29.58.84-1,1.05-1.29.63-.88-.42.4-.14.18.84-.64-.2.13-.41.24-.63.33l1.79-.76c-.34.13-.66.22-1.02.3l1.99-.27c-.49.06-.94.04-1.43-.02l1.99.27c-.29-.06-.55-.13-.83-.24l1.79.76c-1.39-.72,1.3,1.23.5.44-.29-.28-.59-.55-.89-.82-.59-.48-1.19-.95-1.8-1.4-.73-.55-.42-.31.93.71-.16-.2-.38-.38-.55-.58-.41-.47-1.25-1.59.46.62-.49-.64-.98-1.28-1.48-1.91-.44-.56-.88-1.11-1.39-1.61-4-3.99-10.1-5.67-15.3-3.06-3.17,1.59-5.28,4.63-7.19,7.5-.39.58-.77,1.17-1.17,1.75-.15.21-.29.43-.44.64-.42.59-1.34,1.35.42-.51-.43.45-.82.93-1.26,1.37-1.03,1.02,1.58-.97.68-.52-.24.12-.46.27-.71.38l1.79-.76c-.31.12-.61.21-.94.26l1.99-.27c-.36.04-.71.03-1.07-.01l1.99.27c-.46-.07-.88-.19-1.31-.36l1.79.76c-.28-.13-.53-.28-.79-.42-1.23-.67,1.11.97.69.56s-.81-.77-1.17-1.2c-.42-.49-1.03-1.51.47.63-.2-.28-.4-.55-.6-.83-.35-.5-.68-1.01-1.02-1.51-1.88-2.8-3.91-5.61-6.91-7.31-5.11-2.89-10.98-1.57-15.24,2.17-1.67,1.47-2.94,3.38-4.22,5.17-1.13,1.58.89-.95,0,0-.27.28-.51.58-.79.86-.18.18-.37.36-.56.53-.59.49-.38.33.62-.48-.42.12-.87.5-1.28.68l1.79-.76c-.34.12-.67.21-1.02.28l1.99-.27c-.37.04-.7.05-1.07.03l1.99.27c-.44-.06-.84-.15-1.26-.31l1.79.76c-.24-.11-.47-.24-.7-.36-1.13-.59,1.41,1.37.71.56-.15-.17-.32-.34-.48-.5-.75-.74,1.18,1.72.58.77-.57-.9-1.11-1.79-1.6-2.73-1.19-2.3-2.43-4.73-4.42-6.46-3.9-3.39-9.39-4.28-13.95-1.51-2.18,1.32-4.04,3.34-5.27,5.57-1.05,1.89-1.69,4-2.51,6l.76-1.79c-.2.47-.41.94-.66,1.39-.12.22-.25.44-.39.65.77-.95.97-1.2.6-.76-.12.15-.25.29-.39.42-.56.5-.3.31.77-.56-.39.16-.74.44-1.13.61l1.79-.76c-.51.19-1.02.33-1.56.42l1.99-.27c-.66.08-1.29.08-1.95.01l1.99.27c-.65-.1-1.26-.27-1.87-.52l1.79.76c-.2-.09-.39-.18-.57-.29-.63-.4-.39-.19.72.63-.17-.14-.33-.28-.47-.44-.51-.58-.36-.37.45.63-.15-.44-.55-.89-.76-1.32-.23-.46-.43-.93-.63-1.41l.76,1.79c-1.2-2.88-2.26-5.63-4.56-7.86-2.86-2.78-7.04-4.35-11-3.27-3.51.96-6.32,3.9-7.31,7.38-1.19,4.22.59,8.41,4.22,10.72,3.32,2.1,8.42.8,10.26-2.69,1.96-3.7.85-8.02-2.69-10.26h0Z"/>
      </g>
      <rect class="cls-21" x="21.24" y="75.25" width="3.65" height="7.45" rx="1.3" ry="1.3" transform="translate(-56 101.71) rotate(-89.76)"/>
      <polygon class="cls-21" points="18.49 54.9 14.39 54.88 14.36 58.53 18.45 58.55 18.49 54.9"/>
      <path class="cls-21" d="m19.96,57.26v-1.06c0-.72-.57-1.3-1.29-1.3h-.18s-.04,3.65-.04,3.65h.2c.72,0,1.3-.57,1.3-1.29Z"/>
      <polygon class="cls-21" points="58.16 65.99 62.53 66.01 62.53 62.35 58.2 62.34 58.16 65.99"/>
      <path class="cls-21" d="m59.23,79.4c-.72,0-1.3.58-1.3,1.29v1.06c0,.72.57,1.3,1.29,1.3h3.28s0-3.64,0-3.64h-3.27Z"/>
      <path class="cls-20" d="m132.35,130.53l24.88.1.09-24.04-3.11,5.38c-1.98,3.42-5.34,5.81-9.22,6.56h0c-3.71.71-6.96,2.94-8.97,6.14l-3.67,5.86Z"/>
      <polygon class="cls-17" points="44.82 68.59 44.91 59.69 31.79 59.56 31.6 77.99 31.54 83.62 44.67 83.76 44.82 68.59"/>
      <rect class="cls-4" x="33.25" y="61.1" width="10.28" height="7.75" transform="translate(.67 -.39) rotate(.59)"/>
      <path class="cls-24" d="m43.36,77.27l.07-6.69c0-.14-.11-.25-.24-.25l-9.74-.1c-.14,0-.25.11-.25.25l-.09,11.44c0,.14.11.25.24.25l9.76.1c.14,0,.25-.11.25-.25v-4.74Z"/>
      <rect class="cls-17" x="37.43" y="69.97" width="1.67" height="12.84" transform="translate(.79 -.39) rotate(.59)"/>
      <rect class="cls-4" x="48.72" y="60.04" width="9.46" height="7.75" rx=".02" ry=".02" transform="translate(.66 -.55) rotate(.59)"/>
      <rect class="cls-9" x="144.36" y="106.11" width="2.3" height="27.33" transform="translate(25.17 264.82) rotate(-89.78)"/>
      <rect class="cls-9" x="143.68" y="105.95" width="2.3" height="29.31" transform="translate(289.18 241.76) rotate(-179.78)"/>
      <path class="cls-20" d="m28.14,67.53l-9.4-.1s-.03-.01-.03-.03l.02-2.15c2.05,1.62,3.99.03,5.32-1.65,1.31-1.66,2.09-2.29,3.79-3.55l.37-.28s.03.01.03.03l-.08,7.69s-.01.03-.03.03Z"/>
      <path class="cls-20" d="m43.46,68.86l-10.09-.1s-.03-.01-.03-.03l.02-2.15c2.2,1.62,4.29.04,5.71-1.64s2.24-2.29,4.07-3.55l.4-.28s.03.01.03.03l-.08,7.69s-.01.03-.03.03Z"/>
      <g>
        <path class="cls-4" d="m54.13,63.52c1.41-1.76,2.26-2.44,4.07-3.76l-9.58-.1s-.02.01-.02.02l-.06,5.72c2.16,1.52,4.2-.14,5.6-1.89Z"/>
        <path class="cls-4" d="m58.2,60.09l-.08,7.41s-.01.03-.03.03l-9.41-.1v.29s0,.02.02.02l9.41.1s.02,0,.02-.02l.08-7.71s0-.02-.02-.02Z"/>
        <path class="cls-20" d="m58.2,60.09v-.29s0-.03-.03-.03l-.38.28s-.03.02-.05.04h.45s0,0,0,0Z"/>
        <path class="cls-20" d="m48.55,65.25l-.02,2.15s.01.03.03.03h.13s.02-2.06.02-2.06c-.05-.04-.11-.08-.16-.12Z"/>
        <path class="cls-20" d="m58.12,67.5l.08-7.41s0,0,0,0h-.45c-1.69,1.23-2.48,1.86-3.8,3.51-1.31,1.64-3.22,3.18-5.24,1.77l-.02,2.06,9.41.1s.03-.01.03-.03Z"/>
      </g>
      <rect class="cls-12" x="17.29" y="67.39" width="11.86" height="2.43"/>
      <rect class="cls-12" x="47.72" y="67.39" width="11.86" height="2.43"/>
    </g>
  </g>
</svg>