<svg xmlns="http://www.w3.org/2000/svg" viewBox="0 0 200 200"><defs><style>.cls-1{fill:none}.cls-2{fill:#78577a}.cls-3{fill:#864732}.cls-4{fill:#e2c5bc}.cls-5{fill:#fff}.cls-6{fill:#fd7f03}.cls-7{fill:#a85536}.cls-8{fill:#f4c044}.cls-10{fill:#9eb2b3}.cls-11{fill:#e2b142}.cls-12{fill:#9de863}.cls-13{fill:#5b3d5b}</style></defs><path d="M5.76 178.14c.36-.28 9.02-7.33 12.4-10.85s8.38-8.94 11.27-12.99 9.03-13.94 10.44-16.86c1.41-2.92 3.19-6.98 3.19-6.98s-7.98 1.53-10.15 1.81-11.53.63-11.53.63 4.39-4.59 6.52-6.8 8.95-9.95 10.93-12.68c1.99-2.73 7.33-10.81 8.93-13.83 1.6-3.02 5.51-11.36 6.49-14.03.97-2.67 3.33-10.36 3.33-10.36s-4.83 1.14-7.53 1.34-6.99 0-6.99 0 7.62-7.67 9.82-10.21c2.2-2.54 7.84-9.66 9.69-12.52 1.85-2.86 5.01-8.19 5.97-10.08.96-1.89 3.85-8.49 3.85-8.49s-4.89.63-7.27.48-7.27-.87-7.27-.87 4.95-2.19 8.09-4.61 6.91-5.45 9.38-8.05c2.47-2.61 6.77-7.63 8.46-10.21 1.68-2.58 4.54-7.03 4.54-7.03s3.41 5.45 4.63 7.16c1.21 1.71 5.99 7.67 7.63 9.32 1.64 1.65 6.82 6.34 8.58 7.66 1.76 1.32 6.65 4.75 7.8 5.13 1.14.38 1.83.63 1.83.63s-7.5.82-9.05.87c-1.55.05-5.48-.48-5.48-.48s4.38 9.74 6.19 12.75c1.81 3.01 8.87 13.45 12.57 17.5s11.03 11.06 11.03 11.06-5.96.81-8.12.28l-6.6-1.62s2.7 9.61 3.9 12.47c1.2 2.86 6.13 14.58 12.45 22.8 6.32 8.22 16.4 18.89 17.33 19.74s2.75 2.83 2.75 2.83-8.58.56-14.05-.98c-5.46-1.55-7.83-1.84-7.83-1.84s4.15 10.89 8.85 17.62c4.7 6.73 13.85 18.04 19.04 22.6 5.2 4.56 9.12 7.69 9.12 7.69s-2.49 1.26-7.85.37c-5.36-.88-11.13-1.3-14.22-2.22-3.09-.93-8.76-3.11-8.76-3.11s-3.84 4.51-7.33 6.08c-3.49 1.58-9.98 3.53-9.98 3.53s-6.62-4.1-7.9-6.13c0 0-5.83 4.44-11.18 6.72-5.35 2.29-15.18 3.72-15.18 3.72s-10.59-1.13-15.95-4.01c-5.36-2.89-10.23-6.19-10.23-6.19s-4.78 3.67-5.74 4.35-2.62 1.54-2.62 1.54-4.81-.32-9.75-3.51c-4.95-3.2-7.38-6.23-7.38-6.23s-5.21 3.12-9.42 3.79c-4.21.67-13.51 1.82-15.67 1.79-2.16-.03-5.93-.49-5.93-.49z" style="fill:#edebe8" id="BG_Strong"/><g id="Illustrations"><path class="cls-10" d="M178.27 92.31c-.57-1.93-2.06-3.44-3.7-4.52-1.02-.68-2.13-1.21-3.23-1.73-1.2-.56-2.41-1.12-3.61-1.69-.27-.13-.59-.08-.75.2-.14.24-.07.63.2.75l.39.18c.13.85.32 2.37.22 3.53-.16 1.71-.68 3.12-.98 3.94-.18.5-.49 1.14-.72 1.57-.61-.3-1.14.62-.53.96 1.98 1.08 4.09 2 6.26 2.61 1.03.29 2.11.47 3.18.3.91-.14 1.78-.6 2.37-1.31 1.09-1.3 1.38-3.18.9-4.79z"/><path class="cls-4" d="M164.07 79.24c-2.16-1.73-4.97-2.56-7.71-2.06-.29.05-.46.41-.38.68.02.07.05.14.1.19-.12.04-.2.07-.2.07s1.12 1.42 1.27 1.92c.15.5 2.02 6.23 2.02 6.23l-1.51.79s1.27 1.37 1.51 1.59c.24.22.19.63.33 1.41.14.78-2.17 2.6-2.17 2.6l2.13.27s-.21 1.16-.64 2.05-1.96 2.82-1.96 2.82.14 0 .35.02c-.01.25.13.52.39.57 2.46.44 5.03-.16 7-1.7 1.67-1.3 2.79-3.21 3.32-5.24 1.14-4.33-.31-9.38-3.85-12.22z"/><path class="cls-1" d="M138.15 92.84c0-.16-.12-.14-.21-.17.06.06.07.18.21.17zM145.93 86.5c-.46.12-.83-.07-1.06-.43-.03-.04-.04-.09-.06-.13-.02.03-.05.07-.08.11-.1-.02-.26-.13-.27.12 0 .1-.04.2-.07.33.58.02 1.11.04 1.58.06-.01-.02-.03-.03-.04-.05zM146.75 86.15c-.06-.06-.11-.12-.17-.18-.1.06-.11.12-.06.22.07.14.08.27.04.38.1 0 .2 0 .28.01 0-.14-.02-.28-.1-.43z"/><path class="cls-7" d="M144.54 86.79s.01.11 0 .16c.01.07.03.12.03.2 0 .68 0 .7.64.8.09.01.16.05.22.09 0-.33.23-.57.51-.74.26-.21.51-.2.76-.13 0-.06.02-.13.05-.2.05-.14.09-.27.09-.41-.09 0-.19 0-.28-.01-.02.06-.06.12-.12.15-.17.1-.34.03-.47-.17-.47-.02-1-.04-1.58-.06 0 .03-.01.05-.02.08.04.04.12.12.16.22zM148.31 86.76c0-.05-.01-.11-.02-.16h-.23c.05.07.13.13.26.16z"/><path class="cls-7" d="M159.27 88.44c-.36.12-.73 0-.9-.32-.11-.2-.24-.2-.41-.14l-.3-.39c-.14-.18-.16-.36-.05-.58.08-.16.15-.33.2-.5a.481.481 0 0 0-.44.08h-1.94c0 .15-.08.31-.13.48-.18-.04-.31-.08-.45-.11l-.16.22c-.25-.03-.29-.22-.38-.4.1-.06.18-.1.26-.14v-.04h-2.67c-.16.09-.44-.06-.46.26.35.22.67.47.71.94.03.27-.04.46-.32.62-.36.21-.68.33-1.1.27-.25-.03-.54.16-.74-.13.09-.23.09-1.18-.03-1.6-.08.18-.13.29-.17.41-.18.52-.55.71-1.04.49-.28-.13-.55-.14-.78.02a.64.64 0 0 1-.31.12c.02.08.03.16.04.24.03.44-.36.82-.84.9-.36.06-.78-.13-1.07-.41-.32.15-.68.14-.71.58.35.23.72.48.6 1.02-.06.3-.28.48-.55.53-.57.1-.83-.29-1.05-.7-.61.09-.62.12-.59.6 0 .13-.07.28-.15.39-.02.03-.27-.03-.27-.05 0-.13.04-.27.07-.4.01-.06.04-.12.07-.22-.35-.08-.88.47-1.22.39-.56-.13-.43-.8-.47-1.36-.04-.49-.99-.79-.02-1.52.51-.21.92-.65 1.6-.57 0-.19-.01-.37-.02-.62.12-.05.24-.12.37-.18-.05-.03-.09-.07-.14-.11a.138.138 0 0 0-.04-.03c-1.33-.04-2.73-.06-3.87-.04.02.25-.07.53-.27.81-.34.63-1.6.77-1.98-.06-.18-.4-.41-.77-.76-1.05-.01 0-.01-.02-.02-.03-.03.01-.07.02-.09.04-.42.32-.83.67-1.2 1.04h-.2s-.68.4-1.12 1.98c-.03.11-.04.22-.05.32.07-.05.15-.08.22-.1.05 0 .1-.03.17-.04.07.3.08.28.35.32.21.03.46.06.61.19.25.21.51.43.56.8.02.16-.01.28-.09.42-.07.12-.1.25-.28.27-.05 0-.11.04-.13.09-.14.24-.39.23-.59.23-.09 0-.19-.02-.28-.05.18.23.32.36.32.36h.21c.27.2.58.34.9.42.2.07.42.12.64.29l1.59-.03c-.11-.11-.19-.24-.16-.42.03-.19-.12-.3-.25-.39-.19-.13-.25-.23-.18-.36.07-.12.2-.15.39-.08.03.01.06.02.1.03.03-.06.05-.11.08-.17-.04-.01-.07-.03-.1-.03-.08 0-.18.02-.25-.02s-.14-.15-.13-.21c.02-.11.13-.16.25-.14.17.02.24.14.29.31.16-.28.31-.53.55-.72-.02-.06-.04-.13-.06-.2-.38.16-.74.25-1.01-.13-.12-.16-.21-.34-.17-.56.05-.27.44-.62.77-.52.37.11.72.31.53 1.02.12.05.27.07.36.16.12.1.08.25-.05.37l.04.04c.1-.03.2-.05.3-.08.13.05.27.13.42.15.17.03.34.03.41.25.02-.01.04-.03.06-.04.03-.07.05-.15.08-.22.04-.11.1-.23.25-.2.1.02.2.22.17.34-.04.19-.17.34-.39.45l-.09.77c.08.06.13.1.19.14.14.08.14.2.08.33-.06.14-.17.19-.31.14-.11-.04-.21-.01-.31.04.91.03 1.82.07 2.73.09.28 0 .56 0 .84.01 0-.14.11-.22.53-.15.06.03.12.09.18.16 2.28.04 4.57.06 6.85.04.33 0 .65-.01.98-.02-.14-.22-.31-.42-.12-.73.25-.41.61-.26 1.01-.27.11.29.22.59.36.95.06-.01.18-.03.29-.07.26-.11.37-.09.47.07.42 0 .84-.01 1.25-.02 1.01-.03 2.05-.07 3-.45.18-.07.35-.16.52-.26h.27c.37-.23.62-.52.81-.85-.06-.03-.12-.05-.16-.1-.12-.18-.07-.45.11-.56.11-.07.23-.05.33.03.09-.29.15-.6.17-.94.03-.49-.24-1.06-.53-1.53-.07.17-.19.32-.39.38zm-24.22-.45c-.16.1-.37.05-.47-.12-.1-.16-.07-.32.09-.41.17-.1.37-.05.47.11.1.15.06.32-.09.41zm5.34-.48c-.08.07-.18.12-.27.14-.14.02-.23-.11-.2-.25l.06-.2c0-.02-.01-.04-.01-.03.11 0 .21-.01.29.01.07.02.16.07.19.14.02.04-.02.15-.06.19zm6.43 4.51c-.11-.02-.23-.03-.34-.05 0-.05-.02-.07-.01-.08.07-.2.21-.32.32-.28.11.04.12.15.03.41zm3.4-.08c-.25-.14-.45 0-.63.13-.19.14-.17.16-.45.24-.05-.09-.1-.18-.15-.28h-.06c-.27-.08-.53-.15-.82-.1-.05 0-.14-.05-.15-.1-.07-.32-.95-.57-.97-.9-.01-.16.64-.29.76-.4.06-.06.11-.13.16-.2.18-.21.41-.24.66-.2.04 0 .1.02.12 0 .2-.14.34-.02.48.09.04.03.08.07.13.09.18.09.24.21.18.41-.03.08 0 .17 0 .21.25.04.44.06.63.11.12.03.2.13.19.26 0 .2.07.36.21.52-.09.09-.16.2-.3.11zm3.18-3.67c.02-.06.08-.12.08-.18.01-.17.08-.28.2-.3.12-.02.25.1.25.23 0 .12-.08.18-.29.21 0 0-.02 0-.05.01 0 .05 0 .08-.01.11-.02.04-.05.11-.08.12-.04 0-.11-.03-.13-.06-.02-.03.01-.09.03-.13zm1.64.68c0 .06-.06.11-.05.16 0 .31.01.61.02.94-.16-.02-.3-.04-.46-.05-.05.31-.21.5-.51.59-.31.09-.49-.11-.68-.31-.14.17-.25.32-.37.47-.01.01-.02.03-.04.04-.4.26-1.07.07-1.23-.36a.52.52 0 0 1 .05-.48c.28-.48.59-.62 1.13-.49.24.05.25.05.38-.16.16-.25.44-.3.67-.11.13.11.26.21.43.34.09-.22.17-.4.24-.58.03-.08.06-.16.11-.22.09-.1.2-.09.28 0 .04.05.04.15.03.22zm2.15 3.04c-.13.14-.42.16-.61.05-.23-.14-.27-.41-.1-.81.41-.15.65-.11.8.13.11.17.07.46-.1.63z"/><path class="cls-3" d="M146.44 86.72c.06-.03.1-.09.12-.15-.18 0-.38-.01-.59-.02.14.21.3.27.47.17zM137.95 92.68v-.01h.01zM140.07 92.61c.14.05.25 0 .31-.14.06-.13.05-.25-.08-.33-.06-.04-.12-.09-.19-.14l.09-.77c.22-.1.36-.26.39-.45.02-.12-.07-.32-.17-.34-.15-.02-.2.09-.25.2-.03.07-.06.15-.08.22-.02.01-.04.03-.06.04-.07-.22-.24-.23-.41-.25-.15-.02-.29-.1-.42-.15-.1.03-.2.05-.3.08l-.04-.04c.13-.12.17-.26.05-.37-.09-.08-.24-.11-.36-.16.2-.71-.16-.91-.53-1.02-.33-.1-.72.26-.77.52-.04.22.05.4.17.56.27.38.63.29 1.01.13.02.08.04.14.06.2-.25.19-.4.44-.55.72-.04-.17-.12-.28-.29-.31-.12-.02-.23.03-.25.14-.01.07.06.17.13.21.06.04.16.01.25.02.03 0 .06.02.1.03-.03.06-.05.12-.08.17-.04-.01-.07-.02-.1-.03-.19-.07-.32-.05-.39.08-.07.12-.01.23.18.36.13.09.28.19.25.39-.03.18.05.31.16.42h.75c.37 0 .75 0 1.12.02.1-.06.19-.09.31-.04zM143.43 86.59c.11-.05.21-.1.33-.12h.02c-.17 0-.35-.01-.52-.02.01.01.02.02.04.03l.14.11zM144.53 86.95a.22.22 0 0 0 0-.16c-.04-.1-.13-.18-.16-.22 0-.03.01-.05.02-.08h-.25c.21.06.34.22.39.47zM154.3 86.78c.09.18.13.37.38.4l.16-.22c.14.03.27.07.45.11.05-.17.13-.33.13-.48h-.87v.04c-.08.04-.15.09-.26.14zM143.87 92.61c-.42-.07-.54 0-.53.15.24 0 .47 0 .71.01-.06-.07-.11-.13-.18-.16zM146.85 86.58c0 .14-.04.27-.09.41-.02.07-.04.13-.05.2.14.04.28.1.42.17.3.14.45.37.52.64.1 0 .2-.04.31-.12.24-.16.5-.15.78-.02.49.22.86.03 1.04-.49.04-.11.09-.22.17-.41.12.43.12 1.37.03 1.6.21.29.49.09.74.13.42.06.75-.05 1.1-.27.28-.16.34-.35.32-.62-.04-.46-.36-.72-.71-.94.02-.32.3-.17.46-.26h-3.6c0 .05.02.11.02.16a.449.449 0 0 1-.26-.16h-.5c-.13 0-.38 0-.7-.02zM153.42 92.68c-.11.04-.22.05-.29.07-.13-.36-.25-.66-.36-.95-.4 0-.76-.14-1.01.27-.19.31-.02.52.12.73.67 0 1.34-.02 2.01-.04-.1-.17-.21-.18-.47-.07zM154.72 88.74c-.05.06-.08.14-.11.22-.08.18-.15.36-.24.58-.17-.14-.3-.24-.43-.34-.23-.19-.51-.15-.67.11-.13.21-.15.21-.38.16-.54-.13-.84.01-1.13.49-.1.16-.1.33-.05.48.16.44.83.63 1.23.36.01 0 .02-.03.04-.04.12-.15.23-.29.37-.47.19.2.37.4.68.31.3-.09.46-.29.51-.59.16.02.3.03.46.05 0-.33-.01-.64-.02-.94 0-.05.04-.1.05-.16 0-.07 0-.17-.03-.22-.08-.08-.2-.09-.28 0zM158.74 87.18c-.25-.23-.53-.43-.81-.61-.04-.03-.09-.04-.13-.06-.05.17-.12.34-.2.5-.1.21-.08.4.05.58l.3.39c.17-.06.3-.07.41.14.17.32.54.44.9.32.2-.06.32-.21.39-.38-.31-.5-.64-.88-.64-.88h-.29zM150.12 91.05c-.19-.05-.38-.07-.63-.11 0-.04-.03-.13 0-.21.07-.2 0-.32-.18-.41-.05-.02-.09-.06-.13-.09-.14-.12-.28-.23-.48-.09-.03.02-.08 0-.12 0-.25-.04-.48 0-.66.2-.06.06-.1.14-.16.2-.13.11-.77.24-.76.4.03.34.9.59.97.9.01.04.1.1.15.1.29-.05.55.01.82.1h.06c.05.09.1.19.15.28.27-.08.26-.1.45-.24.18-.14.39-.27.63-.13.14.08.2-.03.3-.11-.13-.16-.21-.32-.21-.52 0-.13-.08-.23-.19-.26zM137.13 87.16c.38.83 1.64.69 1.98.06.2-.28.29-.56.27-.81-.97.02-1.74.07-2.11.18-.08.02-.14.05-.21.08.02-.11.01-.23-.06-.35-.12-.2-.42-.33-.66-.23.01 0 .01.02.02.03.35.28.58.65.76 1.05zM133.69 89.47c-.18.12-.33.31-.34.48-.03.43-.07.86.3 1.19.07.06.1.16.16.23.03.04.06.1.1.11.1.04.21.08.32.12a2.8 2.8 0 0 1-.54-2.13z"/><path class="cls-3" d="M135.1 91.41s.09-.08.13-.09c.17-.02.21-.15.28-.27.08-.14.11-.27.09-.42-.05-.37-.32-.59-.56-.8-.15-.13-.4-.15-.61-.19-.27-.04-.27-.03-.35-.32-.07.02-.12.04-.17.04a.54.54 0 0 0-.22.1 2.8 2.8 0 0 0 .54 2.13c.09.03.19.06.28.05.2 0 .45 0 .59-.23zM145.43 88.06v-.01a.487.487 0 0 0-.22-.09c-.64-.1-.63-.12-.64-.8 0-.08-.02-.14-.03-.2 0 .03-.02.06-.03.08-.09.07-.2.04-.26-.07-.04-.08-.09-.15-.13-.22-.29.11-.49 0-.69-.14-.13.06-.25.13-.37.18 0 .24.01.43.02.62-.68-.07-1.1.37-1.6.57-.97.73-.02 1.03.02 1.52.04.56-.09 1.23.47 1.36.34.08.87-.48 1.22-.39-.03.1-.05.16-.07.22-.03.13-.07.27-.07.4 0 .02.25.08.27.05.08-.11.16-.26.15-.39-.03-.49-.02-.51.59-.6.22.41.49.8 1.05.7.27-.05.49-.22.55-.53.11-.53-.26-.79-.6-1.02.03-.44.39-.43.71-.58-.2-.19-.33-.42-.34-.66zM143.78 86.47c.12 0 .25 0 .37.01a.76.76 0 0 0-.37-.01z"/><path class="cls-3" d="M144.11 86.73c.04.07.09.15.13.22.06.11.17.14.26.07.02-.01.02-.05.03-.08-.05-.24-.18-.41-.39-.47-.12 0-.25 0-.37-.01h-.02c-.11.02-.22.07-.33.12.19.14.4.25.69.14zM146.71 87.18c-.25-.07-.5-.09-.76.13-.29.17-.52.4-.51.74.2.14.29.4.53.56-.06.05-.12.08-.19.11.29.28.71.47 1.07.41.48-.08.87-.46.84-.9 0-.08-.02-.16-.04-.24-.27.02-.48-.2-.7-.33a.464.464 0 0 1-.24-.48z"/><path class="cls-3" d="M147.13 87.35c-.14-.06-.28-.12-.42-.17-.02.19.05.37.24.48.22.13.43.35.7.33-.07-.28-.22-.51-.52-.64zM145.43 88.05v.01c.01.24.15.47.34.66.07-.03.13-.06.19-.11-.24-.16-.33-.42-.53-.56zM134.6 93.57zM156.48 91.23c-.16.39-.13.66.1.81.18.11.47.09.61-.05.17-.17.21-.46.1-.63-.16-.24-.39-.28-.8-.13zM160.02 90.53c-.1-.07-.22-.1-.33-.03-.18.12-.23.38-.11.56.03.05.1.08.16.1M134.66 87.46c-.16.09-.19.25-.09.41.1.16.31.22.47.12.15-.09.19-.26.09-.41-.1-.16-.3-.21-.47-.11zM153.58 88.35s0-.06.01-.11c.03 0 .04-.01.05-.01.22-.03.3-.08.29-.21 0-.13-.14-.25-.25-.23-.12.02-.19.13-.2.3 0 .06-.06.12-.08.18-.02.04-.05.1-.03.13.02.04.09.07.13.06.03 0 .06-.07.08-.12zM140.26 87.18c-.08-.02-.18-.01-.29-.01 0 0 .01.01.01.03-.02.07-.04.14-.06.2-.04.14.05.27.2.25.1-.02.2-.07.27-.14.05-.04.09-.15.06-.19-.03-.06-.12-.11-.19-.14zM146.47 91.88s0 .04.01.08c.11.02.23.03.34.05.09-.25.08-.37-.03-.41-.11-.04-.25.08-.32.28z"/><path class="cls-1" d="M129.69 44.83c.84-2.64 1.82-6.69 1.77-8.45a7.785 7.785 0 0 0-1.77-4.74c.01 1.75.02 3.6.02 5.52 0 2.72 0 5.31-.03 7.67z"/><path class="cls-13" d="M123.53 17.46c.05 1.09.08 2.75.1 4.88.01 1.75.01 3.82 0 6.09 1.66.36 3.25.89 4.33 1.62.28.19.54.4.79.61.05-6.33.18-11.19.35-12.72-1.85-.22-3.7-.38-5.56-.48zM115.4 17.4c-.72.03-1.45.06-2.17.1-3.16.19-6.31.54-9.43 1.08-.93.16-1.85.35-2.77.55.05 1.01.1 2.52.25 4.44.24 3.59.85 8.51 1.77 13.93s1.79 10.33 2.34 13.9c.33 2.09.55 3.71.66 4.7 1.7-.03 3.4-.05 5.1-.06h.84c-.25-.97-.55-2.28-.88-3.9-.72-3.55-1.51-8.51-2.01-14.03-.49-5.52-.6-10.54-.52-14.16.07-3.63.29-5.86.42-5.86.15 0 .18 2.24.29 5.85.11 3.61.32 8.59.81 14.08.49 5.48 1.17 10.43 1.71 14 .25 1.67.46 3.03.6 4.02h2.55c.71 0 .71-1.1 0-1.1h-.33c-.03-1.15-.11-3.91-.31-5.55-.26-2.11-2.17-6.58-3.21-9.71-1.04-3.13-.64-6.82.64-8.59.88-1.22 2.23-2.23 3.79-2.79-.17-5.51-.22-9.59-.13-10.91zM94.92 20.86c-.26.1-.42.33-.38.61 0 .04-.02.07-.02.11.34 4.45.67 8.89 1.01 13.34.33 4.42.67 8.83 1 13.25.19 2.45.37 4.91.56 7.36-.04.08-.07.16-.07.25 0 .29.25.56.55.55.52-.02 1.03-.03 1.55-.05-.39-1.27-1.46-8.87-2.52-18.12-.92-7.95-1.56-14.72-1.67-17.3z"/><path class="cls-13" d="M102.06 37.67c-.92-5.44-1.43-10.44-1.49-14.06-.05-1.81.01-3.28.08-4.29v-.1c-1.64.37-3.27.8-4.86 1.34-.19.06-.37.13-.56.2.48 2.48 1.41 9.27 2.34 17.3 1.07 9.27 1.77 16.94 1.67 18.23 2.15-.08 4.3-.13 6.45-.17-.25-.97-.6-2.54-1.02-4.58-.72-3.54-1.7-8.42-2.63-13.86zM133.21 52.16c.15-3.56.43-8.45.8-13.87.34-5.45 1.17-10.3 1.28-13.83.14-2.85.17-4.81.26-5.48-.77-.16-1.54-.31-2.32-.45-1.3-.23-2.6-.41-3.91-.57.18 1.64.32 6.9.37 13.68a7.785 7.785 0 0 1 1.77 4.74c.04 1.76-.93 5.81-1.77 8.45-.06 5.84-.19 10.23-.34 11.61 1.24.06 2.49.12 3.73.19 0-1 .04-2.53.13-4.48zM138.69 38.44c.31-5.27.86-10.02 1.4-13.43.33-2.1.63-3.69.85-4.61-1.72-.55-3.46-1.01-5.22-1.38.12.7.27 2.64.28 5.46.07 3.6-.66 8.49-.99 13.88-.37 5.42-.76 10.33-1.09 13.87-.18 1.93-.34 3.44-.48 4.42.78.04 1.57.08 2.35.13.9.06 1.8.11 2.71.18.14 0 .27-.05.37-.15-.12-.89-.25-2.58-.34-4.85-.14-3.45-.14-8.24.16-13.51zM126.26 55.21h-.15c-.3-.01-.55.26-.55.55 0 .31.25.54.55.55 1.01.04 2.01.09 3.02.13-.14-1.18-.25-4.55-.33-9.11-.83 2.36-2.13 6.55-2.54 7.89zM123.18 17.44c-2.52-.12-5.05-.14-7.57-.05.2 1.29.49 5.27.79 10.66.44-.1.89-.18 1.35-.2 1.21-.05 3.09.07 4.98.4.06-2.21.13-4.21.19-5.92.08-2.14.17-3.81.26-4.89z"/><path class="cls-13" d="M142.25 20.79s-.04.01-.06.01c-.32-.11-.64-.2-.96-.31-.07.94-.23 2.53-.45 4.6-.35 3.43-.8 8.16-1.1 13.4-.3 5.24-.41 10-.45 13.44-.02 1.22-.03 2.27-.04 3.12.47-4.12.91-8.24 1.34-12.36.47-4.55.93-9.1 1.42-13.65.28-2.57.56-5.14.86-7.71.03-.3-.28-.55-.55-.55z"/><path class="cls-2" d="M100.66 19.21c.12-.03.25-.06.37-.08M103.05 37.51c-.92-5.42-1.53-10.35-1.77-13.93-.14-1.92-.2-3.43-.25-4.44-.12.03-.25.05-.37.08v.1c-.07 1.01-.13 2.48-.08 4.29.06 3.63.57 8.62 1.49 14.06.92 5.44 1.91 10.32 2.63 13.86.42 2.04.77 3.6 1.02 4.58h.33c-.11-.99-.33-2.6-.66-4.7-.54-3.57-1.42-8.48-2.34-13.9zM110.1 38.03c-.49-5.48-.71-10.47-.81-14.08-.11-3.61-.14-5.85-.29-5.85-.13 0-.34 2.23-.42 5.86-.08 3.63.03 8.64.52 14.16.5 5.52 1.29 10.48 2.01 14.03.33 1.62.63 2.94.88 3.9h.42c-.14-.99-.35-2.35-.6-4.02-.54-3.57-1.21-8.51-1.71-14zM115.4 17.4h.21M115.4 17.4c-.09 1.32-.04 5.4.13 10.91.28-.1.57-.19.87-.26-.3-5.4-.59-9.38-.79-10.66h-.21zM123.18 17.44h.08c.09 0 .18.01.27.02M123.63 22.35c-.02-2.13-.05-3.8-.1-4.88-.09 0-.18-.01-.27-.02h-.08c-.08 1.08-.17 2.75-.26 4.89-.07 1.71-.13 3.72-.19 5.92.3.05.6.11.9.18.01-2.27.01-4.34 0-6.09zM129.69 44.83c.02-2.36.04-4.95.03-7.67 0-1.92-.01-3.77-.02-5.52a7.94 7.94 0 0 0-.95-.98c-.02 2.04-.03 4.22-.02 6.5 0 3.72.03 7.19.08 10.16.13-.38.26-.71.36-.98.16-.41.34-.93.53-1.52zM129.1 17.94c.08 0 .15.02.23.03"/><path class="cls-2" d="M129.7 31.64c-.06-6.77-.2-12.03-.37-13.68-.08 0-.15-.02-.23-.03-.17 1.54-.3 6.39-.35 12.72.36.31.67.64.95.98zM129.16 46.35c-.1.26-.23.6-.36.98.07 4.56.19 7.93.33 9.11h.22c.16-1.38.29-5.78.34-11.61-.19.59-.37 1.11-.53 1.52zM135.55 18.98c.06.01.11.03.17.04"/><path class="cls-2" d="M135.01 38.36c.33-5.39 1.05-10.28.99-13.88-.01-2.82-.16-4.76-.28-5.46-.06-.01-.11-.03-.17-.04-.09.67-.13 2.63-.26 5.48-.11 3.53-.94 8.38-1.28 13.83-.37 5.41-.65 10.31-.8 13.87-.08 1.95-.13 3.48-.13 4.48.12 0 .24.01.35.02.13-.99.3-2.49.48-4.42.33-3.54.72-8.45 1.09-13.87zM94.92 20.86c.11-.04.21-.07.32-.11M99.21 56.49s.04-.09.05-.21h-.14c.04.12.07.21.1.21z"/><path class="cls-2" d="M97.59 38.05c-.93-8.03-1.86-14.82-2.34-17.3-.11.04-.21.07-.32.11.11 2.58.75 9.35 1.67 17.3 1.07 9.24 2.14 16.85 2.52 18.12h.14c.1-1.29-.6-8.96-1.67-18.23zM139.04 56.41c0 .15-.07.29-.17.4.06.46.12.72.16.72.09 0 .13-.91.16-2.46l-.15 1.34z"/><path class="cls-2" d="M139.69 38.5c.31-5.24.75-9.98 1.1-13.4.21-2.07.38-3.66.45-4.6-.1-.03-.2-.06-.3-.1-.22.91-.52 2.51-.85 4.61-.53 3.42-1.09 8.16-1.4 13.43-.3 5.27-.3 10.05-.16 13.51.09 2.28.22 3.96.34 4.85a.56.56 0 0 0 .17-.4l.15-1.34c.02-.86.03-1.9.04-3.12.04-3.44.15-8.2.45-13.44z"/><path class="cls-13" d="m116.11 92.81-.35-9.88 7.77.17 3.95.14v9.57l-7.15.41-4.22-.41z"/><path class="cls-5" d="m127.48 83.24-11.71-.31V76.9s10.34-.2 11.71.08v6.26zM115.94 98.91l.17-6.11 7.42.23 3.95-.23-.36 6.11-7.26.09-3.92-.09z"/><path class="cls-10" d="m97.95 107.02-.35-23.43 17.74-.64.76 15.61h10.93s-.05-15.28.43-15.32 6.87.35 6.87.35l-.27 2.58 2.8.33s-2.13 1.14-2.32 2.34c-.19 1.19-.13 1.9.11 2.21s1.73.91 1.73.91l.48.71h-2.36s.42 2.63 1.32 3.84c.9 1.21 3.47 3.43 3.47 3.43l-.12 7.1H97.95z"/><path class="cls-8" d="M114.94 55.17s-.07-2.38-.55-4.58-2.78-8.53-3.25-10.46-1.47-5.06-.18-7.29c1.29-2.24 2.18-4.23 5.38-4.68 3.2-.45 6.52-.43 8.25.29 1.73.71 3.85 1.78 4.77 3.03s2.23 3.01 2.1 4.91c-.13 1.9-1.32 6.23-1.87 8.03s-2.12 8.49-2.48 8.85-.99 2.4-.99 2.4l-11.18-.48z"/><path class="cls-4" d="M81.7 145.98c-.81-.9-2.64-3.32-2.42-5.17s.11-3.68 2.76-5.2c2.66-1.51 5.39-1.79 6.54-1.29s3.49 2.2 3.84 3.65c.36 1.44.25 5.18-.71 6.52s-1.79 2.47-3.13 2.79c-1.35.32-2.44 1-3.81.38s-2.62-1.17-3.07-1.67z"/><path class="cls-11" d="M133.82 86.49s1.14-4.79 3.05-7.63 5.17-4.76 7.76-5.35c2.6-.59 4.57-.18 6.39.8s3.48 2.73 4.85 4.39c1.37 1.67 3.29 7.56 3.29 7.56l-3.83.33h-18.06l-3.45-.1zM134.51 92.66l24.95.27s-.54 1.95-1.21 2.98-3.31 3.87-5.04 4.65-4.66 1.62-6.23 1.53c-1.56-.09-4.93-.26-7.2-1.87-2.27-1.6-4.22-3.83-4.57-4.92s-.7-2.64-.7-2.64z"/><path class="cls-10" d="M89.86 117.41c.28-.17 2.95-3.49 4.29-4.7s3.5-3.1 3.5-3.1l41.65-.03 6.65 7.82-.33.63-55.76-.62zM128.7 161.9l-1.22-43.87 11.82-.07.44 34.45-8.38 9.58-2.66-.09z"/><path class="cls-10" d="M138.67 118.67c.05 4.79.08 9.58.11 14.37.02 4.26.04 8.53.08 12.79.02 2.26.04 4.53.08 6.79.01.71 1.11.71 1.1 0-.06-4.09-.09-8.18-.11-12.26-.03-4.46-.04-8.92-.07-13.38-.02-2.77-.04-5.54-.07-8.3 0-.71-1.11-.71-1.1 0zM126.92 118.03c.08 3.03.15 6.06.23 9.08l.24 8.68.24 8.3.24 8.12c.08 2.71.15 5.31.23 7.96 0 .34.02.67.03 1.01.02.71 1.12.71 1.1 0-.08-2.65-.15-5.3-.23-7.96l-.24-8.1-.24-8.27c-.08-2.76-.16-5.75-.24-8.63s-.16-6.01-.24-9.02c0-.4-.02-.79-.03-1.19-.02-.71-1.12-.71-1.1 0zM109.49 143.39c0-2.19-.01-4.38-.02-6.57 0-1.83-.01-3.66-.02-5.49 0-1.83 0-3.65-.01-5.48v-7.44c0-.24-.13-.39-.29-.47v-.32l-11.57.15v.11c-.25.02-.49.19-.49.52 0 5.02.02 10.04.03 15.06 0 4.37.02 8.74.03 13.1 0 2.42 0 4.83.01 7.25 0 .61.81.69 1.04.25l1.25.65-.61 7.17 2.17-.15 7.5-9.36c.26.39 1.01.29 1.01-.29 0-2.9 0-5.81-.02-8.71zM138.63 100.56c.03 2 .06 4 .08 6.01 0 .71 1.11.71 1.1 0-.03-2-.05-4-.08-6.01-.01-.71-1.11-.71-1.1 0z"/><path class="cls-10" d="M146 117.22H89.87c-.71 0-.71 1.1 0 1.1H146c.71 0 .71-1.1 0-1.1z"/><path class="cls-10" d="M146.42 117.11a67.889 67.889 0 0 0-6.74-7.93c-.5-.5-1.28.27-.78.78 2.38 2.4 4.58 4.98 6.56 7.71.17.24.48.36.75.2.24-.14.37-.51.2-.75zM96.67 88.29l-7.76-9.72a.57.57 0 0 0 .22-.43c0-.31-.25-.53-.55-.55-3.67-.23-7.21 1.57-9.41 4.48-1.11 1.46-1.82 3.2-2.05 5.02-.23 1.78.01 3.63.65 5.3.74 1.94 1.97 3.63 3.64 4.87.02.01.04.01.06.02.05 1.53.08 3.07.1 4.6.03 2.71.04 5.41.02 8.12-.01 2.78-.05 5.55-.08 8.33-.03 2.72-.07 5.45-.1 8.17-.03 2.55-.05 5.1-.05 7.65v.9c0 .71 1.1.71 1.1 0v-.21c.89-.33 2.65-.91 3.82-.82 1.61.12 4.52 1.03 4.52 1.03l.09-16.9.02-1.94c.24-.04.45-.2.45-.52.05-5.56.09-11.12.14-16.68v-.77c1.4-.6 2.69-1.46 3.67-2.64 1.03-1.23 1.76-2.69 2.13-4.25.22-.89.32-1.81.31-2.73 0-.56-.68-.67-.97-.35z"/><path class="cls-10" d="M90.18 117.9c1.73-2.3 3.77-4.31 5.92-6.21.64-.57 1.29-1.13 1.94-1.69.23-.19.2-.58 0-.78-.22-.22-.55-.19-.78 0-2.21 1.9-4.42 3.82-6.34 6.03-.59.68-1.15 1.38-1.69 2.1-.18.24-.04.62.2.75.28.16.57.04.75-.2zM91.05 93.63c-3.07-.54-6.19-.57-9.27-.11-.29.04-.46.42-.38.68.09.32.38.43.68.38 2.87-.43 5.83-.39 8.69.11.29.05.59-.08.68-.38.07-.27-.09-.63-.38-.68z"/><path class="cls-13" d="M97.72 88.76c-.15-.19-.3-.38-.44-.57l.33-12.01c.02-.24-.08-.49-.37-.58a16.998 16.998 0 0 0-10.18.05c-.12.04-.22.12-.3.22-.03.02-.07.04-.1.06-.22.22-.19.55 0 .78a289.579 289.579 0 0 1 10.12 12.61c.18.24.48.36.75.2.23-.14.38-.51.2-.75zM131.19 161.35c-.19 0-.39 0-.58-.02-.1 0-.21-.02-.31-.03-.15-.02.12.02-.03 0-.05 0-.1-.02-.15-.02-.39-.06-.77-.16-1.14-.29-.27-.09-.61.11-.68.38-.07.3.09.58.38.68.81.27 1.66.4 2.51.41.29 0 .56-.25.55-.55s-.24-.55-.55-.55z"/><path class="cls-10" d="M90.26 118.16c-.04 4.51-.07 9.01-.11 13.52l-.03 3.8c0 .71 1.1.71 1.1 0 .04-4.49.07-8.98.11-13.47l.03-3.85c0-.71-1.1-.71-1.1 0z"/><path class="cls-13" d="M97.15 171.83c0 3.38.02 6.76.02 10.14v2.97c0 .71 1.1.71 1.1 0 0-3.49-.01-6.98-.02-10.47v-2.64c0-.71-1.1-.71-1.1 0z"/><path class="cls-10" d="M97.05 83.08c0 3.56.01 7.13.02 10.69 0 3.42.01 6.84.02 10.27v5.57c0 .71 1.1.71 1.1 0 0-3.34-.01-6.68-.02-10.02 0-3.48-.01-6.97-.02-10.45 0-2.02 0-4.04-.01-6.06 0-.71-1.1-.71-1.1 0z"/><path class="cls-4" d="m139.1 60.73-.06-4.33c0-.7-1.08-.71-1.1-.02l-20.01-.86-19.82.25c0-.7-1.1-.7-1.1 0v10.48c0 3.53.01 7.07.02 10.6 0 1.97 0 3.93.01 5.9 0 .47.48.62.8.47l6.79.03 11.11-.33v-6.03l11.71.08v6.26l6.87.35s1.13-2.19 1.3-2.53c.17-.34 3.14-4.25 3.14-4.25v-.25c.28 0 .56-.17.55-.53-.08-5.1-.16-10.2-.23-15.3z"/><path class="cls-10" d="M115.76 82.38c-4.77-.03-9.54.03-14.31.16-1.29.04-2.59.08-3.88.13-.3.01-.55.24-.55.55 0 .29.25.56.55.55 4.74-.19 9.49-.29 14.24-.3h3.96c.71 0 .71-1.1 0-1.1z"/><path class="cls-13" d="M127.56 82.7c-3.06-.12-6.12-.22-9.18-.28-.87-.02-1.74-.03-2.62-.04-.71 0-.71 1.09 0 1.1 3.08.03 6.15.12 9.23.23.86.03 1.71.06 2.57.1.3.01.55-.26.55-.55 0-.31-.25-.54-.55-.55z"/><path class="cls-10" d="M134.35 83.04c-2.05-.12-4.11-.22-6.16-.31-.3-.01-.55.26-.55.55 0 .31.25.54.55.55 2.06.09 4.11.19 6.16.31.3.02.55-.27.55-.55 0-.31-.25-.53-.55-.55z"/><path class="cls-13" d="M126.88 77.23c.09 5.64.04 11.29-.14 16.93-.05 1.59-.11 3.17-.18 4.76-.01.3.26.55.55.55.31 0 .54-.25.55-.55.25-5.64.37-11.28.36-16.93 0-1.59-.02-3.17-.04-4.76-.01-.71-1.11-.71-1.1 0z"/><path class="cls-13" d="M127.23 76.43c-3.81-.42-7.65-.45-11.46-.08-.3.03-.55.23-.55.55 0 .28.25.58.55.55 3.81-.37 7.66-.34 11.46.08.3.03.55-.28.55-.55 0-.32-.25-.52-.55-.55z"/><path class="cls-13" d="M115.15 77.23c.06 5.55.13 11.11.19 16.66.02 1.56.04 3.11.05 4.67 0 .71 1.11.71 1.1 0-.06-5.55-.13-11.11-.19-16.66-.02-1.56-.04-3.11-.05-4.67 0-.71-1.11-.71-1.1 0z"/><path class="cls-13" d="M127.04 98.37c-2.9.03-5.81.12-8.71.07-.8-.01-1.6-.04-2.39-.08-.3-.01-.55.26-.55.55 0 .31.25.54.55.55 2.8.13 5.6.09 8.39.04.9-.01 1.81-.03 2.71-.04.71 0 .71-1.11 0-1.1zM127.04 92.36c-3.64.11-7.29.08-10.93-.1-.3-.02-.55.26-.55.55 0 .31.25.54.55.55 3.64.18 7.29.22 10.93.1.71-.02.71-1.12 0-1.1z"/><path class="cls-8" d="M126.54 56.02c1.54-4.98 3.13-9.94 4.66-14.92.37-1.22.72-2.47.81-3.75a7.93 7.93 0 0 0-.47-3.31c-.77-2.06-2.27-3.77-4.14-4.91-1.98-1.21-4.3-1.79-6.61-1.94-2-.13-4.07.13-5.92.92s-3.46 2.23-4.26 4.16c-.86 2.06-.83 4.4-.37 6.55.52 2.46 1.59 4.75 2.38 7.13s1.36 4.87 1.62 7.37c.07.62.12 1.24.15 1.87.02.3.24.55.55.55.29 0 .57-.25.55-.55a36.64 36.64 0 0 0-1.16-7.36c-.63-2.38-1.61-4.62-2.38-6.95-.68-2.06-1.18-4.26-.82-6.43.17-1.01.5-1.99 1.07-2.85.48-.73 1.16-1.36 1.89-1.84 1.55-.99 3.41-1.41 5.22-1.48 2.07-.07 4.23.26 6.14 1.09 1.88.82 3.53 2.15 4.54 3.95.45.81.78 1.74.89 2.65.14 1.21-.07 2.41-.38 3.57s-.71 2.39-1.08 3.58-.75 2.41-1.13 3.61c-.76 2.41-1.52 4.82-2.27 7.24-.18.59-.36 1.18-.55 1.76-.21.68.85.97 1.06.29z"/><path class="cls-13" d="M138.91 152.38c-2.06 2.39-4.12 4.78-6.17 7.17l-1.76 2.04c-.19.23-.22.56 0 .78.2.2.58.23.78 0 2.06-2.39 4.12-4.78 6.17-7.17.59-.68 1.17-1.36 1.76-2.04.19-.23.22-.56 0-.78-.2-.2-.58-.23-.78 0zM100.62 161.35c-.27 0-.55 0-.82-.04l.15.02a5.44 5.44 0 0 1-.98-.26c-.27-.09-.61.11-.68.38-.07.3.09.58.38.68s.59.2.89.24c.35.06.7.07 1.05.07.29 0 .56-.25.55-.55s-.24-.55-.55-.55z"/><path class="cls-6" d="M90 146.71c.63 1.81.82 3.79.7 5.7-.02.3.27.55.55.55.31 0 .53-.25.55-.55.13-1.99-.08-4.1-.74-5.99-.1-.28-.38-.47-.68-.38-.27.08-.48.39-.38.68zM76.53 149.86c.61-2.16 1.73-4.2 3.47-5.64.23-.19.2-.58 0-.78-.23-.23-.55-.19-.78 0-1.88 1.56-3.1 3.8-3.76 6.13-.19.68.87.98 1.06.29z"/><path class="cls-6" d="M99.59 154.2c-4.33-.9-8.67-1.81-13-2.71l-13.5-2.82c-2.37-.5-4.75-.99-7.12-1.49-.17-.03-.33 0-.47.1-.21.03-.38.19-.45.4A590.4 590.4 0 0 0 61.02 160c-1.37 4.33-2.71 8.68-4 13.04-.67 2.27-1.33 4.54-1.97 6.81-.03.1-.02.19 0 .27-.02.25.13.52.39.58 2.29.48 4.58.97 6.87 1.48 2.7.59 5.39 1.19 8.08 1.79l8.48 1.89c2.71.61 5.43 1.21 8.15 1.81 2.36.52 4.72 1.03 7.08 1.53.25.05.5.1.75.16.29.06.59-.09.68-.38.08-.27-.09-.62-.38-.68h-.04c.42-2.64 2.28-14.26 2.67-17.21.39-2.93 1.4-13.34 1.64-15.82.26.01.51-.12.58-.39.07-.27-.09-.62-.38-.68z"/><path class="cls-5" d="M116.94 67.56c-.95.37-1.67 1.1-2.35 1.84-.34.37-.68.74-1.05 1.08-.41.37-.88.68-1.37.94-1.14.6-2.41.98-3.68 1.15-.15-.04-.3 0-.43.08-.22.07-.4.25-.4.51s.25.58.55.55c.07 0 .13-.02.2-.03 3.25 1.01 6.86.68 9.91-.81.89-.43 1.71-.97 2.48-1.59.11-.09.15-.22.15-.35v-.02c.18-1.06-.24-2.14-1.07-2.83-.83-.69-1.92-.91-2.94-.52zm1.82 2.3h-.01v-.04h.01M135.35 72.59a.493.493 0 0 0-.44-.08 11.13 11.13 0 0 1-3.25-.94c-.53-.25-1.06-.54-1.52-.91-.39-.31-.73-.67-1.06-1.03-.66-.71-1.33-1.49-2.21-1.95-.95-.49-2.06-.52-2.98.06-1.04.67-1.64 1.87-1.44 3.1 0 0 0 .01.01.02 0 .13.05.26.15.35 2.7 2.18 6.23 3.25 9.69 2.94.92-.08 1.82-.26 2.7-.54.07 0 .13.02.2.03.3.03.55-.28.55-.55s-.17-.44-.4-.51zm-10.71-2.81v.03"/><path id="House" class="cls-5" d="M88.74 169.51c-.4-1.23-.88-2.43-1.43-3.6v-.03h-.02c-.03-.06-.1-.21-.13-.26-.24-.57-.11-.91-.11-.91.34-2.47.34-3.64.36-3.94.02-.35 0-.72-.48-.89-.39-.13-.96-.33-1.6-.51-.54-.15-.73.39-.73.39-.14.56-.19.84-.21.9s-.05.14-.15.14c-.04 0-.08-.03-.11-.06-.72-.94-1.51-1.84-2.35-2.67a1.42 1.42 0 0 0-.6-.33c-.2-.04-.41-.02-.6.06-.33.12-5.99 1.82-11.23 7.28 0 0-.31.28-.2.63.06.21.23.37.44.42 0 0 1.28.45 1.54.54.29.1.23.34.23.34a62.57 62.57 0 0 0-1.38 8.38s-.04.48.41.6c.18.05.87.17 2.7.54.07.02.14-.01.16-.08v-.03c.24-1.84.54-3.41.55-3.5a.18.18 0 0 0-.07-.17 2.24 2.24 0 0 1-.67-2.12c.76-3.57 1.6-6.25 1.6-6.25s.11-.37.43-.27.22.47.22.47c-.47 1.51-1.14 4.26-1.14 4.26s-.12.53.38.64c.5.11.62-.41.62-.41.48-2.17 1.15-4.3 1.15-4.3s.08-.37.44-.29c.32.07.22.48.22.48-.58 1.84-1.14 4.25-1.14 4.25s-.12.53.38.64.63-.45.63-.45c.4-1.79 1.15-4.27 1.15-4.27a.33.33 0 0 1 .4-.27h.03c.3.07.24.42.24.42-.61 1.91-1.29 4.9-1.58 6.19-.15.77-.71 1.41-1.45 1.66a.21.21 0 0 0-.13.16c-.23 1.19-.43 2.53-.56 3.49-.01.06.03.13.09.15.5.11 1.05.23 1.66.37.97.22 1.77.41 2.49.58.08.02.13-.03.16-.11.57-1.66.92-2.88.95-2.99.04-.12-.11-.18-.11-.18-.26-.07-.72-.26-1.15-.44s-.33-.68-.33-.68c.84-5.4 4.39-8.07 4.39-8.07s.36-.3.72-.07.26.64.26.64c-.62 4.51-2.3 10.13-3.03 12.18-.03.07 0 .16.07.2h.02c1.19.31 1.74.47 1.9.49.28.03.55-.12.65-.39 1.53-3.98 2.38-8.13 2.38-8.13.05-.14.19-.23.34-.21l1.65.19c.2.05.42-.03.55-.19.14-.18.18-.41.11-.63"/><path class="cls-4" d="M86.31 134.54c1.22 0 2.4.28 3.44.93.95.6 1.71 1.52 2.12 2.6.49 1.29.53 2.71.21 4.05-.33 1.36-1.02 2.71-2.05 3.68-1.02.96-2.46 1.33-3.8 1.31s-2.56-.42-3.64-1.14c-2.17-1.44-3.19-4.23-2.6-6.73s2.84-4.42 5.35-4.67c.33-.03.65-.04.98-.02.3.02.55-.26.55-.55 0-.31-.25-.53-.55-.55-3.01-.16-5.93 1.74-7.07 4.51-1.14 2.79-.36 6.26 1.89 8.27 2.29 2.04 5.89 2.66 8.61 1.13 1.46-.82 2.45-2.33 3.05-3.86s.75-3.12.44-4.67c-.28-1.39-1-2.71-2.07-3.65s-2.4-1.49-3.81-1.67c-.35-.04-.7-.07-1.05-.07-.71 0-.71 1.1 0 1.1z"/><path class="cls-11" d="M159.02 85.94H134.03c-.71 0-.71 1.1 0 1.1H159.02c.71 0 .71-1.1 0-1.1z"/><path class="cls-11" d="M159.71 86.26c-.35-2.65-1.21-5.24-2.68-7.48s-3.5-4.02-5.98-5.06-5.17-1.25-7.66-.48c-2.67.83-4.91 2.8-6.59 4.98-1.62 2.1-2.77 4.6-3.18 7.22-.05.35-.1.7-.13 1.05-.03.3.27.55.55.55.32 0 .52-.25.55-.55.23-2.45 1.16-4.82 2.54-6.86.7-1.03 1.52-1.97 2.44-2.81.98-.9 2.09-1.71 3.33-2.23 2.21-.94 4.71-.88 6.97-.14s4.28 2.25 5.72 4.18 2.43 4.34 2.89 6.77c.05.28.1.58.14.86.04.29.23.55.55.55.27 0 .59-.25.55-.55zM134.51 93.21H159.5c.71 0 .71-1.1 0-1.1H134.51c-.71 0-.71 1.1 0 1.1z"/><path class="cls-11" d="M133.84 92.97c.39 2.11 1.45 4.06 2.94 5.6 1.63 1.69 3.75 2.84 6 3.47 2.31.64 4.8.78 7.16.3 2.42-.49 4.68-1.76 6.52-3.39 1.85-1.64 3.27-3.81 3.59-6.3.04-.3-.28-.55-.55-.55-.33 0-.51.25-.55.55-.05.36-.18.91-.32 1.32-.15.46-.33.85-.58 1.29-.49.89-1.12 1.69-1.84 2.4-1.61 1.59-3.66 2.85-5.85 3.44-2.13.57-4.42.53-6.57.05s-4.07-1.38-5.67-2.83c-1.67-1.51-2.81-3.46-3.22-5.66-.05-.29-.41-.46-.68-.38-.31.08-.44.38-.38.68z"/><path class="cls-13" d="M131.57 61.37h-.16c-.08 0-.15.01-.21.05-.07.02-.13.06-.18.11-.05.05-.09.11-.11.18-.03.07-.05.14-.05.21l.02.15c.03.09.07.17.14.24l.11.09c.09.05.18.07.28.08h.16c.08 0 .15-.01.21-.05.07-.02.13-.06.18-.11.05-.05.09-.11.11-.18.03-.07.05-.14.05-.21l-.02-.15a.585.585 0 0 0-.14-.24l-.11-.09a.694.694 0 0 0-.28-.08zM110.64 62.48h.16c.08 0 .15-.01.21-.05.07-.02.13-.06.18-.11.05-.05.09-.11.11-.18.03-.07.05-.14.05-.21l-.02-.15a.585.585 0 0 0-.14-.24l-.11-.09a.694.694 0 0 0-.28-.08h-.16c-.08 0-.15.01-.21.05-.07.02-.13.06-.18.11-.05.05-.09.11-.11.18-.03.07-.05.14-.05.21l.02.15c.03.09.07.17.14.24l.11.09c.09.05.18.07.28.08zM139.3 106.47c-.07 0-.14.02-.21.05a.556.556 0 0 0-.23-.05H97.75s-.06-.02-.09-.02c-.08 0-.15.02-.22.05-.28.09-.39.38-.34.65-.02.38-.04.76-.05 1.15-.02.41-.08.88.09 1.27-.03.29.14.59.52.59h41.5c.09 0 .17-.02.24-.05.25-.05.46-.25.46-.53 0-.85.01-1.7 0-2.55 0-.29-.25-.56-.55-.55z"/><path d="M155.64 92.25c.02-.29-.15-.6-.52-.6h-14.93c-.08 0-.14.02-.2.04-.44.08-.71.73-.21 1 2.67 1.44 5.35 2.84 8.09 4.14.12.05.23.06.33.04.14.06.3.07.47-.04 2.22-1.38 4.39-2.84 6.73-4 .26-.13.31-.37.25-.59zm-12.1.5h.08v.05c-.03-.02-.06-.03-.09-.05zm2.2 0h.04v.03c-.02 0-.03-.02-.05-.03zm1.73 0h.06s.02.04.03.05a.405.405 0 0 0-.09-.05zm.53 2.92c.09.04.18.08.26.11m4.78-2.93a.233.233 0 0 0-.2-.1h.39c-.06.03-.12.07-.18.1z" style="fill:#f7f5cb"/><path class="cls-12" d="M133.75 87.04h25.92c.71 0 .71-1.1 0-1.1h-25.92c-.71 0-.71 1.1 0 1.1z"/><path class="cls-12" d="M160.23 86.72c.67-.74 1.33-1.82 1-2.86-.27-.82-1.08-1.32-1.89-1.46-2.43-.44-4.2 1.72-5.46 3.46-.42.57.54 1.13.95.56.81-1.12 1.7-2.35 3.07-2.8.61-.2 1.37-.26 1.91.15.8.6.15 1.63-.36 2.19-.47.53.3 1.31.78.78z"/><path class="cls-12" d="m159.13 85.12-.13.07.75.75c.29-.62.97-1.9.1-2.36-.92-.49-1.99 1.12-2.5 1.64s.28 1.28.78.78c.52-.52 2.18-2.56.64-2.91-.57-.13-1.11.35-1.52.67-.61.47-1.16.99-1.67 1.56l.86.67.07-.13c.32-.63-.63-1.19-.95-.56l-.07.13c-.27.53.43 1.16.86.67.33-.37.67-.72 1.04-1.05.28-.25.88-.89 1.3-.87l-.39-.16s-.87 1.11-.96 1.2l.78.78c.16-.16 1.21-1.43 1.37-1.39l-.33-.25c.09.15-.3.91-.36 1.03-.23.48.24 1.04.75.75l.13-.07c.62-.34.06-1.3-.56-.95z"/><path class="cls-12" d="M156.76 86.36c.28-.11.53-.16.82-.16s.55-.25.55-.55-.25-.55-.55-.55c-.38 0-.76.06-1.12.2-.28.11-.47.37-.38.68.07.26.4.49.68.38zM151.63 85.83c-.88-.18-1.34-.91-1.97-1.48s-1.34-.9-2.19-.84c-1.02.08-1.82.65-2.63 1.21-.82.57-1.74.85-2.69 1.14-.67.21-.39 1.27.29 1.06.74-.23 1.5-.45 2.2-.79.94-.46 1.68-1.37 2.76-1.5 1.64-.2 2.37 1.94 3.93 2.26.69.14.99-.92.29-1.06z"/><path class="cls-12" d="m158.81 86.21.1-.1c.02-.02.04-.03.05-.05.07-.07-.07.04-.01 0 .04-.03.08-.05.12-.08.04-.02.19-.09.05-.03.14-.06.25-.12.33-.25.07-.12.1-.29.06-.42-.08-.26-.39-.5-.68-.38-.3.13-.57.29-.8.53-.19.21-.23.57 0 .78.21.19.57.23.78 0zM150.03 85.27c-.96-.27-1.75-.88-2.78-.79-.74.07-1.77.34-2.19 1.01-.27.42.17.93.62.81.51-.13 1.03-.28 1.57-.23.42.04.76.23 1.18.19.21-.02.35-.13.44-.27.28.13.57.26.87.34.68.19.98-.87.29-1.06z"/><path class="cls-8" d="M127.13 107.76c-.37-.85-1.25-1.47-2.11-1.75-.87-.29-1.77-.38-2.68-.38-.89 0-1.79.08-2.65.32-.76.22-1.57.57-2.1 1.17-.57.65-.72 1.54-.26 2.3.46.78 1.31 1.15 2.15 1.34 1.71.39 3.56.58 5.28.12.69-.19 1.47-.48 1.98-1 .52-.53.68-1.44.39-2.12z"/><path class="cls-5" d="M136.94 48.41c-2.17-.06-5.2-.52-8.15-1.98s-5.16-3.58-6.52-5.28c-.53-.66-.96-1.24-1.29-1.71.54.04 1.21-.05 1.91-.44.48-.28.98-.69 1.32-1.31.35-.61.5-1.37.42-2.13-.07-.76-.38-1.53-.9-2.19a3.868 3.868 0 0 0-2.21-1.36c-1.77-.36-3.5.39-4.42 1.64-.92 1.23-1 2.81-.39 3.85.62 1.04 1.6 1.35 2.21 1.35.63-.01.91-.26.87-.35-.03-.11-.34-.08-.79-.23-.43-.14-1.06-.54-1.34-1.25-.28-.68-.14-1.73.53-2.52.63-.78 1.87-1.26 3.01-1.02 1.13.22 1.9 1.25 2.06 2.26.18 1.02-.28 1.89-.94 2.37-.64.5-1.34.63-1.82.65-.23-.31-.38-.48-.47-.45-.05.02-.05.18 0 .44h-.07c.01-.13 0-.22-.02-.23-.22-.1-.92 1.39-2.57 3.35-1.63 1.95-4.37 4.33-8.01 5.61-3.65 1.28-7.27 1.14-9.76.63-2.52-.49-3.99-1.21-4.1-1-.09.14 1.24 1.23 3.85 2.03 2.57.81 6.52 1.15 10.52-.25 3.99-1.41 6.86-4.15 8.36-6.39 1.01-1.5 1.51-2.72 1.68-3.41.08.05.17.1.28.15.21.61.59 1.49 1.24 2.52 1.21 1.96 3.49 4.41 6.72 6 3.23 1.6 6.55 1.92 8.85 1.7 2.32-.21 3.64-.82 3.59-1-.05-.23-1.43 0-3.62-.06zM109.81 118.52c0-.28-2.97-.5-6.63-.5s-6.63.23-6.63.5 2.97.5 6.63.5 6.63-.23 6.63-.5zM140.31 118.54c0-.28-3.14-.45-7.01-.38s-7 .34-6.99.62 3.14.45 7.01.38c3.87-.07 7-.34 6.99-.62zM111.46 118.2c-.02.12.73.42 2.02.44 1.28.02 3.11-.35 4.78-1.46 1.67-1.11 2.71-2.67 3.18-3.85.49-1.2.49-2.01.37-2.03-.15-.04-.4.69-1 1.72-.6 1.02-1.62 2.34-3.1 3.34-1.49.99-3.1 1.43-4.27 1.59-1.18.17-1.95.12-1.97.27z"/><path class="cls-5" d="M131.4 118.26c-.04-.15-.75-.05-1.85-.14-1.1-.08-2.61-.43-3.99-1.34-1.38-.91-2.28-2.17-2.79-3.15-.51-.98-.7-1.68-.85-1.65-.12.01-.19.77.2 1.93.38 1.14 1.3 2.66 2.89 3.71 1.58 1.05 3.34 1.31 4.54 1.21 1.21-.09 1.89-.45 1.85-.57zM173.25 92.4c-.04-.26-2.11-.05-4.18 1.35-2.08 1.38-3.06 3.22-2.84 3.35.24.17 1.49-1.26 3.4-2.52 1.89-1.28 3.69-1.9 3.62-2.18z"/><path class="cls-5" d="M169.83 85.1c-.12-.02-.36.45-.42 1.29-.07.83.08 2.02.63 3.19s1.37 2.04 2.06 2.51c.69.48 1.2.6 1.26.49.15-.25-1.47-1.35-2.42-3.43-1-2.06-.82-4.01-1.11-4.05z"/><path class="cls-8" d="M126.01 55.21c-2.88-.1-5.76-.18-8.63-.22l-2.42-.03c-.71 0-.71 1.09 0 1.1 2.89.03 5.78.09 8.67.18.79.02 1.59.05 2.38.08.71.03.71-1.08 0-1.1z"/><path class="cls-4" d="m97.62 55.62 41 .68"/><path class="cls-4" transform="rotate(-89.05 118.112 55.962)" d="M117.62 35.46h1v41.01h-1z"/><path class="cls-5" d="M85.79 127.22c-.28-.06-.83 1.58-2 3.3-1.15 1.73-2.46 2.85-2.3 3.09.13.23 1.85-.62 3.13-2.54 1.29-1.91 1.43-3.82 1.17-3.86z"/><path class="cls-13" d="M103.1 175.4c-.28-5.59-.02-10.67.36-14.31.15-1.43.31-2.63.46-3.57l-1.75 2.03c-.59.68-1.17 1.36-1.76 2.04-.05.06-.09.13-.12.2h-.07c.06.79.11 1.71.16 2.79.15 3.32.25 7.92.17 13-.08 5.08-.31 9.67-.56 12.99-.15 1.93-.3 3.42-.42 4.33h4.87c-.06-.89-.09-2.74-.25-5.29-.2-3.63-.79-8.63-1.09-14.22z"/><path class="cls-13" d="M107.48 174.15c-.19-5.78-.49-11.01-.72-14.79-.13-2.12-.23-3.77-.27-4.83-.69.8-1.38 1.61-2.07 2.41-.06 1.01-.16 2.44-.26 4.21-.2 3.63-.34 8.66-.07 14.2.3 5.54.78 10.58.8 14.25.04 2.57-.09 4.42-.22 5.32h3.18c-.09-.61-.11-2.76-.12-5.96-.02-3.79-.07-9.03-.26-14.81z"/><path class="cls-13" d="M111.46 185.86c-.63-.44-1.28-.85-1.94-1.23v-32.31c0-.71-1.1-.71-1.1 0s-.04.04-.06.06c-.52.6-1.04 1.21-1.56 1.81.18 1.02.42 2.78.68 5.11.41 3.78.82 9.02 1.02 14.82.19 5.8.13 11.05-.04 14.85-.14 3.2-.32 5.34-.46 5.94h3.45c-.14-.93-.23-2.62-.23-4.57 0-1.88.1-3.53.24-4.48zM118.98 193.98a.64.64 0 0 0-.06-.16c-.94-1.49-2-2.9-3.18-4.19.01.48.02.98.02 1.5 0 1.48-.07 2.82-.16 3.79h2.99c.54 0 .67-.63.39-.94zM99.29 190.55c.07-3.32.16-7.91.27-12.97.05-5.07.09-9.65.12-12.97 0-1.06.02-1.98.04-2.76l-.88.06-1.03 10.01v12.58c-.3-.04-.63.13-.64.52-.05 3.12.13 6.23.08 9.35 0 .2.09.34.22.43.09.07.19.12.33.12h1.45c-.02-.92 0-2.42.05-4.37zM114.83 188.71c-.87-.86-1.78-1.68-2.78-2.42.1.98.17 2.42.16 4.05 0 1.95-.11 3.64-.26 4.57h2.94c-.09-.97-.14-2.31-.13-3.79 0-.87.03-1.69.07-2.41z"/><path class="cls-2" d="M100.55 177.59c.07-5.08-.02-9.68-.17-13-.05-1.07-.1-2-.16-2.78l-.51.03c-.02.78-.03 1.7-.04 2.76-.03 3.32-.07 7.91-.12 12.97-.1 5.06-.2 9.65-.27 12.97-.04 1.95-.06 3.45-.05 4.37h.33c.13-.91.28-2.4.42-4.33.25-3.32.48-7.91.56-12.99zM104.9 189.6c-.02-3.67-.5-8.71-.8-14.25-.27-5.54-.14-10.57.07-14.2.1-1.76.2-3.19.26-4.21-.17.19-.33.39-.5.58-.15.94-.31 2.14-.46 3.57-.39 3.64-.64 8.72-.36 14.31.3 5.59.9 10.59 1.09 14.22.16 2.55.2 4.4.25 5.29h.24c.12-.89.25-2.75.22-5.32zM108.48 174.12c-.19-5.8-.6-11.04-1.02-14.82-.25-2.33-.5-4.09-.68-5.11l-.29.34c.04 1.06.14 2.71.27 4.83.23 3.78.53 9.01.72 14.79.19 5.78.24 11.01.26 14.81.02 3.2.03 5.35.12 5.96h.13c.13-.6.32-2.75.46-5.94.16-3.8.23-9.05.04-14.85zM115.75 189.62c-.29-.32-.61-.61-.92-.91a48.722 48.722 0 0 0 .06 6.2h.71c.09-.97.16-2.31.16-3.79 0-.53 0-1.02-.02-1.5zM112.05 186.29c-.08-.06-.15-.13-.23-.18-.12-.09-.24-.16-.36-.25-.14.95-.24 2.6-.24 4.48 0 1.95.09 3.64.23 4.57h.51c.15-.93.25-2.62.26-4.57 0-1.63-.06-3.07-.16-4.05z"/><path class="cls-13" d="M127.84 162.38c0 3.84-.01 7.67-.02 11.51 0 1.61 2.5 1.61 2.5 0 0-3.84.01-7.67.02-11.51 0-.8-1.21-1.4-1.83-1.4s-.66.59-.67 1.4z"/><path class="cls-13" d="M127.84 172.1c0 3.38.02 6.76.02 10.14v2.97c0 .71 1.1.71 1.1 0 0-3.49-.01-6.98-.02-10.47v-2.64c0-.71-1.1-.71-1.1 0zM133.79 175.67c-.28-5.59-.02-10.67.36-14.31.15-1.43.31-2.63.46-3.57l-1.75 2.03c-.59.68-1.17 1.36-1.76 2.04-.05.06-.09.13-.12.2h-.07c.06.79.11 1.71.16 2.79.15 3.32.25 7.92.17 13-.08 5.08-.31 9.67-.56 12.99-.15 1.93-.3 3.42-.42 4.33h4.87c-.06-.89-.09-2.74-.25-5.29-.2-3.63-.79-8.63-1.09-14.22z"/><path class="cls-13" d="M138.18 174.42c-.19-5.78-.49-11.01-.72-14.79-.13-2.12-.23-3.77-.27-4.83-.69.8-1.38 1.61-2.07 2.41-.06 1.01-.16 2.44-.26 4.21-.2 3.63-.34 8.66-.07 14.2.3 5.54.78 10.58.8 14.25.04 2.57-.09 4.42-.22 5.32h3.18c-.09-.61-.11-2.76-.12-5.96-.02-3.79-.07-9.03-.26-14.81z"/><path class="cls-13" d="M142.15 186.13c-.63-.44-1.28-.85-1.94-1.23v-32.31c0-.71-1.1-.71-1.1 0s-.04.04-.06.06c-.52.6-1.04 1.21-1.56 1.81.18 1.02.42 2.78.68 5.11.41 3.78.82 9.02 1.02 14.82.19 5.8.13 11.05-.04 14.85-.14 3.2-.32 5.34-.46 5.94h3.45c-.14-.93-.23-2.62-.23-4.57 0-1.88.1-3.53.24-4.48zM149.68 194.25a.64.64 0 0 0-.06-.16c-.94-1.49-2-2.9-3.18-4.19.01.48.02.98.02 1.5 0 1.48-.07 2.82-.16 3.79h2.99c.54 0 .67-.63.39-.94zM129.98 190.82c.07-3.32.16-7.91.27-12.97.05-5.07.09-9.65.12-12.97 0-1.06.02-1.98.04-2.76l-.88.06-1.03 10.01v12.58c-.3-.04-.63.13-.64.52-.05 3.12.13 6.23.08 9.35 0 .2.09.34.22.43.09.07.19.12.33.12h1.45c-.02-.92 0-2.42.05-4.37zM145.52 188.98c-.87-.86-1.78-1.68-2.78-2.42.1.98.17 2.42.16 4.05 0 1.95-.11 3.64-.26 4.57h2.94c-.09-.97-.14-2.31-.13-3.79 0-.87.03-1.69.07-2.41z"/><path class="cls-2" d="M131.25 177.87c.07-5.08-.02-9.68-.17-13-.05-1.07-.1-2-.16-2.78l-.51.03c-.02.78-.03 1.7-.04 2.76-.03 3.32-.07 7.91-.12 12.97-.1 5.06-.2 9.65-.27 12.97-.04 1.95-.06 3.45-.05 4.37h.33c.13-.91.28-2.4.42-4.33.25-3.32.48-7.91.56-12.99zM135.59 189.87c-.02-3.67-.5-8.71-.8-14.25-.27-5.54-.14-10.57.07-14.2.1-1.76.2-3.19.26-4.21-.17.19-.33.39-.5.58-.15.94-.31 2.14-.46 3.57-.39 3.64-.64 8.72-.36 14.31.3 5.59.9 10.59 1.09 14.22.16 2.55.2 4.4.25 5.29h.24c.12-.89.25-2.75.22-5.32zM139.18 174.39c-.19-5.8-.6-11.04-1.02-14.82-.25-2.33-.5-4.09-.68-5.11l-.29.34c.04 1.06.14 2.71.27 4.83.23 3.78.53 9.01.72 14.79.19 5.78.24 11.01.26 14.81.02 3.2.03 5.35.12 5.96h.13c.13-.6.32-2.75.46-5.94.16-3.8.23-9.05.04-14.85zM146.44 189.9c-.29-.32-.61-.61-.92-.91a48.722 48.722 0 0 0 .06 6.2h.71c.09-.97.16-2.31.16-3.79 0-.53 0-1.02-.02-1.5zM142.75 186.57c-.08-.06-.15-.13-.23-.18-.12-.09-.24-.16-.36-.25-.14.95-.24 2.6-.24 4.48 0 1.95.09 3.64.23 4.57h.51c.15-.93.25-2.62.26-4.57 0-1.63-.06-3.07-.16-4.05z"/><path class="cls-5" d="M91.67 133.53c.11-.27-1.71-1.13-3.31-2.91-1.63-1.75-2.31-3.64-2.59-3.56-.12.03-.12.57.15 1.38.26.81.82 1.88 1.71 2.85.89.97 1.9 1.62 2.68 1.96.78.34 1.32.39 1.36.27zM109.1 161.49c-.28-.12-1.52 2.95-4.41 5.66-2.85 2.76-5.98 3.85-5.87 4.13.04.12.88 0 2.14-.5 1.26-.51 2.91-1.47 4.42-2.91 1.51-1.44 2.55-3.05 3.11-4.28.57-1.23.72-2.07.6-2.11z"/><path class="cls-6" d="M98.87 155c-.35 4.42-.79 8.84-1.31 13.24s-1.13 8.73-1.83 13.08c-.39 2.46-.81 4.91-1.26 7.36-.05.29.08.59.38.68.27.07.62-.09.68-.38.8-4.38 1.51-8.77 2.14-13.18s1.17-8.87 1.62-13.31c.25-2.49.48-4.99.68-7.48.02-.3-.27-.55-.55-.55-.32 0-.53.25-.55.55z"/><path class="cls-5" d="M139.05 160.2c-.28-.13-1.68 2.92-4.6 5.69-2.88 2.82-5.98 4.1-5.86 4.38.04.12.89-.05 2.14-.62 1.25-.56 2.89-1.58 4.41-3.05 1.52-1.47 2.6-3.07 3.21-4.3.62-1.23.81-2.07.7-2.11zM131.08 121.96c-.28 0-.4 8.54-.28 19.08.12 10.53.44 19.07.72 19.07.28 0 .4-8.54.28-19.08-.12-10.53-.44-19.07-.72-19.07z"/></g></svg>