<svg xmlns="http://www.w3.org/2000/svg" viewBox="0 0 200 200"><defs><style>.cls-1{fill:none}.cls-2{fill:#f2a6b0}.cls-4{fill:#e87003}.cls-5{fill:#fff}.cls-11{fill:#ff8000}.cls-12{fill:#a0b4b5}.cls-14{fill:#c1dade}.cls-15{fill:#b7957e}.cls-16{fill:#ceaeae}.cls-17{fill:#ce9352}.cls-18{fill:#afcbcd}.cls-19{fill:#d6e8ea}.cls-20{fill:#dd542a}.cls-21{fill:#e2ded9}.cls-22{fill:#5b3d5b}.cls-23{fill:#78577a}</style></defs><path d="M62.76 161.21c25.49 60.33 133.2 29.3 119.11-35.18-5.74-31.13-39.23-39.72-52.17-65.19-7.73-27.05-28.91-53.81-59.33-53.88C21.88-.71 12.24 68.09 30.53 100.8c17.68 22.26 32.46 29.18 32.23 60.42Z" style="fill:#efedea" id="BG_Strong"/><g id="Illustrations"><path class="cls-2" d="M77.5 132.32s-4.52 3.47-6.64 4.57c-2.13 1.1-5.27 2.8-6.5 2.86-1.23.06-4.81.82-4.81.82l-1.52-.56s-3.82-3.38-4.76-5.38-1.73-4-1.7-5.64.07-3.19.69-4.48c.62-1.29 1.72-3.2 1.72-3.2l.77-.99h16.5l6.26.08s.98-.05 1.45-.82c.47-.78.65-3.67.52-5.49-.13-1.82.14-7.12.14-7.12s3.54-2.38 5.54-3.34c2.01-.96 8.75-4.07 8.75-4.07l.87-3.19s1.9-.29 2.31-.33 2.36-1.05 2.36-1.05l1.83 5.79 1.44 3.32 2.43-6.07.86-2.46 5.11-1.3h1.04l3.23 4.91s5.67 2.2 7.06 2.8c1.38.6 7.58 3.58 7.58 3.58s2.96 1.6 3.42 1.87 2.75 2.14 3.22 2.88 2.97 6.9 3.57 8.69 3.24 10.34 3.24 10.34l.75 2.72-2.87 30.17s-.68.1-1.02-.09-.94-.72-.94-.72l-3.3 1.86.21 3.39-23.98.21-3.09-.15v-3.19l-5.71-1.79s-3.09 1.36-3.85 1.18-1.59-.21-2.32-1.51.32-3.13-.56-2.79-2.12 1.22-2.12 1.22l-.38-.88-7-1.11-8 .05s-.14-6.9-.06-7.58-.14-3.85-.66-4.2-.65-.64-.65-.64l-.43-13.19Z"/><path class="cls-16" d="M91.53 87.56s-.58-1.87-1.05-2.96-.85-3.03-.85-3.03-.29-4.19-.33-4.9-.18-6.56-.19-6.73.72-2.74.84-3.38 2.57-3.92 2.57-3.92l1.47-2.73s1.96.51 2.49 1.32 1.38 1.56 2.12 1.26 3.76-1.11 4.47-1.4 2.64-.49 2.95-.61.05.18.09.94 1.07 1.13 1.88 1.83c.81.7 1.91 2.15 2.53 3.06s.6 6.33.6 6.33 1-2.09 1.64-2.38c.64-.29 1.67-.36 1.97.23s.05 2.65 0 3.22-.53 2.31-.89 2.75c-.36.44-.61.95-.89.89s-1.67-.68-1.67-.68-.32 7.68-.35 8.34-.15 4.09-.15 4.09l.34 5.16-5.11 1.3-2.21 6.42-.88 2.65-2.84-7.34-.64-2.31 1.04-1.33s-1.68-3.83-1.93-4.22-2-1.87-2-1.87l-3.09-.84-1.95.84ZM79.39 81.05c-.09-.2 2.37-8.36 2.55-8.51s3.32-2.55 3.46-2.59 3.2-.6 3.2-.6l-.15 1.85.45 2.41.28 4.7.41 2.72s-2.64 2.87-2.69 3.21-.03 2.69-.16 3.23-.52 1.62-.52 1.62.06 4.73-.38 5.71-.64 1.62-.99 2.11-1.26 1.41-1.68 1.53-1.06.18-1.06.18l-2.65 8.79s-.24-11.08-.23-13.16.15-13.22.15-13.22ZM124.31 149.11s3.56 3.5 5.07 6.22c1.5 2.73 3.35 7.34 3.35 7.34s-2.51.98-5.42 1.42c-2.91.43-8.47.85-9.29.6-.82-.25-7.16-1.81-7.16-1.81s-3.32 1.02-4.41.34c-1.09-.68-3.42-1.31-3.42-1.31s-1.11.97-2.08.99c-.97.02-1.77.22-2.55-.49-.77-.71-1.29-1.3-1.48-1.79s-.13-1.98-.13-1.98-.66.1-.89.34-1.02 1.11-1.24.88-.2-1.79-.24-1.52-1.52.24-1.52.24-1.07-.52-.8-1.23 1.44-2.73 1.34-2.96.84-1.56.84-1.56-2.56 1.38-2.97 1.69-1.09-.06-.94-.57.59-2.06 1.49-2.94 4.2-3.15 5.05-3.54c.85-.39 4.38-1.62 5.06-1.75s1.16.01 1.55.16 5.07 3.36 5.66 3.89 5.05 4.47 5.05 4.47 2.86-1.19 4.38-1.88c1.53-.69 5.69-3.26 5.69-3.26Z"/><path class="cls-20" d="M89.9 157.73c.15-.09 2.65-3.17 2.65-3.17l.47.65-.9 2.15-.32.85-1.11.14-.79-.62Z"/><path class="cls-2" d="M76.86 120.22c-.63 1.61-1.29 3.21-2 4.78-.15.33-.09.71.24.9.28.17.76.09.9-.24.75-1.68 1.46-3.38 2.13-5.1.13-.33-.14-.73-.46-.81-.38-.1-.68.13-.81.46Z"/><path class="cls-4" d="M148.09 109.64c-.97-1.3-2.28-2.19-3.88-2.53-.89-.19-1.81-.25-2.71-.32s-1.89-.16-2.83-.23c-2.12-.16-4.24-.31-6.37-.43-.36-.02-.66.32-.66.66 0 .38.3.64.66.66.42.02.84.05 1.26.08.41.33 1.86 1.5 2.02 1.64.19.17 1.39 1.58 1.82 2.08s2.81 7.36 3.09 8.56 3.73 12.27 3.73 12.27l1.79-12.65 2.18-.02c-.03.35.33.66.66.66.39 0 .62-.3.66-.66.36-3.28.65-6.95-1.44-9.76Z"/><path class="cls-2" d="M94.95 95.72a.675.675 0 0 0-.81.46c-.3.85-.55 1.72-.75 2.6l-.09.03c-1.89.9-3.72 1.92-5.59 2.85-1.86.92-3.76 1.76-5.58 2.77-1.03.57-2.03 1.18-2.99 1.86-.29.21-.43.58-.24.9.17.29.61.45.91.24 1.7-1.2 3.53-2.19 5.39-3.1 1.87-.92 3.74-1.8 5.58-2.76.89-.47 1.79-.93 2.69-1.37.06.05.14.09.23.11.33.08.74-.1.81-.46.22-1.13.52-2.24.9-3.32.12-.33-.13-.74-.46-.81ZM144.86 131.9c-.96-3.56-2.02-7.08-3.16-10.58-.58-1.79-1.19-3.57-1.82-5.34-.53-1.51-1.06-3.04-1.77-4.48-.73-1.46-1.7-2.78-3.01-3.76a.631.631 0 0 0-.23-.23c-2.36-1.43-4.81-2.7-7.29-3.9-2.64-1.28-5.33-2.46-8.06-3.54-1.12-.44-2.25-.86-3.4-1.25l-3.4-4.88a.777.777 0 0 0-.49-.32c-.16-.12-.37-.18-.56-.11-1.77.62-3.59 1.06-5.45 1.32-.06 0-.12.03-.17.07-.31-.02-.58.19-.69.49-.88 2.51-1.74 5.02-2.58 7.55-.96-2.47-1.83-4.98-2.6-7.52-.25-.81-1.53-.47-1.28.35.92 3.02 1.97 6.01 3.16 8.94.09.22.25.39.45.45.07.05.14.09.22.11.36.1.7-.12.81-.46.95-2.91 1.94-5.8 2.95-8.69h.06c1.77-.25 3.5-.66 5.19-1.24l2.78 4s-.04.09-.05.13c-.1.36.12.7.46.81l.36.12c.15.13.34.21.54.18 5 1.7 9.85 3.91 14.51 6.38 1.25.66 2.48 1.35 3.7 2.08.05.06.11.12.17.16 2.37 1.65 3.33 4.67 4.25 7.27 1.21 3.43 2.36 6.88 3.41 10.35.59 1.95 1.15 3.91 1.68 5.88.22.82 1.5.47 1.28-.35Z"/><path class="cls-2" d="M98.81 95.71c-1.1 3.68-2.15 7.37-3.15 11.08-.22.82 1.06 1.17 1.28.35 1-3.71 2.05-7.4 3.15-11.08.25-.82-1.03-1.17-1.28-.35Z"/><path class="cls-2" d="M96.82 106.68c-1.4-2.12-2.19-4.59-2.26-7.13-.02-.85-1.35-.85-1.32 0 .07 2.76.91 5.49 2.44 7.8.2.3.58.43.9.24.3-.17.43-.61.24-.9ZM105.56 95.65l4.1 10.59c.13.33.45.57.81.46.32-.09.59-.48.46-.81l-4.1-10.59c-.13-.33-.45-.57-.81-.46-.32.09-.59.48-.46.81Z"/><path class="cls-2" d="M110.99 106.81c1.12-.9 2.09-1.96 2.9-3.15.85-1.24 1.49-2.62 2.08-4 .14-.33.1-.71-.24-.9-.28-.16-.76-.09-.9.24-.58 1.35-1.2 2.7-2.03 3.92-.75 1.12-1.69 2.11-2.74 2.96-.28.23-.23.7 0 .94.28.28.66.23.94 0ZM77.21 126.99c-.03 4.81-.03 9.63.01 14.44.01 1.36.03 2.72.04 4.08.01.85 1.34.85 1.32 0-.06-4.81-.09-9.63-.08-14.44 0-1.36 0-2.72.02-4.08 0-.85-1.32-.85-1.32 0ZM74.75 125.57c.09.7.02 1.41-.27 2.06-.32.75-.88 1.23-1.45 1.78-.63.6-1 1.34-1.28 2.15-.25.71-.44 1.43-.79 2.11-.32.63-.73 1.21-1.28 1.68-.62.52-1.44.74-2.15 1.1s-1.36.9-2.02 1.38-1.33.87-2.09 1.12c-1.73.56-3.59.49-5.39.4-.36-.02-.66.32-.66.66 0 .37.3.64.66.66 1.74.08 3.51.12 5.21-.3a8.07 8.07 0 0 0 2.36-1c.72-.46 1.37-1.05 2.11-1.51s1.64-.68 2.38-1.17c.7-.46 1.26-1.09 1.71-1.79s.75-1.47 1-2.25c.23-.72.43-1.5.95-2.06.33-.36.73-.65 1.06-1.02s.6-.75.81-1.19c.41-.87.6-1.85.49-2.81-.04-.36-.27-.66-.66-.66-.32 0-.71.3-.66.66Z"/><path class="cls-2" d="M78.21 131.39c-.26-.26-.67-.24-.94 0-4.13 3.68-9.04 6.9-14.59 7.82-1.42.23-2.87.28-4.3.16-.03-.03-.07-.06-.1-.09-2.12-1.63-3.94-3.72-5.04-6.17-1.11-2.47-1.38-5.37-.52-7.96.52-1.58 1.62-2.86 2.22-4.4.13-.33-.14-.73-.46-.81-.37-.1-.68.13-.81.46-.27.69-.68 1.32-1.06 1.96-.4.67-.76 1.36-1.04 2.09-.53 1.41-.74 2.95-.66 4.44.14 3 1.36 5.78 3.2 8.12.97 1.23 2.1 2.3 3.32 3.26.1.23.34.36.6.39 5.91.62 11.61-1.86 16.32-5.24 1.34-.96 2.63-2 3.86-3.1.27-.24.24-.69 0-.94ZM138.93 161.78c.48.75 1.35 1.24 2.26 1.2.17 0 .34-.07.47-.19.11-.11.2-.3.19-.47s-.06-.35-.19-.47-.29-.2-.47-.19c-.11 0-.22 0-.33-.01l.18.02c-.17-.02-.33-.07-.49-.13l.16.07c-.16-.07-.3-.15-.44-.26l.13.1c-.12-.09-.23-.2-.32-.32l.1.13s-.07-.09-.1-.15a.675.675 0 0 0-.4-.3.696.696 0 0 0-.51.07c-.29.19-.44.59-.24.9Z"/><path class="cls-4" d="m140.95 166.36.35-3.5-1.89-1.41-3.3 1.86.1.98.09 2.14c-.23.11-.4.34-.39.6.02.36.29.66.66.66h4.31c.35 0 .68-.3.66-.66a.668.668 0 0 0-.59-.65Z"/><path class="cls-2" d="M109.53 167.68h26.05c.85 0 .85-1.32 0-1.32h-26.05c-.85 0-.85 1.32 0 1.32ZM122.61 148.3c3.78 3.33 6.78 7.55 8.65 12.23.53 1.34.98 2.71 1.33 4.1.21.83 1.49.48 1.28-.35a33.89 33.89 0 0 0-7.22-13.79c-.96-1.11-2-2.15-3.1-3.12-.27-.24-.67-.26-.94 0-.24.24-.27.7 0 .94Z"/><path class="cls-2" d="M123.53 148.35c1.56-1.23 3.31-2.23 5.16-2.95.33-.13.57-.44.46-.81-.09-.32-.48-.59-.81-.46-2.08.81-4 1.91-5.75 3.29-.28.22-.23.7 0 .94.28.28.66.22.94 0ZM133.63 164.96l6.24-3.07c.32-.16.41-.61.24-.9-.19-.33-.58-.4-.9-.24l-6.24 3.07c-.32.16-.41.61-.24.9.19.33.58.4.9.24Z"/><path class="cls-2" d="M129.21 143.85c-.44-.53-.24-1.36.38-1.67.1-.05.3-.1.39-.11.24-.02.34 0 .56.09.49.21.9.51 1.46.45 1.12-.12 1.59-1.23 1.76-2.21.07-.39.11-.86.4-1.15.11-.11.22-.17.37-.21.21-.06.3-.07.55-.07.51 0 .96.1 1.47.22.6.13 1.22.28 1.78.53.33.15.71.09.9-.24.17-.28.09-.76-.24-.9-.6-.27-1.22-.46-1.86-.61-.58-.13-1.16-.26-1.75-.31-.55-.04-1.11.02-1.62.26-.55.27-.91.76-1.11 1.33-.18.51-.17 1.06-.37 1.56-.05.13-.17.32-.29.42.08-.07-.17.1-.06.04-.13.07.02.02-.06.02-.06 0-.12 0-.2-.03-.25-.09-.48-.24-.72-.34-.27-.11-.55-.17-.85-.17-.58 0-1.15.2-1.6.56-1.09.86-1.11 2.46-.26 3.49.23.28.7.24.94 0 .27-.27.23-.66 0-.94ZM120.95 126.49c1.18 5 2.61 9.94 4.27 14.8.47 1.37.95 2.74 1.45 4.11.12.34.45.56.81.46.32-.09.58-.48.46-.81-1.76-4.83-3.34-9.72-4.66-14.68-.37-1.4-.72-2.81-1.06-4.22-.19-.83-1.47-.48-1.28.35ZM135.44 163.3c.14 1.23.22 2.47.23 3.71 0 .35.3.68.66.66s.66-.29.66-.66c0-1.24-.08-2.48-.23-3.71-.04-.34-.28-.68-.66-.66-.32.02-.7.29-.66.66Z"/><path d="m87.61 166.43-.19-1.67-.12-6.44c.72-.12.68-1.31-.13-1.31h-7.52c-.7 0-.83.89-.37 1.21l-.35 8.3c-.36.36-.21 1.15.45 1.15h7.92c.73 0 .83-.96.32-1.25Z" style="fill:#ffd066"/><path class="cls-20" d="M94.16 152.91c-.24-.24-.71-.28-.94 0a416.1 416.1 0 0 0-3.79 4.56c-.23.28-.27.67 0 .94.23.23.71.28.94 0 .17-.2.33-.4.5-.61 0 .02-.02.04-.03.06a.583.583 0 0 0 0 .52c.03.08.07.15.14.21.13.11.29.2.47.19s.35-.06.47-.19c.22-.25.45-.49.67-.74.06-.06.11-.13.14-.21a.583.583 0 0 0 0-.52.487.487 0 0 0-.14-.21c-.13-.11-.29-.2-.47-.19s-.35.06-.47.19c-.15.16-.29.32-.44.48.98-1.18 1.96-2.37 2.95-3.54.23-.27.27-.67 0-.94ZM112.56 133.67s.04.01.06.02l-.16-.07c.06.03.12.06.18.1l-.13-.1c.05.04.1.09.14.14l-.1-.13s.02.03.03.04c.04.08.1.14.17.19.06.06.14.1.23.12.09.03.18.03.26.01.09 0 .17-.03.25-.08l.13-.1c.08-.08.14-.18.17-.29l.02-.18a.63.63 0 0 0-.09-.33c-.04-.06-.09-.12-.14-.18-.01-.02-.03-.04-.04-.05a2.11 2.11 0 0 0-.23-.19 1.39 1.39 0 0 0-.39-.19.464.464 0 0 0-.26-.01c-.09 0-.17.03-.25.08a.52.52 0 0 0-.19.17c-.06.06-.1.14-.12.23l-.02.18c0 .12.03.23.09.33l.1.13c.08.08.18.14.29.17ZM100.46 146.46z"/><path class="cls-20" d="M114.06 133.46v-.03l-.02-.18a.657.657 0 0 0-.17-.29 3.31 3.31 0 0 0-.41-.35c-.1-.08-.22-.14-.33-.2a.463.463 0 0 0-.25-.08c-.04 0-.07-.01-.11-.01-.2-.03-.41.02-.55.18-.63.72-1.22 1.47-1.79 2.24-.09-.06-.18-.11-.28-.17-.04-.02-.09-.04-.14-.06-.24-.09-.54-.06-.72.14-2.61 2.9-5.25 5.76-7.85 8.67-.65.72-1.29 1.45-1.93 2.18-.23.27-.26.67 0 .94.24.24.7.27.93 0 .1-.11.2-.23.3-.34l1.49-.44.76.1c.22.3.66.44 1 .1 2.21-2.19 4.28-4.52 6.45-6.75.53-.55 1.07-1.09 1.63-1.62.07-.06.11-.13.15-.2.17-.21.25-.52.08-.76-.13-.18-.26-.35-.4-.51l1.97-2.02c.14-.15.2-.36.18-.55Z"/><path class="cls-12" d="M79.57 146.48c-.27-.64-.78-1.1-1.43-1.34-.58-.22-1.22-.25-1.83-.27l-2.32-.09h-7.65c-.85 0-.85 1.32 0 1.32h2.73l.81.84s.21 1.88.16 2.45-.07 3.93-.07 3.93l-.13 18.25c-.51.28-.41 1.24.32 1.24h8.66c.38 0 .59-.26.63-.55.07-.1.12-.22.12-.37.14-4 .16-8 .19-11.99s.09-7.71.1-11.56c0-.63-.05-1.27-.3-1.85Z"/><path class="cls-14" d="M7.83 144.27zM70.41 146.47c-.27-.64-.78-1.1-1.43-1.34-.58-.22-1.22-.25-1.83-.27l-2.28-.09h-.04c-4.58 0-9.16 0-13.74-.01h-3.71c-1.83 0-3.66-.03-5.49-.05-2.92-.04-5.83-.08-8.75-.11-3.3-.05-6.59-.09-9.89-.14l-9.01-.12c-1.99-.02-3.99-.05-5.98-.06h-.43l-2.11.08c-.6.02-1.23.03-1.81.2-.58.17-1.14.53-1.48 1.07-.32.51-.43 1.12-.46 1.71-.05.85 0 1.71.02 2.55l.03 2.8c.03 4.32.04 8.65.1 12.97.02 1.94.06 3.88.12 5.82h-.62c-.85 0-.85 1.32 0 1.32h68c.35 0 .56-.23.62-.49.1-.1.17-.25.18-.44.14-4 .16-8 .19-11.99s.09-7.71.1-11.56c0-.63-.05-1.27-.3-1.85Z"/><path d="M109.89 163.39c-.06-.34-.5-.57-.81-.46-.25.08-.39.25-.45.47-.53-.15-1.3-.35-1.82-.44-.88-.16-3.79-1.03-3.79-1.03s-1.14.74-1.7.94-1.84.06-2.41-.09c-.57-.16-1.83-1.38-1.99-2.13s-.13-1.98-.13-1.98-.89.34-1.33.79-.48.23-.79.43c-.13.08-.22-.06-.27-.24.25-.04.46-.2.53-.47.09-.32-.11-.75-.46-.81-2.4-.47-4.81-.94-7.21-1.38-.35-.07-.72.1-.81.46-.06.23.02.5.19.67.01 1.4.02 2.8.04 4.21.02 1.48.07 3 .32 4.48.04.26.29.43.54.47.08.23.28.42.6.42h21c.36 0 .56-.23.62-.5.06-.07.11-.15.12-.25.21-1.18.21-2.36.01-3.54Z" style="fill:#e5b342"/><path class="cls-22" d="M100.22 92.04c.67-.08 1.34-.2 1.99-.39.33-.09.57-.47.46-.81s-.46-.57-.81-.46c-.53.15-1.06.26-1.6.34l.18-.02c-.07 0-.14.02-.21.03-.18.02-.33.06-.47.19-.11.11-.2.3-.19.47s.06.35.19.47c.12.11.3.21.47.19ZM91.05 63.66c.49-1.03 1.09-2.06 1.8-2.93.33-.41.68-.79 1.06-1.15.35-.34.72-.64 1.07-.89.78-.55 1.6-.98 2.43-1.27.98-.34 1.87-.5 2.85-.52 2.14-.06 4.25.61 6.01 1.86s3.01 3.28 3.59 5.48c.35 1.32.51 2.69.59 4.05.04.72.06 1.43.08 2.15.01.52.08 1.03.09 1.55.02.85 1.34.85 1.32 0-.01-.48-.07-.95-.08-1.43-.02-.66-.03-1.32-.07-1.98-.07-1.33-.2-2.66-.48-3.97-.53-2.47-1.69-4.8-3.66-6.43a11.257 11.257 0 0 0-6.57-2.58c-2.15-.12-4.34.44-6.17 1.56-2.24 1.37-3.88 3.51-5 5.85-.15.32-.09.72.24.9.29.17.75.09.9-.24ZM111.35 88.14c.03-.07.04-.14.05-.22.28-3.92.45-7.84.49-11.76 0-.85-1.32-.85-1.32 0-.04 3.91-.2 7.82-.48 11.72-.04.08-.06.17-.05.27l.81 8.72c.03.36.28.66.66.66.33 0 .7-.3.66-.66l-.81-8.72Z"/><path class="cls-22" d="M111.85 72.44c.3-.68.79-1.4 1.48-1.73.59-.29 1 .17 1.11.76.07.4 0 .83-.06 1.22-.08.45-.19.9-.31 1.35s-.26.88-.43 1.32c-.13.33-.26.69-.5.96-.12.14-.25.23-.4.28s-.21.05-.3.01c-.08-.03-.15-.08-.22-.12-.01 0-.11-.07-.02 0-.03-.03-.07-.06-.09-.09-.14-.14-.19-.23-.31-.42-.45-.72-1.6-.06-1.14.67.56.89 1.51 1.6 2.6 1.17 1.16-.46 1.57-1.75 1.92-2.84.18-.55.32-1.12.43-1.69.12-.62.23-1.26.15-1.9-.14-1.11-1-2.22-2.22-2.09-1.29.13-2.33 1.36-2.83 2.48-.15.33-.09.71.24.9.28.17.76.09.9-.24ZM104.31 71.97v-.06c0-.09-.02-.18-.06-.26a.487.487 0 0 0-.14-.21.596.596 0 0 0-.21-.14.554.554 0 0 0-.26-.06l-.18.02c-.11.03-.21.09-.29.17l-.1.13a.63.63 0 0 0-.09.33v.06c0 .09.02.18.06.26.03.08.07.15.14.21.06.06.13.11.21.14.08.04.16.06.26.06l.18-.02c.11-.03.21-.09.29-.17l.1-.13c.06-.1.09-.21.09-.33ZM92.82 72.19v.06c0 .09.02.18.06.26.03.08.07.15.14.21.06.06.13.11.21.14.08.04.16.06.26.06l.18-.02c.11-.03.21-.09.29-.17l.1-.13c.06-.1.09-.21.09-.33v-.06c0-.09-.02-.18-.06-.26a.487.487 0 0 0-.14-.21.596.596 0 0 0-.21-.14.554.554 0 0 0-.26-.06l-.18.02c-.11.03-.21.09-.29.17l-.1.13a.63.63 0 0 0-.09.33ZM96.1 76.32l-.34 1.6-.17.8c-.06.31-.19.65-.08.96.15.44.53.55.94.6.27.04.54.07.8.11l1.61.21c.34.05.68-.34.66-.66-.02-.4-.29-.61-.66-.66l-1.34-.18-.64-.08-.34-.04h-.1.06-.05c.08.04.1.04.04 0l.24.24c.04.08.05.15.04.23v-.03c.01-.06.02-.11.04-.17l.08-.37.15-.73.31-1.46c.07-.34-.1-.73-.46-.81-.33-.08-.74.1-.81.46Z"/><path d="M100.16 83.47c.08.18.02.03 0-.01s-.03-.09-.04-.14c-.01-.06 0-.17 0 .02v-.32.06c.04-.06.04-.17.06-.24 0-.03.04-.08.04-.11-.04.09-.05.11-.02.05 0-.02.02-.04.03-.05.02-.04.05-.08.07-.12l.02-.03c.04-.06.03-.04-.03.04.02 0 .06-.07.08-.09.03-.03.07-.06.1-.1.04-.03.02-.02-.05.04.02-.02.04-.03.07-.05.04-.02.07-.04.11-.06s.08-.03.11-.06c-.15.09-.06.02 0 0 .05-.02.09-.03.14-.04.06-.01.2 0 0 0 .08 0 .16-.01.25 0 .02 0 .2.02.08 0s.05.01.07.02c.04 0 .08.02.12.03.02 0 .04.01.06.02.05.02.03 0-.06-.03.02.02.08.04.11.06.03.01.13.06.14.09l-.05-.04s.05.04.08.07c.04.03.08.07.11.1.08.08.16.17.24.26.23.26.7.25.94 0 .25-.28.25-.66 0-.94-.38-.43-.82-.8-1.4-.91s-1.13-.03-1.62.25-.82.74-.99 1.27c-.17.55-.11 1.13.13 1.65.14.32.63.42.9.24.33-.21.39-.57.24-.9Z" style="fill:#a08675"/><path class="cls-11" d="M101.13 93.48c-.64-2.09-1.65-4.06-2.98-5.79a.79.79 0 0 0-.3-.25c-.04-.03-.09-.05-.14-.07l-2.03-.8-1.01-.4c-.34-.13-.69-.31-1.07-.3-.62 0-1.09.48-1.55.85-.21.17-.43.35-.64.53l-.55-1.64-1.23-4.01-2.48 2.44a.61.61 0 0 0-.46-.05c-.33.09-.57.47-.46.81 1.19 3.67 2.66 7.26 4.42 10.7.01.03.03.05.05.08.06.22.23.41.46.46 1.72.37 3.44.66 5.18.87.07 0 .14 0 .2-.02.06 0 .11 0 .17-.02 1.61-.41 3.1-1.33 4.17-2.6.03-.04.06-.08.08-.12.17-.14.27-.37.18-.65ZM83.06 69.27zM89.11 66.37c-1.08-.12-2.17-.15-3.25-.09-.15 0-.3.07-.42.16 0 0-.01 0-.02.01-.91.59-1.68 1.4-2.19 2.36l-.03.06c-.08.11-.14.25-.13.39.04.49.09.98.15 1.46 0 .09.02.18.06.26.03.08.07.15.14.21.11.11.3.2.47.19.17 0 .35-.06.47-.19.11-.12.21-.3.19-.47l-.03-.32 1.16-.58 2.06-.46.95-.22-.26-1.52.69.06c.35.04.68-.33.66-.66-.02-.39-.29-.62-.66-.66Z"/><path class="cls-22" d="M100.64 55.56c-2.3.01-4.58.67-6.46 2-1.87 1.32-3.3 3.15-4.19 5.24-.82 1.91-1.24 3.95-1.46 6-.66-.1-1.32-.13-1.98-.08-.1 0-.19.04-.28.08-.1 0-.19.03-.28.08-1.6.92-3.11 2-4.51 3.19a.63.63 0 0 0-.19.38c-.85 2.62-1.61 5.26-2.28 7.93-.21.83 1.07 1.18 1.28.35.66-2.64 1.41-5.25 2.25-7.84 1.27-1.07 2.63-2.03 4.09-2.87.53-.04 1.06-.02 1.58.05.07.01.14.03.21.04 0 .08-.01.15-.02.23-.04.57-.06 1.14-.08 1.71h-.08c-.01 0-.02 0-.03-.01l-.09-.06a.463.463 0 0 0-.25-.08c-.09-.02-.17-.01-.26 0a.586.586 0 0 0-.48.07c-.64.46-1.33.85-2.05 1.16-.06.03-.11.08-.16.13-.15.1-.23.23-.3.4-.36.86-.58 1.75-.72 2.67-.77 1.17-1.51 2.35-2.21 3.56-.43.74.72 1.41 1.14.67 1.12-1.93 2.32-3.81 3.61-5.62.16-.1.32-.2.5-.28.05-.03.11-.05.16-.07h.02c.11-.04.21-.08.32-.11.21-.07.42-.12.64-.16.03 0 .06-.01.09-.02.07-.01.06 0-.04 0 .03-.02.1-.01.13-.02h.06c.01.8.04 1.61.1 2.41-.04 0-.08.01-.12.02-.04 0-.08.02-.12.03-.07.02-.14.06-.21.09-.02 0-.04.02-.06.03l-.02.02c-.18.03-.35.13-.44.31l-.84 1.6s-.01.03-.02.04c-.04.03-.07.06-.11.09-.57.46-1.08.85-1.66 1.29-.04 0-.07 0-.11.01l-1.21.19c-.15.02-.32.18-.4.3-.08.14-.12.35-.07.51.05.16.15.32.3.4l.16.07c.12.03.23.03.35 0l.96-.15c.17.06.36.05.51-.06 1.13-.83 2.22-1.71 3.29-2.61v.08c.07.64.16 1.29.26 1.93-.05.04-.09.09-.13.15-.16.28-.34.54-.54.8-.01.03-.04.06-.06.08-.05.07-.11.13-.16.2-.11.13-.23.26-.34.38-.22.24-.45.46-.7.67-.06.06-.13.11-.19.16-.03.03-.06.05-.1.08-.01.01-.03.02-.03.04-.04.04-.1.07-.15.1-.07.05-.15.1-.22.15-.29.19-.44.59-.24.91a.7.7 0 0 0 .08.1c.28 1.3.17 2.7-.35 3.93-.06.08-.09.17-.11.27-.05.16-.04.33.02.48.04.98-.03 1.95-.16 2.92-.12.9-.25 1.8-.5 2.68-.22.77-.53 1.54-1.06 2.14-.26.3-.56.56-.92.72-.3.13-.65.2-.93.07-.32-.15-.72-.09-.9.24-.15.26-.1.66.15.85-.91 2.79-1.73 5.61-2.51 8.43-.23.82 1.05 1.17 1.28.35.79-2.85 1.62-5.69 2.54-8.5 1.23-.09 2.33-1.12 2.93-2.19.8-1.42 1.04-3.15 1.25-4.78.14-1.05.21-2.12.14-3.18.6-1.47.76-3.07.44-4.63.67-.51 1.27-1.11 1.79-1.77.06.33.13.66.2.99.32 1.47.77 2.92 1.58 4.2.45.72 1.6.06 1.14-.67-.66-1.05-1.05-2.21-1.34-3.41-.32-1.31-.55-2.65-.73-3.99a46.8 46.8 0 0 1-.38-8.2c.1-2.46.35-4.94 1.15-7.28.7-2.05 1.84-3.84 3.49-5.22 1.75-1.47 4.03-2.24 6.36-2.25.85 0 .85-1.33 0-1.32Z"/><path d="M111.38 58.43c-.75-.56-1.73-.74-2.64-.55-.01-.11-.03-.22-.06-.32-.21-.74-.79-1.23-1.34-1.73s-.98-1.11-1.51-1.63c-.57-.56-1.26-.99-2.06-1.08-.4-.05-.8.02-1.17.18-.15.06-.28.15-.42.22-.12.06-.24.08-.31.07-.6-.07-1.13-.69-1.59-1.06-1.23-.96-2.87-1.6-4.41-1.03-1.24.46-1.95 1.55-2.21 2.77-.16-.11-.31-.22-.47-.33a.501.501 0 0 0-.41-.08c-.04 0-.07-.01-.11-.01-.32 0-.71.3-.66.66.14 1.06.42 2.09.82 3.07-.71.1-1.39.31-2.04.62-.84.4-1.69.99-2.19 1.79-.51.81-.58 1.81-.56 2.75.02 1.05.07 2.1.1 3.15.04 1.07.07 2.14.11 3.21v.43c.01.41.33.62.65.64.18.04.36.02.52-.11.31-.05.55-.32.56-.65.04-.82.12-1.64.26-2.45.48-.92 1.16-1.76 1.77-2.57.62-.81 1.22-1.63 1.67-2.55.25-.52.47-1.06.64-1.62.83 1.13 1.86 2.11 3.05 2.9.05.03.1.05.15.07.16.11.36.15.56.11 2.68-.57 5.28-1.47 7.73-2.69-.05.08-.09.16-.14.24-.32.6-.55 1.3.04 1.82.41.36.98.56 1.45.84 1.82 1.1 2.71 3.02 3.06 5.05.22 1.25.23 2.53.25 3.79-.02.15-.04.31-.05.47-.03.36.33.66.66.66.32 0 .53-.21.62-.47.06-.09.1-.21.09-.35v-.3c.31-2.47 1.16-4.84 1.46-7.31.27-2.24.12-5.14-1.86-6.62Z" style="fill:#f6c243"/><path class="cls-15" d="M102.49 67.67c.12.15.23.3.38.43s.3.24.47.34c.35.19.72.29 1.11.32.16.01.36-.08.47-.19s.2-.3.19-.47-.06-.35-.19-.47-.28-.18-.47-.19c-.04 0-.07 0-.11-.01l.18.02a1.93 1.93 0 0 1-.47-.13l.16.07c-.16-.07-.31-.15-.45-.26l.13.1c-.12-.1-.24-.21-.34-.33l.1.13-.03-.03a.52.52 0 0 0-.17-.19.464.464 0 0 0-.23-.12c-.16-.04-.37-.02-.51.07s-.26.23-.3.4-.04.37.07.51ZM92.52 68.84c.34-.08.68-.22.97-.42.17-.11.32-.23.47-.37s.27-.3.39-.46c.09-.13.11-.36.07-.51s-.16-.32-.3-.4a.696.696 0 0 0-.51-.07l-.16.07a.69.69 0 0 0-.24.24c-.01.02-.03.04-.04.05l.1-.13c-.13.17-.28.31-.45.44l.13-.1c-.17.13-.35.23-.54.32l.16-.07c-.13.06-.27.1-.4.13-.16.04-.32.17-.4.3s-.12.35-.07.51c.11.35.45.55.81.46Z"/><path class="cls-23" d="M96.9 73.03ZM112.1 71.02c-.12-.37-.45-.52-.81-.46-.66.11-1.3.26-1.94.44.04-.24.08-.48.11-.73.03-.22-.12-.43-.31-.56a.651.651 0 0 0-.27-.15c-2.87-.61-5.88-.52-8.7.3a.61.61 0 0 0-.44.44c-.15.14-.23.36-.15.62.03.11.06.21.1.32-.35-.15-.73-.24-1.12-.27-.49-.03-.97.06-1.41.25.02-.16.05-.33.07-.49.03-.22-.11-.43-.3-.55a.557.557 0 0 0-.27-.15c-2.72-.61-5.59-.52-8.27.3-.25.08-.39.25-.44.45-.14.14-.22.35-.14.61.23.76.41 1.55.7 2.29.25.65.62 1.27 1.27 1.58.76.37 1.65.28 2.47.26a54.8 54.8 0 0 0 2.56-.12c.94-.06 1.41-.98 1.72-1.77.05-.13.1-.26.14-.39.09-.06.17-.13.23-.22s.02-.02.03-.03c.04-.04.08-.08.11-.13.06-.06.13-.13.2-.18 0 0 .01-.01.02-.01s.02-.01.04-.02c.04-.02.08-.05.11-.07.08-.05.15-.09.24-.13l.04-.02h.02c.04-.01.08-.03.13-.04.08-.03.17-.05.26-.06.02 0 .08-.01.09-.01H98.67c.02 0 .07.01.08.01.1.02.2.05.3.08.03 0 .17.06.17.06.09.04.18.09.26.13.18.11.28.18.4.28.07.06.14.13.2.19.04.04.08.09.12.13 0 .01.1.12.05.06.06.08.14.15.22.21.27.57.65 1.08 1.25 1.35.78.35 1.69.26 2.53.24.91-.02 1.82-.06 2.73-.12.42-.03.82-.24 1.1-.56.32-.35.49-.77.67-1.2.09-.22.17-.45.25-.67.87-.29 1.76-.52 2.67-.67.34-.06.57-.5.46-.81ZM91.39 74.2c-.31 0-.64.02-.94-.09-.41-.16-.6-.57-.74-.97-.19-.55-.34-1.11-.51-1.68 2.15-.58 4.43-.67 6.62-.26-.04.21-.08.4-.12.59-.09.4-.21.8-.35 1.19-.12.34-.2.57-.38.87 0 0-.02.02-.03.04-.01.02-.03.04-.04.04-.02.03-.05.05-.08.08 0 0-.03.02-.04.03-.02 0-.03.02-.03.02h-.1c-.05 0-.09 0-.14.01-.65.04-1.3.07-1.94.09-.39.01-.78.02-1.17.02Zm11.95-.46c-.32 0-.65.01-.96-.08-.46-.14-.68-.56-.83-.96-.2-.56-.37-1.13-.54-1.69 2.3-.59 4.72-.68 7.05-.26v.03c-.04.19-.08.38-.13.57-.1.41-.23.8-.37 1.19-.11.3-.21.56-.41.86s-.04.05-.06.08c-.02.02-.05.05-.08.07-.03.02-.06.04-.09.05s-.03 0-.05 0h-.08s-.09 0-.14.01c-.7.04-1.4.07-2.1.09-.4.01-.8.02-1.2.02Zm3.66-.19c-.05.05-.04.02 0 0Zm.14-.14s-.02.03 0 0Z"/><path class="cls-1" d="M70.5 160.39c.04-2.93.08-5.79.08-7.31 0-3.56.48-4.76-.19-6.67-.28-.79-1.12-1.2-2.24-1.4-.14.45-.31.89-.5 1.31-1.49 3.21-4.34 5.46-7.1 7.52-2.8 2.08-5.47 4.16-7.32 7.17-2.13 3.48-3.16 7.51-3.21 11.57.91 0 1.68-.01 2.25-.02 1.7-.02 4.28 0 6.93.04.02-.84.12-1.68.3-2.5 1.14-5.27 5.79-9.04 11.02-9.71Z"/><path class="cls-1" d="M56.75 153.37c2.73-2.11 5.87-4.01 7.79-6.96.32-.5.61-1.04.83-1.61-.95-.01-1.94 0-2.89-.02-1.73-.04-4.35-.04-7.09-.03a31.862 31.862 0 0 1-3.44 4.45c-1.17 1.26-3.05-.63-1.88-1.88.75-.81 1.45-1.66 2.11-2.54-1.45.01-2.84.03-4.06.05-1.29.02-3.07-.02-5.09-.09-2.09 3.23-3.49 6.9-4.08 10.75-.11.71-1.01 1.11-1.64.93-.75-.21-1.04-.92-.93-1.64.55-3.59 1.78-7.03 3.59-10.15-2.85-.1-5.87-.21-8.47-.26-.01.06-.03.12-.04.18-.48 2.14-.38 5.2-3.09 5.84-2.61.61-3.88-2.2-5.02-3.97-.45-.7-.92-1.38-1.41-2.05-5.78-.01-12.54-.07-13.82 0-1.03.05-2.24-.08-3.29.02.17 1.82 1.27 3.55 2.97 4.52 2.7 1.54 5.94 1.78 8.79 2.95 3.03 1.24 5.51 3.35 7.45 5.97 3.18 4.31 4.28 9.53 4.26 14.76h6.54c-.28-1.65-.34-3.34-.19-5.02.16-1.7 2.82-1.71 2.66 0-.16 1.71-.08 3.37.24 5.02 3.27 0 6.86 0 9.8-.02.01-1.02.08-2.03.21-3.04.83-6.55 3.97-12.14 9.2-16.18ZM70.46 163.1c-.82.12-1.64.33-2.43.66-3.76 1.55-6.03 5.13-6.16 8.88 2.87.06 5.51.13 6.86.18 2 .08 1.65-1.33 1.65-3.3 0-.87.04-3.48.08-6.43Z"/><path class="cls-1" d="M24.57 164.78c-.98-3.16-2.79-6.06-5.31-8.22-2.54-2.18-5.62-2.85-8.75-3.75-2.95-.85-6.12-2.19-7.53-5.13-.27-.57-.48-1.17-.61-1.77-.52 1.19-.36 2.88-.32 5.2.02 1.21.09 5.34.16 9.67.72-.13 1.42-.19 2.04-.19 2.6.01 5.05 1.02 7.02 2.7 2.84 2.41 4.23 5.82 4.57 9.38 3.52-.02 7.08-.04 9.81-.05.02-2.65-.3-5.3-1.09-7.84Z"/><path class="cls-1" d="M5.06 163.3c-.94-.1-1.89-.03-2.8.22.08 4.85.15 9.23.15 9.23s5.01-.03 10.79-.07c-.29-2.56-1.25-5-3.13-6.88-1.35-1.36-3.1-2.31-5.02-2.5ZM28.05 147.58c.68-.63.56-2.25.71-3.09 0-.05.02-.09.03-.14h-.57c-.85.01-1.88.02-3.03.02.48.73.94 1.47 1.4 2.21.3.49.83 1.58 1.47.99Z"/><path class="cls-19" d="M11.28 163.29c-1.97-1.68-4.42-2.68-7.02-2.7-.62 0-1.33.06-2.04.19.02.91.03 1.83.04 2.73.91-.25 1.86-.32 2.8-.22 1.92.2 3.67 1.15 5.02 2.5 1.88 1.89 2.84 4.33 3.13 6.88.87 0 1.75-.01 2.64-.02-.34-3.56-1.73-6.96-4.57-9.38ZM24.03 157.84c-1.93-2.62-4.42-4.73-7.45-5.97-2.85-1.17-6.09-1.41-8.79-2.95-1.7-.97-2.81-2.71-2.97-4.52-.82.07-1.54.27-2 .8-.19.22-.34.46-.45.72.13.6.34 1.19.61 1.77 1.41 2.94 4.58 4.28 7.53 5.13 3.13.9 6.21 1.57 8.75 3.75 2.52 2.16 4.33 5.06 5.31 8.22.79 2.54 1.1 5.19 1.09 7.84 1 0 1.89 0 2.63-.01.03-5.24-1.08-10.46-4.26-14.76ZM37.3 167.58c.16-1.71-2.51-1.7-2.66 0-.15 1.68-.09 3.37.19 5.02h2.71c-.32-1.64-.4-3.31-.24-5.02ZM37.31 156.6c.63.18 1.53-.22 1.64-.93.58-3.85 1.99-7.52 4.08-10.75-.98-.03-2.01-.07-3.06-.1-1.8 3.11-3.04 6.56-3.59 10.15-.11.72.18 1.42.93 1.64ZM28.37 150.73c2.71-.64 2.61-3.7 3.09-5.84.01-.06.03-.12.04-.18-.97-.02-1.89-.03-2.71-.02 0 .05-.02.09-.03.14-.15.84-.03 2.46-.71 3.09-.64.59-1.17-.5-1.47-.99-.45-.74-.91-1.49-1.4-2.21h-3.25c.49.67.96 1.35 1.41 2.05 1.14 1.77 2.41 4.58 5.02 3.97ZM68.03 163.76c.8-.33 1.61-.54 2.43-.66.01-.88.03-1.8.04-2.7-5.23.66-9.87 4.43-11.02 9.71-.18.82-.28 1.66-.3 2.5.89.01 1.8.03 2.68.05.13-3.75 2.4-7.34 6.16-8.88ZM60.53 153.84c2.77-2.06 5.62-4.31 7.1-7.52.2-.42.36-.86.5-1.31-.81-.15-1.76-.19-2.77-.21-.23.57-.51 1.11-.83 1.61-1.92 2.95-5.07 4.85-7.79 6.96-5.22 4.04-8.36 9.62-9.2 16.18-.13 1.01-.2 2.02-.21 3.04.97 0 1.87 0 2.66-.01.06-4.05 1.08-8.09 3.21-11.57 1.85-3.01 4.52-5.09 7.32-7.17ZM51.95 149.2c1.29-1.39 2.44-2.87 3.44-4.45-1.07 0-2.16.01-3.22.02-.65.89-1.36 1.73-2.11 2.54-1.17 1.25.71 3.14 1.88 1.88Z"/><path class="cls-22" d="M135.52 161.74c-.09-.32-.48-.59-.81-.46-3.13 1.17-6.37 2.1-9.69 2.52-3.02.38-6.12.32-9.13-.21-1.66-.29-3.29-.72-4.86-1.34a.557.557 0 0 0-.42.02c-.08.03-.16.08-.23.15-.08.08-.11.09-.26.12-.09.02-.28.02-.42.02-.38 0-.75 0-1.13-.03-.74-.05-1.47-.18-2.19-.36-1.42-.37-2.75-1-3.96-1.84 0-.01 0-.02-.02-.04-.09-.14-.23-.26-.4-.3s-.37-.04-.51.07c-.18.13-.37.24-.58.34-.19.07-.39.13-.6.16-.22.02-.44.03-.66 0-.16-.02-.36.09-.47.19-.11.11-.2.3-.19.47s.06.35.19.47c.14.13.28.17.47.19.7.08 1.45-.08 2.08-.41.14.1.28.19.42.28 0 0-.02.01-.03.02-.09.06-.18.11-.27.16-.05.03-.1.05-.15.08-.01 0-.04.02-.05.02-.18.08-.38.13-.57.18-.06.01-.11.02-.17.04-.01 0-.08.01-.09.02-.09.01-.19.02-.28.02-.21 0-.41 0-.62-.02h-.03c-.06 0-.11-.02-.17-.03-.1-.02-.2-.05-.3-.08s-.2-.06-.29-.1c-.01 0-.03-.01-.04-.02-.05-.02-.1-.04-.14-.07-.07-.04-.14-.08-.22-.12-.74-.64-1.96-1.8-1.13-2.74.41-.47 1.08-.75 1.62-1.04.67-.35 1.36-.67 2.07-.95.33-.13.57-.44.46-.81-.09-.32-.48-.59-.81-.46-.87.35-1.73.73-2.56 1.18-.25.13-.5.27-.75.41-.25.02-.49.05-.73.1-.18.04-.36.1-.53.16-.34-.05-.6.17-.72.48-.12.31-.36.57-.63.75v-.13c.02-.2.05-.39.11-.59.03-.06.07-.11.1-.17.05-.1.07-.2.08-.3.18-.4.42-.78.7-1.1 1.25-1.45 3.14-2.05 4.9-2.63.34-.11.56-.46.46-.81-.09-.33-.47-.57-.81-.46-1.84.6-3.78 1.25-5.19 2.65-.64.64-1.15 1.41-1.44 2.26 0 .01-.02.03-.03.04 0 .01-.01.02-.02.02l-.04.04-.09.09-.02.02-.09.06s-.05.02-.08.04c-.03.01-.08.03-.1.03-.03 0-.06.01-.09.02h-.14s-.11-.01-.15-.02l-.2-.06c-.02-.01-.05-.02-.07-.04-.01 0-.02-.01-.04-.02 0-.1.02-.19.04-.29.06-.3.14-.59.25-.88.19-.53.45-1.02.72-1.52.27-.49.55-1.01.85-1.49.28-.44.59-.84.98-1.18.43-.37.96-.62 1.48-.84 1.33-.56 2.68-1.1 4.02-1.64.33-.13.57-.44.46-.81-.09-.31-.48-.6-.81-.46-1.43.58-2.87 1.15-4.29 1.76-.66.28-1.29.61-1.83 1.09-.17.15-.32.31-.47.48-.04.04-.09.08-.13.12-.05.05-.2.18-.07.06-.15.13-.32.24-.49.34-.39.26-.79.51-1.21.74-.19.11-.38.21-.58.31-.09.04-.17.09-.26.13-.04.02-.07.03-.11.05h-.01c-.06.02-.11.04-.16.06-.02 0-.04.01-.06.01.04-.01 0 0-.04 0 .22-.79.58-1.54 1.08-2.19.6-.77 1.38-1.39 2.18-1.94 1.62-1.12 3.38-2.03 5.24-2.67a22.5 22.5 0 0 1 3.2-.84c1.63.82 3.16 1.87 4.62 2.96a44.41 44.41 0 0 1 4.76 4.11c.72.73 1.42 1.48 2.05 2.29.22.28.71.23.94 0 .28-.28.22-.65 0-.94s-.04-.04-.05-.06c3.04-1.21 5.98-2.69 8.75-4.43.9-.56 1.78-1.15 2.66-1.73.3-.2.43-.58.24-.9-.17-.3-.61-.43-.9-.24-1.51 1-3.02 2-4.6 2.89s-3.07 1.65-4.66 2.36c-.78.35-1.58.67-2.38.98-.97-1.09-2.05-2.1-3.15-3.07a45.88 45.88 0 0 0-5.17-3.95c-.87-.57-1.76-1.1-2.7-1.56a.69.69 0 0 0-.61-.02h-.09c-2.08.38-4.1 1.06-6 2-.94.46-1.84.99-2.7 1.58s-1.76 1.26-2.45 2.09c-.77.92-1.32 2-1.6 3.17-.03.14-.02.27.02.38-.02.7.76 1.12 1.43 1.06.46-.04.9-.27 1.31-.49-.35.66-.65 1.35-.84 2.05-.09.33-.15.68-.19 1.02-.03.25-.03.48.11.7.2.31.56.5.89.64.42.17.83.2 1.22.12.04.51.23.96.74 1.1.57.15 1.15-.2 1.57-.53.02-.01.03-.03.05-.05 0 .4.1.81.27 1.19.25.58.66 1.03 1.11 1.45.03.07.07.13.14.18.12.09.24.18.36.26l.02.02c.08.07.16.11.25.14 1.65.91 3.8.73 5.23-.57a13.624 13.624 0 0 0 5.46 1.42c.66.03 1.49.1 2.1-.24 2.83 1.07 5.87 1.57 8.88 1.69 3.28.13 6.55-.27 9.73-1.06a49.56 49.56 0 0 0 5.47-1.72c.34-.13.56-.45.46-.81Zm-42.74-3.64v-.06.06ZM102.47 108.14c.85 0 .85-1.32 0-1.32s-.85 1.32 0 1.32ZM102.01 123.08c.85 0 .85-1.32 0-1.32s-.85 1.32 0 1.32ZM101.56 137.71c.85 0 .85-1.32 0-1.32s-.85 1.32 0 1.32Z"/><path class="cls-5" d="M119.21 122.87c-.15-2.65-.39-5.29-.71-7.92a.328.328 0 0 0-.15-.25c-.05-.09-.14-.15-.28-.14-3.47.22-6.94.54-10.4.92-.94.1-1.87.21-2.8.33-.1.01-.18.06-.23.12-.09.05-.15.14-.14.27.18 2.6.42 5.2.7 7.79.01.11.06.19.13.24.05.09.14.16.28.16 4.42-.21 8.83-.56 13.22-1.07.15-.02.25-.11.29-.23.05-.05.08-.12.07-.22Z"/><path class="cls-11" d="M114.3 115.66c-.02-.66-.08-1.32-.19-1.97-.02-.11-.12-.2-.24-.23-.05-.02-.1-.04-.16-.04-1.59.07-3.18.23-4.75.46-.08.01-.14.06-.18.13-.08.06-.14.15-.13.26l.13 1.73s.01.08.03.11v.01c0 .2.15.31.33.33.4.05.81-.06 1.21-.11s.79-.1 1.19-.14c.81-.09 1.61-.15 2.42-.2.06 0 .12-.02.16-.05.11-.05.19-.16.19-.3Z"/><path class="cls-21" d="M109.53 120.2c.22.02-.04-.18.03-.22.65.44-.16-.65-.4-.47.6.23-.66.51-.18.39.08-.21.29-.19-.23-.23.04-.1.64-.25.18-.18-.02-.07-.1-.05-.26.05.28-.21-.8-.13-.45-.04-.93.44.65.09-.24.39.31.06.04.03.14.22.09.09.35.07.29.24.19.26.08-.39.25.13.06.04.03-.04.04-.07.04.03.15.19.13.05-.06-.11.22-.09.24-.23-.08.27.94.18.46-.04Zm.1-.26s-.04 0-.05-.03c0-.06.04.02.05.03Zm-1.55-.31s.05 0 .04.02c-.02 0-.04 0-.04-.02Zm.09.03c.02-.05.04-.05.07-.01 0 .04-.03.03-.07.01Zm.09.38s.03-.07.05-.02c0 .02-.03.05-.05.02Zm0-.45c.03-.05.1-.18.18-.11-.03.07-.1.26-.18.11Zm.25.3c-.05.11-.06.14-.19.06 0 0 .1-.13.19-.06Zm-.1.25c.05-.07.09.03.11.1-.02.02-.21-.09-.11-.1Zm.06-.12h.05c-.01.02-.04.02-.05 0Zm-.03-.33c-.06-.02.05-.1.08-.13.12 0-.06.16-.08.13Zm.23.55.02-.06s0 .05-.02.06Zm-.05-.14c0-.09.05 0 .08.01-.09.18-.1.06-.08-.01Zm.11-.02s.04.04 0 .05c-.03 0-.02-.05 0-.05Zm0 .28s.03-.12.04-.06c-.01.02-.02.06-.04.06Zm.03-.49c.12.08-.22.17-.18.03.12-.09.44-.28.18-.03Zm.04.33c.09 0 .19-.03.19-.15.2.14-.14.41-.19.15Zm.26-.16s.02-.03.05-.02c0 .03-.02.02-.05.02Zm.06.24s.05-.06.08-.04c-.02.05-.02.11-.08.04Zm.11.01s0-.06.02-.08c-.01.04-.02.07-.02.08Zm.03-.04v.02c-.03.05 0-.01 0-.02Zm-.12-.24c0-.24.09.02.21.06-.14.23 0 .03-.21-.06Zm.27.2c-.12.06 0-.17.06-.05-.02.04-.04 0-.06.05Zm-.06-.12h.05c-.02.01-.04.02-.05 0Zm.08-.12c-.04-.11-.08 0-.14-.03.09-.3.26.16.14.03Z"/><path class="cls-21" d="M108.44 119.97s-.06-.02-.08-.03c.01.01.04.02.08.03ZM109.57 120.01ZM108.81 119.79h-.01.01ZM110.59 119.54s.03 0 .04.01c0-.02 0-.05-.04-.01ZM110.15 119.41s-.01.03 0 .02v-.02Z"/><path class="cls-21" d="M111.24 119.59c.28-.14-.06-.42.02-.1-.14-.08-.23-.39-.18 0 .07.08-.49-.31-.46-.02.49.08.41.13.19.11-.15-.09-1.63-.22-1.05.08.7.08.26.11.79-.06-.15.31-.46.48-.37.6-.16.23 0 .27.12.07.28.22.13-.09.22-.12.21-.09.22.33.27-.18.44-.45-.25.71.15.09-.01-.05.8-.21.1-.24-.08-.27.48.08.31-.26-.08.09-.22.13-.12.02Zm-.91.58c.07-.03.02-.22.1-.16-.02.06-.05.28-.1.16Zm.38-.53s-.03.03-.07.02l.07-.02Zm-.17.37c-.02-.11.05-.04.16-.11-.05.07-.02.21-.16.11Zm.18-.13c-.08-.07-.1-.13 0-.18.3.07.1.11 0 .18Z"/><path class="cls-21" d="M110.31 119.88c-.47-.22-.27 0-.42.28 0-.13-.35.57.21.1-.17-.32.18-.15.22-.38Z"/><path class="cls-21" d="M110.01 120.48s.12-.1.07-.12c-.11 0-.23.09-.07.12ZM109.71 120.14s-.05 0-.05.04c-.02.15.19.04.05-.04ZM108.1 120.21s.08.08.1.02c-.04-.02-.06-.09-.1-.02ZM110.88 120.24c-.02.08.02.07.08.05-.01-.04-.05-.08-.08-.05ZM109.5 119.48c-.02-.05-.05 0-.08.02.04.03.06.01.08-.02ZM109.02 120.39l-.03.08c.06.04.05-.07.03-.08ZM110.6 120.24s-.1.11-.09.11c.07.08.18-.05.09-.11ZM109.18 120.47l.05.04s-.03-.07-.05-.04ZM109.67 119.43l-.05-.04s.02.08.05.04ZM110.52 119.38s-.09-.02-.14.01c.05.03.1.04.14-.01ZM109.71 119.74l.02.07s.02-.1-.02-.07ZM108.35 120.31s.03.02.05 0c0-.03-.04 0-.05 0ZM108.88 120.48s.04.01.06 0c-.02-.02-.04 0-.06 0ZM109.79 119.75s-.01.03-.01.06c.03-.02.01-.04.01-.06ZM109.9 119.98h.06c-.02-.02-.04-.03-.06 0ZM110.71 119.77c0 .06.04.04.02-.01 0 0-.02.02-.02.01ZM112.34 119.5ZM115.31 119.53c-.71-.34-1.19-.14-1.77-.17.19.07.57.09.11.18-.14-.25-1.98-.44-2.29.02.06.1.45.55.22.08.29-.02.59-.14.83-.28.08 0-.05.33-.06.16-.17.12-.48.28-.31.35.16.25.51-.25 1.05-.29.19-.18.17-.08.1.04.56-.12-.14.05-.31.27-.11.35.59.3 0 .08.35-.19.41.25.73-.16.2-.09.02.13.15.15.19-.04-.08-.26.09-.23.01-.19-.59.25-.65.12.82-.47 1.87-.21 2.11-.29Zm-3.54-.13s.08-.02.11-.02c.11.08-.08.13-.11.02Zm.59.17-.03-.03s0-.01.03.03Zm-.06.1.08.04s-.11.01-.08-.04Zm.19-.04c-.07.06-.14-.04-.04-.06.14 0 .19.2.04.06Zm.35-.1c.06 0 .12-.06.18-.04-.05.04-.11.08-.18.04Zm.3-.14s.18-.05.16.04c-.03.01-.11-.04-.16-.04Zm.35.43v.02s-.01 0 0-.02Zm-.33-.03s.04.05 0 0Zm.26-.31s.05 0 .05.04c-.02.01-.04-.03-.05-.04Zm.69.03c-.01-.12.17-.07.23-.02-.05.06-.15 0-.23.02Z"/><path class="cls-21" d="M111.76 120.22c-.17.19.19-.08.15.13.35-.29.35-.41-.15-.13ZM114.06 119.92c.17-.16.79-.39.13-.24 0 .1-.29.21-.13.24ZM111.58 120.02c.15-.28-.32-.09-.11-.02 0 .12-.14.33.11.02ZM112.68 119.92c-.08.12-.25.15-.13.25.12-.08.33-.44.13-.25ZM113.93 119.76c-.14.18.03.05.11 0 .15-.12-.09-.13-.11 0ZM111.97 119.95a.503.503 0 0 0-.3-.02c.06.1.26.14.3.02ZM113.3 120.07c-.12-.02-.12.02-.1.13.04.02.24-.12.1-.13ZM111.56 120.22c-.04.09.12.03.14-.04.08-.09-.15-.08-.14.04Z"/><path class="cls-21" d="M112.51 120.06c0-.05-.27-.02-.2.06.04.03.19-.01.2-.06ZM111.27 120.07c.02-.22-.27.08-.08.07 0-.06.05-.08.08-.07ZM114.97 119.63c.04.13.13-.05.21-.04-.06-.04-.15.03-.21.04ZM112.68 119.75c.1.06.09.07.17 0 .1-.07-.14-.03-.17 0ZM112.66 120.19c.08.09.13-.04.09-.1-.03-.01-.1.07-.09.1ZM113.96 119.93c-.05 0-.07.05-.09.08.07.03.22-.05.09-.08ZM111.02 120.24c.06 0 .05.1.11.07.07-.06-.11-.17-.11-.07ZM112.63 119.87c0-.13-.18.02-.06.04.03 0 .08 0 .06-.04ZM112.11 119.57l-.19.07c.03.05.21 0 .19-.07ZM113.45 120.01s-.02.13.05.1c.06-.04 0-.1-.05-.1ZM114.54 119.77c-.14.06-.18.2.03.09-.05-.04-.04-.04-.03-.09ZM114.69 119.65s-.11 0-.11.04c.02.04.15.02.11-.04ZM111.98 119.89s-.12-.14-.13-.13c-.02.06.08.14.13.13ZM111.3 120.16s-.08.02-.09.07c0 .1.2-.06.09-.07ZM114.22 119.92c-.07.08.14.07.09-.01-.03-.02-.06.06-.09.01ZM112.36 120.2c-.11.06.15.09.09.02-.02-.04-.06-.02-.09-.02ZM113.67 119.9c-.08-.03-.09.16-.02.12-.02-.06.08-.12.02-.12ZM115.19 119.64h.1c.05-.02-.09-.01-.1 0ZM112.36 119.83s-.08.15-.03.11c.02-.02.08-.09.03-.11ZM112.59 120.21c-.07.04-.04.07.03.09.01-.04.02-.08-.03-.09ZM112.85 120.21c-.07.03 0 .06.04.08.04-.02.01-.09-.04-.08ZM112.49 119.91c-.03-.06-.16.06-.05.04.03 0 .06 0 .05-.04ZM115.28 119.41s-.06-.02-.05.01c0 .02.1.01.05-.01ZM114.89 119.74c.08 0 .03-.05.03-.09 0 .05-.08.07-.03.09ZM114.11 119.91s-.1.13-.09.12c.03.02.22-.12.09-.12ZM114.96 119.73s.13-.02.08-.04c0 0-.09.04-.08.04Z"/><path class="cls-21" d="M112.19 119.54c-.01-.05-.11.02-.06.04.03 0 .07.01.06-.04ZM113.87 119.72c-.09 0 .04.12.03.04 0-.02 0-.05-.03-.04ZM114.11 119.65s.04.03.04.02c.06-.03 0-.07-.04-.02ZM114.3 119.8c.04.08.14.01.05-.06-.03.03-.06.05-.05.06ZM114.64 119.76s.08.02.08-.02c-.02-.01-.05-.02-.08.02ZM111.72 120.09v-.07c-.06 0-.05.05 0 .07ZM115.11 119.32s-.04-.03-.08-.02c.04.02.05.04.08.02ZM114.65 119.83s.08-.01.05-.04c0 0-.06.04-.05.04ZM112.83 120.03s-.02.04 0 .06c.01-.03.06-.06 0-.06ZM113.75 120s.06.01.09 0c-.03 0-.06-.02-.09 0ZM112.23 120.23s.08-.03.04-.05l-.04.05ZM115.27 119.58s.04 0 .06-.01c-.01-.01-.05 0-.06.01ZM114.78 119.78s.07.03.1.02c-.02 0-.1-.06-.1-.02ZM114.93 119.63s-.04-.03-.06-.01c.01 0 .05.03.06.01ZM112.51 120.27s.05-.03.02-.07c-.02.03-.04.04-.02.07ZM113.26 120.01s-.05 0-.08.02c.03.01.06 0 .08-.02ZM115.02 119.31s-.02-.01-.04 0c.01.01.02.03.04 0ZM111.76 119.69s-.01-.02-.02-.03c-.02.03 0 .08.02.03ZM111.75 119.85s-.02-.05-.04-.02l.04.02ZM112.9 120.21v-.06c-.03 0-.03.04 0 .06ZM111.32 120.31s.04.01.06 0c-.02-.02-.05 0-.06 0ZM114.26 119.59l-.04.02s.07.02.04-.02ZM113.07 120.22s.04.01.06 0c-.02 0-.04-.02-.06 0ZM110.72 120.31s.06.02.04-.02l-.04.02ZM111.47 120.35c0-.07-.01-.08-.05-.16-.02.1-.04.13.05.16ZM114.78 119.67s-.05 0-.04.02c0 0 .06 0 .04-.02ZM114.09 119.59s-.04.03 0 .05v-.05Z"/><path class="cls-12" d="M80.07 116.17c-.05-2.73-.09-5.46-.12-8.2-.05-5.17-.06-10.34-.05-15.52 0-2.85.02-5.71.03-8.56.03-2.46.06-4.91.1-7.37.02-1.3.05-2.61.07-3.92.02-1.07 0-2.3-.9-3.05-.99-.81-2.4-.72-3.61-.76-.39-.01-.6.26-.63.56h-.18l.17.02c-.03.35.18.74.63.75.27 0 .53.01.8.02.28.63.68 1.6.68 2.07 0 .73-.15 6.96-.15 9.05 0 2.09.15 34.6.09 36.95-.02.75-.28 1.21-.62 1.49-.1.04-.19.09-.25.17-.72.38-1.64.21-1.81.25s1.64.14 1.64.14c-.04.36.17.74.63.72 1.12-.04 2.35-.2 3.03-1.21.68-1.01.47-2.46.45-3.61Z"/><path class="cls-14" d="m77.69 74.39.03-1.68c0-.46.03-.92-.01-1.38-.09-.96-.49-1.85-1.41-2.28-.77-.36-1.62-.37-2.45-.4-1.32-.04-2.64-.06-3.96-.07-3.19-.03-6.38 0-9.57.01-3.36.02-6.71.06-10.07.07-2.91 0-5.81 0-8.72-.07-.28 0-.55-.02-.83-.02h-.06c-2.9.1-5.79.1-8.69.1-3.49 0-6.98-.04-10.47-.06-3.49-.02-6.69-.05-10.04-.03-1.41 0-2.82.02-4.23.06-.75.02-1.51.01-2.25.15-1 .18-1.83.8-2.12 1.8-.14.47-.16.98-.15 1.47 0 .57.02 1.13.03 1.7.02 1.13.04 2.27.05 3.41.03 2.2.05 4.4.06 6.6v1.59c.03 3.9.04 7.79.04 11.69 0 4.14-.03 8.28-.08 12.42-.02 2.09-.06 4.18-.09 6.26-.02.95-.12 1.94.05 2.89.17.94.82 1.66 1.73 1.96.75.25 1.59.23 2.37.25s1.53.04 2.29.05c1.75.02 3.5.03 5.25.03 3.95 0 7.91-.04 11.86-.07h1.02a280.336 280.336 0 0 0-2.36 24c-.02.36.32.66.66.66.38 0 .64-.3.66-.66 0-.07 0-.14.01-.21l20.47.39v.33c-.02.85 1.31.85 1.32 0 .12-6.08.3-12.15.55-18.22.09-2.09.18-4.17.29-6.26 3.65.02 7.3.07 10.96.12 3.69.05 7.37.09 11.06.09 1.66 0 3.31-.01 4.97-.05.44-.01.65-.38.64-.72.44-.26.8-.66 1.02-1.24.17-.46.2-.97.21-1.46 0-.57-.02-1.14-.03-1.71l-.06-3.58c-.07-4.58-.1-9.16-.11-13.74s0-8.81.02-13.21v-1.65c.02-2.05.05-4.09.08-6.14l.06-3.17Z"/><path class="cls-5" d="M38.26 86.23c0 .4-.01.8 0 1.2 0 .21-.01.41.05.61.08.28.25.5.49.65.06.04.09.08.09.15.02.58.05 1.15.11 1.73.01.11-.06.11-.13.12-.32 0-.63.01-.94.02-.13 0-.25.01-.38.01-.18 0-.29-.1-.31-.27a31.133 31.133 0 0 1-.24-4.31c0-.11-.04-.17-.15-.19-.28-.04-.55-.08-.83-.1-.26-.03-.39-.24-.26-.47.08-.15.17-.29.27-.43a15.18 15.18 0 0 1 3.22-3.56c.42-.34.86-.64 1.32-.92.25-.16.49-.14.72.02.46.3.91.62 1.33.97.05.04.11.13.18.09.07-.04.04-.13.04-.2-.01-.11 0-.22 0-.33 0-.18.13-.3.32-.29.3.02.6.05.9.08.17.02.26.14.29.3.05.29.1.58.14.87.06.44.1.87.14 1.31.01.16.09.29.19.41.43.54.81 1.11 1.16 1.7.13.22.08.44-.12.51-.08.03-.17.03-.25.04-.23.02-.45.04-.68.07-.13.01-.18.06-.18.19 0 .4 0 .81-.02 1.21-.04.96-.11 1.92-.25 2.87l-.03.22a.31.31 0 0 1-.3.26c-.32 0-.64-.02-.96-.03-.1 0-.11-.06-.1-.14.09-.67.13-1.34.17-2 .06-1.02.09-2.04.07-3.06-.01-.45-.02-.9-.07-1.36-.01-.14-.07-.25-.21-.29s-.25.02-.34.13c-.33.41-.57.87-.78 1.35-.4.94-.57 1.93-.54 2.96v.1c.03.37.07.41.45.46.13.02.26.04.38.05.08 0 .12.05.11.13-.05.5-.1 1-.14 1.51 0 .1-.05.13-.15.13l-2.06-.03c-.08 0-.12-.02-.12-.11l-.09-1.33v-.08c-.02-.24-.02-.44.23-.61.25-.17.35-.47.36-.78.01-.58 0-1.17.02-1.75.01-.45.04-.9.07-1.36 0-.08.02-.15.01-.23 0-.1-.04-.17-.15-.19-.1-.01-.18.06-.19.18-.02.26-.04.52-.05.77l-.06 1.5c0 .19-.1.3-.26.3s-.27-.11-.27-.29c0-.25.01-.49.02-.74.02-.49.04-.98.08-1.46 0-.06 0-.11-.02-.17a.141.141 0 0 0-.14-.1c-.06 0-.12.02-.15.08-.04.08-.04.16-.05.25-.05.71-.09 1.41-.09 2.12 0 .18-.08.28-.23.3-.18.02-.3-.09-.3-.29.01-.48.03-.95.05-1.43.01-.27.03-.53.05-.8 0-.13-.06-.23-.16-.24-.11-.01-.18.06-.19.2-.02.38-.05.76-.06 1.14v.65h-.05Z"/><path class="cls-17" d="M162.06 119.76c-.01-.47 0-.95.03-1.42.02-.22.04-.44.07-.66-.02.22 0-.05.02-.13.02-.12.04-.25.07-.37.09-.45.2-.89.34-1.33.07-.21.14-.42.22-.62.02-.06.05-.12.07-.17 0 .01-.07.16-.02.05.06-.13.12-.26.18-.38.19-.4.42-.78.67-1.15.06-.08.11-.16.17-.24.03-.04.06-.1.1-.13 0 0-.12.15-.04.06.14-.16.27-.32.41-.48.29-.31.6-.59.92-.86.16-.13-.13.09.04-.03.09-.07.18-.13.27-.19.17-.12.35-.23.53-.33.17-.1.34-.19.52-.27.09-.04.28-.14.08-.04.1-.05.21-.08.31-.12.39-.14.8-.25 1.21-.32.04 0 .08-.01.12-.02.16-.03-.21.02-.05 0 .09 0 .19-.02.28-.02.2-.01.41-.02.61-.01.19 0 .38.02.57.04.13.01-.09-.01-.09-.01.03.02.12.02.16.03l.32.06c.19.04.37.09.55.15l.27.09.15.06c.02 0 .05.02.08.03.08.03.05.02-.08-.03 0 .04.44.22.51.25.18.1.35.2.51.32.08.06.25.16.07.04.08.05.15.12.22.18.15.13.3.27.43.42.06.07.13.14.19.21.17.21-.06-.1.05.06.14.21.28.42.4.64.06.11.12.23.17.34.02.04.04.09.06.13.06.12-.06-.15.02.04.09.24.17.48.25.72.15.51.26 1.02.35 1.54.03.15.05.31.08.46 0 .05.02.11.02.16 0 .04.04.28.01.08.03.28.06.57.08.86.04.61.04 1.22-.03 1.83-.06.58.55 1.13 1.1 1.1.65-.03 1.04-.49 1.1-1.1.12-1.21 0-2.42-.19-3.62-.17-1.07-.43-2.11-.86-3.1-.8-1.86-2.38-3.2-4.29-3.82-3.83-1.26-7.86.88-9.85 4.19-1.23 2.05-1.72 4.49-1.65 6.86.02.58.5 1.13 1.1 1.1s1.12-.49 1.1-1.1ZM157.86 166.35v-2.79l-.42-43.47h.19c.85 0 .85-1.32 0-1.32h-11.6c-.09 0-.16.02-.23.04-.39 0-.62.31-.66.66-.72 6.15-1.41 12.31-2.06 18.46-.66 6.16-1.28 12.32-1.87 18.49-.33 3.47-.65 6.94-.97 10.4-.02.23.12.43.3.55.1.18.28.3.55.3h16.76c.85 0 .85-1.32 0-1.32Z"/><path d="M198.6 166.64c-.17-6.17-.47-12.35-.98-18.5-.5-6.03-1.21-12.04-2.09-18.03-.53-3.61-1.12-7.21-1.76-10.8-.03-.19-.18-.33-.36-.4a.549.549 0 0 0-.52-.31l-9.18.08c.04-1.01-.07-2.03-.23-3.03-.17-1.07-.43-2.11-.86-3.1-.8-1.86-2.38-3.2-4.29-3.82-3.83-1.26-7.86.88-9.85 4.19-1.06 1.78-1.57 3.84-1.65 5.91-.65 0-1.29.01-1.94.02l-7.43.06c-.31 0-.64.19-.65.59a763.984 763.984 0 0 0 .09 37.04c.09 3.47.21 6.93.35 10.4.01.26.17.48.4.57.1.09.23.15.4.15h40.08c.57 0 .73-.63.48-.99Zm-27.69-53.42s-.03.04-.04.05c.01-.02.03-.03.04-.05Zm-1.88 5.57c0-.15 0-.3.02-.45.02-.22.04-.44.07-.66-.02.22 0-.05.02-.13.02-.12.04-.25.07-.37.09-.45.2-.89.34-1.33.07-.21.14-.42.22-.62l.06-.15c.06-.12.11-.25.17-.37.19-.4.42-.78.67-1.15.06-.08.11-.16.17-.24.01-.01.02-.03.03-.05l.03-.03c.14-.16.27-.32.41-.48.29-.31.6-.59.92-.86.01-.01.02-.01.03-.02l.02-.01c.09-.07.18-.13.27-.19.17-.12.35-.23.53-.33.17-.1.34-.19.52-.27l.14-.07c.08-.04.17-.07.25-.1.39-.14.8-.25 1.21-.32.02 0 .05 0 .07-.01.09 0 .19-.02.28-.02.2-.01.41-.02.61-.01.17 0 .33.02.5.03.04 0 .1.01.14.02l.32.06c.19.04.37.09.55.15l.27.09.15.06c.01.05.44.21.5.25.18.1.35.2.51.32.02.02.05.04.08.05.07.05.14.11.2.17.15.13.3.27.43.42.06.07.13.14.19.21.01.02.02.03.03.04 0 0 0 .01.02.03.14.21.28.42.4.64.06.11.12.23.17.34.02.04.04.09.06.13v.01s0 .02.01.03c.09.24.17.48.25.72.15.51.26 1.02.35 1.54.03.15.05.31.08.46 0 .05.02.11.02.16 0 .02.01.08.02.12.03.27.06.54.08.82.03.42.03.84.01 1.26l-2.25.02c-3.41.03-6.82.06-10.22.08Z" style="fill:#fbae5e"/><path class="cls-1" d="M193.44 167.37c.26-2.04.4-4.09.53-6.15.19-3.12.28-6.24.21-9.37-.03-1.39-.08-2.77-.21-4.16-.04-.44-.23-.77-.65-.89-.43-.13-.77.06-1.04.4-1.01 1.25-1.76 2.66-2.38 4.13-1.22 2.9-1.75 5.92-1.67 9.06 0 .1.02.2.03.3.09 1.14.22 1.27 1.37 1.42.39.05.78.12 1.18.16.26.03.37.14.35.41-.15 1.54-.3 3.08-.44 4.62-.01.15-.05.25-.12.31h2.87a.726.726 0 0 1-.01-.26ZM175.42 166.92c-.26-1.95-.42-3.92-.54-5.88-.15-2.44-.21-4.88-.17-7.32 0-.33-.13-.53-.45-.57-.85-.11-1.69-.23-2.54-.31-.81-.08-1.19-.74-.8-1.46.25-.45.53-.89.82-1.33 2.72-4.16 6-7.81 9.89-10.91 1.29-1.03 2.64-1.96 4.04-2.83.77-.48 1.49-.43 2.22.04 1.41.91 2.78 1.9 4.08 2.97.16.13.33.4.56.26.21-.12.14-.41.11-.62-.04-.34.01-.67.02-1 .02-.56.4-.93.97-.89.92.06 1.85.15 2.77.26.04 0 .07.01.1.02-.3-2.42-.62-4.83-.98-7.24-.53-3.61-1.12-7.21-1.76-10.8-.03-.19-.18-.33-.36-.4a.549.549 0 0 0-.52-.31c-4.54.04-9.09.08-13.64.11l-14.37.12-7.43.06c-.31 0-.64.19-.65.59a763.984 763.984 0 0 0 .09 37.04c.09 3.47.21 6.93.35 10.4.01.26.17.48.4.57.1.09.23.15.4.15h17.82c-.24-.13-.39-.38-.43-.71Z"/><path class="cls-1" d="M183.57 167.3c-.08-1.36-.17-2.72-.26-4.08 0-.09-.01-.17-.02-.26-.07-.73-.08-1.36.69-1.88.76-.52 1.08-1.43 1.09-2.39.03-1.79.02-3.57.07-5.36.04-1.39.13-2.77.21-4.16.01-.24.05-.47.04-.7 0-.3-.13-.54-.46-.57-.31-.03-.55.2-.58.54-.06.79-.12 1.58-.16 2.37-.07 1.53-.12 3.07-.18 4.61-.02.57-.31.91-.81.92-.48 0-.82-.34-.82-.9 0-.75.04-1.51.06-2.27.05-1.5.12-3 .25-4.49.02-.18 0-.35-.07-.51-.08-.19-.22-.3-.43-.3-.2 0-.36.06-.45.26-.12.24-.12.5-.14.76-.16 2.16-.28 4.33-.28 6.5 0 .55-.26.87-.72.92-.56.06-.93-.29-.91-.9.04-1.46.09-2.92.16-4.38.04-.82.1-1.63.15-2.45.03-.39-.17-.69-.48-.72-.33-.03-.55.19-.58.62-.08 1.16-.15 2.32-.2 3.49-.03.67-.02 1.34-.02 2.01h-.11c0 1.23-.04 2.46-.02 3.68.01.63-.04 1.26.14 1.88.26.86.76 1.52 1.51 2 .18.12.28.24.28.47.05 1.77.15 3.54.32 5.3.02.19-.04.28-.13.32h3.69-.46c-.25 0-.36-.07-.37-.33Z"/><path class="cls-5" d="M193.63 137.07c-.56-.04-.95.33-.97.89-.01.33-.06.66-.02 1 .02.21.1.5-.11.62-.23.13-.4-.13-.56-.26-1.3-1.07-2.66-2.06-4.08-2.97-.73-.47-1.44-.53-2.22-.04-1.4.87-2.75 1.8-4.04 2.83-3.88 3.1-7.16 6.75-9.89 10.91-.28.43-.57.87-.82 1.33-.39.72 0 1.38.8 1.46.85.09 1.7.2 2.54.31.32.04.45.24.45.57-.04 2.44.02 4.88.17 7.32.12 1.97.28 3.93.54 5.88.04.34.19.58.43.71h4.85c.09-.04.15-.13.13-.32-.18-1.76-.28-3.53-.32-5.3 0-.23-.1-.35-.28-.47a3.535 3.535 0 0 1-1.51-2c-.19-.62-.13-1.26-.14-1.88-.02-1.23 0-2.45.02-3.68h.11c0-.67 0-1.34.02-2.01.05-1.16.12-2.33.2-3.49.03-.43.25-.66.58-.62.31.03.51.33.48.72-.05.82-.11 1.63-.15 2.45-.06 1.46-.12 2.92-.16 4.38-.02.61.36.96.91.9.46-.05.72-.36.72-.92 0-2.17.13-4.34.28-6.5.02-.26.03-.52.14-.76.09-.19.26-.26.45-.26.21 0 .35.11.43.3.06.16.08.33.07.51-.14 1.49-.2 2.99-.25 4.49-.03.75-.06 1.51-.06 2.27 0 .56.34.9.82.9.49 0 .79-.34.81-.92.06-1.54.11-3.07.18-4.61.04-.79.1-1.58.16-2.37.03-.35.27-.58.58-.54.33.04.46.27.46.57 0 .23-.03.47-.04.7-.07 1.39-.17 2.77-.21 4.16-.05 1.79-.04 3.57-.07 5.36-.02.95-.33 1.86-1.09 2.39-.76.52-.75 1.15-.69 1.88 0 .09.01.17.02.26.09 1.36.18 2.72.26 4.08.02.26.13.33.37.33h6.65c.07-.06.11-.16.12-.31.14-1.54.28-3.08.44-4.62.03-.27-.09-.38-.35-.41-.39-.04-.78-.11-1.18-.16-1.15-.15-1.28-.28-1.37-1.42 0-.1-.02-.2-.03-.3-.09-3.14.45-6.16 1.67-9.06.62-1.48 1.37-2.88 2.38-4.13.27-.33.61-.52 1.04-.4s.61.45.65.89c.14 1.38.18 2.77.21 4.16.07 3.13-.02 6.25-.21 9.37-.12 2.05-.26 4.11-.53 6.15-.01.1-.01.19.01.26h4.66c.57 0 .73-.63.48-.99-.17-6.18-.47-12.35-.98-18.5-.3-3.6-.68-7.2-1.11-10.79-.03 0-.07-.02-.1-.02-.92-.11-1.85-.2-2.77-.26Z"/><g id="Cupcake_lines"><path class="cls-14" d="M123.1 23.46c-.22-.15-.5-.22-.75-.28-.3-.08-.6-.15-.9-.22-.3-.07-.62-.19-.93-.17-.67.04-1.04.59-1.14 1.2-.2 1.2-.36 2.41-.54 3.61l-.54 3.64-1.08 7.31c-.04.3-.09.59-.13.89-.02.11-.01.22.02.32-.01.28.16.5.43.61.26.1.52.2.78.31.3.12.65-.13.74-.42.7-2.35 1.39-4.71 2.08-7.06.7-2.36 1.4-4.72 2.09-7.09.09-.3.17-.59.26-.89.08-.26.15-.54.13-.82-.03-.39-.21-.72-.53-.94ZM146.13 33.09c.19-.17.24-.52.09-.73a9.472 9.472 0 0 0-2.94-2.8.575.575 0 0 0-.46-.06c-.16.05-.26.14-.36.28-1.68 2.19-3.35 4.37-5.02 6.56-1.68 2.19-3.35 4.37-5.02 6.56l-.68.89c-.4.49-.79.97-1.19 1.45-.38.46-.76.93-1.13 1.39-.13.16-.3.32-.36.53-.04.17-.04.36 0 .53.07.29.28.59.56.71.25.11.53.11.73-.09 1.99-2.05 4-4.07 6.04-6.07s4.11-3.97 6.2-5.91c1.17-1.09 2.36-2.17 3.54-3.24ZM153.36 54.25c-.02-.19-.08-.35-.24-.47-.14-.11-.35-.18-.52-.11l-5.52 2.22c-1.88.76-3.76 1.51-5.64 2.27-1.03.41-2.06.83-3.09 1.24-.02 0-.04.02-.06.03-.16.06-.3.18-.35.35v.04c-.02.05-.02.1-.02.14-.07.39-.07.77-.01 1.17.02.13.16.3.28.36.15.08.3.09.46.06 2.37-.47 4.72-.98 7.07-1.52 1.18-.27 2.36-.55 3.53-.85.58-.14 1.17-.29 1.75-.44.29-.07.57-.15.86-.22.29-.08.61-.13.87-.28.33-.19.51-.53.56-.9.05-.36.09-.71.11-1.07.04-.68.03-1.36-.03-2.03Zm-1.21 2.01s.04-.03.05-.05v.06c-.02 0-.03 0-.05-.01Z"/></g></g><g id="Outline"><path d="M148.11 159.31c.33.01.97-8.26 1.42-18.48.45-10.22.55-18.51.22-18.53-.33-.01-.97 8.26-1.42 18.48-.45 10.22-.55 18.51-.21 18.53Z" style="fill:#e5a355"/><path class="cls-5" d="M76.06 153.21c.01-.66-16.54-1.51-36.98-1.88-20.43-.37-37.01-.14-37.02.53s16.54 1.51 36.98 1.88c20.43.37 37.01.14 37.02-.53ZM48.7 120.54c.33-.01.5-3.23.5-8.41 0-1.3-.02-2.71-.03-4.24-.01-.76-.03-1.55-.04-2.36 0-.41-.02-.82-.03-1.23 0-.21 0-.42-.01-.63v-.32l-.04-.39a5.628 5.628 0 0 0-1.21-2.99 5.584 5.584 0 0 0-2.8-1.91c-.56-.17-1.16-.26-1.76-.23-.33 0-.52.03-.77.05l-.72.05c-.96.08-1.93.15-2.92.23-.98.08-1.96.16-2.91.24l-1.43.12-.35.03-.18.02-.22.03a5.621 5.621 0 0 0-3.69 2.08c-.35.44-.62.93-.83 1.43-.11.25-.18.51-.25.77l-.08.39-.06.32c-.59 3.37-1.09 6.41-1.48 8.97-.77 5.12-1.08 8.32-.76 8.38.33.06 1.23-3.02 2.43-8.06.6-2.52 1.27-5.53 1.98-8.88l.07-.31.06-.25c.05-.16.1-.32.17-.47.13-.3.31-.59.52-.85.43-.52 1.02-.9 1.68-1.08.16-.04.33-.08.5-.09l.13-.02h.18l.35-.04c.47-.04.95-.07 1.43-.11.96-.08 1.93-.15 2.92-.23.98-.08 1.96-.16 2.91-.24l.72-.06c.22-.02.51-.05.66-.05.35-.02.69.02 1.02.12 1.33.36 2.31 1.59 2.47 2.89l.03.24.02.32c.01.21.03.42.04.63.03.42.05.83.08 1.23.05.81.11 1.59.16 2.35.12 1.52.23 2.93.32 4.22.44 5.16.87 8.35 1.2 8.33ZM100.16 98.24c-.29-.16-2.26 2.96-4.4 6.97-.19.36-.37.71-.55 1.05 0 0 0 .02-.03.01-.23-.32-.45-.64-.66-.94-.23-.31-.44-.61-.65-.89-.41-.56-.79-1.05-1.11-1.45-.65-.8-1.08-1.23-1.19-1.16-.11.07.12.65.59 1.56.24.45.54.99.89 1.59.18.3.37.62.57.95.21.34.44.7.67 1.08.2.32.57.51.94.51.38 0 .75-.21.95-.56.21-.38.42-.78.64-1.18 2.14-4.01 3.63-7.38 3.34-7.54ZM116.71 100.85c-.12-.12-.93.51-2.15 1.61-.61.55-1.32 1.22-2.09 1.98-.38.38-.79.78-1.21 1.2l-.26.26-.06-.09-.13-.19c-2.88-4.09-5.43-7.26-5.7-7.06-.27.19 1.84 3.66 4.72 7.76l.13.19.07.1c.04.06.09.13.14.18.2.23.5.35.79.36.29 0 .59-.1.8-.3.12-.13.24-.25.36-.38l1.16-1.25c.73-.8 1.38-1.53 1.91-2.16 1.06-1.26 1.66-2.09 1.54-2.2ZM76.36 137.27c.66.04 1.33-2 1.49-4.56.16-2.56-.25-4.67-.91-4.71-.66-.04-1.33 2-1.49 4.56-.16 2.56.25 4.67.91 4.71ZM136.84 138.4c0-.3-1.24-.7-3.3-.45-2.03.24-4.86 1.23-7.26 3.38-.47.41-.89.85-1.29 1.31l-.28.34-.14.17-.06.08-.02.03-.12.21c-.05.01.14 0-.37.04-.35.04-.69.12-1 .24-.62.24-1.14.61-1.54 1.05-.4.44-.67.96-.8 1.46-.13.49-.14.95-.09 1.36.11.81.46 1.36.76 1.65.3.3.55.36.64.27.22-.18-.16-.89.03-1.93.1-.52.35-1.05.83-1.41.24-.18.54-.33.86-.41.16-.04.33-.06.49-.06h.12s.2 0 .31.03l.79.15c.27-.35.55-.7.83-1.06l.11-.14.07-.08.13-.14.25-.28c.35-.37.71-.74 1.11-1.09 2.03-1.82 4.32-2.9 6.04-3.52 1.73-.63 2.91-.85 2.91-1.21Z"/><path class="cls-5" d="M123.71 125.61c-.66.11-.55 3.96.23 8.59s1.95 8.3 2.6 8.19.55-3.96-.23-8.59-1.95-8.3-2.6-8.19ZM170.51 126.11c.08-.02.14-.09.17-.24a.835.835 0 0 0-.25-.62c-.44-.45-1.25-.64-2.13-.39-.21.06-.5.19-.65.27-.17.09-.34.18-.52.27-.32.17-.65.3-.78.28-.06 0-.07-.02-.09-.04l-.1-.12c-.14-.16-.35-.59-.67-1.12-.17-.26-.38-.56-.68-.83a2.8 2.8 0 0 0-1.1-.62c-.81-.22-1.54-.08-2.12.17-.58.25-1.05.63-1.4 1.07-.32.42-.51.84-.64 1.22-.25.76-.25 1.36-.22 1.77.04.41.15.65.31.69.16.04.36-.13.6-.45.23-.32.5-.8.84-1.26.17-.23.37-.45.59-.62.19-.15.44-.27.7-.34.26-.07.51-.05.65 0 .07.03.11.06.17.12.07.07.16.19.27.36.23.34.45.85.96 1.42.26.28.64.56 1.07.69.42.14.89.15 1.26.06.76-.19 1.16-.54 1.5-.81.17-.14.31-.27.44-.38.15-.13.17-.17.27-.24.38-.27.77-.37.97-.4.22-.04.43.12.59.08Z"/><path class="cls-18" d="M21.93 108.31c0-.33-2.65-.55-5.91-.49-3.26.06-5.9.38-5.89.71 0 .33 2.65.55 5.91.49 3.26-.06 5.9-.38 5.89-.71ZM21.75 113.35c0-.33-2.65-.55-5.91-.49-3.26.06-5.9.38-5.89.71 0 .33 2.65.55 5.91.49 3.26-.06 5.9-.38 5.89-.71ZM65.38 108.09c0-.33-2.65-.55-5.91-.49-3.26.06-5.9.38-5.89.71 0 .33 2.65.55 5.91.49 3.26-.06 5.9-.38 5.89-.71ZM65.96 113.95c0-.33-2.65-.55-5.91-.49-3.26.06-5.9.38-5.89.71 0 .33 2.65.55 5.91.49 3.26-.06 5.9-.38 5.89-.71ZM37.54 158.88c-.02.09.19.19.5.39s.72.55 1.04 1.08c.31.53.49 1.26.22 1.97-.24.71-.93 1.39-1.74 1.52-.8.13-1.66-.33-2.07-.93-.44-.6-.41-1.33-.18-1.89.23-.57.6-.94.89-1.15.29-.22.5-.31.48-.4 0-.07-.26-.14-.69-.02-.42.12-1.02.48-1.45 1.19-.21.35-.37.8-.4 1.31-.03.51.1 1.08.41 1.57.59.97 1.81 1.72 3.19 1.52 1.37-.24 2.3-1.3 2.61-2.38.16-.54.15-1.11.03-1.59-.13-.48-.36-.88-.61-1.2-.52-.63-1.13-.92-1.55-1.02-.43-.1-.67-.04-.68.04Z"/><path class="cls-4" d="M95.15 94.6c1.96 4.11 3.11 8.61 3.38 13.15.12 2.09.13 4.28-.25 6.31-.33 1.75-1 3.54-2.46 4.65-.35.26-.79.5-1.21.55-.21.02-.4 0-.59-.06.09.03-.09-.05-.13-.08.08.06 0 0-.02-.02-.05-.04-.09-.09-.13-.14.06.07-.06-.09-.08-.13-.06-.11-.03-.05-.01-.02-.02-.04-.03-.08-.04-.12 0 0-.04-.19-.03-.09.01.08 0-.04 0-.06v-.06c0 .09.02-.07.02-.09.04-.17-.04.05.01-.03 0-.02.08-.11.04-.06-.05.06.07-.03.02-.02-.05.02.09-.05.05-.04a.82.82 0 0 1 .49-.04c.76.13 1.41.7 1.8 1.34.42.69.58 1.43.51 2.25-.01.12.01-.08 0 .04 0 .05-.02.1-.03.15-.02.1-.04.19-.07.29-.06.23-.12.39-.21.57-.2.4-.43.74-.73 1.05-.59.62-1.33 1.08-2.14 1.34-.45.14-.92.25-1.39.21-.18-.02-.38-.07-.53-.18-.07-.05-.06-.03-.14-.13.04.06-.11-.22-.08-.14-.02-.04-.03-.09-.04-.14v-.17c0 .04-.01.1.02-.02 0 .04-.05.07.02-.03-.05.07.03-.03.04-.04.06-.04.14-.08.22-.11.38-.13.73-.1 1.12.01.76.23 1.41.84 1.71 1.62.36.95.3 2 .04 2.97-.23.87-.61 1.73-1.21 2.41-.3.34-.63.61-1.03.83-.31.17-.77.31-1.09.34-.79.08-1.56-.09-2.08-.64-.11-.12-.21-.26-.23-.39 0 .04.03-.09 0-.05l-.06.11c0-.04.16-.06.23-.08.3-.06.74.01 1.03.14.74.32 1.29 1 1.49 1.75s-.02 1.6-.48 2.31c-1.01 1.56-3.18 2.49-5.03 1.99-.81-.22-1.56-.75-1.97-1.48-.1-.18-.16-.31-.21-.51a.71.71 0 0 1-.04-.24c0-.1 0-.18.03-.22.08-.17.05-.07.03-.05.13-.14 0 0 0-.02 0-.03.09-.04 0-.01.04-.01.08-.02.11-.03-.13.03 0 0 .03 0 .11 0-.1-.02 0 0 .04 0 .26.08.18.05.33.15.56.37.68.67.15.38.2.84.14 1.28-.1.84-.59 1.65-1.26 2.22-.74.63-1.69.96-2.63 1.12-.43.07-.86.09-1.29.07-.39-.02-.72-.08-1.14-.2-.4-.12-.66-.23-1.02-.46-.08-.05-.15-.1-.23-.16.08.06-.04-.03-.05-.05-.03-.03-.07-.06-.1-.09-.17-.16-.23-.23-.33-.38-.2-.3-.3-.59-.3-.92 0-.06 0-.12.01-.18 0 .04-.02.08.01-.04.03-.11.03-.11.06-.17.05-.1.05-.09.1-.15.06-.06.05-.05.14-.08.02 0 .13-.02.03-.01h.14c-.13-.02.17.06.07.02.21.08.32.19.46.36.22.27.32.63.33.98.02.79-.36 1.56-.92 2.17a5.505 5.505 0 0 1-2.79 1.6c-.23.05-.37.08-.56.09-.2.02-.4.03-.6.02-.17 0-.49-.03-.56-.04-.42-.07-.77-.18-1.07-.35s-.53-.37-.7-.65c-.1-.16-.16-.3-.17-.48l.02-.03c0 .05.06-.04.01-.02-.06.04.08-.05.09-.06.11-.06.05-.02.02-.01.05-.02.11-.03.16-.04.11-.02-.09 0 .02 0h.13c-.03 0 .08.02.1.03.04.02.12.08.18.14.21.22.28.57.26.91-.04.51-.29 1.01-.51 1.46l1.21.51.26-.76c.11-.34-.13-.72-.46-.81-.36-.1-.7.12-.81.46l-.26.76c-.24.7.88 1.19 1.21.51s.64-1.37.69-2.13c.04-.63-.17-1.28-.57-1.76s-1.06-.72-1.7-.62c-.58.09-1.13.49-1.32 1.06-.37 1.16.73 2.34 1.7 2.79 1.04.48 2.2.54 3.31.34 2.17-.38 4.51-2.09 4.88-4.38.19-1.21-.19-2.62-1.38-3.19-.63-.3-1.33-.26-1.88.18-.46.38-.68.98-.68 1.57-.01 1.12.7 2.1 1.6 2.7s2.03.87 3.11.89c2.5.05 5.18-1.22 6.06-3.68.41-1.14.36-2.6-.45-3.55-.74-.87-2.27-1.27-2.96-.12-.7 1.15.21 2.64 1.07 3.4 1 .88 2.32 1.29 3.65 1.2 2.43-.18 5.01-1.89 5.44-4.42a3.92 3.92 0 0 0-1.02-3.39c-.82-.87-2.07-1.38-3.26-1.09-.75.18-1.21.86-1.03 1.62.15.63.64 1.12 1.17 1.46.97.62 2.27.71 3.36.38 2.44-.75 3.75-3.45 3.91-5.83.09-1.32-.25-2.69-1.17-3.67-.83-.88-2.06-1.37-3.26-1.17-.67.11-1.31.49-1.52 1.17-.19.61.03 1.29.45 1.75.9 1.01 2.53.76 3.66.34 2.15-.82 4-2.82 3.86-5.24-.06-1.13-.51-2.23-1.29-3.07s-2.07-1.52-3.2-1.12c-1.29.45-1.36 1.99-.56 2.92.91 1.05 2.51.74 3.54.06 2.01-1.34 2.94-3.74 3.3-6.04.41-2.62.35-5.34.07-7.96-.3-2.79-.91-5.55-1.84-8.21-.45-1.3-.98-2.57-1.57-3.82-.15-.32-.62-.41-.9-.24-.33.19-.39.58-.24.9v.02Z"/></g></svg>