<?xml version="1.0" encoding="UTF-8"?>
<svg xmlns="http://www.w3.org/2000/svg" viewBox="0 0 200 200">
  <defs>
    <style>
      .cls-1 {
        fill: #f96800;
      }

      .cls-2 {
        fill: #f2a6b0;
      }

      .cls-3 {
        fill: #f6c243;
      }

      .cls-4 {
        fill: #f75e28;
      }

      .cls-5 {
        fill: #e4c7bd;
      }

      .cls-6 {
        fill: #edeceb;
      }

      .cls-7 {
        fill: #fff;
      }

      .cls-8 {
        fill: #ffc101;
      }

      .cls-9 {
        fill: #e5a355;
      }

      .cls-10 {
        fill: #efedea;
      }

      .cls-11 {
        fill: #e5b342;
      }

      .cls-12 {
        fill: #ff8000;
      }

      .cls-13 {
        fill: #c1dade;
      }

      .cls-14 {
        fill: #b7957e;
      }

      .cls-15 {
        fill: #a84902;
      }

      .cls-16 {
        fill: #afcbcd;
      }

      .cls-17 {
        fill: #bf9dd6;
      }

      .cls-18 {
        fill: #d6e8ea;
      }

      .cls-19 {
        fill: #c64528;
      }

      .cls-20 {
        fill: #cc5e05;
      }

      .cls-21 {
        fill: #e2ded9;
      }

      .cls-22 {
        fill: #5b3d5b;
      }

      .cls-23 {
        fill: #78577a;
      }
    </style>
  </defs>
  <g id="BG_Strong">
    <g>
      <path class="cls-10" d="m113.59,49.44s-.03.03-.03.05c.02-.01.03-.03.03-.05Z"/>
      <path class="cls-10" d="m34.88,20.84s.06-.05.08-.08c-.05.04-.08.06-.08.08Z"/>
      <path class="cls-10" d="m103.05,52.12c.05-.01.11-.03.18-.04-.06.01-.12.03-.18.04Z"/>
      <path class="cls-10" d="m16.54,108.52c0-.11,0-.21-.02-.29,0,.1,0,.2.02.29Z"/>
      <path class="cls-10" d="m18.94,116.17c-.01-.08-.02-.16-.03-.24,0,.08,0,.16.03.24Z"/>
      <path class="cls-10" d="m18.91,115.93c0-.07,0-.14-.04-.22l.04.22Z"/>
      <path class="cls-10" d="m11.75,45.91s-.05.07-.07.13c.03-.05.05-.09.07-.13Z"/>
      <path class="cls-10" d="m20.41,123.83v-.17s0,.1,0,.17Z"/>
      <path class="cls-10" d="m19.14,119.61c-.02-.06-.04-.1-.06-.13.01.03.03.07.06.13Z"/>
      <path class="cls-10" d="m160.87,164.28c-.19,0-.36,0-.5.02.17,0,.34,0,.5-.02Z"/>
      <path class="cls-10" d="m184.54,153.11c.06-.05.13-.11.22-.19l-.22.19Z"/>
      <path class="cls-10" d="m179.17,157.98c-.09.06-.15.11-.18.15.04-.03.1-.09.18-.15Z"/>
      <path class="cls-10" d="m174.46,97.2c-1.09-.15-1.97.05-2.65.48-4.09-.72-8.35-.58-12.61-.61-6.56-.05-12.04-1.59-15.45-7.01,0-.02,0-.04,0-.06.3-12.96-3.53-29.87-13.59-38.97-5.41-4.89-14.06-3.07-20.68-2.58-7.88.58-15.13,2.5-22.82,3.93-8.03,1.49-9.82-8.77-12.2-14.38-2.47-5.84-5.86-11.5-10.61-15.78-10.22-9.19-25.07-10.18-36.99-3.65C-.86,33.78,3.05,70.08,7.4,96.25c2.65,15.95,6.08,32.15,11.47,47.43,2.23,6.33,4.97,13.65,9.87,18.45,4.62,4.52,11.89,5.2,17.94,6.45,15.95,3.28,31.55,2.71,47.71,1.89,17.01-.86,34.02-1.72,51.02-2.58,12.72-.64,27.7-.68,37.58-9.73,6.07-3.95,10.51-10.38,12.52-17.27,4.59-15.68-2.47-41.2-21.03-43.68Z"/>
    </g>
  </g>
  <g id="Outline">
    <path class="cls-7" d="m157.69,72.88c-3.64-2.2-7.37-4.22-11.14-6.18-1.89-.98-3.78-1.95-5.68-2.91-1.26-.64-2.51-1.29-3.78-1.91-.01,0-.02-.02-.03-.03-1.18-.65-2.43-1.18-3.72-1.58-.17-.06-.34-.11-.51-.16-.02,0-.04-.01-.06-.02,0,0-.02,0-.03,0-.69-.2-1.39-.36-2.1-.46-.61-.32-1.26-.58-1.92-.78-2.78-.88-5.71-1.37-8.59-1.82-3-.47-6.01-.82-9.03-1.16-2.17-.24-4.34-.59-6.52-.7-1.65-.08-3.3-.08-4.95-.07-3.74.02-7.48.13-11.23.22-1.53.04-3.07.03-4.6.07-3.04.09-6.08.42-9.07,1.01-1.47.29-2.93.65-4.36,1.08-.37.11-.73.23-1.1.36-.2.03-.41.06-.61.1-1.37.23-2.73.54-4.08.89-2.68.71-5.33,1.6-7.83,2.81-5.63,2.73-11.22,5.62-16.22,9.41-.64.48-1.27.98-1.89,1.49-.28.23-.24.72,0,.96.28.28.67.23.96,0l20.33,20.34c-.21.21-.26.56-.11.81.19.33.6.41.92.24.52-.27,1.03-.54,1.55-.82-.07,2.8-.29,5.58-.56,8.36-.15,1.46-.31,2.92-.48,4.38-.04.36.34.68.68.68.4,0,.63-.31.68-.68.11-.97.21-1.94.32-2.92,0,1.72-.02,2.92-.02,2.92l1.57-4.7s2.63-6.66,3.15-8.09c.14-.4.68-1.88,1.45-3.95,2.6-1.72,5.05-3.63,7.36-5.72,2.09-1.9,4.14-3.94,5.45-6.47.72-1.39,1.2-2.9,1.52-4.43.32-1.56.45-3.17.27-4.76-.18-1.66-.62-3.34-1.42-4.81-.28-.52-.62-1-.98-1.47,1.61-2.52,3.1-4.63,3.84-5.66.5,0,1.01-.02,1.51-.03,3.4-.06,6.79-.17,10.19-.22,1.84-.03,3.69-.05,5.53-.02,1.34.02,2.69.05,4.03.21,1.89.23,3.79.44,5.68.65,1.21,1.57,4.09,6.86,5.32,9.76.25.59.55,1.42.88,2.39-.45,2.83-.04,5.84,1.07,8.49.58,1.38,1.36,2.67,2.25,3.88.24.34.5.67.76.99,1.04,3.24,3.62,11.13,4.62,13.1.95,1.87,3.58,7.44,4.85,10.14,0,.15-.02.3-.03.45-.02.39.24.59.54.63.13.27.2.42.2.42,0,0,0-.16-.02-.41.31-.03.62-.24.64-.64.18-4.41.73-8.8,1.33-13.17.92.84,1.51,1.37,1.51,1.37l8.4-8.15,12.62-12.54s.02.01.03.02c.75.45,1.43-.72.68-1.17Z"/>
    <path class="cls-3" d="m138,170.99c-.05-4.58-.2-9.16-.41-13.74-.24-5.2-.55-10.39-.93-15.58-.39-5.42-.84-10.83-1.36-16.24-.51-5.33-1.09-10.65-1.74-15.96-.08-.63-.16-1.26-.24-1.89,0-.02-.01-.04-.02-.06,0-.09-.03-.19-.08-.28-2.17-4.47-4.23-9-6.11-13.6-1.82-4.46-3.47-8.99-4.92-13.57-.85-2.69-1.64-5.4-2.38-8.13-.15-.54-.73-.58-1.08-.32-.88-2.81-1.58-4.98-1.8-5.53-.63-1.53-3.12-6.37-3.12-6.37l-.17,4.66,2.38,5.15,2.46,8.55c-5.49-.34-10.99-.66-16.49-.86-5.59-.2-11.19-.28-16.78-.09-3.08.11-6.19.13-9.25.55.91-2.05,4.11-9.27,4.56-9.93.52-.77,3-5.72,3-5.72l.28-3.65-1.09,1.81s-4.12,6.67-4.81,7.97c-.69,1.3-3.26,6.93-4.36,9.54-.01.03-.03.08-.05.12-.29-.11-.7-.04-.83.27-1.52,3.58-2.76,7.27-4.01,10.95-1.37,3.99-2.74,7.99-4.38,11.88-.91,2.15-1.9,4.27-3.02,6.31-.24.45.06.86.43.98-.53,4.93-2.31,21.34-2.33,21.51-.02.21-1.15,13.86-1.45,15.51-.3,1.65-1.52,36.67-1.53,37.5h80.96s0-.08,0-.21c.26-.07.49-.27.51-.62.2-3.64.21-7.29.18-10.93Z"/>
    <path class="cls-11" d="m75.77,141.21c.17,6.02.44,12.2.79,18.34.05.92.55,1.69,1.36,2.1.38.19.8.29,1.22.29.5,0,.99-.14,1.4-.41.69-.45,1.06-1.22,1.01-2.1-1.23-21.4-1.35-43.02-.34-64.27.28-5.88.65-11.92,1.11-17.94-1.68.05-3.36.14-5.03.32-1.6,21.19-2.12,42.61-1.53,63.67Z"/>
    <path class="cls-11" d="m91.06,163.03h.04c1.41-.02,2.46-1.08,2.45-2.46l-1.09-83.54c-1.67,0-3.33.01-5,.05l1.09,83.52c.02,1.39,1.1,2.44,2.52,2.44Z"/>
    <path class="cls-11" d="m99.74,143.43c.15,6.29.33,12.76.55,19.23.03.92.5,1.68,1.29,2.1.39.21.83.31,1.26.31.48,0,.96-.13,1.37-.38.72-.45,1.11-1.21,1.08-2.1-.76-22.51-1.1-45.27-1.01-67.64.02-5.72.08-11.64.16-17.63-.81-.03-1.62-.08-2.43-.11-.85-.03-1.71-.05-2.56-.08-.31,22.1-.21,44.39.29,66.28Z"/>
    <path class="cls-11" d="m115.6,166.99h.02c1.42-.01,2.48-1.07,2.46-2.46l-.73-86.52c-1.67-.1-3.33-.2-5-.29l.73,86.83c.01,1.4,1.09,2.44,2.51,2.44Z"/>
    <path class="cls-11" d="m63.78,159.52c.03,1.59,1.32,2.43,2.53,2.43h.05c1.22-.03,2.44-.88,2.41-2.47-.39-18.79-.21-37.76.52-56.39.21-5.28.47-10.71.77-16.13h0c.03-.47-.07-.89-.26-1.26-.39,1.12-.77,2.23-1.15,3.35-1.33,3.88-2.67,7.77-4.25,11.55-.59,14.28-.87,28.6-.82,42.73.02,5.31.09,10.76.2,16.18Z"/>
    <path class="cls-11" d="m126.51,110.66c-.61,8.92-.87,18.65-.81,30.62.03,5.85.12,11.66.21,17.28.02,1.39,1.1,2.43,2.52,2.43.02,0,.03,0,.05,0,1.41-.02,2.45-1.08,2.43-2.46-.16-10.18-.33-20.71-.12-31.05.12-5.71.49-11.5.85-17.11.12-1.88.24-3.8.36-5.72-1.59-3.37-3.12-6.78-4.54-10.22-.08,4.2-.38,8.4-.68,12.53-.09,1.24-.18,2.47-.27,3.7Z"/>
    <ellipse class="cls-12" cx="96.48" cy="194.1" rx="38.37" ry="2.9"/>
    <path class="cls-13" d="m19.45,169.98c-1.13-1.53-2.31-3.01-3.55-4.45-.62-.72-1.25-1.43-1.89-2.12-.61-.66-1.21-1.35-1.88-1.94-.71-.62-1.69-1.08-2.64-.74-.83.3-1.29,1.09-1.36,1.95-.07.88.35,1.67.88,2.33.54.69,1.2,1.3,1.84,1.9,1.49,1.4,3.13,2.65,4.85,3.75.34.22.67.07.85-.18l1.52-.1c.07.1.15.19.22.29.22.29.59.44.92.24.29-.17.46-.63.24-.92Z"/>
    <path class="cls-13" d="m178.88,160.41c.35-.53.27-1.26.28-1.87.02-1.44-.02-2.87-.12-4.31,0-.02-.01-.04-.01-.06,0-.04-.02-.09-.03-.13,0-.03-.01-.06-.03-.08,0-.02,0-.05-.02-.07-.87-1.68-2.88-2.36-4.61-2.72-2.13-.44-4.42-.39-6.47.4-1.07.41-2.28.99-2.8,2.07-.02.05-.03.11-.05.16-.05.09-.09.2-.1.33-.03,1.32-.06,2.64-.09,3.97-.01.61-.08,1.25-.03,1.86.05.53.39.93.83,1.03.1.06.21.11.35.11.1,0,.2,0,.3,0,.16,4.77.13,9.55.13,14.32,0,1.23,0,2.47,0,3.7-.14.19-.28.38-.41.58-.13.18-.28.36-.39.56-.28.52-.23,1.11.13,1.58.3.39.73.62,1.21.69.43.06.85.07,1.28.06,0,0,0,0,0,0h7.61c.49,0,.96,0,1.44-.07.5-.08.93-.34,1.22-.75.33-.45.34-1.03.08-1.51-.11-.2-.26-.38-.39-.56-.14-.2-.28-.4-.43-.59-.01-.02-.03-.03-.05-.05.02-4.84-.16-9.68-.21-14.51-.01-1.14-.02-2.29,0-3.43.53-.06,1.05-.24,1.36-.71Z"/>
    <path class="cls-2" d="m40.06,170.22c-.07-.25-.28-.46-.62-.46H12.17c-.34,0-.54.21-.62.46-.06.12-.08.27-.03.44.47,1.8,1.03,3.57,1.7,5.31.34.88.7,1.75,1.08,2.61.32.71.64,1.42,1.11,2.04.52.7,1.15,1.23,1.96,1.56.79.32,1.66.4,2.5.43,1.14.04,2.29.03,3.43.04,1.21.01,2.43.02,3.64.04.01,0,.02,0,.03,0,.03,0,.05,0,.08,0,.04,0,.07,0,.11,0,.02,0,.03,0,.05,0,1.36-.02,2.72-.04,4.08-.07,1.26-.02,2.61-.09,3.69-.8,1.01-.67,1.64-1.72,2.14-2.8.59-1.28,1.12-2.58,1.6-3.9.53-1.46.99-2.95,1.38-4.46.04-.17.03-.32-.03-.44Z"/>
    <path class="cls-5" d="m138.94,91.83s11.5-11.45,11.59-11.57,4.58-4.38,4.58-4.38c0,0,7.54,6.27,9.68,8.26,2.14,1.99,4.66,4.6,5.09,5.86s.42,4.18-1.16,5.03c-1.58.85-7.08,1.84-9.45,1.64-2.37-.19-10.65-1.44-12.03-1.96-1.38-.52-8.3-2.89-8.3-2.89Z"/>
    <path class="cls-7" d="m156.88,72.99c-2.8,2.77-5.58,5.55-8.35,8.35-2.7,2.72-5.4,5.45-8.11,8.16-1.6,1.6-3.2,3.2-4.81,4.79-.62.61.34,1.57.96.96,2.8-2.77,5.58-5.55,8.35-8.35,2.7-2.72,5.4-5.45,8.11-8.16,1.6-1.6,3.2-3.2,4.81-4.79.62-.61-.34-1.57-.96-.96h0Z"/>
    <path class="cls-22" d="m146.69,93.74c-2.7-.76-5.36-1.67-7.96-2.72-.34-.14-.74.15-.83.47-.11.39.13.69.47.83,2.6,1.05,5.26,1.95,7.96,2.72.84.24,1.2-1.07.36-1.3h0Z"/>
    <path class="cls-22" d="m144.53,94.53c4.8,1.8,9.88,2.47,14.96,2.84,2.52.18,5.13.14,7.53-.72,1.98-.71,3.9-2.12,4.04-4.39.08-1.36-.53-2.65-1.27-3.74s-1.63-2.17-2.61-3.09c-.63-.59-1.59.36-.96.96.81.75,1.53,1.59,2.17,2.49.58.82,1.15,1.71,1.29,2.72.27,1.92-1.33,3.13-2.95,3.72-2.23.82-4.63.88-6.97.72-2.41-.16-4.83-.37-7.22-.79-2.6-.45-5.18-1.1-7.66-2.03-.34-.13-.74.14-.83.47-.1.38.13.7.47.83h0Z"/>
    <path class="cls-5" d="m41.18,75.05s-4.09,3.3-5.7,4.77c-1.61,1.46-4.32,4.08-5.4,5.66s-2.03,2.7-2.62,4.62-1.22,3-.66,4.63c.57,1.63.41,2.79,1.98,3.59,1.57.8,4.97,1.38,7.92.8,2.95-.57,10.77-2.76,13.06-3.48s8.95-3,8.95-3l-17.54-17.59Z"/>
    <path class="cls-7" d="m38.65,73.5c2.8,2.77,5.58,5.55,8.35,8.35,2.7,2.72,5.4,5.45,8.11,8.16,1.6,1.6,3.2,3.2,4.81,4.79.62.61,1.57-.34.96-.96-2.8-2.77-5.58-5.55-8.35-8.35s-5.4-5.45-8.11-8.16c-1.6-1.6-3.2-3.2-4.81-4.79-.62-.61-1.57.34-.96.96h0Z"/>
    <path class="cls-22" d="m40.78,74.51c-2.15,1.75-4.31,3.5-6.37,5.36-2.02,1.82-3.93,3.8-5.47,6.04-.83,1.2-1.48,2.5-2.05,3.84-.14.33-.1.72.24.92.28.17.78.09.92-.24.51-1.18,1.07-2.35,1.78-3.43s1.51-2.09,2.38-3.05c1.79-1.99,3.82-3.75,5.88-5.47,1.22-1.01,2.43-2.02,3.66-3.02.28-.23.24-.72,0-.96-.28-.28-.67-.23-.96,0h0Z"/>
    <path class="cls-22" d="m54.68,94.82c1.47-.47,2.93-1,4.36-1.57.33-.13.59-.46.47-.83-.1-.32-.48-.61-.83-.47-1.43.58-2.89,1.1-4.36,1.57-.34.11-.59.47-.47.83.11.34.47.59.83.47h0Z"/>
    <path class="cls-22" d="m26.81,89.91c-.48,1.29-.88,2.68-.78,4.08.09,1.23.54,2.36,1.13,3.43,1.19,2.16,3.76,2.78,6.06,2.76,1.02-.01,2.04-.16,3.05-.31s1.92-.31,2.88-.52c2.09-.44,4.14-1.02,6.19-1.63,3.13-.93,6.23-1.94,9.35-2.9.83-.26.47-1.56-.36-1.3-2.76.86-5.52,1.74-8.29,2.58-2.05.62-4.11,1.23-6.19,1.72-.92.22-1.84.41-2.77.57-.47.08-.94.15-1.41.22-.04,0-.08.01-.12.02.15-.02-.05,0-.07,0-.1.01-.21.03-.31.04-.25.03-.5.06-.75.08-.49.05-.97.08-1.46.07-.25,0-.51-.01-.76-.03-.31-.02-.4-.04-.67-.08s-.51-.1-.77-.17c-.24-.07-.58-.19-.7-.25-.49-.23-.84-.46-1.18-.8-.4-.4-.7-1-.96-1.59-.1-.23-.18-.43-.27-.72s-.16-.58-.21-.88c-.04-.22.01.13-.01-.1,0-.07-.01-.14-.02-.21-.01-.17-.02-.34-.01-.5,0-.29.03-.59.07-.82.13-.82.39-1.61.68-2.39.13-.34-.14-.74-.47-.83-.38-.1-.7.13-.83.47h0Z"/>
    <path class="cls-7" d="m76.14,77.7s2.49-5.19,3.18-6.92,4.21-8.75,4.21-8.75l4.22-6.53,23.87,1.39s3.74,11,4.67,13.38c.93,2.38,2.38,8.41,2.38,8.41,0,0-14.04-1.1-17.58-.82-3.53.28-20.98.26-21.14.22s-2.61.09-2.61.09l-1.21-.47Z"/>
    <path class="cls-3" d="m61.15,107.58c-.58,5.31-1.12,10.63-1.64,15.95s-1.04,11-1.5,16.5c-.45,5.29-.86,10.58-1.23,15.87-.32,4.68-.61,9.37-.82,14.06-.16,3.63-.29,7.26-.26,10.89,0,.35,0,.71.01,1.06.01.87,1.37.87,1.35,0-.06-3.49.05-6.98.19-10.47.18-4.57.45-9.13.76-13.7.35-5.24.75-10.48,1.19-15.71.46-5.52.95-11.04,1.48-16.55.51-5.35,1.05-10.69,1.63-16.03.07-.62.13-1.25.2-1.87.04-.36-.34-.68-.68-.68-.4,0-.64.31-.68.68h0Z"/>
    <path class="cls-3" d="m76.38,78.41c1.3-3.1,2.69-6.15,4.16-9.17,1.43-2.92,2.89-5.85,4.58-8.63.89-1.47,1.88-2.86,3.11-4.06.62-.61-.33-1.56-.96-.96-2.28,2.23-3.81,5.09-5.29,7.88-1.61,3.01-3.12,6.08-4.54,9.18-.82,1.79-1.6,3.59-2.36,5.4-.14.34.15.74.47.83.39.11.69-.13.83-.47h0Z"/>
    <path class="cls-3" d="m109.29,55.84c3.05,5.63,5.51,11.57,7.33,17.71.52,1.76.99,3.53,1.4,5.31.08.36.49.57.83.47.36-.1.55-.47.47-.83-1.48-6.35-3.63-12.54-6.39-18.44-.78-1.66-1.6-3.29-2.48-4.9-.41-.76-1.58-.08-1.17.68h0Z"/>
    <path class="cls-3" d="m86.19,54.74c-2.33,2.6-4.4,5.43-6.23,8.4-1.83,2.98-3.43,6.11-4.87,9.29-.87,1.92-1.7,3.87-2.49,5.82-.14.34.15.74.47.83.39.11.69-.13.83-.47,1.34-3.3,2.77-6.56,4.4-9.73s3.29-5.96,5.27-8.73c1.11-1.55,2.31-3.04,3.58-4.46.24-.27.27-.69,0-.96-.25-.25-.71-.27-.96,0h0Z"/>
    <path class="cls-3" d="m110.94,56.31c3.61,5.38,6.23,11.35,8.07,17.56.52,1.76.98,3.53,1.4,5.31.08.36.49.57.83.47.36-.1.55-.47.47-.83-1.47-6.38-3.61-12.64-6.73-18.42-.88-1.64-1.84-3.23-2.88-4.78-.2-.3-.6-.43-.92-.24-.3.18-.45.62-.24.92h0Z"/>
    <path class="cls-5" d="m148.19,111.51c-1.64-.05-10.11-1.05-13.43-1.64-1.41-.25-6.62-2.44-7.05-3.16s-2.56-3.44-1.82-5.69,2.35-3.41,3.69-3.29,3.58,1.56,5.96,1.09c2.38-.47,7.27-2.04,8.63-2.9,1.37-.86,5.31-4.01,7.23-5.43,1.92-1.42,4.68-3.47,6.97-3.98s5.54-.72,7.1-.08c1.56.64,3.85,2.27,4.18,2.6s1.36.98,1.36.98c0,0,1.79.39,1.92,1.16s-.01,1.97-.39,2.44-.9,1.73-.85,3.2c.05,1.47-1.02,6.05-3.41,8.11-2.39,2.06-3.87,3.19-6.75,4.1s-11.24,2.55-13.36,2.49Z"/>
    <path class="cls-18" d="m140.66,110.91s-7.59-1.28-8.98-1.92c-1.39-.64-3.85-2.33-4.54-3.17s-1.64-2.71-1.38-4.09.72-3.06,2.28-3.53,3-.38,4.16.15,3.53.66,4.32.45,1.4-.44,1.43-.44,1.74,2.26,2.18,3.81c.44,1.55.88,4.54.8,5.72-.08,1.18-.26,3.03-.26,3.03Z"/>
    <path class="cls-18" d="m131.16,98.75c2.18,1.19,4.68.74,6.99.24.36-.08.56-.49.47-.83-.1-.37-.47-.55-.83-.47-1.92.42-4.12.89-5.95-.11-.76-.42-1.45.75-.68,1.17h0Z"/>
    <path class="cls-18" d="m140.84,110.26c-.86-.13-1.72-.28-2.57-.45-.35-.07-.75.1-.83.47-.08.34.1.76.47.83.85.17,1.71.32,2.57.45.19.03.35.03.52-.07.14-.08.27-.24.31-.4.07-.32-.1-.77-.47-.83h0Z"/>
    <path class="cls-22" d="m172.95,90.04c-.6-.52-1.35-.71-2.12-.67-.61-.87-1.35-1.65-2.09-2.41-1.09-1.11-2.23-2.17-3.38-3.21-2.44-2.21-4.95-4.33-7.48-6.44-1.03-.86-2.06-1.71-3.09-2.56-.28-.23-.68-.28-.96,0-.24.24-.28.72,0,.96,2.08,1.72,4.16,3.44,6.21,5.19,1.87,1.59,3.74,3.2,5.53,4.88-.18-.05-.35-.11-.53-.16-2.43-.62-4.98-.42-7.33.43-2.3.82-4.38,2.14-6.31,3.63-1.98,1.52-3.84,3.2-5.89,4.62-2.35,1.62-4.94,2.78-7.72,3.41-.36.08-.57.49-.47.83.1.37.47.55.83.47,2.43-.56,4.78-1.5,6.9-2.8,2.11-1.3,3.99-2.92,5.91-4.48,3.53-2.85,7.74-5.66,12.51-5.04,2.47.32,4.84,1.55,6.33,3.58.07.11.18.19.3.25.17.18.42.25.68.21.48-.08,1.08.09,1.39.46.33.4.3.89.03,1.34-.2.32-.41.62-.55.97-.15.39-.19.82-.2,1.23-.02.72-.03,1.42-.12,2.14-.34,2.7-1.47,5.3-3.28,7.34-.86.97-1.84,1.82-2.94,2.51-1.23.77-2.56,1.29-3.94,1.74-3.08,1.01-6.18,1.87-9.42,2.19-3.55.35-7.14.2-10.66-.32-.36-.05-.73.09-.83.47-.09.32.11.78.47.83,3.4.5,6.84.71,10.26.44,1.74-.14,3.47-.39,5.17-.76,1.68-.37,3.33-.88,4.97-1.41,1.53-.49,3.05-1.03,4.43-1.86,1.23-.74,2.36-1.67,3.33-2.73,2.05-2.27,3.35-5.12,3.76-8.15.12-.87.12-1.74.17-2.61.02-.4.14-.7.36-1.04.23-.36.45-.72.53-1.15.15-.83-.11-1.72-.76-2.28Z"/>
    <path class="cls-18" d="m131.85,97.59c-1.43-.91-3.35-.69-4.69.31-1.41,1.05-2.13,2.75-2.08,4.49.1,3.54,3.37,6,6.37,7.23,1.9.78,3.97,1.06,5.97,1.47.36.07.73-.1.83-.47.09-.33-.11-.76-.47-.83-1.63-.33-3.29-.58-4.88-1.08-1.42-.44-2.79-1.16-3.96-2.09-1.09-.87-2.07-1.97-2.39-3.32-.3-1.24-.08-2.74.78-3.74.96-1.12,2.59-1.59,3.83-.8.31.2.75.06.92-.24.19-.33.07-.73-.24-.92h0Z"/>
    <path class="cls-15" d="m97.46,129.03c.87,0,.87-1.35,0-1.35s-.87,1.35,0,1.35h0Z"/>
    <path class="cls-15" d="m102.74,145.73c.87,0,.87-1.35,0-1.35s-.87,1.35,0,1.35h0Z"/>
    <path class="cls-15" d="m95.55,149.12c.87,0,.87-1.35,0-1.35s-.87,1.35,0,1.35h0Z"/>
    <path class="cls-15" d="m106.12,154.93c.87,0,.87-1.35,0-1.35s-.87,1.35,0,1.35h0Z"/>
    <path class="cls-15" d="m91.22,143.3h.11c.09,0,.18-.02.26-.06.08-.03.16-.07.22-.14.07-.06.11-.13.14-.22.04-.08.06-.17.06-.26l-.02-.18c-.03-.11-.09-.21-.17-.3l-.14-.11c-.11-.06-.22-.09-.34-.09h-.11c-.09,0-.18.02-.26.06-.08.03-.16.07-.22.14-.07.06-.11.13-.14.22-.04.08-.06.17-.06.26l.02.18c.03.11.09.21.17.3l.14.11c.11.06.22.09.34.09h0Z"/>
    <path class="cls-15" d="m101.15,152.29c.87,0,.87-1.35,0-1.35s-.87,1.35,0,1.35h0Z"/>
    <path class="cls-15" d="m86.88,154.93c.87,0,.87-1.35,0-1.35s-.87,1.35,0,1.35h0Z"/>
    <path class="cls-15" d="m100.1,131.15c.87,0,.87-1.35,0-1.35s-.87,1.35,0,1.35h0Z"/>
    <path class="cls-15" d="m95.02,134.32c.87,0,.87-1.35,0-1.35s-.87,1.35,0,1.35h0Z"/>
    <path class="cls-15" d="m97.77,141.11h-.11c-.09,0-.18.02-.26.06-.08.03-.16.07-.22.14-.07.06-.11.13-.14.22-.04.08-.06.17-.06.26l.02.18c.03.11.09.21.17.3l.14.11c.11.06.22.09.34.09h.11c.09,0,.18-.02.26-.06.08-.03.16-.07.22-.14.07-.06.11-.13.14-.22.04-.08.06-.17.06-.26l-.02-.18c-.03-.11-.09-.21-.17-.3l-.14-.11c-.11-.06-.22-.09-.34-.09h0Z"/>
    <path class="cls-15" d="m106.97,141.51c.87,0,.87-1.35,0-1.35s-.87,1.35,0,1.35h0Z"/>
    <path class="cls-15" d="m100.31,125.86c.87,0,.87-1.35,0-1.35s-.87,1.35,0,1.35h0Z"/>
    <path class="cls-15" d="m104.11,130.41c.87,0,.87-1.35,0-1.35s-.87,1.35,0,1.35h0Z"/>
    <path class="cls-15" d="m101.26,136.22c.87,0,.87-1.35,0-1.35s-.87,1.35,0,1.35h0Z"/>
    <path class="cls-7" d="m114.63,123.92s-2.72-3.74-3.63-4.67-5.61-5.27-5.61-5.27c0,0-3.61,3.45-4.12,3.98s-1.49,1.49-1.16,2.35c.33.86,1.69,3.65,3.15,5.05,1.46,1.4,4.13,3.19,5.37,3.51s1.83-.03,2.41-.68,3.59-4.29,3.59-4.29Z"/>
    <path class="cls-12" d="m106.71,114.52c.13-.13,6.57-6.83,6.57-6.83,0,0,1.09.55,1.83-.38.74-.93,1.76-3.32,1.98-3.52s3.91-3.64,3.91-3.64c0,0,2.69.98,3.3,1.28s2.78,2.03,3.46,3.09,1.31,3.02,1.31,3.02l-5.25,4.97-9.74,10.17s-4.36-4.82-4.92-5.27-2.44-2.89-2.44-2.89Z"/>
    <g>
      <path class="cls-18" d="m139.87,99.77c-.51-.91-1.15-1.74-1.9-2.45-.63-.59-1.59.36-.96.96,2.68,2.52,3.33,6.33,3.23,9.85-.03,1.18-.14,2.35-.27,3.52-.04.36.34.68.68.68.4,0,.64-.31.68-.68.44-3.99.57-8.25-1.45-11.87Z"/>
      <path class="cls-18" d="m133.03,99.53c-.06.06-.1.12-.13.19-1.26-1.24-2.54-2.41-3.09-2.93-1.11-1.05-4.08-2.36-5.01-2.7-.93-.34-3.68-.77-4.12-.32-.44.45-1.97,2.78-1.97,2.78,0,0-2.62,1.89-3.48,2.8-.87.91-2.64,3.09-3.72,4.36-1.08,1.27-1.55,3.17-1.69,3.61-.14.44-.88,1.03-1.35,2.17-.48,1.15.91,2.01.91,2.01l3.9-3.81s1.38-.43,1.83-.38c.45.05,1.98-3.52,1.98-3.52l3.91-3.64s3.79,1.18,5.23,2.45c1.44,1.27,2.64,4.71,2.64,4.71,0,0-6.86,7.09-7.09,7.31-.23.21-5.49,6.33-5.49,6.33,0,0,1.46.49,2.05.63.59.14,1.95-.88,2.6-1.44s1.32-.62,2.16-.96c.84-.34,2.16-1.59,2.16-1.59,0,0,2.54-1.02,4.38-1.79,1.84-.77,2.56-2.92,2.56-2.92,0,0,3.36-.54,3.88-.86.38-.24.88-1.02,1.28-1.88.12.08.25.13.38.13.4,0,.63-.31.68-.68.47-3.89-2.04-7.28-4.42-10.07-.24-.28-.71-.24-.96,0Z"/>
    </g>
    <path class="cls-18" d="m133.99,99.53c-1.71-1.71-3.58-3.3-5.66-4.55-1.51-.91-3.19-1.66-4.94-1.93-.87-.13-1.71-.15-2.58-.02-.36.05-.56.51-.47.83.11.39.47.52.83.47.13-.02,0,0-.02,0,.04,0,.09-.01.13-.02.08,0,.16-.02.24-.02.16-.01.33-.02.49-.02.34,0,.69.02,1.03.07-.14-.02.07.01.12.02.09.01.18.03.27.05.18.04.37.08.55.12.39.1.76.22,1.14.35.76.28,1.53.66,2.3,1.1.87.51,1.71,1.08,2.51,1.7,1.1.86,2.13,1.8,3.12,2.78.62.61,1.57-.34.96-.96h0Z"/>
    <path class="cls-18" d="m120.81,93.04c-.45.08-.87.33-1.16.68s-.47.78-.68,1.19c-.25.49-.53.96-.71,1.49-.16.47-.43.87-.69,1.29-.62.96-1.24,1.92-1.85,2.89-.57.9-1,2.01-.46,3.03.27.52.78.88,1.38.82s1.14-.42,1.56-.83c.63-.6-.33-1.56-.96-.96-.12.12-.25.22-.39.31-.05.03-.14.08-.18.1,0,0-.19.07-.11.03-.02,0-.1-.02-.05,0s-.03-.04-.02,0c0,0,.04.01.04.02,0,0-.07-.08-.05-.05-.06-.09-.11-.2-.13-.33-.01-.07,0-.28,0-.33.03-.2.1-.39.19-.57.2-.4.46-.77.7-1.14.52-.81,1.04-1.63,1.57-2.44.25-.38.48-.77.65-1.2.15-.38.29-.73.48-1.1.2-.38.36-.8.59-1.17.02-.03.04-.06.06-.09.07-.1-.05.05.03-.03.05-.06.11-.12.17-.17-.01.01-.06.04,0,0,.05-.03.1-.07.16-.09-.05.02.17-.04.21-.04.36-.07.56-.5.47-.83-.1-.38-.47-.54-.83-.47h0Z"/>
    <path class="cls-18" d="m121.96,100.89c1.53-.46,2.59-1.88,2.57-3.48,0-.35-.31-.69-.68-.68s-.68.3-.68.68c0,.08,0,.16,0,.24,0,.03,0,.06,0,.1-.01.16.02-.1,0-.01-.03.15-.06.3-.11.45-.01.04-.03.08-.04.11,0,.02-.05.12-.01.03.04-.09-.02.03-.02.05-.02.04-.04.07-.05.11-.07.13-.17.25-.24.38.02-.03.08-.1.02-.03-.02.03-.05.06-.07.08-.05.05-.09.1-.14.15-.05.05-.11.1-.17.15-.07.06,0,0,.03-.02-.03.01-.06.05-.09.07-.12.08-.24.15-.37.22-.03.02-.07.03-.1.05-.08.04.16-.06.02,0-.07.03-.14.05-.21.07-.34.1-.59.48-.47.83s.47.58.83.47h0Z"/>
    <path class="cls-18" d="m113.51,100.54c-.76.74-1.48,1.51-2.15,2.32-.64.77-1.26,1.57-1.65,2.49s-.57,2.01-.28,3.01,1.17,2.05,2.34,1.68c.83-.26.47-1.56-.36-1.3-.55.17-.76-.93-.77-1.33-.03-.76.23-1.47.6-2.12.4-.68.9-1.29,1.42-1.89.58-.67,1.18-1.3,1.81-1.92s-.33-1.56-.96-.96h0Z"/>
    <path class="cls-18" d="m109.35,106.84c-.72.75-1.43,1.57-1.55,2.65s.41,2.02,1.24,2.59c.29.2.76.06.92-.24.18-.34.07-.71-.24-.92-.04-.03-.06-.05-.01,0-.04-.03-.08-.07-.11-.1-.06-.06-.11-.12-.17-.18-.05-.06.04.07-.02-.03-.02-.03-.04-.07-.07-.1s-.04-.07-.06-.11c0,0-.07-.16-.04-.09.03.07-.02-.05-.02-.06-.02-.05-.03-.1-.04-.15-.01-.04-.02-.08-.03-.12-.01-.06-.01-.07,0,0,0-.09-.01-.18-.01-.27,0-.04,0-.08,0-.12,0-.1-.04.15,0-.04.02-.09.04-.17.07-.25,0-.01.06-.17.04-.1-.02.06.03-.06.03-.07.08-.17.18-.33.29-.48,0-.01.11-.14.07-.09-.03.04.04-.06.05-.06.06-.08.13-.16.2-.23.13-.15.27-.3.42-.44.24-.26.27-.71,0-.96s-.69-.27-.96,0h0Z"/>
    <path class="cls-18" d="m131.55,112.69c-.92,2.66-4.08,3.4-6.55,3.74-.36.05-.56.51-.47.83.11.39.47.52.83.47,1.61-.22,3.24-.56,4.66-1.38,1.29-.75,2.35-1.88,2.84-3.3.12-.34-.14-.74-.47-.83-.37-.1-.71.13-.83.47h0Z"/>
    <path class="cls-18" d="m124.67,116.7c-.37.7-.9,1.29-1.57,1.7-.76.46-1.69.59-2.43,1.1-.36.24-.65.59-.99.81s-.65.35-1.05.43c-.67.14-1.4,0-2.01-.37-.74-.46-1.42.71-.68,1.17.84.52,1.83.69,2.8.55.47-.07.91-.22,1.33-.44.45-.24.79-.6,1.18-.91.35-.28.78-.43,1.2-.58.48-.17.96-.36,1.39-.63.83-.52,1.53-1.27,1.98-2.14.17-.32.08-.73-.24-.92-.3-.18-.75-.08-.92.24h0Z"/>
    <path class="cls-18" d="m125.72,102.01l.84-.64c.08-.04.14-.1.19-.17.06-.07.1-.14.12-.23.03-.09.03-.18.01-.27,0-.09-.03-.17-.08-.25-.09-.14-.23-.27-.4-.31l-.18-.02c-.12,0-.24.03-.34.09l-.84.64c-.08.04-.14.1-.19.17-.06.07-.1.14-.12.23-.03.09-.03.18-.01.27,0,.09.03.17.08.25.09.14.23.27.4.31l.18.02c.12,0,.24-.03.34-.09h0Z"/>
    <path class="cls-18" d="m137.08,109.42c-.4,1.29-1.42,2.47-2.83,2.61-1.59.15-3.26-.57-4.56-1.44-.72-.49-1.36-1.1-1.92-1.77-.23-.28-.72-.24-.96,0-.28.28-.23.67,0,.96,1.16,1.42,2.71,2.49,4.43,3.12.94.35,1.99.59,3,.5.98-.09,1.85-.46,2.59-1.11.74-.66,1.26-1.55,1.55-2.49.26-.83-1.04-1.19-1.3-.36h0Z"/>
    <path class="cls-12" d="m112.62,107.4c-2.25,2.34-4.49,4.69-6.75,7.01-.61.62.35,1.58.96.96,2.26-2.33,4.5-4.68,6.75-7.01.6-.63-.35-1.58-.96-.96h0Z"/>
    <path class="cls-12" d="m114.54,123.16c3.9-4,7.69-8.11,11.61-12.09,1.01-1.03,2.03-2.05,3.07-3.05.63-.6-.33-1.56-.96-.96-4.02,3.88-7.82,7.98-11.68,12.02-1,1.04-1.99,2.09-3,3.12-.61.62.35,1.58.96.96h0Z"/>
    <path class="cls-7" d="m105.04,114.85c3.28,2.44,6.21,5.37,8.66,8.65.22.29.58.44.92.24.29-.17.46-.63.24-.92-2.01-2.68-4.29-5.14-6.85-7.31-.75-.63-1.51-1.24-2.3-1.82-.29-.22-.75-.05-.92.24-.2.34-.05.71.24.92h0Z"/>
    <path class="cls-7" d="m105.58,113.57c-.85-.29-1.5.41-2.02.97s-1.09,1.16-1.64,1.75-1.1,1.16-1.64,1.75-.96,1.19-.88,2.01c.07.69.37,1.35.65,1.98.26.57.56,1.12.91,1.64.7,1.06,1.55,2.02,2.52,2.84,1.1.94,2.33,1.73,3.66,2.3.34.14.72.1.92-.24.17-.28.09-.78-.24-.92-2.04-.88-3.88-2.25-5.24-4.02-.63-.83-1.19-1.77-1.55-2.73-.19-.5-.45-1.05-.11-1.52.37-.52.88-.96,1.31-1.43.56-.6,1.12-1.19,1.68-1.79.27-.28.53-.57.8-.85.1-.11.2-.23.32-.33.03-.02.11-.08.15-.1,0,0-.2-.08.05,0,.35.12.74-.13.83-.47.1-.37-.12-.71-.47-.83h0Z"/>
    <path class="cls-7" d="m113.99,123.84c.15.07,0-.04-.03-.1.05.09.02.08.02.02,0,.04-.07.17-.13.26-.2.28-.44.55-.66.82-.43.53-.85,1.06-1.32,1.55-.43.46-.9.9-1.42,1.25-.24.17-.5.32-.77.45-.09.04-.18.08-.28.11-.06.02-.13.03-.19.05-.16.04.1.01-.07,0-.06,0-.12,0-.19,0-.02,0-.13-.01-.01,0-.12-.02-.23-.05-.35-.08-.3-.09-.59-.2-.88-.32-.61-.26-1.2-.6-1.75-.98-.95-.66-1.87-1.48-2.64-2.35-.39-.44-.69-.86-1.03-1.38-.18-.27-.35-.55-.52-.84-.07-.12-.14-.25-.2-.37-.03-.05-.05-.11-.08-.16-.01-.02-.11-.26-.07-.14-.14-.34-.45-.58-.83-.47-.32.09-.61.49-.47.83,1.02,2.48,3.03,4.61,5.23,6.1.63.43,1.3.78,2.01,1.07.59.24,1.24.5,1.9.43.71-.08,1.37-.43,1.94-.84.64-.45,1.21-.98,1.74-1.55.6-.65,1.15-1.36,1.7-2.04.32-.39.64-.79.67-1.31.02-.47-.21-.97-.65-1.17-.33-.15-.73-.09-.92.24-.17.29-.09.77.24.92h0Z"/>
    <path class="cls-12" d="m120.76,100.8c1.81.17,3.57.96,4.9,2.2,1.32,1.24,2.2,2.86,2.55,4.64.07.36.5.56.83.47.37-.1.54-.47.47-.83-.64-3.26-2.94-5.96-6-7.19-.88-.35-1.81-.55-2.75-.64-.36-.03-.68.33-.68.68,0,.39.31.64.68.68h0Z"/>
    <path class="cls-12" d="m120.22,99.73c-1.27,1.23-2.52,2.48-3.76,3.74-.25.25-.27.71,0,.96s.69.27.96,0c1.24-1.26,2.49-2.51,3.76-3.74.25-.25.27-.71,0-.96s-.68-.26-.96,0h0Z"/>
    <path class="cls-10" d="m109.38,128.98s-.02-.05-.03-.07c-.79-1.59-1.87-3.01-3.06-4.32-.6-.67-1.23-1.31-1.87-1.94-.61-.61-1.21-1.22-1.86-1.79-.75-.65-1.55-1.2-2.48-1.56-.09-.03-.18-.03-.27,0-.05,0-.1,0-.15.01-.26.07-.35.31-.31.55.3,1.91,1.26,3.63,2.45,5.12,1.15,1.44,2.55,2.74,4.16,3.65.91.51,1.9.88,2.93,1.05.24.04.48-.06.55-.31.03-.13,0-.28-.08-.39Z"/>
    <path class="cls-5" d="m75.4,111.11c-1.23-1.12-8.37-7.72-10.6-9.04s-9.26-7.28-10.05-7.9c-.79-.62-4.74-4.84-6.28-5.91s-4.91-2.31-6.89-2.71c-1.98-.4-7.34.78-9.31,2.14-1.97,1.36-4.09,2.91-4.74,5.12-.65,2.21-.66,4.37.51,6.44,1.18,2.07,3.47,5.3,5.77,6.92,2.3,1.62,6.52,4.21,8.7,5.08,2.17.87,11.79,3.82,13.86,4.42s7.68,2.29,9.15,2.82,4.72,1.66,6.35,1.73c1.63.07,2.96.37,4.23-.52,1.27-.9,1.93-1.54,2.08-3.08.14-1.53-.09-2.99-.81-3.68s-1.95-1.83-1.95-1.83Z"/>
    <path class="cls-18" d="m64.51,118.31s1.22-2.67,2.52-4.09c1.3-1.43,4.05-3.49,4.58-3.75s2.33-.77,2.33-.77l2.56,2.63s1.16,1.13,1.43,2.05c.26.93.32,2.68-.2,3.62-.52.94-1.14,1.56-2.36,2.08-1.22.51-4.12.18-5.59-.24-1.47-.42-4.27-1.36-4.27-1.36l-1-.17Z"/>
    <path class="cls-5" d="m40.56,84.87c-3.99.04-8.24,1.32-11.2,4.09-.76.72-1.43,1.55-1.95,2.47-.43.76.74,1.44,1.17.68,1.75-3.1,5.2-4.81,8.57-5.52,1.12-.24,2.26-.36,3.41-.37.87,0,.87-1.36,0-1.35h0Z"/>
    <path class="cls-18" d="m64.63,118.89c1.01.34,2.01.7,3,1.1.33.13.76-.14.83-.47.09-.39-.12-.69-.47-.83-.99-.39-1.99-.75-3-1.1-.33-.11-.75.13-.83.47-.09.37.11.71.47.83h0Z"/>
    <path class="cls-22" d="m26.71,97.63c.87,2.53,2.24,4.84,4.1,6.77,1.8,1.87,3.96,3.36,6.16,4.72,2.49,1.53,5.14,2.77,7.89,3.77s5.74,1.82,8.63,2.65c3.61,1.03,7.23,2.04,10.78,3.23.35.12.74-.13.83-.47.1-.37-.12-.71-.47-.83-3.1-1.04-6.24-1.93-9.39-2.83-2.93-.84-5.88-1.63-8.77-2.61-2.64-.89-5.2-1.98-7.63-3.36-2.25-1.28-4.43-2.7-6.31-4.45-2.07-1.92-3.6-4.25-4.53-6.94-.12-.34-.46-.57-.83-.47-.34.09-.59.48-.47.83h0Z"/>
    <path class="cls-22" d="m27.34,91.56c-.72,1.37-1.06,2.92-.92,4.46.17,1.81.87,3.5,1.86,5.02.2.31.6.43.92.24.3-.18.44-.62.24-.92-.85-1.3-1.53-2.8-1.67-4.34-.12-1.34.12-2.61.73-3.78.17-.32.08-.73-.24-.92-.31-.18-.75-.08-.92.24h0Z"/>
    <path class="cls-22" d="m74.02,108.95c-4.31-3.84-8.81-7.46-13.36-11.02-1.15-.9-2.3-1.79-3.45-2.69-.58-.46-1.17-.91-1.75-1.37-.26-.2-.51-.4-.77-.6-.21-.16-.44-.31-.62-.5-.79-.85-1.54-1.73-2.37-2.55-.9-.89-1.85-1.74-2.86-2.51-1.08-.82-2.22-1.55-3.49-2.05-1.46-.58-3.07-.78-4.64-.78-.87,0-.87,1.35,0,1.35,1.37,0,2.73.17,4.02.63,1.01.37,2.01.98,2.91,1.63,1.92,1.38,3.6,3.1,5.15,4.87.14.16.28.34.44.48.24.21.5.39.76.59.57.45,1.14.89,1.71,1.34,1.11.86,2.22,1.73,3.32,2.59,2.26,1.76,4.5,3.54,6.73,5.35,2.48,2.02,4.92,4.07,7.31,6.2.27.24.69.27.96,0,.25-.25.27-.71,0-.96h0Z"/>
    <path class="cls-18" d="m77.83,112.46c-1.12-1.07-2.26-2.12-3.41-3.15-.26-.24-.7-.28-.96,0-.24.26-.28.7,0,.96,1.15,1.03,2.29,2.08,3.41,3.15.26.24.7.27.96,0s.27-.69,0-.96h0Z"/>
    <path class="cls-18" d="m76.87,113.42c.05.06.11.11.16.17.08.1.02.03,0,0,.02.03.05.07.07.1.11.16.21.34.29.52-.04-.09.05.15.06.17.03.09.06.19.09.29.05.2.09.41.11.58.1.97.05,2.1-.6,2.87-1.42,1.69-3.89,1.6-5.87,1.32-1.09-.15-2.15-.42-3.19-.77-.35-.12-.74.13-.83.47-.1.37.12.72.47.83,1.03.34,2.07.61,3.15.76,1.35.19,2.7.32,4.06.06,1.16-.22,2.32-.77,3.12-1.66.91-1.01,1.16-2.35,1.07-3.68-.07-1.1-.4-2.21-1.19-3.01-.61-.62-1.57.34-.96.96h0Z"/>
    <path class="cls-20" d="m111.16,154.92c-3.64-6.28-19.47-7.2-26.13-5.97-5.64,5-12.55.45-18.5,5.53-2.38,3.69,14.08,1.93,17.67,1.5,7.64-.68,20.82,2.26,26.96-1.05Z"/>
    <path class="cls-22" d="m66.74,123.15s-1.15-.97-2.22-.67c-1.06.3-2.61.71-2.24,2.17s1.88,3.5,2.63,4.27,3.3,3.45,3.3,3.45c0,0,1.04-1.12,1.54-1.36s1.16-.55,1.16-.55l-3.1-4.36-1.07-2.96Z"/>
    <path class="cls-22" d="m81.74,144.52c.18.04,1.13-.57,1.3-.71s.87-.69.87-.69l8.03,9.03,11.38,12.07s3.39-1.02,4.71-1,2.99-.06,4.16.79,3.01,2.51,3.96,4.85c.95,2.34,1.89,4.71,1.74,6.22s-.41,3-1.35,3.55-1.75,1-3.19.66c-1.44-.34-4.05-1.3-6.37-2.72s-3.19-2.36-3.76-4.25-.15-7.33-.15-7.33l-3.77-4.27-17.54-16.2Z"/>
    <path class="cls-22" d="m81.44,145.03c2.87,2.54,5.71,5.11,8.51,7.72s5.55,5.22,8.28,7.89c1.55,1.51,3.08,3.03,4.61,4.56.61.62,1.57-.34.96-.96-2.7-2.71-5.44-5.39-8.21-8.04s-5.54-5.23-8.36-7.8c-1.6-1.45-3.21-2.9-4.82-4.33-.27-.24-.69-.27-.96,0-.25.25-.27.71,0,.96h0Z"/>
    <path class="cls-22" d="m103.79,164.23c-1.93-2.1-3.85-4.21-5.76-6.33-2.83-3.13-5.65-6.27-8.46-9.43-1.73-1.94-3.46-3.89-5.18-5.84-.24-.27-.71-.25-.96,0-.27.27-.24.68,0,.96,3,3.41,6.02,6.8,9.06,10.18,2.51,2.79,5.02,5.58,7.55,8.36.93,1.02,1.86,2.04,2.8,3.06.25.27.7.25.96,0,.27-.27.25-.69,0-.96h0Z"/>
    <path class="cls-22" d="m66.63,122.2c-1.72-.79-4.09-.43-4.84,1.5-.4,1.04-.06,2.19.48,3.11.59,1,1.42,1.82,2.22,2.65.99,1.02,1.99,2.03,3,3.02.62.61,1.58-.34.96-.96-.78-.76-1.55-1.54-2.31-2.32-.73-.75-1.5-1.48-2.16-2.3-.49-.61-1-1.41-1.01-2.17,0-.34.08-.66.3-.96,0,0,.03-.04.09-.1.02-.02.19-.17.12-.12.06-.05.13-.09.2-.13.04-.02.08-.04.12-.07.01,0,.15-.07.06-.03.39-.17.65-.2,1.05-.19.25,0,.3.01.51.06.1.02.19.05.28.08.05.01.09.03.14.05.12.04-.02-.01.11.04.33.15.73.09.92-.24.17-.29.09-.77-.24-.92h0Z"/>
    <path class="cls-18" d="m77.15,113.69c2.65,5.01,5.28,10.12,6.92,15.57.46,1.51.83,3.05,1.04,4.62.05.36.51.56.83.47.39-.11.52-.47.47-.83-.39-2.88-1.29-5.67-2.34-8.37-1.09-2.8-2.36-5.53-3.71-8.21-.67-1.32-1.35-2.63-2.04-3.94-.17-.32-.62-.42-.92-.24-.33.19-.41.6-.24.92h0Z"/>
    <path class="cls-18" d="m83.13,133.28c.09.08.06.05.04.02.02.02.04.11.02.03,0,.03,0,.11,0,.03,0,.04,0,.07,0,.11-.01.12.02-.08,0,.05,0,.05-.02.1-.04.15-.02.08-.06.2-.09.26-.18.41-.46.86-.7,1.26-.54.92-1.12,1.82-1.73,2.7-.59.84-1.21,1.66-1.87,2.45-.29.35-.58.77-.96,1.04-.21.15-.05,0-.04.02,0,0-.24.04.06,0-.02,0-.05,0-.07,0-.08.01.12.03.04,0-.06-.02-.12-.03-.18-.05-.12-.04-.02-.01,0,0-.05-.02-.09-.05-.14-.07-.64-.35-1.12-.81-1.67-1.35-.62-.61-1.58.34-.96.96.56.55,1.17,1.11,1.86,1.51.34.2.75.37,1.15.35.61-.04,1.05-.51,1.42-.95,1.6-1.85,3.03-3.85,4.27-5.97.56-.96,1.61-2.52.53-3.5-.27-.25-.69-.27-.96,0-.25.25-.27.71,0,.96h0Z"/>
    <g>
      <path class="cls-18" d="m72.21,111.09c.92-.45,1.92-.79,2.95-1.02.36-.08.57-.49.47-.83-.1-.37-.47-.55-.83-.47-3.99.9-7.53,3.49-9.71,6.94-.62.98-1.12,2.03-1.49,3.13-.12.34.14.74.47.83.37.1.71-.13.83-.47,1.22-3.53,3.94-6.47,7.31-8.1Z"/>
      <path class="cls-18" d="m85.94,133.05c-.11-.03-.23-.02-.35.01-.53-1.97-2.21-8.04-3.2-10.23-.9-1.99-2.39-6.03-3.33-8.01.03-.15,0-.32-.07-.47-.51-1-1.37-1.76-2.42-2.14-1.13-.4-2.38-.21-3.46.23-2.05.83-3.63,2.3-4.76,4.18-.48.8-.86,1.65-1.18,2.52-.07.19,0,.4.11.57-.06.17-.11.34-.16.5-.31-.01-.57.19-.68.48-.59,1.6-.44,3.41.18,4.98.62,1.58,1.66,2.95,2.79,4.2.29.33.6.64.91.95-.68.4-1.97,1.22-2.26,1.97-.31.81-.14,2.44.15,3.45-.1.03-.2.08-.27.15-.28.28-.22.67,0,.96.27.34.59.6,1.02.69.35.07.7.05,1.05,0,.14.51.28,1.02.48,1.52.15.37.3.74.57,1.04.33.37.78.64,1.24.8.86.3,1.66.06,2.36-.41,0,.01,0,.03,0,.04.11.72.28,1.42.53,2.1.26.73.54,1.42,1.32,1.7.67.24,1.45.3,2.16.34.75.05,1.51,0,2.26-.1.69-.09,1.4-.23,2.05-.49.75-.3,1.1-.86,1.32-1.61.4-1.41.74-2.84,1.07-4.28.36-1.6.7-3.22,1.06-4.82.08-.36-.11-.73-.47-.83Z"/>
    </g>
    <path class="cls-18" d="m67.58,121.59c.08-.37.19-.73.34-1.08l-.07.16c.15-.35.33-.68.54-1,.2-.29.07-.76-.24-.92-.34-.18-.71-.07-.92.24-.46.67-.78,1.45-.95,2.24-.04.18-.03.36.07.52.08.14.24.27.4.31.34.08.75-.1.83-.47h0Z"/>
    <path class="cls-18" d="m69.1,136.73c-.21-.57-.37-1.17-.44-1.78s-.11-1.24.01-1.82c.21-1.04,1.39-1.61,2.32-1.89.83-.25.48-1.56-.36-1.3-1.31.4-2.82,1.23-3.22,2.64-.2.7-.19,1.5-.12,2.22.07.79.23,1.55.5,2.3.12.34.46.57.83.47.33-.09.6-.49.47-.83h0Z"/>
    <path class="cls-22" d="m102.53,164.44c-.42,1.83-.81,3.74-.59,5.63.19,1.64.81,3.19,1.8,4.51,2.05,2.73,5.21,4.31,8.46,5.14,1.65.43,3.49.54,4.85-.67s1.63-3.01,1.45-4.66c-.2-1.8-.75-3.56-1.48-5.22-.68-1.55-1.57-3.09-2.73-4.34-.56-.6-1.22-1.14-1.96-1.51-.82-.41-1.7-.63-2.6-.73-1.75-.2-3.59.08-5.23.7-.43.16-.86.35-1.28.56-.33.16-.42.62-.24.92.19.33.6.41.92.24,1.41-.7,2.97-1.09,4.54-1.13,1.48-.03,2.98.26,4.16,1.2s1.98,2.25,2.67,3.55c.73,1.39,1.28,2.87,1.63,4.4.33,1.44.54,3.08-.26,4.39-.31.5-.76.91-1.34,1.1-.66.21-1.38.17-2.05.04-1.48-.28-2.96-.8-4.3-1.47-1.32-.66-2.54-1.5-3.53-2.59-1.05-1.15-1.81-2.56-2.09-4.1-.34-1.87.07-3.8.49-5.62.08-.36-.11-.73-.47-.83-.34-.09-.75.11-.83.47h0Z"/>
    <path class="cls-5" d="m98.41,71.42s-4.51-6.35-5.12-7.37c-.61-1.02-4.45-7.57-4.45-7.57l.07-3.26s-1.08-1.84-1.8-3.21-1.25-3.19-1.36-4.17c-.11-.98-.11-1.92-.11-1.92,0,0-1.13.73-1.48.13s-.61-3.01-.6-3.9.15-3.72.48-4.03.57-.92,1.04-.39.67,4.69.67,4.69c0,0,1.04-1.53,1.39-1.89s.92-1.02.92-1.02c0,0,.62-3.25,1.02-3.95s1.55-1.97,1.55-1.97c0,0,6.25-.55,8.02-.5s7.29.53,7.66.62,1.19.31,1.19.31c0,0,1.27,1.69,1.57,2.82.3,1.13.47,2.82.47,2.82,0,0,1.2,1.18,1.48,1.94s.51,1.75.51,1.75c0,0-.13-3.16.22-3.6s.51-1.54,1-1.51.8.86,1.01,1.51-.1,3.46-.1,4.41-.1,2.04-.46,2.37-1.68.08-1.68.08c0,0-.12,3.26-.46,3.9s-1.96,3.64-2.55,4.04l-.18.94.68,3.41s-3.15,5.33-3.95,6.53c-.8,1.19-2.62,3.46-3.21,4.34s-3.44,3.66-3.44,3.66Z"/>
    <path class="cls-9" d="m90.63,31.59s-1.66,2.22-1.88,3.02-.68,2.9-.68,2.9l-2.07,2.56.73-5.8.42-1.88,3.48-.8Z"/>
    <path class="cls-9" d="m107.49,32.01l3.77,1.01s.53,4.83.34,5.16-.24,2.52-.24,2.52c0,0-1.08-2.23-1.21-2.38s-.58-.89-.66-1.09-.45-2.21-.66-2.95-1.33-2.27-1.33-2.27Z"/>
    <path class="cls-7" d="m87.38,51.46s-1.1,1.65-1.39,2.29-2.43,4.64-2.43,4.64c0,0,.45,6.03.6,7.66s1.06,5.08,1.4,5.94c.34.86,1,2.28,1,2.28l6.08-6.51,4.06,2.37,1.28.97s-4.44-6.63-4.97-7.53-4.27-7.56-4.27-7.56l.47-2.43-1.83-2.11Z"/>
    <path class="cls-7" d="m100.09,70.31c.06-.04,3.58-4.82,4.57-6.31s4.07-6.92,4.07-6.92l-.45-4.47s1.75-1.78,2.07-1.76,1.17.91,1.17.91l1.91,6.71s.23,5.22,0,7.03c-.23,1.81-1.75,6.63-1.75,6.63l-2.68-2.59-3.95-2.7-4.97,3.48Z"/>
    <path class="cls-7" d="m87.62,55.14c1.12,2.25,2.31,4.46,3.56,6.65,1.36,2.37,2.77,4.71,4.34,6.96.76,1.09,1.55,2.15,2.42,3.15.24.27.71.25.96,0,.27-.27.24-.68,0-.96-.77-.88-1.35-1.66-2.03-2.62-.76-1.07-1.47-2.17-2.17-3.28-1.44-2.31-2.8-4.67-4.08-7.06-.63-1.16-1.24-2.33-1.82-3.52-.16-.33-.62-.42-.92-.24-.33.19-.4.6-.24.92h0Z"/>
    <path class="cls-7" d="m99.12,72.1c3.6-3.84,6.67-8.17,9.16-12.8.72-1.34,1.38-2.71,2-4.1.15-.33.1-.73-.24-.92-.29-.17-.77-.09-.92.24-2.12,4.76-4.83,9.28-8.1,13.34-.91,1.13-1.86,2.22-2.85,3.28-.59.63.36,1.59.96.96h0Z"/>
    <path class="cls-7" d="m87.82,51.22c-.37-.18-.77-.19-1.13.02-.33.19-.51.53-.66.85-.31.66-.62,1.31-.93,1.97-.63,1.33-1.25,2.65-1.88,3.98-.16.33-.09.73.24.92.29.17.77.09.92-.24.53-1.13,1.06-2.25,1.59-3.38.26-.55.52-1.11.78-1.66.13-.27.25-.54.38-.81.06-.12.17-.28.2-.41.03-.15.08.06-.21-.08.33.16.73.09.92-.24.17-.3.09-.76-.24-.92h0Z"/>
    <path class="cls-7" d="m110.05,51.62l.5-.07s.16,0,.2-.03c.03,0,.06,0,.09,0l-.26-.12s.31.81.33.86c.22.69.41,1.38.61,2.07.42,1.43.83,2.87,1.25,4.3.24.83,1.55.48,1.3-.36-.48-1.65-.96-3.3-1.44-4.95-.23-.79-.45-1.6-.77-2.36-.18-.42-.45-.76-.94-.8-.4-.04-.84.09-1.24.15-.36.05-.56.51-.47.83.11.39.47.52.83.47h0Z"/>
    <path class="cls-7" d="m98.75,70.83c-.9-.69-1.8-1.38-2.72-2.04s-1.84-1.29-2.86-1.74c-.33-.15-.73-.1-.92.24-.17.29-.09.78.24.92,1.02.45,1.96,1.1,2.86,1.74s1.83,1.35,2.72,2.04c.29.22.76.04.92-.24.2-.35.05-.7-.24-.92h0Z"/>
    <path class="cls-7" d="m92.17,67.28c-1.95,2.24-3.98,4.41-6.08,6.51-.62.62.34,1.57.96.96,2.1-2.1,4.13-4.27,6.08-6.51.24-.27.27-.68,0-.96-.24-.24-.71-.28-.96,0h0Z"/>
    <path class="cls-7" d="m99.29,71.84c.94-.8,1.9-1.57,2.88-2.32.49-.37.98-.73,1.48-1.09.25-.18.5-.35.75-.53s.5-.38.77-.51l-.52.07h.05c-.17-.2-.33-.42-.5-.64v.03c.11-.19.22-.39.33-.58h-.03c.31.09.62.18.92.26v-.02c-.45-.75-1.62-.07-1.18.68v.02c.2.32.61.41.93.24.24-.13.34-.36.36-.63.02-.3-.23-.57-.5-.65-.4-.13-.71.14-1.02.35-.27.18-.53.37-.8.55-.56.39-1.11.8-1.66,1.21-1.1.83-2.19,1.7-3.24,2.59-.28.24-.24.71,0,.96.28.28.68.24.96,0h0Z"/>
    <path class="cls-7" d="m104.72,67.21c2.3,1.5,4.4,3.28,6.3,5.26.6.63,1.56-.33.96-.96-1.97-2.07-4.18-3.91-6.57-5.47-.31-.2-.75-.06-.92.24-.19.33-.06.72.24.92h0Z"/>
    <path class="cls-7" d="m112.78,59.04c.65,3.32.23,6.82-.73,10.04-.27.91-.58,1.82-.95,2.69-.14.34-.1.72.24.92.28.17.78.1.92-.24,1.43-3.37,2.27-7.06,2.16-10.73-.03-1.02-.14-2.04-.34-3.04-.07-.36-.5-.56-.83-.47-.37.1-.54.47-.47.83h0Z"/>
    <path class="cls-9" d="m112.3,42.16c-.07-3.11-.2-6.25-.75-9.31-.06-.36-.5-.56-.83-.47-.38.1-.54.47-.47.83.53,2.94.64,5.97.7,8.95.02.87,1.37.87,1.35,0h0Z"/>
    <path class="cls-22" d="m108.05,53.96c1.32-1.22,2.48-2.67,3.2-4.33s.96-3.35,1.03-5.1c.01-.36-.32-.68-.68-.68-.38,0-.66.31-.68.68-.06,1.53-.26,3.08-.88,4.5-.67,1.53-1.73,2.85-2.95,3.97-.27.25-.25.7,0,.96.27.27.69.25.96,0h0Z"/>
    <path class="cls-22" d="m84.89,43.58c.08,3.43.98,6.91,3.13,9.64.65.82,1.42,1.52,2.26,2.14.29.22.75.05.92-.24.2-.34.05-.71-.24-.92-2.58-1.89-3.95-4.89-4.48-7.97-.15-.87-.22-1.76-.24-2.64-.02-.87-1.37-.87-1.35,0h0Z"/>
    <path class="cls-9" d="m86.49,32.21c-.36,1.43-.61,2.87-.84,4.33-.23,1.46-.48,2.93-.64,4.41-.04.36.34.68.68.68.4,0,.63-.31.68-.68.16-1.39.4-2.77.61-4.15s.47-2.83.82-4.22c.21-.84-1.09-1.2-1.3-.36h0Z"/>
    <path class="cls-22" d="m88.24,53.73c-.06,1.11-.11,2.23-.17,3.34-.02.35.32.69.68.68.38-.02.66-.3.68-.68.06-1.11.11-2.23.17-3.34.02-.35-.32-.69-.68-.68-.38.02-.66.3-.68.68h0Z"/>
    <path class="cls-22" d="m107.78,52.6c.15,1.49.33,2.99.58,4.47.06.35.51.58.83.47.38-.12.53-.46.47-.83-.23-1.39-.4-2.68-.53-4.11-.03-.35-.29-.69-.68-.68-.34.02-.71.3-.68.68h0Z"/>
    <path class="cls-22" d="m90.15,55.25c1.05.86,1.89,1.94,2.97,2.76.56.43,1.19.74,1.88.89.73.16,1.49.2,2.24.22,1.53.05,3.1.02,4.62-.23.7-.12,1.4-.32,2.03-.67.55-.3,1.03-.72,1.45-1.18.46-.51.87-1.06,1.29-1.59.38-.48.87-1.08,1.29-1.4.29-.22.44-.58.24-.92-.17-.29-.63-.46-.92-.24-.95.72-1.62,1.7-2.37,2.62-.35.44-.72.88-1.17,1.23.06-.05-.04.03-.04.03-.07.05-.14.1-.22.15-.13.08-.27.16-.41.23-.28.14-.59.23-.89.31-1.32.33-2.74.34-4.09.34s-2.77.04-3.9-.7-1.99-1.93-3.05-2.8c-.28-.23-.68-.28-.96,0-.24.24-.28.72,0,.96h0Z"/>
    <path class="cls-22" d="m95.89,42.32c-.11.73-.34,1.43-.71,2.06-.36.62-.86,1.07-1.35,1.58s-.94,1.17-.87,1.93c.07.69.48,1.39,1.21,1.52.43.08.79-.07,1.19-.19.31-.1.41-.03.7.15.26.16.5.35.77.49.39.2.82.3,1.26.3.35,0,.7-.07,1.02-.2.19-.08.37-.17.53-.29s.31-.29.49-.38c.22-.1.53.05.78.11.39.11.81.16,1.21.05.83-.23,1.48-1.06,1.41-1.94-.08-.97-.86-1.68-1.81-1.78-.36-.04-.68.34-.68.68,0,.4.31.64.68.68.07,0,.26.12.32.2.08.1.11.18.13.26.05.22,0-.04,0,.09,0,.03,0,.07-.03.16.02-.06-.02.05-.03.05-.07.13.02,0-.08.11-.09.1-.12.12-.23.17.03-.01.08-.02-.05.02-.16.05.04.02-.13.02-.12,0-.24-.04-.36-.07-.32-.09-.64-.19-.98-.2-.43,0-.8.17-1.13.43-.4.32-.79.54-1.29.47-.55-.08-.94-.52-1.42-.76-.29-.14-.62-.24-.95-.22-.35.02-.64.16-.97.25-.01,0-.18.04-.11.02.07-.03-.03,0-.03,0l.05.02c-.07-.04-.07-.04-.01,0-.07-.11-.03-.03-.02,0-.03-.05-.07-.11-.1-.17.04.1,0,0,0-.02,0-.01-.03-.22-.02-.09,0-.07,0-.14,0-.2-.01.12.04-.12.05-.14.05-.1.12-.21.19-.3.19-.24.43-.45.65-.66,1.06-1.02,1.78-2.37,2-3.83.05-.36-.09-.73-.47-.83-.32-.09-.78.11-.83.47h0Z"/>
    <path class="cls-14" d="m95.25,52.3c1.71.88,3.73.9,5.46.07.33-.16.42-.63.24-.92-.2-.34-.59-.4-.92-.24-1.26.61-2.84.58-4.1-.07-.32-.17-.73-.08-.92.24-.18.3-.08.76.24.92h0Z"/>
    <path class="cls-9" d="m89.97,31.23c-.85.77-1.43,1.76-1.84,2.83s-.71,2.3-.74,3.45c-.02.87,1.33.87,1.35,0,.03-1,.31-2.07.66-3.01.33-.88.83-1.69,1.53-2.32.27-.24.25-.71,0-.96-.27-.27-.68-.24-.96,0h0Z"/>
    <path class="cls-9" d="m87.74,37.11c-1.16.79-1.97,1.99-2.57,3.25-.15.32-.1.74.24.92.3.16.76.1.92-.24.28-.58.6-1.15.99-1.67,0-.01.05-.08.06-.08-.05.06-.06.08-.03.04.01-.01.02-.03.03-.04.05-.06.09-.11.14-.17.1-.12.2-.23.31-.34s.21-.21.33-.3c.03-.02.06-.05.09-.07.04-.04.12-.05-.01,0,.06-.03.13-.09.18-.13.29-.2.45-.6.24-.92-.19-.29-.61-.45-.92-.24h0Z"/>
    <path class="cls-9" d="m107.01,32.49c1.19,1.45,1.84,3.3,1.84,5.17,0,.87,1.35.87,1.35,0,0-2.24-.81-4.4-2.24-6.13-.23-.28-.71-.24-.96,0-.28.28-.23.67,0,.96h0Z"/>
    <path class="cls-9" d="m109.21,38.33c.06.05.07.05.02.01.03.03.07.06.1.08.07.06.13.12.2.18.13.12.25.25.36.39-.07-.09.08.11.09.13.05.07.1.15.14.22.09.14.17.29.24.44.29.59.49,1.48.57,2.11.04.35.28.69.68.68.33-.01.72-.3.68-.68-.22-1.83-.84-3.62-2.39-4.74-.29-.21-.77-.06-.92.24-.18.35-.06.7.24.92h0Z"/>
    <path class="cls-3" d="m85.73,33.19c6.73-1.59,13.78-1.86,20.61-.76,1.95.31,3.87.73,5.77,1.25.84.23,1.2-1.07.36-1.3-3.43-.95-6.96-1.55-10.51-1.81-3.53-.26-7.08-.18-10.59.25-2.02.25-4.02.6-6,1.07-.85.2-.49,1.5.36,1.3h0Z"/>
    <path class="cls-3" d="m118.87,14.68c-.22-.2-.47-.38-.73-.52-.2-.11-.59-.22-.68-.38-.08-.15-.04-.47-.06-.66-.03-.33-.09-.66-.2-.97-.41-1.2-1.29-2.19-2.38-2.83-1.24-.72-2.73-.96-4.14-.92-1.37.03-2.73.42-4.1.33-.62-.04-1.21-.24-1.7-.62-.43-.32-.82-.79-1.17-1.22-.38-.47-.76-.95-1.19-1.37-.52-.5-1.13-.93-1.76-1.28-2.53-1.38-5.61-1.71-8.39-.98-2.53.66-4.75,2.21-6.32,4.29-.38.5-.7,1.03-.99,1.58-.27.5-.53,1.07-.9,1.48-.4.43-.88.59-1.46.69-.67.12-1.34.2-1.94.55-1.09.62-1.7,1.86-1.89,3.06-.22,1.4-.04,2.85.45,4.18.99,2.71,3,4.79,5.19,6.6.47.39.94.76,1.42,1.13-.36,1.84-.63,3.7-1.01,5.54-.07.36.1.73.47.83.33.09.76-.11.83-.47.02-.1.04-.2.06-.3,1.55-.27,5.19-.92,6.01-1.1,1.05-.22,8.63-.09,10.59,0,1.6.07,6.94,1.02,8.86,1.36.02.1.03.2.05.31.05.36.51.56.83.47.39-.11.53-.47.47-.83-.27-1.83-.57-3.66-.88-5.49,1.14-.98,2.28-1.95,3.42-2.93,1.05-.9,2.18-1.76,3.11-2.79.86-.95,1.55-2.1,1.6-3.41.05-1.23-.52-2.52-1.45-3.33Z"/>
    <path class="cls-22" d="m86.66,39.01c.02-.61-.04-1.22-.15-1.82-.1-.51-.22-1.09-.52-1.52-.36-.52-.97-.79-1.59-.6-.58.18-.98.64-1.18,1.2s-.21,1.19-.26,1.77-.07,1.22-.08,1.82.01,1.22.05,1.83.07,1.21.19,1.79.44,1.13,1.02,1.32c.68.22,1.3-.18,1.78-.63.27-.25.25-.7,0-.96-.27-.27-.69-.25-.96,0-.11.1-.22.2-.35.27.02-.01-.12.04-.06.02,0,0,.03.02.03.01,0,0-.04-.03-.02-.01,0,0-.06-.11-.07-.14-.03-.08-.05-.17-.07-.25,0-.04-.01-.07-.02-.11-.02-.13.01.12,0-.06-.11-.91-.16-1.84-.16-2.76s.04-1.88.14-2.82c.03-.29.06-.69.25-.91.05-.05.12-.1.17-.11,0,0,.09.03.03,0s.05.06.03.03c.22.32.3.82.37,1.22.08.47.11.94.09,1.41-.02.87,1.33.87,1.35,0h0Z"/>
    <path class="cls-22" d="m112.22,39.46c.1-.81.34-1.63.71-2.36.03-.05.16-.3.17-.29.01,0-.28.01-.26,0,0,0,.11.19.13.23.16.31.25.67.3,1.01.12.82.01,1.69-.11,2.5-.14.93-.32,1.85-.48,2.78-.04.23-.07.47-.13.7-.02.07-.04.14-.06.19-.02.04-.05.07-.06.11,0,0,.04-.03.04-.03,0,0-.1.05-.01,0,.06-.03-.06-.02,0,0,.09.02-.19-.02-.03,0-.04,0-.08-.02-.12-.03-.11-.02,0-.02,0,0,0,.02-.09-.09-.02,0,.04.06.08.08.1.16-.11-.35-.47-.57-.83-.47s-.58.48-.47.83c.16.51.63.77,1.14.84.56.07,1.06-.14,1.37-.62s.35-1.09.44-1.63c.11-.62.22-1.24.33-1.86.21-1.23.4-2.49.22-3.74-.08-.55-.25-1.11-.54-1.59-.35-.58-1.02-.92-1.65-.52-.57.36-.83,1.15-1.05,1.75-.24.66-.38,1.35-.47,2.05-.04.36.34.68.68.68.4,0,.63-.31.68-.68h0Z"/>
    <path class="cls-22" d="m92.41,40.4c.87,0,.87-1.35,0-1.35s-.87,1.35,0,1.35h0Z"/>
    <path class="cls-22" d="m103,39.72v.16c0,.09.02.18.06.26.03.08.07.16.14.22.06.07.13.11.22.14.08.04.17.06.26.06l.18-.02c.11-.03.21-.09.3-.17l.11-.14c.06-.11.09-.22.09-.34v-.16c0-.09-.02-.18-.06-.26-.03-.08-.07-.16-.14-.22-.06-.07-.13-.11-.22-.14-.08-.04-.17-.06-.26-.06l-.18.02c-.11.03-.21.09-.3.17l-.11.14c-.06.11-.09.22-.09.34h0Z"/>
    <path class="cls-12" d="m96.66,154.55c-6.33-.36-11.69-8.85-17.7-1.82-3.48,2.71-6.4-1.08-9.72-1.65-6.58-.1-8.56,5.18-3.25,7.63,5.41-2,9.56,2.25,13.64.25,1.47.55,20.51-1.36,17.03-4.41Z"/>
    <path class="cls-17" d="m85.99,193.64s-13.61.11-14.96-.06-4.18-.55-5.39-1.78-2.34-1.91-2.73-4.03-2.54-12.31-2.54-12.31l-1.6-7.11s-10.85-4.87-12.1-5.43c-1.25-.56-4.22-1.74-4.4-2.16s.09-2.35.42-3.04c.32-.69,1.37-1.92,2.18-2.08s6.71-.84,7.08-.83,4.58,1.02,4.58,1.02c0,0,1.24-.81,2.82-.81h10.41c.43,0,36.37.13,36.37.13,0,0,27.8,0,27.96-.07s2.91-.18,3.24.07.77,1.37.77,1.37c0,0,3.64-1.62,4.01-1.57s7.65-.25,8.05-.14,1.27.88,1.62,1.71c.35.83,1.02,3,.58,3.4s-3.77,1.89-4.17,2.11-12.85,5.7-12.85,5.7c0,0-2.45,13.37-2.63,14.2s-1.48,7.48-2.85,8.78-4.95,2.8-6.38,2.88-20.15.07-20.15.07h-17.33Z"/>
    <path class="cls-4" d="m58.77,168.34l-1.06-6.78s-5.62-2.57-7.41-3.13c-1.78-.55-5.83-3.04-6.33-2.62-.51.43-1.48,2.36-1.58,2.97s-.64,1.49-.11,1.96,9.02,4.68,9.89,4.93c.87.25,6.6,2.66,6.6,2.66Z"/>
    <path class="cls-19" d="m44.15,155.51c.12.08,5.6-.6,6.7-.65s3.05-.22,3.45.16,2.06.76,2.06.76c0,0-.28,1.24.02,1.48s1.01.63,1.01.63l.51,2.62v.44l-1.52-.2-11.59-4.92-.63-.32Z"/>
    <path class="cls-19" d="m135.32,167.72c.3-.25.48-3.49.48-3.49,0,0,4.89-2.64,5.97-2.91s1.25-1.23,3.55-1.08c2.29.15,6.35-.39,6.35-.39,0,0-1.41,1.18-1.75,1.34s-10.66,5.07-10.66,5.07l-3.78,1.8-.16-.33Z"/>
    <path class="cls-23" d="m100.47,193.68c-.85.27-27.75-.09-28.33-.04s-5.55-1.45-6.5-1.84-2.12-3.14-2.12-3.14h20.99l39.85.06,6.66.16s-1.27,2.07-1.89,2.59-7.52,2.25-9.05,2.32c-1.53.06-19.61-.1-19.61-.1Z"/>
    <path class="cls-19" d="m151.88,159.33c-.17.4-.58.53-.97.7-.57.24-1.13.48-1.7.73-1.14.5-2.27,1.02-3.39,1.54-2.24,1.04-4.48,2.1-6.74,3.1-1.25.55-2.51,1.09-3.78,1.6-.34.13-.58.45-.47.83.09.32.49.61.83.47,4.77-1.89,9.35-4.2,14.03-6.28.65-.29,1.31-.57,1.97-.85.57-.24,1.12-.56,1.38-1.15.15-.33.1-.72-.24-.92-.29-.17-.78-.09-.92.24h0Z"/>
    <path class="cls-17" d="m135.13,164.22c-.83,6.46-2.04,12.88-3.47,19.23-.2.88-.4,1.76-.61,2.64s-.42,1.76-.76,2.6c-.14.34.15.74.47.83.39.11.69-.13.83-.47.6-1.48.89-3.1,1.24-4.66s.72-3.23,1.05-4.85c.67-3.23,1.27-6.47,1.79-9.72.3-1.86.57-3.73.81-5.6.05-.36-.34-.68-.68-.68-.4,0-.63.31-.68.68h0Z"/>
    <path class="cls-19" d="m56.56,155.06c-.36-.15-.71-.29-1.07-.44-.33-.13-.65-.28-1-.37-.36-.09-.75-.11-1.11.01-.39.14-.67.4-.9.73-.32.46-.54,1-.76,1.52-.24.57-.47,1.15-.65,1.75-.11.35.13.74.47.83s.72-.12.83-.47c.3-.97.62-1.83,1.13-2.7.03-.05.06-.1.09-.15,0,0,.12-.16.06-.09.09-.1.06-.1.18-.15-.08.03.13-.01.02,0,.02,0,.18,0,.14,0,.08,0,.26.06.37.1.62.21,1.23.49,1.84.74.34.14.74-.15.83-.47.11-.39-.13-.69-.47-.83h0Z"/>
    <path class="cls-19" d="m44.14,156.48c1.61-.35,3.22-.65,4.86-.81s3.33-.21,5-.17c.87.02.87-1.33,0-1.35-3.45-.1-6.85.29-10.22,1.03-.36.08-.56.49-.47.83.1.37.47.55.83.47h0Z"/>
    <path class="cls-4" d="m150.43,155.66s.08.04.11.06c-.05-.04-.05-.04.01.02.03.03.06.06.09.09-.04-.05-.04-.04.01.02.08.14.16.27.24.42.1.18.19.37.28.55.07.15.14.31.18.4.28.67.58,1.42.53,2.08-.03.35.33.69.68.68.39-.02.64-.3.68-.68.08-.88-.3-1.79-.63-2.59-.18-.42-.37-.84-.59-1.24s-.48-.78-.89-.99c-.31-.17-.75-.09-.92.24s-.09.75.24.92h0Z"/>
    <path class="cls-4" d="m58.6,161.24c-1.24-.56-2.51-1.09-3.76-1.63s-2.51-1.14-3.75-1.72-2.56-1.17-3.86-1.71c-.65-.27-1.3-.55-1.96-.8s-1.35-.35-1.93.06c-.54.37-.82,1.02-1.09,1.6-.28.6-.53,1.22-.71,1.86-.17.58-.26,1.24-.05,1.82s.71.98,1.29,1.24c2.52,1.1,5.02,2.23,7.51,3.39,2.86,1.33,5.72,2.65,8.64,3.81.34.13.74-.15.83-.47.11-.38-.13-.7-.47-.83-4.81-1.91-9.42-4.26-14.16-6.34-.55-.24-1.15-.49-1.68-.72-.4-.18-.73-.33-.75-.75-.03-.51.2-1.06.37-1.54.2-.55.44-1.08.73-1.58.08-.14.18-.34.34-.4s.45.06.61.12c.59.21,1.16.46,1.74.7,1.19.5,2.37,1.02,3.54,1.56,1.3.6,2.59,1.23,3.9,1.8s2.65,1.12,3.96,1.72c.33.15.73.1.92-.24.17-.29.09-.77-.24-.92h0Z"/>
    <path class="cls-17" d="m57.7,155.69h78.92c.87,0,.87-1.35,0-1.35H57.7c-.87,0-.87,1.35,0,1.35h0Z"/>
    <path class="cls-17" d="m57.7,154.34c-1.09.02-1.99,1-2,2.08s.97,2.03,2.01,2.24c.35.07.75-.1.83-.47.08-.34-.1-.76-.47-.83-.09-.02-.18-.04-.27-.07-.02,0-.04-.01-.06-.02-.07-.03-.05-.02.04.02,0,0-.11-.05-.12-.06-.08-.04-.15-.09-.22-.13-.12-.08.1.09,0,0-.03-.03-.06-.06-.1-.09-.04-.03-.07-.07-.1-.11-.1-.11.03.06,0,0-.05-.08-.1-.15-.14-.23-.07-.12.05.14,0,0-.01-.04-.03-.08-.04-.12,0-.03,0-.09-.03-.12.01.12.02.15.01.07,0-.02,0-.04,0-.05,0-.04,0-.07,0-.11,0-.16-.03.14,0,.02.02-.07.04-.14.06-.22.04-.13-.07.14,0,.02.02-.03.03-.07.05-.1s.04-.06.06-.1c.07-.11-.11.12,0,0,.04-.04.16-.13.18-.18-.02.05-.12.09-.01.01.03-.02.06-.04.1-.06.02,0,.03-.02.05-.03.05-.02.02-.01-.07.03.04,0,.07-.03.11-.04.03,0,.08,0,.11-.03-.12.01-.14.02-.06,0,.03,0,.05,0,.08,0,.35,0,.69-.31.68-.68s-.3-.68-.68-.68h0Z"/>
    <path class="cls-17" d="m136.88,155.69s.07,0,.1,0l-.18-.02c.09.01.17.04.25.07l-.16-.07c.1.04.19.1.27.16l-.14-.11c.1.08.18.16.26.26l-.11-.14c.08.11.15.23.21.36l-.07-.16c.05.13.09.27.11.41l-.02-.18c0,.08.01.15.01.23,0,.17.07.35.2.48s.31.21.48.2.36-.07.48-.2.2-.29.2-.48c0-.58-.22-1.13-.61-1.56-.32-.35-.79-.6-1.28-.61-.17,0-.36.08-.48.2s-.21.31-.2.48c.02.37.3.67.68.68h0Z"/>
    <path class="cls-23" d="m71.73,194.32c4.63,0,9.27,0,13.9,0,2.71,0,5.43,0,8.14,0,2.02,0,4.05,0,6.07,0,2.56,0,5.11,0,7.67,0,4.32,0,8.63,0,12.95,0,.73,0,1.45,0,2.18,0,.87,0,.87-1.35,0-1.35-4.63,0-9.27,0-13.9,0-2.71,0-5.43,0-8.14,0-2.02,0-4.05,0-6.07,0-2.56,0-5.11,0-7.67,0-4.32,0-8.63,0-12.95,0-.73,0-1.45,0-2.18,0-.87,0-.87,1.35,0,1.35h0Z"/>
    <path class="cls-23" d="m62.73,188.94c.6,1.47,1.57,2.76,2.88,3.67,1.07.75,2.34,1.16,3.61,1.39.83.15,1.67.24,2.51.31.36.03.68-.33.68-.68,0-.39-.31-.64-.68-.68-.87-.07-1.61-.15-2.45-.32-.36-.07-.72-.16-1.07-.27-.18-.06-.36-.12-.54-.18-.19-.07-.21-.08-.42-.18-1.44-.69-2.6-1.9-3.22-3.43-.14-.34-.45-.58-.83-.47-.32.09-.61.49-.47.83h0Z"/>
    <path class="cls-17" d="m57.22,158c.35,4.06.88,8.11,1.52,12.14.65,4.01,1.42,7.99,2.28,11.96.24,1.1.49,2.21.74,3.31.25,1.09.48,2.2.86,3.26.12.34.46.57.83.47.33-.09.59-.49.47-.83-.33-.92-.54-1.89-.76-2.84-.23-.98-.45-1.95-.67-2.93-.43-1.96-.84-3.92-1.23-5.89-.77-3.95-1.44-7.91-1.97-11.9-.29-2.24-.54-4.49-.74-6.74-.03-.36-.29-.68-.68-.68-.34,0-.71.31-.68.68h0Z"/>
    <path class="cls-23" d="m130.36,188.54c-.27.6-.6,1.21-1,1.7-.38.46-.86.93-1.27,1.22-.99.7-2.03,1.03-3.25,1.25-.73.13-1.41.2-2.19.27-.36.03-.68.29-.68.68,0,.34.31.71.68.68,1.4-.12,2.84-.27,4.18-.73,1.27-.44,2.42-1.17,3.31-2.19.58-.66,1.04-1.38,1.4-2.18.15-.33.1-.73-.24-.92-.29-.17-.77-.09-.92.24h0Z"/>
    <path class="cls-4" d="m152.36,158.43c-.09-.52-.87-3.04-1.6-3.41-.74-.38-3.23-.26-4.41-.28-.71-.01-1.91-.03-2.95.03-.33-.3-.72-.49-1.21-.46-.67.04-1.3.37-1.91.62-1.3.53-2.59,1.09-3.87,1.67-1.4.64-2.79,1.33-4.2,1.94-1.42.62-2.84,1.21-4.25,1.84-.33.15-.41.63-.24.92.1.18.26.27.43.31-.15,1.25-.48,3.95-.66,5.27-.08.03-.16.07-.24.1-.34.13-.58.45-.47.83.09.32.49.61.83.47,5.21-2.06,10.19-4.64,15.33-6.84.55-.24,1.15-.42,1.61-.83.12-.1.22-.22.3-.35,0,0,.02,0,.03-.01,1.15-.36,6.7-.95,7.49-1.02s.09-.3,0-.82Z"/>
    <path class="cls-4" d="m142.47,155.67c1.47-.06,2.95-.11,4.42-.17.71-.03,1.42-.06,2.13-.08.56-.02,1.13-.03,1.61.31.3.21.75.05.92-.24.2-.34.06-.71-.24-.92-.57-.4-1.29-.5-1.97-.5-.74,0-1.49.05-2.23.08-1.55.06-3.1.12-4.64.18-.36.01-.68.3-.68.68,0,.36.31.69.68.68h0Z"/>
    <path class="cls-4" d="m144.04,161.09c2.88-.4,5.75-.79,8.63-1.19.36-.05.56-.51.47-.83-.11-.39-.47-.52-.83-.47-2.88.4-5.75.79-8.63,1.19-.36.05-.56.51-.47.83.11.39.47.52.83.47h0Z"/>
    <path class="cls-4" d="m127.57,160.79c-.34,2.22-.63,4.45-.88,6.68-.04.36.34.68.68.68.4,0,.64-.31.68-.68.23-2.11.51-4.22.83-6.32.06-.36-.09-.73-.47-.83-.32-.09-.78.11-.83.47h0Z"/>
    <path class="cls-23" d="m63.3,189.23c4.54,0,9.08,0,13.62.02,4.32.01,8.64.03,12.96.05,4.27.02,8.54.04,12.81.06s8.61.04,12.92.05c4.51.01,9.02.02,13.52.03.58,0,1.17,0,1.75,0,.87,0,.87-1.35,0-1.35-4.54,0-9.08,0-13.62-.02-4.32-.01-8.64-.03-12.96-.05-4.27-.02-8.54-.04-12.81-.06-4.31-.02-8.61-.04-12.92-.05-4.51-.01-9.02-.02-13.52-.03-.58,0-1.17,0-1.75,0-.87,0-.87,1.35,0,1.35h0Z"/>
    <path class="cls-18" d="m118.39,95.97c-2.33,1.24-4.21,3.25-5.46,5.56-.71,1.3-1.31,2.77-1.27,4.27.04,1.31.87,2.85,2.41,2.51.83-.18,1.38-.85,1.78-1.55.44-.78.86-1.58,1.29-2.36s-.75-1.45-1.17-.68c-.33.61-.67,1.22-1,1.83-.25.47-.5,1.08-.98,1.36-.16.1-.3.13-.46.08.02,0-.14-.08-.09-.04-.12-.1-.14-.13-.19-.21-.23-.41-.27-.78-.24-1.29.06-1.22.6-2.38,1.18-3.43.54-.96,1.18-1.85,1.94-2.64.86-.9,1.84-1.66,2.94-2.24.32-.17.42-.62.24-.92-.19-.33-.6-.41-.92-.24h0Z"/>
    <path class="cls-21" d="m97.17,72.21c.11-.05.05-.59-.52-1.36-.57-.74-1.74-1.72-3.58-1.86-1.81-.12-4.11.91-5.17,3.22-.27.59-.37,1.15-.52,1.55-.08.21-.15.36-.24.47-.09.12-.2.21-.27.24-.13.02-.09.07-.33-.17-.22-.26-.4-.69-.57-1.26-1.47-4.41-2.08-8.61-2.31-11.67-.24-3.06-.22-5-.51-5.03-.25-.03-.79,1.88-.9,5.06-.13,3.17.28,7.63,1.83,12.27.18.56.42,1.27.94,1.9.26.32.66.65,1.19.8.51.15,1.1.07,1.53-.16.85-.44,1.26-1.23,1.45-1.84.2-.62.27-1.11.42-1.47.6-1.55,2.18-2.47,3.45-2.52,1.33-.07,2.41.52,3.04.99.64.49.94.89,1.07.82Z"/>
    <path class="cls-21" d="m113.77,59.72c-.29.02-.39,1.49-.7,3.79-.15,1.15-.37,2.51-.69,4-.16.74-.35,1.52-.57,2.32-.11.4-.23.8-.36,1.21-.07.21-.14.43-.21.65,0,0,0,0,0,0,.13.12-.33-.29-.61-.53-.31-.26-.62-.52-.95-.77-.64-.49-1.34-.92-2.05-1.23-1.42-.63-2.94-.77-4.11-.37-1.16.37-1.88,1.12-2.17,1.71-.3.6-.21.99-.1,1.01.14.04.3-.25.69-.58.38-.33,1.03-.72,1.91-.85.85-.13,1.94.08,3.02.67.55.29,1.08.67,1.63,1.13.27.23.55.48.84.74.39.36.78.72,1.18,1.08.39.32.72.39,1.15.36.21-.03.42-.1.59-.21.09-.05.17-.12.23-.18l.15-.31c.17-.37.34-.74.51-1.1l.2-.65c.12-.44.25-.87.35-1.29.21-.85.37-1.68.49-2.48.24-1.59.32-3.04.29-4.26-.05-2.43-.45-3.89-.71-3.87Z"/>
    <path class="cls-21" d="m63.46,77.91c-.55-.03-1.23,4.61-1.51,10.35-.28,5.74-.07,10.42.48,10.45s1.23-4.61,1.51-10.35c.28-5.74.07-10.42-.48-10.45Z"/>
    <path class="cls-6" d="m59.41,80.25c.37-.44-2.31-3.19-4.92-7.04-2.65-3.83-4.25-7.32-4.79-7.13-.51.14.32,4.16,3.14,8.26,2.8,4.11,6.25,6.34,6.57,5.91Z"/>
    <path class="cls-6" d="m138.24,79.53c.43.35,2.62-1.63,4.89-4.42,2.27-2.79,3.77-5.34,3.34-5.68-.43-.35-2.62,1.63-4.89,4.42-2.27,2.79-3.77,5.34-3.34,5.68Z"/>
    <ellipse class="cls-21" cx="134.35" cy="87.31" rx="1" ry="9.66"/>
    <path class="cls-7" d="m112.05,26.4c.11-.13-.99-1.26-3.21-2.45-1.1-.6-2.5-1.15-4.11-1.6-1.61-.41-3.43-.7-5.36-.74-1.93-.02-3.76.22-5.38.58-1.62.4-3.03.91-4.15,1.48-2.25,1.12-3.38,2.21-3.28,2.35.13.2,1.45-.56,3.69-1.37,1.12-.42,2.49-.8,4.03-1.1,1.55-.27,3.26-.45,5.07-.44,1.81.04,3.52.27,5.06.59,1.53.35,2.89.77,3.99,1.22,2.22.88,3.51,1.68,3.65,1.48Z"/>
    <path class="cls-7" d="m88.95,19.5c-.34.23-.08,1.21.59,2.18s1.48,1.56,1.83,1.33.08-1.21-.59-2.18c-.67-.97-1.48-1.56-1.83-1.33Z"/>
    <path class="cls-7" d="m102.97,23.67c.11.02.24-.28.56-.72.32-.44.88-.99,1.7-1.54.81-.57,1.97-1.09,3.08-2.2.55-.57,1.01-1.33,1.19-2.24.19-.89-.04-2.08-.89-2.81-.82-.71-1.87-.89-2.78-.75-.46.07-.91.24-1.3.48-.38.24-.7.53-.96.84-1.04,1.29-1.2,2.77-1.12,3.87.08,1.12.35,1.95.56,2.51.21.56.38.85.48.83.1-.02.12-.36.09-.95-.03-.58-.12-1.42-.07-2.39.05-.96.33-2.11,1.11-2.95.39-.42.87-.71,1.42-.78.56-.07,1.19.07,1.57.42.81.67.45,2.16-.33,3-.8.91-1.89,1.56-2.71,2.29-.83.72-1.37,1.5-1.58,2.11-.21.61-.14.97-.04.99Z"/>
    <path class="cls-7" d="m111.07,21.18c-.32-.27-1.13.18-1.82,1-.68.82-.98,1.7-.66,1.97.32.27,1.13-.18,1.82-1,.68-.82.98-1.7.66-1.97Z"/>
    <path class="cls-7" d="m85.97,23.15c-.27-.04-.78,1.87-1.13,4.26-.35,2.39-.41,4.36-.14,4.4s.78-1.87,1.13-4.26c.35-2.39.41-4.36.14-4.4Z"/>
    <path class="cls-7" d="m112.46,22.9c-.28.02-.34,2.04-.14,4.5.2,2.46.58,4.44.85,4.42.28-.02.34-2.04.14-4.5-.2-2.46-.58-4.44-.85-4.42Z"/>
    <path class="cls-7" d="m36.76,173.48c0-.28-5.39-.36-12.02-.2-6.63.17-12.01.53-12,.8,0,.28,5.39.36,12.02.2,6.63-.17,12.01-.53,12-.8Z"/>
    <path class="cls-7" d="m123.7,159.21c0-.28-14.42-.45-32.2-.39s-32.2.33-32.2.61,14.42.45,32.2.39c17.78-.06,32.2-.33,32.2-.61Z"/>
    <path class="cls-7" d="m177.45,162.58c0-.28-2.37-.56-5.31-.62-2.94-.07-5.33.1-5.34.38,0,.28,2.37.56,5.31.62,2.94.07,5.33-.1,5.34-.38Z"/>
    <path class="cls-16" d="m171.69,175.36s.28.26.9.2c.6-.06,1.5-.47,2.07-1.45.56-.98.69-2.29.51-3.67-.1-.7-.31-1.43-.7-2.13-.39-.68-1.05-1.38-1.98-1.61-.91-.25-1.9.1-2.51.65-.62.56-1,1.27-1.2,1.99-.2.71-.16,1.47.02,2.07.16.62.42,1.15.69,1.59.55.89,1.12,1.49,1.52,1.89.41.39.66.58.71.54.05-.05-.1-.32-.41-.79-.3-.47-.78-1.12-1.2-1.98-.4-.85-.79-1.97-.44-3.08.17-.55.49-1.1.95-1.5.46-.38,1.04-.58,1.63-.42,1.18.3,1.81,1.74,2.01,2.91.2,1.22.15,2.4-.23,3.2-.37.81-1.04,1.25-1.52,1.4-.49.16-.8.1-.82.18Z"/>
    <path class="cls-21" d="m113.52,125.23c.29-.29-1.66-2.72-4.35-5.43-2.7-2.71-5.12-4.66-5.42-4.37-.29.29,1.66,2.72,4.35,5.43,2.7,2.71,5.12,4.66,5.42,4.37Z"/>
    <path class="cls-1" d="m117.86,118.66c.06-.06-.22-.48-.77-1.17-.28-.34-.62-.75-1.02-1.22-.2-.23-.42-.48-.64-.74-.11-.13-.23-.26-.35-.4-.1-.11-.06-.08-.09-.12l.05-.03.02-.02.12-.12c.16-.15.33-.31.5-.47.34-.32.69-.66,1.05-1.01.72-.7,1.47-1.45,2.26-2.22.7-.71,1.38-1.39,2.03-2.05.32-.33.63-.65.93-.96.15-.16.3-.31.44-.46.1-.1.1-.1.1-.11l.03-.04.03.02s.01,0,.11.09c.15.13.29.26.43.39.28.25.55.49.8.71.51.44.95.83,1.33,1.14.75.62,1.21.94,1.28.87s-.28-.51-.92-1.24c-.32-.36-.72-.79-1.19-1.28-.23-.24-.48-.5-.74-.77-.36-.36-.74-.74-1.14-1.14-.68.65-1.4,1.35-2.17,2.1-.65.64-1.34,1.32-2.05,2.02-.77.78-1.52,1.54-2.23,2.25-.8.83-1.55,1.6-2.24,2.31.23.23.46.46.68.69.13.13.26.25.38.37.25.24.48.47.7.68.44.42.84.79,1.16,1.08.66.59,1.06.89,1.12.83Z"/>
    <path class="cls-8" d="m74.15,135.11c-.17-.22-1.59.58-3.18,1.79-1.59,1.21-2.75,2.36-2.58,2.58.17.22,1.59-.58,3.18-1.79,1.59-1.21,2.75-2.36,2.58-2.58Z"/>
    <path class="cls-8" d="m76.73,137.66c-.24-.14-1.14.91-2.02,2.35s-1.4,2.73-1.17,2.87c.24.14,1.14-.91,2.02-2.35s1.4-2.73,1.17-2.87Z"/>
    <path class="cls-8" d="m80.09,134.24c-.04.05.07.2.28.41.11.11.25.23.41.37.08.07.17.14.26.22.05.05.07.08.1.11l-.04.08-.02.03-.04.12c-.06.16-.12.33-.18.51-.12.36-.25.74-.39,1.14-.27.81-.55,1.72-.83,2.68-1.05,3.59-1.69,6.57-1.43,6.65s1.33-2.77,2.39-6.37c.28-.96.53-1.88.75-2.7.22-.92.42-1.74.58-2.41-.19-.11-.37-.22-.54-.32-.11-.06-.21-.11-.3-.16-.19-.1-.36-.18-.5-.24-.28-.12-.45-.16-.49-.11Z"/>
    <path class="cls-8" d="m117.62,102.86c-.09-.1-.53.08-.93-.42-.44-.44-.21-1.27.41-2.32,1.14-2.12,1.87-3.94,1.62-4.07-.24-.13-1.36,1.48-2.5,3.59-.28.53-.58,1.1-.64,1.74-.02.32,0,.62.13.93.13.29.32.5.52.65.4.3.86.33,1.12.21.27-.12.32-.28.28-.33Z"/>
    <path class="cls-8" d="m112.75,107.95c.09-.12-.17-.45-.46-1-.29-.55-.57-1.36-.61-2.29-.03-.93.18-1.76.42-2.34.24-.58.47-.93.37-1.04-.08-.09-.52.09-.98.68-.46.58-.86,1.59-.81,2.74.05,1.14.53,2.12,1.03,2.66.51.55.96.7,1.03.6Z"/>
    <path class="cls-8" d="m109.57,109.84c.16-.24-.7-1.06-1.13-2.38-.47-1.3-.29-2.48-.56-2.57-.12-.04-.36.23-.5.76-.15.53-.16,1.32.11,2.13.28.8.77,1.42,1.21,1.75.44.34.79.41.86.3Z"/>
    <path class="cls-8" d="m122.99,96.44c-.16.23.15.79.03,1.53-.08.75-.53,1.2-.44,1.46.05.12.32.16.66-.05.34-.2.69-.68.77-1.28.08-.59-.12-1.15-.4-1.43-.27-.29-.54-.33-.62-.23Z"/>
    <path class="cls-8" d="m127.88,98.71c-.26.1-.3.77-.8,1.37-.47.63-1.11.81-1.15,1.09,0,.13.21.29.62.27.4-.01.94-.26,1.32-.73.38-.48.49-1.06.42-1.45-.07-.4-.28-.58-.4-.54Z"/>
  </g>
</svg>