<svg xmlns="http://www.w3.org/2000/svg" viewBox="0 0 200 200"><defs><style>.cls-1{fill:none}.cls-2{fill:#6a4a6b}.cls-3{fill:#f6c243}.cls-4{fill:#e4c7bd}.cls-5{fill:#fff}.cls-6{fill:#fbae5e}.cls-7{fill:#e5a355}.cls-10{fill:#c1dade}.cls-12{fill:#ce9352}.cls-14{fill:#5b3d5b}.cls-15{fill:#78577a}</style></defs><path d="M188.47 56.12C127.68 8.9 105.13 118.3 83.29 62.29 76.72 32.35 37.35 27.7 14.41 41.18c-19.93 31.76-3.46 89.89 29.83 108.43 56.17 43.75 180.35-20.16 144.23-93.48Z" style="fill:#efedea" id="BG_Strong"/><g id="Illustrations"><g id="Layer_4"><path class="cls-3" d="M42.21 43.84c-.13-.16-.23-.32-.31-.5 0-.06.01-.12 0-.18.51-.24.4-1.21-.32-1.26-1.49-.11-2.37 1.73-1.3 2.8.44.44 1.42.7 1.92.2.31-.31.27-.75 0-1.07ZM47.83 61.21c-.29-1.33-.65-2.64-1.01-3.96.17-.19.24-.46.09-.74l-.63-1.23c-.19-.73-.38-1.45-.54-2.19-.16-.72-.48-1.49-1.32-1.53-.11 0-.19.02-.27.05-.12-.17-.25-.35-.38-.52-.22-.28-.51-.28-.74-.12-.28-.24-.77-.29-1.06.09-.56.75-.23 1.76.33 2.4.28.32.64.56 1.03.72.32.13.72.12 1.03.25.4.75.78 1.51 1.15 2.26.44 1.6.89 3.19 1.24 4.81.15.69 1.21.4 1.06-.29Z"/></g><path class="cls-4" d="M47.3 72.1s.38-5.12.3-7.15c-.08-2.03-.78-8.73-1.13-10.1-.35-1.37-1.24-3.7-1.24-3.7s-3.92.63-4.85-.8c-.93-1.44-1.7-3.12-1.19-3.99s.49-1.24 2.05-1.55c1.56-.32 2.07-.31 2.07-.31s3.1-4.73 4.28-6.32c1.18-1.59 4.75-4.74 8.22-5.63 3.47-.89 6.65-1.43 8.98-1.05s5.72 2.01 7.13 3.74c1.41 1.73 2.06 5.21 2.16 6.35.1 1.14.11 8.2-.24 9.99-.35 1.79-1.74 6.7-2.54 8.23-.8 1.53-2.07 3.37-2.45 3.73-.37.35-1.21 1.41-1.21 1.41l-.77 8.24s-8.05.53-10.39.33-7.32-.48-7.63-.67-1.57-.75-1.57-.75Z" id="Layer_7"/><g id="Chef"><path class="cls-4" d="M56.25 133.9c-.07-.21-3-17.4-3-17.4s10.46-4.31 12.02-4.74c1.56-.43 5.23-1.96 5.23-1.96s.72 9.2.97 10.45c.25 1.26.65 3.58.65 3.58s-5.87 3.38-8.12 4.85c-2.25 1.47-7.75 5.21-7.75 5.21ZM115.37 113.58c.53-.56 7.84-7.88 8.17-8.21s4.73-4.2 4.73-4.2l4.58 8.01 2.36 3.6v1.43l-4.72-.14-.12 6.78-4.72 6.62-.23-6.16h-5.53l-4.52-7.73Z"/><path class="cls-5" d="m149.28 113.69.54-3.46s1.54.03 2.16-.35.91-1.44.91-1.44l-.38-.88 2.45-.41-.21 7.07-5.48-.53Z"/><path class="cls-2" d="M52.15 113.87c1.27 6.42 2.34 12.89 3.36 19.36.28 1.78.55 3.55.83 5.33.05.32.44.49.73.41.34-.09.46-.41.41-.73-1-6.47-2.01-12.94-3.18-19.39-.32-1.77-.66-3.54-1-5.3-.06-.31-.44-.49-.73-.41-.33.09-.48.41-.41.73Z"/><path class="cls-14" d="M134.71 112.43c-.21.27-.41.53-.61.8a.44.44 0 0 0-.07.22c-.02.08-.01.16.01.24.02.08.05.14.11.2.04.06.1.12.17.15.14.07.3.11.46.06l.14-.06a.53.53 0 0 0 .21-.21c.15-.2.3-.41.46-.61l-.09.12s.04-.05.05-.07c.06-.05.1-.12.12-.19.04-.07.05-.15.05-.23 0-.08-.01-.16-.05-.23a.387.387 0 0 0-.12-.19.59.59 0 0 0-.42-.17l-.16.02c-.1.03-.19.08-.26.15ZM129.6 120.32c-1.47 2.3-3.14 4.47-4.57 6.79-.4.65.62 1.24 1.02.6 1.43-2.32 3.09-4.5 4.57-6.79.41-.64-.61-1.24-1.02-.6Z"/><path class="cls-6" d="m149.25 110.15-.54 3.39c-.05.3.08.65.41.73.28.07.67-.09.73-.41l.54-3.39c.05-.3-.08-.65-.41-.73-.28-.07-.67.09-.73.41Z"/><path class="cls-2" d="M120.39 120.56c-2.09-3.17-4.22-6.31-6.37-9.44-.18-.26-.52-.38-.81-.21-.05.03-.1.07-.14.12-.04.02-.07.05-.1.09-1.26 1.56-2.51 3.14-3.74 4.73-.16.21-.08.51.08.7v4.71l10.2.07c.19.15.44.18.66.05.27-.16.39-.54.21-.81ZM127.43 131.99l.03-.06c0-.02.01-.03.02-.05v-.03c.02-.11.01-.21-.03-.32v-.02c0-.02-.02-.04-.03-.06v-.02s-.01-.02-.02-.03l-1.23-1.95c-.17-.26-.53-.39-.81-.21s-.39.53-.21.81c.34.54.69 1.08 1.03 1.63-.34.38-.69.75-1.03 1.13a.607.607 0 0 0 0 .84c.11.1.26.18.42.17s.31-.06.42-.17c.45-.49.9-.99 1.35-1.48.04-.05.08-.1.11-.16v-.02Z"/><path class="cls-6" d="M97.32 105.35c1.22-.2 2.48.29 3.43 1.04 1.07.85 1.78 2.04 2.21 3.33.82 2.44.85 5.11.91 7.66.03 1.29.05 2.57.03 3.86-.01.76 1.17.76 1.18 0 .04-2.4 0-4.82-.18-7.21-.23-3.01-.8-6.39-3.26-8.42-1.31-1.09-2.94-1.68-4.65-1.4-.32.05-.49.44-.41.73.09.34.41.46.73.41Z"/><path class="cls-5" d="M122.63 159.58c.85 5.55 1.63 11.11 2.09 16.71.13 1.64.24 3.28.33 4.92.02.32.26.59.59.59.31 0 .61-.27.59-.59-.29-5.71-.93-11.4-1.74-17.06-.23-1.63-.48-3.26-.73-4.89-.05-.32-.44-.49-.73-.41-.34.09-.46.41-.41.73Z"/><path class="cls-2" d="M103.12 120.7c-1.25-3.47-2.64-6.89-4.05-10.3-.12-.3-.39-.51-.73-.41-.07.02-.14.06-.21.11l-3.25-7.93s.05-.02.07-.03c.29-.17.35-.52.21-.81-1.65-3.37-3.45-6.69-5.55-9.81-.52-.77-1.06-1.53-1.62-2.27-.02-.02-.04-.04-.05-.06-.01-.02-.03-.04-.04-.06-1.65-2.09-3.59-3.9-5.77-5.43-2.18-1.53-4.56-2.75-6.96-3.87-1.52-.71-3.06-1.38-4.6-2.04-.06-.03-.12-.04-.18-.05l.6-4.81c.09-.14.12-.32.08-.48-.09-.33-.41-.48-.73-.41a52.669 52.669 0 0 1-20.02.14c-1.88-.35-3.73-.81-5.56-1.36h-.03a.596.596 0 0 0-.28-.08c-.35 0-.56.27-.59.59a39.9 39.9 0 0 1-1.08 5.73c-6.2 2.39-12.69 4.95-17.49 9.73-2.59 2.58-4.34 5.71-5.58 9.13-1.18 3.25-2.02 6.62-2.92 9.96a449.85 449.85 0 0 0-4.99 20.42c-1.57 7.14-2.96 14.32-4.07 21.54-1.03 6.74-1.85 13.53-2.15 20.34-.04.77-.06 1.54-.08 2.32 0 .16.05.28.12.38l.06.06c.02.01.03.02.05.04.01 0 .02.01.03.02.03.01.05.03.08.04.02 0 .04.02.07.02 3.88.93 7.79 1.76 11.72 2.47 3.93.71 7.85 1.3 11.79 1.77 3.93.47 7.88.83 11.84 1.05 3.93.22 7.87.32 11.8.28 3.89-.04 7.77-.21 11.65-.53.49-.04.98-.08 1.47-.13.32-.03.59-.25.59-.59 0-.28-.24-.58-.54-.59l2.7-32.5-2.75-14.79 8.91-6.16 26.79-.45s.04.1.05.15c.11.3.4.5.73.41.29-.08.52-.43.41-.73Z"/><path class="cls-14" d="M56.67 43.58c.85 0 .85-1.31 0-1.31s-.85 1.31 0 1.31ZM68.39 43.44h.14c.09 0 .18-.02.25-.06.08-.03.15-.07.21-.14.06-.06.11-.13.14-.21.04-.08.06-.16.06-.25l-.02-.18a.657.657 0 0 0-.17-.29l-.13-.1a.63.63 0 0 0-.33-.09h-.14c-.09 0-.18.02-.25.06-.08.03-.15.07-.21.14-.06.06-.11.13-.14.21-.04.08-.06.16-.06.25l.02.18c.03.11.09.21.17.29l.13.1c.1.06.21.09.33.09Z"/><path class="cls-4" d="M69.64 110.57s-5.62 1.66-6.06 1.81c-.44.15-10.16 3.7-10.87 3.98s2.11 5.46 2.11 5.46c.19 2.06-.89 4.43-.11 6.34s1.44 5.13 1.44 5.13l7.08-4.01 7.19-3.97 1.73-1.48 1.24-5.83-3.73-7.43Z"/><path class="cls-3" d="M96.69 102.05c0 .08 0 .17-.01.25v.1-.02c-.03.14-.05.28-.08.41-.03.12-.11.26-.13.38.02-.14.03-.06 0-.01-.02.03-.03.06-.05.1-.03.06-.06.11-.1.17s-.07.11-.11.16c-.01.02-.08.1-.02.03s-.02.02-.03.04c-.09.1-.18.2-.28.29-.05.05-.1.09-.16.14-.09.07.1-.07 0 0-.03.02-.05.04-.08.06-.13.09-.26.17-.4.25-.27.15-.38.54-.21.81s.52.37.81.21c.6-.34 1.14-.79 1.5-1.38.36-.59.51-1.29.53-1.98.01-.31-.28-.6-.59-.59-.33.02-.58.26-.59.59Z"/><path class="cls-10" d="M98.54 109.94c-.96-.36-1.96-.64-2.97-.83-.3-.06-.65.08-.73.41-.07.29.09.67.41.73 1.01.19 2 .47 2.97.83.29.11.66-.12.73-.41.08-.34-.1-.61-.41-.73Z"/><path class="cls-10" d="m97.33 109.37-.05-.35a.397.397 0 0 0-.11-.2.413.413 0 0 0-.17-.15.44.44 0 0 0-.22-.07.489.489 0 0 0-.24.01l-.14.06a.53.53 0 0 0-.21.21l-.06.14a.58.58 0 0 0 0 .32l.05.35c.02.08.05.14.11.2.04.06.1.12.17.15.07.04.14.07.22.07.08.02.16.01.24-.01l.14-.06a.53.53 0 0 0 .21-.21l.06-.14a.58.58 0 0 0 0-.32ZM145.09 106.82s.07-.18.03-.1c.03-.07.04-.07.01-.04.08-.09.11-.12.17-.16.21-.13.41-.19.66-.25.58-.13 1.2-.11 1.81 0 1.18.2 2.47.47 3.48 1.14.39.26.95.7.99 1.21.01.13-.04.28-.15.43-.11.14-.29.27-.47.34-.59.23-1.29.1-1.89-.04-.67-.16-1.34-.35-1.99-.58-.68-.24-1.33-.55-1.93-.97-.23-.16-.45-.35-.6-.59 0-.01-.01-.03-.02-.04-.02-.05-.02-.05 0 .01-.02-.04-.03-.08-.04-.12-.02-.04-.03-.09-.04-.14 0-.01-.02-.16-.03-.11.05-.32-.08-.64-.41-.73-.28-.08-.68.09-.73.41-.24 1.64 1.51 2.59 2.78 3.12.77.33 1.58.57 2.39.78s1.77.4 2.64.18c.71-.18 1.35-.69 1.58-1.4.27-.81-.16-1.61-.72-2.18-1.08-1.09-2.66-1.51-4.12-1.8-.95-.19-1.91-.29-2.86-.07-.74.17-1.5.58-1.69 1.37-.18.74.96 1.05 1.14.32Z"/><path class="cls-14" d="M74.24 37.99c-.06-.35-.49-.55-.81-.46-.37.1-.52.46-.46.81.94 5.27 1 10.73-.35 15.94-.65 2.5-1.57 5.06-2.98 7.24-.61.95-1.38 1.83-2.34 2.45-.89.57-1.93.93-2.95 1.06-2.55.34-5.2-.38-7.52-1.41-.32-.14-.71-.09-.9.24-.16.28-.09.76.24.9 2.28 1.01 4.76 1.74 7.27 1.66 1.21-.04 2.4-.28 3.51-.77-.24 3.07-.44 6.15-.6 9.23-.02.35.32.66.66.66.37 0 .64-.3.66-.66.17-3.31.39-6.63.65-9.93v-.07c.61-.44 1.16-.96 1.64-1.55.83-1.02 1.47-2.17 2.03-3.37.6-1.3 1.12-2.63 1.54-4 .83-2.7 1.29-5.51 1.43-8.32.16-3.23-.12-6.47-.69-9.65ZM48.22 63.9c-.11-2.99-.41-5.99-1.04-8.91-.28-1.29-.63-2.57-1.13-3.8-.05-.12-.13-.23-.22-.32-.13-.3-.45-.42-.77-.37-.85.14-1.74.25-2.6.15-.81-.1-1.35-.41-1.81-1.02-.46-.61-.8-1.29-.92-2.03-.05-.3-.02-.68.08-1.01.09-.31.25-.59.51-.8.67-.54 1.74-.37 2.57-.19.35.07.71-.1.81-.46.09-.33-.11-.73-.46-.81-1.1-.24-2.31-.38-3.34.17-.96.51-1.46 1.58-1.51 2.64-.04.99.37 1.99.89 2.81.56.88 1.28 1.58 2.31 1.85 1.08.29 2.21.2 3.31.04.86 2.2 1.31 4.61 1.6 6.93.39 3.1.52 6.24.41 9.37-.06 1.81-.2 3.61-.44 5.4-.05.35.34.66.66.66.39 0 .61-.3.66-.66.42-3.19.54-6.43.43-9.65Z"/><path class="cls-3" d="M47.02 43.63c0-1.22-.07-2.45-.1-3.67-.02-.8-1.21-.84-1.31-.12-.59 1.04-1.23 2.29-1.26 3.53-.52-.19-1.2.35-.82.93.51.78 2.06 3.3 3.06 1.74.43-.67.44-1.65.43-2.41Z"/><path d="M40.32 40.94c.58 1.52 1.43 2.94 2.18 4.38.16.32.6.41.9.24.16-.09.26-.24.3-.41.94-2.65 2.51-5.09 4.49-7.1 1.98-2.01 4.4-3.62 7.04-4.6 1.04-.39 2.12-.69 3.2-.94.53-.12 1.05-.23 1.59-.32l.4-.06.14-.02s.11-.02.14-.02c.28-.04.55-.06.83-.09 1.09-.09 2.19-.09 3.27.04.05 0 .1.01.14.02.02 0 .08.01.11.02a11.758 11.758 0 0 1 1.23.25c.26.07.51.14.76.22.12.04.25.09.37.13.06.02.11.04.17.07a9.63 9.63 0 0 1 1.57.81c.51.33.8.56 1.25.98.92.87 1.58 1.8 2.17 2.95.14.28.29.59.41.87.09.21.24.38.44.45.16.09.35.11.51.07.38-.1.51-.46.46-.81-.21-1.47-.55-2.92-.91-4.35-.4-1.6-.85-3.19-1.34-4.77-.21-.67-.43-1.34-.67-2.01-1.68-4.84-6.97-8.31-11.46-8.35-4.79-.04-10.15 3.39-15.57 8.53-5.42 5.14-5.22 10.92-4.11 13.83Z" style="fill:#ff8000"/><path class="cls-14" d="M113.81 116.14c3.57-3.95 7.36-7.68 11.2-11.36 1.11-1.06 2.22-2.13 3.33-3.19.55-.53-.29-1.36-.84-.84-3.85 3.68-7.71 7.34-11.4 11.19-1.06 1.1-2.1 2.22-3.13 3.36-.51.56.32 1.4.84.84Z"/><path class="cls-10" d="M164.15 96.8c-.48-.56-1.11-.91-1.77-1.18-.71-.28-1.46-.41-2.22-.49-.04 0-.08-.01-.12-.02.32-.28.6-.6.78-.99.18-.37.29-.79.26-1.2-.02-.26-.07-.51-.26-.7-.06-.05-.12-.09-.18-.13a.474.474 0 0 0-.19-.18c-1.37-.83-3.07-.52-4.59-.61-1.65-.09-3.28-.36-4.93-.37h-.03c-1.56 0-3.12 0-4.67.06s-3.03.15-4.5.47c-.58.12-1.14.32-1.71.47-.32.08-.64.15-.95.24-.5.15-.98.35-1.46.54-.82.34-1.61.69-2.37 1.16-1.57.97-2.9 2.25-4.24 3.5-.88.85-1.76 1.7-2.64 2.54-.11-.21-.21-.43-.32-.64-.14-.29-.55-.36-.81-.21-.29.17-.35.52-.21.81 1.86 3.84 3.94 7.56 6.3 11.12.7 1.05 1.42 2.09 2.16 3.12.19.26.51.38.81.21.26-.15.4-.55.21-.81-.18-.26-.36-.51-.54-.77.66-.82 1.35-1.62 2.04-2.43.58.41 1.22.74 1.9.96 1.18.38 2.45.48 3.68.5.81.02 1.62-.13 2.41-.27 1-.17 2-.37 3-.55.52-.09 1.04-.19 1.56-.26.04 0 .07-.01.11-.02h.02-.02c.04 0 .07 0 .1-.01l.29-.03c.17-.02.34-.03.52-.03.56 0 .7-.63.45-.97.3-.17.57-.39.79-.72.25-.38.01-.92-.28-1.37.8.2 1.64.33 2.46.16.77-.16 1.5-.71 1.73-1.49.19-.63-.03-1.24-.39-1.76.65.13 1.32.19 1.97.05.77-.16 1.5-.71 1.73-1.49.26-.89-.26-1.73-.88-2.32-.3-.29-.63-.53-.98-.74.81.14 1.63.21 2.45.22.8 0 1.61-.06 2.4-.2.69-.12 1.43-.4 1.71-1.11s-.09-1.52-.57-2.08Z"/><path class="cls-12" d="M137.01 163.6c-.03-2.35.24-15.38.51-19.07.27-3.69.51-30.46.51-30.46h-.25c.07-.33-.11-.73-.55-.73h-6.76c-.39 0-.58.31-.57.61 0 .04-.01.08-.02.13s-.51 23.52-.51 23.52c-.17 7.81-.38 15.63-.5 23.44-.06 4.31 0 8.64.69 12.91.04.28.36.45.63.43H137c.38 0 .57-.3.57-.59h.11s-.66-7.85-.68-10.19Z"/><path class="cls-6" d="M189.35 158.28c-.21-5.13-.4-10.27-.63-15.4-.13-2.86-.27-5.72-.43-8.58.02-.06.04-.12.04-.18a404.977 404.977 0 0 1 1.87-19.85c.21-.35.05-.93-.48-.93-2.79 0-5.59 0-8.38.02-3.36 0-6.73.02-10.09.04-3.65.01-7.3.03-10.95.04-3.67.01-7.34.03-11 .04-3.37 0-6.74.02-10.12.02h-1.11c-.05 0-.1 0-.15.01-.02 0-.04 0-.05.01-.02 0-.04.01-.06.02-.01 0-.03.01-.04.02-.18.08-.32.25-.32.51l-.51 23.47c-.17 7.81-.38 15.61-.5 23.42-.07 4.35 0 8.7.69 13 .05.32.44.49.73.41h.01c.05.02.11.03.17.03h51.45c.2 0 .35-.08.44-.2.1-.11.16-.24.15-.39-.29-5.17-.52-10.34-.73-15.52ZM125.56 180.53l-2.3-20.52c.31-.03.49-.29.53-.59.6-4.94 1.07-9.89 1.43-14.85.35-4.94.59-9.89.7-14.85.06-2.78.09-5.57.08-8.35.07-.33-.12-.72-.56-.72h-16.13c.01-.94.03-2.88-.06-4.94-.12-2.88-1.06-5.92-2.22-8.47-.93-2.04-3.27-3.4-4.49-4.49-1.22-1.09-4.55-.42-4.55-.42l-1.59 2.41s1.75 0 2.74.18 1.72.86 2.32 1.35c.6.49 1.54 2.07 2.22 3.85.57 1.5.75 8.46.79 10.55H91.12c-.58 0-.72.7-.4 1.02-.49.19-1.04.41-1.4.53-.77.27-6.7 1.77-7.86 1.77-1.16 0-4.99-2.39-4.99-2.39l-1.35.48 2.75 20.21-2.71 38.05h-.05c-.76 0-.76 1.18 0 1.18 3.29 0 6.58 0 9.88.02 3.58.01 7.16.03 10.74.05 3.58.02 7.2.04 10.8.05 3.3.02 6.59.04 9.89.05 2.72.01 5.44.02 8.16.02h.84c.72 0 .76-1.05.12-1.17Z"/><path class="cls-12" d="M78.46 142.11c-.99-5.15-1.77-10.35-2.31-15.56-.16-1.5-.29-2.99-.41-4.49-.03-.32-.25-.59-.59-.59-.3 0-.62.27-.59.59 0 .11.02.23.03.34l-7.32 4.45c-.06-.27-.27-.49-.57-.49s-.63.27-.59.59c.43 4.05 1 8.08 1.69 12.09.19 1.08.39 2.16.59 3.24-.02.06-.04.13-.04.19l-1.05 15.01-1.04 14.95-.59 8.48c0 .14.05.27.14.38.08.18.25.31.51.31 2.94 0 5.89-.09 8.83-.1.04 0 .08 0 .12-.01.15-.03.26-.11.33-.21.08-.1.13-.23.14-.37l1.05-15.01 1.05-14.95c.2-2.82.4-5.65.59-8.47.04-.11.05-.24.03-.36Z"/><path class="cls-14" d="M50.73 118.35c4.92-2.26 9.96-4.24 15.03-6.15 1.46-.55 2.92-1.1 4.39-1.64.3-.11.5-.4.41-.73-.08-.29-.43-.53-.73-.41-5.2 1.94-10.39 3.88-15.49 6.05-1.41.6-2.81 1.22-4.2 1.86-.29.13-.36.55-.21.81.18.3.52.35.81.21ZM71.44 123.38c-4.85 2.75-9.44 5.91-14.01 9.09-1.35.94-2.69 1.88-4.04 2.81-.26.18-.38.52-.21.81.15.26.55.39.81.21 4.63-3.2 9.21-6.49 13.99-9.47 1.34-.83 2.69-1.65 4.06-2.42.66-.38.07-1.4-.6-1.02Z"/><path class="cls-10" d="M102.01 106.77c-.16-.71-.64-1.31-1.23-1.71-.68-.46-1.56-.59-2.36-.58-.42 0-.84.05-1.26.09H96.46l.63-1.95h.19c.32.02.59-.28.59-.59 0-.34-.27-.57-.59-.59-.89-.05-1.78-.05-2.67-.09-.98-.04-1.97-.13-2.95-.02-1.54.17-3.05.79-4.61.8-.04 0-.08-.02-.11-.02-1.99-.23-3.81.5-5.48 1.51-.82.49-1.64 1-2.43 1.53-.6.4-1.16.85-1.76 1.24-.74.49-1.54.83-2.37 1.11h-.01c-1.33.5-2.64 1.02-3.97 1.52 0-.21-.02-.41-.03-.62-.03-.76-1.22-.76-1.18 0 .19 4.32.62 8.62 1.39 12.88.23 1.26.48 2.51.74 3.75.07.31.43.5.73.41.32-.09.48-.41.41-.73-.05-.25-.11-.51-.16-.76 1.18-.65 2.37-1.28 3.57-1.89.03-.01.05-.03.07-.05.92.43 1.72 1.1 2.58 1.63.58.35 1.21.66 1.87.81.84.18 1.71.12 2.55-.01.84-.14 1.73-.39 2.59-.62.86-.23 1.67-.5 2.51-.79.74-.25 1.51-.4 2.19-.78.63-.36 1.17-.89 1.45-1.56.14-.33.17-.71.32-1.03.12-.24.28-.3.51-.36.63-.18 1.29-.21 1.8-.68.5-.47.58-1.22.63-1.89.04-.56.09-.98.68-1.23.33-.14.68-.23 1.01-.38s.64-.37.9-.62c.51-.49.9-1.16 1.03-1.86.07-.37.09-.74.05-1.12-.02-.22-.06-.44-.06-.66 0-.07 0-.14.03-.2 0-.03.02-.06.03-.09v-.02c.1-.21.18-.29.39-.46-.01.01.1-.07.11-.08.05-.04.1-.07.16-.1.12-.07.23-.14.35-.21.48-.28.99-.56 1.37-.98.48-.54.66-1.23.5-1.94Z"/><path class="cls-14" d="M64.34 44.31c.23 1.84.55 3.67.99 5.48.11.44.22.89.34 1.33.02.08.12.48.13.48.11-.21.12-.26.02-.15.03-.02.02-.02-.02.01-.09.07-.18.12-.27.18-.67.43-1.39.74-2.17.93-.82.21-.47 1.47.35 1.27.9-.23 1.78-.6 2.56-1.12.41-.27.84-.58.84-1.13 0-.25-.09-.49-.15-.73s-.13-.48-.19-.71c-.5-1.92-.88-3.87-1.12-5.84-.04-.35-.27-.66-.66-.66-.32 0-.7.3-.66.66Z"/><path d="M58.91 53.98c.12 1.18 1.01 2.02 2.06 2.47s2.22.51 3.29.14c.34-.11.56-.45.46-.81-.09-.33-.47-.57-.81-.46-.8.27-1.54.26-2.34-.04-.11-.04-.07-.03-.18-.08s-.2-.1-.29-.16-.18-.11-.26-.18c-.09-.07.06.05-.03-.02-.04-.04-.09-.07-.13-.11-.07-.07-.14-.14-.21-.22-.07-.09.04.06-.02-.03-.02-.04-.05-.07-.07-.11-.03-.05-.05-.1-.08-.15.03.06 0 0-.01-.03-.02-.05-.03-.11-.05-.16 0-.02-.02-.16-.01-.06-.04-.35-.28-.66-.66-.66-.33 0-.69.3-.66.66Z" style="fill:#b7957e"/></g><g id="Layer_9"><path class="cls-1" d="M184.06 165.57c.25-5.85.44-13.34.04-17.75-.02-.24-.06-.34-.06-.34a.74.74 0 0 0-1.12-.33s-.09.05-.22.19c0 0-4.62 4.72-5.6 18.73 0 0-.02.2.03.37.08.29.31.52.69.59l2.41.33c.21.03.37.19.37.41 0 0-.11 2.36-.57 6.56v.04h3.58c.03-.44.26-4.15.46-8.81ZM160.81 173.91c-.83-3.57-1.49-17.34-1.52-17.96a1.2 1.2 0 0 0-.87-1.02l-3.49-.67c-.52-.13-.9-.6-.9-1.17 0-.18.04-.36.11-.51.26-.67 6.93-12.84 19.05-20.32.5-.33 1.09-.53 1.74-.53.65 0 1.24.19 1.74.53 2.62 1.62 4.99 3.46 7.09 5.35s.02.01.03.01c.02 0 .04-.02.04-.04v-1.22c0-.41.33-.74.74-.74h.09l3.51.43c.07 0 .15.03.22.05-.03-.6-.06-1.21-.1-1.81.02-.06.04-.12.04-.18a404.977 404.977 0 0 1 1.87-19.85c.21-.35.05-.93-.48-.93-2.79 0-5.59 0-8.38.02-3.36 0-6.73.02-10.09.04-3.65.01-7.3.03-10.95.04-3.67.01-7.34.03-11 .04-3.37 0-6.74.02-10.12.02h-1.11c-.05 0-.1 0-.15.01-.02 0-.04 0-.05.01-.02 0-.04.01-.06.02-.01 0-.03.01-.04.02-.18.08-.32.25-.32.51l-.51 23.47c-.17 7.81-.38 15.61-.5 23.42-.07 4.35 0 8.7.69 13 .05.32.44.49.73.41h.01c.05.02.11.03.17.03h23.02c-.12-.14-.2-.29-.25-.47Z"/><path class="cls-1" d="M171.7 171.26c-.32-3.51-.23-4.23-.23-4.23.02-.23.13-.43.31-.55a3.76 3.76 0 0 0 1.63-3.11V163.2c-.18-4.71-.26-10.09 0-14.33v-.05c0-.39-.33-.7-.71-.69a.7.7 0 0 0-.69.66c-.18 2.91-.19 6.35-.13 9.75 0 .46-.36.83-.82.84-.46 0-.83-.36-.85-.81-.06-3.38-.05-6.8.12-9.7v-.05c0-.39-.33-.7-.71-.69a.7.7 0 0 0-.69.66c-.18 2.92-.19 6.38-.13 9.8 0 .46-.36.84-.82.85s-.84-.36-.85-.82c-.06-3.4-.05-6.84.12-9.75v-.05c0-.39-.33-.7-.71-.69a.7.7 0 0 0-.69.66c-.27 4.37-.17 9.95.01 14.78.07 1.29.78 2.41 1.83 3.04.2.12.34.34.35.59 0 .07 0 .16.01.24.14 2.89.32 5.64.4 6.85s0 .07 0 .09h3.56s0-.04-.01-.05c-.05-.48-.17-1.54-.32-3.07Z"/><path class="cls-5" d="M180.59 167.78c0-.21-.16-.37-.37-.41l-2.41-.33c-.38-.07-.61-.3-.69-.59-.05-.18-.03-.37-.03-.37.98-14.01 5.6-18.73 5.6-18.73.14-.14.22-.19.22-.19.12-.09.27-.14.43-.14.31 0 .58.2.69.47 0 0 .04.1.06.34.4 4.4.2 11.9-.04 17.75-.2 4.66-.43 8.38-.46 8.81h5.89c.2 0 .35-.08.44-.2.1-.11.16-.24.15-.39-.29-5.17-.52-10.34-.73-15.52-.21-5.13-.4-10.27-.63-15.4-.1-2.26-.21-4.52-.34-6.77-.07-.02-.14-.04-.22-.05l-3.51-.43h-.09c-.41 0-.74.33-.74.74v1.22s-.02.04-.04.04c-.01 0-.02 0-.03-.01-2.1-1.89-4.47-3.73-7.09-5.35-.5-.33-1.09-.53-1.74-.53-.65 0-1.24.19-1.74.53-12.12 7.48-18.8 19.65-19.05 20.32-.07.16-.11.33-.11.51 0 .56.39 1.03.9 1.17l3.49.67c.47.13.82.53.87 1.02.03.62.69 14.39 1.52 17.96.05.18.14.34.25.47h7.4v-.08c-.08-1.21-.26-3.96-.4-6.86 0-.07 0-.16-.01-.24a.726.726 0 0 0-.35-.59 3.753 3.753 0 0 1-1.83-3.04c-.18-4.83-.28-10.41-.01-14.78a.7.7 0 0 1 .69-.66c.39 0 .71.3.71.69v.05c-.17 2.91-.19 6.35-.12 9.75 0 .46.39.82.85.82s.82-.39.82-.85c-.06-3.42-.05-6.88.13-9.8a.7.7 0 0 1 .69-.66c.39 0 .71.3.71.69v.05c-.17 2.9-.19 6.32-.12 9.7 0 .46.39.82.85.82.46 0 .82-.38.82-.84-.06-3.4-.04-6.85.13-9.75a.7.7 0 0 1 .69-.66c.39 0 .71.3.71.69v.05c-.25 4.25-.17 9.62 0 14.33V163.38c0 1.29-.65 2.43-1.63 3.11-.18.12-.3.32-.31.55 0 0-.09.72.23 4.23.15 1.53.26 2.59.32 3.07 0 .02 0 .04.01.05h8v-.04c.46-4.2.57-6.56.57-6.56h-.01Z"/><path class="cls-1" d="M108.77 174.53c.02-.23.14-.43.31-.56 1-.69 1.65-1.86 1.65-3.17V170.63c-.2-4.79-.3-10.25-.06-14.57V156c0-.39-.34-.71-.73-.7-.38 0-.68.3-.7.67-.17 2.96-.17 6.46-.09 9.92 0 .46-.36.85-.83.86s-.85-.36-.86-.82c-.08-3.44-.07-6.92.09-9.86v-.06c0-.39-.34-.71-.73-.7-.38 0-.68.3-.7.67-.17 2.97-.17 6.49-.09 9.97.01.47-.36.85-.83.86s-.85-.36-.86-.83c-.08-3.45-.08-6.95.09-9.91v-.06c0-.39-.34-.71-.73-.7-.38 0-.68.3-.7.67-.25 4.44-.13 10.11.07 15.02.07 1.31.81 2.45 1.88 3.09.21.12.35.35.36.6 0 .07.01.17.01.24.15 2.75.32 5.36.42 6.69h3.59c-.06-.57-.17-1.53-.3-2.84-.34-3.56-.25-4.3-.25-4.3Z"/><path class="cls-1" d="M97.96 181.57c-.86-3.63-1.58-17.63-1.62-18.25-.05-.5-.42-.9-.89-1.03l-3.55-.67c-.53-.13-.92-.61-.92-1.18 0-.19.04-.36.11-.52.26-.68 6.99-13.08 19.29-20.74.51-.34 1.11-.54 1.76-.54.66 0 1.26.19 1.77.53a50.92 50.92 0 0 1 7.24 5.41s.02.01.03.01c.02 0 .05-.02.05-.05v-1.24c0-.42.33-.76.75-.76h.09l3.3.39c.24-3.71.41-6.48.41-6.48-4.39-.77-35.29 1.6-37.6 6.51-2.31 4.91-11.34 38.75-11.34 38.75l16.43-.07H98c0-.02-.02-.05-.03-.07ZM121.53 154.95c-.02-.24-.06-.34-.06-.34a.752.752 0 0 0-1.14-.34s-.09.06-.23.2c0 0-4.68 4.82-5.61 19.07 0 0-.02.2.03.38.08.29.32.53.7.6l2.45.33c.22.03.38.19.38.41 0 0-.1 2.31-.52 6.44 1.41 0 2.64.01 3.62.02.06-1 .25-4.47.42-8.72.23-5.94.39-13.57-.03-18.04Z"/><path class="cls-5" d="M121.96 142.55c-.42 0-.75.34-.75.76v1.24s-.02.05-.04.05c-.01 0-.02 0-.03-.01-2.15-1.92-4.56-3.78-7.24-5.41-.51-.34-1.11-.53-1.77-.53-.66 0-1.26.2-1.76.54-12.29 7.66-19.03 20.06-19.29 20.74-.07.16-.11.34-.11.52 0 .57.4 1.05.92 1.18l3.55.67c.48.13.83.53.89 1.03.03.63.76 14.62 1.62 18.25 0 .03.02.05.03.07 2.17 0 4.89 0 7.75.01-.09-1.33-.27-3.95-.42-6.69 0-.07-.01-.17-.01-.24a.763.763 0 0 0-.36-.6 3.846 3.846 0 0 1-1.88-3.09c-.21-4.91-.32-10.58-.07-15.02.02-.37.32-.67.7-.67.39 0 .72.3.73.7v.06c-.16 2.96-.16 6.46-.09 9.91.01.47.4.84.86.83s.84-.4.83-.86c-.08-3.48-.07-7 .09-9.97.02-.37.32-.67.7-.67.39 0 .72.3.73.7v.06c-.16 2.94-.16 6.42-.09 9.86.01.47.4.84.86.83s.83-.39.83-.86c-.08-3.46-.07-6.96.09-9.92.02-.37.32-.67.7-.67.39 0 .72.3.73.7v.06c-.24 4.32-.13 9.78.06 14.57V170.84c0 1.31-.65 2.47-1.65 3.17-.18.12-.3.32-.31.56 0 0-.09.74.25 4.3.13 1.3.24 2.27.3 2.84 2.93 0 5.82.02 8.21.02.43-4.12.52-6.44.52-6.44 0-.22-.17-.38-.38-.41l-2.45-.33c-.39-.07-.62-.3-.7-.6-.05-.18-.03-.38-.03-.38.93-14.25 5.61-19.07 5.61-19.07.14-.14.23-.2.23-.2a.752.752 0 0 1 1.14.34s.04.1.06.34c.42 4.48.26 12.1.03 18.04-.16 4.24-.36 7.72-.42 8.72 1.26 0 2.08.02 2.25.03 1.48.09 2.86.29 2.91-.3.13-1.77-2.31-21.64-2.26-22.02.44-3.77.96-11.11 1.32-16.48l-3.3-.39h-.09Z"/><path class="cls-3" d="M44.93 52.01c-.41.22-.39.66-.17.95 0 .07 0 .15.02.24-.39-.12-.88.08-.85.6.07 1.77.39 3.6 2.16 4.37.2.83.38 1.66.53 2.51 0 .05.02.1.04.14.11.7 1.28.65 1.31-.14.06-1.42-.28-10.21-3.04-8.68ZM75.72 27.3c-1.05-.75-2.42-.89-3.55-.24-.82.47-1.68 1.5-2.7.9-.67-.4-.98-1.08-1.77-1.35-1.52-.52-3 .21-3.72 1.59-.91 1.74-1.25 3.75-3.69 3.69-.22 0-.38.08-.48.2-.16.14-.25.36-.15.63.43 1.19 1.59 1.64 2.8 1.58.77-.04 1.61-.36 2.37-.15.81.22 1.24 1.19 1.92 1.64 2.43 1.61 6.17.73 8.3-.98 2.21-1.77 3.34-5.61.67-7.52Z"/></g><g id="Layer_12"><path class="cls-1" d="M96.04 116.11c2.29.23 5.1 2 5.05 4.56 2.74.25 1.74-.24.89-2.91-.4-.66-3.07-8.71-2.7-5.86.7 2.22-3.32 3.33-3.23 4.21Z"/><path class="cls-15" d="M99.86 117.91c-3.99-2.9-3.51-2.2-5.34 1.08-.96.28-2.45.53-2.31 1.67 1.43-.67 12.86 1.98 7.65-2.75Z"/><path class="cls-1" d="M25.6 131.32c.07.04 0-.07 0 0ZM20.61 153.84c-.05-.06-.2-.3-.14-.18.04.07.08.13.14.18ZM24.85 136.04c.13-.05.28-.07.42-.05-.34-.63-.36-.72-.42.05ZM56.21 176.43c-.24.2.27.08.25.1a.626.626 0 0 1-.25-.1ZM64.36 139.08c-1.01.95-1.87 2.1-2.56 3.31.75-1.18 1.61-2.29 2.56-3.31ZM61.34 171.29c-7.8 5.49 3.64.28.8 4.98 3.51-.51 4.12.87 4.12-3.97-1.71.33-3.45-.07-4.91-1.01ZM33.57 111.08c-.42.14-.83.29-1.23.47.42-.13.83-.29 1.23-.47ZM27.68 133.33c.32.27.64.52.98.75-.33-.25-.66-.5-.98-.75ZM42.6 110.23c.05-.49.09-.99.14-1.48-.06.49-.11 1-.14 1.48ZM29.39 120.71c-.27.19-.34.15.02.16 0-.05-.01-.11-.02-.16ZM27.22 124.28s.05.02.07.03c-.02-.07-.03-.12-.07-.03ZM31.16 130.4c-.1.08-.02.1.07.13-.02-.05-.05-.09-.07-.13ZM65.3 169.53c1.49.6 1.16-.61 1.28-1.76-1.08.75-3.96 1.67-1.28 1.76ZM42.16 80.13c-8.48-4.23-6.97 2.71-3 8.09a64.91 64.91 0 0 0 3-8.09ZM44.06 71.48c-.56.51-.68 4.63-1.24 5.57.48.1.93-4.17 1.24-5.57ZM30.79 97.08c1.08 6.39 7.65-4.65 5.79-6.47-10.86-12.35-13.72-4.09-5.79 6.47Z"/><path class="cls-1" d="M92.33 95.92c-1.88-5.43-13.97 1.07-15.72-15.22-11.54-3.41-2.38-7.38-6.86-8.48-2.42.06-1.88.81-2.09 2.85-1.51 2.3-1.54-2.01-1.24-2.39-3.24.91-15.07.31-18.36-.93-.03.36.1 2.91-1.11 2.54-1.08-.07-.3-2.71-.28-2.93-1.95-.81-1.16 3.69-1.94 5.08 1.1 12.95-30.36 46.6-13.69 25.13-5.68-4-8.05-17.3-11.42-5.2 5.18 7.58 1.83 12.7-4.48 16.35-.56 11.8-21.25 63.18.39 60.38 5.42-.27 18.29 6.66 19.21-2.72 4.21-7.32 10.55.19 9.52 6.07 2.41.15 4.24.11 7.67.14-2.97-5.5 1.56-6.12 2.52-.02 3.99-2.52-.73-6.08 1.7-9.08 1.75-.76 2.18 2.62 2.3 4.54 4.78-2.06.89-5.76 3.67-8.6 1.75-.36 1.47 2.97 1.19 4.74 5.3-2.83 3.2-11.51 4.37-16.83-3.59.53-13.78 12.7-11.48 2.87 1.84-6.55 3.73-16.25 10.95-18.66-1.56-5.74 1.14-9.88-5.11-4.75-5.79 2.18-3.74 6.87-5.98 6.16-13.8-1.24-9.59-12.14-1.95-18.51.22-3.52-2.75 1.19-4.19-.3-.33-.46-.02-.82.71-1.13 4.61-2.45 17.64-5.73 19.76-9.36 1.26 2.04 1.71.56 4.74-.36 4.41-.5 2.03-8.4 7.27-7.56 3.24 1.85 4.98 3.12 8.93 1.59 5.1.44 3.69-.47 1.01-5.4Zm-63.82 69.99c-2.03 1.56-4.65.42-1.48 3.03.58 2.43-2.27-.64-2.68-1.08-6.93 10.93-13.73-4.01-12.87-10.97-5.2-11.67-1.3-3.45 8.02-5.54 2.28 2.14 3.89 3.89 7.32 3.83 3.13.81 1.04 3.45 1.59 5.14 2.35 1.08 2.1 4.27.1 5.58Zm8.54-55.87c-2.84 3.48 4.98 17.93-3.55 10.81-2.24-1.17 2.22 6.12 2.29 7.78-2.55 2.69-4.81-2.01-6.44-3.61 5.39 6.38 4.7 10.06-2.99 4.05.72 3.4 5.09 4.19 6.55 7.16-.3 3.06-5.57-1.24-6.84-2.3.64 3.4 5.76 5.01 8.24 6.69 1.35 2.92-4.76 1.15-5.83.05 9.67 15.85-.86 13.17-2.44-.31-.43 1.6 2.58 7.76-.44 6.46-2.55-1.73-1.95-11.16-2.97-8.88-5.19-.27.83-11.09 2.8-13.77-2.73 1.9-8.48 9.17-6.49.88 3.09-3.2 17.85-9.63 7.08-5.09-11.06.33 6.93-5.79 8.62-7.71-1.27.48-6.6 2.85-5.87.03 1.9-2.63 18.91-8.12 8.28-2.27Zm11.49 42.19c3.39 5-1.07 7.3-3.43 1.82-4.52-8.44-1.05-10.34 3.43-1.82Zm-1.92-43.11c-2.98 16.33-8.02 3.12-5.42-5.43 2.65-8.28 7.03 1.04 5.42 5.43Zm29.26-11.77c-3.45 4.37-11.81-2.24-11.26 1.8 10.39 2.49 7.12 14.13-.66 4.57-2.28-4.52-14.06 7.95-14.3-.97 2.11-6.07 14.06-.52 11.84-7.29-2.33-1.06-4.98-.23-7.44-.58-5.04.01-6.34-7.26-.78-7.61 13.19 2.32 8.12 8.51 9.81-6.98 6.84-10.37 6.47 8.37 2.95 12.15 3.68-2.34 14.19-.67 9.83 4.92Z"/><path class="cls-15" d="M73.3 91.53c-14.83 2.35 1.05-6.47-6.32-14.08-6.76-.28-3.7 10.23-3.95 14.46-2.41-2.74-6.06-4.91-9.75-4.65-16.58 7.29 22.62 9.02 3.53 11.77-14.13 3.76-6.33 10.36 6.2 3.29 1.21 3.1 8.01 8.37 8.48 2.31-.33-3.8-8.39-4.35-6.73-7.51 4.84 4.93 18.59-1.11 8.53-5.6ZM83.69 92.25c11.83 5.34 2.72-6.83-3.09-9.55-8.03-5.49-1.76 8.05 3.09 9.55ZM82.4 99.73c-3.35-.47-4.46 3.06-4.45 6.07 2.57-2.61 11.3-3.97 4.45-6.07ZM25.02 94.29c4.91 5.57 7.41 8.46.31 13.49 3.99 6.15 26.31-37.73 18.58-36.34-.14 3.64-.16 6.05-4.43 6.99 4.86 1.69.68 6.35-.31 9.8-1.79-5.35-5.77-10.02-9.61-4.35 6.95 5.69 9.86 9.06 2.7 15.86-2.71-4.52-3.86-7.93-7.27-12.59-2.88 2.17-1.78 4.66.03 7.15Z"/><path class="cls-15" d="M41.19 103.7c-.91 3.02-1.43 14.52 2.75 13.26 4.18-3.64 3.35-24.59-2.75-13.26Zm1.44 6.31c-.06.48.07-.99.12-1.28l-.12 1.28Z"/><path class="cls-15" d="M39.23 107.01c-3.61 1.76-19.56 9.09-4.59 5.27-1.66 1.88-19.7 8.07-8.62 7.71 7.14-2.84-12.55 5.19-6.74 9.07 2.29.16 3.68-4.07 6.16-4.86-2.52 1.44-7.84 18.15-2.18 12.58-1.16 2.33 2.73 14.72 3.59 8.26 2.32 6.21 9.37 11.9 4 .7-.79-1.68-1.58-3.36-2.37-5.05 1.07 1.13 7.18 2.84 5.84-.05-2.49-1.68-7.6-3.29-8.25-6.69 1.26 1.09 6.54 5.34 6.84 2.3-3.84-4.78-11.95-9.47-.47-3.9 1.35-.97-.1-3.47-1.36-5.15 7.39 6.55 2.73-3.16 1.7-7.07 9.91 9.02 1.34-5.77 4.22-9.47.17-.93 6.21-3.56 2.24-3.65Zm-6.89 4.54c.4-.18.81-.33 1.23-.47-.4.18-.81.34-1.23.47Zm-7.49 24.49c.05-.77.08-.67.42-.05-.14-.02-.29 0-.42.05Zm.75-4.72v-.03s.05.05 0 .03Zm.56 9.82c-.02.17-.02.34-.02.51-.18-.74-.25-1.08.02-.51Zm2.5-7.04c-.34-.24-.67-.49-.98-.75.32.25.66.5.98.75Zm-1.45-9.8c.05-.09.05-.05.07.03-.02-.01-.05-.02-.07-.03Zm1.89-3.4c.15-.06.32-.29.3-.02a.605.605 0 0 0-.3.02Zm2.05 9.52c.07.13.08.15-.06.07.02-.03.05-.05.06-.07ZM56.2 154.21c-2.29 9.86 7.88-2.37 11.47-2.87.26-3.47.51-7.31.64-9.11-1.34-16.74-11.44 5.46-12.11 11.98Zm8.17-15.13c-.96 1.01-1.81 2.13-2.56 3.31.69-1.21 1.55-2.36 2.56-3.31ZM51.25 172.26c-1.14 2.19.52 5.18 3.18 4.3-.5-1.87-1.66-5.55-3.18-4.3ZM66.26 166.37c-5.26 4.39-.78-2.67-4.15-2.94-1.93 1.04-1.2 4.23-.39 5.84-6.08 6.2-1.38-2.04-5.59-1.77-1.67 1.46-.37 4.45.38 6.17.03 1.26-3.89 3.59-.3 2.77 2.01-.16 5.63.8 6.61-1.06-2.03-3.32-7.66 1-1.47-4.09 3.36 3.29 8.25-1.6 2.54-1.94 5.91-2 1.63-14.9 2.37-2.98ZM28.41 160.33c.64-4.45-.26-5.41-5.18-5.68-2.95-3.27-5.39-4.02-9.75-2.69-7.24-4.18-3.57.58-2 4.94-1.26 7.03 6.33 21.43 12.87 10.97.39.41 3.27 3.53 2.68 1.08-5.12-2.92 7.9-2.64 1.39-8.61Zm-7.81-6.49a.776.776 0 0 1-.16-.24c.05.08.11.16.16.24ZM22.02 105.76c1.04-2.7-2.47-12.82-3.29-6.65-2.53 7.24-5.28 19.74 3.29 6.65ZM57.46 136.28c.76-4.07-2.52-.22-3.45.09-.3.14 3.49 1.54 3.45-.09ZM50.55 122.12c-4.64 6.41-6.37 13.5 2.24 14.12-.06-.63 3.65-2.77 3.65-2.92-1.21-2.2-.62-20.57-5.89-11.21ZM43.88 146.37c-2.82.59.64 5.84 1.22 7.68 7.96 10.42 3.55-5.95-1.22-7.68ZM39.94 167.42c-4.54-.82-6.2 4.73-7.19 8.16 9.42 2.07 16.91.23 7.19-8.16Z"/></g><path class="cls-6" d="M173.38 102.17c-.72-1.53-1.66-2.95-2.84-4.15-1.27-1.27-2.77-2.21-4.41-2.86-1.88-.74-3.89-1.11-5.88-1.49-.35-.07-.7.09-.81.46-.07.22.02.48.17.66-.07.07-.13.11-.2.17-.04.04-.2.13-.02.02-.04.02-.09.07-.13.09-.09.07-.17.11-.26.17-.17.11-.33.2-.5.26-.04.02-.09.04-.13.04-.17.07-.31.15-.39.31-.04.07-.07.15-.09.24v.02c-.09.31.11.74.46.81 1.73.26 3.54.61 5.11 1.4.04.07.11.13.2.17.55.26 1.03.59 1.46.94.09.07.15.13.24.22.02.02.04.04.07.04 2.38 2.21 3.17 5.85 3.23 9.02.02 1.33-.02 2.67-.09 4-.02.35.31.66.66.66.04 0 .07 0 .11-.02v.28l5.29.13c.11.17.31.28.52.28.33 0 .68-.31.66-.66-.33-3.82-.76-7.71-2.42-11.23ZM155.19 104.53s-.09-.04-.15-.07c-.66-.13-1.31-.33-1.94-.55-.15-.04-.31-.11-.46-.17q-.17-.07-.35-.15c-.31-.13-.61-.28-.9-.44-.07-.04-.13-.09-.22-.11-.37-.11-.68.13-.81.46-1.2 3.15-1.88 6.49-1.99 9.87-.02.76 1.03.83 1.27.24.07.31.44.5.72.46.15-.02.31-.11.39-.22.13.13.31.22.52.17.04 0 .11-.02.15-.04.09.28.42.46.7.42.28-.04.46-.22.52-.48.07.28.28.52.63.52.22 0 .42-.11.52-.26.26.46 1.11.37 1.09-.28-.04-1.49-.04-2.95.04-4.43.02-.04.02-.09.02-.13.13-1.38.31-2.67.57-4.02.07-.33-.07-.66-.35-.79Z"/></g><g id="Outline"><path d="M75.3 52.14c-.02-.34-.26-.63-.61-.65-.17-.05-.36-.04-.5.07-1.47 1.12-3.41.64-5.05.1-1-.33-2-.71-3.04-.88-1.16-.19-2.28-.07-3.43.17-2.2.46-4.34 1.18-6.55 1.58-1.07.2-2.17.28-3.25.13-.3-.04-.59-.09-.89-.16h-.07c-.73-.16-1.45-.39-2.15-.65-2.12-.77-4.14-1.89-5.93-3.27-.28-.22-.66-.27-.93 0-.23.23-.28.71 0 .93 1.72 1.34 3.59 2.43 5.61 3.26.81.33 1.65.63 2.5.85-.14.57-.33 1.13-.5 1.69-.25.82-.42 1.65-.44 2.51-.04 1.8.38 3.61.64 5.38.05.33.1.65.14.98-2.04-2.09-3.62-4.59-4.79-7.27-.14-.32-.27-.65-.4-.97-.13-.33-.44-.56-.81-.46-.31.09-.59.47-.46.81 1.16 2.99 2.78 5.81 4.94 8.2.6.66 1.23 1.28 1.91 1.86.04.05.1.1.16.14a19.35 19.35 0 0 0 5.84 3.41c2.99 1.1 6.5 1.49 9.57.47a9.235 9.235 0 0 0 4.02-2.65c1.02-1.16 1.8-2.52 2.41-3.94 1.4-3.25 2.13-6.78 2.1-10.33 0-.43-.02-.87-.05-1.3Z" style="fill:#d6e8ea"/><path class="cls-7" d="M71.85 136.7c-.17 0-.24 2.42-.32 6.33-.09 3.9-.22 9.29-.5 15.23-.28 5.94-.67 11.32-.95 15.21-.29 3.89-.45 6.31-.28 6.33.16.02.61-2.36 1.11-6.24.5-3.88 1.02-9.27 1.3-15.24.28-5.97.28-11.38.15-15.29-.13-3.91-.36-6.33-.52-6.32ZM133.16 142.11c-.3-.05-1.6 6.59-1.68 14.91-.11 8.32 1.05 14.99 1.35 14.94.35-.04-.27-6.7-.16-14.93.07-8.22.84-14.87.49-14.92Z"/><path class="cls-5" d="M156.11 121.29c-.14-.1-.41.02-.8-.09-.2-.05-.45-.14-.71-.29-.26-.15-.61-.42-1.13-.68-.26-.13-.6-.25-1-.3-.4-.05-.82.01-1.2.13-.76.25-1.35.69-1.86 1.06-.26.19-.45.32-.69.43a2 2 0 0 1-.6.2c-.16.01-.21-.01-.26-.04-.05-.03-.12-.09-.21-.29-.09-.2-.17-.49-.24-.81l-.12-.53a4.6 4.6 0 0 0-.2-.66 4 4 0 0 0-.75-1.25c-.18-.19-.4-.39-.7-.55a2.22 2.22 0 0 0-.9-.26c-.31-.01-.62.02-.9.13-.29.11-.52.25-.7.39-.36.29-.59.58-.77.83a9.08 9.08 0 0 0-.9 1.51c-.45.97-.61 1.83-.64 2.41-.02.59.08.92.24.96.34.07.76-1.08 1.85-2.52.27-.36.59-.73.95-1.09.18-.19.36-.34.49-.41.07-.04.12-.05.12-.04.02 0 .03.01.04.02l.03.03s.02.04.07.09c.09.11.19.32.27.55.04.12.07.24.09.36.03.18.07.35.1.53.08.38.18.81.39 1.3.21.47.6 1.04 1.2 1.36.58.34 1.28.4 1.81.29.54-.1.97-.3 1.33-.52.36-.21.7-.49.94-.7.49-.43.88-.77 1.2-.93.32-.16.51-.19.92-.11.39.09.82.27 1.29.36.48.09.91.07 1.25-.05.35-.11.58-.32.67-.49.1-.17.07-.29.02-.34ZM96.64 128.71c-.3-.08-.98.45-1.97-.7-.28-.27-.63-.68-1.22-1.04-.3-.18-.67-.35-1.14-.4-.47-.06-.98.05-1.38.24-.8.38-1.29.95-1.67 1.25-.16.13-.35.24-.5.29-.18.06-.11.03-.12.03s-.08-.13-.14-.26c-.12-.24-.27-.64-.62-1.05-.33-.4-.76-.68-1.19-.84-.43-.16-.85-.22-1.25-.22-.79.01-1.48.25-2.05.62-.58.39-.92.82-1.2 1.24-.53.85-.7 1.57-.79 2.06-.07.5-.03.8.11.87.15.07.39-.12.71-.48.32-.36.72-.91 1.25-1.4.26-.24.58-.48.88-.59.3-.12.68-.19 1.02-.15.35.04.6.19.7.35.05.06.14.26.28.59.07.16.17.36.31.59.18.27.41.51.68.69.15.09.31.18.48.24.62.24 1.39.11 1.81-.08.46-.19.82-.44 1.14-.72.31-.28.49-.49.68-.67.18-.18.34-.31.46-.39.12-.07.18-.1.26-.11.08-.01.22 0 .38.06.32.12.69.37 1.11.63.42.25.89.48 1.39.54.5.06.91-.07 1.2-.25.29-.18.45-.43.49-.61.04-.18-.01-.28-.08-.32ZM141.21 103.98c-.09.12.12.52.82.83.68.31 1.85.43 3.12-.06 1.29-.49 2.46-1.58 3.47-2.76 1.01-1.17 2-2.42 3.23-3.02 1.21-.6 2.92-.61 4.57-1.08.82-.23 1.65-.62 2.27-1.13.63-.5 1.11-1.08 1.44-1.65.68-1.15.82-2.23.77-2.94-.05-.72-.27-1.07-.42-1.06-.17.01-.28.37-.5.94-.22.56-.56 1.34-1.22 2.09-.33.37-.73.73-1.21 1.01-.48.29-1 .48-1.66.61-.65.13-1.41.2-2.27.31-.85.11-1.83.28-2.82.76-.98.48-1.73 1.17-2.34 1.83-.61.67-1.1 1.35-1.54 1.94-.88 1.2-1.68 2.12-2.49 2.62-.82.51-1.63.66-2.19.67-.57.02-.93-.08-1.02.07ZM99.41 110.86c.19-.26-.48-1.07-1.68-1.4-1.2-.33-2.2.01-2.16.33.03.33.87.53 1.85.81.98.26 1.81.53 2 .25ZM84.94 98c-.64.12-1.02 1-.84 1.95.18.95.85 1.62 1.5 1.5.64-.12 1.02-1 .84-1.95s-.85-1.62-1.5-1.5ZM52.32 103.32c-.09.13-.07.35.15.56.22.21.67.39 1.25.27.29-.06.61-.21.89-.5.28-.29.48-.69.54-1.11.07-.42.01-.89-.21-1.33a2.14 2.14 0 0 0-1.16-1.05c-.99-.36-2.06-.05-2.64.81-.26.42-.35.86-.29 1.32.04.23.12.46.26.66s.3.35.56.48c.51.21.87.06 1.1-.09.23-.16.38-.37.43-.59.05-.22-.02-.4-.11-.48-.09-.08-.18-.08-.25-.05-.08.03-.15.08-.22.1-.11.01-.07.02-.15-.02a.576.576 0 0 1-.16-.18c0-.03.03.18-.02.23 0 .01 0 0 0 0l.12-.13h.01c.02-.01.1-.04.18-.04.18-.01.28.07.16 0l-.04-.03-.02-.02.13.13s.02.03.03.05c.01.02.02.04.04.07v.01s.02 0 .02.02c.01 0 0 .04.02-.03.02-.05.05-.1.07-.12-.02.02-.07.06-.11.08 0 0 .04.02.06.05.03.03.06.05.09.08s.03.1 0 .17c-.06.15-.2.28-.35.39-.14.11-.31.19-.39.33ZM46.5 161.42c.06.15.2.27.43.3.23.03.55-.03.88-.29.17-.13.33-.32.46-.58.13-.26.2-.62.16-.96-.03-.34-.16-.71-.43-1.04-.27-.33-.72-.63-1.29-.67-.54-.03-.98.17-1.31.43-.32.27-.56.63-.65 1.06-.1.43.01.89.21 1.19.2.31.45.47.68.57.47.19.9.08 1.11-.09.22-.18.22-.39.15-.52-.08-.15-.21-.26-.27-.39-.06-.13-.08-.28-.03-.38.02-.04.01-.01-.02.01-.02.02-.06.05-.09.06-.07.04-.1.01-.01.03.08.02.18.1.17.11 0 0-.07-.13-.06-.22v-.03l-.03.08s-.04.07-.08.1c-.08.07-.17.1-.15.09h.13s.11.03-.11-.02h.01s.07.09.08.16c.06.3-.1.7.03 1ZM43.87 115.37c.72.02.97-9.06 4.24-19.6 3.17-10.57 8.03-18.24 7.42-18.63-.25-.17-1.81 1.54-3.77 4.69-.49.79-1.01 1.66-1.52 2.63-.53.96-1.03 2.01-1.56 3.12a61.938 61.938 0 0 0-2.84 7.48c-.82 2.72-1.41 5.37-1.82 7.8-.18 1.22-.36 2.37-.45 3.46-.12 1.09-.17 2.1-.21 3.03-.13 3.72.21 6 .51 6Z"/><path class="cls-5" d="M34.13 124.1c.53.44 4.22-3.44 9.78-6.73a54.16 54.16 0 0 1 4-2.17c.63-.3 1.23-.59 1.8-.85.57-.27 1.05-.47 1.45-.56.4-.09.72-.07.93.01.24.1.44.31.56.48.25.35.14.71.28.79.06.04.2.02.35-.13.15-.14.31-.45.27-.88-.03-.41-.21-.9-.66-1.33-.48-.45-1.2-.64-1.88-.63-.69 0-1.36.19-1.98.39-.63.19-1.3.42-1.99.69a28.95 28.95 0 0 0-4.34 2.14c-2.96 1.76-5.27 3.89-6.72 5.59-1.45 1.72-2.07 2.98-1.83 3.18Z"/><path class="cls-5" d="M39 102.63c-.65.04-.97 3.53-.42 7.76.54 4.24 1.74 7.53 2.37 7.4.65-.13.51-3.56-.02-7.71-.54-4.15-1.28-7.5-1.94-7.46ZM55.87 135.55c-.07.06.09.3.19.78.1.47.09 1.22-.32 2.02-.4.79-1.27 1.54-2.5 2.18-1.24.65-2.73 1.38-4.36 2.14a99.68 99.68 0 0 1-11.77 4.58c-2.26.71-4.68 1.39-7.17 1.96-1.23.27-2.46.47-3.6.38-1.15-.09-2.14-.49-3.02-1.28-.88-.78-1.61-1.83-2.24-2.95-.65-1.11-1.19-2.27-1.65-3.44-.93-2.34-1.51-4.73-1.95-7.05-.85-4.64-1.17-8.97-1.62-12.58-.84-7.23-1.52-11.69-1.85-11.66-.33.03-.24 4.54.18 11.8.24 3.63.38 7.96 1.14 12.82.4 2.42.97 4.96 1.94 7.51.48 1.27 1.05 2.54 1.77 3.77.68 1.23 1.52 2.49 2.72 3.56.6.53 1.3.99 2.06 1.31.77.32 1.57.49 2.35.54 1.56.11 2.99-.16 4.3-.47 2.6-.63 5.04-1.36 7.34-2.15 4.61-1.58 8.6-3.42 11.84-5.15 1.62-.87 3.04-1.7 4.29-2.5 1.26-.81 2.29-1.84 2.66-2.96.38-1.09.19-2.03-.09-2.55-.28-.53-.59-.66-.64-.62Z"/><path class="cls-5" d="M39.1 175.84c.68-.06.57-6.32.95-13.99.34-7.66 1.03-13.89.36-14.01-.62-.13-2.38 6.04-2.74 13.9-.38 7.86.8 14.17 1.43 14.1ZM62.04 31.66c.32-.09-.23-3.02-1.22-6.55s-2.05-6.32-2.36-6.23c-.32.09.23 3.02 1.22 6.55s2.05 6.32 2.36 6.23ZM148.53 110.29c-.03-.17-.52-.2-1.23-.38-.7-.17-1.64-.52-2.44-1.21s-1.29-1.56-1.56-2.23c-.28-.67-.39-1.15-.56-1.16-.15 0-.35.5-.25 1.36.09.84.57 2.04 1.6 2.93 1.04.89 2.29 1.18 3.13 1.14.87-.03 1.34-.31 1.31-.46ZM138.19 102.66c-.11.12 0 .43.34.8.33.37.9.78 1.62 1.05.72.26 1.42.31 1.91.24.5-.07.78-.24.77-.4-.03-.34-1.09-.51-2.28-.95-1.19-.42-2.12-.97-2.36-.73ZM156.77 104.71c.02.07.38.09 1.03-.02.32-.07.73-.17 1.17-.43.44-.26.9-.7 1.12-1.37.11-.33.14-.74.02-1.14-.12-.4-.4-.75-.71-1-.64-.51-1.34-.74-2.05-1.02-1.44-.54-3.09-.97-4.87-1.18-.45-.05-.93-.08-1.42-.02-.49.06-1 .23-1.42.53-.42.3-.78.75-.91 1.29-.13.53-.05 1.04.13 1.47.37.88 1.06 1.39 1.65 1.77.6.38 1.2.65 1.77.84 1.14.38 2.11.43 2.77.39.66-.05 1-.17 1-.25 0-.09-.36-.12-.98-.21-.61-.1-1.49-.27-2.49-.71-.49-.22-1.01-.5-1.52-.87-.51-.36-.99-.81-1.18-1.35-.2-.56-.08-1.07.43-1.41.5-.35 1.22-.39 2.04-.29 1.67.2 3.25.58 4.64 1.04.7.24 1.38.45 1.81.76.44.31.58.7.49 1.14-.21.91-1.07 1.34-1.62 1.58-.57.24-.91.38-.89.47ZM155.2 108.57c.04.15.34.24.79.09.44-.14 1-.57 1.29-1.26.29-.69.2-1.39 0-1.8-.21-.42-.48-.58-.62-.5-.28.17-.11 1.03-.47 1.84-.33.83-1.07 1.31-.99 1.63ZM145.13 104.27c-.15.04-.22.38-.08.89.13.51.51 1.16 1.12 1.69.62.52 1.33.79 1.85.84.53.05.85-.07.87-.23.03-.34-1-.69-1.95-1.52-.97-.8-1.48-1.76-1.81-1.68ZM65.35 70.14c.65.07 1.58-3.56 2.08-8.12.5-4.56.37-8.31-.28-8.38-.65-.07-1.58 3.56-2.08 8.12-.5 4.56-.37 8.31.28 8.38Z"/></g></svg>