<svg xmlns="http://www.w3.org/2000/svg" viewBox="0 0 200 200"><defs><clipPath id="clippath"><path class="cls-2" d="M85.69 129.07c-.46-2.34-.94-4.67-1.37-7.01-.91-4.59-1.48-9.25-2.49-13.82-.47-2.16-1.21-4.27-2.63-6-1.18-1.43-2.93-2.37-4.74-2.74-2.68-.56-5.33-.11-7.98.36-1.69.3-3.39.59-5.08.9l-9.96 1.8-6.1 1.11c-1.44.26-2.88.5-4.28.96-1.73.58-3.42 1.42-4.72 2.74-1.46 1.48-2.18 3.36-2.4 5.4-.23 2.26.22 4.56.61 6.77.34 1.95.75 3.88 1.13 5.82.21 1.08.42 2.16.62 3.24.89 4.49 1.47 9.03 2.42 13.51.43 2.03 1.04 4.11 2.3 5.79a8.556 8.556 0 0 0 4.71 3.16c2.17.56 4.42.4 6.61.05 7.23-1.31 14.46-2.64 21.7-3.91 2.2-.39 4.42-.68 6.49-1.54 1.79-.74 3.37-1.77 4.55-3.33 1.27-1.69 1.69-3.85 1.65-5.92-.05-2.46-.58-4.93-1.05-7.34Z"/></clipPath><clipPath id="clippath-1"><path class="cls-2" d="M194.82 59.68c0 20.55-16.66 37.21-37.21 37.21-11.04 0-20.96-4.81-27.77-12.44l53.41-51.75c6.87 6.35 11.58 16.21 11.58 26.98Z"/></clipPath><style>.cls-2{fill:none}.cls-10,.cls-11,.cls-12,.cls-14,.cls-16,.cls-17,.cls-18,.cls-2,.cls-4,.cls-7,.cls-8,.cls-9{stroke-width:0}.cls-4{fill:#d6e8ea}.cls-7{fill:#badade}.cls-8{fill:#a0b4b5}.cls-9{fill:#ff8000}.cls-10{fill:#fff}.cls-11{fill:#e87003}.cls-12{fill:#e5b342}.cls-14{fill:#ff5000}.cls-16{fill:#e8aa1c}.cls-17{fill:#f6c243}.cls-18{fill:#6a4a6b}</style></defs><path d="M10.06 141.69c43.46 72.48 168.03 36.16 182.77-42.75 1.44-22.73-23.78-38.88-43.18-43.77-15.06-6.55-18.11-32.49-39.06-24.51C66.62 49.65-9.29 82.03 10.06 141.69Z" style="fill:#efedea;stroke-width:0" id="BG_Strong"/><g id="Illustrations"><path class="cls-7" d="M15.49 82.48c.39-.18-.36.13.02-.01.15-.06.3-.12.46-.17.38-.13.76-.26 1.14-.37 1.08-.33 2.17-.62 3.26-.91 3.26-.85 6.55-1.6 9.84-2.34 9.75-2.19 19.54-4.19 29.34-6.14 11.5-2.29 23.03-4.5 34.56-6.64 10.36-1.92 20.74-3.79 31.13-5.52 3.8-.63 7.6-1.25 11.4-1.8 2.35-.34 4.33-.66 6.91-.84.32-.02.64-.04.96-.05 1.93-.04 1.93-3.04 0-3-2.08.04-4.17.38-6.22.66-3.49.47-6.97 1.02-10.45 1.59-10.1 1.64-20.18 3.44-30.24 5.29-11.64 2.13-23.26 4.35-34.86 6.64-10.19 2.01-20.38 4.08-30.53 6.31-3.61.8-7.22 1.61-10.81 2.5-2.12.53-4.28 1.03-6.34 1.78-.36.13-.73.28-1.08.44-1.75.82-.23 3.4 1.51 2.59ZM175.49 80.22s-.57-.53-.33-.28c.01.01.1.16.09.18-.07.2-.12-.33 0-.01.17.5.34 1.01.48 1.52.47 1.69.85 3.42 1.21 5.14 1.12 5.32 2.06 10.68 2.96 16.04 2.03 12.14 3.9 24.36 5.1 36.62.22 2.24.42 4.48.49 6.72.03.74.04 1.49 0 2.24-.01.26-.08.96-.03.45-.02.21-.26.77 0 .18-.78 1.75 1.8 3.27 2.59 1.51.49-1.08.46-2.33.45-3.5-.02-1.87-.17-3.74-.33-5.61-.5-5.78-1.25-11.55-2.03-17.3-1.69-12.42-3.58-24.86-6.1-37.14-.42-2.04-.85-4.09-1.41-6.1-.3-1.06-.6-2.65-1.64-3.25-1.67-.97-3.19 1.62-1.51 2.59Z"/><path class="cls-7" d="M183.19 148.71c.42-.37-.08.02-.35.17-.19.1-.62.26-.15.08-.21.08-.42.17-.63.25-1.11.41-2.25.74-3.38 1.07-3.65 1.04-7.36 1.9-11.06 2.74-11.32 2.57-22.73 4.79-34.13 6.96-13.82 2.62-27.66 5.09-41.53 7.44-12.49 2.12-25 4.15-37.54 5.95-7.45 1.07-15.08 2.4-22.7 2.57-.42 0-.84.01-1.27 0-1.93-.08-1.93 2.92 0 3 2.52.11 5.08-.21 7.57-.47 4.43-.46 8.84-1.04 13.25-1.65 12.26-1.69 24.48-3.66 36.68-5.7 13.95-2.33 27.88-4.8 41.78-7.4 11.98-2.24 23.95-4.56 35.86-7.18 4.04-.89 8.09-1.81 12.09-2.88 2.25-.6 4.68-1.14 6.76-2.23.32-.17.61-.36.88-.6 1.45-1.28-.68-3.39-2.12-2.12Z"/><g id="Layer_10"><path class="cls-8" d="M185.81 151.83c-.27-1.98-.6-3.96-.95-5.93 0-.02-.01-.03-.02-.05-.98-6.15-2-12.28-3.06-18.41-1.09-6.29-2.21-12.57-3.37-18.85-1.14-6.2-2.31-12.4-3.5-18.6-1.19-6.2-2.4-12.39-3.62-18.58-.61-3.12-1.23-6.25-1.85-9.37-.27-1.37-.61-2.76-1.56-3.83-.86-.97-2.15-1.37-3.41-1.42-.68-.03-1.36.05-2.04.15l-8.67 1.56c-1.36.24-2.71.49-4.07.73-3.68.66-7.35 1.32-11.02 1.98-5.38.96-10.75 1.93-16.13 2.89l-19.56 3.51c-7.05 1.27-14.11 2.53-21.16 3.8-6.97 1.25-13.94 2.5-20.9 3.75-6.32 1.13-12.63 2.27-18.95 3.4-5.09.91-10.18 1.83-15.26 2.74l-9.73 1.74c-2.74.49-6.34.81-7.25 3.97-.43 1.49-.07 3.05.16 4.54.23 1.48.45 2.96.72 4.43 0 .02.01.04.02.06.98 6.14 2 12.27 3.05 18.4 1.09 6.29 2.21 12.57 3.37 18.85 1.14 6.2 2.31 12.4 3.5 18.6 1.19 6.2 2.4 12.39 3.62 18.58.61 3.12 1.23 6.25 1.85 9.37.27 1.37.61 2.76 1.56 3.83.86.97 2.15 1.37 3.41 1.42.68.03 1.36-.05 2.04-.15 9.88-1.77 19.76-3.54 29.64-5.32 8.08-1.45 16.17-2.91 24.25-4.36 7.44-1.34 14.87-2.67 22.31-4.01 7.94-1.43 15.88-2.85 23.82-4.28 9.59-1.72 19.18-3.44 28.77-5.17 1.37-.25 2.74-.49 4.12-.74 2.86-.51 5.72-1.01 8.59-1.52l5.22-.93c1.44-.26 2.94-.48 4.18-1.32.77-.53 1.36-1.22 1.7-2.09.41-1.07.33-2.25.18-3.37Z"/><path d="M11.39 88.52c-.37-1.81.3-3.7 1.89-4.71 1.41-.9 3.01-.47 4.48-1.13 1.03-.47.14-1.99-.89-1.52-1.02.47-2.32.17-3.41.6-.92.36-1.76.92-2.42 1.67-1.36 1.53-1.76 3.59-1.35 5.56.23 1.11 1.93.64 1.7-.47Z" style="fill:#99b3b3;stroke-width:0"/><path class="cls-8" d="M180.55 158.34c2.02-.06 4.15-.61 5.52-2.2 1.53-1.78 1.65-3.84 1.37-6.08-.14-1.11-1.9-1.13-1.76 0 .22 1.73.32 3.4-.85 4.83-1.02 1.25-2.73 1.63-4.27 1.68-1.13.04-1.14 1.8 0 1.76Z"/></g><path d="M188.34 147.41c-.27-1.98-.6-3.96-.95-5.93 0-.02-.01-.03-.02-.05-.98-6.15-2-12.28-3.06-18.41-1.09-6.29-2.21-12.57-3.37-18.85-1.14-6.2-2.31-12.4-3.5-18.6-1.19-6.2-2.4-12.39-3.62-18.58-.61-3.12-1.23-6.25-1.85-9.37-.27-1.37-.61-2.76-1.56-3.83-.86-.97-2.15-1.37-3.41-1.42-.68-.03-1.36.05-2.04.15l-8.67 1.56c-1.36.24-2.71.49-4.07.73-3.68.66-7.35 1.32-11.02 1.98-5.38.96-10.75 1.93-16.13 2.89l-19.56 3.51c-7.05 1.27-14.11 2.53-21.16 3.8-6.97 1.25-13.94 2.5-20.9 3.75-6.32 1.13-12.63 2.27-18.95 3.4-5.09.91-10.18 1.83-15.26 2.74l-9.73 1.74c-2.74.49-6.34.81-7.25 3.97-.43 1.49-.07 3.05.16 4.54.23 1.48.45 2.96.72 4.43 0 .02.01.04.02.06.98 6.14 2 12.27 3.05 18.4 1.09 6.29 2.21 12.57 3.37 18.85 1.14 6.2 2.31 12.4 3.5 18.6 1.19 6.2 2.4 12.39 3.62 18.58.61 3.12 1.23 6.25 1.85 9.37.27 1.37.61 2.76 1.56 3.83.86.97 2.15 1.37 3.41 1.42.68.03 1.36-.05 2.04-.15 9.88-1.77 19.76-3.54 29.64-5.32 8.08-1.45 16.17-2.91 24.25-4.36 7.44-1.34 14.87-2.67 22.31-4.01 7.94-1.43 15.88-2.85 23.82-4.28 9.59-1.72 19.18-3.44 28.77-5.17 1.37-.25 2.74-.49 4.12-.74 2.86-.51 5.72-1.01 8.59-1.52l5.22-.93c1.44-.26 2.94-.48 4.18-1.32.77-.53 1.36-1.22 1.7-2.09.41-1.07.33-2.25.18-3.37Z" style="fill:#c1dade;stroke-width:0" id="Layer_7"/><path class="cls-4" d="M85.69 129.07c-.46-2.34-.94-4.67-1.37-7.01-.91-4.59-1.48-9.25-2.49-13.82-.47-2.16-1.21-4.27-2.63-6-1.18-1.43-2.93-2.37-4.74-2.74-2.68-.56-5.33-.11-7.98.36-1.69.3-3.39.59-5.08.9l-9.96 1.8-6.1 1.11c-1.44.26-2.88.5-4.28.96-1.73.58-3.42 1.42-4.72 2.74-1.46 1.48-2.18 3.36-2.4 5.4-.23 2.26.22 4.56.61 6.77.34 1.95.75 3.88 1.13 5.82.21 1.08.42 2.16.62 3.24.89 4.49 1.47 9.03 2.42 13.51.43 2.03 1.04 4.11 2.3 5.79a8.556 8.556 0 0 0 4.71 3.16c2.17.56 4.42.4 6.61.05 7.23-1.31 14.46-2.64 21.7-3.91 2.2-.39 4.42-.68 6.49-1.54 1.79-.74 3.37-1.77 4.55-3.33 1.27-1.69 1.69-3.85 1.65-5.92-.05-2.46-.58-4.93-1.05-7.34Z" id="Layer_11"/><g style="clip-path:url(#clippath)"><g id="Body"><path class="cls-18" d="M98.15 154.62c.07-.08.09-.22-.01-.31-1.87-1.69-3.81-3.31-5.8-4.86-1.73-1.35-3.49-2.66-5.25-3.98-.69-.52-1.39-1.01-2.13-1.48-.77-.49-1.56-.96-2.34-1.43-.95-.58-1.87-1.22-2.83-1.79-1.03-.61-2.13-1.07-3.24-1.49-2.29-.87-4.67-1.5-7.03-2.14-.3-.08-.6-.16-.91-.25-.11-.03-.23.08-.24.18-.02.13.07.21.18.24.36.1.72.2 1.09.3-.78 1.45-2.24 2.44-3.78 2.93-1.89.61-3.97.51-5.91.2-.8-.13-1.69-.33-2.24-.95.37-.2.74-.39 1.12-.57.1-.05.16-.17.11-.28a.213.213 0 0 0-.28-.11 46.54 46.54 0 0 0-3.97 2.2c-1.38.84-2.73 1.72-4.04 2.66-.66.47-1.3.96-1.93 1.48-.05.04-.07.09-.08.13-.57.71-.88 1.59-1.12 2.46-.21.76-.37 1.53-.51 2.31-.29 1.63-.47 3.28-.61 4.93-.15 1.82-.25 3.65-.34 5.47-.08 1.81-.14 3.63-.22 5.44-.06 1.59-.13 3.18-.25 4.77-.01.17-.03.34-.04.52 0 .05 0 .09.03.13.03.07.11.12.21.11 3.4-.43 6.79-.88 10.19-1.33h.08l3.79-.51c4.61-.62 9.22-1.24 13.83-1.85 2.64-.35 5.28-.69 7.92-1.03.07 0 .12-.04.15-.09.03-.04.05-.09.04-.15-.11-.53-.12-1.06-.1-1.6l.06-1.73c.03-1.21.04-2.41.02-3.62-.02-1.19-.08-2.38-.18-3.56-.03-.32-.06-.65-.1-.97.88.46 1.77.92 2.65 1.38.84.44 1.67.89 2.5 1.34.79.43 1.58.87 2.37 1.32.82.46 1.63.93 2.44 1.41a241.062 241.062 0 0 1 3.08 1.82c.1.06.22.06.3-.04 0-.01.02-.03.02-.04 1 .37 3.57.1 4.68-2.2 1.14-2.36-.32-4.29-1.36-5.35ZM55.54 129.93c.35.2.59.14.59.14l-.48-1.52s-.49.2-.82.24c-.33.04-.78-.35-.59-.1.19.26.96 1.03 1.31 1.23Z"/><path class="cls-18" d="M79.49 165.94c-.68-.5-1.84-1.05-2.71-.71.01.02.03.04.04.05.18.2.38.39.57.58.41.4.84.78 1.28 1.15 0 0 .02.02.03.02.67-.09 1.25-.17 1.73-.23-.29-.31-.59-.6-.94-.86ZM56.89 160.19s.02-.02 0 0ZM80.95 161.51c-.06-.02-.09-.03-.13-.04.01.26.03.51.06.76.07.66.19 1.31.37 1.95.12.43.26.85.43 1.27 0-.87.05-2.08.09-3.27-.24-.27-.52-.54-.83-.67ZM71.66 141.96s0-.02-.02-.02c.01.02.02.04.02.02ZM53.87 141.73c.03-.1.07-.2.11-.3-.17.11-.33.21-.5.32.1.1.19.2.29.3.03-.11.07-.22.1-.32ZM58.28 139.4l.2-.13-.04-.34c-.16.07-.33.15-.49.23.11.08.23.16.34.24Z"/><path class="cls-18" d="M98.01 154.47c-.61-.79-2.23-2.22-4.01-3.68 0 .24-.03.48-.12.71-.41 1.15-1.94 1.16-2.87.74a3.54 3.54 0 0 1-.73-.44c.06.67.09 1.35.09 2.02 0 1.14-.09 2.47-1.16 3.16-.99.63-2.12.25-2.68-.73-.53-.94-.52-2.09-.51-3.14 0-.2.01-.4.02-.61-.22.33-.45.64-.75.88-.48.4-1.15.58-1.75.37-.63-.22-.97-.83-.99-1.47-.03-1.17.52-2.44 1.09-3.44.14-.24.29-.48.45-.7-.53.13-1.07.23-1.61.3-.65.08-1.3.03-1.72-.53-.36-.48-.4-1.13-.19-1.68.22-.58.73-1.01 1.22-1.36.56-.39 1.16-.73 1.78-1.01.23-.1.46-.2.69-.28-1.78-1.22-3.7-2.48-5.08-3.19-.22-.11-.47-.23-.74-.35.08.34.16.68.22 1.02.11.6.21 1.2.02 1.79-.17.53-.64.97-1.19 1.06-.58.09-1.06-.23-1.43-.64-.79-.86-1.39-1.92-1.79-3.04-.08.17-.15.34-.24.5-.25.49-.54.96-.87 1.4-.32.43-.69.96-1.23 1.11-1.1.29-1.76-.94-1.83-1.85-.11-1.38.19-2.73.84-3.91l-.13.03c-.45.11-.92.24-1.39.31-.73 1.15-2.89 2.64-4.2 2.86-2.89.48-4.73.28-5.86-.06.53.99.59 2.22-.09 3.17-.08.12-.17.22-.27.32.38.2.74.43 1.08.69.73.55 1.34 1.35 1.37 2.3.02.91-.43 1.86-1.35 2.14-.96.29-2.06-.09-2.9-.56a6.44 6.44 0 0 1-.92-.62c-.11.7-.33 1.39-.57 2.02-.31.82-.83 1.73-1.72 2.01-1 .33-2.01-.19-2.51-1.08-.57-1.01-.36-2.26-.02-3.31.19-.59.47-1.16.82-1.69-.81-.11-1.59-.32-2.3-.76-.24-.15-.47-.34-.68-.55-.36.28-.59.48-.64.56-.28.4-.71 1.03-1.2 2.7-.49 1.67-.98 5.76-1.11 8.09-.14 2.33-.62 13.27-.67 14.28-.05 1.01-.03 1.01.31 1 .33 0 14.33-1.83 14.33-1.83.21-.03.64-.08 1.23-.16-.46-.52-1.29-.63-1.94-.65-.64-.02-1.27.08-1.9.2-.18.04-.36.08-.54.11-.86.13-1.01-1.17-.17-1.34.14-.03.29-.06.43-.08.95-.22 1.83-.67 2.58-1.3.43-.36.8-.79 1.12-1.25.15-.23.33-.49.41-.75.03-.09.03-.13 0-.2 0 .02-.02-.03-.04-.04-.26-.17-.73-.1-1.05-.02-.53.14-1.06.37-1.53.66-.81.5-1.52 1.17-2.04 1.98-.11.19-.22.38-.33.56-.4.65-1.51 0-1.15-.68.11-.21.23-.42.36-.62.86-1.54 1.47-3.31 1.22-5.09-.03-.21-.05-.37-.14-.55-.06.09-.13.17-.19.26-.13.19-.24.4-.34.61-.41.85-.6 1.79-.55 2.74.02.36-.2.7-.58.75-.34.04-.73-.22-.75-.58-.07-1.18.13-2.37.64-3.44.38-.79 1.09-2.15 2.18-1.72.92.36 1.09 1.55 1.12 2.41.03.78-.06 1.54-.24 2.27.9-.56 1.99-1.04 3.06-.98.51.03 1.05.21 1.38.62.43.53.37 1.23.09 1.81-.46.96-1.15 1.78-1.99 2.44.92.19 1.81.65 2.24 1.53.02.05.05.1.07.15 3.54-.48 9.68-1.31 13.98-1.9-.14-.13-.28-.26-.41-.39-.39-.38-.92-.79-1.12-1.31-.23-.59.08-1.16.6-1.46.49-.27 1.08-.31 1.62-.28.89.05 1.68.36 2.37.83-.18-.63-.32-1.27-.41-1.92-.08-.56-.22-1.26-.01-1.82.23-.6.84-.89 1.45-.78.29.05.55.17.79.32v-.66c-.05-2.01-.45-4.94-.45-4.94l8.46 4.63c1.7.92 5.95 4.81 8.64 1.85 2.69-2.96.94-5.06-.44-6.86Zm-43.34 10.27c.31.24.31.64.12.95-.32.51-.86.94-1.46 1.03-.64.1-1.26-.23-1.54-.81-.19-.4-.23-.85-.16-1.3-.38.21-.79.4-1.23.44-1.17.1-1.85-.87-1.77-1.96.08-1.05.68-1.92 1.5-2.51-1.4-.46-2.64-1.3-2.45-2.87.14-1.12 1.24-1.72 2.29-1.63 1.12.09 2.04.94 2.89 1.6.69.53-.14 1.59-.82 1.07-.6-.46-1.25-1.11-2.01-1.29-.43-.1-1.05.02-1.02.57.04.67.75 1 1.3 1.2.77.28 1.58.43 2.39.55.36.05.62.4.57.76-.06.39-.4.58-.76.57-1.12-.02-2.32.88-2.52 1.99-.03.16-.08.49.09.6.17.11.47-.04.62-.11.78-.34 1.52-.84 2.26-1.26.58-.33 1.23.56.79 1.03-.42.46-.85 1.12-.8 1.77.04.62.61 0 .77-.25.19-.31.68-.33.95-.12Zm22.27-10.69c.06.92-.59 1.64-1.34 2.08-.67.4-1.52.67-2.36.71.35.44.69.89 1.02 1.35.58.83.98 1.9.49 2.87-.48.96-1.57 1.24-2.52.84s-1.61-1.25-2.15-2.1c-.25-.4-.48-.81-.69-1.23-.22.73-.45 1.46-.71 2.17-.2.55-.54 1.06-1.09 1.3-.58.24-1.27.12-1.66-.4-.35-.46-.39-1.11-.41-1.67-.02-.59.02-1.18.15-1.75.16-.77.44-1.51.82-2.19-.96-.11-1.93-.25-2.87-.46-.87-.2-1.86-.58-2.27-1.44-.41-.86-.02-1.83.76-2.32 1.06-.67 2.39-.64 3.6-.24-.34-.9-.55-1.85-.61-2.83-.03-.43.31-.82.76-.75 1.06.16 1.97.84 2.54 1.73.04.07.09.14.13.21.02-.07.05-.14.07-.21.17-.5.39-.99.66-1.45.27-.46.56-.95 1.02-1.24.92-.59 2.09-.25 2.78.52.76.83.78 2.1.56 3.15-.14.67-.37 1.31-.68 1.92.24-.06.48-.13.72-.18.5-.12 1.02-.18 1.53-.08.87.17 1.69.76 1.75 1.71Z"/><path class="cls-18" d="M74.63 153.63c-.44 0-.89.15-1.31.25-.57.14-1.14.23-1.72.14a.686.686 0 0 1-.44-1.08c.65-.87 1.11-1.9 1.23-2.98.08-.72-.11-1.91-1.07-1.9-.39 0-.62.43-.8.73-.25.42-.46.88-.62 1.34-.36 1-.48 2.08-.38 3.13.08.86-1.2 1.03-1.34.17-.19-1.23-.48-3-1.59-3.76.2 1.08.6 2.11 1.2 3.04.05.06.09.13.12.2.12.28.07.61-.19.81-.27.21-.74.18-.94-.12a4.87 4.87 0 0 0-2.62-.96c-.38-.02-.77.03-1.12.19-.24.12-.46.29-.48.49-.07.63 1.1.87 1.59.96 1.2.22 2.41.39 3.63.51.51.05.74.69.44 1.08-.53.68-.93 1.46-1.14 2.31-.19.76-.33 1.72-.11 2.49.03.09.07.13.05.13.11 0 .19-.11.26-.19.24-.32.32-.81.44-1.18l.99-3.15c.17-.54 1.07-.53 1.24 0 .34 1.06.81 2.08 1.43 3.01.27.4.56.79.94 1.09.24.19.64.46.97.34.3-.11.37-.47.35-.75-.04-.48-.37-.91-.65-1.27-.73-.95-1.47-1.88-2.21-2.82-.54-.69.51-1.47 1.07-.82.47.54 1.31.47 1.95.34.61-.12 1.44-.41 1.77-.99.09-.15.1-.35-.03-.5-.2-.22-.59-.28-.87-.29ZM82.07 146.38c-.14.14-.41.49-.23.7.07.09.17.05.3.04.29-.03.57-.08.85-.13 1.1-.2 2.15-.54 3.17-.99.71-.32 1.26.69.67 1.16-1.41 1.12-2.45 2.71-2.84 4.48-.04.18-.2.72.01.84.29.16.67-.36.78-.53.68-.94 1.27-1.95 1.9-2.92.35-.55 1.37-.14 1.2.51-.35 1.29-.54 2.63-.52 3.96 0 .51.01 1.05.14 1.55.08.32.25.74.51.86.33.15.67-.19.81-.49.24-.52.21-1.15.21-1.71 0-1.42-.17-2.84-.46-4.23-.13-.63.86-1.07 1.2-.5.45.75.93 1.64 1.76 2.01.26.12.71.27.99.1.22-.13.09-.58.03-.79-.13-.44-.37-.84-.66-1.2-1.56-1.23-2.99-2.29-3.69-2.77-.59-.41-1.49-1.05-2.52-1.77-.36.09-.72.2-1.07.33-.88.33-1.89.8-2.55 1.49ZM50.79 144.2c.85.5 1.9.55 2.86.62.48.04.78.72.44 1.08-.69.73-1.21 1.6-1.47 2.57-.19.71-.39 2 .49 2.36.7.28 1.12-.69 1.32-1.2.37-.97.69-2.1.49-3.14-.13-.66.83-1.03 1.2-.5.51.73 1.19 1.33 2.02 1.69.55.25 1.64.69 1.9-.12.24-.75-.37-1.37-.93-1.77-.63-.44-1.34-.78-2.07-1.05-.32-.05-.63-.16-.91-.34-.29-.19-.32-.6-.16-.87.18-.31.52-.38.84-.28.21.06.42.13.62.21.44-.04.84-.46.94-.88.19-.78-.25-1.54-.83-2.03-.27-.23-.56-.54-.92-.34-.35.19-.65.53-.89.84-.25.32-.43.68-.57 1.06-.05.13-.15.41-.2.65.01.02.03.03.04.05.47.63-.18 1.36-.78 1.23-.27.12-.66.07-.82-.2-.29-.49-.65-.95-1.08-1.32-.73.49-1.4.97-1.96 1.38.13.12.27.22.42.31ZM80.82 161.41s0-.09 0 0ZM76.54 141.72c.16.23.33.45.52.66.06.07.13.15.22.2 0 0 .01 0 .02.01.37-.2.1-1.06.05-1.36-.11-.6-.24-1.19-.42-1.77 0-.02 0-.03-.01-.04-.52-.19-1.07-.39-1.63-.58.11.5.27.98.48 1.45.22.5.48.97.79 1.42ZM71.61 141.87s0 .02.01.03c.04-.06.13-.13.16-.17.1-.12.19-.24.28-.36.31-.41.58-.84.8-1.3.28-.58.5-1.18.65-1.79-.45-.14-.88-.27-1.28-.4-.27.44-.48.92-.61 1.42-.21.76-.4 1.84-.02 2.57Z"/><path class="cls-18" d="M49.97 145.27c.71.44 1.49.65 2.3.76-.35.52-.63 1.09-.82 1.69-.34 1.05-.55 2.3.02 3.31.5.89 1.5 1.41 2.51 1.08.88-.29 1.41-1.19 1.72-2.01.24-.63.45-1.32.57-2.02.29.23.6.44.92.62.84.47 1.94.85 2.9.56.92-.28 1.37-1.23 1.35-2.14-.02-.95-.64-1.75-1.37-2.3-.34-.26-.7-.48-1.08-.69.1-.1.19-.2.27-.32.68-.95.62-2.18.09-3.17-1.21-.36-1.61-.88-1.61-.88l.54-.36c-.11-.09-.22-.17-.34-.24-1.24.6-2.63 1.43-3.96 2.27-.04.1-.08.2-.11.3-.03.1-.07.2-.1.32-.09-.1-.19-.2-.29-.3-.4.26-.78.51-1.15.77.43.37.79.83 1.08 1.32.16.27.55.31.82.2.6.13 1.25-.6.78-1.23-.01-.02-.03-.03-.04-.05.05-.23.15-.51.2-.65.14-.38.33-.73.57-1.06.24-.31.54-.65.89-.84.36-.2.65.1.92.34.58.49 1.02 1.25.83 2.03-.1.42-.5.84-.94.88-.21-.07-.42-.14-.62-.21-.32-.1-.66-.03-.84.28-.15.27-.12.68.16.87.28.18.59.3.91.34.73.27 1.44.6 2.07 1.05.57.4 1.17 1.02.93 1.77-.26.81-1.35.37-1.9.12-.82-.37-1.5-.96-2.02-1.69-.37-.53-1.33-.16-1.2.5.21 1.04-.11 2.17-.49 3.14-.2.51-.63 1.49-1.32 1.2-.88-.36-.68-1.64-.49-2.36.26-.97.78-1.84 1.47-2.57.34-.36.04-1.04-.44-1.08-.96-.07-2.01-.12-2.86-.62-.14-.08-.29-.19-.42-.31-.43.32-.8.59-1.09.82.21.21.44.4.68.55ZM53.73 164.86c-.16.26-.73.87-.77.25-.05-.65.38-1.31.8-1.77.44-.48-.21-1.37-.79-1.03-.74.42-1.48.92-2.26 1.26-.16.07-.45.22-.62.11-.17-.1-.12-.44-.09-.6.21-1.12 1.4-2.02 2.52-1.99.36 0 .71-.18.76-.57a.682.682 0 0 0-.57-.76c-.81-.11-1.62-.27-2.39-.55-.55-.2-1.26-.53-1.3-1.2-.03-.55.59-.67 1.02-.57.76.18 1.41.83 2.01 1.29.69.53 1.51-.54.82-1.07-.85-.65-1.77-1.5-2.89-1.6-1.05-.09-2.16.51-2.29 1.63-.19 1.57 1.05 2.41 2.45 2.87-.82.59-1.42 1.46-1.5 2.51-.09 1.09.6 2.06 1.77 1.96.44-.04.85-.23 1.23-.44-.07.45-.04.89.16 1.3.28.58.9.91 1.54.81.61-.09 1.15-.52 1.46-1.03.19-.31.19-.71-.12-.95-.26-.2-.75-.19-.95.12Z"/><path class="cls-18" d="M60.66 167.48c.83-.65 1.53-1.48 1.99-2.44.28-.59.34-1.28-.09-1.81-.33-.41-.87-.59-1.38-.62-1.07-.06-2.16.43-3.06.98.18-.74.27-1.5.24-2.27-.03-.86-.2-2.04-1.12-2.41-1.09-.43-1.8.92-2.18 1.72-.51 1.07-.71 2.26-.64 3.44.02.36.41.63.75.58.38-.05.6-.39.58-.75-.06-.95.14-1.89.55-2.74.1-.21.21-.41.34-.61.06-.09.13-.17.19-.26.09.18.11.34.14.55.25 1.77-.36 3.55-1.22 5.09-.13.2-.25.41-.36.62-.35.67.75 1.33 1.15.68.11-.19.22-.37.33-.56.51-.8 1.22-1.48 2.04-1.98.47-.29 1-.52 1.53-.66.32-.08.79-.15 1.05.02.02.01.05.06.04.04.03.08.02.12 0 .2-.08.27-.25.52-.41.75-.31.47-.69.89-1.12 1.25-.75.63-1.63 1.08-2.58 1.3-.14.03-.29.05-.43.08-.84.17-.69 1.47.17 1.34.18-.03.36-.06.54-.11.63-.12 1.27-.22 1.9-.2.65.02 1.49.13 1.94.65.41-.05.89-.12 1.44-.19-.02-.05-.04-.1-.07-.15-.42-.88-1.32-1.34-2.24-1.53Zm-3.77-7.29s.02 0 0 0ZM75.18 152.34c-.51-.1-1.03-.04-1.53.08-.24.06-.48.13-.72.18.31-.6.54-1.25.68-1.92.22-1.04.2-2.31-.56-3.15-.7-.77-1.86-1.11-2.78-.52-.46.3-.75.78-1.02 1.24-.27.46-.49.94-.66 1.45-.02.07-.05.14-.07.21-.04-.07-.08-.14-.13-.21-.57-.89-1.48-1.57-2.54-1.73-.46-.07-.79.32-.76.75.06.98.27 1.93.61 2.83-1.21-.4-2.53-.43-3.6.24-.78.49-1.16 1.46-.76 2.32.41.86 1.39 1.24 2.27 1.44.94.21 1.9.35 2.87.46-.38.68-.66 1.42-.82 2.19-.12.58-.16 1.16-.15 1.75.01.55.06 1.21.41 1.67.39.51 1.08.64 1.66.4.56-.23.9-.75 1.09-1.3.26-.71.49-1.44.71-2.17.21.42.44.83.69 1.23.54.85 1.19 1.7 2.15 2.1.95.41 2.04.12 2.52-.84.49-.97.09-2.05-.49-2.87-.32-.46-.67-.91-1.02-1.35a5.29 5.29 0 0 0 2.36-.71c.75-.44 1.4-1.16 1.34-2.08-.06-.95-.88-1.54-1.75-1.71Zm.35 2.07c-.32.58-1.16.87-1.77.99-.63.13-1.48.21-1.95-.34-.56-.65-1.61.13-1.07.82.74.94 1.49 1.87 2.21 2.82.28.37.61.79.65 1.27.02.28-.04.65-.35.75-.33.11-.72-.15-.97-.34-.39-.3-.67-.69-.94-1.09-.63-.92-1.1-1.94-1.43-3.01-.17-.53-1.07-.54-1.24 0l-.99 3.15c-.12.37-.2.86-.44 1.18-.06.08-.15.18-.26.19.02 0-.02-.04-.05-.13-.22-.77-.08-1.73.11-2.49.21-.84.61-1.63 1.14-2.31.3-.39.07-1.03-.44-1.08-1.22-.12-2.43-.28-3.63-.51-.5-.09-1.66-.34-1.59-.96.02-.2.23-.38.48-.49.35-.17.74-.22 1.12-.19.96.06 1.85.39 2.62.96.2.3.67.33.94.12.26-.2.31-.53.19-.81a.466.466 0 0 0-.12-.2c-.6-.93-1-1.96-1.2-3.04 1.11.77 1.4 2.53 1.59 3.76.13.86 1.42.69 1.34-.17-.1-1.06.03-2.13.38-3.13.16-.46.37-.92.62-1.34.18-.3.41-.72.8-.73.96 0 1.15 1.18 1.07 1.9-.12 1.08-.58 2.11-1.23 2.98a.68.68 0 0 0 .44 1.08c.59.1 1.16 0 1.72-.14.43-.11.87-.26 1.31-.25.28 0 .68.06.87.29.13.14.12.34.03.5ZM70.93 137.49a7.04 7.04 0 0 0-.84 3.91c.08.91.73 2.15 1.83 1.85.55-.15.91-.68 1.23-1.11.33-.44.62-.91.87-1.4.08-.16.16-.33.24-.5.4 1.12 1 2.18 1.79 3.04.37.41.85.73 1.43.64.55-.09 1.02-.54 1.19-1.06.19-.59.09-1.2-.02-1.79-.06-.34-.14-.68-.22-1.02-.46-.2-.99-.41-1.55-.62 0 .01 0 .03.01.04.17.58.31 1.17.42 1.77.05.3.32 1.16-.05 1.36l-.02-.01c-.08-.05-.15-.13-.22-.2-.19-.21-.36-.43-.52-.66-.31-.45-.58-.92-.79-1.42-.21-.47-.36-.96-.48-1.45-.59-.2-1.18-.39-1.75-.57-.15.62-.37 1.22-.65 1.79-.23.46-.5.89-.8 1.3-.09.12-.19.24-.28.36-.03.03-.12.11-.16.17 0-.01-.01-.02-.01-.03-.39-.73-.2-1.81.02-2.57.14-.49.35-.97.61-1.42-1.44-.44-2.51-.74-2.51-.74l-.15.36c-.04.11-.1.22-.18.34.47-.07.94-.2 1.39-.31l.13-.03Zm.73 4.46-.02-.02s.01 0 .02.02ZM79.58 160.91c-.21.55-.07 1.25.01 1.82.09.65.23 1.29.41 1.92-.7-.47-1.48-.78-2.37-.83-.55-.03-1.14 0-1.62.28-.52.29-.83.87-.6 1.46.2.52.73.93 1.12 1.31.14.13.27.26.41.39.63-.09 1.23-.17 1.77-.24 0 0-.02-.02-.03-.02-.44-.37-.87-.75-1.28-1.15-.19-.19-.39-.38-.57-.58-.01-.02-.03-.03-.04-.05.87-.33 2.03.21 2.71.71.34.25.65.54.94.86.84-.11 1.34-.18 1.34-.18l-.06-.5c-.01-.19-.02-.41-.02-.67-.16-.42-.31-.84-.43-1.27-.18-.64-.3-1.29-.37-1.95-.03-.26-.05-.51-.06-.76.04 0 .07.01.13.04.31.13.58.4.83.67.02-.59.04-1.18.04-1.73-.24-.16-.5-.27-.79-.32-.61-.11-1.22.18-1.45.78Zm1.24.5c0-.09.02-.04 0 0ZM81.8 144.87c-.5.35-1 .78-1.22 1.36-.21.54-.17 1.2.19 1.68.42.56 1.07.61 1.72.53.54-.07 1.08-.17 1.61-.3-.16.23-.31.46-.45.7-.57 1-1.12 2.27-1.09 3.44.02.64.36 1.25.99 1.47.6.21 1.27.03 1.75-.37.3-.25.53-.56.75-.88-.01.2-.02.4-.02.61-.01 1.05-.02 2.2.51 3.14.56.98 1.69 1.36 2.68.73 1.07-.69 1.15-2.01 1.16-3.16 0-.68-.03-1.35-.09-2.02.22.17.46.32.73.44.93.42 2.46.41 2.87-.74.08-.23.12-.47.12-.71-.69-.57-1.41-1.14-2.1-1.69.29.36.54.76.66 1.2.06.21.19.66-.03.79-.27.16-.73.01-.99-.1-.83-.38-1.31-1.26-1.76-2.01-.34-.57-1.34-.14-1.2.5.29 1.39.45 2.81.46 4.23 0 .56.03 1.19-.21 1.71-.14.3-.48.64-.81.49-.26-.12-.43-.54-.51-.86-.13-.5-.13-1.04-.14-1.55-.02-1.34.17-2.68.52-3.96.17-.65-.85-1.05-1.2-.51-.63.97-1.23 1.98-1.9 2.92-.12.16-.5.69-.78.53-.22-.12-.05-.66-.01-.84.39-1.76 1.43-3.36 2.84-4.48.59-.47.04-1.47-.67-1.16-1.02.45-2.08.79-3.17.99-.28.05-.57.1-.85.13-.13.01-.22.05-.3-.04-.18-.21.1-.56.23-.7.66-.69 1.67-1.15 2.55-1.49.35-.13.71-.24 1.07-.33-.45-.31-.93-.65-1.41-.98-.23.09-.47.18-.69.28-.62.28-1.22.62-1.78 1.01Z"/></g><path class="cls-18" d="M71.75 117.14c.14-.4.28-.8.34-1.22.06-.38.06-.77.01-1.15-.09-.74-.38-1.47-.9-2.01-.27-.28-.59-.49-.95-.65s-.73-.26-1.08-.42-.65-.39-.81-.74c-.18-.38-.21-.81-.26-1.22s-.12-.84-.31-1.21c-.16-.32-.39-.61-.67-.84-.55-.46-1.29-.71-2-.72-.37 0-.74.04-1.09.15-.43.13-.82.36-1.22.55-.38.18-.77.36-1.19.4-.42.03-.77-.15-1.07-.42s-.55-.59-.88-.82c-.31-.22-.66-.37-1.03-.45-.71-.17-1.5-.08-2.16.24-.35.18-.66.42-.92.72-.3.35-.52.76-.8 1.13-.26.33-.61.66-1.05.73-.44.06-.79-.2-1.2-.24s-.75.14-.97.46c-.21.3-.3.68-.33 1.04-.03.36 0 .73-.04 1.1-.04.32-.13.65-.41.84-.17.11-.37.16-.55.25-.21.1-.38.24-.5.45-.21.37-.24.84-.15 1.25s.27.78.56 1.07c.33.34.75.5 1.16.71.25.12.54.32.65.6-.48-.29-1.08-.4-1.63-.27-.35.08-.7.29-1.03.23-.22-.04-.44-.18-.63-.31-.42-.28-.91-.66-1.44-.46-.57.2-.65.85-.73 1.36-.04.26-.08.52-.22.73-.14.22-.36.38-.59.51-.52.3-1.1.51-1.49.98-.39.47-.5 1.1-.42 1.7.09.63.39 1.21.8 1.69.22.25.49.53.58.86.09.33-.14.62-.29.9-.29.54-.3 1.19-.11 1.77.2.58.62 1.06 1.18 1.31.29.13.63.21.86.44.23.23.3.55.33.86.03.34.02.69.03 1.03.02.38.08.77.21 1.12.25.66.82 1.23 1.55 1.29.18.02.35 0 .52-.05.17-.05.33-.17.51-.18.26-.01.42.29.46.52.06.4-.03.8.03 1.2.05.35.18.68.35.98.36.61.95 1.05 1.64 1.22s1.44.05 2.05-.31c.31-.18.6-.41.95-.52.28-.09.53-.04.77.1.42.24.76.67 1.22.88.24.11.49.12.74.04.11-.03.15-.18.11-.28-.04-.1-.15-.14-.25-.12-.13-.5-.46-1.8-.65-2.42-.24-.78-1.67-4.94-1.67-4.94-.09.8-.76.44-.76.44s-1.05-1.16-1.4-1.71c-.35-.55-.32-1.21.02-1.66.34-.45 1.13-.45 1.13-.45s.26.31.51.36c.25.05.66.32.66.32s.19-.41.24-.55c.05-.14.38-1.32.47-1.76s.18-2.25.32-2.92c.14-.67 1.04-1.29 1.04-1.29s-.65-.5-.9-.66c-.26-.16-1.32-.6-1.32-.6l.56-.26s.85-.28.99-.26c.14.02.94-.27 1.23-.37.29-.1.92-.18 1.11-.18.19 0 1.1-.27 1.27-.25s.79-.47 1-.58.36-.38.8-.6c.44-.23.62-.72.62-.72s2.48 1.09 2.83 1.36 1.59 1.73 2.1 2.57 1.53 4.31 1.67 4.76c.11.34.34 1.35.43 1.79-.01 0-.02.01-.03.02-.1.06-.16.16-.11.28.04.1.18.17.28.11 1.33-.73 2.11-2.25 2.04-3.76-.02-.37-.09-.74-.22-1.09-.15-.42-.41-.8-.6-1.21s-.29-.81-.24-1.25c.05-.45.21-.87.35-1.3Z"/><g id="Layer_8"><path class="cls-18" d="M58.57 138.13c-.04-.2-.54-2.19-.54-2.19L57 132.39l-1.33-3.97s-.85.78-1.63-.31c-.79-1.1-1.29-1.7-.61-2.4s1.11-.54 1.11-.54.64.59.95.66l.32.08s.5-1.25.61-1.75.33-1.9.32-2.45.09-1.14.26-1.45.92-.94.92-.94-.92-.72-1.24-.85-.73-.44-.73-.44.25-.39.42-.38.4-.03.87-.1 1.36-.42 1.79-.58c.42-.16 1.93-.48 2.15-.36s1.13-.92 1.13-.92.89-.7 1.09-.86c.23-.18.89.34 1.12.37s1.08.57 1.51.94c.46.39 1.62 1.63 1.89 2.12s1.19 2.77 1.38 3.38.86 3.08.93 3.64.09 2.55-.08 3.13-.38 1.21-.69 1.65-.42.65-.76.95-1.33.85-1.33.85.52 2.87.57 3.09.32 1.51.32 1.51-2.46.68-2.88.78c-.42.1-3.64.65-3.89.68s-2.63.34-2.63.34l-.28-.15Z"/><path class="cls-18" d="m53.08 131.03 5.44-1.86s.15 1.14-.27 1.75-.95 1.22-1.47 1.39-1.39.33-1.94.11c-.56-.22-1.08-.5-1.31-.77s-.44-.62-.44-.62Z"/></g><g id="Head"><path class="cls-18" d="m68.41 137.12-.11-.43h.03c.11-.04.16-.18.11-.28-.05-.11-.17-.15-.28-.11-1.22.4-2.45.74-3.71 1a30.5 30.5 0 0 1-3.7.52c-.74.06-1.48.09-2.22.11-.11 0-.2.13-.18.24.02.12.12.19.24.18l.11.68-1.3.67c.16.22.79.78 1.59 1.08.79.31 2.41.43 3.09.39s2.05-.04 2.8-.18 1.95-.56 3.07-1.25 1.98-2.28 1.98-2.28l-1.52-.34ZM63.35 114.66c-.11-.05-.22.01-.28.11-.09.17-.19.36-.33.49-.17.16-.42.17-.62.3-.16.11-.27.27-.38.43-.05.08-.1.15-.16.22-.04.05-.11.1-.16.13-.03.01-.05.03-.07.05-.02 0-.05.02-.07.04-.12.09-.27.1-.45.1-.16 0-.36-.02-.53-.01-.21 0-.4.07-.58.18-.07.04-.14.1-.23.1-.1 0-.2-.03-.3-.04-.4-.01-.74.16-1.09.33-.16.08-.33.16-.51.22-.16.05-.32.04-.5.02a.903.903 0 0 0-.4.02c-.12.04-.21.12-.31.18-.19.11-.43.17-.65.17-.11 0-.22.06-.24.18v.09s-.01.02-.02.03c-.04.1 0 .24.11.28.7.24 1.35.58 1.94 1.03-.65.44-.94 1.25-1.03 2.01-.06.51-.05 1.03-.09 1.54-.04.48-.12.96-.24 1.43-.13.53-.32 1.05-.56 1.55-.12.25.28.41.39.17.41-.88.68-1.82.79-2.77.06-.49.06-.97.09-1.46.03-.46.08-.92.27-1.34.17-.38.44-.73.82-.89h.01a.16.16 0 0 0 .09-.07c.07-.09.05-.22-.04-.3-.55-.46-1.17-.84-1.84-1.11.06-.02.12-.04.17-.06.11-.04.21-.1.31-.17.08-.05.14-.09.23-.09.1 0 .2.03.31.04.1 0 .21 0 .32-.02.19-.04.38-.11.56-.19.33-.15.66-.37 1.02-.38.07 0 .18.02.27.03.13.01.26 0 .38-.06.09-.04.17-.11.26-.15.08-.04.15-.05.24-.06.42-.04.88.1 1.26-.18.01 0 .02-.02.03-.03h.02c.2-.09.34-.26.47-.44.06-.08.11-.17.17-.24.06-.07.1-.12.17-.16.09-.05.24-.08.34-.13.11-.05.22-.12.31-.21.18-.18.31-.4.43-.62.05-.1-.01-.24-.11-.28Z"/><path class="cls-18" d="M56.8 132.48c.32 1.02.62 2.05.9 3.08.27.97.51 1.95.72 2.94.09.46.18.91.24 1.37.04.27.46.22.42-.05-.12-.89-.32-1.76-.53-2.63-.26-1.05-.54-2.1-.85-3.14-.17-.58-.34-1.16-.52-1.74-.03-.11-.18-.16-.28-.11-.11.05-.15.17-.11.28ZM55.47 128.51c.16.46.32.91.48 1.37.04.11.18.16.28.11.11-.05.15-.17.11-.28-.16-.46-.32-.91-.48-1.37a.209.209 0 0 0-.28-.11c-.11.05-.15.17-.11.28ZM70.43 125.27c-.12-.82-.33-1.63-.56-2.43s-.46-1.53-.71-2.29c-.47-1.39-1.11-2.73-2.14-3.79-.92-.94-2.07-1.67-3.33-2.05-.16-.05-.33-.09-.5-.13-.11-.03-.23.07-.24.18-.02.12.07.21.18.24 1.22.28 2.35.91 3.27 1.75.46.42.86.9 1.2 1.43.41.63.72 1.32.98 2.02.27.72.49 1.46.71 2.19.23.76.45 1.52.61 2.29.28 1.38.36 2.84-.1 4.18-.38 1.09-1.09 2.12-2.12 2.66-.02 0-.03.01-.05.02-.03 0-.06 0-.09.02a8.066 8.066 0 0 1-5.59.49c-.11-.03-.23.08-.24.18-.02.13.07.21.18.24a8.618 8.618 0 0 0 5.3-.3c.08.69.23 1.38.37 2.06.18.89.38 1.78.56 2.67.07.37.15.74.2 1.11.04.27.46.22.42-.05-.1-.75-.27-1.5-.43-2.24-.19-.89-.38-1.78-.55-2.67-.06-.34-.12-.69-.16-1.03 1.1-.48 1.92-1.44 2.4-2.53.58-1.33.64-2.79.43-4.21Z"/><path class="cls-18" d="M54.68 124.97c-.76-.14-1.59.43-1.7 1.21-.08.51.19.99.45 1.41.13.22.28.43.43.63.14.18.28.37.47.51a1.2 1.2 0 0 0 1.46 0c.22-.17-.04-.5-.26-.34-.26.2-.63.22-.9.03-.16-.11-.28-.25-.39-.4-.13-.17-.26-.35-.38-.54-.21-.33-.47-.72-.47-1.13 0-.28.15-.53.36-.7a1.077 1.077 0 0 1 .88-.26c.11.02.22-.07.24-.18.02-.12-.07-.22-.18-.24Z"/><path class="cls-18" d="M55.9 125.66a2.13 2.13 0 0 1-.35-.14c-.03-.01-.06-.03-.09-.04-.01 0-.03-.01-.04-.02-.02 0-.03-.02 0 0-.06-.03-.11-.07-.16-.11-.1-.07-.19-.15-.28-.24l-.01-.01c0-.01-.02-.02-.03-.03-.02-.02-.04-.05-.06-.07l-.12-.15a.22.22 0 0 0-.3-.04c-.09.08-.11.2-.04.3.32.45.8.79 1.32.95.11.03.24 0 .28-.11.04-.1 0-.24-.11-.28ZM53.16 131.23l4.24-1.45 1.2-.41c.11-.04.16-.18.11-.28-.05-.11-.17-.15-.28-.11l-4.24 1.45-1.2.41c-.11.04-.16.18-.11.28.05.11.17.15.28.11Z"/><path class="cls-18" d="M52.88 131.14c.56 1.02 1.67 1.61 2.82 1.61s2.22-.74 2.76-1.77c.3-.58.43-1.24.36-1.89-.03-.27-.45-.22-.42.05.11 1-.36 2.04-1.16 2.66-.4.3-.86.48-1.36.52s-.98-.06-1.42-.27c-.49-.23-.93-.61-1.18-1.08-.06-.1-.16-.16-.28-.11-.1.04-.17.18-.11.28Z"/><path class="cls-18" d="M54.8 128.13c.17.66.38 1.3.64 1.93.1.25.5.09.39-.16a14.4 14.4 0 0 1-.61-1.82c-.03-.11-.11-.2-.24-.18-.1.01-.21.13-.18.24Z"/></g><g id="Face"><path class="cls-18" d="M64.13 128.45c.61.32 1.4.14 1.84-.37a.22.22 0 0 0-.04-.3c-.09-.07-.22-.05-.3.04-.15.18-.39.31-.61.35-.26.05-.49.02-.73-.1-.1-.05-.24.01-.28.11-.05.11.01.23.11.28ZM63.15 126.05c-.34.42-.18 1.09.34 1.28.27.1.54.05.78-.11.09-.06.18-.14.29-.15s.22.04.32.07c.26.08.5.1.76.03.23-.07.44-.21.59-.39.08-.1.13-.21.18-.32 0-.02.02-.04.03-.05-.02.02.01 0 .02 0 .02 0 .09-.02.14-.02.13 0 .26-.01.37-.07.13-.06.24-.17.3-.31.14-.32 0-.65-.17-.92a.752.752 0 0 0-.36-.3.44.44 0 0 0-.47.14c-.08.09-.05.23.04.3.1.07.22.05.3-.04-.02.02 0 0 .02.01 0 0 .04.03.06.04.07.06.12.16.16.25.04.08.07.18.06.25 0 .07-.03.14-.08.18-.02.02-.05.03-.07.03-.05 0-.09.01-.14.01-.11 0-.21.01-.32.05a.47.47 0 0 0-.25.23c-.05.09-.07.18-.13.25-.1.13-.22.22-.38.27a.73.73 0 0 1-.23.04c-.05 0-.17-.02-.25-.04-.23-.07-.46-.15-.7-.08-.11.04-.2.1-.29.16-.03.02-.06.05-.1.06-.04.02-.08.04-.11.04-.16.03-.34-.03-.42-.19a.415.415 0 0 1 .05-.45c.17-.21-.16-.47-.34-.26Z"/></g><g id="Open_eyes"><path class="cls-18" d="M60.82 123.68c.13-.02.23-.14.21-.28s-.14-.23-.28-.21-.23.14-.21.28.14.23.28.21ZM66.41 121.65v.03s.02.06.03.08c.01.02.03.05.05.06.02.02.05.03.07.03.03.01.05.01.08 0h.06s.06-.05.09-.08l.03-.05s.02-.07.02-.11v-.03s-.02-.06-.03-.08c-.01-.02-.03-.05-.05-.06a.108.108 0 0 0-.07-.03.11.11 0 0 0-.08 0h-.06s-.06.05-.09.08l-.03.05s-.02.07-.02.11Z"/></g><path class="cls-18" d="M53.96 132.29c.12.03.29-.31.39-.75.1-.44.08-.82-.04-.84-.12-.03-.29.31-.39.75-.1.44-.08.82.04.84Z"/><ellipse class="cls-18" cx="55.37" cy="131.28" rx=".22" ry="1.04" transform="rotate(-7.28 55.338 131.205)"/><path class="cls-18" d="M57.3 131.64c.1-.07-.06-.47-.36-.88-.3-.42-.62-.7-.72-.63s.06.47.36.88c.3.42.62.7.72.63ZM58.53 130.8c.08-.09-.17-.42-.54-.74-.38-.32-.75-.5-.82-.4-.08.09.17.42.54.74s.75.5.82.4Z"/></g><path class="cls-9" d="M109.35 140.53c1.31.36 1.71 3.18 1.74 3.84.03.66 0 1.57-1.06 1.8 0 0-.38.21-2.41.5-2.33.42-5.92 1.06-6.87 1.09s-1.7.09-2.01-.96-.57-2.23-.7-2.96-.02-1.49 1.94-1.84c1.96-.35-.86.17 3.3-.58 2.47-.44 5.39-1.07 6.08-.88ZM132.84 136.62c1.31.36 1.71 3.18 1.74 3.84.03.66 0 1.57-1.06 1.8 0 0-.38.21-2.41.5-2.33.42-5.92 1.06-6.87 1.09s-1.7.09-2.01-.96-.57-2.23-.7-2.96-.02-1.49 1.94-1.84c1.96-.35-.86.17 3.3-.58 2.47-.44 5.39-1.07 6.08-.88ZM155.87 132.78c1.31.36 1.71 3.18 1.74 3.84.03.66 0 1.57-1.06 1.8 0 0-.38.21-2.41.5-2.33.42-5.92 1.06-6.87 1.09-.94.04-1.7.09-2.01-.96s-.57-2.23-.7-2.96-.02-1.49 1.94-1.84c1.96-.35-.86.17 3.3-.58 2.47-.44 5.39-1.07 6.08-.88Z"/><path class="cls-4" d="M63.63 68.68c-2.14.38-8.15 1.54-10.29 1.92-5.3.95-10.19 2.31-15.49 3.26-4.27.77-8.35 2.07-12.63 2.84l-6.3 1.5c-1.51.31-5.92 1.27-6.69 3.93-.36 1.25-.06 2.56.14 3.81.19 1.24.38 2.49.6 3.72 0 .02.01.03.01.05.82 5.16 1.68 10.3 2.56 15.45.81 4.72 1.66 9.43 2.53 14.15C24 99.46 43.41 81.34 63.62 68.68Z"/><g id="Layer_16"><path class="cls-2" d="M12.94 93.62c-.24-1.36-.45-2.72-.66-4.08-.21-1.37-.54-2.81-.15-4.18.83-2.91 4.15-3.2 6.68-3.66l8.96-1.61 14.06-2.52c5.82-1.04 11.63-2.09 17.45-3.13 1.98-.36 3.97-.71 5.96-1.07.21-.22.38-.43.48-.49.25-.16-44.17 5.01-48.9 6.83-4.73 1.82-6.53-.51-6.53 5.02s5.27 24.58 5.5 25.89c-.97-5.64-1.91-11.29-2.81-16.94 0-.02-.01-.04-.02-.06Z"/><path class="cls-16" d="M46.47 79.38h.03-.03ZM46.28 79.42l.16-.03s-.1.02-.16.03ZM46.44 79.39h.03-.03Z"/><path class="cls-2" d="M152.77 57.66c.62-.1 1.25-.17 1.88-.14 1.16.05 2.35.42 3.14 1.31.88.99 1.19 2.27 1.44 3.53l.87 4.4c.23.08.43.14.52.17.28.07-.07-2.01-.34-3.69-.27-1.69.87-5.3-1.52-6.3-2.4-.99-10.46.43-10.46.43.32.19.73.54 1.09.9 1.13-.2 2.26-.41 3.39-.61Z"/></g><path class="cls-4" d="M119.92 90.34c2.23.61 2.91 5.37 2.96 6.48.05 1.11-.08 2.82-1.88 3.2-1.8.39-8.18 1.52-15.84 2.93-3.94.72-10.02 1.82-11.62 1.89-1.6.07-2.88.15-3.41-1.62s-.98-3.78-1.2-5-.04-2.52 3.27-3.13c3.31-.61 8.32-1.51 15.36-2.8 4.18-.77 11.2-2.27 12.36-1.95Z"/><circle cx="157.61" cy="59.68" r="37.21" style="fill:#f2a6b0;stroke-width:0"/><path class="cls-9" d="M194.82 59.68c0 20.55-16.66 37.21-37.21 37.21-11.17 0-20.95-4.65-27.77-12.44l53.41-51.75c7.13 6.78 11.58 16.36 11.58 26.98Z"/><g style="clip-path:url(#clippath-1)"><g id="Layer_18"><path class="cls-2" d="M159.65 54.94c-.2-.16-.41-.28-.48-.3.07.04.14.08.2.12l.27.18ZM132.58 89.21c.08-.08.16-.15.24-.22-.02.01-.03.02-.05.03l-.19.19ZM160.01 55.18c-.12-.07-.24-.15-.35-.24.04.03.07.06.11.09l.01.01c.07.04.15.09.24.14Z"/><path class="cls-2" d="M219.38 66.38c.7-2.98 2.28-5.67 4.41-7.8-.07-4.72-.21-9.85-.44-12.93-1.74-.26-3.45-.81-5.09-1.65-2.77-1.42-5.37-4-6.72-6.82-4.75-1.23-13.08-3.4-19.35-5.03-.63 1.15-1.44 2.23-2.46 3.2-3.68 3.51-9.3 4.94-14.15 3.21-1.9-.68-3.31-1.97-4-3.62-3.01 2.87-6.23 5.96-7.87 7.57-.15.15-.32.31-.5.49 1.05.42 2.04.95 2.91 1.57 3.42 2.42 5.97 5.84 6.66 10.05.43 2.61.4 4.93.01 7.54-.32 2.12-1.04 4-1.9 5.97-.62 1.43-2.25 2.36-3.66 2.82-1.58.51-3.3.13-4.72-.62-1.33-.7-2.42-2.24-2.82-3.66-.42-1.52-.15-2.82.4-4.18-.08.2-.17.4-.25.59.45-1.1.78-2.22 1-3.38.06-.78.07-1.55.02-2.33-.08-.41-.19-.81-.31-1.21a9.18 9.18 0 0 0-.39-.68c-.13-.14-.26-.28-.4-.41-.55-.32-.67-.43-.59-.41-.15-.09-.3-.17-.46-.25-.4-.13-.8-.24-1.21-.33-.36-.02-.73-.02-1.09 0-.31.07-.62.15-.93.25-.39.2-.77.43-1.15.66-.23.2-.45.42-.67.64-.16.17-.3.35-.46.53-.03.05-.06.09-.09.14-.26.4-.48.81-.69 1.23-.26.77-.46 1.56-.58 2.38-.22 1.54-1.57 2.86-2.82 3.66-1.39.9-3.15.97-4.72.62-.61-.14-1.23-.44-1.78-.82-2 2.02-4.66 4.71-7.34 7.4.07.02.15.05.22.07 3.68 1.22 6.78 3.56 8.81 6.88 1.72 2.81 2.65 6.43 2.27 9.72-.44 3.8-1.92 7.3-4.71 9.99-1.14 1.1-2.5 2.15-3.94 2.84-.21.1-.43.2-.63.29.93.23 1.72.42 2.31.54 4.8 1.03 8.19.48 11.11-.27 1.15-.29 3.67-.98 6.63-1.78-.84-.93-1.57-1.98-2.1-3.07-1.34-2.72-1.72-5.4-1.14-8.38.66-3.37 4.51-4.97 7.54-4.28 1.46.33 2.92 1.55 3.66 2.82.73 1.25.89 2.59.74 3.97V90.2c.06.1.11.2.17.3l.1.15.32.37c.18.19.38.37.57.54.2.13.39.26.59.38.25.15.51.29.78.42.56.19 1.13.35 1.7.47.49.03.98.03 1.47 0 .38-.08.75-.18 1.12-.3.29-.16.58-.32.86-.5.14-.13.29-.27.43-.41.02-.04.15-.2.45-.52.19-.3.36-.61.53-.92.12-.37.23-.75.32-1.13v-.24c-1.12-1.1-1.61-2.69-1.68-4.22-.07-1.53.73-3.27 1.79-4.33.99-.99 2.87-1.96 4.33-1.79 1.34.15 2.45.35 3.65 1.02 1.03.57 2.02 1.63 2.62 2.65.58.98.98 2.11 1.2 3.23.35 1.81.42 3.58.19 5.36 7.42-2.16 14.97-4.42 17.88-5.39 5.77-1.93 11.13-3.2 14.46-6.07.25-.22.49-.45.72-.68-1.66-3.86-2.13-8.01-1.15-12.16Zm-10.63 6.26c-.85 1.45-2.14 2.25-3.66 2.82-4.02 1.48-8.46.85-12.26-.91-6.76-3.13-10.13-11.66-7.89-18.67 1.19-3.71 3.64-6.82 6.99-8.81 1.44-.86 3.14-1.57 4.8-1.88 2.28-.42 4.11-.38 6.4-.05 1.54.22 2.86 1.57 3.66 2.82.9 1.39.97 3.15.62 4.72-.33 1.46-1.55 2.92-2.82 3.66-1.39.81-2.73.86-4.22.68l.84.11c-.52-.06-1.03-.07-1.55-.05-.35.08-.7.18-1.05.29-.24.12-.48.26-.71.4-.35.39-.53.51-.57.5-.07.07-.14.14-.2.21-.13.2-.25.41-.36.62-.09.29-.17.59-.24.88-.02.35-.01.69 0 1.04.07.32.16.65.26.96.14.25.28.5.43.76a4.682 4.682 0 0 0 .55.53c.23.15.48.29.72.42.35.12.71.22 1.08.3.33.02.66.02.99 0 .43-.1.84-.22 1.26-.37 3.22-1.19 6.59 1.34 7.54 4.28.48 1.47.15 3.41-.62 4.72Z"/><path class="cls-2" d="M174.48 91.15c-.11.12-.21.25-.32.37l-.08.08c-.04.08.22-.17.4-.44ZM132.82 88.99s.06-.03.08-.05c.3-.2.6-.55.42-.42-.04.04-.07.08-.11.11-.13.13-.26.24-.4.36ZM174.48 91.15c.1-.12.2-.24.31-.35-.1.11-.19.19-.27.28-.02.02-.03.05-.05.07ZM197.83 57.82s-.05.03-.08.05c-.29.19-.44.39-.4.4a3.499 3.499 0 0 1 .48-.45ZM197.83 57.82s.06-.04.09-.05c.05-.05.1-.11.16-.18-.07.08-.16.16-.24.23ZM179.04 90.58c-.29-.05-.58-.11-.85-.19.09.04.17.07.26.11.2.03.39.05.59.08ZM133.83 84.03ZM133.51 83.68c-.15-.22-.31-.36-.34-.36.06.06.12.11.18.17.06.06.11.12.17.19Z"/><path class="cls-2" d="M133.6 83.82c.06.06.13.12.21.2-.11-.1-.2-.22-.3-.34.02.02.03.05.05.07.01.02.03.05.04.07Z"/><path class="cls-2" d="M127.41 91.49c1.19-1.19 2.49-1.53 4.07-1.76-.36.05-.72.1-1.08.14.54-.09 1.06-.22 1.57-.39.27-.14.54-.3.81-.47.31-.3.48-.45.56-.51.1-.1.2-.21.3-.32.16-.25.31-.51.45-.77.09-.27.16-.55.22-.83.01-.33.01-.66 0-.99-.08-.38-.18-.75-.3-1.12a8.86 8.86 0 0 0-.38-.67c-.38-.36-.47-.51-.44-.51a5.78 5.78 0 0 0-.25-.24c-.25-.15-.5-.3-.75-.43-.34-.11-.69-.21-1.04-.29-.36-.02-.73-.02-1.09 0-.36.08-.71.17-1.06.29-1.92.85-3.93.84-5.62-.02-2.28 2.41-5.72 6.3-5.72 6.3s-1.6 5-1.62 5.54c-.02.54.34.54.34.54s4.45 1.22 9.54 2.58c-.16-.57-.25-1.17-.28-1.76-.07-1.53.73-3.27 1.79-4.33ZM131.51 89.72h.07-.07Z"/><path class="cls-11" d="M175.59 38.54c4.85 1.73 10.47.3 14.15-3.21 1.01-.97 1.83-2.05 2.46-3.2-3.82-1-6.87-1.79-7.87-2.06-2.9-.77-5.91-1.65-5.91-1.65s-3.26 3.09-6.82 6.49c.69 1.65 2.1 2.95 4 3.62Z"/><path class="cls-14" d="M197.54 58.07c-.07.06-.13.13-.19.2.03.01.21-.11.57-.5-.03.02-.06.04-.09.05-.1.08-.2.16-.29.25Z"/><path class="cls-11" d="M201.83 63.63c-.42.15-.83.27-1.26.37-.33.01-.66.01-.99 0-.36-.08-.72-.18-1.08-.3-.25-.13-.49-.27-.72-.42-.1-.08-.19-.17-.24-.21-.11-.1-.21-.21-.31-.32-.14-.25-.29-.51-.43-.76-.1-.32-.19-.64-.26-.96a9.02 9.02 0 0 1 0-1.04c.07-.3.15-.59.24-.88.11-.21.23-.42.36-.62.07-.07.14-.14.2-.21-.04-.01.11-.21.4-.4.02-.02.05-.03.08-.05.09-.07.17-.15.24-.23-.06.06-.11.12-.16.18.23-.14.47-.28.71-.4.34-.11.69-.21 1.05-.29.51-.02 1.03 0 1.55.05l-.84-.11c1.49.18 2.83.13 4.22-.68 1.27-.74 2.48-2.2 2.82-3.66.36-1.57.28-3.33-.62-4.72-.8-1.24-2.13-2.6-3.66-2.82-2.28-.32-4.11-.37-6.4.05-1.66.31-3.36 1.02-4.8 1.88-3.35 2-5.8 5.11-6.99 8.81-2.25 7.01 1.13 15.54 7.89 18.67 3.8 1.76 8.24 2.39 12.26.91 1.53-.56 2.82-1.37 3.66-2.82.77-1.31 1.09-3.25.62-4.72-.95-2.94-4.32-5.47-7.54-4.28ZM149.03 63.54c1.25-.8 2.6-2.13 2.82-3.66.12-.82.31-1.61.58-2.38.21-.42.44-.83.69-1.23.03-.05.06-.09.09-.14.15-.17.3-.36.46-.53.21-.22.44-.43.67-.64.38-.23.76-.45 1.15-.66.31-.1.62-.18.93-.25.36-.02.73-.01 1.09 0 .41.09.81.2 1.21.33.15.08.31.16.46.25.07.02.28.14.48.3.12.08.23.16.35.24-.09-.05-.17-.09-.24-.13.14.13.27.27.4.41.14.23.27.45.39.68.13.4.23.8.31 1.21.05.78.04 1.55-.02 2.33-.22 1.16-.55 2.28-1 3.38.08-.2.17-.4.25-.59-.54 1.37-.81 2.66-.4 4.18.39 1.42 1.49 2.96 2.82 3.66 1.42.75 3.15 1.13 4.72.62 1.41-.46 3.04-1.39 3.66-2.82.85-1.97 1.58-3.84 1.9-5.97.39-2.6.42-4.93-.01-7.54-.69-4.22-3.25-7.63-6.66-10.05-.88-.62-1.87-1.15-2.91-1.57-4.09 4.01-15.42 14.93-17.67 17.28-.49.51-1.58 1.62-3.02 3.08.56.39 1.17.68 1.78.82 1.57.36 3.33.28 4.72-.62Z"/><path class="cls-14" d="M159.65 54.94c-.09-.06-.18-.13-.27-.18-.07-.04-.13-.08-.2-.12-.08-.02.04.08.59.41l-.01-.01c-.03-.03-.07-.06-.11-.09ZM174.48 91.15s.03-.05.05-.07c-.3.32-.43.47-.45.52l.08-.08c.11-.12.22-.24.32-.37Z"/><path class="cls-11" d="M187.29 85.33c-.22-1.12-.62-2.25-1.2-3.23-.6-1.02-1.58-2.08-2.62-2.65-1.19-.66-2.31-.87-3.65-1.02-1.46-.16-3.34.8-4.33 1.79-1.06 1.06-1.86 2.81-1.79 4.33.07 1.53.56 3.12 1.68 4.22v.24c-.09.38-.19.76-.32 1.13-.16.31-.33.62-.53.92.08-.08.16-.17.27-.28-.11.11-.21.23-.31.35-.18.28-.44.52-.4.44-.14.14-.28.27-.43.41-.28.17-.57.34-.86.5-.37.12-.74.22-1.12.3-.49.03-.98.02-1.47 0-.58-.12-1.15-.28-1.7-.47-.26-.13-.52-.27-.78-.42-.2-.12-.4-.25-.59-.38-.2-.17-.39-.35-.57-.54-.06-.06-.2-.23-.32-.37l-.1-.15c-.06-.1-.11-.2-.17-.3V90.06c.16-1.37 0-2.72-.74-3.97-.74-1.27-2.2-2.48-3.66-2.82-3.03-.69-6.88.92-7.54 4.28-.58 2.98-.2 5.66 1.14 8.38.54 1.09 1.27 2.14 2.1 3.07 4.58-1.24 10.18-2.76 13.24-3.52 2.5-.62 9.68-2.66 16.99-4.79.23-1.78.16-3.55-.19-5.36Zm-8.25 5.25c-.2-.03-.39-.05-.59-.08-.09-.04-.17-.07-.26-.11.27.08.56.14.85.19Z"/><path class="cls-14" d="M133.6 83.82s-.03-.05-.04-.07c-.02-.02-.03-.05-.05-.07-.05-.07-.11-.13-.17-.19-.06-.06-.12-.12-.18-.17-.04 0 .06.14.44.51Z"/><path class="cls-11" d="M141.78 97.4c2.8-2.69 4.27-6.19 4.71-9.99.38-3.29-.55-6.91-2.27-9.72-2.03-3.32-5.13-5.67-8.81-6.88-.07-.02-.15-.05-.22-.07-4.78 4.81-9.57 9.6-10.51 10.51-.34.33-.81.81-1.33 1.37 1.69.86 3.7.87 5.62.02.35-.12.7-.21 1.06-.29.36-.02.73-.01 1.09 0 .35.08.7.18 1.04.29.25.13.5.28.75.43.08.08.17.16.25.24.04 0 .19.14.34.36.1.12.19.23.3.34-.08-.07-.15-.13-.21-.19.14.22.26.44.38.67.12.37.22.74.3 1.12.02.33.02.66 0 .99-.06.28-.14.55-.22.83-.14.26-.28.52-.45.77-.1.11-.2.21-.3.32.18-.13-.12.23-.42.42-.03.02-.06.03-.08.05-.08.07-.16.14-.24.22l.19-.19c-.26.17-.53.32-.81.47-.51.17-1.03.29-1.57.39.36-.05.72-.1 1.08-.14-1.57.22-2.87.57-4.07 1.76-1.06 1.06-1.86 2.81-1.79 4.33.03.59.11 1.18.28 1.76 3.99 1.07 8.38 2.22 11.32 2.95.21-.09.42-.19.63-.29 1.44-.69 2.8-1.74 3.94-2.84Zm-10.27-7.68h.07-.07Zm2.32-5.69Z"/><path class="cls-14" d="M132.82 88.99c.13-.12.27-.24.4-.36.04-.04.07-.08.11-.11-.08.06-.25.21-.56.51.02-.01.03-.02.05-.03Z"/></g></g><path d="m179.67 45.09-2.66-2.66c-.8-.8-2.11-.8-2.91 0l-25.19 25.19-9.19-9.19c-.8-.8-2.11-.8-2.91 0l-2.66 2.66c-.8.8-.8 2.11 0 2.91l10.43 10.43c.06.08.12.16.19.23a5.824 5.824 0 0 0 8.23 0l26.67-26.67c.8-.8.8-2.11 0-2.91Z" style="fill:#ba4d02;stroke-width:0"/><path class="cls-10" d="m176.87 42.32-2.66-2.66c-.8-.8-2.11-.8-2.91 0l-25.19 25.19-9.19-9.19c-.8-.8-2.11-.8-2.91 0l-2.66 2.66c-.8.8-.8 2.11 0 2.91l10.43 10.43c.06.08.12.16.19.23a5.824 5.824 0 0 0 8.23 0l26.67-26.67c.8-.8.8-2.11 0-2.91ZM188.68 70.18c-.43-.23-3.36 5.2-8.55 10.58-5.15 5.44-10.44 8.6-10.19 9.02.1.18 1.56-.38 3.72-1.69.54-.33 1.12-.7 1.72-1.13.62-.42 1.24-.9 1.9-1.42 1.3-1.05 2.67-2.28 4.01-3.67 1.33-1.4 2.49-2.82 3.48-4.17.48-.68.94-1.33 1.33-1.96.41-.62.75-1.22 1.05-1.77 1.21-2.21 1.71-3.7 1.52-3.79Z"/><path class="cls-8" d="M146.81 104.67c-.36-.61-13 1.13-28.22 3.88-15.22 2.75-27.26 5.48-26.9 6.09.36.61 13-1.13 28.22-3.88s27.26-5.48 26.9-6.09ZM148.81 113.38c-.36-.61-13 1.13-28.22 3.88-15.22 2.75-27.26 5.48-26.9 6.09.36.61 13-1.13 28.22-3.88 15.22-2.75 27.26-5.48 26.9-6.09ZM129.05 126.49c-.22-.64-7.85.06-17.05 1.56-9.2 1.5-16.47 3.23-16.25 3.87.22.64 7.85-.06 17.05-1.56s16.47-3.23 16.25-3.87Z"/><path class="cls-9" d="M116.61 136.75c-.36-.03-.88 2.39-1.16 5.41-.28 3.02-.2 5.49.16 5.53.36.03.88-2.39 1.16-5.41s.2-5.49-.16-5.53ZM140.15 133.32c-.36-.03-.88 2.39-1.16 5.41-.28 3.02-.2 5.49.16 5.53.36.03.88-2.39 1.16-5.41s.2-5.49-.16-5.53Z"/><path class="cls-10" d="M185.31 153.75c.34 1.47-122.73 23.97-150.78 28.3 0 0-3.41.75-4.98-1.17-4.05-4.94-16.15-84.19-16.15-84.19s-1.6-9.87-.99-10.09c.51-.18 2.28 9.4 2.28 9.4s13.7 68.42 16.01 77.08c1.52 5.7 2.36 5.1 10.73 3.92 33.05-4.63 143.45-24.96 143.87-23.26Z"/><g id="Layer_12"><path class="cls-12" d="M112.7 43.85c-.41-.06-.84-.04-1.26-.05-.45 0-.9-.02-1.34-.03-.91-.02-1.82-.03-2.72-.05-1.8-.03-3.61-.04-5.41-.04-1.8 0-3.6.02-5.41.07-.45.01-.89.03-1.34.04-.4.01-.81 0-1.2.11-.38.1-.76.3-.96.66-.23.41-.17.86-.12 1.3.09.76.25 1.54.74 2.15.5.63 1.27.93 2.05 1.01.8.07 1.6-.06 2.38-.22l2.74-.55 9.48-1.89 1.25-.18c.36-.06.72-.12 1.08-.19.16-.03.33-.06.49-.1.24-.05.52-.07.67-.29.24-.34.16-.82-.06-1.15-.24-.37-.64-.54-1.07-.6Z"/><path class="cls-17" d="M111.12 27.93c-3.27-2.68-6.58-5.31-9.93-7.87-.68-.52-1.37-1.16-2.18-1.48-.36-.14-.75-.22-1.14-.15-.49.09-.89.39-1.2.78-.94 1.18-1.91 3.12-.46 4.31.4.32.86.57 1.3.84.45.28.89.55 1.34.83.9.56 1.81 1.11 2.72 1.67a592.39 592.39 0 0 0 13.53 8.01c.45.26.91.52 1.37.78.4.23.81.52 1.26.63.44.11.88-.02 1.11-.42.19-.15.3-.42.29-.68-.03-.48-.32-.78-.66-1.08-.81-.7-1.62-1.4-2.44-2.09-1.62-1.37-3.25-2.74-4.9-4.09ZM120.5 8.38c-.44-.07-.9.09-1.32.21-.46.13-.92.27-1.38.43-.45.16-.95.3-1.35.57-.44.3-.6.78-.56 1.3.07.87.41 1.72.78 2.5.4.85.87 1.67 1.32 2.5 1.94 3.57 3.88 7.14 5.82 10.72l.08.15c.16.35.31.7.51 1.02.21.34.55.66.97.67.51.01.86-.37.95-.85.08-.44-.05-.89-.15-1.32-.11-.47-.21-.95-.33-1.42a184.511 184.511 0 0 0-3.04-11.33c-.28-.93-.57-1.86-.87-2.78-.15-.46-.29-.92-.45-1.38-.16-.47-.46-.9-.99-.98Z"/></g><path class="cls-12" d="M115.1 34.87c.45.26.91.52 1.37.78.4.23.81.52 1.26.63.44.11.88-.02 1.11-.42.19-.15.3-.42.29-.68-.03-.48-.32-.78-.66-1.08-.81-.7-1.62-1.4-2.44-2.09-.88-.75-1.78-1.48-2.67-2.22-.9.23-1.82.5-2.79.87l-1.53.66c1.12.66 2.23 1.32 3.35 1.97.91.53 1.81 1.05 2.72 1.57Z"/></g></svg>