<svg xmlns="http://www.w3.org/2000/svg" viewBox="0 0 200 200"><defs><style>.cls-1{fill:none}.cls-3{fill:#fff}.cls-7{fill:#e5b342}.cls-8{fill:#ff7800}.cls-9{fill:#a0b4b5}.cls-10{fill:#9fea63}.cls-12{fill:#ba8d3c}.cls-14{fill:#afcbcd}.cls-15{fill:#d6e8ea}.cls-16{fill:#79db6b}</style></defs><path d="M10.52 125.86c43.46 72.48 168.03 36.16 182.77-42.75 1.44-22.73-23.78-38.88-43.18-43.77-15.06-6.55-18.11-32.49-39.06-24.51C67.08 33.82-8.83 66.2 10.52 125.86Z" style="fill:#efedea" id="BG_Strong"/><g id="Illustrations"><g id="Layer_6"><path class="cls-16" d="M182.04 17.11c.4-1.87.23-4.07-1.25-5.45-1.65-1.54-4.09-1.4-5.97-.38-2.08 1.12-3.29 3.28-4.38 5.29-2.25 4.16-5.11 7.97-9.61 9.83-2.25.93-4.52 1.69-6.3 3.42-1.52 1.48-2.57 3.39-3.21 5.39-.64 2.01-.89 4.3-.76 6.48.16 2.58.7 5.13.74 7.72.04 2.29-.43 4.56-1.9 6.38-1.24 1.54-2.93 2.65-4.61 3.65-3.63 2.16-7.4 4.08-9.52 7.92-1.13 2.06-1.76 4.4-1.75 6.75 0 2.59.82 5.09 1.76 7.48 1.76 4.43 4.64 9.92 2.13 14.64-1.98 3.7-6.18 5.49-8.74 8.71-2.88 3.62-3.16 8.48-1.84 12.77 1.36 4.4 4.51 7.74 6.95 11.54 1.14 1.77 2.17 3.72 2.41 5.84.27 2.32-.56 4.44-1.75 6.39s-2.77 3.84-4.24 5.69c-.63.79.49 1.92 1.12 1.12.59-.74 1.22-1.5 1.84-2.28.22-.17.43-.35.63-.52 1.32-1.15 5.04-5.11 5.84-7.13.8-2.02 1.93-6.46 2.07-9.16.14-2.7-.87-8.47-1.13-10.96-.26-2.49.08-6.05 1-8.58.91-2.53 3.17-4.72 5.21-6.46 2.04-1.74 5.52-2.42 8.01-2.95 1.4-.3 2.56-.38 3.31-.39.28.49 1.23.56 1.51-.16 1.62-4.13 5.74-6.7 8.36-10.14 2.92-3.84 3.93-8.97 2.72-13.63-.6-2.29-1.66-4.44-2.62-6.6-.95-2.16-1.84-4.33-1.83-6.66 0-3.85 2.88-6.4 5.74-8.52 2.75-2.03 5.92-4 7.54-7.13 1.98-3.84.71-8-.58-11.83-.67-1.98-1.41-4.01-1.61-6.1-.21-2.28.39-4.23 1.6-6.15s2.63-3.63 3.11-5.84Z"/><path class="cls-10" d="M195.75 81.81c-1.13-1.42-2.73-2.39-4.45-2.93-3.79-1.18-7.86-.3-11.14 1.81-3.86 2.49-6.64 6.21-9.54 9.69-2.83 3.4-6.07 6.9-10.42 8.25-2.49.77-5.11.85-7.66 1.32-2.19.41-4.28 1.2-6.12 2.47-3.55 2.47-5.95 6.28-6.55 10.57-.71 5.07.74 10.07.99 15.11.23 4.69-1.01 9.25-3.87 13.01-2.86 3.76-7.17 5.66-9.92 9.35-2.68 3.61-3.06 8.34-2.21 12.63.45 2.28 1.3 4.41 2.28 6.51 1.12 2.41 2.36 4.75 3.66 7.07 1.29 2.3 2.57 4.47 3.87 6.7-.06.71 1.02 1.2 1.49.45 2.35-3.76 6.67-5.65 10.05-8.31 3.46-2.74 6.33-6.25 8.39-10.16 2.15-4.08 3.29-8.48 3.66-13.06.21-2.62.27-5.26.8-7.84.46-2.25 1.32-4.35 2.62-6.25 1.3-1.9 2.85-3.37 4.71-4.55 1.99-1.26 4.18-2.14 6.34-3.07 2.14-.92 4.28-1.9 6.14-3.33 1.74-1.34 3.21-3.03 4.3-4.95 1.09-1.91 1.81-4.04 2.09-6.23.32-2.45-.13-4.81-.34-7.24-.11-1.29-.13-2.61.25-3.87.28-.93.77-1.8 1.37-2.56 1.28-1.62 2.97-2.88 4.56-4.18 3.29-2.7 6.18-6.32 6.43-10.75.12-2.05-.49-4.08-1.77-5.69Z"/></g><g id="Layer_10"><path class="cls-12" d="M152.42 111.79c-.23-1.69-.51-3.38-.81-5.06 0-.02 0-.03-.01-.04-.83-5.24-1.7-10.47-2.61-15.7-.93-5.36-1.88-10.72-2.87-16.07-.97-5.29-1.97-10.57-2.99-15.85-1.02-5.28-2.05-10.56-3.09-15.84-.52-2.66-1.05-5.33-1.58-7.99-.23-1.17-.52-2.36-1.33-3.27-.73-.83-1.83-1.17-2.91-1.21-.58-.03-1.16.04-1.74.13-2.46.44-4.93.88-7.39 1.33-1.16.21-2.31.41-3.47.62-3.13.56-6.27 1.12-9.4 1.69-4.58.82-9.17 1.64-13.75 2.47-5.56 1-11.12 1.99-16.68 2.99l-18.04 3.24c-5.94 1.07-11.88 2.13-17.82 3.2-5.39.97-10.77 1.93-16.15 2.9-4.34.78-8.68 1.56-13.01 2.34l-8.29 1.49c-2.34.42-5.41.69-6.18 3.38-.36 1.27-.06 2.6.14 3.87.2 1.26.39 2.52.61 3.78 0 .02.01.03.02.05.83 5.23 1.7 10.46 2.6 15.68.93 5.36 1.88 10.72 2.87 16.07.97 5.29 1.97 10.57 2.99 15.85 1.02 5.28 2.05 10.56 3.09 15.84.52 2.66 1.05 5.33 1.58 7.99.23 1.17.52 2.36 1.33 3.27.73.83 1.83 1.17 2.91 1.21.58.03 1.16-.04 1.74-.13 8.42-1.51 16.84-3.02 25.27-4.54 6.89-1.24 13.78-2.48 20.68-3.72l19.02-3.42c6.77-1.22 13.54-2.43 20.31-3.65 8.18-1.47 16.35-2.94 24.53-4.4l3.51-.63c2.44-.43 4.88-.86 7.32-1.3 1.48-.26 2.97-.53 4.45-.79 1.23-.22 2.5-.41 3.56-1.13.66-.45 1.16-1.04 1.45-1.78.35-.91.28-1.92.15-2.87Z"/><path class="cls-12" d="M3.72 57.81c-.32-1.54.26-3.15 1.61-4.02 1.2-.77 2.57-.4 3.82-.96.88-.4.12-1.69-.76-1.3-.87.4-1.98.15-2.9.51-.79.31-1.5.79-2.06 1.42-1.16 1.31-1.5 3.06-1.15 4.74.19.95 1.64.55 1.45-.4ZM147.94 117.34c1.73-.05 3.54-.52 4.7-1.87 1.3-1.52 1.4-3.28 1.17-5.18-.12-.95-1.62-.96-1.5 0 .18 1.47.27 2.9-.72 4.12-.87 1.07-2.32 1.39-3.64 1.43-.96.03-.97 1.53 0 1.5Z"/></g><path d="M153.81 109.73c-.23-1.69-.51-3.38-.81-5.06 0-.02 0-.03-.01-.04-.83-5.24-1.7-10.47-2.61-15.7-.93-5.36-1.88-10.72-2.87-16.07-.97-5.29-1.97-10.57-2.99-15.85-1.02-5.28-2.05-10.56-3.09-15.84-.52-2.66-1.05-5.33-1.58-7.99-.23-1.17-.52-2.36-1.33-3.27-.73-.83-1.83-1.17-2.91-1.21-.58-.03-1.16.04-1.74.13-2.46.44-4.93.88-7.39 1.33-1.16.21-2.31.41-3.47.62-3.13.56-6.27 1.12-9.4 1.69-4.58.82-9.17 1.64-13.75 2.47-5.56 1-11.12 1.99-16.68 2.99l-18.04 3.24c-5.94 1.07-11.88 2.13-17.82 3.2-5.39.97-10.77 1.93-16.15 2.9-4.34.78-8.68 1.56-13.01 2.34L9.87 51.1c-2.34.42-5.41.69-6.18 3.38-.36 1.27-.06 2.6.14 3.87.2 1.26.39 2.52.61 3.78 0 .02.01.03.02.05.83 5.23 1.7 10.46 2.6 15.68.93 5.36 1.88 10.72 2.87 16.07.97 5.29 1.97 10.57 2.99 15.85 1.02 5.28 2.05 10.56 3.09 15.84.52 2.66 1.05 5.33 1.58 7.99.23 1.17.52 2.36 1.33 3.27.73.83 1.83 1.17 2.91 1.21.58.03 1.16-.04 1.74-.13 8.42-1.51 16.84-3.02 25.27-4.54 6.89-1.24 13.78-2.48 20.68-3.72l19.02-3.42c6.77-1.22 13.54-2.43 20.31-3.65 8.18-1.47 16.35-2.94 24.53-4.4l3.51-.63c2.44-.43 4.88-.86 7.32-1.3 1.48-.26 2.97-.53 4.45-.79 1.23-.22 2.5-.41 3.56-1.13.66-.45 1.16-1.04 1.45-1.78.35-.91.28-1.92.15-2.87Z" style="fill:#ffc101" id="Layer_7"/><g id="Layer_16"><path class="cls-1" d="M4.45 62.11c-.22-1.26-.41-2.52-.61-3.78-.2-1.27-.5-2.6-.14-3.87.77-2.7 3.84-2.97 6.18-3.38l8.29-1.49c4.34-.78 8.68-1.56 13.01-2.34 5.39-.97 10.77-1.93 16.15-2.9 1.84-.33 3.68-.66 5.51-.99.19-.21.35-.39.44-.46.23-.15-40.89 4.63-45.27 6.32-4.38 1.69-6.05-.47-6.05 4.65s4.88 22.75 5.09 23.96c-.9-5.22-1.77-10.45-2.6-15.68 0-.02-.01-.03-.02-.05Z"/><path class="cls-7" d="M35.49 48.93h.03-.03ZM35.31 48.96l.15-.03s-.09.02-.15.03ZM35.46 48.93h.03-.03Z"/><path class="cls-1" d="M133.89 28.83c.58-.09 1.15-.16 1.74-.13 1.08.05 2.17.39 2.91 1.21.81.91 1.1 2.1 1.33 3.27.27 1.36.54 2.71.8 4.07.22.08.4.13.48.15.26.06-.07-1.86-.32-3.41-.25-1.56.81-4.91-1.41-5.83-2.22-.92-9.68.4-9.68.4.29.18.67.5 1.01.83 1.05-.19 2.09-.38 3.14-.56Z"/></g><path d="M44.62 87.37c-.2-1.01-.41-2.02-.59-3.03-.39-1.99-.64-4-1.07-5.98-.2-.94-.52-1.85-1.14-2.6-.51-.62-1.27-1.03-2.05-1.19-1.16-.24-2.31-.05-3.46.15-.73.13-1.47.25-2.2.38-1.44.26-2.87.52-4.31.77-.88.16-1.76.32-2.64.47-.62.11-1.25.21-1.85.41-.75.25-1.48.61-2.05 1.18-.63.64-.95 1.45-1.04 2.34-.1.98.09 1.97.26 2.93.15.84.32 1.68.49 2.52.09.47.18.94.27 1.4.38 1.94.63 3.91 1.04 5.85.18.88.45 1.78.99 2.51.51.68 1.21 1.15 2.04 1.37.94.24 1.91.18 2.86.03 3.13-.56 6.26-1.13 9.39-1.68.95-.17 1.91-.29 2.81-.66.77-.32 1.46-.76 1.97-1.44.55-.73.74-1.66.72-2.56-.02-1.06-.25-2.14-.45-3.18Z" style="fill:#f9ef93" id="Layer_11"/><path class="cls-9" d="M78.52 175.96c-.16-.5 0-40.73 0-40.73l70.61.16.25 40.58H78.52Z"/><g id="Layer_4"><path class="cls-9" d="M193.66 128.02c.05-.4-.2-.73-.57-.87a2247.6 2247.6 0 0 1-19.36-7.17c-6.44-2.42-12.84-4.86-19.24-7.34-3.59-1.39-7.19-2.8-10.77-4.22-.04-.02-.08-.04-.12-.05h-.02c-.02 0-.04-.01-.06-.01a.489.489 0 0 0-.24-.01h-37.67c-.43 0-.79.36-.79.79s.36.79.79.79h2.01l46.18 18.22h-4.65l.12 60.39 31.95-.18-.21-49.86.19-9.56h11.69c.43 0 .79-.36.79-.79 0-.04 0-.08-.01-.11Z"/><path class="cls-15" d="M141.05 128.72v6.51c0 .43.36.79.79.79s.79-.36.79-.79v-6.51c0-.43-.36-.79-.79-.79s-.79.36-.79.79ZM133.51 176.22v5.68c0 .43.36.79.79.79s.79-.36.79-.79v-5.68c0-.43-.36-.79-.79-.79s-.79.36-.79.79ZM127.32 182.33v6.21c0 .43.36.79.79.79s.79-.36.79-.79v-6.21c0-.43-.36-.79-.79-.79s-.79.36-.79.79Z"/><path class="cls-15" d="M156.01 127.74a.684.684 0 0 0-.49-.36c-6.48-2.37-12.95-4.78-19.4-7.23-6.47-2.46-12.93-4.95-19.38-7.47-3.6-1.41-7.21-2.83-10.81-4.25a1.07 1.07 0 0 0-.27-.09h-.14c-.08 0-.15.03-.22.06-6.47 2.37-12.93 4.78-19.37 7.22-6.47 2.46-12.93 4.95-19.38 7.47-3.62 1.42-7.25 2.84-10.87 4.28-.26.04-.44.2-.54.4-.11.17-.15.38-.09.61.04.16.16.31.3.42.18.14.4.2.61.15h11.62v6.46c0 .18.07.35.18.49.13.18.33.31.62.31h3.25v3.36c0 .33.23.65.55.76.11.06.23.1.37.1h1.25v30.03h-1.43c-.43 0-.79.36-.79.79v3.95h-8.77c-.43 0-.79.36-.79.79v5.5h-5.36c-.43 0-.79.36-.79.79v6.27c0 .43.36.79.79.79h92.63c1.02 0 1.02-1.59 0-1.59h-.03l.05-4.68h.07c1.02 0 1.02-1.59 0-1.59h-.05l.05-4.7c1.02 0 1.02-1.59 0-1.59h-12.27v-3.75c0-.33-.24-.65-.55-.76a.749.749 0 0 0-.36-.1h-1.26v-30.03h1.44c.43 0 .79-.36.79-.79v-3.58h11.96c1.02 0 1.02-1.59 0-1.59v-5.65h6.12c.13.02.26 0 .38-.05.13-.05.23-.13.31-.22.08-.09.14-.19.17-.3.06-.23.02-.45-.1-.63Zm-55.66 42.96h-1.43c-.43 0-.79.36-.79.79v3.68H86.44v-3.91a.82.82 0 0 0-.54-.75.796.796 0 0 0-.38-.1h-1.26v-30.03h1.44c.43 0 .79-.36.79-.79v-3.41h11.69v3.63c0 .33.23.65.54.75.11.06.24.1.37.1h1.25v30.03Zm24.12-.1h-1.43c-.43 0-.79.36-.79.79v3.79H112.99v-3.64c0-.33-.24-.65-.55-.76a.749.749 0 0 0-.36-.1h-1.26v-30.03h1.44c.43 0 .79-.36.79-.79v-3.68h9.26v3.53c0 .33.23.65.55.75.11.06.23.1.37.1h1.25v30.03Z"/><path d="M181.99 187.88v-58.03c0-1.02-1.59-1.02-1.59 0l-5.48-.76-21.14-.96-3.61 1.19c0-1.02-1.59-1.02-1.59 0v59.2c0 .47.33.72.7.76.07.02.14.04.22.04h32.04c.43 0 .79-.36.79-.79 0-.26-.14-.5-.34-.64Z" style="fill:#c1dade"/><path class="cls-15" d="M83.6 123.99c5.87-2.27 11.77-4.47 17.68-6.67 1.66-.62 3.33-1.24 4.99-1.85.4-.15.68-.54.55-.98-.11-.39-.57-.7-.98-.55-5.89 2.19-11.79 4.37-17.67 6.61-1.67.63-3.33 1.27-5 1.92-.4.15-.68.53-.55.98.11.38.58.71.98.55Z"/><path class="cls-15" d="M105.85 115.47c5.6 2.2 11.18 4.46 16.79 6.64 1.63.64 3.27 1.27 4.9 1.89.4.15.87-.17.98-.55.12-.45-.15-.82-.55-.98-5.61-2.13-11.18-4.37-16.76-6.58-1.64-.65-3.29-1.3-4.93-1.95-.4-.16-.87.17-.98.55-.12.45.15.82.55.98Z"/><path class="cls-15" d="M83.39 124.02H127.74c.43 0 .79-.36.79-.79s-.36-.79-.79-.79H83.38c-.43 0-.79.36-.79.79s.36.79.79.79Z"/></g><path class="cls-8" d="M35.48 107.52c-.58-.3-2.07 1.41-3.33 3.84-.62 1.23-1.09 2.32-1.29 3.35-.09.51-.07.96.03 1.26.1.3.26.45.42.46.34 0 .62-.46 1.11-1.09.48-.62 1.23-1.68 1.84-2.88 1.25-2.42 1.8-4.63 1.21-4.93Z"/><path class="cls-8" d="M36.38 114.59c.26-.2.21-.76-.15-1.49-.35-.73-1.03-1.61-1.95-2.39-.93-.78-1.91-1.29-2.68-1.52-.78-.23-1.34-.18-1.49.1-.3.6 1.01 1.86 2.64 3.24 1.64 1.37 3.1 2.45 3.64 2.05ZM48.44 105.91c-.57-.33-1.93.96-3.03 2.87-1.1 1.92-1.54 3.73-.97 4.06.57.33 1.93-.96 3.03-2.87 1.1-1.92 1.54-3.73.97-4.06Z"/><path class="cls-8" d="M49.67 112.27c.28-.15.33-.74 0-1.56-.31-.81-1.02-1.82-2.07-2.63-1.05-.81-2.21-1.23-3.07-1.32-.87-.1-1.43.1-1.5.41-.08.33.31.71.9 1.17.58.43 1.36 1 2.22 1.64.83.67 1.59 1.27 2.16 1.72.59.45 1.06.73 1.36.57ZM66.15 102.7c-.57-.32-1.94 1.02-3.04 3s-1.53 3.84-.96 4.17c.57.32 1.94-1.02 3.04-3s1.53-3.84.96-4.17Z"/><path class="cls-8" d="M67.36 109.34c.41-.52-.77-2.12-2.63-3.58-1.86-1.46-3.69-2.22-4.1-1.7-.41.52.77 2.12 2.63 3.58 1.86 1.46 3.69 2.22 4.1 1.7ZM77.54 100.37c-.55-.35-2.03.99-3.05 3.13-1.03 2.13-1.14 4.13-.53 4.33.63.22 1.72-1.31 2.68-3.31.95-2 1.46-3.8.9-4.16Z"/><path class="cls-8" d="M79.13 107.42c.47-.45-.54-2.29-2.46-3.9-1.92-1.62-3.91-2.3-4.27-1.76-.37.55.93 2.06 2.73 3.58 1.81 1.51 3.52 2.53 4 2.08ZM95.83 97.75c-.51-.4-2.21.93-3.49 3.14-1.29 2.21-1.61 4.34-1.01 4.59.61.26 1.86-1.32 3.07-3.39 1.2-2.07 1.96-3.94 1.44-4.34Z"/><path class="cls-8" d="M96.73 104.61c.26-.19.23-.76-.11-1.51s-1.02-1.66-1.97-2.46-1.97-1.31-2.77-1.52c-.8-.21-1.36-.15-1.51.15-.27.61 1.11 1.81 2.74 3.2 1.64 1.37 3.07 2.52 3.62 2.15ZM107.67 95.58c-.58-.31-1.96 1.1-3.08 3.17s-1.57 3.99-.99 4.31 1.96-1.1 3.08-3.17 1.57-3.99.99-4.31Z"/><path class="cls-8" d="M109.04 103.14c.48-.45-.47-2.24-2.13-4-1.65-1.76-3.38-2.81-3.86-2.36-.48.45.47 2.24 2.13 4 1.65 1.76 3.38 2.81 3.86 2.36Z"/><path d="m53.85 43.18-6.52 1.17c-5.39.97-10.77 1.93-16.15 2.9-4.34.78-8.68 1.56-13.01 2.34l-8.29 1.49c-2.34.42-5.41.69-6.18 3.38-.36 1.27-.06 2.6.14 3.87.2 1.26.39 2.52.61 3.78 0 .02.01.03.02.05.83 5.23 1.7 10.46 2.6 15.68.83 4.79 1.69 9.58 2.56 14.36 6.02-20.15 23.72-36.17 44.23-49.03Z" style="fill:#ffcf4e"/></g><g id="Outline"><path d="M128.31 45.79c-.1-.65-4.54-.51-9.92.31-5.38.82-9.66 2.02-9.56 2.67.1.65 4.54.51 9.92-.31s9.66-2.02 9.56-2.67Z" style="fill:#ce9352"/><path class="cls-10" d="M167.46 28.82c-.27-.15-2.14 2.54-4.61 7.2-.62 1.17-1.28 2.45-1.93 3.86-.68 1.39-1.34 2.92-2.04 4.52-1.36 3.22-2.73 6.81-3.99 10.64-1.24 3.84-2.24 7.55-3.03 10.95-.37 1.71-.74 3.33-1 4.86-.3 1.52-.52 2.95-.71 4.26-.75 5.23-.81 8.5-.51 8.54.72.1 2.55-12.76 7.52-27.87 4.88-15.14 10.95-26.62 10.31-26.96Z"/><path class="cls-14" d="M171.79 101.95c-4.84 5.26-8.16 9.34-9.89 11.36 1.48-2.2 4.59-6.48 9.45-11.76 4.87-5.27 8.89-8.71 10.97-10.37-1.87 1.89-5.68 5.53-10.53 10.77Z"/><path class="cls-16" d="M171.14 101.34c-3.28 3.56-6.02 6.98-7.89 9.54-1.87 2.56-2.89 4.24-2.76 4.33.29.21 5-6.01 11.53-13.06 6.5-7.07 12.32-12.27 12.09-12.54-.1-.12-1.69 1.03-4.09 3.1-2.4 2.07-5.59 5.08-8.87 8.63Z"/><path class="cls-3" d="M47 60.21c.14-.02.24-.7-.39-1.7-.31-.49-.82-1.03-1.61-1.42-.78-.39-1.83-.56-2.93-.3-.54.13-1.1.37-1.62.74s-.95.87-1.3 1.4c-.69 1.08-1.03 2.27-1.48 3.29-.21.49-.47.91-.8 1.3-.32.37-.72.68-1.06.78-.34.11-.64.08-.94-.11-.3-.18-.62-.58-.86-1.09-.49-.96-.59-2.46-1.41-3.93-.41-.73-1.07-1.4-1.8-1.8a5.19 5.19 0 0 0-2.26-.64c-1.49-.08-2.82.33-3.91.98-1.11.68-1.84 1.57-2.4 2.4-1.08 1.71-1.46 3.22-1.69 4.24-.22 1.03-.24 1.62-.09 1.67.16.05.48-.45.96-1.36.49-.9 1.11-2.25 2.18-3.56.54-.64 1.21-1.28 2-1.67.81-.4 1.8-.62 2.76-.51.97.11 1.77.56 2.2 1.4.23.43.41.99.58 1.64.09.32.18.67.29 1.03.11.37.26.77.44 1.15.37.76.89 1.54 1.77 2.08.86.56 2.05.64 2.95.29.92-.34 1.54-.93 2.03-1.53.48-.6.85-1.28 1.08-1.92.46-1.24.71-2.32 1.15-3.11.42-.79.99-1.28 1.68-1.53.69-.26 1.39-.25 1.96-.08.58.17 1.05.48 1.39.78.69.62.92 1.16 1.1 1.11Z"/><path class="cls-7" d="M44.73 86.74c-.04-.16-.82-.12-2.04.06-.61.09-1.34.23-2.14.39-.2.04-.4.09-.61.13-.11.03-.2.04-.33.07-.13.03-.26.07-.39.13-.51.2-.98.57-1.32 1.05-.34.48-.52 1.05-.53 1.6-.01.26.03.57.07.77.04.21.08.41.13.61.17.8.33 1.52.49 2.11.31 1.2.59 1.92.75 1.9s.18-.81.08-2.04c-.05-.62-.13-1.35-.24-2.16l-.09-.62c-.03-.22-.04-.35-.03-.53.02-.34.14-.68.34-.97.2-.29.48-.52.79-.65.15-.07.31-.11.53-.17.21-.06.41-.11.6-.17.79-.22 1.49-.44 2.07-.64 1.17-.4 1.88-.72 1.84-.88ZM35.07 75.4c-.16.04-.12.82.06 2.04.09.61.23 1.34.39 2.14.04.2.09.4.13.61.03.11.04.2.08.33.03.13.07.26.13.39.2.51.57.98 1.05 1.32.48.34 1.05.51 1.6.53.26.01.57-.03.77-.07.21-.04.41-.08.61-.13.8-.17 1.52-.33 2.11-.49 1.2-.31 1.92-.59 1.9-.75-.03-.16-.8-.18-2.04-.08-.62.05-1.35.13-2.16.24l-.62.09c-.22.03-.35.04-.53.03-.34-.02-.68-.14-.97-.34-.29-.2-.52-.48-.65-.79-.07-.15-.11-.31-.17-.53-.06-.21-.11-.41-.17-.6-.22-.79-.44-1.49-.64-2.07-.4-1.17-.72-1.88-.88-1.84ZM23.21 85.36c.04.16.82.12 2.04-.06.61-.09 1.34-.23 2.14-.39.2-.04.4-.09.61-.13.11-.03.2-.04.33-.07.13-.03.26-.07.39-.13.51-.2.98-.57 1.32-1.05.34-.48.51-1.05.53-1.6.01-.26-.03-.57-.07-.77-.04-.21-.08-.41-.13-.61-.17-.8-.33-1.52-.49-2.11-.31-1.2-.59-1.92-.75-1.9s-.18.81-.08 2.04a40.556 40.556 0 0 0 .33 2.78c.03.22.04.35.03.53-.02.34-.14.68-.34.97-.2.29-.48.52-.79.65-.15.07-.31.11-.53.17-.21.06-.41.11-.6.17-.79.22-1.49.44-2.07.64-1.17.4-1.88.72-1.84.88ZM32.4 96.47c.16-.04.12-.82-.06-2.04-.09-.61-.23-1.34-.39-2.14-.04-.2-.09-.4-.13-.61-.03-.11-.04-.2-.07-.33-.03-.13-.07-.26-.13-.39-.2-.51-.57-.98-1.05-1.32-.48-.34-1.05-.51-1.6-.53-.26-.01-.57.03-.77.07-.21.04-.41.08-.61.13-.8.17-1.52.33-2.11.49-1.2.31-1.92.59-1.9.75.03.16.8.18 2.04.08.62-.05 1.35-.13 2.16-.24l.62-.09c.22-.03.35-.04.53-.03.34.02.68.14.97.34.29.2.52.48.65.79.07.15.11.31.17.53.06.21.11.41.17.6.22.79.44 1.49.64 2.07.4 1.17.72 1.88.88 1.84Z"/><path class="cls-3" d="M168.16 180.36c0 .07.35.17 1.04.16.68-.01 1.73-.18 2.91-.82 1.18-.62 2.48-1.79 3.29-3.58.4-.89.64-1.95.66-3.05.03-1.01.05-2.09.08-3.21.11-4.5.2-9.86.26-15.81.01-1.49.03-3.01.04-4.57v-1.19l-.03-.69c-.02-.23-.06-.46-.09-.68-.16-.91-.47-1.8-.93-2.62-.91-1.65-2.44-2.98-4.25-3.69-.91-.35-1.89-.56-2.88-.56h-2.57c-2.01 0-3.97.76-5.44 2.04-1.48 1.26-2.45 3.05-2.76 4.91-.09.46-.1.94-.12 1.4v1.2c0 .79.01 1.58.02 2.36.01 1.56.03 3.08.04 4.57.06 5.95.15 11.31.26 15.81 0 .28.01.56.02.83.02.3.04.6.07.9.09.59.22 1.16.42 1.68.39 1.05.98 1.95 1.66 2.65a7.84 7.84 0 0 0 2.16 1.6c.75.36 1.48.56 2.14.67.66.09 1.27.08 1.76.04.48-.04.89-.08 1.23-.11.66-.08 1.01-.16 1.01-.24s-.35-.16-1.01-.24c-.33-.04-.74-.08-1.23-.11-.49-.04-.99-.1-1.57-.24-.56-.17-1.18-.4-1.78-.76-.6-.37-1.2-.86-1.71-1.49-.52-.63-.95-1.39-1.22-2.25-.14-.43-.21-.89-.26-1.36 0-.24-.01-.48-.02-.73 0-.27.01-.55.02-.83.11-4.5.2-9.86.26-15.81.01-1.49.03-3.01.04-4.57 0-.78.01-1.57.02-2.36v-1.2c.02-.34.03-.67.1-1.01.23-1.33.93-2.61 2-3.51a6.014 6.014 0 0 1 3.89-1.45h2.54c.71 0 1.4.15 2.05.39 1.3.5 2.41 1.45 3.08 2.63.33.59.57 1.23.69 1.88.02.16.06.33.07.49l.03.5c0 .39 0 .78.01 1.16.01 1.56.03 3.08.04 4.57.06 5.95.15 11.31.26 15.81.03 1.13.06 2.2.08 3.21.03.94-.1 1.78-.38 2.55a6.846 6.846 0 0 1-2.54 3.29c-.97.68-1.88.97-2.5 1.13-.62.16-.97.22-.97.32Z"/><path class="cls-14" d="M148.87 136.56c0-.66-18.07-1.19-40.36-1.2-22.29 0-40.36.53-40.36 1.18 0 .66 18.07 1.19 40.36 1.2 22.29 0 40.36-.53 40.36-1.18Z"/><path class="cls-3" d="M147.64 181.54c0-.66-18.63-1.19-41.6-1.2-22.98 0-41.6.53-41.6 1.18 0 .66 18.63 1.19 41.6 1.2 22.98 0 41.6-.53 41.6-1.18Z"/><path class="cls-14" d="M149.38 175.18c0-.66-17.95-1.19-40.08-1.2-22.14 0-40.08.53-40.08 1.18s17.95 1.19 40.08 1.2c22.14 0 40.08-.53 40.08-1.18Z"/><path class="cls-3" d="M192.55 129c0-.16-1.91-.3-5.35-.42-3.45-.11-8.43-.22-14.59-.33-12.32-.21-29.33-.49-48.14-.59-18.81-.1-35.84.14-48.17.62-3.08.1-5.87.25-8.31.38-2.45.12-4.55.26-6.27.4-3.44.27-5.34.49-5.33.65 0 .16 1.92.25 5.36.27 3.45 0 8.43-.01 14.59-.02 12.32-.05 29.33-.02 48.12.08 18.8.1 35.83.12 48.15-.11 6.16-.11 11.15-.25 14.6-.43 3.45-.17 5.35-.35 5.35-.51ZM103.75 114.28c.01.06.33-.12.87.14.56.23 1.4.56 2.49.97 2.17.82 5.31 1.97 9.21 3.37 1.95.69 4.09 1.46 6.38 2.27 1.15.41 2.34.82 3.56 1.26.14.05.34.11.43.16.09.03.15.08.2.14.1.11.14.29.11.47-.04.18-.15.32-.29.37-.08.03-.14.04-.27.05h-.51c-5.47-.02-11.49-.04-17.81-.05-6.32.02-12.34.03-17.81.04-1.37 0-2.7.02-4 .02H85.42c-.18-.01-.3-.11-.39-.25a.653.653 0 0 1-.06-.49c.05-.15.15-.27.33-.34 2.24-.95 4.33-1.83 6.24-2.64 3.81-1.62 6.88-2.96 9-3.9 2.12-.95 3.27-1.5 3.24-1.58s-1.25.34-3.41 1.15-5.29 2.03-9.14 3.55c-1.92.77-4.03 1.6-6.29 2.51-.39.15-.76.51-.9.94-.15.44-.09.91.13 1.31s.67.72 1.13.77c.26.03.39.02.55.02h.48l4 .03c5.47.02 11.49.03 17.81.05 6.32-.02 12.34-.03 17.81-.04h.51c.09 0 .24-.02.35-.03.12-.04.25-.06.37-.12.48-.21.81-.68.9-1.15.1-.47-.02-1.01-.37-1.39a1.5 1.5 0 0 0-.6-.41c-.21-.09-.32-.11-.49-.17-1.23-.41-2.42-.81-3.58-1.2-2.31-.77-4.46-1.48-6.43-2.13-3.93-1.3-7.12-2.33-9.34-3.01-1.11-.34-1.97-.6-2.56-.76-.29-.1-.58-.09-.73-.04-.16.05-.22.11-.22.13ZM128.11 189.29c.33-.02.51-1.44.41-3.17-.1-1.73-.45-3.12-.78-3.1-.33.02-.51 1.44-.41 3.17.1 1.73.45 3.12.78 3.1ZM136.3 180.93c.33-.01.56-1.04.51-2.3-.05-1.26-.36-2.27-.69-2.26-.33.01-.56 1.04-.51 2.3.05 1.26.36 2.27.69 2.26Z"/><path class="cls-3" d="M142.54 135.73c.33 0 .56-1.33.52-2.96-.04-1.63-.35-2.94-.68-2.93-.33 0-.56 1.33-.52 2.96.04 1.63.35 2.94.68 2.93Z"/></g></svg>