<svg xmlns="http://www.w3.org/2000/svg" viewBox="0 0 200 200"><defs><style>.cls-1{fill:none}.cls-2{fill:#f6c243}.cls-4{fill:#e87003}.cls-5{fill:#fff}.cls-7{fill:#ffcf4e}.cls-8{fill:#ff5000}.cls-10{fill:#ff8000}.cls-12{fill:#a0b4b5}.cls-13{fill:#c1dade}.cls-14{fill:#afcbcd}.cls-15{fill:#cca88d}.cls-17{fill:#5b3d5b}.cls-18{fill:#78577a}</style></defs><path d="M180.46 50.85c-7.72-5.24-17.06-8.75-26.36-5.98-5.74-21.72-34.11-45.91-61.02-35.74-10.82 4.49-18.98 14.6-23.09 25.38-29.25-25.22-59.22 6.01-57.72 37.73 17.61 33.45 233.53 51.75 168.19-21.39Z" style="fill:#efedea" id="BG_Strong"/><g id="Illustrations"><path d="M56.75 184.79c-2.95 0-5.9 0-8.86.02a.37.37 0 0 0-.11-.05c-2.93-1.04-5.3-3.19-7.05-5.72-1.58-2.29-2.71-5.66-5.8-6.28-1.18-.24-2.44.13-3.25 1.04-.35.39-.6.87-.68 1.39-.13.78.23 1.46.27 2.22.1 1.8-1.88 2.78-3.44 2.54-1.69-.26-3.1-1.48-4.18-2.73-1.97-2.3-3.18-5.14-5.13-7.45-1.89-2.25-4.44-4.26-7.24-5.22-2.62-.9-5.58-.28-7.23 2.07-1.69 2.42-1.11 5.28.48 7.56.9 1.29 2.01 2.48 2.62 3.95.42 1.01.41 1.98-.86 2.19-.88.15-1.77-.1-2.66.02-1.31.18-2.25 1.14-2.12 2.5.13 1.39 1.33 2.5 2.44 3.2.04.03.09.06.15.08.11.05.22.06.32.04 13.36 0 26.72-.1 40.08-.15 4.08-.01 8.15-.02 12.23-.02.77 0 .77-1.19 0-1.19Z" style="fill:#e2ded9" id="Layer_8"/><g id="Layer_6"><path class="cls-17" d="M86.97 166.45c-.09-1.29-.38-2.54-.79-3.77-.76-2.28-1.76-4.53-3.11-6.53-2.29-3.4-5.61-6.01-9.4-7.56a19.97 19.97 0 0 0-12.05-.95c-4.02.93-7.79 3.09-10.58 6.14-2.87 3.14-4.61 7.17-5.13 11.37-.52 4.21.27 8.29 2.22 11.93 1.78 3.31 4.49 6.13 7.75 8.03 0 0 .02.01.02.02.85.57 1.78 1 2.75 1.32.07.03.14.06.22.09.05.02.09.02.14.03.98.29 2 .49 3.02.61 1.09.13 2.19.19 3.29.2 1.1.02 2.25 0 3.37-.11 2.29-.22 4.5-.8 6.58-1.77a23.48 23.48 0 0 0 5.41-3.46c1.6-1.36 3-2.98 4-4.84 1.15-2.14 1.75-4.54 2.09-6.92.18-1.27.28-2.55.19-3.83Zm-25.12 11.46c-.53-.17-1.03-.41-1.5-.72-.01 0-.03-.01-.04-.02-1.26-.81-2.38-1.88-3.25-3.08-1.31-1.8-2.15-4.06-2.19-6.38-.04-2.32.65-4.8 2.01-6.79 1.36-1.99 3.24-3.36 5.39-4.16 2.15-.8 4.55-.96 6.79-.36 2.23.59 4.26 1.85 5.78 3.58.84.95 1.47 2.06 1.99 3.22.56 1.26 1.03 2.6 1.06 3.99.03 1.39-.23 2.83-.66 4.15a8.678 8.678 0 0 1-1.85 3.19c-1.63 1.79-3.9 3.12-6.26 3.65-1.23.28-2.49.32-3.75.27-1.19-.04-2.39-.17-3.53-.54ZM197.67 166.84c-.06-1.29-.31-2.56-.7-3.79-.74-2.33-1.75-4.65-3.1-6.7-2.27-3.45-5.59-6.11-9.39-7.69s-8.13-1.95-12.19-1.01c-4.05.94-7.84 3.12-10.63 6.2-2.88 3.18-4.62 7.26-5.1 11.51-.48 4.25.36 8.24 2.28 11.88 1.69 3.21 4.26 5.97 7.4 7.79.01.01.03.02.04.03 1.76 1.18 3.86 1.75 5.94 2.04 2.17.3 4.41.38 6.59.22s4.52-.68 6.63-1.58c2.01-.86 3.9-2.03 5.59-3.41 1.64-1.33 3.09-2.93 4.15-4.77 1.21-2.09 1.84-4.46 2.22-6.84.2-1.28.33-2.58.28-3.88Zm-25.14 11.07c-.53-.17-1.03-.41-1.5-.72-.01 0-.03-.01-.04-.02-1.26-.81-2.38-1.88-3.25-3.08-1.36-1.87-2.15-4.06-2.19-6.38-.04-2.32.65-4.8 2.01-6.79 1.3-1.9 3.24-3.36 5.39-4.16s4.55-.96 6.79-.36c2.24.59 4.26 1.85 5.78 3.58.84.95 1.47 2.06 1.99 3.22.56 1.26 1.03 2.6 1.06 3.99s-.23 2.83-.66 4.15a8.678 8.678 0 0 1-1.85 3.19c-1.63 1.79-3.9 3.12-6.26 3.65-1.23.28-2.49.32-3.75.27-1.19-.04-2.39-.17-3.53-.54Z"/><path class="cls-18" d="M184.41 165.68c-.26-.87-.64-1.74-1.12-2.51-1.73-2.78-5.12-4.24-8.32-3.58a8.054 8.054 0 0 0-4.15 2.28c-1.1 1.15-1.88 2.77-2.11 4.42-.41 3.05.99 6.34 3.72 7.88.16.09.32.17.48.24.16.08.33.15.51.22.03 0 .05.02.08.03h.03c.42.14.86.24 1.3.29.83.11 1.69.15 2.53.08 1.76-.14 3.38-.84 4.74-1.96.63-.51 1.18-1.14 1.59-1.84.47-.81.72-1.73.86-2.65.15-.98.16-1.95-.13-2.91ZM74.21 165.9c-.26-.87-.64-1.74-1.12-2.51-1.73-2.78-5.12-4.24-8.32-3.58a8.054 8.054 0 0 0-4.15 2.28c-1.15 1.2-1.88 2.77-2.11 4.42-.4 2.95.89 6.31 3.55 7.82.3.17.62.32.95.45.51.21 1.05.33 1.6.41.83.11 1.69.15 2.53.08 1.76-.14 3.38-.84 4.74-1.96.63-.51 1.18-1.14 1.59-1.84.47-.81.72-1.73.86-2.65.15-.98.16-1.95-.13-2.91Z"/><path class="cls-17" d="M52.69 121.36c3.84.55 7.67 1.22 11.47 2 3.8.79 7.58 1.69 11.32 2.7 3.75 1.02 7.46 2.15 11.14 3.39 3.68 1.24 7.31 2.6 10.91 4.07 3.58 1.46 7.11 3.04 10.59 4.72.44.21.88.43 1.32.64.29.14.65.08.82-.21.15-.26.08-.67-.21-.82a190.25 190.25 0 0 0-10.69-4.86c-3.6-1.51-7.24-2.9-10.92-4.18-3.68-1.28-7.4-2.45-11.16-3.5-3.75-1.05-7.51-1.98-11.3-2.79-3.81-.82-7.65-1.52-11.5-2.1l-1.45-.21c-.32-.05-.64.08-.73.42-.08.28.1.69.42.73Z"/></g><g id="Layer_7"><path class="cls-12" d="M100.86 152.44c3.18 2.38 6.31 4.83 9.39 7.34.25.2.6.24.84 0 .21-.21.25-.64 0-.84-3.16-2.57-6.37-5.08-9.63-7.53-.26-.19-.67-.04-.82.21-.18.3-.04.62.21.82Z"/><path class="cls-12" d="M100.78 151.28c-2.12.88-4.3 1.61-6.49 2.32-.31.1-.5.41-.42.73.08.3.43.52.73.42 2.18-.71 4.37-1.44 6.49-2.32.3-.12.51-.4.42-.73-.08-.28-.43-.54-.73-.42ZM97.21 163.67c-.09-.34-.41-.47-.73-.42-.22.03-.44.07-.66.11l-2.84-2.88-3.72-4.34c0-.05 0-.11-.02-.17-.08-.29-.43-.53-.73-.42-3.28 1.21-6.55 2.45-9.78 3.76-3.3 1.34-6.57 2.76-9.8 4.25-2.07.95-4.12 1.94-6.16 2.94-.29.14-.37.55-.21.82a.7.7 0 0 0 .21.21c.02.02.04.04.07.06 1.13.84 2.31 1.61 3.52 2.32.12.07.26.09.39.07.09.02.19.02.29 0a564.216 564.216 0 0 1 29.76-5.57c.32-.05.5-.45.42-.73ZM104.8 161.05c3.98-.6 7.94-1.29 11.93-1.85 1.12-.16 2.25-.3 3.37-.43.32-.04.6-.25.6-.6 0-.29-.27-.63-.6-.6-4.07.47-8.11 1.13-12.15 1.78-1.16.18-2.31.37-3.47.54-.32.05-.5.45-.42.73.09.34.41.47.73.42ZM111.01 146.54c-2.88.52-5.83.69-8.75.52a37.71 37.71 0 0 1-13.29-3.27c-.29-.13-.64-.08-.82.21-.15.26-.08.68.21.82 2.78 1.26 5.69 2.21 8.69 2.78 2.99.58 6.06.81 9.1.67 1.73-.08 3.46-.28 5.17-.59.32-.06.5-.44.42-.73-.09-.33-.42-.47-.73-.42Z"/><path class="cls-12" d="M120.44 157.68c-2.3-2.71-4.54-5.48-6.7-8.3-.61-.8-1.22-1.6-1.82-2.41l1.88-1.85c.9-.89 2.01-1.77 2.49-2.98.55-1.38-.06-2.86-.95-3.94-.45-.54-.98-1.01-1.51-1.49l-1.63-1.47-3.72-3.35c-.24-.21-.61-.24-.84 0-.09.09-.14.2-.16.32l-3.83 1.15 3.05 2.27 3.83 3.01s-1.31.91-2.94 1.53-6 2.25-9.18 2.71c-3.18.46-10.33 1.15-10.33 1.15s.06.03.17.07l-3.78.58c-.1-.1-.19-.21-.28-.31-.21-.24-.63-.22-.84 0-.24.24-.21.6 0 .84 1.84 2.1 4.12 3.8 6.65 4.98l-.38 2.54c-.02.17-.03.31.06.46.07.12.21.24.36.27.28.06.68-.09.73-.42l.02-.13 1.84.09 1.83 1.18s4.94 3.68 5.56 4.05c.62.37 3.93 2.27 3.93 2.27l6.73-1.15 8.66-1.17.27.33c.21.25.63.21.84 0 .24-.24.21-.6 0-.84Zm-28.32-12c-.95-.29-1.7-.63-2.27-.92.74.3 1.59.65 2.27.92Zm8.55 1.85c-1.8-.12-3.87-.56-5.72-1.04 2.05.41 5.1.88 7.04 1.1-.47-.01-.92-.03-1.32-.05Z"/><path class="cls-18" d="M150.85 90.6c-.11-.51-.37-.96-.69-1.37-.55-.69-1.34-1.16-2.16-1.45.47-.54.9-1.13 1.21-1.77.46-.95.72-2.1.5-3.2-.19-.94-.74-1.8-1.42-2.46-.68-.67-1.59-1.31-2.56-1.5-1.05-.2-2.07.21-2.56 1.19-.46.91-.51 1.99-.65 2.98-.16 1.18-.32 2.37-.46 3.55-.14 1.18-.4 2.53.12 3.65.45.97 1.83 1.52 2.67.74 0 0 .02-.01.02-.02.76-.75 1.52-1.49 2.26-2.24.06.06.14.1.22.13.41.13.65.22 1.03.45.09.05.17.11.26.17l.12.09c.01 0 .02.01.02.02 0 0 .01.01.03.02.15.13.3.27.43.42.18.21.36.53.44.84.12.45.07.95 0 1.41-.05.32.08.64.42.73.28.08.68-.1.73-.42.1-.65.17-1.3.03-1.96ZM120.68 123.34c-.19-.25-.54-.5-.98-.77.15-.26.08-.68-.21-.82-1.62-.77-3.34-1.53-5.1-1.92-2.31-.5-4.73-.59-7.09-.69-4.89-.21-9.8-.49-14.63-1.31-1.95-.33-3.95-.81-5.63-1.91-.87-.57-1.52-1.36-2.26-2.08-.77-.76-1.67-1.3-2.72-1.6-1.05-.3-2.13-.37-3.2-.45-1.24-.09-2.49-.16-3.74-.23-2.52-.13-5.03-.21-7.55-.25-5.02-.07-10.03.05-15.04.35l-1.9.12c-.14.01-.26.06-.35.14-.41.22-.48.95.1 1.11a71.334 71.334 0 0 0 16.92 2.5c.01.04.03.07.04.11.68 1.37 1.73 2.48 2.93 3.4.25.19.68.05.82-.21.02-.03.03-.06.04-.09.77.25 2.32.74 4.01 1.15 2.39.59 13.85 4.92 18.46 7.37 3.89 2.06 8.07 4.78 9.28 5.58a.6.6 0 0 0-.07.27c0 .29.27.64.6.6 4.62-.59 9.01-2.34 13.22-4.27 1.04-.48 2.07-.96 3.09-1.47.29-.14.37-.55.21-.82.58-.38.99-.73 1.1-1.03.49-1.3.27-2-.33-2.79Z"/><path class="cls-18" d="M118.88 122.79c.41.22.81.49 1.15.78.34.28.72.64.79 1.09.16 1.08-.88 1.85-1.72 2.29-.68.36-.08 1.39.6 1.03 1.23-.65 2.45-1.8 2.31-3.32-.07-.75-.48-1.36-1.04-1.85-.45-.39-.96-.76-1.49-1.05a.621.621 0 0 0-.82.21c-.16.27-.07.66.21.82Z"/><path class="cls-12" d="M120.21 158.83c4.27.13 8.55.34 12.81.64 1.21.09 2.43.18 3.64.28.32.03.6-.29.6-.6 0-.34-.27-.57-.6-.6a321.295 321.295 0 0 0-16.46-.92c-.77-.02-.77 1.17 0 1.19Z"/><path class="cls-12" d="M165.9 129.21c-1.17-.56-3.36-1.87-4.2-1.73-.84.13-1.44.55-2.79 1.91a16 16 0 0 1 .71-.85c.84-.91 2.82-1.42 2.82-1.42l-.28-.1c.18-.26.19-.65-.16-.86-.38-.23-.88-.25-1.32-.22-.14 0-.28.02-.42.04l-.68-.66s-7.34-5.18-9.23-6.46c-1.89-1.28-4.83-4.77-5.66-5.83s-1.5-4.31-1.5-4.31 3.13-1.03 5.32-1.32c1.39-.18 2.85.1 3.73.32.1.18.2.37.31.55.16.27.54.39.82.21s.38-.53.21-.82c-.24-.41-.47-.83-.68-1.26-.07-.15-.14-.29-.21-.44.14.02.28.03.43.05l2.69.33c.91.11 1.81.23 2.72.06.32-.06.5-.44.42-.73-.09-.33-.42-.48-.73-.42-.82.15-1.68-.02-2.5-.12l-.19-.02c-1.34-.78-4.48-3.12-5.44-3.85l-6.06-4.59.05-.48c.31-.07.63-.14.94-.19.32-.05.5-.45.42-.73-.09-.34-.42-.47-.73-.42-2.37.41-4.65 1.36-6.61 2.75-.95.68-2.15 1.5-2.34 2.74-.11.69.08 1.36.32 2s.52 1.24.83 1.83c.61 1.2 1.33 2.34 2.02 3.49l1.83 3.04 3.05 5.08 3.96 6.6.09.12c.46.88.96 1.76 1.55 2.55.13 1.2.14 2.42 0 3.63-.14 1.29-.43 2.45-.76 3.65a91.447 91.447 0 0 1-8 19.6 90.431 90.431 0 0 1-4.14 6.79.46.46 0 0 0-.08.28c-1.16-.05-3.68-.16-4.22-.2-.71-.05-12.16-.72-12.16-.72l-15.52 2.41 6.02 1.07s8.35.72 9.81.46c1.46-.27 19.54.66 19.54.66s1.08-.26 2.37-.94c1.29-.68 2.77-2.21 3.34-3.06s.74-4.92.99-6.06c.25-1.15 2.57-6.69 2.88-7.85.25-.95 2.6-5.03 3.95-7.41-1.23 2.35-2.45 5.05-2.45 5.34 0 0 3.27-3.51 5.3-5.35s4.08-2.92 7.35-4.18c3.27-1.26 6.27-1.18 6.27-1.18s-2.82-2.22-3.99-2.78Z"/><path class="cls-12" d="M163.07 126.94c-1.54-.78-3.1.33-4.14 1.44a32.45 32.45 0 0 0-2.85 3.54c-1.79 2.54-3.29 5.27-4.67 8.05-.75 1.52-1.47 3.06-2.17 4.61-.13.29-.08.64.21.82.26.15.68.08.82-.21 1.21-2.66 2.46-5.31 3.87-7.87 1.41-2.54 2.97-5.03 4.87-7.24.5-.58 1.01-1.2 1.64-1.66.29-.21.6-.4.95-.5.3-.09.58-.1.87.05s.65.08.82-.21c.16-.27.07-.67-.21-.82Z"/><path class="cls-13" d="M111.11 138.59v-.05a.508.508 0 0 0-.17-.34 94.866 94.866 0 0 0-9.66-7.15c-3.34-2.16-6.82-4.1-10.4-5.82s-7.31-3.24-11.1-4.52a97.22 97.22 0 0 0-11.51-3.1c-3.92-.79-7.89-1.34-11.87-1.64-.5-.04-1-.07-1.49-.1-.06 0-.13 0-.18.03-.15 0-.29.06-.38.17-1.11 1.3-1.95 2.79-2.49 4.41-.03.1-.03.19 0 .29-.03.18.03.37.16.52 3.08 3.57 6.35 6.98 9.78 10.22a50.965 50.965 0 0 0-8.52 1.62c-.95.26-1.92.52-2.83.91s-1.61 1.01-1.68 2c-.03.39.4.67.76.57 2.49-.66 5.03-1.07 7.6-1.24-1.77 1.46-3.55 2.91-5.27 4.44-1.93 1.72-3.75 3.64-4.94 5.96-.66 1.3-1.11 2.67-1.27 4.12-.04.32.3.6.6.6.12 0 .22-.03.31-.09a.65.65 0 0 0 .37-.16c3.83-3.29 7.75-6.46 11.78-9.49 1.1-.83 2.21-1.65 3.32-2.45 2.31-.21 4.62-.35 6.93-.44h.07a133.416 133.416 0 0 0 10.06 7.49c.08.06.18.08.28.08.07.03.15.05.24.04 4.64-.44 9.28-.82 13.91-1.34 3.99-.45 8.02-1.03 11.84-2.32 1.92-.65 3.82-1.49 5.47-2.68l.01-.01c.04-.02.07-.05.11-.08.07-.07.12-.17.15-.27 0-.02.01-.05.01-.07v-.12ZM162.03 103.64c-.31-.52-.7-1-1.07-1.49-.38-.51-.77-1.02-1.17-1.52a60.94 60.94 0 0 0-2.34-2.76 56.71 56.71 0 0 0-5.94-5.66.71.71 0 0 0-.38-.16.431.431 0 0 0-.27-.06c-2.79.26-5.43 1.65-7.16 3.87-.07.09-.12.19-.14.29-.07.05-.12.11-.16.17-.18.31-.04.62.21.82l6.56 4.97c1.06.81 2.12 1.62 3.19 2.41 1.01.75 2.09 1.42 3.34 1.7 1.19.28 2.46.26 3.63-.07.54-.15 1.18-.35 1.57-.77.47-.49.47-1.15.13-1.72ZM154.15 109.29c4.62 3.47 8.88 7.44 12.69 11.78 1.09 1.24 2.14 2.51 3.15 3.82.2.25.64.21.84 0 .25-.25.2-.59 0-.84-3.6-4.63-7.68-8.88-12.16-12.66a89.283 89.283 0 0 0-3.92-3.12c-.26-.19-.67-.04-.82.21-.18.3-.04.62.21.82Z"/><path class="cls-13" d="M186.94 143.76a.649.649 0 0 0-.15-.35c-.41-.83-1.03-1.51-1.72-2.13-.78-.69-1.55-1.29-2.39-1.86a22.771 22.771 0 0 0-5.34-2.66c-.82-.28-1.65-.51-2.5-.7.09-.09.19-.17.28-.26.16-.15.32-.29.48-.43.19.03.39-.03.53-.16a.56.56 0 0 0 .17-.4h.04c.21.06.44.02.58-.15.42-.5.34-1.07.14-1.64-.18-.51-.36-1.01-.56-1.51-.38-1-.79-1.99-1.22-2.97-.85-1.94-1.81-3.85-2.86-5.69a64.043 64.043 0 0 0-7.4-10.44 62.589 62.589 0 0 0-5.03-5.14.65.65 0 0 0-.43-.17c-.02 0-.04-.02-.07-.02a7.575 7.575 0 0 0-5.43.83c-1.8-.6-3.69-1.2-5.61-1.07-.98.07-1.95.28-2.9.48-.92.2-1.83.47-2.67.91-.09.05-.17.13-.21.22-.19.14-.27.39-.23.64.96 5.21 5.47 8.77 9.48 11.73 4.81 3.55 9.91 6.68 15 9.79.45.28.91.56 1.37.83-1.81.1-3.61.61-5.29 1.28-3.82 1.53-7.25 3.93-10.05 6.94-2.76 2.97-4.9 6.51-6.22 10.35-.69 2-1.16 4.09-1.34 6.2-.05.55-.06 1.1-.03 1.64-.01.02-.03.04-.03.06-.93 2.14-3.06 3.25-5.05 4.23-.67 0-1.34-.01-2.02-.02-2.73-.04-5.46-.1-8.2-.2a401.953 401.953 0 0 1-25.42-1.7h-.06c-2.96-1.67-5.91-3.35-8.64-5.38-.86-.64-1.71-1.31-2.55-1.99-.03-.02-.05-.04-.08-.06a.764.764 0 0 0-.42-.18c-1.89-.23-3.81-.24-5.7-.05a.755.755 0 0 0-.14-.11l-12.21-5.67-3.47-1.61c-.13-.06-.28-.08-.41-.06a.682.682 0 0 0-.25.01c-.14.05-.28.14-.36.27-.08.15-.08.29-.06.46s.01.1.02.14c-.02-.15 0 .03 0 .06.01.1.02.19.04.29.02.2.05.4.07.6.04.4.07.81.1 1.21.01.22.14.43.33.54.03.06.07.13.14.18 2.42 2.25 4.89 4.44 7.43 6.56.05.04.11.08.17.11.07.07.15.12.25.14 2.89.58 5.81 1.02 8.75 1.33.32.03.6-.3.6-.6 0-.17-.07-.31-.17-.41l.29.03c2.67 2.76 5.42 5.44 8.24 8.05a463.852 463.852 0 0 0-19.67 6.9c-1.9.72-3.8 1.44-5.7 2.18-.04.02-.09.04-.12.06-.22.09-.39.29-.39.55l-.08 3.45c0 .29.25.57.54.59.1.03.22.04.32 0 3.77-1.42 7.56-2.79 11.36-4.13 3.84-1.35 7.7-2.67 11.57-3.95 2.07-.69 4.15-1.36 6.23-2.02l1.39 1.21c.11.1.25.15.39.16 6.71 1.06 13.42 2.12 20.16 3.04 6.71.92 13.44 1.71 20.2 2.22a216 216 0 0 0 11.39.58c.1 0 .19-.02.27-.06.19.07.38.13.57.2.23.08.48-.03.63-.22.28-.12.38-.41.34-.7-.4-2.91-.3-5.91.19-8.8.5-2.95 1.39-5.83 2.58-8.57 1.2-2.75 2.71-5.36 4.42-7.82.36-.51.73-1.02 1.1-1.52 2.4 5.63 5.04 11.15 7.93 16.55.84 1.56 1.69 3.11 2.56 4.65.08.13.18.21.29.26.02.03.04.05.06.07.63.6 1.61.81 2.43.49.45-.18.82-.46 1.08-.87.23-.36.34-.8.35-1.22 0-.43-.11-.89-.34-1.25a.523.523 0 0 0-.06-.16c-1.62-2.85-3.19-5.73-4.68-8.65a216.615 216.615 0 0 1-6.4-13.62c4.86-.53 9.78-.5 14.64.08 1.33.16 2.65.36 3.96.61.13.08.28.11.45.07.26-.07.5-.39.43-.67Z"/></g><g id="Layer_12"><path class="cls-5" d="M116.21 152.17c.14-.28 1.54-2.48 1.54-2.48l.23-3.11h7.44l-.29 2.38s-1.41 1.8-2.19 2.51-2.1 1.9-3.14 1.86-2.62-.51-2.89-.67-.7-.49-.7-.49Z"/><path class="cls-15" d="m117.97 146.59.23-6.09 7.78 2.21-.57 3.88h-7.44zM130.91 101.68l2.2-5.62 1.29.83s5.96-1.34 6.44-1.32 4.18-.72 4.18-.72 2.21 2.65 2.49 3.41c.29.76.73 1.88.37 2.71s-1.06 1.8-1.37 2.05-1.44.66-1.44.66 1.36.9.85 1.45-.99 1.02-1.81.65-2.24-1.77-3.28-1.82c-1.04-.05-3.59-.43-3.85-.61s-1.11-1.08-1.21-1.08-4.87-.59-4.87-.59ZM97.07 49.02c.03-.42 1.35-4.39 1.35-4.39l2.18.21v2.26l1.24 6.48-3.43-3.23-1.35-1.33ZM82.06 56.38c.33-.25 1.59-2.59 1.59-2.59l4.82 2.8-5.62.13-.79-.34Z"/></g><path class="cls-1" d="M100.01 47.26v-.01c-.01-.05-.02-.1-.02-.15.02-.61 0-1.21 0-1.82-.41-.01-.82-.02-1.22-.04-.15.4-.3.8-.43 1.21h.08c.08-.01.16 0 .23.04.08.02.14.07.19.12.06.06.1.12.12.19.04.07.06.15.05.23v.04c0 .11-.03.21-.08.3l-.09.12c-.07.07-.16.13-.26.15l-.16.02c-.08 0-.16-.01-.23-.05a.537.537 0 0 1-.16-.1c-.12.44-.22.88-.31 1.32.18.16.35.33.52.49.03.03.07.05.1.08.02.01.02.03.03.05.9.83 1.79 1.67 2.67 2.53-.29-1.58-.78-3.13-1.03-4.72ZM72.93 91.39c-.09 2.54-.04 5.07 0 7.6v1.21c.5-.23.99-.48 1.48-.73-.26-5.14-.12-10.3.44-15.42a94.76 94.76 0 0 1 2.03-11.72c-1.49 2-2.68 4.25-3.77 6.46l-.2 12.59ZM118.03 150.22s-.03.09-.05.13l-1.11 1.85-.05.05c.5.29 1.02.56 1.57.71.91.25 1.83.09 2.67-.35.84-.44 1.53-1.1 2.16-1.8.67-.74 1.3-1.52 1.95-2.28-.07 0-.14 0-.21-.01a.612.612 0 0 1-.42-.73c.36-1.54.61-3.11.88-4.66-.06-.02-.12-.03-.18-.05a165.5 165.5 0 0 1-6.52-1.79c-.05 2.81-.18 5.61-.38 8.42-.02.22-.13.42-.32.52ZM83.37 53.95c.07.07.14.16.16.26.04.16.01.31-.06.46-.23.47-.46.94-.67 1.43-.01.03-.03.07-.04.1 1.46.01 2.91.03 4.37.04-.48-.29-.96-.59-1.44-.88-.77-.47-1.55-.93-2.32-1.4ZM49.65 103.84s-.06.05 0 0ZM135.15 101.66a5.46 5.46 0 0 1-.05-.4c-.02-.32.29-.6.6-.6h.04c.09 0 .19.03.27.08.78.54 1.76.17 2.52-.25.98-.53 1.85-1.29 2.86-1.72 1.01-.43 2.24-.55 3.19.09.87.59 1.39 1.68.91 2.69-.29.6-.88 1.01-1.51 1.07 0 .01.02.03.03.04 0 0 .04.05.06.07.03.03.06.05.09.08.02.01.04.03.06.04.04.02.07.05.11.07.02 0 .07.03.08.04.04.02.08.03.12.04.05.02.11.03.16.04.02 0 .08.02.1.02.09 0 .17.01.26.01h.09c.01 0 .09-.01.1-.02.44-.1.78-.37 1.1-.7.35-.37.61-.75.9-1.19v-.01c.05-.09.1-.19.14-.28v-.02c.02-.03.03-.07.04-.1.05-.13.08-.26.11-.4v-.3c-.02-.06-.02-.08-.01-.08v-.05c-.03-.1-.06-.2-.1-.3 0-.02-.02-.04-.03-.07v.03c.02.04.04.13 0-.01-.02-.04-.04-.08-.05-.12l-.24-.54a25.25 25.25 0 0 0-2.32-3.41c-.59.14-1.19.26-1.79.37-2.86.54-5.78.84-8.61 1.57-.29.07-.51-.05-.63-.25l-.53-.35-1.54 4.37c1.14.22 2.29.37 3.45.43ZM147.55 100.02s0-.05-.01-.05c0 .02 0 .05.01.07v-.02ZM83.07 53.79s.05.02.08.03c-.02-.01-.05-.03-.07-.04v.02ZM147.55 100.07v-.03.02Z"/><path class="cls-1" d="M145.37 104.69s-.03-.06-.05-.08c.05.08-.12-.11-.03-.04l-.02-.02h-.05.04a.68.68 0 0 1-.5-.27c-.95-.08-1.86-.7-2.04-1.65-.88-.2-1.59-.99-1.68-1.89-.02-.15 0-.3.01-.44-.29.18-.57.37-.84.56-.99.67-2.32 1.46-3.57 1.37.22.32.52.59.88.74.38.16.84.17 1.26.17.52 0 1.03 0 1.54.08.89.15 1.67.65 2.4 1.14.6.4 1.45 1.08 2.16.91a.76.76 0 0 0 .35-.16c.08-.07.09-.08.12-.14 0 0 .02-.03.03-.05 0-.02 0-.05.01-.05V104.76c0-.03-.01-.05-.01-.06Z"/><path class="cls-2" d="M114.43 107.49c-.99.2-1.66 1.21-1.52 2.21.14 1.03 1.09 1.82 2.05 2.07 1.2.31 2.53-.17 3.44-.95 1.05-.89 1.7-2.13 2.11-3.42-.38-.08-.76-.15-1.14-.23-1.46-.29-2.91-.57-4.37-.84.19.46.05 1.03-.56 1.15ZM120.35 117.57c-.55.38-1 .9-1.33 1.49l1.49-1.2c-.05-.1-.11-.19-.16-.29ZM118.79 122.71c.87 1.93 3.47 2.94 5.39 2.09.09-.04.19-.07.28-.08-1.12-1.94-2.23-3.87-3.35-5.81l-2.64 2.13c-.02.57.08 1.15.32 1.68ZM122.79 132.88l-.66 7.18c1.8.11 3.72-1.23 4.01-3.09.31-2.02-1.43-3.84-3.35-4.1ZM130.42 125.67c.06.95.51 1.83 1.16 2.5.3-2.06.54-4.14.72-6.21v-.05c-1.22.81-1.97 2.3-1.88 3.76Z"/><path class="cls-2" d="M105.27 104.82s-.02 0-.02.01c-.02.01-.05.02-.07.04a.3.3 0 0 1 .04.1c.45 1.33.62 2.8.28 4.18-.55 2.19-2.74 4.03-5.08 3.5-2-.46-3.27-2.91-2.26-4.75.05-.09.12-.16.19-.22-3.36 1.16-6.82 2.05-10.3 2.79-1.73.36-3.47.69-5.22.99 1.11 2.1.83 4.92-.86 6.63 1.15.86 2.52 1.33 3.89 1.7 1.33.37 2.69.65 4.05.9 2.88.52 5.78.89 8.69 1.2 1.16.13 2.36.24 3.58.34-.1-.14-.17-.3-.16-.53.13-2.85 2.26-5.54 5.11-6.1 2.83-.55 5.89.96 7.1 3.6.19.42.13.9-.25 1.17.11.43-.05.9-.61 1.02-1.96.4-3.92.8-5.89 1.19.08 0 .15 0 .23.01 2.76.12 5.52.13 8.27.06.12 0 .25 0 .37-.01-.34 4.39-.52 8.78-.53 13.18 0 1.3 0 2.61.03 3.92 0 .02-.02.03-.02.05-.09.32.11.64.42.73.42.13.85.26 1.28.39 0-.41.02-.82.02-1.23 0-.77 1.2-.77 1.19 0 0 .53-.02 1.06-.03 1.59 2.16.64 4.33 1.24 6.52 1.79.06.02.12.03.18.05.1-.56.2-1.11.31-1.67.06-.32.44-.5.73-.42.33.09.48.42.42.73-.11.54-.2 1.09-.3 1.64.31.08.63.16.94.23.27.13.63.08.79-.23.03-.05.06-.1.07-.16.01-.05.02-.1.02-.15.91-3.66 1.82-7.33 2.53-11.03.12-.6.22-1.21.32-1.81-1.49-1.03-2.51-2.72-2.62-4.57-.16-2.55 1.52-4.89 3.83-5.83.09-1.48.09-2.99-.17-4.42-.07.1-.16.19-.27.24-1.04.54-2.09 1.04-3.27 1.17-.84.09-1.76-.1-2.47-.56a3.034 3.034 0 0 1-1.4-2.36c-.15-2 1.49-3.41 3.05-4.33-.83-.44-1.72-.78-2.61-1.05-1-.3-2.02-.55-3.05-.76 0 .03-.01.06-.02.1-.5 1.56-1.28 3.08-2.52 4.18-2.12 1.86-5.6 2.34-7.59 0-.89-1.04-1.28-2.43-.84-3.76.32-.98 1.02-1.83 1.94-2.27-2.52-.45-5.05-.88-7.58-1.27-.08-.01-.16-.02-.24-.04-.04.04-.08.08-.13.1h-.02Zm-6.91 13.1c-.61 1.3-1.78 2.22-3.1 2.73-2.39.92-5.22.15-6.58-2.08-1.32-2.16-1.1-5.18.7-7 .81-.82 2.08.44 1.27 1.27-.7.71-1.02 1.66-1.02 2.67 0 .14 0 .29.02.43 0 .05 0 .09.01.14v.04c.04.23.09.47.17.69.13.4.3.76.6 1.17 0 0 .11.13.19.22.08.08.15.16.23.23.18.16.22.19.46.34.12.07.24.14.37.2h.02c.05.02.1.04.16.06.22.08.44.13.67.17.03 0 .09.01.12.02.05 0 .1 0 .15.01.12 0 .25.01.37.01.11 0 .22 0 .33-.01.03 0 .19-.02.21-.02.46-.07.98-.24 1.27-.38.62-.3 1.07-.66 1.42-1.16-1.69-1.39-3.39-2.77-5.08-4.16-.38-.31-.32-.95 0-1.27.37-.37.89-.31 1.27 0l5.61 4.59c.32.26.3.75.14 1.08Zm28.83 21.24c-1.29 2.03-3.88 3.2-6.23 2.52-.52-.15-.69-.62-.61-1.03a.658.658 0 0 1-.04-.28c.25-2.76.51-5.53.76-8.29v-.09c0-.52.41-.84.89-.89 1.46-.16 2.88.4 3.99 1.33 1.97 1.64 2.64 4.53 1.24 6.75Zm-7.29-23.4c.35-.18.69-.11.94.07.3-.03.61.08.81.43.09.16.18.32.27.47l.04-.03c.25-.2.59-.25.84 0 .21.21.25.64 0 .84l-.29.23c1.34 2.33 2.68 4.66 4.03 6.99.47.81-.47 1.56-1.14 1.27-.07.14-.18.25-.32.32-1.28.57-2.66.68-4.02.32-2.37-.64-4.15-2.61-4.36-5.08a.599.599 0 0 1-.01-.58c.05-2.14 1.29-4.28 3.21-5.24Z"/><path class="cls-2" d="M128.89 111.08c-.21.13-.43.25-.63.39-.1.07-.21.14-.31.21-.05.04-.1.07-.15.11.05-.04.05-.03 0 0-.18.15-.35.3-.51.47-.02.02-.23.27-.15.17-.06.08-.12.17-.17.26l-.15.27c-.04.1-.05.11-.01.03-.02.05-.04.11-.06.17-.03.09-.05.19-.07.29 0 .02-.02.17-.02.2v.25s.05.21.05.23c.02.05.03.07.03.08.02.03.03.06.05.09.01.02.09.13.11.17.04.04.11.12.13.13.03.03.06.05.09.08.01 0 .01 0 .03.02.09.05.17.11.27.16.03.01.05.03.08.04 0 0 .03 0 .07.02.16.04.31.09.47.12.03 0 .19.02.22.02h.32c.02 0 .14-.01.17-.02a4.57 4.57 0 0 0 1.12-.32c.13-.05.33-.14.53-.24.24-.12.48-.24.72-.37.28-.15.58-.13.84 0-.37-1.1-.95-2.12-1.86-2.99-.25-.24-.51-.45-.78-.66-.05.26-.2.49-.42.63ZM99.7 108.8s-.04.07-.06.11c0 .01 0 .03-.02.05 0 .03-.04.2-.05.22v.3c0 .03.01.07.02.1.02.09.05.17.08.26 0 0 .08.18.1.21l.15.24c.02.01.14.16.15.18.02.02.15.13.17.16.08.06.16.11.24.16.04.02.09.05.13.07 0 0 .02 0 .03.01.1.03.19.06.29.08 0 0 .23.02.26.02s.28-.02.26-.01c.2-.03.48-.11.59-.16.81-.34 1.42-1.06 1.68-2 .22-.8.18-1.64 0-2.45-1.43.43-2.86.87-4.3 1.3.37.26.48.78.26 1.18ZM81.4 115.75c.02-.06.05-.12.07-.18.05-.14.09-.28.13-.42.04-.14.06-.29.09-.44v-.07c0-.07.01-.15.02-.22 0-.16.01-.33 0-.49v-.18s-.01-.12-.01-.16a4.67 4.67 0 0 0-.2-.82c-.02-.06-.04-.11-.06-.17 0-.03-.01-.04-.02-.06 0-.01-.02-.03-.03-.05-.07-.13-.13-.26-.21-.39-.04-.06-.08-.12-.12-.19 0-.01-.05-.07-.06-.09a.234.234 0 0 0-.07-.07c-.58.1-1.17.19-1.75.28.1 1.65.57 3.4 1.54 4.75.26-.27.43-.53.63-.94.01-.03.04-.08.05-.1ZM107.61 117.33c-2 .37-3.59 2.16-3.78 4.17 2.89-.59 5.78-1.17 8.68-1.76-.96-1.68-2.94-2.78-4.9-2.41ZM122.81 117.53c.25-.2.21-.63 0-.84-.25-.25-.59-.2-.84 0l-.04.03c.2.35.4.69.6 1.04l.29-.23ZM116.7 121.58c-.02-.19-.02-.39-.01-.58-.1.18-.09.41.01.58ZM120.51 117.86l-1.49 1.2c-.33.6-.53 1.28-.55 1.97l2.64-2.13c-.2-.35-.4-.69-.6-1.04Z"/><path class="cls-17" d="M98.18 47.62c.07.04.15.05.23.05l.16-.02c.1-.03.19-.08.26-.15l.09-.12a.61.61 0 0 0 .08-.3v-.04c0-.08-.01-.16-.05-.23a.474.474 0 0 0-.12-.19.387.387 0 0 0-.19-.12.456.456 0 0 0-.23-.05h-.08c-.11.36-.22.72-.31 1.08.05.04.1.08.16.1ZM99.99 47.1s0 .1.02.15v.01c.25 1.59.74 3.14 1.03 4.72.47.45.92.91 1.38 1.36-.18-2.13-.89-4.17-1.24-6.27.02-.58 0-1.17 0-1.75-.4 0-.8-.03-1.19-.04 0 .61.03 1.21 0 1.82Z"/><path class="cls-10" d="M47.26 104.77h.01-.01zM93.24 103.39s-.08.07-.14.07c-.1.17.11-.03.14-.07ZM94.95 101.51c-.09.02-.13.16-.19.23.08-.02.22-.15.19-.23ZM93.17 103.22c-.04.07-.03.14-.08.22.11-.16.09-.26.08-.22ZM96.65 100.74c.18 0-.06-.14-.13-.12.02.03.06.07.13.12ZM96.38 56.89h.06-.06ZM96.05 99.73s-.14.02-.12.08c.04.03.14-.02.12-.08ZM94.34 102.54s-.5.47 0 .2c.07-.07-.12-.06 0-.2ZM96.69 99.44c-.06.03-.12 0-.17 0-.01.02-.03.04-.04.06.08.06.23 0 .21-.05ZM94.04 102.12c.1.05.18.09.11-.11.37-.29-.32.04-.27.35.35-.06-.04-.13.16-.24ZM94.63 101.93c-.11-.02-.12.06-.19.15.11-.03.11-.1.19-.15ZM93.66 103.09c.14-.08.56.28.38-.18-.07.13-.39.04-.38.18ZM93.98 102.48c.05 0 .07-.07.09-.11-.08 0-.12.03-.09.11ZM93.83 102.49c0-.17-.12.08-.13.15.08.08.05-.11.13-.15ZM93.53 102.84c.11-.02.05-.09.07-.17-.08.02-.04.11-.07.17ZM98.87 98.22c-.18.01.07.26.1.23-.03-.04.02-.28-.1-.23ZM99.17 98.15c-.03-.1.16-.11.08-.17-.11.01-.23.3-.08.17ZM99.22 97.89c.03.05.11-.04.13-.06.05-.12-.29 0-.13.06ZM99.33 97.43c-.01.09-.06.16-.14.21-.04.18.31-.28.14-.21ZM99.03 97.12c.09-.02.05-.01 0-.04.07-.32-.23.37 0 .04Z"/><path class="cls-10" d="M94.63 102.38c.65-.98-.88.74.24.03.06-.12-.19-.06-.24-.03ZM99.06 98.32s.03-.1.02-.09c-.08 0-.14.1-.02.09ZM99.24 97.39s.12-.04.14-.07c.07-.15-.12.01-.14.07ZM99.56 96.85c.05-.04.25-.3.06-.15-.04.08-.08.07-.06.15ZM99.39 96.52s-.02 0-.02.01c.02 0 0 .02.02-.01ZM98.98 96.97s-.19-.04-.05-.13c.02-.02.02-.03.03-.04-.02.02-.05.03-.08.05-.05.08-.08.17.09.12ZM99.58 97.01c.05-.05.12-.11.14-.21-.06 0-.14.16-.14.21ZM99.03 97.92c-.07.08-.26.08-.21.2.06-.03.3-.14.21-.2ZM96.89 98.99c.07-.03.07-.11.05-.15-.02.03-.04.05-.06.08v.07ZM99.47 97.64s.24-.33.08-.18c-.12-.05-.17.15-.08.18ZM99.61 96.62c.05-.06.11-.15-.01-.06-.11.06-.05.12.01.06ZM93.65 102.54c-.07 0-.16.09-.05.09.04 0 .13-.1.05-.09ZM98.91 97.5c-.01.05.09.02.03.06.1-.06.03-.2-.03-.06ZM98.15 98.6c.04.05-.26.18-.07.19.01-.04.23-.22.07-.19ZM98.24 98.73s.04.05.07 0c-.02-.01-.09-.05-.07 0ZM97.94 98.89c-.01.06-.04.17.01.19.06 0 .08-.22-.01-.19ZM97.94 98.4c-.07-.18-.18-.03-.13.08.08-.09.25.04.13-.08ZM97.37 98.66s-.08.07-.08.12c.05.01.12-.07.08-.12ZM97.07 98.83c-.06.02-.11.16-.13.21.08-.04.14-.13.13-.21ZM97 99.05c-.07.04-.14.16-.08.17.07 0 .08-.11.08-.17ZM98.52 98.3c.19-.32-.3.11-.09-.03.32.29-.42-.01-.13.36.18-.45.13.22.34-.3.25-.2-.07.01-.12-.04ZM98.3 98.2c.22-.03-.09-.23-.08-.06.04 0 .09 0 .08.06ZM97.76 99.16s.05-.03.07-.02c-.02-.04-.06-.01-.07.02ZM96.6 99.4l.12-.04c.01-.11-.12-.04-.12.04ZM96.99 99.88c-.11.21.31-.03.18-.13-.06-.04-.08.19-.18.13ZM96.78 100.03c.05-.03.13 0 .15-.05-.01-.04-.19-.01-.15.05ZM96.92 99.49c.08.01 0-.09.09-.1.13-.18-.28.05-.09.1ZM97.68 99.25s.06.02.09-.02c-.02-.05-.21 0-.09.02ZM97.67 99.49s.03-.02.03-.03c0-.02-.04.02-.03.03ZM97.66 99.53c-.17-.09-.43.36-.1.1.21.02-.04.09.02.13 0 .07.3-.18.08-.23ZM97.29 99.63c-.19.19.1-.08.14-.08 0-.13-.2-.06-.14.08Z"/><path class="cls-10" d="M94.84 102.28c.31-.27.09.1.36-.17-.15-.21-.21.01-.36.17ZM95.39 101.75c.15 0 .07-.19.22-.24.2-.21-.41.14-.22.24ZM95.39 100.78c.26-.18.12.32.39-.18-.11-.01-.29.18-.07-.1.34-.26-.6.32-.31.28ZM96.14 101.15c.12-.12.07 0 .11.03.35-.32-.83.12-.11-.03ZM95.91 101.04c-.08-.03-.08.15 0 .07.05-.04 0-.05 0-.07ZM95.62 100.34c.54-.35-.1.25.45-.12-.22-.17-.31-.04-.45.12ZM95.45 101.25c-.07 0-.05.14-.02.16.11.08.02-.18.02-.16ZM97.44 99.41c-.01.18.17-.13-.05-.07-.12.09.12-.02.05.07ZM96.08 100.86c.07-.07.09.02.14-.01-.06-.05-.24-.11-.14.01ZM98.51 97.47c-.06-.02-.13.15-.03.08 0-.04.14-.07.03-.08ZM96.22 100.44c0 .07.17-.08.12-.12-.03.05-.14.05-.12.12ZM96.83 100.59c-.07-.02-.08.15-.05.15.01.01.06-.12.05-.15ZM98.18 97.64c-.1-.05-.14.12-.06.18.1-.01 0-.12.06-.18ZM96.04 100.7c.04.05.06-.08.08-.09-.06-.08-.08.04-.08.09ZM96.29 100.02s0-.08.03-.12c-.06-.02-.13.16-.03.12ZM98.61 98.1c.1.04.08-.21-.03-.07-.03.05.04.03.03.07ZM96.42 100.96c.09-.03.2-.24.11-.24-.1.02-.15.19-.11.24ZM80.72 111.53c-.07-.08-.12-.16-.17-.24-.07.01-.15.03-.22.04-.06-.71-1.19-.7-1.19.05 0 .22.01.44.03.66.58-.09 1.17-.19 1.75-.28l-.21-.24ZM88.05 110.46c3.48-.73 6.93-1.63 10.3-2.79.04-.03.07-.06.11-.08a.944.944 0 0 1-.39-.51c0-.03-.01-.07-.02-.1-2.06.69-4.14 1.38-5.23 1.75-1.76.6-7.01 1.61-10.3 2.21.11.16.22.34.31.51 1.75-.3 3.49-.63 5.22-.99ZM105.17 104.86s.05-.02.07-.04c0 0 .02 0 .02-.01h.02c.05-.03.09-.06.13-.1l-.38-.06c.05.06.09.14.13.21ZM86.84 66.62c.04-.09 0 0 0 0ZM88.36 64.56c.01-.01.02-.02 0 0Z"/><path class="cls-10" d="M87.9 64.48c-.18 0-.36 0-.54.01l-.39.6c.16.11.28.31.28.5 0 .34-.27.57-.6.6-.32.02-.64.06-.96.12-.1.26-.2.52-.27.79-.08.3.1.66.42.73.32.07.65-.1.73-.42.05-.18.1-.36.17-.53.03-.08.06-.15.09-.23 0-.01 0-.02.01-.03 0 0 .04-.09 0 0l.01-.03c.02-.04.03-.08.05-.11.15-.33.33-.65.54-.95a.55.55 0 0 1 .07-.09s.07-.1.04-.05a.55.55 0 0 1 .06-.08c.02-.03.05-.06.07-.09a4.12 4.12 0 0 1 .54-.54.55.55 0 0 1 .09-.07s.03-.02.05-.04c.02-.02.01 0 0 0-.02.02.07-.05.08-.06a.55.55 0 0 0 .09-.07c.08-.05.16-.11.24-.16.27-.16.39-.54.21-.82-.17-.27-.53-.39-.82-.21l-.09.06c.58.17.53 1.15-.17 1.16ZM112.82 82.91c-1.62-.21-3.31.2-4.68 1.1-.27.18-.38.53-.21.82.16.27.55.39.82.21 1.22-.8 2.63-1.12 4.08-.93.32.04.6-.3.6-.6 0-.36-.28-.55-.6-.6ZM98.85 45l-.09.24c.41.02.82.03 1.22.04v-.26c0-.15.06-.27.14-.37l-1.29-.02c.05.12.06.24.01.36ZM103.44 44.75v-.06l-2.41-.03c.08.1.14.23.14.36v.3c.89.01 1.79 0 2.68-.03a.522.522 0 0 1-.41-.55Z"/><path class="cls-10" d="M101.04 44.66h-.91a.49.49 0 0 0-.14.36v.26c.4.01.8.04 1.19.04v-.3c0-.13-.06-.26-.14-.36ZM98.25 45.19l-1.02 3.34s.06.05.09.07c.11.02.21.07.3.14.03.03.07.06.1.1.09-.44.19-.88.31-1.32 0 0-.02-.01-.03-.02a.436.436 0 0 1-.12-.19.372.372 0 0 1-.05-.23v-.04c0-.11.03-.21.08-.3l.09-.12c.07-.07.16-.13.26-.15h.08c.13-.42.27-.82.43-1.22-.12 0-.24 0-.35-.01a.42.42 0 0 1-.16-.04Z"/><path class="cls-10" d="m97.99 46.62-.09.12a.61.61 0 0 0-.08.3v.04c0 .08.01.16.05.23.02.07.07.14.12.19 0 0 .02.01.03.02.09-.36.2-.71.31-1.07h-.08a.76.76 0 0 0-.26.16ZM98.25 45.19c.05.02.1.03.16.04.12 0 .24 0 .35.01l.09-.24c.05-.12.03-.25-.01-.36h-.42l-.17.56ZM98.28 62.32a.628.628 0 0 1-.04-.52l-.61-.27c.03.22.07.45.1.67.21.1.42.21.62.31.08.04.16.06.25.07a.557.557 0 0 1-.33-.26Z"/><path class="cls-10" d="m97.01 61.25-.07-.54c-.12.05-.23.13-.29.24-.14.27-.08.67.21.82.29.15.58.29.87.43-.03-.22-.07-.45-.1-.67l-.63-.28ZM80.42 51.39l2.8 2.03-.14.35s.05.03.07.04a.346.346 0 0 1 .22.14c.77.47 1.55.93 2.32 1.4.48.29.96.59 1.44.88.38 0 .77 0 1.15.01-1.97-1.19-7.06-4.27-7.87-4.86-.58-.42-1.6-1.38-2.37-2.13-.32-.1-.64-.2-.95-.3a.558.558 0 0 1-.25-.15.54.54 0 0 1-.37-.39c-.01-.05-.02-.1-.03-.14 0 .11 0 .21.07.3 1.02 1.4 2.35 2.48 3.78 3.44.09-.05.18-.08.28-.09l-.16-.53ZM89.07 56.72l-.78-.47c-.38 0-.77 0-1.15-.01.55.33 1.09.67 1.64 1 .44.27.85-.11.88-.5h-.57v-.01ZM79.02 49.55c.18.16.36.31.54.46 1.39 1.12 2.97 2.01 4.49 2.94 1.77 1.08 3.54 2.17 5.32 3.25.03.02.04.04.06.05l4.35.03c-.7-.42-1.4-.83-2.11-1.23a72.894 72.894 0 0 0-12.66-5.5ZM98.24 49.33c-.18-.16-.35-.33-.52-.49 0 .02 0 .04-.01.07.18.14.36.28.54.43ZM100.46 61.11c-1-.88-2.11-1.64-3.21-2.39.09.68.18 1.37.28 2.05.48.24.95.48 1.43.71.14.07.23.21.27.36.05.15.01.32-.06.46a.576.576 0 0 1-.57.28c.15.05.33.03.48-.04.78-.38 1.5-.85 2.16-1.4a.62.62 0 0 1-.8-.03Z"/><path class="cls-10" d="M76.73 47.75c.22-.13.46-.09.65.05h.03c1.4.42 2.79.88 4.16 1.38 5.05 1.84 9.97 4.18 14.48 7.11h.48c.21.03.35.16.42.32.04.08.07.17.08.27 0 .08.02.17.03.25 1.44 1 2.93 1.95 4.24 3.12.24.21.21.61 0 .83.83-.68 1.56-1.47 2.18-2.35.02-.04.04-.07.06-.11.12-.07.22-.18.25-.34.17-1.08.2-2.17.06-3.26-.02-.15-.05-.27-.14-.38-.03-.05-.06-.11-.11-.16-.38-.39-.78-.77-1.17-1.15v.07c.03.32-.29.6-.6.6-.34 0-.57-.28-.6-.6-.04-.48-.11-.96-.2-1.43-.88-.85-1.77-1.69-2.67-2.53.2.22.16.6-.03.8-.24.24-.59.2-.84 0-.68-.55-1.37-1.08-2.05-1.62-1.15-.9-2.58-1.83-2.84-3.39-.23-1.42.43-3.21 1.93-3.63.08-.02.15-.02.21-.02h9c.77 0 .77 1.19 0 1.19h-8.95c-.24.08-.46.24-.61.46-.21.29-.33.59-.41.93-.17.73.09 1.47.59 2 .57.61 1.27 1.1 1.94 1.63.11.09.22.18.33.26.26-1.16.6-2.29 1.04-3.4.04-.09.09-.17.15-.23.08-.23.3-.42.56-.41 1.87.11 3.75.13 5.62.07.77-.03.77 1.17 0 1.19h-.17c.34.09.76-.09.78-.55.1-3.08-1.12-6.07-2.89-8.54-.45-.63-.93-1.25-1.48-1.8s-1.19-1.05-1.86-1.47c-1.31-.83-2.78-1.45-4.3-1.75-1.68-.33-3.44-.47-5.15-.41-1.71.06-3.23.32-4.75.96-2.81 1.2-5.19 3.42-6.53 6.16-1.42 2.89-1.9 6.16-1.44 9.33.05.34.12.69.19 1.02 0-.21.12-.42.29-.51Z"/><path class="cls-10" d="M101.24 53.42c.03.32.25.6.6.6.3 0 .62-.27.6-.6v-.07c-.46-.46-.92-.91-1.38-1.36.09.47.16.95.2 1.43ZM97.47 60.73l.06.03c-.1-.68-.19-1.37-.28-2.05-.21-.14-.42-.29-.63-.43l.32 2.43s.04-.03.07-.03c.16-.04.32-.01.46.06ZM96.38 56.89h.06c.13-.02.25 0 .36.07.09.06.18.12.26.18 0-.08-.02-.17-.03-.25a.773.773 0 0 0-.08-.27.528.528 0 0 0-.42-.32h-.48c.01 0 .02.01.04.02.2.13.31.35.29.57ZM89.43 56.26c.16.13.23.3.21.47l5.05.12c-.3-.19-.6-.38-.91-.57-1.45 0-2.9-.01-4.35-.03ZM104.03 44.1c-1.87.06-3.75.04-5.62-.07-.26-.01-.47.18-.56.41.14-.16.35-.25.58-.18.17.05.33.2.4.37l1.29.02a.64.64 0 0 1 .45-.23c.19 0 .35.09.46.24l2.41.03v.06c-.01.31.18.49.41.55h.17c.77-.03.77-1.22 0-1.19Z"/><path class="cls-10" d="M100.58 44.43c-.18 0-.34.1-.45.23h.91a.608.608 0 0 0-.46-.23ZM98.25 45.19c-.25-.08-.44-.28-.44-.56 0-.06.02-.13.04-.19-.06.07-.11.14-.15.23-.44 1.1-.79 2.24-1.04 3.4l.57.45 1.02-3.34ZM97.32 48.6c.13.1.26.2.38.3 0-.02 0-.04.01-.07-.03-.03-.07-.06-.1-.1a.593.593 0 0 0-.3-.14Z"/><path class="cls-10" d="m98.25 45.19.17-.56h.42a.664.664 0 0 0-.4-.37.54.54 0 0 0-.58.18c-.02.06-.04.12-.04.19 0 .28.19.48.44.56ZM99.18 62.29c.07-.14.11-.31.06-.46-.05-.14-.14-.29-.27-.36-.48-.23-.95-.47-1.43-.71.04.25.07.51.11.76l.61.27c-.06.17-.05.37.04.52.08.14.2.22.33.26.07 0 .14 0 .21-.01.14-.04.29-.15.36-.27ZM97.64 61.53c-.04-.25-.07-.51-.11-.76l-.06-.03c-.14-.07-.3-.1-.46-.06-.02 0-.04.02-.07.03l.07.54.63.28ZM89.37 56.2c-1.78-1.08-3.55-2.17-5.32-3.25-1.52-.93-3.1-1.82-4.49-2.94-.18-.15-.37-.3-.54-.46l-.96-.3c.77.75 1.79 1.71 2.37 2.13.81.59 5.9 3.67 7.87 4.86.38 0 .76 0 1.14.01-.02-.02-.03-.04-.06-.05ZM76.84 48.8c-.36-.37-.07-1.14.54-1-.19-.14-.43-.18-.65-.05-.17.1-.28.31-.29.51.01.05.02.1.03.14.04.19.2.32.37.39ZM89.43 56.26c-.38 0-.76 0-1.14-.01l.78.47h.57a.54.54 0 0 0-.21-.46ZM101.31 61.11v-.02c-.02.02-.04.03-.06.05.01-.01.03-.02.05-.03ZM96.38 56.9a.4.4 0 0 1-.08.23c-.08.14-.23.24-.39.28-.02.23.09.44.29.58.14.1.28.19.42.29l-.18-1.39h-.06Z"/><path class="cls-10" d="M101.31 60.27c-1.32-1.17-2.8-2.12-4.24-3.12.06.52.12 1.05.19 1.57 1.1.75 2.21 1.51 3.21 2.39.23.2.56.22.8.03.02-.02.04-.03.06-.05.2-.22.23-.62 0-.83Z"/><path class="cls-10" d="M97.07 57.14c-.09-.06-.18-.12-.26-.18-.11-.07-.23-.09-.36-.07l.18 1.39c.21.14.42.29.63.43-.07-.52-.13-1.05-.19-1.57ZM95.99 57.18c.08-.14.23-.24.39-.28l-1.68-.04c.26.17.53.33.79.5.13.08.28.1.42.06a.4.4 0 0 1 .08-.23ZM77.2 48.83c-.12.03-.24.01-.36-.03.06.07.14.12.25.16.32.09.64.2.95.3-.22-.22-.43-.42-.59-.58-.07.07-.16.13-.26.16ZM79.02 49.55c4.38 1.43 8.63 3.27 12.66 5.5.71.39 1.42.8 2.11 1.23.76 0 1.51.01 2.27.01-4.51-2.94-9.42-5.27-14.48-7.11-1.37-.5-2.76-.96-4.16-1.38h-.03c.06.05.12.1.17.17.43.58.93 1.11 1.47 1.59Z"/><path class="cls-10" d="m96.09 56.32-.04-.02c-.76 0-1.51 0-2.27-.01.31.18.61.38.91.57l1.68.04a.61.61 0 0 0-.29-.57ZM77.54 47.97a.912.912 0 0 0-.17-.17c-.6-.15-.9.63-.54 1 .12.04.24.06.36.03.11-.03.19-.09.26-.16.16.16.37.36.59.58l.96.3c-.54-.48-1.05-1-1.47-1.59ZM96.3 57.13c.04-.08.07-.15.08-.23-.16.04-.31.14-.39.28-.04.08-.07.16-.08.23a.59.59 0 0 0 .39-.28Z"/><path class="cls-17" d="M147.42 99.6v-.01c.05.15.02.05 0 .01Z"/><path class="cls-17" d="M148.69 99.69c-.05-.25-.15-.5-.26-.73-.04-.1-.09-.19-.14-.29-.02-.05-.05-.11-.07-.16 0-.01-.01-.03-.02-.05v-.02a.612.612 0 0 0-.05-.12c-.79-1.38-1.69-2.68-2.7-3.9a.483.483 0 0 0-.32-.17H145.02c-.03 0-.07 0-.11.01h-.05c-2.83.72-5.75 1.03-8.61 1.57-.61.12-1.22.24-1.83.38-.02-.02-.04-.03-.06-.05l-.72-.48-.41 1.16.53.35c.12.2.34.32.63.25 2.83-.72 5.75-1.03 8.61-1.57.6-.11 1.2-.23 1.79-.37.85 1.06 1.63 2.21 2.32 3.41.07.18.16.36.24.54.02.04.04.08.05.12v-.02c0 .02.02.05.03.07.04.1.07.2.1.3v.05s.01.03.01.05v.05-.02.3c-.03.14-.06.27-.11.4-.01.03-.02.07-.04.1v.02c-.05.1-.09.19-.14.28v.01c-.29.44-.54.82-.9 1.19-.32.33-.67.6-1.1.7-.02 0-.09.01-.1.02h-.09c-.09 0-.17 0-.26-.01-.02 0-.08-.02-.1-.02-.05-.01-.11-.03-.16-.04-.04-.01-.08-.03-.12-.04-.02 0-.07-.03-.08-.04-.04-.02-.08-.05-.11-.07a.21.21 0 0 1-.06-.04c-.03-.03-.06-.05-.09-.08-.02-.02-.05-.06-.06-.07 0-.01-.02-.03-.03-.04.63-.07 1.22-.47 1.51-1.07.48-1.01-.04-2.1-.91-2.69-.95-.64-2.18-.51-3.19-.09-1.01.43-1.88 1.19-2.86 1.72-.76.41-1.74.79-2.52.25a.43.43 0 0 0-.27-.08h-.04c-.31 0-.62.27-.6.6 0 .14.03.27.05.4-1.16-.06-2.31-.21-3.45-.43l-.4 1.13c1.43.28 2.88.47 4.34.51.25.37.58.7.97.95.5.32 1.08.45 1.66.48.57.03 1.16-.04 1.73.05 1.03.16 1.88.89 2.74 1.43.94.59 2.17 1.04 3.17.3.51-.38.79-.98.64-1.62-.05-.2-.14-.38-.25-.54.84-.48 1.47-1.35 1.99-2.15l.06-.12c.31-.61.49-1.26.35-1.96Zm-3.3 5.16s0 .03-.01.05c0 .02-.02.05-.03.05-.03.06-.05.08-.12.14-.08.07-.2.12-.35.16-.71.17-1.57-.51-2.16-.91-.74-.49-1.52-.99-2.4-1.14-.51-.09-1.02-.08-1.54-.08-.42 0-.89-.01-1.26-.17-.36-.15-.66-.42-.88-.74 1.25.09 2.58-.69 3.57-1.37.27-.18.55-.38.84-.56-.02.14-.03.29-.01.44.09.9.81 1.7 1.68 1.89.19.95 1.09 1.57 2.04 1.65.11.16.29.25.5.27s-.01 0-.02 0h.03s.02.01.02.02c-.09-.07.09.12.03.04.02.02.03.05.05.08 0 0 0 .03.01.06V104.84Z"/><path class="cls-17" d="M130.69 101.02c-.31-.07-.65.1-.73.42-.08.3.1.66.42.73.31.07.62.13.93.19l.4-1.13c-.34-.07-.68-.13-1.02-.21ZM132.03 95.38c-.16.3-.07.63.21.82.33.22.67.44 1 .66l.41-1.16c-.27-.18-.54-.36-.81-.53-.26-.17-.67-.06-.82.21ZM147.55 100.05c0-.02-.01-.05-.01-.07 0 0 0 .01.01.08Z"/><path d="M125.17 148.52c-.65.76-1.28 1.53-1.95 2.28-.63.7-1.32 1.36-2.16 1.8-.84.44-1.76.6-2.67.35-.55-.15-1.07-.42-1.57-.71-.18.24-.5.3-.77.16-.27-.14-.35-.49-.23-.76-.05-.02-.11-.03-.15-.02.01-.06 0-.13-.03-.18a.247.247 0 0 0-.34-.09c-.74.4-1.42.93-1.98 1.56-.02.03-.04.05-.05.09-.13-.07-.31-.04-.35.15-.28 1.61-.26 3.25.05 4.86 0 .05.03.08.05.11v.03c-.14 1-.12 2.01.06 3-.14.13-.09.44.17.44l11.85.13 11.8.13 6.65.07c.11.07.26.07.34-.08.35-.73.57-1.52.64-2.33.04-.5.07-1.19-.29-1.59 0-.11-.05-.21-.17-.26-3.66-1.21-7.34-2.35-11.03-3.42a21.86 21.86 0 0 0-6.23-4.12v-.03c-.14-.72-.6-1.36-1.23-1.73h-.03c-.1.09-.22.15-.35.16Z" style="fill:#f75e28"/><path class="cls-17" d="M116.82 152.25s.04-.03.05-.05l1.11-1.85s.04-.08.05-.13c.18-.1.3-.3.32-.52.2-2.8.33-5.61.38-8.42l-1.19-.36c-.05 2.88-.17 5.75-.38 8.62a.63.63 0 0 0-.22.21l-1.11 1.85s-.01.04-.02.06c.01 0 .02 0 .03.01.32.19.64.39.97.58ZM118.75 139.68c0-.77-1.19-.77-1.19 0 0 .41-.01.82-.02 1.23l1.19.36.03-1.59Z"/><path class="cls-17" d="M116.05 152.41c.26.14.58.07.77-.16-.33-.19-.65-.39-.97-.58-.01 0-.02 0-.03-.01-.12.26-.03.62.23.76ZM124.54 147.78c-.07.31.1.65.42.73.07.02.14.02.21.01l.03-.03c0-.01 0-.03.01-.04.06-.11.2-.15.32-.1.08-.07.15-.16.17-.27.36-1.55.61-3.13.89-4.7-.39-.09-.77-.19-1.16-.28-.27 1.56-.52 3.12-.88 4.66Z"/><path class="cls-17" d="M126.47 141.03c-.29-.08-.67.1-.73.42-.11.56-.21 1.11-.31 1.67.39.1.77.19 1.16.28.1-.55.19-1.09.3-1.64.06-.32-.09-.64-.42-.73ZM125.21 148.46s0 .03-.01.04l-.03.03c.13-.01.26-.07.35-.16-.11-.05-.26-.01-.32.1Z"/><path class="cls-10" d="M74.42 99.48c-.49.25-.98.5-1.48.73V99c-.04-2.54-.09-5.07 0-7.6s.2-12.59.2-12.59c1.09-2.21 2.28-4.46 3.77-6.46.47-1.98 1-3.94 1.6-5.89.02-.07.05-.13.09-.18v-.02a17.774 17.774 0 0 0-4.69 4.78c-.24.37-.47.75-.68 1.13l.03-1.76c0-.65.06-1.32 0-1.98-.07-.65-.26-1.27-.78-1.68-.59-.47-1.36-.5-2.08-.56-2.43-.21-4.86-.22-7.3-.2-.09-1.46-.11-2.93-.05-4.4 0-.16-.07-.31-.18-.42-.1-.17-.28-.3-.5-.34-.23-.04-.47-.04-.7-.05l-1.22-.05c-.2 0-.39.11-.5.28-.08.07-.14.17-.16.28-.29 1.56-.39 3.15-.29 4.73l-3.62.03c-.81 0-1.63 0-2.44.03-.71.03-1.38.14-1.99.45-.17.03-.32.13-.42.28-.33.49-.51 1.04-.6 1.61l-.09-.06s-.02-.02-.03-.02a.752.752 0 0 1-.15-.16v-.01s0-.01-.01-.03c-.02-.03-.03-.06-.05-.08-.08-.15-.13-.32-.23-.46-.27-.39-.71-.55-1.17-.51-.47.04-.9.12-1.35.18-.12.02-.22.09-.3.18-.2.01-.39.11-.48.29a33.36 33.36 0 0 0-1.93 5.31c-.12.45-.23.9-.33 1.36-.1.45-.2 1 .18 1.39.56.57 1.26.28 1.86-.1 0 2.12.05 4.24.1 6.35l.36 14.14.2 7.94v.03c-.04.24.05.49.28.62.4.23.84.37 1.3.43.28.04.56.05.82-.1.27-.16.41-.46.43-.77 0-.18-.04-.36-.09-.54.02 0 .04-.01.06-.02.08-.03.16-.05.24-.07.09-.02.19-.05.28-.07-.05 1.11.26 2.18 1.26 2.79 1.19.72 2.71.57 4.04.56 3-.02 6.01-.08 9.01-.16 1.48-.04 2.95-.1 4.43-.16 1.21-.05 3.03.13 3.55-1.27.12-.31.13-.65.16-.98.02-.2.03-.39.04-.58.07-.01.15-.03.22-.06.55-.25 1.1-.52 1.65-.79-.03-.35-.07-.7-.09-1.05-.06-.82-.11-1.65-.16-2.47Zm-24.78 4.36c-.06.05-.03.03 0 0Z"/><path class="cls-10" d="M134.26 93.67c.01-.22-.08-.46-.29-.55-5.57-2.54-11.08-5.2-16.54-7.98-1.5-.76-2.99-1.53-4.47-2.31a149.57 149.57 0 0 0-8.8-10.34c-1.48-1.58-2.98-3.16-4.55-4.64-.38-.36-.76-.71-1.15-1.05l-.72-4.6c-.29-.14-.58-.29-.87-.43-.3-.15-.36-.54-.21-.82.06-.11.17-.19.29-.24l-.32-2.43c-.14-.1-.28-.19-.42-.29a.646.646 0 0 1-.29-.58c-.14.03-.3.02-.42-.06-.26-.17-.53-.33-.79-.5l-5.05-.12c-.03.4-.43.77-.88.5-.55-.33-1.09-.66-1.64-1-1.46-.01-2.91-.03-4.37-.04-.04.11-.09.22-.13.32-.04.09-.08.17-.13.23.06.19.11.38.17.57.21.74-.94 1.06-1.15.32-.14-.49-.28-.97-.42-1.45-.84 0-1.69-.01-2.53-.01-.23 0-.39.11-.48.26-.19.15-.3.4-.22.63.7 2.08 1.52 4.12 2.45 6.1-.77.9-1.32 1.97-1.72 3.08.36-.25.72-.49 1.1-.71 2.49-1.46 5.32-2.24 8.21-2.26.07 0 .12.02.17.03l.09-.06c.28-.17.64-.06.82.21.18.27.05.65-.21.82-.08.05-.16.1-.24.16a.55.55 0 0 0-.09.07s-.1.08-.08.06c-.02.01-.04.04-.05.04-.03.02-.06.05-.09.07-.06.06-.13.11-.19.17-.12.12-.24.24-.35.37a.55.55 0 0 0-.07.09s-.1.13-.06.08c.03-.04-.03.05-.04.05a.55.55 0 0 1-.07.09c-.21.3-.39.62-.54.95-.02.04-.03.07-.05.11 0 .02-.01.03-.01.03s0 .02-.01.03c-.03.08-.06.15-.09.23-.06.17-.12.35-.17.53-.09.32-.42.49-.73.42-.32-.07-.5-.43-.42-.73.07-.27.17-.53.27-.79-.99.17-1.96.48-2.86.92-2.45 1.17-4.36 3-5.93 5.12a95.7 95.7 0 0 0-2.47 27.14c1.01-.5 2-1.02 2.97-1.59a48.51 48.51 0 0 0 8.19-6.07c1.28-1.18 2.56-2.43 3.64-3.79 1.08-1.36 1.97-2.88 2.77-4.41.15-.29.55-.37.82-.21.29.17.36.53.21.82-.01.03-.03.05-.04.08l.7.56c.44-.35 1.21.19.88.78a33.46 33.46 0 0 1-3.45 5.06c-2.33 2.84-5.11 5.3-8.11 7.42-2.63 1.86-5.43 3.46-8.32 4.87.27 3.02.66 6.03 1.21 9.02v.03c.06.3.42.47.7.41h.03l2.56-.39c-.01-.22-.03-.45-.03-.67 0-.75 1.13-.76 1.19-.05.06-.01.14-.03.22-.04-.41-.8.7-1.78 1.43-1.03.2.21.38.44.54.67 3.28-.6 8.53-1.62 10.3-2.21 1.1-.37 3.17-1.07 5.23-1.75a.92.92 0 0 1 .64-1c1.81-.55 3.61-1.09 5.42-1.64.36-.11.71.04.93.31l.38.06c.13-.14.18-.34.15-.53v-.04c-.6-3.24-1.29-6.45-2.04-9.66l-.42-1.75c1.4.81 2.85 1.56 4.33 2.22.21.54.44 1.08.71 1.6 0 .21.09.42.29.51 4.61 2.07 9.35 3.85 14.19 5.33 0-.01-.02-.02-.03-.03a.503.503 0 0 1-.13-.56c.57-1.87 1.19-3.72 1.86-5.56.05-.14.14-.25.25-.33a.7.7 0 0 1 .1-.08c.12-.07.32-.11.46-.06l1.35.48c.15.05.27.14.36.27.04.07.07.14.08.22.02.09.02.18-.01.26-.65 1.85-1.24 3.73-1.78 5.61-.04.13-.11.23-.19.3-.02.04-.06.08-.09.12.05.01.1.03.16.05 1.6.45 3.21.87 4.82 1.25.12.03.22.02.31 0 .29.03.54-.16.64-.43l.54-1.52c-.31-.06-.62-.12-.93-.19-.32-.07-.5-.43-.42-.73.09-.32.42-.49.73-.42.34.08.68.15 1.02.21l1.54-4.37c-.33-.22-.66-.44-1-.66a.61.61 0 0 1-.21-.82c.15-.28.55-.39.82-.21.27.18.54.35.81.53l.61-1.73a.47.47 0 0 0 0-.31Zm-41.52 10.19c0 .05-.04.1-.06.16-.02.05.06-.16.06-.16Zm0 .04.03-.02.45-.07 6.67-6.96s.02-.09.05-.05c.02.03-.02.1-.05.05Zm.02-.26c.13-.2.02.04-.02.11-.03-.01.02-.09.02-.11Zm0-.12v-.05c.09-.07.03.09 0 .05Zm.06.53c0-.06 0-.12.03-.17.02.03.01.12-.03.17Zm12.86-12.89c-1.45-.18-2.86.13-4.08.93-.27.18-.66.05-.82-.21-.17-.29-.05-.64.21-.82 1.36-.9 3.06-1.3 4.68-1.1.32.04.6.24.6.6 0 .29-.28.64-.6.6Z"/><path class="cls-10" d="M78.49 66.45a91.37 91.37 0 0 0-1.6 5.89c1.58-2.12 3.48-3.95 5.93-5.12.9-.43 1.87-.75 2.86-.92.48-1.21 1.28-2.28 2.38-2.99a.467.467 0 0 0-.17-.03c-2.89.02-5.72.8-8.21 2.26-.38.22-.74.46-1.1.71v.02c-.04.05-.07.11-.09.18ZM91.1 90.7a32.74 32.74 0 0 0 3.45-5.06c.33-.59-.44-1.13-.88-.78l-.7-.56s.03-.05.04-.08c.15-.29.07-.65-.21-.82-.27-.16-.67-.07-.82.21-.8 1.54-1.69 3.05-2.77 4.41-1.08 1.36-2.35 2.61-3.64 3.79a48.113 48.113 0 0 1-8.19 6.07c-.97.57-1.96 1.09-2.97 1.59.04.82.09 1.65.16 2.47l.09 1.05c2.89-1.41 5.7-3.01 8.32-4.87 3-2.12 5.77-4.58 8.11-7.42Z"/><path class="cls-10" d="M85.69 66.3c.32-.05.64-.09.96-.12.32-.02.6-.26.6-.6a.62.62 0 0 0-.28-.5l.39-.6c.18 0 .36-.01.54-.01.7 0 .76-.99.17-1.16-1.1.7-1.9 1.78-2.38 2.99Zm2.21-2.62ZM87.9 63.68ZM94.86 42.76s-.04.02-.06.02h8.95c.77 0 .77-1.19 0-1.19h-9c.58.05.77.98.11 1.17ZM98.24 49.33s.09.08.13.12a.219.219 0 0 1-.03-.05c-.03-.03-.07-.05-.1-.08ZM97.21 48.58s.07.02.11.02c-.03-.02-.06-.05-.09-.07l-.02.05Z"/><path class="cls-10" d="M97.7 48.9c-.02.09-.04.18-.06.28-.06.32-.44.5-.73.42-.33-.09-.48-.42-.42-.73.05-.26.11-.53.16-.79-.11-.09-.22-.18-.33-.26-.67-.53-1.37-1.02-1.94-1.63-.5-.54-.76-1.27-.59-2 .08-.35.2-.64.41-.93.15-.21.36-.37.61-.46h-.02c-.76 0-.76-1.16-.03-1.19-.07 0-.14 0-.21.01-1.51.42-2.17 2.21-1.93 3.63.26 1.56 1.69 2.48 2.84 3.39.68.54 1.37 1.07 2.05 1.62.25.2.6.24.84 0 .2-.2.24-.58.03-.8-.04-.04-.09-.08-.13-.12-.18-.14-.36-.28-.54-.43Z"/><path class="cls-10" d="M96.91 49.6c.29.08.68-.1.73-.42.02-.09.04-.18.06-.28-.13-.1-.26-.2-.38-.3-.04 0-.07-.02-.11-.02l.02-.05-.57-.45c-.06.26-.12.52-.16.79-.06.32.09.64.42.73ZM94.78 42.79h.02s.04-.02.06-.02c.66-.18.48-1.12-.11-1.17-.74.03-.73 1.19.03 1.19Z"/><path class="cls-17" d="M82.77 56.19s.03-.07.04-.1c.21-.48.43-.96.67-1.43.07-.15.1-.3.06-.46a.797.797 0 0 0-.16-.26c-.08-.05-.15-.09-.23-.14-.03 0-.05-.02-.08-.03v-.02c-.83-.51-1.67-1.03-2.49-1.57-.1-.06-.19-.13-.29-.2-.21.12-.35.35-.27.65.33 1.18.71 2.36 1.06 3.53H82.76ZM82.67 57.32c-.05-.19-.11-.38-.17-.57.05-.07.1-.14.13-.23.04-.11.09-.22.13-.33H81.08c.15.48.29.97.42 1.45.21.74 1.36.43 1.15-.32Z"/><path class="cls-17" d="m83.08 53.77.14-.35-2.8-2.03.16.53c-.1 0-.2.04-.28.09.1.07.19.14.29.2.82.54 1.66 1.05 2.5 1.57ZM83.15 53.81c.08.05.15.09.23.14-.04-.04-.07-.08-.11-.1-.03-.02-.07-.03-.11-.04Z"/><path class="cls-18" d="M122.68 102.46c.23.18.47.34.74.46s.54.22.83.27c.16.03.32.02.46-.06.05-.03.09-.06.13-.11-.74-.21-1.48-.43-2.21-.65.02.03.04.06.07.08Z"/><path class="cls-18" d="M125.11 102.62c.54-1.89 1.13-3.76 1.78-5.61.03-.09.03-.18.01-.26a.35.35 0 0 0-.08-.22.613.613 0 0 0-.36-.27l-1.35-.48c-.14-.05-.34-.01-.46.06a.7.7 0 0 0-.1.08c-.11.08-.2.19-.25.33-.67 1.84-1.29 3.69-1.86 5.56-.07.24 0 .43.13.56 0 .01.02.02.03.03.74.22 1.47.44 2.21.65.03-.04.06-.07.09-.12.09-.07.15-.17.19-.3Z"/><path class="cls-4" d="m95.47 101.98.05-.1c-.1.05-.1.05-.05.1ZM98.4 98.81c-.13.06.09.18.12.05.13-.06-.08-.05-.12-.05Z"/><path class="cls-4" d="M98.27 99.05c.01.05.15-.15.05-.13-.05.08-.17-.06-.05.13ZM97.81 99.79c-.03.07-.03.22.04.09.11-.07.04-.18-.04-.09ZM98.43 99.07c.04.06.08-.01.09-.07-.04.02-.1.02-.09.07ZM99.91 96.22s.05-.03.07-.04c-.06.03-.07.04-.07.04ZM96.52 100.62h-.01.01zM96.47 99.5c.01-.02.03-.04.04-.06-.03 0-.05 0-.05.06ZM99.39 96.52c.15-.11-.01-.04-.05.02h.03s.02 0 .02-.01ZM96.88 98.92s.04-.05.06-.08c-.03 0-.05.04-.06.08ZM100.09 96.12s-.07.04-.11.06c.04-.02.09-.04.19-.08-.15.06.15-.09-.07.02ZM99.88 96.69c.05-.07.15-.31.02-.11 0 .02-.06.1-.02.11ZM99.59 97.71l-.05.11s.1-.1.12-.14h-.03s-.02.02-.03.04ZM99.96 96.99s.05-.14.03-.17c-.03.05-.02.11-.03.17ZM99.91 96.41v.05s.08-.13 0-.05ZM99.89 96.84c.03.05.07-.02.05-.05-.03-.04-.06.03-.05.05ZM96.04 101.56c-.11.14-.45.15-.45.44.1-.16.8-.44.45-.44ZM96.13 99.68c-.07-.08-.34.1-.25.22.1 0 .28-.1.25-.22Zm-.07.05c.03.06-.07.11-.12.08-.02-.06.11-.12.12-.08ZM94.93 102.66c0 .18-.07.03-.14.19.17.06.47-.36.14-.19ZM92.77 103.87c-.05.14.13-.19.12-.28-.04.07-.09.24-.12.28ZM97.57 100.08c-.1.05-.23-.07-.23.09.04.05.4-.03.23-.09ZM92.96 103.4c-.03-.07-.13.15-.1.16.06 0 .09-.12.1-.16ZM94.43 101.58c-.06-.07.13-.24.04-.27-.11 0-.16.29-.04.27ZM96.51 101.18c-.1.25-.26.1-.35.31.15.04.62-.4.35-.31ZM92.96 103.74c-.1.13.07-.04.02.05.1 0 .11-.13-.02-.05ZM93.33 103.72c.26-.13-.01-.11-.08-.01.08-.04-.01.08.08.01ZM95.14 102.52c-.06.05.03.05 0 .12.16-.02.2-.26 0-.12ZM93.16 102.65c0 .06-.01.34.06.1.07-.09.01-.2-.06-.1ZM95.35 102.25s.15.13.21.05c-.02-.06-.16-.09-.21-.05ZM93.67 102.24c.11-.03.09-.09.15-.17-.11.03-.29.26-.15.17ZM93.45 102.37s.12-.15 0-.11c-.14.1 0 .33 0 .11ZM93.18 102.59c.02-.07.18-.19.07-.19-.05 0-.16.28-.07.19ZM94.98 101.06c.06 0 .04-.06.03-.1-.12 0-.22.24-.03.1ZM93.66 102.06c-.06-.05-.18.18-.07.12.03-.02.1-.1.07-.12ZM95.03 100.76s.04-.04.05-.07c.03-.17-.23.16-.05.07ZM93.09 103.62s.02.01.06-.02c.02-.03.03-.04.04-.05-.02 0-.05.03-.07.03-.03.02-.05.05-.03.05ZM93.11 103.57s.05-.02.07-.03c0-.02-.03 0-.07.03ZM95.17 100.95c0 .07.14-.05.13-.1h-.01c-.04.01-.11.05-.11.09ZM95.29 100.85h.01-.01ZM95.32 100.63c.09-.11.04-.12-.04-.02-.07.07-.03.09.04.02ZM92.93 103.32s0-.14-.03-.07c-.02.05 0 .15.03.07ZM95.28 100.54s.04-.11-.02-.06c-.1.05-.02.16.02.06ZM92.88 103.78s.05-.02.07-.05c.03-.07-.07.02-.07.05ZM92.68 104.02c.02-.05.05-.11.06-.16 0 0-.08.21-.06.16ZM92.74 103.9s.05-.11.05-.15c-.01.02-.06.15-.05.15ZM94.16 103.34c-.13.17.11.05.02-.03-.03 0-.03 0-.02.03ZM97.15 98.56s.04-.05.06-.07c-.03.01-.05.05-.06.07Z"/><path class="cls-4" d="m97.17 98.59.07-.11h-.03c-.02.02-.04.05-.06.07 0 .01 0 .02.02.03ZM92.8 103.65s.04-.06.03-.08c-.01.01-.04.07-.03.08ZM94.61 102.92c-.03-.12.19-.11.08-.17-.09 0-.26.23-.08.17ZM94.54 103.05c-.08-.01-.03.04 0 .09.07.05.15-.17 0-.09ZM94.27 102.99c.04.06.02.13.09.06-.01 0 .07-.2-.09-.06ZM94.29 103.32s.1.04.12-.03c.04-.11-.09 0-.12.03ZM93.93 103.56c0 .11.38.07.21-.06-.17 0-.65.1-.21.06ZM93.66 103.69c-.16.05-.07.06.07.03.1-.06-.02-.07-.07-.03ZM93.22 103.81c.09.08.22-.06.33-.11.24-.21-.22.1-.33.11Z"/><path class="cls-7" d="M98.35 107.67c-.08.06-.15.13-.19.22-1.01 1.83.25 4.29 2.26 4.75 2.34.53 4.53-1.31 5.08-3.5.35-1.38.17-2.85-.28-4.18-.01-.03-.03-.07-.04-.1-1.92.95-3.89 1.78-5.91 2.5-.3.11-.61.2-.92.31Zm5.39-1.35c.18.82.22 1.65 0 2.45-.26.93-.87 1.65-1.68 2-.12.05-.39.13-.59.16.01 0-.23.01-.26.01s-.26-.03-.26-.02c-.1-.02-.2-.05-.29-.08-.01 0-.02 0-.03-.01-.04-.02-.09-.04-.13-.07-.08-.05-.16-.1-.24-.16l-.17-.16c-.02-.02-.14-.16-.15-.18-.05-.08-.11-.16-.15-.24-.01-.03-.09-.2-.1-.21-.03-.08-.06-.17-.08-.26 0-.03-.01-.07-.02-.1v-.3c0-.01.04-.19.05-.22 0-.02.01-.04.02-.05.02-.04.04-.07.06-.11.22-.4.11-.91-.26-1.18 1.43-.43 2.86-.87 4.3-1.3Z"/><path class="cls-10" d="M103.22 104.9c.09-.34.42-.47.73-.42.36.05.72.11 1.08.16-.22-.27-.57-.42-.93-.31-1.81.55-3.61 1.09-5.42 1.64-.43.13-.71.56-.64 1 2.12-.71 4.22-1.41 5.19-1.73a.566.566 0 0 1-.01-.34Z"/><path class="cls-10" d="M98.05 106.97s0 .07.02.1c.06.22.2.39.39.51-.04.02-.07.05-.11.08.3-.1.61-.2.92-.31 2.01-.73 3.99-1.55 5.91-2.5a1.07 1.07 0 0 0-.13-.21c-.36-.06-.72-.11-1.08-.16-.32-.05-.64.08-.73.42-.03.11-.02.23.01.34"/><path class="cls-7" d="M92.6 112.24c-.37-.31-.9-.37-1.27 0-.32.32-.38.96 0 1.27 1.69 1.39 3.39 2.77 5.08 4.16-.36.49-.81.85-1.42 1.16-.29.14-.82.31-1.27.38-.02 0-.18.02-.21.02-.11 0-.22.01-.33.01-.12 0-.25 0-.37-.01-.05 0-.1 0-.15-.01-.02 0-.09-.01-.12-.02-.23-.04-.45-.1-.67-.17-.05-.02-.1-.04-.16-.06h-.02c-.13-.06-.25-.12-.37-.2-.24-.14-.29-.18-.46-.34-.08-.07-.16-.15-.23-.23-.08-.09-.18-.21-.19-.22-.3-.41-.48-.77-.6-1.17-.07-.23-.13-.46-.17-.69v-.04c0-.05-.01-.09-.01-.14-.01-.14-.02-.28-.02-.43 0-1 .32-1.96 1.02-2.67.81-.82-.46-2.09-1.27-1.27-1.8 1.82-2.01 4.84-.7 7 1.36 2.22 4.18 3 6.58 2.08 1.32-.51 2.49-1.43 3.1-2.73.16-.33.18-.82-.14-1.08l-5.61-4.59ZM113.98 120.37c.38-.28.44-.76.25-1.17-1.21-2.64-4.28-4.15-7.1-3.6-2.86.56-4.98 3.25-5.11 6.1-.01.22.06.39.16.53 1.76.15 3.55.28 5.31.35 1.96-.4 3.92-.8 5.89-1.19.56-.11.72-.59.61-1.02Zm-10.16 1.13c.19-2.01 1.78-3.8 3.78-4.17 1.96-.37 3.94.73 4.9 2.41-2.89.59-5.78 1.17-8.68 1.76ZM111.29 108.29c-.44 1.33-.04 2.72.84 3.76 1.99 2.34 5.47 1.86 7.59 0 1.24-1.09 2.02-2.62 2.52-4.18.01-.03.01-.07.02-.1l-1.75-.36c-.41 1.29-1.06 2.53-2.11 3.42-.92.78-2.25 1.26-3.44.95-.96-.25-1.91-1.04-2.05-2.07-.14-1 .53-2.01 1.52-2.21.62-.13.75-.7.56-1.15-.59-.11-1.17-.22-1.76-.32-.93.44-1.62 1.29-1.94 2.27ZM124.88 113.91c.08.99.57 1.82 1.4 2.36.71.46 1.63.65 2.47.56 1.18-.12 2.23-.63 3.27-1.17.11-.06.2-.14.27-.24-.08-.45-.19-.88-.33-1.31a.921.921 0 0 0-.84 0c-.24.12-.48.25-.72.37-.2.1-.39.19-.53.24-.25.09-.5.18-.76.25-.12.03-.24.06-.36.07a.88.88 0 0 0-.17.02h-.32c-.03 0-.19-.02-.22-.02-.16-.03-.32-.08-.47-.12-.04-.02-.06-.02-.07-.02a.3.3 0 0 1-.08-.04c-.09-.05-.18-.1-.27-.16-.02-.01-.02-.01-.03-.02-.03-.02-.06-.05-.09-.08l-.13-.13c-.02-.04-.1-.15-.11-.17-.02-.03-.03-.06-.05-.09 0 0 0-.03-.03-.08 0-.03-.04-.23-.05-.23v-.25c0-.03.02-.18.02-.2.02-.1.04-.19.07-.29.02-.06.04-.11.06-.17-.04.08-.03.07.01-.03.05-.09.09-.18.15-.27.05-.09.11-.18.17-.26-.07.09.13-.15.15-.17.16-.17.33-.32.51-.47.05-.04.05-.04 0 0 .05-.04.1-.07.15-.11.1-.07.2-.14.31-.21.21-.14.42-.26.63-.39.22-.13.38-.37.42-.63-.44-.33-.9-.63-1.39-.88-1.56.92-3.2 2.33-3.05 4.33ZM82.83 111.45c-.63.11-1.27.22-1.9.32.02.03.05.05.07.07.02.02.06.08.06.09.04.06.08.12.12.19.08.13.14.26.21.39.01.03.02.04.03.05 0 .01 0 .03.02.06.02.06.04.11.06.17.09.26.16.54.2.82 0 .04.01.15.01.16V114.44c0 .07-.01.15-.02.22v.07c-.02.15-.05.29-.09.44-.04.14-.08.29-.13.42-.02.06-.04.12-.07.18 0 .02-.03.08-.05.1-.2.41-.38.68-.63.94.3.41.64.8 1.04 1.12.07.06.14.1.21.16 1.69-1.71 1.97-4.53.86-6.63Z"/><path class="cls-10" d="M81.98 110.26c-.73-.75-1.84.22-1.43 1.03.49-.09 1.17-.21 1.97-.36-.16-.24-.34-.46-.54-.67ZM80.93 111.77c.63-.1 1.27-.21 1.9-.32-.09-.18-.2-.35-.31-.51-.8.15-1.48.27-1.97.36.04.08.09.16.17.24l.21.24Z"/><path class="cls-7" d="M119.02 119.06c.32-.59.77-1.11 1.33-1.49.05.1.11.19.16.29l1.41-1.14c-.09-.16-.18-.32-.27-.47-.2-.34-.51-.46-.81-.43a.875.875 0 0 0-.94-.07c-1.92.97-3.16 3.1-3.21 5.24.03-.05.05-.1.1-.13l2.23-1.8ZM124.46 124.71c-.1.02-.19.04-.28.08-1.92.85-4.52-.16-5.39-2.09-.24-.54-.34-1.11-.32-1.68l-.84.68c-.25.2-.59.25-.84 0a.411.411 0 0 1-.08-.13c.21 2.47 1.99 4.44 4.36 5.08 1.35.37 2.74.25 4.02-.32.15-.06.25-.18.32-.32.68.29 1.61-.46 1.14-1.27-1.34-2.33-2.68-4.66-4.03-6.99l-1.41 1.14c1.12 1.94 2.23 3.87 3.35 5.81Z"/><path class="cls-7" d="M116.7 121.58s.05.09.08.13c.25.25.59.2.84 0l.84-.68c.02-.68.22-1.36.55-1.97l-2.23 1.8-.1.13c0 .19 0 .39.01.58ZM121.11 118.9l1.41-1.14c-.2-.35-.4-.69-.6-1.04l-1.41 1.14c.2.35.4.69.6 1.04ZM125.95 132.4c-1.11-.92-2.53-1.49-3.99-1.33-.48.05-.89.37-.89.89v.09c-.25 2.76-.51 5.53-.76 8.29 0 .1 0 .19.04.28-.08.42.08.88.61 1.03 2.36.69 4.94-.48 6.23-2.52 1.4-2.22.74-5.11-1.24-6.75Zm.19 4.57c-.29 1.86-2.21 3.2-4.01 3.09l.66-7.18c1.92.26 3.67 2.08 3.35 4.1ZM128.63 125.67c.12 1.85 1.13 3.54 2.62 4.57.12-.69.22-1.38.32-2.06-.65-.68-1.1-1.56-1.16-2.5-.09-1.46.66-2.95 1.88-3.76.06-.68.12-1.37.16-2.07-2.31.94-3.99 3.29-3.83 5.83Z"/><path class="cls-5" d="M68.95 84.82c-.05-.12-.7-1.28-1.9-2.72s-.05-.08-.06-.12c-.16-1.52-.39-2.53-.39-2.53a.427.427 0 0 0-.36-.32L65.02 79h-.03a.25.25 0 0 0-.25.26v.44h-.01c-.74-.65-1.57-1.27-2.49-1.82-.17-.11-.38-.18-.61-.17-.22 0-.43.07-.6.19-4.17 2.67-6.42 6.93-6.5 7.16-.02.05-.04.11-.04.18 0 .19.14.36.32.4l1.22.21c.16.04.29.18.31.35.01.21.32 4.99.63 6.23.05.18.21.31.41.3.71-.03 1.36-.05 2.06-.07s.05 0 .05 0c.08 0 .13-.06.13-.14-.04-.42-.11-1.37-.18-2.38v-.08c0-.09-.05-.16-.13-.2-.37-.21-.62-.6-.65-1.05-.09-1.68-.15-3.61-.09-5.13 0-.13.11-.23.24-.23s.25.1.25.24v.02c-.04 1.01-.03 2.21.01 3.39 0 .16.14.28.3.28.16 0 .28-.14.28-.3-.04-1.19-.05-2.39 0-3.4 0-.13.11-.23.24-.23s.25.1.25.24v.02c-.04 1.01-.03 2.19.01 3.37 0 .16.14.28.3.28.16 0 .28-.14.28-.3-.04-1.18-.05-2.38 0-3.39 0-.13.11-.23.24-.23s.25.1.25.24v.02c-.06 1.48 0 3.34.08 4.98v.06c0 .45-.21.85-.55 1.09-.06.04-.1.11-.11.19 0 0-.03.25.1 1.47.06.53.11.9.13 1.07 0 .06.06.11.13.11h.11c.23 0 .47 0 .73-.01h.1c.32 0 .62 0 .91-.01h.69c.07 0 .12-.06.13-.12.14-1.46.16-2.28.16-2.28 0-.07-.06-.13-.13-.14l-.84-.1a.282.282 0 0 1-.24-.2c-.02-.06-.01-.13-.01-.13.26-4.87 1.84-6.54 1.84-6.54.05-.05.08-.07.08-.07.04-.03.09-.05.15-.05.11 0 .2.06.24.16 0 0 .01.03.02.12.16 1.53.14 4.13.08 6.16-.04 1.72-.11 3.08-.11 3.08 0 .06.05.1.1.1h1.38c.19 0 .36-.14.4-.32.27-1.25.42-6.03.43-6.24.02-.17.14-.31.3-.36l1.21-.25a.42.42 0 0 0 .31-.41c0-.06-.02-.12-.04-.18Z"/></g><g id="Outline"><path class="cls-5" d="M108.04 83.75c.08.32 1.1.35 2.28.08 1.18-.28 2.08-.76 2-1.09-.08-.32-1.1-.35-2.28-.08-1.18.28-2.08.76-2 1.09ZM119.45 119.47c-.23-.23-1.15.32-2.06 1.22-.9.91-1.44 1.83-1.21 2.06.23.23 1.15-.32 2.06-1.22.9-.91 1.44-1.83 1.21-2.06ZM50.1 105.08c.33 0 .61-8.18.63-18.26.02-10.09-.23-18.27-.56-18.27s-.61 8.18-.63 18.26c-.02 10.09.23 18.27.56 18.27ZM95.81 49.84c.14-.12-.47-.85-1.07-2.13-.28-.64-.53-1.43-.45-2.27.07-.83.54-1.67 1.32-2.3 1.6-1.31 3.67-1.3 5.1-1.23 1.45.09 2.39.17 2.43 0 .03-.15-.82-.52-2.32-.83-.75-.14-1.68-.26-2.73-.15-1.06.1-2.23.5-3.22 1.3-.49.4-.91.89-1.2 1.44-.3.54-.44 1.15-.46 1.72-.04 1.15.39 2.08.8 2.74.88 1.33 1.71 1.82 1.81 1.72ZM98.23 65.07c.33-.05.32-1.97-.01-4.29-.33-2.32-.87-4.17-1.19-4.12-.33.05-.32 1.97.01 4.29.33 2.32.87 4.17 1.19 4.12Z"/><path class="cls-5" d="M84.53 56.17c-.01.33 2.82.71 6.34.86 3.51.14 6.37 0 6.38-.34.01-.33-2.82-.71-6.34-.86-3.51-.14-6.37 0-6.38.34ZM89.21 79.73c-.13.08.27 1.12 1.23 2.64.95 1.52 2.49 3.5 4.52 5.37 2.03 1.86 4.13 3.24 5.72 4.06 1.6.83 2.67 1.15 2.74 1.01.16-.32-3.75-2.32-7.65-5.94-3.94-3.59-6.25-7.32-6.55-7.14Z"/><path class="cls-5" d="M74.13 99.36c.06.14 1.38-.24 3.37-1.19 1.99-.95 4.63-2.54 7.21-4.72 1.29-1.09 2.43-2.23 3.42-3.31.97-1.1 1.8-2.12 2.42-3.03 1.26-1.82 1.83-3.06 1.71-3.14-.31-.21-3.25 4.35-8.32 8.57-5.01 4.27-9.96 6.49-9.81 6.83ZM73.85 103.64c.05.14 1.55-.22 3.84-1.19 2.29-.96 5.35-2.58 8.38-4.88 1.51-1.15 2.88-2.35 4.05-3.5 1.16-1.17 2.15-2.27 2.91-3.26 1.54-1.96 2.26-3.32 2.14-3.41-.3-.23-3.84 4.77-9.82 9.21-5.92 4.5-11.65 6.67-11.5 7.02Z"/><path class="cls-8" d="M80.87 62.25c.08.16.78-.06 1.9-.29 1.12-.24 2.68-.44 4.4-.32 1.72.12 3.23.53 4.31.91 1.08.38 1.74.69 1.84.54.09-.12-.43-.69-1.49-1.31-.53-.31-1.2-.6-1.98-.85-.78-.23-1.66-.42-2.6-.48-.94-.06-1.84 0-2.64.13-.8.14-1.51.34-2.08.58-1.14.47-1.73.96-1.66 1.1ZM79.85 64.54c.02.33 2.12.48 4.69.34 2.57-.14 4.65-.52 4.63-.85s-2.12-.48-4.69-.34c-2.57.14-4.65.52-4.63.85Z"/><path class="cls-5" d="M76.36 73.35c.3.18 1.86-2.1 4.55-4.05 2.66-1.99 5.31-2.79 5.23-3.13-.04-.15-.76-.15-1.88.16-1.12.3-2.61.96-4.05 2.01-1.43 1.06-2.5 2.29-3.13 3.26-.63.98-.85 1.67-.71 1.75ZM66.28 137.3c.25-.22-.57-1.53-1.82-2.92s-2.46-2.34-2.71-2.12c-.25.22.57 1.53 1.82 2.92s2.46 2.34 2.71 2.12ZM108.39 138.72c.07-.14-2.44-1.66-6.66-3.85-4.21-2.2-10.14-5.03-16.84-7.81-6.7-2.77-12.9-4.95-17.43-6.37-4.53-1.42-7.39-2.13-7.43-1.98-.05.17 2.71 1.15 7.16 2.78a438 438 0 0 1 17.25 6.68c6.67 2.76 12.63 5.47 16.92 7.46 4.3 2 6.95 3.25 7.03 3.1ZM175.94 136.14c-.22-.24-2.14 1.14-4.29 3.1-2.15 1.95-3.71 3.74-3.49 3.98.22.24 2.14-1.14 4.29-3.1 2.15-1.95 3.71-3.74 3.49-3.98ZM168.35 121.66c.26-.18-2.11-3.86-6.03-7.51-3.91-3.68-7.73-5.8-7.89-5.53-.19.29 3.26 2.81 7.08 6.4 3.83 3.57 6.57 6.85 6.85 6.64ZM145.42 160.69c-.15.1.31.92.61 2.35.15.72.27 1.59.36 2.57.09.99.16 2.1.35 3.28.19 1.18.52 2.32 1.06 3.28.54.95 1.24 1.67 1.93 2.12.69.45 1.36.64 1.81.67.46.03.7-.05.71-.13.02-.19-.95-.28-2.01-1.22a6.306 6.306 0 0 1-1.46-1.96c-.41-.83-.67-1.85-.85-2.96-.18-1.11-.28-2.21-.44-3.22-.15-1.01-.37-1.93-.64-2.68-.55-1.51-1.31-2.21-1.42-2.12ZM85.32 152.52c-.24.22 2.79 3.99 6.78 8.42s7.42 7.84 7.67 7.62-2.79-3.99-6.78-8.42-7.42-7.84-7.67-7.62Z"/><path class="cls-14" d="M110.1 147.43c-.07-.36-4.51.61-9.97-.04-5.46-.59-9.57-2.53-9.72-2.2-.07.13.87.8 2.58 1.55.85.38 1.89.75 3.08 1.08 1.19.32 2.52.59 3.93.76 1.41.16 2.77.19 4 .14 1.23-.06 2.33-.19 3.24-.36 1.83-.35 2.89-.78 2.86-.93ZM151.7 139.61c.32.16 2.75-4.55 7.18-9.27.36-.38.73-.75 1.08-1.12.4-.4.79-.81 1.18-1.2-.75.06-1.48.12-2.21.18-.18.01-.36.03-.53.04h-.4c-.16 0-.33.01-.49 0-.64 0-1.26-.06-1.85-.13-1.17-.15-2.2-.41-3.04-.67-1.69-.53-2.67-1.05-2.75-.91-.07.11.77.88 2.48 1.64.85.38 1.92.74 3.16.97.62.11 1.28.2 1.97.23.17.01.35.01.52.02h.11v.01h-.01l-.12.13c-2.25 2.41-3.94 4.93-4.97 6.82-1.03 1.9-1.47 3.18-1.33 3.24Z"/><path class="cls-5" d="M142.62 159.96c-.04-.35-6.46.21-14.37-.13-7.91-.31-14.27-1.39-14.33-1.04-.07.29 6.26 1.92 14.29 2.23 8.02.34 14.47-.76 14.42-1.06ZM127.1 154.33c.23.24.99-.11 1.71-.79s1.11-1.42.89-1.66c-.23-.24-.99.11-1.71.79-.72.67-1.11 1.42-.89 1.66ZM129.61 156.57c.22.25 1.08-.16 1.93-.9.85-.75 1.36-1.55 1.15-1.8s-1.08.16-1.93.9c-.85.75-1.36 1.55-1.15 1.8ZM92.9 56.38c.15-.29-3.32-2.38-7.75-4.67s-8.15-3.9-8.3-3.61c-.15.29 3.32 2.38 7.75 4.67s8.15 3.9 8.3 3.61ZM100.5 61.52c.19-.27-.27-.93-1.04-1.49s-1.55-.79-1.74-.52.27.93 1.04 1.49 1.55.79 1.74.52Z"/><path d="M98.08 98.79c-.27-.19-1.51 1.05-2.78 2.78-1.27 1.73-2.08 3.29-1.82 3.48.27.2 1.51-1.05 2.78-2.78 1.27-1.73 2.08-3.29 1.82-3.48Z" style="fill:#ef470d"/><path class="cls-5" d="M83.78 69.16c.17.07.6-.78 1.61-1.84.99-1.05 2.67-2.28 4.81-2.73 2.14-.44 4.17 0 5.5.57 1.35.55 2.1 1.15 2.22 1.01.1-.09-.46-.95-1.85-1.77-1.36-.82-3.65-1.49-6.12-.98s-4.3 2.06-5.21 3.36c-.94 1.32-1.09 2.33-.96 2.37Z"/><circle cx="87.04" cy="47.6" r="1.63" style="fill:#7e557c"/></g></svg>