<svg xmlns="http://www.w3.org/2000/svg" viewBox="0 0 200 200"><defs><style>.cls-1{fill:none}.cls-4{fill:#78577a}.cls-5{fill:#6a4a6b}.cls-6{fill:#fff}.cls-8{fill:#5b3d5b}.cls-10{fill:#bf9dd6}</style></defs><path d="M127.61 20.98c20.31 5.66 32.58 31.17 33.92 49.14.73 9.73-3.64 17.18 1.98 27.36 4.29 7.77 10.29 7.52 13.57 14.26 8.73 17.9-5.19 37.69-5.84 38.58-18.49 25.48-64.16 26.45-91.56 20.76-10.77-2.24-37.92-8.8-51.79-30.53-20.1-31.51 1.46-74.12 29.95-95.26 7.25-5.38 40.54-32.44 69.76-24.3z" style="fill:#eceae7" id="BG_Strong"/><g id="Illustrations"><path class="cls-8" d="M38.82 42.27h119.43v5.72H38.82z"/><path class="cls-4" d="M38.57 55.83c-3.51 0-6.38-1.87-6.38-5.38V40.33c0-3.51 2.87-6.38 6.38-6.38s6.38 2.87 6.38 6.38v10.12c0 3.51-2.87 5.38-6.38 5.38zM161.46 55.31c-3.51 0-6.38-1.87-6.38-5.38V39.81c0-3.51 2.87-6.38 6.38-6.38s6.38 2.87 6.38 6.38v10.12c0 3.51-2.87 5.38-6.38 5.38z"/><path class="cls-5" d="M38.47 34.93c-.48 0-.92-.2-.85-2.43.06-2.22.75-3.97 1.23-3.92.49.05.59 1.84.53 4.01-.07 2.17-.42 2.33-.91 2.34z"/><path class="cls-5" d="M44.68 28.83c.13.46-2.5 1.62-5.95 2.29-3.45.67-6.33.58-6.38.1-.05-.49 2.67-1.18 6.04-1.83 3.37-.65 6.15-1.03 6.29-.55zM138.18 47.27c-.41 1.44-.81 2.95-1.41 4.32a6.725 6.725 0 0 0 4.13-6.21v-1.5c0-.37-.04-.74-.09-1.1-.1.09-.21.17-.31.26-1.2 1.18-1.86 2.62-2.32 4.22zM136.03 44.37c.76-1.78 2.02-3.3 3.57-4.44a6.732 6.732 0 0 0-2.81-2.24c-1.81-.3-2.93 2.02-3.4 3.42-.71 2.12-1.27 4.16-2.7 5.92-2.53 3.09-6.75 4.49-10.62 3.7-1.89-.39-1.09-3.28.8-2.89 3.44.7 7.16-1.25 8.6-4.44.92-2.04 1.15-4.35 2.53-6.18.16-.21.33-.4.5-.59l-3.59-.79c-.43 1.46-.86 2.94-1.95 4.06-1.02 1.05-2.38 1.57-3.66 2.21-.53.27-1.03.56-1.45.99-.18.18-.35.4-.44.6-.07.16-.12.39-.11.45.12.8-.19 1.61-1.05 1.85-.72.2-1.72-.25-1.85-1.05-.31-2.02.7-3.63 2.3-4.79 1.18-.86 2.75-1.2 3.86-2.13.84-.71 1.13-1.79 1.42-2.84l-14.27-3.15c-.48-.1-.96-.16-1.45-.16H88.44c-.5 0-1 .06-1.49.17l-17.62 4c-.28.44-.45.94-.58 1.45-.46 1.82-.52 3.68-1.48 5.34-1.02 1.76-2.77 2.82-4.83 2.59-.98-.11-1.91-.48-2.89-.57-.2-.02-.63.01-.9.12v.4c0 1.46.47 2.81 1.26 3.91a5.66 5.66 0 0 1 2.54-1.47c1.39-.37 2.85-.26 4.23-.63 1.12-.3 1.8-1.05 2.29-2.07 1.15-2.39 1.14-5.18 2.99-7.25 1.72-1.93 4.74-2.46 6.75-.7 1.46 1.28-.67 3.39-2.12 2.12-.47-.42-1.24-.2-1.73.07-.81.43-1.27 1.28-1.58 2.11-.74 1.93-.95 4.04-2.07 5.82-1.31 2.09-3.3 2.85-5.67 3.1-.99.11-2.07.11-2.98.56-.14.07-.3.18-.45.3.97.54 2.08.85 3.27.85h7.1c.04-.2.09-.41.13-.61.31-1.69.66-3.39 1.87-4.7a4.155 4.155 0 0 1 4.83-.98c.74.34.92 1.41.54 2.05-.44.75-1.32.87-2.05.54.11.05.07.04-.08 0H77.49c-.07.02-.27.08-.33.1-.02.02-.26.16-.28.16-.33.25-.65.78-.81 1.21-.27.72-.4 1.48-.53 2.23h57.49c.57-.6.98-1.39 1.27-2.13.71-1.84.97-3.81 1.76-5.62z"/><path class="cls-5" d="M60.2 41.94c1.04.15 2.37.83 3.41.44.64-.24 1.06-.93 1.32-1.53.55-1.28.65-2.68.93-4.02l-1.97.45c-2.4.55-4.24 2.34-4.93 4.6.41-.02.83 0 1.24.06z"/><path class="cls-4" d="M59.55 44.87c.97.09 1.91.46 2.89.57 2.06.23 3.82-.83 4.83-2.59.96-1.66 1.03-3.53 1.48-5.34.13-.52.3-1.02.58-1.45l-3.47.79c-.29 1.34-.38 2.75-.93 4.02-.26.6-.68 1.29-1.32 1.53-1.03.39-2.37-.29-3.41-.44-.42-.06-.83-.08-1.24-.06a6.75 6.75 0 0 0-.31 1.96v1.13c.26-.1.7-.13.9-.12z"/><path class="cls-4" d="M65.54 50.4c2.36-.25 4.36-1.01 5.67-3.1 1.12-1.78 1.33-3.89 2.07-5.82.32-.83.78-1.68 1.58-2.11.49-.26 1.26-.48 1.73-.07 1.45 1.27 3.58-.85 2.12-2.12-2.01-1.76-5.03-1.22-6.75.7-1.85 2.07-1.84 4.86-2.99 7.25-.49 1.02-1.16 1.77-2.29 2.07-1.38.37-2.85.26-4.23.63-.95.26-1.85.78-2.54 1.47.58.81 1.33 1.48 2.2 1.97.14-.13.3-.23.45-.3.91-.45 1.99-.46 2.98-.56zM72.08 53.57s0 .03-.01.04c.03-.06.03-.07.01-.04zM76.86 48.67l.02-.02c-.02.01-.02.02-.02.02z"/><path class="cls-4" d="m76.86 48.67.02-.02-.02.02c.02 0 .26-.15.28-.16h-.03c.03-.01.03-.01.03 0 .06-.02.26-.08.33-.1h.02-.03c.09-.02.09-.01.03 0h.21-.01.01c.15.05.18.05.08 0 .74.34 1.61.21 2.05-.54.38-.64.2-1.71-.54-2.05-1.66-.76-3.58-.37-4.83.98-1.21 1.31-1.57 3.01-1.87 4.7-.04.2-.08.41-.13.61h3.04c.13-.76.26-1.51.53-2.23.16-.42.47-.95.81-1.21zM77.11 48.52h.03-.03z"/><path class="cls-4" d="M77.47 48.4h.03c.06-.01.06-.02-.03 0zM77.7 48.4h.01-.01zM120.71 40.16c-1.6 1.16-2.61 2.77-2.3 4.79.12.8 1.13 1.24 1.85 1.05.86-.24 1.17-1.04 1.05-1.85 0-.06.04-.29.11-.45.09-.21.27-.42.44-.6.42-.43.91-.73 1.45-.99 1.28-.64 2.64-1.16 3.66-2.21 1.09-1.12 1.52-2.6 1.95-4.06L126 35.2c-.29 1.05-.58 2.14-1.42 2.84-1.1.92-2.67 1.27-3.86 2.13zM129.46 43.4c-1.44 3.19-5.16 5.14-8.6 4.44-1.88-.39-2.69 2.51-.8 2.89 3.88.79 8.1-.61 10.62-3.7 1.44-1.76 2-3.8 2.7-5.92.47-1.41 1.59-3.72 3.4-3.42-.37-.16-.76-.29-1.16-.37l-3.13-.69c-.18.19-.35.39-.5.59-1.38 1.83-1.61 4.14-2.53 6.18zM136.03 44.37c-.78 1.82-1.05 3.79-1.76 5.62-.28.74-.7 1.52-1.27 2.13h1.17c.92 0 1.8-.19 2.59-.52.6-1.37 1-2.89 1.41-4.32.45-1.6 1.11-3.04 2.32-4.22.1-.1.21-.17.31-.26-.17-1.05-.6-2.02-1.21-2.86-1.54 1.14-2.8 2.66-3.57 4.44z"/><path class="cls-6" d="M77.26 34.02c.98.18 1.01 4.35 1.26 9.35.21 5.01.56 9.16-.4 9.43-.46.12-1.17-.81-1.82-2.48-.64-1.66-1.19-4.08-1.31-6.79-.12-2.71.2-5.17.69-6.88.49-1.72 1.11-2.71 1.58-2.63zM122.33 52.65c-.98-.14-1.18-4.33-1.08-9.41.12-5.08.51-9.26 1.49-9.36.96-.1 2.16 4.12 2.04 9.43-.11 5.31-1.5 9.48-2.45 9.34z"/><circle class="cls-4" cx="38.48" cy="30.37" r="3.48"/><path class="cls-5" d="M161.46 34.57c-.48.03-.93-.15-.98-2.38-.06-2.22.54-4 1.02-3.98.49.03.69 1.8.75 3.97.05 2.17-.29 2.35-.78 2.38z"/><path class="cls-5" d="M167.57 30.24c0 .48-2.86.85-6.36.52-3.5-.33-6.23-1.22-6.15-1.7.09-.49 2.9-.38 6.31-.06 3.41.33 6.19.74 6.19 1.24z"/><circle class="cls-4" cx="161.45" cy="29.86" r="3.48" transform="rotate(-59.98 161.46 29.857)"/><path class="cls-6" d="M162.93 30.54c-.46-.17-.66-.86-.94-1.45-.23-.61-.58-1.23-.39-1.68.11-.21.42-.31.84-.17.41.13.91.54 1.17 1.16.26.62.21 1.26.02 1.65-.19.4-.48.55-.71.48zM39.8 30.99c-.46-.17-.66-.86-.94-1.45-.23-.61-.58-1.23-.39-1.68.11-.21.42-.31.84-.17.41.13.91.54 1.17 1.16.26.62.21 1.26.02 1.65-.19.4-.48.55-.71.48zM42.7 41.41c-.5-.03-.82-1.28-1.53-2.56-.67-1.31-1.52-2.27-1.27-2.7.13-.2.56-.2 1.13.1.56.29 1.23.91 1.69 1.77.46.86.59 1.76.52 2.39-.07.64-.31 1-.55.99zM165.77 41.15c-.5-.03-.82-1.28-1.53-2.56-.67-1.31-1.52-2.27-1.27-2.7.13-.2.56-.2 1.13.1.56.29 1.23.91 1.69 1.77.46.86.59 1.76.52 2.39-.07.64-.31 1-.55.99zM138.67 43.89c-.24-.08-.29-.53-.52-1.05-.22-.53-.65-1.2-1.31-1.74-.68-.56-1.49-.97-2.09-1.33-.6-.36-.98-.67-.91-.91.06-.23.54-.35 1.29-.28.74.07 1.83.34 2.83 1.15 1.03.84 1.48 2.07 1.42 2.94-.06.9-.51 1.31-.71 1.22zM119.88 36.69c-.27.06-.64-1.17-1.83-2.72-1.16-1.55-3.27-3.34-6.03-4.46-2.78-1.12-5.57-1.54-7.58-1.9-2.02-.34-3.29-.63-3.27-.88.02-.24 1.3-.4 3.39-.37 2.07.05 5.04.27 8.13 1.51 3.1 1.25 5.39 3.48 6.41 5.42 1.06 1.95.98 3.38.78 3.4z"/><path style="stroke:#78577a;stroke-linecap:round;stroke-linejoin:round;fill:none" d="m99.79 106.94.39-80.92"/><path class="cls-5" d="M98.25 49.67h3.62v2.07h-3.62z"/><path class="cls-1" d="M123.56 47.6c-.05 0-.04 0 0 0zM85.62 53.26c.05-.1.09-.19.14-.28-.05.09-.1.18-.14.28z"/><path class="cls-4" d="M79.88 34.15c.93-1.62 1.12-3.57 1.45-5.37.12-.67.27-1.33.45-1.98-4.29 2.52-5.06 6.07-5.06 8.95v.37c1.33.17 2.53-.86 3.16-1.96z"/><path class="cls-8" d="M113.94 54.66c-.74-.2-1.32-1.08-1.05-1.85.08-.23.17-.47.26-.7-.42-.26-.94-.31-1.74-.31h-4.81c-1.98.57-4.12.34-6.16-.02h-5.59c-1.46.58-3.11.75-4.76.82l-2.42 5.77h23.31l3.02-.02c.69-.02 1.36-.12 2-.29l-1.33-3.41c-.23.06-.49.07-.75 0z"/><path class="cls-4" d="M85.69 35.59c.53-1.61 1.31-3.14 2.61-4.27 1.19-1.03 2.63-1.65 4.1-2.2 1.45-.54 3-.96 4.27-1.86 1.25-.89 1.98-2.19 2.31-3.64h-.54c-5.41 0-9.49.55-12.57 1.46-.4.5-.72 1.07-.92 1.62-.69 1.84-.82 3.83-1.26 5.73-.44 1.87-1.22 3.82-2.71 5.1-1.21 1.04-2.69 1.65-4.25 1.58v5.96c1.58-.64 3.3-.59 4.89-1.19 3.14-1.19 3.19-5.58 4.08-8.29z"/><path class="cls-5" d="M105.88 48.89h-4.7c1.55.27 3.26.49 4.7 0zM115.78 53.61c-.19.52-.59.92-1.1 1.05l1.33 3.41.13-.03v-5.4c-.12.31-.25.65-.37.98zM110.48 48.89c-.63.94-1.41 1.77-2.45 2.34-.46.26-.95.43-1.43.58h4.81c.8 0 1.32.05 1.74.31.39-1 .86-2 1.5-2.85a2.91 2.91 0 0 0-1.41-.38h-2.76zM94.86 51.78h5.59c-.21-.03-.43-.06-.64-.1-1.55-.29-1.3-2.26-.13-2.79h-1.46c-.05.09-.09.17-.15.26-.84 1.32-1.95 2.13-3.21 2.64zM85.46 53.67c.05-.15.11-.29.17-.41.04-.1.09-.19.14-.28-.7.19-1.37.49-1.97.97v3.97l1.45-3.62.22-.64zM90.85 49.61c1.09-.05 2.25-.21 3.22-.72h-7.38c-1.06 0-1.98.58-2.49 1.42.27-.1.55-.2.84-.27 1.9-.49 3.87-.34 5.81-.44z"/><path class="cls-8" d="M113.72 58.38c.1 0 .2-.01.29-.02l-3.02.02h2.73zM85.62 53.26c-.06.13-.11.26-.17.41l-.22.64.53-1.33c-.05.09-.1.18-.14.28zM85.24 54.31l.22-.64-.22.64z"/><path class="cls-8" d="M85.62 53.26c-.06.13-.11.26-.17.41.05-.15.11-.28.17-.41zM106.6 51.8l4.81.01-4.81-.01zM94.86 51.78l5.58.01-5.58-.01z"/><path class="cls-4" d="M88.71 52.64c-1 .02-2 .08-2.93.33l-.53 1.33-1.31 3.87s-.09-.02-.14-.04c-.03 0-.05-.02-.08-.02l-4.95 12.35c-.09.22.1.45.33.41l3.46-.66c.1-.02.18-.09.22-.18l4.9-11.65 2.42-5.77c-.47.02-.93.03-1.39.04z"/><path class="cls-4" d="m83.79 57.92-.08.19s.05.02.08.02v-.21zM83.79 57.92v.21s.09.03.14.04l1.31-3.87-1.45 3.62z"/><path class="cls-5" d="M80.12 47.28c1.75-.3 3.42-.71 4.76-1.95 2.53-2.33 2.7-5.89 3.71-8.95.52-1.58 1.37-2.79 2.84-3.59 1.37-.75 2.9-1.14 4.33-1.72 3.15-1.28 5.61-3.59 6.22-7.06.02-.12.03-.23.03-.34-.84-.03-1.71-.05-2.62-.05h1.19-1.6c-.34 1.46-1.06 2.75-2.31 3.64-1.28.91-2.82 1.33-4.27 1.86-1.47.54-2.9 1.16-4.1 2.2-1.29 1.12-2.08 2.66-2.61 4.27-.89 2.71-.93 7.1-4.08 8.29-1.58.6-3.31.56-4.89 1.19v3.51c.75-.92 2.33-1.11 3.39-1.3zM80.98 37.52c1.49-1.28 2.27-3.23 2.71-5.1.45-1.9.57-3.89 1.26-5.73.21-.55.52-1.12.92-1.62-1.63.48-2.98 1.06-4.09 1.72-.19.65-.33 1.32-.45 1.98-.33 1.8-.52 3.76-1.45 5.37-.63 1.1-1.82 2.13-3.16 1.96v3c1.56.07 3.03-.54 4.25-1.58zM100.61 48.78a1.51 1.51 0 0 0-.93.1h1.5c-.19-.03-.38-.07-.57-.1z"/><path class="cls-5" d="M99.81 51.68c.21.04.42.08.64.11h6.16c.49-.13.97-.31 1.43-.57 1.04-.57 1.81-1.4 2.45-2.34h-4.61c-1.45.49-3.16.27-4.7 0h-1.5c-1.16.53-1.41 2.5.13 2.79z"/><path class="cls-8" d="M106.6 51.8h-6.16c2.04.35 4.18.58 6.16 0z"/><path class="cls-5" d="m100.44 51.79 6.16.01-6.16-.01zM123.59 47.6h-.03.04zM122.1 47.55s.03 0 0 0-.04 0 0 0zM116.95 51.13c.04-.06-.05.05 0 0zM118.52 50.16h.06-.06zM117.91 50.33s.03-.02.05-.03c-.05.02-.06.03-.05.03zM114.32 53.71l.37.95c.5-.13.91-.53 1.1-1.05.12-.33.24-.66.37-.98v-.85c0-1.09-.61-2.03-1.49-2.52-.64.84-1.12 1.85-1.5 2.85.42.26.75.74 1.16 1.6z"/><path class="cls-5" d="M113.15 52.11c-.09.23-.18.47-.26.7-.27.76.31 1.64 1.05 1.85.26.07.52.06.75 0l-.37-.95c-.42-.86-.74-1.34-1.16-1.6zM85.77 52.98c0-.01.01-.03.02-.04.25-.44.56-.73.95-.91-.41.18-.72.48-.98.95zM87.42 51.84c-.08.01-.16.03-.23.05.07-.02.15-.03.23-.05zM87.86 51.78c-.07 0-.13.01-.2.02.07 0 .13-.02.2-.02zM87.04 51.92c-.08.02-.17.05-.25.08.08-.03.16-.06.25-.08zM111.04 24.74v.01-.01z"/><path class="cls-5" d="M86.74 52.03s.03-.02.05-.02c.08-.03.16-.06.25-.08.05-.01.1-.03.15-.04.07-.02.15-.03.23-.05l.24-.03c.07 0 .13-.02.2-.02.16-.01.33-.02.5-.02h2.09l4.41.01c1.26-.51 2.38-1.31 3.21-2.64.05-.08.1-.17.15-.26h-4.15c-.97.51-2.13.67-3.22.72-1.94.09-3.9-.05-5.81.44-.29.07-.56.17-.84.27-.26.43-.42.94-.42 1.48v2.16c.6-.47 1.27-.78 1.97-.97.26-.46.57-.76.98-.95z"/><path class="cls-5" d="m85.77 52.98.02-.04s-.01.03-.02.04z"/><path class="cls-8" d="M90.1 52.61c1.65-.07 3.3-.24 4.76-.83h-4.41l-.35.83z"/><rect class="cls-5" x="92.65" y="49.57" height="4.41"/><path class="cls-4" d="M88.36 51.77c-.18 0-.35 0-.5.02-.07 0-.13.01-.2.02-.08 0-.16.02-.24.03-.08.01-.16.03-.23.05-.05.01-.1.03-.15.04-.08.03-.17.05-.25.08-.02 0-.03.02-.05.02-.4.18-.7.47-.95.91l-.02.04c.94-.25 1.93-.32 2.93-.33.46 0 .93-.02 1.39-.04l.35-.83h-2.09z"/><path class="cls-5" d="M87.19 51.88s-.1.03-.15.04c.05-.01.1-.03.15-.04zM87.66 51.8c-.08 0-.16.02-.24.03l.24-.03zM86.79 52.01s-.03.02-.05.02c.02 0 .03-.02.05-.02zM90.45 51.77h-2.09 2.09zM88.36 51.77c-.18 0-.35 0-.5.02.16-.01.33-.02.5-.02z"/><path class="cls-4" d="m112.16 58.42-2.78-6.61h2.09c1.3 0 2.05.26 2.57 1.17l.55 1.37 6.48 16.16c.09.22-.1.45-.33.41l-3.46-.66a.31.31 0 0 1-.22-.18"/><path class="cls-1" d="M116.95 51.13c.04-.06-.05.05 0 0zM122.1 47.55s-.04 0 0 0c.05 0 .03 0 0 0z"/><path class="cls-4" d="M118.08 50.54c-1.44-.89-1.51-2.35-2.13-3.78-.82-1.87-2.27-2.48-4.25-2.38-2.18.11-4.27.82-6.47.56-1.82-.22-3.52-1.03-4.53-2.61-.85-1.32-1.1-3.06-.71-4.58.49-1.86 1.98-2.84 3.22-4.16 2.38-2.53 3.02-6.28 1.93-9.52-.02-.07-.03-.14-.05-.21-.98-.08-2-.15-3.09-.19 0 .11 0 .22-.03.34-.61 3.47-3.07 5.78-6.22 7.06-1.44.58-2.97.97-4.33 1.72-1.47.8-2.32 2.01-2.84 3.59-1 3.06-1.18 6.63-3.71 8.95-1.35 1.24-3.01 1.64-4.76 1.95-1.06.18-2.64.38-3.39 1.3v.68c0 2.38.93 4.55 2.44 6.18.73.78 1.58 1.44 2.54 1.93.63.32 1.3.57 2 .74l.08-.19v-6.13c0-.54.16-1.04.42-1.48.51-.85 1.42-1.42 2.49-1.42h26.55c.51 0 .99.14 1.41.38.89.5 1.49 1.43 1.49 2.52v6.25c3.21-.89 5.69-3.51 6.43-6.78-1.59.22-3.26.05-4.5-.72zm-1.13.59s.04-.06 0 0z"/><path class="cls-4" d="M113.71 35.89c-2-3.34-1.62-7.05-.69-10.61-.33-.1-.66-.2-1.02-.29-.31-.08-.63-.16-.96-.24-.85-.19-1.77-.36-2.74-.5.78 3.18.27 6.63-1.43 9.44-.87 1.44-2.07 2.43-3.22 3.62-.95.99-1.18 2.49-.29 3.62 1.1 1.4 3.3 1.17 4.85.94 1.82-.27 3.62-.66 5.46-.36 1.61.26 3.07 1.04 4.04 2.36.55.76.95 1.62 1.26 2.5.16.44.19 1.13.49 1.49.51.61 1.77.49 2.46.42.3-.03.6-.08.89-.15v-7.17c-3.69 0-7.16-1.79-9.13-5.07zm8.39 11.66s.05 0 0 0-.03 0 0 0z"/><path class="cls-4" d="M116.05 33.94c1.32 2.5 3.97 4.12 6.78 4.06v-2.27c0-3.06-1.45-6.88-7.02-9.41-.68 2.54-1.02 5.22.23 7.61z"/><path class="cls-5" d="M118.58 50.16h-.06.06zM123.94 47.82s.12-.04 0 0zM117.97 50.3c-.05.02-.06.03-.05.03.02 0 .03-.02.05-.03z"/><path class="cls-5" d="M119.48 47.85c-.3-.36-.34-1.05-.49-1.49-.31-.88-.71-1.74-1.26-2.5-.97-1.33-2.43-2.1-4.04-2.36-1.84-.3-3.64.09-5.46.36-1.55.23-3.75.46-4.85-.94-.89-1.13-.66-2.64.29-3.62 1.15-1.19 2.35-2.18 3.22-3.62 1.69-2.81 2.2-6.26 1.43-9.44-1-.15-2.07-.28-3.21-.38.01.07.02.13.05.21 1.09 3.24.44 6.99-1.93 9.52-1.24 1.32-2.73 2.31-3.22 4.16-.4 1.52-.15 3.25.71 4.58 1.01 1.58 2.71 2.39 4.53 2.61 2.2.27 4.29-.45 6.47-.56 1.98-.1 3.43.51 4.25 2.38.62 1.42.69 2.88 2.13 3.78 1.24.77 2.91.93 4.5.72.05-.23.12-.45.15-.68.06-.43.1-.87.1-1.32v-1.14c-.29.06-.59.12-.89.15-.69.07-1.95.19-2.46-.42zm-1.57 2.48.05-.03c-.02 0-.03.02-.05.03zm.67-.17h-.06.06z"/><path class="cls-5" d="M122.83 39.41V38c-2.82.05-5.47-1.56-6.78-4.06-1.26-2.39-.91-5.07-.23-7.61-.33-.15-.67-.3-1.04-.44-.29-.11-.57-.22-.87-.33-.15-.05-.29-.1-.44-.15-.14-.05-.3-.08-.45-.13-.93 3.56-1.31 7.28.69 10.61 1.96 3.28 5.43 5.06 9.13 5.07v-1.55z"/><path class="cls-6" d="M119.68 39.82c-.28 0-.36-1.08-.62-2.65-.28-1.56-.78-3.76-2.3-5.42-1.56-1.66-3.65-2.59-5.11-3.25-1.49-.64-2.46-1.04-2.41-1.29.05-.23 1.12-.27 2.8.1 1.65.41 4.04 1.17 6.02 3.25.96 1.06 1.56 2.3 1.86 3.45.32 1.15.4 2.2.38 3.07-.05 1.75-.42 2.74-.62 2.74z"/><path class="cls-10" d="M33.84 29.36a1.897 1.897 0 0 0-2.42-1.5l-5.28 1.35c-.32.48-.68.99-1.06 1.52-1 1.41-1.92 2.64-2.54 3.33l9.78-.17c1.19.02 2.11-1.04 1.91-2.21l-.39-2.31zM12.96 32.6c-.95.24-.76 1.65.22 1.63l5.57-.1c.09-.69.54-1.98 1.42-3.38l-7.2 1.85zM24.19 29.72l-2.08.53c-.14.19-.28.39-.42.59-.97 1.36-1.73 2.61-2.25 3.28l2.34-.04c.22-.81 1.02-2.41 2.22-4.11.06-.09.12-.17.19-.25zM54.06 25.52l-9.42.17a1.902 1.902 0 0 0-1.91 2.21l.39 2.31a1.897 1.897 0 0 0 2.42 1.5l4.04-1.04c.29-.62.67-1.3 1.16-1.99 1.23-1.75 2.64-2.88 3.32-3.17zM57.44 25.46l-2.99.05c.15.35-1.19 1.9-2.62 3.94-.19.27-.38.54-.55.79l2.45-.63c.13-.2.27-.41.42-.61 1.3-1.83 2.64-3.17 3.29-3.54zM63.78 25.35l-5.96.11c.07.38-.86 1.84-2.13 3.66L64 26.99c.95-.24.76-1.65-.22-1.63z"/><path class="cls-6" d="m22.11 30.25-1.94.5c-.87 1.4-1.33 2.7-1.42 3.38h.69c.52-.69 1.29-1.93 2.25-3.29.14-.2.28-.4.42-.59zM26.14 29.22l-1.95.5c-.06.09-.12.16-.19.25-1.21 1.7-2 3.3-2.22 4.11h.76c.62-.7 1.54-1.93 2.54-3.34.38-.53.73-1.04 1.06-1.52zM54.45 25.51h-.39c-.67.29-2.09 1.42-3.32 3.17-.49.69-.87 1.37-1.16 1.99l1.69-.43c.18-.26.36-.52.55-.79 1.43-2.04 2.77-3.59 2.62-3.94zM57.82 25.45h-.38c-.65.38-1.99 1.72-3.29 3.55-.15.21-.28.41-.42.61l1.96-.5c1.27-1.82 2.2-3.28 2.13-3.66z"/><path class="cls-10" d="M156.98 27.98a1.89 1.89 0 0 0-1.89-2.12l-5.44-.2c-.44.36-.93.75-1.44 1.16-1.36 1.07-2.59 1.99-3.38 2.47l9.43 2.61c1.13.36 2.31-.4 2.46-1.58l.28-2.33zM136.05 25.16c-.98-.04-1.2 1.37-.25 1.63l5.37 1.48c.28-.63 1.08-1.75 2.32-2.84l-7.43-.27zM147.64 25.58l-2.15-.08c-.19.15-.38.29-.57.44-1.31 1.03-2.4 2.01-3.09 2.51l2.26.62c.44-.71 1.66-2.02 3.3-3.31.08-.07.17-.12.25-.19zM177.47 30.03l-9.08-2.51c-1.13-.36-2.31.4-2.46 1.58l-.28 2.33a1.89 1.89 0 0 0 1.89 2.12l4.17.15c.46-.51 1.01-1.06 1.68-1.58 1.68-1.33 3.35-2.01 4.08-2.1zM180.72 30.93l-2.88-.8c.04.38-1.68 1.48-3.63 3.03-.26.2-.51.41-.75.61l2.53.09c.19-.16.37-.31.57-.47 1.77-1.39 3.43-2.29 4.16-2.46zM186.84 32.62l-5.75-1.59c-.04.39-1.35 1.52-3.08 2.9l8.58.31c.98.04 1.2-1.37.25-1.63z"/><path class="cls-6" d="m145.49 25.5-2-.07c-1.23 1.1-2.04 2.21-2.32 2.84l.66.18c.69-.5 1.78-1.48 3.09-2.51.19-.15.38-.3.57-.44zM149.65 25.66l-2.01-.07c-.08.06-.17.12-.25.19-1.64 1.29-2.86 2.59-3.3 3.31l.73.2c.79-.48 2.02-1.4 3.38-2.47.51-.4 1-.79 1.44-1.16zM177.84 30.13l-.37-.1c-.73.08-2.4.76-4.08 2.1-.66.52-1.22 1.07-1.68 1.58l1.74.06c.24-.2.49-.4.75-.61 1.95-1.55 3.67-2.65 3.63-3.03zM181.09 31.03l-.37-.1c-.73.17-2.39 1.07-4.16 2.46-.2.16-.39.31-.57.47l2.02.07c1.73-1.38 3.04-2.52 3.08-2.9z"/><path style="fill:#f2ac5d" d="M108.69 125.71H90.92"/><path d="M88.02 125.71H75.07c-.32 0-.57.08-.78.22-.68.14-1.06.75-1.15 1.43a441.65 441.65 0 0 0-3.32 39.96c-.14 3.79-.23 7.58-.28 11.36 0 .37.1.66.28.88.16.55.6 1.01 1.35 1.01h56.36c.5 0 .86-.21 1.1-.5.24-.26.4-.6.38-.96-.79-13.48-1.13-26.99-1.84-40.48-.2-3.75-.43-7.51-.7-11.26a1.61 1.61 0 0 0-.55-1.12c-.23-.32-.6-.55-1.13-.55h-13.17" style="fill:#ee7f31"/><path class="cls-1" d="M100.1 180.53c-.85-3.65-1.52-17.7-1.55-18.33-.05-.5-.41-.91-.89-1.04l-3.56-.69c-.53-.13-.93-.61-.93-1.19 0-.19.04-.37.12-.52.26-.68 7.07-13.1 19.44-20.74.51-.34 1.12-.53 1.77-.53.66 0 1.27.2 1.77.53 2.68 1.65 5.09 3.53 7.24 5.46s.02.01.03.01c.03 0 .05-.02.05-.05v-1.24c0-.42.34-.76.76-.76h.1l2.87.35c-.05-1.05-.1-2.11-.16-3.17-.2-3.75-.43-7.51-.7-11.26a1.61 1.61 0 0 0-.55-1.12c-.23-.32-.6-.55-1.13-.55H75.06c-.32 0-.57.08-.78.22-.68.14-1.06.75-1.15 1.43a441.65 441.65 0 0 0-3.32 39.96c-.14 3.79-.23 7.58-.28 11.36 0 .37.1.66.28.88.16.55.6 1.01 1.35 1.01h28.95s-.02-.03-.02-.05zM123.88 153.9c-.02-.24-.06-.34-.06-.34a.752.752 0 0 0-1.14-.34s-.09.06-.23.2c0 0-4.72 4.82-5.71 19.12 0 0-.02.2.03.38.08.3.31.53.7.6l2.46.34c.22.03.38.2.38.41 0 0-.11 2.27-.53 6.31h3.63c.07-1.19.27-4.53.44-8.57.25-5.97.45-13.62.04-18.11z"/><path class="cls-1" d="M110.98 173.5a.77.77 0 0 1 .32-.56 3.84 3.84 0 0 0 1.67-3.17V169.6c-.18-4.81-.26-10.3 0-14.63v-.06c0-.4-.33-.71-.73-.7-.38 0-.68.3-.7.67-.18 2.96-.2 6.49-.13 9.96 0 .47-.37.85-.83.86s-.85-.37-.86-.83c-.06-3.45-.05-6.94.13-9.89v-.06c0-.4-.33-.71-.73-.7-.38 0-.68.3-.7.67-.18 2.98-.2 6.52-.13 10.01.01.47-.37.85-.83.86s-.85-.37-.86-.83c-.06-3.47-.05-6.98.13-9.95v-.06c0-.4-.33-.71-.73-.7-.38 0-.68.3-.7.67-.27 4.46-.17 10.15.01 15.08.07 1.32.8 2.46 1.87 3.1.21.13.35.35.36.61 0 .07.01.17.01.24.13 2.72.3 5.3.39 6.65h3.6c-.06-.58-.16-1.51-.28-2.76-.33-3.58-.24-4.32-.24-4.32z"/><path class="cls-6" d="M124.36 141.45a.76.76 0 0 0-.76.76v1.24s-.02.05-.05.05c-.01 0-.02 0-.03-.01-2.14-1.93-4.56-3.81-7.24-5.46-.51-.34-1.12-.53-1.77-.53-.66 0-1.27.2-1.77.53-12.37 7.64-19.18 20.05-19.44 20.74-.07.16-.12.33-.12.52 0 .57.39 1.05.93 1.19l3.56.69c.48.13.84.54.89 1.04.03.63.7 14.69 1.55 18.33s.01.04.02.05h7.78c-.09-1.36-.25-3.94-.39-6.65 0-.07-.01-.17-.01-.24a.77.77 0 0 0-.36-.61 3.844 3.844 0 0 1-1.87-3.1c-.19-4.93-.28-10.62-.01-15.08a.71.71 0 0 1 .7-.67c.4 0 .72.31.73.7v.06c-.17 2.97-.19 6.49-.13 9.95.01.47.4.84.86.83s.84-.4.83-.86c-.06-3.49-.05-7.03.13-10.01a.71.71 0 0 1 .7-.67c.4 0 .72.31.73.7v.06c-.17 2.95-.19 6.45-.13 9.89.01.47.4.84.86.83s.84-.39.83-.86c-.06-3.47-.05-6.99.13-9.96a.71.71 0 0 1 .7-.67c.4 0 .72.31.73.7v.06c-.25 4.33-.17 9.81 0 14.63V169.79c0 1.32-.66 2.48-1.67 3.17-.18.12-.3.32-.32.56 0 0-.09.74.24 4.32.12 1.25.22 2.18.28 2.76h8.26c.43-4.04.53-6.31.53-6.31 0-.22-.16-.38-.38-.41l-2.46-.34c-.39-.07-.62-.31-.7-.6-.05-.18-.03-.38-.03-.38 1-14.3 5.71-19.12 5.71-19.12.14-.14.23-.2.23-.2a.752.752 0 0 1 1.14.34s.04.1.06.34c.41 4.49.21 12.14-.04 18.11-.17 4.04-.37 7.37-.44 8.57h4.16c.5 0 .86-.21 1.1-.5.24-.26.4-.6.38-.96-.73-12.43-1.07-24.88-1.68-37.31l-2.87-.35h-.1z"/><path d="M112.94 125.42c0 6.63-5.38 12.01-12.01 12.01s-12.01-5.38-12.01-12.01 5.38-19.94 12.01-19.94 12.01 13.3 12.01 19.94z" style="stroke:#ee7f31;stroke-miterlimit:10;fill:none"/></g></svg>