<svg xmlns="http://www.w3.org/2000/svg" viewBox="0 0 200 200"><defs><style>.cls-1{fill:#e4c7bd}.cls-2{fill:#fff}.cls-4{fill:#e4683b}.cls-6{fill:#ff8000}.cls-13{fill:#5b3d5b}</style></defs><path d="M16.89 111.06c11.6 114.87 180.89 90.1 172.37-18.33C179.58-20.99-13.56-7.91 16.89 111.06Z" style="fill:#efedea" id="BG_Strong"/><g id="Illustrations"><path class="cls-6" d="M133.05 142.63c.02 8.32-3.4 26.67-3.38 34.99 0 2.23.02 4.49.56 6.65s1.66 4.26 3.5 5.54c2.49 1.73 5.8 1.66 8.8 1.23 7.11-1 17.58-13.71 22.91-18.51 5.35-4.8 8.85-11.85 8.5-19.02-.05-1.01-.19-2.06-.7-2.92-.7-1.16-1.98-1.83-3.22-2.39a48.767 48.767 0 0 0-11.59-3.56c-1.12-.19-2.27-.35-3.39-.16-1.43.25-2.7 1.05-3.85 1.93-3.08 2.36-5.6 5.37-8.08 8.35l-10.78 12.94"/><path class="cls-6" d="M132.72 142.63c0 1.95-.14 3.88-.32 5.81l-.8 7.2-1.81 14.98-.43 6.12.07 4.27c.11 1.61.35 3.23.93 4.75.5 1.32 1.24 2.57 2.27 3.56 1.03.99 2.3 1.63 3.68 1.97 1.44.35 2.95.38 4.42.27 1.1-.08 2.22-.19 3.27-.54 1.91-.61 3.65-1.71 5.27-2.88 1.96-1.41 3.77-3.01 5.54-4.64 3.35-3.13 6.44-6.52 9.74-9.69.78-.75 1.6-1.46 2.36-2.23 1.01-1.04 1.95-2.16 2.79-3.34 1.66-2.33 2.95-4.94 3.74-7.7.39-1.38.67-2.8.79-4.24.12-1.43.18-3-.13-4.43a4.87 4.87 0 0 0-.94-2.02c-.44-.55-1.03-.97-1.63-1.32-1.36-.79-2.89-1.36-4.36-1.91-3.1-1.16-6.38-2.08-9.67-2.49-.87-.11-1.75-.14-2.61.02-.74.14-1.44.43-2.1.79-1.38.75-2.63 1.81-3.78 2.88-2.42 2.22-4.5 4.77-6.6 7.28l-6.95 8.34-3.33 4c-.27.32.19.8.47.47l6.8-8.16 6.55-7.8c1.05-1.19 2.14-2.36 3.31-3.45 1.17-1.09 2.3-2.05 3.62-2.83.66-.38 1.35-.69 2.09-.85.84-.18 1.69-.13 2.53-.02 1.65.21 3.28.58 4.88 1.01s3.16.92 4.7 1.5c1.44.54 2.94 1.1 4.26 1.9.58.36 1.15.79 1.53 1.37.43.63.62 1.4.7 2.15.16 1.38.1 2.82-.06 4.2-.67 5.64-3.62 10.92-7.7 14.81l-2.1 1.97c-.69.67-1.4 1.38-2.09 2.09l-4.9 4.96c-1.66 1.63-3.51 3.38-5.37 4.94-1.65 1.37-3.38 2.69-5.26 3.7-.79.43-1.6.8-2.46 1.05-1.09.32-2.23.42-3.35.48-1.44.07-2.9 0-4.3-.42s-2.55-1.19-3.46-2.28c-1.99-2.37-2.4-5.6-2.48-8.59-.06-2.16 0-4.3.18-6.44.38-4.77 1.03-9.51 1.63-14.26.61-4.75 1.22-9.19 1.47-13.81.05-.84.07-1.67.07-2.51 0-.43-.67-.43-.67 0h.02Z"/><path d="M113.07 57.2c1.3-4.19 1.44-8.74.41-13-.47-1.92-1.18-3.82-1.22-5.8-.04-1.53.44-3.16 1.47-4.22.32-.33.1-.9-.37-.91-1.62-.02-3.26.3-4.74.94-.25.11-.55 0-.68-.24-1.43-2.8-4.06-4.89-6.97-6.11-3.07-1.29-6.43-1.69-9.75-1.79-4.8-.14-9.61.35-14.28 1.43-.43.1-.56.63-.24.92l2.04 1.8c.25.21.24.62-.02.82-1.9 1.46-4.64 2.69-5.79 8.22-.08.41.31.75.7.61 2.03-.73 6.87-1.69 7.27 5.62" style="fill:#ddb457"/><path d="M193.92 18.74c-.78-2.88-2.23-5.55-4.27-7.72-2.34-2.49-5.33-4.3-8.58-5.35-3.6-1.17-7.51-1.5-11.25-.91-3.65.57-7.26 2.11-10.11 4.49-.39.32-.76.67-1.12 1.04-1.67-2.69-4.12-4.83-6.9-6.34-3.32-1.8-7.12-2.69-10.9-2.71-3.59-.02-7.21.7-10.38 2.4a18.21 18.21 0 0 0-6.68 6.07c-1.59 2.41-2.6 5.18-2.94 8.04-.38 3.25.18 6.52 1.22 9.58 1.19 3.53 3.06 6.81 5.14 9.89 2.11 3.14 4.48 6.11 6.91 9 2.37 2.82 4.87 5.54 7.55 8.07 2.76 2.61 5.7 5.04 8.85 7.16l2.43 1.55c.19.12.42.16.62.08.18.11.42.12.63.05 3.59-1.3 7.04-2.95 10.35-4.86 3.23-1.87 6.32-3.97 9.28-6.24l8.57-7.14c2.77-2.54 5.42-5.27 7.59-8.37 1.97-2.8 3.57-5.95 4.26-9.34.56-2.78.47-5.7-.27-8.45h-.01Z" style="fill:#fcb9c4"/><path d="M135.84 41.65c1.35.11 2.78-1.11 1.95-2.6l-3.94-7.01c-.21-.39-.55-.69-.95-.86-.61-.72-1.65-1-2.53-.18l-4.43 4.11 4.32 6.46 4.25.45c.55.06 1-.1 1.34-.36Zm-6.93-4.09 2.4-2.23 1.49 2.64-3.89-.42Zm25.29 22.05c.13-.03.26-.07.38-.13.87-.38 1.47-1.66.94-2.54-1.62-2.72-3.45-5.3-5.54-7.69-.63-.73-1.95-1.01-2.7-.26-1.84 1.82-3.52 3.8-5.02 5.92 2.12 1.97 4.31 3.71 6.18 5.1l4.12.33c.75.06 1.31-.25 1.65-.73h-.01Zm-7.98-3.63 2.2-2.65 2.23 3.01-4.42-.36h-.01Zm29.77-16.64c-.82-1.24-1.92-3.37-3.48-3.74-1.9-.45-3.11 1.49-4.2 2.71l-4.15 4.67c-.66.73-.55 1.52-.1 2.1.19.76.85 1.5 1.67 1.48 3.11-.06 6.21.16 9.28.66.55.1.99-.04 1.32-.29 1.41.62 3.44-.74 2.58-2.51-.85-1.75-1.82-3.45-2.9-5.07h-.02Zm-6.56 3.45.6-.67 1.38-1.55c.06-.06.27-.33.5-.61.54.73 1.03 1.65 1.4 2.22l.62 1-4.49-.41h-.01Zm-12.16-23.43c-.81-1.32-1.84-3.44-3.4-3.95-1.9-.63-3.33 1.41-4.48 2.55l-4.55 4.51c-.99.98-.63 2.37.19 3.07.25.49.72.88 1.41.99 3.51.55 7.06.88 10.61 1 .75.02 1.31-.32 1.66-.81.9-.38 1.55-1.36 1.06-2.52a38.24 38.24 0 0 0-2.49-4.85h-.01Zm-7.66 3.76.88-.87 1.71-1.69.76-.75.02-.02.3.42 1.13 1.79.88 1.65-5.68-.51h-.01Zm17.85-11.98c-.53 1.12-.12 2.65 1.44 2.64 3.2-.01 6.38.2 9.55.64.16.02.32.02.48 0 1.28-.01 2.53-1.19 1.77-2.64l-3.72-7.06c-1.53-.2-3.07-.26-4.59-.2-1.75 1.75-3.32 3.68-4.63 5.8-.17.27-.26.55-.3.82h.01Zm6.9-3.16 1.19 2.27-2.95-.2c.55-.72 1.14-1.4 1.75-2.06Zm18.69 14.51-4.71 5.86c-1.13 1.55.48 3.25 1.95 3 .37.35.9.55 1.54.48l.78-.08c.58-1.26 1.05-2.58 1.41-3.93-.14 0-.29 0-.43.02l.61-.74c.39-1.77.55-3.57.39-5.37-.56.04-1.11.32-1.52.78h-.01ZM125.59 8c.18 1.11 1.18 1.62 2.21 1.56 3.04-.19 6.07.1 9.05.72.05 0 .1.01.14.02 1.54.64 3.5-1.36 2.22-3.03a31.408 31.408 0 0 1-3.35-5.48c-2.14.49-4.21 1.24-6.17 2.23-1.49.76-2.97 1.93-4.3 3.41.05.16.11.3.18.43 0 .04 0 .08.01.12h.01Zm7.34-3.51.79 1.43-2.12-.16 1.34-1.26Z" style="fill:#cc939f"/><path class="cls-4" d="M166.29 112.25h.01c-2.23-2.71-4.07-5.84-5.54-9.07-1.47-3.23-2.61-6.77-3.46-10.27-.85-3.51-1.43-7.04-1.8-10.57-.3-2.91-.45-5.83-.49-8.75.14.4.27.8.42 1.2.47 1.19.92 2.46 1.75 3.42.84.97 2.16 1.44 3.31.86 1-.5 1.31-1.67 1.21-2.71-.13-1.16-.57-2.24-.99-3.33a44.926 44.926 0 0 0-5.32-9.97l.02-.27c.04-.36-.33-.67-.67-.67h-.02c-.22-.28-.57-.42-.9-.23-.08.05-.15.12-.2.2-.17-.18-.42-.29-.65-.2h-.01c-4.49 1.84-8.26 5.37-10.23 9.82-.53 1.17-.93 2.43-.74 3.72.19 1.29 1.29 2.88 2.73 2.1.58-.31 1.03-.93 1.44-1.43l1.29-1.56a46.352 46.352 0 0 0 4.83-7.48c-.28 4.48-.99 9.12-4.06 12.54-.26.29-.55.57-.84.85-.77-1.21-2.33-1.9-3.68-1.28-1.15.53-1.72 2.17-.98 3.25.88 1.28 2.59.98 3.77.35.07-.04.14-.09.21-.13 0 .12.01.24.01.36-.02 2.21-1.41 4.34-3.41 5.32l-.09.03c-.27-.88-.72-1.69-1.36-2.37-.93-.99-2.17-1.65-3.5-1.65-1.23 0-2.6.64-3.02 1.87-.51 1.53.9 2.76 2.12 3.33 1.37.64 2.88.85 4.37.63.11-.02.21-.05.31-.07 0 .57-.11 1.15-.33 1.73-.79 2.15-2.88 3.68-5.13 4.07-2.26.39-4.71-.51-5.95-2.47-.3-.48-.5-.92-.64-1.47-.21-.82-1.5-.48-1.28.36.74 2.82 3.34 4.74 6.19 4.98 2.85.24 5.92-1.28 7.47-3.78.69-1.12 1.1-2.49 1-3.81a7.473 7.473 0 0 0 4.28-4.8c.29-.99.38-2.1.15-3.12a12 12 0 0 0 1.69-1.73c.88-1.11 1.6-2.33 2.16-3.63 1.23-2.91 1.65-6.04 1.85-9.17.04.4.11.79.17 1.19l-.14 2.74.42 10.06c.33 3.64.87 7.27 1.68 10.82.81 3.56 1.92 7.21 3.37 10.64 1.44 3.44 3.17 6.52 5.37 9.39l.87 1.1c.23.27.7.24.94 0 .27-.27.23-.66 0-.94Zm-26.46-23.4c-.56-.07-1.11-.23-1.62-.45-.51-.23-1.06-.53-1.41-.98a1.21 1.21 0 0 1-.23-.49v-.2c.01-.07.02-.13.05-.19 0-.02 0-.03.01-.04l.03-.04c.09-.16.14-.24.34-.4l.09-.06c.04-.02.07-.05.12-.07.12-.07.23-.12.29-.13.11-.04.23-.07.35-.1.07-.01.13-.03.2-.04h.05c.26-.02.5-.01.68.02.54.11.94.27 1.4.57.82.55 1.48 1.46 1.78 2.41 0 .03.01.05.02.08-.7.15-1.43.19-2.13.1Zm5.7-7.12c-.18.08-.43.16-.66.2-.17.04-.48.04-.6 0a.73.73 0 0 1-.43-.25c.08.08-.12-.21-.06-.1l-.06-.18v-.29c.01-.06.04-.13.05-.19.02-.05.02-.06.02-.06.1-.22.16-.32.36-.46-.1.07.2-.11.12-.07.07-.04.16-.05.23-.07.04 0 .04 0 .05-.01.28-.03.47 0 .75.1.47.17.81.52 1.03.95-.26.17-.53.32-.8.44Zm14.55-6.5c.07.21.13.43.19.66.06.23.08.41.1.58.02.21.02.44 0 .67.01-.1-.04.14-.05.17-.01.05-.02.08-.04.13 0 .02 0 .02-.01.03l-.04.05c-.16.29-.41.45-.78.45s-.79-.17-1.1-.47c-.76-.73-1.16-1.86-1.54-2.82-.45-1.12-.82-2.28-1.13-3.46a29.3 29.3 0 0 1-.56-2.79l.13-3.21c2.02 3.11 3.66 6.47 4.82 9.99Zm-15.04.16c-.19.21-.37.43-.57.64-.13.14-.33.39-.53.39.05 0-.07-.04-.1-.06s-.13-.12-.17-.17c-.16-.19-.25-.41-.32-.63-.27-.94.04-2.03.42-2.95.82-2 2.09-3.83 3.58-5.38 1.47-1.51 3.22-2.76 5.13-3.67a45.704 45.704 0 0 1-7.44 11.82Z"/><path class="cls-13" d="M11.28 65.4c-1.98 2.3-2.69 5.56-1.77 8.47.11.35.47.56.81.47.33-.1.57-.48.47-.81-.78-2.42-.26-5.22 1.42-7.17.24-.27.26-.67 0-.94-.24-.24-.7-.27-.94 0h.01Zm-3.16-1.48c-1.54 1.12-2.47 3-2.33 4.9.02.35.29.68.67.67.33-.01.69-.3.67-.67-.01-.19-.02-.39 0-.58 0-.1.01-.19.02-.3 0-.11-.01.1 0-.02 0-.06.01-.11.02-.17.04-.19.08-.38.14-.57.02-.1.06-.19.1-.27.01-.04.04-.08.05-.12.05-.11-.07.13.02-.05l.26-.49.16-.25.1-.13c.06-.08-.05.06.01-.02.12-.16.25-.3.39-.44l.21-.2s.07-.06.1-.08c.17-.13-.1.07.07-.06.29-.21.43-.57.24-.91-.17-.29-.62-.45-.91-.24Zm50.42 21.1c.74.47 1.38 1.09 1.87 1.83.54.8.85 1.56 1.01 2.52.06.36.49.55.81.47.37-.11.53-.47.47-.81-.38-2.11-1.69-4-3.51-5.13-.3-.19-.73-.06-.91.24-.19.32-.07.72.24.91h.01Zm4.49-1.86c.18.04.35.08.51.16l-.16-.07c.16.07.3.14.44.24l.11.07c.1.06-.14-.12 0 0l.19.17c.06.06.12.12.17.19.11.13-.07-.11 0 0l.07.11c.1.14.17.29.24.44l-.07-.16c.08.2.14.42.18.63.02.16.18.32.31.39.16.09.34.11.51.07a.67.67 0 0 0 .39-.31c.08-.16.1-.34.07-.51-.18-1.29-1.3-2.43-2.58-2.67a.696.696 0 0 0-.51.07c-.14.08-.27.24-.31.39-.07.32.1.75.47.81l-.04-.02Z"/><path class="cls-1" d="m170.23 149.07 2.04-4.85 5.54-5.9c1.26-1.67 2.33-3.44 2.69-4.3.36-.86 1.03-2.51 1.17-3.27s.21-2.39-.39-3.22-1.04-1.97-1.04-1.97.56-1.96.41-2.47-1.11-1.37-1.44-1.75-.61-.72-.53-1.44 1.12-1.59.47-2.7-1.43-.88-2.1-1.25-1.65-.45-1.65-.45l.04-2.94s-1.04-.86-2.63-.81c-1.59.05-5.74.36-6.97.97-1.23.61-4.5 2-5.23 2.18s-1.66.37-2.37.7c-.72.33-1.63 2.45-2.04 2.71s-.7 1.99-.31 3.11l1.43 3.87c.5 1.03-.08 1.05-.2 1.97l-.95 6.98c-.07 1.03 1.29 3.87 1.68 4.53s.45 3.07.49 3.46c.04.39-1.81 2.9-1.81 2.9l9.11 2.53c1.74.41 4.62 1.38 4.62 1.38Z"/><path d="M180.9 126.03v-.01h.01c-.11-.57.19-1.23.32-1.83.16-.75.12-1.53-.3-2.2-.32-.5-.78-.88-1.29-1.17-.03-.02-.05-.05-.09-.08h-.04l-.02-.02s-.04-.1-.05-.11c.06.13-.02-.11-.04-.13l-.04-.19q-.01-.08 0-.02v-.63s.04-.25 0-.1c.17-.9.73-1.73.38-2.67-.32-.87-1.15-1.41-2.02-1.65-.52-.14-1.05-.19-1.59-.19a.435.435 0 0 0-.07-.06c-.04-.02-.05-.1 0 .01 0 0-.02-.04-.04-.06 0-.02-.02-.08-.02-.09.04.14 0 0 0-.07 0-.05.02-.24 0-.1 0-.07.02-.16.04-.23l.1-.47c.16-.74.2-1.56-.39-2.14-.38-.36-.9-.51-1.4-.6-.56-.1-1.12-.16-1.69-.18-1.15-.05-2.28.05-3.4.2-2.12.31-4.26.86-6.28 1.58-1.13.4-2.26.95-3.08 1.81-.6-.07-1.19 0-1.76.26-.55.26-.97.73-1.32 1.21l-.81 1.24c-.54.74-.88 1.54-.98 2.45-.2 1.72.75 3.09 1.44 4.57 0 .03-.02.06-.02.09.05.37.06.72.05 1.07 0 .18-.02.36-.04.53 0 .1-.02.19-.02.27 0 .05 0 .08-.01.13v.02l-.39 2.47c-.35 2.3-.37 4.58.06 6.89.35 1.83.95 3.59 1.68 5.3.02.04.05.07.08.1l-2.18 6.05c-.14.41.06.85.47.99.08.03.17.05.26.05.31 0 .61-.2.73-.51l2.35-6.52a.768.768 0 0 0-.47-.99c-.06-.02-.11-.02-.17-.02-.58-1.4-1.06-2.86-1.38-4.34-.25-1.22-.38-2.35-.38-3.62l.06-1.55.07-.74.04-.33v-.05c0-.06.01-.12.02-.19l.27-1.67c.26.56.63 1.07 1.17 1.42.74.49 1.77.68 2.66.48.69-.15 1.22-.57 1.64-1.11.6 1.14 1.35 2.2 2.23 3.15 0 0 .01 0 .02.01.03.21.06.41.11.62.43 1.62 1.54 2.97 2.7 4.14.03.03.07.04.1.07.69.57 1.43 1.09 2.21 1.55.04.04.07.08.12.1v-.02c.08.05.16.07.25.08 1.22.39 2.47-.46 2.79-1.7.2-.76.01-1.58-.23-2.32-.07-.23-.19-.44-.28-.66 0-.02.02-.03.02-.04l.09-.24c.06-.14.13-.28.21-.41.05-.08.11-.16.17-.24.04-.04.06-.07.1-.11.06-.07.12-.13.19-.19.04-.04.07-.06.11-.1.12-.08.25-.15.39-.22.16-.06.32-.11.48-.13.16-.02.32-.18.39-.31.09-.16.11-.34.07-.51-.03-.1-.1-.2-.18-.28a.607.607 0 0 0-.5-.24h-.01l-2.26.23c-.75.06-1.43.07-2.11-.14-.35-.1-.71.11-.81.46-.09.35.12.71.47.81.43.13.86.19 1.29.21-.21.27-.17.62.04.88.36.43.63.95.81 1.47.11.3.19.61.25.93l.04.2c.01.06 0-.01 0 .08V136.04c-.01.11-.05.23-.08.33-.01.05-.06.13-.01.05-.02.06-.06.11-.08.17-.02.05-.05.09-.08.14l-.04.04-.12.12s-.03.02-.04.03c-.04.03-.08.05-.13.07-.01 0-.05.02-.07.03l-.2.06h-.2c.11 0 .05 0-.02-.01h-.01s-.01-.02-.02-.02l-1.16-.74-.55-.39-.04-.02-.13-.11-.27-.23c-.6-.62-1.18-1.25-1.63-1.98-.37-.58-.57-.99-.73-1.62-.03-.13-.06-.26-.08-.39 0-.02 0-.07-.01-.11 0-.06-.01-.11-.01-.17-.03-.28-.03-.56-.02-.85.01-.5.06-1 .12-1.49 2.81-1.87 6.14-2.8 9.51-2.64.36.01.67-.32.67-.67 0-.37-.31-.64-.67-.67-3.64-.16-7.33.87-10.33 2.92-.11.08-.19.19-.25.3a.79.79 0 0 0-.24.5h-.01l-.09.91c-.41-.56-.8-1.15-1.12-1.78-.27-.54-.51-1.1-.72-1.67-.1-.27-.21-.57-.25-.86-.04-.25.05-.35.21-.51.84-.81 1.86-1.46 2.9-1.98s2.2-.94 3.37-1.21c1.3-.29 2.63-.38 3.96-.3.36.02.67-.32.67-.67 0-.38-.31-.64-.67-.67h-.01c-2.7-.17-5.42.41-7.83 1.61-1.05.52-2.08 1.18-2.96 1.96l-.64-.99c-.27-.42-.61-.85-.81-1.3-.3-.69.35-1.23.92-1.61 1.6-1.05 3.42-1.66 5.26-2.11l3.21-.66c.36-.06.55-.49.47-.81-.11-.37-.47-.53-.81-.47h.01c-2.08.37-4.16.76-6.15 1.54-.99.38-1.97.85-2.83 1.47-.06.04-.12.09-.18.14l-.19-.06h-.03a.467.467 0 0 1-.1-.05 1.71 1.71 0 0 1-.23-.13c-.02-.01-.05-.04-.08-.06l-.03-.03-.14-.14s-.04-.05-.06-.07c-.04-.06-.07-.11-.1-.17-.01-.03-.03-.06-.04-.08v-.04l-.09-.34v-.34c0-.07 0-.12.01-.19 0-.03 0-.06.01-.08l.12-.44s.08-.2.02-.08c.02-.06.06-.12.08-.18.06-.12.14-.24.21-.36.07-.06.13-.13.17-.21.02-.02.04-.05.06-.07.13-.14.28-.27.43-.39.64-.51 1.43-.84 2.21-1.1 1.9-.66 3.86-1.16 5.85-1.49.98-.16 1.97-.24 2.95-.21.48 0 .97.04 1.44.11.33.05.82.07 1.1.29.04.02.06.06.08.08 0 .03.02.05.03.07 0 .01 0 .02.01.04 0 .03.01.04.01.04v.31c0-.1-.01.08-.01.08-.01.08-.02.16-.05.23l-.11.49c-.06.34-.07.66-.02.97h-.11c-.36.02-.67.29-.67.67 0 .35.31.69.67.67.93-.06 1.91-.17 2.82.11.33.1.64.26.86.5.16.17.24.35.2.64-.05.45-.29.87-.39 1.3-.08.32-.12.67-.11 1 0 .1.02.21.03.31-.21-.04-.43-.07-.66-.1-.36-.05-.67.33-.67.67 0 .39.31.62.67.67.91.11 2.06.39 2.51 1.34.08.17.11.39.1.64-.01.26-.1.55-.18.82-.08.3-.15.6-.19.9-.02 0-.03-.01-.04-.02-.33-.12-.73.13-.81.47-.1.37.12.7.47.81.61.21 1.11.7 1.44 1.3.31.55.51 1.23.5 1.85 0 .1 0 .21-.02.31.01-.19 0 .04-.01.07l-.04.21-.21.86c-.19.67-.43 1.31-.69 1.96l-.81 1.79c-.23.45-.48.91-.76 1.32-1.01 1.46-2.18 2.78-3.44 4.03-1.05 1.05-2.12 2.16-3.08 3.36-.22.06-.39.23-.48.46l-2.88 6.81c-.14.33.16.73.47.81.38.11.68-.13.81-.47l2.61-6.19s.05-.04.07-.07c.97-1.31 2.11-2.47 3.27-3.63 1.32-1.34 2.57-2.73 3.65-4.27.76-1.07 1.3-2.29 1.79-3.51.49-1.22 1.03-2.52 1.07-3.82.05-1.36-.57-2.77-1.6-3.68Zm-20.62-6.28c-.26.43-.4.91-.31 1.46.1.61.48 1.12.8 1.62l1.13 1.75s.02.01.02.02c-.01.03-.04.06-.05.1-.12.41-.04.84.07 1.23.12.42.27.84.43 1.25-.14.29-.31.56-.53.79l-.17.16s-.06.04-.08.06c-.14.08-.24.13-.41.18-.54.16-1.15.05-1.63-.24l-.27-.19-.16-.14c-.08-.1-.04-.02-.1-.12-.19-.29-.32-.6-.43-.92-.23-.73-.32-1.49-.6-2.21-.51-1.36-1.6-2.69-1.65-4.15-.02-.69.17-1.35.53-1.95l.81-1.23.2-.32.11-.16.02-.03.03-.03.26-.29.14-.13s.04-.03.04-.04h.02c.06-.04.12-.08.19-.12l.13-.07c-.07.04.02 0 .02 0l.11-.04s.04 0 .06-.02c-.01.03-.03.06-.04.09-.26.69-.32 1.53-.05 2.23.25.66.73 1.14 1.33 1.45Z" style="fill:#573f59"/><path class="cls-1" d="m109.58 59.46.81-1.55c.39-.7 1-1.58 1.63-2.29s3.15-.38 3.15-.38c.11.88.49 1.7 1.09 2.36.16 1.42-.49 4.06-.78 5.7-.29 1.65-1.75 3.2-2.94 3.01-1.18-.19-2.41-2.43-2.41-2.43l-.17 4.73-.39 7.52.53 9.14c.16.58 0 6.98 0 6.98L108.56 94l-1.16 3.22c-.12.36-3.91 1.5-6.03 1.67-2.11.17-9.11-.8-11.38-1.29-2.28-.49-4.16-1.84-4.16-1.84l-.35-9.77c0-.21-.75-1.42-.88-1.54s-3.9-3.84-4.71-5.23c-.81-1.38-2.88-7.32-3.16-9.68-.29-2.36-.78-9.06-.55-11.43l.93-8.74 2.28-5.81c.63-.95 1.48-2.63 1.77-2.59s.43.8 1.46 1.46l.91.68c.98.73 2.3.84 3.39.27l4.03-2.11c.37-.2.76-.37 1.16-.51 3.27-1.22 6.92-.64 9.67 1.49l1.83 1.42c1.14.89 2.08 2.02 2.74 3.31l4.06 7.85-1.17 7.73"/><path class="cls-6" d="m44.85 115.42 2.77 5.54 3.71 7.35 4.08 8.72 3.77 9.45c1.13 3.2 2.17 6.54 2.96 9.91l.27 1.22c.07.35.49.56.81.47.36-.1.54-.47.47-.81-.73-3.35-1.69-6.66-2.8-9.91l-3.79-9.75-4.08-8.87-3.81-7.59-2.94-5.82-.27-.56c-.16-.32-.62-.41-.91-.24-.33.19-.39.58-.24.91Zm19.97 14.87c-.53-2.74-1.22-5.45-2.08-8.1-.11-.35-.47-.56-.81-.47-.33.1-.57.48-.47.81.85 2.66 1.54 5.36 2.08 8.1.07.36.49.55.81.47.37-.1.54-.47.47-.81Z"/><path class="cls-13" d="m21.37 126.49.58 4.55s1.3.23 2.48.23l7.6-.47-.06-4.31H21.36Z"/><path class="cls-13" d="M21.34 126.49h.03v-.01l-.03.01zM107.37 95.43h.01c-2.84 1.3-5.97 1.8-9.08 1.79-1.6 0-3.19-.13-4.77-.37l-4.51-.87c-1.48-.38-2.85-.9-3.95-1.91-.26-.24-.68-.26-.94 0-.25.25-.26.69 0 .94.17.16.36.29.54.43l-.42.49-1.08 3.93c-.52.07-.83.8-.32 1.17l-.19.71-.7 11.1-2.36 21.06-3.07 26.3-.63 6.74-1.07 27.27 6.69 1.49c2.85.63 5.76.87 8.68.72l3.85-.21-.19-21.43 2.23-26.58c.37-2.89 1.85-13.12 2.51-16.77.66-3.65 3.1-15.96 3.59-18.14l2.02-8.82.3-.66c.38-.13.47-.49.36-.8l2.88-6.31c.1-.05.21-.08.31-.13.32-.16.41-.62.24-.91-.19-.33-.58-.39-.91-.24ZM109.75 64.75l-.11 4.37-.17 6.58-.02 2.52v11.67c0 .86 1.32.86 1.32 0v-13.7l.17-6.17.13-5.18v-.08c.02-.86-1.31-.86-1.32 0Z"/><path class="cls-13" d="M110.87 57.67c.46-.52.95-1.02 1.48-1.47.06-.06.13-.11.19-.17.02-.02.19-.16.1-.08.14-.11.3-.2.45-.3.32-.18.69-.29 1.06-.26.6.04 1 .43 1.29.93.35.6.47 1.29.5 1.97.08 1.86-.2 3.71-.93 5.43-.19.44-.39.99-.76 1.32-.08.07-.13.08 0 0-.06.04-.12.08-.18.13-.16.11-.31.19-.48.27-.02 0-.19.08-.11.05s-.08.02-.12.04c-.12.05-.25.07-.37.11-.06.01-.18.02-.05 0-.07 0-.13 0-.2.01s-.14 0-.2 0c-.04 0-.13-.02.02 0-.04 0-.07 0-.11-.02a.83.83 0 0 1-.21-.06c-.02 0-.06-.02-.08-.02-.07-.02.08.05-.04-.01l-.21-.12-.13-.08c-.33-.26-.57-.6-.79-.94-.44-.73-1.59-.06-1.15.67.47.78 1.09 1.44 1.95 1.77.6.23 1.28.2 1.89 0 .44-.14.86-.36 1.24-.63.4-.31.73-.7.95-1.16 1.03-1.92 1.47-4.15 1.43-6.31-.02-1.73-.49-3.83-2.3-4.52-1.04-.39-2.21-.05-3.06.61-.73.56-1.39 1.19-1.99 1.89-.24.27-.26.67 0 .94.24.24.7.27.94 0l-.02.04Z"/><path class="cls-13" d="M110.23 59.63c.33-.84.51-1.73.63-2.61.19-1.41.17-2.85-.16-4.25-.21-.92-.56-1.8-1.03-2.63-.42-.74-1.56-.07-1.15.67.88 1.58 1.21 3.35 1.1 5.16-.05.73-.12 1.26-.3 1.99-.11.44-.23.88-.41 1.31-.13.33.14.73.47.81.38.11.68-.13.81-.47h.02ZM31.57 125.68c-3.56.38-7.15.31-10.72.25-.86-.01-.86 1.31 0 1.32l10.72-.25c.36-.04.67-.27.67-.67 0-.33-.31-.7-.67-.67Z"/><path class="cls-13" d="M31.04 126.7c.27 1.35.45 2.61.54 3.97.02.35.29.68.67.67.35-.01.69-.3.67-.67-.1-1.46-.3-2.9-.58-4.33-.07-.35-.49-.57-.81-.47-.36.12-.54.45-.47.81h-.01Z"/><path class="cls-13" d="M31.69 130.22c-.36.17-.79.19-1.18.23l-1.19.07-2.63.04-5.22-.2c-.36-.02-.67.32-.67.67 0 .38.31.64.67.67l5.41.2 2.7-.05c.9-.05 1.89-.07 2.76-.45.33-.14.41-.62.24-.91-.2-.33-.58-.38-.91-.24l.02-.02Z"/><path class="cls-6" d="M64.05 182.31c-.17.01-.36.06-.47.19l-.95 1.04c-.12.13-.19.29-.19.47 0 .17.07.36.19.47.12.11.3.2.47.19.17 0 .34-.07.47-.19h-.01l.95-1.04c.06-.06.11-.13.14-.21.04-.08.06-.17.06-.25 0-.17-.07-.36-.19-.47-.12-.11-.3-.2-.47-.19ZM153.29 137.63c-.06-1.81-1.15-11.49-1.69-13.64-.2-.81-2.06-8-3.96-11.04-1.66-2.66-5.14-6.38-7.61-8.15-2.42-1.73-6.54-3.75-8.1-4.4-1.5-.62-3.09-1-3.32-1.06l-8.09-3.25c0-.3-.17-.58-.47-.66l-3.29-1.22 4.55-10.96c.14-.33-.14-.73-.47-.81-.31-.09-.56.06-.72.3l-11.82-.1-.6 4.8-.63 3.31-3.02 12.35-.41.89s-.06.08-.08.14v.04c-1.15 3.44-2.05 6.95-2.89 10.48-1.06 4.55-1.98 9.13-2.79 13.72-.92 5.18-1.69 10.38-2.36 15.6a276.73 276.73 0 0 0-1.59 15.87c-.35 4.96-.56 9.94-.5 14.91 0 .54.01 1.09.03 1.63 0 .02-.01.03-.01.05h.01l-.05 7.14-.05 8.63v3.58c0 .46.38.67.74.63v.04l8.97 1.61c1.95.35 3.91.55 5.88.58h.3c6.59 0 19.39-4.3 21.92-6.21 1.86-1.41 1.06-5.45.21-9.75-.78-3.95-1.58-8.04-.08-9.42 5.32-4.89 7.91-8.15 12.61-14.07l1.23-1.54c2.74-3.45 8.09-11.92 8.14-12.01l.05-.08v-.1c0-.06.02-6.06-.04-7.82Z"/><path class="cls-6" d="m130.52 172.05-5.85-4.19c-.3-.19-.73-.06-.91.24-.19.32-.06.72.24.91l5.57 3.99c.29.23.67.27.94 0 .23-.23.29-.72 0-.94ZM85.05 93.72l-.09-7.19-.1-1.95-2.23-1.97-.34.05a.725.725 0 0 0-.53-.29c-.63-.02-1.26.05-1.89.18l-.76.17-.45.08s-.13.01-.06 0-.05 0-.06 0c-.1 0-.19.02-.29.02-.35.02-.68.29-.67.67 0 .07.02.14.05.2v.01l2.29 9.4-5.44 2.34-2 2.5a.496.496 0 0 0-.27.01h.01c-2.49.81-4.88 1.98-7.09 3.41-2.21 1.43-4.33 3.17-6.11 5.17a23.598 23.598 0 0 0-4.34 7.09c-1.09 2.82-1.43 5.87-1.67 8.85-.11 1.31-.07 2.64-.04 3.96l.06 3.49-2.95-6.25-4.11-8.23c.09-.16.13-.36.09-.53-.11-.38-.47-.51-.81-.47-6.32.86-12.67 1.54-19.03 2.03l-5.37.37c-.36.02-.67.29-.67.67 0 .23.15.45.35.57.08 1.76.33 7.17.53 9.06.23 2.1 2.35 16.68 4.01 22.58 1.3 4.58 3.78 8.77 5.97 12.47l1.71 2.94c1.69 3.03 5.45 6.3 8.2 8.68 1.18 1.03 2.21 1.92 2.72 2.49 1.79 2.02 5.6 4.38 7.55 4.98 1.37.44 2.72.93 4.05 1.48 2.09 4.42 5.33 8.17 9.39 10.88l.37.26h.07c2.74.43 5.54.66 8.32.66h3.2c.1.02.19.02.29 0 .37-.1.54-.47.47-.81-.94-4.64-1.67-9.33-1.69-14.08 0-.63 0-1.25.05-1.89 0-.04-.02-.08-.02-.12.14-1.65.29-3.46.43-5.29 0-.02.01-.03.01-.05.66-9.19 1.67-18.33 2.77-27.47l3.23-27.32 1.37-15.48s-.01-.08-.02-.12c.43-2.54 1.05-5.05 1.88-7.49.1-.28-.07-.59-.32-.74Z"/><path class="cls-2" d="M167.78 32.99c-.05-.19-.85-2.08-2.42-4.5s-.06-.13-.06-.2l-.16-3.95c-.02-.27-.24-.49-.5-.55l-1.85-.41h-.05c-.21-.02-.42.14-.43.36l-.06.64s-.01.02-.02.02h-.01a25.326 25.326 0 0 0-3.5-3.22 1.67 1.67 0 0 0-.9-.37c-.33-.04-.66.03-.95.19-6.85 3.34-11.04 9.46-11.21 9.81-.05.08-.08.17-.08.26-.02.29.15.56.42.67l1.83.54c.24.09.4.33.41.58-.01.33-.39 7.7-.14 9.64.04.29.28.51.57.54h.01l3.15.25h.08c.12 0 .21-.07.23-.19l.14-3.66v-.13c0-.13-.06-.26-.16-.33-.54-.4-.84-1.05-.81-1.72.16-2.58.41-5.55.78-7.86.04-.19.2-.33.41-.31.2.01.36.2.35.41v.02c-.25 1.54-.43 3.37-.58 5.18a.447.447 0 0 0 .89.07c.14-1.83.33-3.66.58-5.22.04-.19.2-.33.41-.31.2.01.36.2.35.41v.02c-.24 1.53-.43 3.35-.57 5.16-.02.24.17.45.41.48.24.02.46-.16.48-.4.14-1.81.33-3.65.58-5.18.04-.19.2-.33.41-.31.2.01.36.2.35.41v.02c-.36 2.24-.6 5.11-.75 7.63v.08c-.07.68-.48 1.25-1.04 1.56-.1.06-.18.16-.19.27 0 0-.08.38-.1 2.27v1.65c0 .1.07.18.18.19.06 0 .12.01.18.01l1.11.11h.14l1.4.16 1.05.12c.1 0 .19-.06.21-.16.47-2.21.64-3.46.64-3.46 0-.11-.07-.2-.18-.24l-1.26-.3c-.2-.06-.31-.19-.33-.35-.01-.1 0-.2 0-.2 1.25-7.41 3.96-9.68 3.96-9.68.08-.07.13-.1.13-.1.07-.04.16-.06.24-.05.17.01.3.13.35.29 0 0 .01.06.01.18-.02 2.36-.51 6.35-.95 9.44l-.72 4.69c0 .08.05.16.14.17l2.11.25h.01c.3.04.56-.14.67-.42.63-1.86 1.71-9.15 1.75-9.48.06-.26.26-.45.51-.5l1.9-.18c.29-.05.52-.28.55-.57 0-.1 0-.19-.04-.27l-.04.04Zm-53.51 102.17c-.04-.13-.57-1.5-1.66-3.27s-.05-.1-.05-.14c.06-1.69-.05-2.84-.05-2.84-.01-.19-.17-.36-.35-.41l-1.32-.32h-.04a.29.29 0 0 0-.32.25l-.06.47s0 .01-.02.01a19.16 19.16 0 0 0-2.46-2.37c-.18-.15-.4-.25-.63-.29-.24-.03-.48 0-.69.12-4.98 2.28-8.09 6.61-8.22 6.85s-.06.12-.07.19c-.02.21.1.42.29.49l1.3.42c.17.07.29.24.29.43-.02.24-.42 5.51-.26 6.92.02.2.19.37.41.39l2.27.24h.06c.08 0 .16-.05.17-.13l.17-2.63v-.1c0-.1-.04-.19-.11-.24-.37-.29-.6-.75-.56-1.24l.69-5.63c.02-.14.16-.24.3-.21.14.01.25.14.24.3v.02l-.5 3.71c-.02.18.11.33.29.35.18.02.33-.11.35-.29l.51-3.74c.02-.14.16-.24.3-.21.14.01.25.14.24.3l-.5 3.71c-.02.18.11.33.29.35.18.02.33-.11.35-.29l.51-3.71c.02-.14.16-.24.3-.21.14.01.25.14.24.3-.3 1.63-.51 3.69-.67 5.49v.04c-.05.48-.34.9-.76 1.12-.08.04-.13.11-.14.19 0 0-.07.27-.11 1.62l-.02 1.18c0 .07.05.13.12.14s.08 0 .13.01l.8.1h.1l1 .14.75.1c.07 0 .14-.04.16-.11l.53-2.48c0-.08-.05-.16-.12-.17l-.91-.24a.349.349 0 0 1-.24-.26v-.14c1.03-5.3 3.02-6.87 3.02-6.87.06-.05.1-.06.1-.06.05-.02.11-.04.17-.04.12.01.21.11.24.21v.13c-.06 1.69-.48 4.55-.85 6.77l-.6 3.35c0 .06.04.12.1.12l1.52.21c.21.02.41-.1.49-.29.49-1.32 1.38-6.54 1.42-6.78.05-.18.19-.32.38-.35l1.36-.1c.2-.02.37-.19.41-.41 0-.07 0-.14-.02-.2h.01Z"/><path class="cls-6" d="M120.8 168.24c-1.41-1.53-2.05-3.75-1.77-5.8.18-1.25.72-2.42.74-3.7.02-1.37-.48-2.67-.75-3.99-.55-2.59-.42-5.26-.21-7.88l.69-8.27.7-8.39.75-7.7c.35-2.55.8-4.88 1.58-7.22.68-2.04 1.56-4.01 2.97-5.66 2.71-3.14 6.78-5.18 10.94-5.16.51 0 1.03.04 1.54.11.36.05.72-.08.81-.47.08-.31-.11-.76-.47-.81-4.52-.62-9.08 1-12.45 4.05a14.88 14.88 0 0 0-3.72 5.19c-1.03 2.36-1.69 4.86-2.15 7.39s-.72 5.2-.94 7.83l-.72 8.46-.72 8.58c-.24 2.86-.51 5.55-.23 8.31.07.7.18 1.42.33 2.11.14.66.35 1.3.49 1.96.14.66.24 1.26.17 1.92-.07.66-.26 1.26-.43 1.89-.61 2.3-.38 4.75.85 6.83.29.49.63.94 1.03 1.36.58.63 1.52-.31.94-.94h.01Z"/><path class="cls-13" d="m84.09 85.36.69 11.07c.05.36.5.55.81.47.38-.11.51-.47.47-.81-.51-3.56-.54-7.14-.64-10.73-.02-.86-1.35-.86-1.32 0Z"/><path class="cls-13" d="M80.56 40.28c-1.62 1.92-2.88 4.12-3.66 6.52-.79 2.4-1.17 5.13-1.35 7.76l-.42 7.26c-.11 2.42-.12 4.88.25 7.28l.75 3.79c.44 1.68 1.13 3.31 1.97 4.83 1.01 1.85 2.21 3.65 3.54 5.29 1.11 1.35 2.47 2.4 4.11 3.03s3.46.86 5.2.67c1.74-.19 3.71-.68 5.2-1.77.38-.29.75-.6 1.06-.97.24-.27.26-.67 0-.94-.24-.24-.7-.27-.94 0-.27.31-.61.62-.88.81-.36.26-.75.48-1.16.67-.69.32-1.6.58-2.42.74l-1.12.16c-.36.04-.72.05-1.06.05-.82 0-1.65-.14-2.43-.35-.88-.23-1.58-.5-2.34-.97l-.45-.3-.23-.17c.08.06-.13-.11-.17-.13-.29-.24-.56-.5-.82-.78-.58-.62-.98-1.15-1.46-1.8l-1.89-2.84c-.94-1.58-1.68-3.09-2.22-4.8-.36-1.16-.57-2.35-.79-3.54-.38-2.1-.49-4.19-.44-6.31l.37-6.98c.13-2.47.3-4.94.87-7.36.57-2.42 1.48-4.55 2.85-6.53.31-.45.66-.9 1.01-1.31.23-.27.27-.67 0-.94-.24-.24-.7-.27-.94 0v-.06Z"/><path class="cls-6" d="m123.42 125.23-3.93 8.43-.97 2.17c-.14.33-.1.72.24.91.29.17.76.1.91-.24l3.87-8.45 1.03-2.15c.16-.32.08-.72-.24-.91-.29-.17-.75-.08-.91.24Z"/><path class="cls-13" d="m20.17 126.68.53 4.39c.05.35.5.56.81.47.38-.12.53-.45.47-.81l-.48-4.03c-.04-.35-.29-.68-.67-.67-.33.01-.69.3-.67.67h.01Z"/><path class="cls-13" d="m21.02 127.04.08 1.71c.04.57.07 1.16.27 1.69.12.32.45.58.81.47.32-.11.6-.47.47-.81-.05-.13-.08-.26-.12-.39l-.04-.18s-.04-.21-.01-.06c-.04-.25-.05-.51-.06-.78l-.08-1.65c-.01-.35-.3-.68-.67-.67-.35.01-.68.3-.67.67h.01Zm63.27-65.99c-.16 1.73-.79 3.38-1.28 5.04-.23.78-.5 1.6-.5 2.41 0 .93.47 1.66 1.34 1.98.47.18 1 .24 1.49.3.53.06 1.07.07 1.6.02.36-.02.67-.29.67-.67 0-.35-.31-.69-.67-.67a9.5 9.5 0 0 1-1.6-.02c-.39-.05-.93-.08-1.26-.32-.25-.18-.25-.44-.24-.75.02-.41.16-.87.27-1.29.55-2 1.31-3.94 1.52-6.03.04-.36-.33-.67-.67-.67-.38 0-.63.31-.67.67Z"/><path d="M84.65 75.42c.66-.63 1.62-.74 2.51-.75 1.15 0 2.28.13 3.37.53.33.12.73-.14.81-.47.11-.37-.13-.69-.47-.81-1.23-.45-2.58-.61-3.89-.57-1.18.04-2.4.29-3.27 1.13-.61.6.32 1.54.94.94Z" style="fill:#b7957e"/><circle class="cls-13" cx="79.27" cy="60.05" r=".99"/><circle class="cls-13" cx="95.76" cy="60.05" r=".99"/><path class="cls-4" d="M178.39 140.83c-.72-3.01-1.85-5.94-3.45-8.59-.44-.73-1.59-.06-1.15.67 2.83 4.7 4.06 10.18 4.32 15.62.3 6.04-.51 12.1-1.86 17.98-.79 3.44-1.78 6.83-2.91 10.17-.12.33.13.73.47.81.37.1.7-.12.81-.47 2.05-6.04 3.63-12.24 4.4-18.58.72-5.85.74-11.86-.63-17.61Z"/><path class="cls-1" d="M55.16 88.93c-.17-.26-.42-.45-.79-.45-.57-.13-1.17 0-1.73.2-.58.21-1.15.5-1.66.84-.07.05-.13.08-.18.13a8.53 8.53 0 0 0-2.34 2.52l-.2.35s-.04.08-.05.12l-.29.61c-.1.19-.21.36-.38.53l-4.61 2.21c-.53-.95-1.1-2.65-.93-5.32.29-4.65 1.22-6.55 1.15-7.82-.08-1.25.63-5.35.69-6.12.16-2.34-.07-4.2-.1-5.99 0-.68-.4-1.31-1.01-1.6l-.07-.04c-.79-.39-1.78-.16-2.3.63-.17.25-.25.54-.29.82l-.55 4.94-.74 4.69-1.13 4.93c-.07.32-.33.55-.66.58-.36.04-.68-.19-.81-.53l-.1-.25c-.05-.12-.06-.26-.05-.39l.94-6.21V67.09c0-.58-.23-1.15-.68-1.52-.84-.69-2.05-.55-2.7.27l-.05.06c-.24.3-.38.66-.41 1.04l-.41 5.11-.51 5.3-.45 6.81c0 .06-.01.13-.04.19-.18.43-.67.61-1.07.41l-.18-.1a.686.686 0 0 1-.1-.37l.08-1.36c.11-1.66.06-3.33-.13-4.99l-.44-3.81-.18-5.66c-.02-.62-.35-1.18-.88-1.5l-.42-.25a1.8 1.8 0 0 0-1.99.07c0 .01-.51.61-.68 1.44-.3 1.44-.1 5.86-.1 5.86l-.02 3.75.43 5.41.35 2.1c.02.16 0 .33-.06.48l-.18.41c-.21.5-.87.68-1.32.31a.746.746 0 0 1-.21-.29l-1.53-3.08-.86-3.04-.94-3.93c-.07-.67-.54-1.24-1.22-1.44-.8-.24-1.66.19-2.03.94v.02c-.19.36-.24.75-.14 1.12l1.59 7.09 1.61 5.41c0 .06-.7 4.99-.51 7.42.19 2.45 1.16 10.94 2.92 13.56.12.18.27.35.42.51l.4 4.55.06 1.9 17.2-1.9h.01c-.06-.22-.84-4.17-1.16-5.76.07-.07.16-.14.23-.22.63-.67 1.16-1.43 1.73-2.16.8-1.01 1.71-1.95 2.69-2.78.66-.35 1.24-.84 1.71-1.42.55-.54.95-1.23 1.34-1.93l-.37.48.35-.5 3.08-3.94c.44-.44.86-.91 1.15-1.42l3.07-5.54c.06-.2.1-.38.08-.54-.01-.29-.14-.54-.33-.74Z"/><path class="cls-13" d="M24.78 119.37c-.33 0-.6-.24-.66-.56l-1.26-8.22c-2.09-3.33-2.94-13.65-2.95-13.75-.18-2.28.38-6.56.5-7.42l-1.58-5.26v-.05l-1.59-7.09c-.12-.53-.05-1.09.19-1.56v-.04c.5-.99 1.56-1.53 2.61-1.32 1 .2 1.77 1 1.9 2.02l.93 3.88.85 2.97L25.21 86l.05.07s.11.06.17.05c.02 0 .1-.02.12-.11l.18-.41s.02-.07.01-.1l-.35-2.1c-.17-1.03-.21-2.04-.26-3.02-.04-.79-.07-1.59-.17-2.42v-.08l.02-3.72c-.01-.36-.2-4.53.11-6.01.14-.64.42-1.23.84-1.74.04-.04.07-.08.12-.11.81-.57 1.89-.61 2.73-.1l.42.25a2.47 2.47 0 0 1 1.19 2.04l.18 5.63.44 3.78c.2 1.69.25 3.4.14 5.11l-.07 1.19s.05-.02.06-.06l.45-6.8.51-5.31.41-5.1c.04-.51.23-.99.55-1.4l.05-.06c.8-.99 2.2-1.25 3.31-.61.78.45 1.26 1.3 1.26 2.21v11.37l-.94 6.21v.05l.1.26s.07.1.1.1c.06 0 .1-.04.11-.07l1.13-4.9.74-4.65.55-4.93c.05-.42.18-.8.39-1.11a2.47 2.47 0 0 1 3.15-.86l.07.04c.83.4 1.37 1.25 1.37 2.17 0 .57.04 1.17.07 1.79.06 1.25.13 2.66.02 4.28-.06.54-.13 1.08-.21 1.62-.2 1.44-.53 3.63-.48 4.42.04.61-.11 1.28-.31 2.2-.27 1.26-.67 3-.82 5.69-.12 2.05.2 3.47.58 4.4l3.9-1.87c.07-.08.13-.17.18-.26.08-.2.18-.41.29-.62l.05-.11c.06-.12.13-.26.24-.42.63-1.06 1.5-1.99 2.51-2.7.06-.05.13-.1.23-.16.56-.37 1.17-.68 1.79-.91.5-.18 1.25-.39 2.04-.24.5.02.93.27 1.23.72.29.32.44.7.47 1.1.01.21-.01.44-.1.72-.1.47-.7 1.56-2.34 4.34l-.81 1.38c-.27.48-.66.97-1.22 1.52-.49.69-3.59 5.02-4.43 5.88-.53.63-1.07 1.1-1.83 1.53-.94.8-1.79 1.69-2.54 2.65l-.5.64c-.39.53-.8 1.06-1.28 1.56-.19.2-.41.41-.62.6-.94.84-2 1.47-3.07 1.84-.26.13-.58.21-.95.26-.23.05-.44.07-.64.1-.36.04-.69-.24-.72-.61s.24-.69.61-.72c.17-.01.35-.04.53-.08h.06c.23-.02.42-.07.56-.14l.1-.05c.91-.31 1.83-.86 2.65-1.6.19-.17.37-.34.54-.53.42-.44.79-.93 1.17-1.44.17-.23.33-.45.51-.67.82-1.04 1.75-2 2.78-2.88l.11-.07c.63-.36 1.09-.73 1.52-1.25.01-.01.02-.04.05-.05.62-.63 3.35-4.39 4.34-5.79.02-.04.05-.06.07-.08.49-.49.81-.88 1.04-1.28.19-.35.49-.85.82-1.41.72-1.22 2.04-3.47 2.17-3.93 0-.04 0-.06.02-.1.06-.18.06-.26.06-.29 0-.13-.1-.25-.16-.32-.02-.04-.05-.06-.07-.1-.08-.13-.17-.14-.24-.16-.05 0-.1 0-.14-.01-.35-.08-.78-.02-1.35.18-.53.19-1.04.45-1.52.76-.06.04-.11.07-.14.1 0 0-.02.01-.02.02-.86.61-1.61 1.41-2.15 2.32l-.02.04-.16.25-.05.11s0 .02-.01.04c-.1.19-.18.38-.26.56 0 .02-.01.04-.02.06-.13.26-.3.49-.5.69a.44.44 0 0 1-.18.12l-.06.02-.11.14s-.04.04-.06.05l-.04.02c-.45.31-1.29.69-2.32 1.13l-1.24.56c-1.56.7-3.94 1.78-4.26 2.03-.26.25-.68.24-.93-.04a.673.673 0 0 1 .02-.94c.5-.49 1.6-1.03 3.2-1.71-.45-1.09-.85-2.72-.7-5.04.17-2.8.57-4.59.86-5.91.18-.81.31-1.41.29-1.83-.05-.85.19-2.63.49-4.69l.2-1.52c.11-1.54.04-2.85-.02-4.12-.04-.61-.06-1.22-.07-1.84 0-.43-.25-.81-.63-1l-.07-.04c-.52-.26-1.14-.08-1.46.41-.1.16-.16.34-.18.53l-.55 4.94v.04l-.74 4.69v.05l-1.13 4.93c-.16.66-.73 1.11-1.4 1.11-.57 0-1.11-.38-1.32-.94l-.1-.26c-.08-.23-.12-.48-.08-.73l.93-6.16V67.04c0-.43-.23-.85-.61-1.06-.53-.31-1.21-.18-1.59.29l-.05.06c-.16.19-.25.42-.26.67l-.41 5.11-.51 5.31-.45 6.8c-.01.19-.07.38-.17.55-.38.67-1.21.93-1.91.6l-.18-.1a.809.809 0 0 1-.27-.25c-.14-.23-.21-.5-.19-.76l.08-1.36c.11-1.62.06-3.26-.13-4.87l-.44-3.81v-.06l-.18-5.66c0-.39-.22-.76-.56-.95l-.42-.25c-.37-.23-.83-.23-1.19 0-.11.16-.38.56-.49 1.07-.23 1.12-.13 4.5-.08 5.7v.04l-.02 3.7c.1.86.14 1.68.18 2.47.05.99.08 1.92.24 2.86l.35 2.1c.05.29 0 .58-.11.85l-.18.41a1.517 1.517 0 0 1-2.36.56c-.16-.14-.3-.31-.39-.5l-1.53-3.08s-.04-.07-.05-.11l-.86-3.04-.94-3.95s0-.06-.01-.08a1.05 1.05 0 0 0-.84-.91c-.44-.08-.92.17-1.13.61v.04c-.12.21-.16.46-.11.69l1.59 7.06 1.61 5.38c.02.1.04.19.02.29 0 .05-.69 4.93-.51 7.28.26 3.35 1.29 10.99 2.8 13.25.06.08.1.18.11.27l1.29 8.37c.06.36-.19.7-.56.76h-.11l-.1-.05Z"/><path class="cls-13" d="M41.56 117.67c-.31 0-.58-.21-.64-.53l-1.48-7.03c-.07-.36.16-.72.51-.79.36-.07.72.16.79.51l1.48 7.03c.07.36-.16.72-.51.79-.05 0-.1.01-.14.01Z"/></g><g id="Outline"><path class="cls-2" d="M73.62 149.66c.15.01.56-2.79.9-7.36.34-4.56.55-10.89.35-17.88-.21-6.99-.79-13.29-1.4-17.83-.6-4.54-1.17-7.31-1.33-7.29-.18.02.1 2.84.48 7.38s.83 10.82 1.04 17.77c.2 6.95.12 13.24 0 17.8-.12 4.56-.22 7.38-.05 7.4Z"/><path d="M104.11 102.44c-.06-.17-1.15.11-2.9.41s-4.19.57-6.89.44c-1.35-.07-2.62-.23-3.77-.43-1.14-.23-2.18-.45-3.02-.72-1.7-.5-2.74-.93-2.82-.77-.07.13.84.84 2.54 1.57.84.38 1.9.7 3.08 1 1.19.27 2.53.47 3.94.54 2.83.14 5.38-.28 7.14-.81 1.77-.53 2.76-1.1 2.71-1.24Z" style="fill:#c69ada"/><path class="cls-2" d="M63.6 155.08c.31-.05.39-1.77 0-4.5-.19-1.37-.52-2.98-.98-4.74-.48-1.76-1.1-3.67-1.88-5.63-.79-1.95-1.67-3.76-2.55-5.36-.89-1.59-1.77-2.98-2.58-4.1-1.62-2.24-2.86-3.42-3.12-3.24-.57.41 3.01 6.04 6.01 13.6 3.06 7.53 4.38 14.07 5.08 13.97ZM63.93 168.11c-.19.02-.16 1.04-.39 2.61-.06.39-.13.82-.24 1.27-.09.46-.25.93-.39 1.43a18.3 18.3 0 0 1-1.38 3.08c-.61 1.03-1.31 1.95-2 2.73-.36.37-.69.75-1.05 1.05-.33.33-.67.59-.98.84-1.25.98-2.15 1.45-2.08 1.63.05.13 1.09-.07 2.56-.93.36-.22.76-.47 1.15-.78.41-.29.79-.66 1.2-1.04.79-.8 1.57-1.77 2.24-2.89.65-1.13 1.1-2.29 1.4-3.37.13-.55.26-1.07.31-1.56.08-.49.1-.96.11-1.38.02-1.7-.32-2.7-.46-2.68ZM143.61 149.27c.1-.1-.29-.75-1.43-1.45-1.12-.71-3.1-1.25-5.47-.99-4.76.39-10.84 4.43-13.73 11.09a19.58 19.58 0 0 0-1.44 5.04c-.24 1.69-.23 3.34-.04 4.88.39 3.09 1.48 5.71 2.68 7.69 1.21 1.98 2.55 3.32 3.53 4.13.49.41.91.68 1.22.83.3.16.48.21.53.15s-.02-.24-.22-.51-.5-.64-.87-1.12c-.74-.97-1.79-2.37-2.71-4.29-.92-1.91-1.74-4.33-1.97-7.09-.24-2.75.19-5.82 1.47-8.73 1.27-2.92 3.21-5.36 5.33-7.12 1.07-.88 2.17-1.61 3.25-2.15 1.09-.54 2.18-.89 3.19-1.1 2.03-.42 3.73-.21 4.83.16 1.11.36 1.7.74 1.82.6Z"/><path class="cls-2" d="M136.72 162.5c.36.07.85-1.39 1.88-3.54.13-.27.27-.55.41-.84.14-.29.32-.58.49-.88.32-.62.73-1.24 1.14-1.9.87-1.29 1.9-2.66 3.13-3.97a32.44 32.44 0 0 1 3.77-3.36c.64-.45 1.23-.9 1.83-1.25.3-.18.57-.38.85-.54.28-.16.55-.31.81-.46 2.08-1.16 3.5-1.74 3.42-2.1-.06-.29-1.68-.29-4.11.54-.3.11-.62.23-.95.35-.33.13-.65.3-.99.46-.69.31-1.38.73-2.12 1.17a23.92 23.92 0 0 0-4.27 3.54 24.04 24.04 0 0 0-3.27 4.48c-.39.76-.78 1.47-1.04 2.18-.14.35-.29.69-.4 1.02-.1.34-.2.66-.29.97-.69 2.48-.59 4.09-.29 4.14Z"/><path class="cls-2" d="M128.93 140.31c.08.17 1.38-.4 3.55-.91 2.16-.52 5.26-.88 8.59-.32s6.15 1.9 8.02 3.09c1.89 1.19 2.93 2.15 3.06 2.01.11-.1-.73-1.29-2.58-2.71-1.83-1.42-4.76-2.99-8.31-3.58-3.55-.59-6.83-.07-9.02.69-2.21.75-3.39 1.61-3.32 1.73ZM118.28 139.61c.32.1 1.56-2.89 2.77-6.69 1.21-3.79 1.94-6.95 1.62-7.05-.32-.1-1.56 2.89-2.77 6.69-1.21 3.79-1.94 6.95-1.62 7.05ZM147.64 112.95c.15-.06.15-.54-.14-1.34-.28-.79-.9-1.89-1.97-2.98-1.07-1.1-2.53-2.15-4.39-2.96-1.85-.8-4.09-1.27-6.44-1.17-2.35.13-4.54.84-6.29 1.86-1.76 1.02-3.07 2.35-3.93 3.6-.11.15-.22.3-.32.45-.09.16-.17.31-.26.46-.16.3-.32.58-.45.84-.25.54-.41 1.03-.52 1.43-.21.81-.18 1.29-.03 1.34.16.05.44-.31.88-.95.22-.32.49-.7.82-1.13.17-.21.36-.43.55-.66.09-.12.19-.24.29-.36.11-.11.23-.23.34-.35.91-.96 2.13-1.96 3.67-2.72 1.53-.76 3.37-1.3 5.35-1.4 3.98-.2 7.48 1.41 9.57 3 2.12 1.59 2.89 3.19 3.23 3.05Z"/><circle cx="112.61" cy="63.26" r="1.53" style="fill:#bf7326"/></g></svg>