<svg xmlns="http://www.w3.org/2000/svg" viewBox="0 0 200 200"><defs><style>.cls-2{fill:#f96800}.cls-3{fill:#f2a6b0}.cls-4{fill:#f6c243}.cls-6{fill:#fff}.cls-8{fill:#ffd066}.cls-11{fill:#ff8000}.cls-13{fill:#c1dade}.cls-14{fill:#afcbcd}.cls-16{fill:#d0aa8c}.cls-17{fill:#c64528}.cls-20{fill:#70486d}.cls-21{fill:#5b3d5b}.cls-22{fill:#78577a}.cls-23{fill:#79db6b}</style></defs><path d="M8.88 105.07C25 223.08 250.46 164.96 181.14 58.62c-21.5-21.8-56.43-22.59-81.91-8.39C62.18 32.45 7.84 62.57 8.88 105.07Z" style="fill:#efedea" id="BG_Strong"/><g id="Illustrations"><g id="Confetti"><path class="cls-11" d="M138.36 53.2c-.06-.02-.15-.07-.21-.07l.16.07s-.09-.04-.13-.07c-.12-.06-.25-.2-.38-.24l.14.11s-.08-.06-.11-.1c-.05-.05-.11-.1-.16-.16s-.1-.11-.15-.17c-.08-.1-.06-.08.06.08l-.09-.12c-.08-.12-.15-.26-.22-.39-.13-.24.09.28.01.03-.02-.07-.05-.14-.07-.21s-.04-.14-.05-.22v-.07c-.04-.13-.03-.1 0 .12.02-.16-.01-.36 0-.52 0-.27-.07.3 0 .04.02-.07.03-.14.05-.22s.05-.14.07-.21c.08-.25-.14.26-.01.03.07-.13.14-.26.22-.39l.04-.06c.08-.11.06-.08-.06.08.07-.05.13-.16.2-.22l.16-.16.06-.05c.1-.08.08-.07-.08.06.13-.05.25-.17.37-.24.05-.03.16-.06.2-.1l-.16.07s.09-.04.14-.05l.21-.06c.05-.01.1-.02.14-.03.13-.02.1-.02-.09 0 .14-.07.44-.02.59-.02.2 0 .4.02.6.03.5.02.98 0 1.48-.08.78-.14 1.51-.56 2.1-1.08 1.24-1.09 1.72-2.84 1.29-4.41-.21-.77-.63-1.52-1.22-2.07-.3-.29-.66-.53-1.01-.74-.15-.09-.3-.18-.45-.28-.07-.04-.16-.09-.22-.15.14.11.16.12.05.03a.573.573 0 0 1-.11-.11c-.03-.03-.12-.16-.15-.17l.1.14-.09-.12c-.04-.06-.08-.13-.12-.2l-.04-.07c-.06-.12-.05-.09.03.09-.01-.14-.11-.3-.14-.43l-.02-.07c-.02-.14-.02-.1 0 .11.01-.09-.02-.21-.02-.3v-.23c0-.27-.07.3 0 .03.02-.07.03-.15.05-.22.01-.05.08-.17.07-.22l-.07.16s.04-.09.07-.14c.04-.07.08-.13.12-.2l.04-.06c.08-.11.06-.08-.06.07.05 0 .17-.18.21-.22.03-.03.16-.11.17-.15l-.13.1s.08-.06.13-.09c.12-.08.3-.13.4-.22l-.16.07s.09-.03.14-.05c.07-.02.14-.04.22-.06h.07c.14-.04.1-.03-.11 0 .08.02.22-.01.3-.01s.21 0 .29.02c-.3-.1-.02 0 .05.01l.58.12c.45.09.91.17 1.36.15 1.59-.08 3.02-.97 3.89-2.3.96-1.46.96-3.41 0-4.86-.96-1.46-2.6-2.43-4.34-2.28-.66.06-1.29.54-1.26 1.26.03.63.56 1.32 1.26 1.26.15-.01.29-.02.44-.01.07 0 .15.02.22.02-.34 0-.17-.02-.05 0 .14.03.28.07.42.12l.07.03c.12.05.09.04-.1-.04.07.06.18.09.26.13.13.07.25.15.37.24.22.15-.22-.2-.02-.02.05.05.11.1.17.15.11.1.2.21.3.32.18.2-.16-.24-.02-.02.05.08.11.16.16.25.07.12.12.28.2.39l-.07-.17s.04.09.05.14c.02.07.05.14.07.21s.04.14.05.21v.07c.03.13.03.1 0-.12-.03.15.01.36 0 .52 0 .27.06-.31 0-.04-.01.07-.03.14-.04.21-.03.13-.12.29-.13.42l.07-.17s-.04.09-.06.13c-.03.07-.07.13-.1.19s-.08.13-.12.19c-.03.04-.05.08-.08.12-.08.11-.06.08.06-.08-.11.07-.2.23-.3.33-.05.05-.11.1-.16.15-.11.09-.23.1.03-.01-.13.05-.25.17-.37.24-.06.04-.13.07-.19.11-.04.02-.09.04-.13.06.19-.08.22-.09.1-.04-.14.05-.28.1-.42.13-.07.02-.14.03-.21.04-.26.05.31-.02.04 0h-.44c-.26 0 .28.06-.03 0-.13-.03-.26-.05-.39-.08-.87-.18-1.72-.33-2.58-.08-.76.22-1.49.67-1.99 1.28-.57.7-.9 1.53-.92 2.44-.01.79.22 1.64.67 2.29.29.41.59.72.99 1.02.3.23.64.42.96.62.05.03.19.1.22.15l-.12-.09s.08.07.12.1c.06.05.11.11.17.16.03.03.12.17.15.17l-.1-.13s.06.08.09.13c.04.07.08.13.12.2s.07.14.11.21c.06.12.04.09-.03-.09a3.745 3.745 0 0 1 .17.59v.08c.04.14.03.1 0-.11-.02.05.01.17.01.23 0 .15-.04.32-.02.46-.03-.29.03-.17 0-.03-.02.1-.05.2-.08.29l-.03.07c-.05.12-.04.09.04-.09-.04.03-.08.16-.1.2-.07.12-.2.25-.25.38l.1-.14s-.07.08-.1.11c-.03.04-.07.07-.11.11-.05.05-.11.11-.17.16-.04.03-.08.07-.12.1.16-.12.18-.14.07-.06-.13.08-.25.16-.39.23l-.07.03c-.12.05-.09.04.09-.04-.06 0-.16.06-.21.08-.11.04-.35.04-.44.1l.16-.02c-.07 0-.13.01-.2.01h-.4c-.84-.02-1.69-.11-2.5.18-1.7.63-3.01 2.27-2.96 4.13a4.437 4.437 0 0 0 3.07 4.06c.63.2 1.4-.24 1.55-.88.16-.69-.21-1.33-.88-1.55Z"/><path class="cls-13" d="M185.98 21.21c-1.62-1.73-3.32-3.35-5.59-4.18a.8.8 0 0 0-.61 0c-.21.04-.41.18-.53.46a41.58 41.58 0 0 1-6.65 10.6.9.9 0 0 0-.11 1.05c.04.22.17.43.42.58 1.11.64 2.17 1.35 3.19 2.13.11.08.24.12.37.13.32.29.83.39 1.23 0 3.07-2.92 5.98-6 8.71-9.24.49-.58.11-1.34-.43-1.53ZM31.95 32.04c-1.74.62-3.3 2.14-3.29 4.1 0 1.83 1.53 3.7 3.47 3.56.89-.06 1.67-.44 2.45-.84.16-.08.31-.16.47-.23.2-.09-.26.1 0 0 .09-.03.18-.06.28-.09.07-.02.18-.02.24-.05-.02.01-.33.03-.12.02h.11c.08 0 .18.03.25.01 0 0-.27-.06-.15-.01.05.02.12.03.18.05.2.05-.26-.13 0 0 .07.04.14.11.22.13 0 0-.2-.17-.11-.08.03.03.05.05.08.07.07.07.13.15.2.22-.23-.22-.07-.09 0 .02.04.07.07.17.12.23-.02-.02-.1-.29-.04-.09l.03.11c.02.07.07.37.05.16s0 .11 0 .17c0 .1-.01.2-.01.3 0 .15 0-.13.02-.12 0 0-.04.18-.03.17-.03.11-.06.23-.1.34-.01.04-.03.08-.05.12-.04.13.04-.09.04-.1-.05.03-.11.22-.14.28-.05.09-.1.18-.16.26-.03.05-.07.1-.1.14-.1.15-.01-.03.04-.05-.06.02-.15.18-.2.23-.07.08-.13.15-.2.22-.19.22-.38.45-.55.68-.33.46-.49.99-.53 1.54-.08.93.37 1.97 1.08 2.57.89.75 1.97 1 3.11.83.2-.03.39-.07.58-.13.1-.03.2-.07.3-.11.09-.04.68-.29.45-.19-.16.07-.01 0 .02 0 .06-.02.11-.05.17-.07.09-.03.17-.06.26-.09s.18-.04.28-.07c.16-.04-.27.02-.11.01.05 0 .1 0 .16-.01h.27c.05 0 .11.01.16.01 0 0-.28-.05-.14-.02l.27.06c.07.02.24.12.3.1-.02 0-.28-.14-.09-.03.03.02.07.04.1.05.08.04.16.09.23.14.18.11-.2-.18.02.02.08.07.15.14.22.22.03.03.05.07.08.09-.03-.02-.16-.24-.05-.06.04.07.09.13.12.2.02.04.16.33.07.14-.08-.17 0-.01 0 .04.02.05.03.1.05.15.02.08.03.2.06.27-.01-.02-.03-.32-.01-.1v.52c0 .16.06-.28 0-.06-.02.09-.04.18-.07.27-.04.12-.17.3 0 .03-.1.15-.16.33-.26.48-.2.33-.45.63-.68.93-.49.64-.93 1.35-1.06 2.16-.28 1.82.67 3.7 2.4 4.43s3.72.02 4.82-1.46c.24-.33.42-.71.54-1.1.2-.63-.24-1.4-.88-1.55-.69-.16-1.34.21-1.55.88-.02.05-.12.32-.03.11.08-.2-.02.02-.04.07-.04.07-.09.14-.13.21-.1.16.19-.2 0 0-.09.09-.26.21-.32.32 0 0 .22-.16.12-.09-.04.03-.08.05-.11.08-.07.04-.14.09-.21.13s-.15.07-.22.11c-.11.06.14-.06.14-.06-.03 0-.07.03-.1.04-.16.05-.31.08-.47.12s.29-.02.13-.02h-.31c-.06 0-.34-.03-.11 0s-.05-.01-.11-.03c-.08-.02-.16-.05-.23-.07-.12-.03.14.06.14.06-.02-.02-.07-.03-.09-.05l-.21-.12-.09-.06c-.13-.06.19.17.09.07-.11-.11-.22-.2-.33-.31-.03-.03-.06-.08-.09-.11 0 0 .15.22.09.12-.04-.07-.09-.13-.13-.21s-.08-.14-.12-.22c-.13-.24.06.21 0 .01-.05-.16-.09-.31-.13-.47-.05-.21.01.28 0 .06 0-.08-.01-.16 0-.24 0-.07.01-.14.01-.21 0-.13-.03.17-.03.16.02-.05.02-.12.03-.17.01-.07.03-.13.06-.2.01-.04.03-.07.04-.11.07-.2-.02.06-.04.08.11-.13.17-.34.27-.48.19-.3.41-.58.63-.87.48-.62.93-1.32 1.07-2.11.17-.98.05-1.95-.42-2.83s-1.24-1.45-2.13-1.81c-.8-.32-1.77-.35-2.59-.09-.19.06-.37.13-.55.21l-.3.13.13-.06s-.09.04-.13.05c-.1.04-.2.08-.3.11s-.19.06-.29.08c-.04 0-.08.02-.12.03-.13.03-.1-.05.09-.01-.07-.01-.17.01-.25.01h-.12c-.11 0-.24-.07.05.02-.17-.05-.34-.08-.51-.13-.13-.04.11.04.11.05-.01-.02-.08-.04-.11-.06-.04-.02-.07-.04-.11-.06-.19-.11.13.12.03.03-.05-.05-.11-.1-.16-.15-.19-.2.09.17-.01 0-.04-.06-.08-.13-.11-.19-.02-.04-.07-.16 0 .01.08.2 0-.01-.01-.06-.02-.07-.02-.16-.05-.22 0 0 .02.29.02.15v-.15c0-.05.02-.31 0-.09s.04-.09.05-.15c.03-.12-.04.11-.05.11.02-.01.05-.09.06-.11.03-.05.11-.24.16-.25 0 0-.16.2-.07.09.03-.03.05-.07.08-.1.07-.09.15-.17.23-.26.63-.71 1.18-1.5 1.39-2.44s.13-1.98-.37-2.85c-.45-.77-1.23-1.42-2.12-1.61-.94-.2-1.8.06-2.64.46-.32.15-.62.32-.94.47-.07.03-.14.06-.2.09 0 0 .26-.1.13-.06-.03.01-.07.03-.1.04-.17.06-.34.1-.52.14-.13.03.17-.02.16-.02h-.11c-.08 0-.17-.02-.25 0 0 0 .28.06.16.02-.03-.01-.07-.01-.1-.02l-.1-.03c-.21-.06.03-.01.08.04-.04-.04-.13-.07-.18-.1l-.09-.06c-.13-.07.2.18.09.07-.05-.05-.1-.09-.15-.14s-.24-.28-.11-.11-.01-.03-.04-.08c-.04-.07-.08-.14-.12-.22-.11-.19.08.25.02.04-.03-.09-.06-.18-.08-.27 0-.03-.01-.07-.02-.1-.03-.13.02.17.02.16.01-.08-.01-.17-.01-.25 0-.07 0-.14.01-.21 0-.13-.02.16-.02.16.02-.05.03-.13.04-.18.02-.07.04-.14.07-.22.1-.29-.1.18 0-.01.08-.15.21-.3.27-.45 0 0-.17.21-.08.11a.55.55 0 0 0 .07-.09c.06-.07.12-.13.18-.19.05-.05.11-.11.17-.16.04-.03.17-.14.02-.02s0 0 .03-.02c.14-.1.28-.18.43-.26.07-.04.14-.07.21-.1.2-.09-.07.04-.09.04.02 0 .14-.05.14-.05.62-.22 1.1-.87.88-1.55-.2-.61-.88-1.12-1.55-.88Z"/><path class="cls-3" d="M28.12 61.48c-.5-1.81-1.72-3.42-3.37-4.32-.18-.1-.36-.1-.52-.04-.16 0-.32.05-.45.18l-1.98 2.01c-.04.04-.07.09-.1.14a.18.18 0 0 0-.05.07c-.18.31-.06.67.23.86 1.03.69 2.36 1.83 1.95 3.22-.18.6-.78 1.03-1.35 1.23-.65.23-1.33.24-1.99 0-.66-.23-1.21-.74-1.55-1.36a.574.574 0 0 0-.72-.27.596.596 0 0 0-.48.18c-.77.81-1.51 1.64-2.23 2.5-.02.02-.03.04-.05.07-.17.18-.24.44-.09.72 1.69 2.96 5.54 4.33 8.69 3a7.236 7.236 0 0 0 3.55-3.29c.78-1.52.96-3.26.5-4.91Zm-9.87 3.23s.04.05.07.08l-.11-.03.04-.04Zm-.52 1.86c-.13-.03-.07-.04 0 0Z"/><path class="cls-4" d="M169.62 68.72c-.71-1.13-1.48-2.21-2.32-3.25-.16-.2-.35-.24-.52-.2-.19-.06-.39-.02-.56.19-.7.9-2.33 2.33-3.45 1.35-1.21-1.06-.12-2.64.95-3.23.24-.13.32-.34.31-.54.05-.15.04-.32-.08-.5-.47-.69-.94-1.37-1.42-2.06-.07-.32-.36-.6-.77-.52-4.33.86-5.52 6.72-3.28 10.01 1.18 1.74 3.17 2.67 5.26 2.55 2.21-.12 4.14-1.33 5.6-2.93l.03-.03c.29-.15.46-.49.24-.84Z"/></g><g id="Layer_13"><path class="cls-16" d="M84.8 77.46c-.05-.62.48-7.66.48-7.66l-.79-2.03s-2.87-2.28-4.2-3.76-4.19-4.75-5.32-8.55c-1.13-3.8-2.1-9.98-2.13-11.83s.29-8.22.29-8.22 4.47.72 6.89.12 6.42-2.9 7.29-3.3c.87-.4 9.34-.18 9.34-.18l9.66.11 7.87 10.89s-.01-4.2 0-4.32.22-1.77.22-1.77 2.04-1.81 3.16-.92 2.27 2.69 2.37 3.91c.1 1.22.22 4.45-.43 5.46-.65 1.01-1.03 2.05-1.85 2.07-.82.02-2.75-1.13-2.75-1.13s-.88 19.13-.72 20.25c.16 1.12-.15 10.55-.15 10.55s-6.53 1.47-10.98 1.7c-4.44.23-15.06-.73-15.06-.73l-3.19-.67ZM18.57 129.37c-1.12-.57-2.72-1.42-2.94-2.52-.22-1.1-.34-2.01.12-2.68.47-.67 1.05-.9 1.74-1.32.69-.42 1.92-.36 1.92-.36l-.24 2.89s1.51 1.35 1.51 2.22-.28 2.03-.73 2.03-1.38-.26-1.38-.26ZM19.68 121c-1.16-.51-3.34-1.61-4.06-2.79-.71-1.18-.4-2.46 0-3.03s2.5-.75 2.5-.75-1.73-2.4-1.68-3.74c.05-1.34.38-2.47 1.05-2.9s1.92-.96 1.92-.96-1.04-1.15-.84-2.12.42-2.42 1.53-3.09 4.04-2.26 5.13-2.23 3.81.07 4.53.74 1.84 1.3.83 2.05c-1.01.76-3.52 2.09-4.6 2.35s-3.34 1.29-3.34 1.29l.22 1.48s4.08.66 5.15 1.12 1.78.8 1.95 1.76.46 1.98-1.44 2.33-7.5.41-7.5.41v2.64s2.74 1.94 3.63 2.24 1.8 1.3 1.51 2.07-.92 1.55-1.83 1.78-2.95.39-3.28-.03-1.37-.64-1.37-.64ZM41.43 129.16c-.07.16-4.16 8.83-4.16 8.83s-4.76.05-7.1-.53c-2.34-.58-7.06-2.32-7.06-2.32s-6.13 10.08-7.03 12.37c-.89 2.3-2.75 8.72-2.86 11.75-.11 3.03.02 7.76.67 10.3s1.68 6.26 3.51 8.08c1.83 1.81 4.03 3.29 4.03 3.29s.91 2.21 2.25 1.81c1.34-.4 1.92-1.2 2.29-1.21s6.02-.05 11.94-3.43c5.92-3.38 10-7.64 11.71-9.64 1.71-2 6.97-9.52 6.97-9.52l.99-9.28s-8.81-1.53-12.01-2.2c-3.2-.67-6.04-1.98-6.04-1.98s.88-7.23 1.21-9.53c.33-2.3.66-6.79.66-6.79ZM149.82 152.24s3.88 9.94 5.44 12.51c1.56 2.57 5.83 9.37 8.08 10.67 2.25 1.3 10.29 5.73 12.95 6.28 2.66.55 6.19-.32 7.57-1.54s2.75-3.35 3.89-5.26c1.14-1.91 2.15-7.14 2.22-8.88.08-1.74-.65-7.96-1.45-10.34-.79-2.37-4.13-12.75-4.58-13.88-.45-1.13-1.99-4.74-1.99-4.74s-12.46 6.91-16.26 8.63c-3.8 1.73-9.84 4.28-11.74 5-1.9.72-4.15 1.54-4.15 1.54Z"/><path class="cls-6" d="m19.68 121-.58 3.75s1.61 2.43 1.59 2.86-.73 2.03-.73 2.03l-1.72-.03-.18 2.15s4.9 3.45 8.14 4.48c3.24 1.03 11.08 1.76 11.08 1.76s4.6-9.76 4.72-10.13 10.54-24.04 10.54-24.04-8.55-2.39-11.24-3.22c-2.68-.84-16.02-6.09-16.02-6.09l-1.12 4.81s3.13-.12 4.36.36 2.41 1.56 2.24 2.04-1.72 1.52-2.74 2-5.27 1.74-5.27 1.74l.11 1.87s4.82.84 5.65 1.34 1.61 1.12 1.54 1.99c-.07.87-.55 1.75-1.52 1.88s-7.5.41-7.5.41v2.64s4.19 1.98 4.61 2.63c.42.64.81 2.57-.25 3.01-1.06.44-3.6.05-3.97.23s-1.74-.46-1.74-.46Z"/><path class="cls-6" d="M35.19 98.65c-.08.21-5.02 8.54-5.02 8.54l4.16.35 4.94-7.57-4.08-1.33Z"/></g><g id="Layer_18"><path class="cls-22" d="M26.7 107.4c.08-.3.15-.61.23-.92.03-.13.02-.29-.05-.41a.531.531 0 0 0-.31-.24c-.13-.03-.29-.02-.41.05s-.21.18-.24.31c-.08.3-.15.61-.23.92-.03.13-.02.28.05.41.06.11.19.21.31.24.13.03.29.02.41-.05s.21-.18.24-.31Z"/><path class="cls-22" d="M26.6 106.85c1.2-.5 2.54-.45 3.81-.38 1.28.08 2.42.25 3.6.52 2.44.55 4.8 1.45 7 2.63 1.25.67 2.44 1.43 3.58 2.27.23.17.59.04.72-.19.16-.27.04-.55-.19-.72-4.17-3.07-9.17-5.14-14.36-5.54-1.47-.11-3.07-.18-4.45.39-.26.11-.45.35-.37.65.07.25.38.48.65.37Z"/><path class="cls-4" d="m44.36 111.3-.07-.02s-2.64-1.91-4.44-2.83-7.35-2.28-9.08-2.54-4.3.43-4.3.43l-.27 1.53s3.36 1.39 3.77 1.86.08.92.02 1.3-.46.96-1.25 1.43c-.59.35-2.49.55-3.42.63a.534.534 0 0 0-.38-.47c-.26-.07-.58.09-.65.37-.27 1.2-.53 2.39-.79 3.59-.06.28.08.57.37.65.17.05.36 0 .5-.12.59.63 1.7 1.84 1.77 2.08.09.33-.08.96-.75 2.04-.44.71-1.34.76-1.91.72a.538.538 0 0 0-.37-.59c-.26-.07-.59.09-.65.37-.41 2.11-.8 4.23-1.15 6.36-.13.2-.13.51.06.67 3.09 2.56 7.04 3.54 10.91 4.2 1.19.2 2.44.51 3.64.26.11-.02.2-.09.27-.17.07-.04.13-.1.17-.18 2.54-5.41 5.12-10.79 7.26-16.37.62-1.62 1.21-3.26 1.75-4.9.21-.64-.8-.92-1.01-.28Z"/></g><path d="M45.58 111.23c-.55-1.17-1.66-1.94-2.75-2.57a25.2 25.2 0 0 0-3.75-1.78c-2.59-.99-5.35-1.56-8.12-1.68-1.58-.07-3.25-.06-4.74.51-.14.05-.25.14-.34.25-.04.02-.08.05-.11.09-.06.06-.11.13-.13.21-.04.08-.06.16-.05.25 0 .06.01.11.02.17.03.11.09.2.17.28l.05.04c.03.05.07.09.11.13 1.97 1.53 4.29 2.59 6.76 2.99 1.35.21 2.7.17 4.05.23 1.33.06 2.65.33 3.9.8 1.33.5 2.61 1.38 4.09 1.22a.87.87 0 0 0 .45-.19c.06-.01.12-.03.17-.06.32-.19.38-.57.23-.88Z" style="fill:#cc9e40"/><g id="Layer_17"><path class="cls-21" d="M114.18 38.25c.81 0 .81-1.26 0-1.26s-.81 1.26 0 1.26Z"/><path class="cls-6" d="M17.62 129.43c-.09.51-.15 1.03-.22 1.55l.02-.17-.09.63c-.03.17-.03.33.06.49.08.13.23.26.38.29.31.07.71-.09.78-.44.09-.5.14-1.01.21-1.51l-.02.17c.03-.22.06-.44.1-.66.03-.17.03-.33-.06-.49-.08-.13-.23-.26-.38-.29-.31-.07-.71.09-.78.44ZM19.17 121.06c-.24 1.28-.51 2.56-.75 3.84-.06.32.09.7.44.78.31.07.71-.09.78-.44.24-1.28.5-2.56.75-3.84.06-.32-.09-.7-.44-.78-.31-.07-.71.09-.78.44ZM20.75 112.96c-.11.57-.23 1.15-.34 1.72-.03.17-.03.33.06.49.08.13.23.26.38.29.16.04.34.03.49-.06.13-.09.26-.22.29-.38.11-.57.23-1.15.34-1.72.03-.17.03-.33-.06-.49-.08-.13-.23-.26-.38-.29a.648.648 0 0 0-.49.06c-.13.09-.26.22-.29.38Z"/><path class="cls-3" d="M61.94 115.18c-.6 3.03-1.05 6.09-1.49 9.14a808.7 808.7 0 0 0-1.75 12.98c-.61 4.75-1.18 9.49-1.75 14.24-.53 4.41-1.04 8.81-1.54 13.22-.37 3.27-.74 6.53-1.1 9.8l-.09.86c-.04.34.32.63.63.63.37 0 .59-.29.63-.63.34-3.07.68-6.14 1.03-9.21.49-4.31.99-8.62 1.5-12.93.56-4.73 1.13-9.45 1.73-14.17.29-2.29.58-4.58.89-6.88.27-2.05.55-4.1.85-6.21.46-3.23.92-6.46 1.52-9.67.05-.28.11-.57.16-.85.07-.33-.09-.68-.44-.78-.31-.09-.71.11-.78.44ZM134 114.67c1.16 5.26 2.37 10.51 3.67 15.74 1.22 4.92 2.51 9.82 3.88 14.71.84 3.03 1.71 6.05 2.59 9.06.23.78 1.44.45 1.22-.34-1.51-5.17-2.98-10.35-4.37-15.56-1.3-4.9-2.53-9.82-3.68-14.76-.72-3.06-1.41-6.13-2.09-9.19-.07-.33-.46-.53-.78-.44-.34.09-.51.44-.44.78Z"/><path class="cls-3" d="M145.32 154.44c5.57-1.82 11.06-3.92 16.43-6.27 5.35-2.34 10.59-4.93 15.7-7.78 2.86-1.59 5.68-3.26 8.45-5.01.68-.43.05-1.52-.64-1.09-4.92 3.1-9.98 5.96-15.17 8.57-5.19 2.61-10.46 4.96-15.86 7.05-3.05 1.18-6.14 2.29-9.25 3.3-.32.11-.53.43-.44.78.09.32.45.55.78.44Z"/><path class="cls-21" d="M190.13 168.53c-.3-.08-.72.1-.78.44-.42 2.4-1.28 4.69-2.55 6.77-1.14 1.88-2.48 3.6-4.5 4.62-1.09.54-2.34.83-3.53.66a1.31 1.31 0 0 0-.28 0c-2.8-.19-5.57-.95-8.11-2.17-2.81-1.34-5.37-3.17-7.63-5.32-2.26-2.14-4.36-4.81-6.06-7.58-1.86-3.04-3.38-6.27-4.68-9.58-1.31-3.31-2.44-6.75-3.53-10.17-.14-.43-.27-.86-.41-1.29a.652.652 0 0 0-.78-.44c-.32.09-.54.45-.44.78 1.11 3.49 2.23 6.99 3.54 10.42 1.3 3.41 2.79 6.77 4.62 9.93 1.71 2.93 3.72 5.7 6.11 8.11 2.28 2.3 4.88 4.3 7.75 5.8s5.94 2.46 9.15 2.74c.39.03.78.05 1.17.07.06 0 .12 0 .17-.02 2.27.02 4.42-1.05 6.04-2.65.83-.81 1.51-1.77 2.14-2.74.63-.97 1.21-2.04 1.68-3.13.62-1.44 1.07-2.93 1.34-4.48.06-.33-.09-.68-.44-.78ZM22.56 134.83zM56.06 158.62c-1.23 2.2-2.59 4.32-4.16 6.29-1.57 1.97-3.33 3.86-5.13 5.65-3.61 3.58-7.81 6.73-12.57 8.6-2.54 1-5.22 1.62-7.95 1.72a.18.18 0 0 0-.07-.05c-.28-.16-.72-.08-.86.23-.05.09-.09.19-.15.28 0 0-.05.07-.06.09-.02.02-.07.08-.07.08-.06.07-.13.14-.2.2-.01.01-.05.04-.06.05l-.11.08c-.08.05-.16.09-.25.14-.02 0-.03.02-.04.02 0 0-.02 0-.04.01-.04.01-.08.03-.12.04-.09.03-.19.05-.28.06h-.4c-.11-.02-.2-.04-.3-.08-.04-.01-.08-.03-.12-.04l-.08-.04c-.08-.04-.16-.09-.24-.14 0 0-.07-.05-.09-.06-.02-.02-.07-.06-.08-.07-.08-.07-.15-.14-.22-.22-.01-.01-.03-.03-.03-.04-.02-.03-.05-.07-.07-.11-.03-.04-.05-.09-.08-.13-.01-.02-.08-.18-.04-.07a.817.817 0 0 0-.12-.2c0-.2-.08-.39-.31-.52-2.75-1.48-4.86-3.88-6.02-6.77-.64-1.58-1.06-3.24-1.37-4.91-.3-1.57-.48-3.15-.57-4.74-.16-3.2.09-6.41.76-9.54s1.75-6.2 3.23-9.06c1.57-3.03 3.72-5.72 5.3-8.75.2-.38.38-.76.56-1.15.14-.31.09-.68-.23-.86-.27-.16-.72-.09-.86.23-1.45 3.19-3.68 5.94-5.37 8.99-1.7 3.05-2.84 6.06-3.63 9.31a38.33 38.33 0 0 0-1.06 9.9c.08 3.32.58 6.84 1.68 10.03.57 1.63 1.34 3.18 2.4 4.56.98 1.27 2.17 2.37 3.52 3.25.28.18.56.35.85.51 0 .02 0 .04.01.06.46 1.09 1.45 1.86 2.66 1.93.96.05 1.93-.44 2.51-1.22 5.24-.16 10.24-2.14 14.59-5 2.2-1.45 4.26-3.13 6.18-4.95 1.9-1.8 3.71-3.72 5.37-5.74 1.85-2.25 3.47-4.66 4.89-7.2.4-.71-.69-1.34-1.09-.64Z"/><path class="cls-3" d="M186.12 134.52c-1.61-3.33-3.32-6.6-5.07-9.85-1.71-3.16-3.42-6.33-5.2-9.45-3.29-5.8-6.95-11.48-11.7-16.21-4.1-4.09-8.91-7.42-13.99-10.17s-10.83-5.12-16.49-7.06c-5.66-1.94-11.26-3.51-16.97-5.01l-2.08-.54c-.33-.09-.58.08-.7.32-.02 0-.04 0-.07.01-3.67.95-7.43 1.55-11.21 1.79-3.81.24-7.64.12-11.42-.35-1.97-.25-3.93-.6-5.86-1.05.02-.09.02-.18-.01-.27-.08-.3-.46-.57-.78-.44l-14.44 5.85c-2.34.95-4.69 1.89-7.03 2.85-2.21.91-4.41 1.88-6.45 3.13-2.25 1.37-4.25 3.1-6.02 5.05-.23.25-.25.64 0 .89.23.23.64.25.87.01.29.27.71.6 1.23.83 1.02.45 4.98 3.8 4.98 3.8l-1.4 5.31-3.79-.14-3.3 8.15s.87 2.09 1.13 3.38c.26 1.29-.26 1.97-1.25 2.58-.99.6-3.07 1.27-3.07 1.27s-4.05 8.71-4.13 9.18-.83 5.78-.83 5.78l-1.5 11.09c-.06.07-.11.16-.14.24-.1.35.12.66.44.78a68.6 68.6 0 0 0 13.66 3.54c1.33.2 2.67.36 4.01.48l-.23 3.4-2.44 21.4c-.56.17-.71 1.08-.02 1.2 5.46.93 10.97 1.58 16.48 2.1 5.48.52 10.98.91 16.48 1.05 2.7.07 5.39.03 8.09.01 3.15-.02 6.31-.03 9.46-.05 5.71-.05 11.43-.17 17.13-.58 6.1-.43 12.16-1.21 18.18-2.28.84-.15 1.67-.3 2.5-.46.38-.07.5-.36.46-.63-.23-4.36-.45-8.71-.66-13.06-.21-4.24-.41-8.48-.62-12.71-.09-1.86-.19-3.72-.29-5.58l3.08 9.74s8.81-3.13 12.72-4.69c3.91-1.56 24.09-12.08 25.63-13.01.72-.44 1.22-.75 1.55-.95.16.29.58.37.85.21.31-.18.37-.55.23-.86Z"/><path class="cls-21" d="M41.24 136.98c.44-2.97.83-5.94 1.36-8.89.06-.33-.09-.68-.44-.78-.3-.08-.72.1-.78.44-.47 2.64-.83 5.3-1.22 7.96-.35 2.37-.84 4.72-1.07 7.11-.22 2.24-.24 4.46 0 6.7.26 2.39.69 4.75.91 7.14.24 2.58.25 5.24-.62 7.71-.11.32.13.69.44.78.35.09.66-.12.78-.44 1.6-4.56.47-9.54-.12-14.18-.14-1.12-.27-2.25-.31-3.39-.04-1.13 0-2.19.09-3.28.17-2.32.63-4.58.97-6.88Z"/><path class="cls-16" d="M49.47 112.63s1.24 1.37 1.12 2.69c-.12 1.32-.43 2.64-1.24 3.27-.81.63-3.07 1.27-3.07 1.27s1.73-4.31 1.85-4.54 1.34-2.69 1.34-2.69Z"/><path class="cls-21" d="M46.35 120.1c1.47 0 2.93-.69 3.86-1.84s1.3-2.75.95-4.24c-.19-.83-.61-1.6-1.18-2.23-.23-.25-.66-.23-.89 0-.25.25-.23.64 0 .89.96 1.05 1.23 2.69.66 3.97-.58 1.28-1.99 2.18-3.39 2.19-.81 0-.81 1.26 0 1.26Z"/><path class="cls-6" d="M24.06 99.92c.32.09.7-.11.78-.44.35-1.61.7-3.21 1.05-4.81.07-.33-.1-.68-.44-.78-.32-.09-.7.11-.78.44-.36 1.6-.71 3.21-1.05 4.81-.07.33.1.68.44.78ZM52.91 102.73c-.36-.1-.64.12-.78.44-1.87 4.46-3.78 8.91-5.73 13.35-1.96 4.47-3.96 8.92-5.99 13.36-1.14 2.49-2.29 4.98-3.46 7.46 0 .01 0 .02-.01.03a27.74 27.74 0 0 1-14.82-3.6 26.99 26.99 0 0 1-3.63-2.47c-.26-.21-.63-.26-.89 0-.22.22-.26.68 0 .89 4.3 3.49 9.54 5.66 15.03 6.29 1.54.17 3.09.22 4.63.14.28-.02.52-.19.6-.45a.48.48 0 0 0 .17-.2 895.756 895.756 0 0 0 12.04-26.8c1.1-2.55 2.18-5.11 3.26-7.67.13-.31-.14-.69-.44-.78Z"/><path class="cls-21" d="M27.46 104.63c.68-.29 1.36-.61 2.04-.93.62-.3 1.32-.61 1.67-1.24.81-1.43-.69-2.83-1.91-3.31s-2.64-.41-3.94-.21c-1.71.26-3.38.86-4.88 1.73-.05.03-.09.06-.13.1h-.02c-2.04 1.03-2.87 3.85-1.79 5.84-.03 0-.06 0-.1.01-1.33.32-2.28 1.55-2.6 2.83-.16.61-.21 1.31-.02 1.92.19.61.57 1.19.95 1.71.14.19.28.37.42.56-.19 0-.38 0-.56.04-.72.13-1.33.65-1.69 1.26-.96 1.61-.16 3.51 1.1 4.68l.12.09s.01 0 .02.01c1.18.83 2.42 1.59 3.8 2.02 1.39.43 2.86.53 4.3.63.14 0 .27-.04.38-.13 1.25-.25 2.21-1.4 2.22-2.7 0-1.66-1.56-2.51-2.83-3.2-1.53-.83-3.08-1.64-4.73-2.22-.02 0-.04-.01-.06-.02-.52-.56-1.04-1.16-1.48-1.79-.22-.32-.44-.65-.61-1-.02-.05-.04-.09-.06-.14 0 0-.05-.13-.05-.15-.02-.06-.03-.13-.05-.19 0-.03 0-.05-.01-.06v-.09c-.05-.64.12-1.24.46-1.8.33-.54.74-.89 1.29-1.04 1.63-.09 3.26-.03 4.89.17.8.1 1.6.25 2.39.43.7.16 1.42.32 2.09.6.47.2.97.49 1.31.89.04.05.1.14.17.27v.02c0 .02.02.04.02.06.02.06.03.12.05.18v.24c-.02.15-.06.24-.12.34-.28.51-.83.79-1.4.93-.76.19-1.56.16-2.34.18-1.96.05-3.93.09-5.89.14-.81.02-.81 1.28 0 1.26 1.91-.04 3.82-.09 5.74-.13 1.64-.04 3.63.04 4.76-1.4.46-.59.67-1.38.42-2.11-.24-.68-.75-1.19-1.34-1.58-.59-.38-1.28-.64-1.96-.83-.87-.24-1.75-.43-2.63-.58-.51-.09-1.01-.16-1.52-.21.05-.25.11-.5.16-.76 1.38-.29 2.71-.8 4-1.36Zm-8.89 10.6c.06.04.13.06.19.07 1.31.44 2.56 1.06 3.78 1.71.61.33 1.24.64 1.83 1.01.45.28.89.61 1.1 1.09l.08.28v.4c-.02.09-.04.17-.07.25l-.05.12c-.02.05-.05.1-.08.15-.12.2-.28.39-.43.5a.95.95 0 0 1-.17.1c-.01 0-.08.04-.1.05-.05.02-.11.04-.16.05-.04.01-.08.02-.13.03h-.03c-.09 0-.18.03-.26.07-1.32-.09-2.52-.18-3.8-.57-.61-.19-1-.36-1.57-.67-.64-.35-1.25-.75-1.85-1.17-.41-.39-.77-.84-.97-1.37-.2-.55-.21-1-.02-1.49.15-.39.5-.78.89-.89.58-.17 1.27.1 1.82.28Zm1.31-8.67c0-.09-.03-.17-.08-.25-.07-.1-.13-.2-.19-.31l-.09-.18v-.02s0-.02-.02-.04a3.67 3.67 0 0 1-.18-.67c0-.03-.01-.12-.01-.12 0-.05 0-.11-.01-.16v-.36c0-.05 0-.11.01-.16v-.09c.02-.12.04-.24.07-.36.22-.87.73-1.58 1.54-1.99.05-.02.09-.06.13-.09 0 0 .02 0 .03-.01 1.17-.68 2.43-1.16 3.75-1.45 1.1-.24 2.35-.38 3.4-.15.22.05.53.14.68.2.11.05.21.1.32.16.06.04.12.07.18.11 0 0 .15.11.1.07.3.23.75.73.62 1.07-.08.19-.27.33-.46.45-.25.16-.53.28-.8.41-.6.29-1.21.57-1.82.84-1.37.6-2.8 1.13-4.28 1.4h-.01a.525.525 0 0 0-.32.22.57.57 0 0 0-.11.22c-.09.45-.19.9-.28 1.35-.72-.05-1.44-.07-2.17-.06ZM19.33 124.75c-.71-.39-1.35.7-.64 1.09.71.39 1.29 1.13 1.39 1.98.04.39-.03.86-.35 1.08-.13.09-.24.12-.41.08-.25-.05-.48-.17-.7-.28-.84-.4-1.75-.88-2.24-1.72-.43-.75-.49-1.72-.09-2.5.45-.87 1.36-1.43 2.29-1.46.81-.03.81-1.29 0-1.26-1.3.05-2.52.73-3.23 1.82s-.76 2.62-.18 3.82c.58 1.2 1.77 1.9 2.92 2.44.68.32 1.37.58 2.1.24.63-.3 1.02-.94 1.12-1.61.22-1.5-.68-3.02-1.99-3.72Z"/><path d="m38.27 99.65-2.48-.81c.23-.65-.75-1.17-1.15-.51-1.66 2.77-3.32 5.54-4.94 8.34-.17.3-.07.59.13.77.08.12.19.21.34.24 1.25.24 2.52.41 3.79.52.26.11.58.06.76-.25 1.51-2.54 3.05-5.07 4.59-7.6.41-.67-.59-1.28-1.04-.7Z" style="fill:#cc5e05"/><path class="cls-11" d="M58.2 98.06c-3.05-2.71-6.69-4.65-10.44-6.21-.87-.36-1.75-.7-2.63-1.02l4.35-7.08c1.83-2.96 3.66-5.92 5.5-8.87.76-1.22 1.52-2.43 2.29-3.64.14-.22.12-.43.02-.6a.676.676 0 0 0-.07-.23c-.59-1.2-1.96-1.82-3.19-2.14a.656.656 0 0 0-.68.24c-.1.05-.19.13-.26.23-1.67 2.44-3.25 4.93-4.83 7.42-2.1 3.32-4.17 6.65-6.23 9.99l-1.86 3.03c-3.91-1.17-7.89-2.21-11.99-2.42a26.77 26.77 0 0 0-3.47.04c-.3.02-.56.22-.62.51-.82 1.81-1.56 3.66-2.23 5.53a.53.53 0 0 0 .03.41.6.6 0 0 0 .29.4c4.13 2.12 8.41 3.95 12.78 5.52s8.98 2.92 13.58 3.96c2.51.57 5.04 1.04 7.59 1.42.26.04.53-.04.68-.24.12-.08.21-.2.24-.34.33-1.75.93-3.43 1.26-5.17v-.05c.1-.23.07-.53-.13-.7Z"/><path d="M94.35 54.89c-.13-.34-.45-.57-.82-.47-.32-.02-.59.19-.7.5-.89 2.49-3.66 3.51-6.13 3.45-.61-.02-.79.64-.54 1.05.03.08.08.16.16.24 1.25 1.28 3.08 2.04 4.87 1.89 1.89-.16 3.69-1.36 3.91-3.35.13-1.15-.35-2.25-.75-3.29Z" style="fill:#a08675"/></g><g id="Layer_7"><path class="cls-23" d="M98.55 144.81c-1.85-.45-3.93-.24-5.56.79-.82.51-1.44 1.21-2.02 1.97-.54.7-.96 1.35-1.58 1.97-.09.09-.18.17-.27.25s-.13.12-.18.15c-.18.13-.37.24-.56.34-.02 0-.03.01-.04.02h-.02c-.06.03-.13.05-.19.07-.12.04-.24.07-.36.09h-.05c-.06 0-.12 0-.18.01h-.34c-.36-.03-.89-.18-1.24-.37-.4-.22-.68-.46-.88-.81-.39-.71-1.48-.08-1.09.64.28.5.69.91 1.19 1.2.12.8.34 1.91.72 2.2.61.47 1.38 1.07 2.74.89 1.36-.18 3.97-.27 5.01.04 1.04.31 1.87 2.81 1.87 2.81s.7-.36 1.57-1.01 1.96-.91 3.61-1.21c1.08-.2 2.26-.49 2.96-.68.16.64 1.24.59 1.24-.17.02-3.99-2.27-8.2-6.35-9.2Z"/><path d="M93.85 153.66c-1.84-.8-3.81-.11-5.71 0-.41.03-.89.07-1.29-.08a1.058 1.058 0 0 1-.58-.52c-.32-.56-.42-1.35-.58-2.03-.4-1.66-1.23-3.31-2.55-4.43-1.32-1.12-3.14-1.7-4.87-1.33-1.54.32-2.68 1.45-3.51 2.74s-1.35 2.58-2.21 3.76c-.16.22-.38.57-.67.73-.06.03-.1.05-.17.06H71.65s-.06-.02-.11-.03c0 0-.07-.04-.11-.07 0 0-.09-.07-.11-.09-.05-.05-.1-.11-.15-.16-.05-.06-.04-.04-.11-.14-.05-.08-.11-.16-.16-.23-.19-.3-.35-.61-.53-.92-.82-1.44-2.41-2.37-4.08-2.34-1.64.03-3.2 1.04-3.93 2.51-.18.36-.32.74-.4 1.14-.07.33.09.68.44.78.11.03.24.02.36-.01.23 1.11.58 2.97.58 4.36 0 2.11-.96 5.72-.96 5.72l1.8 2.03 1.19-1.6c1.19-1.6 4-3.32 4-3.32l2.76 8.96s.81-1.21 1.31-1.77c.5-.55 3.08-2.22 4.94-2.92s3-.62 4.27-1.06c1.27-.45 4.41 1.01 4.41 1.01s.2-.28.75-.91 1.46-1.15 2.51-1.68c1.05-.53 3.64-1.17 3.64-1.17s.24-1.21.69-2.09c.14-.26.25-.47.35-.67.06.05.13.09.21.11.35.1.66-.12.78-.44.62-1.64-.71-3.25-2.15-3.88Z" style="fill:#3f9544"/><path class="cls-23" d="M62.36 151.11c-1.23-1.67-3.23-2.8-5.33-2.6-1.09.1-1.97.57-2.86 1.16-.38.25-.82.55-1.21.7-.18.07-.42.13-.54.13-.19 0-.36-.02-.52-.11-.33-.17-.53-.46-.73-.81-.23-.38-.42-.79-.68-1.16a4.383 4.383 0 0 0-2.28-1.64c-1.83-.58-3.9-.02-5.17 1.43-.64.74-1.1 1.64-1.32 2.6-.23 1.02-.15 2 .04 3.01.08.42.18.9.22 1.26.05.46.05.84-.07 1.21-.02.06-.02.07-.08.18-.03.05-.05.09-.09.14.02-.02.06-.07-.03.03-.13.15-.3.27-.47.34-.45.19-.97.21-1.45.29-.97.15-1.84.59-2.5 1.32a5.56 5.56 0 0 0-1.26 2.46c-.51 2.19.33 4.37 1.41 6.25.28.49.59.97.89 1.45.14.22.41.34.66.3.03.05.05.08.05.08l5.46 1.2s-.62-1.73-.61-2.43c.02-.7-.68-3.77-.64-5.83.04-2.06 2.8-6.03 2.8-6.03s1.75 2.65 1.72 2.91c-.03.26 6.54 9.49 6.54 9.49s-.14-5.53.03-7.18c.17-1.65 1.66-5.41 1.66-5.41l5.87 6.63-.09.42c-.07.33.09.68.44.78.31.09.71-.11.78-.44.41-2.05.91-4.1.99-6.2.09-2.09-.41-4.26-1.63-5.93Z"/><path class="cls-4" d="m69.06 176.41 1.42 11.34.41 3.22c.04.34.26.63.63.63.31 0 .67-.29.63-.63l-1.42-11.34-.41-3.22c-.04-.34-.26-.63-.63-.63-.31 0-.67.29-.63.63Z"/><path d="M110.38 158.83c-1.02-2.09-2.74-3.83-4.99-4.55-1.24-.39-2.6-.44-3.85-.06-1.6-.1-3.2.35-4.56 1.17-1.68 1.01-2.98 2.58-3.6 4.44-.03.1-.03.2 0 .29-.51.12-1.01.28-1.5.45-.12.04-.23.12-.31.21-.42.08-.83.19-1.23.35-1.46.56-2.72 1.5-3.66 2.75-1.36-.77-2.98-1.09-4.55-1.01-1.41.08-2.77.45-4.06 1.04-.05.02-.09.05-.12.09-.92.23-1.81.59-2.63 1.08-1.42.85-2.62 2.03-3.58 3.38-.2.28-.05.7.23.86.16.09.32.11.48.06l1.39 5.57 1.72-.27 20.89-4.45 13.33-2.96.61-.68c.32.26.89.23 1.02-.29.62-2.47.08-5.21-1.02-7.47Z" style="fill:#e5f2b6"/><path d="M74.42 174.4c-1.2-3.72-2.29-7.48-3.45-11.21-.33-1.06-.66-2.12-1-3.18 0 0 0-.02-.01-.03a.612.612 0 0 0-.05-.12.604.604 0 0 0-.23-.22s-.02 0-.02-.01c-.01 0-.03-.01-.04-.02a.604.604 0 0 0-.42-.04c-.05.01-.1.04-.15.07-2.01 1.04-3.67 2.61-4.9 4.47l-7.55-8.53a.643.643 0 0 0-.26-.31c-.27-.16-.7-.08-.86.22-.04.05-.06.11-.08.17-1.54 3.21-2.14 6.84-1.79 10.38a71.857 71.857 0 0 1-5.4-7.58c-.56-.9-1.1-1.81-1.62-2.74a.55.55 0 0 0-.65-.29c-.17 0-.34.05-.45.18-2.67 3.21-3.65 7.62-2.72 11.67.26 1.15.69 2.26 1.25 3.29.28.52.93.32 1.12-.09l10.54 2.53c.1.19.2.38.3.56.32.56 1.06.28 1.16-.21l1.85.44 3.03.59.03.14c.07.33.46.53.78.44a.61.61 0 0 0 .4-.35l6.67 1.29c.16-.1 2.56-.65 3.52-.87.15.13.36.19.57.13.32-.09.54-.45.44-.78Z" style="fill:#f75e28"/><path class="cls-4" d="M111.64 165.8s-.1 0-.14.02l-16.46 3.71-16.41 3.7-9.25 2.08a.35.35 0 0 0-.14.06.487.487 0 0 0-.27-.15 384.144 384.144 0 0 1-28.39-6.58c-2.64-.72-5.27-1.47-7.9-2.24-.25-.07-.46 0-.59.15-.22.15-.3.42-.25.69.83 4.4 2.14 8.71 3.88 12.84.47 1.13.98 2.24 1.52 3.34-.07.3.04.64.42.75 4.18 1.24 8.38 2.39 12.6 3.46 4.22 1.07 8.46 2.07 12.72 2.98 2.41.51 4.82 1 7.23 1.47.15.03.3 0 .43-.05.15.13.37.18.58.13l14.75-3.32 14.75-3.32 8.27-1.86c.34.08.64-.13.75-.45a53.791 53.791 0 0 0 2.89-16.87c0-.56-.58-.73-.96-.53Z"/></g><g id="Layer_24"><path d="M109.88 182.48c.05.01.1.03.15.04.32-.89.76-2.29 1.2-4.21-.19.03-.38.06-.57.07-2.18.1-3.91-1.89-3.96-3.96-.04-1.41.18-2.88.71-4.19.41-1.01.9-1.77 1.82-2.37.9-.58 2.04-.63 3.05-.4.18.04.35.11.53.18.01-.14.02-.27.03-.38.12-1.77-.54-1.68-1.57-1.38-.74.21-4.91 1.02-10.68 2.27-.11.09-.23.17-.35.25-.83.54-1.87.62-2.82.44-1.38.31-2.83.63-4.32.98-1.6.37-3.34.77-5.13 1.18-.02.22-.05.43-.12.64-.1.34-.17.69-.24 1.03-.03.34-.04.69-.04 1.04.02 2.22-1.83 3.87-3.96 3.96-2.16.1-3.95-1.89-3.96-3.96 0-.26 0-.53.02-.79-5.66 1.31-10.22 2.36-10.22 2.36s-2.6-.54-6.2-1.31c-.75.26-1.59.24-2.36.07-.59-.13-1.18-.49-1.66-.94-1.8-.39-3.69-.82-5.52-1.23-.53-.12-1.09-.25-1.66-.39.47.21.91.5 1.24.83.63.63 1.28 1.87 1.16 2.8-.14 1.16-.29 2.32-.43 3.48-.14 1.11-.4 1.98-1.16 2.8-.71.78-1.78 1.12-2.8 1.16-.99.04-2.12-.47-2.8-1.16-.63-.63-1.28-1.87-1.16-2.8.14-1.16.29-2.32.43-3.48.14-1.11.4-1.98 1.16-2.8.71-.78 1.78-1.12 2.8-1.16h.22c-1.93-.47-3.98-1-5.97-1.53l-.26 1.65c-.16 1-1.01 1.85-1.82 2.37-.9.58-2.04.63-3.05.4-.95-.21-1.89-1-2.37-1.82-.58-.99-.57-1.97-.4-3.05.09-.55.17-1.09.26-1.64-1.9-.54-3.24-.93-3.59-1.05-1.15-.38-1.75-.04-1.69.59.04.43.25 1.47.65 3.16.02.03.04.05.05.08.4.69.54 1.44.51 2.2.04.15.08.31.12.47.69 2.7 1.89 5.67 2.8 7.74.95-.7 2.21-.96 3.44-.68.95.21 1.89 1 2.37 1.82.52.89.67 2.07.4 3.05l-.18.67c1.86.49 4.33 1.14 7.38 1.93 1.62.42 3.25.83 4.84 1.21.03-.93.15-1.87.43-2.82.62-2.13 2.76-3.25 4.88-2.77 2.07.47 3.34 2.88 2.77 4.88-.07.24-.12.48-.17.72-.03.5-.02.99.04 1.49-.02-.17-.05-.35-.07-.52.03.29.05.58.05.86 1.95.43 3.55.78 4.58 1 .02 0 .05.01.07.01 1.17-.63 2.61-.65 3.89.03.31.16.59.38.83.63.86-.19 3-.66 5.73-1.27.17-1.7.45-3.36.97-4.99.68-2.12 2.71-3.26 4.88-2.77 2.03.46 3.4 2.9 2.77 4.88-.11.34-.21.68-.3 1.02 3.98-.9 7.89-1.79 10.42-2.4 3.48-.83 6.84-1.57 9.36-2.11.85-1.68 2.69-2.53 4.6-2.1Zm-34.75-2.5c-.22.93-.44 1.87-.67 2.8-.51 2.16-2.84 3.23-4.88 2.77-2.14-.49-3.25-2.86-2.77-4.88.22-.93.44-1.87.67-2.8.51-2.16 2.84-3.23 4.88-2.77 2.14.49 3.25 2.86 2.77 4.88Zm24.26-.66-.75 3.13c-.52 2.16-2.84 3.23-4.88 2.77-2.13-.49-3.25-2.86-2.77-4.88l.75-3.13c.52-2.16 2.84-3.23 4.88-2.77 2.13.49 3.25 2.86 2.77 4.88Z" style="fill:none"/><path class="cls-8" d="M63.24 173.97c-1.24-.27-2.61-.56-4.02-.87.48.45 1.07.81 1.66.94.77.17 1.61.19 2.36-.07ZM83.61 177.68c2.13-.09 3.99-1.74 3.96-3.96 0-.35.01-.69.04-1.04.07-.35.14-.69.24-1.03.06-.21.09-.42.12-.64-2.78.64-5.66 1.31-8.31 1.92-.01.26-.02.53-.02.79.02 2.07 1.81 4.06 3.96 3.96ZM83.03 183.19c-2.17-.49-4.2.65-4.88 2.77-.52 1.63-.8 3.29-.97 4.99l8.32-1.86c.09-.34.19-.68.3-1.02.63-1.98-.74-4.42-2.77-4.88ZM96.62 174.45c-2.04-.46-4.36.61-4.88 2.77l-.75 3.13c-.49 2.01.63 4.39 2.77 4.88 2.04.46 4.36-.61 4.88-2.77l.75-3.13c.49-2.01-.63-4.39-2.77-4.88ZM100.24 168.4c.12-.08.24-.16.35-.25l-3.17.69c.95.17 1.99.09 2.82-.44ZM109.23 167.87c-.92.6-1.41 1.36-1.82 2.37-.53 1.31-.75 2.78-.71 4.19.05 2.07 1.78 4.06 3.96 3.96.19 0 .38-.03.57-.07.01-.05.03-.1.04-.15.79-3.45 1.37-8.45 1.54-10.51a2.55 2.55 0 0 0-.53-.18c-1.01-.23-2.15-.18-3.05.4ZM105.28 184.58c2.6-.55 4.3-.89 4.3-.89s.18-.39.45-1.17c-.05-.01-.1-.03-.15-.04-1.91-.43-3.75.42-4.6 2.1ZM72.36 175.11c-2.03-.46-4.36.61-4.88 2.77-.22.93-.44 1.87-.67 2.8-.48 2.01.63 4.39 2.77 4.88 2.03.46 4.36-.61 4.88-2.77.22-.93.44-1.87.67-2.8.48-2.01-.63-4.39-2.77-4.88ZM62.1 190.21c-.06-.5-.07-.99-.04-1.49.05-.24.11-.48.17-.72.57-1.99-.7-4.41-2.77-4.88-2.12-.48-4.26.64-4.88 2.77-.28.96-.41 1.89-.43 2.82 2.89.7 5.64 1.32 7.92 1.83 0-.28-.01-.56-.05-.86.02.17.05.35.07.52ZM66.73 191.56c2.85.62 4.31.75 4.31.75l.41-.09c-.24-.25-.52-.46-.83-.63-1.28-.68-2.72-.66-3.89-.03ZM47.67 172.31c-.76.83-1.03 1.7-1.16 2.8-.14 1.16-.29 2.32-.43 3.48-.12.94.53 2.17 1.16 2.8.69.69 1.82 1.21 2.8 1.16 1.03-.05 2.09-.38 2.8-1.16.76-.83 1.03-1.7 1.16-2.8.14-1.16.29-2.32.43-3.48.12-.94-.53-2.17-1.16-2.8a4.21 4.21 0 0 0-1.24-.83c-.44-.11-.89-.21-1.34-.33h-.22c-1.03.05-2.09.38-2.8 1.16ZM41.72 181.85c-.48-.82-1.42-1.61-2.37-1.82-1.23-.28-2.49-.01-3.44.68.21.49.41.92.58 1.29.9 1.96.86 2.14 1.33 2.39.27.14 1.66.53 4.12 1.18l.18-.67c.28-.99.12-2.17-.4-3.05ZM37.21 172.22c.48.82 1.42 1.61 2.37 1.82 1.01.23 2.15.18 3.05-.4.81-.52 1.67-1.37 1.82-2.37.09-.55.17-1.1.26-1.65-2.85-.76-5.58-1.51-7.65-2.09-.09.55-.17 1.09-.26 1.64-.17 1.09-.18 2.07.4 3.05ZM32.49 170.3s-.04-.05-.05-.08c.16.66.34 1.42.56 2.28.04-.76-.11-1.52-.51-2.2Z"/></g><g id="Layer_12"><path class="cls-16" d="M134.13 138.85c.14-.2 1.9-3.2 2.26-4.69.36-1.49.42-2.2.96-2.63s1.57-.46 2.82-1.52 2.2-2.5 3.15-3.2c.95-.7.76-1.37 2.53-1.11 1.76.25 5.6 1.19 5.67 1.19s1-.14 1-.14-4.8 4.22-5.06 4.32-3.88 2.29-3.87 2.71-6.1 5.13-6.87 5.47c-.78.34-1.24.56-1.71.52s-.88-.91-.88-.91ZM140.95 139.03c-.26-.73-.24-2.02.75-2.64.99-.62 4.29-1.26 5.35-2.13 1.07-.88 5.19-1.68 5.88-2.31.69-.63 2.04-2.32 3.43-3.28s4.32-2.36 4.32-2.36 6.67 3.34 7.47 4c.8.66 3.47 3.79 4.33 5.94.86 2.15 1.72 4.72 2.44 6.3s4.99 7.18 6.61 8.4c1.63 1.22 6.73 6.06 7.51 7.84s1.84 5.8 1.41 8c-.43 2.2-1.33 7.12-2.54 8.71-1.21 1.59-1.87 2-1.99 3.37-.12 1.37-.49 2.71-1.2 3.37-.71.66-2.21 1.66-3.19 1.2-.99-.46-1.07-1.11-2.53-1.44-1.46-.33-5.79-1.31-7.25-1.84s-5.84-1.7-8.17-6.58c-2.32-4.89-3.66-7.48-3.78-10.81-.12-3.32-.15-11.68-.15-11.68s-3.16.86-4.41 1.55c-1.25.69-3.11 1.11-3.75.87s-1.14-.58-2-1.15-3.78-2.14-3.78-2.14l-2.55-1.62s-2-1.09-2.9-1.44c-.9-.35-2.05-.79-2.38-1.05s-1.89-.3-2.38-.31-1.25.09-1.38-.86c-.13-.94 0-1.28 1.62-2.07 1.63-.79 3.62-1.55 4.98-1.71 1.36-.16 3.64-.62 3.64-.62s-.7-.77-1.57-.76c-.87 0-1.73-.39-1.85-.74Z"/></g><g id="Layer_8"><path class="cls-21" d="M154.03 131.85c.14-.25.3-.48.47-.71.02-.02.03-.04.05-.07-.1.14-.02.03 0 0l.13-.16c.09-.11.19-.21.29-.32.19-.2.39-.39.61-.57.02-.01.14-.13.16-.13-.07.05-.08.07-.05.04.01 0 .02-.02.03-.03.03-.02.05-.04.08-.06.12-.09.24-.17.37-.25.28-.18.42-.57.23-.86-.18-.28-.57-.42-.86-.23a8.06 8.06 0 0 0-2.59 2.7c-.17.29-.08.7.23.86s.68.08.86-.23ZM153.49 126.27c-.19-.32-.55-.37-.86-.23-.27.13-.65.2-.95.21-.42.01-.7-.02-1.08-.1-.83-.17-1.62-.47-2.42-.7s-1.66-.43-2.51-.37c-.91.07-1.7.41-2.41.97-.63.5-1.13 1.13-1.63 1.74s-1.04 1.23-1.64 1.62c-.72.46-1.5.64-2.25 1.07-.39.22-.75.51-1.02.87-.33.42-.5.93-.62 1.44-.26 1.1-.54 2.17-1 3.2-.47 1.03-1.05 2.03-1.75 2.92-.2.25-.28.65 0 .89 1.39 1.2 3.24.38 4.55-.51 1.42-.97 2.7-2.13 3.79-3.46.57-.69 1.08-1.42 1.55-2.19l1.34-.18c.14-.02.31-.17.38-.29.08-.13.11-.33.06-.49s-.14-.3-.29-.38l-.15-.06a.653.653 0 0 0-.34 0l-1.57.21c-.14.02-.31.17-.38.29a.37.37 0 0 0-.05.11c-.76 1.27-1.67 2.44-2.73 3.48-.53.52-1.09 1.01-1.68 1.45-.55.41-1.15.85-1.79 1.11-.35.14-.69.24-1.03.25-.1 0-.19 0-.28-.02 1.04-1.48 1.84-3.12 2.31-4.87.24-.87.27-1.9.99-2.47.58-.46 1.44-.68 2.15-1.04 1.51-.75 2.33-2.23 3.49-3.37.53-.53 1.07-.88 1.82-1.01.07-.01.07-.01.18-.02.09 0 .19-.01.28-.01.21 0 .41.01.61.04.01 0 .06.01.07.01.05 0 .09.02.14.03.09.02.19.04.29.06.22.05.43.11.64.16 1.83.52 3.71 1.36 5.57.51.31-.14.38-.59.23-.86Z"/><path class="cls-11" d="M121.67 148.45v-.01.01zM132.63 148.17s0-.03 0 0ZM132.76 147.71s0-.01.01-.02c0 0 0 .01-.01.02Z"/><path class="cls-11" d="M165.03 121.41c-.26-.83-1.21-1.22-2-1.3-.96-.1-1.97.35-2.82.75-.8.38-1.57.87-2.29 1.43h-.01c-4.06 2.99-8.06 6.05-11.99 9.21-3.82 3.06-7.56 6.22-11.25 9.43-1 .87-1.97 1.8-3.03 2.62-.93.72-2.01 1.33-3.22 1.3h-.07c-.84-.23-1.78-.08-2.57.25-.95.39-1.73 1.04-2.52 1.67l-5.2 4.09-2.97 2.34c-.27.21-.22.67 0 .89.26.26.62.21.89 0l4.95-3.9 2.47-1.95s.09-.07.13-.11c.68-.08 1.35-.07 2.01.08-2.09 1.49-4.18 3-6.17 4.62-.76.62-1.51 1.27-2.22 1.96-.59.56.3 1.45.89.89 2.52-2.42 5.42-4.4 8.25-6.44l.67-.48c.21.11.42.24.62.37.09.06.18.14.27.21-2.19 1.66-4.35 3.36-6.49 5.09-.77.63-1.54 1.26-2.3 1.89-.26.22-.22.67 0 .89.26.26.63.22.89 0 2.64-2.2 5.33-4.35 8.07-6.43l.72-.54c.41.52.74 1.09 1.04 1.68l-.63.54a80.573 80.573 0 0 1-4.7 3.76c-1.02.75-2.05 1.48-3.1 2.19-.28.19-.41.55-.23.86.16.28.58.42.86.23 1.93-1.31 3.82-2.69 5.65-4.14.83-.66 1.64-1.34 2.44-2.03.41-.35.82-.71 1.22-1.07s.82-.7 1.18-1.09c.47-.5.83-1.12.8-1.83-.02-.58-.25-1.11-.53-1.62v-.03c.03-.09.02-.03 0 0 .03-.04.05-.13.07-.16.06-.12.13-.24.2-.36.16-.27.34-.53.53-.78.02-.02.04-.05.06-.07l.03-.03c.06-.07.12-.15.18-.22.13-.15.25-.3.38-.45.22-.25.26-.65 0-.89a.8.8 0 0 0-.33-.17c0-.17.03-.36.11-.56.21-.51 1.58-1.24 2.3-1.84.05-.04.1-.08.17-.13.02.15.07.29.18.38.27.25.62.23.89 0 .55-.48 1.12-.95 1.69-1.4.61-.49 1.12-.89 1.73-1.34.26-.2.42-.55.23-.86a.725.725 0 0 0-.41-.29c.03-.32.03-.69.11-1.02.02-.08.07-.2.15-.34 1.03-.86 2.07-1.72 3.11-2.58l-.04.28s1.69-.55 1.98-.68 3.64-1.39 3.77-1.43l.08-.04c0 .01 0 .02.01.03.17.28.58.41.86.23 3.07-2.01 6.13-4.04 9.13-6.15.76-.54 1.53-1.09 2.28-1.64.71-.52 1.5-1 2.1-1.65.5-.55.97-1.33.73-2.1Z"/><path class="cls-21" d="M191.19 164.33c-.08-2.04-.64-3.96-1.54-5.76-.98-4.52-2.22-8.98-3.75-13.34-1.09-3.09-2.32-6.13-3.67-9.1-.14-.31-.59-.39-.86-.23-.32.19-.37.55-.23.86 2.35 5.15 4.28 10.49 5.78 15.95.25.91.48 1.83.71 2.75-.41-.5-.86-.98-1.33-1.44-1.31-1.27-2.77-2.37-4.19-3.51-1.42-1.14-2.8-2.29-3.97-3.67-1.17-1.38-1.98-2.96-2.66-4.57-1.43-3.41-2.32-7.14-4.6-10.12-.29-.37-.59-.74-.91-1.08-.04-.04-.08-.07-.12-.1-.17-.18-.34-.36-.53-.53-1.23-1.11-2.72-1.97-4.17-2.73-1.56-.82-3.2-1.5-4.89-2.02-.78-.24-1.11.97-.34 1.22 2.78.86 5.49 2.16 7.84 3.89.5.37.97.79 1.37 1.27.36.44.62.96.85 1.48.46 1.04.84 2.3 1.03 3.48.08.52.13 1.1.09 1.66-.02.28-.03.37-.09.64s-.14.56-.21.84c-.29 1.04-.63 1.93-1.1 2.85-.22.43-.47.85-.74 1.25-.3.46-.5.71-.84 1.11a13.718 13.718 0 0 1-1.51 1.49c-.1.08-.2.16-.29.24-.03.02-.06.05-.09.07-.02.02-.12.09-.14.1-2 1.5-4.26 2.45-6.62 3.19-.09.03-.17.08-.24.14-.04 0-.08.01-.12.03-2.12.81-4.29 1.5-6.49 2.08-.42.11-.87.27-1.3.09-.45-.19-.86-.54-1.26-.82-.93-.64-1.87-1.29-2.8-1.94-.04-.03-.09-.06-.13-.09.65.24 1.3.5 1.92.8a.3.3 0 0 0 .1.04c.15.09.33.12.51.08 3.32-.73 6.5-2.06 9.36-3.89l.18.18c.06.06.12.11.2.13.08.04.16.06.24.05.09 0 .17-.01.24-.05.08-.03.14-.07.2-.13l.1-.13c.06-.1.09-.2.09-.32l-.02-.17a.606.606 0 0 0-.16-.28l-.49-.49a.435.435 0 0 0-.2-.13c-.05-.03-.11-.04-.16-.05-.17-.05-.35-.05-.5.05-2.8 1.86-5.91 3.19-9.18 3.94-2.86-1.36-5.99-1.93-8.95-3-.12-.04-.23-.09-.35-.13 1.68 0 3.36.02 5.04.03h4.3c.05 0 .1 0 .15-.02h.02c1.45-.29 2.85-.78 4.21-1.36 1.49-.64 2.92-1.41 4.25-2.32.63-.43 1.23-.88 1.81-1.37l.18.22c.06.06.12.11.2.13.08.04.16.06.24.05.09 0 .17-.01.24-.05.08-.03.14-.07.2-.13.11-.12.19-.28.18-.45l-.02-.17a.606.606 0 0 0-.16-.28l-.52-.65a.435.435 0 0 0-.2-.13.418.418 0 0 0-.24-.05.47.47 0 0 0-.24.05c-.07.02-.13.06-.19.12-.07.03-.13.07-.18.12-2.26 2-5.04 3.51-7.9 4.46-.68.23-1.38.42-2.09.57-4.53.04-9.06-.04-13.59-.02-.24 0-.49 0-.73-.03a2.49 2.49 0 0 1-.37-.09c-.02 0-.06-.02-.08-.03 0 0-.13-.08-.14-.08-.14-.11-.18-.22-.22-.32 0-.02-.01-.03-.01-.04v-.11c0-.03.02-.06.02-.08-.03.1.06-.06 0 .01a.76.76 0 0 0 .15-.28c1.46-1.18 3.28-1.8 5.1-2.18 1.98-.41 4-.56 6.01-.76l4.02-.4c.13.07.28.09.43.04 1.24-.45 2.47-.93 3.61-1.58.7-.4 1.36-.85 1.99-1.34.45-.25.87-.57 1.2-.96l.09-.09c1.39-1.08 2.53-2.43 3.33-4 .12.09.25.17.39.24.07.05.15.07.24.08.08.02.17.01.25-.01a.53.53 0 0 0 .21-.11c.07-.04.12-.1.16-.18.08-.15.12-.32.06-.49a.647.647 0 0 0-.29-.38c-.12-.06-.22-.12-.32-.2-.12-.1-.24-.22-.34-.34a.435.435 0 0 0-.2-.13.418.418 0 0 0-.24-.05.47.47 0 0 0-.24.05c-.08.03-.14.07-.2.13-.05.05-.09.11-.12.17-.11.05-.21.13-.27.25-.36.77-.86 1.58-1.34 2.18-.14.18-.29.35-.45.52-.14-.96-.75-1.82-1.55-2.41-1.19-.88-2.73-.94-4.14-.7-1.54.26-3.07.85-4.52 1.42-1.52.59-3 1.28-4.46 2.01-1.24.57-2.57 1.36-2.82 2.82-.12.71.04 1.41.53 1.95.28.31.65.52 1.05.66-1.72.22-3.43.52-5.04 1.16-1.09.43-2.1 1-3.01 1.74-.1.08-.16.2-.18.32-.69.86-.24 2.13.73 2.58.53.25 1.12.29 1.7.29h1.45c.05.07.11.13.19.17 1.82.96 3.77 1.55 5.73 2.12.04.04.08.08.13.12 1.94 1.37 3.88 2.73 5.84 4.08.44.3.87.65 1.35.89.56.29 1.13.34 1.74.22 1.13-.22 2.25-.59 3.35-.93 1.08-.34 2.16-.7 3.22-1.1 0 1.43-.02 2.86-.03 4.3 0 1.49-.01 2.99.09 4.48.19 2.83.77 5.63 1.76 8.28.99 2.66 2.24 5.1 4.05 7.18 1.59 1.83 3.64 3.22 5.86 4.19 2.4 1.05 4.97 1.63 7.57 1.88.11.1.27.16.43.18.41.05.86.48 1.22.74.46.33.98.59 1.54.7 1.2.23 2.42-.08 3.34-.89s1.3-1.89 1.3-3.04c0-.6-.11-1.23.06-1.82.1-.35.35-.76.57-1.04.27-.34.57-.66.85-.99.04-.04.08-.08.12-.13.04-.05.07-.1.11-.15.19-.23.36-.47.51-.72.03-.04.06-.08.08-.12a.36.36 0 0 0 .08-.12s0-.02.01-.03c1.16-1.82 1.93-3.84 2.22-6 .36-1.5.55-3.04.49-4.59Zm-49.81-25.93c-.09-.45.17-1 .53-1.36.47-.47 1.1-.75 1.69-1.02h.02c2.23-1.11 4.5-2.08 6.88-2.84 1.22-.39 2.57-.74 3.84-.42.93.23 1.79.94 2.03 1.86.15.56-.01 1.08-.35 1.5-.32.26-.63.51-.96.76-.83.45-1.74.69-2.67.96-2.66.78-5.37 1.53-8.16 1.56-.64 0-1.29.01-1.88-.14-.48-.13-.88-.35-.98-.84Zm48.17 29.27c-.02.3-.04.6-.08.89-.34 1.43-.82 2.84-1.4 4.19-.15.36-.32.72-.48 1.08-.07.07-.13.17-.17.27-.04.12-.11.26-.18.4-.16.24-.33.48-.5.72-.26.31-.53.6-.79.91-.29.34-.59.73-.8 1.15-.26.54-.37 1.1-.37 1.7 0 .56.09 1.15-.02 1.7-.09.41-.26.79-.51 1.12-.58.74-1.52 1.11-2.45.96-.56-.09-1-.36-1.45-.7a4.67 4.67 0 0 0-1.02-.61.688.688 0 0 0-.54-.31c-4.56-.35-9.3-1.82-12.56-5.16-1.79-1.84-3.06-4.17-4.01-6.54-1-2.49-1.66-5.13-1.91-7.81-.15-1.62-.16-3.25-.15-4.88 0-1.67.02-3.34.03-5.01 0-.07-.01-.13-.03-.18 2.14-.7 4.24-1.59 6.1-2.87 1.73-1.19 3.2-2.71 4.25-4.54.54-.94.97-1.95 1.3-2.98.37-1.16.63-2.31.53-3.53 0-.05-.01-.1-.02-.15.53 1.33.99 2.69 1.5 4 .66 1.71 1.39 3.41 2.43 4.93 1.02 1.5 2.31 2.77 3.69 3.94 2.68 2.27 5.82 4.25 7.72 7.25.28.43.53.89.77 1.34.12.57.24 1.14.36 1.7.47 2.31.88 4.63.75 7Z"/></g><g id="Layer_5"><path class="cls-21" d="M89.52 53.22c-.92.11-1.84.25-2.76.31-.68.04-1.37.03-1.99-.24.35-2.66.73-5.33 1.12-7.98.05-.34-.08-.68-.44-.78-.3-.08-.72.1-.78.44a482.4 482.4 0 0 0-1.19 8.5c-.01.09 0 .18.05.26 0 .19.09.37.3.5 1.7 1 3.85.47 5.69.25.34-.04.63-.26.63-.63 0-.31-.29-.67-.63-.63ZM77.47 43.96l.12.12c.06.06.12.11.2.13.08.04.16.06.24.05.09 0 .17-.01.24-.05.08-.03.14-.07.2-.13l.1-.13c.06-.1.09-.2.09-.32l-.02-.17a.606.606 0 0 0-.16-.28l-.12-.12a.435.435 0 0 0-.2-.13.418.418 0 0 0-.24-.05.47.47 0 0 0-.24.05c-.08.03-.14.07-.2.13l-.1.13c-.06.1-.09.2-.09.32l.02.17c.03.11.08.2.16.28ZM95.78 43.15v.12c0 .09.01.17.05.24.03.08.07.14.13.2s.12.11.2.13c.08.04.16.06.24.05l.17-.02c.11-.03.2-.08.28-.16l.1-.13c.06-.1.09-.2.09-.32v-.12a.47.47 0 0 0-.05-.24.533.533 0 0 0-.13-.2.435.435 0 0 0-.2-.13.418.418 0 0 0-.24-.05l-.17.02c-.11.03-.2.08-.28.16l-.1.13c-.06.1-.09.2-.09.32Z"/></g><g id="Layer_4"><path class="cls-21" d="M120.68 41.63c-.03-.89-.08-1.73-.26-2.57-.32-1.54-1.24-2.99-2.81-3.5a2.89 2.89 0 0 0-2.46.33c-.25.16-.47.36-.67.57-.22-1.37-.44-2.74-.66-4.12-.01-.43-.02-.7-.02-.7l-.15.03a.688.688 0 0 0-.67-.22c-.23.06-.37.23-.42.43l-.27.05-5.52-.19c-.2-.21-.5-.29-.78-.13-.27.16-.43.58-.23.86l7.87 10.89c.2.28.55.41.86.23a.47.47 0 0 0 .15-.13c.24-.09.4-.32.42-.59.09-1.55-.07-3.09-.3-4.62.22-.44.49-.85.88-1.17.37-.31.87-.46 1.3-.39 1.16.19 1.88 1.25 2.17 2.35.17.64.23 1.3.27 1.96.04.75.07 1.51.01 2.26-.1 1.19-.5 2.41-1.45 3.16-.18.14-.45.31-.68.38-.26.08-.49.07-.75 0-.54-.16-1-.6-1.3-1.11a.57.57 0 0 0-.7-.27c-.24.05-.44.22-.47.51v.14c.02.8-.03 1.65-.02 2.48.01 1.09.02 2.19.02 3.28 0 2.17-.03 4.34-.07 6.51-.09 4.32-.24 8.64-.34 12.96-.06 2.52-.09 5.04-.09 7.55 0 .81 1.26.81 1.26 0 0-4.43.12-8.86.24-13.29.13-4.43.25-8.63.26-12.94 0-1.22 0-2.44-.02-3.66 0-.46 0-.92.01-1.38.79.52 1.76.69 2.7.27 1.38-.63 2.23-2.11 2.51-3.55.17-.88.19-1.78.16-2.68Z"/><path class="cls-22" d="M115.65 31.73c-.3-2.36-.93-4.63-1.89-6.81-.47-1.07-1.01-2.1-1.63-3.09-.3-.49-.63-.96-.97-1.43-.34-.46-.68-.91-1.12-1.26-1.04-.82-2.31-.78-3.55-.6-.9-4.38-4.27-8.03-8.53-9.41-2.36-.76-4.95-.85-7.36-.26-2.16.53-4.16 1.63-5.81 3.11-1.69 1.51-3 3.43-3.78 5.56-1.17-.4-2.5-.11-3.53.51-1.09.66-1.88 1.6-2.62 2.58a18.066 18.066 0 0 0-3.61 10.59c-.01.81 1.25.81 1.26 0a16.84 16.84 0 0 1 2.94-9.27c.62-.91 1.3-1.77 2.14-2.45.21-.17.45-.33.69-.46.27.92.86 2.75 1.82 4.68 1.38 2.76 1.5 7.5 1.5 7.5l8.58.64 24.21-.14c.04.34.26.63.63.63.31 0 .67-.29.63-.63Z"/><path class="cls-21" d="M101.01 66.74c-.16-.28-.58-.42-.86-.23-.56.38-1.15.71-1.76 1-.88-.25-1.79-.33-2.69-.4-.98-.08-2-.14-3.01-.2-1.99-.12-3.98-.22-5.96-.43a44.41 44.41 0 0 1-3.04-.42c-.69-.47-1.34-.98-1.96-1.54-2.44-2.18-4.34-4.97-5.66-7.98-1.55-3.57-2.28-7.49-2.53-11.37-.13-2-.14-4.01-.06-6.01.04-.99.1-2 .2-3.01 2.52.64 5.2.62 7.74-.06a15.26 15.26 0 0 0 6.62-3.67c.59-.56-.3-1.45-.89-.89s-.09.08-.14.13l-4.44.06c-.05-2.98-.75-5.93-1.96-8.65-1.27-2.88-3.17-5.51-5.64-7.48-1.58-1.26-3.35-2.37-5.43-2.45-.27 0-.5.18-.59.42a14.625 14.625 0 0 0-3.13 8.6v.55c-.75-.36-1.55-.61-2.37-.74-.15-.02-.31 0-.44.05h-.02c-.32 0-.66.29-.63.63.32 3.83 2.15 7.4 4.94 10-.81.2-1.6.53-2.3 1-.17.12-.29.3-.31.5-.04.12-.05.24-.01.37.56 1.67 1.46 3.26 2.8 4.42 1.26 1.09 2.95 1.83 4.67 1.82-.01 1.03 0 2.06.04 3.1.16 4.11.79 8.25 2.27 12.1 1.26 3.26 3.13 6.31 5.63 8.77.74.73 1.54 1.41 2.38 2.02.56.94 1.29 1.79 2.12 2.5.04 3.27-.15 6.53-.59 9.78-.05.34.08.68.44.78.29.08.73-.1.78-.44.41-3.06.63-6.12.64-9.2.85.52 1.78.91 2.75 1.15 2.32.57 4.82.07 7-.79 1.18-.46 2.34-1.05 3.31-1.87.24-.11.49-.23.73-.36.39-.21.76-.44 1.12-.68.28-.19.41-.55.23-.86Z"/><path class="cls-22" d="M83.01 32.36c4.14.11 8.29.17 12.43.2 4.14.03 8.29.02 12.43-.03 2.34-.03 4.69-.07 7.03-.12.81-.02.81-1.28 0-1.26-4.14.09-8.29.15-12.43.17-4.14.02-8.29 0-12.43-.07-2.34-.04-4.69-.08-7.03-.14-.81-.02-.81 1.24 0 1.26Z"/></g><rect x="110.7" y="106.81" width="18.76" height="10.22" rx="4.99" ry="4.99" style="fill:#ffb5c4"/></g><g id="Outline"><path class="cls-6" d="M60.8 115.46c-.3-.12-1.34 1.56-2.62 4.47-1.28 2.91-2.75 7.06-3.9 11.78-1.14 4.72-1.75 9.08-1.95 12.25-.2 3.17-.05 5.15.27 5.18.7.05 1.75-7.63 4.02-16.86 2.23-9.24 4.82-16.55 4.17-16.82ZM132.96 112.08c-.64.18 0 4.47 1.43 9.59s3.11 9.12 3.75 8.94c.64-.18 0-4.47-1.43-9.59s-3.11-9.12-3.75-8.94ZM122.36 80.12c-.1-.14-.73.08-1.79.59-.26.13-.55.27-.87.43-.32.15-.68.29-1.06.46-.76.32-1.59.75-2.57 1.09-.48.19-.98.38-1.51.58-.52.2-1.09.35-1.67.54-1.14.41-2.4.69-3.72 1.03-2.65.58-5.6 1.01-8.73 1.14-3.13.08-6.1-.16-8.79-.56-1.33-.25-2.61-.45-3.77-.78-.58-.15-1.16-.27-1.7-.43-.54-.17-1.05-.33-1.54-.48-1-.27-1.86-.65-2.64-.92-.39-.14-.76-.26-1.09-.39-.33-.14-.63-.26-.9-.37-1.09-.43-1.74-.61-1.83-.47-.09.14.4.59 1.38 1.3.25.17.52.36.82.57.31.2.66.38 1.03.59.75.4 1.6.9 2.6 1.29.5.21 1.02.43 1.56.66.55.22 1.14.39 1.74.59 1.2.43 2.53.71 3.92 1.04 2.81.55 5.96.87 9.27.78 3.31-.13 6.43-.66 9.19-1.39 1.37-.42 2.68-.79 3.85-1.3.59-.24 1.17-.45 1.7-.7.53-.26 1.03-.52 1.52-.76.98-.46 1.79-1.01 2.51-1.46.36-.23.7-.44.99-.65.29-.23.55-.44.78-.63.93-.77 1.39-1.25 1.29-1.38Z"/><path class="cls-2" d="M55.38 98.89c0-.19-1.92-.2-4.96-.56-.76-.09-1.59-.19-2.47-.36-.89-.13-1.82-.35-2.81-.55-1.96-.47-4.09-1.08-6.27-1.89-2.17-.84-4.17-1.79-5.94-2.74-.87-.5-1.72-.96-2.47-1.45-.77-.46-1.46-.94-2.09-1.37-2.51-1.75-3.94-3.01-4.08-2.87-.1.1 1.14 1.59 3.57 3.56.61.49 1.28 1.01 2.05 1.52.74.54 1.59 1.04 2.47 1.58 1.79 1.03 3.83 2.05 6.06 2.9 2.24.84 4.44 1.44 6.46 1.85 1.02.18 1.98.37 2.9.46.91.13 1.76.18 2.54.22 3.12.14 5.04-.15 5.03-.29Z"/><path class="cls-20" d="M106.77 21.56c0-.33-5.24-.46-11.69-.28-6.45.18-11.67.59-11.66.92s5.24.46 11.69.28c6.45-.18 11.67-.59 11.66-.92ZM113.2 26.74c-.01-.33-6.31-.38-14.07-.09-7.76.28-14.04.78-14.03 1.11.01.33 6.31.38 14.07.09 7.76-.28 14.04-.78 14.03-1.11ZM102.17 15.02c-.01-.33-3.33-.5-7.42-.37s-7.4.5-7.39.83c.01.33 3.33.5 7.42.37s7.4-.5 7.39-.83Z"/><path class="cls-14" d="M93.41 160.38c.31-1.68 1.04-3 1.78-3.93a7.65 7.65 0 0 1 2.02-1.81c-.43.44-1.06 1.09-1.68 2.05-.62.96-1.24 2.23-1.53 3.79-.27 1.57-.13 2.97.12 4.09.25 1.12.62 1.95.87 2.51-.38-.48-.9-1.26-1.27-2.4-.37-1.13-.6-2.62-.31-4.3Z"/><path class="cls-23" d="M94.3 160.54c.37-2.04 1.39-3.71 2.28-4.76.89-1.07 1.62-1.6 1.52-1.76-.07-.13-.99.15-2.13 1.16-1.14.98-2.44 2.8-2.86 5.15-.42 2.35.18 4.5.91 5.82.73 1.34 1.49 1.93 1.6 1.83.15-.11-.35-.87-.82-2.18-.48-1.29-.86-3.21-.5-5.26Z"/><path class="cls-14" d="M86.98 163.96c-1.24-.58-2.41-.84-3.39-.94-.98-.11-1.75 0-2.28.03.49-.18 1.26-.45 2.3-.45 1.03-.01 2.31.19 3.63.81 1.31.64 2.28 1.51 2.91 2.32.65.8.93 1.57 1.09 2.07-.31-.43-.7-1.1-1.41-1.79-.69-.7-1.63-1.45-2.86-2.05Z"/><path class="cls-23" d="M87.38 163.14c-.92-.43-1.86-.68-2.73-.79-.44-.03-.85-.08-1.24-.04-.39 0-.75.06-1.07.13-1.3.27-1.96.78-1.9.91.07.18.82-.03 2-.06.3 0 .62-.01.96.03.34 0 .71.08 1.09.14.76.16 1.57.41 2.38.78.8.39 1.5.87 2.1 1.36.28.26.57.5.79.76.25.24.44.5.62.73.72.94 1.03 1.65 1.21 1.6.14-.03.12-.87-.49-2.05a5.42 5.42 0 0 0-.57-.91c-.22-.33-.51-.62-.81-.94a9.285 9.285 0 0 0-2.33-1.63Z"/><path class="cls-14" d="M54.24 167.7c-.56-1.68-.83-2.96-.89-3.63.36.57.91 1.76 1.47 3.44s.83 2.96.89 3.63c-.36-.57-.91-1.76-1.47-3.44Z"/><path class="cls-23" d="M55.1 167.41c-.75-2.26-1.62-4.01-1.94-3.9-.32.11.04 2.02.79 4.29s1.62 4.01 1.94 3.9c.32-.11-.04-2.02-.79-4.29Z"/><path class="cls-14" d="M76.27 157.03c-.8 1.96-1.52 3.35-1.97 4.01.15-.79.61-2.28 1.41-4.24.8-1.96 1.52-3.35 1.97-4.01-.15.79-.61 2.28-1.41 4.24Z"/><path class="cls-23" d="M75.43 156.68c-1.08 2.64-1.7 4.88-1.39 5.01.31.13 1.43-1.91 2.51-4.55 1.08-2.64 1.7-4.88 1.39-5.01-.31-.13-1.43 1.91-2.51 4.55Z"/><path class="cls-14" d="M80.44 160.06c-1.29.46-2.28.65-2.81.67.43-.32 1.32-.79 2.61-1.24 1.29-.46 2.28-.65 2.81-.67-.43.32-1.32.79-2.61 1.24Z"/><path class="cls-23" d="M80.14 159.2c-1.73.61-3.05 1.37-2.94 1.68.11.31 1.61.07 3.34-.54 1.73-.61 3.05-1.37 2.94-1.68-.11-.31-1.61-.07-3.34.54Z"/><path class="cls-2" d="M70.58 167.68c-.03-.33-.8-.53-1.7-.44-.91.09-1.62.43-1.58.77s.8.53 1.7.44 1.62-.43 1.58-.77Z"/><path class="cls-17" d="M70.59 168.07c-.04-.33-1.26-.44-2.71-.26-1.45.19-2.59.61-2.55.94.04.33 1.26.44 2.71.26 1.45-.19 2.59-.61 2.55-.94ZM71.6 171.04c-.13-.31-1.12-.18-2.2.28-1.09.46-1.86 1.09-1.73 1.39s1.12.18 2.2-.28c1.09-.46 1.86-1.09 1.73-1.39Z"/></g></svg>