<svg xmlns="http://www.w3.org/2000/svg" viewBox="0 0 200 200"><defs><style>.cls-1{fill:none}.cls-3{fill:#f6c243}.cls-4{fill:#f75e28}.cls-5{fill:#fff}.cls-6{fill:#f1efed}.cls-11{fill:#ff8000}.cls-12{fill:#a08675}.cls-14{fill:#c1dade}.cls-15{fill:#b4cacc}.cls-16{fill:#bf9dd6}.cls-18{fill:#5b3d5b}.cls-19{fill:#78577a}</style></defs><path d="M11.76 169.61c82.98 70.54 208.92-16.81 174.57-119.27C120.19-9.31-42.13 80.13 11.76 169.61Z" style="fill:#efedea" id="BG_Strong"/><g id="Illustrations"><path d="M191.09 133.12c-2.78 2.73-5.3-.69-8.39.28.92-8.18 14.65-7.67 10.65-18.35-2.47-5.62 7.7-11.85 1.2-16.09-5.39-.42-3.95 5.51-13.34 4.9-6.51 3.37-.64 10.99-11.3 12.45-1.61-7.34 8.79-12.34 2.2-19.59-5.94-3.14.51-10.16-4.17-13.48-6.05-2.18-8.24 4.66-8.06 9.43-1.75 13.65-19.66 9.25-9.53 30.46 4.63 13.87-15.74 17.2-1.29 32.43.59 4.49 4.88 3.94 8.76 3.36 2.93 3.25 10.34 3.94 12.82-.51 1.08-2.42 1.26-6.06 4.89-4.26 6.27 1.75 5.51-7.44 10.22-7.9 5.72 1.01 5.75-.39 7.1-5.36 4.41-3.27 5.9-10.19-1.74-7.77Zm-42.58 19.99c-2.07-3.02-3.84-6.74-3.61-10.48 17.37-17.89-7.93-32.37 13.06-41.99-.14 6.52.67 27.08 1.96 36.55-7.52 2-13.44 7.47-11.41 15.92Zm2.78 4.89c-.32-.61.1-.09.37.11-.13-.03-.34.06-.37-.11Zm8.8-19.57c2.24 10.01.64 12.86-7.58 18.97-7.59-6.64-1.3-17.77 7.58-18.97Zm-3.76 18.53c-1.02 1.31-.36 1.28-3 1.2 5.58-6.22 5.17 1.97 3-1.2Zm2.44-3.19c4.62-5.67 2.58-.94 3.67 2.69-3.13 1.87-4.46.84-3.67-2.69Zm.33 5.01c.96-.43 2.44-.63 3.49-1.18 1.09 3.76-1.07 2.35-3.49 1.18Z" style="fill:#8fa286"/><g id="Bag"><path class="cls-11" d="M133.42 50.62c.33-.06.6-.27.6-.64 0-.31-.3-.69-.65-.65-6.45.82-12.9 1.59-19.36 2.29l-2.24.24c-.12-2.2-.36-4.39-.7-6.57-.49-3.14-1.21-6.26-2.21-9.28-1-2.99-2.35-5.84-4.4-8.26a18.903 18.903 0 0 0-6.41-4.87c-2.63-1.22-5.49-1.9-8.4-1.84-2.99.06-5.93.82-8.59 2.18-5.24 2.68-8.68 7.75-10.36 13.28-1.86 6.12-1.53 12.61-.82 18.89l-5.59.39c-6.35.44-12.71.87-19.06 1.31l-2.58.18c-.82.06-.83 1.35 0 1.29.51-.04 1.03-.07 1.54-.11 2.07.72 5.62 1.96 6.85 2.37 1.77.59 13.49 4 13.49 4s4.55-.32 8.14-.48c3.6-.16 27.4-2.17 31.57-2.42 4.16-.25 25.25-1.87 28.53-2.27l1.22-.12-.6-8.92ZM72.8 45.18c.04-1.12.13-2.23.27-3.34.33-2.31.91-4.58 1.79-6.74.68-1.57 1.53-3.07 2.56-4.43a17.99 17.99 0 0 1 2.85-2.87c1.09-.81 2.26-1.49 3.5-2.04 1.33-.54 2.71-.92 4.13-1.13 1.36-.16 2.74-.17 4.1 0 1.36.21 2.69.58 3.97 1.09 1.27.56 2.48 1.26 3.59 2.1 1.03.82 1.97 1.75 2.8 2.78.97 1.29 1.74 2.7 2.38 4.18 1.29 3.12 2.11 6.45 2.73 9.76.17.93.32 1.87.45 2.81.21 1.62.36 3.25.44 4.88-3.75.38-7.51.74-11.26 1.08-5.33.48-10.67.9-16 1.3-2.59.19-5.18.38-7.78.56-.37-3.32-.64-6.65-.51-9.98Z"/><path class="cls-4" d="M155.29 56.22c-3.04-.8-6.1-1.53-9.14-2.34a71.1 71.1 0 0 1-6.99-2.25c-1.83-.69-3.65-1.44-5.45-2.21-.32-.14-.69-.1-.88.23 0 0 0 .02-.01.03-.07.1-.11.23-.1.36l.62 8.56c.03.35.28.65.65.65.13 0 .26-.05.37-.12l5.41-.52 13.47-1.59 1.73.45c.81.21 1.15-1.03.34-1.25Z"/><path d="M162.77 169.13s.02-.1.02-.15v-.02a923.8 923.8 0 0 0-.37-22.33c-.21-7.27-.51-14.54-.89-21.81-.38-7.24-.84-14.47-1.37-21.7-.53-7.2-1.13-14.4-1.79-21.59-.67-7.31-1.4-14.62-2.17-21.92-.1-.91-.19-1.81-.29-2.71 0-.31-.3-.69-.65-.65-6.45.82-12.9 1.59-19.36 2.29-3.1.34-6.2.65-9.3.96-.13-1.91-.35-3.81-.64-5.7-.49-3.14-1.21-6.26-2.21-9.28s-2.35-5.84-4.4-8.26a18.903 18.903 0 0 0-6.41-4.87c-2.63-1.22-5.49-1.9-8.4-1.84-2.99.06-5.93.82-8.59 2.18-5.24 2.68-8.68 7.75-10.36 13.28-1.75 5.76-1.56 11.86-.94 17.79-5.84.4-11.68.8-17.53 1.21l-2.58.18c-.86.06-.83 1.35 0 1.29h.05c.32 3.8 1.97 23.53 2.51 30.56.61 7.79 1.32 18.64 1.83 26.63.5 7.99 1.93 45.13 1.93 45.13s.12 6.76.31 8.92c-.76.15-.71 1.33.09 1.28 6.5-.46 13-.92 19.49-1.39 5.66-.41 11.32-.83 16.97-1.28 5.36-.43 10.72-.89 16.08-1.39 5.61-.53 11.21-1.1 16.81-1.72 6.32-.7 12.64-1.45 18.95-2.25l2.57-.33c.11-.01.22-.05.32-.1.15-.07.27-.2.31-.4ZM87.68 53.66c.04-1.13.13-2.25.27-3.37.33-2.3.91-4.57 1.8-6.73.68-1.56 1.52-3.05 2.55-4.41.84-1.06 1.8-2.03 2.86-2.88 1.08-.81 2.25-1.49 3.49-2.03 1.32-.54 2.7-.92 4.12-1.13 1.37-.17 2.76-.17 4.14 0 1.36.21 2.69.58 3.97 1.1 1.27.56 2.46 1.26 3.57 2.09 1.03.82 1.97 1.75 2.8 2.79.96 1.28 1.73 2.69 2.38 4.16 1.29 3.12 2.12 6.46 2.73 9.77.17.92.32 1.85.45 2.78.17 1.34.3 2.68.39 4.02l-4.21.39c-5.33.48-10.67.9-16 1.3-4.96.37-9.93.71-14.89 1.05-.31-2.96-.51-5.92-.4-8.9Z" style="fill:#fbae5e"/><path d="M71.17 155.55c-.25-7.26-.57-14.56-.95-21.83-.38-7.26-.82-14.52-1.31-21.78-.49-7.32-1.03-14.64-1.61-21.96-.59-7.46-1.21-14.91-1.85-22.36l-.24-2.79c0-.05-.01-.09-.02-.13-.03-.22-.17-.41-.45-.49C59 62.7 53.32 60.95 47.7 59.02c-1.55-.53-3.1-1.08-4.64-1.64a.62.62 0 0 0-.19-.07h-.02c-.33-.12-.71.13-.79.45-.02.06-.02.11-.02.17-.48 6.86-.96 13.73-1.43 20.59-.48 7.13-.94 14.27-1.35 21.41-.41 7.14-.78 14.38-1.06 21.58-.29 7.13-.5 14.25-.6 21.39-.1 6.91-.1 13.83.05 20.74l.06 2.55c0 .06.01.12.03.18.04.17.14.32.3.38 4.15 1.76 8.36 3.38 12.61 4.9 4.31 1.54 8.66 2.97 13.04 4.28 2.39.71 4.79 1.39 7.2 2.03.2.05.38.01.51-.08.18-.1.31-.28.3-.54-.1-7.26-.27-14.52-.52-21.78Z" style="fill:#e5a355"/><path class="cls-1" d="M132.1 158.73c-.01-.48.19-.91.52-1.2 1.86-1.6 2.94-4.1 2.69-6.78 0-.03 0-.06-.01-.1s-.01-.1-.02-.15l-.01-.09c-1.28-9.78-2.51-20.94-2.85-29.83v-.11c-.09-.81-.8-1.39-1.58-1.3-.75.08-1.29.75-1.26 1.51.22 6.08.87 13.26 1.67 20.33.1.95-.56 1.8-1.48 1.9-.92.11-1.76-.58-1.87-1.53-.79-7.02-1.44-14.14-1.67-20.2v-.11c-.09-.81-.8-1.39-1.58-1.3-.75.08-1.29.75-1.26 1.51.22 6.11.87 13.32 1.68 20.43.11.95-.56 1.81-1.48 1.92-.93.11-1.76-.58-1.87-1.54-.8-7.06-1.45-14.22-1.68-20.31s0-.08 0-.11c-.09-.81-.8-1.39-1.58-1.3-.75.08-1.29.75-1.26 1.51.33 9.14 1.62 20.73 2.95 30.75a7.916 7.916 0 0 0 4.31 5.98c.44.22.76.65.84 1.17.02.15.05.34.07.49.78 5.4 1.59 10.56 2.03 13.34 2.1-.22 4.52-.49 7.1-.78-.24-1.18-.59-2.98-1.04-5.32-1.34-7.24-1.31-8.76-1.31-8.76Z"/><path class="cls-1" d="M105.31 138.03c-.2-1.01-1-1.78-1.97-1.95l-7.19-.73c-1.08-.17-1.95-1.08-2.06-2.25-.04-.38.01-.75.13-1.09.39-1.44 11.46-28.04 34.47-45.95a6.13 6.13 0 0 1 3.41-1.43c1.31-.12 2.54.16 3.62.76 5.62 2.87 10.77 6.24 15.39 9.78s.04.02.06.02c.05 0 .09-.05.08-.1l-.24-2.54c-.08-.85.52-1.61 1.35-1.69h.19l6.65.19c-1.06-12.06-2.89-30.86-3.18-32.55-.32-1.87-11.17-.37-18.72.34-7.55.72-72.14 5.99-72.14 5.99l6.12 113.05s25.97-1.88 40.59-2.97c-2.39-7.56-6.39-35.62-6.56-36.89ZM153.82 116.34c-.09-.49-.19-.69-.19-.69-.27-.55-.85-.91-1.49-.85-.33.03-.62.17-.85.38 0 0-.17.13-.41.45 0 0-8.4 10.71-7.59 40.06 0 0 0 .41.13.77.22.58.72 1.03 1.51 1.09l4.93.23c.44.03.8.33.84.77 0 0 .22 4.43.17 12.41 2.8-.32 5.28-.61 7.15-.83-.1-2.9-.35-9.28-.76-16.86-.66-12.22-1.75-27.85-3.43-36.94Z"/><path class="cls-5" d="M152.36 90.86c-.83.08-1.43.83-1.35 1.69l.24 2.54c0 .05-.03.09-.08.1-.02 0-.04 0-.06-.02-4.62-3.54-9.77-6.91-15.39-9.78-1.07-.6-2.31-.89-3.62-.76a6.16 6.16 0 0 0-3.41 1.43c-23.01 17.91-34.08 44.51-34.47 45.95-.12.34-.17.71-.13 1.09.11 1.17.98 2.08 2.06 2.25l7.19.73c.97.18 1.76.94 1.97 1.95.18 1.27 4.17 29.33 6.56 36.89 4.37-.32 7.72-.58 9.08-.68 1.18-.09 3.48-.33 6.41-.64-.45-2.78-1.26-7.94-2.03-13.34-.02-.15-.05-.34-.07-.49-.08-.52-.4-.95-.84-1.17-2.24-1.1-3.92-3.3-4.31-5.98-1.33-10.01-2.62-21.61-2.95-30.75-.03-.76.51-1.42 1.26-1.51.78-.09 1.49.49 1.58 1.3v.11c.23 6.09.88 13.26 1.68 20.31.11.95.95 1.64 1.87 1.54.93-.11 1.59-.96 1.48-1.92-.8-7.1-1.46-14.32-1.68-20.43-.03-.76.51-1.42 1.26-1.51.78-.09 1.49.49 1.58 1.3v.11c.23 6.06.87 13.18 1.67 20.2.11.95.95 1.64 1.87 1.54.92-.1 1.58-.96 1.48-1.9-.8-7.07-1.45-14.24-1.67-20.33-.03-.76.51-1.42 1.26-1.51.78-.09 1.49.49 1.58 1.3v.11c.33 8.88 1.56 20.05 2.85 29.83l.01.09c0 .05.01.1.02.15s0 .06.01.1c.26 2.68-.83 5.18-2.69 6.78-.33.29-.53.72-.52 1.2 0 0-.03 1.52 1.31 8.76.45 2.34.81 4.14 1.04 5.32 5.39-.6 11.41-1.28 16.41-1.86.06-7.98-.17-12.41-.17-12.41-.04-.44-.4-.74-.84-.77l-4.93-.23c-.78-.07-1.29-.51-1.51-1.09-.14-.36-.13-.77-.13-.77-.8-29.35 7.59-40.06 7.59-40.06.25-.31.41-.45.41-.45.23-.21.52-.35.85-.38.63-.06 1.21.3 1.49.85 0 0 .1.2.19.69 1.68 9.09 2.77 24.72 3.43 36.94.41 7.57.66 13.96.76 16.86 2.03-.24 3.35-.39 3.57-.42 1.19-.16 1.43 0 1.27-2.86-.16-2.86-.46-20.24-.71-26.98-.25-6.75-1.67-33.73-2.63-45.15-.09-1.12-.2-2.36-.31-3.67l-6.65-.19h-.19Z"/></g><path class="cls-11" d="M53.95 128.32v.36c-1.81.64-7.04 1.74-11.5 1.95-5.49.25-16.54-.17-19.44-.59-2.34-.34-7.04-1.19-8.75-1.5v-.12c-.02-.83-1.31-.83-1.29 0 .06 2.87.17 5.74.31 8.6.15 3.15.33 6.31.54 9.45a646.63 646.63 0 0 0 1.54 19.32c.28 2.91.58 5.81.91 8.7.02.21.05.42.07.63-.01.09-.02.18 0 .27.08.59.55 1.04 1.01 1.36.47.33 1.04.51 1.59.69 1.23.41 2.49.69 3.77.91 2.66.47 5.36.81 8.06.99 2.68.18 5.37.2 8.05.05 1.32-.08 2.64-.19 3.96-.36 1.27-.16 2.54-.32 3.78-.61 1.2-.28 2.39-.72 3.48-1.28 1.02-.52 1.99-1.32 2.02-2.55.33-2.82.62-5.64.89-8.47a579.307 579.307 0 0 0 1.47-18.84c.19-3.12.37-6.24.51-9.36.13-2.88.24-5.75.31-8.63 0-.33.02-.66.02-.99.02-.83-1.27-.83-1.29 0Z"/><path class="cls-3" d="M58.93 121.83c0-.11-.04-.21-.09-.31-.05-.21-.14-.41-.27-.59-.27-.38-.64-.67-1.04-.9-.21-1.62-.66-3.18-1.34-4.67-.03-.09-.06-.18-.11-.26-.26-.49-.76-.85-1.25-1.1-1.11-.58-2.37-.86-3.58-1.16-1.75-.44-3.5-.83-5.28-1.15-1.91-.35-3.85-.64-5.79-.82-3.5-.4-7.04-.44-10.55-.18-3.56.26-7.1.81-10.57 1.65-1.48.36-3 .7-4.36 1.4-.62.32-1.33.66-1.83 1.15-.44.43-.81 1.08-.82 1.71v.02c-.23 1.17-.44 2.35-.61 3.53-.4.24-.82.47-1.15.8-.28.28-.5.62-.65.98-.16.37-.22.75-.17 1.1-.05.84-.05 1.68.01 2.52-.04.08-.06.17-.05.27.22 1.71 2.04 2.39 3.46 2.86 1.69.56 3.43.95 5.19 1.26 3.72.66 7.48 1.13 11.24 1.39 3.73.26 7.47.29 11.2.08 1.86-.1 3.72-.27 5.57-.49 1.74-.21 3.5-.44 5.21-.83 1.52-.34 2.99-.89 4.41-1.54 1.23-.57 2.53-1.33 3.05-2.65.12-.3.17-.63.17-.96 0-.07 0-.12-.02-.18.1-.97.12-1.94.05-2.92Z"/><path d="M58.93 121.83c0-.11-.04-.21-.09-.31-.05-.21-.14-.41-.27-.59-.27-.38-.64-.67-1.04-.9-.17-1.33-.51-2.62-1-3.87-4.87 4.51-13.32 5.4-20.07 5.44-6.85.04-19.01-1.03-22.81-3.77-.63-.45-1.12-1.09-1.5-1.83-.06.19-.11.39-.11.58v.02c-.23 1.17-.44 2.35-.61 3.53-.4.24-.82.47-1.15.8-.28.28-.5.62-.65.98-.16.37-.22.75-.17 1.1-.05.84-.05 1.68.01 2.52-.04.08-.06.17-.05.27.22 1.71 2.04 2.39 3.46 2.86 1.69.56 3.43.95 5.19 1.26 3.72.66 7.48 1.13 11.24 1.39 3.73.26 7.47.29 11.2.08 1.86-.1 3.72-.27 5.57-.49 1.74-.21 3.5-.44 5.21-.83 1.52-.34 2.99-.89 4.41-1.54 1.23-.57 2.53-1.33 3.05-2.65.12-.3.17-.63.17-.96 0-.07 0-.12-.02-.18.1-.97.12-1.94.05-2.92Z" style="fill:#cc9e40"/><path class="cls-1" d="M58.93 121.83c0-.11-.04-.21-.09-.31-.05-.21-.14-.41-.27-.59-.27-.38-.64-.67-1.04-.9-.21-1.62-.66-3.18-1.34-4.67-.03-.09-.06-.18-.11-.26-.26-.49-.76-.85-1.25-1.1-1.11-.58-2.37-.86-3.58-1.16-1.75-.44-3.5-.83-5.28-1.15-1.91-.35-3.85-.64-5.79-.82-3.5-.4-7.04-.44-10.55-.18-3.56.26-7.1.81-10.57 1.65-1.48.36-3 .7-4.36 1.4-.62.32-1.33.66-1.83 1.15-.44.43-.81 1.08-.82 1.71v.02c-.23 1.17-.44 2.35-.61 3.53-.4.24-.82.47-1.15.8-.28.28-.5.62-.65.98-.16.37-.22.75-.17 1.1-.05.84-.05 1.68.01 2.52-.04.08-.06.17-.05.27.22 1.71 2.04 2.39 3.46 2.86 1.69.56 3.43.95 5.19 1.26 3.72.66 7.48 1.13 11.24 1.39 3.73.26 7.47.29 11.2.08 1.86-.1 3.72-.27 5.57-.49 1.74-.21 3.5-.44 5.21-.83 1.52-.34 2.99-.89 4.41-1.54 1.23-.57 2.53-1.33 3.05-2.65.12-.3.17-.63.17-.96 0-.07 0-.12-.02-.18.1-.97.12-1.94.05-2.92Z"/><path class="cls-1" d="M53.69 123.9c.29-.12 1.57-.72 1.28-.72-.68.25-2.78 1.33-1.28.72ZM56.16 121.89c.23-.22.61-.43.71-.73-.23.01-.68.52-.71.73Z"/><path class="cls-1" d="M12.27 121.56c.99.11 2.48 2.23 3.45 2.23.36-.44 1.99 1.24 1.57.6-.18-.53 1.3.21 1.33.3-.46-.02-.76 0 .1.11 1.96.3 4.74.13 6.4.95-.52-.87 1.21.22 2.05-.04.53.06-.23.66.63.44 2.37-1.13 17.85.62 25.75-2.86.81-.31 1.59-.78 2.14-1.24-1.09.69-.71.43.29-.38 2.36-1.32 1.26-3.46.55-5.5-4.87 4.51-13.32 5.4-20.06 5.44-6.85.04-19.01-1.03-22.81-3.77-2.27-3.73-2.61 2.06-1.38 3.71Zm36.77 2.85c.26-.07.52-.2.79-.14-.14.12-1.07.31-.79.14Zm-5.09.74c.26 0 .39-.1.54-.01-.23.1-1.32.14-.54.01ZM51.28 124.37c.67-.04 1.4-.45 2.03-.71-.67.14-1.61.42-2.03.71ZM11.58 121.41c1.12.95.36.07-.22-.41-.73-1.42-.19.19.22.41ZM12.43 121.77c.03.13.15.18.25.25-.03-.06-.11-.21-.25-.25ZM19.63 125.31c.88.21.97-.01.07-.18-.7.02-.86.15-.07.18Z"/><path class="cls-1" d="M44.7 125.81c1.33-.21 5.32-.68 5.23-.96-.01.08-4.57.5-5.23.96ZM31.9 126.1c.47-.03.78.07 1.22-.12-.26-.04-1.4-.17-1.22.12ZM34.26 126.55c.3-.23 1.61.01 1.46-.31-.65-.17-3.63.22-1.46.31ZM14.89 123.94c.68.27 1.73.95 2.37.84-.55-.12-2.17-1.06-2.37-.84Z"/><path class="cls-1" d="M58.93 121.83c-.42-3.43-3.15 3.26-8.18 3.46-10.77 2.25-14.39 1.21-21.05 1.93-.78-.24-1.64.2-1.99-.51-.45.77-2.43.22-3.04.09-2.05-.11-3.75-.41-6.83-1.12-4.77.23-9.21-9.31-8.4.22 5.33 7.16 52.06 10.17 49.5-4.07Zm-21.99 5.18c-.13-.01-.21-.02-.29-.02.19-.08.74-.1.29.02Z"/><path class="cls-1" d="M24.79 126.21c.44.08 2.48.13 1-.04-.43-.17-2.3-.01-1 .04ZM43.8 125.81c.22-.08-.09-.22-.22-.17-.83.13-.64.36.22.17ZM37.52 126.3c.51 0 1.08.02 1.53-.15-1.02-.3-4.21.39-1.53.15ZM42.61 125.85c-.28.18.15-.02.31-.16-.42.06-1.24.07-.31.16ZM40.17 126.14c.46.03.45.27 1.18 0-.47-.37-2.55.09-1.18 0Z"/><path class="cls-3" d="M49.07 124.48c.17-.03.37-.06.54-.11.72-.31-1.05.08-.54.11ZM44.06 125.2c.08 0 .56-.03.36-.11-.28-.01-1.24.2-.36.11ZM36.91 126.93c-.09.01-.17.04-.26.06.18.07.78-.07.26-.06Z"/><path class="cls-1" d="M15.77 170.17h.01-.01ZM53.95 128.32v.36c-1.81.64-7.04 1.74-11.5 1.95-5.49.25-16.54-.17-19.44-.59-2.34-.34-7.04-1.19-8.75-1.5v-.12c-.02-.83-1.31-.83-1.29 0 .06 2.87.17 5.74.31 8.6.15 3.15.33 6.31.54 9.45a646.63 646.63 0 0 0 1.54 19.32c.12 1.3.25 2.59.39 3.89.05.02.09.05.13.09.08.08.15.17.27.18.07 0 .13-.02.2-.04v.1c.1-.02.16-.09.28 0 .22.18.49.28.77.35.28.08.58.11.81.28 0-.04 0-.05-.03-.09.15.29.37.25.6.16.23-.09.46-.23.61.03l-.06.07c.23.01-.06.07.06.24.12-.26.34-.12.49-.17-.04.05-.08.03-.12.05 0 .07-.04.23.04.21.25-.33.53-.2.78-.26-.03.18.12.39.14.7.04-.06.12-.18.19-.3 0-.02-.01-.03-.02-.05h.02c-.05 0-.08 0-.07.02-.04-.19.04-.13.09-.34.07.03.23 0 .21.16.04.01.06.04.1.09.04-.02.07-.03.1 0l-.02.02v.07c.12.12.39-.13.54-.25-.18.23-.04.3-.09.49.02-.01-.12-.06-.3-.11v.13c.11.24.31-.11.5.09-.02.02-.06.05-.06.13.07.07.18-.06.22-.17-.02.19.12.36.22.3.11-.14.11-.21.25-.16l-.09.12c.13.14.17-.12.26-.04 0 0 .01 0 .02.02l-.02-.02c-.03 0-.05.09-.02.12.18-.04.2-.11.37-.34l-.06.2c.17-.09.48-.29.43-.01.04-.44.35-.17.47-.14-.05 0-.07.09-.08.14.31-.24.52.09.79.12v.32c.14 0 .27-.61.42-.57l-.08.14c.28-.01.38.03.59.12l-.03.21c.09-.09.19-.08.28-.16.12.54.74-.18 1 .43l.06-.39c.12.02.29-.04.32.26h-.03c-.04.29.12.01.2.08.06-.03.14-.22.09-.28.31.24.83.06 1.01.44.35-.11.62-.4.98-.34v.05c.11.06.35.18.33.51.27-.06.45-.51.76-.35l-.07.12c.08.07.21-.08.24-.12.03 0 0 .07 0 .12.07.12.12-.06.18-.09l-.03.11c.24.24.65-.2.97-.14-.06.03-.03.16 0 .21.14-.37.5-.27.64-.35l-.09.14c.26-.24.22.39.48.15l-.15-.21c.11.06.2 0 .17-.17.12.12.01.28.2.32 0 .1-.14.07-.08.2l.25.28c-.18-.21.14-.26.02-.45.15.12-.03.37-.02.45l.02.02-.02-.02s.04.04.12 0c-.02-.46.22-.02.09-.47.36-.03.67.28.99.06.13.45.62.01.6.59.18 0 .32-.11.43-.35-.04-.05-.08.03-.12.06.05-.15.26-.18.35-.18-.11.13-.3.25-.39.47.16-.06.38-.28.47-.35l.05.3c.13-.22.12.24.25-.06l-.03-.09c.25.02.25-.28.48-.33v.12c.08.05.18-.24.27.03l-.15.02c.02.21.14.3.2.4.16-.06.05-.34.12-.37.04.19.01.1-.04.3.18-.08.42-.17.53-.43v.07c.19.03.33-.33.46-.17l-.03.03c.16.28.37-.29.43.2.08.09-.16-.01-.03.22.23.14.12-.42.33-.3-.03-.01-.02.02-.02.06.14-.02.32-.08.48-.14 0-.01-.02-.03-.02-.04l.06.03h-.03c.22.4.58-.12.83.32-.08-.16.04-.2.03-.27v.07c.08 0 .08-.15.1-.22 0 0 0-.02-.01-.03.02-.02.03-.02.05 0 0 0 .02 0 .02.02 0 0-.02-.01-.02-.02-.02 0-.03 0-.04.03.08.13.21-.17.26-.08 0-.1.06-.08.13-.09-.13.13-.03.22-.07.39.22.03.2-.47.43-.42l.14.18c0-.3.21-.2.19-.31-.01-.03-.03-.05-.04-.09.02.04.03.07.04.09.05.09.11.14.12.29.08-.08.23.05.25-.13l-.1-.07c.28.08.4-.37.63-.2l.05.44c.16.16.23-.28.38-.02-.06-.14-.06-.1 0-.25-.06-.02-.14.1-.23.11l.15-.28-.27.16c.1-.19.1-.14.03-.32.16-.16.22.19.36 0 .07.05.03.22.11.3.13-.18.33.27.4.02.04.04-.06.02-.04.12.09-.06.16-.05.17-.19l-.09-.04s-.03 0-.05-.02l.05.02c.08 0 .06-.18.21-.1.06-.11.08-.34-.01-.33.03-.03.13.07.12.21.22-.03.03-.48.27-.31.02-.02.03-.03 0 0s-.02.04-.01.06c.06.02.1.02.13-.02-.18.07.12.34-.11.3.06.23.17.02.26.1.08-.17-.05-.34-.01-.46.01.07.06.07.11.09l-.08-.17s.09-.01.13-.06l-.08.09c.1.01.29.27.43.07-.03.08-.09.24.03.31.16-.15.06.06.19.18.18-.07-.03-.32.26-.26.03 0-.02-.1-.06-.15-.01 0-.02 0-.04-.01 0-.02.02-.01.04.01.2.05.27-.09.48 0-.09-.03-.16-.08-.07-.18-.02.15.17.11.26.18v-.09c.07.08.02.13-.02.17 0 .02 0 .05-.03.06-.01-.02 0-.04.03-.06 0-.03-.03-.05-.06-.04-.07.09.03.42.17.42.13-.12.06-.34.01-.43.22.05.1-.44.31-.35.04 0 .26.31.41.31.02-.22-.2-.11-.17-.3.34.44.39-.4.76-.19l.02.25c.07 0 .14 0 .22-.05l-.14-.11c.05-.07.23-.07.22.13.1-.24.17-.13.33-.11-.16.02-.01-.03-.09.12.19.08.19 0 .28-.09 0 .09.1.2.14.19.06-.18.25-.2.37-.32l.02.07c.21-.17.58.08.76-.21 0-.01-.02-.02-.02-.02l-.05-.02c-.05 0-.1.03-.12-.05l.12.05.05.02c-.16-.2.14-.22.18-.33.03.05.08.15.12.14-.07-.21.06-.14.06-.25.11.04.08.26.21.2.05-.04.02-.16-.02-.23a.161.161 0 0 1-.04-.07.359.359 0 0 0 .31.22c0 .06-.07 0-.08.03.03.12.07.06.12.2.07 0-.04-.21.07-.16l-.02.2s.07-.05.08-.07c-.04.06.03.23.08.33.15-.2-.12-.46-.18-.65.23.07.3-.18.44-.22l.04.19c.06-.05.08-.1.08-.18h-.03l.02-.09v.09l.11-.03c-.04.08-.04.14.01.28.1-.08.27-.09.22-.32v.04c.2.03.53-.04.54.03.14-.12.39-.09.32-.27-.02.02-.03.05-.02.11-.02-.06-.06-.2-.04-.2.03.04.04.07.05.09.08-.07.35.12.33-.1.16.06.02.04.04.17.16.05.16-.24.3-.05.1-.12-.05-.03-.05-.14.07.11.14.06.23.02 0-.05 0-.09.02-.14l-.11.02c.23-.08-.09-.17.12-.15.12-1.17.24-2.35.35-3.52a579.307 579.307 0 0 0 1.47-18.84c.19-3.12.37-6.24.51-9.36.13-2.88.24-5.75.31-8.63 0-.33.02-.66.02-.99.02-.83-1.27-.83-1.29 0h-.02ZM26.7 171.98l-.05-.02.12-.05-.07.07Zm9.23.64c.05-.12.14-.04.18.07-.03.03-.11-.06-.18-.07Zm3.35-.08-.04-.23c.08-.08.09.19.04.23Zm7.09-1.36-.09.06.11-.1-.03.03Zm1.32-.15.04.19c-.02-.12-.11-.14-.04-.19Zm4.17-1.1c-.09-.02-.08-.04-.04-.1 0 .03.13.05.04.1Z"/><path class="cls-1" d="M49.07 171s0 .01.02.02v-.01h-.02ZM21.09 171.26c-.07-.01-.13-.03-.18-.04l-.03.06c.05.14.13.07.22-.02ZM20.92 171.21s-.02 0-.04.01h.03l.01-.01ZM21 172.49h-.08.08ZM21.25 172.39s-.06.06-.07.13c.05.01.1.02.13.04-.03-.07-.09-.13-.07-.17Z"/><path class="cls-1" d="M52.33 170.55s-.08-.05-.15-.06c0 .02.01.03.01.06l-.02-.06c-.05-.14-.16 0-.07-.26-.05.14-.13.17-.2.2-.07.04-.14.08-.13.29l.06.02-.21.02h.12-.12c-.09.01-.08.06-.26-.06.03-.06.09-.09.12-.16-.16-.1-.15.21-.25.28-.05-.13.09-.1 0-.23-.09.01-.11.14-.17.2l-.02-.08c-.26-.09.07.39-.17.2.02.04.02.1.05.14.02.01.03.02.04.03-.02 0-.03-.02-.04-.03-.08-.05-.26-.15-.17-.29-.07.03-.12.12-.12.23.1.09.09.03.17.17l-.24.21s0-.09.03-.11c-.48-.31-.51.68-1.08.22.09.13.02.13.01.24-.14 0-.31.09-.45.04v-.11c-.24.21-.4.43-.61.43 0 .05-.04-.14-.02-.18-.09.22-.42-.31-.35.09l.06.02c-.3.01-.53.37-.81.5-.13-.21.16-.07.03-.33-.22-.04-.38.22-.62.19.03-.04.02-.06.03-.08-.25-.1.08.23-.11.23-.02-.12-.03-.14-.11-.19v.2s-.06-.17-.05-.23c-.02.26-.31.15-.32.4-.03-.05-.03-.28-.08-.36-.11-.05-.16.06-.2.16.02.12-.02.12-.06.12-.03.04-.07.06-.13.03.03-.04.08-.03.13-.03.03-.03.05-.07.06-.12-.1-.15-.27-.08-.24-.12-.19-.04 0 .14-.11.31l.16.07c-.08.04-.16.07-.24.1l.08-.13c-.13-.07-.21.16-.35.18l.09.12-.14.11c-.07-.27-.21-.02-.19-.36-.31-.08-.42.31-.68.38.05 0 .02-.06.02-.11-.16-.03-.23.12-.3.28 0-.09.04-.12.02-.2-.18.02-.08.18-.27.29.04-.12 0-.18-.05-.2.03.1 0 .18-.04.22.06-.58-.26-.19-.23-.64 0 .12-.26.41-.14.62l.05-.05c.03.15-.05.1-.11.12-.03.04-.07.06-.02.01 0 0 .01-.01.02-.01.03-.03.05-.07.05-.1-.25.23-.58.11-.87.28.02-.06.14-.18.05-.21-.33-.04-.47.27-.78.45-.06-.35.34-.09.31-.43-.33.12-.65.29-1.01.51-.18-.51-.34.25-.62-.14.04.17-.07.25-.2.26s-.02 0-.02 0c-.06 0-.12 0-.17-.02l.17.02h.02c.03-.15-.1-.14-.08-.24-.1.17-.41.26-.42-.08 0 .33-.24 0-.31.24.04.03.07.07.11.14l-.12-.08s.01-.04.02-.06c-.15-.11-.3.09-.48 0 .08.2-.17.11-.23.2.02-.02.05-.05.04-.08-.06-.18-.19.17-.3.07-.05-.07 0-.19-.07-.2 0 .15-.25.33-.36.16.05 0 .04-.08.07-.13-.45.27-.96 0-1.43.3l.08-.25c-.31-.31-.18.41-.42.38-.65-.1-1.32-.45-1.95-.29-.05.07.03.09.03.19-.05-.03-.07-.24-.14-.11l.02.13c-.29-.36-.83.24-1.04-.33-.28.21-.46-.16-.8.16-.1-.12.13-.23-.02-.26l-.31.2.02-.02c-.31.39-.77-.47-1.15-.19l.02-.02c.01-.09-.06-.21-.12-.18-.02.06.02.1.05.18-.34.14-.41.15-.68.17.12-.13-.1-.12-.1-.32-.08.12.03.2-.13.3-.22 0-.41-.17-.59-.25-.08.17-.18.11-.2.33-.25 0-.39.07-.7.05v-.07c-.1.26-.26-.15-.33 0 .02-.09.05-.13.05-.2l-.14.08c.07-.08.13-.32.02-.36-.13.18.02.13-.05.28l-.02-.25c-.09.02-.14.3-.03.38-.3-.02-.62.06-.89 0l.05-.16c-.16.05-.36.02-.44-.12 0 .05-.05.13-.04.18-.19.18-.02-.19-.17-.09-.02.01-.03.02-.04.04l.04-.04c.04-.03.08-.07.09-.13l-.39.15c0-.12-.18-.41-.35-.33-.02.06.02.16.06.18l.04-.02s-.03.03-.04.02l-.11.05-.04-.28-.17.22v.05l-.03-.01.03-.04.03-.23c-.11.03-.19.32-.27.29-.3-.19-.22-.26-.42-.51-.09.44-.36-.07-.46.24-.25-.37-.72-.25-1.09-.42l.04-.03c-.13-.23-.25.3-.42.18l.06-.06c-.19-.28-.63-.16-.9-.02.06-.06.07-.2 0-.2-.08.07 0 .32-.12.21.04-.03.04-.14 0-.14l-.17.19c-.29-.22-.62-.47-.99-.43-.04-.09.02-.16.06-.23-.27-.02-.58.08-.83.05l.05-.25c-.11-.03-.18.36-.27.09-.02-.04.1.01.18-.08-.17-.25-.21.2-.42.11l.14-.26c-.12-.21-.24.09-.35.24-.35.26 0-.58-.39-.45-.1.12-.05.21-.15.33-.19-.17-.28 0-.47-.18.02-.44.11.05.11-.37l.13.17c-.07-.27.15 0 .21-.24-.08-.11-.31.02-.48.03.06-.17.17.05.19-.2l-.1.04s.06-.1.1-.08c.03-.17-.08-.04-.15-.07-.04.08-.08.2-.1.34-.01.06-.02.13-.02.19-.18-.08-.02-.05.02-.19s0-.05 0-.07c-.22.16-.39-.14-.57-.03.04-.03.03-.06.03-.09-.08-.05-.24.09-.36.07-.02-.14.16-.28-.04-.33-.08.09-.08.33-.22.23 0 0 .16 0 .13-.13-.17-.01-.03-.06-.11-.26-.13.1-.12-.13-.23.08.02-.18 0-.12-.03-.27-.01.14-.22.01-.27.14.03-.17.23-.09.19-.32-.12.06-.28 0-.37.14-.04-.08-.04-.15-.13-.22.01.02.04 0 .06 0-.11 0-.2-.07-.3-.13-.09-.06-.18-.1-.26-.07.07-.08-.06-.16-.13-.23.15 1.41.3 2.81.46 4.22.02.21.05.42.07.63-.01.09-.02.18 0 .27.08.59.55 1.04 1.01 1.36.47.33 1.04.51 1.59.69 1.23.41 2.49.69 3.77.91 2.66.47 5.36.81 8.06.99 2.68.18 5.37.2 8.05.05 1.32-.08 2.64-.19 3.96-.36 1.27-.16 2.54-.32 3.78-.61 1.2-.28 2.39-.72 3.48-1.28 1.02-.52 1.99-1.32 2.02-2.55.16-1.39.32-2.78.46-4.17-.06.05-.14 0-.17.11Zm-5.16 1.86.1-.09v.18l-.1-.09Z"/><path class="cls-1" d="m21.05 170.97-.05.1v-.02h.1c0-.04 0-.09-.05-.07ZM49.06 171l-.04-.02"/><path class="cls-6" d="M45.49 171.72s-.04.04-.03.06c.03-.01.03-.04.03-.06ZM44.8 171.63s.03 0 .04.01c-.02-.02-.03-.03-.04-.01ZM49.02 170.98l-.12-.05c.02.08.07.04.12.05ZM50.48 170.31h.03v-.1l-.02.1ZM51.68 170.14c0-.06 0-.09.02-.11-.01-.03-.03-.06-.05-.09-.03 0 .02.14.04.2ZM49.62 170.51s-.03-.05-.04-.07c0 .03.02.05.04.07ZM43.65 171.56c.03-.03 0-.02 0 0ZM33.29 172.39c.12.19-.2.24-.02.45-.02-.08.17-.33.02-.45ZM33.27 172.85l.02.02-.02-.02ZM41.13 172.12s-.01-.05-.04-.09c0 .04.02.06.04.09ZM43.06 172.08l-.05-.02s.04.02.05.02ZM40.09 172.41s.02.01.02.02c0 0-.02-.01-.02-.02ZM40.09 172.41s-.03-.02-.05 0c0 .01 0 .02.01.03 0-.02.02-.03.04-.03ZM39.06 172.51s.02.03.02.04h.03l-.06-.04ZM18.38 171.94c0-.06 0-.13.02-.19-.03.14-.19.1-.02.19ZM40.22 174.1l-.17-.02s.11.02.17.02ZM26.01 173.71l-.04.02s.03 0 .04-.02ZM39.53 174.15a.425.425 0 0 0-.11-.14c0 .02-.01.03-.02.06l.12.08ZM26.55 173.86s-.03.02-.04.04c.02-.01.03-.03.04-.04ZM22.74 171.73s.01 0 .02.02l-.02-.02ZM20.89 171.22s-.02.01-.02 0c0 .02 0 .04.02.05l.03-.06h-.03ZM49.06 171s.02.01.02.02c0 0 0-.02-.02-.02ZM25.64 173.77v-.05l-.03.04.03.01zM50.95 171.06s.02.03.04.03c0-.01-.02-.02-.04-.03ZM51.65 170.76h.12-.12ZM52.2 170.55s0-.04-.01-.06l.02.06ZM43.31 173.48s-.02 0-.02.01c-.05.05-.01.03.02-.01ZM45.95 172.49s-.04.09-.06.12c.05 0 .09 0 .06-.12ZM40.23 174.1h-.02.02ZM45.76 172.64c.06.03.09.01.13-.03-.04 0-.09-.02-.13.03ZM52.46 169.81l.11-.02s0-.08.01-.12c-.21-.02.11.08-.12.15ZM51.82 169.84c-.04.06-.05.08.04.1.09-.05-.03-.07-.04-.1ZM47.73 171.23l-.04-.19c-.07.05.02.07.04.19ZM47.17 172.41l.11.09-.01-.18-.1.09zM46.37 171.19l.02-.04-.11.1.09-.06zM39.23 172.31l.04.23c.05-.05.04-.31-.04-.23ZM35.92 172.63c.07.02.14.11.18.07-.04-.12-.13-.19-.18-.07ZM26.7 171.98l.07-.07-.12.05.05.02z"/><path class="cls-5" d="M34.19 151.22c-.04-.13-.65-1.41-1.81-3.03s-.05-.09-.05-.14c-.06-1.63-.23-2.72-.23-2.72a.435.435 0 0 0-.36-.36l-1.29-.23h-.03c-.15 0-.28.11-.29.26l-.02.45s0 .02-.02.02h-.01c-.74-.74-1.57-1.46-2.51-2.11a1.15 1.15 0 0 0-.63-.23c-.24-.01-.46.05-.65.16-4.62 2.52-7.32 6.86-7.42 7.1-.03.06-.05.12-.05.19-.01.21.12.39.31.45l1.27.32c.17.06.29.21.3.39 0 .23-.03 5.31.2 6.65.04.19.2.34.41.35h.01c.75.02 1.44.05 2.18.08h.06c.08 0 .15-.05.15-.13 0-.45-.02-1.46-.01-2.53v-.09c0-.09-.05-.18-.12-.23-.37-.25-.62-.68-.61-1.16.03-1.78.11-3.84.29-5.44a.27.27 0 0 1 .27-.23c.14 0 .25.12.25.27v.02c-.12 1.07-.2 2.34-.24 3.59 0 .17.12.31.3.32.17 0 .31-.13.32-.3.05-1.26.12-2.54.24-3.61a.27.27 0 0 1 .27-.23c.14 0 .25.12.25.27v.02c-.12 1.06-.2 2.32-.24 3.57 0 .17.13.31.3.32.17 0 .31-.12.32-.29.05-1.26.12-2.52.24-3.59a.27.27 0 0 1 .27-.23c.14 0 .25.12.25.27v.02c-.18 1.56-.25 3.54-.28 5.28v.06c-.03.48-.29.88-.67 1.11-.07.04-.11.11-.12.2 0 0-.05.26 0 1.56.02.57.05.96.06 1.14 0 .07.06.12.13.13s.08 0 .12 0c.25.01.5.03.77.04h.1c.34.02.65.04.96.06l.73.05c.07 0 .13-.05.14-.11.25-1.54.34-2.41.34-2.41 0-.08-.05-.14-.13-.16l-.88-.17c-.14-.03-.22-.12-.24-.23-.02-.06 0-.14 0-.14.64-5.14 2.44-6.79 2.44-6.79.05-.05.09-.07.09-.07.05-.03.1-.05.16-.04.12 0 .21.08.25.19 0 0 .01.04.02.12.06 1.63-.16 4.39-.37 6.54-.18 1.82-.35 3.25-.35 3.25 0 .06.04.11.1.11.48.03.96.07 1.46.11h.01c.2.01.39-.12.45-.31.38-1.3.9-6.36.92-6.59a.45.45 0 0 1 .34-.36l1.3-.18c.19-.04.35-.2.36-.41 0-.07 0-.13-.03-.19h-.02Z"/><path class="cls-5" d="M57.17 107.16s-.09 0-.14.02c-1.89 0-3.78-.05-5.67.03a9.565 9.565 0 0 0-3.27-.96c-.21-.32-.56-.54-.93-.61-.11-.02-.2.06-.22.16v.02c-.33.95-.57 2.15-1.36 2.84-.41.36-.9.48-1.45.44-.38-.03-.72-.14-1.09-.22h-.03c-.08-.02-.14.02-.18.07-.16.18-.3.37-.43.57-.13.19-.25.39-.33.61-.03.03-.05.08-.04.15.16.77.46 1.51.85 2.18-.02.05-.04.11-.03.16.12.5.31.97.57 1.41 0 .08.03.16.08.23.06.51.17 1.07.57 1.43.45.41 1.08.32 1.62.19a6 6 0 0 0 1.78-.72c.28-.17.54-.36.79-.58.26-.23.48-.49.77-.68.57-.38 1.31-.35 1.97-.43.64-.07 1.28-.18 1.91-.33 1.26-.3 2.5-.81 3.49-1.66.96-.83 1.73-2.05 1.41-3.34-.02-.11-.04-.21-.07-.32-.08-.28-.23-.64-.57-.67Z" id="Foot2"/><g id="Lower_leg_2"><path class="cls-12" d="M46.43 106.65c-.01-.11-.56-1.87-.56-1.87l-3.01 2.2.75 2.96s.83-.19 1.62-.51c.79-.31 1.27-2.13 1.2-2.8Z"/><path class="cls-18" d="M45.56 104.81c.09 1.04.29 2.06.31 3.1 0 .34.29.66.65.65s.65-.28.65-.65c-.02-1.04-.22-2.06-.31-3.1-.03-.34-.28-.66-.65-.65-.33.02-.68.29-.65.65ZM42.24 106.6c.16.81.33 1.62.49 2.44.07.33.48.55.79.45.35-.11.52-.44.45-.79-.16-.81-.33-1.62-.49-2.44-.07-.33-.48-.55-.79-.45-.35.11-.52.44-.45.79Z"/></g><path class="cls-14" d="M46.33 90.64c-.16-.82-.33-1.63-.51-2.44a.66.66 0 0 0 0-.28c-.66-3.5-1.59-6.95-2.93-10.25-1.22-3.01-2.76-5.86-4.45-8.63-1.04-1.71-2.14-3.39-3.24-5.06-.19-.29-.57-.41-.88-.23-.2.12-.33.36-.32.6-.04.04-.09.08-.13.13l.05-.36-11.01 2.53a.687.687 0 0 0-.33-.23c-.36-.1-.68.12-.79.45-.18.5-.41.98-.49 1.51-.1.69-.07 1.4 0 2.09.13 1.42.46 2.81.99 4.12.01.03.03.07.05.1.81 4.01 1.59 8.03 2.65 11.98.25.91.51 1.8.81 2.69-1.42 1.87-2.29 4.04-3.16 6.21-.88 2.2-1.82 4.37-2.84 6.51-.6 1.26-1.23 2.5-1.88 3.74-.03.05-.04.1-.06.15-.02.06-.03.12-.03.18 0 .1.02.19.07.28.01.03.03.06.05.08.05.07.12.14.2.19.06.03.13.06.19.07h.07c.02 0 .05 0 .07.01 2.32.16 4.62.57 6.94.73h.02c.21.01.41-.08.54-.32 2.1-3.88 4.16-7.77 6.19-11.68.58-1.12 1.16-2.25 1.74-3.38.03-.05.04-.11.06-.16.02-.05.03-.11.03-.17.16-2.64.03-5.29-.17-7.92-.1-1.31-.22-2.68-.36-4.06 1.33 2.39 2.69 4.75 4.34 6.95 0 2.56.44 5.13.91 7.64.25 1.32.52 2.64.83 3.95.3 1.31.65 2.57.91 3.87.36 1.79.63 3.59.96 5.39.06.34.48.54.79.45.06-.02.1-.04.15-.06.04-.02.08-.04.11-.06 1.54-1.18 3.14-2.27 4.8-3.28.1-.06.16-.13.21-.21.32 0 .67-.3.64-.65-.42-4.42-.95-8.83-1.79-13.19Z"/><g id="Layer_20"><path class="cls-1" d="M42.94 104.9c-.39.31-.92.4-1.47.03-.19-.13-.34-.02-.45.18.16.8.31 1.53.42 2.06.2.07.42.09.62.06.08-.02.16-.04.23-.07-.08-.39-.15-.82-.16-1.01-.01-.39.5-.64.97-.5.07.02.14.07.2.14.09-.51-.04-.79-.36-.89ZM47.56 99.25c-.22 0-.44-.03-.67-.08-2.25-.51-3.95-3.26-3.7-5.49.21-1.81 1.47-3 3.02-3.43-.1-.59-.19-1.07-.24-1.34-.23-1.13-.57-1.79-1.24-2.57-.67-.78-2.56-2.05-3.69-1.96-.69.05-1.68.64-2.44 1.42.1.02.2.05.29.09 1.23-.06 2.36 1.03 2.36 2.3 0 1.48-1.28 2.56-2.71 2.58-.21 0-.42-.02-.62-.06.19.73.39 1.45.51 2.1.31 1.71.82 5.04 1.43 7.17.15.54.34 1.34.54 2.22.48-.2.99-.25 1.53-.12.17-.02.34 0 .5.03 1.59-.03 2.97.71 3.48 2.1.08-.03.17-.06.27-.08.67-.13.75.68.75.68l1.16-.97-.53-4.49v-.09Z"/><path class="cls-1" d="M46.03 94.52c.13.57.58 1.49 1.19 1.82-.02-.18-.05-.34-.07-.47-.07-.43-.25-1.59-.46-2.84-.51.27-.82.8-.66 1.49Z"/><path class="cls-15" d="M41.26 88.19c0-1.27-1.13-2.36-2.36-2.3-.09-.04-.19-.07-.29-.09-.48.5-.64.43-.78.99-.23.9 0 2.78.31 3.96.2.05.21.02.42.02 1.43-.02 2.7-1.11 2.71-2.58ZM43.2 93.68c-.26 2.24 1.45 4.99 3.7 5.49.22.05.45.08.67.08-.04-.38-.21-1.92-.34-2.92-.61-.33-1.06-1.25-1.19-1.82-.16-.7.16-1.23.66-1.49-.16-.95-.33-1.97-.47-2.78-1.55.44-2.81 1.62-3.02 3.43ZM42.44 102.1c-.16-.04-.33-.05-.5-.03-.54-.13-1.05-.07-1.53.12.21.94.43 1.97.62 2.91.11-.2.26-.31.45-.18.55.38 1.08.29 1.47-.03.32.09.46.38.36.89.33.38.51 1.31.51 1.31l1.59-1.34.05-.37c-.13-.58.02-.99.48-1.18-.51-1.4-1.9-2.13-3.48-2.1ZM41.44 107.17c.11.55.17.89.17.89l.83-.15s-.08-.35-.16-.75c-.07.03-.15.05-.23.07-.21.04-.42.02-.62-.06Z"/></g><g id="Layer_18"><path class="cls-1" d="M35.62 75.95c.69-.93-.29-2.73-1.2-2.36-.13.37-.41.69-.88.85-.38.13.15 1.66.34 1.86.51.55 1.35.16 1.74-.36Z"/><path class="cls-1" d="M44.93 83.84c-1.3-.25-2.42-1.29-2.74-2.7-.26-1.13-.07-2.62.63-3.62-.48-1.15-.93-2.17-1.3-2.99-1.06-2.36-4.02-6.91-5.66-9.39s-2.45-.44-2.45-.44-.07 1.6-.07 2.63c0 1.03-.46 3.32-.54 3.39-.02.02-.06.25-.08.61 1.65-1.13 4.04-.35 5.19 1.25 1.28 1.78.99 4.27-.66 5.72-.97.85-2.23 1.18-3.38.98.43 1.34 1.19 3.33 1.77 4.29.37.61 1.06 1.61 1.64 2.45.34-.16.71-.25 1.1-.23.19 0 .37.05.54.12 1.09-.06 2.09.78 2.31 1.85.36.02.73.03 1.11.03 2.1.02 3.44-.4 3.44-.4l-.57-2.35c-.08-.4-.17-.79-.26-1.18Z"/><path class="cls-15" d="M37.24 78.29a4.289 4.289 0 0 0 .66-5.72c-1.15-1.6-3.54-2.39-5.19-1.25-.05.76-.08 2.06.08 2.94.23 1.29.51 3.01.79 4.12.06.23.16.54.27.9 1.15.2 2.41-.13 3.38-.98Zm-3.69-3.85c.47-.16.75-.48.88-.85.91-.37 1.88 1.43 1.2 2.36-.38.52-1.23.9-1.74.36-.19-.2-.72-1.73-.34-1.86ZM42.19 81.13c.32 1.42 1.44 2.46 2.74 2.7-.55-2.3-1.35-4.49-2.12-6.33-.7 1-.88 2.5-.63 3.62ZM38.9 85.89c-.17-.07-.35-.11-.54-.12-.39-.02-.76.07-1.1.23.57.81 1.05 1.47 1.05 1.47s1.28.19 2.9.26c-.22-1.06-1.23-1.91-2.31-1.85Z"/></g><path class="cls-12" d="m23.08 108.87 1.31-2.11-4.07-.16-1.15 3.14s1.01.68 1.79.61 1.63-.69 2.12-1.48Z"/><path class="cls-14" d="m31.98 72.59 1.46-1.62c.11-.13.19-.28.19-.46 0-.16-.07-.35-.19-.46s-.28-.2-.46-.19-.34.06-.46.19l-1.46 1.62c-.11.13-.19.28-.19.46 0 .16.07.35.19.46s.28.2.46.19.34-.06.46-.19Z"/><path class="cls-5" d="M32.68 112.59s-.09-.03-.14-.03c-1.76-.68-3.5-1.42-5.29-2.03a9.711 9.711 0 0 0-2.69-2.08c-.08-.37-.32-.71-.65-.91-.09-.06-.21-.02-.26.07v.02c-.65.77-1.32 1.79-2.3 2.15-.52.19-1.02.12-1.5-.12-.34-.17-.62-.39-.93-.6h-.01c-.07-.05-.14-.04-.19 0-.21.11-.42.24-.61.37s-.37.28-.53.44c-.04.02-.08.06-.09.12-.13.77-.12 1.57 0 2.34-.04.04-.08.09-.08.14-.07.51-.07 1.02.02 1.52-.03.08-.03.16 0 .24-.13.5-.23 1.06.01 1.54.27.54.89.69 1.44.77a5.893 5.893 0 0 0 2.86-.28c.32-.12.63-.28.97-.36.67-.14 1.35.15 1.99.32.63.17 1.26.3 1.9.39 1.28.17 2.62.16 3.85-.28 1.2-.42 2.36-1.28 2.53-2.6.02-.11.04-.21.05-.32.02-.29.01-.68-.29-.83Z"/><path class="cls-18" d="M23.68 106.65c-.43.64-.87 1.26-1.31 1.89-.09.13-.11.35-.06.5s.16.31.3.39c.15.08.33.12.5.06s.28-.15.39-.3c.44-.63.88-1.26 1.31-1.89.09-.13.11-.35.06-.5s-.16-.31-.3-.39a.657.657 0 0 0-.88.23ZM19.9 106.27c-.43.97-.84 1.95-1.29 2.92-.14.31-.1.71.23.88.28.15.73.09.88-.23.45-.96.86-1.94 1.29-2.92.14-.31.1-.71-.23-.88-.28-.15-.74-.1-.88.23Z"/><g id="Layer_17"><path class="cls-1" d="M30.22 66.24c.21.1.48 0 .68-.08.16-.07.61-.39.6-.38 0-.01-.29-.53-.41-.68-.13-.16-.35-.41-.58-.41-.34-.01-.49.31-.54.59-.02.11-.05.2-.09.29.01.07.02.14.04.2.06.22.08.37.3.47ZM32.23 79.16c-.01-.1-.05-.22-.1-.33-.12.08-.25.16-.4.21.15-.05-.14.06-.07.22.07.17.37.42.58.33-.14.06 0-.27-.01-.43ZM24.1 73.82c-.08-.53-.41-.98-.83-1.31-.2-.15-.46-.3-.69-.4-.12-.05-.39-.06-.49-.12-.17.07-.35.1-.54.1.35 1.51.84 2.69.84 2.69.05.25.13.65.23 1.14.97-.16 1.62-1.13 1.48-2.1ZM28.2 101.69c-.12 0-.23-.01-.33-.04-1.12.03-1.28 1.96-.47 2.96.08-.16.16-.33.24-.48.17-.37.67-1.32 1.27-2.45-.21.06-.45.07-.71 0ZM33.59 63.78c.08.12.15.23.22.36.2-.17.28-.34-.22-.36Z"/><path class="cls-1" d="M33.2 82.19c-.22.09-.46.15-.72.17-1.53.15-3.05-.84-3.49-2.33-.47-1.58.48-3.1 1.94-3.67.04-.05.08-.09.12-.14.11-.1.21-.2.32-.3.44-.41.96-.46 1.4-.3-.1-2.18-.15-3.73-.15-3.73s.3-1.32.57-2.84c.06-.33.1-.72.12-1.15-1.26 1.19-3.36 1.57-4.79.58-.82-.57-1.36-1.63-1.48-2.71-2.91 1.2-5.72 2.5-5.72 2.5-.04.22-.07.45-.09.68.05 0 .1-.02.15-.03.41-.06.83 0 1.15.2 1.54.34 3.26 1.72 3.8 2.72 1.27 2.33.26 5.47-2.22 6.51-.31.13-.63.22-.94.28.37 1.79.76 3.65.95 4.41.23.95.82 3.21 1.21 4.68.51-.28 1.08-.42 1.67-.39.51-.23 1.22-.09 1.59.3l.03.03c1.53.64 2.51 2.22 2.15 4-.39 1.92-2.48 3.61-4.48 3.13-1.1-.26-1.97-1.07-2.45-2.07-1.03 2.28-3.23 7.42-3.63 8.4-.1.25-.27.61-.47 1.03 1.12.84 1.51 2.49.85 3.73.11.02.22.06.32.13.43.31.1.95.1.95s3.87.51 4.27.54c.4.02.53-.02.73-.41-1.23-.91-2.04-2.42-2-4 .05-2.23 1.81-4.23 4.01-4.23.89-.26 1.67-.2 2.33.09l1.66-3.1 1.95-3.87s-.08-3.16-.62-8.29c-.05-.49-.1-1-.15-1.51Z"/><path class="cls-1" d="M26.96 92.1c.91.08 1.63-1.79.52-1.89h-.03c-.24.02-.49-.02-.75-.13.16.07-.19.24-.29.38-.13.19-.2.42-.18.65.02.37.31.96.73 1Z"/><path class="cls-15" d="M26.34 71.87c-.55-1.01-2.27-2.38-3.8-2.72-.33-.2-.74-.26-1.15-.2-.05 0-.1.02-.15.03-.07 1.02.09 2.14.32 3.12.19 0 .37-.03.54-.1.1.05.37.07.49.12.23.1.49.25.69.4.42.33.75.78.83 1.31.15.97-.51 1.94-1.48 2.1.15.76.35 1.74.56 2.74.32-.06.63-.15.94-.28 2.48-1.04 3.48-4.18 2.22-6.51ZM31.37 75.93c-.11.1-.21.2-.32.3-.05.05-.09.09-.12.14-1.46.58-2.41 2.09-1.94 3.67.44 1.49 1.96 2.47 3.49 2.33.26-.02.5-.09.72-.17-.2-2.26-.34-4.65-.43-6.56-.44-.16-.96-.11-1.4.3Zm.3 3.33c-.06-.16.22-.27.07-.22.14-.05.28-.12.4-.21.05.11.09.23.1.33.02.16-.12.49.01.43-.21.09-.51-.17-.58-.33ZM26.29 94.82c2 .48 4.09-1.22 4.48-3.13.36-1.78-.62-3.36-2.15-4l-.03-.03c-.38-.38-1.08-.53-1.59-.3-.59-.03-1.16.11-1.67.39l.36 1.36s-.83 1.54-1.41 2.7c-.09.18-.24.51-.44.94.48 1 1.34 1.81 2.45 2.07Zm.13-4.37c.1-.14.45-.31.29-.38.26.12.51.16.75.13h.03c1.11.11.39 1.97-.52 1.89-.43-.03-.71-.63-.73-1-.01-.23.05-.46.18-.65ZM28.02 98.87c-2.19 0-3.96 2-4.01 4.23-.03 1.58.77 3.08 2 4 .17-.34.85-1.45 1.38-2.5-.82-1-.65-2.93.47-2.96.1.03.21.04.33.04.26.06.5.05.71 0 .45-.86.97-1.82 1.44-2.71-.66-.29-1.44-.36-2.33-.09ZM28.52 68.49c1.44.99 3.54.61 4.79-.58.08-1.55-.04-3.44-.04-3.44s.33-.17.53-.34c-.07-.12-.14-.24-.22-.36-.21 0-.52.02-.97.09-1.11.16-3.37 1.01-5.58 1.92.12 1.08.66 2.14 1.48 2.71Zm1.45-3.21c.06-.28.2-.6.54-.59.22 0 .45.25.58.41.12.15.41.67.41.68 0 0-.44.31-.6.38-.2.08-.47.17-.68.08-.22-.1-.24-.25-.3-.47-.02-.06-.03-.13-.04-.2.04-.09.07-.19.09-.29ZM19.73 102.17c-.72 1.49-1.83 3.65-1.65 3.73.23.1 1.49.7 1.49.7.21-.53.64-.76 1.01-.7.66-1.24.27-2.89-.85-3.73Z"/></g><path class="cls-19" d="M27.77 45.18c-.26-.76-.88-1.38-1.66-1.59-.14-.04-.28-.05-.42-.09h-.06c0-.03.01-.06.02-.08.02-.09.05-.17.08-.26.04-.18.07-.37.07-.56-.02-.76-.42-1.46-1.03-1.9-.35-.25-.76-.36-1.18-.39-.19-.02-.39 0-.58-.02-.12 0-.29-.02-.35-.06-.23-.19-.54-.25-.79-.09-.17-.29-.31-.64-.49-.98-.45-.84-4.65-4.62-4.65-4.62h-1.17c-.03-.19-.13-.36-.3-.44-.69-.32-1.47-.6-2.23-.36-.71.22-1.21.78-1.28 1.52-.03.3.03.61 0 .9 0 .03-.03.12-.05.13 0 .01-.01.02-.01.02-.01 0-.02 0-.05.02.07-.03-.14.04-.17.05-.02 0-.04 0-.05.01h-.03c-.06 0-.12.01-.19.02-.18.02-.37.03-.55.06-.3.05-.6.15-.85.32-.59.4-.99 1.05-1.03 1.76-.05.67.36 1.25.44 1.85.02.14.02.26-.04.38.02-.04-.08.06-.1.07-.2.12-.56.16-.82.26-.64.24-1.11.73-1.33 1.38-.24.7-.03 1.34.27 1.98.09.2.2.41.2.6 0 .05-.04.22 0 .06-.01.05-.03.1-.04.14s-.06.1-.09.15v.02l-.02.02c-.03.03-.06.06-.09.1-.07.07-.14.14-.22.2-.03.03-.07.06-.11.09H6.8c-.1.09-.2.16-.3.23-.39.28-.78.57-1.07.96-.31.41-.43.93-.31 1.43.14.58.56.98.9 1.44 0-.01.08.12.08.11.03.04.05.08.07.12.05.09.08.15.09.2.04.24-.07.48-.18.71-.3.62-.58 1.2-.6 1.9-.02.68.17 1.39.54 1.96.19.3.42.57.7.79.23.19.61.35.78.55.36.44.21 1.23.34 1.81.06.28.18.56.34.8.01.08.04.16.09.25.51.81 1.49 1.12 2.38.76.18-.07.36-.17.53-.23.08-.03.12-.05.17-.04-.02 0 .03.03.03.02l.02.02c.01.02.03.04.04.06l.12.21c.1.19.2.37.34.54.68.85 1.86.6 2.6-.02.34-.29.61-.68.97-.95.28-.2.49-.23.79-.11.5.21.93.43 1.49.3.51-.12.85-.5.93-1 1.28-.81 5.12-3.62 6.09-4.95.95-1.31 2.12-4.53 2.42-6.1.04-.03.08-.06.12-.1.53-.65.77-1.52.5-2.33Zm-2.17-1.62s-.03.05 0 0Z" id="Hair"/><path class="cls-16" d="M38.9 46.17c-.38-1.47-1.02-2.88-1.78-4.2-.86-1.49-1.88-2.87-2.91-4.23a.736.736 0 0 0-.46-.3.627.627 0 0 0-.55.04l-4.54 2.83c-.3.19-.41.58-.23.88a.4.4 0 0 0 .1.12c.31.6.7 1.17 1 1.77.28.56.42 1.16.55 1.76.09.4.17.81.28 1.21a26.8 26.8 0 0 0-7.96-.95h-.03c-.51 0-.97.65-.49 1.09.23.22.48.44.64.71.12.2.16.43.09.58-.03.07-.09.12-.14.15-.12.07-.11.07-.26.11-.16.04-.15.04-.29.05-.13 0-.27 0-.4-.01-.74-.09-1.44-.42-2.12-.7l-2-.82a.825.825 0 0 0-.26-.1.5.5 0 0 0-.32.02c-1.92.42-3.57 1.87-4.5 3.57-.84 1.54-1.45 3.21-2.05 4.85-.27.75-.54 1.5-.78 2.25 0 .01-.01.03-.02.04-.41 1.21-.73 2.42-1.01 3.66-.14.64-.28 1.29-.2 1.95.08.66.34 1.28.68 1.85.15.25.31.49.48.72.19.27.38.56.61.8.54.56 1.27.26 1.95.26s1.35.09 2.03.08c.64-.01 1.27-.09 1.89-.22a9.92 9.92 0 0 0 3.57-1.52c.5 1.05.95 2.11 1.36 3.22.02.05.05.11.08.15.09.24.33.45.6.43 3.9-.37 7.72-1.36 11.45-2.54 1.02-.32 2.03-.66 3.04-1.01.24-.08.42-.28.46-.52.05-.13.07-.27.02-.4a69.54 69.54 0 0 0-4.35-9.74c1.47-.03 2.95-.11 4.31-.71 1.21-.54 2.23-1.51 2.63-2.79.44-1.4.19-3.01-.17-4.4Z"/><g id="Layer_14"><path class="cls-12" d="m17.03 46.55-.44-1.84s-2.67-2.54-3.2-3.84c-.53-1.3-.9-3.25-.64-3.85.26-.6 1.01-2.1 2.1-2.29s3.01-.12 3.82.56 2.43 2.4 2.88 3.43 1.16 2.29.84 2.77-1.86 2.1-1.86 2.1 1.38 2.37 2.02 2.79.82 1.03.36 1.51-1.51.65-2.38.33-3.5-1.66-3.5-1.66ZM29.59 40.1s-1.23-2.81-2.23-2.61-2.36.57-2.36.57-1.58-1.64-1.62-2.56-.16-.75.39-1.24-.16-.42.67-.95c.83-.53.66-1.03 1.49-.62.83.4 2.67 1.7 3.66 2.62s2.91 2.97 2.91 2.97l-2.91 1.82ZM19.43 62.7c0-.11-.09-3.7-.09-3.7s4.43-.66 4.91-.88 2.35-.93 3.38-.74c1.02.19 3.57.28 3.62.58s-1.11.76-1.35 1.1.49.6.26.96-.7.65-1.09.97.09.89-.42 1.02-1.88-.71-1.88-.71l-1.85-.5-1.65.19-3.86 1.7Z"/></g><g id="Torso"><path class="cls-16" d="M18.03 58.5c.65-1.58 1.23-3.2 1.73-4.84.1-.33-.12-.7-.45-.79s-.69.12-.79.45c-.5 1.64-1.07 3.26-1.73 4.84-.13.32.14.71.45.79.37.1.66-.13.79-.45Z"/><path class="cls-18" d="M16.75 43.76c-1.29-.87-2.23-2.02-2.9-3.43-.16-.33-.29-.67-.4-1.05-.05-.18-.1-.36-.14-.55-.04-.2-.05-.25-.06-.47-.01-.17 0-.34 0-.51v-.1c-.01.1 0 0 0-.02.02-.1.04-.19.07-.28.11-.37.28-.72.5-1.05.24-.37.56-.6.94-.81s.72-.29 1.16-.29c.83 0 .83-1.3 0-1.29-1.01 0-2.04.41-2.75 1.15s-1.13 1.69-1.22 2.67c-.08.88.16 1.8.48 2.61.35.86.79 1.67 1.35 2.4a9.6 9.6 0 0 0 2.3 2.15c.29.19.71.06.88-.23.19-.32.06-.69-.23-.88ZM28.21 34.99c.67.54 1.34 1.09 1.97 1.69.63.6 1.2 1.24 1.75 1.91.21.26.69.24.91 0 .26-.28.23-.63 0-.91a18.6 18.6 0 0 0-1.75-1.91c-.63-.6-1.3-1.15-1.97-1.69-.26-.21-.66-.28-.91 0-.22.23-.28.69 0 .91Z"/><path class="cls-3" d="M34.3 32.05c.24-.09.48-.17.72-.25.48-.15.69-.93.16-1.18-.53-.24-1.07-.44-1.63-.6.14-.24.27-.49.39-.75.16-.33.06-.88-.39-.95-.48-.07-.9 0-1.33.24-.17.09-.33.21-.5.32-.03.02-.06.05-.09.07l-.2-.32c-.14-.22-.27-.46-.46-.65-.4-.42-1.07-.54-1.54-.16-.29.24-.39.57-.25.92.1.27.21.53.33.79.22.5.45.99.71 1.46.21.38.61.38.89.2l.68 1.04c-.25.28-.29.75.13.98.45.25.91.51 1.37.76.51.29 1.03.5 1.63.36.38-.09.62-.61.39-.95-.32-.46-.65-.91-.99-1.36Zm-4.21-3.14s-.05-.09 0 0Z"/><path class="cls-18" d="M27.46 32.84c-.61-.42-1.28-.94-2.07-.8-.38.07-.69.32-.87.63a.66.66 0 0 0-.82.62l-.03.38h-.25c-.31-.02-.52.2-.62.47-.27.69-.17 1.52.23 2.13.19.28.58.43.88.23.28-.18.43-.58.23-.88l-.11-.17c0-.01-.01-.03-.02-.04v-.02c-.01-.07-.04-.13-.06-.2 0-.03-.01-.13-.01-.11v-.1h.33c.37.02.62-.3.65-.64l.02-.27c.46.07.85-.34.75-.78h.02s.02 0 .03.01c.03 0 .06.02.09.03-.04-.01.09.04.1.05.08.04.16.09.24.14.21.13.42.28.62.42.28.19.73.06.88-.23.17-.33.07-.68-.23-.88Zm-1.81.47s-.01.01 0 0ZM23.63 36.92c-.35.76.05 1.57.82 1.86s1.5-.14 2.17-.47c.23-.11.5-.22.72-.15.14.05.34.23.47.39.41.51.75 1.1 1.09 1.66.44.71 1.55.06 1.12-.65-.32-.52-.64-1.04-.99-1.53s-.81-1-1.44-1.14c-.76-.16-1.4.21-2.05.53-.21.1-.48.2-.67.14.06.02-.09-.08-.04-.03-.02-.02-.06-.06-.05-.08-.01.01-.01.1-.02.13.15-.32.09-.7-.23-.88-.28-.16-.74-.09-.88.23Z"/><path class="cls-16" d="M22.37 46.42c1.59.3 3.1.86 4.49 1.68.67.4 1.32.85 1.91 1.37.59.51 1.21 1.08 1.6 1.77.44.76.52 1.67.28 2.51s1.02 1.14 1.25.34c.26-.92.24-1.93-.09-2.82s-.96-1.64-1.66-2.3c-1.32-1.26-2.87-2.24-4.55-2.94-.93-.38-1.89-.67-2.87-.85-.34-.06-.7.09-.79.45-.09.31.11.73.45.79Z"/><path class="cls-18" d="M15.86 44.64c.08.17.16.35.23.52l-.06-.16c.15.35.26.71.37 1.07.05.16.15.3.3.39s.34.12.5.06c.33-.11.56-.45.45-.79-.08-.28-.17-.55-.27-.82-.12-.31-.26-.62-.4-.93-.06-.14-.25-.26-.39-.3-.16-.04-.36-.02-.5.06s-.26.22-.3.39l-.02.17c0 .12.03.23.09.33ZM23.02 41.57c.11-.6-.16-1.32-.36-1.88-.21-.59-.47-1.16-.77-1.7-1.1-1.92-2.9-3.87-5.23-4.09-1.12-.1-2.49.22-3.32.99-.61.57.31 1.48.91.91 0 0 .06-.05.08-.07.02-.01.05-.03.05-.04.08-.05.17-.11.26-.15.14-.07.31-.14.52-.2.44-.13.78-.18 1.23-.17.1 0 .2 0 .3.02h.05c.04 0 .08.02.12.03.24.06.49.13.72.21.32.12.73.35 1.01.58 1.54 1.26 2.68 3.06 3.12 5 .02.08.07.22.06.29-.01.07-.1.14-.16.2-.18.19-.37.37-.54.57-.32.36-.64.71-1 1.04-.24.22-.24.5-.12.71 0 .02.02.04.03.07.34.66.82 1.23 1.18 1.87.17.3.59.42.88.23.29-.19.41-.57.23-.88-.28-.5-.63-.96-.93-1.44.22-.23.44-.46.65-.69.39-.43.93-.83 1.04-1.43Z"/><path class="cls-16" d="M18.52 58.34c.07 1.78.19 3.57.36 5.34.03.35.27.65.65.65.33 0 .68-.3.65-.65-.17-1.78-.28-3.56-.36-5.34-.02-.35-.29-.65-.65-.65-.34 0-.66.3-.65.65Z"/><path class="cls-16" d="M19.24 57.6c-1.3.04-2.6.1-3.88.33-.61.11-1.21.26-1.8.47s-1.31.47-1.69 1.02c-.2.29-.05.72.23.88.32.19.68.06.88-.23-.02.03.11-.06.15-.08.12-.06.25-.12.37-.18.23-.11.47-.19.71-.27.54-.18 1.11-.31 1.67-.4 1.1-.18 2.23-.21 3.35-.25.83-.03.83-1.32 0-1.29Z"/><path class="cls-18" d="M32.28 59.15c.56-.4.59-1.15.01-1.56-.32-.22-.76-.33-1.14-.42-.43-.1-.87-.16-1.31-.2-.44-.04-.88-.05-1.33-.05.03-.12.08-.24.08-.37 0-.45-.22-.85-.59-1.1-.17-.11-.48-.13-.65 0-.94.7-1.92 1.33-2.94 1.89-.02 0-.02.03-.03.04-.05 0-.09.01-.14.02-.02 0-.03.03-.05.04l-4.84.9c-.34.06-.54.48-.45.79.1.36.45.51.79.45l4.93-.92s.03-.04.05-.04c1.2-.22 2.38-.38 3.61-.41.37 0 .73.03 1.11.05-.11.02-.23.01-.33.06-.4.17-.65.56-.52 1 .12.44.46.52.83.65 0 0 .05.02.08.03h-.56c-.35 0-.7.02-.9.36-.16.27-.11.59-.02.86.01.04.03.08.04.12-.44-.24-.83-.53-1.16-.88-.22-.24-.52-.38-.85-.38-.29 0-.54.11-.82.16-.31.05-.7-.05-.93-.27-.34-.31-.76-.17-.97.11-1.32.73-2.64 1.47-3.97 2.19-.31.17-.4.59-.23.88.18.31.58.4.88.23 1.31-.71 2.61-1.44 3.92-2.16.37.2.77.34 1.19.32.15 0 .31-.02.45-.05.1-.02.32-.04.41-.11.02.02.04.05.05.06.08.09.15.18.24.26.38.34.82.63 1.28.87.52.28 1.23.54 1.73.07.34-.31.31-.79.18-1.2-.02-.05-.03-.09-.05-.13h.28c.43 0 .92.09 1.32-.12.72-.38.54-1.25.02-1.71.09 0 .19 0 .28-.01.35-.04.71-.09 1-.3Zm-.75-1.04s.04-.04 0-.01c-.06.05 0 .02 0 .01Zm-4.24-1.61s-.02-.03-.01-.01c.01.02 0 0 0 0Zm2.9 4.03v-.07.02c-.03-.06-.04-.05-.01.05Z"/><path class="cls-4" d="M32.66 32.31a.522.522 0 0 0-.07-.21c-.29-.67-.74-1.27-1.27-1.77a.686.686 0 0 0-.46-.19c-.14 0-.29.06-.41.15 0 0-.01 0-.02.01-2.81 1.87-5.36 4.13-7.8 6.45-.67.64-1.33 1.28-1.98 1.93-.16.16-.21.34-.18.5 0 .09.03.19.08.28.11.18.32.3.53.32h.12c.04 0 .07-.01.11-.02h.01c.05-.02.1-.05.15-.08 2.8-1.84 5.65-3.6 8.54-5.3.78-.46 1.57-.92 2.35-1.37.29-.16.36-.44.29-.68Z"/></g><path class="cls-19" d="M15.71 42.39c-.25.01-1.37.41-1.41.17 0 .03.48-.59.47-.58.12-.21.22-.48.26-.72.23-1.17-.44-1.88-1.24-2.6-.79-.72-.45-1.12.25-1.73.38-.33.78-.69.93-1.19.25-.83-.19-1.74-1.05-1.92-.51-.1-.84.35-.81.74a.61.61 0 0 0-.24.26c-.62 1.25-1.7 2.24-1.44 3.75.04.25.11.49.21.72a.58.58 0 0 0 0 .32l.95 2.82c.05.15.13.25.22.33 0 .41.23.79.62 1.02.02.01.04.02.05.03-.3.31-.16.72.14.92-.92 1.02-1.65 2.59-.31 3.08-.73 0-1.42.08-1.94.66-.58.64.36 1.53.91.91.44-.48 1.27-.25 1.85-.26.64-.02 1.3-.12 1.91-.33.96-.33 1.93-.87 2.36-1.83.81-1.83-.51-4.68-2.71-4.59Z"/><g id="Confetti1"><path class="cls-11" d="M39.38 5.69c-.54-.33-1.08-.65-1.62-.98a.48.48 0 0 0-.25-.14c-.38-.19-.73.06-.85.39-.03.06-.05.13-.06.2-.18 1.56-.89 2.97-1.73 4.27-.29.44.05.86.46.94.42.28.85.56 1.27.84.1.06.21.09.32.09.22.02.46-.05.62-.27 1-1.34 1.71-2.83 2.11-4.45.02-.08.02-.16.02-.23a.592.592 0 0 0-.3-.64Z"/><path class="cls-14" d="M24.29 10.67s-.02-.05-.03-.08c0-.03 0-.07-.02-.1-.1-.36-.45-.51-.79-.45-.58.1-1.15.21-1.73.31-.4.06-.78.5-.54.97.12.25-.03.64-.29.74-.37.15-.7-.27-.69-.6 0-.26-.11-.43-.27-.53a.64.64 0 0 0-.55-.33c-.33 0-.66.06-.98.16-.29-.04-.6.08-.7.45-.53 1.94 1.13 4.14 3.15 4.13 2.47-.01 4.04-2.38 3.44-4.68Z"/><path d="M55.75 32.24s-.01-.05-.02-.07c-.7-1.61-1.9-2.98-3.39-3.9a.273.273 0 0 0-.3-.01c-.14-.04-.28.02-.37.14-.3.41-.61.82-.91 1.23-.19.1-.27.42-.03.58 1.09.74 1.92 1.85 2.33 3.1.03.09.08.14.14.18.07.14.21.2.37.17.8-.11 1.55-.49 2.15-1.04.11-.1.12-.27.04-.39Z" style="fill:#f2a6b0"/><path class="cls-3" d="M54.57 9.46c.98.19.8 1.4-.31 1.13-.34-.08-.58-.28-.93-.33-.53-.06-1.08.06-1.49.41-.45.38-.7.99-.6 1.58.08.52 1.45 1.86.41 2.18-.54.17-1.35-.41-1.98-.34-.57.06-1.12.33-1.47.78-.73.93-.42 2.32.64 2.83.75.36 1.4-.76.65-1.12-.81-.39-.26-1.2.44-1.22.41-.01.76.26 1.15.34.59.12 1.24-.05 1.69-.46.41-.37.62-.93.6-1.48-.01-.3-.11-.61-.25-.87-.17-.3-1.14-1.11-.06-1.37.35-.08.93.39 1.32.44.29.04.58.02.86-.08.48-.16.93-.53 1.15-.99.56-1.16-.26-2.46-1.46-2.69-.81-.15-1.16 1.09-.34 1.25Z"/><path class="cls-4" d="M71.45 16.24c-.9-1.99-3.36-2.78-5.24-1.64-2 1.22-2.36 3.83-1.07 5.7.13.18.3.27.48.28.17.05.35.04.5-.06l1.36-.94c.16-.11.26-.27.3-.45.11-.22.11-.49-.1-.73-.29-.33-.28-.89.02-1.21.53-.56 1.08.32 1.33.72.09.15.22.23.35.27.19.1.43.11.62-.02.39-.27.79-.53 1.18-.8.23-.16.36-.43.3-.69a.65.65 0 0 0-.04-.45Z"/><path class="cls-3" d="M48.63 40.05c-1.01.32-1.7 1.35-1.23 2.39.22.47.66.86 1.17.99.48.12 2.29-.41 1.54.79-.32.51-.79.74-.9 1.4-.09.52.04 1.06.38 1.46.36.43.93.67 1.49.59.2-.03.41-.18.59-.19 1.75-.1.39 1.19-.03 1.41-.74.37-.09 1.49.65 1.12.93-.47 1.74-1.44 1.47-2.55-.12-.49-.45-.94-.89-1.19-.58-.34-.87-.09-1.44-.09-.21.15-.38.05-.51-.27-.46-.22-.47-.44-.03-.66.19-.19.42-.34.57-.58.31-.47.36-1.09.14-1.61-.18-.43-.53-.75-.96-.92-.19-.07-.41-.13-.61-.13-.17.02-.34.05-.51.07-.49.25-.67-.02-.55-.78.79-.25.45-1.5-.34-1.25Z"/></g></g><g id="Outline"><path class="cls-5" d="M51.04 169.97c-.15-.33-1.99.24-4.95.94-.74.17-1.55.36-2.43.52-.87.19-1.82.32-2.8.48-1.98.27-4.17.48-6.47.54-2.3.04-4.5-.08-6.49-.26-.99-.12-1.94-.21-2.82-.36-.89-.12-1.7-.27-2.45-.41-2.99-.57-4.86-1.06-4.99-.73-.12.28 1.55 1.34 4.56 2.36.75.25 1.58.51 2.49.72.9.25 1.89.41 2.92.6 2.08.32 4.4.51 6.83.47 2.43-.06 4.74-.36 6.8-.76 1.03-.23 2-.44 2.89-.73.9-.25 1.72-.55 2.46-.83 2.96-1.15 4.58-2.29 4.45-2.56Z"/><path d="M56.95 121.2c-.08-.19-2.48.82-6.5 1.93-.5.13-1.03.28-1.58.42-.55.15-1.13.25-1.73.39-1.19.29-2.48.49-3.83.73-2.72.4-5.73.69-8.9.73-3.17.01-6.19-.22-8.91-.58-1.36-.21-2.65-.39-3.85-.66-.6-.13-1.18-.22-1.73-.36-.55-.14-1.08-.27-1.59-.4-4.03-1.05-6.45-2.02-6.53-1.83-.03.08.54.39 1.61.88.27.12.57.26.9.41.33.14.7.27 1.09.42.79.29 1.68.65 2.69.93.51.15 1.04.31 1.59.48.55.16 1.14.28 1.75.44 1.21.32 2.52.53 3.9.78 2.77.42 5.85.7 9.08.68 3.24-.04 6.31-.37 9.07-.84 1.37-.27 2.68-.51 3.88-.85.6-.16 1.19-.29 1.74-.47s1.08-.34 1.58-.5c1.01-.3 1.9-.68 2.68-.98.39-.16.75-.29 1.08-.44.32-.15.62-.29.89-.42 1.06-.51 1.63-.83 1.6-.91Z" style="fill:#ffc101"/><path class="cls-5" d="M182.99 133.14c-.09.02-.04.48-.02 1.3.03.81 0 2-.34 3.4-.34 1.39-.98 3.01-2.12 4.51-.57.75-1.25 1.47-2.04 2.1-.8.63-1.71 1.12-2.74 1.56-1.02.44-2.08.84-3.07 1.36-.99.51-1.92 1.2-2.59 2.04-.67.83-1.1 1.72-1.47 2.52-.37.8-.69 1.54-1.04 2.16-.69 1.25-1.53 2.07-2.21 2.47-.68.4-1.15.46-1.14.56 0 .07.5.17 1.34-.14.83-.31 1.88-1.14 2.73-2.45.87-1.28 1.47-3.02 2.64-4.41.59-.68 1.36-1.24 2.28-1.7.91-.46 1.94-.84 3.01-1.3 1.06-.45 2.12-1.03 2.99-1.74.88-.71 1.61-1.53 2.2-2.37 1.2-1.69 1.8-3.48 2.06-4.99.26-1.52.15-2.79-.03-3.62-.17-.84-.38-1.27-.45-1.25ZM169.78 114.5c-.09.04.09.53.34 1.41.26.88.58 2.17.68 3.8.11 1.62 0 3.57-.56 5.62a15.91 15.91 0 0 1-1.23 3.09c-.52 1.03-1.22 1.98-2.01 2.99-.77 1.01-1.54 2.1-1.95 3.36-.4 1.26-.4 2.52-.29 3.65.24 2.27.77 4.14.66 5.74-.06 1.6-.53 2.83-1.08 3.52-.53.71-1.01.95-.95 1.05.02.05.59-.04 1.3-.74.73-.68 1.39-2.03 1.57-3.77.1-.86.06-1.83-.06-2.81-.11-.99-.28-2.02-.35-3.08-.07-1.06-.05-2.16.3-3.19.35-1.03 1.03-2.01 1.79-3.01.38-.5.77-1.01 1.13-1.54l.51-.81c.17-.27.3-.55.45-.83.56-1.11.97-2.24 1.25-3.35.55-2.22.57-4.29.34-5.99-.22-1.7-.69-3.01-1.09-3.87-.4-.86-.72-1.28-.78-1.25Z"/><path class="cls-5" d="M184.11 115.24c0-.05-.64-.02-1.52.62-.89.62-1.86 1.94-2.44 3.75-.64 1.81-.71 4.07-1.32 6.31-.31 1.12-.8 2.22-1.64 3.09-.83.89-1.99 1.6-3.11 2.53-1.16.93-2.03 2.18-2.63 3.41-.6 1.24-1 2.49-1.35 3.65-.35 1.18-.66 2.26-1 3.28-.34 1.02-.67 1.95-1.03 2.77-.36.81-.77 1.51-1.2 2.04-.43.54-.9.91-1.32 1.15-.85.47-1.44.52-1.43.63 0 .05.61.18 1.63-.21.5-.21 1.08-.57 1.62-1.13.54-.55 1.03-1.28 1.46-2.12.86-1.68 1.59-3.78 2.32-6.09.75-2.27 1.62-4.81 3.69-6.47 1.02-.86 2.23-1.6 3.2-2.65.99-1.06 1.54-2.38 1.84-3.6.6-2.46.57-4.65 1.07-6.36.45-1.72 1.21-2.97 1.93-3.63.71-.69 1.26-.88 1.22-.98ZM185.76 139.83c-.31-.15-1.08.89-2.38 1.65-1.28.8-2.56 1-2.57 1.34 0 .16.35.33.95.34.6.01 1.44-.17 2.23-.65s1.35-1.14 1.62-1.67c.27-.54.29-.93.15-1ZM99.11 71.61c-.15.08-.1.47-.48.82-.17.17-.47.35-.76.37-.31.03-.73-.05-1.23-.26-.5-.19-1.1-.55-1.97-.8-.43-.12-.95-.21-1.53-.13-.6.07-1.16.36-1.57.66-.42.3-.76.61-1.07.86-.3.25-.58.44-.73.47-.16.03-.19.04-.41-.07-.22-.11-.54-.39-.97-.72-.43-.32-1.06-.75-1.9-.81-.82-.06-1.52.24-2.03.57-.51.34-.92.77-1.23 1.17-.3.39-.54.75-.75 1.06-.44.61-.78.93-1.29 1.15-.49.22-1.03.27-1.5.21-.94-.12-1.64-.74-2.03-1.21-.4-.48-.58-.85-.75-.82-.15.01-.31.46-.08 1.24.11.39.34.84.73 1.3.38.45.96.89 1.72 1.14.75.25 1.64.29 2.55.03.45-.13.91-.34 1.33-.65.43-.3.77-.67 1.06-1.02.29-.35.55-.69.79-.97s.47-.48.72-.63c.24-.15.45-.19.57-.18.11 0 .32.1.65.35.33.24.71.61 1.33.93.31.15.68.29 1.09.32.4.03.82-.02 1.16-.16.71-.26 1.12-.66 1.48-.98.35-.33.62-.6.87-.8.25-.2.43-.31.61-.35.19-.05.45-.05.74-.01.58.08 1.22.34 1.93.49.7.15 1.45.18 2.1-.08.67-.28 1.02-.76 1.18-1.19.17-.44.11-.84-.01-1.05-.12-.21-.26-.26-.32-.23ZM31.82 71.47c-.32.07.22 3.6 1.21 7.88.37 1.61.75 3.09 1.1 4.31l.97-.2c-.5-2.06-.93-3.39-1.13-3.35-.2.04-.13 1.44.16 3.53l.97-.2a88.77 88.77 0 0 0-.9-4.36c-.99-4.28-2.05-7.69-2.37-7.61ZM32.55 54.97c.15-.02.19-.83-.14-2.08-.16-.63-.43-1.35-.81-2.12-.39-.76-.9-1.56-1.53-2.33-.64-.76-1.33-1.4-2.01-1.93-.69-.51-1.35-.91-1.93-1.18-1.17-.55-1.97-.66-2.02-.51-.06.17.61.55 1.6 1.25.99.69 2.28 1.74 3.45 3.14 1.16 1.4 1.97 2.86 2.47 3.96.5 1.1.76 1.83.94 1.8ZM19.14 54.06c-.13-.06-.39.22-.72.72-.16.25-.35.56-.54.92-.09.18-.19.37-.3.56l-.15.3c-.04.07-.03.05-.03.06s0 0-.01 0l-.26.06c-.18.05-.37.09-.56.14-2.39.61-4.26 1.37-4.18 1.69s2.09.08 4.48-.53c.47-.13.94-.25 1.37-.37.08-.2.16-.4.24-.59.04-.11.08-.21.12-.32.07-.21.14-.41.21-.6.13-.38.23-.73.3-1.02.14-.58.17-.96.04-1.01Z"/></g></svg>