<svg xmlns="http://www.w3.org/2000/svg" viewBox="0 0 200 200"><defs><style>.cls-1{fill:none}.cls-2{fill:#e0dcd8}.cls-3{fill:#d4e6e9}.cls-4{fill:#fff}.cls-7{fill:#9e8475}.cls-8{fill:#f4c044}.cls-10{fill:#bfd8dc}.cls-11{fill:#5b3d5b}</style></defs><path d="M54.67 180.9c.11.1.24.15.38.13 7.26 2.42 14.89 3.91 22.37 4.97 17.06 2.43 35.52 4.81 52.57 1.17 16.99-3.62 30.51-14.01 40-28.39 9.5-14.4 16.58-31.64 19.11-48.75 5.73-38.66-21.6-67.92-55.47-81.58-.82-.33-1.66-.66-2.49-.98-.12-.22-.12-.48-.36-.63-.05.14-.1.34.03.5-10.58-4.12-22.18-7.75-33.84-9.29l.28-.36c-.34.02-.47.17-.64.31l-.43-.06.06-.21s-.14.08-.2 0c-.04.07-.03.12-.02.18-7.9-.97-15.82-.95-23.46.57-9.19 1.82-18.02 6.19-24.76 12.56-.02-.01-.04-.02-.03 0h.02c-.03.02-.05.05-.08.07-.01 0-.02 0-.02.02-5.62 5.35-9.77 12.11-11.42 19.97-2.01.75-3.59 2.58-3.3 5.33 2.17 20.07.5 40.54-5.35 59.89-2.66 8.8-7.86 17.69-7.78 27.05.07 8.39 4.26 16.19 9.87 22.22 6.87 7.39 15.58 12.12 24.95 15.29z" style="fill:#edebe8" id="BG_Strong"/><g id="Illustrations"><path class="cls-1" d="M142.33 97.71c-.54-1.62-2.57-6.07-2.57-6.07s.46 9.9.52 10.14.91 13.15.91 13.15 1.33-1.89 1.48-2.86c.14-.97 1.01-4.51 1.09-6.11.08-1.59-.88-6.64-1.42-8.25zM72.09 128.58c-.08-.06-.17-.11-.26-.16-.28.1-.57.2-.88.3.06.42.13.84.19 1.26l.95-1.4zM69.89 71.72c.17-.09.34-.18.52-.26l-.51-.51c0 .26-.01.52 0 .78zM83.62 129.02l.02-.04h-.03v.04zM69.97 74.32s.05-.04.07-.05c-.02.01-.04.03-.07.04v.01z"/><path class="cls-10" d="M115.66 57.27c.21-.27.43-.54.66-.79.25-.27.52-.52.79-.77-.27-.16-.54-.31-.82-.44-.28-.13-.58-.24-.87-.34-.05-.02-.1-.03-.15-.04.06.45.14.89.22 1.34.06.32.12.68.18 1.04zM145.81 85.98l.06.18c.26-.3.53-.6.79-.89-.36-.01-.72-.03-1.08-.04.08.25.15.5.23.75zM111.52 90.19l.33 1.31c.24-.33.48-.65.73-.98-.35-.11-.71-.21-1.06-.33zM150.86 67.31s-.06.04-.09.05c.01.02.02.04.04.06.02-.03.04-.07.06-.1zM50.45 117.2c.31-.35.62-.7.93-1.06-.37-.21-.74-.42-1.1-.65l.18 1.71zM70.81 127.78c.05.31.09.63.14.94.31-.1.6-.2.88-.3-.34-.22-.67-.44-1.02-.64zM96.37 73.6c.14-.13.28-.25.44-.36-.18-.08-.35-.17-.53-.25l.1.61zM128.17 75.07l.11-.11c-.04 0-.08.01-.13 0 0 .03.01.06.02.1zM161.8 96.81c.08-.06.16-.11.25-.15-.11-.03-.21-.07-.32-.11.02.09.05.17.07.26zM135.13 130.16c.02.05.04.11.05.16.15-.25.29-.49.46-.71.06-.08.14-.15.2-.23-.34-.13-.68-.26-1.03-.38.1.39.2.77.32 1.15z"/><path class="cls-10" d="M162.48 100.95c-.5.61-1.68.64-1.94-.35-.41-1.54-.83-3.08-1.24-4.62-.07-.28-.04-.52.05-.72-.21-.75.35-1.71 1.3-1.39l3.39 1.12c-.06-.68-.11-1.27-.17-1.7-.37-2.82-1.82-8.32-2.81-11.47-.99-3.15-4.28-9.72-5.48-11.78-.45-.77-1.2-1.82-2.07-2.94-.48.87-.97 1.75-1.45 2.62-.32.58-.91.64-1.37.42-.31.02-.62-.07-.82-.31-.94-1.16-1.66-2.4-2.18-3.8-.1-.27-.05-.56.09-.81-.1-.51.11-1.08.75-1.26.68-.2 1.37-.32 2.06-.39-.57-.65-1.11-1.24-1.57-1.7-1.93-1.95-7.75-4.53-10.1-5.47-.43-.17-.96-.36-1.54-.55-.64.76-1.28 1.51-1.91 2.28-.54.66-1.64.25-1.84-.49a56.24 56.24 0 0 1-.75-3.11c-1.51-.41-2.93-.76-3.88-.98-2.37-.54-8.9-1.36-8.9-1.36l-.02-1.9-4.27 2.43c.34.12.67.26.93.36 1.09.44 2.05 1.03 2.98 1.76.62.49.27 1.35-.22 1.73-.94.72-1.8 1.59-2.47 2.56-.55.78-1.15 1.83-2.27 1.32-1-.45-1.11-2.35-1.3-3.29-.03-.15-.05-.3-.08-.44l-4.62 8.34-1.74-3.51-3.69-9.01-2.96-2.36-.33 1.81s-3.72.75-5.36 1.13c-1.02.24-4.67 1.47-7.82 2.63a39.7 39.7 0 0 0-1.64 2.22c-.07.11-.16.19-.25.26-.36.82-1.79.98-2.08-.12-.06-.25-.13-.49-.19-.74-.13.06-.26.12-.36.16-2.19 1.05-2.69 1.56-3.78 2.71s-3.59 5.7-5.1 8.81c-.22.44-.44.98-.68 1.57.52.5 1.04 1 1.58 1.49.4.37.45 1.2 0 1.56-1.21.95-2.41 1.9-3.62 2.84-.77 2.45-1.46 4.87-1.89 6.46-.92 3.44-2.43 10.44-2.73 12.07-.3 1.62-1 6.07-1.58 8.82-.58 2.75-2.15 4.33-3.27 5.04s-2.43.45-4.35.29-5.6-1.46-6.93-1.81c-1.33-.35-4.6-1.69-4.6-1.69s-4.51 10.36-4.52 10.79c0 .43-1.55 4.8-1.55 4.8s8.26 4.16 9.51 4.72c1.25.56 8.92 2.96 12.93 3.87 2.27.52 4.87.09 7.13-.52-.12-.81-.25-1.61-.4-2.41-.04-.19-.02-.36.02-.51-.58-.77.4-2.11 1.5-1.59 1.48.7 2.88 1.52 4.21 2.48.05.04.1.08.14.12 2.13-1.09 4.46-3.07 5.57-4.19 1.31-1.33 4.28-5.61 4.28-5.61l.13 3.65.2 3.47c.19.04.37.08.56.13.74.19 1.71.31 2.18.97.58.8-.01 1.58-.45 2.28-.52.82-1.03 1.63-1.55 2.45-.12.19-.24.41-.37.65l.34 6.02 26.07-.38 22.52.53.83 10.74 11.35-2.09-1.56-9.2s5.69-2.51 8.89-4.8c.55-.39 1.13-.97 1.73-1.66l-.24-.89c-.14-.5.06-.89.38-1.13.03-.04.05-.09.08-.12.43-.43 1.01-.36 1.47-.05 2.31-3.29 4.41-7.36 4.78-8.27.55-1.35 2.6-10.15 2.87-12.55.16-1.4.08-5.01-.08-8.33l-.39.51c-.45.59-.78 1.15-1.43 1.38zM53.86 116.64c-1.04 1.19-2.09 2.38-3.13 3.56-.46.53-1.08.41-1.47.03-.41-.13-.76-.46-.81-.99-.18-1.71-.35-3.42-.53-5.13-.01-.14.01-.25.04-.36-.44-.9.49-2.18 1.47-1.47 1.34.97 2.74 1.84 4.21 2.63.66.35.67 1.22.22 1.73zm20.42-19.48a29.731 29.731 0 0 0-3.25 3.66c-.07.1-.16.18-.25.24-.28.99-1.88 1.27-2.1.07l-1.17-6.56c-.23-1.27 1.52-1.85 2.01-.87 1.53.52 3.04 1.1 4.53 1.73.66.28.68 1.29.22 1.73zm8.82 13.86c-.2.22-.46.31-.73.31.12.83.25 1.66.37 2.48.21 1.39-1.91 1.98-2.12.59-.26-1.71-.51-3.42-.77-5.12-.19-1.27 1.55-1.86 2.01-.88.41.36.82.71 1.23 1.07.46.4.38 1.14 0 1.56zm12.69-10.26c-.85 1.48-1.77 2.92-2.76 4.3-.13.18-.28.29-.45.37.03.37-.03.72-.34.99-.34.3-.93.47-1.33.17-.87-.64-.77-1.87-.96-2.85-.24-1.22-.55-2.42-.92-3.61-.16-.53.06-.94.42-1.16.22-.39.65-.67 1.2-.56 1.39.27 2.78.51 4.18.69.8.1 1.41.86.95 1.66zm5.57-26.19c-.68.58-1.34 1.17-2 1.76-.31.28-.61.56-.92.84-.24.22-.76.55-.91.84-.28.58-.83.66-1.28.46-.57.27-1.31.13-1.43-.66-.29-1.89-.59-3.77-.88-5.66-.03-.2 0-.38.05-.55-.27-.77.63-1.83 1.63-1.36l5.52 2.58c.62.29.73 1.29.22 1.73zm8.89 19.55-1.32-5.19c-.07-.26-.04-.5.04-.7.21-.57.89-1.05 1.62-.74 1.33.56 2.7 1 4.1 1.34.63.16 1.08 1.05.66 1.62l-2.71 3.64c-.13.18-.3.3-.47.37-.51.6-1.67.63-1.92-.36zm3.54 41.81c-.62.17-1.13-.22-1.35-.77-.46-1.1-.65-2.29-.59-3.48.08-1.41 2.28-1.42 2.2 0-.05 1.02.12 1.95.51 2.89.23.55-.25 1.21-.77 1.35zm2.55-19.23c-.46-.05-.9-.04-1.33.15-.54.24-1.18.16-1.51-.4-.05-.09-.08-.21-.1-.32-.51.03-.96-.29-1.12-.78-.21-.64-.42-1.28-.63-1.91-.19-.57.22-1.2.77-1.35h.1c.29-.17.66-.2 1.03.06 1.23.84 2.42 1.73 3.57 2.68.71.59.14 1.97-.78 1.88zm11.25-38.53c-.49.07-1.01-.14-1.15-.77l-1.08-4.77c-.05-.2-.03-.38 0-.55-.22-.73.36-1.69 1.32-1.44 1.72.45 3.43.9 5.15 1.34.47.12.71.46.76.83.18.37.17.82-.21 1.2-1.31 1.29-2.62 2.58-3.93 3.86-.27.27-.58.35-.88.31zm2.95 28.08c-.58.17-1.3-.07-1.42-.74-.27-1.6-.58-3.2-.93-4.79-.08-.39.02-.71.23-.94.19-.47.65-.84 1.28-.72 1.59.32 3.19.65 4.78.97.86.18 1 1.27.49 1.84-1.2 1.34-2.4 2.69-3.6 4.03-.25.28-.55.37-.83.34zm7.92 23.47c-.75.77-1.32 1.59-1.89 2.49-.29.45-.79.85-1.29.88-.19.16-.43.26-.68.25h-.09c-.65-.04-1.04-.48-1.1-1.1v-.07c0-.07.02-.12.02-.18-.07-.2-.14-.39-.2-.59-.12-.37-.23-.74-.34-1.11-.23-.8-.42-1.61-.58-2.42-.13-.66.28-1.13.77-1.3.23-.17.53-.24.89-.14 1.47.43 2.89.96 4.28 1.58.67.29.67 1.27.22 1.73zm10.04-14.97c-.38.43-.77.86-1.15 1.29-.19.22-.38.43-.58.65-.09.1-.16.23-.22.3-.02.13-.06.25-.14.35-.26.36-.6.66-1.08.61-.06 0-.11-.03-.17-.04-.45.02-.91-.21-1.06-.77-.49-1.8-.9-3.61-1.23-5.45-.09-.48.12-.86.43-1.1.2-.43.64-.72 1.22-.52 1.11.37 2.21.74 3.32 1.11.75.25 1.84.43 1.97 1.38.12.91-.78 1.59-1.32 2.2zm1.35-29.78c-.03.04-.06.08-.1.11-.52.59-1.04 1.18-1.56 1.76-.28.31-.55.63-.83.94l-.45.45c0 .41-.23.87-.62 1.02-.33.36-.83.48-1.34.21-.7-.36-.81-1.41-1.01-2.09l-.9-2.97c-.08-.25-.07-.48 0-.67.1-.44.43-.81 1.02-.79l4.6.18c.92-.43 2.02.9 1.2 1.83z"/><path class="cls-10" d="M130.9 103.13c.4-.45.8-.89 1.2-1.34-.51-.1-1.01-.21-1.52-.31.11.55.22 1.1.32 1.65zM70.13 96.74c.19-.1.37-.2.56-.3-.22-.08-.44-.15-.65-.23l.09.53zM145.34 112.77l.09-.09c-.04-.01-.08-.03-.12-.04 0 .04.02.09.03.13z"/><path class="cls-3" d="M132.39 74.01c.38-.38.4-.83.21-1.2-.06-.37-.29-.7-.76-.83-1.72-.45-3.43-.9-5.15-1.34-.96-.25-1.54.72-1.32 1.44-.04.16-.06.35 0 .55l1.08 4.77c.14.63.66.85 1.15.77.29.04.6-.04.88-.31 1.31-1.29 2.62-2.58 3.93-3.86zm-4.22 1.06s-.01-.06-.02-.1h.13c-.04.03-.07.07-.11.11zM148.65 83.14l-4.6-.18c-.59-.02-.92.35-1.02.79-.07.19-.08.41 0 .67l.9 2.97c.21.68.31 1.73 1.01 2.09.51.26 1.01.14 1.34-.21.38-.16.61-.61.62-1.02.17-.17.39-.38.45-.45.28-.31.55-.63.83-.94.52-.59 1.04-1.18 1.56-1.76.04-.04.07-.07.1-.11.82-.93-.28-2.25-1.2-1.83zm-2.79 3.02-.06-.18c-.08-.25-.15-.5-.23-.75.36.01.72.03 1.08.04-.26.3-.53.6-.79.89zM134.49 100.03c-1.59-.32-3.19-.65-4.78-.97-.63-.13-1.1.25-1.28.72-.2.24-.31.56-.23.94.35 1.59.66 3.19.93 4.79.11.66.84.9 1.42.74.28.03.57-.06.83-.34 1.2-1.34 2.4-2.69 3.6-4.03.51-.57.38-1.67-.49-1.84zm-3.59 3.1c-.1-.55-.21-1.1-.32-1.65.51.1 1.01.21 1.52.31-.4.45-.8.89-1.2 1.34zM147.85 111.17c-1.11-.37-2.21-.74-3.32-1.11-.58-.2-1.02.09-1.22.52-.31.24-.52.62-.43 1.1.33 1.83.74 3.65 1.23 5.45.15.57.61.79 1.06.77.06.01.11.04.17.04.48.05.82-.25 1.08-.61.07-.1.12-.22.14-.35.05-.07.13-.2.22-.3.19-.22.38-.43.58-.65.38-.43.77-.86 1.15-1.29.54-.61 1.44-1.29 1.32-2.2-.13-.95-1.22-1.13-1.97-1.38zm-2.51 1.6-.03-.13c.04.01.08.03.12.04l-.09.09zM160.65 93.87c-.95-.31-1.51.64-1.3 1.39-.09.2-.12.44-.05.72.41 1.54.83 3.08 1.24 4.62.26.99 1.44.96 1.94.35.65-.23.98-.79 1.43-1.38l.39-.51c-.07-1.49-.16-2.91-.26-4.06l-3.39-1.12zm1.15 2.94c-.02-.09-.05-.17-.07-.26.11.04.21.07.32.11-.09.04-.17.09-.25.15zM147.77 65.22c-.14.25-.2.54-.09.81.52 1.4 1.24 2.64 2.18 3.8.2.24.51.33.82.31.46.22 1.05.16 1.37-.42.48-.87.97-1.75 1.45-2.62-.92-1.19-1.97-2.45-2.92-3.53-.69.07-1.38.19-2.06.39-.64.19-.84.76-.75 1.26zm3.09 2.09s-.04.07-.06.1a.21.21 0 0 0-.04-.06c.03-.01.06-.03.09-.05zM155.26 128.25s-.05.08-.08.12c-.32.23-.52.63-.38 1.13l.24.89c.56-.65 1.13-1.39 1.69-2.19-.46-.31-1.04-.38-1.47.05zM138.23 127.99a34.9 34.9 0 0 0-4.28-1.58c-.36-.1-.66-.03-.89.14-.49.17-.9.65-.77 1.3.16.81.35 1.62.58 2.42.11.37.22.74.34 1.11.07.2.13.4.2.59 0 .06-.03.11-.02.18v.07c.06.62.46 1.06 1.1 1.1h.09c.25.02.49-.09.68-.25.5-.03 1-.43 1.29-.88.58-.9 1.14-1.72 1.89-2.49.45-.46.44-1.43-.22-1.73zm-2.58 1.62c-.17.22-.31.46-.46.71a.983.983 0 0 1-.05-.16c-.12-.38-.22-.77-.32-1.15.35.12.69.25 1.03.38-.06.08-.14.15-.2.23zM135.46 58.12c.63-.77 1.27-1.52 1.91-2.28-1.32-.44-2.96-.91-4.5-1.32.23 1.04.47 2.08.75 3.11.2.74 1.3 1.15 1.84.49zM115.79 52.71c-.44-.15-.92-.28-1.34-.26-.69-.35-1.67-.07-1.58.9.11 1.13.27 2.25.48 3.36l2.11-3.82.33-.19z"/><path class="cls-3" d="M114.73 60.45c1.13.51 1.73-.54 2.27-1.32.68-.97 1.53-1.84 2.47-2.56.5-.38.84-1.24.22-1.73-.92-.73-1.88-1.32-2.98-1.76-.26-.1-.58-.24-.93-.36l-.33.19-2.11 3.82c.03.15.05.3.08.44.19.94.29 2.84 1.3 3.29zm.69-5.52c.3.1.59.21.87.34.28.13.55.28.82.44-.27.25-.54.5-.79.77-.23.25-.45.52-.66.79-.06-.36-.12-.72-.18-1.04-.08-.45-.16-.89-.22-1.34.05.02.1.03.15.04zM112.64 94.1l2.71-3.64c.42-.57-.02-1.46-.66-1.62-1.4-.34-2.77-.78-4.1-1.34-.73-.31-1.41.16-1.62.74-.09.2-.11.43-.04.7l1.32 5.19c.25.99 1.42.96 1.92.36.17-.08.33-.19.47-.37zm-1.12-3.91c.35.12.71.22 1.06.33-.24.33-.48.65-.73.98l-.33-1.31zM113.54 112.14c-.38-.26-.75-.23-1.03-.06h-.1c-.55.15-.95.79-.77 1.35.21.64.42 1.28.63 1.91.16.49.62.81 1.12.78.02.11.05.22.1.32.33.56.96.64 1.51.4.43-.19.87-.2 1.33-.15.92.09 1.49-1.29.78-1.88-1.15-.95-2.34-1.85-3.57-2.68zM114.05 131.68c.08-1.42-2.13-1.41-2.2 0-.06 1.19.13 2.38.59 3.48.23.55.73.94 1.35.77.52-.14 1-.8.77-1.35-.39-.94-.56-1.88-.51-2.89zM94.84 99.1c-1.4-.18-2.8-.42-4.18-.69-.56-.11-.98.17-1.2.56-.36.22-.58.63-.42 1.16.37 1.19.68 2.39.92 3.61.19.98.09 2.21.96 2.85.41.3 1 .13 1.33-.17.3-.27.37-.62.34-.99.17-.08.32-.19.45-.37 1-1.39 1.92-2.82 2.76-4.3.45-.8-.15-1.55-.95-1.66zM86.79 128.13c.44-.7 1.03-1.48.45-2.28-.47-.66-1.45-.78-2.18-.97-.18-.05-.37-.08-.56-.13l.36 6.47c.13-.23.26-.46.37-.65.52-.82 1.03-1.63 1.55-2.45zM84.94 58.23c.09-.07.18-.15.25-.26a39.7 39.7 0 0 1 1.64-2.22c-1.7.62-3.24 1.22-4.16 1.63.06.25.13.49.19.74.29 1.1 1.71.94 2.08.12zM101.14 72.84l-5.52-2.58c-1-.47-1.89.59-1.63 1.36-.06.17-.08.35-.05.55.29 1.89.59 3.77.88 5.66.12.79.85.93 1.43.66.45.2 1 .11 1.28-.46.14-.29.67-.62.91-.84.3-.28.61-.56.92-.84.66-.6 1.33-1.18 2-1.76.51-.44.39-1.44-.22-1.73zm-4.77.76-.1-.61c.18.08.35.17.53.25-.16.11-.3.23-.44.36zM74.32 72.12c-.53-.49-1.06-.99-1.58-1.49-.66 1.65-1.38 3.78-2.04 5.89 1.21-.95 2.41-1.9 3.62-2.84.45-.36.4-1.19 0-1.56zM74.06 95.43c-1.49-.63-3-1.21-4.53-1.73-.49-.98-2.24-.4-2.01.87l1.17 6.56c.21 1.2 1.82.92 2.1-.07.09-.07.17-.14.25-.24.98-1.31 2.07-2.53 3.25-3.66.46-.44.44-1.45-.22-1.73zm-3.93 1.31-.09-.53c.22.08.44.15.65.23-.19.1-.37.2-.56.3zM69.97 124.84c-1.1-.52-2.08.82-1.5 1.59-.04.16-.05.32-.02.51.15.8.28 1.6.4 2.41.74-.2 1.45-.42 2.1-.64-.05-.31-.09-.63-.14-.94.35.2.68.42 1.02.64.49-.17.94-.33 1.32-.46.38-.13.78-.31 1.18-.52-.05-.04-.09-.09-.14-.12-1.33-.95-2.73-1.78-4.21-2.48zM53.64 114.91c-1.46-.78-2.86-1.66-4.21-2.63-.98-.71-1.92.57-1.47 1.47-.03.11-.05.22-.04.36.18 1.71.35 3.42.53 5.13.05.53.41.86.81.99.39.38 1 .5 1.47-.03 1.04-1.19 2.09-2.38 3.13-3.56.45-.51.44-1.38-.22-1.73zm-3.19 2.29-.18-1.71c.36.23.74.43 1.1.65-.31.35-.62.7-.93 1.06zM81.87 108.39c-.46-.98-2.21-.39-2.01.88.26 1.71.51 3.42.77 5.12.21 1.4 2.33.8 2.12-.59-.12-.83-.25-1.66-.37-2.48.27 0 .53-.09.73-.31.38-.41.46-1.15 0-1.56-.41-.36-.82-.71-1.23-1.07z"/><path class="cls-7" d="m100.34 50.18.21-6.05s-3.32-2.47-3.8-7.19c-.48-4.72-1.01-12.39.15-16.91 1.15-4.52 2.13-7.42 3.21-8.9 1.08-1.48 2.39-2.84 2.39-2.84s8.95-.59 13.82 1.86c4.87 2.45 5.82 2.05 6.55 3.8s1.35 1.69.45 2.76-1.81 2.31-1.81 2.31.53 4.99.79 6.25c.26 1.26.78 3.51.78 3.51s1.52-.95 2.57-.85 2.79.6 3.22 1.29.85 2.21.35 2.98-1.09 1.75-1.8 1.84c-.71.09-1.69-.03-1.69-.03-.79 0-1.61-.36-1.61-.36s-1.15 3.12-1.52 4.18-1.5 4.6-1.73 5.77c-.23 1.17-.8 6.7-.8 6.7l-4.59 2.62-5.17 9.11-1.56 3.05-3.87-8.66-2.06-4.22-2.46-2zM115.78 119.55l-3.56 8.66-2.17-1.7-2.25.75s-1.7-1.03-1.95-1.16-1.76-.45-1.76-.45l-.54 1.59 1.14 1.4s-1.16 1.33-1.34 1.44-2.08.45-2.48.36-1.61-.7-1.94-1.23-.84-1.25-.84-1.25-1.72-.02-2.19-.72-.72-1.86-.72-1.86l-1.74-.47-1.41 1.19-2.04-.77-.87-1.29s.11-.72.71-1.1 1.48-.88 1.48-.88-.71-3.29-.3-4.61.51-1.99 1.39-3.2 1.21-2.12 2.79-2.9 3-1.5 4.52-1.11 3.45 1.14 4.61 1.91c1.02.67 5.55 3.88 6.12 4.05s5.34 3.36 5.34 3.36zM44.04 108.63l-1.84-1.83-1.29-1.11s-1.19-4.88-1.41-5.87c-.22-.99-.78-3.26-1.49-3.47s-2.38-1.37-3.11-1.79c-.73-.42-3.36-1.14-4.19-1.17-.83-.03-1.39-.51-1.83-.65s-1.48.46-1.43 1.01.39 2.05 1.33 2.66c.94.61 1.97.74 2.63 1.34s1.81 1.18 1.81 1.18.55 3.18.64 3.62 1.68 3.97 1.68 3.97l-1.97 8.42s1.99.82 2.58.94 1.9.3 1.9.3l2.31 1.46 3.69-9.01zM21.81 89.21s-1.08-.31-1.53 0-1.17 1.07-1.15 1.59.67 1.42.93 1.8 1.27.79 1.27.79l.47-4.19zM21.32 94.4s-1.25-.08-1.77.65-.87 1.57-.64 2.13 1.59 1.67 1.59 1.67h.85l-.02-4.45zM21.32 100.97s-1.55.12-1.88.53-.78 1.53-.49 2.04 1.62 1.26 1.62 1.26l.46-.83.28-2.99z"/><path class="cls-4" d="M88.9 137.25c.1-.38-.14-2.08.07-3.56s.36-2.64.83-3.81.86-2.19 1.21-2.63 1.46-1.6 1.46-1.6l1.25-.67s.69.64.74.67.73.79.73.79l.81 1.52s-.04.26-1.15 1.85c-1.1 1.58-1.39 3.73-1.39 3.73v3.32l-.28.54-4.28-.15zM105.74 137.25c-.06-.39.06-3.9-.09-5.2-.16-1.31-.95-2.27-.95-2.84s-1.09-2.12-1.04-2.26.45-.94.45-.94l.79-.36s1.42.7 2.17 1.15c.75.45 1.47 1.37 1.77 1.88s1.31 3.71 1.41 4.72c.1 1.01.2 4.24.2 4.24l-4.71-.38z"/><path class="cls-4" d="M103.29 127.73c.58.51 1.03 1.15 1.32 1.86.15.37.27.75.35 1.14.03.12.05.24.07.36 0 .05.01.09.02.14.01.08-.01-.09 0 0 0 .04 0 .07.01.11.14 1.25.16 2.51.16 3.76 0 .59 0 1.18-.06 1.76-.02.27.25.51.51.51.29 0 .48-.23.51-.51.1-1.2.07-2.42.03-3.62-.05-1.3-.11-2.62-.59-3.84-.36-.9-.88-1.74-1.61-2.39-.21-.18-.51-.2-.72 0-.18.18-.21.54 0 .72zM104.19 125.93c1.74.57 3.47 1.7 4.4 3.31.4.69.63 1.46.82 2.26.2.87.32 1.75.4 2.63s.12 1.81.13 2.72c0 .65 1.02.65 1.01 0-.01-1.81-.14-3.65-.52-5.43-.19-.88-.46-1.76-.88-2.55-.45-.84-1.13-1.57-1.86-2.17a9.94 9.94 0 0 0-3.23-1.75c-.62-.2-.89.78-.27.98zM96.25 127.2c-1.28.71-2.16 1.92-2.71 3.25s-.6 2.7-.6 4.09c0 .77.03 1.54.01 2.31-.01.65 1 .65 1.01 0 .03-1.31-.07-2.62.03-3.93s.49-2.45 1.22-3.48a4.7 4.7 0 0 1 1.53-1.38c.57-.32.06-1.19-.51-.87zM93.58 124.41c-1.61.67-2.74 2.02-3.52 3.54-.88 1.74-1.4 3.65-1.59 5.59-.11 1.11-.1 2.22.02 3.33.03.27.21.51.51.51.25 0 .54-.23.51-.51-.2-1.84-.09-3.7.37-5.49.4-1.56 1.01-3.18 2.04-4.45.52-.64 1.17-1.22 1.95-1.54.25-.1.43-.34.35-.62-.07-.24-.37-.46-.62-.35z"/><path class="cls-11" d="M120.83 55.32c-.36-3-.35-6.04.05-9.03.19-1.46.48-2.91.86-4.33.36-1.34.81-2.64 1.29-3.94.53-1.46 1.1-2.91 1.61-4.38.09-.25-.1-.53-.34-.59-.27-.07-.51.09-.59.34-.92 2.63-2.01 5.2-2.77 7.88-.83 2.89-1.25 5.92-1.32 8.93-.04 1.71.05 3.43.25 5.13.03.26.2.48.48.48.24 0 .51-.22.48-.48zM100.07 44.12c-.32 3.56-.4 7.14-.23 10.71.03.62.99.62.96 0-.17-3.57-.09-7.15.23-10.71.02-.26-.24-.48-.48-.48-.28 0-.46.22-.48.48z"/><path class="cls-11" d="M125.65 28.39c.83.02 1.65.18 2.34.66.54.37.96.97 1.02 1.62s-.14 1.26-.51 1.78c-.41.56-1.02.9-1.69 1.03-.81.16-1.68 0-2.4-.39-.55-.29-1.03.54-.49.83 1.64.88 3.92.81 5.18-.69.55-.65.89-1.49.88-2.35 0-.91-.42-1.76-1.11-2.35-.9-.78-2.07-1.08-3.24-1.1-.62-.01-.62.95 0 .96zM96.46 128.22c.52.18 1.09.27 1.64.24.26-.01.52-.23.51-.51-.01-.27-.22-.52-.51-.51-.24 0-.47 0-.71-.03l.13.02c-.27-.04-.54-.1-.8-.19-.12-.04-.28-.01-.39.05s-.21.18-.23.3c-.06.28.09.53.35.62zM91.3 115.24c-.74 1.2-.97 2.62-.91 4.01.03.71.13 1.42.26 2.12s.3 1.44.66 2.08.99 1.23 1.74 1.41c.63.15.9-.83.27-.98s-1.09-.72-1.32-1.33c-.28-.74-.42-1.56-.52-2.34-.19-1.52-.12-3.12.7-4.46.34-.56-.53-1.07-.87-.51z"/><path class="cls-11" d="M95.87 115.52c-2.32 2.13-3.37 5.48-2.73 8.55.17.82.48 1.78 1.31 2.15.25.11.54.07.69-.18.13-.22.07-.58-.18-.69-.56-.24-.71-.92-.83-1.47-.14-.67-.19-1.35-.15-2.03.07-1.35.48-2.68 1.17-3.84.39-.66.88-1.25 1.44-1.77.48-.44-.24-1.16-.72-.72z"/><path class="cls-11" d="M99.16 117.74c-1.33.95-2.32 2.26-3.1 3.67s-1.69 3.13-1.27 4.8c.2.8.72 1.56 1.5 1.89.25.11.54.08.69-.18.12-.21.07-.58-.18-.69-1.25-.54-1.24-2.07-.86-3.19.23-.69.57-1.35.92-1.99s.72-1.25 1.15-1.82c.47-.61 1.02-1.18 1.65-1.62.22-.16.33-.44.18-.69-.13-.22-.47-.34-.69-.18z"/><path class="cls-11" d="M100.66 120.93c-.48.54-.94 1.1-1.37 1.68s-.83 1.15-1.15 1.78a4.877 4.877 0 0 0-.34 3.65c.2.67.54 1.29 1 1.82.18.21.53.18.72 0 .21-.21.18-.51 0-.72-.83-.96-1.12-2.34-.77-3.55.21-.74.66-1.39 1.1-2.02.47-.67.98-1.31 1.53-1.92.44-.48-.28-1.2-.72-.72z"/><path class="cls-11" d="M98.93 130.03c.96 1.04 2.43 1.02 3.73.91.26-.02.52-.22.51-.51-.01-.26-.22-.53-.51-.51-.58.05-1.21.11-1.76.01-.13-.02-.25-.05-.37-.09-.07-.02-.14-.05-.21-.07-.09-.03 0 .01-.08-.03-.27-.14-.4-.22-.59-.43s-.53-.19-.72 0c-.2.2-.19.51 0 .72z"/><path class="cls-11" d="M103.03 130.84a5.81 5.81 0 0 0 1.72-1.28c.18-.19.21-.53 0-.72-.2-.18-.52-.21-.72 0-.21.22-.43.43-.67.62l.1-.08c-.29.23-.61.42-.94.58-.24.12-.32.47-.18.69.16.24.44.31.69.18zM98.99 23.79h.11c.07 0 .13-.01.19-.04.06-.02.11-.05.16-.1.05-.04.08-.1.1-.16.03-.06.04-.12.04-.19l-.02-.13a.445.445 0 0 0-.12-.21l-.1-.08a.55.55 0 0 0-.24-.07H99c-.07 0-.13.01-.19.04-.06.02-.11.05-.16.1-.05.04-.08.1-.1.16-.03.06-.04.12-.04.19l.02.13c.02.08.06.15.12.21l.1.08c.08.04.16.07.24.07zM111.5 25.02c.62 0 .62-.96 0-.96s-.62.96 0 .96zM100.22 28.73c-.58.8-.98 1.88-.39 2.79.26.4.67.71 1.14.81.21.04.43.04.64.08.23.04.3.15.46.32.34.36.86.56 1.35.51.25-.02.48-.1.71-.19.2-.07.39-.15.61-.1.2.05.38.16.56.25.25.11.49.19.76.22.45.05.92-.06 1.32-.28 1.04-.57 1.31-1.86.77-2.88-.29-.55-1.12-.06-.83.49.31.58.15 1.27-.45 1.57-.25.13-.56.18-.84.12-.38-.08-.69-.34-1.07-.43-.46-.11-.85.02-1.27.18-.29.1-.61.15-.87-.07-.13-.11-.23-.27-.37-.38-.18-.15-.4-.23-.63-.27-.32-.05-.7-.02-.98-.22-.71-.54-.21-1.46.19-2.03.15-.21.04-.54-.17-.66-.24-.14-.51-.04-.66.17zM104.06 127.23v-.06l-.02.13c.05-.35.14-.7.28-1.03l-.05.12c.07-.17.16-.34.26-.5.14-.23.06-.57-.18-.69s-.55-.06-.69.18c-.34.57-.53 1.19-.61 1.84-.01.12.07.28.15.36.09.09.23.15.36.15s.27-.05.36-.15c.1-.11.13-.22.15-.36zM91.06 121.61c-.96.54-2.43 1.14-2.44 2.44 0 .65.4 1.19.9 1.55s1.15.53 1.71.83 1.08-.56.51-.87c-.48-.26-1.02-.41-1.49-.69-.17-.1-.34-.23-.44-.36-.13-.17-.18-.32-.18-.46 0-.02.01-.13 0-.06 0-.05.02-.1.04-.15-.03.07.04-.07.04-.07.03-.05.06-.09.09-.13-.04.06.06-.07.06-.07l.12-.12c.08-.07.12-.11.19-.15.44-.31.93-.55 1.4-.81.57-.32.06-1.19-.51-.87z"/><path class="cls-2" d="M126.22 137.9h7.57c.65 0 .65-1.01 0-1.01h-7.57c-.65 0-.65 1.01 0 1.01z"/><path class="cls-4" d="M73.88 137.91H126.23c.65 0 .65-1.01 0-1.01H73.88c-.65 0-.65 1.01 0 1.01z"/><path class="cls-11" d="M107.81 127.73a4.21 4.21 0 0 0 3.52-2.67c.09-.24-.1-.54-.34-.59-.28-.06-.5.08-.59.34 0 0-.06.14-.02.05-.01.03-.03.07-.05.1-.04.07-.07.15-.11.22-.04.06-.08.13-.12.19-.02.04-.05.07-.08.11 0 0-.08.1-.04.06s-.04.05-.05.06c-.03.03-.06.07-.09.1-.05.06-.1.11-.15.16-.06.06-.12.11-.18.17-.03.02-.06.05-.08.07l-.04.03c-.12.09-.25.18-.39.26-.07.04-.14.08-.22.11-.03.02-.07.03-.1.05-.03.01-.09.04-.03.01-.15.06-.31.11-.46.15-.07.02-.14.03-.22.05-.04 0-.09.02-.13.02.09-.01-.02 0-.05 0-.25.02-.49.2-.48.48.01.24.21.51.48.48z"/><path class="cls-8" d="M42.89 85.13c-3.38-.48-6.75-.97-10.13-1.45.3-2.12.61-4.24.91-6.36 1.9-1.38 3.75-2.83 5.58-4.31.08-.06.11-.15.12-.24.06-.13.07-.29-.02-.41-.5-.7-.99-1.4-1.49-2.11a.583.583 0 0 0-.36-.23c-.13-.05-.28-.05-.39.03-2.23 1.67-4.46 3.35-6.7 5.02-.03.02-.05.05-.07.07-.13.06-.24.16-.26.3-.37 2.56-.73 5.13-1.1 7.69l-3.8-.54-4.99-.72c-.26-.04-.52.06-.59.34-.02.08-.01.17.01.26-.21 1.48-.42 2.96-.64 4.44v.04a.53.53 0 0 0-.08.15c-.06.23.08.56.34.59l2.15.31c-.17 3.38-.35 6.75-.52 10.13-.18 3.72-.35 7.44-.46 11.17-.05 1.91-.09 3.81-.1 5.72 0 .06.02.12.03.16 0 .02-.01.04-.01.06 0 .29.22.45.48.48 3.09.36 6.17.79 9.24 1.24l2.41.36c.17.03.33-.02.45-.12a.44.44 0 0 0 .41-.33c.94-3.25 1.79-6.53 2.61-9.82.08-.33-.15-.54-.41-.59-.15-.33-.79-1.75-1.43-2.92-.73-1.34-.85-4.6-.85-4.6l-1.22-.72c-1.22-.72-1.44-.66-2.62-1.38s-1.35-1.26-1.82-2.45c-.47-1.19.11-1.35 1.32-1.64 1.21-.29.44.3 1.83.65 1.38.35 1.71.53 2.86.56 1.14.03.89.33 2.24 1.34.76.57 1.35.83 1.73.95-.12.59.79.84.93.24.46-1.95.92-3.9 1.39-5.85l2.08.3c.26.04.52-.06.59-.34.06-.23-.08-.56-.34-.59h-.06c.13-.93.43-3.01.56-3.94.24.01.46-.09.53-.34.06-.23-.08-.56-.34-.59z"/><path d="M103.48 36.94c1.63.85 3.73.54 5.02-.77.44-.44-.24-1.12-.68-.68-.99 1-2.61 1.27-3.85.62-.55-.29-1.04.54-.49.83z" style="fill:#705f55"/><path class="cls-11" d="M108.62 85.71c.38 0 .75-.34.73-.73s-.32-.73-.73-.73c-.38 0-.75.34-.73.73s.32.73.73.73zM108.41 101.26v.18c0 .1.02.2.06.28.03.09.08.17.15.24.07.07.15.12.24.15.09.05.18.07.28.06l.2-.03c.12-.03.23-.1.32-.19l.11-.15c.07-.11.1-.24.1-.37v-.18c0-.1-.02-.2-.06-.28a.608.608 0 0 0-.15-.24.608.608 0 0 0-.24-.15.461.461 0 0 0-.28-.06l-.2.03c-.12.03-.23.1-.32.19l-.11.15c-.07.11-.1.24-.1.37z"/><path class="cls-8" d="M42.56 90.4c.21-1.5.43-2.99.64-4.49.04-.26-.06-.52-.34-.59-.23-.06-.56.08-.59.34-.21 1.5-.43 2.99-.64 4.49-.04.26.06.52.34.59.23.06.56-.08.59-.34z"/><path class="cls-11" d="M41.38 106.78c-.41-2.96-.82-5.96-1.89-8.77-.24-.63-.49-1.34-1.03-1.78s-1.2-.54-1.76-.89c-.54-.33-.99-.78-1.49-1.15-.56-.41-1.18-.67-1.87-.76-.75-.1-1.51-.05-2.25-.2-.67-.13-1.34-.37-1.86-.83-.2-.17-.49-.19-.68 0-.18.18-.2.51 0 .68 1.02.9 2.34 1.15 3.66 1.21.64.03 1.33.05 1.92.35.54.27.97.69 1.44 1.06.25.2.51.4.8.56s.61.27.92.4c.27.1.51.24.7.45s.3.48.41.73c.56 1.35.95 2.79 1.25 4.22.35 1.64.58 3.31.8 4.97.04.26.37.4.59.34.28-.08.37-.33.34-.59z"/><path class="cls-11" d="M29.06 92.29c-.71-.38-1.58-.02-1.9.69-.34.74-.16 1.6.17 2.31.66 1.43 2.1 2.31 3.59 2.66.6.14.86-.79.26-.93-1.09-.26-2.15-.81-2.77-1.78-.27-.43-.48-.94-.46-1.46.01-.33.28-.86.64-.67.55.3 1.03-.54.49-.83z"/><path class="cls-11" d="M30.94 98c.75.54 1.56.97 2.42 1.3.24.09.54-.1.59-.34.06-.28-.08-.5-.34-.59l-.15-.06c-.02 0-.18-.08-.07-.03-.1-.04-.2-.09-.3-.13-.19-.09-.38-.19-.57-.29-.38-.21-.74-.44-1.09-.69-.2-.15-.55-.04-.66.17-.13.25-.05.5.17.66zM40.49 105.68c.92 1.01 1.86 1.99 2.84 2.94.18.18.5.19.68 0s.19-.49 0-.68c-.97-.95-1.92-1.93-2.84-2.94a.477.477 0 0 0-.68 0c-.18.2-.18.48 0 .68zM21.68 88.95c-.98-.49-2.25-.08-2.76.9-.55 1.05-.23 2.37.63 3.15.47.43 1.05.72 1.67.86.25.06.52-.08.59-.34a.482.482 0 0 0-.34-.59c-.93-.22-1.84-.89-1.86-1.92 0-.23.03-.45.13-.66.09-.19.23-.35.39-.45.34-.23.75-.29 1.07-.13.23.12.52.06.66-.17.12-.21.06-.54-.17-.66zM21.32 93.92c-1.44-.12-2.79 1.04-2.96 2.47s.95 2.81 2.34 3c.26.04.52-.06.59-.34.06-.22-.08-.56-.34-.59-.96-.13-1.75-1.03-1.64-2.01s1.08-1.64 2-1.57c.26.02.48-.24.48-.48 0-.28-.22-.46-.48-.48zM20.53 100.48c-.6.08-1.16.35-1.56.82-.38.45-.63 1.01-.62 1.6.02 1.24 1.03 2.25 2.23 2.37.26.03.48-.24.48-.48 0-.28-.22-.45-.48-.48.07 0-.07-.01-.08-.01-.05-.01-.1-.02-.15-.04 0 0-.14-.05-.08-.03-.05-.02-.1-.05-.14-.07-.19-.1-.27-.17-.42-.33-.23-.25-.38-.6-.39-.93s.13-.67.34-.92c.14-.17.26-.26.43-.36.09-.05.17-.09.22-.1.04-.01.08-.03.13-.04.02 0 .17-.03.11-.03.26-.03.48-.2.48-.48 0-.23-.22-.52-.48-.48z"/><path class="cls-11" d="M43.01 108.31c1.47.93 3.08 1.63 4.77 2.06.6.16.86-.77.26-.93a16.08 16.08 0 0 1-4.54-1.97c-.53-.33-1.01.5-.49.83zM45.31 119.69c-2.44-1.14-4.8-2.45-7.06-3.92-.52-.34-1 .49-.49.83 2.26 1.47 4.62 2.78 7.06 3.92.24.11.52.07.66-.17.12-.21.06-.55-.17-.66z"/><path class="cls-11" d="M38.05 115.7c-.73-.06-1.45-.19-2.16-.38-.35-.09-.71-.2-1.05-.33-.18-.06-.36-.13-.53-.2-.06-.03-.12-.05-.19-.08-.05-.02-.1-.04-.15-.07-.08-.05-.1-.05-.05-.01l.12.21v-.04c-.05.16-.09.31-.13.47l.02-.02-.34.14h.03c-.08-.02-.16-.05-.24-.07h.02c-.07-.17-.15-.35-.22-.53v.02c-.05.26.06.52.33.59.23.06.55-.08.59-.34v-.02c.04-.21-.02-.43-.22-.54-.28-.15-.63-.06-.75.24s.08.6.35.73c.48.22.98.41 1.48.57 1 .32 2.03.52 3.08.61.26.02.48-.24.48-.48 0-.28-.22-.46-.48-.48z"/><path class="cls-8" d="M20.92 111.29a432.466 432.466 0 0 0 12.96 1.84c.26.03.48-.24.48-.48 0-.29-.22-.45-.48-.48-3.31-.41-6.61-.87-9.91-1.37-.93-.14-1.86-.28-2.78-.43-.26-.04-.52.07-.59.34-.06.23.08.55.34.59z"/><path class="cls-11" d="M108.54 67.94c.38 0 .75-.34.73-.73s-.32-.73-.73-.73c-.38 0-.75.34-.73.73s.32.73.73.73zM33.09 98.93c.05 1.37.1 2.75.37 4.09.14.67.33 1.32.6 1.95.28.65.65 1.22 1.06 1.79.15.21.42.31.66.17.21-.12.33-.45.17-.66-.39-.55-.76-1.1-1.03-1.72-.25-.57-.41-1.18-.53-1.79-.25-1.26-.3-2.55-.34-3.84-.02-.62-.98-.62-.96 0zM118.44 6.55h-.02l-.22.09h-.01l-.02.02c-.06.04-.15.1-.19.15-.06.06-.12.14-.17.21-.01.01-.02.03-.03.04-.03.05-.08.17-.1.23v.02c-.01.04-.02.12-.02.14 0 .01-.02.1-.02.14v.02c0 .05.02.21.03.25.02.09.07.17.11.26.06.11.14.19.24.26.09.08.19.14.31.16.12.04.24.04.37.02.12 0 .24-.04.34-.11l.19-.14c.11-.11.19-.25.24-.4l.03-.24c0-.17-.04-.32-.13-.46.03.06.06.14.09.21v-.03l.03.24v-.04l-.03.24s0-.03.01-.04l-.09.22s.02-.03.03-.05l-.14.19s.01-.02.02-.02l-.19.14s.02-.02.04-.02l-.22.09h.02c.12-.03.22-.08.31-.16.1-.06.18-.15.24-.26.07-.11.1-.22.11-.34.03-.12.02-.24-.02-.37l-.09-.22a.872.872 0 0 0-.33-.33.924.924 0 0 0-.71-.09z"/><path class="cls-11" d="M126.23 27.54c.48-2.41.65-4.87.3-7.31-.21-1.46-.61-2.89-1.16-4.26.01-.01.03-.02.04-.03.55-.65.79-1.51.53-2.34-.31-.95-1.17-1.56-2.18-1.37-.12.02-.22.08-.31.16-.01-.02-.03-.04-.04-.06.06-.05.12-.12.17-.18.81-1.11.96-2.76-.21-3.69-.9-.72-2.31-.46-2.85.51.68-1.42 1-3.67-.93-4.05-1.38-.27-2.71.46-3.38 1.62-.13-.05-.26-.11-.4-.16.28-.53.43-1.11.32-1.73-.15-.78-.72-1.48-1.48-1.72-1.43-.47-3.38 1-3.34 2.52-.08 0-.16-.02-.24-.02-.05-1.58-.72-3.26-2.55-3.37-.85-.05-1.63.45-2 1.21-.38.8-.27 1.66.02 2.47-.23.04-.46.08-.68.14-.17-.47-.4-.92-.79-1.26-.5-.44-1.25-.66-1.9-.47-1.62.47-1.4 2.42-.89 3.69-.9.77-1.69 1.68-2.36 2.66-1.86 2.74-2.86 6-3.48 9.23-.71 3.73-.87 7.55-.72 11.33.07 1.76.17 3.53.43 5.28.24 1.62.65 3.22 1.42 4.67a8.673 8.673 0 0 0 3.26 3.43c1.36.79 2.93 1.23 4.51 1.21.4 0 .81-.04 1.21-.1.26-.04.4-.36.34-.59-.08-.28-.33-.37-.59-.34-2.89.43-5.9-.97-7.48-3.4-1.74-2.68-1.92-6.07-2.08-9.16-.19-3.63-.13-7.29.44-10.89.5-3.18 1.34-6.41 2.97-9.21.59-1.01 1.31-1.99 2.15-2.83 4.21-.73 8.59-.36 12.63 1.02.88.3 1.74.66 2.58 1.06.02.01.04.03.06.03.15.06.3.13.44.2.07.04.15.06.22.1h.02c.57.26 1.13.54 1.67.84.7.4 1.42.83 2.04 1.35.5.42.99.94 1.13 1.61.14.69-.26 1.34-.73 1.81-.53.53-1.26.91-1.46 1.69-.12.48 0 1 .07 1.48.06.46.13.92.2 1.38.29 1.85.64 3.7 1.04 5.53.12.53.24 1.05.37 1.58.1.42.31.87.78.95.49.08.96-.37 1.34-.63.45-.3.91-.6 1.36-.91.22-.14.31-.42.17-.66l-.01-.01zM108.59 3.91c.59.17.69.89.68 1.5-.29.01-.57.03-.86.05-.12-.29-.66-1.8.18-1.56zm15 24.81h-.02l-.03-.09c0-.03-.01-.05-.02-.08a.5.5 0 0 0 .27.02c-.07.05-.14.09-.21.14zm1.5-1.01s0-.1.02-.15c.02.03.05.06.07.09l-.09.06z"/><path class="cls-11" d="M107.97 5.69c.11.47.67.79 1.13.64.49-.16.76-.63.64-1.13l-.23-.95c-.11-.47-.67-.79-1.13-.64-.49.16-.76.63-.64 1.13.08.32.15.63.23.95z"/><path class="cls-1" d="M160.12 124.12c1.09-2.06 1.98-4.22 2.68-6.44 1.05-3.21 1.75-6.49 2.11-9.58 1.03-8.97-.91-21.59-5.16-31.81-4.25-10.22-12.18-16.45-12.18-16.45-5.1-4.01-15.78-6.25-17.92-6.89-1.74-.52-6.97-1-8.86-1.16-.09 0-.17-.02-.26-.03-.02-.21-.02-.43-.04-.64-.01-.16-.1-.3-.22-.39.01 0 .03-.02.04-.03.21-.16.31-.42.17-.66a.525.525 0 0 0-.48-.24l-.02-.32-4.76 3.02s-.02.01-.03.02c-.03.02-.07.04-.1.06l-.84.54-5.71 10.3-4.55-11.43-3.44-2.51-.13.23a.493.493 0 0 0-.42.12c-.17.19-.18.46-.02.66l-.35.62s-1.61.46-8.16 2c-5.28 1.25-10.01 4.2-11.65 5.3-.27.17-.54.32-.8.49H79c-.01 0-.03.02-.04.03l-.02.02c-.03.02-.06.03-.08.06-.02.02-.03.04-.05.06-.56.47-1.82 1.86-4.27 6.05-3.66 6.24-8.73 24.2-9.68 33.72-.08.79-.17 1.5-.26 2.17l-.36 1.72c-.21.96-.41 1.98-.78 2.92-1.21 2.72-3.15 2.74-6.39 2.62-4.94-.18-11.74-3.48-11.74-3.48l-.21.48c-.09.04-.17.09-.21.18-1.53 3.37-2.96 6.79-4.31 10.24l-2.43 5.59s4.62 2.85 14.06 6.9c9.44 4.06 21.24 1.84 25.72-2.19 1.24-1.11 2.21-2.21 2.98-3.23a27.04 27.04 0 0 0 2.61-3.78c.02.9.04 2.15-.03 2.29-.1.22.93 15.59 1.03 15.96h.4c.18.1.4.1.56 0l36.87-.35c1.1.31 2.21.59 3.32.83.25.05.52-.08.59-.34a.507.507 0 0 0-.2-.53l8.09-.08.08 1.16c-.16.2-.14.52.05.69l.65 8.98c-.16.02-.32.05-.48.07-.26.04-.4.36-.34.59.08.28.33.37.59.34.1-.01.19-.03.29-.05l.02.25 3.11-.75c1.83-.31 3.65-.63 5.46-1.01.82-.17 1.64-.35 2.46-.53.23-.05.34-.22.34-.4v-.04l.08-.02-1.36-8.16s.65 1 7.73-4.6c2.55-2.02 4.68-4.69 6.41-7.7.03-.05.07-.11.1-.16.24-.43.48-.86.7-1.3z"/><path class="cls-4" d="M118.14 117.18c-.44-.31-3.08 2.78-5.31 7.21-2.24 4.43-3.17 8.38-2.66 8.55.53.19 2.26-3.35 4.44-7.65 2.16-4.31 3.99-7.8 3.52-8.11zM33.01 83.33c.06-.55-.82-1.09-1.96-1.2-1.14-.11-2.1.24-2.16.79-.05.55.82 1.09 1.96 1.2 1.14.11 2.1-.24 2.16-.79zM40.74 90.77c.06-.55-4.19-1.45-9.48-2.01-5.29-.56-9.63-.57-9.69-.02-.06.55 4.19 1.45 9.48 2.01 5.29.56 9.63.57 9.69.02zM81.53 80.85c-.53 0-.87 10.54.27 23.47 1.12 12.94 3.28 23.26 3.8 23.17.57-.09-.7-10.49-1.81-23.34-1.14-12.85-1.69-23.31-2.27-23.3zM137.5 91.09c-.12.07.11.72.62 1.83.5 1.11 1.29 2.68 2.11 4.65.8 1.97 1.6 4.38 1.75 7.1.07 1.35-.03 2.78-.4 4.17-.37 1.39-1.05 2.73-1.99 3.93-1.91 2.41-4.63 3.93-7.22 4.67-2.62.72-5.16.73-7.25.51-4.21-.49-6.74-1.56-6.85-1.25-.05.12.51.52 1.63 1.05 1.12.52 2.81 1.17 5.02 1.6 2.2.42 4.95.58 7.93-.13 2.94-.74 6.07-2.38 8.32-5.21 1.11-1.4 1.92-3.03 2.32-4.68.41-1.65.47-3.28.34-4.79-.28-3.04-1.31-5.58-2.31-7.56a36.326 36.326 0 0 0-2.72-4.46c-.72-.99-1.18-1.5-1.3-1.43zM104.18 58.17c-.19-.14-.81.36-1.69 1.29-.44.47-.94 1.05-1.48 1.71-.24.3-.5.62-.77.96-.04.01-.06 0-.07-.02v-.03l-.04-.46c-.47-5.01-1.29-9.04-1.84-8.99-.55.05-.62 4.16-.15 9.17l.05.57c.03.34.08.67.18.96.2.57.59.96 1.11 1.12.84.24 1.6-.27 2.11-1.05l.26-.4.18-.29c.12-.19.23-.38.35-.56.45-.73.83-1.4 1.12-1.96.59-1.13.85-1.88.66-2.02zM121.08 56.73c-.27-.06-.73.8-1.26 2.25-.27.73-.55 1.6-.83 2.57-.14.49-.28 1-.42 1.53h-.02s0 .02-.02 0l-.26-.3c-.18-.19-.35-.39-.52-.57-.35-.37-.68-.73-.99-1.06-.64-.67-1.23-1.25-1.75-1.72-1.03-.94-1.76-1.43-1.96-1.26-.2.17.17.97.93 2.14.38.59.86 1.26 1.42 2 .28.37.58.75.89 1.15l.48.6.76.91c.36.39.7.54 1.14.57.49.03.99-.2 1.27-.53.31-.28.41-.92.53-1.44.11-.54.21-1.07.31-1.57.19-1 .33-1.9.42-2.67.18-1.53.16-2.52-.11-2.58z"/><path class="cls-4" d="M145 137.98c-.09-.61-8.06.78-17.72-.76-9.68-1.43-16.86-5.15-17.13-4.59-.12.22 1.52 1.45 4.5 2.86 1.49.72 3.32 1.43 5.4 2.1 2.09.64 4.43 1.21 6.92 1.61 2.5.37 4.9.53 7.09.55 2.19 0 4.15-.15 5.78-.38 3.27-.46 5.2-1.13 5.16-1.38z"/><path class="cls-4" d="m73.88 137.4 52.34-.01 2.55 57.95H71.16l2.72-57.94z"/><path class="cls-2" d="m128.77 195.34-2.55-57.95h7.58l2.54 57.95h-7.57z"/><path class="cls-4" d="M73.2 137.39c-.36 7.56-.7 15.11-1.04 22.67-.34 7.52-.66 15.04-.98 22.56-.18 4.24-.35 8.48-.53 12.73-.03.65.99.65 1.01 0 .31-7.56.63-15.12.95-22.67.33-7.52.66-15.04 1-22.56.19-4.24.39-8.48.59-12.72.03-.65-.98-.65-1.01 0z"/><path class="cls-2" d="M128.77 195.85h7.57c.65 0 .65-1.01 0-1.01h-7.57c-.65 0-.65 1.01 0 1.01z"/><path class="cls-4" d="M71.17 195.85h57.6c.65 0 .65-1.01 0-1.01h-57.6c-.65 0-.65 1.01 0 1.01z"/><path class="cls-2" d="M133.29 137.39a9315.932 9315.932 0 0 1 2.02 45.23c.18 4.24.35 8.48.53 12.73.03.65 1.04.65 1.01 0-.31-7.56-.63-15.12-.95-22.67s-.66-15.04-1-22.56c-.19-4.24-.39-8.48-.59-12.72-.03-.65-1.04-.65-1.01 0z"/><path class="cls-4" d="M129.28 195.34c-.31-7.56-.63-15.12-.95-22.67-.33-7.52-.66-15.04-1-22.56-.19-4.24-.39-8.48-.59-12.72-.03-.65-1.04-.65-1.01 0 .36 7.56.7 15.11 1.04 22.67.34 7.52.66 15.04.98 22.56.18 4.24.35 8.48.53 12.73.03.65 1.04.65 1.01 0z"/><path d="M113.36 165.68c-.08-.22-1.25-2.38-3.41-5.07a.478.478 0 0 1-.1-.23c-.25-2.82-.65-4.68-.65-4.68a.766.766 0 0 0-.66-.6l-2.25-.27h-.06a.48.48 0 0 0-.48.48v.78s-.01.03-.03.03h-.02a32.305 32.305 0 0 0-4.54-3.43c-.32-.21-.7-.34-1.11-.34-.41 0-.79.12-1.11.34-7.76 4.79-12.03 12.58-12.2 13.01a.783.783 0 0 0 .51 1.08l2.24.43c.3.08.52.34.56.65.02.39.44 9.21.97 11.5.09.33.39.57.74.57h.02c1.3-.03 2.5-.05 3.79-.07s.01 0 .01 0h.1c.14 0 .25-.11.25-.25-.05-.77-.17-2.53-.26-4.38v-.15c0-.16-.1-.3-.23-.38-.67-.4-1.13-1.12-1.17-1.95-.12-3.09-.18-6.67 0-9.46.01-.23.2-.42.44-.42.25 0 .45.19.46.44v.04c-.11 1.86-.12 4.07-.08 6.24 0 .29.25.53.54.52.29 0 .53-.25.52-.54-.04-2.19-.03-4.41.08-6.28.01-.23.2-.42.44-.42.25 0 .45.19.46.44v.04c-.11 1.85-.12 4.04-.08 6.21 0 .29.25.53.54.52.29 0 .53-.25.52-.54-.04-2.18-.03-4.38.08-6.25.01-.23.2-.42.44-.42.25 0 .45.19.46.44v.04c-.16 2.72-.11 6.16 0 9.18v.11c0 .83-.41 1.55-1.05 1.99-.11.08-.19.2-.2.35 0 0-.06.46.15 2.71.1.98.17 1.66.2 1.97.01.12.11.21.23.21h4.68v.01c.12 0 .22-.09.24-.21.29-2.69.36-4.2.36-4.2 0-.14-.1-.24-.24-.26l-1.54-.21a.517.517 0 0 1-.44-.38c-.03-.11-.02-.24-.02-.24.62-8.97 3.58-12 3.58-12 .09-.09.14-.12.14-.12.08-.06.17-.09.28-.09.2 0 .37.12.44.3 0 0 .02.06.04.22.26 2.82.13 7.62-.03 11.36-.13 3.18-.3 5.67-.3 5.67 0 .1.08.18.18.18.84.01 1.67.03 2.54.05h.02c.36 0 .66-.24.74-.57.53-2.29.95-11.1.97-11.5.03-.31.26-.57.56-.65l2.24-.43c.33-.08.58-.39.58-.75 0-.12-.03-.23-.07-.33z" style="fill:#fd7f03"/><path class="cls-11" d="M120.12 120.35c-.34-.07-.68-.17-1.01-.29-.18-.06-.36-.13-.55-.2-.09-.04-.18-.07-.28-.11-.03-.01-.15-.06-.06-.02-.06-.03-.12-.05-.18-.08-.9-.39-1.78-.84-2.65-1.31-1.97-1.07-3.88-2.25-5.78-3.44-1.64-1.03-3.26-2.09-4.9-3.11-.51-.31-1.01-.63-1.54-.9-1.29-.65-2.72-1.21-4.18-1.22-3.19-.02-5.84 2.18-7.34 4.84-.19.33-.35.67-.51 1.01-.11.25-.07.55.18.69.22.13.58.07.69-.18 1.18-2.58 3.34-5.02 6.33-5.32 2.04-.2 3.96.78 5.65 1.82 1.58.97 3.14 1.99 4.71 2.98 1.88 1.19 3.77 2.36 5.71 3.44 1.58.87 3.23 1.77 4.97 2.26.15.04.31.08.47.11.27.06.55-.08.62-.35.07-.25-.08-.57-.35-.62zM109.71 126.85c1.52 1.32 3.18 2.48 4.95 3.45.54.3 1.03-.53.49-.83-1.7-.93-3.29-2.03-4.75-3.3-.2-.17-.49-.19-.68 0-.17.17-.2.51 0 .68z"/></g></svg>