<svg xmlns="http://www.w3.org/2000/svg" viewBox="0 0 200 170.89"><defs><style>.cls-1{fill:none}.cls-2{fill:#f96800}.cls-3{fill:#6a4a6b}.cls-4{fill:#f2a6b0}.cls-5{fill:#f6c243}.cls-6{fill:#e87003}.cls-7{fill:#fff}.cls-8{fill:#ffb5c4}.cls-11{fill:#ff8000}.cls-12{fill:#c1dade}.cls-13{fill:#b7957e}.cls-14{fill:#afcbcd}.cls-15{fill:#e2ded9}.cls-16{fill:#877166}.cls-17{fill:#5b3d5b}</style></defs><path d="M187.94 58.36c-18.49-22.15-49.24-26.41-69.05-48.31C63.44 2.26-23.8 69.12 12.26 129.27c29.54 43.51 88.38 40.06 134.09 27.08 31.73-12.96 54.41-66.93 41.59-97.99Z" style="fill:#efedea" id="BG_Strong"/><g id="Illustrations"><g id="Layer_4"><path class="cls-13" d="m184.56 145.48-6.52 1.07c-.43.07-3.95 1.51-5.11 1.23s-3.1-.41-3.73-1.16-2.81-3.44-2.85-3.49-.68-.97-.68-.97-1.36-.72-1.79-.61-1.87-.66-1.87-.66-2.22 2.64-3.44 3.76c-1.22 1.12-3.39 2.98-4.09 3.17s-.85.66-.85-.5c0-1.16.16-1.44.49-2.33s.57-2.05 1.24-2.88c.67-.82 2.36-3.57 2.36-3.57s-2.44 2.08-3.74 3c-1.3.92-2.78 2.05-3.72 2.38s-1.99 1.21-2.05.38.4-1.47.6-2.15.89-1.91.89-1.91-1.56 2.08-2.68 2.73c-1.12.65-2.38 1.42-2.89 1.18s-.28-1.03-.28-1.03 2.05-3.27 2.77-3.96c.71-.69 3.49-3.24 3.49-3.24l2.74-2.52s-2.42.85-3.15 1.02c-.73.17-1.8.83-1.8.83s-1.74 1.08-2.63 1.09-1.64-.31-1.28-.79 2.03-2.32 2.03-2.32l2.96-2.32s4.62-1.86 5.5-2.13c.88-.27 1.3-.77 2.02-.47.72.3 5.04 2.3 5.84 2.73s4.3 2.48 4.3 2.48 6.72 1.11 7.18 1.22l3.02.72 1.51-2.06s2.24 1.28 3.15 2.72 1.64 2.53 2.1 4.34.97 5.02.97 5.02ZM141.24 63.66s-.06-12.52.04-12.77.24-11.99.24-11.99.66.24 1.66-.25c1-.49 1.29-.89 1.51-1.8s.45-2.64.45-2.64-5.83-1.88-7.82-2.89c-1.99-1.01-5.77-3.17-7.95-4.56s-5.66-4.91-7.14-6.36-4.91-6.23-4.91-6.23-2.12 2.03-2.77 3.55-2.57 5.2-2.98 6.56-.74 4.8-.78 6.17.17 6.55.25 8.04 1.35 5.86 1.97 7.76 2.47 4.65 2.47 4.65l-2.17 2.07s-2.05-.83-2.68-.48c-.63.35-1.45 1.4-2.08 1.63s-1.1-.19-1.81.66-2.38.77-3.03 1.66c-.65.89-1.01 1.32-1.01 1.96s-1.43 2.52-2.06 3.6-3.54 6.58-4.24 8.25-3.81 9.65-3.81 9.65l9.94 2.09s.1-1.78.37-3.05c.27-1.27.37-1.67 1.15-2.57.79-.9 2.51-1.02 3.66-1.67 1.15-.65 2.16-1.27 2.63-2.24.48-.97 1.06-2.97 1.29-3.67s.26-2.04 1.18-2.36c.92-.32 1.17-1.04 1.75-1.06s1.41.16 2.19-.37.87-1.22 1.41-1.64c.93-.73 1.25-1.82 1.25-1.82s1.21-.62 1.16-1.12.15-1.88.15-1.88l.66-2.12.61 7.48 8.4.98c2.31.27 10.87-1.24 10.87-1.24Z"/></g><path class="cls-4" d="M75.01 54.58c-.23-1.66-.45-3.38-1.14-4.92-.58-1.3-1.64-2.26-2.91-2.87-1.94-.93-4.1-1.04-6.22-1.11-2.43-.08-4.86-.12-7.29-.15-4.88-.05-9.77 0-14.65.07-4.86.07-9.73.16-14.59.2-4.86.04-9.73.03-14.59-.1-.6-.02-1.2-.03-1.81-.05-.89-.03-.89 1.36 0 1.39 4.78.15 9.56.19 14.34.16 4.8-.03 9.6-.11 14.4-.18 4.8-.07 9.56-.13 14.34-.11 2.39 0 4.78.04 7.17.09 1.16.03 2.32.05 3.48.1.98.04 1.96.11 2.93.31.96.21 1.87.54 2.68 1.09.06.04.12.09.18.13.11.08-.04-.04.06.04.12.1.25.21.36.32.09.09.18.18.26.28l.13.16c-.09-.11.04.06.07.1.17.24.31.5.43.77.01.03.09.21.05.1.03.07.06.15.08.22.06.16.12.33.17.5.23.76.38 1.55.51 2.33.08.5.15 1 .23 1.5.05.37.53.57.85.48.4-.11.54-.48.48-.85Z"/><path class="cls-12" d="M115.81 66.21c2.77 3.16 7.01 4.34 11.03 4.85 2.35.29 4.75.42 7.12.33s4.88-.45 7.18-1.26 4.6-2.12 6.38-3.92c.63-.64-.35-1.62-.98-.98-3.08 3.13-7.47 4.46-11.77 4.74-2.36.15-4.74.05-7.08-.19-.97-.1-1.84-.22-2.83-.42-.96-.19-1.91-.44-2.84-.76-1.98-.68-3.82-1.76-5.23-3.36-.25-.28-.73-.25-.98 0-.28.28-.25.7 0 .98Z"/><path class="cls-3" d="M159.95 71.6c-.91-4.27-2.81-8.48-6.48-11.05-.54-.38-1.12-.7-1.72-.98.19-1.26.56-3.91.52-5.41-.05-2.02-.57-3.12-1.14-4.8-.58-1.68-2.7-4.09-2.7-4.09s.29-9.83.17-11.06-1.14-5.93-1.65-7.63c-.51-1.7-3.55-7.91-4.54-9.53-.99-1.63-4.03-5.29-6.54-7.2s-7.71-2.5-9.72-2.4c-2.01.1-4.8 1.47-6.65 2.57-1.85 1.1-2.89 2.53-2.89 2.53s2.83 4.42 4.13 6.38c1.3 1.96 6.22 5.97 8.62 7.81 2.4 1.84 5.63 3.43 8.63 4.84 3 1.4 7.15 2.62 7.15 2.62s-.26 1.43-.29 2.02-.79 1.69-1.67 2.43-1.66.25-1.66.25l-.24 19.66-.04 5.1 1.55-.59s9.01 4.61 9.55 4.91c.43.24 4.51 2.67 6.21 3.68.02.1.05.2.07.31.08.37.51.58.85.48.38-.11.56-.49.48-.85ZM164.81 106.92a.705.705 0 0 0-.69-.69c-.15 0-.28.05-.4.12-.78-1.12-2.46-3.48-2.8-3.46s.49 6.08.52 6.45c.02.26.29 4.25.45 6.59-.17.5-.36.99-.55 1.48-.14.35.15.76.48.85.4.11.71-.13.85-.48 1.37-3.44 2.27-7.13 2.13-10.85Z"/><path class="cls-11" d="m44.08 112.82 13.62.2c1.28.02 13.53.27 15.17.19 1.64-.08 5.17-.37 6.03-.83s2.1-1.76 2.1-2.76-.34-5.64-.5-7.24-1.73-15.94-1.88-17.14-2.35-17.82-2.67-20c-.32-2.19-1.37-9.56-1.71-11.36-.34-1.8-.8-4.48-2.01-5.36s-2.27-1.69-4.24-1.88-21.07-.49-23.08-.41c-2.01.08-23.92.23-24.93.41s-11.65-.5-12.8-.32c-1.14.18-2.88.36-3.72 1.41-.84 1.05-1.57 2.43-1.3 4.63.26 2.2 2.33 18.09 2.33 18.09l3.27 23.82c.19 1.38 1.48 11.56 1.79 12.87.31 1.31.93 3 1.47 3.53s1.76.88 2.56 1.26c.79.37 4.29.53 5.02.54l7.28.1s-2.58 8.67-2.94 9.92-2.09 9.35-2.58 10.48-.9 4.92-.8 6 .62 2.84 1.48 3.42c.87.58 4.21 2.02 4.93 2.26.71.24 4.98 1.46 6.62 1.65 1.65.19 6.92.05 9.35-.16 2.43-.21 13.83-1.43 15.2-1.62s13.01-2.58 13.01-2.58v-4.47l-26.58-3.09-3.34 1.12s1.35-8.49 1.41-8.86 2.43-13.79 2.43-13.79Z"/><path class="cls-4" d="M9.29 106.76c.33.72.36 3.31 2.07 4.6 1.71 1.29 3.84 1.4 5.28 1.45 1.44.05 10.96 0 15.96.09s15.12.68 15.61.33 15.84.31 18.65.14 9.91-.41 11.24-.48c1.32-.07 3.25-.86 3.41-2.82s-.59-10.46-1.17-12.85c-.59-2.38-1.93-16.25-2.39-18.91-.46-2.66-2.03-16.48-2.52-18.3s-.82-7.6-2.19-10.1-2.27-2.64-3.62-2.96c-1.35-.31-6.31-.98-14.06-1.12-7.74-.14-39.75.18-44.33.35-4.58.17-6.21.03-7.76 1.52-1.55 1.49-1.53 2.39-1.36 4.02s1.17 12.13 1.72 15.76c.55 3.63 3.22 22.47 3.5 25.49.27 3.01 1.97 13.77 1.97 13.77Z"/><path class="cls-5" d="M110.39 134.63c-1.51-.21-24.83-3.4-24.83-3.4l-14.98-1.64-16.25-.17-9.91.49c0-.35-.34-.68-.69-.67-.39.02-.68.31-.69.69l-.15 4.1c-.01.36.33.71.69.69.24-.01.45-.13.57-.31l26.01 3.03.15 2.34c-.29.03-.54.18-.63.49-.09.32.11.8.48.85 5.11.7 10.21 1.42 15.32 2.12 5.38.74 10.75 1.46 16.14 2.12 3.17.39 6.34.75 9.52 1.09.37.04.69-.35.69-.69 0-.04 0-.08-.01-.11 2.06-.23 8.77-.99 10.46-1.24 2-.3 16.67-2.89 16.67-2.89l.16-3.22s-27.21-3.46-28.72-3.67Z"/><path class="cls-17" d="M81.65 107.12c-.33-3.58-.68-7.15-1.06-10.72a724.9 724.9 0 0 0-1.16-10.33c-.4-3.38-.83-6.75-1.28-10.13-.46-3.45-.94-6.9-1.44-10.34-.51-3.53-1.04-7.05-1.58-10.57l-.21-1.35c-.06-.37-.52-.58-.85-.48-.4.11-.54.48-.48.85.55 3.52 1.08 7.05 1.6 10.58.52 3.53.98 6.82 1.44 10.23.46 3.42.88 6.69 1.28 10.04.41 3.41.8 6.83 1.17 10.25.37 3.42.73 7.07 1.07 10.61.04.45.08.91.13 1.36.03.37.29.69.69.69.35 0 .73-.32.69-.69Z"/><path class="cls-4" d="M80.15 105.93c.09.97.18 1.96.15 2.94 0 .19-.02.39-.04.58 0 .04 0 .09-.01.13.01-.13 0-.02 0 0-.02.1-.03.2-.05.3-.03.16-.08.32-.13.48-.01.03-.11.28-.04.12a3.523 3.523 0 0 1-.23.42l-.06.09c.08-.12.04-.04.01-.01-.11.12-.22.23-.34.34-.13.12.08-.05-.01.01a.55.55 0 0 0-.09.07c-.07.05-.15.09-.23.14-.07.04-.15.08-.22.11-.04.02-.08.04-.12.05-.19.09.12-.04-.07.03a8.977 8.977 0 0 1-1.8.48c-.1.02-.2.03-.3.05-.05 0-.1.01-.15.02-.15.02.03 0-.11.01-.89.11-1.79.16-2.68.15s-.89 1.38 0 1.39c.85.01 1.69-.03 2.54-.13.93-.11 1.87-.26 2.75-.59.82-.31 1.55-.74 2.05-1.47.47-.67.63-1.5.7-2.3.1-1.13-.02-2.29-.12-3.42-.03-.37-.29-.69-.69-.69-.35 0-.73.32-.69.69ZM25.5 111.85c-3.12-.05-6.24-.07-9.35-.14-1.27-.03-2.59-.12-3.72-.78-.41-.24-.68-.48-1.03-.91.07.09 0 0 0-.01-.04-.05-.08-.11-.11-.16-.07-.1-.13-.2-.19-.31s-.12-.21-.17-.32l-.09-.18c-.01-.02-.09-.2-.04-.09-.51-1.22-.68-2.53-.8-3.79-.03-.37-.29-.69-.69-.69-.35 0-.73.32-.69.69.21 2.31.6 5.04 2.55 6.57 1.15.9 2.57 1.23 4 1.33 1.59.12 3.2.08 4.79.1l5.56.08c.89.01.89-1.38 0-1.39Z"/><path class="cls-4" d="M76.52 106.23c.1 1.08.21 2.17.13 3.25 0 .11-.02.22-.03.33 0 .03-.02.14 0 0 0 .04-.01.08-.02.12-.04.21-.08.43-.15.64-.03.08-.05.16-.08.24-.04.1.07-.15 0 .01-.02.03-.03.07-.05.1-.04.08-.08.16-.13.23l-.06.09c-.07.12.08-.08-.04.05s-.23.25-.36.36c.12-.1 0 0-.02.01-.07.05-.15.1-.22.15-.12.08-.25.15-.38.21-.45.22-1.01.36-1.53.44-1.09.16-2.36.08-3.5.06-5.55-.08-11.1-.17-16.65-.25l-9.35-.14c-.89-.01-.89 1.38 0 1.39 5.71.08 11.42.17 17.12.25l8.61.13c2.33.04 5.15.32 7.02-1.38.75-.68 1.05-1.67 1.17-2.65.14-1.21.01-2.44-.1-3.65-.03-.37-.29-.69-.69-.69-.35 0-.73.32-.69.69ZM12.01 45.65c-1.31-.02-2.63-.07-3.95-.07-1.19 0-2.43.13-3.46.79a.71.71 0 0 0-.25.95c.18.31.63.45.95.25.88-.56 1.91-.6 2.94-.59 1.26 0 2.51.04 3.77.07.89.02.89-1.37 0-1.39Z"/><path class="cls-4" d="M78.43 112.84c1.88-1.38 2.81-3.74 2.34-6.03-.14-.67-1.2-.66-1.34 0-.28 1.29-.69 2.56-1.24 3.76l1.27.53c.95-2.32 1.21-4.86.84-7.34-.05-.37-.52-.58-.85-.48-.4.11-.54.48-.48.85.33 2.23.01 4.52-.84 6.6-.13.32.11.7.4.82s.72.03.87-.28c.6-1.32 1.08-2.68 1.38-4.1h-1.34c.02.08.05.26.05.29 0-.04.01.14.01.14 0 .05 0 .1.01.15.01.23 0 .46-.01.69-.01.15 0 .11-.03.24-.02.11-.04.23-.07.34a4.6 4.6 0 0 1-.8 1.75c-.09.12-.24.29-.39.45s-.35.33-.47.42c-.3.22-.45.6-.25.95.17.3.65.47.95.25ZM72.25 49.64c-.18-1.03-.9-1.98-1.83-2.46-.17-.08-.35-.12-.53-.07-.16.04-.34.17-.41.32-.17.32-.1.77.25.95.16.08.3.17.44.28l-.14-.11c.19.15.37.33.52.52l-.11-.14c.15.2.27.41.37.63l-.07-.17c.08.2.15.4.18.61.03.16.18.33.32.41.15.09.37.12.53.07s.33-.16.41-.32a.75.75 0 0 0 .07-.53Z"/><path class="cls-11" d="M70.47 136.84a.85.85 0 0 0-.31-.09c-6.94-.6-13.85-1.52-20.76-2.37l-5.7-.7s-.06 0-.09-.01h-.04c-.09-.02-.17 0-.25.03l-2.16.29h-.03l2.82-17.08 2.84-17.23 1.59-9.65c.05-.28-.03-.56-.24-.73a.726.726 0 0 0-.59-.35l-11.34-.27-3.26-.08c-.15 0-.3.05-.41.14-.03.02-.05.04-.07.06a.8.8 0 0 0-.15.21v.02c0 .02-.02.04-.03.07-1.7 5.79-3.5 11.56-5.28 17.34-1.75 5.66-3.48 11.33-5.09 17.02-.92 3.24-1.79 6.48-2.61 9.75-.02.09-.02.17-.01.26-.02.07-.04.14-.05.21-.16 1.22-.24 2.45-.25 3.68-.01 1.14.03 2.31.57 3.35.46.89 1.28 1.55 2.14 2.03.97.54 2.03.94 3.06 1.33 2.01.76 4.08 1.33 6.18 1.77 1.56.33 3.14.54 4.73.56 2.13.03 4.26-.19 6.38-.41h.01c3.83-.32 7.65-.67 11.47-1.1 3.29-.37 6.57-.81 9.85-1.29 2.28-.33 4.56-.67 6.84-1.02h.04c.39-.02.68-.31.69-.69l.17-4.38c.01-.34-.3-.67-.64-.69Zm-.9 4.46c-1.95.29-3.9.59-5.85.87-.88.13-1.76.25-2.63.38-.41.06-.83.12-1.24.17-.2.03-.4.05-.61.08-.09.01-.19.03-.28.04-.02 0-.14.02-.03 0a.88.88 0 0 0-.17.02c-3.23.43-6.47.8-9.72 1.11-2.32.22-4.64.43-6.96.63h-.02c-1.87.19-3.75.38-5.64.41-.75.01-1.49-.01-2.24-.07-.17-.01-.33-.03-.5-.05-.08 0-.17-.02-.25-.03-.04 0-.08-.01-.13-.01-.01 0-.22-.03-.07 0-.37-.05-.74-.11-1.11-.18-1.92-.35-3.83-.84-5.67-1.46-1.05-.35-2.18-.78-3.12-1.2-.81-.36-1.59-.77-2.17-1.4-.69-.76-.79-1.87-.79-2.92 0-1.33.09-2.67.26-3.99v-.05c0-.02.01-.03.02-.05 1.45-5.76 3.07-11.47 4.78-17.16.12-.39.23-.77.35-1.16l17 .28-1.41 8.56-1.59 9.65c-.06.37.1.75.48.85.13.03.27.03.41-.02a.661.661 0 0 0 .34.64l.17.07c.12.03.25.03.37 0l2.05-.28c6.92.85 13.83 1.76 20.76 2.52 1.78.19 3.57.37 5.36.53l-.12 3.21ZM140.91 152.53c1.53 1.01 3.32 1.51 5.13 1.76 1.91.26 3.86.28 5.78.13s3.96-.52 5.87-1.08c1.83-.54 3.6-1.42 5.51-1.65 2.15-.25 4.37.08 6.44-.65.35-.12.59-.48.48-.85-.09-.34-.5-.61-.85-.48-1.76.62-3.63.42-5.46.55-.97.07-1.92.24-2.85.52s-1.8.63-2.7.93a27.6 27.6 0 0 1-11.23 1.31c-1.89-.17-3.8-.62-5.41-1.68-.31-.21-.77-.06-.95.25-.2.34-.07.74.25.95Z"/><path class="cls-11" d="M156.35 147.19c1.1 1.4 1.84 3.06 2.19 4.81.07.37.51.58.85.48.38-.11.56-.49.48-.85-.4-1.99-1.3-3.83-2.55-5.42-.23-.29-.74-.24-.98 0-.29.29-.23.69 0 .98ZM151.81 143.73c.75.32 1.47.71 2.13 1.17.14.1.37.11.53.07s.34-.17.41-.32c.19-.35.07-.73-.25-.95-.67-.46-1.39-.85-2.13-1.17-.18-.08-.34-.12-.53-.07-.16.04-.34.17-.41.32-.08.16-.13.36-.07.53.05.16.16.35.32.41Z"/><path class="cls-11" d="M166.52 143.36c-.48-.69-.85-1.21-.85-1.21s-.62-.1-1.3-.25c-.62-.37-1.25-.71-1.9-1.03-.04-.23.04-.4.04-.4s-.12.1-.31.28c-.31-.1-.67-.01-.85.29-.11.18-.11.42-.04.62-.04.04-.07.08-.11.12-.65.75-2.15 2.34-2.98 3.2s-2.69 2.07-3.32 2.83-1.15-.29-1.29-.51.63-2.67.63-2.67.85-1.83 1.52-2.72c.67-.89 1.06-2.63 1.06-2.63s-3.05 2.39-3.28 2.82-3.4 1.96-4.24 2.14c-.58.12-.82.18-.99.03.02-.02.04-.05.06-.07.25-.28.27-.71 0-.98a.623.623 0 0 0-.12-.09c.34-.77 1.05-1.75 1.05-1.75s-.99.23-1.21.72-2.64 1.77-3.23 2.04c-.25.11-.52.09-.75.02a.709.709 0 0 0-.34-.51c-.35-.2-.73-.06-.95.25-1.82 2.6-2.69 5.78-2.26 8.94.02.12.08.23.17.31l.02.02c.01 0 .02.02.03.03.07.06.16.11.27.14 4.15 1.14 8.38 2.08 12.68 2.42 2.12.17 4.26.19 6.38-.01 1.07-.1 2.14-.25 3.2-.45.98-.19 2-.39 2.93-.75s1.84-.95 2.65-1.59c.68-.54 1.32-1.15 1.87-1.82 0 0 0-.01.01-.02a.58.58 0 0 0 .19-.48c-.27-3.04-2.15-5.43-4.47-7.25Z"/><path class="cls-12" d="M101.75 110.24c.32 2.75.45 5.54.38 8.31-.02.72-.05 1.43-.11 2.15l-.09 1.06c-.02.17-.04.33-.05.5 0 .08-.02.15-.03.23 0 .04-.01.08-.01.11-.02.12.01-.08 0 .04-.17 1.2-.4 2.41-.82 3.55-.23.64-.55 1.31-1 1.9-.39.53-.95.98-1.59 1.16-.86.24-.49 1.58.37 1.34 1.49-.42 2.52-1.69 3.15-3.05.55-1.18.88-2.44 1.1-3.72.5-2.92.56-5.91.45-8.87a56.83 56.83 0 0 0-.36-4.7c-.04-.37-.29-.69-.69-.69-.34 0-.74.32-.69.69Z"/><path class="cls-17" d="M113 33.97c.89 0 .89-1.39 0-1.39s-.89 1.39 0 1.39ZM125.75 33.35c.89 0 .89-1.39 0-1.39s-.89 1.39 0 1.39ZM144.45 34.2c-.05.69-.16 1.39-.32 2.06-.14.57-.35 1.14-.71 1.51-.32.33-.74.52-1.21.41-.62-.15-1.14-.5-1.65-.88-.3-.23-.78-.05-.95.25-.21.36-.05.72.25.95.63.48 1.35.93 2.15 1.05.85.13 1.65-.11 2.29-.69.59-.53.93-1.29 1.13-2.05.23-.85.35-1.73.41-2.6.03-.37-.34-.69-.69-.69-.4 0-.67.32-.69.69Z"/><path class="cls-3" d="M152.8 52.75c-.24-1.47-.68-2.9-1.29-4.26-.56-1.24-1.29-2.42-2.25-3.39-.06-.06-.12-.12-.18-.17.4-2.79.55-5.61.4-8.42-.02-.39-.05-.78-.08-1.16l.44.06c.38.04.69-.35.69-.69 0-.41-.32-.65-.69-.69-.19-.02-.39-.05-.58-.07-.39-3.31-1.19-6.57-2.4-9.67-1.6-4.1-3.84-7.89-6.56-11.35-.62-.79-1.25-1.51-2.03-2.15-.88-.72-1.8-1.38-2.79-1.95-1.94-1.11-4.07-1.85-6.29-2.08-4.3-.45-8.75 1.23-11.87 4.18-.35.33-.68.68-.99 1.04-.33.16-.55.55-.32.96 1.33 2.4 2.91 4.66 4.67 6.76a43.77 43.77 0 0 0 5.81 5.74c2.11 1.73 4.4 3.3 6.8 4.64 2.4 1.34 4.92 2.46 7.52 3.34 2.34.79 4.75 1.38 7.19 1.76v.02c.26 2.94.18 5.88-.18 8.79-.77-.46-1.62-.76-2.54-.83-.37-.03-.69.34-.69.69 0 .4.32.67.69.69.83.06 1.63.43 2.32.96-.11.71-.24 1.41-.39 2.11-.11.53-.23 1.05-.36 1.58-.09.36.12.75.48.85.37.1.77-.12.85-.48.23-.95.43-1.91.61-2.88.56.68 1 1.45 1.39 2.28 1.16 2.45 1.6 5.2 1.39 7.9-.12 1.49-.47 2.99-1.02 4.41-.13.35.15.76.48.85.39.11.72-.13.85-.48 1.09-2.81 1.36-5.9.89-8.87Zm-10.67-20.38a43.6 43.6 0 0 1-7.29-3.05 43.991 43.991 0 0 1-6.64-4.31 45.336 45.336 0 0 1-5.85-5.53c-1.75-1.99-3.28-4.1-4.64-6.4-.07-.12-.13-.23-.2-.35 2.6-2.88 6.37-4.64 10.22-4.67 2.06-.02 4.12.5 5.98 1.4.97.47 1.89 1.03 2.76 1.66.77.56 1.54 1.18 2.16 1.92 2.65 3.18 4.86 6.78 6.48 10.58 1.42 3.33 2.31 6.71 2.74 10.13-1.91-.32-3.86-.78-5.72-1.37Z"/><path class="cls-17" d="M117.31 34.43c-.53 1.64-1.17 3.27-1.37 5-.18 1.57.03 3.71 1.76 4.34.44.16.95.14 1.39-.01a2.839 2.839 0 0 0 .98-.58c.03-.03.07-.05.1-.08.06-.07.01 0 0 0h-.37c.15.02.33.2.5.3.24.15.52.25.81.24.6-.03 1.14-.45 1.13-1.08 0-.89-1.4-.89-1.39 0 0-.13.11-.22.19-.3.04-.04 0 0-.03 0h.1c.1.01-.05-.03-.01 0s-.07-.04-.06-.03c-.09-.05-.18-.12-.27-.18-.45-.31-.95-.43-1.41-.06-.28.22-.53.45-.88.51-.24.04-.45-.05-.64-.23-.22-.21-.35-.49-.44-.83-.1-.4-.11-.82-.11-1.23 0-.83.19-1.64.41-2.43.28-1 .64-1.97.96-2.96.12-.36-.13-.76-.48-.85-.38-.1-.74.13-.85.48Z"/><path class="cls-17" d="M140.34 30.59a.7.7 0 0 0-.85-.48c-2.13.53-4.26 1.09-6.38 1.68v-.02c.05-.69.06-1.99-.86-2.13-3.31-.54-6.75-.57-9.99.4-.1 0-.2.04-.28.1s-.03.03-.05.05c-.02.01-.04.03-.05.04-.28.23-.49.49-.64.8-.4-.42-.9-.71-1.56-.75-.98-.06-1.72.4-2.3 1.05-.15-.25-.33-.48-.57-.68-.02-.02-.05-.04-.08-.06-.02-.01-.03-.03-.05-.04a.558.558 0 0 0-.27-.1c-3.24-.97-6.68-.95-9.99-.4-.84.13-.89 1.23-.87 1.88.01.65.14 1.35.38 1.98.5 1.33 1.49 2.72 2.94 3.08.75.19 1.56.18 2.34.23.77.05 1.51.13 2.26.1.75-.04 1.48-.23 2.09-.69.57-.43 1-1.01 1.37-1.62.29-.48.55-.99.69-1.53.25-.47.5-.94.87-1.3.33-.33.74-.54 1.19-.5-.11 0 .25.07.16.03.06.02.11.05.16.09.02 0 .09.06.09.06.21.16.3.3.43.5.3.48.55.99.81 1.49.05.1.09.2.15.3.67 1.27 1.65 2.49 3.15 2.72.74.11 1.48.05 2.23 0 .8-.05 1.61-.07 2.4-.17s1.5-.41 2.09-.98c.48-.47.89-1.04 1.17-1.64.11-.24.21-.48.29-.73 2.34-.66 4.7-1.28 7.06-1.87.36-.09.58-.5.48-.85Zm-24.53 3.54c-.51.86-1.1 1.64-2.13 1.76-.6.07-1.21 0-1.81-.04-.66-.04-1.32-.07-1.99-.12-.5-.04-.98-.13-1.38-.45s-.7-.72-.96-1.17c-.29-.51-.47-1.04-.57-1.64-.03-.21-.05-.54-.04-.81 0-.1 0-.21.02-.32 3-.47 6.12-.45 9.05.41.04.05.13.14.1.1.05.07.13.22.14.25.08.2.1.36.09.6-.01.5-.26.99-.52 1.43Zm15.5-.79c-.43.91-1.09 1.79-2.15 1.95-.6.09-1.24.09-1.85.13s-1.25.1-1.88.09c-.51 0-.98-.07-1.41-.36-.38-.25-.68-.65-.94-1.05-.13-.21-.27-.42-.39-.65a.612.612 0 0 0-.05-.12l-.12-.24c-.08-.2-.14-.4-.17-.6-.04-.31-.02-.47.06-.73.04-.12.14-.31.24-.4 2.94-.88 6.06-.9 9.07-.42 0 .06 0 .13.01.19.01.28 0 .56-.03.83-.04.4-.21.99-.39 1.37Z"/><path class="cls-12" d="M120.48 62.75s.06-.02 0 0ZM117.86 65.08c-.04.02-.06.03 0 0ZM102.68 91.57s.05.02.08.03l-.17-.07c.1.04.19.09.27.16l-.14-.11c.1.08.19.17.27.27l-.11-.14c.09.12.17.25.23.39l-.07-.17c.08.19.13.39.16.59l-.03-.19c.02.12.03.25.03.37 0 .36.32.71.69.69s.7-.31.69-.69c0-.53-.12-1.07-.39-1.53s-.66-.78-1.15-.95c-.16-.05-.39-.02-.53.07s-.28.25-.32.41c-.09.39.12.73.48.85Z"/><path class="cls-12" d="M198.2 134.06c-.3-1.75-.71-3.5-1.25-5.19-.52-1.61-1.23-3.16-2.23-4.53 0 0 0-.02-.01-.03-2.47-5.04-5.19-9.95-7.88-14.87-2.64-4.85-5.27-9.71-7.54-14.74-1.1-2.44-2.06-4.95-3.24-7.36s-2.64-4.73-4.47-6.74c-1.83-2.01-3.84-3.62-5.99-5.16-2.21-1.58-4.51-3.05-6.82-4.48-4.46-2.77-9.06-5.28-13.77-7.59-.51-.25-1.02-.5-1.54-.75-.15-.28-.5-.48-.8-.36-5.39 2.09-11.34 2.7-17.04 1.72-1.43-.25-2.85-.6-4.23-1.03-.23-.3-.57-.34-.91-.19h-.03c-.05.01-.09.03-.13.05-.07.03-.15.06-.23.09-.13.05-.27.09-.4.14-.25.08-.49.15-.74.22-.61.17-1.2.38-1.79.63-.34.14-.43.66-.25.95-.23.22-.45.44-.6.58-.43.41-1.76-.04-2.41.56-.65.61-1.1.46-1.63 1.23-.53.77-.87 2.3-1.12 3.28-.25.97-1.23 2.61-1.67 3.05-.44.44-2.95 1.45-3.89 1.7s-1.71.75-2.19 1.54c-.36.59-.68 3.24-.81 4.51-3.06-.57-6.1-1.2-9.13-1.9-1.02-.24-2.04-.48-3.06-.74-.36-.09-.75.12-.85.48-.02.05-.04.09-.05.14-.41 2.69-.98 5.35-1.62 7.99-.85-.06-1.66.27-2.32.83-.77.65-1.19 1.57-1.41 2.51-.24 1.03-.28 2.09-.36 3.14-.09 1.12-.17 2.24-.25 3.36-.31 4.24-.61 8.48-.91 12.72l-.36 4.83c-.04.09-.06.18-.07.28-.05.73-.1 1.46-.12 2.19v.14c-.02 1.38.15 2.75.46 4.09.61 2.68 1.68 5.33 3.37 7.52.91 1.18 1.98 2.29 3.28 3.05.32.19.63.09.82-.12l7.67.73s.2 0 .45-.04c-.03.15 0 .31.08.46.2.33.63.45.95.25 2.28-1.44 4.17-3.56 5.35-5.98 1.12-2.29 2.01-4.72 2.78-7.14.38-1.2.73-2.41 1.01-3.63.45 4.46.95 8.92 1.48 13.37.16 1.33.32 2.67.49 4 .05.37.29.69.69.69.13 0 .26-.05.38-.12l16.06 2.27 12.21 1.45-.37.89s-.06 0-.09-.01c-.37-.05-.75.09-.85.48-.09.33.11.8.48.85 2.29.33 4.59.6 6.9.82.37.04.69-.35.69-.69 0-.32-.2-.55-.47-.64.76-.82 2-2.18 2.37-2.62.53-.65 5.04-3.55 5.31-3.78s-3.86 1.01-4.47 1.25-2.02 1.36-3.08 1.61-1.86.2-2.03-.71 1-1.17 2.03-2.32c1.03-1.15 2-1.57 3.46-2.52 1.45-.95 7.02-2.41 7.02-2.41l4.54 2.1c0 .11 0 .23-.01.34-.01.37.33.69.69.69.39 0 .68-.32.69-.69.14-3.7.18-7.4.13-11.1a205.136 205.136 0 0 0-.78-15.01c.99 1.39 1.96 2.79 2.91 4.21 3.08 4.57 5.98 9.27 8.63 14.1 1.38 2.52 2.69 5.08 3.92 7.68-.32.38-.65.77-.98 1.14-.32.12-.5.5-.43.83 0 .16.07.31.19.43.17.16.42.23.64.19.37.12.69.26 1.06.45.44.23.95.56 1.29.83.83.66 1.55 1.46 2.12 2.3 1.4 2.04 2.07 4.38 2.48 6.83.25 1.47.39 2.95.53 4.43.01.12.05.22.1.32v.05c.09.33.5.62.85.48 3.2-1.23 6.15-3.05 8.67-5.39 1.26-1.17 2.47-2.47 3.43-3.89.51-.75.93-1.6 1.08-2.51.18-1.03.09-2.05-.08-3.07Z"/><path class="cls-17" d="m163.16 140.72-.02-.02s.01 0 .02.01Z"/><path class="cls-17" d="M187.44 144.92c-.11-.39-.48-.55-.85-.48-2.36.43-4.73.8-7.1 1.18.64-.65 1.21-1.37 1.68-2.16.47-.77-.74-1.47-1.2-.7-.36.59-.72 1.09-1.18 1.59-.21.23-.44.46-.68.67a8.188 8.188 0 0 1-.46.38s-.12.08-.16.12c-.45.33-.93.61-1.43.85-.1.05-.2.09-.31.14-.02 0-.07.03-.1.04-.07.03-.13.05-.2.08-.23.08-.46.16-.69.22-.22.06-.44.11-.66.15-.1.02-.2.04-.31.05h-.01c-.06 0-.11.01-.17.02-.39.04-.78.05-1.16.01-.54-.05-1.27-.23-1.81-.47s-1.16-.61-1.6-.98c-.61-.52-1.03-1.07-1.44-1.74-.46-.76-.88-1.54-1.45-2.24a.606.606 0 0 0-.44-.2.509.509 0 0 0-.3-.06c-.14 0-.28.01-.41 0-.07 0-.13 0-.19-.01h-.08a5.25 5.25 0 0 1-.78-.2c-.02 0-.04-.02-.06-.02-.06-.03-.12-.05-.17-.08-.12-.06-.24-.13-.36-.21-.05-.04-.11-.07-.16-.11-.01 0-.03-.02-.04-.03.02.02.04.04-.01 0l-.01-.01h-.01.01c-.02-.01-.03-.03-.05-.04.07-.09.15-.17.22-.26.24-.29.28-.7 0-.98-.25-.25-.74-.29-.98 0-2.04 2.43-4.19 4.75-6.5 6.92-.28.27-.54.53-.87.71-.07.04-.06.04-.14.06-.05.02-.1.03-.15.04h-.15c-.03 0-.07-.02-.1-.02h-.04s0-.02-.02-.02c-.03-.02-.06-.03-.08-.05v-.03c-.02-.15.03-.34.08-.52.11-.39.24-.77.37-1.15a17.84 17.84 0 0 1 2.21-4.18c.99-1.39 2.29-2.72 3.66-3.75.06-.02.12-.04.19-.05.03 0 .07-.01.1-.02h.5c.03 0 .05 0 .08.01.07.01.13.03.2.05.06.02.12.04.17.06h.02c.02 0 .03.01.04.02.12.06.23.12.33.19.02.01.03.02.05.03.05.04.1.08.14.13.05.05.09.1.14.15.01.02.03.04.04.06.2.3.62.46.95.25.17-.11.3-.3.33-.5 1.06.29 2.11.67 3.17.96.15.04.28.03.4 0h.1c.12-.05.22-.11.31-.19s.02-.01.02-.02c.15-.11.32-.21.49-.29.02 0 .04-.02.06-.03s.06-.04.09-.06a.5.5 0 0 0 .18-.2c.05-.08.08-.17.08-.26.02-.09.02-.19-.01-.28a.661.661 0 0 0-.32-.41l-.17-.07a.772.772 0 0 0-.37 0c-.19.08-.37.16-.55.27-.07.04-.13.09-.19.13-1.86-.53-3.65-1.22-5.59-1.38-.49-.08-1-.03-1.47.14-.07.01-.13.04-.19.08-.08.04-.15.1-.21.17-.23.18-.45.36-.68.54a.708.708 0 0 0-.73.16 50.78 50.78 0 0 1-5.54 4.49c-.99.69-2 1.35-3.04 1.96-.17.1-.45.27-.57.32-.08.04-.17.06-.26.08h-.05c0-.04 0-.08-.01-.1.01-.04.03-.14.03-.13.01-.05.03-.09.04-.14.02-.07.05-.12.11-.24.36-.7.77-1.38 1.2-2.04.01-.02.03-.04.04-.06.79-1.2 1.69-2.34 2.66-3.39.76-.83 1.57-1.63 2.45-2.33.85-.69 1.78-1.12 2.89-1.11.67 0 1.33.13 1.98.26.7.13 1.4.29 2.09.45 1.4.33 2.79.72 4.17 1.17.16.05.33.03.48-.05h.02c.01 0 .03-.01.04-.02.11-.03.21-.09.3-.17l.63-.55c.07-.06.12-.14.14-.22.04-.08.06-.17.06-.27 0-.09-.02-.19-.06-.27a.555.555 0 0 0-.14-.22l-.14-.11a.73.73 0 0 0-.35-.09l-.19.03c-.12.03-.22.09-.31.18l-.33.28c-1.36-.82-2.82-1.47-4.31-2.02-1.4-.52-2.83-.96-4.3-1.21-.74-.13-1.49-.24-2.25-.28H155.67c-.03 0-.07.01-.1.02-.01 0-.02 0-.03.01-.03.01-.07.03-.1.05h-.01c-.49.31-.98.63-1.46.95l-4.92 1.59a.62.62 0 0 0-.55.19c-.64.62-1.38 1.07-2.2 1.33-.43.13-.86.22-1.24.25-.11 0-.21.01-.32.01l1.51-1.67.85-.94c.12-.13.24-.27.38-.4.03-.03.06-.06.1-.08h.01c.03-.02.07-.04.1-.06.01 0 .02-.01.02-.02h.02c.14-.05.26-.14.35-.25 2.61-1.39 5.36-2.5 8.21-3.3a65.235 65.235 0 0 1 10 5.15c.2.12.44.12.64.03 1.95.32 3.89.68 5.83 1.08.77.16 1.53.33 2.28.56.4.12.77.25 1.13.4.11.09.23.15.37.17.19.09.38.19.58.3.69.4 1.32.94 1.76 1.59.21.31.61.45.95.25.31-.18.46-.64.25-.95-.61-.91-1.42-1.59-2.34-2.12.77-1.03 1.37-2.17 1.92-3.33.16-.33.1-.77-.25-.95-.31-.16-.78-.1-.95.25-.33.7-.68 1.39-1.07 2.05-.19.32-.38.63-.59.93l-.16.22c0 .01-.11.15-.07.09.04-.05-.04.05-.05.06-.02.02-.04.04-.06.07-.15-.06-.3-.12-.45-.17-1.74-.62-3.59-.92-5.4-1.26-1.23-.23-2.45-.45-3.68-.65a.964.964 0 0 0-.24 0 67.207 67.207 0 0 0-10-5.1.31.31 0 0 0-.08-.02c-.13-.07-.3-.1-.49-.05-3.08.85-6.07 2.06-8.89 3.58-.09.05-.15.11-.21.19-.28.16-.52.36-.74.61-.31.34-.6.67-.9 1l-1.84 2.04c-.06.07-.11.15-.15.24-.2.26-.25.63-.16.94.1.37.4.67.77.81.62.24 1.43.09 2.06-.04 1.18-.25 2.3-.83 3.2-1.63h.05l.92-.3c-1.97 1.54-3.79 3.25-5.28 5.3-.74 1.02-1.38 2.11-1.88 3.26-.14.22-.17.51-.03.73.96 1.45 2.91.24 3.89-.54.22-.18.44-.37.66-.56-.13.36-.19.74-.1 1.12.17.67.8 1.09 1.48 1.02.63-.06 1.17-.41 1.7-.73s1.1-.68 1.64-1.03c.91-.6 1.79-1.22 2.66-1.88-.58.97-1.08 2-1.49 3.07-.15.4-.29.81-.41 1.23-.16.55-.28 1.13-.02 1.68.45.95 1.66 1.05 2.52.65.74-.35 1.34-1.04 1.92-1.6.58-.56 1.11-1.08 1.65-1.63 1.06-1.09 2.09-2.21 3.08-3.36.86.71 1.98 1.11 3.1 1.07.43.56.75 1.21 1.11 1.81.4.66.87 1.3 1.44 1.84 1.08 1.01 2.47 1.72 3.94 1.96 1.83.3 3.73-.13 5.35-1.01.06 0 .11 0 .17-.01 3.21-.53 6.44-1.01 9.64-1.59.37-.07.58-.52.48-.85Zm-25.19-7.22Zm.05.04h.01-.01Zm-14.74-5.15s-.03.02 0 0Zm-1.13 9.74c-.43.38-.77.66-1.3.95-.21.11-.34.18-.55.23 1.83-3.69 5.02-6.53 8.37-8.86.54-.38 1.09-.74 1.64-1.1.05-.02.09-.05.13-.08.41-.27.83-.54 1.25-.81.2.01.41.03.61.05l.25.03c.04 0 .07.01.11.01.18.03.35.05.53.08.32.05.64.11.95.17-1.28-.04-2.39.29-3.42 1.02-1.03.72-1.95 1.61-2.81 2.52a27.915 27.915 0 0 0-3.04 3.81c-1.05.45-1.87 1.21-2.72 1.97Zm2.38 1.64v.02c0 .03.02.09 0-.02Zm5.46 3.09s.02.02 0 0Zm.39.09s.11 0 0 0ZM140.83 38.9c.02 3.69-.06 7.37-.11 11.06-.04 3.4-.07 6.8-.11 10.2l-.06 4.97c-.01.89 1.38.89 1.39 0 .05-3.15.08-6.3.11-9.46.03-3.19.07-6.39.11-9.58.03-2.4.07-4.79.06-7.19 0-.89-1.4-.89-1.39 0ZM104.23 56.91s.03-.01.05-.02c-.01 0-.03.01-.04.02ZM94.93 72.9v-.01.01z"/><path class="cls-17" d="M132.36 50.22c-.25-.25-.74-.29-.98 0-1.55 1.8-3.61 2.93-5.91 3.39-.21-1.14-.86-2.22-1.52-3.16-.43-.61-.88-1.22-1.38-1.78-.5-.56-1.12-1.2-1.9-1.25-.41-.02-.79.15-1.15.33-.33.16-.66.33-.99.51-.62.34-1.23.71-1.83 1.09-.34.23-.68.46-1.02.7-1.35-1.7-2.24-3.76-2.87-5.84-.73-2.41-1.18-4.92-1.44-7.42-.53-5.1-.17-10.42 1.85-15.17 1.03-2.41 2.45-4.65 4.3-6.51.41-.41.14-.97-.28-1.14.3-.17.37-.64.2-.92-.21-.35-.61-.4-.95-.25-2.92 1.29-5.14 3.83-6.46 6.7-1.54 3.37-1.86 7.11-1.46 10.76.25 2.28.74 4.53 1.35 6.75.02.08.06.15.09.2.25 2.29.65 4.49 1.25 6.67.67 2.41 1.7 4.94 3.32 7-.53.43-1.04.88-1.54 1.34-.14-.05-.28-.1-.41-.15-.62-.22-1.26-.43-1.93-.33-.55.08-1 .37-1.4.74-.16.16-.32.32-.47.48-.07.08-.15.15-.23.23-.03.03-.07.06-.11.09-.02.02-.04.03-.04.04 0 0-.02 0-.04.03-.05.03-.1.07-.15.09-.01 0-.08.04-.12.06-.03.01-.1.04-.1.04-.06.02-.12.04-.19.06-.16.05-.33.1-.49.16-.07.01-.14.04-.2.07-.44.18-.82.44-1.03.86-.56.37-1.18.62-1.87.74-.04 0-.07.02-.11.03h-.05c-.46.08-.89.34-1.2.69-.33.37-.56.81-.68 1.3-.09.37-.13.76-.15 1.15-.76.78-1.31 1.71-1.86 2.64-.46.77-.91 1.54-1.35 2.32-1.06 1.89-2.02 3.85-2.8 5.88-.42 1.08-.78 2.18-1.08 3.3-.03.04-.06.08-.08.12-.97 2.17-2.01 4.29-2.88 6.5-.4 1.01-.77 2.03-1.14 3.05-.13.35.14.76.48.85.39.11.73-.13.85-.48.32-.9.65-1.8 1-2.7.15-.37.29-.74.44-1.11l.21-.51c.1-.23.09-.21.17-.41.44-1.04.92-2.06 1.4-3.08l.42-.9c.14-.09.26-.23.3-.4 1.03-4.08 2.92-7.81 5.06-11.42.55-.92 1.07-1.88 1.82-2.65a.69.69 0 0 0 .4-.62c0-.21.02-.42.03-.63 0-.05 0-.1.01-.16v-.05c.02-.08.01-.07 0 .03 0-.08.03-.2.05-.28.02-.1.05-.2.08-.3.01-.04.03-.07.04-.11.04-.08.08-.15.12-.22.02-.03.04-.07.07-.1.06-.06.11-.12.17-.18l.01-.01c.02-.01.05-.04.06-.04.03-.02.06-.04.1-.05h-.02.03c.06-.03.06-.02.03-.01.03-.01.06-.03.09-.04h.28c.04.01.11.02.14.02.03 0 .05.01.08.02.13.13.31.21.51.23s.1.01.15.02c-.14-.01-.03 0 .05 0l.36.06c.26.05.52.11.78.18.59.15 1.17.34 1.74.54 1.22.43 2.26.86 3.42 1.47.5.27 1 .55 1.45.89.08.06.18.09.27.1.01.04.03.11.03.07.03.22 0 .32-.05.49-.11.41-.29.72-.53 1.11-.51.8-1.08 1.56-1.71 2.28h-.05c-.16-.02-.32-.05-.48-.08-.3-.05-.59-.12-.88-.2-.14-.04-.27-.09-.4-.14a.938.938 0 0 0-.15-.06c-.07-.03-.14-.07-.21-.11-.07-.04-.13-.08-.2-.12a1.47 1.47 0 0 1-.13-.1c-.1-.08-.19-.17-.28-.26l-.06-.06-.01-.02c-.02-.04-.05-.07-.07-.11.04-.02.1-.05.11-.06.05-.02.09-.03.14-.04 0 0 .05-.01.09-.02.03 0 .15-.02.17-.02h.28c.09 0 .19 0 .28.01.04 0 .08 0 .12.01h.04c.18.03.36.07.54.13.09.03.17.06.26.09.04.02.06.03.06.02.03.01.06.03.09.04.33.15.76.1.95-.25.16-.31.1-.79-.25-.95-.2-.1-.41-.18-.63-.25a.7.7 0 0 0 .34-.78c-.09-.34-.5-.61-.85-.48-1.42.51-2.96.43-4.28-.24-.33-.17-.75-.09-.95.25-.18.31-.09.78.25.95.38.2.78.35 1.19.47-.02.02-.04.03-.07.05-.04.03-.09.06-.13.09-.1.07-.2.13-.31.19-.1.05-.2.11-.31.15-.01 0-.02.01-.03.01l-.15.06c-.23.08-.46.14-.7.19-.36.07-.59.52-.48.85.12.38.47.56.85.48.17-.03.35-.08.52-.13 0 .71-.02 1.42-.05 2.13-.03.68-.1 1.12-.23 1.78-.07.33-.14.65-.24.98-.04.15-.09.29-.14.44l-.06.15c0-.01-.07.15-.08.18-.32.64-.65 1.15-1.13 1.63-.11.11-.22.21-.34.32-.05.04-.1.09-.16.13-.03.02-.13.1-.12.1-.23.17-.46.34-.68.52-.3.23-.24.74 0 .98.29.29.68.23.98 0-.11.08-.01 0 .04-.03l.12-.09c.11-.08.21-.16.32-.24.24-.19.48-.37.7-.58.53-.51.98-1.12 1.33-1.76.68-1.25.95-2.74 1.05-4.15.08-1.02.08-2.06.08-3.08v-.04c.03-.02.06-.05.1-.07.06.48.38.94.75 1.27.39.34.83.59 1.3.78.03.06.07.11.12.15.69.55 1.48.89 2.31 1.19.1.04.2.07.3.1-.85 1.42-1.05 3.11-1.67 4.66-.13.33-.38.79-.63 1.13-.22.3-.6.68-.94.95-.27.21-.74.49-1.08.63-.43.18-.96.29-1.44.39-.65.12-1.28.26-1.87.57-.18.1-.35.21-.5.32-.32-.02-.61.2-.71.51-.03.1-.06.2-.09.29a.7.7 0 0 0-.08.1c-.1.13-.12.3-.08.46-.69 2.43-.98 4.99-1.24 7.5-.04.37.35.69.69.69.41 0 .66-.32.69-.69.13-1.33.27-2.44.47-3.71.2-1.25.44-2.49.8-3.7.24-.26.54-.47.87-.63.47-.23 1.01-.3 1.52-.4 1-.19 1.95-.53 2.77-1.15.82-.61 1.48-1.36 1.92-2.26s.67-1.81.93-2.74.56-1.95 1.18-2.68c.26-.02.52-.09.78-.22.05-.02.09-.06.13-.1.07-.03.14-.08.19-.15.11-.14.22-.29.33-.43h.02c.34-.06.78.07 1.15.07.51-.01.95-.19 1.34-.52.63-.53 1.14-1.25 1.62-1.9.98-1.33 1.75-2.81 2.31-4.36.04 1.4.07 2.81.11 4.22.02.63.03 1.25.06 1.88.02.37.31.69.69.69.36 0 .71-.32.69-.69-.11-2.32-.14-4.65-.19-6.97.28.26.62.41 1.03.46.21.03.41-.09.54-.26.08-.05.16-.13.2-.22.47-1.09 1.03-2.21 1.2-3.4 2.64-.44 5.12-1.78 6.87-3.81.24-.28.28-.7 0-.98Zm-27.98 6.63s.07-.02.08 0h-.08Zm3.96 6.28s.02-.03.04-.05c0 .01-.02.03-.04.05Zm.05-.09s-.02-.04 0 0Zm.01.02s.07-.03 0 0Zm2.93 1.27h-.02.02Zm2.08 1.14v.01c-.01 0-.03 0-.04.02s-.01 0-.02.01l-.12.03h-.13c-.05 0-.11 0-.16-.01 0 0-.16-.03-.19-.04-.16-.04-.32-.09-.48-.14.79-.9 1.54-1.87 2.15-2.9.58-.99.91-2.28.06-3.22a.638.638 0 0 0-.52-.2c-.9-.66-1.94-1.15-2.96-1.6-1.22-.53-2.48-1.01-3.77-1.36l-.46-.12c.08-.05.17-.11.25-.16.09-.04.18-.09.24-.17.15-.12.3-.24.44-.36 1.64.7 3.37 1.16 5.04 1.76 1.55.55 3.07 1.27 4.25 2.43-.08.47-.31.92-.53 1.33-.3.55-.62 1.1-.95 1.63-.65 1.05-1.35 2.07-2.11 3.05Zm6.78-7.73c-.06.35-.18.69-.3 1.03-.24.68-.52 1.32-.85 1.96a15.76 15.76 0 0 1-2.52 3.6c-.26.28-.4.39-.76.37h-.06c.38-.54.74-1.09 1.08-1.65.73-1.19 1.52-2.39 1.64-3.76a.587.587 0 0 0-.16-.44.674.674 0 0 0-.17-.27c-2.38-2.43-5.73-3.01-8.79-4.15.27-.21.51-.46.74-.71.13-.14.26-.27.41-.39.05-.04.29-.18.35-.19.53-.09 1.02.12 1.52.3s1.03.38 1.55.58c1.03.41 2.04.86 3.03 1.35 1.07.53 2.12 1.1 3.15 1.71.04.07.09.13.14.19.04.15.04.31.01.49Zm.08-2.15c-.47-.27-.95-.54-1.44-.79.09-.05.19-.1.28-.15.15-.06.31-.1.47-.14.29.1.58.19.88.27-.06.27-.12.54-.19.81Zm.17-2.25a8.24 8.24 0 0 1-.7-.24c.1-.1.2-.21.3-.32.14.19.28.39.44.57h-.03Zm2.87 3.85v-.01.01Zm.58-1.48c-.16.5-.37.99-.57 1.47-.01-.03-.04-.08-.04-.09-.03-.08-.05-.17-.07-.26-.04-.16-.06-.32-.09-.48 0-.05-.01-.07-.01-.07v-.07l-.03-.25-.03-.51c0-.36.01-.73.05-1.09.02-.19-.08-.38-.23-.51 0 0-.01-.02-.02-.02-.43-.38-.83-.79-1.19-1.22-.09-.11-.18-.21-.26-.32-.01-.02-.03-.04-.04-.05-.04-.05-.08-.11-.12-.17-.17-.24-.33-.48-.49-.73a.749.749 0 0 0-.7-.34c-.23 0-.44.13-.59.34s-.05.07-.07.1l-.01.02c-.06.07-.11.14-.17.21-.11.13-.22.25-.34.38-.24.25-.49.49-.75.72-.06.05-.12.1-.19.15-.03.03-.07.05-.1.08-.14.1-.27.2-.41.29-.24.16-.48.3-.73.44a59.4 59.4 0 0 0-2.17-.95c1.7-1.51 3.6-2.79 5.64-3.8.11-.05.22-.12.33-.15.08-.03.08-.04.14-.03l.07.02c.16.08.39.29.58.48.47.47.87 1 1.27 1.53.39.53.75 1.09 1.07 1.67.13.24.27.49.36.74.05.13.09.26.12.39.02.08.03.15.05.23 0 .05.01.06.01.06v.06c.05.65-.04 1.1-.24 1.73Z"/><path class="cls-16" d="M126.45 45.5c-.07-.3-.16-.6-.3-.87-.17-.34-.49-.63-.87-.72a1.3 1.3 0 0 0-.65 0c-.02 0-.04.01-.05.02-.17 0-.33.03-.5.12-.19.09-.36.27-.46.45-.22.37-.19.83-.07 1.23.09.3.22.59.37.87.17.3.38.6.67.8.36.25.83.25 1.21.05.33-.17.57-.49.68-.84s.07-.75-.02-1.11ZM123.95 27.58a3.78 3.78 0 0 0 2.48 1.06c.36.01.71-.33.69-.69a.705.705 0 0 0-.69-.69c-.1 0-.2-.01-.29-.03l.19.03c-.26-.04-.51-.11-.75-.2l.17.07c-.24-.1-.47-.23-.67-.39l.14.11c-.09-.07-.19-.15-.27-.23-.26-.25-.73-.28-.98 0s-.28.71 0 .98ZM112.37 29.45c.75-.13 1.44-.48 2.02-.95.13-.11.2-.33.2-.49 0-.17-.08-.37-.2-.49s-.31-.21-.49-.2l-.19.03c-.12.03-.22.09-.31.18-.02.02-.05.04-.07.05l.14-.11c-.25.19-.52.35-.81.47l.17-.07c-.27.11-.55.2-.84.25-.16.03-.33.18-.41.32-.09.15-.12.37-.07.53s.16.33.32.41l.17.07c.12.03.25.03.37 0Z"/><path class="cls-4" d="M81.83 107.6c-.05-1.28-.18-2.56-.29-3.83-.45-5.37-1.01-10.74-1.66-16.09-.64-5.35-1.37-10.74-2.13-16.09-.76-5.34-1.56-10.67-2.37-16.01-.32-2.11-.54-4.34-1.57-6.26-.51-.94-1.24-1.75-2.15-2.3-.97-.59-2.09-.87-3.2-1.02-.56-.08-1.13-.14-1.69-.19-.08 0-.15 0-.22.03-.48-.11-.97-.17-1.44-.2-.34-.02-.63.26-.68.58-1-.15-2.01-.21-3.02-.24-2.4-.08-4.8-.13-7.19-.15-4.83-.05-9.65-.01-14.48.05-4.83.07-9.61.15-14.41.2-4.83.04-9.65.04-14.48-.07-1.9-.04-3.91-.29-5.78.17-1.8.44-3.18 1.74-3.53 3.59-.2 1.04-.13 2.09-.01 3.13.13 1.16.29 2.32.44 3.48.29 2.3.59 4.59.89 6.89.58 4.42 1.17 8.83 1.77 13.24.6 4.41 1.18 8.62 1.78 12.92.63 4.5 1.25 9 1.88 13.5l.48 3.47c.05.37.53.57.85.48.4-.11.54-.48.48-.85-.62-4.47-1.25-8.95-1.87-13.42-.62-4.47-1.18-8.5-1.76-12.75-.58-4.23-1.15-8.45-1.71-12.68-.59-4.49-1.17-8.99-1.74-13.48-.21-1.68-.64-3.93.7-5.28 1.04-1.06 2.71-1.13 4.12-1.11 2.28.04 4.56.12 6.84.15 2.37.03 4.74.03 7.1.03 4.71-.02 9.42-.09 14.14-.17 4.71-.07 9.42-.14 14.14-.13 2.37 0 4.74.02 7.1.07 2.18.04 4.39.01 6.56.25.93.11 1.89.3 2.75.69.41.18.8.4 1.16.66.19.13.35.27.57.49.09.09.17.19.26.29.01.01.02.02.02.03 0 0 0 .01.02.03l.15.21c.16.24.29.49.4.75 0 .02.04.1.05.12.03.07.05.14.08.21.06.16.11.32.16.48.11.36.19.72.27 1.08.19.89.32 1.79.44 2.68 0 .06.03.12.06.17.49 3.17.97 6.34 1.43 9.51.5 3.41.98 6.82 1.44 10.23.45 3.34.88 6.69 1.28 10.04.41 3.35.8 6.83 1.17 10.25.37 3.42.73 7.07 1.07 10.61.04.45.08.91.13 1.36.03.37.29.69.69.69.35 0 .73-.32.69-.69-.33-3.58-.68-7.15-1.06-10.72a724.9 724.9 0 0 0-1.16-10.33c-.11-.96-.23-1.91-.35-2.86.31 2.26.6 4.52.89 6.78.48 3.85.93 7.71 1.34 11.57.2 1.88.51 3.8.43 5.7-.06 1.48-.48 3.01-1.55 4.05-.25.24-.5.42-.81.59-.45.25-.41.75-.14 1.05.08.13.21.23.4.28 2.03.48 4.31-.49 5.24-2.4.53-1.1.64-2.32.6-3.52Zm-9.92-58.59c-.05 0-.11.02-.16.03-.31.1-.53.31-.66.57-.17-.41-.38-.81-.64-1.16-.18-.24-.38-.48-.59-.71.77.26 1.48.65 2.05 1.28Zm7.78 61.98c-.44.57-1.09.98-1.79 1.17.6-.72 1.03-1.6 1.27-2.5.3-1.08.34-2.2.29-3.31.06.01.13.02.19.01.24-.01.49-.11.68-.27.06.69.1 1.39.1 2.08 0 .97-.14 2.02-.75 2.82Z"/><path class="cls-7" d="M45.66 70.31c-.04-.11-.63-1.23-1.72-2.62s-.05-.08-.05-.12c-.11-1.44-.31-2.4-.31-2.4a.382.382 0 0 0-.33-.31l-1.15-.15h-.03a.26.26 0 0 0-.25.24v.4s-.01.01-.02.01h-.01c-.68-.63-1.45-1.24-2.31-1.79-.16-.11-.36-.18-.57-.18-.21 0-.41.06-.57.17-4.01 2.41-6.24 6.38-6.33 6.6-.03.05-.04.11-.04.17 0 .19.12.34.29.39l1.14.23c.15.04.27.18.28.34 0 .2.17 4.72.43 5.9.04.17.2.29.38.3.67 0 1.28-.01 1.94-.01h.05c.07 0 .13-.06.13-.13-.02-.4-.07-1.3-.11-2.25v-.08c0-.08-.05-.16-.11-.2a1.25 1.25 0 0 1-.59-1.01c-.04-1.59-.05-3.42.05-4.85 0-.12.11-.21.23-.21.13 0 .23.1.23.23V69c-.07.96-.09 2.08-.08 3.2 0 .15.12.27.27.27s.27-.12.27-.27c0-1.12.01-2.26.08-3.22 0-.12.11-.21.23-.21.13 0 .23.1.23.23v.02c-.07.95-.09 2.07-.08 3.18 0 .15.12.27.27.27s.27-.12.27-.27c0-1.12.01-2.25.08-3.2 0-.12.11-.21.23-.21.13 0 .23.1.23.23v.02c-.1 1.39-.09 3.16-.05 4.71v.04c0 .44-.22.81-.55 1.03-.06.04-.1.1-.1.18 0 0-.03.24.06 1.39.04.5.08.85.09 1.01 0 .06.06.11.12.11h.88c.3 0 .58 0 .86.01h.65c.06.01.11-.03.12-.09.17-1.38.21-2.15.21-2.15 0-.07-.05-.12-.12-.13l-.79-.12c-.12-.02-.2-.1-.22-.2-.01-.06 0-.12 0-.12.37-4.6 1.91-6.13 1.91-6.13.05-.04.07-.06.07-.06a.23.23 0 0 1 .14-.04c.1 0 .19.07.23.16 0 0 .01.03.02.11.11 1.45.02 3.91-.08 5.83-.09 1.63-.19 2.91-.19 2.91 0 .05.04.1.09.1.43.01.85.03 1.3.04.18 0 .34-.12.39-.29.29-1.17.56-5.69.57-5.89.02-.16.14-.29.29-.33l1.15-.21c.17-.04.3-.19.3-.38 0-.06-.01-.12-.04-.17Z"/><path class="cls-1" d="M38.83 97.61c3.36 6.67 3.74 14.42.67 21.26-1.44 3.2-4.05 7.36-1.69 10.78.89 1.29 2.36 1.65 3.8 1.08.46-2.99 2.22-14.18 2.75-17.32.33-2 1.58-9.66 2.54-15.58a11.24 11.24 0 0 1-3.02-2.7c-1.41-1.81-2.25-3.93-2.7-6.15l-8.52-.15s-.1.25-.28.79c2.68 2.18 4.89 4.9 6.46 8ZM47.41 94.66c.36-2.23.63-3.84.69-4.16.21-1.17-.09-1.36-1.14-1.41-.27-.01-1.32-.04-2.75-.06.56 2.15 1.61 4.23 3.2 5.63ZM28.81 111.84c.55-2.27.59-5.88-.65-8.43-1.65 5.34-3.4 10.99-4 13-.15.51-.32 1.08-.5 1.71.66-.25 1.29-.56 1.87-1 1.7-1.28 2.78-3.23 3.28-5.28ZM44.33 141.86c-2.59-1.35-5.16-.29-7.81.27-2.97.63-5.85.2-8.23-1.77-1.13-.94-1.92-2.17-2.5-3.51-.53-1.22-.94-2.54-1.86-3.52a6.297 6.297 0 0 0-3.82-1.94c-.05.21-.1.41-.14.59-.89 3.83-1.03 5.85-.38 8.22.64 2.37 3.41 3.17 3.41 3.17.5.19 8.03 2.61 10.65 2.97 1.52.2 8.13-.33 14.09-.91-.68-1.52-1.9-2.79-3.41-3.58Z"/><path class="cls-1" d="M54.72 135.15a4681.2 4681.2 0 0 1-11.15-1.45s-.6.16-1.52.26c-.3.03-.49-.02-.61-.18-1.67.32-3.39 0-4.79-1.12-3.23-2.59-3.11-7.22-1.73-10.72.84-2.13 2.01-4.13 2.75-6.3.6-1.76.95-3.59 1.03-5.45.28-6.52-2.41-13.16-7.25-17.54-.3 1.04-1.17 3.9-2.23 7.31 2.77 3.03 3.27 8.16 2.54 12.01-.51 2.7-1.89 5.32-4.02 7.1-1.52 1.27-3.22 1.87-5 2.3-.65 2.37-1.35 4.96-1.92 7.19 1.81.3 3.54 1.14 4.89 2.43 2.24 2.15 2.32 5.76 4.94 7.53 2.9 1.96 5.92.39 9-.1 3.03-.48 5.9.34 8.21 2.37 1.33 1.17 2.33 2.68 2.89 4.35 2.14-.22 4.04-.44 5.36-.6-.57-1.23-.96-2.53-1.2-3.79-.31-1.65-.47-3.68-.19-5.59ZM70.33 136.96s-6.38-.68-9.63-1.07c-.66-.08-1.76-.21-3.1-.38-.25 1.52-.12 3.16.12 4.44.24 1.24.68 2.78 1.39 4.13 4.13-.66 11.47-1.92 11.47-1.92l.39-4.52-.65-.68Z"/><path class="cls-6" d="M31.77 111.96c.73-3.85.23-8.98-2.54-12.01-.34 1.11-.7 2.28-1.07 3.46 1.24 2.56 1.2 6.17.65 8.43-.49 2.04-1.58 4-3.28 5.28-.58.44-1.21.75-1.87 1-.28.98-.59 2.08-.91 3.24 1.78-.43 3.48-1.03 5-2.3 2.12-1.78 3.5-4.4 4.02-7.1Z"/><path class="cls-6" d="M38.7 110.18c-.08 1.86-.43 3.69-1.03 5.45-.74 2.17-1.92 4.17-2.75 6.3-1.37 3.51-1.49 8.14 1.73 10.72 1.4 1.12 3.12 1.44 4.79 1.12-.24-.33-.13-1.14.1-2.71.01-.1.03-.21.05-.35-1.44.57-2.91.21-3.8-1.08-2.36-3.42.25-7.58 1.69-10.78 3.08-6.83 2.7-14.59-.67-21.26a24.46 24.46 0 0 0-6.46-8c-.2.6-.51 1.56-.89 2.92 0 .03-.02.07-.03.1 4.84 4.38 7.53 11.02 7.25 17.54ZM47.87 140.77c-2.31-2.03-5.18-2.85-8.21-2.37-3.08.49-6.1 2.07-9 .1-2.61-1.77-2.69-5.38-4.94-7.53a9.276 9.276 0 0 0-4.89-2.43c-.27 1.05-.51 2.01-.71 2.84 1.43.18 2.8.85 3.82 1.94.92.99 1.34 2.31 1.86 3.52.58 1.34 1.36 2.57 2.5 3.51 2.38 1.97 5.26 2.4 8.23 1.77 2.65-.56 5.21-1.62 7.81-.27 1.51.79 2.73 2.06 3.41 3.58 1.03-.1 2.05-.2 3.01-.31-.56-1.67-1.56-3.18-2.89-4.35ZM57.6 135.51c-.88-.11-1.86-.24-2.88-.37-.28 1.91-.12 3.94.19 5.59.24 1.26.64 2.56 1.2 3.79.58-.07 1.06-.13 1.39-.18.44-.07.99-.15 1.61-.25-.71-1.35-1.15-2.89-1.39-4.13-.24-1.28-.37-2.93-.12-4.44ZM46.89 97.82c.19-1.13.36-2.2.52-3.16-1.6-1.4-2.64-3.47-3.2-5.63-.9-.02-1.94-.04-3.03-.06.45 2.22 1.29 4.34 2.7 6.15.85 1.09 1.87 2 3.02 2.7Z"/><path class="cls-14" d="M137.9 124.4c-1.88 2.11-3.68 4.29-5.4 6.53a62.789 62.789 0 0 0-3.71-6.26c-2.16-3.18-7.37-.18-5.19 3.03 2.26 3.33 4.17 6.82 5.74 10.52.97 2.28 4.05 1.61 5.19 0 2.36-3.34 4.9-6.52 7.62-9.58 2.57-2.88-1.67-7.14-4.25-4.25ZM120.92 75.96c-1.52 2.8-2.96 5.64-4.36 8.5a98.65 98.65 0 0 0-6.13-6.48c-2.79-2.68-7.04 1.56-4.25 4.25 3.21 3.09 6.19 6.37 8.95 9.87 1.14 1.44 3.96 1.02 4.72-.61 1.96-4.23 4.04-8.39 6.26-12.49 1.84-3.4-3.35-6.44-5.19-3.03ZM140.92 91.11c-1.45 2.32-2.7 4.74-3.78 7.23a98.615 98.615 0 0 0-5.8-7.13c-2.59-2.88-6.83 1.38-4.25 4.25a88.17 88.17 0 0 1 8.27 10.77c1.42 2.19 4.7 1.8 5.49-.72 1.27-4.04 3.02-7.78 5.26-11.37 2.05-3.29-3.15-6.31-5.19-3.03ZM174.13 90.23a75.77 75.77 0 0 0-3.85 5.75l-3.63-5.62c-2.09-3.24-7.3-.23-5.19 3.03 2.13 3.3 4.27 6.6 6.4 9.89 1.16 1.8 4.1 2.09 5.19 0 1.73-3.3 3.68-6.45 5.87-9.46-.71-1.63-1.39-3.27-2.12-4.89-.96-.04-1.96.33-2.67 1.29ZM95.19 103.9c1.92-3.88 4.1-7.59 6.56-11.16 2.2-3.19-3.01-6.2-5.19-3.03-1.6 2.31-3.07 4.7-4.43 7.14a97.094 97.094 0 0 0-5.41-6.24c-.71-.75-1.53-.99-2.3-.9-.12.29-.22.59-.29.9-.24 1.03-.28 2.09-.36 3.14l-.18 2.33c2.28 2.48 4.43 5.07 6.4 7.81 1.21 1.68 4.1 2.2 5.19 0ZM114.4 121.21c2.12-4.05 4.44-7.98 6.96-11.8 2.13-3.24-3.07-6.25-5.19-3.03-1.56 2.37-3.03 4.78-4.44 7.24-1.98-3.24-4.1-6.39-6.38-9.45-2.29-3.07-7.51-.07-5.19 3.03 2.73 3.66 5.24 7.47 7.55 11.4.21-.72.4-1.43.56-2.16.13 1.28.27 2.56.41 3.84l.54.93c1.07 1.92 4.14 1.99 5.19 0ZM91.79 121.59l-2.43 7.87c-.62.36-1.1.95-1.38 1.63.37.31.76.6 1.18.84.32.19.63.09.82-.12l4.79.46c.94-3.03 1.87-6.05 2.81-9.08 1.15-3.7-4.65-5.29-5.8-1.6ZM154.66 114.05c-2.89-2.56-7.15 1.68-4.25 4.25 3.12 2.77 6.08 5.7 8.86 8.8.85.95 2.16 1.07 3.24.63.06-2.57.07-5.15.04-7.72-.47-.01-.94.08-1.38.31-2.08-2.18-4.25-4.27-6.52-6.28ZM186.63 120.54c-.25-.31-.5-.62-.73-.92-.93-1.25-1.87-2.5-2.8-3.76-2.29-3.07-7.51-.07-5.19 3.03 1.66 2.23 3.31 4.46 4.98 6.68 1.12 1.49 2.41 3.17 4.56 2.57 2.07-.57 3.35-3.25 4.47-4.87.44-.64.86-1.29 1.29-1.94a321.19 321.19 0 0 0-3.22-6.1c-.7 1.14-1.42 2.27-2.16 3.39-.38.57-.78 1.25-1.2 1.91Z"/><g id="Layer_5"><path class="cls-7" d="M149.83 84.83c.04-.32-.16-.7-.5-.76-4.52-.81-9.06-1.55-13.61-2.21-1.29-.19-2.57-.37-3.86-.54-.21-.03-.42 0-.58.11a.62.62 0 0 0-.39.45c-1.06 3.9-1.85 7.87-2.39 11.88-.05.34.28.63.59.68.06.02.13.04.19.05 4.64.57 9.27 1.26 13.88 2.04 1.32.23 2.63.46 3.95.7.37.07.75-.1.85-.48.02-.07.02-.15.02-.23.62-3.77 1.23-7.55 1.85-11.32.02-.12.01-.24-.01-.35Zm-6.3.18-7.15-1.03v-.63c2.43.36 4.86.74 7.29 1.15l-.14.51Z"/><path class="cls-11" d="M144.37 81.8a.711.711 0 0 0-.42-.34c-2.2-.55-4.41-1.06-6.69-1.13-.1 0-.2.02-.29.06-.26.04-.47.22-.57.5-.34.94-.6 1.91-.79 2.89-.07.36.1.77.48.85.06.01.11.02.17.02l7.11 1.06c.37.05.75-.09.85-.48.02-.08.02-.16.02-.25.02-.15.02-.3.03-.45l.04-.47.16-1.87a.621.621 0 0 0-.12-.39Z"/><path class="cls-15" d="M142.07 89.62s.08 0 .12-.03c-.02-.17-.33 0-.12.03ZM140.92 89.39c.2.05.04-.12-.09-.06 0 .09.06.04.09.06ZM139.13 90.33c.04.05.07.04.11 0-.04-.04-.07-.03-.11 0Z"/><path class="cls-15" d="M144.34 90.4c.18.05-.36-.22.08-.12.02-.18-1.47-.5-.84-.25-.15.02-.05.13-.14-.04-.39-.05-.56-.27-1.08-.24-.39.03-.93-.33-1.51-.24-.36.04-.54-.45-.78-.09-.23-.25-.45-.36-.96-.39-.19.12-.33-.36-.39.19-.15-.33-.1-.25-.45-.36-.33-.26-.49.66-.72.16-.24-.11.19-.02.22-.14-.39-.25-.39.05-.42.36-.24.15.04-.32-.09-.39-.29.25-.17-.29-.38-.17-.21 0-.01.17-.09.28-.11-.74-1.29-.1-1.49-.21.11-.37-.34-.25-.25.04-.36 0 .15-.29-.32-.26-.16-.01.06.29-.16.23-.24-.37-.75-.57-.75-.07-.05-.3-.77-.48-.98-.07.61.33-.1.25.17.76.32.42.99.24 1.33.33.13-.35.03.26.28.11.32-.15.48 0 .69 0 .29-.16.55-.23.58.19.13.07.18-.01.06-.09.11-.01.2.15.32.11.17-.3.4.16.39-.06.4.41.47.09.65-.16-.15.4.2.38.39.4-.05-.14.06-.24.09-.08.24.15.41.15.68.04.14-.07 0 .29.12.06.05.19.43.07.51 0 0-.13-.39.1-.42-.09.05-.19.1.08.17-.03.29-.3.6.55.82.17.27.22 1.28.36 1.79.42.14.43.51-.14.71.06.75.08 1.33.02 2.18 0 .33.01-.41-.45-.01-.32Zm-11.07-1.63c.15-.14.23.24.38-.03.35.04-.31.35-.38.03Zm1.18.18c.06-.04.54 0 .57.08-.02.16-.57.06-.57-.08Zm.95.13c.02-.17.36-.29.33-.05-.08.02-.25.04-.33.05Zm1.53.31c-.1-.03-.39.06-.38-.07.06-.15.62-.01.38.07Zm1.31-.22c.02-.14.24-.1.29 0-.04.11-.28.12-.29 0Zm.27.45c.08-.32.4-.1.53-.07.07.15-.51.29-.53.07Zm1.21.16c-.19-.03-.45.08-.59-.12.08-.15.72-.09.59.12Zm.3.14c.11-.11-.1-.08-.15-.15.28-.33.48.48.15.15Zm.49-.1c.01-.11-.06-.02-.09-.11.36-.13-.03.28.09.11Zm.26.11c-.07.02-.15 0-.22-.02.17-.3.26-.17.22.02Zm.15.06c.39-.13 1.15.08 1.24.2-.33 0-1 .02-1.24-.2Zm1.5.05c.03-.12.4-.09.47.05-.13-.02-.4.07-.47-.05Zm.46.29c.18 0 .24-.02.37.12-.13.03-.72-.06-.37-.12Zm.76-.13c.01-.09.24-.11.23.02-.04.08-.16-.02-.23-.02Z"/></g><path class="cls-5" d="M139.12 137.55c-4.74-.51-9.47-1.08-14.2-1.69-4.48-.58-8.96-1.2-13.44-1.83-4.37-.61-8.73-1.24-13.1-1.85-4.36-.61-8.72-1.2-13.08-1.74-4.34-.54-8.7-1.03-13.05-1.45-.55-.05-1.1-.1-1.65-.16h-.03c-3.5-.09-7-.16-10.49-.17-3.43 0-6.87.05-10.3.19-2.01.08-4.03.2-6.03.34-.37.03-.69.3-.69.69 0 .36.32.72.69.69 3.5-.24 7-.4 10.51-.47 3.51-.07 6.87-.07 10.31-.01 2.01.03 4.03.08 6.04.13 4.39.4 8.77.88 13.14 1.42 4.3.52 8.6 1.09 12.89 1.69 4.36.6 8.72 1.23 13.07 1.84 4.52.64 9.04 1.27 13.56 1.86 4.68.61 9.36 1.19 14.05 1.71.61.07 1.21.13 1.82.2.37.04.69-.35.69-.69 0-.41-.32-.65-.69-.69Z"/><path d="m139.67 141.29.2-2.92c.02-.24-.13-.47-.34-.59a.773.773 0 0 0-.42-.16c-3.6-.09-7.2-.13-10.79-.1-3.6.03-7.15.13-10.73.31-2.05.1-4.09.22-6.13.36h-.04c-.2.01-.38.11-.5.26-.08.1-.14.22-.15.36v.07l-.23 6.6a.62.62 0 0 0-.08.31c0 .35.32.73.69.69 3.52-.3 7.03-.83 10.52-1.33 4.19-.61 8.37-1.26 12.54-1.99 1.67-.29 3.34-.59 5-.95.37-.08.58-.51.48-.85 0-.02-.02-.04-.03-.07Z" style="fill:#ffd066"/><path class="cls-14" d="M154.08 70.16c-2.09-3.24-7.3-.23-5.19 3.03 2.13 3.3 4.27 6.6 6.4 9.89 1.16 1.8 4.1 2.09 5.19 0a76.21 76.21 0 0 1 4.77-7.89c-1.63-1.16-3.31-2.25-5.01-3.32a83.84 83.84 0 0 0-2.53 3.9l-3.63-5.62Z"/></g><g id="Outline"><path class="cls-7" d="M110.22 116.19c.15-.34-1.31-1.17-3.11-3-1.8-1.79-3.89-4.78-4.61-8.52-.71-3.75.14-7.29 1.15-9.62 1-2.37 2.05-3.68 1.78-3.93-.11-.11-.53.07-1.14.58-.61.5-1.39 1.36-2.15 2.57-.76 1.2-1.47 2.79-1.89 4.65-.42 1.86-.52 4.01-.11 6.21.43 2.19 1.31 4.15 2.39 5.73s2.31 2.79 3.47 3.63c1.15.84 2.19 1.35 2.95 1.59.75.25 1.21.27 1.27.12ZM161.33 105.74c.56-.36.12-2.03-.97-3.73-1.09-1.7-2.43-2.79-2.99-2.43s-.12 2.03.97 3.73c1.09 1.7 2.43 2.79 2.99 2.43ZM73.3 113.52s.27.09.78 0c.5-.08 1.26-.3 2.06-.88.8-.57 1.63-1.5 2.21-2.78.58-1.29.83-2.89.79-4.62-.03-1.74-.32-3.58-.56-5.55-.25-1.97-.53-4.08-.81-6.3-.6-4.43-1.25-9.3-1.94-14.42-.72-5.11-1.41-9.98-2.03-14.4-.33-2.21-.62-4.31-.94-6.29-.32-1.98-.77-3.83-1.46-5.43-.68-1.6-1.63-2.93-2.68-3.85-1.03-.93-2.12-1.5-3.05-1.8-.93-.3-1.71-.33-2.21-.28-.51.04-.76.13-.76.16 0 .05.27.04.76.08.48.03 1.2.13 2.05.48 1.69.65 3.94 2.43 5.1 5.53 1.22 3.06 1.45 7.12 2.08 11.55.6 4.43 1.25 9.3 1.94 14.42.72 5.11 1.41 9.98 2.03 14.4.32 2.21.63 4.31.92 6.28.28 1.97.61 3.79.7 5.44.09 1.64-.09 3.14-.56 4.33-.47 1.2-1.19 2.09-1.88 2.67-.69.6-1.36.87-1.82 1.02-.46.15-.73.17-.72.23ZM40.83 145.3c0-.11-.69.03-1.75-.36-1.04-.38-2.43-1.48-3.15-3.35-.35-.91-.48-2.04-.43-3.23.05-1.2.29-2.48.61-3.83.65-2.73 1.37-5.72 2.12-8.87 1.48-6.3 2.75-12.02 3.61-16.18.86-4.15 1.31-6.74 1.15-6.78-.16-.04-.91 2.48-1.98 6.59-1.07 4.11-2.48 9.79-3.95 16.1-.74 3.15-1.43 6.15-2.03 8.9-.29 1.38-.52 2.74-.53 4.04 0 1.3.18 2.53.64 3.58.93 2.09 2.59 3.19 3.8 3.47 1.24.29 1.92-.04 1.89-.09Z"/><path class="cls-8" d="M27.75 98.21c0-.33-3.16-.6-7.05-.6-3.89 0-7.05.27-7.05.6 0 .33 3.16.6 7.05.6s7.05-.27 7.05-.6ZM25.98 104.61c-.01-.33-1.5-.55-3.32-.48-1.82.07-3.29.39-3.27.72s1.5.55 3.32.48c1.82-.07 3.29-.39 3.27-.72ZM66.8 98.35c0-.33-3.34-.69-7.47-.8-4.14-.11-7.5.07-7.5.41 0 .33 3.34.69 7.47.8 4.14.11 7.5-.07 7.5-.41ZM62.15 105.71c.02-.33-2.42-.76-5.45-.96-3.03-.2-5.51-.09-5.53.24-.02.33 2.42.76 5.45.96 3.03.2 5.51.09 5.53-.24Z"/><path class="cls-7" d="M109.54 138.53c.04-.33-14.1-2.39-31.59-4.6-17.49-2.21-31.7-3.73-31.74-3.4-.04.33 14.1 2.39 31.59 4.6 17.49 2.21 31.7 3.73 31.74 3.4ZM109.88 116.21c.17-.34-1.75-1.33-3.85-3.82-1.03-1.25-2.09-2.88-2.8-4.86-.71-1.97-.99-4.29-.73-6.73.24-2.44.95-4.73 1.78-6.75.83-2.02 1.77-3.79 2.58-5.28 1.64-2.97 2.66-4.86 2.38-5.06-.26-.18-1.76 1.35-3.81 4.15-1.02 1.41-2.16 3.17-3.17 5.29-1.01 2.12-1.86 4.63-2.14 7.4-.29 2.76.1 5.52 1.06 7.77.94 2.25 2.31 4 3.63 5.23 1.33 1.24 2.62 1.96 3.53 2.34.46.2.83.3 1.1.34.26.05.42.03.45-.04Z"/><path class="cls-7" d="M100.07 125.92c.25.19 1.12-.44 2.09-1.81.49-.68.97-1.56 1.41-2.58.42-1.03.79-2.2 1.02-3.47.22-1.27.28-2.5.24-3.61-.06-1.11-.21-2.1-.44-2.91-.44-1.62-1.04-2.5-1.34-2.42-.67.2.02 4-.82 8.52-.76 4.53-2.71 7.87-2.14 8.28ZM195.63 125.31c.19-.24-.59-1.32-2.47-2.27-1.83-.96-4.85-1.65-8.05-.88-1.59.38-3.01 1.08-4.15 1.89-1.14.82-2.01 1.74-2.61 2.6-1.21 1.73-1.37 3.07-1.09 3.18.32.15 1.02-.84 2.37-2.06 1.33-1.22 3.42-2.65 6.04-3.27 2.61-.62 5.13-.32 6.89.13 1.77.45 2.86.97 3.07.69ZM192.11 144.11c.12.04.73-1.28.64-3.59-.04-1.14-.29-2.5-.87-3.92-.58-1.41-1.51-2.86-2.81-4.07-1.31-1.2-2.83-2.02-4.28-2.48-1.45-.47-2.83-.62-3.97-.57-2.3.09-3.58.8-3.52.92.05.19 1.38-.2 3.51-.07 1.06.06 2.32.28 3.62.76 1.3.48 2.65 1.25 3.82 2.32a11.78 11.78 0 0 1 2.61 3.63c.58 1.26.9 2.5 1.04 3.55.29 2.12 0 3.47.2 3.51Z"/><path class="cls-2" d="M168.76 151.57c-.07-.17-1.51.3-3.87.84-1.18.27-2.59.53-4.17.74-1.58.19-3.33.31-5.17.31a45.1 45.1 0 0 1-5.16-.36 45.35 45.35 0 0 1-4.17-.77c-2.35-.56-3.79-1.04-3.86-.87-.06.13 1.28.9 3.63 1.69 1.17.4 2.61.76 4.23 1.05 1.62.27 3.42.45 5.32.47 1.9 0 3.7-.17 5.33-.42 1.62-.28 3.06-.62 4.24-1.01 2.36-.76 3.7-1.52 3.65-1.66Z"/><path class="cls-14" d="M99.89 88.89c.11-.29-2.4-1.45-5.76-1.65-3.36-.21-6 .64-5.92.94.07.34 2.67.05 5.85.26 3.18.18 5.73.78 5.84.45ZM139.4 70.16c-.09-.35-4.06.63-8.99.21-4.93-.37-8.7-1.97-8.84-1.64-.06.14.8.73 2.36 1.36 1.55.64 3.82 1.26 6.39 1.47 2.57.2 4.91-.05 6.54-.43 1.64-.38 2.59-.82 2.54-.97Z"/><path class="cls-2" d="M148.54 144.87c0-.08-.19-.15-.53-.12s-.83.16-1.34.52c-.51.35-1.04.96-1.27 1.81-.11.42-.15.9-.03 1.4.11.5.43 1 .88 1.33.45.34 1.07.5 1.63.37.56-.13.97-.46 1.25-.82.28-.36.45-.76.52-1.15.07-.39.06-.73.02-1.03a4.48 4.48 0 0 0-.41-1.32c-.15-.28-.27-.43-.35-.4-.08.02-.11.21-.11.52 0 .31.04.75.02 1.24-.03.5-.16 1.03-.54 1.43-.39.41-.87.53-1.32.19-.46-.33-.59-.94-.48-1.52.1-.58.41-1.07.74-1.41.67-.71 1.35-.87 1.32-1.05Z"/></g></svg>