<svg xmlns="http://www.w3.org/2000/svg" viewBox="0 0 200 200"><defs><style>.cls-1{fill:none}.cls-2{fill:#f6c243}.cls-3{fill:#eed7d3}.cls-4{fill:#fff}.cls-10{fill:#c1dade}.cls-11{fill:#ba8d3c}.cls-12{fill:#ce9352}.cls-13{fill:#afcbcd}.cls-15{fill:#5b3d5b}</style></defs><path d="M29.13 103.56c-98.53 90.45 151.74 144.51 159.07-7.68 21.49-61.53-24.23-135.95-70.54-57.42-1.45 3.72-10.11-.16-14.17.18-75.58-3.8-38.9 61.73-74.36 64.92Z" style="fill:#efedea" id="BG_Strong"/><g id="Illustrations"><g id="Layer_4"><path class="cls-10" d="M118.99 31.56c-.25-.01-4.26-.63-6.1-1.46-1.84-.83-5.93-1.99-6.74-1.65-.81.34-4.23.68-4.23.68l-.74.4.83 3.29s3.02-.63 4.76-.26 6.14 1.53 7.51 2.06 6.32.81 6.32.81l-2.46-2.29.85-1.58Z"/><path class="cls-3" d="m100.58 28.77.66 2.99s1.03 3.86 1.37 4.65 1.04 5.24 1.04 5.24l-1.04.52-8.08 2.11h-4.84l-.77-.25-.32-2.38s-3.08.81-4.07.38c-.99-.43-3.87-2.75-5.33-5.7s-3.26-8.22-3.6-9.81c-.34-1.59-1.43-9.24-1.43-9.24s1.34.73 2.49.47 3.11-1.91 3.52-1.61-1.18 1.67-.54 1.88 1.29-.41 2.31-.74 2.2-1.22 2.59-1.44 1.88.99 3 .6 2.77-1.43 3.26-1.36.38.51.38.51 1.52.44 2.09 1.12c.57.68 1.92 3.69 2.24 4.77.31 1.08.27 2.7.27 2.7l1.74.25s.45-1.87 1.22-2.67 1.34-1.91 2.2-1.66 1.44 1.14 1.67 2.25c.23 1.11.35 3.06-.17 4.02-.52.96-.98 2.2-1.32 2.24s-.55.16-.55.16ZM47.61 45.36s.45-.83 1.15-.77.76.65 1.3 2.18c.55 1.54 1.34 2.51 2.16 3.38s1.72 1.67 1.99 2.58 1.66 2.56 2.17 3.4c.51.84.3 3.77.24 4.76-.06.99-.86 5.68-.86 5.68l.58 3.24s-6.58.66-7.4.72-2.62 0-2.62 0l-.12-1.7s-3.5-3.22-4.27-4.15-2.71-3.15-2.8-4.5c-.08-1.36 0-4.13 0-4.13s-1.01-1-1.65-1.27c-.64-.27-.79-1.15-.55-1.58s1.41-1.51 1.41-1.51l-1.91-1.09c-.65-.37-1.45-1.3-1.45-1.3l-.12-1.95s-2.47-1.9-2.74-2.36c-.27-.46-1.44-1.44-1.43-2.04s.12-1.34.76-1.61 2.44.98 2.75.97 1.69.64 1.69.64l1.8 3.69s2.55 1.65 3.42 2.54c.86.88 1.94 2.3 1.85 2.86-.09.56-.47.72-.41.98s2.44 1.96 2.81 2.27.55.55.59 1.09.32 1.12 0 1.28-.85-.06-.85-.06 1.27 1.07.74 1.7-.89.47-1.01.52-1.74.3-1.74.3l1.14 1.95 9.17 1.87 1.96-.93-6.61-15.66-1.15-2.01Z"/><path d="M103.71 41.12s-1.75-8.62-1.78-8.78 1.25-.76 2.94-.77c1.69-.02 4.07.2 5.5.78 1.43.58 3.84 1.59 5.31 1.9 1.46.32 4.74.88 4.92 1.18s-.21.85-1.28 1.29-2.52.45-3.65.51-4.19-.81-5.68-.18c-1.48.63-4.02 1.66-4.55 2.27s-1.74 1.8-1.74 1.8Z" style="fill:#a0b4b5"/></g><path class="cls-11" d="M86.47 142.95c-2.01-.34-7.68-1.11-9.62-1.36v-.09c.04-.36-.33-.67-.67-.67-.39 0-.63.31-.67.67-.54 5.25-.91 10.53-1.1 15.81-.18 5.24-.18 10.48 0 15.71.1 3 .27 6 .49 8.99.02.32.24.6.56.66.55.33 1.15.53 1.78.61.13.02.26-.1.3-.2.05-.12.03-.27-.07-.36l-.02-.02c.16.02.32.05.48.06h.15v.05c-.28.24.1.75.41.53.14-.1.24-.08.41 0 .2.09.31.18.46.32.34.3.69.59 1.16.38.14-.06.18-.24.15-.38s0-.01 0-.02c0 0 0-.01.01-.02l.02-.02c.03-.03.01-.02.06-.05 0 0 .07-.03.07-.04.21-.08.45-.1.67-.12h.03c-.03.03-.05.07-.06.11-.01.04-.02.09 0 .13 0 .04.02.09.04.12.05.07.11.13.2.15.09.02.18.01.26-.03s.05-.03.08-.04c.06-.02.13-.04.19-.05.04 0 .07 0 .11-.03.04-.01.08-.04.11-.07.03-.03.06-.07.07-.11.02-.04.03-.08.03-.13v-.04c.16.02.32.05.49.09.42.1.59-.54.18-.64-.13-.03-.25-.05-.38-.07.13-1.52.58-6.6.75-7.93.21-1.57 3.34-21.94 3.8-23.98.46-2.04 1.1-6.27 1.1-6.27l7.22-.68 2.88-.73s-9.69.16-12.13-.26Zm-8.38 39.78Z"/><g id="Layer_17"><path d="M103.63 41.85c-.09-.32-.48-.59-.82-.47-3.15 1.18-6.54 1.95-9.9 2.17-.9.06-1.8.07-2.71 0-.36-.03-.67.32-.67.67 0 .38.31.64.67.67s.03 0 .05 0c.78.89 2.18 2.49 2.86 3.33.97 1.2 2.71 4.61 2.71 4.61l.51.65s.88-1.88 1.15-3.17 2.98-4.82 3.47-5.72c.23-.44.56-.99.83-1.45.47-.15.93-.31 1.39-.48.34-.13.57-.45.47-.82Z" style="fill:#78577a"/><path class="cls-10" d="M96.9 54c1.93-4.17 3.91-8.47 6.94-11.97.85-.98 1.78-1.89 2.78-2.71.28-.23.24-.71 0-.94-.28-.28-.66-.23-.94 0-3.67 2.98-6.14 7.12-8.2 11.3-.59 1.21-1.16 2.42-1.72 3.65-.15.33-.09.72.24.91.29.17.76.09.91-.24Z"/><path class="cls-15" d="M49.08 64.06c.1.07.21.15.31.23l-.14-.1c.39.3.75.63 1.09.99.12.12.31.2.47.2s.36-.07.47-.2c.25-.27.26-.67 0-.94-.46-.49-.98-.93-1.53-1.32-.13-.1-.36-.11-.51-.07s-.32.16-.4.31c-.08.16-.12.34-.07.51l.07.16c.06.1.14.18.24.24ZM50.71 46.6l-.18-1.2c-.03-.19-.04-.4-.1-.59-.09-.29-.28-.54-.55-.69-.77-.41-1.75-.12-2.3.53-.12.14-.2.28-.2.47 0 .16.07.36.2.47.25.23.7.28.94 0 .08-.09.16-.17.25-.24l-.14.1c.1-.08.21-.14.33-.19l-.16.07c.11-.04.21-.07.33-.09l-.18.02c.09-.01.18-.01.27 0l-.18-.02c.09.01.18.04.27.07l-.16-.07c.05.02.1.05.14.08l-.14-.1s.05.04.07.07l-.1-.14s.04.06.05.09l-.07-.16c.05.14.07.29.09.43l.07.48.14.95c.02.15.18.32.31.4.14.08.35.12.51.07s.32-.15.4-.31c.09-.17.1-.33.07-.51h.01ZM104.44 40.81c-.72-3.18-1.44-6.37-2.05-9.57-.07-.35-.49-.56-.82-.47-.37.1-.53.47-.47.82.61 3.2 1.33 6.39 2.05 9.57.08.35.49.56.82.47.36-.1.55-.47.47-.82Z"/><path class="cls-10" d="M135.03 88.22c.14 3.71.21 7.43.2 11.14 0 .86 1.33.86 1.34 0 0-3.71-.06-7.43-.2-11.14a.683.683 0 0 0-.67-.67c-.35 0-.68.3-.67.67ZM64.37 122.03c-.32 3.27.49 6.65 2.2 9.45.49.81 1.06 1.56 1.7 2.26.24.27.7.24.94 0 .27-.27.24-.68 0-.94-2-2.22-3.26-5.13-3.52-8.12-.08-.89-.07-1.77.02-2.66.04-.36-.33-.67-.67-.67-.39 0-.63.31-.67.67Z"/><path class="cls-10" d="M68.48 134.02c4.56 2.02 9.48 2.91 14.42 3.46 5.18.58 10.39.93 15.59 1.12 2.92.11 5.84.16 8.76.15.86 0 .86-1.34 0-1.34-5.17.01-10.34-.16-15.5-.51-2.56-.17-5.12-.38-7.68-.64-2.4-.24-4.8-.55-7.16-1.03-2.65-.53-5.28-1.27-7.75-2.37-.33-.15-.72-.1-.91.24-.17.28-.09.77.24.91ZM96.58 60.41c2.86-2.19 5.14-5.05 7.45-7.78 1.24-1.46 2.49-2.92 3.83-4.3 1.26-1.3 2.6-2.52 4.04-3.5.79-.54 1.63-1.01 2.51-1.4.02-.01.16-.07.06-.02.06-.03.12-.05.19-.08.1-.04.21-.08.31-.12.22-.08.44-.15.67-.22.46-.14.93-.25 1.4-.32.36-.06.55-.5.47-.82-.1-.38-.47-.53-.82-.47-3.56.6-6.58 2.88-9.1 5.35-2.72 2.67-5.04 5.71-7.58 8.55-.66.74-1.34 1.47-2.05 2.17-.34.34-.7.67-1.06.99-.17.15-.34.3-.52.45-.08.07-.16.14-.25.2-.04.03-.08.07-.12.1-.02.02-.05.04-.08.06.05-.04.05-.04-.02.01-.28.22-.44.57-.24.91.16.28.63.46.91.24Z"/><path class="cls-10" d="M83.42 45.28c1.19 2.61 2.94 4.93 4.66 7.21.86 1.14 1.72 2.27 2.54 3.45.77 1.11 1.51 2.35 2.84 2.83.17.06.35.09.52.14.12.04.19.07.21.1.14.26.21.64.38.95.4.72 1.38 1.13 2.05.5.62-.59-.32-1.54-.94-.94.06-.06.23-.03.25-.05-.05.06-.09-.06-.03 0a.948.948 0 0 0-.13-.11 1.23 1.23 0 0 1-.11-.27c-.06-.18-.12-.36-.2-.54-.13-.29-.33-.55-.6-.72-.32-.2-.69-.21-1.03-.34-1.01-.41-1.62-1.62-2.23-2.48-1.55-2.21-3.27-4.3-4.78-6.53-.83-1.23-1.61-2.5-2.22-3.86-.15-.33-.63-.41-.91-.24-.34.2-.39.58-.24.91ZM71.7 103.72c4.13 1.23 8.45 1.85 12.73 2.23 4.5.4 9.04.51 13.56.4 2.27-.06 4.55-.17 6.82-.36.36-.03.67-.28.67-.67 0-.34-.31-.7-.67-.67-4.19.34-8.4.45-12.6.37-4.47-.09-8.95-.39-13.37-1.09-2.29-.36-4.56-.84-6.78-1.5-.83-.24-1.18 1.04-.36 1.29Z"/><path class="cls-10" d="M70.98 102.95c-1.17 4.01-3 7.74-4.79 11.5-.52 1.1-1.04 2.2-1.53 3.3-.15.33-.1.72.24.91.28.17.77.09.91-.24 1.73-3.89 3.75-7.66 5.27-11.64.44-1.15.83-2.31 1.18-3.49.24-.83-1.05-1.18-1.29-.36ZM104.19 105.57c.97 4.38 2.88 8.56 5.56 12.17.77 1.04 1.6 2.04 2.49 2.98.59.63 1.53-.32.94-.94a31.065 31.065 0 0 1-6.69-10.99 31.75 31.75 0 0 1-1.02-3.58c-.08-.35-.49-.56-.82-.47-.36.1-.55.47-.47.82ZM106.06 128.81c-5.36.37-10.75.35-16.11 0-5.31-.36-10.6-1.05-15.83-2.03-2.92-.55-5.83-1.19-8.71-1.92-.83-.21-1.19 1.08-.36 1.29 5.2 1.3 10.46 2.34 15.77 3.06 5.34.73 10.71 1.15 16.1 1.21 3.05.03 6.1-.06 9.14-.26.36-.02.67-.29.67-.67 0-.34-.3-.69-.67-.67Z"/><path class="cls-15" d="M78.03 25.8v-.05c.05-.36-.33-.67-.66-.67-.4 0-.63.31-.67.67v.05c-.05.36.33.67.66.67.4 0 .63-.31.67-.67v-.05c.05-.36-.33-.67-.66-.67-.4 0-.63.31-.67.67v.05c-.05.36.33.67.66.67.4 0 .63-.31.67-.67ZM86.84 25.72c.86 0 .86-1.34 0-1.34s-.86 1.34 0 1.34ZM80.68 28.43c-.23.91-.38 1.84-.48 2.77-.08.85-.21 1.84.07 2.67.26.77.87 1.39 1.66 1.61.84.24 1.74-.02 2.37-.61s-.32-1.53-.94-.94c-.34.31-.82.4-1.21.22-.42-.19-.65-.62-.68-1.12-.08-1.41.16-2.88.51-4.25.21-.83-1.08-1.19-1.29-.36Z"/><path d="M83.95 37.3c1.12.19 2.28 0 3.24-.63.29-.19.44-.6.24-.91-.19-.29-.6-.44-.91-.24-.1.07-.2.13-.31.18-.05.02-.09.05-.14.07-.02 0-.04.02-.06.03-.07.03-.06.02.04-.01-.08.06-.25.09-.34.12-.1.03-.2.06-.31.08l-.18.03c-.16.03.16-.02 0 0-.12.01-.24.02-.36.02h-.32c-.06 0-.12-.01-.18-.02h.04c-.03 0-.06 0-.09-.02-.18-.03-.35-.03-.51.07a.69.69 0 0 0-.31.4c-.07.32.1.76.47.82Z" style="fill:#cca88d"/><path class="cls-10" d="M75.04 47.84c-3.28 3.77-5.12 8.55-7.03 13.1-1.81 4.32-3.48 8.7-4.93 13.16-.86 2.65-1.65 5.34-2.38 8.03-.22.83 1.06 1.18 1.29.36 1.25-4.59 2.67-9.13 4.31-13.6.81-2.21 1.68-4.4 2.58-6.57s1.86-4.49 2.89-6.69c1.14-2.43 2.45-4.81 4.21-6.84.24-.27.27-.68 0-.94-.24-.24-.71-.27-.94 0Z"/><path d="M55.78 62.67c-1.43-3.57-2.94-7.11-4.48-10.64-1.66-3.81-3.36-7.59-5.12-11.36-.86-1.85-1.73-3.69-2.63-5.52a.417.417 0 0 0-.13-.16c-.07-.15-.2-.27-.42-.33-2.96-.72-5.93-1.34-8.93-1.85a.596.596 0 0 0-.35 0c-.76.22-1.44.6-2.05 1.11-.11.09-.18.28-.19.43-.02.06-.02.11-.02.17a.73.73 0 0 0 .05.54c1.46 2.99 2.83 6.02 4.21 9.05.4.89.81 1.78 1.21 2.66.15.33.63.41.91.24.07-.04.13-.1.18-.16.97.7 3.97 2.91 4.2 3.31.27.48.94 1.1.76 1.86-.18.76-1.04.72-1.04.72s3.81 2.7 4.03 3.18c.22.48.42.48.24 1-.17.53-1.1.68-1.1.68s.69.8.82 1.08-.08.63-.38 1.03c-.2.26-.92.36-1.39.4-.03-.07-.05-.13-.08-.2-.07-.17-.14-.3-.31-.4a.696.696 0 0 0-.51-.07c-.16.05-.32.15-.4.31-.08.16-.13.35-.07.51.27.66.54 1.33.81 1.99 0 0 0 .02.01.03.07.22.23.41.45.44 3.02.52 6.06.93 9.04 1.66.04.01.08.01.13.02.12.04.24.05.36 0l1.61-.62c.17-.06.3-.15.4-.31.04-.07.07-.17.09-.26.12-.16.17-.36.1-.55Z" style="fill:#ff8000"/><path class="cls-10" d="M44.63 71.43c3.71-.11 7.41-.44 11.09-.96 1.05-.15 2.09-.32 3.14-.51.36-.06.56-.5.47-.82-.1-.37-.47-.53-.82-.47-4.58.81-9.22 1.28-13.87 1.42-.86.02-.86 1.36 0 1.34Z"/><path class="cls-10" d="M58.04 69.45c.25 2.54.26 5.09.03 7.63-.03.36.33.67.67.67.39 0 .63-.31.67-.67.23-2.54.22-5.1-.03-7.63-.04-.36-.28-.67-.67-.67-.33 0-.7.31-.67.67Z"/><path class="cls-10" d="M58.56 77.66c1.09.54 1.64 1.61 1.9 2.78.34 1.55.16 3.16.56 4.7.38 1.5 1.28 2.78 1.79 4.23.51 1.45.67 3.05.75 4.61.05.93.06 1.88.34 2.77.28.89.77 1.78 1.2 2.65.16.32.62.41.91.24.33-.19.4-.59.24-.91-.36-.73-.77-1.46-1.03-2.24-.26-.78-.28-1.59-.32-2.41-.08-1.62-.23-3.27-.73-4.82s-1.42-2.84-1.84-4.37c-.42-1.53-.25-3.17-.57-4.73-.33-1.56-1.13-2.96-2.53-3.65-.32-.16-.72-.09-.91.24-.17.3-.08.75.24.91ZM72.49 53.52v.01l.01-.01h-.01z"/><path class="cls-10" d="M68.03 62.64c-.71 1.71-3.93 10.52-4.54 11.85-.6 1.34-2.14 7.97-2.14 7.97s-.22-2.01-.5-3.06c-.28-1.05-1.64-2.15-1.64-2.15s-.2-1.78-.32-2.49c-.12-.71-.2-5.33-.2-5.46s-3.7.46-5.64.8c-1.56.28-6.08.53-7.78.61a.685.685 0 0 0-.31-.49c-.32-.19-.72-.06-.91.24-.33.51-.44 1.11-.48 1.71-.05.65-.08 1.31-.11 1.96l-.19 3.55-.04.02c-1.48 1.38-2.05 3.48-2.12 5.45-.08 2.35.53 4.66.65 7 .22 4.34-.63 8.68-.24 13.02.19 2.14.7 4.22 1.74 6.11.55.99 1.2 1.91 1.81 2.86.55.84 1.03 1.71 1.52 2.58.94 1.66 1.93 3.41 3.44 4.62.8.64 1.72 1.13 2.65 1.55.97.43 1.97.81 3.02 1.01 1.14.21 2.32.11 3.46-.09 1.63-.29 3.24-.9 4.56-1.91.39-.3.76-.62 1.1-.98.23-.24.22-.54.1-.77.07-.05.11-.09.11-.09s.45-13.84.65-17.01c.21-3.16 2.01-21.89 2.34-24 .32-2.1 4.43-23.4 4.46-23.56-.08.15-3.76 7.42-4.46 9.11Z"/><path class="cls-10" d="M43.97 78.74c3.9.41 7.86.62 11.73-.14 1.09-.21 2.16-.5 3.21-.87.34-.12.57-.46.47-.82-.09-.33-.48-.59-.82-.47-3.63 1.29-7.47 1.48-11.28 1.25-1.1-.07-2.2-.17-3.3-.28-.36-.04-.67.33-.67.67 0 .39.31.63.67.67Z"/><path class="cls-15" d="M57.3 56.87c-.26-1.45-1.26-2.42-2.18-3.49-.42-.49-.72-1.02-.97-1.6-.27-.62-.54-1.23-1.01-1.72-.53-.54-1.22-.83-1.63-1.48-.41-.65-.6-1.34-.8-2.05-.23-.83-1.52-.47-1.29.36.38 1.37.88 2.69 2.07 3.57.25.19.52.35.74.58.2.21.35.48.48.75.28.58.49 1.19.85 1.74.36.54.82 1.02 1.25 1.51.4.45.8.91 1.02 1.48.25.67.28 1.38.26 2.09-.02.79-.08 1.58-.15 2.37-.18 1.8-.47 3.59-.77 5.38-.04.12-.06.26-.03.41.26 1.35.47 2.68.62 4 .04.34.28.69.67.67.33-.02.71-.3.67-.67-.16-1.38-.37-2.76-.63-4.12.27-1.63.54-3.27.72-4.91.1-.83.17-1.66.21-2.5.04-.79.05-1.57-.09-2.35ZM49.6 68.52c-.12-.38-.45-.53-.82-.47-.11.02-.22.04-.33.05-.04 0-.25.05-.06 0-.05.01-.1.01-.14.02-.22.03-.45.04-.67.05h-.33c-.05 0-.09 0-.14-.01h-.05c-.1-.02-.19-.04-.28-.07-.04-.04-.07-.07-.12-.1-.75-.56-1.41-1.23-2.11-1.84-.65-.57-1.3-1.13-1.9-1.75-1.13-1.17-2.12-2.37-2.7-3.9-.15-.41-.28-.82-.37-1.25.16-.21.21-.5.05-.74s-.04-.09-.07-.12v-.03l-.03-.13v-.31c0-.05 0-.11.01-.16v-.06c.03-.18.05-.36.1-.53 0-.01 0-.02.01-.04.02-.03.05-.08.06-.1l.03-.03s.02-.01.02-.02c.75.22 1.56.42 2.34.62.51.13 1.02.27 1.52.4.26.07.52.13.79.17.04.04.08.08.12.11.2.15.41.32.57.52.06.07.11.15.16.23-.03-.04.01.04.04.06v.02l-.02.01s-.01 0-.02.01c-.04.02-.04.02 0 0l-.07.02s-.09.03-.14.04c-.18.04-.42.04-.69.05-1.24.02-2.48-.13-3.69-.43-.83-.21-1.19 1.08-.36 1.29.83.21 1.68.34 2.53.42.78.07 1.6.11 2.37 0 .73-.11 1.41-.62 1.4-1.43 0-.48-.24-.88-.56-1.23.48-.3.81-.79.77-1.4-.07-1-1.02-1.62-1.75-2.16-.6-.45-1.24-.86-1.9-1.24.38-.3.61-.77.56-1.31-.08-.92-.7-1.68-1.34-2.31-.64-.63-1.4-1.21-2.15-1.73s-1.54-1.04-2.38-1.42c-.9-.41-1.97-.74-2.87-.17-.17-.1-.35-.21-.52-.32.1-.12.16-.28.16-.43 0-.17-.06-.35-.2-.47a.693.693 0 0 0-.47-.2h-.52c-.13.02-.25.02-.38.01-.02-.01-.05-.02-.08-.04-.44-.37-.88-.76-1.2-1.22-.18-.26-.38-.58-.41-.83-.01-.06 0-.2 0-.22 0-.02.02-.05.04-.07.05-.07.15-.13.28-.2.04-.02.09-.04.17-.07.02 0 .15-.03.14-.03h.12c.12.02.24.06.35.11.39.15.76.38 1.12.59.12.07.23.13.35.2.05.19.08.39.11.59.02.14.03.29.04.43.01.18.07.34.2.47.12.12.3.2.47.2.17 0 .35-.06.47-.2.12-.13.21-.3.2-.47 0-.07-.01-.14-.02-.21 0 0 .02 0 .02.01.75.42 1.42-.73.67-1.15-.64-.36-1.3-.7-1.93-1.07-.88-.52-1.86-1.09-2.89-.67-.5.2-.95.54-1.14 1.06-.17.45-.11.96.06 1.4.37.95 1.12 1.7 1.89 2.34.68.57 1.39 1.09 2.14 1.56l-.03.16c-.07.56-.1 1.11.03 1.66 0 .02.01.03.02.05.08.42.24.81.53 1.16.47.55 1.16.9 1.82 1.18.26.11.52.21.77.32-.73.43-1.14 1.18-1.27 2.01-.07.45.04.93.26 1.33.28.51.78.78 1.27 1.06.09.05.18.08.26.09.19.1.39.19.58.28-.03.05-.05.1-.08.16-.09.23-.12.48-.16.73 0 .03 0 .06-.01.09v.02c-.19.95-.03 1.94.26 2.85.27.87.65 1.73 1.15 2.49.95 1.48 2.27 2.8 3.61 3.93.79.67 1.53 1.4 2.34 2.06.02.05.04.09.06.13l-.05 2.6c0 .35.31.68.67.67.36-.02.66-.29.67-.67l.04-2.09c.18.02.36.04.55.04.54 0 1.07-.09 1.6-.17.16-.02.32-.18.4-.31.08-.14.12-.35.07-.51ZM35.97 49.51c-.23-.21-.33-.34-.39-.6-.06-.26-.07-.62-.07-.93 0-.04 0-.08-.01-.11 0-.07.01-.15.02-.22 0 .04.03-.25.02-.19v-.05c.04-.04.07-.08.1-.12l.09-.06c.14-.08.38-.12.61-.08.34.07.67.19.99.34 1.33.65 2.59 1.53 3.7 2.5.48.42 1.02.9 1.29 1.49.03.07.09.27.09.3v.16c0-.08-.06.09-.01.03-.04.06-.05.07-.09.08-.15.04-.24.05-.41.01-.33-.06-.64-.22-.95-.34l-1.23-.49c-.75-.3-1.5-.6-2.25-.89-.48-.19-1.13-.47-1.53-.82Zm1.92 5.17a.41.41 0 0 0-.17-.07c-.04-.02-.08-.05-.12-.07.02 0-.12-.25-.05-.1-.05-.12-.06-.13-.06-.11v-.02c-.02-.05-.03-.1-.04-.15 0 0-.01-.07-.02-.12v-.11c.07-.28.1-.45.21-.64.03-.05.05-.09.08-.13l.08-.09c.13-.13.12-.12.28-.21.57-.33 1.27-.06 1.85.15.71.25 1.39.55 2.06.9s1.3.73 1.92 1.16c.27.19.54.39.8.6s.61.44.76.74c.04.09.05.12.04.2.02-.09-.08.07-.02 0-.16.17.1-.06-.08.1-.07.06-.15.1-.24.12-.16.04-.32.04-.48.02-.36-.04-.72-.15-1.07-.24l-1.32-.35c-.79-.21-1.59-.4-2.38-.64-.74-.22-1.36-.53-2.03-.93Z"/><path class="cls-10" d="m151.68 91.33-5.07.21c-1.36.06-2.81.06-4.09.58-.65.26-1.32.64-1.74 1.22-.55.77-.12 1.63.56 2.13 1.2.9 2.83 1.08 4.25 1.39l5.55 1.21c.35.08.72-.1.82-.47.09-.33-.11-.75-.47-.82l-4.47-.97-2.21-.48c-.65-.14-1.3-.27-1.92-.51-.26-.1-.51-.23-.74-.39-.1-.07-.18-.15-.26-.24-.03-.03-.04-.12-.05-.03.01-.13.31-.32.42-.4.22-.16.49-.3.73-.39 1.12-.43 2.33-.43 3.51-.48l5.18-.22c.36-.02.67-.3.67-.67 0-.35-.3-.68-.67-.67Z"/><path class="cls-10" d="M142.2 94.87a1.67 1.67 0 0 0-2.15.7c-.47.81-.17 1.79.39 2.46s1.36.96 2.11 1.3c.88.4 1.77.8 2.65 1.19.33.15.72.1.91-.24.17-.28.09-.77-.24-.91l-2.1-.95c-.61-.28-1.26-.52-1.84-.87-.22-.13-.43-.29-.57-.49s-.21-.4-.22-.61c0-.11 0-.02.02-.13s-.01.02.02-.05c.02-.03.03-.06.05-.08-.03.04-.04.04 0 0s.07-.08.12-.11c-.09.07.07-.03.08-.04-.1.05.06-.01.08-.02-.11.03.01 0 .07 0-.13 0 .07.04-.04-.01.33.15.72.09.91-.24.17-.28.09-.76-.24-.91Z"/><path class="cls-10" d="M140.14 96.29c-1.56 1.11-3.2 2.08-4.84 3.06-.83.5-1.66 1-2.48 1.53s-1.61 1.1-2.43 1.64c-1.44.95-2.95 1.8-4.35 2.8-1.38.98-2.82 2.14-3.72 3.61-.44.72-.69 1.58-.85 2.41-.16.87-.24 1.76-.09 2.63.06.36.5.55.82.47.38-.1.53-.47.47-.82 0-.02-.02-.13 0 0 0-.03 0-.06-.01-.09 0-.08-.01-.15-.02-.23v-.53c.01-.36.05-.67.1-.99.07-.38.16-.76.27-1.13s.18-.55.34-.85c.34-.65.89-1.21 1.41-1.72.57-.56 1.19-1.06 1.84-1.53 1.37-.98 2.83-1.82 4.24-2.73.78-.5 1.53-1.05 2.3-1.56s1.6-1.02 2.42-1.51c1.77-1.06 3.56-2.1 5.25-3.3.29-.21.43-.58.24-.91-.17-.29-.62-.45-.91-.24Z"/><path class="cls-10" d="M166.65 94.71v-.02c-.24-3.7-2.28-6.85-4.17-9.91-2.04-3.29-4.19-6.51-6.47-9.64-2.29-3.15-4.69-6.22-7.2-9.2a158.7 158.7 0 0 0-7.81-8.59 161.453 161.453 0 0 0-9.49-8.92c-.02-.01-.03-.02-.05-.04l-.03-.03c-.71-.61-1.43-1.21-2.22-1.71-.93-.59-1.92-1.07-2.91-1.52-.67-.31-1.36-.59-2.05-.86.53-.36 1-.81 1.42-1.29.77-.88 2.01-2.23.93-3.32-.2-.2-.45-.34-.68-.48-.17-.11-.32-.24-.41-.38-.13-.22-.18-.32-.25-.56-.07-.24-.14-.51-.19-.77-.11-.52-.21-1.03-.41-1.52-.24-.6-.57-1.14-.97-1.65-1.47-1.88-3.69-3.22-6.01-3.75-1.28-.29-2.63-.28-3.86-.76-.58-.22-1.11-.54-1.68-.79a13.761 13.761 0 0 0-6.18-1.21c-1.57.06-3.11.42-4.63.8-.83.2-.48 1.49.36 1.29 1.23-.3 2.47-.62 3.73-.72 1.17-.09 2.35-.03 3.5.2 1.15.24 2.29.66 3.37 1.19.57.28 1.14.56 1.76.73.57.15 1.16.24 1.74.31.7.43 1.36.87 1.79 1.17-.16.25-.17.65.08.85l1.74 1.38c.21.17.45.33.61.55.04.05.08.12.1.16.02.05.04-.02.02.05 0 0-.01.04-.03.05.05-.02 0 0-.04.02.08-.06-.12.06-.11.06-.07.04-.09.05-.19.08-.31.11-.64.19-.96.28-.7.2-1.39.44-2.1.6-.61.14-1.19-.02-1.78-.16-.6-.14-1.24-.25-1.87-.31-1.19-.11-2.4-.02-3.56.24-1.32.3-2.59.87-3.69 1.66-.29.21-.43.58-.24.91.03.05.07.1.12.14-.31.22-.57.43-.77.6-1.23 1.07-3.36 4.42-5.05 6.02-1.35 1.28-2.81 5.33-3.34 6.91-.03 0-.05-.02-.08-.02 0-.02 0-.04-.02-.07-.06-.24-.13-.47-.22-.7-.16-.43-.35-.86-.57-1.26-.44-.81-.97-1.56-1.51-2.3-1-1.38-2.06-2.72-3.24-3.96-.69-.72-1.4-1.41-2.15-2.08a.837.837 0 0 0-.24-.14c.04-.39.1-.69.1-.69l-2.94.5-.3.5a.531.531 0 0 0-.27-.06c-.18 0-.35.07-.47.2-.47.49-.88 1.05-1.2 1.66a.95.95 0 0 0-.09.34c-1.36.32-2.73.65-4.06 1.08-1.33.43-2.69.94-3.84 1.74-2.47 1.71-3.37 4.87-4 7.65-1.19 5.23-2.25 10.5-3.18 15.78-.86 4.89-1.58 9.81-2.13 14.75-.58 5.24-.97 10.5-1.24 15.77-.32 6.32-.46 12.66-.52 18.99 0 .91-.02 1.82-.02 2.72 0 .45.36.66.72.64.06 1.35.19 2.34.43 3.41.33 1.51 3.24 5.96 3.24 5.96l3.66 1.47c-.15.16-.2.4-.16.63l1.14 5.2c.04.18.16.32.32.4.04.04.08.08.14.1.89.45 1.83.72 2.8.92.97.2 2.03.38 3.05.53 2.08.32 4.17.56 6.27.75 4.17.36 8.36.5 12.55.61 1.16.03 2.33.05 3.49.11 1.16.06 2.41.14 3.61.17.65.02.81-.74.47-1.12 4.07-.13 8.25-.28 8.25-.28l9.55-.62c0 .34.34.62.67.62.39 0 .63-.31.67-.67l.4-4.19c1.61-.14 3.23-.3 4.84-.48.02 0 .04 0 .06-.01a.8.8 0 0 0 .41-.18c1.4-1.29 2.48-2.85 3.32-4.55.66-1.35 1.14-2.74 1.4-4.22.14-.82.24-1.65.34-2.48.95-.23 1.86-.59 2.74-1.02 1.32-.65 2.54-1.48 3.73-2.36 1.33-.98 2.65-1.97 4.02-2.91 3.14-2.15 6.4-4.12 9.42-6.44 2.83-2.17 5.4-4.61 7.38-7.59 1.99-2.98 3.26-6.21 3.4-9.69.02-.42.01-.84 0-1.26Z"/><path class="cls-10" d="M115.45 117.56c2.15-1.26 4.42-2.31 6.77-3.14.34-.12.57-.46.47-.82-.09-.33-.48-.59-.82-.47-2.46.87-4.83 1.96-7.09 3.28-.74.43-.07 1.59.67 1.15ZM128.93 124.01c-.69.6-1.52 1.02-2.34 1.41-.94.45-1.89.88-2.84 1.32-.33.15-.41.62-.24.91.2.34.59.39.91.24.97-.45 1.95-.9 2.92-1.36.9-.43 1.77-.91 2.53-1.58.27-.24.24-.7 0-.94-.27-.27-.67-.24-.94 0Z"/><path class="cls-11" d="M101.31 16.86c-.18-.99-.41-1.92-.61-2.88-.07-.35-.49-.56-.82-.47-.37.1-.54.47-.47.82.01.06.03.12.04.17l-.57.07s-1.38-.01-1.87 0c-.49.01-1.09.23-1.61.44-.52.22-1.58-.55-1.72-.43-.08.07-.65.38-1.13.64-.11-.07-.22-.15-.33-.22-.74-.44-1.41.71-.67 1.15 2.74 1.63 3.51 4.98 3.53 7.95 0 .19.07.33.17.43.09.13.22.25.37.28.48.09.95.23 1.4.42h.02c.15.07.29.1.45.08.29-.01.57-.18.64-.48.06-.26.12-.53.21-.79.04-.11.08-.22.12-.34.02-.06.05-.13.07-.19 0-.02.01-.03.02-.05 0 0 0-.01.01-.03.22-.48.47-.94.78-1.37.17-.24.1-.61-.11-.81.05-.04.09-.08.12-.12.19-.16.7-.58 1.09-.9.35.4 1.19.27 1.18-.42-.02-1.01-.11-2-.29-2.99ZM102.34 30.95c-.15-.82-.32-1.64-.45-2.46-.02-.16-.18-.32-.31-.4a.696.696 0 0 0-.51-.07c-.14.05-.28.13-.36.25a.757.757 0 0 0-.3 0c-.32.1-.59.47-.47.82.14.37.26.77.47 1.12.21.35.43.69.64 1.04v.04c.06.34.5.57.82.47.37-.12.54-.45.47-.82Z"/><path class="cls-2" d="M93.95 13.01c-.05.07-.1.15-.15.22-.02.04-.05.07-.08.11-.06.08.1-.12 0 .01s-.22.27-.34.4-.24.24-.36.34l-.2.17c-.02.02-.13.1 0 0-.04.03-.07.05-.1.08-.28.2-.57.38-.88.53-.08.04-.16.07-.24.11.05-.02.08-.03.01 0l-.15.06c-.16.06-.33.11-.5.16l.82.82.24-.97c.08-.34-.11-.74-.47-.82s-.73.1-.82.47l-.24.97c-.12.49.32.96.82.82a6.69 6.69 0 0 0 3.8-2.79c.19-.29.07-.75-.24-.91a.677.677 0 0 0-.91.24Z"/><path class="cls-2" d="M100.7 13.84c-.17-1.15-.52-2.29-.94-3.38-.2-.53-.39-1.11-.73-1.57-.38-.52-.93-.82-1.55-.91-.56-1.16-1.96-1.76-3.06-2.3-.72-.36-1.46-.73-2.22-.99-.67-.23-1.34-.15-1.94.18-1.1-1.11-2.66-1.69-4.19-1.89-1.62-.21-3.4.06-4.82.87-.62.35-1.09.88-1.25 1.53-1.21-.17-2.46.05-3.52.67-1.13.65-1.98 1.74-2.41 2.97-.09.27-.16.54-.2.82-.01.08-.02.22-.06.28-.07.1-.26.17-.36.24-.57.41-1.05.88-1.47 1.44-.8 1.07-1.34 2.48-1.13 3.83.12.77.55 1.45 1.22 1.87.32.2.69.32 1.07.34.19.01.38 0 .56-.05h.02c.07.06.16.12.26.14.05.01.09.02.14.02.03.02.06.03.09.05.71.33 1.49.49 2.28.43.83-.06 1.64-.3 2.37-.71-.03.06-.06.13-.08.2-.14.6.41 1.03.97 1 .42-.03.85-.14 1.25-.26a7.876 7.876 0 0 0 3.65-2.36c.79.73 1.85 1.01 2.96.8.67-.12 1.31-.43 1.91-.75.65-.35 1.28-.73 1.92-1.09.01 0 .02-.02.03-.02.11.2.05.49.05.49s.74-.22 1.34-.62c.16.11.37.16.57.12.07-.02.14-.03.22-.04.09-.02.03 0 .09-.01.12-.01.25-.02.38-.01.02 0 .12.02.17.04.09.05.03.02.09.1.27.38.67.56 1.13.41.34-.11.68-.28 1.01-.42.16-.07.32-.14.49-.2.23.25.62.31.94.27.76-.1 1.52-.35 2.26-.53.37-.09.51-.39.47-.69.01-.09.01-.18 0-.27Z"/><path class="cls-15" d="M99.49 22.37c.24-.65.83-1.45 1.54-1.61.1-.02.18-.04.25.03.14.14.23.31.32.48.2.37.33.77.41 1.19.18.86.14 1.77.05 2.64s-.21 1.85-.74 2.58c-.22.3-.56.58-.87.6a.684.684 0 0 1-.36-.07c-.17-.08-.22-.15-.32-.35-.16-.32-.62-.41-.91-.24-.33.19-.4.59-.24.91.57 1.15 2.08 1.36 3.07.64 1.05-.77 1.43-2.03 1.61-3.26.18-1.23.26-2.49.02-3.72-.21-1.07-.8-2.71-2.09-2.77-.72-.04-1.4.39-1.9.87s-.87 1.09-1.12 1.74c-.13.34.14.73.47.82.37.1.69-.13.82-.47ZM90.44 40.68c-.2-.34-.58-.39-.91-.24-.58.26-1.18.5-1.78.71-.57.2-1.16.4-1.76.47-.49.05-1.01.03-1.43-.16-.47-.22-.84-.56-1.21-.93a.55.55 0 0 0-.09-.07c-2.15-2.06-3.74-4.6-4.9-7.33-1.24-2.92-2.05-6.23-2.66-9.44-.39-2.05-.71-4.09-.56-6.18.03-.36-.33-.67-.67-.67-.38 0-.64.31-.67.67-.15 1.98.13 3.91.48 5.85.3 1.64.63 3.28 1.05 4.89.84 3.23 2 6.42 3.8 9.25a20.87 20.87 0 0 0 3.63 4.32c.02.02.04.03.06.04.32.29.67.55 1.05.74.63.3 1.3.41 2 .36.72-.06 1.44-.24 2.14-.47.08.55.16 1.09.25 1.63.03.16.18.32.31.4.14.08.35.12.51.07.16-.05.32-.15.4-.31.09-.17.1-.33.07-.51-.1-.59-.19-1.18-.27-1.77.31-.13.61-.27.91-.4.33-.15.41-.63.24-.91Z"/></g><path class="cls-13" d="M64.16 72.84c1.36-.05 2.68-.57 3.75-1.52.11-.1.23-.18.34-.27v-.03c.81-4.61 1.73-9.2 2.74-13.77l-.4.06c-1.04 2.1-2.2 4.45-2.56 5.33-.56 1.36-2.71 7.18-3.87 10.2ZM122.36 57.4c-1.94 1.57-3.48 3.38-4.97 5.14-1.4 1.65-2.71 3.2-4.26 4.43-2.95 2.35-6.29 3.82-9.41 4.15-4.88.51-8-2.31-11.94-5.89-2.01-1.83-4.09-3.72-6.56-5.21-4.12-2.5-8.84-3.43-13.43-2.88-.67 3.49-1.7 8.87-2.52 13.19 2.01-1.23 4.43-1.71 6.75-1.28 2.84.53 5.21 2.73 7.5 4.86 5.19 4.82 11.07 9.19 18.99 9.19.87 0 1.76-.05 2.68-.16 7.6-.91 14.87-5.05 20.47-11.65l.57-.67c2.26-2.69 4.22-5.01 7.18-5.53 3.6-.64 7.43.81 10 2.13 2.21 1.14 4.45.77 6.13-.39l-.74-.89a158.7 158.7 0 0 0-7.81-8.59c-1.41-1.44-2.85-2.85-4.31-4.23-5.41-.32-10.38 1.1-14.32 4.28ZM59.48 94.54c1.97.05 3.91.26 5.8.64.23-3.14.5-6.28.85-9.41.09-.84.2-1.68.3-2.52-1.9-.33-3.86-.54-5.86-.63-6.63-.3-13.21.87-19.3 3.37.17 1.4.42 2.79.49 4.19.15 2.97-.19 5.93-.3 8.9 5.26-3.1 11.52-4.7 18.03-4.54Z"/><path class="cls-13" d="m156 75.14-.42-.57c-4.11-.96-8.49-1.16-12.93-.5-10.68 1.57-18.64 7.61-26.34 13.45l-1.65 1.25c-7.3 5.51-18.37 9.37-27.51 3.72-.74-.46-1.48-.92-2.21-1.39-3.28-2.08-6.68-4.23-10.63-5.72a41.82 41.82 0 0 0-6.96-1.95c-.37 3.71-.82 8.32-1.15 11.96 1.63.37 3.22.86 4.77 1.48 2.49.99 4.76 2.48 7.17 4.04 1.37.89 2.78 1.81 4.26 2.66 4.3 2.45 9.28 3.68 14.54 3.68 5.05 0 10.36-1.13 15.62-3.39 4.87-2.09 8.94-5.25 12.88-8.3 3.65-2.83 7.09-5.5 11.06-7.31 11.76-5.38 21.21-1.59 25.74 3.28 1.18 1.26 2.71 1.89 4.25 1.87-.57-3.14-2.34-5.91-4.01-8.61-2.04-3.29-4.19-6.51-6.47-9.64ZM64.39 119.38c.04-3.58.11-7.15.23-10.72-6.96-1.1-14.15-.65-20.96 1.34.45.74.94 1.45 1.42 2.18.55.84 1.03 1.71 1.52 2.58.94 1.66 1.93 3.41 3.44 4.62.52.42 1.09.76 1.68 1.07 3.73-.56 7.48-.55 11.17.04.29-.17.57-.36.84-.56.23-.17.44-.36.65-.55Z"/><path class="cls-13" d="M141.12 102.85c-8.16.07-16.92 2.65-24.67 7.28-3.46 2.07-6.98 4.59-11.06 7.93l-.7.58c-3.76 3.09-5.88 4.67-9.39 3.91-3.25-.71-6.18-2.71-9.28-4.83-.61-.41-1.21-.83-1.81-1.23-4.12-2.74-8.16-4.73-12.35-6.1-2.13-.69-4.3-1.22-6.5-1.6-.17 4.57-.32 9.31-.32 9.31s-.04.03-.11.09c.12.23.13.52-.1.77-.14.15-.29.29-.45.43 0 .39-.01.77-.02 1.16v.23c.93.19 1.85.41 2.76.68 4.13 1.19 7.7 3.48 11.48 5.9 3.41 2.19 6.93 4.45 11 5.95 2.59.95 5.21 1.43 7.74 1.43 2.16 0 4.25-.35 6.17-1.05 3.44-1.26 6.07-3.51 8.62-5.68.69-.59 1.35-1.15 2.01-1.69 7.69-6.17 14.43-9.7 21.21-11.1 5.48-1.13 10.91-.49 15.38 1.63 1.74-1.15 3.47-2.32 5.13-3.59 1.75-1.34 3.4-2.79 4.88-4.41-5.38-3.93-11.95-5.99-19.31-5.99h-.32Z"/></g><g id="Outline"><path class="cls-4" d="M125.47 43.45c.01-.16-.78-.36-2.26-.5-1.47-.09-3.64-.07-6.26.46-2.61.52-5.67 1.57-8.75 3.34-.39.21-.77.45-1.15.7-.38.25-.77.49-1.15.76-.74.57-1.52 1.11-2.24 1.77-1.48 1.25-2.86 2.73-4.11 4.37-.3.42-.62.82-.91 1.24l-.81 1.29c-.52.85-.94 1.61-1.45 2.25-.5.63-1.06 1.1-1.53 1.21-.47.12-.93-.01-1.41-.44-.49-.43-.94-1.08-1.42-1.75l-1.39-1.91c-.91-1.23-1.75-2.37-2.52-3.41-3.12-4.15-5.18-6.62-5.45-6.43-.27.19 1.3 3 4.06 7.39.7 1.09 1.46 2.29 2.28 3.57.42.64.85 1.3 1.29 1.98.44.66.9 1.44 1.67 2.18.39.36.88.72 1.49.93.6.21 1.28.26 1.92.11.64-.14 1.2-.45 1.66-.8.46-.35.84-.75 1.18-1.16.67-.8 1.18-1.72 1.67-2.5l.75-1.17c.26-.38.56-.75.83-1.14 1.15-1.5 2.4-2.88 3.75-4.05.65-.62 1.37-1.13 2.03-1.68.35-.26.7-.49 1.05-.74.35-.24.69-.49 1.05-.69 2.81-1.75 5.6-2.89 8.02-3.58 4.86-1.38 8.11-1.2 8.12-1.6ZM137.59 96.21c.05.14.39.18.98.12l.63-.06-.49-.66c-1.19-1.61-4.67-5.09-8.51-9.37-5.01-5.5-8.76-10.28-9.33-9.9-.54.34 2.41 5.85 7.55 11.51 3.95 4.39 7.96 7.48 9.73 8.41l.14-.73c-.51.31-.76.54-.71.69ZM71.01 102.98c-.63-.19-2.63 4.48-4.46 10.43-1.83 5.95-2.8 10.94-2.17 11.13.63.19 2.63-4.48 4.46-10.43s2.8-10.94 2.17-11.13Z"/><path class="cls-4" d="M102.55 105.99c-.1-.34-1.89-.1-4.74.06l-1.12.06c-.39 0-.8.02-1.22.03-.84.04-1.74 0-2.68 0a78.2 78.2 0 0 1-6.12-.41c-8.69-.92-15.43-3.43-15.7-2.78-.12.29 1.42 1.31 4.18 2.42 1.37.57 3.06 1.1 4.96 1.6 1.91.47 4.04.88 6.29 1.14 2.26.25 4.43.3 6.41.23.99-.06 1.92-.1 2.79-.23.44-.06.86-.1 1.26-.17.4-.08.79-.15 1.15-.22 2.93-.61 4.61-1.44 4.52-1.73ZM72.27 50.96c-.29-.08-1.76 3.96-3.48 10.68-.43 1.68-.88 3.53-1.3 5.52-.45 1.99-.85 4.13-1.28 6.39-.81 4.52-1.55 9.51-2.11 14.78-.54 5.27-.85 10.31-1 14.89-.05 2.29-.1 4.47-.07 6.51 0 2.04.05 3.94.12 5.67.28 6.93.88 11.18 1.18 11.17.35-.02.36-4.3.51-11.18.04-1.72.08-3.6.17-5.63.06-2.02.18-4.18.29-6.45.27-4.54.64-9.52 1.18-14.74.56-5.21 1.23-10.17 1.91-14.66.36-2.24.69-4.38 1.05-6.37.33-2 .69-3.85 1-5.54 1.28-6.77 2.17-10.95 1.82-11.04ZM137.85 96.22c-.09-.29-1.93-.06-4.66 1.11-2.72 1.15-6.29 3.33-9.45 6.61a32.36 32.36 0 0 0-3.93 5.02c-1.03 1.6-1.92 2.98-2.82 3.97-.89 1-1.74 1.62-2.41 1.97-.33.17-.6.31-.8.4-.19.11-.29.2-.29.28 0 .08.12.15.35.19.23.06.57.06 1.01 0 .88-.11 2.11-.64 3.3-1.64 1.2-.99 2.32-2.41 3.45-3.94 1.12-1.53 2.36-3.08 3.84-4.61 2.95-3.06 6.12-5.3 8.51-6.77 2.39-1.49 4-2.27 3.88-2.61Z"/><g id="Layer_6"><path class="cls-12" d="M119.75 139.94c0 .35-.02.7-.07 1.05l.02-.18c-.06.44-.16.87-.29 1.29-.1.33.12.74.47.82.36.08.71-.11.82-.47.25-.81.38-1.67.38-2.51 0-.35-.31-.68-.67-.67s-.67.29-.67.67Z"/><path class="cls-10" d="M114.6 117.3c1.96 3 4.02 5.96 6.58 8.49.72.71 1.47 1.38 2.27 2 .28.22.67.28.94 0 .23-.23.28-.72 0-.94-2.75-2.16-4.98-4.87-6.97-7.73-.57-.82-1.12-1.65-1.66-2.48-.2-.3-.59-.43-.91-.24-.3.18-.44.61-.24.91Z"/><path class="cls-3" d="M116.16 118.44s-3.58 1.77-4.86 3.24c-1.28 1.47-3.85 5.39-4.66 6.94-.81 1.55-2.22 4.66-2.75 5.91-.53 1.25.09 2.04.9 2.04s1.77.05 2.42.92c.65.87 1.43 1.88 2.37 1.61.94-.27 1.98-.99 2.86-.47s1.7 1.96 2.73 1.87 1.36-1.22 2.49-.95 2.17.27 2.75.39.8-1.03.78-1.85c-.02-.82-.41-2.66-.02-3.69.39-1.03.83-3.08.69-3.97s-.27-2.86-.27-2.86l1.28-1.11s-4.42-4.12-5.27-5.44c-.85-1.32-1.46-2.58-1.46-2.58Z"/><path class="cls-12" d="M97.82 147.38zM133.5 143.98c-3.02-.96-6.08-1.82-9.17-2.52-.07-.02-.14-.04-.21-.03l-13.92 1.08-9.25.72c.36-2.96 1.35-5.84 2.86-8.4.47-.81 1-1.58 1.57-2.32.22-.28.04-.75-.24-.91-.34-.2-.69-.05-.91.24a23.131 23.131 0 0 0-4.24 9.14c-.17.78-.29 1.57-.38 2.36l-2.73.21c-2.67.21-5.35.41-8.02.62-.36.03-.67.29-.67.67 0 .34.31.7.67.67.86-.07 1.72-.13 2.58-.2l6.4 2.08 25.63-1.99 8.07-.62c.54.16 1.08.33 1.62.5.34.11.73-.13.82-.47.1-.36-.12-.71-.47-.82Z"/><path d="M98.19 146.65c-.75-.26-1.53-.44-2.3-.64l-2.29-.6-4.64-1.21c-.06-.02-.12-.02-.18-.02-.32-.06-.71.14-.77.48-1.05 5.65-2.03 11.31-2.9 16.99-.88 5.67-1.67 11.35-2.37 17.04-.39 3.2-.76 6.4-1.1 9.6-.03.32.26.6.56.66 3.66 2.42 7.46 4.63 11.31 6.73 1.11.6 2.22 1.2 3.33 1.79.32.17.73.08.91-.24.18-.3.08-.74-.24-.91-.04-.02-.09-.05-.13-.07-.11-3.18-.57-16.71-.47-19.97.1-3.38.79-24.65.91-28.35h.03c.34.12.73-.13.82-.47.1-.37-.12-.7-.47-.82Z" style="fill:#e5a355"/><path d="M139.43 193.72c-.21-6.48-.58-12.96-1.16-19.42a284.733 284.733 0 0 0-4.28-29.8s0-.04-.01-.06a.549.549 0 0 0-.24-.35.571.571 0 0 0-.41-.14H133.27c-3.39.26-6.79.53-10.18.79a84.4 84.4 0 0 0-.49-5.02c-.11-.86-.25-1.71-.35-2.57s-.2-1.62-.42-2.42-1.51-.48-1.29.36c.19.71.29 1.42.38 2.15.1.86.24 1.72.35 2.58.21 1.67.37 3.34.48 5.01l-2.38.18-13.5 1.05-2.32.18c-.26-3.74-.49-7.62.74-11.22.34-1.01.82-1.97 1.41-2.87.2-.3.06-.74-.24-.91-.32-.19-.72-.06-.91.24-2.27 3.47-2.63 7.69-2.49 11.74.04 1.04.1 2.08.17 3.12-1.46.11-2.93.23-4.39.34-.07 0-.14.02-.2.04-.05.02-.1.04-.15.07 0 0-.02 0-.03.02-.18.12-.29.31-.29.55-.37 6.44-.63 12.88-.78 19.32-.15 6.44-.19 12.88-.11 19.32.04 3.63.12 7.26.24 10.89.01.4.31.61.62.65.09.04.18.07.28.06 5.34-.41 10.68-.83 16.02-1.24l16.6-1.29c2.91-.22 5.83-.45 8.74-.68.08 0 .17-.03.24-.06.25-.08.45-.28.43-.62Z" style="fill:#fbae5e"/><path class="cls-15" d="M124.74 125.55c-.2-.3-.59-.43-.91-.24-.88.53-1.73 1.09-2.55 1.69-.12.08-.21.18-.27.3-.17.16-.24.42-.2.67l.28 1.74c.09.55.19 1.1.19 1.66 0 1.05-.46 2.01-.7 3-.13.55-.19 1.11-.16 1.68s.11 1.12.12 1.68c0 .44-.02.77-.18 1.19-.08.2-.2.39-.37.55h-.06c-.25.02-.45-.05-.69-.16-.31-.14-.62-.3-.95-.37s-.69-.07-1.02.05c-.35.13-.66.39-.93.59-.21.16-.4.29-.66.27-.31-.02-.6-.17-.86-.34-.59-.38-1.06-.94-1.69-1.28-.7-.38-1.44-.43-2.2-.21-.57.16-1.19.5-1.74.46-.08 0-.16-.03-.26-.06-.02-.01-.09-.04-.1-.05-.05-.03-.1-.06-.14-.09-.04-.04-.08-.07-.12-.11-.1-.1-.2-.2-.28-.31 0 0-.05-.06-.07-.09l-.09-.12c-.06-.08-.12-.17-.18-.26-.18-.25-.35-.5-.55-.73-.32-.39-.73-.73-1.22-.89-.3-.09-.61-.1-.91-.07-.16.02-.33.05-.49.06.02 0-.22 0-.17.01-.03 0-.19-.08-.11-.03-.02-.01-.03-.02-.03-.02s0-.02-.01-.05c.05.1 0-.02-.01-.05 0-.02-.01-.07-.02-.09v-.18c0-.22.1-.52.19-.81.26-.77.58-1.51.93-2.24a95.5 95.5 0 0 1 2.2-4.27c.76-1.41 1.58-2.8 2.54-4.08 1.84-2.47 4.37-4.59 7.46-5.21.35-.07.56-.49.47-.82-.1-.37-.47-.54-.82-.47-2.95.58-5.51 2.47-7.41 4.74-2.15 2.57-3.68 5.61-5.18 8.59-.4.79-.78 1.6-1.11 2.43-.28.7-.61 1.44-.61 2.21s.4 1.46 1.17 1.64c.39.09.76 0 1.15-.04H105.7s.01 0 .03.01l.1.03s.12.05.14.07l.09.06c.02.01.07.06.08.07.08.08.16.16.24.25.03.03.06.07.09.11-.02-.02.07.08.07.09.09.12.17.24.25.36.3.43.6.87 1.01 1.2.58.47 1.24.63 1.98.51.64-.11 1.31-.49 1.9-.55.69-.07 1.24.45 1.75.89.7.59 1.55 1.17 2.52 1.06.46-.05.83-.26 1.19-.53.16-.12.26-.21.44-.32.13-.08.2-.1.31-.09h.05c.01 0 .03 0 .06.02.1.03.2.06.29.1.08.03.29.13.42.19.37.16.74.3 1.14.28.17.09.38.1.6-.03.69-.4 1.12-1.11 1.3-1.88.2-.88.06-1.75 0-2.63-.03-.42-.04-.84.04-1.25.08-.43.22-.85.35-1.28.28-.9.51-1.8.45-2.75-.07-1-.27-2-.44-2.99.76-.54 1.54-1.06 2.34-1.53.3-.18.44-.61.24-.91Zm-16.06 12.7c-.08-.05-.03-.02 0 0Z"/></g><path class="cls-1" d="M112.2 180.58c-.08-.44-.43-.77-.85-.85l-3.17-.36a1.075 1.075 0 0 1-.82-1.45c.18-.62 5.33-11.97 15.67-19.51.43-.33.94-.55 1.52-.59.58-.04 1.12.09 1.59.35 2.46 1.27 4.71 2.75 6.72 4.31s.02 0 .03 0c.02 0 .04-.02.04-.04l-.08-1.09a.67.67 0 0 1 .61-.72h.08l3.18.14c-.26-1.85-.53-3.7-.82-5.55-.57-3.58-1.21-7.16-1.91-10.72s0-.04-.01-.06a.549.549 0 0 0-.24-.35.571.571 0 0 0-.41-.14H133.27c-4.63.36-9.26.72-13.89 1.07l-13.5 1.05c-2.68.21-5.36.41-8.04.62-.07 0-.14.02-.2.04-.05.02-.1.04-.15.07 0 0-.02 0-.03.02-.18.12-.29.31-.29.55-.37 6.44-.63 12.88-.78 19.32-.15 6.44-.19 12.88-.11 19.32.04 3.63.12 7.26.24 10.89.01.4.31.61.62.65.09.04.18.07.28.06 5.34-.41 10.68-.83 16.02-1.24.43-.03.86-.07 1.3-.1-.99-3.56-2.44-15.15-2.51-15.68Z"/><path class="cls-1" d="M123.87 189.66c0-.2.09-.39.24-.51.84-.68 1.34-1.74 1.25-2.9v-.14c-.48-4.21-.92-9.02-.99-12.84v-.05a.63.63 0 0 0-.69-.57c-.33.03-.58.31-.57.64.04 2.62.26 5.7.55 8.75.04.41-.26.77-.67.81a.741.741 0 0 1-.81-.67c-.29-3.02-.51-6.09-.55-8.69v-.05a.63.63 0 0 0-.69-.57c-.33.03-.58.31-.57.64.04 2.63.26 5.73.56 8.79.04.41-.26.77-.67.81a.741.741 0 0 1-.81-.67c-.29-3.04-.51-6.12-.56-8.74v-.05a.63.63 0 0 0-.69-.57c-.33.03-.58.31-.57.64.06 3.93.53 8.92 1.03 13.24.15 1.15.87 2.11 1.85 2.6.19.1.33.28.36.51 0 .07.02.15.03.21.27 2.15.56 4.21.74 5.46l3.14-.24c-.09-.5-.22-1.19-.37-2.05-.53-3.12-.5-3.77-.5-3.77ZM133.87 171.59c-.04-.21-.08-.3-.08-.3a.653.653 0 0 0-.65-.37c-.14.01-.28.07-.38.16 0 0-.08.06-.19.19 0 0-3.81 4.55-3.72 17.17 0 0 0 .18.05.33.09.25.31.45.66.48l2.18.13c.19.02.35.15.36.34 0 0 .06 1.86-.04 5.2l3.16-.24c-.02-1.28-.07-3.98-.18-7.18-.18-5.25-.52-11.98-1.18-15.9Z"/><path class="cls-4" d="M133.54 160.63h-.08c-.37.03-.64.35-.61.72l.08 1.09s-.02.04-.04.04h-.03c-2.01-1.55-4.26-3.04-6.72-4.31-.47-.26-1.01-.4-1.59-.35-.58.04-1.1.26-1.52.59-10.34 7.54-15.48 18.9-15.67 19.51-.06.14-.08.3-.07.47.04.5.42.9.89.98l3.17.36c.43.08.77.42.85.85.07.53 1.52 12.12 2.51 15.68 2.3-.18 4.59-.36 6.89-.53-.18-1.25-.46-3.3-.74-5.46 0-.06-.02-.15-.03-.21a.687.687 0 0 0-.36-.51c-.98-.49-1.7-1.44-1.85-2.6-.5-4.31-.96-9.31-1.03-13.24 0-.33.24-.61.57-.64.35-.03.65.22.69.57v.05c.05 2.62.27 5.7.56 8.74.04.41.4.71.81.67s.71-.4.67-.81c-.29-3.06-.51-6.16-.56-8.79 0-.33.24-.61.57-.64.35-.03.65.22.69.57v.05c.05 2.61.27 5.67.55 8.69.04.41.4.71.81.67.41-.04.71-.4.67-.81-.29-3.04-.51-6.13-.55-8.75 0-.33.24-.61.57-.64.35-.03.65.22.69.57v.05c.07 3.82.51 8.63.99 12.84v.14a3.39 3.39 0 0 1-1.25 2.9.64.64 0 0 0-.24.51s-.03.65.5 3.77c.15.85.27 1.54.37 2.05 1.76-.14 3.52-.27 5.27-.41.69-.05 1.37-.11 2.05-.16.09-3.35.04-5.2.04-5.2-.02-.19-.17-.32-.36-.34l-2.18-.13a.754.754 0 0 1-.66-.48c-.06-.15-.05-.33-.05-.33-.09-12.62 3.72-17.17 3.72-17.17.11-.13.19-.19.19-.19.1-.09.23-.14.38-.16.28-.02.53.14.65.37 0 0 .04.08.08.3.66 3.92 1 10.65 1.18 15.9.11 3.19.16 5.9.18 7.18l3.52-.27c.08 0 .17-.03.24-.06.25-.08.45-.28.43-.62-.21-6.48-.58-12.96-1.16-19.42-.41-4.52-.93-9.03-1.55-13.53l-3.18-.14ZM112.65 152.46c-.32-.15-.86.52-1.91 1.05-1.03.53-2.65.92-4.09.24-.79-.35-1.7-.97-2.82-1.26-.28-.07-.57-.12-.86-.13-.14-.01-.34 0-.5.01-.16.03-.32.05-.47.1-.58.19-1 .5-1.32.85-.31.35-.52.73-.61 1.12-.1.38-.05.78.08 1.03.27.5.63.54.73.44.13-.11.09-.35.18-.61.09-.22.32-.47.74-.71.2-.11.45-.19.66-.19.05 0 .1.01.14 0 .05.02.06.02.13.04.14.03.29.08.44.15.63.24 1.38.82 2.5 1.34.56.26 1.24.43 1.85.47.62.04 1.21-.01 1.75-.16 1.08-.27 1.92-.83 2.49-1.4.57-.58.88-1.17.98-1.61.11-.44.05-.71-.1-.77ZM63.16 83.29c.32-.06.54-.51.56-1.2.02-.69-.2-1.61-.71-2.5-.51-.89-1.2-1.55-1.8-1.88-.6-.34-1.1-.37-1.31-.13-.22.25-.15.71.06 1.26.22.56.56 1.22.97 1.93.41.71.8 1.35 1.17 1.82.37.46.73.76 1.06.69Z"/><path class="cls-13" d="M55.84 78.51c-.08-.34-2.74.06-6.02.04-3.28 0-5.94-.43-6.02-.09-.09.3 2.57 1.28 6.02 1.29 3.45.03 6.12-.93 6.03-1.23Z"/><path class="cls-4" d="M41.43 36.75c.06-.33-1.93-.95-4.45-1.39-2.51-.44-4.6-.54-4.66-.21s1.93.95 4.45 1.39c2.51.44 4.6.54 4.66.21ZM51.81 61.49c.3-.13-1.81-5.72-4.73-12.47-2.91-6.76-5.52-12.13-5.82-12-.3.13 1.81 5.72 4.73 12.47 2.91 6.76 5.52 12.13 5.82 12ZM138.71 124.54c-.07-.65-3.09-.94-6.83-.59-.95.1-1.88.27-2.72.54-.84.27-1.58.64-2.14 1.07-.56.43-.93.89-1.09 1.27-.16.38-.15.63-.02.72.29.2.89-.21 1.91-.5 1.01-.32 2.52-.54 4.31-.71 3.66-.33 6.65-1.12 6.58-1.78Z"/><path class="cls-13" d="M129.74 122.25c.15-.02.24-.63.06-1.58-.18-.95-.69-2.23-1.6-3.41-.92-1.18-2.03-1.99-2.9-2.41-.88-.42-1.49-.49-1.54-.34-.14.32 1.88 1.35 3.5 3.48 1.66 2.1 2.14 4.31 2.49 4.26Z"/><path class="cls-4" d="M98.15 138.29c0-.35-6.04-.37-13.4-1.25-7.36-.85-13.23-2.23-13.32-1.89-.09.29 5.72 2.21 13.19 3.07 7.46.89 13.56.36 13.54.06ZM103.02 129.36c0-.17-2.15-.27-5.62-.43-3.47-.15-8.26-.39-13.53-.82-5.28-.43-10.04-.97-13.48-1.39-3.45-.41-5.59-.67-5.62-.5-.03.15 2.06.71 5.49 1.34 3.43.63 8.21 1.31 13.51 1.74 5.31.43 10.13.53 13.62.47 3.49-.06 5.64-.26 5.64-.42Z"/><ellipse class="cls-4" cx="126.73" cy="137.51" rx="3.83" ry=".6"/><path class="cls-4" d="M150.47 97.68c.07-.14-.51-.62-1.61-1.12-1.09-.5-2.71-.97-4.56-1.08-1.84-.11-3.51.17-4.65.54-1.15.37-1.78.78-1.72.92.12.33 2.87-.5 6.31-.27 3.44.18 6.08 1.32 6.23 1.01ZM145.23 90.34c-.06-.15-.59-.11-1.4.17-.8.28-1.85.83-2.86 1.65-1.01.82-1.77 1.73-2.2 2.46-.44.73-.59 1.24-.46 1.33.29.18 1.54-1.36 3.41-2.86 1.85-1.52 3.63-2.42 3.51-2.75ZM142.99 101.4c.14-.06.14-.5-.14-1.13-.27-.62-.85-1.41-1.71-2.03-.86-.61-1.79-.91-2.47-.97-.68-.06-1.1.07-1.11.23-.02.34 1.46.66 2.88 1.72 1.45 1.02 2.23 2.32 2.54 2.19ZM109.55 119.75c.44-.52-1.73-2.99-3.66-6.42-1.97-3.4-2.99-6.52-3.67-6.41-.31.06-.47.96-.27 2.38.19 1.41.78 3.32 1.86 5.22 1.08 1.89 2.43 3.37 3.55 4.26 1.12.89 1.97 1.21 2.18.97Z"/></g></svg>