<svg xmlns="http://www.w3.org/2000/svg" width="200" height="200" viewBox="0 0 200 200"><defs><clipPath id="clippath"><path d="M177.14 116.53v-.02q-.85-1.87-1.77-3.71l-.14-.29-1-1.91q-.66-1.27-1.35-2.53l-.98-1.71-10.46-20.52-.05-.08s-.01-.07-.03-.1q-.32-.66-.67-1.31-.66-1.25-1.41-2.42a35 35 0 0 0-2.17-3.02c-1.67-2.08-3.44-3.89-5.19-5.8l-.47-.52-.01-.02-8.77-10.06c-.26-.3-.73-.43-1.09-.08l-.18.17-17.43 10.59-.12.03h-.04l-.24.04c-.55.09-1.18.13-1.57-.14l-.05-.03q-.2-.15-.43-.19c-.32-.11-.76-.02-.9.31l-.31.71-1.24 2.87q-1.34 3.08-2.63 6.18-.47 1.12-.88 2.26v.02q-1.48 3.57-2.74 7.22l-.67 2.01q-.6 1.81-1.15 3.64l-.66 2.18-.35 1.25-.42 1.52h.01l.31.23-.31-.23h-.01l-.54 2.03a198 198 0 0 0-3.29 15.28l-.26 1.49q-.86 5.07-1.51 10.18l-.27 2.13-.07.52-.23 2.09-.1.89-.14 1.27-.03.25v.03l-.18 1.95-.1 1.12a330 330 0 0 0-.75 10.7q-.45 9.17-.32 18.34l.04 2.31.01.08q.02.16.09.27l.02.04.03.05a.6.6 0 0 0 .4.27 192 192 0 0 0 24.26 3.07q-.6-.4-1.17-.88c-1.49-1.28-2.83-2.77-4.21-4.17-2.83-2.88-5.63-5.8-8.27-8.86a1 1 0 0 1-.17-.31l-.09-.13a7.4 7.4 0 0 1-.63-3.31c.04-3.79 1.35-7.44 2.47-11.02l-.43-1.03q-.4-.98-.71-1.98-.37-1.16-.65-2.33l-.06-.23q-.47-1.8-.8-3.66-.23-1.31-.36-2.62-.11-1.12-.13-2.25c-.03-2.14.2-4.27.84-6.34.68-2.22 1.81-4.47 3.56-6.04q.59-.53 1.27-.91.07-.07.16-.12l.34-.14a5.7 5.7 0 0 1 4.29-.32c2.07.73 3.58 2.42 4.68 4.35.81 1.42 1.34 2.98 1.95 4.5h.04a7 7 0 0 0 4.78.01q.24-.09.47-.2c2.58-1.06 4.45-3.36 5.43-5.94.59-1.53.86-3.1 1.09-4.72a12 12 0 0 1 .66-2.55q.26-.59.61-1.1c.29 0 .64-.09.9-.26l.8 1.82q1.3 2.84 2.72 5.63l2.06 4.01.03.03c.17.27.53.47.84.34l1.09-.41q.99-.38 1.99-.73l-.37-.65-.07-.12-.32-.56-.26-.46c-.49-.83.81-1.59 1.29-.75l.41.72.35.61v.01l.4.71c4.04-1.31 8.17-2.35 12.26-3.53a117 117 0 0 0 4.99-1.55 63 63 0 0 0 3.56-1.34l.07-.03-.34-.68-.02-.04-.31-.62-.16-.33a.8.8 0 0 1 .01-.74 1 1 0 0 1 .26-.28c.33-.2.84-.09 1.02.27l.31.63.26.53.34.68q.58-.25 1.14-.52c.36-.17.45-.68.27-1.01Z" class="cls-2"/></clipPath><style>.cls-2{fill:none}.cls-5{fill:#ff8000}.cls-6{fill:#e8b03f}.cls-12{fill:#ffd066}.cls-20{fill:#5b3b5b}.cls-56{fill:#a08676}.cls-73{fill:#d791a0}.cls-91{fill:#e4c7bd}.cls-95{fill:#f1a7b0}.cls-103{fill:#fff}.cls-118{fill:#f65e23}.cls-126{fill:#b7957f}.cls-199{fill:#877266}.cls-201{fill:#5b3d5b}</style></defs><path id="BG_Strong_Light" d="M19.51 40.21c-3.86 27.54-3.01 48.08-2.33 75.59-.18 30.86 19.49 65.14 62.81 52.37 15.03-4.43 36.25 21.55 55.16 18.58 20.13-3.16 37.41-19.71 40.84-39.79 5.81-34.01 3.37-62.31-5.01-90.92-6.96-23.78-32.67-55.22-59.6-38.2-34.14 21.59-85.1-9.29-91.87 22.37" data-name="BG_Strong Light" style="fill:#edebe8"/><g id="Illustrations"><g id="Outline"><path d="m135.6 183.3.05-.03q-.03 0-.05.03" class="cls-126"/><path d="M129.36 185.29q.21 0 .7-.09c-.96-.09-1.97-.26-2.89-.51q1.2.53 2.19.6" class="cls-20"/><path d="M112.51 123.87s-4.92-3.05-8.44-5.67-6.43-5.05-7.58-6.28a88 88 0 0 1-3.44-4.18s.95-3.67.21-6.2a23 23 0 0 0-3.22-6.59c-1.22-1.73-3.39-5.13-4.58-5.91s-5-.9-6.13-.89c-1.13 0-2.28.05-2.31.37s0 1.37.61 2.01a9 9 0 0 0 2.6 1.75c.65.24 2.99 1.17 2.99 1.17s1.1 2.47 1.08 3.51-.63 2.23-.63 2.23l4.38 8.04s-1.3 1.34-1.57 1.16-8.65.26-8.65.26-1.41-1.08-1.42-1.56c0-.48-4.69-9.66-4.69-9.66l-2.75-5.28s-.91.32-1.44.83-.83 1.23-.38 1.88 1.13.78 1.26 1.5.44 3.39 1.02 4.09c.58.71.95 1.61 1.22 3.03s.87 3.14 1.67 4.04 3 2.73 3.76 3.2 7.93 4.43 7.93 4.43 5.63 7.44 6.39 8.42 10.33 12.03 10.47 12.72 2.45 3.15 2.45 3.15l9.19-15.56Z" class="cls-91"/><path d="m67.74 89.38-2.45-4.33s-1.41.06-1.76.53-.46 1.89-.2 2.22 1.52.71 1.86.99 2.55.59 2.55.59" class="cls-126"/><path d="M106.65 120.74c-1.5-.95-3.01-1.89-4.45-2.94a54 54 0 0 1-3.99-3.26 35 35 0 0 1-5.89-6.57s-.02-.03-.02-.04l-.03-.06-.02-.04a.8.8 0 0 1-.03-.61c.45-1.3.6-2.69.51-4.03a14 14 0 0 0-.43-2.53l-.03-.12-.1-.35a13 13 0 0 0-1.79-3.47q-1.29-1.87-2.61-3.71l-1.32-1.87c-.36-.51-.73-1.05-1.26-1.41-.58-.39-1.34-.47-2.01-.57a28 28 0 0 0-4.35-.29l-1.04-.01h-.05l.02.29q.01.13.04.25l.08.2.01.03.03.06.11.16.23.3a6 6 0 0 0 1.43 1.22l.26.16.22.12q.7.34 1.43.59c.98.34 1.89.61 2.95.69.93.08.78 1.46-.09 1.49q.36.86.5 1.79a9 9 0 0 1-.14 3.26l-.08.22q1.73 3.45 3.5 6.89c.13.11.22.29.24.45q.02.15-.03.29a1 1 0 0 1-.13.27 3 3 0 0 1-2.45 1.4q-4.21.57-8.45.25s-.05 0-.08-.02h-.03q-.24-.02-.42-.2a1 1 0 0 1-.31-.35l-1.53-3.05a7 7 0 0 1-1.22-.32c-.81-.29-1.67-.78-1.94-1.65-.29-.94-.06-2.12.81-2.68l-1.57-3.04a6 6 0 0 1-1.88-.43q-.03.95.38 1.84c.36.76 1.06 1.32 1.44 2.09.35.73.25 1.53.35 2.31q.15 1.03.62 1.96a10 10 0 0 0 2.96 3.35c1.38 1.05 2.91 1.92 4.42 2.79a99 99 0 0 0 4.87 2.6q.35.18.44.53l3.82 4.96q3.81 4.98 7.76 9.85l2.32 2.79a3.1 3.1 0 0 1 2.53-2.05c1.93-.3 3.75.93 5 2.43q2.55-4.47 5.29-8.83a50 50 0 0 0-4.82-3.39Zm-33.28-18.32.01-.02zm-8.84-16.5-.17.02-.02.01-.12.05-.09.06-.1.08-.07.09-.07.1-.06.11-.04.11-.02.13v.12l.02.15.03.11.13.3.05.07.12.16.07.08-.02-.02.16.14c.21.17.44.26.74.37q.56.19 1.18.33l-1.33-2.58-.27.02-.1-.01Z" class="cls-2"/><path d="M73.4 102.37v-.02q0 .03-.03.05l.02-.03Z" class="cls-2"/><path d="m73.37 102.42-.03.07-.05.13v.04l-.02.13v.2l.02.13v.03l.06.16v.02l.04.06.03.03.05.04.13.11.11.08h.01l.4.18-.73-1.46-.01.01-.03.06Zm4.25-13.56h.01-.04.02Zm5.9 7.62a5 5 0 0 0-.59-1.93l-.17-.34-.04-.07-.01-.02q-.43-.11-.86-.25l1.05 2.09.69 1.38v-.18z" class="cls-2"/><path d="m73.39 103.37.05.04-.04-.03Zm-4.82-10.02-.17.05-.4.17c-.07.08-.19.13-.27.21l-.07.08.02.15.04.19.06.18.06.16.05.08.16.23c.4.53.96.92 1.57 1.19q.34.15.68.24l-1.54-2.96q-.09 0-.16.03Zm4.92 10.09-.04-.03z" class="cls-2"/><path d="m64.17 86.03.05-.02zm-.32.36.04-.06zm.13-.2.04-.04zm-.17.87-.02-.04zm-.05-.26v-.05zm.03-.25.01-.06zm.15.82v-.01zm.56-1.45h.04z" class="cls-20"/><path d="M65.05 88.16q-.44-.13-.74-.37l-.16-.14.02.02-.07-.08-.12-.16-.05-.07-.01-.02v.01l-.13-.3-.02-.04.02.04-.03-.11-.02-.15v-.05.05-.12l.02-.13.01-.06-.01.06.1-.22-.04.06.04-.06.07-.1.07-.09-.04.04.04-.04.1-.08.09-.06-.05.02.05-.02.12-.05.02-.01c-.05 0 .05-.03 0 0l.17-.02h-.02.04-.02l.1.01q.14.01.27-.02l-.74-1.45a2.3 2.3 0 0 0-1.43.9c-.5.68-.58 1.54-.29 2.33.68 1.84 2.82 2.08 4.46 2.49q.1.03.2 0l-.88-1.7q-.62-.14-1.18-.33Z" class="cls-201"/><path d="M64.36 85.94c.05-.03-.05 0 0 0" class="cls-20"/><path d="M71.9 103.66c.27.87 1.13 1.36 1.94 1.65q.6.21 1.22.32l-.91-1.82-.4-.18h-.01c.17.1-.08-.04 0 0l-.11-.08-.13-.11-.04-.03-.05-.04.04.03-.03-.03-.04-.06.03.06-.04-.08.02.02v-.02l-.06-.16.01.06q-.05-.18-.01-.06v-.03l-.02-.13v-.13.02-.06.05-.07q0-.07.02-.13v-.04l-.01.03.02-.07v.04l.05-.13.03-.07.01-.02q0-.03.03-.05l-.08-.15-.62-1.21c-.87.56-1.09 1.74-.81 2.68Z" class="cls-201"/><path d="M73.73 103.63c-.07-.04.17.11 0 0m-.29-.22.04.03-.05-.04Zm-.04-1.04-.02.03-.01.02q0 .05.03-.06Zm-.12.28.01-.03v-.04zm.12-.28.01-.01zm-.01 1-.03-.06-.02-.02zm-.13-.5v-.07zm.05.33-.01-.06q-.03-.11.01.06" class="cls-20"/><path d="M69.43 91.91c.88.37.33 1.73-.55 1.39l-.14.01h-.01l1.54 2.96c.43.12.85.19 1.35.2.41.01.7.46.65.83-.05.43-.43.66-.83.65l-.31-.02 1.57 3.04.05-.04c.36-.21.76-.2 1.05.15.12.14.17.37.15.55a.8.8 0 0 1-.29.51l-.14.09-.03.03-.08.09.73 1.46.2.09.29.1.17.05h.02l.54.11c.42.06.69.42.65.83s-.45.71-.83.65l-.13-.03 1.53 3.05q.11.23.31.35.18.18.42.2h.03l.08.02q4.24.32 8.45-.25.3 0 .58-.08.39-.1.73-.27c.46-.26.87-.59 1.14-1.05a1 1 0 0 0 .13-.27 1 1 0 0 0 .03-.29 1 1 0 0 0-.24-.45l.11.22c.12.22.07.49-.07.69a.7.7 0 0 1-.43.31l-.08.02h-.02q-4.23.58-8.49.28c-.31-.02-.56-.28-.63-.57v-.01l-3.05-5.91-6.15-12.09q-2.82-5.57-5.7-11.11c-.11-.21-.07-.46.05-.66a1 1 0 0 1 .28-.39h-.05q-1.17.41-2.14 1.2a1 1 0 0 0-.28.44v.11l.02.24q.02.12.09.22 1.2 2.45 2.45 4.88.32-.06.65-.02c.42.06.68.44.65.84-.02.31-.27.55-.56.63l1.33 2.58.86.21c.41.1.69.39.65.83-.02.31-.32.61-.63.66l.36.7.55 1.05c.46-.15.98-.22 1.4-.04Zm3.98 10.43" class="cls-5"/><path d="M65.46 85.28c.03-.4-.23-.78-.65-.83a2 2 0 0 0-.65.02l.74 1.45c.29-.08.54-.32.56-.63Zm2.28 4.26c.04-.45-.24-.73-.65-.83l-.86-.21.88 1.7a.8.8 0 0 0 .63-.66m7.09 14.52h-.01c-.12-.03.16.04.01 0m-1.43-1.72.08-.09-.03.03.05-.05-.02.02.03-.03.14-.09c.15-.09.27-.33.29-.51a.8.8 0 0 0-.15-.55c-.28-.34-.69-.36-1.05-.14s-.04.02-.05.04l.62 1.21.08.15Zm.05-.05.03-.03.02-.02z" class="cls-5"/><path d="M75.18 105.66c.39.06.8-.26.83-.65a.75.75 0 0 0-.65-.83l-.54-.11c.14.04-.14-.03-.01 0h.01-.02l-.17-.05-.29-.1-.2-.09.91 1.82.13.03Z" class="cls-5"/><path d="M65.01 77.79c.13.27.04.62-.17.83l14.23 28.07.22-.07c.2-.04.4.04.56.15.15.1.26.31.28.49q.02.15-.03.29a1 1 0 0 1-.13.27l-.02.03a38 38 0 0 0 5.73-.34h.08q.21 0 .42-.06l.36-.15q.18-.11.33-.25.17-.18.29-.38c.1-.16.31-.25.49-.28a.8.8 0 0 1 .6.18q-1.77-3.44-3.5-6.89c-.14.28-.41.47-.75.43-.38-.04-.74-.44-.65-.83q.17-.75.21-1.51l.01-.37v-.06l-.69-1.38-1.05-2.09q-.7-.21-1.35-.47a8 8 0 0 1-3.53-2.52q-.54-.68-.67-1.52c-.08-.64-.06-1.35.54-1.75.32-.22.69-.23 1.07-.22l.7.02a500 500 0 0 0-3.73-7.29.8.8 0 0 0-.47-.42 1 1 0 0 0-.4-.2 338 338 0 0 1-9.39-2.27q-.29-.06-.52.14c.38-.11.76.05.93.41Z" class="cls-103"/><path d="M63.75 78.42q2.89 5.54 5.7 11.11l6.15 12.09q1.51 2.95 3.05 5.91v.01c.07.29.32.55.63.57q4.26.3 8.49-.28h.02l.08-.02a.7.7 0 0 0 .43-.31c.14-.2.19-.47.07-.69l-.11-.22-.04-.03a.8.8 0 0 0-.56-.15c-.18.03-.39.12-.49.28q-.12.2-.29.38-.15.13-.33.25l-.36.15-.42.06h-.08q-2.85.39-5.73.34l.02-.03a1 1 0 0 0 .13-.27 1 1 0 0 0 .03-.29.8.8 0 0 0-.28-.49.8.8 0 0 0-.56-.15l-.22.07-14.23-28.07c.21-.21.3-.56.17-.83a.76.76 0 0 0-.93-.41 1 1 0 0 0-.28.39c-.12.2-.16.45-.05.66Z" class="cls-103"/><path d="M83.58 97.34v.06l-.01.37q-.05.76-.21 1.51c-.08.39.27.79.65.83.34.04.61-.15.75-.43z" style="fill:#6d5f56"/><path d="M103.68 117.02a50 50 0 0 1-4.06-3.23 31 31 0 0 1-5.88-6.4 13.1 13.1 0 0 0-1.81-11.03c-.87-1.34-1.83-2.63-2.75-3.94l-1.46-2.07c-.44-.62-.89-1.27-1.51-1.72a6 6 0 0 0-2.49-.88 32 32 0 0 0-4.97-.34h-.15c-.24 0-.42 0-.7-.02-.38-.02-.75 0-1.07.22-.6.4-.62 1.11-.54 1.75.07.58.32 1.07.67 1.52a8.3 8.3 0 0 0 3.53 2.52 20 20 0 0 0 2.22.74l.04.07.17.34a6 6 0 0 1 .59 1.93l.06.68v.18l1.18 2.35.08-.22q.36-1.62.14-3.26a7 7 0 0 0-.5-1.79c.87-.03 1.02-1.41.09-1.49a12 12 0 0 1-2.95-.69q-.74-.25-1.43-.59l-.22-.12-.26-.16q-.45-.3-.86-.65a4 4 0 0 1-.57-.57q-.12-.14-.23-.3l-.11-.16-.03-.06-.01-.03-.08-.2-.04-.25-.02-.29h.05q.52.03 1.04.01a30 30 0 0 1 4.35.29c.67.09 1.43.17 2.01.57.53.35.89.89 1.26 1.41l1.32 1.87q1.32 1.84 2.61 3.71c.73 1.08 1.4 2.21 1.79 3.47l.1.35.03.12.02.07.18.77a14 14 0 0 1 .23 1.69c.09 1.33-.07 2.73-.51 4.03a.8.8 0 0 0 .05.65l.03.06.02.04a35 35 0 0 0 5.89 6.56 57 57 0 0 0 3.99 3.26c1.44 1.04 2.96 1.98 4.45 2.94a50 50 0 0 1 4.82 3.39l.81-1.27c-2.7-2.18-5.75-3.85-8.6-5.84ZM77.62 88.86h-.02l.04-.01h-.01Zm-5.34 8.46c.05-.37-.25-.82-.65-.83q-.74-.02-1.35-.2l.86 1.67.31.02c.4.01.78-.22.83-.65Zm-3.54-4 .14-.01c.87.33 1.43-1.02.55-1.39a2 2 0 0 0-1.4.03zh.01Z" class="cls-201"/><path d="M98.64 132.58q-1.17-1.38-2.32-2.79a430 430 0 0 1-7.76-9.85l-3.82-4.96a1 1 0 0 0-.44-.53 99 99 0 0 1-4.87-2.6c-1.51-.86-3.04-1.73-4.42-2.79a10 10 0 0 1-2.96-3.35 6 6 0 0 1-.62-1.96c-.1-.77 0-1.58-.35-2.31-.38-.77-1.08-1.32-1.44-2.09a4 4 0 0 1-.38-1.84q.91.36 1.88.43l-.86-1.67a6 6 0 0 1-.68-.24 4 4 0 0 1-1.73-1.42l-.05-.08-.06-.16-.06-.18-.04-.19-.02-.15.07-.08c.08-.08.2-.13.27-.21l.4-.17.17-.05.16-.03-.72-1.38q-.3.1-.57.23c-.77.38-1.43 1.07-1.28 1.98a4 4 0 0 0 1.69 2.6l-.07.23q-.14 1.24.25 2.42c.26.79.72 1.42 1.23 2.04.21.26.44.52.53.85.1.38.08.8.1 1.18q.08 1.19.53 2.29c1.35 3.32 4.57 5.22 7.52 6.94a106 106 0 0 0 5.45 2.96l.09.15q3.57 4.66 7.17 9.29c2.58 3.29 5.19 6.56 7.93 9.72l.29.33 1.41 1.59c.59.46 1.24 1.17 1.79 1.69.28.26 1 .9 1.2 1.22.2-.37-.08-1.38.13-1.76a115 115 0 0 1-4.77-5.33Z" class="cls-201"/><path d="M141.01 63.67c.09-.11-4.25-10.17-4.25-10.17s-4.34-.06-5.68-.5-2.4-.76-2.89-1.87-2.4-5.04-2.78-5.74-.28-1.62-1.65-1.85-2.86-.57-3.51-.18-1.44 1.77-1.48 2.36.34 1.71-.09 1.78-1.23-.41-1.23-.41-1.47-5.38-1.35-5.96.52-1.98.49-2.77-.77-2.03-1.92-2.2c0 0-2.04 1.56-2.94 1.61s-1.45-.45-1.9-.09-2.58 2.16-3.87 2.66c-1.28.49-4.75 1.08-4.75 1.08s.46 6.06.69 7.32.74 2.99.74 2.99-.51 3.45-.67 5.13-.39 4.3 0 4.82 1.56 1.13 2.19 1 2.74-.35 2.74-.35 2.34 4.13 2.93 4.88 2.32 2.35 3.8 2.33 4.67-.5 5.1-.62 2.79-.85 2.79-.85l1.42 6s5.22-.92 8.23-2.74 8.46-6.03 9.81-7.66Z" class="cls-91"/><g id="Layer_23" data-name="Layer 23"><path d="M172.4 121.17q-.14-.24-.26-.5-.08-.19-.13-.38-.07-.24-.28-.37c-.21-.13-.33-.11-.47-.06s-.29.14-.37.28-.11.31-.06.47q.13.47.36.91a5.4 5.4 0 0 0-1.08 2.44q-.06.71.23 1.36l.09.26-.53.27q-2.6 1.22-5.3 2.13a5 5 0 0 1-.99-1.68q-.05-.13-.13-.23a.6.6 0 0 0-.5-.27 30 30 0 0 1-3.9-.31l-.21-.25a6 6 0 0 1-.63-1.05.6.6 0 0 0-.37-.28c-.15-.04-.34-.02-.47.06s-.25.21-.28.37a.7.7 0 0 0 .06.47q.44.93 1.14 1.68.1.1.23.14l.13.05q1.94.29 3.89.35.5 1.18 1.4 2.1a.6.6 0 0 0 .6.16 53 53 0 0 0 6.04-2.42c.46-.22.92-.42 1.03-.97s-.23-.92-.32-1.41c-.16-.87.51-1.76.98-2.43l.08-.26.06-.14a.6.6 0 0 0-.06-.47Z" class="cls-56"/><path d="M164.81 122.63q.4.72.74 1.48c.06.13.23.25.37.28.15.04.34.02.47-.06s.25-.21.28-.37l.02-.16a1 1 0 0 0-.08-.31q-.34-.76-.74-1.48a.6.6 0 0 0-.84-.22.63.63 0 0 0-.22.84m7.23 6.36c.79 0 .79-1.23 0-1.23s-.79 1.23 0 1.23m-2.32 1.12c.79 0 .79-1.23 0-1.23s-.79 1.23 0 1.23m-2.42 1.04c.79 0 .79-1.23 0-1.23s-.79 1.23 0 1.23m-2.6-.01v.09q0 .12.05.24.04.12.13.2t.2.13.24.05l.16-.02q.15-.04.27-.16l.1-.12q.09-.15.08-.31v-.09l-.05-.24a.4.4 0 0 0-.13-.2l-.2-.13a.4.4 0 0 0-.24-.05l-.16.02a1 1 0 0 0-.27.16l-.1.12q-.09.15-.08.31m-3.39-1.94-2.56-.58c-.31-.07-.68.1-.75.43-.07.31.09.68.43.75l2.56.58c.31.07.68-.1.75-.43.07-.31-.09-.68-.43-.75m12.89-6.47q-.67.98-1.21 2.04c-.15.28-.08.68.22.84.28.15.68.09.84-.22q.55-1.05 1.21-2.04c.18-.26.06-.69-.22-.84-.31-.16-.64-.06-.84.22m.48-2.08-.57-1.27a.6.6 0 0 0-.37-.28c-.15-.04-.34-.02-.47.06s-.25.21-.28.37l-.02.16q0 .16.08.31l.57 1.27c.06.13.23.25.37.28.15.04.34.02.47-.06s.25-.21.28-.37l.02-.16a1 1 0 0 0-.08-.31m-17.37 6.78-1.41-2.51c-.16-.28-.56-.4-.84-.22s-.39.54-.22.84l1.41 2.51c.16.28.56.4.84.22s.39-.54.22-.84m22.45 2.3c-2.26 1.41-4.63 2.63-7.03 3.77s-4.77 2.23-7.28 2.99q-2.49.75-5.05 1.16c-.33.05-.51.46-.43.75.1.35.43.48.75.43a38 38 0 0 0 8.33-2.35 91 91 0 0 0 7.55-3.55 54 54 0 0 0 3.77-2.14c.67-.42.05-1.48-.62-1.06Z" class="cls-56"/></g><path d="M99.06 133.72c-1.62 1.85 2.89 2.49 3.76 2.82q.3.11.57.25l.23-2.09.07-.52c-1.3-.85-3.52-1.72-4.62-.46Zm8.58-32.41c.5.71 1.24 1.26 1.92 1.77l.42-1.52-2.77-1.01q.2.41.43.76m2.18-66c.03-.09 0-.04 0 0m-14.39 1.97-.02-.03c-.35.34.07.01.02.03m40.96 17q-1.93.14-3.82-.18a13 13 0 0 1-3.45-1.01 3.2 3.2 0 0 1-1.73-1.96c-.02-.06-.15-.34-.06-.15l-.08-.19q-.31-.7-.65-1.37l-.1.51a8 8 0 0 1-.74 1.95c-.27.5-.6 1.02-1.05 1.4q-.01.55-.2 1.06c-.19.49-.53.9-1.05 1.04-.61.16-1.13-.18-1.57-.55-.63-.53.08-1.39.75-1.2a3.3 3.3 0 0 1-1.65-1.82c-.14-.38.16-.82.52-.92.41-.12.78.15.92.52.11.3.37.62.65.78q-.1-.3-.25-.58c-.46-.83.81-1.57 1.27-.74q.13.23.23.48a6.5 6.5 0 0 0 .47-5.52c-.15-.38-.4-.8-.7-1.09a2 2 0 0 0-.55-.37l-.2-.05-.11-.02h-.4c.09 0-.16.03-.19.04-.24.06-.29.09-.48.2s-.24.15-.4.33l-.12.16-.14.28c-.16.37-.71.46-1.02.27-.38-.22-.43-.65-.27-1.02q.1-.25.27-.47s-.1.05-.14.08l-.16.1-.02.01q-.1.12-.23.22l-.02.02v.02l-.09.13-.06.12-.05.12-.11.4-.03.16-.02.12q-.07.95-.1 1.9 0 .16-.07.29l-.01.08a.8.8 0 0 1-.34.45 1 1 0 0 1-.28.09q-.15.03-.3-.01a5 5 0 0 0-.85-.2h-.07a1 1 0 0 1-.38-.1l-.15-.12c-.15-.13-.21-.34-.22-.53v-.04l-.04-.12-.76-3.18-.39-1.65c-.13-.55-.27-1.08-.19-1.65.13-.84.73-1.71.62-2.58-.08-.63-.72-1.04-1.29-1.27q-.39.37-.85.68a5.5 5.5 0 0 1-2.7.98q-.44 0-.83-.22l-.12-.08h-.01c-.34.22-.62.55-.93.81a13 13 0 0 1-7.26 2.98 22 22 0 0 0 .16 4.39 31 31 0 0 0 1.15 4.91.6.6 0 0 1 .04.51c-.33.94-.41 1.87-.47 2.84s-.07 1.94-.12 2.91c-.05.91-.23 1.85-.28 2.69-.04.65.17 1.48.96 1.62.47.08 1.04-.13 1.5-.23l1.66-.35h.3a.7.7 0 0 1 .57.39l.64 1.18.16-.03h.06l.06-.01.24-.05.46-.13.23-.08.06-.02.03-.01.43-.22.43-.27.04-.03c-.03.02 0-.02.04-.03l.18-.16.34-.34.16-.18.06-.08c.25-.33.63-.47 1.02-.26.33.17.5.71.27 1.02a5.8 5.8 0 0 1-3.48 2.26q.76 1.28 1.58 2.51c.5.71 1.05 1.28 1.82 1.63 1.38.63 3.3.31 4.74.05q1.25-.22 2.47-.58a8 8 0 0 0 1.94-.81q.23-.13.43-.09a5 5 0 0 1-1.04-.48c-2.07-1.33-2.26-4.11-.06-5.45 2.11-1.29 5.01-.24 6.82 1.12a9 9 0 0 1 3.1 4.18c1.49-1.17 2.85-2.63 4.75-3.03 1.41-.29 3.05-.06 4.09.93l.65-.6-.7-1.79c-1.03-2.55-2.13-5.08-3.13-7.64Zm-29.33-3.74c-.97 0-.97-1.5 0-1.5s.96 1.5 0 1.5m-4.53 42.54c-1.18-.91-3.82-2.18-5.06-.76-1.62 1.85 2.89 2.49 3.76 2.82a6.4 6.4 0 0 1 3.35 2.95h.2a1 1 0 0 1 .4-.17l.21-.02a1 1 0 0 1-.2-.4 7 7 0 0 0-2.66-4.42m-3.42 6.79a4.2 4.2 0 0 0-2.85 4.19c.04.48.12.59.6.42.46-.17.91-.47 1.32-.74a12 12 0 0 0 2.35-2.03c.54-.59 1.05-1.22 1.64-1.7l-.39-.13a4.3 4.3 0 0 0-2.66 0Zm64.97-18.34c-.56-1.19-2.42-.97-3.37-.5q-.76.38-1.42.9.76 1.18 1.41 2.42h.43c1.25-.07 3.75-1.1 2.94-2.82Z" class="cls-2"/><path d="M122.92 53.77c.21.18.21.19.23 0a2 2 0 0 1-.47-.12q.12.04.23.13Zm40.02 35.85a1 1 0 0 0-.44-.58l.32 1.12a.6.6 0 0 0 .12-.53Zm14.58 18.16c-.56-1.19-2.42-.97-3.37-.5q-.67.34-1.27.79.69 1.26 1.35 2.53h.35c1.25-.07 3.75-1.1 2.94-2.82m-67.15-45.72-.03.02zm24.73 3.53c-1.53.74-2.69 2.1-4.09 3.05.95.04 1.89.17 2.84.24a47 47 0 0 0 4.24-3.25c-.78-.63-2.19-.42-2.99-.03Zm-10.58 6.91c.54-.59 1.05-1.22 1.64-1.7l-.39-.13a4.3 4.3 0 0 0-2.66 0l-.15.06.6 2.55.24-.04zm1.4-3.85.05.02a4 4 0 0 0-1.41-.88c-.76-.29-1.57-.41-2.35-.64.37.24.54.82.17 1.17l.11.47a6.4 6.4 0 0 1 3.43-.14m-5.31 4.57c.14-.33.58-.42.9-.31q.23.03.43.19l.05.03-.37-1.57a4.2 4.2 0 0 0-1.31 2.37zm-13.6 24.63c1.32.06 2.64.28 3.97.28q.55-1.83 1.15-3.64c-.38.06-.75.17-1.03.31-1.53.74-2.69 2.1-4.09 3.05m-6.31 43.43a4.2 4.2 0 0 0-2.85 4.19c.04.48.12.59.6.42.46-.17.91-.47 1.32-.74a12 12 0 0 0 2.35-2.03l.73-.81.1-1.12a4.4 4.4 0 0 0-2.25.09" class="cls-2"/><path d="M108.37 62.92h-.06q.15-.01.07 0Z" class="cls-199"/><path d="M112.41 62.06c.23-.32.06-.85-.27-1.02-.39-.21-.78-.07-1.02.27s-.07.08-.06.07c.02-.02.09-.1.02-.03l-.02.03-.16.18-.34.34-.18.16-.04.02-.04.03q-.2.15-.43.27l-.43.22-.03.01c.03-.01.06-.02 0 0-.08.03-.03.01 0 0l-.06.02-.23.08-.46.13-.24.05-.06.01h.02-.07.04-.06l-.16.03.79 1.37a5.8 5.8 0 0 0 3.48-2.26Z" class="cls-20"/><path d="M109.4 62.63q.08-.04 0 0c-.04.02-.08.03 0 0m.96-.57s-.07.04-.04.03l.03-.02Zm.69-.68.02-.03z" class="cls-199"/><path d="M107.54 63.68c.02.37.33.79.75.75q.31-.03.63-.1l-.79-1.37c-.33.09-.61.34-.59.72m-.48-14.63c-.97 0-.97 1.5 0 1.5s.97-1.5 0-1.5" class="cls-20"/><path d="m134.66 165.41-.69-.14.17.56zm14.05-79.31a4.2 4.2 0 0 0-2.85 4.19c.04.48.12.59.6.42.46-.17.91-.47 1.32-.74a12 12 0 0 0 2.35-2.03c.54-.59 1.05-1.22 1.64-1.7l-.39-.13a4.3 4.3 0 0 0-2.66 0Zm13.44 26.25a4.2 4.2 0 0 0-2.85 4.19c.04.48.12.59.6.42.46-.17.91-.47 1.32-.74a12 12 0 0 0 2.35-2.03c.54-.59 1.05-1.22 1.64-1.7l-.39-.13a4.3 4.3 0 0 0-2.66 0Zm-10.78-30.79.11.09a6.5 6.5 0 0 1 2.7 2.66h.2a1 1 0 0 1 .4-.17l.21-.02a1 1 0 0 1-.2-.4 7 7 0 0 0-2.66-4.42c-1.18-.91-3.82-2.18-5.06-.76-.57.66-.37 1.16.16 1.55q2.18.48 4.14 1.47m-31.14 78.22.59.27q-.64-.73-1.3-1.44l.11.47c.11.37.27.53.6.71Zm21-79.58a7.5 7.5 0 0 0-3.82 2.37 11 11 0 0 0-1.9 3.93 13 13 0 0 0-.35 5.14c.06.4.57.62.92.52.43-.12.58-.52.52-.92-.17-1.21-.05-2.65.24-3.9s.74-2.43 1.49-3.52c.15-.22.23-.31.43-.54a5 5 0 0 1 .47-.45l.09-.08-.03.02.03-.02a7 7 0 0 1 1.91-.99c1.43-.49 2.97-.59 4.47-.42h.01q-.63-.7-.81-1.56-1.87-.1-3.68.41Z" class="cls-95"/><path d="M151.48 81.65s-.06-.07-.11-.09c-1.3-.64-2.7-1.16-4.14-1.47.97.71 3.03 1.05 3.6 1.27q.34.14.65.29m-12.18 1.13.03-.02z" class="cls-95"/><path d="M152.57 166.97c-.7.8-.25 1.38.56 1.8q1.73-.84 3.42-1.72c-1.3-.68-3.04-1.15-3.98-.08" class="cls-126"/><path d="M183.45 141.24c-.26-.61-.72-1.12-1.15-1.61a1 1 0 0 1-.2-.41l-.03-.07q-.72-2.66-1.56-5.29a112 112 0 0 0-6.14-15.17l-.09-.02a67 67 0 0 1-6.55 2.3l-2.01.59c-4.09 1.18-8.22 2.21-12.26 3.53q.98 1.7 1.94 3.42c1.74 3.11 3.45 6.24 5.24 9.31a76 76 0 0 0 4.81 7.5c.25.32.05.84-.27 1.02-.38.22-.78.05-1.02-.27a41 41 0 0 1-1.54-2.19l-.47.27a48 48 0 0 0-5.66 3.78c-4.04 3.11-7.88 6.79-11.43 10.15-2.68 2.53-5.36 5.08-8.21 7.44l-.01.01q-1.33 1.1-2.71 2.14l-.02.01-.07.05a.6.6 0 0 1-.47.09h-.03q-.04 0-.07-.02c-.25-.07-.48-.26-.53-.52q-.21-1-.52-1.98c-.19-.58-.34-.96-.59-1.47a13 13 0 0 0-2.17-3.07c-1.76-1.88-4.12-3.08-6.15-4.63a15 15 0 0 1-2.78-2.65c-.33-.42-.65-.98-1.03-1.26l-.19-.11-.11-.03q-.08-.02 0 0h-.08q-.03 0-.05.03c.11-.04-.04.05-.02.02l-.08.08-.1.17-.06.15-.06.24c-.03.15-.03.11-.04.23q-.03.47-.01.94.06.94.44 1.8c.53 1.2 1.51 2.09 2.36 3.06a11 11 0 0 1 2.81 7.47c-.01.97-1.51.97-1.5 0a9 9 0 0 0-.38-2.83.6.6 0 0 1-.44-.21c-.56-.7-1.12-1.42-1.95-1.81-.37-.18-.77-.31-1.12-.55a2.5 2.5 0 0 1-.92-1.23c-.3-.81-.35-1.74-.46-2.59q-.15-1.18-.34-2.36a1 1 0 0 1 .02-.41v-.03l-.03-.45q-.11-.09-.19-.2-.95-1.4-1.73-2.9l-.41 1.3a40 40 0 0 0-1.31 5.3q-.2 1.3-.21 2.56c0 .83.08 1.68.43 2.44l.06.17q2.15 2.49 4.41 4.87a412 412 0 0 0 4.11 4.25c1.31 1.33 2.58 2.74 4.01 3.95a8.9 8.9 0 0 0 8.89 1.45l.96-.46.29-.13.05-.02c3.33-1.58 6.7-3.09 10.04-4.64q2.17-1.01 4.33-2.05l7.42-3.73.31-.16q1.53-.81 3.05-1.66a96 96 0 0 0 8.43-5.23 51 51 0 0 0 4.71-3.68 33 33 0 0 0 3.8-3.92l.22-.27.01-.02.08-.1q.19-.24.36-.5l.66-1q.7-1.16 1.23-2.41.92-2.12 1.92-4.2a1.8 1.8 0 0 0 .05-1.6Z" class="cls-91"/><path d="M124.52 45.8c-.18-.04 0 0 0 0" style="fill:#79567b"/><path d="M137.72 53.21c-2.53-7.72-2.14-17.28-8.39-23.27-.78-.08-1.49 1.02-2.42 1.15-.92.44-2.08-.05-2.82.33-.63.98-1.47 2.23-2.47 3.06-1.09.97-5.3 3.9-4.5.4.31-1.74-.95 0-1.32.54-.27.4-.69.82-.9 1.16-.17.29.02.51.35.78.58.46.65 1.18.45 1.84-.88 1.87-.2 3.66.27 5.59.33.92.35 2.67 1.08 3.27.37.24.94.33 1.39.36 1.23-.11.82-1.55.99-2.54.11-.87.23-1.26.7-1.61 2.35-2.6 5.59-1.38 6.33 1.87.31 1.02.24 2.1.24 3.14.04.54.32 1.05.54 1.54a4.5 4.5 0 0 0 1.39 2.04c2.2 1.32 4.94 1.68 7.47 1.56.28-.05.34-.21.37-.47.01-.25.1-.56.37-.7.37-.21.86.1.89.02z" class="cls-20"/><path d="M138.49 55.53q-.43-1.04-.82-2.07l-.05-.09c-.16-.33-.49-.54-.87-.44-.36.1-.67.54-.52.92l.17.42c1 2.56 2.1 5.09 3.13 7.64l.7 1.79 1.17-1.1q-1.43-3.55-2.9-7.08Z" class="cls-20"/><path d="M136.86 165.54" class="cls-5"/><path d="m123.15 53.76.01-.09q.06-.32.06-.66 0-.43-.15-.84a1.6 1.6 0 0 1-.65-.78c-.14-.37-.51-.64-.92-.52-.37.1-.66.54-.52.92a3.3 3.3 0 0 0 1.71 1.84q.23.09.47.12Zm.08-9.48s-.1-.02 0 0m-1.95-.35h.07z" class="cls-20"/><path d="M123.36 52.28h-.03zm-.73 1.34.06.02zm.78-1.34h-.02z" class="cls-103"/><path d="M162.17 141.83c-.14-.22-2.84-4.83-4.38-7.51l4.38 7.81v-.29Zm-9.79-17.26s-.05 0-.07.02zm9.8 17.26v.29l.48.85a9 9 0 0 0-.48-1.15Zm.49 1.19-.5.3v.02l.5-.31Zm-9.62-18.63-.66.19zm-.67.18-.07.02zm2.32 4.2-.02.02.76 1.36h.05z" class="cls-20"/><path d="m162.18 141.83-6.03-10.54q0 .02-.03.05l1.67 2.97c1.54 2.68 4.25 7.29 4.38 7.51Zm.49 1.18-.02-.03zm-8.68-15.47v-.02zm-34.24 23.88-.15.01q.24.06.54.18-.23-.19-.39-.19" class="cls-20"/><path d="M161.53 142.21c-2.79-4.45-5.29-9.08-7.85-13.68l-.5-.9a36 36 0 0 0-13.15 4.56c-1.07.62-2.07 1.35-3.13 1.98a6.5 6.5 0 0 1-3.15 1.13c-2.23.03-3.69-2.31-4.55-4.08q-.37-.78-.69-1.59c-.61-1.52-1.14-3.07-1.95-4.5-1.1-1.93-2.61-3.61-4.68-4.35a5.7 5.7 0 0 0-4.29.32l-.34.14-.16.12q-.68.39-1.27.91c-1.75 1.57-2.88 3.81-3.56 6.04a21 21 0 0 0-.84 6.34 28 28 0 0 0 .49 4.87l.8 3.66.06.22a31 31 0 0 0 1.36 4.31l.43 1.03v-.03c.29-.92 1.75-.57 1.45.4l-.32 1.04-.18.56q.79 1.5 1.73 2.9l.19.2q-.02-.43.03-.88c.1-.95.45-1.88 1.38-2.23 1.48-.55 2.36.98 3.13 1.93a15 15 0 0 0 2.88 2.64c2.24 1.63 4.73 2.98 6.5 5.16.75.92 1.44 1.86 1.95 2.98q.41.9.67 1.84l.69.14c1.59-1.27 3.15-2.63 4.66-3.99 3.8-3.45 7.44-7.06 11.28-10.47 3.47-3.08 7.12-6.09 11.21-8.31l-.27-.42Z" class="cls-5"/><path d="m103.13 139.2-.13-.02.13.06zm48.51-56.61a.76.76 0 0 0-.16-.93 5 5 0 0 0-.65-.29c-.56-.21-2.63-.55-3.6-1.27q-1.16-.25-2.33-.31.17.85.81 1.56c1.69.19 3.39.75 4.9 1.51.36.18.81.1 1.02-.27Z" class="cls-73"/><path d="m122.95 70.73-.46-1.94-.11-.47c.37-.36.2-.93-.17-1.17l-.3-.1a.7.7 0 0 0-.43.09c-.65.39-1.2.58-1.94.81q-1.21.36-2.47.58c-1.44.25-3.36.58-4.74-.05a4.5 4.5 0 0 1-1.82-1.63 59 59 0 0 1-1.58-2.51q-.3.07-.63.1c-.42.04-.73-.38-.75-.75-.02-.38.27-.63.59-.72l-.64-1.18-.02-.03a.7.7 0 0 0-.55-.36h-.3l-1.66.35c-.46.1-1.03.31-1.5.23-.79-.14-.99-.97-.96-1.62.05-.85.23-1.78.28-2.69.05-.97.06-1.94.12-2.91s.14-1.9.47-2.84a.7.7 0 0 0-.04-.51l-.01-.07a30 30 0 0 1-1.14-4.84q-.29-2.19-.16-4.39-.75.06-1.5.03c-.19 3.27.39 6.47 1.35 9.59-.61 1.9-.47 4.03-.58 6-.02.46-.06 1.01-.12 1.41-.07.51-.18 1.02-.17 1.54.02 1.18.7 2.25 1.82 2.67.68.25 1.39.09 2.08-.05l1.52-.32a58 58 0 0 0 2.76 4.61l.02.02a7 7 0 0 0 1.98 1.96c.89.52 1.92.73 2.94.74a24 24 0 0 0 5.39-.81q.74-.2 1.47-.48l.1.42.5 2.12.37 1.57c.39.28 1.03.23 1.57.14l-.6-2.55Z" class="cls-20"/><path d="M122.21 67.14a1 1 0 0 0-.3-.1z" class="cls-73"/><path d="M163.85 175.4s0-.1-.02-.14l-.34-2.65-.13-1.08-.27-2.3q-.22-1.88-.39-3.77l-.71.4-.72.39-1.47.79-1.19.64-.65.33-2.85 1.45q-1.28.65-2.57 1.26-3.06 1.48-6.16 2.91l-5.91 2.71-1.63.76-1.6.76a199 199 0 0 0 14.24-.47q1.7-.12 3.41-.28l2.67-.24.2-.02.61-.07 2-.23.42-.05 2.14-.28.14-.02h.02l.18-.03h.02q.25-.05.39-.26l.1-.16a1 1 0 0 0 .06-.3v-.04Z" class="cls-12"/><path d="M177.14 116.53v-.02zm-2.77 2.17-.03-.05-.07.03z" class="cls-73"/><g style="clip-path:url(#clippath)"><path d="M101.69 62.09h9.63v115.36h-9.63z" class="cls-6"/><path d="M111.31 62.09h.65v115.36h-.65z" class="cls-6"/><path d="M111.96 62.09h.65v115.36h-.65z" style="fill:#e8b140"/><path d="M112.61 62.09h.65v115.36h-.65z" style="fill:#e8b141"/><path d="M113.26 62.09h.65v115.36h-.65z" style="fill:#e9b242"/><path d="M113.91 62.09h.65v115.36h-.65z" style="fill:#e9b243"/><path d="M114.56 62.09h.65v115.36h-.65z" style="fill:#e9b344"/><path d="M115.21 62.09h.65v115.36h-.65z" style="fill:#e9b445"/><path d="M115.86 62.09h.65v115.36h-.65z" style="fill:#e9b447"/><path d="M116.51 62.09h.65v115.36h-.65z" style="fill:#eab548"/><path d="M117.16 62.09h.65v115.36h-.65z" style="fill:#eab649"/><path d="M117.81 62.09h.65v115.36h-.65z" style="fill:#eab64a"/><path d="M118.46 62.09h.65v115.36h-.65z" style="fill:#eab74b"/><path d="M119.11 62.09h.65v115.36h-.65z" style="fill:#eab74c"/><path d="M119.76 62.09h.65v115.36h-.65z" style="fill:#eab84d"/><path d="M120.41 62.09h.65v115.36h-.65z" style="fill:#ebb94e"/><path d="M121.06 62.09h.65v115.36h-.65z" style="fill:#ebb94f"/><path d="M121.71 62.09h.65v115.36h-.65z" style="fill:#ebba50"/><path d="M122.36 62.09h.65v115.36h-.65z" style="fill:#ebba51"/><path d="M123.01 62.09h.65v115.36h-.65z" style="fill:#ebbb52"/><path d="M123.66 62.09h.65v115.36h-.65z" style="fill:#ecbc53"/><path d="M124.31 62.09h.65v115.36h-.65z" style="fill:#ecbc54"/><path d="M124.96 62.09h.65v115.36h-.65z" style="fill:#ecbd55"/><path d="M125.61 62.09h.65v115.36h-.65z" style="fill:#ecbd56"/><path d="M126.26 62.09h.65v115.36h-.65z" style="fill:#ecbe57"/><path d="M126.9 62.09h.65v115.36h-.65z" style="fill:#ecbe58"/><path d="M127.55 62.09h.65v115.36h-.65z" style="fill:#edbf59"/><path d="M128.2 62.09h.65v115.36h-.65z" style="fill:#edbf5a"/><path d="M128.85 62.09h.65v115.36h-.65zm.65 0h.29v115.36h-.29zm.29 0h.29v115.36h-.29z" style="fill:#edc05b"/><path d="M130.08 62.09h.29v115.36h-.29z" style="fill:#edc05c"/><path d="M130.38 62.09h.29v115.36h-.29z" style="fill:#edc15c"/><path d="M130.67 62.09h.29v115.36h-.29z" style="fill:#edc15d"/><path d="M130.96 62.09h.29v115.36h-.29zm.29 0h.29v115.36h-.29z" style="fill:#edc15e"/><path d="M131.54 62.09h.29v115.36h-.29z" style="fill:#edc15f"/><path d="M131.83 62.09h.29v115.36h-.29z" style="fill:#edc260"/><path d="M132.12 62.09h.29v115.36h-.29z" style="fill:#eec260"/><path d="M132.41 62.09h.29v115.36h-.29z" style="fill:#eec261"/><path d="M132.7 62.09h.29v115.36h-.29zm.29 0h.29v115.36h-.29z" style="fill:#eec362"/><path d="M133.28 62.09h.29v115.36h-.29z" style="fill:#eec363"/><path d="M133.57 62.09h.29v115.36h-.29z" style="fill:#eec364"/><path d="M133.86 62.09h.29v115.36h-.29zm.29 0h.29v115.36h-.29z" style="fill:#eec465"/><path d="M134.45 62.09h.29v115.36h-.29z" style="fill:#eec466"/><path d="M134.74 62.09h.29v115.36h-.29z" style="fill:#eec567"/><path d="M135.03 62.09h.29v115.36h-.29zm.29 0h.29v115.36h-.29z" style="fill:#eec568"/><path d="M135.61 62.09h.29v115.36h-.29z" style="fill:#efc569"/><path d="M135.9 62.09h.29v115.36h-.29z" style="fill:#efc66a"/><path d="M136.19 62.09h.29v115.36h-.29z" style="fill:#efc66b"/><path d="M136.48 62.09h.29v115.36h-.29z" style="fill:#efc66c"/><path d="M136.77 62.09h.29v115.36h-.29zm.29 0h.29v115.36h-.29z" style="fill:#efc76d"/><path d="M137.35 62.09h.29v115.36h-.29z" style="fill:#efc76e"/><path d="M137.64 62.09h.29v115.36h-.29z" style="fill:#efc86f"/><path d="M137.93 62.09h.29v115.36h-.29z" style="fill:#efc870"/><path d="M138.22 62.09h.29v115.36h-.29z" style="fill:#efc871"/><path d="M138.52 62.09h.29v115.36h-.29z" style="fill:#efc972"/><path d="M138.81 62.09h.29v115.36h-.29zm.29 0h.29v115.36h-.29z" style="fill:#f0c973"/><path d="M139.39 62.09h.29v115.36h-.29z" style="fill:#f0ca74"/><path d="M139.68 62.09h.29v115.36h-.29z" style="fill:#f0ca75"/><path d="M139.97 62.09h.29v115.36h-.29z" style="fill:#f0ca76"/><path d="M140.26 62.09h.29v115.36h-.29z" style="fill:#f0cb77"/><path d="M140.55 62.09h.29v115.36h-.29z" style="fill:#f0cb78"/><path d="M140.84 62.09h.29v115.36h-.29z" style="fill:#f0cb79"/><path d="M141.13 62.09h.29v115.36h-.29z" style="fill:#f0cc7a"/><path d="M141.42 62.09h.29v115.36h-.29z" style="fill:#f0cc7b"/><path d="M141.71 62.09h.29v115.36h-.29zm.29 0h.29v115.36H142z" style="fill:#f1cd7c"/><path d="M142.29 62.09h.29v115.36h-.29z" style="fill:#f1cd7d"/><path d="M142.59 62.09h.29v115.36h-.29z" style="fill:#f1ce7e"/><path d="M142.88 62.09h.29v115.36h-.29z" style="fill:#f1ce7f"/><path d="M143.17 62.09h.29v115.36h-.29z" style="fill:#f1ce80"/><path d="M143.46 62.09h.29v115.36h-.29z" style="fill:#f1cf81"/><path d="M143.75 62.09h.29v115.36h-.29z" style="fill:#f1cf82"/><path d="M144.04 62.09h.29v115.36h-.29z" style="fill:#f1cf83"/><path d="M144.33 62.09h.29v115.36h-.29z" style="fill:#f2d084"/><path d="M144.62 62.09h.29v115.36h-.29z" style="fill:#f2d085"/><path d="M144.91 62.09h.29v115.36h-.29z" style="fill:#f2d086"/><path d="M145.2 62.09h.29v115.36h-.29z" style="fill:#f2d187"/><path d="M145.49 62.09h.29v115.36h-.29z" style="fill:#f2d188"/><path d="M145.78 62.09h.29v115.36h-.29z" style="fill:#f2d289"/><path d="M146.07 62.09h.29v115.36h-.29z" style="fill:#f2d28a"/><path d="M146.36 62.09h.29v115.36h-.29z" style="fill:#f2d28b"/><path d="M146.66 62.09h.29v115.36h-.29z" style="fill:#f2d38c"/><path d="M146.95 62.09h.29v115.36h-.29z" style="fill:#f2d38d"/><path d="M147.24 62.09h.29v115.36h-.29z" style="fill:#f3d48e"/><path d="M147.53 62.09h.29v115.36h-.29z" style="fill:#f3d48f"/><path d="M147.82 62.09h.29v115.36h-.29z" style="fill:#f3d490"/><path d="M148.11 62.09h.29v115.36h-.29z" style="fill:#f3d591"/><path d="M148.4 62.09h.29v115.36h-.29z" style="fill:#f3d592"/><path d="M148.69 62.09h.29v115.36h-.29z" style="fill:#f3d593"/><path d="M148.98 62.09h.29v115.36h-.29z" style="fill:#f3d694"/><path d="M149.27 62.09h.29v115.36h-.29z" style="fill:#f3d695"/><path d="M149.56 62.09h.29v115.36h-.29z" style="fill:#f3d796"/><path d="M149.85 62.09h.29v115.36h-.29z" style="fill:#f4d797"/><path d="M150.14 62.09h.29v115.36h-.29z" style="fill:#f4d798"/><path d="M150.43 62.09h.29v115.36h-.29z" style="fill:#f4d899"/><path d="M150.73 62.09h.29v115.36h-.29z" style="fill:#f4d89a"/><path d="M151.02 62.09h.29v115.36h-.29z" style="fill:#f4d99b"/><path d="M151.31 62.09h.29v115.36h-.29z" style="fill:#f4d99c"/><path d="M151.6 62.09h.29v115.36h-.29z" style="fill:#f4d99d"/><path d="M151.89 62.09h.29v115.36h-.29z" style="fill:#f4da9e"/><path d="M152.18 62.09h.29v115.36h-.29z" style="fill:#f4da9f"/><path d="M152.47 62.09h.29v115.36h-.29z" style="fill:#f5dba0"/><path d="M152.76 62.09h.29v115.36h-.29z" style="fill:#f5dba1"/><path d="M153.05 62.09h.29v115.36h-.29z" style="fill:#f5dba2"/><path d="M153.34 62.09h.29v115.36h-.29z" style="fill:#f5dca3"/><path d="M153.63 62.09h.29v115.36h-.29z" style="fill:#f5dca4"/><path d="M153.92 62.09h.29v115.36h-.29z" style="fill:#f5dda5"/><path d="M154.21 62.09h.29v115.36h-.29z" style="fill:#f5dda6"/><path d="M154.5 62.09h.29v115.36h-.29z" style="fill:#f5dda8"/><path d="M154.8 62.09h.29v115.36h-.29z" style="fill:#f6dea9"/><path d="M155.09 62.09h.29v115.36h-.29z" style="fill:#f6deaa"/><path d="M155.38 62.09h.29v115.36h-.29z" style="fill:#f6dfab"/><path d="M155.67 62.09h.29v115.36h-.29z" style="fill:#f6dfac"/><path d="M155.96 62.09h.29v115.36h-.29z" style="fill:#f6dfad"/><path d="M156.25 62.09h.29v115.36h-.29z" style="fill:#f6e0ae"/><path d="M156.54 62.09h.29v115.36h-.29z" style="fill:#f6e0af"/><path d="M156.83 62.09h.29v115.36h-.29z" style="fill:#f6e1b0"/><path d="M157.12 62.09h.29v115.36h-.29z" style="fill:#f6e1b1"/><path d="M157.41 62.09h.29v115.36h-.29z" style="fill:#f7e2b2"/><path d="M157.7 62.09h.29v115.36h-.29z" style="fill:#f7e2b3"/><path d="M157.99 62.09h.29v115.36h-.29z" style="fill:#f7e2b4"/><path d="M158.28 62.09h.29v115.36h-.29z" style="fill:#f7e3b5"/><path d="M158.57 62.09h.29v115.36h-.29z" style="fill:#f7e3b7"/><path d="M158.87 62.09h.29v115.36h-.29z" style="fill:#f7e4b8"/><path d="M159.16 62.09h.29v115.36h-.29z" style="fill:#f7e4b9"/><path d="M159.45 62.09h.29v115.36h-.29z" style="fill:#f7e4ba"/><path d="M159.74 62.09h.29v115.36h-.29z" style="fill:#f8e5bb"/><path d="M160.03 62.09h.29v115.36h-.29z" style="fill:#f8e5bc"/><path d="M160.32 62.09h.29v115.36h-.29z" style="fill:#f8e6bd"/><path d="M160.61 62.09h.29v115.36h-.29z" style="fill:#f8e6be"/><path d="M160.9 62.09h.29v115.36h-.29z" style="fill:#f8e7bf"/><path d="M161.19 62.09h.29v115.36h-.29z" style="fill:#f8e7c0"/><path d="M161.48 62.09h.29v115.36h-.29z" style="fill:#f8e7c2"/><path d="M161.77 62.09h.29v115.36h-.29z" style="fill:#f8e8c3"/><path d="M162.06 62.09h.29v115.36h-.29z" style="fill:#f9e8c4"/><path d="M162.35 62.09h.29v115.36h-.29z" style="fill:#f9e9c5"/><path d="M162.64 62.09h.29v115.36h-.29z" style="fill:#f9e9c6"/><path d="M162.94 62.09h.29v115.36h-.29z" style="fill:#f9eac7"/><path d="M163.23 62.09h.29v115.36h-.29z" style="fill:#f9eac8"/><path d="M163.52 62.09h.29v115.36h-.29z" style="fill:#f9eac9"/><path d="M163.81 62.09h.29v115.36h-.29z" style="fill:#f9ebcb"/><path d="M164.1 62.09h.29v115.36h-.29z" style="fill:#f9ebcc"/><path d="M164.39 62.09h.29v115.36h-.29z" style="fill:#f9eccd"/><path d="M164.68 62.09h.29v115.36h-.29z" style="fill:#faecce"/><path d="M164.97 62.09h.29v115.36h-.29z" style="fill:#faedcf"/><path d="M165.26 62.09h.29v115.36h-.29z" style="fill:#faedd0"/><path d="M165.55 62.09h.29v115.36h-.29z" style="fill:#faedd1"/><path d="M165.84 62.09h.29v115.36h-.29z" style="fill:#faeed2"/><path d="M166.13 62.09h.29v115.36h-.29z" style="fill:#faeed4"/><path d="M166.42 62.09h.29v115.36h-.29z" style="fill:#faefd5"/><path d="M166.71 62.09h.29v115.36h-.29z" style="fill:#faefd6"/><path d="M167.01 62.09h.29v115.36h-.29z" style="fill:#fbf0d7"/><path d="M167.3 62.09h.29v115.36h-.29z" style="fill:#fbf0d8"/><path d="M167.59 62.09h.29v115.36h-.29z" style="fill:#fbf1d9"/><path d="M167.88 62.09h.29v115.36h-.29z" style="fill:#fbf1db"/><path d="M168.17 62.09h.29v115.36h-.29z" style="fill:#fbf1dc"/><path d="M168.46 62.09h.29v115.36h-.29z" style="fill:#fbf2dd"/><path d="M168.75 62.09h.29v115.36h-.29z" style="fill:#fbf2de"/><path d="M169.04 62.09h.29v115.36h-.29z" style="fill:#fcf3df"/><path d="M169.33 62.09h.29v115.36h-.29z" style="fill:#fcf3e0"/><path d="M169.62 62.09h.29v115.36h-.29z" style="fill:#fcf4e1"/><path d="M169.91 62.09h.29v115.36h-.29z" style="fill:#fcf4e3"/><path d="M170.2 62.09h.29v115.36h-.29z" style="fill:#fcf5e4"/><path d="M170.49 62.09h.29v115.36h-.29z" style="fill:#fcf5e5"/><path d="M170.78 62.09h.29v115.36h-.29z" style="fill:#fcf5e6"/><path d="M171.08 62.09h.29v115.36h-.29z" style="fill:#fcf6e7"/><path d="M171.37 62.09h.29v115.36h-.29z" style="fill:#fdf6e8"/><path d="M171.66 62.09h.29v115.36h-.29z" style="fill:#fdf7ea"/><path d="M171.95 62.09h.29v115.36h-.29z" style="fill:#fdf7eb"/><path d="M172.24 62.09h.29v115.36h-.29z" style="fill:#fdf8ec"/><path d="M172.53 62.09h.29v115.36h-.29z" style="fill:#fdf8ed"/><path d="M172.82 62.09h.29v115.36h-.29z" style="fill:#fdf9ee"/><path d="M173.11 62.09h.29v115.36h-.29z" style="fill:#fdf9f0"/><path d="M173.4 62.09h.29v115.36h-.29z" style="fill:#fdfaf1"/><path d="M173.69 62.09h.29v115.36h-.29z" style="fill:#fefaf2"/><path d="M173.98 62.09h.29v115.36h-.29z" style="fill:#fefaf3"/><path d="M174.27 62.09h.29v115.36h-.29z" style="fill:#fefbf4"/><path d="M174.56 62.09h.29v115.36h-.29z" style="fill:#fefbf5"/><path d="M174.85 62.09h.29v115.36h-.29z" style="fill:#fefcf7"/><path d="M175.15 62.09h.29v115.36h-.29z" style="fill:#fefcf8"/><path d="M175.44 62.09h.29v115.36h-.29z" style="fill:#fefdf9"/><path d="M175.73 62.09h.29v115.36h-.29z" style="fill:#fefdfa"/><path d="M176.02 62.09h.29v115.36h-.29z" style="fill:#fffefb"/><path d="M176.31 62.09h.29v115.36h-.29z" style="fill:#fffefd"/><path d="M176.6 62.09h.29v115.36h-.29z" style="fill:#fffffe"/><path d="M176.89 62.09h.29v115.36h-.29zm.29 0h.14v115.36h-.14z" class="cls-103"/></g><path d="M184.63 140.27a8 8 0 0 0-1.12-1.51 115 115 0 0 0-7.46-20.02l-.33-.67-.34-.68-.26-.53-.06-.13-.25-.5c-.18-.36-.69-.47-1.02-.27a1 1 0 0 0-.26.28.8.8 0 0 0-.01.74l.16.33.31.62.02.04.34.68q0 .02.03.05a115 115 0 0 1 7.7 20.46q0 .04.03.07.04.23.2.41c.44.49.89 1 1.15 1.61q.34.8-.05 1.6-1 2.08-1.92 4.2a21 21 0 0 1-1.89 3.41l-.36.5-.08.1-.01.02-.22.27a32 32 0 0 1-3.8 3.92 52 52 0 0 1-4.71 3.68 96 96 0 0 1-8.43 5.23q-1.52.85-3.05 1.66l-.31.16-2.04 1.06a219 219 0 0 1-5.38 2.67q-2.16 1.04-4.33 2.05c-3.34 1.56-6.71 3.07-10.04 4.64l-.05.02-.29.13-.96.46c-3 1.11-6.42.64-8.89-1.45-1.43-1.21-2.7-2.62-4.01-3.95a329 329 0 0 1-4.11-4.25q-2.26-2.38-4.41-4.87l-.06-.18a6 6 0 0 1-.43-2.44c0-.83.07-1.72.21-2.56.29-1.8.78-3.56 1.31-5.3l.41-1.3.18-.56.32-1.04c.3-.97-1.16-1.32-1.45-.4v.03c-1.12 3.58-2.43 7.23-2.47 11.02a8 8 0 0 0 .63 3.31q.03.07.09.13.06.16.17.31c2.64 3.06 5.44 5.98 8.27 8.86 1.38 1.4 2.72 2.89 4.21 4.17q.56.48 1.17.88a10 10 0 0 0 3.55 1.47c1.93.37 3.96.23 5.8-.48l.03-.02.14-.05 1.09-.52 1.6-.76 1.63-.76 5.91-2.71a383 383 0 0 0 6.16-2.91l2.57-1.26q1.42-.71 2.85-1.45l.65-.33 1.19-.64 1.47-.79.72-.39.71-.4q3.94-2.18 7.67-4.69c3.31-2.25 6.55-4.76 9.15-7.83a20 20 0 0 0 2.82-4.2c.65-1.35 1.18-2.74 1.83-4.09.33-.68.77-1.36.9-2.12a3.7 3.7 0 0 0-.43-2.26Zm-53.71 38.02a7 7 0 0 1-2.04-.56c.85.23 1.8.39 2.69.48a4 4 0 0 1-.65.09Z" class="cls-20"/><circle cx="148.3" cy="141.32" r="2.2" class="cls-118"/><path d="M143.29 116.71q1.3 2.84 2.72 5.63l2.06 4.01.03.03c.17.27.53.47.84.34l1.09-.41q.99-.38 1.99-.73l-.37-.65-.07-.12-.32-.56-.26-.46c-.49-.83.81-1.59 1.29-.75l.41.72.35.61v.01l.4.71c4.04-1.31 8.17-2.35 12.26-3.53a117 117 0 0 0 4.99-1.55 63 63 0 0 0 3.56-1.34l.07-.03-.34-.68-.02-.04-.31-.62-.16-.33a.8.8 0 0 1 .01-.74 1 1 0 0 1 .26-.28c.33-.2.84-.09 1.02.27l.31.63.26.53.34.68q.58-.25 1.14-.52c.36-.17.45-.68.27-1.01v-.02q-.85-1.87-1.77-3.71l-.14-.29-1-1.91q-.66-1.27-1.35-2.53l-.98-1.71-10.46-20.52-.05-.08s-.01-.07-.03-.1q-.32-.66-.67-1.31-.66-1.25-1.41-2.42a35 35 0 0 0-2.17-3.02c-1.67-2.08-3.44-3.89-5.19-5.8l-.47-.52-.01-.02-8.77-10.06c-.26-.3-.73-.43-1.09-.08l-.18.17-17.43 10.59-.12.03h-.04l-.24.04c-.55.09-1.18.13-1.57-.14l-.05-.03q-.2-.15-.43-.19c-.32-.11-.76-.02-.9.31l-.31.71-1.24 2.87q-1.34 3.07-2.63 6.18-.47 1.12-.88 2.26v.02q-1.48 3.57-2.74 7.22l-.67 2.01q-.6 1.81-1.15 3.64l-.66 2.18-.35 1.25-.42 1.52h.01l.31.23-.31-.23h-.01l-.54 2.03a198 198 0 0 0-3.29 15.28l-.26 1.49q-.86 5.08-1.51 10.18l-.27 2.13-.07.52-.23 2.09-.1.89-.14 1.27-.03.25v.03l-.18 1.95-.1 1.12a330 330 0 0 0-.75 10.7q-.45 9.17-.32 18.34l.04 2.31.01.08q.02.16.09.27l.02.04.03.05a.6.6 0 0 0 .4.27 192 192 0 0 0 24.26 3.07q-.6-.4-1.17-.88c-1.49-1.28-2.83-2.77-4.21-4.17-2.83-2.88-5.63-5.8-8.27-8.86a1 1 0 0 1-.17-.31l-.09-.13a7.4 7.4 0 0 1-.63-3.31c.04-3.79 1.35-7.44 2.47-11.02l-.43-1.03q-.4-.98-.71-1.98-.37-1.16-.65-2.33l-.06-.23q-.47-1.8-.8-3.66-.22-1.31-.36-2.62-.11-1.12-.13-2.25c-.03-2.14.2-4.27.84-6.34.68-2.22 1.81-4.47 3.56-6.04q.59-.53 1.27-.91.07-.07.16-.12l.34-.14a5.7 5.7 0 0 1 4.29-.32c2.07.73 3.58 2.42 4.68 4.35.81 1.42 1.34 2.98 1.95 4.5h.04a7 7 0 0 0 4.78.01l.47-.2c2.58-1.06 4.45-3.36 5.43-5.94.59-1.53.86-3.1 1.09-4.72a12 12 0 0 1 .66-2.55q.26-.59.61-1.1c.29 0 .64-.09.9-.26" style="fill:#ffd066"/><path d="M73.71 119.85V53.94h-.06l.03 65.91z" class="cls-2"/><path d="m55.88 99.73-.22-33.69a2.8 2.8 0 0 0-3.01-2.78L24.1 65.28a2.8 2.8 0 0 0-2.61 2.76c-.11 9.99-.12 22.5-.02 33.16a2.8 2.8 0 0 0 3.01 2.77c7.46-.55 21.15-1.54 23.78-1.68 1.92-.1 3.84-.21 5.75-.44 1.47-.14 1.99-1.23 1.87-2.11Z" style="fill:#e0ddd9"/><path d="m57.43 97.93-.22-33.69a2.8 2.8 0 0 0-3.01-2.78l-28.55 2.02a2.8 2.8 0 0 0-2.61 2.76c-.11 9.99-.12 22.5-.02 33.16a2.8 2.8 0 0 0 3.01 2.77c7.46-.55 21.15-1.54 23.78-1.68 1.92-.1 3.84-.21 5.75-.44 1.47-.14 1.99-1.23 1.87-2.11Z" class="cls-5"/><path d="m55.09 77.4-1.16-.03c-.32 0-.54-.28-.54-.62.05-2.39-.54-4.74-1.83-6.59-1.94-2.77-5.22-3.95-8.55-3.62a.54.54 0 0 1-.61-.51l-.1-1.19c-.03-.35.23-.69.57-.72q2.17-.22 4.25.24c4.12.94 7.21 4.12 8.23 8.45q.44 1.92.4 3.94c0 .36-.31.66-.66.65m-28.11 7.61c.32 0 .54.28.53.62-.15 3.44 1.02 6.76 3.57 8.74a9.5 9.5 0 0 0 6.84 1.79c.32-.03.59.2.62.54l.1 1.26c.03.37-.24.73-.59.76-2.63.27-5.28-.19-7.49-1.53a11 11 0 0 1-3.83-4.01 14 14 0 0 1-1.6-7.56c.02-.37.33-.67.68-.66l1.17.03Z" class="cls-103"/><path d="m49.44 77.21-1.19-.04a.55.55 0 0 1-.54-.55 4.7 4.7 0 0 0-1.03-2.92 4 4 0 0 0-3.21-1.26c-.29 0-.52-.22-.55-.53l-.11-1.24c-.03-.36.24-.71.59-.73a6.3 6.3 0 0 1 4.24 1.23 6.8 6.8 0 0 1 2.45 5.36c0 .37-.31.68-.66.67Zm-16.21 8.81c-.02 1.42.4 2.09.79 2.44.86.77 1.68 1.64 3.45 1.59.3 0 .53.24.56.56l.14 1.72c.01.24-.12.21-.26.24A6.07 6.07 0 0 1 31.09 88a8 8 0 0 1-.26-2.15c0-.37.32-.68.67-.67l.97-.02c.2 0 .42-.03.52.04.18.13.24.44.24.83ZM44.5 95l10.09-.74c1.45.01 1.5 2.13.09 2.44l-10.21.74c-1.38-.09-1.37-2.16.02-2.44Z" class="cls-103"/><path d="m44.88 95.55.03.28.17-.29.46-.04-.43.7.19.64-.5.04-.06-.29-.22.3-.45.04.47-.73-.16-.61zm1.29-.09.03.28.17-.3.47-.03-.43.7.19.64-.5.03-.07-.28-.22.3-.44.03.47-.73-.17-.61zm1.33-.1.03.28.17-.29.46-.04-.42.7.19.64-.5.04-.07-.28-.22.29-.44.04.47-.73-.17-.61zm1.29-.09.04.28.16-.3.47-.03-.43.7.19.64-.49.03-.07-.28-.22.3-.45.03.47-.73-.16-.61zm1.73-.13.03.29.17-.3.46-.03-.42.69.19.64-.5.04-.06-.28-.23.29-.44.04.47-.73-.17-.61zm1.29-.09.04.28.16-.29.47-.04-.43.7.2.64-.5.03-.07-.28-.22.3-.44.04.46-.74-.17-.6zm1.3-.09.03.28.17-.3.46-.03-.42.7.19.63-.5.04-.06-.28-.23.29-.44.04.47-.73-.17-.61zm1.29-.1.03.28.17-.29.46-.04-.42.7.2.64-.5.04-.07-.28-.22.29-.44.04.46-.73-.17-.61z" style="fill:#ff8100"/><path d="M45.57 80.43c-.03-.09-.49-.95-1.33-2.01s-.04-.06-.04-.09c-.09-1.16-.25-1.92-.25-1.92a.3.3 0 0 0-.26-.23s-.88-.05-.88-.05h-.02c-.1 0-.19.1-.19.21v.32l-.01.01q-.78-.7-1.76-1.29a.7.7 0 0 0-.43-.11 1 1 0 0 0-.44.17 17 17 0 0 0-4.83 5.73s-.03.09-.03.14q.01.24.22.29l.88.12q.19.06.22.26c0 .16.13 3.84.33 4.78q.06.22.29.22l1.49-.14h.04q.09-.01.1-.11l-.08-1.83v-.06a.2.2 0 0 0-.09-.15 1 1 0 0 1-.45-.78c-.03-1.29-.04-2.77.04-3.94q.02-.16.17-.19.17.01.18.17v.01a43 43 0 0 0-.06 2.6c0 .12.1.21.21.2.12-.01.21-.12.21-.24 0-.91 0-1.83.06-2.61q.02-.16.17-.19.16.01.18.17v.01c-.05.77-.06 1.68-.06 2.59 0 .12.1.21.21.2s.21-.12.21-.24c0-.91 0-1.82.06-2.6q.02-.16.17-.19.16.01.18.17v.01a48 48 0 0 0-.03 3.82v.04c0 .35-.17.66-.42.86q-.07.06-.08.15s-.02.2.05 1.13l.07.82s.04.08.09.08h.08l.53-.04h.06l.66-.05.5-.03q.08 0 .09-.09c.12-1.14.16-1.77.16-1.77q0-.1-.09-.1l-.61-.05q-.14-.02-.17-.15v-.1c.27-3.76 1.44-5.1 1.44-5.1l.06-.06q.05-.04.11-.05.13 0 .17.11l.01.09c.09 1.16.03 3.17-.04 4.73-.06 1.33-.13 2.38-.13 2.38q0 .07.07.07l1-.05a.3.3 0 0 0 .29-.26c.21-.97.4-4.67.41-4.83q.03-.2.22-.29l.88-.24a.4.4 0 0 0 .23-.33q0-.07-.03-.13Z" class="cls-103"/><path d="M81.03 76.56q.06-.44.05-.87l.04-.93.07-1.88.11-3.74q.05-1.88.03-3.74v-.93q.02-.41-.06-.83c-.06-.27-.19-.53-.44-.67-.28-.16-.59-.13-.9-.1-.53.05-1.07.15-1.5.48-.44.33-.66.87-.73 1.41-.06.55.02 1.11.12 1.65l.34 1.9 1.17 6.59.11.87.11.75.06.34c.03.17.04.36.19.47.23.17.56.13.8-.02.26-.16.38-.44.43-.73Z" style="fill:#e4b23f"/><path id="Layer_12" d="M81.03 76.56q.06-.44.05-.87l.04-.93.07-1.88.11-3.74q.05-1.88.03-3.74v-.93q.02-.41-.06-.83c-.06-.27-.19-.53-.44-.67-.28-.16-.59-.13-.9-.1-.53.05-1.07.15-1.5.48-.44.33-.66.87-.73 1.41-.06.55.02 1.11.12 1.65l.34 1.9 1.17 6.59.11.87.11.75.06.34c.03.17.04.36.19.47.23.17.56.13.8-.02.26-.16.38-.44.43-.73Zm17.81-9.89a1.4 1.4 0 0 0-.52-.84c-.8-.67-2.13-1.37-2.98-.38q-.33.42-.6.89l-.59.91-1.19 1.86-.15.23-2.18 3.45-2.29 3.71-.7 1.16-.43.7-.42.7-.14.23-.19.31q-.07.1-.12.22l-.11.25q0 .05-.03.08l-.03.23a.7.7 0 0 0 .3.55q.05.07.13.12l.2.08h.14q.12 0 .23-.04.1-.03.2-.1.18-.13.33-.3l1.48-1.66q1.47-1.65 2.9-3.33 2.85-3.33 5.6-6.76c.37-.46.82-.93 1.05-1.49q.16-.38.12-.79Zm6.51 14.9q-.12-.48-.28-.96c-.1-.31-.19-.66-.38-.94-.2-.31-.53-.43-.89-.4-.6.04-1.2.26-1.74.5q-.89.42-1.75.88l-6.33 3.27-1.17.6-.11.06q-.37.15-.71.34-.19.1-.32.27a.6.6 0 0 0-.15.39c-.02.35.25.6.57.67.3.06.62-.02.91-.08l.78-.16.21-.04a143 143 0 0 0 7.89-1.94l1.94-.56.96-.29c.33-.11.63-.31.69-.67.06-.3-.05-.62-.12-.91Z" class="cls-12" data-name="Layer 12"/><path d="M69.47 137.82a1 1 0 0 0 .06.41" class="cls-20"/><path d="m152.81 126.97-.79-1.39q-1 .35-1.99.73l-1.09.41c-.31.13-.67-.07-.84-.34l-.03-.03-2.06-4.01a132 132 0 0 1-3.52-7.45c-.26.17-.61.26-.9.26a7 7 0 0 0-.87 1.82 10 10 0 0 0-.4 1.83c-.23 1.61-.5 3.19-1.09 4.72-.99 2.58-2.85 4.88-5.43 5.94-.24.1-.47.2-1.16.39q-.8.2-1.62.22a7 7 0 0 1-2.47-.43h-.04q.32.81.69 1.59c.86 1.77 2.32 4.11 4.55 4.08a6.5 6.5 0 0 0 3.15-1.13c1.06-.63 2.07-1.35 3.13-1.98a37 37 0 0 1 13.15-4.56z" class="cls-118"/><path d="M117.46 154.3q-.05.2-.02.41.2 1.19.34 2.36c.11.85.16 1.78.46 2.59q.27.76.92 1.23c.34.24.74.37 1.12.55.82.39 1.39 1.11 1.95 1.81q.17.2.44.21.4 1.38.38 2.83c-.01.97 1.48.97 1.5 0 .04-2.77-.99-5.41-2.81-7.47-.85-.97-1.83-1.86-2.36-3.06a5 5 0 0 1-.44-1.8q-.02-.48.01-.94c0-.12 0-.08.04-.23l.06-.24.06-.15.1-.17.08-.08c-.03.04.13-.05.02-.02l.05-.03h.08q-.08-.03 0 0l.11.03.19.11c.38.28.7.84 1.03 1.26a15 15 0 0 0 2.78 2.65c2.03 1.56 4.39 2.75 6.15 4.63.85.91 1.61 1.95 2.17 3.07.26.51.41.89.59 1.47q.3.98.52 1.98c.06.26.28.45.53.52l.07.02h.03q.25.05.47-.09l.07-.05.02-.01q1.38-1.04 2.71-2.14l.01-.01c2.84-2.36 5.52-4.91 8.21-7.44 3.55-3.35 7.39-7.04 11.43-10.15a48 48 0 0 1 5.66-3.78l.47-.27q.73 1.12 1.54 2.19c.24.32.65.49 1.02.27.32-.19.51-.7.27-1.02a75 75 0 0 1-4.81-7.5q-2.66-4.63-5.24-9.31l-1.94-3.42-.4-.71-.74.2s.04-.03.07-.02l.66-.19-.35-.61-.41-.72c-.49-.83-1.78-.08-1.29.76l.26.45.32.56.07.12.37.65.79 1.39.37.66.5.9c2.56 4.59 5.06 9.22 7.85 13.68l.27.42c-4.09 2.22-7.74 5.23-11.21 8.31-3.84 3.41-7.48 7.03-11.28 10.47a88 88 0 0 1-4.66 3.99l-.52.42-.17-.56q-.28-.94-.67-1.84a14 14 0 0 0-1.95-2.98c-1.77-2.18-4.26-3.53-6.5-5.16a15 15 0 0 1-2.88-2.64c-.77-.95-1.65-2.48-3.13-1.93-.92.35-1.28 1.28-1.38 2.23q-.05.46-.03.88 0 .24.03.45v.03Zm3.36 5.75-.59-.27a1 1 0 0 1-.6-.71l-.11-.47q.66.71 1.3 1.44Zm33.17-32.53v.02zm1.45 2.64-.76-1.36.02-.02.79 1.38zm-36.14 21.97" class="cls-20"/><path d="M135.01 137.37a4.8 4.8 0 0 1-3.56-1.27 9 9 0 0 1-1.37-1.62c-.44-.66-.82-1.18-1.58-4-.73-2.72-1.38-5.37-2.79-7.21a8 8 0 0 0-2.24-2.08 6 6 0 0 0-2.16-.82c-1.28-.18-1.95.19-1.92.24.02.12.7-.05 1.81.27.55.16 1.2.45 1.86.93a8 8 0 0 1 1.89 2.01c.58.84 1.01 1.9 1.38 3.08s.65 2.5 1 3.9c.35 1.39.81 2.92 1.65 4.34a8 8 0 0 0 3.75 3.53c.86.35 1.8.48 2.69.43a8 8 0 0 0 2.5-.65 15 15 0 0 0 3.86-2.63c1.08-.97 2.03-1.92 3-2.68a10 10 0 0 1 2.89-1.69 5.7 5.7 0 0 1 4.64.36c.97.61 1.25 1.26 1.36 1.2.06 0-.05-.78-1.06-1.62a6 6 0 0 0-5.21-.83c-1.13.32-2.22.93-3.28 1.71-1.38 1.02-1.72 1.5-3.14 2.64-.54.43-1.28.99-2.24 1.59-.82.51-1.76.79-2.72.83l-.98.04Z" class="cls-103"/><path d="M117.81 92.4c1.31.23 2.69.88 3.75 1.94a9 9 0 0 1 1.43 2c.5.84 1.04 1.88 1.97 2.94a6.7 6.7 0 0 0 4.19 2.23 4.8 4.8 0 0 0 2.95-.65c.9-.56 1.43-1.25 1.83-1.76a26 26 0 0 1 4.64-4.85 8 8 0 0 1 2.45-1.46 2.3 2.3 0 0 1 1.84.11c.62.3 1.32.94 2.02 1.71.7.75 1.38 1.68 2.39 2.59.97.86 2.06 1.6 3.42 2.04.68.21 1.44.34 2.23.26a5 5 0 0 0 2.2-.74c1.31-.86 1.86-1.94 2.32-2.67.46-.78.78-1.29 1.17-1.61a4.7 4.7 0 0 1 3.14-.94c1.09.03 2.11.33 2.95.58l1.14.37-1.23-2.42a9 9 0 0 0-2.52-.97 7 7 0 0 0-5.3.85 9 9 0 0 0-2.17 2.25 5 5 0 0 1-1.37 1.43c-.38.16-.72.18-1.32-.05a6 6 0 0 1-1.88-1.32c-.58-.56-1.2-1.45-1.99-2.39a11 11 0 0 0-3.2-2.79 6.6 6.6 0 0 0-5.12-.48c-1.6.5-2.84 1.35-3.92 2.21a28 28 0 0 0-5.35 5.71q-.47.64-.62.71c-.08.05-.14.09-.34.09-.4.01-1.12-.34-1.57-.8-1.1-1.05-2.01-3.29-3.92-4.89a10 10 0 0 0-5.88-2.32 9 9 0 0 0-4.52.96q-.41 1.1-.8 2.22l-.38 1.14a7.4 7.4 0 0 1 5.39-1.22Zm3.9-12.67q1.37.23 2.8 1.17.7.47 1.38 1.11c.42.4.91.96 1.55 1.58a7 7 0 0 0 2.79 1.74 5 5 0 0 0 3.97-.49 12 12 0 0 0 2.48-1.87q1.04-1 1.94-2c1.21-1.32 2.25-2.48 3.35-3.22a6 6 0 0 1 3.21-1.18c.92 0 1.82.44 2.79 1.21.96.74 1.91 1.67 2.97 2.44 2.32 1.7 4.84 1.81 6.36 1.09.46-.22.79-.51 1.02-.79l-.13-.2-.6-.78a3 3 0 0 1-.78.12 5.5 5.5 0 0 1-3.86-1.82c-.73-.74-1.48-1.72-2.56-2.8-.55-.53-1.19-1.1-2.02-1.58a7 7 0 0 0-2.91-.94c-2.16-.2-4.2.56-5.87 1.63-1.73 1.1-3.03 2.55-4.22 3.85q-.89.98-1.71 1.8a10 10 0 0 1-1.54 1.27c-.46.25-.54.24-.77.22-.24-.03-.7-.29-1.2-.71-.51-.41-1.05-.95-1.74-1.49q-1-.78-2.09-1.34a10 10 0 0 0-4.41-1.1 7 7 0 0 0-3.06.68l-1.49 3.5.13-.1a5.7 5.7 0 0 1 4.22-.97Zm-5.63 28.32q1.16.1 2.19.62c.66.35 1.24.86 1.95 1.62.7.74 1.49 1.72 2.71 2.59a10.1 10.1 0 0 0 8.84 1.32 12 12 0 0 0 4.09-2.44c1.13-.98 2.07-1.99 3-2.82a9 9 0 0 1 2.78-1.77 3 3 0 0 1 2.37.1 9 9 0 0 1 2.37 2.15c.84.97 1.68 2.08 2.84 3.12a8 8 0 0 0 4.45 2.16c1.71.22 3.27-.2 4.55-.77a15 15 0 0 0 3.28-2.09c1.88-1.6 3.11-3.12 4.42-4.26a9 9 0 0 1 3.7-2.2 7 7 0 0 1 1.67-.21l-1.14-2.24q-.45-.02-.93.01a11 11 0 0 0-5.24 2.2c-1.63 1.16-3.16 2.69-4.72 3.81-1.57 1.14-3.52 2.02-5.02 1.72a4 4 0 0 1-2.17-1.24c-.75-.7-1.49-1.71-2.38-2.79a12 12 0 0 0-3.68-3.28 7.2 7.2 0 0 0-5.81-.37 13 13 0 0 0-4.3 2.69c-1.12 1.03-2.03 2.04-2.91 2.84a8 8 0 0 1-2.58 1.69 6.3 6.3 0 0 1-5.32-.54c-.72-.43-1.45-1.18-2.31-1.97a10 10 0 0 0-3.13-2.13 9 9 0 0 0-3.49-.64c-2.21.04-4.1.81-5.47 1.72a12 12 0 0 0-2.63 2.38l-.68 2.93q.6-.52 1.55-1.29c1.52-1.21 4.01-2.89 7.13-2.61Zm-.36 14.31q-.98-.42-1.92-.68a14 14 0 0 0-6.52-.14l-.81.22q-.45.14-.8.34-.14.08-.27.18l-.31 1.95q.36-.35 1.22-.54.26-.05.53-.06l.71-.01q.75 0 1.6.09a14 14 0 0 1 4.51 1.3 11 11 0 0 1 2.08-2.66Zm24.87-4.92q-.43.02-.86.07-2.02.23-3.97 1.11a14 14 0 0 0-3.45 2.4c-1.92 1.81-3.33 3.66-4.8 4.81l-.44.32c.53 1.13.95 2.31 1.42 3.48h.04q.38.13.75.22.47-.28.87-.6c2.12-1.63 3.58-3.55 5.16-5a10 10 0 0 1 2.33-1.67 9 9 0 0 1 2.06-.67q.38-1.53.59-3.11.1-.7.28-1.37Zm11.06 7.5-.07-.12-.32-.56-.26-.46c-.38-.65.33-1.25.89-1.07-.47-.53-.98-1.19-1.7-1.87a12.6 12.6 0 0 0-6.47-3.23q1.1 2.38 2.29 4.71l.25.49c1.19.65 2.04 1.55 3.33 2.81q.32.29.68.58.86-.33 1.74-.64l-.37-.65Zm-48.32 13-.07.05-.11.97-.03.25v.03l-.18 1.95-.02.17q.7-.29 1.55-.52c1.45-.36 3.25-.49 5.04-.04a8 8 0 0 1 2.95 1.45q-.32-1.35-.57-2.71-.2-1.22-.34-2.45-.65-.18-1.28-.27c-2.75-.39-5.19.22-6.95 1.14Zm8.2 14.6c-2.3.19-4.38.78-5.98 1.63a8 8 0 0 0-3.18 2.87c-.51.89-.52 1.51-.28 1.67.55.36 1.9-1.01 4.63-1.64a20 20 0 0 1 5.68-.43q.38-2.1 1-4.16h-.07c-.66 0-1.2.03-1.79.07Zm-.55 15.33c-3.21-.15-5.68.29-7.36.67q-1.22.29-1.86.55v.9q.68.16 1.98.26c1.67.15 4.09.21 6.86.72 1.38.26 2.83.67 4.24 1.33.71.34 1.36.71 2.14 1.23.78.5 1.65 1.09 2.77 1.59a9 9 0 0 0 4.88.7c-1.17-1.1-2.27-2.28-3.39-3.42q-.98-1-1.95-2.03c-.94-.51-1.95-1.07-3.04-1.45a18 18 0 0 0-5.27-1.05" style="fill:#fec00f"/><path d="M142.98 104.56c-.26.09-.16 1.11.16 2.7.32 1.58.92 3.82 2 6.1 2.15 4.54 4.59 7.75 5.05 7.5.51-.28-1.16-3.95-3.23-8.33-1.03-2.18-1.79-4.21-2.47-5.7-.67-1.49-1.25-2.35-1.51-2.26Zm1.42-40.24c-.23-.19-1.45.97-3.55 2.63a67 67 0 0 1-8.63 5.88c-3.54 1.99-6.95 3.39-9.51 3.91-2.56.57-4.21.34-4.28.66-.08.21 1.62.99 4.49.74 2.85-.19 6.6-1.48 10.29-3.56 3.7-2.1 6.68-4.56 8.59-6.57 1.93-2 2.8-3.52 2.6-3.68Z" class="cls-103"/><path d="M120.48 44.06c.07-.06.22-.08.3-.1l.16-.03h.42l.08.02.17.05.04.02c.35.18.83.11 1.02-.27a.8.8 0 0 0 .06-.61c.52 0 1.13.07 1.44.37.35.33.81 1.09 1.19 1.77-.37.17-.63.59-.37 1.05q.85 1.5 1.6 3.06c.2-1.24.13-2.53-.26-3.72-.41-1.23-1.24-2.5-2.58-2.82a3.2 3.2 0 0 0-3.27 1.21l.04-.02-.03.01Zm.88-.12h-.07z" class="cls-20"/><path d="M120.47 45.56c.32.19.86.1 1.02-.27l.14-.28.12-.16c.16-.18.21-.22.4-.33a2 2 0 0 1 .67-.24h.4c-.1-.02 0 0 0 0l.11.02c.02 0 .28.09.2.05.23.09.38.21.55.37.3.29.55.71.7 1.09a6.5 6.5 0 0 1-.47 5.52c.26.6.4 1.28.38 1.93.45-.37.78-.89 1.05-1.4q.5-.94.74-1.95l.1-.51a42 42 0 0 0-1.6-3.06c-.26-.45 0-.88.37-1.04a9 9 0 0 0-1.19-1.77c-.31-.29-.92-.37-1.44-.37a.8.8 0 0 1-.06.61c-.2.37-.67.45-1.02.27l-.04-.02-.17-.05-.08-.02h-.42l-.16.03c-.09.02-.24.04-.3.1l.03-.01-.04.02q-.16.22-.27.47c-.16.37-.11.8.27 1.02Z" class="cls-20"/><path d="m112.64 50.13-.02.28-.02-.02z" style="fill:#ff7800"/><path d="M96.8 43.39c2.16.52 4.36 1.05 6.57.85s4.46-1.21 5.75-3.22c.39-.61.79-1.38 1.46-1.45.33-.04.65.12.97.22a3.9 3.9 0 0 0 4.2-1.48c.21-.28.57-.28.77 0 .34.47.9.76 1.45.79.81.04 1.59-.38 2.28-.86a14.4 14.4 0 0 0 4.62-5.35.46.46 0 0 1 .61-.23c1.25.54 2.7.36 3.95-.2a15 15 0 0 0 3.76-2.71l-1.46-.77c-.23-.12-.33-.41-.25-.68q.59-1.84.83-3.78c.06-.47-.39-.77-.76-.54-.62.39-1.44.5-2.15.33-1.19-.28-2.21-1.1-3.31-1.69-2.24-1.21-4.78-1.47-7.26-1.7-.82-.08-1.81-.06-2.23.73.79.03 1.54.65 1.8 1.49a23.8 23.8 0 0 0-18.07.09c-.41.17-.41.84 0 1.02.57.25 1.09.57 1.47 1.03.29.35.08.89-.34.93-5.44.44-10.43 5.17-11.71 11.12-.08.37.21.72.55.66a5 5 0 0 1 3.17.45c.24.12.33.45.22.73a10 10 0 0 0-.63 4.11c.02.34.34.56.63.47 1.48-.48 2.05-.31 3.12-.35" style="fill:#79577a"/><path d="M122.82 52c-.34-.06-.66.03-.81.24-.23.32.02.89.22 1.1.43.43 1.52.65 2.37.02a3 3 0 0 0 1-1.72c.11-.52-.07-.9-.34-.96s-.53-.16-.69.15c-.25.49-.52 1.13-.92 1.31-.44.21-.77-.13-.84-.16Z" class="cls-20"/></g></g></svg>