<svg xmlns="http://www.w3.org/2000/svg" viewBox="0 0 200 200"><defs><style>.cls-1{fill:none}.cls-2{fill:#f6c243}.cls-3{fill:#f75e28}.cls-4{fill:#e87003}.cls-5{fill:#fff}.cls-8{fill:#e5b342}.cls-9{fill:#ff8000}.cls-12{fill:#e2ded9}</style></defs><path d="M22.95 139.14c77.82 94.3 232.39 13.51 144.86-100.58C154.04-8 92.29 7.34 53.2 4.98 15 30.76-3.37 97.96 22.95 139.14Z" style="fill:#efedea" id="BG_Strong"/><g id="Illustrations"><g id="Peas"><path class="cls-12" d="M145.95 67.7c.58-.54.99-1.2 1.22-1.9.48-.38.86-.88 1.05-1.49.86-2.64-2.04-5.44-4.65-4.44-.07.03-.12.06-.19.09-1.15-.13-2.37.19-3.34.93-2.03 1.54-2.22 4.33-.66 6.29 1.65 2.06 4.6 2.33 6.56.53ZM158.47 49.05c.65.18 1.37.07 2.04-.17.85-.17 1.69-.57 2.37-1.14.64-.34 1.18-.89 1.52-1.58.28-.57.38-1.17.33-1.75.03-.1.06-.21.08-.31.28-1.26.2-2.7-.76-3.66s-2.2-.92-3.33-.5c-1.05-.13-2.15.17-3 .99-1.51 1.45-1.99 4.07-1.16 5.99.21.99.83 1.84 1.91 2.14ZM151.91 84.53c-.01-.1-.03-.2-.06-.3-.11-.47-.42-.79-.81-.97-.05-.06-.11-.11-.16-.16-.14-.18-.29-.35-.44-.5a.161.161 0 0 0-.04-.07c-.17-.4-.58-.65-1.03-.74-.81-.47-1.71-.66-2.6-.62-.09 0-.18 0-.27.02-1.46.14-2.87.92-3.84 2.16a6.012 6.012 0 0 0-2.59 5.84c.3 2.04 1.85 4.11 4.08 4.16.99.02 1.83-.39 2.52-1.02.09 0 .18.01.28.01 3.79.09 6.43-3.69 5.18-7.26a6.74 6.74 0 0 0-.23-.54ZM168.1 69.1c0-.93-.29-1.81-.78-2.53.03-.17.04-.33.02-.51-.1-1.46-1.44-2.16-2.6-1.93-1.02-.49-2.24-.45-3.14.31-.33.06-.66.18-1.01.38-.06.03-.12.07-.18.11-.84.24-1.62.66-2.31 1.31-1.75 1.65-2.07 4.23-.96 6.33.66 1.26 1.64 2.01 2.74 2.36.74.43 1.64.61 2.65.41.98-.19 1.99-.7 2.78-1.42 1.61-1.1 2.79-2.83 2.78-4.83ZM159.4 22.26c.14-.31.26-.63.35-.96 0-.01.02-.02.02-.04.13-.23.23-.48.3-.72.01-.03.03-.06.04-.1.1-.3.11-.63.05-.94-.06-.73-.39-1.43-.93-1.97-.85-.85-2.19-1.13-3.33-.81-1.44.41-2.16 1.92-1.97 3.33.07.52.27 1.01.57 1.43.12.26.29.51.48.74.65.76 1.54 1.04 2.5 1.15.69.08 1.64-.47 1.92-1.1ZM60.59 161.71l-.17-.11c-.38-.21-.77-.35-1.16-.44-.59-.31-1.26-.47-1.96-.44-.99.04-1.74.62-2.06 1.47-1.39 1.14-2.21 3-1.73 4.92a4.41 4.41 0 0 0 1.99 2.7c.84.81 1.96 1.29 3.16 1.21 1.69.44 3.43-.37 4.27-1.98.72-1.37.7-2.98.06-4.34-.3-1.32-1.18-2.5-2.4-3ZM51.23 179.05c-1.98.62-3.06 2.92-2.32 4.85.74 1.92 2.79 2.81 4.66 2.14 1.95-.41 3.1-2.61 2.49-4.55-.62-1.97-2.88-3.05-4.83-2.44Z"/></g><path class="cls-2" d="M137.34 186.39c-1.14-1.99-2.51-3.86-3.88-5.7-1.44-1.93-2.94-3.82-4.47-5.68-6.37-7.72-12.98-15.24-19.46-22.87-6.61-7.78-13.21-15.58-19.81-23.37-6.57-7.77-13.14-15.54-19.72-23.3-6.6-7.78-13.21-15.56-19.84-23.31-.73-.85-1.46-1.71-2.19-2.56 1.63-2.8 1.46-6.3.31-9.3-.71-1.85-1.73-3.56-2.81-5.22-.81-1.25-1.67-2.47-2.55-3.68-.46-.63-.93-1.26-1.39-1.89-.09-.14-.17-.29-.27-.42-.76-1.13-1.6-2.21-2.41-3.31s-1.65-2.25-2.48-3.37a848.868 848.868 0 0 0-15.46-20.24c-.43-.54-.85-1.08-1.28-1.62-.24-.3-.76-.25-1.01 0-.3.3-.24.71 0 1.01 3.38 4.27 6.71 8.57 10.01 12.91 3.3 4.33 6.53 8.67 9.73 13.06.15.21.31.42.47.63 0 .01.01.02.02.04.47.7.96 1.39 1.45 2.08.06.1.12.2.17.31.23.43.41.83.53 1.32.09.38.11.76 0 1.12 0 .03-.01.04-.02.06v.02c-.02.05-.04.09-.07.13-.06.11-.08.14-.14.2-.13.14-.3.27-.43.32-.43.19-.84.17-1.28.05-1-.27-1.77-1.19-2.42-1.99-.64-.79-1.28-1.59-1.92-2.39-.02-.03-.04-.05-.06-.08-.81-1.1-1.65-2.25-2.48-3.37a848.868 848.868 0 0 0-15.46-20.24c-.43-.54-.85-1.08-1.28-1.62-.24-.3-.76-.25-1.01 0-.26.26-.25.59-.09.88.01.08.04.16.09.23a743.996 743.996 0 0 0 18.95 24.81c.26.35.52.71.78 1.06.73.99 1.53 1.96 2.11 3.05.23.43.41.83.53 1.32.09.38.11.76 0 1.12 0 .03-.01.04-.02.06v.02c-.02.05-.04.09-.07.13-.06.11-.08.14-.14.2-.13.14-.3.27-.43.32-.43.19-.84.17-1.28.05-1-.27-1.77-1.19-2.42-1.99-1.77-2.18-3.52-4.38-5.25-6.59-1.39-1.87-2.79-3.74-4.2-5.6-2.93-3.87-5.89-7.72-8.88-11.54l-1.46-1.97c-.4-.54-.79-1.07-1.18-1.61-.23-.31-.62-.47-.98-.26-.16.1-.29.28-.34.47-.12.27-.05.57.14.81.84 1.07 1.68 2.13 2.52 3.2 2.49 3.36 5.01 6.7 7.55 10.02 1.8 2.35 3.62 4.68 5.44 7.01 1.42 1.9 2.83 3.81 4.23 5.73.73.99 1.53 1.96 2.11 3.05.23.43.41.83.53 1.32.09.38.11.76 0 1.12 0 .03-.01.04-.02.06v.02c-.02.05-.04.09-.07.13-.06.11-.08.14-.14.2-.13.14-.3.27-.43.32-.43.19-.84.17-1.28.05-.56-.15-1.04-.5-1.47-.91-.12-.15-.25-.3-.37-.45a.623.623 0 0 0-.18-.14c-.14-.16-.28-.33-.41-.49-3.4-4.18-6.72-8.43-10-12.7A736.326 736.326 0 0 1 7.33 42.01c-.23-.31-.62-.47-.98-.26-.31.18-.49.67-.26.98 3.33 4.55 6.7 9.06 10.13 13.53 3.43 4.47 6.89 8.88 10.41 13.26.5.63 1 1.28 1.58 1.85 1.82 2.24 3.83 4.35 6.01 6.24 2.32 2.01 4.78 3.59 7.76 3.97 1.29.16 2.6.05 3.83-.37l17.32 24.75 17.53 25.05 17.46 24.95c5.79 8.28 11.55 16.59 17.39 24.84 2.75 3.88 5.57 7.72 8.69 11.31 2.69 3.09 6.05 6.5 10.37 6.89.98.09 1.98-.04 2.92-.34a.71.71 0 0 0 .34-.23c.24.01.48-.08.65-.34 2.33-3.68.78-8.2-1.2-11.66Z"/><path class="cls-2" d="M192.52 33.57c-.59-.43-1.39-.5-2.07-.3-.74.22-1.37.75-1.93 1.27-.54.51-1.02 1.08-1.47 1.67l-.01.01-.09.11s-.01.02-.02.02l-21.08 27.26a408.31 408.31 0 0 1-3.79 4.68c-2.28 2.79-4.58 5.57-6.82 8.39-.83 1.04-1.64 2.09-2.44 3.15l-19.79 23.18-19.89 23.3-19.82 23.21c-6.57 7.69-13.18 15.35-19.7 23.09-3.09 3.66-6.11 7.39-8.8 11.36-2.24 3.3-4.53 7.34-3.81 11.48.16.95.54 1.85 1.05 2.66.09.14.21.24.33.29.05.23.2.43.48.52 4.2 1.35 8.24-1.38 11.11-4.21 3.34-3.3 6.18-7.19 8.93-10.99 5.86-8.1 11.48-16.37 17.24-24.55 5.86-8.34 11.74-16.66 17.63-24.99 5.86-8.29 11.73-16.59 17.58-24.88 4.1-5.81 8.19-11.63 12.27-17.45 1.85.94 3.79 1.66 5.89 1.79 2.94.18 5.75-.94 8.11-2.63 2.36-1.69 4.39-3.92 6.31-6.16 1.92-2.23 3.89-4.72 5.69-7.18 3.59-4.9 6.79-10.08 9.62-15.46a136.591 136.591 0 0 0 8.91-21.15c.23-.7.45-1.41.67-2.12.2-.65.43-1.3.56-1.97.22-1.18.22-2.63-.84-3.41Z"/><g id="Layer_17"><path class="cls-8" d="M158.57 88.8s.02-.04.03-.05l-.12.03-.05.05h.12l.03-.02Z"/><path class="cls-8" d="M148.57 90.98c.21 0 .41-.05.87-.04 0 .01-.15.03-.14.04.04.03.12.06.19.09.12-.02.3-.04.34-.06.03-.02-.12-.04-.39-.07-.24-.1-.01-.15.45-.17.59-.02 1.19-.06 1.78-.12.28-.04.33-.06.19-.07-.09-.01-.26 0-.39 0-.11 0-.25.06-.31.06-.12 0-.3-.03-.28-.05.12-.11.48-.15.88-.14.13 0 .3.02.4 0 .31-.05.62-.14.85-.22.11-.04-.07-.08.33-.1.53-.02 1.14-.09 1.71-.18.2-.03.41-.01.59-.16.07-.06.19-.13.33-.19.21-.08.45-.18.67-.26-.02.06-.01.11-.07.17-.05.05-.21.13-.29.19-.04.03-.03.05-.04.08.08-.03.19-.05.25-.08.43-.2.85-.43 1.24-.66.33-.21.37-.22.72-.24-.07.07-.15.13-.23.19.07-.02.14-.04.35-.2 0 .02 0 0 .03-.01.22-.14.43-.26.61-.39.19-.12.38-.22.57-.35.09-.06.24-.11.28-.1.05.01.16.01-.15.22l-.25.15c-.08.05-.16.09-.23.14-.14.09-.24.18-.23.24 0 0-.03.02-.07.04-.04.02-.1.05-.17.08-.13.07-.29.14-.4.2-.05-.11-.48.1-.73.23-.17.09-.34.17-.5.26-.16.09-.32.18-.49.26.05 0 .1.01.16 0 .41-.14.84-.36 1.22-.44.16-.1.35-.15.53-.22.18-.07.36-.14.5-.28.05-.01.12-.04.14-.03.1.04.28-.05.49-.23.08-.07.12-.14.21-.21.11-.09.25-.19.38-.28.02.02.11.03.06.07-.2.17.09.11-.37.4-.07.05-.16.11-.25.16s-.19.11-.28.17c-.19.11-.36.22-.48.26-.12.05-.25.1-.38.15.06 0 .11.02.19.01s.18-.03.19.03c-.11.04-.23.09-.34.13-.07.03-.14.04-.2.06-.28.06-.56.19-.78.33-.04.03.15.02.25.02s.21 0 .34-.03c.07-.01.22-.05.67-.37-.05.05 0 0 .1-.07.31-.2.56-.38.78-.52.21-.15.37-.27.47-.39.16-.19.58-.51.43-.56-.04-.01.05-.14.18-.26.06-.05.25-.16.37-.22.04-.02.01.04.04.04.08 0-.07.22.28-.04.46-.35.22-.25-.01-.15-.01 0-.02 0 0-.02.09-.11.3-.35.25-.33-.2.06-.48.16-.76.28-.07.03-.28.18-.38.26-.11.1-.17.21-.27.19-.03 0 .04-.11.07-.13.47-.32.96-.63 1.41-.94.09-.06.18 0 .19.05 0 .13.2.02.57-.29.34-.3.45-.33.48-.26 0 .02.19-.09.3-.17.18-.14.36-.3.54-.46.57-.49.57-.49.61-.3.01.06.04.13.37-.19.53-.54.88-.79 1.48-1.2-.09.12-.17.23-.28.36-.59.65-.59.64-.36.65.02 0-.01.06-.02.09l-.16.13c-.45.33-.93.64-1.62 1.12.05-.04.1-.09.15-.13-.06.03-.12.04-.19.09-.08.06-.18.16-.09.12-.09.07-.02.03.06-.03.23-.13-.12.2.23-.03.14-.1.28-.16.34-.16.08 0 .14.03-.22.33-.15.12-.3.24-.44.37-.05.04-.08.09-.12.14.07-.04.13-.09.19-.13.32-.19.65-.55.95-.75l.33-.07c-.19.17-.44.28-.57.52-.09.17-.03.26-.49.63-.13.11-.27.2-.41.3.05-.07.08-.14.15-.23.03-.04.17-.15.18-.17.03-.05.04-.11-.01-.08-.06.03-.23.15-.3.22-.12.12-.18.22-.29.33-.05.06-.15.13-.23.2-.02 0-.04-.01-.06-.02-.03-.02.46-.46-.11-.04-.25.19-.48.37-.37.39.03 0 .05.04.05.07 0 .04.03.1-.01.14-.24.21-.52.4-.79.59-.03.02-.11.04-.1.02 0-.05.05-.12.07-.19-.36.24-.49.29-.75.49-.24.19-.48.3-.74.51-.26.22-.68.34-.77.23.07-.04.16-.05.2-.08.13-.09.25-.17.37-.26-.09.03-.17.03-.28.08-.08.04-.21.15-.29.26-.11.12-.3.23-.48.34-.11.06-.21.12-.3.19-.1.06-.2.11-.31.17-.21.11-.43.23-.7.33-.55.2-.55.22-.25.23.02 0 .1-.02.1-.01 0 .03 0 .07-.07.11-.07.04-.3.12-.37.13-.22.03-.4.02-.6.04-.09 0-.22.03-.33.04-.03.04-.06.07-.08.11-.02.04-.03.06-.04.1-.11.02-.23.05-.32.06-.39.05-.66.06-.36-.14.23-.16-.74-.03-1.33.14-.07.02-.07.07-.1.1.1-.02.24-.04.28-.06.21-.1.3-.06.42-.07.27-.03.1.04-.02.09-.15.07-.31.14-.47.2-.23-.02-.62.09-.91.11-.07 0-.1-.05-.04-.09.08-.06.41-.16.37-.17-.16-.04-.41-.05-.67-.06-.06 0-.35.08-.54.12-.19.04-.54.2-.53.04 0-.09-.27-.09-.61-.07-.38.03-.23-.06-.39-.06-.11 0-.36.05-.49.04-.29 0-.39-.06-.35-.13 0-.04-.06-.07-.02-.11.04-.03.19-.06.32-.08.04 0 .15 0 .22.01-.09.03-.18.05-.26.08-.02 0 0 .02 0 .03.4 0 .62-.05.55-.14-.05-.07-.22-.05-.48-.04-.33.03-.66.04-.99.04-.1 0-.25-.03-.26-.05-.02-.02.07-.05.16-.06.33-.05.69-.06 1.03-.04.33.03.56.05.93-.07.16-.04.61-.16 1.01-.13.07 0 .32-.07.48-.1-.18-.02-.35-.05-.54-.06-.04 0-.2.02-.27.04-.44.11-.87.18-1.26.1-.05-.01-.39 0-.45.03-.32.11-.65.13-.99.13-.34-.02-.68-.06-1.01-.12-.3-.05-.41-.09.1-.08Zm4.01.43s-.12-.01-.19-.02l-.37.12h.23c.13-.03.24-.06.33-.1Zm11.62-5.55s.11-.03.17-.04l.25-.25-.34.18s-.09.12-.07.12Zm-9.93 5.2c-.11-.06.19-.12.42-.19.07-.02.11-.08.05-.09-.1-.01-.32-.01-.4 0-.25.08-.49.14-.74.21-.24.07-.48.14-.73.19h.17c.18 0 .53-.04 1.22-.13Zm-.22.06.24-.03v-.02c-.14.02-.32.04-.56.07-.23.03-.52.06-.87.08h.1c.24.07.8-.12 1.09-.1Zm.72.31c-.1-.03.14-.16-.29-.08-.33.06-.44.08-.17-.04.02 0-.04-.02-.1-.04-.19.07-.35.14-.53.18-.44.09-.53.13-.13.11.3-.02.67-.07.74 0l.48-.13Zm.08-.43s-.09 0-.36.04l-.19.07c.07 0 .15 0 .21-.02.12-.03.22-.07.33-.1Zm1.66-.26-.32.03c-.23.02-.44.04-.41.15.01.04-.15.12-.19.18-.03.04.05.06.22.01.16-.05.41-.16.7-.37Zm-.07.16-.17.15s.09-.03.11-.04c.1-.05.07-.08.06-.11Zm.22-.18h-.01l-.02.02s.01 0 .03-.02Zm.72.09s-.07 0-.1-.01c-.06.03-.13.06-.18.08l-.29.17.16.02c.06-.03.14-.06.18-.08.09-.06.18-.12.23-.17Zm-.4-.2s.15-.06.22-.09c-.09 0-.16 0-.28.02-.03 0-.09.03-.2.12.08-.01.17-.02.26-.04Zm4.64-1.97s.03-.11.13-.27c-.14.13-.06.1-.13.2-.03.04-.02.06 0 .07Zm.2-.07v.03c.02-.02.02-.03 0-.03Zm.15-.21h-.08c0 .03-.02.08-.04.12.07-.06.13-.12.12-.12Zm.6-.85c.06-.03.13-.06.18-.1.09-.07.18-.16.27-.23-.06.04-.16.09-.34.23l-.1.11Zm.99-.6s-.12.04-.2.09c-.28.2-.52.41-.62.56-.04.06.03.06.05.08.12-.1.27-.22.37-.31.07-.07.07-.11.1-.16.07-.04.13-.08.2-.12.04-.05.12-.15.1-.15Zm-1.56.68c.27-.11.34-.28.51-.43.29-.25.47-.3.62-.35l.27-.1c.1-.14.2-.26.18-.25-.14.03-.28.07-.47.15-.41.17-.46.21-.79.59-.12.14-.34.4-.32.38Zm-1.25 1c.44-.29.32-.02.8-.37.33-.24.41-.24.3-.08-.04.05.02.05.04.12.24-.17.38-.3.28-.33-.09-.03-.07-.1.36-.44-.11.02-.19.04-.52.29-.16.12-.42.23-.62.33-.21.1-.18.04-.06-.1.16-.18-.08-.02-.18.07-.19.16-.29.23-.4.35-.09.09-.01.11-.01.16Zm-.1.63c.13-.05.26-.11.43-.18.08-.11.16-.22.23-.32-.07.04-.18.09-.22.12-.16.13-.3.25-.44.38Zm-.6-.15c.14-.07.25-.15.35-.22.03-.02.04-.06.07-.09-.11.06-.22.13-.33.19-.03.02-.05.06-.09.11Zm-2.39 1.43c-.12.05-.23.11-.34.16.12-.03.23-.06.35-.1.64-.21.65-.22.28.05-.05.04-.11.07-.18.12.03 0 .05.02.1 0 .24-.05 1.32-.6 1.41-.71.01-.01-.07 0-.13.03-.11.05-.24.11-.37.15.09-.05.17-.11.26-.16.33-.17.63-.33.89-.51.13-.09.26-.18.37-.27.11-.09.22-.19.32-.28.06-.05.01-.07.02-.1-.08.06-.19.12-.25.17-.55.47-.56.46-.79.38-.01 0 0-.02-.02-.02l-.16.04s-.1.09-.08.09c.1.03 0 .12-.16.23-.08.05-.18.11-.28.17l-.29.15c-.13.07-.28.14-.44.21-.16.06-.33.13-.49.19Zm-2.18.1s-.09.04-.08.04c0 .04.03.08.05.13.12-.05.24-.09.37-.14.08-.03.21-.07.26-.08.53-.05.54-.17.64-.27.06-.06.08-.11.12-.16.05.02.11.04.15.06.03.02 0 .07.06.07.05 0 .23-.04.33-.09.08-.04.19-.12.17-.12-.08-.02-.29 0-.32-.04-.03-.04-.07-.05.15-.16l.18-.06c.15-.06.29-.13-.1.03.14-.07.36-.15.69-.32l.1-.02c.06-.04.19-.11.18-.12a.343.343 0 0 0-.19.02c-.22.08-.47.17-.7.25a1.3 1.3 0 0 0-.33.19c-.06.04-.09.11-.04.1.04 0 .1-.02.16-.04-.14.06-.31.12-.55.21-.09.03-.18.07-.27.09-.51.14-.39.32-1.04.44Zm-.61-.49c-.31.12-.6.23-.89.35-.08.03-.11.06-.17.1.13-.01.25-.03.24-.03.45-.1.32-.04 1.06-.37.1-.05.14-.09.2-.14-.15.03-.35.06-.44.09Zm-2.54.51s.04.01.06.01c.2 0 .39.03.63.02.06 0 .36-.11.39-.15.07-.1.23-.17.62-.27.07-.02.12-.11.09-.11-.24.03-.5.06-.75.08-.05.15-.78.25-.94.38-.01.01-.06.02-.09.03Zm-.97.22c.23 0 .37 0 .5-.01.07 0 .2-.07.18-.07-.09-.01-.22-.02-.35-.01-.05 0-.15.04-.33.1Zm-.91 0s.02.04.03.04c.12 0 .24-.01.37-.02 0 0 0-.04-.01-.04h-.39Z"/><path class="cls-8" d="m164.1 86.2.05-.05-.12.08.06-.03ZM157.45 89.84l-.13.05.05-.02.08-.04ZM159.09 89.49l.1-.07c.06-.05.13-.1.2-.16-.08.04-.17.07-.26.1 0 .03 0 .06-.05.13ZM169.36 80.5l-.41.37c-.11.04-.22.05-.35.11-.03.02-.18.16-.26.26-.16.18-.44.45-.11.24.19-.13.08.06-.18.33-.09.09-.18.19-.27.27-.33.3-.66.57-.99.85-.33.28-.68.57-1.05.96-.18.07-.35.15-.72.52-.18.18-.34.33-.27.35.11.04 0 .15-.32.34-.14.08-.33.22-.48.35-.47.4-.29.12-.37.13-.13 0 .1-.19.32-.39.12-.11.2-.23.32-.34.22-.21.47-.43.21-.09.07-.04.19-.12.2-.13.21-.28.52-.56.81-.84.07-.07.06-.13.13-.23.17-.22.35-.44.49-.45l-.24.27c.06-.04.11-.09.28-.28-.03.06.04-.02.1-.11.23-.25.41-.45.59-.63.06-.06.12-.11.18-.16-.02.04-.03.07-.05.11-.09.14-.18.28-.27.43-.21.31.04.04.17-.09.55-.48.55-.48.48-.6-.07-.12.14-.56.41-.82.37-.34.34-.38.4-.53.01-.02.19-.22.24-.26.06-.05.09-.03.11-.02.09.07.18-.12.3-.32.03-.05.28-.28.29-.27.09.08.55-.59.67-.59 0 0 .03-.04.07-.08l.11-.14c.07-.08 1.05-1.38 1.12-1.47.08-.11.17-.23.34-.46 0 .01-.02.04-.04.09.1-.12.18-.16.27-.2 0 0 .05-.07.11-.15s.12-.18.17-.25c.03.02.04.11.11.04.19-.19.4-.44.59-.66.04-.09.09-.17.1-.2.07-.24.09-.31.17-.39l.37-.37c.17-.18.24-.34.3-.5.04-.1.15-.33-.06-.04-.33.44-.65.73-.99 1.25-.23.35-.41.5-.52.57-.27.18-.51.69-.76.93l-.1.24-.13-.09c.32-.52.73-1.04 1.11-1.42.07-.07.21-.26.27-.38.07-.13.08-.23.21-.29.07-.03.18-.11.29-.23.14-.15.27-.34.23-.42 0-.02-.04-.01-.04-.04v-.1c.05-.04.13-.13.14-.12.08.03.53-.74.47-.39 0 .02.07-.04.1-.07.02-.05.05-.13.05-.15 0-.07-.06-.08-.03-.2.09-.3-.03-.16-.27.19-.03.05-.1.07-.12.06-.01 0 .03-.1.06-.16.27-.47.49-.75.71-.88.06-.04.09 0 .15-.04.04-.02.1-.06.17-.14a2 2 0 0 0 .28-.37c.08-.14.14-.31.14-.37 0-.04-.15.15-.21.19-.08.06-.25.45-.27.32-.01-.07.2-.44.38-.68.1-.13.2-.29.29-.39.26-.29.35-.21.12.2-.45.79.17-.09-.38.95-.05.1-.35.62 0 0-.3.67-.21.6-.1.46.07-.08.19-.29.24-.39.09-.21.15-.39.21-.57.04-.1.05-.18.07-.27.1-.17.13-.23.16-.27.02.01.05.07.07.04.29-.4.13 0 .23-.06.12-.07-.19.35-.29.54-.13.24-.37.57-.43.71-.14.37-.28.56-.49.77-.21.2-.39.47-.54.81-.02.05-.06.12-.1.19h.04c-.01.02-.02.04-.03.07-.07.18-.02.13.07.08.07-.04.1-.04.11-.01.05-.11.1-.23.14-.32.24-.56.38-.72.69-1.05.3-.32.63-.78.94-1.32.4-.68.18-.17.17-.08-.03.22-.18.5-.38.7-.25.25-.52.72-.72.94-.27.28-.37.75-.64.96 0 0-.11.18-.11.2 0 .05.01.1.05.05.16-.18.34-.4.51-.6l-.51.87c-.02.03-.04.09-.04.09.05-.02.11-.06.16-.09-.1.16-.2.31-.3.46-.02.03-.07.05-.09.04-.02 0-.02-.04-.03-.06-.07.11-.2.3-.19.32.03.23-.32.86-.41 1.22-.01.05-.16.26-.25.39-.01.02-.06.04-.02.01-.05-.15-.08-.25-.11-.37 0 0 .12-.17.17-.23.21-.23.27-.32.29-.49.04-.21.29-.78.53-1.3-.06.09-.13.19-.22.32-.05.07-.11.16-.16.23-.13.16-.25.31-.38.48-.05.06-.11.15-.15.22-.02.03-.05.09-.04.09.2-.09-.3.51-.25.59.02.04-.16.36-.16.44 0 .07.21-.09.18-.03-.21.38.13-.03.14.03 0 .06.04.11-.03.22-.09.14-.29.39-.4.51-.27.27-.53.52-.55.36 0-.03-.08.03-.12.04-.02.07-.02.12-.06.21-.07.15-.16.33-.46.72-.05.04-.12.07-.16.12-.15.18-.28.37-.15.25-.2.29-.11.24-.09.21.08-.11.15-.22.23-.33.43-.37.47-.3.26-.03-.4.5-.52.76-.71 1.1-.03.06-.12.16-.19.24 0-.03-.04-.04 0-.1.05-.1.13-.24.19-.36.01-.03-.03-.02-.04-.01-.21.26-.43.51-.65.76-.23.27-.14.24-.19.35-.05.13-.14.35-.45.56-.01 0-.21.26-.24.33-.04.08.03.07.02.13 0 .02-.09.13-.15.19s-.17.17-.17.16c-.08-.06-.14-.14-.2-.21.12-.12.28-.27.34-.37.07-.1.06-.15.08-.22.01-.04.02-.07.01-.1.03-.04.07-.07.11-.11.16-.17.32-.35.25-.37-.01 0-.07.03-.1.05-.09.14-.18.27-.26.42-.61.69-.63.71-.67.54 0-.03.07-.17.15-.27.23-.29.48-.57.73-.86.06-.08.13-.15.2-.23l-.06-.05c.31-.34.49-.64.65-.89.16-.26.27-.52.23-.59-.07-.11-.22.32-.3.34-.1.03-.13-.04-.18-.07 0 0 .1-.14.11-.15.26-.16.38-.47.57-.7.33-.4.58-.81.64-.99.01-.04-.07-.01-.12.04-.11.12-.24.28-.34.43-.2.28-.39.59-.6.82-.24.28-.49.51-.74.74-.09.08-.16.12-.24.21-.05.05-.12.14-.18.21.03 0 .03.03.08 0 .38-.26.69-.38.73-.27 0 .02-.02.07-.04.11l-.15.14v.02Zm1-.67s-.09.07-.12.1c-.04.05-.09.13-.14.19-.04.06-.08.11-.07.11.13.03.09.23-.17.64-.01.02.01.01.02.02.04-.02.08-.03.12-.07.08-.1.23-.27.24-.3.06-.25.1-.47.13-.7Zm1.68-3.04c-.04.08-.07.15-.11.23-.01.02-.06.07-.08.11-.33.47-.24.35-.16.44.07.09.46-.53.48-.42-.39.52-.46.63-.5.92l-.11.15c-.21.31-.42.61-.2.16-.07.08-.17.17-.22.23-.27.4-.03.2 0 .27 0 .02.16-.13.25-.23.07-.07.15-.19.28-.53 0 .06-.01.12-.02.19.09-.11.17-.23.26-.34.03-.04.06-.09.07-.11.02-.05.04-.1.03-.12-.02-.04-.16.09-.3.27l.04-.11c.27-.36.43-.62.43-.76.47-.71.74-1.28 1.04-1.89-.03.04-.05.09-.08.14-.35.55-.75 1.11-1.09 1.39Zm-.21.12-.42.6c.15-.14.31-.41.46-.58.02-.02.04-.04.06-.05-.02.01-.05.04-.07.05-.02 0-.02 0-.02-.02Zm-.96 1.04c.05-.06.12-.11.16-.17l.14-.2-.07-.06c-.05.09-.11.19-.17.29-.04.06-.04.09-.06.14Zm-2.97 3.1c-.07.2-.06.26-.12.36-.16.27-.18.42.1.16.3-.27.39-.53.47-.7.04-.09-.21.07-.44.17Z"/><path class="cls-8" d="M172.11 76.18c-.02.05-.04.11-.02.17l.16-.19c.05-.07.09-.16.14-.25l-.28.27ZM166.36 84.84c-.09.13-.16.25-.28.39-.22.22-.46.45-.71.67.06.02.06.12.19.03.35-.24.65-.64 1-.96.12-.11.31-.35.32-.38.02-.16.1-.29.48-.56.03-.02.11-.11.19-.19l.13-.15c-.11-.04.2-.33.41-.56.06-.07.09-.15.11-.2.05-.12-.39.32-.15-.03.18-.26-.11-.03-.27.11-.4.33.03-.17-.04-.18-.06-.01.15-.15.25-.24.24-.22.47-.48.56-.68.15-.33.44-.54.69-.79.08-.15.18-.33.22-.45.02-.06-.07-.06-.07-.04-.48.56-.34.23-.44.24-.3.45-.67.87-1.1 1.29-.12.11-.33.3-.34.32-.17.31-.4.46-.64.67-.2.16-.57.48-.61.55-.2.32.24-.08.4-.17.1-.05.2-.11.31-.18.14-.09.28-.2.42-.3l-.44.56c-.08.09-.18.19-.24.28-.07.09-.11.17-.17.25l.28-.25c.19-.15.37-.3.55-.46-.11.15-.21.3-.34.45-.1.12-.24.26-.36.39.03.14.04.15-.42.51-.12.1-.26.23-.38.34.04 0 .05.05.14 0 .08-.05.24-.19.36-.29ZM168.25 83.15c-.39.44-.69.77-1 1.1-.05.05-.09.16-.05.15.15-.08.32-.17.61-.48.23-.26.56-.74.54-.82 0-.02-.12.07-.1.06Z"/><path class="cls-8" d="M165.33 85.45c-.07.04-.26.19-.28.22-.06.09-.1.16-.09.2 0 .05.05.07.08.11.16-.14.31-.28.45-.41.14-.14.26-.28.37-.42-.18.1-.35.2-.54.31ZM150.29 91.94c.31.02.56.05.83.05.01 0 .2-.07.19-.07l-.69-.07s-.15.04-.33.08ZM173.4 76.58c-.02.09.05.07.08.1.05-.09.11-.17.16-.26.1-.15.19-.3.29-.45l-.25.18c-.09.15-.27.39-.27.43ZM163.24 85.66s-.18.07-.19.08l-.43.46c.09-.06.19-.13.35-.23.09-.11.19-.22.27-.32ZM159.54 90.14c-.08.1-.16.19-.24.28.03-.01.12-.04.18-.07.11-.06.31-.18.31-.19-.02-.04-.1-.05-.16-.07 0 0-.08.04-.09.04ZM166.11 84.75c.16-.12.26-.18.36-.27.05-.05.17-.19.17-.2 0-.07-.05-.08-.28.17-.07.07-.12.15-.25.31ZM171.2 79.78c.15-.15.34-.32.4-.4.18-.28.32-.54.43-.77.02-.03-.23.18-.36.28-.15.29-.3.59-.47.89ZM161.13 89.41c.17-.08.33-.15.49-.23.02-.03.07-.1.04-.08-.1.04-.22.09-.34.15-.04.02-.11.09-.19.16ZM164.48 84.49l-.41.26s-.05.09-.03.08c.07-.02.16-.08.24-.12l.2-.22ZM170.31 78.12c-.15.16-.3.32-.44.49-.15.19-.28.4-.42.6.15-.15.3-.3.52-.54.1-.17.22-.36.34-.55ZM165.01 84.75l.22-.02c.04-.05.11-.15.1-.16-.02-.03-.09-.01-.13-.01l-.18.19ZM165.38 84.22s-.06.02-.1.03c-.07.07-.14.15-.17.18l.16-.05c.04-.05.09-.13.1-.16ZM152.8 91.93c.07 0 .13.03.16.02.13-.02.25-.05.37-.08-.04 0-.08-.02-.12-.02-.13.02-.26.05-.41.07ZM158.15 90.93c.08-.02.15-.04.27-.07.09-.05.19-.11.29-.17-.08.02-.16.04-.23.07-.11.06-.22.11-.33.17ZM165.65 84.21s-.12.13-.12.14c.01.02.05.02.09.02.07-.08.15-.17.14-.17-.02-.01-.07 0-.11 0ZM167.01 83.43l-.24.18-.16.21c.05-.04.11-.07.16-.12.08-.09.16-.18.24-.26ZM171.84 77.28h.09c.05-.09.11-.19.11-.19-.02 0-.07.02-.11.03-.03.05-.1.15-.09.16ZM175.32 71.42l.08-.3c.07-.26.18-.49.41-.7.1-.09.19-.24.14-.27-.05-.03-.09-.07.02-.33-.14.18-.28.36-.42.55-.04.06-.11.18-.14.22-.06.07-.15.14-.14.11.04-.1.11-.28.16-.36.28-.41.59-.85.85-1.18.25-.31.43-.63.63-.99-.05-.24.34-.82.57-1.18.19-.29.29-.44.34-.65.04-.15.1-.22.2-.35.39-.49.77-1.14 1.01-1.68.08-.19.33-.63.35-.64.12-.06.21-.12.29-.45.06-.24.24-.52.39-.8.18-.33.41-.78.54-.95.42-.53.05-.26.25-.61.21-.38.52-.72.64-1.16l.2-.05s0 .02.03 0c.03-.03.07-.08.11-.13 0-.04.02-.11.02-.12-.05-.13.27-.64.3-.66.26-.19.49-.62.74-1.19.31-.4.67-1.23.97-1.51.01-.01.08-.16.11-.23.01-.03 0-.03-.03-.03-.06.03-.13.09-.19.11-.1.04-.07-.12.15-.51.07-.12.16-.28.19-.37.08-.22.13-.41.2-.6.09-.28.26-.31.39-.72.09-.29.36-.76.6-1.08l.14-.03-.23.4c-.09.22-.23.5-.25.61-.03.13.35-.33.46-.54.04-.09.09-.24.12-.38-.04.02-.07.03-.11.05.07-.14.15-.27.22-.41.17-.34.22-.33.23-.26.01.06-.03.23-.02.3 0 .03.08-.03.12-.11.03-.04.07-.13.1-.2.03-.08.06-.14.06-.15-.11-.09.2-.59.36-.93.16-.33.19-.28.16-.13-.02.09-.12.35.06.02.11-.19.22-.35.32-.55.15-.29.34-.67.21-.63-.07.02-.02-.13.12-.41.09-.18.18-.37.26-.55.07-.15.11-.3.17-.45-.08.1-.15.15-.25.3-.1.16-.22.42-.31.63-.13.29-.23.57-.36.85-.13.28-.31.6-.44.8-.15.22-.18.32-.24.51-.02.06-.13.28-.18.34-.04.06-.09.06-.07 0 .09-.32.14-.63.48-1.14.11-.39.26-.69.48-.96.2-.25.16-.3.13-.34-.02-.02-.06-.03-.04-.09.13-.33.1-.13.15-.19.11-.15.24-.33.36-.5.5-.73.56-.84.74-1.61.1-.4.26-.66.42-.97.08-.15.16-.24.24-.38.04-.07.09-.19.14-.28 0-.01 0-.06-.03-.04-.07.07-.37.62-.14 0 .17-.44.17-.23.28-.4.05-.08.09-.11.13-.15l.09-.11c0-.06 0-.09.02-.18.08-.27.18-.58.25-.83.06-.22.11-.27.18-.4.11-.2.09-.11.06.03-.04.19-.23.67-.08.53l.24-.79s.02-.08.03-.1c.04-.2.11-.33.21-.5.07-.11.14-.27.22-.4.09-.15.18-.3.26-.44 0-.04.02-.1 0-.11-.04-.04-.12.19-.21.41-.02.05-.03.1-.05.15-.03-.06-.08-.13-.08-.15.26-.64.38-1.21.71-1.89.06-.13.15-.29.22-.45s.14-.33.19-.47c.25-.67.58-1.43.66-2.06.02-.06.11-.45.17-.69v-.05s.03-.03.04-.05l.04-.1v-.1l.06-.24c.02-.08.04-.15.06-.22.04-.07.05-.13.06-.18.02-.11.04-.19.04-.24 0-.01.04-.19.06-.28h.03c-.11.58-.11.8-.03.43.02-.08.02-.03.03-.04-.08.55-.05.52-.03.54 0 0-.01.11-.03.24-.01.13-.05.29-.07.4-.07.36-.09.26-.09.19 0-.1.05-.41.05-.49v-.07c0 .08-.02.17-.03.25-.01.05-.04.15-.05.13v-.17c.04-.12.05-.19.07-.25-.01-.02-.03 0-.05.08-.07.15-.15.61-.23.93-.04.15-.07.34-.07.41 0 .16 0 .31.02.35.04.05 0 .3-.12.68-.15.47-.1.12-.11.07.07-.25.09-.34.11-.43-.04.12-.08.23-.12.35-.02.06-.03.14-.04.2.03-.08.06-.16.06-.12-.07.22-.11.32-.14.41-.06.18-.12.35-.19.52.02-.11.03-.19.06-.33.04-.18.11-.39.16-.59.02-.08.03-.14.04-.21-.03.07-.06.13-.08.21-.18.52-.36 1.03-.55 1.55-.01.04-.03.08-.04.13l.02-.04v.03l.04-.1c.11-.28.17-.37.2-.31.03.05.11-.07.2-.3.06-.15.13-.32.19-.48-.05.18-.1.36-.16.53-.22.65-.42 1.26-.56 1.81-.04.15-.15.44-.23.66 0-.06.01-.19-.02-.17-.04.02-.12.15-.15.14.03-.23.01-.35 0-.46-.05.13-.13.3-.15.36-.04.15-.07.29-.05.33.01.03.09-.09.14-.15.02-.02.05-.07.06-.08-.16.4-.15.6-.4 1.05-.15.26-.46 1.02-.54 1.29-.19.67-.37 1.15-.71 1.64l-.06.13c-.11.53-.31.76-.51 1.06-.05.07-.15.3-.17.35-.11.45-.4.96-.61 1.43-.22.49-.41.92-.46 1.23-.1.19-.21.39-.31.58-.08.16-.17.33-.26.49-.21.18-.44.77-.51.96-.05.14-.11.29-.18.43h-.05c-.06.15-.12.3-.17.43-.09.25-.15.47-.25.72-.12.32-.18.53-.1.55.03 0-.02.16-.28.71l.02-.03.05-.1c.02-.03.04-.07.07-.11-.04.07-.08.15-.12.23v.16c-.07.09-.14.19-.22.29-.05.17.13-.08.34-.41.07-.11.17-.32.17-.42-.03.03-.05.07-.08.1.01-.04.02-.09.04-.14-.03.03-.08.11-.12.18.41-.79.56-1.16.66-1.47.05-.15.09-.22.13-.28.04-.14.08-.28.11-.41.02-.1.05-.19.07-.27l.22-.45c.06-.11.14-.23.24-.4.15-.23.3-.51-.11.47.66-1.51.74-1.73.83-1.94-.09.12-.17.24-.26.37l.32-.7-.04-.02c0-.02 0-.07.03-.15.12-.3.38-.7.41-.63 0 .02-.07.25-.13.39-.12.29-.18.37-.23.4 0 .04 0 .06.04.06.02 0 0 .11-.02.19-.02.11-.02.15.01.13l.1-.33s.11-.14.11-.15c-.03.1-.03.13-.02.15v-.02c.04-.08.14-.19.14-.17v.11c.09-.08.07.06 0 .28v.1s-.07.17-.12.26c-.02.04-.04.07-.06.09h-.01c-.14.28-.3.53-.38.56 0 0-.03 0-.02-.01.06-.18.11-.37.17-.55-.1.14-.2.31-.28.4-.13.16-.21.34-.33.66-.19.5-.13.6-.28 1.02-.04.12-.14.36-.16.38-.12.14-.23.33-.34.54l.08-.1c.04-.05.08-.12.12-.16.06-.07.11-.11.16-.17-.07.14-.15.3-.23.43-.09.16-.24.34-.26.42-.08.23-.15.46-.17.58 0 .06.15-.14.19-.16.09-.02.03.16-.14.45-.08.14-.16.27-.25.41-.17.29-.06.02-.04-.06.07-.33 0-.27-.25.18-.19.34-.38.67-.57 1.02-.19.34-.38.8-.5.75-.27.45-.42.87-.61 1.3-.04.08-.04.17-.02.17s.13-.15.16-.21c.26-.56.48-.86.7-1.12.18-.22.29-.43.37-.72.01-.05.15-.26.22-.39-.02.09-.02.16-.05.26-.05.16-.19.47-.17.51.07.21-.33 1.04-.44 1.49 0 .03-.07.17-.08.17-.03.03-.06.04-.07.04-.05-.02.13-.69.28-1 .23-.46.15-.33 0-.18-.28.3-.59.87-.9 1.35-.17.27-.36.58-.4.55-.03-.02.08-.35.18-.58.27-.67.49-1.28.53-1.68.03-.31.32-.88.68-1.44.44-.67.71-1.33.67-1.61.29-.56.33-.83.37-1.09l-.12.24c-.37.75-.37.75-.25.84-.13.25-.27.51-.38.76-.1.23-.26.29-.31.58 0 0-.08.15-.09.16-.03.02-.06.02-.05 0 .15-.37.24-.69.47-1.12 0-.02.01-.11 0-.09-.26.36-.53.88-.66 1.28l-.18.59c-.07.23-.07.22-.37.72-.07.11-.15.31-.19.43-.04.1-.13.33.02.13.13-.17.18-.17.07.09-.07.17-.29.54-.31.54-.17.05-.33.44-.46.76-.09.22-.2.48-.26.49-.13.03-.18.16-.34.53-.2.46-.28.74-.29.96-.01.21-.27.67-.43 1.01-.16.36-.34.63-.52.82-.02.02-.18.33-.34.65l-.22.43-.1.2c.01.03.05.02.08 0 .03-.01.07-.05.11-.08-.31.58-.1.4-.09.53 0 .08-.07.31-.16.51-.08.18-.24.51-.35.51-.07 0-.18.2-.28.43-.08.18-.18.38-.27.57.04-.26.1-.54.4-1.04.08-.08.15-.17.16-.2.08-.2.15-.39.22-.58-.04.07-.11.15-.13.19-.09.2-.17.39-.25.58-.05-.02-.01-.2-.2.11-.1.16-.19.33-.28.49-.31.59 0-.23-.26.23-.12.21-.29.56-.35.48-.05-.07.15-.33.23-.51.09-.19.15-.36.25-.55.12-.23.23-.45.35-.47.08-.01.24-.3.25-.48.01-.22.08-.51.38-1.04.05-.09.08-.19.12-.28-.07.11-.14.23-.2.32-.29.4-.29.36-.19.02.08-.29.25-.58.42-.91.15-.28.42-.64.43-.88.08-.22.12-.34.16-.47l-.41.59s-.03.12 0 .11c.09-.07.19-.16.26-.22-.21.33-.38.61-.57.9-.33.53-.53 1.14-.92 1.65-.05.21-.33.64-.29.75.02.05.15-.06-.02.26-.13.24-.28.49-.42.7-.09.13-.18.21-.27.31-.15.18-.24.37-.27.51-.02.1-.03.22.03.19.09-.05.23-.23.35-.35-.11.25-.23.5-.34.76-.04.08-.09.18-.14.26-.02 0-.05.02-.05-.02 0-.09.08-.32.03-.28-.17.15-.23.36-.32.58-.03.08-.17.26-.26.4-.08.14-.24.39-.24.39.08.21-.24.54-.44.84-.04.06-.11.23-.1.25 0 .03.08-.03.13-.09.03-.03.09-.15.14-.23.14-.25.22-.34.28-.33.04 0 .16-.11.24-.17-.14.26-.28.56-.42.78-.25.38-.52.71-.77 1.05-.05.06-.12.07-.11.04.21-.52-.05-.19-.25.02-.06.06-.44.5-.48.56v.02Zm10.98-18.58c-.04.12-.02.09 0 .06v-.06Zm-.1.05s.04-.04.06-.07l-.06.07Zm-1.48 2.93v-.06.05c.05-.08.12-.21.25-.41v-.02l-.21.3c-.03.04-.08.15-.11.23 0 .02 0 .02.07-.11Zm3.92-9.21c.08-.17.21-.43.23-.5.11-.44.37-.77.51-1.16.04-.09.1-.21.11-.27.03-.1.04-.18.04-.22 0-.02-.05.03-.08.09-.25.52-.51 1.04-.78 1.55-.2.41-.04.2-.06.3-.03.12 0 .14.02.21Zm-3.12 6.35.19-.21.09-.19s-.07.02-.11.04c-.06.11-.11.24-.17.35Zm-1.45 2.42s.04-.05.06-.07c.23-.45.46-.92.69-1.15.03-.07.08-.21.07-.21-.05 0-.11 0-.17.09-.13.21-.25.48-.38.73-.08.16-.17.33-.25.49-.02.04-.02.08-.02.11Zm-1.23 2.9c.09-.15.19-.29.22-.35.22-.43.42-.76.48-1.03.02-.07.08-.22.13-.33-.08.15-.18.31-.25.45-.13.26-.23.52-.35.79-.07.15-.15.31-.22.46Zm-2.47 4.53s.1-.06.13-.12l.03-.05c-.17.14-.18.18-.16.18Zm.4-.08-.43.62s0 .07-.01.17c.13-.2.24-.39.35-.58.03-.06.06-.14.08-.21Zm.06-.63s-.01-.03-.02 0c-.14.2-.29.41-.43.62l.2-.15c.08-.15.17-.31.26-.46Zm.14-.24c-.2.31-.17.4-.18.53.1-.09.14-.13.16-.16.11-.22.19-.47.3-.66.09-.15.19-.21.31-.35.05-.07.17-.28.19-.35.03-.1.02-.19 0-.17-.26.37-.52.75-.78 1.16Zm-3.65 5.73c.07-.01.54-.63.66-.88.05-.11.09-.24.07-.27-.02-.04-.03-.15-.22.18l-.28.48-.21.36c-.03.05-.05.13-.04.13ZM178.26 68.96c-.15.25-.26.52-.39.78-.03.06-.04.11-.05.16.05-.06.09-.13.14-.19.22-.28.42-.59.63-.96.17-.3.31-.53.25-.61-.02-.02.12-.32.19-.48.13-.42.34-.79.62-1.1.19-.22.49-.69.49-.8.01-.33.21-.61.5-.98.05-.06.13-.24.2-.36-.04 0-.09-.03-.13.04-.22.35-.44.62-.67 1.06-.41.77-.41.77-.6.74-.2.45-.4.88-.5 1.24-.12.41-.32.89-.67 1.49Z"/><path class="cls-8" d="M189.5 46.22c-.07 0 0-.15.1-.46.16-.47.47-1.15.46-1.43 0-.07.21-.59.36-.82.03-.04.12-.28.14-.36.02-.08 0-.14-.03-.09-.15.26-.2.32 0-.18.01-.04 0-.11-.03-.12 0 0 0 .02-.02.04l-.05.1c-.04.08-.07.16-.08.2-.26.87-.58 1.79-.96 2.76-.02.01-.05.03-.07.05l-.06.18h.04c-.05.14-.11.27-.16.41-.03.07-.05.22-.03.2.31-.39.04.28-.09.68l-.02.07c-.06.09-.11.18-.13.22-.07.19-.11.36-.19.63l.18-.38v.05c.05-.06.07-.07.11-.12.04-.06.1-.19.12-.25.05-.19.1-.36.15-.55.1-.31.19-.5.27-.52.02 0 .06-.08.09-.12 0-.05.03-.14.02-.15a.16.16 0 0 0-.11-.05ZM177.08 70.17c.3-.55-.13-.11.11-.57-.03.03-.07.06-.09.09-.25.45-.49.83-.7.94l-.21.35c-.01.04-.09.2-.08.24.02.1.19-.02.04.34-.01.03.11-.07.17-.11.05-.11.09-.23.14-.34.03-.07.04-.13.06-.19.03-.02.07-.05.08-.05.05.03-.06.52-.17.72-.01.03-.08.08-.11.1-.05.03-.05-.09-.17.19-.06.15-.05.23-.07.34.19-.25.44-.53.55-.74.12-.23.4-.7.31-.74-.08-.04-.04-.22.15-.57ZM182.62 60.25c-.21.72-.26.86-.7 1.8-.03.2.34-.37.18.07.07-.11.18-.27.19-.31.08-.26.11-.47.22-.75.11-.3.33-.7.44-1 .11-.3.27-.71 0-.42-.07.08-.02-.19-.02-.3-.1.3-.23.63-.3.91Z"/><path class="cls-8" d="M188.26 48.63c-.06.22-.12.43-.15.6 0 .02 0 .02.03 0v.05l.11-.14c0-.04.01-.08.02-.11.03-.05.05-.11.06-.13.09-.33.18-.63.27-.96.03-.11.09-.27.15-.39.28-.62.3-.7.11-.53-.22.2-.4.55-.55 1.04-.03.09-.04.15-.05.22.4-.6.07.1 0 .35ZM177.42 69.3c.07-.07.15-.13.23-.23.09-.11.2-.3.27-.38.24-.26.45-.52.59-.95.27-.32.38-.67.55-1 .02-.04 0-.07-.02-.07s-.09.07-.11.1c-.41.79-.91 1.44-1.4 2.31l-.11.23ZM185.79 54.92c-.11.19-.23.49-.31.61-.2.29-.24.38-.16.39.03 0 .05.02.07.04.04.02.07.07.12.04.02 0 .15-.23.18-.3.14-.37.16-.63.44-1.13-.01-.04 0-.17-.04-.12-.08.1-.2.28-.3.46ZM177.87 69.44c.03-.11.06-.21.1-.32l-.28.43c-.32.52-.55.95-.49 1.15.01.04-.16.39.07.03.21-.33.45-.71.52-1 .02-.07.07-.19.1-.28ZM181.92 62.06s-.06.02-.08.06c-.13.24-.27.48-.47.84-.1.21-.27.53-.41.84-.07.14-.17.41.04.12.25-.34.89-1.62.93-1.85ZM175.44 72.98l.03-.13c-.03.01-.05 0-.08.04-.17.22-.36.45-.5.69-.08.13-.08.28-.13.43-.02.05-.07.15-.07.19 0 .07 0 .11.01.16.06-.09.15-.22.23-.33s.13-.2.13-.2c-.02-.15.12-.44.37-.83ZM192.09 38.59c-.01.05.09-.12.14-.19.03-.04.06-.1.08-.15.02-.13.04-.28.06-.39.03-.24.04-.46.07-.71 0-.06.05-.27.07-.32.05-.2.09-.36.06-.36-.01 0-.05.16-.09.28-.07.34-.13.67-.19.97-.07.3-.13.59-.19.87ZM183.23 58.46c.03-.1.1-.27.15-.41-.09.15-.18.31-.29.51-.15.36-.33.74-.58 1.12-.04.06-.08.22-.12.34.07-.1.15-.18.22-.29.15-.27.27-.5.31-.4l.12-.21c-.13.03.16-.47.21-.67ZM183.17 59.87s-.07.1-.11.17c-.04.07-.07.13-.07.13 0 .13-.04.32-.2.66-.01.02.03.08.06.03.12-.16.29-.39.36-.55.08-.17.07-.3.09-.44 0-.04-.03-.02-.06-.04 0 0-.03-.03-.08.03ZM188.62 48.62c-.19.4-.19.55-.26.79-.03.09-.03.14-.04.21l.18-.37.12-.27.18-.41c.16-.36.08-.29.05-.32-.04-.05-.11.1-.24.37ZM174.2 75.42c.23-.31.38-.46.51-.52.01 0 .17-.24.22-.34.06-.11.1-.28.09-.27-.22.24-.45.5-.68.76l-.14.38ZM182.29 60.64s-.1 0-.15.07a4.5 4.5 0 0 0-.3.57c-.06.16-.06.25-.08.37l.25-.37c.16-.32.37-.63.26-.64ZM179.3 64.84l-.89 1.79c.05-.05.13-.11.15-.16.27-.5.52-1 .77-1.49.03-.07-.02-.09-.04-.14ZM186.45 53.38v.15s.06.06.09.04c.09-.05.2-.32.27-.5.04-.1.07-.25.06-.27-.02-.03-.07 0-.14.09-.08.12-.19.32-.29.49ZM190.84 42.9s-.05.08-.07.14c-.02.07-.06.19-.07.25-.06.34-.11.67-.17 1 0 .06 0 .1-.01.15.05-.11.12-.24.14-.31.13-.44.25-.85.45-1.37 0 0 0-.05-.01-.08-.42 1.08-.15.08-.26.22ZM191.19 41.33c-.05.09-.13.31-.18.45-.07.21-.12.4-.18.59-.02.06-.02.12 0 .1.03-.04.08-.11.12-.2.03-.06.07-.18.1-.27.05-.14.11-.28.15-.42.05-.17.05-.37-.02-.24ZM178.18 67.42s.01.05.03.1c.03-.02.12-.06.15-.11.22-.4.36-.44.55-.72.04-.06.09-.16.13-.23.01-.03 0-.06-.02-.04-.24.27-.48.56-.74.84-.02.03-.09.15-.09.16ZM175.72 72.85c-.26.39-.41.7-.43.89 0 .03.04.02.07-.02.04-.04.11-.13.14-.19.13-.25.26-.5.36-.73.05-.11.05-.18.07-.27l-.21.31ZM189.76 46.15c0 .05-.06.25-.04.22.11-.16.24-.37.35-.62.06-.14.09-.38.12-.55 0-.03-.04.03-.07.08-.15.26-.17.64-.37.87ZM181.34 63.6c-.06.11-.08.23-.13.34.07-.09.15-.18.22-.29.07-.1.13-.24.2-.37.07-.12.14-.25.2-.37.04-.07.06-.14.09-.21-.04.05-.08.1-.12.14-.17.16-.32.48-.46.75ZM187.28 51.24s-.06.07-.09.11l-.04.2c-.05.14-.11.28-.15.39-.09.26 0 .15.12 0 .07-.09.12-.11.18-.17.02-.06.06-.16.06-.18-.01-.07-.04-.11-.05-.18s.23-.61.03-.3a.44.44 0 0 0-.06.12ZM179.16 67.4c-.04.07-.11.22-.11.25 0 .12.03.22.05.34 0 0 .04-.03.07-.06 0 0 .04-.07.04-.08.04-.23.09-.46.12-.67 0 0-.11.13-.17.22ZM192.69 36.43c0 .07.02.07.03 0 .04-.16.07-.37.07-.42.02-.32.05-.48.04-.64 0-.06-.01-.14-.01-.13 0 .06-.09.91-.13 1.19ZM180.88 63.44c.04-.13.09-.27.12-.37a.44.44 0 0 0 0-.2s-.08.1-.12.17c-.16.28-.14.31-.11.36.02.03-.06.21-.09.3l.11-.08c.03-.06.06-.13.08-.18ZM182.52 61.53c-.07.17-.11.31-.19.52.16-.25.3-.44.43-.64 0-.07 0-.19-.03-.2-.02 0-.18.22-.22.31ZM183.81 59.17c-.05.1-.08.2-.17.42.19-.26.32-.45.46-.65 0-.01.08-.23.06-.22-.08.04-.17.07-.35.44ZM181.46 62.44c.07-.12.15-.26.19-.36.03-.08.03-.16 0-.15-.02 0-.13.15-.16.22-.09.18-.16.36-.23.53-.03.08-.05.14-.07.21.04-.07.09-.14.13-.21.04-.08.09-.16.13-.24ZM192.39 35.72l.06-.19v-.1c-.01.07.16-.63.02-.18 0 .03-.02.07-.04.12v.02h-.02v.05c0 .02 0 .04-.01.06-.08.38 0 .15 0 .21ZM191.97 39.11c0 .16.03.18 0 .3-.03.22-.07.44.06.12.01-.03.03-.1.04-.15.14-.52.02-.28 0-.33-.01-.03-.05.02-.12.06ZM189.01 48.24s.06-.09.08-.14c.11-.24.41-1.25.38-1.3 0 0-.03.04-.07.12s-.1.18-.16.3c-.07.33-.15.67-.23 1.02ZM192.24 38.79c.04-.08.07-.1.08-.16.1-.33.17-.78.14-.84 0 0-.04.09-.06.15-.06.29-.1.58-.16.85ZM179.66 64.08s-.14.14-.15.16c-.09.2-.16.4-.24.59l.13-.16c.13-.26.35-.56.26-.59ZM187.91 49.16c-.04.1-.07.21-.15.41.14-.19.24-.34.35-.49 0-.05.01-.14 0-.15-.03-.02-.04-.12-.2.24ZM189.09 46.45c.05-.13.08-.26.1-.36 0-.02-.1.11-.13.18-.06.13-.1.27-.18.5.12-.18.19-.28.21-.33ZM189.91 45.22c.07-.07.18-.24.28-.43.02-.04.14-.43.12-.44-.04-.01-.14.14-.26.29-.07.32-.15.6-.13.58ZM191.44 41.25c-.05.09-.11.21-.17.36-.02.05-.04.19-.09.41.11-.25.17-.39.22-.53.03-.08.05-.26.04-.24ZM177.91 69.08l-.07-.14c-.05.08-.11.18-.14.24-.05.11-.07.19-.11.33.16-.21.24-.31.33-.42ZM192 36.86c-.04.08-.09.2-.13.33-.02.05-.03.17-.09.37.09-.23.14-.36.18-.49.02-.07.05-.23.04-.21ZM191.37 41.93c.05-.11.1-.22.11-.26.04-.14.07-.28.08-.38 0-.03-.04.05-.07.08-.04.18-.08.36-.13.56ZM183.46 59.11c0 .06-.02.14 0 .18 0 .02.06-.06.1-.09l.1-.38c-.04.07-.08.13-.18.3ZM187.78 50.66c.08-.14.16-.28.23-.42l.14-.38c-.09.18-.19.35-.28.53-.04.08-.07.18-.1.27ZM180.76 64.71c.07-.11.17-.24.19-.29.04-.11.05-.19.05-.25 0-.02-.07.07-.1.11-.04.13-.09.27-.14.44ZM192.72 35.53c.02-.11.03-.23.03-.27v-.39l-.02.2c0 .15 0 .3-.01.46ZM191.73 40.68s.13-.2.19-.3c.11-.37.14-.54.19-.7l-.16.36-.17.36c-.02.1-.07.31-.04.29Z"/><path class="cls-8" d="M191.97 39.01c-.04.06-.07.11-.12.22-.02.04-.07.25-.1.38.06-.14.12-.28.19-.43 0-.04.04-.17.04-.16ZM182.18 62.1c-.05.15-.1.29-.1.34 0 .03.08-.06.12-.09.05-.13.11-.28.14-.39 0-.03-.08.06-.16.14ZM185.53 55.15c-.07.12-.14.24-.19.35-.06.13-.1.25-.15.38l.24-.41c.03-.1.07-.21.11-.32ZM176.57 68.53s-.07.06-.12.11c0 .05 0 .12.01.13.01 0 .07-.06.11-.09 0-.05.02-.13 0-.15ZM191.75 37.71s-.04.05-.05.08c-.03.1-.06.2-.07.25.05-.08.07-.11.09-.14.01-.06.04-.16.04-.18ZM177.6 68.15s-.09.08-.13.13v.17s.07-.12.13-.2c0-.04.02-.11 0-.1ZM177.79 68.42v-.12c-.04.07-.09.13-.12.19-.04.08-.06.15-.09.23.04-.07.09-.13.22-.31ZM183.98 58.65s-.02.02-.04.06l-.06.1s.01.08.03.09c0 0 .05-.06.13-.15-.03-.05-.05-.08-.07-.09ZM176.03 72.86c.05-.06.1-.11.14-.17.06-.11.11-.21.16-.32l-.16.2c-.04.09-.09.19-.14.29ZM189.4 45.35c-.08.22-.11.3-.13.37.04-.07.09-.14.13-.23.03-.06.06-.15.08-.23l-.08.09ZM184.93 57.17l.17-.27.09-.24c-.06.1-.13.2-.18.31-.03.06-.05.14-.07.2ZM172.46 78.05c.06-.06.12-.11.18-.18.04-.05.08-.13.13-.2l-.1.06c-.12.19-.16.26-.2.32ZM176.46 71.76c.03.16 0 .33.07.29.07-.03.25-.3.38-.46-.03-.02-.05-.07-.1-.05-.07.02-.16.1-.35.22ZM191.55 40.48c-.04.13-.09.26-.13.38 0 .01.01.02.02.03.05-.15.1-.28.13-.41 0-.01-.02-.01-.02 0ZM188.7 46.89s-.06.11-.09.17c0 .03.01.08.03.09 0 0 .05-.06.12-.17-.03-.04-.04-.07-.07-.09Z"/></g><g id="Layer_13"><path class="cls-9" d="M189.88 114.29c.18 5.36.04 10.73.08 16.09.02 2.29.26 4.64.06 6.93-.19 2.14-1.24 3.8-3.09 4.89-1.96 1.17-4.22 1.81-6.37 2.53-2.26.76-4.52 1.5-6.79 2.23-4.67 1.5-9.35 2.93-14.05 4.33-9.54 2.84-19.13 5.5-28.73 8.1-4.77 1.29-9.55 2.56-14.33 3.83-2.3.61-4.6 1.22-6.9 1.82-2.44.64-4.91 1.27-7.45 1.33-2.49.06-4.92-.48-7.32-1.08-2.57-.63-5.14-1.28-7.7-1.93-5.02-1.27-10.03-2.57-15.04-3.89-1.19-.31-2.39-.63-3.59-.94-.89-.23-1.27 1.15-.38 1.38 5.05 1.33 10.1 2.65 15.16 3.94 2.63.67 5.26 1.34 7.9 2 2.47.62 4.94 1.32 7.46 1.69 2.59.38 5.13.26 7.69-.26 2.4-.48 4.76-1.17 7.13-1.8 4.82-1.27 9.64-2.55 14.45-3.85 9.83-2.64 19.64-5.35 29.41-8.22 4.83-1.42 9.65-2.88 14.45-4.4 2.32-.74 4.64-1.48 6.95-2.25s4.56-1.44 6.75-2.37c1.98-.83 3.95-1.98 4.96-3.96.92-1.8.93-3.84.86-5.81-.18-5.44-.03-10.89-.08-16.34-.01-1.34-.04-2.68-.08-4.02-.03-.92-1.46-.92-1.43 0Z"/><path d="M138.58 88.88c-5.15-1.36-10.31-2.71-15.47-4.04-5.23-1.35-10.46-2.77-15.73-3.95-2.57-.58-5.16-.9-7.79-.6-2.63.3-5.06 1-7.55 1.66-4.89 1.3-9.79 2.59-14.68 3.9-10.06 2.7-20.11 5.45-30.1 8.38-4.9 1.43-9.79 2.91-14.66 4.44-2.39.75-4.78 1.52-7.16 2.3-2.31.76-4.65 1.48-6.91 2.38-.21.08-.42.17-.63.26-.11 0-.22.03-.32.08-2.36 1.14-4.59 2.63-6.13 4.79-1.48 2.07-2.02 4.68-2.28 7.16-.14 1.32-.18 2.65-.18 3.98 0 .05-.01.11-.01.17.05 1.55.08 3.1.09 4.66 0 5-.17 10 0 15 .09 2.7.3 5.39.71 8.06.1.67.24 1.3.51 1.93s.63 1.15 1.06 1.64c.76.88 1.77 1.49 2.82 1.96 2.44 1.08 5.12 1.59 7.7 2.24 2.87.72 5.74 1.45 8.61 2.18 5.57 1.43 11.14 2.89 16.7 4.35 5.56 1.47 11.01 2.92 16.52 4.37.68.18 1.36.36 2.03.54.8.21 1.19-.89.6-1.28l1.65-5.59s.03 0 .04.01c.76.2 1.14-.77.7-1.21l18.93-19.33 44.68-43.73 5.58-5.39c.1.03.19.05.29.08.89.24 1.27-1.15.38-1.38Z" style="fill:#ffa2af"/><path class="cls-9" d="M191.41 116.47c-.07-2.71-.23-5.42-.56-8.11-.16-1.29-.27-2.58-.93-3.73a6.98 6.98 0 0 0-2.41-2.45c-2.04-1.25-4.48-1.76-6.77-2.33a1709.339 1709.339 0 0 1-24.24-6.23c-5.33-1.41-10.45-2.76-15.67-4.14l-1.92-.51c-.06-.02-.13-.02-.18-.02a.656.656 0 0 0-.71.16c-4.7 4.42-9.38 8.86-14.03 13.33-4.63 4.44-9.23 8.91-13.81 13.4s-9.13 9-13.66 13.54c-4.55 4.55-9.07 9.14-13.57 13.74s-8.96 9.22-13.41 13.86c-.55.58-1.1 1.15-1.65 1.73-.05.05-.09.11-.12.17-.12.08-.21.2-.27.38l-2.03 6.63c-.12.4.09.69.39.82.06.04.13.07.21.1 8.17 2.15 16.34 4.26 24.54 6.3 2.04.51 4.08 1.01 6.18 1.23 2.06.21 4.12.04 6.15-.34 3.93-.74 7.8-1.95 11.66-2.97 7.87-2.09 15.73-4.19 23.57-6.37 7.88-2.18 15.74-4.44 23.55-6.81 3.82-1.16 7.63-2.36 11.42-3.59 1.83-.6 3.66-1.2 5.49-1.82 1.78-.6 3.58-1.18 5.25-2.06.77-.41 1.49-.89 2.13-1.47.06-.05.1-.11.14-.17 2.09-1.78 3.67-4.18 4.48-6.81.33-1.06.52-2.15.58-3.26.02-.37-.31-.68-.67-.71.05-.92.1-2.36.15-4.05.37.02.75-.21.75-.69-.08-5.57.12-11.14-.03-16.71Z"/></g><g id="Layer_18"><path class="cls-1" d="M116.49 119.76c-.23-.19-.48-.33-.56-.35.08.04.16.09.24.14.11.07.22.14.32.22ZM84.87 159.77c.09-.09.18-.17.28-.25a.21.21 0 0 0-.06.04l-.22.22ZM116.9 120.03c-.14-.08-.28-.18-.41-.28.04.04.08.07.13.11l.01.01c.08.05.18.1.28.16Z"/><path class="cls-1" d="M186.24 133.11c.81-3.48 2.66-6.62 5.15-9.11-.08-5.52-.25-11.51-.51-15.1-2.03-.3-4.02-.95-5.94-1.93-3.23-1.66-6.27-4.67-7.85-7.97-5.54-1.43-15.28-3.97-22.6-5.88-.74 1.35-1.68 2.61-2.87 3.74-4.29 4.1-10.86 5.77-16.52 3.74-2.22-.79-3.87-2.3-4.67-4.23-3.51 3.35-7.27 6.96-9.19 8.84-.18.17-.37.36-.58.57 1.22.49 2.38 1.11 3.4 1.84 3.99 2.83 6.97 6.81 7.78 11.74.5 3.04.47 5.76.01 8.8-.37 2.48-1.22 4.67-2.22 6.97-.72 1.67-2.63 2.76-4.28 3.29-1.84.6-3.85.16-5.52-.72-1.55-.82-2.83-2.62-3.29-4.28-.49-1.78-.17-3.29.46-4.89-.1.23-.19.46-.29.69.52-1.28.91-2.59 1.17-3.94.07-.91.08-1.81.02-2.72-.1-.48-.22-.95-.36-1.41-.14-.27-.3-.53-.46-.8-.15-.16-.31-.32-.47-.48-.65-.38-.78-.5-.69-.47-.18-.1-.35-.2-.54-.29-.47-.15-.94-.28-1.41-.39-.42-.02-.85-.03-1.27 0-.37.08-.73.18-1.09.3-.45.24-.89.5-1.34.77-.27.24-.53.49-.78.74-.19.19-.36.41-.54.62-.04.05-.07.11-.11.16-.3.46-.56.94-.81 1.43-.31.9-.54 1.83-.67 2.78-.26 1.79-1.84 3.34-3.29 4.28-1.63 1.05-3.68 1.14-5.52.72-.72-.16-1.43-.51-2.08-.96-2.33 2.36-5.45 5.5-8.57 8.64.09.03.17.05.26.08 4.3 1.42 7.92 4.16 10.29 8.04 2.01 3.28 3.09 7.51 2.65 11.35-.51 4.44-2.24 8.52-5.5 11.66-1.33 1.29-2.92 2.51-4.6 3.31-.25.12-.5.23-.74.34 1.09.27 2.01.48 2.69.63 5.6 1.2 9.57.56 12.98-.32 1.34-.34 4.29-1.15 7.74-2.08-.98-1.09-1.83-2.31-2.46-3.58-1.57-3.18-2.01-6.31-1.33-9.79.77-3.93 5.26-5.81 8.81-5 1.71.39 3.41 1.81 4.28 3.29.85 1.46 1.04 3.03.86 4.63v.11c.07.12.13.24.2.35.02.04.07.1.12.18.14.16.31.36.38.43.22.22.44.43.67.63.23.15.46.3.69.44.3.18.6.34.91.49.65.23 1.31.41 1.99.55.57.04 1.15.04 1.72 0 .44-.1.88-.21 1.31-.35.34-.18.67-.38 1-.58.17-.15.33-.31.5-.48.03-.05.17-.23.52-.6.22-.35.43-.71.62-1.07.15-.43.27-.87.37-1.32v-.29c-1.31-1.29-1.88-3.14-1.96-4.93-.08-1.78.85-3.82 2.1-5.06 1.16-1.16 3.36-2.29 5.06-2.1 1.56.17 2.87.41 4.26 1.19 1.21.67 2.36 1.91 3.06 3.1.67 1.15 1.15 2.47 1.4 3.78.41 2.12.49 4.18.23 6.26 8.66-2.53 17.48-5.16 20.88-6.3 6.74-2.25 13-3.74 16.89-7.09.3-.26.57-.52.84-.8-1.94-4.51-2.48-9.35-1.35-14.2Zm-12.42 7.31c-.99 1.69-2.49 2.63-4.28 3.29-4.7 1.73-9.88.99-14.32-1.07-7.9-3.66-11.83-13.62-9.21-21.81 1.39-4.33 4.25-7.96 8.16-10.29 1.69-1 3.66-1.84 5.61-2.2 2.67-.49 4.8-.44 7.47-.06 1.79.26 3.34 1.84 4.28 3.29 1.05 1.63 1.14 3.68.72 5.52-.39 1.71-1.81 3.41-3.29 4.28-1.63.95-3.18 1-4.92.8l.98.13c-.61-.07-1.2-.08-1.81-.06-.41.09-.82.21-1.22.34-.28.15-.56.3-.82.47-.41.45-.62.6-.66.58-.08.08-.16.17-.24.25-.15.24-.29.48-.42.73-.11.34-.2.68-.28 1.03-.02.41-.02.81 0 1.21.08.38.19.75.3 1.13.16.3.33.59.5.89.12.13.24.26.36.38.06.05.17.15.28.25.27.18.56.34.85.49.41.14.83.25 1.26.35.38.02.77.02 1.15 0 .5-.11.99-.26 1.47-.44 3.76-1.39 7.69 1.56 8.81 5 .56 1.72.18 3.98-.72 5.52Z"/><path class="cls-1" d="M133.8 162.04c-.12.15-.25.29-.38.43l-.09.09c-.04.09.26-.19.47-.52ZM85.15 159.51s.07-.04.1-.06c.35-.23.7-.65.49-.49-.04.04-.08.09-.13.13-.15.15-.31.29-.46.42ZM133.8 162.04c.12-.14.24-.28.37-.41-.12.12-.22.23-.31.33-.02.03-.04.06-.05.08ZM161.07 123.12l-.09.06c-.34.22-.52.45-.47.47.07-.08.15-.15.22-.23.11-.1.22-.19.34-.29ZM161.07 123.12s.07-.04.1-.06c.06-.06.12-.13.18-.21-.08.1-.18.18-.28.27ZM139.13 161.37c-.34-.06-.67-.13-1-.22.1.04.2.09.31.13l.69.09ZM86.33 153.73ZM85.96 153.31c-.18-.26-.36-.42-.4-.43.07.07.14.13.21.2.07.07.13.15.19.22ZM86.07 153.48c.07.07.15.15.24.23-.12-.12-.24-.26-.35-.4.02.03.04.05.06.08.02.03.03.06.05.08Z"/><path class="cls-1" d="M78.83 162.43c1.39-1.39 2.91-1.79 4.75-2.05-.42.06-.84.11-1.26.17.63-.1 1.23-.26 1.83-.45.32-.17.63-.35.94-.54.36-.35.56-.53.65-.59.12-.12.23-.25.35-.37.19-.29.36-.59.52-.89.1-.32.19-.64.26-.96.02-.39.01-.77 0-1.16-.1-.44-.22-.87-.36-1.3-.14-.27-.29-.53-.44-.79-.44-.42-.55-.6-.51-.59-.1-.09-.19-.19-.29-.28-.29-.18-.58-.35-.88-.5-.4-.13-.81-.25-1.22-.34-.42-.02-.85-.03-1.27 0-.42.09-.83.2-1.24.34-2.24.99-4.59.98-6.56-.03-2.66 2.82-6.68 7.36-6.68 7.36s-1.87 5.83-1.89 6.47c-.02.63.4.63.4.63s5.19 1.42 11.14 3.01a9.02 9.02 0 0 1-.32-2.05c-.08-1.78.85-3.82 2.1-5.06ZM83.62 160.37h.08-.08Z"/><path class="cls-4" d="M135.1 100.6c5.66 2.02 12.23.35 16.52-3.74 1.18-1.13 2.13-2.39 2.87-3.74-4.46-1.16-8.02-2.09-9.19-2.4-3.39-.89-6.91-1.93-6.91-1.93s-3.81 3.61-7.96 7.58c.8 1.93 2.45 3.44 4.67 4.23Z"/><path class="cls-3" d="M160.73 123.41c-.08.07-.15.15-.22.23.04.01.25-.13.66-.58-.03.02-.07.04-.1.06-.11.1-.23.19-.34.29Z"/><path class="cls-4" d="M165.74 129.9c-.49.18-.97.32-1.47.44-.38.02-.77.02-1.15 0-.43-.1-.85-.21-1.26-.35-.29-.15-.57-.31-.85-.49-.11-.1-.22-.19-.28-.25-.12-.12-.24-.25-.36-.38-.17-.3-.34-.59-.5-.89-.12-.37-.22-.75-.3-1.13-.02-.41-.02-.81 0-1.21.08-.35.17-.69.28-1.03.13-.25.27-.49.42-.73.08-.08.16-.17.24-.25-.04-.02.13-.24.47-.47l.09-.06c.1-.08.2-.17.28-.27-.07.07-.13.14-.18.21.27-.17.54-.33.82-.47.4-.13.81-.25 1.22-.34.6-.02 1.2 0 1.81.06l-.98-.13c1.74.21 3.3.15 4.92-.8 1.48-.87 2.9-2.57 3.29-4.28.42-1.83.33-3.89-.72-5.52-.94-1.45-2.48-3.04-4.28-3.29-2.67-.38-4.8-.44-7.47.06-1.94.36-3.92 1.19-5.61 2.2a18.464 18.464 0 0 0-8.16 10.29c-2.62 8.18 1.31 18.15 9.21 21.81 4.44 2.06 9.62 2.8 14.32 1.07 1.78-.66 3.29-1.6 4.28-3.29.9-1.53 1.28-3.8.72-5.52-1.11-3.44-5.04-6.39-8.81-5ZM104.09 129.8c1.45-.94 3.03-2.48 3.29-4.28.14-.96.37-1.88.67-2.78.24-.49.51-.97.81-1.43.04-.05.07-.11.11-.16.18-.2.35-.42.54-.62.25-.26.51-.51.78-.74.44-.27.89-.53 1.34-.77.36-.11.72-.21 1.09-.3.42-.02.85-.02 1.27 0 .48.11.95.23 1.41.39.18.09.36.19.54.29.08.03.33.17.56.35.14.1.27.19.41.28-.1-.05-.19-.11-.28-.16.16.15.32.31.47.48.16.26.31.53.46.8.15.47.26.94.36 1.41.06.91.05 1.81-.02 2.72-.26 1.35-.64 2.66-1.17 3.94.1-.23.19-.46.29-.69-.63 1.59-.95 3.11-.46 4.89.46 1.66 1.74 3.46 3.29 4.28 1.66.88 3.67 1.32 5.52.72 1.65-.53 3.55-1.62 4.28-3.29 1-2.3 1.84-4.49 2.22-6.97.45-3.04.48-5.76-.01-8.8-.81-4.92-3.79-8.91-7.78-11.74-1.03-.73-2.18-1.34-3.4-1.84-4.78 4.68-18.01 17.44-20.64 20.18-.57.59-1.84 1.89-3.53 3.6.65.45 1.37.8 2.08.96 1.83.42 3.89.33 5.52-.72Z"/><path class="cls-3" d="M116.49 119.76c-.11-.07-.21-.15-.32-.22-.08-.05-.16-.09-.24-.14-.09-.03.05.1.69.47l-.01-.01c-.04-.04-.08-.07-.13-.11ZM133.8 162.04s.04-.06.05-.09c-.35.37-.5.55-.52.6l.09-.09c.13-.14.26-.28.38-.43Z"/><path class="cls-4" d="M148.76 155.24c-.25-1.31-.73-2.63-1.4-3.78-.7-1.19-1.85-2.43-3.06-3.1-1.39-.77-2.69-1.02-4.26-1.19-1.7-.19-3.9.93-5.06 2.1-1.24 1.24-2.18 3.28-2.1 5.06.08 1.79.65 3.64 1.96 4.93v.29c-.1.45-.22.89-.37 1.32-.19.37-.39.73-.62 1.07.09-.1.19-.2.31-.33-.13.13-.25.27-.37.41-.21.33-.52.61-.47.52-.16.16-.33.32-.5.48-.33.2-.66.4-1 .58-.43.14-.87.26-1.31.35-.57.03-1.15.03-1.72 0-.67-.14-1.34-.33-1.99-.55-.31-.15-.61-.32-.91-.49-.24-.14-.46-.3-.69-.44-.23-.2-.45-.41-.67-.63-.07-.07-.24-.27-.38-.43-.05-.07-.09-.14-.12-.18-.07-.12-.13-.24-.2-.35v-.11c.19-1.6 0-3.17-.86-4.63-.87-1.48-2.57-2.9-4.28-3.29-3.54-.81-8.04 1.07-8.81 5-.68 3.48-.23 6.61 1.33 9.79.63 1.27 1.48 2.49 2.46 3.58 5.35-1.45 11.89-3.22 15.46-4.11 2.92-.73 11.3-3.11 19.84-5.59.27-2.08.18-4.14-.23-6.26Zm-9.63 6.13-.69-.09c-.1-.04-.2-.09-.31-.13.32.09.65.16 1 .22ZM184.94 106.97c1.92.99 3.91 1.63 5.94 1.93-.04-.57-.09-1.09-.13-1.53-.53-4.95-4.2-5.94-11.46-7.81-.62-.16-1.37-.35-2.2-.57 1.58 3.3 4.62 6.31 7.85 7.97ZM187.59 147.31c3.16-3.31 3.8-7.91 3.85-14.13.02-2.38 0-5.69-.05-9.18-2.49 2.49-4.33 5.63-5.15 9.11-1.14 4.85-.6 9.7 1.35 14.2Z"/><path class="cls-3" d="M86.07 153.48s-.03-.06-.05-.08a.555.555 0 0 0-.06-.08c-.06-.08-.13-.15-.19-.22-.07-.07-.14-.14-.21-.2-.04 0 .07.17.51.59Z"/><path class="cls-4" d="M95.62 169.33c3.26-3.15 4.99-7.22 5.5-11.66.44-3.84-.64-8.07-2.65-11.35-2.37-3.88-5.99-6.62-10.29-8.04-.09-.03-.17-.05-.26-.08-5.58 5.62-11.17 11.22-12.27 12.28-.4.39-.94.95-1.56 1.59 1.97 1 4.32 1.01 6.56.03.41-.14.82-.24 1.24-.34.43-.02.85-.01 1.27 0 .41.09.82.21 1.22.34.3.16.59.33.88.5.1.09.19.19.29.28.04 0 .22.17.4.43.11.14.22.27.35.39-.09-.08-.17-.16-.24-.23.16.26.31.52.44.79.14.43.26.86.36 1.3.02.39.02.77 0 1.16-.07.33-.16.65-.26.96-.16.3-.33.6-.52.89-.11.13-.23.25-.35.37.21-.15-.15.26-.49.49-.03.02-.07.04-.1.06l-.28.25.22-.22c-.31.2-.62.38-.94.54-.6.19-1.2.34-1.83.45.42-.06.84-.11 1.26-.17-1.83.26-3.36.66-4.75 2.05-1.24 1.24-2.18 3.28-2.1 5.06.03.69.13 1.38.32 2.05 4.66 1.25 9.78 2.59 13.22 3.44.24-.11.49-.22.74-.34 1.68-.81 3.26-2.03 4.6-3.31Zm-12-8.96h.08-.08Zm2.71-6.64Z"/><path class="cls-3" d="M85.15 159.51c.16-.14.32-.28.46-.42.04-.04.08-.09.13-.13-.09.07-.29.24-.65.59a.21.21 0 0 0 .06-.04Z"/></g><g id="Layer_5"><path class="cls-5" d="M141.07 31.31c-2.76-4.68-7.48-7.92-12.57-9.6-2.6-.86-5.33-1.32-8.07-1.41-2.73-.09-5.7.24-8.35-.75-1.39-.52-2.44-1.52-3.47-2.54a31.258 31.258 0 0 0-3.32-2.86c-2.32-1.71-4.93-3.04-7.71-3.81-5.4-1.5-11.51-.71-16.01 2.78-2.38 1.85-4.08 4.37-5.87 6.76a52.42 52.42 0 0 1-3.07 3.73c-.98 1.08-2 2.21-3.41 2.72-1.3.47-2.68.65-3.98 1.15-1.15.44-2.26 1.01-3.27 1.72a17.238 17.238 0 0 0-4.96 5.38c-2.53 4.33-3.09 9.62-1.17 14.29 1.91 4.62 5.77 8.31 10.44 10.07 1.03.39 2.1.66 3.19.83.32 2.72.65 5.43.97 8.15l.4 3.39c.05.38.3.72.72.72.32 0 .68-.27.71-.61.45-.3 1.08-.68 1.78-.98 1.37-.58 7.73-1.27 10.34-2 2.61-.73 18.34-.66 20.25-.72s16.36.77 18.15.94 4.01.73 5.24 1.05c.38.1.64.25.83.41l-.03.16c-.07.38.11.77.5.88.35.1.81-.12.88-.5a77.7 77.7 0 0 0 1.3-12.36c0-.34 0-.67.01-1.01h.04c5.1-1.91 9.62-5.59 11.37-10.89 1.64-4.96.75-10.62-1.88-15.07Z"/><path d="M130.12 70.8s0-.06-.01-.09v-.04c-.01-.09-.01-.1 0 0-.03-.08-.02-.2-.05-.29-.03-.11-.08-.21-.14-.3-.21-.33-.55-.57-.89-.75-.99-.51-2.11-.75-3.19-.96-3.76-.74-7.63-1-11.45-1.19-2.23-.12-4.47-.19-6.71-.23-.03 0-.06-.01-.09-.01-.07.01-.14 0-.22 0-4.44-.22-8.91-.08-13.35.2-2.99.14-5.97.37-8.94.72-1.02.12-2.04.26-3.06.42H82c-1.17.16-2.33.34-3.49.54-1.65.28-3.31.59-4.9 1.09-.56.17-1.12.37-1.64.64-.36.19-.74.45-.94.81-.48.87.22 1.86.93 2.34.92.63 2.14.83 3.22.98 1.38.19 2.77.3 4.15.43 1.89.17 3.78.29 5.68.39 7.7.37 15.41.18 23.09-.31 3.83-.24 7.66-.56 11.48-.91 1.89-.17 3.78-.36 5.68-.54 1.46-.15 3.21-.22 4.29-1.38.23-.25.41-.53.51-.86.05-.16.07-.33.08-.5 0-.07 0-.13-.01-.2Z" style="fill:#c1dade"/></g><path d="m135.88 104.47-3.91-3.91a3.042 3.042 0 0 0-4.29 0l-37.09 37.09-13.53-13.53a3.042 3.042 0 0 0-4.29 0l-3.91 3.91a3.042 3.042 0 0 0 0 4.29l15.36 15.36c.09.12.17.24.28.35 3.34 3.34 8.77 3.34 12.11 0l39.27-39.27a3.042 3.042 0 0 0 0-4.29Z" style="fill:#db5600"/><path class="cls-5" d="m131.75 100.38-3.91-3.91a3.042 3.042 0 0 0-4.29 0l-37.09 37.09-13.53-13.53a3.042 3.042 0 0 0-4.29 0l-3.91 3.91a3.042 3.042 0 0 0 0 4.29l15.36 15.36c.09.12.17.24.28.35 3.34 3.34 8.77 3.34 12.11 0l39.27-39.27a3.042 3.042 0 0 0 0-4.29Z"/></g><g id="Outline"><path class="cls-5" d="M20.22 146.21c.69-.19-1.24-8.29-1.58-18.43-.42-10.15.89-18.36.19-18.5-.31-.06-1.05 1.93-1.69 5.29-.32 1.68-.59 3.7-.78 5.95-.17 2.25-.23 4.74-.14 7.35.11 2.61.36 5.09.7 7.32.35 2.23.77 4.23 1.22 5.87.89 3.3 1.78 5.23 2.08 5.15ZM184.89 138.4c-.09-.04-.36.5-1.17 1.25-.82.75-2.18 1.7-4.06 2.71-3.76 2.05-9.56 4.38-16.86 6.85-7.31 2.46-16.13 5.07-26.02 7.63-4.94 1.28-10.15 2.55-15.57 3.75-5.42 1.18-11.06 2.36-16.84 3.14-1.44.17-2.87.35-4.25.34-1.39 0-2.8-.08-4.2-.22-2.8-.28-5.57-.77-8.27-1.31-5.42-1.07-10.62-2.4-15.57-3.65-4.96-1.26-9.67-2.48-14.12-3.51-4.44-1.01-8.57-1.96-12.35-2.82-7.55-1.71-13.67-3.05-17.92-3.92-4.24-.87-6.61-1.28-6.65-1.12-.04.16 2.25.88 6.43 2.03s10.24 2.75 17.74 4.67l12.28 3.11c4.4 1.11 9.08 2.4 14.03 3.72 4.96 1.31 10.16 2.69 15.67 3.81 2.75.56 5.57 1.08 8.5 1.38 1.46.15 2.95.25 4.47.24 1.54 0 3.04-.18 4.53-.36 5.94-.8 11.59-2 17.05-3.23 5.45-1.24 10.67-2.56 15.63-3.91 9.9-2.69 18.72-5.48 26.02-8.17 7.29-2.7 13.06-5.3 16.77-7.65 1.86-1.17 3.18-2.29 3.94-3.19.76-.92.88-1.57.82-1.58Z"/><path class="cls-12" d="M77.84 54.38c-.39-.54-2.38.23-4.43 1.72s-3.4 3.14-3.01 3.68c.39.54 2.38-.23 4.43-1.72 2.06-1.49 3.4-3.14 3.01-3.68ZM121.88 55.45c-.03-.08-.19-.12-.47-.12-.28 0-.66.05-1.15.03-.97.02-2.38-.09-3.96-.69-.79-.28-1.61-.72-2.41-1.29a9.54 9.54 0 0 1-2.22-2.14c-.17-.21-.33-.43-.46-.67-.13-.24-.31-.46-.41-.72-.11-.25-.25-.5-.34-.76l-.13-.4-.04-.12c-.03-.09-.07-.18-.08-.26l-.11-.49c-.15-.62-.28-1.3-.45-1.9-.6.28-1.2.57-1.81.85l-.46.22c-.14.06-.35.17-.39.18l-.46.19c-.31.12-.61.26-.92.37-5.03 1.9-10.01 2.11-13.54 1.83-3.55-.29-5.74-.92-5.86-.57-.11.27 1.91 1.5 5.63 2.27 1.85.37 4.12.58 6.63.42 1.26-.06 2.57-.25 3.91-.51 1.34-.29 2.72-.67 4.08-1.18.34-.12.67-.27 1.01-.41l.5-.21c.12-.05.06-.02.07-.03s.02-.03.03-.01 0-.01 0-.02l.04.11.19.52c.12.35.32.65.47.98.15.33.37.6.55.9.18.3.4.56.62.81.87 1.03 1.85 1.85 2.87 2.43 1.01.6 2.03 1.01 3 1.23 1.93.48 3.57.31 4.61-.01.53-.13.9-.34 1.15-.49.24-.15.35-.27.32-.35ZM129.99 56.5c-.42.52-.2 1.39.48 1.93.68.55 1.57.57 1.99.04s.2-1.39-.48-1.93c-.68-.55-1.57-.57-1.99-.04Z"/></g></svg>