<?xml version="1.0" encoding="UTF-8"?><svg xmlns="http://www.w3.org/2000/svg" xmlns:xlink="http://www.w3.org/1999/xlink" viewBox="0 0 200 200"><defs><style>.cls-1{fill:none;}.cls-2{mask:url(#mask);}.cls-3{fill:#cc9152;}.cls-4{fill:#f1a4ae;}.cls-5{fill:#e2c5bb;}.cls-6{fill:#439444;}.cls-7{fill:#dbb257;}.cls-8{fill:#eb5829;}.cls-9{fill:#f3b7c3;}.cls-10{fill:#e3a154;}.cls-11{fill:#fcfcfb;}.cls-12{fill:#e9718a;}.cls-13{fill:#eb6588;}.cls-14{fill:#fff;}.cls-15{fill:#eb7f32;}.cls-16{fill:#9e8475;}.cls-17{fill:#e0ddd9;}.cls-18{fill:#dc542a;}.cls-19{fill:#edebe8;}.cls-20{fill:#eb5d2a;}.cls-21{fill:#c54528;}.cls-22{fill:#ed7f31;}.cls-23{fill:#5d3d5b;}.cls-24{fill:#f2ac5d;}.cls-25{fill:#e7f7f8;}.cls-26{fill:#c398d7;}.cls-27{fill:#52b352;}.cls-28{fill:#5b3d5b;}</style><mask id="mask" x="119.61" y="9.66" width="73.01" height="27.49" maskUnits="userSpaceOnUse"><g id="mask0_253_8580"><path class="cls-14" d="M122.41,32.54l.64-2.34,1.61-5.84,2.95-10.72,16.53-.04,11.96-.03,29.16-.07,5.3,18.87v3.31s-26.88-.02-26.88-.02h-41.29l.03-3.12Z"/></g></mask></defs><g id="BG_Strong"><path class="cls-19" d="M44.6,161.09c45.01-3.66,163,28.33,141.69-53.24-3.37-27.47,20.91-71.29-21.83-80.54-44.83-11.12-84.62,17.62-122.23,36.62-10.2-2.1-23.08-.2-27.56,10.63-2.52,24.49-8.61,95.51,29.94,86.52Z"/><path class="cls-17" d="M75.53,132l7.53,32.13c2.43.02,39.83,2.74,40.06.32.25-2.6-27.87-39.39,12.52-43.36,12.63-2.89,29.58,1.12,37.72-11.47,6.87-12.12-5.1-17.62-14.72-19.01-8.3-3.23-9.02-8.39-6.5-16.01l-17.06-.59c-5.43,4.82-9.88,17.89,5.05,25.12,10.78,11.62-50.48,11.02-58.49,17.02-5.26-.31-8.71,4.79-10.49,9.47-1.17,3.06,1.1,6.35,4.38,6.37Z"/></g><g id="Illustrations"><path class="cls-12" d="M182.87,56.85h-10.55V7.09h10.55v49.76Z"/><path class="cls-14" d="M171.72,13.06c0-.4,2.64-.72,5.88-.71,3.24,0,5.87.33,5.87.72,0,.4-2.64.72-5.88.71-3.24,0-5.87-.33-5.87-.72Z"/><path class="cls-9" d="M189.1,75.43l-64.22-1.43.26-6.87-.34-6.71c.14-5.26-.41-21.77-.41-24.77l.46-1.02.86-10.55,62.46.17.46,11.4c.07,1.61.47,15.34.44,21.59l.03,18.19h0Z"/><path class="cls-4" d="M139.38,49.44v-2.72c0-.87-.71-1.58-1.58-1.58h-5.87c-.64,0-1.16.52-1.16,1.16v3.57c0,.64.52,1.16,1.16,1.16h5.87c.87,0,1.58-.71,1.58-1.58h0Z"/><path class="cls-4" d="M158,32.58h-7.68c-1.19,0-2.15.96-2.15,2.15v1.58c0,1.19.96,2.15,2.15,2.15h7.68c1.19,0,2.15-.96,2.15-2.15v-1.58c0-1.19-.96-2.15-2.15-2.15Z"/><path class="cls-4" d="M184.3,40.31h-7.68c-1.19,0-2.15.96-2.15,2.15v1.58c0,1.19.96,2.15,2.15,2.15h7.68c1.19,0,2.15-.96,2.15-2.15v-1.58c0-1.19-.96-2.15-2.15-2.15Z"/><path class="cls-4" d="M164.81,50.69h-8.82c-.87,0-1.58.71-1.58,1.58v2.72c0,.87.71,1.58,1.58,1.58h8.82c.87,0,1.58-.71,1.58-1.58v-2.72c0-.87-.71-1.58-1.58-1.58Z"/><path class="cls-12" d="M135.08,42.27v31.76l17.06.59v-32.34h-17.06Z"/><path class="cls-25" d="M179.47,42.27h-19.08v15.64h19.08v-15.64Z"/><path class="cls-8" d="M137.49,24.48h-11.56c-.12,0-.21.09-.21.21v5.46c0,.12.09.21.21.21h11.56c.12,0,.21-.09.21-.21v-5.46c0-.12-.09-.21-.21-.21Z"/><path class="cls-18" d="M167.18,32.32h-44.84v3.33h68.32v-3.33h-23.48Z"/><path class="cls-20" d="M190.01,29.96l-1.63-5.88-2.99-10.8h-57.78l-5.27,19.03h68.32l-.65-2.35Z"/><path class="cls-4" d="M175.51,63.6h-7.68c-1.19,0-2.15.96-2.15,2.15v1.58c0,1.19.96,2.15,2.15,2.15h7.68c1.19,0,2.15-.96,2.15-2.15v-1.58c0-1.19-.96-2.15-2.15-2.15Z"/><path class="cls-4" d="M134.33,42.24v-2.72c0-.87-.71-1.58-1.58-1.58h-5.87c-.64,0-1.16.52-1.16,1.16v3.57c0,.64.52,1.16,1.16,1.16h5.87c.87,0,1.58-.71,1.58-1.58h0Z"/><path class="cls-26" d="M157.81,61.7h23.73l-1.68-3.79-20.11-.03-1.94,3.82Z"/><path class="cls-9" d="M180.05,46.52h-20.66v1.58h20.66v-1.58Z"/><path class="cls-25" d="M149.11,45.14h-11.14v15.14h11.14v-15.14Z"/><path class="cls-13" d="M144.4,61.66v-18.25h-1.58v18.25h1.58Z"/><g class="cls-2"><path class="cls-21" d="M179.69,19.77c1.48,0,2.95-.48,3.98-1.45.85-.83,1.38-1.91,1.89-2.94.95-1.92,1.61-3.1,3.35-3.15.5.01.98.51,1.07.94.06.27-.05.32-.15.37l.76,1.56c.88-.43,1.29-1.31,1.08-2.29-.24-1.09-1.29-2.27-2.76-2.3-2.91.07-4.02,2.31-4.9,4.11-.47.95-.91,1.84-1.53,2.45-1.35,1.27-4.09,1.3-5.5.06-.82-.72-1.25-1.74-1.7-2.82-.17-.4-.34-.8-.53-1.19-1.06-2.19-2.8-3.48-4.69-3.45-2.57.03-3.78,2.16-4.84,4.03-.9,1.59-1.75,3.09-3.28,3.33-1.96.26-3.18-1.2-4.58-2.89-1.39-1.66-2.96-3.55-5.51-3.6h-.04c-2.7,0-4.26,2.12-5.65,3.99-1.25,1.69-2.43,3.28-4.25,3.34-1.47.03-2.68-1.61-3.96-3.36-1.51-2.05-3.08-4.17-5.46-4.04-2.73.16-4.14,1.81-5.17,3.02-.36.42-.7.82-.98,1.01-.45.29-.77.57-1.03.79-.5.43-.69.59-1.5.61-.71.02-1.52-.36-1.88-.86-.24-.34-.16-.56-.14-.63l-1.63-.59c-.27.74-.14,1.53.36,2.23.71.98,2.04,1.61,3.33,1.58,1.42-.03,1.98-.52,2.58-1.03.24-.21.49-.42.84-.65.5-.32.91-.81,1.36-1.34.92-1.08,1.96-2.3,3.95-2.41,1.47-.09,2.68,1.58,3.97,3.34,1.5,2.04,3.04,4.17,5.42,4.07,2.65-.09,4.21-2.19,5.58-4.04,1.31-1.76,2.44-3.29,4.25-3.29h.03c1.75.03,2.94,1.46,4.2,2.98,1.51,1.82,3.23,3.88,6.16,3.49,2.37-.38,3.52-2.41,4.53-4.19,1.11-1.95,1.89-3.14,3.36-3.16h.03c1.74,0,2.79,1.89,3.08,2.47.17.36.33.73.49,1.11.51,1.21,1.04,2.47,2.15,3.45,1.02.9,2.44,1.34,3.85,1.34h0Z"/><path class="cls-21" d="M180.46,28.65h.1c1.54-.02,2.98-.63,3.96-1.66.83-.88,1.36-2.09,1.86-3.25.97-2.24,1.69-3.61,3.41-3.66.46.01.94.57,1.06,1.09.08.32.02.54-.17.64l.83,1.52c.9-.49,1.29-1.48,1.02-2.57-.28-1.14-1.33-2.37-2.75-2.41-2.99.1-4.1,2.65-4.99,4.7-.47,1.08-.91,2.09-1.53,2.75-.66.69-1.66,1.1-2.73,1.12-1.08,0-2.09-.36-2.77-1.04-.76-.75-1.24-1.96-1.76-3.25-.94-2.37-2.01-5.06-5.19-5.21-2.67.04-3.89,2.44-4.96,4.56-.92,1.82-1.78,3.53-3.32,3.81-1.37.25-2.86-.77-4.43-3.04-1.18-1.71-2.97-4.29-5.74-4.32h-.04c-2.74,0-4.32,2.4-5.72,4.52-1.27,1.92-2.46,3.74-4.27,3.8-1.5.08-2.75-1.8-4.07-3.78-1.47-2.19-3-4.46-5.32-4.62-1.5-.1-2.64,1.41-3.66,2.74-.47.62-.97,1.27-1.35,1.55-1.25.91-2.52,1.83-3.87,1.87-.65,0-1.4-.35-1.81-.89-.17-.23-.36-.59-.23-1l-1.65-.53c-.28.86-.1,1.77.49,2.56.75.99,2.02,1.62,3.24,1.58,1.89-.05,3.44-1.19,4.82-2.19.61-.45,1.15-1.16,1.73-1.91.64-.84,1.61-2.1,2.17-2.07,1.48.1,2.76,2.01,4.01,3.86,1.53,2.28,3.11,4.63,5.58,4.54,2.7-.1,4.27-2.48,5.65-4.58,1.27-1.92,2.47-3.74,4.28-3.74h.02c1.73.01,3.04,1.7,4.33,3.57,1.99,2.88,4.07,4.14,6.16,3.76,2.38-.44,3.53-2.72,4.55-4.74,1.13-2.23,1.92-3.59,3.39-3.61,1.87.09,2.62,1.62,3.61,4.12.56,1.4,1.13,2.85,2.15,3.85.99.98,2.41,1.53,3.92,1.53h0Z"/><path class="cls-21" d="M179.83,37.15h.1c1.54-.02,2.98-.63,3.96-1.66.83-.88,1.36-2.09,1.86-3.25.97-2.24,1.69-3.61,3.41-3.66.46.01.94.57,1.06,1.09.08.32.02.54-.17.64l.83,1.52c.9-.49,1.29-1.48,1.02-2.57-.28-1.14-1.33-2.37-2.75-2.41-2.99.1-4.1,2.65-4.99,4.7-.47,1.08-.91,2.09-1.53,2.75-.66.69-1.66,1.1-2.73,1.12-1.08,0-2.09-.36-2.77-1.04-.76-.75-1.24-1.96-1.76-3.26-.95-2.37-2.02-5.06-5.19-5.21-2.67.04-3.89,2.44-4.96,4.56-.92,1.82-1.78,3.53-3.32,3.81-1.37.26-2.86-.77-4.43-3.04-1.18-1.71-2.97-4.29-5.74-4.32h-.04c-2.74,0-4.32,2.4-5.72,4.52-1.27,1.92-2.46,3.73-4.27,3.8h-.06c-1.42,0-2.69-1.94-3.91-3.82-1.52-2.33-3.09-4.74-5.54-4.58-2.78.18-4.2,2.06-5.24,3.43-.37.48-.71.94-1,1.15-.46.33-.78.64-1.04.89-.52.5-.69.67-1.48.69-.65.01-1.4-.35-1.81-.89-.17-.23-.36-.6-.23-1l-1.65-.53c-.28.86-.1,1.77.49,2.56.75.99,2.02,1.62,3.24,1.58,1.46-.04,2.03-.59,2.63-1.17.24-.23.5-.48.86-.74.5-.36.92-.92,1.36-1.51.93-1.23,1.98-2.62,3.97-2.75,1.44-.1,2.73,1.88,3.98,3.79,1.51,2.31,3.06,4.7,5.49,4.6,2.7-.1,4.27-2.48,5.65-4.58,1.27-1.92,2.47-3.74,4.28-3.74h.02c1.73.01,3.04,1.7,4.33,3.57,1.99,2.88,4.07,4.14,6.16,3.76,2.38-.44,3.53-2.72,4.55-4.74,1.13-2.23,1.92-3.59,3.39-3.61,1.87.09,2.62,1.62,3.61,4.12.56,1.4,1.13,2.85,2.15,3.85.99.98,2.41,1.53,3.92,1.53h0Z"/></g><path class="cls-27" d="M156.27,85.46c2.85,3.54,8.66,3.96,12.15,1.09.16-.13.23-.28.24-.43,3.47-3.51,2.73-10.03,2.06-14.34-.48-3.05-1.3-6.06-2.46-8.94-.55-1.37-1.14-2.76-1.88-4.06-.58-1.02-1.46-1.93-2.74-1.94-1.4-.01-2.56,1.02-3.4,2-.89,1.05-1.66,2.18-2.31,3.38-1.29,2.41-2.11,5.03-2.67,7.69-.56,2.66-1.01,5.43-1.07,8.15-.06,2.59.38,5.3,2.07,7.4h0Z"/><path class="cls-6" d="M166.86,87.64c1.95,2.5,5.92,2.8,8.31.77.11-.09.16-.2.16-.3,2.37-2.48,1.87-7.07,1.41-10.12-.32-2.15-.89-4.27-1.68-6.3-.38-.97-.78-1.95-1.29-2.86-.4-.72-.99-1.36-1.87-1.37-.96,0-1.75.72-2.32,1.41-.61.74-1.14,1.54-1.58,2.39-.88,1.7-1.44,3.55-1.83,5.42-.38,1.88-.69,3.83-.73,5.75-.04,1.83.26,3.74,1.42,5.22h0Z"/><path class="cls-15" d="M144.4,84.39c.08.42,2.31-.48,2.09-.05.39-.18,6.56-6.56,8.11-8.91.85-1.29.36-1.71-.03-2.23l-10.17,11.19Z"/><polygon class="cls-22" points="66.81 63.34 94.35 78.53 100.48 71.69 66.81 57.01 66.81 63.34"/><path class="cls-5" d="M105.09,51.02c.4,1.61.81,3.27,1.07,4.95.1.66.22,1.73-.19,2.25-.41.52-2.95.06-3.08.08-.67,1.01-1.31,2.89-1.68,4.25-.18.67-.35,1.31-.55,1.86-.44,1.23-2.7,3.34-3.65,3.43-.2.02-5.6-1.68-6.37-.59,0,0-1.91,5.29-1.62,5.96.86,2.02,5.83,6.09,4.13,6.93-3.43,1.68-17.49-1.86-18.89-8.87-.21-1.04,1.53-14.52,1.49-14.52-3.39-.04-.09-14.08.07-14.22.48-.4,7.43-.06,7.43-.06l5.83-8.99c.75.37,5.04.56,5.04.56l4.2.29c.87.34,2.77-3.27,3.82-2.79,2.16.99,2.78,3.84,4.51,4.12v4.66l-1.35,3.03c.09.68-.26,1.41-.85,2.54-.13.25-.3.59-.35.71-.09.36-.08.39.02.66.08.21.19.49.28.89.2.96.45,1.93.68,2.87h0Z"/><path class="cls-22" d="M131.95,104.05c1.74-.93-8.56-13.38-9.72-13.64-.49-.11-.46.99-2.76,2.19-1.13.59-5.18.55-8.91,2.37-4.41,2.15-5.51,4.28-6.94,4.6-1.48-5.28-5.13-16.52-6.77-14.28-4.95,6.74-14.66,34.19-12.56,38.27.76,6.37,8.49,9.03,13.92,8.6,8.53-.68,16.75-8.14,24.52-14.32,5.84-4.65,4.8-9.84,6.29-11.21,1.9-1.74,2.93-2.59,2.93-2.59Z"/><path class="cls-11" d="M154.27,72.95c-.47-.41-4.79-1.84-4.98-1.88-1.47-.32-9.34,8.99-9.81,8.91-1.99,1.72-5.63,6.29-5.7,8.48-.07,1.01.7,1,.48,2,1.41,1.1,3.74,2.48,5.55,1.67.24-.5-.07-.92-.16-1.39l.12-.38,5.98-6.95c.15-1.02,8.66-9.85,8.67-9.86.17-.3.09-.39-.15-.6h0Z"/><path class="cls-5" d="M123.58,92.78l6.74,8.63c7.62-6.98,11.8-6.71,14.35-7.03,1.49-.21,2.41-3.04,2.68-4.07-.37.32,4.34-6.6,4.78-6.41,1.18.52,2.12-3.71.91-4.29-2.77-1.31-3.46,2.92-5.9,3.16-1.05.1-5.98,7.89-7.91,9.27,0,0-4.96-3.21-5.45-3.59-.06.28,4.33-5.74,6.32-7.46-.05,0,2.18-.15,2.58-.17,1.27-.05,1.83.49,1.26-1.29-.42-1.29-3.41-3.57-4.59-3.46-4.4.39-7.89,6.72-9.45,10.24-.34.76-.48,1.73-.9,2.49-.73,1.33-3.65,3-5.03,3.81-.19.11-.36.16-.38.18h0Z"/><path class="cls-15" d="M145.74,83.41l-5.98,6.95s-.28.59-.88.64c-.77.07-3-1.16-3-1.16l-2.1-1.38c.07.37-1.18,1.56,2.02,3.04,1.03.48,1.26.67,2.15.87.61.14,1.25,0,1.85-.19.44-.2.87-.65,1.24-.98.29-.25,2.19-2.02,2.25-2.17.09-.22-.11-.75-.1-1.08.06-1.48,1.12-1.98,2.46-2.46-.02-.44.02-1.65.09-2.09h0Z"/><path class="cls-23" d="M126.57,105.51c-.24,0-.45-.17-.49-.41-.05-.23.07-.45.26-.55.43-.31,4.46-3.84,4.77-4.14,1.88-1.84,4.1-3.87,6.25-4.94.08-.04.14-.07.2-.11.14-.07.29-.15.51-.24.91-.38,2.57-.97,3.67-1.35-.59-.45-.92-.97-.99-1.55-.16-1.4,1.31-2.6,1.84-3.03-.07-.28-.09-.51-.09-.64.05-1.22.88-2.35,2.09-2.9-.07-.37-.07-.67-.06-.78.16-1.07,1.06-1.88,1.89-2.19.72-.27,1.64-.35,2.34-.18.54.13,1.35.64,1.7,1.08.17.22.14.53-.08.71-.22.17-.53.14-.71-.08-.21-.26-.83-.65-1.14-.73-.5-.12-1.22-.06-1.74.14-.55.21-1.16.76-1.25,1.4-.01.14.05,1.03.65,1.57.5.44,1.27.55,2.28.33.05-.03.12-.07.21-.12.21-.12.59-.34.72-.48.24-.25.38-.69.49-1,.09-.29.16-.49.31-.64.17-.17.48-.29.96-.46.19-.07.41-.15.5-.2,1.22-.66,2.24-2.14,1.84-3.47-.08-.25-.78-.92-1.04-.99-.68-.19-1.49.09-1.97.68-.17.21-.54.77-.21,1.41.13.25.62.56,1,.57.17,0,.21-.06.23-.1.13-.24.44-.33.68-.2.24.13.33.44.2.68-.22.4-.62.63-1.11.63h-.02c-.71,0-1.57-.52-1.88-1.12-.42-.81-.29-1.75.33-2.51.74-.9,1.95-1.31,3.02-1.01.55.15,1.55,1.04,1.74,1.67.42,1.41-.24,3.52-2.32,4.65-.16.08-.38.17-.64.26-.17.06-.45.16-.57.23-.02.06-.06.17-.09.25-.13.39-.32.97-.72,1.39-.21.22-.57.44-.95.65-.02.01-.04.03-.06.04,0,.03-.01.05-.02.08-.07.34-.14.61-.22.79-.32.67-1.03,1.42-1.68,1.8-.5,1.86-1.21,3.09-2.06,3.58-.77.43-1.19.44-1.63.41-.16-.01-.28-.02-.44.02-.15.04-3.25,1.09-4.61,1.66-.18.07-.29.14-.43.21-.07.04-.14.07-.22.12-2.02,1.01-4.17,2.97-6,4.76-.14.14-1.38,1.24-2.5,2.21-2.41,2.1-2.47,2.12-2.64,2.15-.03,0-.07.01-.1.01ZM126.47,104.52h0,0ZM143.04,90.15c-.92.77-1.35,1.43-1.29,1.97.06.55.69.99,1.25,1.27.23-.04.42-.02.58-.01.27.02.49.04,1.06-.28.25-.14.85-.64,1.39-2.29-1.02.3-1.85.23-2.48-.19-.2-.14-.37-.3-.5-.47ZM144.95,86.63c-.71.35-1.4,1.07-1.43,1.98,0,0,.03.81.6,1.18.51.33,1.36.24,2.47-.27.06-.03.12-.04.19-.05.46-.29.97-.85,1.2-1.32.01-.03.03-.08.04-.14-1.05.11-1.9-.13-2.53-.7-.23-.21-.41-.45-.54-.69Z"/><path class="cls-23" d="M121.43,94.95c-.17,0-.33-.08-.43-.24-.15-.24-.08-.55.16-.7.23-.14.94-.57,1.77-1.06,1.19-.71,2.68-1.59,3-1.81.25-.17.52-.32.78-.46.41-.22.83-.46,1.14-.75.55-1.38,5.71-14.05,11.74-14.09h.01c.89,0,1.67.62,2.29,1.13.29.24.57.46.78.56.62.29,2.22,1.7,1.83,2.8-.38,1.07-2.18,1.14-5.82.22-.27-.07-.43-.34-.36-.61.07-.27.34-.43.61-.36,4.19,1.06,4.62.42,4.62.42.1-.27-.77-1.29-1.3-1.54-.32-.15-.65-.41-.99-.68-.53-.42-1.13-.91-1.66-.9-2.25.01-4.83,2.33-7.46,6.69-2.04,3.39-3.37,6.82-3.39,6.85l-.04.1-.07.07c-.42.43-.94.71-1.44.99-.25.14-.49.27-.7.41-.35.24-1.79,1.09-3.05,1.84-.79.47-1.53.91-1.75,1.04-.08.05-.18.08-.27.08Z"/><path class="cls-5" d="M134.58,93.47c1.08-.15,1.68-2.27,1.34-4.75-.34-2.47-1.49-4.36-2.57-4.21-1.08.15-1.68,2.27-1.34,4.75.34,2.47,1.49,4.36,2.57,4.21Z"/><path class="cls-23" d="M135.62,93.21c-.08,0-.17-.02-.24-.06-.22-.13-.32-.4-.22-.63.06-.24.19-1.46.21-1.76.05-.97.05-2.69-.04-3.69-.19-2.03-.45-2.61-.55-2.77-.15-.23-.09-.55.14-.7.23-.15.55-.09.7.14.33.5.55,1.53.71,3.23.1,1.05.1,2.83.05,3.84,0,.02-.14,1.84-.31,2.14-.09.17-.26.26-.44.26ZM135.18,92.46s0,0,0,0c0,0,0,0,0,0Z"/><g id="Layer_4"><path class="cls-22" d="M62.7,97.11c4.05-9.84,6.22-17.39,12.26-26.17-1.02-1.71-.09-6.61-.09-6.61,0,0-2.52-1.35-10.89-1.35-9.18,0-12.01,2.24-12.71,2.3s-7.45,3.9-9.17,4.77c-1.72.87-10.74,6.14-11.77,6.77-1.02.63-9.58,6.54-11.12,7.78-1.54,1.24-5.29,4.91-6.84,6.62-1.55,1.71-3.39,4.44-4.18,6.23-.79,1.78-.15,3.18.39,4.59.53,1.41,4.11,4.62,5.46,5.6s5.01,3.16,7.94,4.46c2.93,1.3,4.29-.36,4.29-.36l3.19.36,3.88.54s-1.79,3.09-2.06,3.56c-.27.48-3.8,7.16-4.4,8.61-.6,1.45-.9,3.98-.93,5.21s.97,3.56.97,3.56l3.49-6.71,2.93-5.93,18.64,4.67c3.54-9.51,6.86-19.11,10.72-28.5Z"/><path class="cls-4" d="M74.55,70.36c-3.02,4.44-24.59,51.5-25.69,54.46l19.03,4.76,12.22,3.99c1.09-4.58,10.31-48.58,10.55-57.91-1.43.02-9.78,3.86-16.1-5.31Z"/><path class="cls-22" d="M98.22,103.74c.07-.23.14-.47.2-.7,1.24-4.47,1.84-9.43,1.38-14.06-.51-5.14-8.63-15.27-10.09-14.69-.11,4.96-.47,9.92-1.09,14.85-.64,5.1-1.52,10.16-2.58,15.19-1.09,5.19-2.52,10.3-3.65,15.48-.86,3.93-1.86,9.15-2.81,13.08l2.45.68,3.55,3.95s4.1-18,5.45-20.07c1.35-2.06,3.14-6.69,3.73-7.74.59-1.05.77-8.54.77-8.54,0,0,1.29,1.24,2.69,2.57Z"/><path class="cls-5" d="M36.4,110.62l6.28-9.3,1.5.72s6.75.5,9.94,1.37,7.49,2.41,8.59,2.87c1.1.46,2.89,1.02,2.89,1.02,0,0,.52,1.02.57,1.89s1.57,4.27,2.1,5.45,1.59,3.47,1.17,3.75-.63.57-1.76,1.1-2.28.77-2.57,1.06-.24.69-1.09.82-3.61.22-3.94.28-.5.65-1.57.52-3.62-.28-4.46-.84-.93-1.01-1.5-1.47-.68-.39-.49-1.38c.19-.99.28-1.9.28-1.9l-.43-2.15s-1.46.3-2.5-.36-1.36-1.38-1.67-1.46-3.63.28-4.6.17c-.97-.12-2.45-1.83-2.8-1.79s-3.94-.35-3.94-.35h0Z"/><path class="cls-10" d="M71.4,188.11s9.62-50.85,9.72-51.48.44-2.59.44-2.59l5.68,6.61s-3.46,19.63-4.18,23.48-4.83,24.75-5.32,27.11c-.49,2.37-.86,3.62-.86,3.62l-2.04-2.55-3.42-4.2Z"/></g><path class="cls-3" d="M77.04,194.31h0c-.28-.06-.56-.14-.85-.2l-4.8-5.47s-13.95-3.61-23.63-6.36c-8.36-2.37-29.59-10.05-35.2-12.09-.3-.33-.6-.66-.91-.98-.6-.63-1.55.32-.95.95,1.89,2.01,3.72,4.1,5.47,6.23.08.1.2.16.32.18,3.79,1.5,7.61,2.94,11.45,4.33,3.85,1.39,7.75,2.75,11.65,4.05,3.93,1.31,7.88,2.56,11.85,3.77,3.96,1.2,7.93,2.35,11.91,3.45,3.99,1.1,7.88,2.11,11.83,3.09.5.12.99.24,1.49.36.84.21,1.2-1.09.36-1.3Z"/><path class="cls-10" d="M70.92,189.12c1.89,2.01,3.72,4.1,5.47,6.23.23.28.71.24.95,0,.28-.28.23-.67,0-.95-1.75-2.13-3.58-4.22-5.47-6.23-.6-.63-1.55.32-.95.95h0Z"/><path class="cls-10" d="M81.08,134.52c1.89,2.01,3.72,4.1,5.47,6.23.23.28.71.24.95,0,.28-.28.23-.67,0-.95-1.75-2.13-3.58-4.22-5.47-6.23-.6-.63-1.55.32-.95.95h0Z"/><path class="cls-10" d="M86.58,140.47c-1.2,7.09-2.46,14.17-3.76,21.24-1.31,7.07-2.67,14.13-4.08,21.18-.8,3.97-1.61,7.94-2.44,11.9-.07.35.1.73.47.83.34.09.75-.11.83-.47,1.47-7.04,2.89-14.08,4.26-21.14,1.37-7.06,2.68-14.13,3.94-21.2.71-3.99,1.4-7.98,2.08-11.97.06-.36-.09-.73-.47-.83-.32-.09-.77.11-.83.47h0Z"/><path class="cls-3" d="M66.11,120.72c.41.8.8,1.61,1.16,2.43.08.18.16.35.24.53.04.1.09.21.13.31.03.07.02.06-.02-.04.02.06.05.12.07.18.16.39.31.77.46,1.16.62,1.62,1.15,3.28,1.6,4.95.15.56.79.95,1.36.77s.93-.76.77-1.36c-.94-3.48-2.24-6.84-3.87-10.06-.26-.52-1.03-.71-1.51-.39-.53.34-.67.96-.39,1.51h0Z"/><path class="cls-3" d="M50.98,119.09c-.17.93-.28,1.87-.26,2.82.02.88.14,1.75.24,2.62.07.57.46,1.13,1.1,1.1.54-.02,1.18-.49,1.1-1.1-.1-.84-.22-1.69-.24-2.54-.01-.39,0-.78.02-1.16.02-.2.02-.4.06-.6-.05.29.02-.11.03-.16.02-.13.04-.26.07-.38.1-.56-.15-1.22-.77-1.36-.54-.12-1.24.16-1.36.77h0Z"/><path class="cls-24" d="M82.21,134.22h0c.1-.37-.13-.71-.47-.83-4.42-1.49-8.86-2.91-13.32-4.25.18-1.4.23-2.8.09-4.21-.17-1.62-.5-3.14-.85-4.69-.13-.56-.81-.95-1.36-.77-.59.19-.91.75-.77,1.36.17.73.33,1.46.47,2.2.07.36.13.72.19,1.08.01.09.03.18.04.27,0,.03.03.22.02.16,0,.05.01.11.01.12.01.09.02.18.03.27.07.69.1,1.39.09,2.09,0,.37-.03.74-.06,1.11-.01.13-.03.25-.04.38-1.07-.32-2.14-.63-3.22-.94-4.59-1.31-9.19-2.54-13.82-3.69.51-.93,1.01-1.86,1.54-2.78.31-.54.66-1.05,1.03-1.56,0,0,0,0,0,0,.04-.05.08-.09.11-.14.08-.09.16-.18.24-.27.2-.22.42-.42.63-.62.43-.39.43-1.17,0-1.56-.45-.42-1.11-.42-1.56,0h0c-.93.86-1.68,1.86-2.32,2.95-.66,1.13-1.28,2.29-1.9,3.43-.92-.22-1.85-.45-2.78-.66-3.57-.84-7.15-1.63-10.74-2.38-.01,0-.03,0-.04,0-.01,0-.02-.02-.03-.02-.29-.17-.77-.09-.92.24-2.86,6.37-5.72,12.73-8.57,19.09-2.84,6.33-5.68,12.66-8.53,18.99-1.61,3.59-3.22,7.17-4.83,10.75,0,0,0,.02,0,.02-.02.04-.05.09-.06.14-.04.16-.02.31.04.44.05.13.14.24.27.32.04.02.09.04.14.06,0,0,.02,0,.02.01,3.79,1.49,7.61,2.94,11.45,4.33,3.87,1.4,7.75,2.76,11.65,4.06,3.91,1.31,7.84,2.56,11.79,3.76,3.94,1.2,7.89,2.35,11.86,3.44,3.92,1.08,7.85,2.11,11.8,3.08.5.12.99.24,1.49.37.25.06.46-.01.6-.15.14-.09.25-.22.28-.38,1.47-7.04,2.89-14.08,4.26-21.14,1.37-7.06,2.68-14.13,3.94-21.2.71-3.99,1.4-7.98,2.08-11.97.02-.1.02-.21,0-.31,0,0,0,0,0-.01Z"/><path class="cls-28" d="M69.23,115.11l-1.34-3-1.35-3.01c0-.08,0-.16-.02-.24l-.26-1.76c-.02-.16-.18-.33-.31-.4-.05-.03-.11-.05-.17-.07-.07-.06-.16-.11-.26-.15h0c-.38-.13-.79-.19-1.19-.19-.09-.1-.2-.18-.33-.23h0c-2.84-1.18-5.7-2.31-8.68-3.08-1.16-.3-2.34-.55-3.51-.82-1.04-.23-2.09-.44-3.15-.59-1.52-.21-3.04-.31-4.57-.34-1.27-.58-2.47-1.28-3.65-2.04-.3-.19-.76-.07-.92.24-.18.33-.07.72.24.92,1.31.84,2.65,1.62,4.08,2.23.22.09.48.11.68,0,2.27.07,4.4.31,6.61.8,2.61.57,5.2,1.2,7.72,2.09,1.54.55,3.06,1.16,4.56,1.78.03.07.07.13.13.18.12.11.3.22.48.2.22-.02.43-.02.65,0,.11.02.22.04.33.07v.08s-.06-.03-.1-.04c-.17-.04-.37-.03-.52.07-.15.1-.25.23-.31.4l-.47,1.3c-.08.11-.12.24-.11.38h0l.57,6.4c.02.17.03.34.05.51,0,.02,0,.04,0,.05l.02.18s0,0,0,.01c.07.79.15,1.58.21,2.37.03.35.06.75-.09.99-.13.23-.47.3-.75.32-.93.09-1.86.11-2.79.15.04-.26.07-.52.1-.77.21-1.55.4-3.11.37-4.67-.02-.82-.15-1.65-.1-2.47.04-.56.22-1.18.68-1.48.3-.2.43-.59.24-.92-.17-.3-.62-.45-.92-.24h0c-1.14.77-1.41,2.13-1.34,3.42.04.69.11,1.38.1,2.07s-.05,1.45-.12,2.17c-.07.68-.15,1.36-.24,2.04-.04.28-.07.57-.13.85-.01.05-.02.1-.04.15,0-.02-.06.15-.05.15-.02.04-.04.08-.07.12.04-.07-.07.07-.02.03-.18.14-.44.11-.68.1-.34-.03-.68-.08-1.02-.12-.63-.07-1.26-.13-1.89-.26-.48-.09-.95-.23-1.37-.46.37-.07.73-.21,1.05-.4.76-.49,1.25-1.23,1.51-2.09s.28-1.8.32-2.7l.12-2.97c.09-.07.17-.13.25-.21.06-.06.12-.13.17-.2.09-.11.18-.23.25-.35.05-.08.07-.16.08-.25.02-.09.02-.18-.01-.27-.02-.09-.06-.16-.12-.23-.05-.07-.11-.13-.19-.17-.16-.08-.35-.12-.52-.07s-.31.15-.4.31c-.03.05-.06.1-.1.14-.07.08-.14.15-.22.22-.06.04-.11.08-.17.11-.08.04-.14.1-.19.17-.06.07-.1.14-.12.23-.03.09-.03.18-.01.27,0,0,0,0,0,0-.02.06-.04.13-.04.2h0l-.11,2.68c-.03.75-.02,1.53-.18,2.27-.13.66-.37,1.25-.89,1.65-.4.31-.84.42-1.3.26-.03-.02-.05-.04-.08-.06-.11-.09-.21-.19-.3-.3-.07-.1-.14-.21-.2-.33.33-.08.61-.38.49-.81h0c-.41-1.43-.51-2.95-.25-4.41.06-.36-.1-.73-.47-.83-.32-.09-.77.11-.83.47-.05.29-.09.58-.12.86-.03,0-.06,0-.1,0,0,0,0,0-.02,0-.04,0-.09,0-.13.01-.09,0-.17,0-.26,0-.09,0-.19-.01-.28-.02-.04,0-.08-.02-.13-.02-.17-.03-.34-.08-.5-.14-.04-.02-.08-.03-.12-.05.16.06,0,0-.03-.02-.08-.04-.15-.08-.23-.12s-.15-.09-.22-.13c-.04-.02-.07-.05-.11-.07-.02-.01-.03-.02-.04-.03-.12-.1-.24-.21-.35-.32-.06-.06-.11-.13-.17-.19.11.12,0,0-.02-.03-.02-.04-.05-.07-.07-.11-.05-.07-.09-.15-.13-.22-.02-.04-.04-.08-.06-.11-.02-.03-.08-.18-.02-.03-.11-.26-.34-.49-.63-.5-.13-.06-.28-.08-.46-.03h0c-1.29.41-2.75.79-4.05.58-1.06-.17-2.05-.67-2.6-1.59,0,0,0-.01-.01-.02,0-.01-.02-.03-.03-.04-.12-.16-.28-.24-.45-.26-.03,0-.06-.01-.09-.02-2.1-.24-4.2-.49-6.29-.76-.36-.05-.67.34-.67.67,0,.4.31.63.67.67,1.96.26,3.93.49,5.9.72.73,1.02,1.9,1.68,3.13,1.91,1.53.28,3.07-.02,4.53-.47.37.64.89,1.17,1.55,1.54.74.42,1.58.59,2.42.51.01.85.12,1.7.32,2.53-.01,0-.03,0-.04,0-.36.12-.55.46-.47.83.07.3.19.58.34.85,0,.01,0,.03,0,.04.2,1.31,1.32,2.23,2.5,2.67.67.25,1.39.35,2.09.44.71.09,1.44.2,2.16.26.6.05,1.2-.09,1.62-.51,1.09-.05,2.18-.09,3.27-.17.49-.04,1.02-.11,1.44-.38.24-.16.44-.37.59-.62.95-.38,1.9-.76,2.83-1.17.78-.35,1.57-.88,1.81-1.74.3-1.07-.4-2.17-.82-3.12ZM68.74,117.91s0,.04-.05.11c-.06.1-.04.07-.11.16-.21.23-.48.38-.79.53-.67.33-1.38.61-2.08.88,0-.19-.03-.38-.04-.57l-.12-1.33s0,0,.01-.01l.11-.14c.06-.11.09-.22.09-.34l-.02-.18c-.03-.11-.09-.21-.17-.3l-.11-.11-.24-2.73-.34-3.81.29-.81s.03.1.05.14h0s2.44,5.45,2.44,5.45l.6,1.35c.19.41.42.84.51,1.29.03.15.03.29-.01.43Z"/><path class="cls-1" d="M71.42,161.13c.05-.25.04-.36.04-.36-.03-.31-.24-.58-.56-.68-.16-.05-.33-.04-.48.02,0,0-.1.03-.28.13,0,0-6.05,3.41-11.14,17.27,0,0-.08.19-.08.38,0,.32.16.62.52.8h0l2.33,1.04c.21.09.32.3.26.52,0,0-.77,2.25-2.39,6.2,1.2.33,2.41.65,3.62.97.4-1.12,1.57-4.4,2.91-8.39,1.96-5.83,4.36-13.34,5.25-17.9h0Z"/><path class="cls-1" d="M53.04,176.81c.08-.22.26-.39.47-.46,1.2-.4,2.18-1.36,2.56-2.66,0-.02,0-.03.01-.05h0s.01-.05.02-.07v-.04c1.22-4.81,2.71-10.26,4.21-14.47,0-.02.01-.04.02-.06.11-.39-.13-.8-.52-.91-.37-.1-.76.1-.89.47-1.03,2.88-2.06,6.35-2.99,9.81h0c-.13.46-.61.73-1.07.61-.47-.13-.74-.6-.61-1.07h0c.93-3.43,1.95-6.88,2.97-9.75,0-.02.01-.04.02-.06.11-.39-.13-.8-.52-.91-.37-.1-.76.1-.89.47-1.04,2.9-2.07,6.39-3.01,9.86h0c-.13.47-.61.74-1.07.61s-.74-.61-.61-1.07c.93-3.45,1.96-6.91,2.99-9.8,0-.02.01-.04.02-.06.11-.39-.13-.8-.52-.91-.37-.1-.76.1-.89.47h0c-1.55,4.33-3.09,9.99-4.32,14.92-.31,1.33.08,2.67.96,3.61.17.19.24.45.18.7h0c-.02.07-.04.17-.06.24-.68,2.85-1.28,5.56-1.57,6.87,1.19.35,2.37.71,3.56,1.05.1-.56.28-1.59.55-3.01.71-3.63,1.01-4.34,1.01-4.34h0Z"/><path class="cls-1" d="M82.21,134.22c.1-.37-.13-.71-.47-.83-6.17-2.09-12.39-4.03-18.66-5.82-6.23-1.78-12.5-3.42-18.81-4.9-3.57-.84-7.15-1.63-10.74-2.38-.01,0-.03,0-.04,0-.01,0-.02-.02-.03-.02-.29-.17-.77-.09-.92.24-2.86,6.37-5.72,12.73-8.57,19.09-2.84,6.33-5.68,12.66-8.53,18.99-1.61,3.59-3.22,7.17-4.83,10.75,0,0,0,.02,0,.02-.02.04-.05.09-.06.14-.04.16-.02.31.04.44.05.13.14.24.27.32.04.02.09.04.14.06,0,0,.02,0,.02.01,3.79,1.49,7.61,2.94,11.45,4.33,3.87,1.4,7.75,2.76,11.65,4.06,2.05.68,4.1,1.35,6.16,2.01,0-.04,0-.07,0-.11.21-3.85,3.59-17.94,3.74-18.57.09-.51-.15-1.02-.58-1.29l-3.33-1.7c-.49-.28-.74-.88-.57-1.44.05-.19.15-.35.27-.48h0c.46-.6,10.76-10.92,25.19-14.92.6-.19,1.26-.21,1.91-.02h0c.65.19,1.19.56,1.6,1.04h0c2.17,2.4,4.02,4.95,5.59,7.48h0s.02.02.03.02c.02,0,.05,0,.06-.03l.36-1.23c.12-.41.55-.65.97-.53.03,0,.06.02.09.03l3.42,1.46c.14.06.27.15.38.26.25-1.4.51-2.8.76-4.19.71-3.99,1.4-7.98,2.08-11.97.02-.1.02-.21,0-.31,0,0,0,0,0-.01h0Z"/><path class="cls-14" d="M75.57,148.99s-.06-.02-.09-.03c-.41-.12-.85.12-.97.53l-.36,1.23s-.03.04-.06.03c-.01,0-.02-.01-.03-.02h0c-1.57-2.53-3.42-5.08-5.59-7.48h0c-.41-.48-.95-.85-1.6-1.04h0c-.65-.19-1.31-.17-1.91.02-14.43,4-24.73,14.32-25.19,14.92h0c-.12.13-.21.3-.27.48-.17.57.09,1.16.57,1.44l3.33,1.7c.43.27.67.77.58,1.29-.15.63-3.53,14.72-3.74,18.57,0,.04,0,.07,0,.11,1.87.6,3.75,1.18,5.63,1.76.67.21,1.35.41,2.02.61.29-1.31.89-4.02,1.57-6.87.02-.07.04-.17.06-.24h0c.06-.26-.02-.52-.18-.7-.87-.94-1.27-2.28-.96-3.61,1.23-4.93,2.78-10.59,4.32-14.92h0c.13-.36.51-.57.89-.47.39.11.63.51.52.91,0,.02-.01.04-.02.06-1.03,2.89-2.05,6.36-2.99,9.8-.13.47.15.95.61,1.07s.95-.15,1.07-.61h0c.94-3.47,1.97-6.96,3.01-9.86.13-.36.51-.57.89-.47.39.11.63.51.52.91,0,.02-.01.04-.02.06-1.02,2.87-2.04,6.32-2.97,9.75h0c-.13.47.15.95.61,1.07s.94-.15,1.07-.61h0c.93-3.45,1.96-6.93,2.99-9.81.13-.36.51-.57.89-.47.39.11.63.51.52.91,0,.02-.01.04-.02.06-1.5,4.21-2.99,9.66-4.2,14.47v.04s-.02.05-.03.07h0s0,.03-.01.05c-.38,1.3-1.36,2.26-2.56,2.66-.21.07-.39.23-.47.46,0,0-.3.71-1.01,4.34-.27,1.42-.45,2.45-.55,3.01,2.09.61,4.18,1.2,6.27,1.78.63.17,1.26.34,1.89.51,1.62-3.95,2.39-6.2,2.39-6.2.06-.21-.06-.42-.26-.52l-2.33-1.04h0c-.36-.18-.52-.48-.52-.8,0-.19.08-.38.08-.38,5.1-13.86,11.14-17.27,11.14-17.27.18-.1.28-.13.28-.13.15-.05.32-.06.48-.02.32.09.53.37.56.68,0,0,0,.11-.04.36-.89,4.56-3.29,12.07-5.25,17.9-1.34,3.99-2.51,7.26-2.91,8.39,2.09.55,4.19,1.08,6.29,1.6.5.12.99.24,1.49.37.25.06.46-.01.6-.15.14-.09.25-.22.28-.38,1.47-7.04,2.89-14.08,4.26-21.14,1.1-5.66,2.16-11.33,3.19-17.01-.11-.11-.24-.19-.38-.26l-3.42-1.46h0Z"/><path class="cls-14" d="M88.73,78.38c-.07-.1-.94.55-2.55,1.04-.8.25-1.79.43-2.9.43-1.1,0-2.31-.2-3.49-.67-1.17-.49-2.17-1.2-2.95-1.97-.79-.78-1.36-1.6-1.76-2.34-.8-1.48-.96-2.56-1.08-2.54-.04,0-.05.28.02.77.07.49.25,1.18.61,1.99.36.81.93,1.72,1.75,2.57.81.86,1.88,1.64,3.15,2.17,1.27.51,2.59.71,3.77.67,1.18-.04,2.23-.28,3.05-.61.83-.32,1.45-.69,1.84-.99.39-.3.58-.5.55-.53Z"/><path class="cls-14" d="M54.76,87.3c-.38-.56-3.79,1.1-7.63,3.71-3.83,2.61-6.64,5.17-6.26,5.73s3.79-1.1,7.63-3.71c3.83-2.61,6.64-5.17,6.26-5.73Z"/><path class="cls-14" d="M39.98,95.92c.13-.08.03-.59-.54-1.3-.28-.35-.69-.75-1.24-1.1-.14-.09-.29-.17-.44-.26-.13-.06-.26-.13-.4-.2-.05-.03-.11-.06-.17-.09-.04-.03-.11-.03-.11-.07.04-.07.08-.13.11-.19l.04-.09c.01-.07.03-.23.04-.35.03-.55-.05-1.15-.24-1.7-.38-1.11-1.17-2.16-2.31-2.86-1.1-.69-2.41-1.01-3.67-1.14-1.28-.13-2.52-.09-3.81-.03-4.97.26-9.34,1.57-12.28,2.9-2.95,1.33-4.53,2.59-4.38,2.86.16.32,2-.38,4.98-1.24,2.97-.87,7.14-1.84,11.82-2.08,2.44-.13,4.71-.17,6.22.66.72.37,1.27.99,1.57,1.65.15.33.24.65.26.97,0,.1.01.15-.02.3-.05.19-.11.37-.16.56-.13.36-.26.71-.39,1.05.62.1,1.34.15,1.84.26.29.06.38.09.52.13.13.04.26.08.38.13.5.18.9.41,1.23.61.66.41,1.01.72,1.15.62Z"/><path class="cls-14" d="M46.44,131.41c-.06-.16-.33-.23-.75-.25-.42-.03-1.02,0-1.64-.07-.31-.04-.62-.1-.86-.23-.24-.12-.42-.28-.57-.5-.16-.23-.31-.6-.51-1.12-.21-.5-.47-1.17-1.09-1.8-.62-.62-1.42-.93-2.14-1.02-.73-.09-1.4,0-2,.19-1.24.41-2,1.18-2.51,1.82-.51.65-.78,1.23-.94,1.65-.15.42-.16.7-.02.8.13.1.4.02.77-.22.37-.23.84-.61,1.39-1,.55-.38,1.22-.78,1.89-.89.7-.14,1.49,0,1.85.39.19.18.39.55.62,1.02.22.47.49,1.05.96,1.59.48.54,1.13.88,1.72,1.01.6.13,1.11.09,1.55.01.86-.17,1.44-.49,1.81-.75.37-.27.53-.5.48-.65Z"/><path class="cls-14" d="M97.17,106.08c.62.23,1.77-1.35,3.27-3.06,1.47-1.74,2.86-3.11,2.54-3.69-.16-.27-.77-.27-1.6.07-.82.34-1.85,1.05-2.73,2.08-.88,1.03-1.43,2.15-1.65,3.01-.22.87-.13,1.47.16,1.59Z"/><path class="cls-16" d="M100.87,61.31c-.47.28-1.08.25-1.66.09s-1.28-.61-1.73-1.12c-.2-.23-.51-.33-.78-.15-.23.16-.35.55-.15.78,1.18,1.34,3.26,2.32,4.96,1.33.26-.15.31-.55.15-.78-.18-.27-.52-.3-.78-.15h0Z"/><path class="cls-23" d="M90.24,75.71c-.06,0-.11,0-.17-.03-1.57-.47-1.76-2.69-1.65-3.44.57-3.96,2.46-6.36,2.54-6.46.2-.25.57-.3.83-.09.25.2.3.57.09.83-.02.03-1.77,2.27-2.29,5.89-.06.42.07,1.92.82,2.15.31.09.49.42.39.73-.08.25-.31.42-.56.42Z"/><path class="cls-23" d="M96.98,68.42c-.95,0-5.6-.8-8.65-3.63-.24-.22-.25-.59-.03-.83.22-.24.59-.25.83-.03,2.75,2.55,7.26,3.35,7.83,3.32,2.3-.29,3.85-4.79,4.78-7.48.23-.67.43-1.24.61-1.69l.19-.46.49.11s1.12.25,2.3.07c.24-.04.45-.16.59-.36.14-.2.19-.43.14-.67-.31-1.55-.99-4.01-1.54-5.99-.56-1.99-.87-3.14-.92-3.6-.04-.32.12-.68.41-1.34.71-1.61,2.18-4.97.95-9.26-.09-.31.09-.64.4-.73.31-.09.64.09.73.4,1.35,4.7-.24,8.32-1,10.06-.13.3-.28.64-.31.77.06.43.46,1.86.88,3.37.56,2,1.25,4.48,1.57,6.08.11.55,0,1.11-.33,1.57-.32.46-.82.77-1.38.85-.89.13-1.72.07-2.23,0-.13.35-.27.75-.42,1.2-1.08,3.14-2.72,7.88-5.76,8.27-.03,0-.06,0-.11,0Z"/><path class="cls-7" d="M100.92,27.13c-.57-.27-.72-.51-.43-.71,4.1-.38,6.43,3.27,7.18,3.17,1.34-.17-.14-2.36-.64-2.9-2.51-2.73-6.28-2.96-9.54-1.61-.97.4-1.34.63-1.34.63-1.45-.67-3.06-1.48-4.87-2.12-2.22-.79-4.62-1.15-6.95-.71-1.2.23-3.77,1.08-4.37,1.45,0,0-1.21-3.33-4.01-2.71.46.96,2.42,1.64,2.33,3.56-6.7-1.22-11.09,6.37-9.42,6.34l1.56-1.61c4.12-3.02,5.98-3.42,5.98-3.42-.14.12-2.38,1.47-2.37,1.64-1.75,1.52-3.88,4.3-4.18,6.67-.36,2.85,1.97,16.44-1.11,17.84-.77.35-4.87.12-3.27,2.37,1.27,1.79,5.23.14,5.46.31.54.43-1.4,1.8-1.62,1.91-.86.43-4.09.75-2.46,2.06,1.69,1.35,9.42,4.75,9.48,2.38,0-.16,2.14-2.89,3.05-5.68.64-1.97-2.14-3.09-1.77-4.96.52-2.61,2.95-7.67,4.57-7.92,2.53-.39,3.27,3.85,4.29,4.16.09-.26,2.91-9.96,5.74-10.8,4-2.22,5.83,5.07,7.43,4.42s2.66-3.63,1.46-6.65c1.47-2.54,7.47,8.14,8.03,7.49,3.91-4.57-.67-12.46-8.21-14.59Z"/><path class="cls-28" d="M84.45,47.63c-.12-.69-.29-1.37-.51-2.03-.02-.08-.06-.16-.08-.24,0-.03-.08-.23-.04-.12-.07-.17-.15-.33-.24-.49-.18-.32-.45-.6-.78-.78-.53-.28-1.08-.15-1.59.13-.61.33-1.07.87-1.45,1.43-1.04,1.56-1.75,3.3-2.01,5.15-.06.48-.17,1.06-.03,1.53.03.1.07.14,0,0,.03.06.06.13.09.21.08.17.17.32.27.48.02.01.12.17.07.1s.06.06.08.09c.08.1.18.19.26.28.05.04.14.11.04.02.06.04.11.07.17.12s.12.07.17.11c.03.02.13.05-.02-.01.03.02.06.04.1.04.07.03.14.05.22.06.02.01.06.01.08.02.07.02-.1,0,.04,0h.25s.16,0,.16,0c.42-.05.8-.22,1.17-.4.76-.4,1.4.77.64,1.17-.8.43-1.68.68-2.59.51-.63-.11-1.2-.49-1.62-.98-.31-.35-.55-.75-.74-1.19-.19-.47-.27-.98-.22-1.49.11-2.18.89-4.33,2.04-6.17.92-1.48,2.4-3.04,4.32-2.7,1.1.2,1.92,1.1,2.31,2.11.33.86.58,1.75.74,2.65.06.36-.12.71-.49.81-.33.08-.75-.13-.81-.49h0v.04Z"/><path class="cls-23" d="M73.41,68.42c-.08,0-.17-.02-.25-.06-.29-.14-.42-.49-.28-.78,2.24-4.8,6.13-13.1,6.17-13.18.14-.29.49-.42.78-.28.29.14.42.49.28.78-.04.08-3.93,8.39-6.17,13.18-.1.21-.31.34-.53.34Z"/><path class="cls-28" d="M98.75,47.02c1.21,0,1.21-1.88,0-1.88s-1.21,1.88,0,1.88h0Z"/></g></svg>