<svg xmlns="http://www.w3.org/2000/svg" viewBox="0 0 200 200"><defs><style>.cls-1{fill:none}.cls-2{fill:#f2a6b0}.cls-3{fill:#f6c243}.cls-4{fill:#f75e28}.cls-6{fill:#eed7d3}.cls-7{fill:#fff}.cls-11{fill:#e5b342}.cls-12{fill:#ff8000}.cls-15{fill:#b4cacc}.cls-20{fill:#5b3d5b}</style></defs><path d="M8.84 169.83c9.69 24.14 32.22 25.88 51.96 13.57 10.07 3.66 20.39 9.07 31.48 9.54 27.38-6.56 56.1-18.88 80.77-31.71 22.56-31.24 27.11-84.7 18.58-119.1C103.21 8.64-28.76 56.87 8.84 169.83Z" style="fill:#efedea" id="BG_Strong"/><g id="Illustrations"><path d="M190.6 121.9c-.79.45-1.52 1.14-2.42 1.34-1.04.24-2.09-.21-3.04-.56-1.57-.57-3.07-.92-4.7-.45.02-.73.09-1.45.24-2.17.42-2.03 1.6-3.31 3.41-4.26 3.03-1.59 6.08-3 8.12-5.88 2.15-3.04 1.69-6.45 1.13-9.91-.34-2.09-.57-4.22.24-6.23.73-1.82 2.02-3.34 2.89-5.09 1.35-2.7 1.66-6.75-1.68-8.16-2.99-1.26-4.73 1.87-6.42 3.68-2.61 2.79-6.51 1.09-9.74 2.26-2.71.98-3.72 3.63-4.36 6.2-.77 3.09-1.39 6.19-4.65 7.54-1.5.62-3.11.93-4.67 1.34l-.32-5c.18-.42.39-.84.64-1.25 1.69-2.81 4.15-5.14 4.74-8.49.56-3.17-.3-6.52-2.4-8.97-1.17-1.38-2.89-2.49-3.39-4.31-.44-1.6.03-3.3.34-4.88.51-2.56.72-5.74-2-7.14-2.32-1.19-5.41-.21-7.1 1.63-2.38 2.61-2.48 6.47-2.67 9.79-.21 3.67-.81 7.4-4.23 9.43-1.56.92-3.3 1.52-4.8 2.55-1.34.92-2.46 2.09-3.36 3.44-1.98 2.95-2.73 6.57-2.49 10.09.28 4.08 1.92 7.62 3.35 11.38 1.43 3.78 1.81 7.72-.1 11.42-1.62 3.15-4.82 4.98-6.58 8.01-1.9 3.27-1.35 7.26-.18 10.68a27.99 27.99 0 0 0 5.29 9.16c.06.07.13.14.19.21.39 1.16.86 2.3 1.38 3.41.02.05.05.09.07.12.03.3.24.6.63.62 2.7.15 5.56.12 8.33-.3-.04.24.04.49.31.65 2.73 1.54 5.84 2.87 9.04 2.51 2.47-.28 4.95-1.53 6.17-3.77.73-1.33.86-2.9 1.59-4.22.37-.66.93-1.31 1.71-1.48.87-.19 1.81.29 2.62.54 2.6.8 4.67-.36 6.2-2.47.87-1.2 1.5-2.83 2.34-4.25.55-.82 1.12-1.64 1.86-2.19.05-.04.1-.07.15-.1.03-.02.06-.04.08-.06l.15-.09c.46-.25.98-.41 1.59-.4 1.59.01 3.19.67 4.78.28 3.19-.78 2.76-4.39 3.82-6.77 1.11-2.52 4.86-3.47 4.78-6.6-.09-3.56-4.37-4.24-6.88-2.8Zm-38.76 31.06s-.02-.06-.02-.1c1.47-.31 2.9-.74 4.24-1.34l.42 3.26c-1.62-.35-3.19-1.04-4.64-1.82Zm-.4-6.07c1.28-1.2 2.47-2.47 3.52-3.86l.92 7.12c-1.38.66-2.84 1.13-4.34 1.46-.28-1.54-.4-3.2-.11-4.72Zm-9.04 5.14c-.06-.14-.12-.28-.19-.41l.63.54c-.14 0-.27-.01-.41-.02a.487.487 0 0 0-.04-.11Zm1.47-.73c-.98-.81-1.9-1.69-2.76-2.62-1.85-5.98-1.71-13.04 3.79-17.01 2.43-1.76 5.65-1.8 8.15-3.34l1.66 12.77c-.67.21-1.32.51-1.94 1.02-1.35 1.1-2.12 2.51-2.51 4.05-.83.77-1.7 1.51-2.57 2.22a99.346 99.346 0 0 1-3.83 2.93Zm-9.2-17.88c.28-3.89 3.23-5.97 5.61-8.65 2.16-2.42 3.44-5.5 3.55-8.76.12-3.68-1.5-6.97-2.82-10.31-1.44-3.66-2.32-7.68-1.55-11.61.63-3.26 2.4-6.41 5.24-8.24 1.9-1.22 4.06-1.95 5.78-3.29-.45 3.71.22 14.97 1.27 26.17.08.9.23 1.86.42 2.86l-1.24.43 1.92 14.81c-.37.3-.79.56-1.24.77-1.74.82-3.7 1.06-5.46 1.83-6.4 2.81-8.29 10.32-7.12 16.67-.5-.7-.96-1.42-1.38-2.17-1.77-3.11-3.25-6.88-2.99-10.51Zm10.19 18.79c1.72-1.26 3.47-2.58 5.12-4-.06 1.21.06 2.45.27 3.65-.52.08-1.04.15-1.56.2.64-.19.58-1.29-.2-1.29-.83 0-.85 1.25-.07 1.32-.19.02-.38.03-.58.05-1 .07-2 .09-3 .08Z" style="fill:#8fa286" id="Green"/><path class="cls-12" d="M127.62 49.2c.34-.06.61-.28.62-.65 0-.32-.31-.71-.66-.66-6.61.84-13.22 1.63-19.84 2.35l-2.3.24c-.13-2.25-.37-4.5-.72-6.73-.5-3.22-1.24-6.42-2.26-9.51-1.02-3.07-2.41-5.99-4.51-8.47-1.78-2.1-4.07-3.83-6.57-4.99-2.7-1.25-5.62-1.94-8.61-1.88-3.06.06-6.08.84-8.8 2.23-5.37 2.74-8.9 7.94-10.62 13.61-1.9 6.27-1.56 12.93-.84 19.36-1.91.13-3.82.26-5.73.4-6.51.45-13.02.89-19.54 1.34-.88.06-1.76.12-2.64.19-.85.06-.85 1.38 0 1.32.53-.04 1.05-.07 1.58-.11 2.12.74 5.76 2.01 7.02 2.43 1.82.6 13.83 4.1 13.83 4.1s4.66-.33 8.35-.49c3.69-.16 28.09-2.22 32.35-2.48 4.27-.26 25.88-1.91 29.24-2.32l1.25-.13-.62-9.14Zm-62.13-5.58c.04-1.15.13-2.29.28-3.43.34-2.37.93-4.69 1.84-6.9.7-1.61 1.57-3.14 2.62-4.54.86-1.08 1.84-2.07 2.92-2.94 1.11-.83 2.32-1.53 3.59-2.09 1.36-.55 2.78-.94 4.23-1.16 1.4-.17 2.81-.17 4.2 0 1.39.21 2.76.59 4.07 1.12 1.3.57 2.54 1.3 3.68 2.15 1.06.84 2.02 1.8 2.86 2.85.99 1.32 1.78 2.77 2.44 4.28 1.32 3.2 2.17 6.61 2.8 10 .18.96.33 1.92.46 2.88.21 1.66.36 3.33.45 5-3.84.39-7.69.76-11.54 1.11-5.46.49-10.93.92-16.4 1.33-2.66.2-5.31.39-7.97.57-.38-3.4-.65-6.81-.53-10.23Z"/><path class="cls-4" d="M150.03 54.93c-3.12-.82-6.25-1.56-9.36-2.39a74.76 74.76 0 0 1-7.17-2.3c-1.88-.71-3.74-1.48-5.59-2.26-.33-.14-.71-.1-.9.24 0 0 0 .02-.01.03-.07.11-.12.23-.11.36l.64 8.78c.03.36.28.66.66.66.13 0 .27-.05.38-.13l5.54-.53 13.8-1.63c.59.15 1.18.3 1.77.46.83.22 1.18-1.06.35-1.28Z"/><path d="M157.7 170.64s.02-.1.02-.15v-.02c-.03-7.63-.16-15.26-.38-22.88-.22-7.45-.52-14.9-.91-22.35-.39-7.42-.86-14.83-1.4-22.24-.54-7.38-1.16-14.76-1.83-22.13-.69-7.49-1.43-14.98-2.23-22.46l-.3-2.78c0-.32-.31-.71-.66-.66-6.61.84-13.22 1.63-19.84 2.35-3.18.34-6.35.67-9.53.98-.14-1.96-.36-3.9-.66-5.84-.5-3.22-1.24-6.42-2.26-9.51s-2.41-5.99-4.51-8.47c-1.78-2.1-4.07-3.83-6.57-4.99-2.7-1.25-5.62-1.94-8.61-1.88-3.06.06-6.08.84-8.8 2.23-5.37 2.74-8.9 7.94-10.62 13.61-1.79 5.91-1.6 12.16-.96 18.24-5.99.41-11.97.82-17.96 1.24-.88.06-1.76.12-2.64.19-.88.06-.85 1.38 0 1.32h.06c.33 3.9 2.01 24.11 2.57 31.32.62 7.99 1.36 19.1 1.87 27.29.52 8.18 1.98 46.25 1.98 46.25s.13 6.93.32 9.14c-.78.15-.72 1.37.09 1.31 6.66-.47 13.32-.94 19.98-1.42 5.8-.42 11.6-.85 17.39-1.31a1104.267 1104.267 0 0 0 33.71-3.19c6.48-.72 12.95-1.49 19.42-2.3l2.63-.33a.81.81 0 0 0 .32-.11c.15-.08.28-.21.32-.41ZM80.74 52.31c.04-1.15.14-2.31.28-3.46.34-2.36.93-4.68 1.84-6.89.7-1.6 1.56-3.12 2.61-4.52.86-1.09 1.84-2.08 2.93-2.95 1.11-.83 2.31-1.52 3.57-2.08 1.36-.55 2.77-.94 4.22-1.16 1.41-.17 2.83-.17 4.24 0 1.4.21 2.76.59 4.07 1.13 1.3.57 2.52 1.29 3.66 2.14 1.06.84 2.02 1.8 2.87 2.86.99 1.31 1.78 2.76 2.43 4.26 1.32 3.2 2.17 6.62 2.8 10.02.17.94.32 1.89.46 2.84.18 1.37.31 2.75.4 4.12-1.44.14-2.87.27-4.31.4-5.46.49-10.93.92-16.4 1.33-5.09.38-10.18.73-15.26 1.08-.32-3.03-.52-6.07-.41-9.12Z" style="fill:#fbae5e"/><path d="M64.35 179.05c-.1-7.44-.28-14.88-.54-22.32-.26-7.44-.58-14.92-.98-22.37-.39-7.44-.84-14.88-1.34-22.32-.51-7.5-1.06-15.01-1.65-22.5-.6-7.64-1.24-15.28-1.9-22.92-.08-.95-.17-1.91-.25-2.86 0-.04-.01-.07-.02-.11a.61.61 0 0 0-.46-.53c-5.88-1.55-11.7-3.34-17.46-5.31-1.59-.55-3.18-1.11-4.76-1.68a.731.731 0 0 0-.19-.07h-.02c-.34-.12-.73.14-.81.46-.02.06-.02.11-.02.17-.49 7.03-.99 14.07-1.46 21.11-.49 7.31-.96 14.63-1.38 21.95-.42 7.32-.79 14.74-1.09 22.11-.29 7.3-.51 14.61-.62 21.92-.11 7.31-.1 14.17.05 21.26l.06 2.61c0 .07.01.12.03.18.04.17.14.33.3.39 4.26 1.8 8.57 3.47 12.92 5.02 4.42 1.58 8.87 3.04 13.36 4.39 2.45.73 4.91 1.43 7.38 2.08.21.05.39.01.53-.08.18-.1.31-.28.31-.56Z" style="fill:#e5a355"/><path class="cls-1" d="M126.27 159.99c-.01-.49.19-.93.53-1.23 1.9-1.64 3.01-4.2 2.75-6.95 0-.03 0-.07-.01-.1 0-.05-.01-.1-.02-.15l-.01-.09c-1.32-10.02-2.58-21.46-2.92-30.57v-.12c-.09-.83-.82-1.42-1.62-1.33-.76.09-1.32.77-1.29 1.54.23 6.24.89 13.58 1.71 20.83.1.97-.57 1.85-1.52 1.95-.95.11-1.8-.6-1.91-1.57-.81-7.2-1.47-14.5-1.71-20.7v-.12c-.09-.83-.82-1.42-1.62-1.33-.76.09-1.32.77-1.29 1.54.23 6.26.89 13.66 1.72 20.93.11.98-.57 1.86-1.52 1.96-.95.11-1.81-.6-1.92-1.58-.82-7.23-1.49-14.57-1.72-20.82s0-.08 0-.12c-.09-.83-.82-1.42-1.62-1.33-.76.09-1.32.77-1.29 1.54.34 9.37 1.66 21.25 3.02 31.51.4 2.75 2.11 4.99 4.41 6.12.45.22.78.66.86 1.2.02.16.05.35.08.5.79 5.54 1.62 10.82 2.08 13.67 2.15-.23 4.64-.5 7.27-.79-.24-1.21-.61-3.06-1.07-5.46-1.38-7.42-1.34-8.98-1.34-8.98Z"/><path class="cls-1" d="M98.81 138.77a2.527 2.527 0 0 0-2.02-2l-7.37-.75c-1.1-.18-2-1.11-2.11-2.3-.04-.39.01-.77.13-1.11.4-1.48 11.74-28.74 35.32-47.09a6.353 6.353 0 0 1 7.2-.69c5.76 2.94 11.04 6.39 15.78 10.02s.04.02.06.02c.05 0 .09-.05.08-.1l-.25-2.6c-.08-.87.54-1.65 1.39-1.73h.19l6.81.2c-1.08-12.36-2.96-31.62-3.26-33.35-.32-1.92-11.45-.38-19.19.35-7.74.73-73.94 6.14-73.94 6.14l6.27 115.86s26.61-1.93 41.6-3.04c-2.45-7.75-6.54-36.51-6.73-37.81ZM148.53 116.54c-.09-.51-.19-.71-.19-.71-.28-.57-.87-.93-1.52-.87-.34.03-.64.17-.87.39 0 0-.17.13-.42.46 0 0-8.61 10.98-7.78 41.06 0 0 0 .42.14.79.23.6.74 1.05 1.54 1.12l5.05.23c.45.03.82.34.86.79 0 0 .23 4.54.17 12.72 2.87-.33 5.41-.62 7.33-.85-.11-2.97-.36-9.51-.78-17.28-.68-12.52-1.79-28.54-3.51-37.86Z"/><path class="cls-7" d="M147.03 90.43c-.85.08-1.47.85-1.39 1.73l.25 2.6c0 .05-.03.1-.08.1-.02 0-.04 0-.06-.02-4.74-3.62-10.02-7.08-15.78-10.02a6.349 6.349 0 0 0-7.2.69c-23.58 18.35-34.93 45.61-35.32 47.09-.12.35-.17.72-.13 1.11.11 1.2 1.01 2.13 2.11 2.3l7.37.75c.99.18 1.81.97 2.02 2 .18 1.3 4.28 30.06 6.73 37.81 4.48-.33 7.92-.59 9.3-.7 1.21-.1 3.57-.34 6.57-.66-.46-2.85-1.29-8.14-2.08-13.67-.02-.15-.05-.35-.08-.5a1.6 1.6 0 0 0-.86-1.2c-2.3-1.13-4.01-3.38-4.41-6.12-1.36-10.26-2.68-22.15-3.02-31.51-.03-.78.53-1.46 1.29-1.54.8-.09 1.53.51 1.62 1.33v.12c.23 6.24.9 13.58 1.72 20.82.11.98.97 1.68 1.92 1.58.95-.11 1.63-.99 1.52-1.96-.82-7.28-1.49-14.67-1.72-20.93-.03-.78.53-1.46 1.29-1.54.8-.09 1.53.51 1.62 1.33v.12c.23 6.21.89 13.51 1.71 20.7.11.98.97 1.68 1.92 1.57.94-.11 1.62-.98 1.52-1.95-.82-7.25-1.48-14.6-1.71-20.83-.03-.78.53-1.46 1.29-1.54.8-.09 1.53.51 1.62 1.33v.12c.34 9.1 1.6 20.55 2.92 30.57l.01.09c0 .05.01.1.02.15s0 .07.01.1c.26 2.75-.85 5.3-2.75 6.95-.34.29-.55.74-.53 1.23 0 0-.03 1.56 1.34 8.98.46 2.4.83 4.25 1.07 5.46 5.52-.61 11.69-1.32 16.82-1.9.06-8.18-.17-12.72-.17-12.72-.04-.45-.41-.76-.86-.79l-5.05-.23c-.8-.07-1.32-.52-1.54-1.12-.14-.36-.14-.79-.14-.79-.82-30.07 7.78-41.06 7.78-41.06.25-.32.42-.46.42-.46.23-.21.53-.36.87-.39.65-.06 1.24.3 1.52.87 0 0 .1.2.19.71 1.72 9.31 2.84 25.34 3.51 37.86.42 7.76.67 14.31.78 17.28 2.08-.24 3.43-.4 3.65-.43 1.22-.16 1.46 0 1.3-2.93-.16-2.93-.47-20.74-.73-27.65-.25-6.91-1.71-34.57-2.69-46.28-.09-1.15-.21-2.42-.32-3.76l-6.81-.2h-.19Z"/><path class="cls-3" d="M46.17 128.82v.37c-1.85.66-7.21 1.79-11.79 2-5.63.26-16.95-.17-19.93-.61-2.4-.35-7.21-1.22-8.97-1.54v-.12c-.02-.85-1.34-.85-1.32 0 .07 2.94.18 5.88.32 8.82.15 3.23.34 6.46.55 9.69.22 3.35.46 6.71.73 10.06.26 3.25.55 6.5.85 9.74.28 2.98.59 5.95.93 8.92.02.21.05.43.08.64-.01.09-.02.19 0 .28.08.6.56 1.07 1.04 1.4.49.34 1.07.52 1.63.71 1.26.42 2.56.71 3.86.94 2.73.48 5.49.83 8.26 1.02a64.89 64.89 0 0 0 12.31-.31c1.3-.16 2.6-.33 3.88-.62a15.6 15.6 0 0 0 3.57-1.31c1.04-.53 2.04-1.35 2.07-2.61.34-2.89.64-5.78.91-8.68.3-3.16.57-6.33.82-9.5.25-3.27.48-6.54.69-9.81.2-3.19.38-6.39.52-9.59.13-2.95.25-5.9.32-8.85 0-.34.02-.68.02-1.02.02-.85-1.3-.85-1.32 0Z"/><path class="cls-12" d="M51.28 122.18c0-.11-.04-.22-.09-.32-.06-.21-.15-.42-.28-.6-.28-.39-.66-.68-1.07-.93-.21-1.66-.67-3.26-1.38-4.79-.03-.09-.07-.18-.11-.27-.27-.51-.78-.87-1.28-1.13-1.14-.6-2.43-.88-3.67-1.19-1.79-.45-3.59-.85-5.41-1.18-1.96-.36-3.94-.65-5.93-.84-3.59-.41-7.21-.45-10.81-.18-3.65.27-7.27.83-10.83 1.69-1.51.37-3.07.72-4.47 1.43-.64.32-1.37.68-1.88 1.18-.45.44-.83 1.1-.85 1.75v.02c-.24 1.2-.45 2.4-.62 3.61-.41.24-.84.48-1.18.82-.28.29-.51.63-.67 1-.16.38-.22.76-.18 1.13-.05.86-.05 1.72.01 2.58-.04.08-.06.18-.05.27.22 1.75 2.09 2.45 3.55 2.93 1.73.58 3.52.98 5.31 1.3 3.81.68 7.66 1.16 11.52 1.43 3.82.26 7.65.3 11.48.09 1.91-.11 3.81-.27 5.71-.5 1.79-.22 3.58-.45 5.34-.85 1.56-.35 3.07-.91 4.52-1.58 1.26-.58 2.6-1.36 3.12-2.72.12-.31.17-.65.17-.98 0-.07 0-.13-.02-.19.1-.99.13-1.99.05-2.99Z"/><path class="cls-1" d="M51.28 122.18c0-.11-.04-.22-.09-.32-.06-.21-.15-.42-.28-.6-.28-.39-.66-.68-1.07-.93-.21-1.66-.67-3.26-1.38-4.79-.03-.09-.07-.18-.11-.27-.27-.51-.78-.87-1.28-1.13-1.14-.6-2.43-.88-3.67-1.19-1.79-.45-3.59-.85-5.41-1.18-1.96-.36-3.94-.65-5.93-.84-3.59-.41-7.21-.45-10.81-.18-3.65.27-7.27.83-10.83 1.69-1.51.37-3.07.72-4.47 1.43-.64.32-1.37.68-1.88 1.18-.45.44-.83 1.1-.85 1.75v.02c-.24 1.2-.45 2.4-.62 3.61-.41.24-.84.48-1.18.82-.28.29-.51.63-.67 1-.16.38-.22.76-.18 1.13-.05.86-.05 1.72.01 2.58-.04.08-.06.18-.05.27.22 1.75 2.09 2.45 3.55 2.93 1.73.58 3.52.98 5.31 1.3 3.81.68 7.66 1.16 11.52 1.43 3.82.26 7.65.3 11.48.09 1.91-.11 3.81-.27 5.71-.5 1.79-.22 3.58-.45 5.34-.85 1.56-.35 3.07-.91 4.52-1.58 1.26-.58 2.6-1.36 3.12-2.72.12-.31.17-.65.17-.98 0-.07 0-.13-.02-.19.1-.99.13-1.99.05-2.99Z"/><path class="cls-1" d="M23.58 126.55c.45 0 .53 0 .98-.02.1 0 .19-.07.28-.1-.09-.02-.17-.04-.26-.05h-.48c-.29 0-.21.01-.5.02-.04 0-.09.06-.11.09 0 .02.06.06.09.06ZM11 125.74c.25.03.5.09.75.12.02 0 .06 0 .07-.02.01-.02.03-.05.01-.08-.01-.02-.72-.22-.76-.22l-.69.06c-.03 0-.04.03-.04.05 0 0 .04.02.07.04.2.02.4.02.6.05ZM16.29 126.66c.42.04.87.07 1.28.08.73 0 .2-.08-.25-.12-.27-.02-.5-.06-.73-.09-.49-.06-.45.06-.81.05-.09.06.24.11.51.09ZM3.62 122.12s.03.09.06.12c.06.05.13.09.19.13-.03-.05-.06-.11-.16-.23 0 .02-.04 0-.09-.02Z"/><path class="cls-1" d="M3.46 121.89s.03.04.08.08.11.11.18.16c.11-.21.12-.21.41.05.16.12.3.23.48.32.24.13.48.32.72.57.33.37.83.7 1.21 1.03.21.17.33.05.5.17 0-.04 0-.07-.03-.1-.04-.06-.1-.13-.15-.2.11.04.22.07.32.11.25.11.51.21.77.31.14.06.28.11.41.17-.13 0-.26-.01-.38 0-.06 0-.09.02-.14.04.05.03.1.06.15.08.21.08.41.15.63.21.08.02.17.03.25.04-.08-.05-.19-.09-.25-.14-.12-.11-.03-.25.12-.21.5.16 1.02.27 1.24.52h-.27c-.06.01-.16-.02-.25-.03.08.04.16.09.62.14-.12.02.02.03.18.03.58.08.92.03 1.27.1.36.07.72.13 1.05.1.13-.01.38.02.67.07.43-.03.71-.02 1.11.1.47.13.93.19 1.42.16.26-.02.35.09.42.25l.08.03s-.04.01-.06.02v.02c.03.05.31.13.4.1.05-.02.04-.11.05-.17-.09-.02-.21-.05-.42-.09.32-.03.41-.04.5-.04h.13c.19-.04.38-.02.61.08.06.03.12.05.18.08 0 .04 0 .08-.01.11.36.04.72.06 1.06 0 .03 0 .21.05.23.09.04.06.07.17-.01.19-.23.07-.12.11.03.17.16.07.27.04.41 0 .16-.06.23-.1.05-.19a.592.592 0 0 1-.25-.2c-.02-.03.09-.1.15-.1l1.64.06c.04 0 .08.03.12.05-.05.02-.08.04-.14.05-.14.02-.28.04-.43.04-.22 0-.45-.01-.68-.02a.31.31 0 0 0-.07.02c.02.02.04.05.08.05.09.01.19 0 .29.01.18 0 .29 0 .4.11.13.13.71.09.94-.04.1-.06.19-.12.28-.18.11.04.19.03.28.04v-.06c.58-.14.87-.16 1.36-.09.49.07.95.08 1.44-.02.29-.05.39.07.49.26.02.05.31.09.4.05.08-.03 0-.2.06-.24.24-.13.47-.16.79-.07.28.08.51.14.81 0 .8-.02 1.6-.06 2.39-.08.16 0 .27.03.48-.01.31-.06.68-.06 1.03-.09-.01.04.07.19.06.24.25 0 .51 0 .76-.03.2-.02.47-.06.47-.24 0-.01.35-.07.49-.06.9.08 1.06.17 1.75.04l.4-.06c.19 0 .39-.02.58-.04.21-.02.44-.06.53-.06.46-.02.42-.09.85-.16.39-.06.83-.04 1.17-.21.06-.03.24-.05.37-.06 1.02-.09 1.6-.19 2.6-.26.15-.01.35-.07.5-.12.41-.14-.13-.08.1-.12l.04-.02c.28-.08.44 0 .7-.1.05-.02.1-.04.16-.06.68-.19 1.36-.4 2-.65.41-.17.06-.05.46-.23.39-.18.09.03.47-.08.47-.15.1.08.49-.23.03-.03.11-.06.16-.08.18-.08.45-.16.51-.23.14-.14.3-.25.48-.36.08-.05.15-.08.2-.09.06 0 .09.03.14.05.01-.05 0-.09.03-.15.03-.05.11-.13.18-.19.24-.17-1.12.73-.89.51.09-.09.23-.15.35-.23.06-.04.13-.08.18-.13.06-.04.11-.09.16-.15 0 0 .27-.18.5-.39.24-.2.46-.43.49-.45.26-.24.32-.29.39-.34.02-.01.03-.02.05-.04h.01s.01-.02.02-.02l.04-.03c.06-.05.13-.13.26-.26.08-.09.18-.21.21-.26.04-.09.09-.17.15-.25 0 0-.01 0-.02-.01-.18-1.36-.52-2.69-1.02-3.96-4.99 4.63-13.65 5.53-20.56 5.58-7.02.04-19.48-1.05-23.37-3.87-.64-.47-1.15-1.11-1.54-1.88-.07.2-.11.4-.11.6v.02c-.24 1.2-.45 2.4-.62 3.61l-.06.03c.18.29.38.57.6.83.19.23.4.43.32.61v-.02Zm37.68 2.92c.19-.06.38-.11.57-.16.07-.02.16 0 .24.02-.08.04-.14.08-.23.11-.08.03-.18.04-.27.06-.09.02-.19.04-.28.05h-.15c.04-.02.07-.05.12-.07Zm-5.22.76c.23-.02.36-.04.48-.05.03 0 .06.02.07.04l-.06.03c-.13.02-.26.04-.38.04-.15 0-.36.09-.45 0 .15-.02.29-.05.34-.06ZM26 127.01c.45-.14.93-.15 1.42-.17.06 0 .17-.04.18-.07 0-.03-.09-.09-.1-.08-.25.04-.42-.15-.75 0-.15.06-.49.06-.78 0-.31-.07-.87.1-.9.24.03.02.05.06.09.06.28.02.67.08.83.03Z"/><path class="cls-1" d="M51.28 122.18c0-.11-.04-.22-.09-.32-.06-.21-.15-.42-.28-.6-.13-.18-.28-.34-.45-.48a5.3 5.3 0 0 1-.36.62c-.28.4-.61.86-1 1.14-.18.33-.6.66-.89.87-.46.27-.47.26-.48.28 0 0 0 .01-.06.06s-.17.12-.4.25c-.54.3-.31.22-.89.49-.54.23-.11.11-.59.38-.26.14.15-.09-.14-.01-.22.06-.31.06-.55.2-.59.35-1.32.55-2.04.67-.06 0-.12 0-.16.01-1.14.31.04-.09-1.09.19-.11.03-.27.07-.32.11-.3.25-.38.25-.88.34-.33.05-.67.09-1 .11-.06 0-.15-.02-.14-.05.01-.1-.1-.13-.39-.06-.24.05-.47.1-.7.17-.42.11-.86.24-1.36.28-.56.04-1.13.16-1.7.19s-.68.05-.68.02c-.08.01-.18.02-.28.03-.46.03-.91.11-1.41.08-.17-.01-.36 0-.55 0l.04.03c-.12.02-.23.04-.35.05-.06 0-.12-.02-.18-.03.08-.01.17-.03.28-.05-.2 0-.39 0-.56-.05-.04-.01-.24.03-.32.06-.23.09-.34.02-.48-.01-.07.05-.15.15-.2.15-.4.01-.83.13-1.19 0-.11-.04-.33-.03-.51-.04-.15 0-.41.03-.46 0-.47-.29-1.05.08-1.55.01-.21.14-.41.08-.63.02-.03 0-.16.05-.24.08.05.02.11.07.16.07.57-.02 1.15 0 1.68-.14.06-.02.18 0 .27 0-.06.04-.1.09-.19.11-.14.03-.3.04-.46.05-.34.03-.67 0-1.01.11-.19.06-.57.06-.77-.06h-.01s.02 0 .02.01c-.02.04-.11.07-.21.13-.09-.06-.18-.09-.16-.11.04-.03.13-.05.2-.08-.13-.02-.28 0-.43.02-.33.05-.81.1-1.27.11.03.02.05.05.08.08-.37.04-.74 0-1.07-.04-.26-.04-.44-.07-.69-.01-.05.01-.2-.02-.27-.05-.21-.08-.4-.17-.5.03h-.01l.13.06c-.06.02-.14.06-.19.05-.08 0-.15-.04-.26-.08-.43 0-.89-.09-1.31.02-.02 0-.27-.08-.29-.13-.05-.1-.02-.21-.03-.31 0-.01-.1-.03-.16-.04-.06 0-.16 0-.16.02-.03.06-.04.13-.05.19-.05.21-.17.27-.73.21-.33-.03-.66-.09-.98-.16h-.09c-.2.04-.58 0-.77-.14h-.01s.02.01.02.02c-.02.04-.12.06-.23.1-.08-.07-.17-.12-.14-.13.05-.03.13-.04.21-.05-.13-.04-.28-.04-.43-.03-.33.02-.82 0-1.28-.05.02.03.04.06.07.09-.37 0-.73-.09-1.06-.18-.19-.05-.34-.08-.51-.09l.25.08c.08.02.15.05.23.07h-.25c-.06 0-.13-.02-.26-.04-.02 0-.14-.02-.2-.04-.05-.03-.06-.08-.05-.11a.593.593 0 0 1-.16-.07c-.14-.08-.4-.23-.51-.22-.06-.05-.14-.13-.32-.15-.11-.02-.38.01-.46.03-.15.03-.48-.02-.69-.09-.2-.06-.35-.05-.53-.03-.4.04-.6 0-.98-.25-.26-.17-.45-.21-.74-.2-.31.01-.58-.06-1.02-.24-.14-.06-.32-.12-.45-.13-.47-.05-.74-.32-1.05-.53-.02-.01.12-.06.09-.11-.05-.07-.22-.09-.34-.05-.2.08-.69-.16-.9-.45a1.18 1.18 0 0 0-.18-.21c-.49-.36-.98-.68-1.46-.96-.21-.13-.41-.28-.52-.43-.11-.15-.19-.29-.29-.41a1.2 1.2 0 0 0-.38-.32c-.07-.15-.16-.3-.26-.46-.09-.13-.19-.27-.28-.41-.28.29-.51.63-.67 1-.16.38-.22.76-.18 1.13-.05.86-.05 1.72.01 2.58-.04.08-.06.18-.05.27.22 1.75 2.09 2.45 3.55 2.93 1.73.58 3.52.98 5.31 1.3 3.81.68 7.66 1.16 11.52 1.43 3.82.26 7.65.3 11.48.09 1.91-.11 3.81-.27 5.71-.5 1.79-.22 3.58-.45 5.34-.85 1.56-.35 3.07-.91 4.52-1.58 1.26-.58 2.6-1.36 3.12-2.72.12-.31.17-.65.17-.98 0-.07 0-.13-.02-.19.1-.99.13-1.99.05-2.99Zm-22.54 5.31c-.13-.01-.21-.02-.3-.02.09-.02.17-.05.27-.06h.26c-.08.03-.15.05-.23.08Z"/><path class="cls-1" d="M6.14 124.34c.37.19.75.36 1.14.51.24.1.48.2.72.26.2.05.55.28.57.09.02-.13-.33-.15-.51-.23-.1-.04-.24-.08-.34-.09-.36-.05-.66-.18-.97-.39-.15-.11-.37-.2-.56-.3-.03-.01-.1 0-.1.02 0 .04.02.11.05.13ZM2.75 121.75c.16.23.35.31.53.45.28.22.1-.02.09-.08a.385.385 0 0 0-.26-.28c-.16-.06-.31-.15-.42-.28-.06-.06-.11-.14-.16-.22-.04-.08-.08-.18-.11-.28-.04-.1-.15-.25-.24-.38-.04.02-.08.05-.12.07.11.22.25.42.28.46.21.29.34.41.42.54ZM36.7 126.25c.28-.02.58-.03.84-.08 1.21-.25 1.3-.27 2.53-.39.26-.03.58-.09.82-.17.33-.11.21-.11.51-.11.41 0 .7-.13 1.02-.24.05-.02-.4.05-.36.03-.05 0 .38-.09.33-.09-.96.23-1.46.2-2.43.41-.12.03-.25.04-.38.06-.48.08-.96.15-1.44.22-.49.08-.97.17-1.45.26-.05 0-.09.02-.13.04l.02.05s.07.02.11.02ZM35.77 126.25s.05-.01.07-.02c0-.05-.02-.09-.04-.13-.09-.02-.17-.03-.27-.03-.17 0-.34.03-.74.28.32-.03.65-.06.97-.1ZM34.55 126.29s-.24.08-.07.08c.11-.06.23-.14.39-.24l-.67.06c-.06 0-.11.03-.16.04l.21.02c.1.01.31-.08.31.03ZM43.44 124.77c.12.04.34 0 .49-.08.47-.22.97-.36 1.46-.57.05-.02.09-.06.13-.08-.05 0-.09 0-.14.01-.22.06-.44.12-.61.16-.49.2-.91.35-1.34.49-.01 0-.01.05.02.06ZM32.05 126.59c.09 0 .2-.02.29-.02.24.01.04.06 0 .09-.03.03-.02.07-.02.1.07-.01.13-.02.2-.04.15-.02.31-.04.45-.06.1-.02.19-.05.29-.08-.06-.03-.1-.09-.19-.1-.29-.03-.6-.05-.74-.06-.41.03-.87.16-.82.17.17.01.36 0 .54 0ZM29.34 126.76s.23-.03.28-.02c.42.15.8-.13 1.21-.08 0 0 .09-.04.08-.06-.02-.03-.07-.08-.11-.08-.42.02-.84.04-1.26.07-.36.02-.71.03-1.07.06-.11 0-.22.04-.32.07-.05.01-.09.04-.14.06.04.01.09.04.13.04.4-.03.8.14 1.21-.05ZM48.44 122.23c.09-.08.19-.15.28-.24.14-.12.27-.25.4-.38.03-.04.07-.12.05-.13-.03-.03-.28.1-.36.21-.14.16-.26.33-.39.48-.02.03.01.06.02.05ZM45.91 124.3c.09-.04.09-.04.08-.03.43-.19.85-.41 1.25-.65.05-.03.09-.07.14-.1-.05.02-.1.02-.16.05-.38.16-.57.23-.75.33-.18.09-.36.2-.75.38-.19.08-.38.19-.55.28.2 0 .54-.17.75-.25Z"/><path class="cls-12" d="M41.17 124.89c.09-.01.19-.03.28-.05.09-.02.19-.03.27-.06.09-.03.16-.07.23-.11-.08 0-.17-.03-.24-.02-.2.05-.39.1-.57.16-.05.02-.08.04-.12.07.05 0 .1.01.15 0ZM36.04 125.63c.12 0 .25-.02.38-.04.02 0 .07-.02.06-.03a.084.084 0 0 0-.07-.04c-.13 0-.25.03-.48.05-.05 0-.19.03-.34.06.09.09.3 0 .45 0ZM28.71 127.4c-.09.01-.18.04-.27.06.08 0 .17.01.3.02.07-.02.15-.05.23-.08-.09 0-.18-.02-.26 0Z"/><path class="cls-12" d="M47.92 122.39c-6.11 3.81-14.25 3.51-21.43 3.7-.62-.32-.75.61-1.2.24-1.37-.75-3.38.25-4.79.1-1.25-.29-.25-.07.45-.21.1-.13-1.62-.28-1.77-.03.11.15.58.28.15.38-.86.22-.01-.52-.7-.44-.89.21-2.5-.86-2.04.03-1.29-.74-3.46-.6-5.14-.86-2.13-.02-1.14-.27-2.76-.76-.19.34-1.82-.18-3.45-1.58-.41-.22-1.32-1.28-1.51-.84.33.4-.22-.03-.06-.06-.82-1.97-2.28-1.59-.31 0-.02.4-.78-.58-1.04-.92-.62-.99-1.06.34-.36.94 3.93 4.24 9.96 4.78 13.95 5.07.44.14 2.7.72 3.53.02.07.96 2.23.11 2.47.34 2.55.03 3.79.2 6.24-.26-.39 0-2.39.32-1.87-.02 6.44-.08 13.19-.14 19.54-2.45 5.58-2.77 5.61-6.73 2.09-2.43Zm-41.73 1.79c.69.53 1.71.64 2.38 1.01-.44.07-2.47-.63-2.38-1.01Zm4.18 1.43c.36-.05 1.3-.09 1.44.24-.38-.09-1.3-.04-1.44-.24Zm7.2 1.13c-.45-.07-1.54.03-1.79-.17.15-.13 2.96.13 1.79.17Zm6.03-.34c.42 0 .82-.08 1.23.02-.27.13-1.47.27-1.23-.02Zm2.37.28c.63.18 1.17-.23 1.63.09-.71.31-3.76.23-1.63-.09Zm2.17.04c.88-.1 1.93-.27 2.77-.11-.65.13-2.63.41-2.77.11Zm4.83-.06c-.45.04-2.37-.08-.65-.24.11 0 1.39.07.65.24Zm1.58-.37c.01-.11-.8.03-.36-.09.22.08 1.19-.32.29.18-.17 0 .07-.05.07-.08Zm.25.06c.4-.25.58-.28.74-.28.81.13-.45.29-.74.28Zm1.9-.21c1.36-.25 5.32-.9 5.36-.87.3.13-4.78 1.12-5.36.87Zm6.73-1.43c.66-.19 1.35-.57 2.1-.67-.61.2-1.57.85-2.1.67Zm2.29-.45c.76-.35.86-.48 1.66-.75-.44.41-2.96 1.45-1.66.75Zm2.71-2.08c.19-.2.47-.69.75-.7-.09.22-.6.74-.75.7Z"/><g id="Lower_leg_2"><path class="cls-6" d="M41.32 109.24c-.01-.12-.6-2.02-.6-2.02l-3.26 2.39.81 3.21s.9-.21 1.75-.55c.86-.34 1.38-2.3 1.3-3.03Z"/><path class="cls-7" d="M35.46 114.61c0-.05.05-.11.09-.15-.12-.84-.12-1.7.04-2.54.01-.07.05-.11.09-.13.17-.18.38-.33.58-.47.21-.15.44-.28.67-.4.06-.04.13-.05.21 0l.01.01h.01c.34.23.64.47 1 .66.52.27 1.06.35 1.63.15 1.07-.38 1.81-1.48 2.52-2.3v-.02a.22.22 0 0 1 .29-.07c.35.22.61.58.69.99 1.09.58 2.07 1.37 2.89 2.3 1.93.68 3.8 1.52 5.7 2.28.05 0 .1 0 .15.03.32.17.33.59.3.9-.04.37-.14.73-.3 1.06-.02.04-.05.07-.09.09-.06.08-.15.14-.29.14l-12.35-.3-3.56-.09c-.29 0-.4-.3-.31-.51-.08-.55-.08-1.1 0-1.65Z"/></g><path class="cls-6" d="m16.03 111.64 1.42-2.29-4.41-.17-1.24 3.4s1.09.74 1.94.66c.85-.08 1.77-.75 2.29-1.6Z"/><path class="cls-15" d="M42.65 106.42zM25.64 72.32l1.58-1.75c.12-.13.19-.29.19-.47 0-.16-.07-.36-.19-.47s-.29-.2-.47-.19-.35.06-.47.19l-1.58 1.75c-.12.13-.19.29-.19.47 0 .16.07.36.19.47s.29.2.47.19.35-.06.47-.19Z"/><path d="M42.65 106.42c-.45-4.78-1.03-9.56-1.94-14.28-.17-.89-.36-1.77-.55-2.65.02-.1.02-.2 0-.3-.72-3.79-1.72-7.52-3.17-11.1-1.32-3.25-2.99-6.34-4.82-9.34-1.13-1.85-2.32-3.67-3.51-5.48-.2-.3-.58-.42-.9-.24a.54.54 0 0 0-.19.18l-10.86 2.62a.707.707 0 0 0-.47-.48c-.36-.1-.7.12-.81.46-.47 1.34-.49 2.79-.36 4.2.14 1.54.49 3.05 1.08 4.48.01.03.03.07.05.1.88 4.34 1.71 8.7 2.87 12.97.27.99.55 1.97.88 2.94-1.54 2.03-2.48 4.39-3.43 6.75-.96 2.39-1.97 4.75-3.08 7.06-.65 1.36-1.32 2.7-2.02 4.03-.02.04-.04.09-.05.13a.67.67 0 0 0-.14.4c0 .38.3.64.66.66 2.23.15 4.45.44 6.69.59h.02c.21.01.42-.08.56-.33 2.27-4.2 4.51-8.41 6.7-12.65.63-1.22 1.26-2.44 1.88-3.66.01-.02.02-.05.03-.08v-.01c0-.02.01-.04.02-.06.02-.06.03-.12.04-.19.17-2.86.03-5.73-.18-8.58-.11-1.47-.25-3-.41-4.54 1.04 1.89 2.1 3.77 3.3 5.57.48.72.98 1.41 1.5 2.1 0 2.77.48 5.56.99 8.27.27 1.43.57 2.84.89 4.26.32 1.41.7 2.8.99 4.21.4 1.94.68 3.9 1.04 5.85.06.35.49.55.81.46.07-.02.14-.05.2-.09.03-.01.05-.03.08-.04 1.67-1.28 3.41-2.46 5.2-3.55.05-.03.09-.07.13-.1.19-.12.33-.32.31-.55Z" style="fill:#bbdbdf"/><path class="cls-7" d="M9.84 115.55c0-.05.05-.11.09-.15-.13-.84-.14-1.7 0-2.54.01-.07.05-.11.09-.13.17-.18.37-.34.57-.48.21-.15.43-.28.66-.41.06-.04.13-.05.21 0h.03c.34.23.64.47 1.01.65.53.26 1.07.34 1.63.13 1.06-.39 1.79-1.5 2.49-2.33v-.02c.06-.09.19-.14.29-.08.36.21.62.58.7.98 1.1.57 2.09 1.34 2.92 2.26 1.94.66 3.82 1.46 5.73 2.2.05 0 .1 0 .15.03.33.16.34.58.31.9-.03.37-.13.73-.29 1.07-.02.04-.05.07-.09.09-.06.09-.15.15-.28.14-4.12-.04-8.23-.09-12.35-.13-1.19-.01-2.37-.02-3.56-.04-.29 0-.4-.3-.32-.51-.09-.55-.1-1.1-.02-1.65Z"/><path class="cls-20" d="M16.71 109.26c-.47.69-.94 1.37-1.42 2.05-.09.13-.11.36-.07.51s.16.32.3.4c.15.08.34.12.51.07s.29-.16.4-.3c.48-.68.96-1.36 1.42-2.05.19-.29.06-.75-.24-.9-.34-.18-.7-.07-.9.24ZM12.62 108.85c-.46 1.05-.91 2.11-1.4 3.16-.15.31-.1.73.24.9.29.15.75.1.9-.24.48-1.04.93-2.11 1.4-3.16.14-.32.1-.73-.24-.9-.29-.15-.76-.1-.9.24ZM40.42 107.24c.1 1.12.31 2.23.33 3.36 0 .35.3.68.66.66s.67-.29.66-.66c-.02-1.13-.24-2.24-.33-3.36-.03-.34-.28-.68-.66-.66-.33.02-.7.29-.66.66ZM36.82 109.18c.18.88.36 1.76.53 2.64.07.34.49.57.81.46.36-.12.53-.45.46-.81-.17-.88-.35-1.76-.53-2.64-.07-.34-.49-.57-.81-.46-.36.12-.54.45-.46.81Z"/><g id="Torso"><path class="cls-2" d="M28.96 62.77c-.07-.2-2-5.77-2.51-6.97s-3.71-6.89-3.71-6.89l-.83-4.79s-4.29-.83-5.11-.81-2.11 0-2.11 0-2.18.73-2.87.81-2.25.22-2.77.4-2.51 1.59-3.59 2.67-2.48 5.57-2.48 5.57L9.66 56l.83-.18.35 1.62s3.3 5.71 3.63 6.46.32 2.2.32 2.2 4.76-.54 7.17-1.15c2.41-.62 7.01-2.19 7.01-2.19Z"/><path class="cls-6" d="M14.49 43.06c.1-.11-1.45-1.8-1.45-1.8s1.29-.97 1.66-1.62.24-1.58 0-2.23-1.39-2.95-2.08-3.68-2.67-2.14-2.67-2.14-1.49-.53-2.31.03c-.81.57-2.83 2.3-2.61 2.98.22.68.03 1.51.36 2.61.33 1.1.74 1.86 1.24 2.47.5.62 2.65 2.22 2.65 2.22l1.06 2.21s2.78.5 4.16-1.05ZM22.08 44.8c.11.13.77 4.52.77 4.52l1.49 2.12s3.47-.33 4.23-.61 3.34-1.33 3.54-2.39-.51-4.1-1.07-5.38-5.32-8.46-5.32-8.46l-3.64-3.48-4.85 2.94s-.51.44.14.74 1.66.4 2.28 0 1.63-.48 1.94.11 2.81 3.77 3.17 5.52c.37 1.75.87 3.09.97 4.01.1.92.64 1.73.64 1.73l-4.29-1.37ZM20.43 29.89s-1.23-1.07-1.7-.79-.09.83-.57.79-.75.09-.78.42-.43.45-.73.6-.44.53-.38.86.64 1.43.64 1.43l3.51-3.3ZM9.48 55.9c-.11-.05-5.38-2.64-5.38-2.64s-1.45 4.46-1.66 5.56c-.21 1.11-.41 3.24.02 3.92s.88.97.88.97 3.59.12 5.1-.32 4.91-2.21 4.91-2.21l3.46-1.91s.87 0 1.57.11.64-.32 1.21.25c.57.56 2.02 1.13 2.02 1.13l.57-.54.25-.84s1.28.26 1.4-.14.31-.81-.23-1.17-1.21-.58-.58-.59 1.97-.08 2.19-.31-.09-.83-1.06-.94-3.14.05-3.15-.15.33-1.51.33-1.51-2.61 1.5-3.1 1.66-4.02.95-4.12 1-5.41 1.01-5.41 1.01l.82-2.34Z"/><path class="cls-3" d="M28.13 28.42c.27-.1.55-.2.83-.29.52-.17.71-.96.16-1.21-.58-.27-1.19-.49-1.8-.65.16-.28.31-.56.44-.85.16-.34.07-.9-.4-.97-.52-.08-.96 0-1.42.26-.18.1-.35.22-.51.33-.05.03-.1.07-.15.11l-.22-.36c-.15-.24-.28-.48-.47-.69-.41-.45-1.11-.61-1.62-.23-.31.23-.44.56-.32.93.1.3.23.59.36.87.24.55.5 1.09.79 1.62.21.39.63.39.92.2l.77 1.19c-.25.29-.29.76.14 1 .51.28 1.02.57 1.53.86.51.28 1.07.51 1.68.36.39-.09.64-.63.4-.97-.36-.51-.73-1.01-1.1-1.51Zm-4.55-3.46c-.04-.03-.04-.03 0 0Z"/><path class="cls-20" d="M31.08 48.4c-.46.96-1.67 1.48-2.66 1.79-1.23.38-2.54.49-3.82.39-.36-.03-.66.32-.66.66 0 .38.3.63.66.66 1.44.11 2.96-.04 4.34-.49 1.24-.41 2.69-1.1 3.29-2.35.15-.32.09-.72-.24-.9-.29-.17-.75-.09-.9.24Z"/><path class="cls-2" d="M11.48 57.27c-.28-.7-.5-1.42-.62-2.17-.03-.15-.17-.32-.3-.4-.14-.08-.35-.12-.51-.07s-.32.15-.4.3a.75.75 0 0 0-.07.51c.12.75.34 1.47.62 2.17.07.17.14.3.3.4.14.08.35.12.51.07s.32-.15.4-.3.13-.35.07-.51Z"/><path class="cls-2" d="M29.6 62.59c-1.21-3.62-2.44-7.26-4.22-10.64-.56-1.06-1.18-2.1-1.87-3.08-.05-1.64-.35-3.25-.91-4.8-.02-.04-.03-.08-.06-.12-.04-.21-.18-.39-.45-.47-1.27-.34-2.56-.58-3.86-.75-1.3-.16-2.56-.23-3.82-.08h-.01a.534.534 0 0 0-.35.1c-1.2.67-2.52.94-3.92.82a.6.6 0 0 0-.4.13c-1.4.19-2.67.88-3.71 1.85-1.21 1.13-2.01 2.6-2.64 4.12-.36.89-.66 1.79-.96 2.7 0 .02 0 .04-.01.05-.16.28-.08.76.24.9 2.51 1.09 4.97 2.29 7.36 3.61.63.35 1.21-.42.91-.91.56-1.38 1.05-2.78 1.48-4.2.1-.34-.12-.72-.46-.81a.68.68 0 0 0-.81.46c-.39 1.3-.84 2.58-1.34 3.84a89.227 89.227 0 0 0-5.98-2.92c.57-1.74 1.18-3.52 2.3-4.99.98-1.29 2.47-2.35 4.1-2.44.09 0 .18-.03.27-.07 1.41.06 2.81-.27 4.06-.93h.02c.01 0 .1.01.13.02.03 0 .07 0 .08.01.07.01.15.02.22.04.26.04.52.1.77.16.63.16 1.2.37 1.75.65 1.5.77 2.72 1.95 3.79 3.23 2.19 2.61 3.72 5.76 4.96 8.92.7 1.79 1.32 3.62 1.93 5.44-3.32 1.13-6.71 2.05-10.18 2.59-.8.12-1.59.23-2.39.31-.02-.59-.23-1.17-.51-1.72-.45-.88-.93-1.65-1.43-2.45-.19-.3-.59-.42-.9-.24-.31.18-.43.6-.24.9.44.71.88 1.42 1.28 2.15.17.32.33.61.43.94.03.09.05.19.07.28l.01.14v.19c0 .05-.02.1-.04.14-.01.03-.02.05-.02.06v-.02c0 .01 0 .02-.01.03a.61.61 0 0 0-.02.57c.03.07.07.13.12.18 0 0 .02.02.02.03l.03.03c.12.11.27.18.43.16 3.79-.36 7.53-1.1 11.17-2.2 1.05-.32 2.1-.67 3.14-1.03.24-.08.42-.28.47-.52.06-.13.08-.28.03-.43ZM18.86 44.13c.86.14 1.71.33 2.54.54.25.74.45 1.48.58 2.22-.91-1.05-1.94-2.03-3.12-2.76Z"/><path class="cls-20" d="M15.41 37.49c-.19-.61-.43-1.21-.71-1.78-.55-1.12-1.29-2.15-2.17-3.03s-2-1.72-3.26-2.02c-.33-.08-.69-.12-1.05-.12h-.08c-.63 0-1.24.15-1.8.42-.01 0-.03.01-.04.02l-.12.06c-.25.14-.49.3-.7.49-.03.03-.05.05-.07.08-.04.04-.09.08-.13.12-.74.79-1.2 1.81-1.28 2.85-.08.95.17 1.93.53 2.81.38.93.87 1.81 1.49 2.61.32.42.66.82 1.05 1.17.53.47 1.12.86 1.71 1.25.04.1.09.2.13.3.14.35.26.71.37 1.07.05.16.16.31.3.4s.35.12.51.07c.33-.11.57-.46.46-.81-.09-.3-.18-.6-.29-.89-.13-.34-.28-.67-.43-1-.06-.14-.25-.26-.4-.3h-.06c-.75-.5-1.46-1.01-2.05-1.71-.49-.58-.96-1.33-1.32-2.07-.19-.38-.33-.75-.46-1.18-.12-.4-.2-.77-.22-1.11-.01-.17-.01-.35 0-.53 0-.02.02-.18.02-.19l.06-.3c.11-.4.3-.77.53-1.13.27-.41.61-.68 1.03-.92.01 0 .02-.01.03-.02.54-.23 1.21-.3 1.72-.22 1.02.18 1.9.8 2.64 1.5 1.51 1.43 2.62 3.35 3.01 5.4.02.11.04.14-.02.24-.06.1-.19.19-.27.28-.15.15-.31.29-.47.42 0 0-.14.1-.16.12-.07.05-.15.1-.22.15-.23.15-.45.31-.67.47-.11.07-.2.18-.25.29-.1.19-.11.41.01.61l.02.02c.38.69.91 1.3 1.31 1.98.17.3.6.43.9.24.3-.19.43-.59.24-.9-.3-.52-.68-.98-1.01-1.48.19-.13.38-.26.56-.4.43-.33.93-.73 1.2-1.21.36-.64.06-1.48-.14-2.13ZM32.45 44.98c-.4-1.39-1-2.73-1.63-4.03a30.98 30.98 0 0 0-4.8-7.04 30.653 30.653 0 0 0-3.47-3.27c-.28-.23-.66-.27-.94 0-.23.23-.28.71 0 .94 4.19 3.38 7.48 7.88 9.3 12.95.46 1.27.91 2.83.11 4.03-.2.3-.06.73.24.9.32.19.71.06.9-.24.84-1.26.69-2.86.29-4.25ZM16.93 33.22c.29-.19.44-.6.24-.9-.04-.06-.08-.12-.11-.19 0-.02-.02-.03-.02-.05v-.03l-.06-.21c0-.02-.02-.15-.02-.12v-.16h.39c.38.02.64-.3.66-.65l.02-.33c.51.11.94-.36.8-.84h.07c.01 0 .02 0 .04.01l.1.03.11.05c.09.05.18.1.26.16.23.15.45.3.67.45.28.2.75.06.9-.24.18-.34.07-.7-.24-.9-.65-.45-1.37-1.01-2.21-.86-.42.08-.76.35-.94.69h-.02c-.44-.1-.81.19-.84.63l-.03.45h-.3c-.32-.02-.53.21-.64.48-.29.73-.18 1.62.25 2.28.19.29.59.44.9.24Zm1.89-3.48h.01Zm-.04.02Zm.04-.02ZM28.26 46.28c-.38-.18-.76-.36-1.14-.53-.01-.02-.02-.03-.03-.05-.65-.82-.9-1.9-1.11-2.9-.25-1.15-.49-2.27-.95-3.36-.49-1.16-1.12-2.24-1.8-3.3-.58-.9-1.22-2.23-2.38-2.45-.8-.15-1.47.24-2.16.58-.23.11-.52.23-.75.15.04.01-.1-.08-.07-.05-.04-.05-.04-.06-.04-.06.11-.31.04-.65-.27-.82-.28-.17-.76-.09-.9.24-.3.66-.07 1.35.52 1.77.59.42 1.37.29 2.01 0 .44-.19 1.05-.7 1.55-.47.11.05.28.22.4.36.19.21.34.47.5.72.7 1.07 1.39 2.15 1.94 3.31.53 1.11.81 2.28 1.07 3.48.15.72.33 1.43.6 2.11-.9-.32-1.81-.58-2.76-.78-.35-.07-.72.1-.81.46-.09.33.11.74.46.81 1.92.4 3.7 1.06 5.46 1.91.32.16.72.09.9-.24.17-.29.09-.75-.24-.9ZM17.8 34.4s.02-.05.03-.07c0 .03 0 .05-.03.07ZM16.65 33.74l.01-.01-.01.01z"/><path class="cls-4" d="M26.37 28.72a.584.584 0 0 0-.08-.22 5.64 5.64 0 0 0-1.37-1.9.683.683 0 0 0-.47-.19c-.14 0-.3.06-.42.15 0 0-.02 0-.03.01-3.05 2.03-5.81 4.48-8.46 7-.72.68-1.42 1.37-2.12 2.07-.16.16-.21.33-.19.5 0 .1.03.2.08.3.11.19.33.31.55.33h.11c.1-.01.2-.05.29-.12 3.03-1.99 6.12-3.9 9.24-5.74.85-.5 1.7-.99 2.55-1.48.29-.17.36-.45.3-.7Z"/><path d="M8.77 29.24a.706.706 0 0 0-.7.31s-.02.04-.03.04l-.03.03-.12.12s-.06.04-.08.05c-.06.04-.11.07-.17.1-.22.12-.45.22-.68.34-.51.25-.99.6-1.4 1-.87.86-1.41 1.98-1.59 3.17-.01.02-.03.03-.04.05-.12.17-.12.38-.04.57-.33.46-.43 1.07-.33 1.63.11.69.54 1.32.94 1.89a17.18 17.18 0 0 0 2.81 3.09c.04.04.09.07.14.09.36.33 1.12.18 1.13-.47.01-.85-.09-1.67-.28-2.49-.09-.41-.62-.62-.97-.4-.27.17-.59.03-.8-.26-.13-.19-.23-.41-.27-.64a.613.613 0 0 1 .02-.33s.06-.08.07-.09c.06-.05.02-.01.06 0 .16.02.32.03.48 0 .34-.08.62-.32.7-.67.07-.32-.08-.62-.19-.91l-.34-.93c-.11-.3-.46-.61-.81-.46-.14.06-.28.12-.41.18.55-.52 1.17-.97 1.8-1.39.52-.34 1.11-.64 1.45-1.17s.38-1.21.37-1.83c0-.44-.35-.65-.69-.64Z" style="fill:#cc9e40"/><path class="cls-1" d="M20.26 44.97c-.07-.06-.14-.12-.22-.17h-.02a.55.55 0 0 0-.07.09c0 .03.01.06.03.08.03.04.07.06.28 0ZM18.52 43.68c.23.14.29.3.53.43l.09.06c.11.08.22.17.33.24.12.08.24.14.37.21h.04l.03-.04v-.04c-.06-.06-.11-.13-.18-.16-.32-.15-.34-.17-.59-.43a.402.402 0 0 0-.21-.12c-.11-.02-.09.02-.13-.08-.06-.12-.16-.12-.26-.14-.02 0 .08.09.06.09 0 .01-.04-.02-.07-.04ZM17.62 43.3s0 .04.02.05c.04.05.09.11.12.15l.38.16s.03-.03.03-.05c0-.06-.04-.11-.09-.12-.16-.02-.28-.11-.41-.19h-.05ZM20.27 45.21s.03 0 .05.01l-.02-.07s-.09-.03-.04-.09c.02-.02.09 0 .06-.04-.05.01-.12.03-.2.06l.15.12ZM9.14 43.85l-.15.03c-.01.13.07.1.15-.03ZM8.81 44s.03-.06.04-.1c-.04 0-.07.02-.1.03v.08c0 .07.03.03.06-.02ZM20.71 45.51c.09.08.24.1.24.09-.02-.05-.06-.09-.09-.13-.02-.02-.05-.03-.06-.06-.04-.06.03-.04.05-.06.02-.01.04-.04.06-.06-.02 0-.04-.02-.06-.03-.04-.02-.07-.05-.11-.07-.03-.01-.06-.01-.09-.02 0 .04-.03.08-.02.11.03.09.08.17.09.21ZM16.53 42.86c.06.01.12.02.18.02l.02-.03-.09-.06a.638.638 0 0 0-.14-.08c-.01 0-.04 0-.05.02-.01.03.03.12.07.13ZM17.71 43.08c.05.02.12.03.18.04-.01-.08-.12-.11-.17-.15-.02-.01-.02-.02-.02-.01l-.36-.18h-.05c0 .02.01.04.03.05.16.19.18.16.4.26ZM23.55 47.95s.04.03.04.02c.05-.02.09-.06.13-.08.02-.01.03-.02.04-.02-.02-.04-.03-.08-.05-.12-.06.06-.12.1-.18.15v.05Z"/><path class="cls-1" d="M17.99 42.68c.09.02-.05 0 0 .07.04.05.05.09.14.08.22 0 .41.12.55.28.01.01.01.04.03.04.31.15-.06.05.24.21.03.02.08.03.1.02.17-.08.18-.06.3.04.08.06.14.14.21.21.01.01 0 .06 0 .07-.06.07-.06.11.02.15.06.03.13.06.2.08.12.04.27.07.37.18.11.12.26.19.38.32s.14.14.12.16.04.03.06.05c.09.1.21.16.28.3.02.05.06.09.1.13v-.03s.08.03.1.05c.01.01 0 .04.01.06l-.08-.04s.06.1.07.16c0 .02.06.04.09.04.09 0 .07.07.08.12.04-.02.11-.06.12-.04.08.09.23.11.21.28 0 .05.04.1.07.14.02.04.09.08.08.1-.08.27.23.19.29.34.12-.03.12.05.13.13h.09c0-.02.02-.06.01-.07-.12-.11-.21-.26-.39-.3-.02 0-.03-.04-.05-.06.03 0 .07-.03.1-.02.04.01.08.05.11.08.08.06.13.15.25.17.07.01.14.1.11.21.03-.02.06-.01.11-.02-.02.05-.02.09-.04.1h-.08c.01.04.05.07.09.09.09.04.21.13.3.23 0-.02.02-.04.03-.06.09.06.15.16.18.26.03.08.04.13.13.16.02 0 .02.06.02.08 0 .09-.03.18.12.09v-.06s.08 0 .09.01c.01.02 0 .06 0 .1.06.06.1.15.16.21-.24-.6-.41-1.08-.47-1.38-.24-1.06-.89-2.62-2.13-2.94-.85-.22-2.33-.51-3.5-.64.1.04.08.01.22.09s.06-.02.22 0Zm3.97 3.03.04.08s-.06-.01-.08-.03c-.02-.01-.03-.04-.04-.07h.09ZM21.3 46.05c.07.07.14.14.22.21.02.02.06.02.1.03h.06v-.05c-.09-.07-.06-.26-.24-.24-.02 0-.06-.04-.06-.06 0-.18-.22-.1-.26-.23 0 0-.04 0-.05.02-.02.02-.03.06-.02.07.08.08.17.16.26.24ZM15.96 42.57s.03.01.04.01c.02 0 .04 0 .04-.02s-.06 0-.09 0h.01ZM24.49 49.96h-.03a.21.21 0 0 0-.06.04c-.01.01.06.22.08.22l.25.06c.01 0 .03 0 .04-.02s-.01-.03-.01-.03c-.05-.03-.1-.06-.14-.1-.05-.05-.09-.11-.13-.17ZM23.71 48.8c.07.12.15.05.22.13.06-.02.02-.1-.06-.14-.07-.1-.15-.2-.23-.28-.15-.15-.1 0-.03.11.04.06.07.13.1.19ZM21.85 46.62c.06 0 .12.08.13.17.02.11.22.13.31.06 0-.02.02-.04.02-.05-.04-.07-.08-.19-.13-.2-.17-.02-.25-.12-.36-.22-.01-.01-.06-.01-.07 0-.02.01-.04.07-.03.07.07.04-.01.18.13.17ZM22.14 47.18h-.11c0 .03 0 .06.02.08.02.04.06.07.09.1.05.06.05.04.1.09 0 0 .05-.01.08-.03.01 0 .03-.04.02-.05-.08-.09-.1-.11-.19-.2ZM9.47 44.65c.11-.1.16-.06.21-.04 0 0 .04-.02.05-.04.02-.02.04-.09.03-.08-.04 0 .03-.17-.07-.07-.04.04-.08 0-.08-.07 0-.09-.14.03-.2.16 0 .02-.02.06-.02.06.02.04.03.12.07.09ZM12.3 53.78s-.02-.05.05-.03c.02 0 .03.04.05.02l-.12-.09-.03.09s0 .02.01.03l.04-.02ZM12.28 54.16s.03-.04.05-.06c0-.01 0-.03.01-.04.03-.03.04 0 .07.02.02 0 .05.02.07.02V54c0-.02-.02-.03-.03-.05h-.09a.63.63 0 0 0-.11.08c-.02.06.04.13.05.13ZM12.09 55.02h.05c.03-.03.1-.07.07-.1-.09-.09-.06-.15-.05-.21 0 0-.02-.03-.04-.04h-.07c.01.04-.14.02-.05.09.04.03.01.07-.05.09-.07.02.03.13.15.16ZM12.15 54.62h.04c0-.06.16-.07.04-.16-.01 0 0-.03 0-.04.14-.02-.04-.12.04-.16 0 0-.03-.02-.04-.02h-.07c-.02.05-.03.11-.05.17-.01.05-.03.09-.04.14 0 .02.02.04.03.05 0 0 .02.02.04.03ZM12.42 53.74l.03-.13v-.01c-.03 0-.06-.02-.09-.02-.02 0-.04.01-.05.02-.01.02-.02.04.11.14ZM12.82 51.79s.01-.03.02-.05c0-.02.02-.05.03-.07 0 0 0-.02-.02-.02s-.06.02-.06.04c0 .03 0 .06.01.09h.02ZM12.53 53.51h.02c.02-.03.05-.07.04-.11-.02-.18 0-.19.08-.34.02-.03.02-.08.01-.11-.02-.05-.04-.04 0-.07.06-.04.03-.09.02-.14 0 0-.04.05-.04.04v-.05c-.02.13-.11.18-.12.32 0 .02 0 .03-.01.05-.02.06-.04.13-.05.19s0 .14 0 .21c0 0 0 .01.01.02h.04ZM12.68 52.49c-.02-.08.01-.15.03-.21v-.02s-.02 0-.03.01c-.02.03-.04.06-.06.08 0 .07-.02.14-.02.2h.03c.04 0 .06-.03.05-.06ZM11.08 57.09s.07 0 .09-.03c.02-.02.11.08.02-.15-.06-.16-.05-.04-.08-.05-.01 0-.02.01-.03.04-.01.11-.06.1-.11.01-.02-.05-.05-.03-.07-.04v.08c0 .04.01.12.02.12.05.01.11.01.16 0ZM11.72 55.13c.02-.06.02-.07.03-.13 0-.01-.04-.04-.07-.06-.02 0-.04.01-.05.02-.01.02-.02.04-.02.06-.01.04 0 .03 0 .07 0 0 .04.02.07.03h.05ZM11.71 46.52h.04c.03-.02.06-.08.05-.09-.02-.02-.06-.03-.09-.04l-.04.02c0 .02 0 .03.01.05 0 .02.01.05.02.07ZM11.34 56.76s.01 0 .02.01c0-.05-.02-.1-.02-.13 0-.04.02-.05.03-.08 0 0 0-.02-.02-.03-.02-.02-.04-.05-.06-.07-.02-.01-.09-.02-.08 0 .04.08.07.16.1.24 0 .01.02.04.03.06ZM10.54 56.71c-.11.15-.15.16-.13 0 0-.04-.04-.04-.06-.04-.01 0-.04.02-.05.04 0 .04-.02.09-.02.1.02.04.05.06.05.07.04.03.07.02.08.05.02.05.08-.03.11-.05.06-.03.04-.09.05-.13.02-.08.01-.09-.03-.03ZM11.71 56.22c.06.04.1 0 .06-.05.02-.05.04-.11.04-.17 0-.11-.08-.06-.11 0-.02.03-.05.06-.07.08-.04.05.08.09.07.14ZM11.18 46.27l.1.13h.02c0-.01.02-.02.02-.03.02-.13 0-.11-.08-.18-.02-.02-.06-.02-.09-.03-.04.06.01.08.02.1 0 0 0 .01 0 0ZM10.55 45.3l-.04.04s-.01.02-.01.03c.01.04.02.08.06.09.16.04.17.06.21.22 0 .04.04.06.08.06.06 0 .07-.03.05.04-.03.09.05.07.1.08v-.06s.02 0 .03.02c-.08-.08-.04-.2-.14-.26-.02 0-.02-.02-.03-.04-.04-.04-.08-.09-.12-.13-.05-.04-.11-.06-.17-.08h-.03ZM10.5 45.21h.02c.03-.03.06-.07.09-.1 0-.03.02-.05.01-.06 0-.02-.03-.04-.21.09.02.03.06.05.09.08ZM9.88 44.73s.03 0 .03.02c-.05.17.13-.02.13.08l.04-.04c.02-.03.04-.08.04-.08-.04-.04-.09-.06-.13-.09-.04-.02-.07-.06-.12-.07-.01 0-.04.02-.06.03-.01 0-.03.02-.04.04 0 .02-.01.04 0 .04.05.01 0 .2.12.08ZM10.18 44.94s-.03.05-.06.07c-.02.02-.04.05-.06.08h.03c.02 0 .04.01.06.01.02 0 .04-.02.06-.02.02-.04.05-.08.05-.1v-.15c-.04-.03-.15.02-.15.02 0 .03.02.05.03.07 0 .01.02 0 .03.02Z"/><path class="cls-1" d="M25.65 52.33c-.07.05-.08.03-.14-.04a.49.49 0 0 0-.13-.12c-.08-.05-.13-.13-.12-.26 0-.18-.06-.35-.04-.53.01-.1-.12-.04-.12-.11-.02.02-.04.04-.05.06-.02.04-.03.07-.05.11a.27.27 0 0 1-.08-.07c-.05-.07-.09-.14-.13-.21l-.06-.12c.05.01.09.03.14.04h.08c0-.02 0-.04-.01-.05-.03-.06-.07-.11-.1-.16-.02-.02-.04-.03-.06-.05 0 .03.01.06 0 .09-.02.07-.15.13-.17.09-.09-.13-.18-.25-.09-.4.02.02.05.03.09.03.02 0 .04.03.06.04 0-.03 0-.06-.11-.14.05 0 .01-.02-.04-.04-.13-.11-.26-.14-.32-.22-.06-.09-.12-.17-.23-.21a.357.357 0 0 1-.13-.14c-.13-.05-.19-.11-.22-.24a.434.434 0 0 0-.24-.33c-.07-.04-.02-.11.07-.21v-.03h.04s.02-.13-.03-.14c-.02 0-.08.05-.13.08l.04.13c-.09-.05-.13-.05-.14-.08l-.02-.03c-.07-.01-.1-.06-.08-.16v-.07l.08-.06c-.05-.09-.11-.18-.23-.21 0 0 0-.07.01-.09.04-.04.09-.1.13-.09.09.01.1-.03.11-.09.01-.07-.03-.08-.08-.08-.07 0-.11 0-.14.09-.02.05-.05.11-.08.15-.02.02-.09.03-.1.02-.09-.11-.18-.23-.27-.36v-.05h.06c.04.02.08.04.11.06.04.04.08.1.11.15h.03c0-.01.02-.03.02-.04a.265.265 0 0 0-.05-.06c-.03-.04-.05-.06 0-.14.06-.09-.08-.19-.2-.17-.06 0-.11.03-.17.04 0-.04-.02-.06-.03-.08l-.04.03c-.19-.05-.26-.09-.3-.23-.05-.14-.13-.24-.26-.29-.08-.03-.02-.12.07-.25.02-.03 0-.12-.04-.11-.03 0-.12.11-.15.12-.12.02-.18-.01-.18-.13 0-.11 0-.19-.14-.18-.16-.16-.32-.31-.47-.48-.03-.03-.03-.08-.09-.1-.09-.03-.15-.11-.23-.17.03-.02.1-.13.13-.16-.05-.05-.09-.11-.15-.15-.05-.03-.12-.07-.22.04 0 0-.1-.04-.12-.08-.11-.26-.08-.36-.26-.44-.04-.02-.07-.04-.1-.06-.03-.04-.08-.08-.12-.12-.05-.04-.1-.08-.12-.09-.08-.11-.12-.05-.22-.11-.09-.06-.15-.19-.29-.17-.03 0-.06-.04-.08-.06-.2-.22-.33-.31-.5-.56a.21.21 0 0 0-.13-.07c-.13-.03-.02.09-.08.06h-.01c-.08-.03-.06-.13-.14-.15-.02 0-.03 0-.05-.01-.17-.1-.36-.19-.53-.28-.11-.06-.03.01-.14-.05-.11-.05.01-.06-.07-.15-.09-.12.03-.09-.13-.09-.01 0-.03-.01-.04-.03-.04-.04-.09-.13-.12-.12-.07 0-.11-.02-.17-.05-.02-.02-.04-.04-.04-.06 0-.03.01-.06.02-.09-.02.02-.04.05-.06.06h-.08c-.04-.02.04.04.12.09.08.05.15.11.11.11-.07-.02-.13-.11-.23-.1 0 0-.31-.19-.32-.19-.18-.11-.06-.09-.24-.19a.226.226 0 0 0-.09-.04.33.33 0 0 1-.19-.06c-.03-.03-.07-.06-.1-.1-.75.08-1.07.14-1.07.14s.3.69-.4.91c-.7.22-.83-.58-.83-.58-.64.44-2.94.61-2.94.61s.12.23-.34.49l.03.03c.02.02 0 .06.05.05.06 0 .09.04.14.06-.02.04-.11.17-.14.2.02.03.04.06.07.08.03.01.07.02.18-.12 0 0 .07 0 .07.03 0 .21-.06.3.05.32.02 0 .04.01.05.02 0 .03.03.05.04.07l.05.05c.02.07.07.01.12.04.04.03.03.13.15.08.02 0 .03.02.04.04.04.15.09.21.09.38 0 .03.02.04.05.04.07.02.06-.07.08-.05.03.02-.03.1.01.11h.03c.06.07.13.14.19.21.04.04.03 0 .07.04.04.04-.04.04-.05.11 0 .09-.08.06.03.06.01 0 0 .01.01.02 0 .03-.03.09 0 .09.05 0 .06.02.06.05 0 .01 0 .03-.02.05-.02.02-.05.04-.07.06.02-.01.05-.03.08-.03.02 0 .04 0 .04.01.02.04-.05-.18 0-.16.04.02 0 .1.07.09 0 0 .07.15.07.16.03.1-.02.06 0 .16 0 .02 0 .04.01.04.07.02.04.12.04.19 0 .04-.01.01-.02.01-.02 0-.04 0-.04-.04 0-.03-.01-.06-.05-.04-.03.02-.05.05-.03.08v.06s-.02 0-.02-.01c0-.03-.01-.06-.02-.08 0 0-.02-.01-.02 0-.01 0-.02.03-.02.04-.01.03-.01.06-.02.09 0 0-.01.02-.02.02-.06 0-.07 0-.07.05 0 .02.02.03.02.04 0 .01 0 .03-.01.03h-.07c-.08-.05-.17-.09-.2-.15-.02-.05-.09-.08-.09-.14-.1.02-.12-.04-.13-.08-.03-.12 0 0-.08-.09-.05-.05-.06-.01-.09-.07-.03-.06-.05.01-.13 0-.04 0 .03 0 .04-.04 0-.04.02-.06-.04-.05-.14.01-.19-.04-.2-.14 0 0 .01-.02 0-.03-.13-.06.07-.04-.05-.11-.01 0-.04-.01-.06 0-.16.09-.16.08-.19.03a.202.202 0 0 1-.03-.11s.02-.04.04-.06c.07-.06.09-.1.06-.11-.03-.01-.06-.02-.1-.02-.07 0-.15.02-.17-.03-.02-.06-.1-.07-.13-.12s-.04-.06-.02-.08-.02 0-.02-.02c-.03-.04-.09-.04-.09-.13 0-.03-.01-.05-.02-.06l-.02.03h-.04s0-.03.01-.05h.04s-.01-.06 0-.11c0-.02-.03 0-.05.01-.06.05-.03-.02-.02-.06-.04.04-.1.11-.1.11-.03-.03-.12.02-.07-.13.02-.04 0-.06-.01-.09 0-.02-.04-.01-.03-.04.11-.3-.11-.03-.12-.13-.08.11-.07.04-.06-.03l-.06.06c0 .03-.02.07-.02.08.06.02.09.09.19.01.01 0 .01.02.02.03-.02.03-.06.08-.07.08-.02.02-.04 0-.06 0-.04 0-.05-.05-.12.02-.04.04-.07.02-.04-.1s0 0 0 .01c-.02.03-.04.06-.07.11.02-.06.03-.1.04-.11.02-.03.03-.04.05-.06 0-.03-.02-.02-.04-.01-.05.03-.11.05-.15.04l-.02.08s-.07-.02-.08-.08c-.01-.04-.02-.08-.06-.03 0 .01-.01-.03-.01-.05 0-.08.01-.18-.06.03s0 .07 0 .07c-.01.02-.03.06-.03.05v-.08c-.04 0-.07-.09-.13.04v-.12c.02-.11.04-.22.07-.33 0-.01 0-.03-.01-.03 0 0-.02.01-.02.02-.02.07-.03.13-.04.2-.05.23-.07.29-.12.26-.03-.02-.05-.06-.08-.11s0 0-.01 0c-.03.06-.06.04-.07-.09s0 0 0 .01c0 .04-.02.07-.04.13v-.13c0-.03.02-.05.03-.08-.01-.03-.03-.02-.05 0-.04.05-.09.09-.14.09v.08s-.07 0-.11-.06c-.02-.03-.04-.04-.05-.03l.02.06.02.05s-.02.03-.03.04h-.03S8 45.02 8 45v-.11s-.01-.03-.02-.05c-.01-.06-.04-.19-.06-.15 0-.04-.02-.11-.04-.1-.01 0-.04.09-.05.12-.02.07-.05.07-.08.05-.02-.02-.04.02-.06.09-.04.14-.06.14-.11 0-.04-.1-.06-.1-.08.01-.03.12-.06.13-.11.11-.02 0-.04 0-.05.05-.04.15-.08 0-.13-.06v-.15c-.01-.04-.02.02-.03.12 0 .18-.06.21-.1.07-.01-.04-.02-.08-.04-.09-.07-.03-.13.03-.17.15-.02.05-.04.09-.06.06-.04-.06-.09-.15-.1.02-.03-.07-.06-.08-.08-.08-.72.57-1.39 1.29-1.92 2.07-1.13 1.69-1.98 4.34-1.95 4.47 0 0 2.8 1.58 5.2 2.31.72.22 1.44 1.35 2.25 2.78.04-.15-.02-.14-.07-.15-.03 0-.04-.04-.06-.07l-.03-.06c.02-.03.05-.05.07-.09.05-.08.11-.14.16-.18.03-.02.06-.04.08-.05.02 0 .04.01.06.02l.19.08c.06.02.12.07.12.06.01 0 .03 0-.05.2h.02c.09-.26.09-.26.11-.26 0 0 .02-.02.04-.06.02-.06.02-.05.02.06 0 .15.03.21.08.39.03.09.01-.12.03-.06l-.02-.11-.03-.15v-.04h.03l.02.02c.01.05.02.09.02.15l.02.11s.01.02.02.02c.02 0 .03 0 .04-.02v-.05c-.01-.02-.02-.03-.04-.06-.03-.08-.1-.28-.1-.28s.02 0 .11.17c0 .02.01.04.03.09.01.03 0 .03 0 .05.02.02.03.04.02-.05.02.06.02.02 0-.03-.01-.08-.08-.19-.08-.2 0 0 .01-.02-.05-.09-.02-.03-.03-.03-.02-.04-.08-.07-.1-.07-.04-.04.03.02.05.02.06.02 0-.01.01-.05-.01-.09-.02-.04.08-.02.22.03h.04l.02.02c.05.02.11 0 .08-.02-.02-.01-.1-.04-.16-.06l-.08.03c-.03-.05-.05-.07-.05-.08-.04-.05-.02-.07.07-.07h.06l.1.04s.05-.08-.02-.15c0 0 .05-.01.08 0 .06.01.15.04.17.05.06.05.1.05.16.04.06 0 .03-.03 0-.06a.235.235 0 0 0-.17-.06c-.05 0-.12 0-.18-.02-.03 0-.09-.04-.09-.05.02-.07.05-.13.08-.2h.04c.01 0 .04.02.04.03.01.02.03.05.03.07 0 .03-.02.06-.03.08 0 0 .02.01.02.02h.05c.01 0 .01-.02.02-.04 0-.02.01-.04.11-.02.11.01.09-.07-.02-.13l-.15-.08s.03-.02.04-.03h-.05c-.09-.12-.11-.16-.02-.21.08-.05.11-.1.07-.19-.03-.05.08-.04.24 0 .04 0 .09-.02.06-.04-.02-.02-.16-.04-.19-.06-.09-.06-.1-.09 0-.11.09-.02.15-.04.06-.1.04-.1.07-.21.13-.31.01-.02.04-.03.03-.06-.02-.05.01-.09.02-.14.03.01.15.03.18.04.02-.03.04-.06.04-.09s0-.07-.13-.1c0 0-.02-.06 0-.07.15-.09.23-.09.22-.19v-.06c.02-.02.03-.05.04-.07 0-.03.02-.06.02-.07.04-.06-.01-.07 0-.12.01-.05.08-.1.02-.16-.01-.01 0-.04.02-.05.09-.12.11-.2.22-.31.02-.02.02-.05.01-.07-.01-.06-.06 0-.05-.03s.07-.05.06-.09v-.02l.07-.29c.01-.06-.01-.01 0-.08.01-.06.04 0 .08-.05.05-.06.06 0 .03-.07v-.02c.02-.02.06-.06.05-.07-.02-.03 0-.06 0-.09 0-.01.02-.02.03-.02h.06c-.01 0-.03-.02-.04-.03 0-.01-.01-.03 0-.04.01-.04-.08.18-.08.13 0-.04.05-.08.03-.12 0 0 .05-.17.06-.18.04-.1.04-.04.08-.13 0-.02.02-.04.02-.05-.02-.07.04-.13.08-.19.02-.03.01 0 .02 0 0 .02.02.03 0 .07-.02.03-.02.06 0 .06s.04-.01.06-.05c0-.01 0-.02.02-.04 0 0 0-.01.02-.02v.02l-.03.09v.02s.02-.02.03-.02c.02-.02.04-.05.06-.07h.02c.03.04.03.04.06 0 0-.02.01-.04.02-.05 0-.01.02-.03.03-.02 0 0 .02.04.02.05 0 .09.01.19-.02.28-.02.06-.01.14-.05.19.04.06.02.12 0 .17-.06.13 0 0-.03.14-.01.08 0 .05-.01.13-.02.08.02.02.04.1.01.04 0-.03-.04 0-.02.02-.04.03-.02.08.05.1.03.2-.01.29 0 0-.02.01-.02.02 0 .16-.04-.02-.05.14 0 .02 0 .04.02.05.1.07.09.08.08.15 0 .04-.03.08-.06.13 0 0-.03.01-.04 0-.06-.02-.09-.01-.09.03s0 .07.02.11c.02.07.06.14.03.2-.03.07-.01.16-.04.23s-.03.09-.05.08 0 .02 0 .04c-.02.06 0 .13-.07.18-.02.02-.03.04-.04.06h.03s.01.04 0 .05l-.04.02v-.04s-.05.04-.09.06c-.01 0 0 .03.02.05.05.04 0 .04-.05.06.04.02.1.05.1.06-.02.05.04.13-.08.15-.04 0-.05.04-.06.06-.01.02 0 .06-.03.06-.25 0-.01.15-.08.2.1.06.04.07-.02.08l.05.05h.06c.01-.08.06-.15-.01-.24 0-.01.01-.02.02-.03.03.02.07.03.08.05.02.02 0 .04.01.07 0 .05-.03.09.03.15.04.04.02.08-.08.09h.01s.05.03.09.05h-.1c-.02-.01-.04-.03-.05-.04-.02.01-.02.04 0 .06.03.05.05.13.04.19h.06c.02.06-.02.1-.07.14-.04.03-.07.05-.02.09 0 0-.02.02-.05.03-.07.01-.16.02.02.08s.06 0 .06 0c.02.01.05.03.04.04 0 0-.04.01-.07.02 0 .06-.08.11.02.2 0 0-.07.02-.11.01-.09-.02-.19-.05-.28-.08-.01 0-.03 0-.03.01s0 .02.02.03l.17.06c.19.06.24.1.2.17-.02.04-.07.08-.12.11s0 .01.01.02c.04.04.02.1-.09.09s.01 0 .02 0c.03.02.06.04.11.07-.06 0-.1 0-.11-.02-.03-.02-.04-.04-.06-.06-.03.01-.02.04 0 .07.02.03.03.07.04.11v.06c-.01 0 .02.03.01.04 0 .01 0 .03-.01.04.03 0 .06.01.08.02 0 .1-.07.17-.14.21-.04.03-.06.05-.06.1l.07-.02.06-.03c0 .03.01.06.01.08 0 .02 0 .03-.02.06 0 0-.01.03-.04.03s-.07-.03-.1-.06-.04 0-.06 0c-.06 0-.19-.05-.17 0-.04-.02-.1-.06-.11-.02 0 .02.02.13.04.17.03.08-.02.13-.05.15-.04.02-.03.08-.02.15.02.18-.02.21-.16.12-.08-.06-.11-.05-.12.04v.05c-.02.13-.07.17-.18.18-.03 0-.07.02-.09.06-.07.15-.18.01-.26-.05v-.15c-.02-.04-.04.02-.06.12 0 .06-.03.1-.05.12 1.78 3.14 4.12 6.81 7.98 6.02 6.3-1.29 8.47-7.61 7.29-10.5-.16-.39-.32-.79-.49-1.19h-.03Zm-14.67-7.48s-.02.01-.02 0c-.01-.01-.03-.02-.03-.04 0-.03-.07 0-.01-.08l.05.02s.04.04.04.05c0 0-.02.03-.02.04Zm.49.57s-.05.01-.06 0c-.01 0-.02-.02-.02-.03 0-.01-.02-.02-.02-.03 0 0 0-.02.01-.04.02 0 .03-.02.04-.01.03 0 .06.02.08.04l-.03.06Zm-2.02-.11v-.05s.03-.03.04-.03c0 0 0 .02.01.03l-.06.05Zm2.62 8.16s.02.06-.05.05v-.05s.02-.05.03-.06h.03s.01 0 .01.01c0 .02 0 .04-.02.05Zm.26-.71s0 .02-.02.04c0 0-.02.01-.03.02l-.02-.02v-.08s.03-.01.05-.02c0 .01.02.03.02.04 0 .01 0 .02-.01.04Zm.37 1.95s-.03-.03-.03-.05c0-.01.02-.02.02-.03l.04.04-.04.03Zm5.77-10.41c-.06-.02-.11-.03-.16-.06-.02 0-.02-.06-.02-.08.03 0 .06-.01.09 0 .02 0 .04.03.07.04.02.02.05.03.06.05.01.01.01.03.02.05-.02 0-.04.01-.05 0Zm1.26.94-.09-.05c-.05-.04-.08-.06-.1-.09v-.04h.02c.03.02.06.04.08.07.02.04.11.03.07.11ZM8.38 44.24c.05 0 .1.01.16 0 .09-.03.04-.1-.02-.12-.03 0-.06-.03-.09-.05-.06-.03-.07.11-.11.12-.02.08.02.1.06.05Z"/><path class="cls-1" d="M10.49 44.92h-.03v.05s.05 0-.02.07c-.02.02-.06.02-.06.05.04-.03.1-.07.17-.12l-.06-.06ZM10.65 56.6l.03-.03v-.07c0 .02-.01.03-.02.05 0 .02-.01.05 0 .05ZM12.85 52.37s.04-.07.05-.1v-.01l.04-.19v-.02s-.02 0-.02.02c-.08.09-.06.1-.08.21 0 .03 0 .06.01.09ZM11.25 45.91c.09 0 .11.08.15.13h.03c0-.01.02-.03.02-.04v-.1c-.05-.04-.1-.08-.15-.11 0 0-.04.02-.04.04-.04.05-.04.08 0 .08Z"/><path class="cls-7" d="M12.28 52.7v.08s.01.02.02.02c0 0 .02 0 .03-.02 0-.01 0-.02.02-.04 0-.01.01-.02.01-.04s-.01-.03-.02-.04c-.02 0-.04.01-.05.02ZM12.08 53.4h-.03c0 .02-.01.03-.03.06v.05c.07 0 .03-.03.05-.05.01-.01.02-.03.02-.05 0 0 0-.01-.01-.01ZM12.67 54.66s.02.03.03.05l.04-.03-.04-.04s-.02.02-.02.03ZM18.44 44.19s-.04-.04-.07-.04h-.09c0 .03 0 .07.02.08.05.03.11.04.16.06h.05c0-.02 0-.04-.02-.05-.02-.02-.04-.03-.06-.05ZM19.65 45.13s-.05-.05-.08-.07h-.02c0 .01-.02.04 0 .04.02.03.05.05.1.09l.09.05c.04-.08-.05-.08-.07-.11ZM21.99 45.79l-.04-.08h-.09s.02.04.04.06c.02.02.06.02.08.03ZM11.38 45.33s-.01.03-.01.04c0 .01.01.02.02.03s0 .03.02.03h.06c.01-.02.04-.06.03-.06-.02-.02-.05-.03-.08-.04 0 0-.03 0-.04.01ZM10.91 44.73c-.06.08 0 .05.01.08 0 .02.02.03.03.04h.02c.01-.01.03-.04.02-.04 0-.02-.02-.03-.04-.05l-.05-.02ZM9.44 45.26v.05l.06-.05c0-.01 0-.03-.01-.03s-.03.02-.05.03Z"/><path class="cls-20" d="M25.96 56.11c-.36-.24-.85-.35-1.27-.44-.45-.1-.92-.16-1.39-.21-.46-.04-.93-.05-1.4-.05.04-.14.07-.29.07-.45 0-.48-.23-.9-.62-1.16-.18-.12-.49-.13-.67 0-1.01.76-2.08 1.44-3.19 2.04-.03.01-.05.03-.07.05-.04 0-.09.01-.13.02-.06.01-.11.04-.16.06l-6.64 1.24-.82.15c.19-.42.39-.84.59-1.25.08-.16.12-.33.07-.51a.706.706 0 0 0-.3-.4c-.3-.16-.74-.09-.9.24-.36.73-.69 1.47-1.03 2.21l-.99.18c-1 .19-2.01.4-2.88.96-.3.19-.42.59-.24.9.18.3.6.43.9.24.81-.51 1.75-.67 2.67-.84 1.13-.21 2.26-.42 3.4-.63l6.74-1.25a.51.51 0 0 0 .17-.07c1.26-.23 2.51-.39 3.8-.42.56-.01 1.12 0 1.68.05-.32 0-.64.03-.9.17-.44.23-.64.73-.4 1.18.19.35.51.39.84.51.05.02.12.05.22.1-.25 0-.5 0-.75-.01-.38 0-.76 0-.98.37-.17.28-.12.61-.02.9.03.09.07.18.1.27a5.44 5.44 0 0 1-.62-.39c-.3-.2-.47-.37-.74-.66-.24-.26-.56-.4-.91-.41-.3 0-.57.12-.86.17-.35.06-.78-.06-1.05-.31-.35-.33-.81-.17-1.02.13-1.59.88-3.18 1.77-4.78 2.63-1.53.82-3.14 1.59-4.88 1.83-.97.13-1.95.08-2.89-.2-.1-.03-.19-.04-.27-.03-.09-.12-.18-.24-.26-.37-.03-.05-.07-.11-.09-.17a.488.488 0 0 1-.03-.07c-.03-.13-.1-.25-.13-.38-.04-.13-.07-.27-.09-.41 0-.04-.01-.07-.02-.11v-.01c0-.06-.01-.12-.02-.19-.01-.14-.02-.28-.01-.42 0-.07 0-.14.01-.21v-.2c0-.02 0-.04.01-.06.33-2.44 1.13-4.83 1.97-7.13.12-.34-.14-.73-.46-.81-.37-.1-.69.13-.81.46-.86 2.37-1.63 4.79-1.98 7.29v.02c-.14.89-.04 1.82.31 2.66.17.41.45.77.72 1.13.24.33.65.57 1.06.35 3.76 1 7.36-1.17 10.54-2.92l2.73-1.51c.42.23.91.36 1.39.33.3-.02.58-.13.88-.17.03.03.08.07.09.08.08.09.15.18.25.26.4.36.88.67 1.36.93.56.3 1.34.61 1.88.09.36-.34.31-.86.16-1.28-.02-.05-.04-.11-.06-.16h.38c.46 0 .99.1 1.41-.14.41-.24.58-.73.43-1.19-.08-.26-.26-.46-.47-.63.12 0 .25-.02.37-.03.38-.05.75-.1 1.06-.32.6-.43.61-1.23-.02-1.64ZM3.04 62.46v-.02.02Zm0-.02c-.03-.06 0-.03 0 0Zm19.56-2.93-.02-.07c.02 0 .02.03.02.07Zm-.96 1.29s0 .03 0 0Zm0 .01c-.01.06 0 .03 0 0Zm.28-.35h.03-.03Zm1.85-1.26v.01s0-.01-.01-.02Zm.14-.41c.01-.05.1.02 0 0Zm1.34-1.58Z"/></g><g id="Confetti1"><path class="cls-12" d="M31.25 3.14c-.55-.34-1.1-.67-1.66-1a.614.614 0 0 0-.26-.15c-.39-.19-.75.06-.87.4-.03.06-.05.13-.06.21-.18 1.6-.91 3.04-1.77 4.37-.29.45.06.88.47.96.43.29.87.57 1.3.86.1.07.21.09.33.09.23.02.47-.05.64-.28 1.02-1.37 1.75-2.9 2.16-4.56.02-.09.02-.17.02-.24a.635.635 0 0 0-.3-.66Z"/><path d="M15.78 8.25s-.02-.05-.03-.08c0-.03 0-.07-.02-.1-.1-.37-.46-.53-.81-.46-.59.11-1.18.21-1.77.32-.41.06-.79.51-.55 1 .13.26-.04.65-.3.75-.38.15-.72-.28-.7-.62 0-.26-.11-.44-.28-.54a.621.621 0 0 0-.57-.33c-.34 0-.68.06-1 .16-.3-.04-.61.09-.72.46-.55 1.99 1.16 4.24 3.22 4.24 2.53-.01 4.14-2.44 3.53-4.79Z" style="fill:#c1dade"/><path class="cls-2" d="M48.02 30.36s-.01-.05-.02-.07a8.842 8.842 0 0 0-3.48-4 .29.29 0 0 0-.31-.01c-.15-.04-.28.02-.38.15-.31.42-.62.84-.94 1.26-.19.11-.27.43-.03.59 1.12.76 1.97 1.89 2.39 3.18.03.09.08.15.15.18.07.14.21.2.38.18.82-.11 1.59-.5 2.2-1.06.11-.1.12-.28.04-.4Z"/><path class="cls-3" d="M46.81 7.01c1 .19.82 1.44-.32 1.16-.35-.09-.59-.29-.96-.33-.54-.07-1.1.06-1.53.42a1.78 1.78 0 0 0-.62 1.62c.08.53 1.48 1.9.42 2.24-.55.17-1.38-.42-2.03-.35-.58.06-1.14.33-1.51.8-.74.95-.43 2.37.66 2.9.77.37 1.44-.77.67-1.14-.83-.4-.27-1.23.45-1.25.42-.01.78.27 1.18.35.61.13 1.28-.05 1.73-.47.42-.38.64-.95.62-1.52-.01-.3-.11-.62-.26-.89-.17-.3-1.17-1.14-.07-1.4.36-.08.96.4 1.35.45.3.04.59.02.88-.08.49-.16.95-.54 1.18-1.01.57-1.19-.27-2.52-1.5-2.76-.83-.16-1.19 1.12-.35 1.28Z"/><path class="cls-4" d="M64.11 13.96c-.92-2.04-3.44-2.85-5.37-1.68-2.05 1.25-2.42 3.93-1.09 5.84.13.19.31.27.49.29.17.05.36.04.51-.06.47-.32.93-.64 1.39-.96.16-.11.27-.28.31-.46.11-.23.11-.51-.1-.74-.3-.33-.29-.91.02-1.24.55-.57 1.11.33 1.37.74.1.15.23.24.36.28.2.1.44.11.63-.02l1.21-.82c.24-.16.36-.44.31-.71.04-.14.03-.3-.04-.46Z"/><path class="cls-3" d="M40.73 38.36c-1.03.33-1.74 1.38-1.26 2.45.22.49.68.88 1.2 1.01.49.13 2.35-.42 1.58.81-.33.52-.81.76-.92 1.43-.09.53.04 1.08.39 1.49.37.44.96.68 1.53.6.2-.03.42-.18.61-.19 1.8-.1.4 1.22-.04 1.44-.76.38-.09 1.53.67 1.14.96-.48 1.79-1.47 1.51-2.62-.12-.5-.47-.96-.91-1.22-.6-.34-.89-.09-1.48-.09-.22.15-.39.06-.52-.28-.47-.22-.48-.45-.04-.68.2-.19.43-.35.58-.59.32-.49.37-1.12.15-1.65-.19-.44-.54-.77-.99-.94a1.69 1.69 0 0 0-.63-.13c-.18.02-.35.05-.53.07-.5.25-.69-.02-.56-.8.81-.26.46-1.54-.35-1.28Z"/></g><path class="cls-11" d="M31 131.26c-2.08.01-4.43-.02-6.72-.09 2.67 8.81 13.76 13.79 22.46 15.2.12-2.01.23-4.02.33-6.03-5.7-.98-13.04-3.99-16.07-9.08ZM10.24 131.19c.02-.52-.07-.97-.25-1.36-1.82-.32-3.59-.64-4.51-.81v-.12c0-.03-.02-.06-.02-.09-.63.42-1.11 1.09-1.25 2 .04 1.39.09 2.78.15 4.17.96 7.4 5.5 13.92 11.45 18.44 7.88 5.97 17.8 8.18 27.27 10.21.99.21 1.82-.03 2.46-.51.14-1.59.27-3.18.39-4.77a2.91 2.91 0 0 0-1.24-.57c-13.86-2.97-35.19-8.46-34.45-26.6ZM30.41 172.29c-2.94-1.98-6.41-2.61-9.73-3.69-5.91-1.93-11.98-5.63-14.31-11.69-.18-.47-.44-.85-.75-1.16.04.57.09 1.15.13 1.72.26 3.25.55 6.5.85 9.74 0 .09.02.17.03.26 2.2 2.05 4.78 3.73 7.6 5.05 3.32 1.55 6.82 2.28 10.24 3.53 2.73 1 4.81 2.94 6.67 5.09 1.19-.08 2.39-.18 3.57-.33 1.13-.14 2.26-.29 3.37-.52-.11-.25-.26-.51-.45-.75-2.14-2.68-4.34-5.32-7.22-7.25Z"/><path class="cls-7" d="M25.92 152.29c-.04-.13-.66-1.44-1.85-3.1s-.05-.09-.05-.14c-.06-1.67-.23-2.78-.23-2.78a.446.446 0 0 0-.37-.37l-1.32-.23h-.04c-.15 0-.29.11-.3.26l-.02.46s0 .02-.02.02h-.01c-.75-.76-1.61-1.5-2.57-2.17-.18-.14-.4-.22-.64-.23-.24-.01-.47.05-.67.16-4.73 2.58-7.5 7.03-7.61 7.28-.03.06-.05.12-.05.19-.01.21.12.4.32.46l1.3.32c.17.06.3.22.31.4 0 .23-.04 5.44.21 6.81.04.2.21.35.42.36h.01c.77.02 1.47.05 2.24.08h.06c.08 0 .15-.06.15-.14 0-.46-.02-1.5-.01-2.6v-.09c0-.09-.05-.18-.12-.23-.38-.26-.63-.7-.63-1.19.03-1.83.11-3.94.3-5.58A.27.27 0 0 1 15 150c.15 0 .26.13.26.28v.02c-.12 1.09-.2 2.39-.25 3.68 0 .17.13.32.3.33.17 0 .32-.13.33-.3.05-1.29.12-2.6.25-3.7a.27.27 0 0 1 .27-.24c.15 0 .26.13.26.28v.02c-.12 1.09-.2 2.38-.24 3.66 0 .17.13.32.3.32.17 0 .32-.13.32-.3.05-1.29.12-2.59.25-3.68a.27.27 0 0 1 .27-.24c.15 0 .26.13.26.28v.02c-.18 1.6-.26 3.63-.29 5.41v.06c-.03.49-.3.9-.68 1.14-.07.04-.12.11-.13.2 0 0-.05.27 0 1.6.02.58.05.98.06 1.17 0 .07.06.13.13.13h.12c.25.01.52.03.79.04h.1l.99.06.75.05c.07 0 .13-.05.15-.11.26-1.58.35-2.47.35-2.47 0-.08-.05-.14-.13-.16l-.9-.17a.323.323 0 0 1-.25-.24c-.02-.07 0-.14 0-.14.66-5.27 2.5-6.96 2.5-6.96.06-.05.09-.07.09-.07.05-.03.11-.05.17-.04.12 0 .22.09.25.19 0 0 .01.04.02.13.06 1.67-.17 4.5-.38 6.7-.18 1.87-.36 3.33-.36 3.33 0 .06.04.11.1.12.49.04.98.07 1.5.11h.01c.21.01.4-.12.46-.31.39-1.33.92-6.52.94-6.75a.46.46 0 0 1 .35-.37l1.33-.18c.2-.04.36-.21.37-.42 0-.07 0-.13-.03-.2h-.02Z"/><path d="M51.28 122.78c0-.11-.04-.22-.09-.32-.06-.21-.15-.42-.28-.6-.28-.39-.66-.68-1.07-.93-.18-1.36-.52-2.69-1.02-3.96-4.99 4.63-13.65 5.53-20.56 5.58-7.02.04-19.48-1.05-23.37-3.87-.64-.47-1.15-1.11-1.54-1.88-.07.2-.11.4-.11.6v.02c-.24 1.2-.45 2.4-.62 3.61-.41.24-.84.48-1.18.82-.28.29-.51.63-.67 1-.16.38-.22.76-.18 1.13-.05.86-.05 1.72.01 2.58-.04.08-.06.18-.05.27.22 1.75 2.09 2.45 3.55 2.93 1.73.58 3.52.98 5.31 1.3 3.81.68 7.66 1.16 11.52 1.43 3.82.26 7.65.3 11.48.09 1.91-.11 3.81-.27 5.71-.5 1.79-.22 3.58-.45 5.34-.85 1.56-.35 3.07-.91 4.52-1.58 1.26-.58 2.6-1.36 3.12-2.72.12-.31.17-.65.17-.98 0-.07 0-.13-.02-.19.1-.99.13-1.99.05-2.99Z" style="fill:#e87003"/></g><g id="Outline"><path class="cls-7" d="M42.94 171.06c-.21-.7-7.74 1.41-17.21 1.19-9.47-.11-16.93-2.48-17.16-1.79-.11.29 1.64 1.28 4.71 2.26.77.24 1.61.49 2.54.7.92.24 1.91.42 2.96.61 2.1.34 4.44.59 6.91.64 2.46.03 4.81-.13 6.93-.4 1.06-.16 2.06-.3 2.98-.51.93-.18 1.78-.4 2.56-.61 3.1-.87 4.88-1.8 4.79-2.1Z"/><path d="M48.26 122.41c-.08-.19-2.52.81-6.6 1.9-.51.13-1.05.27-1.6.42-.56.14-1.15.25-1.75.38-1.21.29-2.52.48-3.89.71-2.76.39-5.81.66-9.02.69-3.21 0-6.27-.24-9.03-.61-1.37-.22-2.69-.4-3.9-.67-.61-.13-1.2-.23-1.76-.37l-1.61-.4c-4.09-1.06-6.54-2.03-6.61-1.84-.03.08.55.39 1.64.89.27.12.58.26.91.41.34.14.71.27 1.11.42.8.29 1.7.65 2.73.94.51.15 1.05.31 1.61.48.56.16 1.16.29 1.77.44 1.22.32 2.55.54 3.95.79 2.8.43 5.92.71 9.2.71 3.28-.03 6.39-.35 9.19-.8 1.39-.27 2.72-.5 3.94-.83.61-.16 1.21-.29 1.77-.46.56-.17 1.09-.34 1.61-.5 1.03-.3 1.93-.67 2.72-.97.4-.15.77-.29 1.1-.43.33-.15.63-.29.9-.42 1.08-.51 1.66-.83 1.63-.91Z" style="fill:#c64528"/><path d="M16.7 65.83s-.09.14-.13.44c-.07.3-.06.74-.05 1.3.05 1.12.24 2.72.59 4.67.68 3.91 1.92 9.24 3.47 15.07.2.73.39 1.45.58 2.16l.12.44s.03-.06-.07.18c-.15.33-.3.65-.45.98l-1.69 3.73c-1.07 2.38-2.02 4.54-2.8 6.35-1.56 3.63-2.45 5.91-2.3 5.98.15.07 1.32-2.08 3.07-5.62.88-1.77 1.91-3.89 3.03-6.24.56-1.18 1.14-2.42 1.75-3.71.15-.32.3-.65.46-.97l.15-.32.11-.25c-.02-.08-.04-.17-.07-.25l-.17-.62c-.19-.71-.38-1.43-.58-2.15-1.55-5.82-2.91-11.1-3.8-14.93-.45-1.92-.77-3.47-.96-4.55-.09-.54-.17-.96-.18-1.24-.03-.28-.07-.44-.11-.45Z" style="fill:#afcbcd"/><path class="cls-7" d="M88.8 69.74c-.15.08-.1.47-.48.83-.18.18-.48.36-.77.38-.31.03-.74-.05-1.25-.26-.51-.2-1.12-.56-1.99-.81-.44-.12-.96-.21-1.55-.13-.61.08-1.17.37-1.59.67-.43.3-.77.62-1.08.87-.3.25-.59.45-.74.48-.16.03-.19.04-.41-.07-.22-.11-.55-.39-.99-.73-.43-.33-1.08-.76-1.92-.82-.83-.06-1.54.24-2.05.58-.52.34-.94.78-1.24 1.18-.31.4-.54.76-.76 1.07-.44.62-.79.94-1.31 1.17-.5.22-1.04.28-1.51.21-.95-.13-1.66-.75-2.05-1.23-.41-.49-.58-.86-.76-.83-.15.02-.31.47-.08 1.26.12.39.34.86.74 1.31.39.45.97.9 1.74 1.15.76.25 1.67.3 2.58.03.46-.13.92-.35 1.35-.66.43-.31.78-.68 1.07-1.04.3-.36.55-.7.8-.99.24-.28.47-.49.72-.64.25-.15.46-.19.58-.18.11 0 .32.1.65.35.34.25.72.62 1.35.94.31.16.69.3 1.11.33.4.03.83-.02 1.18-.16.72-.26 1.14-.67 1.5-.99.35-.33.63-.61.88-.81.25-.2.43-.31.62-.36.2-.05.46-.06.75-.01.58.08 1.24.34 1.95.5.71.15 1.47.18 2.13-.09.68-.29 1.03-.77 1.2-1.21.17-.44.11-.85-.01-1.06-.12-.22-.26-.26-.33-.23ZM24.44 68.55c-.33.08.22 3.65 1.22 7.98.38 1.63.76 3.13 1.11 4.37l.98-.21c-.5-2.08-.94-3.43-1.15-3.39-.21.04-.13 1.46.16 3.58l.98-.21c-.23-1.27-.54-2.79-.91-4.41-1-4.33-2.08-7.79-2.4-7.71ZM25.17 51.83c.15-.02.19-.84-.14-2.11-.16-.63-.44-1.37-.82-2.14-.4-.77-.91-1.58-1.55-2.36a13.22 13.22 0 0 0-2.04-1.95c-.7-.52-1.36-.93-1.96-1.2-1.19-.55-2-.66-2.05-.52-.07.17.62.56 1.62 1.26 1.01.7 2.31 1.77 3.49 3.18 1.18 1.42 1.99 2.9 2.5 4.01.51 1.11.77 1.85.95 1.82ZM11.6 50.91c-.31-.13-.86.45-1.23 1.31s-.42 1.66-.12 1.79c.31.13.86-.45 1.23-1.31.37-.85.42-1.66.12-1.79ZM164.62 99.48c-.09.04.18.61.35 1.69.18 1.07.16 2.67-.36 4.56-.48 1.9-1.55 4.01-2.53 6.52-.48 1.26-.92 2.65-1.09 4.16-.16 1.52-.02 3.09.29 4.63.64 3.09 1.78 5.79 2.36 8.32.62 2.52.68 4.87.09 6.71-.56 1.85-1.57 3.11-2.4 3.8-.83.69-1.43.91-1.39 1.01.01.06.68 0 1.67-.63.99-.61 2.22-1.92 2.93-3.9.76-1.98.78-4.59.18-7.22-.55-2.66-1.66-5.4-2.26-8.32-.3-1.46-.43-2.9-.3-4.27.13-1.37.52-2.67.95-3.89.89-2.45 1.92-4.68 2.32-6.71.44-2.02.33-3.75-.01-4.86-.33-1.12-.76-1.62-.81-1.59Z"/><path class="cls-7" d="M181.72 101.87c-.1.02.04.68-.19 1.82-.22 1.13-.95 2.69-2.38 4.2-.7.75-1.6 1.49-2.57 2.27-.98.79-2.06 1.62-3.1 2.66a13.114 13.114 0 0 0-2.62 3.8c-.67 1.46-1.14 3.05-1.46 4.68-.64 3.27-.76 6.41-1.2 9.16-.45 2.75-1.21 5.16-2.22 6.98-1 1.83-2.21 3.04-3.16 3.72-.24.16-.46.31-.65.44-.19.12-.36.21-.5.29-.27.16-.41.26-.39.3.01.04.18.01.49-.08.15-.05.35-.1.57-.19.21-.1.46-.22.74-.36 1.08-.58 2.49-1.79 3.65-3.68 1.17-1.88 2.06-4.38 2.58-7.22.51-2.85.67-5.96 1.29-9.11.6-3.14 1.77-6 3.69-7.95.94-.99 1.98-1.84 2.94-2.66.96-.83 1.85-1.63 2.57-2.48 1.44-1.69 2.12-3.46 2.2-4.7.1-1.26-.22-1.91-.28-1.89Z"/><path class="cls-7" d="M187.32 125.48s-.22-.52-1.04-1.04c-.81-.5-2.23-.96-3.97-.71-.86.11-1.8.41-2.68.92-.89.51-1.74 1.2-2.51 2.03-1.56 1.65-2.73 3.83-3.92 6-.6 1.09-1.2 2.13-1.86 3.05-.66.93-1.39 1.74-2.17 2.44-1.55 1.41-3.23 2.34-4.7 2.95-2.98 1.2-5.06 1.16-5.04 1.37 0 .07.51.18 1.45.15.93-.03 2.3-.18 3.9-.72 1.59-.54 3.43-1.45 5.14-2.92.85-.73 1.67-1.6 2.39-2.59.72-.98 1.35-2.06 1.96-3.16 1.2-2.21 2.29-4.28 3.69-5.84 1.37-1.57 2.99-2.57 4.51-2.85 1.52-.33 2.81-.05 3.61.28.81.35 1.19.69 1.26.62ZM178.28 139.91c-.09-.16-.56-.04-1.27.07-.72.11-1.7.18-2.76.02a9.16 9.16 0 0 1-2.63-.83c-.65-.31-1.07-.56-1.2-.44-.11.1.1.59.72 1.15.61.56 1.67 1.13 2.93 1.32 1.27.19 2.44-.05 3.19-.4.76-.35 1.1-.76 1.02-.89Z"/></g></svg>