<svg xmlns="http://www.w3.org/2000/svg" viewBox="0 0 200 200"><defs><style>.cls-1{fill:none}.cls-3{fill:#f6c243}.cls-5{fill:#fff}.cls-6{fill:#ef470d}.cls-7{fill:#ffd066}.cls-9{fill:#ff8000}.cls-10{fill:#a0b4b5}.cls-11{fill:#c1dade}.cls-12{fill:#afcbcd}.cls-13{fill:#78577a}</style></defs><path d="M183.03 74.54C172.45 20.01 120.36 5.2 90.29 55.22 57.52 8.28 17.34 70.77 8.44 104.21c-31.8 39.65 121.75 49.2 144.36 42.47 50.44 7.31 43.17-36.9 30.24-72.13Z" style="fill:#efedea" id="BG_Strong"/><g id="Illustrations"><path class="cls-3" d="M87.44 16.99s-.03-.01-.04-.02a.91.91 0 0 0-.29-.36c-2.58-1.97-5.94-2.91-9.17-2.62-3.23.29-6.04 1.7-8.22 3.94-.96.99-1.75 2.13-2.36 3.36v-.02c-.19.08-.41.45-.1.24-.03.07-.07.15-.1.22-.06-.09-.22-.15-.31-.17.04.19.12.23.26.27-.03.06-.06.11-.08.17-.08-.08-.3-.07-.4.05.07.03.14.1.21.14 0 0-.02 0-.03.01-.05.03-.11.05-.16.08-.09-.05-.2 0-.15.07-.08.04-.15.07-.23.11h-.02c-4.9 2.35-9.58 5.19-13.92 8.46-.97.73-1.93 1.49-2.87 2.27.33-1.76.61-3.52.83-5.3.27-.17.54-.35.81-.52.05.02.1.02.12 0 0-.02-.01-.04-.02-.05.02-.01.04-.03.07-.04 0 .01.01.02.03.03.07-.02.1-.07.13-.13.08-.05.15-.11.23-.16.09.32.03-.14.29.01.19-.11.16-.21.06-.26.05-.04.11-.08.16-.11.07.09.3.03.36-.14-.03-.03-.06-.05-.08-.05 2.19-1.59 4.19-3.43 5.8-5.62 2.19-2.97 3.5-6.59 3.37-10.29-.07-1.99-.56-3.96-1.52-5.71.04-.12.05-.25.01-.38-.09-.34-.48-.58-.83-.47-3.4 1.12-6.36 3.29-8.51 6.14-2.31 3.06-3.48 6.89-3.38 10.71.06 2.27.56 4.5 1.48 6.58.03.06.07.12.12.16-.3 2.35-.69 4.68-1.18 7-2.8 2.44-5.43 5.06-7.87 7.86a83.04 83.04 0 0 0-9.66 13.66c-.35.63-.7 1.26-1.04 1.9-.45-2.12-.79-4.25-1.02-6.4.06-.05.11-.1.16-.17.04-.06.07-.12.11-.18.05-.05.1-.11.12-.14v-.05c.05-.08.09-.15.14-.23.05.02.1.02.13-.04 0-.02-.03-.05-.06-.08 2.44-3.96 4.46-8.23 5.59-12.75 1.2-4.8 1.35-9.51.22-14.16-.62-2.56-1.65-5.03-3.1-7.24-.18-.28-.53-.4-.83-.28a.65.65 0 0 0-.36.18c-3.54 3.3-6.14 7.58-7.47 12.23-1.38 4.81-1.32 9.97.09 14.77.8 2.72 2.03 5.31 3.65 7.64.06.09.14.16.22.21.09.95.21 1.9.34 2.84.27 1.87.62 3.72 1.05 5.56.01.05.03.1.05.14a85.837 85.837 0 0 0-2.99 6.72c-.14.09-.25.23-.31.4a80.845 80.845 0 0 0-4.1 16.2c-.02.11-.03.23-.05.34a39.94 39.94 0 0 1-1.36-3.85c.01-.07.02-.14 0-.23.19-.08.35-.23.39-.43.05-.32.1-.63.14-.95.03 0 .07-.02.11-.1l-.08-.09.06-.38c.03 0 .06 0 .05-.04h-.05l.03-.22c.02.04.03.07.06.11.13-.19.15-.39.02-.58.32-2.25.57-4.52.74-6.79.23-3.02.31-5.76 0-8.63-.28-2.64-.92-5.19-1.99-7.62-.95-2.16-2.23-4.17-3.75-5.97-1.72-2.04-3.79-3.8-6.08-5.17-.08-.05-.16-.07-.23-.09-.33-.3-.97-.28-1.13.28C6.1 48.59 5.18 54.73 6 60.76c.68 5.04 2.63 9.9 5.93 13.8 1.69 2 3.75 3.7 6.07 4.91a41.89 41.89 0 0 0 2.49 6.59c-.5 4.58-.63 9.22-.34 13.83a80.14 80.14 0 0 0 4.36 21.64 30.999 30.999 0 0 1-4.75-4.83c.01-.01.02-.02.03-.04v.02c.21.07.19-.04.09-.15.05-.09.08-.19.07-.3-.33-5.39-.76-10.9-2.62-16.01-1.86-5.12-5.1-9.19-8.63-13.12-2.15-2.39-4.38-4.72-6.68-6.97-.04-.04-.07-.07-.12-.1-.03-.02-.06-.03-.09-.05 0 0-.02 0-.03-.01-.02 0-.05-.02-.07-.02-.02 0-.05-.01-.07-.02-.03 0-.06-.01-.1-.01-.31 0-.54.21-.63.48-.03.08-.05.17-.04.25-.33 6.28-.6 12.71 1.03 18.86 1.43 5.38 4.03 10.67 8.18 14.48 2.22 2.04 5.09 3.77 8.18 3.73-.02.15-.01.19.12.22.07-.09 0-.15-.09-.22.18 0 .36-.01.55-.03 0 .06.01.12.07.16.04.04.07.04.09.03a33 33 0 0 0 6.34 5.98s.02 0 .02.01c.86 2.23 1.81 4.43 2.85 6.58a80.41 80.41 0 0 0 8.11 13.24c.39.52.8 1.04 1.2 1.56.23.28.71.23.95 0 .28-.28.23-.66 0-.95a80.081 80.081 0 0 1-13.29-24.96c.13-.09.24-.21.27-.37l1.27-7.72s.03-.02.05-.02c.17.08.38.09.59-.02 3.85-2.08 7.05-5.21 9.43-8.85 2.61-3.98 4.19-8.58 4.89-13.27.42-2.81.56-5.65.45-8.5a.69.69 0 0 0-.28-.54.442.442 0 0 0-.06-.16c-.2-.34-.59-.39-.92-.24-4.29 1.97-8.17 4.93-11.08 8.66-3.1 3.98-5.01 8.78-5.33 13.83-.14 2.22.05 4.48.57 6.65 0 .14.02.26.06.26l.03.13c-.21.07-.43.24-.18.2.14.1.19.09.24.04.02.08.05.15.07.23-.12.06-.23.2-.22.46.11.15.23-.37.32-.06l.01-.01c.04.14.08.28.13.42l-1.06 6.45a78.905 78.905 0 0 1-2.81-15.08c-.43-5-.38-10.04.12-15.03.26-.21.3-.56.16-.86s-.03-.08-.05-.11l.06-.5c.46-3.81 1.19-7.58 2.19-11.27.03-.04.05-.08.07-.13 2.64-.61 5.34-1.26 7.71-2.59.09.1.2.19.34.24 4.28 1.57 9.16 1.49 13.41-.17s7.42-4.54 9.57-8.31c1.17-2.06 1.97-4.34 2.3-6.68.05-.34-.08-.69-.43-.81a.755.755 0 0 0-.54-.28c-4.18-.38-8.42.36-12.25 2.07a24.37 24.37 0 0 0-9.06 7.03 24.414 24.414 0 0 0-2.7 4.2h-.04c-.18 0-.15.13-.06.21-.02.05-.04.09-.07.14-.03 0-.06.02-.08.06 0 .01.02.02.04.03-.1.21-.21.42-.31.64-.02 0-.04.02-.06.03-2.22 1.43-4.78 2.12-7.32 2.71 1.5-4.8 3.44-9.45 5.81-13.89 2-3.75 4.28-7.34 6.84-10.73.14.07.31.09.48.06 2.76-.49 5.47-1.19 8.12-2.1 3.7 2.11 8.12 2.81 12.3 1.99 3.89-.76 7.47-2.95 10-5.99 1.42-1.71 2.52-3.65 3.22-5.76.11-.34-.13-.73-.47-.83a.782.782 0 0 0-.26-.02 22.203 22.203 0 0 0-11.91-.29c-3.53.89-6.81 2.71-9.48 5.18-1.04.96-1.98 2.03-2.82 3.17-.04-.02-.07.02-.04.05-.09.13-.17.26-.26.39-.06-.03-.13-.04-.17.04.02.04.05.06.09.08-.01.02-.03.04-.04.06-.05.02-.1.09-.1.15-.1.16-.21.31-.31.46-.02 0-.04 0-.06.01-2.35.8-4.74 1.44-7.17 1.92a80.568 80.568 0 0 1 13.16-13.2c4.35-3.45 9.07-6.44 14.04-8.93.45-.23.91-.45 1.37-.67.06.1.14.19.24.25 1.4.73 2.97.98 4.53 1 1.57.02 3.09-.12 4.62-.32 3.02-.4 5.99-1.26 8.43-3.17 1.19-.93 2.2-2.1 2.88-3.46.16-.32.09-.73-.24-.92Z"/><path class="cls-3" d="M45.74 151.95c-2.14-.59-4.27-1.24-6.38-1.93-.06-.3-.34-.6-.66-.56-.23.03-.46.05-.69.07-.08-.2-.18-.4-.26-.6.17.01.03-.17 0-.24-.05-.04-.08-.04-.11-.03-.03-.08-.07-.15-.1-.23.06-.02.1-.06.06-.12-.02 0-.07-.01-.12-.02a42.92 42.92 0 0 0-8.45-12.38c-3.81-3.91-8.36-7.13-13.34-9.38a41.804 41.804 0 0 0-8.8-2.89.83.83 0 0 0-.47.05c-.39.02-.77.34-.63.83.88 2.98 2.12 5.85 3.67 8.54 1.55 2.69 3.41 5.2 5.52 7.47 2.12 2.27 4.5 4.3 7.09 6.01 2.26 1.5 4.9 2.46 7.5 3.19 2.62.73 5.41 1.28 8.14 1.15.02 0 .04.02.06.03 2.52.85 5.05 1.63 7.61 2.33.83.23 1.19-1.07.36-1.3Z"/><path class="cls-3" d="M36.91 147.05c.04.22.21.39.42.45-.03-.24-.16-.42-.42-.45ZM37.5 147.61c-.04.12.32.14.44.18.02-.26-.27-.18-.44-.18ZM38.14 148.28c-.03-.13-.13-.49-.31-.26.1.06.21.35.31.26ZM37.52 148.1c.12.06.2.03.15-.11-.28-.05-.31-.06-.15.11ZM37.37 147.61s-.06.03-.03.06c.03-.02.06-.03.03-.06ZM24.63 110.7c.16-.2-.29-.23-.28 0-.04.17.22.03.28 0ZM24.7 110.31c.36-.08.38-1.18.13-.55.23.19-.26.32-.13.55ZM24.48 109.8c-.15.25.07.31.22.16-.08-.08-.09-.43-.22-.16Z"/><path class="cls-3" d="M25 110.53s-.05-.3-.05-.33c-.17.03-.1.45.05.33ZM24.61 110.39c.04-.18-.08-.34-.19-.21-.07.1.14.31.19.21ZM25.17 111.07c.13-.04.37-.22.14-.33-.05.1-.29.26-.14.33ZM24.04 110.39c.1 0 .09-.1.09-.21-.13.08-.14.1-.09.21ZM24.7 108.77v-.11c-.08.04-.11.23 0 .11ZM24.63 109.46v-.12c-.06.03-.12.16 0 .12ZM25.33 110.59v-.25c-.14.07-.24.34 0 .25ZM24.66 109.18s.03.06.06.02c-.02-.03-.03-.06-.06-.02ZM24.83 108.77s.03.06.06.02c-.02-.03-.03-.06-.06-.02ZM20.29 77.55c-.16.07.14.21.15.34.33.18.06-.31-.15-.34ZM20.25 78.1c.03.12-.05.45.15.38.08-.14.14-.47-.15-.38ZM31.96 68.97s-.06.08 0 .12c.23.36.27-.3 0-.12ZM32.25 69.01c.13-.04.16-.21.04-.25-.09 0-.12.24-.04.25ZM32.01 68.52c.04.08.1.05.16 0-.1-.08-.11-.09-.16 0ZM29.61 49.66c-.16.13-.22.35-.14.53.18-.14.27-.31.14-.53ZM29.48 50.37c-.13.02.07.3.11.4.24-.12 0-.29-.11-.4ZM29.34 51.16c.11-.11.25-.36-.03-.34 0 .11-.15.37.03.34ZM29.25 50.69l-.13-.21c-.11.14-.04.39.13.21ZM29.33 50.29s.06.03.07-.01c-.03-.01-.06-.03-.07.01ZM51.12 27.63c.1.17.09-.06.2.02.21-.22-.37-.22-.2-.02ZM52.57 26.77c-.15.05-.27.19-.24.35.16-.06.33-.15.24-.35ZM52.32 27.55c.25-.04.07-.19-.02-.31-.12-.03-.01.23.02.31ZM51.67 27.42s-.15-.2-.15-.22c-.16.04.03.32.15.22ZM51.94 27.76c.16-.05.4-.18.11-.24-.02.09-.25.22-.11.24ZM51.95 27.24c-.16.09-.1.26.07.17l-.07-.17ZM52.25 27.16s-.05-.04-.07 0c.02.01.05.04.07 0ZM45.69 43.61c-.14.09.09.09.02.19.23.17.15-.32-.02-.19ZM46.2 43.6c.02-.08.18-.26.01-.26-.2-.03-.12.21-.01.26ZM45.94 43.68c.11-.04.16-.2.05-.25-.08 0-.12.23-.05.25ZM45.76 43.19c.03.08.08.06.14 0-.08-.09-.09-.08-.14 0ZM66.17 22.05c.16 0-.03-.27-.13-.16-.09.07.09.13.13.16ZM66.37 21.91c.2.18.69-.36.3-.19.03.22-.25.01-.3.19ZM66.52 21.75c0-.07.14-.27-.04-.2-.18.04-.09.19.04.2Z"/><path class="cls-3" d="M66.42 22.18s.11-.17.12-.19c-.09-.08-.24.15-.12.19ZM66.29 21.89c.1-.06.11-.2 0-.21-.08.02-.07.21 0 .21ZM66.16 21.53c-.09-.04-.11-.04-.13.04.05.06.08.01.13-.04ZM66.96 21.16s.07.01.05 0c.09-.07-.01-.07-.05 0ZM66.75 21.41c-.06-.03-.12 0-.06.05l.06-.05ZM66.83 21.35s-.01.04.02.05c0-.02.01-.04-.02-.05ZM67.08 21.24s-.01.04.02.05c0-.02.01-.04-.02-.05ZM197.3 80.79zM198.45 81.29c0-.07-.01-.14-.04-.21a.675.675 0 0 0-.64-.5h-.14a.64.64 0 0 0-.33.18c-2.05 2-4.04 4.06-5.96 6.17-1.78 1.96-3.53 3.96-5.09 6.1-1.56 2.14-2.9 4.43-3.9 6.89-1.01 2.48-1.64 5.1-2.07 7.75-.49 3.05-.73 6.12-.92 9.2a.6.6 0 0 0 .2.47c-1.4 1.78-3 3.4-4.75 4.83a80.567 80.567 0 0 0 4.21-19.58c.46-5.29.4-10.62-.19-15.89a41.89 41.89 0 0 0 2.49-6.59c4.25-2.24 7.53-6.04 9.56-10.35 2.4-5.08 3.07-10.77 2.59-16.33-.29-3.4-.98-6.76-1.91-10.04-.16-.57-.81-.58-1.14-.27-.07.01-.15.04-.22.08-4.07 2.43-7.4 6.08-9.47 10.35-1.11 2.3-1.85 4.75-2.21 7.28-.41 2.88-.39 5.79-.21 8.69.2 3.13.56 6.26 1.04 9.36-.02.03-.04.06-.06.11.28.24-.32.28-.17.55.14 0 .23-.11.3-.24.02.1.03.2.05.31-.02-.08-.05-.14-.1-.12-.12.09-.07.42.11.35v-.2c.04.2.2.35.38.42v.08l-.01-.01c-.08.1-.38.22-.2.32.05 0 .12-.02.17-.05-.38 1.27-.82 2.51-1.33 3.73a81.35 81.35 0 0 0-3.45-14.6c-.22-.66-.45-1.31-.69-1.96a.719.719 0 0 0-.31-.39c-.9-2.28-1.89-4.53-2.99-6.72.02-.04.04-.09.05-.14.65-2.77 1.12-5.58 1.4-8.42a.7.7 0 0 0 .21-.21c2.89-4.15 4.53-9.14 4.73-14.19.2-4.9-1.04-9.81-3.45-14.07a26.653 26.653 0 0 0-5.01-6.37.65.65 0 0 0-.36-.18c-.31-.12-.65 0-.83.28-2.59 3.95-3.8 8.69-3.85 13.39-.06 4.89 1.17 9.7 3.1 14.16.97 2.24 2.12 4.39 3.4 6.47 0 .02-.01.03-.02.05-.09.21.05.27.18.22.12.19.23.39.35.58.05.08.11.13.17.18a64.662 64.662 0 0 1-1.03 6.4c-.01-.03-.03-.05-.04-.08a82.61 82.61 0 0 0-9.38-13.97c-2.79-3.37-5.86-6.5-9.15-9.37-.49-2.31-.88-4.65-1.17-6.99.02-.02.03-.05.05-.07.06-.02.12-.08.14-.15-.01 0-.03 0-.04-.01.02-.05.04-.11.06-.16.26 0-.05.3.17.37.17-.14 0-.42-.12-.51.09-.21.17-.42.24-.63.2-.05.29-.16.09-.24l.09-.27s.01-.01.01-.02c1.08-3.29 1.19-6.87.25-10.21-.98-3.49-3.11-6.61-5.97-8.84a17.457 17.457 0 0 0-5.29-2.84c-.34-.11-.73.13-.83.47-.04.13-.03.26.01.38-1.75 3.2-1.9 7.06-.89 10.53 1.03 3.53 3.27 6.58 5.98 9.02 1.46 1.31 3.05 2.47 4.72 3.51.23 1.77.5 3.54.83 5.29-.41-.34-.81-.67-1.23-1a82.938 82.938 0 0 0-14.23-9.08l-.99-.48s-.02-.01-.03-.02c-.34-.16-.68-.33-1.02-.49-.03-.07-.06-.13-.09-.19.23.05.57-.04.1-.13.68-.54.06-.6-.15.04-.04-.09-.08-.18-.12-.26 0-.01 0-.02-.02-.03-.09-.2-.19-.39-.29-.58.02.01.04.02.07.01-.04-.07-.04-.07-.11-.07a13.425 13.425 0 0 0-5.3-5.37c-2.84-1.56-6.17-1.97-9.32-1.24-1.78.41-3.48 1.2-4.92 2.31-.13.1-.22.22-.28.36-.01 0-.03.01-.04.02-.33.19-.4.59-.24.92 1.24 2.49 3.55 4.26 6.08 5.32 1.45.61 2.99.98 4.54 1.22 1.59.24 3.21.39 4.82.41 1.73.02 3.47-.19 5.02-1 .1-.05.18-.14.23-.23 4.89 2.34 9.56 5.17 13.9 8.43 4.47 3.36 8.49 7.13 12.12 11.29.88 1 1.73 2.03 2.55 3.08a54.35 54.35 0 0 1-6.52-1.71c0-.02-.02-.04-.04-.04-.01 0-.02.01-.03.02l-.11-.03.03-.03c-.07-.08-.2-.09-.32-.07l-.18-.06c-.02 0-.04 0-.06-.01-.02-.03-.04-.06-.06-.1.06-.06.2.06.28-.03.07-.18-.4 0-.21-.25-.02-.06-.12-.1-.2-.06h-.1a22.333 22.333 0 0 0-7.09-6.76 21.902 21.902 0 0 0-11.01-3.07c-2.25-.02-4.5.3-6.65.96a.888.888 0 0 0-.28.01c-.34.09-.58.48-.47.83 1.24 3.72 3.73 6.95 6.97 9.15 3.44 2.33 7.69 3.32 11.81 2.81 2.37-.29 4.65-1.02 6.72-2.2 2.65.91 5.37 1.61 8.13 2.1.16.03.33 0 .47-.06 2.15 2.85 4.11 5.85 5.87 8.96 2.71 4.79 4.93 9.86 6.6 15.1.06.19.12.37.18.56-2.55-.59-5.1-1.28-7.32-2.71l-.06-.03c-.07-.17-.16-.33-.24-.5.07 0 .12-.05.07-.17l-.14.04c-.04-.09-.09-.18-.13-.27.02-.02.04-.04.01-.07 0 .01-.02.02-.03.04-.02-.05-.05-.1-.07-.15.02 0 .04.01.06 0-.03-.16-.09-.32-.23-.35a24.79 24.79 0 0 0-5.97-7.38 24.58 24.58 0 0 0-10.83-5.19c-2.31-.46-4.68-.6-7.03-.39-.21.02-.41.12-.53.27-.35.12-.48.46-.43.81.58 4.18 2.65 8.13 5.68 11.05 3.24 3.13 7.54 4.94 12.03 5.2 2.56.15 5.16-.21 7.57-1.09.13-.05.25-.13.34-.23 2.38 1.34 5.07 1.98 7.71 2.59l.06.12c.82 3.04 1.47 6.14 1.93 9.26.12.84.23 1.68.33 2.53-.02.04-.03.07-.05.11-.15.29-.1.65.16.86.44 4.3.53 8.64.27 12.96a78.763 78.763 0 0 1-2.53 15.63c-.14.51-.28 1.02-.43 1.52l-.97-5.91c.03-.05.07-.1.12-.06.12-.22-.04-.25-.16-.19l-.05-.3v-.02c.02.01.03.02.05.03.1-.09.1-.24.06-.38.04-.12.07-.24.11-.36.02.05.05.11.09.17.2.5.07-.38.36-.14.25-.32-.13-.48-.35-.38.12-.43.22-.87.31-1.31.04.03.09.05.13.1.12-.16.03-.19-.09-.26 0-.04.02-.09.03-.13.03 0 .05-.04.01-.06.03-.16.05-.31.08-.47.02 0 .02-.03.01-.07.63-3.89.21-7.94-1.1-11.64-1.61-4.55-4.56-8.55-8.28-11.61a31.054 31.054 0 0 0-6.78-4.26c-.33-.15-.72-.09-.92.24-.03.05-.05.1-.06.15a.7.7 0 0 0-.29.54c-.2 5.02.35 10.12 2 14.88 1.46 4.23 3.79 8.17 6.95 11.35 1.72 1.73 3.68 3.22 5.82 4.38.21.11.42.1.59.02.02 0 .03.02.05.02l1.27 7.72c.03.16.13.29.27.37a80.575 80.575 0 0 1-4.16 10.36c-2.24 4.6-4.91 8.99-7.98 13.09-.38.5-.76 1-1.15 1.5-.22.28-.28.67 0 .95.23.23.72.29.95 0 3.22-4.08 6.06-8.45 8.45-13.08 1.39-2.69 2.63-5.47 3.72-8.3 0 0 .02 0 .03-.01a33.08 33.08 0 0 0 6.5-6.17h.06c.04.1.12.19.18.13.02-.04.03-.08.03-.12h.1v.05c.05 0 .1-.02.14-.04h.09c-.12.12-.14.45.05.38.03-.06.07-.31.02-.38.41 0 .82-.03 1.23-.09-.12.08-.22.18-.27.32.26 0 .46-.1.55-.36 2.14-.38 4.13-1.54 5.8-2.92 2.15-1.77 3.93-4 5.34-6.39 1.44-2.43 2.54-5.07 3.34-7.78.88-3 1.32-6.09 1.48-9.21.18-3.55.02-7.11-.17-10.66Zm-30.12 26.42c.63.49 1.34 1.04 2 1.57-.69-.49-1.36-1.01-2-1.57Z"/><path class="cls-3" d="M192.96 124.34a.71.71 0 0 0-.48-.05c-5.38 1.11-10.52 3.33-15.07 6.4a44.696 44.696 0 0 0-11.7 11.49c-1.74 2.5-3.19 5.18-4.35 8-.23-.02-.46-.04-.69-.07-.32-.04-.6.26-.66.56-2.11.69-4.24 1.34-6.38 1.93-.83.23-.48 1.53.36 1.3 2.56-.71 5.1-1.49 7.61-2.33.02 0 .04-.02.06-.03.91.04 1.83 0 2.73-.1 1.46-.15 2.91-.42 4.34-.77 2.71-.67 5.43-1.61 7.84-3.02 1.26-.74 2.45-1.63 3.59-2.55 1.2-.96 2.35-1.99 3.43-3.08 2.18-2.21 4.11-4.67 5.73-7.32s2.94-5.48 3.91-8.43c.12-.36.23-.73.34-1.09.14-.48-.23-.8-.62-.82ZM133.37 22.56c.11-.08-.25-.17-.03-.23-.32-.41-.46.26.03.23ZM133.73 23.1c.12.02.04-.23-.05-.21-.1.04-.07.23.05.21ZM133.48 22.86c-.03-.27-.79-.28-.37-.09.14-.17.21.2.37.09ZM132.95 21.76c-.21.08.11.16-.13.21.3.24.34-.09.13-.21ZM132.78 22.31c-.14.08 0 .33.06.43.12-.2.07-.25-.06-.43ZM133.48 22.09c-.02-.16-.11-.27-.29-.28.03.15.15.25.29.28ZM133.12 23.02c.16.11.21-.05.12-.16-.05.06-.3.07-.12.16ZM133.81 22.25c.23-.06-.09-.18-.21-.1-.04.1.15.03.21.1Z"/><path class="cls-3" d="M133.64 22.65c-.05-.01-.26 0-.22.07.07.07.28.03.22-.07ZM133.52 22.93c-.12-.03-.23.05-.15.14.07.05.22-.1.15-.14ZM132.16 21.65c.01-.06-.04-.11-.15-.14-.03.1.02.16.15.14ZM133.81 22.42c.07.04.15.23.21.14-.01-.1-.11-.32-.21-.14ZM132.53 21.69c-.04-.12-.1-.07-.2-.05.05.12.11.05.2.05ZM132.3 22.01l.05.13c.09-.02.05-.17-.05-.13ZM131.95 21.32l.06.04c.11 0 0-.07-.06-.04ZM132.26 21.69c-.05-.02-.07-.05-.13-.02.06.01.1.07.13.02ZM132.9 22.91h-.08s.11.08.08 0ZM132.16 21.88h-.07c.03.06.16.07.07 0ZM133.7 22.41h-.18c.04.11.22.17.18 0ZM132.3 21.58s-.02-.05-.03-.02c0 .02.01.05.03.02ZM131.99 21.45s0 .06.03.03l-.03-.03ZM132.4 21.82s-.03.03-.03.02c0 .04.06 0 .03-.02ZM132.73 22.86s-.02.01-.03.02c0 .04.06 0 .03-.02ZM132.46 22.74s-.02.01-.03.02c0 .04.06 0 .03-.02ZM133.5 22.16s-.02.01-.03.02c0 .04.06 0 .03-.02ZM132.04 21.71l-.02-.02c-.29.15.51.18.02.02ZM150.84 27.57c-.18.19.28.04.12.25.17.28.65-.86-.12-.25ZM150.91 28.55c.12-.28-.38-.11-.19.05.13.14.07-.11.19-.05ZM151.6 26.94c-.24-.11-.13.2-.35.07-.05.42.37.21.35-.07ZM151.72 27.17c-.13.12-.18.3-.1.45.14-.13.26-.28.1-.45ZM151.65 27.76c-.15.04.08.14.06.24.24.13.14-.21-.06-.24ZM151.13 28.19c-.04-.05-.22-.2-.26-.12-.02.12.19.24.26.12ZM150.42 28.3c.02.09.28.09.29.01-.06-.12-.25-.14-.29-.01ZM151.52 28.14c0 .08-.14.31 0 .28.09-.08.27-.33 0-.28ZM151.34 26.56c.11-.13 0-.14-.1-.2-.1.13.02.13.1.2ZM151.32 25.8v.08c.08.09.08-.06 0-.08ZM151.27 28.04c.03.11.12.08.19 0-.13-.16-.15-.17-.19 0ZM151.26 26.27s.1-.03.03-.04l-.03.04ZM151.57 27.7s-.06-.02-.07.02c.03 0 .06.02.07-.02ZM154.77 45.37c.16-.05-.09-.21-.14-.24-.23-.04-.04.36.14.24ZM153.72 44.38c-.13-.16-.29-.26-.51-.15.12.16.32.23.51.15ZM153.89 44.36c.02.15.19-.07.3-.04.2-.22-.23-.14-.3.04ZM154.11 45.14c.13.03.34-.17.19-.25-.06.03-.29.2-.19.25ZM154.32 44.52c.11 0 .35.13.33-.03-.1-.09-.36-.23-.33.03ZM154 44.7c.13.1.39.04.2-.12l-.2.12ZM153.8 44.44s-.03.06.01.07c.01-.03.03-.06-.01-.07ZM170.53 52.22c.02.18.23.01.3-.03.14-.22-.41-.21-.3.03ZM170.44 51.67c-.05.12.23.29.28.19 0-.19-.17-.33-.28-.19ZM170.11 51.7c-.16.09-.12.12-.04.22.12-.02.06-.12.04-.22ZM166.99 69.35c-.05.16.18 0 .26.07.26-.17-.11-.25-.26-.07ZM167.54 69.81c-.03-.16-.17-.42-.27-.13.09.05.24.29.27.13ZM178.69 79.9c-.07.24.21-.03.24.13.4-.13-.16-.43-.24-.13ZM178.88 78.99c-.19.24.09.33.27.21-.08-.09-.11-.47-.27-.21ZM179.01 79.63c.06-.18-.08-.36-.22-.26-.08.1.16.35.22.26ZM178.45 79.31c-.16.04-.17.07-.12.19.12.02.12-.07.12-.19ZM179.06 78.03l.08-.05c.03-.18-.09-.07-.08.05ZM179.07 78.67c.02-.13.02-.14-.07-.08-.04.07.01.08.07.08ZM179.17 78.43s-.03-.07-.08-.04c.02.03.03.07.08.04ZM174.46 109.47c-.04.59.48.31.45-.08-.32-.15-.15.28-.45.08ZM174.97 110.33c.19-.18.31-.39.11-.62-.17.17-.22.42-.11.62ZM175.09 110.88c.32.2.15-.28-.09-.35-.19.05.1.21.09.35ZM174.01 110.92c-.03.15.25.35.34.17-.05-.07-.28-.28-.34-.17ZM174.92 111.43c.13-.13.24-.44-.08-.37 0 .12-.13.44.08.37ZM174.76 110.92c-.1-.12-.14-.17-.18-.21-.14.19.02.43.18.21ZM174.89 110.44s-.08-.03-.09.03c.04 0 .08.03.09-.03ZM180.66 118.87c.24-.18-.27-.37-.3-.07-.08.19.22.1.3.07ZM181.71 119.14c0 .4.33-.12.24-.35-.16-.09-.12.26-.24.35ZM181.13 119.44c.83-.12 0-.54 0 0ZM181.38 118.73c-.09.14-.05.21.11.19.1-.31.1-.35-.11-.19ZM181.91 118.59s.02.08.07.04c-.02-.04-.02-.08-.07-.04Z"/><path class="cls-9" d="m56.59 101.82-.2-14.99 87.08.26.14 13.93v1l-87.02-.2z"/><path class="cls-10" d="M40.31 77.59c-.15.02-.3.12-.41.22-.04.03-.06.07-.1.11-.03.04-.07.08-.09.13-.03.07-.07.14-.09.21-.02.08-.03.17-.04.25 0 .11 0 .22.03.32s.07.21.13.3c.05.06.09.13.15.19s.13.11.2.16c.09.06.2.11.3.14.02 0 .05.02.08.02.09.02.17.03.26.04h.08c.08 0 .17-.02.25-.04s.16-.06.23-.09c.03-.01.05-.02.07-.04.15-.11.23-.19.34-.34.02-.02.03-.04.04-.07.04-.07.07-.15.09-.23 0-.02.01-.05.02-.08.01-.08.03-.17.03-.26s-.02-.17-.03-.25c0-.03 0-.05-.02-.08-.09-.26-.25-.49-.49-.62-.14-.07-.25-.11-.4-.13-.06 0-.11-.02-.17-.02-.09 0-.17.02-.26.03-.03 0-.06.01-.09.02-.08.03-.16.06-.23.1-.15.1-.25.2-.35.35-.05.08-.08.16-.08.25-.02.09-.02.18.01.27.02.09.06.16.12.23.05.07.11.13.19.17.16.08.34.12.52.07l.16-.07c.1-.06.18-.14.24-.24 0-.01.01-.02.02-.03l-.11.14.06-.06-.14.11s.06-.04.09-.05l-.16.07.11-.03-.18.02h.13l-.18-.02s.08.02.11.03l-.16-.07s.06.03.09.05l-.14-.11.06.06-.11-.14s.04.06.05.09l-.07-.16.03.11-.02-.18v.13l.02-.18s-.02.09-.04.13l.07-.16s-.04.07-.06.11l.11-.14s-.05.06-.08.08l.14-.11s-.06.04-.09.05l.16-.07-.11.03.18-.02h-.14l.18.02s-.09-.02-.13-.04l.16.07s-.09-.04-.12-.07l.14.11-.09-.09.11.14s-.04-.06-.05-.09l.07.16-.03-.1.02.18v-.12l-.02.18s.01-.07.03-.1l-.07.16s.02-.05.04-.07l-.11.14.04-.04-.14.11s.03-.02.05-.03l-.16.07s.04-.01.06-.02a.51.51 0 0 0 .23-.12.52.52 0 0 0 .17-.19c.05-.08.08-.16.08-.25.02-.09.02-.18-.01-.27-.05-.16-.15-.32-.31-.4l-.16-.07a.731.731 0 0 0-.36 0ZM40.32 73.82c-.1.63-.15 1.27-.1 1.9.01.18.07.34.2.47.12.12.31.2.47.2s.35-.06.47-.2.21-.3.2-.47c-.03-.51-.02-1.02.05-1.53l-.02.18c0-.06.02-.13.03-.2.03-.18.03-.35-.07-.52a.69.69 0 0 0-.4-.31.681.681 0 0 0-.52.07c-.14.09-.28.23-.31.4ZM36.83 76.19c.3.36.65.66 1.03.94.08.05.16.08.25.08.09.02.18.02.27-.01a.51.51 0 0 0 .23-.12.52.52 0 0 0 .17-.19c.08-.16.12-.34.07-.52l-.07-.16a.69.69 0 0 0-.24-.24.55.55 0 0 1-.09-.07l.14.11c-.29-.23-.56-.49-.8-.77a.555.555 0 0 0-.22-.14.583.583 0 0 0-.52 0c-.08.03-.15.07-.22.14-.12.13-.2.3-.2.47l.02.18c.03.11.09.21.17.3ZM43.87 77.01l.64-.64c.06-.06.11-.13.14-.22a.583.583 0 0 0 0-.52.586.586 0 0 0-.14-.22l-.14-.11a.692.692 0 0 0-.34-.09l-.18.02c-.11.03-.21.09-.3.17l-.64.64c-.06.06-.11.13-.14.22a.583.583 0 0 0 0 .52c.03.08.07.15.14.22l.14.11c.11.06.22.09.34.09l.18-.02c.11-.03.21-.09.3-.17ZM36.67 80.02c.12-.05.24-.08.37-.1l-.18.02c.15-.02.29-.02.44 0l-.18-.02c.1.01.19.03.28.06a.681.681 0 0 0 .83-.47.681.681 0 0 0-.47-.83 2.26 2.26 0 0 0-1.45.04.51.51 0 0 0-.23.12.52.52 0 0 0-.17.19c-.09.14-.12.36-.07.52s.15.32.31.4.35.13.52.07ZM43.85 80.03c.23-.01.45 0 .68.03l-.18-.02c.14.02.27.04.41.08.17.04.36.02.52-.07a.69.69 0 0 0 .31-.4c.04-.17.03-.36-.07-.52s-.23-.27-.4-.31c-.41-.1-.84-.15-1.27-.13-.18 0-.35.07-.47.2-.12.12-.2.31-.2.47s.06.35.2.47.3.21.47.2Z"/><path class="cls-11" d="M34.21 83.72c4.45.23 8.91.25 13.36.07.36-.02.67-.3.67-.67 0-.35-.31-.69-.67-.67-4.45.18-8.91.16-13.36-.07-.36-.02-.67.32-.67.67 0 .38.31.65.67.67ZM34.12 87.45c4.39-.27 8.8-.02 13.19 0 .86 0 .87-1.34 0-1.34-4.4-.02-8.8-.27-13.19 0-.36.02-.67.29-.67.67 0 .35.31.69.67.67ZM33.85 91.25c4.45-.12 8.91-.09 13.36.09.36.02.67-.32.67-.67 0-.38-.31-.66-.67-.67-4.45-.18-8.91-.21-13.36-.09-.86.02-.87 1.37 0 1.34ZM33.76 103.67c4.45-.16 8.91-.27 13.36-.32.86 0 .87-1.35 0-1.34-4.45.05-8.91.16-13.36.32-.86.03-.87 1.37 0 1.34ZM33.76 101.16c4.45-.35 8.9-.47 13.36-.36.86.02.86-1.32 0-1.34-4.46-.11-8.92.01-13.36.36-.36.03-.67.29-.67.67 0 .34.31.7.67.67Z"/><path class="cls-11" d="M167.53 133.27a1860.1 1860.1 0 0 0-.71-35.83c-.2-6.74-.43-13.47-.7-20.21 0-.03 0-.05-.01-.08.01-.05.02-.11.01-.16-.38-3.28-3.04-6.06-6.27-6.69-1.59-.31-3.24-.11-4.64.72-1.33.79-2.35 2.03-3.04 3.39-.68 1.35-1.08 2.85-1.17 4.37H48.55c-.17-2.85-1.43-5.77-3.77-7.45-2.73-1.96-6.43-1.24-8.83.89a7.588 7.588 0 0 0-2.53 4.79c0 .06 0 .11.01.17 0 .03 0 .05-.01.08a1879.483 1879.483 0 0 0-1.44 92.07c0 .86 1.34.87 1.34 0h2.06l58.99.12 71.82-.14c0 .86 1.34.86 1.34 0 .11-12.01.1-24.02-.02-36.02Z"/><path class="cls-11" d="M151.99 124.54c.07 5.84.11 11.69.13 17.54a2051.255 2051.255 0 0 1-.08 27.37c0 .86 1.33.87 1.34 0 .06-5.84.09-11.69.1-17.54 0-5.84-.01-11.69-.05-17.54-.02-3.28-.06-6.55-.09-9.83-.01-.86-1.35-.87-1.34 0ZM150.97 79.7c.13 3.9.19 7.81.23 11.72.04 3.98.06 7.96.1 11.94.02 2.18.05 4.37.09 6.55.02.86 1.36.87 1.34 0-.08-3.91-.11-7.81-.13-11.72-.03-3.98-.06-7.96-.13-11.94-.04-2.18-.09-4.36-.16-6.55-.03-.86-1.37-.87-1.34 0Z"/><path class="cls-10" d="M158.87 78.86s.04 0 .06.02l-.16-.07s.04.02.05.03l-.14-.11.04.04-.11-.14s.03.04.04.07l-.07-.16.03.1-.02-.18v.12l.02-.18s-.01.07-.03.1l.07-.16s-.03.06-.05.09l.11-.14-.09.09.14-.11s-.08.05-.12.07l.16-.07s-.09.03-.13.04l.18-.02h-.14l.18.02s-.08-.02-.11-.03l.16.07s-.06-.03-.09-.05l.14.11s-.06-.05-.08-.08l.11.14s-.05-.07-.06-.11l.07.16s-.03-.09-.04-.13l.02.18v-.13l-.02.18.03-.11-.07.16s.03-.06.05-.09l-.11.14.06-.06-.14.11s.06-.04.09-.05l-.16.07.11-.03-.18.02h.13l-.18-.02s.08.02.11.03l-.16-.07s.06.03.09.05l-.14-.11.06.06-.11-.14s.02.02.02.03c.09.15.23.26.4.31.09.03.18.03.27.01.09 0 .17-.03.25-.08.14-.09.27-.23.31-.4s.03-.36-.07-.52-.19-.24-.33-.34c-.02-.01-.04-.03-.06-.04a.917.917 0 0 0-.23-.09c-.2-.06-.44-.06-.64 0-.08.03-.15.06-.22.09s-.13.09-.19.14c-.02.02-.04.03-.05.05-.05.06-.11.13-.15.2-.05.09-.1.19-.11.3-.01.07-.03.17-.03.24s.02.18.03.26c.02.11.07.21.11.3.01.02.03.05.04.07.05.06.09.13.15.19s.12.1.19.15c.02.02.05.03.08.04.07.03.15.07.23.09.08.02.17.03.25.04h.08c.09 0 .17-.02.26-.04.03 0 .05-.01.08-.02.08-.03.16-.06.23-.1.02-.01.05-.03.07-.05.06-.05.13-.1.19-.15s.11-.13.15-.19c.02-.02.03-.05.04-.08.03-.07.07-.15.09-.23.02-.07.02-.14.03-.21v-.04c0-.08-.02-.17-.03-.25 0-.03-.01-.06-.02-.08-.06-.16-.13-.3-.25-.42-.05-.04-.1-.09-.16-.12-.01 0-.02-.01-.03-.02-.06-.03-.13-.06-.19-.08h-.04a.496.496 0 0 0-.27-.01c-.09 0-.17.03-.25.08a.52.52 0 0 0-.19.17c-.06.06-.1.14-.12.23-.04.17-.03.36.07.52l.11.14c.08.08.18.14.3.17ZM157.93 74.15l.03.2-.02-.18c.07.51.09 1.02.05 1.53-.01.17.08.36.2.47s.31.2.47.2.35-.06.47-.2.18-.29.2-.47c.04-.64 0-1.27-.1-1.9-.02-.16-.18-.32-.31-.4-.14-.09-.36-.12-.52-.07s-.32.15-.4.31l-.07.16c-.03.12-.03.24 0 .36ZM161.76 75.22c-.24.28-.51.54-.8.77l.14-.11s-.06.04-.09.07a.52.52 0 0 0-.19.17c-.06.06-.1.14-.12.23-.03.09-.03.18-.01.27 0 .09.03.17.08.25.09.14.23.27.4.31l.18.02c.12 0 .24-.03.34-.09.38-.28.73-.58 1.03-.94.06-.06.11-.13.14-.22a.583.583 0 0 0 0-.52.586.586 0 0 0-.14-.22c-.13-.12-.3-.2-.47-.2-.17 0-.36.06-.47.2ZM156.62 76.04l-.64-.64a.555.555 0 0 0-.22-.14.583.583 0 0 0-.52 0c-.08.03-.15.07-.22.14l-.11.14c-.06.11-.09.22-.09.34l.02.18c.03.11.09.21.17.3l.64.64c.06.06.13.11.22.14a.583.583 0 0 0 .52 0c.08-.03.15-.07.22-.14l.11-.14c.06-.11.09-.22.09-.34l-.02-.18a.753.753 0 0 0-.17-.3ZM163.23 78.7a2.244 2.244 0 0 0-1.45-.04.681.681 0 0 0-.47.83c.05.16.15.32.31.4s.34.12.52.07c.09-.03.19-.05.28-.06l-.18.02c.15-.02.3-.02.44 0l-.18-.02c.13.02.25.05.37.1.09.03.18.03.27.01.09 0 .17-.03.25-.08a.69.69 0 0 0 .31-.4c.04-.17.03-.36-.07-.52l-.11-.14a.638.638 0 0 0-.3-.17ZM155.69 78.66c-.42-.02-.86.03-1.27.13-.16.04-.32.17-.4.31s-.12.36-.07.52.15.32.31.4.34.11.52.07c.13-.03.27-.06.41-.08l-.18.02c.23-.03.45-.04.68-.03.17 0 .36-.08.47-.2s.2-.31.2-.47-.06-.35-.2-.47-.29-.19-.47-.2Z"/><path class="cls-11" d="M165.33 82.36c-4.45.23-8.91.25-13.36.07-.36-.02-.67.32-.67.67 0 .38.31.66.67.67 4.45.18 8.91.16 13.36-.07.36-.02.67-.3.67-.67 0-.35-.31-.69-.67-.67ZM165.42 86.09c-4.39-.27-8.8-.02-13.19 0-.86 0-.87 1.35 0 1.34 4.4-.02 8.8-.27 13.19 0 .36.02.67-.32.67-.67 0-.38-.31-.65-.67-.67ZM165.69 89.89c-4.45-.12-8.91-.09-13.36.09-.36.02-.67.3-.67.67 0 .35.31.69.67.67 4.45-.18 8.91-.21 13.36-.09.86.02.86-1.32 0-1.34ZM165.78 102.31c-4.45-.16-8.91-.27-13.36-.32-.86 0-.86 1.33 0 1.34 4.45.05 8.91.16 13.36.32.86.03.86-1.31 0-1.34ZM165.78 99.8c-4.45-.35-8.9-.47-13.36-.36-.86.02-.87 1.37 0 1.34 4.46-.11 8.92.01 13.36.36.36.03.67-.33.67-.67 0-.39-.31-.64-.67-.67ZM35.47 103.28c-.48 1.58.87 3.35 2.51 3.33.35 0 .69-.3.67-.67s-.3-.68-.67-.67c-.06 0-.17.02-.23-.01l.11.02s-.04 0-.06-.01c-.03 0-.06-.01-.09-.02l-.2-.06c-.04-.02.17.08.03 0-.03-.01-.06-.03-.09-.04-.06-.03-.11-.06-.17-.1-.02-.01-.04-.02-.05-.04.09.07.11.09.07.06-.03-.02-.06-.05-.09-.07a.927.927 0 0 1-.14-.14c-.02-.02-.04-.05-.06-.07-.01-.02-.03-.03-.04-.05.07.09.09.11.06.07-.08-.11-.15-.22-.21-.35 0-.02-.02-.04-.03-.06l.04.1s-.03-.07-.04-.11l-.06-.2c0-.03-.01-.06-.02-.09-.02-.12.02.17 0 .05 0-.08-.01-.15 0-.22v-.1c0-.07.04-.13 0 .05.02-.07.03-.15.05-.22.1-.34-.12-.75-.47-.83s-.72.11-.83.47Z"/><path class="cls-11" d="M37.46 106.21c.07.72.23 1.41.51 2.08.24.58.61 1.16 1.19 1.45 1.25.62 2.67-.22 3.18-1.41.31-.73.39-1.5.44-2.28.02-.35-.32-.69-.67-.67a.69.69 0 0 0-.67.67c-.01.18-.02.36-.04.55 0 .07-.01.14-.02.21-.01.08-.01.09 0 .03 0 .04-.01.09-.02.14-.03.16-.06.31-.1.47-.02.09-.05.17-.08.26-.04.14.02-.03-.04.09-.04.08-.08.16-.13.24-.02.03-.16.21-.06.1-.09.1-.18.2-.29.28.11-.09-.08.05-.1.06-.05.03-.1.05-.15.08q-.07.03 0 0s-.07.02-.11.04c-.02 0-.22.06-.13.04s-.11 0-.13 0h-.11c.09.01.09.01.02 0-.05-.02-.11-.03-.16-.05.14.05-.07-.05-.1-.07q-.06-.04 0 0s-.06-.05-.09-.08c-.04-.04-.08-.09-.12-.13.09.11-.05-.08-.07-.11-.04-.06-.07-.12-.11-.18-.14-.26-.21-.44-.31-.81-.1-.35-.16-.69-.19-.96-.03-.35-.29-.69-.67-.67-.34.02-.71.3-.67.67Z"/><path class="cls-11" d="M42.39 106.71c1.72-.28 2.88-2.18 2.48-3.85-.08-.34-.49-.58-.83-.47-.36.12-.56.46-.47.83 0 .04.02.08.03.12.01.06 0 .17 0-.02 0 .08.01.16.01.24s0 .16-.01.24c0 .12.02-.12 0-.04 0 .04-.01.08-.02.12l-.06.24c-.01.03-.02.06-.03.1 0 .02-.02.05-.03.08l.04-.09c-.04.06-.07.15-.11.22-.04.07-.08.14-.13.21l-.07.1c-.07.11.1-.11 0 0-.05.06-.1.11-.15.17s-.11.1-.16.15c-.02.02-.04.04-.06.05l.07-.06-.1.07c-.07.04-.13.09-.21.13-.04.02-.07.04-.11.06-.02 0-.04.02-.05.02-.05.02-.02.01.07-.03-.06 0-.17.06-.23.08-.08.02-.16.04-.24.05-.35.06-.57.51-.47.83.12.38.45.53.83.47ZM154.58 103.19c-.48 1.58.87 3.35 2.51 3.33.35 0 .69-.3.67-.67s-.3-.68-.67-.67c-.06 0-.17.02-.23-.01l.11.02s-.04 0-.06-.01c-.03 0-.06-.01-.09-.02l-.2-.06c-.04-.02.17.08.03 0-.03-.01-.06-.03-.09-.04-.06-.03-.11-.06-.17-.1-.02-.01-.04-.02-.05-.04.09.07.11.09.07.06-.03-.02-.06-.05-.09-.07a.927.927 0 0 1-.14-.14c-.02-.02-.04-.05-.06-.07-.01-.02-.03-.03-.04-.05.07.09.09.11.06.07-.08-.11-.15-.22-.21-.35 0-.02-.02-.04-.03-.06l.04.1s-.03-.07-.04-.11l-.06-.2c0-.03-.01-.06-.02-.09-.02-.12.02.17 0 .05 0-.08-.01-.15 0-.22v-.1c0-.07.04-.13 0 .05.02-.07.03-.15.05-.22.1-.34-.12-.75-.47-.83s-.72.11-.83.47Z"/><path class="cls-11" d="M156.57 106.11c.07.72.23 1.41.51 2.08.24.58.61 1.16 1.19 1.45 1.25.62 2.67-.22 3.18-1.41.31-.73.39-1.5.44-2.28.02-.35-.32-.69-.67-.67a.69.69 0 0 0-.67.67c-.01.18-.02.36-.04.55 0 .07-.01.14-.02.21-.01.08-.01.09 0 .03 0 .04-.01.09-.02.14-.03.16-.06.31-.1.47-.02.09-.05.17-.08.26-.04.14.02-.03-.04.09-.04.08-.08.16-.13.24-.02.03-.16.21-.06.1-.09.1-.18.2-.29.28.11-.09-.08.05-.1.06-.05.03-.1.05-.15.08q-.07.03 0 0s-.07.02-.11.04c-.02 0-.22.06-.13.04s-.11 0-.13 0h-.11c.09.01.09.01.02 0-.05-.02-.11-.03-.16-.05.14.05-.07-.05-.1-.07q-.06-.04 0 0s-.06-.05-.09-.08c-.04-.04-.08-.09-.12-.13.09.11-.05-.08-.07-.11-.04-.06-.07-.12-.11-.18-.14-.26-.21-.44-.31-.81-.1-.35-.16-.69-.19-.96-.03-.35-.29-.69-.67-.67-.34.02-.71.3-.67.67Z"/><path class="cls-11" d="M161.5 106.62c1.72-.28 2.88-2.18 2.48-3.85-.08-.34-.49-.58-.83-.47-.36.12-.56.46-.47.83 0 .04.02.08.03.12.01.06 0 .17 0-.02 0 .08.01.16.01.24s0 .16-.01.24c0 .12.02-.12 0-.04 0 .04-.01.08-.02.12l-.06.24c-.01.03-.02.06-.03.1 0 .02-.02.05-.03.08l.04-.09c-.04.06-.07.15-.11.22-.04.07-.08.14-.13.21l-.07.1c-.07.11.1-.11 0 0-.05.06-.1.11-.15.17s-.11.1-.16.15c-.02.02-.04.04-.06.05l.07-.06-.1.07c-.07.04-.13.09-.21.13-.04.02-.07.04-.11.06-.02 0-.04.02-.05.02-.05.02-.02.01.07-.03-.06 0-.17.06-.23.08-.08.02-.16.04-.24.05-.35.06-.57.51-.47.83.12.38.45.53.83.47Z"/><path class="cls-9" d="M144.18 90.33a88.47 88.47 0 0 0-.28-3.24.775.775 0 0 0-.28-.54.595.595 0 0 0-.54-.29c-11.36.08-22.72.09-34.07.07-11.23-.02-22.45-.07-33.68-.12-6.41-.02-12.81-.05-19.22-.06-.45 0-.66.36-.65.71-.02.06-.03.13-.03.21l.23 11.44.07 3.29c0 .21.09.37.21.48.09.22.28.39.59.39h86.73c.35 0 .56-.22.62-.49.21-.11.34-.34.36-.59.21-3.76.19-7.53-.07-11.29Zm-68.6 11.02H57.06l-.22-10.97-.06-2.87c11.14.02 22.27.07 33.41.12 11.23.04 22.45.08 33.68.06 6.25 0 12.5-.03 18.74-.08a89.879 89.879 0 0 1 .32 13.74H75.59Z"/><path class="cls-13" d="M33.96 127.21c0-.86-1.35-.87-1.34 0v.51c-1.63.06-3.26.06-4.9-.02-.38-.02-.59.23-.64.51-.03.07-.05.15-.05.23-.02.37 0 .73.06 1.09.05.32.43.53.74.49h4.79v.62c0 .86 1.35.87 1.34 0v-3.43Z"/><path class="cls-9" d="M28.03 134.21c-.04-3.62.09-7.24-.22-10.85 0-.04-.02-.08-.03-.12v-.02c-.04-.11-.14-.19-.29-.19-3.83-.05-7.67 0-11.5.16a.31.31 0 0 0-.17.05c-.1.05-.17.14-.17.28 0 3.61-.09 7.22.07 10.83 0 .09.04.17.09.22l.02.02c.05.05.13.09.22.09 3.89.16 7.79.32 11.68 0 .27-.02.37-.29.3-.48Zm-8.98-.1v.01h-.01v-.01Zm4.6.01s0 .05.01.06h-.04s.02-.04.03-.07Zm1.08.04Z"/><path class="cls-5" d="M25.53 128.89c-.02-.06-.34-.65-.93-1.38s-.02-.04-.03-.06c-.07-.77-.18-1.27-.18-1.27a.202.202 0 0 0-.18-.16l-.61-.07h-.02c-.07 0-.13.06-.13.13v.21c-.37-.33-.78-.65-1.24-.93a.53.53 0 0 0-.3-.09.53.53 0 0 0-.3.09c-2.11 1.3-3.27 3.42-3.32 3.54s-.02.06-.02.09c0 .1.07.18.16.2l.61.12c.08.02.14.09.15.18 0 .11.12 2.5.26 3.13.02.09.11.16.2.16.35 0 .68-.02 1.03-.02h.03s.07-.03.07-.07c-.01-.21-.04-.69-.07-1.19v-.04s-.03-.08-.06-.1a.654.654 0 0 1-.32-.53c-.03-.84-.05-1.81 0-2.57 0-.06.06-.11.12-.11s.12.05.13.12c-.03.51-.03 1.11-.02 1.71 0 .08.07.14.15.14s.14-.07.14-.15c-.01-.6 0-1.2.02-1.71 0-.06.06-.11.12-.11s.12.05.13.12c-.03.51-.03 1.11-.02 1.7 0 .08.07.14.15.14.08 0 .14-.07.14-.15-.01-.59 0-1.19.02-1.7 0-.06.06-.11.12-.11s.12.05.13.12c-.04.75-.03 1.68 0 2.5v.02c0 .23-.11.43-.28.55a.12.12 0 0 0-.05.09s-.02.13.04.74c.03.27.04.45.06.54s.03.06.06.06h1.26s.06-.02.06-.05c.08-.73.1-1.14.1-1.14 0-.04-.03-.06-.06-.07l-.42-.06c-.07-.01-.11-.05-.12-.1v-.06c.17-2.44.97-3.26.97-3.26.02-.02.04-.03.04-.03.02-.02.05-.02.08-.02.05 0 .1.03.12.08 0 0 0 .02.01.06.07.77.04 2.07 0 3.09-.04.86-.08 1.54-.08 1.54s.02.05.05.05c.23 0 .45 0 .69.01.1 0 .18-.07.2-.16.14-.62.26-3.02.26-3.13 0-.09.07-.15.15-.18l.61-.12c.09-.02.16-.11.16-.2 0-.03 0-.06-.02-.09Z"/><g id="Turmeric_windows"><path class="cls-3" d="M119.32 141.19c3.67-.24 7.33-.74 10.92-1.58 3.5-.82 6.92-1.95 10.23-3.36 1.93-.82 3.83-1.74 5.68-2.73.38-.2.04-.78-.34-.58-3.21 1.72-6.54 3.2-9.98 4.38a62.077 62.077 0 0 1-10.33 2.54c-2.05.32-4.11.54-6.18.67-.43.03-.43.7 0 .67ZM88.42 135.09c3.03 1.27 6.07 2.53 9.19 3.55 3.12 1.03 6.32 1.8 9.58 2.26 1.85.26 3.71.39 5.58.44.43 0 .43-.66 0-.67-3.3-.07-6.54-.49-9.76-1.22-3.17-.71-6.25-1.74-9.27-2.91-1.73-.67-3.44-1.38-5.15-2.1-.17-.07-.37.08-.41.24-.06.19.07.34.24.41ZM54.68 129.96c3.25-1.3 6.76-1.77 10.25-1.64 3.6.13 7.16.85 10.6 1.88 1.89.56 3.76 1.19 5.6 1.9.4.16.58-.49.18-.65-3.34-1.29-6.8-2.38-10.32-3.08-3.52-.69-7.15-.99-10.72-.53-1.98.25-3.92.73-5.77 1.47-.4.16-.22.81.18.65Z"/><path class="cls-7" d="M111.74 121.85v.59c-.36.33-1.73 1.59-2.31 1.89-.67.34-1.62.68-2.84.22s-2.01-1.75-2.29-2.23-1.69-.94-2.82-.7-1.16.71-2.59 1.89-2.35 1.34-3.36 1.41c-1 .07-2.94-1.96-3.64-2.6-.46-.42-1.62-.66-2.35-.77-.13-.73-1.33-.68-1.33.14v47.63c0 .86 1.34.87 1.34 0v-.09l22.2.17c.08.78 1.33.76 1.33-.08v-47.47c0-.86-1.34-.87-1.34 0ZM144.95 124.98v.3c-.37.17-.87.29-1.34.02-.88-.51-2.44-1.7-3.08-2.37s-1.6-1.64-2.54-1.19-2.78 2.4-4.03 2.84-2.45.66-3.39-.04-2.69-2.46-3.51-2.8c-.82-.34-1.46-.6-2.12 0s-1.61 1.95-2.64 2.5c-.64.34-1.44.53-1.95.62v-.32c0-.86-1.35-.87-1.34 0 .03 3.96.02 7.92.01 11.88-.01 3.93-.03 7.86-.03 11.78 0 2.24 0 4.48.02 6.73 0 .27.13.45.31.56.11.15.28.25.51.25h25.64c.38 0 .59-.26.64-.55.1-.11.17-.25.17-.44v-29.76c0-.86-1.34-.87-1.34 0ZM80.32 122.86c-.21-.17-.46-.36-.71-.53-.61-.4-1.99-.55-2.86-.31-.87.24-1.18.87-2.3 1.74-1.12.88-2.5 1.25-3.51 1.22-1-.04-2.62-1.15-3.36-1.7s-2.5-1.73-3.44-1.73-2.27.63-3 1.34c-.73.71-2.44 1.73-3.17 1.88-.5.1-1.7 0-2.39-.08v-.14c0-.86-1.35-.87-1.34 0 .02 3.63.01 7.26 0 10.89 0 1.36 0 2.71-.01 4.07 0 .72.94.84 1.24.35l4.67.11s2.26 12.78 2.58 14.81c-.15.4.05.94.6.94H80.7c.38 0 .59-.26.64-.55.1-.11.17-.25.17-.44v-31.45c0-.68-.84-.83-1.19-.43Z"/><path class="cls-3" d="M54.28 124.28v5.47s4.41-1.9 9.74-1.69 12.48 1.47 17.49 3.84v-8.63s-.03-3.43-4.96-3c-4.93.43-21.7-1.7-22.27 4ZM88.21 134.54l-.11-14.3 25.06-.22-.11 20.98s-6.73.21-12.28-1.67c-5.56-1.88-11.07-3.66-12.57-4.78ZM119.05 140.89v-17s2.73-2.71 7.04-2.97c4.31-.26 12.51.34 14.71.76 2.21.42 5.39 2.15 5.39 2.15l.11 9.21s-3.45 1.77-5.08 2.45-10.07 3.9-15.55 4.59-6.62.8-6.62.8Z"/></g><g id="JET_sign_1"><path class="cls-9" d="M138.85 143.43c-.04-3.62.09-7.24-.22-10.85 0-.04-.02-.08-.03-.12v-.02c-.04-.11-.14-.19-.29-.19-3.83-.05-7.67 0-11.5.16a.31.31 0 0 0-.17.05c-.1.05-.17.14-.17.28 0 3.61-.09 7.22.07 10.83 0 .09.04.17.09.22l.02.02c.05.06.13.09.22.1 3.89.16 7.79.32 11.68 0 .27-.02.37-.29.3-.48Zm-8.98-.09v.01h-.01v-.01Zm4.6.01s0 .05.01.06h-.04s.02-.04.03-.07Zm1.08.04Z"/><path class="cls-5" d="M136.35 138.11c-.02-.06-.34-.65-.93-1.38s-.02-.04-.03-.06c-.07-.77-.18-1.27-.18-1.27a.202.202 0 0 0-.18-.16l-.61-.07h-.02c-.07 0-.13.06-.13.13v.21c-.37-.33-.78-.65-1.24-.93a.53.53 0 0 0-.3-.09.53.53 0 0 0-.3.09c-2.11 1.3-3.27 3.42-3.32 3.54s-.02.06-.02.09c0 .1.07.18.16.2l.61.12c.08.02.14.09.15.18 0 .11.12 2.5.26 3.13.02.09.11.16.2.16.35 0 .68-.02 1.03-.02h.03s.07-.03.07-.07c-.01-.21-.04-.69-.07-1.19v-.04s-.03-.08-.06-.1a.654.654 0 0 1-.32-.53c-.03-.84-.05-1.81 0-2.57 0-.06.06-.11.12-.11s.12.05.13.12c-.03.51-.03 1.11-.02 1.71 0 .08.07.14.15.14s.14-.07.14-.15c-.01-.6 0-1.2.02-1.71 0-.06.06-.11.12-.11s.12.05.13.12c-.03.51-.03 1.11-.02 1.7 0 .08.07.14.15.14.08 0 .14-.07.14-.15-.01-.59 0-1.19.02-1.7 0-.06.06-.11.12-.11s.12.05.13.12c-.04.75-.03 1.68 0 2.5v.02c0 .23-.11.43-.28.55a.12.12 0 0 0-.05.09s-.02.13.04.74c.03.27.04.45.06.54s.03.06.06.06h1.26s.06-.02.06-.05c.08-.73.1-1.14.1-1.14 0-.04-.03-.06-.06-.07l-.42-.06c-.07-.01-.11-.05-.12-.1v-.06c.17-2.44.97-3.26.97-3.26.02-.02.04-.03.04-.03.02-.02.05-.02.08-.02.05 0 .1.03.12.08 0 0 0 .02.01.06.07.77.04 2.07 0 3.09-.04.86-.08 1.54-.08 1.54s.02.05.05.05c.23 0 .45 0 .69.01.1 0 .18-.07.2-.16.14-.62.26-3.02.26-3.13 0-.09.07-.15.15-.18l.61-.12c.09-.02.16-.11.16-.2 0-.03 0-.06-.02-.09Z"/></g><path class="cls-13" d="m45.02 169.44-4.86-27.07c.11-.65.21-1.31.32-1.96.06-.36-.09-.72-.47-.83-.32-.09-.77.11-.83.47-.62 3.73-1.22 7.47-1.8 11.2-.59 3.76-1.16 7.51-1.71 11.28-.31 2.11-.62 4.22-.92 6.33-.05.36.09.72.47.83.31.09.75-.1.82-.45l8.98.19Z"/><path class="cls-5" d="M65.86 168.73c-.66-3.73-1.32-7.46-1.98-11.18-.66-3.71-1.31-7.42-1.97-11.13-.37-2.11-.75-4.22-1.12-6.34 0-.34-.21-.69-.65-.69H40.3c-.22 0-.38.09-.49.21h-.04c-.38.1-.53.47-.47.83.66 3.73 1.32 7.46 1.98 11.18.66 3.71 1.31 7.42 1.97 11.13.37 2.11.75 4.22 1.12 6.34.06.36.5.56.83.47.15-.04.26-.12.34-.22l.02.11 19.06-.21c.14.26.49.4.77.32.38-.1.53-.47.47-.83Z"/><path class="cls-9" d="M160.72 118.93c-2.77-3.11-5.33-6.41-8.1-9.52-.14-.16-.36-.21-.57-.18-13.66-.12-27.31-.17-40.96-.14-13.59.02-27.18.12-40.77.28-7.66.09-15.33.21-22.99.34-.46 0-.67.39-.64.74l-7.58 8.5c-.24.27-.27.68 0 .95.25.25.71.27.95 0l.44-.49h1.62l37.43.01 25.86-.14 42.04-.06h11.77c.19.22.38.44.57.65.24.27.7.25.95 0 .27-.27.24-.68 0-.95Z"/><path d="M160.77 118.99a.62.62 0 0 0-.52-.26H39.96c-.18 0-.33.06-.43.16-.32.03-.65.32-.62.67.24 2.63 1.87 5.28 4.64 5.75 1.31.22 2.61-.03 3.67-.84.86-.66 1.53-1.63 2.42-2.15.22-.13.3-.15.55-.22.13-.03.45-.03.57 0 .44.1.78.33 1.13.65.81.74 1.47 1.67 2.42 2.25 1.11.68 2.48.77 3.73.46.6-.15 1.2-.4 1.73-.73.6-.37 1.11-.86 1.64-1.33.45-.4.92-.77 1.5-.96.58-.19 1.14-.25 1.71-.16.54.08 1.07.28 1.52.59.5.34.9.82 1.31 1.25.46.47.96.94 1.56 1.23s1.2.42 1.84.43c1.28.02 2.57-.48 3.61-1.2.56-.39 1.04-.85 1.54-1.3.41-.37.86-.71 1.41-.83 0 0 .15-.02.13-.02H77.95c.01 0 .1.01.12.02.03 0 .05.01.08.02.13.03.25.06.38.1.04.01.08.03.12.04 0 0 .07.03.1.04.1.04.19.09.29.14.21.11.41.23.61.35 1.69 1.06 3.48 2.68 5.6 1.73 1.07-.48 1.75-1.46 2.64-2.18.83-.67 2.03-.85 3-.31.5.28.87.73 1.23 1.16.42.5.84.99 1.4 1.33.45.28.94.43 1.44.48 1.33.55 2.82-.14 3.85-1.03.13-.11.26-.23.39-.35.01 0 .03-.02.04-.03.09-.06.15-.13.21-.21.77-.74 1.57-1.49 2.69-1.49.6 0 1.22.19 1.69.58.61.49.92 1.24 1.51 1.75 1.03.88 2.53 1.15 3.79.66.73-.28 1.27-.76 1.75-1.38.41-.53.79-1.04 1.37-1.39.99-.58 2.2-.67 3.27-.3 1.35.47 1.97 1.87 3.13 2.62 1.18.76 2.75.76 3.98.14.66-.33 1.13-.87 1.57-1.45.34-.45.7-1.03 1.25-1.24 1.29-.49 2.57.91 3.39 1.7 1.03 1 2.27 2.01 3.8 1.83 1.16-.14 2.08-.85 2.94-1.58.39-.33.83-.74 1.19-1 .43-.31.79-.54 1.24-.65.2-.05.29-.06.57-.04.06 0 .13.02.27.06.16.05.22.07.34.14.46.25.83.65 1.2 1.06.84.94 1.71 1.98 3.04 2.19 1.53.24 2.9-.45 3.72-1.74.36-.56.64-1.17 1.24-1.51.49-.27 1.09-.36 1.63-.24 1.25.29 1.84 1.66 2.83 2.37 1.35.98 3.21.56 4.54-.24 1.19-.71 2.14-1.81 2.77-3.04.32-.62.57-1.29.75-1.97a.63.63 0 0 0-.13-.59Z" style="fill:#e87003"/><path d="M184.87 192.92c.02-3.84-.13-7.69-.5-11.51 0-.1-.04-.2-.08-.29a.604.604 0 0 0-.58-.38h-9.32c.03-3.77-.11-7.55-.43-11.3a.62.62 0 0 0-.09-.3.61.61 0 0 0-.59-.37H26.2c-.29 0-.48.15-.57.35-.05.1-.09.21-.1.32-.32 3.75-.46 7.53-.43 11.3h-9.24c-.29 0-.47.15-.57.35-.05.1-.08.2-.1.32-.36 3.82-.52 7.67-.5 11.51h-.3c-.86 0-.87 1.34 0 1.34h170.47c.86 0 .87-1.33 0-1.34Z" style="fill:#f2a6b0"/><path class="cls-1" d="M144.39 193.81s-.11-.06-.25-.17a5.54 5.54 0 0 0-.53-.3c.24.09.26.09.05.02-.28-.1-.58-.19-.88-.25.13.04-.38.02-.67.02-.09.02-.44.08-.54.11-.14.04-.27.08-.41.13-.04.02-.12.06-.25.13-.24.14-.47.27-.7.43.09-.05-.04.06-.19.21h4.73l-.05-.05c-.1-.1-.21-.19-.32-.28ZM20.42 191.69c-.58-.51-1.48-.97-2.63-1.12.23.05-1.36.04-.74-.04-.05 0-.93.08-.47.05-.08 0-.13.02-.17.04-.42.52-.94.92-1.52 1.16l-.1 2.37h7.18v-.02c-.3-1.09-.65-1.64-1.55-2.43Z"/><path class="cls-1" d="M16.4 190.63c-.06.03-.06.05 0 0ZM159.76 186.46c-.12.06-.08.04.01 0h-.01ZM124.14 184.16c-.13-.14-.28-.24-.43-.32.15.09.29.2.43.32ZM16.55 190.45s-.06.07-.09.11c.02-.03.05-.06.09-.11Z"/><path class="cls-1" d="M136.1 189.25c1.98-1.6 4.48-2.6 7.07-2.36 4.02.38 7.58 3.43 8.71 7.25h17.82c-.1-1.79.29-3.58 1.19-5.27 1.28-2.41 3.68-4.37 6.34-5.05 2.44-.63 5.11-.22 7.28 1.05l-.3-3.86-9.95-.05v-5.75c-3.46-.5-6.5-3.1-7.39-6.52h-10.99c.02.06.04.12.05.18 1.18 6.01-3.34 12.15-9.76 11.65-3.1-.24-5.9-1.8-7.53-4.48-1.3-2.14-1.73-4.9-1.09-7.34-6.95 0-16.33.01-25.4.04-1.63 2.31-4.22 4.08-6.86 4.53-3.32.57-6.56-.41-8.61-3.17-.3-.41-.56-.85-.78-1.3-5.79.03-10.37.07-12.52.13-1.74.04-5.01.07-9.14.09-.49 1.1-1.67 1.9-2.89 1.9-1.29 0-2.34-.79-2.83-1.88h-13c3.78 3.21 4 9.3.55 12.88-1.18 1.22-3.25 1.18-4.43 0-1.21-1.21-1.18-3.21 0-4.43.11-.13.17-.19.19-.2.06-.09.11-.18.17-.28.04-.06.07-.1.09-.13 0-.04.01-.08.03-.15.04-.16.15-1.05.15-.68v-.45c0 .09-.03-.4-.07-.53-.04-.16-.09-.32-.14-.47-.01-.02-.02-.05-.04-.08-.02-.04-.24-.36-.28-.44-.11-.1-.24-.23-.33-.31-.14-.05-.57-.28-.39-.24-.19-.06-.39-.11-.59-.15.68.17-.38.01-.56 0-.06 0-.11 0-.14-.01-.04.01-.08.03-.14.05-.07.02-.53.17-.69.21-.09.06-.28.16-.43.24-.02.03-.36.29-.41.33-.05.06-.09.11-.12.14-.07.11-.15.23-.21.35-.84 1.48-2.84 1.97-4.29 1.12-1.48-.86-1.96-2.82-1.12-4.29a8.27 8.27 0 0 1 2.2-2.5c-10.4-.03-18.72-.07-18.72-.07l-.47 11.66H15.4l-.17 4.01c2.82-.73 6.1.04 8.5 1.77a11.37 11.37 0 0 1 4.63 7.79h11.79c.85-2.53 3.22-4.69 5.77-5.47 4.17-1.27 8.98.85 10.74 4.87.09.2.16.4.22.61 2.05 0 3.73 0 4.85.01 2.81.01 9.81.02 17.85.02.38-4.55 4.77-7.73 9.2-6.86 1.67.33 2.61 2.32 2.19 3.85-.47 1.72-2.2 2.51-3.85 2.19.6.12-.2.07-.02 0-.12.03-.25.07-.36.11.46-.15-.02.04-.17.11-.05.04-.12.09-.22.17-.13.1-.29.3-.36.41v.02c14.2 0 29.03-.02 29.03-.02h17.92c.55-1.9 1.58-3.59 3.2-4.89Zm19.93-3.19c1.09-1.31 3.32-1.11 4.43 0 .04.04.07.08.1.11.15-.08.29-.17.43-.26.04-.03.06-.04.08-.05.03-.04.07-.08.12-.13.1-.11.21-.22.31-.33 0-.02.13-.25.22-.4.02-.05.05-.13.09-.22.02-.06.04-.11.06-.16v-.07c.01-.23.02-.45 0-.68.02.37-.4-.89-.21-.6-.06-.09-.17-.29-.23-.39-.1-.11-.31-.36-.34-.4-.05-.05-.11-.1-.16-.15-.01 0-.03-.02-.04-.03-.09-.05-.67-.35-.21-.16-1.58-.64-2.68-2.06-2.19-3.85.41-1.5 2.29-2.83 3.85-2.19 2.62 1.06 4.54 2.94 5.43 5.66.76 2.33.37 5.06-1.04 7.07-1.58 2.24-3.98 3.63-6.71 3.84-3.69.28-6.57-3.48-3.98-6.61Zm-115.38 1.72c-4.13 1.96-9.03.85-11.69-2.95-2.45-3.5-1.66-8.76 1.45-11.59 1.26-1.14 3.19-1.25 4.43 0 1.16 1.16 1.25 3.29 0 4.43-.18.16-.36.32-.52.51.06-.04-.27.48-.28.5-.04.08-.08.13-.1.17 0 .04 0 .1-.03.2 0 .04-.07.33-.11.48 0 .16-.03.43-.03.47 0 .19.14.88.01.36.06.23.11.47.19.7 0-.03.14.24.21.36.25.42.89.83 1.6 1.02.05.01.32.05.47.08h.48c.08 0 .13 0 .17.01.04-.02.1-.04.18-.06.05-.02.89-.34.38-.1 1.54-.73 3.37-.44 4.29 1.12.8 1.37.41 3.56-1.12 4.29Zm33.25 4.21c-4.39.98-9.1-1.18-10.88-5.4-1.78-4.22-.03-9.1 3.74-11.56 1.42-.93 3.47-.28 4.29 1.12.88 1.51.29 3.36-1.12 4.29-.42.27-1.06 1.1-1.19 1.66 0 .04-.14.65-.14.56-.01.23 0 .45-.01.68 0 .09 0 .15-.01.18.02.04.04.09.06.17.02.06.19.6.17.55.29.67.65.92 1.5 1.43.08.05.13.08.17.11.03 0 .09.01.19.04.22.06.44.12.66.17-.09-.03.52 0 .57 0h.13c.04-.01.1-.03.22-.06 1.66-.37 3.39.49 3.85 2.19.43 1.57-.54 3.49-2.19 3.85Zm17.65-9.5c-1.55.43-3.52-.53-3.85-2.19-.05-.26-.11-.51-.19-.76 0 .02-.2-.47-.25-.56 0-.02-.37-.51-.33-.5a7.12 7.12 0 0 0-.47-.48c.09.1-.42-.3-.47-.33l-.27-.15c.23.08.25.09.04.01-.17-.06-.36-.11-.54-.16 0 .02-.21 0-.39-.01-.05.02-.21.04-.34.06-.08.05-.42.19-.48.22s-.1.05-.13.07c.03 0 .04 0-.04.07-.11.1-.2.2-.3.3-.08.12-.16.25-.23.38.02-.02-.04.16-.11.32 0 .05-.02.16-.04.28.03.09.08.4.11.5.54 1.61-.62 3.42-2.19 3.85-1.7.47-3.32-.58-3.85-2.19-1.45-4.34 1.86-9.26 6.26-10.02 4.75-.82 9.33 2.78 10.25 7.41.33 1.67-.46 3.38-2.19 3.85Zm23.25 1.28c-1.22 1.22-3.21 1.17-4.43 0-.11-.09-.17-.15-.2-.18-.1-.06-.2-.13-.3-.19-.15-.08-.23-.12-.25-.13-.11-.04-.21-.07-.32-.1-.11-.03-.59-.11-.55-.12-.23-.01-.45 0-.68 0 .19 0-.38.05-.51.09-.17.04-.34.1-.51.15-.02.01-.05.02-.08.04-.07.04-.41.27-.58.37-.07.1-.28.32-.34.36-.13.24-.3.58-.27.45-.06.2-.11.41-.17.62 0 .02 0 .04-.01.06-.01.16-.02.32-.02.49 0 .08.06.5.05.54.05.21.1.41.17.62-.02-.11.22.47.28.59l.15.24c.03.03.06.07.11.12.1.11.21.2.32.3.03.02.07.05.13.09 1.42.93 2.02 2.76 1.12 4.29-.82 1.41-2.87 2.05-4.29 1.12-4.22-2.75-5.76-8.91-2.69-13.11 3.24-4.43 9.92-4.89 13.86-1.13 1.23 1.17 1.18 3.25 0 4.43Zm13.46 4.62c-2.55 1.75-6.08 2.3-8.56.19-1.29-1.1-1.12-3.31 0-4.43 1.06-1.06 2.55-1.11 3.77-.45.33-.09.93-.26.55-.11.81-.33.97-.5 1.4-.92.03-.03.43-.48.41-.44.19-.27.36-.56.51-.86-.12.23.19-.53.22-.64.03-.12.06-.24.09-.37 0-.05 0-.11.01-.18v-.62c0-.03-.01-.06-.02-.1-.07-.26-.13-.53-.22-.78.04.15-.38-.65-.43-.74-.06-.1-.09-.15-.11-.19-.03-.02-.09-.07-.17-.15-.08-.07-.72-.62-.64-.59-.27-.18-.55-.35-.85-.49h-.02c-.18-.07-.36-.13-.54-.17-.26-.05-.35-.07-.28-.07-.14-.01-.28-.02-.43-.02-1.7-.05-3.13-1.39-3.13-3.13s1.44-3.18 3.13-3.13c6.02.18 10.78 5.65 9.81 11.65-.45 2.76-2.22 5.19-4.5 6.75ZM183.23 192.42l-.39-.77c-.12-.22-.82-.95-1.04-1.09-.3-.19-.61-.39-.93-.54.03.03-.56-.16-.57-.16-.21-.04-.31-.06-.3-.07-.13 0-.27-.02-.4-.02s-.27 0-.41.01c0 0-.09.03-.3.07-1.02.37-1.85.92-2.44 1.9-.1.17-.19.33-.27.51-.02.04-.03.09-.06.16-.04.13-.26 1.27-.2.68-.04.43-.06.73-.01 1.04h7.8a4.11 4.11 0 0 1-.3-1.17c.05.49-.1-.23-.18-.55Z"/><path class="cls-1" d="M143.54 170.57c.04-.11 0 .45 0 .73.03-.02.15.75.18.87.03.13.04.19.04.22.02.02.06.08.13.2.33.54.57.92 1.05 1.18.01 0 .53.24.55.27.25.06.79.18.78.2.27 0 .9 0 .81.03.29-.04.58-.13.86-.22.36-.12.41-.15.16-.07.17-.09.33-.18.48-.29-.1.05.34-.34.54-.52 0-.04.36-.53.4-.62.05-.09.09-.18.13-.26-.01.01.02-.09.1-.3.13-.63.21-1.03.13-1.47-.12-.63-.09-1.27.1-1.85h-5.97c0 .27-.05.54-.15.8-.13.35-.26.71-.33 1.08ZM174.25 168.69h-.11l.11.07v-.07Z"/><path class="cls-9" d="M23.69 186.34c-2.4-1.73-5.68-2.49-8.5-1.77l-.3 7.2c.58-.23 1.1-.64 1.52-1.16.04-.02.1-.03.17-.04-.46.03.42-.05.47-.05-.63.08.96.09.74.04 1.15.16 2.05.62 2.63 1.12.9.79 1.25 1.33 1.55 2.43v.02h6.35c-.39-3.06-2.03-5.91-4.63-7.79Zm-7.3 4.29c-.06.05-.06.03 0 0Zm.07-.07s.06-.07.09-.11c-.03.04-.06.08-.09.11ZM37.49 182.37c.51-.24-.32.09-.38.1-.09.03-.14.05-.18.06-.04 0-.09 0-.17-.01h-.48c-.15-.03-.43-.07-.47-.08-.71-.19-1.35-.6-1.6-1.02-.07-.12-.21-.39-.21-.36-.08-.23-.13-.46-.19-.7.13.52-.01-.17-.01-.36 0-.04.02-.31.03-.47.04-.15.1-.44.11-.48.02-.1.02-.16.03-.2.02-.03.06-.09.1-.17.01-.02.34-.54.28-.5.16-.18.34-.35.52-.51 1.25-1.14 1.16-3.27 0-4.43-1.25-1.25-3.18-1.14-4.43 0-3.11 2.83-3.9 8.09-1.45 11.59 2.66 3.8 7.56 4.91 11.69 2.95 1.53-.73 1.93-2.92 1.12-4.29-.92-1.56-2.75-1.85-4.29-1.12ZM45.88 188.66c-2.55.78-4.92 2.94-5.77 5.47h16.73a4.44 4.44 0 0 0-.22-.61c-1.76-4.01-6.58-6.13-10.74-4.87ZM42.29 171.48c-.83 1.47-.35 3.42 1.12 4.29 1.45.85 3.45.35 4.29-1.12.06-.12.13-.24.21-.35.03-.03.07-.08.12-.14.05-.04.4-.3.41-.33.15-.08.33-.18.43-.24.17-.04.62-.19.69-.21.06-.02.11-.03.14-.05.03 0 .08 0 .14.01.18 0 1.24.16.56 0 .2.05.4.09.59.15-.18-.04.26.19.39.24.08.08.22.21.33.31.04.08.26.4.28.44.02.03.03.06.04.08.05.16.1.32.14.47.03.14.06.62.07.53v.45c0-.37-.11.53-.15.68-.02.07-.02.11-.03.15-.02.03-.05.07-.09.13-.05.09-.11.19-.17.28-.02 0-.08.07-.19.2-1.18 1.22-1.21 3.22 0 4.43 1.18 1.18 3.25 1.22 4.43 0 3.45-3.57 3.23-9.66-.55-12.88-3.75 0-7.5-.02-11.01-.02-.88.67-1.63 1.51-2.2 2.5ZM72.24 185.95c-.12.02-.18.04-.22.06h-.13c-.05 0-.66-.04-.57 0-.22-.05-.44-.11-.66-.17a.775.775 0 0 0-.19-.04c-.03-.02-.08-.06-.17-.11-.84-.51-1.2-.76-1.5-1.43.03.04-.15-.49-.17-.55a.796.796 0 0 0-.06-.17c0-.03.01-.09.01-.18 0-.23 0-.46.01-.68 0 .09.13-.52.14-.56.12-.56.77-1.38 1.19-1.66 1.41-.92 2.01-2.78 1.12-4.29-.82-1.41-2.87-2.05-4.29-1.12-3.76 2.46-5.51 7.34-3.74 11.56 1.78 4.22 6.49 6.38 10.88 5.4 1.65-.37 2.62-2.28 2.19-3.85-.47-1.7-2.2-2.56-3.85-2.19ZM83.48 171.24c-4.4.76-7.71 5.68-6.26 10.02.54 1.61 2.16 2.65 3.85 2.19 1.57-.43 2.73-2.24 2.19-3.85-.03-.1-.08-.41-.11-.5.01-.11.03-.22.04-.28.06-.16.13-.34.11-.32.07-.13.15-.26.23-.38.09-.11.19-.21.3-.3.08-.07.07-.08.04-.07.03-.02.07-.04.13-.07.06-.03.4-.18.48-.22.13-.02.29-.05.34-.06.18.01.4.03.39.01.18.04.36.09.54.16.21.07.19.07-.04-.01l.27.15c.05.03.56.43.47.33.17.15.32.31.47.48-.04-.02.32.48.33.5.05.08.24.58.25.56.07.25.14.5.19.76.33 1.66 2.31 2.61 3.85 2.19 1.73-.48 2.52-2.19 2.19-3.85-.92-4.63-5.51-8.22-10.25-7.41ZM85.95 194.14c.07-.12.23-.31.36-.41.11-.08.17-.13.22-.17.15-.08.63-.26.17-.11.12-.04.24-.08.36-.11-.18.07.61.12.02 0 1.66.32 3.38-.47 3.85-2.19.42-1.54-.52-3.53-2.19-3.85-4.43-.87-8.82 2.32-9.2 6.86h6.4v-.02ZM100.94 180.48c-3.07 4.2-1.53 10.36 2.69 13.11 1.42.92 3.46.29 4.29-1.12.89-1.52.3-3.36-1.12-4.29-.05-.03-.09-.06-.13-.09-.11-.1-.21-.2-.32-.3-.04-.05-.08-.09-.11-.12-.05-.08-.11-.16-.15-.24-.06-.11-.3-.7-.28-.59-.06-.2-.12-.41-.17-.62 0-.04-.05-.46-.05-.54 0-.16 0-.32.02-.49 0-.02 0-.04.01-.06.06-.21.11-.41.17-.62-.03.13.14-.21.27-.45.06-.04.27-.26.34-.36.16-.1.5-.33.58-.37.03-.01.05-.03.08-.04.17-.06.34-.11.51-.15.13-.03.71-.09.51-.09.23 0 .45-.01.68 0-.04 0 .44.09.55.12.11.03.21.06.32.1.01.01.09.05.25.13.11.06.2.13.3.19.02.03.09.09.2.18 1.22 1.17 3.21 1.22 4.43 0 1.22-1.22 1.23-3.26 0-4.43-3.94-3.75-10.63-3.29-13.86 1.13ZM71.33 170.89c1.22 0 2.4-.79 2.89-1.9-1.77 0-3.7.01-5.73.01.49 1.09 1.54 1.88 2.83 1.88ZM105.29 173.25c2.65-.45 5.24-2.21 6.86-4.53-5.78.01-11.44.03-16.26.06.22.45.48.89.78 1.3 2.05 2.75 5.29 3.73 8.61 3.17ZM122.95 170c-1.69-.05-3.13 1.48-3.13 3.13 0 1.74 1.43 3.08 3.13 3.13.14 0 .28 0 .43.02-.07 0 .02.02.28.07.18.05.36.1.54.17h.02c.29.15.58.32.85.5-.08-.03.56.52.64.59.09.08.14.12.17.15.02.04.05.1.11.19s.47.89.43.74c.09.26.16.52.22.78 0 .04.01.07.02.1.01.21.02.41 0 .62 0 .07-.01.13-.01.18-.02.12-.05.25-.09.37-.03.12-.34.87-.22.64-.15.3-.32.59-.51.86.02-.05-.38.4-.41.44-.43.43-.59.6-1.4.92.38-.15-.22.02-.55.11-1.21-.66-2.71-.61-3.77.45-1.12 1.12-1.29 3.33 0 4.43 2.47 2.11 6.01 1.55 8.56-.19 2.28-1.56 4.05-3.98 4.5-6.75.97-5.99-3.79-11.47-9.81-11.65Zm.76 13.85c.15.07.3.18.43.32-.14-.12-.28-.22-.43-.32ZM143.16 186.89c-2.58-.24-5.08.76-7.07 2.36-1.61 1.3-2.65 2.99-3.2 4.89h7.13c.16-.15.28-.26.19-.21.23-.15.46-.29.7-.43.13-.06.22-.11.25-.13.13-.05.27-.09.41-.13.09-.03.45-.09.54-.11.29 0 .79.02.67-.02.3.06.6.14.88.25.21.07.19.07-.05-.02.18.09.36.19.53.3.14.1.22.15.25.17.11.09.21.18.32.28 0 0 .02.03.05.05h7.12c-1.13-3.82-4.69-6.87-8.71-7.25ZM138.64 176.03c1.63 2.69 4.43 4.24 7.53 4.48 6.42.5 10.94-5.64 9.76-11.65-.01-.06-.03-.12-.05-.18h-5.9c-.19.58-.22 1.21-.1 1.85.09.44 0 .83-.13 1.47-.08.22-.11.32-.1.3-.04.09-.09.18-.13.26-.05.09-.4.58-.4.62-.2.19-.63.57-.54.52-.16.1-.32.2-.48.29.25-.08.2-.05-.16.07-.28.09-.57.17-.86.22.09-.03-.54-.02-.81-.03.02-.02-.53-.14-.78-.2-.02-.03-.54-.27-.55-.27-.48-.26-.72-.64-1.05-1.18-.07-.12-.11-.17-.13-.2 0-.02 0-.09-.04-.22-.03-.11-.15-.89-.18-.87 0-.28.04-.84 0-.73.07-.37.19-.73.33-1.08.1-.26.15-.53.15-.8h-6.47c-.64 2.44-.21 5.2 1.09 7.34ZM160.01 192.67c2.74-.21 5.14-1.59 6.71-3.84 1.41-2.01 1.8-4.74 1.04-7.07-.89-2.72-2.81-4.6-5.43-5.66-1.57-.64-3.44.69-3.85 2.19-.49 1.79.61 3.22 2.19 3.85-.46-.19.12.11.21.16.02.01.03.02.04.03.05.05.11.1.16.15.03.04.25.29.34.4.06.11.17.3.23.39-.18-.3.23.97.21.6.02.23.02.46 0 .68v.07s-.04.09-.06.16c-.03.08-.07.17-.09.22-.09.15-.23.38-.22.4-.1.11-.21.22-.31.33-.05.06-.09.1-.12.13-.02 0-.04.02-.08.05-.14.09-.28.18-.43.26-.03-.04-.06-.08-.1-.11-1.11-1.11-3.35-1.31-4.43 0-2.59 3.13.29 6.89 3.98 6.61Zm-.24-6.21h.01c-.09.04-.13.06-.01 0ZM174.25 175.21v-6.45s-.07-.05-.11-.07h-7.28c.89 3.42 3.92 6.02 7.39 6.52ZM177.22 183.82c-2.65.68-5.05 2.65-6.34 5.05-.9 1.69-1.29 3.48-1.19 5.27h6.21c-.04-.3-.03-.61.01-1.04-.06.59.17-.55.2-.68.02-.06.04-.11.06-.16.09-.17.17-.34.27-.51.58-.99 1.42-1.53 2.44-1.9.21-.04.3-.06.3-.07.13 0 .27-.01.41-.01s.27 0 .4.02c0 0 .09.03.3.07 0 0 .6.19.57.16.32.15.63.34.93.54.22.14.92.86 1.04 1.09.05.1.37.79.39.77.08.32.23 1.03.18.55.04.41.15.81.3 1.17h1.5l-.71-9.27c-2.17-1.27-4.83-1.68-7.28-1.05Z"/><path class="cls-9" d="M114.5 48.21c-.09-.24-1.37-2.61-3.75-5.56a.472.472 0 0 1-.11-.25c-.28-3.09-.71-5.14-.71-5.14a.852.852 0 0 0-.73-.66l-2.47-.3h-.06c-.29 0-.52.23-.52.52v.86s-.01.03-.03.03h-.02a35.27 35.27 0 0 0-4.98-3.76c-.35-.24-.77-.37-1.22-.37-.45 0-.87.13-1.22.37-8.51 5.26-13.2 13.8-13.38 14.27a.847.847 0 0 0 .56 1.18l2.45.47c.33.09.58.37.61.72.02.43.48 10.1 1.07 12.61.1.36.43.63.82.63h.02c1.43-.04 2.74-.06 4.16-.08h.12c.15 0 .27-.13.27-.28-.06-.85-.18-2.78-.28-4.82v-.17a.51.51 0 0 0-.25-.42 2.653 2.653 0 0 1-1.29-2.14c-.13-3.39-.19-7.31 0-10.38.02-.26.22-.46.48-.46.27 0 .5.21.5.49v.04c-.12 2.04-.13 4.46-.09 6.85a.58.58 0 0 0 1.16-.02c-.04-2.4-.03-4.83.09-6.88.02-.26.22-.46.48-.46.27 0 .5.21.5.49v.04c-.12 2.03-.13 4.44-.09 6.81 0 .32.27.58.59.57.32 0 .58-.27.57-.59-.04-2.39-.03-4.81.09-6.85.02-.26.22-.46.48-.46.27 0 .5.21.5.49v.04c-.18 2.98-.12 6.76 0 10.07v.11c0 .9-.45 1.71-1.15 2.18-.12.09-.21.22-.22.38 0 0-.06.51.16 2.97.11 1.07.19 1.82.22 2.16.02.13.12.23.26.23h5.12c.13.01.24-.09.26-.21.32-2.95.4-4.61.4-4.61 0-.15-.11-.26-.26-.28l-1.69-.23c-.27-.05-.43-.21-.48-.41-.04-.12-.02-.26-.02-.26.68-9.84 3.93-13.16 3.93-13.16.1-.1.16-.14.16-.14.09-.06.19-.1.3-.1.22 0 .41.14.48.33 0 0 .03.07.04.24.28 3.09.14 8.36-.03 12.46-.15 3.49-.32 6.22-.32 6.22 0 .12.09.21.2.21.92.02 1.83.03 2.79.06h.02c.39 0 .72-.27.82-.63.58-2.51 1.05-12.18 1.07-12.61.04-.34.28-.63.61-.72l2.45-.47a.849.849 0 0 0 .56-1.18Z" id="Big_Logo"/></g><g id="Outline"><path class="cls-5" d="M134.95 94.09c-.03-.33-6.1-.04-15.9.7-1.22.1-2.51.2-3.84.3-.67.05-1.35.11-2.04.16-.39.04-.58.04-.86.01-.26-.03-.51-.1-.75-.2-.48-.21-.89-.57-1.16-1.02-.04-.07-.18-.34-.33-.54-.15-.2-.3-.4-.48-.57-.36-.35-.77-.66-1.27-.87-.48-.21-1.11-.32-1.66-.25-.5.05-.99.19-1.44.38-.91.38-1.64.97-2.29 1.55-.64.58-1.22 1.22-1.77 1.75-.53.51-1.13.96-1.75 1.27-.62.31-1.23.43-1.71.31-.5-.11-.91-.44-1.3-1.05-.39-.6-.72-1.41-1.18-2.28-.24-.43-.5-.89-.86-1.33a5.1 5.1 0 0 0-1.38-1.17c-1.12-.62-2.4-.67-3.5-.44-1.1.24-2.1.71-2.99 1.35-1.75 1.32-2.8 2.92-4 4.12-.29.3-.59.58-.9.83-.15.13-.31.22-.47.33-.16.1-.3.23-.48.3-.34.17-.67.35-1.04.46-.35.15-.73.21-1.1.29-1.51.27-3.09.07-4.49-.44-1.4-.54-2.63-1.41-3.49-2.51a6.735 6.735 0 0 1-1.35-3.77c-.07-1.34.27-2.67.82-3.84 1.12-2.36 3.16-4.04 5.28-4.54 2.1-.53 4.28.1 5.47 1.26.6.58.97 1.31 1.05 1.97.06.69-.11 1.37-.39 1.92-.56 1.11-1.45 1.66-2.08 1.8-.64.15-1.03.04-1.06.15-.01.04.07.1.25.18.09.04.21.09.35.11.15.02.32.06.52.04.79 0 2.01-.52 2.83-1.81.4-.64.73-1.47.72-2.45-.03-1-.48-2.02-1.22-2.84-.75-.83-1.78-1.46-2.96-1.81a7.764 7.764 0 0 0-3.85-.19c-2.7.51-5.27 2.5-6.71 5.32-.72 1.41-1.19 3.05-1.15 4.79.02 1.73.59 3.56 1.7 5.05 1.12 1.48 2.69 2.61 4.44 3.32 1.77.67 3.74.95 5.73.62.49-.1.99-.19 1.47-.38.49-.14.95-.38 1.42-.61.24-.1.44-.27.66-.41.21-.15.45-.28.64-.45.4-.32.77-.66 1.11-1.01 1.36-1.39 2.43-2.91 3.7-3.85.63-.46 1.35-.79 2.06-.94.71-.14 1.36-.08 1.86.19.49.27.91.79 1.29 1.52.39.71.73 1.57 1.31 2.45.55.87 1.55 1.8 2.77 2.04 1.23.26 2.37-.09 3.26-.54.9-.47 1.64-1.06 2.29-1.71.63-.63 1.15-1.22 1.7-1.74.54-.51 1.09-.94 1.64-1.18.27-.12.55-.21.82-.24.21-.03.38 0 .61.07a2.1 2.1 0 0 1 .87.68c.08.11.11.17.26.42.52.82 1.29 1.44 2.15 1.78.43.17.87.28 1.32.31.43.05.94 0 1.24-.05.69-.08 1.37-.16 2.04-.24 1.33-.16 2.61-.31 3.83-.45 9.75-1.18 15.76-2.07 15.73-2.4ZM53.58 15.3c-.32-.09-1.25 2.27-2.08 5.26-.83 3-1.24 5.5-.91 5.58.32.09 1.25-2.27 2.08-5.26.83-3 1.24-5.5.91-5.58ZM77.25 18.37c.02-.16-.48-.39-1.35-.48-.87-.09-2.1 0-3.37.46s-2.28 1.18-2.88 1.81c-.61.63-.85 1.13-.73 1.24.26.24 1.76-1.11 4.03-1.91 2.25-.84 4.27-.77 4.31-1.12ZM56.02 41.58c-.09-.32-2.15-.03-4.6.65-2.45.68-4.37 1.49-4.28 1.81.09.32 2.15.03 4.6-.65 2.45-.68 4.37-1.49 4.28-1.81ZM28.31 34.19c-.33.01-.48 3.56-.33 7.92.15 4.36.54 7.89.87 7.87.33-.01.48-3.56.33-7.92-.15-4.36-.54-7.89-.87-7.87ZM13.27 59.94c-.32.09.49 3.9 1.81 8.51 1.32 4.61 2.66 8.26 2.98 8.17.32-.09-.49-3.9-1.81-8.51-1.32-4.61-2.66-8.26-2.98-8.17ZM10.93 100.9c-.3.15 1.13 3.48 3.19 7.42 2.06 3.95 3.96 7.02 4.26 6.86.3-.15-1.13-3.48-3.19-7.42-2.06-3.95-3.96-7.02-4.26-6.86ZM45.86 64.19c-.15-.3-2.92.8-6.18 2.46-3.26 1.65-5.78 3.24-5.63 3.53.15.3 2.92-.8 6.18-2.46 3.26-1.65 5.78-3.24 5.63-3.53ZM29.82 99.79c-.31-.13-1.45 1.86-2.54 4.45-1.1 2.59-1.74 4.79-1.43 4.92.31.13 1.45-1.86 2.54-4.45 1.1-2.59 1.74-4.79 1.43-4.92ZM20.99 139.29c-.17.29 1.9 1.84 4.62 3.48 2.73 1.64 5.07 2.73 5.25 2.44.17-.29-1.9-1.84-4.62-3.48-2.73-1.64-5.07-2.73-5.25-2.44Z"/><ellipse class="cls-5" cx="48.62" cy="93.65" rx=".6" ry="13.57"/><ellipse class="cls-5" cx="151.7" cy="93.65" rx=".6" ry="13.57"/><path class="cls-5" d="M48.5 137.32c.33-.01.5-2.57.38-5.7-.13-3.13-.5-5.66-.83-5.65-.33.01-.5 2.57-.38 5.7.13 3.13.5 5.66.83 5.65ZM48.65 101.7c0-.33-3.54-.64-7.9-.68-4.37-.04-7.91.19-7.92.53 0 .33 3.54.64 7.9.68s7.91-.19 7.92-.53ZM48.9 81.85c0-.33-3.55-.57-7.91-.52-4.37.04-7.9.35-7.9.68 0 .33 3.55.57 7.91.52 4.37-.04 7.9-.35 7.9-.68ZM48.9 85.2c0-.33-3.55-.57-7.91-.52-4.37.04-7.9.35-7.9.68 0 .33 3.55.57 7.91.52 4.37-.04 7.9-.35 7.9-.68ZM48.9 88.56c0-.33-3.55-.57-7.91-.52-4.37.04-7.9.35-7.9.68 0 .33 3.55.57 7.91.52 4.37-.04 7.9-.35 7.9-.68ZM151.55 167.42c.33 0 .67-8.94.75-19.98.08-11.04-.12-19.99-.45-19.99s-.67 8.94-.75 19.98.12 19.99.45 19.99ZM178.06 137.46c-.25-.23-2.51 1.84-5.05 4.6-2.54 2.77-4.41 5.19-4.16 5.42.25.23 2.51-1.84 5.05-4.6 2.54-2.77 4.41-5.19 4.16-5.42ZM169.22 100.22c-.3.14.47 2.45 1.73 5.16s2.53 4.79 2.83 4.65c.3-.14-.47-2.45-1.73-5.16s-2.53-4.79-2.83-4.65ZM189.09 103.41c-.16-.07-.65.7-1.41 1.93l-2.97 4.84c-1.15 1.91-2.12 3.7-2.69 5.07-.58 1.36-.8 2.26-.65 2.32.16.07.65-.7 1.41-1.93l2.97-4.84c1.15-1.91 2.12-3.7 2.69-5.07.58-1.36.8-2.26.65-2.32ZM184.41 63.32c-.32-.09-1.48 3.04-2.59 6.98-1.11 3.95-1.74 7.22-1.42 7.31.32.09 1.48-3.04 2.59-6.98 1.11-3.95 1.74-7.22 1.42-7.31ZM154.18 64.38c-.14.3 2.28 1.77 5.4 3.27 3.13 1.51 5.78 2.49 5.93 2.19s-2.28-1.77-5.4-3.27c-3.13-1.51-5.78-2.49-5.93-2.19ZM172.35 33.7c-.33 0-.71 3.74-.85 8.37-.13 4.63.03 8.4.36 8.41s.71-3.74.85-8.37c.13-4.63-.03-8.4-.36-8.41Z"/><ellipse class="cls-5" cx="145.99" cy="42.87" rx=".6" ry="6.95" transform="rotate(-72.28 145.998 42.865)"/><path class="cls-5" d="M145.71 14.77c-.3.14.57 2.68 1.96 5.66 1.38 2.99 2.75 5.3 3.05 5.16.3-.14-.57-2.68-1.96-5.66s-2.75-5.3-3.05-5.16ZM121.24 18.6c-.09.32 1.93 1.17 4.5 1.89 2.58.72 4.74 1.05 4.83.73s-1.93-1.17-4.5-1.89c-2.58-.72-4.74-1.05-4.83-.73Z"/><path class="cls-12" d="M54.55 146.74c-.02-.33-1.81-.49-3.99-.35s-3.93.52-3.91.85c.02.33 1.81.49 3.99.35s3.93-.52 3.91-.85ZM57.01 154.59c-.02-.33-2.13-.49-4.72-.36s-4.67.52-4.66.85c.02.33 2.13.49 4.72.36s4.67-.52 4.66-.85Z"/><ellipse class="cls-12" cx="53.56" cy="162.49" rx="4.44" ry=".6"/><path class="cls-5" d="M174.37 180.96c0-.17-2.08-.3-5.84-.4-3.76-.1-9.2-.17-15.93-.2-13.45-.08-32.02 0-52.53-.02-20.51-.03-39.08-.05-52.52-.06-6.72.01-12.16.06-15.93.14-3.76.08-5.84.21-5.85.38s2.07.36 5.83.56c3.76.21 9.2.42 15.92.62 13.44.4 32.02.76 52.55.77 20.53.01 39.1-.33 52.55-.69 6.72-.18 12.16-.38 15.92-.57 3.76-.19 5.83-.37 5.83-.54ZM166.45 103.57c0-.33-3.27-.64-7.3-.68-4.04-.04-7.31.19-7.32.53s3.27.64 7.3.68 7.31-.19 7.32-.53ZM166.68 83.72c0-.33-3.28-.57-7.31-.52s-7.3.35-7.3.68 3.28.57 7.31.52c4.04-.04 7.3-.35 7.3-.68ZM166.68 87.08c0-.33-3.28-.57-7.31-.52-4.04.04-7.3.35-7.3.68s3.28.57 7.31.52c4.04-.04 7.3-.35 7.3-.68ZM166.68 90.44c0-.33-3.28-.57-7.31-.52-4.04.04-7.3.35-7.3.68s3.28.57 7.31.52c4.04-.04 7.3-.35 7.3-.68Z"/><path class="cls-6" d="M47.75 117.54c.25.22 1.86-1.22 3.59-3.22 1.73-2 2.93-3.79 2.68-4.01s-1.86 1.22-3.59 3.22c-1.73 2-2.93 3.79-2.68 4.01ZM58.7 117.93c.3.15 1.34-1.36 2.34-3.36.99-2 1.55-3.75 1.25-3.89s-1.34 1.36-2.34 3.36c-.99 2-1.55 3.75-1.25 3.89ZM68.34 117.95c.32.1 1.1-1.51 1.75-3.6.65-2.09.92-3.86.6-3.96-.32-.1-1.1 1.51-1.75 3.6s-.92 3.86-.6 3.96ZM77.43 117.58c.33.05.82-1.46 1.1-3.37.27-1.91.23-3.49-.1-3.54-.33-.05-.82 1.46-1.1 3.37-.27 1.91-.23 3.49.1 3.54ZM86.34 117.25c.33.02.68-1.52.77-3.43s-.1-3.47-.44-3.48-.68 1.52-.77 3.43c-.09 1.91.1 3.47.44 3.48ZM94.52 116.59c.33-.02.53-1.36.44-2.99-.09-1.64-.43-2.95-.77-2.93-.33.02-.53 1.36-.44 2.99.09 1.64.43 2.95.77 2.93ZM105.1 117.57c.33-.04.43-1.4.22-3.03s-.65-2.92-.98-2.88-.43 1.4-.22 3.03.65 2.92.98 2.88ZM113.38 117.56c.33-.07.27-1.53-.12-3.25s-.97-3.05-1.3-2.98c-.33.07-.27 1.53.12 3.25s.97 3.05 1.3 2.98ZM123.2 117.56c.31-.12-.11-1.98-.93-4.16s-1.75-3.85-2.06-3.73c-.31.12.11 1.98.93 4.16.83 2.18 1.75 3.85 2.06 3.73ZM130.71 116.59c.31-.11.05-1.67-.58-3.49-.64-1.82-1.41-3.2-1.72-3.09-.31.11-.05 1.67.58 3.49.64 1.82 1.41 3.2 1.72 3.09ZM141.41 117.15c.29-.17-.45-1.99-1.65-4.06-1.2-2.08-2.41-3.63-2.7-3.46-.29.17.45 1.99 1.65 4.06 1.2 2.08 2.41 3.63 2.7 3.46ZM150.39 117.28c.29-.16-.32-1.82-1.37-3.7-1.05-1.88-2.13-3.28-2.42-3.11s.32 1.82 1.37 3.7c1.05 1.88 2.13 3.28 2.42 3.11Z"/></g></svg>