<svg xmlns="http://www.w3.org/2000/svg" viewBox="0 0 200 200"><defs><style>.cls-1{fill:none}.cls-3{fill:#e87003}.cls-4{fill:#e4c7bd}.cls-5{fill:#fff}.cls-7{fill:#ffa2af}.cls-8{fill:#ffb5c4}.cls-10{fill:#ff5000}.cls-12{fill:#ff8000}.cls-14{fill:#a0b4b5}.cls-15{fill:#c1dade}.cls-17{fill:#70486d}.cls-18{fill:#5b3d5b}.cls-19{fill:#78577a}</style></defs><path d="M186.28 57.33c-7.57-11.18-21.37-10.65-32.96-9.52-7.43-21.73-24.69-43.65-50.59-37.96-14.9 1.34-29.51 9.33-33.55 24.63C39.69 9.99 15.39 45.07 11.76 73.1c18.45 23.68 213.09 55.87 174.52-15.78Z" style="fill:#efedea" id="BG_Strong"/><g id="Illustrations"><path d="m79.63 47.51-1.58-1.68s-.65-2.96-.46-3.77c.09-.38.17-.71.24-.95.12-.05.22-.13.28-.24.17-.29.06-.64-.22-.82-.92-.61-2.06-.97-3.15-.61-1.09.36-1.76 1.2-2.33 2.13-.44.72-.9 1.61-1.71 1.94-.37.15-.71.12-1.04-.07-.36-.22-.65-.56-.95-.88-1.39-1.51-3.34-2.59-5.45-2.44-1.09.08-2.12.45-2.97 1.12-.74.59-1.27 1.38-1.62 2.24-.36.87-.52 1.8-.55 2.73-.04 1.02.05 2.11.36 3.09.63 2.02 2.13 3.77 4 4.74 1.88.97 4 1.4 5.95.53.99-.44 1.69-1.24 2.33-2.09.58-.77 1.16-1.58 2.05-2.01.35-.17.74-.26 1.1-.18.48.1.87.44 1.29.66.6.32 1.29.45 1.97.4 1.47-.09 2.91-.9 3.4-2.35.13-.37.17-.77.17-1.15 0-.62-.8-.74-1.09-.35Z" style="fill:#f6c243"/><path d="M57.08 186.51c-2.97 0-5.95 0-8.92.02a.37.37 0 0 0-.11-.05c-2.95-1.05-5.34-3.21-7.1-5.76-1.59-2.31-2.73-5.7-5.84-6.32-1.19-.24-2.45.13-3.27 1.04-.36.4-.6.87-.69 1.4-.13.79.23 1.47.28 2.24.1 1.82-1.9 2.8-3.47 2.55-1.71-.26-3.12-1.49-4.2-2.75-1.99-2.31-3.2-5.17-5.16-7.51-1.91-2.26-4.47-4.29-7.29-5.26-2.64-.9-5.62-.28-7.28 2.08-1.71 2.44-1.12 5.32.48 7.61.9 1.3 2.03 2.5 2.64 3.98.42 1.02.41 1.99-.87 2.2-.88.15-1.79-.1-2.67.02-1.32.19-2.26 1.15-2.13 2.52.13 1.4 1.34 2.51 2.46 3.23.04.03.09.06.15.08.11.05.22.06.32.04 13.45 0 26.91-.1 40.36-.15 4.1-.01 8.21-.02 12.31-.02.77 0 .77-1.2 0-1.2Z" style="fill:#e2ded9" id="Layer_8"/><g id="Layer_6"><path class="cls-14" d="M87.52 168.04c-.09-1.3-.38-2.56-.8-3.79-.77-2.29-1.77-4.56-3.13-6.57-2.31-3.42-5.65-6.06-9.47-7.61-3.84-1.57-8.1-1.89-12.14-.96-4.05.94-7.84 3.11-10.65 6.18-2.89 3.16-4.65 7.22-5.17 11.45-.52 4.23.27 8.34 2.24 12.01a20.84 20.84 0 0 0 7.8 8.09s.02.01.02.02c.86.58 1.8 1.01 2.77 1.33.07.03.15.06.22.09.05.02.09.02.14.03.99.3 2.02.49 3.04.61 1.1.13 2.21.19 3.32.21 1.11.02 2.26 0 3.39-.11 2.3-.23 4.53-.81 6.63-1.78 1.96-.9 3.81-2.09 5.45-3.48 1.61-1.37 3.02-3.01 4.03-4.87 1.16-2.15 1.77-4.57 2.11-6.97.18-1.28.28-2.57.19-3.86Zm-25.29 11.54c-.54-.17-1.04-.41-1.51-.73-.01 0-.03-.01-.04-.02-1.27-.82-2.4-1.89-3.27-3.1-1.32-1.81-2.16-4.08-2.2-6.42-.04-2.34.66-4.83 2.03-6.84 1.37-2.01 3.26-3.39 5.43-4.19 2.17-.8 4.58-.96 6.84-.37 2.24.59 4.29 1.86 5.82 3.61.84.96 1.48 2.07 2 3.24.56 1.27 1.04 2.62 1.07 4.02.03 1.4-.23 2.84-.66 4.18a8.702 8.702 0 0 1-1.86 3.21c-1.64 1.8-3.92 3.14-6.3 3.68-1.24.28-2.51.32-3.78.28-1.2-.04-2.41-.17-3.55-.54ZM198.99 168.43c-.06-1.3-.31-2.58-.7-3.82-.74-2.35-1.77-4.68-3.12-6.74-2.28-3.47-5.63-6.15-9.45-7.75a20.305 20.305 0 0 0-12.28-1.02c-4.07.94-7.89 3.14-10.7 6.24-2.9 3.2-4.65 7.31-5.14 11.59-.48 4.28.37 8.3 2.29 11.96 1.7 3.24 4.29 6.01 7.45 7.85.01.01.03.02.04.03 1.77 1.19 3.89 1.76 5.98 2.05 2.18.3 4.44.38 6.64.22 2.2-.16 4.55-.69 6.67-1.6 2.02-.86 3.92-2.05 5.63-3.43 1.65-1.34 3.11-2.96 4.17-4.8 1.22-2.11 1.86-4.49 2.23-6.88.2-1.29.33-2.6.28-3.9Zm-25.32 11.15c-.54-.17-1.04-.41-1.51-.73-.01 0-.03-.01-.04-.02-1.27-.82-2.4-1.89-3.27-3.1-1.37-1.89-2.16-4.08-2.2-6.42-.04-2.34.66-4.83 2.03-6.84 1.31-1.91 3.26-3.39 5.43-4.19s4.58-.96 6.84-.37c2.26.6 4.29 1.86 5.82 3.61.84.96 1.48 2.07 2 3.24.56 1.27 1.04 2.62 1.07 4.02s-.23 2.84-.66 4.18a8.702 8.702 0 0 1-1.86 3.21c-1.64 1.8-3.92 3.14-6.3 3.68-1.24.28-2.51.32-3.78.28-1.2-.04-2.41-.17-3.55-.54Z"/><path class="cls-15" d="M185.63 167.27c-.26-.88-.64-1.75-1.13-2.53-1.74-2.8-5.15-4.27-8.38-3.61a8.102 8.102 0 0 0-4.18 2.3c-1.11 1.16-1.9 2.79-2.12 4.45-.42 3.07 1 6.39 3.74 7.94.16.09.32.17.48.24.17.08.34.15.51.22.03.01.05.02.08.03h.03c.42.14.87.24 1.31.3.83.11 1.7.15 2.54.08 1.78-.14 3.4-.85 4.78-1.97.63-.52 1.19-1.15 1.6-1.86.47-.82.72-1.74.87-2.66.15-.99.16-1.97-.13-2.94ZM74.67 167.48c-.26-.88-.64-1.75-1.13-2.53-1.74-2.8-5.15-4.27-8.38-3.61a8.102 8.102 0 0 0-4.18 2.3 7.967 7.967 0 0 0-2.12 4.45c-.4 2.98.9 6.35 3.58 7.88.31.17.63.32.96.45.51.21 1.06.34 1.61.41.83.11 1.7.15 2.54.08 1.78-.14 3.4-.85 4.78-1.97.63-.52 1.19-1.15 1.6-1.86.47-.82.72-1.74.87-2.66.15-.99.16-1.97-.13-2.94Z"/><path class="cls-18" d="M53 122.63c3.87.55 7.72 1.23 11.55 2.01 3.83.79 7.63 1.7 11.4 2.72 3.77 1.03 7.51 2.16 11.21 3.42 3.7 1.25 7.37 2.62 10.98 4.1a187.914 187.914 0 0 1 11.99 5.4c.29.14.65.08.82-.22.15-.26.08-.68-.22-.82-3.54-1.74-7.13-3.37-10.77-4.9-3.62-1.52-7.29-2.92-11-4.21s-7.46-2.46-11.24-3.52c-3.78-1.06-7.56-1.99-11.38-2.81-3.84-.82-7.7-1.53-11.58-2.12l-1.46-.21c-.32-.05-.64.08-.74.42-.08.28.1.69.42.74Z"/></g><g id="Layer_7"><path class="cls-14" d="M101.5 153.94c3.2 2.4 6.35 4.86 9.45 7.39.25.2.6.25.85 0 .21-.21.25-.64 0-.85-3.18-2.59-6.41-5.12-9.7-7.58-.26-.19-.67-.04-.82.22-.18.31-.04.63.22.82Z"/><path class="cls-14" d="M101.41 152.77c-2.14.89-4.33 1.62-6.53 2.34-.31.1-.51.42-.42.74.08.3.43.52.74.42 2.2-.72 4.4-1.45 6.53-2.34.3-.12.51-.4.42-.74-.08-.28-.44-.54-.74-.42Z"/><path class="cls-18" d="M97.82 165.25c-.09-.34-.42-.47-.74-.42-.22.04-.44.07-.66.11l-2.86-2.9-3.74-4.37c0-.05 0-.11-.02-.17-.08-.29-.43-.53-.74-.42-3.3 1.22-6.59 2.46-9.85 3.79-3.32 1.35-6.61 2.78-9.87 4.28-2.08.96-4.14 1.95-6.2 2.96-.29.14-.37.56-.22.82.06.09.13.16.22.21.02.02.04.04.07.06 1.14.84 2.32 1.62 3.54 2.33.12.07.26.09.39.07.09.02.19.02.29 0 3.87-.83 7.75-1.63 11.64-2.38 3.89-.75 7.78-1.46 11.69-2.13 2.21-.38 4.43-.74 6.64-1.1.32-.05.5-.45.42-.74Z"/><path class="cls-14" d="M105.46 162.61c4.01-.61 8-1.3 12.01-1.86 1.13-.16 2.26-.3 3.4-.43.32-.04.6-.25.6-.6 0-.3-.28-.64-.6-.6-4.09.47-8.16 1.14-12.23 1.79-1.17.19-2.33.37-3.5.54-.32.05-.5.45-.42.74.09.34.42.47.74.42ZM111.72 147.99c-2.9.52-5.87.69-8.81.52-2.96-.17-5.9-.69-8.73-1.55-1.59-.48-3.14-1.06-4.65-1.75-.29-.13-.65-.08-.82.22-.15.26-.08.69.22.82a38.82 38.82 0 0 0 8.75 2.8c3.02.58 6.1.82 9.17.68 1.75-.08 3.49-.28 5.21-.59.32-.06.5-.45.42-.74-.09-.34-.42-.48-.74-.42Z"/><path class="cls-18" d="M121.21 159.21c-2.32-2.73-4.57-5.52-6.74-8.36-.62-.8-1.22-1.61-1.83-2.43l1.89-1.87c.91-.9 2.02-1.78 2.51-3 .56-1.39-.06-2.88-.96-3.97-.45-.55-.99-1.02-1.52-1.5l-1.64-1.48-3.74-3.37c-.24-.22-.61-.24-.85 0-.09.09-.14.2-.16.32l-3.86 1.16 3.07 2.29 3.85 3.03s-1.32.92-2.96 1.55c-1.64.62-6.04 2.26-9.25 2.73-3.2.46-10.4 1.16-10.4 1.16s.06.03.17.07l-3.81.58c-.1-.1-.19-.21-.28-.32-.21-.24-.63-.22-.85 0-.24.24-.21.6 0 .85 1.85 2.11 4.15 3.83 6.7 5.01l-.38 2.56c-.02.17-.03.31.06.46.07.12.22.24.36.28.28.06.69-.09.74-.42l.02-.13 1.86.09 1.84 1.19s4.97 3.71 5.6 4.08c.63.38 3.96 2.29 3.96 2.29l6.77-1.16 8.72-1.18c.09.11.18.22.28.33.21.25.63.22.85 0 .24-.24.21-.6 0-.85Zm-28.52-12.08c-.96-.29-1.72-.63-2.28-.92.75.31 1.6.65 2.29.93Zm8.61 1.87c-1.81-.12-3.89-.56-5.76-1.05 2.07.41 5.13.88 7.09 1.11-.48-.01-.93-.03-1.33-.05Z"/><path class="cls-19" d="M151.84 91.67c-.11-.51-.37-.97-.7-1.38-.55-.69-1.35-1.17-2.18-1.46.47-.55.9-1.13 1.22-1.78.46-.96.72-2.12.5-3.23-.19-.95-.74-1.81-1.43-2.48-.68-.67-1.6-1.32-2.57-1.51-1.06-.2-2.08.21-2.58 1.2-.46.92-.51 2-.65 3-.16 1.19-.32 2.38-.46 3.58-.14 1.19-.4 2.55.12 3.67.45.98 1.84 1.53 2.69.74 0 0 .02-.01.02-.02.76-.75 1.53-1.5 2.28-2.26.06.06.14.1.22.13.42.13.65.23 1.04.46.09.05.17.11.26.17l.12.09c.01 0 .02.01.02.02 0 0 .01.01.03.02.15.13.3.27.43.42.19.22.36.53.44.85.12.45.07.96 0 1.42-.05.32.08.65.42.74.29.08.69-.1.74-.42.1-.66.17-1.31.03-1.97Z"/><path class="cls-14" d="M121.46 124.63c-.19-.25-.55-.51-.99-.77.15-.26.08-.68-.22-.82-1.63-.78-3.37-1.54-5.14-1.93-2.32-.51-4.77-.59-7.14-.69-4.93-.21-9.86-.49-14.74-1.32-1.97-.33-3.98-.81-5.67-1.92-.88-.58-1.54-1.37-2.28-2.1a6.313 6.313 0 0 0-2.74-1.61c-1.05-.3-2.14-.37-3.22-.45-1.25-.09-2.51-.16-3.76-.23-2.53-.13-5.07-.21-7.61-.25-5.05-.07-10.1.05-15.15.35l-1.92.12c-.15.01-.26.06-.35.14-.42.22-.49.96.1 1.12 4.45 1.22 9.02 2.01 13.62 2.35 1.14.08 2.28.14 3.42.17.01.04.03.07.04.11.68 1.38 1.74 2.5 2.95 3.43.25.19.68.05.82-.22.02-.03.03-.06.04-.09.78.25 2.34.74 4.04 1.16 2.41.59 13.95 4.95 18.59 7.42 3.92 2.08 8.13 4.81 9.35 5.61a.6.6 0 0 0-.07.27c0 .29.28.64.6.6 4.65-.6 9.07-2.36 13.31-4.3 1.04-.48 2.08-.96 3.11-1.48.29-.14.37-.55.22-.82.59-.38.99-.74 1.1-1.03.49-1.31.27-2.02-.34-2.81Z"/><path class="cls-19" d="M119.65 124.07c.41.22.81.5 1.16.78s.73.65.79 1.1c.16 1.09-.89 1.86-1.73 2.31-.68.36-.08 1.4.61 1.04 1.24-.66 2.47-1.81 2.33-3.35-.07-.76-.48-1.37-1.05-1.86-.46-.39-.96-.77-1.5-1.05a.612.612 0 0 0-.82.22c-.16.27-.07.67.22.82Z"/><path class="cls-14" d="M120.98 160.37c4.3.13 8.61.34 12.9.64 1.22.09 2.44.18 3.67.28.32.03.6-.29.6-.6 0-.35-.28-.57-.6-.6-4.29-.35-8.59-.61-12.9-.79-1.23-.05-2.45-.09-3.68-.13-.77-.02-.77 1.18 0 1.2Z"/><path class="cls-18" d="M166.99 130.54c-1.18-.56-3.39-1.88-4.23-1.74-.84.14-1.45.55-2.81 1.93.31-.39.56-.69.72-.86.85-.92 2.84-1.43 2.84-1.43l-.28-.1c.18-.26.19-.65-.16-.87-.38-.24-.89-.25-1.33-.23-.14 0-.28.02-.42.04l-.69-.66s-7.39-5.22-9.3-6.5c-1.91-1.29-4.86-4.8-5.7-5.87-.84-1.06-1.51-4.34-1.51-4.34s3.15-1.04 5.36-1.33c1.4-.18 2.87.1 3.75.33.1.18.2.37.31.55.16.27.55.39.82.22.27-.17.38-.53.22-.82-.24-.42-.47-.84-.69-1.27-.07-.15-.14-.3-.21-.44.14.02.29.03.43.05l2.71.33c.92.11 1.82.23 2.74.06.32-.06.5-.45.42-.74-.09-.34-.42-.48-.74-.42-.82.15-1.69-.02-2.52-.12l-.19-.02c-1.35-.79-4.51-3.15-5.47-3.88l-6.1-4.62.05-.48c.31-.07.63-.14.95-.19.32-.05.5-.45.42-.74-.09-.34-.42-.47-.74-.42-2.38.41-4.69 1.37-6.65 2.77-.95.68-2.16 1.51-2.35 2.76-.11.69.08 1.37.32 2.02s.52 1.25.83 1.84c.62 1.21 1.34 2.36 2.03 3.52l1.84 3.06 3.07 5.11 3.99 6.64.09.12c.46.88.96 1.77 1.56 2.57.13 1.21.14 2.44 0 3.65-.14 1.3-.44 2.47-.77 3.68-.63 2.3-1.37 4.58-2.18 6.82a92.728 92.728 0 0 1-5.87 12.92 91.761 91.761 0 0 1-4.17 6.84.46.46 0 0 0-.08.28c-1.17-.05-3.71-.16-4.25-.2-.71-.05-12.24-.73-12.24-.73l-15.63 2.43 6.06 1.08s8.41.73 9.88.46c1.47-.27 19.68.67 19.68.67s1.09-.26 2.39-.95 2.79-2.23 3.37-3.08c.58-.85.75-4.95 1-6.11.25-1.15 2.59-6.74 2.9-7.9l1.5-2.09s3.29-3.54 5.34-5.39c2.05-1.86 4.11-2.94 7.4-4.21s6.32-1.19 6.32-1.19-2.84-2.24-4.01-2.8Z"/><path class="cls-19" d="M111.82 139.99v-.05a.508.508 0 0 0-.17-.34c-3.09-2.6-6.34-5.01-9.73-7.2-3.36-2.17-6.86-4.13-10.47-5.86s-7.36-3.27-11.17-4.55a96.658 96.658 0 0 0-11.59-3.12 96.174 96.174 0 0 0-13.45-1.75c-.06 0-.13 0-.19.03-.15 0-.29.06-.39.17a13.19 13.19 0 0 0-2.5 4.44c-.03.1-.03.19 0 .29-.03.18.03.37.16.52 3.1 3.6 6.39 7.03 9.85 10.29a51.691 51.691 0 0 0-8.58 1.62c-.95.27-1.93.52-2.84.92-.91.4-1.62 1.02-1.7 2.02-.03.4.41.67.76.58 2.51-.66 5.07-1.08 7.65-1.25-1.79 1.47-3.58 2.93-5.3 4.47-1.94 1.73-3.78 3.67-4.98 6-.67 1.31-1.12 2.69-1.28 4.15-.04.32.3.6.6.6.12 0 .22-.03.31-.09.13-.01.27-.07.38-.17a237.266 237.266 0 0 1 15.21-12.03c2.32-.21 4.65-.36 6.98-.44h.07c1.19.98 2.4 1.93 3.62 2.87 2.12 1.62 4.29 3.18 6.5 4.68.08.06.18.08.28.08.07.03.16.05.24.04 4.67-.44 9.35-.82 14.01-1.35 4.02-.45 8.08-1.04 11.92-2.33 1.94-.65 3.84-1.5 5.51-2.69l.01-.01c.04-.02.07-.05.11-.08.07-.07.12-.17.15-.27 0-.02.01-.05.01-.07v-.12ZM163.09 104.79c-.31-.52-.71-1.01-1.07-1.5-.38-.52-.78-1.03-1.18-1.53a56.513 56.513 0 0 0-8.34-8.48.71.71 0 0 0-.38-.16.446.446 0 0 0-.28-.06c-2.8.27-5.47 1.66-7.21 3.89-.07.09-.12.19-.15.29-.07.05-.12.11-.16.17-.18.31-.04.62.22.82l6.6 5c1.07.81 2.13 1.63 3.21 2.43 1.02.76 2.11 1.43 3.36 1.72 1.2.28 2.47.26 3.66-.07.55-.15 1.18-.35 1.59-.78.47-.5.47-1.16.13-1.73Z"/><path class="cls-15" d="M155.16 110.48c4.65 3.5 8.94 7.49 12.78 11.87 1.1 1.25 2.15 2.53 3.18 3.84.2.26.64.21.85 0 .25-.25.2-.59 0-.85a85.404 85.404 0 0 0-12.25-12.75c-1.29-1.09-2.6-2.13-3.95-3.15-.26-.19-.67-.04-.82.22-.18.31-.04.63.22.82Z"/><path class="cls-19" d="M188.18 145.2a.68.68 0 0 0-.15-.36c-.41-.84-1.03-1.52-1.74-2.15-.78-.7-1.56-1.3-2.4-1.87a22.54 22.54 0 0 0-5.38-2.68c-.82-.29-1.67-.52-2.52-.7.09-.09.19-.17.28-.26.16-.15.32-.29.48-.44.19.03.4-.03.53-.17.11-.11.17-.26.17-.4h.04c.21.06.44.02.58-.15.42-.5.35-1.07.14-1.65-.18-.51-.37-1.02-.56-1.53-.38-1.01-.8-2.01-1.23-3-.86-1.96-1.82-3.87-2.88-5.73a63.868 63.868 0 0 0-12.52-15.69.65.65 0 0 0-.43-.17c-.02 0-.04-.02-.07-.02a7.68 7.68 0 0 0-5.47.83c-1.82-.61-3.71-1.21-5.65-1.08-.98.07-1.96.28-2.93.48-.93.2-1.84.47-2.68.92-.1.05-.17.13-.22.22-.2.14-.28.4-.23.65.97 5.24 5.51 8.83 9.55 11.81 4.84 3.58 9.97 6.72 15.11 9.86.46.28.92.56 1.38.83-1.83.1-3.64.61-5.32 1.29-3.84 1.54-7.3 3.96-10.12 6.99a29.382 29.382 0 0 0-6.27 10.42c-.69 2.01-1.17 4.12-1.35 6.24-.05.55-.06 1.11-.03 1.65-.01.02-.03.04-.03.06-.94 2.15-3.08 3.27-5.09 4.26-.68 0-1.35-.01-2.03-.02-2.75-.04-5.5-.1-8.25-.2-5.47-.19-10.93-.49-16.38-.9-3.07-.23-6.15-.5-9.21-.81h-.06c-2.98-1.68-5.95-3.37-8.7-5.42-.87-.65-1.72-1.32-2.57-2-.03-.02-.05-.04-.08-.06a.764.764 0 0 0-.42-.18 26.23 26.23 0 0 0-5.74-.05.755.755 0 0 0-.14-.11L75.3 148.2l-3.49-1.62c-.13-.06-.28-.08-.41-.06a.682.682 0 0 0-.25.01c-.14.05-.29.14-.36.28-.08.15-.08.29-.06.46s.01.1.02.14c-.02-.15 0 .03 0 .06.01.1.02.19.04.29.02.2.05.41.07.61.04.41.07.81.1 1.22.01.22.14.44.33.54.03.06.07.13.14.19 2.43 2.27 4.93 4.47 7.48 6.61.05.04.11.08.17.11.07.07.15.12.25.14 2.91.58 5.85 1.03 8.81 1.34.32.03.6-.3.6-.6 0-.17-.07-.31-.17-.41l.3.03c2.69 2.78 5.46 5.48 8.3 8.11-3.21 1.05-6.41 2.13-9.6 3.24-3.42 1.2-6.82 2.43-10.21 3.7-1.92.72-3.83 1.45-5.74 2.2-.04.02-.09.04-.13.06a.6.6 0 0 0-.39.56l-.08 3.47c0 .3.25.57.54.6a.5.5 0 0 0 .32 0c3.8-1.43 7.61-2.81 11.44-4.16 3.87-1.36 7.75-2.69 11.65-3.97 2.09-.69 4.18-1.37 6.27-2.03l1.4 1.22c.11.1.25.15.39.17 6.76 1.07 13.52 2.13 20.3 3.06 6.76.92 13.54 1.72 20.34 2.23 3.82.29 7.64.49 11.47.58.11 0 .2-.02.27-.06.19.07.38.13.58.2.23.08.49-.03.63-.22.28-.12.38-.41.34-.71-.4-2.94-.31-5.95.19-8.86.5-2.97 1.4-5.87 2.6-8.63 1.21-2.77 2.73-5.39 4.45-7.87.36-.52.73-1.03 1.11-1.53a208.677 208.677 0 0 0 10.57 21.34c.08.13.18.21.29.26.02.03.04.05.06.07.63.61 1.62.81 2.44.49.45-.18.82-.47 1.09-.88.23-.36.35-.8.36-1.23 0-.43-.11-.89-.35-1.26a.523.523 0 0 0-.06-.16 208.94 208.94 0 0 1-4.71-8.71c-1.5-2.92-2.93-5.88-4.3-8.87-.74-1.61-1.45-3.22-2.14-4.85 4.9-.53 9.85-.51 14.75.08 1.33.16 2.67.37 3.99.61.13.08.28.11.46.07.26-.07.5-.39.44-.67Z"/></g><g id="Layer_12"><path class="cls-4" d="M116.95 153.67c.14-.28 1.55-2.5 1.55-2.5l.23-3.13h7.49l-.29 2.39s-1.42 1.82-2.2 2.53-2.12 1.91-3.16 1.87-2.64-.51-2.91-.68-.7-.49-.7-.49ZM118.73 148.04l.23-6.13 7.84 2.22-.58 3.91h-7.49zM131.76 102.82l2.22-5.66 1.3.83s6.01-1.35 6.49-1.33 4.21-.72 4.21-.72 2.22 2.67 2.51 3.44c.29.76.73 1.89.38 2.73s-1.06 1.81-1.38 2.06-1.45.66-1.45.66 1.37.91.86 1.46-1 1.02-1.82.66c-.82-.37-2.26-1.78-3.3-1.83-1.05-.05-3.61-.44-3.88-.62s-1.11-1.09-1.22-1.09-4.91-.6-4.91-.6ZM97.68 49.8c.03-.42 1.36-4.42 1.36-4.42l2.2.21v2.28l1.25 6.52-3.45-3.26-1.36-1.34ZM82.56 57.21c.33-.25 1.61-2.61 1.61-2.61l4.85 2.82-5.66.13-.79-.34Z"/></g><path class="cls-1" d="M100.65 48.02v-.01c-.01-.05-.02-.1-.02-.15.02-.61 0-1.22 0-1.83-.41-.01-.82-.02-1.23-.04-.16.4-.3.81-.43 1.22h.08c.08-.01.16 0 .23.04.08.02.14.07.19.12.06.06.1.12.12.19.04.07.06.15.05.23v.04c0 .11-.03.21-.08.3l-.09.12c-.07.07-.16.13-.26.15l-.16.02c-.08 0-.16-.01-.23-.05a.537.537 0 0 1-.16-.1c-.12.44-.22.88-.31 1.33.18.16.35.33.53.49.03.03.07.05.1.08.02.01.02.03.03.05.91.84 1.81 1.69 2.69 2.55-.29-1.59-.78-3.15-1.04-4.75ZM73.38 92.46c-.09 2.55-.04 5.1 0 7.66v1.22c.5-.23 1-.48 1.49-.73-.27-5.18-.12-10.37.45-15.52.44-3.97 1.12-7.92 2.05-11.8-1.5 2.01-2.7 4.28-3.79 6.5l-.2 12.68ZM118.78 151.7s-.03.09-.05.13l-1.12 1.86-.05.05c.51.3 1.03.56 1.58.72.92.25 1.84.09 2.69-.35.85-.44 1.54-1.11 2.17-1.82.67-.75 1.31-1.53 1.96-2.29-.07 0-.14 0-.21-.01-.32-.09-.49-.42-.42-.74.36-1.55.61-3.13.89-4.7-.06-.02-.12-.03-.19-.05-2.2-.56-4.39-1.16-6.56-1.8-.05 2.83-.18 5.65-.38 8.47a.67.67 0 0 1-.32.53ZM83.89 54.76c.07.08.14.16.16.26.04.16.01.32-.06.46-.24.47-.47.95-.67 1.44-.01.03-.03.07-.04.1 1.47.01 2.93.03 4.4.04-.48-.3-.97-.59-1.45-.89-.78-.47-1.56-.94-2.33-1.41ZM49.93 105s-.07.06 0 0ZM136.03 102.8c-.03-.13-.04-.27-.05-.4-.02-.33.29-.6.6-.6h.04c.1 0 .19.03.27.08.78.54 1.77.17 2.54-.25.99-.53 1.86-1.3 2.88-1.73 1.02-.43 2.25-.56 3.21.09.88.59 1.4 1.69.92 2.71-.29.6-.89 1.01-1.52 1.08 0 .01.02.03.03.04 0 0 .04.05.06.07.03.03.06.06.09.08.02.01.04.03.06.04.04.02.07.05.11.07.02 0 .07.03.08.04.04.02.08.03.12.05.05.02.11.03.16.04.02 0 .08.02.1.02.09 0 .17.01.26.01h.09c.01 0 .09-.01.1-.02.44-.1.79-.37 1.11-.7.36-.37.61-.76.91-1.2v-.01c.05-.09.1-.19.14-.28v-.02c.02-.03.03-.07.04-.1.05-.13.08-.27.11-.4v-.31c-.02-.06-.02-.08-.01-.08v-.05c-.03-.1-.06-.2-.1-.3 0-.02-.02-.04-.03-.07v.03c.02.04.04.13 0-.01-.02-.04-.04-.08-.05-.12l-.24-.54c-.69-1.21-1.48-2.37-2.33-3.44-.6.14-1.2.26-1.8.38-2.88.54-5.82.85-8.67 1.58a.558.558 0 0 1-.63-.25l-.53-.35-1.55 4.4c1.15.22 2.3.38 3.47.43ZM148.51 101.15s0-.05-.01-.05c0 .02 0 .05.01.07v-.02ZM83.58 54.6s.05.02.08.03c-.02-.01-.05-.03-.07-.04v.02ZM148.52 101.2v-.03.02Z"/><path class="cls-1" d="M146.32 105.85s-.03-.06-.05-.08c.05.08-.12-.11-.03-.04l-.02-.02h-.05.04a.694.694 0 0 1-.5-.27c-.96-.08-1.87-.7-2.05-1.67-.88-.2-1.6-1-1.69-1.91-.02-.15 0-.3.01-.44-.29.18-.57.38-.85.56-1 .68-2.34 1.47-3.6 1.38.22.33.53.6.89.75.38.16.85.17 1.27.17.52 0 1.03 0 1.55.08.89.15 1.68.66 2.42 1.15.6.4 1.46 1.09 2.18.92.15-.03.28-.09.35-.16.08-.07.09-.08.12-.14 0 0 .02-.03.03-.05 0-.02 0-.05.01-.05V105.92c0-.03-.01-.05-.01-.06Z"/><path class="cls-7" d="M115.16 108.67c-.99.2-1.67 1.22-1.53 2.23.14 1.04 1.1 1.83 2.06 2.08 1.21.32 2.54-.17 3.47-.95 1.05-.89 1.71-2.14 2.12-3.44-.38-.08-.77-.15-1.15-.23-1.47-.3-2.93-.58-4.4-.85.19.46.05 1.03-.57 1.16ZM121.12 118.82c-.56.38-1.01.91-1.34 1.5l1.5-1.21c-.06-.1-.11-.19-.17-.29ZM119.55 123.99c.88 1.94 3.49 2.96 5.42 2.1.09-.04.19-.07.29-.09-1.12-1.95-2.25-3.9-3.37-5.85l-2.66 2.14a3.8 3.8 0 0 0 .32 1.69ZM123.58 134.23c-.22 2.41-.44 4.82-.67 7.23 1.82.11 3.75-1.23 4.04-3.11.32-2.03-1.44-3.86-3.38-4.13ZM131.27 126.98c.06.95.51 1.84 1.17 2.52.3-2.08.55-4.16.72-6.26v-.05c-1.23.82-1.99 2.32-1.89 3.79Z"/><path class="cls-7" d="M105.94 105.98s-.02 0-.02.01c-.02.01-.05.02-.07.04a.3.3 0 0 1 .04.1c.45 1.34.63 2.82.28 4.21-.56 2.21-2.76 4.06-5.12 3.53-2.02-.46-3.29-2.93-2.27-4.78.05-.09.12-.16.2-.22-3.39 1.16-6.86 2.07-10.37 2.81-1.75.37-3.5.69-5.26 1 1.12 2.11.83 4.95-.87 6.68 1.15.86 2.53 1.34 3.91 1.72 1.34.37 2.71.65 4.08.9 2.9.53 5.82.89 8.75 1.21 1.17.13 2.38.24 3.6.35a.817.817 0 0 1-.16-.53c.13-2.87 2.27-5.58 5.15-6.14 2.85-.55 5.94.97 7.15 3.62.19.42.13.9-.25 1.18.11.43-.06.91-.62 1.02l-5.93 1.2c.08 0 .15 0 .23.01 2.77.12 5.56.13 8.33.06.12 0 .25 0 .37-.01-.34 4.42-.52 8.84-.53 13.27 0 1.31 0 2.63.03 3.94 0 .02-.02.03-.02.05-.09.32.11.64.42.74.43.14.86.26 1.29.4 0-.41.02-.83.02-1.24 0-.77 1.21-.77 1.2 0 0 .54-.02 1.07-.03 1.61 2.18.65 4.37 1.24 6.56 1.8.06.02.12.03.19.05.1-.56.2-1.12.31-1.68.06-.32.44-.5.74-.42.33.09.48.42.42.74-.11.55-.21 1.1-.3 1.65.32.08.63.16.95.23.28.13.64.08.79-.23.03-.05.06-.1.07-.16.01-.05.02-.1.02-.15.92-3.69 1.83-7.38 2.55-11.11.12-.61.22-1.22.32-1.83-1.5-1.04-2.52-2.74-2.64-4.6-.16-2.57 1.53-4.93 3.86-5.88.09-1.49.09-3.01-.17-4.45-.07.1-.16.19-.27.24-1.05.54-2.11 1.05-3.29 1.17-.84.09-1.77-.1-2.49-.57-.84-.54-1.33-1.38-1.41-2.38-.16-2.02 1.5-3.44 3.07-4.36-.84-.44-1.73-.78-2.63-1.06a36.25 36.25 0 0 0-3.07-.77c0 .03-.01.07-.02.1-.5 1.57-1.29 3.1-2.54 4.21-2.13 1.88-5.64 2.36-7.64 0-.89-1.05-1.29-2.45-.85-3.79.33-.99 1.02-1.85 1.96-2.29-2.54-.46-5.08-.89-7.63-1.28-.08-.01-.16-.02-.24-.04-.04.04-.08.08-.13.1h-.02Zm-6.96 13.19c-.61 1.31-1.79 2.24-3.12 2.75-2.41.93-5.25.15-6.62-2.09-1.33-2.17-1.11-5.21.7-7.05.82-.83 2.09.45 1.27 1.27-.7.71-1.03 1.68-1.03 2.69 0 .14 0 .29.02.43 0 .05 0 .1.01.14v.04c.04.24.1.47.17.7.13.4.3.77.61 1.18 0 0 .11.13.19.22.08.08.15.16.24.23.18.16.22.19.47.34.12.07.25.14.37.2h.02c.05.02.1.04.16.06.22.08.45.13.68.18.03 0 .09.01.12.02.05 0 .1 0 .15.01.13 0 .25.01.38.01.11 0 .22 0 .33-.01.03 0 .19-.02.21-.02.46-.07.99-.24 1.28-.38.62-.31 1.07-.67 1.43-1.17l-5.12-4.19c-.38-.31-.32-.96 0-1.27.37-.37.9-.31 1.27 0 1.88 1.54 3.77 3.08 5.65 4.62.32.26.3.76.14 1.09Zm29.03 21.39c-1.3 2.05-3.9 3.23-6.27 2.54-.53-.15-.69-.62-.61-1.04a.704.704 0 0 1-.04-.29c.26-2.78.51-5.57.77-8.35v-.09c0-.53.42-.85.9-.9 1.47-.16 2.9.41 4.02 1.33 1.99 1.65 2.66 4.57 1.25 6.8ZM120.67 117c.35-.18.69-.11.94.07.3-.03.62.08.82.43.09.16.18.32.28.48l.04-.03c.25-.2.6-.25.85 0 .21.21.25.64 0 .85l-.29.23c1.35 2.35 2.7 4.69 4.06 7.04.47.82-.47 1.57-1.15 1.28-.07.14-.18.26-.33.32a5.98 5.98 0 0 1-4.04.32c-2.39-.64-4.18-2.63-4.39-5.11a.618.618 0 0 1-.01-.59c.05-2.16 1.3-4.31 3.23-5.28Z"/><path class="cls-7" d="M129.72 112.29c-.22.13-.43.25-.64.39-.1.07-.21.14-.31.21-.05.04-.1.07-.15.11.05-.04.05-.03 0 0-.18.15-.35.3-.51.47-.02.02-.23.27-.16.17-.06.08-.12.17-.17.26l-.15.27c-.04.1-.05.11-.01.03-.02.06-.04.11-.06.17-.03.09-.05.19-.07.29 0 .02-.02.17-.02.2v.25s.05.21.05.24c.02.05.03.07.03.08.02.03.03.06.05.1.01.02.09.13.11.17.04.04.11.12.13.13.03.03.06.05.09.08.01 0 .01 0 .03.02.09.05.18.11.27.16.03.01.05.03.08.04 0 0 .03 0 .07.02.16.04.32.09.48.12.03 0 .19.02.22.02h.32c.02 0 .14-.01.17-.02.12-.02.25-.04.37-.07.26-.06.52-.15.77-.25.13-.05.33-.14.53-.24.25-.12.49-.24.73-.37.28-.15.59-.13.85 0a7.42 7.42 0 0 0-1.87-3.02c-.25-.24-.51-.46-.79-.66-.05.26-.2.5-.43.63ZM100.33 109.99s-.04.07-.06.11c0 .01 0 .03-.02.05 0 .03-.04.21-.05.22v.3c0 .04.01.07.02.11.02.09.05.17.08.26 0 0 .08.19.1.21l.15.24c.02.01.14.16.15.18.02.02.15.13.17.16.08.06.16.11.24.16.04.02.09.05.13.07 0 0 .02 0 .03.01.1.03.2.06.3.08 0 0 .23.02.26.02s.28-.02.27-.01c.2-.03.48-.12.6-.17.81-.35 1.43-1.07 1.69-2.01.22-.81.18-1.65 0-2.47-1.44.44-2.88.87-4.33 1.31.37.27.48.78.26 1.19ZM81.9 116.99c.02-.06.05-.12.07-.18.05-.14.09-.28.13-.43.04-.14.07-.29.09-.44v-.07c0-.07.01-.15.02-.22 0-.16.01-.33 0-.49 0-.06 0-.12-.01-.18 0 0-.01-.12-.01-.16-.04-.28-.11-.56-.2-.82-.02-.06-.04-.11-.06-.17 0-.03-.01-.04-.02-.06 0-.01-.02-.03-.03-.05-.07-.13-.13-.26-.21-.39-.04-.06-.08-.12-.12-.19 0-.01-.05-.07-.06-.09a.234.234 0 0 0-.07-.07c-.59.1-1.17.19-1.76.29.1 1.66.57 3.42 1.55 4.78.26-.27.43-.54.64-.95.01-.03.04-.08.05-.1ZM108.29 118.58c-2.01.38-3.62 2.18-3.81 4.2 2.91-.59 5.82-1.18 8.74-1.77-.96-1.69-2.96-2.8-4.93-2.43ZM123.6 118.78c.25-.2.21-.64 0-.85-.25-.25-.6-.2-.85 0l-.04.03.6 1.05.29-.23ZM117.45 122.86c-.02-.2-.02-.39-.01-.59-.1.18-.09.41.01.59ZM121.29 119.11l-1.5 1.21c-.33.61-.53 1.29-.55 1.98l2.66-2.14-.6-1.05Z"/><path class="cls-18" d="M98.8 48.38c.07.04.15.05.23.05l.16-.02c.1-.03.19-.08.26-.15l.09-.12a.61.61 0 0 0 .08-.3v-.04c0-.08-.01-.16-.05-.23a.474.474 0 0 0-.12-.19.387.387 0 0 0-.19-.12.456.456 0 0 0-.23-.05h-.08c-.11.37-.22.72-.31 1.08.05.04.1.08.16.1ZM100.63 47.86c0 .05 0 .1.02.15v.01c.25 1.6.75 3.16 1.04 4.76.47.45.93.91 1.39 1.37-.19-2.15-.9-4.19-1.25-6.31.02-.59 0-1.18 0-1.76-.4 0-.8-.03-1.2-.04 0 .61.03 1.22 0 1.83Z"/><path class="cls-12" d="M47.53 105.93v.01-.01zM93.82 104.54s-.08.07-.14.07c-.1.17.12-.03.14-.07ZM95.55 102.65c-.09.02-.13.16-.19.23.08-.02.22-.15.19-.23ZM93.75 104.37c-.04.07-.03.14-.08.22.11-.16.09-.26.08-.22ZM97.26 101.88c.18 0-.06-.14-.13-.12.02.03.06.07.13.12ZM96.98 57.72h.06-.07ZM96.66 100.86s-.14.02-.12.08c.04.03.14-.02.12-.08ZM94.93 103.69s-.51.47 0 .2c.07-.07-.12-.06 0-.2ZM97.3 100.57c-.06.03-.12 0-.17 0-.01.02-.03.04-.04.06.08.06.23 0 .21-.05ZM94.63 103.27c.1.05.18.09.11-.11.37-.29-.32.04-.27.35.35-.06-.04-.13.16-.24ZM95.22 103.07c-.11-.02-.12.06-.19.15.11-.03.11-.1.19-.15ZM94.25 104.24c.14-.08.56.29.38-.18-.07.13-.39.04-.38.18ZM94.57 103.63c.05 0 .07-.07.09-.11-.08 0-.12.03-.09.11ZM94.42 103.63c0-.17-.12.08-.13.15.08.08.05-.11.13-.15ZM94.11 103.99c.11-.02.05-.09.07-.17-.08.02-.04.12-.07.17ZM99.49 99.33c-.19.01.07.26.1.23-.03-.04.02-.28-.1-.23ZM99.79 99.27c-.03-.1.16-.11.08-.17-.11.01-.23.3-.08.17ZM99.84 99c.03.05.11-.04.13-.06.05-.12-.29 0-.13.06ZM99.95 98.54c-.01.09-.06.16-.14.21-.04.18.31-.28.14-.21ZM99.66 98.23c.09-.02.05-.01 0-.04.07-.32-.23.38 0 .04Z"/><path class="cls-12" d="M95.22 103.53c.66-.98-.89.75.24.03.06-.12-.19-.06-.24-.03ZM99.68 99.44s.03-.1.02-.09c-.09 0-.14.1-.02.09ZM99.86 98.5s.12-.04.14-.07c.07-.15-.12.01-.14.07ZM100.19 97.96c.05-.04.25-.3.06-.15-.05.08-.08.07-.06.15ZM100.02 97.63s-.02 0-.02.01c.02 0 0 .02.02-.01ZM99.61 98.08s-.2-.04-.05-.13c.02-.02.02-.03.03-.05-.02.02-.05.03-.08.05-.05.09-.08.17.1.12ZM100.21 98.12c.05-.06.12-.11.14-.21-.06 0-.14.16-.14.21ZM99.65 99.03c-.07.08-.26.08-.22.2.06-.03.3-.14.22-.2ZM97.5 100.12c.07-.03.07-.11.05-.15-.02.03-.04.05-.06.08v.07ZM100.1 98.76s.24-.33.08-.18c-.13-.05-.17.15-.08.18ZM100.24 97.72c.05-.06.11-.15-.01-.06-.11.06-.05.13.01.06ZM94.24 103.69c-.07 0-.16.09-.05.09.04 0 .13-.1.05-.09ZM99.53 98.61c-.01.05.09.02.03.06.1-.06.03-.2-.03-.06ZM98.77 99.72c.04.05-.27.18-.07.19.01-.04.23-.22.07-.19ZM98.86 99.85s.05.05.07 0c-.02-.01-.09-.05-.07 0ZM98.56 100.02c-.01.06-.04.17.01.19.06 0 .08-.23-.01-.19ZM98.55 99.52c-.07-.18-.18-.03-.13.08.08-.09.25.04.13-.08ZM97.99 99.78s-.08.07-.08.12c.05.01.12-.07.08-.12ZM97.68 99.95c-.06.02-.11.16-.13.22.08-.04.15-.13.13-.22ZM97.61 100.17c-.07.04-.14.16-.08.17.07 0 .08-.11.08-.17ZM99.15 99.42c.19-.32-.3.12-.09-.03.32.29-.42-.01-.13.37.18-.45.13.23.34-.3.25-.2-.07.01-.12-.04ZM98.93 99.31c.22-.03-.09-.23-.08-.06.04 0 .09 0 .08.06ZM98.38 100.29s.05-.03.07-.02c-.02-.04-.06-.01-.07.02ZM97.2 100.52l.12-.04c.01-.11-.12-.04-.12.04ZM97.6 101.01c-.11.22.31-.03.18-.13-.06-.04-.08.19-.18.13ZM97.39 101.16c.05-.03.13 0 .15-.05-.02-.04-.19-.01-.15.05ZM97.53 100.61c.08.01 0-.09.09-.1.14-.18-.28.05-.09.1ZM98.3 100.37s.06.02.09-.02c-.02-.05-.21 0-.09.02ZM98.29 100.62s.03-.02.03-.03c0-.02-.04.02-.03.03ZM98.28 100.66c-.17-.09-.43.36-.1.1.21.02-.04.09.02.13 0 .07.3-.18.08-.23ZM97.9 100.75c-.19.19.1-.08.14-.08 0-.13-.2-.06-.14.08Z"/><path class="cls-12" d="M95.44 103.42c.32-.27.09.1.36-.18-.15-.21-.21.02-.36.18ZM95.99 102.89c.15 0 .07-.19.22-.24.2-.21-.42.14-.22.24ZM95.99 101.91c.27-.18.12.32.39-.18-.11-.01-.3.18-.07-.1.34-.26-.6.32-.32.28ZM96.74 102.29c.12-.12.07 0 .11.03.35-.32-.84.12-.11-.03ZM96.52 102.18c-.08-.03-.08.15 0 .07.05-.04 0-.05 0-.07ZM96.22 101.47c.54-.35-.1.25.45-.12-.22-.17-.31-.04-.45.12ZM96.05 102.39c-.07 0-.05.14-.02.16.11.08.02-.18.02-.16ZM98.06 100.53c-.01.18.17-.13-.05-.07-.12.09.12-.02.05.07ZM96.69 102c.07-.07.09.02.14-.01-.06-.05-.24-.11-.14.01ZM99.13 98.58c-.06-.02-.13.15-.03.08 0-.04.14-.07.03-.08ZM96.83 101.57c0 .07.17-.08.12-.12-.03.05-.14.05-.12.12ZM97.44 101.72c-.07-.02-.09.15-.05.15.01.01.06-.12.05-.15ZM98.8 98.75c-.1-.05-.14.12-.06.18.1-.01 0-.12.06-.18ZM96.64 101.83c.04.05.06-.08.08-.09-.06-.08-.08.04-.08.09ZM96.9 101.14s0-.08.03-.12c-.06-.02-.13.16-.03.12ZM99.23 99.21c.1.04.08-.21-.03-.07-.03.05.04.03.03.07ZM97.03 102.1c.09-.03.2-.24.11-.24-.1.02-.15.19-.11.24ZM81.22 112.74a1.18 1.18 0 0 1-.17-.24c-.07.01-.15.03-.22.04-.06-.72-1.2-.7-1.2.05 0 .22.01.44.03.67.59-.09 1.17-.19 1.76-.29l-.21-.24ZM88.6 111.66c3.5-.74 6.98-1.64 10.37-2.81.04-.03.07-.06.11-.08a.89.89 0 0 1-.39-.52c0-.03-.01-.07-.02-.1-2.07.69-4.17 1.39-5.27 1.76-1.78.6-7.06 1.62-10.37 2.23.11.17.22.34.31.52 1.76-.3 3.51-.63 5.26-1ZM105.84 106.03s.05-.02.07-.04c0 0 .02 0 .02-.01h.02c.05-.03.09-.06.13-.1l-.38-.06c.05.07.1.14.13.22ZM87.38 67.51c.04-.09 0 0 0 0ZM88.91 65.44c.01-.01.02-.02 0 0ZM88.45 65.36c-.18 0-.36 0-.54.01l-.4.6c.16.11.28.31.28.51 0 .34-.28.58-.6.6-.32.02-.65.06-.97.12-.1.26-.2.52-.27.79-.08.3.1.67.42.74.32.07.65-.1.74-.42.05-.18.1-.36.17-.53.03-.08.06-.15.09-.23 0-.01 0-.02.01-.03 0 0 .04-.09 0 0l.01-.03c.02-.04.03-.08.05-.11.15-.33.33-.65.54-.95a.55.55 0 0 1 .07-.09s.07-.1.04-.05a.55.55 0 0 1 .06-.08c.02-.03.05-.06.07-.09.11-.13.23-.26.35-.38a2.908 2.908 0 0 1 .28-.24s.03-.03.05-.04c.02-.02.01 0 0 0-.02.02.07-.05.08-.06a.55.55 0 0 0 .09-.07c.08-.05.16-.11.24-.16.27-.16.39-.55.22-.82-.18-.27-.53-.39-.82-.22l-.09.06c.59.17.53 1.16-.17 1.17ZM113.54 83.92c-1.63-.21-3.34.2-4.71 1.1-.27.18-.39.53-.22.82.16.27.55.39.82.22a5.952 5.952 0 0 1 4.1-.94c.32.04.6-.31.6-.6 0-.36-.28-.56-.6-.6ZM99.48 45.74c-.03.08-.06.16-.09.25.41.02.82.03 1.23.04v-.26c0-.15.06-.27.15-.37l-1.3-.02c.05.12.06.24.01.36ZM104.1 45.49v-.06l-2.43-.03c.08.11.14.23.14.36v.3c.9.01 1.8 0 2.7-.03-.23-.06-.43-.24-.42-.55Z"/><path class="cls-12" d="M101.68 45.4h-.92c-.09.09-.15.22-.15.36v.26c.4.01.8.04 1.2.04v-.3c0-.13-.06-.26-.14-.36ZM98.87 45.94l-1.03 3.36s.06.05.09.07c.11.02.21.07.3.14.03.03.07.06.1.1.09-.45.19-.89.31-1.33 0 0-.02-.01-.03-.02a.436.436 0 0 1-.12-.19.372.372 0 0 1-.05-.23v-.04c0-.11.03-.21.08-.3l.09-.12c.07-.07.16-.13.26-.15h.08c.13-.42.27-.83.43-1.23-.12 0-.24 0-.36-.01a.42.42 0 0 1-.16-.04Z"/><path class="cls-12" d="m98.61 47.37-.09.12a.61.61 0 0 0-.08.3v.04c0 .08.01.16.05.23.02.07.07.14.12.19 0 0 .02.01.03.02.1-.36.2-.72.31-1.07h-.08c-.1.04-.19.09-.26.17ZM98.87 45.94c.05.02.1.03.16.04.12 0 .24 0 .36.01.03-.08.06-.17.09-.25a.45.45 0 0 0-.01-.36h-.42l-.17.56ZM98.9 63.19a.648.648 0 0 1-.04-.53l-.61-.27c.03.22.07.45.1.67.21.1.42.21.63.31.08.04.17.06.25.07a.557.557 0 0 1-.33-.26Z"/><path class="cls-12" d="m97.62 62.11-.07-.54c-.12.05-.23.13-.29.24-.14.27-.08.67.22.82.29.15.58.29.88.43-.03-.22-.07-.45-.1-.67l-.63-.28ZM80.92 52.18l2.82 2.04-.14.36s.05.03.07.04a.346.346 0 0 1 .22.14c.78.47 1.56.94 2.33 1.41.48.3.97.59 1.45.89.39 0 .77 0 1.16.01-1.99-1.2-7.11-4.3-7.92-4.89-.58-.42-1.61-1.39-2.38-2.15l-.96-.3a.574.574 0 0 1-.26-.16c-.18-.07-.33-.2-.38-.39l-.03-.15c0 .11 0 .21.08.3 1.03 1.41 2.37 2.5 3.81 3.46.09-.05.18-.08.29-.09l-.16-.53Z"/><path class="cls-12" d="M89.63 57.55s-.3-.18-.79-.48c-.39 0-.77 0-1.16-.01.55.34 1.1.67 1.65 1 .44.27.85-.11.88-.5h-.57v-.01ZM79.5 50.33c.18.16.36.31.55.46 1.4 1.13 2.99 2.02 4.52 2.96 1.79 1.09 3.57 2.19 5.36 3.27.03.02.04.04.06.05l4.38.03c-.7-.42-1.41-.84-2.13-1.24-4.06-2.24-8.34-4.1-12.74-5.54ZM98.86 50.11c-.18-.16-.35-.33-.53-.49 0 .02 0 .04-.01.07.18.14.36.28.54.43ZM101.1 61.97c-1.01-.89-2.12-1.65-3.23-2.41.09.69.18 1.38.28 2.06l1.44.72c.14.07.23.22.28.36.05.15.01.32-.06.46a.63.63 0 0 1-.36.28c-.07.02-.14.02-.21.01.16.05.33.03.49-.04.78-.38 1.51-.86 2.18-1.41-.24.2-.57.17-.8-.03Z"/><path class="cls-12" d="M77.2 48.52a.57.57 0 0 1 .65.05h.03c1.41.42 2.81.88 4.19 1.39 5.09 1.85 10.04 4.2 14.58 7.16h.48c.21.03.35.16.43.32.04.08.07.17.08.27 0 .08.02.17.03.25 1.45 1.01 2.95 1.97 4.27 3.14.24.21.22.61.01.83.83-.69 1.57-1.48 2.19-2.37.02-.04.04-.07.06-.11.13-.07.22-.19.25-.34.17-1.09.2-2.18.06-3.28-.02-.15-.05-.27-.14-.38-.03-.05-.06-.11-.11-.16-.39-.39-.79-.77-1.18-1.16v.07c.03.32-.3.6-.6.6-.34 0-.57-.28-.6-.6-.04-.49-.11-.97-.2-1.44-.89-.86-1.79-1.71-2.69-2.55.21.22.16.61-.03.8-.25.25-.6.2-.85 0-.68-.55-1.38-1.09-2.06-1.63-1.16-.91-2.6-1.84-2.86-3.41-.24-1.43.43-3.24 1.95-3.65.08-.02.15-.02.21-.02H104.41c.77 0 .77 1.2 0 1.2H95.4c-.25.08-.46.24-.61.46-.21.3-.33.59-.41.94-.17.73.09 1.48.6 2.02.58.62 1.28 1.11 1.96 1.65.11.09.22.18.34.27.26-1.17.61-2.31 1.05-3.42.04-.09.09-.17.15-.24.08-.23.3-.43.56-.41 1.88.11 3.77.13 5.66.07.77-.03.77 1.18 0 1.2h-.17c.34.09.77-.09.79-.55.1-3.1-1.13-6.11-2.92-8.6-.45-.63-.94-1.26-1.49-1.81s-1.2-1.05-1.87-1.48c-1.32-.83-2.8-1.46-4.33-1.76-1.69-.33-3.46-.47-5.18-.41-1.72.06-3.26.32-4.78.97-2.83 1.21-5.22 3.44-6.58 6.2-1.43 2.91-1.91 6.2-1.45 9.4.05.35.12.69.19 1.03 0-.21.12-.42.29-.52Z"/><path class="cls-12" d="M101.88 54.22c.03.32.26.6.6.6.3 0 .63-.28.6-.6v-.07c-.46-.46-.92-.92-1.39-1.37.09.48.16.96.2 1.44ZM98.08 61.59l.06.03c-.1-.69-.19-1.38-.28-2.06-.21-.14-.42-.29-.63-.44l.32 2.44s.04-.03.07-.03c.16-.04.32-.01.46.06ZM96.98 57.72h.07c.13-.02.25 0 .36.07l.27.18c0-.08-.02-.17-.03-.25a.773.773 0 0 0-.08-.27.529.529 0 0 0-.43-.32h-.48c.01 0 .02.01.04.02.2.13.31.35.29.58ZM89.99 57.08c.17.13.23.3.22.48l5.08.12c-.3-.19-.61-.39-.91-.57-1.46 0-2.92-.01-4.38-.03ZM104.69 44.84c-1.89.06-3.78.04-5.66-.07-.26-.01-.48.18-.56.41.14-.16.35-.25.59-.18.17.05.33.2.41.38l1.3.02c.11-.13.27-.22.46-.23.19 0 .35.09.46.24l2.43.03v.06c-.01.31.18.49.42.55h.17c.77-.03.77-1.23 0-1.2Z"/><path class="cls-12" d="M101.21 45.17c-.18 0-.34.1-.46.23h.92a.625.625 0 0 0-.46-.23ZM98.87 45.94c-.25-.08-.44-.28-.44-.56 0-.06.02-.13.04-.19-.06.07-.11.15-.15.24a22.88 22.88 0 0 0-1.05 3.42l.57.45 1.03-3.36ZM97.93 49.37c.13.1.26.2.39.31 0-.02 0-.04.01-.07-.03-.03-.07-.06-.1-.1a.593.593 0 0 0-.3-.14Z"/><path class="cls-12" d="m98.87 45.94.17-.57h.42a.655.655 0 0 0-.41-.37c-.24-.07-.44.02-.59.18-.02.06-.04.12-.04.19 0 .28.19.49.44.56ZM99.8 63.16c.07-.14.11-.31.06-.46-.05-.14-.14-.29-.28-.36-.48-.23-.96-.47-1.44-.72.04.26.07.51.11.77l.61.27c-.06.17-.05.37.04.53.08.14.2.22.33.26.07 0 .14 0 .21-.01a.63.63 0 0 0 .36-.28Z"/><path class="cls-12" d="M98.25 62.39c-.04-.26-.07-.51-.11-.77l-.06-.03c-.14-.07-.3-.1-.46-.06-.02 0-.04.02-.07.03l.07.54.63.28ZM89.93 57.03c-1.79-1.09-3.57-2.18-5.36-3.27-1.53-.94-3.12-1.83-4.52-2.96-.19-.15-.37-.3-.55-.46-.32-.11-.65-.2-.97-.3.78.75 1.8 1.73 2.38 2.15.81.59 5.94 3.69 7.92 4.89.38 0 .77 0 1.15.01-.02-.02-.03-.04-.06-.05ZM77.31 49.57c-.37-.37-.07-1.15.54-1-.19-.14-.43-.18-.65-.05-.17.1-.28.31-.29.52l.03.15c.04.19.2.33.38.39Z"/><path class="cls-12" d="M89.99 57.08c-.38 0-.77 0-1.15-.01.49.29.79.48.79.48h.58a.525.525 0 0 0-.22-.46ZM101.95 61.97s0-.01.01-.02c-.02.02-.04.03-.06.05.01-.01.03-.02.05-.03ZM96.99 57.73c0 .08-.03.16-.08.24a.62.62 0 0 1-.4.28c-.02.23.09.45.29.59.14.1.28.19.43.29l-.18-1.4h-.06Z"/><path class="cls-12" d="M101.95 61.12c-1.32-1.17-2.82-2.14-4.27-3.14.06.53.12 1.05.19 1.58 1.11.76 2.23 1.52 3.23 2.41.23.2.56.23.8.03.02-.02.04-.03.06-.05.21-.22.23-.62-.01-.83Z"/><path class="cls-12" d="m97.68 57.97-.27-.18a.467.467 0 0 0-.36-.07l.18 1.4c.21.15.42.29.63.44-.07-.53-.13-1.05-.19-1.58ZM96.59 58.01c.08-.14.23-.24.39-.28l-1.69-.04c.27.17.54.33.8.5.13.08.28.1.43.06a.4.4 0 0 1 .08-.23ZM77.67 49.6c-.12.03-.24.01-.36-.03.07.07.15.12.26.16.32.09.64.2.96.3-.22-.22-.43-.42-.59-.58-.07.07-.16.13-.26.16ZM79.5 50.33c4.41 1.44 8.69 3.3 12.74 5.54.72.4 1.43.81 2.13 1.24.76 0 1.52.01 2.28.01-4.54-2.96-9.49-5.31-14.58-7.16-1.38-.5-2.78-.97-4.19-1.39h-.03c.06.05.12.1.17.17.43.59.94 1.11 1.48 1.6Z"/><path class="cls-12" d="m96.69 57.14-.04-.02c-.76 0-1.52 0-2.28-.01.31.19.61.38.91.57l1.69.04a.636.636 0 0 0-.29-.58ZM78.02 48.73a.912.912 0 0 0-.17-.17c-.61-.15-.91.63-.54 1 .12.04.24.06.36.03.11-.03.19-.09.26-.16.16.16.37.37.59.58l.97.3c-.54-.48-1.05-1.01-1.48-1.6ZM96.91 57.96c.04-.08.07-.16.08-.24-.16.04-.31.14-.39.28-.04.08-.07.16-.08.23.16-.04.31-.14.4-.28Z"/><path class="cls-18" d="M148.38 100.72v-.01c.05.15.02.05 0 .01Z"/><path class="cls-18" d="M149.66 100.82c-.05-.26-.15-.5-.26-.74-.04-.1-.09-.19-.14-.29-.02-.05-.05-.11-.07-.16 0-.01-.01-.03-.02-.05v-.02a.612.612 0 0 0-.05-.12 28.05 28.05 0 0 0-2.72-3.93c-.08-.1-.2-.15-.32-.17H145.97c-.03 0-.07 0-.11.01h-.05c-2.84.73-5.79 1.04-8.67 1.58-.62.12-1.23.24-1.84.39-.02-.02-.04-.03-.06-.05-.24-.16-.48-.32-.73-.48l-.41 1.17c.18.12.36.23.53.35.12.2.34.33.63.25 2.84-.73 5.79-1.04 8.67-1.58.6-.11 1.21-.24 1.8-.38.85 1.06 1.64 2.23 2.33 3.44l.24.54c.02.04.04.08.05.12v-.02c0 .02.02.05.03.07.04.1.07.2.1.3v.05s.01.03.01.05v.05-.02.31c-.03.14-.06.27-.11.4-.01.03-.02.07-.04.1v.02c-.05.1-.09.19-.14.28v.01c-.29.44-.55.83-.91 1.2-.32.33-.67.61-1.11.7-.02 0-.09.01-.1.02h-.09c-.09 0-.18 0-.26-.01-.02 0-.08-.02-.1-.02-.05-.01-.11-.03-.16-.04a.612.612 0 0 1-.12-.05c-.02 0-.07-.03-.08-.04-.04-.02-.08-.05-.11-.07a.21.21 0 0 1-.06-.04c-.03-.03-.06-.05-.09-.08-.02-.02-.05-.06-.06-.07-.01-.01-.02-.03-.03-.04.64-.07 1.23-.48 1.52-1.08.48-1.02-.04-2.11-.92-2.71-.96-.65-2.19-.52-3.21-.09-1.02.43-1.89 1.2-2.88 1.73-.76.42-1.75.79-2.54.25a.43.43 0 0 0-.27-.08h-.04c-.31 0-.62.27-.6.6 0 .14.03.27.05.4-1.17-.06-2.32-.21-3.47-.43l-.4 1.14c1.44.28 2.9.48 4.37.51.25.38.58.7.97.95.5.32 1.08.45 1.67.49.58.03 1.17-.04 1.74.05 1.04.16 1.89.89 2.75 1.44.94.59 2.19 1.05 3.19.3.51-.38.79-.99.64-1.63-.05-.21-.14-.39-.25-.54.85-.48 1.48-1.36 2.01-2.16l.06-.12c.32-.62.49-1.27.36-1.97Zm-3.33 5.2s0 .03-.01.05c0 .02-.02.05-.03.05-.03.06-.05.08-.12.14-.08.07-.2.12-.35.16-.71.17-1.58-.52-2.18-.92-.74-.49-1.53-1-2.42-1.15-.51-.09-1.03-.08-1.55-.08-.42 0-.89-.01-1.27-.17-.36-.15-.67-.42-.89-.75 1.26.09 2.6-.7 3.6-1.38.27-.19.55-.38.85-.56-.02.15-.03.29-.01.44.09.91.81 1.71 1.69 1.91.19.96 1.1 1.58 2.05 1.67.11.16.29.26.5.27s-.01 0-.02 0h.03s.02.01.02.02c-.09-.07.09.12.03.04.02.02.03.05.05.08 0 0 0 .03.01.06V106.01ZM131.53 102.15c-.32-.07-.65.1-.74.42-.08.3.1.67.42.74.31.07.63.13.94.19l.4-1.14-1.02-.21Z"/><path class="cls-18" d="M132.88 96.48c-.16.3-.07.64.22.82.34.22.67.44 1.01.66l.41-1.17-.81-.54c-.26-.17-.67-.06-.82.22ZM148.51 101.18c0-.02-.01-.05-.01-.07 0 0 0 .01.01.08Z"/><path d="M125.98 149.99c-.65.77-1.29 1.55-1.96 2.29-.63.7-1.33 1.37-2.17 1.82-.85.44-1.77.6-2.69.35-.56-.15-1.08-.42-1.58-.72-.18.24-.51.3-.77.16-.27-.14-.36-.49-.24-.76-.05-.02-.11-.03-.15-.02.01-.06 0-.13-.03-.18a.258.258 0 0 0-.35-.09c-.75.4-1.43.94-1.99 1.57-.02.03-.04.06-.05.09-.13-.07-.32-.04-.35.15-.28 1.62-.27 3.28.05 4.9 0 .05.03.08.05.11v.03c-.15 1.01-.12 2.02.06 3.02-.14.13-.09.44.17.44l11.93.13 11.88.13 6.7.07c.11.07.27.07.34-.08.35-.74.57-1.53.64-2.34.04-.5.07-1.2-.29-1.6 0-.11-.05-.22-.17-.26-3.68-1.22-7.39-2.37-11.11-3.45a22.079 22.079 0 0 0-6.27-4.15v-.04a2.64 2.64 0 0 0-1.24-1.74h-.03c-.1.09-.22.15-.36.16Z" style="fill:#ffc101"/><path class="cls-18" d="M117.57 153.74s.04-.03.05-.05l1.12-1.86s.04-.08.05-.13c.18-.1.3-.3.32-.53.2-2.82.33-5.65.38-8.47-.4-.12-.8-.24-1.19-.36-.05 2.9-.17 5.79-.38 8.68a.63.63 0 0 0-.22.21l-1.12 1.86s-.01.04-.02.06c.01 0 .02 0 .03.01.32.19.65.4.98.59ZM119.51 141.09c0-.77-1.2-.77-1.2 0 0 .41-.01.83-.02 1.24.4.12.8.25 1.19.36l.03-1.61Z"/><path class="cls-18" d="M116.79 153.9c.26.14.59.07.77-.16-.33-.19-.66-.39-.98-.59-.01 0-.02 0-.03-.01-.12.27-.03.62.24.76ZM125.35 149.24c-.07.32.1.65.42.74.07.02.14.02.21.01l.03-.03c0-.01 0-.03.01-.04.06-.11.21-.15.32-.1.08-.07.15-.16.17-.27.36-1.56.62-3.15.89-4.73-.39-.09-.78-.19-1.17-.29-.27 1.57-.53 3.14-.89 4.7Z"/><path class="cls-18" d="M127.28 142.44c-.29-.08-.68.1-.74.42-.11.56-.21 1.12-.31 1.68.39.1.78.19 1.17.29.1-.55.19-1.1.3-1.65.06-.32-.09-.65-.42-.74ZM126.02 149.92s0 .03-.01.04l-.03.03c.13-.01.26-.07.36-.16-.11-.05-.26-.01-.32.1Z"/><path class="cls-12" d="M74.88 100.6c-.5.25-.99.5-1.49.73v-1.22c-.04-2.55-.09-5.1 0-7.66s.2-12.68.2-12.68c1.09-2.22 2.3-4.49 3.79-6.5.47-1.99 1.01-3.97 1.61-5.93.02-.07.06-.13.09-.18v-.02a17.85 17.85 0 0 0-4.72 4.81c-.24.37-.47.75-.68 1.14l.03-1.77c.01-.66.06-1.33 0-1.99-.07-.66-.26-1.28-.78-1.7-.59-.48-1.37-.5-2.1-.56-2.44-.21-4.9-.22-7.35-.2-.09-1.48-.11-2.95-.05-4.43 0-.16-.07-.31-.18-.42-.1-.18-.28-.3-.5-.34-.23-.04-.47-.04-.7-.05l-1.23-.05c-.2 0-.4.11-.51.28-.08.07-.14.17-.17.28a20.05 20.05 0 0 0-.3 4.77l-3.64.03c-.82 0-1.64 0-2.46.03-.72.03-1.39.14-2 .45-.17.03-.32.13-.42.28-.33.49-.51 1.04-.61 1.62l-.09-.06s-.02-.02-.03-.02c-.06-.05-.11-.1-.16-.16v-.01s0-.01-.01-.03c-.02-.03-.03-.06-.05-.08-.08-.15-.13-.32-.23-.46-.28-.39-.71-.55-1.18-.52-.47.04-.91.12-1.36.19-.12.02-.22.09-.3.19-.2.01-.4.11-.48.29-.79 1.73-1.45 3.51-1.94 5.34-.12.45-.23.91-.34 1.37-.1.46-.2 1.01.19 1.4.57.57 1.27.28 1.87-.1 0 2.13.05 4.27.1 6.4l.36 14.24.2 7.99v.03c-.04.24.05.49.28.62.41.23.84.37 1.31.44.28.04.56.05.82-.1.28-.16.41-.47.43-.78 0-.18-.04-.37-.09-.54.02 0 .04-.01.06-.02.08-.03.16-.05.25-.07.1-.02.19-.05.28-.07-.05 1.12.26 2.2 1.27 2.81 1.2.72 2.72.58 4.07.57a390.91 390.91 0 0 0 13.53-.33c1.22-.05 3.05.13 3.58-1.28.12-.31.13-.65.16-.98.02-.2.03-.39.04-.59.07-.01.15-.03.22-.06.56-.26 1.11-.52 1.66-.79-.03-.35-.07-.7-.09-1.05-.06-.83-.11-1.66-.16-2.49Zm-24.95 4.39c-.07.06-.03.03 0 0Z"/><path class="cls-12" d="M135.13 94.75c.01-.22-.08-.46-.29-.55-5.61-2.56-11.16-5.24-16.65-8.03-1.51-.77-3.01-1.54-4.51-2.32-2.8-3.6-5.75-7.08-8.86-10.41-1.49-1.59-3-3.18-4.58-4.68-.38-.36-.76-.71-1.16-1.06-.24-1.55-.49-3.09-.72-4.64-.29-.14-.59-.29-.88-.43-.3-.15-.36-.55-.22-.82.06-.11.17-.19.29-.24l-.32-2.44c-.14-.1-.28-.19-.43-.29-.2-.14-.32-.36-.29-.59a.59.59 0 0 1-.43-.06c-.26-.17-.53-.33-.8-.5l-5.08-.12c-.03.4-.44.77-.88.5-.55-.33-1.1-.67-1.65-1-1.47-.01-2.93-.03-4.4-.04-.05.11-.09.22-.13.33-.04.09-.08.17-.13.23.06.19.11.38.17.57.21.75-.95 1.06-1.16.32-.14-.49-.28-.98-.43-1.46-.85 0-1.7-.01-2.55-.01-.23 0-.39.11-.48.26-.19.15-.3.4-.22.64.7 2.09 1.53 4.15 2.47 6.14-.77.91-1.33 1.98-1.73 3.11a16.58 16.58 0 0 1 9.38-2.98c.07 0 .12.02.17.03l.09-.06c.29-.17.64-.06.82.22.18.27.05.66-.22.82-.08.05-.16.1-.24.16a.55.55 0 0 0-.09.07s-.1.08-.08.06c-.02.01-.04.04-.05.04-.03.02-.06.05-.09.07-.06.06-.13.11-.19.17a4.26 4.26 0 0 0-.42.47c0 .01-.1.13-.06.08.03-.04-.03.05-.04.05a.55.55 0 0 1-.07.09c-.21.3-.39.62-.54.95-.02.04-.03.07-.05.11 0 .02-.01.03-.01.03s0 .02-.01.03c-.03.08-.06.15-.09.23-.06.17-.12.35-.17.53-.09.33-.42.49-.74.42s-.5-.44-.42-.74c.07-.27.17-.53.27-.79-1 .17-1.97.49-2.88.92-2.47 1.18-4.39 3.02-5.97 5.16-.92 3.89-1.61 7.83-2.05 11.8-.57 5.15-.71 10.35-.45 15.52 1.01-.5 2.01-1.03 2.99-1.6 2.95-1.74 5.72-3.79 8.24-6.11 1.29-1.19 2.58-2.44 3.66-3.82 1.09-1.37 1.98-2.9 2.79-4.44.15-.29.55-.37.82-.22.29.17.37.53.22.82-.01.03-.03.05-.04.08l.71.57c.44-.35 1.21.19.88.79-.99 1.8-2.17 3.5-3.48 5.09-2.35 2.86-5.14 5.34-8.16 7.48-2.65 1.88-5.47 3.48-8.38 4.91.27 3.04.67 6.07 1.21 9.08v.03c.06.3.42.47.71.41h.03c.86-.13 1.72-.26 2.58-.4-.01-.23-.03-.45-.03-.67 0-.75 1.14-.77 1.2-.05.06-.01.15-.03.22-.04-.41-.81.71-1.79 1.44-1.04.2.21.38.44.54.68 3.31-.61 8.59-1.63 10.37-2.23 1.1-.37 3.2-1.07 5.27-1.76-.07-.44.21-.87.65-1l5.46-1.65c.36-.11.71.04.93.31l.38.06c.13-.14.18-.34.15-.53v-.04c-.6-3.26-1.3-6.5-2.05-9.72-.14-.59-.28-1.18-.42-1.76 1.41.82 2.87 1.57 4.36 2.24.21.55.45 1.08.71 1.61 0 .21.1.43.29.51 4.64 2.08 9.42 3.88 14.29 5.36 0-.01-.02-.02-.03-.03a.503.503 0 0 1-.13-.56c.57-1.88 1.2-3.75 1.87-5.6.05-.14.14-.25.25-.33a.7.7 0 0 1 .1-.08c.12-.07.32-.11.46-.06l1.36.48c.15.05.27.14.36.28.04.07.07.15.08.23.02.09.02.18-.01.27a102.8 102.8 0 0 0-1.79 5.65c-.04.13-.11.23-.19.3-.02.04-.06.08-.09.12.05.01.11.03.16.05 1.61.45 3.23.87 4.86 1.26.12.03.22.02.32 0 .29.03.55-.16.65-.44l.54-1.53c-.31-.06-.63-.12-.94-.19-.32-.07-.5-.44-.42-.74.09-.32.42-.49.74-.42.34.08.68.15 1.02.21l1.55-4.4c-.33-.22-.67-.44-1.01-.66a.622.622 0 0 1-.22-.82c.15-.28.56-.39.82-.22l.81.54.61-1.74a.47.47 0 0 0 0-.31Zm-41.81 10.26c0 .05-.04.11-.06.16a2 2 0 0 1 .06-.16Zm0 .04.03-.02.45-.07 6.72-7.01s.02-.09.05-.05c.02.03-.02.1-.05.05Zm.02-.26c.13-.2.02.04-.02.11-.03-.01.02-.09.02-.11Zm0-.12v-.05c.09-.07.03.09 0 .05Zm.06.53c0-.06 0-.12.03-.17.02.03.01.13-.03.17Zm12.95-12.98a5.94 5.94 0 0 0-4.1.94c-.27.18-.66.05-.82-.22-.17-.29-.05-.64.22-.82 1.37-.9 3.08-1.31 4.71-1.1.32.04.6.24.6.6 0 .29-.28.64-.6.6Z"/><path class="cls-12" d="M78.98 67.35c-.6 1.96-1.13 3.94-1.61 5.93 1.59-2.13 3.5-3.98 5.97-5.16.91-.44 1.89-.75 2.88-.92.48-1.22 1.29-2.3 2.4-3.01a.467.467 0 0 0-.17-.03 16.58 16.58 0 0 0-9.38 2.98v.02c-.04.05-.07.11-.09.18ZM91.67 91.76c1.31-1.59 2.48-3.29 3.48-5.09.33-.6-.44-1.14-.88-.79l-.71-.57s.03-.05.04-.08c.15-.29.07-.65-.22-.82-.27-.16-.67-.07-.82.22-.81 1.55-1.71 3.07-2.79 4.44-1.09 1.37-2.37 2.63-3.66 3.82A48.717 48.717 0 0 1 77.87 99c-.97.57-1.98 1.1-2.99 1.6.04.83.09 1.66.16 2.49l.09 1.05c2.91-1.42 5.74-3.03 8.38-4.91 3.02-2.14 5.81-4.61 8.16-7.48Z"/><path class="cls-12" d="M86.23 67.2c.32-.05.64-.09.97-.12.32-.02.6-.26.6-.6 0-.2-.11-.39-.28-.51l.4-.6c.18 0 .36-.01.54-.01.71 0 .76-1 .17-1.17-1.11.71-1.91 1.79-2.4 3.01Zm2.22-2.64ZM88.45 64.56ZM95.46 43.49s-.04.02-.06.02h9.01c.77 0 .77-1.2 0-1.2H95.35c.59.05.77.99.11 1.17ZM98.86 50.11s.09.08.13.13a.219.219 0 0 1-.03-.05c-.03-.03-.07-.05-.1-.08ZM97.82 49.35s.07.02.11.02c-.03-.02-.06-.05-.09-.07l-.02.05Z"/><path class="cls-12" d="m98.32 49.68-.06.28c-.06.32-.45.5-.74.42-.33-.09-.48-.42-.42-.74.05-.27.11-.53.17-.79-.11-.09-.22-.18-.34-.27-.68-.53-1.38-1.03-1.96-1.65-.5-.54-.76-1.28-.6-2.02.08-.35.2-.64.41-.94.15-.22.36-.38.61-.46h-.02c-.76 0-.77-1.17-.03-1.2-.07 0-.14 0-.21.01-1.52.42-2.18 2.22-1.95 3.66.26 1.57 1.7 2.5 2.86 3.41.69.54 1.38 1.08 2.06 1.63.25.2.6.25.85 0 .2-.2.24-.59.03-.8-.04-.04-.09-.08-.13-.13-.18-.14-.36-.29-.54-.43Z"/><path class="cls-12" d="M97.52 50.38c.29.08.68-.1.74-.42l.06-.28c-.13-.1-.26-.2-.39-.31-.04 0-.07-.02-.11-.02l.02-.05-.57-.45c-.06.26-.12.53-.17.79-.06.32.09.65.42.74ZM95.38 43.51h.02s.04-.02.06-.02c.67-.18.48-1.13-.11-1.17-.74.03-.74 1.2.03 1.2Z"/><path class="cls-18" d="M83.28 57.02s.03-.07.04-.1c.21-.49.44-.96.67-1.44.07-.15.1-.3.06-.46a.797.797 0 0 0-.16-.26c-.08-.05-.15-.09-.23-.14-.03 0-.05-.02-.08-.03v-.02c-.84-.51-1.68-1.03-2.51-1.58-.1-.06-.19-.14-.29-.2-.21.12-.35.35-.27.65.33 1.19.71 2.37 1.07 3.56H83.27ZM83.18 58.15c-.05-.19-.11-.38-.17-.57.05-.07.1-.14.13-.23.04-.11.09-.22.13-.33H81.58c.15.49.29.97.43 1.46.21.74 1.37.43 1.16-.32Z"/><path class="cls-18" d="m83.59 54.58.14-.36-2.82-2.04.16.53c-.1 0-.2.04-.29.09.1.07.19.14.29.2.83.54 1.67 1.06 2.51 1.58ZM83.66 54.62c.08.05.15.09.23.14-.04-.04-.07-.08-.11-.1-.03-.02-.07-.03-.11-.04Z"/><path class="cls-19" d="M123.47 103.61c.23.18.47.34.74.47.27.12.54.22.83.28.16.03.32.02.46-.06.05-.03.09-.07.13-.11-.75-.21-1.49-.43-2.23-.66.02.03.04.06.07.08Z"/><path class="cls-19" d="M125.92 103.77c.54-1.9 1.14-3.79 1.79-5.65.03-.09.03-.18.01-.27a.4.4 0 0 0-.08-.23.673.673 0 0 0-.36-.28l-1.36-.48c-.14-.05-.34-.01-.46.06a.7.7 0 0 0-.1.08c-.11.08-.2.2-.25.34-.67 1.85-1.3 3.71-1.87 5.6-.07.24 0 .43.13.56 0 .01.02.02.03.03.74.23 1.48.45 2.23.66.03-.04.06-.07.09-.12.09-.07.16-.17.19-.3Z"/><path class="cls-3" d="m96.07 103.13.05-.1c-.1.05-.1.05-.05.1ZM99.03 99.93c-.13.06.09.18.12.05.13-.06-.08-.05-.12-.05ZM98.89 100.17c.01.05.15-.15.05-.13-.05.08-.17-.06-.05.13ZM98.43 100.92c-.03.07-.03.22.04.09.11-.07.04-.18-.04-.09ZM99.05 100.2c.04.07.08-.01.09-.07-.04.02-.1.02-.09.07ZM100.54 97.32s.05-.03.07-.04c-.06.03-.08.04-.07.04ZM97.12 101.75zM97.08 100.62c.01-.02.03-.04.04-.06-.03 0-.05 0-.05.06ZM100.02 97.62c.16-.11-.01-.05-.05.02h.03s.02 0 .02-.01ZM97.49 100.04s.04-.05.06-.08c-.03 0-.05.04-.06.08ZM100.73 97.22s-.07.04-.11.06c.04-.02.09-.04.19-.08-.15.06.15-.09-.07.02ZM100.51 97.8c.05-.07.15-.31.02-.11 0 .02-.06.1-.02.11ZM100.22 98.82l-.05.11s.1-.1.12-.14h-.03s-.02.02-.03.04ZM100.59 98.1s.05-.14.03-.17c-.03.05-.02.12-.03.17ZM100.54 97.52v.05s.08-.13 0-.05ZM100.52 97.95c.03.05.07-.02.05-.05-.03-.04-.06.03-.05.05ZM96.64 102.7c-.11.15-.45.15-.45.44.1-.17.81-.44.45-.44ZM96.73 100.81c-.07-.08-.34.1-.25.22.1 0 .28-.1.25-.22Zm-.07.05c.03.06-.07.11-.12.08-.02-.07.11-.12.12-.08ZM95.53 103.8c0 .18-.07.03-.14.19.17.06.48-.36.14-.19ZM93.35 105.03c-.05.14.13-.19.12-.29-.04.07-.09.24-.12.29ZM98.18 101.21c-.1.05-.23-.07-.23.09.04.05.4-.03.23-.09ZM93.54 104.55c-.03-.07-.13.15-.1.16.06 0 .1-.12.1-.16ZM95.03 102.72c-.06-.07.13-.24.04-.27-.11 0-.16.29-.04.27ZM97.12 102.32c-.1.25-.26.1-.35.32.15.04.62-.4.35-.32ZM93.55 104.9c-.1.13.07-.04.02.05.1 0 .11-.13-.02-.05ZM93.92 104.87c.26-.14-.01-.11-.08-.01.08-.04-.01.08.08.01ZM95.74 103.66c-.06.05.03.05 0 .12.16-.02.21-.26 0-.12ZM93.74 103.79c0 .06-.01.35.06.1.07-.09.01-.2-.06-.1ZM95.95 103.39s.15.13.21.05c-.02-.06-.16-.09-.21-.05ZM94.26 103.38c.11-.03.09-.09.15-.17-.11.03-.3.26-.15.17ZM94.04 103.51s.12-.15 0-.11c-.14.11 0 .33 0 .11ZM93.76 103.74c.02-.07.18-.19.07-.19-.05 0-.16.28-.07.19ZM95.58 102.2c.06 0 .04-.06.03-.1-.12 0-.22.24-.03.1ZM94.24 103.21c-.06-.05-.18.18-.07.12.03-.02.1-.1.07-.12ZM95.63 101.89s.04-.04.05-.07c.03-.17-.23.16-.05.07ZM93.67 104.77s.02.01.06-.02c.03-.03.03-.04.04-.05-.02 0-.05.03-.07.03-.03.02-.05.05-.03.05ZM93.7 104.72s.05-.02.07-.03c0-.02-.03 0-.07.03ZM95.77 102.08c0 .07.15-.05.13-.1h-.01c-.04.01-.11.05-.11.1ZM95.88 101.99h.01-.01ZM95.92 101.76c.09-.11.04-.12-.04-.02-.07.07-.03.1.04.02ZM93.52 104.47s0-.15-.03-.07c-.02.05 0 .15.03.07ZM95.88 101.67s.04-.11-.02-.06c-.1.05-.02.16.02.06ZM93.46 104.94s.05-.02.07-.05c.03-.07-.07.03-.07.05ZM93.26 105.17c.02-.05.05-.11.06-.16 0 0-.08.21-.06.16ZM93.32 105.05s.06-.11.05-.15c-.01.02-.06.15-.05.15ZM94.75 104.49c-.13.17.11.05.02-.03-.03 0-.03 0-.02.03ZM97.76 99.67s.04-.05.06-.07c-.03.01-.06.05-.06.07Z"/><path class="cls-3" d="m97.78 99.7.07-.11h-.03c-.02.02-.04.05-.06.07 0 .01 0 .02.02.03ZM93.38 104.81s.04-.06.03-.08c-.01.01-.04.07-.03.08ZM95.2 104.07c-.03-.12.19-.11.08-.17-.09 0-.26.23-.08.17ZM95.13 104.2c-.08-.01-.03.04 0 .09.07.05.15-.18 0-.09ZM94.86 104.14c.04.06.02.13.09.06-.02 0 .07-.2-.09-.06ZM94.88 104.48s.1.04.12-.03c.04-.12-.09 0-.12.03ZM94.52 104.72c0 .11.39.07.21-.06-.17 0-.65.1-.21.06ZM94.25 104.84c-.16.05-.07.06.07.03.1-.06-.02-.07-.07-.03ZM93.8 104.96c.09.08.22-.06.33-.11.25-.21-.22.1-.33.11Z"/><path class="cls-8" d="M98.97 108.85c-.08.06-.15.13-.2.22-1.02 1.85.25 4.32 2.27 4.78 2.36.54 4.56-1.32 5.12-3.53.35-1.39.17-2.87-.28-4.21-.01-.03-.03-.07-.04-.1-1.93.95-3.92 1.79-5.95 2.52-.31.11-.62.2-.92.31Zm5.43-1.36c.18.82.22 1.66 0 2.47-.26.94-.88 1.67-1.69 2.01-.12.05-.4.13-.6.17.01 0-.24.01-.27.01-.03 0-.26-.03-.26-.02-.1-.02-.2-.05-.3-.08-.01 0-.02 0-.03-.01a.539.539 0 0 1-.13-.07c-.08-.05-.16-.1-.24-.16l-.17-.16c-.02-.02-.14-.16-.15-.18-.05-.08-.11-.16-.15-.24-.01-.03-.09-.2-.1-.21-.03-.09-.06-.17-.08-.26 0-.03-.01-.07-.02-.11v-.3c0-.01.04-.19.05-.22 0-.02.01-.04.02-.05.02-.04.04-.07.06-.11.22-.4.11-.92-.26-1.19 1.44-.44 2.88-.87 4.33-1.31Z"/><path class="cls-12" d="M103.88 106.06c.09-.34.42-.47.74-.42.36.05.73.11 1.09.17-.22-.27-.57-.42-.93-.31l-5.46 1.65c-.43.13-.71.56-.65 1 2.13-.71 4.25-1.42 5.22-1.74a.566.566 0 0 1-.01-.34Z"/><path class="cls-12" d="M98.67 108.15s0 .07.02.1c.06.22.21.4.39.52-.04.02-.08.06-.11.08.31-.11.62-.2.92-.31 2.03-.73 4.02-1.56 5.95-2.52-.04-.08-.08-.15-.13-.22-.36-.06-.73-.11-1.09-.17-.32-.05-.64.08-.74.42-.03.11-.02.23.01.34"/><path class="cls-8" d="M93.18 113.45c-.38-.31-.91-.37-1.27 0-.32.32-.38.96 0 1.27l5.12 4.19c-.36.5-.81.86-1.43 1.17-.3.15-.82.31-1.28.38-.02 0-.18.02-.21.02-.11 0-.22.01-.33.01-.13 0-.25 0-.38-.01-.05 0-.1 0-.15-.01-.02 0-.09-.01-.12-.02-.23-.04-.46-.1-.68-.18-.05-.02-.11-.04-.16-.06h-.02c-.13-.06-.25-.12-.37-.2-.25-.15-.29-.18-.47-.34-.08-.07-.16-.15-.24-.23-.08-.09-.19-.21-.19-.22a3.7 3.7 0 0 1-.61-1.18c-.07-.23-.13-.46-.17-.7v-.04c0-.05-.01-.1-.01-.14-.01-.14-.02-.29-.02-.43 0-1.01.32-1.97 1.03-2.69.82-.83-.46-2.1-1.27-1.27-1.81 1.83-2.03 4.87-.7 7.05 1.37 2.24 4.21 3.02 6.62 2.09 1.33-.51 2.51-1.44 3.12-2.75.16-.34.18-.83-.14-1.09-1.88-1.54-3.77-3.08-5.65-4.62ZM114.71 121.64c.39-.28.45-.76.25-1.18-1.22-2.65-4.31-4.18-7.15-3.62-2.88.56-5.01 3.27-5.15 6.14-.01.22.06.39.16.53 1.77.15 3.58.28 5.35.36l5.93-1.2c.56-.11.73-.59.62-1.02Zm-10.23 1.14c.19-2.02 1.8-3.83 3.81-4.2 1.97-.37 3.97.74 4.93 2.43-2.91.59-5.82 1.18-8.74 1.77ZM112 109.47c-.44 1.34-.04 2.74.85 3.79 2 2.35 5.51 1.87 7.64 0 1.25-1.1 2.04-2.64 2.54-4.21.01-.03.01-.07.02-.1l-1.77-.36c-.42 1.3-1.07 2.55-2.12 3.44-.93.79-2.26 1.27-3.47.95-.97-.25-1.92-1.04-2.06-2.08-.14-1.01.54-2.02 1.53-2.23.62-.13.76-.7.57-1.16l-1.77-.33c-.93.44-1.63 1.3-1.96 2.29ZM125.68 115.13c.08.99.57 1.83 1.41 2.38.71.46 1.64.65 2.49.57 1.19-.12 2.25-.63 3.29-1.17.11-.06.2-.14.27-.24-.08-.45-.19-.89-.34-1.32a.942.942 0 0 0-.85 0c-.24.12-.48.25-.73.37-.2.1-.4.19-.53.24-.25.09-.51.18-.77.25-.12.03-.24.06-.37.07a.88.88 0 0 0-.17.02h-.32c-.03 0-.19-.02-.22-.02-.16-.03-.32-.08-.48-.12-.04-.02-.06-.02-.07-.02a.3.3 0 0 1-.08-.04c-.09-.05-.18-.1-.27-.16-.02-.01-.02-.01-.03-.02-.03-.03-.06-.05-.09-.08-.01-.01-.09-.1-.13-.13-.02-.04-.1-.15-.11-.17-.02-.03-.03-.06-.05-.1 0 0 0-.03-.03-.08 0-.03-.04-.23-.05-.24v-.25c0-.03.02-.19.02-.2.02-.1.04-.19.07-.29.02-.06.04-.11.06-.17-.04.08-.03.07.01-.03.05-.09.09-.18.15-.27.05-.09.11-.18.17-.26-.07.09.13-.15.16-.17.16-.17.33-.33.51-.47.05-.04.05-.04 0 0 .05-.04.1-.07.15-.11.1-.07.2-.14.31-.21.21-.14.42-.27.64-.39.23-.13.38-.37.43-.63-.44-.33-.91-.63-1.4-.89-1.57.93-3.22 2.35-3.07 4.36ZM83.34 112.66c-.64.11-1.28.22-1.92.32.02.03.05.05.07.07.02.02.06.08.06.09.04.06.08.12.12.19.08.13.14.26.21.39.01.03.02.04.03.05 0 .01 0 .03.02.06.02.06.04.11.06.17.09.27.16.54.2.82 0 .04.01.16.01.16 0 .06 0 .12.01.18v.49c0 .07-.01.15-.02.22v.07c-.03.15-.05.29-.09.44-.04.14-.08.29-.13.43-.02.06-.04.12-.07.18 0 .02-.03.08-.05.1-.2.41-.38.68-.64.95.3.42.64.81 1.04 1.13.07.06.14.11.21.16 1.7-1.72 1.99-4.56.87-6.68Z"/><path class="cls-12" d="M82.49 111.47c-.74-.76-1.85.23-1.44 1.04.49-.09 1.17-.21 1.98-.36-.16-.24-.34-.47-.54-.68Z"/><path class="cls-12" d="M81.43 112.98c.64-.1 1.28-.21 1.92-.32-.09-.18-.2-.35-.31-.52-.81.15-1.49.27-1.98.36.04.08.09.16.17.24l.21.24Z"/><path class="cls-8" d="M119.78 120.32c.33-.59.78-1.11 1.34-1.5.06.1.11.19.17.29l1.42-1.15c-.09-.16-.18-.32-.28-.48a.807.807 0 0 0-.82-.43.875.875 0 0 0-.94-.07c-1.93.97-3.19 3.13-3.23 5.28.03-.05.05-.1.1-.13l2.25-1.81ZM125.26 126.01c-.1.02-.19.04-.29.09-1.93.86-4.55-.16-5.42-2.1-.24-.54-.34-1.12-.32-1.69l-.85.68c-.25.2-.6.25-.85 0a.411.411 0 0 1-.08-.13c.21 2.48 2 4.47 4.39 5.11 1.36.37 2.76.25 4.04-.32a.73.73 0 0 0 .33-.32c.68.29 1.62-.46 1.15-1.28-1.35-2.35-2.7-4.69-4.06-7.04l-1.42 1.15c1.12 1.95 2.25 3.9 3.37 5.85Z"/><path class="cls-8" d="M117.45 122.86s.05.09.08.13c.25.25.6.2.85 0l.85-.68c.02-.69.22-1.37.55-1.98l-2.25 1.81-.1.13c0 .2 0 .39.01.59ZM121.89 120.16l1.42-1.15-.6-1.05-1.42 1.15.6 1.05ZM126.76 133.76c-1.12-.93-2.55-1.5-4.02-1.33-.48.05-.9.38-.9.9v.09c-.26 2.78-.51 5.57-.77 8.35 0 .1 0 .19.04.29-.08.42.08.89.61 1.04 2.37.69 4.98-.49 6.27-2.54 1.41-2.23.74-5.15-1.25-6.8Zm.19 4.6c-.29 1.87-2.23 3.22-4.04 3.11.22-2.41.44-4.82.67-7.23 1.94.26 3.69 2.09 3.38 4.13ZM129.46 126.98c.12 1.86 1.14 3.56 2.64 4.6.12-.69.23-1.38.33-2.08-.66-.68-1.11-1.57-1.17-2.52-.09-1.47.67-2.97 1.89-3.79.06-.68.12-1.38.16-2.09-2.32.95-4.02 3.31-3.86 5.88Z"/><path class="cls-5" d="M69.36 85.84c-.05-.12-.7-1.29-1.91-2.74s-.05-.08-.06-.13c-.16-1.54-.4-2.55-.4-2.55a.415.415 0 0 0-.37-.32l-1.23-.13h-.03c-.14 0-.26.12-.26.26v.45h-.01c-.75-.65-1.58-1.28-2.51-1.83a1.06 1.06 0 0 0-.61-.17c-.23 0-.43.07-.61.19-4.2 2.68-6.46 6.98-6.55 7.21-.02.05-.04.12-.04.18 0 .2.14.36.32.4l1.22.22c.16.04.29.18.31.35.01.22.32 5.03.63 6.27.05.18.22.31.41.31.71-.03 1.37-.05 2.07-.07s.05 0 .05 0c.08 0 .13-.06.13-.14-.04-.42-.11-1.38-.18-2.39v-.08c0-.09-.06-.16-.13-.21-.37-.21-.63-.6-.66-1.05-.09-1.69-.16-3.64-.09-5.17 0-.13.11-.23.24-.23.14 0 .25.1.25.24v.02c-.04 1.02-.03 2.22.01 3.41 0 .16.14.29.3.28.16 0 .29-.14.28-.3-.04-1.2-.06-2.41 0-3.43 0-.13.11-.23.24-.23.14 0 .25.1.25.24v.02c-.04 1.01-.03 2.21.01 3.39 0 .16.14.29.3.28.16 0 .29-.14.28-.3-.04-1.19-.05-2.39 0-3.41 0-.13.11-.23.24-.23.14 0 .25.1.25.24v.02c-.06 1.49 0 3.36.08 5.01v.07c0 .45-.21.85-.55 1.1-.06.04-.1.11-.11.19 0 0-.03.25.1 1.48.06.53.11.9.13 1.07 0 .06.06.11.13.11h.11c.24 0 .48 0 .73-.01h.1c.32 0 .62 0 .91-.01h.69c.07 0 .12-.06.13-.12.14-1.47.16-2.3.16-2.3 0-.07-.06-.13-.13-.14l-.84-.1a.282.282 0 0 1-.24-.2c-.02-.06-.01-.13-.01-.13.26-4.9 1.85-6.58 1.85-6.58.05-.05.08-.07.08-.07.04-.03.09-.05.15-.05.11 0 .2.07.24.16 0 0 .01.03.02.12.16 1.54.14 4.16.08 6.21-.05 1.74-.11 3.1-.11 3.1 0 .06.05.1.1.1h1.39c.2 0 .36-.14.4-.32.27-1.25.42-6.07.43-6.29.02-.17.14-.31.3-.36l1.22-.25c.18-.05.31-.22.31-.41 0-.06-.02-.12-.04-.18Z"/></g><g id="Outline"><path class="cls-5" d="M108.73 84.76c.08.32 1.1.36 2.29.08 1.19-.28 2.09-.77 2.02-1.09-.08-.32-1.1-.36-2.29-.08-1.19.28-2.09.77-2.02 1.09ZM120.22 120.74c-.24-.23-1.16.32-2.07 1.23-.91.91-1.45 1.84-1.22 2.08.24.23 1.16-.32 2.07-1.23.91-.91 1.45-1.84 1.22-2.08ZM50.38 106.24c.33 0 .62-8.23.64-18.39.02-10.16-.23-18.39-.56-18.39s-.62 8.23-.64 18.39c-.02 10.16.23 18.39.56 18.39ZM96.41 50.62c.14-.12-.48-.85-1.07-2.14-.28-.64-.54-1.44-.45-2.28.07-.84.54-1.68 1.33-2.32 1.61-1.32 3.7-1.3 5.13-1.24 1.46.09 2.41.17 2.44 0 .03-.15-.83-.52-2.34-.84-.76-.14-1.69-.26-2.75-.16s-2.25.5-3.25 1.3c-.5.4-.91.9-1.21 1.45-.3.55-.45 1.16-.47 1.73-.04 1.16.39 2.09.81 2.76.88 1.34 1.73 1.83 1.82 1.74ZM98.85 65.96c.33-.05.32-1.98-.01-4.32-.34-2.34-.87-4.2-1.2-4.15-.33.05-.32 1.98.01 4.32.34 2.34.87 4.2 1.2 4.15Z"/><path class="cls-5" d="M85.05 57c-.01.33 2.84.72 6.38.86s6.42 0 6.43-.34c.01-.33-2.84-.72-6.38-.86s-6.42 0-6.43.34ZM89.77 80.72c-.13.08.28 1.13 1.24 2.66.96 1.53 2.51 3.53 4.55 5.41 2.04 1.88 4.16 3.26 5.76 4.09 1.61.83 2.69 1.15 2.75 1.01.16-.33-3.78-2.33-7.71-5.98-3.96-3.61-6.29-7.37-6.6-7.19Z"/><path class="cls-5" d="M74.58 100.48c.06.14 1.39-.24 3.39-1.2s4.66-2.56 7.26-4.75c1.3-1.1 2.45-2.24 3.44-3.33.98-1.1 1.81-2.14 2.44-3.06 1.27-1.83 1.85-3.08 1.72-3.16-.31-.21-3.28 4.38-8.37 8.63-5.05 4.3-10.03 6.54-9.88 6.88ZM74.3 104.79c.05.14 1.56-.23 3.87-1.2 2.3-.97 5.38-2.6 8.44-4.91a42.32 42.32 0 0 0 4.08-3.52c1.16-1.18 2.17-2.28 2.93-3.28 1.55-1.97 2.27-3.35 2.15-3.43-.3-.23-3.87 4.81-9.89 9.27-5.96 4.53-11.73 6.71-11.59 7.07Z"/><path class="cls-10" d="M81.37 63.12c.08.16.79-.06 1.91-.29 1.13-.24 2.7-.44 4.43-.33 1.73.12 3.26.53 4.34.92 1.09.38 1.76.7 1.86.55.09-.12-.43-.7-1.5-1.32-.53-.31-1.21-.61-1.99-.86-.78-.24-1.67-.42-2.62-.49-.95-.06-1.85 0-2.66.13-.81.14-1.52.34-2.09.58-1.15.47-1.74.97-1.67 1.1ZM80.34 65.42c.02.33 2.13.49 4.73.34 2.59-.14 4.68-.52 4.66-.86s-2.13-.49-4.73-.34c-2.59.14-4.68.52-4.66.86Z"/><path class="cls-5" d="M76.82 74.29c.3.19 1.87-2.12 4.58-4.08 2.68-2 5.35-2.81 5.26-3.15-.04-.15-.77-.15-1.9.16-1.12.31-2.63.96-4.08 2.02-1.44 1.06-2.52 2.3-3.15 3.29-.63.98-.85 1.68-.72 1.76ZM66.68 138.69c.25-.22-.57-1.54-1.83-2.94-1.26-1.4-2.48-2.36-2.73-2.14-.25.22.57 1.54 1.83 2.94 1.26 1.4 2.48 2.36 2.73 2.14ZM109.08 140.12c.07-.14-2.46-1.67-6.7-3.88s-10.21-5.07-16.96-7.86-12.99-4.99-17.55-6.42c-4.56-1.43-7.44-2.14-7.49-1.99-.05.17 2.73 1.16 7.21 2.8 4.48 1.63 10.65 3.94 17.37 6.72 6.72 2.78 12.72 5.5 17.04 7.52 4.33 2.01 7 3.27 7.08 3.12ZM177.1 137.52c-.22-.25-2.16 1.15-4.32 3.12-2.17 1.97-3.74 3.76-3.52 4.01.22.25 2.16-1.15 4.32-3.12s3.74-3.76 3.52-4.01ZM169.46 122.94c.26-.18-2.12-3.88-6.07-7.57-3.93-3.7-7.79-5.84-7.95-5.57-.19.29 3.28 2.83 7.12 6.45 3.86 3.6 6.62 6.9 6.89 6.69ZM146.37 162.24c-.15.1.31.92.61 2.37.16.72.27 1.6.36 2.59.09.99.16 2.11.35 3.3.2 1.19.52 2.34 1.07 3.3.54.96 1.25 1.68 1.94 2.14.7.46 1.37.65 1.82.68.46.03.71-.05.71-.13.02-.19-.96-.28-2.02-1.23a6.338 6.338 0 0 1-1.47-1.97c-.41-.84-.68-1.87-.86-2.98-.18-1.12-.28-2.22-.44-3.24-.15-1.02-.37-1.94-.65-2.69-.55-1.52-1.32-2.23-1.43-2.13ZM85.85 154.01c-.25.22 2.81 4.02 6.83 8.48 4.02 4.46 7.47 7.9 7.72 7.68s-2.81-4.02-6.83-8.48c-4.02-4.46-7.47-7.9-7.72-7.68Z"/><path class="cls-17" d="M110.8 148.89c-.17-.68-4.61.01-9.97-.63-5.37-.57-9.54-2.24-9.86-1.62-.14.28.75 1.09 2.45 1.96.85.43 1.91.86 3.11 1.23 1.21.36 2.57.65 4.02.82 1.45.16 2.85.18 4.11.1 1.26-.09 2.38-.26 3.31-.5 1.85-.46 2.9-1.05 2.83-1.36ZM152.69 141.02c.3.15 1.14-.91 2.42-2.6.64-.84 1.41-1.84 2.29-2.92.44-.54.91-1.1 1.4-1.67.25-.28.5-.57.76-.86l.33-.37.42-.45c.29-.3.57-.6.86-.91.88-.89 1.74-1.77 2.59-2.63-.82.07-1.62.15-2.42.22-.4.03-.79.07-1.18.1-.19.02-.39.04-.57.05h-.51c-.34 0-.67.03-1 0-.17 0-.33-.01-.49-.02-.3-.02-.59-.03-.87-.07a20.4 20.4 0 0 1-2.98-.53c-1.68-.42-2.72-.81-2.89-.54-.15.23.62 1.13 2.33 2.01.85.44 1.93.86 3.2 1.13.32.07.65.12.98.18l.47.06s.02.01.02.02c.02.02.01.04 0 .05-.02.01-.03.01-.03.01l-.03.03-.05.06c-.27.31-.53.62-.78.94-.5.62-.95 1.24-1.36 1.85-.82 1.21-1.48 2.36-1.96 3.35-.96 1.99-1.26 3.35-.97 3.49Z"/><path class="cls-5" d="M143.55 161.51c-.04-.36-6.51.21-14.47-.13-7.97-.31-14.37-1.4-14.43-1.05-.07.3 6.3 1.94 14.38 2.25 8.08.35 14.57-.77 14.52-1.07ZM127.92 155.83c.23.24 1-.11 1.72-.79s1.12-1.43.89-1.67c-.23-.24-1 .11-1.72.79s-1.12 1.43-.89 1.67ZM130.45 158.1c.22.25 1.09-.16 1.95-.91.86-.75 1.37-1.56 1.15-1.81s-1.09.16-1.95.91c-.86.75-1.37 1.56-1.15 1.81ZM93.48 57.21c.15-.29-3.34-2.4-7.81-4.7-4.46-2.3-8.2-3.93-8.36-3.64-.15.29 3.34 2.4 7.81 4.7 4.46 2.3 8.2 3.93 8.36 3.64ZM101.14 62.38c.19-.27-.27-.94-1.05-1.5s-1.56-.79-1.75-.52.27.94 1.05 1.5 1.56.79 1.75.52Z"/><path d="M98.7 99.91c-.27-.2-1.52 1.06-2.8 2.8-1.28 1.74-2.1 3.31-1.83 3.51.27.2 1.52-1.06 2.8-2.8 1.28-1.74 2.1-3.31 1.83-3.51Z" style="fill:#ef470d"/><path class="cls-5" d="M84.3 70.07c.17.07.6-.78 1.62-1.85 1-1.06 2.69-2.3 4.84-2.75 2.15-.44 4.2 0 5.54.57 1.36.56 2.11 1.16 2.24 1.02.1-.1-.46-.96-1.86-1.78-1.37-.82-3.67-1.5-6.16-.99-2.49.52-4.33 2.07-5.25 3.38-.95 1.33-1.1 2.35-.96 2.39Z"/><circle cx="87.58" cy="48.37" r="1.64" style="fill:#7e557c"/></g></svg>