<svg xmlns="http://www.w3.org/2000/svg" width="200" height="200" viewBox="0 0 200 200"><defs><clipPath id="clippath-1"><path d="M133.74 19.02c-.58-.02-2.77-1.32-4.89-2.9s-3.35-2.84-2.77-2.82 2.77 1.32 4.89 2.9 3.35 2.84 2.77 2.82" class="cls-1"/></clipPath><style>.cls-1{fill:none}.cls-10{fill:#5b3b5b}.cls-34{fill:#c09ed7}.cls-39{fill:#9fb0b4}.cls-63{fill:#fff}.cls-100{fill:#a2a2a2}.cls-103{fill:#79577a}.cls-110{fill:#ccc0b4}.cls-113{fill:#bfd8dc}.cls-115{fill:#d5e7e8}.cls-131{fill:#eceae7}.cls-136{fill:#e2b144}.cls-137{fill:#5b3d5b}</style></defs><path id="BG_Strong_Light" d="M171.86 56.02c-12.39-13.83-29.56-19.88-46.74-25.51-17.55-5.75-38.13-15.63-56.54-8.3-15.99 6.36-31.38 17.83-41.27 31.94-10.39 14.83-14.78 33.44-13.23 51.4 1.71 19.92 10.11 38.38 22.56 53.87 8.6 10.7 20.34 21.05 33.88 24.47a4.9 4.9 0 0 0 4.29 2.88c10.15.59 20.31.51 30.44-.41 8.24-.74 16.76-1.59 24.44-4.85 7.36-3.12 12.38-8.37 15.97-15.45 1.82-3.57 3.37-7.32 5.74-10.58 2.88-3.96 6.72-7.19 10.32-10.46 12.2-11.1 23.48-24.8 25.93-41.64 2.52-17.29-4.32-34.56-15.79-47.37Z" class="cls-131" data-name="BG_Strong Light"/><g id="Illustrations"><g id="Outline"><path d="M171.42 162.23c-2.35-.86-4.57-1.67-5.77-2.35-2.81-1.57-4.02-9.52-4.99-15.91l-.21-1.4c-1.12-7.27-1.61-17.9-.96-20.68.61-2.61 4.12-4.62 10.38-7.43 7.09-3.17 13.99-6.91 13.76-14.63-.17-5.79-3.87-22.31-5.36-28.78q.13-.3.16-.57a2.4 2.4 0 0 0-.75-1.93l-.02-.1-.06.02q-.4-.4-.97-.7c-1.8-.97-6.54-2.3-13.98-2.86-6.5-.49-14.8-.17-22.18.84-4.15.57-6.54 1.74-6.9 3.39q-.11.53.08 1.02c-2.5 10.08-3.7 17.5-4.58 22.99q-.47 2.95-.87 5.11c-1.09 5.72 2.77 11.33 10.07 14.62q2.13.94 4.25 1.7c5.41 2.04 8.74 3.48 8.85 7.28l.12 3.12c.25 5.85.56 13.14-.87 21.65l-.15.9c-1.59 9.5-1.81 10.42-4.43 12.02-3.13 1.9-10.97 5.11-14.75 6.66-1.43.59-1.43 1.54-1.36 1.92.11.63.38 2.1 8.55 3.69a124 124 0 0 0 22.36 1.97c9.96 0 16.87-1.42 19.2-4 .79-.87.87-1.68.8-2.21-.24-1.79-3.06-3.01-9.45-5.35Zm-30.65-94.39c7.25-.99 15.37-1.3 21.74-.83 7.6.57 11.83 1.91 13.13 2.61l.16.1.18.76q-.29.17-.97.35c-2.83.73-10.88 1.66-19.17 1.36-13.39-.49-18.14-1.77-19.84-2.62l.1-.39c.62-.41 1.99-.98 4.68-1.35Zm37.73 100.53c-.57.63-4.27 3.76-21.07 3.25-13.31-.41-22.38-2.38-24.87-3.64 4.2-1.72 11.43-4.7 14.59-6.62 3.52-2.14 3.81-3.87 5.41-13.47l.15-.9c1.46-8.73 1.13-16.45.89-22.09l-.12-3.09c-.16-5.41-5.27-7.34-10.22-9.2a69 69 0 0 1-4.12-1.65c-4.99-2.25-9.94-6.67-8.87-12.3q.41-2.2.88-5.17c.85-5.27 1.99-12.33 4.3-21.81 3.2 1.38 10 2.27 20.28 2.65q1.68.06 3.33.06c7.27 0 13.89-.82 16.45-1.48q.52-.14.93-.31c1.6 6.99 4.92 22.06 5.07 27.32.19 6.42-6.08 9.77-12.51 12.64-7.04 3.15-10.76 5.39-11.58 8.87-.8 3.39-.15 14.52.92 21.48l.21 1.39c1.15 7.55 2.33 15.36 6.05 17.44 1.35.75 3.64 1.59 6.08 2.48 2.85 1.05 7.63 2.79 8.08 3.64.01.08-.05.27-.27.51Z" class="cls-110"/><path d="M138.87 108.21c5.7 3.4 13.76 6.67 16.59 7.23s17.53-7.78 21.1-9.8" style="fill:#f0a4ae"/><path d="M123.87 95.72c-.05 1.68-5.62 6.57-10.23 7.29-4.62.73-9.93 1.69-20.82 2.71s-15.91 2.03-28.65 1.83-16.55-.06-22.87-.73-16.76-1.49-16.76-1.49-2.91-1.74-3.61-2.32-3.51-4.97-3.51-4.97c1.41-1.93 15.65-5.12 41.44-5.38s43.23-1.44 51.77 0c8.53 1.44 13.3 1.38 13.25 3.06Z" class="cls-115"/><path d="M23.98 97.57s19.57-3.11 54.98-3.32c35.42-.21 40.28 1.66 40.28 1.66s-5.77 1.72-38.98 3.08c-43.95 1.81-56.29-1.42-56.29-1.42Z" class="cls-100"/><path d="M123.86 26.6h.02zm-1.45-1.08h-.01zm-2.98-3.37h-.02q0 .03.03.05zm2.7 3.81h-.01zm-3.87-5.7h.02zm6.84 7.21v.01zm3.23 1.8h-.02zm-2.39-1.24-.1-.06v.02l.1.05Zm.47.28v.01l-.01-.03zm1.12.49-.05-.01zm.94.74s.02 0 0-.02l-.05-.01.04.03Zm-23.03 11.14s0-.01 0 0m-.93-1.81-.02-.01q0 .04.03.08z" class="cls-63"/><path d="M105.08 49.41c2.61.81 3.69 3.6 1.54 8.54h.36c4.34-.08 8.71-.85 10.87-1.29v.11l.01-.11c.25-1.97.47-3.84.74-5.66-3.97.46-8.07-.3-11.41-2.46a15 15 0 0 1-4.92-5.31 14 14 0 0 1-1.73-6.24c-2.29 1.31-4.82 2.75-7.48 4.33.36 5.95 1.66 8.31 2.64 10.29 2.92-2 6.46-3.11 9.39-2.2ZM61.94 81.54v-.05l-.08.15zm54.7-17-.34 1.64zm-33.7 26.78.05.03h.02z" class="cls-137"/><path d="m115.7 68.82.05-.2zl-12.11 2.05s-3.72 3.31-10.61 1.28c-6.9-2.03-9.35-7.58-7.33-11.75 0 0-3.5-6.82-3.99-11.6a84 84 0 0 0-8.86 7.42c-2.93 2.85-6.5 6.97-10.25 11.6-8.96 11.07-18.91 25.03-23.33 31.34q3.52.19 8.06.28a350 350 0 0 1 12.1-19.66q2.88-4.35 5.92-8.58a92 92 0 0 0 8.94 8.86c9.72 8.5 18.07 12.71 24.55 15.1q-.96 1.51-1.96 3.01 3.23-.2 5.9-.39l.68-1.09c7.07-11.68 10.48-20.56 12.33-27.85Z" class="cls-137"/><path d="M117 62.64c.59-3.28.8-5.39.85-5.88a115 115 0 0 1-.84 5.87ZM93.05 41.32l-.01.01Z" class="cls-39"/><path d="M92.96 72.15c6.9 2.03 10.61-1.28 10.61-1.28l12.11-2.05.05-.2q.31-1.25.56-2.44l.34-1.64c.54-2.79.9-5.37 1.2-7.77v-.11a63 63 0 0 1-10.87 1.29h-.36q-.59 1.39-1.54 3c-4.06 6.83-8.12 8.01-11.32 7.16s-5.02-4.7-3.48-9.83c.72-2.41 2.83-4.88 5.42-6.66-.98-1.98-2.27-4.34-2.64-10.29a144 144 0 0 0-11.4 7.47c.5 4.78 3.99 11.6 3.99 11.6-2.03 4.17.43 9.72 7.33 11.75" class="cls-39"/><path d="m102.71 52.36.03.03-.04-.03Zm-.01 0h-.01Zm.39 5.12.08.02.14-.27-.18.21zm-.62 1.15-.01.01v.01-.02Zm-.18.26c-.17.26-.43.63-.58.82l.02.02.17-.18.02-.09c.22-.24.3-.39.41-.56l.13-.25-.16.26z" class="cls-136"/><path d="m95.93 54.5-.22.19v.01l.11-.09h.01-.02l-.02.03c-.02 0-.09.07-.1.07-.11.12-.18.3-.36.41-.04-.02-.18.21-.13.11-.47.64-.81.87-1.22 1.62l.02-.05-.11.16.07-.03-.15.22q-.07.14-.09.14v-.02s-.1.16-.17.24q.03 0 .04-.03l-.06.14q-.16.22-.27.47l-.22.41-.02.11c-.2.34-.3.87-.45 1.19-.13.57-.17.94-.15 1.5l.03.48q.04.25.04.39c.09.44.23.6.4.91-.08-.02.12.21.17.3.03-.04.14.18.21.19l-.02.03q.18.2.41.36l-.04-.02c-.02.02.08.05.14.1l.11.02-.05.02.09.04.03.01-.03-.01h-.02c.11.07.25.1.27.08.05.02.02.04.07.05.08.01.03-.01 0-.03.1.04.11.06.3.1h-.08c.12.01.17.06.34.05l.02-.05h-.16.13l.13-.02c.05 0 .01.01.03.03.16-.01.16.03.25-.02l.03.03.12-.04s-.09.07.09.05l.17-.02-.05-.03c.09 0 .14.04.26-.03v.03c.17-.02.06-.06.19-.07l-.04.04c.36-.11.59-.26.9-.37.11-.03.29-.13.34-.17h-.03l.22-.12h.02l.15-.09v.02q.24-.12.4-.28l-.05.02.06-.15.02-.04v.03c.11-.08.04-.07.2-.16q-.05.06 0 .05c.15-.14.09-.08.19-.21-.07.1.02.08.17-.02.29-.23.29-.3.5-.44l.14-.06c.11-.09.08-.14.16-.19.23-.18 0-.04.2-.2h-.01.01l.02-.01c.11-.07.14-.13.23-.21l.12-.13c0-.06.12-.11.18-.17l.02-.06c.2-.15.5-.42.76-.7h-.02.02c.04-.01.12-.11.2-.21l-.05.03c.45-.46.45-.46.82-.95l.05-.11c-.05.1.06 0 .1-.05l.28-.43.17-.24c.1-.13.16-.19.27-.37l-.1.18.13-.16c.09-.14-.04-.06.2-.4l.08-.1q0-.06.1-.23l.03-.06-.08-.02a12 12 0 0 1-6.15-3.81l-.97.79c.08-.14-.13.19-.04.03Z" class="cls-136"/><path d="m124.84 24.33-4.34-3.71s-5.38 6.63-12.03 11.5a60 60 0 0 1-4.78 3.04l-3.16 1.83c.04 2.18.7 4.35 1.73 6.24a15 15 0 0 0 4.92 5.31A17.5 17.5 0 0 0 118.59 51q.27-1.84.65-3.62c2.79-12.82 9.62-19.6 9.62-19.6l-4.02-3.44Z" class="cls-137"/><path d="M74.21 80.06a93 93 0 0 1-8.94-8.86q-3.03 4.24-5.92 8.58a344 344 0 0 0-12.1 19.66c8.21.18 19 .12 33.01-.46 6.52-.27 11.96-.55 16.53-.83q1-1.5 1.96-3.01c-6.47-2.39-14.82-6.59-24.55-15.1Zm-18.23 9.18-.02.03-.03.03.04-.06c.03-.06.14-.22.05-.1.05-.06.22-.33.23-.32l-.28.42Zm5.96-7.7-.08.11.08-.15zm21 9.78.07.04h-.02q-.02 0-.05-.03Z" class="cls-136"/><path d="m55.97 89.27.02-.03-.04.06.03-.03Zm.01-.03q.15-.2.28-.42l-.23.32c.09-.12-.01.04-.05.1M98 63.1v-.03l-.02.04Zm-2.17-8.5.02-.01zm-.01.01-.11.09.1-.07c-.04.03 0-.01.02-.03Zm5.04 5.97h.02zm1.85-8.22.03.02zm-.41 6.55.16-.26v-.01l-.17.25v.02Zm.82-1.46-.03.04zm.38-2.84-.03-.12c.02.13.02.14.03.12m-1.03-2.82q-.07-.05-.01.01l.1.09z" class="cls-63"/><path d="M105.08 49.41c-2.93-.91-6.47.2-9.39 2.2-2.59 1.78-4.69 4.25-5.42 6.66-1.54 5.13.28 8.97 3.48 9.83s7.27-.32 11.32-7.16a26 26 0 0 0 1.54-3c2.14-4.94 1.07-7.73-1.54-8.54Z" class="cls-136"/><path d="M100.08 62.5c.1.09 1.56-1.3 3.36-4.07.42-.74.77-1.65.77-2.71 0-1.05-.47-2.24-1.51-2.96a3 3 0 0 0-1.84-.51c-.65.03-1.26.24-1.82.51a13.6 13.6 0 0 0-5.31 5.15 7 7 0 0 0-1.09 3.38 3.9 3.9 0 0 0 1.27 3.06c.86.73 1.95.84 2.8.7a5 5 0 0 0 2.11-.93 8 8 0 0 0 2.04-2.33c-.05-.05-.42.3-1.08.9-.66.56-1.67 1.49-3.16 1.67a2.7 2.7 0 0 1-2.15-.62 3 3 0 0 1-.89-2.41c.04-.96.44-1.96 1.01-2.92a13.3 13.3 0 0 1 4.9-4.77c.95-.5 1.99-.62 2.72-.11a2.8 2.8 0 0 1 1.19 2.22c.04.85-.22 1.67-.56 2.35-1.58 2.74-2.85 4.33-2.74 4.41Z" class="cls-63"/><path d="M91.88 96.65q-.15-.05-.46.28c-.21-.22-1.79-.88-4.19-2.02a60 60 0 0 1-9.72-5.66c-3.54-2.59-6.42-5.41-8.61-7.32-1.77-1.6-3-2.66-3.45-2.93q.05-.12.03-.15t-.16.08l-.05-.01.01.04c-.38.32-1.27 1.3-2.44 2.79-1.5 1.9-3.43 4.63-5.47 7.7l-3.63 5.48-1.57 2.37-1.45 2.2h.59q.62-.7 1.46-1.77.97-1.23 2.14-2.86c1.04-1.44 2.17-3.08 3.33-4.84l5.2-7.85c.98-1.48 1.69-2.53 1.94-3.03.33.48 1.4 1.66 3 3.31 2.06 2.06 4.86 4.97 8.5 7.64a46 46 0 0 0 10.05 5.49c2.37.94 4.01 1.39 4.42 1.41-.31.34-.72.9-1.2 1.53l1.26-.07c.51-.95.66-1.73.46-1.81Z" class="cls-131"/><path d="M102.18 173.92q.25.16.48.35 0-.08.03-.16.06-.16.16-.31c.52-.86.96-1.47 1.81-2.75l.18-.28-3.42 2.66zm-76.16-45.43-.14.32c-.38 1.03-.43 1.97-.06 2.65.31.61.9 1.05 1.66 1.26l-.28-4.1q-.64-.05-1.18-.12Zm10.63-21.52 2.84-.09-.16-.12c-.76-.4-1.8-.26-2.68.21" class="cls-1"/><path d="m110.93 166.04.14-2.16q-.97 1.95-2 3.6l1.85-1.44Z" class="cls-115"/><path d="M54.92 106.42q.51-.67.8-.58.2.07.23.57l8.82-.16a8 8 0 0 0-2.81-2.37 8 8 0 0 0-3.73-.77 10.5 10.5 0 0 0-7.14 3.42l1.95-.06 1.89-.03Zm47.89 68.76s.07.06.06.03l-.06-.06zm-12.72-70.15a8 8 0 0 0-2.62-1.24 8.7 8.7 0 0 0-5.59.16c-1.31.5-2.35 1.24-3.23 2.04l12.29-.22a9 9 0 0 0-.86-.74Zm12.63 69.29-.05-.05v.01c0 .03.05.06.05.03Zm-63.39-67.56q.09.05.16.12l1.73-.05q.36-.25.66-.43a3.6 3.6 0 0 0-1.55-1.46 4.6 4.6 0 0 0-3.18-.19 6 6 0 0 0-2.38 1.36l-1.02.96 2.9-.09c.88-.46 1.93-.61 2.68-.21Zm60.21 65.43a19 19 0 0 0-1.44-.84h-.04v.02l-.01.02v-.02l.02-.02-.04-.03q-.03-.02-.08.01c0 .1.02.09.03.12q.06.12.21.29.3.35.95.95c.38.35.84.76 1.5 1.33l.79-.61-.18-.12-1.71-1.11Z" class="cls-113"/><path d="m98.05 171.4.01-.02v-.02l-.02.02z" class="cls-113"/><path d="M41.64 169.96a54.5 54.5 0 0 0 36.2-14.26 55 55 0 0 0 12.85-17.5 90 90 0 0 0 5.8-17.14c1.23-5.06 1.98-9.24 2.61-12.12q.46-2.2.79-3.34l-8.94.16-12.29.22-7.05.13q.1.62.13 1.55c.07 1.73-.14 4.24-.88 7.26a36.3 36.3 0 0 1-13.38 20 36.4 36.4 0 0 1-23.02 7.04 29 29 0 0 1-6.45-1.02l.24 3.53c.22 3.25.41 6.26.56 8.81 2.09.22 5.44.56 9.74.21a44 44 0 0 0 12.54-2.95 47 47 0 0 0 13.43-8.12 56 56 0 0 0 10.23-12.05 70 70 0 0 0 5.93-11.67c2.79-6.98 3.8-11.63 4.41-11.52.47.06.46 4.93-1.74 12.46a58 58 0 0 1-5.45 12.65 52 52 0 0 1-10.76 13.16 46 46 0 0 1-14.77 8.56 40 40 0 0 1-13.72 2.32c-3.97-.06-7.14-.7-9.22-1.42l-.54-.19c.13 2.23.21 4.02.24 5.17l.02.93c.09 3.5.17 6.19.4 8.24 2.87.45 6.99 1.01 12.06.91Zm51.49 3.79a48 48 0 0 1-11.48 7.34c6.43-.52 11.45-1.2 11.45-1.2l7.55-5.86a37 37 0 0 1-2.45-2.28q-.15-.18-.21-.29c0-.03-.03-.01-.03-.12.02-.04.06-.01.08-.01q.03 0 .04.03h.04l.3.15q.39.21 1.14.69l1.71 1.11.18.12 3.42-2.66 4.23-3.28q1.03-1.65 2-3.6l.77-11.55.58-8.7a84 84 0 0 1-6.36 14.15 61 61 0 0 1-12.94 15.97Zm-51.07-53.26a39 39 0 0 0 9.9-9.78c1.38-1.94 2.32-3.49 2.96-4.29l-1.89.03-1.95.06-7.77.25a7 7 0 0 1-1.23 2.87 15 15 0 0 1-2.61 2.9c-1.13.95-2.5 1.86-4.05 2.58a18 18 0 0 1-4.6 1.39 15 15 0 0 1-4.41.01l.35 5.5.28 4.28q.99-.19 2.16-.45a38 38 0 0 0 12.85-5.36Zm-12.05-7.58q1.79-.56 3.74-1.43a36 36 0 0 0 6.27-3.79l1.2-.87-1.73.05-2.84.09-2.9.09-7.67.24c-.13.15-.03 2.69.18 6.59l.52-.12q1.43-.33 3.22-.86Z" class="cls-115"/><path d="M34.46 139.13c2.87-.19 6.27-.74 9.85-1.9a38 38 0 0 0 10.8-5.51 38 38 0 0 0 8.4-8.75 42 42 0 0 0 4.67-8.88c1.37-3.61 1.96-6.46 2.4-7.95l-5.8.11-8.82.16c.08.95-.32 3.02-1.54 5.72a29 29 0 0 1-10.14 11.7 29 29 0 0 1-14.71 4.84q-1.3.03-2.36-.05l.28 4.1.24 3.58.2 2.9c1.63.06 3.85.13 6.54-.06Zm56.23 31.86a63 63 0 0 0 11.91-15.19 97 97 0 0 0 7.8-17.94c1.25-3.8 2.26-7.41 3.12-10.71l.02-.33c.34-5.15.59-8.89.62-9.51.13-2.34.57-11.98.57-11.98l-10.69.19-3.37.06q.08 1.19-.03 3.56c-.15 2.96-.48 7.24-1.38 12.49a79 79 0 0 1-5.22 18.09 55 55 0 0 1-13.51 18.94 55 55 0 0 1-20.14 11.68 53 53 0 0 1-18.8 2.45 48 48 0 0 1-11.75-2.01c.32 1.56.8 2.61 1.6 3.25.78.63 3.77 1.62 7.76 2.68 5.31 1.41 12.4 2.97 18.47 4.02l2.55.43c3.37.53 7.82.61 12.36.46q2.31-.73 5-1.92c4.1-1.87 8.72-4.7 13.1-8.71Z" class="cls-115"/><path d="M43.31 106.76q.04-.53-.19-.69c-.26-.17-.67-.02-1.23.32l.22.4 1.21-.04Zm-1.21.04-.22-.4-.66.43z" class="cls-113"/><path d="M30.82 116.5c1.46-.24 3.04-.68 4.6-1.39a18 18 0 0 0 4.05-2.58c1.12-.97 2-1.97 2.61-2.9a7 7 0 0 0 1.23-2.87l-1.21.04-.88.03-1.2.87a38 38 0 0 1-6.27 3.79 36 36 0 0 1-6.96 2.29l-.52.12.02.44.05.81.08 1.37.5.08c1.11.14 2.44.12 3.91-.09Zm24.1-10.08 1.03-.02q-.05-.5-.23-.57c-.19-.07-.46.16-.8.58ZM27.2 128.61q1.06.09 2.36.05c3.95-.1 9.55-1.4 14.71-4.84a29 29 0 0 0 10.14-11.7c1.23-2.7 1.62-4.77 1.54-5.72l-1.03.02c-.64.8-1.58 2.35-2.96 4.29a38 38 0 0 1-9.9 9.78 38 38 0 0 1-12.85 5.36q-1.18.26-2.16.45l.02.27zm43.98-23.62c-.21-.01-.39.4-.6 1.14l1.04-.02q-.17-1.1-.44-1.12m-25.83 35.77a37 37 0 0 0 12.15-5.84 37 37 0 0 0 9.1-9.94 35 35 0 0 0 4.28-10.06c.74-3.02.95-5.53.88-7.26q-.03-.93-.13-1.55l-1.04.02c-.43 1.49-1.03 4.34-2.4 7.95a41 41 0 0 1-4.67 8.88 38 38 0 0 1-8.4 8.75 38 38 0 0 1-10.8 5.51 41 41 0 0 1-9.85 1.9c-2.69.19-4.91.12-6.54.06l.12 1.75c1.6.47 3.79.88 6.45 1.02 3.1.17 6.85-.12 10.87-1.2Z" class="cls-113"/><path d="M38.67 156.32c3.97.07 8.73-.6 13.72-2.32a46 46 0 0 0 14.77-8.56 53 53 0 0 0 10.76-13.16 58 58 0 0 0 5.45-12.65c2.2-7.52 2.21-12.39 1.74-12.46-.62-.11-1.62 4.54-4.41 11.52a71 71 0 0 1-5.93 11.67 56 56 0 0 1-10.23 12.05 47 47 0 0 1-13.43 8.12 44 44 0 0 1-12.54 2.95c-4.3.35-7.65 0-9.74-.21l.08 1.42.54.19c2.08.72 5.25 1.36 9.22 1.42Zm61.74-51.82q-.2-.01-.53 1.1h.78q-.06-1.06-.26-1.1Z" class="cls-113"/><path d="M60.4 170.34a54.5 54.5 0 0 0 20.14-11.68 55 55 0 0 0 13.51-18.94 79 79 0 0 0 5.22-18.09c.9-5.26 1.23-9.54 1.38-12.49q.1-2.37.03-3.56h-.78q-.33 1.16-.79 3.36c-.62 2.88-1.38 7.06-2.61 12.12a90 90 0 0 1-5.8 17.14 55 55 0 0 1-12.85 17.5 54.5 54.5 0 0 1-36.2 14.26c-5.07.1-9.19-.46-12.06-.91q.1.96.27 1.73c2.82.87 6.8 1.77 11.75 2.01 5.38.28 11.93-.25 18.8-2.45Zm50-32.48a98 98 0 0 1-7.8 17.94 63 63 0 0 1-11.91 15.19c-4.38 4.01-9 6.84-13.1 8.71q-2.68 1.19-5 1.92c3.09-.1 6.21-.3 9.05-.53a48 48 0 0 0 11.48-7.34 60 60 0 0 0 12.94-15.97 85 85 0 0 0 6.36-14.15l1.09-16.49c-.86 3.31-1.87 6.92-3.12 10.71Z" class="cls-113"/><path d="m109.51 144.02-.36-1.97c3.44-.62 5.95-3.43 7.67-8.58.46-1.37 1.33-4.87-.38-7.96q-1.85-3.31-6.8-4.52l.47-1.94q5.8 1.4 8.08 5.5c1.47 2.66 1.67 6.14.53 9.56-1.97 5.91-4.98 9.15-9.21 9.92Zm-62.92 3.74q-.84 0-1.72-.12c-5.08-.73-9.52-4.5-10.33-8.79q-.92-4.86 1.32-8.01c1.72-2.43 4.83-3.99 9.23-4.64l.23-.04q.43-.08.88-.1c3.28-.06 7.54 1.42 9.78 4.98 1.34 2.12 2.38 5.75-.26 10.94-1.91 3.75-5.17 5.8-9.12 5.8Zm-.34-19.72q-.3.01-.6.08l-.27.04c-3.84.57-6.5 1.86-7.89 3.83q-1.74 2.46-.98 6.48c.65 3.43 4.45 6.58 8.65 7.18 3.81.55 7.01-1.13 8.78-4.6 1.75-3.45 1.88-6.55.35-8.97-1.81-2.87-5.41-4.1-8.04-4.04" class="cls-100"/><path d="M76.51 187.9c2.3 1.26 6.01 2.11 11.66 2.04 11.3-.14 25.46-.68 28.46-1.91q.77-.32 1.29-.68l-41.4.55Z" class="cls-136"/><path d="M138.87 108.21c5.7 3.41 13.76 6.67 16.59 7.23 1.53.3 6.49-1.98 11.31-4.47 4.13-2.13 8.14-4.4 9.79-5.33z" class="cls-103"/><path d="M79.42 147.63q.28 7.62.46 15.24c.04 1.58.07 3.22-.29 4.68s-1.21 1.72-2.16 1.59c-.83-.11-1.52-.26-1.8-1.56s-.25-2.74-.17-4.12a52 52 0 0 1 4.22-17.93" class="cls-136"/><path d="M45.72 130.42a3.4 3.4 0 0 1-2.82-1.37c-1.03-1.42-1.04-3.79-.01-5.64.84-1.52 2.2-2.31 3.69-2.24 2.47.17 4.3 1.91 4.45 4.25.12 2-1.17 4.29-4.33 4.9q-.53.1-.98.1m.62-7.26c-.89 0-1.44.75-1.7 1.22-.63 1.15-.69 2.71-.12 3.49.13.18.53.72 1.8.48 2.1-.41 2.78-1.72 2.71-2.81-.07-1.07-.9-2.27-2.58-2.38s-.07 0-.11 0" class="cls-100"/><path d="M91 196.82c-5.64 0-10.54-.15-12.53-.31-5.23-.43-8.73-5.43-8.89-8.01-.02-.39-.25-45.34.05-46.24l2.01.66-1-.33 1.05.12c-.12 1.49-.11 43.73 0 45.65.09 1.41 2.62 5.68 6.95 6.03 4.43.36 23.55.69 32.52-.7 8.94-1.38 9.62-3.8 10.06-7.95.5-4.78 0-42.76 0-43.14l2.11-.03c.02 1.57.51 38.49 0 43.39-.58 5.5-2.5 8.37-11.83 9.82-5.09.79-13.38 1.03-20.49 1.03Z" class="cls-110"/><path d="M91.81 147.03c-8.58 0-20.25-.47-22.06-2.92a1.9 1.9 0 0 1-.23-1.93c.5-1.04 1.66-3.47 26.94-4.64 6.44-.3 11.84-.14 20.34 1.57 5.66 1.13 6.84 2.05 6.96 3.25.13 1.35-1.46 2.01-2.32 2.37-2.36.98-9.02 1.68-20.39 2.14-.42.02-4.33.17-9.26.17Zm-20.24-4.08c1.73 1.38 13.89 2.43 29.42 1.79 13.65-.56 18.23-1.38 19.66-1.98q.38-.16.6-.27c-.62-.29-1.97-.75-4.85-1.33a74 74 0 0 0-19.83-1.53c-20.47.95-24.3 2.76-25 3.31Z" class="cls-110"/><path d="M17.41 98.04v6.3s2.31 3.31 10.44 4.11 34.42 2.71 55.89 1.4c21.47-1.3 32.68-4.41 35.78-5.31s3.17-1.11 3.72-2.21c.54-1.1.64-6.61.64-6.61s-1.11 3-9.13 4.01-26.68 3.26-58.09 3.29c-31.41.02-38.53-2.64-39.23-4.97Z" class="cls-113"/><path d="M171.78 76.08q-.18 4.95-.3 9.91c-.02 1.03-.04 2.09.19 3.05s.79 1.12 1.41 1.04c.54-.07.99-.17 1.17-1.02s.17-1.78.11-2.68a34 34 0 0 0-2.74-11.66m-37.84-57.67-6.5-4.21c-1-.65-2.34-.4-3.04.56l-7.36 10.04.21.15q-.11.1-.2.22c-.64 1.23 1.17 3.67 4.06 5.45 2.58 1.6 5.14 2.12 6.11 1.33l.07.05 7.28-10.39a2.26 2.26 0 0 0-.62-3.19Z" class="cls-103"/><g style="clip-path:url(#clippath-1)"><path d="m125.98 13.28-.48 1.12v-1.12zm.08 0-.56 1.31v-.19l.48-1.12z" class="cls-10"/><path d="m126.14 13.28-.64 1.51v-.2l.56-1.31z" style="fill:#5c3c5c"/><path d="m126.23 13.28-.73 1.7v-.19l.64-1.51z" style="fill:#5d3d5d"/><path d="m126.31 13.28-.81 1.89v-.19l.73-1.7z" style="fill:#5d3d5e"/><path d="m126.39 13.28-.89 2.09v-.2l.81-1.89z" style="fill:#5e3e5f"/><path d="m126.48 13.28-.98 2.28v-.19l.89-2.09z" style="fill:#5f3f60"/><path d="m126.56 13.28-1.06 2.48v-.2l.98-2.28z" style="fill:#604061"/><path d="m126.64 13.28-1.14 2.67v-.19l1.06-2.48z" style="fill:#614162"/><path d="m126.73 13.28-1.23 2.87v-.2l1.14-2.67z" style="fill:#624163"/><path d="m126.81 13.28-1.31 3.06v-.19l1.23-2.87z" style="fill:#624264"/><path d="m126.89 13.28-1.39 3.25v-.19l1.31-3.06z" style="fill:#634365"/><path d="m126.98 13.28-1.48 3.45v-.2l1.39-3.25z" style="fill:#644466"/><path d="m127.06 13.28-1.56 3.64v-.19l1.48-3.45z" style="fill:#654567"/><path d="m127.14 13.28-1.64 3.84v-.2l1.56-3.64z" style="fill:#664568"/><path d="m127.23 13.28-1.73 4.03v-.19l1.64-3.84z" style="fill:#664669"/><path d="m127.31 13.28-1.81 4.23v-.2l1.73-4.03z" style="fill:#67476a"/><path d="m127.39 13.28-1.89 4.42v-.19l1.81-4.23z" style="fill:#68486b"/><path d="m127.48 13.28-1.98 4.61v-.19l1.89-4.42z" style="fill:#69496c"/><path d="m127.56 13.28-1.99 4.64-.07-.03 1.98-4.61z" style="fill:#6a496d"/><path d="m127.64 13.28-2 4.67-.07-.03 1.99-4.64z" style="fill:#6b4a6e"/><path d="m127.73 13.28-2.02 4.7-.07-.03 2-4.67z" style="fill:#6b4b6f"/><path d="m127.81 13.28-2.03 4.73-.07-.03 2.02-4.7z" style="fill:#6c4c70"/><path d="m127.89 13.28-2.04 4.76-.07-.03 2.03-4.73z" style="fill:#6d4d71"/><path d="m127.98 13.28-2.06 4.79-.07-.03 2.04-4.76z" style="fill:#6e4e72"/><path d="m128.06 13.28-2.07 4.82-.07-.03 2.06-4.79z" style="fill:#6f4e73"/><path d="m128.14 13.28-2.08 4.85-.07-.03 2.07-4.82z" style="fill:#704f74"/><path d="m128.23 13.28-2.1 4.88-.07-.03 2.08-4.85z" style="fill:#705075"/><path d="m128.31 13.28-2.11 4.91-.07-.03 2.1-4.88z" style="fill:#715176"/><path d="m128.39 13.28-2.12 4.94-.07-.03 2.11-4.91z" style="fill:#725277"/><path d="m128.48 13.28-2.14 4.97-.07-.03 2.12-4.94z" style="fill:#735278"/><path d="m128.56 13.28-2.15 5-.07-.03 2.14-4.97z" style="fill:#745379"/><path d="m128.64 13.28-2.16 5.03-.07-.03 2.15-5z" style="fill:#74547a"/><path d="m128.73 13.28-2.18 5.06-.07-.03 2.16-5.03z" style="fill:#75557b"/><path d="m128.81 13.28-2.19 5.09-.07-.03 2.18-5.06z" style="fill:#76567c"/><path d="m128.89 13.28-2.19 5.12-.08-.03 2.19-5.09z" style="fill:#77567d"/><path d="m128.98 13.28-2.21 5.15-.07-.03 2.19-5.12z" style="fill:#78577e"/><path d="m129.06 13.28-2.22 5.18-.07-.03 2.21-5.15z" style="fill:#79587f"/><path d="m129.14 13.28-2.23 5.21-.07-.03 2.22-5.18z" style="fill:#795980"/><path d="m129.23 13.28-2.25 5.24-.07-.03 2.23-5.21z" style="fill:#7a5a81"/><path d="m129.31 13.28-2.26 5.27-.07-.03 2.25-5.24z" style="fill:#7b5a82"/><path d="m129.39 13.28-2.27 5.3-.07-.03 2.26-5.27z" style="fill:#7c5b83"/><path d="m129.48 13.28-2.29 5.33-.07-.03 2.27-5.3z" style="fill:#7d5c84"/><path d="m129.56 13.28-2.3 5.36-.07-.03 2.29-5.33z" style="fill:#7d5d85"/><path d="m129.64 13.28-2.31 5.39-.07-.03 2.3-5.36z" style="fill:#7e5e86"/><path d="m129.73 13.28-2.33 5.42-.07-.03 2.31-5.39z" style="fill:#7f5e87"/><path d="m129.81 13.28-2.34 5.45-.07-.03 2.33-5.42z" style="fill:#805f88"/><path d="m129.89 13.28-2.35 5.48-.07-.03 2.34-5.45z" style="fill:#816089"/><path d="m129.98 13.28-2.37 5.52-.07-.04 2.35-5.48z" style="fill:#82618a"/><path d="m130.06 13.28-2.38 5.55-.07-.03 2.37-5.52z" style="fill:#82628b"/><path d="m130.14 13.28-2.39 5.58-.07-.03 2.38-5.55z" style="fill:#83628c"/><path d="m130.23 13.28-2.41 5.61-.07-.03 2.39-5.58z" style="fill:#84638d"/><path d="m130.31 13.28-2.42 5.64-.07-.03 2.41-5.61z" style="fill:#85648e"/><path d="m130.4 13.28-2.44 5.67-.07-.03 2.42-5.64z" style="fill:#86658f"/><path d="m130.48 13.28-2.45 5.7-.07-.03 2.44-5.67z" style="fill:#876690"/><path d="m130.56 13.28-2.46 5.73-.07-.03 2.45-5.7z" style="fill:#876691"/><path d="m130.65 13.28-2.48 5.76-.07-.03 2.46-5.73z" style="fill:#886792"/><path d="m130.73 13.28-2.48 5.76h-.08l2.48-5.76z" style="fill:#896893"/><path d="m130.81 13.28-2.47 5.76h-.09l2.48-5.76z" style="fill:#8a6994"/><path d="m130.9 13.28-2.48 5.76h-.08l2.47-5.76z" style="fill:#8b6a95"/><path d="m130.98 13.28-2.48 5.76h-.08l2.48-5.76z" style="fill:#8b6a96"/><path d="m131.06 13.28-2.47 5.76h-.09l2.48-5.76z" style="fill:#8c6b97"/><path d="m131.15 13.28-2.48 5.76h-.08l2.47-5.76z" style="fill:#8d6c98"/><path d="m131.23 13.28-2.48 5.76h-.08l2.48-5.76z" style="fill:#8e6d9a"/><path d="m131.31 13.28-2.47 5.76h-.09l2.48-5.76z" style="fill:#8f6e9b"/><path d="m131.4 13.28-2.48 5.76h-.08l2.47-5.76z" style="fill:#906f9c"/><path d="M131.48 13.28 129 19.04h-.08l2.48-5.76z" style="fill:#906f9d"/><path d="m131.56 13.28-2.47 5.76H129l2.48-5.76z" style="fill:#91709e"/><path d="m131.62 13.28.02.01-2.47 5.75h-.08l2.47-5.76z" style="fill:#92719f"/><path d="m131.64 13.29.07.03-2.46 5.72h-.08z" style="fill:#9372a0"/><path d="m131.71 13.32.07.03-2.44 5.69h-.09z" style="fill:#9473a1"/><path d="m131.78 13.35.07.03-2.43 5.66h-.08z" style="fill:#9473a2"/><path d="m131.85 13.38.07.03-2.42 5.63h-.08z" style="fill:#9574a3"/><path d="m131.92 13.41.07.03-2.4 5.6h-.09z" style="fill:#9675a4"/><path d="m131.99 13.44.07.03-2.39 5.57h-.08z" style="fill:#9776a5"/><path d="m132.06 13.47.08.03-2.39 5.54h-.08z" style="fill:#9877a6"/><path d="m132.14 13.5.07.03-2.37 5.51h-.09z" style="fill:#9977a7"/><path d="m132.21 13.53.07.03-2.36 5.48h-.08z" style="fill:#9978a8"/><path d="m132.28 13.56.07.03-2.35 5.45h-.08z" style="fill:#9a79a9"/><path d="m132.35 13.59.07.03-2.33 5.42H130z" style="fill:#9b7aaa"/><path d="m132.42 13.62.07.03-2.32 5.39h-.08z" style="fill:#9c7bab"/><path d="m132.49 13.65.07.03-2.31 5.36h-.08z" style="fill:#9d7bac"/><path d="m132.56 13.68.07.03-2.29 5.33h-.09z" style="fill:#9e7cad"/><path d="m132.63 13.71.07.03-2.28 5.3h-.08z" style="fill:#9e7dae"/><path d="m132.7 13.74.07.03-2.27 5.27h-.08z" style="fill:#9f7eaf"/><path d="m132.77 13.77.07.03-2.25 5.24h-.09z" style="fill:#a07fb0"/><path d="m132.84 13.8.07.03-2.24 5.21h-.08z" style="fill:#a17fb1"/><path d="m132.91 13.83.07.03-2.23 5.18h-.08z" style="fill:#a280b2"/><path d="m132.98 13.86.07.03-2.21 5.15h-.09z" style="fill:#a281b3"/><path d="m133.05 13.89.07.03-2.2 5.12h-.08z" style="fill:#a382b4"/><path d="m133.12 13.92.07.03-2.18 5.09h-.09z" style="fill:#a483b5"/><path d="m133.19 13.95.07.03-2.17 5.06h-.08z" style="fill:#a583b6"/><path d="m133.26 13.98.07.03-2.16 5.03h-.08z" style="fill:#a684b7"/><path d="m133.33 14.01.07.03-2.14 5h-.09z" style="fill:#a785b8"/><path d="m133.4 14.04.07.03-2.13 4.97h-.08z" style="fill:#a786b9"/><path d="m133.47 14.07.07.03-2.12 4.94h-.08z" style="fill:#a887ba"/><path d="m133.54 14.1.07.03-2.1 4.91h-.09z" style="fill:#a987bb"/><path d="m133.61 14.13.07.03-2.09 4.88h-.08z" style="fill:#aa88bc"/><path d="m133.68 14.16.07.03-2.08 4.85h-.08z" style="fill:#ab89bd"/><path d="m133.75 14.19.08.03-2.07 4.82h-.09z" style="fill:#ab8abe"/><path d="m133.83 14.22.07.03-2.06 4.79h-.08z" style="fill:#ac8bbf"/><path d="m133.9 14.25.07.03-2.05 4.76h-.08z" style="fill:#ad8bc0"/><path d="m133.97 14.28.07.03-2.03 4.73h-.09z" style="fill:#ae8cc1"/><path d="m134.04 14.31.07.03-2.02 4.7h-.08z" style="fill:#af8dc2"/><path d="m134.11 14.34.07.03-2.01 4.67h-.08z" style="fill:#b08ec3"/><path d="m134.18 14.37.07.03-1.99 4.64h-.09z" style="fill:#b08fc4"/><path d="m134.25 14.4.07.03-1.98 4.61h-.08z" style="fill:#b190c5"/><path d="M134.32 14.43v.18l-1.9 4.42h-.08z" style="fill:#b290c6"/><path d="m134.32 14.82-1.81 4.22h-.09l1.9-4.42z" style="fill:#b391c7"/><path d="m134.32 15.01-1.73 4.03h-.08l1.81-4.22z" style="fill:#b492c8"/><path d="m134.32 15.21-1.65 3.83h-.08l1.73-4.03z" style="fill:#b593c9"/><path d="m134.32 15.4-1.56 3.64h-.09l1.65-3.83z" style="fill:#b594ca"/><path d="m134.32 15.59-1.48 3.45h-.08l1.56-3.64z" style="fill:#b694cb"/><path d="m134.32 15.79-1.4 3.25h-.08l1.48-3.45z" style="fill:#b795cc"/><path d="m134.32 15.98-1.31 3.06h-.09l1.4-3.25z" style="fill:#b896cd"/><path d="m134.32 16.18-1.23 2.86h-.08l1.31-3.06z" style="fill:#b997ce"/><path d="m134.32 16.37-1.15 2.67h-.08l1.23-2.86z" style="fill:#b998cf"/><path d="m134.32 16.57-1.06 2.47h-.09l1.15-2.67z" style="fill:#ba98d0"/><path d="m134.32 16.76-.98 2.28h-.08l1.06-2.47z" style="fill:#bb99d1"/><path d="m134.32 16.95-.9 2.09h-.08l.98-2.28z" style="fill:#bc9ad2"/><path d="m134.32 17.15-.81 1.89h-.09l.9-2.09z" style="fill:#bd9bd3"/><path d="m134.32 17.34-.73 1.7h-.08l.81-1.89z" style="fill:#be9cd4"/><path d="m134.32 17.54-.65 1.5h-.08l.73-1.7z" style="fill:#be9cd5"/><path d="m134.32 17.73-.56 1.31h-.09l.65-1.5z" style="fill:#bf9dd6"/><path d="m134.32 17.93-.48 1.11h-.08l.56-1.31z" class="cls-34"/><path d="m133.84 19.04.48-1.11v1.11z" class="cls-34"/></g><path d="M133.75 20.52h-.08c-1.41-.06-4.74-2.46-5.72-3.2-3.37-2.52-3.79-3.44-3.42-4.46a1.6 1.6 0 0 1 1.61-1.06c1.41.06 4.74 2.46 5.72 3.2 3.37 2.51 3.79 3.44 3.42 4.46a1.6 1.6 0 0 1-1.54 1.06Zm.2-2.98" class="cls-10"/></g></g></svg>