<svg xmlns="http://www.w3.org/2000/svg" viewBox="0 0 200 200"><defs><clipPath id="clippath-2"><path style="stroke-width:0;fill:none" d="m183 55.6-1.12-4.05-2.79-10.12-5.12-18.59-28.66-.07-20.73-.05-50.57-.13-9.2 32.71-.01 5.74 46.63-.03h71.61L183 55.6z"/></clipPath><style>.cls-10,.cls-12,.cls-15,.cls-16,.cls-17,.cls-18,.cls-19,.cls-20,.cls-23,.cls-24,.cls-25,.cls-26,.cls-28,.cls-31,.cls-32,.cls-34,.cls-35,.cls-6,.cls-7{stroke-width:0}.cls-6{fill:#603b5d}.cls-7{fill:#5c3d5b}.cls-10{fill:#3f9544}.cls-12{fill:#c64528}.cls-15{fill:#d63715}.cls-16{fill:#cea88a}.cls-17{fill:#c1dade}.cls-18{fill:#badade}.cls-19{fill:#a0b4b5}.cls-20{fill:#f70}.cls-23{fill:#fff}.cls-24{fill:#e8f8f9}.cls-25{fill:#ea718b}.cls-26{fill:#ffbe04}.cls-28{fill:#fd7f03}.cls-31{fill:#fcb9c4}.cls-32{fill:#f2a6b0}.cls-34{fill:#f75e28}.cls-35{fill:#f6c243}</style></defs><path d="M195.62 72.93c-2.6-23.45-37.83-33.61-56.5-44.62-2.67-1.58-7.97-4.76-9.89-7.7 1.57 1.94-8.23-8.61-10.47-9.87C94.35-5.25 72.43 36.65 48.05 38.76c-13.89 5.56-31.86 9.79-30.71 9.29-11.23.4-11.45 40.99-10.11 52.03C14.35 158.83 71 158 102.5 152.1c12.74-1.6 68.27 11.02 74.05-35.03-1.44-4.14 1.08-6.82.9-12.01 1.49-.77-.77 5.13.59 2.15.64 1.88.47-3.34.72-3.91-.54 1.73-1.63 2.27-.88.09 2.24-1.8 17.51-17.32 17.72-30.47Zm-9.49-17.53s-.08 0-.11-.01l.11.01Zm-43.94 95.69c-.09-.17.22-.13.18 0h-.18Zm-3.73.55c-.95.48-.65-.49.07-.37-.45.18.22.34-.07.37ZM82.59 20.66c0-.01.01-.02 0 0Zm60.31 130.19c-.17.08-.32.2-.48.06.17-.02.32-.04.48-.06Zm.21-.01c.17-.04.71-.2.52.02-.15-.05-.33-.09-.52-.02Zm16.91-109.42c-.11-.05-.56-.15-.14-.1l.14.1Zm-77.3-21.06c-.09.17-.17.46-.33.2.08-.06.22-.17.33-.2Zm-2.42 1.92c-.05.12-.09.24-.14.35-.06-.07.1-.3.14-.35Zm-.76.42v.08c-.04 0-.04-.03 0-.08ZM7.82 104.58s.04.05.03.09l-.03-.09Zm1.26.13c.03.12.05.24.08.36-.03-.08-.16-.27-.08-.36Zm.23 1.73c.13-.68.24.46.34.69-.1.09-.21.02-.34-.69Zm3.31 11.66c.02.05.04.11.06.16-.05-.04-.06-.11-.06-.16Zm104.34 33.95c.46.41-.47.11-.49-.08 2.31-.1 3.2.56.49.08Zm8.09.51-.11-.05c.26-.05.41-.1.11.05Zm12.42-.69c.11 0 .25.01.06.05-.03-.02-.05-.03-.06-.05Zm1.48-.27c.11-.1.44-.13.87-.18-.32.13-.58.31-.87.18Zm.9-.19-.4-.04c.23-.21.89-.03.4.04Zm1.46-.1c.34-.16.65-.23.99-.05-.17.14-.64.02-.99.05Zm3.45-.16c0 .36-.12-.24.59-.37.1.38-.31.29-.59.37Zm3.83-.44s.02-.07.05-.09l-.05.09Zm.15-.79c-.39.04-.38-.14-.42-.32.4-.16.84-.29.42.32Z" style="fill:#eeece9;stroke-width:0" id="BG_Strong"/><g id="Illustrations"><path class="cls-25" d="M78.15 97.74h18.29V11.5H78.15V97.74z"/><path class="cls-23" d="M97.48 21.84c0-.69-4.57-1.24-10.2-1.23-5.63 0-10.18.57-10.17 1.26 0 .69 4.57 1.24 10.2 1.24 5.63 0 10.18-.57 10.17-1.26Z"/><path d="m54.05 192.06 66.01.5c3.46.03 6.44-2.56 6.77-6.01.35-3.7 2.71-7.8 12.77-10.02 17.97-4.11 42.1 1.6 53.69-16.34 9.78-17.26-11.03-21.41-24.72-23.38-8.56-1.23-2.62-7.28-4.37-9.47-1.35-1.69-3.08 3.83 0 0-3.32 4.12-24.18-2.94-29.58 0-2.65 11.65 4.08 13.84 11.38 17.92 15.34 16.55-71.84 15.7-83.25 24.24-7.48-.44-12.39 6.83-14.93 13.49-1.66 4.36 1.57 9.04 6.23 9.07Z" style="fill:#e2ded9;stroke-width:0"/><path class="cls-31" d="m67.34 129.95 111.37-2.47-.45-11.91.59-11.63c-.25-9.12.7-37.73.7-42.93l-.8-1.76-1.49-18.29-108.31.29-.8 19.76c-.11 2.79-.81 26.59-.75 37.42l-.05 31.53Z"/><path class="cls-32" d="M153.56 84.89v-4.71c0-1.51 1.23-2.74 2.74-2.74h10.18c1.11 0 2.01.9 2.01 2.01v6.18c0 1.11-.9 2.01-2.01 2.01H156.3c-1.51 0-2.74-1.23-2.74-2.74Z"/><rect x="118.95" y="113.3" width="20.78" height="10.19" rx="3.73" ry="3.73" style="fill:#ffb1c3;stroke-width:0"/><rect class="cls-32" x="117.55" y="55.69" width="20.78" height="10.19" rx="3.73" ry="3.73"/><rect class="cls-32" x="71.95" y="69.08" width="20.78" height="10.19" rx="3.73" ry="3.73"/><rect class="cls-32" x="106.73" y="87.07" width="20.78" height="10.19" rx="2.74" ry="2.74"/><path class="cls-25" d="M161.02 72.48v55.03h-29.58V72.48h29.58z"/><path class="cls-24" transform="rotate(-180 100.58 86.03)" d="M84.04 72.48h33.08v27.11H84.04z"/><rect x="156.47" y="41.64" width="20.78" height="10.19" rx="1.74" ry="1.74" transform="rotate(-179.98 166.863 46.73)" style="fill:#ff5b00;stroke-width:0"/><path style="fill:#dd542a;stroke-width:0" d="M105.35 55.23H183.11v5.78H64.63v-5.78h40.72z"/><path class="cls-34" d="M64.63 55.23H183.11l-9.14-32.98H73.77l-5.18 18.71-2.82 10.19-1.13 4.08Z"/><rect class="cls-32" x="87.18" y="109.44" width="20.78" height="10.19" rx="3.73" ry="3.73"/><path d="M75.94 102.3c1.35 0 2.44 1.09 2.44 2.44v5.31c0 1.35-1.09 2.44-2.44 2.44h-5.88c-.95 0-1.71-.77-1.71-1.72l.06-6.78c0-.94.77-1.69 1.71-1.69h5.83Z" style="fill:#ffa2af;stroke-width:0"/><path class="cls-32" d="M162.32 72.42v-4.71c0-1.51 1.23-2.74 2.74-2.74h10.18c1.11 0 2.01.9 2.01 2.01v6.18c0 1.11-.9 2.01-2.01 2.01h-10.18c-1.51 0-2.74-1.23-2.74-2.74Z"/><path style="fill:#c59ad9;stroke-width:0" d="M121.6 106.15H80.44l2.92-6.56 34.87-.05 3.37 6.61z"/><path class="cls-17" d="M83.93 99.59c0-8.77 6.03-9.75 8.14-10.07s4.27-.33 6.38-.72c7.25-1.33 13.45-8.05 18.67-13.25l-.11 24.03c-10.4.15-22.68-.15-33.08 0"/><path class="cls-35" transform="rotate(-180 123.87 129.95)" d="M64.63 127.06h118.48v5.78H64.63z"/><path class="cls-31" transform="rotate(-180 100.95 81.22)" d="M83.03 79.85h35.84v2.75H83.03z"/><path class="cls-24" transform="rotate(-180 146.35 90.56)" d="M136.69 77.44h19.33v26.24h-19.33z"/><path transform="rotate(90 146.23 90.26)" style="fill:#fc688a;stroke-width:0" d="M130.42 88.89h31.63v2.75h-31.63z"/><path d="M153.56 108.61c.09-.46.48-.94.88-1.21.19-.14.41-.25.64-.3.25-.05.51-.08.76-.11.25-.02.51.03.76.07.23.04.46.14.66.25.11.06.18.12.3.21.07.05.19.13.27.21.45.46.72 1.09.72 1.74 0 .16-.05.46-.08.61-.05.2-.13.39-.24.57-.18.29-.37.49-.63.69-.26.2-.49.33-.82.43l-.11.03c-.19.04-.42.07-.61.08a2.628 2.628 0 0 1-1.35-.4c-.29-.2-.48-.37-.69-.64-.19-.24-.22-.29-.34-.58-.14-.33-.19-.57-.22-.94-.02-.24.04-.5.08-.73Z" style="stroke-miterlimit:10;stroke:#ffbe00;stroke-width:.75px;fill:none"/><path class="cls-32" d="M80.28 91.76v-2.73a3.73 3.73 0 0 0-3.73-3.73h-8.64l.22 4.46-.22 5.73h8.64a3.73 3.73 0 0 0 3.73-3.73Z"/><g style="clip-path:url(#clippath-2)"><path class="cls-12" d="M83.66 33.48c-2.56 0-5.12-.84-6.91-2.51-1.48-1.44-2.4-3.3-3.28-5.1-1.64-3.33-2.8-5.38-5.81-5.46-.86.02-1.69.88-1.86 1.64-.1.46.09.55.25.63l-1.32 2.7c-1.52-.74-2.24-2.27-1.87-3.97.41-1.89 2.23-3.93 4.79-4 5.06.12 6.97 4.01 8.5 7.13.81 1.64 1.57 3.19 2.66 4.25 2.35 2.2 7.09 2.26 9.54.1 1.41-1.24 2.16-3.01 2.95-4.89.29-.7.59-1.39.91-2.06 1.83-3.79 4.85-6.03 8.13-5.98 4.46.06 6.55 3.74 8.4 6.99 1.56 2.75 3.04 5.35 5.69 5.78 3.4.45 5.51-2.08 7.94-5.01 2.41-2.89 5.13-6.16 9.55-6.24h.07c4.67 0 7.39 3.67 9.8 6.91 2.17 2.92 4.21 5.68 7.36 5.79 2.55.06 4.64-2.79 6.87-5.83 2.61-3.56 5.33-7.23 9.48-7 4.74.27 7.18 3.14 8.96 5.23.62.73 1.21 1.42 1.71 1.74.78.51 1.34.98 1.78 1.36.87.75 1.2 1.03 2.59 1.06 1.23.03 2.63-.62 3.27-1.5.42-.59.28-.97.24-1.1l2.82-1.01c.46 1.29.24 2.66-.63 3.86-1.22 1.7-3.53 2.79-5.77 2.74-2.46-.06-3.44-.89-4.47-1.78-.42-.36-.85-.72-1.46-1.12-.86-.56-1.59-1.41-2.36-2.31-1.59-1.87-3.4-3.98-6.85-4.18-2.56-.16-4.65 2.73-6.89 5.78-2.59 3.53-5.27 7.22-9.39 7.05-4.6-.15-7.29-3.79-9.67-7-2.27-3.05-4.22-5.69-7.37-5.69h-.04c-3.03.05-5.1 2.53-7.28 5.16-2.62 3.15-5.6 6.72-10.68 6.05-4.11-.67-6.1-4.17-7.86-7.27-1.92-3.38-3.27-5.44-5.83-5.47h-.05c-3.02 0-4.85 3.28-5.33 4.29-.3.63-.57 1.27-.85 1.92-.89 2.1-1.8 4.28-3.73 5.98-1.77 1.55-4.23 2.33-6.68 2.33Z"/><path class="cls-12" d="M82.32 48.86h-.17c-2.67-.04-5.17-1.09-6.87-2.88-1.44-1.53-2.35-3.62-3.23-5.64-1.69-3.88-2.93-6.25-5.92-6.35-.8.02-1.63.99-1.85 1.88-.13.56-.03.93.3 1.11l-1.45 2.63c-1.55-.85-2.23-2.56-1.77-4.45.48-1.98 2.32-4.11 4.77-4.17 5.19.17 7.11 4.59 8.66 8.15.81 1.87 1.58 3.63 2.66 4.77 1.14 1.2 2.87 1.91 4.74 1.94 1.88 0 3.62-.62 4.8-1.79 1.31-1.29 2.15-3.4 3.04-5.64 1.64-4.11 3.49-8.77 9.01-9.04 4.64.07 6.74 4.23 8.6 7.9 1.59 3.15 3.09 6.12 5.75 6.61 2.37.43 4.96-1.33 7.68-5.27 2.05-2.96 5.16-7.44 9.96-7.48h.06c4.75 0 7.5 4.16 9.92 7.84 2.2 3.33 4.27 6.47 7.41 6.59 2.6.14 4.77-3.13 7.06-6.54 2.56-3.8 5.2-7.73 9.23-8 2.6-.17 4.58 2.45 6.35 4.76.82 1.08 1.68 2.2 2.34 2.68 2.17 1.58 4.36 3.18 6.71 3.24 1.12 0 2.43-.6 3.13-1.54.3-.4.62-1.03.39-1.73l2.86-.92c.48 1.5.18 3.07-.85 4.44-1.29 1.72-3.5 2.81-5.61 2.73-3.27-.09-5.97-2.06-8.35-3.79-1.06-.77-2-2.01-3-3.32-1.11-1.45-2.79-3.64-3.76-3.58-2.57.17-4.79 3.48-6.95 6.68-2.66 3.95-5.4 8.02-9.67 7.87-4.68-.18-7.4-4.3-9.8-7.94-2.2-3.34-4.28-6.49-7.42-6.49h-.04c-3 .02-5.27 2.94-7.52 6.19-3.45 4.99-7.05 7.18-10.69 6.51-4.12-.76-6.12-4.71-7.89-8.21-1.95-3.87-3.32-6.22-5.87-6.26-3.25.16-4.54 2.8-6.27 7.15-.97 2.43-1.96 4.93-3.73 6.67-1.72 1.69-4.18 2.66-6.79 2.66Z"/><path class="cls-12" d="M83.42 63.6h-.17c-2.67-.04-5.17-1.09-6.87-2.88-1.44-1.53-2.35-3.62-3.23-5.64-1.69-3.88-2.93-6.25-5.92-6.35-.8.02-1.63.99-1.85 1.88-.13.56-.03.93.3 1.11l-1.45 2.63c-1.55-.85-2.23-2.56-1.77-4.45.48-1.98 2.32-4.11 4.77-4.17 5.19.17 7.11 4.59 8.66 8.15.81 1.87 1.58 3.63 2.66 4.77 1.14 1.2 2.87 1.91 4.74 1.94 1.87 0 3.62-.62 4.8-1.79 1.31-1.29 2.15-3.41 3.05-5.64 1.64-4.11 3.5-8.78 9.01-9.03 4.64.07 6.74 4.23 8.59 7.9 1.59 3.15 3.09 6.12 5.75 6.61 2.38.44 4.96-1.34 7.68-5.27 2.05-2.96 5.16-7.44 9.96-7.48h.06c4.75 0 7.5 4.16 9.92 7.84 2.2 3.33 4.27 6.47 7.41 6.59h.1c2.46 0 4.66-3.37 6.79-6.62 2.63-4.03 5.36-8.21 9.61-7.93 4.82.31 7.29 3.57 9.09 5.94.64.84 1.24 1.63 1.74 2 .79.58 1.35 1.11 1.8 1.55.9.87 1.2 1.16 2.57 1.2 1.13.02 2.43-.6 3.13-1.54.3-.4.62-1.03.39-1.73l2.86-.92c.48 1.5.18 3.07-.85 4.44-1.29 1.72-3.5 2.81-5.61 2.73-2.53-.07-3.52-1.02-4.57-2.03-.42-.41-.86-.83-1.48-1.28-.86-.63-1.59-1.59-2.37-2.61-1.61-2.13-3.44-4.54-6.89-4.76-2.5-.18-4.74 3.26-6.9 6.57-2.61 4-5.31 8.14-9.52 7.98-4.68-.18-7.4-4.3-9.8-7.94-2.2-3.34-4.28-6.49-7.42-6.49h-.04c-3 .02-5.27 2.94-7.52 6.19-3.45 4.99-7.05 7.18-10.69 6.51-4.12-.76-6.12-4.71-7.89-8.21-1.95-3.87-3.32-6.22-5.87-6.26-3.25.15-4.54 2.8-6.27 7.15-.97 2.43-1.97 4.93-3.73 6.67-1.72 1.7-4.18 2.66-6.79 2.66Z"/><path d="M62.79 75.66c-2.48-1.36-.52-5.74 2.32-5.81 6.43.21 6.63 8.69 10.19 12.45 2.98 3.14 8.61 3.23 11.69.18 4.12-4.06 3.82-13.91 11.07-14.24 7.08.11 7.04 13.21 14.01 14.49 3.8.7 6.99-2.72 9.19-5.89 2.19-3.16 4.87-6.81 8.74-6.83 7.89-.06 9.45 14.12 17.33 14.43 6.74.26 9.73-14.1 16.46-14.55 2.82-.19 5.42 5.49 7.7 7.15 2.28 1.66 4.72 3.45 7.55 3.53s5.85-2.54 5-5.22" style="stroke:#d73715;stroke-width:7px;stroke-miterlimit:10;fill:none"/></g><path class="cls-10" d="M190.11 121.63c-.09-4.18-.75-8.43-1.58-12.52-.83-4.08-2.04-8.1-3.96-11.81-.96-1.85-2.1-3.59-3.42-5.19-1.24-1.5-2.95-3.09-5.03-3.07-1.91.02-3.2 1.42-4.06 2.98-1.09 1.99-1.97 4.12-2.79 6.23a65.124 65.124 0 0 0-3.64 13.73c-.99 6.63-2.08 16.64 3.05 22.04.01.23.12.46.36.66 5.17 4.41 13.77 3.76 18-1.68 2.5-3.23 3.15-7.38 3.07-11.37Z"/><path d="M143.3 139.26c-.09-4.18-.75-8.43-1.58-12.52-.83-4.08-2.04-8.1-3.96-11.81-.96-1.85-2.1-3.59-3.42-5.19-1.24-1.5-2.95-3.09-5.03-3.07-1.91.02-3.2 1.42-4.06 2.98-1.09 1.99-1.97 4.12-2.79 6.23a65.124 65.124 0 0 0-3.64 13.73c-.99 6.63-2.08 16.64 3.05 22.04.01.23.12.46.36.66 5.17 4.41 13.77 3.76 18-1.68 2.5-3.23 3.15-7.38 3.07-11.37Z" style="fill:#37b552;stroke-width:0"/><path class="cls-10" d="M125.93 145.75c-.06-2.93-.53-5.9-1.11-8.76-.58-2.85-1.43-5.67-2.77-8.26-.67-1.29-1.47-2.51-2.39-3.63-.87-1.05-2.07-2.16-3.52-2.15-1.33.01-2.24.99-2.84 2.08-.76 1.39-1.38 2.88-1.95 4.36-1.2 3.1-2.05 6.33-2.54 9.61-.7 4.64-1.46 11.65 2.14 15.42 0 .16.08.32.25.46 3.62 3.08 9.64 2.63 12.59-1.18 1.75-2.26 2.21-5.17 2.15-7.95Z"/><path class="cls-18" d="M93.81 168.01c-.48-1.08-1.55-1.72-2.7-1.8-.2-.01-.36.18-.36.36 0 .21.17.35.36.36.1 0 .19.02.28.04.09.57.23 1.58.26 1.72.04.2.27.8.21 1.02s-.51.64-.9.66-.72-.23-.92-.59c-.16-.29-.48-1.79-.61-2.42.04-.03.08-.05.13-.08.16-.1.24-.33.13-.5s-.32-.24-.5-.13c-.2.12-.4.26-.55.43s-.28.37-.38.58c-.24.49-.38 1.02-.43 1.57-.09 1 .27 2.02.99 2.72.38.37.83.62 1.36.7.25.04.52.08.78.05s.5-.1.74-.16c.47-.12.93-.28 1.32-.58s.66-.75.84-1.21c.35-.88.32-1.89-.06-2.76ZM34.62 166.18c-.22-.41-.85-.04-.63.37.01.03.03.06.04.08-.59.58-1.94 1.9-2.15 2.12-.27.29-.86.63-1.1.5s-.67-.77-.36-1.17c.31-.41 1.98-2.13 2.03-2.18.03-.03.21-.32.36-.56.03.02.07.04.1.06.4.24.77-.39.37-.63-.94-.57-2.09-.73-3.16-.52-.52.1-1.03.31-1.47.61s-.77.68-1 1.16c-.32.64-.5 1.33-.56 2.04-.09 1.05.19 2.14.82 2.99.42.56.94 1.03 1.6 1.28.31.12.64.16.97.21.35.04.68.02 1.02-.06.62-.14 1.26-.29 1.83-.59s1.03-.8 1.33-1.4c.69-1.34.7-2.99-.02-4.32Z"/><path d="M89.83 132.41c-.11-.18-.32-.21-.5-.13l-.5-.45.06-.03c.18-.08.22-.34.13-.5-.11-.18-.32-.21-.5-.13-1.15.53-2.38.93-3.6 1.3-.03 0-.05.02-.08.03-.14.02-.28.12-.31.26-.09.56-.18 1.12-.27 1.69-.02 0-.04.01-.06.02-1.29.56-2.57 1.16-3.84 1.76-.01 0-.03.01-.04.02-.06.03-.1.07-.13.13v.03a.31.31 0 0 0-.02.25l.75 2.43c.06.19.25.31.45.25s.31-.26.25-.45v-.02l.87-.29c.06.17.26.29.44.23.19-.06.31-.25.25-.45l-.3-.98c.55-.25 1.1-.49 1.65-.73.05-.02.09-.06.12-.11a.37.37 0 0 0 .05-.11c.11-.66.21-1.33.32-1.99.04 0 .07 0 .12-.02.82-.25 1.64-.5 2.45-.77.72-.23 1.45-.47 2.14-.79.18-.08.22-.34.13-.5Z" style="fill:#9ab4b4;stroke-width:0"/><path class="cls-19" d="M50.18 169.58v-.43c0-.04 0-.07-.02-.11-.06-1.81-.3-3.61-.88-5.34-.28-.82-.62-1.62-.99-2.4-.47-.99-.97-1.95-1.59-2.85-.77-1.12-1.67-2.16-2.66-3.1-.34-.32-.86.19-.51.51.85.8 1.63 1.68 2.31 2.63.65.9 1.19 1.86 1.67 2.86.37.78.69 1.47.97 2.26.2.55.37 1.14.51 1.73l-.26.69c-.23-1.32-.63-2.6-1.18-3.82-.76-1.71-1.82-3.28-3.1-4.64-.35-.37-.71-.72-1.09-1.06-.15-.13-.37-.14-.51 0-.13.13-.15.38 0 .51 1.39 1.24 2.56 2.7 3.46 4.33.9 1.63 1.45 3.24 1.74 4.99.29 1.75.24 3.45-.08 5.15-.32 1.69-.92 3.34-1.71 4.87-.81 1.56-1.83 3.02-3 4.33s-2.51 2.52-4 3.47c-1.54.99-3.24 1.68-5.06 1.91-1.02.13-2.05.14-3.08.12a33.97 33.97 0 0 1-3.04-.2c-1.89-.22-3.78-.65-5.51-1.46-1.54-.73-3.01-1.7-4.16-2.97-.01-.03-.03-.05-.05-.08-1.14-1.36-2.1-2.86-2.87-4.46s-1.32-3.27-1.63-5-.35-3.46-.15-5.18c.21-1.72.67-3.37 1.38-4.92.71-1.55 1.64-2.97 2.8-4.2 1.06-1.12 2.26-2.06 3.6-2.83 1.35-.78 2.78-1.37 4.29-1.78 1.52-.41 3.04-.63 4.61-.66 1.57-.03 3.13.14 4.67.52 1.8.45 3.53 1.15 5.12 2.1.39.23.77.48 1.14.74.16.11.4.03.5-.13.09-.16.05-.33-.07-.45l.47-.52c.15.11.35.13.5-.01.13-.13.16-.39 0-.51-.43-.34-.87-.68-1.34-.97-.41-.26-.85-.48-1.3-.69-.91-.42-1.85-.78-2.8-1.11-1.85-.66-3.81-1.01-5.77-1.07-1.96-.06-3.94.17-5.83.69-1.88.51-3.7 1.31-5.34 2.38-1.53 1-2.92 2.23-4.11 3.62a19.623 19.623 0 0 0-2.93 4.6c-.76 1.67-1.3 3.44-1.56 5.25-.27 1.89-.24 3.8.06 5.69.3 1.87.88 3.7 1.7 5.41.81 1.69 1.87 3.27 3.13 4.66.78 1.09 1.85 1.96 2.95 2.71 1.29.89 2.7 1.6 4.17 2.14 2.91 1.07 6.09 1.46 9.17 1.12s6.06-1.39 8.61-3.14c2.5-1.71 4.57-4.02 6.06-6.65 1.48-2.62 2.38-5.57 2.55-8.58 0-.12 0-.24.01-.36 0-.03.01-.06.01-.1v-.21Zm-8.15 14.65s-.05.03-.07.05l-.75-.63c.57-.46 1.11-.95 1.63-1.47 1.3-1.29 2.45-2.74 3.4-4.31.05-.08.09-.15.13-.23.17-.04.58-.13.88-.03.05.02.1.04.14.07-1.29 2.53-3.12 4.79-5.37 6.54Z"/><path class="cls-26" d="M48.76 149.91c.24-.27.38-.43.38-.43l-.52-1.49-.15.16c0-.08-.04-.15-.1-.21-.13-.13-.39-.15-.51 0a890.52 890.52 0 0 1-6.97 8.03c-2.3 2.62-4.62 5.23-6.97 7.81-1.24 1.36-2.49 2.72-3.76 4.06-.04.04-.07.09-.08.14 0 0 0 .01-.01.02-.21.38-.19.88.07 1.23.14.19.31.32.54.39.2.06.41.05.61.02.22-.04.44-.16.59-.32 2.22-2.35 4.4-4.73 6.57-7.13 2.17-2.4 4.45-4.96 6.65-7.47 1.24-1.41 2.47-2.83 3.71-4.25.13-.15.15-.37 0-.51a.138.138 0 0 0-.04-.03Z"/><path style="fill:#f4c044;stroke-width:0" d="M30.06 167.99v-.01.01z"/><path class="cls-26" d="m82.21 142.62-.02-.15.02-.02c.21-.19.11-.45-.08-.56v-.05l-.03.03a.357.357 0 0 0-.39.06 60.029 60.029 0 0 1-5.14 4.14c-1.8 1.28-3.68 2.45-5.64 3.47-2 1.04-4.07 1.91-6.22 2.59-2.25.7-4.56 1.19-6.91 1.41-2.38.22-4.79.18-7.16-.19-.16-.03-.32-.05-.48-.08-.58-1.64-1.16-3.28-1.72-4.93-.74-2.14-1.45-4.29-2.13-6.45-.08-.25-.16-.5-.23-.75-.14-.45-.84-.26-.7.19.66 2.14 1.36 4.26 2.09 6.38.63 1.86 1.28 3.71 1.94 5.56-.05.04-.09.1-.11.17-.05.18.06.41.25.45.03 0 .05 0 .08.01.02.05.04.11.06.16-.04.04-.07.09-.09.15-.05.18.06.41.25.45h.05c.81 2.27 1.63 4.55 2.44 6.82.81 2.26 1.61 4.52 2.39 6.78.72 2.09 1.43 4.19 2.1 6.3.08.24.15.48.23.72.14.45.84.26.7-.19-.65-2.08-1.34-4.15-2.05-6.21-.77-2.25-1.56-4.5-2.36-6.74-.83-2.32-1.66-4.63-2.49-6.95-.04-.13-.09-.25-.13-.38 2.08.33 4.18.43 6.28.31 2.39-.14 4.78-.55 7.1-1.19 2.26-.63 4.45-1.48 6.55-2.51a45.78 45.78 0 0 0 5.86-3.43c1.88-1.29 3.68-2.71 5.4-4.21.21-.19.42-.37.63-.56.28-.25 0-.63-.3-.61Z"/><path class="cls-16" d="M84.2 131.16s.58-1.15.83-1.55.91-1.68.91-1.68.93.38 2.06.43c1.13.05 3.05 0 3.19.08s.49.37.72 1.29c.24.92.43 1.71.33 1.92-.1.21-.26.48-.66.71s-.91.81-1.25.63-.53-.08-.81-.4-.4-.35-.68-.63-.39-.46-.39-.46-.5-.33-.77-.18-.28.3-.67.33-.73.07-1.07-.2-.3-.31-.56-.29c-.25.02-.65.08-.82.03s-.36-.03-.36-.03ZM41.41 176.36c.2 0 .55-.32.77-.83.22-.51.37-.93.44-1.32s.14-.95.14-.95l4.15.41-.73 3.46-.07.69-.63.76s-.97.04-1.51.07-.86.03-1.28-.22-.89-.72-.98-1.09c-.09-.37-.29-.99-.29-.99ZM56.33 166.38s.46-.53.7-1.17.54-1.68.7-2.32l.43-1.74 3.69 1.59-.19.74-.04.42s-.67.72-.72 1.01-.05.99-.05.99-.84.85-1.21 1.08c-.37.23-.86.52-1.3.52s-.77.04-1.16-.27-.84-.85-.84-.85Z"/><path class="cls-35" d="M52.46 169.73c0-4.29-1.23-8.41-3.52-11.95-.45-.93-.9-1.77-1.31-2.36-.59-.86-1.78-1.77-3.08-2.61-3.86-3.24-8.66-5-13.71-5-11.95 0-21.66 9.72-21.66 21.66v.76c.03.17.17.31.36.31h.91c.16 0 .32-.12.35-.28.04-.05.06-.11.05-.18v-.61c0-11.02 8.97-19.99 19.99-19.99s19.99 8.97 19.99 19.99v.22c0 .16.12.29.28.31.06.06.14.09.24.09h.74c.09 0 .19-.04.26-.11.02-.02.04-.05.05-.07a.28.28 0 0 0 .06-.18Z"/><path class="cls-16" d="m71.13 103.78.55-1.67s.44-.12.84-.64c.4-.53.93-1.49 1.05-1.49s1-.91 1-.91 1.21.23 1.74.14.7 0 1.15-.37.95-.95 1.01-1.1.13-.68.13-.68l1.69-.29.42 2.71 1.37 2.37-1.28.08s-.17 1.53-.37 2.08-.55 1.58-1.04 1.84-.5.36-1.02.3-1.77-.27-1.76-.27-.59.76-.65.87-.63 1.06-.63 1.06-.98-1.26-1.57-1.87c-.59-.61-2.62-2.16-2.62-2.16Z"/><path class="cls-34" d="M71.41 169.55c.17.55.14 1.13-.09 1.66-.03.08.04.18.11.2.09.03.17-.03.2-.11.24-.58.27-1.24.09-1.83-.06-.2-.38-.12-.32.09Z"/><path class="cls-34" d="M71.64 169.35c-.22-.28-.56-.36-.9-.4-.39-.04-.79-.04-1.18-.09-.81-.1-1.61-.29-2.38-.56s-1.51-.63-2.21-1.06-1.39-.89-1.78-1.6c-.36-.66-.55-1.44-1.19-1.9-.04-.03-.09-.04-.13-.02-.15-.02-.35.1-.45.16-.2.13-.37.3-.5.5-.27.41-.33.91-.27 1.39-.64.69-1.37 1.47-2.37 1.55-.49.04-.93-.12-1.29-.46s-.67-.75-.98-1.14v-.06c-.02-.08-.12-.14-.2-.11-.36.13-.66.4-.81.76-.08.18-.11.39-.1.58 0 .12.02.3.1.41-.34.84-.64 1.8-.24 2.66-.12.15-.22.32-.27.51-.03.1-.04.21-.05.32 0 .12.02.23.02.34 0 .11-.05.2-.08.3-.03.11-.04.22-.05.34 0 .24.05.46.15.68.02.05.05.07.09.08.01.01.02.03.04.04.78.6 1.85.66 2.8.58 1.18-.1 2.33-.44 3.53-.35.6.04 1.19.13 1.79.19s1.23.1 1.85.12c1.17.03 2.35-.03 3.5-.26 1.21-.24 2.38-.68 3.41-1.35.12-.08.08-.24-.02-.29.07-.15.16-.38.18-.46.02-.11 0-.77-.05-1.13.08-.05.12-.17.05-.26Z"/><path class="cls-28" d="M50.64 142c.2-.69.41-1.38.63-2.06.04-.12-.05-.26-.17-.3-.13-.04-.26.04-.3.17-.22.68-.43 1.37-.63 2.06-.08.3.38.43.47.13Z"/><path class="cls-19" d="M51.23 139.77c.02-.92-.88-1.41-1.62-1.68-.87-.31-1.72-.65-2.52-1.12-1.57-.93-2.82-2.38-4.54-3.06-.46-.18-.95-.3-1.44-.32-.56-.03-1.12.07-1.68.17a.19.19 0 0 0-.16.17c-.01.01-.03.03-.04.05-.64 1.15-1.18 2.36-1.61 3.61-.02.06-.02.11 0 .15v.02c.41 1.61 1.66 2.88 3.2 3.46.92.34 1.91.47 2.88.59 1.03.12 2.07.21 3.11.27 1.17.07 2.34.11 3.52.14.27 0 .29-.36.07-.44.14-.41.43-1.31.59-1.79.11 0 .23-.07.23-.22Z"/><path class="cls-7" d="M79.93 95.14z"/><path class="cls-6" d="M79.93 95.14c-.92-.02-1.46.83-1.72 1.6-.06.16-.11.32-.16.48l-1.71.46s-1.94.58-2.2.68c-.26.11-2 .45-2 .45l-2.11.57c-.32-.81-.28-2.08-.25-2.51.05-.02.09-.06.12-.12.08-.13.04-.35-.11-.42-.55-.25-1.18-.29-1.74-.06-.51.21-.93.62-1.14 1.13-.1.23-.16.48-.22.72-.06.22-.11.45-.25.63-.37.51-.96.15-1.42 0-1.08-.37-2.41-.06-3 .98-.29.51-.32 1.13-.17 1.69.08.3.21.57.36.84.11.21.18.41.12.64-.08.29-.33.43-.55.6-.24.19-.43.43-.55.71-.28.62-.22 1.33.17 1.9.09.14.27.2.42.11.01 0 .02-.01.03-.02.18.18.36.3.36.3s1.93-.69 2.78-.94c.49-.15 4.36-1.01 4.36-1.01l.74-2.07 1.31 1.03.25-1.19c.54-.2 1.04-.54 1.42-.97.27-.32.46-.67.63-1.04.15-.32.29-.68.58-.9.72-.58 1.57.08 2.37-.02.93-.11 1.64-.8 1.99-1.64.18-.43.27-.9.5-1.3.09-.15.21-.3.34-.4.15-.12.28-.16.46-.16.47 0 .47-.72 0-.73Z"/><path class="cls-28" d="M62.87 106.25h.01-.01z"/><path class="cls-20" d="M86.29 126.92a52.671 52.671 0 0 1-8.43-5.59 55.08 55.08 0 0 1-3.78-3.39c-.19-.19-.38-.38-.56-.57.09-.24.18-.48.26-.73.66-2.03.86-4.15.93-6.27 0-.03 0-.06-.01-.08l1.38-1.48c.09-.1.05-.22-.04-.28-1.27-1.82-2.76-3.47-4.4-4.96-.47-.42-.95-.84-1.43-1.23-.02-.01-.03-.02-.05-.03-.09-.04-.21-.02-.25.09a11.248 11.248 0 0 1-.72 2.04c-2.02.3-4.01.8-5.94 1.46-.13.05-.15.2-.09.29-.14.04-.23.06-.27.06.1.03 2.96.76 3.9 1.27.96.52 1.47 1.4 1.94 2.25.47.85.54 2.77.54 2.77l-.19-.16c-.72-.8-1.47-1.58-2.29-2.28l-.06-.09c-.39-.62-3.37-1.7-4.44-1.94-.81-.18-2.45-.11-3.19-.07.06-.13-.09-.32-.26-.23-1.83.92-3.58 2-5.23 3.21a37.85 37.85 0 0 0-4.46 3.85c-.79.79-1.54 1.61-2.26 2.47-.06.07-.06.14-.02.21-.07.07-.11.12-.11.12s3.68.99 4.9 1.22c1.23.23 5.3.14 6.6-.03 1.3-.17 1.74-.38 1.74-.38l.04.04c.17.22.35.44.52.65.38.46.75.89 1.12 1.32-.74.23-3.55 1.06-5.33.84-2.06-.26-4.84-.34-6.52-.68-1.42-.29-3.5-1.04-4.11-1.27.09-.18-.2-.33-.33-.16-.96 1.28-1.85 2.61-2.66 3.99-.02.03-.02.06-.03.09-.03.06-.03.13.04.19 2.15 1.74 4.54 3.12 6.96 4.44a318.98 318.98 0 0 0 12.2 6.3c.06.05.16.07.24 0 2.37-2.22 4.41-4.76 6.23-7.45 1.03.76 2.11 1.47 3.22 2.09 1.72.96 3.62 1.79 5.56 2.34 1.92.55 3.91.87 5.91.88h.64c.06.03.13.02.18-.02a.18.18 0 0 0 .1-.14c.92-1.51 1.73-3.07 2.45-4.68.06-.13-.04-.26-.15-.28Z"/><path class="cls-17" d="M72.24 143.74c-.22-2.15-1.44-4.01-2.84-5.59-.76-.86-1.6-1.65-2.45-2.43-.9-.82-1.84-1.6-2.81-2.34l-.72-.54c-.13-.1-.26.03-.26.17l-1.14 1.05s-8.85-4.28-10.46-5.37c-1.46-.99-6.84-4.08-7.82-4.64.08-.18-.15-.38-.28-.22-1.77 2.19-2.65 4.92-2.95 7.7-.33 3.08.04 6.16.52 9.2.54 3.4 1.21 6.81 1.15 10.27-.03 1.75-.23 3.49-.39 5.24s-.27 3.51-.31 5.27c-.08 3.5.1 7.01.52 10.49.05.42.11.83.16 1.25 0 .05.03.09.07.11.03.04.07.06.13.07l5.43.44c.1 0 .15-.05.17-.13.07-.02.14-.07.14-.17.06-2.56.43-5.09.96-7.59s1.22-4.95 1.91-7.4c.7-2.47 1.4-4.94 1.96-7.45.58-2.59.97-5.21 1.14-7.86.03-.46.05-.92.07-1.39 1.72 1.13 3.55 2.09 5.44 2.89.5.21 1 .41 1.51.59-.29.64-.54 1.3-.76 1.97-.15.47-.29.95-.4 1.43s-.18.96-.26 1.44a69.393 69.393 0 0 1-2.45 10.43v.02c-.11.07-.15.23 0 .3l5 2.18s.06.02.09.02c.06 0 .12-.02.16-.08 1.38-2.09 2.78-4.16 4.16-6.25 1.32-1.99 2.67-3.99 3.75-6.12.54-1.07 1.03-2.17 1.39-3.32.36-1.14.6-2.4.47-3.63Z"/><path class="cls-28" d="M46.6 117.69c1.64.72 3.37 1.21 5.13 1.47 1.77.26 3.57.31 5.35.12 1.01-.11 2-.29 2.98-.55.38-.1.22-.69-.16-.58-3.34.89-6.92.85-10.26-.03-.94-.25-1.85-.56-2.74-.95-.15-.07-.33-.04-.41.11-.08.13-.04.35.11.41ZM45.28 119.33c1.97.91 4.06 1.56 6.2 1.92s4.31.44 6.46.22c1.22-.12 2.43-.33 3.62-.64.38-.1.22-.68-.16-.58-2.04.53-4.15.77-6.26.73-2.11-.04-4.21-.35-6.24-.93a22.82 22.82 0 0 1-3.32-1.24c-.15-.07-.33-.04-.41.11-.08.13-.04.35.11.41Z"/><path class="cls-20" d="M68.66 109c-.57-.92-1.44-1.65-2.41-2.13-1.14-.57-2.39-.82-3.64-.96-1.25-.13-2.58-.15-3.87-.06-1.27.1-2.53.3-3.76.62.74-1.02 1.47-2.04 2.19-3.07.08-.12.04-.28-.06-.37-.01-.04-.04-.08-.06-.11-1.2-1.48-2.55-2.84-4.01-4.05.48-1 1.05-1.95 1.72-2.83.08-.1.04-.26-.04-.35 0-.1-.05-.19-.15-.26l-1.14-.83a.306.306 0 0 0-.23-.03.333.333 0 0 0-.3.15c-.65.86-1.22 1.79-1.69 2.76-.41-.29-.83-.57-1.26-.84-.77-.48-1.55-.92-2.36-1.33-.06-.03-.11-.04-.16-.03a.319.319 0 0 0-.27 0c-.27 0-.54.08-.79.19-.32.13-.64.26-.96.4l-1.93.8c-.15.06-.26.2-.21.37.03.1.12.19.22.22.27.18.57.33.88.43-1.26 1.28-2.38 2.68-3.45 4.12-1.8 2.42-3.38 4.64-4.92 7.07-.94 1.48-1.83 3-2.67 4.53-.06.11-.05.22 0 .3.01.06.04.12.08.17 2.01 2.52 4.48 4.68 7.23 6.35.77.47 1.56.9 2.36 1.28.14.07.31.04.4-.09.03-.01.07-.04.09-.07.63-.79 1.26-1.59 1.89-2.38.24.16.74.47 1.14.53.54.08 3.3 1.09 4.19 1.29.89.2 7.39.36 8.3.23s2.84-.65 2.84-.65l-1.55-1.84s-1.55.19-3 .55-4.73.16-6.97-.27c-1.91-.36-3.4-1.09-3.8-1.3.81-1.02 1.61-2.04 2.41-3.07 1.3-1.67.93 1.77 2.2.08.09.04 2.21-1.02 2.31-1.06 1.79-.78 3.37-5.27 5.32-5.34 1.87-.08 3.82.14 5.57.82.92.35 1.77.87 2.46 1.57.14.14.31.1.42 0 0 .11-.03.2-.03.2l1.72 1.53c0 .1.02.19.03.29.01.16.13.3.3.3.15 0 .32-.14.3-.3-.11-1.22-.24-2.47-.9-3.54Z"/><path d="M48.28 109.81c.02-.07.09-.76 0-1.74s0-.05.01-.07c.39-.7.6-1.21.6-1.21.04-.09 0-.19-.06-.25l-.49-.42-.01-.01c-.06-.04-.15-.03-.19.04l-.12.18h-.01c-.12-.5-.29-1.02-.52-1.54a.58.58 0 0 0-.21-.26.55.55 0 0 0-.32-.1c-2.6-.11-4.85 1.04-4.96 1.11s-.05.04-.07.07c-.06.08-.05.2.02.27l.46.46c.06.07.07.16.03.24-.06.1-1.37 2.24-1.61 2.87-.03.09 0 .2.08.25.31.2.6.39.9.59l.02.02s.08.01.1-.02c.11-.19.37-.62.64-1.08 0-.01.02-.03.02-.04s.03-.09 0-.13c-.09-.2-.09-.45.04-.65.47-.75 1.03-1.6 1.51-2.23.04-.05.12-.07.17-.03.06.04.08.12.04.18-.33.42-.68.94-1.02 1.46-.05.07-.03.16.04.21s.16.03.21-.04c.34-.52.7-1.04 1.03-1.47.04-.05.12-.07.17-.03.06.04.08.12.04.18-.32.42-.68.94-1.01 1.45-.05.07-.03.16.04.21.07.05.16.03.21-.04.34-.52.7-1.04 1.02-1.46.04-.05.12-.07.17-.03.06.04.08.12.04.18-.47.62-1.01 1.44-1.47 2.17s0 .01 0 .02c-.13.2-.35.31-.57.31-.04 0-.08.02-.1.05 0 0-.09.1-.4.66-.13.25-.23.42-.27.5s0 .07.02.09.03.02.05.03c.1.07.21.14.32.21h.02l.02.03c.14.09.27.18.39.27l.3.21s.07.01.09-.01c.5-.59.76-.93.76-.93.02-.03.01-.07-.02-.1l-.33-.3c-.05-.05-.06-.11-.04-.16.01-.03.03-.06.03-.06 1.58-2.02 2.77-2.26 2.77-2.26h.05c.03 0 .06 0 .08.02.05.03.07.09.06.14 0 0 0 .02-.03.06-.39.71-1.19 1.82-1.83 2.68-.54.73-.98 1.29-.98 1.29s0 .06.01.07c.2.14.39.27.59.42.08.06.19.05.27-.01.49-.45 2-2.47 2.07-2.56.06-.07.15-.09.24-.06l.6.26c.09.03.2 0 .26-.08.02-.03.03-.06.04-.09Z" style="fill:#f8f8f8;stroke-width:0"/><path class="cls-7" d="M71.63 99.78c-.01.47 0 .94-.07 1.4s-.19.93-.34 1.38c-.21.63-.47 1.28-.82 1.86-.24.4.39.77.63.37.38-.63.66-1.34.89-2.03.15-.46.27-.93.34-1.41.08-.52.08-1.04.09-1.57.01-.47-.72-.47-.73 0ZM89.12 131.86c-.03-.08-.04-.15-.06-.23v.1-.23c0-.05 0-.1-.03-.14a.28.28 0 0 0-.08-.12.255.255 0 0 0-.12-.08.32.32 0 0 0-.14-.03c-.09 0-.19.04-.26.11l-.06.07c-.03.06-.05.12-.05.18 0 .11 0 .22.02.33.01.08.03.16.06.23.01.05.03.09.07.12.03.04.06.07.1.09.04.03.09.04.14.04.05.01.1 0 .15 0 .09-.03.17-.08.22-.17s.07-.19.04-.28Z"/><path class="cls-6" d="M92.61 131.65c0-1.17-.33-2.32-.95-3.31a.39.39 0 0 0-.2-.16.26.26 0 0 0-.16-.09c-.69-.13-1.39-.1-2.09-.05s-1.35.11-2.01 0h-.01c-.01 0-.02-.01-.04-.02-.75-.23-1.43-.51-2.12-.85-.17-.08-.4-.05-.5.13-.09.16-.05.41.13.5.73.37 1.49.67 2.27.92.02.01.05.02.07.02.7.12 1.39.09 2.09.04.69-.05 1.33-.1 1.98.01.52.85.8 1.83.81 2.83-.12.14-.24.26-.39.37 0 0-.02.01-.03.02-.02.01-.04.03-.05.04-.04.03-.07.05-.11.07-.08.05-.17.1-.26.14-.04.02-.08.04-.12.05-.03 0-.05.02-.08.03-.09.03-.18.06-.27.08l-.27.06c-.03 0-.04 0 0 0h-.14l-1.14-.79-.06-.03.12-.06c.1-.05.11-.06.21-.08-.06.01.06 0 .05 0 .05.01.09.04.13.06.24.15.45.34.68.51.16.12.41.02.5-.13.11-.19.03-.38-.13-.5-.42-.32-.87-.8-1.45-.64-.2.06-.38.17-.57.26-.04.02-.04.02-.1.04-.02 0-.04 0-.06.01h-.03s-.07-.01-.08-.02c-.04-.01-.08-.03-.13-.05-.3-.13-.57-.14-.84.05-.04.03-.07.05-.11.07-.01 0-.09.05-.1.05-.05.02-.1.03-.15.05 0 0-.07.01-.08.02a.956.956 0 0 1-.9-.37c-.06-.08-.16-.11-.26-.11h-.07c-.86-.03-1.71-.07-2.54-.32-.19-.06-.4.07-.45.25-.05.19.07.39.25.45.85.26 1.75.3 2.63.34.29.31.7.47 1.11.5.22.01.44-.02.65-.09.11-.04.22-.09.32-.16.04-.03.09-.08.14-.1 0 0-.05-.03.03 0 .23.11.47.19.74.15h.05c-.09.18-.02.37.14.48l1.15.8s.02.01.03.02c.06.05.14.09.23.08.89-.04 1.75-.43 2.33-1.11.05-.06.08-.13.1-.21a.35.35 0 0 0 .11-.26Z"/><path class="cls-7" d="M58.07 159.99c-.28 1.14-.56 2.29-.85 3.43-.24.94-.51 1.93-1.14 2.69-.12.15-.15.37 0 .51.13.13.39.15.51 0 .69-.84 1.03-1.87 1.3-2.92.3-1.18.59-2.35.88-3.53.11-.45-.59-.65-.7-.19ZM61.72 162.12c-.21.39-.35.82-.42 1.25-.02.1-.02.19.04.28.04.08.13.15.22.17.09.02.2.02.28-.04.07-.05.15-.13.17-.22.05-.3.13-.6.25-.88l-.04.09c.04-.1.09-.19.14-.29.09-.17.05-.4-.13-.5-.17-.09-.4-.05-.5.13Z"/><path class="cls-6" d="M82.4 101.72s-.01-.03-.02-.04c-.5-.86-.95-1.75-1.37-2.65-.09-.76-.23-1.51-.36-2.26-.03-.19-.27-.31-.45-.25-.2.07-.29.25-.25.45.07.37.13.74.2 1.11s.11.71.15 1.07c0 .03 0 .05.02.08 0 .03.02.07.03.1.35.77.74 1.52 1.15 2.26h-.71a.35.35 0 0 0-.22.08c-.09.07-.15.17-.15.29-.05.96-.25 1.92-.67 2.79-.16.34-.38.69-.67.89-.37.24-.8.17-1.24.11a23.5 23.5 0 0 1-1.83-.34.384.384 0 0 0-.45.25c-.05.18.06.4.25.45.02 0 .04 0 .06.01-.37.74-.8 1.45-1.29 2.12-.12.16-.03.41.13.5.18.11.38.03.5-.13.53-.74 1-1.52 1.4-2.34.32.06.65.12.98.17.59.09 1.16.19 1.71-.08.42-.21.74-.61.97-1.02.26-.47.45-.99.59-1.51.13-.49.21-1 .26-1.51h1c.19 0 .37-.17.36-.36a.35.35 0 0 0-.08-.22Z"/><path class="cls-20" d="M82.14 96.09a6.365 6.365 0 0 0-7.81-4.47 6.365 6.365 0 0 0-4.47 7.81c.01.05.04.08.08.1.01 0 .02.02.04.02H70.07l2.12-.57c.27.74.98 1.21 1.74 1.21h.05a23.476 23.476 0 0 0 2.98 7.41c.21.33.73.03.52-.31a22.504 22.504 0 0 1-2.56-5.81c-.13-.47-.25-.94-.35-1.41.84-.31 1.34-1.18 1.19-2.06 2.05-.55 4.11-1.1 6.16-1.66.03 0 .06-.02.08-.04.09-.03.15-.13.12-.22Z"/><path class="cls-19" d="M61.99 174.85c-.05-.75-.25-1.48-.61-2.14l.3-.24c.15-.12.13-.39 0-.51-.15-.15-.36-.12-.51 0l-.18.15c-.07-.09-.14-.18-.22-.26-.75-.82-1.8-1.3-2.89-1.44-1.07-.14-2.21.07-3.15.61-.47.27-.86.61-1.16 1.06-.35.53-.58 1.14-.73 1.75-.08.34-.14.69-.16 1.04v.07c-.05.56 0 1.12.13 1.67.11.43.28.86.51 1.26-1.05.76-2.11 1.5-3.18 2.24-.89.62-1.79 1.22-2.7 1.81-.17.11-.23.32-.13.5.1.16.33.24.5.13 1.81-1.15 3.56-2.39 5.3-3.63.2-.15.41-.29.61-.44.31.4.67.74 1.09 1.01.53.34 1.11.47 1.73.55.31.04.62.06.92 0 .28-.05.56-.12.83-.19.56-.14 1.13-.31 1.64-.59.53-.29.94-.7 1.26-1.21.59-.94.87-2.08.8-3.19Zm-8.27 2.2c-.82-1.87-.14-4.16 1.52-5.36.21-.15.43-.28.66-.39.02 0 .04-.02.05-.03.4-.12.81-.17 1.21-.18.9-.01 1.85.25 2.61.82.25.19.47.41.66.65-1.4 1.12-2.81 2.17-4.28 3.25-.74.55-1.48 1.09-2.23 1.63-.07-.13-.13-.25-.19-.38Zm7.17-.02c-.18.42-.45.88-.8 1.21s-.8.53-1.24.68c-.5.17-1.03.3-1.55.4-.19.04-.51 0-.75-.02-.22-.03-.48-.07-.72-.14-.61-.19-1.13-.61-1.53-1.11 1.61-1.16 3.2-2.33 4.77-3.53.58-.44 1.15-.89 1.72-1.34.17.33.29.69.37 1.06.19.92.1 1.92-.28 2.81Z"/><path class="cls-34" d="M52.06 187.84c-.01-.36-.23-.65-.49-.88-.26-.24-.56-.47-.83-.72-.55-.52-1.04-1.09-1.48-1.71s-.8-1.27-1.11-1.96c-.16-.35-.29-.71-.41-1.08-.13-.41-.26-.83-.26-1.26-.01-.89.5-1.74.22-2.64a.16.16 0 0 0-.07-.09c-.11-.13-.42-.16-.55-.17-.26-.01-.52.04-.75.15-.41.18-.73.52-.95.91-.95.17-2.02.35-2.88-.21-.38-.25-.61-.62-.7-1.07-.1-.5-.09-1.03-.11-1.54.06-.08.05-.23-.08-.27-.39-.12-.83-.06-1.16.18-.15.11-.28.25-.38.41a.74.74 0 0 0-.13.33c-.78.48-1.59 1.06-1.78 1.99a1.436 1.436 0 0 0-.78.52c-.07.09-.11.19-.18.27s-.17.13-.26.2-.16.15-.22.23c-.14.17-.23.38-.28.6 0 .04 0 .08.02.11v.07c.27.97 1.1 1.65 1.92 2.17.99.62 2.1 1.02 2.99 1.79.45.38.87.81 1.31 1.2.44.4.88.78 1.34 1.15.91.73 1.87 1.39 2.92 1.9 1.17.57 2.42.95 3.72 1.04.04 0 .07 0 .09-.02.04 0 .08 0 .12-.02.55-.33.98-.84 1.19-1.45.01-.04 0-.08-.01-.11Z"/><path class="cls-19" d="M109.97 168.92c-.04-2.7-.63-5.21-1.73-7.59a19.841 19.841 0 0 0-4.37-6.06 19.2 19.2 0 0 0-6.57-4.06c-2.73-.99-5.7-1.33-8.59-1.04-.71.07-1.42.18-2.12.32-.19.04-.3.27-.25.45.05.19.23.28.42.26l.1.56c-.1.09-.15.25-.12.38.05.2.25.29.45.25 2.76-.57 5.65-.48 8.36.32 2.31.69 4.48 1.88 6.3 3.45 1.91 1.65 3.43 3.71 4.46 6.01 1.03 2.3 1.49 4.63 1.46 7.05-.03 2.23-.5 4.43-1.34 6.5-.83 2.05-2.05 3.95-3.56 5.55-1.52 1.6-3.44 2.96-5.53 3.84s-4.49 1.36-6.82 1.38c-2.34.01-4.67-.42-6.84-1.3-1.08-.44-2.13-.99-3.08-1.67-.55-.39-1.07-.84-1.56-1.31 0 0-.01-.02-.02-.02-1.73-1.77-3.17-3.81-4.16-6.08-.9-2.08-1.38-4.33-1.41-6.59-.03-2.27.4-4.51 1.25-6.63.84-2.09 2.09-4.03 3.65-5.65 1.7-1.77 3.77-3.15 6.05-4.03.3-.12.61-.23.92-.33.19-.06.31-.25.25-.45-.05-.18-.26-.32-.45-.25-.03 0-.06.02-.09.03l-.09-.53c.45-.14.25-.84-.19-.7-2.58.82-4.95 2.18-6.96 3.99a19.99 19.99 0 0 0-4.46 5.86 18.958 18.958 0 0 0-1.98 7.18c-.18 2.58.18 5.19 1.02 7.63.74 2.17 1.85 4.21 3.3 6 0 .03.02.05.04.08 1.57 2.15 3.74 3.8 6.15 4.92 2.36 1.09 4.92 1.7 7.52 1.81 2.55.11 5.14-.24 7.56-1.06 2.42-.81 4.69-2.08 6.6-3.78 2.12-1.87 3.79-4.2 4.88-6.8 1.05-2.48 1.57-5.19 1.53-7.88Z"/><path class="cls-7" d="M42.47 172.55c-.11 1.23-.22 2.6-1.11 3.55-.32.34.19.86.51.51 1.03-1.11 1.2-2.63 1.32-4.07.02-.2-.18-.36-.36-.36-.21 0-.35.17-.36.36ZM46.72 172.83c-.34 1.51-.66 3.03-.97 4.55-.04.19.06.39.25.45.18.05.41-.06.45-.25.31-1.52.63-3.04.97-4.55a.384.384 0 0 0-.25-.45c-.18-.05-.41.06-.45.25Z"/><path class="cls-35" d="M95.43 148.59a.372.372 0 0 0-.17-.22c-.07-.04-.16-.06-.24-.04-1.45-.3-2.88-.45-4.39-.45s-3 .16-4.46.46c-.25-.83-.49-1.66-.74-2.5-.59-1.96-1.17-3.88-1.76-5.82-.02-.08-.05-.15-.07-.23.1-.07.21-.15.3-.23.3-.2.52-.52.42-.9-.12-.5-.69-.62-1.12-.46-.03.01-.07.03-.1.04-.62.01-1.23.29-1.78.55-.11.05-.23.11-.35.17-.28.12-.54.26-.74.49-.19.21-.31.47-.23.76.07.26.31.45.56.52.26.07.55.02.82-.02.12.4.24.8.37 1.2-.02.01-.04.03-.06.04-2.59 2.33-5.37 4.46-8.36 6.25-3.04 1.83-6.3 3.31-9.73 4.26a33.8 33.8 0 0 1-6.23 1.13c-.2.02-.36.16-.36.36 0 .18.17.38.36.36.45-.04.9-.08 1.35-.14l-.05.09c-.28.03-.55.06-.83.08-.2.02-.36.16-.36.36 0 .18.17.38.36.36 3.58-.31 7.09-1.2 10.41-2.57.96-.4 1.9-.82 2.82-1.29.18-.09.23-.34.13-.5a.353.353 0 0 0-.17-.15l.14-.33c.66-.34 1.31-.7 1.95-1.07 1.53-.89 3-1.86 4.43-2.91 1.42-1.05 2.82-2.18 4.16-3.36l.27-.24.9 2.94c-.5.38-1.02.75-1.54 1.11-.8.56-1.6 1.11-2.4 1.66-1 .68-2 1.36-3 2.03-1.13.76-2.27 1.53-3.41 2.29-1.21.81-2.41 1.62-3.62 2.42-1.21.81-2.44 1.63-3.66 2.45s-2.32 1.55-3.48 2.33c-1.04.7-2.08 1.4-3.11 2.1-.86.58-1.71 1.17-2.56 1.76-.61.42-1.21.85-1.81 1.29-.1.08-.21.15-.31.23-.16.12-.24.31-.13.5.07.13.25.21.4.17l.03.08s-.04.03-.06.04c-.16.12-.24.31-.13.5.09.15.34.25.5.13.52-.4 1.06-.78 1.6-1.16.8-.56 1.6-1.11 2.4-1.66 1-.68 2-1.36 3-2.03 1.13-.76 2.27-1.53 3.41-2.29 1.21-.81 2.41-1.62 3.62-2.42 1.22-.82 2.44-1.63 3.66-2.45 1.22-.82 2.32-1.55 3.48-2.33 1.04-.7 2.08-1.4 3.11-2.1.86-.58 1.71-1.17 2.56-1.76.61-.42 1.21-.85 1.81-1.29.03-.03.07-.05.1-.08.18.6.37 1.21.55 1.83a21.93 21.93 0 0 0-10.65 7.66c-2.8 3.76-4.29 8.23-4.29 12.94s1.5 9.27 4.35 13.02c.05.07.13.11.21.12.03 0 .06.01.09.01.09 0 .2-.03.26-.11.1-.13.22-.24.35-.34.06-.05.13-.09.19-.13.08-.05.14-.13.17-.22.01-.04.01-.08 0-.13.06-.1.05-.23-.02-.33-2.57-3.46-3.92-7.57-3.92-11.89s1.36-8.46 3.94-11.92c2.45-3.29 5.92-5.79 9.8-7.07.12.41.25.83.37 1.24.59 1.98 1.17 3.96 1.75 5.95.57 1.99 1.12 3.9 1.66 5.85.51 1.85 1.01 3.7 1.49 5.56.06.22.12.45.17.67.02.06.04.11.08.15v.01c.28.5.94.73 1.46.49.22-.1.4-.3.51-.52.12-.25.17-.53.1-.8v-.03c-.49-1.9-.99-3.79-1.5-5.69-.53-1.94-1.06-3.88-1.61-5.81-.56-1.97-1.12-3.94-1.7-5.91-.17-.59-.35-1.18-.52-1.77 2.57-.52 5.28-.53 7.85-.03.11.02.21-.02.28-.1.08-.03.17-.08.21-.16l.4-.8a.45.45 0 0 0 .04-.28Z"/><path d="M79.87 128.29a.393.393 0 0 0-.21-.14c-.2-.06-.4-.14-.6-.21a.284.284 0 0 0-.13-.04h-.09c-.17 0-.31.11-.37.27-.41.93-1.04 1.78-1.6 2.64-.02.03-.03.06-.04.09-.03.05-.04.1-.04.16 0 .09.04.19.11.26.03.02.05.04.08.06.06.03.12.05.19.05h.01c.22.03.43.08.64.15.03.01.07.01.1.01.16.04.32-.04.42-.17.6-.85 1.13-1.75 1.59-2.67.08-.15.06-.33-.07-.44Z" style="fill:#7e557c;stroke-width:0"/><path class="cls-23" d="M83.65 140.07c-.07-.18-.63-.12-1.24.12s-1.06.58-.99.76.63.12 1.24-.12c.62-.24 1.06-.58.99-.76ZM86.11 148.21c-.06-.18-.64-.15-1.29.07s-1.13.54-1.07.72.64.15 1.29-.07 1.13-.54 1.07-.72Z"/><path class="cls-15" d="M48.96 187.14c0-.11-.82-.13-1.95-.71-.57-.29-1.2-.71-1.85-1.26-.66-.54-1.34-1.2-2.13-1.85-.39-.32-.8-.63-1.21-.89-.41-.26-.81-.48-1.18-.7-.73-.43-1.32-.88-1.68-1.39-.37-.49-.51-.98-.55-1.32-.04-.34 0-.55-.06-.56-.04-.01-.17.17-.21.56-.04.39.05.99.41 1.59.35.62 1.01 1.18 1.75 1.66.37.23.75.48 1.15.73.38.25.76.54 1.14.85.76.63 1.47 1.28 2.17 1.82s1.41.95 2.04 1.21c.63.25 1.19.35 1.57.36.38 0 .59-.05.59-.09ZM68.15 171.5c-.05-.19-1.42 0-3.11 0s-3.06-.19-3.11 0c-.05.17 1.32.69 3.11.68 1.78 0 3.16-.5 3.11-.68Z"/><path class="cls-23" d="M64.06 169.56c.17.1.6-.33 1.1-.86.5-.53.9-.99.8-1.15-.1-.16-.74.08-1.3.67-.56.59-.76 1.24-.6 1.33ZM66.09 169.87c.16.11.51-.14.8-.56.29-.41.39-.84.23-.95s-.51.14-.8.56c-.29.41-.39.84-.23.95ZM47.89 182.26c-.01-.19-.41-.32-.88-.29-.47.03-.85.21-.83.4s.41.32.88.29c.47-.03.85-.21.83-.4ZM48.55 183.81c-.03-.19-.35-.29-.71-.22-.36.07-.62.27-.59.46.03.19.35.29.71.22.36-.07.62-.27.59-.46ZM56.94 103.67c-.3-.23-3.72 3.83-7.64 9.05-3.91 5.23-6.84 9.65-6.54 9.88.3.23 3.72-3.83 7.64-9.05 3.91-5.23 6.84-9.65 6.54-9.88ZM53.04 98.88c.04-.09-.05-.22-.23-.36-.17-.14-.43-.28-.64-.43-.2-.14-.38-.34-.56-.47-.17-.13-.32-.2-.4-.14-.08.05-.07.21 0 .42.08.2.22.51.56.75.33.22.63.28.85.31.22.03.38 0 .41-.09ZM73.37 117.47c.15-.09-.4-1.42-1.74-3.31-.67-.94-1.56-2.02-2.71-3.07-1.14-1.05-2.57-2.06-4.25-2.78-.85-.35-1.72-.6-2.57-.75-.85-.16-1.69-.19-2.48-.17-1.59.07-3 .45-4.07.99-1.08.54-1.83 1.17-2.26 1.67-.23.24-.35.47-.45.62-.09.15-.11.25-.08.28.08.07.37-.14.88-.5.5-.36 1.27-.81 2.28-1.18 1.01-.38 2.29-.62 3.71-.62.71.02 1.46.07 2.21.23.76.15 1.52.38 2.28.69 1.51.65 2.84 1.54 3.96 2.47 1.12.93 2.04 1.89 2.78 2.72 1.48 1.68 2.32 2.82 2.5 2.71Z"/><path class="cls-23" d="M67.07 111.31s.06-.05.1-.16c.03-.11.11-.27.12-.49.07-.44.04-1.12-.31-1.85-.34-.73-.96-1.5-1.83-2.1-.43-.31-.92-.57-1.45-.78-.26-.11-.55-.19-.83-.28-.29-.06-.59-.13-.88-.16-1.19-.16-2.34-.08-3.35.09-1.01.16-1.9.42-2.63.64-1.46.47-2.32.86-2.29.94.03.1.95-.13 2.42-.47.74-.17 1.61-.36 2.59-.49.98-.13 2.06-.18 3.17-.03 2.21.28 3.97 1.61 4.65 2.86.36.62.46 1.21.48 1.62.03.21 0 .36 0 .48 0 .11.02.18.04.18ZM59.45 117.79c-.04-.1-.73.1-1.85.3-.56.1-1.23.19-1.98.24-.75.04-1.57.05-2.44-.01-.86-.07-1.68-.21-2.41-.37-.73-.17-1.38-.36-1.92-.55-1.08-.37-1.73-.68-1.78-.58-.04.07.53.53 1.6 1.03.53.25 1.2.5 1.95.71.76.2 1.61.36 2.51.44.9.07 1.77.04 2.55-.04.78-.09 1.47-.23 2.04-.4 1.14-.33 1.77-.7 1.74-.77Z"/><path class="cls-23" d="M58.69 115.33c-.17.07-.07.8.33 1.91.41 1.1 1.15 2.57 2.22 4.02 1.07 1.45 2.24 2.59 3.18 3.31.93.72 1.61 1.03 1.72.89.25-.31-1.78-2.25-3.79-5.01-2.03-2.74-3.29-5.25-3.66-5.11Z"/><path class="cls-23" d="M60.7 120.04c-.04-.1-.87.21-2.24.47-.68.14-1.52.22-2.44.29-.92.04-1.94.03-3.01-.06-1.07-.09-2.07-.25-2.99-.42-.91-.19-1.73-.37-2.4-.57-1.36-.38-2.19-.68-2.23-.58-.04.08.73.54 2.08 1.04.67.26 1.5.5 2.42.73.93.21 1.97.39 3.06.48 1.1.09 2.15.08 3.11 0 .95-.1 1.81-.24 2.5-.45 1.4-.39 2.17-.87 2.13-.94ZM53.81 133.87c-.38 0-.71 2.82-.74 6.3-.03 3.48.26 6.31.63 6.31.38 0 .71-2.82.74-6.3s-.26-6.31-.63-6.31Z"/></g></svg>