<svg xmlns="http://www.w3.org/2000/svg" viewBox="0 0 200 200"><defs><style>.cls-1{fill:none}.cls-2{fill:#f96800}.cls-3{fill:#f6c243}.cls-4{fill:#f75e28}.cls-5{fill:#fff}.cls-6{fill:#ffe1a6}.cls-9{fill:#ff8000}.cls-11{fill:#b78049}.cls-12{fill:#bf9dd6}.cls-14{fill:#cc5e05}.cls-15{fill:#5b3d5b}.cls-16{fill:#78577a}</style></defs><path d="M174.22 54.53C102.93-61.52-42.72 71.09 30.81 166.2c68.88 77.43 189.01-24.12 143.4-111.67Z" style="fill:#efedea" id="BG_Strong"/><g id="Illustrations"><g id="Layer_7"><path class="cls-4" d="M41.27 53.99c-.11-.27-.38-.48-.75-.37-3.42 1.03-6.83 2.07-10.24 3.13.02-3.32.14-6.64-.13-9.95-.15-1.84-.41-3.68-.83-5.48-.37-1.6-.95-3.26-2.28-4.31-.65-.52-1.41-.9-2.25-1.02-.88-.12-1.73.04-2.54.39-1.38.6-2.64 1.8-3.27 3.17-.74 1.6-1.15 3.4-1.42 5.13-.28 1.74-.41 3.57-.48 5.37-.12 3.38-.13 6.76-.19 10.14 0 .3 0 .6-.01.89-1.3.43-2.6.86-3.9 1.3-2.91.98-5.81 1.96-8.72 2.95-.34.11-.56.45-.46.81.09.33.47.57.81.46.46-.16.92-.31 1.38-.47l10.89 1.16s22.16-8.4 23.91-9.08c1.75-.68 9.62-3.72 9.62-3.72l-9.14-.51Zm-22.64-2.17c.07-3.36.21-6.67 1.18-9.89.12-.41.26-.82.41-1.22.03-.09.07-.18.11-.28v-.02c.01-.02.02-.05.03-.07.08-.16.16-.32.25-.47.2-.32.31-.48.52-.72a6.051 6.051 0 0 1 .9-.83c.08-.06.16-.11.25-.17.15-.1.31-.19.48-.27.07-.03.13-.06.2-.1.01 0 .12-.05.14-.05.18-.06.36-.12.55-.16.23-.05.56-.08.83-.05.07 0 .33.06.47.11.08.02.16.05.24.08 0 0 .04.01.06.02.02.01.09.04.1.05.15.07.29.16.43.25.19.12.21.14.37.28.12.11.24.22.35.35.02.03.09.11.11.13.02.02.05.06.05.06.04.05.07.1.11.15.44.66.66 1.29.88 2.07.44 1.63.71 3.29.87 4.94.33 3.38.22 6.78.2 10.16v1.07c-.83.26-1.67.52-2.5.79-2.57.82-5.13 1.66-7.7 2.5.05-2.91.09-5.82.14-8.73Z"/><path class="cls-14" d="M50.81 53.69c-3.37.14-6.76.3-10.12-.09-.35-.04-.66.33-.66.66V54.38l-.3 3.83c-.03.34.32.67.66.66.32-.01.55-.21.63-.5 1.72-.68 6.4-2.54 6.49-2.69.05-.07.51-.32 1.03-.59L50.8 55c.35-.02.66-.29.66-.66 0-.34-.3-.67-.66-.66Z"/><path class="cls-4" d="M192.01 58.47c-3.96-.72-7.92-1.44-11.88-2.17 0-3.1-.15-6.19-.36-9.28-.11-1.57-.18-3.14-.36-4.7s-.44-3.14-1-4.6c-.45-1.2-1.13-2.53-2.32-3.14-1.4-.71-3.17-.29-4.38.61s-1.89 2.08-2.4 3.41c-.55 1.43-.91 2.94-1.17 4.45-.62 3.6-.64 7.26-.81 10.89l-2.59-.48c-2.54-.47-5.07-.94-7.61-1.4-.35-.06-.71.1-.81.46a.61.61 0 0 0-.01.27l-6.12.48 7.01 1.7 24.78 6.05 7.67-1.64c.67.12 1.35.25 2.02.37.35.06.71-.09.81-.46.09-.32-.11-.74-.46-.81Zm-22.54-13.72c.19-1.46.49-3 .93-4.44.09-.29.18-.57.28-.85a8.623 8.623 0 0 1 .72-1.59l.21-.33c.04-.06.09-.13.14-.19.06-.08.06-.08.02-.03.03-.04.07-.08.1-.12.19-.22.4-.42.62-.62.02-.02.04-.03.05-.04.01 0 .03-.02.05-.03.07-.05.14-.09.2-.14.14-.09.29-.18.45-.25.47-.23 1.18-.37 1.65-.28.12.02.24.05.35.1.02.01.1.05.11.05.06.03.12.07.17.11.02.01.04.03.06.04l.1.09c.12.11.23.24.35.36l.03.03c.04.05.08.11.12.16.09.12.17.25.24.38.06.11.12.22.18.34.03.07.07.14.1.21 0 .02.08.17.09.2.53 1.27.81 2.73.99 4.03.2 1.47.27 2.96.37 4.44.22 3.21.38 6.43.4 9.65a4.57 4.57 0 0 1-.36-.07c-3.09-.57-6.19-1.14-9.28-1.72.16-3.16.17-6.33.57-9.48Z"/><path class="cls-14" d="M157.6 52.68c0-.09-.03-.19-.07-.28a.419.419 0 0 0-.11-.16c-.12-.14-.29-.24-.48-.22-2.42.25-4.85.5-7.28.62-.35.02-.66.29-.66.66 0 .34.3.68.66.66.86-.04 1.71-.1 2.57-.17l4.37 1.09c.03.07.07.14.13.2.11.11.3.2.46.19.16 0 .35-.06.46-.19.11-.12.21-.3.19-.46-.08-.64-.16-1.29-.25-1.93Z"/><path class="cls-15" d="M104.73 133.51c6.59-.43 13.18-.86 19.76-1.51 1.84-.18 3.67-.38 5.5-.59.35-.04.66-.27.66-.66 0-.32-.3-.7-.66-.66-6.56.77-13.15 1.29-19.74 1.74-1.84.12-3.68.25-5.52.36-.35.02-.66.29-.66.66 0 .34.3.68.66.66Z"/><path class="cls-15" d="M94.6 119.55c2.33 3.72 4.8 7.36 7.43 10.87.73.98 1.48 1.95 2.24 2.9.22.28.7.23.93 0 .27-.27.22-.65 0-.93-2.7-3.37-5.18-6.91-7.55-10.52-.65-.99-1.29-1.98-1.92-2.98-.45-.72-1.59-.06-1.14.66ZM129.15 120.79c5.42 2.13 10.87 4.17 16.37 6.08 1.55.54 3.11 1.06 4.66 1.58.34.11.72-.13.81-.46.1-.36-.12-.7-.46-.81a374.97 374.97 0 0 1-16.38-5.86c-1.55-.59-3.1-1.19-4.65-1.8-.33-.13-.72.14-.81.46-.1.37.13.68.46.81Z"/><path class="cls-3" d="M182.96 60.26c-3.53-.86-7.07-1.7-10.61-2.52 0-3.05-.14-6.1-.33-9.15-.19-3.09-.24-6.31-1.24-9.27-.41-1.2-1.02-2.5-2.13-3.2-1.39-.87-3.2-.32-4.4.62-1.08.85-1.73 2.1-2.18 3.37-.52 1.43-.85 2.93-1.09 4.43-.56 3.45-.6 6.94-.74 10.42l-3.21-.72c-2.4-.53-4.79-1.06-7.19-1.58h-.06c-.38-.13-.9.07-.91.6-.06 1.95-.07 3.9-.12 5.84-.02.78 1.09.84 1.28.19l13.15 4.56 3.58 55.33c-.08.08-.14.17-.17.28-.09.33.11.73.46.81 3.51.76 7.02 1.48 10.53 2.17 1.01.2 2.02.39 3.03.58.35.07.71-.1.81-.46.04-.14.02-.3-.04-.45l-.12-33.86 1.48-26.71c.72.04.99-1.1.21-1.29Zm-21.15-4.94c.13-2.99.16-5.99.51-8.96.17-1.48.45-3.01.86-4.48.17-.61.36-1.21.59-1.79 0-.02.01-.04.02-.05 0-.01.01-.03.03-.05.03-.07.07-.14.1-.22.06-.13.13-.26.2-.39.14-.25.3-.5.47-.74.02-.03.09-.11.1-.11.05-.06.11-.12.16-.18.1-.11.21-.21.32-.3.18-.15.4-.31.7-.46.5-.26 1.14-.38 1.65-.24.04.01.08.02.11.04.01 0 .1.04.12.05.06.03.11.07.17.1.01 0 .02 0 .02.01.1.08.19.17.28.26.05.05.09.11.14.16.01.02.02.03.03.03a6.947 6.947 0 0 1 .47.77c.06.12.12.25.18.38 0 .02.01.03.02.04 0 .01.01.03.02.06.03.07.06.14.08.22 1.01 2.71 1.06 5.61 1.24 8.48.2 3.14.35 6.28.37 9.43l-.76-.18c-2.73-.63-5.46-1.25-8.19-1.87Z"/><path class="cls-9" d="M198.18 119.1c.2-.11.36-.33.34-.57-.55-7.73-1.18-15.46-1.91-23.18-.72-7.66-1.53-15.31-2.42-22.96-.51-4.34-1.04-8.68-1.59-13.02v-.01c0-.08 0-.16-.02-.24-.1-.36-.46-.54-.81-.46-2.97.67-5.97 1.22-9 1.57-.35.04-.66.27-.66.66v.09l-.15.03-.06 6.07c-.21 5.96-.43 11.93-.63 17.89-.26 7.97-.49 15.95-.57 23.93-.05 4.49-.05 8.98.01 13.46 0 .18.07.32.16.42.16.2.43.27.7.23 4.34-.65 8.66-1.5 12.89-2.72 1.2-.35 2.39-.72 3.57-1.13.02 0 .04-.02.06-.03.01 0 .02 0 .03-.01.02 0 .03-.02.05-.03Z"/><path class="cls-4" d="M163.36 63.22c-3.66-1.24-7.33-2.46-11-3.66-.24-3.57-.54-7.14-.78-10.71-.18-2.66-.36-5.37-1.03-7.97-.29-1.15-.7-2.31-1.44-3.24-.72-.9-1.83-1.28-2.95-.97-1.34.37-2.09 1.62-2.52 2.85-.44 1.23-.64 2.68-.83 4.03-.56 4-.71 8.04-.68 12.07v.65c-.73-.23-1.47-.46-2.21-.7-2.05-.65-4.11-1.29-6.16-1.92-.49-.15-.81.25-.81.65-2.14.08-9.04.36-9.2.76l2.63 1.11 24.34 9.09 10.6-1.35 1.68.57c.34.11.72-.13.81-.46.1-.36-.12-.69-.46-.81Zm-15.75-24.84c-.01 0-.02-.02-.04-.03.01 0 .02.02.03.03Zm-3.47 7.23c.16-1.49.35-2.98.69-4.46.07-.29.14-.58.23-.87.04-.13.08-.26.13-.38.02-.07.05-.14.08-.2 0-.01.01-.03.02-.04 0-.02.02-.04.02-.05.12-.25.25-.49.4-.72.05-.07.13-.16.03-.04.04-.05.08-.1.13-.15.08-.09.17-.17.26-.25.01 0 .03-.02.05-.03.05-.03.11-.07.16-.1.09-.05.17-.07.03-.02.07-.02.14-.05.21-.07.06-.02.13-.03.19-.04h.06c.1 0 .26.03.36.01.04 0 .08.02.11.03.01 0 .04.01.06.02.02.01.04.02.05.03.03.01.17.12.21.13.04.03.07.07.11.1.07.07.13.14.2.22.03.05.07.09.1.14.14.2.25.42.36.64.02.05.05.1.07.15.01.02.09.22.05.11s.03.09.05.11c.03.07.06.14.08.22.1.27.18.54.26.81.17.6.31 1.21.42 1.83.06.32.11.63.16.95.02.16.05.32.07.48 0 .05.03.26.01.1l.03.28c.15 1.21.25 2.43.34 3.64.24 3.5.52 7 .77 10.5 0 .12.02.24.02.36-2.39-.77-4.69-1.51-6.99-2.24-.05-3.73 0-7.47.41-11.18Z"/><path class="cls-14" d="M134.25 54.29c-.03-.34-.28-.67-.66-.66-.06 0-.12.02-.18.04-.05-.01-.1-.02-.16-.02-3.3.19-6.6.51-9.9.61-.85.02-.85 1.34 0 1.31.63-.02 1.26-.04 1.88-.08l8.04 3.04v.01c.03.34.28.67.66.66.33-.02.69-.29.66-.66-.11-1.42-.22-2.84-.34-4.27Z"/><path class="cls-3" d="M139.62 44.59s.01.07 0 0ZM137.99 39.52s-.01 0-.02-.01c-.01 0-.03-.01-.04-.02h-.03c-.01 0 .02.03.09.04Z"/><path class="cls-3" d="M151.46 64.49c-3.07-1.16-6.14-2.29-9.22-3.4-.2-3.79-.38-7.58-.59-11.36-.14-2.63-.32-5.3-.91-7.88-.23-.99-.52-2.07-1.12-2.91-.3-.42-.66-.75-1.15-.94-.54-.21-1.15-.12-1.66.11-1.12.52-1.57 1.92-1.82 3.03-.32 1.45-.46 2.95-.62 4.42a74.77 74.77 0 0 0-.34 11.97c.01.21.03.41.04.62-1.45-.52-2.89-1.04-4.34-1.57-2.08-.75-4.15-1.52-6.22-2.29-.33-.12-.72.14-.81.46a.6.6 0 0 0 .02.4c-.01 3.23-.01 6.46-.01 9.69v2.46c0 .43.36.64.7.62.43 2.99 2.87 19.97 3.3 23.48.48 3.85 2.61 28.76 2.61 28.76l21.03 7.66s.18-20.01.18-20.33c0-.29.62-35.48.73-41.7.29.01.58-.22.65-.49.1-.37-.12-.68-.46-.81Zm-12.77-23.94c-.02-.05-.02-.04 0 0Zm-.91-1.08h-.04.04Zm-2 8.08c.08-.96.18-1.92.29-2.88l.15-1.15c.02-.13.03-.26.05-.39 0-.04.01-.08.02-.12 0 0-.02.15 0 .05l.03-.22c.09-.6.19-1.19.35-1.77l.12-.39c.02-.07.05-.14.07-.2.01-.03.02-.06.03-.08.06-.11.11-.22.17-.33.03-.05.06-.09.08-.14.03-.05.09-.11.08-.11.06-.06.11-.12.17-.18.05-.03.09-.06.14-.09.05-.01.09-.03.14-.04H137.89s.03 0 .07.02c.02 0 .04.02.05.01h-.02c.02.01.03.02.05.03.05.05.11.09.15.15.02.03.05.05.07.08.05.08.11.16.16.25.1.17.18.35.26.52 0 .02.02.04.03.06l.06.15c.05.13.09.26.13.39.08.25.15.51.22.76.15.58.26 1.17.36 1.75.05.3.09.61.14.92v-.03c0 .05.01.09.02.14 0 .07.02.14.03.21l.06.49c.14 1.25.23 2.51.31 3.77.21 3.61.38 7.22.57 10.83l.03.49c-1.63-.59-3.27-1.18-4.91-1.77-.25-3.72-.23-7.46.07-11.18Z"/><path class="cls-9" d="M166.25 101.2c-.47-7.95-.9-15.91-1.42-23.86-.29-4.5-.62-9-.99-13.49v-.04c0-.05 0-.09-.02-.13a.647.647 0 0 0-.23-.34.609.609 0 0 0-.4-.14c-.05 0-.11.01-.16.02h-.02c-3.79.53-7.6.97-11.42 1.26-.05 0-.1.01-.14.03-.37-.08-.81.13-.81.62-.04 8.18-.17 16.36-.31 24.54-.14 8.15-.31 16.3-.42 24.45-.06 4.56-.11 9.13-.14 13.69 0 .23.1.39.23.5.12.11.26.17.42.16 4.46-.45 8.91-1 13.31-1.86 1.21-.24 2.42-.5 3.62-.79.02 0 .03 0 .05-.01.22-.06.36-.19.42-.35.04-.09.07-.18.06-.28-.66-7.98-1.17-15.97-1.64-23.96Z"/><path class="cls-4" d="M123.83 66.83c-2.08-1.69-4.13-3.41-6.21-5.1 0-.04.01-.08 0-.13l-.52-9.19-.26-4.6c-.08-1.48-.13-2.97-.3-4.44-.09-.77-.2-1.54-.39-2.29-.15-.62-.33-1.26-.7-1.78-.39-.57-.98-1.05-1.71-1.01-.68.03-1.24.46-1.53 1.05-.29.6-.37 1.31-.45 1.98-.09.73-.16 1.47-.22 2.2-.12 1.51-.17 3.02-.17 4.53 0 3.03.18 6.06.39 9.09-1.2-.89-2.41-1.77-3.64-2.64-.29-.2-.73-.05-.9.24-.06.11-.09.22-.09.33l-11.51.05 9.82 13.5s8.59-.04 10.18-.21c1.26-.14 5.35-.66 6.99-.87.08.07.17.14.25.21.28.22.66.27.93 0 .23-.23.28-.71 0-.93Zm-10.44-25.71c.03-.23.06-.46.12-.69.03-.1.06-.21.1-.31 0 0 0-.01.02-.03.02-.04.04-.07.07-.11 0 0 .04-.05.07-.08 0 0 .01 0 .02-.01-.03.02-.05.04 0 0 .09.06.05.03.02 0h-.02.01s-.01-.01-.02-.01c.03-.02.02-.01 0 0 0 0 .02.01.02.02.1 0 .05 0 0 0 0 0 .01 0 .02.01.02.02.05.03.07.05 0 .01.1.1.12.12.01.01.05.06.06.08.03.04.05.08.08.12.05.09.1.17.14.26 0 .02.05.13.05.13.02.05.04.11.05.17.06.19.11.39.17.58.16.62.28 1.28.35 1.87.17 1.4.22 2.81.29 4.22l.24 4.33.48 8.57c-.84-.67-1.68-1.34-2.53-1.99v-.11c-.39-5.71-.79-11.48-.05-17.18ZM113.85 39.88h-.01.01zM113.82 39.86z"/><path class="cls-14" d="m108.49 55.13-.03-.09c-.02-.33-.31-.65-.65-.63-4.12.25-8.26.35-12.38 0-.35-.03-.66.32-.66.66 0 .38.3.63.66.66l.81.06 9.23 12.84 3.63-.07c.08.29.29.52.63.52.32 0 .7-.3.66-.66-.59-4.44-1.22-8.87-1.89-13.29Z"/><path class="cls-3" d="M106.04 68.3c-.63-.91-1.27-1.82-1.92-2.72a.69.69 0 0 0 .04-.25l-.08-9.74c-.03-3.16 0-6.33-.09-9.49-.05-1.52-.18-3.06-.63-4.51-.21-.7-.48-1.47-1.16-1.85-.4-.22-.88-.22-1.28 0-.37.2-.63.58-.86.91-.77 1.11-1.12 2.46-1.31 3.78-.22 1.53-.33 3.07-.41 4.61-.15 2.91-.13 5.82.07 8.73-.74-.99-1.48-1.98-2.21-2.98-.18-.24-.47-.38-.76-.3-.36-.05-.75.16-.74.63.17 8.36.26 16.72.27 25.07.02 8.32-.05 16.63-.18 24.94-.08 4.69-.18 9.38-.3 14.07-.02.6.64.77 1.03.52l9.2 13.11s.5-18.75.6-20.64c.1-1.75.13-37.62.13-42.93.11 0 .22-.02.33-.08.29-.17.44-.61.24-.9Zm-6.16-17.55c.05-1.52.14-3.04.28-4.56.11-1.24.23-2.41.7-3.63.14-.36.44-.92.71-1.26 0 0 .01.02.02.03 0 0 .07.16.07.14.07.17.12.34.17.51.42 1.34.53 2.64.58 4.04.1 3 .06 6 .09 9 .02 2.8.04 5.6.07 8.4-.8-1.1-1.6-2.2-2.4-3.29.02-.08.04-.16.03-.24-.29-3.03-.39-6.08-.3-9.12ZM51.47 54.35c0-.06 0-.12-.02-.18-.09-.32-.47-.58-.81-.46-4.2 1.57-8.39 3.17-12.57 4.8.01-3.47.15-6.95-.15-10.42a35.09 35.09 0 0 0-.91-5.58c-.43-1.7-1.2-3.34-2.75-4.28-.73-.45-1.61-.71-2.48-.66s-1.65.33-2.37.76c-.72.43-1.34.98-1.85 1.62-.54.68-.89 1.4-1.18 2.21-1.25 3.48-1.46 7.23-1.55 10.9-.07 3.19-.1 6.37-.15 9.56 0 .35-.01.7-.02 1.05v.08c-.05.02-.09.04-.14.06-2.48.96-4.96 1.92-7.44 2.86-.33.12-.56.44-.46.81.07.27.36.5.65.49l1.03 41.11.44 20.94c-.05.02-.11.04-.16.06-.34.12-.56.45-.46.81.09.32.47.58.81.46 3.51-1.23 7-2.49 10.48-3.78 3.46-1.29 6.92-2.61 10.36-3.96 1.95-.77 3.89-1.54 5.83-2.33.33-.13.56-.44.46-.81a.729.729 0 0 0-.41-.45c-.08-2.19-.67-18.11-.23-22.29.47-4.49 1.13-28.8 1.13-28.8l3.85-3.35c.32.46 1.22.35 1.2-.35-.09-3.61-.02-7.23-.14-10.85Zm-25.07.44c.06-3.43.1-6.86.92-10.18.21-.87.51-1.7.8-2.54v-.02c.01-.02.02-.05.03-.07.03-.07.06-.14.1-.2.08-.16.18-.32.28-.47.2-.29.34-.47.63-.76.13-.13.26-.26.4-.37.04-.03.15-.13.15-.12 0 0 .14-.1.19-.14.15-.1.31-.2.47-.29.09-.05.17-.09.26-.14.04-.02.08-.04.11-.05.01 0 .02 0 .03-.01h.01c.17-.06.33-.12.51-.17.08-.02.16-.04.24-.05.04 0 .08-.02.12-.02H32.29c.03 0 .06 0 .09.02.1.02.19.04.28.07.08.02.16.05.24.08.04.02.09.03.14.05h.02c.18.08.35.18.51.28.07.05.14.09.2.14.07.05.02.01 0 0 .03.03.06.05.09.08.14.12.28.26.41.4.02.02.1.12.12.14l.15.21c.12.18.23.36.33.55.17.33.27.61.4.99.52 1.64.8 3.4.98 5.06.38 3.51.26 7.04.24 10.56v1.32c-3.4 1.33-6.8 2.67-10.21 4 .05-2.78.08-5.56.13-8.34Z"/><path class="cls-9" d="M19.52 130.46c-.16-4.07-.29-8.15-.4-12.22-.11-4.06-.2-8.12-.29-12.18l-.24-12.15c-.08-4.12-.17-8.25-.26-12.37-.1-4.2-.22-8.41-.35-12.61l-.06-1.64c0-.37-.3-.64-.66-.66-4.17-.23-8.34-.59-12.49-1.08h-.06a.592.592 0 0 0-.29-.07c-.38 0-.63.3-.66.66-.66 8.13-1.21 16.27-1.65 24.41-.43 8.1-.76 16.21-.97 24.33-.12 4.55-.2 9.11-.25 13.66 0 .18.06.32.15.43 0 0 0 .01.01.02l.02.02c.08.09.18.15.29.17 4.5.75 9.01 1.42 13.55 1.86 1.28.12 2.55.23 3.83.31.29.02.54-.21.63-.47.08-.1.14-.24.13-.41ZM128.81 105.91c-.77-8.23-1.69-16.44-2.77-24.63-.61-4.65-1.27-9.3-1.98-13.93-.03-.2-.18-.34-.36-.42a.794.794 0 0 0-.53-.09 78.178 78.178 0 0 1-17.33 1.06.62.62 0 0 0-.35.1c-.18.1-.32.28-.31.55.17 8.33.14 16.65.01 24.98-.13 8.32-.36 16.64-.6 24.96-.14 4.67-.27 9.35-.4 14.02-.02.74.97.83 1.24.29l23.9-1.99c.1.79 1.35.78 1.31-.05-.46-8.29-1.07-16.58-1.85-24.85Z"/><path class="cls-4" d="M65.48 54.74c0-.12-.02-.24-.08-.36-.17-.28-.61-.44-.9-.24-1.71 1.22-3.4 2.47-5.09 3.72.17-2.71.26-5.43.26-8.15 0-1.61-.03-3.22-.08-4.83-.04-1.22-.09-2.46-.38-3.66-.14-.57-.41-1.12-.79-1.57-.51-.59-1.28-.81-2.03-.62-1.46.36-2.2 2.03-2.61 3.32-.46 1.45-.6 3-.68 4.51-.1 1.69-.17 3.38-.25 5.06-.16 3.74-.27 7.48-.34 11.22a412.77 412.77 0 0 0-6.42 5.12c-.28.22-.23.7 0 .93.27.27.65.23.93 0 .24-.19.48-.38.71-.57 4.75.96 17.94.69 17.94.69l9.84-14.18-10.04-.4Zm-11.11-1.1c.06-1.61.13-3.21.21-4.82.07-1.42.11-2.97.32-4.31.11-.71.28-1.42.52-2.1a5.634 5.634 0 0 1 .57-1.17c.04-.06.07-.11.11-.16.03-.05.03-.04 0 0 .03-.04.07-.08.1-.12.05-.06.11-.11.17-.17 0 0 .08-.06.11-.09.04-.02.11-.07.1-.06.01 0 .11-.05.13-.06.04-.01.08-.03.13-.04h.05c.03 0 .17.03.14.02.01 0 .02 0 .04.01.01 0 .04.02.06.03.04.04.08.08.12.11.01.01.02.02.03.02l.02.04c.03.04.05.08.08.12.05.09.13.2.18.31v.04c.02.07.05.14.07.21.07.23.12.47.16.71l.06.36s0 .08.02.12c0 .07.02.14.03.22.06.53.09 1.06.1 1.59.05 1.55.08 3.1.09 4.65.01 3.34-.1 6.68-.34 10.02-1.21.91-2.41 1.83-3.61 2.76.06-2.75.14-5.5.24-8.25Z"/><path class="cls-14" d="M75.52 54.47c-3.57.15-7.13-.08-10.69-.42-.35-.03-.66.33-.66.66 0 .05 0 .1.02.15-.23 3.71-.43 7.43-.59 11.15-.05 1.07-.09 2.14-.13 3.21-.01.35.31.66.66.66.23 0 .43-.12.55-.3h.18l1.42-1.49 8.53-12.27c.24 0 .48-.01.72-.02.35-.02.66-.29.66-.66 0-.34-.3-.67-.66-.66Z"/><path class="cls-9" d="M67.49 133.25c-.16-8.32-.43-16.63-.74-24.95-.29-7.98-.61-15.96-.87-23.95-.11-7.97-.2-15.04-.2-15.04-.06 0-.13.01-.2.02 0-.03-.02-.06-.03-.09a.467.467 0 0 0-.05-.1.304.304 0 0 0-.05-.07.608.608 0 0 0-.51-.25c-4.77.23-9.56.09-14.32-.32-1.32-.11-2.64-.25-3.95-.41-.35-.04-.66.33-.66.66v.09c0 .03-.01.06-.01.09-.52 8.3-.86 16.61-1.02 24.92-.16 8.2-.14 16.41.07 24.61.11 4.7.29 9.4.51 14.1.02.35.25.55.52.61.12.13.3.21.49.23 5.21.48 10.44.72 15.67.71 1.49 0 2.99-.03 4.48-.07.18 0 .32-.07.43-.17.24-.07.44-.27.43-.6Z"/><path class="cls-3" d="M65.3 69.35v-.01.01zM77.61 119.68v-.1c-.16-8.41-.35-16.81-.55-25.22-.2-8.36-.41-16.72-.59-25.07-.1-4.69-.2-9.37-.29-14.06 0-.07 0-.14-.02-.21a.644.644 0 0 0-.15-.31.752.752 0 0 0-.16-.15c-.2-.12-.4-.11-.58-.03-.01 0-.02 0-.03.01-.14.05-.25.15-.32.29-.64.85-1.28 1.71-1.92 2.57-.01-2.23-.02-4.46-.08-6.69-.04-1.43-.1-2.87-.2-4.3-.05-.75-.11-1.51-.18-2.26s-.07-1.58-.29-2.32c-.18-.62-.52-1.23-1.09-1.58-.68-.41-1.5-.28-2.09.21-.59.49-.85 1.19-1.04 1.88-.22.77-.31 1.58-.41 2.37-.41 3.3-.68 6.61-.8 9.93-.14 3.71-.1 7.42.11 11.13 0 .04 0 .08.01.11-.71 1.05-1.41 2.11-2.1 3.17-.19.3-.06.73.24.9.08.05.16.07.24.08l1.25 49.16.54 12.65-.74.92c-.22.28-.27.66 0 .93.23.23.71.28.93 0 2.77-3.42 5.49-6.87 7.99-10.48.73-1.06 1.45-2.12 2.15-3.2.09-.09.15-.2.16-.35Zm-8.65-72.74c.16-1.5.23-3.01.69-4.45.02-.06.05-.12.06-.19 0-.02.01-.03.01-.05 0-.01.01-.02.02-.04.06-.12.12-.22.18-.34.01-.02.02-.04.03-.05l.03-.03c.05-.05.1-.11.15-.15-.05.05-.03.07 0 0 .02-.01.04-.02.05-.03h.11c-.04 0-.1 0 0 0l.04.02h.01c.01.02.04.05.07.07.02.02.06.08.08.09.03.05.06.1.08.15.01.03.03.05.04.08v.02c.04.11.08.22.1.34.02.07.03.14.04.21V42.68c.03.38.08.77.11 1.15a111.376 111.376 0 0 1 .39 6.33c.1 3.11.08 6.21.11 9.32v.05c-1.01 1.39-2.01 2.79-3 4.2-.22-5.6-.06-11.22.53-16.8Z"/></g><g id="Layer_9"><path class="cls-1" d="M177.91 97.25c-.02-.24-.06-.34-.06-.34-.1-.29-.35-.55-.64-.62a.538.538 0 0 0-.4.04s-.08.03-.2.14c0 0-4.19 3.55-4.9 17.01 0 0-.02.19.03.37.08.3.29.58.64.74l2.22.88c.2.08.35.27.35.48 0 0-.07 2.21-.42 6.11 1.05.2 2.23.43 3.28.63.05-1.13.19-4.28.29-8.1.15-5.66.23-12.93-.19-17.33ZM168.29 109.98v-.16c-.22-4.64-.37-9.92-.19-14.01v-.05c-.01-.38-.31-.76-.67-.84-.34-.08-.61.14-.63.49-.12 2.8-.09 6.16 0 9.5 0 .26-.1.46-.27.56.1 1.33.29 4.19.48 7.06.79-.48 1.29-1.39 1.28-2.56ZM167.67 79.53c.45-.21 1-.26 1.59-.11.59.15 1.14.48 1.61.92 2.43 2.19 4.64 4.53 6.6 6.87s.02.02.03.02c.02 0 .04 0 .04-.03l-.02-1.19c0-.4.3-.65.67-.55.03 0 .06.02.09.03l2.99 1.13.08-3-16.59-8.22s.2 2.97.35 5.35c.82-.43 1.68-.83 2.57-1.2Z"/><path class="cls-6" d="M178.19 85.44c-.38-.09-.68.15-.67.55l.02 1.19s-.02.04-.04.03c-.01 0-.02 0-.03-.02-1.96-2.34-4.16-4.68-6.6-6.87-.46-.44-1.01-.77-1.61-.92-.59-.15-1.14-.1-1.59.11-.89.36-1.75.77-2.57 1.2.09 1.43.18 2.64.2 2.87.05.6 1.05 19.66 1.18 21.24.01.13.03.35.05.64.17-.11.28-.31.27-.56-.1-3.34-.13-6.7 0-9.5.02-.35.29-.57.63-.49.36.08.66.46.67.84v.05c-.17 4.09-.03 9.36.19 14.01V109.97c.02 1.17-.48 2.08-1.28 2.56l.52 7.99s2.37.6 4.44 1.03c.57.12 1.5.3 2.56.5.35-3.89.42-6.11.42-6.11 0-.21-.15-.4-.35-.48l-2.22-.88a1.09 1.09 0 0 1-.64-.74c-.05-.18-.03-.37-.03-.37.71-13.47 4.9-17.01 4.9-17.01.12-.1.2-.14.2-.14.11-.06.25-.08.4-.04.29.07.54.32.64.62 0 0 .04.1.06.34.42 4.4.34 11.67.19 17.33-.1 3.82-.24 6.97-.29 8.1l3.16.6c-.38-.16-.28-1.1-.34-1.65s0-8.83 0-8.83c.04-3.54.45-19.49.62-26.2l-2.99-1.13-.09-.03Z"/><path class="cls-1" d="m136.94 97.41-.09-.03c.19.15.37.29.55.43a1 1 0 0 0-.46-.41ZM137.02 81.09c.43-.17.95-.16 1.52.06.57.23 1.09.64 1.54 1.16 2.35 2.6 4.47 5.35 6.37 8.06s.02.02.03.02c.02 0 .04 0 .04-.03l-.03-1.27c0-.43.28-.65.64-.51.03.01.06.02.08.04l3.08 1.66c.07-5.02.14-10.49.14-10.49l-24.54-.16 1 7.81c2.59-2.5 5.98-4.96 10.15-6.36ZM146.98 101.09c-.02-.26-.06-.37-.06-.37-.1-.32-.34-.62-.62-.73-.14-.06-.27-.06-.38 0 0 0-.08.03-.19.12 0 0-1.35 1.12-2.58 4.87 1.47 2.94 3.03 6.53 4.24 9.46 0-4.82-.08-9.89-.41-13.34Z"/><path class="cls-6" d="M147.12 88.58c-.36-.14-.65.08-.64.51l.03 1.27s-.02.04-.04.03c-.01 0-.02-.01-.03-.02a83.248 83.248 0 0 0-6.37-8.06c-.45-.52-.97-.93-1.54-1.16-.57-.23-1.09-.23-1.52-.06-4.16 1.4-7.55 3.86-10.15 6.36l.07.54.19 1.89s5.72 4.39 9.72 7.5c.03 0 .06.01.09.03a1 1 0 0 1 .46.41c1 .78 1.86 1.46 2.44 1.92.86.69 2.05 2.72 3.31 5.24 1.23-3.75 2.58-4.87 2.58-4.87.12-.1.19-.12.19-.12.11-.05.24-.05.38 0 .28.11.52.41.62.73 0 0 .04.11.06.37.33 3.46.42 8.52.41 13.34 1.28 3.08 2.17 5.41 2.17 5.41l.24-6.3s.28-12.42.36-15.65c.03-1.27.08-4.35.12-7.61l-3.08-1.66s-.05-.03-.08-.04ZM106.62 113.83c-.03-.4-.46-4.45-1.26-9.85-.02-.13-.03-.28-.04-.42-.09-4.69-.24-7.91-.24-7.91-.02-.55-.13-1.07-.25-1.28l-.83-1.51s-.02-.02-.02-.03c-.1-.12-.18.12-.18.55v1.27s0 .04-.01.03v-.02c-.5-2.61-1.06-5.24-1.68-7.71-.12-.5-.26-.88-.41-1.07-.15-.2-.29-.17-.41.02-2.87 4.11-4.45 14.74-4.51 15.36-.02.14-.03.31-.03.5 0 .58.09 1.19.22 1.49l.83 1.76c.11.28.19.8.21 1.32 0 .65.16 15.17.36 19.13.03.58.14 1.11.28 1.28.48.57.92 1.1 1.4 1.68s.04.05.04.05c.05.06.09-.07.09-.29-.02-1.29-.06-4.2-.09-7.25v-.25c0-.27-.04-.54-.08-.72-.25-.97-.42-2.35-.43-3.72-.04-5.08-.06-10.91 0-15.37 0-.37.08-.58.16-.48.09.11.17.53.17.93v.06c-.04 2.97-.05 6.55-.03 10.1 0 .48.09.97.2 1.11.11.13.2-.15.19-.63-.02-3.57-.01-7.17.03-10.15 0-.37.08-.58.16-.48.09.11.17.53.17.93v.06c-.04 2.96-.05 6.51-.03 10.04 0 .48.09.97.2 1.1s.19-.15.19-.63c-.02-3.56-.01-7.13.03-10.1 0-.37.08-.58.16-.48.09.11.17.53.17.93v.06c-.06 4.34-.04 9.95 0 14.9V118.31c0 1.34-.15 2.33-.39 2.74-.04.07-.07.24-.07.47 0 0-.02.73.06 4.47.03 1.64.06 2.78.08 3.29 0 .2.04.39.09.45s.05.06.08.1c.16.2.32.41.49.63l.03.04.03.04c.22.28.42.54.62.8l.47.62c.05.06.08-.04.09-.23.11-4.23.13-6.65.13-6.65 0-.22-.04-.44-.09-.53l-.57-1.07c-.09-.18-.14-.5-.16-.82-.01-.2 0-.4 0-.4.23-14.27 1.32-17.78 1.32-17.78.03-.1.05-.13.05-.13.03-.06.06-.06.1-.02.07.09.14.38.16.7 0 0 0 .11.02.37.09 4.7.05 12.43-.01 18.44-.05 5.1-.11 9.07-.11 9.07 0 .17.03.35.07.4.31.42.62.84.94 1.29.13.18.24-.08.28-.57.2-3.46.35-17.58.36-18.21.01-.49.1-.8.21-.8l.83.36c.12.02.22-.35.22-.94 0-.19-.01-.38-.03-.57ZM127.12 62.45c.13-.23-.73-.48.02-.51.11.1-.06.44.18.15-.03.57.19 0 .32.31-.31.63.31-.24.05-.19-.33.06-.2-1.24.06-.99.09-.12-.08.45.12.06.07-.14 1.98.87 1.58 1.05-.23.1-.22-.32-.41-.05-.11.22-1.05-.45-.86-.07.43.07 1.67.81 1.22 1.01.26.12.6 0 .89.14.18-.31.13.17.18-.14.72.06.61.01.76-.33.09-.14.26.03.19.19-.52.43.48-.05.65.05 0 .42-.37.07-.34.17-.01.2.69.49.37.24-.36-.45.56.01.61.34.53.82-.22.23-.27-.15-.39-.02.36.16-.27.27-.06-.01 0-.11.01-.16-.03-.15-.1.31-.17.2-.06.02 0-.08.02-.15.04-.42-.37.42-.18-.15.02-.1-.04-.07-.08-.04-.07.08-.11-.25-.1-.03-.05.34.4.58.53.34-.03.19.18.24.05.34.5.03-.08-.24.05-.29.18-.13.13.15.29.14.2 0-.1.24.06.22.28-.24 0 .05.14.06.31-.2.42.42-.02.05.03.48-.13.03-.26-.04-.06.23-.17-.02-.22.03.42.26 0 .27.25.33.69.11.06.06.28.51.1-.64.13-.01.51.14.25-.19-.33-.09.12-.31 0-.03-.27-.21-.07-.37.03-.04-.23.09-.11-.07-.14-.09-.08-.08.07-.17-.49-.04.34-.14-.04.09.49-.15-.25.18.22.04-.18.39.13.07.13.49-.23-.28-.27.88.09.56.13-.29-.12.13-.1-.04-.02-.62.21-.24.45-.4.71-.03-.6.09-.36.23.2-.16.28.06.38.07.17-.07-.05-.31.24-.19.02.07.05-.23.12-.09-.1.23-.28.08-.18.28 1.01-.63-1.46 1.5-1.54.03.13.06-.12-.18-.2.22-.13-.04.02-.42-.21-.23-.25 0 .06-.27-.09-.21-.27.04.1-.1-.04-.18-.03 0-.02.09-.08.08-.29-.04.21-.18-.06-.24-.24-.23-.2-.36-.14-.49-.31.05-.15-.05.02-.1-.21 0-.14.05-.09-.13-.1.08-.22.18-.07 0-.12-.01-.18.11-.18.07-.16.29.1-.27-.05-.12-.26.35-.46-.59-.51.03-.04.1-.07-.74-.22-.16.13-.1.13-.1.1.11-.07.37-.41.09-.26-.07.2.3.09-.31.02-.21.22.55-.39-.27-.23.31-.17.14-.19-.46-.26-.06.18.6-.12.13-.34-.09-.48.67.14-.54-.51.12-.56-.36.07-.34-.17-.5-.13-.08-.48.05-.32-.19.26.2-.08-.27-.16-.22-.1.26-.24.07-.12-.07-.22-.11.06.72.46.96-.62.22-.59-1.29-.74-.95-.08.09-.17-.44-.21-.02-.03.14-.21.52-.22.23-.04-.11-.02.18-.11.13-.15-.23-.27.12-.24-.16 0-.52-.22-.04-.32-.25-.24-.02-1.19-1.51-.12-.81Zm6.75 3.2c.18.15.13.18.38-.01-.22.12-.18.01-.38.01Zm-.89-.04c-.05.24.59.29.17.11.09-.3.04-.04-.17-.11Zm-1.5-1.44c-.15 0 0-.13-.06-.18-.12-.03.02.56.06.18Zm-.63-.5c.16-.11 0 .2.11.1 0-.07 0-.11.05-.11 1.22.02.07-.48-.15.01Zm-.49.38Zm.14-.18c0-.22-.16.01 0 0Zm-.16-.35c.11.12.26 0 .4-.01-.12-.09-.27 0-.4.01Zm-.24.29c.03-.06.16-.03.15-.16-.08-.07-.12.06-.15.16Zm-.32-.19c.03.14.19.08.3.09-.06-.13-.19-.05-.3-.09Zm-.46.45c.08.16.19.05.19-.1-.1.06-.15.08-.19.1Zm-.38-1.14c.03.23.35.4.59.6-.18-.24-.37-.44-.59-.6Zm-.66-.04c.21.01.23-.2.4-.06 0-.24-.31-.2-.4.06Zm-.46.25c-.04.38-.02.1.11.04-.1.66.53-.3-.11-.04Zm.31-1.43c-.08.19.81.22.8.51.43-.23-.64-.71-.8-.51Zm-.26.59c.06.09.12.08.08.26.03-.1.1-.37-.08-.26Zm-.28.57c-.07.14.21.18.19.06.04-.18-.07-.16-.19-.06Z"/><path class="cls-6" d="M130.01 62.68c.04.19-.18.36-.38.36-.04-.31.18-.36.38-.36Zm-.11.11c-.07-.03-.1.05-.04.06.02.07.12-.04.04-.06Z"/><path class="cls-6" d="M130.02 62.8c.15.05.2-.29.09-.13.12-.17-.14.13-.09.13ZM130.07 62.94s-.15.02-.13.1c.06.27.15.13.13-.1Z"/><path class="cls-6" d="M130.26 62.87c-.32-.09-.03.41.04.1.17.13-.15-.64-.04-.1ZM129.94 62.48s-.06.07-.1.12c.06.09.26-.15.15.06.16.04.05-.35-.05-.17ZM129.27 62.54c-.09.14.22.1.29.03-.02-.16-.14-.18-.29-.03ZM129.63 62.25c.16-.04.17.14.3.1.18-.07-.28-.46-.3-.1ZM128.43 63.47s-.09.07-.11.13c.02-.03.14-.11.11-.13ZM127.4 61.81s.01-.1 0-.14c-.06 0-.07.23 0 .14ZM129.51 64.44c.07.11.09.08.16.01-.04-.1-.07-.06-.16-.01ZM129.82 62.46s-.04-.05-.06-.07c-.18-.09.05.25.06.07ZM129.72 63.08c-.02.09.07.05.06-.02l-.06.02ZM130.02 64.54c.08.17.16-.28 0 0ZM130.48 62.68c-.06-.06-.09.03-.03.06l.03-.06ZM127.42 63.41c0 .15.02 0 .05-.03 0-.13-.02-.03-.05.03ZM129.19 62.48s.06-.02.07-.06c-.08-.01-.09 0-.07.06ZM129.55 62.64c-.04.06-.03.06.02.08.04-.05.02-.05-.02-.08ZM130.63 63.15v-.07c-.02.02 0 .05 0 .07ZM128.28 63.45l.02-.02c.02-.05 0 0-.02.02ZM129.71 62.57s-.05.02-.06.05c.02 0 .05-.03.06-.05ZM127.76 63.75s-.02.08.02.05c0-.02.01-.06-.02-.05ZM129.23 64.36s.03.03.06.03c0-.04-.03-.03-.06-.03ZM133.02 63.66c.22-.03.13.14.25.29-.07.03-.36-.09-.14.05.01.27.12-.02.23-.01.02.28-.41.29.05.33-.06.5-.8-.57-.39-.66Zm-.01.13c-.03.06.02.1.06.04l-.06-.04ZM130.97 62.99c.14.12.11.2.13-.15-.18-.15-.47.23-.13.15ZM132.48 63.18c.38.29-.1-.21.18-.08.5.34-.27-.47-.18.08ZM133.22 64.91c-.09-.09-.14.06-.17.13.07 0 .24-.1.17-.13Z"/><path class="cls-6" d="M132.74 63.4c.06.11.27.1.15-.04-.03-.18-.22-.08-.15.04ZM133.57 65.33c-.18.09 0 .02 0 .13.01-.04.07-.23 0-.13ZM133.08 64.86c.01.06.13 0 .08-.06-.04-.02-.2.02-.08.06ZM131.81 63.12c.08-.02-.08-.26-.12-.15-.05.14.06.09.12.15ZM131.43 62.63c0-.06-.1-.05-.16-.02-.05.12.13.13.16.02ZM133.25 65.06c.07-.05-.05-.01-.07-.03-.09.05-.03.13.07.03ZM132.98 63.47c.12.04.12-.13.04-.16-.02.05-.09.12-.04.16ZM132.64 64.77c.02.05.15.02.16-.04-.06-.03-.12.01-.16.04ZM131.67 64.5s-.08.07-.03.04c.02-.03.09-.08.03-.04ZM130.72 63.05s.08-.07.06-.11c-.04-.04-.07.07-.06.11ZM133.99 65.47s.08.04.09 0c-.03-.01-.07-.04-.09 0ZM133.78 65.22l-.02-.05s.04.11.02.05ZM131.68 62.94s-.08-.03-.13-.01c.04.05.08.04.13.01ZM133.7 65.27v-.06s-.01.11 0 .06ZM132.62 63.53s.06 0 .06-.03c-.04-.02-.09-.04-.06.03ZM133.6 65.61l-.04.08c.05 0 .04-.06.04-.08ZM131.71 62.66c0-.07-.04-.03-.1-.04.04.07.05.04.1.04ZM131.22 62.63c-.01-.05-.03-.04-.07-.03.02.06.03.04.07.03ZM131.85 64.78s0 .01.02.02c.03-.02.01-.02-.02-.02ZM133.27 65.08s-.03.02-.03.03c.02 0 .03-.01.03-.03ZM133.07 64.71s-.04 0-.05.02c.02 0 .03 0 .05-.02ZM133.99 65.33l-.02-.02c-.01.02.02.03.02.02ZM130.99 63.16v-.06c-.01.01 0 .05 0 .06ZM133.18 64.6l.03-.02s-.07.01-.03.02ZM132.53 63.43s.03 0 .03-.03c-.02-.03-.03.01-.03.03ZM132.54 63.33v.04s.04-.06 0-.04ZM132 63.07c-.02-.05-.05-.02-.03.02l.03-.02ZM132.99 64.79s-.06.01-.03.02c0 0 .03-.03.03-.02ZM132.94 64.74l.03-.02s-.07.01-.03.02ZM133.29 65.19s-.03 0-.03.03c.02 0 .03-.01.03-.03ZM133.25 65.13s-.05.03-.02.03l.02-.03ZM132.99 63.62s.06-.03 0-.06v.06ZM133.09 63.58s-.05-.02-.06 0c.03.03.04.03.06 0ZM132.83 64.78s.02.02.03 0h-.03ZM133.43 64.12l.03-.03s-.08.02-.03.03ZM134.11 65.45h.02s-.03-.02-.02 0ZM134.18 65.43s-.02-.03-.02 0h.02ZM131.75 64.55s-.06.03-.01.02c.02-.01.04-.03.01-.02ZM131.36 63.48l-.02-.04s0 .07.02.04ZM131.79 63.81s-.01.05-.02.08c.04-.01.06-.13.02-.08ZM131.97 63.91s-.03.05 0 .04v-.04ZM131.86 63.37s-.04.03-.03.05c.02 0 .04-.01.03-.05ZM130.5 62.59c-.01-.06-.08.02-.03.05l.03-.05ZM130.55 62.53c0-.06-.02-.04-.06-.03.03.06.03.06.06.03ZM130.71 62.95s.02-.03 0-.05c-.01.01-.03.04 0 .05ZM130.32 64.31s.03.04.05 0c-.02-.02-.03-.03-.05 0ZM129.98 64.42s0 .07.04.05c0-.02-.02-.05-.04-.05ZM130.39 64.49s-.03.04-.03.07c.04-.01.04-.03.03-.07Z"/><path class="cls-6" d="M130.46 62.94c.11.05.25.09.23-.08-.02-.14-.39-.07-.23.08ZM127.54 61.52c-.05-.19-.48.53-.23.09.12-.33.42-.45.23-.09Z"/><path class="cls-6" d="M127.23 61.85c-.29.62-.07-.51-.12.06.04 0 .19-.04.09-.08M127.3 61.51c.1.03.15-.38 0 0M127.37 62.41c.78-1.58-.69.26-.12-.11M99.59 64.72c-.16.02-.03.6-.3.17.04-.07.28-.13.03-.12.37-.24-.3-.12.07-.39-.51 1.41-2.51.27-.45.43.04-.02.16-.26-.09-.07-.62.21-.93-.93-1.33-1.26 0-.14.04-.35.26-.63-.1-.13-.37-.16-.17-.17.23 0 .29.25.18-.03-.3-.06.33.08.15-.23-.05 0-.18.31-.13.09-.04-.03-.08.11-.04-.03-.06.34-.35.17-.03-.03-.07-.21.02 0 .07-.01.11-.06-.1-.05-.03-.1.29-.32.02.2.22-.1-.11-.17.19-.08.01.1-.03.19.46-.11.06.16.1.06-.05.16.09.11.38-.68-.61-.42-.64-.42 0 .36.18-.1.24.03-.06.08-.1.31-.19.27-.04.01-.04.61-.22.37.09-.02.22-.32.03-.15 0-.06.14-.7 0-.25-.19-.23-.02.33-.24.27-.07-.13-.03-.25-.15-.33.02.08.09.5.02.22-.61-.38-.14-.26-.41.05.24.13.36.49.71.32.08.26.03-.04.17 0-.13.07.02.16-.06.21-.25-.15-.01-.03-.25.02-.17-.12-.74-.23-.82-.81.05-.29.12.12.12.2.35-.59.6-.76.03-.45-.25-.17.6-.91.25-.59-.04.21-.32.37-.08.5-.18-.21.42-.43.16-.4.22-.3.19-.08.14-.06.09.18.08-.08.11-.17.14.35.11.12-.04.34.12-.03-.03.04-.06.08.2-.08.16.03.05.3.1 0 .16-.48.12-.14.05 0 .08-.3.04.03.06-.29 0 .02.04 0 .02-.33.01.07.03-.04.03-.14.03-.05.05-.12.06.2-.01-.08.03.03.06.12-.08-.29.06.05.07-.71 2.08.54 1.09 1.08.04 0-.2.16.02.21.1.06-.39-.17-.19 0 .03-.03.17 0 .25.08-.31 0-.04-.04-.34-.07-.11.06.31 0 .1.07-.26 0 .04.08.08.05-.32.1-.03.07.04.04.38-.09-.05 0-.05.07-.17.06.02.05.08-.01.08-.02-.08.09-.12.09-.14.13.24-.15.2.06.03.07-.14.11-.16.11-.04.15.34-.02.17.16-.12-.11 0 .28.19.05-.02.52.17-.14-.08-.3.24-.34.45 1.38-.31.63.46-.1-.12-.2.05-.4.5-.46.98-.07 1.38.25.43.33-.24 1.71-.2.59Zm-2.82-2.86c.11-.1.16-.08.19-.21-.06.08-.16.13-.19.21Zm.17.36c.02-.14 0-.16-.06-.16.07.14-.18.33.06.16Zm1.58.56c-.01.17-.08.04-.14.06-.05.16.41.03.14-.06Zm-.54.37c-.01-.11.12.06.1-.03-.18-.07.25-.52-.03-.43-.03.08-.22.4-.07.47Zm.16.26Zm-.13-.05s-.07 0-.08.02c-.02.02.08.03.08-.02Zm-.27.11c.06-.1.04-.19.08-.29-.1.06-.12.19-.08.29Zm.27.1s-.07-.08-.15-.05c-.04.07.1.07.15.05Zm.01.22c.05-.08-.04-.11-.08-.18-.08.07.06.13.08.18Zm.43-.14c.03-.1-.09-.02-.14.03 0 0 .13-.03.14-.03Zm.02.71c.04-.13-.11-.12-.15-.23-.36-.4-.04.11.15.23Zm.17 0c-.26.16.25.21-.01.11.03.23.11.08.01-.11Zm.4-.36c-.08-.28-.04-.05-.16 0-.35-.38-.46.38.16 0Zm0 .93c0-.18-.67.34-.73-.09-.23.74.67-.08.73.09Zm.09-.36c-.03-.06-.07-.04-.07-.17 0 .04-.03.27.07.17Zm.25-.35c.05-.11-.14-.11-.21-.14-.04.17.07.18.21.14Z"/><path class="cls-6" d="M97.67 64.46c-.16-.22.32-.36.32-.12-.02.2-.2.16-.32.12Zm.09-.06c.1.07.05-.06 0-.09-.07 0-.03.05 0 .09Z"/><path class="cls-6" d="M97.61 64.27c-.1-.14-.21-.29-.35-.41-.03.16.33.81.35.41ZM97.53 63.97c0 .08.12.11.15.18.07-.19 0-.46-.15-.18ZM97.31 63.64c.19.55.19-.05.05-.15-.2-.03-.29.38-.05.15ZM97.73 64.65c.17-.24-.13.04-.05-.16-.13-.1-.03.31.05.16ZM98.2 64.6c.09-.1-.22-.07-.19.04.04.06.07.05.19-.04ZM97.92 64.8c-.11.03-.11-.08-.22-.05-.01.14.15.22.22.05ZM98.9 64.01c.22-.06 0-.09 0 0ZM99.14 64.85l-.08.04c.02 0 .16-.04.08-.04ZM98.56 63.45c.08-.05 0 0-.03 0-.05.03-.02.03.03 0ZM97.82 64.68s.02.04.03.04c.12.05-.02-.17-.03-.04ZM97.91 64.19s0-.05-.04-.06c-.02.05-.02.06.04.06ZM98.54 63.41c.07-.03-.05 0-.08.02 0 0 .08-.01.08-.02ZM97.16 63.31c-.05.06.01.15.04.05 0 0-.05-.05-.04-.05ZM99.59 63.88c.01-.1-.1-.02-.06.05.02-.01.05-.04.06-.05ZM98.24 64.64s-.05.02-.06.04c.03 0 .07 0 .06-.04ZM98.02 64.55s.03-.04 0-.05c-.03.03-.02.04 0 .05ZM97.53 63.21h-.05c0 .02.04 0 .05 0ZM99.02 64.07s-.02.02-.02.03c0 0 .03-.03.02-.03ZM97.91 64.6s.04-.01.04-.04c-.01 0-.04.02-.04.04ZM98.83 63.58s-.03-.05-.07-.02c.02.01.05.03.07.02ZM98.63 63.51s-.02-.02-.02 0h.02ZM97.79 62.49c.22.34.21.44.03.32-.21.09.23.2-.12.23-.03-.09.04-.17-.11-.1.02.43-.22-.06.17-.23-.02-.18.24.08.04-.22Zm.01.03s.1.15.11.17c.02 0-.09-.14-.11-.17Z"/><path class="cls-6" d="M97.6 62.87c.11-.08.17.01-.05-.12-.15.1-.13.42.05.12ZM97.7 62.63c.05-.05.05-.06 0 0 .12-.16-.03.04 0 0ZM97 62.87c.14.04.02-.21-.02-.13-.02.07-.04.12.02.13ZM97.78 62.52s.02-.05 0-.02c0 0-.03.07 0 .02ZM96.55 62.32c.08.11.04-.01.07-.11-.03.02-.16.11-.07.11ZM97.14 62.83c-.08-.03-.05.09.02.07.06-.03.06-.12-.02-.07ZM97.76 62.65s-.06.01-.07.01c.03 0 .04 0 .07-.01ZM97.44 62.64s-.05-.01-.02 0c.04.03.12.01.02 0ZM96.87 62.76s.06 0 .08.01c.02-.07-.05-.12-.08-.01ZM97.33 62.53s-.03.13 0 .13c.02-.03 0-.1 0-.13ZM97.93 61.64c-.08-.03-.17-.1-.26-.04.1 0 .16.08.26.04ZM97.5 63.11s0-.09-.05-.08c-.04.02 0 .08.05.08ZM96.68 61.76s.06-.04.07-.05c0-.05-.09.02-.07.05ZM96.37 62.01s-.06.04-.03.08c0-.01.1-.1.03-.08Z"/><path class="cls-6" d="M97.73 62.66c.11 0-.15-.03-.08 0 .01 0 .17.01.08 0ZM96.44 62.17s-.08.06-.02.05c0 0 .05-.05.02-.05ZM97.78 62.51s0-.02 0 0-.01.03 0 0ZM96.71 62.08c-.01.06.05-.03.06-.03 0-.03-.03.01-.06.03Z"/><path class="cls-6" d="M97.74 62.66c.08 0-.37-.04-.17-.02.05 0 .24.02.17.02ZM97.43 62.66h-.03s.05.03.03 0ZM97.29 61.82v.03-.03ZM96.84 62.74l.01-.03c-.02 0-.02.02-.01.03ZM97.3 62.86v-.03c-.01.02 0 .02 0 .03ZM96.57 61.7h-.03.03ZM97.71 62.91s-.06-.03-.03 0h.03ZM97.37 62.95s.02.03.03.02c0-.01-.02-.04-.03-.02ZM97.76 62.56ZM97.74 62.58s0-.01.01-.02c0 0 0 .02-.01.02ZM97.69 62.66h.02-.02ZM97.24 62.79s0-.05-.01-.02c0 0 .01.03.01.02ZM97.31 62.76v.02s.02-.05 0-.02ZM96.77 62.63s.02-.01.02-.03c-.02 0-.03.02-.02.03ZM96.83 62.69s.02-.03 0-.03v.03ZM97.3 62.68s-.02.02 0 .03v-.03ZM97.75 63.08s.03 0 0-.02v.02ZM96.76 61.66h.02s-.04-.01-.02 0ZM96.8 61.6s-.04.02 0 0ZM97.33 61.79s-.02-.04 0 0c0 0 .02.04 0 0ZM98.02 62.81h-.03s.04.02.03 0ZM98.21 62.46s.08-.03.03-.04c-.02.01-.07.03-.03.04ZM98.11 62.27s.03-.03 0-.04c0 .01-.01.03 0 .04ZM97.92 62.59h.04s-.02-.01-.04 0ZM97.09 63.27s-.01.05 0 .08c.03-.03.03-.05 0-.08ZM97.06 63.19c-.11.02.02.15 0 0ZM97.43 63.09s0-.03-.03-.02c0 .02.02.03.03.02ZM98.35 63.4s.02-.01 0 0c-.02 0-.02 0 0 0ZM98.46 63.44l.04-.02s-.04 0-.04.02ZM98.49 63.37h.05-.05ZM97.34 63.36c.04-.11.15-.24.02-.27-.13-.01-.18.44-.02.27ZM98.99 64.9c.28-.03.07 0 0 0-.02 0 .01-.02 0 0ZM99.22 64.88s.23-.04.14.03c-.03.1-.36-.02-.07 0 0-.02-.07-.06-.08-.02M99.45 64.6c-.03.09-.48.24-.41.28.25-.16.21-.07.44-.03.13-.01 0-.27-.01-.14"/><path class="cls-1" d="M157.76 61.2c.08-.02-.02-.12-.03-.03.01.01.02.04.03.03ZM159.45 60.97c-.11.1-.48-.03-.25.05 0 .21.14.13.35.23.42.08-.18-.13-.1-.28ZM158.1 61.34c-.12-.08-.24 0-.36.02.12.07.25.03.36-.02ZM160.52 61.73c-.29-.31-.41-.11-.09.07-.11.28.21.05.09-.07ZM158.41 61.47c.97-.04.61-.41.28-.19.08.1-.35.02-.45.04.03.17.07.28.17.15ZM160.39 62.03c-.1-.04-.04.2-.18.14-.34-.22.5.36.18-.14ZM154.24 60.19h.04s-.02-.06-.04 0ZM154.96 59.84c.31.04.9.42.91.23-.05-.53-1.44-.27-.91-.23Z"/><path class="cls-1" d="M160.21 61.48c-.45-.41-.19-.12-.16 0-.15-.06-.2.17-.28.07.06-.32-.13.02-.03.03-.16.34-.03-.25-.21-.18-.07 0-.1.15-.05.17-.2.23.02-.36-.16-.2-.6.29.9.33.77.53-.31.09.41.02.09-.07-.34-.34-.1-.04.04-.34Zm-.88.13s-.02-.08.02-.11c0 .04.01.08-.02.11Zm.24.02s0-.05.02-.05c0 .02.01.05-.02.05Z"/><path class="cls-1" d="M163.18 59.68c-3.86-2.04-8-4.95-10.27.07 1.73.86 1.34-.6.91.16.12-.41.57-.99.56-.35.37-.52.8.13 1.39.14 1.39.65.05.58-.71.44.33.36 3.35 1.76 3.57.44.45.13-.07.38.07.47.19-.16.73-.38.82-.08.89.11 1.08.78 1.43 1.18-.12.05-.53-.29-.2.2.27.13.26-.15.32.09.37.16.02-.02.27-.15-.22.1-.09-.03-.26-.09.2-.35-.13.04-.04-.25.06.21.29-.18.23.06.16 0-.15.12-.09.16.3-.18.24.05.22.23.43.29 1.21.6 1.3.39.13-.1-.03.16-.06.16.12.1.2-.35.23-.17.42 1.58 1.38-2.02.32-3.11Zm-9.21.15c.06-.07.1.14.02.15a.772.772 0 0 1-.02-.15Zm-.13-.15c-.04-.05.11-.27.12-.19-.03.08-.08.16-.12.19Zm2.31.72c-.05.02-.06-.01-.07-.06.07-.01.09-.02.07.06Zm1.01.11c.05-.1.09-.02.16 0 .25.11-.41.32-.16 0Zm-.97.02c.01-.17.19-.28.29-.16.08.16-.19.18-.29.16Zm.38.06c-.06 0-.08 0-.05-.08.05.02.08.03.05.08Zm-.07-.49c-.05-.39.53 0 .35.06-.14.05-.2-.13-.35-.06Zm.18.13s.1.05.09.12c-.09.05-.25-.18-.09-.12Zm-.04.22s.05-.05.04 0c-.02 0-.06.05-.04 0Zm.21.58s0-.06.05-.08c0 .05 0 .1-.05.08Zm.14-.18c-.55.28-.15-.34-.09-.54.22-.17.23.43.09.54Zm.28.18c-.03.21-.29-.17-.15-.19.14-.03.13.04.15.19Zm.29-.18c-.06.02-.09.17-.23.03-.09-.24.28-.04.13-.35.12-.02.24.46.1.31Zm.25-.5s.01.06-.03.06c-.03-.02-.03-.07.03-.06Zm-.06.07s.01.06 0 .08c-.05-.03-.02-.05 0-.08Zm-.05.11c.06 0 .04.05.02.08-.05-.02-.06-.05-.02-.08Zm.24.47s-.03-.05-.01-.07c0 .02.03.05.01.07Zm-.03-.2c-.26.14-.29-.21.03-.15.05 0 .08.31-.03.15Zm.09-.03s.02-.04.04 0c0 .02-.03.04-.04 0Zm.07.12c-.07 0-.02-.1 0-.13.07.02.01.11 0 .13Zm.28.08s-.03-.04-.01-.06c.01.02.02.04.01.06Zm.12-.05c-.1.15-.08-.26-.16-.12-.48.11.23-.57.16.12Zm.02-.47s-.02-.06.03-.06c.03.02 0 .06-.03.06Zm.11.03c-.06-.09.07-.12.12-.11.08.06-.08.18-.12.11Zm.42-.12c.03.05-.06.08-.09.01.04 0 .07-.01.09-.01Zm-.05.37c-.11-.04.02-.1.07-.04 0 0-.08.04-.07.04Zm.23.11c-.07-.05-.17.02-.14-.13.02-.12.22.11.14.13Zm.15-.05-.02-.04s.06.02.02.04Zm1.45 1.52s.02-.06.02-.03l-.02.03Zm.05.09s.02-.05.02-.03l-.02.03Zm.07-.1s-.02 0 0-.03c.03 0 .01.01 0 .03Zm.23-.8s.01.02 0 .04c-.04 0-.02-.02 0-.04Zm-.58-.5c.12.03-.04.01-.05.06-.03-.1.01-.02.05-.06Zm-.6-.1s.06.03.01.04c0 0-.01-.05-.01-.04Zm.03.09c-.01-.06.03-.05.03 0H160Zm.07-.22c-.19.17-.35-.19-.08-.25.19.06.35.27.04.12-.28.02.04.08.04.12Zm.09.3s-.06-.02-.07-.06c.03 0 .1 0 .07.06Zm.02-.16c-.13-.22.13-.15.22 0-.07.07-.16.05-.22 0Zm.24-.02c0-.19.08-.14.13 0-.05.02-.11.05-.13 0Zm.72 1.06c-.09.04-1.01-.77-.54-.83.08-.18.36.3.25.29-.26-.15-.09.1.03.16.16-.42.29.19.06.07-.11.32.46-.06.2.31Z"/><path class="cls-1" d="M156.9 60.63c-.05.1.04.07.07.11.08-.06 0-.1-.07-.11ZM161.6 62.64h.02s0-.01-.02 0ZM161.24 62.23c.05-.02 0-.03 0 0-.06.05 0 .05 0 0ZM161.41 62.58s.02 0 .03-.01c0 0-.02 0-.03.01ZM162.52 62.94s.07.02.06.02c0-.02-.05-.02-.06-.02ZM161.64 62.65h.01-.01ZM160.61 61.28s.06 0 .06-.03c-.05-.02-.09-.05-.06.03ZM160.66 62.3c-.06.01-.09-.04-.11-.09-.14.07.05.09.11.09ZM157.05 60.52s-.03 0-.03-.03c.05-.3-.3.16.03.03Z"/><path class="cls-6" d="M160.22 62.18ZM156.25 60.76c-.31-.34-2.27-.85-.64-.46.83-.25 1.18.04.32-.51-.62-.27-.87-.27-1.33-.46-.1-.14-.21.39-.26.18-.09-.6-.23.05-.21.41.09-.2.23-.19.19.13-.6.22 3.46 1.27 1.93.73Zm-1.41-.99c.16-.2 1.32.1.94.4-.07-.3-.95-.19-.94-.4ZM160.32 62.19c-.06.01.03.04.05.04-.01-.02-.03-.04-.05-.04ZM162.74 62.83c-.07-.13-.12.19-.16.07-.26.02.12.16.16-.07Z"/><path class="cls-6" d="M160.51 62.24c.06 0 .3.12.12-.08-.1-.34.46.25.29-.05-.08-.25-.33-.2-.48-.15-.05-.04.1-.34-.14-.21-.08-.11-.25-.25-.34-.05.27-.01.37.32.04.23.3-.11-.16-.09-.1-.34-.08.48-1.1-.29-.58-.23.19-.16-.04.43.16.2.02-.41.15 0 .21.11.08.06.02-.43.1-.21-.03.32.11-.08.19.03.38 0-.2-.15-.07-.23.58.49 1.32.86.2-.09-.11-.1-.64-.31-.66-.11.57.27.11.25-.17.07-.2-.26-.1-.05.18-.17.13-.47-.92.26-.8-.04.25.05.13-.42-.03-.34-.14.05.06.67-.57.41 0 .07-.5 0-.25.17-.04.06-.08 0-.06-.04-.28-.1.08.14-.39.04-.25.07.86.25.95.38-.29-.27.82-.45.74-.22-1.85.26 1.56.75 1.47.92ZM162.44 62.82c.08.02.02.11.16-.04-.17-.08-.44.22-.16.04ZM161.76 62.63c-.39-.13-.28-.42-.52-.4.08.07.22-.25-.03-.06-.15.04.21-.21.02-.23-.16.1-.39.1-.04.12-.21.08-.07.27.03.28.24-.14-.15.14.06.14 0 .1.54.29.47.15ZM162.85 62.75c-.08.04-.1.2-.17.25.15.1.17-.14.17-.25ZM157.12 60.58c-.25-.15-.54.04-.39.36.26-.02.3-.12.39-.36Zm-.13.15s-.14-.02-.09-.1c.07.02.14.03.09.1Z"/><path class="cls-6" d="M157.12 60.67c.09.04.2-.02.27-.09-.1-.17-.33-.07-.27.09ZM157.25 60.83c-.16-.04-.23.11-.05.25.16 0 .02-.12.05-.25ZM157.52 60.55c-.13.03.1.2-.21.23.1.35.48.05.21-.23ZM157.02 60.5c.2-.08-.09-.41-.19-.06.08.1.26-.18.19.06ZM156.48 60.37c-.1-.12-.29 0-.29.16.11.02.37 0 .29-.16ZM156.85 60.16c.18-.02-.33-.43-.34-.15-.04.09.25.14.34.15ZM154.03 59.96v-.06c-.06-.26-.12.19 0 .06ZM156.71 60.35c.14 0-.04-.16-.12-.13.02.06.06.1.12.13ZM156.84 60.97c0 .05.02.06.07.05 0-.07 0-.08-.07-.05ZM157.76 60.55c-.06-.05-.11.04-.03.06l.03-.06ZM156.1 60.41s.06-.03.06-.07c-.06 0-.1.01-.06.07ZM156.5 60.57c.08.05.11-.05.02-.06l-.02.06ZM157.93 60.95s.02.07.03.02c-.01-.01-.02-.07-.03-.02ZM156.68 60.42s-.05.03-.05.06c.02-.01.05-.03.05-.06ZM161.02 61.79c-.21.1.29-.75-.13-.24-.11-.06-.29-.31-.03-.16.13-.13-.31-.49-.41-.25.59 1.38 1.04.41.57.65Zm-.37-.49s-.05-.03-.05-.08c.04.02.09.03.05.08ZM158.45 60.65c-.58 0-.24.09-.03.3.06.03.07-.24.03-.3ZM160.01 60.73c-.27-.17.51.03-.02-.21-.5.23.27.38.02.21ZM161.14 62.46s-.03-.05-.08 0c.01 0 .15.07.08 0Z"/><path class="cls-6" d="M160.22 60.72c-.19.13.06.3.18.18a1.53 1.53 0 0 1-.18-.18ZM161.06 62.41c0-.1-.12-.08-.15-.02.06.02.09.08.15.02ZM159.07 60.7c-.03.15.07.08.14.13.08-.03-.13-.25-.14-.13ZM158.65 60.38s-.03 0-.05.03c-.03.25.33-.08.05-.03ZM160.55 60.87s-.04-.15-.11-.14c-.03.11-.02.22.11.14ZM160.59 62.29s.08.06.06 0h-.06ZM158.08 60.76s-.07.15 0 .13c.02-.03.07-.12 0-.13ZM161.92 62.7s0 .05.03.05c0-.02-.03-.04-.03-.05ZM158.92 60.69s.09.03.13 0c-.05-.04-.09-.02-.13 0ZM160.12 61.05s.05 0 .05-.05c-.08-.01-.09 0-.05.05ZM158.98 60.42c.11 0 .05-.08-.04-.04.03.02.03.04.04.04ZM158.47 60.41c.02.06.03.04.08.02-.01-.05-.05-.04-.08-.02ZM160.89 62.28s.03 0 .04-.03c-.01-.01-.04.03-.04.03ZM158.33 60.94l.02.04s0-.09-.02-.04ZM161.02 62.11l.02-.03s-.06.02-.02.03ZM160 60.93s-.02.06.03.05c0-.02-.01-.05-.03-.05ZM159.99 60.87s-.02.03-.01.05c.04 0 .03-.03.01-.05ZM159.34 60.75l.02.04s0-.07-.02-.04ZM160.83 62.37s.03 0 .04-.02c0-.02-.03 0-.04.02ZM160.79 62.28s.03 0 .04-.01c0-.03-.03 0-.04.01ZM160.51 61.05l.03-.05c-.06-.03-.05 0-.03.05ZM160.61 60.99s-.05-.01-.06.02c.03.01.05.03.06-.02ZM161.17 61.49s-.03 0-.05.03c.02.01.04-.01.05-.03ZM158.78 61.26l-.02-.03s0 .08.02.03ZM159.33 61.52v.08c.04-.02.03-.14 0-.08ZM159.57 61.59s-.02.06.02.04c0-.01 0-.04-.02-.04ZM159.3 61.08s-.03.03-.03.05c.02 0 .04-.03.03-.05ZM157.78 60.45c-.02-.07-.09.02-.03.05l.03-.05ZM157.83 60.39c0-.06-.03-.04-.08-.02.03.06.04.05.08.02ZM158.03 60.74s-.03.04 0 .05c.02-.01.02-.04 0-.05ZM157.95 60.65c-.32-.06-.29.29-.03.15.11.16.08-.15.03-.15ZM154.24 59.59c-.17-.49-.29.09-.42.32.14-.11.24-.34.42-.32ZM153.84 60.04s-.02.01-.03.02c.02.01.04.01.03-.02ZM153.81 60s.04.03.04.02l-.04-.02Z"/><path class="cls-6" d="M153.84 60.02s0 .01.02 0h-.02ZM153.64 59.99l.09.03c.04-.16-.05-.14-.09-.03ZM153.82 59.65c.03.06.09-.08.14-.16-.02-.06-.1.05-.14.16ZM154.26 59.75c-.1.01-.13.29-.19.38.26.19.32-.33.19-.38Z"/></g><g id="Layer_5"><path d="M86.81 136.89c-.78-1.97-2.52-5.67-2.95-7.88-.43-2.2-1.22-6.56-.82-9.38.4-2.83.71-5.66 1.82-8.38 1.11-2.72 4.14-8.12 5.43-9.59 1.29-1.47 5.35-5.12 5.35-5.12l-.49 23.04 9.69 12.93 25.14-1.76-.65-10.3 16.86 5.96s-.89 5.35-1.86 7.49c-.97 2.14-3.6 6.78-5.12 8.46s-4.69 5.08-7.96 6.8c-3.27 1.72-5.68 3.71-11.04 4.55s-14.39-.72-19.16-3.35-11.61-6.72-14.28-13.47Z" style="fill:#c1dade"/><path class="cls-11" d="m146.21 126.41-16.86-5.96-1.49-17.62-.73-10.33s5.78 3.07 7 4.04c1.21.97 8.01 7.44 9.72 12.15 1.71 4.71 2.86 8.43 2.86 10.95 0 2.52-.5 6.78-.5 6.78Z"/><path d="m94.82 105.11-.3 14.25s6.5 9.78 7.7 11.28c1.2 1.5 2.3 2.6 2.3 2.6l11.96-.73 13.89-1.29s.15-.33.15-.58-.52-9.39-.52-9.39v-.2l8.58 3.19 2.43.92s-.62 3.66-1.31 5.48c-.69 1.82-2.51 5.98-5.38 8.93-2.88 2.95-6.29 5.45-10.22 6.85-3.94 1.4-9.81 2.05-13.18 1.36s-8.09-2.28-11.2-4.7c-3.11-2.42-5.71-5.07-7.57-8.46-1.86-3.39-3.23-7.67-3.32-11.64-.09-3.97.56-8.37 2.05-11.44 1.49-3.06 3.12-5.6 3.95-6.43Z" style="fill:#d6e8ea"/></g><g id="Layer_4"><path class="cls-11" d="M129.15 120.79c4.36 1.72 8.75 3.37 13.16 4.95 1.24.44 2.49.88 3.73 1.31.34.12.72-.13.81-.46.1-.36-.12-.69-.46-.81-4.42-1.53-8.81-3.14-13.18-4.82-1.24-.48-2.48-.96-3.71-1.45-.33-.13-.72.14-.81.46-.1.37.13.68.46.81ZM104.86 131.97l.16-9.59.53-31.02s-3.24 1.26-4.99 2.08c-1.37.64-3.58 2.15-4.49 2.8-.35-.36-1.14-.21-1.15.44-.06 5.85-.16 11.7-.29 17.54l-.12 4.87c-.02.1-.02.22.03.34.03.09.07.16.12.22 2.31 3.68 4.76 7.29 7.37 10.77.73.98 1.48 1.95 2.24 2.9.22.28.7.23.93 0 .27-.27.22-.65 0-.93l-.33-.42Z"/><path d="M130.65 130.82v-.1c-.28-5-.61-9.99-1-14.98-.39-5-.84-10-1.34-14.99-.28-2.8-.58-5.59-.9-8.39-.04-.35-.27-.66-.66-.66-.27 0-.58.22-.64.5-2.01-.49-8.23-1.97-11.27-2.14-3.11-.17-7.62.9-8.91 1.22-.39-.22-1.01-.04-1.01.54-.02 5.3-.07 10.61-.15 15.91-.08 5.27-.19 10.55-.32 15.82-.07 2.98-.15 5.95-.22 8.93-.08.1-.13.23-.13.38 0 .34.3.68.66.66 6.59-.43 13.18-.86 19.76-1.51 1.84-.18 3.67-.38 5.5-.59.32 0 .63-.27.65-.59Z" style="fill:#fbae5e"/><path class="cls-12" d="M114.83 85.9c-19.84 0-35.99 16.14-35.99 35.99s16.14 35.99 35.99 35.99 35.99-16.14 35.99-35.99-16.14-35.99-35.99-35.99Zm.05 67.16c-17.19 0-31.18-13.99-31.18-31.18S97.69 90.7 114.88 90.7s31.18 13.99 31.18 31.18-13.99 31.18-31.18 31.18Z"/><path class="cls-12" d="M94.43 149.9c-.23-.23-.71-.28-.93 0s-.04.04-.05.07c-1.47-1.26-5.66-4.91-7.02-6.78.37-.57-.47-1.32-1.04-.79-3.27 3-6.52 6.03-9.74 9.08s-6.44 6.11-9.63 9.2a924.79 924.79 0 0 0-9.47 9.29c-1.57 1.56-3.15 3.13-4.71 4.71-.79.79-1.58 1.59-2.36 2.38-.69.7-1.4 1.38-2.01 2.16-.6.78-1.09 1.57-1.25 2.51-.16 1 .07 1.97.57 2.85.46.82 1.12 1.52 1.84 2.12.42.35.82.72 1.22 1.09a44.86 44.86 0 0 0 1.1 1.04c.37.35.74.69 1.13 1.01.76.7 1.39 1.4 2.18 1.99.81.61 1.71 1.04 2.71 1.16.91.11 1.82-.16 2.6-.64s1.46-1.15 2.08-1.84c.71-.79 1.4-1.61 2.1-2.41 1.45-1.68 2.9-3.37 4.34-5.05a1049.499 1049.499 0 0 0 17.03-20.49c2.79-3.45 5.57-6.92 8.31-10.4.35-.44.69-.88 1.04-1.32.22-.28.27-.66 0-.93Z"/></g><g id="Layer_10"><path class="cls-1" d="M136.37 116.55c0-.23.11-.39.26-.46.85-.36 1.4-1.32 1.37-2.66v-.18c-.22-4.11-.39-8.66-.37-12.56-.41-.44-.82-.87-1.23-1.27-.03 2.59.03 5.52.14 8.44.02.48-.3.74-.7.59-.4-.15-.74-.66-.76-1.14-.12-3.23-.18-6.46-.13-9.24-.14-.13-.29-.26-.43-.38-.26-.23-.53-.44-.8-.65-.08 2.91-.01 6.36.12 9.8.02.48-.29.75-.7.59-.4-.15-.75-.67-.76-1.15-.13-3.55-.2-7.12-.11-10.09v-.06c0-.05 0-.1-.02-.15-.38-.25-.75-.48-1.12-.7-.06.08-.1.2-.1.33-.13 4.45.08 10.28.35 15.36.09 1.37.75 2.78 1.68 3.8.18.2.31.48.33.74 0 .08.01.17.02.25.17 2.76.37 5.41.48 6.84.19.07.37.14.56.22.54.21 1.45.54 2.53.94-.07-.62-.17-1.55-.29-2.75-.36-3.76-.3-4.48-.3-4.48ZM143.31 109.16c-.23-.57-.5-1.14-.79-1.71-.58 2.51-1.06 5.8-1.22 10.09 0 0-.01.2.03.4.08.33.28.65.62.85l2.13 1.19c.19.11.34.33.34.55 0 0-.04 2.11-.29 5.82.91.32 1.49.53 1.49.53s.5-3.57.32-6.99c-.18-3.42-.84-6.31-2.63-10.75Z"/><path class="cls-5" d="m144.08 119.99-2.13-1.19c-.34-.2-.54-.53-.62-.85-.05-.2-.03-.4-.03-.4.16-4.29.64-7.58 1.22-10.09-1.26-2.43-3.06-4.77-4.9-6.75-.02 3.9.15 8.45.37 12.56v.18c.03 1.34-.51 2.3-1.37 2.66-.15.06-.25.23-.26.46 0 0-.06.72.3 4.48.12 1.2.22 2.13.29 2.75a1228 1228 0 0 0 7.18 2.58c.26-3.71.29-5.82.29-5.82 0-.22-.15-.44-.34-.55ZM133.37 115.54c-.02-.27-.14-.54-.33-.74-.94-1.02-1.6-2.44-1.68-3.8-.27-5.08-.48-10.92-.35-15.36 0-.14.04-.25.1-.33-1.92-1.14-3.49-1.8-3.49-1.8s1.45 14.48 1.7 16.95.82 10.75.82 10.75 1.7.66 3.72 1.44c-.11-1.43-.3-4.08-.48-6.84 0-.08-.01-.17-.02-.25ZM135.06 107.32c.02.48.36.99.76 1.14.4.15.71-.11.7-.59-.11-2.92-.17-5.85-.14-8.44-.49-.49-.98-.94-1.45-1.36-.05 2.78.01 6.02.13 9.24ZM132.25 96.21c-.08 2.97-.02 6.54.11 10.09.02.48.36.99.76 1.15s.72-.11.7-.59c-.13-3.44-.19-6.9-.12-9.8-.49-.38-.98-.73-1.48-1.05.01.05.02.1.02.15v.06Z"/><path class="cls-1" d="M103.86 123.8c.06-6 .11-13.74.01-18.44 0-.26-.02-.37-.02-.37-.03-.32-.09-.6-.16-.7-.04-.05-.07-.04-.1.02 0 0-.02.03-.05.13 0 0-1.09 3.51-1.32 17.78v.4c.02.32.07.64.16.82l.57 1.07c.05.1.09.31.09.53 0 0-.03 2.4-.13 6.6.35.46.62.81.73.96.04.05.08.1.11.14.01-.7.06-4.37.11-8.95ZM97.8 104.98l-.83-1.76c-.12-.29-.22-.9-.22-1.49 0-.19.01-.36.03-.5.03-.28.36-2.57.98-5.39-.86.53-1.64 1.08-2.11 1.58l-.75.55-.35 19.88v1.5l2.64 4.24s.52.75 1.18 1.69c-.19-4.16-.35-18.35-.35-18.99-.01-.53-.1-1.05-.21-1.32ZM103.79 94.65v.02s.01 0 .01-.03v-1.27c0-.43.08-.67.18-.55 0 0 .02.02.02.03l.81 1.46c.02-.96.03-1.7.04-1.93 0 0-.6.22-1.4.54.12.57.23 1.15.34 1.72ZM100.88 121.51c0-.23.03-.4.07-.47.23-.41.39-1.4.39-2.74V118.13c-.04-4.95-.06-10.57 0-14.9v-.06c0-.41-.08-.82-.17-.93-.09-.11-.16.11-.16.48-.04 2.97-.05 6.55-.03 10.1 0 .48-.09.75-.19.63-.11-.13-.2-.62-.2-1.1-.02-3.53-.01-7.09.03-10.04v-.06c0-.41-.08-.82-.17-.93-.09-.11-.16.11-.16.48-.04 2.98-.05 6.58-.03 10.15 0 .48-.08.76-.19.63s-.2-.63-.2-1.11c-.02-3.55-.01-7.12.03-10.1v-.06c0-.41-.08-.82-.17-.93-.09-.11-.16.11-.16.48-.06 4.46-.04 10.29 0 15.37.02 1.37.18 2.75.43 3.72.05.19.08.46.08.72v.25c.03 2.87.07 5.61.09 6.99.11.15.21.3.3.43.16.23.35.49.54.76-.01-.58-.04-1.64-.07-3.11-.08-3.74-.06-4.47-.06-4.47Z"/><path class="cls-5" d="m102.96 124.52-.57-1.07c-.09-.18-.14-.5-.16-.82-.01-.2 0-.4 0-.4.23-14.27 1.32-17.78 1.32-17.78.03-.1.05-.13.05-.13.03-.06.06-.06.1-.02.07.09.14.38.16.7 0 0 0 .11.02.37.09 4.7.05 12.43-.01 18.44-.05 4.58-.1 8.24-.11 8.95.26.32.34.37.34.37s.08-.88.1-1.32c.02-.44.1-3.22.1-4.5s.24-11.35.28-13.01c.04-1.66.17-11.37.16-13.15 0-1.23.04-4.63.08-6.84l-.81-1.46s-.02-.02-.02-.03c-.1-.12-.18.12-.18.55v1.27s0 .04-.01.03v-.02c-.11-.57-.22-1.15-.34-1.72-.81.33-1.81.76-2.59 1.17-.85.46-2.03 1.09-3.1 1.75-.62 2.82-.95 5.11-.98 5.39-.02.14-.03.31-.03.5 0 .58.09 1.19.22 1.49l.83 1.76c.11.28.19.8.21 1.32 0 .64.16 14.83.35 18.99.59.85 1.29 1.86 1.82 2.61-.02-1.38-.06-4.12-.09-6.99v-.25c0-.27-.04-.54-.08-.72-.25-.97-.42-2.35-.43-3.72-.04-5.08-.06-10.91 0-15.37 0-.37.08-.58.16-.48.09.11.17.53.17.93v.06c-.04 2.97-.05 6.55-.03 10.1 0 .48.09.97.2 1.11.11.13.2-.15.19-.63-.02-3.57-.01-7.17.03-10.15 0-.37.08-.58.16-.48.09.11.17.53.17.93v.06c-.04 2.96-.05 6.51-.03 10.04 0 .48.09.97.2 1.1s.19-.15.19-.63c-.02-3.56-.01-7.13.03-10.1 0-.37.08-.58.16-.48.09.11.17.53.17.93v.06c-.06 4.34-.04 9.95 0 14.9V118.3c0 1.34-.15 2.33-.39 2.74-.04.07-.07.24-.07.47 0 0-.02.73.06 4.47.03 1.47.06 2.54.07 3.11.62.86 1.35 1.84 1.9 2.56.11-4.2.13-6.6.13-6.6 0-.22-.04-.44-.09-.53Z"/></g><path class="cls-9" d="M67.49 133.25c-.16-8.32-.43-16.63-.74-24.95-.31-8.27-.64-16.53-.9-24.8-.15-4.68-.27-9.36-.36-14.04 0-.04 0-.09-.02-.13a.533.533 0 0 0-.14-.28.607.607 0 0 0-.5-.24c-4.77.23-9.56.09-14.32-.32-1.32-.11-2.64-.25-3.95-.41-.35-.04-.66.33-.66.66v.09c0 .03-.01.06-.01.09-.52 8.3-.86 16.61-1.02 24.92-.16 8.2-.14 16.41.07 24.61.11 4.7.29 9.4.51 14.1.02.35.25.55.52.61.12.13.3.21.49.23 5.21.48 10.44.72 15.67.71 1.49 0 2.99-.03 4.48-.07.18 0 .32-.07.43-.17.24-.07.44-.27.43-.6Zm-16.55-.83c-1.4-.09-2.8-.2-4.19-.33-.39-8.16-.61-16.32-.66-24.48-.04-8.2.09-16.41.41-24.6.17-4.51.4-9.03.68-13.54 4.54.52 9.11.79 13.68.77 1.11 0 2.22-.04 3.33-.08.16 8.09.43 16.18.72 24.27.31 8.27.64 16.53.9 24.8.14 4.5.26 9 .35 13.5-5.07.13-10.15.03-15.22-.3Z"/><path class="cls-16" d="M74.39 152.66c-1.92 1.82-3.83 3.65-5.74 5.49 1.44 2.71 3.75 4.94 5.85 7.16 1.41 1.49 3.21 3.38 3.28 5.58 0 .21-.01.41-.03.61 1.83-2.21 3.65-4.43 5.46-6.66-2.02-3.43-5.31-5.74-7.55-9.03-.44-.65-1.13-1.97-1.27-3.15ZM76.65 150.52c1.62.44 3.5 2.31 4.36 3.07 2.21 1.95 4.44 3.9 6.88 5.46 1.55-1.93 3.1-3.87 4.64-5.82-3.45-2.15-6.79-5.64-10.3-7.91-1.86 1.73-3.73 3.45-5.57 5.19ZM55.8 179c-.99-1.3-2.3-3.47-2.78-5.53-.4.4-.8.79-1.19 1.19-.79.79-1.58 1.59-2.36 2.38-.69.7-1.4 1.38-2.01 2.16-.04.04-.06.09-.1.14.31.61.66 1.19 1.05 1.76 1.4 2.05 3.38 3.92 4.39 6.21.31.71.78 2.56.37 3.59.34.32.68.64 1.06.92.81.61 1.71 1.04 2.71 1.16.91.11 1.82-.16 2.6-.64.26-.16.5-.34.74-.54.11-.55.18-1.11.21-1.69.22-4.43-2.14-7.74-4.69-11.11ZM74.59 175.14c-4.31 1-6.05-4.22-7.73-7.11-1.01-1.73-2.21-3.34-3.7-4.59-1.75 1.71-3.5 3.42-5.24 5.15 2.1 1 3.29 4.27 4.32 6.09 1.68 2.97 3.87 5.65 7 6.95 1.85-2.17 3.68-4.35 5.51-6.54-.06.02-.11.04-.17.06Z"/></g><g id="Outline"><path class="cls-2" d="M7.5 91.94c-.33 0-.41 8.33-.17 18.58.24 10.25.7 18.56 1.03 18.55s.41-8.33.17-18.58c-.24-10.25-.7-18.56-1.03-18.55ZM54.2 106.52c-.33.01-.39 5.76-.14 12.84.26 7.08.74 12.81 1.07 12.8.33-.01.39-5.76.14-12.84-.26-7.08-.74-12.81-1.07-12.8ZM158.42 104.59c-.33 0-.64 4.7-.69 10.5-.05 5.8.18 10.51.51 10.51s.64-4.7.69-10.5c.05-5.8-.18-10.51-.51-10.51ZM189.45 95.91c-.33 0-.59 5.45-.56 12.16.02 6.72.31 12.16.64 12.16s.59-5.45.56-12.16c-.02-6.72-.31-12.16-.64-12.16Z"/><path class="cls-5" d="M117.3 101.16c-.33 0-.68 6.85-.77 15.31-.09 8.46.11 15.31.44 15.32s.68-6.85.77-15.31c.09-8.46-.11-15.31-.44-15.32ZM94.21 152.02c.08-.16-.57-.62-1.55-1.42-.99-.79-2.3-1.93-3.65-3.31-2.71-2.75-4.51-5.35-4.81-5.17-.28.15 1.12 3.14 3.95 6.02 1.4 1.44 2.88 2.54 4.03 3.17 1.16.65 1.96.85 2.03.71Z"/></g></svg>