<svg xmlns="http://www.w3.org/2000/svg" viewBox="0 0 200 200"><defs><style>.cls-1{fill:#ff8000}.cls-2{fill:#a0b4b5}.cls-10{fill:#c1dade}</style></defs><path d="M162.64 19.38c-21.39-9.11-42.42 2.7-56.77 18.61-1.84 2.04-3.52 5.04-5.64 6.71-3.17 2.5-6.68.07-9.95-1.27-6.24-2.54-12.52-5.05-19.05-6.78-10.7-2.84-22.28-3.64-32.88.08-10.77 3.78-20.78 11.92-24.2 23.06-1.98 6.46-1.95 6.68-2.78 19.76-.16 7.6 2.78 14.2 5.89 21.97 7.93 19.81 16.85 39.85 32.39 54.49 15.21 14.34 47.36 36.61 69.03 34.79 24-2.01 36.85-26.67 50.72-46.08 14.57-20.4 22.37-46.65 23.74-72.49 1.15-21.81-9.79-44.04-30.49-52.85z" style="fill:#edebe8" id="BG_Strong"/><g id="Outline"><path class="cls-2" d="M36.77 87.86a152.976 152.976 0 0 1-9.94-35.44c-.81-5.29-1.49-11.55-.35-17.98C28.89 20.92 39.4 9.36 52.62 5.67c13.23-3.69 28.2.77 37.26 11.09 5.03 5.73 7.84 12.58 10.08 18.55l-18.37 6.9c-1.71-4.55-3.61-9.26-6.46-12.5-4.12-4.7-11.21-6.81-17.24-5.13-6.02 1.68-11 7.15-12.1 13.31-.64 3.59-.18 7.67.42 11.55 1.63 10.6 4.55 21 8.67 30.89l-18.12 7.54z" id="Layer_4"/><g id="Layer_5"><path class="cls-10" d="M144.2 42.32c-.99-1.42-1.67-3.45-.42-4.94 1.42-1.68 3.08-.45 4.5.51 1.63 1.1 3.39 1.82 5.36 1.27 1.61-.45 3.08-1.71 3.8-3.22.93-1.96.4-3.46-.21-5.39-.51-1.61.36-3.47 2.12-3.75 2.07-.33 2.98 1.64 4.61 2.45s3.66.77 5.32-.02c4.22-2 4.03-7.8.37-10.24-1.73-1.16-3.27 1.69-1.55 2.84 1.14.76 1.53 2.6.73 3.74s-2.69 1.39-3.81.55c-.74-.55-1.31-1.29-2.12-1.77s-1.84-.76-2.82-.81c-1.94-.1-3.84.77-5 2.32s-1.56 3.57-1.01 5.45c.45 1.54 1.21 2.78-.2 4.07-1.31 1.2-2.58.65-3.9-.24-1.67-1.13-3.36-2.21-5.48-1.79-2.1.42-3.78 2.12-4.38 4.14-.66 2.22.04 4.66 1.34 6.5 1.19 1.7 3.94 0 2.75-1.7z"/><path class="cls-1" d="M135.7 18.38c-.06-.88-.76-1.34-1.45-1.37-1.6-.33-3.2-.58-4.83-.74-.45-.05-.85.2-1.12.56a1.492 1.492 0 0 0-.31.87c0 .08 0 .16.02.24-.03.91-.26 2.14-1.41 1.94-1.23-.22-1.44-1.47-1.18-2.53.05-.21.06-.41.03-.59-.03-.53-.34-1.01-1.02-1.16-1.45-.3-2.91-.47-4.39-.45-.38 0-.68.13-.9.33-.24.16-.42.41-.52.77-1.41 5.13 2.12 10.07 7.27 10.92 5.3.88 10.18-3.34 9.81-8.77z"/><path d="m151.29 80.96 2.42-3.47c.44-.63 1.29-.92 2.06-.7l13.02 5.68c1.1.32 1.57 1.5.96 2.42l-4.58 6.82c-.57.85-1.82 1.06-2.66.44l-10.86-9.03c-.7-.52-.85-1.45-.36-2.16z" style="fill:#f2a6b0"/></g><path class="cls-10" d="M153.1 142.44c-.36-.21-.78-.07-.99.26-.35.54-.7 1.08-1.04 1.62-1.56.76-4.53 2.15-6.29 2.72-2.48.81-15.81 4.95-20.85 6.47-5.05 1.53-30.24 9.26-32.03 9.77s-30.43 8.53-33.17 9.26-11.77 2.69-11.77 2.69-9.12 11.51-9.38 11.95c-.21.35-3.38 4.14-4.28 5.73-.31-.07-.63.04-.79.33-.19.32-.09.81.26.99 1.13.57 2.26.26 3.42-.03l3.39-.84s.07-.02.11-.04c6.72-1.8 13.44-3.62 20.15-5.47 6.46-1.78 12.9-3.59 19.33-5.46 6.25-1.81 12.48-3.66 18.7-5.56a1082.62 1082.62 0 0 0 38.09-12.45c.73-.25 1.47-.51 2.2-.77.05 0 .1-.02.15-.03.92-.35 1.75-.79 2.51-1.4.64-.52 1.2-1.08 1.71-1.73.03-.03.05-.07.07-.1.01-.02.03-.03.04-.05 3.17-4.13 5.7-8.71 8.4-13.15.76-1.25 1.54-2.5 2.34-3.72.22-.33.06-.8-.26-.99z"/><path d="M47.47 174.46c-.23-.23-.68-.29-.95-.07-.31-.59-.74-1.36-1.12-1.87-.69-.93-5.63-17.7-6.4-20.44-.77-2.75-5.33-17.69-6.08-20.04s-6.03-21.93-9.29-34.13c-2.18-8.15-2.73-11.84-2.86-13.4.45-.47.91-.94 1.37-1.41.65-.67-.37-1.7-1.03-1.03-3.7 3.78-7.33 7.63-10.62 11.77-1 1.26-1.98 2.55-2.92 3.86-.06.05-.12.11-.17.17-.74.98-1.45 2.06-1.64 3.3-.21 1.36.06 2.72.36 4.04 0 .04 0 .08.02.12 1.51 6.19 3.05 12.36 4.65 18.52 1.3 5 2.63 9.98 4.02 14.96 1.29 4.6 2.62 9.19 3.99 13.77 1.5 5.03 3.04 10.04 4.58 15.06 1.93 6.28 3.86 12.55 5.78 18.83l.81 2.65v.03c.61 1.75.96 3.85 2.58 4.97.03.02.07.04.11.05.02.01.03.03.05.04.36.21.77.07.99-.26 3.35-4.99 6.87-9.87 10.61-14.58 1.04-1.31 2.09-2.6 3.16-3.88.25-.3.29-.73 0-1.03z" style="fill:#b4cacc"/><path d="M153.72 140.27c-.14-.92-.37-1.83-.63-2.73 0-.03 0-.05-.01-.07-1.84-6.51-3.68-13.02-5.53-19.52-1.41-4.95-2.83-9.89-4.28-14.83-1.24-4.25-2.5-8.49-3.78-12.72-1.34-4.46-2.71-8.9-4.08-13.35-1.71-5.56-3.44-11.11-5.16-16.66l-.75-2.43c-.31-1.08-.64-2.16-1.01-3.22-.28-.8-.66-1.48-1.35-1.99-.65-.47-1.49-.68-2.28-.69-.99 0-1.97.28-2.92.55-6.4 1.76-12.8 3.53-19.19 5.32a3688.6 3688.6 0 0 0-18.53 5.22c-6.17 1.75-12.2 3.47-18.29 5.23a5635.373 5635.373 0 0 0-37.49 10.94c-.82.24-1.64.48-2.46.73-.76.23-1.52.48-2.26.75-.71.26-1.46.49-2.09.92-.77.52-1.23 1.26-1.43 2.16-.14.63-.15 1.28-.1 1.92.08.95.27 1.89.51 2.81v.07c1.5 6.12 3.02 12.24 4.59 18.34 1.24 4.8 2.52 9.59 3.86 14.36 1.23 4.4 2.52 8.79 3.83 13.18 1.46 4.86 2.95 9.7 4.44 14.55 1.9 6.18 3.81 12.36 5.7 18.54.27.89.55 1.78.82 2.67.56 1.81.91 4.26 2.73 5.28 1.07.6 2.22.31 3.33.03l2.95-.73h.03c6.78-1.81 13.55-3.64 20.32-5.5 6.22-1.71 12.43-3.44 18.62-5.22a1012.453 1012.453 0 0 0 35.81-10.96c6.36-2.08 12.7-4.22 19.01-6.41.81-.28 1.63-.57 2.44-.85h.03c.88-.3 1.77-.63 2.61-1.03.89-.42 1.59-1.14 1.9-2.08.27-.83.22-1.71.09-2.56z" style="fill:#d6e8ea"/><path d="M76.01 163.03c.18-.28.34.77.43.98-.15.27-.29-.69-.43-.98z" style="fill:#efedea"/><path class="cls-2" d="M13.84 115.08c-.5-2-.9-4-.88-6.07.02-1.81.21-4.81 1.98-5.89 1.89-1.15 2.68 2.32 3.02 3.46.78 2.56 1.55 5.13 2.33 7.69 3.14 10.35 6.28 20.71 9.41 31.06l4.71 15.53c.77 2.52 1.66 5.05 2.25 7.62.47 2.04.52 4.55-1.3 5.97-1.77 1.39-3.84-.04-4.77-1.69-.58-1.02-.9-2.17-1.22-3.29-.37-1.29-.74-2.58-1.11-3.86-1.49-5.2-2.99-10.4-4.48-15.6-2.97-10.35-5.94-20.71-8.92-31.06-.37-1.29-.74-2.58-1.11-3.86-.32-1.11-2.05-.64-1.73.48 3.23 11.26 6.46 22.52 9.7 33.78 1.62 5.63 3.23 11.26 4.85 16.89.71 2.49 1.21 5.29 2.53 7.55 1.12 1.91 3.23 3.41 5.53 2.95 2.03-.41 3.52-2.35 3.94-4.3.6-2.72-.45-5.48-1.23-8.06l-5.1-16.81c-3.4-11.21-6.79-22.42-10.19-33.62-.86-2.85-1.73-5.7-2.59-8.55-.57-1.86-1.49-4.19-3.77-4.27-2.12-.08-3.48 2.08-4 3.87-.71 2.46-.65 5.11-.23 7.61.16 1 .39 1.98.64 2.95.28 1.12 2.01.65 1.73-.48z"/><path class="cls-10" d="M56.38 166.69c-.18 0-.36-.01-.54-.04-.92-.14-1.77-.65-2.39-1.43-.78-.99-1.12-2.18-1.42-3.22-.06-.21-.12-.43-.18-.63s-.75-2.41-.75-2.41c-1.16-3.69-2.33-7.38-3.51-11.07l-1.34-4.22c-1.21-3.81-2.5-7.87-3.76-11.96a587.995 587.995 0 0 1-6.56-22.77c-1.19-4.46-2.44-9.26-3.92-15.1-.26-.95-.41-1.73-.47-2.47-.18-2.08.39-3.58 1.68-4.46.61-.42 1.27-.66 1.86-.88l.13-.05c.63-.23 1.29-.46 2.01-.69l2.04-.62c5.21-1.59 10.43-3.16 15.65-4.74 5.07-1.53 10.14-3.04 15.21-4.55 5.03-1.49 10.05-2.98 15.09-4.45 5.12-1.5 10.23-2.99 15.36-4.46 5.26-1.52 10.53-3.02 15.8-4.52l.09-.03c.72-.21 1.61-.46 2.55-.47.93 0 1.84.27 2.56.77.69.48 1.19 1.18 1.52 2.12.31.87.61 1.8.89 2.76l.86 2.69c1.39 4.36 2.79 8.72 4.17 13.08 1.17 3.67 2.33 7.35 3.47 11.03 1.06 3.4 2.14 6.92 3.21 10.47 1.1 3.65 2.26 7.53 3.63 12.2 1.58 5.37 3.15 10.74 4.71 16.11l.03.14c.18.63.41 1.44.54 2.29.16.99.13 1.85-.1 2.61-.31 1.04-1.07 1.9-2.14 2.43-.71.35-1.44.62-2.08.85l-.13.05-2.03.73c-5.39 1.92-10.68 3.75-15.72 5.45a833.353 833.353 0 0 1-29.55 9.32c-4.81 1.43-9.85 2.89-15.39 4.46-4.64 1.32-9.62 2.71-15.58 4.36v.02l-3.73.97c-.51.14-1.12.31-1.78.31zm-2.3-6.19c.09.28.17.56.25.84.26.91.51 1.78.99 2.39.24.31.55.5.88.55.36.06.83-.07 1.32-.21l2.53-.66c6.49-1.8 11.82-3.29 16.76-4.69 5.53-1.57 10.56-3.03 15.36-4.45 5.14-1.52 9.79-2.95 14.64-4.47 4.88-1.54 9.87-3.16 14.83-4.83 5.02-1.69 10.3-3.51 15.67-5.43l2.08-.75c.58-.2 1.27-.45 1.9-.76.46-.23.8-.59.92-.98.13-.42.14-.91.03-1.54-.12-.76-.33-1.52-.5-2.09l-.03-.12c-1.56-5.35-3.12-10.69-4.69-16.03-1.38-4.67-2.53-8.54-3.63-12.19-1.07-3.55-2.15-7.07-3.2-10.46-1.14-3.67-2.3-7.35-3.47-11.01l-4.17-13.08-.85-2.64c-.3-.99-.59-1.9-.88-2.74-.16-.47-.37-.77-.63-.96-.32-.22-.75-.35-1.17-.34-.65 0-1.33.21-1.99.4l-.07.02c-5.26 1.49-10.5 2.99-15.74 4.5-5.12 1.48-10.24 2.96-15.35 4.46-5.03 1.47-10.06 2.96-15.08 4.45-5.07 1.51-10.14 3.02-15.2 4.55-5.22 1.57-10.43 3.15-15.64 4.73l-2.09.63c-.66.21-1.26.41-1.84.63l-.13.05c-.5.18-.97.36-1.33.61-.2.13-.8.54-.65 2.28.04.51.15 1.08.32 1.75s.12.47.12.47c1.46 5.76 2.69 10.5 3.87 14.93 1.14 4.27 2.22 8.15 3.3 11.87.98 3.38 2.04 6.91 3.24 10.81 1.26 4.08 2.55 8.14 3.76 11.95l1.34 4.22 3.51 11.07.71 2.26z"/><path class="cls-1" d="M87.19 101.73c-1.68-6.98 2.92-15.58 9.72-17.88 4.07-1.38 8.73-.83 12.39 1.41 5.92 3.64 8.6 11.2 7.96 18.12-.63 6.92-4.04 13.29-8.02 18.99-3.98 5.7-8.05 10.9-11.6 16.88l-15.45-6.48c-5.29-2.22-10.62-4.46-15.36-7.71-4.74-3.24-8.89-7.6-10.92-12.96-2.48-6.57-.67-15.36 5.75-18.2 1.9-.84 4-1.09 6.07-1.17 7.57-.32 16.18 2.16 19.46 8.99"/><path d="M109.3 85.27c-3.66-2.25-8.33-2.79-12.39-1.41-6.8 2.3-11.39 10.9-9.72 17.88l10.45 37.53c3.55-5.98 7.62-11.18 11.6-16.88 3.98-5.7 7.39-12.07 8.02-18.99.63-6.92-2.04-14.48-7.96-18.12z" style="fill:#e87003"/><path d="M166.05 61.98c-.95-.28-1.76-.66-3.13-1.2-.07-.95-.06-2.24-.03-3.21.03-1.13.55-4.79.85-5.94s.48-1.38.78-2.17c.14-.35 1.17-2.37 2.15-3.23.31-.28 1.25-.94 1.66-1.09 2.69-1 4.79.85 5.16 3.43.43 2.95-.73 4.34-1.15 5.55.96-.15 2.69-.06 4.72.87 2.08.95 2.59 4.1 2.06 5.08-1.74 3.24-5.23 2.96-8.21 2.84-1.93-.08-2.87-.32-4.87-.9z" style="fill:#f6c243"/></g></svg>