<?xml version="1.0" encoding="UTF-8"?><svg xmlns="http://www.w3.org/2000/svg" viewBox="0 0 200 200"><defs><style>.cls-1{fill:none;}.cls-2{fill:#c0d9dd;}.cls-3{fill:#f47f20;}.cls-4{fill:#eeece9;}.cls-5{fill:#a0b3b4;}.cls-6{fill:#f7b3c2;}.cls-7{fill:#fff;}.cls-8{fill:#e4b241;}.cls-9{opacity:.38;}.cls-10{fill:#faad5f;opacity:.41;}.cls-11{fill:#ffcf67;}.cls-12{fill:#a5cf62;}.cls-13{fill:#f5c141;}.cls-14{fill:#b3c9cb;}.cls-15{fill:#5b3d5b;}</style></defs><g id="BG_x5F_Strong"><path class="cls-4" d="M12.71,169.73c129.63,63.34,75.71-9.51,132.5-20.52,87.77,3.12,50.06-159.46-22.29-141.07-39.95,9.69-80.76,46.67-82.94,89.49,12.49,32.92-42.96,47.03-27.28,72.1Z"/></g><g id="Illustrations"><path class="cls-4" d="M192.14,136.93c-.06.19-.21.23-.33.38.05.49.41-.74.34-.1.09-.16.12-.3.15-.44l-.36.1c-.08.36.19-.17.19.06Z"/><path class="cls-4" d="M192.34,136.76s-.02,0-.02-.02c0,0,0,.01,0,.02h.03s0,0,0,0Z"/><path class="cls-4" d="M196.13,128.54s.01.05.02.07c0-.03,0-.05-.02-.07Z"/><path class="cls-4" d="M66.15,135.56s-.06-.02-.1,0c0,0,0,0,0,.02l.11.06v-.06s0,0,0,0Z"/><path class="cls-4" d="M66.46,138.02v-.09c-.1.1-.16.06-.1.39.27.19.39-.31.75.06-.05-.08-.09-.21-.12-.34-.09.24-.32.13-.53-.02h0Z"/><path class="cls-4" d="M67,138.04s0,0,0-.02c.02-.03.03-.06.04-.09-.02-.07-.04-.13-.04-.19-.03.07-.03.18,0,.29h0Z"/><path class="cls-4" d="M49.09,110.97c-.08-.05-.17-.1-.24-.13.11.09.18.12.24.13Z"/><path class="cls-4" d="M65.11,133.64c0-.07-.02-.15-.04-.23-.02-.04-.04-.08-.06-.13l.1.36Z"/><path class="cls-4" d="M66.49,136.31l-.38-1.09.05.34c.2.1.11.66.34.74h0Z"/><path class="cls-4" d="M63.96,132.66s-.04-.09-.07-.16c.03.06.05.12.07.16Z"/><path class="cls-4" d="M59.33,124.05c.11.29.24.43.36.26-.18-.3-.17-.08-.36-.26Z"/><polygon class="cls-4" points="59.86 124.71 59.84 124.96 59.92 124.62 59.86 124.71"/><path class="cls-4" d="M60.61,126.53c.08.09.15.17.13.07-.03,0-.09-.03-.13-.07Z"/><path class="cls-4" d="M60.56,126.33l-.1.03s.07.07.11.12c-.03-.05-.05-.11-.01-.15h0Z"/><path class="cls-4" d="M60.7,126.95l.3.22.06-.49c-.32-.3.1.49-.37.27h0Z"/><path class="cls-4" d="M62.16,128.74c.03.55-.3-.24-.44-.35.09.38.73.7.51,1.04.61.93.41-.47,1.04.65-.32-1.18-.84-.3-1.1-1.34h0Z"/><path class="cls-4" d="M62.15,127.97c-.18.02.02.47.19.56-.04-.14.06-.46-.19-.56Z"/><polygon class="cls-4" points="62.76 130.64 62.89 130.68 62.74 130.27 62.76 130.64"/><path class="cls-4" d="M62.87,131.26c.11.07.28.54.31.23l-.31-.23Z"/><path class="cls-4" d="M63.86,133.09l.04.15c-.08-.01-.1.38-.28.02.05.32.57.42.24-.16h0Z"/><path class="cls-4" d="M65.76,136.96c-.07-.21-.21-.43-.28-.36l.3.53v-.18Z"/><path class="cls-4" d="M66.49,135.57c.11.44.05.41.27.93.19-.29-.22-.52-.27-.93Z"/><path class="cls-4" d="M65.64,137.75c-.16-.11-.18-.37-.22-.52-.12.12.06.5.22.52Z"/><path class="cls-4" d="M66.85,139.54c-.34-.6-.94-.74-.69-1.19l-.65-.36c.12.54.46.27.57.64-.03.22-.16.01-.18.18.04.44.22.86.45,1.03.07-.15.31-.41.5-.29h0Z"/><path class="cls-4" d="M66.77,137.7c.29-.21-.24-.49-.33-.68l-.02.39c.12-.12.24.12.36.29h0Z"/><polygon class="cls-4" points="68.01 142.5 67.7 142.06 68.1 142.74 68.01 142.5"/><polygon class="cls-4" points="67.81 142.57 67.72 142.63 68.14 143.1 67.81 142.57"/><polygon class="cls-4" points="67.74 142.89 68.04 143.37 68.02 143.28 67.74 142.89"/><path class="cls-4" d="M68.46,144.22c.13.13.3.51.26.67l.06-.2c-.13-.16-.15-.6-.32-.47h0Z"/><path class="cls-4" d="M152.94,33.36c.15.05.3.09.43.11-.24-.09-.37-.12-.43-.11Z"/><path class="cls-4" d="M19.06,71.8c.03-.18.18-.23.27-.37-.12-.47-.3.71-.33.11-.06.16-.08.29-.09.42l.34-.11c.03-.34-.17.17-.2-.05Z"/><path class="cls-4" d="M22.09,66.77c.05-.05.1-.1.14-.14-.1.04-.14.09-.14.14Z"/><path class="cls-4" d="M17.48,80.07s-.03-.04-.05-.05c.02.03.03.04.05.05Z"/><path class="cls-4" d="M146.2,30.89c-.22,0-.47-.15-.45,0,.09.1.54.14.45,0Z"/><path class="cls-4" d="M57.35,34.41c.04-.08.08-.15.11-.22-.08.1-.11.16-.11.22Z"/><path class="cls-4" d="M158.37,33.09s.02.03.03.05c.04-.03,0-.05-.03-.05Z"/><path class="cls-4" d="M159.87,34.32l.14.15s-.08-.09-.14-.15Z"/><path class="cls-15" d="M116.93,153.64c.17-.45.48-.44.94-.43.12,0,.24,0,.38,0,1.18-.02,2.83.05,3.43.09h.02c.55.04,1.98.18,2.25.29.16.07.26.37.26.79,0,.39-.09.78-.21.95-.15.21-1.77.13-2.72.07l-2.99-.2c-1.45-.1-1.5-.22-1.48-.81l.1-.04h0s0,0,0,0l-.1.03h0c0-.31.05-.57.12-.76Z"/><path class="cls-14" d="M90.8,102.5c.46-5.04,2.56-30.18,2.64-31.79.08-1.61,1.89-25.51,2.06-27.97.17-2.46.49-9.21,1.08-10.44.59-1.24,1.54-3.11,2.97-3.75,1.43-.64,3.42-1.23,7.8-1.03,4.37.2,28.91,1.51,32.64,1.76,3.11.21,18.65,1.34,24.61,1.67.02-.18.16-.36.35-.36h0c2.37.13,4.82.61,6.84,1.9.76.48,1.44,1.06,1.99,1.77.65.84,1.03,1.85,1.27,2.88.34,1.47.44,2.99.42,4.5,0,.33-.2,2.79-.22,3-.08,1.25-.15,2.51-.23,3.76-.01.21-.27.34-.45.3,0,0,0,0-.01,0v.05s-1.16-.1-1.16-.1l-.88,11.84,1.21.08c.05-.01.1-.01.15,0,.23.04.32.25.3.45h0c-.11,1.56-.21,3.12-.31,4.68.02.05.03.11.02.17h0c-.39,5.52-.76,11.04-1.14,16.56-.38,5.58-.76,11.16-1.15,16.74-.41,5.85-.81,11.69-1.18,17.54-.36,5.78-.7,11.57-1.04,17.35-.34,5.77-.67,11.53-1.02,17.29-.04.75-.09,1.49-.14,2.24-.02.26-.24.39-.45.38-.03.74-.08,1.64-.13,2.53.02,0,.04,0,.06,0,.23.04.32.25.3.45h0c-.08,1.24-.15,2.49-.23,3.73,0,0,0,.02,0,.03-.01.46-.04.92-.09,1.38-.01.2-.02.39-.04.59,0,.05-.02.1-.05.14-.23,1.57-.68,3.1-1.39,4.54-.59,1.18-1.44,2.15-2.54,2.88-1.17.78-2.54,1.29-3.94,1.45-.85.1-1.72.05-2.57,0-.44-.02-.88-.05-1.31-.09-.9-.05-1.8-.1-2.7-.15-2.71-.15-5.42-.3-8.13-.46-2.25-.13-4.5-.3-6.76-.46-4.48-.32-8.97-.61-13.46-.92-4.74-.32-9.48-.67-14.21-1.16-.17-.02-.35-.04-.52-.06-2.65-.23-5.29-.55-7.93-.8-.41-.04-.83-.07-1.24-.11-.18-.01-.35-.03-.53-.04-.08,0-.16-.01-.24-.02-.03,0-.05,0-.08,0-.01,0-.02,0-.03,0-.01,0-.03,0-.04,0-.01,0-.02,0-.03,0-.03,0-.05,0-.08,0h0c-1.05-.07-2.1-.18-3.15-.31-1.04-.12-2.11-.23-3.12-.52-1.49-.43-2.89-1.18-3.89-2.39-.93-1.12-1.47-2.53-1.72-3.95-.25-1.42-.33-2.87-.41-4.31-.01-.24.16-.37.34-.39.08-3.37.29-10.13.77-18.86.57-10.33,1.65-29.17,2.12-34.21Z"/><path class="cls-13" d="M171.97,60.63c.11-3.16.29-6.32.55-9.47.08-.92.16-1.83.24-2.75.02-.21.27-.34.45-.3.1.02.18.08.23.15.57,0,1.15-.01,1.71.03.57.04.85.47.88,1.01.04.59.01,1.18,0,1.77,0,.61-.02,1.22-.03,1.83-.07,2.41-.24,4.81-.52,7.2-.03.29-.1.57-.35.75-.23.15-.51.15-.77.15-.59,0-1.17-.05-1.76-.11-.06.06-.14.1-.23.1-.19.01-.42-.15-.41-.36h0Z"/><path class="cls-2" d="M171.09,43.98l.19-2.11s-.04,0-.06,0c-.21-.01-.34-.27-.3-.45.04-.23.24-.32.45-.3,1.26.08,2.52.11,3.77.19.21.01.34.27.3.45,0,.02-.01.05-.02.07-.01.46-.05.93-.09,1.39-.02.27-.04.53-.06.79,0,.11-.02.23-.02.34,0,.05,0,.1-.01.16,0,0,0,.01,0,.02,0,0,0,0,0,.03,0,0,0,0,0,0,0,0,0,0,0,0,0-.01,0-.03,0-.04,0,0,0,.02,0,.04,0,.03,0,.06,0,.09-.02.1-.07.17-.14.22,0,0,0,0,0,0,0,0-.01,0-.02.01-.05.04-.11.06-.18.07-.03,0-.06,0-.09,0,0,0,0,0-.01,0-1.24-.08-2.49-.16-3.73-.25-.21-.01-.34-.27-.3-.45.04-.18.18-.26.35-.28Z"/><path class="cls-2" d="M163.88,156.3l.16-2.47c-.1-.06-.18-.15-.19-.28-.01-.19.15-.42.36-.41h0c1.12.04,2.23.11,3.35.15.09-.07.23-.11.33-.09.22.04.31.24.3.44,0,0,0,0,0,.01,0,.03,0,.06,0,.1-.07,1.05-.15,2.11-.21,3.16,0,.13-.11.23-.23.28-.09.06-.2.09-.31.08-1.19-.08-2.38-.16-3.57-.24-.21-.01-.34-.27-.3-.45.03-.17.17-.24.32-.27Z"/><path class="cls-7" d="M169.91,96.64c-.37,5.14-.74,10.29-1.11,15.43-.04.51-.81.35-.78-.15.37-5.14.74-10.29,1.11-15.43.04-.51.81-.35.78.15h0Z"/><path class="cls-7" d="M169.37,96.31c.68-.8,1.35-1.6,2.03-2.39.13-.16.4-.19.56-.04s.18.39.04.56c-.68.8-1.35,1.6-2.03,2.39-.13.16-.4.19-.56.04s-.18-.39-.04-.56h0Z"/><path class="cls-7" d="M168.88,111.77c.52,1.04,1.04,2.09,1.55,3.13l-.73-.04c.07-.21.15-.42.22-.62s.35-.27.53-.18c.21.1.25.33.18.53s-.15.42-.22.62c-.05.14-.24.23-.38.22-.17-.01-.27-.11-.35-.26-.52-1.04-1.04-2.09-1.55-3.13-.1-.19.06-.44.24-.5.22-.08.41.05.5.24h0Z"/><path class="cls-2" d="M164.24,156.5s0,0,0-.01c.01-.16.02-.33.03-.49.41-6.31.78-12.61,1.15-18.92.36-6.16.71-12.31,1.08-18.47.38-6.3.78-12.6,1.22-18.9.44-6.24.87-12.47,1.3-18.71.42-6.16.84-12.32,1.27-18.48h0c0-.06,0-.12-.02-.17.18-2.62.35-5.24.53-7.86.23-3.37.46-6.74.68-10.12.06-.93.12-1.87.19-2.81,0,0,0,0,0,0h0s0,0,0,0c0,0,0-.02,0-.03.14-2.06.31-4.11-.23-6.14-.28-1.03-.73-2.12-1.49-2.89-.58-.6-1.36-.99-2.14-1.27-1.22-.43-2.5-.62-3.79-.7-3.48-.22-6.95-.46-10.43-.69-5.5-.42-11-.8-16.51-1.14-5.42-.34-10.84-.65-16.26-.93-2.76-.14-5.53-.28-8.29-.41-1.43-.07-2.87-.13-4.3-.2-1.24-.06-2.48-.15-3.73-.15-2.01,0-4.27.35-5.85,1.68-1.72,1.45-2.7,3.49-2.97,5.7-.14,1.12-.16,2.27-.23,3.4-.06.88-.12,1.76-.18,2.64-.11,1.53-.2,3.05-.28,4.58-.01.03-.02.06-.02.1-.09,1.26-.18,2.52-.28,3.79-.73,9.91-1.53,19.81-2.32,29.71-.77,9.64-1.55,19.28-2.25,28.92-.7,9.64-1.32,19.29-1.81,28.95-.25,4.93-.41,9.87-.65,14.81-.1,2.08-.32,4.24.13,6.3.38,1.74,1.36,3.14,2.9,4.05,2.66,1.58,6,1.39,8.98,1.68,2.31.23,4.61.53,6.92.75.34.04.67.07,1.01.11,4.69.48,9.39.83,14.09,1.15,4.43.3,8.87.58,13.3.9,2.23.16,4.46.33,6.68.46,2.7.16,5.39.31,8.09.46,1.2.07,2.41.13,3.61.2.54.03,1.07.07,1.61.08.81.06,1.64.13,2.45.11,1.41-.04,2.83-.53,3.92-1.44,1.15-.96,1.8-2.26,2.19-3.68.34-1.21.48-2.45.55-3.7,0-.08.01-.17.02-.25,0,0,0-.01,0-.02,0-.12.02-.23.02-.35.04-.53.09-1.07.11-1.6Z"/><path class="cls-5" d="M100.01,167.44s.02,0,.02,0c-.03,0-.04,0-.02,0Z"/><polygon class="cls-5" points="175.24 44.66 175.24 44.66 175.24 44.66 175.24 44.66"/><path class="cls-4" d="M87.57,35.38s-.05-.05-.07-.07c.04.02.06.05.07.07Z"/><path class="cls-4" d="M161.34,95.16c-.03-.1-.05-.2-.07-.27.07.13.08.22.07.27Z"/><path class="cls-13" d="M92.76,57.91c.06-.91.14-1.81.21-2.72.07-.89.14-1.79.2-2.68.03-.46.07-.91.1-1.36.03-.39.03-.8.11-1.19.08-.38.3-.73.68-.87.35-.12.76-.03.97.29.11.17.07.34-.03.45l-.66,8.66c.16.22.08.6-.27.62-.34.02-.71,0-.99-.21-.32-.24-.36-.62-.33-1Z"/><path class="cls-13" d="M91.77,71.35c.05-.9.11-1.81.19-2.71.14-1.75.28-3.5.52-5.23.05-.4.21-.81.6-.98.34-.15.75-.07.97.25.13.19.07.38-.07.49l-.83,8.51c.11.06.21.13.28.23.29.39-.3.8-.61.47,0,0-.01,0-.03,0-.06,0-.12,0-.18,0-.18,0-.34-.02-.49-.11-.32-.19-.38-.56-.36-.9Z"/><path class="cls-2" d="M175.37,43.02c-.04.58-.08,1.16-.12,1.74,0,.09-.09.2-.16.24-.08.05-.2.08-.29.06-.1-.02-.19-.08-.24-.16-.06-.09-.07-.18-.06-.29.04-.58.08-1.16.12-1.74,0-.09.09-.2.16-.24.08-.05.2-.08.29-.06.1.02.19.08.24.16.06.09.07.18.06.29"/><path class="cls-7" d="M98.58,60.19c.3-3.51.66-7.02,1.01-10.53.51-3.24-.03-8.09,3.86-9.49,0,0,.03.06.05.13h0c.1-.04.23-.07.4-.09-.15-.01-.3-.02-.45-.04,3.65-.62,7.35-.06,11.03.03l10.95.6,21.91,1.26s10.95.7,10.95.7c3.53.16,9.09.24,8.79,4.98-.77,14.34-3.41,49.9-4.5,64.63-.79,10.55-1.61,21.11-2.76,31.63-1.08,8.22.1,10.7-9.85,9.85-17.02-1.24-34.96-2.89-52.01-3.79,0,0-1.37-.08-1.37-.08-3.54.09-4.01-2.68-3.92-5.39,1.07-27.43,3.41-57.08,5.91-84.41Z"/><path class="cls-15" d="M135.03,36.59c-2.38.17-2.65-3.52-.27-3.7,2.38-.17,2.65,3.52.27,3.7"/><path class="cls-7" d="M98.68,58.16c.04-.38.07-.77.11-1.15.27-3.1.61-6.2.93-9.29.49-2.86-.09-7.15,3.78-8.36,0,0,.03.06.05.11h0c.1-.03.23-.06.4-.08-.15-.01-.3-.02-.45-.03,3.64-.52,7.35,0,11.02.11l10.95.61,21.91,1.28s10.95.7,10.95.7c3.53.17,9.09.28,8.83,4.47-.21,3.92-.58,9.65-1.02,16.06l-67.45-4.44Z"/><path class="cls-15" d="M121.09,166.69c.17-.45.48-.44.94-.43.12,0,.24,0,.38,0,1.18-.02,2.83.05,3.43.09h.02c.55.04,1.98.18,2.25.29.16.07.26.37.26.79,0,.39-.09.78-.21.95-.15.21-1.77.13-2.72.07l-2.99-.2c-1.45-.1-1.5-.22-1.48-.81l.1-.04h0s0,0,0,0l-.1.03h0c0-.31.05-.57.12-.76Z"/><g id="Layer_7"><path class="cls-3" d="M158.08,92.05c.08-.7.15-1.41.2-2.12,0,0,0-.01,0-.02.21-2.19.41-4.38.6-6.58.19-2.25.37-4.5.53-6.76.16-2.23.32-4.45.46-6.68.15-2.23.28-4.46.42-6.69.07-1.12.14-2.25.2-3.37.03-.49.04-1-.19-1.45-.21-.41-.61-.66-1.03-.79-.23-.07-.47-.1-.71-.13-1.03-.08-2.06-.15-3.08-.23-.48-.04-.97-.07-1.45-.11-1.31-.1-2.62-.2-3.92-.29-1.91-.14-3.83-.29-5.74-.43-2.32-.17-4.64-.35-6.96-.52-2.51-.19-5.02-.38-7.53-.57-2.48-.19-4.96-.37-7.44-.56-2.25-.17-4.5-.34-6.74-.51-1.81-.14-3.62-.27-5.43-.41l-3.46-.26c-.98-.07-2.23-.28-2.82.72-.28.47-.3,1.04-.35,1.57-.05.53-.11,1.05-.15,1.58,0,0,0,.01,0,.02-.21,2.19-.41,4.38-.6,6.57-.19,2.25-.37,4.5-.53,6.76-.16,2.23-.32,4.45-.46,6.68-.15,2.23-.28,4.46-.42,6.69-.07,1.12-.14,2.25-.2,3.37-.03.49-.04,1,.19,1.45.21.41.61.66,1.03.79.23.07.47.1.71.13,3.52.26,7.03.53,10.55.79,2.88.22,5.75.43,8.63.65,2.65.2,5.29.4,7.94.59,2.83.21,5.65.42,8.48.63,3.41.26,6.83.51,10.24.77.49.04.98.07,1.46.11,1.02.08,2.04.16,3.05.24.62.05,1.24.1,1.86.14.51.04,1.04.1,1.54-.09.31-.11.57-.3.76-.57.24-.33.31-.74.36-1.14h0Z"/></g><g id="Layer_16"><path class="cls-8" d="M117.25,55.37s0,0,0,0h0Z"/><path class="cls-8" d="M117.24,55.37h.01s-.01,0-.01,0Z"/><path class="cls-8" d="M117.16,55.36h.06s-.04,0-.06,0Z"/><path class="cls-8" d="M117.23,55.37h.01s-.01,0-.01,0Z"/><path class="cls-1" d="M158.58,57.47c.24.02.48.06.71.13.42.13.83.38,1.03.79.23.45.22.96.19,1.45-.03.57-.07,1.15-.1,1.72.08.05.14.09.18.11.1.05.17-.75.23-1.41.06-.65.83-1.89.05-2.49-.79-.6-3.9-.84-3.9-.84.1.1.22.27.32.44.44.03.87.07,1.31.1h0Z"/></g><path class="cls-10" d="M125.16,54.96c-.91-.07-1.81-.14-2.72-.2-2.25-.17-4.5-.34-6.74-.51-1.81-.14-3.62-.27-5.43-.41l-3.46-.26c-.98-.07-2.23-.28-2.82.72-.28.47-.3,1.04-.35,1.57-.05.53-.11,1.05-.15,1.58,0,0,0,.01,0,.02-.21,2.19-.41,4.38-.6,6.57-.17,2.01-.33,4.02-.48,6.04,4.5-7.48,13.23-12.08,22.75-15.13Z"/><g class="cls-9"><path class="cls-7" d="M128.11,85.19c.04-.18.82-.58-.49-.78-1.63-.25-5.63-.3-8.13-.47-4.91-.34-9.48-.8-10.37-.85-1.75-.11-3.41-.35-3.58.47-.16.82,1.28.6,3.04.71.97.06,6.2.6,11.23.82,4.08.17,8.22.47,8.29.11Z"/></g><path class="cls-7" d="M112.54,78.29c.04-.18.37-.74-.95-.85-1.15-.1-1.6-.13-2.49-.19-1.75-.11-3-.32-3.13.5-.08.53,1.28.6,3.04.71.97.06,3.46.19,3.53-.18Z"/><path class="cls-7" d="M120.8,78.67c.04-.18.37-.74-.95-.85-1.15-.1-1.6-.13-2.49-.19-1.75-.11-3-.32-3.13.5-.08.53,1.28.6,3.04.71.97.06,3.46.19,3.53-.18Z"/><path class="cls-7" d="M129.26,78.98c.04-.18.37-.74-.95-.85-1.15-.1-1.6-.13-2.49-.19-1.75-.11-3-.32-3.13.5-.08.53,1.28.6,3.04.71.97.06,3.46.19,3.53-.18Z"/><g class="cls-9"><path class="cls-7" d="M153.94,86.78c.04-.18.82-.58-.49-.78-1.63-.25-5.63-.3-8.13-.47-4.91-.34-9.48-.8-10.37-.85-1.75-.11-3.41-.35-3.58.47-.16.82,1.28.6,3.04.71.97.06,6.2.6,11.23.82,4.08.17,8.22.47,8.29.11Z"/></g><path class="cls-7" d="M115.61,64.54c-.03-.08-.36-.82-1.03-1.77l-.03-.08c0-.53-.05-1.06-.12-1.59,0-.06-.04-.1-.07-.14-.05-.04-.09-.07-.14-.06l-.75-.14s-.01,0-.02,0c-.04,0-.08.02-.12.04s-.05.06-.06.11l-.02.26h0c-.44-.47-.92-.87-1.43-1.25-.1-.08-.23-.13-.36-.14s-.26.02-.38.09c-2.69,1.43-4.31,3.94-4.37,4.08-.02.04-.03.07-.03.11,0,.06.01.11.05.16s.08.09.13.1l.74.19s.09.05.12.09.05.09.05.14c0,.14-.06,3.1.06,3.88,0,.06.04.1.08.14s.1.07.15.06h0c.43.01.84.04,1.27.06h.03s.01,0,.03,0h.03s0-.03.02-.03,0-.02,0-.03h0c0-.27,0-.85.01-1.48,0-.01,0-.03,0-.04,0-.03,0-.06-.01-.07,0-.03-.03-.05-.05-.05-.1-.08-.2-.17-.26-.3s-.09-.24-.09-.38c.03-1.04.09-2.24.21-3.17,0-.03.03-.07.05-.09.03-.03.07-.04.11-.03.03,0,.08.01.09.05.03.03.04.07.04.1h0c-.08.63-.13,1.37-.16,2.11,0,.03,0,.04.01.07s.01.04.04.06.03.03.06.04.05.01.07.02.04,0,.07-.01.04-.01.06-.04.03-.04.04-.06.01-.05.02-.07c.03-.73.09-1.48.18-2.1,0-.04.01-.08.05-.11s.07-.04.1-.04.08.01.11.05.04.07.04.1h0c-.08.63-.13,1.37-.17,2.09,0,.04.02.09.05.13s.08.06.12.06c.04,0,.1,0,.13-.05.03-.03.06-.08.06-.12.03-.73.09-1.48.16-2.09,0-.04.01-.08.05-.11s.07-.04.1-.04c.04,0,.08.01.11.05s.04.07.04.1h0c-.11.92-.17,2.08-.21,3.1h0s0,.03,0,.03h0c0,.15-.05.27-.12.38s-.16.21-.28.27c-.03,0-.03.03-.05.05,0,.02-.02.04-.02.07,0,0-.03.16,0,.92,0,.34.02.57.02.67l.02.05s.04.02.05.02h.07c.15,0,.29.02.45.04h.06s.56.04.56.04l.42.03s.04,0,.05-.02c.01,0,.02-.02.03-.04.16-.9.22-1.41.22-1.41,0-.02,0-.04-.02-.06s-.04-.03-.06-.04l-.51-.1s-.07-.02-.09-.04-.04-.06-.05-.09,0-.06,0-.07c.41-3,1.48-3.95,1.48-3.95,0-.02.03-.03.05-.03.03,0,.06-.02.09-.02s.07.02.09.04.05.04.06.08c0,.03,0,.04.01.07.02.95-.14,2.55-.28,3.81-.11,1.06-.22,1.9-.22,1.9v.03s.01.01.02.03,0,.01.02.02h.02c.28.04.56.06.85.08h0c.06,0,.11-.01.16-.05.05-.03.09-.08.1-.13.23-.75.57-3.7.59-3.83.01-.05.04-.1.07-.13.03-.04.08-.06.13-.08l.76-.1c.06,0,.1-.04.14-.08s.07-.1.06-.15c-.01-.07-.03-.11-.04-.15h0Z"/><path class="cls-12" d="M124.33,139.28c-12.93-.84-21.76-14-14.67-25.78,10.47-16.83,36.04-10.65,35.01,9.94-.7,10.21-10.69,16.94-20.34,15.84h0ZM124.35,138.98c13.97,1.04,22.36-16.91,13.64-27.42-9.37-11.56-27.83-6.44-28.24,8.92-.47,8.51,5.54,17.86,14.6,18.5h0Z"/><path class="cls-12" d="M147.89,109.04c0-.6-.25-1.17-.69-1.59-.9-.87-2.33-.84-3.2.05l-17.34,17.88-6.7-9.53c-.35-.49-.87-.82-1.46-.93-.62-.11-1.2.03-1.69.38-.49.35-.82.87-.93,1.46-.1.6.03,1.2.38,1.69l8.27,11.76c.39.55.99.9,1.66.95h0s0,0,0,0c.68.05,1.33-.2,1.8-.68l19.24-19.84c.42-.43.65-1,.64-1.61Z"/><path class="cls-7" d="M86.92,169.69c2.95-5.89,6.15-11.63,9.44-17.32,1.61-2.83,3.35-5.71,4.98-8.44,1.53-2.51,1.64-5.18-.65-7.14-8.87-9.48-17.95-19.43-25.93-29.65,4.96,4.34,9.69,8.88,14.35,13.49,4.07,3.96,9.74,9.91,13.73,14.07,3.19,2.84,3.2,7.36.92,10.69-5.44,8.3-10.82,16.4-16.84,24.29h0Z"/><path class="cls-6" d="M100.47,136.36l-37.89-43.06c-1.25-1.25-2.9-1.93-4.66-1.93-1.76,0-3.42.69-4.66,1.93l-30.42,30.43c-2.57,2.57-2.57,6.75,0,9.32l46.99,50.4c.11.11.22.22.34.32,2.59,2.25,6.52,2.14,8.99-.32l21.31-37.77c2.42-3.52,2.57-6.75,0-9.32Z"/><path class="cls-7" d="M90.9,127.48c1.67,1.67,3.46,3.56,5.08,5.29.8.78.32,2.04-.9,1.72-9.14-4.52-18.05-9.46-26.89-14.52-11.09-6.48-22.53-13.35-32.99-20.79,5.94,2.7,11.72,5.67,17.46,8.73,14.48,7.76,28.99,16.24,42.69,25.29,0,0,.13.08.13.08,0,0,.06.04.06.04,0,0,.03.02.03.02-.17-.11-.37.04-.4.28-1.22-1.6-2.98-4.22-4.27-6.14h0Z"/><path class="cls-6" d="M100.5,138.99c-.46-1.7-1.55-3.12-3.08-4l-62.22-35.81c-1.53-.88-3.3-1.11-5-.65-1.7.46-3.12,1.55-4,3.08l-1.03,1.79h0l-20.43,35.5c-1.81,3.15-.73,7.19,2.43,9l62.22,35.81c.11.07.23.13.34.18,3.09,1.55,6.91.43,8.66-2.61l4.52-7.86h0s6.16-10.7,6.16-10.7h0s10.78-18.73,10.78-18.73c.88-1.53,1.11-3.3.65-5Z"/><path class="cls-7" d="M32.12,137.98c1.36.66,3.13.13,3.77-1.22.41-.68.84-1.35,1.27-2.02.75-1.44,1.76-3.22,2.61-4.75.94-1.23.83-2.99-.61-3.75,0,0-1.88-1.11-1.88-1.11-5.61-3.35-11.17-6.83-16.54-10.57-.59-.36-1.32-.52-2.04-.39.69-.25,1.5-.23,2.2.09,0,0,1.95,1,1.95,1,1.3.66,2.57,1.36,3.85,2.06,3.82,2.1,7.6,4.28,11.33,6.53,1.22.8,3.13,1.56,3.54,3.15.47,1.22.03,2.67-.71,3.64-.97,1.53-1.96,3.08-2.96,4.59-.46.61-1.03,1.35-1.46,1.87-.91,1.43-3,1.88-4.34.88h0Z"/><path class="cls-6" d="M39.05,125.65l-19.45-11.65c-.71-.42-1.54-.53-2.34-.33-.8.21-1.47.71-1.89,1.42l-.49.83h0s-4.19,6.67-4.19,6.67c-.86,1.47-.37,3.36,1.1,4.22l19.45,11.65c.05.03.11.06.16.09,1.44.74,3.23.23,4.06-1.18l1.41-2.01,3.27-5.49c.42-.71.53-1.54.33-2.34-.21-.8-.71-1.47-1.42-1.89Z"/><path class="cls-7" d="M35.01,127.28c-.21-.33-.48-.62-.79-.87-.29-.23-.63-.44-.99-.54-.69-.19-1.42-.06-2.06.25-.34.16-.65.38-.94.62-.31.27-.58.58-.78.95-.04.09-.08.17-.12.26,0,.02,0,.03,0,.05-.13.2-.24.41-.31.64-.1.32-.12.65-.06.97.02.45.12.9.29,1.32.16.4.38.8.69,1.1.27.26.6.46.96.57.79.26,1.64.16,2.4-.16.38-.16.75-.37,1.07-.63.23-.19.43-.42.57-.68.01,0,.02-.02.03-.03.11-.2.21-.42.3-.63.13-.29.23-.61.29-.92.04-.2.03-.41.01-.62-.02-.19-.05-.38-.1-.57-.1-.39-.26-.75-.47-1.09h0Z"/><path class="cls-13" d="M70.31,45.95s0-.03,0-.04c0-.38-.3-.61-.64-.64-1.37-.13-2.74-.29-4.05-.72-1.19-.39-2.21-1.06-3.06-1.96-1.69-1.82-2.53-4.31-3.12-6.69-.41-1.67-.68-3.37-.8-5.09-.03-.35-.28-.64-.64-.64-.02,0-.04,0-.06,0-.02,0-.04,0-.07,0-.33,0-.67.29-.64.64.19,2.85-.07,5.82-1.24,8.46-.99,2.23-2.61,4.19-4.75,5.38-.59.33-1.16.57-1.81.76-.83.24-1.7.34-2.53.58-.76.22-.47,1.38.26,1.25.05.03.1.06.16.08,4.82,1.76,8.02,6.27,9.39,11.07.42,1.47.69,2.98.84,4.5.03.34.27.64.64.64.28,0,.58-.22.63-.51.09-.11.16-.24.18-.39.06-.37.06-.74.12-1.08.06-.38.14-.77.24-1.14.38-1.56.97-3.07,1.72-4.48.66-1.23,1.45-2.41,2.27-3.53.35-.48.72-.94,1.16-1.43.44-.49.9-.95,1.38-1.4,1.25-1.14,2.65-2.07,4.13-2.93.28-.16.35-.44.29-.68h0ZM58.88,53.61s0-.04-.01-.05h0s0,.05,0,.05h0Z"/><path class="cls-7" d="M81.61,73.56s0-.03,0-.04c0-.49-.38-.79-.83-.83-.98-.1-2.02-.2-2.91-.65-.79-.41-1.36-1.04-1.81-1.8-1.02-1.74-1.43-3.93-1.58-5.94-.03-.45-.36-.83-.83-.83-.01,0-.02,0-.04,0-.01,0-.03,0-.04,0-.43,0-.86.38-.83.83.07,1.09.03,2.19-.19,3.26-.12.19-.2.41-.2.66,0,.05,0,.11,0,.16-.21.71-.52,1.39-.93,2.02-.47.71-1.11,1.36-1.83,1.81-.39.24-.76.42-1.18.55-.54.17-1.11.23-1.65.39-.94.27-.65,1.63.2,1.64.02,0,.04.02.06.03,3.71,1.37,5.56,5.36,5.92,9.09.04.45.35.83.83.83.32,0,.67-.23.79-.54.15-.23.15-.52.18-.8.03-.28.11-.65.2-.99.25-.22.4-.54.42-.91,0-.11.01-.21.02-.32,0-.02.01-.11.02-.17h0c.18-.46.39-.9.63-1.33.78-1.38,1.61-2.55,2.77-3.6.74-.67,1.54-1.2,2.43-1.71.33-.19.43-.49.39-.78h0Z"/><path class="cls-11" d="M58.65,30.8c-.03-.35-.28-.64-.64-.64-.02,0-.04,0-.06,0-.02,0-.04,0-.07,0-.33,0-.67.29-.64.64.19,2.85-.07,5.82-1.24,8.46-.99,2.23-2.61,4.19-4.75,5.38-.59.33-1.16.57-1.81.76-.83.24-1.7.34-2.53.58-.76.22-.47,1.38.26,1.25.05.03.1.06.16.08,3.23,1.18,5.73,3.59,7.44,6.5.16-.31.33-.62.41-.73.18-.26.15.15.26,0s.59-1.26.78-1.63c.18-.37,1.06-1.53,1.27-1.82.21-.29.91-1.24.91-1.24,0,0,1.37-2.56,1.7-3.07l.33-.52v.48s.2-.96.58-1.44c.32-.41.79-1.24,1.13-1.75-1.41-1.76-2.17-4.02-2.7-6.2-.41-1.67-.68-3.37-.8-5.09h0Z"/></g></svg>