<?xml version="1.0" encoding="UTF-8"?><svg id="uuid-2a6ab305-ded8-4721-bbc8-c7489a4acdab" xmlns="http://www.w3.org/2000/svg" width="200" height="200" xmlns:xlink="http://www.w3.org/1999/xlink" viewBox="0 0 200 200"><defs><linearGradient id="uuid-124a8e2e-b4dd-4e8f-b7b2-5a99650c6265" x1="125.64664" y1="114.46752" x2="73.46725" y2="45.98207" gradientUnits="userSpaceOnUse"><stop offset=".3988" stop-color="#ff7300"/><stop offset=".4881" stop-color="#fe7b09"/><stop offset=".6344" stop-color="#fd9022"/><stop offset=".8184" stop-color="#fab349"/><stop offset=".9457" stop-color="#f8ce69"/></linearGradient><linearGradient id="uuid-d89c2468-b61a-47f7-a374-aa84b2a7bbf5" x1="3.19825" y1="95.68504" x2="57.28002" y2="163.35519" gradientUnits="userSpaceOnUse"><stop offset="0" stop-color="#e8ad82"/><stop offset=".94846" stop-color="#c7482a"/></linearGradient><linearGradient id="uuid-1ebf4b9c-30d7-4178-a213-db88134d5525" x1="4.78091" y1="131.67772" x2="41.94511" y2="131.67772" xlink:href="#uuid-d89c2468-b61a-47f7-a374-aa84b2a7bbf5"/><linearGradient id="uuid-cab86e65-e2c1-45bf-ab2c-5bdeab7b4be5" x1="4.78091" y1="143.70337" x2="40.24659" y2="143.70337" xlink:href="#uuid-d89c2468-b61a-47f7-a374-aa84b2a7bbf5"/></defs><ellipse cx="66.485" cy="181.59137" rx="46.17529" ry="5.35034" fill="#090909" opacity=".8"/><path d="M4.78089,112.81527s72.96962-10.59894,140.63977-68.8931l49.73348,61.14773s-65.63189,44.02636-154.90757,68.0778L4.78089,112.81527Z" fill="#dd542a"/><path d="M179.3505,102.68505c.1041-1.34092.77256-2.51052,1.76926-3.31853l-33.88459-40.17282c-.99616.79156-2.31078,1.22676-3.71689,1.1176-1.47212-.11429-2.75086-.80421-3.61644-1.81337-52.58055,40.37385-104.07258,53.01728-119.71484,57.77237.38903.56146.59093,1.19077.54033,1.84254-.10634,1.36974-1.28421,2.47692-2.93138,2.96586l23.33041,41.1027c.78308-.25056,1.67643-.36269,2.61749-.28963,1.95849.15205,3.60145,1.05244,4.38398,2.25019,61.94258-17.89875,118.62653-47.77018,132.48042-57.88205-.87342-.95496-1.36272-2.22281-1.25776-3.57486Z" fill="none" stroke="#f75e28" stroke-miterlimit="10" stroke-width="3.40193"/><path d="M4.78089,103.03164s72.34065-10.9752,140.0108-69.26937l50.36245,48.07149s-64.00129,52.9947-153.27696,77.04613L4.78089,103.03164Z" fill="#f75e28"/><path d="M178.45884,82.18685c.1041-1.34092.77256-2.51052,1.76926-3.31853l-33.86715-31.68494c-.99616.79156-2.31078,1.22676-3.71689,1.1176-1.47212-.11429-2.75086-.80421-3.61644-1.81337-52.58055,40.37385-103.19139,54.00705-118.83365,58.76214.38903.56146.59093,1.19077.54033,1.84254-.10634,1.36974-1.28421,2.47692-2.93138,2.96586l25.22111,38.06185c.78308-.25056,1.67643-.36269,2.61749-.28963,1.95849.15205,3.60145,1.05244,4.38398,2.25019,61.94258-17.89875,115.83719-54.20699,129.69109-64.31886-.87342-.95496-1.36272-2.22281-1.25776-3.57486Z" fill="none" stroke="#ff8000" stroke-miterlimit="10" stroke-width="3.40193"/><path d="M4.78089,95.28626S78.15817,69.60421,145.82831,11.31005l44.84167,48.10288s-62.77833,57.47886-147.16219,87.64507L4.78089,95.28626Z" fill="url(#uuid-124a8e2e-b4dd-4e8f-b7b2-5a99650c6265)"/><path d="M175.3287,60.50074c0-1.34496.57593-2.56278,1.5071-3.44552l-30.73074-32.51566c-.93191.86628-2.20889,1.40194-3.61923,1.40194-1.47655,0-2.80485-.58888-3.74595-1.52801C90.12656,65.12229,35.03494,89.20726,19.80766,95.15881c.43132.52966.68132,1.14146.68132,1.79519,0,1.37386-1.08864,2.56889-2.69303,3.18386l28.09148,35.99552c.76133-.31042,1.64333-.49136,2.58722-.49136,1.96439,0,3.6721.77053,4.545,1.90411,60.37137-22.63949,110.81006-62.42477,123.83973-73.57861-.94471-.8845-1.53068-2.11067-1.53068-3.46678Z" fill="none" stroke="#fff" stroke-miterlimit="10" stroke-width="3.40193"/><path d="M122.405,70.99887c-2.42666-4.08532-7.38479-6.0846-13.95886-5.63058-4.60234.31806-9.71912,1.82831-14.70879,4.31112l-2.24619-3.45328-5.03751,12.26586,13.33434.48969-1.81901-2.79657c3.81446-1.7933,7.6813-2.90865,11.00758-3.13852,3.42432-.24,5.97032.46723,6.81143,1.88302,1.56265,2.63077-1.68552,7.91346-5.70192,11.77198l5.33245,5.55043c7.7012-7.39911,10.37821-15.54288,6.98648-21.25316Z" fill="#f75e28"/><path d="M98.9482,94.24724c-3.77516,1.76005-7.59551,2.85349-10.88659,3.08094-3.42542.2378-5.97032-.46767-6.81121-1.88302-1.21014-2.03715.54892-7.01774,6.19227-12.23481l-5.22456-5.65172c-8.1801,7.56248-11.08633,15.92248-7.58472,21.81728,2.20031,3.7044,6.48181,5.69399,12.16325,5.69399.58393,0,1.18262-.02114,1.79539-.06341,4.51052-.31178,9.51498-1.7704,14.40986-4.16557l2.47177,4.02047,4.62615-14.50107-12.59548,1.53843,1.44386,2.3485Z" fill="#f75e28"/><ellipse cx="55.82717" cy="108.53493" rx="6.08029" ry="3.36357" transform="translate(-34.26183 26.19128) rotate(-20.35194)" fill="#fff"/><ellipse cx="137.89063" cy="59.41292" rx="6.08029" ry="3.36357" transform="translate(-9.74374 86.75911) rotate(-33.80367)" fill="#fff"/><path d="M122.405,70.51761c-2.42666-4.08532-7.38479-6.0846-13.95886-5.63058-4.60234.31806-9.71912,1.82831-14.70879,4.31112l-2.24619-3.45328-5.03751,12.26586,13.33434.48969-1.81901-2.79657c3.81446-1.7933,7.6813-2.90865,11.00758-3.13852,3.42432-.24,5.97032.46723,6.81143,1.88302,1.56265,2.63077-1.68552,7.91346-5.70192,11.77198l5.33245,5.55043c7.7012-7.39911,10.37821-15.54288,6.98648-21.25316Z" fill="#fff"/><path d="M98.9482,93.76598c-3.77516,1.76005-7.59551,2.85349-10.88659,3.08094-3.42542.2378-5.97032-.46767-6.81121-1.88302-1.21014-2.03715.54892-7.01774,6.19227-12.23481l-5.22456-5.65172c-8.1801,7.56248-11.08633,15.92248-7.58472,21.81728,2.20031,3.7044,6.48181,5.69399,12.16325,5.69399.58393,0,1.18262-.02114,1.79539-.06341,4.51052-.31178,9.51498-1.7704,14.40986-4.16557l2.47177,4.02047,4.62615-14.50107-12.59548,1.53843,1.44386,2.3485Z" fill="#fff"/><polygon points="4.78091 95.28624 4.78091 96.73001 43.50779 148.50171 43.50779 147.05794 4.78091 95.28624" fill="url(#uuid-d89c2468-b61a-47f7-a374-aa84b2a7bbf5)"/><path d="M43.50779,147.05794v1.44377c84.38386-30.16616,147.16218-87.64503,147.16218-87.64503v-1.44377s-62.77832,57.47886-147.16218,87.64503Z" fill="#c64528"/><path d="M41.87717,158.87997L4.78091,103.03169v1.44377l37.09627,55.84828c.02274-.00611.04521-.01269.06794-.0188v-1.44377c-.02274.00611-.04521.01269-.06794.0188Z" fill="url(#uuid-1ebf4b9c-30d7-4178-a213-db88134d5525)"/><path d="M195.15413,81.83374s-63.96892,52.96744-153.20902,77.02743v1.44377c89.2401-24.05999,153.20902-77.02743,153.20902-77.02743v-1.44377Z" fill="#c64528"/><polygon points="4.78091 112.8152 4.78091 114.25897 40.24659 174.59153 40.24659 173.14776 4.78091 112.8152" fill="url(#uuid-cab86e65-e2c1-45bf-ab2c-5bdeab7b4be5)"/><path d="M40.24659,173.14776v1.44377c89.27567-24.05153,154.90755-68.07778,154.90755-68.07778v-1.44389s-65.63187,44.02637-154.90755,68.0779Z" fill="#c64528"/></svg>