<?xml version="1.0" encoding="UTF-8"?><svg id="uuid-3527ac5f-b215-49a3-9597-320664f97f12" xmlns="http://www.w3.org/2000/svg" width="200" height="200" xmlns:xlink="http://www.w3.org/1999/xlink" viewBox="0 0 200 200"><defs><linearGradient id="uuid-55c1f94d-74a7-4483-9209-1b0d5ddc50e7" x1="-1666.53441" y1="112.5853" x2="-1592.36724" y2="112.5853" gradientTransform="translate(-1529.98243) rotate(-180) scale(1 -1)" gradientUnits="userSpaceOnUse"><stop offset=".08682" stop-color="#c64528"/><stop offset=".39939" stop-color="#e25328"/><stop offset=".67113" stop-color="#f75e28"/><stop offset=".72882" stop-color="#f7602b"/><stop offset=".77489" stop-color="#f76735"/><stop offset=".81697" stop-color="#f87446"/><stop offset=".85667" stop-color="#f9865d"/><stop offset=".8947" stop-color="#fa9d7c"/><stop offset=".93147" stop-color="#fbb9a2"/><stop offset=".96655" stop-color="#fddacd"/><stop offset="1" stop-color="#fff"/></linearGradient><linearGradient id="uuid-0266c42b-ef32-4e88-af67-d74acc0e8b93" x1="-1665.88219" y1="49.57475" x2="-1665.68268" y2="49.47533" gradientTransform="translate(-1529.98243) rotate(-180) scale(1 -1)" gradientUnits="userSpaceOnUse"><stop offset="0" stop-color="#f75e28"/><stop offset=".1925" stop-color="#fa6e14"/><stop offset=".43161" stop-color="#ff8000"/><stop offset=".55799" stop-color="#ffa143"/><stop offset=".71849" stop-color="#ffc992"/><stop offset=".85091" stop-color="#ffe6cd"/><stop offset=".9482" stop-color="#fff8f1"/><stop offset="1" stop-color="#fff"/></linearGradient><linearGradient id="uuid-d6d6b809-25d2-42dc-8dc7-b108d3918351" x1="103.27255" y1="125.13722" x2="24.39828" y2="43.07611" gradientUnits="userSpaceOnUse"><stop offset=".03732" stop-color="#ff5b00"/><stop offset=".23457" stop-color="#ff7300"/><stop offset=".32666" stop-color="#fd8818"/><stop offset=".61086" stop-color="#f9c761"/><stop offset=".65483" stop-color="#fad17f"/><stop offset=".79368" stop-color="#fdf2da"/><stop offset=".85643" stop-color="#fff"/></linearGradient><linearGradient id="uuid-8adec46e-11b2-4f72-a3c8-7d79a0b099b8" x1="-1608.22942" y1="51.34292" x2="-1702.76696" y2="95.26652" gradientTransform="translate(-1529.98243) rotate(-180) scale(1 -1)" gradientUnits="userSpaceOnUse"><stop offset=".01825" stop-color="#fdfdfd"/><stop offset=".04366" stop-color="#f6f6f6"/><stop offset=".24552" stop-color="#cacaca"/><stop offset=".40184" stop-color="#afaeae"/><stop offset=".49267" stop-color="#a5a4a4"/></linearGradient><linearGradient id="uuid-00dc1850-1f22-428a-b1b4-9be5146c8667" x1="-1631.11546" y1="164.68008" x2="-1592.36724" y2="164.68008" gradientTransform="translate(-1529.98243) rotate(-180) scale(1 -1)" gradientUnits="userSpaceOnUse"><stop offset=".08477" stop-color="#f75e28"/><stop offset=".4828" stop-color="#fa6e14"/><stop offset=".97721" stop-color="#ff8000"/></linearGradient><linearGradient id="uuid-186aa88e-c83a-4159-9049-ddc6f37f0c79" x1="-1638.4902" y1="122.29075" x2="-1589.19174" y2="91.09407" gradientTransform="translate(-1529.98243) rotate(-180) scale(1 -1)" gradientUnits="userSpaceOnUse"><stop offset=".37725" stop-color="#c64528"/><stop offset=".73997" stop-color="#eb6b0d"/><stop offset=".97721" stop-color="#ff8000"/></linearGradient><linearGradient id="uuid-3d5a365e-8897-4fc0-8015-a6cc08538a21" x1="-1614.45835" y1="82.55158" x2="-1639.57553" y2="-3.20355" gradientTransform="translate(-1529.98243) rotate(-180) scale(1 -1)" gradientUnits="userSpaceOnUse"><stop offset=".13307" stop-color="#ff8000" stop-opacity="0"/><stop offset=".1855" stop-color="#f67906" stop-opacity=".12002"/><stop offset=".2948" stop-color="#e06a15" stop-opacity=".42987"/><stop offset=".4506" stop-color="#bc512f" stop-opacity=".92298"/><stop offset=".47389" stop-color="#b74e33"/></linearGradient></defs><ellipse cx="68.37614" cy="181.59137" rx="37.02248" ry="5.35034" fill="#090909" opacity=".8"/><path d="M128.42357,63.29469c.27694-1.64182,1.13771-4.89552,2.24759-7.50148,1.6847-3.95553,4.01258-6.75235,5.19949-6.24684,1.18689.50552.78336,4.1219-.90132,8.07746-1.1111,2.60877-2.50042,4.70607-3.65922,5.69188l-30.17708,112.36754-38.74822-10.98066,66.03876-101.40791Z" fill="url(#uuid-55c1f94d-74a7-4483-9209-1b0d5ddc50e7)"/><path d="M135.73155,49.50478c.04776.00978.09449.0226.13911.0416l-.13911-.0416Z" fill="url(#uuid-0266c42b-ef32-4e88-af67-d74acc0e8b93)"/><path d="M67.71887,43.3116h-.00002.00002l.00002-.00002.00003.00002c.15876.06951-1.27699-2.57805-.20679-6.50449,1.1306-4.14804,4.40485-6.53771,5.59174-6.03219l62.62767,18.72985c-1.22241-.25046-3.43902,2.4816-5.06037,6.28845-1.6847,3.95555-2.2476,7.50146-2.2476,7.50146l-66.03876,101.40791L3.32035,130.54944,67.71887,43.3116Z" fill="url(#uuid-d6d6b809-25d2-42dc-8dc7-b108d3918351)"/><path d="M96.95083,37.83642c-1.1869-.50551-3.40584.62214-5.37752,4.44274-1.7944,3.47709-2.61679,8.07473-1.42988,8.58024l-16.34892,22.48417,11.51508,4.39558,16.29377-23.55315c-1.1869-.50551-.78337-4.12191.90132-8.07746,1.68469-3.95555,4.57413-5.3933,5.76104-4.88779l-11.31489-3.38433Z" fill="url(#uuid-8adec46e-11b2-4f72-a3c8-7d79a0b099b8)"/><polygon points="101.13303 175.68326 62.38482 164.7026 87.3915 153.67689 101.13303 175.68326" fill="url(#uuid-00dc1850-1f22-428a-b1b4-9be5146c8667)"/><path d="M87.3915,153.67689l-25.00669,11.02571s61.70398-94.38669,66.03876-101.40791c1.9849,3.37836-41.03207,90.3822-41.03207,90.3822Z" fill="url(#uuid-186aa88e-c83a-4159-9049-ddc6f37f0c79)"/><path d="M41.26673,105.1793l1.73026.96617,3.77849-6.21341-1.39372-.77821,4.21347-6.92846,1.39372.77821,2.07312-3.40888c4.31339-7.09339,9.41056-10.28757,13.1831-8.18103,2.28299,1.27485,2.40186,4.36131,1.86658,6.93515l-6.17329,4.43448c.26039-1.32797.09435-2.37808-.79455-2.87473-.74478-.41566-2.30379-.18164-4.17632,2.89776l-1.60508,2.63922,3.48429,1.94571-4.21347,6.92809-3.48429-1.94533-3.77849,6.21341,2.78743,1.55642c.79307.44278,1.5787-.00223,2.69791-1.36623l1.61213,5.02511c-3.66296,4.80483-6.70633,6.05182-9.32587,4.58901l-8.89126-4.96456,5.01582-8.24789Z" fill="#fff"/><path d="M62.49714,104.14367c5.58452-9.18285,13.76815-17.13506,18.86272-14.29042,5.0942,2.84464,1.90893,13.58762-3.67522,22.77047-5.58452,9.18248-13.76815,17.13506-18.86235,14.29042-5.09457-2.84464-1.9093-13.58762,3.67485-22.77047ZM73.21449,110.12788c3.64476-5.9935,4.49689-10.3054,2.69494-11.31169-1.80232-1.00628-5.29739,1.82944-8.94215,7.82331-3.64513,5.9935-4.49689,10.30578-2.69457,11.31169,1.80195,1.00666,5.29701-1.82981,8.94178-7.82331Z" fill="#fff"/><polygon points="128.42357 63.29469 67.71886 43.3116 51.04657 65.89684 114.05678 85.25246 128.42357 63.29469" fill="url(#uuid-3d5a365e-8897-4fc0-8015-a6cc08538a21)"/><line x1="167.56085" y1="153.67689" x2="133.78209" y2="153.67689" fill="none" stroke="#ff8000" stroke-miterlimit="10" stroke-width="6.91913"/><line x1="179.17826" y1="121.81357" x2="147.05096" y2="121.81357" fill="none" stroke="#ff8000" stroke-miterlimit="10" stroke-width="6.91913"/><line x1="193.42115" y1="89.95025" x2="133.78209" y2="89.95025" fill="none" stroke="#ff8000" stroke-miterlimit="10" stroke-width="6.91913"/></svg>