<svg xmlns="http://www.w3.org/2000/svg" width="200" height="200" xmlns:xlink="http://www.w3.org/1999/xlink"><defs><linearGradient id="l" x1="1763.427" y1="-4728.343" x2="1734.5" y2="-4742.244" gradientTransform="rotate(-41.169 7283.41 -206.185)" xlink:href="#a"/><linearGradient id="d" x1="195.607" y1="129.535" x2="16.12" y2="44.908" gradientUnits="userSpaceOnUse"><stop offset=".113" stop-color="#c64528"/><stop offset=".324" stop-color="#f75e28"/><stop offset=".576" stop-color="#fa6e14"/><stop offset=".89" stop-color="#ff8000"/><stop offset=".908" stop-color="#fe8103"/><stop offset=".922" stop-color="#fe870d"/><stop offset=".935" stop-color="#fe911d"/><stop offset=".947" stop-color="#fd9e35"/><stop offset=".959" stop-color="#fdb054"/><stop offset=".971" stop-color="#fcc57a"/><stop offset=".981" stop-color="#fbdea5"/><stop offset=".985" stop-color="#fbe7b4"/></linearGradient><linearGradient id="f" x1="-1133.959" y1="2506.312" x2="-1090.083" y2="2655.178" gradientTransform="rotate(-10.049 -14454.748 -5535.786)" gradientUnits="userSpaceOnUse"><stop offset=".018" stop-color="#fdfdfd"/><stop offset=".044" stop-color="#f6f6f6"/><stop offset=".246" stop-color="#cacaca"/><stop offset=".402" stop-color="#afaeae"/><stop offset=".493" stop-color="#a5a4a4"/><stop offset=".512" stop-color="#aaa9a9"/><stop offset=".682" stop-color="#d7d6d6"/><stop offset=".814" stop-color="#f2f2f2"/><stop offset=".89" stop-color="#fdfdfd"/></linearGradient><linearGradient id="g" x1="20.53" y1="85.114" x2="198.875" y2="102.449" gradientUnits="userSpaceOnUse"><stop offset=".018" stop-color="#fff"/><stop offset=".253" stop-color="#f0f0f0"/><stop offset=".494" stop-color="#e6e6e6"/></linearGradient><linearGradient id="a" x1="161.742" y1="159.668" x2="-2.269" y2="80.853" gradientUnits="userSpaceOnUse"><stop offset=".085" stop-color="#f75e28"/><stop offset=".342" stop-color="#fa6e14"/><stop offset=".66" stop-color="#ff8000"/><stop offset=".697" stop-color="#fe8407"/><stop offset=".752" stop-color="#fe8f1b"/><stop offset=".819" stop-color="#fda23c"/><stop offset=".894" stop-color="#fcbd6b"/><stop offset=".975" stop-color="#fbdea5"/><stop offset=".994" stop-color="#fbe7b4"/></linearGradient><linearGradient id="h" x1="180.848" y1="67.872" x2="145.166" y2="50.725" xlink:href="#a"/><linearGradient id="i" x1="180.848" y1="67.872" x2="145.166" y2="50.725" gradientTransform="rotate(48.831 163.112 59.906)" xlink:href="#a"/><linearGradient id="b" x1="-761.779" y1="2849.939" x2="-727.37" y2="2876.682" gradientTransform="scale(1 -1) rotate(15.509 10435.163 4731.523)" gradientUnits="userSpaceOnUse"><stop offset="0" stop-color="#fff"/><stop offset=".018" stop-color="#f5ebe0"/><stop offset=".047" stop-color="#e9cfb4"/><stop offset=".078" stop-color="#ddb68e"/><stop offset=".111" stop-color="#d4a16d"/><stop offset=".146" stop-color="#cc9053"/><stop offset=".185" stop-color="#c6833f"/><stop offset=".229" stop-color="#c27a30"/><stop offset=".281" stop-color="#bf7428"/><stop offset=".369" stop-color="#bf7326"/><stop offset=".547" stop-color="#bf7428"/><stop offset=".638" stop-color="#c17930"/><stop offset=".709" stop-color="#c5823d"/><stop offset=".77" stop-color="#cb8e50"/><stop offset=".824" stop-color="#d29e68"/><stop offset=".874" stop-color="#dbb187"/><stop offset=".92" stop-color="#e6c8ab"/><stop offset=".962" stop-color="#f2e3d3"/><stop offset="1" stop-color="#fff"/></linearGradient><linearGradient id="j" x1="180.162" y1="68.1" x2="148.458" y2="52.864" gradientTransform="rotate(48.831 163.112 59.906)" xlink:href="#a"/><linearGradient id="s" x1="1375.442" y1="-1404.276" x2="1349.074" y2="-1368.868" gradientTransform="rotate(-73.665 1749.911 192.496)" gradientUnits="userSpaceOnUse"><stop offset=".082" stop-color="#c64528"/><stop offset=".144" stop-color="#cb4728" stop-opacity=".883"/><stop offset=".273" stop-color="#da4f28" stop-opacity=".583"/><stop offset=".459" stop-color="#f15b28" stop-opacity=".105"/><stop offset=".498" stop-color="#f75e28" stop-opacity="0"/></linearGradient><linearGradient id="k" x1="1763.427" y1="-4728.343" x2="1734.5" y2="-4742.244" gradientTransform="rotate(-58.997 5152.032 -927.936)" xlink:href="#a"/><linearGradient id="e" x1="18.138" y1="95.484" x2="47.379" y2="72.557" gradientUnits="userSpaceOnUse"><stop offset="0" stop-color="#c64528"/><stop offset="1" stop-color="#f75e28" stop-opacity="0"/></linearGradient><linearGradient id="m" x1="2051.851" y1="7048.126" x2="2079.747" y2="7069.806" gradientTransform="scale(1 -1) rotate(74.506 5759.529 2245.746)" xlink:href="#b"/><linearGradient id="n" x1="150.176" y1="37.836" x2="122.307" y2="18.304" gradientTransform="rotate(17.827 136.198 28.04)" xlink:href="#a"/><linearGradient id="r" x1="-1083.863" y1="2557.613" x2="-1052.834" y2="2551.569" gradientTransform="rotate(-10.049 -14454.748 -5535.786)" gradientUnits="userSpaceOnUse"><stop offset="0" stop-color="#f75e28"/><stop offset=".194" stop-color="#fa6e14"/><stop offset=".435" stop-color="#ff8000"/><stop offset=".528" stop-color="#ff8103"/><stop offset=".601" stop-color="#ff860d"/><stop offset=".669" stop-color="#ff8e1e"/><stop offset=".732" stop-color="#ff9a35"/><stop offset=".793" stop-color="#ffaa54"/><stop offset=".852" stop-color="#ffbc7a"/><stop offset=".909" stop-color="#ffd3a6"/><stop offset=".964" stop-color="#ffecd9"/><stop offset="1" stop-color="#fff"/></linearGradient><radialGradient id="p" cx="76.435" cy="106.649" fx="76.435" fy="106.649" r="58.738" gradientUnits="userSpaceOnUse"><stop offset="0" stop-color="#fff"/><stop offset=".034" stop-color="#ffecd8"/><stop offset=".083" stop-color="#ffd4a7"/><stop offset=".133" stop-color="#ffc07d"/><stop offset=".184" stop-color="#ffb05a"/><stop offset=".235" stop-color="#ffa340"/><stop offset=".287" stop-color="#ff9a2d"/><stop offset=".34" stop-color="#ff9421"/><stop offset=".397" stop-color="#ff931e"/><stop offset="1" stop-color="#ff7300"/></radialGradient><radialGradient id="q" cx="-1081.94" cy="2587.69" fx="-1081.94" fy="2587.69" r="37.664" gradientTransform="rotate(-10.049 -14454.748 -5535.786)" gradientUnits="userSpaceOnUse"><stop offset=".082" stop-color="#c64528"/><stop offset=".174" stop-color="#cd4828" stop-opacity=".854"/><stop offset=".374" stop-color="#df5128" stop-opacity=".481"/><stop offset=".612" stop-color="#f75e28" stop-opacity="0"/></radialGradient><radialGradient id="o" cx="125.503" cy="21.835" fx="125.503" fy="21.835" r="12.832" xlink:href="#c"/><radialGradient id="c" cx="148.489" cy="51.878" fx="148.489" fy="51.878" r="17.04" gradientUnits="userSpaceOnUse"><stop offset="0" stop-color="#fff"/><stop offset="0" stop-color="#ffecd8"/><stop offset="0" stop-color="#ffd4a7"/><stop offset="0" stop-color="#ffc07d"/><stop offset="0" stop-color="#ffb05a"/><stop offset="0" stop-color="#ffa340"/><stop offset="0" stop-color="#ff9a2d"/><stop offset="0" stop-color="#ff9421"/><stop offset="0" stop-color="#ff931e"/><stop offset="1" stop-color="#ff7300"/></radialGradient><radialGradient id="t" cx="-90.554" cy="-236.869" fx="-90.554" fy="-236.869" r="13.906" gradientTransform="rotate(9.548 -2097.583 1126.14)" gradientUnits="userSpaceOnUse"><stop offset=".281" stop-color="#a5a4a4"/><stop offset=".454" stop-color="#b1afaf"/><stop offset=".766" stop-color="#d0cfcd"/><stop offset="1" stop-color="#edebe8"/></radialGradient><radialGradient id="u" cx="128.992" cy="111.398" fx="128.992" fy="111.398" r="18.078" xlink:href="#c"/><radialGradient id="v" cx="121.026" cy="92.337" fx="121.026" fy="92.337" r="17.891" xlink:href="#c"/></defs><ellipse cx="73.394" cy="181.591" rx="37.022" ry="5.35" fill="#090909" opacity=".8"/><path d="m155.24 111.458-23.774-52.43c-4.908-10.822-17.075-16.334-28.447-12.885L21.522 70.86C12.125 73.867 5.54 79.532 6.814 83.513c1.274 3.98 9.925 4.769 19.322 1.76l66.693-20.95c10.434-3.277 21.664 1.81 26.08 11.816l26.115 59.176c1.98 4.487.108 10.813-2.506 12.707 0 0 7.655-4.242 8.5-10.758 0 0 13.27-5.902 4.222-25.806z" fill="#f6c243"/><path d="m154.376 112.541-23.774-52.43c-4.908-10.822-17.075-16.334-28.447-12.885L20.658 71.942C11.26 74.95 4.676 78.615 5.95 82.596c1.274 3.98 9.925 6.769 19.322 3.76l66.693-20.95c10.434-3.278 21.664 1.81 26.08 11.816l26.115 59.176c1.98 4.487.108 10.813-2.506 12.707 0 0 7.655-4.242 8.5-10.758 0 0 13.27-5.902 4.222-25.806z" fill="url(#d)"/><path d="M21.522 71.966C12.125 74.974 5.54 80.64 6.814 84.62c1.274 3.98 9.925 4.769 19.322 1.76L90 62.972c2.743-13.515-68.48 8.995-68.48 8.995z" fill="url(#e)"/><path d="M148.394 127.382s2.774 6.42 1.76 10.965c0 0 4.52-4.741 1.558-12.22-1.957-4.94-16.064-37.864-25.43-59.55-4.615-10.684-16.546-16.167-27.659-12.71l-78.65 24.474c-.65.202-1.24.563-1.717 1.05-.379.386.007 1.023.525.866l74.634-22.658c12.452-3.78 25.76 2.379 30.935 14.319l24.044 55.464z" fill="url(#f)"/><path d="M148.394 127.382s2.774 6.42 1.76 10.965c0 0 4.52-4.741 1.558-12.22-1.957-4.94-16.064-37.864-25.43-59.55-4.615-10.684-16.546-16.167-27.659-12.71l-78.65 24.474c-.65.202-1.24.563-1.717 1.05-.379.386.007 1.023.525.866l74.634-22.658c12.452-3.78 25.76 2.379 30.935 14.319l24.044 55.464z" fill="url(#g)"/><path d="M6.184 84.672c.047.185.124.359.21.522.04.084.092.16.138.24.049.077.102.15.152.226.212.292.459.542.712.764.511.443 1.06.763 1.586 1.005.065.03.13.063.195.09l.195.079c.13.05.254.107.38.146.253.083.492.17.727.228l.341.092c.111.03.221.049.327.072.213.043.413.093.604.118l.537.084c.167.023.323.037.467.053l.396.043.325.021.577.036a28.153 28.153 0 0 0 3.769-.121 41.132 41.132 0 0 0 3.94-.57c.654-.115 1.3-.26 1.95-.4.324-.065.647-.15.97-.226l.972-.235h.002l4.782-1.393L42.79 81.91l12.342-3.675 12.332-3.71 12.324-3.74 12.316-3.768 2.593-.795.002-.001a17.953 17.953 0 0 1 5.64-.777c1.217.036 2.43.198 3.615.48a17.864 17.864 0 0 1 5.427 2.309 17.313 17.313 0 0 1 4.35 3.965l.17.215.16.222.32.445.298.46.15.229.137.236.278.472.255.485.128.243.116.248.233.496v.002l3.267 7.413 5.228 11.766c1.757 3.916 3.502 7.837 5.272 11.746l2.648 5.868 2.66 5.863 5.332 11.72 3.006 6.59v.002c.593 1.293.93 2.701.978 4.134l.002.197c0 .131.007.328-.008.59a11.04 11.04 0 0 1-.346 2.35c-.271 1.027-.754 2.3-1.692 3.647-.931 1.345-2.356 2.735-4.413 3.813a10.106 10.106 0 0 0 3.053-1.229c.11-.068.223-.133.33-.203l.314-.217.155-.108.148-.115.293-.226c.094-.077.184-.158.275-.237.089-.08.183-.154.266-.238l.252-.244c.085-.079.164-.161.24-.246.155-.167.307-.33.444-.5l.207-.25c.066-.084.128-.17.192-.254l.185-.25.168-.254.164-.248.148-.25.145-.245c.045-.082.088-.164.13-.245.084-.162.168-.319.237-.478.07-.158.145-.31.206-.462l.176-.444c.418-1.165.572-2.096.642-2.714.04-.31.049-.544.058-.7l.014-.234a11.848 11.848 0 0 0-.952-5.027v-.002l-2.843-6.662-5.064-11.838-2.54-5.916-2.55-5.911c-1.695-3.944-3.416-7.875-5.124-11.812l-5.169-11.793-3.275-7.409v-.001l-.275-.584-.137-.292-.15-.285-.302-.57-.328-.557-.165-.277-.177-.27-.355-.539-.38-.522-.19-.26-.202-.253a20.4 20.4 0 0 0-5.148-4.633 20.727 20.727 0 0 0-3.081-1.599 20.693 20.693 0 0 0-7.545-1.574 20.894 20.894 0 0 0-6.572.973h-.002l-2.58.83-12.252 3.95-12.243 3.976-12.234 4.008-12.225 4.042-12.214 4.081-4.72 1.593h-.003l-.936.27c-.312.09-.622.185-.94.264-.63.165-1.261.337-1.898.478l-.477.111-.238.056-.24.049-.958.195c-.32.065-.642.114-.963.17-.16.028-.321.058-.482.083l-.484.069a27.552 27.552 0 0 1-3.677.307l-.565-.007-.318-.004-.387-.022c-.14-.01-.294-.015-.457-.029l-.526-.055c-.188-.015-.384-.054-.593-.085-.104-.018-.213-.03-.322-.053l-.335-.07c-.232-.043-.467-.115-.718-.18-.125-.032-.248-.08-.376-.122l-.195-.065c-.065-.023-.128-.05-.194-.077a6.46 6.46 0 0 1-1.596-.887 4.747 4.747 0 0 1-.74-.705c-.054-.07-.111-.14-.164-.213-.05-.075-.105-.147-.15-.227a2.37 2.37 0 0 1-.242-.505z" fill="#f8ce69"/><path d="M94.437 63.898c9.326-2.93 19.363 1.618 23.31 10.561l27.184 61.598c2.66 6.025-.339 13.042-6.531 15.286L57.002 174.76a13.325 13.325 0 0 1-15.95-7.601L5.72 81.88s1.615 8.721 19.461 3.773l69.255-21.755z" fill="url(#a)"/><path d="M173.607 42.07c-5.928-5.184-16.733-2.524-24.134 5.94-7.402 8.463-8.597 19.527-2.67 24.71l2.906 2.504c5.927 5.184 16.732 2.524 24.134-5.94 7.401-8.463 8.596-19.527 2.669-24.71l-2.905-2.504z" fill="url(#h)"/><ellipse cx="163.112" cy="59.906" rx="20.358" ry="14.257" transform="rotate(-48.831 163.112 59.906)" fill="url(#i)"/><path d="M173.607 42.07c-5.928-5.184-16.733-2.524-24.134 5.94-7.402 8.463-8.597 19.527-2.67 24.71l2.906 2.504c5.927 5.184 16.732 2.524 24.134-5.94 7.401-8.463 8.596-19.527 2.669-24.71l-2.905-2.504z" fill="url(#b)"/><ellipse cx="163.112" cy="59.906" rx="20.358" ry="14.257" transform="rotate(-48.831 163.112 59.906)" fill="url(#j)"/><path d="M176.512 44.54a9.249 9.249 0 0 0-2.079-1.465c-.253-.134-.449-.221-.579-.281l-.197-.086c-1.056-.45-2.19-.72-3.338-.853a15.58 15.58 0 0 0-1.146-.08 16.13 16.13 0 0 0-2.318.102 18.938 18.938 0 0 0-3.392.723c-.552.172-1.098.366-1.635.58a24.246 24.246 0 0 0-4.574 2.458 26.839 26.839 0 0 0-2.726 2.136 29.51 29.51 0 0 0-2.432 2.46h-.001a29.373 29.373 0 0 0-2.15 2.795 26.75 26.75 0 0 0-1.775 3.05 24.21 24.21 0 0 0-1.339 3.27c-.181.56-.345 1.127-.483 1.7a21.927 21.927 0 0 0-.341 1.737 18.529 18.529 0 0 0-.215 3.26c.036 1.272.208 2.542.564 3.763.166.565.365 1.121.607 1.657.243.536.523 1.053.847 1.54l.03.046c.02.03.05.076.092.136l.158.223.23.305c.36.455.935 1.125 1.856 1.81a11.184 11.184 0 0 1-1.55-2.02l-.183-.32-.123-.232c-.034-.061-.056-.109-.071-.14l-.024-.047a12.157 12.157 0 0 1-1.043-3.157 13.588 13.588 0 0 1-.22-1.77 16.09 16.09 0 0 1-.013-1.782c.047-1.019.188-2.032.397-3.03a23.164 23.164 0 0 1 .927-3.178c.388-1.035.841-2.046 1.36-3.022.261-.488.53-.971.819-1.444a27.5 27.5 0 0 1 .907-1.39 28.377 28.377 0 0 1 2.042-2.618v-.001a28.55 28.55 0 0 1 2.276-2.332 27.162 27.162 0 0 1 2.52-2.06 25.608 25.608 0 0 1 2.75-1.739 23.544 23.544 0 0 1 2.954-1.355 19.428 19.428 0 0 1 3.125-.888c.713-.139 1.434-.228 2.159-.275.359-.02.719-.027 1.079-.023 1.087.017 2.176.16 3.233.457l.198.057c.131.041.33.1.588.197.13.044.273.106.433.17.159.069.333.144.521.234.377.178.804.415 1.275.723z" fill="url(#c)"/><path d="M128.186 13.299c-6.077 1.954-8.741 10.573-5.95 19.25 2.79 8.678 9.98 14.128 16.056 12.174l2.954-.973c6.077-1.954 8.74-10.573 5.95-19.251s-9.98-14.128-16.056-12.173l-2.954.973z" fill="url(#k)"/><ellipse cx="136.198" cy="28.039" rx="11.559" ry="16.505" transform="rotate(-17.827 136.198 28.04)" fill="url(#l)"/><path d="M128.186 13.299c-6.077 1.954-8.741 10.573-5.95 19.25 2.79 8.678 9.98 14.128 16.056 12.174l2.954-.973c6.077-1.954 8.74-10.573 5.95-19.251s-9.98-14.128-16.056-12.173l-2.954.973z" fill="url(#m)"/><ellipse cx="136.198" cy="28.039" rx="11.559" ry="16.505" transform="rotate(-17.827 136.198 28.04)" fill="url(#n)"/><path d="M131.247 12.3a7.498 7.498 0 0 0-1.887.832c-.198.12-.34.22-.437.285l-.141.101c-.38.27-.729.58-1.06.91-.33.33-.64.682-.927 1.053a12.512 12.512 0 0 0-1.431 2.417c-.389.854-.69 1.747-.914 2.658-.224.912-.372 1.84-.449 2.775-.029.324-.045.65-.059.974-.017.612-.008 1.224.026 1.835.053.935.174 1.866.346 2.786.175.919.412 1.825.693 2.716v.002c.298.905.64 1.797 1.045 2.66.406.864.861 1.705 1.378 2.508a19.625 19.625 0 0 0 1.713 2.295 17.479 17.479 0 0 0 2.045 2.009 14.832 14.832 0 0 0 2.368 1.617c.84.459 1.732.828 2.657 1.073.964.25 1.963.376 2.95.32l.17-.013a8.062 8.062 0 0 0 2.448-.574 8.986 8.986 0 0 1-2.453.222l-.163-.009c-.472-.036-.94-.102-1.398-.202a9.88 9.88 0 0 1-1.347-.4 12.185 12.185 0 0 1-2.394-1.21 15.32 15.32 0 0 1-2.11-1.654 18.414 18.414 0 0 1-1.822-1.971 20.622 20.622 0 0 1-1.533-2.207 21.875 21.875 0 0 1-1.248-2.382 23.005 23.005 0 0 1-.967-2.512v-.002a23.148 23.148 0 0 1-.67-2.555 22.024 22.024 0 0 1-.456-4.332 18.795 18.795 0 0 1 .308-3.535c.16-.864.387-1.716.689-2.542.302-.826.68-1.625 1.144-2.374a10.015 10.015 0 0 1 1.668-2.056l.123-.114c.083-.074.207-.187.381-.326a8.694 8.694 0 0 1 1.714-1.078z" fill="url(#o)"/><path d="M6.348 84.26c.048.185.124.359.21.522.041.084.092.16.138.24.05.077.102.15.152.226.212.292.459.542.713.764.51.443 1.06.763 1.585 1.005.066.03.13.063.195.09l.196.079c.13.05.254.107.38.146.252.083.492.17.726.228l.341.092c.111.03.221.049.327.072.213.043.413.093.605.118l.536.084c.168.023.324.037.467.053l.396.043.325.021.577.036a28.153 28.153 0 0 0 3.769-.121 41.132 41.132 0 0 0 3.94-.57c.654-.115 1.3-.26 1.95-.4.324-.065.647-.15.97-.226l.973-.235h.002l4.781-1.393 12.352-3.636 12.342-3.675 12.332-3.71 12.324-3.74 12.316-3.768 2.593-.795.002-.001a17.953 17.953 0 0 1 5.64-.777c1.218.036 2.431.198 3.615.48a17.864 17.864 0 0 1 5.427 2.309 17.313 17.313 0 0 1 4.35 3.965l.17.215.16.222.32.445.298.46.15.229.137.236.278.472.255.485.128.243.116.248.233.496v.002l3.267 7.413 5.228 11.766c1.758 3.916 3.502 7.837 5.273 11.746l2.648 5.868c.886 1.955 1.772 3.91 2.659 5.863l5.333 11.72 3.005 6.59v.002c.593 1.293.93 2.701.979 4.134v.197c.001.131.008.328-.006.59a11.04 11.04 0 0 1-.347 2.35c-.271 1.027-.754 2.3-1.692 3.647-.93 1.345-2.356 2.735-4.413 3.813a10.106 10.106 0 0 0 3.053-1.229c.111-.068.224-.133.33-.203l.315-.217.154-.108.148-.115.293-.226c.095-.077.184-.158.275-.237.09-.08.183-.154.266-.238l.252-.244c.085-.079.165-.161.24-.246.155-.167.308-.33.444-.5l.207-.25c.066-.084.129-.17.192-.254l.185-.25.168-.254.164-.248.148-.25.145-.245c.046-.082.088-.164.13-.245.084-.162.168-.319.237-.478.07-.158.146-.31.206-.462l.176-.444c.419-1.165.573-2.096.642-2.714.04-.31.049-.544.058-.7l.014-.234a11.848 11.848 0 0 0-.952-5.027v-.002l-2.843-6.662-5.064-11.838-2.54-5.916-2.55-5.911c-1.694-3.944-3.416-7.875-5.124-11.812l-5.168-11.793-3.276-7.409v-.001l-.275-.584-.137-.292-.15-.285-.302-.57-.328-.557-.165-.277-.176-.27-.356-.539-.38-.522-.19-.26-.201-.253a20.4 20.4 0 0 0-5.149-4.633 20.727 20.727 0 0 0-3.081-1.599 20.693 20.693 0 0 0-7.544-1.574 20.894 20.894 0 0 0-6.573.973h-.002l-2.58.83-12.251 3.95-12.243 3.976-12.235 4.008-12.225 4.042-12.214 4.081-4.72 1.593h-.002l-.936.27c-.313.09-.623.185-.94.264-.632.165-1.262.337-1.899.478l-.477.111-.238.056-.24.049-.958.195c-.32.065-.642.114-.963.17-.16.028-.32.058-.482.083l-.483.069a27.552 27.552 0 0 1-3.678.307l-.565-.007-.317-.004-.387-.022c-.141-.01-.294-.015-.458-.029l-.526-.055c-.188-.015-.384-.054-.593-.085-.104-.018-.212-.03-.321-.053l-.336-.07c-.232-.043-.467-.115-.717-.18-.126-.032-.248-.08-.377-.122l-.195-.065c-.064-.023-.128-.05-.194-.077a6.46 6.46 0 0 1-1.595-.887 4.747 4.747 0 0 1-.741-.705c-.054-.07-.11-.14-.164-.213-.05-.075-.105-.147-.15-.227a2.37 2.37 0 0 1-.242-.505z" fill="url(#p)"/><path d="m137.582 75.48 2.238 5.06-6.18 6.043a21.786 21.786 0 0 1-8.928 5.238l-19.923 5.96c-3.76 1.072-5.704 5.222-4.121 8.797l4.956 11.192a5.94 5.94 0 0 0 6.959 3.334l22.228-5.92a20.247 20.247 0 0 0 9.46-5.61l8.09-8.506a5.544 5.544 0 0 0 1.062-6.042l-7.057-16.138a6.513 6.513 0 0 0-7.448-3.733l-1.336.326z" fill="#ff8000"/><path d="m108.414 133.526-2.79-3.535a5.94 5.94 0 0 0 6.959 3.334l25.336-6.83 7.81 22.347-16.737 1.726-20.578-17.042z" fill="url(#q)"/><path d="m137.582 75.48 2.238 5.06-6.18 6.043a21.786 21.786 0 0 1-8.928 5.238l-19.923 5.96c-3.76 1.072-5.704 5.222-4.121 8.797l4.956 11.192a5.94 5.94 0 0 0 6.959 3.334l22.228-5.92a20.247 20.247 0 0 0 9.46-5.61l8.09-8.506a5.544 5.544 0 0 0 1.062-6.042l-7.057-16.138a6.513 6.513 0 0 0-7.448-3.733l-1.336.326z" fill="url(#r)"/><path d="M118.66 102.795c1.686 1.065 3.29 2.365 4.818 3.715 3.294 2.913 3.101 8.232-.567 10.657-1.723 1.14-3.914 1.433-6.48-.112a6.535 6.535 0 0 1-.87-.634c-2.875-2.46-5.854-4.301-5.985-7.429-.15-3.579 4.091-6.606 7.802-6.582.454.003.899.143 1.282.385z" fill="url(#s)"/><ellipse cx="115.441" cy="108.076" rx="6.052" ry="6.44" transform="rotate(-58.957 115.44 108.076)" fill="url(#t)"/><path d="m105.69 117.762-.004.002-.003.001-.004.002-.003.001-.017.008-.017.007-.016.008-.017.007h-.002l-.002.002h-.002l-.001.001c.1.268.21.514.328.736.122.22.243.423.37.6.247.357.494.628.704.831.102.105.201.187.282.261l.213.175.176.133a6.165 6.165 0 0 0 3.336 1.174c.286.012.572.006.859-.017.287-.026.567-.07.86-.137h.001l1.703-.452c1.082-.294 2.165-.584 3.246-.884 1.081-.296 2.16-.598 3.24-.902 1.08-.301 2.157-.614 3.235-.921l3.23-.938 3.226-.954 3.22-.97 1.004-.304h.001a21.99 21.99 0 0 0 2.27-.76l.405-.166c.134-.057.266-.12.399-.18.267-.116.527-.247.788-.377.132-.063.26-.132.388-.202l.385-.207c.127-.071.251-.147.377-.22.124-.076.252-.147.374-.227.244-.158.493-.31.73-.479l.359-.247.35-.26c.467-.347.911-.723 1.347-1.105a21.347 21.347 0 0 0 1.514-1.519l.001-.001.896-.895a243.037 243.037 0 0 0 4.684-4.823l.573-.616.717-.772c.283-.313.617-.673.99-1.096-.448.342-.831.65-1.165.91l-.821.661-.658.53a244.643 244.643 0 0 0-5.164 4.347l-.961.835-.002.001c-.502.493-1.003.93-1.523 1.36-.425.337-.854.666-1.303.967l-.333.23-.342.217c-.225.149-.46.28-.692.42a20.42 20.42 0 0 1-2.913 1.388c-.694.268-1.387.494-2.124.69h-.002l-1.002.305-3.217.986-3.212 1-3.208 1.018c-1.068.344-2.137.683-3.203 1.034-1.066.348-2.133.697-3.197 1.053-1.066.351-2.128.713-3.192 1.071l-1.669.572h-.002a6.824 6.824 0 0 1-.715.171c-.246.04-.494.067-.744.077a5.772 5.772 0 0 1-3.078-.79l-.175-.105-.212-.142c-.082-.061-.182-.127-.286-.215a6.128 6.128 0 0 1-1.168-1.238 7.165 7.165 0 0 1-.41-.67z" fill="url(#u)"/><path d="m141.939 78.105-.001-.001-.002-.002-.001-.001-.002-.002-.002-.001v-.001h-.001v-.001a6.666 6.666 0 0 0-.923.524c-.27.18-.508.358-.722.528-.43.34-.756.654-1.025.897-.537.487-.8.736-.8.736-1.062.986-2.09 2.003-3.11 3.03l-2.2 2.2-.001.001-.318.282-.159.14-.166.14a26.488 26.488 0 0 1-2.45 1.822 23.795 23.795 0 0 1-2.637 1.538c-.918.45-1.869.837-2.844 1.155h-.002l-3.02.973-3.028.975-3.028.974-3.027.981-3.025.985-3.026.985-1.631.531h-.002a6.618 6.618 0 0 0-3.714 2.9 6.613 6.613 0 0 0-.949 3.074c-.006.126-.006.252-.01.377l.007.178c0 .119.015.296.039.531.033.234.074.527.167.869.09.34.221.733.423 1.156a6.514 6.514 0 0 1-.351-1.173c-.072-.342-.095-.632-.114-.863a6.747 6.747 0 0 1-.008-.521l.003-.173c.01-.122.017-.245.03-.366a6.34 6.34 0 0 1 1.064-2.894 6.187 6.187 0 0 1 3.581-2.518h.002l1.655-.452 3.07-.84 3.069-.838c1.023-.28 2.046-.562 3.068-.843l3.067-.848 3.067-.849 3.06-.846.001-.001c1.06-.297 2.099-.67 3.108-1.114a20.658 20.658 0 0 0 2.909-1.567c.926-.6 1.783-1.303 2.586-2.056.228-.207.452-.44.677-.661l.001-.001 2.134-2.275a107.658 107.658 0 0 0 2.934-3.215s.242-.27.712-.825c.235-.277.538-.614.865-1.055.163-.22.335-.464.505-.74.17-.276.345-.58.495-.939z" fill="url(#v)"/></svg>