<svg xmlns="http://www.w3.org/2000/svg" width="200" height="200" xmlns:xlink="http://www.w3.org/1999/xlink"><defs><linearGradient id="g" x1="72.504" y1="104.842" x2="64.467" y2="96.821" gradientUnits="userSpaceOnUse"><stop offset=".27" stop-color="#fdf3d9" stop-opacity="0"/><stop offset=".921" stop-color="#fff" stop-opacity=".79"/></linearGradient><linearGradient id="b" x1="146.307" y1="87.094" x2="197.77" y2="87.094" gradientUnits="userSpaceOnUse"><stop offset="0" stop-color="#f8ce69"/><stop offset=".007" stop-color="#f7c564"/><stop offset=".038" stop-color="#f7a551"/><stop offset=".072" stop-color="#f78b42"/><stop offset=".109" stop-color="#f77736"/><stop offset=".15" stop-color="#f7682e"/><stop offset=".201" stop-color="#f76029"/><stop offset=".284" stop-color="#f75e28"/><stop offset=".288" stop-color="#f65d28"/><stop offset=".373" stop-color="#e44f28"/><stop offset=".463" stop-color="#d94728"/><stop offset=".566" stop-color="#d64528"/><stop offset=".679" stop-color="#d74628"/><stop offset=".72" stop-color="#de4b28"/><stop offset=".749" stop-color="#ea5428"/><stop offset=".768" stop-color="#f75e28"/><stop offset=".848" stop-color="#f66028"/><stop offset=".89" stop-color="#f6682a"/><stop offset=".922" stop-color="#f6752e"/><stop offset=".95" stop-color="#f68833"/><stop offset=".974" stop-color="#f6a039"/><stop offset=".997" stop-color="#f6be42"/><stop offset=".999" stop-color="#f6c243"/></linearGradient><linearGradient id="j" x1="145.92" y1="84.121" x2="192.796" y2="84.121" xlink:href="#a"/><linearGradient id="e" x1="-81.076" y1="97.283" x2="59.162" y2="156.503" gradientTransform="matrix(-1 0 0 1 65.478 0)" gradientUnits="userSpaceOnUse"><stop offset=".058" stop-color="#f6c243"/><stop offset=".083" stop-color="#f6a53b"/><stop offset=".114" stop-color="#f68b34"/><stop offset=".148" stop-color="#f6772e"/><stop offset=".186" stop-color="#f6682a"/><stop offset=".232" stop-color="#f66028"/><stop offset=".309" stop-color="#f75e28"/><stop offset=".386" stop-color="#d95223"/><stop offset=".464" stop-color="#c14a1f"/><stop offset=".513" stop-color="#b9471e"/><stop offset=".607" stop-color="#bb471e"/><stop offset=".655" stop-color="#c34a1f"/><stop offset=".693" stop-color="#d04f21"/><stop offset=".725" stop-color="#e35624"/><stop offset=".749" stop-color="#f75e28"/><stop offset=".807" stop-color="#f7602a"/><stop offset=".837" stop-color="#f76732"/><stop offset=".86" stop-color="#f7743f"/><stop offset=".88" stop-color="#f88752"/><stop offset=".898" stop-color="#f89f6a"/><stop offset=".914" stop-color="#f9bc89"/><stop offset=".928" stop-color="#fadfac"/><stop offset=".931" stop-color="#fbe7b4"/></linearGradient><linearGradient id="f" x1="96.346" y1="103.194" x2="84.815" y2="95.12" gradientUnits="userSpaceOnUse"><stop offset="0" stop-color="#fdf3d9" stop-opacity="0"/><stop offset=".921" stop-color="#fff" stop-opacity=".79"/></linearGradient><linearGradient id="c" x1="161.832" y1="92.262" x2="95.52" y2="58.045" gradientUnits="userSpaceOnUse"><stop offset=".113" stop-color="#f75e28" stop-opacity=".5"/><stop offset=".346" stop-color="#f66a2b" stop-opacity=".474"/><stop offset=".668" stop-color="#f68e35" stop-opacity=".403"/><stop offset="1" stop-color="#f6c243" stop-opacity=".3"/></linearGradient><linearGradient id="h" x1="109.949" y1="141.973" x2="21.09" y2="76.191" gradientUnits="userSpaceOnUse"><stop offset=".27" stop-color="#f75e28" stop-opacity="0"/><stop offset=".921" stop-color="#f6c243" stop-opacity=".79"/></linearGradient><linearGradient id="a" x1="13.613" y1="113.81" x2="128.945" y2="113.81" gradientUnits="userSpaceOnUse"><stop offset="0" stop-color="#ff8000"/><stop offset=".575" stop-color="#f96a19"/><stop offset=".999" stop-color="#f75e28"/></linearGradient><linearGradient id="i" x1="13.92" y1="127.771" x2="15.002" y2="125.816" gradientUnits="userSpaceOnUse"><stop offset="0" stop-color="#f75e28"/><stop offset=".197" stop-color="#f86a1d"/><stop offset=".643" stop-color="#fc820a"/><stop offset=".919" stop-color="#fe8b03"/></linearGradient><radialGradient id="k" cx="172.364" cy="80.028" fx="172.364" fy="80.028" r="19.962" gradientUnits="userSpaceOnUse"><stop offset="0" stop-color="#ffce69"/><stop offset=".038" stop-color="#ffc25a"/><stop offset=".124" stop-color="#ffad40"/><stop offset=".212" stop-color="#ff9e2d"/><stop offset=".302" stop-color="#ff9521"/><stop offset=".397" stop-color="#ff931e"/><stop offset="1" stop-color="#ff7300"/></radialGradient><clipPath id="d"><path d="M69.596 80.575c5.113-16.549 28.297-25.673 46.54-24.798h51.954c18.244.876 26.786 13.462 19.079 28.112-7.707 14.65-28.745 25.817-46.989 24.941H96.408l-19.717 9.469c-1.433.688-2.917-.846-2.18-2.255l4.62-8.847c-11.753-3.979-13.517-13.736-9.535-26.622z" fill="none"/></clipPath></defs><ellipse cx="63.307" cy="155.736" rx="45.594" ry="8.881" fill="#090909" opacity=".8"/><path fill="#f75e28" d="M137.83 102.55h-12.735l6.447 6.447 12.25-.264-5.963-6.183z"/><path d="M71.353 74.438c7.707-14.65 28.745-25.816 46.989-24.94h51.953c18.244.875 26.786 13.461 19.079 28.112-6.05 11.498-20.31 20.847-34.987 23.916l-4.46 8.811a2.486 2.486 0 0 1-4.007.603l-8.09-8.39H90.431c-18.244-.875-26.786-13.462-19.079-28.112z" fill="#f96422"/><path d="M188.05 56.486c4.845 5.22 5.68 12.842 1.324 21.124-6.05 11.498-20.31 20.847-34.987 23.916l-4.46 8.811a2.486 2.486 0 0 1-4.007.603l5.172 6.002a2.486 2.486 0 0 0 4.007-.603l4.46-8.812c14.677-3.068 28.938-12.417 34.988-23.916 3.132-5.954 3.58-11.568 1.784-16.193-.539-1.386-1.348-2.651-2.302-3.791l-5.98-7.141z" fill="url(#b)"/><path d="M71.353 74.438c7.707-14.65 28.745-25.816 46.989-24.94h51.953c18.244.875 26.786 13.461 19.079 28.112-6.05 11.498-20.31 20.847-34.987 23.916l-4.46 8.811a2.486 2.486 0 0 1-4.007.603l-8.09-8.39H90.431c-18.244-.875-26.786-13.462-19.079-28.112z" fill="url(#c)"/><path d="M112.5 69.821c-2.288.033-3.454-1.473-2.605-3.365.85-1.891 3.392-3.452 5.68-3.485h46.965c2.287-.033 3.453 1.473 2.604 3.365-.848 1.892-3.391 3.452-5.678 3.485H112.5zM105.528 80.574c-2.288.034-3.454-1.473-2.605-3.365.849-1.891 3.391-3.452 5.679-3.485h46.966c2.287-.033 3.453 1.474 2.604 3.365s-3.391 3.452-5.679 3.485h-46.965z" fill="#fff"/><g clip-path="url(#d)"><path d="M17.26 105.32c7.707-14.65 28.745-25.817 46.989-24.941h51.953c18.244.876 26.786 13.462 19.079 28.112-7.707 14.65-28.745 25.816-46.989 24.94H44.52l-19.717 9.47c-1.433.688-2.917-.846-2.18-2.256l4.62-8.846c-11.753-3.979-16.262-14.543-9.983-26.48z" fill="#f75e28"/></g><path d="M8.031 102.332c7.707-14.65 28.745-25.816 46.989-24.94h51.953c18.244.875 26.786 13.461 19.079 28.112-7.708 14.65-28.745 25.816-46.989 24.94H35.291l-19.717 9.47c-1.433.687-2.917-.847-2.18-2.256l4.62-8.847C6.26 124.833 1.751 114.268 8.03 102.332z" fill="#ff8000"/><path d="M13.67 139.572a1.623 1.623 0 0 0 1.904.341l19.717-9.469h43.772c18.244.876 39.281-10.29 46.989-24.94 3.53-6.712 3.651-12.99.99-17.908 0 0 6.27 7.067 6.741 11.967.32 3.647-.552 7.695-2.772 11.915-7.707 14.65-28.745 25.817-46.989 24.941H40.251l-19.718 9.469a1.623 1.623 0 0 1-1.904-.341l-4.959-5.975z" fill="url(#e)"/><path d="m18.013 128.811-1.505 2.883-5.672-6.834s2.958 2.427 7.177 3.951z" fill="#f75e28"/><path d="M88.436 90.182c-3.76-.16-8.082 2.164-9.654 5.192-1.572 3.027.202 5.61 3.963 5.77 3.76.16 8.082-2.164 9.654-5.191 1.572-3.027-.202-5.611-3.963-5.771z" fill="url(#f)"/><path d="M66.153 90.182c-3.76-.16-8.082 2.164-9.654 5.192-1.572 3.027.202 5.61 3.963 5.77 3.76.16 8.082-2.164 9.654-5.191 1.572-3.027-.202-5.611-3.963-5.771z" fill="url(#g)"/><path d="M8.031 102.332c7.707-14.65 28.745-25.816 46.989-24.94h51.953c18.244.875 26.786 13.461 19.079 28.112-7.708 14.65-28.745 25.816-46.989 24.94H35.291l-19.717 9.47c-1.433.687-2.917-.847-2.18-2.256l4.62-8.847C6.26 124.833 1.751 114.268 8.03 102.332z" fill="url(#h)"/><path d="M88.436 90.182c-3.76-.16-8.082 2.164-9.654 5.192-1.572 3.027.202 5.61 3.963 5.77 3.76.16 8.082-2.164 9.654-5.191 1.572-3.027-.202-5.611-3.963-5.771zM66.153 90.182c-3.76-.16-8.082 2.164-9.654 5.192-1.572 3.027.202 5.61 3.963 5.77 3.76.16 8.082-2.164 9.654-5.191 1.572-3.027-.202-5.611-3.963-5.771z" fill="#fff"/><path d="M13.613 139.514a1.688 1.688 0 0 0 1.15.565l.089.004c.239 0 .48-.053.702-.147h.002l.848-.364 1.377-.59c.46-.196.918-.393 1.377-.59.46-.196.918-.393 1.377-.59l1.377-.589 1.377-.59 1.377-.59 1.377-.589 1.377-.59 1.376-.589 1.377-.59c.46-.196.918-.393 1.377-.59l1.377-.589 1.377-.59 1.141-.488 3.48.008h7.383c1.23-.005 2.46-.01 3.691-.013l7.383-.026 7.383-.038 7.384-.05 6.835-.054h.002l1.732.03c2.113-.009 4.22-.169 6.304-.455 2.478-.339 4.925-.859 7.325-1.533a59.433 59.433 0 0 0 7.045-2.474 60.664 60.664 0 0 0 6.676-3.32 56.377 56.377 0 0 0 6.197-4.136 49.781 49.781 0 0 0 5.55-4.963 40.628 40.628 0 0 0 4.654-5.806c.167-.239.315-.49.466-.74l.454-.746c.078-.123.147-.252.216-.38l.209-.384.416-.768v-.002l.428-.891c.07-.15.146-.296.21-.447l.193-.456.192-.455c.064-.152.13-.303.183-.46l.337-.928c.056-.144.096-.292.142-.439l.134-.44.134-.442c.042-.147.075-.298.113-.447.071-.299.15-.595.215-.895l.168-.906c.195-1.213.29-2.441.26-3.668l-.03-.469-.038-.585c-.023-.233-.064-.504-.103-.814-.03-.311-.111-.655-.186-1.038l-.06-.294c-.021-.1-.053-.2-.08-.304l-.179-.648a16.236 16.236 0 0 0-1.277-3.004 16.183 16.183 0 0 1 1.18 3.032l.157.649c.023.104.052.204.07.304l.05.293c.062.382.134.723.156 1.032.03.308.063.577.08.808l.02.579.018.463a19.769 19.769 0 0 1-.356 3.606l-.19.887c-.071.293-.158.583-.236.875-.041.145-.077.292-.123.436l-.144.43-.144.43c-.049.142-.092.287-.15.427-.12.3-.239.602-.357.903-.057.152-.126.299-.193.446l-.2.443-.201.442c-.068.147-.147.289-.22.434l-.443.863-.001.002-.429.745-.214.372c-.07.124-.14.249-.22.368l-.463.723c-.155.241-.306.484-.476.715a39.928 39.928 0 0 1-4.706 5.595 48.906 48.906 0 0 1-5.566 4.745 57.482 57.482 0 0 1-6.173 3.923 59.46 59.46 0 0 1-6.606 3.125 58.086 58.086 0 0 1-6.93 2.283 52.811 52.811 0 0 1-7.151 1.352 46.456 46.456 0 0 1-6.095.322l-1.703-.063h-.002l-6.84-.054-7.389-.05-7.39-.038-7.39-.026-3.696-.012h-3.695l-7.39.006h-.237l-.21.102h-.002l-1.32.706-1.321.706-1.321.706-1.321.706-1.321.706-1.321.706-1.321.706-1.321.706-1.321.706-1.321.706-1.321.706-1.321.706-1.321.706-1.321.706-.814.435-.002.001a1.67 1.67 0 0 1-.63.19l-.083.003a.807.807 0 0 1-.104-.001 1.639 1.639 0 0 1-1.047-.453z" fill="url(#a)"/><path d="M10.836 124.86c.127.12.224.207.29.264l.098.086c.13.116.265.224.398.336.133.111.27.217.405.325.135.108.272.213.41.316l.415.31c.14.1.279.203.42.301l.424.295.429.287c.144.095.287.19.433.282.145.092.29.185.436.273.147.09.295.178.442.265.148.088.298.172.448.256a19.025 19.025 0 0 0 .912.479c.154.076.31.148.466.22l.118.052c.079.035.197.086.358.15v-.001l.034-.068.035-.069.069-.136.137-.272.138-.272.138-.273a8.098 8.098 0 0 0-.327-.2l-.11-.064-.445-.248a22.79 22.79 0 0 0-.45-.24c-.15-.077-.3-.155-.453-.231l-.457-.225c-.153-.074-.306-.148-.46-.22l-.464-.214-.466-.21-.468-.208-.47-.205-.472-.202-.476-.197a19.785 19.785 0 0 0-.477-.194c-.16-.062-.319-.13-.481-.19-.162-.06-.322-.125-.485-.183l-.122-.045a14.46 14.46 0 0 0-.37-.13z" fill="url(#i)"/><path d="M47.148 107.634c1.507 5.204 6.862 8.824 14.903 9.167 8.344.355 17.508-2.909 24.323-8.088" fill="none" stroke="#fff" stroke-linecap="round" stroke-miterlimit="10" stroke-width="8.529"/><path d="M188.05 56.441c.859 1.088 1.391 1.97 1.712 2.573.164.3.272.531.35.682.074.153.108.232.108.232.068.155.143.308.206.465l.19.472c.114.32.231.637.328.96.2.645.362 1.3.468 1.963a16.66 16.66 0 0 1 .217 3.429l-.036.573a19.96 19.96 0 0 1-.709 3.937c-.085.323-.194.64-.292.96-.05.159-.11.315-.164.474-.056.157-.108.316-.17.471-.122.313-.24.625-.375.932-.067.154-.129.31-.198.462l-.21.457a9.594 9.594 0 0 1-.202.426l-.21.424c-.142.28-.293.557-.44.836v.002l-.53.929c-.18.307-.374.607-.56.91a36.787 36.787 0 0 1-2.365 3.274 42.717 42.717 0 0 1-2.71 3.007 44.381 44.381 0 0 1-2.972 2.757c-.26.217-.513.44-.778.651l-.793.634c-.266.21-.539.41-.808.616l-.405.306-.413.296c-.276.196-.545.401-.826.591l-.837.575c-.28.19-.568.371-.85.557l-.427.277-.433.266c-.29.177-.575.36-.868.53l-.878.512c-.292.172-.592.33-.888.496l-.445.246c-.148.081-.3.159-.45.238a57.6 57.6 0 0 1-3.655 1.784l-.931.409-.94.39c-.156.064-.312.132-.47.193l-.474.184c-.317.12-.63.25-.95.363l-.957.345c-.318.115-.642.216-.963.326l-.481.163-.486.152c-.323.1-.646.203-.971.3-1.3.379-2.611.723-3.932 1.022h-.001l-.55.165-.16.38c-.12.282-.237.564-.356.845l-.355.844-.355.844-.354.844-.355.844-.355.844-.355.843-.355.844-.355.844-.354.844-.289.685v.002a2.234 2.234 0 0 1-1.245 1.215l-.07.03-.074.021-.147.043c-.1.026-.202.037-.304.056a2.372 2.372 0 0 1-1.102-.141l-.204-.092a2.729 2.729 0 0 1-.562-.379c.202.228.384.377.513.463l.198.125c.35.194.754.305 1.167.318.116-.004.234 0 .35-.014l.175-.024.088-.013.085-.022c.322-.07.63-.213.907-.403.33-.225.612-.53.822-.88v-.002l.382-.638.47-.786.47-.785.47-.786.47-.786.47-.785.47-.786.47-.785.47-.786.47-.786.2-.335a.26.26 0 0 1-.002 0l-.002.001h.002l.016-.004.064-.013.517-.109c.345-.069.686-.153 1.028-.234.687-.154 1.364-.344 2.044-.526a57.691 57.691 0 0 0 4.018-1.292c.332-.115.658-.247.988-.37l.493-.188c.164-.063.326-.132.49-.197.325-.134.651-.264.976-.4l.965-.426a59.8 59.8 0 0 0 3.79-1.857 54.772 54.772 0 0 0 3.644-2.13l.447-.28.44-.292c.292-.197.588-.387.877-.588l.865-.606c.29-.2.568-.416.853-.624l.423-.316.416-.325c.276-.22.556-.433.828-.657l.814-.675c.271-.224.532-.462.799-.693a46.388 46.388 0 0 0 3.049-2.935 42.656 42.656 0 0 0 2.755-3.222 38.593 38.593 0 0 0 2.393-3.508c.188-.326.384-.647.565-.976l.532-.996.001-.002c.145-.3.295-.598.435-.9l.205-.457c.07-.151.137-.304.2-.459l.204-.493c.069-.164.127-.332.19-.498.13-.332.241-.67.355-1.008.06-.168.108-.34.16-.51.05-.171.106-.34.152-.513.09-.345.186-.688.26-1.038.322-1.39.498-2.817.51-4.246l-.006-.614a17.99 17.99 0 0 0-.152-1.827c-.034-.303-.096-.603-.146-.904-.028-.15-.064-.298-.097-.447a15.041 15.041 0 0 0-.781-2.462 13.905 13.905 0 0 0-.948-1.89s-.042-.077-.134-.227l-.178-.277c-.072-.11-.151-.241-.256-.382a15.05 15.05 0 0 0-2.049-2.366z" fill="url(#j)"/><path d="M153.398 100.938c1.19-.294 2.062-.558 2.648-.726l.655-.197.218-.067a104.92 104.92 0 0 0 6.889-2.375c.567-.217 1.137-.431 1.702-.658.565-.228 1.13-.455 1.693-.69a72.23 72.23 0 0 0 3.344-1.502 55.194 55.194 0 0 0 3.26-1.71 42.668 42.668 0 0 0 3.13-1.959 39.13 39.13 0 0 0 1.494-1.09c.487-.378.966-.767 1.434-1.17.467-.402.921-.82 1.365-1.247.443-.429.871-.872 1.29-1.324.417-.453.818-.92 1.21-1.392.389-.477.767-.96 1.131-1.455a39.9 39.9 0 0 0 2.035-3.06 47.891 47.891 0 0 0 1.727-3.147l.001-.002a27.667 27.667 0 0 0 1.797-4.433c.452-1.5.758-3.045.866-4.606.018-.215.021-.43.033-.645.008-.216.007-.431.01-.646a18.97 18.97 0 0 0-.088-1.695 17.134 17.134 0 0 0-.26-1.675l-.064-.286a6.647 6.647 0 0 0-.086-.354c-.038-.142-.077-.308-.135-.494a14.909 14.909 0 0 0-1.353-3.215 15.19 15.19 0 0 1 1.227 3.25c.05.186.084.352.116.493.033.14.057.259.073.354l.053.284c.094.55.162 1.106.201 1.662.035.557.044 1.115.03 1.672-.011.211-.018.423-.033.634-.019.211-.029.422-.054.633a20.899 20.899 0 0 1-.985 4.49 27.127 27.127 0 0 1-1.89 4.292v.002a52.248 52.248 0 0 1-1.814 3.04 39.104 39.104 0 0 1-2.087 2.935c-.37.471-.753.931-1.145 1.383-.396.448-.8.889-1.218 1.316-.42.425-.847.841-1.289 1.242-.442.4-.894.79-1.357 1.166-.465.373-.938.736-1.421 1.085-.485.347-.979.682-1.48 1.006a41.672 41.672 0 0 1-3.098 1.798c-.53.279-1.066.547-1.604.81-.54.26-1.085.51-1.63.762-.546.25-1.096.492-1.647.735-.55.243-1.104.48-1.66.715-1.107.478-2.223.94-3.338 1.41-1.118.463-2.234.934-3.345 1.422a92.903 92.903 0 0 0-3.311 1.526l-.205.1-.614.304c-.542.279-1.36.685-2.42 1.299z" fill="url(#k)"/></svg>