<svg xmlns="http://www.w3.org/2000/svg" width="200" height="200" xmlns:xlink="http://www.w3.org/1999/xlink"><defs><linearGradient id="a" x1="64.042" y1="113.987" x2="104.265" y2="143.143" gradientUnits="userSpaceOnUse"><stop offset="0" stop-color="#ee7b30" stop-opacity="0"/><stop offset=".025" stop-color="#ea742e" stop-opacity=".14"/><stop offset=".071" stop-color="#e4692b" stop-opacity=".366"/><stop offset=".119" stop-color="#de5f28" stop-opacity=".561"/><stop offset=".167" stop-color="#da5726" stop-opacity=".72"/><stop offset=".216" stop-color="#d75125" stop-opacity=".843"/><stop offset=".267" stop-color="#d44d23" stop-opacity=".931"/><stop offset=".319" stop-color="#d34a23" stop-opacity=".983"/><stop offset=".377" stop-color="#d34a23"/><stop offset=".636" stop-color="#c64528"/><stop offset="1" stop-color="#fb5c12" stop-opacity="0"/></linearGradient><linearGradient id="b" x1="151.355" y1="55.105" x2="128.717" y2="36.849" gradientUnits="userSpaceOnUse"><stop offset="0" stop-color="#ed8433"/><stop offset=".031" stop-color="#ef7c2d"/><stop offset=".134" stop-color="#f56a1e"/><stop offset=".242" stop-color="#f95f14"/><stop offset=".361" stop-color="#fb5c12"/><stop offset="1" stop-color="#c64528"/></linearGradient><linearGradient id="c" x1="40.533" y1="159.605" x2="68.838" y2="160.882" xlink:href="#a"/><linearGradient id="d" x1="72.496" y1="97.929" x2="149.323" y2="94.737" gradientUnits="userSpaceOnUse"><stop offset="0" stop-color="#ee7b30" stop-opacity="0"/><stop offset=".009" stop-color="#ee792e" stop-opacity=".053"/><stop offset=".049" stop-color="#f17227" stop-opacity=".272"/><stop offset=".091" stop-color="#f46c22" stop-opacity=".467"/><stop offset=".133" stop-color="#f6671d" stop-opacity=".631"/><stop offset=".175" stop-color="#f76319" stop-opacity=".764"/><stop offset=".219" stop-color="#f96015" stop-opacity=".868"/><stop offset=".263" stop-color="#fa5d13" stop-opacity=".942"/><stop offset=".31" stop-color="#fa5c12" stop-opacity=".986"/><stop offset=".361" stop-color="#fb5c12"/><stop offset=".626" stop-color="#d34a23"/><stop offset=".705" stop-color="#c64528"/><stop offset=".943" stop-color="#fb5c12" stop-opacity="0"/></linearGradient><linearGradient id="e" x1="137.378" y1="106.94" x2="78.001" y2="59.056" gradientUnits="userSpaceOnUse"><stop offset=".399" stop-color="#ff7300"/><stop offset=".488" stop-color="#fe7a09"/><stop offset=".634" stop-color="#fc9021"/><stop offset=".818" stop-color="#fab249"/><stop offset=".946" stop-color="#f8ce69"/></linearGradient></defs><ellipse cx="62.385" cy="181.591" rx="37.022" ry="5.35" fill="#090909" opacity=".8"/><path d="m185.639 65.102.004-.083.004-.08.004-.082.004-.081.005-.082.004-.081.004-.082.004-.081.005-.082.004-.081.004-.082.004-.081.005-.083.004-.08.004-.082.004-.081.005-.082.004-.082.004-.081.004-.082.005-.081.004-.082.004-.081.004-.083.005-.08.004-.082.004-.081.004-.082.004-.081.005-.082.004-.081.004-.082.004-.082.005-.08.004-.083.004-.082.004-.08.005-.082.004-.082.004-.081.004-.082.005-.081.004-.082.004-.081.004-.082.005-.081.004-.083.004-.08.004-.082.004-.081.005-.082.004-.082.004-.08.004-.083.005-.081.004-.082.004-.081.004-.083.005-.08.004-.082.004-.081.004-.082.005-.081.004-.082.004-.081.004-.082.005-.081.004-.082.004-.081.004-.083.004-.08.005-.082.004-.082.004-.081.004-.082.005-.081.004-.082.004-.081.004-.082.005-.081.004-.083.004-.08.004-.082.004-.081.005-.082.004-.081.004-.082.005-.082.004-.081.004-.081.004-.082.005-.083.004-.08.004-.082.004-.081.004-.082.005-.081.004-.082.004-.081.004-.082.005-.081.004-.082.004-.081.004-.083.005-.08.004-.082.004-.082.004-.081.004-.081.005-.082.004-.082.004-.081.004-.082.005-.081.004-.083.004-.08.004-.082.005-.081.004-.082.004-.081.004-.082.005-.081.004-.082.004-.081.004-.082.005-.082.004-.081.004-.082.004-.081.004-.082.005-.081.004-.082.004-.081.004-.082.005-.081.004-.082.004-.081.004-.083.005-.08.004-.082.004-.081.004-.082.005-.082.004-.08.004-.082.004-.082.005-.082.004-.081.004-.083.004-.08.004-.082.005-.081.004-.082.004-.081.004-.082.005-.081.004-.082.004-.081.004-.082.005-.081.004-.083.004-.08.004-.082.005-.082.004-.081.004-.082.004-.081.005-.082.004-.081.004-.082.004-.081.005-.083.004-.08.004-.082.004-.081.004-.082.005-.081.004-.082.004-.081.004-.082.005-.081.004-.082.004-.082.004-.081.004-.082.005-.081.004-.082.004-.081.005-.082.004-.081.004-.082.004-.081.004-.082.005-.081.004-.083.004-.08.004-.082.005-.082.004-.081c.04-.67.061-1.344.061-2.022 0-21.496-20.652-38.922-46.128-38.922-24.705 0-44.873 16.387-46.072 36.982l-.004.081-.004.082-.004.081-.005.082-.004.081-.004.082-.004.081-.005.082-.004.081-.004.082-.004.082-.005.081-.004.082-.004.081-.004.082-.005.081-.004.082-.004.081-.004.082-.004.081-.005.082-.004.082-.004.081-.004.082-.005.08-.004.082-.004.082-.004.082-.005.081-.004.081-.004.082-.004.082-.005.082-.004.08-.004.082-.004.082-.005.081-.004.082-.004.081-.004.082-.004.081-.005.082-.004.082-.004.08-.004.083-.005.081-.004.082-.004.081-.004.081-.005.082-.004.082-.004.081-.004.082-.005.081-.004.082-.004.082-.004.08-.005.082-.004.082-.004.081-.004.082-.005.081-.004.082-.004.082-.004.081-.004.082-.005.082-.004.08-.004.082-.004.082-.005.081-.004.082-.004.081-.004.082-.005.081-.004.082-.004.081-.004.082-.005.082-.004.08-.004.082-.004.082-.004.082-.005.081-.004.082-.004.081-.004.082-.005.081-.004.082-.004.082-.004.08-.005.082-.004.082-.004.081-.004.082-.004.081-.005.082-.004.081-.004.082-.005.081-.004.083-.004.08-.004.082-.004.082-.005.081-.004.082-.004.081-.004.082-.005.081-.004.082-.004.081-.004.082-.005.082-.004.08-.004.082-.004.082-.005.081-.004.082-.004.081-.004.082-.004.082-.005.081-.004.082-.004.082-.004.08-.005.082-.004.082-.004.081-.004.082-.005.081-.004.082-.004.081-.004.082-.005.081-.004.082-.004.082-.004.08-.005.083-.004.081-.004.081-.004.082-.004.082-.005.081-.004.082-.004.081-.004.082-.005.082-.004.08-.004.082-.004.082-.005.081-.004.082-.004.081-.004.082-.005.081-.004.082-.004.082-.004.082-.005.08-.004.082-.004.082-.004.081-.005.082-.004.081-.004.082-.004.081-.004.082-.005.081-.004.082-.004.082-.004.08-.005.082-.004.082-.004.082-.004.081-.005.082-.004.08-.004.083-.004.081-.005.082-.004.082-.004.08-.004.082-.004.082-.005.081-.004.082-.004.081-.004.082-.005.081-.004.082-.004.081-.004.083-.005.08-.004.082-.004.082-.004.081-.004.082-.005.081-.004.082-.004.081c-.04.67-.062 1.344-.062 2.022 0 4.702.99 9.208 2.8 13.38l-65.37 59.378c-.276.25-.403.596-.387.935 0 .027-.005.055-.004.082 0 .027-.005.054-.004.081 0 .028-.006.055-.004.082 0 .027-.006.054-.004.081 0 .028-.006.055-.005.082 0 .027-.005.054-.004.081 0 .028-.006.055-.004.082 0 .027-.006.054-.004.081-.001.028-.006.055-.005.082 0 .027-.005.054-.004.081 0 .028-.005.055-.004.082 0 .027-.006.054-.004.082 0 .027-.006.054-.005.081 0 .027-.005.054-.004.082 0 .027-.005.054-.004.081 0 .027-.006.054-.004.082 0 .027-.006.054-.005.081 0 .027-.005.054-.004.082 0 .027-.005.054-.004.081 0 .028-.006.055-.004.082 0 .027-.006.054-.005.081 0 .028-.005.055-.004.082 0 .027-.005.054-.004.081 0 .028-.006.055-.004.082 0 .027-.006.054-.004.081 0 .028-.006.055-.005.082 0 .027-.005.054-.004.081 0 .028-.005.055-.004.082 0 .027-.006.054-.004.081 0 .028-.006.055-.005.082 0 .027-.005.054-.004.082 0 .027-.005.054-.004.081 0 .027-.006.054-.004.082 0 .027-.006.054-.005.081 0 .027-.005.054-.004.082 0 .027-.005.054-.004.081 0 .027-.006.054-.004.082 0 .027-.006.054-.005.081 0 .028-.005.055-.004.082 0 .027-.005.054-.004.081 0 .028-.006.055-.004.082 0 .027-.006.054-.005.081 0 .028-.005.055-.004.082 0 .027-.005.054-.004.081 0 .028-.006.055-.004.082 0 .027-.006.054-.004.082 0 .027-.006.054-.005.081 0 .027-.005.054-.004.081 0 .028-.005.055-.004.082 0 .027-.006.054-.004.082 0 .027-.006.054-.005.081 0 .027-.005.054-.004.082 0 .027-.005.054-.004.081 0 .027-.006.055-.004.082 0 .027-.006.054-.004.081-.001.027-.006.055-.005.082 0 .027-.005.054-.004.081 0 .028-.006.055-.004.082 0 .027-.006.054-.005.081 0 .028-.005.055-.004.082 0 .027-.005.054-.004.081 0 .028-.006.055-.004.082 0 .027-.006.054-.004.081-.001.028-.006.055-.005.082 0 .027-.005.054-.004.082 0 .027-.006.054-.004.081 0 .027-.006.054-.004.082 0 .027-.006.054-.005.081 0 .027-.005.054-.004.082 0 .027-.005.054-.004.081 0 .027-.006.054-.004.082 0 .027-.006.054-.005.081 0 .027-.005.055-.004.082 0 .027-.005.054-.004.081 0 .027-.006.055-.004.082 0 .027-.006.054-.005.081 0 .028-.005.055-.004.082 0 .027-.005.054-.004.081 0 .028-.006.055-.004.082 0 .027-.006.054-.004.081-.001.028-.006.055-.005.082 0 .027-.005.054-.004.081 0 .028-.006.055-.004.082 0 .027-.006.054-.004.082-.001.027-.006.054-.005.081 0 .027-.005.054-.004.082 0 .027-.006.054-.004.081 0 .027-.006.055-.004.082-.001.027-.006.054-.005.081 0 .027-.005.054-.004.082 0 .027-.005.054-.004.081 0 .028-.006.055-.004.082 0 .027-.006.054-.005.081 0 .027-.005.055-.004.082 0 .027-.005.054-.004.081 0 .028-.006.055-.004.082 0 .027-.006.054-.005.081 0 .028-.005.055-.004.082 0 .027-.005.054-.004.081 0 .028-.006.055-.004.082 0 .027-.006.054-.004.081-.001.028-.006.055-.005.082 0 .027-.005.054-.004.082 0 .027-.005.054-.004.081 0 .027-.006.054-.004.082 0 .027-.006.054-.005.081 0 .027-.005.054-.004.082 0 .027-.006.054-.004.081 0 .027-.006.054-.004.082-.001.027-.006.054-.005.081 0 .028-.005.055-.004.082 0 .027-.005.054-.004.081 0 .028-.006.055-.004.082 0 .027-.006.054-.005.081 0 .028-.005.055-.004.082 0 .027-.005.054-.004.081 0 .028-.006.055-.004.082 0 .027-.006.054-.005.082 0 .027-.005.054-.004.081 0 .027-.005.054-.004.081 0 .028-.006.055-.004.082 0 .027-.006.054-.004.082 0 .027-.006.054-.005.081 0 .027-.005.054-.004.082 0 .027-.005.054-.004.081 0 .028-.006.055-.004.082 0 .027-.006.054-.005.081 0 .027-.005.055-.004.082 0 .027-.005.054-.004.081 0 .028-.006.055-.004.082 0 .027-.006.054-.005.081 0 .028-.005.055-.004.082 0 .027-.005.054-.004.081 0 .028-.006.055-.004.082 0 .027-.006.054-.005.081 0 .028-.005.055-.004.082 0 .027-.005.054-.004.082 0 .027-.006.054-.004.081 0 .027-.006.054-.005.082 0 .027-.005.054-.004.081 0 .027-.005.054-.004.082 0 .027-.006.054-.004.081 0 .027-.006.055-.004.082-.001.027-.006.054-.005.081 0 .028-.005.055-.004.082 0 .027-.005.054-.004.081 0 .028-.006.055-.004.082 0 .027-.006.054-.005.081 0 .028-.005.055-.004.082 0 .027-.005.054-.004.081 0 .028-.006.055-.004.082 0 .027-.006.054-.005.082 0 .027-.005.054-.004.081 0 .027-.005.054-.004.082 0 .027-.006.054-.004.081 0 .027-.006.054-.004.082-.001.027-.006.054-.005.081 0 .027-.005.054-.004.082 0 .027-.006.054-.004.081 0 .027-.006.054-.005.082 0 .027-.005.054-.004.081 0 .027-.005.055-.004.082 0 .027-.006.054-.004.081 0 .028-.006.055-.004.082-.001.027-.006.054-.005.081 0 .028-.005.055-.004.082 0 .027-.006.054-.004.081 0 .028-.006.055-.004.082 0 .027-.006.054-.005.081 0 .028-.005.055-.004.082 0 .027-.005.054-.004.082 0 .027-.006.054-.004.081 0 .027-.006.054-.005.082 0 .027-.005.054-.004.081 0 .027-.005.054-.004.082 0 .027-.006.054-.004.081 0 .027-.006.054-.004.082-.001.027-.006.054-.005.081 0 .028-.005.055-.004.082 0 .027-.006.054-.004.081 0 .027-.006.055-.004.082-.001.027-.006.054-.005.081 0 .028-.005.055-.004.082 0 .027-.006.054-.004.081 0 .028-.006.055-.004.082-.001.027-.006.054-.005.081 0 .028-.005.055-.004.082 0 .027-.006.054-.004.081 0 .028-.006.055-.004.082 0 .027-.006.054-.005.082 0 .027-.005.054-.004.081 0 .027-.005.054-.004.082 0 .027-.006.054-.004.081 0 .027-.006.054-.005.082 0 .027-.005.054-.004.081 0 .027-.005.054-.004.082 0 .027-.006.054-.004.081 0 .028-.006.055-.004.082-.001.027-.006.054-.005.081 0 .027-.005.055-.004.082-.007.365.147.73.468.97l20.087 15.06c.459.344 1.098.31 1.517-.08l6.799-6.319a1.185 1.185 0 0 1 1.55-.054l15.437 12.455a1.185 1.185 0 0 0 1.567-.07l17.024-16.443a1.18 1.18 0 0 0 .36-.902c.001-.027.006-.054.005-.082 0-.027.005-.054.004-.081 0-.028.005-.055.004-.082 0-.027.005-.054.004-.081.001-.027.006-.054.004-.082.001-.027.006-.054.005-.081 0-.027.005-.055.004-.082 0-.027.005-.054.004-.081 0-.028.005-.055.004-.082.001-.027.006-.054.005-.081 0-.028.005-.055.004-.082 0-.027.005-.054.004-.081 0-.028.006-.055.004-.082.001-.027.006-.054.005-.082 0-.027.005-.054.004-.081 0-.027.005-.054.004-.082 0-.027.005-.054.004-.081.001-.027.006-.054.005-.082 0-.027.005-.054.004-.081 0-.027.005-.054.004-.082 0-.027.005-.054.004-.081.001-.027.006-.054.004-.082.001-.027.006-.054.005-.081 0-.028.005-.055.004-.082 0-.027.005-.054.004-.081 0-.028.006-.055.004-.082.001-.027.006-.054.005-.081 0-.028.005-.055.004-.082 0-.027.005-.054.004-.081 0-.028.005-.055.004-.082.001-.027.006-.054.005-.081 0-.028.005-.055.004-.082 0-.027.005-.054.004-.081 0-.028.005-.055.004-.082.001-.027.006-.054.005-.082 0-.027.005-.054.004-.081 0-.027.005-.054.004-.082 0-.027.005-.054.004-.081 0-.027.006-.054.004-.082.001-.027.006-.054.005-.081 0-.027.005-.054.004-.082 0-.027.005-.054.004-.081.001-.028.006-.055.004-.082.001-.027.006-.054.005-.081 0-.028.005-.055.004-.082 0-.027.005-.054.004-.081 0-.028.006-.055.004-.082.001-.027.006-.054.005-.082 0-.027.005-.054.004-.081 0-.027.005-.054.004-.081 0-.028.005-.055.004-.082.001-.027.006-.054.005-.082 0-.027.005-.054.004-.081 0-.027.005-.054.004-.082 0-.027.005-.054.004-.081.001-.027.006-.054.005-.082 0-.027.005-.054.004-.081 0-.027.005-.054.004-.082 0-.027.005-.054.004-.081.001-.028.006-.055.004-.082.001-.027.006-.054.005-.081 0-.028.005-.055.004-.082 0-.027.005-.054.004-.081 0-.028.006-.055.004-.082.001-.027.006-.054.005-.081 0-.028.005-.055.004-.082 0-.027.005-.054.004-.082 0-.027.006-.054.004-.081.001-.027.006-.054.005-.082 0-.027.005-.054.004-.081 0-.027.005-.054.004-.082 0-.027.006-.054.004-.081.001-.027.006-.054.005-.082 0-.027.005-.054.004-.081 0-.027.005-.055.004-.082 0-.027.005-.054.004-.081.001-.027.006-.055.005-.082 0-.027.005-.054.004-.081 0-.028.005-.055.004-.082 0-.027.005-.054.004-.081.001-.028.006-.055.004-.082.001-.027.006-.054.005-.081 0-.028.005-.055.004-.082 0-.027.005-.054.004-.081 0-.028.006-.055.004-.082.001-.027.006-.054.005-.082 0-.027.005-.054.004-.081 0-.027.005-.054.004-.082 0-.027.006-.054.004-.081.001-.027.006-.054.005-.082 0-.027.005-.054.004-.081 0-.027.005-.054.004-.082 0-.027.006-.054.004-.081.001-.028.006-.055.005-.082 0-.027.005-.054.004-.081 0-.027.005-.055.004-.082 0-.027.005-.054.004-.081.001-.028.006-.055.005-.082 0-.027.005-.054.004-.081 0-.028.005-.055.004-.082 0-.027.005-.054.004-.081.001-.028.006-.055.005-.082 0-.027.005-.054.004-.081 0-.028.005-.055.004-.082 0-.027.005-.054.004-.082 0-.027.006-.054.004-.081.001-.027.006-.054.005-.082 0-.027.005-.054.004-.081 0-.027.005-.054.004-.082 0-.027.005-.054.004-.081.001-.027.006-.054.005-.082 0-.027.005-.054.004-.081 0-.027.005-.055.004-.082 0-.027.006-.054.004-.081.001-.028.006-.055.005-.082 0-.027.005-.054.004-.081 0-.028.005-.055.004-.082 0-.027.005-.054.004-.081 0-.028.006-.055.005-.082 0-.027.005-.054.004-.081 0-.028.005-.055.004-.082 0-.027.005-.054.004-.081.001-.028.006-.055.004-.082.001-.027.006-.054.005-.082 0-.027.005-.054.004-.081 0-.027.005-.054.004-.082 0-.027.006-.054.004-.081.001-.027.006-.054.005-.082 0-.027.005-.054.004-.081 0-.027.005-.054.004-.082 0-.027.005-.054.004-.081.001-.028.006-.055.005-.082 0-.027.005-.054.004-.081 0-.027.005-.055.004-.082 0-.027.005-.054.004-.081.001-.028.006-.055.004-.082.001-.027.006-.054.005-.081 0-.028.005-.055.004-.082 0-.027.005-.054.004-.082 0-.027.006-.054.004-.08.001-.028.006-.055.005-.082 0-.028.005-.055.004-.082 0-.027.005-.054.004-.082.001-.027.006-.054.004-.081.001-.027.006-.054.005-.082 0-.027.005-.054.004-.081 0-.027.005-.054.004-.082 0-.027.006-.054.004-.081.001-.028.006-.055.005-.082 0-.027.005-.054.004-.081 0-.028.005-.055.004-.082 0-.027.005-.054.004-.081.001-.028.006-.055.005-.082 0-.027.005-.054.004-.081 0-.018.004-.035.003-.053l6.815 5.377a1.185 1.185 0 0 0 1.524-.047l17.501-15.647c.276-.246.405-.587.394-.923 0-.028.005-.055.004-.082.001-.027.005-.054.004-.081.001-.028.005-.055.004-.082.001-.027.006-.054.005-.081 0-.028.005-.055.004-.082 0-.027.005-.054.004-.081.001-.028.005-.055.004-.082.001-.027.006-.054.005-.081 0-.028.005-.055.004-.082 0-.027.005-.054.004-.081.001-.028.005-.055.004-.082.001-.027.006-.054.005-.082 0-.027.005-.054.004-.081 0-.027.005-.054.004-.082.001-.027.005-.054.004-.081.001-.027.005-.054.005-.082 0-.027.005-.054.004-.081 0-.027.005-.054.004-.082.001-.027.005-.054.004-.081.001-.028.006-.055.005-.082 0-.027.005-.054.004-.081 0-.028.005-.055.004-.082.001-.027.005-.054.004-.081.001-.028.005-.055.004-.082.001-.027.006-.054.005-.081 0-.028.005-.055.004-.082 0-.027.005-.054.004-.081.001-.028.005-.055.004-.082.001-.027.006-.054.005-.081 0-.028.005-.055.004-.082 0-.027.005-.054.004-.082.001-.027.005-.054.004-.081.001-.027.006-.054.005-.082 0-.027.005-.054.004-.081 0-.028.005-.055.004-.082.001-.027.005-.054.004-.081.001-.027.005-.054.005-.082 0-.027.005-.054.004-.081 0-.028.005-.055.004-.082.001-.027.005-.054.004-.081.001-.028.005-.055.005-.082 0-.027.005-.054.004-.081 0-.028.005-.055.004-.082.001-.027.005-.054.004-.081.001-.028.005-.055.005-.082 0-.027.005-.054.004-.082 0-.027.005-.054.004-.08 0-.028.005-.055.004-.082.001-.028.005-.055.004-.082.001-.027.006-.054.005-.082 0-.027.005-.054.004-.081 0-.027.005-.054.004-.082.001-.027.005-.054.004-.081.001-.028.006-.055.005-.082 0-.027.005-.054.004-.081 0-.028.005-.054.004-.082.001-.027.005-.054.004-.081.001-.028.006-.055.005-.082 0-.027.005-.054.004-.081 0-.028.005-.055.004-.082 0-.027.005-.054.004-.081.001-.028.005-.055.005-.082 0-.027.005-.054.004-.081 0-.028.005-.055.004-.082.001-.027.005-.054.004-.082.001-.027.005-.054.005-.081 0-.027.005-.054.004-.082 0-.027.005-.054.004-.081 0-.027.005-.054.004-.082.001-.027.005-.054.004-.081.001-.027.006-.054.005-.082 0-.027.005-.054.004-.081 0-.028.005-.054.004-.082.001-.027.005-.054.004-.081.001-.028.006-.055.005-.082 0-.027.005-.054.004-.081 0-.028.005-.055.004-.082.001-.027.005-.054.004-.081.001-.028.006-.055.005-.082 0-.027.005-.054.004-.082 0-.027.005-.054.004-.081 0-.027.005-.054.004-.081.001-.028.005-.055.004-.082.001-.027.006-.054.005-.082 0-.027.005-.054.004-.081 0-.027.005-.054.004-.082.001-.027.005-.054.005-.081 0-.027.005-.054.004-.082 0-.027.005-.054.004-.081 0-.027.005-.054.004-.082.001-.027.005-.054.004-.081.001-.028.006-.055.005-.082 0-.027.005-.054.004-.081 0-.028.005-.055.004-.082.001-.027.005-.054.004-.081.001-.028.005-.055.005-.082 0-.027.005-.054.004-.081 0-.028.005-.055.004-.082.001-.027.005-.054.004-.082.001-.027.006-.054.005-.081 0-.027.005-.054.004-.082 0-.027.005-.054.004-.081.001-.027.005-.054.004-.082.001-.027.005-.054.004-.081.001-.027.006-.054.005-.082 0-.027.005-.054.004-.081 0-.028.005-.055.004-.082.001-.027.005-.054.004-.081.001-.027.006-.055.005-.082 0-.027.005-.054.004-.081 0-.028.005-.055.004-.082.001-.027.005-.054.004-.081.001-.028.006-.055.005-.082 0-.027.005-.054.004-.082 0-.027.005-.054.004-.08.001-.028.005-.055.004-.082.001-.028.005-.055.005-.082 0-.027.005-.054.004-.082 0-.027.005-.054.004-.081.001-.027.005-.054.004-.082.001-.027.006-.054.005-.081 0-.027.005-.054.004-.082 0-.027.005-.054.004-.081.001-.027.005-.054.004-.082.001-.027.005-.054.004-.081.001-.028.006-.055.005-.082 0-.027.005-.054.004-.081 0-.028.005-.055.004-.082.001-.027.005-.054.004-.081.001-.028.006-.055.005-.082 0-.027.005-.054.004-.081 0-.028.005-.055.004-.082.001-.027.005-.054.004-.082.001-.027.006-.054.005-.081 0-.027.005-.054.004-.081 0-.028.005-.055.004-.082.001-.027.005-.054.004-.082.001-.027.005-.054.005-.081 0-.027.005-.054.004-.082 0-.027.005-.054.004-.081.001-.028.005-.054.004-.082.001-.027.005-.054.005-.081 0-.028.005-.054.004-.082 0-.027.005-.054.004-.081.001-.028.005-.055.004-.082.001-.027.005-.054.004-.081.001-.028.006-.055.005-.082 0-.027.005-.054.004-.082 0-.027.005-.054.004-.08.001-.028.005-.055.004-.082.001-.028.006-.055.005-.082 0-.027.005-.054.004-.082 0-.027.005-.054.004-.081.001-.027.005-.054.004-.082.001-.027.006-.054.005-.081 0-.027.005-.054.004-.082 0-.027.005-.054.004-.081.001-.027.005-.054.004-.082.001-.027.005-.054.005-.081 0-.028.005-.055.004-.082 0-.027.005-.054.004-.081 0-.028.005-.054.004-.082.001-.027.005-.054.005-.081 0-.028.005-.055.004-.082 0-.027.005-.054.004-.081.001-.028.005-.055.004-.082.001-.027.005-.054.005-.082 0-.027.005-.054.004-.081 0-.027.005-.054.004-.082 0-.027.005-.054.004-.081.001-.027.005-.054.004-.082.001-.027.006-.054.005-.081 0-.027.005-.054.004-.082 0-.027.005-.054.004-.081.001-.027.005-.054.004-.082.001-.027.006-.054.005-.081 0-.027.005-.054.004-.082 0-.027.005-.054.004-.081.001-.028.005-.055.004-.082.001-.027.006-.054.005-.081 0-.028.005-.055.004-.082 0-.027.005-.054.004-.081 0-.028.005-.055.004-.082.001-.027.005-.054.004-.081.001-.028.006-.055.005-.082 0-.027.005-.054.004-.081 0-.028.005-.055.004-.082.001-.027.005-.054.005-.081 0-.028.005-.055.004-.082 0-.027.005-.054.004-.082 0-.027.005-.054.004-.081.001-.027.005-.054.004-.082.001-.027.006-.054.005-.081 0-.027.005-.054.004-.082 0-.027.005-.054.004-.081.001-.027.005-.054.004-.082.001-.027.005-.054.005-.081 0-.028.005-.054.004-.082 0-.027.005-.054.004-.081.001-.028.005-.055.004-.082a1.175 1.175 0 0 0-.434-.963l-7.278-5.883 10.8-10.038a1.178 1.178 0 0 1 1.092-.277 54.08 54.08 0 0 0 13.207 1.621c24.704 0 44.873-16.387 46.071-36.982l.004-.081zm-46.076-16.7c6.395 0 11.992 2.88 15.07 7.187-3.198 3.7-8.374 6.108-14.218 6.108-6.395 0-11.992-2.88-15.07-7.187 3.198-3.7 8.374-6.108 14.218-6.108z" fill="#f75e28"/><path d="M103.026 134.24 87.47 121.969a1.185 1.185 0 0 0-1.54.062l-5.236 4.867c-.524.486-.5 1.323.05 1.78l14.385 11.933c.543.45.574 1.273.067 1.763l-1.566 1.513 8.545 6.742a1.185 1.185 0 0 0 1.524-.047l.223-.2V134.48a1.18 1.18 0 0 1-.895-.24z" fill="url(#a)"/><path d="M139.827 48.402c6.395 0 11.991 2.88 15.07 7.187 2.118-2.45 3.37-5.468 3.37-8.733 0-8.196-7.874-14.84-17.588-14.84s-17.589 6.644-17.589 14.84c0 2.8.92 5.42 2.518 7.654 3.199-3.7 8.374-6.108 14.219-6.108z" fill="url(#b)"/><path d="m76.34 158.887-15.437-12.455a1.184 1.184 0 0 0-1.55.054l-6.799 6.319c-.175.163-.39.26-.612.297v15.867l6.558-6.096a1.185 1.185 0 0 1 1.55-.054l15.438 12.455a1.185 1.185 0 0 0 1.567-.07l.213-.205V159.13a1.18 1.18 0 0 1-.928-.244z" fill="url(#c)"/><path d="M140.679 85.778a54.09 54.09 0 0 1-13.207-1.62c-.389-.099-.799.003-1.093.277l-19.624 18.24c-.528.49-.5 1.335.062 1.788l7.91 6.396 10.8-10.038a1.178 1.178 0 0 1 1.093-.277 54.09 54.09 0 0 0 13.207 1.621c9.75 0 18.788-2.559 26.237-6.915V79.358c-7.28 4.058-16.006 6.42-25.385 6.42z" fill="url(#d)"/><path d="m31.01 137.704 20.087 15.059c.458.344 1.097.31 1.517-.08l6.798-6.319a1.185 1.185 0 0 1 1.551-.054L76.4 158.765a1.185 1.185 0 0 0 1.567-.07l17.024-16.444a1.185 1.185 0 0 0-.067-1.764L80.54 128.554a1.185 1.185 0 0 1-.05-1.78l5.236-4.866a1.185 1.185 0 0 1 1.54-.062l15.558 12.272a1.185 1.185 0 0 0 1.523-.047l17.502-15.646a1.185 1.185 0 0 0-.045-1.805l-15.19-12.279a1.185 1.185 0 0 1-.062-1.79l19.625-18.239a1.178 1.178 0 0 1 1.093-.277 54.083 54.083 0 0 0 13.206 1.621c25.476 0 46.129-17.426 46.129-38.922S165.95 7.812 140.475 7.812 94.346 25.238 94.346 46.734c0 8.337 3.108 16.062 8.398 22.395a1.179 1.179 0 0 1-.122 1.625l-71.698 65.125c-.55.5-.51 1.378.086 1.825zm109.465-76.13c-9.714 0-17.589-6.644-17.589-14.84s7.875-14.84 17.59-14.84c9.713 0 17.588 6.644 17.588 14.84s-7.875 14.84-17.589 14.84z" fill="#ff8000"/><path d="m31.01 137.704 20.087 15.059c.458.344 1.097.31 1.517-.08l6.798-6.319a1.185 1.185 0 0 1 1.551-.054L76.4 158.765a1.185 1.185 0 0 0 1.567-.07l17.024-16.444a1.185 1.185 0 0 0-.067-1.764L80.54 128.554a1.185 1.185 0 0 1-.05-1.78l5.236-4.866a1.185 1.185 0 0 1 1.54-.062l15.558 12.272a1.185 1.185 0 0 0 1.523-.047l17.502-15.646a1.185 1.185 0 0 0-.045-1.805l-15.19-12.279a1.185 1.185 0 0 1-.062-1.79l19.625-18.239a1.178 1.178 0 0 1 1.093-.277 54.083 54.083 0 0 0 13.206 1.621c25.476 0 46.129-17.426 46.129-38.922S165.95 7.812 140.475 7.812 94.346 25.238 94.346 46.734c0 8.337 3.108 16.062 8.398 22.395a1.179 1.179 0 0 1-.122 1.625l-71.698 65.125c-.55.5-.51 1.378.086 1.825zm109.465-76.13c-9.714 0-17.589-6.644-17.589-14.84s7.875-14.84 17.59-14.84c9.713 0 17.588 6.644 17.588 14.84s-7.875 14.84-17.589 14.84z" fill="url(#e)"/><path d="M31.031 137.675c7.28 4.154 14.185 8.775 20.998 13.583l.126.089a.603.603 0 0 0-.697-.05l-.07.048c.039-.047.272-.263.32-.316 2.046-2 4.45-4.322 6.556-6.25 1.156-.96 2.972-.893 4.07.12.163.115.584.494.752.617 4.667 3.81 9.834 8.08 14.305 11.957-.153-.094-.414-.045-.498.086l.242-.216c5.808-5.183 11.688-10.296 17.856-15.092-5.006 5.999-10.322 11.697-15.702 17.323-.863 1.085-2.528 1.4-3.702.613a26.132 26.132 0 0 1-.643-.473l-4.115-3.156c-3.72-2.822-7.412-5.816-11.082-8.71.255.216.733.21.99-.05-.18.158-.578.54-.763.703a459.374 459.374 0 0 1-4.803 4.35c-.926.78-1.912 1.96-3.23 1.936-.856.045-1.658-.348-2.281-.91-6.358-5.15-12.941-10.414-18.629-16.202zM80.54 128.554c-.697-.263-.967-1.45-.36-2.14.07-.104.329-.447.406-.559a86.507 86.507 0 0 1 2.773-3.654l1.15-1.418.072-.088c2.224-2.284 4.885.445 6.93 1.612 4.516 2.929 8.852 6.097 13.075 9.404a1.787 1.787 0 0 0-2.215.145c4.609-4.034 9.435-7.796 14.595-11.123a76.086 76.086 0 0 1 3.135-1.917l1.527-.855c.352-.184.542-.808.175-1.34.84.324 1.02 1.613.273 2.371-4.557 6.365-10.008 12.024-15.759 17.298-1.469 1.377-3.968 1.395-5.464.075-.101-.071-.42-.345-.528-.425-4.945-3.95-9.743-8.119-14.221-12.615.255.143.65.051.748-.187l-.093.066a94.63 94.63 0 0 1-5.346 3.54l-.39.244-.196.122c-.484.197-.689.853-.288 1.444zM106.613 104.341c-.501-.299-.742-1.052-.415-1.654.306-.47.794-.945 1.144-1.365l2.313-2.571a424.95 424.95 0 0 1 9.44-10.083c1.793-1.862 3.582-3.74 5.404-5.57.627-.719 1.544-1.197 2.509-1.188.797.023 1.105.18 1.724.27 24.709 4.896 53.823-8.809 57.872-35.446 1.41 9.456-2.413 19.342-8.797 26.415-12.419 13.535-32.639 17.926-50.042 13.211l-.863-.244c-.253-.069-.022-.014.065-.028a.902.902 0 0 0 .588-.258c-.032.02-.197.166-.29.243-6.35 5.382-12.822 10.707-19.43 15.78l-.69.523c-.223.18-.489.341-.63.512-.317.37-.321 1.037.098 1.453zM94.346 46.734c.532 4.792 1.898 9.507 4.117 13.773 1.269 2.715 3.242 4.954 4.769 7.492.408.828.83 1.685.27 2.568-.367.58-1.123.875-1.643 1.26-.522.336-1.041.674-1.547 1.026.399-.47.785-.955 1.168-1.442.202-.307.931-1.022.918-1.34-.018-.16-.22-.332-.374-.338-.01.006-.059-.04-.086-.056l-.386-.296c-5.463-5.963-7.981-14.65-7.206-22.647zM122.518 46.734c-1.878-9.954 8.803-17.64 17.957-17.285 4.732.04 9.521 1.703 13.037 4.9 3.405 3.021 5.618 7.913 4.552 12.385-.989-4.275-3.635-7.422-6.841-9.438-9.569-6.087-25.149-2.647-27.968 9.438h-.737zM29.914 75.012c17.939 4.954 21.954 8.97 26.908 26.908 4.954-17.939 8.97-21.954 26.908-26.908-17.939-4.954-21.954-8.97-26.908-26.908-4.954 17.938-8.97 21.954-26.908 26.908zM14.248 48.29c9.224 2.548 11.29 4.613 13.837 13.837 2.547-9.224 4.612-11.29 13.836-13.836-9.224-2.548-11.29-4.613-13.836-13.837-2.548 9.224-4.613 11.29-13.837 13.837z" fill="#ff8000"/></svg>