<?xml version="1.0" encoding="UTF-8"?><svg id="uuid-c6019a0a-7274-4281-86ee-c405642e8f86" xmlns="http://www.w3.org/2000/svg" width="200" height="200" xmlns:xlink="http://www.w3.org/1999/xlink" viewBox="0 0 200 200"><defs><linearGradient id="uuid-2b63c254-53f6-4a51-9d62-f08a2f012c0e" x1="-979.48453" y1="150.46255" x2="-932.75252" y2="-54.61759" gradientTransform="translate(-912.90936) rotate(-180) scale(1 -1)" gradientUnits="userSpaceOnUse"><stop offset=".02944" stop-color="#f75e28"/><stop offset=".47008" stop-color="#d44c28"/><stop offset=".72832" stop-color="#c64528"/></linearGradient><linearGradient id="uuid-ffb411c3-1ab3-45a8-8737-e6324c81ed84" x1="-1025.90869" y1="143.29144" x2="-995.0115" y2="27.42696" gradientTransform="translate(-912.90936) rotate(-180) scale(1 -1)" gradientUnits="userSpaceOnUse"><stop offset=".35084" stop-color="#ff8000" stop-opacity="0"/><stop offset=".44545" stop-color="#ff962c" stop-opacity=".17342"/><stop offset=".64742" stop-color="#ffc285" stop-opacity=".52321"/><stop offset=".81207" stop-color="#ffe3c6" stop-opacity=".78023"/><stop offset=".931" stop-color="#fff7ef" stop-opacity=".93931"/><stop offset=".99234" stop-color="#fff"/></linearGradient><linearGradient id="uuid-b659b09e-b287-412b-8b24-f3b93c2d8d0e" x1="-1103.71085" y1="152.50498" x2="-922.96225" y2="49.38559" gradientTransform="translate(-912.90936) rotate(-180) scale(1 -1)" gradientUnits="userSpaceOnUse"><stop offset=".08498" stop-color="#ff5b00"/><stop offset=".46538" stop-color="#ff7300"/><stop offset=".67173" stop-color="#faae44"/><stop offset=".79435" stop-color="#f8ce69"/><stop offset=".8362" stop-color="#f8cf6c"/><stop offset=".86962" stop-color="#f8d276"/><stop offset=".90014" stop-color="#f9d786"/><stop offset=".92892" stop-color="#fadf9e"/><stop offset=".95649" stop-color="#fbe9bd"/><stop offset=".98277" stop-color="#fdf5e2"/><stop offset="1" stop-color="#fff"/></linearGradient><radialGradient id="uuid-e0c31aae-53d2-4cc7-a96e-3f2677681b8e" cx="137.03534" cy="123.32562" fx="137.03534" fy="123.32562" r="2.67051" gradientTransform="translate(4.47366 -86.17267) rotate(1.23198) scale(1 1.67524)" gradientUnits="userSpaceOnUse"><stop offset="0" stop-color="#ff5b00"/><stop offset=".19986" stop-color="#fe5c02"/><stop offset=".34678" stop-color="#fe620c"/><stop offset=".47678" stop-color="#fe6b1c"/><stop offset=".59698" stop-color="#fe7932"/><stop offset=".71046" stop-color="#fd8a50"/><stop offset=".8189" stop-color="#fc9f73"/><stop offset=".92146" stop-color="#fcb89d"/><stop offset=".94702" stop-color="#fcbfa9"/></radialGradient><radialGradient id="uuid-82be941f-5892-4585-a0fa-c8ac309ecab7" cx="139.43705" cy="135.05034" fx="139.43705" fy="135.05034" r="2.66983" gradientTransform="translate(4.89651 -94.13674) rotate(1.23198) scale(1 1.67524)" xlink:href="#uuid-e0c31aae-53d2-4cc7-a96e-3f2677681b8e"/><radialGradient id="uuid-7e30d1e7-618a-4588-8dc9-96a0ff32e337" cx="141.83876" cy="146.77509" fx="141.83876" fy="146.77509" r="2.66915" gradientTransform="translate(5.31938 -102.10083) rotate(1.23198) scale(1 1.67524)" xlink:href="#uuid-e0c31aae-53d2-4cc7-a96e-3f2677681b8e"/><radialGradient id="uuid-f5a4a778-e13a-44b3-b063-8ea4a4be44b4" cx="125.02671" cy="64.67046" fx="125.02671" fy="64.67046" r="2.68619" gradientTransform="translate(2.35822 -46.33101) rotate(1.23198) scale(1 1.67524)" xlink:href="#uuid-e0c31aae-53d2-4cc7-a96e-3f2677681b8e"/><radialGradient id="uuid-78dbb20c-c366-4797-a894-84e0133ee0a3" cx="127.42848" cy="76.42614" fx="127.42848" fy="76.42614" r="2.67302" gradientTransform="translate(2.7822 -54.31598) rotate(1.23198) scale(1 1.67524)" xlink:href="#uuid-e0c31aae-53d2-4cc7-a96e-3f2677681b8e"/><radialGradient id="uuid-0bcc75cd-4698-4a26-953d-fc20311f7702" cx="132.23192" cy="99.87623" fx="132.23192" fy="99.87623" r="2.67191" gradientTransform="translate(3.62794 -70.24456) rotate(1.23198) scale(1 1.67524)" xlink:href="#uuid-e0c31aae-53d2-4cc7-a96e-3f2677681b8e"/><radialGradient id="uuid-616f24dc-d3c7-4f49-8422-35dafdd6bdd4" cx="134.63363" cy="111.60091" fx="134.63363" fy="111.60091" r="2.6712" gradientTransform="translate(4.0508 -78.2086) rotate(1.23198) scale(1 1.67524)" xlink:href="#uuid-e0c31aae-53d2-4cc7-a96e-3f2677681b8e"/><radialGradient id="uuid-757baf82-c38c-44c4-8a1f-c1ad7af92b6b" cx="129.83026" cy="88.18314" fx="129.83026" fy="88.18314" r="2.65991" gradientTransform="translate(3.20622 -62.30184) rotate(1.23198) scale(1 1.67524)" xlink:href="#uuid-e0c31aae-53d2-4cc7-a96e-3f2677681b8e"/><linearGradient id="uuid-879fe3ca-b6d4-4b76-8401-b4991a99e0c0" x1="21.00574" y1="96.9088" x2="25.99616" y2="93.4943" gradientUnits="userSpaceOnUse"><stop offset=".17101" stop-color="#ff8000"/><stop offset=".88647" stop-color="#f75e28"/></linearGradient><radialGradient id="uuid-cafbbc08-d564-4e68-b06e-e72eeb6cc5e2" cx="-995.80162" cy="114.67872" fx="-995.80162" fy="114.67872" r="21.7031" gradientTransform="translate(-912.90936) rotate(-180) scale(1 -1)" gradientUnits="userSpaceOnUse"><stop offset=".54185" stop-color="#fff"/><stop offset=".62746" stop-color="#fefefc"/><stop offset=".6904" stop-color="#fefaf2"/><stop offset=".74609" stop-color="#fdf5e2"/><stop offset=".79756" stop-color="#fceecc"/><stop offset=".84568" stop-color="#fbe4af"/><stop offset=".88938" stop-color="#fada8e"/></radialGradient><radialGradient id="uuid-73bc5bca-9ca6-46c8-9ec3-081676ac487b" cx="-972.62328" cy="93.12641" fx="-972.62328" fy="93.12641" r="11.16014" xlink:href="#uuid-cafbbc08-d564-4e68-b06e-e72eeb6cc5e2"/><radialGradient id="uuid-35fbfc94-ef6b-4d4a-8d20-33d34721207d" cx="143.92201" cy="157.53241" fx="143.92201" fy="157.53241" r="3.23386" gradientUnits="userSpaceOnUse"><stop offset=".40889" stop-color="#ff5b00"/><stop offset=".56238" stop-color="#fd7c38"/><stop offset=".74351" stop-color="#fca074"/><stop offset=".87693" stop-color="#fcb69a"/><stop offset=".94702" stop-color="#fcbfa9"/></radialGradient><radialGradient id="uuid-1bc6a4e2-3bf9-4c6f-9e68-6ae6ebf75253" cx="-514.12446" cy="-63.87392" fx="-514.12446" fy="-63.87392" r="1.11611" gradientTransform="translate(1140.53113 -2622.7358) scale(2.16343 -43.46844)" gradientUnits="userSpaceOnUse"><stop offset="0" stop-color="#fdf2ef" stop-opacity=".7"/><stop offset=".2935" stop-color="#fff" stop-opacity="0"/></radialGradient><radialGradient id="uuid-2abf5fcf-fe52-49cd-9da3-a0210f942244" cx="122.94417" cy="53.77536" fx="122.94417" fy="53.77536" r="2.33676" gradientTransform="translate(0 -28.90631) scale(1 1.53754)" gradientUnits="userSpaceOnUse"><stop offset="0" stop-color="#ff5b00"/><stop offset=".21104" stop-color="#fe5c02"/><stop offset=".36618" stop-color="#fe620c"/><stop offset=".50345" stop-color="#fe6b1c"/><stop offset=".63038" stop-color="#fe7932"/><stop offset=".75021" stop-color="#fd8a50"/><stop offset=".86471" stop-color="#fc9f73"/><stop offset=".97301" stop-color="#fcb89d"/><stop offset="1" stop-color="#fcbfa9"/></radialGradient><linearGradient id="uuid-2815d952-90b2-4e49-b058-234b9dcb0f1e" x1="49.47115" y1="186.15472" x2="72.57452" y2="144.94797" xlink:href="#uuid-879fe3ca-b6d4-4b76-8401-b4991a99e0c0"/></defs><path d="M31.21688,170.43029c21.56637,1.5466,50.41652,1.45632,83.60341-4.79484,0,0-31.2522,8.78576-85.94923,7.02456-1.23331-.03971-2.27535-.93038-2.51199-2.14142-2.00355-10.25349-4.00713-20.50695-6.01068-30.76041-.08824-.45156.05381-.91488.38246-1.23688.50266-.49247,1.5918-1.38394,2.14888-1.83388.22609-.18261.47519-.32989.74488-.43817,3.90613-1.56839,10.57348-3.97027,12.2791-11.29512,2.32001-9.9633-6.95369-23.81511-24.1691-27.38436-.96023-.19908-1.71703-.94063-1.92251-1.89951-2.14873-10.0274-3.98714-18.79253-6.13588-28.82001-.1008-.47042.04374-.95986.38392-1.30005l2.05674-2.47091c2.14733,10.02087,3.78339,19.55811,5.85573,29.50804.29123,1.3983,1.37647,2.49979,2.76963,2.81473,16.77245,3.79158,25.76757,17.40549,23.47877,27.23478-1.92688,8.27503-11.53208,12.49688-14.74294,13.69487-.55553.20727-.87537.78693-.76166,1.36887,1.98497,10.15827,3.96995,20.31655,5.95489,30.47486.24249,1.241,1.28435,2.1644,2.54558,2.25485" fill="url(#uuid-2b63c254-53f6-4a51-9d62-f08a2f012c0e)"/><path d="M5.8586,64.08937c2.1492,10.02963,4.29843,20.05923,6.44763,30.08886.10107.47164.47933.83003.9535.91838,17.72238,3.30224,27.3166,17.42517,24.96127,27.54023-1.93113,8.29324-11.57441,12.51545-14.76408,13.70274-.54297.20212-.85613.7693-.74501,1.33793,2.06505,10.56823,4.13015,21.13643,6.19519,31.70469.10247.52444.53902.91668,1.07186.95693,21.69465,1.63896,51.01529,1.66787,84.84132-4.70367,8.60587-1.62103,16.78304-3.52478,24.5256-5.61396-.17922-.43964-.27988-.91969-.27988-1.42376,0-1.8465,1.32613-3.38096,3.07741-3.70909l-.89122-4.33065c-.26168.05738-.53273.08972-.81163.08972-2.08561,0-3.77633-1.69072-3.77633-3.77633,0-1.84264,1.32045-3.3749,3.06627-3.7074l-.891-4.32954c-.25828.05582-.52574.08691-.80072.08691-2.08561,0-3.77633-1.69072-3.77633-3.77633,0-1.83877,1.31483-3.36889,3.05517-3.7057l-.8908-4.32846c-.25489.05427-.51876.08413-.78981.08413-2.08561,0-3.77633-1.69072-3.77633-3.77633,0-1.8349,1.30913-3.36288,3.04404-3.704.23705-.04661.48161-.07233.73229-.07233,2.08561,0,3.77633,1.69072,3.77633,3.77633,0,1.81456-1.2803,3.32887-2.98649,3.6922l.89078,4.32846c.23362-.04522.47434-.07063.72116-.07063,2.08561,0,3.77633,1.69072,3.77633,3.77633,0,1.81063-1.27495,3.32191-2.97561,3.68939l.89103,4.32957c.2302-.04383.46705-.06893.71003-.06893,2.08561,0,3.77633,1.69072,3.77633,3.77633,0,1.80671-1.26958,3.31498-2.9647,3.68661l.89125,4.33065c.22675-.04249.45979-.06723.6989-.06723,1.87531,0,3.42699,1.36843,3.7217,3.16031,19.03173-5.60719,35.16911-12.24297,48.07188-18.39008,1.21173-.57728,1.86699-1.90862,1.588-3.2215l-6.09172-28.66694c-13.07893-.62445-22.74071-10.86825-22.65795-21.62803.06172-8.02247,5.53542-15.65892,13.77501-19.31074-2.09652-10.85264-4.19304-21.70523-6.28956-32.55784-.1402-.72575-.92295-1.12532-1.59343-.81416-13.09852,6.07901-29.45728,12.61143-48.72297,18.06818.22817.48634.35938,1.02717.35938,1.59988,0,1.83791-1.3135,3.36749-3.05264,3.70531l.89072,4.32821c.25411-.05393.5172-.08349.78736-.08349,2.08561,0,3.77633,1.69072,3.77633,3.77633,0,1.83404-1.30785,3.36151-3.04153,3.70361l.89053,4.32709c.25068-.0524.51022-.08068.77645-.08068,2.08561,0,3.77633,1.69072,3.77633,3.77633,0,1.83017-1.30217,3.35553-3.0304,3.70192-.24122.04834-.49048.07441-.74593.07441-2.08561,0-3.77633-1.69072-3.77633-3.77633,0-1.81937,1.28684-3.3375,2.99985-3.69565l-.8905-4.32709c-.2378.04692-.48322.07272-.73479.07272-2.08561,0-3.77633-1.69072-3.77633-3.77633,0-1.81545,1.28149-3.33048,2.98897-3.69284l-.89075-4.32821c-.2344.04553-.47596.07102-.72366.07102-1.96826,0-3.58309-1.50632-3.75877-3.42875-7.55864,1.95718-15.52373,3.73525-23.88913,5.24584-34.48001,6.22614-64.34593,5.91034-86.45496,4.00422-.7963-.06865-1.43238.64975-1.26491,1.43124ZM127.05714,99.96595c0-1.82719,1.2978-3.35096,3.0218-3.70061.24384-.04945.49611-.07572.75453-.07572,2.08561,0,3.77633,1.69072,3.77633,3.77633,0,1.82238-1.29104,3.34298-3.00831,3.6978l.89036,4.32626c.24044-.04803.48884-.07402.74339-.07402,2.08561,0,3.77633,1.69072,3.77633,3.77633,0,1.81848-1.28567,3.33591-2.9974,3.69499-.25146.05276-.5118.08132-.77893.08132-2.08561,0-3.77633-1.69069-3.77633-3.7763,0-1.83103,1.30345-3.35689,3.03291-3.7023l-.89033-4.32626c-.24804.05126-.50482.07851-.76802.07851-2.08561,0-3.77633-1.69072-3.77633-3.7763ZM124.65536,88.23956c0-1.82327,1.29224-3.34451,3.01076-3.69841.24723-.05093.50326-.07789.76557-.07789,2.08561,0,3.77633,1.69072,3.77633,3.7763,0,1.8263-1.29652,3.3496-3.01927,3.70022-.24462.04979-.49775.07611-.75706.07611-2.08561,0-3.77633-1.69072-3.77633-3.77633Z" fill="url(#uuid-ffb411c3-1ab3-45a8-8737-e6324c81ed84)"/><path d="M5.85859,64.08938c2.1492,10.02966,4.29843,20.0592,6.44763,30.08886.10107.47164.47933.82997.9535.91835,17.72238,3.30218,27.3166,17.42514,24.96127,27.54028-1.93113,8.29324-11.57441,12.51545-14.76408,13.70274-.54297.20204-.85613.76919-.74501,1.3379,2.06505,10.5682,4.13015,21.1364,6.19519,31.7046.10247.52452.53902.9168,1.07186.95698,21.69465,1.6389,51.01529,1.66784,84.84132-4.70365,8.60587-1.62109,16.78304-3.52481,24.5256-5.61398-.17922-.43959-.27988-.91969-.27988-1.42373,0-1.8465,1.32613-3.38099,3.07741-3.70915l-.89122-4.33063c-.26168.05744-.53273.08972-.81163.08972-2.08561,0-3.77633-1.69066-3.77633-3.77627,0-1.84272,1.32045-3.37498,3.06627-3.70748l-.891-4.32951c-.25828.05588-.52574.08694-.80072.08694-2.08561,0-3.77633-1.69077-3.77633-3.77639,0-1.83871,1.31483-3.36886,3.05517-3.7057l-.8908-4.3284c-.25489.05421-.51876.08415-.78981.08415-2.08561,0-3.77633-1.69077-3.77633-3.77639,0-1.83493,1.30913-3.36285,3.04404-3.70403.23705-.04653.48161-.07236.73229-.07236,2.08561,0,3.77633,1.69077,3.77633,3.77639,0,1.81456-1.2803,3.3289-2.98649,3.69223l.89078,4.3284c.23362-.04519.47434-.07057.72116-.07057,2.08561,0,3.77633,1.69066,3.77633,3.77627,0,1.81066-1.27495,3.32188-2.97561,3.68945l.89103,4.32951c.2302-.04386.46705-.0689.71003-.0689,2.08561,0,3.77633,1.69077,3.77633,3.77639,0,1.80665-1.26958,3.31498-2.9647,3.68655l.89125,4.33063c.22675-.04252.45979-.06723.6989-.06723,1.87531,0,3.42699,1.36852,3.7217,3.16036,19.03173-5.60719,35.16911-12.24306,48.07188-18.39013,1.21173-.57728,1.86699-1.90862,1.588-3.22148l-6.09172-28.66691c-13.07893-.62448-22.74071-10.86831-22.65795-21.62808.06172-8.02241,5.53542-15.65889,13.77501-19.31071-2.09652-10.85261-4.19304-21.70523-6.28956-32.55784-.1402-.72578-.92295-1.12529-1.59343-.81416-13.09852,6.07895-29.45728,12.6114-48.72297,18.06821.22817.48634.35938,1.02711.35938,1.59983,0,1.83793-1.3135,3.36752-3.05264,3.70537l.89072,4.32818c.25411-.05388.5172-.08349.78736-.08349,2.08561,0,3.77633,1.69066,3.77633,3.77627,0,1.83404-1.30785,3.36151-3.04153,3.7037l.89053,4.32706c.25068-.05243.51022-.0807.77645-.0807,2.08561,0,3.77633,1.69077,3.77633,3.77639,0,1.83014-1.30217,3.3555-3.0304,3.70192-.24122.04831-.49048.07436-.74593.07436-2.08561,0-3.77633-1.69066-3.77633-3.77627,0-1.81934,1.28684-3.33747,2.99985-3.69568l-.8905-4.32706c-.2378.04686-.48322.07269-.73479.07269-2.08561,0-3.77633-1.69077-3.77633-3.77639,0-1.81534,1.28149-3.33045,2.98897-3.69279l-.89075-4.32818c-.2344.04553-.47596.07102-.72366.07102-1.96826,0-3.58309-1.50632-3.75877-3.42875-7.55864,1.95715-15.52373,3.7352-23.88913,5.24586-34.48001,6.22611-64.34593,5.91031-86.45496,4.00414-.7963-.06868-1.43238.64975-1.26491,1.4313ZM127.05712,99.96588c0-1.82714,1.2978-3.35094,3.0218-3.70058.24384-.04942.49611-.07569.75453-.07569,2.08561,0,3.77633,1.69066,3.77633,3.77627,0,1.82246-1.29104,3.34303-3.00831,3.69791l.89036,4.32617c.24044-.04798.48884-.07402.74339-.07402,2.08561,0,3.77633,1.69077,3.77633,3.77639,0,1.81845-1.28567,3.33591-2.9974,3.69501-.25146.05276-.5118.08126-.77893.08126-2.08561,0-3.77633-1.69066-3.77633-3.77627,0-1.83103,1.30345-3.35695,3.03291-3.70236l-.89033-4.32617c-.24804.05121-.50482.07848-.76802.07848-2.08561,0-3.77633-1.69077-3.77633-3.77639ZM124.65535,88.23955c0-1.82324,1.29224-3.34448,3.01076-3.69846.24723-.05087.50326-.07781.76557-.07781,2.08561,0,3.77633,1.69066,3.77633,3.77627,0,1.82636-1.29652,3.3496-3.01927,3.70025-.24462.04976-.49775.07614-.75706.07614-2.08561,0-3.77633-1.69077-3.77633-3.77639Z" fill="url(#uuid-b659b09e-b287-412b-8b24-f3b93c2d8d0e)"/><path d="M180.41233,69.36822l.83694-2.60379c-8.23959,3.65182-13.71329,11.28828-13.77501,19.31074,0,0,.24399-11.34516,11.65706-15.39156.60817-.21562,1.08356-.70108,1.28101-1.31539Z" fill="#b9471e"/><path d="M139.41065,143.95332c-.67919,0-1.31492.18175-1.8656.49561.69272-.8271,1.73224-1.35388,2.89552-1.35388,2.08561,0,3.77633,1.69072,3.77633,3.77633,0,1.40645-.77047,2.63086-1.91079,3.28075.54929-.65582.88087-1.50012.88087-2.42248,0-2.08561-1.69072-3.77633-3.77633-3.77633Z" fill="#b9471e"/><path d="M137.00887,132.22696c-.67919,0-1.31492.18175-1.8656.49561.69272-.8271,1.73224-1.35388,2.89552-1.35388,2.08561,0,3.77633,1.69072,3.77633,3.77633,0,1.40645-.77047,2.63086-1.91079,3.28075.54929-.65582.88087-1.50015.88087-2.42251,0-2.08558-1.69072-3.7763-3.77633-3.7763Z" fill="#b9471e"/><path d="M134.6071,120.50058c-.67916,0-1.31486.18175-1.86554.49558.69272-.82708,1.73221-1.35382,2.89546-1.35382,2.08561,0,3.77633,1.69072,3.77633,3.77633,0,1.40645-.77047,2.63086-1.91079,3.28075.54929-.65582.88087-1.50015.88087-2.42251,0-2.08561-1.69072-3.77633-3.77633-3.77633Z" fill="#b9471e"/><path d="M132.20532,108.77422c-.67919,0-1.31489.18175-1.86557.49561.69275-.82708,1.73224-1.35385,2.89549-1.35385,2.08561,0,3.77633,1.69072,3.77633,3.77633,0,1.40642-.77042,2.63078-1.91073,3.2807.54926-.65582.88081-1.50012.88081-2.42245,0-2.08561-1.69072-3.77633-3.77633-3.77633Z" fill="#b9471e"/><path d="M129.80355,97.04786c-.67919,0-1.31489.18175-1.86557.49561.69275-.82708,1.73224-1.35385,2.89549-1.35385,2.08561,0,3.77633,1.69072,3.77633,3.77633,0,1.40639-.77042,2.63078-1.91073,3.2807.54926-.65582.88081-1.50012.88081-2.42245,0-2.08561-1.69072-3.77633-3.77633-3.77633Z" fill="#b9471e"/><path d="M127.40177,85.3215c-.67919,0-1.31489.18175-1.86557.49561.69275-.82708,1.73224-1.35385,2.89549-1.35385,2.08561,0,3.77633,1.69072,3.77633,3.7763,0,1.40642-.77042,2.63081-1.91073,3.28072.54926-.65582.88081-1.50012.88081-2.42245,0-2.08561-1.69072-3.77633-3.77633-3.77633Z" fill="#b9471e"/><path d="M124.99999,73.59515c-.67922,0-1.31492.18178-1.86562.49566.69275-.82713,1.73227-1.35393,2.89554-1.35393,2.08561,0,3.77633,1.69072,3.77633,3.77633,0,1.40645-.77047,2.63086-1.91079,3.28075.54929-.65582.88087-1.50012.88087-2.42248,0-2.08561-1.69072-3.77633-3.77633-3.77633Z" fill="#b9471e"/><path d="M122.59825,61.86879c-.67922,0-1.31494.18178-1.86565.49566.69275-.82713,1.73227-1.35393,2.89554-1.35393,2.08561,0,3.77633,1.69072,3.77633,3.77633,0,1.40645-.77047,2.63086-1.91079,3.28075.54929-.65582.88087-1.50012.88087-2.42248,0-2.08561-1.69072-3.77633-3.7763-3.77633Z" fill="#b9471e"/><path d="M141.81242,155.67968c-.67919,0-1.31492.18175-1.8656.49561.69272-.8271,1.73224-1.35388,2.89552-1.35388,1.85861,0,3.40011,1.34391,3.71438,3.11228l-1.0115.97888c-.26412-1.82739-1.83226-3.23289-3.73281-3.23289Z" fill="#b9471e"/><path d="M141.81242,155.67968c-.67919,0-1.31492.18175-1.8656.49561.69272-.8271,1.73224-1.35388,2.89552-1.35388,1.85861,0,3.40011,1.34391,3.71438,3.11228l-1.0115.97888c-.26412-1.82739-1.83226-3.23289-3.73281-3.23289Z" fill="#b9471e"/><path d="M145.54523,158.91257l1.0115-.97888s11.1978-3.11226,21.88308-7.23188c0,0-21.2645,7.73169-22.89458,8.21076Z" fill="#b9471e"/><path d="M60.22632,116.74376c14.46873,3.99543,17.70767,7.23437,21.7031,21.7031,3.99543-14.46873,7.23437-17.70767,21.7031-21.7031-14.46873-3.99543-17.70767-7.23437-21.7031-21.7031-3.99543,14.46873-7.23437,17.70767-21.7031,21.7031Z" fill="#f75e28"/><path d="M136.42686,127.11087h0c.11883.00474.22374.00053.31572.00054.09058-.005.16489-.01767.226-.02387l.1368-.01911.04461-.00996c.23967-.05056.47944-.12423.70766-.22944.11297-.05422.2302-.10564.33628-.1748l.16342-.09971c.05293-.03555.10394-.07392.15564-.11199.05075-.03906.1035-.07663.15297-.11784l.1444-.12891c.0996-.08411.18363-.18265.27214-.27889.17612-.19352.32212-.41319.45766-.64076.06463-.11533.11856-.23662.17765-.35616.05098-.12263.09742-.24797.14091-.37437.03447-.12872.07295-.25748.10216-.38827.02233-.1318.04769-.26425.06097-.39757l.02441-.33992.00006-.00237c-.00431-.15402-.00899-.30853-.01802-.46271l-.05597-.40081c-.02829-.13186-.065-.26217-.09845-.39295-.03623-.12996-.08809-.2553-.13471-.38189-.02241-.06379-.052-.12443-.08269-.18457l-.09047-.18095c-.05589-.12294-.13588-.23252-.20724-.34632-.06926-.1155-.15776-.21739-.24012-.32308-.07932-.10838-.17692-.20109-.27067-.29624-.04784-.04664-.09242-.09637-.14309-.1398l-.15405-.12767c-.05201-.04159-.10293-.08424-.15582-.12421l-.16577-.11064-.16655-.10775c-.05795-.03199-.11729-.0616-.17575-.0921l-.17574-.08975c-.05912-.02846-.12235-.04896-.18312-.07341-.12274-.04662-.24299-.09664-.37148-.1243-.12705-.03038-.24964-.07139-.37972-.08373-.1288-.01538-.25404-.04256-.38318-.04207,0,0-.06432-.00291-.19169-.00336-.12626-.00849-.31873.01624-.56498.04927v.49479s0,.011,0,.03299c.21394.05875.36816.08746.46832.12811.1005.03434.15012.04881.15012.04881.19671.07311.38696.15145.56526.25013.09171.04273.17597.10024.26115.15308.04199.02757.08611.05062.12596.08113l.11977.08978.11892.08867c.0366.03375.07309.06721.11036.09932l.11114.09643c.03471.03475.06741.07165.10121.10695.03329.03588.06754.07047.10183.10488.03388.03483.06174.07548.09299.11256.06136.07537.12359.14928.17525.23135.05332.08051.11384.15581.15603.24289.02341.04201.04589.08444.07048.12557.02607.04036.04661.08365.06525.12787.08466.17203.14849.3522.20714.5336.02201.09287.04899.18453.06941.27769.01465.09439.03136.18846.04836.28282l.0243.32996.00007.0017-.00129.24461c-.00189.09652-.0178.19162-.02241.28863-.01112.09595-.02991.19091-.0434.28757-.02382.09389-.04594.18889-.06808.28466-.03165.09224-.05707.18803-.09255.28013-.03927.09012-.06781.18719-.11373.27567l-.06656.1348c-.01984.04679-.04448.09068-.07055.13392-.05048.08763-.09964.17771-.15973.26051l-.08568.1292c-.03014.042-.06381.08104-.09575.12222-.03254.04053-.06289.08407-.09658.1244l-.10617.11681c-.06888.08167-.14629.15433-.22437.22909-.15579.15004-.32848.28593-.51204.41767l-.03415.02566-.10764.06744c-.04808.03051-.10799.07116-.1827.1163-.0754.04331-.16576.08961-.2701.15207Z" fill="url(#uuid-e0c31aae-53d2-4cc7-a96e-3f2677681b8e)"/><path d="M138.83951,138.83441h0c.11873.00443.22353-.00006.31541-.00029.09046-.0053.16468-.01808.22571-.02444l.13659-.0195.04455-.01005c.2393-.05109.47868-.12523.70638-.23092.11286-.05425.22965-.10615.33554-.17538l.16309-.09989c.05254-.03592.10365-.0741.15519-.11228.05056-.03917.10345-.07655.15247-.11812l.14409-.12899c.09943-.08414.18282-.18305.27131-.27916.17549-.19375.32086-.41347.45601-.641.06379-.1156.11806-.23659.17684-.35614.0499-.12288.09737-.24778.13971-.37437.03416-.12865.07319-.25721.10138-.38803.02203-.1317.04802-.26398.06024-.39724l.02382-.33241.00006-.00237c-.00442-.15623-.00852-.31305-.01878-.46937l-.05599-.40039c-.02935-.13151-.06528-.26183-.09896-.39242-.03716-.12953-.08831-.25494-.13512-.38132-.0223-.06376-.05275-.12395-.08306-.18418l-.09041-.18074-.0456-.09004-.05288-.08594-.10897-.16974c-.06914-.1154-.15821-.21673-.24022-.32249-.07919-.10829-.17724-.20044-.27069-.29567-.04789-.04649-.09212-.09646-.14317-.13942l-.1539-.12751c-.05203-.04145-.10267-.08433-.15584-.12385l-.16561-.11049-.16639-.1076-.17571-.09179-.17556-.08963c-.05924-.02809-.12228-.0488-.18302-.07314-.12256-.04668-.24282-.09633-.37116-.12398-.12689-.03043-.24943-.07114-.37936-.08347-.12867-.01531-.25377-.04256-.3828-.04189,0,0-.06425-.0029-.1915-.00332-.12613-.00847-.31841.01635-.5644.04936v.49479s0,.011,0,.03299c.21371.05877.36778.0874.46784.12804.1004.03432.14996.04879.14996.04879.19651.07302.3866.15119.56472.2498.0916.04274.17589.09991.26093.15283.04198.02748.08592.05075.12591.08091l.11964.08971.11892.08842c.03656.03372.07301.06716.11023.09925l.11101.09636c.03499.03432.06742.07148.10125.10666.03325.03585.06746.07041.10171.1048.03425.03439.06178.07531.09308.11226.06105.0755.12375.14891.17528.23095.11415.15554.20602.32525.29201.4955.08465.17185.14856.3517.20767.53279.0222.09273.04836.18446.06978.27731.01461.0943.03128.18827.04823.28253l.02528.33468.00007.0017-.00126.23918c-.00089.09653-.01751.19144-.02188.28835-.01016.09602-.02958.19075-.04282.28733-.02274.09408-.04596.18861-.06707.2846-.03141.09222-.05722.18768-.09191.28001-.03902.09012-.06787.18685-.11306.2756l-.06634.13471c-.01983.04672-.04385.09094-.07006.13401-.0505.08744-.09905.17783-.15899.26059l-.08539.12917c-.0297.04233-.06351.08115-.09526.1224-.03238.04061-.06281.08392-.09612.12458l-.10584.11688c-.06867.08167-.14562.15472-.22355.22944-.15519.15036-.32736.28657-.51036.4187l-.03404.02572-.10731.06775c-.04794.03064-.10769.07135-.18216.11675-.07519.04351-.16531.09003-.26935.15277Z" fill="url(#uuid-82be941f-5892-4585-a0fa-c8ac309ecab7)"/><path d="M141.2522,150.55799h0c.11863.00412.22331-.00065.31511-.00112.09033-.0056.16447-.01849.22542-.02501l.13638-.01989.04448-.01014c.23893-.05162.47791-.12624.70509-.23242.11274-.05428.2291-.10666.33479-.17596l.16276-.10007c.05216-.03628.10336-.07428.15473-.11257.05038-.03929.1034-.07648.15198-.11841l.14378-.12907c.09925-.08416.18201-.18345.27048-.27942.17485-.19398.31959-.41375.45435-.64124.06296-.11586.11756-.23656.17603-.35612.04882-.12313.09731-.24758.13851-.37437.03385-.12859.07343-.25693.10059-.3878.02173-.1316.04836-.26371.05951-.39691l.02323-.3249.00006-.00237c-.00452-.15844-.00804-.31756-.01955-.47603l-.05602-.39996c-.0304-.13117-.06556-.26149-.09947-.39189-.03809-.12909-.08853-.25459-.13552-.38075-.0222-.06372-.05351-.12347-.08342-.1838l-.09035-.18053-.04561-.08991-.05315-.08567-.10888-.16954c-.06902-.11531-.15866-.21608-.24033-.3219-.07907-.10821-.17757-.1998-.2707-.2951-.09119-.09734-.19276-.18369-.29701-.26639-.05206-.04131-.1024-.08442-.15586-.1235l-.16545-.11035-.16623-.10746-.17566-.09148-.17539-.08951c-.05937-.02772-.12221-.04864-.18293-.07287-.12238-.04674-.24265-.09602-.37085-.12365-.12673-.03048-.24922-.07089-.37901-.08322-.12855-.01524-.25349-.04255-.38242-.04171,0,0-.06419-.00289-.1913-.00329-.126-.00845-.31809.01646-.56382.04945v.49479s0,.011,0,.03299c.21349.05879.3674.08734.46735.12796.10029.03431.1498.04877.1498.04877.19631.07293.38625.15093.56417.24946.09149.04275.17582.09957.26071.15259.04198.02738.08574.05089.12586.08069l.11951.08964.11891.08817c.03652.0337.07292.06712.11011.09917l.11088.09629c.03528.0339.06744.07131.1013.10638.03321.03583.06738.07036.10158.10472.03463.03395.06182.07513.09317.11196.06075.07562.1239.14854.17531.23056.11409.15537.20596.32479.29226.49468l.0594.13033c.01996.04331.04172.08586.0547.13198.02869.09091.06826.17803.0941.26966l.07016.27693c.01456.09421.03119.18809.0481.28224.01141.11256.01498.22607.02624.33939l.00007.0017-.00124.23377c.00011.09653-.01721.19125-.02135.28808-.00921.09608-.02924.19058-.04225.28709-.02166.09427-.04597.18834-.06607.28454-.03116.0922-.05737.18734-.09128.27989-.03876.09012-.06792.18651-.11239.27554l-.06612.13462-.03188.06876-.03769.06534c-.05052.08725-.09846.17794-.15824.26066l-.0851.12915c-.02926.04266-.06321.08125-.09478.12258l-.09566.12476-.1055.11695c-.06847.08167-.14495.15512-.22273.22979-.15459.15069-.32624.28722-.50867.41973l-.03394.02579-.10698.06806c-.04779.03077-.10739.07155-.18163.1172-.07498.0437-.16487.09046-.26861.15347Z" fill="url(#uuid-7e30d1e7-618a-4588-8dc9-96a0ff32e337)"/><path d="M194.67426,139.6324h0c-.97345.45141-1.70353.78997-2.19026,1.01568l-.73161.33518c-.97753.44245-1.95129.893-2.93303,1.32594-.97986.43708-1.9594.8747-2.9444,1.29995-.49177.21423-.98353.42846-1.4753.64269-.49354.21011-.98707.42021-1.48061.63032l-1.48127.62853-1.48621.61671c-.98923.41482-1.9843.81546-2.97903,1.21672-.99285.40587-1.99229.79532-2.99052,1.18756-.99658.39642-1.99993.77548-3.0019,1.15784-1.0004.38647-2.00717.75606-3.01311,1.12762-.50333.1848-1.00487.37439-1.50962.55525-.50484.18058-1.00968.36115-1.51452.54173-.5049.18029-1.0098.36059-1.5147.54088l-1.52024.5251-1.52013.52507c-.50845.16987-1.0169.33975-1.52535.50962-1.01742.33811-2.03305.68135-3.05575,1.00315l-1.53147.49023-.76569.24511-.76855.2361c-1.02535.31271-2.04805.63381-3.07537.93958-.90382.26561-1.80763.53121-2.71145.79682h0c.00026.00135.00193.0144-.00004-.00799l-.00827-.08395c-.00471-.05643-.0142-.1117-.02437-.16703-.02177-.12821-.05518-.25405-.09592-.37738-.0406-.12345-.08955-.24424-.14681-.3609-.02632-.0596-.05904-.1158-.09064-.17259-.03044-.0575-.06509-.11252-.10112-.16663-.06964-.10973-.14861-.21332-.23152-.31314-.08308-.09973-.17281-.19373-.26481-.28467-.09127-.09167-.19022-.17554-.29028-.25681-.09983-.08161-.20556-.15583-.31324-.22591-.10734-.0706-.2195-.13355-.33337-.19172-.11366-.05862-.23151-.10858-.35002-.15423-.11861-.0457-.24093-.08094-.3624-.11358-.12298-.02924-.24616-.05332-.37-.0691l-.18581-.01764-.18548-.00526-.18414.00689-.18201.02025-.08985.01491c-.05939.00852-.14865.02999-.26341.06287h0c.11464.03778.19738.06404.2522.08462l.08171.02812c.10782.04193.21232.08535.31399.1311.10141.04707.1995.09707.29498.14884l.14042.0814.13562.08622.13132.08978.12669.0941c.083.0641.16236.13158.24014.19943.07699.06915.15072.14092.22269.21344.07141.07331.13913.14954.20546.22609.06628.07672.12739.15752.18823.23755.0607.08023.11677.16371.17092.24777.05532.08323.10707.16853.15896.25333.05074.08556.10266.17033.151.25733.02556.0428.04935.08654.07329.13031.02537.04315.04906.08718.07239.13152.02536.04355.04837.08822.07189.13292.02522.04415.04777.08946.07177.13462.08354.15667.16655.31777.26238.48445l.00047.00083.20134.35693.24613-.076.00097-.0003,3.1634-.97678c1.02527-.32048,2.04573-.65624,3.06872-.98359l.76674-.24706.76382-.25605c.50918-.1707,1.01837-.34139,1.52755-.51209,1.02001-.33636,2.03278-.6941,3.0472-1.04668l1.52073-.53129,1.51527-.54667c.50505-.18221,1.01011-.36443,1.51516-.54664l1.50938-.56235,1.50898-.56313c.50287-.18798,1.00248-.38468,1.50386-.57658,1.00202-.38576,2.00475-.76949,3.00093-1.17005.99776-.39645,1.99676-.78956,2.98883-1.19997.99373-.40623,1.98853-.80963,2.9766-1.22938.98995-.41515,1.9801-.82963,2.96427-1.25822l1.47852-.63734c.49113-.21636.98225-.43272,1.47338-.64907l1.47253-.65079c.48901-.22102.97801-.44205,1.46702-.66307.97943-.43882,1.95325-.88994,2.92727-1.34047.97591-.4464,1.9437-.91034,2.91515-1.36614l.72703-.34518c.48361-.23234,1.20903-.58086,2.17626-1.04555Z" fill="#ff7300"/><path d="M124.36293,68.49046h0c.11897.00472.22474.00323.3165.00223.09082-.00452.16541-.01678.22668-.02262l.13732-.01806.04488-.00946c.06-.01264.11977-.02728.1802-.04159.06031-.01458.12204-.02745.17986-.04937l.17699-.06172.08912-.03185.08549-.03917c.11322-.05409.23215-.10329.33893-.17192l.1646-.09865c.05469-.03365.10503-.07297.15752-.1103l.15515-.11605.1457-.12815c.0481-.04354.09871-.08548.14281-.13316l.13325-.14344c.09302-.09338.16863-.20053.24842-.30574l.05942-.07941.05304-.08358.10561-.16866c.03629-.05598.0639-.1163.0939-.17571l.08864-.1795c.05574-.12132.09985-.2479.14756-.37358.0399-.12788.07336-.25826.10823-.38856.02398-.13215.04816-.26511.06756-.39868l.02788-.37625.00005-.00126-.00058-.21583c-.00273-.07196-.00703-.14398-.01113-.21603-.01238-.13496-.02803-.26987-.05235-.40364-.0251-.13347-.05498-.26634-.09293-.39696-.07284-.26218-.17456-.51614-.299-.75772-.12261-.2427-.27388-.46982-.44159-.68218-.169-.21158-.35946-.40506-.56542-.57841-.20728-.17192-.43001-.32406-.66606-.44967-.05839-.03234-.11901-.06074-.17843-.09072-.05972-.02946-.12223-.05343-.18305-.08-.12312-.05016-.24768-.09601-.37515-.13177-.25367-.07439-.51359-.12216-.7734-.14l-.04868-.0032c-.03242-.00206-.08085-.00625-.14591-.00527-.06493.00044-.14546-.00276-.24212.0053-.09635.00372-.20838.01723-.33432.03642v.6262s0,.01392,0,.04175c.21145.04463.36284.08451.46293.11466.05018.01358.08688.02734.11157.035l.03686.01208c.19577.06662.38364.14532.56232.23761.08919.04641.17632.09551.26094.14778.08441.0528.16601.10904.24621.16627.15836.11765.30814.24459.444.38429.13708.13833.26109.28789.37269.44512.11293.15641.2084.32381.29426.49494.08409.1722.15255.35132.20866.53419.0283.09142.05037.18474.06955.27858.02028.09372.03505.18861.04771.284l.01605.15315.00878.15425.00003.0009c-.00102.08998-.0015.1802-.00087.27089l-.02201.29057-.04659.28901-.03496.1427c-.01211.04753-.01854.09735-.03495.14374l-.04545.14117c-.01539.04715-.02819.09574-.04953.14058-.06976.18688-.15619.36951-.25758.54662l-.07752.13294c-.0255.04499-.05853.08406-.08636.12793l-.08754.12955-.09855.12151c-.03347.04025-.06363.08487-.09938.12359l-.10842.11646c-.07022.08173-.15048.15215-.2297.22702-.15964.14802-.33586.2816-.5231.41026l-.03493.02485-.10964.06542c-.04903.02938-.10988.06957-.18614.11232-.0771.04008-.16834.08653-.27453.14602Z" fill="url(#uuid-f5a4a778-e13a-44b3-b063-8ea4a4be44b4)"/><path d="M126.77584,80.21512h0c.11921.006.22457.0029.31689.0039.09107-.00375.1657-.01601.22712-.02154l.13755-.01771.04494-.0094.18052-.04124c.06045-.01442.12223-.02736.18015-.04923l.17729-.06163c.06034-.0194.1186-.04319.17482-.07114.11343-.05407.23242-.10352.33926-.17234l.16474-.09892c.05447-.03405.1051-.07317.15749-.11075l.15499-.11662.14569-.12854c.10031-.08397.18691-.18098.27551-.27773.17873-.19253.32728-.41195.46442-.63965.06799-.11425.1206-.23671.18096-.35622.05491-.12171.09858-.2485.14488-.37459.03752-.1285.07251-.25846.10622-.38896.02354-.13219.04637-.26532.06391-.39888l.02679-.36953.00004-.00237-.01613-.43639c-.01546-.13424-.03514-.26846-.05474-.40256-.02414-.13323-.06389-.26351-.09646-.39504-.07666-.25994-.17715-.51332-.30509-.752-.05635-.12334-.1336-.23505-.20645-.34869-.06973-.11586-.156-.21996-.23971-.32542-.0427-.05201-.08179-.10695-.12916-.15482l-.14145-.14368c-.04765-.04724-.09357-.09603-.14279-.1413l-.15462-.1283-.15583-.12554-.16633-.11128-.1672-.1083c-.05718-.03362-.11747-.06233-.17594-.09331l-.17643-.09023c-.05864-.02992-.12264-.0496-.18348-.07448-.12344-.04639-.24368-.09786-.37273-.1256-.25111-.07262-.50983-.11191-.7658-.12753,0,0-.06458-.00296-.19248-.00349-.12678-.00857-.32001.0158-.56728.04892v.49479s0,.011,0,.03299c.21483.05866.36965.0877.47022.1284.10091.03439.15073.04889.15073.04889.19751.07347.38835.15248.5674.25145.09215.04271.17627.10156.26202.15404.08731.04976.16647.11247.24644.17204.03962.03031.08088.05778.11896.08965.03676.03385.07341.06741.11085.09961l.11158.0968.1011.10797c.03345.03599.06786.07068.10231.10521.0324.03658.06158.07617.09262.11373l.09206.11324c.03056.0377.05454.08059.08307.11967.05468.08006.11297.15731.15565.2445.04447.08572.09991.16503.13509.25506.0847.17274.1482.35415.20504.53679.02128.09341.05147.18478.06794.2792l.04775.2841.02162.31123.00005.0017-.00139.26595c-.00587.0965-.019.19231-.02453.28968l-.04663.28824c-.02633.09358-.04542.19008-.07124.28506-.03265.09228-.05649.18937-.0951.28054-.06972.18609-.15591.36782-.25646.54448l-.07708.13246c-.02495.04515-.05818.08379-.08567.12765l-.08686.12926-.0977.12142c-.03322.0402-.0632.08465-.09844.12363l-.10755.11648c-.0697.08165-.149.15267-.22768.2276-.15822.14865-.33299.28323-.51882.41337l-.03464.02521-.1089.06634c-.04865.02999-.1092.07037-.18484.11444-.07623.04252-.16752.08787-.27305.14924Z" fill="url(#uuid-78dbb20c-c366-4797-a894-84e0133ee0a3)"/><path d="M131.60149,103.66374h0c.11902.00537.22417.00172.31632.00222.09083-.00438.1653-.01685.22657-.02272l.13721-.01837.04476-.00975.18-.04201c.06037-.01449.12175-.02814.1795-.05017.11545-.0435.23952-.0767.35074-.13428.1132-.05416.23131-.10463.33776-.17364l.16407-.09935c.05369-.03482.10451-.07357.15655-.11141.05111-.03883.10359-.0768.15397-.11726l.14503-.12875c.09994-.08406.18525-.18185.27379-.27836.1774-.19305.32465-.41261.46096-.64026.06632-.11479.11956-.23667.17927-.3562.05313-.12212.0976-.24834.14327-.37438.03524-.12881.07249-.25803.10381-.38871.02294-.13199.047-.26479.06245-.39823l.02562-.35501.00006-.00237-.0165-.44933-.0559-.40166c-.02617-.13256-.06444-.26285-.09744-.39402-.01484-.06618-.0403-.12904-.06303-.19278l-.07087-.19025-.03709-.09438-.04487-.09097-.0906-.18136c-.05613-.12315-.13472-.23381-.20684-.34753-.0695-.11568-.15686-.2187-.23991-.32427-.07957-.10854-.17626-.20239-.27064-.29739-.04774-.04695-.093-.0962-.14294-.14056l-.15434-.128-.15579-.12493-.16609-.11092-.16688-.10803c-.05755-.03282-.11738-.06197-.17585-.09272l-.17609-.09c-.05887-.02921-.1225-.04929-.1833-.07396-.1231-.0465-.24334-.09726-.37212-.12496-.25062-.07238-.50892-.11128-.76438-.12668,0,0-.06445-.00294-.19209-.00342-.12653-.00853-.31939.01602-.56616.04909v.49479s0,.011,0,.03299c.2144.0587.36892.08758.46929.12826.10071.03436.15043.04885.15043.04885.19712.0733.38767.15197.56635.25081.09194.04272.17612.10092.2616.15357.08709.04977.16645.11171.2461.17148.03964.03011.08046.05806.11894.08917.03668.0338.07325.06731.11061.09947l.1114.09658.10112.10751c.03337.03594.0677.07057.10208.10505.03313.03572.06166.07583.0928.11316l.09183.11307c.03146.03684.05468.08024.08335.11908.05401.08028.11339.15658.15584.24371.04373.08592.10048.1643.1354.25427.08468.1724.14834.35319.20607.53522.02164.09314.05025.18466.06866.27846.01472.09458.03155.18884.04861.2834l.02237.32048.00007.0017-.00134.2555c-.00391.09652-.01841.19199-.02348.28918l-.04465.28804c-.02586.09354-.04588.18946-.07005.28479-.03215.09227-.05676.18873-.09381.28038-.06913.18589-.15425.36759-.25361.54452-.05044.08802-.10082.17747-.16121.26036l-.08626.12925c-.03103.04133-.06441.08083-.09671.12184-.03287.04038-.06303.08437-.0975.12404l-.10685.11667c-.06928.08168-.14763.15354-.226.22839-.15699.14937-.3307.28464-.5154.4156l-.03437.0255-.10829.06684c-.04837.03026-.1086.07077-.18377.11538-.07582.04292-.16665.08874-.27159.15066Z" fill="url(#uuid-0bcc75cd-4698-4a26-953d-fc20311f7702)"/><path d="M134.01417,115.38729h0c.11892.00506.22395.00112.31602.00139.09071-.00469.1651-.01726.22628-.02329l.13701-.01872.04468-.00987.17973-.04237c.06032-.01452.12151-.02851.17916-.05061.11532-.04358.23903-.07728.35006-.13497.11309-.05419.23076-.10514.33702-.17422l.16374-.09953c.05331-.03519.10422-.07375.1561-.1117.05093-.03894.10355-.07671.15347-.11755l.14472-.12883c.09977-.08409.18444-.18225.27296-.27863.17676-.19329.32338-.4129.45931-.64051.06547-.11506.11906-.23664.17846-.35618.05207-.12237.09748-.24817.14212-.37436.03479-.12878.0727-.25776.10295-.3885.02264-.1319.04735-.26452.06171-.3979l.02501-.34746.00006-.00237c-.00421-.1518-.00947-.304-.01725-.45603l-.05595-.40123c-.02723-.13221-.06472-.26251-.09795-.39348-.01474-.06614-.04118-.12862-.06347-.19242l-.07083-.19004c-.02251-.06383-.05124-.12491-.08233-.18496l-.09053-.18115c-.05601-.12304-.1353-.23317-.20704-.34692-.06938-.11559-.15731-.21804-.24002-.32368-.07944-.10846-.17659-.20174-.27066-.29682-.04779-.0468-.09271-.09629-.14302-.14018l-.15419-.12783-.15581-.12457-.16593-.11078-.16672-.10789c-.05775-.0324-.11733-.06178-.1758-.09241l-.17591-.08987c-.059-.02884-.12242-.04912-.18321-.07368-.12292-.04656-.24317-.09695-.3718-.12463-.25036-.07225-.50845-.11096-.76364-.12624,0,0-.06439-.00293-.19189-.00339-.12639-.00851-.31906.01613-.56557.04918v.49479s0,.011,0,.03299c.21417.05872.36854.08752.4688.12819.10061.03435.15027.04883.15027.04883.19692.07321.38731.15171.56581.25047.09183.04273.17604.10058.26137.15332.04199.02766.08629.05049.12601.08136l.11991.08984c.03966.03.08025.0582.11893.08892.03664.03377.07317.06726.11048.0994l.11127.09651.10116.10723c.03333.03591.06762.07052.10195.10497.0335.03528.0617.07566.09289.11286l.09172.11298c.03194.03639.05475.08006.0835.11877.05366.0804.11362.1562.15593.2433.04334.08602.10078.16392.13556.25385.08467.17221.14841.3527.2066.53441.02182.09301.04962.18459.06903.27808.01469.09449.03145.18865.0485.28311l.02333.32523.00007.0017-.00131.25005c-.0029.09652-.0181.1918-.02294.28891-.01208.09589-.03025.19108-.04399.28782-.0249.0937-.04593.18916-.0691.28472-.0319.09226-.05692.18838-.09318.28026-.03953.09012-.06775.18753-.11441.27574l-.06678.1349c-.01986.04687-.04511.09042-.07104.13382-.05046.08782-.10023.17759-.16047.26043l-.08597.12922c-.03059.04167-.06411.08094-.09623.12203-.03271.04046-.06296.08422-.09704.12422l-.10651.11673c-.06908.08167-.14696.15393-.22518.22874-.15639.1497-.32959.28528-.51373.41663l-.03425.0256-.10798.06712c-.04822.03039-.10829.07097-.18324.11584-.07561.04311-.1662.08917-.27085.15136Z" fill="url(#uuid-616f24dc-d3c7-4f49-8422-35dafdd6bdd4)"/><path d="M129.18875,91.93978h0c.1194.00704.22488.0043.31742.00586.09122-.00339.166-.01532.22756-.02063l.13783-.01735.04501-.00935c.06028-.01224.12021-.0268.1809-.04089.06062-.01425.12246-.02727.18048-.0491l.17763-.06154c.06049-.01934.1187-.0434.17506-.07129.11368-.05404.23274-.10379.33968-.17281l.16491-.09922c.05423-.03449.10519-.07339.15749-.11125l.15484-.11723.1457-.12896c.10027-.08431.18631-.18203.27497-.27896.17821-.19343.32593-.41373.4623-.64215.06692-.11492.11957-.23747.17931-.35734.0538-.12224.0973-.24915.14284-.37551.03592-.12896.07153-.25882.10355-.38963.02252-.13235.04533-.26548.06115-.3991l.02437-.36258.00002-.00237-.01908-.44247c-.01743-.13385-.03695-.2678-.0578-.40139-.02603-.13257-.06593-.26243-.09954-.39328-.07874-.25858-.18128-.51007-.31072-.74673-.05694-.1224-.13564-.2326-.20889-.34517-.07034-.11469-.15779-.21708-.24172-.32136-.08019-.10743-.17718-.2003-.27225-.29384-.04792-.04637-.09371-.09464-.14345-.13872-.05128-.04254-.10267-.0848-.15498-.12576l-.15613-.12276-.16641-.10846c-.0552-.0362-.11125-.0709-.16709-.10539-.05735-.03228-.11736-.06025-.17574-.09015l-.1759-.08717c-.05862-.02854-.12225-.04738-.18286-.07112-.12282-.04439-.24247-.0934-.37066-.11888-.24937-.06814-.50576-.10271-.75863-.11353,0,0-.06384-.00184-.19001.00005-.12501-.00622-.31558.02186-.55822.05985v.3584s0,.00796,0,.02389c.21901.06357.37616.09615.47828.13918.10241.03678.15286.05238.15286.05238.20017.07808.39299.16145.57336.26472.09277.04495.17751.10559.26358.16021.08764.05185.16716.11626.24717.17782.03972.03117.08082.05984.11911.09228.03675.03475.07329.06929.11068.10233l.11136.09925.10071.11031c.03325.0368.06742.0723.10169.10752.03259.03691.06125.0775.09211.11567l.0912.11528c.03072.03797.05397.08183.08234.12137.0538.0814.11198.15935.15383.2476.04336.08693.09865.16678.133.25762.08322.17431.14488.35688.20059.54018.02062.09378.04916.18564.06569.2801l.04568.28448.01922.31601.00004.0017-.0032.26067c-.0056.09639-.02002.19187-.02605.2889l-.04712.28736c-.02654.09326-.04664.18908-.07187.28392-.03269.09194-.05717.18834-.09525.27935-.06976.18527-.15559.36619-.25538.54237-.05033.08791-.10123.17672-.16162.25936l-.0862.12897-.09683.12137c-.03297.04015-.06279.08442-.09749.12369l-.10668.11651c-.06919.08157-.1475.15324-.22565.22822-.15677.14931-.33009.28493-.51452.41661l-.03434.02559-.10815.0673c-.04829.03053-.10845.07141-.18359.11643-.07573.04353-.16656.08975-.27151.15276Z" fill="url(#uuid-757baf82-c38c-44c4-8a1f-c1ad7af92b6b)"/><path d="M23.02854,136.6916h0c.93704-.2954,1.74049-.60715,2.42501-.88484.68454-.27852,1.24423-.53779,1.68919-.75123.44524-.21318.77363-.38501.99413-.49681l.32707-.17473c1.74525-.93091,3.40751-2.04288,4.91267-3.36599,1.50431-1.31939,2.83989-2.87916,3.8205-4.67907.54525-1.00229.97593-2.0765,1.26218-3.19342l.00054-.00207c.24809-1.01088.38246-2.04503.42843-3.08235-.00016-.24146-.00033-.48292-.00049-.72438-.00084-.12077.00089-.24183-.00223-.36249l-.0236-.36079c-.0166-.2405-.03029-.48168-.05-.72209l-.09368-.71628-.04882-.35813-.06854-.35395-.13807-.70834-.17694-.69813-.08937-.34912c-.02897-.11669-.06996-.22925-.10442-.34411-.5922-1.95752-1.46126-3.82113-2.54297-5.54186-1.07555-1.72601-2.35214-3.31863-3.76628-4.77033-1.42135-1.44572-2.98998-2.73995-4.65498-3.88751-1.66554-1.14824-3.43987-2.13167-5.27672-2.96778-1.83678-.83844-3.74713-1.50561-5.69094-2.03152-.52143-.12979-1.04229-.26296-1.56591-.38204l-1.57914-.31665-.00087-.00021c-.08746-.01303-.15155-.07314-.16868-.14226,0,0-.00004.00021-.00023-.00071-.09831-.43574-.19663-.87148-.29494-1.30722-.21746-.95672-.43491-1.91344-.65237-2.87016-.22175-.9558-.44351-1.9116-.66526-2.8674-.22503-.9551-.45006-1.9102-.67509-2.86529-.22619-.95485-.45305-1.90955-.68622-2.86291-.46073-1.90791-.93106-3.81376-1.41089-5.71758-.47805-1.9042-.95339-3.8092-1.314-5.73161,0,0-.12789-.46982-.30991-1.44631-.09001-.48288-.21099-1.08168-.39203-1.82947-.17348-.71657-.24395-1.43844-.5179-2.38306h0c.13717.97393-.03532,1.51135.02155,2.51662.04162.73561.0766,1.36922.1543,1.85423l.23425,1.45478c.32161,1.93772.65216,3.87353.99634,5.80641.34241,1.93326.69431,3.8645,1.05582,5.79367.17795.96519.36221,1.92902.54713,2.89271.18609.96344.37217,1.92689.55826,2.89033.18936.96274.37873,1.92548.56809,2.88822.19366.96182.38732,1.92364.58098,2.88546l.2666,1.31329.00074.00324c.08757.42059.30783.81596.61645,1.11195.30755.29772.70252.49997,1.11834.57895l.00311.00066,1.4964.32348c.49546.12075.98707.25613,1.48175.37913,1.84167.50539,3.63962,1.15595,5.37792,1.93373,1.73793.77949,3.40496,1.71,4.98309,2.76906,1.57834,1.05922,3.05566,2.26493,4.40996,3.59316,1.3501,1.33255,2.5575,2.80483,3.59933,4.38197l.19707.29485c.06513.09863.12248.20175.18416.3024l.36452.60745c.06305.10012.11734.20472.17268.30881l.16667.31201.16693.31204c.05658.10362.11187.20784.15979.31535.19777.42717.41154.84867.58066,1.28752.08765.21814.18437.43351.26517.65411l.23333.66509c.03501.10447.0768.20723.10639.31316l.09158.31717.18322.63486.14617.64293.07358.32169.05424.32451.10887.64963c.02595.21744.04635.43546.07019.65342l.03482.32716c.00697.10915.00919.21839.01413.32765l.02662.6562c-.00492.93832-.09489,1.8726-.27229,2.79238l-.0004.00188c-.21124,1.01485-.5559,2.0046-1.01318,2.94672-.8119,1.69632-1.98669,3.22876-3.34362,4.58702-1.36203,1.35878-2.91763,2.53477-4.55581,3.58624l-.30844.1959c-.20838.1261-.51874.31953-.94188.56273-.42386.24161-.95607.54129-1.60783.87895-.65251.33598-1.42483.7086-2.32597,1.09929Z" fill="url(#uuid-879fe3ca-b6d4-4b76-8401-b4991a99e0c0)"/><path d="M47.59094,95.19144c7.44009,2.05452,9.10561,3.72005,11.16014,11.16014,2.05452-7.44009,3.72005-9.10561,11.16014-11.16014-7.44009-2.05452-9.10561-3.72005-11.16014-11.16014-2.05452,7.44009-3.72005,9.10561-11.16014,11.16014Z" fill="#f75e28"/><path d="M61.18916,114.67872c14.46873,3.99543,17.70767,7.23437,21.7031,21.7031,3.99543-14.46873,7.23437-17.70767,21.7031-21.7031-14.46873-3.99543-17.70767-7.23437-21.7031-21.7031-3.99543,14.46873-7.23437,17.70767-21.7031,21.7031Z" fill="url(#uuid-cafbbc08-d564-4e68-b06e-e72eeb6cc5e2)"/><path d="M48.55378,93.12641c7.44009,2.05452,9.10561,3.72005,11.16014,11.16014,2.05452-7.44009,3.72005-9.10561,11.16014-11.16014-7.44009-2.05452-9.10561-3.72005-11.16014-11.16014-2.05452,7.44009-3.72005,9.10561-11.16014,11.16014Z" fill="url(#uuid-73bc5bca-9ca6-46c8-9ec3-081676ac487b)"/><path d="M143.48841,155.358c.20451.07992.40544.15406.59042.26137.18545.1023.36809.20593.53011.33751.08566.05844.16202.12868.23866.19759.07992.06456.15559.13336.2238.21028.14566.14271.26961.30612.38407.47131.11925.16252.2152.34007.30467.51829.08841.17966.15506.36779.21631.55725.05541.19191.09167.38738.12298.5853.00537.07302.01071.14593.01609.21896l1.11805-.38582c-.18189-2.05678-1.94627-3.67153-4.09931-3.67153-.09854,0-.19508.00779-.2919.01447v.50137c.22344.06122.3844.09172.48923.13269.10453.03395.15682.05098.15682.05098Z" fill="url(#uuid-35fbfc94-ef6b-4d4a-8d20-33d34721207d)"/><path d="M123.36143,51.81398c.39818.59832.63119,1.31609.63119,2.08873,0,.92236-.33158,1.76658-.88087,2.42245,1.14032-.64986,1.91079-1.87433,1.91079-3.2807,0-.56816-.12904-1.10492-.35376-1.58825l-1.30735.35777Z" fill="#b9471e"/><line x1="44.69323" y1="175.12765" x2="44.68755" y2="175.12749" fill="none"/><rect x="26.38794" y="138.22757" width="3.70668" height="31.05814" transform="translate(-30.54375 8.90156) rotate(-11.68047)" fill="url(#uuid-1bc6a4e2-3bf9-4c6f-9e68-6ae6ebf75253)"/><path d="M121.981,56.82569h0c.07645.0162.14446.02683.2027.03315.05811.0056.10693.0085.14644.01152l.11736.00115c.07926.00158.15663-.00667.23635-.01165l.11759-.01523c.03946-.00522.07931-.01029.11779-.01912.15738-.02792.31078-.0739.46424-.12626.15073-.05687.30096-.12184.44331-.202.07292-.0378.14104-.08281.21133-.12598.06761-.0463.13676-.09195.20154-.143.13215-.09945.25527-.21118.37264-.32947.11568-.11978.22471-.24711.32353-.38261.04951-.06762.09572-.13777.14139-.20832.04305-.07211.0876-.14362.12638-.21839.0807-.14793.14831-.30288.20852-.46056.05765-.15865.10709-.32052.14292-.4855.03618-.16478.06236-.33178.07447-.49952.016-.17385.01302-.34842.00399-.52122l-.00009-.0013c-.01055-.17226-.0391-.33822-.07815-.49573-.02031-.08212-.04423-.16199-.07088-.23947-.0262-.07761-.05374-.15331-.08526-.22633-.06118-.14658-.12939-.28495-.2033-.41617,0,0-.01727-.0334-.05588-.09733-.03796-.06385-.095-.15904-.1787-.27816l-.07941.02579-.03971.01289-.03971.01289-.03971.01289-.03971.01289-.03971.01289-.03971.01289-.03971.01289-.03971.01289-.03971.01289-.03971.01289-.03971.01289-.03971.01289-.03971.01289-.03971.01289c.00518.15314.01732.26129.02408.33348.00319.03592.00603.06266.00827.08038l.00283.02637c.01454.14115.03057.27663.04224.40703.005.06543.01103.12899.01456.19144.0033.06254.0053.12357.00637.18302.00207.11417-.00255.22276-.01268.32543l-.00008.00086c-.01443.12536-.02692.24957-.0501.37171-.00838.05922-.02337.11721-.03349.17584-.01444.05781-.02561.11623-.04145.17349-.01587.05725-.0295.11499-.04825.17134-.01588.05718-.03592.11303-.05458.16937-.04016.11158-.08165.22318-.1318.33135-.04732.10954-.10214.21604-.15969.32174-.05681.10635-.12098.20896-.18629.31248-.06863.10073-.13662.20449-.21407.30203-.03619.05139-.07805.09744-.11638.14826l-.06169.07216c-.02004.02496-.04096.04908-.06274.07237-.08379.09765-.17579.18852-.2693.28302-.04819.04483-.09501.09407-.14623.13717-.02549.02173-.05004.04584-.07559.06856l-.0783.06651c-.10526.08925-.2159.17728-.33279.26318l-.0885.06527-.2793.1973Z" fill="url(#uuid-2abf5fcf-fe52-49cd-9da3-a0210f942244)"/><path d="M181.27835,66.76443h0c-.51314.13013-.89636.2438-1.14459.33472l-.37547.13222c-.49582.18779-.98645.39448-1.4634.6301-.24305.11016-.47324.24288-.70923.36708-.23793.1214-.46266.26412-.69272.3995-.23216.13251-.45177.2838-.67496.43059-.11047.07492-.22497.14464-.33231.22405l-.32376.23625c-.1075.07938-.21699.15641-.32298.23791l-.31315.25071-.31222.25222c-.10154.0871-.20323.17413-.30303.2633l-.30064.26617-.29201.27576-.28972.2782-.27989.28824-.2796.28846-.27034.2973-.26979.29775c-.08779.10117-.17228.20525-.25853.30773l-.25735.30858-.24755.31662-.24666.31716-.23608.32526-.23327.32711-.22254.33464-.22171.33492-.21038.3423-.20775.34364-.19528.35105-.19446.35111-.18247.35764c-.06052.11931-.12119.23846-.1791.35898l-.16674.36503c-.05472.12201-.11277.2423-.16458.36555l-.15296.37065c-.1038.24613-.19374.49792-.28397.74915-.0944.24953-.17395.50459-.25281.7593-.15771.50933-.29257,1.02528-.4023,1.5457-.11294.51959-.19527,1.04494-.25975,1.57059-.03324.26264-.04871.52773-.07315.79041-.01736.26375-.02093.52851-.03186.79138,0,0-.00253.03277-.00205.09876l.00184.29652c.0011.13162.00197.29601.0109.49293.01222.19708.02502.42648.04537.68748h0c.03532-.26052.06122-.48744.08468-.6815.02542-.19395.05724-.35444.07423-.48316l.04316-.28897c.0095-.06414.01701-.09592.01701-.09592.05079-.25513.09397-.51038.1506-.76301.0595-.25218.10822-.5054.17513-.75479.12578-.50029.26908-.99444.42885-1.48201.08396-.2427.16015-.48701.25373-.72576.09097-.23947.17523-.48065.27826-.71509.09979-.23547.19227-.47315.30225-.7039.10517-.23256.20953-.46502.32733-.69146l.16872-.34278c.05687-.11388.11991-.22484.17947-.33731l.1809-.33612.19158-.33022.19036-.33045.20181-.32372.20196-.32323.21308-.31618.21113-.31707.22203-.30972.22228-.30923.23258-.30174.23106-.30259.24053-.29529.24096-.29476.25045-.2869.25041-.28676.25788-.2802.25811-.27992.26721-.27141.26719-.27137.27551-.26306.27323-.2655.2819-.25641c.09451-.08488.18714-.1719.27991-.25885l.28653-.25167c.19141-.16748.38136-.33696.57796-.49889.19471-.16425.38928-.32905.58891-.48799.19833-.16066.39625-.32245.59941-.47783.40202-.3169.81371-.62305,1.22912-.92821l.31392-.22616c.10385-.07713.20808-.154.31547-.22574l.63839-.44645.32345-.21987c.21327-.15299.54258-.36329.97635-.67155Z" fill="#ff7300"/><path d="M114.92566,165.63294l-.00048-.00257-.00048-.00257-.00048-.00257-.00048-.00257-.00135-.00715-.00135-.00715-.00135-.00715-.00135-.00715-.00038-.002-.00038-.002-.00038-.002-.00038-.002c-1.23404.18334-2.31383.34377-3.23936.48127-.9262.13078-1.69803.23976-2.31549.32695-.61655.09172-1.08013.15303-1.38899.19499l-.46327.06293c-.61758.08389-1.23515.16778-1.85273.25167-.61831.07806-1.23661.15612-1.85492.23418-1.23606.15842-2.47316.30737-3.70976.45763-.6179.07799-1.23777.1413-1.85643.21266-.61908.0683-1.23744.14149-1.85689.20576-1.23916.12639-2.47725.25877-3.71685.37639-.61955.06033-1.23909.12067-1.85864.181-.62003.05484-1.24005.10967-1.86008.16451-1.23952.11348-2.48075.20788-3.72078.31176l-1.86162.13745c-.62043.04643-1.24097.0909-1.8619.1302-.62068.04164-1.24136.08329-1.86204.12493-.62096.03672-1.24191.07344-1.86287.11016-1.24147.07871-2.48471.12802-3.72645.19739-1.24276.05248-2.48476.11659-3.72784.15655-2.48546.09376-4.97168.15795-7.45785.20201-.62157.00911-1.24313.01823-1.8647.02734-.6216.00445-1.24319.00889-1.86479.01334-.62152.00796-1.24313.00685-1.86468.00833-.62156.00054-1.24308.00443-1.86462-.00125l-1.81958-.01043c-1.8794-.02355-3.75861-.051-5.63737-.09748-1.2426-.0276-2.48479-.0695-3.72696-.1099l-1.86282-.07296-1.86243-.08116c-2.48307-.1113-4.96488-.25013-7.44476-.41749-.54923-.03826-1.09845-.07652-1.64768-.11478l-.00163-.00013c-.35846-.02331-.70305-.16599-.97353-.40338-.27085-.23688-.45894-.56098-.52994-.9161l-.00034-.00157c-.13517-.68902-.28109-1.37595-.42145-2.06396-.24465-1.18674-.48631-2.37407-.7413-3.55879-.25196-1.18531-.50133-2.37114-.76362-3.55443-.12959-.59195-.25919-1.1839-.38878-1.77585l-.39846-1.77396c-.26364-1.18303-.53772-2.36402-.81214-3.54495-.55228-2.36118-1.11752-4.71983-1.71339-7.07249l-.11072-.44132-.33961-1.32251c-.30509-1.17493-.76098-2.93767-1.42997-5.27605h0c.26273,2.41776.50562,4.22212.66639,5.42525l.18448,1.35282.06398.45045c.33585,2.40347.70232,4.80096,1.08176,7.19591.19144,1.19714.38322,2.39422.58544,3.58925l.30033,1.79314.31001,1.79125c.20357,1.19477.42006,2.38702.63396,3.57977.21087,1.19334.43507,2.38408.65628,3.57541.12961.69011.25366,1.38131.38846,2.0704l.00049.00242c.16007.84141.60784,1.63039,1.25109,2.19955.6398.57295,1.47695.9273,2.33423.98842l.00243.00019c.55323.03732,1.10645.07463,1.65968.11195,2.49791.16306,4.99764.29737,7.49852.40395,2.50095.10543,5.00336.17315,7.50597.21436.94596.01962,1.89213.02559,2.83818.03569.9461.00679,1.89226.00284,2.83831.00477.61059-.00418,1.22118-.00836,1.83176-.01254,2.50254-.02389,5.00487-.06812,7.50558-.16087,2.50071-.08804,5.0007-.19453,7.49775-.35087,1.24898-.06868,2.49655-.16153,3.74455-.24277l1.87059-.14378c.62357-.04673,1.24668-.09945,1.86958-.15446,2.49272-.20499,4.98096-.45957,7.46654-.7303.62099-.07148,1.24197-.14297,1.86296-.21445l.93128-.10791.93017-.11772c.62001-.07848,1.24002-.15695,1.86003-.23543l1.85778-.25188.92873-.12601.92735-.13649c.61802-.09178,1.23604-.18356,1.85405-.27534.61787-.09225,1.23451-.1934,1.8517-.28966.61678-.09931,1.2346-.19055,1.85029-.29645,1.23161-.20986,2.46554-.40223,3.69324-.63385.61435-.11173,1.22871-.22346,1.84306-.33519.61324-.11751,1.22648-.23501,1.83972-.35252l.45984-.08812c.30654-.05875.76662-.14523,1.37826-.27048l2.29266-.47224c.91564-.19564,1.98312-.42699,3.2014-.69728Z" fill="url(#uuid-2815d952-90b2-4e49-b058-234b9dcb0f1e)"/><ellipse cx="71.95001" cy="181.59137" rx="46.07547" ry="5.35034" fill="#090909" opacity=".8"/></svg>