<svg xmlns="http://www.w3.org/2000/svg" width="200" height="200"><defs><linearGradient id="a" x1="-1666.534" y1="112.585" x2="-1592.367" y2="112.585" gradientTransform="matrix(-1 0 0 1 -1529.982 0)" gradientUnits="userSpaceOnUse"><stop offset=".087" stop-color="#c64528"/><stop offset=".399" stop-color="#e25328"/><stop offset=".671" stop-color="#f75e28"/><stop offset=".729" stop-color="#f7602b"/><stop offset=".775" stop-color="#f76735"/><stop offset=".817" stop-color="#f87446"/><stop offset=".857" stop-color="#f9865d"/><stop offset=".895" stop-color="#fa9d7c"/><stop offset=".931" stop-color="#fbb9a2"/><stop offset=".967" stop-color="#fddacd"/><stop offset="1" stop-color="#fff"/></linearGradient><linearGradient id="b" x1="-1665.882" y1="49.575" x2="-1665.683" y2="49.475" gradientTransform="matrix(-1 0 0 1 -1529.982 0)" gradientUnits="userSpaceOnUse"><stop offset="0" stop-color="#f75e28"/><stop offset=".193" stop-color="#fa6e14"/><stop offset=".432" stop-color="#ff8000"/><stop offset=".558" stop-color="#ffa143"/><stop offset=".718" stop-color="#ffc992"/><stop offset=".851" stop-color="#ffe6cd"/><stop offset=".948" stop-color="#fff8f1"/><stop offset="1" stop-color="#fff"/></linearGradient><linearGradient id="c" x1="103.273" y1="125.137" x2="24.398" y2="43.076" gradientUnits="userSpaceOnUse"><stop offset=".037" stop-color="#ff5b00"/><stop offset=".235" stop-color="#ff7300"/><stop offset=".327" stop-color="#fd8818"/><stop offset=".611" stop-color="#f9c761"/><stop offset=".655" stop-color="#fad17f"/><stop offset=".794" stop-color="#fdf2da"/><stop offset=".856" stop-color="#fff"/></linearGradient><linearGradient id="d" x1="-1608.229" y1="51.343" x2="-1702.767" y2="95.267" gradientTransform="matrix(-1 0 0 1 -1529.982 0)" gradientUnits="userSpaceOnUse"><stop offset=".018" stop-color="#fdfdfd"/><stop offset=".044" stop-color="#f6f6f6"/><stop offset=".246" stop-color="#cacaca"/><stop offset=".402" stop-color="#afaeae"/><stop offset=".493" stop-color="#a5a4a4"/></linearGradient><linearGradient id="e" x1="-1631.115" y1="164.68" x2="-1592.367" y2="164.68" gradientTransform="matrix(-1 0 0 1 -1529.982 0)" gradientUnits="userSpaceOnUse"><stop offset=".085" stop-color="#f75e28"/><stop offset=".483" stop-color="#fa6e14"/><stop offset=".977" stop-color="#ff8000"/></linearGradient><linearGradient id="f" x1="-1638.49" y1="122.291" x2="-1589.192" y2="91.094" gradientTransform="matrix(-1 0 0 1 -1529.982 0)" gradientUnits="userSpaceOnUse"><stop offset=".377" stop-color="#c64528"/><stop offset=".74" stop-color="#eb6b0d"/><stop offset=".977" stop-color="#ff8000"/></linearGradient><linearGradient id="g" x1="-1614.458" y1="82.552" x2="-1639.576" y2="-3.204" gradientTransform="matrix(-1 0 0 1 -1529.982 0)" gradientUnits="userSpaceOnUse"><stop offset=".133" stop-color="#ff8000" stop-opacity="0"/><stop offset=".185" stop-color="#f67906" stop-opacity=".12"/><stop offset=".295" stop-color="#e06a15" stop-opacity=".43"/><stop offset=".451" stop-color="#bc512f" stop-opacity=".923"/><stop offset=".474" stop-color="#b74e33"/></linearGradient></defs><ellipse cx="68.376" cy="181.591" rx="37.022" ry="5.35" fill="#090909" opacity=".8"/><path d="M128.424 63.295c.277-1.642 1.137-4.896 2.247-7.502 1.685-3.955 4.013-6.752 5.2-6.247 1.187.506.783 4.122-.902 8.078-1.11 2.609-2.5 4.706-3.659 5.692l-30.177 112.367-38.748-10.98 66.039-101.408z" fill="url(#a)"/><path d="M135.732 49.505c.047.01.094.022.139.041l-.14-.041z" fill="url(#b)"/><path d="M67.719 43.312c.159.07-1.277-2.578-.207-6.505 1.13-4.148 4.405-6.538 5.592-6.032l62.628 18.73c-1.223-.25-3.44 2.481-5.06 6.288-1.686 3.956-2.248 7.502-2.248 7.502l-66.04 101.408L3.32 130.549 67.72 43.312z" fill="url(#c)"/><path d="M96.95 37.836c-1.186-.505-3.405.623-5.377 4.443-1.794 3.477-2.616 8.075-1.43 8.58L73.795 73.344l11.515 4.395 16.293-23.553c-1.187-.506-.783-4.122.902-8.077 1.684-3.956 4.574-5.394 5.76-4.888l-11.314-3.385z" fill="url(#d)"/><path fill="url(#e)" d="m101.133 175.683-38.748-10.98 25.006-11.026 13.742 22.006z"/><path d="m87.391 153.677-25.006 11.026s61.704-94.387 66.039-101.408c1.984 3.378-41.033 90.382-41.033 90.382z" fill="url(#f)"/><path d="m41.267 105.18 1.73.965 3.778-6.213-1.393-.778 4.213-6.929 1.394.779 2.073-3.41c4.313-7.093 9.41-10.287 13.183-8.18 2.283 1.275 2.402 4.361 1.867 6.935l-6.174 4.434c.26-1.328.095-2.378-.794-2.874-.745-.416-2.304-.182-4.176 2.897l-1.605 2.64 3.484 1.945-4.214 6.928-3.484-1.945-3.778 6.213 2.787 1.557c.793.443 1.579-.002 2.698-1.366l1.612 5.025c-3.663 4.805-6.706 6.052-9.326 4.589l-8.891-4.965 5.016-8.248zM62.497 104.144c5.585-9.183 13.768-17.135 18.863-14.29 5.094 2.844 1.909 13.587-3.675 22.77-5.585 9.182-13.769 17.135-18.863 14.29-5.094-2.844-1.909-13.587 3.675-22.77zm10.717 5.984c3.645-5.994 4.497-10.306 2.695-11.312-1.802-1.006-5.297 1.83-8.942 7.824-3.645 5.993-4.497 10.305-2.694 11.311 1.802 1.007 5.297-1.83 8.941-7.823z" fill="#fff"/><path fill="url(#g)" d="M128.424 63.295 67.719 43.312 51.047 65.897l63.01 19.355 14.367-21.957z"/><path fill="none" stroke="#ff8000" stroke-miterlimit="10" stroke-width="6.919" d="M167.561 153.677h-33.779M179.178 121.814h-32.127M193.421 89.95h-59.639"/></svg>