<?xml version="1.0" encoding="UTF-8"?><svg id="uuid-615bb437-3e09-4e9a-bcc1-b8ede4e11726" xmlns="http://www.w3.org/2000/svg" width="200" height="200" xmlns:xlink="http://www.w3.org/1999/xlink" viewBox="0 0 200 200"><defs><linearGradient id="uuid-1b28e485-369d-493d-a2bb-8b2d4323edfd" x1="-2453.16202" y1="628.10722" x2="-2319.31831" y2="732.12709" gradientTransform="translate(-2293.08598 -559.68838) rotate(179.59891) scale(1 -1)" gradientUnits="userSpaceOnUse"><stop offset="0" stop-color="#fbe7b4"/><stop offset=".0152" stop-color="#f4d3a3"/><stop offset=".0483" stop-color="#e8ad82"/><stop offset=".084" stop-color="#de8d66"/><stop offset=".1223" stop-color="#d5734f"/><stop offset=".1642" stop-color="#ce5e3e"/><stop offset=".2116" stop-color="#ca5031"/><stop offset=".269" stop-color="#c7482a"/><stop offset=".364" stop-color="#c64528"/><stop offset=".5583" stop-color="#c7472a"/><stop offset=".6576" stop-color="#c94f31"/><stop offset=".7353" stop-color="#ce5c3c"/><stop offset=".8019" stop-color="#d46f4d"/><stop offset=".8613" stop-color="#dc8862"/><stop offset=".9156" stop-color="#e6a67c"/><stop offset=".965" stop-color="#f1c99a"/><stop offset="1" stop-color="#fbe7b4"/></linearGradient><linearGradient id="uuid-18f12198-7fc5-4869-927b-0048cc867b7a" x1="148.62527" y1="708.79149" x2="3.32351" y2="590.54612" gradientTransform="translate(0 -570)" gradientUnits="userSpaceOnUse"><stop offset=".3988" stop-color="#ff7300"/><stop offset=".4881" stop-color="#fe7b09"/><stop offset=".6344" stop-color="#fd9022"/><stop offset=".8184" stop-color="#fab349"/><stop offset=".9457" stop-color="#f8ce69"/></linearGradient><radialGradient id="uuid-10f20ec7-293d-4749-835b-5ac9b2c70628" cx="548.96587" cy="-320.32226" fx="548.96587" fy="-320.32226" r="57.5738" gradientTransform="translate(55.59495 -630.89089) rotate(45) scale(1 -1.5049)" gradientUnits="userSpaceOnUse"><stop offset=".4462" stop-color="#f8ce69"/><stop offset="1" stop-color="#fbe7b4"/></radialGradient></defs><ellipse cx="99.95217" cy="181.59137" rx="45.48913" ry="7.73806" fill="#090909" opacity=".8"/><path d="M38.32153,152.15588c17.00398,25.47446,60.27657,26.44249,96.65206,2.16216,36.37549-24.28034,52.07935-64.61451,35.07537-90.08897l-8.3703-12.34951c-17.00398-25.47446-60.27658-26.44249-96.65206-2.16216C28.65112,73.99774,12.94726,114.33192,29.95124,139.80638l8.37029,12.3495Z" fill="url(#uuid-1b28e485-369d-493d-a2bb-8b2d4323edfd)"/><path d="M29.95104,139.77813c17.00398,25.47446,60.27658,26.44249,96.65206,2.16216,36.37548-24.28034,52.07935-64.61451,35.07537-90.08897-17.00398-25.47446-60.27658-26.44249-96.65206-2.16216C28.65092,73.9695,12.94706,114.30367,29.95104,139.77813Z" fill="url(#uuid-18f12198-7fc5-4869-927b-0048cc867b7a)"/><path d="M63.39003,90.85021l5.53887,1.35337-14.30476,23.07025c-2.585,4.16914-1.38446,8.36795,2.67645,9.36016l35.21905,8.60544c4.06092.99221,9.46788-1.59207,12.05288-5.76121l14.30466-23.07025,6.25356,1.52795,9.77274-15.76117c2.01318-3.24674,1.07777-6.51686-2.08492-7.28957l-2.02853-.4957c2.05668-1.18519,3.89985-2.8743,5.15394-4.89684,2.50085-4.03328,2.45289-8.09947-.12479-10.61181-2.57819-2.51244-7.03084-2.83315-11.62129-.83684l-13.68499,5.95063-3.67547-10.19253c-1.23274-3.41888-4.85761-5.07294-9.46442-4.31527-4.60499.75727-9.01934,3.73319-11.52019,7.76647-1.25409,2.02253-1.71503,4.04933-1.47592,5.79556l-1.82783-.44662c-3.1627-.77282-7.3731,1.23996-9.38628,4.4867l-9.77274,15.76128h-.00001ZM104.8357,74.12813l-12.93433-3.16036c-1.9762-.4829-2.5606-2.52626-1.30276-4.55469,1.30825-2.10993,3.52741-3.60597,5.93661-4.00218,2.40838-.39662,4.23204.43473,4.87753,2.22374l3.42295,9.49349ZM131.19802,76.33307c-1.25775,2.02853-3.88898,3.28617-5.86517,2.80327l-12.93433-3.16036,12.74632-5.54273c1.52409-.66256,2.98253-.83978,4.18947-.54488.69518.16991,1.30683.496,1.79937.97626,1.34849,1.31435,1.37247,3.35862.06433,5.46845ZM121.89811,99.53593l-22.24389-5.43512,7.38184-11.90512,22.76164,5.56153c.546.13343.70737.69772.35994,1.25795l-6.7518,10.88913-1.50772-.36837ZM95.54047,128.3673l-14.87901-3.63553,15.97183-25.75889,17.49805,4.27543-14.30466,23.07025c-.91925,1.48263-2.84199,2.40168-4.28621,2.04875ZM73.67472,93.36316l18.21274,4.45011-15.97183,25.7589-15.59411-3.81033c-1.44371-.35272-1.87071-1.84591-.95146-3.32854l14.30466-23.07015ZM77.90859,76.24862c.34733-.56023,1.07402-.90756,1.61951-.77424l22.76204,5.56174-7.38184,11.90512-22.95857-5.6097-.79293-.19378,6.75179-10.88913Z" fill="#f75e28"/><path d="M62.80988,89.98096l5.53887,1.35337-14.30476,23.07025c-2.585,4.16904-1.38446,8.36796,2.67635,9.36016l35.21905,8.60544c4.06082.99221,9.46788-1.59208,12.05288-5.76121l14.30466-23.07025,6.25356,1.52795,9.77274-15.76117c2.01318-3.24674,1.07778-6.51686-2.08492-7.28957l-2.02853-.4957c2.05668-1.18519,3.89985-2.8743,5.15393-4.89684,2.50085-4.03328,2.45289-8.09947-.12479-10.61181-2.57819-2.51244-7.03084-2.83315-11.62129-.83684l-13.68499,5.95063-3.67547-10.19253c-1.23274-3.41888-4.85761-5.07294-9.46442-4.31527-4.60499.75727-9.01934,3.73319-11.52019,7.76647-1.25409,2.02253-1.71503,4.04933-1.47592,5.79556l-1.82783-.44662c-3.1627-.77282-7.3731,1.23996-9.38628,4.4867l-9.77264,15.76128ZM104.25557,73.25888l-12.93433-3.16036c-1.9762-.4829-2.5606-2.52626-1.30276-4.55469,1.30825-2.10993,3.52741-3.60597,5.93661-4.00218,2.40838-.39662,4.23204.43473,4.87753,2.22374l3.42295,9.49349ZM130.61788,75.46381c-1.25775,2.02853-3.88898,3.28617-5.86517,2.80327l-12.93433-3.16036,12.74632-5.54273c1.52409-.66256,2.98253-.83978,4.18947-.54488.69518.16991,1.30683.496,1.79937.97626,1.34859,1.31435,1.37257,3.35862.06433,5.46845ZM121.31797,98.66667l-22.24389-5.43512,7.38174-11.90512,22.76163,5.56153c.546.13343.70737.69772.35994,1.25795l-6.7518,10.88913-1.50761-.36837ZM94.96033,127.49804l-14.87901-3.63553,15.97183-25.75889,17.49805,4.27543-14.30466,23.07025c-.91925,1.48263-2.84199,2.40168-4.28621,2.04875ZM73.09458,92.4939l18.21274,4.45011-15.97183,25.7589-15.59411-3.81033c-1.44371-.35272-1.87071-1.84591-.95146-3.32854l14.30466-23.07015ZM77.32845,75.37936c.34733-.56023,1.07402-.90756,1.61951-.77424l22.76204,5.56173-7.38184,11.90512-22.95857-5.6097-.79293-.19378,6.75179-10.88913Z" fill="#fff"/><path d="M162.95429,53.89265c13.14304,25.54042-2.73174,63.13543-37.32146,86.22377-36.37548,24.28034-79.64808,23.3123-96.65206-2.16216-.47334-.7091-.91193-1.43364-1.33477-2.1651.67851,1.31851,1.41139,2.61456,2.24609,3.86509,17.00398,25.47446,60.27657,26.44249,96.65206,2.16216,35.36294-23.60457,51.17991-62.37766,36.41013-87.92396v.00021Z" fill="url(#uuid-10f20ec7-293d-4749-835b-5ac9b2c70628)" isolation="isolate" opacity=".2"/><path d="M31.67277,141.3637c-17.00398-25.47446-1.30012-65.80864,35.07536-90.08897,32.20015-21.49332,69.7903-23.18599,89.79397-5.62453-19.50655-19.24184-58.36979-18.0909-91.5155,4.03368C28.65112,73.96421,12.94726,114.29838,29.95124,139.77295c1.9517,2.924,4.26405,5.5092,6.85779,7.78628-1.90059-1.87488-3.62659-3.93389-5.13625-6.19553Z" fill="#fff" isolation="isolate" opacity=".3"/></svg>