<?xml version="1.0" encoding="UTF-8"?><svg xmlns="http://www.w3.org/2000/svg" viewBox="0 0 200 200"><defs><style>.cls-1{fill:none;}.cls-2{fill:#f7b7c2;}.cls-3{fill:#f47f20;}.cls-4{fill:#edb01f;}.cls-5{fill:#be7329;}.cls-6{fill:#575655;}.cls-7{fill:#faad5f;}.cls-8{fill:#c64528;}.cls-9{fill:#fff;}.cls-10{fill:#c1dadd;}.cls-11{fill:#ffcf67;}.cls-12{fill:#f5c141;}.cls-13{fill:#f05f2b;}</style></defs><g id="BG_x5F_Strong"><path class="cls-6" d="M194.63,137.08c-8.43,18.17-27.12,21.15-44.72,17.76-1.95-.38-3.89-.83-5.81-1.33-18.34-5.28-33.59,8.35-47.54,18.01-1.64,1.28-3.35,2.57-5.11,3.81-12.35,8.69-27.49,14.26-39.52,3.11-7.35-6.81-7.19-17.2-8.45-26.36-1.4-10.21-3.35-22.62-12.82-26.41C-1.76,112.69-17.17,42.75,63.81,40.81c10.72-.26,21.15-3.42,30.47-8.44,1.7-.91,3.4-1.87,5.09-2.84,11.22-6.46,22.23-13.79,34.5-17.42,10.95-3.24,21.5-1.66,27.29,9.17,5.07,9.5,3.91,20.98,6.97,31.08,1.69,5.57,4.55,10.48,7.79,15.18,5.63,8.14,12.4,15.65,16.25,24.82,1.1,2.63,2.11,5.36,2.97,8.17,3.68,11.94,4.78,25.17-.51,36.56Z"/></g><g id="Outline"><path class="cls-10" d="M50.62,120.15c1.93,0,1.93-3,0-3s-1.93,3,0,3h0Z"/><path class="cls-2" d="M70.52,34.94c-2.97-2.25-6.91-3.44-11.09-3.84-6.42-.62-13.42.62-18.46,2.81-9.47,4.64-16.45,13.52-20.43,23.09.05-.19.1-.42.11-.41-2.64,5.3-4.33,10.97-4.75,16.88-3.88.38-12.03,1.19-14.15,1.39.37.33,13.83,12.33,20.72,18.47,2.09,1.86,3.58,3.19,3.91,3.49,0,0,1.2,1.07,1.2,1.07l.84-1.34,13.83-21.91,1.21-1.91-2.24.19s-8.69.73-11.68.98c-.28.02-.52.04-.69.06.3-4.09,1.11-8.14,2.55-11.98,1.55-4.11,3.74-7.99,6.48-11.45h.08s.18-.26.18-.26c3.45-4.55,8.79-9.55,14.65-12.26,5.38-2.49,11.19-3.06,16.41.41.83.58,1.6,1.27,2.26,2.03.36.37.78.82,1.41.8.61,0,1.07-.62,1.04-1.19-.15-2.19-1.85-3.77-3.39-5.11Z"/><g id="JET_bag"><path class="cls-3" d="M151.67,58.16c-4.11-.4-8.22-.82-12.34-1.24-.99-.1-1.99-.2-2.98-.31.02-.1.03-.21.03-.32-.12-4.61-.67-9.28-2.29-13.62-.78-2.1-1.77-4.19-3.11-5.99-1.3-1.75-2.86-3.24-4.67-4.46-3.41-2.31-7.79-3.29-11.77-1.98-3.98,1.31-7.02,4.53-8.79,8.2-2.08,4.31-2.45,9.19-2.43,13.9,0,.41,0,.82.02,1.23-3.78-.28-7.57-.52-11.35-.73-.54-.03-1.08-.06-1.62-.09-.31-.02-.56.31-.55.6,0,.04,0,.07.01.1-2.07.47-9.24,2.13-10.74,2.53-1.76.47-8.98,2.73-8.98,2.98h0s5.23.73,5.23.73c0,0,16.29,1.66,18.71,1.9s36.28,2.8,36.28,2.8l19.23-5.32c.1,0,.19.02.29.03.52.05,1.05.1,1.57.16.31.03.61-.1.69-.43.06-.27-.12-.66-.43-.69ZM127.73,55.74c-3.81-.38-7.63-.75-11.44-1.09-3.22-.29-6.57-.57-9.88-.83-.04-2.13-.04-4.27.15-6.39.22-2.15.63-4.28,1.37-6.31.49-1.24,1.11-2.43,1.87-3.52.67-.92,1.44-1.77,2.31-2.52.71-.57,1.47-1.07,2.29-1.48.74-.33,1.52-.58,2.31-.74.82-.13,1.65-.16,2.48-.1.94.11,1.87.33,2.76.65,1.07.42,2.08.97,3.02,1.62,1.06.77,2.03,1.67,2.89,2.66.99,1.21,1.78,2.54,2.46,3.94,1.1,2.39,1.85,4.91,2.32,7.5.4,2.37.58,4.78.65,7.18-1.86-.19-3.72-.38-5.57-.56Z"/><path class="cls-5" d="M90.96,53.31s0-.09-.02-.13c-.1-.32-.42-.44-.72-.37-2.86.59-5.72,1.22-8.56,1.93-2.59.65-5.16,1.38-7.71,2.17-1.66.51-3.31,1.05-4.95,1.59-.7.23-.35,1.33.35,1.1h0c.51-.17,1.02-.34,1.52-.5l6.96.97,12.38,1.33c.25.46,1.11.35,1.08-.3l-.31-7.69s0-.06-.01-.09Z"/><path class="cls-13" d="M158.9,130.02c-.44-4.67-.88-9.33-1.32-14-.44-4.59-.88-9.19-1.32-13.78-.44-4.54-.87-9.07-1.31-13.61-.44-4.56-.88-9.13-1.31-13.69-.44-4.67-.89-9.35-1.33-14.02-.05-.59-.11-1.18-.17-1.76,0-.08-.03-.15-.06-.22.05-.13.06-.26.02-.38-.1-.32-.42-.44-.72-.37-2.86.59-5.72,1.22-8.56,1.93-2.59.65-5.16,1.38-7.71,2.17-1.66.51-3.31,1.05-4.95,1.59-.65.21-.4,1.15.19,1.13l.67,29.24.75,30.23s.5,10.59.53,13.26c-.06.01-.13.03-.19.04-.3.06-.46.45-.37.72.1.32.42.43.72.37h0c3.68-.72,7.29-1.71,10.86-2.85,3.38-1.08,6.71-2.29,10.04-3.52,1.72-.64,3.43-1.28,5.15-1.9.03-.01.06-.03.09-.04.19-.08.34-.25.31-.53Z"/><path class="cls-7" d="M130.89,64.22s0-.08-.02-.12c-.04-.18-.16-.29-.3-.35-.09-.04-.18-.07-.28-.08-4.12-.26-8.23-.52-12.35-.79-.14,0-.28-.02-.42-.03,0-.04,0-.09,0-.13-.12-4.61-.67-9.28-2.29-13.62-.78-2.1-1.77-4.19-3.11-5.99-1.34-1.8-2.86-3.24-4.67-4.46-3.41-2.31-7.79-3.29-11.77-1.98-3.98,1.31-7.02,4.53-8.79,8.2-2.08,4.31-2.45,9.19-2.43,13.9,0,.48,0,.96.02,1.44-.48-.05-.96-.1-1.44-.15-4.07-.42-8.14-.89-12.2-1.4-.52-.07-1.03-.13-1.55-.2-.01,0-.02,0-.04,0-.04,0-.08-.01-.11,0-.11,0-.2.04-.28.09,0,0,0,0-.01,0-.01,0-.02.02-.04.03-.1.07-.18.18-.21.32-.01.05-.01.1,0,.15,0,0,0,0,0,0h0c-.41,4.91-.83,9.81-1.23,14.72-.37,4.49-.74,8.97-1.08,13.47-.34,4.49-.64,8.82-.9,13.24-.27,4.6-.5,9.2-.69,13.8-.2,5.13-.35,10.26-.45,15.4-.01.69-.03,1.38-.04,2.07,0,.24.11.39.27.47.05.03.11.06.18.07h0c4.3.55,8.61,1.07,12.93,1.58,4.45.51,8.9,1,13.35,1.47,4.45.46,8.96.91,13.45,1.32,4.44.41,8.89.79,13.34,1.15,4.37.35,8.73.67,13.1.96.52.03,1.05.07,1.57.1.15,0,.28-.06.38-.16.1-.08.16-.2.17-.36,0-.03,0-.05,0-.08,0,0,0-.01,0-.02-.31-5.45-.56-10.89-.76-16.34-.17-4.81-.29-9.61-.38-14.42-.08-4.46-.14-8.92-.19-13.38-.06-4.46-.12-8.98-.21-13.47-.1-4.83-.24-9.65-.44-14.48l-.08-1.93s0,0,0,0c0,0,0,0,0,0ZM87.56,60.4h0c-.05-2.19-.04-4.37.15-6.55.22-2.15.63-4.28,1.37-6.31.49-1.24,1.11-2.43,1.87-3.52.67-.92,1.44-1.77,2.31-2.52.71-.57,1.47-1.07,2.29-1.48.74-.33,1.52-.58,2.31-.74.82-.13,1.65-.16,2.48-.1.94.11,1.87.33,2.76.65,1.07.42,2.08.97,3.02,1.62,1.06.77,2.03,1.67,2.89,2.66.99,1.21,1.78,2.54,2.46,3.94,1.1,2.39,1.85,4.91,2.32,7.5.4,2.35.58,4.72.65,7.1-2.75-.18-5.49-.37-8.24-.57-3.86-.28-7.71-.58-11.57-.91-2.37-.2-4.73-.42-7.1-.65,0-.04,0-.08,0-.12Z"/></g><path class="cls-1" d="M131.1,137.69h0c-.14.44-.44.81-.84,1.02,2.53.05,2.39-.55,2.45-2.75.02-.86,0-3.63-.08-7.54-.5,3.93-1.04,7.48-1.53,9.26Z"/><path class="cls-1" d="M105.73,126.51c.04-.33.22-.61.49-.78,1.49-.94,2.51-2.57,2.59-4.46,0-.02,0-.05,0-.07h0s0-.07,0-.11c0,0,0-.06,0-.07.04-6.93.25-14.82.88-21.03,0-.03,0-.05,0-.08.01-.57-.44-1.04-1.01-1.06-.54-.01-1,.4-1.05.93-.44,4.25-.68,9.31-.79,14.3-.02.67-.58,1.2-1.25,1.18-.67-.02-1.2-.57-1.19-1.25h0c.12-4.96.35-9.98.78-14.22,0-.03,0-.05,0-.08.01-.57-.44-1.04-1.01-1.06-.54-.01-1,.4-1.05.93-.44,4.27-.68,9.35-.8,14.37-.02.67-.58,1.21-1.25,1.19-.67-.02-1.21-.58-1.19-1.25h0c.12-4.99.35-10.03.78-14.29,0-.03,0-.05,0-.08.01-.57-.44-1.04-1.01-1.06-.54-.01-1,.4-1.05.93h0c-.66,6.39-.86,14.58-.89,21.68.02,1.9,1,3.59,2.5,4.57.29.19.48.52.48.89h0c0,.11,0,.24,0,.35.03,3.76.1,7.35.15,9.36,1.73.16,3.47.33,5.18.49-.05-.83-.14-2.2-.24-4.02-.25-5.17-.08-6.22-.08-6.22h0Z"/><path class="cls-1" d="M123.07,138.11h0s.61-5.7,1.22-12.97c.72-8.56,1.47-19.54,1.15-26.03-.02-.35-.07-.5-.07-.5-.14-.41-.52-.71-.98-.73-.24,0-.46.06-.65.18,0,0-.13.07-.34.27,0,0-7.07,6.64-9.36,27.14,0,0-.04.29.02.55.1.43.42.79.97.91h0l3.51.63c.31.06.54.3.53.62,0,0-.3,3.46-1.24,9.6,0,0,0,.01,0,.02,1.31.11,2.5.2,3.54.27.59.04,1.16.08,1.69.12,0-.02,0-.04,0-.06h0s0,0,0,0Z"/><path class="cls-1" d="M88.56,109.51c-.05-.72-.54-1.33-1.22-1.55l-5.08-1.2c-.76-.22-1.29-.94-1.26-1.76.01-.27.08-.52.2-.75.42-.97,10.96-18.4,29.2-28.63h0c.75-.46,1.64-.71,2.58-.67h0c.95.04,1.81.36,2.52.88,3.75,2.54,7.11,5.38,10.08,8.29h0s.03.02.04.02c.04,0,.07-.03.07-.06l.08-1.79c.03-.6.53-1.07,1.13-1.04.05,0,.09,0,.13.01l4.44.73c0-.26-.02-.51-.03-.76-.47-13.77-.67-16.47-.67-16.47,0,0-31.79-1.68-45.94,13.85-14.15,15.53-6.85,55.4-6.85,55.4,0,0,4.9.5,11.56,1.16-.88-6.25-.99-24.79-.99-25.66h0Z"/><path class="cls-9" d="M132.61,127.4h0c-.23-12.47-.78-34.85-1.13-45.41l-4.44-.73s-.09-.01-.13-.01c-.6-.03-1.11.44-1.13,1.04l-.08,1.79s-.03.06-.07.06c-.02,0-.03,0-.04-.02h0c-2.97-2.91-6.33-5.75-10.08-8.29-.71-.52-1.57-.84-2.52-.88h0c-.95-.04-1.83.21-2.58.67h0c-18.24,10.23-28.78,27.67-29.2,28.63-.12.22-.19.48-.2.75-.03.82.5,1.54,1.26,1.76l5.08,1.2c.68.22,1.17.83,1.22,1.55,0,.87.11,19.4.99,25.66,3.45.34,7.37.72,11.33,1.1-.05-2.01-.12-5.6-.15-9.36,0-.11,0-.24,0-.35h0c0-.37-.19-.7-.48-.89-1.5-.99-2.48-2.67-2.5-4.57.03-7.1.24-15.29.89-21.68h0c.05-.53.51-.94,1.05-.93.57.01,1.02.49,1.01,1.06,0,.03,0,.05,0,.08-.43,4.26-.67,9.31-.78,14.29h0c-.02.67.52,1.23,1.19,1.25.67.02,1.23-.52,1.25-1.19.12-5.02.36-10.1.8-14.37.05-.53.51-.94,1.05-.93.57.01,1.02.49,1.01,1.06,0,.03,0,.05,0,.08-.43,4.24-.66,9.26-.78,14.21h0c-.01.68.52,1.23,1.19,1.25.67.02,1.23-.51,1.25-1.18.12-5,.36-10.05.79-14.3.05-.53.51-.94,1.05-.93.57.01,1.02.49,1.01,1.06,0,.03,0,.05,0,.08-.63,6.21-.84,14.1-.88,21.03,0,0,0,.06,0,.07,0,.03,0,.07,0,.11h0s0,.05,0,.07c-.08,1.89-1.1,3.52-2.59,4.46-.27.17-.45.45-.49.78,0,0-.17,1.06.08,6.22.1,1.82.19,3.19.24,4.02,4.31.4,8.43.77,11.79,1.04,0,0,0-.01,0-.02.93-6.14,1.24-9.6,1.24-9.6.01-.31-.21-.56-.53-.62l-3.51-.63h0c-.55-.12-.87-.48-.97-.91-.06-.26-.02-.55-.02-.55,2.29-20.5,9.36-27.14,9.36-27.14.21-.19.34-.27.34-.27.19-.12.41-.19.65-.18.46.02.84.32.98.73,0,0,.05.15.07.5.31,6.49-.43,17.47-1.15,26.03-.61,7.27-1.22,12.97-1.22,12.97h0s0,.05,0,.07c2.68.2,4.61.39,6,.48h0c1.18.09,2.61.2,3.22.21.6.01.81-.24.71-1.65-.1-1.41-.4-9.82-.4-9.82h0Z"/><g id="Confetti"><path class="cls-12" d="M177.53,89.45c.15.06.31,0,.43-.12"/></g><path class="cls-9" d="M86.75,70c-.16.06-.17.38-.41.54-.11.08-.27.16-.5.21-.22.05-.52.06-.78,0-.13-.04-.25-.08-.32-.15-.05-.04-.05-.05-.12-.11-.06-.06-.12-.12-.17-.19-.23-.28-.44-.66-.68-1.14-.24-.48-.5-1.06-.95-1.68-.45-.64-1.1-1.17-1.83-1.55-1.46-.74-3.14-.77-4.46-.2-1.34.57-2.15,1.62-2.54,2.53-.4.93-.42,1.76-.32,2.29.11.54.32.79.47.77.33-.04.38-1.12,1.26-2.27.43-.56,1.08-1.12,1.88-1.35.79-.25,1.81-.18,2.68.26.43.23.8.51,1.08.86.3.37.58.85.89,1.36.31.5.69,1.03,1.18,1.46.12.11.25.2.39.29.13.09.33.2.49.26.35.13.67.16.97.16.6-.02,1.08-.22,1.46-.48.37-.26.64-.62.72-.98.09-.36-.02-.64-.12-.77-.11-.13-.21-.17-.28-.14Z"/><path class="cls-8" d="M145.93,120.26c.63-.07-.13-11.65-1.7-25.87-1.56-14.22-3.34-25.69-3.97-25.62-.63.07.13,11.65,1.7,25.87,1.56,14.22,3.34,25.69,3.97,25.62Z"/><path class="cls-9" d="M96.48,165.77c.83-6.26,1.87-12.48,3-18.69.58-1.98.61-4.11-.25-5.4-.42-.66-.98-1.13-1.83-1.58l-2.91-1.71c-3.91-2.29-7.77-4.65-11.63-7.02-1.57-.91-1.41-3.32.2-4.09,0,0,.71-.43.71-.43s1.03-.39,1.03-.39c-.3.02-.63.14-.87.32l3.26,3.37h0s-3.26-3.36-3.26-3.36c.5-.37,1.49-1.14,1.97-1.53,1.89-1.52,4.62.51,3.76,2.74,0,0-3.85-2.65-3.85-2.65.31-.3.84-.7,1.15-1,3.9-3.16,4.44-8.88,2.93-13.38,0,0-.13-1.08-.13-1.08-.13.62.36,1.7.95,2.06.38.27.57.31.65.34.07.02.05.02-.09-.03-.38-.04-1.34-.89-1.45-1.46-.91-2.49-2.62-4.69-5.03-5.73-3.99-1.79-11.06-.81-13.58,1.55.1-.12.17-.26.21-.4l-.85.98c-1.87.89-3.41,2.33-4.11,4.27-.57,1.17-1.1,2.34-1.41,3.67-.12.7-.82,1.17-1.51.99-1.18-.55-2.43-1.04-3.72-1.26-.13-.02-.31-.06-.41-.15-3.18-2.34-6.32-4.73-9.41-7.19,3.53,1.77,7.02,3.62,10.47,5.53,0,0-.41-.15-.41-.15,1.42.07,2.93.35,4.28.84,0,0-1.74.9-1.74.9.2-1.41.56-2.86,1.14-4.22,0,0-.08.22-.08.22.66-2.84,2.73-5.28,5.22-6.66,0,0-.85.98-.85.98.12-.32.36-.66.6-.9,3.98-4.06,11.97-5.52,17.91-3.34,3.75,1.4,6.55,4.73,7.94,8.34,0,0-.61-.93-.61-.93-.41-.38-.69-.46-.81-.51-.13-.05-.14-.05-.06-.02.08.04.29.08.68.35.42.28.88.98.97,1.49.1.46.07.75.06.95l-.13-1.08c2.26,6.25,1.12,14.37-4.3,18.62,0,0,.13-.12.13-.12-.38.36-1.02.85-1.43,1.2-1.02.89-2.58.77-3.44-.28-.57-.69-.69-1.61-.4-2.4,0,0,3.77,2.71,3.77,2.71-.57.44-1.73,1.29-2.32,1.7-2.2,1.56-4.88-1.25-3.26-3.37,0,0,3.26,3.37,3.26,3.37-.34.21-.76.36-1.15.42l1.03-.39-1.21.68.2-4.09c3.74,2.49,7.47,4.99,11.16,7.57,1.88,1.41,4.62,2.71,5.73,5.02,1.37,2.38.72,5.93-.07,7.74-1.78,6.05-3.66,12.07-5.74,18.03h0Z"/><path class="cls-3" d="M97.5,139.91l-48.31-30.91c-1.54-.85-3.32-1.05-5.01-.57-1.69.49-3.09,1.6-3.95,3.14l-20.83,37.65c-1.76,3.18-.6,7.2,2.58,8.96l59.09,35.45c.14.08.27.15.41.21,3.11,1.45,6.86.26,8.55-2.79l10.05-42.19c1.35-4.05.6-7.2-2.58-8.96Z"/><path class="cls-9" d="M85.85,134.02c2.07,1.14,4.31,2.46,6.35,3.68.28.21.53.35.65.81.1.67-.43,1.1-1.04,1.09,0,0-1.31-.23-1.31-.23-12.59-2.36-25.57-5.46-37.99-8.71-9.42-2.54-18.79-5.18-28.01-8.44,6.45.96,12.83,2.21,19.19,3.57,16.06,3.46,32.35,7.6,48.02,12.5,0,0,.15.05.15.05,0,0,.07.02.07.02h.04c-.2-.05-.34.15-.31.39-1.61-1.2-4.03-3.23-5.8-4.72h0Z"/><path class="cls-11" d="M75.33,106.86s.03,0,0,0h0Z"/><path class="cls-11" d="M79.87,106.3s-.02,0-.03,0c-.02,0-.03,0,.03,0Z"/><path class="cls-11" d="M92.23,115.57c-.16-1.7-.61-3.36-1.3-4.92-.67-1.49-1.55-2.93-2.75-4.05-1.12-1.05-2.46-1.84-3.91-2.35-1.45-.51-3-.76-4.54-.8-1.63-.04-3.26.16-4.84.54-1.73.42-3.41,1.08-4.88,2.11-.34.24-.67.5-.98.78-.05.05-.09.11-.11.18-.93.49-1.79,1.1-2.52,1.85-1,1.01-1.75,2.26-2.14,3.62-.1.22-.2.43-.29.65-.67,1.62-1.06,3.35-1.23,5.09-.18,1.88-.13,3.84.5,5.64.53,1.53,1.42,2.92,2.56,4.07,1.18,1.2,2.59,2.14,4.12,2.82,1.73.76,3.61,1.16,5.49,1.3.94.07,1.88.07,2.82.01.85-.05,1.71-.15,2.54-.34,1.26-.28,2.47-.77,3.54-1.49.05,0,.09-.02.14-.05h0c.35-.23.68-.49,1.02-.74.47-.35.93-.71,1.39-1.08.33-.26.66-.52.96-.81.69-.68,1.39-1.37,1.98-2.14.55-.71.95-1.51,1.29-2.34.33-.78.59-1.59.78-2.42.39-1.69.51-3.41.35-5.14Z"/><path class="cls-12" d="M86.76,128.16c.1-.06.65-1.12,1.13-1.89s.9-2.51,1.16-3.06.32-2.91.49-3.7c.17-.79-.05-2.62-.23-3.44-.17-.82-.5-2.52-.76-2.94s-1.09-2.03-1.57-2.57-1.35-1.65-1.91-2.09-2.35-1.41-2.35-1.41c0,0-1.73-.45-2.47-.86s-3.69-.76-4.84-.53-5.31.89-5.45,1.01-1.02.43-1.02.43c0,0,.96-1.53,4.05-2.62,3.08-1.08,7.21-1.67,11.28-.35,4.07,1.32,6.49,5.06,7.38,8.15.9,3.09.95,6.08.3,8.48s-1.63,4.7-3.5,6.29l-1.86,1.59.18-.5h0Z"/><path class="cls-4" d="M66.52,118.65c-.04,1.03.06,2.03.29,2.98.24.95.64,1.83,1.12,2.63.48.8,1.09,1.49,1.72,2.1.34.29.66.58,1.02.81.34.26.72.45,1.08.66,1.49.77,3.07,1.08,4.54,1.08,1.47,0,2.83-.33,3.98-.85,1.15-.52,2.1-1.21,2.84-1.93.74-.73,1.32-1.47,1.71-2.17.83-1.4,1.07-2.54,1.25-3.13-.08.6-.21,1.78-.98,3.28-.36.75-.92,1.55-1.66,2.35-.75.79-1.71,1.56-2.92,2.15-1.2.59-2.64.99-4.22,1.02-1.57.04-3.29-.27-4.92-1.08-.4-.22-.81-.42-1.19-.7-.4-.25-.75-.56-1.12-.87-.7-.66-1.37-1.4-1.9-2.27-.52-.87-.97-1.83-1.23-2.86-.26-1.04-.37-2.14-.33-3.26.08-1.12.32-2.2.7-3.2.39-1,.94-1.9,1.56-2.7.63-.8,1.38-1.46,2.15-2.03.4-.26.79-.53,1.22-.73.41-.23.84-.39,1.26-.56,1.71-.62,3.45-.72,5.01-.5,1.56.22,2.95.78,4.07,1.51,1.13.72,2,1.6,2.65,2.47.64.88,1.11,1.73,1.38,2.52.58,1.57.58,2.76.59,3.37-.11-.6-.22-1.76-.88-3.25-.31-.75-.8-1.55-1.45-2.36-.66-.8-1.51-1.6-2.6-2.25-1.08-.65-2.39-1.13-3.85-1.3-1.46-.17-3.07-.04-4.63.55-.38.17-.78.31-1.15.53-.39.19-.74.44-1.11.69-.7.53-1.39,1.14-1.96,1.88-.56.74-1.06,1.57-1.41,2.48-.34.92-.56,1.9-.64,2.93Z"/><path class="cls-4" d="M65.77,118.61c-.09,1.67.23,3.3.85,4.73l.11.27.14.26c.09.17.18.34.27.51.19.33.41.64.62.95.24.29.46.59.71.86.13.13.26.26.39.39.13.13.25.26.39.37,1.08.95,2.31,1.63,3.55,2.04,1.24.41,2.5.57,3.68.51,1.18-.06,2.27-.32,3.24-.69.98-.37,1.8-.9,2.52-1.43,1.41-1.12,2.29-2.38,2.81-3.46-.59,1.04-1.52,2.24-2.94,3.28-.72.49-1.54.98-2.5,1.31-.95.33-2.01.55-3.14.58-1.13.03-2.33-.15-3.51-.56-1.18-.41-2.33-1.07-3.35-1.98-2.05-1.79-3.42-4.72-3.25-7.89.2-3.16,1.9-5.92,4.14-7.46,1.11-.79,2.34-1.31,3.55-1.58,1.22-.27,2.43-.31,3.55-.15,1.12.16,2.15.5,3.05.94.91.44,1.67,1.01,2.33,1.59,1.29,1.2,2.08,2.5,2.54,3.6-.39-1.13-1.12-2.49-2.39-3.76-.65-.61-1.41-1.24-2.33-1.71-.92-.48-1.98-.86-3.14-1.06-1.16-.2-2.43-.18-3.71.08-1.28.26-2.58.79-3.76,1.61-.15.09-.29.21-.44.32-.14.11-.28.23-.43.34-.28.24-.53.51-.8.77-.24.29-.5.57-.72.87-.11.16-.22.31-.33.47l-.16.24-.14.25c-.78,1.35-1.29,2.93-1.4,4.6M65.47,118.59c.08-1.15.34-2.28.75-3.33.4-1.06,1.01-2,1.7-2.84.34-.43.74-.8,1.12-1.17.42-.33.82-.68,1.27-.95.22-.15.44-.29.67-.4.23-.12.46-.24.69-.35.47-.19.94-.4,1.42-.52.47-.16.97-.23,1.44-.32.24-.03.48-.05.72-.07l.36-.03c.12,0,.24,0,.36,0,.24,0,.47,0,.7.01.23.01.46.05.69.07.46.04.89.16,1.32.25,1.72.43,3.16,1.31,4.28,2.29,1.12.99,1.9,2.12,2.41,3.17.5,1.06.79,2.04.88,2.86.08.4.08.77.09,1.08,0,.16.01.3,0,.43-.01.13-.02.25-.03.36-.04.43-.08.65-.13.64-.04,0-.08-.23-.12-.64,0-.1-.02-.22-.03-.35-.01-.13-.04-.27-.06-.42-.05-.3-.09-.65-.19-1.02-.16-.77-.49-1.67-1.02-2.64-.53-.96-1.3-1.97-2.36-2.84-1.06-.86-2.4-1.62-3.97-1.97-.39-.07-.79-.18-1.2-.2-.21-.02-.41-.05-.62-.05-.21,0-.42,0-.63,0-.11,0-.21,0-.32,0l-.32.03c-.21.03-.43.04-.65.07-.43.09-.87.16-1.29.31-.43.11-.85.31-1.27.48-.21.1-.41.22-.61.32-.21.1-.4.23-.59.37-.4.24-.75.56-1.13.86-.34.34-.69.66-.99,1.05-.61.75-1.15,1.6-1.5,2.54-.36.93-.59,1.93-.66,2.96-.05,1.03.06,2.05.31,3.02.24.97.68,1.87,1.2,2.69.25.42.56.78.86,1.16.33.34.65.69,1.02.98.18.15.35.31.55.43.19.13.37.27.57.39.4.22.79.46,1.2.63.4.2.83.31,1.24.46.21.06.42.1.63.15l.31.07c.1.02.21.03.32.04.21.03.42.05.63.08.21.02.42.01.62.02.41.03.82-.03,1.22-.06,1.6-.17,3.02-.76,4.17-1.5,1.16-.74,2.04-1.66,2.68-2.55.63-.9,1.07-1.76,1.32-2.5.15-.36.23-.7.31-1,.04-.15.08-.28.11-.41.02-.13.05-.24.07-.34.08-.41.15-.63.19-.62.04,0,.06.23.05.65,0,.11,0,.23-.01.36-.01.13-.04.27-.06.43-.05.31-.09.67-.22,1.06-.19.8-.58,1.74-1.21,2.73-.63.99-1.53,2.02-2.76,2.87-1.22.85-2.76,1.55-4.51,1.78-.44.04-.89.11-1.34.09-.23,0-.46,0-.69,0-.23-.02-.46-.05-.7-.07-.12-.01-.24-.02-.35-.04l-.35-.07c-.23-.05-.47-.09-.71-.15-.46-.15-.94-.27-1.4-.48-.47-.18-.91-.43-1.35-.68-.22-.13-.43-.29-.64-.43-.22-.14-.42-.31-.62-.48-.42-.32-.78-.71-1.15-1.09-.34-.41-.69-.82-.98-1.29-.59-.91-1.08-1.92-1.36-3.02-.29-1.09-.41-2.24-.36-3.39Z"/><path class="cls-4" d="M84.2,106.16c-.54.7-1.08,1-1.32.98-.08-.22.07-.82.61-1.52.54-.7,1.08-1,1.32-.98.08.22-.07.82-.61,1.52Z"/><path class="cls-4" d="M83.61,105.7c-.41.53-.6,1.01-.63,1.3.27-.1.69-.4,1.1-.93s.6-1.01.63-1.3c-.27.1-.69.4-1.1.93M83.37,105.52c.55-.71,1.21-1.13,1.47-.93.26.2.02.94-.53,1.66s-1.21,1.13-1.47.93c-.26-.2-.02-.94.53-1.66Z"/><path class="cls-4" d="M87.85,109.32c-.62.47-1.17.58-1.38.48-.03-.23.22-.72.84-1.2.62-.47,1.17-.58,1.38-.48.03.23-.22.72-.84,1.2Z"/><path class="cls-4" d="M87.41,108.73c-.47.36-.73.73-.81.99.27,0,.7-.16,1.17-.51.47-.36.73-.73.81-.99-.27,0-.7.16-1.17.51M87.23,108.49c.63-.48,1.31-.66,1.51-.39.2.26-.15.86-.79,1.34s-1.31.66-1.51.39c-.2-.26.15-.86.79-1.34Z"/><path class="cls-4" d="M90.29,112.7c-.73.49-1.34.6-1.55.5,0-.24.33-.75,1.06-1.24.73-.49,1.34-.6,1.55-.5,0,.24-.33.75-1.06,1.24Z"/><path class="cls-4" d="M89.87,112.08c-.55.37-.88.76-1,1.03.29,0,.78-.16,1.33-.53s.88-.76,1-1.03c-.29,0-.78.16-1.33.53M89.71,111.83c.75-.5,1.5-.68,1.68-.4.18.27-.27.9-1.02,1.4-.75.5-1.5.68-1.68.4-.18-.27.27-.9,1.02-1.4Z"/><path class="cls-4" d="M90.83,116.92c-.63.22-1.12.14-1.28-.02.02-.22.34-.6.98-.82.63-.22,1.12-.14,1.28.02-.02.22-.34.6-.98.82Z"/><path class="cls-4" d="M90.58,116.21c-.48.17-.78.43-.91.64.23.08.63.09,1.11-.08s.78-.43.91-.64c-.23-.08-.63-.09-1.11.08M90.48,115.93c.64-.23,1.25-.16,1.36.15.11.31-.32.75-.97.98-.64.23-1.25.16-1.36-.15-.11-.31.32-.75.97-.98Z"/><path class="cls-4" d="M90.57,121.34c-.62-.04-.99-.3-1.07-.51.1-.2.51-.42,1.12-.38s.99.3,1.07.51c-.1.2-.51.42-1.12.38Z"/><path class="cls-4" d="M90.61,120.6c-.47-.03-.82.1-1,.24.16.16.5.33.96.35s.82-.1,1-.24c-.16-.16-.5-.33-.96-.35M90.63,120.3c.63.04,1.12.33,1.1.66s-.54.57-1.17.53-1.12-.33-1.1-.66.54-.57,1.17-.53Z"/><path class="cls-4" d="M89.26,125.26c-.3-.09-.43-.38-.41-.59.1-.18.36-.36.67-.27.3.09.43.38.41.59-.1.18-.36.36-.67.27Z"/><path class="cls-4" d="M89.47,124.55c-.23-.07-.44.02-.57.14.04.17.17.36.4.43.23.07.44-.02.57-.14-.04-.17-.17-.36-.4-.43M89.56,124.26c.31.09.48.42.39.74-.09.32-.42.5-.73.41-.31-.09-.48-.42-.39-.74.09-.32.42-.5.73-.41Z"/><path class="cls-4" d="M80.6,105.2c-.18.61-.53.92-.75.95-.17-.14-.29-.6-.11-1.2.18-.61.53-.92.75-.95.17.14.29.6.11,1.2Z"/><path class="cls-4" d="M79.89,104.98c-.13.46-.1.84,0,1.05.2-.13.43-.42.57-.88.13-.46.1-.84,0-1.05-.2.13-.43.42-.57.88M79.6,104.9c.18-.62.58-1.04.9-.95.32.09.43.67.24,1.28-.18.62-.58,1.04-.9.95-.32-.09-.43-.67-.24-1.28Z"/><path class="cls-4" d="M76.68,104.87c-.03.53-.29.85-.5.91-.2-.09-.42-.44-.39-.97s.29-.85.5-.91c.2.09.42.44.39.97Z"/><path class="cls-4" d="M75.94,104.83c-.02.4.1.7.25.86.16-.14.32-.42.35-.82s-.1-.7-.25-.86c-.16.14-.32.42-.35.82M75.64,104.81c.03-.54.32-.96.65-.94s.57.47.54,1.01-.32.96-.65.94-.57-.47-.54-1.01Z"/><path class="cls-4" d="M72.71,105.68c.07.36-.13.63-.32.72-.21-.01-.49-.2-.56-.55-.07-.36.13-.63.32-.72.21.01.49.2.56.55Z"/><path class="cls-4" d="M71.98,105.81c.05.27.23.44.4.51.13-.13.24-.35.19-.62-.05-.27-.23-.44-.4-.51-.13.13-.24.35-.19.62M71.68,105.87c-.07-.36.14-.71.46-.77.32-.06.64.18.71.55.07.36-.14.71-.46.77-.32.06-.64-.18-.71-.55Z"/><path class="cls-11" d="M53.13,118.71s.03,0,0,0h0Z"/><path class="cls-11" d="M57.67,118.15s-.02,0-.03,0c-.02,0-.03,0,.03,0Z"/><path class="cls-11" d="M70.03,127.42c-.16-1.7-.61-3.36-1.3-4.92-.67-1.49-1.55-2.93-2.75-4.05-1.12-1.05-2.46-1.84-3.91-2.35-1.45-.51-3-.76-4.54-.8-1.63-.04-3.26.16-4.84.54-1.73.42-3.41,1.08-4.88,2.11-.34.24-.67.5-.98.78-.05.05-.09.11-.11.18-.93.49-1.79,1.1-2.52,1.85-1,1.01-1.75,2.26-2.14,3.62-.1.22-.2.43-.29.65-.67,1.62-1.06,3.35-1.23,5.09-.18,1.88-.13,3.84.5,5.64.53,1.53,1.42,2.92,2.56,4.07,1.18,1.2,2.59,2.14,4.12,2.82,1.73.76,3.61,1.16,5.49,1.3.94.07,1.88.07,2.82.01.85-.05,1.71-.15,2.54-.34,1.26-.28,2.47-.77,3.54-1.49.05,0,.09-.02.14-.05h0c.35-.23.68-.49,1.02-.74.47-.35.93-.71,1.39-1.08.33-.26.66-.52.96-.81.69-.68,1.39-1.37,1.98-2.14.55-.71.95-1.51,1.29-2.34.33-.78.59-1.59.78-2.42.39-1.69.51-3.41.35-5.14Z"/><path class="cls-12" d="M64.56,140.01c.1-.06.65-1.12,1.13-1.89s.9-2.51,1.16-3.06c.26-.55.32-2.91.49-3.7s-.05-2.62-.23-3.44-.5-2.52-.76-2.94-1.09-2.03-1.57-2.57-1.35-1.65-1.91-2.09-2.35-1.41-2.35-1.41c0,0-1.73-.45-2.47-.86s-3.69-.76-4.84-.53-5.31.89-5.45,1.01-1.02.43-1.02.43c0,0,.96-1.53,4.05-2.62,3.08-1.08,7.21-1.67,11.28-.35,4.07,1.32,6.49,5.06,7.38,8.15.9,3.09.95,6.08.3,8.48-.65,2.4-1.63,4.7-3.5,6.29l-1.86,1.59.18-.5h0Z"/><path class="cls-4" d="M44.32,130.5c-.04,1.03.06,2.03.29,2.98.24.95.64,1.83,1.12,2.63.48.8,1.09,1.49,1.72,2.1.34.29.66.58,1.02.81.34.26.72.45,1.08.66,1.49.77,3.07,1.08,4.54,1.08,1.47,0,2.83-.33,3.98-.85,1.15-.52,2.1-1.21,2.84-1.93.74-.73,1.32-1.47,1.71-2.17.83-1.4,1.07-2.54,1.25-3.13-.08.6-.21,1.78-.98,3.28-.36.75-.92,1.55-1.66,2.35-.75.79-1.71,1.56-2.92,2.15-1.2.59-2.64.99-4.22,1.02-1.57.04-3.29-.27-4.92-1.08-.4-.22-.81-.42-1.19-.7-.4-.25-.75-.56-1.12-.87-.7-.66-1.37-1.4-1.9-2.27-.52-.87-.97-1.83-1.23-2.86-.26-1.04-.37-2.14-.33-3.26.08-1.12.32-2.2.7-3.2.39-1,.94-1.9,1.56-2.7.63-.8,1.38-1.46,2.15-2.03.4-.26.79-.53,1.22-.73.41-.23.84-.39,1.26-.56,1.71-.62,3.45-.72,5.01-.5,1.56.22,2.95.78,4.07,1.51,1.13.72,2,1.6,2.65,2.47.64.88,1.11,1.73,1.38,2.52.58,1.57.58,2.76.59,3.37-.11-.6-.22-1.76-.88-3.25-.31-.75-.8-1.55-1.45-2.36-.66-.8-1.51-1.6-2.6-2.25-1.08-.65-2.39-1.13-3.85-1.3-1.46-.17-3.07-.04-4.63.55-.38.17-.78.31-1.15.53-.39.19-.74.44-1.11.69-.7.53-1.39,1.14-1.96,1.88-.56.74-1.06,1.57-1.41,2.48-.34.92-.56,1.9-.64,2.93Z"/><path class="cls-4" d="M43.57,130.46c-.09,1.67.23,3.3.85,4.73l.11.27.14.26c.09.17.18.34.27.51.19.33.41.64.62.95.24.29.46.59.71.86.13.13.26.26.39.39.13.13.25.26.39.37,1.08.95,2.31,1.63,3.55,2.04,1.24.41,2.5.57,3.68.51,1.18-.06,2.27-.32,3.24-.69.98-.37,1.8-.9,2.52-1.43,1.41-1.12,2.29-2.38,2.81-3.46-.59,1.04-1.52,2.24-2.94,3.28-.72.49-1.54.98-2.5,1.31-.95.33-2.01.55-3.14.58-1.13.03-2.33-.15-3.51-.56-1.18-.41-2.33-1.07-3.35-1.98-2.05-1.79-3.42-4.72-3.25-7.89.2-3.16,1.9-5.92,4.14-7.46,1.11-.79,2.34-1.31,3.55-1.58,1.22-.27,2.43-.31,3.55-.15,1.12.16,2.15.5,3.05.94.91.44,1.67,1.01,2.33,1.59,1.29,1.2,2.08,2.5,2.54,3.6-.39-1.13-1.12-2.49-2.39-3.76-.65-.61-1.41-1.24-2.33-1.71-.92-.48-1.98-.86-3.14-1.06-1.16-.2-2.43-.18-3.71.08-1.28.26-2.58.79-3.76,1.61-.15.09-.29.21-.44.32-.14.11-.28.23-.43.34-.28.24-.53.51-.8.77-.24.29-.5.57-.72.87-.11.16-.22.31-.33.47l-.16.24-.14.25c-.78,1.35-1.29,2.93-1.4,4.6M43.28,130.44c.08-1.15.34-2.28.75-3.33.4-1.06,1.01-2,1.7-2.84.34-.43.74-.8,1.12-1.17.42-.33.82-.68,1.27-.95.22-.15.44-.29.67-.4.23-.12.46-.24.69-.35.47-.19.94-.4,1.42-.52.47-.16.97-.23,1.44-.32.24-.03.48-.05.72-.07l.36-.03c.12,0,.24,0,.36,0,.24,0,.47,0,.7.01.23.01.46.05.69.07.46.04.89.16,1.32.25,1.72.43,3.16,1.31,4.28,2.29,1.12.99,1.9,2.12,2.41,3.17.5,1.06.79,2.04.88,2.86.08.4.08.77.09,1.08,0,.16.01.3,0,.43-.01.13-.02.25-.03.36-.04.43-.08.65-.13.64-.04,0-.08-.23-.12-.64,0-.1-.02-.22-.03-.35-.01-.13-.04-.27-.06-.42-.05-.3-.09-.65-.19-1.02-.16-.77-.49-1.67-1.02-2.64-.53-.96-1.3-1.97-2.36-2.84-1.06-.86-2.4-1.62-3.97-1.97-.39-.07-.79-.18-1.2-.2-.21-.02-.41-.05-.62-.05-.21,0-.42,0-.63,0-.11,0-.21,0-.32,0l-.32.03c-.21.03-.43.04-.65.07-.43.09-.87.16-1.29.31-.43.11-.85.31-1.27.48-.21.1-.41.22-.61.32-.21.1-.4.23-.59.37-.4.24-.75.56-1.13.86-.34.34-.69.66-.99,1.05-.61.75-1.15,1.6-1.5,2.54-.36.93-.59,1.93-.66,2.96-.05,1.03.06,2.05.31,3.02.24.97.68,1.87,1.2,2.69.25.42.56.78.86,1.16.33.34.65.69,1.02.98.18.15.35.31.55.43.19.13.37.27.57.39.4.22.79.46,1.2.63.4.2.83.31,1.24.46.21.06.42.1.63.15l.31.07c.1.02.21.03.32.04.21.03.42.05.63.08.21.02.42.01.62.02.41.03.82-.03,1.22-.06,1.6-.17,3.02-.76,4.17-1.5,1.16-.74,2.04-1.66,2.68-2.55.63-.9,1.07-1.76,1.32-2.5.15-.36.23-.7.31-1,.04-.15.08-.28.11-.41.02-.13.05-.24.07-.34.08-.41.15-.63.19-.62.04,0,.06.23.05.65,0,.11,0,.23-.01.36-.01.13-.04.27-.06.43-.05.31-.09.67-.22,1.06-.19.8-.58,1.74-1.21,2.73-.63.99-1.53,2.02-2.76,2.87-1.22.85-2.76,1.55-4.51,1.78-.44.04-.89.11-1.34.09-.23,0-.46,0-.69,0-.23-.02-.46-.05-.7-.07-.12-.01-.24-.02-.35-.04l-.35-.07c-.23-.05-.47-.09-.71-.15-.46-.15-.94-.27-1.4-.48-.47-.18-.91-.43-1.35-.68-.22-.13-.43-.29-.64-.43-.22-.14-.42-.31-.62-.48-.42-.32-.78-.71-1.15-1.09-.34-.41-.69-.82-.98-1.29-.59-.91-1.08-1.92-1.36-3.02-.29-1.09-.41-2.24-.36-3.39Z"/><path class="cls-4" d="M62,118.01c-.54.7-1.08,1-1.32.98-.08-.22.07-.82.61-1.52.54-.7,1.08-1,1.32-.98.08.22-.07.82-.61,1.52Z"/><path class="cls-4" d="M61.41,117.55c-.41.53-.6,1.01-.63,1.3.27-.1.69-.4,1.1-.93s.6-1.01.63-1.3c-.27.1-.69.4-1.1.93M61.17,117.37c.55-.71,1.21-1.13,1.47-.93.26.2.02.94-.53,1.66-.55.71-1.21,1.13-1.47.93-.26-.2-.02-.94.53-1.66Z"/><path class="cls-4" d="M65.66,121.17c-.62.47-1.17.58-1.38.48-.03-.23.22-.72.84-1.2.62-.47,1.17-.58,1.38-.48.03.23-.22.72-.84,1.2Z"/><path class="cls-4" d="M65.21,120.57c-.47.36-.73.73-.81.99.27,0,.7-.16,1.17-.51.47-.36.73-.73.81-.99-.27,0-.7.16-1.17.51M65.03,120.34c.63-.48,1.31-.66,1.51-.39.2.26-.15.86-.79,1.34s-1.31.66-1.51.39c-.2-.26.15-.86.79-1.34Z"/><path class="cls-4" d="M68.09,124.55c-.73.49-1.34.6-1.55.5,0-.24.33-.75,1.06-1.24.73-.49,1.34-.6,1.55-.5,0,.24-.33.75-1.06,1.24Z"/><path class="cls-4" d="M67.68,123.93c-.55.37-.88.76-1,1.03.29,0,.78-.16,1.33-.53s.88-.76,1-1.03c-.29,0-.78.16-1.33.53M67.51,123.68c.75-.5,1.5-.68,1.68-.4.18.27-.27.9-1.02,1.4-.75.5-1.5.68-1.68.4-.18-.27.27-.9,1.02-1.4Z"/><path class="cls-4" d="M68.63,128.76c-.63.22-1.12.14-1.28-.02.02-.22.34-.6.98-.82.63-.22,1.12-.14,1.28.02-.02.22-.34.6-.98.82Z"/><path class="cls-4" d="M68.38,128.06c-.48.17-.78.43-.91.64.23.08.63.09,1.11-.08s.78-.43.91-.64c-.23-.08-.63-.09-1.11.08M68.28,127.78c.64-.23,1.25-.16,1.36.15.11.31-.32.75-.97.98-.64.23-1.25.16-1.36-.15-.11-.31.32-.75.97-.98Z"/><path class="cls-4" d="M68.37,133.19c-.62-.04-.99-.3-1.07-.51.1-.2.51-.42,1.12-.38s.99.3,1.07.51c-.1.2-.51.42-1.12.38Z"/><path class="cls-4" d="M68.41,132.44c-.47-.03-.82.1-1,.24.16.16.5.33.96.35s.82-.1,1-.24c-.16-.16-.5-.33-.96-.35M68.43,132.14c.63.04,1.12.33,1.1.66s-.54.57-1.17.53-1.12-.33-1.1-.66.54-.57,1.17-.53Z"/><path class="cls-4" d="M67.07,137.11c-.3-.09-.43-.38-.41-.59.1-.18.36-.36.67-.27.3.09.43.38.41.59-.1.18-.36.36-.67.27Z"/><path class="cls-4" d="M67.28,136.39c-.23-.07-.44.02-.57.14.04.17.17.36.4.43.23.07.44-.02.57-.14-.04-.17-.17-.36-.4-.43M67.36,136.11c.31.09.48.42.39.74-.09.32-.42.5-.73.41-.31-.09-.48-.42-.39-.74.09-.32.42-.5.73-.41Z"/><path class="cls-4" d="M58.41,117.04c-.18.61-.53.92-.75.95-.17-.14-.29-.6-.11-1.2.18-.61.53-.92.75-.95.17.14.29.6.11,1.2Z"/><path class="cls-4" d="M57.69,116.83c-.13.46-.1.84,0,1.05.2-.13.43-.42.57-.88.13-.46.1-.84,0-1.05-.2.13-.43.42-.57.88M57.4,116.75c.18-.62.58-1.04.9-.95.32.09.43.67.24,1.28-.18.62-.58,1.04-.9.95-.32-.09-.43-.67-.24-1.28Z"/><path class="cls-4" d="M54.49,116.72c-.03.53-.29.85-.5.91-.2-.09-.42-.44-.39-.97s.29-.85.5-.91c.2.09.42.44.39.97Z"/><path class="cls-4" d="M53.74,116.68c-.02.4.1.7.25.86.16-.14.32-.42.35-.82s-.1-.7-.25-.86c-.16.14-.32.42-.35.82M53.44,116.66c.03-.54.32-.96.65-.94s.57.47.54,1.01-.32.96-.65.94-.57-.47-.54-1.01Z"/><path class="cls-4" d="M50.51,117.52c.07.36-.13.63-.32.72-.21-.01-.49-.2-.56-.55-.07-.36.13-.63.32-.72.21.01.49.2.56.55Z"/><path class="cls-4" d="M49.78,117.66c.05.27.23.44.4.51.13-.13.24-.35.19-.62-.05-.27-.23-.44-.4-.51-.13.13-.24.35-.19.62M49.49,117.72c-.07-.36.14-.71.46-.77.32-.06.64.18.71.55.07.36-.14.71-.46.77-.32.06-.64-.18-.71-.55Z"/><path class="cls-3" d="M98.25,142.43c-.91-1.51-2.35-2.57-4.06-2.99l-69.7-17.22c-1.71-.42-3.48-.15-4.99.76-1.51.91-2.57,2.35-2.99,4.06l-.49,2h0l-9.83,39.77c-.87,3.53,1.29,7.11,4.82,7.98l69.7,17.22c.13.03.25.06.38.08,3.4.63,6.76-1.5,7.6-4.9l2.18-8.81h0s2.96-11.98,2.96-11.98h0s5.19-20.98,5.19-20.98c.42-1.71.15-3.48-.76-4.99Z"/><path class="cls-9" d="M32.26,160.35c1.49.26,3.05-.74,3.29-2.21.21-.77.44-1.53.66-2.29.33-1.59.8-3.58,1.19-5.29.56-1.44-.03-3.1-1.62-3.43,0,0-2.11-.55-2.11-.55-6.32-1.67-12.62-3.48-18.81-5.59-.66-.18-1.41-.13-2.07.18.59-.43,1.37-.64,2.14-.52l2.15.42c1.43.28,2.85.6,4.27.91,4.26.96,8.49,2.02,12.7,3.15,1.39.43,3.44.64,4.27,2.04.79,1.05.77,2.56.33,3.7-.51,1.73-1.03,3.5-1.57,5.22-.27.71-.62,1.59-.88,2.2-.48,1.63-2.36,2.64-3.92,2.05h0Z"/><path class="cls-3" d="M35.51,146.59l-21.91-5.82c-.8-.21-1.63-.09-2.34.33-.71.42-1.21,1.09-1.42,1.89l-.24.94h0s-2.19,7.57-2.19,7.57c-.42,1.65.57,3.33,2.22,3.76l21.91,5.82c.06.02.12.03.18.04,1.59.31,3.17-.67,3.58-2.26l.8-2.32,1.63-6.18c.21-.8.09-1.63-.33-2.34-.42-.71-1.09-1.21-1.89-1.42Z"/><path class="cls-9" d="M32.08,149.27c-.29-.26-.63-.47-1-.62-.35-.14-.73-.24-1.1-.24-.72,0-1.38.33-1.91.81-.28.25-.52.54-.73.86-.22.35-.4.72-.48,1.13-.02.09-.03.19-.04.28,0,.02,0,.03,0,.05-.07.23-.12.46-.13.7,0,.33.06.66.21.95.14.43.37.83.65,1.19.27.34.58.66.97.87.33.18.7.27,1.08.29.83.03,1.62-.3,2.26-.82.32-.26.62-.56.85-.9.17-.25.29-.52.36-.81,0-.01.01-.02.02-.04.05-.23.08-.46.12-.69.05-.32.06-.65.02-.97-.02-.21-.08-.4-.16-.6-.07-.18-.15-.35-.25-.52-.2-.34-.45-.65-.75-.91h0Z"/></g></svg>