<svg xmlns="http://www.w3.org/2000/svg" viewBox="0 0 200 164.44"><defs><style>.cls-4{fill:#ba917a}.cls-5{fill:#d4e9ec}.cls-6{fill:#b8d8dc}.cls-7{fill:#fff}.cls-9{fill:#603b5d}</style></defs><path d="M183.69 76.65c-.78-9.22-1.76-18.47-5.6-27-3.5-7.78-9.28-14.41-14.79-20.84-5.26-6.13-11.14-12.02-18.72-15.15-8.2-3.38-17.26-2.95-25.71-.72-9.18 2.42-17.5 7.07-26.25 10.58-9.27 3.72-18.03 4.26-27.9 4.57-15.53.48-29.96 6.49-40.51 18.09C13 58.5 7.96 74.84 10.81 91.29c2.31 13.39 9.76 25.72 20.37 34.12 2.12 1.68 4.51 3.01 7.05 3.94l.79.29c2.08.76 4.26 1.17 6.45 1.45 7 .91 12.57 8.24 17.48 12.75 5.87 5.4 12.8 9.15 20.54 11.1 16.27 4.1 34.64 1.88 50.79-1.77 16.2-3.66 32-11.5 41.63-25.48 10.31-14.96 9.24-33.8 7.79-51.04z" style="fill:#575655" id="BG_Strong"/><g id="Illustrations"><path d="M193 101.99c-12.07 3.77-20.66 6.54-33.03 9.15-5.8-19.99-11.64-40.26-12-61.07 10.34-2.74 20.82-5.49 31.27-7.77.76-3.01 1.85-5.38 3.5-8.01 11.15 22.65 11.92 39.64 11.61 56.58-.6 5.7-.08 13.25-1.35 11.12z" style="fill:#fcbe0c"/><path d="M50.9 92.26c5.46-11.66 11.05-23.27 16.76-34.81 2.68 1.4 5.38 2.06 8.22 3.09 1.77.64 3.52 1.35 5.23 2.13 4.18-2.91 9.16-4.05 14.2-4.87 3.6-.59 7.29-1 10.9-.43 4.83.76 9.36 3.32 12.49 7.06-4.63-2.21-10.34-2.19-15.14-.38-1.53.58-3.01 1.36-4.16 2.53-1.9 1.92-2.71 4.62-4.03 6.97-2.74 4.89-7.61 8.15-12.3 11.24 1.51 1.89 4.13 2.41 6.52 2.81 3.53.58 7.19 1.16 10.64.22 3.92-1.07 7.03-3.96 9.98-6.76 3.72 2.91 8.51 4.08 13.18 4.8 1.71.26 3.45.49 5.01 1.24.94.46 1.79 1.09 2.59 1.77 6.74 5.69 10.71 14.5 10.51 23.3-.04 1.65-.26 3.42-1.33 4.68s-3.25 1.71-4.37.49c.34 4.91-4.77 9.41-9.62 8.46-.56-.11-1.14-.28-1.69-.11-.44.13-.79.46-1.13.77-3.51 3.04-8.9 3.72-13.06 1.63-4.25 2.32-10.18.8-12.78-3.27 1.05-.58 2.13-1.2 2.86-2.15.72-.96 1-2.36.32-3.35-.4-.58-1.04-.93-1.66-1.26-1.5-.8-3.01-1.59-4.51-2.39 1.31-.66 2.85-1.76 2.51-3.18-.26-1.1-1.51-1.61-2.6-1.95-1.75-.55-3.5-1.09-5.24-1.64 1.42-.41 1.71-2.48.85-3.68-.86-1.2-2.37-1.72-3.79-2.12a81.002 81.002 0 0 0-17.42-2.97c-1.21-.07-2.46-.12-3.55-.64-1.32-.62-2.24-1.84-3.27-2.87-2.97-2.98-6.89-4.56-11.1-4.33z" style="fill:#e7c3b9"/><path class="cls-4" d="M65.61 100.65c2.67-.64 5.44-.88 8.19-.72 2.63.16 5.52.87 6.97 3.06 2.34-.35 4.78-.02 6.94.94 1.05.46 2.09 1.14 2.51 2.21.42 1.06-.11 2.53-1.24 2.72 3.06-.1 6.12 1.58 7.66 4.21-.92.73-1.84 1.46-2.76 2.2 2.71.97 5.08 2.83 6.67 5.23.19.28.37.59.38.93.01.64-.59 1.11-1.15 1.43-5.07 2.85-12.05 1.71-15.95-2.59-.18-.2-.37-.42-.62-.53-.78-.35-1.6.45-2.45.49-1.55.08-2.11-2.11-3.49-2.82-.81-.42-1.78-.26-2.69-.3-2.55-.13-4.88-2.15-5.36-4.65-3.36.57-6.77-1.82-8.01-4.98-.91-2.34-.78-4.96-.02-7.32.34-1.05.58-2.32 1.85-2.07.68.13 2 2.72 2.58 2.58zM149.71 66.22c1.24 12.5 4.92 24.93 8.38 37.01-5.09 1.29-11.16 2.41-16.39 2.88a35.46 35.46 0 0 0-10.74-17.76c-.35-.31-.72-.63-1.15-.82-.62-.28-6.09-1.16-6.77-1.2-5.98-.43-6.68-2.54-11.92-5.44-2.41 3.37-8.61 6.59-12.6 7.75-2.95.86-4.07-.11-7.14-.28-3.07-.18-6.26-1.61-7.69-4.33 5.3-1.87 9.04-6.29 11.99-11.07 2-3.24 3.75-6.9 7.02-8.87 3.99-2.41 9.16-1.59 13.5.13 4.34 1.72 8.39 4.26 12.96 5.21 6.75 1.41 14.02-1.03 20.56-3.21z"/><path class="cls-9" d="M81.86 63.05c4.96-1.97 10.11-3.41 15.32-4.57 2.59-.57 5.09-1 7.77-.69a15.33 15.33 0 0 1 1.66.3c.56.13 1.12.29 1.67.46.58.19 1.14.4 1.7.63.24.1-.13-.06.11.04l.15.06c.15.06.29.13.44.19.27.12.53.25.79.38 2.45 1.21 4.74 2.73 7.01 4.25.34.23.88.08 1.07-.28.21-.39.08-.83-.28-1.07-4.03-2.7-8.29-5.52-13.16-6.37-1.31-.23-2.64-.32-3.98-.24-1.42.08-2.82.3-4.21.58-2.64.53-5.25 1.2-7.84 1.92-2.92.82-5.8 1.77-8.62 2.89-.38.15-.69.53-.55.96.12.37.56.71.96.55z"/><path class="cls-9" d="M83.28 85.31c3.62-2 6.91-4.6 9.71-7.64 1.41-1.53 2.69-3.17 3.84-4.91.57-.86 1.1-1.74 1.59-2.64.5-.92.91-1.91 1.48-2.79.25-.39.57-.73.95-.98.45-.29.89-.47 1.35-.65 1.13-.44 2.27-.88 3.43-1.25 2.22-.71 4.57-1.19 6.87-.77 1.18.22 2.31.6 3.45.98.84.29 1.68.59 2.51.9 1.88.71 3.75 1.45 5.61 2.21 3.73 1.52 7.43 3.1 11.19 4.55.4.16.81.31 1.21.46s.86-.16.96-.55c.12-.44-.15-.82-.55-.96-3.74-1.39-7.41-2.96-11.1-4.47-1.9-.78-3.8-1.55-5.72-2.29s-3.75-1.44-5.68-1.99c-1.2-.34-2.43-.56-3.68-.57-1.26 0-2.52.19-3.74.48s-2.35.68-3.5 1.11c-1.09.4-2.26.77-3.26 1.36-1.02.6-1.67 1.54-2.19 2.57-.47.93-.94 1.85-1.46 2.75a36.576 36.576 0 0 1-3.49 4.98c-2.66 3.18-5.74 5.85-9.24 7.98-.44.27-.88.52-1.33.77-.37.2-.49.71-.28 1.07s.7.49 1.07.28z"/><path class="cls-9" d="M82.22 85.15c2.88 3.34 7.37 4.87 11.7 4.86 4.73-.01 9.21-1.91 13.04-4.6 2.26-1.59 4.34-3.43 6.28-5.39.29-.29.31-.82 0-1.11s-.8-.31-1.11 0c-.83.84-1.68 1.65-2.57 2.44-.44.39-.89.78-1.35 1.15-.22.18-.44.36-.66.53-.06.05-.12.1-.18.14.12-.09-.08.06-.09.07l-.37.28c-.94.7-1.92 1.36-2.94 1.95-.51.29-1.02.57-1.54.83-.25.12-.5.25-.76.36-.14.06-.28.13-.42.19-.05.02-.09.04-.14.06.13-.06-.14.06-.16.07-1.06.43-2.15.79-3.27 1.04-.51.12-1.02.21-1.53.28.19-.03-.04 0-.06 0-.05 0-.09.01-.14.02-.14.02-.27.03-.41.04-.27.03-.54.04-.82.06-1.04.05-2.09 0-3.12-.12.17.02.02 0-.03 0-.06 0-.11-.02-.17-.02-.13-.02-.27-.04-.4-.07a15.723 15.723 0 0 1-2.28-.58c-.26-.09-.52-.18-.78-.29l-.15-.06c-.08-.03-.08-.03 0 0-.04-.02-.08-.04-.12-.05-.12-.05-.24-.11-.36-.17-.52-.25-1.02-.52-1.5-.84-.24-.16-.48-.32-.71-.49-.02-.01-.19-.15-.05-.04-.05-.04-.1-.08-.16-.12l-.36-.3c-.44-.38-.84-.79-1.22-1.23-.27-.31-.84-.3-1.11 0-.3.33-.29.78 0 1.11z"/><path class="cls-9" d="M110.88 82.23a24.153 24.153 0 0 0 14.55 5.55c1.5.06 2.99-.04 4.48-.27.41-.06.67-.59.55-.96-.14-.44-.53-.61-.96-.55l-.22.03c-.25.04.16-.02-.09.01-.15.02-.3.04-.45.05-.32.03-.65.06-.97.08-.62.04-1.25.05-1.88.04s-1.25-.05-1.87-.11c-.15-.01-.3-.03-.45-.05-.07 0-.15-.02-.22-.03-.25-.03.16.02-.09-.01-.32-.05-.64-.1-.96-.16-1.23-.23-2.44-.55-3.62-.97-.28-.1-.56-.21-.84-.32-.07-.03-.14-.06-.21-.08 0 0-.24-.1-.09-.04l-.48-.21c-.57-.26-1.13-.54-1.68-.84a22.03 22.03 0 0 1-2.64-1.71c-.06-.05-.12-.09-.18-.14.11.09-.12-.09-.14-.11-.14-.11-.27-.22-.41-.33-.31-.26-.8-.33-1.11 0-.27.29-.34.83 0 1.11z"/><path class="cls-9" d="M128.03 87.61c.53.34 1.06.7 1.57 1.08l.39.3c-.1-.08.03.02.06.05.07.06.15.12.22.18a28.885 28.885 0 0 1 3.46 3.3c.42.47.83.96 1.22 1.46.02.02.09.12 0 0 .02.03.04.06.06.08.04.06.09.11.13.17.11.14.21.28.31.43a28.917 28.917 0 0 1 2.49 4.09 34 34 0 0 1 .8 1.73c-.06-.13.03.07.04.11.03.07.05.13.08.2.06.15.12.31.18.46.11.3.22.59.33.89.42 1.21.76 2.44 1.02 3.69.07.32.13.64.18.97.03.15.05.3.07.45l.03.21c0 .05.04.3.02.14.08.63.14 1.26.18 1.89.04.68.06 1.37.04 2.05-.01.37-.03.73-.08 1.1 0 0-.02.13 0 .06s0 .06 0 .06c-.02.09-.03.19-.05.28-.04.18-.08.37-.13.55-.15.56-.29.89-.61 1.39-.05.08-.1.15-.15.23-.02.03-.11.14-.03.04s-.04.05-.06.08c-.13.16-.28.31-.43.45-.04.03-.07.06-.11.09 0 0-.07.05-.07.06 0 0 .13-.1.06-.05l-.29.2c-.1.07-.19.11-.29.16-.06.03-.11.05-.17.08-.16.08.09-.03-.04.02-.26.09-.51.17-.78.22l-.18.03c.16-.03-.01 0-.08 0-.16.01-.32.02-.48.02s-.32 0-.47-.02c-.08 0-.15-.01-.23-.02-.05 0-.1-.01-.16-.02.04 0 .13.02-.03 0-.4-.06-.86.1-.96.55-.09.37.11.9.55.96 1.34.2 2.72.14 3.94-.53.84-.47 1.52-1.2 1.98-2.04.75-1.36.93-2.94.93-4.47 0-1.39-.13-2.77-.33-4.14-.4-2.67-1.2-5.26-2.3-7.72s-2.56-4.78-4.29-6.88a28.79 28.79 0 0 0-5.94-5.46c-.27-.19-.55-.37-.82-.55-.35-.22-.88-.08-1.07.28a.79.79 0 0 0 .28 1.07z"/><path class="cls-9" d="M113.39 93.94c2.65 1.27 5.31 2.57 7.76 4.2.31.2.61.41.91.63l.42.3c.07.05.14.1.21.16.02.01.12.09.02.01l.12.09c.57.45 1.13.93 1.66 1.43a18.098 18.098 0 0 1 1.79 1.97c.06.07 0 0-.01-.01l.09.12.18.24c.25.34.48.69.7 1.05.92 1.47 1.67 3.05 2.46 4.59l2.49 4.89c.41.81.82 1.62 1.24 2.42.2.4.41.79.6 1.19.09.18.17.36.26.54.1.21.11.25.2.48.15.39.26.79.33 1.2.02.09 0 .01 0 0 0 .05.01.11.02.16 0 .09.01.19.01.28v.28c0 .05 0 .11-.01.16.01-.09 0 0 0 .04-.04.19-.09.38-.15.56-.01.04-.03.07-.04.1.05-.12 0 0-.01.02-.05.09-.09.18-.14.27-.09.15-.19.3-.29.44-.09.13-.04.05-.02.02-.02.03-.05.06-.07.09-.07.09-.15.17-.23.26-.24.26-.5.5-.77.73-.03.03-.2.16-.09.08-.07.06-.15.11-.23.17-.14.1-.29.2-.44.3-.29.18-.59.35-.9.49-.09.04-.17.08-.26.12 0 0-.12.05-.04.02a4.243 4.243 0 0 1-.57.21c-.34.11-.68.21-1.03.28l-.49.09c-.05 0-.09.01-.14.02.01 0 .13-.01.03 0l-.28.03c-.35.03-.71.04-1.06.04-.17 0-.33-.01-.5-.03-.08 0-.16-.01-.25-.02-.05 0-.09-.01-.14-.02.08 0 .07.01 0 0-.35-.05-.7-.13-1.04-.22-.39-.11-.87.13-.96.55-.09.41.12.85.55.96 3 .83 6.31.13 8.75-1.79 1.31-1.03 2.4-2.46 2.4-4.19 0-1.85-1.05-3.54-1.87-5.14-.86-1.68-1.72-3.37-2.58-5.05-.84-1.65-1.66-3.31-2.54-4.94-.8-1.48-1.72-2.87-2.85-4.12-1.03-1.15-2.21-2.15-3.45-3.07-2.46-1.81-5.2-3.21-7.94-4.54-.33-.16-.67-.32-1-.48-.37-.18-.86-.11-1.07.28-.18.35-.11.88.28 1.07z"/><path class="cls-9" d="M104.51 101.61c2.88 1.89 5.77 3.78 8.65 5.67 1.3.85 2.63 1.68 3.87 2.62.03.02.06.05.09.07.1.08-.08-.06.02.02.06.05.12.1.18.14.15.12.3.24.44.37.27.23.53.48.78.73s.49.52.71.8c.1.12.04.05.02.02.02.03.05.06.07.09l.16.22c.11.16.21.32.31.48.2.34.39.69.56 1.05.18.38.25.56.4.95.28.74.53 1.5.76 2.25.5 1.61.94 3.25 1.32 4.9l.27 1.23.09.47c.01.09.03.17.04.26 0-.01-.01-.12 0-.02 0 .06.01.12.02.19.02.17.02.34.02.52v.22c0 .05 0 .1-.01.14 0-.08.01-.07 0 0-.02.08-.03.16-.06.24-.01.04-.09.25-.03.11-.03.07-.06.13-.1.19-.02.03-.17.24-.08.14-.1.13-.23.25-.36.35.1-.08-.04.03-.07.05-.08.05-.16.1-.25.15-.3.17-.61.31-.93.45-.16.07-.33.14-.49.22 0 0-.12.05-.05.02.08-.03-.07.03-.08.03-.1.04-.19.08-.29.12-.34.13-.68.26-1.02.38-.69.24-1.38.45-2.09.62-.35.08-.7.15-1.06.21-.09.01-.18.03-.26.04 0 0-.13.02-.05 0 .09-.01-.06 0-.08 0-.18.02-.35.04-.53.05-.71.05-1.41.04-2.12-.04.13.01-.04 0-.08-.01-.08-.01-.17-.03-.25-.04-.18-.03-.36-.07-.54-.12-.33-.08-.66-.19-.98-.32 0 0-.12-.05-.04-.02.08.03-.06-.03-.08-.03-.08-.04-.16-.07-.24-.11a6.74 6.74 0 0 1-.46-.25c-.36-.2-.87-.09-1.07.28s-.1.85.28 1.07c2.74 1.57 6.02 1.38 8.96.52.72-.21 1.43-.46 2.13-.74s1.47-.58 2.15-.96c.75-.42 1.34-1.01 1.63-1.83.27-.76.2-1.59.08-2.37-.13-.83-.33-1.65-.53-2.46s-.42-1.68-.65-2.52c-.47-1.67-.97-3.34-1.66-4.93-.63-1.47-1.54-2.77-2.73-3.86-1.15-1.05-2.45-1.91-3.75-2.76-3.01-1.98-6.02-3.95-9.04-5.93l-1.12-.73c-.34-.23-.88-.08-1.07.28-.21.39-.09.83.28 1.07z"/><path class="cls-9" d="M96.95 107.74c2.02 2.07 4.23 3.92 6.45 5.77 2.19 1.82 4.4 3.61 6.44 5.6.55.54 1.09 1.09 1.6 1.66.24.27.48.54.72.82.12.15.25.3.37.45.05.07.1.13.16.2.01.02.1.13.05.06s.07.09.07.09c.25.32.69.53 1.07.28.32-.21.55-.72.28-1.07-1.7-2.23-3.72-4.17-5.83-6-2.19-1.9-4.47-3.71-6.67-5.61a56.89 56.89 0 0 1-3.59-3.35c-.29-.29-.82-.31-1.11 0s-.31.79 0 1.11z"/><path class="cls-9" d="M96.42 125.13a9.844 9.844 0 0 0 4.36 3.5c1.68.7 3.54.94 5.35.95.59 0 1.21-.03 1.77-.25.36-.14.71-.32 1.04-.52.72-.42 1.47-.93 2.01-1.57s.77-1.49.86-2.35c.09-.88 0-1.77-.18-2.63-.41-2.1-1.37-4.15-2.66-5.84-.25-.32-.69-.53-1.07-.28-.32.21-.55.72-.28 1.07.55.72 1.02 1.48 1.42 2.29.1.19.19.39.28.59.02.04.04.09.06.13-.06-.13 0-.01 0 .01.05.12.1.24.15.37.16.41.29.82.41 1.24s.21.84.27 1.26c0 .04.01.09.02.13-.03-.17 0-.05 0-.01l.03.32c.02.2.03.4.03.6 0 .18 0 .36-.01.55 0 .09-.02.18-.02.26-.01.15 0-.01 0-.04 0 .06-.02.11-.03.17-.03.16-.07.33-.11.49-.02.09-.05.17-.08.26-.01.03-.02.07-.04.1-.06.17.09-.15 0-.03-.04.05-.07.12-.1.17-.08.13.02-.03.02-.02 0 0-.07.09-.07.08-.12.14-.26.27-.39.4-.06.05-.12.11-.18.16-.03.03-.28.22-.13.11-.16.12-.32.24-.49.35-.3.2-.61.39-.93.55-.07.03-.13.07-.2.1-.03.02-.07.03-.1.05-.1.05.07-.03.07-.03-.01.04-.32.11-.36.11-.07.02-.14.03-.2.04-.15.03.05 0-.12.01-.9.05-1.79 0-2.68-.1-.22-.02.11.02-.03 0-.06 0-.11-.02-.17-.02-.09-.01-.18-.03-.27-.04-.22-.04-.44-.08-.66-.13a10.657 10.657 0 0 1-1.8-.57c.15.06.02 0-.02-.01-.06-.03-.12-.05-.18-.08-.1-.05-.19-.09-.29-.14-.4-.21-.79-.44-1.15-.7-.04-.03-.09-.06-.13-.1-.13-.1.09.08-.05-.04-.08-.07-.17-.14-.25-.21-.17-.15-.34-.31-.5-.47s-.32-.34-.47-.52c-.03-.04-.06-.07-.09-.11s-.13-.17-.05-.06l-.25-.34c-.23-.34-.7-.52-1.07-.28-.33.22-.53.71-.28 1.07z"/><path class="cls-9" d="M83.88 120.77c2.5 2.91 6.13 4.75 9.93 5.14 1.11.11 2.21.06 3.23-.41s1.87-1.16 2.7-1.84c.41-.33.81-.68 1.19-1.04s.8-.74 1.08-1.18c.37-.58.35-1.27-.07-1.81-.32-.41-.81-.72-1.22-1.02-1.86-1.37-3.96-2.4-6.17-3.09-.39-.12-.87.14-.96.55-.1.43.13.83.55.96.45.14.89.29 1.32.46.11.04.22.09.33.13l.15.06c-.03-.01-.11-.05.03.02.22.1.44.19.66.3.84.4 1.66.86 2.44 1.37.39.26.77.53 1.14.81.11.08-.07-.06.03.02.04.03.08.07.13.1.09.07.17.14.25.21l.1.1c-.02-.02-.07-.12 0 0 .08.14 0 .02 0 0 0-.05.03-.21-.01-.07-.01.05-.06.1 0 .01-.03.04-.05.09-.08.13-.09.13-.04.05-.02.02-.03.04-.07.08-.1.11-.17.18-.34.35-.52.53-.36.35-.73.68-1.11 1.01-.69.58-1.42 1.15-2.27 1.62-.1.05-.19.1-.29.15-.01 0-.14.06-.04.02l-.15.06c-.23.08-.48.14-.72.18.11-.02-.02 0-.04 0-.06 0-.11 0-.17.01-.12 0-.25.01-.37.01a9.401 9.401 0 0 1-1.38-.1c.03 0 .15.02 0 0a.59.59 0 0 1-.14-.02l-.36-.06c-.42-.08-.84-.17-1.25-.29s-.82-.25-1.22-.4c-.09-.03-.18-.07-.27-.11-.05-.02-.09-.04-.14-.06.12.05 0 0-.02 0l-.6-.27c-.87-.42-1.69-.93-2.46-1.51-.1-.08.08.07-.02-.01-.05-.04-.1-.08-.14-.11-.09-.08-.19-.15-.28-.23-.19-.16-.37-.32-.54-.49-.35-.34-.69-.69-1.01-1.06-.27-.31-.84-.3-1.11 0-.3.33-.29.78 0 1.11z"/><path class="cls-9" d="M88.82 110.48c.54-.05 1.09-.06 1.63-.03.12 0 .23.01.35.03.05 0 .09 0 .14.01.03 0 .25.03.06 0a8.974 8.974 0 0 1 1.92.49c.2.07.41.15.61.23.04.02.08.03.12.05.21.09-.15-.06.06.03.12.05.23.1.35.15.47.21.94.43 1.41.64.24.11.48.2.71.32.1.05.19.11.29.17 0 0 .17.13.08.06-.07-.06.1.1.11.11.04.03.07.11 0-.02.02.04.09.2.03.02 0 .02.04.1.03.11v-.09c-.02.07-.01.08 0 .01 0-.13-.07.13.02-.04 0 0-.12.16-.05.08.08-.09-.08.07-.08.07-.12.12.07-.04-.06.05-.47.31-.94.61-1.43.89a40.1 40.1 0 0 1-2.96 1.6c-.5.25-1.01.48-1.53.71-.13.06-.25.11-.38.16-.02.01-.18.08-.08.03-.06.03-.13.05-.19.08-.27.11-.53.22-.8.32-2.09.81-4.25 1.45-6.45 1.91-.34.07-.68.14-1.02.19.1-.01-.04 0-.05 0l-.35.03h-.43c-.22 0-.2 0-.38-.04-.14-.03-.28-.06-.42-.11-.05-.01-.09-.03-.13-.04-.04-.02-.09-.03-.13-.05.08.03.08.03 0 0-.12-.06-.23-.11-.35-.18s-.23-.13-.33-.2l-.18-.12c-.02-.02-.19-.14-.07-.05-.22-.17-.43-.36-.63-.55-.42-.4-.8-.83-1.18-1.26-.27-.31-.83-.3-1.11 0-.3.33-.29.78 0 1.11.73.84 1.49 1.67 2.44 2.27.48.31 1.02.56 1.58.68.7.16 1.4.13 2.1.03 1.21-.17 2.41-.48 3.58-.8s2.34-.7 3.48-1.13c2.29-.86 4.52-1.91 6.63-3.16.51-.3 1.02-.6 1.51-.94.55-.38 1.04-.9.98-1.62-.1-1.31-1.57-1.77-2.57-2.23s-2.09-.97-3.2-1.27c-1.2-.32-2.44-.39-3.67-.28-.41.03-.8.34-.78.78.02.39.35.82.78.78zM61.64 98.01a28.28 28.28 0 0 0-1.35 5.96c-.12 1.03-.22 2.07 0 3.1.18.84.6 1.62 1.11 2.3s1.13 1.32 1.78 1.9 1.37 1.29 2.22 1.65c1.01.43 2.08.23 3.13.05.89-.15 1.77-.35 2.64-.59 1.8-.49 3.56-1.18 5.23-2.01.82-.41 1.62-.86 2.39-1.35s1.57-1.02 2.27-1.63c.71-.62 1.27-1.4 1.39-2.35s-.34-1.82-.96-2.49-1.35-1.11-2.11-1.52-1.6-.75-2.44-1.01c-3.34-1.03-7.03-.78-10.21.66-.38.17-.74.36-1.1.57s-.51.72-.28 1.07.69.5 1.07.28c.34-.2.68-.38 1.04-.54l.27-.12c.14-.06.04-.02.01 0 .05-.02.09-.04.14-.06.19-.08.39-.15.58-.22.75-.26 1.52-.45 2.3-.57.05 0 .1-.01.14-.02.03 0 .15-.02 0 0l.25-.03c.21-.02.41-.04.62-.05.39-.03.78-.03 1.17-.03s.8.03 1.2.07c.08 0 .17.02.25.03.16.02.04 0 0 0 .05 0 .1.01.14.02.2.03.41.07.61.11.78.15 1.54.37 2.28.66.09.04.18.07.27.11-.12-.05.08.04.11.05.19.08.38.17.56.27a11.048 11.048 0 0 1 1.48.9c-.12-.09.1.08.12.1.08.07.16.14.24.22.06.06.12.12.17.18.02.03.19.24.1.11.12.16.21.32.3.49.05.1-.03-.11 0 0 .01.04.03.08.04.13.02.07.03.15.05.23-.04-.14 0-.06 0 0v.28c0 .21.04-.13-.01.07-.02.08-.04.16-.06.23 0 .02-.06.15-.02.07l-.03.06c-.04.08-.09.16-.14.24l-.06.09c-.13.18.1-.1-.05.07-.25.29-.54.55-.84.79.11-.09-.1.08-.13.09-.09.06-.17.13-.26.19l-.52.37c-.71.49-1.45.94-2.2 1.35s-1.53.8-2.32 1.14l-.15.06c-.01 0-.14.06-.03.01-.09.04-.17.07-.26.11-.21.08-.42.17-.63.25-.4.15-.8.29-1.2.42-.82.27-1.65.49-2.5.68-.43.1-.86.18-1.29.25-.2.03-.39.07-.59.1-.05 0-.11.02-.16.02-.13.02.09-.01-.05 0-.13.02-.26.03-.4.04-.12 0-.23.01-.35 0h-.17c-.01 0-.15-.02-.05 0a2.68 2.68 0 0 1-.27-.07c-.05-.02-.09-.03-.14-.05-.08-.03.07.04-.05-.03-.18-.1-.35-.2-.52-.31l-.12-.09c.03.02.1.08-.02-.02-.08-.06-.16-.13-.24-.2-.6-.52-1.2-1.05-1.75-1.63-.13-.14-.26-.29-.39-.43-.05-.06-.11-.13-.16-.2-.1-.12-.03-.04-.01-.01-.04-.06-.09-.11-.13-.17-.22-.31-.41-.63-.57-.98-.01-.02-.06-.14 0 0a.694.694 0 0 1-.05-.13l-.09-.27c-.06-.18-.1-.37-.13-.55-.03-.16-.01-.09 0-.05 0-.06-.01-.12-.02-.18 0-.12-.01-.23-.02-.35 0-.24 0-.47.02-.71.06-.98.16-1.76.33-2.69s.38-1.85.65-2.75c.13-.45.27-.89.43-1.33.13-.39-.15-.87-.55-.96-.44-.1-.82.13-.96.55z"/><path class="cls-9" d="M68.73 113.12c-.1 1.25.51 2.46 1.43 3.27 1 .88 2.26 1.37 3.59 1.4 1.54.03 3.01-.47 4.39-1.09 1.3-.59 2.57-1.28 3.81-1.98a66.614 66.614 0 0 0 9.01-6.13c.59-.47 1.39-.97 1.41-1.81.02-.76-.62-1.34-1.13-1.82-.47-.43-.99-.83-1.53-1.17-2.11-1.33-4.66-1.96-7.14-2-.3 0-.6 0-.9.01-.41.02-.8.35-.78.78.02.41.34.8.78.78.56-.03 1.12-.02 1.68.02.28.02.56.05.84.08-.18-.02.05 0 .07.01l.21.03c.14.02.28.05.42.08.56.11 1.11.25 1.65.43.27.09.53.19.8.29.22.09-.14-.06.07.03.04.02.09.04.13.06a10.84 10.84 0 0 1 1.87 1.07c.06.04.11.08.17.12.18.13-.12-.1.06.05l.32.26c.21.18.41.37.6.57.05.05.09.1.14.15 0 0 .15.2.07.07l.04.06c.04.08.05.09.01 0v-.07.03-.04c.04-.08.03-.08-.01 0l.04-.05-.1.1c-.13.13-.28.24-.42.35-.24.2-.48.39-.72.58-.13.1-.26.21-.4.31-.17.14-.24.18-.37.29a66.793 66.793 0 0 1-6.68 4.51c-1.13.67-2.29 1.3-3.46 1.9s-2.3 1.15-3.66 1.42c-.08.02-.16.03-.25.04-.05 0-.11.02-.16.03h-.04c-.19.02-.39.03-.58.04-.17 0-.33 0-.5-.01-.08 0-.17-.01-.25-.02a.585.585 0 0 1-.12-.02c-.3-.06-.58-.15-.86-.25-.12-.05.16.08-.03-.01l-.24-.12c-.14-.07-.27-.15-.4-.24-.06-.04-.11-.08-.16-.11-.07-.05-.07-.05 0 0a.7.7 0 0 0-.1-.08c-.1-.08-.2-.17-.29-.27-.05-.05-.09-.09-.13-.14-.02-.03-.2-.24-.08-.09a4.79 4.79 0 0 1-.25-.37c-.06-.11-.12-.22-.17-.34.08.18 0-.02-.01-.05-.03-.08-.05-.16-.07-.24-.02-.06-.03-.12-.04-.18-.01-.09-.01-.08 0 .02 0-.04 0-.08-.01-.13-.01-.15 0-.3 0-.45.03-.41-.38-.8-.78-.78-.45.02-.75.34-.78.78zM99.45 123.15c.12.08.23.16.34.25l-.16-.12c.45.35.85.75 1.2 1.21l-.12-.16c.16.2.3.41.43.63.21.35.71.51 1.07.28s.51-.7.28-1.07a7.569 7.569 0 0 0-2.25-2.36c-.16-.11-.42-.13-.6-.08s-.38.19-.47.36c-.21.4-.08.82.28 1.07zM59.48 94.54a22.18 22.18 0 0 0 6.96 6.91c.35.22.88.09 1.07-.28s.09-.84-.28-1.07c-1.35-.84-2.41-1.67-3.56-2.81-1.15-1.14-2-2.2-2.84-3.53-.22-.35-.71-.52-1.07-.28s-.52.7-.28 1.07zM131 70.39c1.16.09 2.33-.04 3.48-.17 1.32-.15 2.63-.34 3.95-.54.26-.04.51-.07.77-.11.2-.03-.11.01.02 0 .11-.01.21-.03.32-.04.24-.03.49-.07.73-.1l2.7-.36c1.81-.24 3.63-.48 5.44-.73 2.04-.27 4.09-.54 6.13-.82.4-.05.8-.32.78-.78-.02-.38-.35-.84-.78-.78-3.63.48-7.26.97-10.88 1.45-1.71.23-3.43.45-5.14.69l-1.69.24c-.32.05-.65.09-.97.14-.04 0-.09.01-.13.02 0 0 .13-.02.04 0l-.23.03c-.18.02-.36.05-.54.07-1.31.16-2.66.33-3.99.23-.41-.03-.8.38-.78.78.02.45.34.75.78.78zM142.03 107.44c3.04-.18 6.06-.59 9.04-1.22 2.94-.62 5.83-1.46 8.64-2.51 1.63-.61 3.23-1.28 4.8-2.02.37-.17.5-.74.28-1.07-.25-.38-.67-.47-1.07-.28-.67.31-1.34.62-2.01.9-.04.02-.08.03-.12.05-.13.05.08-.03-.05.02-.08.03-.16.07-.24.1l-.51.21a62.283 62.283 0 0 1-5.25 1.84c-2.83.85-5.73 1.49-8.66 1.92-.45.06-.65.09-1.1.15-.41.05-.82.1-1.22.14-.85.09-1.69.15-2.54.21-.41.02-.8.34-.78.78.02.4.35.81.78.78zM66.49 58.09c3.81 1.2 7.59 2.49 11.34 3.86 1.05.38 2.1.78 3.15 1.17.38.15.88-.16.96-.55.1-.45-.14-.81-.55-.96-3.73-1.42-7.49-2.75-11.29-4-1.06-.35-2.13-.69-3.19-1.03-.39-.12-.87.15-.96.55-.1.43.13.83.55.96z"/><path class="cls-9" d="M49.33 92.16c3.76.69 7.51 1.39 11.27 2.08 1.07.2 2.14.4 3.21.59.4.07.86-.11.96-.55.09-.38-.12-.88-.55-.96-3.76-.69-7.51-1.39-11.27-2.08-1.07-.2-2.14-.4-3.21-.59-.4-.07-.86.11-.96.55-.09.38.12.88.55.96z"/><path d="m70.19 80.07.11.03c.11.02-.05-.08-.14-.1-.09-.01-.12.03.03.06z" style="fill:none"/><path class="cls-5" d="M73.19 92.76c-.21-.13-.27-.17-.03 0h.03zM50.26 83.71c-.25-.09-.24-.08.02.02l-.02-.02zM49.9 84.46c-.49-.2-.53-.21 0 0zM48.18 83.83c-.37-.28-.33-.14 0 0zM57.75 87.18c-.15-.04-.17-.04-.05 0h.05zM64.74 89.6l-.02-.03c-.27-.03-.2-.02.02.03zM64.14 89.4c.35.14.33.13 0 0zM69.97 91.27c0-.12-.03-.12-.09 0h.09zM67.94 90.96c-.07-.03-.2-.07-.28-.1 0 .08.3.17.28.1zM67.64 90.85h.02v-.01h-.01zM66.74 89.74c.16.04-.17-.06-.33-.1.06.02.19.06.26.08l.07.02zM48.13 82.82l-.1.03c.17.16.2.15.1-.03zM68.93 78.78c.22.18.45.15 0 0zM69.65 79.07h.03c.29.12.01.01-.03 0zM68.86 78.76s.05.02.07.02H68.86zM70.56 80.06l-.09-.02c-.12-.07.17 0 .09.02zm-.39-.06c.09.01.25.12.14.1l-.11-.03c-.14-.04-.12-.08-.03-.06zM58.56 73.99h-.06c.07.04.09.04.06 0zM56.25 73.95l-.22-.07c-.3-.05.45.19.22.07zM72.81 67.71l-.02-.03c-.25-.05-.19-.03.02.03zM74.7 67.93c.15.05-.15-.06-.31-.11.06.02.18.07.24.09l.07.02z"/><path class="cls-6" d="M34.2 62.32c-5.87-3.19-11.68-6.48-17.24-9.78a290.79 290.79 0 0 1-3.77 5.42 70.767 70.767 0 0 0-2.82 4.24c15.39 8.82 31.16 18.76 47.37 26.9 2.29-3.75 4.43-7.59 6.4-11.52-9.26-4.41-19.54-9.61-29.7-15.13.02.04-.06 0-.25-.13zm23.55 24.86h-.05c-.12-.04-.1-.04.05 0zm-1.72-13.3.22.07c.22.12-.52-.13-.22-.07zm-5.77 9.83.02.02c-.26-.1-.26-.11-.02-.02zm-.31.77s-.06-.02-.04-.01c-.02-.01-.01 0 .04.01zm-.05-.02c-.53-.21-.49-.2 0 0zm-1.77-1.64c.1.18.07.19-.1.03l.1-.03zm.05 1.01c-.33-.14-.37-.28 0 0zm-.58-1.08c.11.07.09.06-.07-.02l.07.02zm-6.92-16.94s-.04-.03-.02-.02c-.02-.01 0 0 .02.02.1.04 0 .2-.18.18l-.1-.05c-.03-.08.24-.15.27-.13zM29.72 30.84c-1.48 3.55-3.32 7-5.2 10.14.41.25.82.49 1.24.75 13.93 8.34 28.46 17.41 43.18 25.37 1.46-3.51 2.78-7.08 3.98-10.68-.66-.36-1.3-.71-1.91-1.05-13.58-7.62-27.53-16.22-41.3-24.53zm7.49 5.47v-.02c.22.12.22.13 0 .02zm1.91 1.09c-.07-.19-.04-.19.1-.02l-.1.02zm.49.11c-.09-.08-.07-.07.06.02l-.06-.02zm17.36 22.41.06.02c.1.08.08.07-.06-.02zm.46.14.1-.02c.08.18.05.19-.1.02zm2.05 1.01.02.02c-.24-.11-.24-.12-.02-.02zM43.69 53.49c-.05.06-.22.11-.25.1.03.02.04.03.03.02.02.01 0 0-.03-.02-.09-.03-.03-.16.12-.18-6.68-3.95-13.15-7.8-19.51-11.65-.37.6-.73 1.19-1.1 1.77-1.69 2.65-3.43 5.28-5.2 7.88 6.54 3.66 12.78 7.07 16.55 9.02 10.59 5.68 20.48 11.06 30.32 16.19 1.43-2.89 2.76-5.82 4.01-8.79-6.45-3.5-12.88-7.19-17.58-9.98-2.49-1.47-4.94-2.92-7.36-4.35zm-17.58-8.51s0-.04.07.01h-.07zm2.46.4-.21-.1c-.2-.14.49.18.21.1zM2.88 83.32c3.96 1.98 5.82 3.32 10.16 2.18 11 6.85 22.12 13.31 33.12 20.16 1.43-1.78 2.81-3.6 4.16-5.44C36.3 92.86 19.48 83.26 4.69 74.76c-.8 2.7-1.4 5.52-1.8 8.56zm13.44-1.52-.06-.02c-.09-.08-.07-.07.06.02zm-.44-.15-.1.02c-.07-.18-.04-.19.1-.02zm-1.95-1.04v-.02c.21.12.22.13 0 .02zM9.89 63.02c-2.05 3.46-3.65 6.92-4.85 10.62 12.31 6.78 26.3 14.74 39 21.86h.06l.21.07c.13.07-.08 0-.2-.04 2.33 1.31 4.62 2.58 6.84 3.82 2.25-3.11 4.38-6.3 6.39-9.57-6.27-3.16-12.37-6.46-16.86-9.07-10.85-6.15-20.77-11.92-30.59-17.7zm4.5 5.73s0-.04.07.02l-.07-.02zm2.56.45-.22-.1c-.21-.15.51.19.22.1zm15.91 7.99s.05.03.03.02c.02.01 0 0-.03-.02-.11-.03-.04-.2.16-.19l.11.04c.04.07-.23.16-.27.15zm13.66 18.44s0 .04-.06 0h.06zM74.17 52.51C62.9 46.28 51.53 39.85 40.14 33.83c-.25-5.48-2.99-10.8-7.3-14.2-.35 3.27-1.33 6.69-2.65 10.05 13.83 8.05 29.25 17.53 43.09 25.66.3-.94.61-1.88.89-2.83zm-6.03-.9.22.08c.21.13-.5-.14-.22-.08zm2.48.2s0 .04-.06 0h.06z"/><path class="cls-5" d="M44.04 95.49c-12.7-7.12-26.7-15.09-39-21.86-.12.38-.24.75-.36 1.13 14.79 8.5 31.61 18.1 45.63 25.46.21-.29.43-.58.64-.87-2.22-1.24-4.51-2.51-6.84-3.82-.05-.02-.07-.03-.07-.04zM14.37 79.91c.46.25.42.24 0 0zm1.5.76c.29.16.3.3 0 0zm7.06 4.38v-.02c.48.2.47.35 0 .02zm6.28 3.21-.1-.04c-.03-.07.23-.16.26-.14.1.03.01.2-.17.18zM9.89 63.02c9.81 5.78 19.74 11.55 30.59 17.7 4.49 2.61 10.59 5.91 16.86 9.07.14-.22.27-.45.41-.67-16.22-8.15-31.99-18.08-47.37-26.9-.17.27-.33.54-.49.81zm30.17 16.94v.02c-.54-.17-.54-.32 0-.02zM17.75 51.41c-.26.38-.53.75-.79 1.13 5.55 3.3 11.37 6.59 17.24 9.78-.04-.03-.05-.03-.1-.07v-.02c.22.11.32.19.34.22a637.488 637.488 0 0 0 29.7 15.13l.48-.96C54.78 71.48 44.88 66.1 34.3 60.43c-3.77-1.95-10.01-5.36-16.55-9.02zm.89.67.04.02c.11.05.09.05-.04-.02zm6.37 4.83v-.02c.21.15.21.15 0 .02zm.5-.66c.46.3.42.29 0 0zm1.36 1.91c-.06-.19-.03-.2.11 0h-.11zm.16-.99c.29.19.29.33 0 0zm.34 1.15c-.09-.09-.07-.08.06.03l-.06-.03zm31.19 15.67s0 .04-.06 0h.06zM24.52 40.98c-.16.26-.32.52-.47.78 6.36 3.85 12.83 7.7 19.51 11.65h.05l.1.05s0 .03-.02.04c2.43 1.44 4.87 2.88 7.36 4.35 4.7 2.8 11.13 6.48 17.58 9.98.1-.24.21-.48.31-.73-14.71-7.96-29.24-17.03-43.18-25.37-.42-.26-.83-.5-1.24-.75zm34.54 20.8c-.48-.24-.45-.23 0 0zm-1.58-.73c-.3-.15-.32-.29 0 0zm-7.39-4.34v.02c-.5-.21-.49-.35 0-.02zM30.19 29.67c-.15.39-.31.78-.47 1.17 13.76 8.31 27.71 16.91 41.3 24.53.61.34 1.25.7 1.91 1.05.12-.36.23-.72.35-1.09-13.84-8.13-29.25-17.61-43.09-25.66zm7.46 5.94c.47.25.44.25 0 0zm1.55.79c.29.16.31.3 0 0zm7.26 4.44v-.02c.5.21.48.35 0 .02zm6.46 3.27-.1-.04c-.03-.07.23-.16.27-.14.1.03.02.2-.17.18z"/><path class="cls-7" d="M39.74 37.63c-.32-.05-.78 2.8-2.49 7.03-.86 2.12-2.03 4.57-3.54 7.2-1.51 2.62-3.34 5.42-5.35 8.31-8.22 11.49-14.66 21.04-14.19 21.37.44.31 7.57-8.68 15.83-20.23 2.03-2.92 3.86-5.81 5.32-8.56 1.46-2.75 2.54-5.36 3.26-7.61 1.43-4.53 1.39-7.5 1.16-7.51zM188.55 97.66c.54-.1-1.13-12.15-3.73-26.93s-5.16-26.68-5.7-26.58c-.54.1 1.13 12.15 3.73 26.93s5.16 26.68 5.7 26.58zM43.94 96.86c0 .13.3.28.89.22.57-.05 1.42-.38 2.14-1.2.35-.41.67-.94.83-1.6.16-.66.13-1.44-.14-2.16-.53-1.41-1.93-2.71-3.84-2.76-1.91.02-3.33 1.3-3.88 2.71-.29.71-.32 1.49-.17 2.15.15.66.46 1.2.81 1.61.71.83 1.55 1.16 2.12 1.22.58.06.88-.09.89-.21.04-.29-1.13-.51-1.86-1.83-.35-.64-.49-1.47-.1-2.23.36-.76 1.27-1.44 2.17-1.43.89 0 1.79.69 2.15 1.46.38.76.24 1.58-.12 2.22-.75 1.31-1.92 1.52-1.88 1.81z"/></g></svg>