<svg xmlns="http://www.w3.org/2000/svg" viewBox="0 0 200 200"><defs><style>.cls-1{fill:none}.cls-3{fill:#f6c243}.cls-4{fill:#fff}.cls-5{fill:#fcb9c4}.cls-6{fill:#fbae5e}.cls-7{fill:#e5a355}.cls-8{fill:#efedea}.cls-9{fill:#a0b4b5}.cls-11{fill:#c1dade}.cls-12{fill:#ce9352}.cls-14{fill:#d6e8ea}.cls-15{fill:#cca88d}.cls-16{fill:#5b3d5b}</style></defs><path id="BG_Strong" d="M194.75 111.75c.93-12.91-5.6-19.9-15.83-24.68-1.62-20.84-.88-56.98-30.3-55.87-33.98 1.05-67.52-7.22-89.45 21.61-51.48 4.03-56.85 19.83-48.9 68.21-9.5 64.91 65.74 55.87 109.86 56.62 52.13.06 88.41-3.29 74.62-65.9Z" style="fill:#575655"/><g id="Illustrations"><path d="M103.76 120.18c-1.2-3.32-2.53-6.58-3.87-9.84-.12-.28-.37-.48-.7-.4a.75.75 0 0 0-.2.1l-3.11-7.59s.05-.02.07-.03c.28-.16.34-.5.2-.77-1.58-3.22-3.3-6.4-5.3-9.38-.5-.74-1.01-1.46-1.55-2.17-.02-.02-.03-.04-.05-.06a.21.21 0 0 0-.04-.06 26.349 26.349 0 0 0-5.51-5.19c-2.08-1.46-4.36-2.63-6.66-3.7-1.46-.68-2.93-1.32-4.4-1.95-.06-.02-.11-.04-.17-.05l.58-4.6c.08-.14.12-.31.08-.46-.09-.31-.4-.46-.7-.4a50.302 50.302 0 0 1-19.14.13c-1.8-.34-3.57-.77-5.32-1.3h-.03a.53.53 0 0 0-.27-.08c-.34 0-.53.26-.57.57-.21 1.85-.56 3.68-1.03 5.48-5.93 2.29-12.14 4.74-16.72 9.3-2.47 2.46-4.15 5.46-5.33 8.73-1.12 3.1-1.93 6.33-2.79 9.52-1.74 6.47-3.34 12.98-4.77 19.53-1.5 6.83-2.83 13.69-3.89 20.6-.99 6.44-1.77 12.93-2.06 19.45-.03.74-.06 1.47-.08 2.21 0 .15.04.27.12.36l.06.06c.01.01.03.02.05.03.01 0 .02.01.03.02.02.01.05.03.08.04.02 0 .04.02.07.02a196.737 196.737 0 0 0 22.49 4.06c3.76.45 7.54.79 11.32 1.01 3.76.21 7.52.31 11.28.27 3.72-.04 7.43-.21 11.14-.51l1.4-.12c.3-.03.57-.24.57-.57 0-.27-.23-.55-.51-.56l2.58-31.07-2.63-14.14 8.52-5.89 25.61-.43s.03.09.05.14c.1.29.39.48.7.4.28-.08.5-.41.4-.7Z" class="cls-3"/><path d="M57.37 114.94c.69-.25 10.06-3.42 10.48-3.55s5.83-1.59 5.83-1.59l.51 8.8.49 4.08-.61 1.23-4.62 2.16-2.35 1.47-6.85 3.67-4.26 3.7-.39-8.24-1.95-8.73 3.7-3Z" class="cls-15"/><path id="Layer_7" d="M50.39 73.72s.36-4.89.28-6.84c-.08-1.94-.75-8.35-1.08-9.66-.33-1.31-1.19-3.54-1.19-3.54s-3.75.6-4.63-.77c-.89-1.37-1.63-2.98-1.14-3.81s.47-1.18 1.96-1.48 1.98-.3 1.98-.3 2.96-4.52 4.09-6.04 4.54-4.53 7.86-5.39 6.36-1.36 8.59-1 5.47 1.92 6.82 3.58c1.35 1.65 1.97 4.98 2.07 6.08.1 1.09.1 7.84-.23 9.55-.33 1.71-1.67 6.41-2.43 7.87-.76 1.46-1.98 3.23-2.34 3.56s-1.16 1.35-1.16 1.35l-.74 7.88s-7.7.51-9.93.32-7-.46-7.29-.64-1.5-.72-1.5-.72Z" class="cls-15"/><path d="M58.95 132.8c-.07-.2-2.87-16.64-2.87-16.64s10-4.12 11.49-4.54c1.49-.41 5-1.87 5-1.87s.69 8.79.93 9.99c.23 1.2.62 3.43.62 3.43s-5.61 3.23-7.76 4.64c-2.15 1.41-7.41 4.99-7.41 4.99ZM115.47 113.38c.5-.53 7.49-7.54 7.81-7.85s4.52-4.02 4.52-4.02l4.37 7.66 2.25 3.44v1.37l-4.51-.13-.11 6.48-4.51 6.33-.22-5.89h-5.29l-4.32-7.39Z" class="cls-15"/><path d="m147.89 113.48.52-3.31s1.48.03 2.07-.34.87-1.38.87-1.38l-.36-.84 2.35-.39-.21 6.76-5.24-.5Z" class="cls-4"/><path d="M133.97 112.28c-.2.25-.39.51-.58.76-.04.06-.06.13-.07.21a.45.45 0 0 0 .01.23c.02.07.05.14.1.19.04.06.09.11.16.15.13.07.29.1.44.06l.13-.06c.09-.05.15-.12.2-.2.14-.19.29-.39.44-.58l-.09.12s.04-.04.05-.07c.05-.05.09-.11.12-.18a.42.42 0 0 0 .05-.22.42.42 0 0 0-.05-.22.36.36 0 0 0-.12-.18.605.605 0 0 0-.4-.17l-.15.02c-.1.03-.18.08-.25.14ZM129.08 119.82c-1.41 2.2-3 4.27-4.37 6.5-.38.62.59 1.19.98.57 1.37-2.22 2.96-4.3 4.37-6.5.39-.61-.58-1.18-.98-.57Z" class="cls-16"/><path d="m147.86 110.09-.52 3.24c-.05.29.08.62.4.7.27.06.65-.08.7-.4l.52-3.24c.05-.29-.08-.62-.4-.7-.27-.06-.65.08-.7.4Z" class="cls-6"/><path d="M120.27 120.05c-2-3.03-4.03-6.04-6.09-9.03-.17-.25-.5-.36-.77-.2-.05.03-.09.07-.13.11a.7.7 0 0 0-.1.08c-1.21 1.5-2.4 3-3.57 4.52-.15.2-.08.49.08.66v4.5l9.75.06c.18.14.42.18.63.05.25-.15.37-.52.2-.77ZM127 130.97s.02-.04.02-.06c0-.02.01-.03.02-.05v-.03c.02-.1 0-.21-.03-.3v-.02c0-.02-.02-.04-.03-.05v-.01s-.01-.02-.02-.03c-.39-.62-.78-1.24-1.18-1.86-.16-.25-.51-.37-.77-.2s-.37.51-.2.77c.33.52.66 1.04.98 1.55l-.99 1.08c-.1.11-.17.25-.17.4 0 .14.06.3.17.4s.25.17.4.17.3-.05.4-.17c.43-.47.87-.94 1.29-1.42.04-.05.07-.1.1-.15v-.02Z" class="cls-3"/><path d="M122.41 157.35c.81 5.31 1.56 10.63 2 15.98.13 1.57.23 3.14.31 4.71.01.31.25.57.57.57.3 0 .58-.26.57-.57-.28-5.46-.89-10.9-1.66-16.31-.22-1.56-.46-3.12-.69-4.67-.05-.3-.43-.47-.7-.4-.32.09-.44.39-.4.7Z" class="cls-4"/><path d="M59.35 46.46c.81 0 .81-1.26 0-1.26s-.81 1.26 0 1.26ZM70.55 46.32h.13c.09 0 .17-.01.24-.05.08-.03.14-.07.2-.13s.1-.12.13-.2c.04-.08.06-.16.05-.24l-.02-.17a.606.606 0 0 0-.16-.28l-.13-.1c-.1-.06-.2-.09-.32-.09h-.13a.47.47 0 0 0-.24.05c-.08.03-.14.07-.2.13s-.1.12-.13.2c-.04.08-.06.16-.05.24l.02.17c.03.11.08.2.16.28l.13.1c.1.06.2.09.32.09ZM113.98 115.83c3.41-3.77 7.04-7.34 10.7-10.86 1.06-1.02 2.12-2.03 3.18-3.05.53-.5-.27-1.3-.8-.8-3.68 3.52-7.37 7.02-10.9 10.7-1.01 1.06-2.01 2.13-2.99 3.21-.49.54.31 1.34.8.8ZM53.67 117.93c4.7-2.16 9.53-4.05 14.37-5.88 1.4-.53 2.79-1.05 4.19-1.57.29-.11.48-.38.4-.7-.08-.27-.41-.5-.7-.4-4.97 1.85-9.93 3.71-14.81 5.78-1.35.57-2.69 1.16-4.02 1.78-.28.13-.35.53-.2.77.17.28.49.33.77.2Z" class="cls-16"/><path d="M98.06 104.77c-1.65 0-3.3.09-4.96.06-1.95-.03-3.65 1.01-5.42 1.66-.29.1-.48.38-.4.7.08.28.41.5.7.4 1.69-.62 3.35-1.66 5.21-1.61 1.62.04 3.25-.06 4.87-.06.73 0 .73-1.13 0-1.13ZM99.37 109.89c-.92-.35-1.87-.61-2.84-.8-.29-.05-.62.08-.7.4-.06.28.08.64.4.7.97.18 1.92.45 2.84.8.28.1.63-.12.7-.4.07-.32-.1-.58-.4-.7Z" class="cls-9"/><path d="m98.22 109.35-.05-.33a.435.435 0 0 0-.1-.19.463.463 0 0 0-.16-.15.476.476 0 0 0-.21-.07.45.45 0 0 0-.23.01l-.13.06c-.09.05-.15.12-.2.2l-.06.13c-.03.1-.03.2 0 .3l.05.33c.02.07.05.14.1.19.04.06.09.11.16.15.06.04.13.06.21.07.08.02.15.01.23-.01l.13-.06c.09-.05.15-.12.2-.2l.06-.13c.03-.1.03-.2 0-.3ZM143.89 106.91l.03-.09c.03-.07.04-.06.01-.03.08-.08.1-.11.17-.15.2-.13.39-.18.63-.24.55-.13 1.15-.11 1.73 0 1.13.19 2.36.45 3.33 1.09.37.25.91.67.95 1.16.01.13-.03.27-.14.41-.1.13-.28.26-.45.33-.56.22-1.24.09-1.81-.04-.64-.15-1.28-.34-1.9-.56-.65-.23-1.28-.53-1.85-.92-.22-.15-.43-.34-.57-.56 0-.01-.01-.03-.02-.04-.02-.05-.02-.05 0 .01-.01-.04-.03-.08-.04-.11-.01-.04-.03-.09-.04-.13 0-.01-.02-.16-.03-.1.04-.3-.08-.61-.4-.7-.27-.07-.65.09-.7.4-.23 1.57 1.44 2.47 2.66 2.99.74.31 1.51.55 2.28.75s1.69.38 2.52.17c.68-.17 1.29-.66 1.51-1.34.26-.77-.15-1.54-.69-2.08-1.03-1.04-2.54-1.44-3.94-1.72-.91-.18-1.82-.27-2.74-.06-.7.16-1.43.55-1.62 1.31-.18.71.92 1.01 1.09.3ZM158.72 93.85l.04-.02h-.57l-.03-.02-.14-.25c.17.42-.21.96-.49 1.23-.43.41-1 .66-1.54.89-1.14.5-2.37.9-3.63.75-.3-.04-.57.28-.57.57 0 .34.26.53.57.57 1.67.19 3.4-.47 4.86-1.21.7-.35 1.36-.85 1.71-1.58.17-.36.28-.75.25-1.15-.01-.25-.06-.49-.25-.67a.635.635 0 0 0-.77-.09c-.62.38-.05 1.36.57.98Z" class="cls-9"/><path d="M151.99 96.46c-1.21.57-2.41 1.15-3.6 1.75-.26.13-.36.53-.2.77.17.27.49.35.77.2 1.19-.6 2.39-1.18 3.6-1.75.27-.13.36-.53.2-.77-.18-.28-.49-.34-.77-.2Z" class="cls-9"/><path d="m148 98.35-1.42 1.94c-.43.58-.84 1.19-1.32 1.72-.95 1.05-2.22 1.46-3.55 1.84-.7.2-.4 1.29.3 1.09 1.47-.42 2.92-.91 3.98-2.07.54-.59 1-1.25 1.47-1.89l1.51-2.06c.18-.25.04-.63-.2-.77-.29-.17-.59-.04-.77.2Z" class="cls-9"/><path d="M76.14 41.11c-.06-.34-.47-.52-.77-.44-.35.1-.5.44-.44.77.9 5.04.95 10.26-.34 15.24-.62 2.39-1.5 4.84-2.85 6.93-.59.91-1.32 1.75-2.23 2.34-.85.55-1.85.89-2.82 1.02-2.44.32-4.97-.36-7.19-1.35-.31-.14-.67-.09-.86.23-.16.27-.09.72.23.86 2.18.96 4.55 1.66 6.95 1.59 1.16-.04 2.29-.27 3.35-.74-.23 2.94-.42 5.88-.57 8.82-.02.34.3.63.63.63.35 0 .61-.29.63-.63.16-3.17.37-6.33.62-9.5v-.07c.59-.42 1.11-.92 1.56-1.48.8-.98 1.41-2.08 1.94-3.22.57-1.24 1.07-2.52 1.47-3.82.79-2.58 1.23-5.26 1.36-7.96.15-3.09-.12-6.18-.66-9.22ZM51.27 65.88c-.1-2.86-.39-5.73-1-8.52-.27-1.23-.6-2.46-1.08-3.63a.813.813 0 0 0-.21-.3c-.13-.29-.43-.4-.74-.35-.81.14-1.66.24-2.48.14-.78-.09-1.29-.39-1.73-.98-.44-.58-.77-1.23-.88-1.94-.04-.29-.02-.65.08-.96.09-.3.24-.56.49-.76.64-.52 1.67-.35 2.46-.18.33.07.68-.1.77-.44.09-.31-.11-.7-.44-.77-1.05-.23-2.21-.37-3.2.16-.92.49-1.4 1.51-1.44 2.53-.04.94.35 1.9.85 2.69.53.84 1.23 1.51 2.21 1.77.21.06.42.09.63.12 0 .05.01.09.03.14.03.11.06.23.09.36-3.34-.19-6.67.8-9.36 2.81-.13.1-.21.23-.24.36-.16.13-.25.34-.15.61 1.28 3.42 3.25 6.5 5.84 9.08.21.21.46.22.66.13.17.03.36 0 .53-.15 2.72-2.32 4.48-5.56 4.99-9.06.42.68.78 1.4 1.05 2.15l.46 2.13c0 .05 0 .1.01.16 0 .11.04.2.08.28l.03.12c.05.21.18.32.33.36.14 2 .18 4.01.11 6.01-.06 1.73-.19 3.45-.42 5.16-.04.34.32.63.63.63.38 0 .58-.29.63-.63.4-3.05.52-6.15.41-9.22ZM50.12 46.49c0-1.17-.06-2.34-.1-3.5-.02-.77-1.16-.81-1.25-.11-.56 1-1.17 2.19-1.21 3.37-.49-.19-1.14.33-.78.89.48.74 1.97 3.16 2.92 1.66.41-.64.42-1.57.41-2.3Z" class="cls-16"/><path d="M67.82 49.28c.2.81.54 1.58 1.01 2.26.19.28.43.57.52.91.07.24 0 .39-.18.53-.27.22-.62.37-.93.53-.36.18-.72.34-1.11.44-.32.09-.66.14-.99.07-.41-.08-.75-.33-1.16-.4-.45-.08-.93 0-1.37-.08-.14-.03-.26-.07-.35-.15 0 0-.03-.05-.04-.1v.04c0 .03.04-.07.01-.03.41-.7-.68-1.33-1.09-.63-.26.45-.21 1 .08 1.42.34.47.87.65 1.43.71.46.05.93-.05 1.37.14.51.21.97.39 1.53.37 1.02-.03 1.99-.51 2.87-.99.39-.22.79-.5 1.01-.9.27-.49.25-1.06.03-1.56-.21-.51-.57-.92-.84-1.39s-.47-.98-.59-1.51c-.19-.79-1.4-.45-1.21.34Z" class="cls-16"/><path d="M66.13 57.41c-.25-.25-.63-.23-.89 0-.5.44-1.26.66-1.87.55-.39-.07-.62-.17-.94-.38-.12-.08-.21-.15-.34-.29-.16-.16-.2-.21-.32-.41a.645.645 0 0 0-.86-.23c-.09.05-.17.13-.22.22-.09.08-.16.18-.19.3-.37 1.52.32 3.52 2.07 3.73.77.09 1.51-.21 2.11-.68.59-.47 1.01-1.12 1.41-1.76.04-.07.07-.14.08-.22.2-.23.17-.62-.05-.84Z" style="fill:#a08675"/><path d="M162.11 97.34c-.46-.53-1.06-.87-1.69-1.13-.68-.27-1.39-.39-2.12-.47-.24-.02-.47-.06-.71-.09.19-.26.48-.65.65-.93.16-.25.25-.62.13-1 .44-.07.7-.75.21-1.05-1.31-.8-2.94-.5-4.39-.58-1.57-.09-3.13-.35-4.71-.36h-.03c-1.49 0-2.98 0-4.47.06-1.49.06-2.9.15-4.3.45-.55.12-1.09.31-1.64.45-.3.08-.61.14-.9.23-.48.14-.94.33-1.4.52-.78.32-1.54.66-2.26 1.11-1.5.93-2.77 2.15-4.06 3.35-.84.81-1.68 1.62-2.53 2.43-.1-.2-.2-.41-.3-.61-.13-.27-.52-.35-.77-.2-.28.16-.34.5-.2.77 1.78 3.67 3.76 7.23 6.02 10.63.67 1.01 1.36 2 2.06 2.99.18.25.49.37.77.2.25-.14.38-.52.2-.77-.17-.24-.35-.49-.52-.74.63-.79 1.29-1.55 1.95-2.32.55.4 1.16.7 1.82.91 1.13.36 2.34.45 3.52.48.77.01 1.55-.13 2.3-.26.96-.17 1.91-.35 2.87-.53.49-.09.99-.18 1.49-.25.04 0 .07-.01.1-.01h.02-.02c.03 0 .06 0 .1-.01l.28-.03c.16-.02.33-.03.49-.03.53 0 .67-.61.43-.93.29-.16.55-.37.76-.69.24-.36.01-.88-.27-1.31.77.19 1.57.32 2.35.16.74-.15 1.44-.68 1.65-1.42.18-.6-.03-1.19-.37-1.68.62.12 1.26.18 1.89.05.74-.15 1.44-.68 1.65-1.42.25-.85-.25-1.66-.84-2.22-.29-.27-.6-.51-.94-.71.78.13 1.56.2 2.34.21.77 0 1.54-.05 2.3-.19.66-.12 1.37-.39 1.63-1.06.26-.68-.08-1.45-.54-1.99Z" class="cls-9"/><path d="M136.16 161.2c-.03-2.24.23-14.71.49-18.23.26-3.52.49-29.12.49-29.12h-.23c.07-.32-.11-.7-.53-.7h-6.47c-.37 0-.55.29-.54.58 0 .04-.01.08-.01.12l-.48 22.49c-.16 7.47-.37 14.94-.48 22.42-.06 4.12 0 8.26.66 12.34.04.27.34.43.6.41H136.18c.36 0 .55-.28.55-.57h.11s-.63-7.5-.65-9.75ZM80.18 140.66c-.95-4.93-1.69-9.89-2.21-14.88-.15-1.43-.28-2.86-.4-4.29-.03-.3-.24-.57-.57-.57-.29 0-.59.26-.57.57 0 .11.02.22.03.32l-7 4.25c-.06-.26-.25-.47-.55-.47s-.6.26-.57.57a172.723 172.723 0 0 0 2.19 14.66c-.02.06-.04.12-.04.18l-1 14.35-1 14.3-.57 8.1c0 .14.05.26.13.36.08.17.24.3.49.3 2.82 0 5.63-.09 8.45-.09.04 0 .08 0 .12-.01.14-.03.25-.1.32-.2s.12-.22.13-.35c.33-4.78.67-9.57 1.01-14.35.34-4.77.67-9.53 1.01-14.3l.57-8.1a.69.69 0 0 0 .03-.35Z" class="cls-12"/><path d="M186.21 156.11c-.2-4.91-.38-9.82-.6-14.72-.12-2.74-.26-5.47-.41-8.21.02-.06.03-.11.04-.18.34-4.96.78-9.91 1.32-14.85.15-1.38.31-2.75.47-4.13.2-.33.05-.89-.46-.89-2.67 0-5.34 0-8.02.01-3.22 0-6.43.02-9.65.03-3.49.01-6.98.03-10.47.04-3.51.01-7.01.03-10.52.04-3.22 0-6.45.01-9.67.02h-1.06s-.1 0-.14.01c-.02 0-.04 0-.05.01-.02 0-.04.01-.05.02-.01 0-.03.01-.04.02a.52.52 0 0 0-.31.49l-.48 22.44c-.16 7.46-.36 14.93-.48 22.39-.06 4.16 0 8.32.66 12.43.05.3.43.47.7.4h.01c.05.01.1.03.16.03h49.19c.19 0 .33-.08.42-.19.09-.1.15-.23.14-.37-.28-4.94-.49-9.89-.69-14.83ZM125.22 177.38l-2.2-19.62c.3-.03.47-.28.5-.56.57-4.72 1.03-9.45 1.37-14.2.34-4.73.56-9.46.67-14.19.06-2.66.09-5.32.08-7.98.06-.32-.11-.69-.53-.69h-15.42c.01-.9.03-2.76-.05-4.72-.11-2.75-1.01-5.66-2.13-8.1-.89-1.95-3.12-3.25-4.29-4.29s-4.35-.4-4.35-.4l-1.52 2.3h.15c0 .07 0 .13.01.19.09.32.39.44.7.4 1.17-.19 2.37.28 3.28 1 1.02.81 1.7 1.95 2.11 3.18.79 2.33.81 4.88.87 7.32.02 1.04.04 2.08.03 3.13H92.29c-.56 0-.69.67-.39.98-.47.19-1 .39-1.34.51-.74.26-6.4 1.69-7.51 1.69s-4.77-2.29-4.77-2.29l-1.29.46 2.63 19.32-2.59 36.38h-.04c-.73 0-.73 1.13 0 1.13 3.15 0 6.3 0 9.44.02 3.42.01 6.85.03 10.27.04 3.42.02 6.89.04 10.33.05 3.15.02 6.3.03 9.45.05 2.6.01 5.2.02 7.81.02h.8c.69 0 .73-1.01.11-1.12Z" class="cls-6"/><path d="M73.47 122.75c-4.63 2.63-9.03 5.65-13.4 8.69l-3.86 2.69c-.25.17-.36.5-.2.77.14.25.52.38.77.2 4.43-3.06 8.81-6.21 13.38-9.06 1.28-.8 2.57-1.57 3.88-2.32.63-.36.06-1.34-.57-.98Z" class="cls-16"/><path d="M102.7 106.87c-.15-.68-.61-1.25-1.17-1.64-.65-.44-1.49-.56-2.26-.56-.4 0-.8.04-1.2.09-.16.02-.3.08-.4.18-.2-.02-.32-.03-.32-.03l.65-2h.18c.31.02.57-.27.57-.57 0-.32-.26-.55-.57-.57-.85-.05-1.7-.05-2.56-.09-.94-.04-1.88-.13-2.82-.02-1.48.16-2.93.76-4.42.77-.03 0-.06-.02-.09-.02-1.9-.22-3.64.48-5.24 1.44-.78.47-1.57.95-2.33 1.46-.57.39-1.11.81-1.69 1.19-.71.47-1.47.79-2.27 1.06h-.01c-1.27.48-2.53.97-3.79 1.45 0-.2-.02-.4-.03-.59-.03-.72-1.16-.73-1.13 0 .18 4.13.59 8.24 1.33 12.31.22 1.2.46 2.4.71 3.59.06.3.41.47.7.4.31-.09.46-.4.4-.7l-.15-.73c1.13-.63 2.26-1.23 3.42-1.8.02-.01.05-.03.07-.05.88.41 1.65 1.05 2.47 1.55.55.34 1.15.63 1.79.77.8.17 1.64.12 2.44-.01.81-.13 1.66-.37 2.48-.59s1.6-.48 2.4-.75c.7-.24 1.44-.38 2.09-.75.61-.34 1.11-.85 1.38-1.5.13-.32.16-.67.31-.98.11-.23.27-.28.49-.35.6-.17 1.24-.2 1.72-.65s.56-1.16.6-1.81c.04-.54.08-.94.65-1.18.32-.13.65-.22.97-.37s.61-.36.86-.6c.49-.47.86-1.11.99-1.78.07-.36.09-.71.04-1.07-.02-.21-.06-.42-.05-.63 0-.07 0-.13.03-.19 0-.03.02-.05.03-.08v-.02c.1-.2.17-.28.37-.44-.01.01.09-.06.11-.08.05-.03.1-.06.15-.1.11-.07.22-.14.34-.2.46-.27.95-.53 1.31-.94.45-.52.63-1.18.48-1.85Z" class="cls-9"/><path d="M181.14 163.08c.24-5.59.42-12.76.04-16.97-.02-.23-.06-.32-.06-.32a.71.71 0 0 0-1.07-.32s-.08.05-.21.18c0 0-4.42 4.51-5.35 17.91 0 0-.02.19.03.36.08.28.29.5.66.56l2.3.32c.2.03.36.18.36.39 0 0-.1 2.26-.54 6.28v.04h3.42c.03-.42.25-3.97.44-8.43ZM158.91 171.06c-.79-3.41-1.42-16.58-1.45-17.17-.05-.47-.39-.85-.83-.97l-3.34-.64c-.5-.13-.87-.58-.87-1.11 0-.18.04-.34.11-.49.25-.64 6.63-12.27 18.22-19.43.48-.32 1.05-.5 1.66-.5.62 0 1.18.18 1.66.5 2.51 1.55 4.77 3.31 6.78 5.12s.02.01.03.01c.02 0 .04-.02.04-.04v-1.17c0-.39.32-.71.71-.71h.09l3.36.41c.07 0 .14.03.21.05l-.09-1.73c.02-.06.03-.11.04-.18.34-4.96.78-9.91 1.32-14.85.15-1.38.31-2.75.47-4.13.2-.33.05-.89-.46-.89-2.67 0-5.34 0-8.02.01-3.22 0-6.43.02-9.65.03-3.49.01-6.98.03-10.47.04-3.51.01-7.01.03-10.52.04-3.22 0-6.45.01-9.67.02h-1.06s-.1 0-.14.01c-.02 0-.04 0-.05.01-.02 0-.04.01-.05.02-.01 0-.03.01-.04.02a.52.52 0 0 0-.31.49l-.48 22.44c-.16 7.46-.36 14.93-.48 22.39-.06 4.16 0 8.32.66 12.43.05.3.43.47.7.4h.01c.05.01.1.03.16.03h22.01c-.11-.13-.19-.28-.24-.45Z" class="cls-1"/><path d="M169.33 168.52c-.31-3.35-.22-4.05-.22-4.05.01-.22.13-.41.3-.52a3.61 3.61 0 0 0 1.56-2.97v-.15c-.17-4.51-.25-9.64 0-13.7v-.05c0-.37-.31-.67-.68-.66-.35 0-.64.28-.66.63-.17 2.78-.18 6.07-.13 9.33 0 .44-.34.8-.78.8a.8.8 0 0 1-.81-.78c-.06-3.23-.04-6.5.12-9.27v-.05c0-.37-.31-.67-.68-.66-.35 0-.64.28-.66.63-.17 2.79-.18 6.1-.13 9.37a.794.794 0 1 1-1.59.03c-.06-3.25-.05-6.54.12-9.32v-.05c0-.37-.31-.67-.68-.66-.35 0-.64.28-.66.63-.25 4.18-.16 9.51.01 14.13.06 1.24.75 2.31 1.75 2.91.19.12.33.33.34.57 0 .07 0 .16.01.23.14 2.77.31 5.4.38 6.55s0 .06 0 .09h3.41s0-.03-.01-.05c-.05-.46-.16-1.47-.3-2.94Z" class="cls-1"/><path d="M177.83 165.2c0-.2-.16-.36-.36-.39l-2.3-.32c-.36-.06-.58-.29-.66-.56-.05-.17-.03-.36-.03-.36.93-13.4 5.35-17.91 5.35-17.91.13-.13.21-.18.21-.18a.71.71 0 0 1 1.07.32s.04.09.06.32c.38 4.21.19 11.38-.04 16.97-.19 4.46-.41 8.01-.44 8.43h5.64c.19 0 .33-.08.42-.19.09-.1.15-.23.14-.37-.28-4.94-.49-9.89-.69-14.83-.2-4.91-.38-9.82-.6-14.72-.1-2.16-.21-4.32-.32-6.48-.07-.02-.14-.04-.21-.05l-3.36-.41h-.09c-.39 0-.71.32-.71.71v1.17s-.02.04-.04.04c-.01 0-.02 0-.03-.01a47.93 47.93 0 0 0-6.78-5.12c-.48-.32-1.05-.5-1.66-.5-.62 0-1.18.18-1.66.5-11.59 7.16-17.97 18.79-18.22 19.43a1.138 1.138 0 0 0 .76 1.6l3.34.64c.45.12.78.51.83.97.03.59.66 13.76 1.45 17.17.04.17.13.32.24.45h7.08v-.08c-.08-1.16-.25-3.79-.38-6.56 0-.07 0-.16-.01-.23a.696.696 0 0 0-.34-.57c-1-.6-1.69-1.67-1.75-2.91-.18-4.62-.26-9.95-.01-14.13a.67.67 0 0 1 1.34.03v.05c-.17 2.78-.18 6.07-.12 9.32 0 .44.37.79.81.78s.79-.37.78-.81c-.06-3.27-.04-6.58.13-9.37a.67.67 0 0 1 1.34.03v.05c-.16 2.77-.18 6.04-.12 9.27 0 .44.37.79.81.78.44 0 .79-.37.78-.8-.06-3.25-.04-6.55.13-9.33a.67.67 0 0 1 1.34.03v.05c-.24 4.06-.16 9.2 0 13.7V160.97c0 1.23-.62 2.32-1.56 2.97-.17.12-.28.3-.3.52 0 0-.08.69.22 4.05.14 1.46.25 2.48.3 2.94 0 .02 0 .03.01.05h7.64v-.04c.44-4.02.54-6.28.54-6.28h-.01Z" class="cls-4"/><path d="M109.16 171.65c.01-.22.13-.41.3-.53a3.66 3.66 0 0 0 1.58-3.03v-.16c-.19-4.58-.29-9.8-.06-13.93v-.05c0-.38-.32-.68-.7-.67a.68.68 0 0 0-.67.65c-.16 2.83-.16 6.18-.09 9.48 0 .44-.35.81-.79.82s-.81-.34-.82-.79c-.07-3.28-.07-6.61.08-9.43v-.05c0-.38-.32-.68-.7-.67a.68.68 0 0 0-.67.65c-.16 2.84-.16 6.21-.09 9.53.01.45-.34.81-.79.83s-.81-.34-.83-.79c-.08-3.3-.07-6.64.08-9.48v-.05c0-.38-.32-.68-.7-.67a.68.68 0 0 0-.67.65c-.24 4.25-.13 9.67.07 14.36.07 1.26.77 2.34 1.79 2.95.2.12.33.33.35.58 0 .07.01.16.01.23.14 2.63.31 5.13.4 6.4h3.43c-.06-.54-.16-1.47-.29-2.71-.32-3.41-.24-4.11-.24-4.11Z" class="cls-1"/><path d="M98.82 178.38c-.82-3.47-1.51-16.85-1.55-17.45-.05-.48-.4-.87-.85-.99l-3.4-.64a1.16 1.16 0 0 1-.88-1.13c0-.18.04-.35.11-.5.25-.65 6.68-12.5 18.44-19.83.48-.33 1.06-.52 1.69-.52.63 0 1.2.18 1.69.5 2.56 1.56 4.86 3.34 6.92 5.17s.02.01.03.01c.02 0 .04-.02.04-.04v-1.19c0-.4.32-.72.71-.72h.09l3.15.37c.23-3.55.39-6.2.39-6.2-4.19-.73-33.74 1.53-35.95 6.22-2.21 4.7-10.84 37.05-10.84 37.05l15.71-.06h4.52c0-.02-.02-.05-.03-.07ZM121.36 152.93c-.02-.23-.06-.33-.06-.33a.705.705 0 0 0-.67-.45c-.16 0-.3.05-.42.14 0 0-.09.05-.22.19 0 0-4.47 4.61-5.37 18.23 0 0-.02.19.03.36.08.28.3.51.67.57l2.34.31c.21.03.36.18.37.39 0 0-.09 2.21-.5 6.15 1.35 0 2.53.01 3.46.02.06-.96.24-4.28.4-8.33.22-5.68.38-12.97-.03-17.25Z" class="cls-1"/><path d="M121.78 141.07c-.4 0-.72.33-.72.72v1.19s-.01.04-.04.04c-.01 0-.02 0-.03-.01-2.05-1.83-4.36-3.61-6.92-5.17-.49-.32-1.06-.51-1.69-.5-.63 0-1.2.19-1.69.52-11.75 7.32-18.19 19.17-18.44 19.83a1.17 1.17 0 0 0 .77 1.63l3.4.64c.45.12.8.51.85.99.03.6.72 13.98 1.55 17.45 0 .03.02.05.03.07 2.08 0 4.68 0 7.41.01-.09-1.27-.26-3.77-.4-6.4 0-.07-.01-.16-.01-.23a.709.709 0 0 0-.35-.58 3.668 3.668 0 0 1-1.79-2.95c-.2-4.69-.31-10.12-.07-14.36.02-.35.31-.64.67-.65.38 0 .69.29.7.67v.05c-.16 2.83-.16 6.18-.08 9.48.01.45.38.8.83.79s.8-.38.79-.83c-.08-3.32-.07-6.69.09-9.53.02-.35.31-.64.67-.65.38 0 .69.29.7.67v.05c-.16 2.82-.16 6.14-.08 9.42a.805.805 0 1 0 1.61-.03c-.07-3.31-.07-6.66.09-9.48.02-.35.31-.64.67-.65.38 0 .69.29.7.67v.05c-.23 4.13-.13 9.35.06 13.93V168.08c0 1.25-.62 2.36-1.58 3.03-.17.12-.28.31-.3.53 0 0-.08.7.24 4.11.13 1.25.23 2.17.29 2.71 2.81 0 5.56.01 7.85.02.41-3.94.5-6.15.5-6.15 0-.21-.16-.36-.37-.39l-2.34-.31c-.37-.06-.59-.29-.67-.57-.05-.17-.03-.36-.03-.36.89-13.62 5.37-18.23 5.37-18.23.13-.14.22-.19.22-.19.12-.09.26-.14.42-.14.3 0 .57.19.67.45 0 0 .04.09.06.33.4 4.28.25 11.57.03 17.25-.16 4.06-.34 7.38-.4 8.33 1.2 0 1.99.02 2.16.03 1.42.08 2.74.28 2.78-.29.12-1.7-2.21-20.68-2.16-21.05.42-3.6.92-10.62 1.26-15.76l-3.15-.37h-.09Z" class="cls-4"/><path d="M171.45 102.71c-.69-1.46-1.6-2.83-2.73-3.98-1.2-1.22-2.65-2.12-4.24-2.75-1.81-.72-3.73-1.08-5.64-1.43-.33-.06-.68.09-.77.44-.06.21.01.47.17.63-.06.06-.12.11-.19.17-.04.03-.18.13-.02.02l-.12.09c-.08.06-.17.11-.25.17-.16.1-.32.18-.49.26-.04.02-.08.03-.13.05-.16.06-.29.14-.37.29a.62.62 0 0 0-.08.24v.02c-.08.3.1.72.44.77 1.66.25 3.39.58 4.9 1.33.05.07.11.12.19.16.52.25.99.56 1.41.91.07.07.15.13.22.2.02.02.05.04.07.06 2.29 2.12 3.02 5.61 3.09 8.65.03 1.28-.03 2.56-.09 3.84-.02.34.3.63.63.63.04 0 .07 0 .11-.01v.26l5.06.13c.11.16.29.27.51.27.32 0 .65-.29.63-.63-.27-3.67-.7-7.41-2.28-10.78ZM153.99 104.4s-.09-.04-.14-.05c-.63-.13-1.26-.31-1.87-.53-.15-.05-.29-.11-.44-.17-.17-.07-.17-.07-.34-.15-.3-.13-.58-.27-.87-.43a.538.538 0 0 0-.2-.1c-.35-.1-.65.12-.77.44a29.183 29.183 0 0 0-1.9 9.46c-.03.72.98.8 1.21.22.06.3.41.48.69.44.16-.02.29-.1.39-.21.13.13.3.2.51.17.05 0 .1-.02.14-.04.08.27.41.44.67.4.27-.04.44-.21.51-.45.07.28.28.51.61.51.21 0 .39-.1.5-.26.26.44 1.08.35 1.05-.27-.05-1.42-.04-2.84.04-4.25.01-.04.02-.09.02-.13.12-1.31.3-2.55.55-3.86.05-.29-.06-.62-.35-.74ZM109.57 111.05c-.35-1.5-.87-2.96-1.71-4.25-.93-1.42-2.17-2.64-3.63-3.52-1.6-.96-3.5-1.47-5.37-1.24-.03 0-.05 0-.07.01-1.5.12-2.9.7-4.07 1.65-.26.21-.23.67 0 .89.15.14.33.19.5.17.07.03.14.04.21.04l4.28-.19c.28-.01.53-.19.61-.46.08-.29-.06-.54-.29-.71-.16-.12-.33-.21-.52-.29l.03-.03c2.84-.07 5.49 1.63 7.12 3.92 1.75 2.47 2.22 5.62 2.43 8.58a39 39 0 0 1 .03 5.07c-.02.31.27.57.57.57.32 0 .55-.26.57-.57.2-3.21.05-6.52-.67-9.65Z" class="cls-6"/><path d="M87.15 100.48c.06.06.18-.01.21-.08-.03-.02-.21.06-.21.08ZM87.11 100.38c.08.09.12-.16.02-.09-.02.04-.03.06-.02.09ZM88.28 100.28ZM88.3 100.37s.12.09.12.04c-.1-.05-.16-.21-.12-.04ZM87.09 101.61c.07-.02.02-.1-.02-.12-.1.03-.09.12.02.12ZM87.16 100.97s-.06-.05-.1-.04c.02.04.08.07.1.04ZM87.31 99s-.09.05-.04.06c0 0 .04-.05.04-.06ZM87.96 98.96s0-.04-.03-.04c-.02.03 0 .04.03.04ZM88.61 101.03c.08-.01-.1-.05-.11-.02 0 0 .1.02.11.02ZM87.86 99.06ZM87.88 99.08s.03-.02.03-.03c-.02-.03-.07 0-.03.03ZM87.1 102.2c-.13.04.04.02.07.02.22-.06.04-.03-.07-.02ZM87.3 102.18ZM87.86 99.24s.01.04.06.04c-.01-.02.03-.06-.06-.04ZM88.28 102.1c-.07.02-.17 0-.15.07.08-.03.21-.03.15-.07ZM87.03 101.98c.15-.02-.02-.02-.05-.03-.06.02.03.02.05.03ZM87.25 99.3l-.05-.01c-.03.04.03.04.05.01ZM87.31 102.2c-.13.02-.06.03.05.05.07-.04 0-.04-.05-.05ZM87.25 99.84s-.06 0-.08.01c.02.01.05 0 .08-.01ZM86.95 102.01s-.07 0-.04.03c.03 0 .06 0 .04-.03ZM88.28 99.77s-.06-.02-.06 0c0 0 .06.02.06 0ZM88.04 99.64s.05.02.05.01c.02-.03-.03-.03-.05-.01ZM87.18 101.52s-.04 0-.02.01c0 0 .03-.01.02-.01ZM88.41 100.51l.05-.02s-.11 0-.05.02ZM88.31 100.6s.02-.02.02-.03c-.02-.01-.09.02-.02.03ZM87.13 102.17s-.15 0-.18.02c.04 0 .15.01.18-.02ZM88.18 100.79c.05-.04-.05 0-.06-.01l.06.01ZM87.13 101.84s-.14 0-.18.01c.04.04.17 0 .18-.01ZM87.13 101.84ZM87.17 101.25h-.05c0 .02.05 0 .05 0ZM87.08 100.57ZM87.08 100.57s0-.03-.01-.03c0 0 0 .02.01.03ZM87.85 98.82s-.01-.01-.02 0c0 0 .02.03.02 0ZM88.75 101.73ZM88.11 100.35h.1c0-.06-.09 0-.1 0Z" class="cls-8"/><path d="M88.94 101.94c-.05-.3-.73-.09-.2-.22-.38-.04.19-.07.04-.09-.6.05.12-.2-.1-.22-.27.11-.05 0-.13-.03-.14 0-.04-.08-.03-.14-.08-.13-.3.26-.26.01-.08-.08 0-.07.12-.07.38-.1-.36-.14-.36-.26.53.16.02-.08.26-.07.14.08.1-.28-.01-.17-.29.44 0-.26-.17-.35.05-.1.32-.06 0-.1.38-.02-.21-.25-.02-.55-.07-.16-.37-.61-.26-.94-.43-.94-.77 1.16-.43.63.06.25-.27.29-.11.43-.28.18.47.92-.21.75-.06.13.1.22.28.22-.37-.03.11.41-.13.34-.29-.2-.03.18.07.06.36-.08-.15.08-.2.19.33-.16.22 0-.04.06.28-.07.1.16.23.21-.44.04-.28.09 0 .27-.21.06-.04.12.01 0-.2.5.94.2 1.64.01Zm-.54-.81-.07.02s.03-.02.07-.02Zm-1.06-1.86s-.01-.04 0-.06c.01.02.04.05 0 .06Zm-.11 1.45c-.12-.04-.07-.03 0-.06.06.01.05.02 0 .06Zm.43-2.12s.05-.02.06.04c-.03.02-.12-.01-.06-.04Zm-.15-.01s.03.01 0 .01c0 0-.03-.02 0-.01Zm-.04.04s.04.02.06.04c-.03 0-.13-.03-.06-.04Zm-.08.21s.08-.05.12-.01c-.05.01-.08.04-.12.01Zm.04 1.1-.07-.04c.01-.06.15.02.07.04Zm-.06.72c.02-.06.16.06.19.07-.06.05-.14-.04-.19-.07Zm.09 1.19c-.44.11-.09-.19-.03-.07 0 .03-.12.06.03.07Zm.1-.96s-.09 0-.12-.02c0-.04.13-.02.12.02Zm0-2.01s.02-.1.07-.04c.04.03-.11.09-.07.04Zm.08.75s-.04-.03-.05-.06c.04 0 .09.03.05.06Zm0 1.71s-.06-.03-.05-.03c.04-.06.15 0 .05.03Zm.04-2.31c-.09-.02.02.14-.06.07-.08-.09.13-.13.06-.07Zm.06-.28v.06-.06Zm.3 2.29c.05.03.03.09 0 .12-.07-.04-.07-.07 0-.12Zm.09-.58s-.05.08-.06.09c-.07-.03-.04-.1.06-.09Zm-.09-.47s-.1.03-.1 0c.01-.02.08-.03.1 0Zm-.11-.18s.05.04.05.08c-.03.01-.12-.06-.05-.08Zm-.05.9s-.08-.02-.05-.05c.04.01.12 0 .05.05Zm-.02-.54c-.09 0 0-.02.04-.03.08 0 0 .02-.04.03Zm.19 1.57-.08-.02s.22-.03.08.02Zm.03-.34c-.09 0 .03-.06.06-.05-.02.01-.04.03-.06.05Zm.21.18c.02-.06.04-.15.13-.12.24.06-.09.1-.13.12Zm.13.11s.11-.02.14-.01h-.14Zm.18.25c-.07-.14.15-.11.2-.03l-.2.03Z" class="cls-8"/><path d="M87.43 102.17s.1.01.08 0h-.08ZM87.31 98.74ZM87.87 99.01s-.01-.01-.02 0h.02ZM87.94 99.35s.01.02.02.03c.05-.01-.02-.05-.02-.03ZM88.04 99.51s0-.05-.04-.02l.04.02ZM87.24 99.62s-.01 0 0 .01c.01 0 .02 0 0-.01ZM88.63 101.56s0-.02-.03 0h.03ZM87.19 100.18l.03-.02s-.08 0-.03.02ZM87.18 100.15ZM87.17 102.09c.1-.08-.09-.05-.11 0h.11ZM87.39 98.58s-.05.02-.04.04c.03.02.07-.03.04-.04Z" class="cls-8"/><path d="M48.12 39.35c-.46-.24-.9.8-.42.43-.31.88.68-.65.42-.43Z" class="cls-4"/><path d="M77.35 50.17v-.01c-.26-.26-.62-.21-.89 0-.67.54-1.53.89-2.38 1.01-.98.14-1.9-.08-2.82-.42-.49-.18-.98-.39-1.48-.55a8.53 8.53 0 0 0-1.67-.34c-1.12-.12-2.25 0-3.35.21-2.11.41-4.11 1.43-6.28 1.55-1.99.11-4.09-.42-5.81-1.27-1.86-.92-3.55-2.12-5.31-3.2-.69-.43-1.32.66-.63 1.09 1.62.99 3.17 2.08 4.85 2.97.35.18.71.36 1.07.52 0 3.06.2 6.1.7 9.12.03.21.07.41.11.62a32.35 32.35 0 0 1-3.51-5.21c-.18-.34-.36-.68-.53-1.02-.15-.31-.58-.39-.86-.23-.31.18-.37.55-.23.86 1.38 2.83 3.25 5.49 5.39 7.8 1.94 2.1 4.3 4.02 7.09 4.82 2.59.75 5.54.71 8.09-.17 1.37-.47 2.64-1.18 3.72-2.15 1.19-1.07 1.98-2.44 2.57-3.92.65-1.61 1.14-3.29 1.55-4.98.42-1.72.72-3.48.84-5.25.03-.45.05-.89.05-1.34 0-.25-.12-.43-.29-.52Zm-16.79 2.77c-.04-.09-.02-.05 0 0Z" style="fill:#bbdbdf"/><g id="Layer_12"><path d="M143.96 49.19c-.09-5.29-.26-10.58-.52-15.87-.05-1.07 0-2.25-.35-3.28-.16-.46-.4-.9-.78-1.21-.49-.4-1.09-.54-1.71-.52-1.89.06-4.52.7-4.49 3.05.01.64.15 1.29.25 1.92.1.65.19 1.3.29 1.95.2 1.32.4 2.63.61 3.95.41 2.6.83 5.19 1.26 7.78.43 2.59.88 5.18 1.34 7.77.23 1.29.47 2.59.7 3.88l.36 1.94c.11.57.16 1.19.42 1.72.25.51.73.82 1.29.72.3.06.65-.05.88-.28.43-.42.49-.94.49-1.51.01-1.34.02-2.68.02-4.02 0-2.66-.02-5.33-.06-7.99ZM178.43 43.31c-.3-.53-.87-.88-1.35-1.23-.54-.39-1.08-.75-1.64-1.1-.56-.35-1.14-.76-1.77-.96-.7-.22-1.35.02-1.86.51-.86.82-1.5 1.91-2.02 2.97-.57 1.16-1.04 2.37-1.54 3.56-2.17 5.14-4.34 10.28-6.5 15.41l-.09.22c-.23.47-.48.93-.66 1.42-.19.52-.24 1.15.11 1.61.42.56 1.13.6 1.72.29.54-.29.91-.81 1.28-1.29.42-.52.83-1.04 1.24-1.56 1.67-2.12 3.31-4.27 4.91-6.45 1.58-2.15 3.13-4.32 4.63-6.52.75-1.1 1.5-2.2 2.24-3.31.37-.55.74-1.1 1.09-1.66.37-.58.56-1.26.2-1.9ZM124.46 65.17c-.23-.47-.55-.9-.83-1.34-.3-.47-.61-.94-.91-1.41-.62-.96-1.24-1.91-1.86-2.86-1.23-1.89-2.47-3.78-3.74-5.65-1.26-1.87-2.54-3.74-3.85-5.57-.32-.46-.65-.91-.98-1.37-.29-.4-.57-.84-.95-1.17-.37-.33-.84-.58-1.35-.54-.58.05-1.01.42-1.43.79-.72.63-1.42 1.34-1.72 2.27-.31.96-.08 1.97.39 2.84.48.88 1.19 1.62 1.89 2.32l2.48 2.46c2.87 2.84 5.73 5.69 8.6 8.53.35.39.71.79 1.07 1.18.31.34.63.67.95.99.15.15.29.3.44.44.22.21.44.49.76.49.53.01.97-.4 1.16-.86.21-.51.11-1.05-.12-1.54Z" class="cls-11"/><path d="M143.48 28.06c-.84-.93-2.85-1.67-4.62-1.23-1.77.44-3.54 2.07-3.54 2.07l.32 4.61c.18-.11.47-.23.7-.27-.09-.61-.23-1.24-.24-1.86-.04-2.36 2.59-3 4.49-3.05.62-.02 1.22.12 1.71.52.38.31.62.75.78 1.21.35 1.03.3 2.21.35 3.28.01.31.03.61.04.92.41-.03.91-.13 1.01-.47.12-.4-.18-4.78-1.02-5.71Z" class="cls-1"/><path d="M143.09 30.05c-.16-.46-.4-.9-.78-1.21-.49-.4-1.09-.54-1.71-.52-1.89.06-4.52.7-4.49 3.05.01.62.14 1.25.24 1.86.12-.02.23-.01.3.04.2.15-.21.05.2.15s.44.13.69 0 .49.3.49.3.3 0 .34-.25c.03-.16.11-.16.25 0 .2.25.44.39.54.44.1.05.1-.34.25-.34s.3-.59.39-.34c.1.25.1.79.27.69.17-.1.81.36 1.01.2s.1-.62.34-.46c.25.16.06.44.37.49s1.1.32 1.2.19-.1-.18.1-.13c.2.05-.24.07.2.05.06 0 .13 0 .2-.01-.01-.31-.03-.61-.04-.92-.05-1.07 0-2.25-.35-3.28Z" class="cls-14"/><path d="M179.68 43.05c-1.18-1.14-3.9-4.24-5.86-4.57-1.96-.33-4.91 2.03-5.68 4.09-.78 2.07-.61 4.08-.61 4.08s.27.22.67.53l.05-.13c.5-1.19.98-2.4 1.54-3.56.52-1.06 1.15-2.15 2.02-2.97.51-.49 1.16-.73 1.86-.51.63.2 1.21.61 1.77.96s1.11.72 1.64 1.1c.48.35 1.05.7 1.35 1.23.36.64.17 1.32-.2 1.9-.35.56-.73 1.11-1.09 1.66-.74 1.11-1.48 2.22-2.24 3.31-.4.58-.8 1.16-1.2 1.73l.39.41s3.42-3.9 4.34-4.82c.92-.92 2.43-3.32 1.25-4.46Z" class="cls-1"/><path d="M177.13 46.88c.37-.55.74-1.1 1.09-1.66.37-.58.56-1.26.2-1.9-.3-.53-.87-.88-1.35-1.23-.54-.39-1.08-.75-1.64-1.1-.56-.35-1.14-.76-1.77-.96-.7-.22-1.35.02-1.86.51-.86.82-1.5 1.91-2.02 2.97-.57 1.16-1.04 2.37-1.54 3.56l-.05.13c.85.67 2.26 1.77 2.64 1.95.55.26.48.7.52.81.04.11.12.11.3 0s.4.08.4.08.22.95.41.95.78.52.92.63c.06.05.19.18.33.32.4-.58.8-1.15 1.2-1.73.75-1.1 1.5-2.2 2.24-3.31Z" class="cls-14"/></g><path d="m123.61 57.52.17-.02c-.04-.05-.07.01-.17.02ZM96.58 58.13c.02-.12.04-.23.05-.33 0 0-.06-.07-.06-.06-.03.09-.05.18-.07.28l.08.12Z" class="cls-4"/><path d="M46.94 47.94c.9-2.53 2.4-4.87 4.29-6.79 1.89-1.92 4.21-3.46 6.73-4.4 1-.37 2.02-.66 3.06-.9.5-.12 1.01-.22 1.52-.3l.38-.06.14-.02s.11-.01.13-.02c.26-.03.53-.06.8-.08 1.04-.09 2.09-.09 3.13.03.05 0 .09.01.14.02.02 0 .08.01.1.01.14.02.27.04.4.07.26.05.52.1.77.17a8.752 8.752 0 0 1 1.09.34c.05.02.11.04.16.06.02 0 .12.05.14.06.47.2.93.44 1.36.72.49.31.77.53 1.2.93.88.83 1.51 1.72 2.07 2.82.14.27.28.57.39.83.08.2.23.36.42.43.15.08.34.11.49.07.36-.1.49-.44.44-.77-.2-1.39-.52-2.78-.87-4.15-.38-1.53-.81-3.05-1.28-4.56-.2-.64-.41-1.28-.64-1.92.44-.86.87-1.76 1.05-2.72.19-1.02.08-2.01-.37-2.94-.85-1.77-2.69-2.81-4.52-3.29-1.03-.27-2.1-.39-3.16-.5-1.08-.11-2.17-.18-3.25-.15-1.12.04-2.23.19-3.31.5-1.01.29-2 .67-3.06.7-1.1.03-2.19-.19-3.29-.26-1.02-.06-2.04.05-3.01.36-.97.31-1.86.8-2.64 1.45-.73.59-1.33 1.32-1.87 2.09-1.06 1.49-1.88 3.16-3.1 4.54-1.27 1.44-2.8 2.68-3.72 4.39-.95 1.77-1.17 3.93-.57 5.85.57 1.83 2.02 3.68 4.13 3.57.32-.02.63-.08.92-.19.52 1.47 1.37 2.81 2.08 4.19.16.3.58.39.86.23.16-.09.25-.23.29-.39" style="fill:#f2a6b0"/><g id="Layer_11"><path d="M69.29 31.03c.8-1.55 2.61-2.6 4.35-2.18.19.05.37.11.54.18.16-.4.28-.81.36-1.23.19-1.02.08-2.01-.37-2.94-.06-.12-.12-.23-.18-.34-.07.18-.16.36-.23.53-.12.25-.35.5-.49.68-.18.22-.45.39-.67.55-.22.16-.54.26-.76.35-.08.03-.15.05-.23.06-.21.03-.57.11-.84.09-.25-.02-.5-.06-.74-.1-.04 0-.08-.01-.12-.03-.27-.07-.52-.2-.77-.31-.08-.03-.15-.08-.22-.12a5.41 5.41 0 0 1-.65-.51c-.06-.06-.12-.12-.17-.18-.15-.18-.36-.43-.49-.66-.31-.58-.4-.97-.45-1.62-.03-.28.05-.63.09-.86.05-.27.21-.56.31-.8.08-.13.17-.26.27-.37-.45-.06-.89-.11-1.34-.16-1.08-.11-2.17-.18-3.25-.15-1.12.04-2.23.19-3.31.5-1.01.29-2 .67-3.06.7-1.1.03-2.19-.19-3.29-.26-.61-.04-1.22-.01-1.82.08l-.03.24c-.04.29-.08.56-.18.83-.1.27-.21.52-.34.75-.07.19-.15.37-.25.55-.17.33-.42.62-.65.9-.11.13-.22.25-.35.36-.4.35-.83.68-1.32.9-1.03.47-2.3.83-3.44.55-.7 1.12-1.37 2.26-2.25 3.26-.83.94-1.78 1.81-2.6 2.77-.02.2-.06.4-.1.59-.02.08-.04.15-.07.23-.1.25-.19.52-.33.76-.21.37-.54.76-.9 1.06-.09.13-.19.25-.29.36a7.65 7.65 0 0 0 0 4.47c.39 1.25 1.2 2.52 2.34 3.15v-.3c.02-.42.08-.85.17-1.26.04-.19.12-.37.21-.53.04-.12.07-.24.12-.35.21-.58.41-1.05.85-1.49.13-.13.37-.31.53-.41.21-.13.44-.23.68-.28.49-.11.97-.13 1.45.01.61.17 1.1.54 1.5 1 .13.1.26.2.38.31.56.54.86 1.24 1.12 1.96.19.53.28 1.1.31 1.66.02.38-.03.79-.14 1.18.83-1.48 1.86-2.85 3.05-4.05 1.89-1.92 4.21-3.46 6.73-4.4.28-.1.55-.2.83-.29.01-.01.02-.03.03-.04.58-.7 1.48-1.24 2.36-1.47.91-.24 1.94-.23 2.83.06.26.08.52.18.78.3.77-.03 1.55 0 2.32.08.05 0 .09.01.14.02.02 0 .08.01.1.01.14.02.27.04.4.07.26.05.52.1.77.17.25.06.49.13.73.21.07.02.14.05.22.08-.09-.14-.18-.29-.25-.44-.71-1.46-.67-3.05.07-4.49Zm-16.67 2.39c-.06.69-.11.82-.38 1.43-.11.25-.34.5-.5.7-.12.14-.27.24-.42.36-.14.1-.27.23-.43.3-.54.26-1.01.43-1.63.42-.53 0-1.15-.14-1.6-.44-.31-.12-.62-.25-.9-.41a2.5 2.5 0 0 1-.87-.87c-.08-.19-.16-.39-.24-.58a2.32 2.32 0 0 1 0-1.28l.24-.58c.15-.28.36-.51.62-.68.03-.02.05-.04.08-.06.12-.22.28-.42.47-.59.1-.19.22-.36.38-.5.22-.24.48-.4.78-.5.29-.15.6-.22.93-.21.16 0 .32.03.48.05.15.02.31.03.46.07.29.08.57.2.83.35.5.31.97.75 1.26 1.27.14.26.27.54.34.83 0 .03.01.06.02.09.03.21.08.46.09.67v.15Zm12.61-6.05c-.02.25-.04.59-.13.86-.03.1-.08.2-.12.29-.08.25-.19.5-.3.73-.17.36-.43.68-.71.96-.28.27-.61.54-.96.7-.27.12-.55.27-.84.32-.24.05-.5.08-.74.1h-.14c-.61-.01-1.18-.17-1.71-.47-.05-.03-.1-.06-.14-.1-.19-.14-.39-.28-.56-.44-.03-.03-.06-.06-.09-.1-.16-.18-.31-.38-.45-.58a.539.539 0 0 1-.07-.13 4.05 4.05 0 0 1-.28-.68c-.01-.04-.03-.08-.03-.13-.04-.24-.09-.51-.1-.75 0-.15.03-.31.05-.45.02-.13.03-.3.07-.43.01-.04.03-.08.04-.12.01-.08.02-.17.04-.25.02-.17.04-.35.08-.52.07-.26.2-.52.31-.76.03-.06.06-.12.1-.17.35-.5.63-.8 1.14-1.14.3-.19.65-.35 1.01-.4.28-.04.58-.11.86-.09.28.02.57.05.85.12.35.09.7.23 1.01.43.29.18.6.41.83.67.42.5.62.82.84 1.43.06.18.08.36.1.55.03.18.06.36.05.54ZM45.73 47.66l-.16.03c.08.14.15.28.22.42.16.3.58.39.86.23.16-.09.25-.23.29-.39.18-.49.37-.98.59-1.46-.46.57-1.1 1.01-1.8 1.18ZM75.93 39.21c-.06.03-.12.07-.18.1-.56.26-1.11.4-1.69.43.17.28.33.57.49.87.14.27.28.57.39.83.08.2.23.36.42.43.15.08.34.11.49.07.36-.1.49-.44.44-.77-.09-.66-.22-1.31-.35-1.96Z" class="cls-1"/><path d="M39.86 34.66c.13-.24.23-.5.33-.76.03-.08.05-.15.07-.23.04-.19.08-.39.1-.59-.42.5-.81 1.03-1.12 1.62-.23.44-.43.9-.57 1.38.1-.12.2-.24.29-.36.36-.3.69-.68.9-1.06ZM48.32 44.03a5.87 5.87 0 0 0-.31-1.66c-.25-.72-.56-1.42-1.12-1.96-.12-.12-.25-.22-.38-.31-.4-.47-.89-.84-1.5-1-.49-.13-.97-.12-1.45-.01-.24.05-.47.15-.68.28-.16.1-.4.27-.53.41-.45.44-.64.91-.85 1.49-.04.12-.08.24-.12.35-.1.17-.18.35-.21.53-.09.41-.15.84-.17 1.26v.3c.53.29 1.12.45 1.78.41.32-.02.63-.08.92-.19.47 1.32 1.2 2.54 1.86 3.76l.16-.03c.7-.17 1.35-.61 1.8-1.18.2-.44.42-.86.65-1.28.11-.39.16-.79.14-1.18ZM52.51 32.51c-.07-.29-.2-.57-.34-.83-.29-.52-.75-.97-1.26-1.27-.26-.16-.54-.27-.83-.35-.15-.04-.31-.05-.46-.07-.16-.02-.32-.05-.48-.05-.33-.01-.64.06-.93.21-.3.1-.56.26-.78.5-.16.15-.29.32-.38.5-.18.18-.35.37-.47.59-.03.02-.05.04-.08.06-.26.17-.47.4-.62.68l-.24.58c-.12.43-.12.86 0 1.28.08.19.16.39.24.58.22.36.5.65.87.87.29.16.6.29.9.41.45.3 1.07.43 1.6.44.62 0 1.09-.17 1.63-.42.16-.08.29-.2.43-.3.15-.12.3-.21.42-.36.16-.19.39-.44.5-.7.27-.61.32-.75.38-1.43v-.15c-.01-.21-.06-.46-.09-.67 0-.03 0-.06-.02-.09ZM48.65 26.5c.49-.22.92-.55 1.32-.9.13-.11.24-.23.35-.36.23-.28.48-.58.65-.9.09-.18.18-.37.25-.55.12-.23.23-.48.34-.75.1-.27.14-.54.18-.83l.03-.24a7.837 7.837 0 0 0-3.83 1.73c-.73.59-1.33 1.32-1.87 2.09-.3.42-.57.85-.84 1.28 1.13.27 2.41-.08 3.44-.55ZM61.19 34.96c-.88.23-1.77.76-2.36 1.47-.01.01-.02.03-.03.04a25.2 25.2 0 0 1 2.22-.61c.5-.12 1.01-.22 1.52-.3l.38-.06.14-.02s.11-.01.13-.02a19.686 19.686 0 0 1 1.61-.13c-.25-.12-.52-.22-.78-.3-.9-.29-1.93-.3-2.83-.06ZM65.08 26.28c-.22-.61-.42-.94-.84-1.43-.23-.27-.54-.49-.83-.67a3.75 3.75 0 0 0-1.01-.43c-.27-.07-.57-.1-.85-.12-.29-.02-.58.05-.86.09-.35.05-.71.21-1.01.4-.51.34-.8.64-1.14 1.14a.95.95 0 0 0-.1.17c-.12.25-.24.5-.31.76-.05.17-.06.35-.08.52-.01.08-.03.17-.04.25-.01.04-.03.08-.04.12-.04.14-.05.3-.07.43-.02.14-.05.3-.05.45.01.25.05.51.1.75 0 .04.02.08.03.13.08.23.18.47.28.68.02.04.05.09.07.13a5.002 5.002 0 0 0 .54.68c.17.16.37.3.56.44.05.03.09.07.14.1.53.3 1.1.45 1.71.47h.14c.24-.02.5-.05.74-.1.29-.06.57-.2.84-.32.36-.16.69-.43.96-.7.28-.27.54-.6.71-.96.11-.23.22-.48.3-.73.04-.09.09-.19.12-.29.09-.27.11-.61.13-.86.01-.18-.03-.36-.05-.54-.03-.19-.04-.37-.1-.55ZM75.93 39.21c-.16-.74-.33-1.47-.51-2.2-.38-1.53-.81-3.05-1.28-4.56-.2-.64-.41-1.28-.64-1.92.25-.48.49-.98.69-1.48-.17-.08-.35-.14-.54-.18-1.74-.42-3.55.63-4.35 2.18-.74 1.44-.78 3.03-.07 4.49.07.15.16.3.25.44.05.02.09.03.14.05.05.02.11.04.16.06.02 0 .12.05.14.06.47.2.93.44 1.36.72.49.31.77.53 1.2.93.64.6 1.14 1.23 1.58 1.95.57-.03 1.12-.17 1.69-.43.06-.03.12-.06.18-.1ZM67.25 22.4c-.04.23-.12.58-.09.86.06.65.14 1.04.45 1.62.13.23.34.48.49.66.05.06.11.13.17.18.2.19.43.35.65.51.07.05.14.09.22.12.25.11.5.24.77.31l.12.03c.24.04.5.08.74.1.27.02.63-.06.84-.09.08-.01.16-.03.23-.06.22-.09.54-.19.76-.35.22-.16.49-.33.67-.55.15-.18.38-.44.49-.68.08-.17.17-.35.23-.53-.92-1.56-2.62-2.5-4.34-2.95-.6-.16-1.2-.26-1.81-.35-.1.12-.19.24-.27.37-.1.23-.26.52-.31.8Z" class="cls-5"/></g></g><g id="Outline"><path d="M66.54 69.27c.66.07 1.6-3.6 2.1-8.2s.38-8.39-.28-8.46c-.66-.07-1.6 3.6-2.1 8.2s-.38 8.39.28 8.46Z" class="cls-4"/><path d="M74.33 136.43c-.17 0-.24 2.45-.33 6.39-.09 3.94-.22 9.38-.5 15.38-.29 6-.67 11.43-.96 15.36-.29 3.93-.45 6.37-.28 6.39.16.02.62-2.38 1.13-6.3.51-3.92 1.03-9.36 1.32-15.39.29-6.03.28-11.49.15-15.44-.13-3.95-.36-6.39-.52-6.38ZM132.56 141.88c-.3-.05-1.62 6.65-1.7 15.05-.11 8.4 1.06 15.13 1.36 15.09.35-.04-.27-6.77-.16-15.07.08-8.3.85-15.02.5-15.07Z" class="cls-7"/><path d="M157.52 120.86c-.14-.1-.41.02-.81-.09-.2-.05-.45-.14-.72-.29-.27-.16-.61-.42-1.14-.68-.27-.13-.6-.26-1.01-.3-.4-.05-.83.01-1.22.14-.77.25-1.36.7-1.88 1.07-.27.19-.46.32-.69.44-.22.11-.44.19-.6.2-.16.01-.21-.01-.26-.05-.05-.03-.12-.09-.21-.3-.09-.2-.17-.49-.25-.82-.04-.18-.08-.36-.12-.53-.05-.23-.12-.45-.2-.67-.17-.43-.39-.86-.76-1.26-.18-.19-.41-.39-.7-.55-.29-.15-.6-.24-.91-.26-.31-.01-.62.02-.91.13-.29.11-.53.26-.7.4-.36.29-.59.59-.78.84-.38.52-.68 1.04-.9 1.53-.45.98-.62 1.84-.65 2.44-.02.6.08.93.24.96.35.07.77-1.09 1.87-2.54.28-.36.59-.74.96-1.1.18-.19.36-.34.5-.42.07-.04.12-.05.12-.04.02 0 .03.01.04.02l.03.03s.02.04.07.09a2.369 2.369 0 0 1 .36.91c.03.18.07.35.1.53.08.39.18.82.39 1.31.21.48.61 1.05 1.21 1.37.58.34 1.29.4 1.83.3.54-.1.98-.31 1.35-.53.36-.21.71-.49.95-.71.49-.44.89-.78 1.21-.94.32-.16.52-.2.92-.11.39.09.83.27 1.31.37.48.09.92.07 1.26-.05.35-.12.58-.32.67-.49.1-.17.08-.29.02-.34ZM97.48 128.35c-.3-.08-.98.46-1.99-.71-.28-.27-.63-.69-1.24-1.05-.3-.18-.68-.35-1.15-.4-.47-.06-.99.05-1.39.24-.81.38-1.3.96-1.69 1.26-.17.13-.35.24-.5.3-.18.06-.11.03-.12.03s-.08-.14-.14-.26c-.13-.25-.27-.65-.63-1.07-.33-.4-.77-.69-1.2-.85-.43-.17-.86-.22-1.26-.22-.8.01-1.49.26-2.07.63-.58.39-.93.83-1.21 1.26-.54.86-.71 1.58-.8 2.08-.08.51-.03.81.11.87.15.07.4-.12.72-.49.33-.36.73-.92 1.26-1.42.26-.24.59-.48.89-.6.31-.12.69-.19 1.03-.15.35.04.6.19.7.35.05.06.14.26.28.59.07.17.17.37.32.59.18.27.41.51.68.7.15.09.31.18.49.24.62.24 1.4.11 1.83-.09.47-.19.83-.45 1.15-.73.31-.28.49-.49.69-.68.19-.18.34-.32.46-.39.12-.08.18-.1.26-.12.08-.01.22 0 .38.06.33.12.69.38 1.12.64.42.26.9.48 1.4.54.51.06.92-.07 1.21-.25.3-.19.45-.43.49-.61.04-.18-.01-.29-.08-.32ZM139.1 105.64c-.09.12.12.52.83.84.69.31 1.87.43 3.15-.06 1.3-.5 2.49-1.6 3.51-2.79 1.02-1.18 2.02-2.45 3.26-3.05 1.23-.61 2.94-.62 4.61-1.09.83-.23 1.67-.63 2.3-1.14.64-.5 1.12-1.09 1.46-1.66.69-1.16.83-2.25.78-2.97-.06-.72-.27-1.08-.42-1.07-.17.01-.29.38-.5.95-.22.57-.57 1.36-1.24 2.11-.33.38-.74.74-1.22 1.02-.48.29-1.01.48-1.68.62-.66.13-1.43.2-2.29.31-.86.11-1.85.29-2.84.77-.99.48-1.75 1.18-2.37 1.85-.62.68-1.11 1.36-1.56 1.96-.88 1.22-1.7 2.14-2.52 2.65-.83.52-1.65.67-2.21.68-.57.02-.94-.08-1.03.07ZM100.28 110.33c.2-.26-.49-1.08-1.7-1.41-1.21-.34-2.22.01-2.18.34.03.34.88.54 1.86.82.98.26 1.82.53 2.02.26ZM85.67 97.35c-.65.12-1.03 1.01-.84 1.97.18.96.86 1.64 1.51 1.52.65-.12 1.03-1.01.84-1.97-.18-.96-.86-1.64-1.51-1.52ZM52.73 102.72c-.09.13-.08.35.15.57.22.21.67.4 1.26.27.29-.06.61-.21.9-.5.29-.29.48-.69.55-1.12.07-.43.01-.89-.21-1.35-.21-.45-.67-.88-1.18-1.06-1-.36-2.08-.05-2.67.81-.27.42-.36.87-.29 1.33.04.23.12.47.26.67.14.2.3.35.57.48.51.21.88.06 1.11-.09.24-.16.38-.38.43-.6.05-.22-.02-.41-.11-.48a.239.239 0 0 0-.26-.05c-.08.03-.15.08-.22.1-.11.01-.07.02-.15-.02-.07-.04-.17-.17-.16-.18 0-.03.03.19-.02.23 0 .01 0 0 0 0s.24-.25.12-.13 0 0 .01 0c.02-.01.1-.04.18-.04.18-.01.29.07.16 0l-.04-.03-.02-.02.13.13s.02.03.03.05c.01.02.02.04.04.07v.01s.02 0 .03.02c.01 0 0 .04.02-.03.02-.05.05-.1.07-.12-.02.02-.07.06-.11.08 0 0 .04.02.06.05.03.03.06.05.09.08s.03.1 0 .17c-.06.15-.21.28-.35.39-.14.11-.31.19-.4.33ZM46.85 161.38c.06.15.21.27.44.3.23.03.55-.03.89-.29.17-.13.34-.33.46-.59.13-.26.2-.63.16-.97-.03-.35-.16-.72-.43-1.05-.27-.34-.73-.63-1.3-.67-.55-.03-.99.17-1.32.43-.33.27-.57.63-.66 1.07-.1.43.01.9.21 1.2.2.31.46.48.69.57.47.19.9.08 1.12-.09.22-.18.22-.39.15-.53-.08-.15-.21-.26-.28-.4-.06-.13-.08-.28-.03-.38.02-.04.01-.01-.02.01-.02.02-.06.05-.09.07-.07.04-.1.01-.01.03.08.02.18.11.17.11 0 0-.07-.13-.06-.22v-.03l-.03.08s-.04.07-.08.11c-.08.07-.17.1-.15.09H46.8l.01.01s.11.03-.11-.02h.01s.07.09.08.16c.06.3-.1.71.03 1.01ZM44.2 114.88c.73.02.98-9.15 4.28-19.79 3.2-10.67 8.11-18.42 7.49-18.81-.25-.17-1.82 1.55-3.81 4.74-.49.8-1.02 1.68-1.53 2.66-.54.96-1.04 2.03-1.58 3.15a63.677 63.677 0 0 0-2.87 7.56c-.83 2.75-1.42 5.42-1.83 7.87-.18 1.23-.36 2.4-.45 3.5-.12 1.1-.18 2.12-.21 3.06-.13 3.75.21 6.06.52 6.06Z" class="cls-4"/><path d="M34.37 123.7c.53.44 4.26-3.48 9.87-6.8 1.4-.84 2.76-1.57 4.03-2.19.64-.31 1.24-.6 1.82-.85.58-.27 1.06-.48 1.46-.56.4-.09.72-.07.94.01.25.11.45.31.56.49.25.35.14.72.28.8.06.04.2.02.35-.13.15-.14.31-.46.28-.89-.03-.42-.21-.91-.66-1.34-.49-.45-1.21-.65-1.9-.63-.7 0-1.37.2-2 .39-.64.19-1.31.42-2.01.69-1.4.55-2.89 1.27-4.38 2.16-2.99 1.78-5.32 3.93-6.79 5.65-1.46 1.73-2.09 3-1.85 3.21Z" class="cls-4"/><path d="M39.28 102.02c-.66.04-.98 3.56-.42 7.84.55 4.28 1.75 7.6 2.4 7.48.66-.13.52-3.59-.02-7.78s-1.29-7.57-1.96-7.53ZM56.31 135.26c-.07.06.04.27.14.66.09.39.13.98-.11 1.67-.12.35-.31.71-.58 1.04-.28.34-.65.67-1.09.98-.88.61-2.12 1.17-3.44 1.83-2.66 1.29-5.86 2.72-9.51 4.08-3.64 1.35-7.76 2.64-12.08 3.62-1.06.22-2.08.36-3.02.31-.95-.05-1.78-.29-2.51-.76-1.49-.95-2.56-2.65-3.46-4.31-1.79-3.33-2.69-6.71-3.32-9.57-.61-2.87-.97-5.25-1.27-6.89-.3-1.64-.53-2.55-.7-2.53-.16.01-.25.94-.23 2.62.02 1.68.12 4.1.53 7.1.43 2.98 1.19 6.6 3.03 10.29.48.91.96 1.84 1.63 2.75.66.9 1.46 1.81 2.52 2.51 1.06.71 2.39 1.1 3.65 1.17 1.27.08 2.49-.1 3.66-.35 9.05-2.06 16.69-5.53 21.89-8.55 1.29-.77 2.48-1.42 3.47-2.27.49-.42.9-.89 1.2-1.38.31-.5.48-1.01.55-1.48.15-.94-.09-1.68-.36-2.09-.28-.41-.53-.51-.58-.46Z" class="cls-4"/><path d="M39.38 175.95c.68-.06.58-6.39.96-14.12.35-7.74 1.04-14.02.37-14.15-.63-.13-2.41 6.1-2.76 14.04-.39 7.94.81 14.31 1.44 14.24ZM147.98 109.7c-.03-.17-.53-.21-1.24-.38s-1.66-.53-2.47-1.22c-.81-.69-1.3-1.58-1.58-2.25-.28-.68-.39-1.16-.57-1.17-.15 0-.36.51-.25 1.38.09.85.57 2.05 1.62 2.95 1.05.9 2.31 1.19 3.17 1.16.87-.03 1.35-.31 1.32-.46ZM155.64 104.82c.02.08.37.1 1.02-.01.32-.06.73-.16 1.17-.4.44-.24.92-.67 1.15-1.35.11-.33.14-.76 0-1.16-.14-.4-.43-.73-.75-.97-.65-.48-1.35-.7-2.06-.97-1.45-.52-3.1-.93-4.87-1.13-.45-.05-.92-.08-1.41-.02-.48.05-1 .21-1.42.5-.43.28-.81.72-.96 1.26-.15.54-.05 1.07.14 1.5.4.88 1.11 1.36 1.7 1.72.61.37 1.22.62 1.79.8 1.14.36 2.11.4 2.76.35.66-.05 1-.17.99-.25 0-.09-.36-.12-.98-.22-.61-.1-1.49-.26-2.49-.68-.5-.21-1.02-.48-1.54-.84-.52-.35-1.02-.79-1.21-1.31-.21-.55-.08-1.02.44-1.35.51-.33 1.25-.36 2.06-.27 1.67.19 3.25.55 4.65.99.7.23 1.39.43 1.83.73.46.3.61.66.52 1.09-.21.89-1.1 1.3-1.64 1.53-.57.24-.91.37-.89.46Z" class="cls-4"/><path d="M154.07 108.2c.04.15.35.24.8.09.44-.14 1.01-.57 1.3-1.27.29-.7.2-1.41 0-1.82-.21-.43-.49-.58-.63-.5-.28.17-.11 1.04-.47 1.86-.33.84-1.08 1.32-1 1.64ZM145.05 103.36c-.15.04-.22.39-.09.9s.51 1.18 1.13 1.71c.62.53 1.34.8 1.87.85.53.05.86-.07.88-.23.03-.34-1.01-.69-1.97-1.53-.98-.81-1.5-1.78-1.83-1.69Z" class="cls-4"/><path d="M42.79 140.86c.33-.04.16-4.05-.38-8.97s-1.25-8.87-1.57-8.84c-.33.04-.16 4.05.38 8.97.54 4.92 1.25 8.87 1.57 8.84Z" class="cls-12"/></g></svg>