<?xml version="1.0" encoding="UTF-8"?><svg xmlns="http://www.w3.org/2000/svg" viewBox="0 0 200 200"><defs><style>.cls-1{fill:#e0e0e0;}.cls-2{fill:#f27f20;}.cls-3{fill:#d87627;}.cls-4{fill:#fffffa;}.cls-5{fill:#b8d7db;}.cls-6{fill:#bfd6d8;}.cls-7{fill:#613c5d;}.cls-8{fill:#575655;}.cls-9{fill:#f28022;}.cls-10{fill:#f17b21;}.cls-11{fill:#e27a24;}.cls-12{fill:#5c3e5b;}.cls-13{fill:#ebe9e6;}.cls-14{fill:#687980;}.cls-15{fill:#fafbf8;}.cls-16{fill:#d4a686;}.cls-17{fill:#2f3650;}.cls-18{fill:#fff;}.cls-19{fill:#ef6a22;}.cls-20{fill:#f7a550;}.cls-21{fill:#f7f7f7;}.cls-22{fill:#897064;}.cls-23{fill:#99b2b4;}.cls-24{fill:#d0a486;}.cls-25{fill:#f27d21;}.cls-26{fill:#e5928e;}.cls-27{fill:#fafbfa;}</style></defs><g id="BG_Strong"><path class="cls-8" d="M194.04,92.76c-11.86-24.72-35.08-40.15-52.19-46.62C108.6,29.97,97.15.57,56.38,17.82,11.6,36.76,10.38,60.96,9.09,70.8c-7.1,54.07,40.69,111.9,106.73,85.24,37.89-3,49,1.76,66.35-13.4,12.85-15.05,15.55-23.02,11.86-49.88"/></g><g id="Illustrations"><path class="cls-23" d="M167.84,162.19c-1.51-.92.35-6.7-1.54-6.77-5.36-.17-23.83-.81-25.87-.51,0,0,8.07-10.33,1.27-34.57-2.54-9.06,31.89-10.67,31.89-10.67,7.33,15.42,8.59,28.92,5.41,37.83-3.25,9.1-11.04,13.45-11.16,14.68Z"/><path class="cls-5" d="M168,155.38c-1.51-.92-2.7-1.72-4.59-1.78-5.37-.17-26.42.8-28.47,1.1,0,0,8.09-10.28,1.28-34.4-2.55-9.02,31.98-10.62,31.98-10.62,14.86,31.03,4.94,42.62-.2,45.7h0Z"/><path class="cls-23" d="M167.9,162.02c.58,4.7-3.1,3.71-6.06,3.9-.48.03-.97-.03-1.45,0-.48.03-.97-.02-1.45,0l-.49-17.05,8.9-.3c1.44,0,.38.55.54,13.45h0Z"/><path class="cls-26" d="M134.06,126.38c-.68.5-.54-.02-.66,0h.66Z"/><path class="cls-5" d="M158.4,148.81l1.15,17.11c-1.79.02-75.57.73-75.57.73.02,2.02-.17-17.14.51-17.82,11.5-.46,73.92-.24,73.92-.03h0Z"/><path class="cls-5" d="M143.28,134.02c.4.53.67.9.74,1.6.44,3.94-.34,8.68,0,12.7l-.25.25c-4.67,0-9.35,0-14.02,0,.41-2.63-.85-12.63.73-14.18.44-.55.96-.54,1.59-.62,1.74-.22,9.71-.2,11.2.26h0Z"/><path class="cls-23" d="M148.56,148.57c-1.3-.03-2.62.02-3.93,0l-.25-.24v-13.15c5.21,1.52,3.71,9.22,4.17,13.4Z"/><path class="cls-23" d="M142.37,147.18l.24-9.06c.05-.96.03-2.07-.7-2.32l-10.53-.19c-.31.73-.18,10.26.06,10.92,0,0,10.76.99,10.93.65Z"/><path class="cls-13" d="M131.92,135.61c3.03,4,5.81,3.6,10.48,3.41.01.25,0,.36,0,.49h-6.58c-.18,2.17.25,4.7,0,6.82-.03.24.04.25.02.49,0,0-.66,0-.71,0l-.1-7.38-3.6-3.34c.04-.09-.07-.31.04-.45l.45-.04Z"/><path class="cls-13" d="M142.72,133.78c.57.06,1.08-.08,1.34.86.06.2.41.07.62.12.09.02.19.05.28.07.27.04.31.25-.23-.19-.23-.26-.46-.53-.69-.8-.09-.17-.27-.58-.26-.69,0,.05.01.11.01.15,0,.14,0,.27.01.41,0,.46,0,.93,0,1.39-.01,1.33.22,12.85.66,13.2.3.23.91.52.93-.09.15-4.2.33-8.4.31-12.6,0-.66.02-1.28-.33-1.87-.61-1.02-1.51-1.19-2.59-1.36-2.4-.37-12.35.92-13.32,1.4-.64.32,11.76-.16,13.25,0h0Z"/><path class="cls-13" d="M112.95,148.65c11.81.2,24.02.63,35.82.7,2.98.02,5.96.04,8.94.09,1.05.02.93-.72-.12-.74-11.81-.2-23.5-1.06-35.31-1.14-2.98-.02-5.96-.04-8.94-.1-1.05-.02-.39,1.18-.39,1.18h0Z"/><path class="cls-23" d="M191.71,38.57c-1.61-.81-24.9,4.06-39.46,3.84-.68-.04-10.54,29.13-11.33,31.4-.06.16-.11.32-.16.48-.07.2-2.06,6.18-2.06,6.18-.61,1.83-3.53,10.23-11.89,34.08-.63,2.02-1.3,4.09-2.02,6.2-.19.56-6.7,1.73-6.9,2.28-.54,1.53,3.38,5.4,3.38,5.4l47.24-1.04c4.66-15.77,10.62-31.19,15.27-46.95.09-.3,1.06-3.61,1.06-3.61,2.96-8.37,5.62-16.89,8.36-25.33"/><path class="cls-23" d="M151.55,45.27s0-.09,0-.13c0,.05,0,.09,0,.13Z"/><path class="cls-23" d="M155.02,47.62c.04-.06.07-.11.1-.17-.03.06-.06.11-.1.17Z"/><path class="cls-5" d="M191.26,38.56c-14.55-.27-29.13.21-43.69,0-.68-.04-3.11,7.77-3.56,9.04-.2.58-.43,1.17-.63,1.74-1.44,4.11-2.86,8.25-4.28,12.37-.16.47-.31.95-.48,1.43-.79,2.27-1.59,4.55-2.38,6.82-.05.16-.1.32-.16.48-.64,1.85-1.26,3.7-1.9,5.55-.06.17-.08.39-.16.63-.77,2.23-1.61,4.44-2.38,6.66-.16.47-.31.95-.48,1.43-1.3,3.76-2.68,7.51-3.96,11.26-.16.48-.28,1.17-.48,1.74-.82,2.38-1.58,4.78-2.45,7.14-.07.04-.18.25-.33.6-.02.01-.04.02-.07.03,0,.02.02.04.03.06-1.23,2.88-4.7,13.93-6.02,17.51l-.04.51h45.98c4.66-15.77,10.62-31.19,15.27-46.95.09-.3,1.06-3.61,1.06-3.61,2.96-8.37,5.62-16.89,8.36-25.33"/><path class="cls-5" d="M146.86,41.41s0-.08,0-.13c0,.05,0,.09,0,.13Z"/><path class="cls-5" d="M172.71,73.28c.5.01,1.04-.19,1.67-.16,1.43.07,2.45.68,2.1,2.27-3.36,10.67-6.32,21.46-9.75,32.1-.21.66.04.67-.51,1.39-.79,1.02-1.19,1.17-2.38,1.34-.91.14-1.82.23-2.78.17-3.45-.24-3.12-2.09-2.72-4.95.44-3.13,1.75-6.13,2.17-9.16,0,0-24.64,5.68-33.28,7.8l20.91-59.63,29.17-.16-9.35,29.01c1.75-.17,3.07-.04,4.76,0h0Z"/><path class="cls-18" d="M148.13,44.43l-22.52,64.2v.16l31.53.05,3.36-12.57c.5-3.58.03-6.94.87-10.46.69-2.91,1.89-6.8,2.89-9.63.36-1.02.63-1.74,1.55-2.41.92-.68,1.2-.38,2.14-.48l9.35-29.01-29.17.16h0Z"/><path class="cls-5" d="M167.95,73.28c-.94.09-1.26-.17-2.14.48-.88.65-1.19,1.39-1.55,2.41-1,2.83-2.2,6.72-2.89,9.63-.84,3.53-.37,6.88-.87,10.46-.43,3.03-1.73,6.03-2.17,9.16-.4,2.86-.73,4.71,2.72,4.95.96.07,1.87-.03,2.78-.17-.05-1.45.08-2.9.36-4.32.73-3.63,2.61-7.13,2.82-10.82.1-1.79-.11-3.61,0-5.39.28-4.84,2.63-9.76,3.77-14.46.41-.89,1.08-1.51,1.94-1.95-1.68-.04-3-.17-4.76,0h0ZM164.95,76.62c1.42-.09,2.87.13,4.27-.17l-2.48,8.23-3.86-.14,2.08-7.91ZM161.29,97.21h4.12l-.31,1.36c-1.38.1-2.74.3-4.13.23l.32-1.58ZM160.66,100.07h3.96l-.58,1.41c-1.12-.07-2.22.11-3.31.18-.56.04-.06-1.26-.08-1.59h0ZM160.42,103.08c.94-.16,2.26.12,3.25,0l-.32,1.59h-3.49c0-.48-.04-1.48.55-1.59Z"/><path class="cls-23" d="M172.71,73.28c-.86.44-1.52,1.06-1.94,1.95-1.14,4.7-3.49,9.62-3.77,14.46-.1,1.79.1,3.61,0,5.39-.2,3.69-2.09,7.18-2.82,10.82-.28,1.42-.41,2.87-.36,4.32,1.19-.18,1.6-.33,2.38-1.34.55-.72.3-.73.51-1.39,3.43-10.64,6.39-21.44,9.75-32.1.35-1.59-.66-2.2-2.09-2.27-.63-.03-1.18.18-1.67.16h0Z"/><path class="cls-17" d="M181.75,52.19l-1.76.09-5.53,16.55c.53,0,1.06,0,1.59,0,1.96-5.32,4.1-11.23,5.71-16.65Z"/><path class="cls-17" d="M130.19,114.72l.26.85,16.78-.48c-.06-.26-.09-.52-.15-.78-5.41.06-11.41.15-16.89.41h0Z"/><path class="cls-14" d="M174.13,66.62c-.23.67-.42,1.53-.63,2.22.05,0,.11,0,.16,0,.24-.03.54,0,.79,0l5.53-16.55,1.76-.09c.04-.14.22-.26.16-.47l-2.62.15c-1.62,4.94-3.48,9.82-5.15,14.75Z"/><path class="cls-17" d="M164.95,76.62l-2.08,7.91,3.86.14,2.48-8.23c-1.4.3-2.85.09-4.27.17Z"/><path class="cls-17" d="M161.29,97.21l-.32,1.58c1.39.07,2.75-.12,4.13-.23l.31-1.36h-4.12Z"/><path class="cls-17" d="M160.42,103.08c-.59.1-.56,1.11-.55,1.59h3.49l.32-1.59c-.99.12-2.31-.16-3.25,0Z"/><path class="cls-17" d="M160.66,100.07c.02.33-.48,1.62.08,1.59,1.09-.07,2.19-.26,3.31-.18l.58-1.41h-3.97Z"/><path class="cls-24" d="M98.72,34.98s2.48,3.07,3.1,4.78c.62,1.71,1.4,5.14,1.35,6.91-.06,1.77-.31,4.44-.31,4.44l1.49,5.4-.64,4.37-3.67-.34s-2.07,5.07-2.64,6.29c-.57,1.22-1.27,3.28-2.72,3.44-1.45.16-6.68-.05-6.68-.05,0,0-2.38,2.53-2.64,3.21-.25.68-1.99,3.68-2.27,4.21-.28.52-1.35,5.03-2.16,5.82-.81.79-9,5.23-9,5.23l-2.1-10.08s-3-2.75-4.21-3.67c-1.2-.92-2.23-2.28-2.23-2.28,0,0,2.92-4.85,3.64-6.92.72-2.07,2.02-9.69,2.02-9.69,0,0,4.55-2.75,4.76-3.01.21-.26.77-4.04,1.35-4.8.58-.76,3.75-1.96,4.17-1.82.42.14,2.87,2.5,2.87,2.5,0,0,1.2-1.71,1.17-2.89-.04-1.18-.97-2.38-1.3-4.47-.33-2.08-.82-5.45.05-5.68.87-.23,4.41-1.38,4.41-1.38l11.38-.24.81.72h0s0,0,0,0Z"/><path class="cls-22" d="M97.45,65.08c-.7-.09-1.39-.3-2.01-.63-.24-.13-.53-.11-.7.13-.14.21-.1.57.13.69.77.41,1.6.67,2.45.79.07-.32.1-.65.12-.99h0Z"/><path class="cls-7" d="M97.9,50.01l-.04.17c-.02.1-.06.19-.12.26-.05.08-.11.15-.2.2-.08.05-.17.09-.26.1-.1.03-.19.02-.29,0l-.18-.07c-.11-.06-.21-.15-.27-.25l-.08-.17c-.04-.13-.04-.25-.02-.38l.04-.17c.02-.1.06-.19.12-.26.05-.08.11-.15.2-.2.08-.05.17-.09.26-.1.1-.03.19-.02.29,0l.18.07c.11.06.21.15.27.25l.08.17c.04.13.04.25.02.38Z"/><path class="cls-9" d="M80.27,149.44c-.67-1.2-.36-3.22-.36-4.7,0-.36-.36-3.81-.36-5.07,0-1.68,0-3.38,0-5.07-.59-11.52.1-23.21,0-34.74l-1.72-10.07-.81-.78c-.6-.38-.81-2.01-.82-2.62-.04-3.36.43-6.07.74-9.41-.34-2.19-1.63-2.09-3.18-2.81-1.62-1.2-15.98-8.85-15.98-8.85-1.29.04.33,7.21.13,7.29,0,0-4.73,1.19-6.34,2.47-5.11,1.63-15.53,5.81-19.3,9.37-14.26,13.47-16.08,16.87-20.09,25.11-18.85,38.77,7.1,45.8,7.1,45.8-1.04,5.83-1.2,5.72-.97,7.63.1,1.84,8.21,3,9.74,3.31,14.54,2.99,33.15,3.76,47.6.36.73-.17,4-.94,4.27-1.16.67-.57.31-14.88.36-16.05h0ZM14.73,133.15c-.05-.12-.08-.24-.13-.36.08.1.16.19.25.28l-.12.08h0Z"/><path class="cls-25" d="M87.93,105.77c-.96-2.73-4.25-11.51-4.31-13.81-.07-2.38,4.18-6.71,3.88-8.24-.06-.32-4.1-3.97-4.63-4.58-.33,2.46-1.63,5.88-1.81,7.97-.62.52-.62.76,0,.73-.44.07-.44.68,0,1.81l-.47,1.32c.11,8.45-17.5,32.71-14.23,44.4,1.96,7.01,20.16,10.79,27.61,5.32,9.32-6.85,24.79-29.6,25.31-31.27,1.05-3.34-10.88-17.43-11.43-17.38-4.17.32-19.02,16.29-19.92,13.75h0Z"/><path class="cls-6" d="M81.55,82.88c-.1,1.15-1.95,16.92-1.95,16.92-.7-3.45-2.95-6.99-3.23-10.46-.06-.78-.17-5.87.03-6.07.15-.16,4.55.26,5.16-.39h0Z"/><path class="cls-19" d="M53.81,144.56c1.68-2.29,1.78.77,1.43,2.63-.29,1.56-2.92,6.72-4.02,8.03-6.2,7.41-15.18,6.1-12.45,4.09,3.9-2.86,5.45-3.03,7.12-4.46,4.73-4.04,5.67-7.22,7.93-10.3h0Z"/><path class="cls-15" d="M114.61,113.6c.23.09.34,0,.33-.23,0-.17-4.65-2.28-7.55-5.57-2.04-2.31-4.78-7.86-5.35-8.72-.47-.71-.5,1.06-.5,1.06,3.63,11.85,12.78,13.34,13.07,13.45h0Z"/><path class="cls-4" d="M59.76,73.09c-.81-.28-1.32-.6-1.89-.52-.99.13-3.68,1.12-4.68,1.32-2.2.44-4.4,1.07-6.56,1.88-.25.58,14.03-1.89,13.14-2.67h0Z"/><path class="cls-27" d="M80.92,89.68c.24-1.06-.36-2.16-1.08-1.09-1.34,4.01-.39,7.28-.36,11.23.1,11.54-.58,23.24,0,34.78,0,1.69,0,3.39,0,5.07,0,1.25.05,8.58.72,9.78.05-1.29.72-14.01.72-15.22,1.37-15.01.07-29.6,0-44.56h0Z"/><path class="cls-11" d="M66.83,100.23v-.77c.29-.29.85-.49,1.1-.77-.17.81-.61,1.05-1.1,1.54h0Z"/><path class="cls-10" d="M63.28,81.34h-.38c-.19-1.46.57-1.46.38,0Z"/><path class="cls-2" d="M28.6,81.78c.29.15.29.29,0,.44v-.44Z"/><path class="cls-7" d="M67.66,42.75c-.43,5.06.89,10.13.28,15.17-.08.3-.18.59-.28.88-.03.07-.03.14-.02.22-.13.31-.03.69.22.85-.04.23-.08.47-.12.7-.44,2.28-1.1,4.43-2.11,6.49-1,2.06-2.28,3.95-3.69,5.74-.23.29-.26.69.03.96.25.23.73.25.96-.03.86-1.09,1.68-2.22,2.42-3.4,1.25-1.99,2.25-4.13,2.94-6.37.46-1.5.78-3.04,1.01-4.59.89-.65,1.58-1.58,2.24-2.47.89-1.21,1.66-2.49,2.31-3.83.02-.03.04-.07.05-.1.04-.09.09-.18.13-.26.09-.18.08-.36.02-.5.06-.3.11-.59.18-.89.45,2.25,2.55,3.91,4.86,3.84.87-.03.81-1.38-.06-1.35-.44.01-.96-.08-1.34-.24-.48-.2-.84-.43-1.2-.79-1.24-1.21-1.3-3.25-.2-4.57.55-.66,1.33-1.07,2.14-1.17.89-.1,1.69.07,2.44.56.03.02.07.04.11.05.43.42.76.95.92,1.49-.34.6.51,1.33,1.03.76,3.53-3.94.52-9.71-1.05-13.91,2.55.73,5.19.87,7.82,1.19.58.07.95-.45.69-.97-.05-.1-.1-.2-.16-.29,2.53.26,5.11.52,7.56-.31.16-.06.28-.17.36-.3.24.22.47.45.68.69.09.09.17.19.25.28.02.03.04.04.04.05,0,0,.01.01.02.03.03.04.06.07.08.1.14.17.26.35.39.53.32.47.6.97.88,1.47,1,1.84,1.67,3.9,1.9,5.93.25,2.19.1,4.38-.17,6.53-.02.13,0,.26.04.38,0,.13.03.27.09.4.68,1.32,1.11,2.78,1.28,4.26.08.77.1,1.54.05,2.31-.02.34-.07.68-.12,1.02-.03.2-.07.4-.11.59l-.02.11-.45-.05-.85-.09-1.81-.2c-.36-.04-.71.11-.81.49,0,.02-.02.03-.03.05-.07.17-.14.34-.21.51-.91-.22-1.84-.37-2.78-.46-.21-.16-.5-.16-.75-.04-1.37.66-2.63,1.55-3.71,2.62-.08.01-.15.04-.22.09-.81.56-1.81.57-2.74.25-.77-.27-1.47-.83-2.09-1.44-1.05-1.44-1.95-2.99-2.66-4.63-.08-.17-.2-.31-.35-.39,0,0,0-.01-.02-.02-.59-.44-1.18-.88-1.77-1.32-.15-.11-.29-.18-.48-.18,0,0-.02,0-.02,0h0c-.35-.17-.81-.08-.86.41-.22,1.99-.43,3.99-.42,5.99-.04.09-.07.19-.07.29,0,1.17-.08,2.36,0,3.53.04.56.16,1.1.4,1.61.24.49.61.91,1.01,1.26.76.67,1.62,1.26,2.47,1.82.63.42,1.28.81,1.94,1.19-1.78,2.51-4.54,7.93-6.02,12.59-.27.83.8,1.38,1.2.64.39-.74,2.11-6.14,2.51-6.87,1.07-1.94,2.17-3.93,3.49-5.73.76.38,1.53.74,2.31,1.06.86.35,1.74.7,2.64.91,1.53.37,3.4.35,4.45-1.01.59-.77.76-1.7.84-2.64.07-.73.08-1.54.31-2.23.15-.06.29-.14.43-.22.12-.07.22-.15.33-.24.04-.03.08-.06.11-.09.23-.07.41-.28.47-.49.04-.16,0-.36-.09-.5-.1-.16-.24-.23-.41-.29-.09-.03-.18-.06-.27-.09.29-.69.58-1.38.87-2.06.31.06.62.11.94.16.41.07.87.21,1.25,0,.76-.43.46-1.52.4-2.22-.03-.33-.25-.52-.5-.58-.07-.05-.14-.09-.22-.11-.21-.08-.42-.14-.63-.21,0,0,0-.02,0-.02,1.01.12,2.03.25,3.03.32,1.18.09,1.25-1.43,1.35-2.27.11-.92.14-1.85.07-2.77-.14-1.82-.64-3.58-1.46-5.21.08-.6.14-1.2.19-1.8.19-2.22.19-4.36-.27-6.63-.46-2.26-1.42-4.44-2.69-6.36-.76-1.15-1.77-2.13-2.87-2.98,1.69-1.18,3.07-2.97,1.52-4.7-2.25-2.52-6.43-1.18-9.19-.62-.74.15-1.11.07-1.69-.42-.31-.26-.52-.54-.89-.73-.59-.3-1.26-.38-1.91-.42-1.31-.09-2.65,0-3.91.38-2.54.76-4.43,2.67-6.04,4.69-.05.06-.08.12-.1.18-.34.23-.67.47-.99.72-.11-.03-.22-.07-.34-.09-.12-.03-.22-.03-.32,0-.17-.08-.37-.09-.58.03h0c-3.75,2.1-5.46,6.3-5.81,10.41h0ZM97.98,63.77c-.28.67-.56,1.33-.85,1.99-.26-.05-.52-.09-.78-.12-.15-.02-.28,0-.41.05-.1,0-.2,0-.28.02-.18.06-.28.17-.38.31-.41.57-.82,1.13-1.22,1.7-.3-.1-.61-.2-.91-.31-.02,0-.04-.01-.05-.02-.04-.02-.09-.03-.14-.05-.09-.03-.18-.07-.27-.11-.13-.06-.26-.11-.4-.17-.3-.22-.59-.45-.88-.68.98-1.23,2.08-2.37,3.27-3.4,1.09.29,2.2.56,3.31.78h0ZM103.66,59.99s.02,0,0,0h0ZM103.36,60.18h0c-.03.12-.03.04,0,0ZM76.32,32.9s.02-.01.03-.02c.02.02.05.04.07.05-.03-.01-.07-.02-.1-.03h0Z"/><path class="cls-15" d="M49.42,116.55c3.39-.89,3.58-1.46,3.58-1.57,0-.1-.03-.14-.07-.17-.03-.03-.07-.05-.11-.07-.52-.27-1.84-.21-3.95.18l-.32.06c-6.8,1.18-16.19,3.59-22.47,5.46-.09.03-.19.05-.28.08-.19.05-.31.08-.4.12.45.17,1.8.38,5.81-.26l.12-.02c4.84-.77,12.24-2.22,17.85-3.74l.24-.07Z"/><path class="cls-15" d="M54.96,137.78c.2.15.33.08.39-.13.04-.17-3.9-3.55-5.8-7.6-1.34-2.85-2.46-9.08-2.77-10.09-.25-.83-.79.91-.79.91.2,12.69,8.73,16.72,8.98,16.91Z"/><path class="cls-15" d="M49.54,143.26c.28-.29.2-.51-.14-.64-.26-.1-6.38,5.59-13.19,7.89-4.79,1.62-14.96,2.27-16.63,2.58-1.37.26,1.31,1.44,1.31,1.44,20.31,2,28.31-10.89,28.66-11.26h0Z"/><path class="cls-3" d="M63.67,118.93c.67-1.3,1.95-1.82,3.29-2.12-1.11.65-2.18,1.45-3.29,2.12Z"/><path class="cls-16" d="M56.06,118.57s1.76-.26,2.19-.63c.43-.37.92-.89,1.43-.98.51-.09,1.71.03,1.93.09.21.06,2.23-.29,3.14-.5.91-.21,9.63-2.27,10.76-2.44,1.13-.16,3.22-.22,3.8.35.58.57,1.22,1.69,1.9,2.21.67.52,2.75,1,3.02,1.15.26.15.35.74.97,1.72.62.98,1.82,1.44,2.45,1.74s1.68.72,1.57,1.52c-.11.8-.54,2.93-1.35,3.89-.82.96-2.5,3.96-3.06,4.31-.56.35-1.13.84-1.13.84,0,0,.19,1.35-.01,1.69-.21.34-1.42.46-1.72.33-.29-.13-1.34-.9-1.96-1.57-.62-.67-1.76-1.78-2.81-2.13-1.05-.35-3.2-.55-4.2-1.1-1.01-.55-1.84-1.62-2.31-1.83-.47-.21-2.6.06-3.22-.07-.62-.13-2.56-1.17-2.56-1.17l-5.1,1.7-3.7-9.1h0Z"/><path class="cls-7" d="M74.2,129.42c.08-.25-.05-.62-.33-.69-.63-.13-1.26-.36-1.78-.73-.14-.1-.19-.14-.29-.25-.13-.15-.24-.33-.36-.49-.24-.34-.55-.6-.94-.76-.67-.28-1.42-.2-2.12-.19-.7,0-1.44-.13-2.12-.41-.42-.17-.81-.4-1.16-.68-.07-.15-.2-.28-.37-.31-.13-.12-.25-.25-.37-.38-.45-.52-1.28.17-.82.69.03.03.06.07.09.1-1.01.5-1.99,1.03-2.97,1.58-.25.14-.39.44-.26.72.12.25.46.4.72.26,1.11-.62,2.23-1.22,3.37-1.77.92.7,2.04,1.14,3.2,1.26.72.07,1.48-.1,2.19.06.29.07.5.21.7.47.24.32.44.63.75.89.61.5,1.42.82,2.19.98.28.06.58-.04.69-.33h0Z"/><path class="cls-7" d="M69.62,121.29l-1.71,2.03c-.18.22-.11.6.12.75.26.17.56.11.75-.12l1.71-2.03c.18-.22.11-.6-.12-.75-.26-.17-.56-.11-.75.12Z"/><path class="cls-20" d="M95.74,189.99c.41-6.51.82-13.02,1.23-19.53.41-6.51.82-13.02,1.23-19.53.23-3.65.46-7.31.69-10.96.02-.29-.16-.56-.46-.6-.07,0-.14,0-.2.02-.06-.04-.13-.06-.21-.07-3.37-.26-6.74-.58-10.11-.95.3-3.49.62-7.04.1-10.52-.15-1.01-1.88-.4-1.81.02.13.84.22,1.69.26,2.53.02.42.03.85.04,1.27v.16c0,.09,0,.19,0,.28,0,.23,0,.45-.01.68-.02.88-.07,1.75-.13,2.62-.06.92-.14,1.83-.22,2.74-1.49-.17-2.97-.36-4.45-.55-4.61-.6-9.21-1.31-13.79-2.1.2-1.71.41-3.41.73-5.1.08-.46.18-.91.28-1.36.05-.22.1-.44.16-.66.02-.09.05-.19.07-.29,0-.01.02-.06.02-.09.01-.04.03-.11.03-.13.25-.89.54-1.77.89-2.62.18-.44.38-.89.61-1.31.02-.05.05-.09.08-.14-.09.17.03-.05.04-.07.06-.1.13-.2.2-.29.14-.2.3-.39.47-.57.33-.34,1.65-2.65,1.29-2.91-.43-.31-2.36,1.45-2.71,1.81-.64.67-1.08,1.51-1.45,2.35-.37.84-.69,1.75-.96,2.65-.55,1.86-.91,3.77-1.18,5.68-.13.91-.24,1.82-.35,2.73-.22-.04-.45-.08-.67-.12-3.05-.55-6.09-1.13-9.13-1.76-.13-.03-.26.01-.37.09-.17.04-.32.14-.37.31-1.85,6.36-3.65,12.73-5.41,19.11-1.75,6.37-3.46,12.74-5.12,19.14-.93,3.57-1.84,7.15-2.74,10.73-.01.04-.02.07-.03.1-.07.28.2.57.46.6,6.73,1.47,13.51,2.72,20.33,3.76,6.78,1.03,13.59,1.84,20.42,2.45"/><path class="cls-18" d="M95.88,190.33c.37-5.88.74-11.76,1.11-17.64.32-5,.63-10,.95-15l-3.01-.77s-.06-.01-.08-.02h0,0c-.37-.05-.7.21-.75.57l-.14,1.09s-.02.04-.05.03c0,0-.02,0-.03-.01-1.66-1.94-3.57-3.86-5.73-5.62-.41-.36-.92-.6-1.49-.67-.58-.08-1.13.03-1.62.27-11.72,5.29-19.1,15.39-19.41,15.96-.08.13-.14.28-.16.45-.07.5.23.97.67,1.15l3.05,1.01c.4.17.67.57.66,1.01-.05.55-1.02,12.45-.75,16.03,2.28.32,4.58.62,6.87.89.08-1.25.22-3.39.4-5.62,0-.07,0-.15.02-.21.02-.23-.08-.44-.25-.57-.87-.68-1.38-1.77-1.29-2.93.4-4.34.96-9.34,1.71-13.22.06-.32.36-.55.7-.51.35.04.6.35.56.7v.05c-.5,2.58-.91,5.66-1.25,8.7-.05.41.25.78.66.83.41.05.78-.25.83-.66.34-3.07.76-6.16,1.26-8.75.06-.32.36-.55.69-.51.35.04.6.35.56.7v.05c-.5,2.57-.91,5.63-1.25,8.66-.05.41.25.78.66.83.41.05.78-.25.83-.66.34-3.05.76-6.13,1.25-8.71.06-.32.36-.55.7-.51.35.04.6.35.56.7v.05c-.72,3.77-1.28,8.58-1.67,12.82v.04s0,.04,0,.07v.04c-.16,1.15-.87,2.1-1.83,2.59-.17.09-.3.25-.34.45,0,0-.16.64-.28,3.81-.03.9-.05,1.62-.06,2.14,1.9.21,3.81.39,5.71.56"/><path class="cls-20" d="M86.49,190.13c.75-3.15,1.06-4.92,1.06-4.92.03-.19-.1-.35-.29-.4l-2.11-.58c-.33-.1-.51-.34-.55-.61-.02-.16.02-.34.02-.34,2.5-12.42,7.19-16.11,7.19-16.11.14-.11.22-.15.22-.15.12-.07.26-.09.41-.07.28.04.5.24.56.5,0,0,.02.09.01.31-.16,3.99-1.2,10.67-2.1,15.87-.5,2.9-.97,5.38-1.23,6.75"/><path class="cls-7" d="M84.43,132.78c-.06-.19-.15-.37-.24-.55-.02-.03-.03-.06-.04-.09-.05-.11.04.04-.01-.05.03-.05.05-.1.06-.15.03-.01.06-.02.09-.04.97-.39,1.74-1.22,2.34-2.05.66-.9,1.21-1.9,1.7-2.91.58-1.18,1.06-2.41,1.44-3.67.04-.13.03-.25,0-.35,0-.7-.52-1.35-1.09-1.74-.39-.27-.83-.42-1.28-.56-.45-.14-.95-.29-1.29-.56-.38-.31-.39-.74-.47-1.2-.09-.47-.3-.89-.66-1.19-.7-.59-1.64-.67-2.5-.88-.2-.05-.4-.1-.6-.18-.2-.07-.29-.12-.5-.26-.02,0-.02-.02-.03-.02,0,0,0,0,0,0-.04-.03-.07-.06-.1-.1-.07-.07-.13-.15-.19-.23-.16-.24-.28-.52-.41-.78-.26-.5-.61-.93-1.08-1.24-.47-.31-.99-.45-1.53-.53-1.12-.16-2.27.06-3.36.3l-3.84.87-8.56,1.95c-.06.01-.11.04-.15.06-.58-.17-1.19-.33-1.79-.3-.79.03-1.41.36-2,.87-.26.22-.47.43-.78.57-.2.09-.48.15-.74.19-.59.09-1.26.1-1.88.28-.28.08-.47.35-.4.65.06.27.37.48.65.4.62-.18,1.19-.18,1.82-.27.63-.09,1.21-.31,1.71-.73.26-.21.49-.46.78-.63.24-.15.49-.23.75-.25.62-.05,1.22.14,1.82.33.22.07.4,0,.51-.13l7.34-1.67,3.71-.85c1.08-.24,2.18-.56,3.29-.62.92-.05,1.93.07,2.52.81.31.38.45.87.72,1.28.27.41.62.72,1.06.93.79.37,1.65.42,2.47.68.08.03.16.06.24.09,0,0,.14.07.17.09.04.03.09.06.13.08,0,0,.02.02.03.03.06.05.11.11.16.17,0,.01.05.08.05.09.02.03.03.07.05.1.02.04.05.18.07.26.05.25.06.51.13.76.37,1.27,1.68,1.58,2.78,1.96.2.07.3.11.52.25.22.14.27.17.44.37.03.03.06.07.08.1,0,0,0,0,0,0,.01.02.03.05.04.07.02.03.03.06.05.09,0,.02.02.04.02.05,0,0,0,.02.01.05,0,.02,0,.04.01.07,0-.03,0,.1,0,.13,0-.02.03-.09,0,0-.02.07-.04.13-.07.19-.04.08-.04.17-.02.25-.57,1.76-1.33,3.44-2.3,5.01-.46.74-.97,1.47-1.66,2.02-.3.24-.65.46-.99.55-.31.08-.62.1-.89.02-.26-.08-.43-.25-.43-.54,0-.35.2-.69.39-1.02.14-.25.09-.59-.17-.74-.7-.4-1.43-.09-2.06.29-.14.08-.28.17-.42.24-.07.04-.14.07-.21.11-.03.01-.06.03-.09.04,0,0-.02,0-.03.01,0,0-.02,0-.03,0-.06.01-.12.03-.19.05h0s-.07,0-.11,0c.11,0,.01,0-.05-.03,0,0-.02-.01-.03-.02-.03-.03-.07-.07-.1-.1-.13-.18-.18-.42-.22-.63-.06-.26-.08-.52-.07-.79.01-.52.3-1.1.02-1.58-.38-.65-1.21-.45-1.78-.25-.51.18-1.02.43-1.57.47-.26.02-.55-.01-.77-.14-.09-.06-.16-.12-.22-.2,0,0-.07-.11-.06-.1,0,0-.04-.09-.05-.1-.18-.47-.09-1.03-.02-1.54.04-.27-.26-.57-.52-.55-.07,0-.14,0-.21,0-.01,0-.02,0-.03,0-.03,0-.06-.01-.08-.02-.01,0-.08-.03-.12-.04-.01,0-.11-.06-.12-.06-.05-.03-.09-.06-.14-.1,0-.01-.09-.09-.1-.1-.04-.04-.07-.07-.1-.12-.01-.02-.03-.04-.04-.05,0,0,0-.02-.03-.04-.04-.06-.07-.12-.1-.18,0,0-.03-.08-.04-.09-.02-.06-.04-.11-.05-.17,0-.02-.02-.15-.02-.14,0-.04,0-.08,0-.13,0-.02.02-.14.01-.14.01-.06.03-.11.05-.17,0,0,0-.02,0-.02.01-.03.03-.05.04-.08.08-.13.09-.26.06-.38,0-.02.02-.03.02-.05.05-.1.11-.19.17-.28s.13-.18.2-.27c0-.01.06-.07.07-.08.04-.04.08-.08.11-.12.08-.08.16-.15.24-.22.04-.04.08-.07.13-.1,0,0,.07-.05.09-.06.19-.13.4-.24.61-.33.25-.11.34-.43.25-.66-.09-.25-.36-.39-.62-.34,0,0-.06,0-.08.01h-.1s0,0-.01,0c-.04,0-.08-.02-.12-.03,0,0-.02,0-.02,0-.03-.02-.06-.03-.09-.05-.02,0-.03-.02-.04-.03-.02-.02-.05-.05-.07-.07-.02-.02-.06-.1-.02-.02-.01-.03-.03-.06-.05-.08,0,0,0-.02-.01-.02h0s-.02-.08-.03-.12c0,0,0-.02,0-.02h0v-.16s.02-.08.03-.11c.09-.27-.09-.6-.36-.67-.28-.07-.58.08-.67.36-.17.54-.04,1.15.33,1.58.05.06.11.11.17.16-.54.46-.95,1.05-1.22,1.71-.04.09-.03.19,0,.28-.38,1.15.37,2.57,1.54,2.87-.07.93.08,1.93.98,2.42.55.3,1.21.33,1.82.2s1.13-.42,1.72-.56c.02,0,.06-.02.11-.02-.06.28-.11.56-.12.85-.03.59.07,1.2.29,1.75.21.52.63.92,1.2.99.36.04.72-.08,1.04-.24.34-.17.66-.39,1-.56.02,0,.03-.02.05-.02-.22.62-.24,1.27.23,1.83.36.42.89.59,1.44.6.01.18.07.37.15.55.03.06.06.12.09.19.02.03.03.06.05.09,0,0,.03.07.04.09,0,.02.02.06.03.08,0,.03-.02.07,0,.04,0,0,0-.01,0-.01,0,.02-.03.06-.04.07-.04.05-.16.14-.26.17-.18.06-.34.07-.52.05-.35-.03-.69-.18-1-.37-.78-.5-1.3-1.3-1.96-1.94-.7-.68-1.5-1.2-2.4-1.58-1-.42-2.07-.61-3.14-.75-.29-.04-.54.25-.55.52,0,.32.23.51.52.55.95.13,1.9.32,2.8.69.89.37,1.61.9,2.24,1.57.67.71,1.28,1.53,2.16,1.99.82.44,1.89.61,2.68.02.43-.32.63-.86.47-1.37h0ZM77.97,126.77s0,0,0,.02c0-.01,0-.02,0-.02ZM78.06,126.93s.03,0,.03.01c0,.02,0,0-.03-.01ZM79.32,129.43s.07.02,0,0h0ZM84.12,132.07s0,0,0,0c.01-.02,0-.01,0,0,0,0,0,0,0,0Z"/><path class="cls-18" d="M69.84,147.32c-.03-.1-.27-.08-.57-.25-.31-.15-.7-.52-1.05-1.11-.2-.31-.41-.68-.75-1.06-.17-.19-.38-.39-.65-.54-.27-.16-.61-.27-.95-.28-.68-.03-1.24.2-1.71.32-.25.07-.39.08-.59.07-.19,0-.36-.07-.44-.13-.07-.06-.07-.06-.08-.17,0-.11.06-.35.13-.66.07-.3.12-.79-.11-1.21-.22-.41-.56-.65-.9-.78-.33-.13-.69-.16-1.02-.11-.31.05-.58.16-.81.28-.46.25-.78.53-1.07.76-1.17.94-1.84,1.61-1.73,1.76.1.15.97-.23,2.27-.97.33-.19.67-.4,1.01-.53.17-.06.33-.11.49-.11.13,0,.27.02.4.08.12.06.21.15.22.21.02.05.03.12-.03.34-.05.21-.17.5-.19.94-.03.45.24,1.02.64,1.28.39.27.79.35,1.15.37.35.03.76-.05,1.02-.14.56-.18.99-.35,1.31-.35.59-.06,1.14.65,1.63,1.22.53.62,1.17,1,1.68,1.04.52.04.74-.19.71-.26h0Z"/><path class="cls-6" d="M151.68,49.51l-1.5,4.62c-.07.21-.13.43-.04.63.19.4.88.53,1.47.59,1.42.13,2.85.18,4.28.22,3.15.09,6.3.18,9.45.27.68.02,1.38.04,2.03-.12,1.76-.44,2.39-1.93,2.78-3.22.23-.76.46-1.53.69-2.3.14-.45.24-1-.23-1.32-.36-.24-.9-.26-1.4-.26-5.01,0-10.02-.01-15.03-.02-.67,0-1.39,0-1.96.26-.57.25-.9.84-.5,1.22"/><path class="cls-6" d="M135.07,95.24c-.32.84-.64,1.68-.96,2.52-.04.11-.09.23-.03.34.12.22.56.29.94.32.91.07,1.83.1,2.75.12,2.02.05,13.73.1,15.75.14.44.01.89.02,1.3-.07,1.13-.24,1.53-1.05,1.78-1.76.15-.42.3-.84.45-1.25.09-.25.15-.55-.15-.72-.23-.13-.58-.14-.9-.14-3.21,0-16.11,0-19.32,0-.43,0-.89,0-1.26.14-.37.14-.58.46-.32.67"/><path class="cls-6" d="M132.66,101.58c-.32.79-.64,1.59-.96,2.38-.04.11-.09.22-.03.32.12.21.56.27.94.3.91.07,1.83.09,2.75.11,2.02.05,13.73.09,15.75.14.44,0,.89.02,1.3-.06,1.13-.22,1.53-1,1.78-1.66.15-.39.3-.79.45-1.18.09-.23.15-.52-.15-.68-.23-.12-.58-.13-.9-.13-3.21,0-16.11,0-19.32,0-.43,0-.89,0-1.26.13-.37.13-.58.43-.32.63"/><path class="cls-17" d="M165.48,59.3c0-.22-3.78-.42-8.44-.53-4.67-.11-8.46-.09-8.47.13-.02.21,3.76.54,8.44.65,4.68.11,8.48-.04,8.48-.25h0Z"/><path class="cls-17" d="M164.38,62.52c0-.27-3.83-.52-8.55-.66-4.73-.14-8.57-.11-8.58.16-.02.27,3.81.67,8.55.81,4.74.14,8.59-.04,8.59-.31h0Z"/><path class="cls-6" d="M142.89,71.7c-.5,1.54-1,3.08-1.5,4.62-.07.21-.13.43-.04.63.19.4.88.53,1.47.59,1.42.13,2.85.18,4.28.22,3.15.09,6.3.18,9.45.27.68.02,1.38.04,2.03-.12,1.76-.44,2.39-1.93,2.78-3.22.23-.76.46-1.53.69-2.3.14-.45.24-1-.23-1.32-.36-.24-.9-.26-1.4-.26-5.01,0-10.02-.01-15.03-.02-.67,0-1.39,0-1.96.26-.57.25-.9.84-.5,1.22"/><path class="cls-17" d="M156.91,81.49c0-.22-3.83-.42-8.55-.53-4.73-.11-8.57-.09-8.58.13-.02.21,3.81.54,8.55.65,4.74.11,8.59-.04,8.59-.25h0Z"/><path class="cls-17" d="M155.59,84.79c0-.22-3.83-.42-8.55-.53-4.73-.11-8.57-.09-8.58.13-.02.21,3.81.54,8.55.65,4.74.11,8.59-.04,8.59-.25h0Z"/><path class="cls-5" d="M172.29,66.8c0-.12-4.76-.24-10.62-.3-5.87-.06-22.97-.16-22.99-.04-.02.12,17.03.16,22.92.22,5.89.06,10.7.24,10.7.12h0Z"/><path class="cls-24" d="M109.9,95.35l23.64-12.03,11.09,10.22,2.18.43-1.7,1.6-8.71-3.75-.96,1.18-4.54,1.11,4.58,2.24-.22,1.59-6.23.45-5.45-.81-5.32,5.25-1.38.49-6.98-7.96h0Z"/><path class="cls-12" d="M146.48,92.83c-.3-.05-.62,0-.92,0l-.71.04c-.32-.27-.62-.58-.92-.85-.8-.73-1.6-1.45-2.41-2.17-.91-.81-1.84-1.62-2.78-2.4-.41-.34-.83-.68-1.25-1.01-.17-.13-.35-.27-.53-.39-.08-.06-.16-.11-.24-.17-.04-.04-.08-.07-.12-.11-.03-.03-.06-.06-.08-.1-.18-.24-.33-.49-.47-.75-.07-.12-.08-.15-.16-.32-.06-.12-.12-.24-.18-.36-.11-.21-.2-.42-.36-.59-.27-.29-.75-.41-1.13-.49-.93-.19-1.75.08-2.62.39-.61.22-1.24.42-1.84.67-1.66.68-3.28,1.5-4.9,2.29-1.6.79-3.18,1.61-4.75,2.44-3.17,1.69-9.28,5.62-12.42,7.34-.42.23-.84.46-1.26.69-.29.16-.33.61-.15.86.21.3.57.31.86.15,3.14-1.71,9.24-5.63,12.39-7.33,3.07-1.66,6.18-3.25,9.36-4.7.62-.29,1.25-.57,1.89-.8.35-.13.7-.25,1.05-.37.37-.13.75-.29,1.14-.39.36-.09.74-.08,1.1,0,.14.03.27.09.4.14,0,0,0,0,0,0,.02.04.04.07.06.11,0,.02.02.03.03.05.06.12.12.24.19.37.15.3.3.59.47.88.17.29.35.53.57.75.15.15.34.27.51.39.39.28.76.58,1.13.88.93.75,1.83,1.53,2.72,2.32,1.34,1.18,2.65,2.41,3.99,3.59.03.03.07.06.1.09.09.06.18.1.28.12.06.01.12.02.18.02h0l.87-.05.42-.02c.06,0,.12,0,.18,0,.02,0,.04,0,.06,0,0,0,0,.02,0,.02v.04s0,.02,0,.03c0,.04-.02.08-.03.1.04-.14-.03.05-.05.08,0,0,0,.01,0,.02,0,0,0,0-.01.02-.03.04-.06.08-.09.11-.01.01-.08.08-.1.1-.03.02-.09.07-.1.08-.04.03-.09.06-.13.09-.02,0-.05.03-.07.04-.06.03-.11.05-.17.07-.08.03-.16.05-.24.07-.01,0-.1.02-.12.02-.07,0-.14.02-.21.02-.06,0-.12,0-.18,0h-.1c-.26-.01-.52-.06-.77-.11-.02,0-.03-.02-.05-.03-1.23-.6-2.45-1.2-3.68-1.8-1.95-.95-3.9-1.91-5.85-2.86-.45-.22-.9-.44-1.35-.66-.72-.35-1.26.76-.54,1.11.02.01.05.02.07.04-.2.1-.4.19-.6.28-.97.45-1.94.91-2.87,1.43-.58.32-1.63.78-1.33,1.62.17.48.75.66,1.19.78.54.15,1.1.23,1.65.33.6.1,1.2.2,1.79.36.06.02.12.03.18.05.05.01.18.06.06.02.16.06.32.12.48.18.38.14.76.27,1.13.43.18.08.36.16.53.26.13.07.19.13.26.25.09.17.13.51.07.67-.03.07-.11.15-.18.19.03-.02-.12.03-.12.04-.12.02-.24.03-.36.05-.47.06-.93.12-1.4.17-1.76.2-3.56.34-5.33.13-.87-.1-1.75-.28-2.58-.57-.46-.16-.91-.38-1.42-.36-.5.02-.92.3-1.27.63-.65.61-1.24,1.3-1.85,1.96-.61.65-1.18,1.26-1.78,1.89-1.17,1.21-2.38,2.39-3.69,3.45-.35.29-.71.56-1.07.83-.64.48.07,1.5.71,1.01h0c2.8-2.1,5.16-4.66,7.54-7.21.31-.33.61-.66.92-.98.25-.26.45-.41.81-.31.45.12.87.32,1.32.45.44.13.86.22,1.3.3,1.8.32,3.64.29,5.45.12.9-.08,1.81-.19,2.7-.32.96-.14,1.57-.81,1.55-1.79,0-.41-.14-.86-.4-1.18-.25-.33-.62-.54-1-.72-.68-.31-1.42-.58-2.13-.8-.37-.11-.75-.19-1.13-.27.56,0,1.13,0,1.69-.04.61-.03,1.28-.04,1.85-.29.51-.24.92-.64,1.23-1.13,1.85.9,3.7,1.81,5.55,2.72.45.22.9.44,1.35.66.02.01.05.02.07.03.07.05.14.08.23.1,1.05.21,2.24.25,3.11-.48.46-.38.78-.86.81-1.47.02-.6-.37-1.18-.98-1.27h0ZM134.4,84.45s0,0,0,.01c-.06-.05-.02-.04,0-.01ZM136.58,85.75s0,0,0,0h0ZM128.72,93.95s0,0,0,0c-.02.02-.03.03-.04.03,0,0,.03-.02.04-.04ZM134.46,92.6c-.5.15-1.07.13-1.59.15-.68.03-1.37.03-2.05.01.25-.13.51-.25.76-.37.77-.37,1.54-.73,2.32-1.05.44.22.89.43,1.33.65-.19.28-.45.51-.78.6ZM146.23,94.13s0,.02,0,0h0ZM146.23,94.12v-.05s0,.03,0,.05ZM146.29,94.04s.07.02,0,0h0Z"/><path class="cls-21" d="M147.25,115.48c-1.9.59-3.32,2.49-3.34,4.48-.04,4.08,4.91,6.72,5.36,10.77.23,2.04-.76,4.04-2.03,5.66-1.97,2.53-2.5,5.86-5.52,6.92-.98-.62-2.3-2.67-2.53-3.26-1.09.73-.88,2.2-1.65,3.26-.04-.7-1.4-2.14-2.09-2.23-.27-.04-.54.08-.8.19-.77.34-1.55.68-2.32,1.02-.23-.79-.22-1.66.05-2.44-1.35.03-2.68.53-3.71,1.4-.33.28-.99.51-1.07.08-.03-.16.07-.31.17-.44,1.39-1.78,3.28-3.14,4.71-4.89,1.43-1.76,2.39-4.21,1.49-6.28-.36-.82-.97-1.5-1.55-2.18-1.34-1.54-2.63-3.17-3.4-5.06-.78-1.89-.99-4.09-.17-5.96.27-.62.72-1.24,1.39-1.36"/><path class="cls-21" d="M146.81,115.37c-2.69.93-4.89,3.14-4.19,6.21.6,2.61,2.82,4.47,4.16,6.69.7,1.17,1.18,2.45,1.09,3.84-.12,1.79-1.05,3.32-2.1,4.73-1.47,1.98-2.32,5.54-4.82,6.49l2.2-.4c-1.07-.74-2.03-2.07-2.53-3.26-.19-.46-2.54.51-2.82.72-1.04.81-.97,2.21-1.65,3.26.94-.24,1.88-.48,2.82-.72-.14-.93-1.3-2.15-2.24-2.29-.82-.12-1.84.25-2.59.54-.97.37-1.91.83-2.86,1.25l2.48-.52c-.21-.85-.2-1.61.05-2.44-.06-.06-.14-.08-.23-.06-1.18.06-2.34.3-3.47.67-.5.17-.99.37-1.47.61-.29.15-1.68.94-.67.65l1.26-.23c-.62.02.69-1.42.82-1.56.47-.5.96-.96,1.45-1.43.89-.85,1.81-1.69,2.56-2.68,1.39-1.83,2.32-4.4,1.1-6.56-.63-1.12-1.62-2.04-2.42-3.04-.8-1-1.55-2.1-2.1-3.29-.55-1.19-.89-2.48-.9-3.79,0-1.31.27-3.09,1.48-3.75l-1.2.46.27-.08c.16-.05,1.43-.37,1.36-.63-.07-.26-1.41.14-1.49.17-.71.21-1.51.42-2.07.95-.56.53-.83,1.3-1.01,2.01-.42,1.66-.14,3.44.49,5,.64,1.57,1.66,2.98,2.74,4.28s2.32,2.42,2.53,4.12c.44,3.51-2.64,6-4.87,8.19-.44.43-2.83,2.52-1.15,2.56.8.02,1.76-.32,2.47-.65.62-.28,1.2-1.02,1.86-1.05l-.23-.06c-.24.84-.26,1.6-.05,2.44.09.38,2.24-.41,2.48-.52.39-.17.77-.34,1.16-.51.12-.05,1.04-.44.7-.34l-1.26.23c.88-.02,2.01,1.35,2.14,2.17.05.31,2.62-.42,2.82-.72.67-1.04.63-2.47,1.65-3.26-.94.24-1.88.48-2.82.72.41.99,1.14,1.95,1.88,2.71.35.35.61.64,1.11.6.81-.06,1.65-.38,2.39-.71,2.43-1.11,3.31-3.46,4.58-5.62,1.46-2.48,3.61-4.68,2.84-7.82-.61-2.45-2.6-4.25-3.93-6.3-.73-1.12-1.31-2.38-1.29-3.74.01-.83.26-1.64.69-2.34.38-.62,1.24-1.48,1.66-1.63.11-.04,1.18-.37.92-.56-.3-.22-1.52.23-1.8.33h0Z"/><path class="cls-1" d="M131.06,120.21c3.56.34,7.13.64,10.69.9,1.06.08,1.65-1.42.36-1.51-3.57-.26-7.13-.55-10.69-.9-1.06-.1-1.65,1.39-.36,1.51Z"/><path class="cls-1" d="M133.28,124.9l8.81.6c1.06.07.37-1.76-.44-1.82l-8.81-.6c-1.06-.07-.37,1.76.44,1.82Z"/><path class="cls-1" d="M135.95,129.59c3.43-.07,6.86.1,10.27.52,1.02.13-.36-1.12-.87-1.19-3.52-.44-7.06-.62-10.61-.54-.45,0-.14.47,0,.63.27.3.79.59,1.21.58h0Z"/><path class="cls-1" d="M135.56,134.33c2.09.26,4.21.29,6.32.34.94.02,1.88.04,2.81.04.38,0,1.27.12,1.53-.26.6-.9-1.04-1.94-1.57-1.14.5-.74.73-.13.39-.22-.06-.02-.19,0-.26,0-.31,0-.62,0-.93,0-.9,0-1.8-.02-2.7-.04-1.83-.05-3.68-.06-5.49-.28-1.26-.16-1.22,1.43-.09,1.57h0Z"/><path class="cls-1" d="M132.3,138.02c1.56.62,3.37.61,5.02.65,1.79.04,3.57-.02,5.36-.04.37,0,.81-.28,1.13-.45.1-.05.66-.43.57-.43-1.7.02-3.4.07-5.1.04-1.69-.03-3.59.01-5.19-.63-.23-.09-.73.22-.94.32-.09.04-.82.54-.85.54h0Z"/></g></svg>