<svg xmlns="http://www.w3.org/2000/svg" viewBox="0 0 200 200"><defs><style>.cls-1{fill:none}.cls-3{fill:#f6c243}.cls-4{fill:#fff}.cls-5{fill:#fcb9c4}.cls-6{fill:#fbae5e}.cls-7{fill:#e5a355}.cls-8{fill:#efedea}.cls-9{fill:#a0b4b5}.cls-11{fill:#c1dade}.cls-12{fill:#ce9352}.cls-13{fill:#d6e8ea}.cls-14{fill:#cca88d}.cls-15{fill:#5b3d5b}</style></defs><path id="BG_Strong" d="M194.75 111.75c.93-12.91-5.6-19.9-15.83-24.68-1.62-20.84-.88-56.98-30.3-55.87-33.98 1.05-67.52-7.22-89.45 21.61-51.48 4.03-56.85 19.83-48.9 68.21-9.5 64.91 65.74 55.87 109.86 56.62 52.13.06 88.41-3.29 74.62-65.9Z" style="fill:#575655"/><g id="Illustrations"><path d="M103.22 119.72c-1.18-3.28-2.5-6.52-3.83-9.74-.11-.28-.37-.48-.69-.39-.07.02-.14.06-.19.1l-3.08-7.51s.05-.02.07-.03c.28-.16.33-.49.2-.76-1.57-3.19-3.26-6.33-5.25-9.28-.49-.73-1-1.45-1.53-2.15-.02-.02-.03-.04-.05-.06a.21.21 0 0 0-.04-.06c-1.56-1.97-3.4-3.69-5.46-5.13-2.06-1.45-4.31-2.6-6.59-3.66-1.44-.67-2.9-1.3-4.35-1.93-.06-.02-.11-.04-.17-.05l.57-4.55c.08-.14.12-.3.08-.45-.08-.31-.39-.45-.69-.39-6.22 1.26-12.7 1.3-18.94.13-1.78-.33-3.53-.76-5.26-1.29h-.03a.509.509 0 0 0-.26-.07c-.33 0-.53.26-.56.56-.21 1.83-.55 3.64-1.02 5.42-5.87 2.26-12.01 4.69-16.54 9.21-2.45 2.44-4.1 5.4-5.28 8.64-1.11 3.07-1.91 6.27-2.76 9.42-1.72 6.4-3.3 12.84-4.72 19.32-1.48 6.75-2.8 13.55-3.85 20.38-.98 6.37-1.75 12.8-2.04 19.24-.03.73-.06 1.46-.07 2.19 0 .15.04.27.12.36l.06.06c.01.01.03.02.05.03.01 0 .02.01.03.02.02.01.05.03.08.04.02 0 .04.02.07.02 3.68.88 7.37 1.66 11.09 2.34 3.72.67 7.42 1.23 11.16 1.68 3.72.45 7.46.78 11.2.99 3.72.21 7.44.3 11.16.26 3.68-.04 7.35-.2 11.02-.51l1.39-.12c.3-.03.56-.24.56-.56 0-.27-.23-.55-.51-.56l2.56-30.74-2.6-13.99 8.43-5.83 25.34-.43s.03.09.05.14c.1.28.38.47.69.39.27-.07.49-.4.39-.69Z" class="cls-3"/><path d="M57.32 114.53c.68-.25 9.96-3.38 10.37-3.52s5.77-1.57 5.77-1.57l.51 8.71.48 4.04-.6 1.21-4.57 2.14-2.32 1.45-6.78 3.63-4.22 3.66-.39-8.15-1.93-8.64 3.66-2.96Z" class="cls-14"/><path id="Layer_7" d="M50.41 73.74s.36-4.84.28-6.76c-.08-1.92-.74-8.26-1.07-9.56-.33-1.3-1.17-3.5-1.17-3.5s-3.71.6-4.59-.76c-.88-1.36-1.61-2.95-1.12-3.77s.46-1.17 1.94-1.47 1.96-.3 1.96-.3 2.93-4.48 4.05-5.98 4.49-4.49 7.78-5.33 6.29-1.35 8.5-.99 5.41 1.9 6.75 3.54c1.33 1.64 1.95 4.93 2.04 6.01.1 1.08.1 7.76-.22 9.45-.33 1.69-1.65 6.34-2.4 7.79-.75 1.45-1.96 3.19-2.32 3.53s-1.15 1.34-1.15 1.34l-.73 7.8s-7.62.51-9.83.31-6.93-.45-7.22-.63-1.48-.71-1.48-.71Z" class="cls-14"/><path d="M58.88 132.21c-.07-.2-2.84-16.46-2.84-16.46s9.89-4.08 11.37-4.49c1.48-.41 4.95-1.85 4.95-1.85s.68 8.7.92 9.89c.23 1.19.62 3.39.62 3.39s-5.55 3.2-7.68 4.59c-2.13 1.4-7.34 4.93-7.34 4.93ZM114.8 112.99c.5-.53 7.41-7.46 7.73-7.76s4.47-3.98 4.47-3.98l4.33 7.58 2.23 3.4v1.36l-4.46-.13-.11 6.41-4.46 6.27-.22-5.83h-5.23l-4.27-7.31Z" class="cls-14"/><path d="m146.89 113.09.51-3.28s1.46.03 2.04-.34.86-1.36.86-1.36l-.36-.83 2.32-.39-.2 6.69-5.18-.5Z" class="cls-4"/><path d="M55 113.26c1.2 6.08 2.21 12.19 3.18 18.31.27 1.68.52 3.36.78 5.04.05.3.42.46.69.39.32-.09.44-.39.39-.69-.94-6.12-1.91-12.24-3.01-18.34-.3-1.67-.62-3.35-.95-5.01-.06-.3-.41-.47-.69-.39-.31.08-.45.39-.39.69Z" class="cls-3"/><path d="M133.11 111.9c-.19.25-.39.5-.57.75-.04.06-.06.13-.07.21-.02.07-.01.15.01.22s.05.14.1.19c.04.06.09.11.16.15.13.07.29.1.43.06l.13-.06c.08-.05.15-.12.2-.2.14-.19.29-.39.44-.58l-.09.11s.04-.04.05-.07c.05-.05.09-.11.12-.18a.42.42 0 0 0 .05-.22.42.42 0 0 0-.05-.22.36.36 0 0 0-.12-.18.55.55 0 0 0-.4-.16l-.15.02c-.1.03-.18.07-.25.14ZM128.27 119.37c-1.4 2.17-2.97 4.23-4.32 6.43-.38.62.59 1.18.97.57 1.36-2.2 2.93-4.26 4.32-6.43.39-.61-.58-1.17-.97-.57Z" class="cls-15"/><path d="m146.86 109.74-.51 3.2c-.05.29.07.62.39.69.27.06.64-.08.69-.39l.51-3.2c.05-.29-.07-.62-.39-.69-.27-.06-.64.08-.69.39Z" class="cls-6"/><path d="M119.56 119.59c-1.98-3-3.99-5.97-6.03-8.93-.17-.25-.49-.36-.76-.2-.05.03-.09.07-.13.11-.03.02-.07.05-.09.08-1.19 1.48-2.38 2.97-3.54 4.47-.15.19-.08.48.08.66v4.46l9.65.06c.18.14.42.17.63.05.25-.15.37-.51.2-.76ZM126.22 130.4s.02-.04.02-.06c0-.02.01-.03.02-.05v-.03c.02-.1 0-.2-.03-.3v-.02c0-.02-.01-.04-.03-.05v-.01s-.01-.02-.02-.03c-.39-.61-.77-1.23-1.16-1.84-.16-.25-.51-.37-.76-.2s-.37.5-.2.76c.33.51.65 1.02.97 1.54-.32.36-.65.71-.98 1.07-.1.11-.16.25-.16.4 0 .14.06.3.16.4s.25.17.4.16.29-.05.4-.16c.43-.46.86-.93 1.28-1.4.04-.05.07-.1.1-.15v-.02Z" class="cls-3"/><path d="M121.68 156.5c.8 5.25 1.54 10.51 1.98 15.81.13 1.55.23 3.1.31 4.66.01.3.25.56.56.56.29 0 .57-.26.56-.56-.27-5.41-.88-10.78-1.64-16.14-.22-1.54-.45-3.08-.69-4.62-.05-.3-.42-.46-.69-.39-.32.09-.44.39-.39.69Z" class="cls-4"/><path d="M59.28 46.77c.8 0 .8-1.24 0-1.24s-.8 1.24 0 1.24ZM70.36 46.63h.13c.08 0 .17-.01.24-.05.08-.02.14-.07.2-.13s.1-.12.13-.2c.04-.07.06-.15.05-.24l-.02-.17a.53.53 0 0 0-.16-.27l-.13-.1c-.1-.06-.2-.08-.31-.08h-.13c-.08 0-.17.01-.24.05-.08.02-.14.07-.2.13s-.1.12-.13.2c-.04.07-.06.15-.05.24l.02.17c.03.11.08.2.16.27l.13.1c.1.06.2.08.31.08ZM113.33 115.41c3.37-3.73 6.96-7.26 10.59-10.75 1.05-1.01 2.1-2.01 3.15-3.02.52-.5-.27-1.29-.79-.79-3.64 3.48-7.29 6.95-10.78 10.58-1 1.04-1.99 2.1-2.96 3.18-.48.53.31 1.33.79.79ZM53.66 117.49c4.65-2.14 9.43-4.01 14.22-5.81 1.38-.52 2.77-1.04 4.15-1.55.28-.11.48-.38.39-.69-.07-.27-.4-.5-.69-.39-4.91 1.83-9.83 3.67-14.66 5.72-1.33.57-2.66 1.15-3.98 1.76-.27.13-.34.52-.2.76.17.28.49.33.76.2Z" class="cls-15"/><path d="M97.58 104.47c-1.64 0-3.27.09-4.9.06-1.93-.03-3.61 1-5.37 1.64-.28.1-.48.38-.39.69.07.27.4.5.69.39 1.67-.61 3.31-1.64 5.15-1.6 1.61.04 3.21-.06 4.82-.06.72 0 .72-1.12 0-1.12ZM98.88 109.54c-.91-.34-1.85-.61-2.81-.79-.29-.05-.62.08-.69.39-.06.28.08.63.39.69.96.18 1.9.44 2.81.79.27.1.63-.11.69-.39.07-.32-.1-.58-.39-.69Z" class="cls-9"/><path d="m97.74 109.01-.05-.33a.435.435 0 0 0-.1-.19.463.463 0 0 0-.16-.15.476.476 0 0 0-.21-.07.412.412 0 0 0-.22.01l-.13.06c-.08.05-.15.12-.2.2l-.06.13c-.03.1-.03.2 0 .3l.05.33c.02.07.05.14.1.19.04.06.09.11.16.15.06.04.13.06.21.07.07.02.15.01.22-.01l.13-.06c.08-.05.15-.12.2-.2l.06-.13c.03-.1.03-.2 0-.3ZM142.93 106.59s.06-.17.02-.09c.03-.07.04-.06.01-.03.07-.08.1-.11.16-.15.19-.13.38-.18.62-.24.55-.13 1.14-.11 1.72 0 1.12.19 2.33.45 3.3 1.08.37.24.9.67.94 1.15.01.13-.03.26-.14.4-.1.13-.28.26-.45.33-.56.22-1.23.09-1.79-.04-.63-.15-1.26-.33-1.88-.55-.64-.23-1.26-.52-1.83-.91-.21-.15-.43-.33-.57-.55 0-.01-.01-.03-.02-.04-.02-.05-.02-.05 0 .01-.01-.04-.03-.07-.04-.11-.01-.04-.03-.08-.04-.13 0-.01-.02-.15-.03-.1.04-.3-.07-.6-.39-.69-.26-.07-.64.09-.69.39-.23 1.55 1.43 2.45 2.63 2.96.73.31 1.49.54 2.26.74s1.67.38 2.49.17c.67-.17 1.27-.66 1.5-1.32.26-.76-.15-1.53-.68-2.06-1.02-1.03-2.51-1.43-3.89-1.7-.9-.18-1.81-.27-2.71-.06-.7.16-1.42.55-1.6 1.29-.17.7.91 1 1.08.3ZM157.61 93.67l.04-.02h-.57l-.03-.02-.14-.25c.17.41-.21.95-.49 1.22-.42.41-.99.65-1.52.88-1.13.49-2.35.89-3.59.74-.3-.04-.56.28-.56.56 0 .33.26.52.56.56 1.65.19 3.36-.46 4.81-1.2.69-.35 1.35-.85 1.69-1.56.17-.35.27-.74.25-1.14-.01-.24-.06-.49-.25-.66a.619.619 0 0 0-.76-.08c-.62.37-.05 1.34.57.97Z" class="cls-9"/><path d="M150.95 96.24c-1.2.56-2.38 1.14-3.57 1.73-.26.13-.36.52-.2.76.17.27.49.34.76.2 1.18-.59 2.37-1.17 3.57-1.73.27-.12.35-.53.2-.76-.18-.27-.48-.33-.76-.2Z" class="cls-9"/><path d="m147 98.12-1.41 1.92c-.42.58-.83 1.17-1.31 1.7-.94 1.04-2.2 1.45-3.51 1.82-.69.2-.4 1.28.3 1.08 1.46-.42 2.89-.9 3.94-2.05.54-.58.98-1.24 1.45-1.87l1.5-2.04c.18-.24.04-.62-.2-.76-.28-.17-.59-.04-.76.2Z" class="cls-9"/><path d="M75.9 41.47c-.06-.33-.46-.52-.76-.44-.35.1-.49.43-.44.76.89 4.98.94 10.16-.34 15.08-.62 2.37-1.49 4.78-2.82 6.85-.58.9-1.3 1.74-2.21 2.32-.84.54-1.83.88-2.79 1.01-2.42.32-4.92-.36-7.12-1.33-.31-.13-.67-.09-.85.22-.16.27-.08.72.22.85 2.15.95 4.5 1.65 6.88 1.57 1.15-.04 2.27-.27 3.32-.73-.23 2.91-.41 5.82-.57 8.73-.02.34.3.62.62.62.35 0 .61-.29.62-.62.16-3.13.37-6.27.62-9.4v-.07c.58-.42 1.1-.91 1.55-1.47.79-.97 1.4-2.05 1.92-3.19a28.86 28.86 0 0 0 1.45-3.78c.79-2.55 1.22-5.21 1.35-7.87.15-3.06-.12-6.12-.66-9.12ZM51.28 65.99c-.1-2.83-.38-5.67-.98-8.43-.27-1.22-.59-2.43-1.07-3.59a.813.813 0 0 0-.21-.3c-.13-.29-.43-.4-.73-.35-.8.13-1.64.24-2.46.14-.77-.09-1.28-.39-1.71-.97-.44-.58-.76-1.22-.87-1.92-.04-.28-.02-.64.07-.95.09-.29.24-.56.49-.76.63-.51 1.65-.35 2.43-.18.33.07.67-.1.76-.44.08-.31-.11-.69-.44-.76-1.04-.23-2.18-.36-3.16.16-.91.49-1.38 1.5-1.42 2.5-.04.93.35 1.88.84 2.66.53.83 1.21 1.49 2.18 1.75.21.06.41.09.62.12 0 .05.01.09.03.14.03.11.06.23.09.36-3.31-.19-6.6.79-9.26 2.78-.13.1-.21.23-.24.36-.16.13-.24.34-.15.6a25.11 25.11 0 0 0 5.78 8.99c.21.21.45.22.66.13.17.03.36 0 .53-.14 2.69-2.29 4.43-5.51 4.93-8.96.42.68.78 1.39 1.04 2.13l.45 2.11c0 .05 0 .1.01.15 0 .11.04.2.08.28l.03.12c.04.21.18.32.33.36.14 1.98.17 3.96.11 5.94-.06 1.71-.19 3.41-.41 5.11-.04.33.32.62.62.62.37 0 .58-.29.62-.62.4-3.02.51-6.08.41-9.13ZM50.14 46.81c0-1.16-.06-2.31-.1-3.47-.02-.76-1.14-.8-1.24-.11-.56.99-1.16 2.17-1.19 3.34-.49-.18-1.13.33-.77.88.48.74 1.95 3.13 2.89 1.65.4-.63.41-1.56.41-2.28Z" class="cls-15"/><path d="M67.66 49.56c.19.8.54 1.56 1 2.24.19.28.42.57.51.9.07.24 0 .38-.17.52-.27.22-.62.37-.92.52-.35.18-.71.33-1.09.44-.32.08-.66.13-.98.07-.4-.08-.74-.33-1.15-.4-.45-.08-.92 0-1.36-.08a.659.659 0 0 1-.35-.15s-.03-.05-.04-.1v.04c0 .02.04-.07.01-.02.4-.69-.67-1.32-1.07-.63-.26.44-.21.99.08 1.41.33.47.86.65 1.41.7.46.05.92-.05 1.35.13.5.21.96.38 1.52.36 1.01-.03 1.97-.5 2.84-.98.39-.22.78-.49 1-.89.27-.49.24-1.04.03-1.55-.21-.5-.56-.91-.83-1.38s-.46-.97-.59-1.49c-.19-.78-1.39-.45-1.2.33Z" class="cls-15"/><path d="M65.99 57.61c-.25-.25-.63-.22-.88 0-.49.44-1.25.65-1.86.54-.39-.07-.61-.17-.93-.38-.12-.08-.21-.15-.34-.29-.16-.16-.19-.21-.31-.4-.18-.29-.56-.4-.85-.22-.09.05-.16.13-.22.22a.58.58 0 0 0-.18.3c-.37 1.5.32 3.49 2.05 3.69.76.09 1.5-.21 2.09-.68.59-.47 1-1.11 1.4-1.74.04-.07.07-.14.08-.22.2-.23.17-.62-.05-.83Z" style="fill:#a08675"/><path d="M160.96 97.11c-.45-.53-1.05-.86-1.67-1.12-.67-.27-1.38-.39-2.1-.47-.23-.02-.47-.06-.7-.09.19-.25.47-.65.64-.92.15-.24.25-.61.13-.99.43-.07.69-.74.2-1.04-1.29-.79-2.91-.49-4.34-.57-1.56-.09-3.1-.34-4.66-.35h-.03c-1.47 0-2.95 0-4.42.06s-2.86.15-4.26.45c-.55.12-1.08.3-1.62.45-.3.08-.6.14-.9.23-.47.14-.93.33-1.38.51-.77.32-1.53.66-2.24 1.09-1.48.92-2.74 2.13-4.02 3.31-.83.81-1.66 1.61-2.5 2.41-.1-.2-.2-.4-.3-.61-.13-.27-.52-.34-.76-.2-.28.16-.33.49-.2.76 1.76 3.63 3.72 7.16 5.96 10.52.66 1 1.35 1.98 2.04 2.95.18.25.49.36.76.2.24-.14.38-.52.2-.76-.17-.24-.34-.49-.51-.73.63-.78 1.28-1.53 1.92-2.29.54.39 1.15.69 1.8.9 1.12.36 2.32.45 3.48.47.76.01 1.53-.12 2.28-.25.95-.16 1.89-.35 2.84-.52.49-.09.98-.18 1.47-.25.04 0 .07-.01.1-.01h.02-.02c.03 0 .06 0 .1-.01l.27-.03c.16-.02.33-.03.49-.03.53 0 .67-.6.42-.92.29-.16.54-.37.75-.68.24-.35.01-.87-.27-1.29.76.19 1.55.31 2.33.15.73-.15 1.42-.67 1.64-1.41.18-.6-.03-1.18-.37-1.66.62.12 1.25.18 1.87.05.73-.15 1.42-.67 1.64-1.41.25-.84-.25-1.64-.83-2.2-.28-.27-.59-.5-.93-.7.77.13 1.54.2 2.32.2.76 0 1.52-.05 2.27-.18.66-.11 1.36-.38 1.61-1.05.26-.67-.08-1.44-.53-1.97Z" class="cls-9"/><path d="M135.29 160.31c-.02-2.22.23-14.55.49-18.04.26-3.49.49-28.82.49-28.82h-.23c.07-.32-.1-.69-.52-.69h-6.4c-.37 0-.55.29-.54.58 0 .04-.01.08-.01.12l-.48 22.25c-.16 7.39-.36 14.79-.47 22.18-.06 4.08 0 8.17.65 12.21.04.26.34.42.59.41h6.45c.36 0 .54-.28.54-.56h.11s-.62-7.42-.65-9.64ZM79.89 139.98c-.94-4.88-1.67-9.79-2.19-14.72-.15-1.42-.28-2.83-.39-4.25-.02-.3-.24-.56-.56-.56-.28 0-.58.26-.56.56 0 .11.02.21.03.32l-6.92 4.21c-.06-.26-.25-.47-.54-.47s-.59.26-.56.56c.41 3.83.94 7.65 1.6 11.44.18 1.02.37 2.05.56 3.07-.02.06-.04.12-.04.18l-.99 14.2-.99 14.15-.56 8.02c0 .13.04.26.13.35.08.17.24.3.48.3 2.79 0 5.57-.09 8.36-.09.04 0 .08 0 .12-.01.14-.03.24-.1.31-.2s.12-.22.13-.35c.33-4.73.66-9.47 1-14.2.33-4.72.67-9.43 1-14.15.19-2.67.38-5.34.56-8.02a.66.66 0 0 0 .03-.34Z" class="cls-12"/><path d="M184.8 155.27c-.19-4.86-.38-9.71-.59-14.57-.12-2.71-.25-5.41-.41-8.12.02-.06.03-.11.04-.17.34-4.9.77-9.8 1.3-14.69.15-1.36.3-2.72.46-4.09.2-.33.05-.88-.45-.88-2.64 0-5.29 0-7.93.01-3.18 0-6.36.02-9.55.03-3.45.01-6.91.03-10.36.04-3.47.01-6.94.02-10.41.04-3.19 0-6.38.01-9.57.02h-1.05s-.1 0-.14.01c-.02 0-.04 0-.05.01-.02 0-.04.01-.05.02-.01 0-.02.01-.04.02-.17.08-.3.24-.31.48l-.48 22.21c-.16 7.39-.36 14.77-.47 22.16-.06 4.11 0 8.23.65 12.3.05.3.42.46.69.39h.01c.05.01.1.02.16.02h48.68c.19 0 .33-.08.42-.19.09-.1.15-.23.14-.37-.28-4.89-.49-9.78-.69-14.68ZM124.45 176.32l-2.17-19.42c.29-.03.46-.27.5-.55.56-4.67 1.02-9.36 1.35-14.05.34-4.68.56-9.36.67-14.05.06-2.63.08-5.27.07-7.9.06-.31-.11-.68-.53-.68h-15.26c.01-.89.03-2.73-.05-4.67-.11-2.73-1-5.61-2.1-8.02-.88-1.93-3.09-3.22-4.25-4.25-1.16-1.03-4.3-.4-4.3-.4l-1.5 2.28h.15c0 .07 0 .13.01.19.09.32.39.44.69.39 1.16-.19 2.35.27 3.24.99 1.01.81 1.68 1.93 2.09 3.15.78 2.31.81 4.83.86 7.24.02 1.03.04 2.06.03 3.09H91.87c-.55 0-.68.66-.38.97-.47.18-.99.38-1.32.5-.73.25-6.33 1.68-7.43 1.67s-4.72-2.27-4.72-2.27l-1.28.46 2.6 19.12-2.56 36h-.04c-.72 0-.72 1.12 0 1.12 3.11 0 6.23 0 9.34.02 3.39.01 6.77.03 10.16.04 3.39.02 6.81.04 10.22.05 3.12.02 6.24.03 9.36.05 2.57.01 5.15.02 7.72.02h.8c.68 0 .72-1 .11-1.11Z" class="cls-6"/><path d="M73.25 122.26c-4.59 2.61-8.93 5.59-13.26 8.6-1.27.89-2.55 1.77-3.82 2.66-.25.17-.36.49-.2.76.14.25.52.37.76.2 4.38-3.03 8.71-6.14 13.24-8.96 1.27-.79 2.55-1.56 3.84-2.29.63-.36.06-1.32-.57-.97Z" class="cls-15"/><path d="M102.17 106.54c-.15-.67-.61-1.24-1.16-1.62-.64-.44-1.47-.56-2.23-.55-.4 0-.79.04-1.19.09-.15.02-.3.08-.4.18l-.31-.03.64-1.98h.18c.3.02.56-.27.56-.56 0-.32-.26-.54-.56-.56-.84-.05-1.69-.05-2.53-.09-.93-.04-1.86-.13-2.79-.02-1.46.16-2.9.75-4.37.76-.03 0-.06-.02-.09-.02-1.88-.22-3.6.47-5.18 1.43-.78.47-1.55.94-2.3 1.45-.56.38-1.1.8-1.67 1.18-.7.46-1.45.78-2.24 1.05h-.01c-1.25.47-2.5.96-3.75 1.44 0-.2-.02-.39-.03-.59-.03-.72-1.15-.72-1.12 0 .18 4.09.59 8.15 1.31 12.18.21 1.19.45 2.37.7 3.55.06.3.41.47.69.39.31-.08.45-.39.39-.69l-.15-.72c1.11-.62 2.24-1.21 3.38-1.79.02-.01.05-.03.07-.05.87.41 1.63 1.04 2.44 1.54.55.33 1.14.63 1.77.76.8.17 1.62.12 2.42-.01.8-.13 1.64-.37 2.45-.58s1.58-.47 2.37-.74c.7-.24 1.42-.38 2.07-.74.6-.34 1.1-.84 1.37-1.48.13-.31.16-.67.3-.97.11-.23.26-.28.48-.34.59-.17 1.23-.2 1.7-.64s.55-1.15.59-1.79c.04-.53.08-.93.64-1.16.32-.13.64-.22.96-.36s.6-.35.85-.59c.49-.47.85-1.1.98-1.76.07-.35.08-.7.04-1.06-.02-.21-.06-.42-.05-.63 0-.07 0-.13.02-.19 0-.03.02-.05.02-.08v-.02c.1-.2.17-.28.37-.44-.01.01.09-.06.11-.08.05-.03.1-.06.15-.1.11-.07.22-.13.34-.2.46-.26.94-.53 1.29-.93.45-.51.62-1.16.48-1.83Z" class="cls-9"/><path d="M179.79 162.17c.23-5.53.42-12.62.04-16.79-.02-.23-.06-.32-.06-.32a.707.707 0 0 0-.65-.45c-.15 0-.3.05-.41.13 0 0-.08.05-.21.18 0 0-4.37 4.47-5.29 17.72 0 0-.02.19.03.35.08.27.29.5.65.56l2.28.32c.2.03.35.18.35.38 0 0-.1 2.23-.54 6.21v.04h3.38c.03-.41.25-3.93.44-8.34ZM157.79 170.06c-.78-3.38-1.41-16.41-1.44-16.99-.05-.46-.38-.84-.83-.96l-3.3-.64a1.137 1.137 0 0 1-.75-1.59c.24-.63 6.56-12.14 18.03-19.22.47-.32 1.03-.5 1.64-.5.61 0 1.17.18 1.64.5 2.48 1.53 4.72 3.27 6.71 5.06s.02.01.03.01c.02 0 .04-.02.04-.04v-1.15c0-.39.32-.7.7-.7h.09l3.32.4c.07 0 .14.02.21.05l-.09-1.71c.02-.06.03-.11.04-.17.34-4.9.77-9.8 1.3-14.69.15-1.36.3-2.72.46-4.09.2-.33.05-.88-.45-.88-2.64 0-5.29 0-7.93.01-3.18 0-6.36.02-9.55.03-3.45.01-6.91.03-10.36.04-3.47.01-6.94.02-10.41.04-3.19 0-6.38.01-9.57.02h-1.05s-.1 0-.14.01c-.02 0-.04 0-.05.01-.02 0-.04.01-.05.02-.01 0-.02.01-.04.02-.17.08-.3.24-.31.48l-.48 22.21c-.16 7.39-.36 14.77-.47 22.16-.06 4.11 0 8.23.65 12.3.05.3.42.46.69.39h.01c.05.01.1.02.16.02h21.78c-.11-.13-.19-.28-.24-.45Z" class="cls-1"/><path d="M168.1 167.55c-.3-3.32-.22-4-.22-4 .01-.22.13-.4.29-.52.93-.64 1.55-1.72 1.55-2.94v-.15c-.17-4.46-.24-9.54 0-13.56v-.05c0-.37-.31-.66-.68-.65-.35 0-.63.28-.65.63-.17 2.75-.18 6.01-.12 9.23 0 .43-.34.79-.77.79s-.79-.34-.8-.77c-.06-3.2-.04-6.43.12-9.17v-.05c0-.37-.31-.66-.68-.65-.35 0-.63.28-.65.63-.17 2.76-.18 6.04-.12 9.27 0 .43-.34.79-.77.8s-.79-.34-.8-.77c-.06-3.21-.05-6.47.12-9.22v-.05c0-.37-.31-.66-.68-.65-.35 0-.63.28-.65.63-.25 4.13-.16 9.41.01 13.98.06 1.22.74 2.28 1.73 2.88.19.12.32.32.34.56 0 .07 0 .16.01.22.13 2.74.3 5.34.38 6.48s0 .06 0 .09h3.37s0-.03-.01-.05c-.05-.45-.16-1.46-.3-2.91Z" class="cls-1"/><path d="M176.52 164.26c0-.2-.15-.35-.35-.38l-2.28-.32a.78.78 0 0 1-.65-.56c-.05-.17-.03-.35-.03-.35.92-13.26 5.29-17.72 5.29-17.72.13-.13.21-.18.21-.18.12-.08.26-.13.41-.13.3 0 .55.18.65.45 0 0 .04.09.06.32.38 4.17.19 11.26-.04 16.79-.19 4.41-.41 7.93-.44 8.34h5.58c.19 0 .33-.08.42-.19.09-.1.15-.23.14-.37-.28-4.89-.49-9.78-.69-14.68-.19-4.86-.38-9.71-.59-14.57-.1-2.14-.2-4.27-.32-6.41-.07-.02-.13-.04-.21-.05l-3.32-.4h-.09c-.39 0-.7.32-.7.7v1.15s-.02.04-.04.04c-.01 0-.02 0-.03-.01-1.99-1.79-4.23-3.53-6.71-5.06-.47-.32-1.03-.5-1.64-.5-.61 0-1.17.18-1.64.5-11.47 7.08-17.78 18.59-18.03 19.22-.07.15-.11.31-.11.49 0 .53.36.98.86 1.1l3.3.64c.44.12.78.5.83.96.03.58.65 13.61 1.44 16.99.04.17.13.32.24.45h7v-.08c-.08-1.15-.24-3.75-.38-6.49 0-.07 0-.16-.01-.22a.665.665 0 0 0-.34-.56 3.55 3.55 0 0 1-1.73-2.88c-.17-4.57-.26-9.85-.01-13.98.02-.34.3-.62.65-.63.37 0 .67.29.68.65v.05c-.16 2.75-.18 6.01-.12 9.22 0 .43.36.78.8.77s.78-.36.77-.8c-.06-3.23-.04-6.51.12-9.27.02-.34.3-.62.65-.63.37 0 .67.29.68.65v.05c-.16 2.74-.18 5.98-.12 9.17 0 .44.37.78.8.77.43 0 .78-.36.77-.79-.06-3.22-.04-6.48.12-9.23.02-.34.3-.62.65-.63.37 0 .67.29.68.65v.05c-.24 4.02-.16 9.1 0 13.56V160.07c0 1.22-.61 2.3-1.55 2.94-.17.12-.28.3-.29.52 0 0-.08.68.22 4 .14 1.45.25 2.45.3 2.91 0 .02 0 .03.01.05h7.56v-.04c.43-3.98.54-6.21.54-6.21h-.01Z" class="cls-4"/><path d="M108.56 170.65c.01-.22.13-.41.3-.53.95-.66 1.57-1.76 1.56-3v-.16c-.19-4.53-.29-9.7-.06-13.79v-.05c0-.37-.32-.67-.69-.66-.36 0-.64.29-.66.64-.16 2.8-.16 6.11-.09 9.38a.794.794 0 1 1-1.59.03c-.07-3.25-.07-6.54.08-9.33v-.05c0-.37-.32-.67-.69-.66-.36 0-.64.29-.66.64-.16 2.81-.16 6.14-.09 9.43.01.44-.34.81-.78.82s-.81-.34-.82-.78c-.07-3.26-.07-6.58.08-9.38v-.05c0-.37-.32-.67-.69-.66-.36 0-.64.29-.66.64-.24 4.2-.13 9.57.07 14.21.07 1.24.76 2.32 1.77 2.92.19.12.33.33.34.57 0 .07.01.16.01.23.14 2.6.3 5.07.39 6.33h3.4c-.06-.54-.16-1.45-.29-2.68-.32-3.37-.24-4.07-.24-4.07Z" class="cls-1"/><path d="M98.34 177.31c-.81-3.43-1.5-16.67-1.53-17.27-.05-.47-.39-.86-.84-.98l-3.36-.63a1.15 1.15 0 0 1-.76-1.61c.24-.64 6.61-12.37 18.25-19.62.48-.32 1.05-.51 1.67-.51.62 0 1.19.18 1.67.5 2.53 1.55 4.81 3.31 6.84 5.12s.02.01.03.01c.02 0 .04-.02.04-.04v-1.17c0-.39.31-.72.71-.72h.09l3.12.36c.23-3.51.39-6.13.39-6.13-4.15-.73-33.38 1.51-35.57 6.16-2.19 4.65-10.73 36.66-10.73 36.66l15.55-.06h4.47c0-.02-.02-.05-.02-.07ZM120.64 152.12c-.02-.23-.06-.32-.06-.32a.724.724 0 0 0-.67-.45c-.16 0-.3.05-.42.14 0 0-.08.05-.22.19 0 0-4.43 4.56-5.31 18.04 0 0-.02.19.03.36.08.28.3.5.66.56l2.32.31c.21.03.36.18.36.39 0 0-.09 2.19-.5 6.09 1.33 0 2.5.01 3.42.02.06-.95.24-4.23.39-8.25.21-5.62.37-12.83-.03-17.07Z" class="cls-1"/><path d="M121.05 140.39c-.39 0-.71.32-.71.72v1.17s-.01.04-.04.04c-.01 0-.02 0-.03-.01a48.567 48.567 0 0 0-6.84-5.12c-.48-.32-1.05-.5-1.67-.5-.62 0-1.19.19-1.67.51-11.63 7.24-18 18.97-18.25 19.62-.07.15-.11.32-.11.49 0 .54.38.99.87 1.12l3.36.63c.45.12.79.51.84.98.03.59.72 13.83 1.53 17.27 0 .02.02.05.02.07 2.05 0 4.63 0 7.33.01-.09-1.26-.25-3.73-.39-6.33 0-.07-.01-.16-.01-.23a.72.72 0 0 0-.34-.57 3.596 3.596 0 0 1-1.77-2.92c-.19-4.64-.31-10.01-.07-14.21.02-.35.3-.63.66-.64.37 0 .68.29.69.66v.05c-.15 2.8-.16 6.11-.08 9.38.01.44.38.79.82.78s.79-.38.78-.82c-.07-3.29-.07-6.62.09-9.43.02-.35.3-.63.66-.64.37 0 .68.29.69.66v.05c-.15 2.79-.16 6.08-.08 9.33.01.44.38.79.81.78s.79-.37.78-.81c-.07-3.27-.07-6.59.09-9.38.02-.35.3-.63.66-.64.37 0 .68.29.69.66v.05c-.23 4.08-.12 9.25.06 13.79V167.12c0 1.24-.61 2.34-1.56 3-.17.12-.28.31-.3.53 0 0-.08.7.24 4.07.12 1.23.23 2.15.29 2.68 2.78 0 5.5.01 7.76.02.4-3.9.5-6.09.5-6.09 0-.21-.16-.36-.36-.39l-2.32-.31c-.37-.06-.58-.29-.66-.56-.05-.17-.03-.36-.03-.36.88-13.48 5.31-18.04 5.31-18.04.13-.13.22-.19.22-.19.12-.08.26-.14.42-.14.3 0 .56.18.67.45 0 0 .04.09.06.32.4 4.23.24 11.44.03 17.07-.15 4.01-.34 7.3-.39 8.25 1.19 0 1.97.02 2.13.03 1.4.08 2.71.28 2.75-.29.12-1.68-2.18-20.47-2.14-20.83.42-3.56.91-10.51 1.25-15.59l-3.12-.36h-.09Z" class="cls-4"/><path d="M170.2 102.43c-.68-1.44-1.58-2.8-2.7-3.94-1.19-1.21-2.62-2.1-4.2-2.72-1.79-.71-3.69-1.07-5.58-1.41-.33-.06-.67.09-.76.44-.06.21.01.46.17.62-.06.06-.12.11-.18.16-.04.03-.18.13-.02.02l-.12.09c-.08.06-.16.11-.25.16-.16.1-.32.18-.49.25-.04.02-.08.03-.12.05-.16.06-.29.14-.37.29a.62.62 0 0 0-.08.24v.02c-.08.29.1.71.44.76 1.64.25 3.35.57 4.85 1.32.05.07.11.12.19.16.52.25.98.55 1.4.9.07.06.15.13.22.2.02.02.05.04.07.06 2.26 2.1 2.99 5.55 3.06 8.56.03 1.27-.03 2.54-.09 3.8-.02.34.3.62.62.62.04 0 .07 0 .1-.01v.26l5.01.12c.11.16.28.27.5.27.32 0 .65-.29.62-.62-.27-3.63-.69-7.33-2.26-10.66ZM152.92 104.1s-.09-.04-.14-.05c-.63-.13-1.25-.31-1.85-.53-.15-.05-.29-.11-.44-.17-.17-.07-.17-.07-.34-.15-.29-.13-.58-.27-.86-.42a.538.538 0 0 0-.2-.1c-.35-.1-.64.12-.76.44a29.1 29.1 0 0 0-1.88 9.36c-.02.72.97.79 1.2.22.06.29.4.47.68.43.15-.02.29-.1.38-.21.13.13.3.2.51.17.05 0 .1-.02.14-.04.08.27.4.43.67.39.27-.04.43-.21.5-.45.07.28.28.5.6.5.21 0 .38-.1.49-.26.25.43 1.06.35 1.04-.27-.05-1.4-.04-2.81.04-4.21.01-.04.02-.09.02-.13.12-1.3.3-2.53.54-3.82.05-.29-.06-.61-.34-.73ZM108.97 110.68c-.34-1.48-.86-2.93-1.7-4.2-.92-1.4-2.15-2.62-3.59-3.48-1.59-.95-3.46-1.46-5.31-1.23-.03 0-.05 0-.07.01-1.48.11-2.87.69-4.02 1.63-.25.21-.23.67 0 .88.15.14.33.19.5.17.07.02.14.04.21.04l4.23-.19a.63.63 0 0 0 .6-.46c.08-.28-.06-.54-.29-.7-.16-.11-.33-.21-.51-.29l.03-.03c2.81-.07 5.43 1.61 7.04 3.87 1.74 2.44 2.2 5.56 2.4 8.49.12 1.67.13 3.35.02 5.02-.02.3.27.56.56.56.32 0 .54-.26.56-.56.19-3.17.05-6.45-.67-9.55Z" class="cls-6"/><path d="M86.79 100.22c.06.06.18-.01.21-.08-.03-.02-.21.06-.21.08ZM86.74 100.12c.08.09.12-.16.02-.09-.02.04-.03.06-.02.09ZM87.9 100.03ZM87.93 100.11s.12.09.12.04c-.1-.05-.16-.21-.12-.04ZM86.73 101.35c.07-.01.02-.1-.02-.12-.1.03-.09.12.02.12ZM86.8 100.71s-.06-.05-.1-.04c.02.04.08.07.1.04ZM86.95 98.75s-.09.05-.04.06c0 0 .04-.05.04-.06ZM87.58 98.72s0-.04-.02-.04c-.02.03 0 .04.02.04ZM88.23 100.77c.08-.01-.1-.05-.11-.02 0 0 .1.02.11.02ZM87.49 98.82ZM87.51 98.84s.03-.02.03-.03c-.02-.03-.07 0-.03.03ZM86.73 101.93c-.13.04.04.02.07.02.22-.06.04-.03-.07-.02ZM86.94 101.9ZM87.48 99s.01.04.06.04c-.01-.02.03-.06-.06-.04ZM87.91 101.83c-.07.02-.16 0-.15.07.07-.03.2-.03.15-.07ZM86.66 101.71c.14-.02-.02-.02-.05-.03-.06.02.03.02.05.03ZM86.88 99.06l-.05-.01c-.03.04.03.04.05.01ZM86.94 101.93c-.12.02-.06.03.05.05.07-.04 0-.04-.05-.05ZM86.89 99.59s-.05 0-.07.01c.02.01.05 0 .07-.01ZM86.59 101.74s-.07 0-.04.03c.03 0 .06 0 .04-.03ZM87.9 99.52s-.05-.02-.06 0c0 0 .06.02.06 0ZM87.66 99.4s.05.02.05.01c.02-.03-.03-.03-.05-.01ZM86.81 101.25s-.04 0-.02.01c0 0 .03-.01.02-.01ZM88.04 100.25l.05-.02s-.11 0-.05.02ZM87.94 100.34l.02-.02c-.02-.01-.09.02-.02.02ZM86.76 101.89s-.15 0-.18.02c.04 0 .14.01.18-.02ZM87.8 100.54c.05-.04-.05 0-.06-.01l.06.01ZM86.77 101.57s-.14 0-.18.01c.04.04.17 0 .18-.01ZM86.77 101.57ZM86.81 100.99h-.05c0 .02.05 0 .05 0ZM86.72 100.32ZM86.71 100.32s0-.03-.01-.02c0 0 0 .02.01.02ZM87.48 98.58s-.01-.01-.02 0c0 0 .02.02.02 0ZM88.37 101.46ZM87.73 100.1h.1c0-.06-.08 0-.1 0Z" class="cls-8"/><path d="M88.56 101.67c-.05-.29-.72-.09-.2-.22-.37-.04.19-.07.04-.09-.6.05.12-.2-.1-.22-.27.11-.04 0-.13-.03-.14 0-.04-.08-.02-.14-.08-.13-.3.25-.26.01-.08-.08 0-.07.12-.07.37-.09-.36-.14-.35-.25.52.16.02-.08.26-.06.14.08.1-.28-.01-.16-.28.44 0-.26-.17-.34.05-.1.32-.06 0-.1.37-.02-.2-.25-.02-.54-.07-.16-.37-.61-.25-.93-.43-.93-.76 1.15-.43.63.06.25-.26.29-.11.43-.28.18.47.91-.21.75-.06.13.1.22.27.21-.37-.03.11.41-.13.34-.29-.2-.03.17.07.06.35-.08-.15.08-.19.19.33-.16.22 0-.04.06.28-.07.1.16.23.2-.44.04-.28.09 0 .27-.21.06-.04.12.01 0-.19.5.93.19 1.62.01Zm-.53-.8-.07.02s.03-.02.07-.02Zm-1.05-1.84s-.01-.04 0-.06c.01.02.04.05 0 .06Zm-.11 1.43c-.12-.04-.07-.03 0-.06.06.01.05.02 0 .06Zm.42-2.1s.05-.02.06.04c-.03.02-.12-.01-.06-.04Zm-.15-.01s.03.01 0 .01c0 0-.03-.02 0-.01Zm-.04.04s.04.02.06.04c-.03 0-.13-.03-.06-.04Zm-.08.21s.08-.05.12-.01c-.04.01-.08.04-.12.01Zm.04 1.09-.07-.04c.01-.06.15.02.07.04Zm-.06.72c.02-.06.16.06.19.07-.06.05-.14-.04-.19-.07Zm.09 1.18c-.44.1-.09-.19-.03-.07 0 .02-.12.06.03.07Zm.1-.95s-.09 0-.12-.02c0-.04.13-.02.12.02Zm0-1.99s.02-.09.07-.04c.04.03-.11.09-.07.04Zm.08.74s-.04-.03-.05-.06c.04 0 .08.03.05.06Zm0 1.7s-.06-.03-.05-.03c.04-.06.14 0 .05.03Zm.04-2.29c-.09-.02.02.14-.06.07-.08-.09.13-.13.06-.07Zm.06-.28v.06-.06Zm.3 2.26c.05.03.02.08 0 .12-.07-.04-.07-.07 0-.12Zm.08-.58s-.05.08-.06.08c-.07-.03-.04-.1.06-.08Zm-.09-.46s-.1.03-.1 0c.01-.02.08-.03.1 0Zm-.11-.18s.05.04.05.07c-.03.01-.12-.06-.05-.07Zm-.05.89s-.08-.02-.05-.05c.04.01.12 0 .05.05Zm-.02-.54c-.09 0 0-.02.04-.03.08 0 0 .02-.04.03Zm.19 1.55-.08-.02s.22-.03.08.02Zm.02-.34c-.09 0 .03-.06.06-.05-.02.01-.04.03-.06.05Zm.21.17c.02-.06.04-.15.13-.12.24.05-.08.1-.13.12Zm.13.11s.11-.02.14-.01h-.14Zm.18.25c-.07-.14.15-.11.2-.03l-.2.03Z" class="cls-8"/><path d="M87.06 101.9s.1.01.08 0h-.08ZM86.94 98.5ZM87.5 98.77s-.01-.01-.02 0h.02ZM87.57 99.11s.01.02.02.02c.05-.01-.02-.05-.02-.02ZM87.67 99.26s0-.05-.04-.02l.04.02ZM86.88 99.37s-.01 0 0 .01c.01 0 .02 0 0-.01ZM88.25 101.29s0-.02-.03 0h.03ZM86.82 99.93l.03-.02s-.08 0-.03.02ZM86.81 99.9ZM86.8 101.81c.1-.08-.09-.05-.11 0h.11ZM87.02 98.34s-.05.02-.04.04c.03.02.07-.02.04-.04Z" class="cls-8"/><path d="M48.16 39.73c-.45-.24-.89.8-.42.43-.31.87.67-.65.42-.43Z" class="cls-4"/><g id="Layer_12"><path d="M143 49.48c-.08-5.24-.25-10.47-.51-15.7-.05-1.06 0-2.23-.35-3.24-.16-.45-.4-.89-.78-1.2-.48-.39-1.08-.53-1.7-.51-1.87.06-4.48.69-4.44 3.02.01.63.15 1.27.24 1.9.1.64.19 1.29.29 1.93.2 1.3.4 2.6.6 3.91.4 2.57.82 5.14 1.25 7.7.43 2.56.87 5.13 1.33 7.69.23 1.28.46 2.56.7 3.84l.36 1.92c.11.57.16 1.18.41 1.7.25.5.72.81 1.28.71.3.06.64-.05.87-.28.43-.42.48-.93.49-1.49.01-1.33.02-2.65.02-3.98 0-2.63-.02-5.27-.06-7.91ZM177.11 43.66c-.3-.53-.86-.87-1.33-1.22-.53-.38-1.07-.75-1.63-1.09-.55-.34-1.13-.75-1.75-.95-.69-.22-1.34.02-1.84.51-.85.81-1.48 1.89-1.99 2.94-.56 1.15-1.03 2.34-1.53 3.52-2.15 5.08-4.29 10.17-6.43 15.25l-.09.22c-.23.46-.47.92-.65 1.4-.19.51-.24 1.14.11 1.59.42.55 1.12.59 1.7.28.54-.29.9-.81 1.27-1.27.41-.51.82-1.03 1.23-1.55 1.65-2.1 3.28-4.23 4.86-6.38 1.56-2.12 3.09-4.27 4.59-6.45.75-1.09 1.48-2.18 2.21-3.28.36-.55.73-1.09 1.08-1.65.36-.58.56-1.25.2-1.88ZM123.7 65.29c-.22-.47-.54-.89-.82-1.33-.3-.47-.6-.93-.9-1.4-.61-.95-1.22-1.89-1.84-2.83-1.22-1.87-2.45-3.74-3.7-5.59-1.25-1.85-2.51-3.7-3.81-5.52-.32-.45-.64-.9-.97-1.35-.29-.4-.57-.83-.94-1.15-.37-.33-.83-.57-1.34-.53-.58.05-1 .42-1.42.78-.72.62-1.41 1.32-1.71 2.25-.3.95-.08 1.95.39 2.81.47.87 1.17 1.6 1.87 2.3l2.45 2.44 8.51 8.45c.35.39.7.78 1.06 1.16.31.33.62.66.94.98l.44.44c.22.21.43.48.76.49.52.01.96-.4 1.14-.85.21-.51.11-1.04-.12-1.52Z" class="cls-11"/><path d="M142.53 28.57c-.83-.92-2.82-1.65-4.57-1.22-1.75.44-3.5 2.04-3.5 2.04l.32 4.56c.17-.11.46-.23.69-.27-.09-.61-.22-1.23-.23-1.84-.04-2.33 2.57-2.97 4.44-3.02.62-.02 1.21.12 1.7.51.38.31.62.74.78 1.2.35 1.02.3 2.18.35 3.24.01.3.03.61.04.91.41-.03.9-.13 1-.47.11-.4-.18-4.73-1.01-5.65Z" class="cls-1"/><path d="M142.14 30.53c-.16-.45-.4-.89-.78-1.2-.48-.39-1.08-.53-1.7-.51-1.87.06-4.48.69-4.44 3.02.01.62.14 1.24.23 1.84.12-.02.23-.01.3.04.19.15-.21.05.19.15s.44.13.68 0 .49.29.49.29.29 0 .34-.24c.03-.16.11-.16.24 0 .19.24.44.39.53.44.1.05.1-.34.24-.34s.29-.58.39-.34c.1.24.1.79.27.68.17-.1.8.36.99.2s.1-.61.34-.46c.24.15.06.44.37.49s1.09.32 1.19.18-.1-.18.1-.13c.19.05-.24.07.19.05.06 0 .13 0 .2-.01-.01-.3-.03-.61-.04-.91-.05-1.06 0-2.23-.35-3.24Z" class="cls-13"/><path d="M178.34 43.4c-1.17-1.13-3.86-4.2-5.8-4.53-1.94-.33-4.86 2.01-5.62 4.05-.77 2.04-.6 4.04-.6 4.04s.27.22.66.53l.05-.13c.5-1.18.97-2.37 1.53-3.52.51-1.05 1.14-2.13 1.99-2.94.51-.48 1.15-.72 1.84-.51.62.19 1.2.61 1.75.95.55.35 1.1.71 1.63 1.09.48.35 1.04.69 1.33 1.22.36.63.16 1.31-.2 1.88-.35.56-.72 1.1-1.08 1.65-.73 1.1-1.47 2.19-2.21 3.28-.39.57-.79 1.14-1.19 1.71.19.19.38.4.38.4s3.38-3.86 4.3-4.77c.91-.91 2.41-3.29 1.24-4.42Z" class="cls-1"/><path d="M175.82 47.18c.36-.55.73-1.09 1.08-1.65.36-.58.56-1.25.2-1.88-.3-.53-.86-.87-1.33-1.22-.53-.38-1.07-.75-1.63-1.09-.55-.34-1.13-.75-1.75-.95-.69-.22-1.34.02-1.84.51-.85.81-1.48 1.89-1.99 2.94-.56 1.15-1.03 2.34-1.53 3.52l-.05.13c.84.67 2.23 1.75 2.61 1.93.55.25.47.69.51.8.04.11.12.11.3 0s.4.08.4.08.22.94.4.94.77.51.91.62c.06.05.19.18.32.31.4-.57.79-1.14 1.19-1.71.75-1.09 1.48-2.18 2.21-3.28Z" class="cls-13"/></g><path d="M47 48.24c.89-2.51 2.37-4.82 4.25-6.72 1.87-1.9 4.16-3.43 6.66-4.36.98-.37 2-.66 3.03-.89a26.52 26.52 0 0 1 1.88-.36l.14-.02s.11-.01.13-.02c.26-.03.52-.06.79-.08 1.03-.08 2.07-.09 3.09.03.05 0 .09.01.14.02.02 0 .08.01.1.01.13.02.27.04.4.07.25.05.51.1.76.17.24.06.48.13.72.21.12.04.24.08.35.12.05.02.11.04.16.06.02 0 .12.05.14.06.47.2.92.44 1.34.71.48.31.76.53 1.18.92.87.82 1.5 1.71 2.05 2.79.14.27.27.56.38.83.08.2.23.36.42.42.15.08.33.11.48.07.36-.1.48-.43.44-.76-.2-1.38-.52-2.75-.86-4.11-.38-1.52-.8-3.02-1.27-4.51-.2-.64-.41-1.27-.64-1.9.44-.85.86-1.74 1.04-2.69.18-1.01.08-1.99-.37-2.91-.85-1.75-2.66-2.78-4.48-3.26-1.02-.27-2.08-.39-3.12-.5-1.07-.11-2.14-.18-3.22-.15-1.11.04-2.21.19-3.27.5-1 .29-1.98.67-3.03.69-1.09.02-2.17-.19-3.25-.26-1.01-.06-2.02.05-2.98.36s-1.84.8-2.62 1.43c-.72.59-1.31 1.31-1.85 2.06-1.05 1.48-1.86 3.13-3.07 4.49-1.25 1.42-2.77 2.65-3.68 4.35a7.674 7.674 0 0 0-.57 5.79c.56 1.81 2 3.64 4.08 3.53.32-.02.62-.08.91-.19.51 1.45 1.35 2.78 2.06 4.14.16.3.57.39.85.22.15-.09.25-.23.28-.39" style="fill:#f2a6b0"/><g id="Layer_11"><path d="M69.11 31.51c.79-1.53 2.58-2.57 4.31-2.15.19.05.36.11.53.18.15-.4.28-.8.36-1.22.18-1.01.08-1.99-.37-2.91-.06-.12-.12-.23-.18-.34-.07.18-.16.36-.23.52-.11.24-.35.5-.49.67-.18.22-.44.39-.66.55-.22.16-.53.26-.75.34-.07.03-.15.05-.23.06-.2.03-.57.11-.83.09-.24-.02-.49-.06-.73-.1-.04 0-.08-.01-.12-.02-.26-.07-.52-.2-.76-.31-.07-.03-.15-.07-.22-.12-.22-.15-.45-.32-.65-.5-.06-.06-.12-.12-.17-.18-.15-.18-.36-.42-.49-.66-.31-.57-.39-.96-.45-1.6-.02-.27.05-.62.09-.85.05-.27.21-.56.31-.79.08-.13.17-.25.27-.37-.44-.06-.89-.11-1.33-.16-1.07-.11-2.14-.18-3.22-.15-1.11.04-2.21.19-3.27.5-1 .29-1.98.67-3.03.69-1.09.02-2.17-.19-3.25-.26a8.45 8.45 0 0 0-1.81.08l-.03.24c-.04.29-.07.55-.18.82-.1.27-.21.51-.33.74-.07.18-.15.37-.25.55-.17.32-.41.62-.64.89-.11.13-.22.25-.34.36-.4.35-.83.67-1.3.89-1.02.46-2.28.82-3.4.55-.7 1.11-1.36 2.24-2.23 3.23-.83.93-1.76 1.79-2.57 2.74-.02.2-.06.4-.1.59-.02.08-.04.15-.07.23-.1.25-.19.51-.33.75-.21.37-.53.75-.89 1.04-.09.12-.19.24-.29.36-.43 1.43-.45 2.99 0 4.42.39 1.24 1.18 2.5 2.32 3.12v-.3c.02-.42.08-.84.16-1.25.04-.18.11-.36.21-.53.04-.12.07-.23.12-.35.21-.57.4-1.04.84-1.47.13-.13.37-.3.52-.4.2-.13.44-.23.67-.28.48-.11.96-.12 1.44.01.6.17 1.09.53 1.48.99.13.1.26.2.38.31.56.53.85 1.23 1.1 1.94.18.52.28 1.09.3 1.64.02.38-.03.78-.13 1.16.82-1.46 1.84-2.82 3.01-4.01 1.87-1.9 4.16-3.43 6.66-4.36.27-.1.55-.19.83-.29.01-.01.02-.02.03-.04.58-.7 1.46-1.22 2.33-1.45.9-.23 1.92-.23 2.8.06.25.08.52.18.77.3.76-.03 1.53 0 2.29.08.05 0 .09.01.14.02.02 0 .08.01.1.01.13.02.27.04.4.07.25.05.51.1.76.17.24.06.48.13.72.21.07.02.14.05.21.07-.09-.14-.18-.28-.25-.43-.7-1.44-.67-3.01.07-4.44Zm-16.5 2.37c-.06.68-.11.81-.38 1.42-.11.25-.33.5-.49.69-.12.14-.26.24-.41.35-.13.1-.27.22-.42.3-.54.26-1 .43-1.61.42-.53 0-1.14-.14-1.59-.44-.3-.12-.61-.24-.89-.4-.36-.21-.64-.5-.86-.86l-.24-.57c-.11-.42-.11-.85 0-1.27l.24-.57c.15-.28.36-.5.62-.67.02-.02.05-.04.08-.06.12-.22.28-.41.46-.59.1-.18.22-.35.38-.5.22-.23.47-.4.77-.5.28-.15.59-.22.92-.21.16 0 .32.03.47.05.15.02.31.03.45.07.28.08.57.2.82.35.5.3.96.74 1.25 1.26.14.26.27.53.34.82 0 .03.01.06.02.09.03.21.07.46.09.67v.15Zm12.48-5.99c-.02.25-.04.58-.13.85-.03.1-.08.2-.12.29-.08.25-.19.5-.3.72-.17.35-.42.68-.7.95-.27.27-.6.53-.95.69-.27.12-.54.26-.83.32-.24.05-.49.07-.73.1h-.14c-.61-.01-1.16-.16-1.69-.46-.05-.03-.1-.06-.14-.1-.19-.14-.39-.28-.56-.44-.03-.03-.06-.06-.09-.1-.16-.18-.31-.38-.44-.57a.539.539 0 0 1-.07-.13 4.32 4.32 0 0 1-.28-.67l-.03-.12c-.04-.24-.09-.5-.1-.74 0-.15.03-.31.05-.45.02-.13.02-.29.07-.43.01-.04.03-.08.04-.12.01-.08.02-.17.04-.25.02-.17.04-.35.08-.51.07-.26.19-.51.31-.76.03-.06.06-.12.1-.17.34-.49.63-.79 1.13-1.12.29-.19.65-.34 1-.4.28-.04.57-.11.85-.09.28.02.57.05.84.12.35.08.69.23 1 .42.29.18.6.4.82.67.42.49.61.81.83 1.42.06.18.08.35.1.54.02.18.06.35.05.53ZM45.8 47.96l-.16.03c.07.14.15.28.22.41.16.3.57.39.85.22.15-.09.25-.23.28-.39a15 15 0 0 1 .59-1.44c-.45.56-1.09 1-1.78 1.16ZM75.68 39.59c-.06.03-.12.07-.18.1-.56.25-1.1.4-1.67.43.17.27.33.56.48.86.14.27.27.56.38.83.08.2.23.36.42.42.15.08.33.11.48.07.36-.1.48-.43.44-.76-.09-.65-.22-1.3-.35-1.94Z" class="cls-1"/><path d="M40 35.1c.13-.23.23-.5.33-.75.03-.07.05-.15.07-.23.04-.19.08-.39.1-.59-.42.5-.8 1.02-1.11 1.6-.23.44-.42.89-.56 1.37.1-.12.2-.24.29-.36.36-.29.68-.67.89-1.04ZM48.37 44.36c-.03-.55-.12-1.12-.3-1.64-.25-.71-.55-1.41-1.1-1.94-.12-.11-.24-.22-.38-.31-.39-.46-.88-.83-1.48-.99-.48-.13-.96-.12-1.44-.01-.24.05-.47.15-.67.28-.16.1-.39.27-.52.4-.44.44-.64.9-.84 1.47-.04.12-.08.23-.12.35-.1.17-.17.34-.21.53a7.5 7.5 0 0 0-.16 1.25v.3c.52.29 1.11.44 1.76.41.32-.02.62-.08.91-.19.46 1.3 1.19 2.51 1.84 3.73l.16-.03c.7-.17 1.33-.6 1.78-1.16.2-.43.41-.85.64-1.27.11-.38.15-.78.13-1.16ZM52.51 32.97a2.96 2.96 0 0 0-.34-.82c-.29-.51-.75-.96-1.25-1.26-.25-.15-.54-.27-.82-.35-.15-.04-.31-.05-.45-.07-.16-.02-.31-.05-.47-.05-.33-.01-.64.06-.92.21-.3.1-.55.26-.77.5-.16.15-.28.32-.38.5-.18.17-.34.37-.46.59-.03.02-.05.04-.08.06-.26.17-.47.39-.62.67l-.24.57c-.11.42-.11.85 0 1.27l.24.57c.21.36.5.64.86.86.28.16.59.29.89.4.45.29 1.06.43 1.59.44.61 0 1.08-.16 1.61-.42.16-.07.29-.19.42-.3.15-.12.29-.21.41-.35.16-.19.38-.44.49-.69.27-.61.32-.74.38-1.42v-.15c-.01-.21-.06-.46-.09-.67 0-.03 0-.06-.02-.09ZM48.69 27.02c.48-.22.91-.55 1.3-.89.12-.11.24-.23.34-.36.23-.28.47-.57.64-.89.09-.18.18-.36.25-.55.12-.23.23-.47.33-.74s.14-.53.18-.82l.03-.24c-.4.06-.79.15-1.18.28-.96.31-1.84.8-2.62 1.43-.72.59-1.31 1.31-1.85 2.06-.29.41-.57.84-.84 1.26 1.12.27 2.38-.08 3.4-.55ZM61.09 35.39c-.87.23-1.76.75-2.33 1.45-.01.01-.02.02-.03.04.72-.24 1.46-.44 2.2-.61a26.52 26.52 0 0 1 1.88-.36l.14-.02s.11-.01.13-.02c.26-.03.52-.06.79-.08.27-.02.53-.04.8-.05a5.223 5.223 0 0 0-3.57-.36ZM64.95 26.81c-.22-.61-.42-.93-.83-1.42-.23-.27-.53-.49-.82-.67-.3-.19-.65-.34-1-.42-.27-.07-.56-.1-.84-.12-.28-.02-.58.05-.85.09-.35.05-.7.2-1 .4-.51.33-.79.63-1.13 1.12a.95.95 0 0 0-.1.17c-.11.24-.24.5-.31.76-.05.17-.06.35-.08.51-.01.08-.02.17-.04.25-.01.04-.03.08-.04.12-.04.13-.05.3-.07.43-.02.14-.05.3-.05.45.01.24.05.51.1.74 0 .04.02.08.03.12.08.22.18.46.28.67.02.04.05.09.07.13.13.19.29.39.44.57.03.03.06.06.09.1.17.16.37.3.56.44.05.03.09.07.14.1.53.3 1.08.45 1.69.46h.14c.24-.02.5-.05.73-.1.29-.06.57-.2.83-.32.36-.16.68-.42.95-.69.27-.27.53-.59.7-.95.11-.22.22-.47.3-.72.04-.09.08-.19.12-.29.09-.27.11-.6.13-.85.01-.18-.02-.35-.05-.53a2.45 2.45 0 0 0-.1-.54ZM75.68 39.59c-.15-.73-.33-1.46-.51-2.18-.38-1.52-.8-3.02-1.27-4.51-.2-.64-.41-1.27-.64-1.9.24-.48.48-.97.68-1.47-.17-.07-.34-.14-.53-.18-1.72-.42-3.52.62-4.31 2.15-.74 1.43-.77 3-.07 4.44.07.15.16.29.25.43.05.02.09.03.14.05.05.02.11.04.16.06.02 0 .12.05.14.06.47.2.92.44 1.34.71.48.31.76.53 1.18.92.63.59 1.13 1.22 1.57 1.93.57-.03 1.11-.17 1.67-.43.06-.03.12-.06.18-.1ZM67.09 22.96c-.04.23-.12.58-.09.85.06.64.14 1.03.45 1.6.12.23.34.47.49.66.05.06.11.13.17.18.2.18.42.35.65.5.07.05.14.09.22.12.24.11.5.24.76.31.04.01.08.02.12.02.24.04.49.08.73.1.26.02.63-.06.83-.09.08-.01.15-.03.23-.06.21-.08.53-.19.75-.34.22-.16.48-.33.66-.55.15-.18.38-.43.49-.67.08-.17.16-.34.23-.52-.91-1.55-2.6-2.48-4.3-2.92-.59-.15-1.19-.26-1.8-.34-.1.11-.19.23-.27.37-.1.23-.26.52-.31.79Z" class="cls-5"/></g></g><g id="Outline"><path d="M74.1 135.79c-.17 0-.24 2.42-.32 6.32-.08 3.9-.22 9.28-.5 15.22-.28 5.94-.67 11.31-.95 15.2-.28 3.89-.45 6.3-.28 6.32.16.02.61-2.36 1.11-6.24.5-3.88 1.02-9.26 1.3-15.22.28-5.96.28-11.37.15-15.28-.13-3.91-.36-6.32-.52-6.32ZM131.72 141.19c-.3-.05-1.6 6.58-1.68 14.89-.11 8.31 1.05 14.97 1.35 14.93.35-.04-.27-6.7-.16-14.91.07-8.22.84-14.86.49-14.91Z" class="cls-7"/><path d="M156.42 120.39c-.14-.1-.41.02-.8-.09-.2-.05-.45-.14-.71-.29-.26-.15-.6-.41-1.13-.68-.26-.13-.6-.25-1-.3-.4-.05-.82.01-1.2.13-.76.25-1.34.69-1.86 1.06-.26.19-.45.32-.69.43-.22.11-.44.18-.59.2-.16.01-.21-.01-.26-.04-.05-.03-.12-.09-.21-.29-.09-.2-.17-.49-.24-.81l-.12-.53a4.6 4.6 0 0 0-.2-.66c-.17-.43-.39-.85-.75-1.24-.18-.19-.4-.39-.7-.55a2.22 2.22 0 0 0-.9-.26c-.31-.01-.62.02-.9.13-.29.11-.52.25-.7.39-.36.29-.59.58-.77.83a9.08 9.08 0 0 0-.9 1.51c-.45.97-.61 1.82-.64 2.41-.02.59.08.92.24.95.34.07.76-1.08 1.85-2.51.27-.36.59-.73.95-1.09.18-.19.36-.34.49-.41.07-.04.12-.05.12-.04.02 0 .03.01.04.02l.03.03s.02.04.07.09c.09.11.19.32.27.55.04.12.07.24.09.36.03.17.07.35.1.53.08.38.18.81.39 1.3.21.47.6 1.04 1.19 1.36.58.34 1.28.4 1.81.29.54-.1.97-.3 1.33-.52.36-.21.7-.49.94-.7.49-.43.88-.77 1.2-.93.32-.16.51-.19.91-.11.39.09.82.27 1.29.36.48.09.91.07 1.25-.05.35-.11.58-.32.67-.49.1-.17.07-.29.02-.34ZM97 127.8c-.3-.08-.97.45-1.97-.7-.28-.27-.63-.68-1.22-1.04-.3-.18-.67-.35-1.14-.4-.47-.06-.98.05-1.38.24-.8.38-1.29.95-1.67 1.25-.16.13-.35.24-.49.29-.18.06-.11.03-.12.03s-.08-.13-.14-.26c-.12-.24-.27-.64-.62-1.05-.33-.4-.76-.68-1.19-.84-.43-.16-.85-.22-1.25-.22-.79.01-1.48.25-2.05.62-.58.39-.92.82-1.2 1.24-.53.85-.7 1.57-.79 2.06-.07.5-.03.8.11.86.15.07.39-.12.71-.48.32-.36.72-.91 1.25-1.4.26-.24.58-.48.88-.59.3-.12.68-.19 1.02-.15.35.04.6.19.7.35.05.06.14.26.28.59.07.16.17.36.31.59.18.27.41.51.67.69.15.09.31.18.48.24.62.24 1.39.11 1.81-.08.46-.19.82-.44 1.13-.72.31-.28.49-.49.68-.67.18-.18.34-.31.45-.39.12-.07.18-.1.26-.11.08-.01.22 0 .38.06.32.12.69.37 1.11.63.42.25.89.48 1.38.54.5.06.91-.07 1.2-.25.29-.18.45-.43.49-.6.04-.18-.01-.28-.08-.32ZM137.98 105.16c-.09.12.12.52.82.83.68.31 1.85.43 3.12-.06 1.29-.49 2.46-1.58 3.47-2.76 1.01-1.16 2-2.42 3.23-3.02 1.21-.6 2.91-.61 4.56-1.08.82-.23 1.65-.62 2.27-1.13.63-.5 1.1-1.08 1.44-1.65.68-1.14.82-2.23.77-2.94-.05-.72-.27-1.07-.42-1.06-.17.01-.28.37-.5.94-.22.56-.56 1.34-1.22 2.09-.33.37-.73.73-1.21 1.01-.48.29-1 .48-1.66.61-.65.13-1.41.2-2.27.31-.85.11-1.83.28-2.81.76s-1.73 1.16-2.34 1.83c-.61.67-1.1 1.35-1.54 1.94-.87 1.2-1.68 2.12-2.49 2.62-.82.51-1.63.66-2.19.67-.57.02-.93-.08-1.02.07ZM99.78 109.97c.19-.26-.48-1.07-1.68-1.4-1.2-.33-2.2.01-2.16.33.03.33.87.53 1.84.81.97.26 1.8.53 2 .25ZM85.32 97.12c-.64.12-1.02.99-.84 1.95s.85 1.62 1.5 1.5c.64-.12 1.02-.99.84-1.95-.18-.95-.85-1.62-1.5-1.5ZM52.73 102.44c-.09.13-.07.35.15.56.22.21.67.39 1.25.27.29-.06.61-.21.89-.5.28-.29.48-.69.54-1.11.07-.42.01-.88-.21-1.33a2.14 2.14 0 0 0-1.16-1.05c-.99-.36-2.06-.05-2.64.81-.26.42-.35.86-.29 1.32.04.23.12.46.26.66s.3.35.56.48c.51.21.87.06 1.1-.09.23-.16.38-.37.43-.59.05-.22-.02-.4-.11-.48-.09-.08-.18-.08-.25-.05-.08.03-.15.08-.22.1-.11.01-.07.02-.15-.02a.576.576 0 0 1-.16-.18c0-.03.03.18-.02.23 0 .01 0 0 0 0l.12-.13h.01c.02-.01.1-.04.18-.04.18-.01.28.07.16 0l-.04-.03-.02-.02.13.13s.02.03.03.05c.01.02.02.04.04.07v.01s.02 0 .02.02c.01 0 0 .04.02-.03.02-.05.05-.1.07-.12-.02.02-.07.06-.11.08 0 0 .04.02.06.05.03.03.06.05.09.08s.03.1 0 .17c-.06.15-.2.28-.35.39-.14.11-.31.19-.39.33ZM46.91 160.49c.06.15.2.27.43.3.23.03.55-.03.88-.29.17-.13.33-.32.46-.58.13-.26.2-.62.16-.96-.03-.34-.16-.71-.43-1.04-.27-.33-.72-.63-1.28-.67-.54-.03-.98.17-1.31.43-.32.27-.56.63-.65 1.06-.1.43.01.89.21 1.19.2.31.45.47.68.57.47.19.89.08 1.11-.09.22-.18.22-.38.15-.52-.08-.15-.21-.26-.27-.39-.06-.13-.08-.28-.03-.38.02-.04.01-.01-.02.01-.02.02-.06.05-.09.06-.07.04-.1.01-.01.03.08.02.18.1.17.11 0 0-.07-.13-.06-.21v-.03l-.03.08s-.04.07-.08.1c-.08.07-.17.1-.15.09h.13s.11.03-.11-.02h.01s.07.09.08.16c.06.3-.1.7.03 1ZM44.28 114.48c.72.01.97-9.06 4.23-19.58 3.17-10.56 8.02-18.22 7.42-18.61-.25-.17-1.81 1.54-3.77 4.69-.49.79-1.01 1.66-1.52 2.63-.53.95-1.03 2.01-1.56 3.12-1.01 2.24-2 4.76-2.84 7.48-.82 2.72-1.41 5.37-1.81 7.79-.18 1.22-.36 2.37-.45 3.46-.12 1.09-.17 2.1-.21 3.03-.13 3.71.21 6 .51 6Z" class="cls-4"/><path d="M34.56 123.2c.53.44 4.22-3.44 9.77-6.72 1.38-.83 2.74-1.55 3.99-2.17.63-.3 1.23-.59 1.8-.85.57-.27 1.05-.47 1.45-.56.4-.09.72-.07.93.01.24.1.44.31.56.48.25.35.14.71.28.79.06.04.2.02.35-.13.15-.14.3-.45.27-.88-.03-.41-.21-.9-.66-1.33-.48-.45-1.2-.64-1.88-.62-.69 0-1.36.19-1.98.39-.63.19-1.3.42-1.99.69-1.38.54-2.86 1.25-4.33 2.13-2.96 1.76-5.27 3.89-6.72 5.59-1.45 1.72-2.07 2.97-1.83 3.17Z" class="cls-4"/><path d="M39.42 101.75c-.65.04-.97 3.53-.42 7.76.54 4.23 1.73 7.53 2.37 7.4.65-.13.51-3.56-.02-7.7-.54-4.14-1.28-7.49-1.94-7.45ZM56.27 134.64c-.07.06.04.27.13.65s.13.97-.1 1.66c-.11.34-.3.7-.57 1.03-.28.34-.64.66-1.08.97-.87.61-2.09 1.15-3.4 1.81-2.63 1.28-5.8 2.69-9.41 4.04-3.6 1.34-7.68 2.61-11.95 3.59-1.05.22-2.06.36-2.99.31-.94-.05-1.76-.29-2.49-.75-1.47-.94-2.54-2.63-3.43-4.26-1.77-3.29-2.66-6.64-3.29-9.47-.6-2.84-.96-5.2-1.26-6.82-.29-1.62-.52-2.52-.69-2.51-.16.01-.24.94-.23 2.59.02 1.66.12 4.06.52 7.03.43 2.95 1.18 6.53 3 10.18.47.9.95 1.82 1.61 2.72.65.9 1.44 1.79 2.5 2.48 1.05.7 2.37 1.09 3.61 1.16 1.26.07 2.47-.1 3.62-.34 8.95-2.04 16.52-5.47 21.66-8.46 1.27-.76 2.45-1.4 3.43-2.25.48-.42.89-.88 1.19-1.36.3-.49.47-1 .54-1.46.15-.93-.09-1.67-.36-2.06-.28-.4-.52-.51-.57-.46Z" class="cls-4"/><path d="M39.52 174.9c.68-.06.57-6.32.95-13.98.34-7.66 1.03-13.88.36-14-.62-.13-2.38 6.04-2.73 13.89-.38 7.85.8 14.16 1.43 14.09ZM147.11 110.36c-.03-.17-.52-.2-1.23-.38-.7-.17-1.64-.52-2.44-1.21s-1.29-1.56-1.56-2.23c-.28-.67-.39-1.15-.56-1.16-.15 0-.35.5-.25 1.36.09.84.57 2.03 1.6 2.92 1.04.89 2.28 1.18 3.13 1.14.86-.03 1.34-.31 1.31-.45ZM154.56 104.35c.02.07.38.09 1.03-.02.32-.07.73-.17 1.17-.43.44-.26.9-.7 1.12-1.37.11-.33.14-.74.02-1.14-.12-.4-.4-.75-.71-1-.64-.51-1.34-.74-2.05-1.02-1.44-.54-3.09-.97-4.87-1.18-.45-.05-.93-.08-1.42-.02-.49.06-1 .23-1.42.53-.42.3-.78.75-.91 1.28s-.05 1.04.13 1.47c.37.88 1.06 1.39 1.65 1.77.6.38 1.2.65 1.77.84 1.14.38 2.11.43 2.76.39.66-.05 1-.17 1-.25 0-.09-.36-.12-.98-.21-.61-.1-1.49-.27-2.48-.71-.49-.22-1.01-.5-1.52-.87-.51-.36-.99-.81-1.18-1.35-.2-.56-.08-1.07.43-1.41.5-.35 1.22-.39 2.04-.29 1.67.2 3.25.58 4.64 1.04.7.24 1.38.45 1.81.76.44.31.58.7.49 1.14-.21.91-1.07 1.33-1.62 1.57-.57.24-.91.38-.89.47ZM153.01 108.31c.04.15.34.24.79.09.44-.14 1-.57 1.29-1.26.29-.69.2-1.39 0-1.8-.21-.42-.48-.58-.62-.5-.28.17-.11 1.03-.47 1.84-.33.83-1.06 1.31-.99 1.63ZM142.64 103.24c-.15.04-.22.38-.08.89.13.51.51 1.16 1.12 1.69.62.52 1.32.79 1.85.84.53.05.85-.07.87-.23.03-.34-1-.69-1.94-1.51-.97-.8-1.48-1.76-1.81-1.68Z" class="cls-4"/><path d="M46.27 138.57c.32-.07-.25-4.06-1.28-8.92s-2.12-8.74-2.44-8.68c-.32.07.25 4.06 1.28 8.92s2.12 8.74 2.44 8.68Z" class="cls-12"/></g></svg>