<svg xmlns="http://www.w3.org/2000/svg" viewBox="0 0 200 150.96"><defs><style>.cls-2{fill:#633b5e}.cls-4{fill:#bbd7dd}.cls-6{fill:#a8cccd}.cls-7{fill:#fff}.cls-8{fill:#fc9fac}.cls-9{fill:#fcbe0c}.cls-11{fill:#ff6e00}</style></defs><path d="M194.52 71.85c-.61-8.8-1.91-17.57-3.94-26.14-2.09-8.86-5.01-17.47-8.57-25.81-3.11-7.29-6-13.81-14.71-12.64-9.18 1.23-18.36 3.52-27.39 5.56a733.52 733.52 0 0 0-13.86 3.28c-3.17.77-6.66 1.78-9.95 1.27-3.69-.56-4.34-3.75-7.01-5.86-3.55-2.81-7.46-1.62-11.37-.41a918.392 918.392 0 0 0-56.05 19.36c-4.91 1.88-9.8 3.8-14.68 5.76-4.09 1.65-9.1 2.93-12.69 5.65-3.15 2.39-3.93 5.86-4.39 9.68-.68 5.61-1.26 11.23-1.89 16.84l-3.89 34.67c-.15 1.36.17 2.43.77 3.2.15.47.39.96.74 1.45 20.01 28.06 59.65 24.1 88.8 19.43 17.69-2.84 35.41-6.16 52.76-10.77 8.51-2.26 16.94-4.89 25.17-8.08 3.95-1.53 7.86-3.2 11.71-4.97 3.43-1.58 7.76-2.93 9.56-6.65 1.46-3.02 1.14-7.17 1.22-10.45.12-4.79.02-9.58-.31-14.36z" style="fill:#575655" id="BG_Strong"/><g id="Illustrations"><path class="cls-8" d="m33.66 92.99 18.46 47.95s14.88-1.78 19.17-2.93c4.29-1.15 2.91-4.75.09-10.27-2.83-5.52-9.15-11.17-9.57-16.07s2.55-5.45 1.41-9.94-7.44-3.53-6.37-7.33 1.64-7.69 1.64-7.69l-24.84 6.27z"/><path d="M26.58 85.63c.12.81 1.46 9.54 1.46 9.54l33.41-5.1-1.58-10.34s-21.25-1.88-23.23-1.91c-1.99-.03-10.05 7.82-10.05 7.82z" style="fill:#fcbe00"/><path class="cls-2" d="m49.21 91.94-2.69-17.62 13.2 4.43 1.72 11.32-12.23 1.87z"/><path class="cls-4" d="M100.24 94.72C87.18 86.13 71.3 83.93 56.67 84.51c-3.32.13-6.82.37-10.32.67-11.98 1.01-24.02 2.72-28.92 3.34-6.33.8-11.93-4.47-13.09-14.21-1.16-9.75 4.47-16.23 8.85-17.89 4.38-1.66 15.15-1.49 27.81-5.24.62-.18 1.27-.37 1.94-.56 13.11-3.77 36.05-9.6 43.62-24.91 0 0 17.24 13.24 21.63 18.2 4.4 4.95 5.11 59.42-7.95 50.83z"/><path class="cls-8" d="M100.24 94.72C87.18 86.13 71.3 83.93 56.67 84.51c-3.32.13-6.82.37-10.32.67-.78-.9-1.53-1.83-2.24-2.79-4.7-6.4-7.39-14.61-5.83-22.39.69-3.45 2.34-6.73 4.66-9.39 13.11-3.77 36.05-9.6 43.62-24.91 0 0 17.24 13.24 21.63 18.2 4.4 4.95 5.11 59.42-7.95 50.83z"/><path class="cls-2" d="M99.94 10.72c-10.88 3.42-20.1 16.58-17.52 47.23 2.58 30.66 21.93 45.95 33.43 43.14 11.5-2.81 18.56-16.34 15.24-49.52-3.31-33.18-21.5-41.98-29.95-41.04"/><path class="cls-11" d="m147.42 65.02-7.75-46.98s13.39-5.63 25.17-.38l-7.08 47.41-10.34-.06zM152.36 69.46c-7.38 1.87-9.35 7.75-8.3 12.64 1.04 4.89 8.71 9.61 14.43 5.82 5.72-3.79 5.72-10.36 2.94-14.8s-9.06-3.66-9.06-3.66z"/><path class="cls-9" d="M169.76 41.21c-2.28-2.26-.77-3.92.92-5.02 1.68-1.1 15.8-9.48 17.29-8.53s3.53 4.93.99 6.5c-2.54 1.57-14.19 5.7-15.66 6.52-1.47.81-3.54.54-3.54.54z"/><path class="cls-11" d="M174.71 53.55c4.76-1.28 18.55-5.78 19.68-5.02s2.19 5.55.95 6.25c-1.24.69-16.76 2.64-18.66 2.85-1.9.21-3.01-3.79-1.97-4.07z"/><path class="cls-9" d="M175.76 70.39c6.29.78 19.73 1.82 19.98 3.5s.23 5.34-2.83 4.94c-3.06-.4-15.77-4.28-17.34-4.65-1.56-.38-.97-3.93.19-3.79z"/><path class="cls-7" d="M79.01 42.74c-.15-.27-3.57 1.41-9.21 3.81-2.82 1.21-6.21 2.54-10.02 3.91a180.27 180.27 0 0 1-12.56 3.91c-4.51 1.19-8.86 2.13-12.84 2.87-3.98.71-7.59 1.24-10.64 1.6-6.09.73-9.89.97-9.88 1.28 0 .24 3.83.5 10.01.13 3.09-.18 6.76-.57 10.81-1.19 4.05-.65 8.47-1.55 13.04-2.75 4.57-1.23 8.85-2.66 12.68-4.11 3.82-1.48 7.2-2.97 9.97-4.35 5.55-2.76 8.74-4.89 8.62-5.1zM29.74 64.59c-.07-.55-4.72-.38-10.39.37-5.67.75-10.2 1.8-10.13 2.35s4.73.38 10.39-.37c5.67-.75 10.2-1.8 10.13-2.35zM26.69 72.92c-.13-.55-4.43 0-9.68.76-5.26.77-9.53 1.47-9.5 2.03.03.54 4.44.74 9.79-.05 5.35-.77 9.52-2.22 9.4-2.74zM29.07 80.92c-.08-.55-3.98-.43-8.71.27-4.73.69-8.5 1.7-8.42 2.24.08.55 3.98.43 8.71-.27 4.73-.69 8.5-1.7 8.42-2.24zM57.34 100.97c-.06-.12-.35-.14-.83.04-.47.18-1.13.56-1.71 1.34-.58.75-1 2.06-.57 3.41.2.66.63 1.36 1.32 1.83.69.48 1.55.67 2.37.58.82-.08 1.6-.42 2.18-.96.58-.53.94-1.18 1.14-1.83.4-1.29.11-2.55-.36-3.36-.46-.83-1.05-1.31-1.48-1.56-.44-.25-.73-.28-.81-.17-.19.23.59.96.99 2.3.2.66.23 1.44-.09 2.2-.31.76-.93 1.32-1.77 1.4-.85.08-1.45-.33-1.75-1.03-.3-.71-.22-1.47.05-2.08.56-1.24 1.47-1.84 1.32-2.1z"/><path d="M127.66 51.53c-.04-.11-.1-.22-.16-.32.03.21.07.43.09.64.09.66.17 1.32.25 1.98.17-.79.11-1.61-.19-2.29z" style="fill:none"/><path class="cls-4" d="M94.95 79.45c.83-1.33 1.91-2.35 2.86-3.23.95-.84 1.42-1.65 1.27-2.32-.06-.29-.21-.46-.52-.61-.32-.13-.79-.17-1.27-.15-.98.06-2.04.18-2.94.24-1.97.15-3.52.23-4.56.22 1.21 3.35 2.59 6.39 4.06 9.07.02-.34.06-.69.14-1.03.19-.78.53-1.52.94-2.19zM120.37 90.43c-.52-.16-1.24.11-1.77.77-.54.66-.84 1.64-1.08 2.56-.24.91-.38 1.76-.48 2.49-.04.26-.06.49-.09.72 2.17-.7 3.91-2.08 5.33-4.11 0 0 .01-.02.02-.02-.13-.34-.29-.73-.5-1.14-.29-.55-.83-1.09-1.42-1.25zM125.23 45.83c-.06.42.05.95.36 1.35.24.34.74.58 1.42.96-.23-1.29-.5-2.57-.79-3.83-.15.11-.32.25-.5.46-.22.26-.44.63-.49 1.06zM113.02 21.6c.82.79 1.94 1.14 2.78 1.25.47.07.87.08 1.16.13-1.67-2.19-3.51-4.03-5.49-5.45.09.28.1.75.21 1.33.14.84.52 1.94 1.34 2.74zM90.01 29.85c.16-.7-.03-1.56-.45-2.63-.15-.39-.31-.81-.45-1.24-.74 1.81-1.39 3.83-1.92 6.07.41-.07 1.04-.16 1.69-.58.5-.32.97-.91 1.13-1.62z"/><path class="cls-4" d="M110.93 94.36c-.17-.17-.35-.33-.55-.48-.09-.08-.21-.14-.31-.22l-.16-.11-.29-.15-.31-.16-.16-.08-.23-.07c-.33-.09-.66-.19-.99-.28-.73-.18-1.47-.36-2.23-.54.74-.34 1.74-.75 2.81-1.22l.62-.37.32-.19.16-.1.07-.06c.17-.16.36-.3.52-.48.67-.69 1.25-1.55 1.67-2.54.86-2 1.05-4.38.51-6.85-.15-.72-.35-1.43-.57-2.13-.09-.27-.3-.87-.3-1.41-.02-.55.13-1.09.37-1.57.48-.95 1.39-1.62 2.4-1.8.5-.1 1.02-.07 1.48.06.27.07.38.12.54.17l.46.14c2.44.76 4.76.56 6.61 0 1.86-.57 3.21-1.47 4.1-2.14.23-.18.43-.33.6-.47.08-.89.14-1.81.19-2.74.01.14-.52.4-1.53.74-1.02.33-2.53.77-4.51.96-1.95.19-4.5.08-6.97-1.25-1.22-.66-2.41-1.65-3.23-3.02a7.032 7.032 0 0 1-.84-4.8c.27-1.67 1.32-3.3 2.83-4.11 1.48-.78 2.91-.88 4.07-1.13 1.16-.22 2.15-.58 2.72-1.17.59-.61.8-1.44.56-1.97-.22-.56-.89-.94-1.5-1.06-.61-.13-1.23-.05-1.72.03-1 .19-1.61.34-1.66.2-.05-.12.4-.52 1.43-.98.52-.21 1.2-.46 2.1-.41.85.06 2 .39 2.68 1.56.32.57.42 1.3.29 1.96-.12.67-.42 1.29-.87 1.83-.95 1.11-2.33 1.6-3.6 1.91-1.28.31-2.54.49-3.49 1.03-.91.52-1.55 1.5-1.76 2.68-.21 1.18 0 2.43.55 3.39.57 1 1.45 1.8 2.41 2.37 1.96 1.17 4.13 1.44 5.95 1.45 1.83 0 3.35-.2 4.41-.28 1.05-.09 1.65-.09 1.69.05.06-1.14.1-2.3.12-3.48-.2.09-.46.19-.8.3-.8.2-2.07.57-3.75.06-.81-.28-1.67-.8-2.29-1.73-.3-.47-.52-1.06-.54-1.69-.03-.63.13-1.27.41-1.82.56-1.1 1.51-1.9 2.49-2.5.96-.59 1.91-1.04 2.61-1.64.71-.59 1.14-1.4 1.32-2.23-.07-.65-.16-1.31-.25-1.98l-.09-.64c-.29-.58-.7-1.08-1.17-1.45-.55-.44-1.49-.88-1.99-1.78-.48-.85-.49-1.75-.25-2.44.24-.71.71-1.15 1.11-1.4.36-.21.66-.29.9-.32-.34-1.43-.72-2.84-1.13-4.21-.41.46-.92 1.06-1.47 1.83-.63.9-1.28 2.03-1.75 3.37-.26.67-.46 1.61-1.29 2.49-.42.43-.99.74-1.52.89-.54.17-1.04.21-1.51.25-.96.06-1.63.08-2.26.32-.63.22-1.16.59-1.54 1.02-.74.85-.82 2.09-.42 2.83.38.75 1.18 1.11 1.71 1.21.55.11.91.02.98.16.07.1-.19.49-.96.66-.73.15-2.02 0-2.98-1.21-.91-1.19-1.03-3.22.14-4.82.57-.78 1.4-1.39 2.33-1.76.46-.19.97-.31 1.47-.38.49-.07.94-.08 1.36-.12.85-.06 1.43-.2 1.75-.52.36-.32.63-1 .94-1.74.65-1.53 1.55-2.74 2.41-3.62.9-.9 1.72-1.45 2.34-1.76-1.22-3.89-2.73-7.51-4.49-10.71-.35-.04-.74-.08-1.17-.11-1-.06-2.2-.03-3.5.22-.65.13-1.32.3-2 .55-.75.29-1.02.39-2.83 1.39-.28-.37-.55-.74-.83-1.11l-.2-.25-.1-.12-.21-.24c-.29-.32-.6-.62-.93-.91-1.37-1.19-2.97-1.78-4.44-1.67-1.48.08-2.64.82-3.19 1.76-.58.95-.66 1.94-.57 2.58.08.66.27 1.04.14 1.14-.09.08-.53-.13-.92-.89-.38-.74-.59-2.06.02-3.5.3-.71.86-1.46 1.62-1.98.76-.54 1.7-.91 2.71-1.03s2.09-.03 3.14.33c1.04.35 2.01.94 2.85 1.67.41.35.78.72 1.12 1.11l.25.29.12.15.02.02v.02c-.33.17.88-.4 1.62-.6.81-.25 1.6-.39 2.36-.48 1.51-.16 2.87-.02 3.95.24.06.02.11.03.17.05-.66-1.1-1.35-2.14-2.07-3.12-.18.28-.64.63-1.42.83-1.11.3-2.95.12-4.36-1.22-1.39-1.37-1.63-3.2-1.37-4.32.21-.93.63-1.42.91-1.52-1.91-1.31-3.95-2.22-6.11-2.66.13.08.27.18.44.33.44.4 1.08 1.02 1.58 2.1.24.53.42 1.24.39 1.98-.03.74-.25 1.6-.89 2.33-.64.76-1.71 1.11-2.56 1.16-.87.07-1.63-.01-2.28.05-1.34.11-2.58.63-3.54 1.32-.96.69-1.64 1.57-2.1 2.38-.91 1.64-.99 2.94-1.31 2.94-.25.04-.76-1.35-.05-3.54a7.51 7.51 0 0 1 2.26-3.3c1.17-1 2.77-1.75 4.57-1.9.92-.07 1.69.03 2.3 0 .62-.03 1.01-.16 1.29-.43.29-.27.49-.71.57-1.17.08-.47.05-.89-.06-1.33-.21-.86-.6-1.58-.83-2.11-.21-.47-.3-.78-.24-.91-.72-.13-1.45-.2-2.19-.22.03.3.03.66-.05 1.09-.2 1.18-1.08 2.83-2.82 3.77-1.75.93-3.61.75-4.7.26-.63-.27-1.03-.6-1.24-.88-1.09 1.21-2.11 2.69-3.04 4.43 0 .19.03.38.05.58.1.85.51 1.76.97 2.93.22.59.42 1.21.51 1.89.09.68.04 1.39-.18 2.04-.45 1.28-1.44 2.1-2.37 2.41-.93.31-1.71.18-2.17 0-.11-.04-.19-.09-.27-.14-.82 3.65-1.36 7.85-1.5 12.59.78.45 1.86 1.11 3.27 1.66 1.42.55 3.26.94 5.12.53.92-.2 1.81-.61 2.55-1.27.74-.65 1.31-1.54 1.5-2.5.2-.97.03-2-.43-2.78-.45-.78-1.2-1.3-2.03-1.51-.82-.21-1.63-.09-2.23.29-.61.39-1.04 1.02-1.17 1.61-.31 1.2.69 2.12 1.39 2.36.73.29 1.23.08 1.3.23.03.06-.05.19-.28.34-.23.15-.65.28-1.19.23a3.02 3.02 0 0 1-1.77-.82c-.59-.51-1.05-1.51-.92-2.55.1-1.04.67-2.07 1.63-2.81.98-.75 2.36-1.04 3.66-.76 1.29.25 2.6 1.07 3.36 2.33.77 1.24 1.03 2.78.73 4.27-.65 3.04-3.35 4.89-5.75 5.25-2.44.4-4.58-.28-6.1-1.08-1.16-.62-2.03-1.29-2.67-1.87-.03 1.74-.01 3.54.06 5.42.02.47.04.95.07 1.42.35 5.89 1.37 11.37 2.81 16.3.34 1.15.7 2.27 1.08 3.36.99-.28 2.57-.61 4.62-.99.92-.16 1.84-.35 3-.5.59-.05 1.26-.09 2.02.15.77.23 1.57.98 1.77 1.88.22.88.05 1.74-.33 2.5-.38.73-.91 1.28-1.39 1.76-.95.92-1.86 1.82-2.51 2.86-.32.52-.56 1.05-.7 1.59-.13.5-.15 1.05-.06 1.55.17 1.03.75 1.84 1.52 2.11.78.29 1.76.09 2.59-.32.83-.41 1.56-1 2.05-1.6.48-.6.72-1.27.68-1.79-.04-.54-.34-1.01-.64-1.3-.63-.6-1.23-.43-1.27-.59-.02-.06.08-.2.39-.29.3-.09.81-.09 1.35.21.52.3 1.09.86 1.33 1.76.22.92-.05 1.96-.62 2.85-.58.89-1.39 1.66-2.44 2.28-1.02.58-2.41 1.07-3.95.64 1.73 2.45 3.47 4.44 5.07 5.88-.29-.82-.39-1.77-.19-2.76.2-1.04.8-2 1.49-2.75.69-.76 1.45-1.37 2.11-2 .67-.63 1.15-1.22 1.48-1.93.33-.7.52-1.45.57-2.17.11-1.45-.33-2.74-.96-3.69-1.28-1.93-2.88-2.46-2.76-2.76.04-.13.47-.18 1.21.04.73.22 1.77.75 2.72 1.81.95 1.03 1.76 2.72 1.72 4.67 0 .96-.21 1.98-.64 2.95-.41.98-1.15 1.89-1.9 2.59-.75.71-1.49 1.29-2.05 1.88-.56.59-.94 1.17-1.11 1.79-.36 1.28.07 2.6.76 3.36.71.8 1.61 1.15 2.24 1.32.64.17 1.04.19 1.07.34.02.08-.13.21-.42.31 1.95.55 3.71.86 5.29.93-.08-.31-.18-.67-.35-1.07-.27-.63-.7-1.37-1.38-2.04zm.31-50.38c-.55.75-1.6 1.58-2.97 2.02-1.36.44-2.71.37-3.59.09-.89-.28-1.33-.72-1.24-.98.2-.56 2.1-.39 4.19-1.1 2.11-.64 3.56-1.88 4.05-1.54.22.17.12.77-.44 1.52zm-.55-8.23c.53-.79 1.11-1.64 1.9-2.46.82-.83 1.83-1.53 3.07-1.93 1.22-.4 2.72-.37 3.88.34 1.19.69 1.84 1.88 2.11 2.95.26 1.09.21 2.15-.05 3.09-.27.95-.71 1.68-1.16 2.31-.92 1.23-1.87 1.96-2.52 2.44-.66.47-1.08.66-1.18.55-.1-.11.13-.5.61-1.14.46-.64 1.21-1.51 1.84-2.66.31-.56.6-1.23.72-1.91.13-.68.1-1.46-.12-2.18-.22-.72-.66-1.35-1.26-1.68-.61-.34-1.4-.38-2.23-.12-.83.26-1.62.78-2.24 1.38-.65.63-1.22 1.38-1.78 2.12-1.09 1.48-2.27 2.98-3.68 3.75-1.36.79-2.73.96-3.6.74-.88-.2-1.21-.61-1.16-.71.07-.15.51-.03 1.22-.1.71-.05 1.71-.38 2.72-1.16 1.02-.76 1.88-2.04 2.92-3.63zm-12.21.22c-.91-.44-1.73-.66-2.61-.72-1.74-.11-3.36.39-4.55 1.06-2.44 1.37-3.16 3.19-3.47 3.04-.11-.04-.12-.56.24-1.37s1.09-1.95 2.42-2.91c1.3-.96 3.19-1.78 5.44-1.75 1.1 0 2.34.3 3.38.78 1.05.46 1.99.99 2.9 1.22 1.73.47 3.6-.53 4.45-1.87.9-1.32.72-3.02 0-3.89-.68-.89-1.87-.79-2.47-.49-.64.3-.81.76-.97.71-.06-.01-.12-.15-.08-.41.04-.25.2-.63.57-.97.37-.34.93-.64 1.66-.71.71-.1 1.68.18 2.35.84.69.65 1.15 1.6 1.28 2.65.15 1.05-.1 2.24-.69 3.27a6.239 6.239 0 0 1-2.67 2.48c-1.14.57-2.61.79-3.95.43-1.31-.34-2.32-.96-3.24-1.38zm4.39 32.35c-.77-.12-1.39-.32-1.88-.5-.98-.38-1.46-.68-1.43-.82.04-.14.62-.1 1.62.02.97.09 2.48.33 3.89-.27.69-.31 1.39-.87 1.7-1.58.31-.69.19-1.51-.39-2.3-.56-.8-1.49-1.39-2.62-2.06-1.12-.64-2.46-1.52-3.41-2.78-.97-1.23-1.61-2.77-1.62-4.35 0-1.57.58-3.06 1.58-4.13.51-.53 1.13-.95 1.8-1.21.67-.25 1.35-.33 2-.29 1.29.08 2.42.64 3.18 1.41.78.79 1.12 1.75 1.22 2.56.09.82-.03 1.52-.23 2.05-.41 1.06-.98 1.4-1.07 1.32-.13-.1.17-.59.27-1.52.11-.88-.06-2.37-1.21-3.32-1.09-.95-3.34-1.17-4.54.3-.61.71-.99 1.75-.95 2.8.03 1.04.47 2.15 1.22 3.09.75.97 1.7 1.63 2.83 2.31 1.1.68 2.36 1.49 3.15 2.73.39.6.69 1.3.77 2.05.08.74-.08 1.51-.41 2.11-.67 1.22-1.75 1.86-2.74 2.19-1.02.33-1.96.28-2.73.18zm4.97 4.26c-.39.53-.64.97-.94.96-.27 0-.57-.54-.46-1.45.1-.89.72-2.15 2-2.92 1.29-.76 2.69-.7 3.52-.36.86.34 1.19.86 1.06 1.1-.14.27-.64.28-1.29.37-.65.08-1.48.26-2.22.7-.74.44-1.29 1.08-1.68 1.61z"/><path class="cls-4" d="M123.88 75.33c-1.01.41-2.19.73-3.49.84-1.3.13-2.73 0-4.13-.37l-.53-.14c-.17-.05-.38-.12-.45-.13-.21-.05-.41-.05-.61 0-.4.08-.77.37-.95.75-.09.19-.14.39-.13.6.02.22.05.35.21.8.25.76.48 1.54.65 2.36.29 1.39.41 2.8.28 4.2-.12 1.39-.5 2.7-1.04 3.89a9.694 9.694 0 0 1-2.21 3.06c-.21.22-.47.39-.7.58l-.08.07h-.02l-.04.03-.08.04c-.08.04-.25.08-.31.11.04.02.09.04.15.08.08.06.17.12.24.18l.29.23c.12.1.25.2.36.31.23.21.44.43.62.66.74.9 1.11 1.86 1.29 2.64.11.54.13.99.11 1.35.86 0 1.67-.07 2.42-.22-.07-.3-.13-.64-.18-1.03a11.2 11.2 0 0 1 .07-2.86c.18-1.04.41-2.3 1.34-3.5.48-.59 1.1-1.05 1.82-1.3.71-.26 1.57-.25 2.23.03 1.34.57 1.93 1.68 2.16 2.54l.03.14c.46-.89.94-1.99 1.4-3.25-.14-.43-.34-.91-.68-1.37-.54-.76-1.53-1.44-2.72-1.59-.3-.04-.59-.04-.9 0-.34.03-.75.12-1.31.12-.53 0-1.3-.16-1.83-.68-.53-.49-.79-1.14-.88-1.77-.07-.63.02-1.27.32-1.85.3-.57.71-.98 1.16-1.28.9-.61 1.87-.81 2.74-.84 1.74-.06 3.17.49 4.23 1.03.78.42 1.41.83 1.88 1.19.56-2.56 1.03-5.42 1.35-8.54-.78.9-2.11 2.05-4.09 2.87z"/><path class="cls-4" d="M120.65 80.72c-.62.06-1.24.26-1.68.59-.46.35-.64.71-.58 1.19.03.23.12.42.22.5.08.08.18.13.46.15.27.02.64-.03 1.09-.06.47-.03.95 0 1.39.09 1.79.36 3.1 1.54 3.68 2.74.03.06.04.12.07.18.39-1.25.78-2.62 1.13-4.11-.58-.2-1.34-.48-2.24-.79-1.02-.33-2.25-.62-3.52-.47zM94.78 17.3l5.27-2.82c-1.81.37-3.6 1.31-5.27 2.82zM124.97 59.46c-.83.46-1.48 1.03-1.84 1.64-.35.61-.35 1.18-.08 1.72.28.54.81.99 1.35 1.25 1.09.52 2.3.48 3.09.51.39 0 .7.02.92.05.02-2.33-.05-4.76-.23-7.26-.1.1-.18.2-.29.29-1.02.85-2.07 1.31-2.91 1.8z"/><path class="cls-6" d="M94.3 49.35c2.4-.35 5.1-2.2 5.75-5.25.3-1.49.03-3.02-.73-4.27a5.121 5.121 0 0 0-3.36-2.33c-1.3-.27-2.68.01-3.66.76-.96.74-1.52 1.77-1.63 2.81-.13 1.03.33 2.03.92 2.55.58.55 1.24.78 1.77.82.54.05.96-.08 1.19-.23.24-.14.31-.28.28-.34-.07-.16-.57.05-1.3-.23-.7-.24-1.71-1.16-1.39-2.36.13-.59.55-1.21 1.17-1.61.59-.38 1.41-.51 2.23-.29.82.21 1.58.73 2.03 1.51.46.78.63 1.81.43 2.78-.2.96-.77 1.85-1.5 2.5-.74.66-1.63 1.07-2.55 1.27-1.86.41-3.7.02-5.12-.53-1.4-.54-2.48-1.21-3.27-1.66-.01.37-.02.76-.02 1.14.64.58 1.51 1.26 2.67 1.87 1.53.8 3.66 1.48 6.1 1.08z"/><path class="cls-6" d="M105.67 36.92c1.15-.57 2.08-1.45 2.67-2.48.59-1.03.84-2.21.69-3.27-.13-1.05-.59-2-1.28-2.65-.67-.66-1.64-.93-2.35-.84-.73.07-1.3.37-1.66.71-.37.34-.53.72-.57.97-.04.25.01.39.08.41.16.05.33-.42.97-.71.6-.3 1.79-.4 2.47.49.72.86.91 2.57 0 3.89-.85 1.35-2.73 2.35-4.45 1.87-.91-.23-1.86-.76-2.9-1.22-1.05-.48-2.28-.78-3.38-.78-2.24-.02-4.13.79-5.44 1.75-1.33.96-2.06 2.1-2.42 2.91-.36.82-.35 1.33-.24 1.37.31.15 1.04-1.67 3.47-3.04 1.19-.67 2.8-1.18 4.55-1.06.88.06 1.71.28 2.61.72.92.42 1.93 1.04 3.24 1.38 1.35.36 2.82.14 3.95-.43zM107.77 39.38c-1.01.78-2.01 1.11-2.72 1.16-.71.07-1.15-.05-1.22.1-.06.11.28.51 1.16.71.87.22 2.24.05 3.6-.74 1.41-.77 2.59-2.27 3.68-3.75.56-.74 1.13-1.49 1.78-2.12.62-.6 1.41-1.12 2.24-1.38.83-.26 1.62-.22 2.23.12.61.33 1.04.96 1.26 1.68.22.72.25 1.5.12 2.18-.12.67-.41 1.34-.72 1.91-.63 1.15-1.37 2.02-1.84 2.66-.48.64-.71 1.03-.61 1.14.1.1.51-.09 1.18-.55.65-.48 1.6-1.2 2.52-2.44.45-.63.89-1.36 1.16-2.31.26-.94.31-1.99.05-3.09-.26-1.07-.92-2.26-2.11-2.95-1.16-.71-2.67-.74-3.88-.34-1.24.4-2.25 1.1-3.07 1.93-.79.82-1.37 1.68-1.9 2.46-1.04 1.59-1.9 2.87-2.92 3.63z"/><path class="cls-6" d="M107.63 44c-2.09.71-3.99.54-4.19 1.1-.08.26.35.7 1.24.98.88.29 2.22.35 3.59-.09 1.36-.44 2.42-1.27 2.97-2.02.56-.75.66-1.36.44-1.52-.49-.34-1.94.9-4.05 1.54zM126.52 56.06c-.69.6-1.65 1.05-2.61 1.64-.98.59-1.93 1.4-2.49 2.5-.28.55-.44 1.19-.41 1.82.02.63.25 1.22.54 1.69.62.93 1.48 1.45 2.29 1.73 1.68.51 2.95.14 3.75-.06.35-.1.6-.2.8-.3v-.47c-.22-.03-.53-.04-.92-.05-.79-.03-1.99 0-3.09-.51-.54-.26-1.06-.71-1.35-1.25-.27-.54-.27-1.11.08-1.72.36-.61 1.01-1.18 1.84-1.64.84-.5 1.9-.95 2.91-1.8.11-.09.19-.19.29-.29-.09-1.16-.2-2.35-.33-3.54-.18.84-.62 1.64-1.32 2.23zM124.09 45.54c-.24.69-.23 1.59.25 2.44.51.89 1.44 1.34 1.99 1.78.47.36.87.86 1.17 1.45-.15-1.03-.31-2.05-.49-3.06-.68-.39-1.18-.63-1.42-.96-.31-.4-.42-.92-.36-1.35.05-.43.26-.79.49-1.06.18-.21.35-.34.5-.46-.04-.17-.08-.33-.12-.49-.23.02-.54.11-.9.32-.4.25-.87.69-1.11 1.4zM100.91 87.02c1.05-.62 1.86-1.39 2.44-2.28.57-.89.84-1.93.62-2.85a2.76 2.76 0 0 0-1.33-1.76c-.54-.3-1.05-.31-1.35-.21-.3.09-.41.23-.39.29.04.16.64 0 1.27.59.3.29.6.76.64 1.3.04.52-.19 1.19-.68 1.79-.48.6-1.21 1.19-2.05 1.6-.83.41-1.81.61-2.59.32-.77-.26-1.35-1.08-1.52-2.11-.09-.51-.07-1.05.06-1.55.14-.54.38-1.07.7-1.59.65-1.05 1.55-1.94 2.51-2.86.49-.48 1.02-1.04 1.39-1.76.38-.75.55-1.61.33-2.5-.2-.91-1.01-1.66-1.77-1.88-.77-.25-1.44-.21-2.02-.15-1.16.15-2.08.34-3 .5-2.05.38-3.63.71-4.62.99.08.24.17.47.25.71 1.03 0 2.59-.07 4.56-.22.89-.06 1.96-.18 2.94-.24.48-.02.95.02 1.27.15.31.14.46.32.52.61.14.67-.32 1.48-1.27 2.32-.95.88-2.03 1.9-2.86 3.23-.41.67-.75 1.4-.94 2.19-.08.34-.12.69-.14 1.03 1.01 1.83 2.05 3.5 3.1 4.99 1.54.43 2.93-.06 3.95-.64z"/><path class="cls-6" d="M107.8 96.22c-.03-.15-.44-.17-1.07-.34-.62-.17-1.53-.52-2.24-1.32-.69-.76-1.12-2.08-.76-3.36.17-.62.55-1.2 1.11-1.79.56-.59 1.29-1.16 2.05-1.88.75-.7 1.49-1.61 1.9-2.59.43-.97.63-1.99.64-2.95.03-1.95-.77-3.63-1.72-4.67-.95-1.07-1.99-1.59-2.72-1.81-.74-.22-1.18-.17-1.21-.04-.12.31 1.47.83 2.76 2.76.63.95 1.08 2.24.96 3.69-.05.72-.24 1.47-.57 2.17-.33.71-.81 1.3-1.48 1.93-.66.63-1.42 1.24-2.11 2-.69.75-1.28 1.72-1.49 2.75-.2.99-.1 1.94.19 2.76 1.16 1.05 2.26 1.81 3.22 2.28.29.14.57.25.83.34.44.14.87.27 1.29.39.29-.11.44-.24.42-.31z"/><path class="cls-6" d="M127.48 71.8c-.89.67-2.24 1.57-4.1 2.14-1.86.57-4.17.77-6.61 0l-.46-.14c-.16-.05-.27-.1-.54-.17-.47-.13-.98-.16-1.48-.06-1.01.18-1.92.85-2.4 1.8-.24.47-.38 1.02-.37 1.57 0 .54.21 1.14.3 1.41.23.7.42 1.41.57 2.13.55 2.47.35 4.85-.51 6.85-.42.99-1 1.86-1.67 2.54-.16.18-.35.32-.52.48l-.07.06-.16.1-.32.19-.62.37c-1.07.47-2.08.88-2.81 1.22.76.19 1.5.37 2.23.54.33.1.66.19.99.28l.23.07.16.08.31.16.29.15.16.11c.1.07.22.13.31.22.2.15.38.31.55.48.68.66 1.11 1.4 1.38 2.04.17.41.27.76.35 1.07h.65c.02-.37 0-.82-.11-1.35-.18-.79-.55-1.74-1.29-2.64a5.46 5.46 0 0 0-.62-.66c-.11-.11-.24-.21-.36-.31l-.29-.23-.24-.18c-.06-.03-.11-.06-.15-.08.06-.03.24-.07.31-.11l.08-.04.04-.02h.02l.08-.07c.23-.19.49-.36.7-.58.9-.83 1.66-1.87 2.21-3.06.54-1.19.92-2.5 1.04-3.89.13-1.4 0-2.81-.28-4.2-.17-.82-.39-1.6-.65-2.36-.16-.45-.2-.58-.21-.8-.01-.21.04-.41.13-.6.18-.38.55-.67.95-.75.2-.05.4-.05.61 0 .07 0 .29.08.45.13l.53.14c1.4.36 2.83.49 4.13.37 1.3-.11 2.48-.43 3.49-.84 1.98-.82 3.31-1.97 4.09-2.87.04-.38.07-.76.11-1.14-.17.14-.37.3-.6.47z"/><path class="cls-6" d="M121.03 88.61c-.66-.28-1.52-.29-2.23-.03-.72.25-1.35.71-1.82 1.3-.93 1.19-1.17 2.46-1.34 3.5-.16 1.07-.16 2.05-.07 2.86.04.39.11.73.18 1.03.42-.08.83-.18 1.22-.3.03-.22.06-.46.09-.72.1-.72.24-1.57.48-2.49.24-.92.55-1.9 1.08-2.56.53-.65 1.25-.92 1.77-.77.59.16 1.13.7 1.42 1.25.21.41.37.81.5 1.14.29-.42.6-.93.91-1.54-.01-.05-.01-.09-.03-.14-.23-.86-.82-1.97-2.16-2.54zM120.51 78.79c-.87.03-1.84.23-2.74.84-.45.31-.86.72-1.16 1.28-.3.58-.39 1.22-.32 1.85.08.63.34 1.27.88 1.77.53.52 1.3.68 1.83.68.55 0 .97-.09 1.31-.12.32-.03.6-.03.9 0 1.19.15 2.18.83 2.72 1.59.34.46.54.93.68 1.37.22-.61.45-1.26.66-1.95-.03-.06-.04-.12-.07-.18-.58-1.19-1.89-2.38-3.68-2.74-.44-.09-.93-.12-1.39-.09-.45.03-.82.08-1.09.06-.28-.02-.38-.07-.46-.15-.09-.08-.18-.27-.22-.5-.05-.48.13-.84.58-1.19.44-.33 1.06-.53 1.68-.59 1.27-.14 2.5.15 3.52.47.9.3 1.65.59 2.24.79.07-.32.15-.64.22-.97-.47-.36-1.1-.76-1.88-1.19-1.05-.54-2.48-1.09-4.23-1.03zM108.33 65.95c.33-.6.49-1.37.41-2.11-.07-.75-.37-1.45-.77-2.05-.79-1.23-2.05-2.05-3.15-2.73-1.13-.69-2.09-1.35-2.83-2.31-.75-.94-1.19-2.05-1.22-3.09-.04-1.05.35-2.09.95-2.8 1.2-1.48 3.44-1.25 4.54-.3 1.15.95 1.32 2.44 1.21 3.32-.11.92-.41 1.42-.27 1.52.09.08.65-.26 1.07-1.32.2-.53.32-1.23.23-2.05-.1-.81-.44-1.77-1.22-2.56-.77-.78-1.89-1.33-3.18-1.41-.64-.04-1.33.04-2 .29-.67.26-1.28.67-1.8 1.21-1.01 1.08-1.59 2.56-1.58 4.13.01 1.59.65 3.12 1.62 4.35.95 1.25 2.3 2.14 3.41 2.78 1.13.66 2.06 1.26 2.62 2.06.58.79.71 1.61.39 2.3-.3.71-1 1.27-1.7 1.58-1.41.6-2.92.37-3.89.27-1-.12-1.58-.17-1.62-.02-.04.13.45.44 1.43.82.49.18 1.11.38 1.88.5.76.11 1.7.15 2.73-.18.99-.33 2.07-.97 2.74-2.19zM115.29 26.34c-.76.08-1.55.22-2.36.48-.74.2-1.95.77-1.62.6v-.02l-.02-.02-.12-.15-.25-.29c-.34-.39-.71-.76-1.12-1.11-.85-.73-1.82-1.32-2.85-1.67a6.965 6.965 0 0 0-3.14-.33c-1.01.12-1.95.49-2.71 1.03-.76.53-1.32 1.28-1.62 1.98-.61 1.44-.4 2.76-.02 3.5.38.76.83.97.92.89.13-.1-.06-.48-.14-1.14-.09-.64-.01-1.63.57-2.58.55-.94 1.71-1.67 3.19-1.76 1.48-.11 3.07.48 4.44 1.67.33.28.64.59.93.91l.21.24.1.12.2.25c.28.37.56.74.83 1.11 1.8-1 2.08-1.1 2.83-1.39.67-.26 1.35-.42 2-.55 1.3-.25 2.5-.28 3.5-.22.43.03.82.07 1.17.11-.26-.47-.53-.94-.8-1.39-.06-.02-.11-.03-.17-.05-1.08-.26-2.44-.4-3.95-.24z"/><path class="cls-6" d="M104.78 15.43c.23.53.63 1.25.83 2.11.11.44.13.86.06 1.33-.08.45-.28.9-.57 1.17-.28.26-.67.4-1.29.43-.61.04-1.38-.06-2.3 0-1.8.15-3.4.9-4.57 1.9-1.18 1-1.89 2.24-2.26 3.3-.71 2.19-.2 3.58.05 3.54.32 0 .4-1.3 1.31-2.94.46-.81 1.13-1.69 2.1-2.38.96-.69 2.2-1.21 3.54-1.32.65-.06 1.41.02 2.28-.05.85-.05 1.91-.4 2.56-1.16.64-.74.86-1.59.89-2.33.03-.74-.15-1.45-.39-1.98-.5-1.08-1.14-1.7-1.58-2.1-.17-.15-.31-.25-.44-.33-.15-.03-.3-.06-.46-.09-.07.12.02.43.24.91zM110.2 18.79c-.26 1.12-.03 2.95 1.37 4.32 1.41 1.35 3.25 1.52 4.36 1.22.78-.2 1.24-.55 1.42-.83-.13-.18-.25-.36-.39-.53-.29-.04-.68-.06-1.16-.13-.84-.11-1.96-.46-2.78-1.25-.82-.8-1.21-1.9-1.34-2.74-.11-.58-.12-1.05-.21-1.33a8.11 8.11 0 0 0-.36-.26c-.28.1-.71.59-.91 1.52zM89.49 32.82c.92-.31 1.92-1.13 2.37-2.41.22-.65.27-1.36.18-2.04-.09-.68-.29-1.3-.51-1.89-.45-1.17-.86-2.07-.97-2.93-.03-.19-.04-.39-.05-.58-.5.93-.96 1.93-1.4 3 .15.43.3.85.45 1.24.42 1.07.61 1.94.45 2.63-.16.71-.63 1.3-1.13 1.62-.65.41-1.28.5-1.69.58-.05.2-.09.42-.14.63.08.05.16.09.27.14.46.19 1.25.32 2.17 0zM101.92 13.48zM93.4 18.04z"/><path class="cls-4" d="M95.15 17.99c.93.05 2.2-.06 3.34-.67 1.14-.61 1.94-1.61 2.41-2.41.13-.21.24-.41.33-.59-.4.03-.79.08-1.19.16l-5.27 2.82c-.22.2-.43.4-.64.62.28.02.61.06 1.01.07z"/><path class="cls-6" d="M94.79 19.43c1.09.49 2.95.67 4.7-.26 1.74-.94 2.62-2.59 2.82-3.77.08-.43.08-.8.05-1.09-.17 0-.35-.01-.52-.01-.3 1.65-1.36 3.16-2.84 3.95-1.59.85-3.59.84-5.18.02-.09.09-.17.19-.26.29.21.28.61.61 1.24.88z"/><path class="cls-6" d="M101.24 14.32c-.1.18-.21.38-.33.59-.47.8-1.27 1.8-2.41 2.41-1.14.61-2.42.72-3.34.67-.4-.02-.73-.05-1.01-.07-.11.11-.22.23-.33.35 1.6.82 3.6.83 5.18-.02 1.48-.79 2.54-2.3 2.84-3.95h-.15c-.15 0-.29.02-.44.03zM111.73 70.27c.65-.09 1.15-.1 1.29-.37.13-.24-.2-.76-1.06-1.1-.84-.34-2.24-.4-3.52.36-1.28.77-1.9 2.03-2 2.92-.12.92.18 1.45.46 1.45.3 0 .55-.43.94-.96.38-.53.94-1.17 1.68-1.61.74-.44 1.57-.62 2.22-.7zM119.95 44.11c-.31.74-.58 1.42-.94 1.74-.32.31-.9.46-1.75.52-.42.03-.87.05-1.36.12-.5.06-1.01.19-1.47.38-.93.37-1.76.98-2.33 1.76-1.17 1.6-1.05 3.63-.14 4.82.96 1.22 2.25 1.36 2.98 1.21.77-.17 1.02-.55.96-.66-.07-.14-.44-.05-.98-.16-.53-.09-1.33-.46-1.71-1.21-.39-.73-.32-1.97.42-2.83.37-.44.91-.8 1.54-1.02.62-.24 1.3-.26 2.26-.32.47-.04.97-.09 1.51-.25.53-.15 1.1-.46 1.52-.89.84-.89 1.04-1.82 1.29-2.49.47-1.34 1.12-2.47 1.75-3.37.55-.77 1.07-1.37 1.47-1.83-.09-.3-.18-.59-.27-.88-.61.3-1.44.86-2.34 1.76-.86.88-1.76 2.09-2.41 3.62zM128.28 68.58l-.01.01.01-.01z"/><path class="cls-6" d="M126.58 68.52c-1.06.08-2.58.28-4.41.28-1.82 0-3.99-.28-5.95-1.45-.96-.57-1.84-1.37-2.41-2.37-.55-.96-.76-2.21-.55-3.39.21-1.19.85-2.16 1.76-2.68.95-.55 2.21-.73 3.49-1.03 1.27-.31 2.65-.79 3.6-1.91.45-.54.75-1.17.87-1.83.13-.66.03-1.38-.29-1.96-.68-1.17-1.83-1.5-2.68-1.56-.9-.05-1.58.2-2.1.41-1.02.46-1.47.86-1.43.98.05.15.66 0 1.66-.2.49-.08 1.11-.16 1.72-.03.61.12 1.28.5 1.5 1.06.24.53.03 1.36-.56 1.97-.56.59-1.56.95-2.72 1.17-1.16.25-2.59.34-4.07 1.13-1.51.8-2.55 2.43-2.83 4.11-.3 1.68.01 3.39.84 4.8.82 1.37 2.01 2.36 3.23 3.02 2.47 1.33 5.02 1.44 6.97 1.25 1.98-.2 3.48-.64 4.51-.96 1.01-.33 1.54-.59 1.53-.74v-.01c-.04-.14-.64-.14-1.69-.05z"/><path class="cls-2" d="M105.55 65.98 87.5 69.44a74.06 74.06 0 0 1-2.81-16.3c6.14-1.2 18-3.48 18-3.48l2.86 16.32z"/><path d="M103.05 49.6c-4.33.84-4.92 8.1-3.01 12.59 1.91 4.49 5.43 5.01 8.06 2.06 3.28-3.67-.55-15.52-5.04-14.65z" style="fill:#eceae8"/></g></svg>