<svg xmlns="http://www.w3.org/2000/svg" width="200" height="200" viewBox="0 0 200 200"><defs><style>.cls-1{fill:none}.cls-2{fill:#9bafb0}.cls-3{fill:#ff8100}.cls-4{fill:#6d5f56}.cls-6{fill:#5c3e5b}.cls-8{fill:#ffa2af}.cls-9{fill:#fff}.cls-11{fill:#f65e23}.cls-13{fill:#5b3b5b}.cls-15{fill:#79577a}.cls-16{fill:#b2c8ca}.cls-18{fill:#caa78b}</style></defs><path id="BG_Strong_Light" d="M180.69 94.31c10.07-16.48 10.26-37.44-.33-53.59a51 51 0 0 0-9.4-10.75c-18.74-16.14-43.96-11.21-55.7-9.04-18.99 3.51-31.11 12.15-45.31 22.27-38.35 27.34-48.05 57.47-46.64 63.51.12.52.95 3.53.98 7.67.03 3.42-.5 5.97-.68 6.92-1.85 9.36-5.5 17.89-2.86 27.53 2.21 8.09 7.84 15.06 14.88 19.49 7.76 4.88 17.57 6.55 26.6 5.49 10.09-1.19 18.7-5.8 28.88-2.19 9.21 3.26 9.21 2.18 19.2 2.98 8.19.65 16.95-1.46 23.21-6.71 20.62-17.3 29.2-34.05 32.74-44.17 3.01-8.61 6.8-16.93 11.56-24.71z" data-name="BG_Strong Light" style="fill:#eae8e5"/><path id="BG_Strong_Dark" d="M180.69 94.31c10.07-16.48 10.26-37.44-.33-53.59a51 51 0 0 0-9.4-10.75c-18.74-16.14-43.96-11.21-55.7-9.04-18.99 3.51-31.11 12.15-45.31 22.27-38.35 27.34-48.05 57.47-46.64 63.51.12.52.95 3.53.98 7.67.03 3.42-.5 5.97-.68 6.92-1.85 9.36-5.5 17.89-2.86 27.53 2.21 8.09 7.84 15.06 14.88 19.49 7.76 4.88 17.57 6.55 26.6 5.49 10.09-1.19 18.7-5.8 28.88-2.19 9.21 3.26 9.21 2.18 19.2 2.98 8.19.65 16.95-1.46 23.21-6.71 20.62-17.3 29.2-34.05 32.74-44.17 3.01-8.61 6.8-16.93 11.56-24.71z" data-name="BG_Strong Dark" style="fill:#575655"/><g id="Illustrations"><path d="M96.33 28.9s.66 4.13 3.38 4.01c.87-.04.96 3.13 1.62 4.85.36.95 2.76 1.91 3.45-.15s1.47-.09 2.95 4.24c.51 1.49 5.15.26 7.92-3.23.99-1.25 5.08.85 5.08.85l3.88-11.59-17.43-7.96-7.28.92" class="cls-18"/><g id="Outline"><path d="M174.75 140.3a76 76 0 0 0-6.23-20.93c-.26-7.99-.44-16.02-1.21-23.98-.46-4.71-1.05-9.58-3.02-13.93-.77-1.87-.51-3.98-2.54-5.11-2.13-1.19-4.65-.21-6.5 1.06-2.24 1.54-4.31 3.39-6.44 5.09l-6.91 5.53c-.63.5-.54 1.35-.21 1.98a10 10 0 0 0-2.62-1.27c-4.79-1.47-10.1-.08-14.75 1.3-.5.15-1.06.59-1.14 1.14a255 255 0 0 0-1.17 64.48c.25 2.22.29 4.66.95 6.8a4.8 4.8 0 0 0 2.56 3.09c1.61.75 3.62.99 5.36 1.22 1.8.24 3.53-.22 4.35-1.97 1.05-2.25.69-5.02.42-7.4a84 84 0 0 1 4.28-38.47c1.35-3.83 3.33-7.49 4.8-11.3l7.45 19.43 1.33 3.46.04.09.12.3a64 64 0 0 1 6.35 19.12c.55 3.4.58 6.78.85 10.2.2 2.42.67 5.75 3.27 6.75 1 .39 2.06.35 3.12.3 1.29-.07 2.63.17 3.9-.1 3.02-.65 3.52-4.4 3.84-6.95.83-6.62.68-13.32-.26-19.92Z" style="fill:#bfd7db"/><path d="m166.28 72.99-9.78-15.73c-.24-5.32-.98-10.6-3.04-15.56a26 26 0 0 0-15.43-14.81 40 40 0 0 0-9.83-2.09h-5.07l-5.84.51c-.66.14.88.34.94 1.22.32 4.84.31 9.72-.99 14.3q-.47.05-.9.45a6.4 6.4 0 0 1-5.43 1.74 6.6 6.6 0 0 1-4.52-3.16c1.44-1.76-1.49-3.5-2.74-1.77L71.94 82.18q-.34.21-.52.53c-.2.38-.3.84-.16 1.26.34 1.04 1.34 1.3 3.06 2.15l1.88 1.76q.15.16.38.24c.56.68 1.59.98 2.39.18 8.99-8.94 21.09-17.07 30.08-26.01.79.29-1.44-.36-.67-.17l.67.17 12.22 17.11c-.11 1.02.12 1.31.37 1.57l-1.47 11.31c-.1.8.68 1.5 1.43 1.61q.36.25.91.26l18.18-.18c.81 0 1.73-.75 1.63-1.63l-.18-1.54 1.85 1.45c.7.55 1.63.67 2.31 0l1.73-.78c7.08-4.2 14.24-9.76 20.19-15.45" style="fill:#fcb9c4"/><path d="M146.71 181.53v-.04a.3.3 0 0 1 .06-.23c.34-.48.82-.72 1.37-.89q1.15-.36 2.29-.69 2.3-.67 4.62-1.28l.1-.01a238 238 0 0 0 7.42-4.17q-.25-1.53-.53-3.08l.01-.21.02-.05.02-.04q.07-.16.28-.18h11.51q.18 0 .27.11.12.1.1.26c-.24 1.83-.41 3.68-.77 5.49.54 1.41.72 2.93.86 4.42a25 25 0 0 1 .11 4.41.4.4 0 0 1-.21.3h-.02q-.12.04-.23.03c-6.87 0-13.75.05-20.62.07h-5.88l-.15-.04a.3.3 0 0 1-.16-.06c-.65-.44-.55-1.29-.53-1.98l.06-2.17Zm-38.37.44.06-2.17v-.04a.3.3 0 0 1 .06-.23c.34-.48.82-.72 1.37-.89q1.15-.36 2.29-.69 2.3-.67 4.62-1.28l.1-.01a238 238 0 0 0 7.42-4.17c-.18-1.02-.33-2.05-.53-3.08l.01-.21.02-.05.02-.04q.07-.16.28-.18h11.51q.18 0 .27.11.12.1.1.26c-.24 1.83-.41 3.68-.77 5.49.54 1.41.72 2.93.86 4.42a25 25 0 0 1 .11 4.41.4.4 0 0 1-.21.3h-.02q-.12.04-.23.03c-6.87 0-13.75.05-20.62.07h-5.88l-.15-.04a.3.3 0 0 1-.16-.06c-.65-.44-.55-1.29-.53-1.98Z" class="cls-3"/><path d="m162.89 177.3-2.63-1.53c-.26-.15-.37-.52-.2-.77s.5-.36.77-.2l2.63 1.53c.26.15.37.52.2.77s-.5.36-.77.2m-2.22 1.48-2.49-1.96c-.11-.08-.17-.27-.17-.4 0-.14.06-.3.17-.4.25-.23.55-.2.8 0l2.49 1.96c.11.08.17.27.17.4 0 .14-.06.3-.17.4-.25.23-.55.2-.8 0m-2.46 1.3-2.34-2.02c-.22-.19-.21-.6 0-.8.24-.22.56-.21.8 0l2.34 2.02c.22.19.21.6 0 .8-.24.22-.56.21-.8 0m-33.13-4.49-2.82-1.89c-.25-.16-.37-.51-.2-.77.16-.24.51-.38.77-.2l2.82 1.89c.25.16.37.51.2.77-.16.24-.51.38-.77.2m-2.15 1.01-2.62-1.75c-.25-.16-.37-.51-.2-.77.16-.24.51-.38.77-.2l2.62 1.75c.25.16.37.51.2.77-.16.24-.51.38-.77.2m-2.41 1.52-2.85-1.83c-.25-.16-.37-.51-.2-.77.16-.25.51-.37.77-.2l2.85 1.83c.25.16.37.51.2.77-.16.25-.51.37-.77.2" class="cls-9"/><path d="M125.19 165.45h9.14v3.49h-9.14zm47.69 5.62h-9.14v-4.71l9.14-.12z" class="cls-18"/><path d="m124.43 165.62.04 2.76c0 .39.34.77.75.75s.76-.33.75-.75l-.04-2.76c0-.39-.34-.77-.75-.75s-.76.33-.75.75m9.22-.08.04 2.76c0 .39.34.77.75.75s.76-.33.75-.75l-.04-2.76c0-.39-.34-.77-.75-.75s-.76.33-.75.75m29.08 1.81.04 2.76c0 .39.34.77.75.75s.76-.33.75-.75l-.04-2.76c0-.39-.34-.77-.75-.75s-.76.33-.75.75m9.23-.08.04 2.76c0 .39.34.77.75.75s.76-.33.75-.75l-.04-2.76c0-.39-.34-.77-.75-.75s-.76.33-.75.75M105.07 32.33c.64 0 .64-1 0-1s-.64 1 0 1m-5.39-.11-.56-.11-.27-.08-.14-.05-.06-.03a4.2 4.2 0 0 1-2.1-3.02c-.04-.27-.2-.5-.5-.5-.24 0-.54.23-.5.5a5.3 5.3 0 0 0 1.46 3.04c.34.34.73.66 1.17.86.48.22.97.32 1.5.39.27.04.5-.26.5-.5 0-.3-.23-.46-.5-.5" class="cls-6"/><path d="m99.39 32.94.91 3.09.46 1.54c.13.44.26.82.62 1.13.3.25.67.44 1.07.48.34.03.66-.09.97-.23.75-.34 1.4-.86 2.16-1.2.25-.11.3-.47.18-.68-.15-.26-.44-.29-.68-.18-.67.29-1.26.72-1.89 1.06-.19.1-.45.23-.62.23h-.08l-.18-.06a1 1 0 0 1-.37-.28c-.11-.14-.14-.31-.19-.48l-.2-.66-.39-1.32-.8-2.7c-.18-.62-1.15-.35-.96.27Zm11.01-8.06c.1-.49.51-.86 1.01-.91.6-.06 1.19.31 1.52.79.38.56.52 1.25.49 1.92-.02.45-.28 1.23-.87 1.1-.63-.14-.9.83-.27.96a1.7 1.7 0 0 0 1.86-.93c.36-.72.33-1.6.15-2.37-.34-1.45-1.69-2.8-3.28-2.41-.76.18-1.43.81-1.58 1.58-.05.26.07.54.35.62.24.07.56-.08.62-.35m7.62 14.17 2.95.96a.5.5 0 0 0 .62-.35.5.5 0 0 0-.35-.62l-2.95-.96a.5.5 0 0 0-.62.35c-.06.27.08.53.35.62" class="cls-6"/><path d="M114.01 23.05c-.77-2.76-1.8-5.94-4.67-7.17a4.3 4.3 0 0 0-4.8.91 3.8 3.8 0 0 0-6.17-1.52c-.61.57-1.01 1.31-1.6 1.9-.98.98-2.05.79-3.3.66-1.47-.16-2.85.04-3.55 1.5-.35.72-.4 1.53-.61 2.3-.37 1.37-1.13 1.8-2.49 1.99-1.57.22-3.02.35-4.03 1.72-1.82 2.47-.15 5.71 2.62 6.08-.95 1.97.22 4.45 2.44 4.69a5 5 0 0 0 1.81.36c2.21 0 3.97-1.62 5.25-3.27 1.73-2.23 3.02-4.94 5.9-5.86 2.82-.91 5.97.02 8.7.82.23.07.5-.04.61-.25a3.3 3.3 0 0 0-.02-3.41 2.3 2.3 0 0 1 2.82-.94q.1.04.2.03c.35.29 1.03 0 .88-.55Z" class="cls-6"/><path d="M167.64 100.82c-.03-.14-1.05-.05-2.68.19-.8.11-1.81.31-2.82.44-.49.05-.99.01-1.3-.23-.33-.23-.53-.71-.69-1.3-1.34-4.83-2.64-8.69-2.9-8.62-.27.08.6 4.05 1.94 8.89.17.6.42 1.35 1.08 1.82s1.41.42 1.98.35c1.15-.2 2.03-.47 2.85-.67 1.59-.42 2.56-.75 2.53-.88Zm-46.38 12.26c-.03.11.68.54 2.06.8.68.11 1.6.12 2.51-.34.45-.23.89-.6 1.18-1.09s.43-1.04.51-1.57c.42-4.07.48-7.31.22-7.34-.28-.04-.8 3.24-1.2 7.2q-.17 1.44-1.14 2c-.65.38-1.38.46-2 .45-1.25-.06-2.09-.25-2.12-.09Z" class="cls-9"/><path d="M68.25 106.84c-1.91 0-3.63-1.49-4.5-3.89l2.05-.74c.54 1.49 1.5 2.45 2.45 2.45 1.37 0 2.89-2.11 2.89-5.13s-1.52-5.13-2.89-5.13c-1.54 0-2.89 2.4-2.89 5.13h-2.18c0-4.1 2.23-7.3 5.07-7.3s5.07 3.21 5.07 7.3-2.23 7.3-5.07 7.3Z" class="cls-2"/><path d="M63.76 102.95q-.45-1.25-.55-2.68-.03-.36-.02-.73h2.18q0 .3.02.59.08 1.11.42 2.08z" class="cls-2"/><path d="M141.48 98.01c-.23.08.43 3.23 1.73 7.02 1.32 3.78 2.81 6.66 3.06 6.56.27-.11-.8-3.16-2.11-6.89-1.28-3.74-2.38-6.79-2.68-6.69" class="cls-9"/><path d="m72.37 83.06-3.5 4.35s-2.1.21-2.43.27-1.3.56-1.63 1.09-1.6 2.4-1.6 2.4.45 1.31.68 1.61.98 1.08.98 1.08.92-1.33.92-1.55.3-1.11.3-1.11l.56-.41-.28.91 1.1.27.61.73-.51-.9-1.22 1.46-1.06.59s-.84-.12-1.25.1-.68.61-.68.61l.83.97.67.34s.22.91.64 1.13.93.3.93.3l.4.11s1.01.89 1.46.84.97-.2.97-.2.34.76.81.66.89-.36 1.08-.65.51-.97.51-.97l.54-1.12 1.4-2.9.47-1.49 4.23-3.46-5.93-5.07Z" class="cls-18"/><path d="M68.62 86.95q-1.32.06-2.61.31c-.24.05-.44.31-.37.56s.3.43.56.37q.6-.12 1.22-.2l.6-.06.16-.01h-.02.09l.32-.02q.2 0 .34-.12a.5.5 0 0 0 .16-.33c0-.24-.18-.52-.45-.5" class="cls-6"/><path d="M65.84 87.39a8.3 8.3 0 0 0-2.87 3.54c-.1.24.07.53.3.6.26.09.5-.07.6-.3a7.4 7.4 0 0 1 2.59-3.12c.21-.15.2-.49.05-.67-.18-.21-.46-.2-.67-.05" class="cls-6"/><path d="M62.97 91.28a4.3 4.3 0 0 0 1.54 2.93c.19.16.54.07.66-.13.15-.24.07-.49-.13-.66q.06.05 0 0l-.06-.06-.13-.13-.24-.28-.11-.15-.02-.03-.03-.05-.32-.63-.06-.17c.03.09 0 0 0-.02l-.02-.08q-.1-.37-.13-.73c-.03-.36-.33-.43-.56-.37-.28.07-.4.29-.37.56Z" class="cls-6"/><path d="M65.07 94.28a2.35 2.35 0 0 0 1.19-2.68c-.07-.24-.29-.44-.56-.37-.23.06-.45.31-.37.56l.06.27v.05-.02.19l-.01.14-.01.08c0 .06.02-.09 0-.03l-.09.29-.02.06c0 .02-.05.1-.01.03.03-.07 0 0 0 .02l-.04.07-.17.24c.05-.09.04-.04 0-.01l-.06.06-.11.1-.05.04c-.05.04.08-.05 0 0l-.15.08c-.23.11-.34.41-.22.64s.4.33.64.22Z" class="cls-6"/><path d="m66.24 91.88.61-.86q.1-.16.07-.36c-.03-.2-.1-.24-.2-.3a.5.5 0 0 0-.66.13l-.61.86q-.1.16-.07.36c.03.2.1.24.2.3.23.14.51.09.66-.13" class="cls-6"/><path d="M66.2 91.68c.92.71 2.24.82 3.28.31.22-.11.34-.41.22-.64s-.4-.34-.64-.22l-.17.08-.07.03c-.11.04.06-.02 0 0l-.34.08-.17.02h-.09q.08 0 0 0l-.35-.01-.17-.02c-.02 0-.11-.03 0 0l-.07-.02-.34-.1-.17-.07c-.06-.03.1.06 0 0l-.07-.04-.31-.2c-.2-.15-.53-.08-.66.13-.14.23-.08.5.13.66Zm6.16 4.87q.32-.41.59-.85.34-.61.62-1.25.57-1.29.9-2.67c.06-.25-.04-.52-.3-.6-.23-.08-.54.05-.6.3a16 16 0 0 1-1.4 3.69q-.27.44-.59.85c-.36.5.44 1.03.79.53Zm-.3-13.66a52 52 0 0 0-3.57 4.26c-.35.47.41.97.75.5a49 49 0 0 1 3.41-4.08c.17-.18.22-.44.05-.64-.15-.17-.47-.23-.64-.05Z" class="cls-6"/><path d="M69.34 106.49c-1.91 0-3.63-1.49-4.5-3.89l2.05-.74c.54 1.49 1.5 2.45 2.45 2.45 1.37 0 2.89-2.11 2.89-5.13s-1.52-5.13-2.89-5.13c-1.54 0-2.89 2.4-2.89 5.13h-2.18c0-4.1 2.23-7.3 5.07-7.3s5.07 3.21 5.07 7.3-2.23 7.3-5.07 7.3Z" class="cls-9"/><path d="M71.86 96.59c-.53.36-1.58 1.46-3.25 1.46s-4.03-1.62-4.03-2.26 1.02-1.55 2.35-3.12c1.08-1.28 5.82 3.32 4.93 3.92" class="cls-18"/><path d="m67.64 92.5.07.01c-.06-.02.07.04.07.05.03.02.1.12.14.22.06.18-.01.42-.13.61q-.3.44-.71.78c-.41.34-.54.49-.83.72-.39.31-.92.66-1.43.51a1.1 1.1 0 0 1-.81-1.01c-.02-.26-.33-.42-.56-.37-.28.06-.39.3-.37.56a2.04 2.04 0 0 0 2.93 1.59c.65-.3 1.21-.82 1.72-1.3s1.17-1.13 1.16-1.92-.64-1.48-1.44-1.36c-.61.09-.42 1.02.19.93Zm6.42-.51a.4.4 0 0 1-.31-.14.4.4 0 0 1 .05-.56l4.77-4.01a.4.4 0 1 1 .51.61l-4.77 4.01a.4.4 0 0 1-.26.09Z" class="cls-6"/><path d="M63.77 95.57a.4.4 0 0 1-.36-.18c-.05-.06-.46-.65-.26-1.3q.2-.67 1.08-.99c.23-.09.49.04.58.27s-.04.49-.27.58c-.21.08-.47.21-.53.4s.07.44.12.51a.46.46 0 0 1-.36.72Z" class="cls-6"/><path d="M65.01 94.35c-.28 0-.43-.13-.48-.19a.46.46 0 0 1 .03-.64.5.5 0 0 1 .48-.08c.13-.03.67-.25 1.93-1.65.17-.18.45-.2.63-.03s.2.45.03.63q-1.77 1.97-2.63 1.96Zm.18-.8" class="cls-6"/><path d="M127.73 52.04c.97 0 .97-1.5 0-1.5s-.97 1.5 0 1.5m-3.78-6.47c.97 0 .97-1.5 0-1.5s-.97 1.5 0 1.5" class="cls-9"/><path d="M30.99 106.25c-.99.23-1 .18-1.23 1.17-.61 2.62-.98 7.64 1.12 7.25 6.31-1.17 10.4-2.84 11.53-3.79q.5-.45 1.15-.64l16.58-4.33a2.66 2.66 0 0 0 1.55-4.05l-.75-1.13a2.7 2.7 0 0 0-2.83-1.13z" class="cls-11"/><path d="M131.28 58.49c.97 0 .97-1.5 0-1.5s-.97 1.5 0 1.5m2.87 6.59c.97 0 .97-1.5 0-1.5s-.97 1.5 0 1.5m2.53 6.58c.97 0 .97-1.5 0-1.5s-.97 1.5 0 1.5m3.21 6.75c.97 0 .97-1.5 0-1.5s-.97 1.5 0 1.5" class="cls-9"/><path d="m55.48 132.96-6.81-70.22" style="fill:#ff7800"/><path d="m48.17 62.8 1-.1 6.8 70.22-.99.1z" class="cls-13"/><path d="m43.89 138.39-11.9-29.8c-.47-1.26-1.66-2.76-2.24-1.17l.09-.47c.23-.6.78-.81 1.76-1.08l26.27-6.5a5.9 5.9 0 0 1 6.97 3.78l10.27 27.6c.29.83-.93-.24-1.79-.03l-28.65 6.19c-.72.17-.51 2.17-.79 1.48Zm5.67-69.71-1.49.25a2 2 0 0 1-1.45-.35l-8.17-6.18c-.38-.28-.61-.7-.64-1.14l-.21-3.11c-.05-.79.52-1.49 1.37-1.67l8.79-1.86c1.05-.22 2.07.45 2.16 1.43l1.09 10.9c.08.83-.54 1.58-1.45 1.73" class="cls-3"/><path d="M79.93 112.99h-1.91l-.05-13.8.32.39 1.64.27z" class="cls-2"/><path d="M105.68 56.15c-.25.07.13 2.02 1.4 4.08 1.25 2.06 2.81 3.3 2.99 3.11.2-.2-.96-1.68-2.14-3.63-1.2-1.94-1.98-3.65-2.25-3.56m40.58 27.29c.97 0 .97-1.5 0-1.5s-.97 1.5 0 1.5m-66.99 2.31c.48 0 .48-.75 0-.75s-.48.75 0 .75m44 76.99q6.17.22 12.31-.38c.48-.05.48-.8 0-.75q-6.14.6-12.31.38c-.48-.02-.48.73 0 .75m38.55.77c4.08.17 8.23.32 12.2-.78.46-.13.27-.85-.2-.72-3.91 1.09-7.99.92-12 .76-.48-.02-.48.73 0 .75Z" class="cls-9"/><path d="m68.94 93.89.07.01c-.06-.02.07.04.07.05.03.02.1.12.14.22.06.18-.01.42-.13.61q-.3.44-.71.78c-.41.34-.54.49-.83.72-.39.31-.92.66-1.43.51a1.1 1.1 0 0 1-.81-1.01c-.02-.26-.33-.42-.56-.37-.28.06-.39.3-.37.56a2.04 2.04 0 0 0 2.93 1.59c.65-.3 1.21-.82 1.72-1.3s1.17-1.13 1.16-1.92-.64-1.48-1.44-1.36c-.61.09-.42 1.02.19.93Zm2.05 1.33q.24-.01.4.14c.05.05.07.07.11.15q.03.07.04.18-.02.33-.13.63-.1.35-.23.68c-.15.4-.36.79-.69 1.06q-.11.1-.26.16l-.03.01c-.05.03-.05-.02.02.02-.22-.14-.4-.35-.59-.53s-.46-.23-.67-.05c-.18.15-.24.5-.05.67.26.24.52.55.84.72.35.18.73.12 1.05-.08.62-.37 1-.98 1.26-1.63q.18-.45.31-.93c.1-.33.17-.68.1-1.03a1.46 1.46 0 0 0-1.41-1.15c-.26 0-.49.18-.5.45-.01.24.19.51.45.5Z" class="cls-6"/><path d="M70.03 94.8q.1-.02.11 0 .1.05.15.14.1.2.04.46a4 4 0 0 1-.77 1.42q-.26.33-.56.6c-.15.14-.33.33-.54.37-.18.03-.39-.09-.54-.17a4 4 0 0 1-.74-.51c-.19-.17-.46-.23-.67-.05-.17.15-.24.5-.05.67q.49.44 1.08.75c.35.17.72.32 1.11.24s.7-.32.98-.58q.46-.42.83-.92c.42-.57.88-1.33.85-2.07s-.67-1.48-1.47-1.29c-.59.15-.41 1.08.19.93Z" class="cls-6"/><path d="M69.34 106.41v-2c1.62 0 2.98-2.39 2.98-5.22h2c0 4.05-2.19 7.22-4.98 7.22m18.86 43.63a18 18 0 0 0-2.31-2.85s-.06-.08-.07-.13c-.3-1.67-.64-2.77-.64-2.77a.45.45 0 0 0-.43-.32s-1.36-.04-1.36-.04h-.04c-.16.01-.27.15-.26.31l.04.47s0 .02-.02.02h-.01a19 19 0 0 0-2.9-1.81q-.31-.17-.68-.14-.38.04-.65.26a22 22 0 0 0-6.6 8.44l-.03.2c.02.22.18.38.39.42l1.36.14q.29.06.37.36c.03.24.76 5.49 1.2 6.83.07.19.26.32.48.3h.01l2.26-.25h.06c.08 0 .14-.08.14-.16l-.39-2.61-.01-.09a.3.3 0 0 0-.16-.22c-.42-.2-.74-.61-.81-1.1a62 62 0 0 1-.51-5.66c0-.14.1-.26.24-.28.15-.02.28.09.3.24v.02c.03 1.12.15 2.44.29 3.74.02.18.18.3.35.28.18-.02.3-.18.28-.35a56 56 0 0 1-.29-3.76q.02-.23.24-.28c.15-.02.28.09.3.24v.02c.03 1.12.14 2.43.28 3.72.02.18.18.3.35.28s.3-.18.28-.35c-.14-1.3-.25-2.62-.28-3.74 0-.14.1-.26.24-.28.15-.02.28.09.3.24v.02c.05 1.64.27 3.69.49 5.49v.07c.04.49-.16.95-.52 1.25a.3.3 0 0 0-.1.22s0 .28.23 1.61l.23 1.17q.03.11.15.11l.13-.01.8-.07h.1l1-.09.76-.06q.12-.02.13-.14c.03-1.63 0-2.53 0-2.53q-.01-.13-.16-.14l-.93-.04q-.22-.03-.28-.2-.03-.12-.02-.14c-.11-5.4 1.5-7.37 1.5-7.37l.08-.08a.3.3 0 0 1 .16-.07q.2-.01.28.16l.03.13c.3 1.67.49 4.55.59 6.8.09 1.91.13 3.41.13 3.41q.02.1.12.1l1.52-.1h.01a.5.5 0 0 0 .41-.38c.2-1.4-.02-6.7-.03-6.93 0-.19.13-.36.3-.42l1.31-.38a.5.5 0 0 0 .31-.48.4.4 0 0 0-.06-.19Z" class="cls-9"/><path d="M97.33 185.34a7.5 7.5 0 0 1-4.88-3.43 12 12 0 0 1-1.83-7.36c.34-5.74 4.26-10.19 8.73-9.92s7.84 5.15 7.5 10.89-4.26 10.19-8.73 9.92l-.78-.09Zm1.7-16.42c-.16-.03-1.49 1.61-1.65 1.6-3.1-.18-4.02-.18-4.28 4.18a9.6 9.6 0 0 0 1.42 5.83c.97 1.47 2.3 2.33 3.73 2.41 3.1.18.4-1.04.66-5.4l.68-3.36c.25-4.13 2.29-4.74-.57-5.26Z" class="cls-13"/><ellipse cx="96.93" cy="175.06" class="cls-13" rx="8.89" ry="6.66" transform="rotate(-86.6 96.94 175.06)"/><ellipse cx="90.85" cy="171.63" class="cls-16" rx="6.4" ry="4.8" transform="rotate(-86.6 90.86 171.63)"/><ellipse cx="94.23" cy="166.17" class="cls-16" rx="7.7" ry="5.77" transform="rotate(-86.6 94.24 166.17)"/><path d="m42.57 140.37 1.2 26.53 51.08-.04a5.4 5.4 0 0 0 5.39-5.39v-22.66c.09-2.38-1.98-4.94-4.81-5.71l-18.17-3.07a20 20 0 0 0-5.89-.11l-6.32.82a91 91 0 0 0-12.23 2.46l-6.29 1.73a5.4 5.4 0 0 0-3.95 5.44Z" class="cls-3"/><path d="m73.18 140.12 23.32-5.17c1.75-.39 3.68 1.49 3.72 3.28l.46 38.61a2.85 2.85 0 0 1-2.28 2.84l-25.09 5.02c-2.66.53-5.39.6-8.07.19l-19.29-2.92a2.84 2.84 0 0 1-2.41-2.75l-.97-39.31c-.04-1.79.59-2.75 3.49-2.75l18.05 3.16c3.01.53 6.09.46 9.08-.2Z" class="cls-3"/><circle cx="63.18" cy="145.79" r="1.62" class="cls-9"/><path d="m68.99 144.58 1.14 36.74a3.27 3.27 0 0 0 3.99 3.1l23.13-5.1a3.3 3.3 0 0 0 2.58-3.17l.45-37.9c.03-2.16-2-3.75-4.09-3.22l-24.72 6.27a3.3 3.3 0 0 0-2.48 3.28" class="cls-3"/><circle cx="63.33" cy="152" r="1.62" class="cls-9"/><path d="M96.76 156.34a21 21 0 0 0-2.76-3.68s-.07-.11-.08-.18c-.24-2.27-.59-3.74-.59-3.74a.5.5 0 0 0-.53-.4l-1.76.09h-.05a.45.45 0 0 0-.36.45v.67h-.01a20 20 0 0 0-3.61-2.18 1.4 1.4 0 0 0-.88-.12q-.49.1-.87.43A37.5 37.5 0 0 0 75.92 160a1 1 0 0 0-.05.28c0 .29.2.51.47.53l1.76.05q.38.06.45.46c.02.32.5 7.48.95 9.27a.5.5 0 0 0 .59.37h.01c1.02-.21 1.96-.39 2.97-.58l.09-.02c.11-.02.19-.13.19-.24l-.28-3.56v-.12a.3.3 0 0 0-.18-.28 1.6 1.6 0 0 1-.95-1.43 89 89 0 0 1-.16-7.74c0-.19.15-.37.34-.41s.36.09.36.3v.03c-.05 1.54-.03 3.35.04 5.12 0 .24.2.4.43.35s.41-.27.4-.52c-.07-1.79-.1-3.6-.04-5.15 0-.19.15-.37.34-.41s.36.09.36.3v.03c-.05 1.53-.03 3.32.04 5.09 0 .24.2.4.43.35a.5.5 0 0 0 .4-.51 74 74 0 0 1-.04-5.12c0-.19.15-.37.34-.41s.36.09.36.3v.03c-.08 2.25.02 5.06.15 7.51v.08c.01.67-.3 1.33-.79 1.77a.5.5 0 0 0-.15.31s-.03.39.16 2.2l.19 1.58q.03.15.18.14l.16-.03 1.04-.18.07-.02h.07l1.31-.23.99-.16a.3.3 0 0 0 .18-.2c.18-2.24.22-3.49.22-3.49q-.02-.17-.19-.18l-1.21.04c-.19 0-.31-.11-.35-.25-.03-.09-.02-.19-.02-.19.34-7.43 2.61-10.3 2.61-10.3l.11-.12a.4.4 0 0 1 .21-.11.3.3 0 0 1 .35.19l.03.17c.25 2.27.23 6.22.17 9.3-.05 2.62-.14 4.68-.14 4.68q.01.14.15.12l1.99-.31h.01a.7.7 0 0 0 .57-.57c.38-1.95.56-9.21.57-9.54.02-.26.2-.51.43-.61l1.74-.66c.26-.11.45-.4.44-.69l-.06-.26Z" class="cls-9"/><ellipse cx="51.03" cy="142.39" class="cls-9" rx=".95" ry="5.79" transform="rotate(-81.6 51.03 142.4)"/><path d="M45.98 141.6v-.07l-.02-.06v-.02l-.03-.07-.01-.02-.04-.05-.02-.02a.4.4 0 0 0-.3-.14s-.01 0-.02 0h-.02c-1.11 0-2.22-.05-3.33 0-1.01.03-2.15.36-2.52 1.42-.34.98.13 2.14 1.1 2.56.44.19.96.19 1.41.07.5-.14.92-.42 1.32-.74.91-.73 1.65-1.65 2.42-2.52q.11-.14.09-.32Z" style="fill:#ffcd4e"/><path d="M67.61 193.71a8.5 8.5 0 0 1-5.71-2.91 12.4 12.4 0 0 1-3.09-7.25c-.53-5.86 2.92-10.85 7.71-11.1 4.78-.26 9.11 4.31 9.65 10.17.53 5.86-2.92 10.84-7.71 11.1q-.42.02-.84 0Zm-.75-16.87c-.17-.01-1.33 1.81-1.5 1.82-3.32.18-4.29.29-3.88 4.75a9.8 9.8 0 0 0 2.42 5.75 5.5 5.5 0 0 0 4.33 2.01c3.32-.18.26-1.1-.15-5.56l.2-3.5c-.38-4.23 1.69-5.08-1.42-5.27" class="cls-13"/><ellipse cx="65.59" cy="183.32" class="cls-15" rx="7.11" ry="9.12" transform="rotate(-8.52 65.58 183.35)"/><ellipse cx="65.59" cy="183.32" class="cls-1" rx="7.11" ry="9.12" transform="rotate(-8.52 65.58 183.35)"/><path d="M46.12 189.82a8.5 8.5 0 0 1-5.71-2.91 12.4 12.4 0 0 1-3.09-7.25c-.53-5.86 2.92-10.85 7.71-11.1 4.78-.26 9.11 4.31 9.65 10.17.53 5.86-2.92 10.84-7.71 11.1q-.42.02-.84 0Zm-.75-16.87c-.17-.01-1.33 1.81-1.5 1.82-3.32.18-4.29.29-3.88 4.75a9.8 9.8 0 0 0 2.42 5.75 5.5 5.5 0 0 0 4.33 2.01c3.32-.18.26-1.1-.15-5.56l.2-3.5c-.38-4.23 1.69-5.08-1.42-5.27" class="cls-13"/><ellipse cx="44.1" cy="179.43" class="cls-1" rx="7.11" ry="9.12" transform="rotate(-8.52 44.07 179.45)"/><ellipse cx="43.43" cy="179.56" class="cls-16" rx="5.22" ry="6.69" transform="rotate(-8.52 43.4 179.53)"/><ellipse cx="44.62" cy="178.94" class="cls-15" rx="7.11" ry="9.12" transform="rotate(-8.52 44.65 178.95)"/><path d="m68.82 139.82 26.01-5.84c-.09-.08-21.39-2.92-21.51-2.91l-1.41.04c-7.55.68-14.49 1.85-21.65 4.07l-2.01.72c-.33.03 20.32 3.7 20.5 3.98" class="cls-11"/><path d="m57.92 100.8 20.05-1.61 2.79 24.23-22.48 2.45z" class="cls-2"/><path d="m59.88 101.46-1.96-.66-1.84 24.14 3.8 2.3z" class="cls-16"/><path d="m59.89 101.46 20.05-1.61 2.79 24.23-22.84 3.16z" class="cls-9"/><path d="M69.34 106.41c-1.87 0-3.56-1.47-4.41-3.83l1.88-.68c.55 1.53 1.54 2.51 2.53 2.51 1.62 0 2.98-2.39 2.98-5.22h2c0 4.05-2.19 7.22-4.98 7.22" class="cls-9"/><path d="M64.85 102.6q-.45-1.25-.55-2.68l-.02-.73h2.18q0 .3.02.59.08 1.11.42 2.08z" class="cls-9"/><path d="M78.66 112.56c-.06-.12-.78-1.24-2.08-2.62s-.06-.08-.06-.12c-.26-1.52-.55-2.53-.55-2.53a.4.4 0 0 0-.39-.3s-1.24-.05-1.24-.05h-.03a.3.3 0 0 0-.24.28l.03.43-.01.02h-.01a18 18 0 0 0-2.62-1.67q-.28-.15-.62-.14-.35.03-.59.23a20 20 0 0 0-6.1 7.61l-.03.18q.05.32.35.38l1.24.14q.27.06.33.33c.03.21.63 5 1.02 6.23.06.18.24.3.43.28l2.06-.2h.05q.13-.02.13-.15l-.33-2.38-.01-.08a.3.3 0 0 0-.14-.2 1.3 1.3 0 0 1-.72-1.01c-.2-1.68-.38-3.63-.41-5.16q.01-.21.22-.25c.14-.01.26.09.27.22v.02c.02 1.02.11 2.22.22 3.41a.3.3 0 1 0 .58-.06c-.11-1.19-.2-2.4-.22-3.43q.01-.22.22-.25c.14-.01.26.09.27.22v.02c.02 1.02.11 2.21.22 3.39a.3.3 0 1 0 .58-.06 49 49 0 0 1-.22-3.41q.01-.21.22-.25c.14-.01.26.09.27.22v.02c.03 1.49.2 3.36.39 5v.06c.04.45-.16.87-.49 1.13a.3.3 0 0 0-.09.2s-.01.26.2 1.47l.19 1.06q.03.1.14.1h.12l.73-.06h.1l.91-.07.69-.05q.11-.01.12-.12c.05-1.48.02-2.31.02-2.31q-.02-.12-.14-.13l-.85-.05a.3.3 0 0 1-.26-.19l-.02-.13c-.04-4.92 1.44-6.69 1.44-6.69l.07-.07a.3.3 0 0 1 .15-.06q.18 0 .25.15l.03.12c.26 1.53.39 4.15.47 6.2.06 1.74.08 3.1.08 3.1q.01.1.11.09l1.39-.08a.4.4 0 0 0 .38-.34c.19-1.27.05-6.09.04-6.31 0-.17.12-.32.28-.38l1.2-.33c.18-.06.3-.24.28-.43a.4.4 0 0 0-.05-.18Z" class="cls-3"/><path d="M140.06 84.19c-.7-.23-1.37-.3-1.96-.36-.45-.05-.88-.09-1.17-.2-.75-.29-1.28-1.46-1.18-2.62.13-1.48.99-2.97 1.82-4.41.48-.84 1.14-1.98 1.14-3.4 0-2.2-1.51-4.13-4.27-5.42l-.63-.29c-1.11-.5-2.17-.98-2.56-1.68-.7-1.24.51-3.32 1.58-5.16l.09-.16c1.92-3.31 2.46-7.79-.89-9.8-1.13-.68-2.34-.77-3.31-.85a9 9 0 0 1-1.13-.13c-.83-.18-1.58-.83-2.03-1.75s-.48-1.92-.11-2.68l.27-.52c.69-1.29 1.97-3.7.08-5.58-.84-.83-1.92-1.01-2.44-1.1l-.97-.15c-1.59-.24-3.21-.5-4.35-1.06a28 28 0 0 1-.81 3.98h-.03c1.49.55 3.12.8 4.59 1.03l.84.13c-.13.29-.31.62-.43.86l-.33.62a7.1 7.1 0 0 0 .08 6.19 7.1 7.1 0 0 0 6.44 4.14c.64.05 1.25.1 1.57.29.88.53.44 2.72-.51 4.35l-.09.16c-1.45 2.49-3.43 5.9-1.61 9.13 1.04 1.84 2.9 2.69 4.4 3.37l.58.27c1.18.55 1.97 1.27 1.97 1.79 0 .36-.34.95-.61 1.42-.95 1.64-2.12 3.69-2.34 6.05-.27 3.02 1.27 5.78 3.74 6.72.78.3 1.53.37 2.18.44.43.04.83.08 1.12.18 1.31.43 1.77 2.63 1.31 4.3a7 7 0 0 1-.76 1.7l1.32-.01c.81 0 1.73-.75 1.63-1.63l-.18-1.54 1.85 1.45.19.13c.51-3.29-.79-7.1-4.11-8.2ZM89.61 72.5c-.43.09-1.13.24-1.42.21-.05-.27.02-.93.07-1.34.15-1.34.36-3.17-1.03-4.6a4.2 4.2 0 0 0-3.39-1.16l-3.12 4.34c.85.05 1.67-.09 2.36-.21a7 7 0 0 1 1.28-.15c.05.28-.02.92-.07 1.32-.15 1.33-.36 3.15 1 4.58 1.6 1.68 3.74 1.22 5.16.91a10 10 0 0 1 1.48-.23q.35.02.68.24l3.15-2.55a5.4 5.4 0 0 0-3.73-1.69c-.85-.03-1.69.16-2.42.31Z" class="cls-8"/><path d="M156.45 84.08c-.23-.25-.61-.75-.58-1.37q.04-.47.21-1.1c.26-1.09.62-2.58-.15-4.06-.81-1.57-2.33-2.1-3.45-2.49a5 5 0 0 1-1.22-.53c-.79-.56-.76-1.91-.62-4.07.16-2.28.33-4.87-1.25-6.98-1.03-1.38-2.49-2.07-3.77-2.68-1.02-.48-1.9-.9-2.3-1.51-.75-1.15.12-3.22.71-4.35l.29-.56c1.08-2.04 2.3-4.34 1.83-7.01-.52-2.96-2.94-5.27-7.17-6.87l-.14-.05a5 5 0 0 1-1.47-.72c-.7-.62-.65-1.87-.49-3.85.17-2.07.36-4.41-.96-6.44-1.23-1.9-3.3-2.71-4.81-3.3l-3.43-1.34h-4.56l-3.94.35q-.64.46-1.18.91.18.2.22.48.15 2.33.17 4.64a21 21 0 0 1 1.75-1.68c1.14-.98 2.25-1.85 3.26-1.85.54 0 1.24.27 1.91.53l4.34 1.7c1.3.51 2.42.99 2.91 1.75.58.89.46 2.38.33 3.95-.19 2.3-.42 5.17 1.81 7.16.87.78 1.9 1.16 2.73 1.47l.13.05c1.94.73 4.32 1.99 4.64 3.82.23 1.32-.57 2.84-1.42 4.45l-.31.58q-2.65 5.1-.52 8.39c1.02 1.56 2.57 2.29 3.94 2.94.95.45 1.84.87 2.28 1.46.69.92.58 2.57.46 4.31-.17 2.55-.39 5.72 2.31 7.61.73.51 1.51.79 2.2 1.03.4.14 1.14.4 1.22.56s-.09.89-.19 1.28c-.13.54-.28 1.15-.32 1.81a5.9 5.9 0 0 0 2.35 4.97q1.78-1.25 3.54-2.57a3 3 0 0 1-1.32-.81ZM101.9 64.49v-.25c.02-.46.04-1.09-.19-1.77a3.5 3.5 0 0 0-2-2.13c-1.57-.67-3.44-.28-4.67.3l-.37.18c-.52.25-1.73.84-2 .68-.15-.08-.41-.64-.57-.97a7 7 0 0 0-1.56-2.28q-.42-.37-.94-.63l-2.46 3.42q.58.06.76.22c.18.16.39.59.59 1.01.41.84.96 2 2.17 2.7 2.11 1.23 4.3.16 5.75-.54l.35-.17a3 3 0 0 1 1.15-.27v.48a7.4 7.4 0 0 0 2.57 5.52q1.58-1.32 3.12-2.66a3.6 3.6 0 0 1-1.7-2.85Z" class="cls-8"/><path d="m166.28 72.99-4.94-7.94-.4-.27q-.78-.52-1.52-1.04c-4.31-3.07-6.78-7.2-6.6-11.05q.06-1 .25-2.12c.23-1.48.49-3.17.13-4.9-.45-2.16-1.74-3.88-2.89-5.39-1.01-1.34-1.97-2.6-2.18-3.93q-.19-1.18.39-2.48a25 25 0 0 0-3.02-2.83 8.8 8.8 0 0 0-1.33 5.93c.37 2.31 1.73 4.12 2.93 5.72.98 1.29 1.9 2.51 2.16 3.79.21 1.03.03 2.21-.17 3.47-.13.82-.26 1.66-.3 2.55-.24 5.21 2.85 10.63 8.28 14.49q.78.55 1.6 1.1c2.51 1.69 4.88 3.29 5.41 5.61.18.79.14 1.7.03 2.8a19 19 0 0 1-.73 3.86q2.5-2.13 4.78-4.32v-.06l-1.92-3.01Zm-77.99 5.72-.18-.25c-.33-.47-.78-1.12-1.55-1.57-2.4-1.42-4.84.39-5.88 1.16l-.13.09c.08-.92.08-1.89-.14-2.86a6.4 6.4 0 0 0-1.46-2.86l-2.52 3.5.08.22c.24 1.07 0 2.35-.25 3.59-.12.61.05 1.23.46 1.7 1.44 1.64 3.99 1.57 6.35-.18a5 5 0 0 1 1.49-.88l.28.38.25.35q.37.48.79.89 1.53-1.3 3.1-2.6-.4-.3-.68-.69Zm39.42 11.06c-.91-1.66-2.45-2.56-3.8-3.36-1.09-.64-2.03-1.19-2.32-1.92-.47-1.17.7-2.94 1.72-4.5l.13-.19c2.32-3.53 2.38-7.11.16-9.1-.61-.55-1.29-.87-1.84-1.13a4 4 0 0 1-.89-.5c-.31-.29-.39-1.03-.19-1.73.23-.77.72-1.56 1.24-2.39l.43-.7c1.4-2.32 2.12-4.42 2.18-6.43.1-2.86-1.18-5.46-3.34-6.81-2.35-1.46-4.99-1.13-7.32-.84-1.84.23-3.57.44-4.72-.27-.71-.45-1.26-1.28-1.9-2.25a12.5 12.5 0 0 0-6.57-5.43l-2.44 3.39.13.04a9.3 9.3 0 0 1 4.46 2.69q.54.66 1.07 1.5c.78 1.19 1.66 2.53 3.12 3.45 2.35 1.47 5 1.14 7.33.85 1.83-.23 3.57-.44 4.72.27.92.57 1.51 1.89 1.46 3.28-.04 1.33-.56 2.76-1.61 4.5l-.4.64c-.61.98-1.3 2.08-1.68 3.38-.65 2.21-.15 4.43 1.3 5.78.63.59 1.34.92 1.91 1.19.36.17.7.33.88.49.69.61.12 2.48-.83 3.92l-.05.08 1.22 1.71c-.11 1.02.12 1.31.37 1.57l-1.05 8.09q.67.44 1.3.81c1 .58 1.94 1.14 2.32 1.83.32.58.37 1.48.4 2.43l4-.04c-.04-1.36-.11-2.89-.89-4.32Z" class="cls-8"/><path d="M105.55 38.69c.48.67.76 1.44 1 2.23 1.08 3.61 7.07 4.1 10.03 1.48 2.35-2.08 1.86-5.97 1.42-7.93a3.7 3.7 0 0 0-1.09-1.92l-4.37-4.12c-.45-.42-1.18-.07-1.12.54.26 2.81.56 7.98-.65 8.18-1.62.27-2.1-2.27-5.72.26a.33.33 0 0 0-.08.46z" class="cls-6"/><path d="M111.81 44.18q-1.07 0-2.08-.28c-1.71-.49-2.89-1.53-3.31-2.94-.21-.7-.49-1.5-.98-2.19l-.58-.81a.5.5 0 0 1-.08-.34.5.5 0 0 1 .19-.3c2.46-1.73 3.56-1.13 4.44-.65.44.24.83.45 1.33.37.79-.13.99-3.14.54-8.05a.8.8 0 0 1 .44-.78c.3-.15.65-.09.89.14l4.37 4.12q.86.83 1.13 1.98c.47 2.11.91 5.96-1.46 8.05a7.5 7.5 0 0 1-4.85 1.68Zm-3.99-7.77c-.65 0-1.49.27-2.69 1.11a.2.2 0 0 0-.08.14q0 .08.03.15l.58.81c.51.72.8 1.55 1.01 2.26.39 1.32 1.51 2.31 3.13 2.77 2.3.66 5.05.1 6.69-1.35 2.27-2.01 1.84-5.76 1.38-7.81a3.6 3.6 0 0 0-1.06-1.86l-4.37-4.12a.5.5 0 0 0-.61-.09.5.5 0 0 0-.3.53c.34 3.68.48 8.11-.75 8.32-.59.1-1.02-.14-1.49-.39a3 3 0 0 0-1.49-.47Zm5.74-12.61c3.63 1.63 7.39 2.94 11.02 4.57.58.26 1.09-.6.5-.86-3.63-1.63-7.39-2.94-11.02-4.57-.58-.26-1.09.6-.5.86" class="cls-6"/><path d="M68.81 170.29c.14 0 .3-1.6.42-4.2a151 151 0 0 0-.58-20.31c-.26-2.59-.52-4.18-.66-4.17s-.13 1.62-.05 4.22l.33 10.13.25 10.13c.07 2.59.15 4.2.29 4.21ZM77.37 130c-.02-.13-1.93-.05-5.01.3a137 137 0 0 0-23.65 4.93c-2.96.91-4.75 1.6-4.71 1.73.04.14 1.9-.31 4.9-1.04 2.99-.73 7.13-1.72 11.73-2.68a358 358 0 0 1 11.83-2.23c3.04-.53 4.92-.86 4.9-1Zm4.47-45.48c.17-.22-1.28-1.61-3.24-3.11s-3.68-2.53-3.85-2.31 1.28 1.61 3.24 3.11 3.68 2.53 3.85 2.31m44.01-3.09c.02-.28-.8-.56-1.82-.64-1.03-.08-1.88.08-1.9.36s.8.56 1.82.64 1.88-.08 1.9-.36m6.13-41.22c.24-.14-1.1-2.96-2.99-6.31a75 75 0 0 0-2.55-4.22c-.68-1.05-1.11-1.68-1.25-1.64-.12.04.1.82.63 1.98a74 74 0 0 0 2.29 4.36c1.89 3.35 3.62 5.96 3.86 5.82Z" class="cls-9"/><path d="M122.11 39.47c-.06.26 2.07.97 4.82 1.21 2.74.25 4.97-.07 4.95-.34-.01-.28-2.2-.42-4.86-.66-2.67-.23-4.84-.49-4.9-.21Zm-5.92 10.12c.26-.11-.13-1.47-1.03-2.89-.89-1.42-1.8-2.42-2.04-2.28s.31 1.41 1.18 2.8 1.63 2.48 1.88 2.37Z" class="cls-9"/><path d="M121 40.07c-.24-.13-1.57 1.87-2.96 4.48a40 40 0 0 0-1.65 3.4c-.19.44-.34.86-.34 1.17 0 .32.11.47.17.46s.1-.16.21-.38q.15-.32.58-.92c.54-.81 1.21-1.96 1.91-3.26 1.39-2.6 2.32-4.82 2.08-4.95" class="cls-9"/><path d="M112.82 59.71a6.7 6.7 0 0 0-4.04-3.31c-1.19-.33-2.43-.32-3.52-.33-1.49 0-2.46-.03-2.76-.49-.23-.35-.22-1.15-.2-1.92.02-1.36.06-3.23-1.31-4.66-1.21-1.27-2.79-1.45-4.14-1.44l-2.87 3.99c.73.08 1.46.06 2.11.03.79-.03 1.77-.08 2.02.19.23.24.22 1.08.2 1.83-.02 1.25-.05 2.81.87 4.19 1.51 2.29 4.15 2.3 6.1 2.29.92 0 1.78 0 2.43.18.88.25 1.39.98 1.62 1.4q.43.81.49 1.73l3 4.2q.45-.8.72-1.68c.59-2 .33-4.3-.71-6.18Z" class="cls-8"/><path d="M154.94 75.2c-.03-.13-.77-.04-1.69.59-.93.63-1.96 1.56-3.39 2.19-2.83 1.34-5.49 1.07-5.51 1.36-.02.12.63.38 1.73.42a9.3 9.3 0 0 0 6.22-2.14c.57-.47 1-.92 1.38-1.27.74-.71 1.3-1.01 1.26-1.15m-27.21-23.16c.97 0 .97-1.5 0-1.5s-.97 1.5 0 1.5m-3.78-6.47c.97 0 .97-1.5 0-1.5s-.97 1.5 0 1.5m7.33 12.92c.97 0 .97-1.5 0-1.5s-.97 1.5 0 1.5m2.87 6.59c.97 0 .97-1.5 0-1.5s-.97 1.5 0 1.5m2.53 6.58c.97 0 .97-1.5 0-1.5s-.97 1.5 0 1.5m3.21 6.75c.97 0 .97-1.5 0-1.5s-.97 1.5 0 1.5" class="cls-9"/><path d="m145.41 86.76 6.65-4.4s1.01 4.5-6.56 10.3c-.92.71-3.46 3.08-4.89 3.92s-3.56 1.14-4.91 1.1-2.52-.07-3.18-.41-1.15-.54-1.3-.95.05-.86.05-.86-.64.02-.64-.49.19-.85.36-.92.54-.11.54-.11-.46-.44.16-.83 1.19-.32 1.28-.39.62 0 .62 0-.61-.95-.32-1.35.79-.35 1.22-.38 1.29.38 1.58.23 1.28-.42 1.28-.42l1.09-1.18s1.95-.99 2.56-1.49 1.2-1.16 2.02-1.2a9 9 0 0 1 1.51.13l.89-.31Z" class="cls-18"/><path d="M144.55 87.53c.75.05 1.31-.46 1.91-.82.19-.11.28-.4.15-.59s-.38-.27-.59-.15l-.79.51-.19.1-.05.02.03-.01-.1.03-.1.03-.06.01h.02-.24a.43.43 0 0 0-.43.43c.01.25.2.41.44.43Zm3.84 1.87q-1.71 1.34-3.2 2.96c-.37.41.25 1.01.62.6a26 26 0 0 1 3.02-2.81c.18-.14.28-.37.15-.59-.11-.18-.41-.3-.59-.15Z" class="cls-6"/><path d="M145.19 92.36c-2.14 2.39-4.79 4.31-8.04 4.77q-1.1.15-2.21.11a7 7 0 0 1-2.32-.39 3 3 0 0 1-.91-.6c-.05-.05-.23-.22-.22-.3 0 .07.02 0 .1-.01l.33-.03c.52 0 1.05.08 1.57.11a7 7 0 0 0 4.46-1.27c.45-.31.01-1.06-.44-.74-.71.49-1.47.87-2.32 1.04-.63.13-1.28.13-1.93.09s-1.31-.19-1.91-.03c-.37.1-.69.36-.73.76-.04.44.29.82.59 1.1 1.26 1.17 3.32 1.21 4.93 1.12s3.27-.5 4.75-1.23a17 17 0 0 0 4.91-3.9c.37-.41-.25-1.01-.62-.6Z" class="cls-6"/><path d="M131.37 95.05c-.16-.02-.31-.08-.35-.25q-.04-.25.19-.37c.41-.2.96.1 1.36.19a5 5 0 0 0 2.98-.24c.21-.09.37-.28.3-.53-.06-.2-.32-.39-.53-.3q-.86.37-1.79.34c-.93-.03-1.19-.29-1.81-.36-.67-.08-1.4.24-1.54.95-.13.65.32 1.31.98 1.4.23.03.46-.07.52-.31.05-.2-.08-.49-.31-.52" class="cls-4"/><path d="M131.86 93.77c.04-.44.45-.66.85-.64.5.02 1 .13 1.51.17q1.4.1 2.69-.44c.21-.09.37-.28.3-.53-.06-.2-.32-.39-.53-.3-.48.2-.99.37-1.51.42q-.74.05-1.48-.06c-.58-.07-1.19-.23-1.75.02s-.88.78-.93 1.37c-.02.23.22.43.44.43.25 0 .41-.2.43-.43Z" class="cls-4"/><path d="M144.61 86.77c-1.32-.8-2.77.07-3.78.94q-.48.44-.99.83c-.51.39-.74.42-1.14.58-.74.3-1.41.68-1.7 1.47-.19.52.65.73.84.21.22-.61 1.01-.81 1.54-1.03a7 7 0 0 0 1.8-1.22c.76-.67 1.94-1.68 3.02-1.03.48.29.89-.47.41-.75" class="cls-6"/><path d="M137.12 90.44c-.53.35-1.12.42-1.74.29-.69-.15-1.41-.3-2.03.13-.31.21-.52.53-.51.91 0 .32.17.63.4.85.52.5 1.36.49 2.03.58.23.03.46-.07.52-.31.05-.2-.08-.49-.31-.52l-.95-.13c-.23-.04-.52-.09-.68-.22-.1-.08-.19-.24-.16-.31.07-.18.38-.26.55-.28.53-.05 1.06.21 1.6.23.6.03 1.21-.15 1.71-.48.46-.3.02-1.04-.44-.74Z" class="cls-4"/><path d="m137.86 89.36-15.24 4.31c-1.69.61-1.36 1.97-.82 2.36l4.04 2.92c.47.23 1.07.57 1.88.17l14.8-6.29c.63-.26.38-1.92-.21-2.27l-3.72-1.12a1 1 0 0 0-.74-.07Z" style="fill:#d16300"/><path d="m137.65 88.11-15.21 5.68a.82.82 0 0 0-.2 1.44l3.5 2.54c.45.33 1.04.4 1.56.19l14.73-6.04a.82.82 0 0 0 .11-1.47l-3.77-2.27a1 1 0 0 0-.74-.07Z" class="cls-3"/><path d="m136.78 88.56-13.44 5.02a.72.72 0 0 0-.17 1.27l3.09 2.24c.4.29.92.35 1.38.17l13.02-5.34a.73.73 0 0 0 .1-1.3l-3.33-2.01a.8.8 0 0 0-.65-.06Z" class="cls-9"/><path d="M143.28 93.4c0 .52-2.47.96-4.22.96s-3.17-.42-3.17-.95 4.61-1.87 7.67-4.49c1.33-1.14-.28 3.95-.28 4.47Z" class="cls-18"/><path d="M143.33 88.1q-.8.12-1.45.61c-.65.49-.71.77-.99 1.22-.3.48-.63.84-1.17 1.06s-1.09.34-1.62.51-1.04.34-1.52.58c-.44.23-.89.48-1.07.97-.15.41-.22.9.1 1.25.36.39.91.39 1.4.4q2 .04 4-.08c.55-.04.54-.9-.01-.86q-1.93.12-3.88.09c-.22 0-.59.05-.79-.07-.16-.09-.08-.33 0-.49.11-.19.39-.3.58-.41q.41-.22.85-.37.86-.28 1.73-.54c.87-.26 1.13-.4 1.55-.82.4-.4.62-.93.97-1.37.38-.49.93-.77 1.54-.85.23-.03.35-.32.3-.53-.07-.25-.3-.33-.53-.3Zm5.55 1.99a12 12 0 0 0 3.01-5.86c.05-.23-.07-.5-.31-.55-.22-.05-.5.07-.55.31a11 11 0 0 1-1.92 4.42l-.37.48q-.22.28-.48.55c-.26.27-.18.47 0 .64.17.16.47.19.64 0Z" class="cls-6"/><path d="M156.08 52.16c-.07 0-.06 1.12.02 3.12.05 2.01.32 4.91.21 8.47a61 61 0 0 1-2.61 15.89l-.26.9-.05.18-.05.06-.3.35q-.61.7-1.3 1.32c-.93.83-1.98 1.56-3.15 2.01q-.87.33-1.81.4a5 5 0 0 1-1.82-.26l-.35-.15.08-.9q.09-1.02.14-2.02a108 108 0 0 0 .06-11.44c-.23-4.76-.8-9.04-1.54-12.57-.34-1.77-.8-3.34-1.18-4.73a73 73 0 0 0-1.2-3.48c-.81-1.85-1.29-2.85-1.35-2.82s.29 1.08.99 2.96q.45 1.45 1.03 3.49c.32 1.38.73 2.95 1.02 4.71a88 88 0 0 1 1.31 12.47 107 107 0 0 1-.13 11.34l-.14 2-.1 1.13c0 .16-.07.36-.02.49l.47.21.59.25a6 6 0 0 0 4.31-.16 11 11 0 0 0 3.45-2.22q.74-.68 1.38-1.42l.31-.38s.19-.16.21-.32l.08-.27.25-.9q.52-1.8.93-3.55a58 58 0 0 0 1.47-12.59c.02-3.62-.36-6.52-.53-8.51-.2-2-.34-3.1-.41-3.1Z" class="cls-9"/></g></g></svg>