<?xml version="1.0" encoding="UTF-8"?><svg xmlns="http://www.w3.org/2000/svg" viewBox="0 0 200 200"><defs><style>.cls-1{fill:none;}.cls-2{fill:#c0d9dd;}.cls-3{fill:#c1dade;}.cls-4{fill:#eeece9;}.cls-5{fill:#575655;}.cls-6{fill:#a0b3b4;}.cls-7{fill:#f47721;}.cls-8{fill:#f7b3c2;}.cls-9{fill:#fff;}.cls-10{fill:#e4b241;}.cls-11{fill:#ca919e;}.cls-12{fill:#f1a5af;}.cls-13{opacity:.38;}.cls-14{opacity:.33;}.cls-15{fill:#b88c3b;}.cls-16{fill:#f8ee92;}.cls-17{fill:#f5c141;}.cls-18{fill:#b3c9cb;}.cls-19{fill:#5b3d5b;}</style></defs><g id="BG_x5F_Strong"><path class="cls-5" d="M4.44,126.01c90.62,98.94,68.76,17.54,121.66,27.34,74.9,32.57,97.6-120.97,28.72-129.67-37.87-5.21-85.78,12.9-102.24,49.22-.39,32.74-53.18,26.08-48.14,53.11Z"/></g><g id="Outline"><path class="cls-4" d="M19.85,126.67c-.06.19-.21.23-.33.38.05.49.41-.74.34-.1.09-.16.12-.3.15-.44l-.36.1c-.08.36.19-.17.19.06Z"/><path class="cls-4" d="M20.04,126.5s-.02,0-.02-.02c0,0,0,.01,0,.02h.03s0,0,0,0Z"/><path class="cls-4" d="M23.84,118.28s.01.05.02.07c0-.03,0-.05-.02-.07Z"/><path class="cls-4" d="M154.4,25.99c.15.05.3.09.43.11-.24-.09-.37-.12-.43-.11Z"/><path class="cls-4" d="M147.66,23.52c-.22,0-.47-.15-.45,0,.09.1.54.14.45,0Z"/><path class="cls-4" d="M150.44,25.88s.02.03.03.05c.04-.03,0-.05-.03-.05Z"/><path class="cls-4" d="M151.94,27.11l.14.15s-.08-.09-.14-.15Z"/><path class="cls-19" d="M109,146.43c.17-.45.48-.44.94-.43.12,0,.24,0,.38,0,1.18-.02,2.83.05,3.43.09h.02c.55.04,1.98.18,2.25.29.16.07.26.37.26.79,0,.39-.09.78-.21.95-.15.21-1.77.13-2.72.07l-2.99-.2c-1.45-.1-1.5-.22-1.48-.81l.1-.04h0s0,0,0,0l-.1.03h0c0-.31.05-.57.12-.76Z"/><path class="cls-18" d="M82.87,95.29c.46-5.04,2.56-30.18,2.64-31.79.08-1.61,1.89-25.51,2.06-27.97.17-2.46.49-9.21,1.08-10.44.59-1.24,1.54-3.11,2.97-3.75,1.43-.64,3.42-1.23,7.8-1.03,4.37.2,28.91,1.51,32.64,1.76,3.11.21,18.65,1.34,24.61,1.67.02-.18.16-.36.35-.36h0c2.37.13,4.82.61,6.84,1.9.76.48,1.44,1.06,1.99,1.77.65.84,1.03,1.85,1.27,2.88.34,1.47.44,2.99.42,4.5,0,.33-.2,2.79-.22,3-.08,1.25-.15,2.51-.23,3.76-.01.21-.27.34-.45.3,0,0,0,0-.01,0v.05s-1.16-.1-1.16-.1l-.88,11.84,1.21.08c.05-.01.1-.01.15,0,.23.04.32.25.3.45h0c-.11,1.56-.21,3.12-.31,4.68.02.05.03.11.02.17h0c-.39,5.52-.76,11.04-1.14,16.56-.38,5.58-.76,11.16-1.15,16.74-.41,5.85-.81,11.69-1.18,17.54-.36,5.78-.7,11.57-1.04,17.35-.34,5.77-.67,11.53-1.02,17.29-.04.75-.09,1.49-.14,2.24-.02.26-.24.39-.45.38-.03.74-.08,1.64-.13,2.53.02,0,.04,0,.06,0,.23.04.32.25.3.45h0c-.08,1.24-.15,2.49-.23,3.73,0,0,0,.02,0,.03-.01.46-.04.92-.09,1.38-.01.2-.02.39-.04.59,0,.05-.02.1-.05.14-.23,1.57-.68,3.1-1.39,4.54-.59,1.18-1.44,2.15-2.54,2.88-1.17.78-2.54,1.29-3.94,1.45-.85.1-1.72.05-2.57,0-.44-.02-.88-.05-1.31-.09-.9-.05-1.8-.1-2.7-.15-2.71-.15-5.42-.3-8.13-.46-2.25-.13-4.5-.3-6.76-.46-4.48-.32-8.97-.61-13.46-.92-4.74-.32-9.48-.67-14.21-1.16-.17-.02-.35-.04-.52-.06-2.65-.23-5.29-.55-7.93-.8-.41-.04-.83-.07-1.24-.11-.18-.01-.35-.03-.53-.04-.08,0-.16-.01-.24-.02-.03,0-.05,0-.08,0-.01,0-.02,0-.03,0-.01,0-.03,0-.04,0-.01,0-.02,0-.03,0-.03,0-.05,0-.08,0h0c-1.05-.07-2.1-.18-3.15-.31-1.04-.12-2.11-.23-3.12-.52-1.49-.43-2.89-1.18-3.89-2.39-.93-1.12-1.47-2.53-1.72-3.95-.25-1.42-.33-2.87-.41-4.31-.01-.24.16-.37.34-.39.08-3.37.29-10.13.77-18.86.57-10.33,1.65-29.17,2.12-34.21Z"/><path class="cls-17" d="M164.04,53.42c.11-3.16.29-6.32.55-9.47.08-.92.16-1.83.24-2.75.02-.21.27-.34.45-.3.1.02.18.08.23.15.57,0,1.15-.01,1.71.03.57.04.85.47.88,1.01.04.59.01,1.18,0,1.77,0,.61-.02,1.22-.03,1.83-.07,2.41-.24,4.81-.52,7.2-.03.29-.1.57-.35.75-.23.15-.51.15-.77.15-.59,0-1.17-.05-1.76-.11-.06.06-.14.1-.23.1-.19.01-.42-.15-.41-.36h0Z"/><path class="cls-2" d="M163.17,36.77l.19-2.11s-.04,0-.06,0c-.21-.01-.34-.27-.3-.45.04-.23.24-.32.45-.3,1.26.08,2.52.11,3.77.19.21.01.34.27.3.45,0,.02-.01.05-.02.07-.01.46-.05.93-.09,1.39-.02.27-.04.53-.06.79,0,.11-.02.23-.02.34,0,.05,0,.1-.01.16,0,0,0,.01,0,.02,0,0,0,0,0,.03,0,0,0,0,0,0,0,0,0,0,0,0,0-.01,0-.03,0-.04,0,0,0,.02,0,.04,0,.03,0,.06,0,.09-.02.1-.07.17-.14.22,0,0,0,0,0,0,0,0-.01,0-.02.01-.05.04-.11.06-.18.07-.03,0-.06,0-.09,0,0,0,0,0-.01,0-1.24-.08-2.49-.16-3.73-.25-.21-.01-.34-.27-.3-.45.04-.18.18-.26.35-.28Z"/><path class="cls-2" d="M155.95,149.09l.16-2.47c-.1-.06-.18-.15-.19-.28-.01-.19.15-.42.36-.41h0c1.12.04,2.23.11,3.35.15.09-.07.23-.11.33-.09.22.04.31.24.3.44,0,0,0,0,0,.01,0,.03,0,.06,0,.1-.07,1.05-.15,2.11-.21,3.16,0,.13-.11.23-.23.28-.09.06-.2.09-.31.08-1.19-.08-2.38-.16-3.57-.24-.21-.01-.34-.27-.3-.45.03-.17.17-.24.32-.27Z"/><path class="cls-9" d="M161.98,89.43c-.37,5.14-.74,10.29-1.11,15.43-.04.51-.81.35-.78-.15.37-5.14.74-10.29,1.11-15.43.04-.51.81-.35.78.15h0Z"/><path class="cls-9" d="M161.44,89.1c.68-.8,1.35-1.6,2.03-2.39.13-.16.4-.19.56-.04s.18.39.04.56c-.68.8-1.35,1.6-2.03,2.39-.13.16-.4.19-.56.04s-.18-.39-.04-.56h0Z"/><path class="cls-9" d="M160.95,104.56c.52,1.04,1.04,2.09,1.55,3.13l-.73-.04c.07-.21.15-.42.22-.62s.35-.27.53-.18c.21.1.25.33.18.53s-.15.42-.22.62c-.05.14-.24.23-.38.22-.17-.01-.27-.11-.35-.26-.52-1.04-1.04-2.09-1.55-3.13-.1-.19.06-.44.24-.5.22-.08.41.05.5.24h0Z"/><path class="cls-2" d="M156.32,149.28s0,0,0-.01c.01-.16.02-.33.03-.49.41-6.31.78-12.61,1.15-18.92.36-6.16.71-12.31,1.08-18.47.38-6.3.78-12.6,1.22-18.9.44-6.24.87-12.47,1.3-18.71.42-6.16.84-12.32,1.27-18.48h0c0-.06,0-.12-.02-.17.18-2.62.35-5.24.53-7.86.23-3.37.46-6.74.68-10.12.06-.93.12-1.87.19-2.81,0,0,0,0,0,0h0s0,0,0,0c0,0,0-.02,0-.03.14-2.06.31-4.11-.23-6.14-.28-1.03-.73-2.12-1.49-2.89-.58-.6-1.36-.99-2.14-1.27-1.22-.43-2.5-.62-3.79-.7-3.48-.22-6.95-.46-10.43-.69-5.5-.42-11-.8-16.51-1.14-5.42-.34-10.84-.65-16.26-.93-2.76-.14-5.53-.28-8.29-.41-1.43-.07-2.87-.13-4.3-.2-1.24-.06-2.48-.15-3.73-.15-2.01,0-4.27.35-5.85,1.68-1.72,1.45-2.7,3.49-2.97,5.7-.14,1.12-.16,2.27-.23,3.4-.06.88-.12,1.76-.18,2.64-.11,1.53-.2,3.05-.28,4.58-.01.03-.02.06-.02.1-.09,1.26-.18,2.52-.28,3.79-.73,9.91-1.53,19.81-2.32,29.71-.77,9.64-1.55,19.28-2.25,28.92-.7,9.64-1.32,19.29-1.81,28.95-.25,4.93-.41,9.87-.65,14.81-.1,2.08-.32,4.24.13,6.3.38,1.74,1.36,3.14,2.9,4.05,2.66,1.58,6,1.39,8.98,1.68,2.31.23,4.61.53,6.92.75.34.04.67.07,1.01.11,4.69.48,9.39.83,14.09,1.15,4.43.3,8.87.58,13.3.9,2.23.16,4.46.33,6.68.46,2.7.16,5.39.31,8.09.46,1.2.07,2.41.13,3.61.2.54.03,1.07.07,1.61.08.81.06,1.64.13,2.45.11,1.41-.04,2.83-.53,3.92-1.44,1.15-.96,1.8-2.26,2.19-3.68.34-1.21.48-2.45.55-3.7,0-.08.01-.17.02-.25,0,0,0-.01,0-.02,0-.12.02-.23.02-.35.04-.53.09-1.07.11-1.6Z"/><path class="cls-6" d="M92.08,160.23s.02,0,.02,0c-.03,0-.04,0-.02,0Z"/><polygon class="cls-6" points="167.31 37.45 167.31 37.45 167.31 37.44 167.31 37.45"/><path class="cls-4" d="M79.64,28.16s-.05-.05-.07-.07c.04.02.06.05.07.07Z"/><path class="cls-4" d="M153.41,87.95c-.03-.1-.05-.2-.07-.27.07.13.08.22.07.27Z"/><path class="cls-17" d="M84.83,50.7c.06-.91.14-1.81.21-2.72.07-.89.14-1.79.2-2.68.03-.46.07-.91.1-1.36.03-.39.03-.8.11-1.19.08-.38.3-.73.68-.87.35-.12.76-.03.97.29.11.17.07.34-.03.45l-.66,8.66c.16.22.08.6-.27.62-.34.02-.71,0-.99-.21-.32-.24-.36-.62-.33-1Z"/><path class="cls-17" d="M83.84,64.14c.05-.9.11-1.81.19-2.71.14-1.75.28-3.5.52-5.23.05-.4.21-.81.6-.98.34-.15.75-.07.97.25.13.19.07.38-.07.49l-.83,8.51c.11.06.21.13.28.23.29.39-.3.8-.61.47,0,0-.01,0-.03,0-.06,0-.12,0-.18,0-.18,0-.34-.02-.49-.11-.32-.19-.38-.56-.36-.9Z"/><path class="cls-2" d="M167.44,35.81c-.04.58-.08,1.16-.12,1.74,0,.09-.09.2-.16.24-.08.05-.2.08-.29.06-.1-.02-.19-.08-.24-.16-.06-.09-.07-.18-.06-.29.04-.58.08-1.16.12-1.74,0-.09.09-.2.16-.24.08-.05.2-.08.29-.06.1.02.19.08.24.16.06.09.07.18.06.29"/><path class="cls-9" d="M90.65,52.97c.3-3.51.66-7.02,1.01-10.53.51-3.24-.03-8.09,3.86-9.49,0,0,.03.06.05.13h0c.1-.04.23-.07.4-.09-.15-.01-.3-.02-.45-.04,3.65-.62,7.35-.06,11.03.03l10.95.6,21.91,1.26s10.95.7,10.95.7c3.53.16,9.09.24,8.79,4.98-.77,14.34-3.41,49.9-4.5,64.63-.79,10.55-1.61,21.11-2.76,31.63-1.08,8.22.1,10.7-9.85,9.85-17.02-1.24-34.96-2.89-52.01-3.79,0,0-1.37-.08-1.37-.08-3.54.09-4.01-2.68-3.92-5.39,1.07-27.43,3.41-57.08,5.91-84.41Z"/><path class="cls-19" d="M127.1,29.38c-2.38.17-2.65-3.52-.27-3.7,2.38-.17,2.65,3.52.27,3.7"/><path class="cls-9" d="M90.75,50.95c.04-.38.07-.77.11-1.15.27-3.1.61-6.2.93-9.29.49-2.86-.09-7.15,3.78-8.36,0,0,.03.06.05.11h0c.1-.03.23-.06.4-.08-.15-.01-.3-.02-.45-.03,3.64-.52,7.35,0,11.02.11l10.95.61,21.91,1.28s10.95.7,10.95.7c3.53.17,9.09.28,8.83,4.47-.21,3.92-.58,9.65-1.02,16.06l-67.45-4.44Z"/><path class="cls-19" d="M113.16,159.47c.17-.45.48-.44.94-.43.12,0,.24,0,.38,0,1.18-.02,2.83.05,3.43.09h.02c.55.04,1.98.18,2.25.29.16.07.26.37.26.79,0,.39-.09.78-.21.95-.15.21-1.77.13-2.72.07l-2.99-.2c-1.45-.1-1.5-.22-1.48-.81l.1-.04h0s0,0,0,0l-.1.03h0c0-.31.05-.57.12-.76Z"/><g id="Layer_7"><path class="cls-12" d="M150.44,78.56c.08-.7.15-1.41.2-2.12,0,0,0-.01,0-.02.21-2.19.41-4.38.6-6.58.19-2.25.37-4.5.53-6.76.16-2.23.32-4.45.46-6.68.15-2.23.28-4.46.42-6.69.07-1.12.14-2.25.2-3.37.03-.49.04-1-.19-1.45-.21-.41-.61-.66-1.03-.79-.23-.07-.47-.1-.71-.13-1.03-.08-2.06-.15-3.08-.23-.48-.04-.97-.07-1.45-.11-1.31-.1-2.62-.2-3.92-.29-1.91-.14-3.83-.29-5.74-.43-2.32-.17-4.64-.35-6.96-.52-2.51-.19-5.02-.38-7.53-.57-2.48-.19-4.96-.37-7.44-.56-2.25-.17-4.5-.34-6.74-.51-1.81-.14-3.62-.27-5.43-.41l-3.46-.26c-.98-.07-2.23-.28-2.82.72-.28.47-.3,1.04-.35,1.57-.05.53-.11,1.05-.15,1.58,0,0,0,.01,0,.02-.21,2.19-.41,4.38-.6,6.57-.19,2.25-.37,4.5-.53,6.76-.16,2.23-.32,4.45-.46,6.68-.15,2.23-.28,4.46-.42,6.69-.07,1.12-.14,2.25-.2,3.37-.03.49-.04,1,.19,1.45.21.41.61.66,1.03.79.23.07.47.1.71.13,3.52.26,7.03.53,10.55.79,2.88.22,5.75.43,8.63.65,2.65.2,5.29.4,7.94.59,2.83.21,5.65.42,8.48.63,3.41.26,6.83.51,10.24.77.49.04.98.07,1.46.11,1.02.08,2.04.16,3.05.24.62.05,1.24.1,1.86.14.51.04,1.04.1,1.54-.09.31-.11.57-.3.76-.57.24-.33.31-.74.36-1.14h0Z"/></g><g id="Layer_16"><path class="cls-10" d="M109.61,41.88s0,0,0,0h0Z"/><path class="cls-10" d="M109.6,41.88h.01s-.01,0-.01,0Z"/><path class="cls-10" d="M109.52,41.88h.06s-.04,0-.06,0Z"/><path class="cls-10" d="M109.58,41.88h.01s-.01,0-.01,0Z"/><path class="cls-1" d="M150.93,43.99c.24.02.48.06.71.13.42.13.83.38,1.03.79.23.45.22.96.19,1.45-.03.57-.07,1.15-.1,1.72.08.05.14.09.18.11.1.05.17-.75.23-1.41.06-.65.83-1.89.05-2.49-.79-.6-3.9-.84-3.9-.84.1.1.22.27.32.44.44.03.87.07,1.31.1h0Z"/></g><path class="cls-8" d="M117.52,41.48c-.91-.07-1.81-.14-2.72-.2-2.25-.17-4.5-.34-6.74-.51-1.81-.14-3.62-.27-5.43-.41l-3.46-.26c-.98-.07-2.23-.28-2.82.72-.28.47-.3,1.04-.35,1.57-.05.53-.11,1.05-.15,1.58,0,0,0,.01,0,.02-.21,2.19-.41,4.38-.6,6.57-.17,2.01-.33,4.02-.48,6.04,4.5-7.48,13.23-12.08,22.75-15.13Z"/><g id="Layer_11"><path class="cls-16" d="M108.41,53.3c.03-.43.05-.85.08-1.28.05-.84.16-1.67.2-2.51.02-.4-.01-.8-.18-1.16-.14-.3-.4-.54-.69-.69-.44-.22-.91-.26-1.39-.3-.31-.02-.61-.05-.92-.07-.6-.05-1.2-.09-1.8-.14-.37-.03-.74-.06-1.1-.08-.26-.02-.52-.04-.78-.03-.32.02-.66.09-.94.26-.32.19-.53.49-.66.83-.14.38-.17.8-.2,1.2-.03.35-.05.71-.07,1.06-.01.2-.03.39-.04.59-.05.82-.16,1.64-.2,2.46-.02.37,0,.76.13,1.11.13.33.36.59.67.76.35.2.74.27,1.14.31,1.31.1,2.61.19,3.92.3.4.03.79.08,1.19.02.34-.05.66-.16.94-.37.3-.24.47-.59.55-.95.1-.43.12-.88.15-1.32h0Z"/></g><path class="cls-10" d="M108.52,53.06c0-.07-.31-.13-.82-.18-.25-.03-.56-.05-.89-.06-.08,0-.17,0-.26-.01-.05,0-.08,0-.14,0-.06,0-.11,0-.17.01-.22.03-.45.13-.63.29-.18.16-.31.37-.38.59-.03.1-.05.23-.05.32,0,.09,0,.18-.01.26-.02.34-.02.64-.02.9,0,.51.03.83.1.84s.16-.3.24-.81c.04-.25.09-.56.13-.89,0-.08.02-.17.03-.26,0-.09.02-.14.04-.21.04-.13.13-.26.24-.35.11-.1.25-.16.38-.18.07-.01.13-.01.23-.01.09,0,.17,0,.26,0,.34,0,.64-.02.89-.04.51-.04.82-.1.83-.16Z"/><path class="cls-10" d="M105.85,47.5c-.07,0-.13.32-.19.83-.03.26-.05.56-.07.9,0,.08,0,.17-.01.26,0,.05,0,.08,0,.14,0,.06,0,.11,0,.17.03.23.12.45.28.64.16.18.36.32.58.38.1.03.23.05.32.05.09,0,.17,0,.26.01.34.02.64.02.89.02.51,0,.83-.04.83-.11,0-.07-.3-.16-.81-.24-.25-.04-.55-.09-.89-.13-.08,0-.17-.02-.26-.03-.09,0-.14-.02-.21-.04-.13-.04-.26-.13-.35-.24-.1-.11-.16-.25-.18-.39-.01-.07-.01-.14-.01-.23,0-.09,0-.18,0-.26,0-.34-.02-.64-.04-.9-.04-.51-.09-.83-.16-.83Z"/><path class="cls-10" d="M100.09,50.28c0,.07.31.13.82.18.25.03.56.05.89.06.08,0,.17,0,.26.01.05,0,.08,0,.14,0,.06,0,.11,0,.17-.01.23-.03.45-.13.63-.29.18-.16.31-.37.38-.59.03-.1.05-.23.05-.32,0-.09,0-.18.01-.26.02-.34.02-.64.02-.9,0-.51-.03-.83-.1-.84s-.16.3-.24.81c-.04.25-.09.56-.13.89,0,.08-.02.17-.03.26,0,.09-.02.14-.04.21-.04.13-.13.26-.24.35-.11.1-.25.16-.38.18-.07.01-.13.01-.23.01-.09,0-.17,0-.26,0-.34,0-.64.02-.89.04-.51.04-.82.1-.83.16Z"/><path class="cls-10" d="M102.59,55.69c.07,0,.13-.32.19-.83.03-.26.05-.56.07-.9,0-.08,0-.17.01-.26,0-.05,0-.08,0-.14,0-.06,0-.11,0-.17-.03-.23-.12-.45-.28-.64-.16-.18-.36-.32-.58-.38-.1-.03-.23-.05-.32-.05-.09,0-.17,0-.26-.01-.34-.02-.64-.02-.89-.02-.51,0-.83.04-.83.11,0,.07.3.16.81.24.25.04.55.09.89.13.08,0,.17.02.26.03.09,0,.14.02.21.04.13.04.26.13.35.24.1.11.16.25.18.39.01.07.01.14.01.23,0,.09,0,.18,0,.26,0,.34.02.64.04.9.04.51.09.83.16.83Z"/><g class="cls-14"><path class="cls-3" d="M146.7,88.66c-.48-.28-1-.34-1.47-.4-6.11-.77-12.35-1.15-18.39-1.53l-1.67-.1c-10.42-.65-19.17-1.22-29-2.16-1.72-.17-3.09.7-3.87,2.42-1.05,2.32-.79,5.8.52,7.02h0c1.11,1.04,4.27,1.25,4.4,1.26,1.57.1,5.5.42,10.48.83,10.88.89,27.32,2.23,35.8,2.65.28.01.57.03.88.03.63,0,1.3-.06,1.93-.32,1.89-.77,1.94-3.05,1.98-4.88,0-.26.01-.51.02-.76.08-1.93-.16-3.21-1.63-4.06Z"/><path class="cls-3" d="M146.28,106.17c-.48-.28-1-.34-1.47-.4-6.11-.77-12.35-1.15-18.39-1.53l-1.67-.1c-10.42-.65-19.17-1.22-29-2.16-1.72-.17-3.09.7-3.87,2.42-1.05,2.32-.79,5.8.52,7.02,1.11,1.04,4.27,1.25,4.4,1.26,1.57.1,5.5.42,10.48.83,10.88.89,27.32,2.23,35.8,2.65.29.01.59.03.9.03.63,0,1.29-.06,1.91-.32,1.89-.77,1.94-3.05,1.98-4.88,0-.26.01-.51.02-.76.08-1.93-.16-3.21-1.63-4.06Z"/><path class="cls-3" d="M114.62,121.67c-.48-.28-1-.34-1.47-.4-3.93-.5-6.37-.7-9.74-.97-2.35-.19-5.16-.42-9.26-.82-1.72-.17-3.09.7-3.87,2.42-1.05,2.32-.79,5.8.52,7.02h0c1.11,1.04,4.27,1.25,4.4,1.26,1.83.12,2.83.27,3.99.44,1.98.29,4.43.65,12.24,1.04.28.01.57.03.88.03.63,0,1.31-.06,1.93-.32,1.89-.77,1.94-3.05,1.98-4.88,0-.26.01-.51.02-.76.08-1.93-.16-3.21-1.63-4.06Z"/><path class="cls-3" d="M145.45,124.32c-.48-.28-1.03-.35-1.47-.4-3.93-.5-6.36-.69-9.74-.97-2.35-.19-5.16-.42-9.26-.82-1.74-.18-3.1.7-3.87,2.43-1.05,2.32-.79,5.8.52,7.02,1.11,1.04,4.27,1.25,4.4,1.26,1.83.12,2.83.27,3.99.44,1.98.29,4.43.65,12.24,1.04.28.01.57.03.88.03.63,0,1.31-.06,1.93-.32,1.89-.77,1.94-3.05,1.98-4.88,0-.26.01-.51.02-.76.08-1.93-.16-3.21-1.63-4.06Z"/></g><path class="cls-6" d="M107.51,91.37c.04-.68-2.26-1.1-5.36-1.3-3.1-.2-5.81-.1-5.86.58-.04.68,2.51.9,5.61,1.1,3.1.2,5.57.3,5.61-.38Z"/><path class="cls-6" d="M124.64,92.33c.04-.68-2.26-1.1-5.36-1.3-3.1-.2-5.81-.1-5.86.58-.04.68,2.51.9,5.61,1.1,3.1.2,5.57.3,5.61-.38Z"/><path class="cls-6" d="M141.56,93.42c.04-.68-2.26-1.1-5.36-1.3-3.1-.2-5.81-.1-5.86.58-.04.68,2.51.9,5.61,1.1,3.1.2,5.57.3,5.61-.38Z"/><g class="cls-13"><path class="cls-9" d="M120.72,71.54c.04-.18.82-.58-.49-.78-1.63-.25-5.63-.3-8.13-.47-4.91-.34-9.48-.8-10.37-.85-1.75-.11-3.41-.35-3.58.47-.16.82,1.28.6,3.04.71.97.06,6.2.6,11.23.82,4.08.17,8.22.47,8.29.11Z"/></g><path class="cls-9" d="M105.16,64.64c.04-.18.37-.74-.95-.85-1.15-.1-1.6-.13-2.49-.19-1.75-.11-3-.32-3.13.5-.08.53,1.28.6,3.04.71.97.06,3.46.19,3.53-.18Z"/><path class="cls-9" d="M113.42,65.03c.04-.18.37-.74-.95-.85-1.15-.1-1.6-.13-2.49-.19-1.75-.11-3-.32-3.13.5-.08.53,1.28.6,3.04.71.97.06,3.46.19,3.53-.18Z"/><path class="cls-9" d="M121.88,65.34c.04-.18.37-.74-.95-.85-1.15-.1-1.6-.13-2.49-.19-1.75-.11-3-.32-3.13.5-.08.53,1.28.6,3.04.71.97.06,3.46.19,3.53-.18Z"/><g class="cls-13"><path class="cls-9" d="M146.56,73.13c.04-.18.82-.58-.49-.78-1.63-.25-5.63-.3-8.13-.47-4.91-.34-9.48-.8-10.37-.85-1.75-.11-3.41-.35-3.58.47-.16.82,1.28.6,3.04.71.97.06,6.2.6,11.23.82,4.08.17,8.22.47,8.29.11Z"/></g><path class="cls-6" d="M127.69,128.22c.26-.62-.26-.95-1.08-1.05-.82-.1-1.64.08-1.9.7-.26.62.4.76,1.22.86s1.5.12,1.75-.51Z"/><path class="cls-6" d="M112.52,126.69c.12-.67-1-1-2.56-1.09-1.55-.09-2.96.11-3.07.77-.12.67,1.16.8,2.71.89,1.55.09,2.8.1,2.92-.56Z"/><path class="cls-6" d="M99.08,124.91c.12-.67-1-1-2.56-1.09-1.55-.09-2.96.11-3.07.77-.12.67,1.16.8,2.71.89s2.8.1,2.92-.56Z"/><path class="cls-6" d="M134.54,128.7c.26-.62-.26-.95-1.08-1.05-.82-.1-1.64.08-1.9.7-.26.62.4.76,1.22.86s1.5.12,1.75-.51Z"/><path class="cls-6" d="M141.49,129.31c.26-.62-.26-.95-1.08-1.05-.82-.1-1.64.08-1.9.7-.26.62.4.76,1.22.86.82.1,1.5.12,1.75-.51Z"/><path class="cls-6" d="M113.54,108.56c.04-.68-2.26-1.1-5.36-1.3-1.34-.09-5.05-.36-7.35-.51-3-.19-4.52-.21-4.55.17-.03.39-.02.86,3,1.29,2.21.31,7.35.64,8.66.72,3.1.2,5.57.3,5.61-.38Z"/><path class="cls-6" d="M134.54,109.79c.04-.68-2.26-1.1-5.36-1.3-1.34-.09-5.05-.36-7.35-.51-3-.19-4.52-.21-4.55.17-.03.39-.02.86,3,1.29,2.21.31,7.35.64,8.66.72,3.1.2,5.57.3,5.61-.38Z"/><path class="cls-6" d="M106.05,121.9c-.38-.31-1.02.29-2.43,2.02-1.41,1.73-4.17,4.94-3.79,5.25.38.31,1.82-.85,3.23-2.57s3.37-4.39,2.99-4.69Z"/><g id="Layer_10"><path class="cls-11" d="M98.69,174.54c.73-.99,1.45-2,2.14-3.01,0,0,0-.02.01-.03,2.22-3.12,4.41-6.26,6.59-9.41,2.23-3.23,4.45-6.48,6.64-9.73,2.17-3.22,4.33-6.45,6.47-9.68,2.15-3.23,4.28-6.48,6.41-9.72,1.08-1.64,2.15-3.27,3.23-4.91.47-.72.92-1.48.97-2.36.04-.8-.36-1.53-.88-2.1-.29-.31-.62-.57-.96-.81-1.49-1.02-2.99-2.03-4.48-3.05-.7-.48-1.4-.96-2.1-1.43-1.9-1.29-3.8-2.59-5.7-3.88-2.78-1.89-5.56-3.79-8.33-5.68-3.37-2.29-6.74-4.59-10.11-6.89-3.64-2.48-7.29-4.97-10.93-7.45-3.6-2.45-7.2-4.91-10.8-7.36-3.26-2.22-6.53-4.45-9.79-6.67-2.63-1.79-5.26-3.58-7.89-5.37l-5.03-3.42c-1.42-.97-3.13-2.38-4.89-1.38-.83.47-1.35,1.31-1.88,2.06-.54.75-1.08,1.5-1.59,2.26,0,.01-.01.02-.02.04-2.22,3.12-4.41,6.25-6.58,9.4-2.23,3.23-4.45,6.48-6.64,9.73-2.17,3.22-4.33,6.45-6.47,9.68-2.15,3.23-4.28,6.48-6.41,9.72-1.08,1.64-2.15,3.27-3.23,4.91-.47.72-.92,1.48-.97,2.36-.04.8.36,1.53.88,2.1.29.31.62.57.96.81,5.1,3.48,10.21,6.95,15.31,10.43,4.18,2.84,8.35,5.69,12.53,8.53,3.84,2.62,7.69,5.23,11.53,7.85,4.1,2.79,8.21,5.59,12.31,8.38,4.96,3.38,9.91,6.75,14.87,10.13.71.48,1.42.97,2.13,1.45,1.48,1.01,2.95,2.02,4.43,3.03.9.61,1.8,1.23,2.69,1.84.74.51,1.5,1.05,2.41,1.22.57.1,1.12.05,1.65-.19.64-.29,1.12-.85,1.53-1.4h0Z"/><path class="cls-15" d="M48.91,71.67c.62-.95,1.73-1.49,2.86-1.25,1.01.21,1.52,1.09,2.45,1.43.66.24.92-.81.26-1.05-.65-.24-1.1-.92-1.76-1.2-.56-.24-1.17-.35-1.78-.31-1.26.09-2.32.82-2.99,1.86-.38.59.57,1.11.95.53h0Z"/></g><g id="Layer_7-2"><path class="cls-12" d="M98.26,172.97c.73-.99,1.45-2,2.14-3.01,0,0,0-.02.01-.03,2.22-3.12,4.41-6.26,6.59-9.41,2.23-3.23,4.45-6.48,6.64-9.73,2.17-3.22,4.33-6.45,6.47-9.68,2.15-3.23,4.28-6.48,6.41-9.72,1.08-1.64,2.15-3.27,3.23-4.91.47-.72.92-1.48.97-2.36.04-.8-.36-1.53-.88-2.1-.29-.31-.62-.57-.96-.81-1.49-1.02-2.99-2.03-4.48-3.05-.7-.48-1.4-.96-2.1-1.43-1.9-1.29-3.8-2.59-5.7-3.88-2.78-1.89-5.56-3.79-8.33-5.68-3.37-2.29-6.74-4.59-10.11-6.89-3.64-2.48-7.29-4.97-10.93-7.45-3.6-2.45-7.2-4.91-10.8-7.36-3.26-2.22-6.53-4.45-9.79-6.67-2.63-1.79-5.26-3.58-7.89-5.37l-5.03-3.42c-1.42-.97-3.13-2.38-4.89-1.38-.83.47-1.35,1.31-1.88,2.06-.54.75-1.08,1.5-1.59,2.26,0,.01-.01.02-.02.04-2.22,3.12-4.41,6.25-6.58,9.4-2.23,3.23-4.45,6.48-6.64,9.73-2.17,3.22-4.33,6.45-6.47,9.68-2.15,3.23-4.28,6.48-6.41,9.72-1.08,1.64-2.15,3.27-3.23,4.91-.47.72-.92,1.48-.97,2.36-.04.8.36,1.53.88,2.1.29.31.62.57.96.81,5.1,3.48,10.21,6.95,15.31,10.43,4.18,2.84,8.35,5.69,12.53,8.53,3.84,2.62,7.69,5.23,11.53,7.85,4.1,2.79,8.21,5.59,12.31,8.38,4.96,3.38,9.91,6.75,14.87,10.13.71.48,1.42.97,2.13,1.45,1.48,1.01,2.95,2.02,4.43,3.03.9.61,1.8,1.23,2.69,1.84.74.51,1.5,1.05,2.41,1.22.57.1,1.12.05,1.65-.19.64-.29,1.12-.85,1.53-1.4h0Z"/></g><g id="Layer_16-2"><path class="cls-1" d="M45.36,72.95c.52-.76,1.06-1.51,1.59-2.26.54-.75,1.06-1.59,1.88-2.06,1.76-1,3.48.41,4.89,1.38l5.03,3.42c2.63,1.79,5.26,3.58,7.89,5.37,3.26,2.22,6.53,4.45,9.79,6.67,1.11.76,2.23,1.52,3.34,2.28.2,0,.38-.03.46-.01.19.04-23.41-18.27-26.52-19.62s-2.88-3.3-5.47-.66c-2.59,2.64-8.98,14.19-9.49,14.92,2.17-3.15,4.37-6.28,6.58-9.4,0-.01.01-.02.02-.04h0Z"/><path class="cls-10" d="M68.04,81.85s0,0,0,0h0Z"/><path class="cls-10" d="M68.02,81.84h.02s-.02,0-.02,0Z"/><path class="cls-10" d="M67.91,81.77l.09.06s-.05-.04-.09-.06Z"/><path class="cls-10" d="M68,81.83h.02s-.02,0-.02,0Z"/><path class="cls-1" d="M128.88,121.21c.34.25.68.5.96.81.53.57.92,1.3.88,2.1-.04.88-.49,1.64-.97,2.36-.55.84-1.09,1.67-1.64,2.5.07.15.14.27.17.32.1.17.9-.99,1.56-1.92.66-.93,2.9-2.12,2.22-3.72-.68-1.59-5.19-4.69-5.19-4.69.06.24.09.6.1.94.63.43,1.27.86,1.9,1.3h0Z"/></g><g id="Layer_11-2"><path class="cls-16" d="M53.29,106.27c.41-.62.81-1.25,1.23-1.86.8-1.22,1.7-2.38,2.47-3.62.37-.59.67-1.22.73-1.91.05-.58-.14-1.17-.45-1.65-.48-.71-1.16-1.19-1.86-1.67-.44-.3-.88-.61-1.33-.91-.87-.6-1.74-1.19-2.61-1.78-.53-.36-1.07-.73-1.6-1.09-.38-.26-.75-.52-1.16-.72-.51-.25-1.07-.43-1.65-.43-.65,0-1.22.27-1.72.68-.55.45-.95,1.06-1.35,1.64-.35.51-.68,1.03-1.02,1.54-.19.29-.38.57-.57.86-.79,1.19-1.65,2.33-2.42,3.54-.35.55-.67,1.14-.76,1.79-.08.61.04,1.21.36,1.73.36.6.9,1.06,1.46,1.46,1.9,1.29,3.8,2.58,5.69,3.88.57.4,1.13.82,1.78,1.08.56.23,1.14.35,1.74.26.65-.1,1.22-.49,1.66-.96.53-.56.95-1.23,1.38-1.86h0Z"/></g><path class="cls-7" d="M38.4,112.03c-.15-.45-1.78-.32-3.65.3-.94.32-1.73.64-2.36,1.08-.3.22-.52.46-.62.66-.1.21-.09.36-.01.45.18.17.55.07,1.12,0,.56-.07,1.48-.24,2.41-.56,1.87-.61,3.26-1.48,3.12-1.93Z"/><path class="cls-7" d="M35.29,116.13c.23.03.49-.29.67-.84.18-.55.28-1.35.2-2.22-.08-.87-.33-1.63-.61-2.14-.29-.51-.6-.77-.82-.7-.46.16-.42,1.47-.28,3,.15,1.53.36,2.83.84,2.9Z"/><path class="cls-7" d="M45.89,117.75c-.13-.46-1.48-.48-3.01-.05-1.54.43-2.68,1.15-2.55,1.6.13.46,1.48.48,3.01.05,1.54-.43,2.68-1.15,2.55-1.6Z"/><path class="cls-7" d="M43.32,121.65c.22.07.54-.22.79-.8.25-.58.39-1.45.26-2.4-.13-.95-.52-1.75-.91-2.23-.4-.49-.79-.67-.98-.55-.2.13-.2.52-.12,1.06.08.52.19,1.21.32,1.97.09.77.18,1.46.24,1.98.08.53.18.91.41.98Z"/><path class="cls-7" d="M56.64,125.05c-.13-.46-1.52-.45-3.08.01s-2.73,1.21-2.6,1.66c.13.46,1.52.45,3.08-.01,1.57-.46,2.73-1.21,2.6-1.66Z"/><path class="cls-7" d="M53.91,129.08c.47-.06.67-1.48.45-3.17-.22-1.69-.78-3.01-1.25-2.95-.47.06-.67,1.48-.45,3.17.22,1.69.78,3.01,1.25,2.95Z"/><path class="cls-7" d="M63.69,129.61c-.11-.46-1.55-.51-3.15.07-1.61.58-2.67,1.55-2.46,1.97.21.43,1.55.19,3.05-.35,1.5-.55,2.67-1.22,2.56-1.69Z"/><path class="cls-7" d="M60.95,134.04c.47,0,.88-1.45.7-3.26-.17-1.8-.85-3.16-1.31-3.06-.47.1-.56,1.53-.4,3.23.17,1.69.53,3.08,1.01,3.09Z"/><path class="cls-7" d="M74.44,137.5c-.06-.47-1.6-.64-3.39-.15-1.78.49-3.02,1.42-2.84,1.85.18.44,1.63.26,3.29-.19,1.66-.46,3-1.04,2.93-1.51Z"/><path class="cls-7" d="M71.44,141.48c.23.04.5-.27.7-.84.2-.56.31-1.38.23-2.27-.09-.89-.35-1.67-.66-2.18-.3-.51-.63-.76-.85-.69-.45.18-.34,1.49-.2,3.03.16,1.54.31,2.85.78,2.94Z"/><path class="cls-7" d="M81.64,142.37c-.14-.45-1.57-.42-3.19.08-1.62.5-2.83,1.27-2.69,1.72s1.57.42,3.19-.08c1.62-.5,2.83-1.27,2.69-1.72Z"/><path class="cls-7" d="M78.53,146.95c.47,0,.89-1.39.92-3.13.04-1.74-.32-3.16-.8-3.17-.47,0-.89,1.39-.92,3.13-.04,1.74.32,3.16.8,3.17Z"/><path class="cls-8" d="M80.38,88.17c-1.32-.9-2.63-1.8-3.95-2.69-3.26-2.22-6.53-4.45-9.79-6.67-2.63-1.79-5.26-3.58-7.89-5.37l-5.03-3.42c-1.42-.97-3.13-2.38-4.89-1.38-.83.47-1.35,1.31-1.88,2.06-.54.75-1.08,1.5-1.59,2.26,0,.01-.01.02-.02.04-2.22,3.12-4.41,6.25-6.58,9.4-2,2.89-3.97,5.79-5.94,8.7,13.29-7.34,30.5-6.65,47.57-2.91Z"/><path class="cls-9" d="M68.25,93.48c.08.06.48-.24.66-1.07.08-.41.1-.95-.11-1.54-.21-.6-.66-1.22-1.36-1.63-.35-.21-.75-.37-1.2-.44-.46-.07-.93-.03-1.38.07-.9.21-1.68.65-2.43.95-.35.15-.7.23-1.07.26-.36.03-.71-.01-.94-.13-.23-.12-.37-.28-.43-.53-.06-.25-.03-.61.11-.99.23-.74.94-1.57,1.26-2.74.16-.58.16-1.26-.02-1.83-.17-.58-.48-1.08-.84-1.47-.72-.79-1.62-1.26-2.51-1.47-.92-.21-1.74-.12-2.45.03-1.42.34-2.38.92-3.02,1.33-.63.42-.94.71-.89.82.05.11.47.01,1.18-.21.71-.22,1.71-.6,2.93-.73.6-.06,1.27-.05,1.87.15.62.2,1.24.59,1.68,1.13.44.55.63,1.18.43,1.83-.1.34-.29.72-.53,1.13-.12.21-.25.43-.37.68-.13.25-.26.53-.35.81-.19.57-.32,1.24-.14,1.96.16.72.73,1.36,1.38,1.64.64.29,1.27.3,1.82.24.55-.06,1.08-.23,1.53-.44.86-.41,1.54-.83,2.16-1.02.61-.2,1.15-.16,1.64.06.48.21.84.57,1.05.95.22.38.3.78.32,1.11.04.67-.11,1.07,0,1.13Z"/><path class="cls-10" d="M53.67,106c.06-.1-.36-.48-1.08-1-.36-.26-.8-.56-1.3-.88-.12-.08-.25-.16-.38-.24-.07-.04-.12-.08-.21-.13-.08-.05-.17-.09-.26-.13-.37-.15-.79-.2-1.21-.12-.42.08-.79.28-1.08.55-.14.13-.27.31-.35.44-.08.13-.17.26-.25.38-.32.5-.59.95-.81,1.34-.44.78-.67,1.29-.57,1.36s.5-.32,1.07-1.01c.29-.34.61-.76.97-1.23.09-.12.18-.24.27-.36.09-.13.15-.2.25-.29.18-.16.41-.28.67-.33.25-.05.51-.02.74.06.11.04.21.1.36.18.13.07.27.15.4.22.52.28.99.53,1.39.72.81.39,1.33.58,1.39.47Z"/><path class="cls-10" d="M54.42,95.28c-.1-.06-.48.36-1,1.08-.26.36-.56.8-.88,1.3-.08.12-.16.25-.24.38-.04.07-.08.12-.13.21-.05.08-.09.17-.13.26-.15.37-.2.79-.12,1.21.08.42.28.79.55,1.08.13.14.31.27.44.35.13.08.26.17.38.25.5.32.95.59,1.34.82.78.44,1.29.67,1.36.57.07-.1-.32-.5-1.01-1.07-.34-.29-.76-.61-1.23-.97-.12-.09-.24-.18-.36-.27-.13-.09-.2-.15-.29-.25-.16-.18-.28-.41-.33-.67-.05-.25-.02-.51.06-.74.04-.11.1-.21.18-.36.07-.13.15-.27.22-.4.28-.52.53-.99.72-1.39.39-.81.58-1.33.47-1.39Z"/><path class="cls-10" d="M43.28,94.42c-.06.1.36.48,1.08,1,.36.26.8.56,1.3.88.12.08.25.16.38.24.07.04.12.08.21.13.08.05.17.09.26.13.37.15.79.2,1.21.12.42-.08.79-.28,1.08-.55.14-.13.27-.31.35-.44.08-.13.17-.26.25-.38.32-.5.59-.95.81-1.34.44-.78.67-1.29.57-1.36s-.5.32-1.07,1.01c-.29.34-.61.76-.97,1.23-.09.12-.18.24-.27.36-.09.13-.15.2-.25.29-.18.16-.41.28-.67.33-.25.05-.51.02-.74-.06-.11-.04-.21-.1-.36-.18-.13-.07-.27-.15-.4-.22-.52-.28-.99-.53-1.39-.72-.81-.39-1.33-.58-1.39-.47Z"/><path class="cls-10" d="M42.4,104.79c.1.06.48-.36,1-1.08.26-.36.56-.8.88-1.3.08-.12.16-.25.24-.38.04-.07.08-.12.13-.21.05-.08.09-.17.13-.26.15-.37.2-.79.12-1.21-.08-.42-.28-.79-.55-1.08-.13-.14-.31-.27-.44-.35-.13-.08-.26-.17-.38-.25-.5-.32-.95-.59-1.34-.81-.78-.44-1.29-.67-1.36-.57-.07.1.32.5,1.01,1.07.34.29.76.61,1.23.97.12.09.24.18.36.27.13.09.2.15.29.25.16.18.28.41.33.67.05.25.02.51-.06.74-.04.11-.1.21-.18.36-.07.13-.15.27-.22.4-.28.52-.53.99-.72,1.39-.39.81-.58,1.33-.47,1.39Z"/></g></svg>