<svg xmlns="http://www.w3.org/2000/svg" viewBox="0 0 200 200"><defs><style>.cls-1,.cls-2{fill:none}.cls-6{fill:#7e557c}.cls-2{stroke-miterlimit:10;stroke:#5b3d5b;stroke-linecap:round;stroke-width:1.4px}.cls-10{fill:#d2e9eb}.cls-11{fill:#fff}.cls-12{fill:#fd7f03}.cls-14{fill:#ffc101}.cls-19{fill:#5b3d5b}.cls-20{fill:#b4927d}</style></defs><path d="M180.98 106.2c-9.13-12.97-14.78-28.06-15.79-43.89l.37-4.36c1.58-18.68-10.09-35.92-28.01-41.44-.08-.02-.16-.05-.24-.07-9.64-3-19.55-2.77-29.25-.86-.14-.03-.28 0-.39.08-7.5 1.51-14.86 4.02-21.88 6.81-16.01 6.38-33.21 13.5-46.19 25.13-12.94 11.59-19.5 27.33-20.59 44.52-1.08 17.22 1.35 35.7 7.66 51.8 14.26 36.39 52.52 48.19 88.69 43.19.88-.12 1.76-.25 2.65-.39.21.13.34.36.63.37-.03-.15-.08-.34-.28-.42 11.23-1.69 23.09-4.31 33.97-8.77l-.06.45c.28-.19.32-.38.4-.58.13-.05.27-.1.4-.16l.05.21s.08-.14.17-.11c0-.08-.04-.12-.07-.16 7.34-3.09 14.2-7.05 20.07-12.16 7.07-6.16 12.56-14.33 15.23-23.21.02 0 .04 0 .02-.02h-.02l.03-.1s.01-.02 0-.02c.16-.53.31-1.07.44-1.6 1.6-6.23 2.02-19.96-8.03-34.24z" style="fill:#575655" id="BG_Strong"/><g id="Illustrations"><g id="Layer_9"><path class="cls-1" d="M139.53 80.17v.02-.02zM139.53 80.17s0 .01.01.02v-.02h-.01z"/></g><path class="cls-20" d="m162.63 121.28 8.86-13.54s4.28-.01 5.43 1.38c1.15 1.39 1.64 5.67.91 6.73-.73 1.06-4.51 2.37-5.51 3.26s-7.68 2.14-7.68 2.14l-2.02.03z"/><path d="M145.48 84.32v-.02l.01.02z" style="fill:#d3e5e8"/><path class="cls-20" d="M153.15 134.91c2.08-2.77 1.16-8.8 1.36-11.52.18-2.39 3.62.88 2.9-1.24-.72-2.12-1.9-2.82-1.9-2.82l-14.87 10.36s-25.57 18.13-26.28 19.42c-.71 1.29-6.03 2.2-6.03 2.2s-21.98-13.02-22.97-12.91c-.99.11-2.61-5.34-2.61-5.34l23.14-15.49s.02-4.11 1.45-6.92 7.87-7.93 7.87-7.93 7.63.78 9.72 1.06c2.08.28 6.91-.2 9.47-1.05 2.55-.85 4.11-3.65 4.48-4.56.37-.92-2.67-2.66-5.7-4.27-3.03-1.6-13.46-6.68-17.78-6.25-4.33.43-14.95 6.52-20.7 9.48-5.74 2.95-12.43 7.45-17.98 13.23-5.56 5.78-8.17 17.01-8.17 17.01s-10.35 4.73-15.16 6.41c-4.81 1.7-16.11 4.11-29.29 6.24l-12.11 3.52-.61 41.44 36.78-9.56c3.55-1.13 7.02-2.48 10.39-4.06 8.54-4 23.96-11.28 23.96-11.28s19.34-3.32 22.06-3.52c2.72-.2 8.53-.93 11.96-2.22 3.43-1.29 21.75-8.89 24.85-11.99"/><path class="cls-1" d="M129.53 140.48v-.08.08zM177.06 109.75c.12.1.29.23.42.3.01.02 0 .02.03.06.08.11.16.21.24.31.03.05.13.23.17.3.06.12.1.24.15.37.01.06.07.27.08.34.02.12.03.24.05.36v.36c0 .06-.05.3-.05.35-.04.13-.07.25-.12.37-.01.05-.15.31-.16.34-.08.13-.16.26-.25.38-.04.05-.18.2-.24.26-.24.23-.5.45-.77.64-.08.04-.15.09-.23.12-.18.1-.37.18-.56.26-.1.04-.19.08-.29.12.2-.06.22-.06.07-.02-.21.06-.41.11-.61.15-.81.15-1.55.09-2.51-.05-1.18-.18-2.4-.47-3.63-.78 2.41-1.69 4.83-3.38 7.24-5.09.21.19.44.35.7.44.1.03.19.07.29.11zM129.53 140.29v-.07.18-.11zM129.53 140.48v.22c-.01.13-.05.28-.06.42-.01.04-.02.09-.04.13-.04.12-.09.25-.14.37-.02.06-.05.13-.08.19-.07.11-.13.22-.2.33-.08.11-.15.21-.24.32-.02.02-.04.05-.06.07-.13.11-.25.23-.38.33-.02.01-.04.03-.05.04-.07.03-.14.07-.21.1-.03.01-.07.02-.11.03-.15.03-.22.04-.19.04-.17.04-.33.08-.5.1-.14.02-.28.04-.42.05h-.04c-.45 0-.89-.05-1.33-.08 1.35-.96 2.69-1.95 4.04-2.91 0 .02.01.04.01.06-.03.25-.01.28 0 .19zM137.2 97.92l-.03-.05s.06.05.08.09c-.02-.01-.03-.02-.05-.04zM110.56 110.13c.93-1.31 1.51-1.96 2.58-2.95.55-.5 1.14-.98 1.75-1.43.3-.23.62-.45.94-.66.29-.19.02-.01.2-.12.02-.01.04-.03.06-.04.88.21 1.77.38 2.65.54l-5.78 4.16c-1.27.91-2.54 1.82-3.8 2.73.09-.16.18-.32.27-.47.35-.6.73-1.19 1.13-1.76z"/><path class="cls-1" d="M128.12 142.99c-.06.01-.13.03-.19.04.01 0 .02 0 .03-.01.05-.01.08-.02.16-.03zM127.77 143.07l.16-.03c-.08.02-.14.03-.16.03z"/><path class="cls-19" d="M177.46 109.25s-.07-.09-.11-.13c-.02-.03 0-.03.11.13zM177.83 110.68c0-.07-.02-.14-.03-.21 0 0 .01.05.03.21zM177.74 109.94c-.02-.05-.05-.11-.07-.16 0-.04 0-.03.07.16zM176.98 112.55s.06-.05.09-.08c-.13.13-.13.12-.09.08zM177.47 111.9s.06-.08.08-.13c-.07.12-.09.14-.08.13zM177.75 111.18c.02-.06.04-.13.06-.19-.05.19-.06.21-.06.19zM176.2 113.19c.02 0 .03-.02.05-.02-.17.11-.18.13-.06.03zM176.72 108.48s-.04-.02-.07-.03c-.01 0-.03-.02-.04-.03-.14-.09-.11-.07.11.05zM177.08 108.75c-.09-.15.13.06 0 0zM126.84 143.22h.01c.25 0-.61.05-.01 0zM127.93 143.03l-.16.03c-.02 0 .04-.02.19-.04-.01 0-.02 0-.03.01zM129.53 140.29v.19c-.01.09-.03.06 0-.19zM129.46 141.21s0-.06.01-.09c.01-.04.03-.08.04-.12.06-.24.04-.17-.05.21zM129.53 140.29s-.01-.04-.01-.06l.02-.02v.07zM128.12 143c.05-.04.1-.08.15-.11.03-.01.05-.03.08-.04.2-.12.12-.06-.23.15zM129.19 141.85s.01-.03.02-.05c.03-.04.05-.09.08-.12-.17.33-.21.39-.1.17zM128.6 142.65s.07-.09.11-.13l.01-.01c.17-.17.12-.12-.13.15z"/><path class="cls-12" d="M129.54 140.19v.03-.03zM123.28 142.84s.03 0 .04.01c.38.1-.49-.1-.04-.01zM129.49 139.99s-.03-.08-.05-.12c0-.03-.01-.06-.01-.08.12.36.14.42.06.2z"/><path d="m10.04 137.07 27.3-4.35 14.25 46.62-43 10.15a74.07 74.07 0 0 1 .78-50.66l.67-1.76z" style="fill:#bbdbdf"/><path d="M97.14 6.69c-23.37-4.16-48.94 11.1-57.87 29.8-5.07 10.6-5.27 23.25.82 33.46 2.51 6.06 6.19 11.72 11.37 16.35 9.62 8.6 21.6 9.01 34.31 5.8 12.22-3.09 24.41-7.63 33.21-16 7.7-7.32 12.61-16.8 13.75-26.67 2.3-19.83-13.2-38.76-35.59-42.74z" style="fill:#ffb5c4"/><path d="m134.01 81.89-5.2-16.09c-.37-1.15-.32-2.4.2-3.49 1.94-4.11 3.22-8.45 3.73-12.88 1.57-13.6-5.22-26.77-16.86-34.99a81.3 81.3 0 0 0-5.59.71.418.418 0 0 0-.39.07c-7.54 1.26-14.99 3.52-22.09 6.09-16.21 5.85-33.64 12.39-47 23.59a61.348 61.348 0 0 0-5.16 4.88c-.6 6.96.77 14.01 4.45 20.17 2.51 6.06 6.19 11.72 11.37 16.35 9.62 8.6 21.6 9.01 34.31 5.8 10.52-2.66 21-6.39 29.33-12.71 1.23-.94 2.89-1.1 4.29-.44l11.69 5.53c1.69.8 3.51-.8 2.94-2.58z" style="fill:#ffa2af"/><path d="M101.52 66.01c-1.83 2.72-3.25 4.96-6.32 8.72-3.07-.73-7.16-2.03-10.18-3.07-3.53-1.21-14.59-6.48-17.95-8.54s-3.88-2.86-6.08-4.6c-.98-.78-6.31-6.03-8.07-9.97-.56-1.26-1.73-4.86-1.8-6.3-.45-9.44 7.49-14.2 16.02-12.83 9.77 1.57 13 6.59 16.39 9.09.49-3.17 2.51-8.52 7.49-13.99 5.1-5.61 15.58-4.08 18.14-1.46 8.5 8.68 4.13 19.36.74 28.61-2.19 5.98-4.53 8.64-8.37 14.35z" style="fill:#fb678a"/><path class="cls-2" d="M43.41 176.08s2.77.48 39.47-16.33"/><path class="cls-11" d="M101.12 153.35c-.09 0-.18-.02-.25-.05-8.78-3.76-17.18-8.43-24.96-13.9l-.07-.06-.08-.07c-.22-.2-.32-.38-.33-.59-.04-.39.02-.76.24-.92l.7-.5c7.67-5.47 15.1-10.87 21.36-15.42l6.9-4.91h.3l.2-.35.03-.02.1-.2 30.33-22.11c6.82-4.95 14.76-10.7 22.67-16.26.26-.19.57-.29.85-.29.05 0 .11 0 .16.01l.28.04.28-.07c.11-.03.23-.04.35-.04.15 0 .3.02.46.06 10.43 2.7 21.21 5.32 32.05 7.79.13.03.26.22.34.39.12.26.17.54.13.76l-.03.17v.17c.03.26-.02.61-.23.76-11.64 8.19-23.34 16.62-34.65 24.78l-8.94 6.45c-9.52 6.87-19.04 13.74-28.58 20.57-7.07 5.07-12.91 9.23-18.39 13.09l-.24.16-.12.14c-.22.25-.55.41-.83.41z"/><path class="cls-10" d="M160.15 79.14s.04 0 .09.02c10.22 2.65 20.76 5.21 31.35 7.63v.02c-11.52 8.11-23.07 16.44-34.25 24.5l-8.71 6.28c-9.44 6.81-19.19 13.85-28.81 20.74-7.02 5.04-12.84 9.18-18.31 13.03l-.03.02-.15.1-.29.2-.04.05c-8.37-3.61-16.38-8.07-23.8-13.24h.01c7.59-5.42 15.06-10.85 21.35-15.42l7.14-5.08.6-.43.1-.21 1.5-1.09 2.17-1.58 3.59-2.62 2.86-2.08 19.91-14.51c6.81-4.94 14.74-10.68 22.64-16.26l.51.07.55-.13m.02-3.01c-.24 0-.47.03-.69.08-.12-.02-.25-.03-.37-.03-.59 0-1.19.19-1.72.56-7.62 5.36-15.16 10.81-22.69 16.28l-19.92 14.52-6.45 4.71c-1.41 1.03-2.83 2.06-4.24 3.09v.01c-.03.05-.04.07-.04.07-.01.03-.03.06-.06.12l-7.14 5.08c-7.1 5.17-14.2 10.32-21.35 15.41-.23.17-.46.34-.7.5-.7.5-.97 1.38-.87 2.22.03.58.28 1.14.81 1.61.07.06.13.12.2.18.02.01.03.02.04.04 7.92 5.57 16.4 10.29 25.3 14.1.27.12.56.17.85.17.74 0 1.47-.36 1.96-.92.01 0 .03-.01.04-.02 6.17-4.35 12.32-8.74 18.46-13.14 12.52-8.98 25.02-18.01 37.52-27.03 11.51-8.3 23.03-16.6 34.64-24.77.67-.47.93-1.29.87-2.1.08-.52-.02-1.1-.25-1.61-.27-.6-.72-1.09-1.37-1.24a1128.67 1128.67 0 0 1-31.99-7.78 3.46 3.46 0 0 0-.84-.11z"/><path class="cls-2" d="M77.28 159.76s10.82.45 21.64-1.95"/><path class="cls-10" d="M150.45 98.73c-4.04-4.23-11.59-2.89-16.33.21-2.88 1.89-5.65 4.7-6.57 8.12-.68 2.57 0 5.27 1.7 7.09 1.96 3.05 6.01 4.74 10.2 4.33 1.94-.19 3.74-.78 5.28-1.67 3.7-1.16 7.03-3.51 8.59-6.81 2.05-4.32.48-8.76-2.88-11.26z"/><path d="M138.66 112.86c-1.11.22-2 .41-3.65.62-.47-.61-1.01-1.49-1.39-2.16-.44-.77-1.44-3.47-1.62-4.38s-.09-1.13-.1-1.8c0-.3.22-2.1.88-3.1.21-.32.9-1.17 1.27-1.44 2.38-1.81 5.34-1.45 6.82.13 1.69 1.82 1.07 3.25 1.14 4.24.94-.51 2.78-1.18 5.29-1.41 2.57-.24 4.43 1.68 4.29 2.56-.45 2.93-4.2 4.22-7.35 5.39-2.04.76-3.24.89-5.57 1.34z" style="fill:#ff7800"/><path class="cls-14" d="M74.15 137.21c-.13.17-.1.24-.11.35.06-.18.15-.36.26-.52l-.16.16zM74.31 137.04l.48-.5c-.2.14-.35.31-.48.5zM104.14 161.65l-1.26-.42h-.02c.51.17 1.3.43 1.28.42z"/><path d="M102.88 161.23c.37.06.77.02 1.15-.1.52-.04 1.05-.23 1.49-.56l17.44-11.28c1.51-1.09 2.62-1.78 4.13-2.86 0 0 .02-.01.02-.02v-.03.03l.46-.34c1.26-.9 2.52-1.79 3.78-2.69 3.16-2.26 6.33-4.51 9.5-6.76 1.74-1.23 3.47-2.48 5.22-3.71 3.09-2.18 6-5.03 9.11-7.22 1.44-1.02 2.88-2.03 4.32-3.05 1.11-.78 2.2-1.55 3.31-2.34.73-.51 1.45-1.03 2.17-1.55 1.78-1.26 3.54-2.53 5.32-3.79 2.69-1.92 5.39-3.83 8.07-5.75 1.5-1.08 2.99-2.16 4.49-3.24 4.02-2.91 6.5-5.07 9.87-7.71a6.52 6.52 0 0 0 2.47-5.85l-.6-5.54c.06.8-.21 1.63-.87 2.1-11.61 8.17-23.12 16.47-34.64 24.77-12.5 9.01-25 18.05-37.52 27.03-6.14 4.4-12.29 8.79-18.46 13.14-.01 0-.03.01-.04.02-.68.77-1.83 1.17-2.81.75-8.9-3.81-17.38-8.53-25.3-14.1-.02-.01-.03-.03-.04-.04-.07-.05-.14-.12-.2-.18-.53-.47-.78-1.03-.81-1.61-.04-.36 0-.72.1-1.07-.01.04-.02.08-.05.13-.11.33-.17.66-.09 1.02.11 1.81.41 5.34 1.39 6.83.5.75 1.11 1.36 1.79 1.98l1.66 1.15 19.62 11.05c.99.56 2.05.98 3.16 1.23.57.13 1.11.22 1.36.16m17.27-11.83s.03 0 .04.01c.42.11-.55-.11-.04-.01zm6.94-3.23s-.04-.09-.06-.13c0-.03-.02-.06-.02-.09.14.41.16.47.07.22z" style="fill:#9bb5b5"/><path class="cls-14" d="M102.86 161.23a8.14 8.14 0 0 1-.42-.14c.13.07.28.11.42.14z"/><path class="cls-20" d="M132.88 93.83c-3.03-1.6-13.46-6.68-17.78-6.25-4.33.43-14.95 6.52-20.7 9.48-5.74 2.95-12.43 7.45-17.98 13.23-5.56 5.78-8.17 17.01-8.17 17.01s-10.35 4.73-15.16 6.41l47.99-17.24s6.38-2.95 8.52-5.26c2.65-2.87 5.31-8.56 5.31-8.56s7.63.78 9.72 1.06c2.08.28 6.91-.2 9.47-1.05 2.55-.85 4.11-3.65 4.48-4.56.37-.92-2.67-2.66-5.7-4.27z"/><path d="M33.22 138.24s13.55-.97 35.7-11.2c0 0 1.35-13.56 11.15-20.55 9.79-6.99 30.5-18.73 35.7-19.16 5.21-.42 18.17 6.93 20.9 8.41 2.72 1.48 1.85 5.15-3.34 6.79-5.19 1.64-17 .74-21.78-1.99" style="stroke-linejoin:round;stroke-width:1.4px;stroke:#5b3d5b;stroke-linecap:round;fill:none"/><path class="cls-2" d="M114.64 102.28s-5.09 12.98-14.82 14.53"/><path class="cls-11" d="M160.49 112.85c-.14-.04-.61 1.51-1.29 3.94-.19.55-.53 1.11-1.04 1.56-.51.41-1.25.88-1.92 1.37-1.38.98-2.9 2.07-4.49 3.2-1.58 1.16-3.08 2.26-4.45 3.27-.68.51-1.32.99-1.92 1.45-.55.45-1.13.69-1.71.8-.56.1-1.16.04-1.67.07-.51.01-.95.03-1.31.04-.72.03-1.12.08-1.12.15 0 .07.39.15 1.11.24.36.04.8.08 1.3.13.51.03 1.07.14 1.79.07.69-.06 1.46-.35 2.1-.83.62-.43 1.28-.89 1.98-1.37 1.38-.98 2.9-2.07 4.49-3.2 1.58-1.16 3.08-2.26 4.45-3.27.69-.53 1.3-.94 1.94-1.5.6-.58.98-1.29 1.15-1.96.52-2.56.74-4.1.61-4.14z"/><path class="cls-6" d="M141.52 70.05c-1.12-.05-2.19.69-2.66 1.83-.79 1.9.03 3.83.62 5.24 2.4 5.67 5.12 11.29 8.08 16.68l.2.32.67-.26-3.85-20.23c-.24-.95-.89-3.48-3.06-3.58zM164.52 66.55c-.6-1.42-1.93-2.33-3.31-2.26-2.38.14-3.32 2.64-3.8 4.55l-4.72 25.48-.04.38.69.22.17-.3a234.94 234.94 0 0 0 10.25-21.42c.75-1.79 1.77-4.25.77-6.64zM172.47 89.57c-.2-1.05-.98-2.01-1.93-2.38-1.68-.65-3.04.37-3.94 1.04-3.72 2.77-7.33 5.85-10.73 9.15l-.24.26.38.57 14.38-5.34c.62-.29 2.5-1.18 2.09-3.3z"/><path class="cls-20" d="M141.7 133.44c-.37-.56-.85-.99-1.46-1.29-1.14-.56-2.5-.85-3.74-.44-.41.18-.09.55-.5.72-.77.46-.79.56-1.22 1.35-.57.89-.73 2.26-1.1 3.25-.19.64-1.43 2.24-1.29 2.88-1.56 3.76-2.85 4.71-2.48 5.28.33.6 3.58-3.36 4.15-3.01.49.43 1.06.71 1.71.85 1.27.26 2.67.18 3.79-.55.35-.28.7-.56 1.05-.83.48-.51.84-1.09 1.08-1.74.16-.33.33-.65.53-.95.34-.57.52-1.18.54-1.82a3.8 3.8 0 0 0-.1-1.92c-.16-.68-.48-1.26-.94-1.76z"/><path class="cls-20" d="M154 125.48c-.37-.56-.85-.99-1.46-1.29-1.14-.56-2.5-.85-3.74-.44-.41.18-.09.55-.5.72-.77.46-.79.56-1.22 1.35-.57.89-.73 2.26-1.1 3.25-.19.64-1.96 3.34-4.17 4.65-1.56 3.76.04 2.93.41 3.51.33.6 3.58-3.36 4.15-3.01.49.43 1.06.71 1.71.85 1.27.26 2.67.18 3.79-.55.35-.28.7-.56 1.05-.83.48-.51.84-1.09 1.08-1.74.16-.33.33-.65.53-.95.34-.57.52-1.18.54-1.82a3.8 3.8 0 0 0-.1-1.92c-.16-.68-.48-1.26-.94-1.76z"/><path class="cls-2" d="M154.53 127.87c-1.42-7.32-6.18-4.73-7.58-2.59 0 0-1.8 2.44-2.21 7.2M117.56 153.2c.36-.15 18.36-5.7 23.14-11.38 2.42-2.88 1.85-7.3.35-8.74-.58-.56-1.34-1.23-2.47-1.43-1.91-.34-3.95 1.69-4.19 3.45-.53 3.9-5.21 9.05-5.21 9.05l-11.62 9.05z"/><path class="cls-20" d="M152.85 134.82s-4.8 6.83-11.77 7.45"/><path class="cls-2" d="M152.07 123.34c5.79 3.36.93 17.47-11.87 19.33M134.15 136.05s-.58 4.7.17 4.7M141.94 133.19s2.8-1.29 2.96-2.43"/><path d="m177.36 110.55-15.71 11.27 5.96-1.4c8.2-1.7 12.16-4.85 9.84-9.82" style="stroke:#5b3d5b;stroke-linecap:round;stroke-miterlimit:10;fill:none"/><rect class="cls-6" x="170.34" y="103.68" width="11.73" height="2.24" rx=".92" ry=".92" transform="rotate(-35.73 176.217 104.797)"/><path class="cls-6" d="m183.44 98.15 5.04-3.73c.49-.36 1.18-.26 1.53.23.36.49.25 1.18-.23 1.54l-5.04 3.73c-.49.36-1.18.26-1.53-.23a1.11 1.11 0 0 1 .23-1.54z"/><path class="cls-11" d="M190.09 91.46s-.43.23-1.21.75c-.77.53-1.9 1.3-3.35 2.3-2.88 2.04-7.05 4.98-12.19 8.61-10.27 7.3-24.42 17.45-40.01 28.71-7.79 5.64-15.21 11.01-21.96 15.9-1.68 1.23-3.33 2.42-4.92 3.58-.8.58-1.58 1.15-2.36 1.72-.7.51-1.57.79-2.43.91-.86.12-1.74.08-2.5-.2-.76-.33-1.58-.74-2.35-1.1-1.55-.75-3.03-1.47-4.45-2.15-5.65-2.78-10.13-5.2-13.07-7.12-1.48-.95-2.56-1.78-3.27-2.36-.71-.59-1.08-.91-1.11-.88-.02.02.3.39.97 1.03.68.64 1.74 1.53 3.19 2.54 2.9 2.03 7.36 4.56 12.98 7.43 1.41.71 2.88 1.46 4.43 2.21.79.38 1.53.77 2.4 1.16.93.35 1.92.39 2.89.27.97-.13 1.96-.42 2.82-1.04.78-.56 1.57-1.12 2.37-1.7 1.6-1.15 3.26-2.33 4.95-3.55 6.76-4.87 14.2-10.22 22-15.84 15.59-11.26 29.68-21.5 39.84-28.95 5.07-3.74 9.17-6.77 12.01-8.87 1.4-1.06 2.49-1.89 3.24-2.45.73-.57 1.11-.88 1.09-.91z"/><path d="M85.47 149.07c.27-.17 3.4 1.82 3.56 2.01s.08 1.3-.18 1.4-3.58-1.87-3.6-2.15-.04-1.09.23-1.26z" style="fill:#603b5d"/><path class="cls-10" d="M39.23 138.89c-10.27 2.19-22.67 3.85-31.52 4.87-.73 2.4-1.34 4.82-1.82 7.26 9.15-1.01 23.51-2.84 35.38-5.43l-2.05-6.7zM43.72 153.57c-10.09 1.63-27.23 4.62-39.1 7.85-.12 2.42-.12 4.84-.01 7.26 10.94-3.16 29.22-6.43 41.17-8.35l-2.07-6.76zM48.1 167.92c-13.2 3.94-33.87 7.66-42.64 9.15.37 2.3.86 4.59 1.46 6.86 9.03-1.54 29.49-5.23 43.22-9.34l-2.04-6.67z"/><path class="cls-11" d="M97.1 66.13c-1.73 2.57-3.65 4.61-6.55 8.16-2.9-.69-6.75-1.91-9.6-2.89-3.33-1.14-13.76-6.11-16.93-8.06-3.07-1.89-3.66-2.7-5.74-4.34-.93-.74-5.95-5.68-7.61-9.4-.53-1.19-1.63-4.58-1.69-5.94-.42-8.9 7.06-13.4 15.11-12.1 9.22 1.48 12.26 6.22 15.46 8.57.46-2.99 2.37-8.03 7.06-13.2 4.81-5.29 14.69-3.85 17.11-1.38 8.02 8.18 3.89 18.26.69 26.98-2.07 5.64-3.69 8.21-7.31 13.6z"/></g></svg>