<?xml version="1.0" encoding="UTF-8"?><svg xmlns="http://www.w3.org/2000/svg" viewBox="0 0 200 200"><defs><style>.cls-1{fill:none;}.cls-2{fill:#fdbe10;}.cls-3{fill:#613c5d;}.cls-4{fill:#fdca53;}.cls-5{fill:#575655;}.cls-6{fill:#aac6c8;}.cls-7{fill:#9bb5b5;}.cls-8{fill:#d6c2de;}.cls-9{fill:#b6d6da;}.cls-10{fill:#b0c4c5;}.cls-11{fill:#fff;}.cls-12{fill:#e9e7e4;}.cls-13{fill:#a08073;}.cls-14{fill:#745e53;}.cls-15{fill:#f39baa;}.cls-16{fill:#f8bb15;}.cls-17{fill:#897064;}.cls-18{fill:#b9d8dc;}.cls-19{fill:#96b0b2;}</style></defs><g id="BG_Strong"><path class="cls-5" d="M180.69,94.31c10.07-16.48,10.26-37.44-.33-53.59-2.6-3.97-5.74-7.6-9.4-10.75-18.74-16.14-43.96-11.21-55.7-9.04-18.99,3.51-31.11,12.15-45.31,22.27-38.35,27.34-48.05,57.47-46.64,63.51.12.52.95,3.53.98,7.67.03,3.42-.5,5.97-.68,6.92-1.85,9.36-5.5,17.89-2.86,27.53,2.21,8.09,7.84,15.06,14.88,19.49,7.76,4.88,17.57,6.55,26.6,5.49,10.09-1.19,18.7-5.8,28.88-2.19,9.21,3.26,9.21,2.18,19.2,2.98,8.19.65,16.95-1.46,23.21-6.71,20.62-17.3,29.2-34.05,32.74-44.17,3.01-8.61,6.8-16.93,11.56-24.71l2.87-4.7Z"/></g><g id="Illustrations"><path class="cls-13" d="M73.56,77.96c-5.24,3.73-8.92,6.63-10.07,8.11.19-5.81-1.37-10.73,3.39-14.95,10.22-9.05,5.24-20.29,4.86-20.79-.94-1.25-2.11-1.26-3.23-.15-7.41,7.37-15.69,10.48-16.96,11.9-1.36,1.53-7.32,19.6-8.68,26.95-.35,1.89-.7,3.79-.68,5.71.01,1.48.24,2.95.49,4.42.99,5.8,2.3,11.55,3.92,17.21.75,2.61,1.57,5.28,1.35,7.98-.21,2.54-1.32,4.9-2.42,7.19-1.84,3.87-7.67,16.99-9.51,20.86l49.39,17.97,7.35-20.72c2.49-2.44,5.85-3.71,8.9-5.4,9.03-5,15.41-13.84,19.69-23.24,2.09-4.59,15.44-8.18,15.44-8.18,2.32-.16,4.14-1.95,5.84-3.54,1.83-1.72,3.8-3.37,5.07-5.54,1.27-2.17,1.69-5.05.31-7.15-.6-.91-1.48-1.6-2.42-2.14-1.06-.6-2.23-1.03-3.45-1.05-.3,0-.61.01-.91.05l-.03-.25c2.44-.84,4.72-2.01,6.18-4.09.79-1.12,1.27-2.43,1.74-3.72.65-1.8,1.32-3.73.88-5.59-.23-.96-.74-1.83-1.36-2.6-1-1.23-3.57-1.98-3.57-1.98,1.61-2.78,3.54-6.71,4.49-9.78.43-1.41.72-2.91.41-4.34-.36-1.66-1.48-3.06-2.77-4.16-.81-.69-1.73-1.29-2.76-1.56-1.68-.44-3.5.07-4.95,1.02-.69.45-1.31.99-1.89,1.58l-.52-5.1c16.75-7.45,24.57-16.65,21.82-20.93-.87-1.36-4.8-5.64-18.46,2.76M93.28,148.67s.01-.03,0,0h0ZM92.87,149.44s.03-.05.04-.08c-.01.03-.03.05-.04.08ZM84.65,165.5"/><path class="cls-2" d="M98.13,162.06c-15.89-7.16-31.95-13.95-48.11-20.49-4.64-1.88-9.29-3.74-13.95-5.58-.69-.27-1.48-.09-1.83.61-4.57,8.13-8.83,16.44-12.76,24.91-1.11,2.4-2.2,4.82-3.26,7.24-.28.65-.05,1.23.36,1.59.11.11.23.21.38.26,8.79,3.21,17.58,6.4,26.39,9.52,8.85,3.13,17.73,6.2,26.66,9.13,4.99,1.64,10,3.24,15.02,4.79.71.22,1.48-.38,1.62-1.05,3.4-9.81,6.8-19.61,10.2-29.42.07-.2.06-.4,0-.6-.06-.36-.28-.7-.73-.9Z"/><path class="cls-4" d="M34.45,163.48c-.17,6.14,3.26,14.81,10.8,13.68,3.74-.56,6.57-3.82,9.03-6.45,2.5-2.68,4.77-5.6,6.81-8.65.69-1.03,1.34-2.09,1.97-3.16,1.79,7.77,5.01,15.21,9.61,21.54,2.17,2.97,5.12,5.52,9.03,5.33,3.75-.18,7.2-2.81,8.73-6.17,1.71-3.77,1.51-7.89,1.24-11.92-.16-2.33-.13-6.37-.42-8.69-2.91-1.69-6.33-2.52-9.9-4.33.02.1-.15.98-.14,1.08.72,3.99,1.18,8.03,1.45,12.07.13,2,1.26,7.94-1.33,8.98-.01-.03-.04-.06-.09-.09-.53-.39-.91-.98-1.28-1.51-1.07-1.53-2.04-3.15-2.93-4.79-1.74-3.19-3.14-6.53-4.2-10.01-1.01-3.29-1.7-6.64-2.08-10.01-3.77-1.77-7.57-3.5-11.23-5.13-1.45,3.99-3.34,7.8-5.66,11.43-1.85,2.88-3.96,5.55-6.31,8.04-.7.74-1.41,1.45-2.14,2.16-.21.2-.88.64-1.18,1-.02-.08-.05-.15-.07-.21-2.03-5.12.04-12.17,2.03-17.05,1.29-3.17,2.66-5.96,4.76-8.71l-8.91-3.66c.29-.04-7.32,16.01-7.59,25.24Z"/><path class="cls-12" d="M104.03,32.04c-.76,4.1-1.52,8.2-2.28,12.3-.38,2.03-.75,4.05-1.13,6.08l-.58,3.11c-.16.84-.32,1.68-.38,2.54s-.04,1.66.18,2.46c.2.73.56,1.41,1.04,1.99.95,1.14,2.32,1.85,3.69,2.36,1.62.6,3.33.96,5.01,1.37,2,.49,4,.98,5.99,1.47,1.02.25,2.04.5,3.07.75.85.21,1.7.43,2.56.6,1.52.29,3.17.42,4.61-.28s2.26-2.03,2.75-3.46c.55-1.63.71-3.36.92-5.06.52-4.11,1.04-8.22,1.57-12.33.2-1.6.45-3.21.42-4.83-.02-1.4-.24-2.85-.96-4.07-.38-.65-.89-1.2-1.51-1.63-.74-.51-1.59-.83-2.46-1.05s-1.83-.36-2.76-.5c-1.04-.16-2.08-.32-3.13-.48-4.1-.63-8.19-1.27-12.29-1.9-1-.15-1.99-.31-2.99-.46-.27-.04-.28.38-.01.42,4.03.62,8.06,1.25,12.08,1.87,2.01.31,4.03.62,6.04.93,1.76.27,3.69.46,5.2,1.48,2.5,1.68,2.5,5.04,2.23,7.72-.19,1.88-.46,3.75-.7,5.62-.25,2.01-.51,4.02-.76,6.02-.24,1.9-.44,3.8-.74,5.69-.24,1.5-.6,3.07-1.52,4.31-.44.6-1.03,1.08-1.71,1.38s-1.45.41-2.2.41c-1.68-.01-3.33-.52-4.95-.91-1.95-.48-3.91-.96-5.86-1.44s-3.78-.9-5.66-1.39c-2.72-.71-6.02-1.91-6.66-5.03-.34-1.67.08-3.4.38-5.04.37-1.99.74-3.98,1.11-5.98.74-4.01,1.49-8.01,2.23-12.02.18-.97.36-1.93.54-2.9.05-.26-.35-.39-.4-.12h0Z"/><path class="cls-19" d="M119.65,124.02c2.62-.05,5.24-.28,7.86-.38.6-.01,1.21-.06,1.81-.05.4,0,.39-.64-.01-.63-2.66.03-5.32.26-7.96.38-.58.01-1.14.06-1.72.07-.4,0-.39.64.01.63h0v-.02Z"/><path class="cls-19" d="M72.9,33.95c.05,2.73.1,5.48.15,8.21l.05,2.62c0,.4.64.39.63-.01-.05-2.88-.11-5.77-.16-8.65l-.04-2.19c0-.4-.64-.39-.63.01h0Z"/><path class="cls-19" d="M108.82,124.49c3.89-.07,7.76-.18,11.65-.4.45,0,.92-.05,1.37-.08.18,0,.29-.15.3-.3,4.34-.21,10.81-.52,11.55-.68,1.12-.24,3.5-.79,4.3-2.49.8-1.7,1.43-2.87,1.48-4.88s.19-8.2.13-16.63c-.07-8.45-.22-23.85-.41-27.97l.05-.07c-.18-4.12-.93-24.7-.93-26s-.57-20.87-.6-22.88-.05-7.53-.48-8.55-1.13-2.6-2.27-3.18-2.74-1.14-6.32-1.13c-3.57,0-23.63.13-26.67.18-2.55.05-15.27.37-20.13.42,0-.14-.11-.31-.31-.3h0c-1.95.02-3.99.34-5.69,1.34-.63.36-1.2.82-1.66,1.39-.57.68-.89,1.52-1.13,2.36-.32,1.16-.44,2.38-.48,3.57,0,.27.28.36.46.26,0,.16,0,.33,0,.47-.04,0-.07-.02-.13-.02-.16,0-.3.15-.3.31l.03,1.43v.09c.02.96.04,1.94.05,2.89,0,.22.2.32.37.3v.04s.96-.04.96-.04l.25,9.68-1.1.02s.03,1.54.07,3.98c-.16,0-.31.11-.3.31h0c.1,4.54.2,9.08.29,13.62s.19,9.17.29,13.75c.11,4.78.21,9.57.26,14.35.09,4.7.12,9.39.17,14.09.05,4.74.1,9.48.17,14.24l.03,1.77c0,.22.19.32.35.3.01.6,0,1.34,0,2.06-.16,0-.32.1-.32.31.02,1.05.04,2.1.06,3.13v.02c0,.36.01.71.02,1.07v.45c0,.05.01.11.05.14.13,1.26.43,2.53.94,3.71.43.99,1.05,1.81,1.93,2.46.92.69,2.01,1.19,3.16,1.37.69.11,1.41.12,2.12.12l1.09-.02c.74-.01,1.5,0,2.24-.02,2.21-.02,4.41-.05,6.64-.07,1.81-.03,3.62-.07,5.44-.1"/><path class="cls-6" d="M77.61,112l-.04-1.97c.25-.13.19-.6-.16-.59-.91-.02-1.79,0-2.7,0-.18-.16-.54-.08-.54.23.02.89.03,1.77.05,2.66,0,.13.08.22.17.27.06.05.13.09.22.09l2.91-.05c.38,0,.39-.57.06-.62h.02Z"/><path class="cls-6" d="M76.07,20.19l-.07-1.7h0c.4,0,.39-.64-.01-.63-1.03.02-2.06,0-3.08.02-.24,0-.32.2-.3.39h0c-.02.76.03,1.54.04,2.3,0,.11.04.18.11.23.06.05.13.07.2.07l3.06-.06c.4,0,.39-.59.02-.63l.02.02Z"/><path class="cls-9" d="M139.62,75.14c-.2-7.89-.45-15.77-.73-23.67-.28-8.1-.53-16.2-.76-24.33-.02-1.01-.04-2.03-.07-3.06v-.09c-.02-1.27-.03-2.51-.07-3.78l-.04-2.1c-.02-.92,0-1.86-.05-2.8-.14-1.86-.88-3.71-2.35-4.91-1.27-1.04-2.98-1.39-4.59-1.47-1.01-.05-2.03-.02-3.04-.02-1.16,0-2.3,0-3.46,0-2.26,0-4.51.01-6.77.02-4.43.03-8.88.05-13.32.14-4.43.08-8.86.16-13.29.3-2.93.05-5.86.11-8.77.16-1.05.02-2.13.13-3.14.44-.68.21-1.35.53-1.86,1.05-.6.61-.99,1.48-1.24,2.3-.48,1.58-.43,3.23-.38,4.86h0c.01.76.03,1.54.04,2.3h0c.05,2.75.1,5.52.15,8.27.04,2.15.08,4.29.12,6.44,0,.04-.02.07-.02.13.11,5.05.22,10.09.31,15.14.09,5.05.22,10.18.34,15.27.11,5.12.19,10.26.28,15.38.06,5.03.11,10.06.17,15.09.06,5.17.12,10.35.21,15.52v.51h0l.02,1.36v.14h0v.31c.02,1.03.1,2.06.33,3.07.27,1.15.77,2.25,1.67,3.05.86.76,1.98,1.18,3.1,1.28.69.06,1.39.03,2.08,0h0c.42.01.85-.02,1.27,0,.98-.02,1.95-.02,2.95-.02,2.19-.02,4.38-.04,6.57-.07,1.79-.03,3.6-.07,5.39-.1,3.64-.09,7.25-.13,10.89-.22,3.85-.07,7.71-.18,11.54-.39.18,0,.34,0,.52-.03,1.97-.09,3.96-.25,5.93-.36,2.48-.14,5.21.16,7.49-1.04,3.07-1.59,2.87-5.23,2.85-8.21,0-4.02.05-8.04.05-12.07-.02-7.93-.17-15.85-.37-23.77l.02.04Z"/><path class="cls-7" d="M121.19,113.5c1.16-.02,5.7.02,7.25-.13,1.55-.16,6.83-.38,7.16-.53.34-.15,1.07.03,1.34-1.69s.42-5.91.24-7.77c-.18-1.84-.08-23.2-.08-23.2,0,0-.35-14.14-.61-17.61-.26-3.47-.71-28.94-.77-30.8-.03-1.86.21-13.2-.91-14.88-1.12-1.66-1.56-2.25-3.12-2.37s-15.18-.05-16.74-.04-18.89.35-21.27.39-10.82.16-11.61.27-2.22.19-2.73,1.06-1,1.79-.93,4.7c.05,2.91.59,24.33.65,29.19.04,4.87.57,35,.62,38.48.03,3.47.09,12.79.15,15.25.06,2.46-.05,5.95.35,7.36.41,1.39.78,2.81,2.59,2.96,1.81.13,8.52.02,8.52.02l29.92-.7h0l-.02.02Z"/><path class="cls-16" d="M139.02,20.28l-.05-2.6c0-.25,0-.54-.25-.68-.13-.07-.27-.07-.42-.08l-.45-.05c-.16,0-.3.17-.3.31,0,.09.04.16.09.22l.06,3.36s-.07.07-.09.13c-.07.16-.03.34.12.43.13.07.31.05.4-.08h.05c.07,0,.16.01.24.03.22,0,.41-.08.54-.26.12-.22.08-.49.08-.73h-.02ZM138.06,21.26h0Z"/><path class="cls-16" d="M139.3,32.4l-.04-2.19-.06-1.07c0-.33-.01-.65-.04-.98s-.17-.63-.47-.77c-.27-.14-.65-.11-.85.14-.09.13-.12.29-.01.42l.2,7.05s-.09.15-.09.22c0,.18.15.29.31.3.25.03.54,0,.76-.14.29-.19.33-.51.33-.84-.01-.72-.03-1.43-.06-2.15Z"/><path class="cls-16" d="M139.63,43.4c-.03-1.41-.11-2.84-.22-4.25-.02-.33-.1-.67-.4-.86-.26-.16-.65-.15-.85.11-.11.13-.12.31,0,.43l.35,6.96s-.14.08-.21.15c-.27.31.19.74.44.44h.04c.05,0,.11,0,.14,0,.14,0,.27,0,.4-.08.27-.17.32-.48.31-.75-.01-.71-.03-1.41-.04-2.13l.04-.02Z"/><path class="cls-19" d="M129.32,123.57c.85-.02,1.72-.07,2.57-.12.87-.07,1.77-.1,2.62-.3,1.24-.29,2.44-.88,3.3-1.83.76-.86,1.27-1.98,1.52-3.1s.37-2.36.51-3.56c.02-.16-.17-.3-.31-.3-.18,0-.29.15-.3.31-.11,1-.22,1.99-.42,2.99-.2,1.05-.56,2.07-1.19,2.94-.74.99-1.82,1.59-2.99,1.9-.79.21-1.61.26-2.44.33-.94.07-1.9.13-2.84.14-.4,0-.39.64.01.63h0l-.04-.04Z"/><path class="cls-11" d="M131.22,16.43c2.3,1.04,2.31,3.45,2.4,6.74.09,3.09,1.09,41.44,1.43,60.87.34,19.41.49,20.86.35,22.11-.14,1.23-.22,2.68-2.26,2.79-2.06.11-25.19.7-33.91.93-4.49.12-11.4.26-13.17.06-1.78-.2-3.21-.34-3.48-2.38-.27-2.06-.8-10.84-1.34-43.48s-.98-42.42-1.01-43.79c-.03-1.37.38-2.79,4.16-2.88,3.76-.11,24.83-.71,32.85-.91,4.76-.12,12.77-.56,14.01,0h0l-.02-.05Z"/><path class="cls-7" d="M121.2,113.82c3.85-.07,7.72-.3,11.57-.38,1.05-.02,2.24.05,3.21-.44.79-.39,1.3-1.2,1.45-2.05.23-1.31.11-2.7.14-4.04.02-1.94.04-3.87.04-5.81.02-7.76-.09-15.52-.25-23.28-.16-7.87-.4-15.72-.65-23.58-.25-7.89-.51-15.75-.71-23.62-.02-.96-.04-1.92-.07-2.88,0-.4-.64-.39-.63.01.2,7.74.43,15.46.68,23.2.25,7.72.48,15.44.68,23.17.18,7.67.32,15.32.33,22.99.01,3.76-.04,7.53-.05,11.29,0,.98.13,2.17-.32,3.08-.51,1.02-1.5,1.22-2.55,1.28-1.92.11-3.83.11-5.75.16-2.1.07-4.2.15-6.29.21l-.83.02c-.4,0-.39.64.01.63h0l-.02.04Z"/><path class="cls-7" d="M135.92,28.52c0-1.77-.01-3.53-.1-5.3-.03-.85-.09-1.68-.14-2.53s-.09-1.7-.21-2.53c-.22-1.37-.79-2.81-2.07-3.49-.71-.38-1.51-.53-2.31-.55-1.01-.02-2.01,0-3.02,0-4,0-8,.02-12,.06-4.02.04-8.05.09-12.07.17-4.02.07-8.01.17-12.03.28l-1.47.03c-.4,0-.39.64.01.63,3.92-.11,7.85-.22,11.79-.29,3.96-.07,7.92-.15,11.9-.18,3.94-.04,7.91-.07,11.85-.07.98-.02,1.94,0,2.91,0,.49,0,.98,0,1.47,0,.45,0,.9-.02,1.34.05.71.11,1.42.35,1.93.85s.78,1.14.96,1.79c.21.68.26,1.37.31,2.09.07.87.12,1.72.17,2.58.08,1.65.13,3.31.15,4.96,0,.49.02.96,0,1.45,0,.4.62.39.63-.01h0l-.04.02Z"/><path class="cls-7" d="M93.68,14.58c-2.79.05-5.55.14-8.34.21l-2.21.04c-.52,0-1.05-.02-1.57.07-1.03.15-2.07.51-2.69,1.41-.35.51-.58,1.11-.71,1.73s-.12,1.2-.11,1.81c.03,1.57.06,3.13.09,4.7.05,2.98.11,5.97.16,8.95s.11,6.1.17,9.15l.02,1.19c0,.4.64.39.63-.01-.06-3.04-.11-6.06-.17-9.1-.05-2.91-.11-5.82-.16-8.74-.03-1.5-.06-3-.08-4.5l-.04-2.32c0-.54.11-1.09.28-1.6s.43-1.06.88-1.39c.39-.3.88-.47,1.35-.57.38-.08.72-.12,1.1-.13l2.23-.04c2.68-.05,5.35-.15,8.03-.2l1.16-.02c.38,0,.39-.64-.01-.63h0v-.02Z"/><path class="cls-7" d="M123.27,113.1c-3.54.21-7.09.31-10.63.39s-6.84.13-10.27.21c-1.86.03-3.73.1-5.59.12-1.95.04-3.93.04-5.88.05-1.56.03-3.09.06-4.65.03h-.14c-.4,0-.39.63.01.64.43.01.89,0,1.32,0,.9-.02,1.81-.02,2.71-.01,2.03-.02,4.07-.04,6.1-.06,1.66-.03,3.33-.06,4.99-.09,3.36-.08,6.73-.12,10.09-.2,3.58-.07,7.14-.17,10.72-.36.42,0,.81-.05,1.23-.08s.39-.66-.01-.63h0Z"/><path class="cls-7" d="M78.4,37.77c.1,4.5.2,8.99.28,13.49.08,4.54.2,9.08.3,13.6.1,4.54.17,9.14.25,13.71.06,4.49.09,8.96.16,13.44.06,4.49.1,9.23.18,13.82l.03,1.81c0,.4.64.39.63-.01-.09-4.65-.15-9.28-.2-13.93s-.09-8.97-.16-13.46c-.05-4.54-.13-9.1-.21-13.64-.08-4.54-.2-9.1-.31-13.66-.08-4.52-.18-9.04-.29-13.57l-.03-1.65c0-.4-.64-.39-.63.01h0l-.02.02Z"/><path class="cls-7" d="M86.78,113.95c-.99.02-2.01.06-3,.02-.67-.02-1.32-.14-1.93-.45-1.48-.81-1.44-2.71-1.56-4.17-.09-1.01-.11-2.02-.09-3.04,0-.4-.62-.39-.63.01-.02.96,0,1.9.09,2.86.07.81.1,1.64.28,2.46.18.9.57,1.73,1.36,2.27.62.42,1.4.63,2.15.68,1.12.09,2.26.03,3.38,0,.4,0,.39-.64-.01-.63h-.04Z"/><path class="cls-3" d="M106.34,11.6c-.15-.21-.41-.39-.68-.39-.09-.03-.2-.05-.31-.05-.24,0-.47.1-.63.26s-.25.38-.26.62c-.05.47.27.9.72,1,.45.12,1.01-.09,1.2-.55.12-.29.15-.64-.03-.9h-.02Z"/><path class="cls-16" d="M74.62,26.03c-.01-.74-.06-1.48-.1-2.22,0-.33-.4-.37-.56-.19-.47-.03-.94-.07-1.41-.05-.43,0-.68.34-.73.76-.06.47-.06.94-.08,1.41s-.04.98-.05,1.47c-.04,1.99,0,3.98.15,5.97,0,.22.04.45.23.59.18.16.42.17.65.17.47.03.96,0,1.43-.03.17.16.54.08.54-.23h0c.03-2.55.01-5.12-.09-7.67l.02.02Z"/><path class="cls-3" d="M97.79,123.03c.54,0,.53-.84-.02-.83s-.53.84.02.83h0Z"/><path class="cls-3" d="M94.1,123.1c.54,0,.53-.84-.02-.83s-.53.84.02.83h0Z"/><path class="cls-3" d="M90.59,123.16c.54,0,.53-.84-.02-.83s-.53.84.02.83h0Z"/><path class="cls-3" d="M87.19,123.22c.54,0,.53-.84-.02-.83s-.53.84.02.83h0Z"/><path class="cls-3" d="M128.54,122.1c.54,0,.53-.84-.02-.83s-.53.84.02.83h0Z"/><path class="cls-3" d="M124.83,122.24c.54,0,.53-.84-.02-.83s-.53.84.02.83h0Z"/><path class="cls-3" d="M121.34,122.38c.54,0,.53-.84-.02-.83s-.53.84.02.83h0Z"/><path class="cls-3" d="M117.92,122.5c.54,0,.53-.84-.02-.83s-.53.84.02.83h0Z"/><path class="cls-11" d="M111.85,122.63c0-.09-1.38-.1-3.08-.02-1.69.07-3.07.2-3.06.29,0,.09,1.38.1,3.08.02s3.07-.2,3.06-.29Z"/><path class="cls-11" d="M72.92,54.19s.23.22.6.64c.18.21.39.49.56.84.18.35.33.78.42,1.27.1.49.13,1.04.13,1.63,0,.6,0,1.24,0,1.91,0,1.34.01,2.82.02,4.37.02,1.55.03,3.03.04,4.37.01.67.02,1.31.03,1.91.01.6.02,1.15-.01,1.65-.03.5-.1.95-.21,1.33-.11.38-.25.69-.4.93-.3.47-.58.65-.55.67,0,0,.07-.03.2-.12.12-.09.29-.25.46-.48.17-.23.34-.55.47-.95.13-.39.21-.85.26-1.37.05-.51.05-1.08.05-1.67,0-.6,0-1.24,0-1.91,0-1.34-.01-2.82-.02-4.37-.02-1.55-.03-3.03-.04-4.37-.01-.67-.02-1.31-.03-1.91-.01-.6-.06-1.17-.18-1.67-.11-.51-.28-.95-.48-1.31-.2-.36-.43-.64-.63-.84-.05-.05-.1-.1-.14-.14-.05-.04-.09-.08-.13-.12-.08-.07-.16-.13-.22-.17-.12-.09-.19-.13-.2-.12Z"/><path class="cls-10" d="M92.36,77.23c-.05-.05-.05-.77.03-.91.42-.68,9.81-1.1,11.3-1.13,5.08-.11,10.25.08,15.3.32,1.1.05,2.24-.44,3.3.35,1.21.9-.42,1.81-1.42,1.83-4.96.1-10.11-.26-15.07-.31-3.04-.03-6.24.4-9.29.32-.52-.01-4.02-.32-4.16-.48Z"/><path class="cls-10" d="M110.65,81.58c2.03.02,13.93-.24,13.31,1.21-1.51,1.15-4.58,1.08-7.34,1.12-4.94.08-16.69.03-21.4-.28-1.85-.12-6.26-.8-3.53-1.71,1.53-.51,16-.37,18.95-.35Z"/><path class="cls-13" d="M133.98,72.54c1.13.99,2.65,1.4,4.12,1.69.88.17,1.81.31,2.68.07,1.21-.33,2.1-1.33,2.84-2.34,1-1.35,1.86-2.79,2.58-4.31,0,0,1.49.7,2.38-2.2.41-1.33.68-2.75.39-4.11-.34-1.57-1.4-2.9-2.63-3.94-.77-.65-1.63-1.22-2.61-1.47-1.59-.41-3.31.07-4.69.96-1.38.89-2.46,2.16-3.48,3.46-1.4,1.79-2.72,3.72-3.24,5.93-.51,2.21-.06,4.77,1.65,6.27Z"/><path class="cls-13" d="M130.58,89.35c1.95,1.75,4.74,2.52,7.31,2.02,1.27-.25,4.7-.87,5.71-1.69,2.3-1.88,5.98-7.02,5.52-8.95-.24-.99-.77-1.9-1.41-2.69-1.04-1.27-2.43-2.31-4.04-2.63-1.2-.24-2.46-.07-3.63.28-3.02.91-5.54,2.97-7.87,5.09-.92.83-1.84,1.7-2.48,2.76s-.97,2.37-.63,3.57c.25.88.84,1.63,1.52,2.24Z"/><path class="cls-13" d="M144.96,94.15c-1-.57-2.11-.97-3.26-1-1.39-.03-2.72.48-3.99,1.04-2.19.95-4.35,2.06-6.14,3.64-1.79,1.58-1.66,5.24-1.51,5.94,1.82,8.4,14.97-.22,16.17-2.28s2.33-3.32,1.03-5.32c-.56-.86-1.4-1.52-2.29-2.02Z"/><path class="cls-13" d="M77.33,141.29c1.81,1.52-18.53-50.43-16.18-50.55,8.83-.46,13.98,10.15,15.11,13.72,3.75,11.92,5.16,25.02,1.07,36.83"/><path class="cls-3" d="M140.99,111.7c1.91-1.52,3.8-3.28,5.44-5.09,1.49-1.64,2.72-3.55,3.05-5.79.31-2.09-.22-4.19-1.77-5.69-1.68-1.62-4.13-2.64-6.48-2.39l.71.71-.03-.25-.52.69c2.17-.75,4.33-1.77,5.89-3.51,1.63-1.82,2.51-4.4,3.16-6.72.7-2.51.41-4.93-1.31-6.96-.95-1.11-2.51-1.76-3.88-2.16l.43,1.05c1.28-2.23,2.44-4.54,3.44-6.91s2.05-5.01,1.57-7.62c-.44-2.38-2.39-4.47-4.43-5.66-2.3-1.35-4.94-.98-7.13.39-.78.49-.06,1.72.72,1.23,2.08-1.3,4.34-1.44,6.36.05,1.83,1.34,3.28,3.28,3.17,5.64-.1,2.2-1.1,4.42-1.99,6.4-.88,1.97-1.87,3.89-2.94,5.76-.23.41-.02.92.43,1.05,1.07.32,2.27.79,3.07,1.6,1.74,1.77,1.66,4.12.96,6.32-.63,1.99-1.33,4.17-2.79,5.71-1.38,1.46-3.23,2.32-5.1,2.97-.27.1-.56.37-.52.69l.03.25c.04.35.3.76.71.71,2.05-.22,4.22.65,5.65,2.15,1.37,1.44,1.51,3.49.96,5.32-.57,1.9-1.87,3.45-3.26,4.83-1.46,1.46-2.99,2.93-4.6,4.22-.72.57.3,1.58,1.01,1.01h0Z"/><path class="cls-3" d="M87.81,150c11.73-.38,21.53-9.4,28.14-18.33,1.46-1.97,2.82-4.03,3.98-6.19.44-.81-.8-1.53-1.23-.72-2.2,4.08-5.04,7.85-8.18,11.25-3.84,4.16-8.3,7.9-13.46,10.28-2.91,1.34-6.04,2.18-9.25,2.28-.92.03-.92,1.46,0,1.43h0Z"/><path class="cls-3" d="M86.09,170.56c1.68-5.13,3.44-10.25,5.31-15.31.7-1.91,1.43-3.81,2.2-5.69.35-.85-1.03-1.22-1.38-.38-2.58,6.3-4.76,12.77-6.92,19.22-.2.59-.4,1.19-.59,1.78-.29.87,1.09,1.25,1.38.38h0Z"/><path class="cls-3" d="M73.2,77.35c-2.24,1.6-4.47,3.23-6.63,4.94-1.25,1-2.59,2.02-3.59,3.28l1.22.5c.08-2.95-.4-5.98.08-8.9.23-1.37.71-2.65,1.5-3.79.97-1.39,2.39-2.39,3.51-3.66,3.5-3.96,5.2-9.14,4.55-14.4-.19-1.52-.52-3.03-1.09-4.45-.62-1.54-2.11-2.81-3.83-1.9-.78.41-1.36,1.14-2,1.73-.7.65-1.41,1.27-2.14,1.88-1.36,1.13-2.79,2.18-4.26,3.16-2.17,1.46-4.45,2.75-6.73,4.03-1.06.59-2.42,1.17-3.08,2.25-.73,1.19-1.19,2.6-1.68,3.9-1.74,4.61-3.24,9.32-4.62,14.05-.66,2.26-1.29,4.53-1.82,6.82-.7,3.02-1.34,6.17-1.08,9.28.33,3.9,1.25,7.82,2.11,11.64s2.06,7.74,3.03,11.63c.48,1.94.79,3.95.43,5.94s-1.13,3.67-1.95,5.39-1.68,3.62-2.51,5.43c-2.08,4.58-4.13,9.18-6.23,13.75-.33.73-.67,1.46-1.01,2.18-.39.83.84,1.55,1.23.72,1.9-4,3.69-8.07,5.51-12.11.98-2.17,1.96-4.34,2.95-6.5,1.06-2.3,2.29-4.56,3.02-6.99,1.13-3.75.21-7.33-.83-10.98-1.07-3.76-2.01-7.55-2.81-11.38-.78-3.75-1.82-7.72-1.52-11.57.2-2.59.8-5.18,1.43-7.7,1.22-4.84,2.71-9.62,4.3-14.35.67-1.97,1.35-3.93,2.11-5.86.25-.64.51-1.29.81-1.91.1-.21.21-.41.32-.62.03-.06.07-.12.11-.18.1-.15-.11.08.09-.1,1.03-.96,2.71-1.67,4-2.4,2.55-1.44,5.05-2.99,7.4-4.74,1.38-1.03,2.72-2.11,3.99-3.27.88-.8,2.47-3.04,3.62-1.38.45.65.7,1.75.93,2.66,1.09,4.48.38,9.23-2.11,13.13-.88,1.38-1.96,2.62-3.16,3.73s-2.2,2.13-2.9,3.54c-1.23,2.45-1.27,5.2-1.18,7.88.05,1.47.11,2.94.07,4.41-.02.57.82,1,1.22.5.96-1.2,2.23-2.18,3.42-3.14,2.11-1.69,4.31-3.28,6.51-4.86.74-.53.03-1.77-.72-1.23h0Z"/><path class="cls-3" d="M139.27,52.67c5-2.37,9.88-5.15,14.13-8.72,2.56-2.14,5.24-4.77,6.37-8,.62-1.78.47-3.7-.86-5.11s-3.2-1.88-5.03-1.89c-4.91-.04-9.76,2.68-13.81,5.15-.78.48-.07,1.71.72,1.23,3.59-2.19,7.67-4.5,11.95-4.91,1.06-.1,2.14-.08,3.17.23.61.18,1.3.55,1.68.89.19.17.36.35.52.54-.04-.05,0,0,.09.13s.17.26.24.4c.36.74.32,1.64.1,2.47-.78,2.88-3.22,5.27-5.38,7.18-4.31,3.82-9.43,6.71-14.61,9.16-.83.39-.11,1.62.72,1.23h0Z"/><path class="cls-3" d="M61.15,91.45c6.26-.27,10.7,5.17,13.22,10.29,1.44,2.93,2.22,6.17,2.95,9.33,1.07,4.64,1.72,9.38,1.77,14.15.05,5.4-.7,10.77-2.45,15.88-.3.87,1.08,1.24,1.38.38,3.25-9.5,3.03-19.78.96-29.51-1.37-6.44-3.3-12.86-8.05-17.67-2.61-2.64-6-4.43-9.79-4.27-.91.04-.92,1.47,0,1.43h0Z"/><path class="cls-3" d="M140.28,55.23c-3.12,2.44-6.41,5.22-8.33,8.76-.94,1.73-1.52,3.8-.89,5.73.86,2.67,3.58,4.72,6.38,4.74,4.13.03,7.16-3.63,9.14-6.82.49-.78-.75-1.5-1.23-.72-1.63,2.61-4.07,5.83-7.43,6.1-.81.06-1.68-.07-2.39-.37-.28-.12-.54-.27-.8-.43-.23-.15-.16-.11-.41-.33-.79-.69-1.43-1.4-1.78-2.25-.6-1.48-.26-3.11.45-4.55,1.79-3.62,5.18-6.42,8.3-8.85.72-.56-.29-1.57-1.01-1.01h0Z"/><path class="cls-3" d="M145.54,74.55c-4.24-.76-8.37,1.35-11.81,3.6-2.22,1.46-4.65,3.46-5.28,6.18-.36,1.53-.05,3.12.8,4.44,1.1,1.72,2.82,2.74,4.87,2.95,1.94.2,3.95-.25,5.78-.89,1.23-.43,2.57-.94,3.61-1.75.72-.57-.29-1.57-1.01-1.01.13-.1-.18.11-.24.15-.21.13-.42.24-.64.35-.53.27-1.07.5-1.62.71-1.44.54-2.96.97-4.5,1.04s-3.1-.18-4.21-1.28c-.14-.13-.26-.28-.39-.42-.05-.06-.1-.12-.15-.18-.03-.04.02.04-.1-.13-.68-.98-1.04-1.92-.92-3.12.22-2.12,2.05-3.89,3.7-5.11,1.88-1.39,3.98-2.47,6.11-3.41,1.68-.74,3.79-1.08,5.61-.75.9.16,1.28-1.22.38-1.38h0Z"/><path class="cls-3" d="M142.14,92.69c-2.11-.15-4.36.8-6.2,1.74-2.24,1.14-4.46,2.73-5.8,4.89s-1.34,4.59.06,6.64c1.21,1.77,3.24,2.57,5.35,2.42,3.86-.27,7.31-2.81,10.13-5.26.69-.6-.32-1.61-1.01-1.01-2.36,2.05-5.12,4.1-8.26,4.72-1.72.34-3.62.07-4.79-1.35-3.18-3.85,1.38-7.85,4.58-9.59,1.73-.94,3.91-1.93,5.94-1.78.92.07.91-1.36,0-1.43h0Z"/><path class="cls-8" d="M128.93,62.29l-.19-4.67-.87-28.49c-.2-2.58-2.4-4.54-4.98-4.43l-31.68.85c-2.68.11-4.76,2.4-4.6,5.08l.19,4.67.87,28.49c.2,2.58,2.4,4.54,4.98,4.43l31.68-.85c2.68-.11,4.76-2.4,4.6-5.08Z"/><path class="cls-3" d="M122.82,42.81c.04-.35.27-.65.45-.94.34-.54.55-1.15.56-1.79,0-.6-.2-1.21-.65-1.63-.25-.22-.55-.36-.85-.48-.03-.03-.06-.07-.09-.1-.38-.38-.95-.56-1.34-.88-.17-.14-.29-.3-.35-.49,0,0,0-.02,0-.03-.02-.07-.03-.13-.03-.21-.02-.39.09-.76.16-1.14.12-.76-.04-1.55-.47-2.17-.44-.62-1.09-1.04-1.84-1.17-.37-.06-.74-.06-1.11.02-.42.09-.79.33-1.2.42-.24.05-.6,0-.69-.26-.06-.18,0-.38-.02-.57-.02-.19-.07-.37-.15-.54-.34-.7-1.13-1.06-1.88-1.05-.41,0-.82.09-1.2.22-.35.12-.69.26-1.04.36-.32.09-.66.14-.98,0-.32-.14-.53-.45-.77-.69-.32-.32-.72-.53-1.15-.63-.5-.42-1.13-.67-1.77-.69-.76-.02-1.49.25-2.04.77-.27.26-.49.56-.65.9-.18.39-.21.83-.39,1.22-.1.22-.36.48-.62.39-.18-.06-.31-.23-.47-.33-.16-.1-.33-.17-.52-.2-.77-.15-1.52.27-1.97.87-.24.33-.42.7-.55,1.09-.12.35-.2.71-.34,1.05-.12.31-.28.61-.59.78-.3.17-.68.15-1.02.2-.65.09-1.23.45-1.6.99-.16.23-.29.49-.37.76-.07.18-.12.37-.16.54-.07.25-.13.51-.3.71-.17.2-.41.34-.65.44-.55.24-1.16.39-1.6.81-.45.43-.63,1.05-.61,1.65.02.64.25,1.25.61,1.78.19.28.43.58.48.92.05.34-.2.6-.39.87-.35.51-.44,1.16-.31,1.75.13.6.5,1.13,1.04,1.44.28.16.61.28.81.54.2.26.23.58.23.89,0,.35-.06.69-.08,1.03-.03.38,0,.77.09,1.15.17.69.68,1.32,1.4,1.47.18.04.35.04.53,0,.18-.03.35-.13.53-.12.26.02.39.34.4.57.02.4-.12.79-.1,1.2.01.35.1.69.24,1.02.29.65.83,1.15,1.49,1.4.67.25,1.43.21,2.09-.08.33-.15.65-.34,1.01-.41.29-.06.53.02.75.19.39.28.68.76,1.12,1.01.23.13.48.18.74.13.11-.02.17-.16.15-.26-.03-.11-.13-.16-.24-.15-.07-.51,3.02-3.34,2.9-3.98-.16-.8-4.39-3.62-4.39-3.62-.18.79.71-3.07.78-3.2.07-.13-1.15-4.28-2.15-5.11.41-.78,9.7,2.7,9.76,2.86.15.42.65,1.55.72,1.68.07.13,1.08,3.96.87,3.18,0,0-.83,4.34-.96,5.15-.11.64-.25,1.98-.31,2.49-.1,0-.2.05-.23.16-.03.1.04.24.15.26.26.04.51,0,.73-.15.43-.27.71-.75,1.09-1.05.22-.17.46-.26.75-.21.36.06.68.25,1.02.38.67.27,1.43.29,2.09.01.66-.27,1.18-.79,1.45-1.45.13-.33.21-.67.21-1.02,0-.4-.14-.79-.14-1.19,0-.23.12-.55.38-.58.18-.02.35.08.53.1.18.02.35.02.53-.02.72-.17,1.21-.82,1.36-1.51.08-.38.09-.77.05-1.15-.03-.34-.1-.68-.11-1.03-.01-.31,0-.63.2-.9.19-.26.53-.39.8-.56.52-.33.88-.86.99-1.47.11-.6.01-1.25-.36-1.74-.19-.26-.45-.51-.41-.86Z"/><g id="Body"><path class="cls-2" d="M112.89,68.34c4.69-.19,9.38-.62,14-1.51.02-.02.06-.04.1-.05.26-.06.51-.15.75-.25-.06-.04-.11-.09-.17-.13-.89-.68-1.73-1.43-2.62-2.1-.95-.72-2.01-1.3-3.07-1.85-2.19-1.12-4.49-2.02-6.77-2.93-.29-.12-.59-.23-.88-.35-.11-.04-.23.05-.26.15-.03.12.05.22.15.26.35.14.7.28,1.05.42-.95,1.36-2.51,2.18-4.11,2.5-1.96.39-4.02.06-5.92-.47-.79-.22-1.65-.52-2.13-1.2.39-.15.78-.3,1.18-.44.11-.04.18-.15.15-.26-.03-.11-.16-.18-.26-.15-1.43.51-2.83,1.11-4.21,1.74-1.47.68-2.92,1.41-4.33,2.2-.71.4-1.41.81-2.09,1.26-.05.03-.08.08-.09.12-.65.65-1.06,1.48-1.39,2.33-.11.28-.22.57-.32.86,2.35-.03,4.7-.02,7.05,0,4.73.02,9.47.06,14.2-.13Z"/><path class="cls-1" d="M116.69,64.59s0-.02-.01-.02c0,.03.02.04.01.02Z"/><path class="cls-1" d="M98.96,62.35c.04-.1.09-.19.14-.29-.18.09-.36.18-.53.26.09.11.17.22.25.33.05-.11.09-.21.14-.31h0Z"/><path class="cls-1" d="M103.66,60.53l.21-.11v-.35c-.17.06-.35.11-.52.18.11.09.21.18.31.28h0Z"/><path class="cls-1" d="M95.7,68.46c.05-.13.11-.27.17-.4.26-.57.6-1.11,1.01-1.59-.79-.21-1.55-.5-2.21-1.02-.22-.18-.43-.39-.62-.63-.39.24-.65.42-.7.48-.33.37-.82.95-1.5,2.56-.07.18-.15.38-.23.61,1.36-.01,2.72-.02,4.09-.02Z"/><path class="cls-1" d="M95.61,64.48h0c.79.59,1.84.76,2.79.94.48.09.7.8.32,1.13-.63.54-1.16,1.18-1.54,1.92.5,0,1.01,0,1.51,0,.23,0,.45,0,.68,0,.1-.41.15-.83.11-1.25-.06-.67.94-.94,1.26-.36.35.64.81,1.19,1.38,1.62.82,0,1.63,0,2.45,0,.04-.58-.4-1.11-.83-1.49-.58-.51-1.25-.93-1.95-1.28-.31-.08-.61-.23-.87-.45-.26-.22-.25-.63-.07-.89.21-.29.56-.32.87-.19.2.09.4.18.6.28.44,0,.89-.36,1.04-.77.28-.76-.08-1.56-.6-2.12-.25-.26-.5-.6-.88-.44-.37.16-.71.45-.98.74-.28.29-.51.63-.69.99-.06.13-.2.4-.27.62.01.02.03.03.04.05.39.69-.34,1.34-.92,1.14-.29.09-.67,0-.8-.29-.23-.53-.54-1.02-.92-1.44-.78.41-1.5.81-2.11,1.15.12.13.25.25.38.35Z"/><path class="cls-1" d="M96.98,68.9s-.01.03-.02.04c-.27.69-.61,1.95.23,2.41.66.36,1.2-.56,1.45-1.05.23-.43.44-.9.6-1.39-.75,0-1.51,0-2.26,0Z"/><path class="cls-1" d="M102.81,68.92c.54.29,1.31.6,1.63,0-.54,0-1.09,0-1.63,0Z"/><path class="cls-1" d="M121.59,64.9c.13.25.28.49.44.72.06.08.11.17.19.23,0,0,.01,0,.01.01.39-.16.22-1.05.2-1.35-.04-.61-.11-1.21-.22-1.81,0-.02,0-.03,0-.05-.5-.25-1.03-.51-1.56-.76.06.51.16,1.01.31,1.5.16.52.37,1.02.63,1.5h0Z"/><path class="cls-1" d="M116.65,64.49s0,.02.01.03c.05-.05.15-.12.18-.15.11-.1.22-.21.32-.32.35-.37.67-.77.95-1.21.35-.54.63-1.12.85-1.72-.43-.19-.84-.37-1.23-.54-.32.41-.58.87-.77,1.35-.3.73-.61,1.79-.3,2.56h0Z"/><path class="cls-4" d="M99.06,64.73c.58.2,1.31-.45.92-1.14-.01-.02-.02-.04-.04-.05.07-.23.21-.5.27-.62.18-.37.41-.7.69-.99.27-.29.61-.58.98-.74.38-.16.64.18.88.44.52.55.88,1.36.6,2.12-.15.41-.6.78-1.04.77-.2-.1-.4-.19-.6-.28-.31-.14-.66-.1-.87.19-.18.25-.2.67.07.89.26.21.56.36.87.45.7.35,1.37.77,1.95,1.28.42.37.85.89.83,1.46.45,0,.9,0,1.35,0,.03-.89-.48-1.71-1.11-2.32-.31-.29-.65-.56-1-.81.11-.08.21-.18.31-.29.78-.88.86-2.1.44-3.15-1.17-.5-1.51-1.06-1.51-1.06l.58-.3c-.1-.1-.2-.19-.31-.28-1.3.46-2.79,1.13-4.21,1.82-.05.1-.1.19-.14.29-.04.09-.09.2-.14.31-.08-.11-.16-.22-.25-.33-.42.21-.84.43-1.24.64.39.42.69.91.92,1.44.13.29.51.38.8.29Z"/><path class="cls-4" d="M102.08,68.49c-.56-.43-1.01-.97-1.34-1.59-.31-.57-1.31-.31-1.26.36.03.41-.01.82-.11,1.22.9,0,1.8,0,2.71.01Z"/><path class="cls-4" d="M94.67,65.48h0c.65.52,1.42.82,2.21,1.02-.4.48-.75,1.02-1.01,1.59-.05.12-.11.24-.16.36.49,0,.98,0,1.47,0,.37-.72.9-1.36,1.52-1.89.38-.32.16-1.04-.31-1.13-.95-.18-1.99-.34-2.79-.94-.13-.1-.26-.22-.38-.35-.47.27-.87.5-1.18.7.18.24.39.45.62.63Z"/><path class="cls-4" d="M116.46,60.05c-.77,1.11-1.23,2.42-1.27,3.81-.03.92.49,2.22,1.62,2.06.56-.08.99-.57,1.36-.97.38-.4.72-.84,1.02-1.3.1-.15.2-.31.3-.47.27,1.17.75,2.28,1.44,3.24.33.45.77.83,1.36.8.56-.03,1.08-.42,1.31-.93.26-.57.23-1.18.19-1.79-.02-.35-.06-.7-.1-1.05-.44-.25-.94-.52-1.48-.79,0,.01,0,.03,0,.05.11.6.18,1.21.22,1.81.02.3.19,1.19-.2,1.35,0,0,0,0-.01-.01-.08-.06-.14-.15-.19-.23-.16-.23-.31-.47-.44-.72-.26-.48-.47-.98-.63-1.5-.15-.49-.25-1-.31-1.5-.57-.27-1.14-.53-1.69-.77-.22.6-.5,1.17-.85,1.72-.28.43-.59.83-.95,1.21-.1.11-.21.22-.32.32-.03.03-.13.1-.18.15,0-.01,0-.02-.01-.03-.31-.77,0-1.83.3-2.56.19-.48.46-.93.77-1.35-1.39-.6-2.42-1.02-2.42-1.02l-.19.34c-.06.1-.13.21-.22.32.48-.02.96-.09,1.43-.16.04,0,.09-.01.13-.02h0Z"/><path class="cls-4" d="M116.69,64.59s0,0-.01-.02c0,0,.01,0,.01.02Z"/></g><path class="cls-3" d="M99.67,49.4c-.14-.12-.25-.28-.34-.44-.11-.19-.22-.38-.32-.58-.18-.36-.39-.78-.34-1.18.03-.28.21-.51.43-.66.14-.1.27-.15.44-.18.14-.03.3-.02.46.03.11.03.23-.04.26-.15.03-.12-.04-.23-.15-.26h0c-.74-.22-1.64.25-1.84,1.01-.13.5.07,1.01.29,1.46.11.23.23.46.36.68.12.2.24.4.41.56"/><path class="cls-11" d="M118.04,60.82c-.11-.09-.81.78-2.23,1.77-.35.25-.76.49-1.2.74-.45.23-.94.47-1.47.66-1.06.4-2.29.67-3.59.72-1.3.04-2.54-.16-3.63-.49-.54-.16-1.04-.36-1.51-.56-.46-.21-.88-.43-1.25-.66-1.49-.89-2.24-1.71-2.34-1.61-.04.04.09.28.42.68.32.39.85.91,1.59,1.45.37.27.8.53,1.27.79.48.24,1,.49,1.58.68,1.15.4,2.49.63,3.9.59,1.41-.05,2.73-.38,3.85-.85.56-.23,1.07-.51,1.53-.78.46-.29.87-.58,1.21-.87.7-.59,1.19-1.14,1.49-1.55.3-.41.42-.67.37-.7Z"/><path class="cls-17" d="M116.45,44.57c-.84-.5-1.21-.24-1.21-.24,0,0-.35.56-.64.8-.02-.15.41-7.47-4.77-8.38-2-.35-4.25-.05-6.07.99-.61.35-1.12.81-1.53,1.34l-.35.11s.08.04.19.11c-.46.66-.79,1.43-1.01,2.22,0,1.7-.07,3.41.31,5.07-.09.16-.22.38-.22.38,0,0-.38-.31-.63-.39-.24-.08-.47-.42-.47-.42,0,0-.8-.09-1.18.32-.39.41-.5,1.07-.21,1.66.29.59.85,1.07,1.19,1.37.78.68,1.56.37,1.56.37,0,0,.78,2.39,1.38,3.23.48.67,1.65,1.45,1.65,1.45,0,0,0,4.83.24,4.83.25,0,4.27.09,4.7.03.43-.05,2.96-.46,2.96-.46,0,0-.12-1.32-.15-1.54-.02-.22-.22-3.15-.22-3.15,0,0,3.01-.78,2.98-5.78-.04-.03.02-.42.02-.44,0-.06,0-.15-.01-.25v-.05s1.03.54,1.51-.73c.48-1.27.81-1.98-.03-2.49Z"/><path class="cls-3" d="M115.05,52.44c-.09-.07-.92,1.28-4.46,2.4-4.09.56-5.17-.53-5.16,0,0,.1.54.41,1.48.52.47.05,1.04.1,1.68.1.64,0,1.34-.04,2.08-.18.74-.14,1.42-.36,2.01-.64.3-.14.56-.29.81-.45.12-.08.24-.16.34-.24.05-.04.1-.08.16-.12.03-.02.05-.04.07-.06.02-.02.05-.04.07-.06.37-.33.62-.64.77-.87.04-.06.07-.11.09-.16.02-.05.04-.09.05-.12.03-.07.03-.11,0-.13Z"/><g id="Face"><path class="cls-14" d="M107.03,51.32c.57.39,1.38.3,1.88-.17.08-.08.08-.22,0-.3-.09-.08-.22-.07-.3,0-.17.16-.42.26-.65.28-.26.02-.49-.04-.71-.19-.1-.06-.24-.01-.29.08-.06.11-.02.23.08.29h0Z"/><path class="cls-3" d="M105.94,46.81c-.43.34-.41,1.03.05,1.33.25.15.52.17.79.06.1-.04.21-.1.32-.09s.21.09.3.14c.23.14.47.21.74.19.24-.02.47-.11.66-.26.1-.08.17-.18.25-.28.01-.02.03-.04.04-.04-.02.01.01,0,.02,0,.02,0,.1,0,.14.01.13.02.25.04.38.02.15-.03.27-.12.36-.24.21-.28.15-.64.03-.94-.06-.15-.15-.29-.29-.37-.16-.09-.34-.08-.49.03-.09.07-.1.22-.03.3.08.09.21.09.3.03-.03.02,0,0,.02.02,0,0,.03.03.05.05.05.08.08.19.1.28.02.09.03.2,0,.26-.02.07-.06.13-.12.16-.02.01-.05.01-.07.01-.05,0-.1,0-.14-.02-.11-.02-.21-.03-.32-.02-.12.02-.22.08-.3.17-.07.08-.11.16-.18.22-.12.11-.26.17-.43.19-.06,0-.15,0-.23-.01-.05-.01-.16-.06-.23-.1-.21-.12-.41-.25-.67-.22-.11.01-.22.06-.32.1-.04.01-.07.03-.11.04-.05.01-.09.02-.12.02-.16,0-.32-.1-.38-.27-.04-.15.02-.33.15-.43.22-.17-.06-.5-.27-.33h0Z"/></g><g id="Open_eyes"><path class="cls-3" d="M104.57,44.17c.13.01.26-.09.27-.23s-.09-.26-.23-.27-.26.09-.27.23.09.26.23.27h0Z"/><path class="cls-3" d="M104.59,44.41s-.03,0-.04,0h0c-.27-.02-.47-.26-.44-.53.02-.27.26-.46.53-.44.27.02.47.26.44.53-.02.25-.24.44-.49.44ZM104.59,43.91s-.01,0-.01.01c0,0,0,.01.01.01,0,0,.01,0,.01-.01,0,0,0-.01-.01-.01h0Z"/><path class="cls-3" d="M110.49,43.36v.03s0,.06,0,.08c0,.03.02.05.04.07.02.02.04.04.06.05.02.02.05.02.08.03h.06s.07-.03.1-.05l.04-.04s.04-.07.04-.1v-.03s0-.06,0-.08c0-.03-.02-.05-.04-.07-.02-.02-.04-.04-.06-.05-.02-.02-.05-.02-.08-.03h-.06s-.07.03-.1.05l-.04.04s-.04.07-.04.1h0Z"/><path class="cls-3" d="M110.68,43.87h-.01c-.06,0-.12-.02-.18-.05-.06-.03-.1-.06-.14-.11-.03-.04-.06-.09-.08-.15-.02-.06-.03-.13-.02-.19v-.02s0,0,0,0h0c0-.08.03-.15.08-.22l.08-.09c.06-.05.13-.08.21-.1h.1s.01,0,.01,0c.06,0,.12.02.18.05.06.03.1.06.14.11.03.04.06.09.08.15.02.06.03.13.02.19v.02c0,.08-.04.15-.08.22l-.08.09c-.06.05-.13.08-.21.1h-.1Z"/></g><path class="cls-18" d="M113.74,59.36l-.06-.44s.02,0,.03,0c.11-.02.18-.16.15-.27-.03-.12-.15-.17-.27-.15-1.27.26-2.55.47-3.84.59-1.25.11-2.52.15-3.77.11-.75-.02-1.5-.07-2.24-.14-.12-.01-.21.11-.21.22,0,.13.1.2.22.21h0s0,0,0,0l.04.7-1.38.53h0c.13.24.71.87,1.47,1.27.76.4,2.37.7,3.06.74s2.06.2,2.84.14,2.02-.34,3.23-.91c1.2-.57,2.24-2.07,2.24-2.07l-1.49-.52Z"/><path class="cls-3" d="M104.4,54.76c-.02-.13-.05-.26-.07-.39-.14-.03-.28-.08-.41-.14.11.63.22,1.26.32,1.89.14.9.27,1.81.35,2.72.04.42.07.84.08,1.26,0,.25.39.24.39,0-.02-.81-.11-1.62-.21-2.43-.12-.98-.28-1.95-.44-2.92Z"/><path class="cls-3" d="M112.47,57.48c-.12-.98-.28-1.95-.44-2.92-.01-.06-.02-.12-.03-.18-.13.02-.22.25-.34.27.09.49.13.78.21,1.27.14.9.27,1.81.35,2.72.04.42.07.84.08,1.26,0,.25.39.24.39,0-.02-.81-.11-1.62-.21-2.43Z"/><path class="cls-3" d="M122.05,25.82c3.07-.26,5.13-.85,5.08,3.21,0,.57-.01,1.22.08,1.62.07.47.94.64,1.22.23.79-4.88-.35-7.22-4.39-7.41-.44,0-.9,0-1.3,0-.32.02-.66.04-1.01.08-1.38.27-1.06,2.38.33,2.26Z"/><path class="cls-3" d="M121.72,23.56c.22-.02.43-.05.65-.07-.27.02-.5.04-.65.07,0,0,0,0,0,0,0,0,0,0,0,0Z"/><path class="cls-3" d="M88.5,61.77s-.01-.01-.02-.02c0,0,.01.01.02.02Z"/><path class="cls-3" d="M86.46,62.89s0,0,0,.01c-.03.57.06,1.2.05,1.67.14,1.67.7,3.48,2.31,4.19,1,.44,2.19.33,3.28.34.8-.1,2.2.23,2.13-.89-.06-.36-.32-.61-.83-.63-1.18-.1-2.38.14-3.57-.28-2.6-1.03.66-6.06-2.45-5.83,0,0,0,0,0,0,0,0,0,0,0,0-.68.2-.87.77-.91,1.42Z"/><path class="cls-3" d="M88.24,61.58c-.26-.13-.57-.17-.87-.11.37-.04.66,0,.87.11Z"/><path class="cls-3" d="M88.54,61.81c.07.07.12.16.17.25-.04-.09-.1-.18-.17-.25Z"/><path class="cls-3" d="M87.37,61.47c-.3.06-.51.22-.65.44.14-.2.35-.36.65-.44Z"/><path class="cls-3" d="M128.04,67.62c1.18-1.3.95-3.13.89-4.77-.04-.46,0-.99-.33-1.3-.23-.25-.7-.28-.92-.05-.32.3-.22.86-.24,1.29-.04,1.19.21,2.59-.74,3.58-1.08.82-2.36.44-3.56.41-.56-.02-1.22-.07-1.59.43-.35.41-.38,1.07-.03,1.5,0,0,0,0,0,.01.02.03.05.05.07.08.48.38,1.12.27,1.69.3,1.66-.07,3.62-.07,4.74-1.47Z"/><path class="cls-3" d="M121.6,68.79s0,0,0,0c0,0,0,0,0,0,.06.06.14.11.24.15-.08-.04-.16-.09-.24-.15Z"/><path class="cls-3" d="M89.12,24c-.24.01-.45.03-.58.05.19-.02.39-.03.58-.05Z"/><path class="cls-3" d="M85.15,29.24c.11.82-.09,2.38.98,2.52,1.15-.03.62-1.42.66-2.24-.01-.92-.09-2.05.59-2.85,1.2-1.25,3.21-.48,4.53-.59.53.03.93-.35.99-.89.08-.52-.28-1.08-.86-1.13-1.15-.13-2.33-.1-3.49-.01h0c-.42.05-.8.15-1.13.29-1.74.79-2.42,3-2.26,4.89Z"/><circle class="cls-15" cx="78.63" cy="27.45" r="11.61" transform="translate(43.78 103.1) rotate(-84.51)"/><path class="cls-11" d="M85.38,22.43l-.87-.78c-.26-.24-.67-.22-.91.05l-7.44,8.28-3.02-2.71c-.26-.24-.67-.22-.91.05l-.78.87c-.24.26-.22.67.05.91l3.43,3.08s.04.05.06.07h0c.75.67,1.9.61,2.57-.14l7.88-8.77c.24-.26.22-.67-.05-.91Z"/><path class="cls-8" d="M114.69,104.12c1.79-.03,1.74-2.78-.05-2.74-1.79.03-1.74,2.78.05,2.74h0Z"/><path class="cls-8" d="M109.41,104.35c1.79-.03,1.74-2.78-.05-2.74s-1.74,2.78.05,2.74h0Z"/><path class="cls-3" d="M103.82,104.63c1.79-.03,1.74-2.78-.05-2.74-1.79.03-1.74,2.78.05,2.74h0Z"/></g></svg>