<svg xmlns="http://www.w3.org/2000/svg" viewBox="0 0 200 174.84"><defs><clipPath id="clippath"><path d="M94.6 115.84c-.89-1.5-1.96-2.9-3.17-4.15-.38-3.19-.81-6.37-1.38-9.53-.55-3.05-1.25-6.08-2.08-9.07-.51-1.83-1.08-3.65-1.67-5.46a.555.555 0 0 0-.29-.34c.89-1.62 1.79-3.23 2.68-4.85.12-.23.09-.44-.03-.6 0-.15-.05-.29-.17-.38-2.63-2.12-5.34-4.14-8.05-6.16l-8.14-6.07-4.59-3.42c-.03-.02-.06-.04-.1-.05a.595.595 0 0 0-.91.13c-.83 1.41-1.75 2.78-2.75 4.08-1.91-1.1-4.16-1.64-6.37-1.68-3.83-.07-7.48 1.39-10.7 3.37-1.73 1.06-3.35 2.28-4.95 3.53-1.68 1.31-3.33 2.66-4.95 4.03-3.25 2.75-6.4 5.61-9.45 8.57-3.05 2.97-5.99 6.05-8.82 9.22-.32.36-.64.72-.96 1.09-.61-.28-1.21-.56-1.82-.84a.715.715 0 0 0-.43-.05c-.2-.1-.44-.09-.63.12a55.986 55.986 0 0 0-9.3 12.8c-.23.43.12.83.48.88.1.07.22.11.34.12 3.9.46 7.77 1.15 11.59 2.05a104.493 104.493 0 0 1 17.53 5.79c.06.02.11.04.17.05l.75.96s2.74 4.18 3.71 6.22c.97 2.04 11.16 17.45 11.16 17.45s3.9 2.34 4.25 1.8.66-.22 1.51.53.61-.9.79 0 5.92 3.13 5.42 4.8c-.49 1.67.73 2.18-.18 3.16-.35.37-.57.8-.71 1.18-1.47-.25-2.93-.51-4.4-.76-2.35-.41-4.71-.81-7.06-1.22-1.13-.2-2.25-.39-3.38-.59.25-1.62.41-3.96-.59-4.48-1.55-.8 1.29-8.78-.12-10.01-1.41-1.23-25.66-9.42-25.66-9.42l-1.66 5.46c-.1.08-.19.19-.24.32-1.14 2.9-2.18 5.84-3.14 8.8-.34.24-.37.9.16 1.08 2.55.88 5.05 1.91 7.57 2.89 3.1 1.2 6.24 2.3 9.4 3.33 1.88.61 3.79 1.25 5.71 1.7.24.06.49.1.74.14 1.2.22 2.4.43 3.6.64l.52.09c2.04.62 3.41 1.03 3.41 1.03s.04-.16.09-.42l1.69.3c2.29.4 4.58.8 6.88 1.19l5.74.99c.07.13.19.23.34.25 4.09.66 8.17 1.32 12.26 1.99 1.16.19 2.32.38 3.48.56.12.03.23.02.32-.02.01 0 .03 0 .04-.01.02 0 .03-.01.04-.02l.1.02v-.09s.04-.02.05-.03c.24-.02.47-.18.51-.42.68-4.04 1.42-8.08 2.1-12.12a27.42 27.42 0 0 0 2.85 3.24c.06.11.15.19.28.24.22.12.51.09.69-.09.16-.16.2-.39.14-.6.74-4.24 1.77-8.44 2.91-12.59 1.23-4.49 2.61-8.94 4.08-13.36.71-2.14 1.45-4.27 2.21-6.4.11 0 .23-.01.34-.08.27-.16.37-.53.21-.8Z" class="cls-2"/></clipPath><clipPath id="clippath-1"><path d="M67.78-14.43h126.37V88.46H67.78z" class="cls-2"/></clipPath><clipPath id="clippath-2"><path d="M67.78 88.46h126.37v102.89H67.78z" class="cls-2"/></clipPath><clipPath id="clippath-3"><path d="M-58.59-14.43H67.78V88.46H-58.59z" class="cls-2"/></clipPath><style>.cls-2,.cls-3{fill:none}.cls-12,.cls-14,.cls-15,.cls-16,.cls-18,.cls-19,.cls-2,.cls-5,.cls-7,.cls-8{stroke-width:0}.cls-3{stroke:#5c3d5b;stroke-linecap:round;stroke-miterlimit:10}.cls-5{fill:#603b5d}.cls-7{fill:#5c3d5b}.cls-8{fill:#9ab4b4}.cls-12{fill:#badade}.cls-14{fill:#ff8000}.cls-15{fill:#fff}.cls-16{fill:#e9c5ba}.cls-18{fill:#ffd066}.cls-19{fill:#ffcd20}</style></defs><path id="BG_Strong" d="M193.35 85.14c-5.26-32.35-64.22-48.95-70.29-57.75C107.3 4.51 59.33 59.18 19 58.2l-4.85-.12C3.94 58.53.81 101.2 4.57 112.34c-13.02 75.43 181.91 76.27 170.59 5 1.5-.78-.77 5.13.59 2.15.64 1.89.47-3.34.73-3.92-3.63 2.86 17.49-17.06 16.87-30.44Zm-9.51-17.56s-.08 0-.11-.01h.11ZM80.09 32.76c0-.01.01-.02 0 0Zm77.58 20.81c-.11-.05-.56-.15-.14-.1l.14.1ZM80.22 32.46c-.09.17-.17.46-.33.2.08-.06.22-.17.33-.2Zm-2.43 1.92c-.05.12-.09.24-.14.35-.06-.07.1-.3.14-.35Zm-.77.42v.08c-.04 0-.04-.03 0-.08ZM5.15 116.86s.04.05.03.09l-.03-.09Zm1.27.13c.03.12.05.24.08.36-.03-.08-.16-.27-.08-.36Zm.23 1.73c.13-.69.25.46.34.69-.1.09-.21.02-.34-.69Zm3.31 11.69c.02.05.04.11.06.17-.05-.04-.06-.11-.06-.17Z" style="fill:#575655;stroke-width:0"/><g id="Outline"><path d="M94.6 115.84c-.89-1.5-1.96-2.9-3.17-4.15-.38-3.19-.81-6.37-1.38-9.53-.55-3.05-1.25-6.08-2.08-9.07-.51-1.83-1.08-3.65-1.67-5.46a.555.555 0 0 0-.29-.34c.89-1.62 1.79-3.23 2.68-4.85.12-.23.09-.44-.03-.6 0-.15-.05-.29-.17-.38-2.63-2.12-5.34-4.14-8.05-6.16l-8.14-6.07-4.59-3.42c-.03-.02-.06-.04-.1-.05a.595.595 0 0 0-.91.13c-.83 1.41-1.75 2.78-2.75 4.08-1.91-1.1-4.16-1.64-6.37-1.68-3.83-.07-7.48 1.39-10.7 3.37-1.73 1.06-3.35 2.28-4.95 3.53-1.68 1.31-3.33 2.66-4.95 4.03-3.25 2.75-6.4 5.61-9.45 8.57-3.05 2.97-5.99 6.05-8.82 9.22-.32.36-.64.72-.96 1.09-.61-.28-1.21-.56-1.82-.84a.715.715 0 0 0-.43-.05c-.2-.1-.44-.09-.63.12a55.986 55.986 0 0 0-9.3 12.8c-.23.43.12.83.48.88.1.07.22.11.34.12 3.9.46 7.77 1.15 11.59 2.05a104.493 104.493 0 0 1 17.53 5.79c.06.02.11.04.17.05l.75.96s2.74 4.18 3.71 6.22c.97 2.04 11.16 17.45 11.16 17.45s3.9 2.34 4.25 1.8.66-.22 1.51.53.61-.9.79 0 5.92 3.13 5.42 4.8c-.49 1.67.73 2.18-.18 3.16-.35.37-.57.8-.71 1.18-1.47-.25-2.93-.51-4.4-.76-2.35-.41-4.71-.81-7.06-1.22-1.13-.2-2.25-.39-3.38-.59.25-1.62.41-3.96-.59-4.48-1.55-.8 1.29-8.78-.12-10.01-1.41-1.23-25.66-9.42-25.66-9.42l-1.66 5.46c-.1.08-.19.19-.24.32-1.14 2.9-2.18 5.84-3.14 8.8-.34.24-.37.9.16 1.08 2.55.88 5.05 1.91 7.57 2.89 3.1 1.2 6.24 2.3 9.4 3.33 1.88.61 3.79 1.25 5.71 1.7.24.06.49.1.74.14 1.2.22 2.4.43 3.6.64l.52.09c2.04.62 3.41 1.03 3.41 1.03s.04-.16.09-.42l1.69.3c2.29.4 4.58.8 6.88 1.19l5.74.99c.07.13.19.23.34.25 4.09.66 8.17 1.32 12.26 1.99 1.16.19 2.32.38 3.48.56.12.03.23.02.32-.02.01 0 .03 0 .04-.01.02 0 .03-.01.04-.02l.1.02v-.09s.04-.02.05-.03c.24-.02.47-.18.51-.42.68-4.04 1.42-8.08 2.1-12.12a27.42 27.42 0 0 0 2.85 3.24c.06.11.15.19.28.24.22.12.51.09.69-.09.16-.16.2-.39.14-.6.74-4.24 1.77-8.44 2.91-12.59 1.23-4.49 2.61-8.94 4.08-13.36.71-2.14 1.45-4.27 2.21-6.4.11 0 .23-.01.34-.08.27-.16.37-.53.21-.8Z" style="fill:#f6c243;stroke-width:0"/><g style="clip-path:url(#clippath)"><g style="clip-path:url(#clippath-1)"><circle cx="193.51" cy="48.51" r="11.5" class="cls-19"/><circle cx="174.06" cy="76.96" r="11.5" class="cls-19"/><circle cx="130.32" cy="74.24" r="11.5" class="cls-19"/><circle cx="67.14" cy="48.51" r="11.5" class="cls-19"/><circle cx="87.87" cy="76.96" r="11.5" class="cls-18"/><circle cx="193.51" cy="-2.93" r="11.5" class="cls-19"/><circle cx="174.06" cy="25.51" r="11.5" class="cls-19"/><circle cx="130.32" cy="22.79" r="11.5" class="cls-19"/><circle cx="110.88" cy="51.23" r="11.5" class="cls-19"/><circle cx="151.06" cy="51.23" r="11.5" class="cls-19"/><circle cx="67.14" cy="-2.93" r="11.5" class="cls-19"/><circle cx="87.87" cy="25.51" r="11.5" class="cls-19"/><circle cx="110.88" cy="-.21" r="11.5" class="cls-19"/><circle cx="151.06" cy="-.21" r="11.5" class="cls-19"/></g><g style="clip-path:url(#clippath-2)"><circle cx="193.51" cy="151.4" r="11.5" class="cls-19"/><circle cx="174.06" cy="179.84" r="11.5" class="cls-19"/><circle cx="130.32" cy="177.12" r="11.5" class="cls-19"/><circle cx="67.14" cy="151.4" r="11.5" class="cls-18"/><circle cx="87.87" cy="179.84" r="11.5" class="cls-19"/><circle cx="193.51" cy="99.96" r="11.5" class="cls-19"/><circle cx="174.06" cy="128.4" r="11.5" class="cls-19"/><circle cx="130.32" cy="125.68" r="11.5" class="cls-19"/><circle cx="110.88" cy="154.12" r="11.5" class="cls-19"/><circle cx="151.06" cy="154.12" r="11.5" class="cls-19"/><circle cx="67.14" cy="99.96" r="11.5" class="cls-18"/><circle cx="87.87" cy="128.4" r="11.5" class="cls-18"/><circle cx="110.88" cy="102.68" r="11.5" class="cls-19"/><circle cx="151.06" cy="102.68" r="11.5" class="cls-19"/></g><g style="clip-path:url(#clippath-3)"><circle cx="67.14" cy="48.51" r="11.5" class="cls-19"/><circle cx="47.69" cy="76.96" r="11.5" class="cls-18"/><circle cx="3.95" cy="74.24" r="11.5" class="cls-19"/><circle cx="67.14" cy="-2.93" r="11.5" class="cls-19"/><circle cx="47.69" cy="25.51" r="11.5" class="cls-19"/><circle cx="3.95" cy="22.79" r="11.5" class="cls-19"/><circle cx="24.69" cy="51.23" r="11.5" class="cls-19"/><circle cx="24.69" cy="-.21" r="11.5" class="cls-19"/></g><circle cx="67.14" cy="151.4" r="11.5" class="cls-18"/><circle cx="47.69" cy="179.84" r="11.5" class="cls-19"/><circle cx="3.95" cy="177.12" r="11.5" class="cls-19"/><circle cx="67.14" cy="99.96" r="11.5" class="cls-18"/><circle cx="47.69" cy="128.4" r="11.5" class="cls-18"/><circle cx="3.95" cy="125.68" r="11.5" class="cls-19"/><circle cx="24.69" cy="154.12" r="11.5" class="cls-18"/><circle cx="24.69" cy="102.68" r="11.5" class="cls-18"/></g><path d="m72.72 57.07 3.4-.66s.5-1.95 1.68-2.47 2.85-.03 3.25 0 3.25-1.32 3.25-1.32 4.69-2.9 6.27-3.68 9.77-4.98 9.77-4.98l1.31 7.89 4.2 7.84-3.98 2.02s-.63 5.74-1.15 7.03-1.86 4.13-2.83 4.79-1.64 1.04-2.35 1.06-7.3-.5-7.3-.5l-3.07 5.5-11.53-8.63-4.04-2.78s1.92-4.35 2.34-6.14.79-4.97.79-4.97ZM137.06 93.27s3.84 2.61 3.28 4.6c-.24.84-7.02-3.67-6.73-2.84 1.85 5.34.4 6.12-.27 5.94-1.63-.45-1.89-3.98-2.49-2.99s-3.41 4.68-3.62 5.84c-.23 1.27-3.23 1.82-3.23 1.82s-9.02 15.22-10.49 17.17-13.73 19.04-14.94 20.3-4.35 4.49-4.35 4.49-.12 2.24-.59 2.2-1.16.18-1.64-.24-.81-.87-.81-.87-3.25-.63-4.03-1.38-1.89-1.45-1.89-1.45 1.12-6.28 1.86-9.27c.74-2.99 3.51-11.69 3.51-11.69l-.41-1.58c.24-.28 3.42-3.57 5.89-5.68s9.84-8.02 11.5-9.24 8.69-6.02 8.69-6.02 2.75-6.76 3.38-8.95c1.77-6.19 4.35-5.96 5.06-7.49s13.2-5.76 13.2-5.76l.87 1.96-1.19 1.36-2.14 1.13-.15.74 6.56 2.67 1.25 1.97-.94 1.26-4.61-.7-1.03-.22.48 2.92" class="cls-16"/><path d="M194.15 119.16c-.05-1.41-.14-2.83-.34-4.23-.14-.97-.27-1.97-.57-2.9-.08-.23-.3-.29-.48-.24-.42-.98-1.24-1.33-1.84-1.69-.67-.4-1.07-1.07-2.22-.76-1.15.3-1.97 1.03-2.98 2.53s-3.56 6.51-4.44 8.11-6.3 11.38-7.57 13.69c-1.26 2.3-6.09 10.38-7.4 12.57-1.31 2.18-5.39 8.4-6.49 9.65-1.1 1.26-4.34 3.98-5.61 4.6-.76.37-2 .55-2.87.64-.93-.29-1.87-.58-2.8-.88-.46-.15-.65.57-.2.72 1.06.34 2.12.67 3.18 1 1.38.43 2.77.87 4.21 1.05 2.54.32 5.09-.51 6.96-2.27 1.02-.96 1.83-2.14 2.57-3.32 3.32-5.4 6.7-10.76 10.15-16.08.94-1.45 1.88-2.89 2.83-4.34 1.26.31 2.52.62 3.79.92 1.33.32 2.7.59 4.07.4 2.19-.31 4.06-1.79 5.26-3.6 1.41-2.11 1.97-4.67 2.33-7.15.4-2.78.57-5.6.47-8.41Z" class="cls-14"/><path d="M193.32 112c-.19-1.07-.45-2.15-.99-3.11-.56-.98-1.39-1.73-2.31-2.37-2.11-1.48-4.67-2.05-7.16-2.49-2.94-.53-5.88-1.03-8.81-1.55l-8.87-1.56-4.46-.78c-1.38-.24-2.8-.49-4.21-.35-2.37.23-4.25 1.64-5.71 3.44-1.63 2.02-2.9 4.35-4.25 6.56-3.16 5.15-6.31 10.3-9.47 15.44-3.14 5.11-6.27 10.22-9.41 15.34-.39.64-.79 1.29-1.18 1.93-.95 1.63-1.46 3.55-1.2 5.43.13.89.44 1.76.95 2.5.59.85 1.4 1.47 2.28 2 3.87 2.35 8.05 4.2 12.26 5.84 2.4.93 4.84 1.78 7.29 2.59.02 0 .04.01.06.01.04.03.08.05.13.07 1.85.57 3.83.67 5.69.04 1.82-.62 3.4-1.84 4.73-3.21 1.39-1.43 2.51-3.08 3.63-4.72 1.23-1.81 2.43-3.64 3.61-5.48 2.32-3.66 4.54-7.4 6.68-11.17 2.06-3.61 4.04-7.26 6.05-10.9 1.71-3.09 3.42-6.18 5.12-9.27.27-.48.53-.97.8-1.45.53-.98 1.03-1.97 1.6-2.93.48-.82 1.05-1.67 1.94-2.09 1.01-.48 2.02.04 2.87.59.73.48 1.38 1 1.64 1.87.04.24.24.3.42.25.2-.04.37-.2.29-.45Z" style="fill:#78577a;stroke-width:0"/><path d="M145.11 153.76c-1.63-.6-6.69-2.56-8.31-3.28s-3.62-1.5-4.6-2.29-2.18-.88-1.49-2.56 2.57-5.29 3.34-6.73 3.75-6.99 5.08-9.33 4.76-8.23 5.97-10.17 5.2-8.02 6.3-9.54 2.93-4.31 3.67-4.77 1.67-.66 2.86-.55 7.31 1.04 9.23 1.46 6.82 1.53 8.24 1.94 3.42 1.11 4.12 1.65 1.8 1.16 1.38 2.26-3.91 7.85-4.47 8.87-7.37 13.02-8.23 14.48-6.5 10.52-7.48 12.03-3.87 5.84-4.46 6.53-2.06 1.95-2.93 2.03-3.37-.36-4.61-.78-3.63-1.25-3.63-1.25Z" style="fill:#e2ddd7;stroke-width:0"/><path d="M140.45 148.23c-1.33-.33-3.53-1.73-4.47-2.13s-1.53-.93-1.33-2 1.53-3 2-4.2 8.13-14.2 9.2-16.13 5.03-7.91 6.01-9.19 1.59-2.34 2.65-2.61 6.2.67 7.33.8 7.07 1.73 8.13 2 2.67 1.13 3.2 1.47.73 1.13.2 2.33-6.13 11.6-6.67 12.73-5.99 9.83-7.03 11.38-3.41 5.35-4.03 6.18-1.68 2.5-3.01 2.97-2.67.27-3.87-.4c-1.2-.67-6.6-2.47-7.27-2.67s-1.07-.53-1.07-.53Z" style="fill:#f2f2f2;stroke-width:0"/><path d="M151.29 116.05s1.5-1.95 1.95-2.6.98-1.3 2.41-1.15 5.44.75 8.14 1.3 6.24 1.35 8.05 2.25 1.75 1.4 1.25 2.5-1.35 2.6-1.35 2.6l-20.45-4.9Z" class="cls-14"/><path d="M174.01 116.62c-.36-.69-1.15-1.15-1.82-1.49-1.53-.76-3.25-1.08-4.89-1.48-3.65-.88-7.33-1.7-11.07-2.07-.84-.08-1.79-.24-2.54.26-.62.41-1.05 1.09-1.5 1.68-.99 1.3-1.94 2.64-2.87 3.99-1.94 2.83-3.76 5.73-5.52 8.68-1.77 2.98-3.47 6-5.12 9.04-.82 1.5-1.62 3.01-2.42 4.53-.37.7-.74 1.41-1.1 2.11-.37.72-.88 1.48-.96 2.3-.13 1.32 1.14 2.09 2.15 2.64.88.48 1.81.89 2.73 1.28 2.38 1.03 4.81 1.98 7.26 2.85.49.17.98.34 1.47.5 1.59.49 3.22 1.31 4.92.78.81-.25 1.45-.79 1.98-1.44.57-.7 1.07-1.45 1.58-2.18 2.11-3.06 4.05-6.25 6.03-9.4 1.02-1.62 1.98-3.29 2.92-4.96 3.01-5.02 5.89-10.16 8.48-15.41.34-.7.68-1.46.28-2.21Zm-.81 1.6c-.14.29-.28.57-.42.85-.29.58-.59 1.16-.89 1.74-.66 1.28-1.34 2.55-2.03 3.82-1.4 2.58-2.84 5.14-4.33 7.68-.31.52-.61 1.04-.93 1.56-.81 1.44-1.63 2.88-2.5 4.29-.93 1.51-1.9 3.01-2.85 4.51-.95 1.51-1.89 3.01-2.88 4.49-.5.75-1.02 1.5-1.54 2.23-.46.64-.93 1.35-1.61 1.79-1.65 1.07-3.56.06-5.21-.45-2.28-.75-4.53-1.61-6.75-2.52a82.23 82.23 0 0 1-3.18-1.37c-.78-.36-1.55-.74-2.27-1.23-.26-.18-.52-.38-.69-.65-.22-.34-.21-.72-.09-1.1.23-.74.68-1.43 1.04-2.11.74-1.42 1.48-2.83 2.24-4.24 1.55-2.9 3.14-5.79 4.79-8.64 1.68-2.9 3.41-5.76 5.25-8.57.88-1.34 1.78-2.67 2.71-3.98.44-.62.89-1.24 1.35-1.85.45-.61.88-1.29 1.44-1.8.65-.61 1.57-.42 2.38-.34.88.09 1.76.2 2.64.33 1.8.27 3.59.64 5.37 1.03 1.74.39 3.48.8 5.2 1.25.75.19 1.49.41 2.19.74.61.29 1.52.72 1.78 1.4.15.38-.04.79-.2 1.14Z" style="fill:#dad6d2;stroke-width:0"/><path d="M101.98 64.41c-.76-.37-1.57-.7-2.43-.67-1.09.04-2.03.61-2.81 1.33-.29.27-.29.79 0 1.06.31.28.75.28 1.06 0 .34-.32.59-.49 1.04-.73.13-.07-.06.02.02 0 .04-.01.07-.03.11-.04.09-.03.18-.06.27-.08l.13-.03c.11-.02-.01-.01-.04 0 .05-.03.2-.02.26-.02h.23c.02 0 .12 0 .13.01 0 0-.17-.03-.05 0 .16.03.32.07.48.11s.33.09.47.17c-.08-.04-.1-.04 0 0l.12.06c.08.04.16.08.25.12.35.17.83.11 1.03-.27.18-.34.11-.84-.27-1.03Z" style="fill:#987f76;stroke-width:0"/><path d="M101.38 61.4c-.11 1.96-.39 3.9-.95 5.79-.49 1.69-1.14 3.45-2.21 4.87-.46.6-1.02 1.16-1.71 1.49-.91.43-1.91.32-2.88.2-2.19-.28-4.37-.69-6.53-1.18-.94-.22-1.34 1.23-.4 1.45 2.37.55 4.78 1 7.21 1.27 2.08.24 3.87-.34 5.22-1.98 1.27-1.53 2.03-3.46 2.62-5.34.66-2.13.99-4.34 1.12-6.57.05-.96-1.45-.96-1.5 0ZM89.58 125.33c3.43-4.64 8.3-8.36 12.77-11.94s9.4-7.15 14.35-10.37c.81-.52.06-1.82-.76-1.3-5.06 3.29-9.95 6.83-14.65 10.6-4.59 3.68-9.48 7.48-13 12.25-.57.78.73 1.53 1.3.76ZM123.35 105.26c-6.87 11.8-14.01 23.7-22.74 34.24-2.06 2.48-4.23 4.89-6.61 7.06-.72.65.35 1.71 1.06 1.06 4.52-4.11 8.32-8.99 11.91-13.91 4.18-5.74 8.04-11.71 11.75-17.76 2.02-3.29 3.99-6.6 5.93-9.94.49-.84-.81-1.59-1.3-.76Z" class="cls-7"/><path d="M93.49 147.79c.04.1.07.19.09.29.03.13-.01-.21 0 0V148.31c0 .08 0 .05.01-.09-.02.05-.02.1-.03.15 0 .04-.02.07-.03.11-.06.19.06-.11 0 0l-.15.27c-.07.11.13-.15 0 0-.03.04-.07.08-.11.11-.03.03-.06.05-.09.08.1-.08.12-.09.06-.05-.02.01-.04.03-.06.04-.04.03-.09.05-.13.07-.11.06.19-.06 0 0-.05.02-.1.03-.15.04-.13.03.2-.01 0 0h-.2c-.08 0-.05 0 .08.01-.05-.02-.11-.02-.16-.03s-.1-.04-.15-.05c.12.05.14.06.07.03-.02-.01-.05-.02-.07-.04-.05-.02-.09-.05-.14-.08-.06-.04-.17-.16-.01 0-.03-.03-.06-.05-.09-.08-.04-.04-.08-.08-.11-.12-.13-.15.06.1 0 0-.03-.05-.06-.09-.08-.14-.01-.02-.02-.05-.04-.07-.03-.07-.02-.05.03.07 0-.05-.04-.1-.05-.15-.01-.06-.04-.25 0 0-.02-.21-.07-.38-.22-.53a.75.75 0 0 0-.53-.22c-.37.02-.8.33-.75.75.07.55.27 1.05.68 1.45.38.37.86.62 1.39.69s1.04-.02 1.47-.32c.45-.31.77-.73.96-1.24.18-.48.2-1.08 0-1.56-.08-.19-.16-.34-.34-.45a.835.835 0 0 0-.58-.08c-.35.11-.68.53-.52.92Z" class="cls-7"/><path d="M11.33 122.59c-.87-1.9-1.61-4.2-2.39-5.43s-1.74-1.67-1.97-2.11-.7-.98-.21-1.38 1.34-.54 1.73-1.14 1.03-1.56 1.03-1.56 5.92.97 8.93 1.73 10.55 2.68 12.29 3.44 3.52 1.68 3.52 1.68 5.05 6.96 6.57 9.51c1.53 2.55 10.45 16.32 10.45 16.32s4.01-.61 5.97-1.14 4.7.07 6.02.04c1.98-.03 2.56-1.03 2.81.09s-.75 1.92-1.29 2.6-1.84.96-3.15 1.48c-1.01.4 2.4 2.83 2.4 2.83s-2.31 6.56-2.61 7.16-2.08 3.56-2.48 3.53-.17-1.56-.17-1.56-.74 1.94-1.63 2.48-2.15 1.09-3.02.99-2.5-.44-2.86-1.02-.53-.79-.65-1.32 1.12-2.49 1.12-2.49-1.36-.02-2.17-.56-1.68-1.5-1.68-1.5-1.33-1.72-2.04-2.41-2.66-2.84-2.66-2.84-7.26-3.91-10.2-6.35-12.72-9.11-14.77-11.64c-2.04-2.53-6.35-8.22-6.9-9.42Z" class="cls-16"/><path d="M91.38 147.96c-3.13-.54-5.59-2.62-7.74-4.84-.67-.7-1.73.37-1.06 1.06 2.31 2.39 5.03 4.65 8.4 5.23.4.07.81-.11.92-.52.1-.36-.12-.85-.52-.92ZM32.12 117.55c2.41 1.19 3.86 3.48 5.28 5.67 1.49 2.3 2.88 4.66 4.26 7.02 2.71 4.62 5.49 9.18 8.97 13.27.63.74 1.68-.33 1.06-1.06-3.69-4.33-6.54-9.24-9.42-14.13-1.4-2.38-2.81-4.75-4.35-7.03-1.35-2-2.84-3.94-5.04-5.03-.86-.43-1.62.87-.76 1.3ZM55.55 154.74c.78 1 1.49 2.05 2.14 3.14.28.47.46.78.19 1.29-.21.41-.48.77-.82 1.09-1.5 1.44-3.78 1.45-5.4.21-.32-.25-.84-.05-1.03.27-.23.39-.05.78.27 1.03 2.19 1.67 5.37 1.42 7.3-.53.44-.44.82-.97 1.08-1.54.34-.75.31-1.45-.07-2.18-.71-1.36-1.67-2.64-2.61-3.85-.25-.32-.8-.26-1.06 0-.32.32-.25.74 0 1.06ZM42.55 150.38c.81 1.22 1.99 2.26 3.05 3.25 1.38 1.3 2.83 2.6 4.42 3.64.57.37 1.26.81 1.96.79.96-.02.97-1.52 0-1.5-.21 0 .13.06-.1-.01-.07-.02-.36-.14-.19-.06a6.11 6.11 0 0 1-.79-.44c-.69-.43-1.3-.91-1.92-1.42-1.4-1.15-2.73-2.39-3.99-3.7-.26-.27-.51-.54-.76-.82-.1-.11-.19-.23-.29-.34-.12-.14.08.11-.02-.03-.03-.04-.06-.09-.09-.13-.53-.8-1.83-.05-1.3.76Z" class="cls-7"/><path d="M51.59 157.87c.45.59.9 1.17 1.35 1.76.05.09.11.16.19.21.07.07.16.11.26.13.18.05.42.03.58-.08s.3-.26.34-.45.04-.42-.08-.58c-.45-.59-.9-1.17-1.35-1.76a.554.554 0 0 0-.19-.21.495.495 0 0 0-.26-.13c-.18-.05-.42-.03-.58.08s-.3.26-.34.45-.04.42.08.58Z" class="cls-7"/><path d="M51.71 160.33s-.08-.1-.13-.14c.16.16.03.03-.01-.04-.04-.06-.06-.12-.1-.18-.04-.07.07.19.02.06l-.03-.09c-.02-.06-.04-.12-.05-.18 0-.03-.01-.06-.02-.09 0-.02-.02-.16 0-.01s0 .02 0-.01v-.4c0-.08-.04.21 0 .07.01-.06.02-.13.04-.19s.03-.12.06-.18c0-.02.06-.14 0-.02s0 .01 0-.01c.03-.06.06-.11.09-.17.02-.03.04-.06.06-.1.07-.1-.1.11-.04.05.09-.1.18-.2.29-.28.14-.11.22-.36.22-.53 0-.18-.08-.4-.22-.53s-.33-.23-.53-.22c-.21 0-.37.09-.53.22-.6.47-.9 1.24-.95 1.99s.23 1.53.76 2.07c.27.28.79.3 1.06 0s.29-.76 0-1.06ZM84.39 82.02a49.11 49.11 0 0 0 4.49-7.55c.17-.37.1-.81-.27-1.03-.33-.19-.85-.1-1.03.27a47.56 47.56 0 0 1-4.49 7.55c-.24.33-.06.84.27 1.03.38.22.79.06 1.03-.27Z" class="cls-7"/><path d="M182.91 59.73c-.51-1.12-3.21-6.84-6.38-8.88-2.59-1.67-5.05-2.86-7.75-3.74-3.5-1.25-8.03-1.73-12.45-1.32-4.78.44-9.16 1.88-12.35 4.06-3.94 2.7-6.09 6.48-6.22 10.93v.1c.71 12.17 7.32 17.6 12.74 20.01 4.57 2.03 9 2.29 10.78 2.3l4.91 10.4c.21.44.65.72 1.13.72h.06c.51-.03.95-.35 1.12-.83l.02-.05 2.8-10.84c2.21-.79 9.31-3.73 12.16-10 1.75-3.84 1.56-8.17-.57-12.87Z" style="fill:#f2a6b0;stroke-width:0"/><path d="M157.07 41.76c-.16-1.54.96-2.91 2.5-3.06h.08c1.13-.1 2.24-.12 3.33-.05s2.13.23 3.23.48c.02 0 .04 0 .06.01 1.5.35 2.43 1.86 2.07 3.36l-4.01 16.98a2.783 2.783 0 0 1-2.9 2.14 2.783 2.783 0 0 1-2.59-2.5l-1.76-17.36Zm3.6 31.5c-.8-.05-1.5-.24-2.09-.57-.59-.33-1.07-.75-1.44-1.25-.37-.51-.64-1.06-.81-1.65-.17-.59-.24-1.17-.2-1.75s.18-1.15.43-1.71.58-1.07 1.02-1.53c.43-.45.96-.81 1.59-1.05.63-.25 1.34-.35 2.14-.29s1.49.24 2.06.57c.57.33 1.05.74 1.44 1.25.38.51.66 1.06.83 1.65.17.59.24 1.17.2 1.75s-.18 1.15-.43 1.71-.59 1.07-1.04 1.53c-.45.45-.98.81-1.59 1.05-.61.25-1.32.35-2.12.3Z" style="fill:#ff4f00;stroke-width:0"/><path d="m122.78 97.14 7.03-4.34c1.17-.72 2.34-1.46 3.52-2.17.9-.54 1.9-.85 2.37.35.88 2.24-2.23 2.9-3.48 3.92-1.75 1.43-2.69 3.55-3.75 5.49-1.21 2.22-3.29 5.06-6.21 4.2-.93-.28-1.32 1.17-.4 1.45 2.71.81 5.23-.89 6.76-3.02 1.63-2.26 2.4-5.28 4.66-7.05 1.05-.82 2.46-1.07 3.3-2.15.63-.81.88-1.87.66-2.87s-.97-2.03-2-2.29c-1.24-.31-2.42.53-3.41 1.14-3.27 2.02-6.54 4.04-9.82 6.05-.82.51-.07 1.8.76 1.3Z" class="cls-7"/><path d="M117.19 102.19c1.38-2.9 2.36-5.97 3.39-9 .41-1.2.79-2.42 1.29-3.58.55-1.27 1.75-2.13 2.93-2.92 1.65-1.11 3.45-2.05 5.25-2.86 2.05-.93 4.32-1.85 6.52-2.39.17-.04.89-.27 1.06-.14.45.33.34.92.02 1.23-.37.36-.86.62-1.3.89-.85.54-1.72 1.06-2.6 1.56-1.57.9-3.31 1.55-4.85 2.47-.93.56-1.29 1.56-1.64 2.54-.41 1.13-.77 2.29-1.19 3.42-.33.91 1.12 1.3 1.45.4.41-1.13.78-2.28 1.19-3.42.15-.42.29-.9.56-1.26.44-.6 1.33-.81 1.98-1.12 2.02-.96 3.97-2.1 5.86-3.3 1.28-.81 3.52-2.41 2.11-4.15s-4.21-.21-5.81.35c-2.24.78-4.41 1.7-6.51 2.81-1.87.99-3.74 2.09-5.25 3.59-.82.81-1.18 1.74-1.58 2.8-1.4 3.77-2.45 7.68-4.18 11.32-.41.87.88 1.63 1.3.76Z" class="cls-7"/><path d="M134.37 86.08c1.59.54 3.18 1.07 4.77 1.61.65.22 1.33.4 1.95.72.42.22.9.55.92.98 0 .18-.02.31-.11.46a.56.56 0 0 1-.13.16c.03-.03-.09.06-.07.05-.21.15.06-.02-.06.03-.06.02-.24.03-.02.01-.06 0-.13 0-.19.01-.19 0-.37 0-.56-.02-.84-.06-1.76-.26-2.67-.46-.76-.17-1.55-.33-2.28-.62-.38-.15-.82.16-.92.52-.12.42.15.77.52.92.74.29 1.55.45 2.32.63 1.06.24 2.15.47 3.24.52.44.02.89 0 1.29-.21.58-.3.98-.9 1.09-1.53.3-1.73-1.23-2.68-2.65-3.19-2-.73-4.03-1.36-6.04-2.04-.92-.31-1.31 1.14-.4 1.45ZM137.59 92.74s-.08-.07-.12-.11c-.71-.65-1.76.39-1.06 1.06.73.71 1.48 1.4 2.21 2.12.43.43.88.85 1.27 1.32.03.03.06.07.09.1.09.1-.11-.17-.04-.05.01.02.03.04.04.06.03.07-.1-.22-.06-.14l-.02-.1v.19c-.03.13-.11.17-.23.19.1-.02-.24 0-.14 0-.16-.02-.31-.08-.45-.16-.73-.39-1.41-.89-2.11-1.33-.74-.48-1.48-.95-2.23-1.43-.34-.22-.83-.07-1.03.27-.21.36-.07.81.27 1.03.72.47 1.45.93 2.17 1.4s1.39.94 2.11 1.34 1.57.56 2.31.12c.62-.37.99-1.25.78-1.95-.08-.27-.29-.49-.47-.69-.21-.24-.43-.46-.65-.69-.56-.56-1.13-1.12-1.7-1.66-.35-.34-.71-.67-1.06-1l-1.06 1.06s.08.07.12.11c.71.66 1.77-.4 1.06-1.06Z" class="cls-7"/><path d="M132.93 95.51c.25 1.01.49 2.01.74 3.02.11.44.24.9.21 1.35-.02.29-.12.53-.31.69-.03.03-.14.08-.19.08-.1 0-.18-.01-.28-.06-.28-.14-.45-.39-.56-.72-.3-.89-.19-1.85-.49-2.73-.13-.38-.51-.64-.92-.52-.37.1-.66.54-.52.92.38 1.11.18 2.33.77 3.38.56.99 1.85 1.6 2.91.98s1.21-1.98.99-3.1c-.24-1.24-.59-2.46-.89-3.68-.23-.94-1.68-.54-1.45.4Z" class="cls-7"/><path d="M135.23 89.38s-1.69-.05-2.55-1.04M128.39 89.15s-1.69-.05-2.55-1.04" class="cls-3"/><path d="M58.37 146.72c.82 1.51 1.76 2.96 2.64 4.44.22.36.43.73.64 1.09.18.31.45.67.54 1.03.09.37-.22.76-.4 1.07-.24.43-.47.85-.71 1.28-.47.84.83 1.6 1.3.76.27-.48.53-.96.8-1.44.24-.44.5-.89.53-1.41.06-.91-.63-1.82-1.08-2.58-.98-1.67-2.04-3.29-2.97-4.99-.46-.85-1.76-.09-1.3.76Z" class="cls-7"/><path d="M57.09 151.44c.84 1.42 2.15 2.62 2.71 4.2.41 1.15.3 2.85-1.14 3.19-.94.22-.54 1.67.4 1.45 1.92-.45 2.71-2.55 2.38-4.32-.38-2.07-2.02-3.53-3.05-5.27-.49-.83-1.79-.08-1.3.76Z" class="cls-7"/><path d="M50.63 143.51c1.39 1.36 3.11 1.96 4.95 2.44s3.79 1.06 5.49 1.99c.4.22.79.46 1.15.73.29.21 1.04.69 1.11 1.08.06.31-.14.79-.21 1.08-.1.44-.2.87-.32 1.3-.43 1.53-1.04 3.29-2.41 4.24-.79.55-.04 1.85.76 1.3 1.61-1.11 2.44-2.93 2.99-4.75.25-.84.46-1.7.61-2.56.22-1.2-.37-1.87-1.26-2.6-1.72-1.4-3.83-2.15-5.92-2.8s-4.27-.92-5.89-2.51c-.69-.68-1.75.38-1.06 1.06Z" class="cls-7"/><path d="m51.16 143.73 10.69-.57c.88-.05 1.76-.1 2.64-.14.23-.01.75-.11.94.04.25.2.03.52-.13.74-.85 1.15-2.5 1.84-3.83 2.2-.93.25-.54 1.69.4 1.45 1.68-.45 3.64-1.35 4.68-2.81s.23-3.13-1.61-3.13c-2.24 0-4.51.23-6.74.35s-4.69.25-7.03.38c-.96.05-.97 1.55 0 1.5Z" class="cls-7"/><path d="M173.71 111.6c.13-.73-2.99-1.91-6.97-2.64-3.98-.73-7.32-.73-7.46 0s2.99 1.91 6.97 2.64c3.98.73 7.32.73 7.46 0ZM58.44 93.86c-.63-.44-4.1 3.47-8.67 7.93-4.55 4.48-8.54 7.87-8.11 8.5.39.6 5.24-1.91 9.99-6.58 4.77-4.65 7.38-9.45 6.79-9.85ZM64.98 83.74c.26.22 1.29-.41 2.22-2.03.93-1.59 1.65-4.17 1.28-7.04-.37-2.88-1.82-5.21-3.24-6.44-.7-.63-1.39-.99-1.9-1.15-.51-.16-.83-.13-.92.03-.19.35.57 1.06 1.39 2.37.82 1.3 1.71 3.25 2.01 5.54.3 2.29 0 4.45-.38 5.98-.36 1.54-.77 2.51-.46 2.75ZM80.97 145.86c.37.08 1-2.49 1.41-5.72.41-3.24.44-5.92.07-6-.37-.08-1 2.49-1.41 5.72-.41 3.24-.44 5.92-.07 6Z" class="cls-15"/><circle cx="80.79" cy="91.16" r="1.64" class="cls-15"/><circle cx="79.08" cy="107.96" r="1.64" class="cls-15"/><circle cx="77.03" cy="126.36" r="1.64" class="cls-15"/><circle cx="74.61" cy="143.52" r="1.64" class="cls-15"/><path d="M83.92 118.49c.31.08 1-1.37 1.7-3.85.7-2.47 1.36-5.99 1.58-9.92.22-3.93-.05-7.5-.47-10.03-.42-2.54-.96-4.06-1.27-4.01-.68.1-.18 6.32-.62 13.92-.4 7.6-1.59 13.72-.92 13.9Z" class="cls-15"/><path d="M71.95 57.47c-.24 2.32-.91 4.59-1.75 6.76-.55 1.42-1.17 2.85-1.96 4.16s1.2 2.38 1.94 1.14c.89-1.47 1.56-3.1 2.18-4.7.93-2.37 1.58-4.82 1.84-7.36.06-.61-.56-1.12-1.12-1.12-.66 0-1.06.52-1.12 1.12Z" class="cls-7"/><path d="M71.03 57.89c-1.91.66-3.98.54-5.99.35s-4.05-.44-6.02-.02c-1.97.42-3.9 1.66-4.54 3.57-.7 2.08-.81 5.61 1.63 8.19 2.64 2.79 11.93 1.61 13.99-.14 1.06-.89-.74-2.82.97-4.79 1.71-1.97 1.29-4.79 1.42-7.39" class="cls-5"/><path d="M98.01 54.51c.97 0 .97-1.5 0-1.5s-.97 1.5 0 1.5ZM97.74 45.21c.05.13.1.27.14.4l.09.37c.08.35.24.66.48.92.19.29.44.53.76.7.31.2.64.3 1 .32.36.08.72.06 1.08-.05l.64-.27c.41-.24.73-.56.97-.97l.27-.64c.13-.48.13-.96 0-1.44l-.09-.37c-.04-.14-.09-.27-.14-.4a1.99 1.99 0 0 0-.48-.92c-.19-.29-.44-.53-.76-.7-.31-.2-.64-.3-1-.32-.36-.08-.72-.06-1.08.05l-.64.27c-.41.24-.73.56-.97.97l-.27.64c-.13.48-.13.96 0 1.44Z" class="cls-7"/><path d="M85.57 52.75c-.06-.1-.17-.2-.29-.25a.61.61 0 0 0-.41-.17c-.05 0-.1.01-.16.02-.1.03-.19.08-.26.15-.43.36-.87.71-1.3 1.07-.11.02-.21.07-.29.16-.22.24-.22.59 0 .83l.78.87c.26.29.73.18.92-.12.43-.66.78-1.37 1.06-2.1.05-.13.01-.33-.06-.45Z" class="cls-5"/><path d="M99.84 45.47c.43 2.38.86 4.76 1.15 7.16.05.4.31.75.75.75.37 0 .8-.35.75-.75-.3-2.53-.75-5.05-1.2-7.56-.07-.4-.56-.62-.92-.52-.42.12-.6.52-.52.92Z" class="cls-7"/><path d="M102.33 62.12c1.03-.17 2.08-.39 3.01-.86.51-.26 1-.65 1.18-1.21.23-.7-.1-1.33-.56-1.85-.64-.74-1.39-1.36-1.95-2.17-.76-1.09-1.24-2.32-1.49-3.62-.18-.95-1.63-.55-1.45.4.26 1.36.78 2.69 1.55 3.85.39.58.84 1.13 1.33 1.63.33.34.69.66 1 1.03.03.04.03.04 0 0 .03.04.05.08.08.12.02.04.05.08.07.11-.03-.08-.03-.09 0 0 .05.13.01-.13 0 .06 0 .1.05-.18 0-.02-.06.18.07-.14 0-.02-.03.06-.14.17 0 .02-.05.05-.29.26-.15.16-.83.59-2 .76-3.03.93-.4.07-.62.56-.52.92.12.42.52.59.92.52ZM12.38 105.88c-1.7 2.15-3.35 4.35-4.8 6.68-.51.82.79 1.58 1.3.76 1.38-2.22 2.94-4.33 4.56-6.38.25-.32.31-.75 0-1.06-.26-.26-.81-.32-1.06 0Z" class="cls-7"/><path d="M8.03 112.22c-1.16.37-2.29.79-2.08 2.24.09.62.38 1.07.86 1.45.79.62 1.2.99 1.62 1.94.76 1.71 1.27 3.53 2.25 5.13s2.19 3.26 3.4 4.79c4.81 6.12 10.8 11.18 17.17 15.6 3.74 2.6 7.63 4.98 11.56 7.29.83.49 1.59-.81.76-1.3-11.9-6.97-24.47-15.16-31.69-27.29-.96-1.61-1.45-3.45-2.23-5.15-.3-.64-.59-1.23-1.15-1.67-.25-.2-.97-.49-1.04-.84-.11-.56.6-.62.97-.74.92-.29.53-1.74-.4-1.45Z" class="cls-7"/><path d="M100.74 45.03c-1.47 3.57-4.96 6.24-8.8 6.72-.94.12-1.9.11-2.83.31s-1.86.62-2.4 1.4c.13-1.45 1.32-2.55 2.47-3.45a57.02 57.02 0 0 1 9.74-6.14c.42-.21.92-.41 1.34-.2s.37 1.03-.1 1" class="cls-5"/><path d="M100.42 44.85a10.968 10.968 0 0 1-5.88 5.83c-1.48.61-2.96.7-4.53.87-1.4.15-2.73.55-3.62 1.72l.7.19c.16-1.28 1.16-2.22 2.12-2.99 1.12-.9 2.3-1.74 3.49-2.55s2.3-1.48 3.48-2.16c.63-.36 1.27-.71 1.91-1.04.3-.16.61-.32.91-.47.18-.08.38-.22.58-.24.13-.06.24-.04.35.08.2 0 .27.07.23.21-.48.04-.48.79 0 .75 1.23-.11.81-1.86-.34-1.84-.92.02-1.91.75-2.68 1.16-.94.51-1.87 1.04-2.78 1.59-1.8 1.1-3.54 2.3-5.2 3.59-1.31 1.02-2.61 2.16-2.82 3.9-.05.42.51.44.7.19 1.13-1.49 3.24-1.31 4.9-1.52 1.31-.16 2.58-.56 3.76-1.17 2.38-1.22 4.32-3.27 5.36-5.74.19-.44-.46-.82-.65-.38Z" class="cls-5"/><path d="M87.14 52.33c-.02-.24-.15-.45-.36-.54a.589.589 0 0 0-.65-.05c-.05.03-.1.06-.16.08h-.02c-.03 0-.06.02-.1.03-.07.02-.15.04-.22.05-.03 0-.07.01-.1.02h-.2c-.07 0-.14.01-.21.02l-.42.03c-.62.06-1.23.21-1.69.66-.12.12-.18.29-.17.46v.43c0 .06 0 .12-.02.19 0 .02-.01.09-.01.11-.04.25-.09.51-.17.75l-.12.36c0 .01-.05.13-.06.14-.02.05-.05.11-.07.16-.1.2-.21.39-.32.57-.02-.01-.05-.02-.07-.04-.66-.37-1.25.65-.59 1.01 1.32.73 2.92.46 3.98-.59 1.01-1 1.89-2.43 1.76-3.9Z" class="cls-5"/><path d="M75.12 55.59c-.07.03-.15.06-.22.09l.36-.15c-1.39.58-2.81 1.08-4.26 1.46-.76.2-1.3 1.08-1.05 1.85s1.03 1.26 1.85 1.05c1.66-.44 3.26-1.03 4.84-1.71.32-.14.6-.58.69-.9.1-.36.05-.84-.15-1.16s-.51-.6-.9-.69l-.4-.05c-.27 0-.52.07-.76.2ZM102.21 42.65c-7.05 2.96-14.07 6.01-21.15 8.88-.76.31-1.27 1-1.05 1.85.19.71 1.1 1.35 1.85 1.05 7.08-2.87 14.1-5.93 21.15-8.88.75-.32 1.27-.99 1.05-1.85-.19-.71-1.1-1.36-1.85-1.05Z" class="cls-12"/><path d="M103.37 42.14c-2.17-4.91-4.19-9.89-6.07-14.92-.28-.76-1.01-1.28-1.85-1.05-.73.2-1.33 1.08-1.05 1.85 1.97 5.28 4.1 10.49 6.37 15.64.33.74 1.41.91 2.05.54.76-.45.87-1.31.54-2.05ZM72.3 56.91c-2.17-4.91-4.19-9.89-6.07-14.92-.28-.76-1.01-1.28-1.85-1.05-.73.2-1.33 1.08-1.05 1.85 1.97 5.28 4.1 10.49 6.37 15.64.33.74 1.41.91 2.05.54.76-.45.87-1.31.54-2.05Z" class="cls-12"/><path d="M97.22 28.19c2.09-3.27 3.65-6.89 4.53-10.68.81-3.51 1.39-7.76-.77-10.93-1.77-2.59-4.81-3.87-7.87-3.98-3.39-.12-6.49 1.31-9.1 3.39-2.9 2.3-5.06 5.32-7.33 8.2-1.16 1.47-2.37 2.92-3.73 4.21-1.42 1.34-3.01 2.32-4.72 3.25-1.7.92-3.27 1.98-4.58 3.42-1.28 1.41-2.32 3.02-3.36 4.61-2.26 3.46-5.25 7.05-6.35 11.1-1.01 3.73.43 7.91 4.03 9.65 2.88 1.39 7.2.82 9.28-1.76l3.89 9.29 5.75-2.01c.15-1.21.91-2.01 1.73-2.44s2.43.43 2.43.43l1.59-.57 19.43-10.47-5.73-14.07c.33-.08.64-.28.87-.65Z" class="cls-12"/><path d="M81.95 53.78c-.9-.79-2.17-.99-3.29-.58s-2.01 1.43-2.27 2.65c-.57 2.66 1.28 4.97 3.58 6.06.76.36 1.63.62 2.44.23.71-.35 1.14-1.15.93-1.93-.25-.93-1.7-.54-1.45.4-.01-.04.05-.03 0 .05-.03.06-.08.1-.15.14-.21.1-.49.01-.71-.06-.51-.18-1.01-.48-1.45-.8-.85-.61-1.54-1.49-1.74-2.53-.17-.89.05-1.97.82-2.52.66-.48 1.64-.57 2.24-.04.3.27.76.3 1.06 0 .27-.27.31-.79 0-1.06Z" class="cls-7"/><path d="M88.1 29.08c-.31-.25-1.31.64-3.1 1.52-1.76.9-4.44 1.73-7.34 1.41-.05 0-.3-.03-.46-.03-.18 0-.36.02-.54.05a2.949 2.949 0 0 0-2.37 2.47l-.04.25-.09.5c-.07.33-.15.65-.24.96-.35 1.24-.84 2.32-1.31 3.21-.96 1.76-1.84 2.77-1.6 3.08.2.27 1.57-.26 3.12-2 .75-.87 1.53-2.05 2.09-3.5.14-.36.27-.74.38-1.13.06-.2.11-.4.15-.6l.07-.31c.02-.07.02-.06.03-.09.04-.08.1-.15.18-.19.04-.02.08-.03.12-.04h.07c.04 0 0 0 .15.01 1.82.19 3.57-.04 5.05-.53 1.48-.48 2.71-1.2 3.6-1.94 1.82-1.49 2.34-2.89 2.07-3.08Z" style="fill:#eeece9;stroke-width:0"/><path d="M86.02 48.99c.31-.19-.82-2.64-2.54-5.48-1.71-2.84-3.35-4.99-3.67-4.8-.31.19.82 2.64 2.54 5.48 1.71 2.84 3.35 4.99 3.67 4.8ZM91.18 43.32c.32-.17-.03-1.46-.78-2.88s-1.63-2.43-1.95-2.26.03 1.46.78 2.88 1.63 2.43 1.95 2.26ZM96.95 39.08c.34-.13.27-1.12-.15-2.2-.42-1.08-1.04-1.86-1.38-1.73-.34.13-.27 1.12.15 2.2.42 1.08 1.04 1.86 1.38 1.73ZM77.34 50.01c.33-.16-.06-1.64-.88-3.3-.81-1.66-1.73-2.88-2.06-2.72s.06 1.64.88 3.3c.81 1.66 1.73 2.88 2.06 2.72ZM71.66 51.49c.33-.15.23-1.09-.23-2.09-.46-1-1.1-1.69-1.43-1.54-.33.15-.23 1.09.23 2.09.46 1 1.1 1.69 1.43 1.54Z" class="cls-8"/><path d="M43.3 112.62c-.21-.28-.82-.21-1.59.19-.77.4-1.67 1.12-2.5 2.01-.84.89-1.47 1.75-1.88 2.44-.4.69-.58 1.22-.37 1.5.21.28.82.21 1.59-.19.77-.4 1.67-1.12 2.5-2.01.84-.89 1.47-1.75 1.88-2.44.4-.69.58-1.22.37-1.5Z" class="cls-15"/><path d="M18.77 98.42c-.2.71 6.03 2.88 12.99 6.9 6.99 3.96 12.01 8.24 12.53 7.7.23-.24-.74-1.65-2.7-3.56-1.95-1.91-4.94-4.27-8.57-6.35-3.63-2.07-7.18-3.45-9.81-4.17-2.64-.72-4.34-.85-4.43-.53Z" class="cls-15"/></g></svg>