<svg xmlns="http://www.w3.org/2000/svg" viewBox="0 0 200 200"><defs><style>.cls-1{fill:none}.cls-3{fill:#f6c243}.cls-4{fill:#f75e28}.cls-6{fill:#fff}.cls-7{fill:#ffa2af}.cls-8{fill:#ffd066}.cls-10{fill:#fbae5e}.cls-11{fill:#ff8000}.cls-13{fill:#c1dade}.cls-15{fill:#ce9352}.cls-16{fill:#a84902}</style></defs><path id="BG_Strong" d="M189.77 86.55c-36.17-41.56-4.18-66.81-79.65-64.12-22.71 3.67-41.77-10.27-63.8-10.63-59.88 20.41-45.63 112.08-3.2 144.85 57.04 50.68 197.65 26.59 146.65-70.09Z" style="fill:#575655"/><g id="Illustrations"><g id="Stars"><path d="M31.78 35v-.04c0-.4-.32-.65-.69-.69-1.46-.14-2.94-.31-4.34-.77a7.68 7.68 0 0 1-3.28-2.11c-1.81-1.95-2.72-4.62-3.34-7.17-.44-1.79-.72-3.62-.85-5.46-.03-.37-.3-.69-.69-.69h-.13c-.35 0-.71.31-.69.69.2 3.05-.07 6.24-1.33 9.06-1.06 2.4-2.8 4.49-5.09 5.77-.63.35-1.24.61-1.94.81-.89.26-1.82.36-2.71.62-.82.24-.51 1.48.28 1.34.05.03.11.06.17.09 5.17 1.88 8.6 6.72 10.06 11.86.45 1.58.74 3.19.9 4.82.04.37.29.69.69.69.3 0 .62-.24.68-.54.1-.11.17-.25.2-.42.06-.4.07-.79.13-1.16.07-.41.15-.82.25-1.23.41-1.67 1.03-3.29 1.85-4.81.71-1.32 1.55-2.58 2.44-3.79.38-.51.78-1.01 1.24-1.53.47-.52.96-1.02 1.48-1.5 1.34-1.22 2.84-2.22 4.42-3.14.3-.18.38-.47.31-.73Zm-12.25 8.21s0-.04-.01-.06 0 .06 0 .06Z" class="cls-3"/><path d="M29.93 92.81v-.04c0-.52-.41-.85-.89-.89-1.05-.1-2.17-.21-3.12-.7-.85-.44-1.46-1.12-1.94-1.93-1.09-1.87-1.53-4.21-1.69-6.36-.03-.48-.38-.89-.89-.89h-.08c-.46 0-.92.41-.89.89.07 1.16.03 2.35-.2 3.49-.13.2-.21.44-.21.7v.18c-.23.76-.55 1.49-1 2.16a6.71 6.71 0 0 1-1.96 1.94c-.42.26-.82.45-1.26.59-.58.18-1.19.25-1.77.42-1.01.29-.7 1.75.21 1.76.02 0 .04.02.06.03 3.98 1.47 5.96 5.75 6.34 9.74.05.48.38.89.89.89.34 0 .71-.25.84-.58.16-.25.16-.56.2-.85.03-.3.12-.7.21-1.07.26-.24.43-.58.45-.98 0-.11.01-.23.02-.35 0-.02.01-.12.02-.18.2-.49.42-.97.68-1.42.84-1.48 1.72-2.73 2.97-3.86.79-.72 1.66-1.29 2.6-1.84.35-.2.46-.53.42-.84Z" class="cls-6"/><path d="M192.89 79.31v-.04c0-.4-.32-.65-.69-.69-1.55-.15-3.11-.33-4.59-.82a8.161 8.161 0 0 1-3.46-2.25c-1.89-2.06-2.83-4.85-3.49-7.53-.45-1.87-.75-3.77-.89-5.68-.03-.37-.3-.69-.69-.69H178.93c-.35 0-.71.31-.69.69.21 3.22-.08 6.57-1.41 9.54-1.12 2.52-2.96 4.72-5.38 6.05-.65.36-1.29.63-2.01.83-.93.27-1.9.38-2.82.65-.82.24-.51 1.49.29 1.34.06.04.11.07.18.09 5.42 1.98 9.02 7.04 10.56 12.44.47 1.66.78 3.37.94 5.09.04.37.29.69.69.69.29 0 .6-.22.67-.52.14-.17.21-.39.23-.63.07-.83.2-1.62.41-2.45.44-1.74 1.1-3.43 1.95-5 .74-1.37 1.62-2.69 2.55-3.94.23-.31.35-.47.58-.76.23-.28.46-.56.71-.83.49-.54 1-1.06 1.54-1.55 1.41-1.28 2.98-2.33 4.64-3.29.31-.18.38-.47.31-.74Zm-13.52-10.79s-.04-.01-.06-.02c0-.04.02-.09.02-.13.01.05.02.1.04.16Zm.66 19.36Zm-.34 1.64c.05-.02.11-.05.15-.08-.03.08-.07.16-.09.24-.02-.05-.04-.11-.06-.16Z" class="cls-11"/><path d="M81.14 11.58v-.02c0-.4-.32-.65-.69-.69-.96-.09-1.93-.2-2.85-.51-.82-.27-1.52-.73-2.1-1.35-1.19-1.27-1.77-3.02-2.19-4.7-.29-1.19-.48-2.4-.57-3.61-.03-.37-.3-.69-.69-.69h-.09c-.35 0-.71.31-.69.69.13 2.01-.04 4.11-.86 5.97-.7 1.59-1.84 2.96-3.36 3.8-.42.23-.81.39-1.27.52-.58.16-1.18.23-1.76.4-.8.23-.53 1.41.21 1.35.03.01.06.03.09.04 3.36 1.23 5.6 4.38 6.57 7.73.31 1.06.51 2.15.61 3.24.04.37.29.69.69.69.28 0 .58-.21.66-.49.13-.19.15-.43.18-.69.02-.26.06-.48.11-.76.06-.32.14-.63.23-.94.14-.17.23-.39.24-.65v-.16c.2-.56.43-1.1.7-1.63.47-.92 1.05-1.81 1.66-2.65.51-.71 1.14-1.44 1.84-2.09.91-.84 1.91-1.5 2.99-2.13.29-.17.37-.44.32-.69Z" class="cls-13"/><path d="M182.79 26.72v-.03c0-.4-.32-.65-.69-.69-.81-.08-1.67-.16-2.4-.54-.65-.34-1.12-.86-1.49-1.49-.84-1.44-1.18-3.24-1.3-4.9-.03-.37-.3-.69-.69-.69h-.06c-.35 0-.71.31-.69.69.06.9.02 1.81-.15 2.69-.1.16-.16.34-.16.54v.13c-.18.58-.43 1.14-.77 1.66-.39.58-.92 1.12-1.51 1.49-.32.2-.63.35-.97.46-.45.14-.91.19-1.36.32-.78.22-.54 1.35.16 1.35.02 0 .03.02.05.02 3.06 1.13 4.59 4.43 4.89 7.5.04.37.29.69.69.69.27 0 .55-.19.65-.45.12-.19.13-.43.15-.65.02-.23.09-.54.16-.82.2-.18.33-.45.35-.75 0-.09 0-.18.02-.27 0-.02.01-.09.02-.14.15-.38.32-.74.52-1.1.65-1.14 1.32-2.11 2.29-2.97.61-.55 1.28-.99 2-1.42.27-.16.36-.41.32-.65Z" style="fill:#f2a6b0"/><path d="M179.84 89.43s-.1.06-.15.08c.02.05.04.11.06.16l.09-.24Z" class="cls-1"/><path d="M184.36 87.53c-.64.93-1.25 1.89-1.79 2.88-.85 1.57-1.51 3.26-1.95 5-.21.83-.34 1.62-.41 2.45-.02.24-.09.46-.23.63-.07.29-.38.52-.67.52-.4 0-.65-.32-.69-.69-.16-1.72-.47-3.43-.94-5.09-1.54-5.4-5.14-10.46-10.56-12.44-.07-.02-.12-.06-.18-.09-.8.15-1.11-1.1-.29-1.34.93-.27 1.9-.38 2.82-.65.72-.21 1.36-.47 2.01-.83 1.64-.9 3.01-2.2 4.07-3.73-.27-.35-.48-.61-.55-.65-1.8-1.18-12.81 1.18-14.16 3.47-1.35 2.3 8.08 10.41 10.1 16.31 2.02 5.9 6.77 9.98 9.86 9.78 3.09-.2 4.67-7.72 4.75-9.23.08-1.5-.53-5.44-.87-5.85-.09-.11-.2-.27-.33-.45Z" class="cls-1"/><path d="M171.48 77.88c-.65.36-1.29.63-2.01.83-.93.27-1.9.38-2.82.65-.82.24-.51 1.49.29 1.34.06.04.11.07.18.09 5.42 1.98 9.02 7.04 10.56 12.44.47 1.66.78 3.37.94 5.09.04.37.29.69.69.69.29 0 .6-.22.67-.52.14-.17.21-.39.23-.63.07-.83.2-1.62.41-2.45.44-1.74 1.1-3.43 1.95-5 .54-.99 1.14-1.95 1.79-2.88-.36-.52-.8-1.21-.98-1.42-.24-.28-.75-.99-1.15-1.58s-.83-1.46-.83-1.46-.16-.28-.32-.67c-.16-.4-.24-.24-.47-.4-.24-.15 0 0-.2-.2s0-.24 0-.47-.57-.63-.57-.63l-.65-.95s-.41-.7-.47-.95 0 0 .2.08-.2-.32-.36-.59-.28-.4-.55-.79c-.27-.4-.09.16 0 .44s-.63-1.15-1.03-1.78c-.26-.41-.92-1.34-1.41-1.99-1.06 1.53-2.43 2.83-4.07 3.73Zm8.54 9.99-.19 1.56c-.03.08-.07.16-.09.24-.02-.05-.04-.11-.06-.16.05-.02.11-.05.15-.08Z" style="fill:#e87003"/><path d="M7.15 36.46a.556.556 0 0 1-.17-.09c-.79.14-1.1-1.1-.28-1.34.89-.26 1.82-.36 2.71-.62.69-.2 1.31-.46 1.94-.81 2.3-1.28 4.03-3.37 5.09-5.77 1.25-2.83 1.53-6.01 1.33-9.06-.02-.37.34-.69.69-.69h.13c.39 0 .66.32.69.69.13 1.84.42 3.67.85 5.46.57 2.33 1.38 4.76 2.89 6.64.06-.1.12-.18.18-.25.37-.48-2.05-9.83-2.25-11.14s-1.43-1.82-2.91-2.42c-1.48-.59-2.95 6.18-4.88 9.07-1.94 2.89-3.96 5.54-5.62 6.45-1.66.91-4.2 2.06-3.01 3.6s10.16 8.1 10.16 8.1.22-.43.45-.86c-1.83-3.12-4.51-5.7-7.98-6.97Z" class="cls-1"/><path d="M19.28 18.76c-.03-.37-.3-.69-.69-.69h-.13c-.35 0-.71.31-.69.69.2 3.05-.07 6.24-1.33 9.06-1.06 2.4-2.8 4.49-5.09 5.77-.63.35-1.24.61-1.94.81-.89.26-1.82.36-2.71.62-.82.24-.51 1.48.28 1.34.05.03.11.06.17.09 3.46 1.26 6.14 3.85 7.98 6.97.18-.33.36-.66.44-.78.2-.28.16.16.28 0s.63-1.35.83-1.74c.2-.4 1.14-1.64 1.36-1.95.22-.31.97-1.33.97-1.33s1.47-2.74 1.82-3.29l.36-.55v.52s.22-1.03.63-1.55c.34-.44.85-1.32 1.21-1.88-1.52-1.89-2.32-4.31-2.89-6.64-.44-1.79-.72-3.62-.85-5.46Z" class="cls-8"/><path d="M74.02 19.8c-.14.32-.27.64-.38.96v.16c-.01.25-.1.47-.24.65-.09.31-.16.63-.23.94-.06.28-.09.5-.11.76-.02.26-.05.49-.18.69a.72.72 0 0 1-.66.49c-.4 0-.65-.32-.69-.69-.11-1.1-.31-2.18-.61-3.24-.26-.9-.61-1.78-1.05-2.61l.06.95L71 24.91s1.35 1 2.3.45c.95-.55.98-2.19 1.05-2.71s.28-2.66.23-2.68c-.02 0-.25-.07-.54-.16Z" class="cls-1"/><path d="M71.51 23.75c.04.37.29.69.69.69.28 0 .58-.21.66-.49.13-.19.15-.43.18-.69.02-.26.06-.48.11-.76.06-.32.14-.63.23-.94.14-.17.23-.39.24-.65v-.16c.11-.33.25-.65.38-.96-.51-.15-1.19-.36-1.25-.39-.08-.05.13-.16.26-.24.13-.08-.82 0-.82 0l-.55-.16s-.37-.08-.29-.17 0-.49-.32-.74-.4-.23-.47 0c-.08.23.18.64 0 .61-.18-.03-.74-.92-.74-.92v.1c.45.83.8 1.72 1.06 2.61.31 1.06.51 2.15.61 3.24Z" style="fill:#b4cacc"/></g><path id="branch" d="M75.07 165.53c-.05-.3-.31-.43-.59-.41-3.15.15-6.29.3-9.44.4-3.18.11-6.37.17-9.55.14-.98 0-1.96-.02-2.94-.05.27-2.59.35-5.2.14-7.79-.21-2.58-.73-5.13-1.68-7.54-.24-.6-.5-1.18-.79-1.75-.28-.56-.57-1.19-1.1-1.56-.55-.38-1.3-.31-1.7.25-.31.45-.32 1.07-.21 1.58.13.65.4 1.3.66 1.91.26.64.56 1.26.84 1.89.56 1.23 1.07 2.46 1.38 3.78.62 2.68.59 5.46.48 8.19l-.04.96c-1.5-.06-2.99-.14-4.48-.26-.59-.04-1.18-.09-1.76-.15.03-.06.05-.12.04-.18-.07-2.76-.3-5.51-.73-8.24-.42-2.67-.98-5.35-1.79-7.93-.21-.67-.48-1.37-.99-1.88-.52-.52-1.22-.85-1.96-.72-.21.04-.41.23-.42.45-.07 1.28.34 2.48.85 3.63.48 1.11.99 2.19 1.33 3.36.72 2.42 1.02 4.92 1.54 7.38.29 1.37.64 2.72 1.15 4.02-2.05-.21-4.09-.47-6.12-.81-.2-4.57-1.73-9.03-4.4-12.76-.73-1.02-1.72-2.46-3.17-2.21-.29.05-.44.32-.41.59.43 4.44 4.6 7.14 6.12 11.12.37.97.54 1.99.41 3.01-1.79-.33-3.57-.73-5.33-1.18a7.43 7.43 0 0 0-.22-.69c-.31-1.21-.73-2.4-1.36-3.49-.75-1.28-1.75-2.57-3-3.38a4.92 4.92 0 0 0-1.1-.55c-.43-.15-.96-.26-1.28.16-.49.62.08 1.44.44 1.97.72 1.05 1.68 1.9 2.57 2.8.49.5.98 1.01 1.38 1.58.19.26.32.48.47.81.04.08.07.17.11.25-.29-.09-.58-.17-.87-.26-.37-.11-.74-.23-1.11-.35-.42-.13-.72.25-.68.58-.91-.12-1.82-.28-2.72-.47-.61-.13-1.22-.3-1.83-.46-.67-.18-1.35-.31-2.04-.19a.51.51 0 0 0-.37.72c.53 1.08 1.6 1.65 2.74 1.91 1.21.28 2.53.32 3.76.19.77-.08 1.54-.28 2.22-.67.07-.04.13-.09.18-.15 1.7.5 3.41.95 5.14 1.33-1.68.14-3.36.28-5.04.46-1.16.12-2.32.26-3.48.41-1.02.14-2.08.24-3.07.51-1 .27-1.95.76-2.38 1.74-.17.39.21.71.57.68 2.36-.15 4.72-.27 7.07-.46 2.16-.18 4.32-.45 6.41-1.02 1.21-.33 2.39-.75 3.52-1.3a.5.5 0 0 0 .25-.27c1.32.23 2.65.43 3.98.59-2.34.7-4.67 1.4-7.01 2.09-1.3.39-2.6.77-3.9 1.17-1.1.34-2.19.7-3.23 1.19-1.18.56-2.25 1.3-3.12 2.28-.15.17-.11.46.02.62.91 1.1 2.48.63 3.65.3 1.38-.39 2.74-.84 4.09-1.34 2.64-.99 5.2-2.18 7.64-3.58 1.35-.77 2.67-1.61 3.94-2.5.67.07 1.33.13 2 .19 1.21.11 2.43.19 3.64.26-1.92.99-3.84 1.97-5.76 2.96-.96.49-1.94.96-2.87 1.51-.81.47-1.57 1.01-2.17 1.73-.29.35-.54.75-.7 1.18-.2.52-.35 1.18.14 1.59.42.35 1.01.21 1.45-.03.45-.25.89-.51 1.33-.77 1.81-1.05 3.62-2.14 5.33-3.35 1.92-1.36 3.71-2.89 5.24-4.67.01-.02.02-.04.04-.05 1.3.05 2.59.09 3.89.11 3.2.05 6.4 0 9.6-.09 3.19-.09 6.39-.24 9.58-.39l1.21-.06c.28-.01.46-.34.41-.59Z" style="fill:#6b9327"/><g id="Layer_9"><path d="M43.18 174.8v-41.94s.04-55.04.03-56.94 0-27.71 0-28.78-.1-7.91.39-8.52.2-1.27 1.41-2.22 4.84-3.34 5.32-3.43 26.69 1.55 26.69 1.55l49.03 3.28c2.53.17 21.27 1.31 22.32 1.54s2.58.06 2.44 1.57.27 9.6.27 11.62V165.57l.41 1.42s9.82.54 10.15.7.88 1.36.86 2.47-.38 4.88-.44 4.96-4.08 3.71-5 4.52-12.3 10.75-13.56 11.86c-1.27 1.11-8.27 7.43-8.87 7.82s-3.69-.26-3.69-.26l-71.63-4.79-25.73-1.71-1.89-.07s-.58-3.18-.57-4.4c0-1.22-.39-3.26.36-3.51s8-6.5 9.03-7.37 2.66-2.4 2.66-2.4Z" class="cls-10"/><path d="M134.64 199.31v-7.93l11.33-9.86V65.96c0-2.42.08-19.06 0-19.59s-.73-1.74-.73-1.74l5.06-4.23s.99.94.78 3.32c-.2 2.38 0 18.96 0 18.96l.03 45.19-.07 69.12 9.35-8.09s.68-1.4 1.26-1.23.86 2.47.86 2.47l-.44 4.96-14.7 13-12.74 11.2Z" class="cls-4"/><path d="m136.15 75.74-.49-25.26c-.02-.88-1.39-.89-1.37 0 .29 14.92.59 29.85.87 44.78.18 9.51.31 19.02.11 28.53-.19.03-.37.17-.37.43-.09 4.83-.31 9.65-.66 14.46-.37.04-.73.28-.78.74-.75 6.74-1.69 13.45-2.84 20.12a.773.773 0 0 0-.27-.08c-10.03-1.02-20.15-.21-30.19-.82-.05-.34-.3-.66-.75-.68-14.89-.66-29.67-3.2-44.6-3.17.01-.12.02-.23.04-.35.04-.36-.34-.7-.69-.69-.4.02-.65.3-.69.69-.02.22-.04.43-.07.65v.06a.92.92 0 0 0-.09.63c-.03.21-.07.43-.12.64-.16.69-.4 1.37-.65 2.04a.47.47 0 0 0-.02.26v.02c-.09.32.11.79.48.85 10.3 1.49 20.64 2.64 31.01 3.43 10.31.79 20.65 1.23 30.99 1.32 5.85.05 11.7 0 17.55-.18.53-.01.74-.51.64-.9 2.49-14.29 3.35-28.8 3.52-43.28.17-14.75-.27-29.51-.56-44.25Z" class="cls-15"/><path d="M135.72 95.66c-.1-7.15-.26-14.29-.34-21.43-.08-7.21-.08-14.43.16-21.64.03-.89.06-1.77.1-2.66.09-.4-.12-.88-.64-.89-3.52-.05-7.04-.23-10.55-.44-3.68-.22-7.36-.48-11.05-.71-1.92-.12-3.84-.23-5.76-.31-.37-.02-.69.33-.69.69 0 .39.31.67.69.69h.08c-.21.64-.49 1.6-.5 2.23-.01 1.01.84 2.22.84 2.22l-30.18-1.64s-.65-1.43-.86-2.04c-.15-.41.03-1.82.16-2.69.09 0 .19.01.29.02.37.03.69-.34.69-.69 0-.4-.31-.66-.69-.69-5.89-.5-11.8-.75-17.69-1.24-1.69-.14-3.38-.3-5.07-.49-.33-.04-.61.26-.67.57-.02.07-.04.14-.04.22.06 14.36.12 28.71.19 43.07.06 14.05.13 28.12-.8 42.14-.52 7.85-1.36 15.69-2.69 23.45-.03.16 0 .3.05.42-.05.09-.08.2-.08.3 0 .41.32.65.69.69 5.15.58 10.31 1.13 15.47 1.62 5.09.49 10.18.92 15.28 1.31 5.07.39 10.15.72 15.22 1.01 5.1.29 10.2.52 15.3.7 5.17.18 10.34.31 15.51.4l1.95.03c.08 0 .15-.01.22-.03h.03c.02 0 .04-.01.06-.02a.59.59 0 0 0 .36-.44c1.62-6.94 2.77-13.99 3.54-21.08.78-7.08 1.18-14.2 1.37-21.32.19-7.11.16-14.22.06-21.33Z" style="fill:#fcb9c4"/></g><g id="Layer_6"><path d="M111.34 36.09c-.53-.28-1.06-.56-1.57-.9-.12-.08-.23-.16-.35-.24l-.09-.06c-.01-.01-.1-.09-.04-.02.07.07-.04-.03-.05-.04a.5.5 0 0 1-.08-.07 6.16 6.16 0 0 1-.65-.6c-.25-.26-.72-.27-.97 0-.2.22-.25.54-.12.8l-1.89 1.34 3.85.28c.41.25.83.49 1.26.71.32.17.76.09.94-.25.17-.32.09-.76-.25-.94Z" class="cls-16"/><path d="M151.5 167.68c3.38.23 6.77.46 10.15.7.37.02.69-.34.69-.69 0-.39-.31-.66-.69-.69-3.38-.23-6.77-.47-10.15-.7-.37-.02-.69.34-.69.69 0 .39.31.66.69.69ZM103.75 41.59c5 .34 9.99.7 14.99 1.06 5 .36 10.45.77 15.68 1.14l8.84.63c.37.02.69-.34.69-.69 0-.39-.31-.66-.69-.69-5.26-.36-10.52-.75-15.77-1.13-5.15-.38-10.31-.76-15.46-1.12-2.76-.2-5.52-.39-8.28-.58-.37-.02-.69.33-.69.69 0 .39.31.66.69.69ZM46.38 37.94c5.1.33 10.19.64 15.29.96 5.1.31 10.05.62 15.07.94 2.69.17 5.38.34 8.07.52.37.02.69-.33.69-.69 0-.39-.31-.66-.69-.69-4.84-.32-9.69-.63-14.54-.93-5.09-.32-10.19-.63-15.28-.95l-8.61-.54c-.37-.02-.69.33-.69.69 0 .39.31.66.69.69ZM145.29 47.07v134.29c0 .88 1.37.89 1.37 0V47.07c0-.88-1.37-.89-1.37 0Z" class="cls-10"/><path d="M43.9 39.97c0-.09.02-.19.02-.28v.09-.09c0-.04.02-.08.02-.11.02-.08.04-.17.07-.25.01-.04.04-.09.05-.13-.03.15-.02.05 0 0 .04-.08.08-.15.12-.23.03-.05.09-.19.14-.22-.06.07-.07.09-.04.04.02-.02.03-.04.04-.05.03-.04.06-.07.09-.11l.18-.18c.03-.03.06-.05.09-.08.12-.11-.12.08.01 0 .07-.05.14-.1.22-.14s.15-.08.23-.12c.13-.07-.12.04 0 0 .04-.02.09-.03.13-.04.09-.03.18-.05.27-.07.03 0 .06-.01.09-.02h-.03c.05 0 .1-.01.15-.01.25-.02.49-.02.74-.01.36 0 .7-.32.69-.69s-.3-.68-.69-.69c-.54 0-1.11 0-1.63.17-.47.16-.89.4-1.25.73-.7.63-1.13 1.56-1.14 2.5 0 .36.32.7.69.69s.68-.3.69-.69ZM143.26 44.42c.09 0 .19.02.28.02h-.09.09c.04 0 .08.02.11.02.08.02.17.04.25.07.04.01.09.04.13.05-.15-.03-.05-.02 0 0 .08.04.15.08.23.12.05.03.19.09.22.14-.07-.06-.09-.07-.04-.04.02.02.04.03.05.04.04.03.07.06.11.09l.18.18c.03.03.05.06.08.09.11.12-.08-.12 0 .01.05.07.1.14.14.22s.08.15.12.23c.07.13-.04-.12 0 0 .02.04.03.09.04.13.03.09.05.18.07.27 0 .03.01.06.02.09v-.03c0 .05.01.1.01.15.02.25.02.49.01.74 0 .36.32.7.69.69s.68-.3.69-.69c0-.54 0-1.11-.17-1.63-.16-.47-.4-.89-.73-1.25-.63-.7-1.56-1.13-2.5-1.14-.36 0-.7.32-.69.69s.3.68.69.69ZM105.46 37.09c5.5.37 11 .74 16.49 1.12 5.5.38 10.82.74 16.23 1.12 3.4.23 6.79.47 10.19.71.37.02.69-.34.69-.69 0-.39-.31-.66-.69-.69-5.83-.4-11.67-.81-17.5-1.21-5.32-.37-10.63-.73-15.95-1.09-3.15-.21-6.31-.43-9.46-.64-.37-.02-.69.33-.69.69 0 .39.31.66.69.69ZM51.49 33.54c4.87.31 9.75.63 14.62.94s9.39.61 14.09.92l7.76.51c.37.02.69-.33.69-.69 0-.39-.31-.66-.69-.69-4.63-.31-9.25-.61-13.88-.91-4.63-.3-9.53-.62-14.29-.93l-8.29-.54c-.37-.02-.69.33-.69.69 0 .39.31.66.69.69Z" class="cls-10"/><path d="M148.37 40.02c.11 0 .22 0 .32.02l-.18-.02c.24.03.46.1.68.19l-.16-.07c.22.09.43.22.61.36l-.14-.11c.16.13.31.27.45.43.11.13.32.2.49.2s.37-.07.49-.2c.27-.29.25-.68 0-.97a3.455 3.455 0 0 0-2.55-1.2c-.36 0-.7.32-.69.69s.3.68.69.69ZM51.4 32.16c-1.8-.09-3.35 1.09-4.73 2.09-.75.54-1.48 1.1-2.19 1.69-.61.51-1.21 1.1-1.55 1.84s-.41 1.61-.4 2.41c0 .88 1.38.89 1.37 0 0-.45.02-.86.11-1.28.03-.16.08-.31.13-.47.06-.2-.06.09 0-.03.05-.09.1-.19.15-.29.48-.79 1.32-1.37 2.04-1.93.81-.63 1.65-1.25 2.52-1.8.77-.49 1.6-.92 2.54-.87.37.02.69-.33.69-.69 0-.39-.31-.67-.69-.69Z" class="cls-10"/><path d="M146.57 181.83c1.68-1.42 3.33-2.86 4.96-4.33.28-.25.25-.72 0-.97-.27-.27-.69-.25-.97 0-1.63 1.47-3.28 2.92-4.96 4.33-.28.24-.25.72 0 .97.28.28.69.24.97 0Z" class="cls-15"/><path d="M145.98 180.67c-13.41-.93-26.82-1.84-40.23-2.74-13.39-.9-26.78-1.77-40.17-2.64-7.24-.47-14.48-.94-21.71-1.4V39.97c0-.88-1.37-.89-1.37 0v134.52c-3.35 2.92-6.7 5.85-10.05 8.76l-.9.78c-.1.04-.19.12-.24.21-.34.27-.59.67-.72 1.1-.22.73-.12 1.55-.09 2.3l.11 2.8c.02.39.02.77.04 1.16.02.36.06.75.25 1.06.25.39.64.54 1.09.56h.42c13.17.85 26.35 1.7 39.52 2.57 13.39.88 26.78 1.77 40.17 2.68 7.48.51 14.95 1.02 22.43 1.54.88.06.88-1.31 0-1.37-13.35-.93-26.71-1.84-40.06-2.73-13.36-.89-26.78-1.78-40.17-2.65l-20.9-1.35h-.01c-.31-.06-.62-.06-.93-.06-.14 0-.27-.02-.41-.03v-.05c.02.12 0-.07 0-.1 0-.09 0-.18-.01-.28 0-.22-.02-.45-.02-.68l-.06-1.48c-.04-.94-.12-1.88-.1-2.82v-.25c0-.05 0-.11.01-.16v-.06c.01-.07.03-.13.04-.2 0-.03.01-.04.02-.05.01-.02.02-.05.04-.07.03-.06.07-.12.11-.18.01-.02.02-.03.03-.05 13.33.86 26.67 1.72 40 2.6 13.39.88 26.78 1.77 40.16 2.68 7.47.51 14.93 1.02 22.4 1.54.88.06.88-1.31 0-1.37-13.41-.93-26.82-1.84-40.23-2.74-13.39-.9-26.78-1.77-40.17-2.64-6.89-.45-13.78-.89-20.67-1.33 2.19-1.88 4.36-3.8 6.53-5.7 1.19-1.03 2.37-2.07 3.56-3.11.01-.01.02-.03.03-.04 13.24.85 26.48 1.71 39.72 2.58 13.39.88 26.78 1.77 40.16 2.68 7.47.51 14.93 1.02 22.4 1.54.88.06.88-1.31 0-1.37Z" class="cls-10"/><path d="M161.51 168.35s.09.06.1.08c.08.1.11.22.14.34.07.29.06.61.07.91.02.71 0 1.41-.02 2.12s-.05 1.35-.09 2.02c0 .14-.01.28-.04.42-.01.08-.03.17-.06.25 0 0-.06.17-.02.1-.1.25-.24.35-.44.54-.65.6.32 1.57.97.97.26-.24.51-.5.66-.82.18-.38.25-.79.29-1.21.07-.83.08-1.66.11-2.49.03-.83.05-1.66-.01-2.49-.07-.9-.38-1.75-1.3-2.06-.35-.12-.75.14-.85.48-.1.38.13.73.48.85Z" class="cls-15"/><path d="M110.09 18.61c-.06-.04-.11-.07-.18-.1-4.22-1.73-8.77-2.45-13.33-2.02-1.41.13-2.8.36-4.19.66-.34.07-.55.45-.49.78 0 .06 0 .12.01.18.27 1.35.52 2.71.75 4.07.06.36.52.59.85.48.33-.11.49-.37.49-.69l3.05.31c.08.18.23.33.43.38.22.05.45 0 .61-.13l4.67 1.24c-.09.3 0 .66.3.82.16.08.35.11.52.07-.35 1.26-1.12 4-1.12 4.06 0 .08 2.95-1.58 2.95-1.58s1.19-.58 1.86-1.11c.25.49 1.11.58 1.28-.1.55-2.2 1.15-4.39 1.82-6.56.11-.35-.06-.61-.3-.75Zm-11.76 3.62s.01-.03.02-.05c.02-.08.04-.17.07-.25 0-.02.03-.06.04-.09.06-.12.13-.24.21-.36.01-.01.02-.03.04-.04.05-.05.1-.11.15-.16.05-.05.11-.1.16-.15.02-.01.03-.03.05-.04l.02-.01c.11-.08.23-.16.36-.22.06-.03.11-.06.17-.08.14-.05.28-.09.42-.12.04 0 .08-.01.11-.02h.26c.07 0 .13-.01.2-.03h.22c.18.01.2.02.35.05.14.03.28.06.42.11.05.02.1.04.15.05.02 0 .05.02.07.03.12.06.23.12.34.19.05.03.11.07.16.11.02.02.04.04.07.06.09.08.17.16.25.25.01.01.06.07.07.09.03.04.06.09.09.13.04.06.07.12.1.18.01.02.02.04.03.05 0 .01 0 .02.01.04.05.13.08.27.11.4 0 .03 0 .04.01.05v.04c0 .07 0 .14.01.21s0 .14 0 .21c0 .02-.01.13-.01.14-.02.11-.05.22-.08.33-.02.07-.04.14-.07.2v.02l-.06.12c-.01.02-.02.05-.03.07l-4.48-1.49Z" class="cls-16"/><path d="M108.36 33.99s-.04-.07-.07-.1a3.73 3.73 0 0 1-.78-1.47c-.16-.63-.1-1.28.02-1.91.27-1.44.62-2.87.97-4.3.02-.1.03-.19.01-.28.13-.21.17-.47.03-.7-.17-.3-.64-.47-.94-.25-1.7 1.23-3.54 2.29-5.46 3.14-.34.15-.42.65-.25.94.13.23.35.33.57.33-.13.2-.25.4-.27.48-.06.21-1.16 4.78-1.34 6.23-.1.83.14 1.55.37 2.02-.11.21-.12.48 0 .68.2.33.61.42.94.25 2.2-1.16 4.29-2.52 6.25-4.04.29-.23.24-.73 0-.97-.02-.02-.04-.04-.06-.05Z" style="fill:#cc5e05"/><path d="M161.17 175.13c-1.05.94-2.11 1.86-3.17 2.79-2.07 1.82-4.15 3.63-6.23 5.45l-7.38 6.45c-2.16 1.88-4.32 3.77-6.47 5.65l-2.76 2.4c-.04-2.04 0-4.07.11-6.1 1-.85 1.99-1.72 2.99-2.59 2.08-1.81 4.16-3.62 6.24-5.44l7.38-6.45c2.16-1.88 4.31-3.77 6.47-5.66 1.22-1.07 2.44-2.13 3.65-3.21.05-.04.1-.09.15-.14.28-.25.25-.72 0-.97-.27-.27-.69-.25-.97 0-1.05.94-2.11 1.86-3.17 2.79-2.07 1.82-4.15 3.63-6.23 5.45V42.67c0-.45 0-.9-.09-1.34-.08-.4-.25-.79-.48-1.12-.1-.15-.23-.27-.41-.31a.698.698 0 0 0-.45.03c-.1.03-.19.08-.28.16L148 41.95l-1.02.92c-.15.13-.3.26-.44.4l-.15.15c-.03.03-.07.06-.1.09-.01 0-.02.01-.04.03-.29.21-.46.61-.25.94.18.29.63.47.94.25s.6-.51.89-.77l1.08-.97 1.43-1.29.03.14c.03.28.03.57.03.86v134.09l-6 5.25c-2.16 1.88-4.32 3.77-6.47 5.65-1.22 1.06-2.44 2.13-3.67 3.19-.05.04-.1.09-.16.13-.16.14-.22.35-.19.56v.02c-.15 2.59-.18 5.18-.08 7.76.01.37.31.69.69.69.15 0 .3-.06.42-.15.05-.03.09-.06.14-.09 1.08-.91 2.13-1.84 3.19-2.77 2.08-1.81 4.16-3.62 6.24-5.44l7.38-6.45c2.16-1.88 4.31-3.77 6.47-5.66 1.22-1.07 2.44-2.13 3.65-3.21.05-.04.1-.09.15-.14.28-.25.25-.72 0-.97-.27-.27-.69-.25-.97 0Z" class="cls-4"/></g><g id="Layer_5"><path d="M180.42 195.03c1.69-3.23 2.87-6.72 4.18-10.11.13-.35-.15-.75-.48-.85-.39-.11-.71.13-.85.48-1.27 3.28-2.41 6.65-4.04 9.79-.17.33-.09.75.25.94.31.18.77.08.94-.25Z" class="cls-3"/><path d="M191.9 182.18c-1.07-4.76-2.25-9.5-3.51-14.22a596.86 596.86 0 0 0-3.96-14.06c-.77-2.62-1.55-5.23-2.33-7.84-.25-.85-1.58-.49-1.33.37.04.12.07.24.11.35-.39.05-.93.15-1.46.37-.32.13-1.03.27-1.91.4-.09-.35-.5-.56-.84-.46a.66.66 0 0 0-.49.63c-1.68.19-3.57.33-4.58.33-.27 0-.6-.02-.97-.05a.67.67 0 0 0-.49-.59c-.33-.09-.75.11-.84.45a85.88 85.88 0 0 1-4.09-.62c0-.02.01-.04.02-.06.25-.85-1.07-1.21-1.33-.37-1.4 4.65-2.78 9.31-4.11 13.99-1.34 4.71-2.62 9.44-3.81 14.19-.68 2.72-1.33 5.44-1.94 8.18-.05.22 0 .44.13.61.01.06.03.13.06.19 1.35 2.9 2.75 5.77 4.51 8.43.55.79 1.43 1.37 2.29 1.76.98.45 2.03.75 3.08.98 2.27.51 4.59.71 6.91.75 2.32.04 4.54 0 6.79-.24 2.12-.22 4.27-.64 6.22-1.51 1.15-.52 2.25-1.31 3.09-2.29.08-.05.15-.12.2-.21.04-.06.07-.12.11-.18.31-.42.58-.86.79-1.33 1.3-2.28 2.38-4.68 3.53-7.04.15-.15.23-.37.2-.59 0-.11-.02-.22-.06-.32Z" class="cls-3"/><path d="M166.88 194.12c-1.18-2.98-1.96-6.08-2.68-9.19-.08-.36-.5-.58-.85-.48-.37.1-.56.48-.48.85.72 3.11 1.5 6.22 2.68 9.19.14.34.46.59.85.48.33-.09.62-.5.48-.85Z" class="cls-3"/><path d="M183.68 134.17c-.26-.43-.56-.82-.9-1.17-.25-.31-.54-.59-.84-.83-.59-.44-1.32-.69-2.02-.92-1.22-.42-2.47-.6-3.75-.68-.42-.03-.85-.04-1.27-.06h-.04c-1.82-.06-3.65-.02-5.46.18-.94.11-1.86.25-2.79.44s-1.76.39-2.59.75c-.58.25-1.11.63-1.52 1.1-.94.89-1.63 2.01-1.96 3.27-.41 1.56-.18 3.21.43 4.68.11.25.22.5.35.74-.42.36-.65.93-.69 1.49-.06.82.36 1.74.85 2.41.39.53.86.9 1.41 1.27.46.31.96.64 1.49.82.03.01.06.01.09.02.6.23 1.22.4 1.84.54 1.31.29 2.66.44 4 .5 1.34.06 2.6.04 3.9-.02s2.48-.16 3.69-.42c1.17-.24 2.43-.62 3.47-1.25.26-.15.5-.32.74-.48.55-.37 1.01-.74 1.4-1.28.48-.66.89-1.53.83-2.36-.05-.59-.29-1.19-.75-1.54.49-.85.84-1.78.98-2.76.22-1.55-.09-3.1-.9-4.45Z" class="cls-13"/><path d="M167.19 134.39v-.02l-.07-.17v-.03l-.11-.15s-.01-.02-.02-.02h-.01c-.03-.03-.11-.08-.14-.11s-.02-.01-.02-.02l-.16-.07-.18-.02h-.09c-.06.01-.12.03-.17.06-.03.01-.06.02-.09.04 0 0-.02 0-.02.02-.05.04-.11.08-.16.12 0 0-.01.02-.02.02-.04.05-.08.1-.11.15v.02s0 .02-.01.03c0 0-.06.12-.07.18 0 .06-.02.15-.02.2v.07c0 .09.02.18.06.27.03.09.07.16.14.22 0 .01.02.02.03.03l.03.03c.01.01.03.02.04.03 0 0 .05.04.07.06s.06.03.08.04c.03.01.06.02.09.04.03.01.08.01.11.02.02 0 .08.02.11.01s.16-.02.18-.02h.02l.16-.07s.01 0 .02-.01.11-.09.14-.11h.01v-.01c.02-.02.09-.11.11-.14 0 0 0-.01.01-.02.03-.06.06-.12.08-.18v-.01l.02-.19v-.03c0-.07-.01-.14-.03-.21ZM171.08 132.92s0-.02-.02-.02l-.03-.03c-.04-.06-.07-.11-.12-.16l-.07-.05s-.05-.04-.07-.06c-.05-.02-.11-.05-.17-.07-.14-.05-.26-.03-.41 0h-.02c-.03 0-.08.03-.09.04-.02 0-.06.02-.09.04h-.01c-.06.03-.11.08-.16.12s0 .01 0 .01l-.11.14s-.01.02-.02.03c-.01.02-.07.13-.08.19s-.02.13-.02.2v.02l.02.19v.04c.02.06.05.13.07.18 0 .01.01.02.02.03v.01l.12.15.03.03.01.01.14.11.16.07c.1.03.27.03.37 0 .07-.02.13-.05.19-.08 0 0 .02 0 .02-.01.06-.04.11-.08.16-.13 0 0 .02-.01.02-.02.03-.04.08-.1.11-.14s0-.02 0-.02c.07-.14.11-.24.11-.4s-.04-.26-.11-.4ZM175.64 133.23s0-.07-.01-.1v-.01l-.07-.17v-.02c-.04-.05-.07-.1-.11-.15a.481.481 0 0 0-.16-.12l-.1-.05a.65.65 0 0 0-.22-.11l-.18-.02a.73.73 0 0 0-.35.09s-.01 0-.02 0-.1.08-.14.11l-.01.02c-.04.05-.08.1-.12.16 0 0 0 .01-.01.02l-.07.17v.03l-.03.2v.04c0 .06.02.13.02.19v.02l.07.17v.02c.03.06.08.11.12.16 0 0 0 .01.02.02s.1.08.14.11h.02c.03.02.13.06.17.07s0 0 .01 0c.03 0 .08.01.11.02s.07.01.11.01h.02s.15-.02.18-.02h.01c.03 0 .07-.03.1-.04s.07-.02.1-.04c.02-.02.06-.05.07-.06.01 0 .05-.04.07-.06 0 0 .01 0 .02-.02.04-.05.09-.1.12-.16v-.01l.07-.17v-.03l.03-.19v-.03s-.01-.08-.01-.09ZM179.48 134.51s0-.07-.01-.1v-.03c-.02-.05-.04-.12-.08-.18v-.02l-.05-.07a.656.656 0 0 0-.19-.18l-.08-.03a.337.337 0 0 0-.17-.05h-.09v-.01h-.07l-.06.02c-.03 0-.06 0-.09.01s-.08.03-.1.04a.26.26 0 0 0-.1.04s-.03.01-.04.02c-.03.02-.07.05-.08.06-.02.01-.06.04-.08.06-.02.03-.04.05-.06.07-.02.02-.04.05-.05.07v.01s-.06.15-.07.17 0 .01 0 .02c0 .03-.01.1-.01.09 0 0-.01.07-.01.09v.02s.02.16.02.18v.02c.02.06.04.12.08.18s.11.15.11.15l.01.01s.06.05.07.06c.02.02.05.04.07.06h.01s.07.03.08.04.06.02.09.04h.02s.08.01.09.01c.01 0 .06 0 .09.01h.02c.07 0 .13-.01.2-.03h.01c.03 0 .07-.03.09-.04.02 0 .06-.02.09-.04h.01c.02-.02.12-.09.14-.11.04-.04.08-.1.12-.15V135c.02-.06.05-.13.07-.18v-.02a.78.78 0 0 0 .03-.22v-.02s-.01-.08-.01-.1ZM175.57 136.31v-.04c-.02-.06-.05-.13-.07-.18 0-.01-.01-.02-.02-.03v-.01l-.12-.15-.03-.03-.01-.01-.14-.11-.16-.07a.772.772 0 0 0-.37 0c-.07.02-.13.05-.19.08 0 0-.02 0-.02.01-.06.04-.11.08-.16.13 0 0-.02.01-.02.02-.03.04-.08.1-.11.14s0 .02 0 .02c-.07.14-.11.24-.11.4s.04.26.11.4c0 0 0 .02.02.02l.03.03c.04.06.07.11.12.16l.07.05s.05.04.07.06c.05.02.11.05.17.07.14.05.26.03.41 0h.02c.03 0 .08-.03.09-.04.02 0 .06-.02.09-.04h.01c.06-.03.11-.08.16-.12s0-.01 0-.01l.11-.14s.01-.02.02-.03c.01-.02.07-.13.08-.19s.02-.13.02-.2v-.02l-.02-.19ZM171.15 136.27v-.02l-.07-.17v-.02c-.03-.06-.08-.11-.12-.16 0 0 0-.01-.02-.02s-.1-.08-.14-.11h-.02a.865.865 0 0 0-.17-.07s0 0-.01 0c-.03 0-.08-.01-.11-.02s-.07-.01-.11-.01h-.02s-.15.02-.18.02h-.01c-.03 0-.07.03-.1.04s-.07.02-.1.04c-.02.02-.06.05-.07.06-.01 0-.05.04-.07.06 0 0-.01 0-.02.02-.04.05-.09.1-.12.16v.01l-.07.17v.03l-.03.19v.03s.01.08.01.09c0 .02 0 .07.01.1v.01l.07.17v.02c.04.05.07.1.11.15.04.05.1.09.16.12l.1.05c.07.05.14.09.22.11l.18.02c.12 0 .24-.03.35-.09s.01 0 .02 0 .1-.08.14-.11l.01-.02c.04-.05.08-.1.12-.16 0 0 0-.01.01-.02l.07-.17v-.03l.03-.2v-.04c0-.06-.02-.13-.02-.19Z" class="cls-6"/></g><g id="Layer_16"><path d="M171.8 172.3c-.92 1.6-1.84 3.2-2.76 4.79 2.03.2 4.08.24 6.12.13a97.05 97.05 0 0 0-3.35-4.93ZM182.15 194.75c.57-.14 1.08-.29 1.48-.45.22-.09.42-.18.62-.27-.31-.44-.62-.87-.93-1.3-.39.67-.78 1.35-1.17 2.02ZM160.58 158.45l-.12.42c.13 0 .25 0 .38-.02a9.05 9.05 0 0 1-.26-.4Z" class="cls-1"/><path d="M181.33 188.07c.59-1.02 2.36-1.46 3.18-.41 1.01 1.29 1.98 2.6 2.93 3.93.15-.19.22-.31.22-.31s4.46-8.18 4.37-8.79c-.02-.13-.12-.57-.28-1.21l-.93-.12c-1.52.62-3.61-1.07-2.55-2.89.64-1.11 1.28-2.21 1.91-3.32-.42-1.69-.83-3.37-1.15-4.71-.31-1.32-1.1-4.14-2.02-7.39-2.62.07-5.25-.1-7.86-.47-1.52.62-3.61-1.07-2.56-2.89l5.94-10.29c.1-.17.22-.31.38-.45-.36-1.23-.59-1.99-.59-1.99-9.13 4.55-18.53.67-18.53.67s-.47 1.58-.95 3.17c-.1.32-.39 1.34-.8 2.78 1.41 2.01 2.75 4.07 4 6.19.86 1.45-.29 2.86-1.75 3.05a43.5 43.5 0 0 1-4.96.34c-1.29 4.58-2.5 8.86-2.74 9.69a49.9 49.9 0 0 0-.53 2.1c.64.99 1.27 2 1.87 3.02.86 1.45-.29 2.86-1.75 3.05-.52.07-1.03.12-1.55.17-.29 1.31-.49 2.24-.49 2.24s.35 1.28.6 1.92c.09.23.48 1.1 1.04 2.21.74-.76 2.2-1 2.92-.07 1.99 2.55 3.86 5.18 5.61 7.9 2.06.43 4.25.63 5.65.75 1.39.12 4.23 0 7.04-.31 1.45-2.51 2.89-5.02 4.34-7.53Zm-14.89-7.25c-1.52.62-3.61-1.07-2.55-2.89l5.94-10.29c.59-1.02 2.36-1.46 3.18-.41 2.66 3.42 5.12 6.97 7.33 10.7.86 1.45-.29 2.86-1.75 3.05-4.06.52-8.11.43-12.14-.15Z" class="cls-1"/><path d="M185.84 158.82c-.48-1.66-.96-3.32-1.41-4.86-.9 1.56-1.8 3.11-2.69 4.67 1.37.13 2.74.19 4.11.19Z" class="cls-1"/><path d="M166.02 159.55a93.322 93.322 0 0 0-4-6.19c-.39 1.39-.9 3.17-1.44 5.09.09.13.18.27.26.4-.13 0-.25.01-.38.02-.37 1.33-.76 2.71-1.14 4.07 1.65-.02 3.3-.13 4.96-.34 1.46-.19 2.61-1.59 1.75-3.05ZM178.58 180.97c1.46-.19 2.61-1.59 1.75-3.05-2.21-3.73-4.67-7.28-7.33-10.7-.82-1.05-2.59-.61-3.18.41l-5.94 10.29c-1.05 1.83 1.03 3.51 2.55 2.89 4.04.58 8.09.67 12.14.15Zm-9.55-3.88c.92-1.6 1.84-3.2 2.76-4.79 1.17 1.61 2.29 3.25 3.35 4.93-2.04.1-4.08.07-6.12-.13ZM182.51 149.17l-5.94 10.29c-1.05 1.83 1.03 3.51 2.56 2.89 2.62.38 5.24.54 7.86.47l-1.15-4.01c-1.37 0-2.74-.05-4.11-.19.9-1.56 1.8-3.11 2.69-4.67-.61-2.08-1.15-3.93-1.54-5.23-.15.13-.28.28-.38.45ZM190.81 181.15c.31.04.62.09.93.12-.35-1.43-.96-3.89-1.57-6.34-.64 1.11-1.28 2.21-1.91 3.32-1.05 1.83 1.03 3.51 2.55 2.89ZM181.33 188.07c-1.45 2.51-2.89 5.02-4.34 7.53 1.87-.2 3.73-.49 5.16-.84.39-.67.78-1.35 1.17-2.02.31.43.63.87.93 1.3 1.79-.84 2.79-1.93 3.19-2.45-.94-1.33-1.92-2.64-2.93-3.93-.82-1.05-2.59-.61-3.18.41ZM155.77 187.32c1.01 2 2.55 4.78 3.86 5.97.98.89 2.77 1.47 4.67 1.86a103.59 103.59 0 0 0-5.61-7.9c-.72-.92-2.18-.69-2.92.07ZM157.91 177.74a84.46 84.46 0 0 0-1.87-3.02c-.45 1.86-1.02 4.42-1.43 6.23.52-.05 1.03-.1 1.55-.17 1.46-.19 2.61-1.59 1.75-3.05Z" class="cls-8"/></g><path d="M77.54 139.99c-3-3.84-6.9-6.75-11.27-8.42-2.25-.86-4.7-1.34-7.29-1.41-.44-.01-.96.02-1.55.06-.63.04-2.08.13-2.98.03-.17-.79-.5-1.52-.95-2.17-.04.63-.07 1.26-.11 1.89-.27 4.09-.63 8.18-1.1 12.25 1.72.3 3.36.32 4.85.34 2.25.03 4.19.05 5.98.95 3.4 1.72 6.07 5 6.81 8.35.38 1.72.25 3.33-.38 4.84 4.1.38 8.19.73 12.3 1.04 1.31-6.05-.13-12.41-4.3-17.75ZM135.38 73.76c-9.13-4.14-19.61-2.11-29.12-.27-5.36 1.04-10.42 2.03-15.07 1.98-7.5-.06-14.53-3.8-19.8-10.54-2.88-3.69-4.79-7.47-5.52-10.94-.54-2.56-.21-6.75 2.88-7.82.7-.24 1.31-.58 1.83-.98-3.6-.23-7.2-.44-10.79-.74-1.58-.13-3.16-.29-4.74-.46-.44 1.1-.78 2.25-1.02 3.46.01 3.06.03 6.12.04 9.19.36 1.91.93 3.82 1.71 5.67 4.26 10.06 11.92 18.18 21.01 22.28 11.02 4.96 22.07 2.69 32.75.5l1.3-.27c15.48-3.16 20.93.18 23.95 3.44.26.28.54.52.83.74-.09-4.93-.18-9.85-.23-14.78v-.46ZM101.85 56.67c1.46.76 2.91 1.61 4.44 2.51 4.97 2.91 10.52 6.17 17.03 6.17.83 0 1.67-.05 2.53-.17 3.55-.47 6.8-2.04 9.52-4.49.03-2.7.08-5.41.17-8.11.03-.89.06-1.77.1-2.66.09-.4-.12-.88-.64-.89-1.89-.03-3.79-.09-5.68-.18-1.16 2.15-3.19 4.48-6.54 4.24-3.58-.26-6.94-2.32-10.5-4.51-.46-.28-.92-.56-1.39-.85-1.08-.06-2.16-.12-3.25-.16-.37-.02-.69.33-.69.69 0 .39.31.67.69.69h.08c-.21.64-.49 1.6-.5 2.23-.01 1.01.84 2.22.84 2.22l-9.24-.5c.38 1.6 1.44 2.94 3.02 3.76ZM122.25 115.94c-3.72-8.91-13.16-15.11-23.49-15.45-6.47-.21-11.93 2.24-17.22 4.6-2.94 1.31-5.71 2.55-8.6 3.34-3.78 1.03-7.94.24-11.11-2.09-3.03-2.23-4.77-5.5-4.91-9.2-.08-2.1-1.13-3.85-2.72-4.89.03 7.85.02 15.71-.19 23.55 1.81 1.46 3.84 2.69 6.04 3.62 9.79 4.12 18.94.06 27.01-3.53l.76-.34c4.62-2.05 8.5-3.29 12.41-2.69 4.2.65 8.04 3.09 10.02 6.36 1.98 3.27 1.67 6.23-.95 9.05-.62.66-1.24 1.31-1.86 1.95-2.76 2.85-5.62 5.8-7.49 9.92-2.86 6.3-3.03 12.99-.93 18.71 4.53.24 9.07.45 13.61.61l1.95.06c-3.09-1.87-4.16-4.57-4.51-6.56-.68-3.96.83-8.66 3.86-11.98.69-.76 1.43-1.49 2.21-2.27 2.35-2.35 4.79-4.77 6.3-8.22 1.95-4.44 1.88-9.61-.19-14.57Z" class="cls-7"/><g id="Layer_14"><path d="M88.7 85.29c-.65-1.13-1.47-2.17-2.42-3.06-.52-.48-1.08-.91-1.72-1.21-.63-.3-1.3-.53-1.97-.71-2.78-.77-5.84-.83-8.58.16-.52.19-1.02.41-1.5.67-.02 0-.03.01-.05.02-1.99.92-3.68 2.35-5.25 3.85C65.64 86.51 64 88 63.18 90c-.47 1.13-.63 2.4-.28 3.59.16.56 1.03.32.87-.24-.57-2 .53-3.95 1.82-5.41.67-.76 1.4-1.46 2.13-2.16.04-.04.08-.07.12-.11-.34.59-.63 1.22-.82 1.88-.78 2.6-.48 5.54.56 8.03.98 2.36 2.63 4.42 4.82 5.76 2.17 1.33 4.82 1.95 7.35 1.64 1.39-.17 2.7-.64 3.97-1.23.2-.09.4-.19.6-.29-.3.29-.61.57-.92.85-.85.76-1.75 1.45-2.7 2.1-.47.32-.02 1.1.45.78a29.16 29.16 0 0 0 4.82-4.12c.72-.77 1.39-1.58 2.02-2.43.66-.89 1.27-1.83 1.6-2.89.02-.05.03-.1.04-.16.34-.89.58-1.83.69-2.79.32-2.58-.32-5.24-1.61-7.49Zm-6.55 7.63c-.64 1.64-2.38 2.94-4.18 2.71-1.73-.22-2.96-1.82-3.27-3.45-.27-1.44.2-3.03 1.23-4.07.64-.6 1.51-.91 2.39-.87.92.04 1.77.21 2.53.75 1.56 1.12 1.97 3.2 1.3 4.93ZM115.27 80.45c-.44-.28-1.11-.17-1.61-.18-.63 0-1.25-.01-1.87-.01-1.24 0-2.48-.02-3.72 0-.29-.02-.57.02-.84.11-.24.07-.46.17-.66.33-.08.05-.16.1-.23.16a20 20 0 0 0-1.65 1.4c-1.05.97-2.01 2.02-2.89 3.14-.15.19-.19.45 0 .64.16.16.49.19.64 0 .12-.15.25-.3.37-.45-.95 1.3-1.88 2.61-2.8 3.92l-2.1 3c-2.34 3.23-4.69 6.45-7.03 9.68-2.59 3.56-5.18 7.12-7.76 10.69l-4.4 6.05c-.17.24 0 .64.28.69.6.11 1.19.14 1.78.1H85c.36 0 .72.02 1.09.01-1.21 1.4-2.59 2.66-4.12 3.73-.47.33-.02 1.11.45.78a23.51 23.51 0 0 0 6.03-6.11c.08-.1.16-.21.24-.31.64-.83 1.27-1.66 1.89-2.51.52-.72 1.04-1.44 1.55-2.17.1-.04.2-.11.26-.2l8.89-12.46c2.3-3.22 4.58-6.45 6.92-9.63 1.17-1.59 2.35-3.18 3.59-4.72.76-.94 1.52-1.89 2.26-2.85.37-.48.74-.96 1.11-1.45.15-.2.36-.4.41-.65a.695.695 0 0 0-.31-.72ZM126.23 103.15c-1.02-2.06-2.7-3.86-4.79-4.86-1.29-.62-2.7-.98-4.11-1.2-1.49-.23-2.95-.23-4.41.17-.03 0-.06.02-.09.03-.67.13-1.32.33-1.94.59-1.4.38-2.69 1.13-3.84 2.04-1.58 1.26-2.98 2.78-4.21 4.35-.72.91-1.37 1.87-1.92 2.9-.27.51.51.97.78.45.89-1.7 2.09-3.2 3.4-4.59.09-.1.18-.19.27-.29-.49.85-.87 1.77-1.12 2.73-1.3 5 .64 10.91 5.29 13.46 2.44 1.34 5.27 1.69 8 1.32 1.05-.14 2.13-.37 3.14-.74-.24.27-.5.52-.77.77-.14.13-.16.33-.09.5-.87.73-1.79 1.58-2.88 1.92-.55.17-.31 1.04.24.87 1.1-.35 1.99-1.11 2.88-1.83s1.78-1.5 2.59-2.34c1.59-1.64 2.84-3.54 3.65-5.67.03-.07.05-.14.08-.21.47-1.07.8-2.2.96-3.37.32-2.4-.02-4.84-1.09-7.01Zm-6.38 5.77c-.04.98-.37 1.97-1.05 2.69-.71.77-1.7 1.09-2.72 1.18-1.01.09-2.02-.08-2.85-.69-1.43-1.06-1.96-3-1.37-4.66a4.83 4.83 0 0 1 1.84-2.32c.11-.08.23-.15.35-.21.8-.43 1.8-.43 2.67-.23.86.2 1.78.51 2.37 1.21.32.38.47.87.59 1.34.13.55.2 1.11.17 1.68Z" class="cls-11"/></g><g id="Layer_7"><path d="M75.22 107.47c1.39-.17 2.7-.64 3.97-1.23 1.23-.57 2.4-1.3 3.38-2.26 1.82-1.78 2.93-4.19 3.24-6.7.32-2.58-.32-5.24-1.61-7.49-.65-1.13-1.47-2.17-2.42-3.06-.52-.48-1.08-.91-1.72-1.21-.63-.3-1.3-.53-1.97-.71-2.78-.77-5.84-.83-8.58.16-.68.25-1.34.56-1.97.93-.02 0-.04.02-.06.03-.01 0-.02.01-.03.02-1.12.67-2.12 1.53-2.94 2.55-.9 1.05-1.63 2.24-2.02 3.54-.78 2.6-.48 5.54.56 8.03.98 2.36 2.63 4.42 4.82 5.76 2.17 1.33 4.82 1.95 7.35 1.64Zm-3.8-14.86c.64-.6 1.51-.91 2.39-.87.92.04 1.77.21 2.53.75 1.56 1.12 1.97 3.2 1.3 4.93-.64 1.64-2.38 2.94-4.18 2.71-1.73-.22-2.96-1.82-3.27-3.45-.27-1.44.2-3.03 1.23-4.07ZM107.29 90.6c.76-.94 1.52-1.89 2.26-2.84.37-.48.74-.96 1.11-1.45.15-.2.36-.4.41-.65a.695.695 0 0 0-.31-.72c-.44-.28-1.11-.17-1.61-.18-.63 0-1.25-.01-1.87-.01-1.24 0-2.48-.02-3.72 0-.6.01-1.17.12-1.62.54-.19.17-.33.37-.47.58-.69.77-1.28 1.65-1.9 2.48A252.75 252.75 0 0 0 95.5 94l-2.1 3c-2.34 3.23-4.69 6.45-7.03 9.68-2.59 3.56-5.18 7.12-7.76 10.69l-4.4 6.05c-.17.24 0 .64.28.69.6.11 1.19.14 1.78.1h4.22c.52 0 1.06.04 1.58-.02.48-.05.83-.28 1.13-.65.33-.41.66-.83.98-1.24.64-.83 1.27-1.66 1.89-2.51.52-.72 1.04-1.44 1.55-2.17.1-.04.2-.11.26-.2l8.89-12.46c2.3-3.22 4.58-6.45 6.92-9.63 1.17-1.59 2.35-3.18 3.59-4.72ZM121.73 107.65c-1.02-2.06-2.7-3.86-4.79-4.86-1.29-.62-2.7-.98-4.11-1.2-1.49-.23-2.95-.23-4.41.17-.03 0-.06.02-.09.03-4.11.82-7.53 4.09-8.59 8.18-1.3 5 .64 10.91 5.29 13.46 2.44 1.34 5.27 1.69 8 1.32 1.38-.19 2.79-.52 4.05-1.13 1.08-.52 1.93-1.39 2.7-2.29 1.62-1.89 2.7-4.19 3.04-6.66.32-2.4-.02-4.84-1.09-7.01Zm-14.36 4.3c.34-.94 1.01-1.77 1.84-2.32.11-.08.23-.15.35-.21.8-.43 1.8-.43 2.67-.23.86.2 1.78.51 2.37 1.21.32.38.47.87.59 1.34.13.55.2 1.11.17 1.68-.04.98-.37 1.97-1.05 2.69-.71.77-1.7 1.09-2.72 1.18-1.01.09-2.02-.08-2.85-.69-1.43-1.06-1.96-3-1.37-4.66Z" class="cls-6"/></g><path d="M109.87 44.28s-.05-.08-.09-.12c-.98-1.19-2.32-2.01-3.66-2.73-1.25-.67-2.54-1.27-3.53-2.3-.42-.43-.78-.94-.96-1.48-.25-.75-.19-1.52-.04-2.29.34-1.76.77-3.5 1.21-5.23.5-1.95 1.04-3.89 1.63-5.82.11-.36-.07-.63-.32-.76-.05-.03-.1-.06-.16-.08-4.22-1.73-8.77-2.45-13.33-2.02-1.41.13-2.8.36-4.19.66-.34.07-.54.45-.49.78 0 .06 0 .12.01.19.71 3.53 1.28 7.09 1.68 10.67.09.83.18 1.68-.08 2.49-.18.55-.54 1.06-.98 1.48-.95.92-2.22 1.44-3.42 1.93-1.62.66-3.25 1.37-4.51 2.61-.04.03-.07.07-.1.11 0 .01-.02.02-.03.04-.86 1.42-1.56 3-1.94 4.61-.38 1.62-.36 3.43.71 4.85l.01.01c.09.14.24.24.4.29h.01c.03 0 .06.01.1.02h.07c4.03.27 8.07.53 12.11.79 3.75.25 7.5.49 11.25.74 2.34.16 4.67.31 7.01.47.37.02.69-.33.69-.69 0-.28-.16-.49-.38-.6-.33-.47-.57-.99-.64-1.57-.09-.77.03-1.55.22-2.29.37-1.43.99-2.81 1.75-4.08l.03-.06c0-.01.01-.03.02-.04.1-.23.05-.44-.07-.61Z" class="cls-11"/></g><g id="Outline"><path d="M142.5 180.66c.02-.34-22.08-1.82-49.37-3.31-27.28-1.49-49.42-2.43-49.44-2.09s22.08 1.82 49.37 3.31c27.28 1.49 49.42 2.43 49.44 2.09ZM127.25 191.13c.03-.34-20.28-2.12-45.35-3.99s-45.41-3.11-45.44-2.77c-.03.34 20.28 2.12 45.35 3.99s45.41 3.11 45.44 2.77ZM164.2 185.54c.07-.33-2.14-1.05-4.92-1.61-2.79-.56-5.1-.74-5.17-.41s2.14 1.05 4.92 1.61 5.1.74 5.17.41Z" class="cls-6"/><path d="M184.22 185.45c0-.34-4.61-.59-10.3-.55s-10.3.33-10.3.67 4.61.59 10.3.55c5.69-.03 10.3-.33 10.3-.67Z" class="cls-6"/><path d="M191.52 181.55c-.15-.3-2.2.39-4.59 1.56-2.39 1.16-4.2 2.36-4.05 2.66.15.3 2.2-.39 4.59-1.56 2.39-1.16 4.2-2.36 4.05-2.66ZM184.28 141.84c-.19-.31-1.47.18-3.52.77-.26.07-.52.15-.8.23-.28.07-.57.14-.88.21-.6.17-1.26.27-1.94.42-1.37.23-2.89.42-4.49.5-1.6.05-3.13-.02-4.51-.14-.69-.09-1.35-.14-1.96-.26-.31-.05-.6-.1-.89-.14-.28-.06-.56-.11-.82-.17-2.08-.43-3.4-.82-3.57-.49-.15.27.93 1.24 3.05 2.14.27.11.55.22.84.34.29.11.61.2.93.3.64.22 1.35.35 2.1.52 1.5.27 3.18.41 4.94.36 1.76-.08 3.42-.36 4.89-.74.73-.22 1.43-.41 2.05-.68.31-.13.62-.24.9-.37.28-.14.55-.27.81-.4 2.04-1.07 3.04-2.12 2.87-2.38ZM184.02 136.48c-.11-.16-1.26.54-3.23 1.34-.25.1-.51.2-.77.31-.27.09-.56.19-.86.29-.58.22-1.24.36-1.91.55-1.36.32-2.88.57-4.49.69-1.61.1-3.15.03-4.54-.11-.69-.1-1.36-.16-1.97-.3-.62-.1-1.18-.24-1.7-.37-2.06-.53-3.29-1.07-3.38-.89-.07.12 1.04.94 3.13 1.72.52.19 1.1.39 1.73.54.63.18 1.32.29 2.04.43 1.45.21 3.07.31 4.77.21 1.69-.12 3.29-.42 4.7-.82.7-.23 1.37-.42 1.97-.69.3-.13.59-.24.87-.37.27-.14.53-.27.78-.39 1.96-1.04 2.95-2.01 2.87-2.12ZM82.04 40.17c.02-.34-8.95-1.27-20.06-2.09-11.1-.82-20.12-1.21-20.15-.87s8.95 1.27 20.06 2.09c11.1.82 20.12 1.21 20.15.87ZM145.18 44.56c.01-.34-8.16-.97-18.25-1.41-10.09-.44-18.29-.52-18.3-.19s8.16.97 18.25 1.41c10.09.44 18.29.52 18.3.19ZM104.65 45.07c.02-.34-5.08-.84-11.38-1.13-6.3-.28-11.42-.24-11.44.1-.02.34 5.08.84 11.38 1.13 6.3.28 11.42.24 11.44-.1Z" class="cls-6"/><path d="M183.65 185.32c.33-.05-.33-6.2-1.48-13.73s-2.35-13.6-2.69-13.55c-.33.05.33 6.2 1.48 13.73s2.35 13.6 2.69 13.55Z" class="cls-6"/><path d="M180.82 195.04c.33.09 1.21-2.04 1.99-4.76.77-2.72 1.13-5 .81-5.09-.33-.09-1.21 2.04-1.99 4.76-.77 2.72-1.13 5-.81 5.09ZM163.67 187.13c.33.05 1.66-6.33 2.96-14.26s2.09-14.41 1.75-14.46c-.33-.05-1.66 6.33-2.96 14.26s-2.09 14.41-1.75 14.46Z" class="cls-6"/><path d="M166.21 194.97c.33-.09.02-2.24-.67-4.81-.7-2.57-1.53-4.58-1.86-4.49-.33.09-.02 2.24.67 4.81.7 2.57 1.53 4.58 1.86 4.49Z" class="cls-6"/></g></svg>