<svg xmlns="http://www.w3.org/2000/svg" width="200" height="200" viewBox="0 0 200 200"><defs><style>.cls-3{fill:#ff8100}.cls-7{fill:#db552a}.cls-8{fill:#f7b3c2}.cls-9{fill:#fff}.cls-13{fill:#ca919e}.cls-16{fill:#b2c8ca}.cls-19{fill:#f5c141}.cls-20{fill:#f05f2b}.cls-21{fill:#5b3d5b}</style></defs><path id="BG_Strong_Light" d="M38.58 157.45c27.8.87 54.45-8.6 81.73-12.24 30.7-3.14 77.97-.17 69.13-45.44-2.16-15.52-2.14-37.68-7.14-56.17-5.31-19.67-24.37-32.47-44.63-30.31-29.32 3.13-68.93 4.07-96.48 15.48C18.3 38.25 3.73 54.95 10.3 86.13c6.98 22.45-3.94 68 28.28 71.32" data-name="BG_Strong Light" style="fill:#edebe8"/><path id="BG_Strong_Dark" d="M38.58 157.45c27.8.87 54.45-8.6 81.73-12.24 30.7-3.14 77.97-.17 69.13-45.44-2.16-15.52-2.14-37.68-7.14-56.17-5.31-19.67-24.37-32.47-44.63-30.31-29.32 3.13-68.93 4.07-96.48 15.48C18.3 38.25 3.73 54.95 10.3 86.13c6.98 22.45-3.94 68 28.28 71.32" data-name="BG_Strong Dark" style="fill:#575655"/><g id="Illustrations"><g id="Outline"><path d="M197.17 55.4c0-.7-.3-1.32-.56-1.88l-.1-.22" class="cls-16"/><path d="M197.17 55.4c0-.7-.3-1.32-.56-1.88l-.1-.22" style="fill:#bfd8dc"/><path d="M139.72 185.5h-.02" style="fill:none;stroke-linecap:round;stroke-linejoin:round;stroke:#a0b3b4"/><path d="M90.93 155.31q.15.03.23.16l2.46.77q1.87-6.4 3.77-12.78l4.35-14.67q2.22-7.51 4.37-15.04l4.26-14.92 4.22-14.73q.02-.07.07-.13l1.8-6.26 2.23-7.77-2.52-.73q-.08.04-.17.04a.3.3 0 0 1-.21-.13.3.3 0 0 1-.05-.19l-.81 2.76 1.23.42a.3.3 0 0 1 .22-.05c.16.02.31.2.27.36l-.58 2.2a166 166 0 0 1-2.24 7.52c-.05.17-.28.23-.42.16a.3.3 0 0 1-.15-.15q-.61-.16-1.23-.36l-.01.03-1.07 3.73-.07.13-3.78 13.2-2.61 9.12c.16-.06.35.03.41.19l.85 2.3c.14.04.24.16.19.33l-3.48 12.31c-.05.17-.19.24-.33.25l-1.89 1.8q-.15.15-.34.1c-.11-.03-.23-.15-.23-.28v-.25l-.41 1.43q-2.02 6.9-4.08 13.79l-3.08 10.4-.99 3.34-.52 1.78v.01c.05-.15.17-.27.35-.24Zm57.67 28.3c-2.52.48-5.05-.61-7.46-1.22-1.86-.47-3.74-.89-5.59-1.37l-.81-.2a369 369 0 0 1-11.29-3.07l-10.6-3.04q-2.67-.74-5.33-1.53l-6.42-1.92-2.87-.86-1.28-.39q-.98-.25-1.94-.61a5.4 5.4 0 0 1-2.64-2.22 6 6 0 0 1-.67-3.48c.08-1.04.32-2.04.62-3.03l.06-.2v-.02l.08-.28.24-.83-2.57-.74a.4.4 0 0 1-.22-.15q-.13-.12-.1-.28l-.02.04-.87 2.97-.01.02q-.17.54-.32 1.1l-.14.47v.13q-.4 1.94-.2 3.92a6 6 0 0 0 1.17 2.96 7.4 7.4 0 0 0 2.65 2.24c.63.32 1.32.52 2 .73l1.05.3 2.14.65 6.45 1.93q2.69.78 5.39 1.54 5.37 1.52 10.72 3.08a341 341 0 0 0 11.8 3.2c2.12.57 4.27 1.06 6.39 1.61l1 .26.42.12.19.05.06.02h.02l.04.01h.02l.06.02q1.26.36 2.53.64c.84.2 1.71.42 2.57.48a6.4 6.4 0 0 0 3.7-.77 7 7 0 0 0 2.45-2.59 31 31 0 0 0 1.49-3.14q-.27.57-.59 1.12a5 5 0 0 1-3.39 2.33ZM116.42 66.56v-.06c.02-.16.2-.32.36-.27l2.73.83a15 15 0 0 1 1.81-4.38 5.3 5.3 0 0 1 1.97-1.83c.62-.3 1.34-.39 2.02-.38q1.25.02 2.45.34l-.03-.03a11.6 11.6 0 0 0-5.86-.44q-1.1.23-2.05.82a6 6 0 0 0-1.8 1.88 16 16 0 0 0-1.89 4.43q0-.05.03-.08.11-.42.24-.83Z" class="cls-13"/><path d="m100.27 124.3 1.56-1.49.07-.05 3.33-11.8-.04-.07-.86-2.31-1.05 3.68q-1.7 5.98-3.44 11.95l.12-.07q.2-.01.32.16Z" class="cls-13"/><path d="m186.65 86.24-.07.04" style="stroke:#eeece9;fill:none;stroke-linecap:round;stroke-linejoin:round"/><path d="M154.55 172.18q1.81-5.75 3.55-11.52 3.4-11.34 6.57-22.73 3.17-11.36 6.26-22.73 3.09-11.33 6.27-22.64l.01-.16.45-1.46q.59-1.98 1.15-3.97l.72-2.48c.24-.82.48-1.64.56-2.49a5.7 5.7 0 0 0-1.77-4.84c-1.32-1.15-3-1.64-4.63-2.14q-6.5-2.03-13.03-4.01a1084 1084 0 0 0-22.4-6.54h-.08l-1.37-.4-1.99-.55-.11-.05-1.82-.53-4.64-1.34c-1-.29-2.05-.51-3.09-.48-.63.02-1.3.11-1.85.46a6 6 0 0 0-1.77 1.97 11 11 0 0 0-1.15 2.8l-.34 1.17v.02l-.63 2.21v.01l-1.33 4.64-2.24 7.79-2.49 8.66-.05.11-2.82 9.84-4.27 14.97q-2.14 7.43-4.33 14.84l-4.36 14.68q-2.15 7.26-4.27 14.52l-.41 1.4a13 13 0 0 0-.5 2.84 4.8 4.8 0 0 0 .8 3.13c.64.9 1.57 1.48 2.6 1.81l1.38.41.13.05 1.09.29a.4.4 0 0 1 .17.1l3.65 1.09 6.16 1.84.5.15.23.07h.02c-.01 0-.04-.01 0 0l.08.02.82.24 4.23 1.19 10.78 3.09q4.4 1.27 8.84 2.41h.16l1.35.36c2.46.62 4.93 1.17 7.37 1.84s5.57 1.78 7.8-.07c1.27-1.05 1.81-2.81 2.3-4.32l1.76-5.57Zm-3.99-101.12c1.81.8.55 3.6-1.25 2.8-1.81-.8-.56-3.6 1.25-2.8m-25.81 104.36-.07-.05zc-.15.46-.22.55-1.37.23l-2.37-.66c-.75-.21-2.03-.59-2.09-.79-.05-.17 0-.49.1-.79q.19-.51.42-.54c.24-.02 1.38.26 1.82.38h.02c.48.13 1.78.52 2.68.86l.29.1c.36.11.6.19.61.59q0 .26-.11.62m3.02-2.12.11.74a1.4 1.4 0 0 1-.11-.74m19.76-.08-1.1-.33c-13.65-4.14-28.21-7.95-41.93-11.81-8.06-2.16-6.42-3.78-4.93-10.55.8-3.3 1.32-5.46 2.19-8.74l.22.06q2.22-8.42 4.58-16.81c2.67-9.5 8.37-29.86 12.28-43.33l.73-2.52c.73-2.55.94-3.25 1.43-4.88l.53-1.76a2.7 2.7 0 0 1 1-1.49c1.79-1.48 4.99-.4 7.2.29l8.74 2.55 17.44 5.2 8.71 2.63c2.89.97 5.94 1.57 8.61 3.09l-.36-.1.28.18.08-.08c2.63 2.2.83 5.86.31 8.56-.73 2.86-.77 3.65-.86 4l-.25-.07q-.32 1.32-.68 2.64l-.24.92-.07-.02-.42 1.62a1547 1547 0 0 1-15.33 54.93c-1.4 4.64-2.13 8.2-3.56 12.69-.69 2.16-1.85 4.2-4.61 3.12Z" class="cls-8"/><path d="m179.16 88.04-.31 1.06q.07 0 .14-.04l.03.02.21.09q.31.12.6-.06c.21-.16.25-.44.32-.68l.25-.86.49-1.69c.07-.24.19-.51 0-.73q-.15-.15-.37-.22l-.4-.16-.35 1.17zm-3.51 14.99c.32-.1.45-.38.54-.68l.61-2.17.6-2.14.3-1.09q.16-.47.25-.95c.04-.32-.02-.65-.28-.86a.7.7 0 0 0-.48-.16l-2.22 8.01c.22.08.46.13.69.06Zm-3.58 10.54h.02l.14.05q.2.08.41.05c.31-.05.45-.33.54-.6q.33-1.08.62-2.16c.38-1.4.77-2.8 1.07-4.22.07-.32.06-.69-.19-.93a.7.7 0 0 0-.45-.19l-2.2 8 .04-.01Z" class="cls-19"/><path d="M115.79 68.74v-.02.03Zm.21.52q.08 0 .17-.04l-.13-.04h-.01l-.07-.02a.2.2 0 0 1-.12-.1l-.01-.02a.3.3 0 0 1-.05-.21l.02-.07.01-.04v-.02l.04-.13.08-.27.18-.63.08-.27-.03.08-.01.04-.4 1.39v.05q0 .11.05.19.08.1.21.13Z" style="fill:#a0b3b4"/><path d="M145.03 149.01v-.04zm10.66 8.4c5.47-18.1 10.66-37.09 15.33-54.93l.42-1.62-53.65-15.51 1.04-3.63c-3.9 13.47-9.61 33.83-12.28 43.33q-2.36 8.38-4.58 16.81zm1.1-12.89c-.53 2.4-1.29 5.2-3.68 6.36-1.99 1.07-4.17.16-6.14-.44-.35-.13-.73-.23-1.07-.4l-.04-.01-.26-.15-.07-.05a1 1 0 0 1-.34-.35 1 1 0 0 1-.15-.44v-.18l.02-.27.05-.21.07-.16q.15-.36.47-.58c.59-.46 1.37-.24 2.01-.05 1.19.29 2.7.96 3.83.39 1.74-1.29.63-4.42 2.54-5.63 1.43-.75 3.08.69 2.77 2.16Zm4.05-45.88.67.13c3.35.69 6.81 1.84 6.69 5.99a15 15 0 0 1-1.14 4.69c-.07.18-.26.44-.44.59-1.22 1.04-3.28-.03-3.16-1.6.22-1.53 1-2.57 1.2-3.99.31-2.33-2.64-2.25-4.26-3.01-.86-.22-1.15-1.06-.98-1.77.15-.62.65-1.13 1.44-1.03Zm-43.66-6.36c.88-2.59 3.18-5.16 6.15-4.49.26.04.71.15 1.22.28q1.4.31 2.77.78c.33.13.65.37.8.72.55 1.13-.6 2.54-1.81 2.22-1.77-.16-4.05-1.79-5.09.02-.92 1.6-.68 5.9-3.68 4.73-1.74-.92-.84-2.89-.37-4.27Zm5.84 1.84c11.03 2.33 36.05 9.93 36.56 10.07.54.14 1.93.65 2.55.82l-.37 1.48c-2.29 9.05-9.81 35.08-10.92 39.18l-.11.38a82 82 0 0 1-8.53-2.2c-3.36-1.01-23.14-6.5-29.67-8.3a1814 1814 0 0 1 10.48-41.45Zm-11.47 46.66c-1.35-.48-2.79-.91-3.81-2.02-1.58-1.64-1.4-4.18-.75-6.13.32-.75.51-1.95 1.08-2.62l.1-.12.09-.09q.36-.35.92-.31a1.6 1.6 0 0 1 .95.45q.12.13.21.28 0 .03.03.05.07.16.1.34l.01.16v.08c.06 1.68-1.9 4.39-.19 5.59 1.62 1.1 5.49.24 5.39 3.11-.38 2.31-2.59 1.78-4.14 1.23Zm10.18-53.01.07-.01z" class="cls-9"/><path d="M159.68 99.13q.07-.1.15-.17zm2.32-.24.36.1zm.59.17.73.22q-.35-.12-.73-.22" class="cls-9"/><path d="M113.39 82.33c.15.06.37 0 .42-.16q1.2-3.74 2.24-7.52l.58-2.2c.04-.17-.11-.34-.27-.36q-.13-.02-.22.05-.6-.22-1.23-.42l-.11-.04c-.45-.13-.79.13-.97.53q-.27.68-.5 1.38l-.49 1.43a67 67 0 0 0-1.62 5.75c-.05.23-.09.47.06.68.13.18.35.26.56.33l.17.05q.61.2 1.23.36.05.09.15.15Z" class="cls-19"/><path d="M116.42 66.51v.06q-.14.4-.24.83l-.08.27-.18.63-.08.27-.04.13v.04-.03l-.01.04-.02.07q-.02.13.05.21l.01.02a.3.3 0 0 0 .12.1l.07.02h.01l.13.04 2.52.73.08-.29.64-2.24v-.02l.1-.33-2.73-.83c-.17-.05-.34.11-.36.27Zm-26.28 92.1 2.57.74.13-.44v-.01l.11-.39.66-2.26-2.46-.77a.3.3 0 0 0-.23-.16c-.18-.03-.3.09-.35.24v.02l-.02.08-.73 2.52q-.03.16.1.28.08.1.22.15" style="fill:#f1a5af"/><path d="m172.03 113.59 2.2-8 .73-2.62 2.22-8.01.05-.17.85-3.02.01-.09.76-2.58.31-1.06.6-2.1.35-1.17q.23-.76.42-1.54c.41-1.8.23-3.65-.71-5.27-.86-1.48-2.52-2.39-4.08-2.95-.97-.35-1.96-.63-2.94-.93l-3.4-1.06-6.56-2.02a1192 1192 0 0 0-26.07-7.62l-8.31-2.4-.7-.19q-1.2-.31-2.45-.34c-.68 0-1.4.08-2.02.38a5.4 5.4 0 0 0-1.97 1.83 15 15 0 0 0-1.81 4.38l-.1.33v.02l-.64 2.24-.08.29-2.23 7.77-1.8 6.26-.07.13-4.22 14.73-4.26 14.92q-2.15 7.53-4.37 15.04l-4.35 14.67q-1.9 6.39-3.77 12.78-.34 1.12-.66 2.26l-.11.39v.01l-.13.44-.24.83-.08.28v.02l-.06.2c-.3.99-.54 2-.62 3.03a6 6 0 0 0 .67 3.48 5.4 5.4 0 0 0 2.64 2.22c.63.25 1.29.42 1.94.61l1.28.39 2.87.86 6.42 1.92q2.66.78 5.33 1.53l10.6 3.04c3.75 1.07 7.5 2.13 11.29 3.07l.81.2c1.86.48 3.74.89 5.59 1.37 2.4.61 4.94 1.7 7.46 1.22a5 5 0 0 0 3.39-2.33q.33-.54.59-1.12c.55-1.2.89-2.5 1.28-3.74 1.2-3.91 2.47-7.79 3.67-11.7a1083 1083 0 0 0 7.26-24.88q2.98-10.63 5.88-21.28l1.36-4.97Zm-21.53 68.48c-2.22 1.86-5.35.75-7.8.07-2.44-.68-4.92-1.22-7.37-1.84l-1.35-.36a.2.2 0 0 0-.16 0q-4.44-1.14-8.84-2.41c-3.6-1.02-7.18-2.08-10.78-3.09l-4.23-1.19-.82-.24-.08-.02c-.04-.01-.01 0 0 0h-.02l-.23-.07-.5-.15a1107 1107 0 0 1-9.81-2.93.3.3 0 0 0-.17-.1l-1.09-.29-.13-.05-.09-.02-1.29-.39a5 5 0 0 1-2.6-1.81 4.8 4.8 0 0 1-.8-3.13c.05-.95.24-1.96.5-2.84l.41-1.4q2.1-7.26 4.27-14.52l4.36-14.68q2.2-7.41 4.33-14.84l4.27-14.97 2.82-9.84.05-.11 2.49-8.66 2.24-7.79 1.33-4.64v-.01l.63-2.21v-.02l.34-1.17.22-.73q.35-1.09.93-2.07a6 6 0 0 1 1.77-1.97 3.6 3.6 0 0 1 1.85-.46c1.04-.03 2.09.19 3.09.48l4.64 1.34 1.93.58 1.99.55 1.37.4h.08a1083 1083 0 0 1 22.4 6.54q6.52 1.98 13.03 4.01c1.63.51 3.31 1 4.63 2.14a5.8 5.8 0 0 1 1.77 4.84c-.08.85-.32 1.67-.56 2.49l-.72 2.48q-.56 1.98-1.15 3.97l-.45 1.46a.3.3 0 0 0-.01.16q-3.17 11.31-6.27 22.64-3.1 11.37-6.26 22.73-3.17 11.4-6.57 22.73a903 903 0 0 1-3.55 11.52l-1.76 5.57c-.48 1.51-1.03 3.27-2.3 4.32Z" class="cls-8"/><path d="M105.6 111.07c-.13.06-.29 0-.38-.12l-3.33 11.8q.19-.13.39 0c.12.1.17.34.04.46l-.2.19c.14 0 .28-.08.33-.25l3.48-12.31c.05-.18-.05-.29-.19-.33l.05.13a.33.33 0 0 1-.19.42Z" class="cls-9"/><path d="M105.23 110.95c.08.11.24.18.38.12a.34.34 0 0 0 .19-.42l-.05-.13-.85-2.3a.33.33 0 0 0-.41-.19h-.01a.34.34 0 0 0-.19.42l.04.12.86 2.31q.01.04.04.07m-5.34 14.38q.2.06.34-.1l1.89-1.8.2-.19c.13-.12.08-.36-.04-.46q-.2-.14-.39 0l-.07.05-1.56 1.49a.4.4 0 0 0-.32-.16q-.07.01-.12.07a.3.3 0 0 0-.17.29v.55c0 .13.12.24.23.28Z" class="cls-9"/><path d="M149.31 73.86c1.8.8 3.05-2 1.25-2.8-1.81-.8-3.05 2-1.25 2.8" class="cls-21"/><path d="M122.53 71.07c-.45.33-.8.8-1 1.49l-.53 1.76.46-1.52c.23-.79.6-1.34 1.07-1.73m48.92 29.79.07.02.24-.92.68-2.64-53.61-15.5.75-2.62-.73 2.52-1.04 3.63z" class="cls-9"/><path d="m118.82 81.82 53.61 15.5.25.07c.09-.35.13-1.14.86-4 .52-2.69 2.32-6.36-.31-8.56l-.08.09-.28-.19.36.1c-2.67-1.52-5.71-2.12-8.61-3.09l-8.71-2.63-17.44-5.2-8.74-2.55c-2.22-.69-5.42-1.77-7.2-.29-.46.39-.84.94-1.07 1.73l-.46 1.52c-.49 1.63-.7 2.33-1.43 4.88zm36.87 75.59-53.71-15.55-.22-.06c-.87 3.28-1.39 5.44-2.19 8.74-1.49 6.77-3.13 8.39 4.93 10.55 13.73 3.86 28.29 7.67 41.93 11.81l1.1.33c2.76 1.08 3.92-.96 4.61-3.12 1.43-4.49 2.17-8.05 3.56-12.69Z" style="fill:#eeece9"/><path d="m160.84 98.64.67.13q-.41-.1-.67-.13m-1.43 1.03" class="cls-21"/><path d="M160.29 98.69a1.3 1.3 0 0 0-.62.45c-.52.71-.34 1.93.75 2.16 3.54.76 6.06.81 4.61 5.35-.19.65-.43 1.36-.47 1.85-.08.55.84 1.04 1.3.68 2.59-5.27 2.06-8.31-2.56-9.89l-.73-.22-.24-.07-.36-.1q-.55-.14-1.15-.25-.25-.02-.47.03l-.08.02Z" class="cls-20"/><path d="M160.38 101.44c1.62.75 4.57.68 4.26 3.01-.19 1.42-.98 2.46-1.2 3.99-.12 1.58 1.94 2.64 3.16 1.6.18-.16.38-.42.44-.59a15 15 0 0 0 1.14-4.69c.12-4.15-3.34-5.3-6.69-5.99l.48.12.36.1.24.07q.38.1.73.22c4.62 1.58 5.15 4.62 2.56 9.89-.46.36-1.38-.13-1.3-.68.04-.49.28-1.21.47-1.85 1.45-4.55-1.07-4.6-4.61-5.35-1.1-.23-1.27-1.45-.75-2.16l.15-.17.14-.11q.14-.1.33-.17l.08-.02q.21-.06.47-.03c-.79-.1-1.29.41-1.44 1.03-.17.71.12 1.54.98 1.77Z" class="cls-9"/><path d="M109.18 129.49q.64.13.94.43a1.6 1.6 0 0 0-.94-.43m.95.45q.13.13.21.28-.08-.16-.21-.28m-.95-.45q-.56-.04-.92.31.36-.31.92-.31" class="cls-21"/><path d="M107.14 132.68c-.42 1.93-.4 4.16 1.16 5.51.97.83 2.35 1.13 3.57 1.51.94.17 2.4 1.01 2.7-.28.05-.43-.15-.8-.72-.99-1.29-.51-2.73-.66-3.92-1.54-2.57-2.06 2.82-6.59-.76-7.4-1.57-.02-1.65 2.06-2.03 3.19" class="cls-20"/><path d="M110.49 130.83v-.06.08zm-2.43-.82.1-.12z" class="cls-21"/><path d="M110.3 136.44c-1.71-1.2.25-3.91.19-5.59v-.08l-.01-.16a1 1 0 0 0-.1-.34q0-.03-.03-.05a1 1 0 0 0-.21-.28l-.01-.02a2 2 0 0 0-.94-.43c3.58.81-1.81 5.34.76 7.4 1.19.89 2.63 1.03 3.92 1.54.57.19.77.56.72.99-.3 1.29-1.76.44-2.7.28-1.22-.38-2.6-.68-3.57-1.51-1.56-1.35-1.58-3.58-1.16-5.51.38-1.12.47-3.2 2.03-3.19q-.56 0-.92.31l-.09.09-.1.12c-.57.68-.76 1.87-1.08 2.62-.65 1.95-.84 4.49.75 6.13 1.03 1.1 2.46 1.54 3.81 2.02 1.55.55 3.77 1.08 4.14-1.23.1-2.87-3.77-2.01-5.39-3.11Z" class="cls-9"/><path d="m145.09 148.39.07-.16z" class="cls-21"/><path d="M152.81 150.37c1.77-1.06 2.15-3.2 2.64-5.06.11-.53.34-1.11.08-1.58-.18-.36-.7-.55-1.02-.38-.46.23-.55.89-.71 1.38-.46 1.33-.66 2.98-2.06 3.77-1.5.55-2.81-.32-4.15-.76-.62-.22-1.35-.5-1.94-.07a1.4 1.4 0 0 0-.63 1.28v.04q.02.25.15.48c.41.59 1.17.69 1.8.92 1.89.5 4.09 1.16 5.84-.03Z" class="cls-20"/><path d="m145.85 150.04.04.01q-.16-.07-.3-.17.14.1.26.15Zm-.34-.21q-.2-.15-.34-.35.1.18.34.35m-.49-.96.02-.27z" class="cls-21"/><path d="M154.01 142.36c-1.9 1.21-.8 4.34-2.54 5.63-1.13.56-2.64-.1-3.83-.39-.65-.19-1.42-.41-2.01.05a1.4 1.4 0 0 0-.47.58l-.07.16-.05.21q-.03.14-.02.27v.18-.08a1.4 1.4 0 0 1 .63-1.28c.59-.43 1.31-.15 1.94.07 1.34.44 2.65 1.31 4.15.76 1.41-.78 1.61-2.44 2.06-3.77.16-.49.25-1.14.71-1.38.32-.18.84.01 1.02.38.27.47.03 1.05-.08 1.58-.49 1.86-.87 4-2.64 5.06-1.75 1.19-3.95.53-5.84.03-.63-.22-1.39-.32-1.8-.92q.14.2.34.35l.07.05.3.17c.35.16.73.26 1.07.4 1.97.6 4.15 1.52 6.14.44 2.4-1.17 3.15-3.97 3.68-6.36.31-1.48-1.34-2.91-2.77-2.16Z" class="cls-9"/><path d="m122.01 87.73-.28.03c-2.1.41-3.54 2.58-3.99 4.69-.16.96-.92 2.65.23 3.18 1.3.36 1.18-1.39 1.51-2.3.3-1.04.6-2.33 1.64-3 1.78-1 3.78.56 5.3.89.59.21 1.17-.08 1.42-.66.26-.56.05-1.31-.58-1.57a22 22 0 0 0-3.92-1.21q-.7-.12-1.33-.06Z" class="cls-20"/><path d="M124.56 88.08a17 17 0 0 0-1.22-.28z" class="cls-21"/><path d="M117.55 96.56c3 1.17 2.76-3.13 3.68-4.73 1.04-1.81 3.32-.18 5.09-.02 1.22.32 2.36-1.09 1.81-2.22a1.4 1.4 0 0 0-.8-.72q-1.37-.47-2.77-.78-.61-.16-1.22-.28c1.34.3 2.67.67 3.92 1.21.64.26.85 1.01.58 1.57-.25.58-.83.87-1.42.66-1.52-.33-3.51-1.89-5.3-.89-1.04.67-1.34 1.96-1.64 3-.33.91-.21 2.66-1.51 2.3-1.15-.52-.39-2.22-.23-3.18.45-2.12 1.89-4.28 3.99-4.69l.07-.01.21-.02q.63-.08 1.33.06c-2.98-.67-5.27 1.9-6.15 4.49-.48 1.38-1.38 3.35.37 4.27Z" class="cls-9"/><path d="M142.2 143.86c2.82.85 5.64 1.66 8.53 2.2l.11-.38c1.11-4.11 8.63-30.13 10.92-39.18l.37-1.48c-.62-.17-2-.68-2.55-.82-.51-.14-25.53-7.74-36.56-10.07a1814 1814 0 0 0-10.48 41.45 3140 3140 0 0 1 29.67 8.3Zm1.91-40.88c.07-.4.46-.66.86-.57q2.5.61 4.71 1.94a13.9 13.9 0 0 1 6.65 12.43 17 17 0 0 1-.76 4.39.7.7 0 0 1-.93.44l-1.28-.49a.7.7 0 0 1-.41-.87c.77-2.54.83-5.3-.05-7.82-1.34-3.78-4.65-6.36-8.48-7.31a.7.7 0 0 1-.54-.8l.24-1.35Zm-1.14 6.58a.7.7 0 0 1 .87-.56 8.2 8.2 0 0 1 4.37 3.01 8 8 0 0 1 1.13 6.74.7.7 0 0 1-.93.46l-1.32-.51a.7.7 0 0 1-.44-.8 5.4 5.4 0 0 0-.28-3.55 5.2 5.2 0 0 0-3.2-2.63.7.7 0 0 1-.46-.78zm-12.41 27.36a.7.7 0 0 1-.86.57 15.5 15.5 0 0 1-7.76-4.47 14 14 0 0 1-3.11-5.68c-.76-2.83-.58-5.82.28-8.61a.7.7 0 0 1 .93-.44l1.28.49a.7.7 0 0 1 .41.87c-1.1 3.6-.72 7.55 1.55 10.61 1.7 2.3 4.25 3.81 7 4.51.36.09.6.44.53.8zm1.39-7.95-.36 2.07-.07.02a6 6 0 0 1-.94-.24 7.7 7.7 0 0 1-5.53-7.29q0-1.21.3-2.39c.1-.39.54-.6.92-.45l1.89.72-.21.86c-.19.92-.13 2.01.19 2.89a5 5 0 0 0 3.36 3.01c.33.11.52.46.46.8Zm3.59-3.22h-.04q-.3-.1-.59-.17s-.06-.02-.09-.03a.1.1 0 0 1-.08-.12l.15-.9c.19-1.02.27-1.22.27-1.22a.2.2 0 0 1 .13-.13c.33-.11.61-.39.71-.75v-.04c.32-1.35.72-2.88 1.13-4.06v-.02a.2.2 0 0 0-.15-.25.2.2 0 0 0-.25.13c-.28.81-.56 1.79-.81 2.75a.24.24 0 0 1-.3.17.25.25 0 0 1-.18-.3c.25-.96.52-1.93.8-2.74v-.02a.2.2 0 0 0-.15-.25.2.2 0 0 0-.25.13c-.28.81-.56 1.79-.81 2.77-.03.13-.17.21-.3.18s-.21-.17-.18-.3c.25-.97.53-1.94.8-2.75v-.02a.2.2 0 0 0-.15-.25.2.2 0 0 0-.25.13 49 49 0 0 0-1.16 4.19c-.08.37.03.75.28 1.01a.2.2 0 0 1 .05.2s-.01.05-.02.07l-.43 1.97q-.04.1-.14.08l-.04-.01-1.69-.43a.4.4 0 0 1-.26-.35c.05-1.08.95-5.03.99-5.21a.4.4 0 0 0-.17-.36l-.94-.47a.34.34 0 0 1-.16-.4q.02-.08.07-.14c.13-.17 2.98-3.09 7-4.26a1 1 0 0 1 .53-.01q.28.08.45.29.92 1.01 1.59 2.08h.02l.1-.35c.03-.12.15-.18.27-.15h.03l.96.4q.22.1.22.35s-.05.88-.29 2.15q0 .06.02.11c.63 1.46.88 2.56.89 2.67v.15a.35.35 0 0 1-.35.26l-1.04-.08a.4.4 0 0 0-.33.22c-.06.17-1.33 4.02-1.85 4.97a.34.34 0 0 1-.4.16l-1.12-.34s-.07-.06-.06-.1c0 0 .38-1.08.83-2.47a47 47 0 0 0 1.41-5.03v-.1q-.01-.14-.16-.19h-.13l-.08.04s-1.68.97-3.06 4.87l-.02.11q0 .14.15.22l.66.28q.1.05.07.14s-.22.66-.68 1.82q-.04.08-.13.06l-.56-.16zh-.04Zm2.26 10.33 11.26 3.12a1.32 1.32 0 0 1-.61 2.56l-11.36-3.16c-1.49-.62-.88-2.77.71-2.53Zm-2.89-10.51" class="cls-3"/><path d="m124.25 174.21-.29-.1c-.9-.34-2.21-.73-2.68-.86h-.02a12 12 0 0 0-1.82-.38q-.23.03-.42.54c-.11.3-.14.63-.1.79.06.2 1.33.58 2.09.79l2.37.66c1.15.32 1.22.23 1.37-.23l-.07-.06.07.05q.12-.36.11-.62c0-.4-.25-.47-.61-.59Z" style="fill:#c2dbdf"/><path d="m194.66 186.93-.01.04" style="fill:none;stroke-linecap:round;stroke-linejoin:round;stroke:#fff"/><path d="M144.41 105.13c3.83.95 7.15 3.53 8.48 7.31.89 2.51.83 5.27.05 7.82a.7.7 0 0 0 .41.87l1.28.49a.7.7 0 0 0 .93-.44q.66-2.14.76-4.39a13.9 13.9 0 0 0-6.65-12.43 16 16 0 0 0-4.71-1.94c-.39-.1-.78.17-.86.57l-.24 1.35a.7.7 0 0 0 .54.8Zm-14.14 29.63c-2.75-.7-5.3-2.21-7-4.51-2.27-3.07-2.65-7.02-1.55-10.61a.7.7 0 0 0-.41-.87l-1.28-.49a.7.7 0 0 0-.93.44 15.7 15.7 0 0 0-.28 8.61 14 14 0 0 0 3.11 5.68 15.5 15.5 0 0 0 7.76 4.47c.39.1.78-.17.86-.57l.24-1.35a.7.7 0 0 0-.53-.8Z" class="cls-9"/><path d="M143.18 111.73a5.2 5.2 0 0 1 3.2 2.63c.53 1.1.56 2.37.28 3.55a.7.7 0 0 0 .44.8l1.32.51a.7.7 0 0 0 .93-.46 8 8 0 0 0-1.13-6.74 8.2 8.2 0 0 0-4.37-3.01.7.7 0 0 0-.87.56l-.25 1.38c-.06.34.13.68.46.78Zm-11.69 16.44a5.1 5.1 0 0 1-3.36-3.01 5.5 5.5 0 0 1-.19-2.89l.21-.86-1.89-.72c-.38-.14-.82.06-.92.45a9 9 0 0 0-.3 2.39 7.75 7.75 0 0 0 5.53 7.29c.19.06.78.25.94.24q.05 0 .07-.02l.36-2.07c.06-.34-.13-.7-.46-.8Zm17.57 11.03-11.26-3.12c-1.6-.25-2.2 1.91-.71 2.53l11.36 3.16c1.63.22 2.2-1.99.61-2.56Zm-11.46-1.06v-.32l-.32.22-.49-.13.72-.58v-.7l.55.15-.04.31.27-.24.52.14-.67.56.03.74-.56-.15Zm1.44.4v-.32l-.32.22-.49-.13.72-.58v-.7l.55.15-.04.31.27-.24.52.14-.67.56.03.74-.56-.15Zm1.48.41v-.32l-.32.22-.49-.13.72-.58v-.7l.55.15-.04.31.27-.24.52.14-.67.56.03.74-.56-.15Zm1.45.41v-.32l-.32.22-.49-.13.72-.58v-.7l.55.15-.04.31.27-.24.52.14-.67.56.03.74-.56-.15Zm1.92.53v-.32l-.32.22-.49-.13.72-.58v-.7l.55.15-.04.31.27-.24.52.14-.67.56.03.74-.56-.15Zm1.45.4v-.32l-.32.22-.49-.13.72-.58v-.7l.55.15-.04.31.27-.24.52.14-.67.56.03.74zm1.44.4v-.32l-.32.22-.49-.13.72-.58v-.7l.55.15-.04.31.27-.24.52.14-.67.56.03.74zm1.12.31-.49-.13.72-.58v-.7l.55.15-.04.31.27-.24.52.14-.67.56.03.74-.56-.15v-.32z" class="cls-9"/><path d="m138.8 137-.52-.15-.27.25.05-.31-.56-.15.01.69-.72.58.49.14.33-.23-.01.32.56.16-.03-.74zm1.44.4-.52-.14-.27.24.05-.31-.56-.15.01.7-.72.58.49.13.33-.22-.01.31.56.16-.03-.74zm1.48.41-.52-.14-.27.24.05-.3-.56-.16.01.7-.72.58.5.13.32-.22-.01.31.56.16-.03-.74zm1.44.4-.52-.14-.26.24.04-.3-.55-.16v.7l-.72.58.5.13.33-.22-.01.32.55.15-.02-.73zm1.93.54-.52-.15-.27.25.05-.31-.56-.15.01.69-.72.58.49.14.33-.23-.01.32.56.16-.03-.74zm1.44.4-.52-.14-.26.24.04-.31-.55-.15v.7l-.72.58.5.13.32-.22v.31l.55.16-.03-.74zm1.44.4-.51-.14-.27.24.04-.3-.55-.16v.7l-.72.58.5.13.33-.22-.01.31.55.16-.02-.74zm.81 1.7-.03-.74.67-.56-.52-.14-.27.24.05-.3-.56-.16.01.7-.72.58.49.13.33-.22-.01.32z" class="cls-3"/><path d="M136.88 126.13q.09.02.13-.06c.46-1.16.68-1.82.68-1.82q.02-.1-.07-.14l-.66-.28q-.15-.08-.15-.22l.02-.11c1.38-3.89 3.06-4.87 3.06-4.87l.08-.04a.2.2 0 0 1 .13 0q.14.04.16.19v.1a47 47 0 0 1-1.41 5.03c-.45 1.39-.83 2.47-.83 2.47q-.01.08.06.1l1.12.34c.16.05.32-.02.4-.16.52-.95 1.79-4.8 1.85-4.97a.4.4 0 0 1 .33-.22l1.04.08q.26-.01.35-.26.02-.08 0-.15c-.01-.11-.26-1.21-.89-2.67s-.02-.08-.02-.11c.24-1.28.29-2.15.29-2.15a.4.4 0 0 0-.22-.35l-.96-.4h-.03a.2.2 0 0 0-.27.15l-.1.35h-.02q-.67-1.06-1.59-2.08a1 1 0 0 0-.45-.29 1 1 0 0 0-.53.01 17 17 0 0 0-7 4.26.3.3 0 0 0-.07.14c-.04.16.03.32.16.4l.94.47q.19.12.17.36c-.04.18-.94 4.13-.99 5.21 0 .16.1.3.26.34l1.69.44.04.01q.1.02.14-.08l.45-2.04a.2.2 0 0 0-.05-.2 1.1 1.1 0 0 1-.28-1.01c.33-1.38.74-2.97 1.16-4.19a.2.2 0 0 1 .25-.13.2.2 0 0 1 .15.25v.02c-.28.81-.55 1.79-.8 2.75-.03.13.04.26.18.3s.26-.04.3-.18c.25-.97.53-1.95.81-2.77a.2.2 0 0 1 .25-.13.2.2 0 0 1 .15.25v.02a38 38 0 0 0-.8 2.74.25.25 0 0 0 .48.13c.25-.97.53-1.94.81-2.75a.2.2 0 0 1 .25-.13.2.2 0 0 1 .15.25v.02a45 45 0 0 0-1.13 4.06v.04c-.1.37-.37.64-.71.75a.2.2 0 0 0-.13.13s-.08.2-.27 1.22l-.15.9q0 .09.08.12l.09.03.59.16h.04l.04.02.74.21.56.16Z" class="cls-9"/><path d="m113.66 151.21 2.58.7z" class="cls-21"/><path d="M83.16 111.01c-4.75.24-29.29 2.02-42.96 3.03a5.45 5.45 0 0 1-5.85-5.39c-.16-18.5-.16-40 .02-57.67q0-.64.12-1.25a7.66 7.66 0 0 0-5.87 7.37 3258 3258 0 0 0-.02 57.67 5.45 5.45 0 0 0 5.85 5.39 4293 4293 0 0 1 42.96-3.03c2.44-.12 5.07-.3 7.61-.42a6.7 6.7 0 0 0 6.38-6.19l-.62.06c-2.54.11-5.17.3-7.61.42Z" style="fill:#3b3a39"/><path d="M91.18 39.89 41.51 43.4a7.67 7.67 0 0 0-7.14 7.58 3258 3258 0 0 0-.02 57.67 5.45 5.45 0 0 0 5.85 5.39 4293 4293 0 0 1 42.96-3.03c2.44-.12 5.07-.3 7.61-.42q.32 0 .62-.06a6.7 6.7 0 0 0 5.77-6.68l-.51-58.88a5.1 5.1 0 0 0-5.48-5.07ZM52.96 84.64c.07 1.55.6 3.23 1.44 4.44 1.45 2.1 3.81 2.97 6.29 2.9.55-.02.97.44 1.02 1.02l.29 3.48q-.03.06-.1.07c-.24.1-1.22.13-1.53.14a11 11 0 0 1-11.29-8.45 15 15 0 0 1-.48-3.92c0-.68.59-1.24 1.22-1.23l3.12.07c.1.06.02 1.24.03 1.48Zm8.79 23.19c-4.8.48-9.62-.34-13.64-2.79a20 20 0 0 1-6.98-7.32c-2.25-4.06-3.14-8.9-2.91-13.77.03-.67.61-1.22 1.24-1.2l2.13.06c.58.02.99.52.96 1.14-.27 6.27 1.85 12.32 6.51 15.93 3.5 2.71 7.99 3.69 12.47 3.26.59-.06 1.08.36 1.13.99l.18 2.3c.05.68-.44 1.33-1.07 1.39Zm8.08-22.32s.13-1.91.24-4.35c.13-2.86.24-6.5.07-8.62l-.03-.16q-.09-.21-.31-.2a.4.4 0 0 0-.2.08l-.1.1s-2.13 2.44-2.63 9.29l.01.18q.06.22.31.27l1.1.08q.16.01.17.19s-.06 1.16-.28 3.23q-.02.15-.17.17l-.91.06-1.2.08h-.12l-.96.07-.15.01a.16.16 0 0 1-.17-.15l-.13-1.49c-.13-1.7-.09-2.06-.09-2.06q.01-.17.14-.28a2 2 0 0 0 .76-1.57v-.08a84 84 0 0 1 .06-6.96v-.03c0-.19-.15-.33-.32-.31a.4.4 0 0 0-.32.34 65 65 0 0 0-.1 4.74c0 .22-.17.42-.38.44s-.38-.15-.38-.37c-.01-1.64 0-3.3.1-4.71v-.03c0-.19-.15-.33-.32-.31a.4.4 0 0 0-.32.34c-.09 1.42-.12 3.1-.11 4.76 0 .22-.17.42-.38.44s-.38-.15-.38-.37a71 71 0 0 1 .1-4.74v-.03c0-.19-.15-.33-.32-.31a.4.4 0 0 0-.32.34 85 85 0 0 0-.07 7.18c.02.63.35 1.15.83 1.42q.15.09.16.28s0 .08 0 .12c.05 1.41.12 2.75.15 3.34a.2.2 0 0 1-.18.21h-.07l-2.72.25h-.01a.5.5 0 0 1-.53-.4c-.36-1.72-.59-8.41-.6-8.71a.5.5 0 0 0-.39-.47l-1.6-.21c-.24-.05-.41-.26-.41-.54q0-.13.06-.25c.12-.33 3.24-6.44 8.81-10.44q.35-.28.79-.31t.79.2c1.19.69 2.26 1.5 3.22 2.34s0 0 .01 0l.02-.02v-.59c0-.2.16-.37.34-.38h.04l1.6.09a.5.5 0 0 1 .47.42s.28 1.39.45 3.5q0 .1.07.17a22 22 0 0 1 2.42 3.66q.05.11.05.24c0 .27-.18.51-.42.59l-1.6.44a.6.6 0 0 0-.4.52c-.01.3-.35 7.03-.74 8.81a.6.6 0 0 1-.54.48h-.01l-1.83.09a.13.13 0 0 1-.13-.13Zm.6-28.81c-.06-.66.44-1.3 1.07-1.33 2.81-.13 5.5.54 7.72 2.25 2.93 2.26 4.39 5.86 4.47 9.77a1.2 1.2 0 0 1-1.2 1.22l-2.17-.06a1 1 0 0 1-.98-1 8.5 8.5 0 0 0-1.88-5.33 7.3 7.3 0 0 0-5.84-2.3c-.53.02-.95-.41-1-.96zm21.63 47.41-18.59 1.35c-2.52-.16-2.49-3.94.04-4.44l18.39-1.34c2.64.03 2.74 3.87.17 4.44Zm.74-35.17-2.12-.06c-.58-.02-.99-.51-.98-1.12.09-4.35-.98-8.63-3.34-12.01-3.54-5.05-9.51-7.19-15.57-6.59a1 1 0 0 1-1.12-.94l-.18-2.17c-.05-.64.42-1.25 1.04-1.32 2.62-.26 5.23-.15 7.75.43 7.51 1.72 13.14 7.51 15 15.4q.81 3.5.72 7.18a1.2 1.2 0 0 1-1.2 1.19Z" style="fill:#ff8000"/><path d="M78.27 45.17a24 24 0 0 0-7.75-.43c-.62.06-1.09.68-1.04 1.32l.18 2.17a1 1 0 0 0 1.12.94c6.06-.61 12.03 1.53 15.57 6.59 2.36 3.37 3.43 7.66 3.34 12.01-.01.61.4 1.1.98 1.12l2.12.06a1.2 1.2 0 0 0 1.2-1.19c.05-2.44-.18-4.86-.72-7.18-1.86-7.9-7.5-13.68-15-15.4Zm-16.76 57.98c-4.48.43-8.97-.55-12.47-3.26-4.66-3.61-6.78-9.66-6.51-15.93.03-.62-.38-1.12-.96-1.14l-2.13-.06c-.63-.02-1.2.53-1.24 1.2-.23 4.87.66 9.71 2.91 13.77 1.66 3 4.14 5.59 6.98 7.32 4.03 2.45 8.84 3.28 13.64 2.79.64-.06 1.13-.72 1.07-1.39l-.18-2.3a1.04 1.04 0 0 0-1.13-.99Z" class="cls-9"/><path d="M71.62 59.91a7.3 7.3 0 0 1 5.84 2.3 8.5 8.5 0 0 1 1.88 5.33c.02.56.45.98.98 1l2.17.06a1.2 1.2 0 0 0 1.2-1.22c-.08-3.9-1.53-7.51-4.47-9.77a11.5 11.5 0 0 0-7.72-2.25c-.63.03-1.13.67-1.07 1.33l.19 2.25c.05.55.47.98 1 .96ZM52.93 83.17l-3.12-.07a1.25 1.25 0 0 0-1.22 1.23q0 2.02.48 3.92a11 11 0 0 0 11.29 8.45c.31 0 1.29-.04 1.53-.14q.07-.01.1-.07l-.29-3.48c-.05-.58-.48-1.03-1.02-1.02-2.48.07-4.83-.8-6.29-2.9a9 9 0 0 1-1.44-4.44c-.01-.23.07-1.41-.03-1.48Zm38.96 16.5-18.39 1.34c-2.53.5-2.55 4.29-.04 4.44l18.59-1.35c2.56-.57 2.47-4.42-.17-4.44Zm-17.84 4.76-.12-.51-.41.54-.81.07.85-1.33-.3-1.11.91-.07.06.52.3-.54.85-.06-.78 1.27.35 1.16-.91.07Zm2.36-.17-.12-.51-.41.54-.81.07.85-1.33-.3-1.11.91-.07.06.51.3-.54.85-.06-.78 1.27.35 1.16-.91.07Zm2.42-.18-.12-.51-.41.54-.81.07.85-1.33-.3-1.11.91-.07.06.51.3-.54.85-.06-.78 1.27.35 1.16-.91.07Zm3.27-.24-.91.07-.12-.51-.4.54-.81.07.85-1.33-.3-1.11.91-.07.06.51.3-.54.85-.06-.78 1.27zm2.24-.16-.12-.51-.4.54-.81.07.85-1.33-.3-1.11.91-.07.06.51.3-.54.85-.06-.77 1.27.35 1.16zm2.36-.17-.12-.51-.4.54-.81.07.85-1.33-.3-1.11.91-.07.06.51.3-.54.85-.06-.77 1.27.35 1.16zm2.36-.17-.12-.51-.4.54-.81.07.85-1.33-.31-1.11.91-.07.06.51.3-.54.85-.06-.77 1.27.35 1.16zm3.27-.24-.91.07-.12-.51-.4.54-.81.07.84-1.33-.31-1.11.91-.07.06.51.3-.54.85-.06-.77 1.27z" class="cls-9"/><path d="m75.39 101.93-.85.06-.3.54-.06-.52-.91.07.3 1.11-.85 1.33.8-.07.41-.53.12.51.91-.07-.35-1.16zm2.36-.17-.85.06-.3.54-.06-.52-.91.07.3 1.11-.85 1.33.8-.07.41-.54.12.52.91-.07-.35-1.16zm2.42-.18-.85.06-.3.54-.06-.51-.91.06.3 1.11-.85 1.34.81-.07.4-.54.12.51.91-.06-.35-1.17zm1.51-.11-.3.54-.06-.51-.91.06.3 1.11-.85 1.34.81-.07.4-.54.12.51.91-.07-.35-1.16.78-1.27zm3.99-.29-.85.06-.3.55-.06-.52-.91.07.31 1.1-.85 1.34.8-.07.41-.54.12.51.91-.06-.35-1.16zm2.36-.17-.85.06-.3.54-.06-.51-.91.07.31 1.1-.85 1.34.8-.07.41-.54.12.51.91-.06-.36-1.16zm2.35-.17-.84.06-.3.54-.06-.51-.91.07.3 1.1-.84 1.34.8-.07.41-.54.12.51.91-.06-.36-1.17zm1.52-.11-.3.54-.07-.51-.9.06.3 1.11-.84 1.34.8-.07.41-.54.12.51.91-.07-.36-1.16.77-1.27z" class="cls-3"/><path d="M71.79 85.55h.01a.6.6 0 0 0 .54-.48c.39-1.77.73-8.51.74-8.81a.6.6 0 0 1 .4-.52l1.6-.44a.6.6 0 0 0 .42-.59l-.05-.24c-.06-.16-.89-1.73-2.42-3.66s-.07-.1-.07-.17a33 33 0 0 0-.45-3.5.5.5 0 0 0-.47-.42l-1.6-.09h-.04c-.19.01-.34.18-.34.38v.59l-.02.02h-.01a20 20 0 0 0-3.22-2.34q-.35-.22-.79-.2a1.4 1.4 0 0 0-.79.31 31 31 0 0 0-8.81 10.44q-.04.12-.06.25c0 .27.17.49.41.54l1.6.21c.21.05.37.23.39.47 0 .3.24 6.99.6 8.71a.5.5 0 0 0 .53.4h.01l2.72-.25h.07c.1 0 .18-.1.18-.21-.03-.59-.1-1.93-.15-3.34v-.12a.3.3 0 0 0-.16-.28c-.48-.27-.8-.79-.83-1.42-.06-2.35-.07-5.06.07-7.18.01-.18.15-.33.32-.34s.32.12.32.31v.03a65 65 0 0 0-.1 4.74c0 .22.17.39.38.37s.38-.22.38-.44c-.01-1.66.01-3.34.11-4.76.01-.18.15-.33.32-.34s.32.12.32.31v.03a71 71 0 0 0-.1 4.71c0 .22.17.39.38.37a.44.44 0 0 0 .38-.44c-.01-1.65 0-3.32.1-4.74.01-.18.15-.33.32-.34s.32.12.32.31v.03a84 84 0 0 0-.06 6.96v.07c0 .63-.31 1.21-.76 1.57a.4.4 0 0 0-.14.28s-.04.36.09 2.06l.13 1.49q.02.14.17.15l.15-.01.96-.07h.12l1.2-.08.91-.06q.15-.02.17-.17c.23-2.07.28-3.23.28-3.23q-.01-.16-.17-.19l-1.1-.08a.34.34 0 0 1-.31-.27c-.02-.08-.01-.18-.01-.18.5-6.85 2.63-9.29 2.63-9.29l.1-.1a.3.3 0 0 1 .2-.08.3.3 0 0 1 .31.2l.03.16c.17 2.12.06 5.77-.07 8.62a217 217 0 0 1-.24 4.35q.01.13.13.13z" class="cls-9"/><path d="m142.87 49.35-.93-6.49q-.58-4-1.21-7.99c-.48-2.99-.93-5.6-1.38-7.97l-.38-1.97-.05-.29c-.1-.52-.2-1.05-.42-1.56a2.6 2.6 0 0 0-1.48-1.52c-.79-.29-1.54-.08-2.25.12a7 7 0 0 0-3.23 1.74 5 5 0 0 0-1.13 3.64c.08 1.27.5 2.48.91 3.6l6.47 17.41a64 64 0 0 0 1.1 3.38l.26.7.05.13c.12.35.29.82.78 1.06q.38.17.75.17c.57 0 1.11-.26 1.49-.61q.72-.66.79-1.79h.02v-.3c0-.5-.08-.98-.16-1.45Zm23.44-23.56-1.82 4.4-.22.55-3.3 8.16q-1.74 4.37-3.43 8.75l-2.79 7.32a9 9 0 0 0-.35 1.24l-.03.18q-.02.32.03.62.09.45.4.83.3.37.69.55a1.7 1.7 0 0 0 1.04.36q.21 0 .41-.04.31-.08.6-.23.25-.14.48-.36.4-.42.67-.87 1.27-2.04 2.5-4.09a581 581 0 0 0 4.55-7.63s.33-.56.33-.56c3.1-5.3 6.12-10.69 9-16.01a41 41 0 0 0-7.1-7.06q-.28.59-.52 1.19l-1.12 2.7Z" class="cls-7"/><path d="M189.86 59.02" class="cls-16"/><path d="M169.96 62.98q-.66.42-1.28.93-.45.39-.7.85-.31.58-.23 1.18c.13.95.91 1.6 1.96 1.63h.07c.66 0 1.27-.25 1.81-.47l.23-.09 1.6-.65.43-.17q4.08-1.67 8.12-3.48 1.9-.85 3.77-1.73-.6-4.56-1.44-9.02l-14 10.79-.33.24Z" class="cls-7"/><path d="m127.88 174.04-.11-.74c-.02.3.03.6.11.74" style="fill:#5b3b5b"/><path d="m175.06 28.96.28-.51.39-.7c.53-.94 1.09-1.91 1.32-2.99q.24-1.11-.07-1.99a3.5 3.5 0 0 0-1.65-1.86c-3.22-1.82-5.88-1.62-7.14.53l-.23.45a42 42 0 0 1 7.1 7.06Zm21.45 22.89a36 36 0 0 0-.98-1.96l-.16-.31c-.3-.57-.61-1.17-1.07-1.65-.63-.68-1.53-.91-2.53-.66a12 12 0 0 0-3.67 1.81c-.92.63-1.8 1.32-2.66 1.98l-1.16.89a166 166 0 0 1 1.44 9.02 265 265 0 0 0 8.02-3.91l.42-.21q.76-.38 1.51-.78c1.22-.65 1.48-1.52 1.48-2.13 0-.7-.3-1.32-.56-1.88l-.1-.22Z" class="cls-20"/><g id="Sign"><path d="M114.74 152.72q-.41-.78-.94-1.46l-.01-.02a197 197 0 0 0-13.04-14.66 386 386 0 0 0-17.72-17.03c-1.02-.92-2.19-1.86-3.57-2.14-1.5-.31-2.85.3-3.78 1.49-.91 1.17-1.35 2.68-1.87 4.04-2.37 6.12-4.83 12.21-7.24 18.32a593 593 0 0 0-7.22 19.08l-.86 2.44c-.63 1.94-1.06 4.37.15 6.18a4 4 0 0 0 2.42 1.68c1 .23 1.99.17 2.98.05 2.36-.3 4.71-.77 7.05-1.2s4.79-.92 7.18-1.42q7.22-1.53 14.33-3.47a234 234 0 0 0 17.77-5.65c1.05-.38 2.21-.69 3.17-1.28a3.5 3.5 0 0 0 1.75-2.24c.18-.93-.1-1.87-.52-2.7Z" class="cls-20"/><path d="M77.17 133.62c.89-.55 2.31-1.14 3.62-1.43s2.85-.33 3.89-.19l1.22 17.06-2.82.61-5.9-16.05Zm5.37 21.93c-.32-1.48.43-3.33 2.46-3.77s3.48.94 3.8 2.42-.43 3.33-2.46 3.77-3.48-.94-3.8-2.42" class="cls-9"/></g></g></g></svg>