<?xml version="1.0" encoding="UTF-8"?><svg xmlns="http://www.w3.org/2000/svg" viewBox="0 0 200 200"><defs><style>.cls-1{fill:none;}.cls-2{fill:#c0d9dd;}.cls-3{fill:#f47f20;}.cls-4{fill:#c1dade;}.cls-5{fill:#eeece9;}.cls-6{fill:#575655;}.cls-7{fill:#b85027;}.cls-8{fill:#a0b3b4;}.cls-9{fill:#fff;}.cls-10{fill:#e4b241;}.cls-11{opacity:.38;}.cls-12{opacity:.33;}.cls-13{fill:#b88c3b;}.cls-14{fill:#faad5f;opacity:.41;}.cls-15{fill:#f5c141;}.cls-16{fill:#b3c9cb;}.cls-17{fill:#5b3d5b;}</style></defs><g id="BG_x5F_Strong"><path class="cls-6" d="M4.35,127.55c90.62,98.94,68.76,17.54,121.66,27.34,74.9,32.57,97.6-120.97,28.72-129.67-37.87-5.21-85.78,12.9-102.24,49.22-.39,32.74-53.18,26.08-48.14,53.11Z"/></g><g id="Outline"><path class="cls-5" d="M19.06,126.14c-.06.19-.21.23-.33.38.05.49.41-.74.34-.1.09-.16.12-.3.15-.44l-.36.1c-.08.36.19-.17.19.06Z"/><path class="cls-5" d="M19.26,125.98s-.02,0-.02-.02c0,0,0,.01,0,.02h.03s0,0,0,0Z"/><path class="cls-5" d="M23.05,117.75s.01.05.02.07c0-.03,0-.05-.02-.07Z"/><path class="cls-5" d="M166.07,23.62c.16.05.31.09.46.12-.26-.09-.39-.12-.46-.12Z"/><path class="cls-5" d="M158.92,21c-.24,0-.49-.16-.48,0,.09.1.58.15.48,0Z"/><path class="cls-5" d="M161.87,23.5s.02.03.03.05c.04-.03,0-.05-.03-.05Z"/><path class="cls-5" d="M163.46,24.8l.15.16s-.09-.1-.15-.16Z"/><path class="cls-17" d="M117.91,151.38c.18-.48.51-.47,1-.45.12,0,.26,0,.4,0,1.25-.02,3.01.06,3.64.1h.02c.58.04,2.1.19,2.39.31.17.08.28.39.28.84,0,.41-.09.83-.22,1.01-.16.22-1.88.14-2.88.07l-3.17-.21c-1.54-.1-1.59-.24-1.58-.86l.11-.04h0s0,0,0,0l-.11.03h0c0-.33.05-.6.13-.8Z"/><path class="cls-16" d="M90.19,97.13c.49-5.35,2.72-32.02,2.8-33.73.08-1.71,2-27.06,2.19-29.67.18-2.61.52-9.77,1.14-11.08.62-1.31,1.63-3.3,3.15-3.98,1.51-.68,3.63-1.31,8.27-1.09,4.64.21,30.67,1.61,34.62,1.87,3.3.22,19.79,1.42,26.11,1.77.02-.19.17-.39.37-.38h0c2.51.13,5.11.65,7.26,2.02.8.51,1.53,1.13,2.12,1.88.69.89,1.09,1.96,1.34,3.06.36,1.56.47,3.17.44,4.77,0,.35-.22,2.97-.23,3.19-.09,1.33-.16,2.66-.25,3.99-.02.22-.29.36-.48.32,0,0,0,0-.01,0v.05s-1.24-.11-1.24-.11l-.93,12.56,1.28.09c.06-.01.11-.02.16,0,.24.05.34.26.32.48h0c-.11,1.66-.22,3.31-.33,4.97.02.05.03.11.02.18h0c-.41,5.86-.81,11.71-1.21,17.57-.4,5.92-.81,11.84-1.22,17.75-.43,6.2-.86,12.4-1.25,18.61-.39,6.14-.75,12.27-1.1,18.41-.36,6.12-.71,12.23-1.08,18.35-.05.79-.1,1.58-.14,2.37-.02.28-.26.41-.48.41-.04.79-.09,1.74-.14,2.68.02,0,.04,0,.06,0,.24.05.34.26.32.48h0c-.08,1.32-.16,2.64-.24,3.96,0,0,0,.02,0,.03-.01.49-.05.97-.1,1.46-.01.21-.03.42-.04.63,0,.06-.03.11-.06.15-.24,1.67-.72,3.29-1.47,4.81-.63,1.25-1.53,2.28-2.7,3.05-1.24.83-2.69,1.37-4.18,1.54-.9.1-1.82.05-2.72,0-.46-.02-.93-.05-1.39-.1-.95-.05-1.91-.1-2.86-.16-2.87-.16-5.75-.32-8.62-.49-2.39-.14-4.78-.32-7.17-.49-4.76-.34-9.52-.65-14.28-.97-5.03-.34-10.06-.71-15.07-1.23-.19-.02-.37-.04-.55-.06-2.81-.24-5.61-.59-8.41-.85-.44-.04-.88-.08-1.32-.12-.19-.02-.37-.03-.56-.04-.08,0-.17-.01-.25-.02-.03,0-.05,0-.08,0-.01,0-.02,0-.03,0-.02,0-.03,0-.05,0-.01,0-.02,0-.03,0-.03,0-.06,0-.08,0h0c-1.11-.08-2.23-.2-3.34-.33-1.1-.13-2.24-.24-3.31-.55-1.59-.45-3.07-1.26-4.13-2.54-.98-1.19-1.56-2.69-1.82-4.19-.26-1.51-.35-3.05-.44-4.57-.02-.25.17-.39.36-.42.08-3.58.31-10.74.82-20.01.6-10.96,1.75-30.95,2.24-36.29Z"/><path class="cls-15" d="M176.29,52.71c.12-3.35.3-6.7.58-10.04.08-.97.17-1.94.26-2.91.02-.22.28-.36.48-.32.11.02.19.08.24.16.6,0,1.22-.01,1.82.03.6.04.9.5.94,1.07.04.62.01,1.26,0,1.88,0,.65-.02,1.29-.04,1.94-.08,2.55-.26,5.1-.56,7.64-.04.3-.1.61-.37.79-.24.16-.54.16-.81.16-.62,0-1.25-.06-1.87-.12-.06.06-.14.1-.25.11-.2.01-.45-.16-.44-.38h0Z"/><path class="cls-2" d="M175.37,35.05l.2-2.24s-.04,0-.06,0c-.22-.01-.36-.29-.32-.48.05-.24.26-.34.48-.32,1.33.09,2.67.12,4,.2.22.02.36.29.32.48,0,.03-.01.05-.02.07-.01.49-.05.98-.09,1.47-.02.28-.04.56-.06.84,0,.12-.02.24-.03.36,0,.06,0,.11-.01.17,0,0,0,.01,0,.02,0,0,0,0,0,.03,0,0,0,0,0,0,0,0,0,0,0,0,0-.01,0-.03,0-.05,0,0,0,.02,0,.05,0,.03,0,.06,0,.09-.02.11-.08.19-.15.24,0,0,0,0,0,0,0,0-.01,0-.02.01-.05.04-.12.06-.2.07-.03,0-.06,0-.09,0,0,0-.01,0-.02,0-1.32-.09-2.64-.17-3.96-.26-.22-.02-.36-.29-.32-.48.04-.19.19-.27.37-.3Z"/><path class="cls-2" d="M167.71,154.21l.17-2.62c-.11-.06-.19-.15-.2-.3-.01-.2.16-.45.38-.44h0c1.19.04,2.37.12,3.56.16.1-.08.24-.12.35-.1.24.05.33.25.32.47,0,0,0,0,0,.01,0,.03,0,.07,0,.1-.07,1.12-.16,2.24-.22,3.35,0,.14-.12.25-.25.3-.09.06-.21.09-.33.08-1.26-.08-2.53-.17-3.79-.25-.22-.02-.36-.29-.32-.48.04-.18.18-.26.33-.29Z"/><path class="cls-9" d="M174.11,90.91c-.39,5.46-.79,10.91-1.18,16.37-.04.54-.86.37-.82-.16.39-5.46.79-10.91,1.18-16.37.04-.54.86-.37.82.16h0Z"/><path class="cls-9" d="M173.54,90.57c.72-.85,1.43-1.69,2.15-2.54.14-.17.43-.2.59-.04s.19.41.04.59c-.72.85-1.43,1.69-2.15,2.54-.14.17-.43.2-.59.04s-.19-.41-.04-.59h0Z"/><path class="cls-9" d="M173.02,106.96c.55,1.11,1.1,2.21,1.65,3.32l-.77-.04c.08-.22.16-.44.24-.66s.37-.28.56-.19c.22.11.27.35.19.56s-.16.44-.24.66c-.05.15-.25.24-.4.23-.18-.01-.29-.12-.37-.27-.55-1.11-1.1-2.21-1.65-3.32-.1-.2.06-.47.26-.54.24-.08.43.05.54.26h0Z"/><path class="cls-2" d="M168.1,154.41s0,0,0-.01c.01-.17.02-.35.03-.52.43-6.69.83-13.38,1.22-20.07.38-6.53.76-13.06,1.15-19.59.4-6.68.83-13.36,1.3-20.04.46-6.61.92-13.23,1.38-19.85.44-6.54.89-13.07,1.35-19.61h0c0-.07,0-.13-.02-.18.19-2.78.37-5.56.56-8.34.24-3.58.48-7.15.72-10.73.07-.99.13-1.99.2-2.98,0,0,0,0,0,0h0s0,0,0,0c0,0,0-.02,0-.03.15-2.19.33-4.36-.25-6.51-.29-1.1-.77-2.25-1.58-3.07-.62-.63-1.45-1.05-2.27-1.34-1.3-.46-2.65-.66-4.02-.74-3.69-.24-7.38-.49-11.07-.73-5.83-.44-11.67-.85-17.51-1.21-5.75-.36-11.5-.69-17.25-.98-2.93-.15-5.86-.3-8.8-.43-1.52-.07-3.04-.14-4.56-.21-1.31-.06-2.64-.16-3.95-.16-2.13,0-4.53.37-6.21,1.78-1.83,1.54-2.86,3.7-3.15,6.04-.15,1.19-.17,2.4-.25,3.6-.06.93-.13,1.86-.2,2.8-.12,1.62-.21,3.24-.3,4.86-.01.03-.02.07-.02.11-.1,1.34-.2,2.68-.29,4.02-.77,10.51-1.62,21.02-2.46,31.52-.82,10.23-1.64,20.45-2.38,30.68-.74,10.23-1.4,20.47-1.92,30.71-.27,5.23-.43,10.47-.69,15.71-.11,2.21-.33,4.5.14,6.68.4,1.84,1.45,3.33,3.07,4.3,2.83,1.68,6.36,1.47,9.52,1.78,2.45.24,4.89.56,7.34.79.36.04.71.08,1.07.11,4.98.51,9.96.88,14.95,1.22,4.7.32,9.41.62,14.11.96,2.36.17,4.73.35,7.09.49,2.86.17,5.72.33,8.58.49,1.28.07,2.56.14,3.83.21.57.03,1.14.07,1.71.08.86.07,1.74.14,2.6.11,1.49-.05,3-.56,4.16-1.53,1.22-1.02,1.9-2.4,2.32-3.9.36-1.28.51-2.6.58-3.93,0-.09.01-.18.02-.26,0,0,0-.01,0-.02,0-.12.02-.25.02-.37.04-.57.1-1.13.11-1.7Z"/><path class="cls-8" d="M99.96,166.02s.02,0,.03,0c-.03,0-.04,0-.03,0Z"/><polygon class="cls-8" points="179.76 35.77 179.76 35.77 179.76 35.76 179.76 35.77"/><path class="cls-5" d="M86.76,25.92s-.05-.05-.07-.08c.04.03.06.05.07.08Z"/><path class="cls-5" d="M165.02,89.35c-.03-.1-.06-.21-.07-.29.07.14.08.23.07.29Z"/><path class="cls-15" d="M92.27,49.83c.07-.96.15-1.92.22-2.88.07-.95.14-1.89.22-2.84.04-.48.07-.96.11-1.45.03-.41.03-.85.12-1.26.09-.4.31-.78.72-.92.37-.13.8-.03,1.03.31.12.18.08.36-.03.48l-.7,9.19c.17.23.09.64-.28.66-.36.02-.75,0-1.05-.23-.34-.26-.38-.66-.35-1.06Z"/><path class="cls-15" d="M91.21,64.08c.05-.96.12-1.92.2-2.87.15-1.85.3-3.71.55-5.55.06-.42.23-.86.64-1.04.36-.16.8-.07,1.03.26.13.2.07.4-.07.52l-.88,9.03c.12.06.22.14.3.24.31.41-.32.85-.64.5,0,0-.01,0-.03,0-.06,0-.13,0-.19,0-.19,0-.36-.03-.52-.12-.34-.2-.4-.6-.38-.96Z"/><path class="cls-2" d="M179.9,34.03c-.04.62-.08,1.23-.13,1.85,0,.09-.1.21-.17.26-.08.06-.21.09-.31.06-.1-.02-.2-.08-.26-.17-.06-.1-.07-.2-.06-.31.04-.62.08-1.23.13-1.85,0-.09.1-.21.17-.26.08-.06.21-.09.31-.06.1.02.2.08.26.17.06.1.07.2.06.31"/><path class="cls-9" d="M98.44,52.24c.32-3.73.7-7.45,1.07-11.17.54-3.44-.03-8.59,4.09-10.07,0,0,.03.07.06.13h0c.1-.04.25-.07.42-.1-.16-.01-.32-.03-.48-.04,3.87-.66,7.8-.06,11.7.03l11.62.63,23.24,1.34s11.62.74,11.62.74c3.74.17,9.64.25,9.33,5.29-.82,15.22-3.62,52.94-4.77,68.57-.84,11.2-1.71,22.39-2.93,33.56-1.15,8.72.11,11.35-10.45,10.45-18.06-1.32-37.09-3.06-55.18-4.02,0,0-1.45-.08-1.45-.08-3.76.09-4.26-2.84-4.15-5.71,1.13-29.1,3.62-60.55,6.27-89.55Z"/><path class="cls-17" d="M137.11,27.21c-2.52.18-2.81-3.74-.28-3.92,2.53-.18,2.81,3.74.28,3.92"/><path class="cls-9" d="M98.55,50.09c.04-.4.07-.81.11-1.22.29-3.29.64-6.57.98-9.86.52-3.03-.09-7.59,4.01-8.87,0,0,.03.06.06.12h0c.1-.04.25-.06.42-.08-.16-.01-.32-.03-.48-.04,3.86-.55,7.79,0,11.69.12l11.62.65,23.24,1.36s11.62.74,11.62.74c3.74.18,9.64.3,9.36,4.74-.22,4.16-.61,10.24-1.08,17.04l-71.56-4.71Z"/><path class="cls-17" d="M122.32,165.22c.18-.48.51-.47,1-.45.12,0,.26,0,.4,0,1.25-.02,3.01.06,3.64.1h.02c.58.04,2.1.19,2.39.31.17.08.28.39.28.84,0,.41-.09.83-.22,1.01-.16.22-1.88.14-2.88.07l-3.17-.21c-1.54-.1-1.59-.24-1.58-.86l.11-.04h0s0,0,0,0l-.11.03h0c0-.33.05-.6.13-.8Z"/><g id="Layer_7"><path class="cls-3" d="M161.87,79.39c.09-.75.16-1.5.22-2.24,0,0,0-.01,0-.02.23-2.33.44-4.65.63-6.98.2-2.39.39-4.78.56-7.17.17-2.36.34-4.73.49-7.09.15-2.36.3-4.73.45-7.09.07-1.19.15-2.39.22-3.58.03-.52.04-1.06-.2-1.54-.22-.43-.65-.7-1.1-.84-.24-.08-.5-.11-.75-.13-1.09-.08-2.18-.16-3.27-.25-.51-.04-1.02-.08-1.54-.12-1.39-.1-2.78-.21-4.16-.31-2.03-.15-4.06-.31-6.09-.46-2.46-.18-4.92-.37-7.39-.55-2.66-.2-5.33-.4-7.99-.6-2.63-.2-5.26-.4-7.89-.59-2.38-.18-4.77-.36-7.15-.54-1.92-.14-3.84-.29-5.76-.43l-3.67-.28c-1.04-.08-2.36-.3-2.99.76-.29.5-.31,1.1-.37,1.67-.06.56-.12,1.12-.16,1.68,0,0,0,.02,0,.02-.23,2.32-.44,4.65-.63,6.97-.2,2.39-.39,4.78-.56,7.17-.17,2.36-.34,4.73-.49,7.09-.15,2.36-.3,4.73-.45,7.09-.07,1.19-.15,2.39-.22,3.58-.03.52-.04,1.06.2,1.54.22.43.65.7,1.1.84.24.08.5.11.75.13,3.73.28,7.46.56,11.19.84,3.05.23,6.11.46,9.16.69,2.81.21,5.62.42,8.42.63,3,.22,6,.45,8.99.67,3.62.27,7.24.54,10.87.81.52.04,1.04.08,1.55.12,1.08.08,2.16.17,3.24.25.66.05,1.31.1,1.97.15.54.04,1.1.1,1.63-.09.33-.12.6-.31.81-.6.25-.35.33-.79.38-1.21h0Z"/></g><g id="Layer_16"><path class="cls-10" d="M118.55,40.47s0,0,0,0h0Z"/><path class="cls-10" d="M118.54,40.47h.01s-.01,0-.01,0Z"/><path class="cls-10" d="M118.46,40.47h.07s-.04,0-.07,0Z"/><path class="cls-10" d="M118.52,40.47h.01s-.01,0-.01,0Z"/><path class="cls-1" d="M162.39,42.7c.25.03.51.06.75.13.45.14.88.4,1.1.84.24.48.23,1.02.2,1.54-.04.61-.07,1.22-.11,1.82.08.06.15.1.19.12.1.06.18-.8.24-1.49.07-.69.88-2,.05-2.64-.84-.64-4.14-.89-4.14-.89.1.11.23.29.34.47.46.04.93.07,1.39.1h0Z"/></g><path class="cls-14" d="M126.94,40.04c-.96-.07-1.93-.14-2.89-.22-2.38-.18-4.77-.36-7.15-.54-1.92-.14-3.84-.29-5.76-.43l-3.67-.28c-1.04-.08-2.36-.3-2.99.76-.29.5-.31,1.1-.37,1.67-.06.56-.12,1.12-.16,1.68,0,0,0,.02,0,.02-.23,2.32-.44,4.65-.63,6.97-.18,2.13-.35,4.27-.5,6.41,4.78-7.93,14.04-12.82,24.13-16.05Z"/><path class="cls-9" d="M116.31,49.83c-.03-.08-.38-.87-1.09-1.88l-.03-.08c0-.56-.05-1.12-.12-1.69,0-.06-.04-.11-.07-.15-.05-.04-.09-.07-.15-.07l-.79-.15s-.01,0-.02,0c-.05,0-.09.02-.12.05s-.05.07-.06.12l-.02.27h0c-.47-.49-.98-.93-1.52-1.33-.11-.08-.24-.14-.39-.15s-.27.02-.4.09c-2.86,1.52-4.57,4.18-4.63,4.33-.02.04-.03.08-.03.12,0,.06.01.12.05.17s.08.09.13.11l.78.2c.05.01.1.06.13.09s.05.09.06.15c0,.14-.07,3.29.06,4.11,0,.06.04.11.09.15s.1.07.16.06h0c.46.01.89.04,1.35.07h.03s.01,0,.03,0h.03s0-.03.02-.03,0-.02,0-.03h0c0-.28,0-.91.02-1.57,0-.01,0-.03,0-.05,0-.03,0-.06-.01-.07-.01-.03-.03-.05-.05-.06-.11-.08-.21-.19-.28-.32s-.1-.26-.09-.4c.03-1.11.1-2.38.22-3.36,0-.03.03-.08.06-.1.04-.03.08-.04.11-.03.03,0,.08.02.1.06.03.04.04.08.04.11h0c-.08.67-.14,1.46-.17,2.23,0,.03,0,.05.01.07s.02.04.04.06.03.04.06.04.05.01.07.02.05,0,.07-.01.04-.02.06-.04.03-.04.04-.06.01-.05.02-.07c.03-.78.09-1.57.19-2.23,0-.05.02-.08.05-.11s.08-.04.11-.04.08.02.11.05.04.08.04.11h0c-.08.67-.14,1.46-.18,2.22,0,.05.02.1.05.14s.09.06.13.06c.05,0,.11,0,.14-.05.04-.03.06-.09.06-.13.03-.78.09-1.57.17-2.22,0-.05.02-.08.05-.11s.08-.04.11-.04c.05,0,.08.02.11.05s.04.08.04.11h0c-.12.98-.18,2.21-.23,3.29h0s0,.03,0,.03h0c0,.16-.05.28-.13.41s-.17.22-.3.28c-.03.01-.04.03-.06.05,0,.02-.02.04-.02.07,0,0-.03.17,0,.97,0,.36.02.6.02.71l.02.05s.04.02.06.03h.08c.16,0,.31.03.48.04h.06s.59.05.59.05l.45.03s.05,0,.05-.02c.01,0,.02-.02.03-.04.17-.95.23-1.49.23-1.49,0-.02,0-.05-.03-.07s-.04-.03-.06-.04l-.54-.11s-.07-.02-.09-.04-.04-.06-.05-.09,0-.06,0-.08c.43-3.18,1.57-4.19,1.57-4.19,0-.02.04-.03.05-.03.03-.01.07-.03.1-.02s.07.02.09.04.05.04.06.09c.01.03,0,.05.01.07.02,1.01-.14,2.71-.29,4.05-.12,1.12-.24,2.01-.24,2.01v.03s.02.01.02.03,0,.01.02.02h.02c.29.04.6.06.9.09h0c.06,0,.12-.01.17-.05.05-.03.09-.08.11-.13.25-.8.6-3.93.63-4.06.01-.05.04-.11.07-.14.03-.04.09-.06.14-.08l.8-.1c.06,0,.11-.04.15-.09s.07-.1.06-.16c-.01-.07-.03-.11-.04-.16h0Z"/><g class="cls-12"><path class="cls-4" d="M157.9,90.1c-.51-.29-1.06-.36-1.56-.43-6.48-.82-13.1-1.23-19.51-1.62l-1.77-.11c-11.06-.69-20.34-1.29-30.76-2.29-1.83-.18-3.28.74-4.11,2.57-1.11,2.46-.84,6.15.55,7.45h0c1.18,1.1,4.53,1.33,4.67,1.34,1.66.11,5.83.45,11.12.88,11.54.94,28.98,2.36,37.98,2.81.29.01.61.03.94.03.67,0,1.38-.07,2.05-.34,2-.82,2.06-3.24,2.1-5.18,0-.28.01-.55.02-.81.09-2.05-.17-3.41-1.73-4.31Z"/><path class="cls-4" d="M157.46,108.67c-.51-.29-1.06-.36-1.56-.43-6.48-.82-13.11-1.23-19.51-1.62l-1.77-.11c-11.06-.69-20.34-1.29-30.76-2.29-1.83-.18-3.28.74-4.11,2.57-1.11,2.46-.84,6.15.55,7.45,1.18,1.1,4.53,1.33,4.67,1.34,1.66.11,5.83.45,11.12.88,11.54.94,28.98,2.36,37.98,2.81.31.02.63.03.96.03.67,0,1.36-.07,2.03-.34,2-.82,2.06-3.24,2.1-5.18,0-.28.01-.55.02-.81.09-2.05-.17-3.41-1.73-4.31Z"/><path class="cls-4" d="M123.87,125.11c-.51-.29-1.06-.36-1.56-.43-4.17-.53-6.75-.74-10.33-1.03-2.49-.2-5.47-.45-9.82-.87-1.83-.18-3.28.74-4.11,2.57-1.11,2.46-.84,6.15.55,7.45h0c1.18,1.1,4.53,1.33,4.67,1.34,1.94.13,3,.28,4.23.46,2.1.31,4.7.69,12.98,1.1.29.01.61.03.94.03.67,0,1.39-.07,2.05-.34,2-.82,2.06-3.24,2.1-5.18,0-.28.01-.55.02-.81.09-2.05-.17-3.41-1.73-4.31Z"/><path class="cls-4" d="M156.58,127.93c-.51-.29-1.09-.37-1.56-.43-4.17-.53-6.75-.74-10.33-1.03-2.49-.2-5.48-.45-9.83-.87-1.85-.19-3.28.74-4.11,2.57-1.11,2.46-.84,6.15.55,7.45,1.18,1.1,4.53,1.33,4.67,1.34,1.94.13,3,.28,4.23.46,2.1.31,4.7.69,12.98,1.1.29.01.61.03.94.03.67,0,1.39-.07,2.05-.34,2-.82,2.06-3.24,2.1-5.18,0-.28.01-.55.02-.81.09-2.05-.17-3.41-1.73-4.31Z"/></g><path class="cls-8" d="M116.33,92.97c.05-.72-2.4-1.17-5.69-1.38-3.29-.21-6.17-.1-6.22.61-.05.72,2.66.95,5.95,1.17,3.29.21,5.9.32,5.95-.4Z"/><path class="cls-8" d="M134.5,93.99c.05-.72-2.4-1.17-5.69-1.38-3.29-.21-6.17-.1-6.22.61-.05.72,2.66.95,5.95,1.17,3.29.21,5.9.32,5.95-.4Z"/><path class="cls-8" d="M152.45,95.14c.05-.72-2.4-1.17-5.69-1.38-3.29-.21-6.17-.1-6.22.61-.05.72,2.66.95,5.95,1.17,3.29.21,5.9.32,5.95-.4Z"/><g class="cls-11"><path class="cls-9" d="M130.34,71.94c.04-.19.87-.61-.52-.83-1.73-.26-5.97-.31-8.62-.5-5.21-.36-10.06-.85-11-.91-1.86-.12-3.62-.37-3.79.5-.17.87,1.36.63,3.22.75,1.03.07,6.57.64,11.92.87,4.33.18,8.72.5,8.8.11Z"/></g><path class="cls-9" d="M113.83,64.62c.04-.19.39-.78-1.01-.9-1.22-.1-1.7-.14-2.64-.2-1.86-.12-3.19-.34-3.32.53-.09.57,1.36.63,3.22.75,1.03.07,3.67.2,3.75-.19Z"/><path class="cls-9" d="M122.59,65.03c.04-.19.39-.78-1.01-.9-1.22-.1-1.7-.14-2.64-.2-1.86-.12-3.19-.34-3.32.53-.09.57,1.36.63,3.22.75,1.03.07,3.67.2,3.75-.19Z"/><path class="cls-9" d="M131.57,65.36c.04-.19.39-.78-1.01-.9-1.22-.1-1.7-.14-2.64-.2-1.86-.12-3.19-.34-3.32.53-.09.57,1.36.63,3.22.75,1.03.07,3.67.2,3.75-.19Z"/><g class="cls-11"><path class="cls-9" d="M157.75,73.63c.04-.19.87-.61-.52-.83-1.73-.26-5.97-.31-8.62-.5-5.21-.36-10.06-.85-11-.91-1.86-.12-3.62-.37-3.79.5-.17.87,1.36.63,3.22.75,1.03.07,6.57.64,11.92.87,4.33.18,8.72.5,8.8.11Z"/></g><path class="cls-8" d="M137.74,132.07c.27-.66-.27-1.01-1.14-1.11-.87-.1-1.74.08-2.01.74-.27.66.43.81,1.3.91.87.1,1.59.13,1.86-.54Z"/><path class="cls-8" d="M121.64,130.44c.12-.71-1.06-1.07-2.71-1.16-1.65-.09-3.14.11-3.26.82-.12.71,1.23.85,2.88.94,1.65.09,2.97.11,3.09-.6Z"/><path class="cls-8" d="M107.39,128.56c.12-.71-1.06-1.07-2.71-1.16-1.65-.09-3.14.11-3.26.82-.12.71,1.23.85,2.88.94,1.65.09,2.97.11,3.09-.6Z"/><path class="cls-8" d="M145,132.58c.27-.66-.27-1.01-1.14-1.11-.87-.1-1.74.08-2.01.74-.27.66.43.81,1.3.91s1.59.13,1.86-.54Z"/><path class="cls-8" d="M152.38,133.22c.27-.66-.27-1.01-1.14-1.11-.87-.1-1.74.08-2.01.74-.27.66.43.81,1.3.91s1.59.13,1.86-.54Z"/><path class="cls-8" d="M122.72,111.21c.05-.72-2.4-1.17-5.69-1.38-1.43-.09-5.36-.39-7.8-.54-3.19-.2-4.8-.22-4.82.18-.03.41-.02.91,3.18,1.37,2.34.33,7.79.68,9.18.77,3.29.21,5.9.32,5.95-.4Z"/><path class="cls-8" d="M145,112.52c.05-.72-2.4-1.17-5.69-1.38-1.43-.09-5.36-.39-7.8-.54-3.19-.2-4.8-.22-4.82.18-.03.41-.02.91,3.18,1.37,2.34.33,7.79.68,9.18.77,3.29.21,5.9.32,5.95-.4Z"/><path class="cls-8" d="M114.77,125.36c-.4-.33-1.08.31-2.57,2.14-1.49,1.83-4.42,5.24-4.02,5.57.4.33,1.93-.9,3.43-2.73,1.49-1.83,3.57-4.65,3.17-4.98Z"/><g id="Layer_10"><path class="cls-7" d="M106.96,181.2c.78-1.05,1.53-2.12,2.27-3.2,0,0,.01-.02.01-.03,2.35-3.31,4.68-6.64,6.99-9.98,2.37-3.43,4.72-6.87,7.05-10.32,2.3-3.41,4.59-6.84,6.87-10.27,2.28-3.43,4.54-6.87,6.8-10.31,1.14-1.74,2.28-3.47,3.42-5.21.5-.76.98-1.57,1.02-2.5.04-.85-.38-1.62-.94-2.22-.3-.33-.66-.6-1.02-.86-1.58-1.08-3.17-2.16-4.75-3.24-.74-.51-1.49-1.01-2.23-1.52-2.01-1.37-4.03-2.74-6.04-4.12-2.95-2.01-5.89-4.02-8.84-6.03-3.57-2.43-7.15-4.87-10.72-7.3-3.87-2.63-7.73-5.27-11.6-7.9-3.82-2.6-7.64-5.2-11.46-7.81-3.46-2.36-6.92-4.72-10.38-7.08-2.79-1.9-5.58-3.8-8.37-5.7l-5.33-3.63c-1.5-1.02-3.32-2.52-5.19-1.46-.88.5-1.43,1.39-2,2.19-.57.8-1.14,1.59-1.69,2.39,0,.01-.01.02-.02.04-2.35,3.31-4.68,6.63-6.99,9.97-2.37,3.43-4.72,6.87-7.05,10.32-2.3,3.41-4.59,6.84-6.87,10.27-2.28,3.43-4.54,6.87-6.8,10.31-1.14,1.74-2.28,3.47-3.42,5.21-.5.76-.98,1.57-1.02,2.5-.04.85.38,1.62.94,2.22.3.33.66.6,1.02.86,5.41,3.69,10.83,7.38,16.24,11.07,4.43,3.02,8.86,6.04,13.29,9.05,4.08,2.78,8.15,5.55,12.23,8.33,4.35,2.96,8.71,5.93,13.06,8.89,5.26,3.58,10.51,7.16,15.77,10.74.75.51,1.5,1.02,2.26,1.54,1.57,1.07,3.13,2.14,4.7,3.21.95.65,1.9,1.3,2.86,1.95.79.54,1.59,1.12,2.55,1.29.6.11,1.19.05,1.75-.2.68-.31,1.18-.9,1.62-1.49h0Z"/><path class="cls-13" d="M54.16,72.07c.65-1.01,1.83-1.58,3.03-1.33,1.07.22,1.62,1.16,2.6,1.52.7.25.97-.86.28-1.11-.69-.25-1.16-.98-1.86-1.28-.6-.25-1.24-.37-1.89-.33-1.33.09-2.46.87-3.17,1.97-.4.62.61,1.18,1.01.56h0Z"/></g><g id="Layer_7-2"><path class="cls-3" d="M106.52,179.54c.78-1.05,1.53-2.12,2.27-3.2,0,0,.01-.02.01-.03,2.35-3.31,4.68-6.64,6.99-9.98,2.37-3.43,4.72-6.87,7.05-10.32,2.3-3.41,4.59-6.84,6.87-10.27,2.28-3.43,4.54-6.87,6.8-10.31,1.14-1.74,2.28-3.47,3.42-5.21.5-.76.98-1.57,1.02-2.5.04-.85-.38-1.62-.94-2.22-.3-.33-.66-.6-1.02-.86-1.58-1.08-3.17-2.16-4.75-3.24-.74-.51-1.49-1.01-2.23-1.52-2.01-1.37-4.03-2.74-6.04-4.12-2.95-2.01-5.89-4.02-8.84-6.03-3.57-2.43-7.15-4.87-10.72-7.3-3.87-2.63-7.73-5.27-11.6-7.9-3.82-2.6-7.64-5.2-11.46-7.81-3.46-2.36-6.92-4.72-10.38-7.08-2.79-1.9-5.58-3.8-8.37-5.7l-5.33-3.63c-1.5-1.02-3.32-2.52-5.19-1.46-.88.5-1.43,1.39-2,2.19-.57.8-1.14,1.59-1.69,2.39,0,.01-.01.02-.02.04-2.35,3.31-4.68,6.63-6.99,9.97-2.37,3.43-4.72,6.87-7.05,10.32-2.3,3.41-4.59,6.84-6.87,10.27-2.28,3.43-4.54,6.87-6.8,10.31-1.14,1.74-2.28,3.47-3.42,5.21-.5.76-.98,1.57-1.02,2.5-.04.85.38,1.62.94,2.22.3.33.66.6,1.02.86,5.41,3.69,10.83,7.38,16.24,11.07,4.43,3.02,8.86,6.04,13.29,9.05,4.08,2.78,8.15,5.55,12.23,8.33,4.35,2.96,8.71,5.93,13.06,8.89,5.26,3.58,10.51,7.16,15.77,10.74.75.51,1.5,1.02,2.26,1.54,1.57,1.07,3.13,2.14,4.7,3.21.95.65,1.9,1.3,2.86,1.95.79.54,1.59,1.12,2.55,1.29.6.11,1.19.05,1.75-.2.68-.31,1.18-.9,1.62-1.49h0Z"/></g><g id="Layer_16-2"><path class="cls-1" d="M50.39,73.43c.55-.81,1.12-1.6,1.69-2.39.57-.8,1.12-1.69,2-2.19,1.87-1.06,3.69.44,5.19,1.46l5.33,3.63c2.79,1.9,5.58,3.8,8.37,5.7,3.46,2.36,6.92,4.72,10.38,7.08,1.18.8,2.36,1.61,3.54,2.42.22-.01.4-.03.49-.01.2.04-24.84-19.39-28.14-20.81-3.3-1.43-3.05-3.5-5.8-.7-2.75,2.8-9.53,15.05-10.06,15.83,2.31-3.34,4.63-6.66,6.99-9.97,0-.01.01-.02.02-.04h0Z"/><path class="cls-10" d="M74.45,82.88s0,0,0,0h0Z"/><path class="cls-10" d="M74.43,82.87h.02s-.02,0-.02,0Z"/><path class="cls-10" d="M74.31,82.79l.1.07s-.06-.04-.1-.07Z"/><path class="cls-10" d="M74.41,82.85h.02s-.02,0-.02,0Z"/><path class="cls-1" d="M139,124.63c.36.26.72.53,1.02.86.56.6.98,1.38.94,2.22-.05.93-.52,1.74-1.02,2.5-.58.89-1.16,1.77-1.74,2.66.08.16.15.29.18.34.11.18.96-1.05,1.66-2.04.7-.99,3.07-2.25,2.35-3.94-.72-1.69-5.51-4.97-5.51-4.97.06.26.1.63.11,1,.67.46,1.35.92,2.02,1.37h0Z"/></g><path class="cls-7" d="M43.01,114.89c-.16-.48-1.89-.34-3.87.31-1,.34-1.84.68-2.5,1.14-.32.23-.55.49-.66.71-.11.22-.1.39-.01.47.19.18.58.08,1.19,0,.6-.08,1.57-.26,2.55-.59,1.98-.65,3.46-1.57,3.31-2.05Z"/><path class="cls-7" d="M39.71,119.24c.25.03.52-.3.72-.89.2-.59.3-1.43.21-2.35-.09-.92-.35-1.73-.65-2.27-.3-.54-.63-.82-.87-.74-.48.16-.44,1.56-.29,3.19.16,1.62.38,3,.89,3.07Z"/><path class="cls-7" d="M50.96,120.96c-.14-.49-1.57-.51-3.2-.06-1.63.45-2.84,1.22-2.71,1.7.14.49,1.57.51,3.2.06,1.63-.45,2.84-1.22,2.71-1.7Z"/><path class="cls-7" d="M48.22,125.1c.24.07.58-.23.84-.85.26-.61.42-1.54.28-2.55-.14-1.01-.55-1.86-.97-2.37-.42-.52-.83-.71-1.04-.58-.22.14-.21.56-.13,1.12.09.55.21,1.28.34,2.09.1.81.19,1.55.26,2.1.08.56.19.97.44,1.04Z"/><path class="cls-7" d="M62.36,128.7c-.14-.48-1.61-.48-3.27.01-1.66.49-2.9,1.28-2.76,1.76.14.48,1.61.48,3.27-.01,1.66-.49,2.9-1.28,2.76-1.76Z"/><path class="cls-7" d="M59.46,132.98c.5-.07.72-1.57.48-3.36-.23-1.79-.83-3.19-1.33-3.13-.5.07-.72,1.57-.48,3.36.23,1.79.83,3.19,1.33,3.13Z"/><path class="cls-7" d="M69.84,133.53c-.11-.49-1.64-.55-3.34.08-1.7.62-2.84,1.64-2.61,2.09.23.45,1.64.2,3.23-.37,1.59-.58,2.84-1.3,2.72-1.79Z"/><path class="cls-7" d="M66.93,138.24c.5,0,.93-1.54.74-3.45-.18-1.91-.9-3.35-1.39-3.25-.5.1-.6,1.62-.43,3.42.18,1.8.56,3.27,1.07,3.28Z"/><path class="cls-7" d="M81.24,141.91c-.07-.49-1.7-.68-3.59-.16-1.89.52-3.21,1.51-3.01,1.97.2.47,1.73.27,3.5-.21,1.77-.49,3.18-1.1,3.11-1.6Z"/><path class="cls-7" d="M78.06,146.14c.25.04.53-.29.75-.89.21-.59.33-1.46.24-2.4-.09-.94-.37-1.77-.7-2.31-.32-.55-.67-.81-.9-.73-.48.19-.37,1.58-.22,3.22.17,1.63.32,3.02.83,3.11Z"/><path class="cls-7" d="M88.88,147.07c-.15-.48-1.66-.45-3.38.08-1.72.53-3,1.34-2.85,1.83.15.48,1.66.45,3.38-.08,1.72-.53,3-1.34,2.85-1.83Z"/><path class="cls-7" d="M85.58,151.93c.5.01.94-1.48.98-3.32.04-1.85-.34-3.35-.84-3.36-.5-.01-.94,1.48-.98,3.32-.04,1.85.34,3.35.84,3.36Z"/><path class="cls-14" d="M87.55,89.57c-1.4-.95-2.79-1.9-4.19-2.86-3.46-2.36-6.92-4.72-10.38-7.08-2.79-1.9-5.58-3.8-8.37-5.7l-5.33-3.63c-1.5-1.02-3.32-2.52-5.19-1.46-.88.5-1.43,1.39-2,2.19-.57.8-1.14,1.59-1.69,2.39,0,.01-.01.02-.02.04-2.35,3.31-4.68,6.63-6.99,9.97-2.12,3.06-4.21,6.14-6.3,9.23,14.1-7.79,32.36-7.06,50.46-3.09Z"/><path class="cls-9" d="M63.45,104.74c.03-.17.2-1.87-.04-4.3l.03-.17c.53-.97,1.01-1.98,1.43-3.03.05-.11.04-.23.02-.32-.04-.12-.08-.22-.19-.26l-1.22-1.03s-.03,0-.02-.03c-.08-.04-.17-.05-.26-.04s-.16.06-.23.14l-.3.45h0c-.33-1.31-.78-2.55-1.32-3.77-.11-.25-.28-.48-.52-.63s-.49-.22-.78-.24c-6.41-.16-11.94,2.76-12.2,2.95-.07.05-.13.1-.17.18-.07.11-.09.22-.08.34s.05.24.13.31l1.15,1.11c.08.07.12.19.13.28s0,.2-.05.31c-.15.24-3.31,5.6-3.9,7.15-.05.11-.04.23,0,.35s.11.22.22.27h0c.78.47,1.49.93,2.27,1.43l.05.04h.06s.06.02.06.02c.03,0,.03-.02.06-.02s.03-.02.04-.05h0c.28-.48.88-1.56,1.55-2.69,0-.03.04-.05.04-.08.04-.05.05-.11.05-.14,0-.06-.01-.12-.04-.15-.11-.25-.18-.52-.17-.81s.08-.54.24-.78c1.13-1.87,2.48-4,3.66-5.58.04-.05.13-.1.19-.12.09-.02.18,0,.22.06.05.04.13.11.12.19.02.09,0,.18-.04.23v.03c-.78,1.05-1.65,2.35-2.47,3.66-.04.05-.04.08-.05.14s-.01.09,0,.15.02.09.07.13.08.07.1.1.08.04.14.05.09.01.15,0,.09-.04.13-.07.07-.08.1-.1c.81-1.31,1.69-2.61,2.49-3.65.04-.08.11-.13.2-.15s.18,0,.23.04.13.11.15.2,0,.18-.04.23v.03c-.78,1.05-1.65,2.35-2.46,3.63-.04.08-.06.2-.04.29s.09.19.17.23c.08.04.19.09.29.04.09-.02.19-.09.23-.17.81-1.31,1.69-2.61,2.46-3.66.04-.08.11-.13.2-.15s.18,0,.23.04c.08.04.13.11.15.2s0,.18-.04.23v.03c-1.15,1.55-2.46,3.6-3.58,5.41v.03s0,.03,0,.03v.03c-.16.24-.36.41-.61.55s-.5.22-.79.2c-.06,0-.09.02-.15.04-.03.02-.07.05-.1.1,0,0-.22.26-.96,1.67-.33.62-.54,1.06-.66,1.24l-.02.11s.05.07.07.1l.13.08c.27.16.5.34.8.53l.11.07.98.65.74.49s.08.04.11.02c.03,0,.06-.02.09-.04,1.22-1.48,1.85-2.35,1.85-2.35.03-.02.04-.08.02-.14s-.04-.09-.07-.13l-.83-.71c-.05-.04-.1-.1-.12-.16s0-.15,0-.2.05-.11.08-.13c3.84-5.05,6.78-5.68,6.78-5.68.03-.02.09-.02.12-.01.06,0,.14.02.2.06s.1.1.12.16.04.12.03.21c0,.06-.04.08-.05.14-.94,1.76-2.89,4.53-4.44,6.68-1.3,1.82-2.37,3.23-2.37,3.23v.06s-.01.03-.02.06,0,.03.02.06l.02.03c.47.34.98.68,1.48,1.02h0c.11.07.22.09.34.08.12-.01.24-.05.31-.13,1.2-1.13,4.86-6.18,5.04-6.39.07-.08.17-.15.26-.16.09-.04.21-.03.32,0l1.49.61c.11.05.23.04.35,0s.22-.11.27-.22c.05-.14.06-.22.08-.31h0Z"/></g></svg>