<svg xmlns="http://www.w3.org/2000/svg" viewBox="0 0 200 200"><defs><clipPath id="clippath"><path d="M61.94 135.12c-1.43-1.43-3.41-1.17-4.86 0-8.16 6.62-16.23 13.35-24.22 20.18-4.03 3.45-8.03 6.92-12.01 10.42-1.99 1.75-3.97 3.51-5.95 5.27-1.73 1.55-3.68 3.05-4.88 5.09-3.4 5.79 2.15 10.73 5.98 14.44 3.18 3.08 7.91-1.65 4.86-4.86-.89-.93-1.77-1.86-2.66-2.79-1.28-1.34-3.57-1.29-4.86 0-1.38 1.38-1.23 3.46 0 4.86 1.48 1.68 3.06 3.53 4.76 4.99 2.06 1.78 4.68 2.96 7.45 2.26 2.31-.59 4.09-2.24 5.72-3.89 1.86-1.89 3.71-3.79 5.55-5.69 7.32-7.54 14.53-15.18 21.65-22.92 4.08-4.44 8.13-8.91 12.15-13.41 1.23-1.38 1.36-3.49 0-4.86-1.26-1.26-7.47-7.89-8.69-9.1Z" class="cls-3"/></clipPath><clipPath id="clippath-1"><path d="M346.69 116.79c-.89-1.5-1.96-2.9-3.17-4.15-.38-3.19-.81-6.37-1.38-9.53-.55-3.05-1.25-6.08-2.08-9.07-.51-1.83-1.08-3.65-1.67-5.46a.555.555 0 0 0-.29-.34c.89-1.62 1.79-3.23 2.68-4.85.12-.23.09-.44-.03-.6 0-.15-.05-.29-.17-.38-2.63-2.12-5.34-4.14-8.05-6.16l-8.14-6.07-4.59-3.42c-.03-.02-.06-.04-.1-.05a.595.595 0 0 0-.91.13c-.83 1.41-1.75 2.78-2.75 4.08-1.91-1.1-4.16-1.64-6.37-1.68-3.83-.07-7.48 1.39-10.7 3.37-1.73 1.06-3.35 2.28-4.95 3.53-1.68 1.31-3.33 2.66-4.95 4.03-3.25 2.75-6.4 5.61-9.45 8.57-3.05 2.97-5.99 6.05-8.82 9.22-.32.36-.64.72-.96 1.09-.61-.28-1.21-.56-1.82-.84a.715.715 0 0 0-.43-.05c-.2-.1-.44-.09-.63.12a55.986 55.986 0 0 0-9.3 12.8c-.23.43.12.83.48.88.1.07.22.11.34.12 3.9.46 7.77 1.15 11.59 2.05a104.493 104.493 0 0 1 17.53 5.79c.06.02.11.04.17.05l.75.96s2.74 4.18 3.71 6.22c.97 2.04 11.16 17.45 11.16 17.45s3.9 2.34 4.25 1.8.66-.22 1.51.53.61-.9.79 0 5.92 3.13 5.42 4.8c-.49 1.67.73 2.18-.18 3.16-.35.37-.57.8-.71 1.18-1.47-.25-2.93-.51-4.4-.76-2.35-.41-4.71-.81-7.06-1.22-1.13-.2-2.25-.39-3.38-.59.25-1.62.41-3.96-.59-4.48-1.55-.8 1.29-8.78-.12-10.01-1.41-1.23-25.66-9.42-25.66-9.42l-1.66 5.46c-.1.08-.19.19-.24.32-1.14 2.9-2.18 5.84-3.14 8.8-.34.24-.37.9.16 1.08 2.55.88 5.05 1.91 7.57 2.89 3.1 1.2 6.24 2.3 9.4 3.33 1.88.61 3.79 1.25 5.71 1.7.24.06.49.1.74.14 1.2.22 2.4.43 3.6.64l.52.09c2.04.62 3.41 1.03 3.41 1.03s.04-.16.09-.42l1.69.3c2.29.4 4.58.8 6.88 1.19l5.74.99c.07.13.19.23.34.25 4.09.66 8.17 1.32 12.26 1.99 1.16.19 2.32.38 3.48.56.12.03.23.02.32-.02.01 0 .03 0 .04-.01.02 0 .03-.01.04-.02l.1.02v-.09s.04-.02.05-.03c.24-.02.47-.18.51-.42.68-4.04 1.42-8.08 2.1-12.12a27.42 27.42 0 0 0 2.85 3.24c.06.11.15.19.28.24.22.12.51.09.69-.09.16-.16.2-.39.14-.6.74-4.24 1.77-8.44 2.91-12.59 1.23-4.49 2.61-8.94 4.08-13.36.71-2.14 1.45-4.27 2.21-6.4.11 0 .23-.01.34-.08.27-.16.37-.53.21-.8Z" class="cls-3"/></clipPath><clipPath id="clippath-2"><path d="M193.5-13.48h126.37V89.41H193.5z" class="cls-3"/></clipPath><style>.cls-3{fill:none}.cls-11,.cls-13,.cls-15,.cls-16,.cls-18,.cls-19,.cls-20,.cls-22,.cls-26,.cls-3,.cls-6,.cls-8,.cls-9{stroke-width:0}.cls-18{fill:#ff6d00}.cls-6{fill:#f96700}.cls-8{fill:#9ab4b4}.cls-9{fill:#9bafb0}.cls-11{fill:#d1e8ea}.cls-13{fill:#bfd8dc}.cls-15{fill:#c1dade}.cls-16{fill:#badade}.cls-19{fill:#f70}.cls-20{fill:#7e557c}.cls-22{fill:#fff}.cls-26{fill:#ffcd20}</style></defs><path id="BG_Strong" d="M191.73 77.66c-.89-14.38-35.79-49.52-33.71-45.2C125.18-17.24 23 18.75 19.97 85.73c-5.99 92.11 133.99 137.96 146.41 63.56 1.66-9.92 16.67-40.82 21.77-51.68 3.67-7.82 4.21-12.23 3.58-19.94Zm-21.22 62.35.07.09s-.05-.06-.07-.09Zm-35.48 36.36c.07.01.07.06.11.1-.1 0-.1 0-.11-.1ZM81.9 17.16c-.41.22-.48.17-.85.37-.75-.56.1-.6.85-.37Zm.22-.16c.14-.14.2.07.02.08 0-.03 0-.05-.02-.08Zm-1.5.7Zm2.5-1.02c-.31.19-.03-.2-.44.05.04-.96.27-.35.44-.05Zm-2.67-.06v.21c-.15 0 0-.14 0-.21Zm-1.96.62c0 .13 0 .27.02.41-.15-.12-.24-.24-.02-.41Zm-.12.84c.7.23 1.33-.58 2.08-.36-1.14.39-4.29 2-2.08.36Zm-5.92 156.59c-.06.03-.11.04-.16 0 .02-.12.1-.04.16 0Zm-.92-.41c.06-.11.13-.05.22 0a.41.41 0 0 0-.22 0Zm1.36.69c-.02-.08.08.02.12.03l-.12-.03Zm4.15-156.04c.36-.49-.31.59-.95.67.27-.44.78-.5.95-.67ZM22.5 83.9c-.17-.23-.29-.43-.08-.53.17.22.14.28.08.53Zm-.52 3.65s-.05-.04-.07-.07l.07.07Zm-2.55 6.94c.24.13.22.17.15.3-.11-.04-.18-.11-.15-.3Zm.82 5.86c.33-.41.21.12.2.32-.08-.1-.15-.2-.2-.32Zm50.59 73.61c-.06-.07.06-.03.11-.07-.05.01-.07.07-.11.07Zm2.1 1.05c.07-.03.12 0 .17.04-.04 0-.1 0-.17-.04Zm95.16-32.25c.02 0 0 0 0 0Zm15.3-81.08c.02.06.03.13.06.19-.03-.06-.17-.22-.06-.19ZM149.71 28.8l-.23-.2c.15-.04.37.02.23.2Zm-.3-.27-.21-.18c.25.08.24.13.21.18Zm-.53-.46s.01-.07.02-.1c-.01.04-.02.07-.02.1ZM125.85 14.5c-.02.13-.13.03-.21.01.03-.04.09-.06.21-.01Zm-6.6-2.36c-.21.16-.17.33-.08.5-1.03-.25-.64-.12.08-.5Zm-5.16-1.38c-.78-.77 1.97.15.59.49.15.27.46-.11.66-.07.82.87.43-1.54.96.28-.05.51-3.55.16-2.22-.69Zm-.56.05c.24.5.05.79-.47.59.2-.12.21-.34.47-.59ZM86.74 15.2c.09.02-.01.03-.04.05.01-.02.03-.04.04-.05Zm-.13.08c-.27.22-.39-.18-.03-.14.02.06.02.1.03.14Zm-.45-2.32c1.11.29-.82.79-.67.39.36-.1 1-.05.67-.39Zm-2.76 3.46c.33.1-.03.13-.16.21 0-.12 0-.23.16-.21Zm-.37-2.14.07.05c-.08.11-.11.2-.07-.05Zm-10.82 6.99c-.37.22-.54.18-.26-.26.27-.02.3.1.26.26Zm-27.4 17.19c-.11.06-.24.24-.33.24.1-.16.22-.22.33-.24Zm-1.96 1.31c1.01-.3-.29.46-.62.82-.19-.27.35-.64.62-.82Zm-20.81 38.2c.61-.81-.09-1.3.61-1.45.12.59-.48 1.63-.61 1.45Zm.17 7.66c-.09.77.04 1.12-.77 1.45.32-.54.38-1.03.77-1.45Zm-1.17-3.86.08-.05c.03.18.08.29-.08.05Zm.18 7.48c.51-1.83.82-1.5.51.35-.58.59-.05-.43-.51-.35-.05 1.62-.9 1.05 0 0Zm-1.35 1.17c-.68-1.48 1.1-.35.71.31.17.59-.31-.78-.71-.31Zm-.7 3.12c.45-.16-.02-.67.27-.89.7.03.05 1.57-.27.89Zm40.1 72.39c-.42-.92-1.18-.54-.98-1.23.57.18 1.2 1.2.98 1.23Zm2.87 2.67v-.1c.17.05.28.06 0 .1Zm7.15 4.93c-1.58-.06.04-1.08.67-.37-.38 0-.83-.12-.67.37Zm4.22 3.49c.14-.18.12-.02.29.08-.11-.02-.21-.04-.29-.08Zm23.22 3.97c.15.03.5-.09.36.17-.19.1-.29-.01-.36-.17Zm1.56.35c-.81-.47.27-.32.45-.3.53-.01-.21.5-.45.3Zm27.23-2.1c.75-.29-.8.72-.72.12 0-.41.86.07.72-.12Zm5.54-1.35s.06.09.09.13c-.06 0-.07-.08-.09-.13Zm3.57-1.55c.04-.36.56-.71.49-.14-.19-.17-.3.24-.49.14Zm33.73-32.76s.01.01 0 0c.03-.06.02.03 0 0Zm.75-4.18c.12-.59.42-.4.7.05-.24.23-.44.06-.7-.05Zm5.38-13.7c.04-.09.04-.21.16-.23-.07.18-.11.23-.16.23Zm13.88-45.02v-.23c.04.07.07.12 0 .23Z" style="fill:#575655;stroke-width:0"/><g id="Outline"><path d="m64.23 121.09-7.37 1.28s-4.91-3.08-7.46-3.2-11.21-.58-11.21-.58c-.14 0-3.58-31.03-3.58-31.03l-16.2-37.57s41.11-7.94 45.69-8.97c4.58-1.02 39.45-10.38 39.45-10.38s4.48 10.39 5.51 12.77 10.69 24.79 10.69 24.79l4.83 48.97 13.88 34.71-47.92 10.74-9.62 2.21-18.94 5.87c-.5-2.62-22.24-36.99-22.24-36.99l24.5-12.62Z" style="fill:#ffb4c3;stroke-width:0"/><path d="M121.08 69.3 35.09 88.14l4.64 45.58 19.31-2.63c-.17 1.63 36.71-6.15 36.71-6.15l29.93-7.26-4.61-48.38Z" style="fill:#ffa1ae;stroke-width:0"/><path d="M43.96 56.7c-.14-.75-2.8-.89-5.95-.31-3.15.57-5.59 1.65-5.46 2.39s2.8.89 5.95.31c3.15-.57 5.59-1.65 5.46-2.39ZM51.96 62.08c-.14-.75-3.91-.68-8.44.14-4.52.83-8.08 2.1-7.94 2.85.14.75 3.91.68 8.44-.14 4.52-.83 8.08-2.1 7.94-2.85ZM60.49 67.03c-.15-.75-5.27-.33-11.44.92s-11.04 2.87-10.89 3.62c.15.75 5.27.33 11.44-.92s11.04-2.87 10.89-3.62ZM88.29 88.02c-.2-.74-10.33.53-22.63 2.84-12.29 2.3-22.1 4.77-21.89 5.51.2.74 10.33-.53 22.63-2.84 12.29-2.3 22.1-4.77 21.89-5.51ZM89.34 96.03c-.2-.74-10.33.53-22.63 2.84s-22.1 4.77-21.89 5.51c.2.74 10.33-.53 22.63-2.84 12.29-2.3 22.1-4.77 21.89-5.51Z" class="cls-22"/><path d="m105.88 93.59-8.36-.3s-4.66-4.5-7.43-5.22c-2.76-.73-12.14-3.22-12.14-3.22-.16-.03 3.23-34.79 3.23-34.79L72.11 5.22s46.82.77 52.06.71c5.25-.07 45.56-2.28 45.56-2.28s2.51 12.4 3.09 15.25 5.99 29.6 5.99 29.6l-5.99 54.7 7.19 41.18-54.92.71-11.04.2s-.66-26.55-.6-29.53c.06-2.99 0-21.16 0-21.16l-7.59-1.02Z" class="cls-15"/><path d="m81.58 50.82-3.62 34.04s2.28 1.47 8.47 2.79 10.85 6.49 10.85 6.49l.62 9.19c-.56 1.74 41.59 1.73 41.59 1.73l34.43-1.05 6.1-54.01-98.44.81Z" class="cls-9"/><path d="M171.22 103.21c1.72 13.38 4.12 26.66 7.24 39.79.59 2.5 4.45 1.44 3.86-1.06-3.03-12.78-5.42-25.71-7.09-38.73-.14-1.07-.82-2-2-2-.97 0-2.14.92-2 2Z" class="cls-16"/><path d="M177.2 50.09c-1.94 17.24-4.04 34.47-5.98 51.71l2-2-3.27.13c-2.57.1-2.58 4.1 0 4l3.27-.13c1.17-.05 1.87-.89 2-2 1.94-17.24 4.04-34.47 5.98-51.71.12-1.08-1.01-2-2-2-1.18 0-1.88.92-2 2Z" class="cls-9"/><path d="M159.55 144.76c6.95-.1 13.91-.19 20.86-.29 2.57-.04 2.58-4.04 0-4-6.95.1-13.91.19-20.86.29-2.57.04-2.58 4.04 0 4Z" class="cls-16"/><path d="M124.35 145.06c11.54-.16 23.08-.14 34.62-.29 2.57-.04 2.58-4.04 0-4-11.54.16-23.08.14-34.62.29-2.57.04-2.58 4.04 0 4ZM168.2 4.19c3.07 14.73 5.95 29.49 9.02 44.22l1.93-2.53c-1.77-.04-3.54-.08-5.31-.11-2.58-.05-2.57 3.95 0 4 1.77.04 3.54.08 5.31.11 1.37.03 2.19-1.3 1.93-2.53-3.07-14.73-5.95-29.49-9.02-44.22-.53-2.52-4.38-1.45-3.86 1.06Z" class="cls-16"/><path d="M145.92 90.08c-.41-1.09-6.58-2.27-9.54-2.08s-8.36.08-9.44.41c-1.08.33-1.76 3.26-1.68 4.94h.76l.03-.34c0-.03 0-.06.02-.09.07-.9.17-1.84.59-2.66.49-.96 1.45-1.22 2.46-1.27 1.44-.07 2.88.02 4.31 0 .08 0 .15.01.22.03a.78.78 0 0 1 .22-.03h5.85c.69-.02 1.38 0 2.07 0 .8 0 1.62.05 2.29.53.86.61.93 1.63.94 2.61.01 1.23-.15 2.47-.27 3.69 0 .04 0 .07-.01.11l-.06.61c0 .06-.02.12-.03.18-.06.51-.11 1.02-.18 1.52-.05.39-.06.81-.2 1.18-.14.37-.35.71-.64.99-.29.28-.65.49-1.04.6-.37.1-.74.08-1.12.08h-.87c.03.08.06.16.1.23.39.7 2.28.15 2.63.08s1.33-.31 1.85-2.34 1.14-7.91.73-9.01Z" class="cls-3"/><path d="M168.15 116.28c-.11-1.57-.29-3.15-.51-4.7-.07-.8-.2-1.57-.82-2.17-.78-.75-2.04-.6-3.04-.6h-3.41l-6.76.02h-1.71c-.53 0-1.13-.04-1.66.09-.95.27-1.71 1.24-1.77 2.22-.04.62.09 1.29.16 1.93.09.71.2 1.42.29 2.15v.02c.11.89.18 1.8.58 2.61s1.26 1.42 2.17 1.6c1 .2 2.06.18 3.08.2 1.09.02 2.17.02 3.24 0 2.17-.04 4.32-.16 6.47-.27 1-.04 2.22.04 3.01-.64.75-.58.75-1.57.69-2.46Zm-16.4-5.17c-.09-.07-.07-.09 0 0Z" class="cls-22"/><path d="M125.11 57.73c-.27-.6-.82-.98-1.4-1.22-.42-.16-.86-.18-1.31-.2-.4-.02-.82 0-1.22 0-.04 0-.09 0-.13.02-2.13.02-4.28.04-6.4.04h-.16c-1.11-.09-2.19-.13-3.3-.16h-1.68c-.55 0-1.11.02-1.62.27-.93.44-1.22 1.44-1.37 2.37-.18 1.09-.33 2.17-.49 3.26-.18 1.26-.33 2.53-.49 3.79v.07c-.13.78-.13 1.66.24 2.35.2.38.53.64.95.71.49.09 1 .02 1.48.02h12.32c.78 0 1.68.13 2.42-.16.8-.33 1.37-1 1.57-1.84.16-.66.27-1.37.31-2.06 0-.04.02-.07.02-.11.18-1.82.33-3.63.53-5.45v-.07c.02-.53-.02-1.11-.29-1.64ZM147.96 57.55c-.47-.73-1.29-1.2-2.15-1.31-.64-.09-1.31-.04-1.95-.04h-.53l-8.31.07h-.11c-1.02-.07-2.04-.04-3.06.07-.98.11-1.99.33-2.44 1.31-.42.86-.38 1.93-.44 2.86l-.09 1.22c-.02.09-.04.16-.07.24l-.24 2.28c-.07.64-.18 1.31-.18 1.97-.02.6.09 1.24.44 1.75.49.66 1.22.91 1.99 1 .71.07 1.42.04 2.11.07s1.42.02 2.13.04c1.44.02 2.86.02 4.3.04h3.39s.09.02.16.02c1.04-.02 2.08.13 3.06-.33.66-.31 1.15-.91 1.35-1.62.09-.31.11-.64.16-.98 0-.07.02-.13.02-.2v-.02l.66-5.72c.13-.91.31-1.91-.2-2.73ZM170.85 58.24c-.31-.84-.95-1.4-1.8-1.68-.82-.29-1.8-.27-2.66-.22-2.66 0-5.3-.07-7.93-.13-.82-.02-1.64-.02-2.46-.04-.64-.02-1.29-.07-1.93 0-.8.09-1.48.44-1.91 1.15-.33.55-.35 1.15-.44 1.75-.18 1.35-.33 2.7-.47 4.06-.13 1.11-.31 2.24-.27 3.35.02.66.24 1.29.71 1.77s1.13.66 1.8.69c1.31.04 2.64.02 3.94.02 1.42 0 2.81.02 4.23.02h4.81c.4 0 .82.02 1.22-.02.6-.07 1.15-.24 1.62-.66.4-.38.6-.89.75-1.4.13-.42.2-.86.27-1.29.02-.07.02-.11.04-.18.18-1.62.38-3.24.55-4.88.09-.78.18-1.57-.09-2.3Z" class="cls-20"/><path d="M123.49 79.13c.13-1.24.29-2.48.29-3.72 0-.98-.09-2.02-.95-2.64-.69-.49-1.51-.53-2.33-.53s-1.55-.02-2.33 0h-5.65a.78.78 0 0 0-.22.04.933.933 0 0 0-.22-.04c-1.44.02-2.9-.07-4.37 0-1.02.04-1.99.31-2.48 1.29-.42.82-.53 1.77-.6 2.68 0 .02-.02.07-.02.09-.11 1.13-.2 2.28-.31 3.41 0 .02 0 .04-.02.07-.09.84-.2 1.8 0 2.62.22.89.89 1.62 1.75 1.93.8.29 1.71.22 2.55.22 2.22 0 4.43-.02 6.65-.04.86 0 1.75-.02 2.61-.04.04 0 .09 0 .13-.02.04.02.11.02.16.02.66.02 1.33-.02 2.02 0 .38 0 .75.02 1.13-.09.4-.11.75-.33 1.06-.6s.51-.62.64-1 .16-.8.2-1.2c.07-.51.11-1.04.18-1.55.02-.04.02-.11.02-.18.02-.16.02-.33.04-.49a.41.41 0 0 0 .07-.22ZM146.28 79.11c.13-1.24.29-2.48.29-3.72 0-.98-.09-2.02-.95-2.64-.69-.49-1.51-.53-2.33-.53s-1.55-.02-2.33 0h-5.67a.78.78 0 0 0-.22.04.933.933 0 0 0-.22-.04c-1.44.02-2.9-.07-4.37 0-1.02.04-1.99.31-2.48 1.29-.42.82-.53 1.77-.6 2.68 0 .02-.02.07-.02.09-.11 1.13-.2 2.28-.31 3.41 0 .02 0 .04-.02.07-.09.84-.2 1.8 0 2.64.22.89.89 1.62 1.75 1.93.8.29 1.71.22 2.55.22 2.22 0 4.43-.02 6.65-.04.86 0 1.75-.02 2.61-.04.04 0 .09 0 .13-.02.04 0 .09.02.16.02.66.02 1.33-.02 2.02 0 .38 0 .75.02 1.13-.09.4-.11.75-.33 1.06-.6s.51-.62.64-1 .16-.8.2-1.2c.07-.51.11-1.04.18-1.55.02-.04.02-.11.02-.18.02-.16.02-.33.04-.49.09-.09.09-.16.09-.24ZM168.68 79.13c.13-1.24.29-2.48.29-3.72 0-.98-.09-2.02-.95-2.64-.69-.49-1.51-.53-2.33-.53s-1.55-.02-2.33 0h-5.67a.78.78 0 0 0-.22.04.933.933 0 0 0-.22-.04c-1.44.02-2.9-.07-4.37 0-1.02.04-1.99.31-2.48 1.29-.42.82-.53 1.77-.6 2.68 0 .02-.02.07-.02.09-.11 1.13-.2 2.28-.31 3.41 0 .02 0 .04-.02.07-.09.84-.2 1.8 0 2.62.22.89.89 1.62 1.75 1.93.8.29 1.71.22 2.55.22 2.22 0 4.43-.02 6.65-.04.86 0 1.75-.02 2.61-.04.04 0 .09 0 .13-.02.04 0 .09.02.16.02.66.02 1.33-.02 2.02 0 .38 0 .75.02 1.13-.09.4-.11.75-.33 1.06-.6s.51-.62.64-1 .16-.8.2-1.2c.07-.51.11-1.04.18-1.55.02-.04.02-.11.02-.18.02-.16.02-.33.04-.49.07-.07.09-.13.09-.22ZM167.17 94.74c.13-1.24.29-2.48.29-3.72 0-.98-.09-2.02-.95-2.64-.69-.49-1.51-.53-2.33-.53s-1.55-.02-2.33 0h-5.67a.78.78 0 0 0-.22.04.933.933 0 0 0-.22-.04c-1.44.02-2.9-.07-4.37 0-1.02.04-1.99.31-2.48 1.29-.42.82-.53 1.77-.6 2.68 0 .02-.02.07-.02.09-.11 1.13-.2 2.28-.31 3.41 0 .02 0 .04-.02.07-.09.84-.2 1.8 0 2.61.22.89.89 1.62 1.75 1.93.8.29 1.71.22 2.55.22 2.22 0 4.43-.02 6.65-.04.86 0 1.75-.02 2.61-.04.04 0 .09 0 .13-.02.04 0 .09.02.16.02.66.02 1.33-.02 2.02 0 .38 0 .75.02 1.13-.09.4-.11.75-.33 1.06-.6s.51-.62.64-1 .16-.8.2-1.2c.07-.51.11-1.04.18-1.55.02-.04.02-.11.02-.18.02-.16.02-.33.04-.49.09-.04.09-.13.09-.22.02 0 0 0 0 0Z" class="cls-11"/><path d="M158.07 63.51h5.78c.44 0 .82-.38.82-.82s-.38-.82-.82-.82h-5.78c-.44 0-.82.38-.82.82s.38.82.82.82Z" class="cls-13"/><path d="M158.02 114.86h5.47c.42 0 .84-.38.82-.82s-.35-.82-.82-.82h-5.47c-.42 0-.84.38-.82.82s.35.82.82.82Z" class="cls-19"/><path d="M158.93 79.29h5.47c.42 0 .84-.38.82-.82s-.35-.82-.82-.82h-5.47c-.42 0-.84.38-.82.82s.35.82.82.82ZM155.18 94.89h7.34c.44 0 .82-.38.82-.82s-.38-.82-.82-.82h-7.34c-.44 0-.82.38-.82.82s.38.82.82.82Z" class="cls-8"/><path d="M144.71 94.81c.13-1.24.29-2.48.29-3.72 0-.98-.09-2.02-.95-2.64-.69-.49-1.51-.53-2.33-.53s-1.55-.02-2.33 0h-5.67a.78.78 0 0 0-.22.04.933.933 0 0 0-.22-.04c-1.44.02-2.9-.07-4.37 0-1.02.04-1.99.31-2.48 1.29-.42.82-.53 1.77-.6 2.68 0 .02-.02.07-.02.09-.11 1.13-.2 2.28-.31 3.41 0 .02 0 .04-.02.07-.09.84-.2 1.8 0 2.64.22.89.89 1.62 1.75 1.93.8.29 1.71.22 2.55.22 2.22 0 4.43-.02 6.65-.04.86 0 1.75-.02 2.61-.04.04 0 .09 0 .13-.02.04 0 .09.02.16.02.66.02 1.33-.02 2.02 0 .38 0 .75.02 1.13-.09.4-.11.75-.33 1.06-.6s.51-.62.64-1 .16-.8.2-1.2c.07-.51.11-1.04.18-1.55.02-.04.02-.11.02-.18.02-.16.02-.33.04-.49.09-.09.09-.16.09-.24Z" class="cls-11"/><path d="M96.04 12.06c-.01-.76-2.61-1.34-5.82-1.3-3.2.04-5.79.69-5.78 1.45s2.61 1.34 5.82 1.3c3.2-.04 5.79-.69 5.78-1.45ZM168.24 17.36c0-.53-1.81-.93-4.02-.9-2.21.03-4 .48-4 1.01s1.81.93 4.02.9c2.21-.03 4-.48 4-1.01ZM157.77 17.36c0-.53-1.81-.93-4.02-.9-2.21.03-4 .48-4 1.01s1.81.93 4.02.9c2.21-.03 4-.48 4-1.01ZM103.11 18.25c-.01-.76-3.75-1.32-8.35-1.26-4.6.06-8.32.73-8.31 1.49.01.76 3.75 1.32 8.35 1.26 4.6-.06 8.32-.73 8.31-1.49ZM165.52 11.71c0-.52-2.54-.9-5.66-.86-3.12.04-5.65.5-5.64 1.01 0 .52 2.54.9 5.66.86 3.12-.04 5.65-.5 5.64-1.01ZM110.76 24.18c-.03-.76-5.14-1.2-11.43-.99s-11.37 1-11.34 1.76c.03.76 5.14 1.2 11.43.99 6.29-.21 11.37-1 11.34-1.76Z" class="cls-22"/><path d="M112.26 63.58h6.09c.44 0 .82-.38.82-.82s-.38-.82-.82-.82h-6.09c-.44 0-.82.38-.82.82s.38.82.82.82Z" class="cls-13"/><path d="M136.92 79.13h4.37c.42 0 .84-.38.82-.82s-.35-.82-.82-.82h-4.37c-.42 0-.84.38-.82.82s.35.82.82.82ZM113.99 79.13h4.37c.42 0 .84-.38.82-.82s-.35-.82-.82-.82h-4.37c-.42 0-.84.38-.82.82s.35.82.82.82Z" class="cls-8"/><path d="M90.44 103.11c-.2-.74-10.33.53-22.63 2.84-12.29 2.3-22.1 4.77-21.89 5.51.2.74 10.33-.53 22.63-2.84 12.29-2.3 22.1-4.77 21.89-5.51Z" class="cls-22"/><path d="M109.29 79.44h4.37c.42 0 .84-.38.82-.82s-.35-.82-.82-.82h-4.37c-.42 0-.84.38-.82.82s.38.82.82.82Z" style="fill:#9eb2b3;stroke-width:0"/><path d="M59.9 137.57s-24.2 19.79-26.22 21.53c-2.02 1.74-15.18 13.23-17.22 15.08-2.03 1.85-4.02 4.24-4.06 5.11s.71 3.22 3.36 6.01 6.36 6.51 7.64 6.43 2.93-.51 5.87-3.52c2.94-3 16.35-16.98 16.35-16.98l22.56-24.54s-6.99-6.65-8.28-9.13Z" style="fill:#ff6d00;stroke:#ff6d00;stroke-miterlimit:10"/><path d="M57.33 135.39c-8.15 6.61-16.21 13.33-24.18 20.15-3.92 3.36-7.83 6.74-11.71 10.15-1.94 1.71-3.87 3.42-5.8 5.13-1.82 1.62-3.84 3.17-5.17 5.24-1.6 2.49-1.45 5.58.16 8.02.77 1.17 1.75 2.1 2.71 3.09s1.91 2.08 2.93 3.07c2.83 2.73 7.16-1.58 4.32-4.32-.75-.73-1.45-1.49-2.17-2.26-.77-.83-1.71-1.57-2.39-2.47-.94-1.25-.71-1.69.3-2.75 1.57-1.64 3.38-3.09 5.07-4.59 1.81-1.61 3.63-3.21 5.45-4.81 7.28-6.39 14.64-12.68 22.08-18.89 4.21-3.52 8.45-7 12.72-10.46 1.28-1.04 1.08-3.24 0-4.32-1.27-1.27-3.04-1.04-4.32 0Z" class="cls-18"/><path d="M57.33 135.39c-8.15 6.61-16.21 13.33-24.18 20.15-3.92 3.36-7.83 6.74-11.71 10.15-1.94 1.71-3.87 3.42-5.8 5.13-1.82 1.62-3.84 3.17-5.17 5.24-1.6 2.49-1.45 5.58.16 8.02.77 1.17 1.75 2.1 2.71 3.09s1.91 2.08 2.93 3.07c2.83 2.73 7.16-1.58 4.32-4.32-.75-.73-1.45-1.49-2.17-2.26-.77-.83-1.71-1.57-2.39-2.47-.94-1.25-.71-1.69.3-2.75 1.57-1.64 3.38-3.09 5.07-4.59 1.81-1.61 3.63-3.21 5.45-4.81 7.28-6.39 14.64-12.68 22.08-18.89 4.21-3.52 8.45-7 12.72-10.46 1.28-1.04 1.08-3.24 0-4.32-1.27-1.27-3.04-1.04-4.32 0Z" class="cls-18"/><g style="clip-path:url(#clippath)"><path d="M59.92 137.57s-24.2 19.79-26.22 21.53-15.18 13.23-17.22 15.08c-2.03 1.85-4.02 4.24-4.06 5.11s.71 3.22 3.36 6.01 6.36 6.51 7.64 6.43 2.93-.51 5.87-3.52 16.35-16.98 16.35-16.98l22.56-24.54s-6.99-6.65-8.28-9.13Z" class="cls-19"/><path d="M23.4 192.3c-1.22 0-3.56-1.93-8.02-6.6-2.88-3.02-3.56-5.53-3.52-6.43.06-1.25 2.57-3.98 4.24-5.5 1.98-1.8 15.08-13.24 17.23-15.09 2-1.72 25.99-21.34 26.23-21.54l.54-.44.32.61c1.23 2.37 8.1 8.92 8.17 8.98l.4.38-22.93 24.94c-.14.15-13.45 14.02-16.36 16.99-3.02 3.09-4.78 3.6-6.24 3.69h-.07Zm36.37-53.88c-3.48 2.85-23.88 19.53-25.71 21.11-2.15 1.85-15.23 13.27-17.21 15.07-2.33 2.12-3.85 4.21-3.87 4.72-.03.55.51 2.76 3.21 5.6 5.25 5.51 6.75 6.25 7.2 6.25 1.23-.08 2.75-.53 5.5-3.35 2.9-2.97 16.21-16.84 16.34-16.98l22.17-24.12c-1.4-1.35-6.02-5.87-7.64-8.31Z" class="cls-18"/><path d="M57.08 135.12c-8.16 6.62-16.23 13.35-24.22 20.18-4.03 3.45-8.03 6.92-12.01 10.42-1.99 1.75-3.97 3.51-5.95 5.27-1.73 1.55-3.68 3.05-4.88 5.09-3.4 5.79 2.15 10.73 5.98 14.44 3.18 3.08 8.04-1.78 4.86-4.86-1.47-1.42-3.01-2.92-4.34-4.48-.37-.43-.81-1.07-.76-1.48-.04.34 0 .09.18-.16.23-.31.38-.53.66-.82 3.23-3.37 12.41.06 15.92-3.02 7.28-6.39 9.26-19.08 16.7-25.28 4.21-3.51 16.31-3.6 20.57-7.05 0 0-6.65-7.04-7.87-8.26-1.43-1.43-3.41-1.17-4.86 0Z" class="cls-18"/><path d="M66.04 144.49c-12.79 14.33-25.91 28.37-39.39 42.06-.71.72-1.43 1.6-2.37 2.02-.51.24-.84.11-1.49-.37-.79-.58-1.39-1.44-2.06-2.15-.92-.97-1.89-1.9-2.78-2.91-1.09-1.24-3.21-1.11-4.32 0-1.23 1.23-1.09 3.08 0 4.32.79.9 1.64 1.73 2.46 2.59.79.81 1.49 1.72 2.35 2.45 2.03 1.74 4.64 2.82 7.31 2.03 2.42-.71 4.19-2.62 5.9-4.36A1161.164 1161.164 0 0 0 58.5 161.9c3.99-4.34 7.94-8.71 11.86-13.1 1.1-1.23 1.21-3.11 0-4.32-1.12-1.12-3.22-1.24-4.32 0Z" class="cls-19"/><path d="M18.7 191.89c2.79-8.01 2.64-17.06-.49-24.95-.6-1.51-2.01-2.56-3.69-2.1-1.43.39-2.7 2.18-2.1 3.69 2.78 7.02 2.98 14.63.49 21.76-.53 1.53.61 3.28 2.1 3.69 1.65.45 3.16-.56 3.69-2.1ZM35.3 202.31c.87-2.84 1.18-5.73.72-8.67-.33-2.12-1.13-4.09-1.91-6.08-.91-2.3-1.8-4.66-2.17-7.11.11.76-.02-.44-.02-.64-.01-.39 0-.78.02-1.18 0-.15.03-.31.04-.46.03-.77-.15.63.02-.12.09-.42.16-.84.27-1.25.19-.72.43-1.42.69-2.12.04-.11.36-.85.06-.17.07-.15.13-.3.2-.44.21-.44.42-.89.64-1.32.79-1.55 1.68-3.05 2.56-4.56 1.95-3.33 3.85-6.73 4.99-10.44 1.55-5.02 1.4-10.32-.14-15.32-1.13-3.68-6.93-2.11-5.79 1.6.72 2.35 1.05 4.01 1.05 6.35 0 .46-.01.91-.04 1.37-.02.3-.05.59-.07.89 0 .09-.08.59 0 .07-.14.99-.36 1.96-.63 2.92-.24.85-.53 1.68-.85 2.5-.02.06-.38.89-.12.3-.07.17-.15.33-.22.5-.22.5-.46.99-.7 1.47-.8 1.59-1.69 3.13-2.59 4.66-1.76 3-3.57 6.03-4.6 9.37-1.22 3.97-.78 7.9.53 11.79.81 2.41 1.95 4.71 2.62 7.17.15.56.29 1.13.37 1.7s-.04-.71.03.33c.02.34.04.68.04 1.01 0 1.51-.3 2.79-.76 4.29-1.13 3.7 4.66 5.28 5.79 1.6ZM47.72 183.59c-.85-2.74-1.13-4.86-.88-7.79.01-.13.13-1.08.06-.58.05-.3.1-.6.16-.9.13-.64.28-1.27.47-1.89.08-.28.18-.56.27-.84.05-.13.29-.77.21-.59-.06.14.23-.51.32-.69.15-.3.3-.59.46-.87.27-.48.57-.95.89-1.4l.24-.33c-.03.04-.27.33-.05.07.2-.24.4-.48.62-.71.39-.42.81-.8 1.24-1.18.25-.23-.06.04-.1.07.1-.08.21-.15.31-.23.25-.17.5-.34.75-.49.22-.13.44-.26.67-.37.19-.1.69-.33.21-.12.55-.23 1.12-.41 1.7-.54.25-.06.51-.11.76-.15-.54.09.02 0 .24 0 .59-.03 1.16 0 1.75.03.48.03-.45-.08.03 0 .19.03.37.07.56.1.33.07.66.15.99.25.83.24 1.01.31 1.6.6 1.53.74 2.92 1.7 4.19 2.82s3.04 1.2 4.24 0c1.09-1.09 1.22-3.17 0-4.24-5.2-4.56-11.96-7.22-18.63-4.25-5.48 2.44-8.96 8.35-9.88 14.11-.63 3.93-.38 7.9.8 11.71.48 1.55 2.09 2.53 3.69 2.1s2.58-2.14 2.1-3.69ZM45.16 143.77c3.44 4.31 9.71 6.1 15.04 5.66 6.01-.5 11.56-3.6 13.52-9.58.51-1.54-.59-3.28-2.1-3.69-1.63-.45-3.18.55-3.69 2.1-.05.14-.47 1.1-.15.46-.11.22-.21.44-.33.65s-.24.42-.38.62c-.09.13-.18.26-.28.39.23-.29.24-.31.02-.05-.33.34-.66.67-1 1-.41.4.4-.23-.23.18-.23.15-.46.31-.7.45-.21.12-.42.24-.63.35-.07.04-.89.42-.52.26s-.47.17-.55.2c-.23.08-.47.15-.71.22-.56.16-1.13.27-1.7.38-.8.16.62-.04-.2.03-.29.02-.59.05-.88.07-.55.03-1.1.03-1.65.01-.25-.01-.51-.03-.76-.05-.14-.01-1.22-.17-.47-.04-1.08-.18-2.13-.43-3.16-.8-.24-.09-.68-.27-.2-.06a14.18 14.18 0 0 1-2.12-1.15c-.07-.05-.78-.58-.46-.32s-.34-.31-.4-.37c-.39-.36-.75-.76-1.08-1.18-1.01-1.27-3.19-1.05-4.24 0-1.25 1.25-1.01 2.97 0 4.24Z" class="cls-6"/></g><path d="M71.51 154.29c.18-.32-1.1-1.38-3.03-3.16a84.33 84.33 0 0 1-7.11-7.39c-5.25-6.09-8.64-11.77-9.29-11.43-.59.27 1.91 6.71 7.39 13.08 2.71 3.18 5.62 5.67 7.93 7.15 2.31 1.5 3.95 2.03 4.11 1.74Z" style="fill:#ffb1c3;stroke-width:0"/><path d="M78.96 7.33c23.87.68 47.78 1.12 71.64-.15 6.52-.35 13.04-.83 19.53-1.52 1.07-.11 2-.84 2-2 0-.99-.92-2.11-2-2-23.62 2.49-47.47 2.55-71.19 2.14-6.66-.12-13.32-.28-19.97-.47-2.57-.07-2.57 3.93 0 4Z" class="cls-16"/><path d="M74.32 7.04c4.13.07 8.25.43 12.38.5 1.05.02 2.05-.93 2-2s-.88-1.98-2-2c-4.13-.07-8.25-.42-12.38-.5-1.05-.02-2.05.93-2 2s.88 1.98 2 2Z" style="fill:#bcd5d9;stroke-width:0"/><path d="M80.68 51.51c-1 9.14-1.9 18.29-2.85 27.44-.2 1.97-.41 3.94-.62 5.91-.1.96 1.4.95 1.5 0 1-9.14 1.9-18.29 2.85-27.44.2-1.97.41-3.94.62-5.91.1-.96-1.4-.95-1.5 0Z" class="cls-9"/><circle cx="93.85" cy="115.78" r="38.58" class="cls-15"/><path d="M76.63 134.41c-1.45 0 0 1.45 0 0ZM78.74 92.84c0-1.45-1.45 0 0 0Z" class="cls-22"/><path d="M119.68 92.84H87.02c-4.64 0-8.47 3.64-8.7 8.27l-1.2 23.63c-.26 5.17 4.01 9.42 9.17 9.14l42.1-2.28c1.45 0 2.63-1.18 2.63-2.63v-24.79c0-6.24-5.11-11.35-11.35-11.35Z" style="fill:#e2ded9;stroke-width:0"/><path d="m133.56 112-.33-2.42a9.097 9.097 0 0 0-2.34-4.02l-1.84-1.42a9.035 9.035 0 0 0-4.59-1.24h-5.01c2.15 4.53 3.22 9.66 2.89 15.02-.07 1.08-.19 2.14-.36 3.18h2.48c1.25.05 2.42-.21 3.51-.78 1.13-.37 2.1-.99 2.93-1.88a6.79 6.79 0 0 0 1.88-2.93c.57-1.08.83-2.25.78-3.51Z" style="fill:#6a4a6b;stroke-width:0"/><path d="M134.12 115.66c-.11-4.43-1.44-10.58-3.39-16.07-1.95-5.49-6.41-10.12-10.82-14.48-4.41-4.36-13.24-7.47-16.9-8.51-3.66-1.04-10.56-1.65-14.57-.73-4.02.92-8.37 2.14-12.31 3.4-3.94 1.26-7.65 5.35-10.48 7.9-2.84 2.55-6.88 9.05-8.44 12.16-1.57 3.12-3.06 10.4-3.44 13.95-.38 3.55.15 6.69.6 9.82.45 3.13 3.38 10.29 4.26 11.99 0 0 .88 2.46 3.1 4.81 2.21 2.35 8.67 8.51 12.47 10.94 3.8 2.43 13.75 4.72 18.14 5.15 4.39.42 8.86-.65 13.21-1.7s7.29-2.22 11.55-5.64c4.27-3.41 10.03-8.64 12.7-14.7 2.67-6.06 4.45-13.87 4.34-18.3Zm-6.08 12.36c-1.21 2.88-3.75 7.15-5.08 9.23-1.33 2.07-5.4 5.9-7.92 7.9-2.52 2-9.1 3.76-11.36 5.4-1.86 1.35-7.2 1.62-15.15.85-3.93-.38-11.38-3.94-15.44-6.11-4.06-2.17-7.87-8.28-9.66-10.43-1.78-2.15-4.01-7.31-4.61-10.24-.6-2.93-1.65-8.95-.87-13.64.78-4.69 2.51-9.51 4.47-13.04 1.96-3.53 5.59-7.86 8.24-10.09 2.66-2.23 8.6-5.34 12.52-6.65 3.92-1.31 11.85-1.76 15.53-1.12 3.68.64 9.89 1.8 13.64 4.7 3.75 2.9 7.6 5.33 9.77 8.62 2.17 3.3 4.65 6.86 6.1 10.94 1.45 4.08 1.95 10.56 1.79 13.61-.16 3.06-.76 7.18-1.97 10.06Z" class="cls-18"/><circle cx="93.9" cy="115.78" r="40.22" style="stroke-width:6px;stroke-miterlimit:10;fill:none;stroke:#f70"/><circle cx="93.95" cy="115.78" r="36.22" style="stroke:#f70;stroke-miterlimit:10;fill:none;stroke-width:3px"/><circle cx="93.85" cy="115.78" r="28.8" style="fill:#e8f8f9;stroke-width:0" transform="rotate(-86.44 93.847 115.783)"/><path d="M97.41 120.56c-1.54 0-2.98-.39-4.32-1.17l-1.73-1.34a8.632 8.632 0 0 1-2.2-3.77c-.1-.76-.2-1.52-.31-2.27-.04-1.18.2-2.28.74-3.3.34-1.06.93-1.98 1.77-2.75.77-.83 1.69-1.42 2.75-1.77 1.02-.54 3.3-.74 3.3-.74h22.46a29.01 29.01 0 0 0-8.62-10.62H87.02c-4.64 0-8.47 3.64-8.7 8.27l-1.2 23.63c-.26 5.17 4.01 9.42 9.17 9.14l31.22-1.69c2.36-3.4 4.01-7.34 4.73-11.63H97.41Z" class="cls-22"/><path d="m120.36 103.22-.15-.31H97.43c-.99-.01-4.29.36-6.61 2.59-1.66 1.6-2.5 3.79-2.5 6.5 0 7.16 5.71 9.08 9.09 9.09h25.29l.08-.45a29.387 29.387 0 0 0-2.41-17.43Z" style="fill:#78577a;stroke-width:0"/><path d="M136.46 63.64h3.9c.42 0 .84-.38.82-.82s-.35-.82-.82-.82h-3.9c-.42 0-.84.38-.82.82s.35.82.82.82Z" class="cls-13"/><path d="M135.36 94.83h4.37c.42 0 .84-.38.82-.82s-.35-.82-.82-.82h-4.37c-.42 0-.84.38-.82.82s.35.82.82.82Z" class="cls-8"/><g style="clip-path:url(#clippath-1)"><g style="clip-path:url(#clippath-2)"><circle cx="192.85" cy="49.46" r="11.5" class="cls-26"/><circle cx="192.85" cy="-1.98" r="11.5" class="cls-26"/></g><circle cx="192.85" cy="152.35" r="11.5" class="cls-26"/><circle cx="192.85" cy="100.91" r="11.5" class="cls-26"/></g></g></svg>