<?xml version="1.0" encoding="UTF-8"?><svg xmlns="http://www.w3.org/2000/svg" xmlns:xlink="http://www.w3.org/1999/xlink" viewBox="0 0 200 200"><defs><style>.cls-1{fill:none;}.cls-2{mask:url(#mask);}.cls-3{fill:#67355d;}.cls-4{fill:#fa7906;}.cls-5{fill:#049637;}.cls-6{fill:#fb6f01;}.cls-7{fill:#575655;}.cls-8{fill:#f6f6f6;}.cls-9{fill:#f38021;}.cls-10{fill:#f4f4f4;}.cls-11{fill:#7e557c;}.cls-12{fill:#fbfbfa;}.cls-13{fill:#633b5d;}.cls-14{fill:#fc6d02;}.cls-15{fill:#ebe9e6;}.cls-16{fill:#02b642;}.cls-17{fill:#fda0ad;}.cls-18{fill:#606060;}.cls-19{mask:url(#mask-1);}.cls-20{fill:#fa7d06;}.cls-21{fill:#fff;}.cls-22{fill:#fd7701;}.cls-23{fill:#fcfaf8;}.cls-24{fill:#f2f0ee;}.cls-25{fill:#fdbf04;}.cls-26{fill:#f5f4f1;}.cls-27{fill:#67385f;}.cls-28{fill:#fdcd4f;}.cls-29{fill:#e2f7f7;}.cls-30{fill:#f2f2f2;}.cls-31{fill:#a48271;}.cls-32{fill:#fa4d01;}.cls-33{fill:#f5f5f5;}.cls-34{fill:#fdbe05;}.cls-35{fill:#dea27e;}.cls-36{fill:#ecb018;}.cls-37{fill:#887064;}.cls-38{fill:#603b5d;}.cls-39{fill:#eceae7;}.cls-40{fill:#5b3d5b;}</style><mask id="mask" x="92.23" y="12.41" width="84.37" height="88.3" maskUnits="userSpaceOnUse"><g id="mask0_253_8580"><path class="cls-21" d="M173.29,16.5c-12.6-.09-24.66-.28-37.25-.31-12.27-.04-22.53.21-33.76.33v4.06h1.17c-.18,19.44-.15,39.34-.34,58.76-.05,5.12.12,10.2.24,15.28l68.6.03c-.09-11.75.2-23.67.14-35.52-.07-12.83.07-25.67.02-38.5h1.19c-.03-1.4,0-2.45,0-4.13Z"/></g></mask><mask id="mask-1" x="-38.74" y="17.86" width="218.98" height="204.71" maskUnits="userSpaceOnUse"><g id="mask1_253_8580"><path class="cls-21" d="M175.99,153.51c-15.69,38.9-69.65,42.32-130.07,17.92C-14.5,147.04-50.77,95.73-35.09,56.83-19.4,17.93,42.3,6.18,102.72,30.58c60.42,24.4,88.95,84.04,73.27,122.94h0Z"/></g></mask></defs><g id="BG_Strong"><path class="cls-7" d="M50.01,173.24c29.48-2.4,59.63,21.84,108.71,8.84,19.6-5.19,37.76-30.41,29.9-60.51-3.45-28.13,21.41-73-22.35-82.46-45.9-11.39-86.64,18.04-125.15,37.49-10.44-2.15-23.63-.2-28.22,10.88-2.58,25.07-2.35,94.95,37.11,85.75Z"/><path class="cls-18" d="M83.94,126.96l43.3.33c2.27.02,4.22-1.68,4.44-3.94.23-2.42,1.78-5.11,8.38-6.57,11.79-2.69,27.61,1.05,35.21-10.71,6.41-11.31-7.23-14.03-16.21-15.32-5.61-.81-1.72-4.77-2.87-6.21-2.02,2.51-.89-1.11,0,0-2.18,2.7-15.86-1.93-19.4,0-1.74,7.63,2.68,9.07,7.46,11.74,10.06,10.85-47.12,10.29-54.6,15.89-4.91-.29-8.13,4.48-9.79,8.84-1.09,2.86,1.03,5.92,4.09,5.94Z"/></g><g id="Illustrations"><path class="cls-15" d="M151.7,89.8s-.01.03-.01.05h0l.03-.05h-.02Z"/><path class="cls-15" d="M152.53,90.01h-.03c.03.05.01.07.12.1.08-.11-.08-.24.07-.36-.03.02-.07.02-.12,0,.07.08.02.18-.04.26h0Z"/><path class="cls-15" d="M152.56,89.74h0s-.02-.03-.03-.04c-.02,0-.05,0-.06-.01.02.02.06.04.09.05Z"/><path class="cls-15" d="M141.68,91.32s-.06.04-.08.05c.05-.01.07-.03.08-.05Z"/><path class="cls-15" d="M151.01,90.04s-.05-.01-.08-.02c-.02,0-.03,0-.05.01h.12Z"/><path class="cls-15" d="M151.97,89.74l-.38.03.11.03c.04-.08.22.04.26-.06Z"/><path class="cls-15" d="M134.2,91.7c-.03.06.2.13.07.07.03-.07-.14-.14-.07-.07Z"/><path class="cls-15" d="M147.42,90.88c-.12.02-.05.06-.13.1.11.03.17-.01.13-.1Z"/><path class="cls-15" d="M147.55,90.85l.02.05.08.07-.1-.11Z"/><path class="cls-15" d="M148.3,90.91s-.02.04-.04.05c.04-.02.07-.04.04-.05Z"/><path class="cls-15" d="M148.19,90.94v.05s.03-.02.05-.03c-.02,0-.04,0-.05-.03Z"/><path class="cls-15" d="M148.41,91.01l.11-.1-.16-.14c-.13.09.17.06.05.23h0Z"/><path class="cls-15" d="M149.39,90.77c.36-.13-.11-.28.31-.39-.42-.05-.17.36-.54.3.19.09-.11.1-.16.15.13.04.31-.22.4-.05h0Z"/><path class="cls-15" d="M148.9,90.53c-.01.09.16.08.2.02-.05,0-.15-.12-.2-.02Z"/><path class="cls-15" d="M149.86,90.66h-.15s.12.06.12.06l.02-.06Z"/><path class="cls-15" d="M150.16,90.65l-.1.11s.2-.05.1-.11Z"/><path class="cls-15" d="M150.74,90.57h.05s.12.11-.02.15c.11.02.18-.22-.04-.15Z"/><path class="cls-15" d="M152,90.28l.19-.07-.06-.02c-.07,0-.16.04-.13.09Z"/><path class="cls-15" d="M152.04,89.64c-.08-.14-.18.03-.32,0,.15.01.13.03.32,0Z"/><path class="cls-15" d="M152.39,90.37c-.05.06-.13.04-.19.03.03.08.17.04.19-.03Z"/><path class="cls-15" d="M152.74,90.4c.15.05.29.03.36-.06-.04-.06-.11-.21-.06-.29-.22.07-.3.35-.43.16l-.16.26c.18.02.12-.19.24-.19.07.05,0,.08.05.11h0Z"/><path class="cls-15" d="M152.44,89.81c-.05-.18-.18.05-.24.07l.13.07c-.03-.08.06-.1.11-.14Z"/><path class="cls-15" d="M154.07,89.97l-.16.07.24-.07h-.08Z"/><path class="cls-15" d="M154.09,90.14l.18-.12-.19.07v.05Z"/><path class="cls-15" d="M154.35,90.12h-.03s-.14.06-.14.06l.17-.06Z"/><path class="cls-15" d="M154.82,90.02c-.06.03-.2-.04-.18.06.05-.04.19-.04.23.01l-.06-.07h0Z"/><path class="cls-15" d="M117.57,92.72s-.01.03-.01.05l.02-.05h-.02,0Z"/><path class="cls-15" d="M93.03,108.88s.07.02.1.01c-.02-.03-.05-.04-.1-.01Z"/><path class="cls-15" d="M94.37,109.17h-.01s0,.02.01,0Z"/><path class="cls-15" d="M93.13,108.89c.05.08.03.29.17.09v-.04c.03.06.12,0,.19,0,0-.02,0-.04-.01-.06-.03-.01-.07-.03-.12-.05-.06-.06-.13.03-.22.06Z"/><path class="cls-15" d="M128.49,92.53c-.05.03-.09-.03-.14-.05-.1.16.23-.02.08.13.05,0,.09-.03.12-.05l-.08-.13c-.09.06.07.04.02.1Z"/><path class="cls-15" d="M118.26,92.95h-.03c.02.05.01.07.1.1.07-.1-.06-.24.06-.36-.03.02-.06.01-.1,0,.06.08.02.18-.04.26h0Z"/><path class="cls-15" d="M118.29,92.69h0s-.02-.03-.02-.04c-.02,0-.04,0-.05-.01.02.03.05.04.08.05h0Z"/><path class="cls-15" d="M126.72,92.62s-.04,0-.06-.01c.03.03.05.02.06.01Z"/><path class="cls-15" d="M116.99,108.59s-.04-.02-.06-.02c-.01,0-.03,0-.04.01h.1Z"/><path class="cls-15" d="M128.56,92.57v-.02h0s0,.02,0,.02Z"/><path class="cls-15" d="M117.79,92.67l-.32.02.09.03c.04-.08.19.05.22-.05Z"/><path class="cls-15" d="M91.32,108.38s.02.12.05.14l.05-.05-.09-.08Z"/><path class="cls-15" d="M93.26,109.3l-.15-.1c-.07.04.1.19.15.1Z"/><path class="cls-15" d="M93.92,109.38c-.05.03-.18-.1-.21.03.08-.12.16.09.21-.03Z"/><path class="cls-15" d="M94.67,109.2c-.02.09-.09.08-.17.04.03-.03.06-.07.09-.08-.14.05-.15.04-.26.06.09.08.24.15.21.27.09-.08.21-.19.13-.3h0Z"/><path class="cls-15" d="M95.07,109.47c-.13.07-.29,0-.38.13.15.02.35-.02.43-.07l-.05-.06Z"/><path class="cls-15" d="M113.89,109.41c.09.03.14,0,.11-.1-.1.01-.04.06-.11.1Z"/><path class="cls-15" d="M114.11,109.29l.02.05.06.07-.08-.11Z"/><path class="cls-15" d="M109.54,109.38s-.02.04-.03.05c.03-.02.06-.03.03-.05Z"/><path class="cls-15" d="M109.49,109.43s-.04,0-.04-.03v.05s.03-.02.04-.03Z"/><path class="cls-15" d="M114.82,109.48l.09-.09-.13-.14c-.11.08.15.06.04.23h0Z"/><path class="cls-15" d="M115.64,109.27c.31-.12-.1-.29.25-.38-.35-.06-.15.35-.45.28.16.09-.09.09-.13.14.11.04.25-.21.33-.04h0Z"/><path class="cls-15" d="M115.23,109.02c-.01.09.13.08.17.02-.04,0-.12-.12-.17-.02Z"/><path class="cls-15" d="M116.04,109.18h-.12s.1.06.1.06l.02-.06Z"/><path class="cls-15" d="M116.28,109.18l-.08.11s.17-.05.08-.11Z"/><path class="cls-15" d="M116.76,109.12h.04s.1.11-.01.15c.09.03.15-.21-.03-.15Z"/><path class="cls-15" d="M117.82,108.88l.16-.06-.05-.02c-.06,0-.13.04-.11.08Z"/><path class="cls-15" d="M117.86,92.56c-.07-.13-.16.03-.27-.02.12.02.11.04.27.02Z"/><path class="cls-15" d="M118.14,108.99c-.04.06-.11.03-.16.03.03.08.14.05.16-.03Z"/><path class="cls-15" d="M118.39,108.92c.06.05,0,.08.04.11.12.05.24.04.3-.05-.04-.06-.09-.22-.05-.3-.18.07-.25.34-.36.14l-.13.26c.15.03.1-.18.2-.18h0Z"/><path class="cls-15" d="M118.18,92.75c-.04-.18-.15.04-.2.06l.1.07c-.03-.08.05-.1.1-.13Z"/><path class="cls-15" d="M119.54,108.66l-.13.07.21-.06h-.07Z"/><path class="cls-15" d="M119.56,108.82l.15-.11-.16.06v.05Z"/><path class="cls-15" d="M119.77,108.81h-.03s-.12.05-.12.05l.15-.05Z"/><path class="cls-15" d="M120.17,108.74c-.05.03-.17-.05-.15.05.04-.04.16-.04.19.02l-.05-.07Z"/><path class="cls-15" d="M87.6,104.72s0-.1,0-.16c-.18-.05.09.23-.1.12.02.05.05.08.09.11l.1-.12c-.09-.07-.02.08-.09.05Z"/><path class="cls-15" d="M87.59,104.81h.02,0s-.01,0-.01,0Z"/><path class="cls-15" d="M90.94,48.41v-.05l-.02.05h.02,0Z"/><path class="cls-15" d="M90.24,48.24h.03c-.03-.05-.02-.07-.11-.09-.05.11.09.23-.02.36.02-.02.06-.02.1-.01-.07-.08-.04-.18,0-.26h0Z"/><path class="cls-15" d="M90.23,48.5h0s.02.03.03.04c.02,0,.04,0,.05,0-.02-.02-.05-.04-.08-.04h0Z"/><path class="cls-15" d="M91.49,48.15s.04.01.07.01c.01,0,.02-.01.04-.02h-.1Z"/><path class="cls-15" d="M90.72,48.48l.31-.05-.1-.02c-.03.09-.19-.03-.21.07Z"/><path class="cls-15" d="M108.06,29.56c-.14.03-.31.1-.37.18l.06.05c.11-.1.26-.08.32-.22h0Z"/><path class="cls-15" d="M105.19,45.81c.02-.06-.17-.12-.06-.07-.02.07.13.14.06.07Z"/><path class="cls-15" d="M93.64,47.15s.02-.04.03-.05c-.03.02-.06.04-.03.05Z"/><path class="cls-15" d="M93.69,47.1s.03,0,.05.03v-.05s-.03.02-.05.03Z"/><path class="cls-15" d="M93.54,47.07l-.08.1.14.12c.1-.09-.15-.05-.06-.23h0Z"/><path class="cls-15" d="M92.53,47.75c.35.03.11-.36.42-.32-.16-.08.08-.1.12-.15-.11-.03-.23.23-.32.07-.29.15.12.28-.22.4Z"/><path class="cls-15" d="M93.18,47.56c0-.09-.13-.07-.17,0,.04,0,.13.11.17,0Z"/><path class="cls-15" d="M92.38,47.41l-.02.06h.12s-.1-.06-.1-.06Z"/><path class="cls-15" d="M92.13,47.49l.07-.11s-.16.06-.07.11Z"/><path class="cls-15" d="M91.66,47.6h-.04s-.11-.1,0-.15c-.09-.02-.12.23.05.15h0Z"/><path class="cls-15" d="M90.64,47.94l-.15.08.05.02c.06,0,.12-.05.1-.09h0Z"/><path class="cls-15" d="M90.93,48.58c-.12,0-.11-.03-.26.01.08.13.15-.04.26-.01Z"/><path class="cls-15" d="M90.32,47.87c.03-.07.11-.04.15-.04-.04-.08-.14-.04-.15.04Z"/><path class="cls-15" d="M89.73,47.93c.04.05.11.21.08.29.17-.08.21-.36.34-.18l.1-.28c-.15-.01-.08.19-.18.2-.06-.05,0-.08-.05-.11-.12-.04-.24-.01-.29.08h0Z"/><path class="cls-15" d="M90.33,48.44c.06.17.14-.06.19-.08l-.11-.06c.04.08-.04.1-.08.14h0Z"/><path class="cls-15" d="M88.96,48.34l.13-.08-.2.08h.07Z"/><path class="cls-15" d="M88.93,48.18l-.15.12.16-.07-.02-.05Z"/><path class="cls-15" d="M88.71,48.22h.03l.11-.07-.14.07Z"/><path class="cls-15" d="M88.3,48.35c.05-.04.19.03.15-.08-.04.05-.16.06-.21.01l.06.06h0Z"/><path class="cls-15" d="M108.09,29.82c.02-.05-.02-.09-.06-.12-.17.07.09.11.06.12Z"/><path class="cls-24" d="M105.06,43.76c.02.26.03.53.04.8,0,.13,0,.27.03.4.02.08.06.15.12.19.08.05.18.04.27.04h.83c.08,0,.17,0,.24-.02.07-.02.14-.06.18-.12.05-.07.04-.16.04-.23-.01-.11-.02-.22-.02-.33-.02-.26-.02-.52-.05-.79,0-.08-.07-.16-.16-.16-.08,0-.16.07-.16.16.02.2.03.4.04.6,0,.04.04.61.04.61,0,0,.02-.04.02-.04s.04,0-.01,0c.01,0-.04,0-.05,0h-.97s-.07,0-.08,0c0,0,.02.04.03.04,0,0,0-.03,0-.04-.01-.1-.01-.21-.02-.32-.01-.26-.02-.53-.04-.8,0-.08-.07-.16-.16-.16-.08,0-.16.07-.16.16v.02Z"/><path class="cls-15" d="M169.11,90.22c-.07.03-.12-.03-.2-.04-.13.19.32-.04.11.14.07-.01.12-.04.17-.07l-.12-.15c-.12.08.09.04.03.12h0Z"/><path class="cls-15" d="M166.69,90.47h-.08s.07.02.08,0Z"/><path class="cls-15" d="M169.21,90.26v-.02h0,.01s0,.02,0,.02Z"/><path class="cls-15" d="M135.59,21.86s.02-.03.02-.05h0l-.05.05h.02s0,0,0,0Z"/><path class="cls-15" d="M165.35,17.89h0s-.01-.02,0,0Z"/><path class="cls-15" d="M117.83,20.91c.08-.04.14.02.23.04.16-.2-.38.05-.13-.14-.08.01-.14.04-.2.08l.14.14c.15-.08-.11-.04-.04-.11Z"/><path class="cls-15" d="M134.61,21.37l.03.02c-.01-.08.02-.09-.11-.16-.14.09.01.29-.22.37.04,0,.1.01.15.04-.07-.11.04-.2.14-.27h0Z"/><path class="cls-15" d="M134.47,21.64h0s.01.04.02.06c.03,0,.06.02.08.04-.02-.04-.06-.07-.11-.09h0Z"/><path class="cls-15" d="M120.7,20.59h.1c-.05-.02-.08-.02-.1,0Z"/><path class="cls-15" d="M149.05,19.77s.08-.05.11-.07c-.06.02-.09.04-.11.07Z"/><path class="cls-15" d="M136.54,21.75s.07.02.1.03c.02,0,.04,0,.07,0l-.16-.02h0Z"/><path class="cls-15" d="M117.72,20.87v.02h.01-.01v-.02Z"/><path class="cls-15" d="M135.23,21.85c.17.03.33.05.5.07l-.14-.06c-.08.08-.27-.11-.36-.01h0Z"/><path class="cls-15" d="M165.39,17.44c-.06.16-.27-.03-.31.12.07-.05.32.03.31-.12Z"/><path class="cls-15" d="M163.32,17.93c.18-.13.44-.11.53-.29-.24.04-.52.15-.62.24l.09.05h0Z"/><path class="cls-15" d="M159.12,18.58c.04-.07-.27-.12-.09-.07-.03.08.2.14.09.07Z"/><path class="cls-15" d="M141.48,20.65c-.15-.02-.23.02-.17.12.16-.02.07-.08.17-.12Z"/><path class="cls-15" d="M141.1,20.78l-.11-.07.13.12-.02-.05Z"/><path class="cls-15" d="M140.18,20.75c-.05.02-.09.04-.05.05,0-.02.03-.04.05-.05Z"/><path class="cls-15" d="M140.21,20.74s.05,0,.07.02v-.06s-.04.02-.07.04Z"/><path class="cls-15" d="M139.98,20.71l-.14.12.21.14c.18-.11-.23-.05-.07-.26Z"/><path class="cls-15" d="M139.21,20.95c-.18-.04-.4.25-.52.07-.48.15.15.32-.41.44.55.05.24-.4.72-.34-.24-.09.14-.11.21-.17h0Z"/><path class="cls-15" d="M139.33,21.28c.02-.1-.21-.08-.27-.01.07,0,.2.13.27.01Z"/><path class="cls-15" d="M138.11,21.07l-.04.07h.19l-.15-.07Z"/><path class="cls-15" d="M137.7,21.14l.14-.12s-.26.05-.14.12Z"/><path class="cls-15" d="M136.96,21.18h-.07c.02-.05-.13-.15.04-.17-.13-.04-.25.23.03.17Z"/><path class="cls-15" d="M135.16,21.3c.09.02.2,0,.19-.05l-.25.02.07.04h0Z"/><path class="cls-15" d="M135.09,21.95c.07.18.25.02.42.1-.2-.06-.17-.07-.42-.1Z"/><path class="cls-15" d="M134.91,21.02c.08-.05.17,0,.23.03-.02-.09-.19-.1-.23-.03Z"/><path class="cls-15" d="M134.58,21.12l.28-.23c-.21-.09-.21.16-.36.11-.07-.08.04-.08-.02-.14-.16-.11-.34-.14-.47-.08.03.08.05.28-.04.34.3.01.5-.26.6,0h0Z"/><path class="cls-15" d="M134.98,21.63l-.14-.12c.01.09-.11.09-.2.11,0,.21.24.01.33.02h0Z"/><path class="cls-15" d="M132.53,20.71l.11.04h.24l-.35-.04Z"/><path class="cls-15" d="M132.68,20.63v-.06s-.28.04-.28.04l.28.02Z"/><path class="cls-15" d="M132.37,20.49h.21l-.25-.02.04.02Z"/><path class="cls-15" d="M131.67,20.37c.09,0,.25.13.26.01-.08.02-.27-.03-.3-.11l.05.1h0Z"/><path class="cls-15" d="M171.18,16.72l.02.02s-.02-.04-.02-.02Z"/><path class="cls-15" d="M173.56,17.22s.04.07.06.09v-.07l-.06-.03Z"/><path class="cls-15" d="M169.9,17.15s.04.04.08.04c-.03-.02-.06-.03-.08-.04Z"/><path class="cls-15" d="M175.34,18.98s.04.05.06.07c-.02-.05-.04-.06-.06-.07Z"/><path class="cls-15" d="M172.9,16.56s.06.05.09.07c-.03-.03-.06-.05-.09-.07Z"/><path class="cls-15" d="M171.17,16.77c-.06-.02-.01-.05,0,0h0Z"/><path class="cls-15" d="M170.57,17.02h.06s-.04-.01-.06,0Z"/><path class="cls-15" d="M168.34,17.2h.01s0-.01-.01,0Z"/><path class="cls-15" d="M170.68,17.02h-.05s.04.01.05,0Z"/><path class="cls-15" d="M165.71,17.66c-.08.06-.03-.05-.1-.04l-.07.09c.07.06.16.04.16-.05h0Z"/><path class="cls-15" d="M166.48,17.42c-.03-.07-.06-.07-.09-.05.02-.07-.25-.12-.28-.01l.25.02s-.05.02-.08.01c.07,0,.19.13.21.03Z"/><path class="cls-15" d="M166.63,17.42l-.02.13c.11.08-.05-.16.08-.17-.08-.04-.13-.13-.22-.11.02.07.07.18.17.15h0Z"/><path class="cls-15" d="M167.07,17.57v-.18c-.11-.01,0,.06-.02.11-.03-.02-.08-.04-.09,0,.11-.04.02.14.12.07Z"/><path class="cls-15" d="M167.5,17.25l-.12-.18c-.14.08,0,.11,0,.27l.12-.09h0Z"/><path class="cls-15" d="M167.57,17.47l.17-.28c-.1.12-.11.11-.18.25l.02.03h0Z"/><path class="cls-15" d="M169.42,16.96c.06.05.23-.08.3-.14-.09.05-.33.04-.3.14Z"/><path class="cls-15" d="M173.44,16.91c.12.04.23.08.39.1-.05-.03-.07-.11-.12-.04-.05-.07-.21-.12-.27-.07Z"/><path class="cls-15" d="M174.43,17.72c-.07,0-.09-.08-.14-.01,0,.04.12.07.14.01Z"/><path class="cls-25" d="M103.35,94.62l68.6.03c-.09-11.75.2-23.67.14-35.52-.07-13.25.08-26.5.02-39.75h-68.64c-.19,19.82-.16,40.14-.35,59.96-.05,5.12.12,10.2.24,15.28h0Z"/><path class="cls-28" d="M173.29,16.5c0,1.68-.03,2.73,0,4.13-23.73-.05-47.28-.01-71.01-.06v-4.06c11.23-.12,21.5-.36,33.76-.33,12.6.04,24.66.23,37.25.31Z"/><g class="cls-2"><path class="cls-36" d="M146.93,99.08c-3.07-2.56-4.84-6.42-4.92-10.4-.08-3.97,1.61-7.77,4.36-10.59,1.37-1.41,2.99-2.55,4.77-3.37,1.96-.91,4.08-1.43,5.96-2.52,1.84-1.06,3.15-2.66,4.09-4.54.89-1.78,1.48-3.7,2.42-5.46,1.05-1.97,2.68-3.56,4.76-4.43.96-.4,2.01-.68,3.06-.59.71.06,1.61.32,1.88,1.06.41,1.12,2.21.63,1.8-.5-.72-1.97-2.88-2.63-4.82-2.4-2.23.27-4.37,1.38-6.01,2.91-1.64,1.53-2.62,3.57-3.47,5.64-.79,1.91-1.53,3.97-3.01,5.47-1.62,1.63-3.92,2.27-6,3.08-2.1.82-4.02,1.9-5.73,3.39-3.31,2.87-5.53,6.98-5.88,11.37-.4,4.91,1.61,10.05,5.42,13.22.92.76,2.25-.55,1.32-1.32h0Z"/><path class="cls-36" d="M157.51,97.46c-1.56-1.36-2.34-3.46-2.04-5.53.29-2.03,1.56-3.89,3.25-5.02.94-.63,1.99-1.1,2.93-1.74,1-.68,1.78-1.53,2.44-2.54.62-.95,1.11-2,1.81-2.9.64-.84,1.46-1.54,2.39-2.03,2.03-1.07,4.61-.77,6.07,1.09.31.4,1,.33,1.32,0,.39-.39.31-.92,0-1.32-1.53-1.94-4.24-2.64-6.58-2.06-2.57.63-4.41,2.57-5.72,4.78-.65,1.09-1.24,2.24-2.24,3.05-1,.81-2.22,1.3-3.28,2-2.03,1.33-3.62,3.44-4.12,5.84-.58,2.77.3,5.81,2.46,7.69.9.78,2.23-.53,1.32-1.32h0Z"/><path class="cls-36" d="M92.69,53.02c4.46,2.02,9.49.43,13.1-2.56,3.83-3.17,6.19-7.65,9.04-11.64,1.4-1.97,2.96-3.87,4.87-5.37,1.91-1.5,3.98-2.4,6.27-2.82,4.24-.78,9.57.36,12.3,3.95,1.39,1.82,1.58,4.07.87,6.2-.78,2.34-2.47,4.18-4.3,5.76-3.76,3.25-8.29,5.77-10.2,10.62-1.85,4.7-.78,9.91-.64,14.79.07,2.32-.1,4.61-.7,6.86-.57,2.15-1.45,4.19-2.57,6.11-2.31,3.94-5.59,7.34-9.4,9.84-3.93,2.58-8.61,4.34-13.37,4.02-1.15-.08-2.28-.3-3.38-.63-1.15-.35-1.65,1.45-.5,1.8,9.59,2.91,19.87-3.08,25.74-10.43,2.91-3.65,5.07-7.96,5.77-12.6.77-5.1-.5-10.19-.06-15.28.21-2.46,1-4.82,2.54-6.77,1.56-1.97,3.61-3.49,5.59-5.02,3.85-2.96,8.3-6.93,7.71-12.33-.54-4.94-5.43-7.96-9.95-8.73-4.97-.85-9.94.58-13.72,3.9-3.82,3.34-6.16,7.94-9.12,11.98-2.8,3.8-6.73,7.43-11.75,7.41-1.1,0-2.2-.21-3.2-.67-.46-.21-1-.13-1.27.33-.23.4-.12,1.07.33,1.27h.01Z"/><path class="cls-36" d="M143.92,15.01c2.94,1.79,5.02,4.57,6.06,7.85.75,2.37.99,4.81.89,7.29-.16,4.22-.69,8.72,2.11,12.26,2.35,2.96,6.38,4.32,10.07,4.14,5.04-.25,9.47-3.09,13.24-6.23.92-.77-.4-2.08-1.32-1.32-3.21,2.66-7.02,5.19-11.27,5.63-3.37.35-7.15-.71-9.33-3.44-2.52-3.18-1.73-7.56-1.63-11.3.07-2.52-.21-5.1-.97-7.51-1.18-3.74-3.55-6.92-6.91-8.96-1.03-.63-1.97.99-.94,1.61h0Z"/><path class="cls-36" d="M94.86,42.75c3.14,1.13,6.71.24,9.31-1.74,2.71-2.07,4.39-5.16,5.41-8.37.93-2.93,1.35-6.31.33-9.28-.24-.71-.56-1.4-.98-2.03-.21-.33-.46-.64-.71-.93-.08-.09-.16-.19-.25-.27-.04-.04.14.21.04.05-.4-.64-.81-1.27-1.19-1.92-.6-1.03-1.18-2.07-1.72-3.13-.12-.24-.24-.48-.36-.72-.05-.1-.09-.21-.14-.31-.02-.05-.12-.28-.09-.21,0-.01-.11-.29-.15-.42-.02-.07-.03-.13-.05-.2.06.18.04.2-.09.51.2-.46.14-1-.33-1.27-.39-.23-1.08-.13-1.27.33-.31.72.03,1.4.33,2.08.39.87.84,1.71,1.29,2.54.76,1.39,1.49,2.94,2.55,4.13,1.9,2.13,2.09,5.26,1.63,7.96-.52,3.04-1.74,6.18-3.8,8.5-2.29,2.57-5.88,4.11-9.26,2.89-1.13-.41-1.62,1.4-.5,1.8h0Z"/></g><path class="cls-8" d="M104.9,24.28c-.24-2.27.03,12.43.03,12.43h37.09c2.63-4.23,5.39-8.38,8.28-12.43h-45.4Z"/><path class="cls-8" d="M170.72,24.28h-20.42c-2.89,4.06-5.65,8.2-8.28,12.43h28.7v-12.43Z"/><path class="cls-17" d="M103.35,38.38h68.51c2.01,2.1,3.99,4.17,5.77,6.46.17,1.57-.62,3.18-1.73,4.3-1.11,1.11-2.8,1.65-4.34,1.31-1.54-.34-2.86-1.59-3.22-3.12-.08.99-.78,1.75-1.61,2.29-.84.54-1.84.78-2.83.84-.63.04-1.27.02-1.87-.2-1.28-.47-2.09-1.74-2.55-3.02-.39,1.06-1.13,1.96-2.07,2.58-1.18.78-2.71,1.04-4.04.57-1.33-.48-2.37-1.76-2.41-3.17-.58,1.41-1.96,2.28-3.33,2.92-.33.15-.66.3-1.02.38-1.32.28-2.64-.47-3.59-1.42-.57-.58-1.1-1.29-1.12-2.11-.57,1.94-2.32,3.3-4.33,3.42-.4.02-.81,0-1.2-.1-1.39-.33-2.54-1.55-2.76-2.96-.61,1.77-2.45,3.02-4.33,3-1.87-.01-3.67-1.32-4.25-3.11-.39,1.01-.85,2.07-1.81,2.57-.34.18-.8.74-1.17.82-1,.22-1.97-.06-2.96-.33-1.34-.37-2.35-1.61-2.67-2.96-.25,1.08-.65,2.12-1.56,2.74-.86.59-1.99.56-3.03.52-.36-.02-.72-.03-1.06-.14-.4-.12-.75-.36-1.06-.63-.78-.68-1.36-1.58-1.65-2.58-.95,1.47-.88,2.85-3.45,3.5-1.56.4-3.89,0-4.96-1.2-1.07-1.2-.95-2.28-.95-3.88,0-.06,3.1-5.26,4.66-7.29h.01Z"/><path class="cls-29" d="M138.89,82.49c-.05-9.24-.24-18.6-.3-27.85-10.99-.24-21.5-.12-32.25-.24.11,9.28.15,18.33.26,27.61,10.74.51,21.54.58,32.29.47Z"/><path class="cls-40" d="M144.33,94.68c-.12-13.74-.25-27.01-.47-40.15,7.57-.15,15-.18,22.56-.12-.18,13.39.06,26.89.2,40.28h-22.29Z"/><path class="cls-29" d="M145.75,93.28v-37.33h19.35v37.35h-19.35Z"/><path class="cls-28" d="M149.94,70.23c-1.2.03-1.94-.03-2.87-.03v8.97c.88,0,1.88.05,2.75-.07.06-2.99.06-5.89.11-8.88h0Z"/><path class="cls-17" d="M105.14,79.5h35v3.59h-35s0-3.94,0-3.59Z"/><path class="cls-17" d="M122.62,80.57c0-8.73.07-17.45.07-26.18l-1.79.09c-.04,8.61-.08,17.21-.13,25.82.56.08,1.28.19,1.84.27h0Z"/><path class="cls-20" d="M168.08,30.49c-.02-.07-.4-.75-1.08-1.62-.02-.02-.02-.05-.02-.07-.05-.49-.12-.99-.21-1.48,0-.05-.05-.09-.07-.12-.05-.02-.09-.05-.14-.07l-.71-.09h-.02s-.07.02-.12.05c-.05.02-.05.05-.05.09v.26c-.45-.4-.92-.78-1.43-1.09-.12-.07-.24-.12-.38-.12-.12,0-.26.05-.36.12-2.45,1.51-3.82,4.01-3.86,4.15-.02.02-.02.05-.02.09s.02.12.05.14c.02.05.07.07.14.09l.71.14s.1.05.12.07c.02.05.05.09.05.14,0,.12.14,2.95.31,3.68.02.05.05.09.09.12.05.02.09.05.14.05.43,0,.8-.02,1.2-.02h.05s.02,0,.02-.02l.02-.02v-.02c-.02-.24-.05-.8-.07-1.39v-.05s0-.05-.02-.07-.02-.05-.05-.05c-.12-.07-.19-.17-.26-.26-.07-.12-.09-.24-.12-.36-.05-.99-.05-2.12,0-3.02,0-.05.02-.07.05-.09.02-.02.07-.05.09-.05.05,0,.07.02.09.05.02.02.05.07.05.09-.02.59-.05,1.3-.02,1.98,0,.02,0,.05.02.07,0,.02.02.05.05.05,0,0,.02.02.05.05h.07s.05,0,.07-.02c.02,0,.05-.02.05-.05,0,0,.02-.02.05-.05,0,0,.02-.05,0-.07-.02-.71,0-1.41.02-2,0-.05.02-.07.05-.09.02-.02.07-.05.09-.05.05,0,.07.02.09.05.02.02.05.07.05.09-.02.59-.05,1.3-.02,1.98,0,.05.02.09.05.12.02.02.07.05.12.05s.09-.02.12-.05c.02-.02.05-.07.05-.12-.02-.68,0-1.39.02-1.98,0-.05.02-.07.05-.09.02-.02.07-.05.09-.05.05,0,.07.02.09.05.02.02.05.07.05.09-.05.87-.02,1.96,0,2.92v.02c0,.12-.02.26-.09.36-.05.12-.14.21-.24.28,0,0-.02.02-.05.05,0,0-.02.05-.02.07,0,0-.02.14.05.87.02.31.05.52.07.63,0,0,0,.02.02.05,0,0,.02.02.05.02h1.48s.05,0,.05-.02c0,0,0-.02.02-.05.09-.85.12-1.35.12-1.35,0-.02,0-.05-.02-.05,0,0-.02,0-.05-.02l-.49-.07s-.07-.02-.09-.05c-.02-.02-.05-.05-.05-.07v-.07c.19-2.85,1.13-3.82,1.13-3.82,0,0,.02-.02.05-.05,0,0,.05-.02.09-.02.02,0,.07,0,.09.02.02.02.05.05.05.07s0,.05.02.07c.07.9.05,2.42,0,3.63-.05,1.01-.09,1.81-.09,1.81v.02s0,.02.02.02c0,0,.02,0,.02.02h.02c.26,0,.52,0,.8.02.05,0,.12-.02.14-.05.05-.02.07-.07.09-.14.17-.73.31-3.53.31-3.68,0-.05.02-.1.05-.14.02-.05.07-.07.12-.07l.71-.14s.09-.05.14-.1c.02-.05.05-.09.05-.14.02-.05,0-.07,0-.09h-.01Z"/><path class="cls-24" d="M111.1,20.8c.02.27.03.55.04.81,0,.13.01.26.02.39.01.17.05.33.24.38.08.02.17.01.25.01h.84c.15,0,.32.02.45-.06.18-.11.14-.31.12-.49-.02-.2-.04-.41-.05-.61-.02-.18-.02-.39-.2-.49-.2-.11-.38.2-.18.31-.01,0,0-.02,0,0,0,0,0,.04,0,.04.01.06.01.14.02.21.01.14.02.29.04.43,0,.08.01.15.02.23,0,.02,0,.07,0,.09.01.03.02,0,.02-.03,0-.01.02,0,0,0h-1.04s-.21-.02-.22,0c0,0,.02.04.02.04,0,0,0-.04,0-.05,0-.05,0-.11-.01-.15,0-.11-.01-.22-.02-.33-.01-.25-.02-.5-.04-.75,0-.09-.08-.18-.18-.18-.09,0-.18.08-.18.18h.01Z"/><path class="cls-24" d="M115.34,21.03c.02.32.04.64.06.96.01.15.04.31.2.37.14.05.31.02.46.03h.49c.15,0,.3.01.45,0,.15-.01.28-.08.33-.23.02-.07.01-.15,0-.23,0-.08-.02-.17-.02-.26-.02-.18-.03-.36-.05-.53-.01-.15-.04-.32-.2-.4-.2-.11-.38.2-.18.31,0,.03.01.04.01.06.01.08.01.15.02.23.01.16.03.32.04.48,0,.02.03.25.02.25,0-.02,0-.03.02-.04h.01s-.04,0-.05,0h-1.09s-.07-.01-.09,0h-.02s0,.02.03.04c0,0,0-.07-.01-.07-.02-.33-.04-.65-.07-.97,0-.09-.08-.18-.18-.18-.09,0-.18.08-.18.18h.01Z"/><path class="cls-24" d="M119.59,21.03c.02.32.04.64.06.96.01.15.04.31.2.37.14.05.31.02.46.03h.49c.15,0,.3.01.45,0,.15-.01.28-.08.33-.23.02-.07.01-.15,0-.23,0-.08-.02-.17-.02-.26-.02-.18-.03-.36-.05-.53-.01-.15-.04-.32-.2-.4-.2-.11-.38.2-.18.31,0,.03.01.04.01.06.01.08.01.15.02.23.01.16.03.32.04.48,0,.02.03.25.02.25,0-.02,0-.03.02-.04h.01s-.04,0-.05,0h-1.09s-.07-.01-.09,0h-.02s0,.02.03.04c0,0,0-.07-.01-.07-.02-.33-.04-.65-.07-.97,0-.09-.08-.18-.18-.18-.09,0-.18.08-.18.18h.01Z"/><path class="cls-24" d="M123.84,21.03c.02.32.04.64.06.96.01.15.04.31.2.37.14.05.31.02.46.03h.49c.15,0,.3.01.45,0,.15-.01.28-.08.33-.23.02-.07.01-.15,0-.23,0-.08-.02-.17-.02-.26-.02-.18-.03-.36-.05-.53-.01-.15-.04-.32-.2-.4-.2-.11-.38.2-.18.31,0,.03.01.04.01.06.01.08.01.15.02.23.01.16.03.32.04.48,0,.02.03.25.02.25,0-.02,0-.03.02-.04h.01s-.04,0-.05,0h-1.09s-.07-.01-.09,0h-.02s0,.02.03.04c0,0,0-.07-.01-.07-.02-.33-.04-.65-.07-.97,0-.09-.08-.18-.18-.18-.09,0-.18.08-.18.18h.01Z"/><path class="cls-24" d="M128.08,21.03l.06.96c.01.15.04.31.2.37.14.05.31.02.46.03h.49c.15,0,.3.01.45,0,.15-.01.28-.08.33-.23.02-.07.01-.15,0-.23,0-.08-.02-.17-.02-.26-.02-.18-.03-.36-.05-.53-.01-.15-.04-.32-.2-.4-.2-.11-.38.2-.18.31,0,.03.01.04.01.06.01.08.01.15.02.23.01.16.03.32.04.48,0,.02.03.25.02.25,0-.02,0-.03.02-.04h.01s-.04,0-.05,0h-1.09s-.07-.01-.09,0h-.02s0,.02.03.04c0,0,0-.07-.01-.07-.02-.33-.04-.65-.07-.97,0-.09-.08-.18-.18-.18-.09,0-.18.08-.18.18h.01Z"/><path class="cls-24" d="M132.33,21.03l.06.96c.01.15.04.31.2.37.14.05.31.02.46.03h.49c.15,0,.3.01.45,0,.15-.01.28-.08.33-.23.02-.07.01-.15,0-.23,0-.08-.02-.17-.02-.26-.02-.18-.03-.36-.05-.53-.01-.15-.04-.32-.2-.4-.2-.11-.38.2-.18.31,0,.03.01.04.01.06.01.08.01.15.02.23.01.16.03.32.04.48,0,.02.03.25.02.25,0-.02,0-.03.02-.04h.01s-.04,0-.05,0h-1.09s-.07-.01-.09,0h-.02s0,.02.03.04c0,0,0-.07-.01-.07-.02-.33-.04-.65-.07-.97,0-.09-.08-.18-.18-.18-.09,0-.18.08-.18.18h.01Z"/><path class="cls-24" d="M136.58,21.03l.06.96c.01.15.04.31.2.37.14.05.31.02.46.03h.49c.15,0,.3.01.45,0,.15-.01.28-.08.33-.23.02-.07.01-.15,0-.23,0-.08-.02-.17-.02-.26-.02-.18-.03-.36-.05-.53-.01-.15-.04-.32-.2-.4-.2-.11-.38.2-.18.31,0,.03.01.04.01.06.01.08.01.15.02.23.01.16.03.32.04.48,0,.02.03.25.02.25,0-.02,0-.03.02-.04h.01s-.04,0-.05,0h-1.09s-.07-.01-.09,0h-.02s0,.02.03.04c0,0,0-.07-.01-.07-.02-.33-.04-.65-.07-.97,0-.09-.08-.18-.18-.18-.09,0-.18.08-.18.18h.01Z"/><path class="cls-24" d="M140.82,21.03l.06.96c.01.15.04.31.2.37.14.05.31.02.46.03h.49c.15,0,.3.01.45,0,.15-.01.28-.08.33-.23.02-.07.01-.15,0-.23,0-.08-.02-.17-.02-.26-.02-.18-.03-.36-.05-.53-.01-.15-.04-.32-.2-.4-.2-.11-.38.2-.18.31,0,.03.01.04.01.06.01.08.01.15.02.23.01.16.03.32.04.48,0,.02.03.25.02.25,0-.02,0-.03.02-.04h.01s-.04,0-.05,0h-1.09s-.07-.01-.1,0h-.02s0,.02.03.04c0,0,0-.07-.01-.07-.02-.33-.04-.65-.07-.97,0-.09-.08-.18-.18-.18-.09,0-.18.08-.18.18h.01Z"/><path class="cls-24" d="M145.07,21.03l.06.96c.01.15.04.31.2.37.14.05.31.02.46.03h.49c.15,0,.3.01.45,0,.15-.01.28-.08.33-.23.02-.07.01-.15,0-.23,0-.08-.02-.17-.02-.26-.02-.18-.03-.36-.05-.53-.01-.15-.04-.32-.2-.4-.2-.11-.38.2-.18.31,0,.03.01.04.01.06.01.08.01.15.02.23.01.16.03.32.04.48,0,.02.03.25.02.25,0-.02,0-.03.02-.04h.01s-.04,0-.05,0h-1.09s-.07-.01-.09,0h-.02s0,.02.03.04c0,0,0-.07-.01-.07-.02-.33-.04-.65-.07-.97,0-.09-.08-.18-.18-.18-.09,0-.18.08-.18.18h.01Z"/><path class="cls-24" d="M149.31,21.03l.06.96c.01.15.04.31.2.37.14.05.31.02.46.03h.49c.15,0,.3.01.45,0,.15-.01.28-.08.33-.23.02-.07.01-.15,0-.23,0-.08-.02-.17-.02-.26-.02-.18-.03-.36-.05-.53-.01-.15-.04-.32-.2-.4-.2-.11-.38.2-.18.31,0,.03.01.04.01.06.01.08.01.15.02.23.01.16.03.32.04.48,0,.02.03.25.02.25,0-.02,0-.03.02-.04h.01s-.04,0-.05,0h-1.09s-.07-.01-.09,0h-.02s0,.02.03.04c0,0,0-.07-.01-.07-.02-.33-.04-.65-.07-.97,0-.09-.08-.18-.18-.18-.09,0-.18.08-.18.18h.01Z"/><path class="cls-24" d="M153.56,21.03l.06.96c.01.15.04.31.2.37.14.05.31.02.46.03h.49c.15,0,.3.01.45,0,.15-.01.28-.08.33-.23.02-.07.01-.15,0-.23,0-.08-.02-.17-.02-.26-.02-.18-.03-.36-.05-.53-.01-.15-.04-.32-.2-.4-.2-.11-.38.2-.18.31,0,.03.01.04.01.06.01.08.01.15.02.23.01.16.03.32.04.48,0,.02.03.25.02.25,0-.02,0-.03.02-.04h.01s-.04,0-.05,0h-1.09s-.07-.01-.09,0h-.02s0,.02.03.04c0,0,0-.07-.01-.07-.02-.33-.04-.65-.07-.97,0-.09-.08-.18-.18-.18-.09,0-.18.08-.18.18h.01Z"/><path class="cls-24" d="M157.81,21.03l.06.96c.01.15.04.31.2.37.14.05.31.02.46.03h.49c.15,0,.3.01.45,0,.15-.01.28-.08.33-.23.02-.07.01-.15,0-.23,0-.08-.02-.17-.02-.26-.02-.18-.03-.36-.05-.53-.01-.15-.04-.32-.2-.4-.2-.11-.38.2-.18.31,0,.03.01.04.01.06.01.08.01.15.02.23.01.16.03.32.04.48,0,.02.03.25.02.25,0-.02,0-.03.02-.04h.01s-.04,0-.05,0h-1.09s-.07-.01-.09,0h-.02s0,.02.03.04c0,0,0-.07-.01-.07-.02-.33-.04-.65-.07-.97,0-.09-.08-.18-.18-.18-.09,0-.18.08-.18.18h.01Z"/><path class="cls-24" d="M162.05,21.03l.06.96c.01.15.04.31.2.37.14.05.31.02.46.03h.49c.15,0,.3.01.45,0,.15-.01.28-.08.33-.23.02-.07.01-.15,0-.23,0-.08-.02-.17-.02-.26-.02-.18-.03-.36-.05-.53-.01-.15-.04-.32-.2-.4-.2-.11-.38.2-.18.31,0,.03.01.04.01.06.01.08.01.15.02.23.01.16.03.32.04.48,0,.02.03.25.02.25,0-.02,0-.03.02-.04h.01s-.04,0-.05,0h-1.09s-.07-.01-.09,0h-.02s0,.02.03.04c0,0,0-.07-.01-.07-.02-.33-.04-.65-.07-.97,0-.09-.08-.18-.18-.18-.09,0-.18.08-.18.18h.01Z"/><path class="cls-24" d="M166.3,20.82c.02.31.03.62.05.93,0,.14,0,.3.04.44.07.23.29.22.49.22h.89c.09,0,.19,0,.28-.02.08-.02.16-.07.2-.14.05-.09.05-.18.04-.28-.02-.2-.04-.41-.05-.61-.01-.15-.02-.31-.05-.46-.02-.12-.04-.28-.17-.35-.2-.11-.38.2-.18.31-.02-.01-.02-.02-.04-.04,0,.01,0,.02,0,0,0,.02.01.04.02.05,0,.02.01.04.01.06,0,.01,0,.02,0,.04.01.06,0-.02,0,.02.01.09.02.2.02.29.01.17.03.33.04.5,0,.08.01.16.02.24v.06s-.01.04.01,0c-.01.02.02-.04.02-.03,0,0-.03,0-.01,0-.15.01-.31,0-.47,0h-.79l.02.02s.02.02.01,0c0,.02,0-.02,0-.03,0-.12-.01-.24-.02-.36-.01-.28-.02-.58-.04-.86,0-.09-.08-.18-.18-.18-.09,0-.18.08-.18.18h.01Z"/><path class="cls-24" d="M137.62,85.74c-.04-.46-.08-.92-.12-1.38-.01-.09-.05-.18-.12-.23-.05-.07-.13-.12-.24-.12-5.12.04-10.24.04-15.36.03-5.06,0-.55-.03-5.61-.05-2.89-.01-5.78-.02-8.66-.02-.2,0-.3.15-.29.3,0,.03-.01.06-.01.09l.11,4.87.03,1.41c0,.09.04.16.09.2.04.09.13.17.27.17h29.53c.16,0,.25-.09.28-.21.1-.05.15-.14.16-.25.09-1.6.08-3.21-.03-4.81h-.01ZM116.27,90.43h-8.35l-.1-4.67-.02-1.22c5.02.01.47.03,5.49.05,5.06.02,10.12.04,15.18.03,2.81,0,5.64-.01,8.45-.03.16,1.52.23,3.05.2,4.58-.01.42-.03.85-.05,1.27h-20.79Z"/><path class="cls-10" d="M108.27,44.59c.27.13.81-1.32,1.69-3.1.88-1.78,1.65-3.26,1.49-3.35-.26-.15-1.19,1.2-2.07,2.98-.88,1.78-1.38,3.33-1.11,3.46h0Z"/><path class="cls-10" d="M116.52,44.88c.28.1.66-1.4,1.33-3.26.68-1.87,1.27-3.43,1.11-3.5-.27-.11-1.05,1.33-1.72,3.2-.68,1.87-1,3.46-.72,3.56Z"/><path class="cls-10" d="M165.22,38.07c-.27.11.46,1.48,1.21,3.31.76,1.83,1.37,3.39,1.53,3.33.28-.1-.12-1.69-.88-3.53-.76-1.83-1.59-3.23-1.87-3.12h0Z"/><path class="cls-10" d="M157.32,38.14c-.28.08.26,1.52.77,3.44.52,1.92.91,3.54,1.09,3.5.29-.06.1-1.7-.41-3.61-.52-1.92-1.16-3.41-1.45-3.33Z"/><path class="cls-10" d="M149.81,38.15c-.3.04.04,1.54.28,3.52.24,1.97.41,3.34.58,3.33.3-.02.34-1.37.1-3.34-.24-1.97-.67-3.54-.97-3.5h0Z"/><path class="cls-10" d="M126.02,38.15c.3.04-.04,1.54-.28,3.52-.24,1.97-.41,3.34-.58,3.33-.3-.02-.34-1.37-.1-3.34.24-1.97.67-3.54.97-3.5h0Z"/><path class="cls-10" d="M133.61,38.15c.3.04.24,1.83.24,3.38s-.09,3.48-.27,3.47c-.3-.02-.42-2.4-.42-3.48s.14-3.4.44-3.37h0Z"/><path class="cls-10" d="M141.77,38.15c.3.04.34,1.83.34,3.38,0,1.55-.09,3.48-.27,3.47-.3-.02-.42-2.4-.42-3.48s.05-3.4.34-3.37Z"/><path class="cls-21" d="M176.51,44.76c0,.08-1.07.14-3,.18-1.93.05-4.72.08-8.18.09-6.9.04-16.44,0-26.97.01-10.53.01-20.07.02-26.97.03-3.45,0-6.25-.03-8.18-.07-1.93-.04-3-.09-3-.17,0-.08,1.07-.09,2.99-.18,1.93-.09,4.72-.09,8.17-.19,6.9-.18,16.44-.2,26.98-.2,10.54,0,20.08,0,26.98.16,3.45.08,6.25.08,8.17.16,1.93.09,3,.09,2.99.17h.01Z"/><path class="cls-24" d="M172.69,20.67c0-.07-.98-.12-2.74-.16-1.76-.04-4.31-.07-7.46-.08-6.3-.03-15,0-24.61,0-9.61-.01-18.32-.02-24.61-.02-3.15,0-5.7.02-7.46.06-1.76.04-2.74.08-2.74.15s.97.08,2.73.16c1.76.08,4.31.17,7.46.26,6.3.17,15,.18,24.63.18s18.32,0,24.62-.14c3.15-.08,5.7-.15,7.46-.23,1.76-.08,2.73-.08,2.73-.15h0Z"/><path class="cls-16" d="M142.41,98.42c-2.5,3.1-7.59,3.47-10.65.96-.14-.11-.2-.25-.21-.38-3.04-3.08-2.4-8.78-1.81-12.56.42-2.67,1.14-5.3,2.15-7.83.48-1.2,1-2.42,1.65-3.55.51-.89,1.28-1.69,2.4-1.7,1.23-.01,2.25.89,2.98,1.75.78.92,1.46,1.91,2.03,2.96,1.13,2.11,1.85,4.41,2.34,6.73.49,2.33.89,4.75.94,7.14.05,2.27-.34,4.64-1.82,6.48h0Z"/><path class="cls-5" d="M180.22,93.71c-2.5,3.1-7.59,3.47-10.65.96-.14-.11-.2-.25-.21-.38-3.04-3.08-2.4-8.78-1.81-12.56.42-2.67,1.14-5.3,2.15-7.83.48-1.2,1-2.42,1.65-3.55.51-.89,1.28-1.69,2.4-1.7,1.23-.01,2.25.89,2.98,1.75.78.92,1.46,1.91,2.03,2.96,1.13,2.11,1.85,4.41,2.34,6.73.49,2.33.89,4.75.94,7.14.05,2.27-.34,4.64-1.82,6.48h0Z"/><path class="cls-5" d="M133.08,100.33c-1.69,2.2-5.14,2.46-7.21.68-.09-.08-.14-.17-.14-.27-2.06-2.18-1.62-6.22-1.22-8.9.28-1.89.77-3.76,1.46-5.54.33-.85.68-1.71,1.12-2.52.34-.63.86-1.19,1.63-1.2.83,0,1.52.63,2.02,1.24.53.65.99,1.35,1.37,2.1.77,1.5,1.25,3.12,1.59,4.77.33,1.65.6,3.37.63,5.05.03,1.61-.23,3.29-1.23,4.59h0Z"/><path class="cls-22" d="M142.9,30.23c-.02-.2-2.3-.2-5.97-.04-.92.05-1.92.09-3,.15-.52.02-1.04.02-1.49-.09-.23-.05-.43-.14-.61-.25-.17-.11-.36-.28-.57-.49-.21-.21-.44-.46-.79-.69-.33-.23-.85-.43-1.36-.34-.52.07-.94.36-1.23.64-.3.29-.5.59-.7.87-.2.28-.37.55-.55.76-.18.22-.36.37-.47.41-.03,0-.05.01-.08.02-.03,0-.06,0-.09,0-.06-.01-.11-.03-.15-.06-.09-.07-.22-.24-.29-.48-.08-.24-.11-.52-.11-.79,0-.12.02-.29.04-.46.01-.18.03-.36.04-.53.02-.37.04-.76-.05-1.19-.07-.43-.27-.9-.62-1.25-.35-.36-.83-.58-1.27-.63-.45-.07-.87,0-1.26.11-.39.12-.74.3-1.05.56-.31.25-.54.52-.75.79-.41.56-.68,1.11-.95,1.61-.26.5-.52.93-.82,1.28-.31.35-.65.61-1,.72-.36.12-.71.09-1.04-.04-.68-.27-1.17-.91-1.4-1.49-.24-.62-.31-1.22-.34-1.71-.05-1-.05-1.59-.15-1.59-.09,0-.28.53-.41,1.58-.05.53-.08,1.2.14,1.98.23.78.74,1.65,1.75,2.17.5.25,1.16.35,1.77.18.62-.16,1.15-.54,1.58-.98.43-.44.77-.97,1.06-1.48.3-.51.57-1.01.89-1.42.16-.2.35-.4.53-.53.18-.14.39-.24.62-.3.46-.14.9-.06,1.1.17.12.12.2.29.24.52.04.23.04.52.02.84l-.04.49c-.02.17-.04.34-.04.57,0,.42.04.84.18,1.27.14.42.37.89.85,1.23.49.33,1.11.4,1.65.2.53-.21.84-.56,1.08-.85.24-.3.43-.6.61-.87.18-.26.35-.51.52-.68.17-.17.31-.25.43-.27.13-.03.24,0,.43.11.18.11.38.3.6.52.23.21.49.46.82.65.33.2.68.31,1.01.37.68.13,1.29.09,1.84.04,1.09-.11,2.08-.22,3-.33,3.65-.43,5.9-.79,5.89-.99v.03Z"/><path class="cls-39" d="M112.52,178.51c-.46.28-.94.55-1.41.81l.45-.15c.11-.27.87-.34.96-.65h0,0Z"/><path class="cls-39" d="M38.83,184.07c.27-.03-.42-.47-.19-.23-.27.03.74.55.19.23Z"/><path class="cls-39" d="M112.95,179.52l.78-.4-.27.05c-.31.11-.64.3-.51.35h0s0,0,0,0Z"/><path class="cls-39" d="M111.51,178.72c.59-.25.54-.18,1.21-.58-.41-.14-.67.41-1.21.58Z"/><path class="cls-39" d="M113.73,179.5c.22.14.8-.33.81-.58-.16.31-.57.46-.81.58Z"/><path class="cls-39" d="M113.33,178.31l.62-.09c-.21-.09.15-.29.39-.46-.39-.25-.73.4-1.01.55h0Z"/><path class="cls-39" d="M45.56,169.63c-.11.02-.11.17-.1.32.38.29.11-.24.1-.32Z"/><path class="cls-15" d="M91.02,23.18s.06-.04.07-.07c-.04.02-.06.04-.07.07Z"/><path class="cls-15" d="M85.48,23.98c.12-.02.04-.08.12-.13-.11-.02-.17.02-.12.13Z"/><path class="cls-15" d="M85.33,23.98l-.08-.07.1.13-.02-.06Z"/><g class="cls-19"><path class="cls-35" d="M85.69,89.87s-1.77.19-2.99-.45c-1.22-.64-2.21-1.1-2.51-2.26-.3-1.16-1.55-5.26-1.82-6-.27-.74-.03-1.61-1.31-2.05s-2.69-.99-3.37-.71-1.67,1.5-1.79,2.06.07,1.71-.36,1.71-1.13-.59-1.13-.59c0,0-.6-5.44-.39-5.99s.81-1.84.9-2.61-.43-2.09-1.52-2.42c0,0-2.22,1.2-3.1,1.11-.88-.09-1.34-.66-1.83-.38s-2.84,1.7-4.16,1.98c-1.32.28-4.77.32-4.77.32,0,0-.48,5.95-.46,7.21.03,1.26.26,3.02.26,3.02,0,0-1.12,4.18-1.54,5.78-.42,1.61-.94,3.2-.64,3.77s1.34,1.33,1.97,1.31,2.71.08,2.71.08c0,0,1.64,4.37,2.09,5.18s1.89,2.64,3.33,2.85c1.44.21,4.61.23,5.04.19s2.84-.39,2.84-.39l.46,6.03s5.2-.09,8.4-1.39,6.9-4.34,8.47-5.72l-2.77-11.64Z"/><path class="cls-1" d="M50.53,68.7s0-.01-.01-.03c-.4.28.06.02.01.03Z"/><path class="cls-1" d="M87.64,91.47c-1.25-.11-2.49-.36-3.68-.76-1.11-.37-2.22-.86-3.19-1.51-.48-.32-.86-.75-1.1-1.28-.13-.28-.2-.59-.28-.89-.02-.06-.09-.36-.04-.16-.02-.07-.04-.13-.05-.2-.13-.48-.28-.95-.42-1.43-.05.16-.11.32-.18.48-.26.63-.6,1.23-1.01,1.78-.34.45-.74.9-1.23,1.19-.07.35-.18.69-.36.99-.26.44-.65.8-1.18.85-.62.06-1.07-.34-1.44-.78-.53-.61.29-1.33.91-1.04-.67-.42-1.16-1.23-1.32-2.02-.08-.39.28-.77.65-.81.42-.05.74.27.81.65.06.31.26.66.51.85-.03-.2-.08-.4-.16-.6h0c-.32-.87,1.03-1.4,1.34-.52.06.16.11.33.15.5,1.18-1.46,1.71-3.44,1.3-5.28-.09-.4-.26-.83-.51-1.17-.13-.17-.27-.31-.47-.44.08.05-.16-.07-.18-.08-.03-.01-.07-.03-.11-.04,0,0,0,0-.04,0-.11-.03-.23-.04-.34-.05.09,0-.16,0-.19,0-.24.02-.3.04-.5.12-.2.08-.25.11-.44.26q-.06.05-.14.14c-.07.08-.13.16-.18.25h0c-.22.34-.75.33-1.03.1-.33-.27-.32-.7-.1-1.03.1-.15.21-.29.33-.41h0c-.05.02-.1.04-.15.05-.06.02-.11.05-.17.07,0,0-.01,0-.02.01-.07.07-.18.12-.25.18-.01,0-.01.01-.02.02,0,0,0,0-.01.02-.03.04-.07.08-.1.12-.03.03-.05.07-.08.1,0,0-.05.08-.07.11-.06.12-.12.25-.17.38-.02.05-.04.1-.05.15.02-.06-.03.09-.03.12-.16.6-.26,1.22-.38,1.83-.02.1-.06.19-.11.27,0,.03-.01.05-.02.08-.07.17-.24.32-.4.38-.09.04-.19.05-.28.04-.1,0-.2-.01-.29-.06-.25-.13-.52-.24-.79-.32-.02,0-.04-.01-.07-.02-.13-.02-.25-.07-.35-.16l-.13-.14c-.12-.15-.15-.37-.13-.55,0-.01,0-.02,0-.03,0-.04-.02-.08-.02-.12l-.25-3.2-.13-1.66c-.04-.55-.1-1.09.07-1.63.26-.8.97-1.55.99-2.4.02-.62-.54-1.12-1.05-1.43-.29.2-.59.38-.93.53-.82.37-1.86.66-2.76.54-.29-.04-.55-.16-.77-.34-.04-.03-.07-.06-.1-.09,0,0,0,0-.01,0-.36.16-.69.44-1.03.64-1.59.94-3.36,1.54-5.2,1.74-.77.08-1.54.09-2.3.03-.31,1.41-.49,2.85-.52,4.29-.03,1.64.14,3.25.37,4.87,0,.02,0,.05,0,.07.05.17.05.34-.03.5-.47.86-.69,1.75-.89,2.68s-.36,1.87-.56,2.8c-.19.87-.51,1.75-.69,2.57-.14.63-.06,1.46.68,1.72.45.15,1.03.03,1.49,0l1.66-.08s.05,0,.07,0c.02,0,.03,0,.05,0,.02,0,.04,0,.06,0,.04,0,.07.01.1.02,0,0,0,0,.01,0,.21.06.4.21.47.43,0,.01,0,.02.01.03,0,0,0,0,0,0,.14.42.29.83.44,1.24.05,0,.1,0,.16,0,.02,0,.04,0,.06,0,.02,0,.04,0,.06,0,.08,0,.16,0,.24,0,.16-.01.31-.03.47-.05.08-.01.15-.03.23-.04,0,0,.04,0,.07-.01.01,0,.02,0,.03,0,.15-.04.3-.09.45-.15.16-.06.31-.13.46-.2,0,0,.03-.02.04-.03-.03.01,0-.02.04-.02,0,0,0,0,0,0,.07-.04.14-.08.2-.12.13-.09.26-.18.38-.28.06-.05.12-.1.18-.15,0,0,0,0,0,0-.01,0,.06-.05.07-.07h0c.29-.28.69-.36,1.03-.1.3.22.38.76.1,1.03-1.02,1-2.32,1.58-3.73,1.66.36.9.74,1.79,1.15,2.68,0,0,0,0,0,0,.38.76.82,1.4,1.52,1.86,1.24.83,3.15.8,4.59.78.83-.01,1.66-.07,2.48-.18.75-.1,1.32-.21,2.01-.48.16-.06.3-.06.43-.03-.33-.17-.64-.37-.93-.63-1.8-1.61-1.56-4.33.78-5.3,2.25-.93,4.9.54,6.44,2.13,1.21,1.25,2.04,2.83,2.36,4.53,1.63-.91,3.16-2.12,5.08-2.21,1.41-.07,2.97.41,3.82,1.53.24-.16.49-.32.73-.48-.13-.62-.27-1.23-.41-1.85-.6-2.64-1.28-5.25-1.86-7.89ZM59.77,83.35c-.94-.15-.71-1.6.23-1.45s.7,1.6-.23,1.45Z"/><path class="cls-1" d="M74.65,88.91c.17.2.17.22.23.03-.15-.05-.3-.11-.43-.19.07.04.14.09.2.17Z"/><path class="cls-31" d="M63.19,95.34c.27-.27.19-.81-.1-1.03-.35-.26-.74-.19-1.03.1h0s-.08.07-.07.06c.02-.02.1-.09.03-.02-.02.02-.02.02-.03.02,0,0,0,0,0,0-.06.05-.12.1-.18.15-.12.1-.25.19-.38.28-.07.04-.13.08-.2.12,0,0,0,0,0,0,0,0,0,0,0,0,0,0-.03,0-.04.02,0,0,0,0,0,0-.02.01-.04.02-.04.03-.15.07-.3.14-.46.2-.15.06-.3.11-.45.15,0,0-.02,0-.03,0,.04,0,.06-.01,0,0-.08.02-.03,0,0,0-.03,0-.06.01-.07.01-.08.02-.15.03-.23.04-.16.03-.31.04-.47.05-.08,0-.16,0-.24,0-.02,0-.04,0-.06,0,0,0,.02,0,.02,0,.06,0,.04,0-.07,0,.01,0,.03,0,.04,0-.02,0-.04,0-.06,0-.05,0-.1,0-.16,0,.18.48.36.97.55,1.45,1.4-.08,2.71-.66,3.73-1.66Z"/><path class="cls-37" d="M61.97,94.47s0,0,.03-.02c.07-.06,0,0-.03.02Z"/><path class="cls-38" d="M86.34,90.05c-.12.15-.3.23-.49.26-.03,0-.06,0-.08,0-.07.01-.15.02-.22.02-.12,0-.24-.02-.37-.03.58,2.64,1.26,5.26,1.86,7.89.14.61.27,1.23.41,1.85.44-.29.87-.59,1.3-.89-.55-2.44-1.15-4.88-1.72-7.32-.17-.71-.33-1.42-.48-2.14,0-.03-.02-.06-.03-.09,0,.16-.07.32-.17.45Z"/><path class="cls-38" d="M60,81.9c-.94-.15-1.17,1.3-.23,1.45s1.17-1.3.23-1.45Z"/><path class="cls-11" d="M79.27,67.29s0,0,0,0c-.2-.08,0,0,0,0Z"/><path class="cls-11" d="M82.18,67.64c-.97.2-1.92.04-2.83-.31,0,0,0,0-.01,0-.04.05-.09.13-.1.15-.13.19-.27.37-.42.54-.32.39-.68.75-1.06,1.09-1.46,1.32-5.53.32-5.4-.29-.56.22-1.06.73-1.47,1.16-.5.52-1.02.99-1.6,1.38.52.31,1.07.81,1.05,1.43-.03.86-.74,1.61-.99,2.4-.17.53-.11,1.08-.07,1.63l.13,1.66.25,3.2s.01.08.02.12c0,.01,0,.02,0,.03-.02.18.01.39.13.55l.13.14c.1.08.22.14.35.16.02,0,.04.01.07.02.27.09.54.19.79.32.09.05.19.07.29.06.1.01.19,0,.28-.04.16-.06.34-.21.4-.38,0-.02.02-.05.02-.08.05-.08.09-.17.11-.27.12-.61.23-1.23.38-1.83,0-.03.05-.17.03-.12.02-.05.03-.1.05-.15.05-.13.1-.25.17-.38.01-.02.06-.1.07-.11.03-.04.05-.07.08-.1.03-.04.07-.08.1-.12,0,0,0-.01.01-.02,0,0,.01,0,.02-.02.08-.06.18-.11.25-.18,0,0,.01,0,.02-.01.06-.03.11-.05.17-.07.05-.02.1-.04.15-.05h0c.85-.86,2.27-1.12,3.36-.67,1.25.51,1.87,1.87,2.07,3.13.2,1.22.07,2.48-.32,3.65.14.48.29.95.42,1.43.02.07.04.13.05.2-.05-.2.02.1.04.16.07.3.15.61.28.89.24.53.62.96,1.1,1.28.97.66,6.32,3.8,6.25,2.63-.51-8.92.64-10.95.53-13.58-.15-3.41.28-3.94-.88-7.18-.56-1.58-1.35-3.09-2.32-4.46-.62.52-1.36.87-2.17,1.04Z"/><path class="cls-38" d="M74.88,88.94s.01-.05.03-.09c.07-.21.13-.41.16-.63.04-.29.03-.56-.02-.83-.25-.2-.45-.54-.51-.85-.08-.38-.39-.7-.81-.65-.37.04-.73.42-.65.81.16.79.65,1.6,1.32,2.02.02,0,.03.02.05.03.14.08.28.15.43.19Z"/><path class="cls-38" d="M73.54,80.58c.28.23.82.23,1.03-.1h0c.06-.09.12-.17.18-.25q.08-.09.14-.14c.19-.15.24-.18.44-.26.2-.08.26-.09.5-.12.04,0,.29,0,.19,0,.12,0,.23.03.34.05.03,0,.04,0,.04,0,0,0,0,0,0,0-.1-.03,0,0,0,0,.04.01.07.03.11.04.02,0,.26.13.18.08.2.12.34.26.47.44.25.33.42.77.51,1.17.41,1.84-.12,3.82-1.3,5.28.16.62.2,1.3.07,1.93.49-.29.9-.75,1.23-1.19.41-.55.76-1.15,1.01-1.78.06-.16.12-.32.18-.48-.33-1.08-.68-2.16-1.08-3.21h0c-.18-.48.13-.85.52-.96-.26-.72-.59-1.53-.88-1.9-.25-.33-.84-.5-1.34-.58.02.2-.03.42-.15.58-.25.33-.72.33-1.03.1-.01,0-.02-.02-.04-.03-.06-.02-.11-.06-.16-.08-.01,0-.04-.02-.07-.03-.03,0-.06-.02-.08-.02-.1-.03-.2-.03-.31-.05,0,0,0,0-.01,0h0c-.05,0-.11,0-.16,0-.09,0-.24,0-.31.05.1-.03.11-.03.03,0h-.04c-.12.14-.24.28-.33.43-.22.33-.23.76.1,1.03Z"/><path class="cls-38" d="M76.42,79.76s0,0,0,0c0,0-.1-.03,0,0Z"/><path class="cls-38" d="M74.58,79.12l.07.02s-.06-.03-.07-.02Z"/><path class="cls-38" d="M73.78,79.12c.07-.05.22-.04.31-.05.05,0,.1,0,.16,0h0s0,0,.01,0c.1.01.21.02.31.05.03,0,.06.01.08.02.03.01.06.03.07.03.05.02.11.06.16.08.01,0,.02.02.04.03.31.22.79.23,1.03-.1.12-.16.18-.38.15-.58.5.08,1.09.25,1.34.58.29.38.62,1.18.88,1.9-.38.1-.7.48-.52.96h0c.4,1.05.75,2.13,1.08,3.21.39-1.17.52-2.44.32-3.65-.21-1.26-.82-2.61-2.07-3.13-1.09-.45-2.51-.19-3.36.67h.04c.08-.04.07-.03-.03,0ZM74.65,79.14l-.07-.02s.04,0,.07.02Z"/><path class="cls-21" d="M75.31,87.54s.04,0,.05,0c.1,0,.18-.02.27-.06.2-.1.37-.26.51-.42.09-.09.16-.2.24-.3-.04-.17-.09-.34-.15-.5-.32-.87-1.66-.35-1.34.53h0c.07.2.12.4.16.6.05.04.1.09.16.11.02,0,.1.03.11.04Z"/><path class="cls-21" d="M74.88,88.94c-.06.19-.05.18-.23-.03-.06-.07-.13-.12-.2-.17-.02-.01-.03-.02-.05-.03-.62-.29-1.44.43-.91,1.04.37.43.82.84,1.44.78.52-.05.92-.41,1.18-.85.18-.31.29-.64.36-.99-.11.06-.22.13-.33.18-.45.18-.87.18-1.25.06Z"/><path class="cls-21" d="M75.31,87.54s-.01,0-.03,0c.03,0,.03,0,.03,0Z"/><path class="cls-21" d="M76.39,86.76c-.08.1-.16.2-.24.3-.15.16-.31.33-.51.42-.09.04-.17.06-.27.06.01,0,0,0-.02,0,0,0,.02,0,.02,0,0,0-.03,0-.05,0,0,0,0,0-.03,0,.01,0,.02,0,.03,0,0,0-.09-.03-.11-.04-.06-.03-.11-.07-.16-.11.05.27.06.55.02.83-.03.22-.09.42-.16.63-.01.04-.02.06-.03.09.38.12.8.11,1.25-.06.12-.05.22-.11.33-.18.12-.64.08-1.31-.07-1.93Z"/><path class="cls-21" d="M74.4,88.72s.03.02.05.03c-.02,0-.03-.02-.05-.03Z"/><path class="cls-21" d="M75.36,87.55s-.02,0-.02,0c.03,0,.04,0,.02,0Z"/><path class="cls-34" d="M50.53,68.7s0-.01-.01-.03c-.4.28.06.02.01.03Z"/><path class="cls-34" d="M56.19,74.4c.04-.16.06-.32.1-.48.1-.39-.24-.78-.61-.84-.42-.07-.75.22-.84.61h0c-.04.17-.07.34-.11.51.48.09.97.16,1.46.2Z"/><path class="cls-27" d="M72.09,105.36c-.05-.65-.1-1.3-.15-1.95-.01-.16-.02-.32-.04-.47.41-.29.34-.87.02-1.16-.09-.04-.19-.09-.28-.14-.13-.03-.27-.04-.43.03-.69.28-1.25.38-2.01.48-.82.11-1.65.17-2.48.18-1.44.03-3.35.05-4.59-.78-.69-.46-1.14-1.1-1.52-1.86,0,0,0,0,0,0-.4-.88-2-4.95-2.14-5.36,0,0,0,0,0,0,0-.01,0-.02-.01-.03-.07-.22-.26-.37-.47-.43,0,0,0,0-.01,0-.03,0-.07-.02-.1-.02-.02,0-.04,0-.06,0-.02,0-.03,0-.05,0-.02,0-.05,0-.07,0l-1.66.08c-.46.02-1.04.15-1.49,0-.74-.26-.82-1.09-.68-1.72.18-.81.5-1.69.69-2.57.2-.93,1.45-5.48,1.45-5.48.08-.16.09-.34.03-.5,0-.02,0-.04,0-.07-.23-1.62-.4-3.24-.37-4.87.03-1.44.21-2.88.52-4.29-.49-.04-.98-.11-1.46-.2-.68,3.14-.62,6.33-.17,9.5,0,0-.76,3.85-1.48,5.73-.16.42-.22.97-.33,1.35-.15.48-.33.96-.4,1.47-.16,1.15.33,2.29,1.36,2.87.62.35,1.34.3,2.03.27l1.53-.08c.58,1.66,1.24,3.29,1.97,4.89,0,0,0,0,0,0h0s0,0,0,0c0,0,.01.02.01.03.41.82.9,1.61,1.62,2.2.78.64,1.75,1.01,2.74,1.17.89.15,1.8.17,2.7.18.9,0,1.78-.04,2.66-.14.5-.06,1-.13,1.5-.24.01.14.02.28.03.42.05.71.11,1.42.16,2.13.04.53.08,1.05.12,1.58.34.33.96.38,1.51.38-.07-.86-.13-1.71-.2-2.57Z"/><path class="cls-38" d="M54.45,75.76c.1-.39.42-.68.84-.61.37.06.71.46.61.84-.04.16-.07.32-.1.48.76.06,1.54.05,2.3-.03,1.84-.2,3.61-.81,5.2-1.74.34-.2.67-.48,1.03-.64,0,0,0,0,.01,0,.03.03.07.06.1.09.22.18.48.31.77.34.9.12,1.95-.17,2.76-.54.33-.15.64-.33.93-.53-.07-.04-.15-.08-.22-.12h0c-.35-.19-.54-.6-.36-.98.16-.35.62-.55.97-.36.07.03.13.07.2.11.32-.35.77-.82,1.27-1.31.98-.96,2.06-.7,2.06-.7l-.64,2.62s1.65-.19,2.8-.72c1.15-.53,3.65-3.26,3.65-3.26,0,0,.82.11,1.43.3.39.12,1.51-.05,2.26-.19-.15-.66.83-1.24,1.33-.58.11.15.21.3.31.45.1-.09.21-.17.31-.26.37-.18.66-.54.71-.95.07-.52-.25-.9-.41-1.37s-.23-.92-.37-1.37c-.15-.45-.35-.86-.58-1.26-.45-.77-1.08-1.46-1.82-1.97-.55-.38-1.28-.67-1.95-.6-.36-1.42-1.11-2.72-2.03-3.86-.58-.71-1.25-1.37-2.07-1.8-.39-.2-.86-.38-1.31-.39-.63-.02-1.09.5-1,1.13.05.34.22.64.37.96-.99-.86-2.16-1.51-3.48-1.6-1.09-.07-2.12.2-3.16.51-.75.23-1.54.47-2.32.71.05-.27.11-.53.21-.79.19-.5.51-.99.28-1.53-.51-1.19-2.29-.31-3.01.17-.84.57-1.49,1.38-2.05,2.22-.3.46-.59.92-.89,1.38-.15.21-.29.43-.46.63,0,0,0,0,0,0-.09-.15-.16-.31-.21-.49-.1-.34-.07-.71-.05-1.08.03-.49.03-.98-.19-1.43-.24-.49-.67-.86-1.22-.94-.31-.04-.54.09-.68.29-2.69,1.26-4.49,3.84-4.78,6.74-.62-.32-1.3-.53-1.98-.61-.22-.02-.44.05-.61.19-.25.1-.47.31-.58.55-.19.42-.29.93-.36,1.39-.14.94-.1,1.91.08,2.84.18.93.48,1.84.87,2.7.18.41.38.82.59,1.22.1.19.21.38.3.58-.44.09-.89.07-1.33.21-.5.16-.94.51-1.15,1-.09.21-.08.41,0,.57.03.18.12.35.26.49,1.78,1.75,4.07,2.93,6.5,3.4.04-.17.07-.34.11-.51h0ZM63.93,54.65s.05-.1,0,0h0ZM50.13,70.74s.01.03.01.03c.05,0-.41.24-.01-.03Z"/><path class="cls-14" d="M116.38,103.21c.15.43-.02.86.06,1.12.37,1.11,1.39,2.45,1.03,3.76.11.2,4-.64,4.65-.63,5.7.09,9.85,3.32,13.38,7.26,1.26,1.41,2.39,3.6,3.5,4.8.88.95,1.8.4,1.28,2.39-.8,2.99-2.13,1.3-4.36,1.45,1.71,5.56,3.64,11.1,5.28,16.68,2.24,7.63,5.36,17.35,6.38,25.13.73,5.57.18,8.88-4.57,12.39-4.14,3.06-14.41,6.43-19.5,6.84-.99.08-2.14.22-2.95-.48-.56-1.52-1.95-2.75-2.36-4.3-1.87-7.18-2.54-15.82-4-23.21-2.39-12.13-5.65-24.1-8.13-36.18-.16-.79-.39-1.68-.59-2.48-.29-1.2-1.49-3.93-1.55-4.79-.03-.43.03-.66.32-.98.46-.5,4.73-.89,5.38-1.89l-1.5-4.19c-.16-.63-.22-1.5-.01-2.11.31-.94,3.3-3.01,4.28-3.25,2.12-.51,3.3.83,3.97,2.66h0ZM116.32,108.06c-.92.27-1.39,1.28-2.26,1.62-1.04.41-3.14-.32-3.69.73-.9,1.75,2.5,2.27,3.77,1.95,1.54-.39,2.9-2.14,3.32-3.64l-1.15-.67h0Z"/><path class="cls-32" d="M29.48,145.29c.39.33,5.38,3.46,5.61,3.65,1.24-1.65,4.14-5.69,5.86-6.57.63-.32,2.44-.52,3.06-.1.87.59,3.68,5.65,2.06,6.7l-5.11,5.01c2.28,1.82,9.69,10.01,11.91,11.92,4.71-5.69,8.48-16.06,11.95-22.62-3.05-1.43-10.72-5.79-13.43-7.73-1.89-1.36-8-5.94-9.91-5.92-1.44,0-13.83,14.14-12.02,15.69h0Z"/><path class="cls-6" d="M89.71,95.4l-19.38,7.54c-1.59.24-4.56,1.04-3.54,3.2.3.63,2.07,6.23,2.59,6.65.38.31-1.43,9.85-1.43,9.85-4.56,11.57-1.34,18.02,2.86,15.22,6.74-4.49,26.28-11.63,33.03-7.23,1.25.82-1.23-6.79.08-6.01.37.22-2.89-8.6-2.41-8.94-2.64-4.22-6.68-7.21-9.85-10.98,0,0-1.8-8.53-1.96-9.29h0Z"/><path class="cls-3" d="M40.97,153.97l5.11-5.01c1.62-1.05-1.19-6.11-2.06-6.7-.62-.42-2.44-.22-3.06.1-1.72.88-4.62,4.93-5.86,6.57,1.93,1.63,3.86,3.42,5.88,5.03h0Z"/><path class="cls-26" d="M117.46,108.73l-1.15-.67c-.92.27-1.39,1.28-2.26,1.62-1.04.41-3.14-.32-3.69.73-.9,1.75,2.5,2.27,3.77,1.95,1.54-.39,2.9-2.14,3.32-3.64h0Z"/><path class="cls-14" d="M69.13,175.38c5.82-8.58,10.03-18.31,14-27.87,1.77-4.27,3.8-8.53,5.44-12.83.27-.71,1.3-3.62,1.79-3.74l1.65.9c-.76,5.64-2.46,11.09-4.75,16.31,2.86,1.6,4.73,4.42,7.3,6.42,5.33,4.14,11.44,4.92,17.92,5.84.24-.41.21-.78.16-1.22-.49-4.26-2.39-11.24-3.44-15.63-1.1-4.61-2.29-9.31-3.68-13.85-1.36-4.42-1.97-7.79-5.49-11.08-10.44-9.76-20.64-8.58-29.67,2.05-4.46,5.25-5.28,10.14-8.09,16.08-.76,1.61-10.64,33.61-11.46,35.16-.07.13-.36.97-.44,1.09,4.49-.13,17,1.93,18.75,2.37Z"/><path class="cls-14" d="M62.23,171.51h0c-.15.22.12,1.11.58,2.3.35.08,51.08,11.14,52.14,10.63,1.39-.66,1.03-3.83.87-4.59-.79-3.91-.88-8-1.58-11.92-.11-.61-.82-4.24-.97-4.42-.25-.29-4.79-21.06-5.14-21.14-1.92-.43-20.33-25.77-20.64-25.6-1.63,3.89-20.89,37.37-22.66,41.21-2.95,6.42,1.51,3.14-3.3,8.19-.79.83,1.87,4.78.68,5.34Z"/><path class="cls-30" d="M118.19,179.4c-1.87-7.18-2.54-15.82-4-23.21-2.39-12.13-5.65-24.1-8.13-36.18-.16-.79-.39-1.68-.59-2.48-.27-1.13-1.35-3.62-1.53-4.63-.61-.32-1.21-.65-1.85-.92-.71-.29-.92-.42-1.48.11-.67.64-.41,1.47.26,1.96.32.24.38.57.28.86.12.18.24.35.35.53-.37.26-.53.14-.76-.03-.25.15-.56.17-.86-.05-.5-.37-.84-.85-1.04-1.38-.72-.62-1.43-1.26-2.14-1.73-6.75-4.4-13.8-4.87-20.54-.38-3.82,2.54-5.67,5.46-7.63,9.34-.15.63-.22,1.26-.17,1.87.58-.88,1.23-1.76,1.99-2.66,9.02-10.62,19.22-11.8,29.67-2.05,3.52,3.29,4.13,6.65,5.49,11.08,1.4,4.53,2.58,9.24,3.68,13.85,1.05,4.4,2.94,11.37,3.44,15.63.05.45.08.81-.16,1.22h0c-.02.9-.06,1.81-.02,2.71,0,0,.02,0,.03,0,.35.08.53.11.79.4.15.18.86,3.8.97,4.42.7,3.92.78,8.01,1.58,11.92.09.42.23,1.58.11,2.64,1.36.68,2.55-1.76,2.26-2.88h0Z"/><path class="cls-12" d="M6.76,109.99c-.25.21-.34.31-.16.63.01,0-.07.22.06.33,2.5,2.27,2.71,3.84,4.72,6.59.19.26,2.24.97,2.22,1.27.98.39,1.91,1.33,2.06,2.42l6.25,7.48.12.41c-.1.5-.44.95-.19,1.48,1.9.89,4.4-.54,5.92-1.69-.22-1.07.6-1.05.54-2.12-.04-2.33-3.84-7.24-5.92-9.11-.5.07-8.72-9.95-10.29-9.63-.2.04-4.82,1.5-5.33,1.93h0Z"/><path class="cls-35" d="M39.08,131.56s-.2-.07-.41-.19c-1.45-.88-4.54-2.7-5.29-4.13-.43-.82-.57-1.85-.92-2.67-1.61-3.77-5.22-10.55-9.89-11.03-1.25-.13-4.47,2.24-4.94,3.61-.64,1.87-.03,1.31,1.32,1.39.43.03,2.79.21,2.75.22,2.08,1.86,6.66,8.34,6.6,8.04-.52.39-5.85,3.73-5.85,3.73-2.03-1.5-10.65-14.24-11.77-14.36-6.06-.68-4.02,6.43-1.81,5.5.48-.2,5.37,7.24,4.98,6.89.26,1.1,1.2,4.13,2.78,4.37,2.7.38,7.15.17,15.14,7.7l7.31-9.07h0Z"/><path class="cls-4" d="M15.66,121.24c.06.47.09,1.76.06,2.22,1.42.54,2.54,1.08,2.58,2.65,0,.35-.21.91-.12,1.15.06.16,2.06,2.07,2.36,2.34.39.35.84.84,1.3,1.06.64.22,1.31.37,1.97.23.95-.2,1.2-.4,2.3-.89,3.43-1.52,2.12-2.8,2.2-3.2l-2.25,1.43s-2.39,1.27-3.21,1.19c-.64-.07-.93-.7-.93-.7l-6.25-7.48h0Z"/><path class="cls-4" d="M6.44,110.3c-.48.62-.63.98.37,2.55,1.83,2.87,5.61,7.3,6.08,7.52-.25-.53,2.43.6,2.53.09l-8.98-10.17Z"/><path class="cls-13" d="M35.71,145.11s-.08,0-.13-.01c-.2-.04-.26-.06-2.8-2.34-1.17-1.05-2.47-2.24-2.63-2.39-1.91-1.92-4.16-4.04-6.29-5.14-.09-.05-.17-.09-.24-.13-.14-.08-.26-.14-.44-.22-1.45-.63-4.7-1.79-4.88-1.84-.15-.04-.27-.04-.44-.03-.47.03-.93.01-1.76-.47-.92-.54-1.65-1.84-2.16-3.85-.69-.43-1.43-1.23-1.76-1.96-.09-.2-.15-.49-.23-.86,0-.02,0-.04-.01-.06-.01,0-.03-.02-.04-.03-.4-.24-.78-.47-1.02-.72-.43-.46-.62-1.09-.75-1.51-.02-.08-.05-.17-.08-.24-.14-.07-.41-.17-.58-.24-.28-.11-.52-.2-.68-.29-1.66-.93-3.07-3.02-2.42-5.05.22-.68,1.31-1.63,1.91-1.79,1.17-.3,2.48.16,3.26,1.15.66.84.78,1.86.31,2.74-.35.66-1.27,1.19-2.07,1.19h0c-.55,0-1-.26-1.24-.72-.15-.29-.04-.65.25-.8.29-.15.65-.04.81.25.02.03.04.08.19.08h0c.37,0,.88-.31,1.01-.56.33-.62.02-1.17-.2-1.44-.4-.5-1.2-.95-2.03-.73-.27.07-.99.75-1.08,1-.44,1.38.61,2.94,1.87,3.65.09.05.33.14.52.22.53.2.85.33,1.04.52.17.17.24.4.33.71.1.33.25.79.49,1.05.13.14.55.39.75.51.09.05.16.09.21.13,1.05.24,1.84.14,2.36-.3.64-.54.72-1.46.7-1.62-.09-.65-.71-1.22-1.27-1.45-.55-.22-1.29-.29-1.82-.17-.33.07-.97.47-1.19.74-.21.25-.59.29-.84.08-.25-.21-.29-.59-.08-.84.39-.47,1.27-1.01,1.85-1.14.76-.17,1.75-.08,2.52.23.89.36,1.86,1.24,2.01,2.41.02.12.01.43-.06.81,1.28.62,2.14,1.85,2.17,3.15,0,.13-.02.37-.09.66.59.49,2.1,1.78,1.9,3.28-.08.6-.42,1.14-1.01,1.61,1.16.42,2.85,1.05,3.78,1.46.23.1.39.19.54.27.07.04.13.07.21.12,2.27,1.18,4.6,3.37,6.58,5.36.32.32,4.53,4.12,5,4.47.23.12.35.38.3.65-.06.28-.31.47-.58.47ZM35.83,143.93h0,0ZM35.83,143.93s0,0,0,0c0,0,0,0,0,0ZM18.05,131.8c.11,0,.22,0,.35.03.59-.29,1.23-.72,1.3-1.28.07-.54-.36-1.22-1.27-2.02-.14.17-.31.33-.52.46-.67.44-1.54.5-2.59.2.53,1.65,1.12,2.16,1.38,2.31.58.34.8.33,1.08.31.08,0,.16,0,.26,0ZM14.48,127.62c.07,0,.14.02.2.06,1.15.55,2.03.66,2.56.33.59-.36.63-1.19.63-1.2-.02-.92-.7-1.66-1.41-2.05-.15.24-.33.48-.57.69-.67.6-1.56.84-2.66.73,0,.02.01.04.02.05.22.48.75,1.07,1.22,1.38Z"/><path class="cls-13" d="M41.34,133.96c-.11,0-.22-.03-.32-.1-.23-.15-1.01-.63-1.84-1.13-1.34-.82-2.85-1.75-3.22-2.01-.22-.15-.47-.3-.73-.45-.53-.3-1.08-.62-1.53-1.09l-.08-.09-.04-.12s-1.38-3.7-3.49-7.33c-2.71-4.66-5.4-7.15-7.77-7.21-.55,0-1.19.48-1.74.92-.37.29-.72.56-1.07.72-.58.26-1.43,1.28-1.38,1.55h0s.55.61,4.85-.41c.32-.08.64.12.72.44.08.32-.12.64-.44.72-3.92.93-5.85.82-6.25-.37-.41-1.2,1.34-2.71,2.02-3.02.22-.1.52-.33.83-.57.67-.52,1.5-1.17,2.46-1.17.02,0,.03,0,.05,0,6.43.14,11.72,13.65,12.31,15.19.32.3.75.55,1.17.79.28.16.56.32.82.5.34.24,1.91,1.2,3.17,1.97.87.53,1.62,1,1.86,1.15.28.18.35.55.17.82-.11.18-.31.27-.5.27Z"/><path class="cls-35" d="M30.17,127.68c.4-2.62-.2-4.89-1.35-5.07-1.15-.18-2.4,1.81-2.8,4.43-.4,2.62.2,4.89,1.35,5.07,1.15.18,2.4-1.81,2.8-4.43Z"/><path class="cls-13" d="M26.27,131.89c-.21,0-.42-.11-.53-.31-.18-.34-.3-2.29-.3-2.3-.04-1.07,0-2.97.11-4.09.2-1.82.46-2.92.82-3.45.18-.27.56-.34.83-.16.27.19.34.56.16.83-.11.16-.39.77-.62,2.91-.11,1.07-.15,2.88-.11,3.91.01.31.13,1.6.19,1.86.1.28,0,.59-.28.74-.09.05-.19.07-.28.07ZM26.83,131.1h0,0ZM26.8,131.01h0s0,0,0,0Z"/><path class="cls-14" d="M75.25,166c-3.01,1.95-6.44,3.09-9.55,4.85-1.36.77-2.72,1.67-3.93,2.73.7.16,47.16,9.44,54.11,11.08,1.19-12.77-6.29-44.27-13.52-57.11-1.74-3.1-3.73-5.12-5.73-7.89-.53-.73-1.15-1.4-1.63-2.16h0c0-.27-.01-.63-.02-1.06-3.7-.68-7.64-.96-11.02.88-2.14,1.17-3.83,3.01-5.17,5.02-1.85,2.76-3.02,5.76-3.5,9.06-1.01,6.97.53,14.07,1.57,20.94.24,1.61.43,3.22.62,4.84.16,1.38.54,2.73.7,4.11.1.85.06,1.72-.39,2.47-.58.97-1.61,1.65-2.54,2.25Z"/><path class="cls-23" d="M69.74,175.53c.08-.02.15-.04.18-.05,5.75-2.09,11.81-4.33,17.24-7.19.26-.14.55.16.79-.36.47-1-.3-1.34-1.14-1.54-.04-1.56-2.62-12.89-3.38-17.91-1.11-7.31-4.07-21.07,3.84-25.58,1.15-.66,4.62-1.68,5.15-2.66.14-.26.22-.52.21-.82-1.04-2.02-4.16-.72-5.78-.1h0c-4.27,1.65-7.14,4.57-7.74,10.96-1.21,12.9,3.86,32.97,4.41,36.49-3.84,1.58-7.67,3.28-11.55,4.77-1.22.47-4.91,1.99-5.49,3.18,1.09.27,2.17.54,3.26.82Z"/><path class="cls-14" d="M67.12,174.87c.41-.57,2.21-1.65,5.08-2.75,2.52-.97,5.05-2.04,7.5-3.08,1.33-.56,2.71-1.15,4.06-1.7l.45-.19-.07-.48c-.1-.66-.35-1.84-.69-3.47-1.52-7.28-4.69-22.41-3.71-32.86.52-5.53,2.71-8.65,7.34-10.43l.18-.07c1.91-.74,3.99-1.42,4.75-.25-.01.12-.05.23-.13.37-.25.46-2.11,1.21-3.11,1.62-.74.3-1.38.56-1.8.8-3.35,1.91-5.23,5.64-5.57,11.07-.28,4.53.5,9.38,1.12,13.28.11.66.21,1.29.3,1.87.38,2.48,1.2,6.53,1.93,10.11.7,3.44,1.42,6.99,1.44,7.73v.48s.47.11.47.11c.67.16.78.31.8.35h0s.01.12-.06.29c-.14,0-.33,0-.54.11-5.56,2.94-11.99,5.28-17.16,7.16-.28.09-.99.19-1.63.21.92.23,1.84.46,2.75.7,5.06-1.84,11.18-4.11,16.55-6.94h.02c.21.01.77.04,1.1-.67.24-.52.27-.98.07-1.39-.23-.48-.71-.74-1.2-.9-.14-1.16-.66-3.71-1.43-7.48-.72-3.56-1.55-7.59-1.92-10.04-.09-.59-.19-1.22-.3-1.88-.62-3.84-1.38-8.61-1.11-13,.31-5.06,1.93-8.35,4.94-10.06.35-.2.98-.45,1.65-.73,1.98-.8,3.31-1.39,3.74-2.18.21-.38.3-.75.28-1.14v-.14s-.07-.12-.07-.12c-1.26-2.44-4.59-1.16-6.38-.46l-.18.07c-5.06,1.95-7.57,5.49-8.13,11.48-.99,10.63,2.2,25.9,3.73,33.23.26,1.22.47,2.25.6,2.93-1.21.5-2.43,1.02-3.61,1.52-2.44,1.03-4.96,2.1-7.47,3.06-2.41.93-5.36,2.3-5.87,3.61.41.1.83.2,1.24.31Z"/><path class="cls-33" d="M135.41,141.81c-.08-.14-1.14-1.44-2.93-2.98-.05-.04-.08-.08-.1-.14-.53-1.85-1.04-3.06-1.04-3.06-.08-.21-.3-.33-.52-.32l-1.54.09s-.03,0-.04,0c-.18.03-.29.2-.26.38l.1.52s0,.02-.01.02c0,0,0,0-.01,0-1.06-.65-2.22-1.25-3.47-1.73-.24-.1-.51-.14-.79-.09-.28.05-.52.18-.7.36-4.57,4.17-6.43,9.91-6.48,10.22-.02.07-.02.15,0,.23.05.24.25.41.48.43h1.55c.21.03.39.17.46.38.06.26,1.48,6.11,2.13,7.58.1.21.33.34.57.29h.01c.87-.18,1.66-.35,2.52-.52h0s.07-.01.07-.01c.09-.02.15-.11.13-.2-.14-.51-.44-1.68-.74-2.91,0-.03-.02-.07-.03-.1-.02-.11-.1-.19-.2-.23-.5-.19-.9-.61-1.04-1.16-.48-2.06-.97-4.44-1.22-6.33-.02-.16.08-.31.24-.34.17-.03.33.07.36.24,0,0,0,.02,0,.02.16,1.26.44,2.74.75,4.19.04.2.23.32.43.28.2-.04.32-.23.28-.43-.31-1.46-.59-2.95-.75-4.21-.02-.16.08-.31.24-.34.17-.03.33.07.36.24,0,0,0,.02,0,.02.16,1.26.44,2.72.74,4.17.04.2.23.32.43.28.2-.04.32-.23.28-.43-.31-1.45-.58-2.93-.75-4.19-.02-.16.08-.31.24-.34.17-.03.33.07.36.24,0,0,0,.02,0,.02.24,1.84.72,4.14,1.18,6.14v.02s0,.02.01.03v.02c.11.55-.07,1.09-.44,1.46-.07.07-.1.16-.09.26,0,0,.02.32.45,1.8.19.64.33,1.09.39,1.29.02.08.1.12.18.11.05,0,.09-.02.14-.03.29-.05.59-.11.89-.17h.06s.06-.02.06-.02c.39-.07.76-.14,1.12-.2l.85-.15c.08-.01.13-.09.13-.17-.15-1.84-.3-2.86-.3-2.86-.02-.09-.1-.15-.19-.14l-1.06.05c-.17,0-.28-.08-.34-.2-.03-.07-.04-.16-.04-.16-.73-6.08.86-8.47.86-8.47.05-.07.08-.1.08-.1.05-.05.1-.08.17-.1.13-.03.26.04.33.15,0,0,.02.04.05.14.53,1.86,1.06,5.09,1.44,7.61.32,2.14.53,3.83.53,3.83.02.07.08.12.15.1.56-.09,1.12-.18,1.71-.28h.01c.24-.05.41-.24.42-.48.06-1.6-.79-7.55-.83-7.82-.02-.22.1-.41.29-.51l1.44-.56c.21-.1.34-.33.29-.57-.02-.08-.05-.15-.09-.21h0Z"/></g><path class="cls-9" d="M11.57,86.1c.3.23.3.45,0,.68v-.68Z"/></g></svg>