<svg xmlns="http://www.w3.org/2000/svg" viewBox="0 0 200 161.08"><defs><style>.cls-1{fill:none}.cls-3{fill:#f2a6b0}.cls-4{fill:#f6c243}.cls-5{fill:#f75e28}.cls-6{fill:#fff}.cls-7{fill:#ef470d}.cls-8{fill:#e5cfb1}.cls-9{fill:#ff5000}.cls-10{fill:#e5b342}.cls-11{fill:#ff8000}.cls-12{fill:#a0b4b5}.cls-13{fill:#c1dade}.cls-15{fill:#cc9e40}.cls-17{fill:#5b3d5b}</style></defs><path id="BG_Strong" d="M179.57 49.42c-28.09-8.28-41.85-36.89-70.09-42.3C67.88 14.04-3.75 45.35 5.14 97.48c8.3 76.88 109.48 59.97 163.69 52.77 8.02-2.48 14.83-8.63 12.48-17.64 1.3-28.15 30.13-61.17-1.75-83.18Z" style="fill:#575655"/><g id="Illustrations"><g id="Layer_4-2"><path d="m184.58 142.18-6.52 1.07c-.43.07-3.95 1.51-5.1 1.22s-3.1-.41-3.73-1.16-2.81-3.44-2.84-3.49-.68-.97-.68-.97-1.36-.72-1.79-.61-1.87-.66-1.87-.66-2.22 2.63-3.43 3.76c-1.22 1.12-3.38 2.98-4.09 3.17s-.85.66-.85-.5.16-1.44.49-2.33.57-2.05 1.24-2.87 2.36-3.57 2.36-3.57-2.44 2.08-3.73 3c-1.3.92-2.78 2.05-3.72 2.38s-1.99 1.21-2.05.38.4-1.47.6-2.14c.2-.67.89-1.9.89-1.9s-1.56 2.08-2.68 2.73c-1.12.65-2.38 1.42-2.89 1.18s-.28-1.03-.28-1.03 2.05-3.26 2.76-3.96 3.49-3.24 3.49-3.24l2.74-2.52s-2.42.85-3.14 1.02-1.8.83-1.8.83-1.74 1.08-2.63 1.09-1.64-.31-1.28-.79 2.02-2.32 2.02-2.32l2.96-2.32s4.62-1.86 5.49-2.13 1.3-.77 2.02-.47 5.04 2.3 5.84 2.73 4.29 2.48 4.29 2.48 6.71 1.11 7.17 1.22l3.02.72 1.51-2.06s2.23 1.27 3.15 2.72c.91 1.45 1.64 2.53 2.1 4.33s.97 5.02.97 5.02ZM141.29 60.42s-.06-12.51.04-12.76.24-11.98.24-11.98.66.24 1.66-.25 1.29-.89 1.51-1.8.45-2.64.45-2.64-5.82-1.88-7.81-2.89c-1.99-1.01-5.76-3.17-7.95-4.56-2.18-1.4-5.65-4.9-7.13-6.35-1.48-1.45-4.9-6.23-4.9-6.23s-2.12 2.02-2.77 3.55c-.65 1.52-2.57 5.2-2.98 6.56s-.74 4.8-.78 6.16.17 6.55.25 8.03c.08 1.49 1.34 5.86 1.97 7.75s2.46 4.65 2.46 4.65l-2.17 2.07s-2.05-.83-2.68-.48-1.45 1.4-2.07 1.63-1.1-.19-1.81.66-2.38.77-3.03 1.66-1 1.32-1 1.96-1.43 2.51-2.06 3.59c-.63 1.08-3.54 6.57-4.24 8.24s-3.81 9.64-3.81 9.64l9.93 2.09s.1-1.78.37-3.04.37-1.67 1.15-2.57 2.51-1.02 3.66-1.66 2.16-1.27 2.63-2.24 1.06-2.97 1.29-3.66.26-2.04 1.18-2.36 1.17-1.04 1.75-1.06 1.41.16 2.18-.37.87-1.22 1.4-1.64c.93-.73 1.25-1.82 1.25-1.82s1.21-.62 1.16-1.12.15-1.88.15-1.88l.66-2.11.61 7.48 8.39.98c2.31.27 10.86-1.24 10.86-1.24Z" class="cls-8"/></g><path d="M138.82 137.02c2.29.33 4.59.6 6.9.82.38.04.7-.35.7-.7 0-.41-.32-.67-.7-.7-2.18-.21-4.36-.46-6.53-.77-.37-.05-.75.09-.86.49-.09.33.11.81.49.86Z" class="cls-11"/><path d="m44.21 109.54 13.61.2c1.28.02 13.52.26 15.15.19 1.64-.08 5.16-.37 6.03-.83s2.1-1.76 2.1-2.76-.34-5.64-.5-7.24-1.73-15.92-1.87-17.13-2.35-17.8-2.67-19.99-1.37-9.56-1.71-11.35c-.34-1.8-.8-4.48-2-5.36s-2.27-1.69-4.24-1.88-21.05-.5-23.06-.41-23.9.23-24.91.41-11.65-.5-12.79-.31-2.87.36-3.72 1.41-1.56 2.42-1.3 4.63 2.33 18.07 2.33 18.07 3.07 22.42 3.27 23.8c.19 1.38 1.48 11.55 1.79 12.86.31 1.31.93 3 1.47 3.53s1.76.88 2.56 1.26c.79.37 4.29.53 5.02.54l7.27.1s-2.58 8.66-2.94 9.91-2.09 9.35-2.58 10.47c-.49 1.13-.9 4.91-.8 6s.62 2.84 1.48 3.42c.86.58 4.21 2.02 4.92 2.26.71.24 4.97 1.46 6.62 1.65 1.64.19 6.92.05 9.34-.16 2.42-.21 13.82-1.43 15.19-1.62s13-2.58 13-2.58v-4.47l-26.56-3.09-3.34 1.12s1.35-8.48 1.42-8.85 2.43-13.78 2.43-13.78Z" class="cls-10"/><path d="M9.45 103.48c.33.72.36 3.3 2.07 4.6 1.71 1.29 3.83 1.4 5.27 1.45 1.44.05 10.95 0 15.95.09s15.11.68 15.6.33 15.82.3 18.63.14c2.81-.16 9.91-.41 11.23-.48 1.32-.07 3.24-.86 3.41-2.82.16-1.95-.59-10.45-1.17-12.84-.59-2.38-1.92-16.23-2.39-18.89-.46-2.66-2.03-16.47-2.52-18.28-.49-1.82-.82-7.6-2.19-10.1s-2.27-2.64-3.62-2.96-6.31-.98-14.05-1.12c-7.74-.14-39.72.18-44.29.35-4.57.17-6.2.03-7.76 1.52-1.55 1.49-1.53 2.39-1.36 4.02s1.17 12.12 1.72 15.75S7.2 86.7 7.47 89.71s1.97 13.76 1.97 13.76Z" class="cls-4"/><path d="M110.47 131.33c-1.51-.21-24.81-3.4-24.81-3.4l-14.97-1.64-16.24-.17-9.89.49c0-.36-.34-.69-.7-.67-.39.02-.69.31-.7.7l-.15 4.1c-.01.37.33.72.7.7.25-.01.46-.13.58-.32l25.98 3.02.15 2.33c-.29.03-.54.18-.63.49-.09.33.11.81.49.86 5.12.7 10.23 1.43 15.35 2.13 5.35.74 10.71 1.45 16.07 2.11 3.17.39 6.34.75 9.52 1.09.38.04.7-.35.7-.7 0-.04 0-.08-.01-.11 2.07-.23 8.76-.99 10.44-1.24 2-.3 16.65-2.89 16.65-2.89l.16-3.22s-27.18-3.46-28.7-3.67Z" class="cls-12"/><path d="M81.76 103.84c-.33-3.57-.68-7.14-1.06-10.71-.38-3.57-.75-6.88-1.16-10.32-.41-3.44-.83-6.75-1.28-10.12-.45-3.37-.94-6.89-1.44-10.34s-1.04-7.04-1.58-10.56l-.21-1.35c-.06-.37-.53-.58-.86-.49-.4.11-.55.49-.49.86.55 3.52 1.08 7.04 1.6 10.57.5 3.41.98 6.82 1.44 10.23.46 3.41.88 6.68 1.28 10.03s.8 6.82 1.17 10.24c.37 3.42.73 7.06 1.07 10.6.04.45.09.91.13 1.36.03.38.3.7.7.7.35 0 .74-.32.7-.7Z" class="cls-17"/><path d="M80.24 102.66c.09.97.18 1.95.15 2.93 0 .2-.02.39-.04.59 0 .04 0 .09-.01.13-.01.11.02-.11 0 0-.02.1-.03.2-.06.3-.03.16-.08.32-.13.48-.01.04-.1.24-.03.09l-.12.24c-.03.06-.07.12-.11.18-.03.04-.15.19-.05.07-.11.12-.22.24-.34.34-.13.12.08-.05-.01.01-.03.02-.06.04-.1.07-.07.04-.13.09-.2.13-.08.05-.16.09-.25.13l-.12.06c-.13.06.08-.03-.07.03-.38.14-.76.26-1.15.35-.21.05-.41.09-.63.13-.1.02-.2.03-.3.05l-.19.03h-.07s.05 0 0 .01c-.89.11-1.78.16-2.68.15s-.9 1.39 0 1.4c.84.01 1.69-.03 2.53-.13.94-.11 1.89-.26 2.77-.6.82-.31 1.54-.74 2.04-1.47.46-.67.63-1.5.69-2.29.1-1.13-.02-2.28-.12-3.41-.03-.38-.3-.7-.7-.7-.35 0-.74.32-.7.7Z" class="cls-4"/><path d="M78.13 104.14c-.33-3.57-.68-7.14-1.06-10.71-.36-3.44-.75-6.88-1.16-10.32-.4-3.37-.83-6.75-1.28-10.12-.46-3.45-.94-6.89-1.44-10.34-.5-3.44-1.04-7.04-1.58-10.56l-.21-1.35c-.06-.37-.53-.58-.86-.49-.4.11-.55.49-.49.86.55 3.52 1.08 7.04 1.6 10.57.51 3.53.98 6.82 1.44 10.23.46 3.41.88 6.68 1.28 10.03.41 3.41.8 6.82 1.17 10.24.37 3.42.73 7.06 1.07 10.6.04.45.09.91.13 1.36.03.38.3.7.7.7.35 0 .74-.32.7-.7ZM25.64 108.56c-3.12-.05-6.24-.07-9.36-.14-1.28-.03-2.61-.12-3.73-.8-.1-.06-.2-.13-.31-.2-.17-.12.06.05-.04-.03-.04-.03-.08-.07-.13-.1-.2-.17-.37-.36-.53-.56.02.02.07.1 0-.01-.04-.05-.08-.11-.11-.16-.06-.09-.12-.19-.17-.28-.07-.12-.13-.24-.19-.36l-.06-.12c-.02-.04-.04-.08-.06-.13.03.06.02.05-.01-.03-.49-1.22-.67-2.5-.78-3.76-.03-.38-.3-.7-.7-.7-.35 0-.74.32-.7.7.21 2.3.6 5.04 2.54 6.57 1.15.91 2.59 1.23 4.02 1.34 1.56.11 3.14.08 4.7.1l5.62.08c.9.01.9-1.39 0-1.4Z" class="cls-4"/><path d="M76.61 102.95c.1 1.06.2 2.14.14 3.21 0 .11-.01.23-.03.34 0 0-.03.21-.01.1s-.02.1-.01.1c-.03.2-.08.39-.14.58-.03.08-.06.16-.08.24-.04.1.07-.15 0 .01-.02.03-.03.07-.05.1-.04.08-.09.16-.13.23l-.06.09-.06.09c.05-.06.06-.08.03-.04-.11.13-.23.25-.37.36.12-.1 0 0-.02.01-.06.04-.12.09-.19.12-.14.09-.28.17-.42.24-.45.22-1 .36-1.52.43-1.11.16-2.4.08-3.56.06-5.52-.08-11.04-.16-16.57-.25l-9.35-.14c-.9-.01-.9 1.39 0 1.4 5.7.09 11.4.17 17.1.26l8.6.13c2.34.03 5.16.33 7.04-1.38.75-.69 1.06-1.67 1.17-2.65.14-1.21.01-2.44-.1-3.64-.03-.38-.3-.7-.7-.7-.35 0-.74.32-.7.7Z" class="cls-4"/><path d="m43.73 112.29 4.61-25.7-15.8-.56-7.34 25.96 18.53.3z" class="cls-10"/><path d="M78.54 109.57c1.88-1.38 2.81-3.74 2.34-6.03-.14-.67-1.21-.67-1.35 0-.28 1.29-.69 2.56-1.24 3.76l1.28.54c.95-2.32 1.21-4.86.84-7.34-.06-.37-.53-.58-.86-.49-.4.11-.55.49-.49.86.33 2.23.01 4.52-.84 6.59-.13.32.11.71.41.83s.73.03.88-.29c.6-1.32 1.07-2.68 1.38-4.1h-1.35c.17.81.08 1.66-.24 2.5-.27.72-.84 1.49-1.46 1.94-.3.22-.46.61-.25.96.18.3.65.48.96.25ZM72.37 46.41c-.18-1.03-.9-1.99-1.83-2.46a.732.732 0 0 0-.54-.07c-.16.04-.34.17-.42.32-.17.32-.1.78.25.96.16.08.3.17.44.28l-.14-.11c.19.15.37.33.52.52l-.11-.14c.15.2.27.41.37.63l-.07-.17c.08.2.14.4.18.61.03.16.19.34.32.42.15.09.37.13.54.07s.33-.16.42-.32c.09-.18.11-.34.07-.54Z" class="cls-4"/><path d="M70.58 133.53a.85.85 0 0 0-.31-.09c-6.92-.6-13.8-1.52-20.69-2.37l-5.72-.71c-.05-.01-.1-.02-.15-.02-.08-.01-.16 0-.24.03l-2.17.29h-.02l2.81-17.05 2.84-17.21 1.59-9.65c.05-.28-.03-.57-.25-.74a.743.743 0 0 0-.6-.35l-11.36-.27-3.22-.08c-.15 0-.29.05-.41.14a.27.27 0 0 0-.08.07c-.03.03-.06.06-.08.1-.02.03-.03.06-.05.09-.01.02-.02.05-.03.07 0 .01-.01.02-.01.04-1.7 5.8-3.5 11.58-5.28 17.36-1.75 5.67-3.48 11.34-5.1 17.04-.91 3.21-1.78 6.43-2.59 9.67-.02.07-.02.15-.02.22-.03.08-.05.16-.06.25-.16 1.24-.24 2.48-.26 3.73-.01 1.15.04 2.34.61 3.37.5.89 1.33 1.54 2.22 2.02.96.52 2.01.91 3.04 1.3 1.99.74 4.03 1.31 6.11 1.74 1.56.33 3.15.53 4.75.56 2.12.03 4.24-.2 6.35-.41 3.82-.33 7.65-.67 11.46-1.1 3.29-.37 6.57-.81 9.84-1.29 2.27-.33 4.54-.67 6.81-1.01h.05c.39-.02.69-.31.7-.7l.17-4.38c.01-.35-.3-.68-.64-.7Zm-.91 4.46-5.82.87c-.89.13-1.77.26-2.66.38-.41.06-.81.11-1.22.17-.19.03-.39.05-.58.08-.11.01-.21.03-.32.04-.02 0-.16.02-.09.01s-.1.01-.12.01c-3.23.43-6.47.8-9.72 1.11-2.32.23-4.64.43-6.96.63-1.87.19-3.74.38-5.62.41-.73.01-1.47 0-2.2-.07-.36-.03-.72-.07-1.08-.11-.05 0-.12-.02-.14-.02-.1-.01-.2-.03-.29-.04-.19-.03-.38-.06-.57-.1-1.89-.34-3.79-.82-5.61-1.43-1.03-.34-2.14-.76-3.07-1.17-.83-.36-1.64-.76-2.24-1.39-.32-.34-.56-.76-.69-1.26-.14-.55-.16-1.11-.16-1.68 0-1.35.09-2.7.26-4.04v-.02c.01-.03.02-.05.03-.08 1.45-5.76 3.08-11.48 4.78-17.18 1.71-5.71 3.49-11.4 5.24-17.1.95-3.09 1.88-6.18 2.79-9.27l10.84.26 2.6.06-2.73 16.53-2.84 17.21-1.59 9.65c-.06.37.1.76.49.86.12.03.27.03.4-.01 0 .08 0 .15.02.22.06.17.16.33.32.42l.17.07c.12.03.25.03.37 0l2.04-.28c6.89.85 13.77 1.76 20.67 2.51 1.81.2 3.61.38 5.42.54l-.13 3.19Z" class="cls-10"/><path d="M171.03 147.3v-.15c-.32-2.98-2.19-5.34-4.49-7.14l-.82-1.17s-.59-.09-1.25-.24c-.63-.38-1.29-.73-1.95-1.06-.04-.22.05-.38.05-.38s-.11.1-.29.27c-.32-.11-.68-.02-.86.29a.72.72 0 0 0-.03.64c-.04.04-.07.08-.11.12-.65.75-2.14 2.34-2.98 3.2s-2.69 2.06-3.31 2.83-1.15-.28-1.29-.51.63-2.67.63-2.67.85-1.83 1.52-2.72 1.06-2.63 1.06-2.63-3.04 2.38-3.28 2.81-3.39 1.96-4.23 2.14-.97.23-1.2-.33 1.2-2.53 1.2-2.53-.99.23-1.21.72-2.64 1.77-3.22 2.03c-.25.11-.52.09-.75.02a.727.727 0 0 0-.34-.52c-.35-.2-.74-.06-.96.25-1.82 2.6-2.69 5.78-2.26 8.93.02.15.12.28.24.36.07.06.15.1.26.13 4.15 1.14 8.38 2.08 12.68 2.42 2.11.17 4.24.19 6.35 0 1.07-.1 2.13-.24 3.18-.45.99-.19 2.02-.4 2.97-.76s1.83-.95 2.65-1.59c.68-.54 1.32-1.14 1.87-1.82.01-.02.02-.03.03-.05.11-.12.18-.28.17-.45Z" class="cls-5"/><path d="M140.96 149.23c1.56 1.03 3.37 1.52 5.2 1.77 1.9.25 3.83.27 5.74.11s3.96-.52 5.87-1.09c1.91-.57 3.6-1.43 5.51-1.64 2.13-.24 4.33.08 6.39-.65.36-.13.6-.48.49-.86-.1-.35-.5-.62-.86-.49-1.74.61-3.59.42-5.4.54-.97.06-1.92.23-2.85.51s-1.8.63-2.7.93c-3.6 1.2-7.45 1.67-11.23 1.33-1.9-.17-3.82-.61-5.44-1.68-.32-.21-.78-.06-.96.25-.2.34-.07.75.25.96Z" class="cls-5"/><path d="M156.38 143.89c1.1 1.4 1.84 3.05 2.19 4.8.07.37.52.59.86.49.39-.11.57-.49.49-.86-.4-1.99-1.3-3.83-2.55-5.42-.23-.3-.75-.24-.99 0-.3.3-.23.69 0 .99ZM151.85 140.43c.75.32 1.46.71 2.13 1.17.14.1.38.11.54.07s.34-.17.42-.32c.19-.36.07-.74-.25-.96-.67-.46-1.38-.85-2.13-1.17-.18-.08-.34-.13-.54-.07-.16.04-.34.17-.42.32-.09.16-.13.36-.07.54.05.16.16.35.32.42ZM144.88 149.98c.02-3.32 1.32-6.6 3.56-9.08.26-.28.28-.71 0-.99-.26-.26-.74-.28-.99 0-2.49 2.74-3.95 6.36-3.97 10.07 0 .9 1.4.9 1.4 0Z" class="cls-5"/><path d="M101.83 106.96c.32 2.76.46 5.56.38 8.34a37.966 37.966 0 0 1-.21 3.2c-.02.16-.03.31-.05.47 0 .08-.02.15-.03.23 0 .05-.01.1-.02.15.01-.07 0 .01 0 .04-.17 1.19-.4 2.38-.82 3.52-.13.36-.23.58-.41.94-.17.34-.37.67-.6.97.01-.01.04-.05 0 .01-.03.04-.07.08-.1.12-.07.08-.13.15-.21.23-.06.06-.13.13-.19.18a.55.55 0 0 1-.09.07c-.01 0-.13.1-.06.05-.32.24-.56.36-.91.46-.87.24-.5 1.6.37 1.35 1.48-.42 2.5-1.67 3.14-3.02.55-1.17.88-2.42 1.1-3.7.51-2.94.57-5.96.46-8.94a56.35 56.35 0 0 0-.36-4.68c-.04-.38-.29-.7-.7-.7-.34 0-.75.32-.7.7Z" class="cls-13"/><path d="M113.08 30.76c.9 0 .9-1.4 0-1.4s-.9 1.4 0 1.4ZM125.81 30.14c.9 0 .9-1.4 0-1.4s-.9 1.4 0 1.4Z" class="cls-17"/><path d="M104.53 78.38s-.08-.02-.12-.02c-.03-.01-.07-.03-.11-.03-3.61-.64-7.2-1.37-10.77-2.2-1.02-.24-2.04-.48-3.05-.74-.37-.09-.76.12-.86.49-.02.04-.04.09-.05.14-.41 2.68-.98 5.34-1.61 7.97-.86-.05-1.66.27-2.33.84-.78.66-1.19 1.59-1.41 2.54-.24 1.05-.28 2.14-.36 3.22s-.17 2.19-.25 3.28c-.31 4.22-.6 8.44-.91 12.66l-.36 4.85a.76.76 0 0 0-.06.26c-.05.73-.11 1.47-.12 2.21v.16c-.02 1.37.16 2.74.46 4.07.61 2.68 1.69 5.32 3.37 7.51.91 1.18 1.98 2.28 3.27 3.04.78.46 1.49-.76.71-1.21-1.04-.61-1.9-1.48-2.66-2.41s-1.41-2.04-1.93-3.14c-.57-1.19-.98-2.45-1.3-3.73-.32-1.28-.52-2.67-.51-4.04v-.22c.32-4.11.61-8.22.9-12.33.29-4.1.57-8.19.9-12.29.08-.98.19-2.03.75-2.88.2-.31.51-.59.85-.79.2-.11.31-.15.56-.2 0 0 .06 0 .07-.01h.02c-.05.35.15.7.5.79.37.1.77-.12.86-.49.72-2.9 1.38-5.82 1.85-8.77 3.32.81 6.65 1.55 10 2.19.9.17 1.8.34 2.71.5-.42 2.61-.84 5.22-1.27 7.84-.06.37.1.76.49.86.34.09.8-.11.86-.49.47-2.86.92-5.72 1.39-8.58.06-.37-.1-.76-.49-.86ZM110.08 116.43c-.14-1.33-.28-2.67-.41-4-.04-.38-.3-.7-.7-.7-.22 0-.45.13-.59.31a.679.679 0 0 0-.39-.29c-.35-.1-.79.12-.86.49-.52 2.53-1.35 5.01-2.26 7.43a51.9 51.9 0 0 1-.69 1.73c-.01.02-.06.15-.06.15-.02.06-.05.11-.07.17-.06.13-.11.27-.17.4-.11.24-.21.48-.32.71-.42.9-.9 1.75-1.5 2.55-.96 1.3-2.17 2.46-3.54 3.32-.32.2-.45.63-.25.96s.64.46.96.25c2.26-1.42 4.14-3.53 5.33-5.93 1.13-2.29 2.02-4.73 2.79-7.16.38-1.19.73-2.39 1-3.61.45 4.44.94 8.88 1.48 13.31.16 1.33.32 2.66.49 3.99.05.38.29.7.7.7.34 0 .75-.32.7-.7-.59-4.69-1.14-9.38-1.63-14.08Z" class="cls-11"/><path d="M197.7 131.68c.03-1.63-.99-4.43-1.72-6.76s-2.6-5.02-4.41-8.53-4.52-8.38-6.99-12.73c-2.47-4.36-6.11-12.39-8.09-16.99-1.98-4.6-4.22-7.45-5.99-9.46-1.77-2.02-5.44-4.55-7.4-5.9-1.96-1.35-16.02-9.29-16.02-9.29l-4.81-1.96c-3.66 1.27-6.67 1.24-11.84 1.61-5.17.37-9.54-1.54-9.54-1.54l-3.1.68s-.99.97-1.42 1.38c-.43.41-1.76-.04-2.41.56-.65.6-1.1.46-1.63 1.23-.53.77-.87 2.3-1.12 3.27-.25.97-1.23 2.61-1.67 3.05s-2.95 1.45-3.89 1.7-1.71.75-2.19 1.54-.88 5.21-.88 5.21l-12.29-2.66-1.74 8.46s-1.99.51-2.61.98c-.61.48-.56.73-.9 1.53-.34.79-.67 6.15-.81 7.94s-.73 10.26-.91 12.76c-.18 2.5-.47 6.53-.15 9.59.31 3.06 1.63 4.97 2.86 7.15 1.24 2.18 3.46 3.98 3.46 3.98l8.25.79s1.29-.04 1.45-.53 3.15-2.56 3.67-3.26 2.54-5.25 3.29-6.86c.66-1.42 1.43-5.11 1.61-5.97.26.12.53.24.8.34.11.04.22.04.33.01l.27 1.34 2.06 16.75 16.23 2.29 12.2 1.45-.64 1.55 6.32.81s2.44-2.63 2.97-3.28 5.04-3.55 5.31-3.77-3.85 1.01-4.46 1.24-2.02 1.36-3.07 1.61-1.86.2-2.02-.71c-.16-.91 1-1.17 2.02-2.32 1.03-1.15 2-1.57 3.45-2.52 1.45-.95 7.02-2.41 7.02-2.41l5.2 2.41s.14-11.87.06-14.98c-.08-3.11-.89-13.38-.89-13.38s7.53 10.93 9.68 14.42c2.16 3.49 7.48 13.94 7.48 13.94l-1.56 1.73s1.87.96 2.49 1.07 2.92 3.22 3.59 4.34 1.71 4.72 1.87 6.77.48 3.6.48 3.6 4.57-2.3 6-3.6c1.42-1.31 4.49-3.82 5.76-5.46s.99-2.56 1.02-4.19Z" class="cls-11"/><path d="M117.94 61.85c-.04.02-.05.02 0 0ZM120.54 59.5c.04-.02.05-.02 0 0Z" class="cls-11"/><path d="M198.22 130.76c-.3-1.76-.71-3.53-1.27-5.22-.52-1.6-1.22-3.14-2.21-4.49v-.02c-2.47-5.03-5.19-9.94-7.87-14.86-2.64-4.84-5.26-9.7-7.54-14.73-1.1-2.44-2.06-4.95-3.24-7.35-1.19-2.44-2.64-4.73-4.47-6.74s-3.84-3.62-5.98-5.15c-2.14-1.53-4.5-3.04-6.81-4.47-4.46-2.76-9.05-5.27-13.76-7.58-.51-.25-1.02-.49-1.53-.74-.15-.28-.5-.49-.81-.37-5.39 2.09-11.35 2.7-17.05 1.71-1.42-.25-2.82-.59-4.19-1.03-.23-.3-.57-.34-.91-.2h-.04c-.04.01-.08.03-.12.05l-.24.09c-.13.05-.27.1-.4.14-.24.08-.49.15-.74.22-.61.17-1.2.38-1.79.63-.15.06-.28.27-.32.42-.05.17-.03.39.07.54.23.35.59.4.95.25h.02c.05-.02.09-.04.14-.06l.24-.09c.13-.05.27-.1.4-.14.24-.08.49-.15.74-.22.42-.12.84-.25 1.24-.41 5.64 1.86 11.77 2.14 17.57.88 1.49-.32 2.96-.76 4.39-1.29 4.68 2.25 9.28 4.67 13.74 7.36 2.3 1.39 4.58 2.83 6.81 4.33 2.15 1.45 4.24 3 6.11 4.8 1.9 1.83 3.46 3.9 4.73 6.21 1.27 2.31 2.29 4.86 3.35 7.33 2.15 4.98 4.7 9.79 7.28 14.55 2.38 4.4 4.82 8.77 7.11 13.21-1.74-1.06-3.81-1.56-5.83-1.04-1.69.43-3.29 1.49-4.53 2.68s-2.14 2.63-2.3 4.31c-.03.28-.02.56 0 .83-.3.35-.6.7-.89 1.05-2.2-4.62-4.67-9.11-7.32-13.49-2.87-4.73-5.95-9.32-9.19-13.8-1.8-2.5-3.66-4.96-5.56-7.38-.23-.3-.75-.24-.99 0-.3.3-.23.69 0 .99 1.72 2.19 3.4 4.42 5.03 6.67.36 3.65.62 7.32.79 10.99.17 3.68.24 7.37.21 11.06-.02 2.09-.07 4.18-.14 6.26-.01.38.33.7.7.7.39 0 .69-.32.7-.7.14-3.7.18-7.41.13-11.11-.06-3.69-.21-7.37-.46-11.05-.09-1.3-.2-2.6-.31-3.91.99 1.4 1.96 2.8 2.92 4.22 3.02 4.49 5.96 9.23 8.6 14.05 1.38 2.52 2.69 5.08 3.92 7.68-.32.38-.65.76-.98 1.14-.33.12-.5.51-.43.84.01.16.07.31.2.43.17.16.42.23.64.19 1.84.63 3.38 1.98 4.48 3.59 1.39 2.04 2.06 4.37 2.47 6.81.25 1.46.39 2.94.53 4.42.01.11.05.22.1.32v.05c.09.34.51.63.86.49 3.22-1.24 6.17-3.07 8.7-5.41 1.26-1.17 2.47-2.47 3.43-3.9.51-.76.92-1.61 1.07-2.52.16-1.01.08-2.02-.09-3.02Zm-1.77 4.13c-.73 1.38-1.87 2.59-2.97 3.68-2.23 2.22-4.85 4-7.74 5.27-.09.04-.18.08-.27.11-.48-4.9-1.29-10.22-5.25-13.57a9.913 9.913 0 0 0-2.43-1.52c.86-1.01 1.68-2.04 2.56-3.03.06-.06.1-.14.13-.22v-.02c0-.02.01-.03.02-.05.04-.12.05-.25.02-.37v-.03c0-.05-.01-.11-.01-.16 0-.08 0-.16-.01-.24 0-.15 0-.4.02-.49.03-.27.14-.66.25-.97.1-.26.28-.61.46-.9.19-.31.37-.55.6-.81.98-1.14 2.25-2.08 3.66-2.65s2.75-.55 4.15-.06c1.31.46 2.51 1.33 3.46 2.4.14.16.27.31.39.48v.02c.03.06.07.11.11.15 1.71 2.3 2.43 5.34 3.02 8.13.18.86.36 1.72.36 2.6 0 .8-.17 1.56-.55 2.27Zm-15.91-9.74Z" class="cls-11"/><path d="M105.57 53.91s-.06 0 0 0ZM104.33 53.68c.02 0 .03-.01.04-.02-.01 0-.02 0-.03.01Z" class="cls-17"/><path d="M132.43 46.99c-.25-.25-.74-.29-.99 0-1.54 1.79-3.6 2.93-5.89 3.38-.21-1.13-.86-2.21-1.51-3.14-.43-.62-.89-1.23-1.39-1.79-.5-.56-1.15-1.24-1.94-1.25-.4 0-.76.16-1.12.33-.34.16-.67.34-1 .51-.63.34-1.24.71-1.84 1.11-.33.22-.66.45-.98.68-1.34-1.69-2.23-3.73-2.85-5.8-.73-2.4-1.18-4.9-1.45-7.39-.54-5.1-.19-10.42 1.83-15.17 1.03-2.42 2.46-4.67 4.3-6.53.41-.41.15-.97-.26-1.14.3-.18.36-.64.2-.93-.21-.36-.61-.41-.96-.25-2.91 1.28-5.14 3.82-6.45 6.68-1.55 3.37-1.86 7.11-1.46 10.77.25 2.28.74 4.53 1.35 6.74.02.08.05.14.09.2.25 2.26.65 4.51 1.26 6.69.69 2.49 1.7 4.93 3.3 6.97-.52.42-1.04.86-1.53 1.33-.12-.04-.24-.09-.36-.13-.6-.21-1.23-.44-1.89-.37-.57.06-1.04.34-1.46.72-.16.15-.31.31-.46.47-.09.09-.17.18-.26.26-.04.03-.07.07-.11.1 0 0-.12.09-.11.08-.09.06-.17.11-.27.15-.01 0-.02 0-.03.01-.06.02-.13.05-.19.07-.18.06-.35.11-.53.18-.08.01-.15.04-.22.08-.43.18-.81.44-1.01.85-.56.37-1.19.62-1.88.74-.04 0-.07.02-.1.03h-.05c-.46.08-.9.34-1.2.69-.33.37-.56.82-.68 1.3-.09.36-.13.75-.15 1.14-.77.79-1.33 1.74-1.89 2.67-.45.76-.9 1.52-1.33 2.29a46.44 46.44 0 0 0-2.8 5.87c-.48 1.25-.89 2.52-1.22 3.82-.4.89-.85 1.76-1.28 2.65a59.8 59.8 0 0 0-1.82 4.2c-.14.35.15.77.49.86.4.11.73-.14.86-.49.52-1.33 1.09-2.64 1.71-3.93.44-.9.9-1.8 1.31-2.72a.51.51 0 0 0 .07-.17c1.02-4.05 2.89-7.76 5.01-11.34.56-.95 1.09-1.93 1.86-2.72.24-.11.39-.34.4-.63 0-.21.02-.42.03-.63 0-.05 0-.1.01-.16v-.05c.02-.08.01-.07 0 .03 0-.08.03-.2.05-.28.02-.1.05-.2.08-.3.01-.03.02-.07.04-.1.04-.07.08-.15.12-.22.02-.03.04-.07.07-.1.06-.06.11-.12.17-.18.02-.01.06-.04.07-.05.03-.02.07-.04.1-.06h-.03s.02 0 .04-.01c.06-.03.05-.02.03-.01.03-.01.06-.03.09-.04h.29c.04 0 .1.01.13.02.02 0 .05.01.07.02.13.13.31.21.51.23s.1.01.15.02h-.03.05c.13.02.26.04.39.07.26.05.51.11.76.18.6.16 1.19.34 1.77.55 1.2.42 2.23.85 3.37 1.45.51.27 1.01.56 1.47.91.08.06.18.09.28.1 0 .04.02.08.03.07V57.5l-.03.15c-.11.41-.29.72-.53 1.1-.51.8-1.08 1.56-1.71 2.27h-.05c-.16-.02-.32-.05-.48-.07-.3-.05-.59-.12-.88-.2-.13-.04-.27-.09-.4-.14-.01 0-.13-.06-.15-.07-.07-.03-.14-.07-.21-.11-.07-.04-.13-.08-.2-.12-.02-.01-.13-.09-.14-.1-.1-.08-.19-.17-.28-.26l-.06-.06-.01-.02c-.02-.04-.04-.07-.06-.11l.06-.03c.05-.02.11-.04.16-.05 0 0 .05-.01.09-.02.03 0 .15-.02.17-.02h.28c.09 0 .19 0 .28.01.04 0 .08 0 .12.01h.04c.18.03.36.07.54.13.09.03.17.06.26.09.03.01.05.02.06.02.03.01.06.03.1.04.33.16.77.1.96-.25.16-.31.1-.8-.25-.96-.2-.09-.4-.17-.61-.24.27-.16.42-.46.33-.79-.1-.34-.5-.62-.86-.49-1.42.51-2.95.43-4.27-.24-.34-.17-.76-.09-.96.25-.18.31-.09.79.25.96.38.19.77.35 1.18.47-.02.01-.03.02-.05.04-.04.03-.09.06-.13.09-.1.07-.2.13-.31.19-.1.06-.2.11-.31.15 0 0-.02 0-.02.01h-.01l-.15.06c-.23.08-.46.14-.7.19-.36.07-.6.53-.49.86.13.39.48.56.86.49.17-.03.34-.07.5-.12 0 .71-.02 1.41-.05 2.12-.01.3-.04.6-.08.9 0 .04-.01.07-.02.11-.01.08-.02.15-.04.23-.03.18-.06.36-.1.54-.07.33-.14.66-.24.98-.04.15-.09.29-.14.44l-.06.15c.01-.04-.07.14-.08.18-.32.64-.65 1.15-1.13 1.63-.11.11-.22.21-.34.31-.05.04-.1.09-.16.13-.03.02-.11.08-.12.09-.23.17-.46.35-.69.52-.3.23-.24.75 0 .99.3.3.69.23.99 0-.11.09-.01.01.04-.03.04-.03.08-.06.13-.09.11-.08.21-.16.32-.24.24-.19.48-.37.7-.59.53-.51.98-1.12 1.33-1.76.68-1.25.94-2.74 1.05-4.15.08-1.02.09-2.06.08-3.08v-.03c.03-.02.05-.04.08-.05.07.48.38.93.75 1.26.39.34.83.59 1.3.78.03.06.07.11.12.15.69.55 1.48.89 2.31 1.19.09.03.19.07.28.1-.36.6-.62 1.24-.83 1.92-.28.91-.48 1.86-.84 2.75-.31.75-.87 1.51-1.51 2.02-.79.63-1.62.87-2.61 1.06-.63.12-1.25.26-1.82.57-.54.29-.96.68-1.33 1.15l-.01.01c-.02.02-.04.05-.06.07-.06.08-.09.17-.1.27-.28.89-.46 1.79-.59 2.72-.14 1.03-.29 2.05-.42 3.09-.05.38.36.7.7.7.42 0 .66-.32.7-.7.11-.93.26-1.91.38-2.8.12-.84.3-1.75.57-2.6.25-.31.59-.56.97-.75.45-.22.98-.29 1.47-.39 1-.19 1.96-.52 2.79-1.13s1.49-1.35 1.94-2.26.68-1.83.94-2.77c.26-.94.56-1.94 1.17-2.67.26-.02.52-.09.77-.22.05-.03.1-.06.14-.11.07-.03.14-.08.19-.14.11-.14.22-.28.32-.43h.02c.33-.06.78.07 1.15.07.5-.01.93-.19 1.32-.5.64-.52 1.16-1.26 1.64-1.91.97-1.32 1.74-2.79 2.31-4.33.04 1.4.07 2.8.11 4.2.02.61.03 1.23.06 1.84.02.38.31.7.7.7.37 0 .72-.32.7-.7-.11-2.31-.14-4.63-.19-6.94.28.26.62.4 1.02.45.21.03.42-.1.55-.28a.51.51 0 0 0 .19-.22c.47-1.09 1.03-2.21 1.2-3.4 2.64-.44 5.12-1.78 6.87-3.81.25-.29.28-.71 0-.99Zm-27.97 6.64s.07-.02.08 0h-.08Zm4.01 6.18s-.02-.04 0 0Zm.01.02Zm5 2.4s0 .01-.01.02c-.01 0-.02 0-.03.01s-.02 0-.02.01c-.04.01-.08.02-.11.03h-.13c-.05 0-.1 0-.15-.01-.01 0-.17-.03-.19-.04-.16-.04-.31-.09-.47-.14.79-.9 1.54-1.86 2.14-2.89.58-1 .91-2.28.06-3.23a.679.679 0 0 0-.54-.2c-.89-.66-1.92-1.14-2.93-1.59-1.23-.54-2.49-1.01-3.79-1.37-.14-.04-.29-.08-.44-.11.08-.05.16-.1.24-.16a.66.66 0 0 0 .24-.17c.15-.11.3-.23.44-.36 1.65.7 3.39 1.16 5.08 1.77 1.53.55 3.03 1.27 4.2 2.41-.08.44-.3.88-.51 1.28-.3.56-.62 1.11-.96 1.66-.65 1.06-1.36 2.08-2.12 3.06Zm6.69-7.36c-.13.46-.3.91-.48 1.35-.34.84-.77 1.67-1.26 2.44s-1.03 1.52-1.65 2.2c-.15.16-.3.35-.48.48-.09.07-.21.11-.36.11h-.18c.38-.54.74-1.1 1.09-1.66.73-1.19 1.51-2.37 1.63-3.75a.602.602 0 0 0-.16-.44.674.674 0 0 0-.17-.27c-2.37-2.42-5.71-3.01-8.77-4.15.27-.22.51-.47.76-.73.13-.13.26-.27.41-.38 0 0 .13-.08.16-.1.03-.02.06-.03.1-.05.02 0 .14-.04.16-.04.47-.08.99.17 1.42.32.54.19 1.07.39 1.61.61 1.02.41 2.03.86 3.01 1.35 1.05.52 2.08 1.08 3.09 1.68.04.07.09.13.14.19.07.25.01.52-.07.83Zm.16-2.51c-.47-.27-.94-.53-1.42-.78.09-.05.18-.1.27-.14.15-.06.31-.1.46-.14.29.1.57.19.87.27-.06.26-.12.53-.19.79Zm.18-2.25c-.23-.07-.46-.15-.68-.24.09-.1.19-.2.28-.3.13.18.27.36.41.54Zm.96-1.05s-.02-.02 0 0Zm2.73 2.19v.15c0 .05 0 .1-.01.15 0-.05 0-.04 0 0-.05.31-.13.61-.22.9-.16.5-.37.99-.58 1.48-.01-.03-.03-.06-.03-.07-.03-.09-.05-.17-.07-.26-.04-.16-.06-.32-.09-.48 0-.05-.01-.07-.01-.07v-.07l-.03-.25-.03-.51c0-.36.01-.73.06-1.09.02-.19-.08-.38-.22-.51 0 0-.01-.02-.02-.03-.43-.38-.82-.79-1.19-1.22l-.24-.3a.555.555 0 0 0-.06-.08c-.04-.06-.08-.11-.12-.17-.17-.24-.33-.48-.49-.73a.735.735 0 0 0-.66-.34c-.25-.01-.48.12-.64.34s-.05.06-.07.1l-.01.02c-.06.07-.11.14-.17.21-.11.13-.22.26-.34.38-.24.25-.49.49-.75.72-.06.05-.12.1-.19.15-.03.03-.07.05-.1.08-.14.1-.27.2-.41.29-.24.16-.48.3-.73.44-.71-.33-1.43-.64-2.16-.94a25.68 25.68 0 0 1 5.62-3.79c.21-.1.39-.23.56-.16.2.08.43.34.59.5.44.44.81.93 1.18 1.42.41.55.79 1.13 1.11 1.73.14.25.27.5.37.76.09.24.17.6.18.76s.02.31.01.46Z" class="cls-17"/><path d="M139.17 134.24c-4.74-.51-9.47-1.08-14.19-1.69-4.48-.58-8.95-1.2-13.42-1.83-4.36-.61-8.73-1.24-13.09-1.85a819.6 819.6 0 0 0-13.07-1.74c-4.34-.54-8.69-1.03-13.04-1.45l-1.65-.15h-.03c-3.5-.09-7-.16-10.5-.17-3.44 0-6.88.05-10.31.19-2 .08-4 .19-6 .33-.38.03-.7.3-.7.7 0 .36.32.73.7.7 3.5-.24 7.01-.4 10.52-.47 3.44-.07 6.88-.06 10.31-.01 2 .03 4 .08 6 .13 4.38.4 8.76.88 13.13 1.42 4.3.52 8.59 1.09 12.88 1.69 4.29.59 8.71 1.23 13.07 1.84 4.52.64 9.03 1.27 13.55 1.86 4.52.59 9.35 1.19 14.03 1.71.61.07 1.21.13 1.82.2.38.04.7-.35.7-.7 0-.41-.32-.66-.7-.7Z" class="cls-12"/><path d="m139.73 137.99.2-2.93c.02-.24-.14-.48-.35-.6a.804.804 0 0 0-.42-.16c-3.6-.1-7.2-.13-10.8-.1-3.6.03-7.16.13-10.74.31-2.03.1-4.06.22-6.08.36h-.01c-.24 0-.44.12-.56.29-.08.11-.14.25-.14.4l-.23 6.6c-.05.09-.07.19-.07.31 0 .36.32.73.7.7 3.52-.3 7.02-.83 10.51-1.33 4.18-.61 8.36-1.26 12.53-1.98 1.67-.29 3.34-.59 5-.95.37-.08.59-.51.49-.86 0-.02-.01-.04-.02-.06Z" class="cls-13"/><path d="M76.54 110.11c1.42-.77 2.33-2.21 2.75-3.73.5-1.85.29-3.79.1-5.66-.4-3.93-.84-7.86-1.32-11.78-.48-3.92-1-7.89-1.55-11.83-.55-3.92-1.14-7.82-1.76-11.73s-1.29-7.8-1.99-11.69c-.09-.48-.17-.96-.26-1.44-.07-.37-.52-.59-.86-.49-.39.11-.56.49-.49.86.69 3.82 1.35 7.64 1.97 11.46s1.21 7.66 1.76 11.5c.55 3.81 1.06 7.63 1.54 11.45.48 3.82.93 7.7 1.33 11.56.2 1.88.51 3.8.43 5.69-.06 1.49-.48 3-1.55 4.04-.25.24-.49.41-.81.59-.79.43-.09 1.64.71 1.21Z" class="cls-4"/><path d="M81.94 104.32c-.05-1.28-.18-2.55-.29-3.83-.45-5.37-1.01-10.73-1.66-16.08-.64-5.37-1.37-10.73-2.13-16.08-.76-5.34-1.56-10.67-2.37-16-.32-2.11-.54-4.34-1.57-6.25-.51-.94-1.24-1.75-2.15-2.3-.97-.59-2.09-.87-3.2-1.02-.04 0-.07 0-.11-.01-.79-.14-1.6-.21-2.41-.25-.28-.04-.56-.07-.83-.08-.08 0-.16.01-.23.04h-.13c-2.43-.08-4.86-.13-7.29-.15-4.88-.05-9.76 0-14.64.07-4.88.07-9.72.16-14.58.2s-9.72.03-14.58-.1c-.51-.01-1.03-.03-1.54-.05h-.07c-1.31-.02-2.63-.07-3.94-.07-1.13 0-2.31.12-3.3.69-1.71.52-2.89 1.76-3.22 3.51-.2 1.04-.14 2.09-.01 3.13.13 1.16.29 2.32.44 3.47.29 2.29.59 4.59.89 6.88.58 4.41 1.17 8.82 1.76 13.24s1.18 8.61 1.78 12.91c.6 4.3 1.25 8.99 1.88 13.49.16 1.16.32 2.31.49 3.47.05.38.53.58.86.49.4-.11.54-.49.49-.86-.62-4.47-1.25-8.94-1.87-13.41-.59-4.25-1.18-8.49-1.76-12.74-.58-4.22-1.15-8.45-1.71-12.67-.59-4.49-1.17-8.98-1.74-13.47-.21-1.68-.63-3.93.69-5.27.35-.36.78-.6 1.24-.77.12 0 .24-.03.35-.09l.06-.03c.79-.2 1.66-.22 2.45-.21 2.28.04 4.56.12 6.84.15 2.28.03 4.73.03 7.1.03 4.71-.02 9.42-.09 14.12-.17 4.71-.07 9.42-.14 14.12-.13 2.37 0 4.73.02 7.1.07 2.18.04 4.39.01 6.55.26.93.1 1.89.3 2.75.69.41.18.8.4 1.16.66.18.13.35.27.57.49.09.09.17.19.26.29.01.02.02.03.03.03 0 0 .01.02.02.03l.15.21c.15.24.29.49.4.75 0 .01.04.1.05.12.03.07.05.14.08.21.06.16.11.32.16.48.11.36.19.72.27 1.08.19.89.32 1.79.44 2.68.05.38.53.58.86.49.05-.01.1-.03.14-.05.12.72.23 1.45.36 2.17.07.37.52.59.86.49.16-.04.28-.13.36-.25.04.2.08.4.11.6a160.67 160.67 0 0 1 1.01 6.26c.04.31.09.62.13.93.01.1.03.21.04.31v.04c.03.2.05.4.08.61.14 1.04.26 2.09.37 3.14-.04.17-.05.35-.02.54.34 2.27.66 4.53.97 6.8.08.56.15 1.12.23 1.68l.06.42c0 .07.02.14.03.21.03.21.01.08 0 .03l.12.89c.15 1.14.3 2.27.44 3.41.58 4.55 1.11 9.09 1.6 13.65.27 2.56.53 5.12.78 7.68.05.55.45 1.08 1.05 1.05.23-.01.48-.1.67-.25.06.68.1 1.37.1 2.05 0 .97-.14 2.02-.75 2.81-.52.68-1.34 1.12-2.18 1.24-.38.06-.78.03-1.15-.06-.88-.21-1.25 1.14-.37 1.35 2.03.49 4.32-.49 5.25-2.4.53-1.1.64-2.32.6-3.53Zm-10.5-58.91s.02.02.03.02c0 0 .01.01.03.02.13.1.25.21.36.32l.03.03h-.02c-.3.1-.53.3-.65.56-.17-.4-.38-.79-.64-1.15-.13-.18-.28-.37-.44-.54.39.17.77.36 1.12.61.06.04.12.09.18.13Z" class="cls-4"/><path d="M116.76 31.59c-.18 1.68-.53 3.35-1.03 4.97-.11.38-.28.76-.35 1.14-.1.56.13 1 .58 1.32.67.48 1.49.68 2.27.86.37.08.76-.11.86-.49.1-.35-.12-.78-.49-.86-.65-.14-1.32-.28-1.86-.66-.17-.12-.04-.04-.03-.01.04.17.03.15.06.05.05-.18.12-.36.18-.54.12-.37.23-.73.33-1.1.42-1.53.71-3.09.88-4.67.04-.38-.35-.7-.7-.7-.41 0-.66.32-.7.7Z" class="cls-17"/><path d="M124 42.44c.01-.05.06-.15.06-.2-.04.1-.05.12-.03.07 0-.01.01-.03.02-.04.01-.03.03-.06.05-.09.03-.05.1-.12.11-.17-.01.04-.1.12-.02.03.02-.03.04-.05.07-.07.05-.05.1-.09.15-.14-.04.04-.12.09-.03.03.03-.02.06-.04.09-.05s.06-.03.09-.05c.08-.04.08 0-.04.01.06 0 .13-.05.2-.06.03 0 .06-.01.08-.02.15-.03-.17 0-.02 0h.3c-.18 0-.09-.01-.02 0 .06.01.13.03.19.05.03 0 .07.04.1.04a.752.752 0 0 1-.07-.03l.04.02c.06.03.13.07.19.11.11.08-.02 0-.02-.02 0 .02.07.06.08.07.06.05.11.11.16.17.1.13.34.21.5.21.17 0 .38-.08.5-.21s.21-.31.21-.5c0-.2-.08-.34-.21-.5-.55-.69-1.53-.97-2.37-.77s-1.49.9-1.7 1.71c-.09.36.11.78.49.86s.77-.11.86-.49Z" style="fill:#b7957e"/><path d="M158.58 34.87c.05-1.01-.79-1.48-1.53-1.93-1.34-.8-2.52-1.8-3.56-2.98-1.05-1.2-1.88-2.58-2.55-4.05-.73-1.61-1.29-3.28-1.98-4.9a25.743 25.743 0 0 0-4.94-7.55c-2.07-2.18-4.56-4-7.33-5.19-.36-.16-.73-.3-1.1-.44-1.46-.59-2.97-1.07-4.52-1.37-2.06-.4-4.15-.49-6.23-.27-1.19.13-2.36.33-3.53.58-.71-.11-1.42-.18-2.14-.19-.97-.02-1.86.18-2.6.84-.29.26-.55.6-.64.99-.09.37-.04.72.07 1.06.01.08.04.16.08.25.02.03.04.06.05.09v.01s.01.01.01.02c1.32 2.36 2.87 4.58 4.61 6.65 1.75 2.08 3.69 3.99 5.79 5.72 2.13 1.74 4.4 3.31 6.8 4.65 2.4 1.34 4.93 2.46 7.53 3.34 1.4.47 2.82.87 4.25 1.2-.11.66-.34 1.95-.56 2.53-.31.79-.75 1.27-1.34 1.51-.59.24-1.66.51-1.66.51v16.27h-.14c-.9 0-.9 1.41 0 1.4 1.57 0 3.19-.29 4.69-.74 1.52-.46 2.95-1.23 4.1-2.32.67-.63 1.23-1.4 1.62-2.24 0-.02.01-.04.02-.06.04-.09.07-.19.07-.3.09-2.68-.14-5.37-.66-8 2.26-.3 4.45-1.24 6.04-2.89.58-.6 1.2-1.33 1.25-2.2Z" style="fill:#6a4a6b"/><path d="M145.19 30.28c-.4 0-.67.32-.7.7-.05.69-.16 1.38-.32 2.06-.14.57-.35 1.13-.71 1.5-.32.33-.74.52-1.2.41-.61-.15-1.13-.49-1.65-.88-.3-.23-.79-.05-.96.25-.21.36-.05.73.25.96.3.23.63.45.97.63.02 3.58-.06 7.17-.1 10.75-.04 3.41-.07 6.82-.11 10.23l-.06 4.99c-.01.9 1.39.9 1.4 0 .05-3.15.08-6.3.11-9.45.03-3.2.07-6.4.11-9.61.03-2.16.06-4.31.06-6.47a2.7 2.7 0 0 0 2.07-.72c.59-.54.93-1.3 1.14-2.05.23-.84.35-1.73.41-2.6.03-.38-.34-.7-.7-.7ZM163.2 137.41h-.01.01zM185.69 141.92c-.11-.4-.49-.55-.86-.49l-5.3.87a11.4 11.4 0 0 0 1.66-2.13c.47-.77-.74-1.48-1.21-.71a9.493 9.493 0 0 1-1.86 2.26c-.11.1-.22.2-.34.29s-.15.12-.31.24c-.44.31-.9.59-1.39.82-.06.03-.11.05-.17.08-.01 0-.1.04-.11.05-.1.04-.19.08-.29.11-.24.09-.48.17-.73.23a7.4 7.4 0 0 1-.64.15c-.1.02-.21.03-.31.05-.07 0-.13.01-.2.02-.36.03-.73.04-1.09.01-1.18-.1-2.47-.63-3.39-1.41-.62-.52-1.06-1.08-1.47-1.76-.47-.77-.89-1.55-1.46-2.26-.11-.14-.29-.2-.47-.2a.684.684 0 0 0-.29-.06c-.14 0-.27.01-.41 0-.06 0-.13 0-.19-.01h-.07c-.27-.05-.53-.11-.78-.2-.02 0-.03-.01-.05-.02a2.45 2.45 0 0 0-.17-.08c-.12-.06-.24-.13-.36-.21-.06-.04-.11-.07-.16-.11-.02-.01-.03-.02-.05-.04.03.02.05.04 0 0 0 0-.02-.01-.03-.02 0 0 .02.01.02.02l-.05-.05c.07-.08.14-.17.21-.25.24-.29.29-.71 0-.99-.25-.25-.75-.29-.99 0-2.03 2.43-4.18 4.75-6.49 6.92-.27.26-.52.51-.84.69-.09.05-.09.06-.17.08-.04.01-.08.02-.11.03h-.18c-.07-.02-.2-.07-.13-.03-.03-.01-.06-.03-.09-.05v-.01s-.01-.02-.01-.03c-.02-.12.01-.28.05-.44.11-.4.24-.79.37-1.17.53-1.47 1.29-2.9 2.21-4.21 1-1.4 2.29-2.74 3.67-3.77.06-.02.13-.04.19-.05.03 0 .06-.01.09-.02.02 0 .12-.01.14-.01.13 0 .25 0 .37.01.02 0 .05 0 .07.01.07.01.13.03.2.05.06.02.12.04.17.06.02 0 .05.02.05.02.12.06.23.12.34.19.01 0 .03.02.04.03.05.04.1.09.15.13.05.05.09.09.13.14.01.02.03.04.04.06.21.3.63.47.96.25a.8.8 0 0 0 .34-.5c1.06.29 2.11.67 3.17.96.15.04.28.03.4 0h.1c.12-.05.22-.11.31-.19s.01-.01.02-.02c.15-.11.32-.21.49-.29.02 0 .04-.02.06-.03s.06-.04.09-.06c.08-.05.14-.11.18-.2.05-.08.08-.17.08-.26.02-.09.02-.19-.01-.28l-.07-.17a.667.667 0 0 0-.25-.25l-.17-.07a.772.772 0 0 0-.37 0c-.19.08-.38.16-.55.27-.06.04-.13.08-.19.13-1.86-.53-3.65-1.22-5.59-1.38-.49-.08-1-.03-1.48.15-.06.01-.11.03-.16.07-.1.05-.19.11-.26.2-.22.17-.44.34-.65.52a.725.725 0 0 0-.74.16 50.98 50.98 0 0 1-5.55 4.5c-.98.69-1.98 1.34-3.01 1.94-.19.11-.44.27-.6.33-.06.03-.13.04-.2.06-.02 0-.03 0-.04.01h-.05v-.07c0-.04.03-.14.02-.13.01-.04.06-.19.06-.2.06-.14.13-.27.21-.4a25.92 25.92 0 0 1 3.89-5.4c.76-.81 1.56-1.62 2.44-2.3s1.77-1.05 2.88-1.02c.65.02 1.29.14 1.93.26.7.14 1.4.29 2.09.45 1.35.32 2.69.7 4.01 1.12.21.1.46.08.65-.04.11-.03.21-.09.3-.17l.63-.55c.07-.06.12-.14.14-.23.04-.08.06-.17.06-.27s-.02-.19-.06-.27a.678.678 0 0 0-.14-.23l-.14-.11a.749.749 0 0 0-.36-.1l-.19.03c-.12.03-.22.09-.31.18l-.32.28c-1.36-.82-2.82-1.48-4.32-2.02-1.4-.51-2.81-.95-4.28-1.2-.72-.12-1.46-.24-2.2-.27h-.18c-.02 0-.03 0-.05.01-.03 0-.06.02-.09.03-.01 0-.03.01-.04.02-.02 0-.04.02-.06.03-.49.31-.98.63-1.46.95l-4.92 1.59c-.2-.02-.41.05-.56.19a5.52 5.52 0 0 1-2.2 1.32c-.43.14-.86.22-1.24.25-.1 0-.2.01-.3.01l1.5-1.66.85-.94c.12-.14.24-.27.38-.4.03-.03.06-.05.09-.08h.01c.03-.02.07-.04.1-.06.01 0 .02-.01.03-.02h.02c.14-.05.26-.14.36-.25a41.61 41.61 0 0 1 8.2-3.3c.01 0 .02.01.03.01 3.46 1.42 6.8 3.15 9.96 5.14.2.12.45.12.65.03 1.95.32 3.89.68 5.82 1.08.77.16 1.55.34 2.3.57.4.12.75.25 1.1.39.11.09.24.15.38.17.19.09.38.19.57.3.69.4 1.32.93 1.75 1.58.21.31.62.45.96.25.31-.18.46-.64.25-.96-.61-.91-1.42-1.6-2.32-2.12.51-.68.95-1.42 1.34-2.18.17-.33.09-.78-.25-.96-.32-.17-.78-.1-.96.25-.26.5-.53.98-.83 1.45-.15.23-.3.45-.46.67 0 0-.01.02-.02.03l-.02.03-.01.01v.01c-.02.03-.04.05-.06.08-1.86-.75-3.98-1.06-5.85-1.41-1.23-.23-2.46-.45-3.69-.65a.7.7 0 0 0-.25 0 67.516 67.516 0 0 0-9.99-5.09c-.02 0-.05-.01-.07-.02a.628.628 0 0 0-.51-.05c-3.08.86-6.07 2.06-8.88 3.57-.09.05-.16.11-.21.19-.28.16-.52.36-.74.6-.31.34-.6.67-.9 1l-1.84 2.04c-.06.07-.11.15-.15.24-.2.26-.25.63-.16.95.1.38.4.67.78.82.62.24 1.43.09 2.06-.04 1.19-.25 2.3-.83 3.2-1.63h.04l.88-.28c-1.94 1.52-3.74 3.22-5.22 5.24-.74 1.01-1.38 2.1-1.88 3.25-.16.22-.2.54-.05.77.96 1.45 2.9.26 3.88-.52.22-.18.43-.36.64-.55-.09.27-.15.56-.12.85.07.73.66 1.29 1.4 1.28.66-.01 1.24-.39 1.79-.72s1.09-.67 1.63-1.02c.91-.6 1.81-1.23 2.68-1.89a18.873 18.873 0 0 0-1.91 4.35c-.16.54-.26 1.12.01 1.64.49.94 1.69 1.03 2.55.61.72-.36 1.31-1.04 1.89-1.59s1.1-1.07 1.63-1.62c1.06-1.09 2.09-2.21 3.08-3.36.86.71 1.98 1.11 3.1 1.07.43.57.75 1.21 1.12 1.82.4.66.87 1.3 1.44 1.83 1.09 1.01 2.49 1.72 3.96 1.95 1.82.29 3.7-.14 5.32-1.01.06 0 .11 0 .17-.01l7.87-1.29c.37-.06.58-.53.49-.86Zm-28.8-12.45s.06 0 0 0Zm-10.42 9.56c-.44.39-.78.67-1.32.95-.19.1-.31.16-.49.21 1.83-3.66 4.99-6.49 8.31-8.8.55-.38 1.1-.75 1.66-1.12.05-.03.1-.06.14-.09.41-.27.82-.53 1.23-.8.21.01.42.03.63.06.07 0 .14.02.22.03h.04c.04 0 .07.01.11.02.17.02.33.05.5.08.27.04.54.09.82.15-1.18-.01-2.24.3-3.21.97-1.01.69-1.92 1.57-2.77 2.46a28.245 28.245 0 0 0-3.14 3.92c-1.05.45-1.88 1.21-2.73 1.97Zm2.39 1.62v.02c0-.01-.01-.02-.01-.03Zm.01.03v-.01c0 .01 0 .02.01.03 0 0 0-.01-.01-.02Z" class="cls-17"/><path d="M176.6 131.36s-.02.03-.04.05.02-.03.03-.05Z" class="cls-17"/><g id="Layer_7"><path d="M70.44 133.66s-6.38-.69-9.62-1.07c-.64-.07-1.69-.2-2.96-.37-.25 1.49-.12 3.12.12 4.39.23 1.24.68 2.79 1.4 4.14 4.15-.66 11.32-1.89 11.32-1.89l.39-4.52-.65-.68ZM39.12 94.34c3.31 6.6 3.74 14.29.74 21.07-1.4 3.18-4 7.12-1.97 10.6.84 1.44 2.34 1.91 3.87 1.26.49-3.2 2.2-14.06 2.72-17.15.33-1.98 1.56-9.52 2.52-15.42-1.17-.7-2.2-1.62-3.07-2.73-1.45-1.84-2.3-4-2.76-6.26l-8.37-.15s-.08.21-.23.65c2.73 2.21 4.97 4.97 6.55 8.12ZM28.86 108.36c.49-2.16.52-5.56-.62-8.03-1.63 5.28-3.35 10.82-3.93 12.8-.14.46-.29.98-.45 1.55.62-.24 1.22-.55 1.77-.97 1.71-1.31 2.76-3.27 3.24-5.34ZM47.56 91.23c.35-2.15.6-3.68.66-3.99.21-1.17-.09-1.36-1.14-1.41-.26-.01-1.25-.03-2.6-.06.55 2.08 1.56 4.09 3.09 5.46Z" class="cls-1"/><path d="M54.71 131.83c-5.02-.64-11-1.43-11-1.43s-.6.16-1.52.26c-.21.02-.37 0-.49-.06-1.66.35-3.4.08-4.81-.99-3.39-2.56-3.41-7.28-2.01-10.9.81-2.11 1.98-4.08 2.73-6.22.61-1.74.98-3.55 1.07-5.39.34-6.52-2.31-13.19-7.14-17.59-.33 1.13-1.15 3.81-2.14 7.01 2.79 3 3.33 8.06 2.67 11.95-.48 2.81-1.9 5.57-4.11 7.41-1.56 1.29-3.29 1.89-5.11 2.33-.63 2.28-1.29 4.75-1.85 6.9 1.78.3 3.47 1.11 4.83 2.35 1.2 1.1 1.9 2.49 2.51 3.97.59 1.41 1.19 2.72 2.49 3.62 2.87 1.99 5.93.38 8.99-.1 4.91-.78 9.69 2.31 11.19 6.85 2.01-.21 3.79-.41 5.07-.57-.56-1.22-.95-2.51-1.19-3.77-.32-1.67-.47-3.71-.19-5.64Z" class="cls-1"/><path d="M43.26 138.22c-1.73-.5-3.4-.06-5.09.37-1.84.47-3.69.86-5.59.55-1.7-.28-3.3-1.11-4.56-2.27-1.47-1.36-2.07-3.12-2.88-4.89-.94-2.07-2.78-3.49-4.9-3.76-.04.16-.07.31-.11.46-.89 3.83-1.03 5.85-.38 8.22.64 2.37 3.41 3.17 3.41 3.17.5.19 8.02 2.61 10.64 2.96 1.5.2 8.02-.32 13.93-.9-.84-1.85-2.48-3.34-4.46-3.92Z" class="cls-1"/><path d="M32.08 108.48c.67-3.89.12-8.95-2.67-11.95-.37 1.21-.77 2.5-1.17 3.8 1.14 2.47 1.11 5.88.62 8.03-.47 2.07-1.53 4.03-3.24 5.34-.55.42-1.14.73-1.77.97-.3 1.06-.64 2.27-1 3.55 1.82-.44 3.56-1.04 5.11-2.33 2.21-1.84 3.63-4.6 4.11-7.41Z" class="cls-15"/><path d="M38.69 107.11c-.1 1.84-.47 3.65-1.07 5.39-.75 2.14-1.91 4.11-2.73 6.22-1.4 3.62-1.38 8.34 2.01 10.9 1.41 1.07 3.15 1.33 4.81.99-.39-.23-.3-1.03-.02-2.82.02-.14.05-.31.08-.51-1.53.65-3.03.18-3.87-1.26-2.03-3.48.57-7.42 1.97-10.6 2.99-6.79 2.56-14.47-.74-21.07a24.603 24.603 0 0 0-6.55-8.12c-.2.59-.52 1.59-.94 3.06-.02.07-.04.15-.07.24 4.83 4.4 7.48 11.07 7.14 17.59ZM39.83 134.96c-3.06.48-6.12 2.09-8.99.1-1.29-.9-1.9-2.21-2.49-3.62-.61-1.48-1.31-2.88-2.51-3.97a9.539 9.539 0 0 0-4.83-2.35c-.3 1.15-.56 2.22-.77 3.1 2.12.27 3.96 1.69 4.9 3.76.8 1.77 1.41 3.53 2.88 4.89 1.26 1.17 2.86 2 4.56 2.27 1.91.31 3.75-.08 5.59-.55 1.69-.43 3.36-.87 5.09-.37 1.98.57 3.63 2.06 4.46 3.92 1.13-.11 2.24-.22 3.29-.33-1.5-4.54-6.28-7.62-11.19-6.85ZM57.86 132.23c-.95-.12-2.03-.26-3.15-.4-.28 1.93-.12 3.97.19 5.64.24 1.26.63 2.55 1.19 3.77.65-.08 1.17-.15 1.53-.2.47-.07 1.07-.16 1.75-.27-.72-1.35-1.16-2.9-1.4-4.14-.24-1.27-.37-2.9-.12-4.39ZM47 94.7c.2-1.25.4-2.43.57-3.46-1.53-1.37-2.53-3.38-3.09-5.46-.97-.02-2.11-.04-3.31-.06.45 2.26 1.31 4.42 2.76 6.26.87 1.1 1.91 2.02 3.07 2.73Z" class="cls-15"/><path d="M116.67 94.96s.01-.04.01-.06c-.05.01-.1.02-.14.03.04 0 .09.02.13.03ZM134.69 101.9zM191.67 122.52l-.04.2.14-.12-.09-.09ZM98.58 107.84s0 .08-.01.12c.08-.04.16-.07.25-.11h-.23Z" class="cls-1"/><path d="M195.47 122.52c-1.56 1.32-3.12 2.64-4.68 3.95-.68.57-2.12.28-1.99-.83.31-2.55.8-5.06 1.49-7.54.34-1.22.68-2.42.97-3.64-.87-1.57-1.76-3.16-2.64-4.7a92.634 92.634 0 0 1-6.03-4.27c-.8-.53-1.59-1.07-2.39-1.6-.88-.6-.65-2.25.59-2.17 1.22.07 2.43.19 3.65.32-3.63-7.46-8.2-18.31-10.92-22.35-3.37-5-10.42-9.06-13.79-11.43-1.24-.87-3.89-2.36-6.72-3.9.99 2.01 2.02 4 3.09 5.98.66 1.21-.85 2.26-1.83 1.41-3.28-2.83-6.93-5.18-10.83-7.06-.47.4-.95.79-1.45 1.15-.67.5-1.1 1.15-1.61 1.81-1.23 1.59-2.74 2.9-4.3 4.16-.69.56-1.65.37-1.95-.51-.37-1.11.1-2.15.44-3.21.33-1.04.63-2.08.9-3.13.34-1.32.63-2.65.87-3.99-1.01.26-1.85.46-1.97.43-.28-.07-6.62.25-10.74-.72-.9-.21.79 2.91 0 2.84-4.02-.32-2.3-3.69-2.3-3.69l-4.28 3.2s-.05 0-.15.02c.57.18 1.14.36 1.71.53.89.28 1.23 1.68.28 2.13-1.71.81-3.46 1.49-5.27 2.03-.79.24-1.57.48-2.34.74-.53 1.41-1.05 2.74-1.51 3.14-.03.03-.07.05-.11.08-.02 1.69-.1 3.38-.26 5.07-.01.69-.03 1.37-.05 2.05-.04 1.12-1.6 1.64-2.17.59-.99-1.8-1.97-3.66-2.86-5.55-.61 1.36-.74 5.06-1.35 6.81-.61 1.78-.74 1.72-1.29 1.63-.55-.09 0-4.49 0-4.49l-6.94-1.47s-1.67 2.69-2.07 3.66-1.86 1.3-2.11-.33l2.11-3.63-3.05-.83-1.42 8.48c-4.81 1.4-3.57 6.1-4.32 10.98-.23 1.5-.49 3.49-.73 5.73.85-2.32 1.71-4.63 2.56-6.94.42-1.14 1.81-1.06 2.25 0 .84 2.01 1.5 4.08 2.03 6.19.43 1.75.86 3.49 1.5 5.17 3.17.06 6.33.32 9.47.77.82.06 1.63.12 2.45.19 1.05.09 1.72 1.62.59 2.17-2.03.99-4.12 1.84-6.18 2.74-1.67.73-3.35 1.43-5.07 2.01 1.73 3.91 3.62 7.74 5.67 11.5.66 1.21-.85 2.26-1.83 1.41-3.28-2.83-6.93-5.18-10.83-7.06-.47.4-.95.79-1.45 1.15-.44.33-.78.72-1.1 1.14 1.49 4.32 4.51 6.41 4.51 6.41l12.59 1.73c4.74-2.31 7.87-15.77 7.87-15.77l2.27 17.26 4.5.56c-.73-.66-.47-2.15.71-2.07 2.62.16 5.22.5 7.83.77 2.14.22 4.27.49 6.38.91.5-5.01.79-10.04.88-15.07.02-1.37 1.86-1.52 2.29-.31 1.68 4.69 3.98 9.12 6.81 13.21 1.98-.43 3.96-.89 5.94-1.36 1.54-.56 3.14-.92 4.75-1.21 1-.44 2.02-.85 2.75-1.03 1.66-.4 3.28-.68 4.1-.6s5.2 2.98 5.2 2.98-.54-16.44-.74-23.11c-.68-.38-1.37-.74-2.07-1.08-.33.28-.67.54-1.01.81-.59.46-.96.99-1.42 1.57-1.01 1.27-2.23 2.34-3.48 3.36-.67.55-1.68.39-1.95-.51-.28-.93.03-1.71.31-2.6.28-.88.53-1.76.77-2.66.39-1.52.7-3.06.95-4.61-2.1-1.54-3.89-3.41-5.6-5.36-.45-.43-.91-.86-1.36-1.3-.48-.47-.42-1.05-.11-1.47.16-.39.52-.68 1.04-.68 2.97-.04 5.93-.08 8.9-.11.9-2.44 1.8-4.89 2.71-7.34.42-1.14 1.81-1.06 2.25 0 1.24 2.97 1.7 6.19 2.83 9.18 2.56.06 5.1.27 7.63.62.67.04 1.34.1 2.01.15 1.05.09 1.72 1.63.59 2.17-2.91 1.41-5.96 2.82-9.06 3.85 1.4 3.13 2.91 6.19 4.55 9.2.66 1.21-.85 2.26-1.83 1.41-.89-.77-1.82-1.48-2.77-2.16.2.34.36.66.47.94.86 2.07 11.4 19.73 11.4 19.73s-1.59 1.49-1.59 1.95 2.84 1.35 2.84 1.35 2.87 2.65 3.73 5.27c.86 2.63.75 5.08.75 5.08s1.15.39 1.56 0c.41-.39 2.71-.11 3.07.39.37.5.37 1.06-.62 1.36-.98.31-4.04.7-4.04.7l1.59 2.14s1.79-.69 3.89-1.86c2.1-1.17 6.39-4.77 8.49-7.69 2.1-2.93.91-6.57-.46-10.41-.29-.82-.75-1.87-1.32-3.06ZM140.14 84.7c-2.11 3.46-5.02 6.31-7.23 9.68 1.83 2.62 3.49 5.35 4.98 8.18.44.7.87 1.41 1.3 2.12.63 1.03-.6 2.13-1.6 1.6-1.93-1.03-3.8-2.19-5.69-3.3-1.59-.93-3.14-1.88-4.63-2.96-2.17 3.74-4.19 7.56-6.05 11.46-.49 1.03-2.27.54-2.17-.59.37-4.38.17-8.77-.63-13.09-.59-.14-1.17-.3-1.76-.48-.89-.27-1.74-.21-2.66-.26-1.97-.1-3.9-.56-5.79-1.06-.69-.19-1.12-1.09-.7-1.71.59-.87 1.39-1.17 2.36-1.48 1.09-.35 2.17-.73 3.25-1.14 1.96-.75 3.86-1.62 5.72-2.58-.01-3.25.59-6.46 1.32-9.63.1-.75.2-1.5.31-2.24.09-.6.84-.95 1.38-.83.37.03.75.22.98.54 2.17 2.91 4.34 5.83 6.51 8.74 3.16-.89 6.32-1.78 9.48-2.66.97-.27 1.85.84 1.32 1.71Z" class="cls-1"/><path d="M84.59 114.14c-.01.06-.03.12-.05.19.05-.06.08-.09.08-.1 0-.03-.01-.06-.03-.09ZM140.08 64.39s-.01.03-.02.04c.01 0 .02-.02.03-.03 0 0 0-.01-.01-.01Z" class="cls-1"/><path d="M138.82 82.99c-3.16.89-6.32 1.78-9.48 2.66-2.17-2.91-4.34-5.83-6.51-8.74-.24-.32-.61-.51-.98-.54-.54-.12-1.29.23-1.38.83-.11.75-.21 1.5-.31 2.24-.73 3.17-1.33 6.38-1.32 9.63a57.5 57.5 0 0 1-5.72 2.58c-1.07.41-2.15.79-3.25 1.14-.96.31-1.77.61-2.36 1.48-.42.63 0 1.53.7 1.71 1.9.51 3.82.96 5.79 1.06.92.05 1.77-.02 2.66.26.59.18 1.17.34 1.76.48.8 4.32 1 8.71.63 13.09-.09 1.13 1.68 1.62 2.17.59 1.86-3.9 3.87-7.72 6.05-11.46 1.49 1.07 3.05 2.02 4.63 2.96 1.89 1.11 3.76 2.27 5.69 3.3 1 .53 2.22-.56 1.6-1.6-.43-.71-.86-1.42-1.3-2.12a76.576 76.576 0 0 0-4.98-8.18c2.2-3.37 5.12-6.22 7.23-9.68.53-.87-.35-1.99-1.32-1.71Zm-22.16 11.98-.13-.03c.05-.01.1-.02.14-.03 0 .02-.01.04-.01.06ZM134.57 68.1c-.33 1.05-.81 2.1-.44 3.21.3.89 1.26 1.08 1.95.51 1.55-1.26 3.06-2.58 4.3-4.16.51-.66.93-1.31 1.61-1.81.5-.37.98-.75 1.45-1.15 3.9 1.87 7.55 4.23 10.83 7.06.99.85 2.49-.21 1.83-1.41-1.07-1.97-2.1-3.96-3.09-5.98-4.85-2.62-10.28-5.37-10.28-5.37s-.45 1.05-.26 1.87c.19.82-.72 2.1-1.78 1.87-1.06-.23-.22-2.9-.22-2.9s-2.34.68-4.13 1.14a67.46 67.46 0 0 1-.87 3.99c-.27 1.05-.57 2.1-.9 3.13Zm5.51-3.71s0 .01.01.01c-.01 0-.02.02-.03.03 0-.01.01-.03.02-.04ZM170.29 107.37c-1.64-3.01-3.15-6.08-4.55-9.2 3.09-1.03 6.14-2.43 9.06-3.85 1.13-.55.46-2.09-.59-2.17-.67-.06-1.34-.11-2.01-.15-2.53-.35-5.08-.57-7.63-.62-1.13-2.99-1.59-6.21-2.83-9.18-.44-1.06-1.83-1.14-2.25 0-.9 2.44-1.8 4.89-2.71 7.34-2.97.04-5.93.08-8.9.11-.52 0-.88.3-1.04.68-.31.41-.37 1 .11 1.47.45.44.9.87 1.36 1.3 1.71 1.96 3.5 3.83 5.6 5.36-.25 1.55-.56 3.09-.95 4.61-.23.89-.49 1.78-.77 2.66-.28.89-.59 1.67-.31 2.6.27.9 1.28 1.06 1.95.51 1.26-1.02 2.48-2.08 3.48-3.36.46-.58.83-1.11 1.42-1.57.34-.27.68-.53 1.01-.81.7.34 1.39.7 2.07 1.08-.05-1.64-.08-2.7-.07-2.77.03-.3 2.68 2.99 3.94 5.21.95.68 1.88 1.4 2.77 2.16.99.85 2.49-.21 1.83-1.41ZM188.8 125.65c-.13 1.11 1.31 1.4 1.99.83 1.56-1.32 3.12-2.64 4.68-3.95-1.09-2.29-2.6-5.13-4.22-8.05-.29 1.22-.63 2.42-.97 3.64-.69 2.48-1.18 4.98-1.49 7.54Zm2.87-3.13.09.09-.14.12.04-.2ZM180.2 103.9c.79.54 1.59 1.08 2.39 1.6 1.95 1.5 3.96 2.93 6.03 4.27-.61-1.07-1.21-2.12-1.78-3.11-.72-1.25-1.53-2.84-2.4-4.62-1.21-.13-2.43-.24-3.65-.32-1.24-.08-1.47 1.57-.59 2.17ZM139.82 128.51a57.006 57.006 0 0 1-6.81-13.21c-.43-1.21-2.27-1.06-2.29.31-.09 5.03-.38 10.06-.88 15.07-2.11-.42-4.24-.68-6.38-.91-2.61-.27-5.22-.61-7.83-.77-1.18-.07-1.44 1.41-.71 2.07l23.87 3 3.39-.19s4.3-6.29 5.24-6.59c.53-.17 1.79-.78 3.09-1.35-1.61.29-3.21.66-4.75 1.21-1.97.47-3.96.92-5.94 1.36ZM84.3 119.74c.5-.37.98-.75 1.45-1.15 3.9 1.87 7.55 4.23 10.83 7.06.99.85 2.49-.21 1.83-1.41-2.05-3.76-3.94-7.59-5.67-11.5 1.73-.58 3.4-1.28 5.07-2.01 2.06-.9 4.16-1.76 6.18-2.74 1.13-.55.46-2.09-.59-2.17-.82-.07-1.63-.13-2.45-.19-3.14-.44-6.3-.7-9.47-.77-.63-1.68-1.06-3.42-1.5-5.17-.52-2.12-1.19-4.18-2.03-6.19-.44-1.06-1.83-1.14-2.25 0-.85 2.32-1.71 4.63-2.56 6.94-.54 5.07-.99 11.45-.74 16.36.08 1.54.37 2.9.79 4.09.32-.42.66-.81 1.1-1.14Zm14.28-11.9h.23c-.08.04-.16.07-.25.11 0-.04.01-.08.01-.12Zm-13.99 6.3s.03.07.03.09c0 0-.03.04-.08.1.02-.06.04-.12.05-.19ZM109.34 78.84c.02-.69.04-1.37.05-2.05.15-1.69.24-3.37.26-5.07-1.1.74-4.69.83-5.31 2.08a.3.3 0 0 1-.04.08c.89 1.89 1.87 3.75 2.86 5.55.57 1.05 2.14.53 2.17-.59ZM119.4 65.42c.96-.46.61-1.85-.28-2.13-.57-.18-1.14-.36-1.71-.53-.64.11-3.2.61-4.02 1.71-.48.65-1.04 2.23-1.6 3.73.77-.26 1.55-.5 2.34-.74 1.81-.55 3.56-1.22 5.27-2.03Z" class="cls-3"/></g><path d="M150.29 87.82c.04-.33-.16-.71-.5-.78a439.496 439.496 0 0 0-19.11-3.01c-.23-.03-.45 0-.62.13-.17.07-.31.21-.37.44-1.16 4.26-2.02 8.6-2.61 12.98-.05.34.28.63.59.69.07.02.14.04.21.05 5.07.63 10.13 1.37 15.18 2.23 1.45.25 2.89.5 4.34.77.37.07.76-.1.86-.49.02-.08.03-.17.02-.25.53-3.22 1.05-6.44 1.58-9.66l.44-2.73c.02-.13.01-.25-.02-.37Zm-6.83.2-7.82-1.13v-.74c2.67.39 5.33.81 7.99 1.26l-.17.62Z" class="cls-6"/><path d="M144.33 84.52a.63.63 0 0 0-.41-.32c-2.4-.6-4.82-1.16-7.3-1.23-.1 0-.2.02-.3.07-.27.04-.48.23-.58.5-.37 1.03-.66 2.09-.86 3.16-.07.36.1.77.49.86.06.01.12.02.18.01l7.78 1.16c.37.06.76-.09.86-.49.02-.07.02-.16.02-.24.03-.17.03-.34.04-.51.01-.17.03-.34.04-.52l.17-2.04a.571.571 0 0 0-.14-.41Z" class="cls-5"/><path id="Layer_9" d="M45.79 69.2c-.04-.11-.63-1.23-1.72-2.62s-.05-.07-.05-.12c-.11-1.44-.31-2.4-.31-2.4a.382.382 0 0 0-.33-.31l-1.15-.15h-.03a.26.26 0 0 0-.25.24v.4s-.01.01-.02.01c-.68-.63-1.45-1.24-2.31-1.78-.16-.11-.36-.18-.57-.18-.21 0-.41.06-.57.17-4 2.41-6.24 6.37-6.33 6.59-.03.05-.04.11-.04.17 0 .19.12.34.29.39l1.14.23c.15.04.27.18.28.34 0 .2.17 4.72.43 5.9.04.17.2.3.38.3.67 0 1.28-.01 1.94-.01h.06c.07 0 .13-.06.13-.13-.02-.4-.07-1.3-.1-2.25v-.08c0-.08-.05-.16-.11-.2-.34-.21-.57-.58-.59-1-.04-1.59-.05-3.42.05-4.85 0-.12.11-.21.23-.21.13 0 .23.1.23.23v.02c-.07.95-.09 2.08-.08 3.2 0 .15.12.27.27.27.15 0 .27-.12.27-.27 0-1.12.01-2.26.08-3.22 0-.12.11-.21.23-.21.13 0 .23.1.23.23v.02c-.07.95-.09 2.07-.08 3.18 0 .15.12.27.27.27.15 0 .27-.12.27-.27 0-1.12.01-2.25.08-3.2 0-.12.11-.21.23-.21.13 0 .23.1.23.23v.02c-.1 1.39-.09 3.15-.05 4.7v.04c0 .44-.22.81-.55 1.03-.06.04-.1.1-.1.18 0 0-.03.24.06 1.39.04.5.08.85.09 1.01 0 .06.06.11.12.11H38.93c.3 0 .58 0 .86.01h.65c.06.01.11-.03.12-.09.17-1.38.21-2.15.21-2.15 0-.07-.05-.12-.12-.13l-.79-.12c-.13-.02-.2-.1-.22-.2-.01-.06 0-.12 0-.12.37-4.59 1.91-6.12 1.91-6.12.04-.04.07-.06.07-.06a.23.23 0 0 1 .14-.04c.1 0 .19.07.22.16 0 0 .01.03.02.11.11 1.45.02 3.9-.08 5.82-.09 1.63-.19 2.9-.19 2.9 0 .06.04.1.09.1.43.01.85.03 1.3.04.18 0 .34-.12.39-.29.29-1.17.56-5.68.57-5.88.02-.16.14-.29.29-.33l1.15-.21c.17-.04.3-.19.3-.38 0-.06-.01-.12-.04-.17Z" class="cls-6"/></g><g id="Outline"><path d="M73.34 109.87s.27.09.78 0c.5-.08 1.26-.3 2.05-.88.79-.57 1.63-1.49 2.21-2.77.58-1.29.83-2.89.79-4.62-.03-1.73-.32-3.57-.56-5.54-.25-1.97-.52-4.07-.81-6.29-.59-4.42-1.25-9.29-1.93-14.39-.72-5.1-1.4-9.96-2.03-14.38-.33-2.21-.61-4.3-.93-6.28-.32-1.97-.77-3.83-1.46-5.42-.68-1.6-1.63-2.93-2.67-3.84-1.03-.93-2.11-1.5-3.04-1.79-.93-.3-1.7-.33-2.21-.28-.51.04-.76.13-.76.16 0 .05.27.04.76.08.48.03 1.2.13 2.05.48 1.68.65 3.93 2.43 5.09 5.52 1.22 3.05 1.45 7.11 2.08 11.53.59 4.42 1.25 9.29 1.93 14.39.72 5.1 1.4 9.96 2.03 14.38.32 2.21.63 4.31.92 6.27.28 1.97.61 3.79.7 5.43.09 1.64-.09 3.14-.56 4.32-.47 1.19-1.19 2.09-1.88 2.67-.69.6-1.36.87-1.82 1.02-.46.15-.73.17-.72.23ZM109.86 112.55c.17-.34-1.75-1.32-3.85-3.81-1.03-1.24-2.09-2.87-2.79-4.85-.71-1.97-.99-4.28-.73-6.72.24-2.44.95-4.73 1.77-6.74.83-2.02 1.77-3.78 2.58-5.27 1.64-2.96 2.66-4.86 2.37-5.05-.26-.18-1.75 1.34-3.81 4.14-1.01 1.41-2.16 3.16-3.17 5.28-1 2.12-1.86 4.62-2.14 7.39-.29 2.76.1 5.51 1.06 7.76.94 2.25 2.31 3.99 3.63 5.22 1.32 1.24 2.61 1.96 3.53 2.34.46.2.83.3 1.1.34.26.05.42.03.45-.04Z" class="cls-6"/><path d="M100.07 122.25c.25.19 1.12-.44 2.08-1.81.49-.68.97-1.56 1.41-2.58.42-1.03.78-2.2 1.01-3.46.22-1.27.28-2.49.23-3.6-.06-1.11-.21-2.1-.44-2.91-.44-1.62-1.04-2.5-1.34-2.41-.67.2.02 3.99-.82 8.5-.76 4.52-2.7 7.86-2.14 8.27ZM195.47 121.64c.19-.24-.59-1.31-2.46-2.27-1.83-.95-4.84-1.65-8.04-.88-1.59.38-3 1.08-4.14 1.89-1.14.82-2.01 1.74-2.61 2.6-1.2 1.73-1.36 3.06-1.08 3.17.32.15 1.02-.84 2.36-2.06 1.33-1.22 3.42-2.65 6.03-3.27 2.61-.62 5.13-.32 6.88.13 1.77.44 2.86.97 3.07.68ZM191.96 140.41c.12.04.73-1.28.64-3.58-.04-1.14-.29-2.5-.87-3.91-.57-1.41-1.51-2.85-2.8-4.07a11.7 11.7 0 0 0-4.27-2.48c-1.45-.47-2.83-.61-3.97-.57-2.3.09-3.57.8-3.52.92.05.19 1.38-.2 3.51-.07 1.06.06 2.31.28 3.62.76 1.3.48 2.64 1.24 3.82 2.31 1.16 1.09 2.03 2.36 2.6 3.63.58 1.26.9 2.49 1.04 3.55.29 2.11 0 3.46.2 3.5Z" class="cls-6"/><path d="M168.64 147.86c-.07-.17-1.51.3-3.86.84-1.18.27-2.59.53-4.17.73-1.58.19-3.32.31-5.16.31-1.83-.02-3.58-.16-5.15-.36-1.57-.22-2.99-.49-4.16-.77-2.35-.56-3.78-1.04-3.85-.87-.06.13 1.27.9 3.63 1.69 1.17.4 2.61.76 4.22 1.05 1.62.27 3.42.45 5.32.47a35 35 0 0 0 5.32-.42c1.62-.27 3.06-.62 4.23-1.01 2.36-.76 3.7-1.52 3.64-1.65Z" class="cls-7"/><path d="M40.92 141.6c0-.11-.69.03-1.75-.36-1.03-.38-2.43-1.48-3.15-3.34-.35-.91-.48-2.04-.43-3.22.05-1.19.29-2.47.61-3.82.65-2.72 1.37-5.71 2.12-8.85 1.47-6.29 2.74-12 3.6-16.15.86-4.15 1.31-6.73 1.15-6.77-.16-.04-.91 2.48-1.98 6.58s-2.47 9.78-3.95 16.07c-.74 3.15-1.43 6.14-2.03 8.89-.29 1.38-.52 2.74-.53 4.04 0 1.3.18 2.52.64 3.57.93 2.08 2.59 3.18 3.79 3.47 1.24.29 1.91-.04 1.89-.09ZM27.87 94.58c0-.33-3.15-.6-7.04-.6s-7.04.27-7.04.6c0 .33 3.15.6 7.04.6s7.04-.27 7.04-.6ZM26.09 100.97c-.01-.33-1.49-.55-3.31-.48-1.82.06-3.28.39-3.27.72s1.49.55 3.31.48c1.82-.06 3.28-.39 3.27-.72ZM66.86 94.72c0-.33-3.33-.69-7.46-.79s-7.48.07-7.49.41c0 .33 3.33.69 7.46.79 4.13.11 7.48-.07 7.49-.41ZM62.21 102.07c.02-.33-2.42-.76-5.44-.96-3.03-.2-5.5-.09-5.52.24s2.42.76 5.44.96c3.03.2 5.5.09 5.52-.24ZM109.52 134.84c.04-.33-14.08-2.38-31.54-4.59s-31.65-3.73-31.69-3.4c-.04.33 14.08 2.38 31.54 4.59s31.65 3.73 31.69 3.4Z" class="cls-6"/><path d="M99.89 85.28c.11-.29-2.4-1.45-5.75-1.64-3.36-.21-5.99.64-5.91.94.07.34 2.67.05 5.84.26 3.17.18 5.72.78 5.83.45Z" class="cls-9"/><path d="M159.36 94.95c-.62.23-.26 2.79.8 5.74 1.07 2.94 2.44 5.15 3.06 4.92.62-.23.26-2.79-.8-5.74-1.07-2.94-2.44-5.15-3.06-4.92Z" class="cls-6"/><path d="M139.33 66.57c-.09-.35-4.05.63-8.97.2-4.92-.37-8.68-1.97-8.82-1.63-.06.14.8.73 2.35 1.36 1.55.63 3.81 1.26 6.38 1.47 2.56.2 4.9-.05 6.53-.43 1.64-.38 2.58-.82 2.54-.97Z" class="cls-9"/><path d="M144.46 94.04c.08-.66-2.48-1.49-5.7-1.86-3.22-.37-5.89-.13-5.97.53-.08.66 2.48 1.49 5.7 1.86 3.22.37 5.89.13 5.97-.53Z" style="fill:#e2ded9"/><path d="M148.46 141.17c0-.08-.19-.15-.53-.12-.33.03-.83.16-1.34.52-.51.35-1.03.96-1.26 1.81-.11.42-.15.9-.03 1.4.11.5.43 1 .88 1.33.44.34 1.07.5 1.63.37.56-.13.97-.46 1.25-.82.28-.36.45-.76.52-1.15.07-.39.06-.73.02-1.03a4.48 4.48 0 0 0-.41-1.32c-.15-.28-.27-.42-.35-.4-.08.02-.11.21-.11.52 0 .31.04.75.02 1.24-.03.5-.16 1.02-.54 1.43-.39.41-.87.53-1.32.19-.45-.33-.59-.94-.48-1.52.1-.57.41-1.06.74-1.41.67-.71 1.35-.87 1.32-1.05Z" class="cls-7"/></g></svg>