<svg xmlns="http://www.w3.org/2000/svg" viewBox="0 0 200 200"><defs><clipPath id="clippath"><path d="m73.54 171.47-10.34-1.01s-.66-2.33-1.08-9.23c-.41-6.9-.35-14.99.14-20.11.48-5.11 1.7-10.51.11-20.05-1.6-9.53-3.1-18.55-2.35-24.14s2.54-10.72 5.17-13.65c0 0 13.81 8.48 20.85 12.14 7.05 3.66 12.19 6.01 12.19 6.01l2.7-2.44s5.54 4.18 8.57 7.33c3.03 3.15 6.6 7.57 6.88 11.3.28 3.73-1.13 10.96-10.1 24.11l-7.54 10.98-9.1-4.34s2.88-8.1 3.82-15.19 2.16-10.94 3.1-12.12c0 0-6.11-1.86-12.31-6.03 0 0 .09 8.84-3.1 20.58-3.19 11.74-7.19 25.31-7.28 31.18l-.33 4.65Z" style="fill:none"/></clipPath><style>.cls-3{fill:#f6c243}.cls-4{fill:#f75e28}.cls-5{fill:#fff}.cls-7{fill:#ff8000}.cls-8{fill:#a0b4b5}.cls-10{fill:#c1dade}.cls-11{fill:#d6e8ea}.cls-12{fill:#d0aa8c}.cls-13{fill:#c64528}.cls-14{fill:#5b3d5b}</style></defs><path id="BG_Strong" d="M8.59 91.01c56.47 9.03 127.09 2.62 182.38-17.58 10.88-27.33-24.36-68.61-53.1-48.1C102.79-29.73-.42 41.07 8.59 91.01Z" style="fill:#575655"/><g id="Illustrations"><path d="M154.41 161.11c-.84-1.92-2.73-3.03-4.78-3.18-.35-.03-.64.31-.64.64 0 .37.3.62.64.64.17.01.34.03.5.06.16 1 .41 2.8.46 3.05.08.35.48 1.42.38 1.8s-.91 1.12-1.59 1.17-1.28-.4-1.63-1.04c-.28-.5-.84-3.16-1.08-4.29.07-.04.14-.09.22-.14.29-.17.42-.59.23-.88s-.57-.42-.88-.23c-.35.21-.71.45-.98.77s-.49.65-.67 1.02c-.43.87-.67 1.81-.75 2.78-.16 1.77.49 3.57 1.76 4.82.67.65 1.47 1.1 2.4 1.24.45.07.92.14 1.37.09s.89-.18 1.32-.29c.83-.21 1.65-.5 2.33-1.03s1.17-1.32 1.49-2.14c.62-1.56.57-3.35-.1-4.88ZM49.7 157.87c-.39-.73-1.51-.08-1.11.65.03.05.05.1.07.15-1.04 1.02-3.44 3.36-3.81 3.76-.48.51-1.52 1.12-1.95.89-.43-.23-1.19-1.36-.64-2.08.55-.72 3.5-3.77 3.58-3.86.05-.05.37-.57.63-1 .06.03.12.07.18.1.71.43 1.36-.68.65-1.11-1.67-1.01-3.7-1.3-5.6-.92-.92.18-1.82.55-2.6 1.07s-1.35 1.21-1.78 2.06a9.911 9.911 0 0 0-.99 3.62c-.16 1.85.33 3.79 1.45 5.29.74 1 1.66 1.82 2.83 2.27.55.21 1.13.29 1.72.36.63.08 1.2.04 1.81-.1 1.1-.25 2.22-.51 3.23-1.04 1.01-.53 1.82-1.42 2.35-2.47 1.21-2.37 1.24-5.29-.04-7.64Z" class="cls-10"/><path d="M147.38 98.12c-.19-.32-.56-.38-.88-.23h-.02l-.88-.79s.07-.03.1-.05c.32-.15.39-.6.23-.88-.19-.32-.56-.38-.88-.23-2.03.94-4.21 1.64-6.36 2.31-.05.02-.1.04-.14.06-.25.04-.5.21-.54.46l-.48 2.98c-.04.01-.08.02-.11.04-2.29.99-4.55 2.05-6.8 3.12a.3.3 0 0 0-.08.04c-.1.05-.18.13-.23.23 0 0 0 .02-.01.02 0 .01-.01.03-.02.04a.66.66 0 0 0-.04.44c.44 1.44.89 2.87 1.33 4.3.1.33.45.54.79.45s.55-.46.45-.79v-.03l1.55-.52c.11.3.45.52.78.42.34-.11.56-.45.45-.79l-.54-1.74c.97-.44 1.95-.87 2.93-1.3.09-.04.16-.11.21-.19a.61.61 0 0 0 .09-.2c.19-1.17.38-2.34.56-3.52.06 0 .13 0 .2-.03 1.44-.45 2.89-.89 4.33-1.36 1.27-.41 2.56-.83 3.78-1.4.32-.15.39-.6.23-.88ZM77.24 163.88v-.76c0-.07-.01-.13-.03-.19-.11-3.2-.52-6.39-1.55-9.44-.49-1.45-1.1-2.86-1.76-4.25-.82-1.75-1.71-3.45-2.81-5.04a34.615 34.615 0 0 0-4.7-5.48c-.6-.57-1.51.34-.91.91a33.38 33.38 0 0 1 4.09 4.64c1.15 1.59 2.1 3.29 2.95 5.06.66 1.38 1.21 2.6 1.72 4 .35.97.65 2.01.9 3.06l-.46 1.22c-.41-2.33-1.12-4.6-2.08-6.76-1.35-3.02-3.22-5.8-5.48-8.21-.61-.65-1.26-1.27-1.92-1.87-.26-.23-.65-.26-.91 0-.24.24-.26.68 0 .91 2.45 2.2 4.53 4.77 6.11 7.65 1.59 2.88 2.56 5.74 3.08 8.83.51 3.09.42 6.11-.15 9.1-.57 2.99-1.62 5.91-3.03 8.62a37.827 37.827 0 0 1-5.31 7.66c-2.08 2.32-4.44 4.46-7.07 6.15-2.72 1.74-5.73 2.97-8.95 3.38-1.8.23-3.63.25-5.44.21-1.82-.05-3.6-.15-5.38-.36-3.34-.38-6.69-1.15-9.74-2.59-2.73-1.28-5.32-3.01-7.36-5.25-.03-.05-.06-.1-.09-.14a38.074 38.074 0 0 1-5.08-7.89A34.472 34.472 0 0 1 13 168.2c-.55-3.06-.63-6.12-.26-9.17s1.19-5.96 2.44-8.7c1.25-2.74 2.9-5.25 4.96-7.43 1.87-1.99 4-3.64 6.36-5.01 2.39-1.39 4.92-2.42 7.59-3.15 2.69-.73 5.38-1.11 8.16-1.16 2.78-.05 5.55.25 8.26.92 3.18.79 6.24 2.04 9.05 3.72.69.41 1.36.85 2.02 1.31.29.2.71.05.88-.23.16-.28.08-.59-.13-.79l.83-.92c.27.2.62.24.88-.02.22-.22.27-.69 0-.91-.77-.61-1.55-1.21-2.37-1.72-.73-.46-1.51-.85-2.29-1.22-1.61-.74-3.27-1.38-4.95-1.97-3.27-1.16-6.74-1.78-10.21-1.89-3.47-.11-6.97.31-10.32 1.22-3.33.91-6.55 2.32-9.44 4.21a33.9 33.9 0 0 0-7.27 6.41 35.115 35.115 0 0 0-5.19 8.15c-1.35 2.95-2.3 6.08-2.75 9.29-.47 3.35-.42 6.73.11 10.06.53 3.31 1.56 6.54 3.01 9.57 1.43 2.99 3.31 5.78 5.54 8.24 1.37 1.93 3.28 3.46 5.21 4.79 2.29 1.57 4.78 2.82 7.38 3.78 5.15 1.89 10.77 2.58 16.22 1.97s10.71-2.45 15.24-5.56c4.42-3.03 8.09-7.11 10.73-11.76 2.62-4.64 4.22-9.86 4.51-15.18.01-.21.02-.42.02-.63a.88.88 0 0 0 .02-.17v-.38ZM62.81 189.8l-.12.09-1.33-1.11c1.01-.81 1.97-1.69 2.89-2.59 2.3-2.28 4.34-4.84 6.02-7.62.08-.13.16-.27.23-.4.31-.08 1.03-.23 1.56-.06.09.03.17.07.24.12-2.29 4.48-5.52 8.47-9.49 11.57Z" class="cls-8"/><path d="M74.71 129.07c.43-.49.67-.76.67-.76l-.92-2.64-.26.28a.545.545 0 0 0-.18-.37c-.23-.23-.68-.26-.91 0-4.09 4.75-8.19 9.49-12.32 14.21-4.07 4.64-8.17 9.25-12.33 13.82-2.2 2.41-4.41 4.81-6.65 7.19-.07.08-.12.16-.15.25 0 0-.01.02-.02.03-.36.67-.34 1.56.13 2.18.25.33.55.57.95.69.35.1.72.1 1.07.03.39-.07.77-.28 1.05-.57 3.92-4.16 7.79-8.38 11.63-12.62 3.84-4.24 7.87-8.78 11.76-13.21 2.19-2.5 4.38-5 6.56-7.52.23-.26.26-.65 0-.91-.02-.02-.04-.04-.06-.05ZM41.64 161.06z" class="cls-3"/><path d="m133.89 116.18-.03-.26.03-.03c.37-.33.19-.79-.15-.99v-.09h-.01l-.06.06a.623.623 0 0 0-.7.11c-2.9 2.6-5.92 5.06-9.1 7.32a83.095 83.095 0 0 1-9.99 6.14 69.285 69.285 0 0 1-11.01 4.58c-3.97 1.24-8.07 2.11-12.22 2.5-4.21.39-8.48.32-12.66-.34-.29-.04-.57-.09-.86-.14-1.03-2.9-2.05-5.8-3.05-8.72-1.3-3.79-2.57-7.59-3.77-11.41-.14-.44-.27-.88-.41-1.32-.24-.79-1.49-.45-1.24.34 1.17 3.78 2.41 7.54 3.69 11.28 1.12 3.29 2.27 6.56 3.43 9.83-.09.08-.16.18-.19.3-.09.32.11.73.45.79.05 0 .09.02.14.02.03.09.07.19.1.28-.07.07-.13.16-.16.27-.09.32.11.73.45.79.03 0 .06.01.09.02 1.43 4.02 2.88 8.04 4.31 12.07 1.42 3.99 2.84 7.99 4.23 12 1.28 3.7 2.53 7.41 3.71 11.14.14.42.27.85.4 1.28.24.79 1.49.45 1.24-.34-1.15-3.68-2.37-7.34-3.62-10.99-1.36-3.98-2.77-7.96-4.18-11.92-1.46-4.1-2.93-8.2-4.4-12.3-.08-.22-.16-.45-.24-.67 3.67.58 7.4.76 11.11.54 4.23-.24 8.46-.97 12.56-2.11 3.99-1.11 7.87-2.62 11.59-4.44 3.6-1.76 7.06-3.8 10.37-6.07 3.33-2.28 6.51-4.79 9.55-7.45.37-.33.75-.66 1.12-.99.5-.45 0-1.12-.53-1.08Z" class="cls-3"/><path d="M137.42 95.92s1.02-2.03 1.46-2.75 1.61-2.98 1.61-2.98 1.64.68 3.65.77c2.01.09 5.39 0 5.65.15s.86.65 1.28 2.28c.42 1.63.75 3.03.58 3.4-.18.37-.45.86-1.16 1.26s-1.62 1.43-2.22 1.12-.94-.15-1.44-.71-.7-.62-1.2-1.12c-.49-.5-.69-.82-.69-.82s-.88-.59-1.36-.31-.49.53-1.18.59-1.28.12-1.89-.35c-.61-.47-.53-.55-.99-.52-.45.03-1.14.14-1.46.05s-.64-.05-.64-.05ZM61.72 175.87c.35 0 .98-.56 1.36-1.47.38-.9.65-1.64.77-2.33s.25-1.68.25-1.68l7.34.72-1.29 6.12-.13 1.23-1.12 1.35s-1.72.06-2.67.12-1.52.06-2.27-.38-1.57-1.28-1.73-1.93c-.16-.65-.51-1.75-.51-1.75ZM88.11 158.22s.81-.93 1.23-2.07c.43-1.14.95-2.97 1.23-4.1l.77-3.08 6.52 2.81-.34 1.3-.08.75s-1.18 1.27-1.28 1.78-.09 1.75-.09 1.75-1.49 1.5-2.14 1.9c-.65.41-1.52.93-2.3.92s-1.36.08-2.05-.47-1.48-1.5-1.48-1.5Z" class="cls-12"/><path d="M81.26 164.15c0-7.6-2.18-14.88-6.23-21.14-.8-1.65-1.6-3.14-2.32-4.18-1.04-1.52-3.14-3.13-5.45-4.61-6.83-5.73-15.31-8.85-24.25-8.85-21.13 0-38.32 17.19-38.32 38.32v1.35c.05.31.3.56.63.56h1.61c.29 0 .56-.21.63-.49.06-.09.1-.2.1-.32-.01-.39-.02-.75-.02-1.09 0-19.5 15.86-35.36 35.36-35.36s35.36 15.86 35.36 35.36v.39c0 .29.22.52.5.54.11.1.25.16.42.16h1.31c.17 0 .34-.07.45-.19.04-.04.07-.08.1-.13.07-.09.11-.2.11-.32Z" class="cls-3"/><path d="m114.3 47.48.97-2.95s.77-.2 1.49-1.14c.71-.93 1.65-2.63 1.85-2.63.2 0 1.78-1.61 1.78-1.61s2.13.41 3.08.25c.95-.16 1.23 0 2.03-.65s1.68-1.67 1.78-1.95c.1-.28.23-1.2.23-1.2l2.99-.51.74 4.79 2.42 4.18-2.27.14s-.3 2.71-.65 3.67-.98 2.8-1.84 3.26c-.86.46-.89.64-1.8.54s-3.13-.48-3.12-.48-1.04 1.34-1.15 1.54-1.12 1.87-1.12 1.87-1.73-2.24-2.77-3.32c-1.04-1.08-4.63-3.82-4.63-3.82Z" class="cls-12"/><path d="M114.8 163.83c.3.97.24 2-.15 2.94-.06.14.06.32.2.36.17.05.3-.06.36-.2.43-1.02.48-2.19.15-3.24-.11-.36-.67-.2-.56.15Z" class="cls-4"/><path d="M115.19 163.48c-.39-.49-1-.64-1.59-.71-.69-.08-1.39-.08-2.08-.16-1.43-.17-2.85-.51-4.21-.99-1.36-.48-2.68-1.11-3.91-1.87s-2.46-1.57-3.14-2.83c-.64-1.17-.97-2.54-2.1-3.36a.233.233 0 0 0-.22-.04c-.26-.03-.61.17-.8.29-.36.23-.66.53-.89.89-.48.73-.59 1.62-.48 2.46-1.13 1.22-2.43 2.6-4.2 2.74-.87.07-1.64-.21-2.27-.81-.64-.61-1.18-1.33-1.74-2.02v-.11c-.04-.14-.21-.26-.36-.2-.64.23-1.16.71-1.42 1.34-.13.32-.19.68-.17 1.03.01.22.04.52.17.73-.59 1.49-1.14 3.18-.43 4.7-.22.27-.38.57-.48.91-.05.18-.08.37-.09.56 0 .2.04.41.03.61 0 .19-.09.36-.14.53-.05.19-.08.4-.08.6-.01.42.09.82.26 1.2.04.08.1.13.16.14.02.03.04.05.07.07 1.39 1.07 3.27 1.16 4.95 1.02 2.09-.18 4.12-.77 6.24-.62 1.06.07 2.11.23 3.16.33 1.05.1 2.18.18 3.28.22 2.07.06 4.15-.05 6.18-.46 2.14-.43 4.21-1.2 6.04-2.39.22-.14.14-.43-.03-.52.12-.27.29-.67.32-.81.04-.19.02-1.36-.09-1.99.14-.09.22-.3.08-.46Z" class="cls-4"/><path d="M78.04 115.1c.35-1.22.72-2.44 1.12-3.65.07-.22-.08-.47-.3-.53-.23-.06-.45.08-.53.3-.4 1.21-.77 2.42-1.12 3.65-.15.53.68.76.83.23Z" class="cls-7"/><path d="M79.08 111.14c.04-1.63-1.55-2.5-2.87-2.97-1.54-.55-3.04-1.15-4.45-1.98-2.79-1.64-4.98-4.22-8.03-5.42-.82-.32-1.68-.52-2.55-.57-1-.05-1.99.13-2.96.31-.18.03-.27.16-.29.29-.03.03-.05.05-.07.09a40.453 40.453 0 0 0-2.85 6.38c-.04.11-.03.2 0 .27v.03c.73 2.85 2.94 5.1 5.67 6.12 1.63.61 3.38.83 5.1 1.04 1.83.22 3.67.36 5.51.47 2.07.12 4.15.19 6.22.26.47.02.51-.64.13-.78.24-.72.77-2.31 1.04-3.16.2 0 .4-.13.41-.39Z" class="cls-8"/><path d="M129.86 32.19zM129.86 32.19c-1.62-.03-2.57 1.47-3.05 2.82-.1.28-.19.57-.29.85l-3.02.81s-3.43 1.02-3.89 1.21c-.47.19-3.54.8-3.54.8l-3.73 1.01c-.56-1.43-.49-3.68-.44-4.45.09-.04.16-.11.22-.2.14-.24.07-.62-.2-.75-.97-.45-2.08-.52-3.08-.1-.9.37-1.64 1.09-2.02 1.99-.18.41-.28.84-.39 1.28-.1.38-.2.79-.44 1.11-.66.9-1.7.26-2.51-.02-1.92-.65-4.26-.11-5.31 1.73-.52.91-.56 2-.3 2.99.14.53.38 1.01.63 1.49.19.36.33.72.21 1.13-.14.51-.59.76-.97 1.07-.42.33-.76.77-.98 1.26a3.43 3.43 0 0 0 .3 3.35c.17.24.48.35.75.2.02-.01.04-.03.05-.04.32.32.63.54.63.54s3.42-1.22 4.91-1.67c.87-.26 7.72-1.79 7.72-1.79l1.3-3.66 2.32 1.83.44-2.11c.96-.35 1.84-.95 2.51-1.72.48-.56.81-1.18 1.12-1.85.26-.57.52-1.2 1.02-1.6 1.27-1.02 2.78.14 4.2-.04 1.64-.2 2.91-1.42 3.52-2.9.31-.76.47-1.59.89-2.3.16-.26.38-.54.61-.71.27-.21.5-.29.81-.28.83.02.83-1.27 0-1.29Z" class="cls-14"/><path d="M99.69 51.85h.01-.01zM141.11 88.4a93.766 93.766 0 0 1-14.91-9.88 94.809 94.809 0 0 1-6.68-5.99c-.33-.33-.67-.67-.99-1 .16-.43.31-.86.46-1.29 1.17-3.59 1.52-7.33 1.65-11.08 0-.05 0-.1-.03-.14l2.44-2.62c.16-.17.08-.39-.07-.5-2.25-3.21-4.88-6.14-7.78-8.78-.83-.75-1.67-1.48-2.53-2.18a.405.405 0 0 0-.09-.05c-.16-.08-.37-.04-.44.16-.02.04-.04.08-.04.13-.31 1.2-.72 2.36-1.24 3.48-3.58.54-7.1 1.41-10.52 2.59-.24.08-.27.35-.16.51-.24.07-.41.11-.48.11.18.05 5.23 1.35 6.89 2.25 1.69.92 2.6 2.48 3.44 3.97.83 1.5.95 4.89.95 4.89l-.34-.28c-1.27-1.42-2.6-2.79-4.05-4.03-.04-.06-.07-.11-.11-.16-.68-1.09-5.97-3.01-7.85-3.43-1.44-.32-4.34-.19-5.64-.12.1-.23-.17-.56-.46-.41a65.058 65.058 0 0 0-9.25 5.69 67.673 67.673 0 0 0-7.89 6.8c-1.39 1.4-2.73 2.86-4 4.36-.1.12-.1.26-.04.37-.12.13-.19.21-.19.21s6.5 1.76 8.67 2.16c2.17.4 9.38.26 11.67-.05 2.29-.31 3.08-.67 3.08-.67l.07.07c.3.39.61.77.93 1.15.67.81 1.32 1.58 1.99 2.34-1.31.41-6.28 1.88-9.42 1.48-3.64-.46-8.56-.6-11.53-1.21-2.52-.51-6.2-1.84-7.27-2.24.17-.31-.35-.59-.58-.28-1.7 2.26-3.26 4.62-4.7 7.05-.03.05-.04.1-.05.15-.06.11-.05.24.07.34 3.8 3.08 8.04 5.52 12.32 7.85 4.55 2.47 9.13 4.88 13.74 7.23 2.6 1.33 5.22 2.63 7.85 3.92.11.09.28.12.42-.01 4.2-3.92 7.81-8.42 11.01-13.18 1.82 1.35 3.72 2.59 5.7 3.7 3.04 1.7 6.41 3.16 9.83 4.15 3.39.98 6.92 1.53 10.45 1.55.38 0 .76 0 1.14-.01.1.05.23.04.32-.04.1-.05.16-.14.17-.25 1.62-2.67 3.07-5.43 4.34-8.28.11-.24-.07-.45-.27-.49Z" class="cls-7"/><path d="M116.26 118.17c-.39-3.8-2.54-7.09-5.03-9.88-1.35-1.52-2.82-2.93-4.33-4.29-1.6-1.45-3.26-2.83-4.97-4.15-.42-.32-.85-.64-1.28-.96-.24-.18-.47.06-.46.29l-2.02 1.85s-15.66-7.57-18.51-9.5c-2.58-1.76-12.11-7.21-13.83-8.2.15-.31-.26-.68-.5-.38-3.14 3.88-4.68 8.7-5.22 13.62-.59 5.44.07 10.89.92 16.27.96 6.02 2.15 12.04 2.03 18.16-.06 3.1-.41 6.18-.69 9.26-.29 3.1-.47 6.21-.54 9.32-.14 6.2.17 12.41.92 18.57.09.74.19 1.47.29 2.21.01.09.06.16.12.19.05.06.13.11.23.12l9.61.77c.17.01.27-.09.3-.22.13-.03.24-.13.24-.3.11-4.52.76-9 1.71-13.42.94-4.42 2.16-8.76 3.38-13.1 1.23-4.37 2.47-8.75 3.47-13.18 1.02-4.58 1.71-9.22 2.01-13.9.05-.82.09-1.63.12-2.45 3.04 2 6.27 3.7 9.62 5.12.88.37 1.77.72 2.66 1.04-.51 1.14-.96 2.3-1.34 3.49-.27.83-.51 1.68-.71 2.53-.2.85-.32 1.7-.45 2.56a123.652 123.652 0 0 1-4.33 18.45v.04c-.19.12-.26.42 0 .53l8.84 3.86c.05.02.1.03.15.03.1 0 .21-.03.29-.15 2.43-3.7 4.92-7.36 7.36-11.05 2.34-3.53 4.71-7.05 6.64-10.83.96-1.89 1.82-3.84 2.45-5.87.64-2.02 1.06-4.25.84-6.42Z" class="cls-10"/><path d="M70.89 72.08c2.9 1.27 5.95 2.14 9.08 2.6s6.32.55 9.47.21c1.78-.19 3.55-.51 5.28-.97.67-.18.38-1.21-.29-1.03-5.91 1.57-12.25 1.51-18.16-.05-1.65-.44-3.28-.99-4.85-1.68-.27-.12-.58-.08-.73.19-.13.23-.08.62.19.73ZM68.56 74.99a43.07 43.07 0 0 0 10.97 3.39c3.79.63 7.62.77 11.43.39 2.16-.22 4.31-.59 6.41-1.13.67-.17.38-1.21-.29-1.03-3.62.93-7.34 1.36-11.08 1.3a42.49 42.49 0 0 1-11.03-1.65c-2.01-.58-3.98-1.31-5.88-2.19-.26-.12-.58-.08-.73.19-.14.23-.07.61.19.73Z" class="cls-7"/><path d="M109.92 56.71c-1.01-1.64-2.56-2.91-4.27-3.76-2.01-1-4.22-1.45-6.44-1.69a38.155 38.155 0 0 0-13.5 1c1.31-1.8 2.6-3.6 3.88-5.43.14-.2.07-.5-.1-.66-.03-.07-.06-.14-.11-.2-2.12-2.62-4.5-5.02-7.1-7.16.84-1.77 1.87-3.45 3.05-5.02.14-.18.08-.45-.07-.62 0-.18-.1-.34-.26-.46l-2.02-1.47a.495.495 0 0 0-.41-.05c-.21-.02-.4.09-.53.26a28.451 28.451 0 0 0-2.99 4.89 51.762 51.762 0 0 0-6.4-3.83c-.1-.05-.2-.07-.29-.06a.49.49 0 0 0-.47.01c-.48 0-.95.15-1.4.33-.57.23-1.13.47-1.69.7l-3.42 1.42c-.27.11-.46.36-.38.66.05.17.21.33.39.38.48.33 1.01.58 1.56.77-2.22 2.26-4.21 4.74-6.11 7.29-3.19 4.29-5.98 8.21-8.7 12.51-1.66 2.62-3.23 5.3-4.73 8.02-.11.2-.08.38 0 .53.02.1.07.21.14.29 3.56 4.45 7.92 8.27 12.79 11.24 1.36.83 2.75 1.58 4.18 2.27.25.12.55.07.71-.17.06-.03.12-.06.16-.12l3.35-4.22c.43.29 1.32.84 2.02.94.96.14 5.84 1.93 7.41 2.28 1.58.35 13.07.63 14.69.41 1.62-.22 5.02-1.14 5.02-1.14l-2.74-3.26s-2.74.33-5.31.97-8.36.27-12.33-.48c-3.38-.64-6.01-1.93-6.72-2.3 1.43-1.81 2.85-3.62 4.27-5.43 2.29-2.95 4.57-5.91 6.81-8.89.16.08.34.07.52 0 3.17-1.38 6.6-2.15 10.05-2.28 3.31-.13 6.75.25 9.86 1.45 1.62.62 3.14 1.54 4.36 2.78.24.25.55.18.74 0 0 .2-.06.36-.06.36l3.05 2.7c.02.17.03.34.05.52.03.29.23.54.54.54.27 0 .56-.25.54-.54-.2-2.15-.43-4.37-1.59-6.25Z" class="cls-7"/><g style="clip-path:url(#clippath);fill:none"><path d="M75.19 86.95c1.77 2.63 2.22 5.98 1.09 8.96-1.13 2.99-4.13 5.06-5.22 8.22-.62 1.79-.53 3.72-1 5.54a8.213 8.213 0 0 1-2.3 3.87c-2.53 2.42-6.38 2.82-9.45 1.19-1.46-.78-2.76 1.44-1.3 2.22 5.58 2.97 12.6.64 15.07-5.24.62-1.48.77-3.03.98-4.6.23-1.68.71-3.08 1.71-4.46 1.76-2.42 3.75-4.43 4.41-7.46.71-3.27.12-6.76-1.76-9.54-.92-1.37-3.15-.08-2.22 1.3ZM67.7 138.98c.02-4.86 1.24-9.61 3.8-13.78.97-1.58 3.62-4.27 5.49-2.23 1.65 1.8.52 5.16.81 7.33.33 2.45 1.81 4.41 2.74 6.64.93 2.23 1.22 4.61.97 6.96-.25 2.32-1.1 4.75-2.59 6.56-1.31 1.59-3.43 2.99-5.52 2.01-2.24-1.05-3.28-3.76-4.06-5.92-.88-2.44-1.55-4.97-1.64-7.58-.06-1.65-2.63-1.66-2.58 0 .09 2.77.74 5.48 1.67 8.08.92 2.6 2.05 5.3 4.31 7.01 2.19 1.65 5.05 1.66 7.35.21 2.3-1.44 3.95-4.03 4.85-6.67.95-2.79 1.1-5.83.52-8.71-.3-1.48-.83-2.89-1.51-4.23-.68-1.35-1.47-2.59-1.84-4.03-.78-3.01.75-6.27-1.27-9.01-1.76-2.39-5.12-2.33-7.36-.67-2.54 1.88-3.96 5.23-5.03 8.1-1.18 3.17-1.68 6.53-1.69 9.91 0 1.66 2.57 1.66 2.58 0ZM86.84 113.63c2.18-1.55 5.7-3.95 8.03-1.32.96 1.09.91 2.64 1.44 3.94.58 1.41 1.71 2.12 2.97 2.87 2.32 1.36 2.66 4.11 2.6 6.59-.07 2.83-.52 6.1-2.53 8.27-1 1.07-2.36 1.92-3.85 2.05-1.8.15-3.26-.93-4.59-2-1.28-1.02-3.12.79-1.82 1.82 1.45 1.15 2.97 2.34 4.85 2.66 1.73.29 3.48-.1 5-.95 3.32-1.85 4.82-5.48 5.3-9.08.42-3.15.51-6.98-1.48-9.66-.49-.66-1.08-1.2-1.76-1.66-.69-.45-1.63-.76-2.11-1.46s-.53-1.72-.76-2.55c-.25-.89-.65-1.7-1.24-2.41-1.27-1.54-3.26-2.33-5.24-2.13-2.3.23-4.28 1.5-6.11 2.81-1.34.95-.05 3.19 1.3 2.22ZM108.87 101.66c-1.7 2.2-2.2 5.08-2.26 7.8-.07 2.77.43 5.56 1.55 8.1 2.12 4.83 6.84 8.41 12.21 8.43 1.66 0 1.66-2.57 0-2.58-4.48-.02-8.29-3.13-9.99-7.16-1.65-3.94-2.02-9.75.72-13.29.43-.56.08-1.44-.46-1.76-.66-.39-1.34-.09-1.76.46ZM96.89 154.72c.68-1.65 1.84-3.36 3.55-4.07 1.31-.54 3.21-.41 4.13.79.43.56 1.1.84 1.76.46.55-.31.89-1.21.46-1.76-1.59-2.07-4.31-2.87-6.81-2.05-2.77.92-4.5 3.35-5.57 5.94-.63 1.53 1.86 2.2 2.48.68ZM61.02 162.1c.82-.7 2.5-.34 3.45-.12 1.26.29 2.5.79 3.42 1.73 1.06 1.08 1.43 2.61 1.72 4.05.34 1.7.4 3.43.28 5.16-.12 1.65 2.46 1.65 2.58 0 .27-3.87-.16-9.06-3.46-11.65-2.45-1.92-7.2-3.21-9.81-.99-1.26 1.08.57 2.89 1.82 1.82Z" class="cls-11"/></g><path d="M73.88 58.14c.03-.12.15-1.35.01-3.09s0-.09.02-.12c.69-1.25 1.06-2.14 1.06-2.14a.39.39 0 0 0-.11-.44L74 51.6s-.02-.01-.02-.02a.23.23 0 0 0-.33.06l-.22.33h-.02c-.22-.89-.52-1.81-.92-2.72a.952.952 0 0 0-.37-.45 1.06 1.06 0 0 0-.56-.18c-4.6-.2-8.59 1.84-8.78 1.97s-.09.07-.12.12c-.1.15-.08.35.03.48l.81.81c.1.12.12.29.05.43-.11.17-2.43 3.97-2.85 5.08-.06.16 0 .35.15.45.55.36 1.06.69 1.6 1.05l.04.03c.06.04.14.02.18-.03.2-.34.65-1.11 1.14-1.91.01-.02.03-.05.04-.07.04-.07.05-.15.01-.22-.17-.36-.15-.79.06-1.15.83-1.32 1.82-2.83 2.68-3.95.07-.09.2-.12.3-.05.11.07.14.21.07.31 0 0 0 .01-.01.02-.58.75-1.2 1.66-1.8 2.58-.08.12-.05.29.08.37s.29.05.37-.08c.6-.92 1.24-1.85 1.81-2.6.07-.09.2-.12.3-.05.11.07.14.21.07.31 0 0 0 .01-.01.02-.57.74-1.2 1.65-1.79 2.57-.08.12-.05.29.08.37.12.08.29.05.37-.08.6-.92 1.23-1.84 1.8-2.58.07-.09.2-.12.3-.05.11.07.14.21.07.31 0 0 0 .01-.01.02-.84 1.09-1.79 2.54-2.6 3.83s0 .03-.01.03c-.23.36-.61.55-1 .55-.07 0-.14.03-.18.09 0 0-.15.18-.71 1.17-.24.44-.4.74-.47.88-.03.05-.01.12.04.15s.06.04.09.06c.18.12.37.25.56.38l.04.02.04.02c.24.17.47.32.7.48l.53.36s.12.02.16-.02c.89-1.04 1.34-1.65 1.34-1.65.04-.06.02-.13-.03-.18l-.58-.53c-.09-.09-.11-.19-.08-.28.02-.06.06-.11.06-.11 2.8-3.57 4.9-3.99 4.9-3.99.06-.01.09-.01.09-.01.05 0 .1.01.14.04.08.06.12.16.1.25 0 0 0 .03-.05.1-.69 1.25-2.11 3.22-3.23 4.73-.96 1.29-1.73 2.28-1.73 2.28s-.02.1.03.13c.35.24.69.49 1.05.74.15.11.34.09.47-.02.87-.8 3.55-4.37 3.66-4.52.1-.12.27-.17.42-.11l1.06.45a.385.385 0 0 0 .51-.31Z" style="fill:#fafafa"/><path d="M128.13 46.53c.89.26 1.83.39 2.76.41.34 0 .66-.3.64-.64s-.28-.64-.64-.64c-.21 0-.43-.02-.64-.03-.11 0-.21-.02-.32-.03-.04 0-.23-.02-.05 0-.05 0-.1-.02-.15-.02-.42-.07-.84-.16-1.26-.28-.32-.09-.71.11-.79.45s.1.69.45.79Z" style="fill:#8e7769"/><path d="M115.18 40.4c-.02.83 0 1.66-.12 2.48s-.33 1.65-.6 2.45c-.38 1.12-.83 2.27-1.44 3.29-.43.71.68 1.36 1.11.65.67-1.11 1.17-2.37 1.58-3.59.27-.81.49-1.65.61-2.5.14-.92.14-1.84.16-2.77.02-.83-1.27-.83-1.29 0ZM146.12 97.15a1.89 1.89 0 0 1-.1-.41l.02.17c-.02-.14-.02-.27-.02-.41 0-.09-.02-.17-.06-.25a.571.571 0 0 0-.13-.21.465.465 0 0 0-.21-.13.542.542 0 0 0-.25-.06c-.17 0-.34.06-.45.19l-.1.13a.62.62 0 0 0-.09.32c-.01.2.01.38.04.58.02.14.05.28.1.41.02.08.06.16.12.22.05.07.11.12.18.17.07.05.15.07.24.08.09.02.17.02.26-.01.16-.05.31-.15.38-.3s.12-.33.06-.5Z" class="cls-14"/><path d="M152.29 96.78c0-2.06-.59-4.11-1.69-5.86a.565.565 0 0 0-.35-.27.537.537 0 0 0-.29-.17c-1.23-.23-2.46-.18-3.69-.09s-2.38.19-3.56 0h-.03c-.02 0-.04-.02-.07-.03-1.33-.41-2.53-.89-3.75-1.5-.3-.15-.71-.09-.88.23-.15.29-.09.72.23.88 1.3.65 2.64 1.19 4.02 1.62.04.02.08.03.13.04 1.23.21 2.46.15 3.7.07 1.22-.08 2.35-.18 3.51.03a9.897 9.897 0 0 1 1.43 5c-.21.24-.43.46-.68.65-.01.01-.03.02-.05.03-.03.02-.06.05-.09.07-.06.05-.13.09-.2.13-.15.09-.3.18-.46.26-.07.03-.14.07-.21.1h-.01c-.05.02-.09.03-.14.05-.15.06-.31.11-.47.15s-.32.07-.49.1c-.06.01-.07 0 0 0-.04 0-.08 0-.12.01h-.12l-2.02-1.41s-.07-.04-.11-.05c.07-.04.14-.07.21-.11.17-.09.19-.11.37-.15-.11.02.1.02.09 0 .09.02.15.06.23.11.42.27.8.6 1.2.91.28.21.72.04.88-.23.19-.33.05-.67-.23-.88-.75-.57-1.54-1.42-2.57-1.13-.36.1-.67.3-1 .46-.07.03-.06.03-.18.07-.03 0-.07.02-.1.02h-.04c-.01 0-.13-.03-.14-.03-.08-.03-.15-.06-.23-.09-.53-.23-1-.24-1.49.09-.06.05-.13.09-.19.13-.02.01-.16.08-.17.09-.08.03-.17.06-.26.08a.61.61 0 0 0-.13.03c-.64.08-1.19-.14-1.59-.66-.11-.14-.28-.19-.46-.19-.04 0-.09-.02-.13-.02-1.51-.06-3.03-.12-4.49-.56-.33-.1-.7.12-.79.45-.09.33.12.69.45.79 1.51.45 3.09.54 4.66.6.51.54 1.23.83 1.96.88.38.03.79-.03 1.14-.16.2-.07.39-.16.56-.28.08-.05.17-.15.25-.18 0 0-.09-.05.05.02.41.19.83.34 1.3.26.03 0 .05-.01.08-.02-.15.32-.04.65.24.85l2.04 1.42.06.03c.11.09.25.15.4.15 1.57-.06 3.1-.77 4.12-1.96.09-.11.15-.24.17-.37.11-.1.19-.26.19-.46ZM91.18 146.92c-.5 2.02-1 4.05-1.51 6.07-.42 1.67-.91 3.41-2.02 4.77-.22.27-.26.65 0 .91.23.23.69.27.91 0 1.23-1.49 1.83-3.31 2.3-5.16.53-2.08 1.04-4.17 1.56-6.25.2-.8-1.04-1.15-1.24-.34ZM97.65 150.69c-.36.7-.62 1.44-.74 2.21-.03.18-.03.33.06.5.08.13.23.26.38.3.17.04.35.03.5-.06.13-.09.27-.22.3-.38.08-.53.23-1.05.44-1.55l-.06.15c.07-.17.15-.34.24-.51.15-.3.09-.71-.23-.88-.3-.16-.71-.09-.88.23ZM134.23 43.82s-.02-.05-.03-.07c-.88-1.52-1.69-3.09-2.43-4.69-.17-1.34-.4-2.67-.64-4-.06-.33-.48-.55-.79-.45-.36.12-.52.44-.45.79.12.65.24 1.31.35 1.97s.2 1.25.27 1.89c0 .05.02.1.03.14.01.06.03.12.06.18.62 1.36 1.3 2.69 2.03 4h-1.25c-.15 0-.28.05-.38.13-.16.12-.27.31-.26.51v.01c-.1 1.7-.44 3.4-1.18 4.94-.29.59-.67 1.23-1.19 1.58-.65.43-1.42.3-2.19.19-1.09-.16-2.17-.36-3.23-.61-.34-.08-.7.11-.79.45-.09.33.11.71.45.79.04 0 .07.02.11.02-.66 1.31-1.42 2.57-2.29 3.76-.2.28-.05.72.23.88.33.19.68.05.88-.23.94-1.3 1.77-2.68 2.47-4.13.57.11 1.15.21 1.73.3 1.05.15 2.05.33 3.02-.15.75-.38 1.31-1.08 1.72-1.8.47-.83.8-1.75 1.05-2.67.24-.87.38-1.77.46-2.67h1.76c.34 0 .66-.3.64-.64 0-.15-.06-.29-.15-.4Z" class="cls-14"/><path d="M129.04 40.54c.83 0 .83-1.29 0-1.29s-.83 1.29 0 1.29Z" class="cls-14"/><path d="M133.76 33.87c-1.63-5.99-7.83-9.54-13.82-7.91-5.99 1.63-9.54 7.83-7.91 13.82.02.08.07.14.14.18.02.02.04.03.07.04.03 0 .06.01.09.01H112.43l3.75-1.02c.48 1.3 1.73 2.15 3.09 2.15h.09c.76 3.56 2 7.02 3.67 10.26.5.97 1.04 1.92 1.61 2.85.36.59 1.29.05.93-.54-1.98-3.2-3.51-6.66-4.54-10.28a43.1 43.1 0 0 1-.62-2.49 3.304 3.304 0 0 0 2.1-3.65c3.63-.98 7.27-1.95 10.9-2.94.06-.02.1-.04.14-.08.16-.05.26-.22.21-.39Z" class="cls-7"/><path d="M98.12 173.2c-.09-1.32-.44-2.63-1.07-3.78.18-.14.35-.28.53-.43.27-.22.23-.68 0-.91-.27-.27-.64-.22-.91 0-.11.09-.22.17-.32.26-.12-.16-.25-.31-.38-.46-1.32-1.46-3.18-2.3-5.12-2.55-1.9-.25-3.9.12-5.57 1.07-.83.47-1.52 1.07-2.05 1.87-.61.93-1.03 2.02-1.29 3.1-.15.61-.24 1.22-.29 1.84v.13c-.09.98-.01 1.98.24 2.96.2.76.5 1.52.9 2.23-1.86 1.34-3.73 2.66-5.62 3.96-1.58 1.09-3.16 2.17-4.78 3.2-.29.19-.41.57-.23.88.17.29.59.42.88.23 3.2-2.03 6.3-4.23 9.38-6.43.36-.26.72-.52 1.08-.77.54.7 1.19 1.31 1.92 1.78.93.6 1.97.83 3.05.97.54.07 1.09.1 1.64 0 .49-.09.99-.22 1.47-.34 1-.24 2-.54 2.9-1.04.93-.51 1.67-1.24 2.23-2.14 1.05-1.66 1.54-3.68 1.41-5.64Zm-14.62 3.9c-1.44-3.31-.24-7.37 2.69-9.48.37-.26.76-.5 1.16-.7l.09-.06c.7-.2 1.43-.31 2.14-.32 1.59-.02 3.27.44 4.61 1.45.45.34.83.73 1.16 1.15-2.47 1.98-4.97 3.83-7.57 5.76-1.31.97-2.63 1.92-3.95 2.88a8.62 8.62 0 0 1-.34-.68Zm12.69-.03c-.32.74-.79 1.56-1.42 2.14s-1.41.93-2.2 1.2c-.89.29-1.82.53-2.74.7-.34.06-.9.02-1.32-.04-.4-.05-.86-.12-1.27-.25-1.08-.34-1.99-1.07-2.7-1.97 2.84-2.05 5.66-4.13 8.44-6.25 1.02-.78 2.04-1.57 3.05-2.37.29.59.51 1.22.65 1.87.34 1.62.18 3.39-.49 4.96Z" class="cls-8"/><path d="M80.56 196.18c-.02-.64-.4-1.14-.86-1.56-.46-.42-.99-.83-1.47-1.28-.97-.92-1.85-1.93-2.61-3.02-.77-1.09-1.42-2.25-1.96-3.47-.28-.62-.52-1.26-.73-1.91-.23-.72-.46-1.47-.47-2.23-.02-1.58.88-3.09.39-4.66a.255.255 0 0 0-.12-.16c-.19-.24-.74-.28-.97-.29-.46-.02-.91.08-1.33.26-.73.32-1.3.92-1.68 1.61-1.68.31-3.57.63-5.09-.38-.68-.44-1.09-1.1-1.24-1.89-.17-.89-.16-1.83-.19-2.73.11-.14.1-.4-.13-.47-.68-.21-1.47-.1-2.06.32-.27.2-.5.44-.67.73-.1.16-.21.38-.23.58-1.38.85-2.81 1.87-3.16 3.51-.36.09-.69.26-.98.49-.15.12-.28.26-.4.42s-.19.33-.32.47-.31.23-.45.35-.28.26-.39.41c-.24.31-.41.67-.49 1.05-.02.08 0 .14.03.2v.12c.48 1.71 1.94 2.93 3.4 3.83 1.75 1.09 3.71 1.81 5.29 3.16.8.68 1.54 1.42 2.31 2.13s1.56 1.39 2.37 2.04c1.61 1.29 3.31 2.46 5.17 3.37 2.06 1.01 4.28 1.68 6.58 1.83.07 0 .12-.01.17-.04.06.02.13 0 .21-.03.98-.58 1.73-1.49 2.1-2.56.02-.07.01-.14-.02-.2Z" class="cls-4"/><path d="M183 162.72c-.07-4.77-1.11-9.22-3.05-13.43-1.85-4.02-4.51-7.68-7.73-10.72-3.35-3.15-7.3-5.62-11.63-7.18-4.83-1.75-10.09-2.36-15.19-1.84-1.26.13-2.51.32-3.74.57-.34.07-.54.47-.45.79.09.34.41.5.74.46l.17.98c-.18.16-.27.44-.21.67.1.35.45.52.79.45 4.88-1.01 10-.86 14.79.56 4.09 1.21 7.92 3.32 11.15 6.11 3.38 2.92 6.06 6.56 7.88 10.63 1.82 4.08 2.64 8.19 2.59 12.48-.05 3.94-.88 7.84-2.36 11.5a31.52 31.52 0 0 1-6.31 9.82c-2.69 2.83-6.09 5.24-9.79 6.79-3.7 1.55-7.94 2.41-12.07 2.43-4.13.02-8.26-.74-12.1-2.29-1.91-.77-3.77-1.76-5.45-2.96-.98-.7-1.9-1.48-2.76-2.32-.01-.01-.02-.03-.03-.04-3.05-3.13-5.61-6.73-7.36-10.75-1.6-3.68-2.44-7.67-2.49-11.67-.05-4.02.71-7.99 2.21-11.73 1.48-3.69 3.7-7.12 6.45-9.99 3-3.12 6.66-5.58 10.71-7.13.54-.21 1.08-.4 1.63-.58.33-.11.55-.45.45-.79-.09-.32-.46-.56-.79-.45-.05.02-.1.04-.16.05l-.15-.95h.01c.79-.25.45-1.49-.34-1.24a33.558 33.558 0 0 0-12.32 7.05 35.164 35.164 0 0 0-7.88 10.36c-1.98 3.96-3.2 8.28-3.5 12.7-.32 4.56.32 9.19 1.8 13.51a34.81 34.81 0 0 0 5.83 10.61c.02.05.04.09.07.13 2.78 3.81 6.62 6.73 10.88 8.7 4.18 1.93 8.71 3 13.3 3.21 4.52.2 9.09-.43 13.38-1.87 4.28-1.44 8.29-3.68 11.68-6.68 3.74-3.3 6.7-7.43 8.64-12.03 1.85-4.4 2.79-9.18 2.71-13.95Z" class="cls-8"/><path d="M63.58 169.13c-.19 2.18-.4 4.61-1.96 6.28-.56.61.34 1.52.91.91 1.82-1.96 2.12-4.65 2.34-7.2.03-.35-.32-.64-.64-.64-.37 0-.61.3-.64.64ZM71.11 169.64c-.6 2.68-1.17 5.37-1.71 8.05-.07.34.1.7.45.79.32.09.72-.11.79-.45.54-2.69 1.11-5.38 1.71-8.05.08-.34-.1-.7-.45-.79-.32-.09-.72.11-.79.45Z" class="cls-14"/><path d="M157.28 126.74a.634.634 0 0 0-.3-.38.692.692 0 0 0-.42-.08c-2.56-.53-5.1-.79-7.76-.79s-5.31.28-7.89.82c-.44-1.47-.87-2.94-1.32-4.41-1.04-3.46-2.07-6.86-3.12-10.29l-.12-.4c.19-.12.37-.26.54-.41.53-.36.92-.92.75-1.59-.22-.88-1.22-1.09-1.98-.82-.06.02-.12.05-.17.07-1.09.02-2.18.52-3.15.97-.19.09-.4.19-.61.3-.49.2-.95.47-1.3.86-.33.37-.55.83-.41 1.34.12.46.55.79.99.91.47.13.98.04 1.45-.04.22.71.43 1.41.65 2.12a.7.7 0 0 0-.1.08c-4.59 4.12-9.5 7.88-14.79 11.06-5.39 3.23-11.15 5.85-17.21 7.54-3.6 1-7.3 1.69-11.03 1.99-.35.03-.64.28-.64.64 0 .33.3.67.64.64.8-.06 1.6-.15 2.39-.24l-.09.15c-.49.06-.98.11-1.47.15-.35.03-.64.27-.64.64 0 .32.3.67.64.64 6.33-.55 12.55-2.13 18.42-4.55 1.69-.7 3.36-1.46 5-2.28.31-.16.4-.59.23-.88a.58.58 0 0 0-.3-.26l.25-.59a77.3 77.3 0 0 0 3.46-1.89c2.7-1.57 5.31-3.3 7.83-5.15 2.52-1.85 4.99-3.85 7.36-5.94.16-.14.31-.28.47-.42.53 1.73 1.06 3.46 1.59 5.2-.89.68-1.81 1.32-2.72 1.97-1.41.99-2.83 1.97-4.25 2.94-1.76 1.2-3.53 2.4-5.3 3.59-2.01 1.35-4.02 2.7-6.02 4.05-2.14 1.43-4.27 2.86-6.41 4.29s-4.32 2.89-6.47 4.33c-2.16 1.44-4.1 2.75-6.15 4.12-1.84 1.24-3.67 2.48-5.51 3.72-1.51 1.03-3.02 2.06-4.52 3.11a123 123 0 0 0-3.2 2.28c-.18.14-.36.27-.55.41-.27.21-.42.55-.23.88.13.22.45.37.72.31l.05.13-.1.07c-.27.21-.42.55-.23.88.16.27.6.44.88.23.92-.71 1.87-1.38 2.82-2.05 1.41-.99 2.83-1.97 4.25-2.94 1.76-1.2 3.53-2.4 5.3-3.59 2.01-1.35 4.02-2.7 6.02-4.05 2.14-1.43 4.27-2.86 6.41-4.29 2.16-1.44 4.32-2.89 6.47-4.33 2.16-1.44 4.1-2.75 6.15-4.12 1.84-1.24 3.67-2.48 5.51-3.72 1.51-1.03 3.02-2.06 4.52-3.11a123 123 0 0 0 3.2-2.28c.06-.04.12-.09.18-.14.32 1.07.65 2.15.98 3.23-7.45 2.44-14.12 7.23-18.83 13.55-4.96 6.65-7.58 14.57-7.58 22.89s2.66 16.41 7.69 23.03c.09.12.23.19.37.21.05.01.1.02.15.02.16 0 .35-.06.45-.19.18-.23.39-.43.61-.61.11-.08.23-.16.34-.23.14-.08.25-.23.3-.38.02-.07.02-.15.02-.23.1-.18.09-.4-.04-.58-4.54-6.12-6.94-13.4-6.94-21.04s2.41-14.96 6.97-21.09c4.33-5.82 10.48-10.25 17.33-12.51.22.73.44 1.46.65 2.19 1.05 3.51 2.08 7.01 3.09 10.52 1.02 3.51 1.98 6.9 2.93 10.35.9 3.27 1.79 6.55 2.64 9.83.1.4.21.8.31 1.19.03.11.07.19.13.26 0 0 0 .02.01.02.5.89 1.66 1.29 2.58.87.39-.18.71-.54.89-.92.21-.45.3-.93.18-1.42v-.05c-.86-3.36-1.75-6.71-2.66-10.06-.93-3.43-1.88-6.86-2.85-10.28-.99-3.49-1.99-6.97-3-10.45-.31-1.05-.61-2.09-.92-3.13 4.54-.92 9.35-.94 13.89-.05.19.04.38-.03.5-.17.15-.05.3-.14.37-.29l.7-1.41c.08-.16.11-.32.06-.5Z" class="cls-3"/><path d="M129.75 90.83a.701.701 0 0 0-.37-.25c-.36-.11-.71-.24-1.06-.38a.615.615 0 0 0-.23-.07.43.43 0 0 0-.16 0c-.31 0-.54.2-.66.47-.72 1.65-1.84 3.15-2.83 4.67a.51.51 0 0 0-.07.17c-.05.09-.07.18-.07.28 0 .17.07.34.2.45.05.03.09.07.14.1.11.06.22.09.34.09h.02c.39.05.76.14 1.13.27.05.02.12.02.18.02.28.06.57-.06.74-.3 1.06-1.51 2-3.09 2.82-4.73.13-.27.1-.58-.12-.79Z" style="fill:#78577a"/><path d="M136.44 111.67c-.12-.31-1.11-.22-2.2.21s-1.87 1.03-1.75 1.34 1.11.22 2.2-.21 1.87-1.03 1.75-1.34ZM140.8 126.08c-.11-.32-1.13-.26-2.28.12-1.15.39-2 .96-1.89 1.28s1.13.26 2.28-.12c1.15-.39 2-.96 1.89-1.28Z" class="cls-5"/><path d="M75.08 194.95c0-.19-1.45-.22-3.46-1.26-1-.51-2.12-1.26-3.27-2.23-1.16-.96-2.38-2.13-3.77-3.28-.7-.57-1.41-1.11-2.14-1.57-.73-.46-1.43-.85-2.08-1.24-1.3-.77-2.34-1.56-2.97-2.45-.65-.87-.9-1.74-.98-2.34-.07-.61 0-.97-.1-1-.07-.02-.3.3-.37 1-.07.69.08 1.75.73 2.81.62 1.09 1.78 2.09 3.09 2.93.65.41 1.32.84 2.03 1.29.67.45 1.34.96 2.02 1.51 1.34 1.11 2.59 2.27 3.84 3.22 1.24.96 2.49 1.69 3.61 2.13 1.12.45 2.1.61 2.77.63.67.02 1.04-.08 1.04-.16ZM109.03 167.27c-.08-.34-2.51 0-5.5-.02-2.98 0-5.41-.33-5.5 0-.09.31 2.34 1.21 5.5 1.21 3.16.01 5.59-.89 5.5-1.2Z" class="cls-13"/><path d="M101.78 163.85c.29.17 1.06-.59 1.95-1.52.88-.94 1.6-1.75 1.41-2.03-.18-.28-1.31.15-2.29 1.19-.99 1.04-1.35 2.19-1.07 2.36ZM105.38 164.39c.28.19.91-.25 1.42-.98.51-.73.69-1.48.41-1.67s-.91.25-1.42.98c-.51.73-.69 1.48-.41 1.67ZM73.18 186.32c-.02-.34-.72-.56-1.55-.51-.84.05-1.5.37-1.48.7s.72.56 1.55.51c.84-.05 1.5-.37 1.48-.7ZM74.34 189.06c-.06-.33-.62-.5-1.26-.39-.64.12-1.1.48-1.04.81.06.33.62.5 1.26.39.64-.12 1.1-.48 1.04-.81Z" class="cls-5"/></g><g id="Outline"><path d="M89.19 47.28c-.54-.4-6.59 6.77-13.51 16.01-6.92 9.25-12.1 17.07-11.56 17.47.54.4 6.59-6.77 13.51-16.01 6.92-9.25 12.1-17.07 11.56-17.47ZM82.29 38.81c.06-.16-.1-.38-.4-.63-.3-.25-.77-.5-1.14-.76-.35-.24-.68-.59-.99-.83-.31-.24-.57-.35-.7-.25-.14.1-.13.37 0 .75.14.36.4.9 1 1.33.59.39 1.11.5 1.5.55.39.05.67 0 .73-.16ZM118.26 71.7c.26-.16-.71-2.5-3.07-5.86a34.094 34.094 0 0 0-4.79-5.44c-2.02-1.86-4.55-3.64-7.52-4.92-1.5-.63-3.04-1.06-4.54-1.33-1.51-.28-2.99-.33-4.39-.3-2.81.13-5.3.79-7.2 1.75-1.9.95-3.24 2.06-3.99 2.96-.41.42-.63.83-.79 1.09-.15.27-.2.44-.13.49.14.12.65-.26 1.55-.88.89-.63 2.25-1.43 4.04-2.09 1.78-.67 4.05-1.09 6.56-1.09 1.26.03 2.58.12 3.92.4 1.34.27 2.7.67 4.03 1.23 2.68 1.16 5.03 2.72 7 4.37 1.98 1.64 3.6 3.34 4.92 4.82 2.62 2.97 4.11 4.98 4.42 4.79Z" class="cls-5"/><path d="M107.12 60.8s.1-.08.17-.27c.06-.19.19-.48.22-.87.13-.77.06-1.98-.55-3.27-.6-1.29-1.69-2.65-3.23-3.71-.76-.55-1.62-1.02-2.57-1.38-.47-.2-.97-.34-1.47-.49-.51-.11-1.04-.23-1.56-.29-2.11-.29-4.14-.14-5.93.16-1.79.29-3.36.73-4.65 1.14-2.58.83-4.1 1.52-4.06 1.67.05.17 1.68-.23 4.28-.84 1.3-.29 2.85-.64 4.58-.86 1.73-.22 3.64-.32 5.61-.06 3.91.49 7.02 2.85 8.22 5.06.64 1.1.82 2.15.85 2.87.05.36 0 .65.01.84 0 .2.03.31.07.32ZM93.63 72.26c-.07-.18-1.29.18-3.27.53-.99.18-2.18.33-3.51.43-1.33.08-2.78.09-4.31-.02-1.52-.13-2.96-.37-4.26-.65-1.29-.3-2.45-.63-3.4-.97-1.91-.66-3.06-1.2-3.15-1.03-.08.13.94.94 2.83 1.83.94.45 2.11.88 3.45 1.26 1.34.35 2.84.64 4.44.77 1.6.12 3.13.07 4.5-.07 1.38-.16 2.6-.41 3.6-.71 2.01-.59 3.14-1.23 3.08-1.37Z" class="cls-5"/><path d="M92.29 67.9c-.3.12-.13 1.42.59 3.38.72 1.95 2.03 4.54 3.92 7.11 1.89 2.56 3.97 4.59 5.62 5.85 1.65 1.27 2.84 1.82 3.05 1.57.44-.55-3.15-3.99-6.71-8.86-3.6-4.84-5.81-9.3-6.47-9.04Z" class="cls-5"/><path d="M95.84 76.25c-.08-.18-1.54.37-3.97.83-1.21.25-2.68.39-4.31.51-1.64.07-3.44.05-5.32-.1-1.89-.16-3.67-.44-5.29-.74-1.61-.33-3.06-.66-4.25-1.01-2.4-.67-3.87-1.2-3.94-1.03-.06.14 1.29.95 3.68 1.84 1.19.46 2.65.89 4.28 1.29 1.64.37 3.48.69 5.42.85 1.95.15 3.81.14 5.5 0 1.68-.18 3.2-.42 4.43-.79 2.48-.69 3.84-1.55 3.78-1.67ZM83.66 100.72c-.67 0-1.26 4.99-1.31 11.15-.05 6.16.45 11.16 1.12 11.17.67 0 1.26-4.99 1.31-11.15s-.45-11.16-1.12-11.17Z" class="cls-5"/></g></svg>