<?xml version="1.0" encoding="UTF-8"?>
<svg xmlns="http://www.w3.org/2000/svg" xmlns:xlink="http://www.w3.org/1999/xlink" viewBox="0 0 200 180">
  <defs>
    <style>
      .cls-1 {
        fill: none;
      }

      .cls-2 {
        fill: url(#Unnamed_Pattern);
      }

      .cls-3 {
        fill: #fa7c07;
      }

      .cls-4 {
        fill: #f25f29;
      }

      .cls-5 {
        fill: #e8c4b9;
      }

      .cls-6 {
        fill: #edebe8;
      }

      .cls-7 {
        fill: #fff;
      }

      .cls-8 {
        fill: #f1f1f1;
      }

      .cls-9 {
        fill: #ffbc00;
      }

      .cls-10 {
        fill: #ffcc20;
      }

      .cls-11 {
        fill: #ffa2af;
      }

      .cls-12 {
        fill: #ff5000;
      }

      .cls-13 {
        fill: #977f76;
      }

      .cls-14 {
        fill: #a0b4b5;
      }

      .cls-15 {
        fill: #b9d9dd;
      }

      .cls-16 {
        fill: #ddd9d5;
      }

      .cls-17 {
        fill: #d9d5d1;
      }

      .cls-18 {
        fill: #dfc2b9;
      }

      .cls-19 {
        fill: #5b3d5b;
      }

      .cls-20 {
        fill: #575655;
      }

      .cls-21 {
        fill: #603c5d;
      }

      .cls-22 {
        fill: #603b5d;
      }
    </style>
    <pattern id="Unnamed_Pattern" data-name="Unnamed Pattern" x="0" y="0" width="581.92" height="473.78" patternTransform="translate(-7017.73 -5995.63) scale(.22)" patternUnits="userSpaceOnUse" viewBox="0 0 581.92 473.78">
      <g>
        <rect class="cls-1" width="581.92" height="473.78"/>
        <g>
          <circle class="cls-10" cx="578.96" cy="289.85" r="52.96"/>
          <circle class="cls-10" cx="489.41" cy="420.81" r="52.96"/>
        </g>
        <circle class="cls-10" cx="288" cy="408.29" r="52.96"/>
        <g>
          <circle class="cls-10" cx="-2.96" cy="289.85" r="52.96"/>
          <circle class="cls-10" cx="92.52" cy="420.81" r="52.96"/>
        </g>
        <g>
          <circle class="cls-10" cx="578.96" cy="52.96" r="52.96"/>
          <circle class="cls-10" cx="489.41" cy="183.93" r="52.96"/>
        </g>
        <g>
          <circle class="cls-10" cx="288" cy="171.41" r="52.96"/>
          <circle class="cls-10" cx="198.44" cy="302.37" r="52.96"/>
          <circle class="cls-10" cx="383.48" cy="302.37" r="52.96"/>
        </g>
        <g>
          <circle class="cls-10" cx="-2.96" cy="52.96" r="52.96"/>
          <circle class="cls-10" cx="92.52" cy="183.93" r="52.96"/>
        </g>
        <g>
          <circle class="cls-10" cx="198.44" cy="65.48" r="52.96"/>
          <circle class="cls-10" cx="383.48" cy="65.48" r="52.96"/>
        </g>
      </g>
    </pattern>
  </defs>
  <g id="BG_Dark">
    <path class="cls-20" d="m197.95,86.19c-5.36-32.99-65.49-49.91-71.68-58.89C110.2,3.97,61.29,59.71,20.16,58.72l-4.95-.12c-10.41.46-13.61,43.97-9.77,55.34-13.27,76.92,185.5,77.78,173.96,5.1,1.52-.8-.79,5.24.61,2.19.65,1.93.48-3.41.74-3.99-3.7,2.92,17.84-17.39,17.21-31.04Zm-9.7-17.94s-.08,0-.12-.01c0,0,.12.01.12.01Zm-105.8-35.5s0,0,0,0c0-.01.01-.02,0,0Zm79.12,21.22c-.11-.05-.57-.15-.15-.11,0,0,.15.11.15.11ZM6.04,118.51s.04.05.04.09c-.01-.03-.02-.06-.04-.09Zm1.29.14c.03.12.05.24.08.37-.03-.08-.16-.28-.08-.37Zm.23,1.77c.14-.7.25.47.34.71-.11.1-.21.02-.34-.71Zm3.38,11.91c.02.06.04.11.06.17-.05-.04-.06-.11-.06-.17Zm114.89,35.21l-.11-.05c.27-.05.42-.1.11.05Zm24.05-1.89s.03-.07.05-.09c0,0-.05.09-.05.09Z"/>
  </g>
  <g id="Illustrations">
    <g>
      <path class="cls-5" d="m74.94,57.53l3.46-.67s.51-1.99,1.72-2.52,2.91-.03,3.32,0,3.32-1.35,3.32-1.35c0,0,4.78-2.96,6.39-3.75s9.96-5.08,9.96-5.08l1.33,8.05,4.28,7.99-4.06,2.06s-.65,5.85-1.17,7.16-1.9,4.21-2.89,4.88-1.67,1.06-2.4,1.08-7.45-.51-7.45-.51l-3.13,5.6-11.76-8.8-4.12-2.84s1.96-4.44,2.39-6.26c.42-1.83.8-5.07.8-5.07Z"/>
      <path class="cls-18" d="m140.55,94.45s3.92,2.66,3.35,4.69c-.24.85-7.15-3.75-6.86-2.9,1.89,5.45.41,6.24-.28,6.06-1.67-.45-1.93-4.06-2.54-3.05s-3.48,4.78-3.69,5.96c-.23,1.3-3.3,1.85-3.3,1.85,0,0-9.2,15.53-10.69,17.51-1.49,1.99-14.01,19.42-15.24,20.7s-4.43,4.57-4.43,4.57c0,0-.12,2.29-.6,2.24s-1.18.19-1.67-.24-.82-.88-.82-.88c0,0-3.32-.64-4.11-1.41s-1.92-1.48-1.92-1.48c0,0,1.15-6.41,1.9-9.46.75-3.05,3.58-11.92,3.58-11.92l-.42-1.61c.25-.28,3.49-3.64,6-5.8s10.03-8.18,11.73-9.42,8.87-6.14,8.87-6.14c0,0,2.81-6.89,3.45-9.13,1.81-6.32,4.44-6.08,5.16-7.64s13.46-5.87,13.46-5.87l.89,2-1.22,1.38-2.18,1.15-.15.76,6.68,2.73,1.28,2.01-.95,1.28-4.7-.71-1.05-.22.49,2.98"/>
      <path class="cls-3" d="m198.76,120.86c-.05-1.44-.15-2.88-.35-4.31-.14-.98-.28-2.01-.59-2.96-.08-.23-.3-.3-.49-.24-.42-1-1.27-1.36-1.88-1.72-.68-.41-1.09-1.09-2.26-.78-1.18.31-2.01,1.05-3.04,2.58s-3.63,6.64-4.53,8.27-6.43,11.61-7.72,13.96c-1.29,2.35-6.21,10.59-7.54,12.81-1.34,2.23-5.49,8.56-6.62,9.84-1.13,1.28-4.43,4.06-5.72,4.69-.78.38-2.04.56-2.93.65-.95-.3-1.9-.59-2.85-.9-.46-.15-.66.58-.2.73,1.08.35,2.16.68,3.25,1.02,1.41.44,2.82.88,4.29,1.07,2.59.33,5.19-.52,7.09-2.31,1.04-.98,1.87-2.18,2.62-3.39,3.38-5.51,6.83-10.98,10.35-16.4.96-1.48,1.92-2.95,2.89-4.42,1.29.31,2.57.63,3.86.94,1.36.32,2.75.61,4.15.41,2.24-.32,4.14-1.83,5.37-3.67,1.44-2.16,2.01-4.77,2.38-7.29.41-2.84.58-5.71.48-8.58Z"/>
      <path class="cls-21" d="m197.93,113.56c-.19-1.09-.46-2.2-1.01-3.17-.57-1-1.42-1.76-2.35-2.42-2.15-1.51-4.76-2.09-7.3-2.54-2.99-.54-5.99-1.05-8.99-1.58-3.01-.53-6.03-1.06-9.04-1.59-1.52-.27-3.03-.53-4.55-.8-1.41-.25-2.86-.5-4.29-.36-2.42.23-4.34,1.67-5.83,3.51-1.67,2.06-2.95,4.43-4.33,6.68-3.22,5.25-6.44,10.5-9.66,15.75-3.2,5.21-6.39,10.43-9.59,15.64-.4.66-.8,1.31-1.21,1.97-.97,1.66-1.49,3.62-1.22,5.54.13.91.45,1.8.97,2.55.6.87,1.43,1.49,2.32,2.04,3.94,2.39,8.21,4.29,12.5,5.95,2.45.95,4.93,1.82,7.43,2.64.02,0,.04.01.06.01.04.03.08.05.13.07,1.89.58,3.91.68,5.8.04,1.86-.63,3.46-1.88,4.82-3.27,1.41-1.46,2.56-3.14,3.7-4.81,1.26-1.84,2.48-3.71,3.68-5.59,2.37-3.74,4.63-7.54,6.82-11.39,2.1-3.68,4.12-7.41,6.17-11.12,1.74-3.15,3.49-6.3,5.22-9.45.27-.49.54-.99.81-1.48.54-1,1.05-2.01,1.63-2.99.49-.84,1.07-1.71,1.98-2.14,1.03-.49,2.06.04,2.93.61.75.48,1.41,1.02,1.67,1.9.04.24.25.31.43.26.2-.04.37-.21.3-.46Z"/>
      <path class="cls-16" d="m148.76,156.13c-1.67-.61-6.82-2.61-8.47-3.34s-3.7-1.53-4.7-2.34-2.23-.9-1.52-2.61,2.63-5.39,3.41-6.86,3.83-7.13,5.18-9.51,4.86-8.39,6.09-10.37c1.23-1.97,5.3-8.18,6.43-9.73s2.99-4.39,3.74-4.87,1.7-.68,2.91-.56,7.45,1.06,9.41,1.49,6.96,1.56,8.4,1.98,3.48,1.14,4.2,1.68,1.83,1.18,1.41,2.31-3.99,8.01-4.55,9.05-7.52,13.28-8.39,14.77-6.63,10.73-7.62,12.26c-.99,1.54-3.95,5.96-4.54,6.66s-2.1,1.99-2.99,2.07-3.43-.37-4.7-.79-3.7-1.27-3.7-1.27Z"/>
      <path class="cls-8" d="m144,150.5c-1.36-.34-3.6-1.77-4.55-2.18s-1.56-.95-1.36-2.04,1.56-3.06,2.04-4.28,8.29-14.48,9.38-16.45c1.09-1.97,5.13-8.07,6.13-9.37s1.62-2.39,2.7-2.66,6.32.68,7.48.82,7.21,1.77,8.29,2.04,2.72,1.16,3.26,1.5.75,1.16.2,2.38-6.25,11.83-6.8,12.98-6.11,10.02-7.17,11.61c-1.06,1.58-3.48,5.46-4.1,6.31s-1.71,2.55-3.07,3.03-2.72.27-3.94-.41-6.73-2.52-7.41-2.72-1.09-.54-1.09-.54Z"/>
      <path class="cls-3" d="m155.07,117.68s1.53-1.99,1.99-2.65,1-1.33,2.46-1.17,5.54.76,8.3,1.33,6.37,1.38,8.21,2.29c1.84.91,1.78,1.43,1.27,2.55s-1.38,2.65-1.38,2.65l-20.85-5Z"/>
      <path class="cls-17" d="m178.23,118.27c-.37-.7-1.17-1.18-1.86-1.52-1.56-.78-3.31-1.1-4.99-1.51-3.72-.9-7.47-1.73-11.29-2.11-.86-.08-1.82-.25-2.59.26-.64.42-1.07,1.11-1.53,1.71-1.01,1.33-1.98,2.69-2.93,4.06-1.98,2.88-3.84,5.85-5.62,8.85-1.8,3.03-3.53,6.11-5.22,9.22-.83,1.53-1.65,3.07-2.47,4.62-.38.72-.75,1.43-1.13,2.15-.38.73-.89,1.51-.98,2.35-.13,1.35,1.16,2.13,2.19,2.69.9.49,1.85.9,2.79,1.31,2.43,1.05,4.9,2.02,7.4,2.9.5.18,1,.35,1.5.51,1.63.5,3.28,1.33,5.02.79.82-.26,1.48-.8,2.01-1.46.58-.71,1.09-1.47,1.61-2.23,2.15-3.12,4.13-6.38,6.15-9.59,1.04-1.66,2.02-3.35,2.98-5.06,3.07-5.12,6-10.36,8.64-15.71.35-.71.69-1.49.29-2.25Zm-.82,1.63c-.14.29-.29.58-.43.87-.3.59-.6,1.18-.91,1.77-.68,1.3-1.37,2.6-2.07,3.89-1.43,2.63-2.9,5.24-4.41,7.83-.31.53-.63,1.06-.94,1.59-.83,1.47-1.67,2.93-2.55,4.37-.95,1.54-1.94,3.07-2.91,4.6-.96,1.54-1.93,3.07-2.94,4.58-.51.77-1.04,1.53-1.57,2.27-.47.66-.95,1.37-1.64,1.82-1.69,1.09-3.63.06-5.31-.46-2.33-.76-4.62-1.65-6.89-2.57-1.09-.45-2.18-.9-3.25-1.4-.8-.37-1.59-.76-2.31-1.25-.26-.18-.53-.39-.71-.66-.23-.35-.21-.74-.09-1.12.23-.75.7-1.46,1.06-2.16.75-1.44,1.51-2.88,2.28-4.32,1.58-2.96,3.2-5.9,4.89-8.81,1.71-2.96,3.48-5.88,5.35-8.73.9-1.37,1.81-2.72,2.76-4.06.45-.63.91-1.26,1.37-1.89.46-.62.9-1.31,1.47-1.84.67-.62,1.6-.42,2.43-.34.9.09,1.8.2,2.69.34,1.84.28,3.66.65,5.47,1.05,1.77.4,3.55.81,5.31,1.27.76.2,1.52.42,2.24.75.63.29,1.55.73,1.81,1.42.15.39-.04.81-.21,1.16Z"/>
      <path class="cls-9" d="m97.25,117.47c-.9-1.53-1.99-2.96-3.24-4.23-.38-3.25-.82-6.5-1.41-9.72-.56-3.11-1.27-6.2-2.12-9.25-.52-1.87-1.1-3.72-1.71-5.57-.06-.17-.16-.28-.29-.35.91-1.65,1.82-3.3,2.73-4.94.13-.23.09-.45-.03-.62,0-.15-.05-.29-.17-.39-2.68-2.17-5.45-4.22-8.21-6.28-2.77-2.06-5.53-4.13-8.3-6.19-1.56-1.16-3.12-2.33-4.68-3.49-.03-.02-.07-.04-.1-.06-.03-.03-.07-.06-.11-.08-.28-.16-.65-.06-.82.21-.85,1.44-1.79,2.83-2.8,4.16-1.95-1.12-4.25-1.67-6.5-1.71-3.91-.07-7.62,1.42-10.91,3.44-1.76,1.08-3.42,2.32-5.05,3.59-1.71,1.34-3.39,2.71-5.05,4.11-3.32,2.8-6.53,5.72-9.64,8.74-3.11,3.03-6.11,6.17-8.99,9.41-.33.37-.65.74-.98,1.11-.62-.29-1.24-.57-1.86-.85-.14-.06-.3-.09-.44-.06-.2-.1-.44-.09-.65.12-2.93,3.03-5.53,6.38-7.73,9.98-.62,1.01-1.2,2.03-1.75,3.08-.23.44.12.85.49.9.1.07.22.11.35.13,3.97.47,7.92,1.17,11.81,2.09,3.91.92,7.77,2.06,11.56,3.42,2.13.76,4.23,1.59,6.31,2.48.06.02.12.04.18.05l.77.98s2.8,4.27,3.78,6.35c.98,2.08,11.38,17.79,11.38,17.79,0,0,3.98,2.38,4.34,1.83s.67-.22,1.54.54.62-.92.8,0,6.03,3.19,5.53,4.89c-.5,1.7.75,2.23-.18,3.22-.35.38-.58.81-.72,1.21-1.49-.26-2.99-.52-4.48-.77-2.4-.41-4.8-.83-7.2-1.25-1.15-.2-2.3-.4-3.45-.6.25-1.65.42-4.04-.6-4.57-1.58-.82,1.32-8.96-.12-10.21-1.44-1.25-26.17-9.61-26.17-9.61l-1.69,5.56c-.11.08-.19.19-.24.32-1.16,2.96-2.23,5.95-3.2,8.98-.34.24-.38.92.16,1.1,2.6.9,5.15,1.95,7.72,2.95,3.16,1.23,6.36,2.35,9.59,3.4,1.92.62,3.86,1.27,5.83,1.73.25.06.5.1.75.15,1.22.23,2.44.44,3.67.66.18.03.35.06.53.09,2.08.63,3.47,1.05,3.47,1.05,0,0,.04-.16.09-.43.57.1,1.15.2,1.72.3,2.34.41,4.67.81,7.01,1.22,1.95.34,3.9.67,5.85,1.01.08.13.19.23.34.25,4.17.68,8.34,1.35,12.5,2.03,1.18.19,2.37.38,3.55.58.12.03.23.02.33-.02.01,0,.03,0,.04-.01,0,0,0,0,0,0,.02,0,.03-.01.05-.02l.1.02v-.09s.04-.02.05-.03c.24-.03.48-.19.52-.43.69-4.12,1.45-8.24,2.14-12.36.88,1.17,1.85,2.28,2.9,3.31.06.11.16.19.28.24.23.12.52.1.71-.1.16-.16.21-.4.14-.61.76-4.33,1.81-8.6,2.97-12.84,1.26-4.58,2.66-9.12,4.16-13.63.73-2.18,1.48-4.36,2.26-6.52.12,0,.24-.01.34-.08.28-.16.38-.54.21-.82Z"/>
      <path class="cls-2" d="m97.25,117.47c-.9-1.53-1.99-2.96-3.24-4.23-.38-3.25-.82-6.5-1.41-9.72-.56-3.11-1.27-6.2-2.12-9.25-.52-1.87-1.1-3.72-1.71-5.57-.06-.17-.16-.28-.29-.35.91-1.65,1.82-3.3,2.73-4.94.13-.23.09-.45-.03-.62,0-.15-.05-.29-.17-.39-2.68-2.17-5.45-4.22-8.21-6.28-2.77-2.06-5.53-4.13-8.3-6.19-1.56-1.16-3.12-2.33-4.68-3.49-.03-.02-.07-.04-.1-.06-.03-.03-.07-.06-.11-.08-.28-.16-.65-.06-.82.21-.85,1.44-1.79,2.83-2.8,4.16-1.95-1.12-4.25-1.67-6.5-1.71-3.91-.07-7.62,1.42-10.91,3.44-1.76,1.08-3.42,2.32-5.05,3.59-1.71,1.34-3.39,2.71-5.05,4.11-3.32,2.8-6.53,5.72-9.64,8.74-3.11,3.03-6.11,6.17-8.99,9.41-.33.37-.65.74-.98,1.11-.62-.29-1.24-.57-1.86-.85-.14-.06-.3-.09-.44-.06-.2-.1-.44-.09-.65.12-2.93,3.03-5.53,6.38-7.73,9.98-.62,1.01-1.2,2.03-1.75,3.08-.23.44.12.85.49.9.1.07.22.11.35.13,3.97.47,7.92,1.17,11.81,2.09,3.91.92,7.77,2.06,11.56,3.42,2.13.76,4.23,1.59,6.31,2.48.06.02.12.04.18.05l.77.98s2.8,4.27,3.78,6.35c.98,2.08,11.38,17.79,11.38,17.79,0,0,3.98,2.38,4.34,1.83s.67-.22,1.54.54c.87.76.62-.92.8,0s6.03,3.19,5.53,4.89c-.5,1.7.75,2.23-.18,3.22-.35.38-.58.81-.72,1.21-1.49-.26-2.99-.52-4.48-.77-2.4-.41-4.8-.83-7.2-1.25-1.15-.2-2.3-.4-3.45-.6.25-1.65.42-4.04-.6-4.57-1.58-.82,1.32-8.96-.12-10.21-1.44-1.25-26.17-9.61-26.17-9.61l-1.69,5.56c-.11.08-.19.19-.24.32-1.16,2.96-2.23,5.95-3.2,8.98-.34.24-.38.92.16,1.1,2.6.9,5.15,1.95,7.72,2.95,3.16,1.23,6.36,2.35,9.59,3.4,1.92.62,3.86,1.27,5.83,1.73.25.06.5.1.75.15,1.22.23,2.44.44,3.67.66.18.03.35.06.53.09,2.08.63,3.47,1.05,3.47,1.05,0,0,.04-.16.09-.43.57.1,1.15.2,1.72.3,2.34.41,4.67.81,7.01,1.22,1.95.34,3.9.67,5.85,1.01.08.13.19.23.34.25,4.17.68,8.34,1.35,12.5,2.03,1.18.19,2.37.38,3.55.58.12.03.23.02.33-.02.01,0,.03,0,.04-.01,0,0,0,0,0,0,.02,0,.03-.01.05-.02l.1.02v-.09s.04-.02.05-.03c.24-.03.48-.19.52-.43.69-4.12,1.45-8.24,2.14-12.36.88,1.17,1.85,2.28,2.9,3.31.06.11.16.19.28.24.23.12.52.1.71-.1.16-.16.21-.4.14-.61.76-4.33,1.81-8.6,2.97-12.84,1.26-4.58,2.66-9.12,4.16-13.63.73-2.18,1.48-4.36,2.26-6.52.12,0,.24-.01.34-.08.28-.16.38-.54.21-.82Z"/>
      <path class="cls-13" d="m104.69,65.17c-.75-.36-1.55-.69-2.4-.67-1.07.04-1.98.6-2.75,1.31-.24.22-.22.62,0,.85.24.24.61.22.85,0,.33-.31.69-.57,1.1-.77l.06-.03s-.04.02,0,0c.04-.01.08-.03.11-.04.09-.03.18-.06.28-.08.04-.01.26-.04.14-.03.09-.01.18-.02.27-.02.08,0,.16,0,.24,0,.04,0,.09,0,.13.01-.06,0-.06-.01,0,0,.16.03.33.07.49.12s.32.11.48.17c-.08-.03,0,0,.03.02.04.02.08.04.13.06.08.04.17.08.25.12.29.14.65.08.82-.21.15-.26.08-.68-.21-.82h0Z"/>
      <path class="cls-18" d="m12.34,124.36c-.88-1.93-1.65-4.28-2.43-5.54s-1.77-1.7-2.01-2.16-.72-1-.21-1.41,1.37-.55,1.76-1.16,1.05-1.59,1.05-1.59c0,0,6.04.98,9.11,1.76,3.07.78,10.76,2.73,12.54,3.51s3.59,1.71,3.59,1.71c0,0,5.15,7.1,6.7,9.7s10.66,16.64,10.66,16.64c0,0,4.08-.62,6.09-1.16s4.79.07,6.14.04c2.02-.04,2.61-1.05,2.87.09s-.77,1.96-1.31,2.65-1.88.98-3.21,1.51c-1.03.4,2.45,2.88,2.45,2.88,0,0-2.36,6.69-2.66,7.3s-2.12,3.63-2.53,3.6-.18-1.59-.18-1.59c0,0-.76,1.98-1.67,2.53s-2.19,1.12-3.08,1.01-2.55-.45-2.91-1.04-.54-.8-.67-1.35,1.14-2.54,1.14-2.54c0,0-1.39-.02-2.21-.57s-1.72-1.53-1.72-1.53c0,0-1.36-1.76-2.08-2.46s-2.72-2.9-2.72-2.9c0,0-7.4-3.99-10.4-6.48-3-2.49-12.97-9.29-15.06-11.87-2.08-2.58-6.48-8.38-7.04-9.61Z"/>
      <path class="cls-11" d="m187.3,60.26c-.52-1.15-3.28-6.97-6.51-9.06-2.64-1.7-5.15-2.91-7.9-3.81-3.57-1.27-8.19-1.76-12.69-1.35-4.87.45-9.35,1.92-12.6,4.14-4.02,2.75-6.21,6.6-6.34,11.15v.05s0,.05,0,.05c.73,12.41,7.46,17.94,12.99,20.4,4.66,2.07,9.17,2.34,10.99,2.35l5,10.61c.21.45.66.73,1.16.73.02,0,.04,0,.07,0,.52-.03.97-.36,1.14-.85l.02-.05,2.86-11.05c2.25-.8,9.49-3.81,12.4-10.19,1.78-3.92,1.59-8.34-.58-13.12Z"/>
      <path class="cls-12" d="m160.95,41.93c-.16-1.57.98-2.97,2.55-3.12.03,0,.05,0,.08,0,1.16-.1,2.29-.12,3.4-.05s2.18.23,3.29.49c.02,0,.04,0,.06.01,1.53.35,2.47,1.89,2.11,3.42l-4.09,17.32c-.32,1.35-1.57,2.28-2.96,2.19h0c-1.39-.09-2.5-1.17-2.65-2.55l-1.8-17.7Zm3.67,32.12c-.82-.05-1.53-.25-2.13-.58-.6-.33-1.09-.76-1.47-1.28-.38-.52-.65-1.08-.83-1.68-.17-.6-.24-1.2-.2-1.79s.18-1.17.43-1.74c.25-.57.6-1.09,1.04-1.56.44-.46.98-.82,1.62-1.08.64-.25,1.37-.35,2.19-.3s1.52.25,2.1.58c.59.33,1.07.76,1.47,1.28.39.52.68,1.08.85,1.68.17.6.24,1.2.2,1.79s-.18,1.17-.43,1.74c-.25.57-.61,1.09-1.06,1.56-.46.46-1,.82-1.62,1.08-.62.25-1.34.36-2.16.3Z"/>
      <path class="cls-19" d="m146.31,89.02c-.57-.57-1.33-.9-2.09-1.16-1.58-.56-3.18-1.08-4.77-1.61.36-.22.72-.44,1.08-.66.47-.3.95-.58,1.38-.93.83-.68,1.52-1.88.84-2.9-.71-1.06-2.06-.99-3.14-.65-1.19.38-2.38.78-3.56,1.21-2.24.81-4.4,1.79-6.48,2.94-.97.54-1.93,1.11-2.83,1.76-.82.6-1.65,1.26-2.3,2.04-.26.32-.43.7-.59,1.07-.26.61-.49,1.23-.71,1.85-1.17,3.27-2.18,6.68-3.55,9.83-.15.36-.31.71-.48,1.06-.06.13-.08.26-.06.39-4,2.6-7.91,5.36-11.69,8.27-3.8,2.92-7.51,5.97-11.06,9.2-1.94,1.76-3.8,3.62-5.35,5.75-.19.26-.04.67.21.82.3.18.63.05.82-.21,1.35-1.85,2.97-3.48,4.64-5.03,1.72-1.59,3.49-3.12,5.29-4.62,3.6-3.03,7.33-5.91,11.16-8.64,2.17-1.55,4.38-3.05,6.62-4.51.23-.15.3-.38.27-.59.08-.05.15-.11.19-.2,1.5-3.12,2.52-6.46,3.64-9.73.24-.69.47-1.37.72-2.05.1-.28.21-.56.32-.84.02-.06.05-.11.07-.17,0-.01,0-.02.01-.03,0,0,0-.02.02-.04.05-.1.09-.21.14-.31.07-.15.15-.29.24-.43,0,0,0-.01.01-.02.01-.01.03-.03.05-.05.18-.2.36-.39.55-.57.75-.73,1.6-1.35,2.48-1.91,1.83-1.17,3.8-2.19,5.81-3.02,1.11-.46,2.25-.87,3.39-1.26.58-.2,1.16-.39,1.74-.58.51-.17,1.04-.39,1.59-.39.32,0,.74.12.86.45.14.35-.16.75-.4,1-.34.35-.75.59-1.16.85-.46.29-.93.58-1.4.87-.32.19-.64.38-.96.57-.11.02-.21.08-.28.17-1.45.85-2.93,1.64-4.47,2.32-.54.24-1.09.47-1.46.94-.11.14-.21.29-.3.44-.49-.07-1.35-.27-1.84-.83-.2-.23-.55-.26-.78-.05-.23.2-.26.55-.05.78.61.71,1.54,1.01,2.2,1.15-.43,1.16-.82,2.34-1.23,3.52-.05.13-.09.26-.14.4-1.41.87-2.82,1.74-4.22,2.6-.65.4-.05,1.44.6,1.03,2.57-1.59,5.15-3.18,7.72-4.76.66-.41,1.32-.81,1.98-1.22.56-.34,1.11-.75,1.71-1.01.43-.19.94-.32,1.34-.06.3.2.58.6.68.92.24.76.09,1.6-.47,2.2-.36.39-.86.58-1.35.82-.61.3-1.18.62-1.72,1.04-2.01,1.59-2.96,4.07-4.2,6.23-.68,1.17-1.48,2.34-2.63,3.09-1.05.69-2.32,1.05-3.55.66-.74-.24-1.05.92-.32,1.15.39.12.78.19,1.17.2-1.58,2.7-3.17,5.39-4.8,8.06-1.88,3.09-3.8,6.15-5.77,9.19-1.97,3.04-4,6.04-6.11,8.99-1.95,2.73-3.98,5.41-6.12,8-1.89,2.28-3.86,4.49-6.01,6.52-.24.22-.47.44-.71.66-.12.11-.17.23-.19.35-.26.15-.47.47-.34.76.04.09.06.19.09.29,0,.01,0,.02,0,.03,0,.05,0,.1,0,.16,0,.01,0,.02,0,.04-.01.04-.02.1-.03.13-.01.04-.02.08-.03.11,0,.01,0,.02-.01.04-.05.09-.09.17-.15.26,0,0-.01.01-.02.02-.03.04-.07.08-.11.11-.02.02-.06.04-.08.06-.01,0-.02.02-.04.02-.04.03-.08.05-.13.07-.01,0-.02,0-.03.01-.05.02-.1.03-.15.04-.01,0-.02,0-.03,0-.05,0-.1,0-.14,0,0,0-.01,0-.02,0-.04-.02-.11-.02-.15-.03-.02,0-.12-.05-.15-.05-.01,0-.03-.01-.04-.02-.05-.03-.1-.05-.14-.08-.02-.01-.03-.02-.05-.03-.02-.02-.05-.04-.08-.07-.04-.04-.08-.08-.11-.12,0,0-.01-.01-.02-.02,0,0,0,0,0,0-.03-.05-.06-.09-.09-.14,0-.01-.01-.03-.02-.04,0-.03-.04-.12-.05-.14-.01-.05-.04-.24-.01-.03-.04-.34-.28-.68-.67-.67-.19,0-.39.11-.53.26-2.9-.71-5.24-2.72-7.28-4.84-.54-.56-1.38.29-.85.85,2.27,2.35,4.95,4.6,8.24,5.24.1.2.24.39.41.56.37.36.85.61,1.36.68,1.08.15,2-.53,2.37-1.52.17-.44.19-.96.05-1.41.02-.01.03-.02.05-.04,2.15-1.95,4.12-4.1,6-6.31,2.18-2.57,4.24-5.25,6.22-7.98,2.12-2.92,4.15-5.89,6.13-8.91,2-3.04,3.95-6.13,5.85-9.23,1.81-2.95,3.58-5.91,5.32-8.9.21-.36.42-.71.62-1.07,0,0,0-.02.01-.03.4-.11.8-.26,1.18-.44,1.23-.61,2.19-1.61,2.97-2.73.94-1.35,1.6-2.9,2.44-4.33.06.51.09,1.02.22,1.51.23.85.76,1.62,1.63,1.9.84.28,1.7-.13,2.14-.86.5-.84.34-1.82.13-2.71-.21-.87-.42-1.74-.64-2.61.63.41,1.27.81,1.9,1.22.71.46,1.41.96,2.15,1.36.67.36,1.51.54,2.2.11.56-.35.98-1.29.64-1.93-.24-.46-.7-.85-1.06-1.21-.56-.57-1.14-1.13-1.72-1.69-.31-.3-.63-.6-.95-.9,0,0,0,0-.01-.01-.04-.04-.08-.07-.12-.11-.11-.1-.22-.15-.33-.16.12-.43.17-.88.11-1.32-.02-.19-.07-.38-.12-.57.27.06.54.13.81.19,1.07.24,2.16.48,3.26.54.36.02.76.03,1.1-.1.65-.24,1.12-.85,1.23-1.53.12-.73-.08-1.41-.61-1.93Zm-9.21,13.01c-.56.44-1.16-.31-1.32-.81-.29-.9-.19-1.88-.5-2.77,0,0,0,0,0,0,.28-.37.59-.72.94-1.04.12-.12.25-.22.38-.32.22.9.44,1.81.66,2.71.16.66.49,1.73-.16,2.24Zm-4.9-11.4s-.02.04,0,0h0Zm11.45,7.75s.03.06.03.06c-.04,0-.05-.04-.05-.08,0,0,.01.01.02.02,0,0,0,0,0,0Zm-.02-.05s0,0,0,0c0-.07.01-.12,0,0Zm0,0s0,0,0,.01c0,0,0-.01,0-.02,0,0,0,0,0,0Zm-1.32-1.36c.43.43.88.86,1.27,1.32.02.02.03.04.05.06,0,.02,0,.04,0,.07-.07.55-.7.43-1.06.25-.74-.38-1.43-.89-2.14-1.35-.67-.43-1.34-.86-2.01-1.29.4-.19.79-.4,1.13-.7.18-.16.34-.34.48-.54.76.73,1.53,1.44,2.27,2.18Zm3.33-5.92c-.07.11-.04.09-.14.18,0,0-.11.09-.09.08-.05.03-.08.05-.09.05-.06.02-.11.03-.17.04.2-.05-.03,0-.09,0-.18,0-.36,0-.54-.01-.51-.03-.76-.08-1.27-.16-.51-.09-1.01-.19-1.51-.3-.74-.17-1.5-.33-2.22-.59-.27-.22-.59-.38-.94-.44-.17-.03-.34-.04-.51-.03-.49-.1-1.16-.32-1.57-.78-.2-.23-.55-.26-.78-.05-.23.2-.26.55-.05.78.21.24.46.44.72.6-.6.33-1.18.72-1.76,1.08l-3.48,2.15c.22-.65.44-1.31.67-1.95.1-.28.2-.55.3-.83.03-.08.06-.15.09-.23,0,0,0,0,0,0,.03-.05.06-.11.09-.16.08-.14.16-.28.26-.42,0-.01.01-.02.01-.02,0,0,.02-.02.03-.03.05-.05.09-.1.14-.14.01-.01.02-.02.02-.02,0,0,0,0,.01,0,.05-.03.11-.07.16-.1.14-.08.28-.15.42-.21,1.62-.74,3.19-1.55,4.73-2.43,1.58.53,3.15,1.06,4.73,1.59.68.23,1.39.42,2.02.77.27.15.55.33.74.58.04.05.09.13.12.2,0,0,.04.13.04.12.03.12.02.08.02.16,0,.21-.03.39-.13.57Z"/>
      <path class="cls-7" d="m177.93,113.15c.14-.75-3.05-1.95-7.11-2.7-4.06-.74-7.47-.74-7.6,0s3.05,1.95,7.11,2.7c4.06.74,7.47.74,7.6,0Z"/>
      <path class="cls-4" d="m163.87,131.62l-.5-1.18c-.18-.42-.67-.62-1.09-.44l-4.78,2.03-2.03-4.78c-.18-.42-.67-.62-1.09-.44l-1.18.5c-.42.18-.62.67-.44,1.09l2.03,4.78-4.78,2.03c-.42.18-.62.67-.44,1.09l.5,1.18c.18.42.67.62,1.09.44l4.78-2.03,2.03,4.78c.18.42.67.62,1.09.44l1.18-.5c.42-.18.62-.67.44-1.09l-2.03-4.78,4.78-2.03c.42-.18.62-.67.44-1.09Z"/>
      <path class="cls-7" d="m67.05,84.74c.27.23,1.32-.42,2.26-2.07.94-1.62,1.69-4.26,1.3-7.18-.37-2.93-1.86-5.32-3.3-6.57-.72-.64-1.42-1.01-1.93-1.17-.52-.17-.85-.13-.94.03-.19.35.58,1.08,1.42,2.42.84,1.33,1.75,3.31,2.05,5.65.31,2.34,0,4.54-.38,6.09-.37,1.57-.78,2.56-.47,2.8Z"/>
      <path class="cls-7" d="m83.36,148.08c.38.08,1.02-2.53,1.44-5.83.42-3.3.45-6.04.08-6.12-.38-.08-1.02,2.53-1.44,5.83-.42,3.3-.45,6.04-.08,6.12Z"/>
      <circle class="cls-7" cx="83.17" cy="92.3" r="1.67"/>
      <circle class="cls-7" cx="81.43" cy="109.44" r="1.67"/>
      <circle class="cls-7" cx="79.34" cy="128.2" r="1.67"/>
      <circle class="cls-7" cx="76.87" cy="145.69" r="1.67"/>
      <path class="cls-7" d="m86.36,120.17c.31.08,1.02-1.4,1.74-3.93.72-2.52,1.38-6.11,1.61-10.11.22-4.01-.05-7.64-.48-10.23-.43-2.59-.98-4.14-1.29-4.09-.69.1-.18,6.44-.63,14.19-.41,7.75-1.62,13.99-.94,14.17Z"/>
      <path class="cls-22" d="m75,61.17c.26-1.06.44-2.14.55-3.23.03-.32-.47-.32-.5,0-.08.85-.22,1.69-.4,2.53.01-.77,0-1.56.04-2.32l-1.48.23c-1.94.67-4.06.55-6.11.36-2.05-.19-4.13-.45-6.14-.02-2.01.43-3.98,1.69-4.63,3.64-.71,2.12-.83,5.72,1.66,8.35,2.69,2.85,12.16,1.64,14.27-.15.63-.53.27-1.42.21-2.46.22-.47.43-.94.63-1.41.28-.65.55-1.31.8-1.98.23-.45.39-.93.5-1.43.23-.7.43-1.41.6-2.12Z"/>
      <path class="cls-19" d="m100.73,54.76c.77,0,.77-1.2,0-1.2s-.77,1.2,0,1.2h0Z"/>
      <path class="cls-19" d="m102.53,44.87c.05.14.1.27.14.41.03.13.06.25.09.38.04.14.15.28.28.36.07.04.14.07.22.07.08.02.16.01.24-.01.14-.05.28-.14.36-.28s.1-.3.06-.46c-.03-.13-.06-.25-.09-.38-.04-.14-.09-.28-.14-.41-.02-.08-.05-.15-.11-.2-.04-.07-.1-.12-.17-.15-.07-.04-.14-.07-.22-.07-.08-.02-.16-.01-.24.01-.14.05-.28.14-.36.28s-.11.31-.06.46h0Z"/>
      <path class="cls-22" d="m88.04,53.14c-.06-.11-.18-.21-.3-.25-.11-.1-.26-.18-.42-.17-.05,0-.11.01-.16.02-.1.03-.19.08-.26.15-.44.36-.88.72-1.33,1.09-.11.02-.22.08-.29.16-.23.25-.22.6,0,.85l.79.88c.27.3.74.19.94-.12.44-.67.79-1.39,1.08-2.14.05-.14.01-.34-.06-.46Z"/>
      <path class="cls-19" d="m108.64,58.72c-.7-.76-1.45-1.43-2.03-2.3-.73-1.09-1.19-2.3-1.43-3.58-.01-.07-.05-.14-.09-.2-.31-2.44-.74-4.87-1.17-7.29-.06-.32-.44-.5-.74-.42-.34.09-.48.42-.42.74.44,2.44.88,4.88,1.18,7.34.02.13.06.25.13.35.21.99.55,1.96,1.02,2.85.55,1.03,1.29,1.93,2.11,2.75.26.26.53.52.76.8,0,0,0,0,0,0,0,0,0,0,0,0,.02.03.03.05.05.07.03.04.05.09.07.13,0-.01.01.04.03.08,0,0,0,0,0,.01,0,.02-.03.08-.03.11,0,0,0,0,0,0,0,.02-.02.03-.02.04-.06.06-.11.12-.17.17,0,0,0,0,0,.01,0,0-.01,0-.03.02-.06.04-.11.07-.17.11-.36.21-.56.28-1.01.41-.6.18-1.23.31-1.85.41-.02,0-.03,0-.05,0,0,0-.01,0-.02,0-.21.04-.36.23-.41.43,0,.02,0,.04-.01.05,0,.01,0,.02,0,.04,0,.02,0,.04,0,.05-.17,3.16-.82,6.31-2.19,9.18-.55,1.15-1.27,2.33-2.35,3.06-.52.35-1.11.59-1.75.63-.86.06-1.74-.09-2.59-.21-1.98-.28-3.94-.65-5.89-1.1-.75-.17-1.07.98-.32,1.15.29.07.58.13.86.19-1.26,2.61-2.75,5.1-4.45,7.44-.19.26-.04.67.21.82.3.18.63.05.82-.21,1.76-2.42,3.29-5,4.57-7.7.02-.03.03-.07.04-.1,1.14.23,2.29.43,3.45.61,1.74.26,3.56.63,5.19-.22,1.29-.67,2.24-1.9,2.92-3.15.79-1.45,1.36-3.05,1.79-4.64.46-1.71.71-3.47.83-5.24.89-.16,1.79-.37,2.6-.78.5-.25.98-.62,1.16-1.16.24-.69-.16-1.31-.61-1.8Zm-.57,1.52s-.02.03,0,0h0Z"/>
      <path class="cls-19" d="m68.2,144.05c-.63-.34-1.38-.25-2.06-.21-.84.04-1.68.09-2.53.13-1.65.09-3.3.18-4.95.26-1.82.1-3.63.19-5.45.29-2.79-3.29-5.12-6.92-7.33-10.61-2.25-3.78-4.4-7.63-6.89-11.26-1.26-1.83-2.72-3.66-4.78-4.62-.29-.14-.65-.08-.82.21-.15.26-.08.68.21.82,1.74.81,3.01,2.28,4.09,3.83,1.27,1.8,2.42,3.67,3.55,5.55,2.23,3.7,4.33,7.49,6.73,11.09,1.4,2.09,2.9,4.12,4.53,6.03,1.17,1.17,2.65,1.82,4.22,2.25,1.25.34,2.5.68,3.73,1.11.84,1.54,1.79,3.02,2.7,4.53.23.38.45.75.66,1.13.19.33.44.68.54,1.05.1.38-.18.74-.35,1.05-.27.48-.53.96-.8,1.44,0,0,0,.01,0,.02-.48-1.96-2.04-3.37-3.03-5.07-.39-.66-1.43-.06-1.03.6.89,1.51,2.29,2.78,2.83,4.48.22.7.29,1.45,0,2.13-.14.33-.35.61-.62.82,0,0,0,0,0,0-.02-.61-.35-1.13-.66-1.64-.7-1.14-1.47-2.24-2.29-3.3-.2-.26-.64-.21-.85,0-.25.25-.2.59,0,.85.62.8,1.2,1.63,1.75,2.49.27.42.58.85.77,1.31.15.37.03.68-.15,1.01-.76,1.4-2.26,2.3-3.85,2.27-.91-.01-1.77-.32-2.51-.84-.02-.11-.07-.21-.16-.3-.02-.02-.14-.12-.13-.15.05.07.06.08.04.04-.01-.02-.02-.03-.03-.05-.01-.02-.03-.04-.04-.07-.04-.06-.06-.12-.1-.18,0-.03-.02-.05-.03-.08-.02-.06-.04-.12-.05-.19,0-.03-.01-.06-.02-.1,0-.03-.04-.12,0-.04.03.08,0,0,0-.04,0-.04,0-.08,0-.12,0-.07,0-.13,0-.2,0-.03,0-.05,0-.08.01-.06.02-.12.04-.19.02-.06.04-.13.06-.19,0-.01.01-.03.02-.04,0-.01,0-.02.01-.03.03-.06.06-.11.09-.17.02-.03.04-.06.06-.09.09-.09.18-.19.28-.27.08-.06.12-.14.15-.24.39.51.78,1.01,1.17,1.52.1.13.19.23.36.28.14.04.33.02.46-.06.13-.08.24-.21.28-.36.03-.15.04-.34-.06-.46-.46-.6-.92-1.2-1.37-1.79-.09-.11-.17-.2-.3-.25-.09-.14-.25-.23-.47-.22-.01,0-.03,0-.06,0,0,0,0,0-.01,0-.02,0-.04,0-.06-.02-.05-.01-.1-.03-.15-.05-.03-.01-.06-.02-.09-.03,0,0,0,0,0,0-.28-.13-.55-.28-.81-.45-.34-.21-.67-.45-.99-.69-.08-.06-.15-.11-.22-.17,0,0-.07-.06-.09-.07-.04-.03-.08-.06-.11-.09-.19-.15-.38-.3-.56-.45-1.43-1.18-2.81-2.45-4.09-3.79-.27-.28-.53-.56-.79-.86-.1-.11-.19-.23-.29-.34,0,0,0,0-.01-.01,0,0,0,0-.01-.02-.03-.04-.06-.08-.09-.12-.05-.08-.12-.16-.22-.22-3.26-1.91-6.48-3.87-9.63-5.96-3.09-2.05-6.1-4.23-8.96-6.6-2.85-2.36-5.55-4.9-8.01-7.67-1.22-1.37-2.39-2.8-3.48-4.28-1.08-1.47-2.21-2.99-2.96-4.66-.38-.84-.68-1.7-1.02-2.55-.33-.83-.65-1.7-1.13-2.46-.22-.35-.53-.61-.88-.83-.28-.18-.56-.32-.75-.53,0,0-.05-.07-.06-.1,0-.01-.04-.14-.06-.2-.02-.11-.03-.13-.03-.2,0-.03,0-.15,0-.16,0-.01,0-.02.01-.04,0,.03-.01.06,0-.01,0,0,0,0,0-.01,0,0,.02-.02.03-.03.02-.01.03-.02.03-.03,0,0,0,0,.01,0,.03-.02.14-.08.16-.09.02,0,.14-.05.17-.06.07-.02.14-.05.21-.07.17-.05.35-.11.52-.16.02,0,.04-.02.06-.03.01,0,.03-.01.04-.02.01,0,.02-.01.03-.02.08-.05.16-.11.22-.21,1.41-2.28,3.01-4.44,4.68-6.54.2-.25.25-.6,0-.85-.21-.21-.64-.25-.85,0-1.68,2.12-3.3,4.28-4.74,6.57-.59.18-1.26.35-1.6.89-.42.69-.2,1.73.35,2.27.27.27.61.45.92.65.31.2.43.36.62.71.43.8.75,1.65,1.08,2.49.35.91.7,1.83,1.13,2.71.41.83.94,1.6,1.46,2.37,1.09,1.61,2.27,3.17,3.52,4.67,2.43,2.93,5.13,5.62,8.01,8.11,2.91,2.52,6,4.83,9.17,7.01,3.19,2.18,6.47,4.21,9.8,6.18.39.23.77.46,1.16.68.32.44.69.84,1.06,1.23.62.66,1.27,1.29,1.93,1.91,1.39,1.31,2.85,2.61,4.45,3.66.23.15.48.31.75.45-1.02.95-1.04,2.71-.12,3.73.03.16.14.31.28.42,1.67,1.29,4.03,1.47,5.89.49.87-.46,1.61-1.16,2.13-1.99,0-.02.02-.03.03-.05.04,0,.08,0,.13-.02.85-.19,1.56-.81,1.97-1.57.21-.4.33-.82.39-1.25,1.1-.84,1.79-2.07,2.3-3.34.27-.69.49-1.4.67-2.12.18-.7.4-1.45.44-2.17.06-.99-.89-1.69-1.59-2.23-.26-.2-.52-.37-.8-.54,1.24-.39,2.4-1.03,3.41-1.86.52-.43,1.01-.99,1.18-1.66.18-.7-.07-1.45-.73-1.81Zm-14.48,15.11s-.05,0-.05,0c0,0,.03,0,.05,0ZM8.22,115.52s.03-.03,0,0h0Zm57.01,36.06c.1.1.23.21.28.34.07.16,0,.36-.03.53-.06.31-.13.63-.2.94-.07.31-.14.61-.22.91-.21-.38-.43-.76-.65-1.13-.7-1.19-1.45-2.35-2.15-3.54,1.09.49,2.12,1.12,2.97,1.96Zm2.57-6.1s-.05.16-.07.22c-.11.26-.3.49-.49.69-1.01.99-2.38,1.65-3.73,1.99-.21.05-.33.18-.39.33-.05-.02-.1-.05-.15-.07-1.53-.72-3.17-1.25-4.81-1.69-.84-.22-1.7-.43-2.51-.74-.38-.15-.75-.33-1.09-.55,2.5-.13,5.01-.27,7.51-.4,1.54-.08,3.08-.17,4.62-.25.35-.02.95-.09,1.1.27,0,0,0,.07,0,.07,0,.04,0,.09,0,.13Z"/>
      <path class="cls-22" d="m103.44,45.03c-.88,2.12-2.44,3.93-4.36,5.19-.95.62-1.98,1.1-3.06,1.42-1.27.37-2.55.4-3.85.55s-2.59.54-3.36,1.62l.15.04c.12-1.18.91-2.12,1.76-2.88.93-.83,1.96-1.56,2.97-2.28,2.12-1.51,4.34-2.87,6.63-4.09.33-.17.66-.34.99-.51s.67-.36,1.04-.44c.35-.07.78-.01.87.38.06.23,0,.56-.3.56-.11,0-.11.17,0,.17.36,0,.51-.34.48-.67-.06-.5-.52-.69-.98-.62-.29.04-.57.17-.83.3-.36.18-.72.36-1.08.55-.67.35-1.34.72-2,1.09-2.61,1.49-5.15,3.17-7.48,5.07-1.06.87-2.1,1.94-2.24,3.37,0,.09.11.1.15.04.82-1.14,2.27-1.46,3.59-1.58,1.24-.12,2.45-.19,3.64-.55,2.11-.64,4.03-1.9,5.48-3.56.81-.93,1.47-1.98,1.94-3.12.04-.1-.12-.14-.16-.04h0Z"/>
      <path class="cls-22" d="m102.92,44.68c.49.04.54-.82.1-1.04s-.96,0-1.4.21c-3.6,1.79-7.01,3.94-10.18,6.41-.74.58-1.5,1.24-2,2.02-.05-.05-.1-.09-.17-.11-.19-.14-.44-.17-.66-.05-.05.03-.11.06-.16.08,0,0-.01,0-.02,0-.03.01-.06.02-.1.03-.07.02-.15.04-.23.05-.03,0-.07.01-.1.02,0,0-.04,0-.06,0-.02,0-.04,0-.04,0-.03,0-.07,0-.1.01-.07,0-.14.01-.21.02-.14.01-.28.02-.43.03-.63.07-1.25.22-1.73.67-.12.12-.18.29-.17.46,0,0,0,0,0,0,0,.15,0,.29,0,.44,0,.06,0,.13-.02.19,0,.02-.01.09-.01.12-.04.26-.1.52-.17.77-.04.12-.08.24-.12.36,0,.02-.05.13-.06.14-.02.06-.05.11-.08.17-.1.2-.21.39-.33.58-.02-.01-.05-.02-.07-.04-.67-.37-1.28.66-.6,1.03,1.34.75,2.98.47,4.06-.6.94-.93,1.77-2.23,1.8-3.6.51-.34,1.11-.57,1.72-.69.97-.2,1.97-.2,2.95-.32,4.01-.5,7.65-3.28,9.19-7.02l-.59-.38Z"/>
      <path class="cls-15" d="m105.46,43.09c0-.1-.03-.2-.07-.3-1.75-3.96-3.41-7.95-4.97-11.99-.42-1.09-.83-2.18-1.24-3.27,2.03-3.15,3.53-6.65,4.4-10.3.82-3.41,1.49-7.6-.62-10.69-1.66-2.43-4.6-3.57-7.47-3.61-3.32-.05-6.31,1.45-8.81,3.54-2.72,2.27-4.8,5.16-6.97,7.92-1.1,1.4-2.25,2.78-3.52,4.04-1.29,1.27-2.7,2.34-4.29,3.22-1.66.92-3.34,1.77-4.74,3.09-1.33,1.26-2.4,2.77-3.4,4.3-1.14,1.73-2.26,3.47-3.39,5.2-1.05,1.62-2.16,3.23-2.95,5-.79,1.75-1.25,3.63-.94,5.55.26,1.56,1.1,3.04,2.28,4.09.6.54,1.28.96,2.02,1.27.77.31,1.59.42,2.41.43,1.61.02,3.33-.36,4.63-1.35.26-.2.5-.42.72-.67.86,2.16,1.75,4.31,2.66,6.45.49,1.15.99,2.29,1.49,3.44.07.15.21.24.36.27-.13.4.18.94.71.79,1.61-.43,3.18-.99,4.71-1.65.3-.13.36-.56.21-.82-.13-.21-.33-.29-.54-.28l1.06-.37c.16-1.23.93-2.05,1.77-2.48.84-.43,2.48.44,2.48.44l.23-.08c0,.09.03.19.07.27.17.29.53.36.82.21,2.66-1.33,5.27-2.75,7.91-4.12,2.75-1.43,5.49-2.85,8.24-4.28,1.54-.8,3.07-1.6,4.61-2.39.38-.2.36-.61.15-.87Zm-31.17,15.03l3.03-1.06c-.99.4-2,.76-3.03,1.06Z"/>
      <path class="cls-19" d="m84.24,54.3c-.86-.76-2.09-.95-3.16-.56-1.14.42-1.96,1.37-2.22,2.56-.58,2.6,1.23,4.87,3.45,5.97.73.36,1.59.67,2.39.31.68-.3,1.13-1.06.91-1.79s-1.37-.42-1.15.32c.03.1.02.14-.05.23-.11.15-.27.2-.45.21-.47.02-.95-.25-1.35-.47-.79-.43-1.53-1.01-2.03-1.77-.88-1.33-.96-3.51.63-4.33.69-.36,1.61-.35,2.19.16s1.42-.33.85-.85h0Z"/>
      <g>
        <path class="cls-6" d="m90.63,29c-.31-.25-1.33.65-3.16,1.55-1.79.92-4.53,1.76-7.49,1.44-.05,0-.3-.03-.47-.03-.18,0-.37.02-.55.05-.36.07-.71.21-1.01.4-.62.38-1.08.98-1.29,1.64-.05.15-.09.36-.11.47l-.04.26c-.03.17-.06.34-.1.51-.07.34-.15.66-.24.98-.35,1.27-.86,2.37-1.34,3.27-.98,1.8-1.88,2.83-1.63,3.14.2.28,1.6-.26,3.18-2.04.77-.89,1.56-2.09,2.13-3.57.14-.37.28-.75.39-1.16.06-.2.11-.4.16-.61l.07-.31c.02-.07.02-.06.03-.09.04-.08.1-.15.18-.2.04-.02.08-.04.13-.04.02,0,.04,0,.07,0,.04,0,0,0,.15.01,1.86.2,3.64-.04,5.15-.54,1.51-.49,2.76-1.23,3.67-1.98,1.85-1.52,2.39-2.95,2.11-3.15Z"/>
        <path class="cls-14" d="m88.5,49.3c.32-.19-.84-2.7-2.59-5.59-1.75-2.9-3.42-5.09-3.74-4.9-.32.19.84,2.7,2.59,5.59,1.75,2.9,3.42,5.09,3.74,4.9Z"/>
        <path class="cls-14" d="m93.76,43.52c.33-.17-.03-1.49-.8-2.94-.77-1.45-1.66-2.48-1.99-2.3s.03,1.49.8,2.94c.77,1.45,1.66,2.48,1.99,2.3Z"/>
        <path class="cls-14" d="m99.65,39.19c.35-.13.28-1.14-.15-2.25-.43-1.11-1.06-1.89-1.4-1.76-.35.13-.28,1.14.15,2.25.43,1.11,1.06,1.89,1.4,1.76Z"/>
        <path class="cls-14" d="m79.66,50.34c.33-.16-.07-1.67-.89-3.36-.83-1.7-1.77-2.94-2.1-2.77s.07,1.67.89,3.36c.83,1.7,1.77,2.94,2.1,2.77Z"/>
        <path class="cls-14" d="m73.87,51.85c.34-.15.23-1.11-.24-2.13-.47-1.02-1.12-1.73-1.46-1.57-.34.15-.23,1.11.24,2.13.47,1.02,1.12,1.73,1.46,1.57Z"/>
      </g>
      <path class="cls-7" d="m60.38,95.06c-.64-.45-4.18,3.54-8.84,8.08-3.82,3.76-7.25,6.77-8.1,8.07-.08-.08-.16-.16-.25-.25-1.99-1.94-5.04-4.35-8.74-6.47-3.7-2.11-7.32-3.52-10.01-4.25-2.69-.74-4.43-.87-4.52-.54-.2.73,6.15,2.94,13.24,7.03,5.14,2.91,9.23,5.99,11.32,7.28-.3,0-.7.12-1.17.36-.79.41-1.7,1.14-2.55,2.05-.85.91-1.5,1.79-1.91,2.49-.41.7-.59,1.25-.37,1.53.21.28.84.22,1.62-.19.79-.41,1.7-1.14,2.55-2.05.85-.91,1.5-1.79,1.91-2.49.35-.6.53-1.09.44-1.4.5.28.83.39.94.27.2-.21-.49-1.28-1.93-2.79,1.62-.49,5.56-2.89,9.44-6.7,4.87-4.74,7.53-9.63,6.92-10.04Z"/>
    </g>
  </g>
</svg>