<svg xmlns="http://www.w3.org/2000/svg" viewBox="0 0 200 200"><defs><style>.cls-1{fill:none}.cls-2{fill:#f2a6b0}.cls-3{fill:#f6c243}.cls-4{fill:#eed7d3}.cls-5{fill:#fff}.cls-6{fill:#ffcf4e}.cls-8{fill:#efedea}.cls-9{fill:#e5b342}.cls-10{fill:#ff8000}.cls-11{fill:#a0b4b5}.cls-12{fill:#a08675}.cls-13{fill:#c1dade}.cls-16{fill:#afcbcd}.cls-18{fill:#bbdbdf}.cls-21{fill:#705e55}.cls-22{fill:#5b3d5b}.cls-24{fill:#78577a}</style></defs><path id="BG_Strong" d="M181.1 70.98c-11.31-32.03-40.32-19.6-64.94-19.26C65.26 15.49-4.11 49.45 8.49 114.61c26.95 47.15 42.68 41 89.82 25.85 19-2 36.71 6.21 55.85 1.45 32.19-8.01 55.95-45.61 26.94-70.95Z" style="fill:#575655"/><g id="Illustrations"><g id="Stars"><path d="M86.76 20.75c.05.18.16.3.31.37.03.03.07.05.11.07 1.05.45 2.05 1.04 2.96 1.73 3.09 2.38 5.2 6.12 5.52 9.99.03.32.25.6.6.6.19 0 .39-.11.5-.27.09-.07.15-.17.17-.28.18-1.16.44-2.3.81-3.41.62-1.84 1.59-3.58 2.96-4.96 1.28-1.29 2.88-2.24 4.67-2.62.03 0 .05-.02.08-.03.28-.03.51-.33.51-.6 0-.35-.28-.57-.6-.6-.98-.1-1.98-.45-2.85-.95-3.59-2.05-5.05-6.21-5.42-10.11-.03-.32-.25-.6-.6-.6-.06 0-.13.01-.19.04-.26 0-.53.17-.59.44-.26 1.15-.51 2.3-.86 3.42-.54 1.76-1.34 3.49-2.65 4.82-.6.61-1.29 1.11-2.07 1.45-.93.41-1.95.57-2.94.75-.32.06-.5.45-.42.74Zm9.58 9.3s-.01-.04-.02-.06h.04s-.01.04-.02.06Z" class="cls-13"/><path d="M170.08 31.09c.04.13.12.22.22.26.02.02.05.04.08.05.76.33 1.48.75 2.14 1.25 2.24 1.72 3.77 4.43 3.99 7.23.02.23.18.43.43.43.14 0 .28-.08.36-.19a.32.32 0 0 0 .12-.21c.13-.84.32-1.66.59-2.47.45-1.33 1.15-2.59 2.14-3.59.93-.94 2.09-1.62 3.38-1.9.02 0 .04-.01.05-.02.21-.02.37-.24.37-.43 0-.25-.2-.41-.43-.43-.71-.07-1.43-.32-2.06-.68-2.6-1.48-3.65-4.49-3.93-7.32-.02-.23-.18-.43-.43-.43-.05 0-.09.01-.14.03-.19 0-.38.12-.42.32-.18.83-.37 1.66-.62 2.48-.39 1.28-.97 2.53-1.92 3.49-.43.44-.93.8-1.5 1.05-.67.3-1.41.41-2.13.54-.23.04-.36.32-.3.53Zm6.93 6.73s0-.03-.01-.05h.03s0 .03-.01.05Z" class="cls-2"/><path d="M14.52 38.11c.03.12.11.21.21.25.02.02.05.04.08.05.73.31 1.42.71 2.04 1.2 2.13 1.64 3.59 4.22 3.81 6.9.02.22.17.41.41.41.13 0 .27-.08.35-.18.06-.05.1-.12.12-.2.12-.8.3-1.59.56-2.35.43-1.27 1.09-2.47 2.04-3.42.89-.89 1.99-1.55 3.22-1.81.02 0 .04-.01.05-.02.19-.02.35-.22.35-.41 0-.24-.19-.39-.41-.41a5.15 5.15 0 0 1-1.97-.65c-2.48-1.42-3.48-4.28-3.75-6.98-.02-.22-.17-.41-.41-.41-.04 0-.09.01-.13.03a.43.43 0 0 0-.41.3c-.18.79-.35 1.59-.59 2.37-.37 1.22-.92 2.41-1.83 3.33-.41.42-.89.77-1.43 1-.64.28-1.35.4-2.03.51-.22.04-.34.31-.29.51Zm6.61 6.42s0-.03-.01-.04h.03s0 .03-.01.04Z" class="cls-10"/><path d="M105.15 111.08c.04.15.14.25.26.3l.09.06c.87.38 1.7.86 2.45 1.44 2.56 1.97 4.31 5.07 4.57 8.28.02.27.21.5.5.5.16 0 .32-.09.41-.22.07-.06.13-.14.14-.24.15-.96.36-1.91.67-2.82.52-1.52 1.31-2.96 2.45-4.11 1.06-1.07 2.39-1.86 3.87-2.17.02 0 .04-.01.06-.02.23-.03.42-.27.42-.49 0-.29-.23-.47-.5-.5-.81-.08-1.64-.37-2.36-.78-2.97-1.7-4.18-5.14-4.49-8.38-.03-.27-.21-.5-.5-.5-.05 0-.11.01-.16.03-.22 0-.44.14-.49.36-.21.95-.42 1.91-.71 2.84-.45 1.46-1.11 2.89-2.19 3.99-.49.5-1.07.92-1.71 1.2-.77.34-1.62.48-2.44.62-.27.05-.41.37-.35.61Zm7.94 7.71s-.01-.04-.01-.05h.03s-.01.04-.01.05Z" class="cls-3"/></g><path d="M29.67 185.51zM56.14 172.17c-.76-.85-1.64-1.6-2.59-2.22-.46-.3-.95-.57-1.45-.81-.3-.14-.62-.32-.97-.32-.05 0-.1 0-.16.01-.41-.51-.88-.97-1.38-1.4a.666.666 0 0 0-.44-.18c-.15 0-.34.07-.44.18-.18.19-.24.51-.11.75l-11.57 4.99a.643.643 0 0 0-.31-.2.618.618 0 0 0-.48.06c-.13.08-.27.22-.29.37-.08.52-.14 1.05-.24 1.57-.76 1.58-1.55 3.29-2.38 5.13-.03.03-.06.07-.09.11-1.1 1.69-2.26 3.34-3.47 4.95-.03.03-.05.07-.06.11-.03.07-.05.16-.04.25.11.93.33 1.83.69 2.7.04.09.08.17.14.24.05.08.12.16.21.22 1.89 1.2 4.2 2.01 6.47 1.79 1.18-.11 2.29-.48 3.29-1.12 1-.64 1.89-1.43 2.73-2.24.84-.81 1.62-1.7 2.21-2.71.5-.85.84-1.8 1.35-2.65.22-.36.47-.7.8-.96.37-.29.89-.44 1.39-.51.57-.08 1.14-.11 1.69-.27a5.7 5.7 0 0 0 1.51-.67c2.32-1.43 3.43-4 4.28-6.48.09-.26-.05-.55-.28-.7ZM91.45 177.74v-.05c-.28-.89-.68-1.74-1.2-2.51a.752.752 0 0 0-.15-.16.515.515 0 0 0-.27-.15c-1.91-.42-3.8-.91-5.67-1.46-.01 0-.03-.02-.04-.03-.79-.37-1.58-.75-2.38-1.12-.16-.07-.31-.11-.48-.06a.6.6 0 0 0-.37.29c-.02.04-.04.08-.05.13l-16.15.72c-.02-.26-.17-.51-.45-.57-.31-.07-.7.09-.77.44-.2.98-.36 2-.33 3.01-.07-.02-.09-.02-.03.03-.01 0-.03.02-.04.03-.23.19-.36.45-.49.72-.26.56-.48 1.13-.66 1.72-.34 1.12-.52 2.3-.54 3.47-.06.24 0 .5.28.66 2.03 1.2 4.27 2.34 6.7 2.2 1.18-.06 2.25-.43 3.23-1.08.42-.28.85-.61 1.34-.76.49-.15.98-.12 1.47 0 1.1.28 2.08.89 3.15 1.26 1.17.4 2.42.56 3.66.62 1.24.06 2.51.08 3.74-.16 1-.2 1.97-.62 2.79-1.23 1.84-1.36 3.05-3.4 3.72-5.57.04-.14.04-.27 0-.38Z" class="cls-18"/><g id="Girls_top_arm_2"><path d="M39.4 79.29s-.51-4.91-.61-6.88c-.1-1.97-.34-5.3-.33-6.9 0-1.61 5.11-15.4.6-13.39-4.52 2-6.28 3-7.62 5.55s-1.92 5.13-2.35 7.18.13 10.42.84 12.82c.71 2.4 1.23 4.34 2.76 6.7 1.53 2.36 4.55 2.5 5.93 1.02s.98-4.08.78-6.11Z" class="cls-4"/><path d="M35.12 86.29c-1.84-1.69-3.03-3.94-3.85-6.28-.85-2.46-1.36-5.04-1.73-7.61-.8-5.52-.1-11.55 3.57-15.98.51-.62 1.07-1.19 1.69-1.7.32-.27.65-.53 1.01-.74.22-.13.57-.3.73-.36.86-.36 1.78-.64 2.68-.88.78-.21.45-1.42-.33-1.21s-1.58.46-2.35.75c-.61.23-1.21.5-1.75.88-.64.45-1.24.97-1.79 1.52-2.09 2.13-3.55 4.9-4.29 7.78-.75 2.9-.86 5.96-.54 8.94.29 2.72.8 5.47 1.61 8.08.79 2.55 1.94 5.06 3.77 7.04.22.24.45.46.68.68.25.23.64.25.89 0 .23-.23.25-.66 0-.89Z" class="cls-22"/><path d="M40.42 79.53c-.42-3.71-.7-7.44-1.05-11.16-.09-1.02-.19-2.05-.29-3.07-.03-.34-.26-.63-.63-.63-.31 0-.66.29-.63.63.39 3.97.72 7.94 1.1 11.92.07.77.15 1.54.24 2.32.04.34.26.63.63.63.31 0 .67-.29.63-.63Z" class="cls-22"/></g><g id="Girls_arm_1"><path d="M66.82 47.83c2.06-.31 7.06 1.93 9.38 3.59 2.32 1.66 6.01 4.61 7.36 5.91s4.22 4.48 4.22 4.48 4.77 2.89 6.37 4.07 7.41 5.94 8.22 6.71 1.96 1.94 1.96 1.94 4.6 1.64 5.47 2.13 1.22 1.24 1.22 1.24-.78.68-.66 1.44.42 1.01.53 1.51.84.35.13 1.12c-.71.77-.57 1.34-.57 1.34s.95 3.88 1.03 4.88c.08 1 .79 1.54-.02 2.01s-1.18.35-1.42-.29-1.13-3.41-1.5-3.7-1.65-1.32-1.65-1.32.03 1.97.1 2.6.49 1.92-.06 2.01-.86-.19-1.28-1.07c-.42-.88-2.35-3.35-2.35-3.35s-1.27-2.13-1.26-2.9-.26-2.36-.26-2.36-7.58-3.24-9.49-4.22-6.47-3.55-7.49-4.42c-1.02-.87-2.97-2.83-4.19-3.32-1.22-.5-3.31-1.02-4.49-1.68s-2.28-1.76-2.28-1.76-9.06-5.19-10.02-6.21c-2.09-2.24-2.26-5.84-1.63-7.54.63-1.7 3.13-2.61 4.65-2.84Z" class="cls-4"/><path d="M112.16 89.28c-.03-.44-.06-.85-.1-1.28-.08-.84-.19-1.69-.41-2.51-.11-.41-.25-.81-.41-1.2-.14-.33-.33-.68-.37-1.05-.05-.36.16-.58.36-.89.23-.34.41-.73.37-1.15s-.21-.77-.42-1.12c-.08-.13-.16-.26-.22-.4 0 0-.02-.08-.03-.13v-.03a.585.585 0 0 0 .03-.17c.01 0 .05-.17.02-.09.03-.06.07-.12.1-.17.09-.14.19-.26.27-.4.22-.35.33-.76.24-1.17-.17-.77-.91-1.18-1.58-1.45-1.74-.71-3.5-1.37-5.26-2.06a.292.292 0 0 0-.09-.02c-1.99-2.09-4.22-3.91-6.43-5.74a66.087 66.087 0 0 0-6.15-4.52c-1.29-.83-2.59-1.62-3.9-2.41-1-1.29-2.13-2.47-3.3-3.6a65.299 65.299 0 0 0-4.22-3.75c-1.32-1.08-2.68-2.13-4.11-3.07-1.87-1.23-3.83-2.38-5.96-3.07-1.12-.36-2.32-.61-3.5-.54-1.03.06-2.13.24-3.05.74-.71.39-.08 1.47.63 1.08.29-.16.58-.25.98-.35.42-.11.84-.18 1.27-.21.98-.07 1.94.08 2.88.35 2.05.58 3.93 1.67 5.72 2.82 2.88 1.86 5.52 4.07 8.01 6.44.71.67 1.4 1.35 2.06 2.06.31.33.62.67.91 1.01.13.16.27.31.4.48.07.08.13.16.2.24.03.03.05.06.08.1.08.1-.04-.05.05.06l.02.02a.7.7 0 0 0 .21.21c2.2 1.34 4.41 2.67 6.51 4.17 2.1 1.5 4.19 3.27 6.22 4.99 1.29 1.09 2.53 2.24 3.69 3.46.13.14.28.19.42.19.04.02.08.05.13.06s4.81 1.88 4.81 1.88c.32.13.53.19.82.37.11.07.18.11.28.23 0 0 .02.03.02.04 0 .02.02.18.02.07v.05l-.03.05c.04-.09-.05.09-.05.09-.07.12-.15.23-.23.34-.17.25-.29.51-.34.8s0 .03 0 .05c-.16.67.21 1.19.51 1.76.07.13.06.1.1.25 0 .02 0 .02.01.03v.09s-.01.02-.02.06c-.06.22-.32.51-.46.75-.41.73-.26 1.49.05 2.23s.54 1.4.68 2.15.22 1.52.27 2.29c.02.31.08.65.04.96-.02.13-.06.22-.13.28-.08-.13-.25-.53-.27-.6l-.48-1.26c-.28-.75-.54-1.52-.88-2.24-.32-.67-.84-1.11-1.51-1.4-.32-.14-.5-.19-.82-.37l-.15-.09c-.01 0-.03-.02-.03-.02-.02-.02-.05-.04-.07-.06l-.07-.08-.03-.06v-.02c-.11-.32-.43-.53-.77-.44-.31.09-.55.45-.44.77.12.37.34.64.61.86 0 .04 0 .09.02.14.27 1.03.46 2.09.54 3.15 0 .09.01.19.02.28-.06-.1-.11-.19-.17-.29-.25-.44-.5-.88-.8-1.29-.32-.43-.68-.82-1.02-1.22-.59-.7-1.08-1.51-1.43-2.37-.35-.88-.57-1.81-.63-2.76.03-.03.06-.07.08-.11.16-.27.09-.72-.23-.86-3.09-1.4-6.15-2.86-9.18-4.39-2.75-1.38-5.59-2.75-8.01-4.69-1.19-.96-2.22-2.15-3.54-2.96-1.31-.81-2.83-1.13-4.25-1.65-1.29-.48-2.37-1.3-3.48-2.08-.81-.57-1.65-1.09-2.48-1.62-1.78-1.12-3.62-2.16-5.37-3.33-.28-.19-.7-.05-.86.23-.18.31-.06.67.23.86 1.52 1.02 3.11 1.92 4.66 2.89.9.56 1.79 1.12 2.67 1.7 1.01.68 1.96 1.45 3.05 2.01 1.37.71 2.91.98 4.31 1.61 1.4.63 2.36 1.65 3.46 2.62 2.33 2.07 5.11 3.53 7.87 4.94 3.23 1.64 6.5 3.21 9.8 4.72.12 2.25.98 4.4 2.43 6.12.36.43.75.84 1.06 1.31.31.48.58 1.01.89 1.5.31.49.75 1.16 1.45.94.55-.17.76-.8.76-1.33 0-1.11-.17-2.24-.41-3.34.23.12.43.27.57.49.19.3.3.62.42.95l.48 1.26.5 1.31c.15.38.27.78.54 1.09.61.71 1.67.47 2.1-.3.22-.39.24-.86.22-1.3Zm-5.27 0Zm3.85.79h.03c-.01.01-.03.03-.03 0Zm.05 0s.04.02.03.02c0 0-.02 0-.03-.02Z" class="cls-22"/><path d="m85.32 66.2.85-1.17c.09-.13.1-.34.06-.48s-.15-.3-.29-.37c-.15-.08-.32-.12-.48-.06l-.15.06c-.09.06-.17.13-.23.23l-.85 1.17c-.09.13-.1.34-.06.48s.15.3.29.37c.15.08.32.12.48.06l.15-.06c.09-.06.17-.13.23-.23Z" class="cls-22"/></g><g id="Girls_Torso"><path d="M71.81 80.63s-.94-2.61-1.16-4.17c-.22-1.56.04-4.22.04-4.22s-2.15-7.54-14.42-5.74C44 68.31 39.68 72.59 39.75 75.44c.07 2.84 3.71 12.17 3.85 12.43 2.28 4.27 8.69 6.88 16.45 6.86 7.76-.01 12.33-8.61 11.75-14.09ZM61.75 54.22c.15-1.03-.32-3.45-.4-4.41s-.55-2.66-.55-2.66-2.87.08-3.59.05-8.16.75-10.84 1.62c-2.68.87-4.3 1.53-4.3 1.53s.45 3.4.52 4.52.58 2.46 1.67 2.87 1.97.38 4.15.23 7.26-.74 8.68-1.11c1.42-.37 4.53-1.66 4.67-2.65Z" class="cls-4"/><path d="M72.49 72.05v.01-.01zM74.93 59.95c-.2-3.05-1.73-5.77-3.4-8.25-.91-1.36-1.81-2.82-2.97-3.99-.42-.48-.86-.95-1.32-1.4a.616.616 0 0 0-.4-.18h-.04c-1.8-.23-3.64-.31-5.45-.18-.17.01-.33.08-.45.2-.18.11-.31.31-.29.52l.4 3.8.2 1.85c.05.47.1.94.08 1.42-.02.38-.1.75-.33 1.08s-.67.53-1.07.67c-1.14.39-2.32.68-3.49.95-2.34.54-4.72.9-7.11 1.07-1.14.08-2.3.18-3.44.06-.88-.09-1.78-.42-2.27-1.15-.58-.88-.7-2.02-.85-3.07-.18-1.24-.26-2.49-.26-3.74 0-.04 0-.07-.01-.11 0-.05 0-.09-.02-.14-.08-.31-.45-.56-.77-.44-1.92.72-3.79 1.58-5.57 2.59-.16.04-.3.13-.37.28-.31.69-.5 1.41-.71 2.14-.06.19-.11.38-.17.57-.3.97-.65 1.92-.94 2.9-.21.71-.37 1.44-.49 2.17v.04c-.01.05-.02.09-.02.14l-.06.4c-.25 1.91-.26 3.84.05 5.74 0 .05 0 .1.02.16.69 2.48 2.03 4.75 3.28 6.99.02.04.05.08.08.11.01.03.02.07.04.1.26.47.52.95.77 1.43.11.23.22.45.33.68.06.13.12.25.17.38.03.06.06.13.09.2.01.03.03.07.04.1q-.03-.06 0 0s.04.09.06.13c.07.27.32.5.61.48 4.34-.3 8.67-.67 12.99-1.13 4.29-.46 8.56-1 12.82-1.63 2.44-.36 4.88-.74 7.31-1.15.13-.02.23-.1.31-.19.13-.12.22-.28.21-.46-.19-1.78-.38-3.61.14-5.35 1.81-1.67 2.45-4.36 2.3-6.75Z" class="cls-24"/><path d="M68.74 68.65c-.82.21-1.64.42-2.46.61-2.03.48-4.07.91-6.12 1.3.04.48.07.96.1 1.43.05.81.09 1.63.12 2.44 2.92-.4 5.45-.76 6.44-.94.46-.08 1.04-.17 1.64-.27.13-1.47.22-2.94.28-4.41v-.17ZM37.29 59.81c.16-2.1.5-4.19.99-6.24-1.06.08-2.11.14-3.17.2-.45 1.26-1 2.85-1.36 4.14-.33 1.15-.48 2.47-.54 3.67 1.33-.08 2.67-.17 4-.26.02-.5.05-1 .09-1.5ZM39.4 49.82c-.18.08-.37.16-.55.24-1.22.54-2.93 1.51-2.93 1.51s-.13.33-.32.85c1.01-.06 2.02-.12 3.04-.2a42 42 0 0 1 .76-2.41ZM39.84 72.44c-.74-.05-1.48-.12-2.21-.21.17.13.32.29.42.46.28.44 1.74 3.85 1.74 3.85s.4-.12 1.48-.19c.18-.01.56-.04 1.08-.08-.47-.72-.94-1.44-1.42-2.16-.36-.55-.73-1.11-1.09-1.67ZM37.92 68.63c-.31-.95-.48-1.93-.6-2.91-.12-1.02-.16-2.04-.16-3.07-1.34.09-2.67.18-4 .26 0 .9.02 1.63.04 1.98.04.93.82 2.99 1.75 4.91.13.27.24.51.35.73 1.23.24 2.47.41 3.71.52-.44-.77-.81-1.58-1.09-2.43ZM42.16 51.92c.14-.01.28-.03.42-.04-.02-.44-.03-.88-.03-1.32 0-1.59-.31-1.79-.72-1.68a7.5 7.5 0 0 0-.78.27c-.38.98-.71 1.97-1.01 2.97.71-.06 1.42-.12 2.12-.19ZM47.52 60.42c3.31-.36 6.6-.81 9.88-1.38-.05-.31-.1-.62-.15-.92l-.3-1.75c-2.61.5-6.51 1.09-8.64 1.26-.38.03-.73.05-1.07.05.03.61.08 1.22.16 1.83.04.3.08.61.13.91ZM39.35 54.8c-.41 1.89-.67 3.8-.79 5.73-.01.23-.03.46-.04.69.99-.07 1.97-.15 2.96-.23 1.57-.13 3.15-.28 4.72-.44-.09-.6-.17-1.2-.23-1.8-.04-.38-.06-.77-.08-1.15-1.51-.19-2.44-.83-2.77-2.08-.22-.82-.36-1.6-.44-2.34-1.01.1-2.02.19-3.03.28-.11.44-.22.89-.32 1.34ZM48.99 61.58c-.42.05-.84.09-1.26.14.22 1.24.5 2.48.79 3.7.43 1.81.94 3.61 1.55 5.37 2.91-.32 5.8-.8 8.68-1.32-.27-3.05-.66-6.09-1.14-9.12-2.86.5-5.74.9-8.62 1.23ZM63.78 45.94c-.84-.03-1.62-.05-2.01-.05-1.01-.01-1.3.46-.98 1.26.14.35.19.98.24 1.75 1.3-.29 2.6-.6 3.89-.92-.35-.7-.74-1.38-1.15-2.05ZM41.47 72.52c.79 1.22 1.6 2.43 2.39 3.64 1.82-.14 4.32-.34 6.74-.56-.52-1.11-1-2.25-1.43-3.4-2.56.26-5.14.4-7.71.32ZM72.22 69.59c0-.41.02-1.3.07-1.94-.73.22-1.47.44-2.21.64-.04 1.58-.14 3.16-.27 4.74.92-.14 1.73-.27 2.06-.34.68-.16.6-.5.6-.5s-.23-2.06-.23-2.61ZM65.93 58.6c-2.32.58-4.67 1.08-7.02 1.51.28 1.82.54 3.63.76 5.46.15 1.22.27 2.43.38 3.66 2.93-.55 5.85-1.18 8.72-1.95.04-3.1-.13-6.21-.64-9.26-.73.2-1.47.4-2.21.58ZM47.06 64.98c-.23-1.03-.45-2.07-.64-3.12-2.64.27-5.29.5-7.93.69-.01 1.22.04 2.44.22 3.63.14.94.37 1.87.72 2.75.31.78.73 1.52 1.17 2.23.89.04 1.78.06 2.67.05 1.82-.02 3.63-.13 5.44-.3-.01-.04-.03-.07-.04-.1-.65-1.92-1.18-3.87-1.62-5.84ZM58.86 70.81c-2.77.5-5.55.91-8.33 1.24.44 1.16.93 2.3 1.47 3.42 1.2-.12 2.35-.24 3.33-.36 1.23-.15 2.5-.32 3.73-.48l-.03-.85c-.04-.99-.1-1.98-.18-2.97ZM67.9 56.71l-.18-.83c-.51-2.29-1.24-4.54-2.21-6.67l-.46.12c-1.31.32-2.62.63-3.94.92.05.71.11 1.46.23 2.2.35 2.17-.5 2.89-2.13 3.41-.24.08-.57.16-.98.25.16.9.32 1.8.46 2.71 3.09-.57 6.17-1.26 9.2-2.11ZM69.99 62.7c.09 1.4.12 2.81.11 4.21 1.05-.3 2.1-.61 3.14-.94.02-.03.05-.05.07-.08.35-.44.89-1.62 1.24-2.47s.47-3.34 0-5.63c-.1-.47-.3-1.02-.56-1.61-1.51.53-3.04 1.03-4.58 1.48.28 1.67.47 3.36.58 5.04ZM36.62 72.1c-.18-.03-.36-.05-.53-.08.16.16.32.18.53.08ZM68.06 47.17c-.41-.47-.77-.82-1-.92-.23-.1-.9-.18-1.69-.23.31.54.6 1.08.87 1.63l1.82-.48ZM67.45 50.39c.75 1.93 1.31 3.92 1.72 5.95 1.42-.42 2.84-.87 4.24-1.36-1.05-1.97-2.51-4.06-3.19-5-.38-.52-.81-1.12-1.25-1.69-.72.2-1.43.39-2.15.58.22.5.43 1.01.63 1.52Z" class="cls-1"/><path d="M72.29 67.65c.01-.21.03-.38.05-.51.07-.49.55-.78.9-1.17-1.04.33-2.09.64-3.14.94.01-1.4-.02-2.81-.11-4.21-.11-1.69-.3-3.37-.58-5.04 1.54-.45 3.07-.94 4.58-1.48-.17-.39-.37-.79-.59-1.19-1.4.49-2.82.94-4.24 1.36a37.15 37.15 0 0 0-1.72-5.95c-.2-.51-.41-1.02-.63-1.52.72-.19 1.44-.38 2.15-.58-.31-.41-.62-.79-.91-1.12l-1.82.48c-.27-.55-.57-1.1-.87-1.63-.5-.03-1.06-.06-1.59-.08.41.67.79 1.35 1.15 2.05-1.29.32-2.59.63-3.89.92.03.41.05.86.08 1.34 1.31-.29 2.63-.6 3.94-.92l.46-.12c.97 2.14 1.69 4.38 2.21 6.67l.18.83c-3.03.84-6.1 1.53-9.2 2.11-.15-.9-.31-1.81-.46-2.71-.37.08-.81.17-1.29.27.1.58.21 1.16.3 1.75.05.31.1.62.15.92-3.28.57-6.58 1.02-9.88 1.38-.05-.3-.09-.61-.13-.91-.08-.61-.13-1.22-.16-1.83-.48 0-.93-.01-1.33-.07.02.38.04.76.08 1.15.06.6.14 1.2.23 1.8-1.57.16-3.15.31-4.72.44-.99.08-1.97.16-2.96.23.01-.23.02-.46.04-.69.11-1.93.38-3.84.79-5.73.1-.45.21-.89.32-1.34 1.01-.08 2.02-.18 3.03-.28-.05-.44-.09-.88-.11-1.31-.14.01-.28.03-.42.04-.71.07-1.42.13-2.12.19.3-1 .63-2 1.01-2.97-.46.18-1.05.41-1.65.67-.28.79-.54 1.6-.76 2.41-1.01.08-2.02.14-3.04.2-.14.37-.3.83-.49 1.35 1.06-.06 2.11-.12 3.17-.2-.5 2.05-.83 4.14-.99 6.24-.04.5-.07 1-.09 1.5-1.33.09-2.67.18-4 .26-.03.47-.04.91-.04 1.33 1.34-.08 2.67-.17 4-.26 0 1.03.04 2.05.16 3.07.12.99.29 1.97.6 2.91.27.85.65 1.66 1.09 2.43-1.25-.11-2.48-.28-3.71-.52.37.78.59 1.27.8 1.49.18.03.36.06.53.08.3.09.58.06 1 .14.74.09 1.48.16 2.21.21.36.56.73 1.11 1.09 1.67.47.72.94 1.44 1.42 2.16.42-.03.93-.07 1.51-.11-.8-1.21-1.61-2.42-2.39-3.64 2.57.07 5.15-.06 7.71-.32.43 1.15.9 2.29 1.43 3.4.47-.04.94-.09 1.39-.13-.54-1.12-1.03-2.26-1.47-3.42 2.78-.33 5.56-.74 8.33-1.24.07.99.14 1.98.18 2.97l.03.85c.45-.06.89-.12 1.32-.18a99.59 99.59 0 0 0-.22-3.87c2.05-.39 4.09-.82 6.12-1.3.82-.19 1.64-.4 2.46-.61v.17a81.54 81.54 0 0 1-.28 4.41c.45-.07.91-.14 1.34-.21.13-1.58.23-3.16.27-4.74.74-.21 1.48-.42 2.21-.64Zm-29.01 3.57c-.89 0-1.78-.01-2.67-.05-.44-.71-.86-1.45-1.17-2.23-.35-.88-.58-1.81-.72-2.75-.18-1.19-.24-2.42-.22-3.63 2.65-.19 5.29-.42 7.93-.69.19 1.05.41 2.09.64 3.12.44 1.97.98 3.92 1.62 5.84.01.04.03.07.04.1-1.81.17-3.63.28-5.44.3Zm6.79-.44c-.61-1.76-1.12-3.55-1.55-5.37-.29-1.22-.56-2.46-.79-3.7.42-.05.84-.09 1.26-.14 2.88-.33 5.76-.74 8.62-1.23.48 3.03.87 6.07 1.14 9.12-2.87.51-5.77.99-8.68 1.32Zm18.7-3.51c-2.88.77-5.79 1.4-8.72 1.95-.11-1.22-.24-2.44-.38-3.66-.22-1.82-.48-3.64-.76-5.46 2.36-.43 4.7-.93 7.02-1.51.74-.19 1.48-.38 2.21-.58.51 3.05.68 6.16.64 9.26Z" style="fill:#bf9dd6"/><path d="M70.26 72.31c-.14.69-.28 1.37-.43 2.06-.07.32.09.7.44.77.32.07.7-.09.77-.44.15-.68.29-1.37.43-2.06.03-.17.03-.33-.06-.48-.08-.13-.23-.26-.37-.29-.31-.07-.7.09-.77.44Z" class="cls-22"/><path d="M69.81 74.53c-.02 2.27.5 4.62 1.57 6.63.16.3.58.39.86.23.3-.18.39-.56.23-.86-.96-1.82-1.42-3.94-1.4-5.99 0-.81-1.25-.81-1.26 0ZM39.47 76.5c.8 3.81 1.95 7.54 3.43 11.14.13.31.42.54.77.44.3-.08.57-.46.44-.77-1.48-3.6-2.63-7.33-3.43-11.14-.07-.33-.46-.53-.77-.44-.34.09-.51.44-.44.77Z" class="cls-22"/></g><path d="M81.92 94.71c1.47 4.58 1.33 9.41.47 14.1-.23 1.25-.5 2.49-.79 3.72-.08.33.1.68.44.77.32.09.7-.11.77-.44 1.09-4.63 1.89-9.41 1.27-14.17-.19-1.47-.5-2.91-.95-4.32-.1-.32-.44-.53-.77-.44-.32.09-.54.45-.44.77Z" class="cls-2"/><path d="M84.42 172.17c-.53-4.12-1.02-8.24-1.46-12.37a378.3 378.3 0 0 1-1.23-13.88c-.31-4.57-.52-9.15-.52-13.73 0-4.49.28-8.95.81-13.41.32-2.66.68-5.31 1.12-7.96.44-2.64.85-5.16 1-7.77.01-.19.02-.38.02-.57.09-.1.15-.23.15-.4.04-3.39-.66-6.75-1.99-9.86-.65-1.52-1.46-2.95-2.41-4.31s-2.02-2.65-3.05-3.96c-1.12-1.42-2.2-2.88-3.06-4.47a.593.593 0 0 0-.37-.3.598.598 0 0 0-.49-.07c-1.4.46-2.82.86-4.23 1.27-2.23.65-4.46 1.28-6.69 1.91-2.52.71-5.03 1.4-7.56 2.09-2.3.63-4.61 1.25-6.91 1.86-1.55.41-3.1.82-4.66 1.17-.12.03-.23.05-.35.08-.16.03-.29.15-.37.29-.09.14-.12.32-.07.49.41 1.24.35 2.64.19 3.96-.16 1.33-.59 2.59-1.16 3.8-.72 1.52-1.62 2.94-2.57 4.33s-1.88 2.71-2.81 4.07c-1.72 2.5-3.42 5.02-4.99 7.62-1.54 2.54-2.96 5.15-4.16 7.87-1.29 2.9-2.34 5.9-3.14 8.98l-.12.49c-.09.11-.15.26-.17.41l-.03.4v.1c-.19 2.73-.05 5.47.17 8.19.07.9.17 1.79.28 2.68.34 2.67.73 5.33 1.13 8 .5 3.37 1.02 6.73 1.54 10.09.53 3.36 1 6.42 1.51 9.63.34 2.15.68 4.31 1.01 6.47.02.15.05.3.07.46.02.15.12.27.25.35.12.09.27.14.45.11.02 0 .05 0 .07-.01.02 0 .05-.02.07-.03 5.87-1.82 11.59-4.1 17.18-6.65 1.55-.71 3.09-1.44 4.62-2.19.02 0 .03-.01.04-.02h.01c.25-.12.34-.43.29-.69v-.02c-.28-1.66-.64-3.31-1.01-4.95-.5-2.22-1.03-4.44-1.58-6.65-.6-2.42-1.22-4.83-1.86-7.24-.59-2.24-1.2-4.47-1.84-6.7-.49-1.71-.99-3.42-1.55-5.11-.05-.16-.1-.31-.16-.47v-.01c.12-.18.24-.36.37-.53.11-.14.23-.29.35-.42.11-.12.18-.27.18-.44 0-.15-.07-.34-.18-.44h-.01a.623.623 0 0 0-.41-.38l-.71-.23c.3-.17.6-.37.76-.68.23-.46.14-1.03-.25-1.38-.31-.28-.71-.39-1.09-.53-.01 0-.03-.01-.04-.02-.03-.02-.07-.03-.1-.05 0 0-.01 0-.02-.01.02-.03.04-.07.06-.1 3.06-3.06 6.2-6.05 9.11-9.26 2.87-3.15 5.54-6.53 7.54-10.31.69-1.31 1.3-2.66 1.81-4.05-.11 3.95-.21 7.91-.32 11.86-.12 4.55-.26 9.09-.31 13.64-.05 4.55-.05 8.79-.07 13.19-.02 4.51-.05 9.01-.15 13.52-.09 4.25-.24 8.51-.55 12.75-.04.5-.07 1-.11 1.5-.03.34.31.63.63.63h.01c6.12.31 12.26.14 18.37-.34 1.69-.13 3.38-.29 5.07-.47h.02c.29 0 .64-.26.63-.58v-.05c0-.05 0-.1-.02-.15Z" class="cls-2"/><path d="M79.55 118.86c.65-1.06 1.63-1.77 2.73-2.28-.11.77-.21 1.53-.3 2.25-.2 1.79-.39 3.86-.53 5.97-.19-.15-.39-.31-.57-.48-1.65-1.48-2.59-3.41-1.33-5.47ZM82.36 98.58c-.32-1.39.06-2.83 1.01-3.74.5 1.67.89 3.58.94 5.43.01.48.02.97.01 1.44-.94-.82-1.67-1.87-1.96-3.13ZM61.66 94.04c-2.19 1.43-4.47 2.81-6.93 3.72-1.98.73-5.89 1.81-6.92-.95-.76-2.02 2.39-3.94 3.77-4.8 2.02-1.26 4.22-2.21 6.3-3.37 2.29-1.27 4.57-2.86 5.99-5.11.26-.41.49-.85.68-1.31 2.35-.65 4.6-1.27 5-1.38.88-.24 1.31-.4 1.31-.4s.28.88.62 1.15c.34.28.81.19 1.07 0s.3-1.03.1-1.26c-.19-.24-.62-.8-.62-.8s.98-.64 1.49-.24c.52.41 1.45 2.48 3.42 4.81.26.3.51.61.76.92-.49.18-.97.37-1.45.56-5.3 2.17-9.85 5.34-14.61 8.46ZM41.38 104.48c1.48 1.38 3.19 2.65 4.13 4.49.81 1.58.67 3.26-.63 4.51-1.35 1.29-3.22 1.62-5.02 1.51-3.3-.21-6.37-1.71-9.6-2.29.66-1.08 1.43-2.27 2.34-3.6.11-.16.21-.31.32-.46.5.44 1.02.88 1.68 1.07 1.17.34 2.49.06 3.28-.89.94-1.13.61-2.61-.06-3.78-.36-.63-.78-1.23-1.18-1.83.59-.86 1.14-1.68 1.66-2.46.82 1.39 1.91 2.63 3.09 3.72Z" class="cls-1"/><path d="M35.29 106.74a3.06 3.06 0 0 1-.31-.15c-.15-.11-.29-.22-.43-.33l.27-.39c.08.13.17.25.25.38.04.07.14.29.23.49ZM72.76 148.34c-1.47-1.12-1.16-3.14-.29-4.54 1.92-3.12 5.93-4.16 8.83-6.09.07 2.7.18 5.56.32 8.16.03.45.06.93.09 1.43-1.54.62-3.08 1.3-4.74 1.67-1.38.31-3.04.27-4.21-.63ZM69.26 107.15c1.19-.54 3.86-1.53 4.34.4.43 1.71-.91 3.18-2.07 4.23-1.48 1.34-3.13 2.5-4.15 4.26-1.03 1.78-1.32 3.89-.31 5.74.47.85 1.18 1.54 1.67 2.39.5.87.79 1.87.84 2.87.1 2-.72 3.77-2.05 5.22-1.56 1.7-3.53 3.06-5.45 4.31-.48.31-.96.61-1.44.89 0-4.35.03-9.11.1-12.72.05-2.19.19-6.15.34-9.85 1.8-3.41 4.64-6.15 8.17-7.75Z" class="cls-1"/><path d="M37.24 144.65c-2.08.35-4.34.75-6.24-.42-1.56-.97-2.53-2.67-2.99-4.41-.57-2.16-.39-4.44-.1-6.63.27-2.1.46-4.35-.74-6.23a4.717 4.717 0 0 0-2.57-1.98c.27-.75.57-1.52.9-2.31.86-2.1 1.5-4.09 3.15-7.18 4.24.3 8.11 2.7 12.44 2.49 3.47-.17 7.22-2.27 7.83-5.96.71-4.29-2.81-7.17-5.59-9.77-1.24-1.17-2.47-2.77-3.15-4.48 1.03-1.7 1.69-3.06 1.87-4 .47-2.52.41-3.28.41-3.28.07-1-.13-2.71-.13-2.71l16.4-3.93s.52-.14 1.33-.37c-1.62 1.55-3.63 2.6-5.61 3.61-2.07 1.06-4.16 2.07-6.01 3.48-1.84 1.39-3.77 3.27-3.73 5.76.04 2.36 1.97 4.29 4.12 4.96 2.81.86 5.86-.23 8.42-1.36 4.88-2.15 8.98-5.64 13.55-8.34 2.76-1.62 5.72-3.13 8.79-4.07.83 1.17 1.53 2.24 2.01 3.04.2.34.44.8.68 1.35-2.2 1.4-3.33 4.13-2.93 6.79.44 2.92 2.38 5.08 4.81 6.5-.14 1.85-.36 3.32-.54 4.01-.16.63-.48 2.16-.81 4-1.85.58-3.62 1.45-4.92 2.91-1.7 1.9-2.5 4.53-1.55 6.98.91 2.34 2.9 3.85 4.9 5.22-.04 1.03-.06 2.05-.06 3 0 .81 0 1.71.02 2.66-.81.76-1.76 1.4-2.63 1.9-2.67 1.52-5.63 2.69-7.69 5.07-1.96 2.27-3.05 5.76-1.2 8.44 1.66 2.41 4.77 3.04 7.5 2.57 1.6-.28 3.18-1.03 4.76-1.72.43 4.38 1.09 9.43 1.36 12.51.36 4.19.96 8.85 1 9.37.04.52-.04.89-1.68 1.02-.79.06-4.15.27-7.89.45 3.95-1.91 7.25-4.65 7.83-9.25.4-3.21-1.22-6.73-4.3-8-3.72-1.53-7.53.89-11.3-.03-3.25-.79-5.61-3.29-6.37-6.37.02-2.9.04-5.85.04-8.12v-.91c3.09-1.53 6-3.61 8.39-5.91 3.5-3.37 4.87-8.69 1.92-12.91-.57-.81-1.45-1.59-1.54-2.62-.09-1.11.63-2.21 1.34-2.99 1.58-1.74 3.7-2.9 4.94-4.95 1.03-1.7 1.36-4.09.34-5.88-1.2-2.09-3.67-2.48-5.85-1.96-3.38.8-6.48 2.97-8.85 5.67.08-1.88.14-3.14.14-3.14s-1.96 4.81-3.4 6.88c-.7 1-2.19 3.11-4.06 5.45-1.57.76-3.5 1.06-5.12 1.24-1.96.22-3.92.42-5.87.63-1.86.21-3.75.44-5.43 1.35-2.81 1.52-4.5 4.79-4.06 7.96.45 3.23 2.94 5.88 6.14 6.51 1.47.29 2.96.26 4.44.1.28.84.64 1.91.75 2.28 0 0 .93 3.11 1.95 6.73-2.97-1.26-6.24-1.25-9.54-.69v.02Z" class="cls-1"/><path d="M36.7 130.3c-1.18-3.15 1.21-5.93 4.19-6.59 3.15-.71 6.45-.69 9.65-1.15-1.08 1.16-2.2 2.25-3.31 3.16-4.57 3.77-4.49 4.57-4.49 4.57s1.04.19 1.37 1.12-.88 1.61-.88 1.61.4.11.76.34c-2.88.3-6.13.07-7.29-3.06ZM62.44 166.74c-.45 1.17-1.43 2.02-2.53 2.73.13-1.3.27-2.85.38-4.4.28.02.57.05.86.09.99.14 1.71.47 1.29 1.57ZM28.56 156.94c1.31 2.39-.22 5.78-1.4 8-.53-3.37-1.12-7.11-1.62-10.37 1.22.55 2.41 1.24 3.02 2.37Z" class="cls-1"/><path d="M70.69 159.39c3.08-.4 7.15-1.72 8.62 2.05 1.17 2.98-.72 6.01-3.04 7.8-3.14 2.42-7.33 3.48-11.1 4.68H64c-3.26-.07-4.26.21-4.4-.85 2.65-1.55 5.65-3.34 5.93-6.66.14-1.68-.79-3.06-2.3-3.72-.89-.39-1.83-.43-2.77-.53.05-.99.08-1.92.08-2.73 0-.92 0-2.17.02-3.61 2.5 2.62 6.2 4.08 10.13 3.57ZM41.53 157.1c2.92-2.6 6.12 1.49 7.3 3.87 1.07 2.15 1.54 4.56 1.45 6.95-.4.2-.85.42-1.34.66-1 .49-4.68 2.12-8.42 3.68-.35-1.82-.66-3.66-.89-5.49-.38-3.04-.65-7.41 1.89-9.68Z" class="cls-1"/><path d="M29.71 166.48c1.47-2.79 2.88-6.3 2.05-9.49-.65-2.51-2.74-4.04-4.99-5.07-.55-.25-1.15-.49-1.75-.73-.2-1.33-.38-2.49-.5-3.37-.88-6.04-1.71-12.41-1.5-15.72.09-1.5.34-2.91.7-4.3 1.41.42 1.51 2.47 1.42 3.72-.14 2.02-.54 3.98-.44 6.02.1 1.87.48 3.71 1.32 5.39 1.62 3.25 4.78 5.21 8.42 5.07 2.03-.08 4-.67 6.02-.79 1.76-.11 3.54.16 5.17.86.85.37 1.61.85 2.29 1.42.31 1.16.59 2.27.82 3.24.28 1.19.61 2.56.93 3.98-.85-1.06-1.86-1.96-3.06-2.56-3.12-1.57-6.49-.57-8.38 2.31-1.89 2.87-1.99 6.64-1.62 9.94.26 2.35.66 4.7 1.11 7.03-1.64.66-3.17 1.24-4.31 1.62-4.3 1.43-4.35 1.92-4.71-.32-.1-.64-.41-2.6-.83-5.21.66-.98 1.29-1.98 1.84-3.02Z" class="cls-1"/><path d="M43.34 102.24c2.77 2.61 6.3 5.49 5.59 9.77-.61 3.69-4.37 5.79-7.83 5.96-4.34.21-8.2-2.2-12.44-2.49.45-.84.98-1.76 1.6-2.78 3.23.58 6.3 2.08 9.6 2.29 1.8.11 3.67-.22 5.02-1.51 1.3-1.25 1.44-2.93.63-4.51-.94-1.84-2.65-3.12-4.13-4.49-1.18-1.1-2.27-2.33-3.09-3.72.72-1.09 1.37-2.09 1.91-2.99.67 1.71 1.9 3.31 3.15 4.48ZM57.27 99.92c-2.56 1.13-5.61 2.22-8.42 1.36-2.15-.66-4.09-2.6-4.12-4.96-.04-2.49 1.89-4.37 3.73-5.76 1.86-1.41 3.95-2.42 6.01-3.48 1.98-1.01 3.99-2.06 5.61-3.61 1.13-.31 2.82-.79 4.47-1.24-.19.46-.42.9-.68 1.31-1.42 2.25-3.7 3.83-5.99 5.11-2.08 1.16-4.27 2.11-6.3 3.37-1.38.86-4.53 2.78-3.77 4.8 1.03 2.75 4.94 1.67 6.92.95 2.46-.91 4.74-2.29 6.93-3.72 4.76-3.12 9.31-6.28 14.61-8.46.48-.19.96-.39 1.45-.56.67.84 1.31 1.69 1.89 2.49-3.07.94-6.03 2.45-8.79 4.07-4.57 2.69-8.67 6.18-13.55 8.34ZM39.65 136.24c-3.2-.63-5.69-3.29-6.14-6.51-.44-3.17 1.24-6.44 4.06-7.96 1.67-.91 3.57-1.14 5.43-1.35 1.96-.22 3.92-.41 5.87-.63 1.63-.18 3.55-.48 5.12-1.24a69.282 69.282 0 0 1-3.46 4.02c-3.21.46-6.5.44-9.65 1.15-2.98.67-5.37 3.45-4.19 6.59 1.17 3.13 4.41 3.36 7.29 3.06.27.18.52.42.55.76.08.77-.83 1.13-.83 1.13s.16.48.37 1.08c-1.48.16-2.97.19-4.44-.1ZM40.46 147.19c-2.02.13-3.99.72-6.02.79-3.64.13-6.8-1.82-8.42-5.07-.84-1.68-1.22-3.52-1.32-5.39-.1-2.04.29-4 .44-6.02.09-1.25 0-3.29-1.42-3.72.24-.93.54-1.86.88-2.81 1.03.33 1.94 1 2.57 1.98 1.21 1.88 1.01 4.12.74 6.23-.28 2.19-.46 4.47.1 6.63.46 1.74 1.43 3.44 2.99 4.41 1.9 1.18 4.16.78 6.24.42 3.3-.56 6.57-.57 9.54.69.38 1.35.77 2.78 1.13 4.14a9.564 9.564 0 0 0-2.29-1.42c-1.62-.71-3.41-.97-5.17-.86ZM38.24 156.45c1.89-2.88 5.26-3.88 8.38-2.31 1.19.6 2.21 1.5 3.06 2.56 1.11 4.78 2.28 10.02 2.28 10.18s-.67.54-1.67 1.05c.09-2.39-.38-4.8-1.45-6.95-1.18-2.38-4.38-6.47-7.3-3.87-2.54 2.27-2.27 6.64-1.89 9.68.23 1.84.54 3.67.89 5.49-.94.39-1.89.78-2.8 1.15-.46-2.33-.85-4.68-1.11-7.03-.37-3.3-.27-7.07 1.62-9.94ZM31.76 156.99c.83 3.19-.58 6.71-2.05 9.49-.55 1.04-1.17 2.05-1.84 3.02-.22-1.37-.46-2.92-.72-4.56 1.18-2.22 2.72-5.61 1.4-8-.62-1.12-1.8-1.82-3.02-2.37-.19-1.21-.36-2.36-.52-3.39.61.25 1.2.48 1.75.73 2.25 1.03 4.34 2.56 4.99 5.07Z" class="cls-10"/><path d="M37.87 108.82c-.79.95-2.11 1.23-3.28.89-.66-.19-1.18-.63-1.68-1.07.56-.82 1.11-1.61 1.63-2.38.14.11.28.22.43.33.07.05.19.1.31.15a6.58 6.58 0 0 0-.23-.49c-.08-.13-.16-.26-.25-.38.63-.92 1.24-1.81 1.82-2.65.4.6.82 1.2 1.18 1.83.67 1.17 1 2.65.06 3.78ZM70.18 103.68c2.18-.52 4.64-.13 5.85 1.96 1.03 1.78.7 4.17-.34 5.88-1.24 2.05-3.37 3.22-4.94 4.95-.71.78-1.43 1.88-1.34 2.99.09 1.04.98 1.81 1.54 2.62 2.95 4.22 1.58 9.54-1.92 12.91-2.39 2.3-5.29 4.39-8.39 5.91v-3.44c.49-.28.97-.58 1.44-.89 1.92-1.25 3.89-2.61 5.45-4.31 1.33-1.45 2.16-3.22 2.05-5.22-.05-1-.34-2.01-.84-2.87-.49-.84-1.2-1.53-1.67-2.39-1.01-1.85-.72-3.96.31-5.74 1.02-1.76 2.67-2.92 4.15-4.26 1.16-1.04 2.5-2.52 2.07-4.23-.49-1.92-3.15-.94-4.34-.4-3.53 1.6-6.36 4.34-8.17 7.75.08-2.05.17-4.01.23-5.55 2.37-2.7 5.47-4.87 8.85-5.67ZM79.37 98.7c-.4-2.66.73-5.39 2.93-6.79.36.81.74 1.82 1.08 2.94-.95.91-1.33 2.35-1.01 3.74.29 1.26 1.02 2.31 1.96 3.13 0 1.24-.06 2.42-.15 3.48-2.43-1.42-4.37-3.57-4.81-6.5ZM76.36 123.09c-.95-2.45-.15-5.07 1.55-6.98 1.3-1.46 3.07-2.33 4.92-2.91-.19 1.06-.39 2.23-.55 3.38-1.1.51-2.07 1.22-2.73 2.28-1.27 2.06-.32 3.99 1.33 5.47.19.17.38.33.57.48-.08 1.17-.14 2.35-.18 3.5-2-1.38-3.99-2.88-4.9-5.22ZM69.71 149.38c-1.85-2.68-.76-6.17 1.2-8.44 2.06-2.38 5.03-3.55 7.69-5.07.87-.5 1.82-1.13 2.63-1.9.02 1.18.04 2.44.08 3.73-2.9 1.93-6.91 2.97-8.83 6.09-.86 1.4-1.17 3.42.29 4.54 1.17.9 2.83.94 4.21.63 1.66-.37 3.2-1.05 4.74-1.67.07.92.16 1.91.26 2.93-1.58.69-3.16 1.44-4.76 1.72-2.73.47-5.84-.17-7.5-2.57ZM66.98 156.31c3.77.92 7.58-1.5 11.3.03 3.09 1.27 4.7 4.78 4.3 8-.57 4.6-3.88 7.34-7.83 9.25-3.43.17-7.18.33-9.58.34 3.77-1.21 7.96-2.26 11.1-4.68 2.33-1.79 4.21-4.82 3.04-7.8-1.48-3.77-5.54-2.45-8.62-2.05-3.93.51-7.63-.95-10.13-3.57.01-1.76.03-3.81.04-5.88.76 3.09 3.12 5.58 6.37 6.37Z" class="cls-10"/><path d="M65.54 166.41c-.28 3.32-3.28 5.11-5.93 6.66-.04-.32-.01-.76.06-1.37.07-.59.15-1.36.24-2.22 1.1-.71 2.08-1.56 2.53-2.73.42-1.1-.3-1.43-1.29-1.57-.29-.04-.57-.07-.86-.09.07-.98.14-1.97.18-2.91.94.1 1.88.14 2.77.53 1.52.66 2.45 2.05 2.3 3.72Z" class="cls-10"/><g id="Girls_forearm_2"><path d="M37.63 79.66c.21-.01 5.65-.14 9.17.75 3.53.89 10.33 2.8 13.09 4.15 2.76 1.35 10.55 4.61 10.55 4.61s1.53 2.02 1.96 3.29 1 2.94.28 3.42-.89-1.12-1.74-.24-.45 2.13-1.14 1.89-1.2-1.54-1.68-.87-1.07 2-1.55 1.78-.61-.44-1.24.09-1.16 1.43-1.5.72-.17-1.37 0-2.15.79-2.56.2-2.67-1.89-.21-2.66-.74-1.75-2-1.75-2-6.45.54-8.54.22c-2.1-.32-6.36-1.16-8.07-1.97-1.71-.82-3.94-1.21-4.97-1.26s-1.42.7-1.97.15-1.2-1.29-1.28-1.62-3.76-7.1 2.82-7.54Z" class="cls-4"/><path d="M56.96 84.2c-.03-.01-.02 0 0 0ZM56.97 84.21h-.01.01Z" class="cls-22"/><path d="M72.99 92.25c-.39-1.04-.87-2.05-1.43-3.01a.687.687 0 0 0-.24-.24c-.02-.01-.03-.03-.05-.04-.81-.56-1.73-.93-2.64-1.3-.91-.38-1.86-.77-2.8-1.15-1.74-.7-3.49-1.38-5.24-2.05-1.22-.56-2.45-1.13-3.7-1.64-.94-.38-1.91-.71-2.88-1.02-1.57-.5-3.14-1.02-4.74-1.44-1.79-.48-3.61-.84-5.45-1.09-2.06-.27-4.14-.37-6.21-.24-.34.02-.63.27-.63.63 0 .32.29.65.63.63 3.61-.22 7.21.24 10.7 1.12 1.64.41 3.25.93 4.87 1.45.99.32 1.99.64 2.96 1.02.26.1.51.21.77.31 0 0 .07.03.05.02.02 0 .04.02.04.02.07.03.15.06.22.09.15.06.29.13.44.19.65.29 1.29.58 1.93.87.06.05.14.09.22.12a238.979 238.979 0 0 1 8.34 3.31c.81.34 1.62.68 2.36 1.16.41.71.78 1.45 1.09 2.21.3.74.64 1.55.74 2.35.04.29.05.75-.17.98 0-.01 0 0 0 0h-.02s0 .01.01.01c-.02.01-.04.03-.04.02 0 0 .03-.02.04-.02-.02-.01-.06-.05-.08-.06-.07-.04-.14-.09-.22-.14-.31-.2-.64-.34-1.02-.28-.4.06-.72.34-.89.71a2 2 0 0 0-.17.54c-.04.23-.03.28-.08.48 0 .02-.03.11-.03.12 0 0 0 .02-.01.02-.04-.02-.09-.04-.12-.06-.29-.19-.46-.53-.78-.71-.49-.27-1.05-.1-1.36.35-.21.31-.37.65-.61.94l-.18.21c-.02.02-.09.07-.14.12-.41-.34-.92-.3-1.32.03-.27.22-.42.53-.73.71-.06.03-.12.07-.18.09-.01 0-.06.02-.11.03 0-.05 0-.1.02-.14.03-.13.05-.26.08-.38l.18-.72c.25-1.03.44-2.06.23-3.11-.04-.21-.22-.36-.42-.43a.803.803 0 0 0-.32-.1c-.32-.03-.52-.05-.85-.12-.27-.06-.54-.13-.81-.22-.05-.02-.11-.04-.16-.06-.03-.01-.05-.02-.08-.03-.11-.05-.22-.1-.33-.16-.1-.05-.19-.11-.28-.17-.04-.03-.08-.05-.12-.08a.7.7 0 0 1-.1-.08c-.13-.11-.26-.22-.38-.35-.06-.06-.11-.13-.17-.19 0 0-.01-.02-.02-.03-.03-.04-.05-.08-.08-.11a3.55 3.55 0 0 1-.23-.43c-.01-.04-.03-.08-.04-.12-.03-.08-.05-.15-.07-.23-.02-.08-.04-.16-.05-.24 0-.03-.01-.16 0-.04v-.06c-.01-.15-.02-.31 0-.46.02-.34-.3-.63-.63-.63-.36 0-.61.29-.63.63-.01.19 0 .38.01.57-1.61.14-3.23.25-4.85.27-.72 0-1.45 0-2.17-.05s-1.29-.12-1.94-.22c-1.47-.25-2.92-.66-4.33-1.13-.89-.29-1.77-.61-2.64-.93-1.03-.38-2.06-.83-3.13-1.11-.63-.17-1.32-.3-1.97-.2-.5.08-.97.36-1.46.36.18 0-.15-.07-.03 0-.08-.04-.16-.09-.24-.14l-.15-.14c-.07-.07-.14-.14-.2-.22s-.21-.3-.3-.47c-.01-.02-.02-.05-.04-.07 0-.01-.03-.07-.03-.09 0-.03-.01-.07-.03-.1-.03-.34-.27-.63-.63-.63-.32 0-.65.29-.63.63.06.83.66 1.63 1.31 2.12.34.26.74.4 1.17.36.53-.05.99-.33 1.51-.39.48-.05 1.05.09 1.52.23.55.15 1.08.36 1.61.56.99.38 1.99.75 2.99 1.1 1.53.54 3.09 1.03 4.69 1.36 1.45.29 2.92.43 4.4.45 1.98.02 3.96-.13 5.94-.3.05.11.11.21.17.31.53.88 1.38 1.48 2.32 1.86.57.23 1.17.35 1.78.43.07.8-.16 1.61-.35 2.38-.12.47-.29.99-.28 1.47 0 .52.35.96.87 1.06.44.09.89-.04 1.28-.25.35-.19.6-.46.86-.75.22.17.48.24.75.2.49-.07.85-.46 1.15-.83.15-.18.29-.37.42-.57.06-.09.11-.18.16-.27l.06.06c.15.17.3.32.49.45.41.27.96.36 1.4.1.39-.22.59-.64.67-1.06.04-.22.04-.33.07-.48.01-.04.02-.09.04-.13 0 0 .01-.03.02-.05.15.09.28.19.43.27.41.23.9.28 1.32.01.41-.26.65-.72.74-1.18.21-1.07-.21-2.17-.58-3.16Zm-12.34.06Zm5.04 6.41Zm.31 0s.02-.02.02 0H66Zm5.03-2.45H71h.03Zm.09-.03c.02-.04.02-.04 0 0ZM71.04 96.26zM72.17 95.51z" class="cls-22"/></g><path id="Girls_back_hair" d="M57.08 43.05c2.01-.86 3.56-2.55 4.03-4.71.57-2.59-1.45-4.34-1.55-6.81-.01-.38.2-.61.48-.7.33-.2.79-.18 1.01.27.51 1.03 1.21 1.94 2.16 2.6.8.55 1.75.84 2.49 1.48.63.55 1.01 1.3 1.07 2.14.07 1.07-.49 1.73-.97 2.62-.49.9-.14 1.99-.69 2.92-.43.72-1.14 1.27-1.87 1.67-.85.46-1.8.83-2.76.92-.46.05-.94.03-1.38-.11-.51-.16-1-.67-1.54-.66-.44 0-.68-.29-.73-.63-.22-.34-.21-.8.26-1Z" style="fill:#ba8d3c"/><g id="Girls_head"><path d="M57.1 48.22s-.07-2.66.08-2.95 1.73-.45 2.62-1.04 2.71-1.59 2.71-3.46-.44-4.13-.18-4.21 1.19-1.02 1.19-1.02l-1.77-2.69s-.75-2.44-1.95-4.09-2.33-3.34-4.51-3.63c-2.17-.29-4.32-.08-5.29.72s-1.86 2.72-2.27 4.16c-.41 1.44-.5 9.76-.5 9.76l.21 8.83s6.59 3.36 9.65-.36Z" class="cls-4"/><path d="M47.86 39.75c-.01-.8-.02-1.59 0-2.39s-1.24-.81-1.26 0c-.05 3.03.11 6.05.23 9.07.02.45.03.9.05 1.35-1.65.49-3.27 1.07-4.86 1.74a.51.51 0 0 0-.26.28c-.24.15-.39.4-.3.7.08.3.46.57.77.44 1.68-.7 3.38-1.35 5.17-1.72.36.08.78-.11.76-.59-.09-2.96-.26-5.92-.31-8.89Z" class="cls-22"/><path d="M64.12 34.85c-.51-.83-1.14-1.6-1.81-2.31-.57-2.04-1.49-4.06-2.98-5.59-1.43-1.48-3.34-2.53-5.41-2.72-2.07-.19-4.3.68-5.65 2.31-1.1 1.33-1.41 3.14-1.58 4.8-.2 2.01-.11 4.03-.09 6.04 0 .81 1.26.81 1.26 0-.01-1.66-.07-3.33.01-4.99.05-.87.12-1.64.28-2.45.08-.4.18-.79.31-1.17l.09-.24c0-.02.04-.11.06-.14.07-.16.15-.32.24-.48.08-.14.17-.28.26-.41.02-.03.1-.12.02-.03.03-.04.06-.07.09-.1.09-.1.18-.21.28-.3.31-.32.66-.59 1.04-.81.79-.47 1.68-.75 2.59-.78 1.77-.06 3.49.71 4.82 1.9 1.65 1.48 2.61 3.54 3.18 5.66.04.15.12.26.22.33a12.292 12.292 0 0 1 .77.86l.12.15c.03.03.05.06.08.1.04.05.05.07.03.04 0 0 .02.02.03.04.03.03.05.07.08.1.04.05.08.1.11.15.08.11.16.22.23.33.06.08.11.17.16.25a.51.51 0 0 1-.11.04c-.24.09-.48.16-.73.23-.32.09-.54.45-.44.77 0 .01.01.03.02.04v.09c.17 1.5.36 3.09-.08 4.56-.09.31-.21.6-.36.88-.16.28-.27.45-.44.63-.4.45-.79.75-1.31 1.03-.64.34-1.33.56-2.06.7-.3-.05-.68.11-.74.44-.1.58-.19 1.17-.24 1.75-.04.55-.03 1.1-.01 1.65.01.33.28.64.63.63.33-.01.64-.28.63-.63v-.31c1.12-.03 2.24 0 3.36.12.33.04.64-.31.63-.63 0-.04 0-.08-.02-.12 0-.04.01-.08 0-.12a.654.654 0 0 0-.63-.63c-1.12-.02-2.23 0-3.34.08.02-.23.04-.46.07-.69 0-.04.02-.12.02-.14 0-.06.02-.11.03-.17v-.05c1.36-.29 2.72-.86 3.7-1.87 1.12-1.15 1.53-2.73 1.58-4.3.03-.9-.06-1.8-.16-2.7.26-.09.51-.18.76-.3.23-.11.48-.25.6-.49.21-.39 0-.74-.21-1.06Z" class="cls-22"/></g><path d="M61.25 37.85c0-.18-.14-.3-.31-.31-.38-.04-.8-.18-1.15-.41-.35-.22-.64-.53-.85-.88a.33.33 0 0 0-.34-.15c-.07 0-.15 0-.21.04-.2.12-.27.43-.31.64-.1.46-.05.93.15 1.35.35.73 1.26 1.19 2.04.89.44-.17.8-.52.93-.98v-.03c.03-.05.05-.1.05-.16Z" style="fill:#cca88d"/><path id="Girls_open_eye" d="M58.81 32.59c.81 0 .81-1.26 0-1.26s-.81 1.26 0 1.26Z" class="cls-22"/><path id="Girls_fron_hair" d="M38.01 35.59c.24-1.87 1.76-3.44 3.62-3.78.54-.1 1.11-.01 1.64-.16.38-.1.7-.37.92-.7.57-.81.66-1.8.84-2.74.2-1 .57-1.93 1.33-2.64.66-.61 1.51-1.02 2.39-1.19.45-.09.91-.12 1.38-.09.03 0 .05 0 .07.01.15 0 .3.02.44.04.32.04.65.09.92.28.41.31.7.76.77 1.27.08.57-.1 1.17-.36 1.67 0 .01-.02.03-.03.04 0 .02-.01.03-.02.05-.53.94-1.22 1.87-1.38 2.96-.14.94.23 1.71 1 2.24.72.48 1.54.78 2.24 1.28.79.57 1.36 1.37 1.63 2.3.54 1.86-.32 3.92-2.03 4.84-.77.42-1.72.48-2.45.98-.38.26-.53.66-.64 1.08-.13.48-.24.98-.53 1.4-1.32 1.88-3.97 1.42-5.64.31-.81-.54-1.5-1.25-2-2.08-.53-.89-.8-1.9-1.61-2.59-.39-.33-.84-.61-1.21-.97-.32-.32-.6-.69-.81-1.09-.43-.84-.61-1.79-.49-2.73Z" class="cls-3"/><path id="Girls_fringe" d="M48.89 28.8c.27-.1.35-.47.35-.72 0-.51-.17-1.01-.16-1.53.01-.48.13-.95.35-1.38.13-.26.3-.53.53-.72.02-.03.05-.06.09-.08l.01-.01c1.1-1.2 2.75-1.84 4.37-1.63.84.11 1.65.41 2.34.91.32.23.62.59 1 .73.37.14.7-.25 1.02-.38.8-.32 1.51.07 1.87.81 0 .01.01.03.02.04 0 .01.01.02.02.03.3.81.17 1.8-.52 2.37-.31.26-.7.41-1.11.41-.47 0-.91-.22-1.39-.2-.42.02-.81.21-1.09.52-.3.32-.51.71-.86.98-.58.46-1.38.57-2.09.41-.05 0-.11-.02-.16-.03-.68-.05-1.29-.43-1.97-.59-.41-.09-.71.05-1.02.3-.48.38-.94.69-1.58.59-.19-.03-.32-.25-.32-.42 0-.2.14-.36.32-.42Z" style="fill:#ffd066"/><path d="M168.31 96.11c.3-3.06.51-5.1.51-5.1s-3.28-3.81-6.4-2.98c-2.38.63-11.66 2.59-13.69 5.16-1.94 2.46.02 26.11.21 28.26-.31 0-.65.29-.61.63.29 3.16.68 6.31 1.11 9.45.48 3.51 1.02 7 1.6 10.5.36 2.18.75 4.45 1.15 6.73.62 4.66 1.87 10.71 2.63 14.17l.09.49c.61 3.15 1.24 6.3 1.88 9.44.07.35.14.71.22 1.06.02.09.06.17.12.23.1.14.26.23.49.22h.07c3.13-.09 6.25-.4 9.36-.72.34-.03.63-.26.63-.63.36-5.02.5-10.05.44-15.09-.07-5.03-.36-10.06-.85-15.07-.25-2.51-.52-5.03-.67-7.55-.15-2.55-.21-5.1-.2-7.65.02-5.06.32-10.11.67-15.15.17-2.38.31-4.78.58-7.15s.63-4.62.94-6.93c.08-.58.15-1.15.22-1.73.03-.28-.2-.52-.46-.6Z" class="cls-11"/><path d="M168.69 97.44c.41-2.28.31-4.63-.33-6.86-.22-.77-1.44-.45-1.21.33.58 2.01.71 4.13.33 6.19-.06.33.09.68.44.77.3.08.71-.1.77-.44Z" class="cls-11"/><path d="M166.25 178.26c.12-.04-.5-5.23-.5-5.23l-6.74.58.59 4.42s2.26.88 3.38.79 3.26-.56 3.26-.56Z" class="cls-12"/><path d="M158.26 174.18c.24 1.34.49 2.68.75 4.02.06.32.47.54.77.44.35-.11.5-.43.44-.77-.26-1.34-.51-2.68-.75-4.02-.06-.32-.47-.54-.77-.44-.35.11-.5.42-.44.77ZM164.97 171.29c.18 2.15.39 4.3.65 6.44.04.34.26.63.63.63.31 0 .67-.29.63-.63-.26-2.14-.47-4.29-.65-6.44-.03-.34-.27-.63-.63-.63-.32 0-.66.29-.63.63Z" class="cls-22"/><g id="Boys_foot_2"><path d="m141.38 183.81.36-1.89s-2.81.68-2.93.95 0 1.05 0 1.05l2.57-.1ZM169.59 183.92zM170.29 180.13c-.14-.73-.37-1.43-.73-2.07-.36-.65-1.01-1.4-1.83-1.2a.53.53 0 0 0-.27.08c-1.45.95-3.18 1.27-4.9 1.26a5.293 5.293 0 0 1-3.92-1.77c-.23-.25-.66-.23-.89 0-.25.25-.23.63 0 .89a6.55 6.55 0 0 0 4.7 2.14c1.9.04 3.88-.33 5.51-1.35.12 0 .19.1.28.22.17.23.31.5.42.76.22.49.35 1.03.44 1.56s.11 1.09.1 1.64c0 .28 0 .56-.04.83-.02.16-.06.27-.18.37-.26.22-.22.66 0 .89.26.26.63.22.89 0 .58-.48.57-1.32.59-2.01.01-.75-.04-1.5-.17-2.23Z" class="cls-22"/><path d="M170.67 184.4c-.03-.29-.12-.55-.32-.76-.17-.18-.37-.23-.59-.32a.423.423 0 0 0-.25-.02h-31.04c-.15 0-.3-.01-.45 0-.18.02-.31.04-.47.12a.82.82 0 0 0-.32.32c-.14.26-.13.55-.12.83 0 .2.02.4.04.61v.02c0 .27.03.54.04.81.01.3 0 .59.07.89.16.67.76 1.18 1.44 1.11h30.59c.11 0 .21-.03.29-.07.17-.05.32-.13.46-.26.18-.18.3-.42.37-.67.12-.44.17-.91.2-1.37.03-.4.1-.84.05-1.25Z" style="fill:#b4cacc"/><path d="M169.84 180.83c-.33-1.26-.66-2.61-1.16-2.98s-.9-.19-1.66.11c-.76.3-3.26 1.02-4.51.87s-2.93-.74-3.42-1.15c-.15-.13-.36-.31-.57-.5a.67.67 0 0 0 .15-.39c.02-.46-.28-.85-.7-1.01s-.87-.05-1.27.15c-.76.36-1.49.77-2.23 1.16-1.5.78-2.99 1.58-4.48 2.38-.02.01-.04.03-.06.04-1.36.4-2.77.69-4.15 1.02-1.92.47-3.85.93-5.76 1.44-.27.07-.55.14-.82.23-.21.07-.41.15-.61.25-.53.29-.81.78-.88 1.36-.04.34.32.63.63.63.34 0 .54-.23.61-.53l27.99-.1 2.65.11s.57-1.83.24-3.09Z" class="cls-22"/></g><path d="m152.8 168.18-1.66-7.06-5.21 3.44-1.03.47 2.72 7.09s2.12.06 2.88-.83c.75-.89 2.3-3.12 2.3-3.12Z" class="cls-12"/><path d="M144.58 127.77h.17c.04 0 .18.04.05 0 .05.01.11.02.16.04.03 0 .17.07.06.02.05.03.1.05.14.08.11.05-.03-.04.01 0 .08.09.02.02 0-.04-.02-.03-.03-.07-.02-.11.02-.08.02-.1.01-.05-.03.06.07-.09 0 0-.08.11.08-.06-.02.03-.03.03-.14.09-.02.03-.04.03-.09.06-.13.08-.2.13-.41.25-.56.44-.21.25-.27.65 0 .89.23.2.49.31.78.39.05.01.1.03.15.04.03 0 .06.02.09.03-.07-.03-.09-.04-.04-.01.13.1-.04-.07.04.02.08.08-.03-.07-.04-.1.03.09 0-.09 0-.12 0-.04.12-.17.04-.09-.08.09.09-.06-.04.03a.95.95 0 0 1-.17.1l-.7.43c-.28.17-.41.57-.23.86s.56.41.86.23.58-.35.86-.53c.34-.22.64-.55.62-.99-.02-.4-.29-.75-.64-.94-.16-.08-.33-.13-.5-.18l-.2-.06c-.08-.02.07.05.01 0-.03-.02-.11-.09-.01 0v.89c.04-.05.09-.1.14-.14-.04.04-.06.04 0 .01.03-.02.06-.04.09-.05.15-.09.29-.18.42-.3.3-.26.49-.66.43-1.06-.11-.79-1.11-1.15-1.8-1.11-.33.02-.64.27-.63.63.01.32.28.65.63.63Z" class="cls-13"/><path d="M140.25 126.09s-.11-.05-.11-.02c0 .03.09.03.11.02ZM144.64 129.51c.66-.31-3.48.36-1.86.3-.15.46 3.23-.54 1.86-.3ZM145.66 128.98c1.52-.05-1.29-.45-1.15.15.1.1-2.41.02-.82.31.46-.1 3.57-.28 2.38-.37-.28.02-.87-.07-.41-.09Zm-.68.22c.07-.05.22-.11.26 0h-.26ZM143.79 127.79c-.07 0-.13.02-.18.03.13.04.33.22.18-.03Z" class="cls-8"/><path d="M144.16 128.06c-.09.08-.52-.14-.55-.24-.91.21 3.3.87.76.24-.06-.02-.07.05-.11.06-.13-.33.58.02-.02-.32.04-.14-.21-.27-.49-.39-1.31-.58.03.12.41.65ZM143.6 127.82h-.01ZM140.5 129.48c.49.07 1.07-.02.94.18 1.98-.19-1.04-.74-.94-.18ZM140.62 126.26c-1.47-.5 1.34.71.19.15-.05-.09 1 .38.44.04-.39-.07-1.04-.45-.63-.19ZM144.86 128.52s-.09-.02-.04 0c.02 0 .06.03.04 0Z" class="cls-8"/><path d="M145.33 128.57c.61.03-.96-.2-.29.02-.1-.03-.76-.22-.61-.06-.78-.3.67.39.26.13-.38-.23.5.08.63-.1ZM140.19 129.56c.17.22-.63.35-.19.38.34.09-.27.13-.13.19.22.21.25-.11.45-.08 0-.15-.15-.18.13-.24.33-.27-.92-.81-.26-.24ZM142.56 126.85c-.81-.19.66.93.61.42-.13.16-.1.05-.19-.14-.11-.08-.72-.1-.42-.27ZM142.13 126.44c-.54-.02-1.24-.26-.17.14.55.33.84-.09.17-.14ZM145.72 128.3c.15-.16-.46-.29-.91-.48-.15.24.66.32.91.48ZM142.36 129.16c.53-.21.25-.76-.12-.26-.19.17-.03.18-.3.07-.24.36.44-.06.42.19Z" class="cls-8"/><path d="M139.46 129.86c.03.07.31-.05.44-.03-.49-.16.66-.09.03-.26-.09.03-.1-.14-.47-.14.28.17-.17.29-.16.37.09 0 .3-.08.16.06ZM144.19 128.79c-.12-.51-.53-.06-.37.02.19.09.29.23.37-.02ZM141.51 126.5c-.11.03.69.48.68.41.16-.23-.47-.26-.68-.41ZM140.72 128.93c.03.11.29.25.43.16-.45-.3.33.07.32-.28-.16 0-.72.04-.75.12ZM140.75 129.99c-.16.07-.12-.31-.31-.03.12.54 1.01-.37.31.03ZM144.1 128.41s.08.16.13.16c.08-.04-.07-.11-.13-.16ZM139.58 129.31c-.53-.36-.16-.06.04-.33-.59-.11-.83.51-.04.33Z" class="cls-8"/><path d="M141.77 128.77c.01-.21-.45.18-.2.14.26-.04-.05.09.04.13.45.29.12-.17.16-.27ZM146.06 128.42c-1.18-.36.26.44.01.1-.62-.27.31.06-.01-.1Z" class="cls-8"/><path d="M142.16 128.62c-.22-.06-.67.18-.09.24-.15-.14.58-.27.09-.24ZM139.91 129.95c-.17-.04-.79-.06-.43.22.1-.29.7 0 .43-.22ZM147.31 128.77c-.45-.09-.11.01-.62.17.2 0 .79.03.8-.14-.27-.14-.63-.31-.18-.03ZM141.19 129.92c-.03.19.16 0 .14.13.02.05-.03.12.07.13.51-.06-.29-.51-.21-.26ZM141.92 129.95c-.16.07.16.08.21.07-.04-.13-.08-.19-.21-.07ZM139.07 129.57c.01-.08.47.16.22-.14-.4-.2-.29.44-.22.14ZM142.98 129.17c-.36.11.06.46.18.17-.13-.02-.03-.17-.18-.17ZM140.6 129c-.17-.15-.44-.09-.57.07.2.02.43-.01.57-.07ZM145.83 128.76c.31-.04.47.22.72-.04-.1-.03-.67-.05-.72.04ZM142.42 129.23c-.1-.04-.09-.18-.24-.13-.23.33.53.24.24.13ZM143.13 127.71c-.18.12.32.1.13-.04-.27-.21-.38-.19-.13.04ZM141.15 126.26c.41-.11-.25-.05-.39-.08.14.08.44.12.39.08ZM140.34 126.28c.08.08.23.13.34.13-.09-.07-.24-.07-.34-.13ZM142.6 129.58c.33-.02-.03-.21-.17-.18-.07.12 0 .25.17.18ZM143.82 129.16c.12-.34-.74-.15-1.05-.33-.12.44.76.17 1.05.33ZM144.71 128.46s.06.02.14.04c-.05-.02-.1-.03-.14-.04ZM144.71 128.37c-.39.06-.28.02 0 .08-.09-.05.34-.04 0-.08Z" class="cls-8"/><path d="M144.22 128.33c.13 0 .4.08.51.03-.2-.02-.34-.04-.51-.03ZM146.14 128.26c-.23.1.64.33.04 0 .36-.25-.82-.18-.04 0ZM144.33 129.05s.22-.06.13-.13c-.18-.14-.45.18-.13.13ZM144.22 127.54s.54.04.34-.12c-.1-.07-.58.03-.34.12ZM145.69 128.55c-.29-.07-.43-.26-.57-.14.06.01.43.14.57.14ZM141.75 127.17c.49.19-.39-.36-.14-.26.39.11-.42-.45-.03-.06-.26-.12-.02.25.17.32ZM145.23 127.84c.09 0 .29.1.38.07.12-.18-.86-.23-.38-.07ZM141.76 126.36c.19.04 0-.02.05-.04.33.01-.52-.13-.05.04ZM143.44 126.99c-.17-.14-.27-.09-.36.04.19.06.16-.05.36-.04ZM139.75 129.39c.35-.13.2-.26-.08-.17.24.11-.05.11.08.17ZM145.98 127.91c.11.05.29 0 .12-.13-.25-.09-.58-.13-.12.13ZM141.27 126.41c.12-.04-.18-.07-.21-.11-.27-.03.16.07.21.11ZM147.19 128.6c.39-.03-.1-.22-.27-.21-.26-.06.19.17.27.21ZM140.34 126.07l.21.07c.39.12-.13-.1-.21-.07ZM142.78 127.44c-.25.04-.25.08.04.16-.19-.11.13-.06-.04-.16ZM145.74 128.72c-.18-.11-.08-.07-.34-.08-.03.12.25.14.34.08ZM142.63 126.82c.11.12.38.27.14.03.3-.16-.34-.14-.14-.03ZM145.06 127.43s-.58-.24-.43-.02c.13-.02.4.13.43.02ZM147.04 128.6c-.2-.18-.24.03-.44-.17-.24.05.44.31.44.17ZM144.69 127.64c-.04.11-.32-.03-.16.17.1-.02.41-.13.16-.17ZM140.31 129.14c-.35.23.36.18.08.04 0 0-.09-.05-.08-.04ZM139.88 129.06c.17.01.12-.17-.02-.12-.18 0-.12.18.02.12ZM140.69 129.73c.1-.01 0-.16-.07-.15-.13.03-.18.22.07.15ZM144.94 127.66c.18-.02.39.08.45-.04-.13-.03-.48-.13-.45.04ZM140.52 126.05s.18.09.25.09a.679.679 0 0 0-.25-.09ZM142.78 126.68c-.03-.14-.18-.18-.21-.06 0 .05.16.06.21.06ZM140.74 126.5c.02.06.13.14.19.13-.03-.08-.09-.07-.19-.13ZM144.29 127.3c.16-.07-.01-.16-.1-.17-.12.04.05.13.1.17ZM142.06 127.21c.06.08.15.06.21 0 0-.08-.27-.04-.21 0Z" class="cls-8"/><path d="M143.3 126.87c.07-.12-.17-.12-.21-.07 0 .05.16.13.21.07ZM146.47 128.49c-.1-.05-.29-.07-.11.06.12.09.39.03.11-.06ZM141.95 126.88c-.09-.12-.38-.11-.09 0 0 0 .1.04.09 0ZM143.11 128.64c.08 0 .3.09.3-.03-.1.01-.26-.08-.3.03ZM144.08 127.25c-.04-.13-.28-.2-.18 0h.18ZM140.77 129.78c.07.04.33-.07.17-.13-.06-.05-.19.08-.17.13ZM145.11 128.18c.19 0-.08-.09-.14-.09-.14.02.07.12.14.09ZM141.33 126.64c-.2.01.03.09.11.09 0 0-.12-.08-.11-.09ZM139.82 130.35c0 .05.27-.04.29-.04 0-.11-.25-.01-.29.04ZM144.88 127.99c-.09-.04-.19-.09-.15.03.04.03.34.04.15-.03ZM141.33 126.84c-.05-.07-.12-.09-.18-.15-.14-.06.12.15.18.15ZM141.63 129.84c.15.05.06-.08.14-.08-.14-.07-.4.18-.14.08ZM140.58 129.18c.12.07.23.02.13-.13l-.13.13ZM143.55 126.86s.15.07.15 0c-.11-.1-.42-.07-.15 0ZM142.89 128.61c-.09.03 0 .1-.07.16.14.02.18-.08.07-.16ZM141.11 130.06c-.04.1.03.13.14.14.09-.08-.08-.11-.14-.14ZM140.28 130.14c-.29.02.02.15.12.05.03-.07-.1-.05-.12-.05ZM146.64 128.25c.23.05.03-.09-.07-.16-.25-.04-.03.09.07.16ZM141.9 127.04c.29.11-.07-.18-.05-.04-.18-.09.1.26.05.04ZM139.13 130.12s.07.06.12.09c.13-.07-.07-.15-.12-.09ZM144.08 127.11c-.07-.06-.08-.14-.18-.12.06.07.06.13.18.12ZM142.22 127.07a.544.544 0 0 0-.23-.11c.09.07.09.14.23.11ZM142.43 127.35c.18.09.06-.07-.03-.1-.15-.04.05.06.03.1ZM142.12 129.8c.07-.05.08-.26.15-.19.25-.32-.78.26-.15.19ZM138.99 129.93c.1.06.13.04.19-.03-.08-.01-.15-.06-.19.03ZM140.28 126.08s.13.06.17.06c-.05-.04-.1-.05-.17-.06ZM139.84 130.22c0-.07-.07-.03-.14-.03-.09.11.12.09.14.03ZM143.01 126.63h-.12c.05.08.25.12.12 0ZM144.23 128.68c.04.06-.01.18.1.14.07 0-.07-.12-.1-.14ZM142.36 129.97c-.13.05-.12.08.02.08.12-.03.07-.07-.02-.08ZM143.62 126.97c-.03.05.06.05.12.09.14-.05-.08-.11-.12-.09ZM143.46 127.59c-.06 0-.15-.06-.19-.02.04.06.26.1.19.02ZM143.11 129.46c-.01.07.08.12.12.05-.04-.02-.1-.11-.12-.05ZM141.97 129.16l-.15.11c.07.06.19-.06.15-.11ZM143.08 127.03c-.16 0-.17 0-.1.09.03-.04.06-.07.1-.09ZM143.88 127.4s.13 0 .12.01c.07-.14-.09-.09-.12-.01ZM141.18 129.8c-.03-.07-.04-.09-.13-.12 0 .11.03.13.13.12ZM141.08 126.73c.01.05.08.05.12.08-.03-.04-.12-.12-.12-.08ZM143.69 127.15s-.1-.1-.13-.06c.02.07.07.09.13.06Z" class="cls-8"/><path d="M141.95 129.81s-.09.05-.12.07c.07.08.14.01.12-.07ZM140.91 130.15c-.15-.07-.1.09 0 .04.1-.02.06-.13 0-.04ZM146.61 128.42c.27.03-.03-.12-.12-.11-.14 0 .11.06.12.11ZM141.66 130.06s-.03.09.01.13c.07-.06.11-.18-.01-.13ZM146.71 129.06c.16-.02.26-.03.35-.05-.1-.11-.22 0-.35.05ZM143.48 128.75l-.12.11c.04.07.2-.1.12-.11ZM139.45 130.39c-.03.11.23.07.17-.03l-.17.03ZM144.41 128.72c.11-.03-.06-.11-.1-.06 0 .04.05.08.1.06Z" class="cls-8"/><path d="M168.35 97.1c.9-2.42.97-5.14.2-7.61-.24-.77-1.45-.44-1.21.33.06.21.12.42.17.63-.53-1.18-1.17-1.93-1.17-1.93s-2.32-1.15-2.43-1.58c-.1-.44-3.66-.74-3.66-.74l-5.69 1.18-4.94.53-2.33 8.31a.625.625 0 0 0-.71.29c-2.28 3.56-4.43 7.2-6.44 10.91a178.624 178.624 0 0 0-8.49 17.94c-.03.08-.04.16-.03.25-.08 1.46.1 2.9.5 4.31.27 1.52.61 3.02.91 4.53.31 1.51.55 3.04.86 4.55.61 2.91 1.58 5.72 2.49 8.54l1.3 4.05c.03.08.07.16.13.23l.54 1.62c.84 2.5 1.76 5.11 2.74 7.63.67 1.74 1.38 3.47 2.1 5.19v.01a.61.61 0 0 0 .29.36l.02.01c.01 0 .02.01.03.02.07.03.14.05.21.06h.1c.04 0 .07 0 .11-.02.03 0 .06-.02.08-.03.01 0 .03-.01.04-.02 0 0 .01 0 .02-.01.02-.01.03-.02.05-.04 0 0 .01 0 .02-.01 1.4-.99 2.79-2 4.21-2.96a61.59 61.59 0 0 1 4.44-2.74c.12-.07.21-.16.25-.26.05-.08.07-.18.06-.28-.52-4.16-1.29-8.27-2.28-12.34-.94-3.84-2.07-7.63-3.29-11.39-.67-2.09-1.37-4.17-2.07-6.24.42-.2.82-.48.52-.83-.45-.53-.72-1.16-.72-1.16s.19-.89.21-.94c0-.02-.09-.12-.2-.24 2.89-3.17 5.46-6.6 8.2-9.89 1.35-1.62 2.78-3.16 4.2-4.72 1.4-1.54 2.74-3.13 4.05-4.74 1.44-1.78 2.85-3.6 4.17-5.48a.35.35 0 0 0 .06-.14c1-1.6 1.79-3.32 2.35-5.12Z" class="cls-13"/><path d="M150.48 161.03c.55 2.35 1.09 4.7 1.55 7.07.06.33.46.52.77.44.35-.1.5-.44.44-.77-.46-2.37-1-4.72-1.55-7.07-.18-.79-1.4-.45-1.21.33ZM148.24 171.96c-.99-2.4-1.9-4.83-2.78-7.27-.12-.32-.43-.53-.77-.44-.31.08-.55.45-.44.77.88 2.44 1.79 4.87 2.78 7.27.13.31.42.54.77.44.3-.08.57-.46.44-.77Z" class="cls-22"/><g id="Boys_foot_1"><path d="M159.64 169.01c.03-.79-.62-1.36-1.16-1.84s-1.07-.91-1.67-1.26c-.96-.56-2.99-1.43-3.78-.27-.09.08-.15.17-.17.29 0 .05-.02.1-.03.16-.28 1.51-1.08 2.83-2.11 3.97-.95 1.05-2.23 1.67-3.64 1.7-.34-.16-.69-.3-1.06-.4-.46-.12-1.01-.22-1.44.07-.01 0-.02.02-.03.02-.13.08-.23.2-.26.35-.36 1.68-.87 3.35-1.35 5s-1.03 3.33-1.59 4.97c-.27.78-.58 1.54-.77 2.34-.35.14-.72.23-1.09.32-.55.13-1.1.31-1.63.5-.56.21-1.12.43-1.67.67-.61.26-.95.75-1.03 1.4-.04.34.32.63.63.63.38 0 .58-.29.63-.62h6.16s6.22-6.81 6.28-6.88c.06-.06 7.56-8.79 9.53-11.09 0 .78 1.23.77 1.25-.03Z" class="cls-24"/><path d="M161.78 170.21c-.23-.33-.5-.65-.77-.94-.24-.26-.49-.54-.76-.77-.23-.19-.46-.3-.75-.34-.12-.01-.23 0-.35.03-.14.04-.23.11-.35.17a.6.6 0 0 0-.19.16c-4.25 4.67-8.52 9.32-12.78 13.99-1.18 1.29-2.35 2.58-3.53 3.87-2.1 0-4.2.1-6.3.1h-.07c-.22 0-.45-.02-.67.03-.31.07-.57.32-.64.63-.05.26-.03.53-.02.79s.04.53.08.79c.06.49.15.99.31 1.46.09.29.26.57.55.7.23.1.46.12.7.12H143.92c.09 0 .17-.02.24-.05.04-.01.07-.03.1-.05.04-.03.08-.06.11-.1 2.29-2.53 4.59-5.05 6.9-7.56l6.43-7.03c1.35-1.48 2.71-2.97 4.06-4.46.04-.04.07-.09.09-.13.3-.41.17-.99-.1-1.39Z" style="fill:#d6e8ea"/></g><g id="Boys_forearm_2"><path d="M133.24 74.08c-.2-.14-6.2-4.98-7.53-6.26-1.33-1.28-3.94-4.36-5.46-5.92s-5.22-5.98-5.41-6.15-.37-.82-.14-2 .15-2.08.28-2.89-.04-1.03-.47-2.05-.68-1.79-1.03-2.35-.71-1.28-1-.94c-.29.34-.24 1.21-.09 1.93s.81 2.24-.08 1.47-2.1-1.95-2.1-1.95-.6-.84-.73-1.38-.47-.9-.84-.99-1.51.08-1.5.68.54 1.93.54 1.93-1.67.23-1.77.64.09 1.25.09 1.25-.83 1.04-1 1.36-.65 1.6-.82 1.79-.05 1.57-.05 1.57.07 1.22 1.01 1.83 2.33 2.07 2.75 2.2 2.55.84 2.66 1.07 2.87 5.58 3.72 6.94c.85 1.36 5.58 7.97 6.36 8.82s4.27 3.25 4.27 3.25 1.62 1.35 2.18 1.45.97-.41 1.59-.77 3.45-2.91 3.79-3.46.78-1.06.78-1.06Z" class="cls-12"/><path d="M120.47 62.23c-.54.15-1.04.37-1.52.63l.3-1.12s.01-.09.01-.14c.05-.1.07-.22.04-.32-.06-.24-.29-.33-.52-.29-1.03.17-1.95.96-2.71 1.63s-1.52 1.48-2.23 2.26c-.36.4.23.99.59.59.04-.05.09-.1.13-.15.03.31.06.61.1.92.01.12.04.21.12.3.04.04.08.07.13.09 0 0 0 .01-.01.02-.14.18-.17.42 0 .59.15.15.45.18.59 0 1.39-1.75 2.96-3.57 5.19-4.2.52-.15.3-.95-.22-.81Zm-5.09 2.7c.28.07.56.12.84.17-.26.28-.5.56-.74.85-.04-.34-.07-.68-.1-1.02Zm1.75-.74c-.02-.39 0-.77.02-1.16.28.14.54.3.8.47-.29.21-.56.44-.83.68ZM117.95 59.56c-2.06.77-3.59 2.36-5.06 3.94-.37.4.22.99.59.59 1.35-1.46 2.78-3.01 4.69-3.73.21-.08.36-.28.29-.51-.06-.2-.3-.37-.52-.29ZM121.45 63.51c-1.19.58-2.29 1.31-3.29 2.17a14.763 14.763 0 0 0-1.99 2.09c-.22.28-.52.59-.47.98.03.22.17.42.42.42.2 0 .45-.19.42-.42-.03-.2.34-.54.46-.69.19-.23.39-.46.6-.68a14.279 14.279 0 0 1 4.27-3.15c.49-.23.06-.96-.42-.72ZM124.39 66.74c-.08.05-.16.11-.24.16-.64-.28-1.28-.55-1.92-.81.25-.17.51-.34.76-.5.45-.3.03-1.02-.42-.72-2.07 1.36-4.2 2.79-5.54 4.94-.18.3.05.57.32.61.03.16.13.31.3.34.02 0 .04 0 .06.01 0 .04 0 .07.01.1.04.11.1.19.19.25.17.11.34.22.51.35.06.04.11.09.17.14h.01l-.09.09c-.36.4.23.99.59.59a29.65 29.65 0 0 1 5.71-4.84c.45-.29.03-1.02-.42-.72Zm-5.17 3.63s-.06-.03-.09-.04c-.1-.05-.21-.09-.31-.13a4.69 4.69 0 0 0-.89-.24c.35-.52.76-1 1.2-1.44 0 .05.01.1.02.16l.08.64.15 1.13s-.07-.03-.11-.04c.1.05-.04-.02-.05-.03Zm.63-2.52c.52-.45 1.07-.86 1.64-1.26l.2 1.85c-.62-.19-1.23-.39-1.84-.59Z" class="cls-21"/><path d="M133.33 73.64c-.28-.17-.7-.08-.86.23-.85 1.64-2.13 3.03-3.73 3.97-.42.25-.88.45-1.21.82-.03.03-.08.09-.13.15-.09-.12-.26-.33-.29-.36-.34-.42-.82-.57-1.3-.78s-.92-.43-1.36-.68c-.94-.54-1.81-1.18-2.61-1.91-.98-.98-1.83-2.11-2.67-3.2a68.604 68.604 0 0 1-6.13-9.43c-.71-1.32-1.39-2.67-2.03-4.02-.09-.2-.31-.3-.52-.31h-.02c-.81-.01-1.43-.43-2.08-.81-.13-.08-.27-.16-.39-.24l-.09-.06-.17-.14-.83-.71-.7-.58a.602.602 0 0 0-.26-.32c-.07-.04-.14-.09-.21-.14.43.06.86.02 1.24-.19.44-.25.75-.71.73-1.22 0-.17-.05-.33-.11-.48h.18c.45-.04.84-.24 1.07-.63.22-.37.22-.86.08-1.26-.04-.14-.1-.27-.17-.4.1.02.2.03.3.04.4.04.8-.02 1.16-.19.38-.18.71-.54.73-.98.02-.41-.26-.75-.49-1.06-.57-.76-1.26-1.42-2.09-1.82-.05-.07-.1-.15-.15-.22.08.04.17.06.27.06.17-.02.35-.04.52-.07.04.04.08.07.13.11.08.05.15.1.23.15-.1-.07.03.04.05.05.04.04.08.08.12.13.27.32.53.64.85.93s.64.57.95.88c.14.14.27.29.39.44.01.01.02.03.03.04.03.04.06.08.08.12.03.04.05.09.07.13-.47.41-.81.97-1.11 1.52-.48.89-.8 1.91-.71 2.92.03.33.27.64.63.63.32-.01.66-.28.63-.63-.02-.24-.02-.48 0-.72 0-.06-.01.04 0-.06 0-.05.02-.11.03-.16.02-.12.05-.23.08-.35.05-.19.12-.38.2-.56 0-.02.02-.04.02-.06.02-.04.04-.08.06-.13.04-.09.09-.17.13-.26.13-.24.27-.46.42-.69.19-.3.37-.52.66-.68.08-.05.15-.11.2-.19.16-.2.16-.47.05-.71-.04-.1-.05-.22-.05-.38 0-.2.01-.4.02-.59.02-.43-.04-.84-.17-1.25-.06-.19-.13-.37-.18-.56-.02-.08-.04-.14-.05-.2.11.16.22.31.33.47.25.37.31.75.42 1.15.12.44.31.84.53 1.22.2.34.42.66.52 1.04.1.43-.06.88-.14 1.3-.1.51-.15 1.03-.16 1.55 0 .33.04.75-.16 1-.12.16-.3.29-.45.42-.18.16-.32.33-.47.51-.21.27-.04.7.23.86.26.15.53.08.74-.1 1.64 1.81 3.17 3.71 4.76 5.57 1.39 1.63 2.87 3.18 4.34 4.74.84.89 1.7 1.78 2.61 2.59.25.23.64.25.89 0 .23-.23.25-.66 0-.89-1.54-1.38-2.91-2.94-4.33-4.43-1.62-1.71-3.14-3.51-4.65-5.32-.89-1.06-1.79-2.11-2.72-3.14.2-.25.35-.54.41-.87.07-.39.05-.8.07-1.2s.07-.78.15-1.16c.09-.41.19-.84.18-1.27-.02-.43-.14-.8-.33-1.18-.15-.31-.34-.59-.5-.88-.17-.3-.26-.6-.34-.93-.11-.41-.23-.84-.47-1.2-.19-.29-.47-.55-.52-.87a.437.437 0 0 0-.13-.24c-.4-.54-1.18-.58-1.66-.1-.45.46-.47 1.15-.33 1.74.06.24.15.47.23.71-.13-.12-.26-.23-.38-.34-.29-.27-.58-.54-.83-.85-.13-.17-.26-.33-.42-.46l-.12-.09.06-.18c.08-.41-.05-.81-.33-1.12-.22-.24-.52-.4-.82-.52-.53-.21-1.18-.24-1.69.05-.57.33-.84 1.01-.76 1.65.03.25.1.5.19.73-.17 0-.33.03-.49.08-.49.15-.9.52-1.09 1-.16.42-.03.82.11 1.21-.25.05-.48.15-.67.31-.44.38-.56.98-.47 1.54.04.22.1.44.18.64-.06.03-.13.06-.14.07-.86.5-.94 1.6-.71 2.47.1.36.25.7.43 1.02.14.28.31.55.54.78.22.23.48.42.72.63.95.82 1.87 1.7 2.97 2.32.65.36 1.28.68 2 .77 1.09 2.26 2.26 4.5 3.55 6.65 1.31 2.18 2.76 4.28 4.31 6.3.9 1.18 1.8 2.38 2.83 3.46.03.04.06.08.1.12s.07.06.1.09l.01.01s.02.01.03.02c.79.72 1.64 1.37 2.56 1.92.48.28.97.54 1.47.77.41.19.93.29 1.21.66.36.47.85.97 1.51.77.33-.1.47-.33.68-.57.11-.13.32-.25.49-.35.91-.52 1.76-1.1 2.51-1.83.86-.83 1.58-1.8 2.13-2.86.15-.3.08-.68-.23-.86Zm-21.61-24.29Zm-3.95 2.59c.03-.03.04.03 0 0Zm.4-1.18s-.04-.02 0 0Zm-.42-5.29v-.02c0-.03 0-.04.01-.04v-.04c0-.01.01-.04.02-.06.01-.02.02-.03.03-.05 0-.01.02-.02.02-.03l.02-.02.06-.03c.02 0 .03-.01.05-.02.01 0 .03 0 .06-.01h.21l.25.06c.01 0 .03 0 .04.01.04.02.08.04.12.05.04.02.07.04.11.06.01 0 .02.02.04.02l.04.04c-.03.01-.07.03-.1.03h-.05c-.06 0-.13.01-.19.02-.31.02-.61.25-.62.57 0-.01-.04-.09 0 0v.02s-.02-.04-.02-.05c-.04-.1-.07-.2-.09-.31v-.23.02-.03Zm-2.33 3.27s.1 0 0 0Zm-.12.23s-.01.02 0 0Zm-.57 4.41c-.02-.17-.03-.33-.07-.5-.03-.16-.04-.24 0-.39.02 0 .09-.09.07-.08.02-.01.15-.07.21-.1.04-.02.08-.05.12-.08.13.02.29 0 .4-.08.13-.09.25-.22.29-.37s.04-.35-.06-.48c-.06-.08-.11-.16-.15-.25a.902.902 0 0 1-.06-.22v-.34c.02-.12.05-.24.1-.36.02-.04.04-.09.06-.13 0-.01.01-.03.02-.04.16-.03.31-.08.45-.17.42-.27.53-.8.37-1.26a1.95 1.95 0 0 0-.12-.28c-.02-.05-.04-.09-.05-.14-.03-.08-.02-.03-.03-.08 0-.03 0-.05.03-.08.02-.03.06-.08.11-.12.12-.09.28-.11.46-.1.03 0 .07.01.1.02.85.09 1.61.67 2.18 1.32.14.16.27.33.4.51.01.01.02.04.04.07-.17.03-.29.07-.48.05-.25-.03-.48-.13-.72-.18-.37-.08-.76.01-.97.34-.18.27-.18.59-.09.89.08.28.24.54.36.81.03.08.06.16.08.24 0 .03-.01.09-.02.14-.04 0-.13.02-.18.02-.15 0-.41-.12-.63-.13-.78-.04-.96.76-.73 1.35.06.14.13.28.19.42.03.07.05.09.05.14 0-.02-.03.04-.07.07 0 0-.07.04-.13.05-.28.06-.61-.06-.86-.15-.24-.08-.45-.19-.66-.32Zm3.19 3.61s.01 0 .02.01h-.01Z" class="cls-22"/><path d="M107.76 45.42s0 .03-.01.05c.01-.04.02-.06.01-.06Z" class="cls-22"/></g><path d="M126.79 69.51s-.03-.03-.05-.04c.02.02.03.03.05.04Z" class="cls-9"/><path d="M144.37 64.29s-.07-.01-.1-.02c-.24-.68-.92-2.52-1.7-3.87-.12-.21-.26-.52-.41-.88l.01-.01c-.02-.03-.03-.08-.04-.11a.485.485 0 0 0-.12-.27 1.22 1.22 0 0 0-.07-.17c.09.01.05-.02-.03-.08-.02-.06-.05-.13-.07-.2-.03-.07-.05-.13-.08-.2-.02-.05-.04-.1-.05-.15-.01-.18-.04-.25-.09-.26-.08-.24-.17-.49-.25-.75-.09-.75-.4-1.52-.72-2.26-.67-2.17-1.29-4.31-1.59-5.08-.31-.79-.57-1.72-.76-2.46 0-.04 0-.08-.03-.11l-.03-.12c.05-.01.06-.06-.03-.16v-.01c.15.1.17-.05.14-.25.06-.1.12-.21.18-.31.4-.7-.68-1.34-1.08-.63-.12.22-.24.44-.37.65-.03.04-.05.08-.08.12-.06.11-.12.21-.18.32-.06.04-.11.11-.16.23h.03c-.06.11-.13.22-.19.34-.14.05-.17.12-.11.19l-.12.21s-.01 0-.02-.01c-.05.06-.06.11-.06.15-.63 1.16-1.24 2.32-1.85 3.49-2.15 3.53-4.79 8.77-6.82 12.38-.28.43-.55.87-.83 1.29-.46.68-.96 1.34-1.58 1.89-.13.11-.18.28-.18.44 0 .17.04.34.18.45.24.33.37.42.49.38l1.22.95c-.06.05-.11.08-.11.08a.3.3 0 0 0 .08.04h-.03c.08.06.18.13.29.22.02.02.06.05.09.08.16.12.32.26.45.36.07 0 .14 0 .21-.02l.02.02c-.19.32 1.42 1.1 1.74 1.47.15-.02 1.49 1.39 2.2 1.6.03.03.06.05.1.07-.02.13.3.41.51.4.09.07.17.14.26.2.08.24.23.47.6.61 0-.05-.01-.09-.02-.14 0 .05.03.05.06.04.41.32.83.64 1.24.97-.07.06-.04.12.17.21.02-.01.03-.02.04-.04.01 0 .02.02.03.02-.05.17.31.41.6.47h.02c.08.06.16.13.25.19l.64.5c.89.82 1.82 1.9 2.55 1.88.19.04.39.01.55-.15a.67.67 0 0 0 .17-.37c1.45-3.34 2.83-6.72 4.14-10.12.23-.59.45-1.18.67-1.78.19-.46.3-.73.3-.72 0 0 0-.02-.01-.03.05-.13.1-.27.15-.4.12-.32-.13-.69-.44-.77Z" class="cls-9"/><path d="M184 60.9c-5.48-6.16-21.98-19.09-29.36-19.82-3.15-.76-3.11-5.81-7.56-6-1.15-.21-4.94 7.73-6.38 8.43-.85-2.18-2.4-1.33-2.74 1.08-3.61 17.38.75 35.44 4.22 52.98-.03 7.33 6.71 2.53 11.16 1.8 7.79-2.27 9.96-.5 7.79-10.17 2.79 5.55 3.84 8.4 10.34 4.65 2.26-5.03-2.74-15.08-2.83-21.75 3.52-2.03 12.16-6.99 15.35-11.21Zm-24.61-18.21c-.04.12-.24.02-.22-.08.07.02.22-.02.22.08Zm-.82-.6s.29.09.31.09c.02.26-.78-.2-.31-.09Zm-.28.26c-.08-.03-.16-.06-.25-.08.07 0 .16.04.25.08Zm-1.74-.58c.11-.15 1.9.34.82.29m-9.87-4.04c0 .18-.38-.54-.4-.52.16.21.31.4.4.52Zm21.69 33.36c-.56-.29-.75-.78-.05-.25.15.01.28.29.05.25ZM183.19 62.33Z" class="cls-6"/><path d="M154.84 40.82c-.07.03-.08.06-.01.1.08 0 .04-.06.01-.1Z" class="cls-6"/><g id="Boys_head"><path d="M146.55 36.59c.11-.26-.6-3.03-.65-4.91s-1.39-6.53-2.97-7.73-4.2-3.22-5.86-3.73-4.79.04-5.21 1.09-.94 5.79-1.1 7.02c-.15 1.23-.53 3.21-.5 4.28.03 1.07-.02 1.38.57 1.55.58.17 1.1-.17 1.39.58.29.75 2.28 4.63 2.31 4.69s1.88.03 2.21.08 1.73-.88 1.73-.88l2.29 7.08s3.38-3.49 5.8-9.1Z" class="cls-12"/><path d="M141.53 28.16c.06-.11.13-.22.2-.33s-.06.05.04-.05l.12-.12c-.1.09.01 0 .04-.02-.16.09.12-.03.01 0s.21 0 0 0h.05c-.08-.02-.09-.02-.03.01-.16-.11 0-.01 0 .01-.05-.07-.06-.08-.02-.02l.02.04s.03.05.04.08c-.03-.07-.04-.09-.02-.04.01.05.03.1.05.15.03.1.05.21.06.31.03.15 0-.06.01.08 0 .07.01.14.02.22.02.26.01.51-.01.77 0 .05-.03.18 0 .06 0 .05-.02.1-.03.15s-.03.1-.04.15c-.03.12.06-.1 0 .01 0 0-.05.11-.06.11.06-.07.06-.08.02-.03l-.03.03c.08-.05.09-.06.03-.03-.05.03-.05.03 0 0q.05-.02 0 0c.08 0 .09-.01.01 0 .11.01.03 0-.03-.02.13.05-.02-.02-.04-.03-.03-.02-.13-.1-.05-.03-.06-.05-.11-.1-.16-.14-.24-.22-.65-.26-.89 0s-.26.65 0 .89c.48.45 1.13.82 1.78.45.51-.3.68-.88.75-1.43.07-.58.04-1.19-.1-1.77-.14-.61-.54-1.14-1.2-1.21-.76-.08-1.27.53-1.61 1.13-.16.29-.08.7.23.86s.69.08.86-.23Z" class="cls-22"/><path d="m147.72 38.27-.91-4.35c.18-1.34.37-2.68.55-4.03.17-1.26.32-2.54.31-3.82-.02-2.57-.78-5.18-2.85-6.85-1.9-1.53-4.42-2.19-6.84-2.04-2.48.15-5.22 1.13-6.48 3.42-.62 1.13-.99 2.41-1.22 3.68-.25 1.35-.27 2.66-.15 4.03.03.34.27.63.63.63.32 0 .66-.29.63-.63-.06-.63-.1-1.26-.09-1.89.01-.47.06-.98.12-1.37.16-1.07.43-2.15.85-3.15.38-.9.88-1.63 1.75-2.21.98-.65 2.13-1.02 3.29-1.18 2.09-.3 4.41.12 6.21 1.31.88.58 1.61 1.42 2.1 2.39s.72 2.14.77 3.25c.07 1.36-.06 2.72-.24 4.07-.17 1.35-.39 2.84-.58 4.26v.06a.66.66 0 0 0 0 .28l.93 4.48c.07.33.46.53.77.44.35-.09.51-.44.44-.77Z" class="cls-22"/><path d="M141.27 46.09c-.22-.9-.53-1.78-.8-2.67-.35-1.12-.72-2.24-1.03-3.38-.07-.25-.14-.51-.2-.76l-.06-.29c.16-.1.31-.21.46-.31.28-.19.4-.55.23-.86-.16-.28-.58-.41-.86-.23-.77.52-1.56 1.01-2.37 1.45-.3.17-.64.35-.98.36-.02 0-.17-.01-.16 0-.05-.01-.16-.04-.16-.04-.05-.03-.18-.12-.14-.08-.03-.02-.05-.05-.07-.08 0 0 0-.01-.03-.06 0-.02-.02-.04-.03-.06-1-1.6-1.82-3.3-2.44-5.08a.424.424 0 0 0-.06-.14.556.556 0 0 0-.22-.21c-.01 0-.03-.02-.04-.02 0 0-.02 0-.03-.01a.61.61 0 0 0-.33-.06H131.83c-.01 0-.02 0-.03.01-.03.01-.07.03-.1.05-.02.01-.06.03-.07.03-.03 0-.06.01-.07.01-.05 0-.14 0-.16-.01-.06-.02-.13-.03-.19-.05l-.06-.02s-.1-.05-.14-.08c0 0-.07-.06-.09-.07-.02-.02-.05-.05-.05-.06l-.03-.06c-.04-.1-.04-.23-.05-.34-.01-.3 0-.6.03-.9.12-1.27.48-2.51.56-3.79.02-.34-.31-.63-.63-.63-.36 0-.61.29-.63.63-.1 1.49-.59 2.94-.6 4.44 0 .78.18 1.48.9 1.88.35.19.79.32 1.21.3a26.92 26.92 0 0 0 2.35 4.79l.01.01c0 .02.01.03.02.05.25.43.69.73 1.17.83.57.11 1.12-.02 1.64-.26.42-.19.82-.41 1.22-.65.15.67.36 1.33.56 1.98.35 1.14.71 2.27 1.06 3.4.14.44.27.88.38 1.32.19.79 1.4.45 1.21-.33Z" class="cls-22"/><path d="M135.84 23.38c-.03-.13-.03-.26.04-.37.28-.91.64-1.8 1.08-2.65.15-.28.48-.48.79-.34.24.11.44.41.37.69.9-.1 1.79-.22 2.68-.37.54-.1 1.08-.21 1.61-.34.33-.08.66-.19 1-.23-.04-.03-.09-.05-.12-.07-.13-.08-.37-.18-.55-.24-.31-.1-.45-.5-.34-.79.13-.32.48-.44.79-.34.88.29 1.62.92 2.25 1.58.67.7 1.24 1.51 1.65 2.38.98 2.04.76 4.46.5 6.63-.16 1.39-.36 2.78-.72 4.13-.03.15-.11.3-.22.4-.28.22-.62.14-.86-.1a7.087 7.087 0 0 1-2-4.41c-.05-.72-.1-1.43-.52-2.04-.09-.13-.2-.27-.31-.38l-.17-.14a.55.55 0 0 1-.09-.07c-.01 0-.08-.04-.08-.05-.1-.05-.26-.1-.3-.11-.09-.02-.32-.05-.46-.06h-.19c-.09 0-.19.01-.28.03-.09.01-.18.03-.28.05a.93.93 0 0 0-.14.04c-.33.1-.59.2-.74.51-.01.02-.03.05-.04.07v.76c0 .21.01.42.04.63.03.32-.17.66-.51.7-.31.03-.66-.17-.7-.51-.06-.62-.04-1.25-.05-1.88-.97-.91-1.96-1.79-2.93-2.71l-.03-.03a.583.583 0 0 1-.19-.34Z" class="cls-24"/><path d="M131.16 20.9c.55-1.98 2.43-3.16 4.29-3.71 1-.3 2.03-.45 3.07-.48 1.11-.03 2.23.05 3.29.41 1 .34 1.93.96 2.57 1.81.04.05.08.1.11.16s.03.08.04.12v.01c.07.31-.07.68-.47.76-2.02.37-4.04.76-6.06 1.13-1.9.35-3.81.65-5.74.72H131.97c-.19 0-.38-.05-.51-.17-.28-.14-.4-.44-.31-.77Z" class="cls-22"/></g><path id="Boys_open_eye" d="M133.01 28.23v.08c-.01.09 0 .17.05.24.03.08.07.14.13.2s.12.1.2.13c.08.04.15.06.24.05l.17-.02c.11-.03.2-.08.28-.16l.1-.13c.06-.1.09-.2.09-.32v-.08a.33.33 0 0 0-.05-.24.533.533 0 0 0-.13-.2.533.533 0 0 0-.2-.13.402.402 0 0 0-.24-.05l-.17.02c-.11.03-.2.08-.28.16l-.1.13c-.06.1-.09.2-.09.32Z" class="cls-22"/><path d="M136.53 33.05c-.01-.17-.13-.31-.31-.31-.13-.02-.27.03-.32.15a2.48 2.48 0 0 1-2.15 1.52c-.06 0-.11.02-.16.05-.05.01-.1.04-.14.08-.13.13-.11.31 0 .44.28.34.59.68 1.01.85s.89.1 1.25-.15.64-.66.76-1.1c.13-.49.1-1.01.07-1.51Z" class="cls-21"/><g id="Boys_forearm_1"><path d="m181.99 63.25-6.11 4.26s-5.44 2.01-6.65 2.63c-1.2.62-6.69 3.89-8.13 4.9-1.44 1.01-6.19 4.65-7.13 5.18s-5.38 2.48-6.17 3.13-2.74 3.68-2.89 4.07.9.26.9.26 1.35-1.49 2.6-2.25 2.72-1.39 2.72-1.39-.55 2.3-.67 3.16-.13 1.96.21 2.24.86 1.26 1.43 1.73 1.6 1.74 1.69 1.32c.09-.43-.23-2.81-.23-2.81l.5-2.38 1.21.77s.56 2.92.94 3.43.7 1.18 1.1 1.09.48-.99.48-.99-.69-3.58-.59-4.06-.57-.51.59-1.05 2.76-2.24 2.98-3.08.82-2.57.82-2.57 7.63-1.67 8.21-2 7.54-2.76 8.94-3.74 3.49-2.93 4.35-3.76 1.48-.49 1.58-1.28-.17-1.04-.5-1.95c-.33-.91-1.06-2.38-1.33-3.32s-.83-1.53-.83-1.53Z" class="cls-12"/><path d="m149.41 85.32.01-.01-.01.01zM185.39 69.14c-.15-.38-.48-.65-.64-1.03-.19-.42-.26-.89-.36-1.33a11.156 11.156 0 0 0-1.98-4.3c-.2-.27-.54-.41-.86-.23-.27.15-.43.59-.23.86.52.69.97 1.44 1.31 2.24.33.8.5 1.67.72 2.52.11.42.26.85.5 1.21.1.15.24.3.33.45.01.02.02.04.02.06 0 .01-.01.03-.01.03-.25.25-.66.35-.96.57-.39.28-.6.69-.87 1.07a7.46 7.46 0 0 1-1.98 1.9c-.06.04-.11.08-.15.14-4.44 2.77-9.38 4.55-14.42 5.89-1.47.39-2.96.75-4.44 1.09-.24.05-.4.27-.45.5-.07.1-.11.23-.13.36-.26 1.96-1.46 3.99-3.35 4.76-.14.06-.25.14-.34.25-.19.07-.36.21-.39.42-.14 1.05-.05 2.07.15 3.11.09.46.19.92.29 1.38.05.23.12.47.14.71v.13c-.1-.08-.17-.2-.24-.33-.2-.36-.38-.73-.53-1.11-.33-.85-.56-1.75-.66-2.66a.706.706 0 0 0-.21-.45c-.02-.02-.03-.04-.05-.07-.06-.07-.14-.13-.21-.19-.13-.1-.26-.2-.39-.29-.16-.11-.33-.22-.49-.33-.05-.04-.1-.08-.17-.1a.402.402 0 0 0-.24-.05c-.15 0-.34.07-.44.18a.38.38 0 0 0-.09.13c-.02.04-.04.08-.06.13-.36.81-.51 1.73-.57 2.6-.04.5.02.98.09 1.47.05.32.11.63.16.95v.05a.835.835 0 0 1-.12-.16c-.24-.35-.4-.74-.58-1.13-.19-.4-.41-.79-.71-1.12-.15-.17-.35-.32-.54-.44-.12-.07-.25-.12-.38-.17 0-.03-.02-.05-.03-.08 0-.03.01-.07.02-.11l.09-.46c.09-.46.2-.91.31-1.36.13-.52.27-1.04.44-1.55s.3-.9.51-1.32v-.02c.1-.19.1-.44 0-.62-.01-.02-.02-.03-.03-.04l-.02-.02c-.02-.02-.03-.04-.05-.06-.01-.01-.03-.02-.04-.04-.02-.02-.04-.03-.06-.04 0 0-.01-.01-.02-.01h-.02c-.02-.01-.05-.02-.07-.03-.01 0-.02 0-.04-.01-.03 0-.05-.01-.08-.02H151.56c-.03 0-.06 0-.09.02-.01 0-.02 0-.04.01-.02 0-.04.01-.06.02 0 0-.02 0-.03.01-.07.03-.13.06-.2.09h-.01c-.03.01-.06.02-.09.04-.14.05-.27.1-.41.15-.25.09-.51.18-.76.28-.57.23-1.1.52-1.55.95-.01.01-.03.02-.04.03l-1.88 1.91c-.14.14-.28.29-.43.43l-.03.03c.58-.89 1.2-1.76 1.86-2.54.46-.54.95-.99 1.55-1.37.76-.48 1.58-.83 2.41-1.17.99-.4 1.99-.78 2.92-1.3.08-.05.15-.1.2-.16 2.04-1.79 4.24-3.44 6.52-4.9.02-.01.04-.03.06-.05 3.48-2.22 6.95-4.45 10.68-6.22 1.21-.58 2.44-1.1 3.69-1.58.32-.12.53-.42.44-.77-.08-.3-.45-.56-.77-.44-4.37 1.66-8.4 3.95-12.34 6.44-1.09.69-2.18 1.39-3.26 2.08a.49.49 0 0 0-.13.12 56.224 56.224 0 0 0-5.75 4.42c-1.64.89-3.47 1.36-5.08 2.31-.7.41-1.34.92-1.88 1.53s-1.03 1.27-1.5 1.94-.91 1.32-1.32 2.01c-.06.1-.09.2-.09.3-.05.21-.01.44.15.6.37.38.94.48 1.44.33s.88-.48 1.23-.84c.73-.73 1.45-1.48 2.18-2.21 0 0 .01 0 .02-.02.05-.05.1-.1.16-.15.02-.02.05-.04.08-.06h.01c.06-.05.02 0 0 0 .06-.03.29-.2.32-.21.11-.06.23-.12.34-.18.02 0 .04-.02.06-.03.06-.02.12-.05.18-.07.07-.03.14-.05.22-.08-.21.62-.38 1.25-.53 1.88-.11.46-.22.92-.31 1.39-.11.53-.26 1.14.09 1.62.11.15.26.25.42.29.13.05.25.09.34.13.31.14.49.42.67.73.4.71.62 1.51 1.23 2.08.33.31.78.58 1.25.58.29 0 .6-.14.75-.4s.12-.54.08-.82c-.11-.91-.37-1.83-.32-2.75.03-.44.07-.76.17-1.2.02-.11.05-.23.08-.34.05.03.1.07.14.1.02.02.05.04.07.06.1.78.26 1.55.52 2.3.27.78.59 1.66 1.14 2.29.63.73 1.91.66 2.19-.36.1-.39.03-.79-.04-1.17-.09-.45-.19-.89-.28-1.33-.19-.91-.36-1.86-.26-2.79 1.14-.49 2.12-1.26 2.8-2.3.66-1 1.09-2.15 1.29-3.33 5.16-1.19 10.28-2.62 15.06-4.94 1.36-.66 2.68-1.39 3.96-2.2.08-.05.14-.11.18-.17a9.125 9.125 0 0 0 2.33-2.35c.12-.18.22-.39.39-.53.12-.1.29-.17.43-.23.23-.11.44-.23.64-.41.41-.36.59-.93.39-1.45ZM153.3 92.57c0 .05 0 .05 0 0Z" class="cls-22"/></g></g><g id="Outline"><path d="M56.91 103.53c-.13.31.65.93 1.74 1.38 1.09.45 2.08.57 2.21.27.13-.31-.65-.93-1.74-1.38-1.09-.45-2.08-.57-2.21-.27Z" class="cls-5"/><path d="M62.41 99.89c-.33-.06-.91 1.66-1.29 3.84-.39 2.18-.43 3.99-.1 4.05.33.06.91-1.66 1.29-3.84s.43-3.99.1-4.05ZM50.95 170.67c-.25-.22-4.46 4.21-9.39 9.89-1.24 1.42-2.37 2.8-3.5 3.92-1.12 1.13-2.23 2.03-3.26 2.61-2.06 1.2-3.65 1.06-3.64 1.27 0 .04.09.08.28.12.18.04.46.09.82.08.71 0 1.77-.17 2.94-.71 1.18-.53 2.43-1.43 3.64-2.57 1.23-1.14 2.4-2.52 3.63-3.93 4.94-5.68 8.73-10.46 8.48-10.68ZM90.16 179.96c-.06-.19-1.54.28-3.98.31-1.22 0-2.67-.08-4.28-.31-1.61-.22-3.37-.57-5.24-.93-3.74-.72-7.14-1.24-9.56-1.71-2.43-.46-3.91-.86-3.97-.7-.06.15 1.35.84 3.78 1.53 2.42.69 5.81 1.35 9.54 2.07 1.87.35 3.67.68 5.33.85 1.66.18 3.19.18 4.46.06 2.56-.26 3.99-1.04 3.93-1.16Z" class="cls-5"/><path d="M146.28 161.19c.08-.02 0-.93-.23-2.57s-.6-4.01-1.08-6.93c-.96-5.84-2.38-13.89-4.01-22.78-.1-.54-.2-1.08-.3-1.61.14-.45.27-.9.4-1.35.33-1.04.66-2.06 1.04-3.04a57.23 57.23 0 0 1 2.42-5.57 60.43 60.43 0 0 1 5.38-8.78 64.24 64.24 0 0 1 4.44-5.37c1.11-1.22 1.74-1.89 1.68-1.96-.05-.05-.79.5-2.01 1.62-1.23 1.12-2.91 2.85-4.78 5.18a54.467 54.467 0 0 0-5.69 8.79c-.92 1.75-1.77 3.65-2.54 5.65-.4 1-.74 2.04-1.08 3.1l-.24.8-.12.4-.07.23-.06.2c0 .07.02.14.03.21.1.56.21 1.13.31 1.7 1.63 8.88 3.18 16.91 4.36 22.71.59 2.9 1.09 5.24 1.46 6.86s.61 2.5.7 2.49ZM160.6 161.83c.17 0 .22-2.74.18-7.15-.05-4.41-.19-10.5-.43-17.23-.23-6.73-.58-12.8-.51-17.19.04-4.39.37-7.09.19-7.12-.15-.03-.78 2.66-1.04 7.09-.29 4.43-.07 10.54.16 17.26.24 6.72.52 12.81.78 17.21s.51 7.12.68 7.12Z" class="cls-16"/><path d="M140.51 51.11c-.08-.11-.5.03-1.15.36-.32.16-.71.38-1.13.63-.29.18-.25.13-.29.14-.02 0-.03-.01-.03-.02l.03-.06v-.05c.02-.16.05-.33.07-.5.45-3.28.55-5.98.22-6.03-.33-.05-.97 2.58-1.42 5.86-.14 1.12-.28 2.2-.41 3.21.48-.34.93-.68 1.37-1 .41-.3.88-.65.99-.75.38-.31.72-.59.98-.84.54-.49.82-.84.74-.95ZM150.72 40.76c-.13-.07-.83.78-1.54 2.39-.72 1.6-1.41 4-1.49 6.71-.02.68 0 1.34.04 1.97.01.15.03.29.04.43v.02c0 .01.03.06 0 .05h-.05c-.02 0 .02.02-.07-.02-.25-.11-.49-.21-.72-.31-.47-.19-.9-.37-1.3-.54-1.6-.64-2.63-.96-2.7-.81-.07.15.83.75 2.33 1.59.38.21.79.43 1.24.67.22.12.46.24.7.36.45.22.91.45 1.39.69l.38.19.1.05s.07.05.06 0l-.02-.21c-.03-.28-.06-.56-.08-.84l-.09-.88-.03-.49c-.03-.6-.04-1.22-.02-1.86.08-2.55.59-4.83 1.08-6.45.48-1.62.9-2.6.74-2.69ZM165.83 69.66c.27-.16-1.6-3.52-5-6.76-3.39-3.26-6.83-4.97-6.98-4.69-.19.3 2.87 2.42 6.14 5.56 3.29 3.13 5.54 6.09 5.84 5.89Z" class="cls-5"/><ellipse cx="142.96" cy="128.45" class="cls-5" rx="2.73" ry=".6"/><path d="M139.74 124.49c-.16.29.88 1.17 2.32 1.96s2.74 1.19 2.9.9c.16-.29-.88-1.17-2.32-1.96s-2.74-1.19-2.9-.9Z" class="cls-5"/></g></svg>