<svg xmlns="http://www.w3.org/2000/svg" width="200" height="200" viewBox="0 0 200 200"><defs><style>.cls-4{fill:#ff8100}.cls-5{fill:#eeece9}.cls-7{fill:#a0b3b4}.cls-8{fill:#f7b3c2}.cls-9{fill:#fff}.cls-13{fill:#79577a}.cls-17{fill:#f5c141}.cls-18{fill:#5b3d5b}</style></defs><path id="BG_Strong_Light" d="M38.14 159.88c27.8.87 54.45-8.6 81.73-12.24 30.7-3.14 77.97-.17 69.13-45.44-2.16-15.52-2.14-37.68-7.14-56.17-5.31-19.67-24.37-32.47-44.63-30.31-29.32 3.13-68.93 4.07-96.48 15.48C17.86 40.67 3.29 57.38 9.86 88.56c6.98 22.45-3.94 68 28.28 71.32" data-name="BG_Strong Light" style="fill:#edebe8"/><path id="BG_Strong_Dark" d="M38.14 159.88c27.8.87 54.45-8.6 81.73-12.24 30.7-3.14 77.97-.17 69.13-45.44-2.16-15.52-2.14-37.68-7.14-56.17-5.31-19.67-24.37-32.47-44.63-30.31-29.32 3.13-68.93 4.07-96.48 15.48C17.86 40.67 3.29 57.38 9.86 88.56c6.98 22.45-3.94 68 28.28 71.32" data-name="BG_Strong Dark" style="fill:#575655"/><g id="Illustrations"><path d="M139.19 187.95h-.02zM115.24 71.27" class="cls-7"/><path d="M164.63 140.03c1.06-4.05 6.5-24.2 6.9-25.47.39-1.27 5.71-20.37 6.27-22.33s2.21-7.3 2.1-8.43-.32-2.85-1.25-3.75-2.32-1.92-5.77-3c-3.46-1.07-22.92-6.96-25.88-7.82-2.48-.71-14.89-4.21-19.61-5.63.04-.14-.02-.33-.17-.37a11.6 11.6 0 0 0-5.86-.44q-1.1.23-2.05.82a6 6 0 0 0-1.8 1.88 16 16 0 0 0-1.59 3.38c-.09.26-.63 2.23-.68 2.4l-.88 2.99c-.05.17.11.34.27.36v.04l.92.24-2.65 9.46-.96-.28-.12-.05c-.19-.03-.32.1-.36.27l-1.07 3.73-.07.13-3.78 13.2q-1.92 6.67-3.81 13.34a2446 2446 0 0 1-4.02 13.98q-2.02 6.9-4.08 13.79l-4.07 13.74-.52 1.78c-.06.21.08.37.24.43l-.61 2.01-.05-.02c-.19-.03-.32.1-.36.27l-.87 2.97-.01.02q-.17.54-.32 1.1l-.14.47v.13q-.4 1.94-.2 3.92a6 6 0 0 0 1.17 2.96 7.4 7.4 0 0 0 2.65 2.24c.63.32 1.32.52 2 .73l1.05.3 2.14.64 6.45 1.93q2.69.78 5.39 1.54 5.37 1.52 10.72 3.08a341 341 0 0 0 11.8 3.2c2.12.57 4.27 1.06 6.39 1.61l1 .26.42.12.19.05.06.02h.02l.04.01h.02l.06.02q1.26.36 2.53.64c.84.2 1.71.42 2.57.48a6.4 6.4 0 0 0 3.7-.77 7 7 0 0 0 2.45-2.59c.59-1.04 1.06-2.14 1.54-3.23.08-.18-.02-.33-.16-.4.89-2.64 2.63-7.96 4.71-14.88 2.47-8.2 6.93-23.16 7.98-27.2Z" style="fill:#ca919e"/><path d="m173.79 86.74-.05.15.23.08a1 1 0 0 0-.19-.23Zm12.25 1.99.07-.04q-.06 0-.07.04M177 87.22c.1-.07.03-.19-.05-.3-.52-.03.15.31.05.3m-65.17 27.25.13-.19a.4.4 0 0 0-.13.19m67.57-28.09c-.23-.13-.39-.15-.37.03.28.09.16-.05.37-.03m-.71-.13-.13-.17.14.25zm-1.49-.77c-.1-.02-.19-.03-.13.02q.03-.03.13-.02m.15.1.05-.07s-.09 0-.14-.02q.08.02.09.09m-.44-.33-.32.02.23.35c.38.02-.33-.27.09-.37m-1.94-.35c-.32-.34.32 0 .48-.01-.27-.2-.86-.06-.91-.4-.91-.27-.01.53-1.03.15.86.58.71-.27 1.45.26Zm.44.48c.11-.11-.27-.29-.43-.26.1.06.22.33.43.26m-1.87-1.39-.11.05.32.18z" class="cls-5"/><path d="M118.44 178.5c1.87.82 13.34 3.77 15.25 4.28s8.37 2.32 9.64 2.53 3.43.87 4.72.43 2.55-.99 3.19-2.25a41 41 0 0 0 2.63-7.46c.43-2.19 3.78-12 4.19-13.42s5.08-16.98 5.49-18.96 4.75-16.9 4.99-17.96 3.4-12.22 4.24-15.62 4.49-16.03 4.83-17.19 1.94-6.74 2.09-7.57.18-2.9-.22-3.8a6.7 6.7 0 0 0-2.79-3.02c-1.62-.98-5.57-1.86-6.82-2.35-1.24-.49-15.57-4.68-17.74-5.37-2.18-.68-15.71-4.34-17.23-4.94-1.52-.59-9.08-2.68-10.26-2.71s-2.43.84-2.93 1.39a10 10 0 0 0-1.88 3.26c-.33 1.21-1.89 6.31-2.16 7.41s-5.2 18.06-5.69 19.8l-4.19 14.75s-7.21 24.96-7.69 26.57-7.76 25.9-8.07 27.14-.58 3.94-.32 4.84.83 2.26 2.24 2.97 7.57 2.34 8.23 2.55 16.25 4.7 16.25 4.7" class="cls-8"/><path d="m179.61 90.88.25-.86.49-1.69c.07-.24.19-.51 0-.73q-.15-.15-.37-.21l-.43-.17c-.3-.12-.52.21-.42.43l-.96 3.29s-.1.06-.14.12c-.25.29.15.65.42.47l.03.02.21.09q.31.12.6-.06c.21-.16.25-.44.32-.68Zm-3.95 13.92.61-2.17.6-2.14.3-1.09q.16-.47.25-.95c.04-.32-.02-.65-.28-.86a.7.7 0 0 0-.84-.05.3.3 0 0 0-.11.36l-1.93 6.92c-.18.13-.23.45.03.56s.55.2.83.11c.32-.1.45-.38.54-.68Zm-3.01 10.73q.33-1.08.62-2.16c.38-1.4.77-2.8 1.07-4.22.07-.32.06-.69-.19-.93-.22-.21-.57-.27-.82-.08q-.21.19-.09.4l-1.75 6.85q-.15.01-.28.1c-.33.22 0 .71.34.54h.02l.14.05q.2.09.41.05c.31-.05.45-.33.54-.6Z" class="cls-17"/><path d="m115.6 69.96-.4 1.39c-.02.07.02.18.06.23q.08.1.21.13t.23-.06a.4.4 0 0 0 .13-.21l.4-1.39c.02-.07-.02-.18-.06-.23a.4.4 0 0 0-.21-.13q-.13-.02-.23.06a.4.4 0 0 0-.13.21" class="cls-7"/><path d="M170.49 104.93q1.12-4.23 2.18-8.47c.51-2.66 2.3-6.29-.33-8.47l-.08.08a1 1 0 0 0-.28-.18l.36.1c-2.66-1.51-5.7-2.12-8.58-3.08l-8.69-2.62-17.4-5.18-8.71-2.54c-2.79-.87-7.14-2.37-8.24 1.4-3.43 11.37-11.39 39.78-14.7 51.54a765 765 0 0 0-6.76 25.38c-1.47 6.7-3.09 8.29 4.89 10.44 13.59 3.83 28.01 7.59 41.52 11.69l1.09.33c2.73 1.06 3.88-.95 4.56-3.09 6.89-21.64 13.41-45.36 19.16-67.32Z" class="cls-9"/><path d="M113.29 84.62q1.2-3.73 2.24-7.52l.58-2.2c.04-.17-.11-.34-.27-.36q-.13-.02-.22.05-.66-.25-1.34-.46c-.45-.13-.79.13-.97.53q-.27.68-.5 1.38l-.49 1.43a67 67 0 0 0-1.62 5.75c-.05.23-.09.47.06.68.13.18.35.26.56.33q.7.23 1.4.41.05.09.15.15c.15.06.37 0 .42-.16Z" class="cls-17"/><path d="m118.65 71.91.45-1.69.05.01c.17.05.34-.11.36-.27.03-.19-.1-.32-.27-.36l-2.99-.91c-.17-.05-.34.11-.36.27v.06l-.32 1.1-.18.63-.08.27-.04.13v.04-.03l-.01.04-.02.07q-.02.13.05.21l.01.02a.3.3 0 0 0 .12.1l.07.02h.01l2.97.86c.17.05.34-.11.36-.27q.01-.22-.19-.31Zm-26 89.4.57-1.97q.15-.02.23-.16c.06-.15 0-.37-.16-.42l-2.65-.83a.3.3 0 0 0-.23-.16c-.19-.03-.31.1-.36.26l-.02.08-.73 2.52q-.03.16.1.28.08.1.22.15l2.84.82c.17.05.34-.11.36-.27q.01-.21-.17-.3" style="fill:#f1a5af"/><path d="M153.34 178.87c1.2-3.91 2.47-7.79 3.67-11.7a1083 1083 0 0 0 6.74-23.03q3.24-11.55 6.39-23.13 3.24-11.9 6.56-23.77l.85-3.02.01-.09q.56-1.81 1.07-3.64l.6-2.1c.26-.9.56-1.79.77-2.71.41-1.8.23-3.65-.71-5.27-.86-1.48-2.52-2.39-4.08-2.95-.97-.35-1.96-.63-2.94-.93l-3.4-1.06-6.56-2.02a1192 1192 0 0 0-26.07-7.62l-8.31-2.4a12 12 0 0 0-3.15-.52c-.68 0-1.4.08-2.02.38a5.4 5.4 0 0 0-1.97 1.83c-.99 1.43-1.44 3.06-1.91 4.71v.02l-.64 2.24-2.32 8.06-1.8 6.26-.07.13-4.22 14.73-4.26 14.92q-2.15 7.53-4.37 15.04l-4.35 14.67q-2.24 7.51-4.43 15.04l-.11.39v.01q-.2.63-.37 1.27l-.08.28v.02l-.06.2c-.3.99-.54 2-.62 3.03a6 6 0 0 0 .67 3.48 5.4 5.4 0 0 0 2.64 2.22c.63.25 1.29.42 1.94.61l1.28.39 2.87.86 6.42 1.92q2.66.78 5.33 1.53l10.6 3.04c3.75 1.07 7.5 2.13 11.29 3.08l.81.2c1.86.48 3.74.89 5.59 1.37 2.4.61 4.94 1.7 7.46 1.22a5 5 0 0 0 3.39-2.33c.93-1.47 1.37-3.21 1.87-4.86m-3.37 5.65c-2.22 1.86-5.35.75-7.8.07-2.44-.68-4.92-1.22-7.37-1.84l-1.35-.36a.2.2 0 0 0-.16 0q-4.44-1.15-8.84-2.41c-3.6-1.02-7.18-2.08-10.78-3.09l-4.23-1.19-.82-.24-.08-.02c-.04-.01-.01 0 0 0h-.02l-.23-.07-.5-.15-6.16-1.84-3.65-1.09a.3.3 0 0 0-.17-.1l-1.09-.29-.13-.05-.09-.02-1.29-.39a5 5 0 0 1-2.6-1.81 4.8 4.8 0 0 1-.8-3.13c.05-.95.24-1.96.5-2.84l.41-1.4q2.1-7.26 4.27-14.52l4.36-14.68q2.2-7.41 4.33-14.84l4.27-14.97 2.82-9.84.05-.11 2.49-8.66 2.24-7.79 1.33-4.64v-.01l.63-2.21v-.02l.34-1.17.22-.73q.35-1.09.93-2.07a6 6 0 0 1 1.77-1.97 3.6 3.6 0 0 1 1.85-.46c1.04-.03 2.09.19 3.09.48l4.64 1.34 1.93.58 1.99.55 1.37.4h.08a1083 1083 0 0 1 22.4 6.54q6.52 1.98 13.03 4.01c1.63.51 3.31 1 4.63 2.14a5.8 5.8 0 0 1 1.77 4.84c-.08.85-.32 1.67-.56 2.49l-.72 2.49q-.56 1.99-1.15 3.97l-.45 1.46a.3.3 0 0 0-.01.16q-3.17 11.31-6.27 22.64-3.1 11.37-6.26 22.73-3.17 11.4-6.57 22.73a903 903 0 0 1-3.55 11.52l-1.76 5.57c-.48 1.51-1.03 3.27-2.3 4.32Z" class="cls-8"/><path d="m104.75 113.21-3.48 12.31c-.11.4.53.5.65.1l3.48-12.31c.11-.4-.53-.5-.65-.1" class="cls-9"/><path d="m105.26 113.1-.9-2.43c-.06-.16-.26-.26-.42-.19s-.25.25-.19.42l.9 2.43c.06.16.26.26.42.19s.25-.25.19-.42m-3.97 12.16-2.09 2 .58.17v-.55c0-.18-.2-.31-.36-.29-.19.02-.29.18-.29.36v.55c0 .13.12.24.23.28q.2.06.34-.1l2.09-2c.13-.12.08-.36-.04-.46-.15-.12-.33-.08-.46.04" class="cls-9"/><path d="M148.78 76.31c1.8.8 3.05-2 1.25-2.8-1.81-.8-3.05 2-1.25 2.8" class="cls-18"/><path d="m170.98 103.33.24-.92q.97-3.74 1.9-7.49c.43-2.36 2.08-5.54-.59-7.57l-.07.07-.29-.17.36.1c-2.68-1.43-5.71-2.06-8.6-3.02l-8.69-2.61-17.4-5.17-8.71-2.54c-2.79-.86-7.15-2.34-8.12.99-.94 3.11-2.27 7.67-3.73 12.78L171 103.31Z" class="cls-9"/><path d="M172.15 99.84c.09-.35.13-1.14.86-4 .52-2.69 2.32-6.36-.31-8.56l-.08.09-.28-.19.36.1c-2.67-1.52-5.71-2.12-8.61-3.09l-8.71-2.63-17.44-5.2-8.74-2.55c-2.8-.87-7.16-2.38-8.27 1.44-1.08 3.56-.97 3.16-2.64 9.02zm-70.92 44.4c-.87 3.28-1.39 5.44-2.19 8.74-1.49 6.77-3.13 8.39 4.93 10.55 13.73 3.86 28.29 7.67 41.93 11.81l1.1.33c2.76 1.08 3.92-.96 4.61-3.12 1.43-4.49 2.17-8.05 3.56-12.69z" class="cls-5"/><path d="M160.31 101.09c.9.1 3.78 1 4.57 1.44 1.97 1.09 2.73 3.32 2.27 5.46-.16.77-.87 3.37-1.27 3.9-.76.98-2.61.22-2.39-1.12.26-1.61 1.93-4.28.4-5.6-.86-.74-3.07-.95-4.2-1.42-1.48-.61-.9-2.83.63-2.66Z" class="cls-18"/><path d="M160.31 101.09c3.54.68 7.49 1.7 7.36 6.12a15 15 0 0 1-1.14 4.69c-.07.18-.26.44-.44.59-1.22 1.04-3.28-.03-3.16-1.6.22-1.53 1-2.57 1.2-3.99.31-2.33-2.64-2.25-4.26-3.01-1.61-.42-1.23-3.02.46-2.81Zm0 0c-1.64-.17-2.01 2.32-.41 2.65 3.54.76 6.06.81 4.61 5.35-.19.65-.43 1.36-.47 1.85-.08.55.84 1.04 1.3.68 3-6.1 1.83-9.21-5.03-10.53" class="cls-9"/><path d="M108.65 131.94c.71.08 1.34.58 1.31 1.34-.05 1.68-2.04 4.29-.46 5.77.78.72 3.09 1.01 4.18 1.43 1.62.63.97 2.95-.69 2.66-1.21-.21-4.06-1.08-5.01-1.8-2.71-2.04-1.81-5.52-.78-8.25.24-.63.71-1.23 1.46-1.15Z" class="cls-18"/><path d="M108.65 131.94c3.46.69-1.25 5.28 1.12 6.95 1.62 1.1 5.49.24 5.39 3.11-.38 2.31-2.59 1.78-4.14 1.23-1.35-.48-2.79-.91-3.81-2.02-1.58-1.64-1.4-4.18-.75-6.13.47-1.11.63-3.19 2.19-3.14m0 0c-1.57-.02-1.65 2.06-2.03 3.19-.42 1.93-.4 4.16 1.16 5.51.97.83 2.35 1.13 3.57 1.51.94.17 2.4 1.01 2.7-.28.05-.43-.15-.8-.72-.99-1.29-.51-2.73-.66-3.92-1.54-2.57-2.06 2.82-6.59-.76-7.4" class="cls-9"/><path d="M144.64 151.94c-.56-1.01.36-2.29 1.58-2.05 1.4.27 3.64 1.51 4.93.78s1.43-3.33 1.94-4.63c.61-1.55 2.87-.85 2.58.92-.16.99-.82 3.11-1.26 4.01a4.8 4.8 0 0 1-4.21 2.71c-1.08 0-3.86-.76-4.9-1.19a1.6 1.6 0 0 1-.67-.55Z" class="cls-18"/><path d="M144.64 151.94a1.4 1.4 0 0 1 .46-1.84c.59-.46 1.37-.24 2.01-.05 1.19.29 2.7.96 3.83.39 1.74-1.29.63-4.42 2.54-5.63 1.43-.75 3.08.69 2.77 2.16-.53 2.4-1.29 5.2-3.68 6.36-1.99 1.07-4.17.16-6.14-.44-.63-.24-1.39-.36-1.78-.96Zm0 0c.41.59 1.17.69 1.8.92 1.89.5 4.09 1.16 5.84-.03 1.77-1.06 2.15-3.2 2.64-5.06.11-.53.34-1.11.08-1.58-.18-.36-.7-.55-1.02-.38-.46.23-.55.89-.71 1.38-.46 1.33-.66 2.98-2.06 3.77-1.5.55-2.81-.32-4.15-.76-.62-.22-1.35-.5-1.94-.07-.58.37-.83 1.19-.48 1.8Z" class="cls-9"/><path d="M122.81 90.25c.81.14 3.5.87 4.14 1.23 1.22.7.54 2.69-.86 2.53-1.49-.17-3.71-1.58-5.09-.84-1.3.69-1.47 3.34-1.99 4.66-.62 1.56-2.91.85-2.57-.99.6-3.29 2.3-7.3 6.38-6.58Z" class="cls-18"/><path d="M122.81 90.25q2.03.4 3.99 1.06c.33.13.65.37.8.72.55 1.13-.6 2.54-1.81 2.22-1.77-.16-4.05-1.79-5.09.02-.92 1.6-.68 5.9-3.68 4.73-1.74-.92-.84-2.89-.37-4.27.88-2.59 3.18-5.16 6.15-4.49Zm0 0c-2.97-.64-5.04 2.05-5.59 4.67-.16.96-.92 2.65.23 3.18 1.3.36 1.18-1.39 1.51-2.3.3-1.04.6-2.33 1.64-3 1.78-1 3.78.56 5.3.89.59.21 1.17-.08 1.42-.66.26-.56.05-1.31-.58-1.57a22 22 0 0 0-3.92-1.21Z" class="cls-9"/><path d="M112 138.02a3140 3140 0 0 1 29.67 8.3c2.82.85 5.64 1.66 8.53 2.2l.11-.38c1.11-4.11 8.63-30.13 10.92-39.18l.37-1.48c-.62-.17-2-.68-2.55-.82-.51-.14-25.53-7.74-36.56-10.07a1814 1814 0 0 0-10.48 41.45Z" class="cls-4"/><path d="M124.33 177.25c0-.4-.25-.47-.61-.59l-.29-.1c-.9-.34-2.21-.73-2.68-.86h-.02c-.44-.13-1.58-.41-1.82-.39q-.23.03-.42.54c-.11.3-.14.63-.1.79.06.2 1.33.58 2.09.79l2.37.66c1.15.32 1.22.23 1.37-.23l-.07-.06.07.05q.12-.36.11-.62Z" style="fill:#c2dbdf"/><g id="WIckqk.tif"><path d="m194.12 189.42.01-.04m-40.02-65.31-1.28-.49a.7.7 0 0 1-.41-.87c.77-2.54.84-5.3-.05-7.82-1.34-3.78-4.65-6.36-8.48-7.31a.7.7 0 0 1-.54-.8l.24-1.35c.07-.4.46-.66.86-.57q2.5.61 4.71 1.94a13.9 13.9 0 0 1 6.65 12.43 17 17 0 0 1-.76 4.39.7.7 0 0 1-.93.44Zm-33.33-2.85a.7.7 0 0 1 .41.87c-1.1 3.6-.72 7.55 1.55 10.61 1.7 2.3 4.25 3.81 7 4.51.36.09.6.44.53.8l-.24 1.35a.7.7 0 0 1-.86.57 15.5 15.5 0 0 1-7.76-4.47 14 14 0 0 1-3.11-5.68c-.76-2.83-.58-5.82.28-8.61a.7.7 0 0 1 .93-.44z" class="cls-9"/><path d="m147.89 121.66-1.32-.5a.7.7 0 0 1-.44-.8 5.4 5.4 0 0 0-.28-3.55 5.2 5.2 0 0 0-3.2-2.63.7.7 0 0 1-.46-.78l.25-1.38a.7.7 0 0 1 .87-.56 8.2 8.2 0 0 1 4.37 3.01 8 8 0 0 1 1.13 6.74.7.7 0 0 1-.93.46Zm-20.48 3.06c-.19.92-.13 2.01.19 2.89a5 5 0 0 0 3.36 3.01c.33.11.52.46.46.8l-.36 2.07-.07.02a6 6 0 0 1-.94-.24 7.7 7.7 0 0 1-5.53-7.29q0-1.21.3-2.39c.1-.39.54-.6.92-.45l1.89.72m9.64 14.67 11.26 3.12a1.32 1.32 0 0 1-.61 2.56l-11.36-3.16c-1.49-.62-.88-2.77.71-2.53Z" class="cls-9"/></g><path d="m137.52 139.24-.04.31.27-.25.52.15-.67.56.03.74-.56-.16.01-.32-.33.23-.49-.14.72-.58-.01-.69zm1.45.4-.05.31.27-.24.52.14-.67.56.03.74-.56-.16.01-.31-.33.22-.49-.13.72-.58-.01-.7zm1.48.42-.05.3.27-.24.52.14-.67.56.03.74-.56-.16.01-.31-.33.22-.49-.13.72-.58-.01-.7zm1.44.4-.04.3.26-.24.52.14-.67.56.03.74-.55-.15v-.32l-.32.22-.5-.13.72-.58v-.7zm1.93.53-.05.31.27-.25.52.15-.67.56.03.74-.56-.16.01-.32-.33.22-.49-.13.72-.58-.01-.69zm1.44.4-.05.31.27-.24.52.14-.67.56.03.74-.56-.16.01-.31-.33.22-.49-.13.72-.58-.01-.7zm1.44.41-.04.3.26-.24.52.14-.66.56.02.74-.55-.16.01-.31-.33.22-.5-.13.72-.58v-.7zm1.45.4-.05.3.27-.24.52.14-.67.56.03.74-.56-.15.01-.32-.33.22-.49-.13.72-.58-.01-.7z" class="cls-4"/><path d="M142.64 123.58c-.01-.11-.26-1.21-.89-2.67s-.02-.08-.02-.11c.24-1.28.29-2.15.29-2.15a.4.4 0 0 0-.22-.35s-.96-.4-.96-.4h-.03a.2.2 0 0 0-.27.15l-.1.35h-.02q-.67-1.06-1.59-2.08a1 1 0 0 0-.45-.29 1 1 0 0 0-.53.01 17 17 0 0 0-7 4.26s-.06.08-.07.14c-.04.16.03.32.16.4l.94.47q.19.12.17.36c-.04.18-.94 4.13-.99 5.21q.01.26.26.35l1.69.44.04.01q.1.02.14-.08l.45-2.04a.2.2 0 0 0-.05-.2 1.1 1.1 0 0 1-.28-1.01c.33-1.38.74-2.97 1.16-4.19a.2.2 0 0 1 .25-.13.2.2 0 0 1 .15.25v.02c-.28.81-.55 1.79-.8 2.75-.03.13.04.26.18.3s.26-.04.3-.18c.25-.97.53-1.95.81-2.77a.2.2 0 0 1 .25-.13.2.2 0 0 1 .15.25v.02a38 38 0 0 0-.8 2.74.25.25 0 0 0 .48.13c.25-.97.53-1.94.81-2.75a.2.2 0 0 1 .25-.13.2.2 0 0 1 .15.25v.02a45 45 0 0 0-1.13 4.06v.04c-.1.37-.37.64-.71.75a.2.2 0 0 0-.13.13s-.08.2-.27 1.22l-.15.9q0 .09.08.12l.09.03.59.16h.04l.04.02.74.21.56.16q.09.01.13-.06c.46-1.16.68-1.82.68-1.82q.02-.1-.07-.14l-.66-.28q-.15-.08-.15-.22l.02-.11c1.38-3.89 3.06-4.87 3.06-4.87l.08-.04a.2.2 0 0 1 .13 0q.14.04.16.19v.1a47 47 0 0 1-1.41 5.03c-.45 1.39-.83 2.47-.83 2.47q-.01.08.06.1l1.12.34q.26.06.4-.16c.52-.95 1.79-4.8 1.85-4.97a.4.4 0 0 1 .33-.22l1.04.08q.26-.01.35-.26.02-.07 0-.15Z" class="cls-9"/><path d="M130.51 158.69a838 838 0 0 0-10.17-3.03l-.11-.03c-3.02-.87-10.88-3.06-12.45-3.31-.95-.15-1.75.21-2.13.96-.35.69-.24 1.52.28 2.04.62.62 9.46 3.24 14.66 4.75l5.41 1.56c1.33-1.09 3.05-2.02 4.51-2.95Z" class="cls-18"/><path d="M111.77 153.29c-.97 1.01-2.1 1.87-3.15 2.79l-.27.24c1.17.4 2.64.87 4.24 1.37a93 93 0 0 1 4.48-2.95c-1.69-.47-3.62-1-5.31-1.45Zm10.04 2.82-.09-.03a51 51 0 0 0-4.79 2.93c1.73.52 3.45 1.02 4.91 1.44l.61-.52a72 72 0 0 1 3.41-2.63l-4.06-1.19Z" class="cls-13"/><path d="M135.18 160.12q-1.9 1.49-3.76 3.08l4.31 1.25c.97-1.07 1.96-2.12 2.89-3.24zm10.59 4.2c-.27-.56-.84-.97-1.67-1.33q-1.67 1.41-3.3 2.89c4.25 1.13 4.57.87 4.93 0l-.53-.24.54.23q.36-.86.03-1.55" class="cls-18"/><path d="M129.47 158.37c-1.02 1.17-2.7 2.07-3.76 3.17l5.71 1.65q1.87-1.58 3.76-3.08l-5.71-1.75Zm11.6 3.59-2.04-.63-.41-.13c-.93 1.12-1.92 2.17-2.89 3.24l1.23.36q2.3.67 3.85 1.08a126 126 0 0 1 3.3-2.89c-.79-.35-1.81-.65-3.03-1.02Z" class="cls-13"/><g id="Outline"><path d="M134.97 143V22.91h-.1l.04 120.09z" style="fill:none"/><path d="M90.37 53.54a5.1 5.1 0 0 0-5.48-5.07l-49.67 3.51a7.67 7.67 0 0 0-7.14 7.58 3258 3258 0 0 0-.02 57.67 5.45 5.45 0 0 0 5.85 5.39 4293 4293 0 0 1 42.96-3.03c2.44-.12 5.07-.3 7.61-.42a6.7 6.7 0 0 0 6.4-6.74z" style="fill:#3b3a39"/><path d="M96.12 47.41a5.1 5.1 0 0 0-5.48-5.07l-49.67 3.51a7.67 7.67 0 0 0-7.14 7.58 3258 3258 0 0 0-.02 57.67 5.45 5.45 0 0 0 5.85 5.39 4293 4293 0 0 1 42.96-3.03c2.44-.12 5.07-.3 7.61-.42a6.7 6.7 0 0 0 6.4-6.74z" style="fill:#ff8000"/><path d="m92.26 71.39-2.12-.06c-.58-.02-.99-.51-.98-1.12.09-4.35-.98-8.63-3.34-12.01-3.54-5.05-9.51-7.19-15.57-6.59a1 1 0 0 1-1.12-.94l-.18-2.17c-.05-.64.42-1.25 1.04-1.32 2.62-.26 5.23-.15 7.75.43 7.51 1.72 13.14 7.51 15 15.4q.81 3.5.72 7.18a1.2 1.2 0 0 1-1.2 1.19ZM41.05 85.27c.58.02.99.52.96 1.14-.27 6.27 1.85 12.32 6.51 15.93 3.5 2.71 7.99 3.69 12.47 3.26.59-.06 1.08.36 1.13.99l.18 2.3c.05.68-.44 1.33-1.07 1.39-4.8.49-9.62-.34-13.64-2.79a20 20 0 0 1-6.98-7.32c-2.25-4.06-3.14-8.9-2.91-13.77.03-.67.61-1.22 1.24-1.2l2.13.06Z" class="cls-9"/><path d="m81.97 71.05-2.17-.06a1 1 0 0 1-.98-1 8.5 8.5 0 0 0-1.88-5.33 7.3 7.3 0 0 0-5.84-2.3c-.53.02-.95-.41-1-.96l-.19-2.25c-.06-.66.44-1.3 1.07-1.33 2.81-.13 5.5.54 7.72 2.25 2.93 2.26 4.39 5.86 4.47 9.77a1.2 1.2 0 0 1-1.2 1.22ZM60.16 94.43c.55-.02.97.44 1.02 1.02l.29 3.48q-.03.06-.1.07c-.24.1-1.22.13-1.53.14a11 11 0 0 1-11.29-8.45 15 15 0 0 1-.48-3.92c0-.68.59-1.24 1.22-1.23l3.12.07c.1.06.02 1.24.03 1.48.07 1.55.6 3.23 1.44 4.44 1.45 2.1 3.81 2.97 6.29 2.9Zm12.81 9.03 18.39-1.34c2.64.03 2.74 3.87.17 4.44l-18.59 1.35c-2.52-.16-2.49-3.94.04-4.44Z" class="cls-9"/><path d="m73.65 104.46.06.52.3-.54.85-.06-.78 1.27.35 1.16-.91.07-.12-.51-.41.53-.8.07.85-1.33-.3-1.11zm2.36-.17.06.52.3-.54.85-.06-.78 1.27.35 1.16-.91.07-.12-.52-.41.54-.8.07.85-1.33-.3-1.11zm2.42-.17.06.51.3-.54.85-.06-.78 1.27.35 1.17-.91.06-.12-.51-.4.54-.81.07.85-1.34-.3-1.11zm2.36-.17.06.51.3-.54.84-.06-.77 1.27.35 1.16-.91.07-.12-.51-.4.54-.81.07.85-1.34-.3-1.11zm3.14-.23.06.52.3-.55.85-.06-.78 1.28.36 1.16-.91.06-.12-.51-.41.54-.8.07.85-1.34-.31-1.1zm2.36-.17.06.51.3-.54.85-.06-.78 1.28.36 1.16-.91.06-.12-.51-.41.54-.8.07.84-1.34-.3-1.1zm2.35-.17.07.51.3-.54.84-.06-.77 1.27.36 1.17-.91.06-.12-.51-.41.54-.8.07.84-1.34-.3-1.1zm2.36-.17.06.51.3-.54.85-.06-.77 1.27.36 1.16-.91.07-.12-.51-.41.54-.8.07.84-1.34-.3-1.11z" class="cls-4"/><path d="M74.91 76.91c-.06-.16-.89-1.73-2.42-3.66s-.07-.1-.07-.17c-.17-2.11-.45-3.49-.45-3.49a.5.5 0 0 0-.47-.42s-1.6-.09-1.6-.09h-.04c-.19.01-.34.18-.34.38v.59l-.02.02h-.01a20 20 0 0 0-3.22-2.34q-.35-.22-.79-.2a1.4 1.4 0 0 0-.79.31 31 31 0 0 0-8.81 10.44q-.04.12-.06.25c0 .27.17.49.41.54l1.6.21c.21.05.37.23.39.47 0 .3.24 6.99.6 8.71a.5.5 0 0 0 .53.4h.01l2.72-.25h.07c.1 0 .18-.1.18-.2-.03-.59-.1-1.93-.15-3.34v-.12a.3.3 0 0 0-.16-.28c-.48-.27-.8-.79-.83-1.42-.06-2.35-.07-5.06.07-7.18.01-.18.15-.33.32-.34s.32.12.32.31v.03a65 65 0 0 0-.1 4.74c0 .22.17.39.38.37s.38-.22.38-.44c-.01-1.66.01-3.34.11-4.76.01-.18.15-.33.32-.34s.32.12.32.31v.03a71 71 0 0 0-.1 4.71c0 .22.17.39.38.37a.44.44 0 0 0 .38-.44c-.01-1.65 0-3.32.1-4.74.01-.18.15-.33.32-.34s.32.12.32.31v.03a84 84 0 0 0-.06 6.96v.07c0 .63-.31 1.21-.76 1.57a.4.4 0 0 0-.14.28s-.04.36.09 2.06l.13 1.49q.02.14.17.15l.15-.01.96-.07h.12l1.2-.08.91-.06q.15-.02.17-.17c.23-2.07.28-3.23.28-3.23q-.01-.16-.17-.19l-1.1-.08a.34.34 0 0 1-.31-.27c-.02-.08-.01-.18-.01-.18.5-6.85 2.63-9.29 2.63-9.29l.1-.1a.3.3 0 0 1 .2-.08q.22 0 .31.2l.03.16c.17 2.12.06 5.77-.07 8.62a217 217 0 0 1-.24 4.35q.01.13.13.13l1.83-.09h.01a.6.6 0 0 0 .54-.48c.39-1.77.73-8.51.74-8.81a.6.6 0 0 1 .4-.52l1.6-.44a.6.6 0 0 0 .42-.59l-.05-.24Z" class="cls-9"/><path d="m142.34 51.8-.93-6.49q-.58-4-1.21-7.99c-.48-2.99-.93-5.6-1.38-7.97l-.38-1.97-.05-.29c-.1-.52-.2-1.05-.42-1.56a2.6 2.6 0 0 0-1.48-1.52c-.79-.29-1.54-.08-2.25.12a7 7 0 0 0-3.23 1.74 5 5 0 0 0-1.13 3.64c.08 1.27.5 2.48.91 3.6l6.47 17.41a64 64 0 0 0 1.1 3.38l.26.7.05.13c.12.35.29.82.78 1.06q.37.17.75.17c.57 0 1.11-.26 1.49-.61q.72-.66.79-1.79h.02v-.3c0-.5-.08-.98-.16-1.45Zm32.86-21.6c.53-.94 1.09-1.91 1.32-2.99q.24-1.11-.07-1.99a3.5 3.5 0 0 0-1.65-1.86c-3.22-1.82-5.88-1.62-7.14.53-.31.52-.53 1.09-.75 1.64l-1.12 2.7-1.82 4.4-.22.55-3.3 8.16q-1.74 4.37-3.43 8.75l-2.79 7.32a9 9 0 0 0-.35 1.24l-.03.18q-.02.32.03.62.09.44.4.83.3.37.69.55a1.7 1.7 0 0 0 1.04.36q.21 0 .41-.04.32-.08.6-.23.25-.13.48-.36.4-.42.67-.87 1.26-2.04 2.5-4.09a581 581 0 0 0 4.55-7.63s.33-.56.33-.56a582 582 0 0 0 9.27-16.51zm20.88 24.32-.1-.22a36 36 0 0 0-.98-1.96l-.16-.31c-.3-.57-.61-1.17-1.07-1.65-.63-.68-1.53-.91-2.53-.66a12 12 0 0 0-3.67 1.81c-.92.63-1.8 1.32-2.66 1.98l-15.16 11.68-.33.24q-.66.42-1.28.93-.45.39-.7.85-.31.58-.23 1.18c.13.95.91 1.6 1.96 1.63h.07c.66 0 1.27-.25 1.81-.47l.23-.09 1.6-.65.43-.17a275 275 0 0 0 19.92-9.11l.42-.21q.76-.38 1.51-.78c1.22-.65 1.48-1.52 1.48-2.13 0-.7-.3-1.32-.56-1.88Z" style="fill:#b2c8ca"/><path d="M127.24 175.75c-.02.3.03.6.11.74" style="fill:#5b3b5b"/><path d="m174.53 31.41.28-.51.39-.7c.53-.94 1.09-1.91 1.32-2.99q.24-1.11-.07-1.99a3.5 3.5 0 0 0-1.65-1.86c-3.22-1.82-5.88-1.62-7.14.53l-.23.45a42 42 0 0 1 7.1 7.06Zm21.55 23.11-.1-.22a36 36 0 0 0-.98-1.96l-.16-.31c-.3-.57-.61-1.17-1.07-1.65-.63-.68-1.53-.91-2.53-.66a12 12 0 0 0-3.67 1.81c-.92.63-1.8 1.32-2.66 1.98l-1.16.89a166 166 0 0 1 1.44 9.02 318 318 0 0 0 8.03-3.91l.42-.21q.76-.38 1.51-.78c1.22-.65 1.48-1.52 1.48-2.13 0-.7-.3-1.32-.56-1.88Z" style="fill:#bfd8dc"/></g></g></svg>