<svg xmlns="http://www.w3.org/2000/svg" width="200" height="200" viewBox="0 0 200 200"><defs><style>.cls-5{fill:#fff}.cls-6{fill:#f75e23}.cls-9{fill:#eed7d3}.cls-10{fill:#5b3d5b}.cls-11{fill:#fcb9c4}</style></defs><path id="BG_Strong_Light" d="M144.87 173.57c10.62-1.7 16.8-4.83 20.87-9.59 3.36-3.93 5.43-9 5.72-10.05 1.18-4.21 1.14-8.76 2.65-12.88 2.82-7.64 12.35-9.85 17.32-15.83 5.65-6.81 5.27-15.86 3-23.93-2.59-9.19-6.58-18.39-10.87-26.9-4.13-8.19-9.36-16.03-16.22-22.19-6.2-5.57-13.68-10-21.91-11.67-8.43-1.71-16.98-.74-25.34.88-8.58 1.66-17.09 4.25-25.84 4.77-9.25.55-16.18-2.16-23.76-7.22-7.15-4.77-14.4-8.31-23.21-6.77-8.64 1.51-15.91 6.98-21.18 13.79-5.77 7.46-9.44 16.34-13.04 24.99-3.88 9.31-7.18 18.87-8.6 28.9-2.46 17.39 5.18 37.85 20.33 52.56 21.65 21.03 48.84 19.17 52.83 18.83 5.49.82 42.83 6.21 67.25 2.31" data-name="BG_Strong Light" style="fill:#edebe8"/><path id="BG_Strong_Dark" d="M144.87 173.57c10.62-1.7 16.8-4.83 20.87-9.59 3.36-3.93 5.43-9 5.72-10.05 1.18-4.21 1.14-8.76 2.65-12.88 2.82-7.64 12.35-9.85 17.32-15.83 5.65-6.81 5.27-15.86 3-23.93-2.59-9.19-6.58-18.39-10.87-26.9-4.13-8.19-9.36-16.03-16.22-22.19-6.2-5.57-13.68-10-21.91-11.67-8.43-1.71-16.98-.74-25.34.88-8.58 1.66-17.09 4.25-25.84 4.77-9.25.55-16.18-2.16-23.76-7.22-7.15-4.77-14.4-8.31-23.21-6.77-8.64 1.51-15.91 6.98-21.18 13.79-5.77 7.46-9.44 16.34-13.04 24.99-3.88 9.31-7.18 18.87-8.6 28.9-2.46 17.39 5.18 37.85 20.33 52.56 21.65 21.03 48.84 19.17 52.83 18.83 5.49.82 42.83 6.21 67.25 2.31" data-name="BG_Strong Dark" style="fill:#575655"/><g id="Illustrations"><g id="Outline"><path d="M97.46 84.63c.45-.19.88-.05 1.2.13.8-.1.57-.26.65.77.47 5.78 7.48 9.41 12.74 9.53 5.92.13 12.48-3.77 13.29-9.89.08-.58-.4-1 0-1.25a1.8 1.8 0 0 1 1.81-.59l1.14.26q1.33.3 2.51.99l6.97 4.01c5.64 3.27 11.3 7.55 14.87 12.48 1.73 2.39 2.92 6.11 3.87 7.59 1.41 2.2-5.49 1.12-6.95 3.28a198 198 0 0 1-9.29 12.64 2 2 0 0 1-.5.44l2.86 13.97c1.31 6.4-6.72 3.51-2.83 13.29 1.31 3.3 1.43 8.75.99 12.27-.27 2.14 4.97 2.21 2.81 2.78-2.49.67-5.21.88-7.75 1.28q-3.65.57-7.31 1.09c-9.64 1.33-19.6 2.45-29.33 1.49-4.61-.46-9.52-1.34-13.72-3.39-4.3-2.1 1.12-13.11 2.32-16.95 4.81-15.44-3.96-14.86-2.75-25.22q.03-.27.13-.5c-3.19-8.09-11.46-6.54-14.39-14.73-.28-.78 5.01-11.15 5.61-11.77 0 0 7.06-8.29 21.04-14Z" style="fill:#ff8100"/><path d="M51.08 70.85h-.03q.1.38.03 0M40.42 14.6c.15-.35.12-.31 0 0" class="cls-6"/><path d="M135.64 141.88c-1.86-10.66 2.19-9.71-1-20.04.25-.26 1.52.5 1.53.02.03-2.56 1.76-7.12 2.19-8.23-.17.42-3.75-.39-3.89-.76l3.42-11.85s3.76-10.69 3.85-11.7-9.14-4.3-9.14-4.3l-4.84 27.88-29.71-.91-5.39-26.14s-8.5 3.29-8.87 4.57 5.75 21.94 5.75 21.94l-3.37.37c.7 1.81 2.4 5.61 3.1 7.42.22.56 4.1 16.17 4.64 16.32-.76 6.17-4.86 10.27-8.66 16.49q.73-1.18 1.48-2.29c.26 4.29.43 9.54.44 15.23a260 260 0 0 1-.42 16.43 51 51 0 0 0 7.26 3.16c11.94 4.01 26.56 1.76 38.68-1.67 8.11-2.29 16.62-7.07 17.25-7.23-.99-19.46-13.96-32.9-14.28-34.71Zm-52.56 15.01c-2.37 4.83-4.29 10.97-4.66 19.7-.02.51 2.03 2.09 4.96 3.86a266 266 0 0 1-.4-14.53c-.01-3.17.03-6.21.1-9.02Z" class="cls-11"/><path d="M83.08 156.76v.12a47 47 0 0 1 2.17-3.94 52 52 0 0 0-2.17 3.81Z" class="cls-11"/><path d="M86.72 150.67q-.73 1.1-1.48 2.29a51 51 0 0 0-2.17 3.94c-.07 2.81-.11 5.85-.1 9.02.02 5.39.16 10.38.4 14.53a60 60 0 0 0 3.37 1.88c.28-4.49.44-10.19.42-16.43a275 275 0 0 0-.44-15.23" class="cls-11"/><path d="M97.27 141.76c-.21-14.51-.59-27.78-1.02-38.02L93.52 90.5c-.15 2.66-.28 5.95-.38 9.78-.23 8.95-.29 20.78-.15 33.96.39 1.29.69 2.14.81 2.17q-.22 1.72-.75 3.25l.03 2.16c.24 16.22.68 30.89 1.17 41.51l.11 2.25q1.36.43 2.77.76l.09-3.05c.28-10.64.3-25.32.06-41.54Zm12.72-29.48-1.75-.05c-.72 6.72-1.22 21.5-1.22 38.67 0 15.61.41 29.24 1.03 36.65q1.06 0 2.13-.04c.62-7.41 1.03-21.03 1.03-36.61 0-17.12-.5-31.87-1.22-38.61Zm10.75.33-.7-.02c-.99 3.23-1.75 20.03-1.75 40.28 0 14.03.36 26.41.92 33.77q1.2-.18 2.39-.4c.54-7.4.89-19.58.89-33.37 0-20.2-.75-36.97-1.74-40.26Zm14.91 29.85a2 2 0 0 1-.31-.66c-1.86-10.66 2.19-9.71-1-20.04.18-.19.9.16 1.28.18q-.05-4.5-.12-8.61c-.69-.18-1.27-.39-1.33-.54l1.22-4.24c-.28-11.78-.76-20.29-1.34-22.95l-.71-.27c-1.01 3.85-1.81 25.13-1.86 50.8.01 14.19.03 27.07.91 36.44.4 4.51.96 8.15 1.5 10.71l1.66-.56c-.06-2.56-.18-6.05-.21-10.3-.1-7.84.21-18.29.3-29.96Zm9.66 29.77c0-6.15-.26-11.67-.67-15.55a65 65 0 0 0-2.2-4.2c-.77 3.12-1.32 10.78-1.32 19.76 0 2.99.06 5.83.17 8.41 1.42-.62 2.75-1.23 3.91-1.78q.1-3.14.11-6.63Z" style="fill:#ffa2af"/><path d="m137.59 181.87-8.32-25.58" style="fill:#ef859e"/><path d="M137.59 181.87c.2-.06-.48-2.77-1.79-7.34-.66-2.28-1.48-5.04-2.43-8.16l-1.52-4.95-1.91-6.08-17.13.1-16.59.24-3.61 11.15a527 527 0 0 0-2.57 8.29c-1.4 4.64-2.12 7.4-1.92 7.46.2.07 1.29-2.56 3-7.1.85-2.27 1.86-5.02 2.98-8.15l3.47-9.81 7.04-.02 8.23-.07 8.51-.11 7.26-.13 3.29 9.64c1.07 3.08 2.02 5.79 2.83 8.02 1.62 4.47 2.67 7.05 2.86 6.99Z" class="cls-5"/><path d="m147.08 77.57-.02-.1a2.3 2.3 0 0 0-1.06-1.53c-.66-.38-1.32.61-.66.99.3.17.5.47.57.8q.01.35-.04.7l-.09.2c-.42.73-1.44.53-2.03.16-.9-.56-1.28-1.55-1.55-2.52-.3-1.08-.51-2.2-1.08-3.18a4 4 0 0 0-1.61-1.63 13 13 0 0 0 2.52-3.83 14 14 0 0 0 1.31-5.56 10.6 10.6 0 0 0-1.1-4.65 16 16 0 0 0-2.88-4.31c-.95-1.01-2.19-2.03-3.6-2.29a16.9 16.9 0 0 0-3.12-14.32c-3.4-4.36-8.89-6.41-14.33-5.89a16.4 16.4 0 0 0-7.68 2.79 15.7 15.7 0 0 0-13.9 1.91q-1.16.81-2.16 1.82a21.5 21.5 0 0 0-5.4 8.45 11.2 11.2 0 0 0 .02 6.94 9.2 9.2 0 0 0-3.81 5.18c-.77 2.49-.63 5.13-.12 7.66q.4 1.93.98 3.82a.6.6 0 0 0-.24.32c-.56 1.81-1.2 3.94-3.05 4.83-.72.35-1.6.43-2.29-.02-.62-.4-1.08-1.15-.85-1.9.23-.73-.9-1.11-1.12-.38a3 3 0 0 0-.1 1.03q-.1.16-.06.4c.34 1.73 1.55 3.14 2.93 4.2q.26.37.74.53a7.8 7.8 0 0 0 6.06 1.15 10.1 10.1 0 0 0 13 .8c.05-.04.22-.14.22-.16l.41-.09 2.12-.46 14.54-3.16 1.44-.31a9 9 0 0 0 3.24 4.28q.42.53.94.98a6.3 6.3 0 0 0 6.74.77 6.5 6.5 0 0 0 2.38-1.85c1.2 2.09 3.13 3.93 5.54 4.37a7.1 7.1 0 0 0 7.04-2.98 7 7 0 0 0 1.21-2.95q.12-.52.03-1.03Zm-24.13-25.59-1.63.57q-.18 0-.35.03.96-.24 1.98-.6M87.08 67.59v.28l-.16-.57zm-5.83 8.34-.19-.19.25.04zm30.8.55-7.31 1.59-2.15.44q.73-.55 1.42-1.12.4-.34.53-.72a10 10 0 0 0 4.01-7.66 11.7 11.7 0 0 0-1.65-6.21v-.31q1.22.15 2.46.24c2.1.13 4.21.09 6.32-.03 1.73-.1 3.5-.16 5.25-.3.13 1.55.56 3.04 1.24 4.37a8 8 0 0 0-2.54 8.07l-7.58 1.65Z" class="cls-6"/><path d="m99.31 85.02 2.43-.66.46-6.65s-4.27-6.23-4.83-10.39c-.76-5.65-4.89 3.61-4.89-8.83 0-2.37 2.68-2.78 3.84-2.58 1.24.22 1.26-5.95 2.73-8.55 1.46-2.59 11.28-7.07 18.54-5.81 7.26 1.25 8.25 5.53 9.56 7.74 1.31 2.22 2.03 3.94 2.1 4.47.07.54.25 2.76.25 2.76s1.46-.94 2.03-.59 1.37 2.32 1.39 2.9-.28 3.19-.44 4.03-.24 1.35-.8 1.86-1.79.98-2.39.52c0 0-1.04 2.83-1.32 3.68-.28.84-1.29 3.49-1.82 4.44-.52.95-2.11 3.31-2.28 3.53s-.69.82-.69.82l-.14 4.72s3.44.88 3.8.96l-1.52-.37s.45 3.44-.28 4.82c-.9 1.71-1.82 4.61-3.67 5.2s-5.11 2-6.68 2.15-5.87-.55-7.18-.82-4-2.73-5.79-3.85-2.43-5.5-2.43-5.5Z" class="cls-9"/><path d="M96.28 55.96c-.89-.83-2.08-1.11-3.02-.18-.85.84-1.05 2.09-1.22 3.22-.32 2.15-.51 5.13 1.47 6.6.49.37 1.08.49 1.68.42s1.02-.35 1.42-.76c.5-.52-.29-1.32-.8-.8-.31.32-.55.46-1 .45-.5-.01-.86-.34-1.13-.74-.61-.92-.75-2.05-.73-3.13s.16-2.26.47-3.31c.13-.46.35-.96.74-1.26.46-.36.95-.05 1.31.29.53.5 1.33-.3.8-.8Zm33.78.57c-.23-4.55-1.34-9.19-4.01-12.96a16.3 16.3 0 0 0-9.51-6.47 12.6 12.6 0 0 0-6.43.2c-.69.21-.4 1.3.3 1.09 3.52-1.09 7.3-.24 10.36 1.69 3.4 2.14 5.69 5.54 6.92 9.32.75 2.3 1.12 4.7 1.24 7.12.04.72 1.16.73 1.13 0Zm-7.98 23.1c4.08-3.7 6.35-8.93 7.36-14.26.13-.71-.95-1.01-1.09-.3-.98 5.16-3.12 10.18-7.07 13.76-.54.49.26 1.28.8.8" class="cls-10"/><path d="M114.37 36.78c-4.94-.54-9.78 2.02-12.9 5.75-3.24 3.88-5.07 8.99-5.72 13.96a29.4 29.4 0 0 0 1.75 14.4 24 24 0 0 0 6.26 9.15 14 14 0 0 0 4.82 2.91 9.8 9.8 0 0 0 7.71-.59c.65-.32.08-1.29-.57-.97a9 9 0 0 1-5.79.77 12 12 0 0 1-4.7-2.34 22 22 0 0 1-6.09-7.92 28.2 28.2 0 0 1-1.11-20.4 25 25 0 0 1 3.09-6.62c2.58-3.84 6.8-6.87 11.55-7.02q.85-.03 1.7.07c.31.03.56-.28.56-.56 0-.33-.26-.53-.56-.56Z" class="cls-10"/><path d="M101.63 77.71c.18 2.8-.44 5.58-.27 8.38.05.72 1.17.73 1.13 0-.18-2.8.44-5.58.27-8.38-.05-.72-1.17-.73-1.13 0m21 .01c-.12 1.32-.22 2.65-.21 3.98s.13 2.66.27 3.98c.03.31.24.56.56.56.28 0 .6-.26.56-.56-.14-1.32-.26-2.65-.27-3.98s.09-2.66.21-3.98c.06-.72-1.06-.72-1.13 0Z" class="cls-10"/><path d="M123.11 83.2c.6.12 1.22.26 1.83.32h.09c.13 0-.04 0-.06-.01l.39.09 1.34.33c.29.07.62-.09.69-.39s-.09-.62-.39-.69c-.56-.14-1.13-.31-1.7-.41l-.31-.04-.13-.01.09.01h-.06l-.14-.02-1.33-.25c-.29-.06-.62.08-.69.39-.06.28.08.63.39.69Zm6.01-24.8c.36-.77 1.76-2.75 2.68-1.59.4.5.49 1.18.54 1.8s.06 1.26.04 1.89a7 7 0 0 1-.85 3.5c-.28.44-.75 1.01-1.33 1.01s-1.01-.6-1.31-1.01c-.43-.58-1.41-.01-.97.57.78 1.05 1.85 2 3.22 1.33 1.16-.57 1.82-1.94 2.11-3.14.31-1.3.31-2.68.23-4.01-.07-1.22-.38-2.83-1.69-3.31-1.55-.57-3.07 1.15-3.64 2.4-.3.65.67 1.23.97.57Zm-25.79 2.07c1.06 0 1.06-1.65 0-1.65s-1.06 1.65 0 1.65m17.03.81c1.06 0 1.06-1.65 0-1.65s-1.06 1.65 0 1.65M109.67 72.3c1.34-1.16 3.14-.76 4.68-.35.7.19 1-.9.3-1.09-.86-.23-1.73-.44-2.62-.46a4.6 4.6 0 0 0-3.15 1.1c-.23.2-.2.59 0 .8.23.23.57.2.8 0Z" class="cls-10"/><path d="m139.19 126.28 14.61-20.94s18.47 30.75 17.31 40.75c-.72 6.2-2.91 8.47-2.91 8.47s-2.08.31-4.93-.88-9.33-15.82-9.33-15.82" class="cls-9"/><path d="M153.31 105.62a56 56 0 0 1 4.08 6.73q2.2 4.1 4.23 8.28l3.53 7.3c1.7 3.49 3.45 7 4.54 10.74 1.16 3.98 1.42 8.22-.41 12.04-.31.65.66 1.22.97.57 3.52-7.33.06-15.23-3.18-21.97-2.64-5.49-5.24-11.01-8.09-16.39a61 61 0 0 0-4.69-7.86c-.43-.58-1.41-.02-.97.57Z" class="cls-10"/><path d="M164.96 153.14s4.12-5.91-2.61-13.5-13.1-10.45-15.38-12.08-16.58-7.74-18.85-9.06-10.74-4.38-10.74-4.38-12.09-8.31-12.1-7.68-17.5-14.29-18.23-12.88c-2.36 4.59 8.25 10 9.14 17.34.17 1.42-8.74 3.09-8.95 3.36s3.76 2.89 3.76 2.89 11.78-.87 12.98.61 32.46 28.11 34.22 29.48c0 0 16.14 11.11 26.75 5.91Z" class="cls-9"/><path d="M168.82 151.39a5 5 0 0 1-.27 1.74c-.16.44-.48.9-.9 1.11l-.08.04q.1-.04 0 0l-.18.06-.16.04c-.15.03.06 0-.06 0h-.37.01q-.05 0-.09-.02l-.18-.04q-.09-.02-.17-.06c.13.05 0 0-.03-.02l-.15-.09q-.08-.06 0 .01l-.07-.06-.12-.12q-.06-.07 0 .01l-.05-.07c-.02-.03-.08-.19-.04-.06l-.05-.17c-.07-.3-.41-.47-.69-.39-.3.08-.47.4-.39.69.25 1.04 1.36 1.59 2.36 1.5a2.6 2.6 0 0 0 1.47-.59c.47-.39.79-.94.99-1.52.23-.64.3-1.34.3-2.01 0-.3-.26-.56-.56-.56s-.56.26-.56.56Z" class="cls-10"/><path d="M97.1 103.42a36 36 0 0 1-9.87-7.52c-1.52-1.64-4.12.66-2.6 2.3a39 39 0 0 0 10.54 8.11c1.96 1.03 3.91-1.85 1.93-2.88Z" class="cls-9"/><path d="M158.66 135.2c-4.54-4.2-9.9-7.4-15.36-10.26-6.97-3.64-14.18-6.81-21.32-10.08a659 659 0 0 1-7.15-3.31 18 18 0 0 1-2.86-1.7 8 8 0 0 0-2.77-1.41c-.7-.17-1.01.91-.3 1.09 1.81.44 3.11 1.94 4.77 2.72q3.16 1.49 6.36 2.95l11.55 5.29c6.31 2.92 12.65 5.91 18.53 9.64a54 54 0 0 1 7.76 5.87c.53.49 1.33-.3.8-.8Z" class="cls-10"/><path d="M164.87 153.12c-3.29 1-6.72 1.02-10.07.32a46 46 0 0 1-9.73-3.47q-2.17-.97-4.29-2.04-.58-.3-1.12-.67c-1.07-.7-2.13-1.5-3.11-2.26a213 213 0 0 1-8.8-7.36q-5.03-4.4-9.97-8.89-4.33-3.93-8.62-7.9l-3-2.78-.56-.52c-.19-.17-.4-.44-.63-.54-.16-.07-.34-.07-.51-.1l-1.15-.17-2.5-.38-.52-.08c-.38-.04-.78.06-1.16.11l-1.3.14c-2.21.22-4.6.4-6.76.07a9 9 0 0 1-1.01-.21q-.2-.05-.38-.12l-.19-.07-.08-.03q-.3-.13-.57-.31l-.11-.07c-.08-.05.1.09 0 0l-.19-.17-.14-.16c-.05-.06.08.12.01.02l-.07-.1q-.1-.15-.17-.32c.1.2-.03-.11-.06-.19l-.08-.26c-.03-.09-.07-.3-.13-.33.04.02.05.2.03.27l-.09.15.05-.05s-.1.07-.02.02l.08-.05.17-.08c1-.4 2.1-.57 3.14-.81 1.31-.3 2.64-.61 3.88-1.14a2.8 2.8 0 0 0 1.69-2.93 5.6 5.6 0 0 0-1.91-3.63c-.53-.47-1.15-.82-1.73-1.24q-.7-.5-1.34-1.06c-.82-.7-1.58-1.46-2.4-2.16-1.18-1.02-2.53-1.86-3.63-2.96-.93-.93-1.63-2.42-.72-3.6l-.77.2 2.42 1.41 5.85 3.42 7.05 4.12 6.1 3.56c.99.58 1.97 1.21 2.99 1.74l.04.02c.63.37 1.2-.61.57-.97l-2.42-1.41-5.85-3.42-7.05-4.12-6.1-3.56c-.99-.58-1.97-1.21-2.99-1.74l-.04-.02c-.29-.17-.59-.04-.77.2-.91 1.2-.65 2.91.16 4.09.93 1.34 2.38 2.2 3.62 3.22 1.86 1.52 3.5 3.24 5.51 4.57a4.8 4.8 0 0 1 2.26 3.29c.07.5.03 1.05-.3 1.46-.39.48-1.08.65-1.64.83-1.29.42-2.61.7-3.93 1.01-.83.19-1.88.33-2.59.84-.3.21-.5.56-.39.94l.08.19-.03-.08.04.11q.08.28.19.57c.29.72.83 1.25 1.52 1.6 1.33.67 2.91.79 4.37.83q1.88.05 3.76-.12 1.23-.1 2.45-.25c.38-.05.67-.16 1.03-.1l2.39.36 1.27.19c.17.03.52.15.69.1.1-.03-.19-.07-.19-.12 0 .02.09.08.11.1l.27.25.57.53 1.36 1.27q3.99 3.7 8.01 7.37 4.96 4.53 9.99 8.98 4.62 4.11 9.41 8.03 1.82 1.49 3.71 2.87c.81.59 1.64 1.18 2.54 1.62a90 90 0 0 0 9.8 4.32c3.2 1.13 6.59 1.9 10 1.77a20 20 0 0 0 5.02-.84c.69-.21.4-1.3-.3-1.09Z" class="cls-10"/><path d="M87.48 95.81c-.05-.48-.03-1.05.25-1.46.26-.38.63-.01.86.24.37.4.67.83 1.06 1.21 1.01.95 2.14 1.78 3.25 2.61 3.29 2.46 6.68 4.77 10.06 7.1q2.72 1.87 5.43 3.77c.59.42 1.16-.56.57-.97-3.53-2.5-7.12-4.93-10.67-7.41a195 195 0 0 1-4.96-3.57c-1.08-.81-2.19-1.62-3.13-2.58l-.24-.26-.09-.11c.01.02.1.13.02.02l-.19-.25c-.4-.51-.89-1.01-1.56-1.09-1.43-.18-1.89 1.66-1.78 2.75.07.71 1.2.72 1.13 0Zm12.64 21.58 5.88.36c.72.04.72-1.08 0-1.13l-5.88-.36c-.72-.04-.72 1.08 0 1.13" class="cls-10"/><path d="m71.46 109.48-5.17 10.49s-9.1 17.77-8.39 23.96 2.29 9.03 2.29 9.03 2.07.36 4.95-.75 21.58-28.11 21.58-28.11" class="cls-9"/><path d="M70.83 109.99a166 166 0 0 0-7.96 15.78 98 98 0 0 0-3.39 8.77 45 45 0 0 0-1.91 8.05c-.29 2.35-.32 4.86.66 7.06.3.66 1.27.09.97-.57-.77-1.73-.77-3.87-.58-5.79.25-2.63.93-5.22 1.71-7.73a112 112 0 0 1 7.14-16.93q2.07-4.1 4.33-8.08c.36-.63-.61-1.2-.97-.57Z" class="cls-10"/><path d="M63.47 151.64s-3.95-6.02 2.98-13.43 13.38-10.08 15.7-11.66c2.32-1.57 8.57-3.36 10.87-4.62 2.31-1.26 16.63-6.1 16.63-6.1s11.35-7.42 11.35-6.79 22.67-12.73 23.4-11.32c3.34 6.42-9.96 5.03-11.05 12.34-.21 1.41 8.73.17 8.93.44s-4.36 4.72-4.36 4.72-11.29 1.27-12.53 2.72c-1.24 1.44-35.11 27.42-36.91 28.75 0 0-14.55 10.44-25.02 4.95Z" class="cls-9"/><path d="M133.56 101.77c3.77-1.84 6.82-2.58 9.75-5.58 1.56-1.6 3.25.25 2.53 2.37-.94 2.76-1.82 4.86-10.76 7.81-2.1.69-3.54-3.62-1.53-4.6Z" class="cls-9"/><path d="M71.05 134.68c4.81-4.21 10.47-7.21 16.27-9.8 7.86-3.52 15.94-6.56 23.85-9.97.93-.4 1.87-.76 2.74-1.29q1.18-.73 2.32-1.52 1.23-.84 2.51-1.61c.62-.37 1.28-.76 2-.91s.41-1.24-.3-1.09a7 7 0 0 0-1.85.79q-1.13.64-2.2 1.37c-1.28.85-2.54 1.84-3.94 2.49-2.33 1.07-4.72 2.03-7.08 3.02q-3.22 1.34-6.45 2.65c-6.78 2.77-13.69 5.4-20.07 9.02a52 52 0 0 0-8.59 6.04c-.55.48.25 1.27.8.8Z" class="cls-10"/><path d="M63.25 152.7a20.6 20.6 0 0 0 11.26.41c3.8-.88 7.38-2.55 10.92-4.15.87-.39 1.75-.75 2.58-1.22q.8-.46 1.56-.97a90 90 0 0 0 4.24-3.02c3.8-2.84 7.5-5.81 11.18-8.8a867 867 0 0 0 19.5-16.36l.56-.49-.4.17 3.79-.46c2.1-.26 4.18-.72 6.21-1.29a24 24 0 0 0 5.4-2.08 5.6 5.6 0 0 0 2.35-2.15 2.1 2.1 0 0 0-.08-2.12c-.32-.47-.81-.57-1.35-.56-.76.03-1.52.16-2.27.22q-1.88.15-3.75-.07c-.68-.08-1.38-.31-2.07-.32-.46 0-.95.33-.74.85.15.37.61.48.97.39.46-.11.75-.48.88-.92a5 5 0 0 1 2.26-2.94c1.8-1.11 3.31-2.52 4.93-3.85 1.1-.9 2.33-1.66 3.41-2.59a4.8 4.8 0 0 0 1.85-3.43 3 3 0 0 0-.53-1.79c-.18-.25-.48-.36-.77-.2l-2.46 1.35-5.95 3.25-7.16 3.92-6.2 3.39c-1.01.55-2.06 1.06-3.03 1.66l-.04.02c-.64.35-.07 1.32.57.97l2.46-1.35 5.95-3.25 7.16-3.92 6.2-3.39 2.06-1.13c.32-.17.69-.32.98-.53l.04-.02-.77-.2c.89 1.24.08 2.72-.89 3.63-.58.54-1.25.98-1.89 1.45q-.88.64-1.72 1.33c-.83.67-1.61 1.4-2.43 2.07-.97.79-2.08 1.38-3.06 2.15a6 6 0 0 0-1.84 2.47c-.09.23-.14.58-.26.76-.03.04.01-.03.03 0 0 .02.06 1.04-.06.99h.13l.5.09q1.21.23 2.46.32 1.8.1 3.6-.1l1.2-.13.42-.02h.18-.03l.1.02c.13.05-.05-.03.01 0s-.11-.02 0 0c-.06-.01-.06-.11 0 0l.06.1.05.09c.06.1-.04-.13 0 0l.06.22c.03.12 0-.14 0-.02v.22c0 .15.02-.07 0 0l-.06.24c0 .02-.06.16-.02.07l-.04.08-.14.24-.09.12-.06.07a6 6 0 0 1-1.29 1.06q-.48.3-1 .55a30 30 0 0 1-6.74 2.18c-1.05.24-2.11.49-3.17.62l-2.39.29-1.85.23c-.46.06-.89.57-1.24.87l-2.87 2.47a971 971 0 0 1-18.58 15.45 304 304 0 0 1-9.22 7.19 90 90 0 0 1-3.6 2.56c-.8.54-1.62 1.08-2.5 1.49a96 96 0 0 1-9.05 3.85 24 24 0 0 1-9.26 1.56 18 18 0 0 1-4.82-.95c-.69-.23-.99.86-.3 1.09Z" class="cls-10"/><path d="M127.95 116.4c-1.81-.03-3.63.15-5.44.12-1.09-.02-1.09 1.67 0 1.69 1.81.03 3.63-.15 5.44-.12 1.09.02 1.09-1.67 0-1.69m16.51-17.22c.33 2.56-3.27 3.9-5.08 4.98l-6.31 3.73c-.94.55-.09 2.02.85 1.46l8.51-5.03c1.93-1.14 4.05-2.6 3.72-5.14-.14-1.06-1.83-1.08-1.69 0M109.3 66.69c.56.71 1.43 1.38 2.36 1.46 1 .08 2-.56 2.53-1.38.16-.26.05-.62-.2-.77a.57.57 0 0 0-.77.2c-.1.15-.16.23-.32.37-.07.07-.09.08-.15.12l-.23.14c-.15.08-.26.12-.46.16l-.1.02h-.24l-.24-.06-.11-.04c.08.03-.04-.02-.05-.03q-.25-.13-.49-.3l-.35-.3q-.2-.19-.37-.41c-.19-.24-.6-.2-.8 0-.24.24-.19.56 0 .8Z" class="cls-10"/><path d="M114.06 67.39q.27.03.53-.06c.26-.09.34-.13.49-.23q.14-.1.25-.21c.11-.11.14-.17.21-.26q.16-.23.21-.5a.6.6 0 0 0-.06-.43.6.6 0 0 0-.34-.26q-.23-.06-.43.06t-.26.34l-.06.19.06-.13q-.05.12-.13.22l.09-.11q-.09.12-.21.21l.11-.09q-.12.09-.25.15l.13-.06q-.13.06-.28.08l.15-.02h-.23a.5.5 0 0 0-.4.17c-.1.1-.17.26-.17.4s.05.3.17.4l.11.09q.13.08.28.08Zm-4.95-1.29c.05-.03-.06 0-.02 0-.07-.02-.06-.02-.12-.06q-.14-.1-.16-.29c-.05-.48.29-1.01.48-1.42l1.41-3.06c.13-.28.08-.61-.2-.77-.24-.14-.64-.08-.77.2l-.93 2.01c-.31.67-.66 1.36-.94 2.06-.24.63-.29 1.36.15 1.91.4.5 1.08.71 1.66.39.64-.35.07-1.32-.57-.97Zm-7.71 17.18-3.71.78c-1.06.23-.61 1.86.45 1.63l3.71-.78c1.06-.23.61-1.86-.45-1.63m-43.16 65.29c-.5 1.59.08 3.43 1.41 4.44s3.4 1.06 4.78.05c.25-.18.37-.49.2-.77-.14-.24-.52-.38-.77-.2-1.02.74-2.49.81-3.53.03s-1.37-2.1-1-3.25c.22-.69-.87-.99-1.09-.3" class="cls-10"/><path d="m70.03 101.38-.02-.07-.01-.03.05.21-.02-.1Z" class="cls-6"/><path d="m101.58 64.15.05-.43" style="fill:#c2dbdf"/><path d="M54.47 60.75c1.56 4.79.72 9.94-.74 14.64-1.5 4.83-3.68 9.43-4.86 14.36s-1.49 10.12-1.24 15.2q.21 3.92.75 7.82c.54 3.9.83 5.01 1.26 7.52 1.43 8.41 1.26 16.94.21 25.39-.86 6.94-2.34 13.82-2.69 20.81-.16 3.13-.04 6.27.53 9.36a31 31 0 0 0 4.68 11.41c.35.53 1.21.03.85-.5a30 30 0 0 1-4.13-9.12 35 35 0 0 1-1.01-9.2c.09-6.84 1.51-13.59 2.43-20.34 1.13-8.23 1.6-16.52.55-24.78-.31-2.42-.78-4.81-1.19-7.22q-.67-3.9-1.04-7.84c-.46-5.1-.47-10.28.38-15.33.85-4.99 2.77-9.62 4.47-14.36 1.67-4.64 3.05-9.62 2.47-14.6a18 18 0 0 0-.75-3.47c-.2-.6-1.15-.34-.95.26Z" class="cls-6"/><path d="M56.88 60.41c9.66-10.59 27.56-28.52 17.01-43.85-4.16-6.05-11.81-8.84-18.84-6.4-4.89 1.69-7.87 5.34-9.47 9.71a4 4 0 0 0-.54-1.41 14.1 14.1 0 0 0-16.28-6.14c-6.61 2.13-9.84 9.38-9.31 15.93 1.32 16.45 19.89 26 32.68 32.77q.62.33 1.34.44l-.34 4.26 6.05-1.42-2.33-3.88.02-.02Z" style="fill:#f7b3c2"/><path d="M93.51 54.8s9.34-.61 14.54-3.14c4.35-2.12 5.57-5.15 5.57-5.15s1.65 3.31 3.58 4.21c4.64 2.16 13.68 4.29 13.68 4.29l-2.23-16.35-25.18-4.9-9.96 21.05ZM49.9 34.55a46 46 0 0 1 6.48-5.7 1.8 1.8 0 0 0 .23-2.86l-2.08-2.04a2 2 0 0 0-2.75 0l-1.5 1.03a24 24 0 0 0-4.2 3.7l-1.01 1.13a30 30 0 0 1-4.39-4.65l-.87-1.21a2 2 0 0 0-2.75 0l-2.08 2.04a1.9 1.9 0 0 0 0 2.7l.56.81a24 24 0 0 0 3.78 4.25l.92.81a26 26 0 0 0-5.11 5.72c-.58.91-.43 2.28.35 3.03l1.73 1.7c.76.74 1.99.74 2.75 0l.68-.87a42 42 0 0 1 3.39-3.81l1.04-1.04a30 30 0 0 0 6.56 5.72c.76.74 1.99.74 2.75 0l2.08-2.04c.76-.74.76-1.95 0-2.7l-.39-.25a27 27 0 0 1-6.15-5.44z" class="cls-6"/><path d="M47.66 33.65a46 46 0 0 1 6.48-5.7 1.8 1.8 0 0 0 .23-2.86l-2.08-2.04a2 2 0 0 0-2.75 0l-1.5 1.03a24 24 0 0 0-4.2 3.7l-1.01 1.13a30 30 0 0 1-4.39-4.65l-.87-1.21a2 2 0 0 0-2.75 0l-2.08 2.04a1.9 1.9 0 0 0 0 2.7l.56.81a24 24 0 0 0 3.78 4.25l.92.81a26 26 0 0 0-5.11 5.72c-.58.91-.43 2.28.35 3.03l1.73 1.7c.76.74 1.99.74 2.75 0l.68-.87a42 42 0 0 1 3.39-3.81l1.04-1.04a30 30 0 0 0 6.56 5.72c.76.74 1.99.74 2.75 0l2.08-2.04c.76-.74.76-1.95 0-2.7l-.39-.25a27 27 0 0 1-6.15-5.44zm77.68 50.27c-.14 0-.28.51-.47 1.43-.2.9-.46 2.21-1.19 3.58a9.5 9.5 0 0 1-3.83 3.72q-1.33.74-3 1.08c-1.11.28-2.3.38-3.51.45-2.42.04-4.74-.32-6.66-1.12a12 12 0 0 1-4.48-3.11c-.56-.57-.92-1.19-1.31-1.7-.3-.56-.6-1.04-.8-1.44-.37-.83-.65-1.3-.78-1.27q-.2.06.05 1.53c.1.48.31 1.04.54 1.7.32.62.64 1.36 1.2 2.07a12 12 0 0 0 4.85 3.91 17 17 0 0 0 7.45 1.43c1.35-.08 2.66-.21 3.9-.54 1.24-.27 2.46-.77 3.48-1.4a10.2 10.2 0 0 0 4.18-4.71c.67-1.7.72-3.16.68-4.11q-.09-1.46-.31-1.49Z" class="cls-5"/></g></g></svg>