<svg xmlns="http://www.w3.org/2000/svg" width="200" height="200" viewBox="0 0 200 200"><defs><style>.cls-1{fill:none}.cls-2{fill:#ff8000}.cls-3{fill:#ce9352}.cls-4{fill:#ce9351}.cls-5{fill:#575655}.cls-6{fill:#d7b27c}.cls-7{fill:#fff}</style></defs><g id="BG_Strong_Light" data-name="BG_Strong Light"><path d="M192.07 105.1c-11.86-24.72-35.08-40.15-52.19-46.62C106.62 42.3 95.17 12.91 54.4 30.15 9.63 49.1 8.41 73.3 7.12 83.14c-7.11 54.08 40.69 111.91 106.73 85.24 37.89-3 49 1.76 66.35-13.4 12.85-15.05 15.55-23.02 11.86-49.88" style="fill:#edebe8"/><path d="m109.79 116.43-.15.04-7.32 2.31-1.88 2.08a162 162 0 0 0-6.74 8.09v5.63c2.83-3.22 6.14-7.03 9.73-11.06q3.35-3.77 6.35-7.1Zm18.09-3.65a3.1 3.1 0 0 0-2.31-1.14 207 207 0 0 0-18.44 19.44 218 218 0 0 0-13.42 17.64v4.76c4.07-4.8 9.87-11.96 16.49-19.82 7.18-8.57 13.71-16.03 17.68-20.87Zm.69 15.47v-4.52a802 802 0 0 0-18.26 23.1 870 870 0 0 0-16.59 22.11v3.94c4.66-4.91 11.98-13.48 19.76-23.61 6.13-7.97 11.4-15.4 15.09-21.02m0 20.65v-5.43c-4.06 5.65-9.75 13.72-16.41 22.42-6.43 8.46-12.52 15.89-16.88 21.27l5.68-1.84a213 213 0 0 0 14.37-17 211 211 0 0 0 13.23-19.42Zm-5.77 23.58a217 217 0 0 0-6.21 7.78l6.72-2.18 2.56-3.04 2.69-3.25v-5.94a205 205 0 0 0-5.76 6.62Z" class="cls-6"/></g><g id="BG_Strong_Dark" data-name="BG_Strong Dark"><path d="M192.07 105.1c-11.86-24.72-35.08-40.15-52.19-46.62C106.62 42.3 95.17 12.91 54.4 30.15 9.63 49.1 8.41 73.3 7.12 83.14c-7.11 54.08 40.69 111.91 106.73 85.24 37.89-3 49 1.76 66.35-13.4 12.85-15.05 15.55-23.02 11.86-49.88" class="cls-5"/><path d="m109.79 116.43-.15.04-7.32 2.31-1.88 2.08a162 162 0 0 0-6.74 8.09v5.63c2.83-3.22 6.14-7.03 9.73-11.06q3.35-3.77 6.35-7.1Zm18.09-3.65a3.1 3.1 0 0 0-2.31-1.14 207 207 0 0 0-18.44 19.44 218 218 0 0 0-13.42 17.64v4.76c4.07-4.8 9.87-11.96 16.49-19.82 7.18-8.57 13.71-16.03 17.68-20.87Zm.69 15.47v-4.52a802 802 0 0 0-18.26 23.1 870 870 0 0 0-16.59 22.11v3.94c4.66-4.91 11.98-13.48 19.76-23.61 6.13-7.97 11.4-15.4 15.09-21.02m0 20.65v-5.43c-4.06 5.65-9.75 13.72-16.41 22.42-6.43 8.46-12.52 15.89-16.88 21.27l5.68-1.84a213 213 0 0 0 14.37-17 211 211 0 0 0 13.23-19.42Zm-5.77 23.58a217 217 0 0 0-6.21 7.78l6.72-2.18 2.56-3.04 2.69-3.25v-5.94a205 205 0 0 0-5.76 6.62Z" class="cls-5"/></g><g id="Illustrations"><g id="Outline"><path d="M124.01 64.85q13.47-1.3 26.92-2.78a1.5 1.5 0 0 1-.25-.76c-.28-5.27-.7-10.83-3.34-15.53-2.22-3.94-6.56-7.38-11.3-6.91-4.77.48-8.32 4.62-9.94 8.86a31 31 0 0 0-1.76 8.19c-.28 2.82-.66 5.82-.33 8.64z" class="cls-1"/><path d="M124.01 64.85q13.47-1.3 26.92-2.78a1.5 1.5 0 0 1-.25-.76c-.28-5.27-.7-10.83-3.34-15.53-2.22-3.94-6.56-7.38-11.3-6.91-4.77.48-8.32 4.62-9.94 8.86a31 31 0 0 0-1.76 8.19c-.28 2.82-.66 5.82-.33 8.64z" class="cls-1"/><circle cx="144.08" cy="105.47" r="28.66" class="cls-7" transform="rotate(-67.5 144.08 105.47)"/><path d="m104.91 149.71-.19-.1-.37-7.41c-.17-3.15-.64-26.21-.64-30.43 0-3.89.74-38.23.86-43.6.67-.03 1.13-.96.42-1.32a93 93 0 0 1-17.08-10.92q-.37-.27-.67-.09c-.2.05-.37.2-.43.48-5.56 25.67-5.88 52.13-6.38 78.27v.09c-.1.29-.06.63.24.88a131 131 0 0 0 23.45 15.38c.84.43 1.65-.81.8-1.24Z" class="cls-3"/><path d="M161.04 101.22c-.13-.27-1.86-2.9-4.91-6.11a1 1 0 0 1-.15-.28c-.63-3.57-1.34-5.91-1.34-5.91a1 1 0 0 0-.91-.69s-2.9-.1-2.9-.1h-.08a.6.6 0 0 0-.55.66l.09 1s-.01.04-.03.04h-.02a41 41 0 0 0-6.17-3.88 2.6 2.6 0 0 0-1.46-.31q-.8.07-1.38.55c-9.39 6.96-13.99 17.38-14.16 17.94q-.08.2-.06.43c.04.46.39.82.82.89l2.9.31c.39.07.71.38.78.77.07.5 1.57 11.71 2.49 14.58a1 1 0 0 0 1.01.65h.02c1.66-.19 3.18-.34 4.83-.51h.02l.13-.01a.3.3 0 0 0 .29-.35c-.15-.98-.49-3.21-.81-5.57l-.03-.19a.6.6 0 0 0-.33-.46 3.1 3.1 0 0 1-1.71-2.36c-.49-3.94-.95-8.49-1.04-12.08 0-.3.22-.56.52-.59.32-.03.6.2.63.51v.05c.06 2.39.29 5.21.58 7.98a.68.68 0 0 0 1.36-.14c-.29-2.79-.52-5.62-.58-8.02 0-.3.22-.56.52-.59.32-.03.6.2.63.51v.05c.06 2.38.29 5.18.57 7.93a.7.7 0 0 0 .75.61.7.7 0 0 0 .61-.74c-.29-2.78-.51-5.6-.57-7.98 0-.3.22-.56.52-.59.32-.03.6.2.63.51v.05c.09 3.49.53 7.88 1 11.72v.14a3.1 3.1 0 0 1-1.12 2.65.6.6 0 0 0-.22.47s-.02.6.49 3.44l.47 2.49a.3.3 0 0 0 .32.24l.27-.02 1.71-.15h.11l.11-.02 2.14-.18 1.62-.12a.3.3 0 0 0 .28-.29c.08-3.47 0-5.41 0-5.41-.01-.17-.16-.29-.34-.3l-1.99-.1q-.48-.06-.6-.43c-.05-.14-.05-.3-.05-.3-.18-11.52 3.27-15.71 3.27-15.71l.17-.17a1 1 0 0 1 .35-.15c.26-.02.49.12.6.34l.07.27c.63 3.57 1 9.71 1.2 14.51.18 4.07.24 7.27.24 7.27.01.13.13.23.26.22l3.25-.21h.02a1 1 0 0 0 .89-.81c.43-2.98 0-14.28-.01-14.79 0-.4.27-.76.64-.89l2.81-.79a.98.98 0 0 0 .53-1.43Z" class="cls-2"/><g id="Layer_12" data-name="Layer 12"><path d="M43.24 5.89q0 .1-.05.19l.15-.08zM21.07 45.21q0 .1-.05.19l.15-.08zm7.18 5.64q.33-.4.73-.74l.26-.34q-.57.48-.98 1.08Z" class="cls-1"/><path d="m43.24 5.89.1.11-.15.08q.04-.1.05-.19M28.98 50.1q-.39.35-.73.74.4-.6.98-1.08l-.26.34Zm-7.91-4.89.1.11-.15.08q.04-.1.05-.19" style="fill:#f6b7c2"/></g><path d="M20.63 119.34a3.54 3.54 0 0 0-3.63 3.54v57.7a3.06 3.06 0 0 0 2.9 3.06l73.06 4 .75.02-.75-.02-27.75-1.52a19.45 19.45 0 0 1 28.51-25.61v-39.19l-73.08-1.99Z" class="cls-6"/><path d="M62.19 175.75a19.4 19.4 0 0 0 3.01 10.37l27.75 1.52.75.02v-27.15a19.45 19.45 0 0 0-31.52 15.24Z" class="cls-7"/><path d="M88.75 173.84c-.07-.17-.86-1.78-2.44-3.83l-.07-.17q-.1-1.74-.41-3.5c-.02-.12-.1-.22-.16-.3q-.15-.15-.32-.13l-1.66-.25s-.03.01-.04-.02q-.15 0-.25.11c-.1.11-.1.14-.12.25l-.02.57a25 25 0 0 0-3.28-2.64q-.36-.26-.82-.28c-.46-.02-.56.08-.83.22a27.6 27.6 0 0 0-9.28 9.44l-.06.26q0 .2.12.35c.12.15.18.19.29.21l1.64.36c.11.02.21.11.28.18s.11.18.13.31c0 .3.16 6.86.49 8.57q.04.18.2.31c.16.13.22.14.35.12.96-.01 1.86 0 2.82.02h.07l.06-.02.06-.02.04-.05q.03-.02 0-.07c-.02-.59-.08-1.89-.11-3.27v-.1q0-.1-.03-.15-.04-.09-.12-.12a1.8 1.8 0 0 1-.82-1.47 80 80 0 0 1 .17-7.03q.02-.12.11-.21.11-.1.24-.07c.07 0 .18.02.21.11q.1.12.1.22v.03c-.1 1.37-.15 3.02-.15 4.64q0 .09.03.15.03.07.09.13c.06.06.06.07.13.08l.15.04q.07.02.15-.03c.08-.05.08-.04.13-.09s.06-.09.08-.13l.04-.15c0-1.62.06-3.27.19-4.66q-.01-.15.1-.24.15-.12.22-.1c.07.02.18.02.24.1s.1.16.1.22v.03c-.1 1.37-.15 3.02-.16 4.62q.02.16.12.28c.1.12.18.12.28.11s.22-.03.28-.12a.4.4 0 0 0 .11-.28c0-1.62.06-3.27.16-4.64q-.01-.15.1-.24.15-.12.22-.1.15-.01.24.1.12.15.1.22v.03a94 94 0 0 0-.17 6.84v.03l.02.03v.03q0 .44-.23.83c-.23.39-.33.47-.6.62-.06.02-.07.06-.12.12l-.04.15s-.05.35.07 2.02q.09 1.12.1 1.48l.05.11.12.05h.16q.47 0 1.01.03h.14l1.24.04.94.03s.1 0 .11-.05q.04-.02.06-.09c.27-2 .35-3.13.35-3.13q.03-.07-.06-.14c-.09-.07-.09-.06-.13-.08l-1.14-.18q-.11-.01-.2-.08c-.09-.07-.09-.13-.11-.18s-.02-.12 0-.16c.62-6.66 2.9-8.86 2.9-8.86q.04-.06.1-.08.1-.05.21-.06c.11-.01.15.04.2.08s.1.09.14.17c.02.06 0 .1.03.15.14 2.1-.06 5.66-.25 8.46-.15 2.35-.32 4.21-.32 4.21l.02.06.02.06s.01.03.05.04l.04.02q.92.05 1.89.08.2 0 .35-.12.16-.12.21-.29c.44-1.68.91-8.24.95-8.53a.5.5 0 0 1 .14-.29q.1-.12.28-.19l1.67-.28q.18-.04.31-.2c.13-.16.14-.22.12-.35q-.05-.21-.1-.32Z" class="cls-2"/><path d="M175.7 59.36a93 93 0 0 1-17.08-10.92c-.24-.2-.48-.2-.68-.09q-7.97.98-15.95 1.88c-.49-8.93-2.01-19.34-10.91-23.8-8.65-4.34-16.97 2.17-19.73 10.38a38 38 0 0 0-1.62 8.4c-.27 2.8-.54 5.66-.29 8.48q-10.95 1.07-21.91 2.01c-.93.08-1.01 1.55-.07 1.47l.72-.06c2.52 2.02 11.32 8.88 16.38 10.35l69.05-5.81c.31.16.97-1.22 1.28-1.06.84.43 1.65-.81.8-1.24Zm-62.98-14.32c.28-2.79.75-5.57 1.76-8.19 1.62-4.23 5.17-8.38 9.94-8.86 4.74-.48 9.09 2.96 11.3 6.91 2.64 4.7 3.06 10.26 3.34 15.53l.02.14q-13.35 1.51-26.72 2.84c-.28-2.75.08-5.65.36-8.38Z" class="cls-4"/><path d="M80.53 128.33v.03l5.65-1.83a213 213 0 0 0 14.37-17q1.69-2.21 3.25-4.36l.13-6.82q-3.08 4.21-6.56 8.76c-6.41 8.44-12.49 15.84-16.84 21.22" class="cls-6"/><path d="M176.21 60.63a.7.7 0 0 0-.39-.51.8.8 0 0 0-.64-.22q-10.75 1.32-21.52 2.51.02-.15.02-.33c-.48-9-1.92-19.61-10.93-24.12-8.65-4.34-16.97 2.17-19.73 10.38l-1.62 8.4c-.29 2.99-.58 6.04-.24 9.04q-8.25.78-16.51 1.49-.1 0-.17.03a.66.66 0 0 0-.6.67c-.73 27.61-1.66 55.28.24 82.87-.13.43.07.94.63.89q31.3-2.65 62.54-6.13 8.54-.94 17.06-1.99h.04c.39.05.79-.17.77-.67a693 693 0 0 0-8.95-82.3Zm-51.83-4.07c.28-2.79.75-5.57 1.76-8.19 1.62-4.23 5.17-8.38 9.94-8.86 4.74-.48 9.09 2.96 11.3 6.91 2.64 4.7 3.06 10.26 3.34 15.53q.04.45.25.76-13.45 1.49-26.92 2.78v-.3c-.33-2.82.05-5.82.33-8.64Zm19.7 77.24a28.66 28.66 0 1 1 0-57.32 28.66 28.66 0 0 1 0 57.32" class="cls-6"/><path d="m20.63 119.34 30.66-9.04 74.29 1.32-31.8 9.69-73.16-1.96Z" class="cls-6"/><path d="m125.15 177.49-31.44 10.17v-66.15l30.84-9.75a3.1 3.1 0 0 1 4.02 2.94v58.09a4.9 4.9 0 0 1-3.42 4.7" class="cls-3"/><path d="m109.79 116.43-.15.04-7.32 2.31-1.88 2.08a162 162 0 0 0-6.74 8.09v5.63c2.83-3.22 6.14-7.03 9.73-11.06q3.35-3.77 6.35-7.1Zm18.09-3.65a3.1 3.1 0 0 0-2.31-1.14 207 207 0 0 0-18.44 19.44 218 218 0 0 0-13.42 17.64v4.76c4.07-4.8 9.87-11.96 16.49-19.82 7.18-8.57 13.71-16.03 17.68-20.87Zm.69 15.47v-4.52a802 802 0 0 0-18.26 23.1 870 870 0 0 0-16.59 22.11v3.94c4.66-4.91 11.98-13.48 19.76-23.61 6.13-7.97 11.4-15.4 15.09-21.02m0 20.65v-5.43c-4.06 5.65-9.75 13.72-16.41 22.42-6.43 8.46-12.52 15.89-16.88 21.27l5.68-1.84a213 213 0 0 0 14.37-17 211 211 0 0 0 13.23-19.42Zm-5.77 23.58a217 217 0 0 0-6.21 7.78l6.72-2.18 2.56-3.04 2.69-3.25v-5.94a205 205 0 0 0-5.76 6.62ZM93.06 59.82l-1.52-1.07-3.99 1.26-1.88 2.08-.03.04q-.69 3.72-1.26 7.46a861 861 0 0 1 8.68-9.77m10 6.03q-1.71-.9-3.38-1.87a233 233 0 0 0-17.15 20.85q-.29 3.09-.52 6.19c3.71-4.47 8.31-10.09 13.41-16.15 2.67-3.19 5.25-6.22 7.64-9.02m1.18 17.25.14-6.47c-2.74 3.5-5.73 7.35-8.86 11.41a1027 1027 0 0 0-14.41 19.1l-.17 4.78A352 352 0 0 0 98.7 90.47q2.93-3.8 5.55-7.38Z" class="cls-6"/><path d="M103.93 66.56c.14-.28-3.86-2.3-8.53-5.15a62 62 0 0 1-5.74-3.98c-1.41-1.1-2.26-1.83-2.37-1.73-.09.09.58 1 1.91 2.26a35 35 0 0 0 5.68 4.29c4.75 2.9 8.95 4.52 9.05 4.3Zm24.89 100.92c.55 0 1-12.1 1-27.04s-.45-27.04-1-27.04-1 12.1-1 27.04.45 27.04 1 27.04" class="cls-7"/><path d="M46.09 120.36v26.14q.33-.54.78-.94c.52-.43 1.32-.6 1.82 0l.58.69q.61-.68 1.2-1.38c.5-.62 1.69-.5 2.02.28q.24.6.41 1.24l.14-.17q.33-.45.65-.94c.54-.77 1.32-.85 2.02-.28q.63.53 1.17 1.19l.24.25.12-.2c.23-.36.43-.75.69-1.09.66-.87.91-.81 2.01-.36a23 23 0 0 1 2.74 1.99v-26.32l30.86-10.32-15.59-.16-31.46 9.9-.39.13" class="cls-4"/><path d="M125.57 111.64c.01-.55-16.61-1.3-37.12-1.67s-37.14-.22-37.15.33 16.61 1.3 37.12 1.67 37.14.22 37.15-.33m-2.74.91s-.78.15-2.18.56l-6.02 1.82-9.23 2.89-11.74 3.74-21.55-.8c-14.42-.51-27.48-.91-36.93-1.16l-11.2-.24-3.05-.01q-1.05 0-1.06.06c-.01.06.36.08 1.06.14l3.04.2 11.19.55c9.45.42 22.5.94 36.92 1.45l21.72.72 11.85-3.93 9.17-3.09 5.94-2.07c1.37-.49 2.1-.78 2.09-.83Zm-18.55-3.51c.14 0 .13-2.04.07-5.33l-.26-12.82-.13-12.83c-.03-3.28-.08-5.32-.23-5.32-.13 0-.33 2.02-.48 5.31s-.24 7.83-.16 12.85.3 9.56.55 12.84.51 5.3.64 5.29Z" class="cls-7"/><path d="M93.46 186.5c.28 0 .56-14.44.63-32.25s-.1-32.25-.37-32.25c-.28 0-.56 14.44-.63 32.25s.1 32.25.37 32.25" class="cls-7"/></g></g></svg>