<?xml version="1.0" encoding="UTF-8"?><svg xmlns="http://www.w3.org/2000/svg" viewBox="0 0 200 200"><defs><style>.cls-1{fill:none;}.cls-2{fill:#ce9352;}.cls-3{fill:#c0d9dd;}.cls-4{fill:#fec00f;}.cls-5{fill:#575655;}.cls-6{fill:#f47721;}.cls-7{fill:#fff;}.cls-8{fill:#ffcf4e;}.cls-9{fill:#e4b241;}.cls-10{fill:#b88c3b;}.cls-11{fill:#f8ee92;}.cls-12{fill:#f05f2b;}</style></defs><g id="BG_x5F_Strong"><path class="cls-5" d="M193.16,74.95C148.11-.19,18.98,37.46,3.69,119.26c-1.49,23.56,24.65,40.31,44.76,45.37,15.62,6.79,18.77,33.68,40.49,25.41,45.58-19.68,124.27-53.25,104.22-115.09Z"/></g><g id="Outline"><g id="Layer_7"><path class="cls-3" d="M157.29,151.41c.6-1.6,1.16-3.22,1.7-4.84,0-.01,0-.03,0-.04,1.77-5.01,3.5-10.03,5.19-15.06,1.74-5.16,3.45-10.33,5.14-15.51,1.66-5.12,3.31-10.25,4.93-15.38,1.63-5.13,3.24-10.27,4.84-15.41.81-2.59,1.62-5.19,2.42-7.79.35-1.14.66-2.32.39-3.51-.25-1.08-1.06-1.9-1.98-2.46-.5-.3-1.04-.52-1.59-.71-2.38-.79-4.76-1.57-7.14-2.36-1.12-.37-2.23-.74-3.35-1.11-3.03-1-6.05-2-9.08-3-4.43-1.46-8.85-2.93-13.28-4.39-5.37-1.77-10.74-3.55-16.11-5.32-5.81-1.92-11.61-3.84-17.42-5.76-5.74-1.89-11.47-3.79-17.21-5.69-5.2-1.72-10.4-3.44-15.6-5.15-4.19-1.38-8.38-2.77-12.57-4.15l-8.01-2.65c-2.26-.75-5.09-1.97-7.05.03-.92.94-1.29,2.26-1.72,3.47-.43,1.2-.86,2.41-1.26,3.62,0,.02,0,.04-.01.05-1.76,5-3.49,10.02-5.19,15.05-1.74,5.16-3.45,10.33-5.14,15.51-1.66,5.12-3.31,10.25-4.93,15.38-1.63,5.13-3.24,10.27-4.84,15.41-.81,2.59-1.62,5.19-2.42,7.79-.35,1.14-.66,2.32-.39,3.51.25,1.08,1.06,1.9,1.98,2.46.5.3,1.04.52,1.59.71,8.13,2.69,16.27,5.37,24.4,8.06,6.66,2.2,13.31,4.39,19.97,6.59,6.12,2.02,12.25,4.04,18.37,6.06,6.54,2.16,13.08,4.32,19.62,6.47,7.9,2.61,15.8,5.22,23.69,7.82,1.13.37,2.26.75,3.39,1.12,2.35.78,4.71,1.57,7.06,2.35,1.43.48,2.86.95,4.29,1.43,1.19.39,2.4.83,3.67.71.79-.08,1.51-.36,2.12-.88.74-.63,1.17-1.56,1.5-2.45h0Z"/></g><g id="Layer_10"><path class="cls-10" d="M151.11,165.1c.21-1.69.37-3.4.51-5.1,0-.02,0-.03,0-.04.53-5.28,1.03-10.57,1.49-15.86.48-5.43.92-10.86,1.33-16.29.41-5.37.8-10.74,1.16-16.11.37-5.37.72-10.75,1.06-16.12.17-2.71.35-5.42.52-8.14.07-1.19.1-2.41-.45-3.5-.5-.99-1.48-1.6-2.5-1.92-.56-.18-1.14-.26-1.71-.32-2.5-.2-4.99-.4-7.49-.61-1.17-.09-2.35-.19-3.52-.29-3.18-.26-6.35-.51-9.53-.77-4.65-.38-9.3-.75-13.94-1.13-5.64-.46-11.27-.91-16.91-1.37-6.1-.49-12.19-.99-18.29-1.48-6.02-.49-12.05-.98-18.07-1.46-5.46-.44-10.92-.89-16.38-1.33-4.4-.36-8.79-.71-13.19-1.07l-8.41-.68c-2.37-.19-5.41-.72-6.85,1.7-.68,1.13-.72,2.5-.86,3.78-.13,1.27-.27,2.54-.37,3.81,0,.02,0,.04,0,.06-.53,5.28-1.03,10.56-1.49,15.85-.48,5.43-.92,10.86-1.33,16.29-.41,5.37-.8,10.74-1.16,16.11-.37,5.37-.72,10.75-1.06,16.12-.17,2.71-.35,5.42-.52,8.14-.07,1.19-.1,2.41.45,3.5.5.99,1.48,1.6,2.5,1.92.56.18,1.14.26,1.71.32,8.54.69,17.08,1.38,25.62,2.07,6.99.56,13.97,1.13,20.96,1.69,6.43.52,12.86,1.04,19.28,1.56,6.86.55,13.73,1.11,20.59,1.66,8.29.67,16.58,1.34,24.87,2.01,1.19.1,2.37.19,3.56.29,2.47.2,4.95.41,7.42.62,1.5.12,3.01.25,4.51.37,1.25.1,2.53.25,3.74-.18.75-.27,1.39-.71,1.86-1.36.57-.79.77-1.79.88-2.74h0Z"/><path class="cls-10" d="M20.99,74.82c.09-1.57,1.06-2.99,2.59-3.47,1.36-.44,2.59.27,3.94.04.95-.16.55-1.61-.4-1.45-.95.16-1.96-.36-2.94-.25-.84.1-1.65.38-2.36.85-1.45.97-2.23,2.58-2.33,4.29-.06.97,1.45.95,1.5-.02h0Z"/><path class="cls-10" d="M145.35,169.33c1.68.39,3.56.4,5.03-.61,1.65-1.13,2.2-2.81,2.45-4.72.13-.95-1.33-1.34-1.45-.38-.2,1.47-.48,2.88-1.75,3.8-1.12.81-2.61.75-3.89.46-.94-.22-1.33,1.24-.38,1.45h0Z"/></g><g id="Layer_7-2"><path class="cls-4" d="M152.98,163.46c.21-1.69.37-3.4.51-5.1,0-.02,0-.03,0-.04.53-5.28,1.03-10.57,1.49-15.86.48-5.43.92-10.86,1.33-16.29.41-5.37.8-10.74,1.16-16.11.37-5.37.72-10.75,1.06-16.12.17-2.71.35-5.42.52-8.14.07-1.19.1-2.41-.45-3.5-.5-.99-1.48-1.6-2.5-1.92-.56-.18-1.14-.26-1.71-.32-2.5-.2-4.99-.4-7.49-.61-1.17-.09-2.35-.19-3.52-.29-3.18-.26-6.35-.51-9.53-.77-4.65-.38-9.3-.75-13.94-1.13-5.64-.46-11.27-.91-16.91-1.37-6.1-.49-12.19-.99-18.29-1.48-6.02-.49-12.05-.98-18.07-1.46-5.46-.44-10.92-.89-16.38-1.33-4.4-.36-8.79-.71-13.19-1.07l-8.41-.68c-2.37-.19-5.41-.72-6.85,1.7-.68,1.13-.72,2.5-.86,3.78-.13,1.27-.27,2.54-.37,3.81,0,.02,0,.04,0,.06-.53,5.28-1.03,10.56-1.49,15.85-.48,5.43-.92,10.86-1.33,16.29-.41,5.37-.8,10.74-1.16,16.11-.37,5.37-.72,10.75-1.06,16.12-.17,2.71-.35,5.42-.52,8.14-.07,1.19-.1,2.41.45,3.5.5.99,1.48,1.6,2.5,1.92.56.18,1.14.26,1.71.32,8.54.69,17.08,1.38,25.62,2.07,6.99.56,13.97,1.13,20.96,1.69,6.43.52,12.86,1.04,19.28,1.56,6.86.55,13.73,1.11,20.59,1.66,8.29.67,16.58,1.34,24.87,2.01,1.19.1,2.37.19,3.56.29,2.47.2,4.95.41,7.42.62,1.5.12,3.01.25,4.51.37,1.25.1,2.53.25,3.74-.18.75-.27,1.39-.71,1.86-1.36.57-.79.77-1.79.88-2.74h0Z"/></g><g id="Layer_16"><path class="cls-1" d="M20.59,79.16c.11-1.27.24-2.54.37-3.81.13-1.28.18-2.65.86-3.78,1.44-2.41,4.48-1.89,6.85-1.7l8.41.68c4.4.36,8.79.71,13.19,1.07,5.46.44,10.92.89,16.38,1.33,1.86.15,3.73.3,5.59.45.24-.15.44-.29.54-.33.26-.09-40.76-5.97-45.43-5.46-4.67.51-5.73-2-7.04,2.96-1.31,4.96-1.1,23.27-1.2,24.5.46-5.28.96-10.57,1.49-15.85,0-.02,0-.04,0-.06h0Z"/><path class="cls-9" d="M54.04,74.34s0,0,0,0h0Z"/><path class="cls-9" d="M54.01,74.34h.03s-.03,0-.03,0Z"/><path class="cls-9" d="M53.83,74.33h.15s-.09,0-.15,0Z"/><path class="cls-9" d="M53.98,74.34h.03s-.03,0-.03,0Z"/><path class="cls-1" d="M154.39,80.06c.58.06,1.16.14,1.71.32,1.03.32,2,.93,2.5,1.92.55,1.09.53,2.32.45,3.5-.09,1.38-.17,2.76-.26,4.15.19.13.35.23.43.27.24.13.41-1.81.57-3.39.16-1.57,2.04-4.54.13-6-1.91-1.46-9.48-2.09-9.48-2.09.24.25.52.66.77,1.06,1.06.09,2.12.17,3.18.26h0Z"/></g><g id="Layer_11"><path class="cls-11" d="M53.01,113.89c.07-1.03.12-2.06.21-3.09.13-2.02.41-4.04.5-6.06.04-.96-.03-1.92-.43-2.8-.33-.73-.97-1.32-1.68-1.67-1.06-.53-2.22-.64-3.38-.74-.74-.06-1.48-.13-2.23-.19-1.46-.12-2.91-.24-4.37-.36-.89-.07-1.79-.15-2.68-.22-.63-.05-1.26-.11-1.9-.07-.79.05-1.59.21-2.28.62-.78.46-1.29,1.16-1.6,1.99-.35.92-.42,1.93-.5,2.9-.07.85-.12,1.71-.18,2.56-.03.48-.06.95-.1,1.43-.13,1.98-.39,3.95-.49,5.93-.05.9-.02,1.84.32,2.68.32.79.88,1.43,1.62,1.85.85.48,1.81.66,2.76.76,3.17.26,6.35.5,9.52.78.96.08,1.93.21,2.89.08.83-.11,1.61-.36,2.28-.89.72-.57,1.14-1.42,1.35-2.29.25-1.04.31-2.13.38-3.19h0Z"/></g><path class="cls-6" d="M39.01,131.05c-.49-.44-2.37.84-4.2,2.86-.91,1.03-1.65,1.96-2.11,2.91-.22.47-.31.91-.29,1.23.02.32.14.5.29.55.33.08.71-.29,1.35-.77.63-.47,1.62-1.31,2.52-2.32,1.83-2.02,2.92-4.02,2.43-4.46Z"/><path class="cls-6" d="M38.08,138.13c.3-.13.39-.68.24-1.48-.16-.79-.58-1.82-1.28-2.81-.7-.99-1.52-1.74-2.21-2.16-.69-.42-1.25-.52-1.47-.28-.44.5.51,2.06,1.73,3.81,1.23,1.74,2.38,3.16,3,2.92Z"/><path class="cls-6" d="M51.97,132.81c-.47-.46-2.11.43-3.67,2-1.56,1.57-2.44,3.22-1.98,3.68.47.46,2.11-.43,3.67-2,1.56-1.57,2.44-3.22,1.98-3.68Z"/><path class="cls-6" d="M51.53,139.28c.31-.07.5-.63.4-1.51-.1-.86-.52-2.02-1.33-3.07-.81-1.05-1.82-1.76-2.64-2.07-.82-.32-1.41-.27-1.56.01-.16.3.12.77.57,1.36.46.57,1.06,1.32,1.73,2.16.64.86,1.21,1.64,1.65,2.22.46.59.84.98,1.17.9Z"/><path class="cls-6" d="M69.93,134.24c-.47-.46-2.14.5-3.71,2.13-1.58,1.63-2.47,3.33-1.99,3.79.47.46,2.14-.5,3.71-2.13s2.47-3.33,1.99-3.79Z"/><path class="cls-6" d="M69.41,140.97c.53-.4-.2-2.25-1.63-4.13-1.42-1.89-3-3.09-3.53-2.7-.53.4.2,2.25,1.63,4.13,1.42,1.89,3,3.09,3.53,2.7Z"/><path class="cls-6" d="M81.55,134.89c-.44-.48-2.22.44-3.75,2.25-1.54,1.8-2.16,3.7-1.62,4.06.55.37,2-.83,3.44-2.51,1.43-1.69,2.39-3.31,1.93-3.79Z"/><path class="cls-6" d="M81.29,142.12c.57-.31.06-2.36-1.39-4.41-1.44-2.05-3.19-3.23-3.68-2.79-.5.44.37,2.23,1.73,4.16,1.36,1.93,2.76,3.35,3.34,3.03Z"/><path class="cls-6" d="M99.92,137.03c-.4-.52-2.37.33-4.19,2.15-1.82,1.81-2.67,3.79-2.15,4.18.53.41,2.14-.8,3.84-2.49,1.69-1.7,2.91-3.31,2.5-3.84Z"/><path class="cls-6" d="M99.04,143.9c.3-.12.42-.67.28-1.49-.14-.81-.57-1.87-1.28-2.89-.72-1.01-1.57-1.77-2.29-2.18-.72-.41-1.28-.49-1.5-.24-.42.52.61,2.04,1.83,3.8,1.24,1.74,2.32,3.22,2.96,3Z"/><path class="cls-6" d="M111.95,137.97c-.48-.45-2.18.57-3.79,2.28-1.62,1.71-2.54,3.47-2.06,3.92s2.18-.57,3.79-2.28c1.62-1.71,2.54-3.47,2.06-3.92Z"/><path class="cls-6" d="M111.34,145.63c.58-.31.12-2.29-1.03-4.41-1.15-2.12-2.55-3.59-3.13-3.28-.58.31-.12,2.29,1.03,4.41,1.15,2.12,2.55,3.59,3.13,3.28Z"/><path class="cls-8" d="M73.26,73.48c-2.2-.18-4.41-.36-6.61-.54-5.46-.44-10.92-.89-16.38-1.33-4.4-.36-8.79-.71-13.19-1.07l-8.41-.68c-2.37-.19-5.41-.72-6.85,1.7-.68,1.13-.72,2.5-.86,3.78-.13,1.27-.27,2.54-.37,3.81,0,.02,0,.04,0,.06-.53,5.28-1.03,10.56-1.49,15.85-.43,4.85-.82,9.7-1.19,14.56,10.99-17.97,32.21-28.94,55.35-36.14Z"/><path class="cls-2" d="M144.66,95.05c.07-.66-4.26-1.66-9.68-2.24-5.42-.58-9.87-.52-9.94.14-.07.66,4.26,1.66,9.68,2.24,5.42.58,9.87.52,9.94-.14Z"/><path class="cls-7" d="M62.27,88.2c.14.01.41-.62.06-1.75-.18-.55-.53-1.21-1.19-1.79-.66-.58-1.63-1.01-2.76-1.04-.56-.01-1.16.07-1.75.3-.6.23-1.14.6-1.62,1.03-.94.87-1.58,1.94-2.28,2.81-.33.42-.69.76-1.11,1.05-.41.28-.87.47-1.23.49-.35.02-.64-.09-.88-.34-.24-.25-.45-.72-.55-1.27-.23-1.05.05-2.53-.36-4.16-.21-.81-.68-1.63-1.28-2.2-.6-.58-1.32-.97-2.02-1.2-1.42-.46-2.81-.4-4.03-.06-1.25.37-2.19,1.05-2.93,1.71-1.48,1.38-2.23,2.74-2.72,3.67-.48.94-.65,1.51-.51,1.6.14.09.58-.31,1.28-1.07.7-.75,1.65-1.89,3.02-2.89.69-.48,1.5-.93,2.36-1.1.88-.18,1.9-.14,2.8.21.91.35,1.57,1,1.78,1.92.12.48.14,1.06.14,1.73,0,.34,0,.69.01,1.07.01.38.05.81.13,1.22.16.83.47,1.71,1.18,2.46.69.76,1.82,1.14,2.79,1.03.97-.09,1.73-.51,2.36-.96.62-.46,1.15-1.02,1.54-1.58.76-1.08,1.28-2.06,1.9-2.72.61-.66,1.28-.98,2.02-1.05.73-.07,1.41.11,1.92.42.52.31.89.73,1.15,1.11.51.77.6,1.36.78,1.35Z"/><path class="cls-9" d="M53.28,113.3c0-.16-.76-.33-1.99-.46-.62-.07-1.35-.12-2.17-.17-.2-.01-.41-.02-.63-.03-.11,0-.2-.01-.34-.01-.13,0-.27,0-.41.02-.55.06-1.1.3-1.54.68-.45.38-.77.88-.92,1.41-.08.25-.12.56-.13.77-.01.21-.02.42-.04.63-.04.82-.06,1.55-.06,2.17,0,1.24.08,2.01.24,2.03s.38-.73.6-1.95c.11-.61.22-1.34.32-2.15.02-.2.05-.41.08-.62.02-.22.05-.34.11-.52.11-.32.31-.62.58-.85.27-.23.6-.38.93-.43.16-.03.33-.03.56-.03.21,0,.42,0,.63,0,.82-.01,1.55-.04,2.17-.09,1.24-.08,2-.22,2.01-.38Z"/><path class="cls-9" d="M46.84,99.86c-.16,0-.33.76-.46,1.99-.07.62-.12,1.35-.17,2.17-.01.2-.02.41-.03.63,0,.11-.01.2-.01.34,0,.13,0,.27.02.41.06.55.3,1.1.68,1.54.38.45.88.77,1.41.92.25.08.56.12.77.13.21.01.42.02.63.04.82.04,1.55.06,2.17.06,1.24,0,2.01-.08,2.03-.24.01-.16-.73-.38-1.95-.6-.61-.11-1.34-.22-2.15-.32-.2-.02-.41-.05-.62-.08-.22-.02-.34-.05-.52-.11-.32-.11-.62-.31-.85-.58-.23-.27-.38-.6-.43-.93-.03-.16-.03-.33-.03-.56,0-.21,0-.42,0-.63-.01-.82-.04-1.55-.09-2.17-.08-1.24-.22-2-.38-2.01Z"/><path class="cls-9" d="M32.81,106.46c0,.16.76.33,1.99.46.62.07,1.35.12,2.17.17.2.01.41.02.63.03.11,0,.2.01.34.01.13,0,.27,0,.41-.02.55-.06,1.1-.3,1.54-.68.45-.38.77-.88.92-1.41.08-.25.12-.56.13-.77.01-.21.02-.42.04-.63.04-.82.06-1.55.06-2.17,0-1.24-.08-2.01-.24-2.03s-.38.73-.6,1.95c-.11.61-.22,1.34-.32,2.15-.02.2-.05.41-.08.62-.02.22-.05.34-.11.52-.11.32-.31.62-.58.85-.27.23-.6.38-.93.43-.16.03-.33.03-.56.03-.21,0-.42,0-.63,0-.82.01-1.55.04-2.17.09-1.24.08-2,.22-2.01.38Z"/><path class="cls-9" d="M38.86,119.57c.16,0,.33-.76.46-1.99.07-.62.12-1.35.17-2.17.01-.2.02-.41.03-.63,0-.11.01-.2.01-.34,0-.13,0-.27-.02-.41-.06-.55-.3-1.1-.68-1.54-.38-.45-.88-.77-1.41-.92-.25-.08-.56-.12-.77-.13-.21-.01-.42-.02-.63-.04-.82-.04-1.55-.06-2.17-.06-1.24,0-2.01.08-2.03.24-.01.16.73.38,1.95.6.61.11,1.34.22,2.15.32.2.02.41.05.62.08.22.02.34.05.52.11.32.11.62.31.85.58.23.27.38.6.43.93.03.16.03.33.03.56,0,.21,0,.42,0,.63.01.82.04,1.55.09,2.17.08,1.24.22,2,.38,2.01Z"/><g id="Sign"><path class="cls-12" d="M186.42,56.36c-.15-.56-.37-1.1-.61-1.63,0,0,0-.01,0-.02-2.9-5.86-6.2-11.53-9.67-17.07-3.48-5.54-7.2-11.06-10.98-16.47-.91-1.31-1.83-2.62-2.76-3.91-.8-1.12-1.75-2.28-3.04-2.84-1.41-.62-2.85-.3-4.01.67-1.13.95-1.88,2.34-2.68,3.56-3.61,5.49-7.29,10.92-10.93,16.38-3.77,5.66-7.5,11.35-11.07,17.14-.45.73-.9,1.47-1.35,2.2h0c-1.03,1.76-1.95,4.05-1.16,6.07.37.95,1.08,1.71,2.01,2.15s1.91.59,2.9.67c2.37.2,4.77.24,7.15.31,2.38.07,4.88.11,7.32.12,4.92.01,9.83-.11,14.74-.38,4.93-.28,9.85-.7,14.75-1.29,1.27-.15,2.54-.32,3.8-.49,1.11-.15,2.3-.21,3.37-.59.92-.33,1.79-.9,2.18-1.83.37-.87.29-1.85.06-2.74Z"/><path class="cls-7" d="M153.71,29.79c.99-.35,2.5-.63,3.84-.63s2.85.28,3.84.63l-2.39,16.93h-2.89l-2.39-16.93ZM154.35,52.37c0-1.51,1.13-3.17,3.2-3.17s3.2,1.65,3.2,3.17-1.13,3.17-3.2,3.17-3.2-1.65-3.2-3.17Z"/></g></g></svg>