<svg xmlns="http://www.w3.org/2000/svg" viewBox="0 0 200 200"><defs><style>.cls-1{fill:#f96800}.cls-2{fill:#f2a6b0}.cls-5{fill:#fff}.cls-7{fill:#ff8000}.cls-8{fill:#b7957e}.cls-9{fill:#bbdbdf}.cls-12{fill:#5b3d5b}.cls-14{fill:#78577a}</style></defs><path id="BG_Strong" d="M8.88 99.66c38.21 25.3 153.57 9.37 188.85-20.67-2.6-30.51-36.29-60.62-66.16-40.44-22-36.52-72.31-29.85-93.23 6.88C20.28 57.11-9.67 68.49 8.88 99.66Z" style="fill:#575655"/><g id="Illustrations"><g id="Layer_6"><path d="M127.09 145.34s-1.56-8.2-1.63-8.6-1-5.33-1-5.33l5.07-.82 3.21-.84s1.45-2.46 2.32-3.44 3.76-4.2 4.25-4.74c.49-.53 1.31-1.51 2.08-1.84s4.67-1.98 5.26-2.3 3.17-1.85 3.86-1.72 3.51.53 4.39.47 1.72-.27 1.7.35c-.01.62-.18 1.55-.78 2.01-.6.46-1.42.59-2.28 1.04-.86.45-.46.49-1.53.6s-1.59 0-1.59 0-1.1 2.54-1.52 2.92-1.37 1.37-1.37 1.37 2.12-.49 3.1-.5 3.66.17 4.5 0 4.92-1.13 6.03-1.57 2.92-1.07 3.5-1.32 3.11-1.16 3.59-1.06.98.22.92.79-.51 1.28-.51 1.28 1.22 0 1.15.49-.15.53-1.1 1.59c-.95 1.07-3.66 3.68-4.76 4.93-1.1 1.25-3.58 4.4-3.58 4.4s-3.1 2.18-4.27 2.85-2.72 1.56-4.28 2.11-6.68 2.05-8.55 2.58c-1.87.52-6.03 1.13-7.57 1.6-1.54.47-8.61 2.69-8.61 2.69ZM101.76 82.04l1.33-6.72s5.16 1.34 5.96 1.57c.8.24 3.4-.1 3.97-.74.58-.64 2.11-2.83 2.51-3.89s1.74-4.21 1.74-4.21.37.21 1.12.1 2.23-.12 2.55-.71.34-1.88.43-3.27-.66-7.85-.58-8.06 1.56-4.17 2-5.8c.44-1.63.56-5.44.13-7.14-.43-1.7-3.54-8.8-3.77-8.96s-13.75-13.46-25.51-2.06c-2.36 2.29-4.34 4.94-5.49 9.2-1.15 4.26-2.53 13.19-3.43 16.99-.9 3.81-2.04 13.25-2.04 13.25s7.95 1.2 8.87 1.34c.51.08 2.13.99 2.13.99l-.62 7.26 8.67.88Z" class="cls-8"/></g><path id="Mouth" d="M116.39 69.65c-1.77-.38-3.31-1.36-4.35-2.85-.45-.64-1.51-.03-1.05.62 1.23 1.75 2.99 2.96 5.08 3.41.76.16 1.09-1.01.33-1.18Z" style="fill:#877166"/><g id="Layer_10"><path d="M121.46 128.06h.01-.01z" class="cls-5"/><path d="M121.63 125.41c-.17-.67-2.33-8.92-3.26-12.17-.93-3.26-3.26-9.75-5.42-14.88-2.16-5.12-6.92-11.63-7.68-12.6-.56-.72-2-2.25-2.71-3.01.32-.33.18-1.05-.42-1.05-2.89-.02-5.79-.18-8.65-.65-.33-.05-.66.09-.75.43-.07.26.07.62.34.72-.13 1.36-.44 4.73-.56 5.23-.15.63 1.87 2.04 2.08 2.27s6.72 7.56 8.76 9.81c2.03 2.25 6.5 8.97 9.11 12.71 2.6 3.73 8.98 15.81 9 15.85l.93.25s-.6-2.24-.77-2.9Z" class="cls-9"/><path d="M64.65 101.35c-.07-.86-.13-1.72-.2-2.59-.03-.32-.26-.63-.61-.61-.31.01-.64.27-.61.61.07.86.14 1.72.2 2.59.02.32.26.63.61.61.31-.01.64-.27.61-.61Z" style="fill:#cc5e05"/><path d="M53.44 79.91c1.86 0 3.72.11 5.56.38.33.05.65-.08.75-.43.08-.29-.1-.7-.43-.75a39.94 39.94 0 0 0-5.89-.42c-.78 0-.79 1.22 0 1.22Z" class="cls-7"/><path d="M58.91 79.65c-.65 3.98-.87 8.02-.62 12.05.02.33.27.61.61.61.32 0 .63-.28.61-.61-.24-3.91-.05-7.85.58-11.73.05-.33-.09-.66-.43-.75-.29-.08-.7.1-.75.43ZM11.46 114.38c.42.78 1.51.88 2.2.42.8-.53.98-1.54 1.16-2.41.44-2.09.79-4.19 1.06-6.31.04-.33-.31-.61-.61-.61-.36 0-.57.28-.61.61-.23 1.74-.51 3.48-.86 5.2-.09.43-.17.87-.27 1.3-.07.3-.14.62-.28.89.01-.02-.1.16-.08.13-.02.03-.2.2-.13.15-.13.1-.12.08-.25.11-.07.01-.08.02-.02 0h-.09.01c-.04 0-.08-.02-.11-.03.1.03-.04-.02-.06-.04.04.02.02 0 0-.04-.38-.69-1.43-.08-1.05.62ZM25.43 99.14c4.81-.98 9.7-1.61 14.6-1.87 4.91-.26 9.95-.13 14.91.2 2.81.18 5.62.42 8.43.67.33.03.61-.3.61-.61 0-.35-.28-.58-.61-.61-5.01-.44-10.02-.85-15.05-.97-4.98-.12-9.95.09-14.89.68-2.79.34-5.57.78-8.33 1.34-.32.07-.51.45-.43.75.09.34.43.49.75.43ZM31.92 103.68c6.42-.97 12.95-1.21 19.43-.73 1.79.13 3.58.32 5.36.57.33.04.65-.08.75-.43.08-.28-.1-.71-.43-.75-6.58-.91-13.24-1.1-19.86-.51-1.87.16-3.73.39-5.58.67-.33.05-.51.46-.43.75.1.35.42.48.75.43Z" class="cls-7"/><path d="M181.9 114.18c0-.08-.03-.16-.09-.23l-1.57-2.14a.552.552 0 0 0-.39-.31c-3.15-.77-6.48-1.13-9.72-.82-.11 0-.22.02-.31.08-4.67 3.26-9.23 6.67-13.91 9.93-1.35.94-2.7 1.86-4.07 2.76-.27.18-.39.54-.22.83.16.27.56.4.83.22.23-.15.46-.31.7-.47.42.07.87.12 1.11.1.52-.04 4.18-.95 4.96-1.16s5.09-1.52 5.09-1.52 1.61-.85 2.15-1.04 1.76-.4 2.39-.21-.21 1.87-.21 1.87.6 0 .88.07c.01 0 .02 0 .03.01-.3.47.23 1.22.82.86a118.652 118.652 0 0 0 11.5-8.01c.25-.2.21-.62.02-.84Z" style="fill:#f6c243"/><path d="M75.57 85.87c-.87.86-1.68 1.78-2.54 2.65-.22.23-.24.64 0 .86s.62.24.86 0c.86-.87 1.67-1.79 2.54-2.65.23-.23.24-.64 0-.86s-.62-.24-.86 0ZM84.08 163.53c-3.72-1.93-6.71-4.96-9.11-8.35-2.61-3.67-4.7-7.75-6.46-11.89a75.67 75.67 0 0 1-4.26-13.48 73.84 73.84 0 0 1-1.66-13.98c-.1-4.47.26-9.01 1.68-13.28 1.29-3.89 3.54-7.79 7.14-9.96 1.66-1 3.57-1.54 5.51-1.33 1.72.19 3.34 1 4.66 2.09 3.05 2.5 4.9 6.15 6.53 9.66 2.01 4.32 3.79 8.75 5.29 13.28 1.5 4.51 2.73 9.12 3.69 13.78.24 1.17.46 2.35.67 3.53.06.33.46.51.75.43.34-.09.48-.42.43-.75-.85-4.85-1.98-9.65-3.41-14.35-1.43-4.68-3.15-9.27-5.11-13.75-1.71-3.9-3.47-7.95-6.37-11.14-1.27-1.41-2.79-2.61-4.55-3.34-1.76-.73-3.89-.89-5.81-.4-4.15 1.07-7.23 4.62-9.1 8.31-2.09 4.13-2.95 8.75-3.17 13.34-.23 4.77.16 9.59.92 14.31.76 4.71 2.03 9.56 3.72 14.14 1.69 4.58 3.68 8.8 6.17 12.84 2.27 3.69 5.03 7.16 8.57 9.71.85.61 1.74 1.16 2.68 1.64.7.36 1.31-.69.62-1.05Z" class="cls-7"/><path d="M114.49 54.32c.78 0 .79-1.22 0-1.22s-.79 1.22 0 1.22ZM98.95 49.72c-.35-1.48-1.27-2.93-2.83-3.33-1.56-.4-2.95.51-3.57 1.89-.35.78-.48 1.62-.52 2.47s-.03 1.67.07 2.49c.2 1.52.76 3.07 1.96 4.1.69.59 1.58 1.04 2.51.86s1.52-1 1.56-1.89c.01-.33-.29-.61-.61-.61-.34 0-.6.28-.61.61-.02.37-.32.7-.75.71-.52.01-1.03-.34-1.39-.68-.87-.82-1.3-1.97-1.46-3.13-.1-.66-.1-1.34-.09-2.01s.05-1.29.23-1.91c.28-.97 1.01-1.87 2.06-1.78 1.27.11 1.97 1.4 2.24 2.53.18.76 1.36.44 1.18-.33Z" class="cls-12"/><path d="M128.21 170.84c-.28-3.98-.56-7.97-.87-11.95-.15-1.85-.3-3.71-.47-5.56v-.03c.14-.08.28-.16.42-.25.38-.23.77-.47 1.15-.7.01 0 .02-.02.03-.03.02-.01.04-.03.05-.04l.05-.05s.01-.02.02-.02c.07-.09.11-.19.12-.3v-.24c-.99-6.08-2.07-12.15-3.09-18.23-.29-1.69-.57-3.37-.84-5.06 0-.04 0-.08-.02-.12 0-.02-.01-.03-.02-.05a.463.463 0 0 0-.17-.24.62.62 0 0 0-.32-.14h-.24c-.37.07-.73.13-1.1.19-.56-2.4-1.18-4.79-1.82-7.17-.63-2.37-1.29-4.72-1.99-7.07-1.42-4.74-3.02-9.42-4.95-13.98a82.08 82.08 0 0 0-3.5-7.26.508.508 0 0 0-.42-.29c.11-1.39.35-4.41.37-4.62.02-.27.57-7.27.57-7.27s-1.8-.93-2.66-1.35c-.11-.06-.29-.14-.51-.23.12-.26.05-.66-.24-.79-1.39-.62-2.8-1.22-4.22-1.77-.3-.11-.68.13-.75.43-.08.35.11.63.43.75s.02 0 .03 0l-1.03 4.68c-.3.19-.47.62-.15.95 1.55 1.6 2.93 3.36 4.3 5.1.18.23.55.22.78.07 1.11 1.6 2.34 3.58 2.69 4.14-.25.16-.41.48-.23.81 2.3 4.19 4.17 8.6 5.78 13.1 1.66 4.64 3.06 9.37 4.33 14.12.52 1.91 1.02 3.83 1.5 5.76a145.66 145.66 0 0 0-3.61-6.75c-1.63-2.86-3.37-5.66-5.19-8.4a156 156 0 0 0-5.72-8.04c-1.99-2.62-4.06-5.19-6.19-7.7-2.1-2.46-4.28-4.87-6.52-7.21-.27-.28-.54-.57-.82-.85.31-3.49.63-6.98.95-10.47l.26-2.9c0-.1-.02-.18-.06-.27a.522.522 0 0 0-.39-.32c-5.02-1.24-10.14-2.01-15.28-2.4-1.43-.11-2.87-.19-4.3-.24-.33-.01-.61.29-.61.61 0 .1.03.2.07.28.38 3.81.84 7.62 1.39 11.41.16 1.08.32 2.16.49 3.23.02.13.09.23.19.31-1.07 1.05-3.03 3.08-4.98 5.29-.19-.08-.42-.05-.61.14-1.92 1.98-3.68 4.09-5.16 6.41a33.095 33.095 0 0 0-3.4 7.13c-1.7 5.02-2.25 10.38-2.17 15.66.08 5.42.82 10.81 1.76 16.14.95 5.33 1.96 11 2.99 16.49 1.03 5.49 2.16 11.28 3.29 16.91.15.73.29 1.45.44 2.18-.61 3.49-1.13 6.99-1.57 10.51-.13 1.03-.25 2.07-.37 3.11-.04.33.31.61.61.61h.01c.07.03.15.05.24.06 7.98 1.02 16 1.64 24.04 1.85 8.04.21 16 .02 23.97-.56 4.52-.33 9.02-.79 13.51-1.38.32-.04.59-.24.61-.58.1-.11.17-.25.16-.41-.34-5.06-.68-10.11-1.03-15.17Zm-67.46-50.4c-.01-2.05.08-4.1.3-6.14-.18 2.08-.26 4.29-.3 6.14ZM24.22 174.86l.01.01v-.01h-.01z" class="cls-7"/><path d="M95.46 118.72c-.63-3.51-1.35-7.01-2.25-10.46-.9-3.45-2.06-6.97-3.64-10.23-1.59-3.26-3.75-6.23-6.84-8.13-1.49-.91-3.15-1.5-4.89-1.71-1.83-.21-3.72.04-5.47.62-.05.02-.09.03-.14.05h-.07c-2.11-.11-4.23-.1-6.35-.11h-.85c0-1.28-.01-2.57-.08-3.85-.1-1.75-.28-3.49-.51-5.22-.03-.25-.16-.47-.38-.56a.79.79 0 0 0-.4-.16c-3.43-.36-6.9-.31-10.35-.2-.1 0-.18.03-.26.06-.15.06-.28.18-.33.39a40.41 40.41 0 0 0-1.43 9.91v.95c-2.75.31-5.5.64-8.25 1.02-3.38.47-6.76.98-10.05 1.89-1.4.39-2.77.85-4.11 1.39-1.02.34-1.99.8-2.81 1.45-.84.67-1.29 1.55-1.47 2.58-.13.15-.2.35-.14.56s.03.09.04.13v.04c0 .03-.01.09 0 .12v.02c-.01.04-.02.08-.04.13 0 .02-.01.03-.02.05-.02.04-.05.09-.08.13l-.11.11s-.02.01-.03.02c0 0-.07.04-.1.06h-.04c-.05.03-.1.04-.15.05H23.63c-.07-.01-.25-.03-.3-.09.08.03.09.04.03.01-.02-.01-.05-.02-.07-.04-.04-.02-.08-.05-.12-.08 0 0-.01 0-.02-.01-.04-.04-.08-.07-.12-.11a.435.435 0 0 1-.06-.07c-.04-.05-.04-.04.01.02a.353.353 0 0 1-.08-.13c-.03-.04-.05-.09-.07-.14 0-.02-.01-.03-.02-.05-.04-.1-.06-.21-.08-.31v-.43a.4.4 0 0 0 .02-.19c-.05-2.19-2.88-2.3-4.49-2.17-.65.05-1.34.11-1.92.4-2 .71-3.4 2.58-4.07 4.55-.43 1.25-.6 2.58-.71 3.9-.12 1.4-.18 2.82-.24 4.23-.07 1.61-.1 3.23-.11 4.84 0 .59.69.74 1.03.44.16.08.35.12.58.09.72-.09 1.22-.81 1.57-1.69l-.12 4.22c-.16 6.27-.26 12.53-.29 18.8a871.881 871.881 0 0 0 .66 38.74c.03.83.07 1.65.1 2.48.05 1.41.26 3.02 1.8 3.45.45.13.93.13 1.39.09.57-.04 1.13-.1 1.7-.15.57-.05 1.16-.09 1.74-.16.54-.07 1.02-.3 1.28-.8.51-.96.29-2.13.12-3.16v-.3c0-.04.01-.08.01-.12 0 .17 0 .01.01-.04.02-.09.04-.19.07-.28.02-.05.03-.1.05-.15.05-.09.09-.19.15-.28.01-.02.02-.03.03-.05 0 0 .01-.01.01-.02.02-.03.05-.05.05-.06.04-.04.08-.07.11-.11.04-.03.09-.06.13-.08 0 0 .01 0 .03-.01.02 0 .06-.02.07-.03l.12-.03h.24c.07.02.14.04.22.06.04.02.08.04.11.06l-.03-.03c0 .01.02.02.03.03.05.03.03.03 0 0 .02.02.04.03.06.05 0 0 .01.02.02.02.01.02.03.04.03.05 0 0 .01.02.02.03 0 .03.02.07.03.1.01.06.04.11.07.16v.13c.11 1.35.43 2.7 1.33 3.75.98 1.14 2.57 1.61 4.01 1.81 1.7.25 3.43.25 5.14.29 1.8.04 3.61.05 5.41.04 3.63-.03 7.25-.16 10.86-.36 1.8-.1 3.6-.22 5.4-.36 1.8-.14 3.46-.21 5.17-.47 1.47-.23 2.93-.77 3.81-2.04.79-1.13.85-2.6.88-3.94 0-.34.02-.69.03-1.03v-.02c.09-3.41.1-6.81.1-10.22v-3.36c0-.44-.38-.63-.71-.58-.05-.26-.79-4.04-1.07-5.6-.29-1.61-2.57-15.57-3.14-17.82-.57-2.25-1.58-10.5-1.56-12.71.02-2.21.41-10.82.96-12.53.55-1.71 2.17-6.88 2.74-8.36.57-1.48 3.16-5.54 3.84-6.91.68-1.37 5.77-3.78 7.6-4.34s4.18.42 5.43 1.31c1.25.89 3.91 3.4 5.56 6.12 1.66 2.72 3.21 7.02 3.98 9.03.51 1.32 2.01 4.46 2.97 6.43.31 1.44.59 2.88.86 4.32l.21 1.17c.06.33.45.51.75.43.34-.09.48-.42.43-.75ZM23.07 175.1l.04-.06-.04.06Z" class="cls-7"/><path d="M51.89 92.65c2.29-.11 4.58-.15 6.87-.21.78-.02.79-1.24 0-1.22-2.29.07-4.58.11-6.87.21-.33.02-.61.27-.61.61 0 .32.28.63.61.61Z" class="cls-7"/><path d="M64.28 89.59c-1.72.16-3.44.31-5.16.46-.33.03-.61.26-.61.61 0 .31.28.64.61.61 1.72-.15 3.44-.3 5.16-.46.33-.03.61-.26.61-.61 0-.31-.28-.64-.61-.61Z" class="cls-7"/><path d="M106.38 163.51c-.35-.1-.25-.1-.54-.14l.04.06c-.07.18-.15.37-.23.55l-2.61.54h-.03l-.63.13c-.29-.05-.58-.03-.68.23-1.33 3.23-2.67 5.81-4.28 8.91-.42.81-.86 1.61-1.3 2.41-.08.05-.15.12-.2.2-.17.32-.06.63.22.83l2.5 1.83c.25.27.73.33.97-.08 2.18-3.85 4.19-7.79 5.96-11.85.5-1.14.98-2.3 1.45-3.46.12-.3-.34-.1-.63-.18ZM122.99 155.13l-2.11-10.99c-.03-.17-.16-.3-.31-.38a.49.49 0 0 0-.35-.11c-1.08.14-2.14.37-3.18.7-.29.09-.51.4-.44.7.55 4.14 1.33 8.24 2.34 12.29.19.76 1.37.44 1.18-.33 0-.03-.01-.05-.02-.08l2.14-1.07c.11.03.22.03.32 0 .34-.09.49-.42.43-.75Z" class="cls-14"/><path d="m110.72 92.84 1.11-12.3a.502.502 0 0 0-.09-.32.537.537 0 0 0-.29-.4c-1.22-.65-2.46-1.26-3.71-1.84-.29-.13-.67-.09-.83.22-.07.12-.09.28-.07.42 0 .04-.01.08-.02.12-.15 2.99-.37 5.98-.67 8.96v.04c-.02.13 0 .26.08.37 1.19 1.6 2.31 3.23 3.3 4.96.02.05.05.09.08.13.11.15.25.22.4.23h.09c.27 0 .47-.17.56-.4.02-.06.04-.11.04-.18v-.03Z" style="fill:#f75e28"/><path d="M119.85 156.66c.47-.25.94-.49 1.42-.72.24-.11.47-.22.71-.33.12-.05.24-.11.36-.16.06-.03.12-.05.18-.08.07-.03.07-.03 0 0 .03-.01.07-.03.1-.04.15-.07.28-.13.36-.28.08-.13.11-.32.06-.47-.09-.28-.44-.56-.75-.43-1.05.44-2.08.92-3.08 1.45-.28.15-.39.57-.22.83.19.29.53.38.83.22Z" class="cls-14"/><path d="M152.54 130.61c-.02 0-.04.01-.05.02.01 0 .03 0 .04-.02Z" class="cls-12"/><path d="M170.37 122.31c-.08-.24-.22-.45-.42-.61a.887.887 0 0 0-.25-.14c.03-.09.05-.17.07-.27.09-.54-.04-1.11-.44-1.49-.47-.45-1.11-.42-1.71-.31-1.32.25-2.59.72-3.79 1.32-.08.04-.15.11-.2.18-1.68.38-3.32.91-4.91 1.59-.04.02-.08.04-.11.07l-2.03.42c-.82.17-1.64.38-2.46.49-.78.11-1.51-.19-2.29-.2-.83-.01-1.66.2-2.46.41-.15.04-.29.08-.43.12.16-.19.32-.39.47-.59.59-.77 1.13-1.6 1.48-2.5 1.44-.02 2.89-.35 4.17-.99.71-.36 1.4-.88 1.79-1.59.4-.72.48-1.53.2-2.28v-.04a.508.508 0 0 0-.11-.22c-.13-.18-.37-.24-.59-.21h-.05c-1.82.25-3.72.12-5.5-.33-.08-.02-.16-.02-.24-.02h-.05c-.84 0-1.61.34-2.33.76-.72.41-1.4.82-2.13 1.2a31.2 31.2 0 0 1-4.54 1.92.94.94 0 0 0-.22.12c-.75.36-1.38.94-1.95 1.54-.66.7-1.3 1.43-1.94 2.15-1.27 1.41-2.61 2.79-3.76 4.31-.51.67-.95 1.37-1.32 2.13-1.02.28-2.05.49-3.09.68-1.46.28-2.92.53-4.38.78l-2.48.42c-.33.05-.51.46-.43.75.09.34.42.48.75.43 2.84-.48 5.69-.92 8.51-1.53.42-.09.84-.19 1.26-.3.02 0 .04.02.06.02.35.1.62-.12.75-.43.64-1.52 1.74-2.79 2.83-4 1.27-1.42 2.54-2.83 3.81-4.23.61-.67 1.24-1.32 2.07-1.7.01 0 .02-.02.04-.02a33.307 33.307 0 0 0 6.51-3.02c.61-.36 1.25-.75 1.98-.75h.04c1.78.45 3.64.56 5.46.38.03.39-.13.81-.36 1.13-.37.49-.95.82-1.5 1.06-1.34.58-2.82.78-4.27.65-.33-.03-.61.3-.61.61 0 .25.14.44.35.54-.1.21-.21.41-.34.64-.27.46-.55.88-.87 1.29-.02.02-.07.08-.07.08-.04.05-.08.1-.12.14-.07.09-.14.17-.21.25-.14.16-.27.31-.42.46-.12.13-.25.25-.38.38l-.01.01c-.46-.09-.94-.11-1.4-.05-.17.02-.31.05-.43.18-.11.11-.19.28-.18.43s.06.32.18.43c.11.1.27.2.43.18.16-.02.32-.03.49-.03-.02.09-.02.19 0 .29.08.29.44.55.75.43.76-.3 1.54-.56 2.33-.78s1.54-.44 2.32-.45 1.56.3 2.36.21c.85-.09 1.68-.31 2.51-.48l2.83-.58c.15-.03.27-.13.35-.26 1.53-.62 3.12-1.09 4.74-1.41.2-.04.35-.21.41-.4.76-.35 1.55-.62 2.36-.82.24-.06.47-.11.71-.16.14-.03.32-.06.45-.01.03.01.09.07.06.03.07.1.05.07.07.15.03.11.04.23-.03.39-.14.36-.48.63-.76.88-.39.35-.78.7-1.18 1.03-.78.66-1.57 1.31-2.38 1.93-.87.66-1.76 1.3-2.67 1.92-.02 0-.05 0-.07.01l-7.07 2.38-.06.03c-.18-.02-.37.02-.49.17-.14.17-.29.34-.45.48-.04.04-.08.07-.12.11l-.01.01-.02.01c-.09.07-.19.13-.28.19-.09.06-.19.11-.28.16-.05.02-.09.05-.14.07 0 0 .02 0 .03-.01 0 0-.02 0-.03.01-.03.01-.09.03-.04.02-.21.08-.42.14-.64.19-.31.06-.52.45-.43.75.11.33.41.49.75.43.92-.18 1.79-.69 2.41-1.4.04 0 .09 0 .13-.02l6.75-2.28c.14.03.29.01.42-.07 2.01-1.35 3.95-2.82 5.78-4.4.44-.38.88-.75 1.29-1.16l.03-.03.12.05s.07.01.1.01c-.04.02-.07.05-.1.09-2.1 2.47-4.35 4.79-6.75 6.97-.05.01-.11.03-.16.06-2.28 1.21-4.6 2.34-6.95 3.4-.15 0-.29.06-.42.17l-1.56 1.41c-.24.22-.23.65 0 .86.25.23.61.23.86 0l1.4-1.27c.06-.01.12-.03.18-.05 1.8-.81 3.59-1.67 5.35-2.56-.32.39-.64.77-.98 1.14-.11.03-.22.08-.32.16-2.29 1.84-4.83 3.38-7.5 4.61-.05 0-.09 0-.14.03a81.249 81.249 0 0 1-11.94 3.4c-1.14.23-2.29.44-3.44.62-.02 0-.05.01-.07.02-3.71 1.01-7.36 2.21-11.01 3.41-.31.1-.52.42-.43.75.08.31.44.53.75.43 3.67-1.21 7.34-2.42 11.08-3.43 4.09-.65 8.13-1.61 12.07-2.88.95-.3 1.88-.63 2.81-.97.12 0 .24-.02.36-.07 2.81-1.23 5.44-2.82 7.85-4.7a.6.6 0 0 0 .47-.17c1.07-1.14 2.04-2.37 2.9-3.67.03-.05.06-.11.07-.18 2.15-1.98 4.18-4.08 6.09-6.3.03 0 .06 0 .09-.02.14-.04.3-.14.36-.28.09-.19.18-.39.23-.6.03-.13.05-.26.05-.39 0-.12-.01-.25-.05-.37ZM113.28 74.89s-.02.02-.02.03c0 0 .01-.02.02-.03Z" class="cls-12"/></g><g id="Layer_19"><path d="M81.25 54.51c-.08.04-.11.07-.1.07l.1-.07ZM81.26 49.49zM94.53 28.55c-.05.04-.15.13 0 0ZM99.4 27.11c.16.04.08.02 0 0Z" class="cls-12"/><path d="M130.46 41.23c-.29-2.79-1.38-5.48-3.22-7.61-.84-.97-1.84-1.81-2.96-2.44-.58-.32-1.2-.59-1.83-.79s-1.35-.32-2.02-.5c-.59-.16-1.14-.39-1.52-.88-.29-.37-.53-.96-.77-1.43-.29-.58-.68-1.09-1.22-1.46s-1.18-.5-1.81-.54c-.63-.04-1.26.03-1.89.08-.31.02-.63.04-.94.04-.29 0-.59-.02-.82-.06-.57-.11-1-.37-1.4-.74s-.79-.83-1.23-1.2c-.51-.42-1.08-.75-1.75-.84-.66-.09-1.37.02-2.02.24-.61.21-1.2.48-1.81.7-.67.23-1.28.34-1.99.24-.78-.1-1.54-.31-2.33-.33-.79-.02-1.56.09-2.31.3-1.46.41-2.78 1.2-3.91 2.21-2.05 1.82-3.51 4.2-4.62 6.68-.83 1.85-1.52 3.76-2.2 5.67-.23.46-.44.92-.65 1.39-.59 1.36-1.13 2.74-1.9 4.01-.72 1.19-1.65 2.21-2.95 2.77-.8.35-1.64.6-2.13 1.38-.44.71-.45 1.65-.16 2.41.31.82.91 1.48 1.58 2.02.35.28.73.53 1.08.81.09.07.23.2.27.28.01.02.03.05.04.08v.05c-.01.03-.01.04-.01.05-.01.02-.07.1-.07.11-.08.09-.17.18-.26.26-.21.18-.44.35-.65.53-.63.57-.89 1.33-.52 2.13.37.8 1.27 1.32 1.99 1.83.14.1.28.2.41.31s.29.27.35.36c.05.07.1.15.14.23.02.03.03.07.05.1v.03c.03.08.05.17.07.25 0 .02 0 .05.01.07v.28l-.03.12c0-.01-.06.09-.04.09-.01.02-.03.03-.04.05-.01.02-.11.09-.05.04-.04.03-.07.05-.1.09a.52.52 0 0 0-.19.38c-.01.11 0 .22.05.32.14.49.48.87.96 1.1.21.1.42.17.64.21-.4 3.05-.81 6.11-1.29 9.15-.05.33.08.66.43.75.29.08.7-.1.75-.43.5-3.13.92-6.28 1.33-9.42 1.12-.06 2.19-.27 3.2-.74 1.72-.82 3.19-2.24 4.13-3.9.66-1.17 1.04-2.44 1.19-3.77.04-.33-.31-.61-.61-.61-.05 0-.09 0-.14.02-.02-.09-.04-.17-.07-.26-.07-.22-.2-.42-.38-.58 0-.69.01-1.38.05-2.06.01-.24.03-.48.06-.72a15 15 0 0 0 2.57.88c1.28.31 2.6.46 3.91.44.21 1.41.07 2.88-.05 4.27-.03.32.3.63.61.61l1.58-.08c.5-.02 1.03 0 1.51-.09.63-.12.76-.66.78-1.21.02-.5.02-.99.03-1.49.01-.9.04-1.87.22-2.79 2.8-.91 5.28-2.6 7.48-4.52 2.12-1.85 3.81-4.19 4.87-6.8.47-1.15.77-2.35.93-3.57.3 3.44-.91 6.99-3.09 9.7a16.56 16.56 0 0 1-2.8 2.75c-.26.2-.4.52-.22.83.06.1.16.19.28.24.25.19.56.14.79-.05 3.53-2.84 6.66-6.48 7.74-10.98.13-.54.23-1.08.29-1.63 1.37 2.33 2.28 4.93 2.57 7.62.11 1.01.14 2.03.08 3.05v.02c-.07 1.33-.19 2.66-.49 3.96-.3 1.3-.76 2.55-1.34 3.75-.49.93-.42 1.9-.32 2.91.11 1.1.27 2.19.4 3.29s.24 2.16.26 3.24c0 .54 0 1.08-.05 1.61-.02.24-.05.48-.08.71-.02.11-.03.23-.06.34 0 0 0 .03-.01.05-.24.05-.47.12-.72.15-.29.03-.59.03-.89.02-.57-.02-1.12-.11-1.68-.21h-.02a.57.57 0 0 0-.54.12c-.08.06-.14.15-.18.25 0 .02-.02.03-.02.05-.59 1.61-1.17 3.27-1.87 4.75-.26.56-.55 1.1-.88 1.61-.16.26-.33.51-.51.75-.05.07-.1.13-.14.19-.02.02-.03.04-.04.06.02-.02.03-.03-.02.03-.11.13-.21.26-.32.39-.21.26-.48.58-.7.75-.33.26-.62.37-1.02.46-.68.15-1.48.05-2.2-.12-1.22-.28-2.4-.74-3.57-1.17-1.3-.47-2.61-.93-3.9-1.46-.3-.12-.67.14-.75.43-.1.35.12.62.43.75.34.14.67.27 1.01.4-.21 2.72-.35 5.46-.41 8.19-.02.78 1.2.78 1.22 0 .06-2.58.19-5.17.38-7.75.45.16.9.32 1.34.49 1.19.43 2.43.92 3.68 1.24 1.71.44 3.7.5 4.98-.92.88-.98 1.65-2.07 2.25-3.24.81-1.6 1.42-3.3 2.03-4.99.96.15 1.92.23 2.88.07.6-.1 1.13-.3 1.35-.91.18-.52.2-1.14.24-1.68.17-2.32-.23-4.62-.51-6.91-.08-.61-.15-1.23-.19-1.85-.03-.51-.01-1.01.23-1.47.01-.02.02-.05.03-.07.54-1.12 1-2.28 1.31-3.49 2.3-.75 4.31-2.21 5.76-4.15.56-.74 1.03-1.57 1.31-2.45.43-1.33.48-2.85.34-4.23Zm-49.19 8.2v.02-.01Zm-.23 4.32Zm.22-4.21v-.08h.01c0 .01 0 .02-.01.02h.01c0 .05-.01.07-.02.07Zm1.24 6.17c-.05-.07-.03-.14.02.02 0 0-.01-.02-.02-.02Zm35.27-15.96v-.01.01Zm3.01 27.41c0 .06-.04.02 0 0 0 0 0 .01 0 0Z" class="cls-12"/></g><path d="M104.66 103.45c-.07-.08-.86-.86-2.12-1.72s-.06-.05-.08-.09c-.55-1.19-1.01-1.94-1.01-1.94-.08-.13-.22-.2-.35-.17l-.9.2h-.02c-.1.04-.15.16-.1.27l.13.34v.02c-.71-.34-1.47-.63-2.28-.84a.72.72 0 0 0-.48.01c-.16.06-.28.17-.37.3-2.17 3.18-2.53 7.17-2.52 7.38 0 .05 0 .1.03.15.06.16.2.25.34.24l.92-.13c.13 0 .25.07.32.2.07.17 1.66 3.94 2.24 4.86.09.13.24.19.38.14.49-.2.94-.38 1.43-.57l.04-.02c.05-.02.08-.09.05-.14-.14-.33-.47-1.08-.81-1.87 0-.02-.02-.04-.03-.07a.214.214 0 0 0-.15-.13c-.32-.08-.61-.33-.76-.68-.55-1.33-1.15-2.87-1.54-4.11-.03-.1.01-.21.1-.25.09-.04.2.02.25.13v.02c.26.83.61 1.78.98 2.72.05.13.18.2.29.15.11-.04.16-.18.11-.31-.37-.95-.73-1.91-.99-2.74-.03-.1.01-.21.1-.25.09-.04.2.02.25.13v.02c.26.82.61 1.77.98 2.71.05.13.18.19.29.15.11-.04.16-.18.11-.31-.37-.94-.72-1.9-.98-2.72-.03-.1.01-.21.1-.25.09-.04.2.02.25.13v.02c.38 1.2.96 2.69 1.49 3.99s0 .02 0 .03c.13.37.1.75-.07 1.02-.03.05-.04.12-.02.18 0 0 .05.21.5 1.15.2.41.33.7.4.83s.08.07.12.06.05-.02.08-.03c.16-.06.33-.12.51-.19h.03l.03-.02c.22-.08.43-.16.64-.24l.48-.17s.07-.07.06-.12c-.33-1.21-.54-1.88-.54-1.88a.117.117 0 0 0-.13-.08l-.62.13c-.1.02-.18-.03-.23-.1-.03-.04-.05-.1-.05-.1-1.22-3.98-.59-5.72-.59-5.72.02-.05.03-.07.03-.07.02-.04.05-.06.09-.08.08-.03.16 0 .22.07 0 0 .02.02.05.09.56 1.19 1.29 3.29 1.83 4.94.47 1.4.81 2.5.81 2.5s.06.07.1.06c.32-.11.64-.22.97-.34.14-.05.21-.2.19-.36-.17-1.07-1.44-4.96-1.5-5.13-.04-.14 0-.28.11-.36l.78-.5c.11-.08.16-.25.1-.41a.411.411 0 0 0-.08-.13ZM54.46 134.14c-.07-.19-1.07-2.04-2.92-4.34a.41.41 0 0 1-.09-.2c-.22-2.41-.56-4.01-.56-4.01a.638.638 0 0 0-.57-.51l-1.92-.23h-.05c-.22 0-.41.18-.41.41v.67s-.01.02-.02.02h-.02a26.199 26.199 0 0 0-3.89-2.93c-.27-.18-.6-.29-.95-.29s-.68.11-.95.29c-6.64 4.1-10.3 10.77-10.44 11.13-.04.09-.06.18-.06.28 0 .31.21.57.5.64l1.91.37c.26.07.45.29.48.56.02.34.38 7.88.83 9.84.08.28.33.49.64.49h.01c1.12-.03 2.14-.05 3.24-.06h.09c.12 0 .21-.1.21-.22-.04-.66-.14-2.17-.22-3.76v-.13c0-.14-.08-.26-.2-.33-.57-.34-.97-.96-1-1.67-.1-2.65-.15-5.7 0-8.1.01-.2.17-.36.38-.36s.39.16.39.38v.03c-.09 1.6-.1 3.48-.07 5.34 0 .25.21.45.46.45s.45-.21.45-.46c-.03-1.87-.02-3.77.07-5.37.01-.2.17-.36.38-.36s.39.16.39.38v.03c-.09 1.59-.1 3.46-.07 5.31 0 .25.21.45.46.45s.45-.21.45-.46c-.03-1.86-.02-3.75.07-5.35.01-.2.17-.36.38-.36s.39.16.39.38v.03c-.14 2.33-.09 5.27 0 7.85v.09c0 .71-.35 1.33-.89 1.7-.1.07-.16.17-.17.3 0 0-.05.4.13 2.32.08.84.14 1.42.17 1.68.01.1.1.18.2.18H45.66c.1.01.19-.07.2-.17.25-2.3.31-3.6.31-3.6 0-.12-.09-.2-.21-.22l-1.32-.18c-.21-.04-.33-.16-.38-.32-.03-.1-.02-.2-.02-.2.53-7.68 3.07-10.27 3.07-10.27.08-.08.12-.11.12-.11.07-.05.15-.08.24-.08.17 0 .32.11.38.26 0 0 .02.05.03.19.22 2.41.11 6.52-.02 9.72-.11 2.72-.25 4.85-.25 4.85 0 .09.07.16.16.16.72.01 1.43.03 2.18.04h.01c.3 0 .56-.21.64-.49.45-1.96.82-9.5.83-9.84.03-.27.22-.49.48-.56l1.91-.37a.666.666 0 0 0 .44-.92ZM65.3 98.26c-.06-.06-.22-.08-.21.04l.24.14-.03-.18ZM64.65 98.84c.1.16.28.35.54.34-.22-.19-.11-.19-.38-.4 0-.11.13-.16.22-.12-.06-.05.1-.15-.05-.25-.23.09-.28.26-.16.48-.07.02-.13-.03-.17-.05ZM62.38 109.25l.04-.07s-.03.04-.04.07ZM61.81 115.86c0-.05-.03-.07-.06-.08.02.05.03.09.06.08ZM61.51 116.99s.01-.04.02-.07c-.02.02-.04.05-.02.07ZM62.38 109.25l-.1.17c.09.02.07-.08.1-.17ZM64.94 100.42s-.02-.07-.05-.11v.09h.04ZM62.53 106.33v-.05s-.06-.04-.1-.06l.1.11ZM62.83 104.1s.2.11.3.14c-.09-.04-.12-.09-.13-.14-.04 0-.1-.01-.16 0ZM63.92 100.69l-.02-.07s0 .05.02.07ZM62.25 107.91s-.07 0-.08.01c.03 0 .06 0 .08-.01ZM81.78 164.03s-.01.02-.02.03c.02-.01.03-.02.02-.03ZM83.49 166.18h-.04s-.04.07-.06.11l.09-.11ZM61.22 119.07v-.01c-.03-.05-.02-.02 0 .01ZM64.1 137.95c.14-.26.35.27.48-.1-.08.05-.42-.19-.48.1ZM64.9 100.46s-.01.06-.02.09c.02-.04.02-.07.02-.09ZM64.58 137.85v-.04.04ZM61.62 123.86s.07-.03.1-.06c-.02 0-.05.02-.1.06ZM61.74 120.28l-.03.09s.02-.07.03-.09ZM62.1 125.68s-.04.07 0 .13c.01 0 .02-.01.03-.02-.03-.02-.05-.05-.02-.11ZM62.34 127.59l.04-.04-.02-.06-.02.1ZM77.46 160.6c-.02.07-.05.14-.09.2.1-.13.32.03.09-.2ZM64.81 100.39c.05.02.08.05.08.08v-.06c-.03-.01-.06-.02-.09-.01ZM63.9 125.57v.3c.01-.09.02-.2 0-.3ZM70.25 149.38l.05.05s-.02-.04-.05-.05ZM64.05 126.75c-.07.06-.11.12-.13.19l.06.03.07-.21ZM73.75 158.68s.02 0 .04.02c0-.03 0-.05.01-.08l-.08.02.03.04ZM62.42 109.18s.02 0 .03-.01c-.01 0-.02 0-.03.01ZM70.63 149.89l-.05.02.06.02-.01-.04zM63.6 106.18s.04-.01.06-.03a.11.11 0 0 0-.06.03ZM63.84 104.86l.12-.17c-.06.07-.09.13-.12.17ZM64.14 103.87s-.07-.03-.09-.04l.09.04ZM63.26 120.16s0 .03.01.04c.05.09.03.03-.01-.04ZM62.69 115.29c.04.05.08.11.1.16.02-.09.03-.15-.1-.16ZM63.9 125.54v.03-.03Z" class="cls-5"/><path d="M62.79 115.67c.05-.09.04-.16 0-.23-.02.07-.04.15 0 .23ZM65.17 99.53l.02-.05s-.03 0-.03-.01v.06ZM65.16 99.47v-.06s-.02.05 0 .06ZM65.12 99.28l.03.13s.03-.09-.03-.13ZM64.76 100.83l.08.03s-.04-.02-.08-.03ZM64.68 101.24c.04-.09.23-.2.21-.35l-.06-.03c.11.09-.26.25-.15.37ZM63.34 102.74l.13-.33c-.1.04-.23.1-.22-.06-.34.39.21-.05.09.39ZM63.01 103.79c0-.19-.13-.02-.17-.04.06.13.07.16.17.04ZM62.01 111.61l-.21-.03c.02.15.08 0 .21.03ZM63 113.18l.14-.14-.19-.07.05.21zM61.48 113.99l-.03-.06.06.24-.03-.18zM62.1 127.28l.25-.08c-.06-.09-.35-.08-.25.08ZM63.26 132.9c-.12.09-.16.26-.02.33-.01-.13.06-.27.02-.33ZM68.12 149.4l-.13-.07.16.17-.03-.1zM81.47 164.25c-.06.02-.13.11-.07.14l.18-.1-.12-.04ZM81.55 164.85c.13 0 .31-.08.4-.25-.19.09-.15.02-.37.12-.07-.03-.04-.13.02-.18-.05.02-.04-.11-.16-.05-.05.17.04.27.21.26-.01.05-.07.07-.1.1ZM88.34 166.81l-.05-.02s.03.02.05.02ZM92.81 166.27s-.04.03-.04.05c.03-.02.05-.04.04-.05ZM93.6 166.34h-.05c.02.01.04.02.05 0ZM88.34 166.81l.13.05c0-.07-.07-.04-.13-.05ZM82.59 165.04s-.05 0-.08.01c.02 0 .04 0 .06.01l.02-.02ZM86.34 167.04h-.04s-.02.05-.03.08l.07-.08ZM84.77 166.91s.08-.15.1-.23c-.03.07-.06.1-.1.1v.12ZM82.51 165.81h-.05.05ZM87.45 167.07s.01.05.02.06c0-.02 0-.04-.02-.06ZM126.76 152.39s.01.02.02.03c0-.02 0-.03-.02-.03ZM128.69 152.22l-.02.02s.03.06.04.09l-.03-.11ZM95.02 166.3c-.03.03-.01.02 0 0ZM107.46 162.86c-.19-.1.16-.26-.1-.35.04.06-.11.32.1.35ZM82.61 165.08s.03.02.05.03c-.02-.02-.03-.03-.05-.03ZM107.36 162.5h-.03.03ZM98.17 165.51s-.03-.05-.05-.07c0 .02.02.04.05.07ZM95.76 165.79h.06-.06ZM99.33 164.98s.05.03.09 0l-.02-.02c-.01.03-.03.04-.07.02ZM100.59 164.66l-.03-.03-.04.02h.07ZM123.39 154.38s.09.07.13.11c-.08-.1.07-.22-.13-.11ZM82.54 165.12s.05-.04.07-.04c-.01 0-.02-.01-.04-.01-.02.02-.03.04-.03.06ZM99.06 163.66l.21-.02c-.06 0-.13 0-.21.02ZM115.1 158.43l.03-.04s-.03.01-.03.04ZM99.85 163.47c.05.05.1.07.14.09 0-.02.01-.03.01-.05l-.15-.04ZM121.64 156.69s0-.02.02-.02c-.02 0-.03-.01-.05-.02v.06l.03-.02ZM88.29 166.79s-.01 0-.02-.02c0 0 0 .01.01.02ZM115.46 158.18l.02.04.01-.05-.03.01zM86.17 166.25s-.01-.03-.02-.04c0 .01.01.03.02.04ZM85.29 166.13l-.11-.08s.08.07.11.08ZM84.64 165.93s-.02.05-.03.07l.03-.07ZM95.48 164.68s.02 0 .02-.01c.05-.05.02-.02-.02.01ZM92.3 165.7s.06-.07.09-.1c-.06 0-.11 0-.09.1ZM92.54 165.57c-.06-.02-.11 0-.15.02.05 0 .11.01.15-.02ZM82.14 164.69l-.02-.02-.02.02h.04ZM82.1 164.69h-.04s.02.01.04 0ZM81.98 164.67h.09s-.04-.03-.09 0ZM82.79 165.24l.04-.05s-.02.02-.04.05ZM83.03 165.35s-.08-.19-.17-.19l-.03.04c.08-.06.1.22.2.15ZM83.83 166.49l-.22-.12c.02.08.05.18-.07.16.24.28-.01-.16.29-.04ZM84.54 166.78c-.14 0-.02.09-.03.13.1-.04.12-.05.03-.13ZM89.97 166.73v.16c.11-.04 0-.06 0-.16ZM90.85 165.77l-.11-.08-.02.15.13-.07zM91.62 166.77l-.04.03.16-.08-.12.05zM100.41 164.87l-.08-.18c-.05.05-.02.26.08.18ZM104.09 163.64c.07.08.19.11.23 0-.09.01-.19-.03-.23 0ZM115.13 160l-.04.1.11-.11-.07.01zM112.45 129.08c.09-.01.18-.02.25-.04.08-.02.15-.06.22-.09-.07-.01-.15-.04-.22-.03-.18.03-.36.08-.53.12-.05.01-.08.04-.12.06.05 0 .09.01.14 0 .08 0 .17-.02.26-.03ZM107.51 129.79c.11 0 .23-.03.34-.05.02 0 .06-.02.06-.03a.114.114 0 0 0-.07-.03c-.11.01-.23.03-.44.06-.04 0-.18.04-.31.07.09.08.28-.01.41-.02ZM100.78 131.92h.27c.06-.03.13-.06.2-.09-.08 0-.16 0-.23.02-.08.02-.15.05-.23.08ZM64.76 156.24c.03.15.07.31.11.44.05.14.11.25.16.37 0-.13.01-.27-.02-.38-.08-.31-.18-.61-.27-.91-.03-.08-.07-.13-.1-.2 0 .08 0 .16.02.24.03.14.07.29.1.44ZM62.93 147.77c.02.19.07.39.11.59 0 .04.04.1.04.1.01-.02.04-.07.03-.11-.03-.2-.08-.39-.14-.75-.02-.08-.07-.3-.13-.53-.09.15.06.47.09.71ZM59.55 136.02l.02.47c.04.11.08.23.12.35-.01-.14-.01-.28-.03-.4-.02-.14-.07-.28-.11-.41ZM23.25 115.15c0-.14.02-.29 0-.41 0-.14-.04-.25-.06-.37-.03.11-.08.24-.08.34 0 .3.01.59.03.88 0 .08.03.13.04.2.01-.07.03-.14.04-.22.01-.13 0-.28.01-.41ZM23.06 123.16c.02-.17.01-.37.01-.56 0-.03-.02-.1-.02-.1-.02.02-.05.05-.05.1-.01.18-.01.37-.02.71l.02.51c.12-.12.04-.44.06-.66ZM24.48 134.34l.04-.43-.08-.33c0 .12-.03.25-.02.37 0 .13.04.26.06.39ZM33.31 97.63c-.07 0-.15 0-.21.02-.07.02-.12.05-.17.08.06.02.13.06.18.06.15-.02.29-.06.43-.09.04-.01.06-.04.09-.06-.04-.01-.08-.03-.11-.03-.07 0-.14.01-.21.02ZM37.3 97.24c-.09 0-.19.01-.28.02-.02 0-.05.02-.04.03.01.02.03.05.05.05.09 0 .19-.02.35-.03.03 0 .14-.03.25-.04-.07-.11-.22-.02-.33-.03ZM42.82 95.43c-.06-.01-.12-.02-.22-.04l-.16.08c.06 0 .13.02.19.02.07 0 .13-.04.19-.06Z" class="cls-5"/><g id="Layer_7"><path d="M176.64 70.6c0-3.79-.05-7.58-.1-11.38-.07-4.68-.15-9.35-.23-14.03-.08-4.48-.15-8.96-.2-13.43-.02-1.83-.04-3.65-.04-5.48 0-.93.12-1.98-.2-2.86-.21-.57-.63-.99-1.23-1.13-.32-.07-.66-.08-.99-.09-.42-.01-.84-.03-1.26-.04-6.53-.19-13.06-.14-19.58.15-.28.01-.56.03-.84.04-.41 0-.82-.02-1.24-.03-.71 0-1.48 0-2.14.27-.76.31-1.02 1.07-1.09 1.83s0 1.55.02 2.32c.06 3.37.06 6.74.03 10.11-.02 3.75-.08 7.49-.12 11.24-.05 3.74-.1 7.47-.12 11.21-.02 3.34-.02 6.68.05 10.02 0 .36.02.73.02 1.09 0 .07.03.13.06.18 0 .56-.01 1.11.08 1.66.12.75.45 1.55 1.11 1.98.39.25.85.3 1.3.33s.94.04 1.41.05c.94.03 1.88.04 2.82.04 3.92.01 7.84-.13 11.77-.16 2.13-.02 4.27-.01 6.4.09h.06c.67.03 1.34.02 2-.06.78-.09 1.61-.26 1.93-1.08.15-.39.16-.81.17-1.22.01-.46.03-.91.04-1.37.07-.05.13-.13.13-.24Z" class="cls-2"/><path d="M168.97 48.99c-.05-.12-.69-1.31-1.88-2.79s-.05-.08-.05-.13c-.14-1.55-.36-2.58-.36-2.58a.414.414 0 0 0-.36-.33l-1.24-.15h-.03c-.14 0-.26.12-.26.26v.43s0 .02-.02.02h-.01c-.74-.67-1.58-1.32-2.5-1.89-.18-.12-.38-.19-.61-.19-.23 0-.44.07-.61.19-4.27 2.64-6.63 6.93-6.72 7.16-.03.05-.04.12-.04.18 0 .2.14.36.32.41l1.23.24c.16.04.29.19.31.36.01.22.24 5.07.53 6.33.05.18.21.32.41.32h.01c.72-.02 1.38-.03 2.09-.04h.06c.08 0 .14-.06.14-.14-.03-.43-.09-1.4-.14-2.42v-.08c0-.09-.05-.17-.13-.21-.37-.22-.62-.62-.65-1.07-.07-1.7-.1-3.67 0-5.21 0-.13.11-.23.24-.23.14 0 .25.11.25.24v.02c-.06 1.03-.07 2.24-.04 3.44 0 .16.14.29.3.29.16 0 .29-.14.29-.3-.02-1.21-.02-2.43.05-3.46 0-.13.11-.23.24-.23.14 0 .25.11.25.24v.02c-.06 1.02-.07 2.23-.04 3.42 0 .16.14.29.3.29.16 0 .29-.13.29-.3-.02-1.2-.02-2.42.05-3.44 0-.13.11-.23.24-.23.14 0 .25.11.25.24v.02c-.09 1.5-.06 3.39 0 5.05v.06c0 .46-.23.86-.58 1.1-.06.04-.1.11-.11.19 0 0-.03.26.08 1.49.05.54.09.91.11 1.08 0 .07.06.11.13.11H163.33c.07 0 .12-.04.13-.11.16-1.48.2-2.31.2-2.31 0-.08-.06-.13-.13-.14l-.85-.12a.292.292 0 0 1-.24-.21c-.02-.06-.01-.13-.01-.13.34-4.94 1.97-6.61 1.97-6.61.05-.05.08-.07.08-.07.04-.03.1-.05.15-.05.11 0 .21.07.24.17 0 0 .01.03.02.12.14 1.55.07 4.19-.01 6.26-.07 1.75-.16 3.12-.16 3.12 0 .06.04.1.1.1.46 0 .92.02 1.4.03h.01c.2 0 .36-.13.41-.32.29-1.26.52-6.11.53-6.33.02-.17.14-.32.31-.36l1.23-.24c.18-.05.32-.21.32-.41 0-.07-.01-.13-.04-.18Z" class="cls-5"/><path d="M176.18 27.18c-.01-.93 0-1.86-.04-2.79-.03-.69-.16-1.47-.73-1.93-.69-.57-1.73-.44-2.56-.45-.98-.02-1.96-.04-2.94-.05-3.93-.06-7.86-.08-11.79-.05-1.97.01-3.95.04-5.92.08-.96.02-1.92 0-2.88.06-.41.02-.8.11-1.12.36-.27.22-.45.52-.56.84-.25.73-.16 1.55-.16 2.31v2.92c-.01 1.96-.03 3.93-.02 5.89 0 .49 0 .97.01 1.46 0 .45.6.51.77.19l3.05-1.53 3.75-.98 4.83-.29s3.21.28 4.45.45c1.25.17 3.49 1.37 4.05 1.56.56.2 4.28 1.75 4.74 2.45.34.51 1.7.97 2.39 1.17v.11c0 .52.82.52.81 0-.04-3.93-.09-7.85-.13-11.78Z" style="fill:#fcb9c4"/><path d="m169.09 104.87-.36-3.33-.72-6.65-1.44-13.3-.81-7.46c-.03-.28-.37-.36-.53-.23l-8.33-.26c-.22-.08-.5.08-.4.35 1.66 4.41 3.06 8.91 4.47 13.4 1.41 4.5 2.83 9.01 4.51 13.42.94 2.47 1.96 4.91 3.11 7.29.11.23.51.18.56-.07.2-1.05.05-2.11-.07-3.16Z" class="cls-2"/></g><g id="Layer_16"><path d="M172.22 26.2a.302.302 0 0 0-.43 0l-.86.86c-.29-.27-.6-.53-.93-.76-.13-.09-.34-.03-.42.11-.08.16-.03.32.11.42.29.2.55.41.81.66l-.78.78c-.12.12-.12.32 0 .43.12.12.32.12.43 0l.78-.78c.06.07.12.13.18.2.07.08.14.17.21.26.03.04.03.04.07.1.04.05.07.1.11.15.09.13.27.21.42.11.13-.08.21-.28.11-.42-.21-.29-.43-.57-.68-.83l.86-.86c.12-.12.12-.32 0-.43ZM151.23 26.66c1-.04 2-.06 3.01-.06.39 0 .39-.61 0-.61-1 0-2.01.02-3.01.06-.39.02-.39.63 0 .61ZM151.29 28.17c.95-.1 1.91-.13 2.86-.09.39.02.39-.59 0-.61-.96-.04-1.91-.01-2.86.09-.16.02-.3.13-.3.3 0 .15.14.32.3.3ZM151.28 29.69l2.91-.11c.39-.01.39-.62 0-.61l-2.91.11c-.39.01-.39.62 0 .61Z" class="cls-5"/></g><path d="M91.74 129.86c.3.01.78-3.07.43-8.09-.18-2.5-.6-5.48-1.38-8.72a57.81 57.81 0 0 0-3.55-10.23c-1.58-3.47-3.47-6.8-6.07-9.19-1.3-1.19-2.74-2.11-4.26-2.66-1.53-.57-3.05-.65-4.38-.52-1.34.14-2.52.53-3.45 1.04-.94.52-1.63 1.16-2.09 1.74-.9 1.21-.95 2.07-.83 2.11.18.08.54-.62 1.51-1.46.5-.41 1.14-.85 1.99-1.17a8.37 8.37 0 0 1 2.98-.56c1.12 0 2.37.16 3.55.68 1.19.51 2.38 1.35 3.45 2.41 2.17 2.14 3.87 5.21 5.41 8.58a69.28 69.28 0 0 1 3.59 9.79 75.06 75.06 0 0 1 1.83 8.35c.77 4.82.9 7.89 1.26 7.89ZM24.01 173.49c.67 0 1.13-16.73 1.04-37.36-.09-20.63-.7-37.36-1.37-37.35-.67 0-1.13 16.73-1.04 37.36.09 20.63.7 37.36 1.37 37.35Z" class="cls-5"/><path d="M19.82 176c.33 0 .53-16.26.44-36.31-.09-20.05-.43-36.31-.77-36.3-.33 0-.53 16.26-.44 36.31.09 20.05.43 36.31.77 36.3Z" class="cls-1"/><path d="M67.31 145.13c-.67 0-1.12 6.21-1.01 13.84s.74 13.82 1.4 13.81c.67 0 1.12-6.21 1.01-13.84-.11-7.63-.74-13.82-1.4-13.81ZM18.35 98.62c-.04-.06-.3 0-.68.27-.39.26-.88.75-1.32 1.46-.45.72-.79 1.66-1.01 2.73-.21 1.07-.3 2.25-.3 3.47 0 1.2.01 2.33-.05 3.34-.07 1.01-.2 1.89-.4 2.61-.4 1.44-1.03 2.2-.89 2.33.08.11 1.01-.49 1.69-2.04.34-.76.57-1.73.71-2.8.13-1.07.15-2.24.15-3.44 0-1.18.05-2.29.19-3.28.15-.98.37-1.85.67-2.52.59-1.37 1.37-1.97 1.25-2.13ZM171.74 113.92c-.19-.27-2.42.95-4.98 2.72-2.56 1.78-4.48 3.44-4.29 3.71.19.27 2.42-.95 4.98-2.72 2.56-1.78 4.48-3.44 4.29-3.71ZM179.27 114.36c.03-.33-1.61-.75-3.66-.95s-3.74-.08-3.77.25c-.03.33 1.61.75 3.66.95 2.05.19 3.74.08 3.77-.25Z" class="cls-5"/><path d="M111.54 103c-.58 1.4-1.17 2.8-1.75 4.2" class="cls-9"/></g><g id="Outline"><path d="M82.27 166.71c.12-.12-.5-1.02-1.69-2.53-.3-.37-.64-.79-1.01-1.25-.36-.46-.71-.99-1.12-1.54-.79-1.12-1.76-2.32-2.64-3.8-.46-.72-.95-1.47-1.45-2.26-.5-.79-.94-1.66-1.44-2.53-.47-.89-1.04-1.76-1.47-2.74-.46-.96-.94-1.96-1.42-2.98-1.81-4.13-3.48-8.81-4.7-13.88-1.15-5.08-1.72-10.02-1.92-14.52-.01-1.13-.03-2.23-.04-3.3-.05-1.07.07-2.11.1-3.11.06-1 .07-1.98.17-2.9.11-.93.21-1.82.3-2.67.14-1.71.48-3.22.69-4.57.12-.67.2-1.3.32-1.88.13-.57.25-1.09.35-1.56.41-1.89.56-2.96.4-3.02s-.61.93-1.3 2.76c-.17.46-.36.97-.56 1.53-.18.57-.34 1.2-.52 1.87-.34 1.35-.81 2.87-1.06 4.61-.15.87-.3 1.77-.47 2.72-.15.95-.21 1.95-.31 2.97-.08 1.03-.24 2.09-.23 3.2l-.06 3.4c.09 4.65.6 9.77 1.79 15.02 1.25 5.23 3.05 10.06 5.03 14.27.53 1.03 1.05 2.04 1.56 3.02.48.99 1.09 1.88 1.62 2.77.55.87 1.04 1.75 1.6 2.53.56.78 1.1 1.52 1.62 2.23.99 1.45 2.09 2.61 2.99 3.67.46.52.88 1.02 1.29 1.44.43.41.83.79 1.18 1.13 1.43 1.34 2.27 2.02 2.39 1.9ZM128.59 152.21c-.24-.29-2.48 1.36-6.29 3.57-.48.27-.98.56-1.5.86-.53.28-1.09.57-1.66.87-1.13.63-2.41 1.18-3.71 1.81a87.224 87.224 0 0 1-8.84 3.37c-3.21 1-6.32 1.76-9.18 2.35-1.43.26-2.79.55-4.08.72-.64.1-1.26.21-1.86.29-.6.08-1.17.15-1.72.22-4.4.54-7.17.7-7.18 1.07-.01.3 2.77.74 7.3.63.57-.02 1.16-.04 1.78-.07.62-.03 1.26-.1 1.92-.16 1.33-.09 2.74-.31 4.23-.52 2.96-.49 6.2-1.2 9.51-2.24 3.31-1.06 6.37-2.33 9.07-3.67 1.33-.71 2.61-1.35 3.74-2.07.57-.35 1.13-.68 1.65-1.02.51-.36 1-.7 1.46-1.02 3.7-2.66 5.57-4.79 5.37-5.01Z" class="cls-5"/><path d="M76.17 142.19c.3.26 2.06-1.72 5.68-3.7 1.8-1 4.07-1.94 6.69-2.73s5.59-1.4 8.75-1.87c3.17-.46 6.24-.82 9.04-1.25 2.8-.43 5.32-.93 7.4-1.53 4.18-1.17 6.5-2.63 6.37-2.9-.15-.34-2.62.52-6.75 1.24-2.06.37-4.54.69-7.31.99-2.78.31-5.86.59-9.1 1.07-3.26.49-6.35 1.19-9.08 2.14-2.73.95-5.09 2.13-6.9 3.39-1.81 1.25-3.1 2.5-3.85 3.47-.76.96-1.06 1.58-.94 1.68Z" class="cls-5"/><path d="M54.04 101.85c-.03-.33-5.04-.19-11.2.32-6.16.51-11.13 1.19-11.1 1.52s5.04.19 11.2-.32c6.16-.51 11.13-1.19 11.1-1.52Z" class="cls-1"/><path d="M65.63 95.49c.02-.15-2.26-.59-5.99-.92-1.87-.17-4.1-.28-6.57-.31-2.48-.02-5.2.05-8.06.25-2.85.21-5.56.54-8.01.92-2.45.39-4.64.83-6.46 1.26-3.65.87-5.83 1.64-5.79 1.78.05.18 2.31-.3 5.97-.95 1.83-.33 4.02-.67 6.45-1 2.43-.31 5.12-.61 7.94-.82 2.82-.2 5.52-.3 7.97-.34 2.45-.03 4.67 0 6.52.05 3.72.11 6.02.25 6.04.07ZM63.45 80.07c0-.1-.46-.17-1.27-.22-.4-.02-.89-.04-1.45-.05h-1.4c-.3 0-.61.02-.93.02-.11 1.02-.23 2.15-.36 3.37-.11 1.06-.21 2.2-.31 3.38-.06.77-.12 1.53-.17 2.26-.02.36-.05.72-.07 1.07l-.03.51v.04l-.02.01h-.03l-.17.02c-.23.02-.46.04-.68.07-.44.05-.86.09-1.26.13-.79.09-1.49.18-2.07.26-1.15.17-1.82.33-1.81.45 0 .12.69.19 1.85.21.58 0 1.28 0 2.08-.01l1.27-.03c.22 0 .45-.02.68-.02l1.19-.06c.08-.82.16-1.68.25-2.57.06-.73.13-1.48.2-2.26.1-1.18.18-2.32.25-3.38.03-.53.06-1.05.09-1.54.01-.25.03-.49.04-.72v-.26l.09-.03c.16-.02.32-.03.47-.05.31-.03.61-.06.89-.09.56-.06 1.04-.12 1.44-.19.8-.12 1.25-.24 1.24-.34Z" class="cls-5"/><path d="M64.96 88.12c-.08 0-.16.11-.23.31-.04.1-.07.22-.1.36-.03.07-.06.11-.09.14 0 .02-.05 0-.08 0s-.06-.02-.1-.03c-.02 0-.02 0-.06-.01h-.16c-.11-.01-.22-.02-.33-.02-.46-.02-.97-.03-1.5-.03-2.14-.02-3.93.31-3.89.68.04.3 1.73.51 3.89.53.54 0 1.05-.02 1.53-.06.12-.01.23-.02.35-.04.14-.02.29-.04.42-.05.17-.02.34-.05.5-.07.15-.04.37 0 .29-.22-.02-.32-.05-.59-.09-.8-.03-.14-.07-.26-.1-.36-.07-.2-.15-.31-.23-.31ZM94.81 126.75c.16-.01.15-2.68-.14-6.99a83.15 83.15 0 0 0-.85-7.56c-.46-2.83-1.16-5.93-2.26-9.07-1.12-3.14-2.59-5.99-4.24-8.38-1.65-2.38-3.44-4.31-5.13-5.7-1.69-1.4-3.22-2.31-4.32-2.83s-1.75-.71-1.78-.64c-.11.2 2.41 1.23 5.54 4.11 1.57 1.43 3.23 3.34 4.77 5.68 1.54 2.34 2.93 5.11 4.02 8.16 2.15 6.13 2.87 12.06 3.4 16.31.5 4.27.81 6.92.98 6.91Z" class="cls-5"/></g></svg>