<?xml version="1.0" encoding="UTF-8"?><svg xmlns="http://www.w3.org/2000/svg" viewBox="0 0 200 200"><defs><style>.cls-1{fill:none;}.cls-2{fill:#aecacc;}.cls-3{fill:#fdbe10;}.cls-4{fill:#a8816f;}.cls-5{fill:#613c5d;}.cls-6{fill:#fdca53;}.cls-7{fill:#575655;}.cls-8{fill:#aac6c8;}.cls-9{fill:#9bb5b5;}.cls-10{fill:#5c3e5b;}.cls-11{fill:#654060;}.cls-12{fill:#d6c2de;}.cls-13{fill:#b6d6da;}.cls-14{fill:#b0c4c5;}.cls-15{fill:#fff;}.cls-16{fill:#e9e7e4;}.cls-17{fill:#745e53;}.cls-18{fill:#f39baa;}.cls-19{fill:#f8bb15;}.cls-20{fill:#897064;}.cls-21{fill:#b9d8dc;}.cls-22{fill:#96b0b2;}.cls-23{fill:#7f547d;}</style></defs><g id="BG_Strong"><path class="cls-7" d="M78.98,15.9c-19.34-8.24-41.94-5.12-57.66,8.84-3.86,3.43-7.28,7.39-10.09,11.83-14.41,22.74-5.11,49.12-.91,61.42,6.79,19.9,18.01,31.58,31.16,45.26,35.51,36.97,69.5,42.64,75.78,40.17.54-.21,3.65-1.58,8.1-2.27,3.68-.57,6.51-.41,7.56-.36,10.38.51,16.04,6.34,26,1.98,8.36-3.66,19.08-14.08,22.74-22.36,4.03-9.13,4.27-19.96,1.7-29.51-2.88-10.68-9.21-19.22-6.93-30.76,2.06-10.43.89-10.26.17-21.15-.59-8.92-4.25-18.02-10.9-23.93-21.9-19.46-41.29-26.05-52.75-28.26-9.75-1.88-19.3-4.65-28.44-8.54l-5.52-2.35Z"/></g><g id="Illustrations"><path class="cls-16" d="M77.49,59.23c-1.21,5.54-2.43,11.07-3.64,16.61-.6,2.74-1.2,5.47-1.8,8.21-.31,1.4-.61,2.8-.92,4.2-.25,1.14-.5,2.28-.63,3.43s-.13,2.26.13,3.36c.24,1.01.69,1.94,1.33,2.76,1.24,1.59,3.07,2.61,4.91,3.37,2.18.89,4.48,1.45,6.74,2.08,2.69.75,5.39,1.51,8.08,2.26,1.38.39,2.75.77,4.13,1.16,1.15.32,2.29.66,3.46.92,2.06.46,4.29.71,6.28-.17s3.16-2.65,3.89-4.58c.82-2.19,1.11-4.54,1.48-6.83.89-5.56,1.78-11.12,2.67-16.68.35-2.17.75-4.34.78-6.54.03-1.9-.2-3.88-1.12-5.57-.49-.89-1.16-1.68-1.98-2.29-.98-.73-2.13-1.2-3.3-1.54s-2.48-.57-3.72-.8c-1.41-.27-2.82-.53-4.23-.8-5.54-1.04-11.08-2.08-16.62-3.13-1.35-.25-2.69-.51-4.04-.76-.36-.07-.39.51-.03.57,5.45,1.02,10.89,2.05,16.34,3.07,2.72.51,5.45,1.02,8.17,1.54,2.38.45,4.99.79,7.01,2.24,3.33,2.4,3.18,6.96,2.69,10.6-.34,2.54-.8,5.07-1.2,7.61-.44,2.72-.87,5.44-1.31,8.15-.41,2.57-.76,5.15-1.25,7.7-.39,2.02-.96,4.14-2.26,5.78-.63.79-1.45,1.42-2.38,1.8s-1.99.5-3,.46c-2.28-.09-4.5-.85-6.68-1.46-2.63-.74-5.27-1.47-7.9-2.21-2.55-.71-5.1-1.39-7.64-2.14-3.67-1.09-8.1-2.86-8.82-7.13-.39-2.28.26-4.62.74-6.83.59-2.69,1.18-5.38,1.77-8.07,1.19-5.41,2.37-10.83,3.56-16.24.29-1.31.57-2.61.86-3.92.08-.36-.46-.55-.54-.19h0Z"/><path class="cls-22" d="M94.66,184.92c3.57.05,7.14-.15,10.7-.17.81.01,1.65-.03,2.46.01.54,0,.55-.85.01-.86-3.62-.08-7.23.12-10.83.17-.79-.01-1.55.03-2.34.02-.54,0-.55.85-.01.86h0v-.02Z"/><path class="cls-22" d="M35.1,60.45c-.05,3.71-.1,7.45-.16,11.17l-.05,3.57c0,.54.85.55.86.01l.17-11.76c.01-.98.03-1.99.04-2.98,0-.54-.85-.55-.86-.01h0Z"/><path class="cls-22" d="M79.92,185.08c5.29.07,10.55.1,15.84-.02.61,0,1.26-.03,1.87-.05.25,0,.4-.19.42-.39,5.91-.09,14.72-.24,15.73-.42,1.53-.27,4.79-.92,5.95-3.19,1.16-2.27,2.07-3.83,2.23-6.56.16-2.73.62-11.14.91-22.6.28-11.48.75-32.41.68-38.02l.08-.1c-.07-5.61-.17-33.61-.12-35.38.05-1.77.15-28.39.19-31.12.04-2.73.27-10.23-.28-11.64-.55-1.41-1.43-3.59-2.94-4.42-1.51-.83-3.67-1.68-8.54-1.82-4.84-.17-32.12-.87-36.25-.93-3.47-.05-20.76-.17-27.38-.31,0-.2-.14-.42-.41-.42h0c-2.66-.06-5.44.29-7.8,1.56-.87.46-1.66,1.06-2.31,1.81-.8.9-1.28,2.02-1.64,3.15-.49,1.57-.71,3.21-.81,4.84,0,.37.36.5.61.38,0,.22,0,.44-.03.64-.05,0-.1-.03-.17-.03-.22,0-.42.19-.42.41l-.03,1.94v.12c-.02,1.3-.04,2.63-.06,3.94,0,.3.26.45.49.43v.05s1.3,0,1.3,0l-.09,13.16-1.5-.02s-.03,2.09-.08,5.41c-.22,0-.42.14-.42.41h0c-.06,6.17-.12,12.35-.21,18.52-.09,6.22-.15,12.47-.21,18.69-.07,6.49-.13,13.01-.27,19.51-.09,6.4-.25,12.76-.39,19.16-.14,6.44-.28,12.89-.4,19.36l-.03,2.41c0,.3.24.45.46.42-.01.81-.05,1.82-.09,2.8-.22,0-.44.12-.45.41-.02,1.43-.04,2.85-.06,4.26v.02c0,.49-.01.96-.02,1.45v.61c0,.07-.01.15.04.2.12,1.72.47,3.45,1.11,5.08.55,1.36,1.34,2.5,2.51,3.43,1.22.98,2.68,1.71,4.23,2,.93.19,1.92.22,2.87.26l1.48.02c1.01.01,2.04.05,3.05.07,3,.07,6,.13,9.03.2l7.4.1"/><path class="cls-8" d="M38.06,166.73l.04-2.68c.35-.17.28-.81-.19-.81-1.23-.07-2.43-.08-3.66-.13-.24-.22-.74-.13-.74.28l-.05,3.62c0,.17.09.3.22.37.07.07.17.13.29.13l3.96.06c.52,0,.55-.75.11-.83h.02Z"/><path class="cls-8" d="M40.01,41.9l-.02-2.31h0c.54,0,.55-.85.01-.86-1.4-.02-2.8-.09-4.18-.11-.32,0-.45.26-.43.51h0c-.06,1.03-.03,2.09-.04,3.12,0,.15.05.25.14.32.07.07.17.1.27.1l4.16.06c.54,0,.55-.78.06-.86l.02.02Z"/><path class="cls-13" d="M123.94,119.37c.08-10.73.08-21.45.06-32.2-.02-11.02,0-22.04.05-33.09.02-1.38.04-2.75.03-4.16v-.12c.03-1.72.07-3.42.07-5.14.01-.96.03-1.92.04-2.85.02-1.25.08-2.53.05-3.81-.11-2.54-1.04-5.08-2.98-6.78-1.68-1.48-3.98-2.02-6.17-2.2-1.38-.12-2.75-.11-4.13-.16-1.57-.05-3.12-.09-4.7-.16-3.07-.09-6.12-.18-9.2-.28-6.03-.16-12.07-.32-18.1-.4-6.03-.08-12.05-.17-18.08-.18-3.98-.06-7.97-.11-11.93-.17-1.43-.02-2.9.08-4.29.46-.94.26-1.85.66-2.58,1.34-.85.8-1.41,1.97-1.79,3.07-.72,2.13-.73,4.37-.73,6.58h0l-.04,3.12h0c-.05,3.74-.11,7.5-.16,11.24-.04,2.93-.08,5.83-.12,8.76,0,.05-.03.1-.03.17-.07,6.86-.14,13.73-.24,20.59-.1,6.86-.15,13.85-.22,20.76-.07,6.96-.2,13.95-.29,20.91-.15,6.84-.29,13.67-.44,20.51-.15,7.03-.3,14.07-.4,21.1v.69h0l-.03,1.84v.2h0v.42c-.03,1.4.03,2.81.3,4.19.32,1.58.94,3.09,2.13,4.21,1.14,1.07,2.63,1.69,4.16,1.88.93.11,1.89.1,2.83.09h0c.57.03,1.16.02,1.72.05,1.33.02,2.66.06,4.01.11,2.98.07,5.95.13,8.93.2,2.44.03,4.89.07,7.33.1,4.94.04,9.86.14,14.81.18,5.24.07,10.48.1,15.7-.03.25,0,.47,0,.71-.01,2.68-.04,5.39-.17,8.07-.23,3.37-.08,7.08.44,10.22-1.09,4.24-2.03,4.13-6.98,4.24-11.04.18-5.46.42-10.92.6-16.4.32-10.77.48-21.54.55-32.32l.02.05Z"/><path class="cls-9" d="M97.22,170.68c1.57.02,7.75.28,9.86.14,2.12-.14,9.3-.21,9.75-.4.47-.19,1.45.09,1.9-2.24.45-2.33.83-8.01.67-10.54-.16-2.51.91-31.53.91-31.53,0,0,.15-19.24-.06-23.96-.2-4.73.31-39.36.32-41.89.04-2.53.87-17.92-.58-20.26-1.44-2.31-2.02-3.13-4.14-3.35s-20.63-.73-22.75-.79-25.68-.36-28.93-.41c-3.22-.05-14.71-.26-15.79-.15-1.08.11-3.03.15-3.76,1.32s-1.44,2.39-1.47,6.35c-.06,3.96-.27,33.09-.41,39.7-.17,6.62-.77,47.59-.86,52.32-.12,4.72-.44,17.39-.46,20.73s-.34,8.09.15,10.02c.49,1.9.93,3.85,3.39,4.13,2.46.26,11.58.41,11.58.41l40.69.38h0l-.02.02Z"/><path class="cls-19" d="M125.56,44.8l.05-3.54c0-.34.03-.74-.31-.94-.17-.1-.37-.1-.56-.13l-.61-.08c-.22,0-.42.22-.42.41,0,.12.05.22.12.3l-.06,4.58s-.1.1-.13.17c-.1.22-.06.47.14.59.17.1.42.08.54-.09h.07c.1,0,.22.03.32.05.3,0,.57-.09.74-.33.18-.29.13-.66.14-.98h-.02ZM124.21,46.09h0Z"/><path class="cls-19" d="M125.4,61.28l.04-2.98-.03-1.45c0-.44.01-.89,0-1.33s-.21-.86-.6-1.07c-.37-.2-.88-.18-1.16.16-.13.17-.18.39-.03.57l-.04,9.59s-.13.2-.13.29c0,.25.19.4.41.42.34.05.74.03,1.04-.16.4-.24.48-.68.48-1.12.01-.98.03-1.94.02-2.93Z"/><path class="cls-19" d="M125.36,76.24c.03-1.92-.02-3.86-.12-5.78-.02-.44-.11-.91-.5-1.19-.34-.23-.88-.23-1.16.11-.15.17-.18.42,0,.59l.16,9.47s-.2.1-.3.19c-.37.41.23,1.01.58.62h.05c.07,0,.15,0,.2,0,.2,0,.37,0,.54-.09.37-.22.45-.63.46-1,.01-.96.03-1.92.04-2.9l.05-.02Z"/><path class="cls-22" d="M107.82,184.73c1.16.02,2.34-.02,3.49-.05,1.18-.06,2.41-.06,3.57-.29,1.7-.35,3.36-1.08,4.56-2.35,1.07-1.14,1.81-2.63,2.2-4.15s.61-3.19.85-4.81c.03-.22-.22-.42-.41-.42-.25,0-.4.19-.42.41-.19,1.35-.38,2.7-.7,4.05-.32,1.42-.85,2.79-1.75,3.94-1.05,1.31-2.54,2.08-4.14,2.45-1.09.26-2.19.29-3.33.35-1.28.06-2.58.09-3.86.07-.54,0-.55.85-.01.86h0l-.05-.05Z"/><path class="cls-15" d="M115.13,39.22c3.08,1.52,2.98,4.79,2.97,9.27-.01,4.21-.35,56.36-.75,82.77-.4,26.39-.25,28.36-.5,30.06-.24,1.67-.42,3.64-3.2,3.69-2.81.06-34.27-.16-46.12-.23-6.1-.04-15.5-.14-17.9-.5-2.41-.35-4.35-.6-4.63-3.39-.28-2.81-.6-14.77.09-59.14.7-44.37.54-57.68.57-59.55s.64-3.78,5.78-3.73c5.12.02,33.78.13,44.67.21,6.47.04,17.37-.2,19.03.61h0l-.02-.07Z"/><path class="cls-9" d="M97.21,171.13c5.24.07,10.51-.07,15.75,0,1.43.02,3.05.17,4.39-.45,1.09-.5,1.82-1.57,2.06-2.73.37-1.77.27-3.66.37-5.48.11-2.63.22-5.26.31-7.89.37-10.55.57-21.1.69-31.65.13-10.7.15-21.38.16-32.08,0-10.73,0-21.43.08-32.13.02-1.3.04-2.61.03-3.91,0-.54-.85-.55-.86-.01-.07,10.53-.1,21.03-.1,31.56,0,10.5-.03,21.01-.1,31.51-.1,10.43-.24,20.83-.56,31.26-.15,5.12-.39,10.23-.56,15.34-.04,1.33.08,2.95-.58,4.17-.73,1.37-2.09,1.59-3.52,1.62-2.61.06-5.22-.02-7.82-.04-2.85,0-5.71.02-8.56,0-.37,0-.76-.01-1.13-.02-.54,0-.55.85-.01.86h0l-.03.05Z"/><path class="cls-9" d="M120.98,55.86c.08-2.41.14-4.8.1-7.21,0-1.16-.04-2.29-.07-3.45s-.04-2.31-.17-3.45c-.24-1.87-.95-3.85-2.66-4.83-.95-.55-2.03-.79-3.11-.86-1.38-.07-2.73-.09-4.11-.13-5.43-.17-10.87-.33-16.3-.45-5.46-.13-10.94-.23-16.41-.3-5.46-.08-10.9-.13-16.36-.16l-1.99-.03c-.54,0-.55.85-.01.86,5.34.03,10.68.05,16.04.13,5.39.08,10.77.15,16.18.28,5.36.12,10.75.25,16.11.42,1.33.02,2.63.09,3.96.13.66,0,1.33.04,1.99.08.61,0,1.23.02,1.82.12.96.19,1.91.54,2.59,1.24s1.01,1.59,1.22,2.48c.26.94.29,1.87.33,2.86.06,1.18.09,2.34.12,3.52.04,2.24.04,4.5-.02,6.74,0,.66-.02,1.3-.05,1.97,0,.54.83.55.86.01h0l-.05.02Z"/><path class="cls-9" d="M64.19,35.06c-3.79-.05-7.55-.06-11.34-.09-1.01-.01-1.99-.03-3-.04-.71-.01-1.43-.07-2.14.02-1.4.15-2.84.6-3.72,1.79-.5.68-.83,1.49-1.04,2.32s-.22,1.62-.23,2.46c-.03,2.14-.06,4.26-.09,6.4-.06,4.06-.11,8.12-.17,12.18-.06,4.16-.12,8.29-.18,12.45l-.02,1.62c0,.54.85.55.86.01.06-4.13.12-8.24.17-12.37s.11-7.92.17-11.88c.03-2.04.06-4.08.09-6.12l.04-3.15c.01-.74.19-1.47.45-2.16s.64-1.42,1.26-1.85c.55-.39,1.21-.6,1.86-.71.52-.09.99-.13,1.5-.13l3.03.04c3.64.05,7.28.03,10.92.08l1.57.02c.52,0,.55-.85.01-.86h0v-.02Z"/><path class="cls-9" d="M100.05,170.23c-4.82.13-9.65.11-14.47.07-4.82-.04-9.3-.13-13.97-.17-2.53-.04-5.07-.02-7.6-.08-2.66-.04-5.34-.12-7.99-.19-2.12-.03-4.21-.06-6.32-.16h-.2c-.54-.03-.55.83-.01.86.59.03,1.2.04,1.8.05,1.23.02,2.46.06,3.69.1,2.75.06,5.53.13,8.29.19,2.26.03,4.53.06,6.79.1,4.58.04,9.15.13,13.73.17,4.87.07,9.72.09,14.59-.02.57,0,1.11-.03,1.67-.05s.55-.88.01-.86h0Z"/><path class="cls-9" d="M42.4,65.9c-.06,6.12-.12,12.23-.21,18.35-.09,6.17-.12,12.35-.19,18.5-.06,6.17-.17,12.42-.26,18.64-.11,6.1-.27,12.17-.38,18.27-.11,6.1-.28,12.54-.36,18.79l-.03,2.46c0,.54.85.55.86.01.09-6.32.2-12.62.34-18.94.14-6.32.27-12.2.38-18.3.14-6.17.22-12.37.31-18.55.09-6.17.12-12.37.19-18.57.09-6.15.15-12.3.21-18.45.01-.74.02-1.5.03-2.24,0-.54-.85-.55-.86-.01h0l-.02.02Z"/><path class="cls-9" d="M50.44,169.78c-1.35-.02-2.73-.01-4.08-.11-.91-.06-1.79-.25-2.6-.7-1.98-1.16-1.84-3.74-1.94-5.73-.08-1.38-.06-2.76,0-4.13,0-.54-.83-.55-.86-.01-.07,1.3-.09,2.58,0,3.89.06,1.11.07,2.24.27,3.35.2,1.23.7,2.37,1.75,3.15.83.6,1.88.91,2.89,1.02,1.52.17,3.07.14,4.6.14.54,0,.55-.85.01-.86h-.05Z"/><path class="cls-5" d="M81.54,31.56c-.19-.3-.53-.55-.9-.55-.12-.05-.27-.08-.42-.08-.32,0-.64.11-.87.33s-.35.51-.38.83c-.08.64.33,1.23.94,1.39.61.18,1.38-.08,1.66-.69.18-.39.23-.86,0-1.23h-.02Z"/><path class="cls-19" d="M37.78,49.77c.01-1.01-.02-2.02-.03-3.03,0-.44-.53-.52-.76-.28-.64-.06-1.28-.14-1.92-.13-.59,0-.94.43-1.02.99-.11.64-.12,1.28-.17,1.92s-.09,1.33-.13,1.99c-.14,2.7-.17,5.41-.07,8.12,0,.3.04.62.28.82.24.22.56.25.88.26.64.06,1.3.04,1.94.03.22.22.74.13.74-.28h0c.15-3.47.25-6.96.22-10.43l.02.02Z"/><path class="cls-5" d="M64.99,182.6c.74.01.75-1.12.02-1.13s-.75,1.12-.02,1.13h0Z"/><path class="cls-5" d="M59.98,182.53c.74.01.75-1.12.02-1.13s-.75,1.12-.02,1.13h0Z"/><path class="cls-5" d="M55.2,182.47c.74.01.75-1.12.02-1.13s-.75,1.12-.02,1.13h0Z"/><path class="cls-5" d="M50.58,182.4c.74.01.75-1.12.02-1.13s-.75,1.12-.02,1.13h0Z"/><path class="cls-5" d="M106.81,182.7c.74.01.75-1.12.02-1.13s-.75,1.12-.02,1.13h0Z"/><path class="cls-5" d="M101.77,182.73c.74.01.75-1.12.02-1.13s-.75,1.12-.02,1.13h0Z"/><path class="cls-5" d="M97.02,182.76c.74.01.75-1.12.02-1.13s-.75,1.12-.02,1.13h0Z"/><path class="cls-5" d="M92.37,182.77c.74.01.75-1.12.02-1.13s-.75,1.12-.02,1.13h0Z"/><path class="cls-15" d="M84.12,182.69c0-.1-1.87-.15-4.18-.13s-4.18.12-4.17.22,1.87.15,4.18.13c2.31-.03,4.18-.12,4.17-.22Z"/><path class="cls-15" d="M34.24,87.96s.32.3.8.89c.24.3.51.68.74,1.17.23.49.41,1.08.52,1.75.11.67.13,1.42.11,2.23-.03.81-.05,1.68-.08,2.59-.05,1.83-.11,3.84-.16,5.95-.05,2.11-.09,4.12-.14,5.95-.02.91-.03,1.78-.05,2.6-.01.81-.02,1.57-.1,2.25-.07.68-.18,1.29-.35,1.81-.17.51-.37.94-.59,1.25-.05.08-.11.15-.16.22-.05.07-.1.13-.15.18-.1.1-.18.2-.26.27-.15.13-.23.21-.22.22,0,0,.1-.05.27-.16.09-.06.18-.15.29-.25.06-.05.11-.11.17-.18.06-.07.12-.13.18-.21.24-.31.48-.74.67-1.26.19-.53.32-1.15.41-1.84.09-.69.11-1.46.14-2.27.03-.81.05-1.68.08-2.59.05-1.83.11-3.84.16-5.95.05-2.11.09-4.12.14-5.95.02-.91.03-1.78.05-2.6,0-.82-.03-1.59-.16-2.28-.13-.69-.33-1.3-.59-1.8-.25-.5-.55-.88-.81-1.17-.07-.07-.13-.14-.19-.2-.06-.06-.12-.12-.18-.17-.11-.1-.2-.19-.29-.25-.16-.13-.25-.19-.26-.18Z"/><path class="cls-14" d="M59.64,120.13c-.06-.08-.04-1.05.08-1.23.6-.91,13.38-1.06,15.41-1.04,6.91.07,13.92.56,20.78,1.11,1.49.12,3.06-.5,4.47.62,1.61,1.27-.65,2.45-2.01,2.43-6.74-.09-13.72-.8-20.46-1.09-4.13-.17-8.5.27-12.63.03-.71-.04-5.45-.61-5.63-.83Z"/><path class="cls-14" d="M84.29,126.84c2.76.11,18.95.29,18.03,2.23-2.1,1.49-6.27,1.26-10.02,1.2-6.72-.1-22.68-.7-29.06-1.33-2.51-.25-8.48-1.37-4.72-2.47,2.11-.62,21.76.2,25.77.37Z"/><path class="cls-12" d="M110,101.44l-.05-6.35.07-38.76c-.15-3.51-3.06-6.27-6.57-6.24l-43.09-.25c-3.65.03-6.57,3.05-6.47,6.7l.05,6.35-.07,38.76c.15,3.51,3.06,6.27,6.57,6.24l43.09.25c3.65-.03,6.57-3.05,6.47-6.7Z"/><path class="cls-5" d="M102.55,74.69c.07-.47.4-.88.66-1.25.49-.72.8-1.54.83-2.41.03-.81-.21-1.66-.82-2.24-.33-.32-.73-.52-1.14-.69-.04-.05-.07-.09-.11-.14-.5-.54-1.26-.8-1.78-1.26-.22-.19-.38-.41-.46-.68,0-.01,0-.02,0-.03-.02-.09-.03-.18-.04-.29,0-.53.16-1.04.26-1.55.2-1.02.02-2.1-.55-2.96-.57-.86-1.44-1.46-2.45-1.67-.5-.1-1.01-.11-1.51-.02-.57.1-1.08.42-1.65.52-.33.06-.82-.02-.92-.39-.07-.25.02-.52,0-.78-.01-.26-.07-.5-.18-.74-.43-.97-1.49-1.49-2.51-1.52-.56-.02-1.11.08-1.64.24-.48.14-.94.33-1.43.44-.44.1-.9.16-1.33-.04-.43-.2-.7-.64-1.02-.98-.42-.45-.95-.76-1.53-.9-.66-.59-1.5-.97-2.38-1.02-1.03-.07-2.03.27-2.8.96-.38.34-.7.74-.93,1.19-.26.52-.32,1.12-.58,1.64-.15.3-.51.64-.86.51-.24-.09-.41-.33-.62-.47-.21-.14-.45-.24-.7-.3-1.04-.24-2.08.29-2.72,1.1-.35.43-.6.94-.8,1.46-.17.47-.3.95-.51,1.41-.18.41-.41.81-.83,1.04-.42.22-.93.18-1.39.23-.88.09-1.69.56-2.22,1.27-.23.31-.41.65-.53,1.02-.1.24-.17.49-.24.73-.1.34-.21.68-.44.95-.24.27-.57.44-.9.58-.76.31-1.59.47-2.21,1.03-.63.56-.9,1.39-.9,2.21,0,.87.28,1.71.75,2.44.24.39.56.81.61,1.28.05.47-.3.81-.57,1.16-.5.67-.65,1.55-.49,2.37.15.82.63,1.55,1.34,2,.37.23.82.41,1.08.77.26.36.29.8.27,1.22-.02.47-.11.93-.16,1.4-.05.52-.05,1.05.07,1.56.21.94.87,1.83,1.84,2.06.24.06.47.07.71.04.24-.03.48-.16.72-.14.36.03.52.47.52.79,0,.55-.2,1.07-.19,1.62,0,.48.11.95.29,1.39.37.9,1.07,1.6,1.97,1.98.89.37,1.93.35,2.84-.01.46-.18.9-.43,1.38-.51.4-.07.72.06,1.02.29.52.4.89,1.06,1.48,1.43.3.19.64.26,1,.21.16-.02.24-.21.21-.35-.04-.15-.17-.22-.31-.21-.07-.7,4.26-4.41,4.11-5.28-.18-1.1-5.81-5.12-5.81-5.12-.28,1.06,1.1-4.14,1.2-4.32.1-.17-1.37-5.87-2.69-7.04.59-1.05,13.06,4.09,13.13,4.32.18.58.81,2.14.9,2.32.09.18,1.29,5.43,1.05,4.36,0,0-1.32,5.87-1.53,6.95-.17.87-.43,2.68-.53,3.38-.14-.01-.28.05-.32.2-.04.14.04.33.2.36.35.07.69.01,1-.17.6-.35,1-.99,1.53-1.37.3-.22.63-.33,1.03-.25.49.1.92.36,1.36.56.89.4,1.93.45,2.83.11.91-.34,1.64-1.02,2.04-1.9.2-.44.31-.9.34-1.38.02-.55-.16-1.08-.13-1.63.02-.31.19-.75.55-.77.24-.01.48.13.71.17.24.04.48.04.72-.01.98-.19,1.67-1.06,1.91-1.99.13-.51.15-1.04.12-1.56-.03-.47-.11-.94-.11-1.41,0-.42.04-.86.32-1.21.28-.35.73-.51,1.11-.73.72-.42,1.23-1.13,1.41-1.95.18-.81.07-1.69-.41-2.38-.25-.36-.6-.71-.53-1.18Z"/><g id="Body"><path class="cls-3" d="M87.92,108.95c6.39-.05,12.78-.43,19.09-1.44.03-.03.08-.06.14-.07.36-.08.7-.18,1.03-.31-.08-.06-.15-.12-.23-.19-1.18-.97-2.28-2.02-3.47-2.97-1.27-1.02-2.67-1.86-4.09-2.65-2.93-1.62-6.01-2.95-9.07-4.28-.39-.17-.78-.34-1.18-.51-.14-.06-.32.06-.36.2-.05.17.05.3.2.36.47.21.94.41,1.41.61-1.35,1.81-3.5,2.85-5.69,3.22-2.68.45-5.46-.1-8.03-.9-1.06-.33-2.21-.78-2.84-1.73.54-.19,1.08-.38,1.62-.55.15-.05.25-.2.21-.35-.04-.14-.2-.26-.35-.21-1.97.63-3.9,1.38-5.8,2.19-2.03.86-4.03,1.79-5.99,2.8-.98.51-1.95,1.04-2.9,1.62-.07.04-.11.1-.13.16-.91.85-1.5,1.97-1.99,3.1-.17.38-.32.77-.47,1.15,3.19.07,6.39.18,9.58.3,6.43.24,12.87.5,19.3.45Z"/><path class="cls-1" d="M93.26,104.02s0-.03-.02-.02c.01.04.02.06.02.02Z"/><path class="cls-1" d="M69.27,100.2c.06-.13.14-.26.21-.39-.25.11-.49.22-.74.34.11.15.22.3.33.46.07-.15.14-.28.2-.41h0Z"/><path class="cls-1" d="M75.73,97.94l.3-.14v-.47c-.22.07-.46.14-.7.22.14.12.28.25.41.39h0Z"/><path class="cls-1" d="M64.56,108.36c.08-.18.16-.36.25-.53.38-.76.87-1.48,1.44-2.12-1.07-.31-2.09-.75-2.96-1.49-.3-.25-.57-.55-.81-.88-.55.31-.9.54-.98.63-.46.49-1.16,1.25-2.15,3.42-.11.23-.22.51-.34.81,1.85.04,3.7.1,5.55.16Z"/><path class="cls-1" d="M64.62,102.95h0c1.05.84,2.46,1.11,3.74,1.4.64.14.91,1.12.38,1.54-.88.7-1.63,1.55-2.17,2.54.68.02,1.37.05,2.05.08.31.01.62.02.93.03.15-.56.24-1.13.21-1.69-.05-.91,1.32-1.23,1.72-.43.44.88,1.05,1.65,1.81,2.27,1.11.04,2.22.08,3.32.11.07-.78-.49-1.53-1.06-2.06-.76-.72-1.66-1.31-2.59-1.82-.42-.13-.82-.34-1.16-.65-.35-.31-.31-.87-.05-1.21.3-.38.78-.41,1.19-.22.27.13.54.26.8.41.6.03,1.23-.45,1.45-1,.41-1.02-.03-2.13-.72-2.91-.32-.37-.66-.83-1.18-.63-.51.19-.98.58-1.37.96-.4.39-.72.83-.98,1.32-.09.17-.28.53-.39.84.02.02.03.05.05.07.51.95-.52,1.81-1.3,1.51-.39.11-.91-.03-1.07-.43-.29-.72-.69-1.41-1.19-2-1.08.52-2.08,1.03-2.92,1.48.15.19.33.35.5.5Z"/><path class="cls-1" d="M66.28,109.01s-.02.04-.02.06c-.4.93-.92,2.62.2,3.28.88.52,1.65-.71,2.02-1.36.33-.58.64-1.21.88-1.86-1.03-.04-2.05-.08-3.08-.11Z"/><path class="cls-1" d="M74.2,109.3c.72.42,1.76.87,2.21.07-.74-.02-1.48-.05-2.21-.07Z"/><path class="cls-1" d="M99.9,104.67c.17.34.36.68.57,1,.07.11.15.23.25.32,0,0,.02.01.02.02.54-.2.34-1.41.33-1.82-.03-.83-.1-1.65-.22-2.47,0-.02,0-.04,0-.06-.67-.37-1.37-.74-2.09-1.1.06.69.17,1.38.36,2.06.19.72.46,1.41.79,2.07h0Z"/><path class="cls-1" d="M93.2,103.89s0,.03.01.04c.07-.07.2-.16.25-.2.15-.14.3-.28.45-.43.5-.49.94-1.02,1.34-1.6.5-.72.91-1.49,1.23-2.3-.57-.28-1.13-.54-1.65-.79-.45.55-.82,1.15-1.11,1.79-.44.98-.91,2.41-.53,3.47h0Z"/><path class="cls-6" d="M69.29,103.44c.78.3,1.8-.56,1.3-1.51-.01-.03-.03-.05-.05-.07.11-.3.3-.66.39-.84.26-.49.59-.93.98-1.32.39-.38.86-.77,1.37-.96.53-.2.86.27,1.18.63.68.78,1.13,1.89.72,2.91-.22.55-.85,1.03-1.45,1-.27-.14-.54-.28-.8-.41-.41-.2-.89-.17-1.19.22-.26.34-.3.9.05,1.21.34.3.74.52,1.16.65.93.51,1.83,1.1,2.59,1.82.56.53,1.11,1.25,1.06,2.02.61.02,1.22.04,1.83.05.07-1.21-.57-2.35-1.41-3.2-.41-.41-.85-.79-1.33-1.14.15-.11.3-.23.43-.37,1.1-1.16,1.26-2.82.74-4.27-1.57-.73-2-1.51-2-1.51l.8-.38c-.13-.14-.27-.27-.41-.39-1.79.57-3.84,1.41-5.8,2.29-.07.13-.14.26-.21.39-.06.12-.13.26-.2.41-.1-.16-.21-.31-.33-.46-.58.27-1.16.54-1.71.81.51.59.9,1.27,1.19,2,.16.4.68.53,1.07.43Z"/><path class="cls-6" d="M73.23,108.67c-.74-.61-1.32-1.36-1.76-2.22-.4-.8-1.77-.48-1.72.43.03.55-.05,1.11-.2,1.65,1.23.05,2.45.09,3.68.14Z"/><path class="cls-6" d="M63.29,104.26h0c.87.74,1.89,1.17,2.96,1.49-.57.64-1.06,1.35-1.44,2.12-.08.16-.15.32-.23.49.67.02,1.33.05,2,.07.54-.97,1.28-1.81,2.15-2.5.53-.42.26-1.4-.38-1.54-1.28-.28-2.69-.55-3.74-1.4-.18-.14-.35-.31-.5-.5-.65.34-1.2.65-1.63.89.24.33.51.63.81.88Z"/><path class="cls-6" d="M93.15,97.85c-1.1,1.47-1.78,3.24-1.9,5.12-.08,1.25.57,3.04,2.11,2.86.77-.09,1.37-.74,1.89-1.26.53-.53,1.01-1.11,1.45-1.72.15-.21.29-.42.42-.63.31,1.6.92,3.14,1.82,4.46.42.62,1.01,1.16,1.81,1.15.77-.01,1.49-.53,1.82-1.2.37-.76.36-1.6.33-2.43-.02-.48-.05-.95-.09-1.43-.58-.36-1.25-.75-1.97-1.14,0,.02,0,.04,0,.06.12.82.19,1.65.22,2.47.01.41.21,1.63-.33,1.82,0,0,0-.01-.02-.02-.11-.08-.18-.21-.25-.32-.21-.32-.4-.66-.57-1-.33-.66-.6-1.35-.79-2.07-.18-.68-.3-1.37-.36-2.06-.76-.39-1.52-.76-2.26-1.12-.32.8-.73,1.57-1.23,2.3-.4.58-.84,1.11-1.34,1.6-.15.15-.3.29-.45.43-.04.04-.18.12-.25.2,0-.02-.01-.03-.01-.04-.38-1.06.09-2.48.53-3.47.29-.64.66-1.25,1.11-1.79-1.87-.88-3.24-1.49-3.24-1.49l-.27.46c-.08.14-.18.28-.31.43.65,0,1.31-.09,1.94-.15.06,0,.12-.01.18-.02h0Z"/><path class="cls-6" d="M93.26,104.02s0,.01-.02-.02c.01,0,.02,0,.02.02Z"/></g><path class="cls-5" d="M70.79,82.64c-.19-.18-.32-.39-.45-.62-.14-.26-.28-.53-.4-.8-.22-.49-.5-1.07-.41-1.62.06-.38.31-.68.62-.88.2-.12.37-.19.61-.23.19-.03.41-.01.63.06.15.05.32-.05.36-.2.05-.16-.05-.31-.2-.36h0c-1-.34-2.23.27-2.54,1.29-.2.68.06,1.37.32,1.99.14.32.29.63.45.94.15.27.31.55.53.78"/><path class="cls-15" d="M95.25,98.96c-.15-.13-1.13,1.02-3.11,2.3-.49.32-1.05.64-1.67.95-.62.29-1.29.6-2.02.84-1.46.5-3.14.82-4.9.83-1.77,0-3.45-.33-4.91-.82-.73-.24-1.4-.54-2.03-.83-.61-.31-1.18-.62-1.67-.95-1.98-1.28-2.96-2.43-3.11-2.3-.06.05.12.39.54.94.42.55,1.11,1.28,2.09,2.04.49.38,1.06.76,1.69,1.13.64.35,1.34.71,2.12.99,1.54.59,3.35.97,5.27.98,1.92-.01,3.73-.39,5.27-.98.78-.29,1.48-.64,2.12-1,.63-.37,1.2-.75,1.69-1.13.98-.77,1.67-1.5,2.09-2.05.42-.55.59-.89.53-.94Z"/><path class="cls-20" d="M93.81,76.81c-1.12-.72-1.64-.38-1.64-.38,0,0-.51.74-.9,1.06-.03-.2.89-10.13-6.11-11.6-2.7-.57-5.77-.25-8.29,1.07-.85.45-1.56,1.05-2.14,1.75l-.48.14s.1.06.25.15c-.66.88-1.14,1.9-1.47,2.98-.06,2.31-.24,4.63.2,6.91-.14.22-.32.51-.32.51,0,0-.51-.44-.83-.56-.33-.12-.62-.59-.62-.59,0,0-1.08-.15-1.62.39-.55.54-.72,1.43-.36,2.24.37.81,1.1,1.49,1.56,1.91,1.03.96,2.1.57,2.1.57,0,0,.95,3.28,1.73,4.45.62.94,2.18,2.05,2.18,2.05,0,0-.22,6.57.12,6.58.34.01,5.8.31,6.39.25.59-.06,4.04-.49,4.04-.49,0,0-.11-1.8-.13-2.1-.02-.3-.16-4.29-.16-4.29,0,0,4.12-.93,4.31-7.72-.06-.04.04-.57.04-.6,0-.08,0-.2,0-.34v-.06s1.38.78,2.08-.92c.71-1.7,1.19-2.66.07-3.38Z"/><path class="cls-5" d="M91.56,87.44c-.12-.1-1.31,1.7-6.17,3.07-5.58.58-7-.95-7.01-.22-.01.13.71.59,1.99.78.64.09,1.41.18,2.28.21.86.03,1.83,0,2.83-.15,1.01-.15,1.95-.43,2.76-.78.41-.17.78-.37,1.12-.58.17-.1.33-.21.48-.31.07-.05.15-.11.22-.16.04-.03.07-.05.1-.08.03-.03.07-.05.1-.08.52-.43.88-.84,1.08-1.15.05-.08.1-.15.13-.21.03-.06.06-.12.08-.17.04-.09.04-.15.02-.17Z"/><g id="Face"><path class="cls-17" d="M80.71,85.57c.76.55,1.86.47,2.56-.14.12-.1.11-.3,0-.41-.11-.12-.29-.11-.41,0-.24.21-.59.34-.9.35-.36.01-.67-.07-.96-.28-.13-.09-.32-.03-.4.1-.09.14-.03.31.1.4h0Z"/><path class="cls-5" d="M79.43,79.38c-.59.44-.61,1.39.02,1.81.33.22.7.25,1.07.12.14-.05.29-.13.43-.11s.28.13.4.2c.31.2.63.31,1,.29.32-.01.65-.13.91-.33.14-.1.24-.24.35-.37.02-.02.04-.05.06-.05-.03.02.02,0,.03,0,.03,0,.13.01.19.02.17.03.34.07.52.04.2-.04.37-.15.5-.31.29-.37.23-.86.08-1.28-.07-.21-.19-.41-.38-.52-.22-.12-.46-.12-.67.02-.13.09-.14.29-.05.41.1.13.28.14.41.05-.04.02,0,0,.03.02,0,0,.05.05.06.07.07.11.1.26.13.38.02.12.03.27,0,.35-.03.09-.09.18-.16.21-.03.01-.08.02-.1.02-.06,0-.13-.02-.19-.03-.14-.03-.29-.06-.44-.04-.16.02-.31.1-.42.22-.1.11-.16.21-.26.29-.17.14-.36.21-.59.23-.09,0-.2,0-.32-.03-.07-.02-.22-.08-.31-.14-.28-.18-.55-.36-.9-.33-.15.01-.3.07-.45.12-.05.02-.1.04-.15.05-.07.02-.12.02-.16.02-.22-.02-.44-.16-.5-.39-.05-.2.04-.45.22-.58.3-.22-.06-.68-.36-.46h0Z"/></g><g id="Open_eyes"><path class="cls-5" d="M77.69,75.75c.18.02.35-.11.38-.3s-.11-.35-.3-.38-.35.11-.38.3.11.35.3.38h0Z"/><path class="cls-5" d="M77.73,76.01s-.05,0-.07,0h0c-.16-.02-.3-.1-.4-.23-.1-.13-.14-.28-.12-.44.04-.32.34-.56.66-.52.32.04.56.34.52.66-.02.16-.1.3-.23.4-.11.08-.24.13-.37.13ZM77.72,75.49s.08-.03.09-.07c0-.04-.03-.08-.07-.09-.04,0-.08.03-.09.07,0,.02,0,.04.02.06s.03.03.05.03h0Z"/><path class="cls-5" d="M85.77,74.91v.05s0,.08,0,.11c0,.04.02.07.05.1.02.03.05.05.09.07.03.02.07.03.11.04h.08c.05,0,.1-.03.14-.06l.05-.05s.05-.09.06-.14v-.05s0-.08,0-.11c0-.04-.02-.07-.05-.1-.02-.03-.05-.05-.09-.07-.03-.02-.07-.03-.11-.04h-.08c-.05,0-.1.03-.14.06l-.05.05s-.05.09-.06.14h0Z"/><path class="cls-5" d="M86.01,75.54h-.01c-.08,0-.15-.03-.21-.07-.07-.03-.12-.08-.17-.14-.04-.05-.07-.11-.09-.18-.02-.07-.03-.15-.02-.23v-.03c.02-.1.05-.19.11-.26l.02-.03.08-.08c.08-.06.16-.1.26-.11h.03s.09,0,.09,0h.01c.08,0,.15.03.21.07.07.03.12.08.17.14.04.05.07.11.09.18.02.07.03.15.02.23v.03c-.02.1-.05.18-.11.26l-.02.03-.08.08c-.08.06-.16.1-.26.11h-.03s-.09,0-.09,0ZM86.03,75.01h0s0,0,0,0ZM86.03,75.01h.02s.02,0,.02,0l.02-.02s0,0,0,0v-.05s-.02-.03-.02-.03h-.02s-.02.02-.02.02c0,0,0,0,0,0v.04s0,0,0,0v.02ZM86.08,74.91s0,0,0,0h0Z"/></g><path class="cls-21" d="M89.48,96.78l-.07-.61s.03,0,.04,0c.16-.03.25-.21.21-.36-.04-.16-.2-.24-.36-.21-1.74.3-3.49.53-5.25.63-1.71.1-3.42.09-5.13-.02-1.02-.07-2.03-.17-3.04-.29-.16-.02-.3.14-.3.29,0,.17.13.28.29.3h0s0,0,.01,0l.02.95-1.9.65h0c.17.34.93,1.22,1.94,1.79,1.02.57,3.19,1.06,4.13,1.14s2.8.36,3.85.31c1.05-.04,2.77-.37,4.43-1.09,1.66-.72,3.14-2.72,3.14-2.72l-2.01-.77Z"/><path class="cls-5" d="M76.99,90.12c-.02-.18-.05-.35-.08-.53-.19-.05-.38-.12-.56-.21.13.86.24,1.72.35,2.58.15,1.23.28,2.47.36,3.71.03.57.06,1.15.05,1.72,0,.34.52.35.52,0,.01-1.1-.07-2.21-.18-3.31-.13-1.33-.29-2.66-.47-3.98Z"/><path class="cls-5" d="M87.84,94.18c-.13-1.33-.29-2.66-.47-3.98-.01-.08-.02-.16-.03-.24-.17.02-.31.32-.48.35.1.67.15,1.06.23,1.74.15,1.23.28,2.47.36,3.71.03.57.06,1.15.05,1.72,0,.34.52.35.52,0,.01-1.1-.07-2.21-.18-3.31Z"/><path class="cls-5" d="M102.25,51.57c4.18-.22,7.01-.93,6.76,4.58-.02.78-.07,1.65.03,2.21.08.64,1.25.91,1.65.36,1.29-6.59-.16-9.83-5.64-10.26-.6-.03-1.23-.05-1.77-.05-.44,0-.9.03-1.38.07-1.88.31-1.55,3.19.35,3.08Z"/><path class="cls-5" d="M101.91,48.49c.29-.02.59-.04.89-.06-.37,0-.68.03-.89.06,0,0,0,0,0,0,0,0,0,0,0,0Z"/><path class="cls-5" d="M55.08,98.95s-.02-.02-.03-.03c0,0,.02.02.03.03Z"/><path class="cls-5" d="M52.26,100.38s0,.01,0,.02c-.07.77.03,1.63-.01,2.27.11,2.28.8,4.77,2.95,5.8,1.34.64,2.96.55,4.44.61,1.1-.1,2.98.41,2.93-1.12-.07-.5-.41-.85-1.1-.89-1.59-.18-3.24.09-4.84-.54-3.48-1.52,1.16-8.2-3.07-8.03,0,0,0,0,0,0,0,0,0,0,0,0-.93.24-1.22,1.01-1.29,1.89Z"/><path class="cls-5" d="M54.73,98.69c-.34-.19-.77-.26-1.18-.19.51-.03.89.04,1.18.19Z"/><path class="cls-5" d="M55.12,99c.09.1.16.22.22.35-.06-.13-.13-.25-.22-.35Z"/><path class="cls-5" d="M53.55,98.49c-.41.06-.7.28-.9.57.21-.27.49-.48.9-.57Z"/><path class="cls-5" d="M108.54,108.64c1.66-1.72,1.43-4.22,1.42-6.44-.04-.62.05-1.34-.39-1.78-.31-.35-.94-.41-1.25-.11-.44.4-.34,1.16-.38,1.75-.11,1.62.16,3.53-1.17,4.83-1.5,1.06-3.23.49-4.85.41-.76-.06-1.66-.15-2.18.51-.5.54-.56,1.44-.1,2.03,0,0,0,.01.01.02.03.04.06.07.09.11.63.54,1.51.42,2.28.48,2.26-.02,4.92.07,6.51-1.79Z"/><path class="cls-5" d="M99.75,109.95s0,0,0,0c0,0,0,0,0,0,.08.08.19.15.32.22-.11-.06-.22-.13-.32-.22Z"/><path class="cls-5" d="M57.58,47.66c-.33,0-.61.02-.79.04.26-.02.53-.03.79-.04Z"/><path class="cls-5" d="M51.95,54.59c.12,1.11-.22,3.24,1.22,3.47,1.56.01.9-1.91.99-3.02.02-1.25-.03-2.79.92-3.84,1.69-1.65,4.38-.51,6.18-.6.72.06,1.28-.44,1.39-1.16.13-.7-.34-1.48-1.12-1.57-1.55-.23-3.16-.24-4.74-.17h0c-.58.05-1.09.17-1.55.35-2.4,1-3.42,3.96-3.28,6.55Z"/><circle class="cls-18" cx="41.32" cy="49.92" r="22.26" transform="translate(-12.58 85.9) rotate(-84.12)"/><path class="cls-15" d="M54.57,40.72l-1.63-1.56c-.49-.47-1.27-.45-1.74.04l-14.77,15.41-5.62-5.39c-.49-.47-1.27-.45-1.74.04l-1.56,1.63c-.47.49-.45,1.27.04,1.74l6.38,6.12s.07.1.12.14h0c1.39,1.33,3.6,1.29,4.93-.1l15.64-16.31c.47-.49.45-1.27-.04-1.74Z"/><path class="cls-12" d="M88.79,157.66c2.43.03,2.49-3.7.05-3.73-2.43-.03-2.49,3.7-.05,3.73h0Z"/><path class="cls-12" d="M81.61,157.74c2.43.03,2.49-3.7.05-3.73-2.43-.03-2.49,3.7-.05,3.73h0Z"/><path class="cls-5" d="M73.99,157.87c2.43.03,2.49-3.7.05-3.73s-2.49,3.7-.05,3.73h0Z"/><path class="cls-4" d="M174.66,115.96c.81-1.7,4.14-5.88,4.87-5.94.72.64,1.41.99,1.2,1.93l-1,3.38-.64,1.75c.23.24.63.12.68-.21l2.15,2.98c1.28,1.77,2.84,3.32,4.63,4.58l.73.51-3,3.48,1.15,11.55-10.17-2.14.83-9.45s-2.25-10.72-1.44-12.42h0Z"/><path class="cls-3" d="M146.54,153.9c-2.51-2.53-4.94-5.23-6.81-8.29-1.36-2.23-2.67-5.01-2.07-7.69.44-1.98,1.87-3.36,3.56-4.34l-.02.96c-.01.52.3.99.77,1.2.53.16,1.32.39,2.3.7l2.09.63s.05.01.07.02c.65.23,1.23.45,1.78.66,6.82,2.37,16.92,6.47,22.4,11.48,0,0,0,0,0,0,0,0,0,0,0,0l2.68-11.6,13.01,1.33s1.93,26.04-3.33,28.17c0,0-.01,0-.02.01-1.88,1.05-7.03,4.7-22.95-3.62,0,0-10.85-7.01-13.44-9.62Z"/><polygon class="cls-23" points="170.6 149.22 170.6 149.22 170.6 149.22 170.6 149.22"/><path class="cls-10" d="M185.43,140.45s.02,0,.03,0c.26-.01.46-.24.45-.5l-.64-11.55,2.03-2.86c.15-.21.1-.51-.11-.66-.21-.15-.51-.1-.66.11l-2.22,3.13.66,11.88c.01.25.22.45.47.45Z"/><path class="cls-10" d="M176.11,128.24c-.1-.47-.6-2.92-1.01-5.52-.85-5.32-.62-6.61-.37-7.13.7-1.47,4.15-6.12,5.26-6.21h.09s.09.02.09.02c1.13.36,1.38,2.05,1.14,3.13l-.02.07-1.61,2.82c-.19.33-.12.75.18,1.06.02.02.04.05.06.07.71.44,4.55,3.14,2,8.24-.08.17-.25.26-.42.26-.07,0-.14-.02-.21-.05-.23-.12-.33-.4-.21-.63,2.37-4.75-1.54-6.96-1.71-7.05,0,0,0,0,0,0-.02-.01-.04-.02-.05-.04,0,0-.02-.01-.02-.02-.01-.01-.03-.03-.04-.04,0,0-.02-.02-.02-.02,0-.01-.01-.02-.02-.03,0-.01-.02-.03-.03-.04,0,0,0,0,0,0-.57-.62-.69-1.49-.3-2.17l1.54-2.69c.14-.73-.05-1.62-.4-1.88-.9.54-3.77,4.27-4.42,5.63-.54,1.13.62,8.04,1.47,12.12l.02.08-1.34,9.69c-.03.24-.24.41-.47.41-.02,0-.04,0-.07,0-.26-.04-.44-.27-.4-.53l1.32-9.53Z"/><path class="cls-15" d="M175.55,143.37c.05-.21,2.2.13,4.8.76,2.6.63,4.67,1.3,4.62,1.51s-2.2-.13-4.8-.76c-2.6-.63-4.67-1.3-4.62-1.51Z"/><g id="Body-2"><path class="cls-3" d="M183.78,167.15c2.16-1.52,3.83-15.24,2.5-28.19,0,0-12.9-1.61-13.01-1.33-1.24,3.25-1.32,11.41-3.28,10.2-3.45-2.13-17.28-9.93-19.06-10.87-3.67-1.95-7.53-3.53-11.37-5.12-.49-.2-.98-.41-1.47-.61-.18-.07-.4.08-.44.25-.06.21.07.37.25.44.59.25,1.18.49,1.77.73-1.63,2.27-4.29,3.62-7,4.12-3.32.62-6.79,0-9.99-.94-1.33-.39-2.77-.93-3.57-2.09.66-.25,1.33-.49,2-.72.18-.06.31-.25.25-.44-.05-.18-.26-.32-.44-.25-2.43.83-4.81,1.8-7.16,2.84-2.5,1.11-4.97,2.31-7.38,3.61-1.21.66-2.4,1.34-3.56,2.07-.09.05-.13.13-.16.21-1.11,1.08-1.82,2.48-2.41,3.9-.51,1.24-.96,2.5-1.36,3.78-.84,2.68-1.49,5.42-2.08,8.17-.65,3.03-1.21,6.09-1.74,9.14-.53,3.04-1.02,6.08-1.54,9.11-.45,2.66-.91,5.33-1.45,7.98-.06.29-.12.57-.18.86-.02.09,0,.16.02.23.04.13.15.23.33.23,5.81,0,11.62-.02,17.43-.05.04,0,.09,0,.13,0,2.16-.01,4.32-.02,6.48-.04,7.89-.05,15.78-.1,23.68-.14,4.52-.02,9.03-.03,13.55-.03.12,0,.21-.05.27-.12.06-.06.1-.15.09-.24-.07-.92.03-1.82.18-2.72.16-.97.32-1.93.47-2.9.3-2.02.58-4.05.8-6.09.22-2,.38-4.02.46-6.03.02-.55.03-1.1.04-1.65.53.37,11.6,4.5,20.16,4.84,3.42.14,4.82-.06,7.78-2.14Z"/><path class="cls-3" d="M117.56,116.72c.54.42.96.37.96.37l-.49-2.66s-.86.22-1.43.23c-.57,0-1.24-.76-.98-.29.26.48,1.4,1.94,1.93,2.36Z"/><path class="cls-1" d="M150.14,182.47c-1.04-1-2.88-2.16-4.41-1.79.02.03.04.06.06.1.26.38.55.74.83,1.1.61.76,1.25,1.5,1.91,2.21.01.02.03.03.04.05,1.14,0,2.14-.02,2.95-.02-.41-.59-.87-1.14-1.39-1.64h0Z"/><path class="cls-1" d="M113.33,167.94s.04-.03,0,0h0Z"/><path class="cls-1" d="M153.55,175.33c-.09-.05-.14-.07-.2-.09-.03.43-.06.86-.06,1.3-.02,1.12.04,2.25.21,3.36.11.75.26,1.49.45,2.22.18-1.47.54-3.49.86-5.49-.35-.51-.76-1.02-1.25-1.31h0Z"/><path class="cls-1" d="M142.12,140.42s-.01-.04-.02-.03c.02.04.03.07.02.03Z"/><path class="cls-1" d="M112.22,136.22c.08-.16.16-.32.25-.48-.3.14-.61.29-.91.43.15.18.29.37.42.56.08-.18.16-.36.24-.51h0Z"/><path class="cls-1" d="M120.14,133.24l.36-.18v-.58c-.29.09-.58.18-.88.29.18.15.35.31.52.48h0Z"/><path class="cls-1" d="M161.73,153.49c-.84.1-1.69.15-2.54.16.08,1.03.16,2.06.22,3.1.42-.78.92-1.51,1.41-2.17.29-.38.59-.74.9-1.09Z"/><path class="cls-1" d="M162.99,145.87c-1.52-1.35-3.11-2.74-4.6-3.95-.32,1.04-.24,2.19-.11,3.25.09.77.22,1.54.33,2.31,1-.52,2.06-.96,3.15-1.28.41-.12.82-.23,1.23-.32Z"/><path class="cls-1" d="M108.62,175.12c.47.47.39,1.14,0,1.62-.64.79-1.65,1.4-2.69,1.43-1.09.03-2.07-.66-2.41-1.7-.24-.72-.2-1.48.01-2.22-.69.27-1.42.5-2.16.47-1.99-.08-2.93-1.86-2.55-3.67.37-1.75,1.56-3.09,3.07-3.91-2.26-1.08-4.17-2.75-3.51-5.36.47-1.86,2.46-2.63,4.21-2.26,1.87.4,3.22,2.03,4.51,3.31,1.05,1.04-.57,2.65-1.62,1.62-.91-.9-1.86-2.14-3.1-2.61-.7-.26-1.78-.19-1.84.74-.07,1.13,1.05,1.85,1.93,2.3,1.23.63,2.57,1.07,3.9,1.43.6.16.96.81.8,1.41-.18.65-.8.89-1.41.8-1.88-.28-4.09.98-4.68,2.81-.09.27-.25.81.02,1.03.27.22.79.03,1.08-.05,1.39-.41,2.74-1.09,4.08-1.64,1.05-.43,1.96,1.2,1.11,1.91-.81.68-1.67,1.7-1.73,2.81-.06,1.06,1.02.15,1.35-.26.39-.48,1.21-.4,1.62,0h0ZM148.39,161.91c-.1,1.56-1.35,2.64-2.7,3.22-1.22.52-2.71.81-4.12.69.49.82.98,1.64,1.42,2.49.8,1.51,1.24,3.42.21,4.94-1.01,1.51-2.91,1.76-4.42.87-1.52-.89-2.44-2.46-3.16-4-.34-.73-.64-1.47-.9-2.23-.53,1.18-1.07,2.35-1.66,3.5-.45.88-1.14,1.68-2.12,1.95-1.03.28-2.16-.08-2.7-1.02-.49-.85-.42-1.95-.32-2.89.1-.99.29-1.97.62-2.92.44-1.26,1.06-2.45,1.85-3.51-1.6-.39-3.19-.83-4.73-1.39-1.43-.52-3-1.37-3.5-2.91-.5-1.53.36-3.08,1.77-3.74,1.93-.9,4.16-.56,6.11.36-.38-1.59-.53-3.24-.42-4.89.05-.73.69-1.31,1.45-1.1,1.75.49,3.14,1.83,3.9,3.46.06.13.12.25.17.38.05-.12.11-.23.16-.35.39-.81.87-1.58,1.42-2.3.55-.72,1.14-1.47,1.98-1.87,1.67-.79,3.56.03,4.57,1.48,1.09,1.56.87,3.71.27,5.41-.39,1.1-.91,2.13-1.56,3.08.42-.04.83-.11,1.25-.15.87-.09,1.75-.08,2.59.2,1.43.47,2.68,1.64,2.58,3.25h0Z"/><path class="cls-1" d="M144.6,160.71c-.75-.1-1.53.06-2.27.14-.99.12-1.97.15-2.93-.14-.83-.25-1.11-1.28-.5-1.91,1.28-1.32,2.27-2.96,2.71-4.75.29-1.2.23-3.24-1.4-3.44-.66-.08-1.14.59-1.51,1.05-.52.65-.96,1.38-1.33,2.12-.81,1.61-1.25,3.4-1.31,5.19-.05,1.47-2.25,1.47-2.29,0-.06-2.12-.16-5.15-1.87-6.68.11,1.86.56,3.68,1.37,5.38.08.12.13.24.15.36.14.5-.01,1.04-.5,1.33-.5.29-1.28.15-1.56-.4-1.17-1.13-2.6-1.87-4.2-2.18-.64-.12-1.31-.12-1.93.08-.44.14-.83.39-.91.73-.25,1.04,1.66,1.7,2.47,1.96,1.97.64,3.98,1.18,6,1.63.85.19,1.09,1.32.5,1.91-1.04,1.03-1.89,2.27-2.41,3.64-.48,1.24-.92,2.82-.72,4.16.02.16.09.23.05.24.19,0,.35-.14.47-.26.47-.49.71-1.3.99-1.9.78-1.7,1.57-3.39,2.35-5.09.4-.87,1.92-.66,2.09.27.34,1.86.91,3.68,1.76,5.37.37.74.77,1.45,1.35,2.04.37.37.98.9,1.55.78.54-.11.72-.71.75-1.19.04-.82-.43-1.6-.83-2.28-1.02-1.75-2.08-3.48-3.12-5.22-.76-1.27,1.17-2.37,1.97-1.15.67,1.02,2.11,1.07,3.2.99,1.06-.08,2.51-.37,3.19-1.29.18-.24.24-.58.06-.84-.28-.42-.93-.61-1.41-.67h0Z"/><path class="cls-1" d="M158.69,150.11c-.26.21-.79.74-.54,1.14.1.16.27.12.49.13.49.01.98,0,1.46-.03,1.89-.1,3.74-.44,5.55-.98,1.27-.38,1.97,1.43.88,2.09-2.61,1.57-4.71,4.04-5.75,6.92-.11.3-.5,1.17-.16,1.42.45.34,1.2-.47,1.43-.72,1.34-1.44,2.56-3.01,3.83-4.51.71-.84,2.34.06,1.91,1.11-.86,2.09-1.47,4.31-1.73,6.56-.1.86-.21,1.78-.1,2.64.07.55.27,1.3.68,1.55.53.32,1.17-.18,1.47-.65.51-.82.6-1.89.72-2.83.29-2.4.33-4.82.13-7.22-.09-1.09,1.68-1.61,2.13-.58.59,1.35,1.21,2.95,2.53,3.76.41.25,1.14.6,1.64.38.4-.17.28-.96.22-1.33-.12-.77-.44-1.5-.86-2.17-2.37-2.4-4.54-4.5-5.61-5.46-.91-.82-2.28-2.08-3.86-3.51-.63.07-1.25.18-1.87.33-1.55.37-3.35.94-4.61,1.96h0Z"/><path class="cls-1" d="M106.5,139.72c1.32,1.02,3.08,1.33,4.68,1.65.8.16,1.15,1.38.5,1.91-1.31,1.08-2.37,2.43-3.02,4.01-.47,1.16-1.09,3.28.32,4.08,1.11.63,2.04-.92,2.48-1.74.84-1.55,1.62-3.39,1.5-5.18-.08-1.13,1.62-1.56,2.13-.58.71,1.35,1.73,2.49,3.03,3.28.87.53,2.62,1.52,3.23.2.56-1.21-.32-2.39-1.19-3.19-.96-.88-2.09-1.6-3.26-2.21-.52-.15-1.02-.41-1.46-.78-.44-.38-.41-1.08-.09-1.5.36-.48.96-.53,1.47-.29.34.15.67.32,1.01.49.75.03,1.51-.59,1.78-1.27.49-1.27-.09-2.65-.96-3.59-.41-.45-.83-1.02-1.48-.76-.63.25-1.21.75-1.68,1.22-.48.49-.87,1.05-1.19,1.66-.11.21-.34.67-.47,1.05.02.03.04.06.06.09.65,1.17-.6,2.26-1.58,1.9-.48.14-1.13-.02-1.34-.51-.38-.89-.89-1.73-1.53-2.46-1.33.67-2.56,1.33-3.6,1.9.2.23.41.43.64.61h0Z"/><path class="cls-1" d="M153.36,175.14c.03-.07.02-.16,0,0h0Z"/><path class="cls-1" d="M150.38,141.08c.22.42.46.83.73,1.23.09.13.19.29.32.39.01,0,.02.02.02.02.66-.26.4-1.76.37-2.27-.05-1.03-.16-2.05-.32-3.07,0-.03,0-.05-.01-.08-.84-.44-1.72-.88-2.62-1.32.08.86.25,1.71.49,2.55.26.89.6,1.74,1.03,2.56h0Z"/><path class="cls-1" d="M142.05,140.26s.01.03.02.05c.08-.09.25-.2.3-.25.19-.17.37-.35.55-.54.61-.62,1.15-1.29,1.63-2.02.6-.91,1.09-1.87,1.48-2.88-.72-.33-1.42-.65-2.07-.94-.55.69-1,1.45-1.34,2.25-.52,1.23-1.07,3.01-.58,4.32h0Z"/><path class="cls-6" d="M104.89,141.33c1.09.9,2.37,1.41,3.71,1.78-.7.81-1.29,1.7-1.74,2.66-.8,1.7-1.41,3.75-.67,5.58.65,1.61,2.23,2.69,3.99,2.36,1.55-.29,2.63-1.71,3.32-3.02.53-1.01,1.05-2.13,1.39-3.28.44.45.91.86,1.42,1.24,1.32.97,3.09,1.85,4.77,1.56,1.61-.28,2.57-1.78,2.73-3.31.17-1.6-.7-3.08-1.81-4.17-.51-.5-1.08-.96-1.67-1.39.19-.14.37-.3.53-.48,1.34-1.46,1.51-3.53.83-5.32-1.96-.87-2.52-1.83-2.52-1.83l.99-.5c-.17-.17-.34-.33-.52-.48-2.21.75-4.74,1.83-7.15,2.97-.09.16-.17.32-.25.48-.07.16-.16.33-.24.51-.13-.19-.27-.38-.42-.56-.72.35-1.43.7-2.11,1.04.64.72,1.15,1.56,1.53,2.46.21.49.85.65,1.34.51.97.35,2.22-.74,1.58-1.9-.02-.03-.04-.06-.06-.09.13-.38.36-.83.47-1.05.32-.61.71-1.17,1.19-1.66.47-.48,1.05-.97,1.68-1.22.65-.26,1.07.31,1.48.76.87.95,1.45,2.33.96,3.59-.26.68-1.03,1.3-1.78,1.27-.33-.17-.67-.33-1.01-.49-.52-.24-1.11-.19-1.47.29-.32.42-.35,1.13.09,1.5.43.37.93.63,1.46.78,1.17.61,2.3,1.33,3.26,2.21.87.8,1.75,1.97,1.19,3.19-.61,1.31-2.35.33-3.23-.2-1.3-.8-2.32-1.94-3.03-3.28-.51-.98-2.21-.55-2.13.58.12,1.79-.66,3.63-1.5,5.18-.44.82-1.37,2.37-2.48,1.74-1.41-.8-.8-2.91-.32-4.08.64-1.58,1.71-2.93,3.02-4.01.65-.54.3-1.75-.5-1.91-1.6-.32-3.36-.63-4.68-1.65-.22-.17-.44-.38-.64-.61-.79.44-1.48.83-2.01,1.15.3.4.65.77,1.03,1.08h0Z"/><path class="cls-6" d="M107,175.12c-.33.4-1.41,1.31-1.35.26.06-1.11.92-2.13,1.73-2.81.85-.71-.06-2.34-1.11-1.91-1.34.55-2.69,1.23-4.08,1.64-.28.08-.81.27-1.08.05-.26-.21-.1-.76-.02-1.03.59-1.83,2.8-3.09,4.68-2.81.61.09,1.23-.15,1.41-.8.16-.6-.2-1.24-.8-1.41-1.33-.36-2.67-.8-3.9-1.43-.88-.45-2-1.16-1.93-2.3.06-.93,1.14-1,1.84-.74,1.23.46,2.19,1.71,3.1,2.61,1.05,1.04,2.66-.58,1.62-1.62-1.29-1.28-2.65-2.91-4.51-3.31-1.75-.37-3.74.39-4.21,2.26-.66,2.61,1.25,4.28,3.51,5.36-1.51.82-2.71,2.16-3.07,3.91-.38,1.81.56,3.59,2.55,3.67.75.03,1.47-.2,2.16-.47-.21.74-.25,1.49-.01,2.22.35,1.04,1.32,1.73,2.41,1.7,1.04-.03,2.04-.64,2.69-1.43.39-.48.47-1.15,0-1.62-.4-.4-1.22-.48-1.62,0h0Z"/><path class="cls-6" d="M118.11,181.02c1.54-.92,2.89-2.16,3.87-3.67.6-.93.84-2.09.24-3.07-.47-.76-1.33-1.19-2.19-1.34-1.79-.32-3.72.25-5.36,1,.46-1.2.78-2.46.89-3.78.13-1.45.1-3.48-1.37-4.29-1.74-.96-3.23,1.17-4.04,2.42-1.09,1.69-1.69,3.65-1.82,5.65-.04.62.56,1.14,1.14,1.14.65,0,1.1-.52,1.14-1.14.11-1.6.64-3.14,1.51-4.49.21-.33.44-.65.7-.95.12-.13.25-.26.37-.4,0,0,0,0,0,0,.11.32.11.6.12.96.04,3.04-1.37,5.89-3.15,8.3-.26.31-.51.63-.74.96-.74,1.05.98,2.4,1.79,1.38.23-.29.45-.58.67-.88,1.04-1.24,2.37-2.23,3.85-2.89.85-.38,1.79-.66,2.71-.78.55-.07,1.36-.09,1.76.26.03.02.06.12.06.07.03.13,0,.2-.06.34-.19.43-.54.83-.84,1.18-.63.72-1.35,1.35-2.15,1.87-1.4.9-2.98,1.47-4.63,1.63-.25.01-.5.03-.75.05-1.45.1-1.48,2.32,0,2.29.31,0,.63-.03.94-.06,1.08-.06,2.18-.09,3.24.07,1.09.17,2.47.54,3.13,1.51.7,0,1.53-.01,2.47-.02-.02-.09-.05-.18-.08-.27-.53-1.57-1.94-2.53-3.44-3.06h0ZM113.33,167.94s.03-.01,0,0h0Z"/><path class="cls-6" d="M145.81,158.66c-.84-.27-1.72-.29-2.59-.2-.41.04-.83.11-1.25.15.65-.95,1.17-1.98,1.56-3.08.6-1.7.83-3.85-.27-5.41-1.01-1.44-2.9-2.27-4.57-1.48-.84.4-1.43,1.15-1.98,1.87-.54.72-1.02,1.48-1.42,2.3-.06.11-.11.23-.16.35-.05-.13-.11-.26-.17-.38-.77-1.63-2.16-2.96-3.9-3.46-.75-.21-1.4.37-1.45,1.1-.11,1.65.04,3.3.42,4.89-1.95-.93-4.17-1.26-6.11-.36-1.41.65-2.27,2.21-1.77,3.74.5,1.54,2.07,2.39,3.5,2.91,1.54.56,3.13,1,4.73,1.39-.79,1.07-1.41,2.25-1.85,3.51-.33.94-.52,1.92-.62,2.92-.1.94-.17,2.05.32,2.89.55.94,1.68,1.3,2.7,1.02.98-.27,1.67-1.07,2.12-1.95.59-1.14,1.13-2.32,1.66-3.5.26.76.56,1.5.9,2.23.72,1.55,1.64,3.12,3.16,4,1.52.89,3.41.64,4.42-.87,1.03-1.53.59-3.43-.21-4.94-.44-.84-.93-1.67-1.42-2.49,1.41.12,2.9-.17,4.12-.69,1.35-.58,2.61-1.66,2.7-3.22.1-1.61-1.15-2.78-2.58-3.25h0ZM145.95,162.22c-.67.91-2.13,1.21-3.19,1.29-1.09.08-2.53.03-3.2-.99-.8-1.22-2.74-.12-1.97,1.15,1.04,1.74,2.1,3.46,3.12,5.22.4.68.86,1.47.83,2.28-.02.48-.21,1.08-.75,1.19-.57.12-1.18-.41-1.55-.78-.59-.59-.98-1.3-1.35-2.04-.86-1.69-1.43-3.51-1.76-5.37-.17-.93-1.69-1.15-2.09-.27-.78,1.7-1.57,3.39-2.35,5.09-.28.6-.52,1.41-.99,1.9-.12.13-.28.27-.47.26.03,0-.03-.07-.05-.24-.2-1.34.24-2.93.72-4.16.53-1.37,1.37-2.6,2.41-3.64.59-.59.34-1.72-.5-1.91-2.02-.46-4.02-1-6-1.63-.81-.26-2.72-.93-2.47-1.96.08-.34.48-.58.91-.73.63-.2,1.29-.21,1.93-.08,1.6.31,3.03,1.05,4.2,2.18.28.55,1.06.69,1.56.4.49-.29.64-.83.5-1.33-.03-.12-.07-.25-.15-.36-.81-1.7-1.27-3.52-1.37-5.38,1.7,1.53,1.81,4.56,1.87,6.68.04,1.47,2.23,1.47,2.29,0,.06-1.8.5-3.59,1.31-5.19.38-.74.82-1.47,1.33-2.12.36-.46.85-1.13,1.51-1.05,1.62.2,1.69,2.24,1.4,3.44-.44,1.79-1.43,3.43-2.71,4.75-.61.63-.32,1.66.5,1.91.96.29,1.94.26,2.93.14.74-.09,1.52-.25,2.27-.14.48.06,1.13.25,1.41.67.18.27.12.6-.06.84h0Z"/><path class="cls-6" d="M141.84,132.75c-1.34,1.85-2.15,4.07-2.25,6.41-.07,1.56.77,3.77,2.69,3.51.95-.13,1.68-.94,2.32-1.6.64-.67,1.23-1.4,1.76-2.17.18-.26.35-.52.51-.79.42,1.98,1.21,3.88,2.36,5.5.54.76,1.28,1.42,2.27,1.39.95-.03,1.84-.69,2.24-1.53.45-.95.41-2,.36-3.02-.03-.59-.08-1.18-.15-1.77-.73-.44-1.57-.9-2.48-1.38,0,.03,0,.05.01.08.17,1.02.27,2.04.32,3.07.03.51.29,2.02-.37,2.27,0,0-.01-.01-.02-.02-.13-.1-.23-.25-.32-.39-.27-.39-.51-.81-.73-1.23-.43-.82-.77-1.67-1.03-2.56-.24-.84-.41-1.69-.49-2.55-.95-.46-1.91-.92-2.83-1.34-.38,1.01-.88,1.97-1.48,2.88-.48.72-1.02,1.39-1.63,2.02-.18.18-.36.36-.55.54-.05.05-.22.16-.3.25,0-.02-.01-.04-.02-.05-.5-1.31.06-3.09.58-4.32.34-.8.79-1.56,1.34-2.25-2.34-1.05-4.06-1.78-4.06-1.78l-.32.57c-.1.17-.22.35-.37.54.81-.02,1.63-.13,2.41-.23.07,0,.15-.02.22-.03h0ZM142.12,140.42s0,.01-.02-.03c.01,0,.02,0,.02.03Z"/><path class="cls-6" d="M151.36,174.02c-.47.88-.38,2.09-.37,3.06.01,1.11.11,2.22.27,3.32,0,0,0,0,0,.01-1.07-.94-2.32-1.63-3.81-1.9-.91-.17-1.92-.23-2.8.13-.93.38-1.58,1.29-1.32,2.32.23.92,1.03,1.73,1.6,2.45.2.25.41.5.61.75,1.09,0,2.1-.02,3.03-.02-.01-.02-.03-.03-.04-.05-.67-.71-1.3-1.45-1.91-2.21-.29-.36-.57-.72-.83-1.1-.02-.03-.04-.06-.06-.1,1.54-.37,3.37.79,4.41,1.79.52.5.98,1.06,1.39,1.64,1.44-.01,2.29-.02,2.29-.02v-.85c.02-.32.05-.7.1-1.12-.19-.73-.34-1.48-.45-2.22-.16-1.11-.22-2.24-.21-3.36,0-.44.03-.87.06-1.3.06.02.11.04.2.09.49.29.9.79,1.25,1.31.16-.99.31-1.98.43-2.9-.37-.31-.78-.57-1.25-.71-1.01-.31-2.1.04-2.61,1h0ZM153.36,175.14c.02-.16.03-.07,0,0h0Z"/><path class="cls-6" d="M157.03,145.84c-.71.75-1.4,1.63-1.57,2.68-.16.98.13,2.05.89,2.72.9.79,1.99.66,3.04.29.88-.3,1.74-.65,2.57-1.05-.18.43-.35.87-.5,1.32-.62,1.85-1.09,4.15-.64,6.09.24,1.06,1.02,1.96,2.14,2.11,1.07.14,2.12-.38,2.78-1.21.41-.51.7-1.11.95-1.73.05.34.11.68.17,1.02.34,1.75.71,3.66,1.92,5.04,1.26,1.44,3.27,1.69,4.7.31,1.55-1.5,1.23-3.73.85-5.64-.23-1.13-.51-2.24-.84-3.33.42.21.87.38,1.36.49,1.69.38,4.23-.15,4.52-2.2.06-.41.03-.82-.05-1.22-.95-4.9-5.56-8.73-6.91-10.13,0,0-.6,2.58-.52,3.1.61.5,4.36,2.93,4.87,6.72.17.33.54,1.04.22,1.33-.4.36-1.2.27-1.67.16-1.51-.34-2.61-1.66-3.61-2.75-.76-.83-2.27.23-1.83,1.23.96,2.21,1.71,4.51,2.2,6.88.19.93.46,1.97.24,2.91-.13.55-.58,1.22-1.18,1.09-.47-.1-.9-.75-1.15-1.25-.38-.78-.57-1.69-.76-2.53-.49-2.21-.62-4.51-.49-6.77.07-1.14-1.76-1.46-2.17-.44-.72,1.83-1.37,3.71-2.17,5.5-.14.31-.59,1.32-1.12,1.14-.4-.13-.31-1.08-.31-1.4.05-3.06,1.24-6.07,3.21-8.41.82-.97-.43-2.46-1.51-1.69-1.54,1.1-3.18,2.02-4.94,2.72-.45.18-.91.35-1.38.5-.21.07-.35.16-.5.04-.37-.29-.03-.97.15-1.25.86-1.37,2.39-2.49,3.73-3.34.54-.34,1.09-.64,1.67-.91-.86-.37-1.76-.76-2.68-1.15-.36.22-.72.46-1.06.7-.94.67-1.82,1.44-2.61,2.28h0Z"/></g><path class="cls-5" d="M147.59,98.66c.32-.64.64-1.29.83-1.98.17-.63.27-1.28.27-1.93,0-1.26-.33-2.56-1.09-3.59-.4-.53-.89-.96-1.46-1.3s-1.17-.59-1.73-.94-1.01-.79-1.21-1.42c-.22-.68-.18-1.41-.18-2.12s-.02-1.43-.26-2.11c-.21-.58-.53-1.1-.96-1.55-.83-.89-2.01-1.47-3.21-1.65-.62-.1-1.25-.1-1.87.02-.75.13-1.46.42-2.17.66-.67.23-1.38.45-2.09.41-.71-.04-1.26-.41-1.72-.94s-.8-1.1-1.31-1.57c-.48-.43-1.03-.76-1.64-.99-1.16-.44-2.51-.46-3.69-.05-.63.22-1.21.56-1.7,1.01-.58.53-1.04,1.17-1.59,1.73-.51.51-1.17.99-1.92,1-.75,0-1.29-.51-1.97-.66s-1.29.07-1.73.56c-.41.47-.65,1.07-.78,1.67-.13.6-.15,1.23-.3,1.84-.13.53-.36,1.07-.88,1.33-.3.16-.66.19-.99.29-.38.12-.7.33-.94.64-.43.57-.58,1.37-.52,2.07s.29,1.37.71,1.92c.48.64,1.15,1.01,1.8,1.44.39.26.84.66.96,1.14-.75-.59-1.74-.9-2.69-.81-.6.05-1.24.34-1.78.16-.36-.11-.7-.39-1-.65-.65-.56-1.38-1.3-2.33-1.09-1,.22-1.27,1.28-1.51,2.14-.12.42-.24.85-.53,1.19-.29.34-.69.56-1.11.74-.93.4-1.96.62-2.73,1.33-.77.71-1.08,1.75-1.07,2.76.02,1.09.39,2.11.98,3.02.31.48.72.99.79,1.57.08.58-.36,1.01-.68,1.46-.61.85-.77,1.94-.56,2.95.21,1.02.82,1.91,1.71,2.45.46.28,1.02.49,1.36.93.33.44.38.99.37,1.51-.02.58-.12,1.16-.17,1.74-.05.65-.03,1.31.12,1.94.28,1.16,1.12,2.25,2.33,2.51.3.06.59.07.89.03.3-.04.59-.21.89-.19.44.03.65.58.66.97.02.68-.22,1.34-.2,2.02.02.6.15,1.18.39,1.72.48,1.11,1.37,1.97,2.49,2.41,1.12.44,2.4.4,3.52-.08.56-.24,1.1-.55,1.71-.67.49-.1.9.05,1.27.33.65.49,1.13,1.3,1.87,1.74.38.23.8.31,1.24.23.19-.03.3-.27.25-.44-.05-.19-.22-.27-.39-.26-.11-.87-.39-3.12-.58-4.21-.24-1.36-1.75-8.67-1.75-8.67h0c-.62.66-1.7.14-1.7.14,0,0-1.18-1.74-1.66-2.74-.47-1-.27-2.11.39-2.79.67-.68,2.01-.52,2.01-.52,0,0,.37.58.78.71.41.14,1.05.68,1.05.68,0,0,.41-.66.52-.87.12-.22.93-2.14,1.17-2.86.24-.71.79-3.75,1.17-4.84.39-1.09,2.03-1.96,2.03-1.96,0,0-.98-.98-1.38-1.3-.4-.32-2.09-1.3-2.09-1.3l1.01-.31s1.49-.28,1.72-.22c.23.06,1.65-.25,2.15-.36.51-.11,1.59-.11,1.91-.07.32.04,1.91-.21,2.2-.14s1.42-.62,1.8-.76.69-.56,1.48-.84c.8-.28,1.2-1.07,1.2-1.07,0,0,3.94,2.38,4.47,2.89s2.31,3.25,2.98,4.78c.68,1.53,1.64,7.59,1.78,8.37.11.6.28,2.34.35,3.11-.02,0-.04.02-.06.03-.18.07-.31.24-.25.44.05.17.26.32.44.25,2.4-.95,4.03-3.33,4.23-5.89.05-.63,0-1.27-.14-1.88-.17-.75-.51-1.44-.76-2.16s-.32-1.42-.14-2.16c.18-.74.53-1.43.87-2.11Z"/><g id="Layer_8"><path class="cls-20" d="M120.89,131.17c-.03-.34-.43-3.8-.43-3.8l-.97-6.19-1.39-6.97s-1.59,1.13-2.68-.88c-1.09-2.01-1.8-3.14-.51-4.17,1.3-1.03,1.98-.67,1.98-.67,0,0,.95,1.13,1.46,1.32l.52.19s1.12-1.99,1.4-2.82.96-3.12,1.07-4.05.4-1.9.75-2.38,1.75-1.38,1.75-1.38c0,0-1.4-1.41-1.91-1.7s-1.14-.9-1.14-.9c0,0,.5-.6.79-.55s.68.04,1.48.01,2.39-.41,3.13-.59c.75-.18,3.35-.39,3.69-.15s2.11-1.3,2.11-1.3c0,0,1.64-.99,2.02-1.22.43-.26,1.42.77,1.81.87s1.7,1.2,2.34,1.9c.69.75,2.38,3.1,2.73,3.98.35.88,1.4,4.91,1.59,5.99s.79,5.36.79,6.34-.39,4.31-.81,5.25-.9,1.95-1.52,2.64c-.62.69-.84,1.01-1.48,1.43s-2.42,1.14-2.42,1.14c0,0,.27,4.95.3,5.32s.21,2.61.21,2.61c0,0-4.28.62-5.01.7-.73.08-6.27.32-6.69.31s-4.5,0-4.5,0l-.45-.31h0Z"/></g><g id="Head"><path class="cls-21" d="M137.69,131.58l-.1-.75s.03,0,.05,0c.19-.04.3-.27.25-.44-.06-.2-.25-.29-.44-.25-2.14.41-4.29.73-6.46.89-2.11.16-4.22.18-6.33.08-1.25-.06-2.51-.16-3.76-.29-.19-.02-.36.18-.36.36,0,.21.17.34.36.36h0s0,0,.01,0l.04,1.17-2.33.85h0c.21.41,1.17,1.48,2.44,2.17,1.27.69,3.96,1.24,5.11,1.32s3.46.38,4.76.3,3.4-.52,5.44-1.44,3.82-3.42,3.82-3.42l-2.49-.9Z"/><path class="cls-5" d="M133.99,92.68c-.18-.11-.38-.03-.49.13-.19.27-.4.56-.67.75-.33.23-.74.2-1.1.38-.29.15-.52.39-.73.64-.1.12-.21.23-.32.34-.08.08-.21.15-.3.18-.05.02-.1.04-.13.08-.04,0-.09.02-.13.04h0c-.22.12-.48.11-.77.07-.27-.04-.6-.11-.89-.13-.36-.03-.69.03-1.01.18-.13.06-.26.14-.41.12-.17-.02-.33-.1-.5-.12-.66-.11-1.28.1-1.9.32-.29.1-.59.21-.9.26-.28.05-.55,0-.84-.08-.22-.06-.45-.1-.68-.05-.2.04-.38.15-.57.23-.35.15-.75.2-1.13.14-.19-.03-.39.05-.44.25-.01.05-.01.1,0,.16-.01.01-.02.03-.03.05-.09.16-.05.41.13.49,1.13.55,2.15,1.27,3.05,2.15-1.19.6-1.86,1.9-2.17,3.16-.21.85-.3,1.72-.49,2.58-.17.8-.41,1.59-.71,2.36-.34.87-.77,1.7-1.27,2.49-.25.39.38.76.62.36.87-1.39,1.53-2.91,1.93-4.5.2-.8.31-1.63.47-2.44.15-.77.34-1.52.74-2.19.37-.61.9-1.13,1.58-1.33,0,0,.01,0,.02,0,.06-.02.13-.05.17-.09.14-.14.13-.37,0-.51h0c-.83-.9-1.8-1.66-2.86-2.27.1-.01.21-.03.31-.06.19-.05.38-.13.56-.21.14-.07.25-.12.4-.1.17.02.34.1.51.13.17.03.36.05.54.04.33-.02.66-.1.98-.2.58-.19,1.18-.49,1.79-.42.12.01.3.08.45.11.22.05.44.06.66-.02.16-.06.3-.15.47-.2.15-.05.26-.05.42-.05.72.02,1.45.35,2.16-.03.02-.01.04-.02.06-.04.01,0,.03,0,.04,0h0c.36-.12.63-.36.88-.63.11-.13.22-.26.35-.37.11-.11.19-.18.32-.23.16-.07.41-.08.61-.14.19-.06.39-.16.56-.29.35-.26.6-.6.85-.95.11-.16.03-.4-.13-.49Z"/><path class="cls-5" d="M119.14,121.27c.32,1.79.6,3.59.86,5.39.24,1.69.45,3.39.58,5.1.06.79.11,1.58.11,2.37,0,.46.72.47.72,0,0-1.52-.15-3.04-.32-4.54-.2-1.83-.46-3.65-.75-5.46-.16-1.01-.33-2.03-.51-3.04-.03-.19-.27-.3-.44-.25-.2.06-.29.25-.25.44h0Z"/><path class="cls-5" d="M117.75,114.3c.17.8,1.21,5.9,1.38,6.7.04.19.26.3.44.25.2-.05.29-.25.25-.44-.17-.8-1.21-5.9-1.38-6.7-.04-.19-.26-.3-.44-.25-.2.05-.29.25-.25.44h0Z"/><path class="cls-5" d="M143.63,112.07c-.03-1.41-.21-2.82-.43-4.22-.22-1.4-.44-2.68-.71-4.01-.5-2.44-1.27-4.83-2.79-6.84-1.34-1.79-3.12-3.26-5.16-4.17-.27-.12-.54-.23-.81-.33-.18-.07-.4.08-.44.25-.06.2.07.38.25.44,1.99.74,3.75,2.03,5.12,3.65.68.81,1.26,1.7,1.72,2.66.55,1.15.92,2.38,1.21,3.61.3,1.27.51,2.56.73,3.84.22,1.32.43,2.65.53,3.99.17,2.38,0,4.86-1.07,7.02-.87,1.76-2.29,3.34-4.14,4.02-.03.01-.06.02-.08.03-.05,0-.1,0-.15,0h0c-2.4.78-5,.89-7.45.31-.7-.17-1.4-.39-2.07-.67-.18-.07-.4.08-.44.25-.06.21.07.37.25.44,2.44,1,5.14,1.29,7.74.88.42-.07.84-.15,1.25-.26-.02,1.18.09,2.37.18,3.55.12,1.54.26,3.08.36,4.62.04.64.09,1.28.1,1.92,0,.46.73.47.72,0-.01-1.29-.14-2.58-.25-3.86-.13-1.54-.26-3.08-.34-4.62-.03-.59-.06-1.18-.04-1.77,1.96-.57,3.55-2.02,4.59-3.75,1.27-2.11,1.68-4.56,1.63-6.99Z"/><path class="cls-5" d="M117.18,108.17c-1.25-.4-2.77.39-3.13,1.66-.24.84.1,1.71.45,2.47.18.39.37.78.59,1.16.19.34.4.68.68.95.65.64,1.67.79,2.46.32.4-.23.04-.86-.36-.62-.48.28-1.1.23-1.52-.15-.24-.21-.41-.48-.57-.76-.19-.32-.36-.65-.52-.99-.29-.61-.64-1.32-.54-2.01.06-.47.37-.86.75-1.1.25-.16.45-.24.75-.3.24-.04.51-.03.78.06.19.06.39-.07.44-.25.05-.19-.06-.38-.25-.44h0Z"/><path class="cls-5" d="M119.09,109.6c-.2-.09-.38-.19-.56-.31-.05-.03-.09-.06-.14-.09-.02-.01-.04-.03-.06-.04-.03-.02-.05-.04,0,0-.09-.07-.17-.14-.25-.21-.15-.14-.29-.3-.43-.46-.06-.08.04.06-.02-.02-.01-.02-.03-.04-.04-.06-.03-.04-.06-.09-.09-.14-.06-.09-.12-.19-.17-.28-.09-.17-.33-.23-.49-.13-.17.11-.23.32-.13.49.45.82,1.17,1.5,2.02,1.88.17.08.4.06.49-.13.08-.16.05-.41-.13-.49h0Z"/></g><g id="Face-2"><path class="cls-17" d="M132.35,116.07c.96.67,2.33.54,3.18-.23.14-.13.13-.38,0-.51-.14-.14-.37-.13-.51,0-.29.26-.72.43-1.11.45-.45.03-.83-.07-1.2-.33-.16-.11-.4-.03-.49.13-.1.18-.03.38.13.49h0Z"/><path class="cls-5" d="M131.2,111.82c-.67.63-.54,1.8.29,2.23.44.22.9.2,1.34,0,.16-.08.33-.2.52-.19s.36.11.53.19c.42.2.82.28,1.28.21.4-.06.78-.26,1.07-.54.16-.15.26-.33.37-.51.02-.03.05-.07.06-.08-.03.02.02,0,.04,0,.03,0,.16,0,.24,0,.21.01.43.03.64-.03.24-.07.44-.24.57-.46.3-.5.15-1.1-.09-1.59-.12-.24-.29-.47-.55-.58-.29-.12-.59-.08-.82.13-.15.13-.13.38,0,.51.15.15.36.13.51,0-.04.04,0,0,.04.02.01,0,.06.05.09.08.1.12.17.3.21.45.04.14.08.32.05.44-.03.12-.08.23-.17.28-.04.02-.09.03-.12.03-.08,0-.16,0-.24,0-.18-.01-.36-.03-.54.02-.2.05-.36.17-.48.34-.1.14-.16.29-.27.4-.19.2-.42.32-.69.38-.11.02-.25.03-.39.02-.09,0-.28-.07-.41-.13-.37-.17-.73-.36-1.15-.28-.19.04-.36.13-.53.21-.06.03-.12.06-.18.09-.08.03-.14.04-.2.05-.27.01-.56-.13-.67-.41-.1-.24-.02-.56.19-.75.34-.32-.17-.83-.51-.51h0Z"/></g><g id="Open_eyes-2"><path class="cls-5" d="M127.79,107.33c.23,0,.42-.19.42-.42s-.19-.42-.42-.42-.42.19-.42.42.19.42.42.42h0Z"/><path class="cls-5" d="M137.65,105.11v.06s0,.1.03.14c.01.04.04.08.07.12.03.03.07.06.12.07.04.02.09.03.14.03h.1c.06-.03.11-.06.16-.11l.06-.07c.03-.06.05-.12.05-.18v-.06s0-.1-.03-.14c-.01-.04-.04-.08-.07-.12-.03-.03-.07-.06-.12-.07-.04-.02-.09-.03-.14-.03h-.1c-.06.03-.11.06-.16.11l-.06.07c-.03.06-.05.12-.05.18h0Z"/></g><g id="Arm"><path class="cls-5" d="M159.26,139.49s.03,0,0,0h0ZM159.23,139.49s0,0,0,0c0,0,0,0,.02,0-.01,0-.02,0-.02,0,0,0,0,0,0,0Z"/></g><path class="cls-15" d="M109.87,185.11c.4-.05.03-5.29-.82-11.7-.86-6.41-1.88-11.56-2.28-11.5s-.03,5.29.82,11.7c.86,6.41,1.88,11.56,2.28,11.5Z"/><path class="cls-15" d="M156.34,167.95c.19.02.48-.79.64-2.15.16-1.35.16-3.26-.2-5.32-.36-2.06-1.01-3.85-1.62-5.07-.61-1.22-1.16-1.88-1.33-1.8-.38.19.83,3.22,1.5,7.13.7,3.9.59,7.16,1.02,7.21Z"/><path class="cls-15" d="M144.48,134.09c-.19-.16-1.38,1.29-3.81,2.93-.6.41-1.3.81-2.05,1.21-.77.38-1.59.77-2.5,1.08-1.8.65-3.88,1.08-6.08,1.14-2.2.03-4.29-.33-6.11-.91-.92-.28-1.76-.64-2.54-.99-.77-.37-1.47-.75-2.09-1.14-2.49-1.55-3.73-2.95-3.91-2.79-.07.06.15.48.69,1.15.53.67,1.41,1.56,2.64,2.49.61.47,1.33.92,2.12,1.37.8.42,1.68.85,2.65,1.19,1.93.7,4.19,1.13,6.58,1.1,2.39-.06,4.63-.57,6.53-1.34.96-.37,1.82-.83,2.61-1.28.78-.47,1.48-.95,2.07-1.44,1.2-.97,2.04-1.9,2.55-2.59.51-.69.72-1.12.64-1.18Z"/><path class="cls-2" d="M133.11,136.26c.1-.03,0-.57-.22-1.41-.11-.42-.26-.91-.43-1.46-.04-.14-.09-.28-.13-.42-.05-.14-.07-.27-.19-.49-.22-.4-.72-.64-1.18-.56-.23.03-.46.14-.63.3-.17.15-.28.39-.33.51-.13.28-.25.56-.36.82-.23.52-.42,1-.58,1.4-.31.81-.46,1.33-.36,1.38.09.04.4-.4.83-1.15.22-.38.46-.83.72-1.34.13-.26.26-.52.4-.8.08-.17.11-.22.18-.28.06-.06.15-.1.24-.11.19-.03.37.06.46.2.04.05.09.22.15.36.05.14.11.28.16.41.21.53.4,1.01.58,1.4.35.79.61,1.27.71,1.23Z"/><path class="cls-13" d="M181.79,106.44l-3.4,18.57c-.15.82.31,1.64,1.1,1.92,2.26.81,6.5.37,9.3.3.89-.02,1.63-.69,1.7-1.58.34-3.87,2.68-12.87,2.57-16.78-.02-.74,0-1.85-1.13-2-.65-.09-9.94-1.92-10.15-.43Z"/><path class="cls-9" d="M179.55,125.57c.04.05.5.03.68.08.76-3.53,1.27-7.14,1.93-10.7.21-1.13.7-2.45.88-3.57.09-.53.56-3.48.06-3.56l-3.54,17.76Z"/><path class="cls-11" d="M190.46,108.88c-.78-.14-1.29.81-.58,1.33,1.27.92,1.76-1.12.58-1.33Z"/><path class="cls-4" d="M187.13,121.23s.05-.05.08-.07c.02-.01.03-.03.05-.04.03-.02.06-.04.09-.06.1-.06.21-.1.32-.15.35-.13,1.94-.34,1.8-.63-.03-.07-1.29-.74-1.35-.79-.03-.11-.11.1-.18,0-.27-.36-.18-1.19.15-1.49.35-.32.47-.19.89-.41.38-.2.42-.47.13-.78-.14-.15-.27-1.14-.23-1.17.04-.04.71-.43.98-.54.49-.19,1.46-.38,2.05-.23.16.04.19-.27.36-1.14.01-.07,1.42.61,1.49.6,0,0,0,0,0,0,0,0,.02,0,.04,0,.67.36,1.24.68,1.32.74,1.58,1.13.49,2.33.12,2.69-.32.3-.44,2.19-1.26,3.09-.1.11.93,1.46-.85,2.49-.12.07.56.8.29,1.36-.46.93-2.24,1.63-5.04-.14-.26-.16.69-1.19.42-1.13-.03-.25-.23-.47-.47-.56-.04-.01-.07-.03-.11-.05.04.02.05.02.07.03-.02,0-.04-.02-.05-.02-.08-.04-.15-.09-.22-.13-.08-.05-.15-.1-.22-.16-.02-.02-.06-.05-.07-.06.01.01.03.03.07.07-.03-.03-.06-.05-.09-.08-.13-.12-.26-.25-.37-.39-.03-.04-.05-.07-.08-.11.03.04.04.05.05.07-.01-.02-.04-.05-.05-.07-.04-.07-.08-.14-.12-.21-.01-.03-.03-.06-.04-.09,0,0,0,0,0,0-.02-.07-.03-.13-.05-.2,0-.03,0-.06,0-.09,0-.02.01-.05.02-.07.01-.02.03-.04.04-.07,0,0,0,0,0,0Z"/><path class="cls-10" d="M188.81,123.48c-1.11-.37-1.76-.97-1.85-1.67-.05-.38.07-.72.35-.97,1.31-1.2,6.23-.21,6.78-.09l.18.04.06.17c.36.99.02,1.63-.33,1.99-.61.63-1.72.9-2.87.9-.8,0-1.63-.13-2.33-.37ZM187.76,121.33c-.12.11-.16.23-.14.41.05.42.58.84,1.41,1.12,1.48.5,3.7.47,4.52-.37.29-.29.37-.67.24-1.13-1.99-.4-5.24-.74-6.02-.03Z"/><path class="cls-10" d="M189.41,125.7c-.85-.32-1.35-.81-1.42-1.38-.04-.35.08-.7.33-.94.25-.23.6-.33.95-.26.86.16,1.85.2,2.65.24.47.02.87.04,1.18.07.11.01.2.03.28.05.26.06.47.26.53.51h0c.18.74-.13,1.21-.42,1.46-.48.42-1.26.6-2.08.6-.7,0-1.42-.13-2.01-.35ZM188.77,123.86c-.1.09-.15.23-.13.38.04.3.41.62,1.01.84,1.22.46,2.81.4,3.42-.13.23-.21.3-.47.22-.82l-.03-.02c-.06-.01-.14-.02-.22-.03-.29-.03-.68-.05-1.13-.07-.82-.04-1.84-.08-2.75-.25-.04,0-.07-.01-.11-.01-.11,0-.2.04-.28.1ZM193.59,124.07h0,0Z"/><path class="cls-10" d="M193.08,121c.56,0,1.06-.11,1.46-.44.52-.42.78-1.13.79-2.16,0-.18-.14-.33-.32-.33-.17,0-.33.14-.33.32,0,.83-.19,1.37-.55,1.66-.56.45-1.61.29-2.63.08l-.13-.03c-.84-.17-3.06-.62-3.2-1.02-.06-.4.02-.71.22-.94.44-.5,1.33-.51,1.34-.51.18,0,.33-.15.33-.33,0-.18-.15-.33-.33-.33h0c-.06,0-1.2.01-1.84.73-.33.38-.46.88-.38,1.47.11.77,1.61,1.13,3.72,1.56l.13.03c.6.12,1.19.23,1.72.23Z"/><path class="cls-10" d="M193.03,118.53c.6,0,1.19-.08,1.74-.25.99-.3,1.28-.86,1.34-1.27.15-1-.84-2.12-1.27-2.41-.11-.08-.46-.27-2.19-1.12-.16-.08-.36-.01-.44.15-.08.16-.01.36.15.44,1.56.76,2.01,1.01,2.11,1.07.33.22,1.09,1.12.99,1.77-.05.33-.35.58-.88.74-1.3.39-2.93.24-4.06-.37-.57-.31-.94-.71-1.06-1.13-.05-.19,0-.28.05-.34.36-.44,1.9-.5,2.88-.4.18.02.34-.11.36-.29s-.11-.34-.29-.36c-.28-.03-2.72-.25-3.45.63-.15.18-.3.49-.17.94.17.6.65,1.13,1.38,1.53.81.44,1.82.67,2.82.67Z"/></g></svg>