<svg xmlns="http://www.w3.org/2000/svg" viewBox="0 0 200 200"><defs><style>.cls-1{fill:none}.cls-2{fill:#f6c243}.cls-3{fill:#e4c7bd}.cls-4{fill:#fff}.cls-6{fill:#ff8000}.cls-7{fill:#c1dade}.cls-9{fill:#b4cacc}.cls-10{fill:#a84902}.cls-12{fill:#e2ded9}.cls-13{fill:#5b3d5b}</style></defs><path id="BG_Strong" d="M11.24 125.55c10.86 58.58 94.53 94.27 139.43 50.57 24.02-27.61 55.1-77.94 33.83-114.6-47.76-98.97-199.58-40-173.26 64.03Z" style="fill:#575655"/><g id="Illustrations"><path d="M33.65 173.82c-.02-.35-.28-.64-.64-.64h-2.24c-.13 0-.26.05-.37.12-.21.06-.4.21-.45.44l-.36 1.62h-1.58l-.32-1.59a.634.634 0 0 0-.3-.38.71.71 0 0 0-.43-.08H23.24c-.13 0-.26.04-.36.12-.21.06-.4.21-.45.44l-.34 1.53c-.54 0-1.07 0-1.61.01l-.32-1.61a.634.634 0 0 0-.3-.38.71.71 0 0 0-.43-.08H15.71c-.13 0-.26.05-.37.12-.21.06-.4.21-.45.44l-.35 1.56c-1.28 0-2.56.01-3.84.01-.27 0-.45.14-.55.33-.05.09-.09.2-.09.32-.1 1.84-.17 3.68-.2 5.52 0 .23.09.39.23.5.1.09.24.15.41.15h20.53c.79 0 .83-1.18.1-1.28.24-1.13.87-3.29 1.18-4.33h.25c.75 0 .82-1.04.22-1.25.09-.03.18-.08.25-.15a.656.656 0 0 0 .1-.79c.29-.06.54-.33.53-.63Z" class="cls-13"/><path d="M101.15 120.52c-.76 3.91-1.27 7.86-1.6 11.83-.33 3.94-.5 7.88-.59 11.83-.09 3.78-.11 7.57-.14 11.35-.03 3.52-.06 7.05-.08 10.57-.03 3.52-.05 6.94-.08 10.42 0 .41 0 .81-.01 1.22 0 .83 1.28.83 1.29 0 .03-3.42.06-6.85.08-10.27.03-3.52.05-7.04.08-10.56.03-3.7.05-7.4.12-11.11.07-3.95.21-7.9.49-11.84.29-3.94.72-7.81 1.42-11.67.08-.48.17-.95.27-1.42.07-.34-.1-.7-.45-.79-.32-.09-.73.11-.79.45Z" class="cls-2"/><path d="M197.51 157.67c-.57-2.9-1.6-5.68-2.69-8.41-2.5-6.24-5.11-12.44-7.98-18.52-2.9-6.14-6.03-12.16-9.38-18.06-1.59-2.8-3.17-5.68-5.31-8.12-2.09-2.39-4.76-4.21-7.48-5.82-5.57-3.31-11.71-5.53-17.94-7.24-.77-.21-1.54-.41-2.31-.61-.05-.01-.1-.02-.15-.02l.03-.8c.52-.46-.09-1.42-.77-1.03a24.265 24.265 0 0 1-8.71 3c-3.07.45-6.15.31-9.14-.31-1.74-.37-3.45-.9-5.09-1.58-.32-.13-.71.14-.79.45-.1.37.13.66.45.79s.03.01.05.02l-.14.71c-.1-.02-.2-.02-.29 0-4.77 1.1-9.49 2.45-14.12 4.04a138.724 138.724 0 0 0-21 9.24c-.73.4-.08 1.51.65 1.11 2.87-1.56 5.8-3.02 8.78-4.37.44.23.9.51 1.1.72.43.48.55.81 1.17 1.72s.97 7.34 1.08 8.89c.11 1.55 1.18 16.21 1.18 16.21l1.83-.78s-1.02 23.16-.76 25.04c.26 1.88-.41 17.01-.41 17.01l-.49 5.03 13.89.03.02 1.23h-2.07c-2.18 0-4.35.01-6.53.02h-4.83c-.83 0-.83 1.29 0 1.29h3.58c2.01 0 4.02 0 6.03-.01 2.61 0 5.23-.01 7.84-.02 3.05 0 6.09-.02 9.13-.02 3.25 0 6.5-.02 9.76-.03l9.87-.03c3.12 0 6.23-.02 9.35-.02 2.73 0 5.47-.01 8.2-.02 2.18 0 4.35-.01 6.53-.02h4.83c.1 0 .19-.02.26-.05.74.07 1.48.13 2.22.17 2.28.11 4.56 0 6.82-.31 2.19-.3 4.41-.78 6.46-1.64 1.86-.77 3.55-1.89 4.81-3.48 1.14-1.44 1.95-3.12 2.38-4.9.15-.6.25-1.21.32-1.83.39-2.9.32-5.81-.24-8.69Zm-17.54 19.58c-.18 0-.35 0-.53.01 1.81-.13 3.68-.31 5.39-.52-1.59.28-3.24.46-4.87.51Z" class="cls-2"/><path d="M113.35 175.6a.581.581 0 0 0-.48-.22H101.15l-.31-1.53a.634.634 0 0 0-.3-.38.71.71 0 0 0-.43-.08H96.39c-.13 0-.26.05-.37.12-.21.06-.4.21-.45.44l-.32 1.43H93.6l-.28-1.39a.634.634 0 0 0-.3-.38.71.71 0 0 0-.43-.08H88.87c-.13 0-.26.05-.37.12-.21.06-.4.21-.45.44l-.29 1.29h-1.79l-.28-1.4a.634.634 0 0 0-.3-.38.71.71 0 0 0-.43-.08H81.24c-.13 0-.26.04-.36.12-.21.06-.4.21-.45.44l-.29 1.3h-1.61l-.25-1.23a.634.634 0 0 0-.3-.38.727.727 0 0 0-.44-.08h-3.71c-.13 0-.26.04-.36.12-.21.06-.4.21-.45.44l-.25 1.13h-1.48l-.25-1.27a.634.634 0 0 0-.3-.38.727.727 0 0 0-.44-.08h-3.71c-.13 0-.26.04-.36.12-.21.06-.4.21-.45.44l-.26 1.17h-1.2l-.23-1.14a.634.634 0 0 0-.3-.38.71.71 0 0 0-.43-.08H59.64c-.13 0-.26.05-.37.12-.21.06-.4.21-.45.44l-.23 1.05h-1.06c-.8 0-.83 1.2-.08 1.28-.14 1.17-.42 3.56-.44 3.77l14.36.02v.7c-.37.34-.23 1.13.42 1.13h40.95c.26 0 .43-.12.53-.29.14-.1.23-.26.23-.49v-5.45c0-.18-.07-.32-.16-.43ZM57.02 180.41v-.01.01z" class="cls-13"/><path d="M100.1 175.64c0-.34-19.48-.69-43.51-.79-24.03-.1-43.52.09-43.52.42 0 .34 19.48.69 43.51.79 24.03.1 43.52-.09 43.52-.42Z" class="cls-4"/><path d="M133.16 135.23c-.15-.21-4.01-5.32-5.27-4.97s-3.46 1.99-4.52 2.2c-1.06.21-1.87.16-1.87.16s.17 1.91.67 2.26 1.2.64 1.2.64 3.57-1.33 4.93-1.4c1.36-.07 4.86 1.11 4.86 1.11Z" class="cls-3"/><path d="m147.15 145.79-4.86-.59-4.14-4.12c-.84-.84-4.13-5.03-4.98-5.4-.86-.38-2.16-1.83-3.95-1.66-1.79.17-5.22.99-7.88 2.39-2.67 1.4-4.52 2.68-4.52 2.68l-.43 2.26s.54.57.21.67-.97.09-1.17.79c-.2.7-.25 1.89.45 2.41.69.52 1.46.81 1.46.81s-1 1.44-.49 2.4 1.87 2.04 2.36 2.25.79.59.79.59.07 2.18 1.35 2.79c1.28.62 5.17 1.53 7.1 1.88 1.93.35 6.36.78 6.75.75s3.36-.22 3.36-.22l3.73 2s2.36-5.09 3.04-6.71 1.82-5.95 1.82-5.95ZM120.41 90.76c-.01-.72-.19-3.44-.19-3.44s-5.68-8.46-6.59-13.63c-.9-5.17-1-9.58-.42-12.16.58-2.58 3.13-9 3.98-10.56s3.51-4.74 5.47-5.76c3.15-1.65 9.26-2.05 12.43-1.54 3.17.52 7.38 5.11 8.14 8.23.76 3.12 2.52 11.6 2.52 11.6l1.26-.09s1.73-.82 2.62-.07c.89.75 1.83 1.46 1.64 3.29-.19 1.83-.6 3.8-1.02 4.23-.43.44-.8.81-1.52.92s-2.9-.37-2.9-.37-.55 10.69-.87 11.02-.66 7.14-.66 7.14-3.18 1.83-6.09 2.38c-2.91.55-7.59 1.24-10.25.78-2.66-.46-7.16-1.83-7.16-1.83l-.49.2.09-.34Z" class="cls-3"/><path d="M146.94 63.81c-.07-3.27-.42-6.64-1.47-9.75-.95-2.84-2.48-5.52-4.63-7.63-1.1-1.09-2.37-2.01-3.75-2.71-1.58-.8-3.35-1.47-5.11-1.7-1.67-.22-3.42 0-5.03.48-1.29.39-2.61.88-3.75 1.59a20.292 20.292 0 0 0-6.15 5.95c-.77 1.15-1.43 2.38-2.01 3.65-.67 1.47-1.27 2.99-1.72 4.54-1 3.42-1.37 7.03-1.23 10.59.13 3.23.61 6.53 1.77 9.56.56 1.47 1.27 2.89 2.2 4.16.95 1.3 2.07 2.41 3.36 3.37 2.51 1.87 5.64 3.02 8.8 2.96.79-.02 1.58-.11 2.35-.27.34-.07.54-.47.45-.79-.1-.35-.45-.52-.79-.45-2.87.6-5.86-.02-8.41-1.43s-4.64-3.59-5.98-6.23c-1.34-2.64-1.99-5.62-2.29-8.55-.35-3.38-.26-6.83.42-10.17.61-2.98 1.67-5.88 3.14-8.54 1.28-2.33 2.91-4.36 5.01-6.02 2.1-1.66 4.58-2.79 7.24-3.1.84-.1 1.7-.12 2.54 0s1.63.38 2.42.65c1.49.51 2.9 1.22 4.17 2.16 2.25 1.67 3.93 4.03 5.06 6.57 1.24 2.76 1.75 5.81 1.98 8.81.06.78.1 1.56.11 2.33.02.83 1.31.83 1.29 0Z" class="cls-13"/><path d="M59.1 138.85c5.72 1.13 11.64.82 17.29-.55 2.84-.69 5.55-1.72 8.29-2.71 2.54-.92 5.09-1.81 7.63-2.74 2.87-1.05 5.72-2.17 8.54-3.38.32-.14.39-.61.23-.88-.19-.33-.56-.37-.88-.23-4.86 2.1-9.86 3.84-14.84 5.62-2.7.97-5.37 2.03-8.15 2.78-2.72.73-5.5 1.22-8.31 1.41-3.16.21-6.34.05-9.45-.56-.34-.07-.7.1-.79.45-.09.32.11.73.45.79ZM141.53 161.66c2.24-4.79 4.22-9.7 5.91-14.7.48-1.43.94-2.86 1.38-4.3.24-.8-1-1.14-1.24-.34a138.99 138.99 0 0 1-5.35 14.67c-.58 1.35-1.18 2.69-1.81 4.02-.15.32-.09.69.23.88.28.16.73.09.88-.23Z" class="cls-2"/><path d="M125.1 71.94c-.87-.19-1.59-.7-2.25-1.27-.18-.15-.35-.31-.52-.47-.11-.1-.26-.2-.3-.33-.05-.2.06-.5.1-.69.05-.27.11-.53.17-.8.46-2.13 1.1-4.21 1.9-6.23.13-.32-.14-.71-.45-.79-.37-.1-.66.12-.79.45-.68 1.72-1.25 3.49-1.69 5.29-.11.44-.21.89-.3 1.34-.09.45-.24.96-.23 1.43.02.52.28.87.64 1.21.29.27.58.54.89.78.74.6 1.54 1.12 2.48 1.32.34.07.7-.1.79-.45.09-.32-.11-.72-.45-.79ZM117.77 61.1c-.83 0-.83 1.29 0 1.29s.83-1.29 0-1.29ZM133.1 62.53a.624.624 0 0 0-.17-.28l-.14-.14a.465.465 0 0 0-.21-.13.542.542 0 0 0-.5 0c-.08.03-.15.07-.21.13l-.1.13a.62.62 0 0 0-.09.32l.02.17c.03.11.09.2.17.28l.14.14c.06.06.13.11.21.13a.542.542 0 0 0 .5 0c.08-.03.15-.07.21-.13l.1-.13c.06-.1.09-.21.09-.32l-.02-.17Z" class="cls-13"/><path d="M150.29 127.38a52.5 52.5 0 0 1 4.64 6.36c1.31 2.11 2.5 4.29 3.72 6.45.76 1.35 1.54 2.7 2.34 4.02.43.71 1.55.06 1.11-.65-2.68-4.42-4.95-9.1-7.95-13.32a56.55 56.55 0 0 0-2.96-3.78c-.23-.26-.68-.23-.91 0-.26.26-.23.65 0 .91Z" class="cls-2"/><path d="m131.12 133.37-.36.24a4.757 4.757 0 0 1 .72.31l-.31-.45s-.04-.07-.05-.11ZM124.25 132.78c-.44.21-.9.4-1.39.47-.24.04-.48.06-.72.05H122c0 .05.01.1.03.17.05.19.11.33.22.5.18.3.43.52.74.69.1.05.17.12.22.2a179.177 179.177 0 0 1 4.9-3.96c-.49 0-.99.17-1.42.39-.85.44-1.59 1.07-2.45 1.49Z" class="cls-1"/><path d="M135.97 130.12a41.21 41.21 0 0 0-2.51-3.24c-.33.24-.67.48-1 .73l2.35 3.28 1.16-.77ZM139.31 127.99c.94-.58 1.89-1.16 2.84-1.73.19-.11.28-.28.3-.45.02-.14 0-.29-.07-.43-.24-.46-.55-.88-.86-1.29-.34-.44-.7-.88-1.06-1.3a.637.637 0 0 0-.44-.19.606.606 0 0 0-.49.06c-1.69 1.13-3.37 2.28-5.02 3.46.91 1.06 1.76 2.15 2.55 3.3.75-.48 1.5-.96 2.25-1.43Z" class="cls-13"/><path d="M133.96 131.9c.48.67 1.6.03 1.11-.65l-.26-.37-1.07.71.22.31Z" class="cls-2"/><path d="M109.53 146.28s-.06.05-.09.07c-.06.01-.12.03-.16.06-.14.09-.26.22-.3.38s-.02.34.06.5l.07.12-1.48 1.04c-.14.1-.25.21-.3.38-.04.15-.02.36.06.5s.22.26.38.3.36.03.5-.06l1.46-1.03c.08.14.23.25.38.3s.36.02.5-.06c.01 0 .02-.02.03-.02.1 0 .2-.03.31-.09l2.63-1.57c-.53-.91-1.11-1.79-1.74-2.64-.76.63-1.53 1.24-2.32 1.83ZM150.11 145.88c-2.82-.55-5.61-1.27-8.38-2.02-.8-.21-1.15 1.03-.34 1.24 2.77.75 5.56 1.47 8.38 2.02.34.07.7-.1.79-.45.09-.32-.11-.73-.45-.79Z" class="cls-13"/><path d="M145.67 159.02c-2.16-.89-4.32-1.76-6.49-2.62-.03-.3-.31-.63-.64-.59-2.76.31-5.57.25-8.32-.21-1.37-.23-2.72-.52-4.08-.8-.66-.14-1.33-.26-1.99-.41-.59-.13-1.2-.26-1.76-.51-.82-.36-1.69-1.11-1.8-1.99 1.24.39 2.53.63 3.79.76.35.04.64-.32.64-.64 0-.38-.3-.61-.64-.64-1.7-.18-3.44-.6-4.99-1.32-.63-.29-1.31-.68-1.69-1.27-.34-.53-.47-1.18-.18-1.7a.58.58 0 0 0 .08-.35c.44.08.89.11 1.33.12 1.93.03 3.88-.08 5.82-.13.83-.02.83-1.31 0-1.29l-4.82.12c-.63.02-1.26.04-1.89-.04-.31-.04-.63-.12-.93-.23-.24-.09-.52-.26-.65-.37-.33-.32-.53-.64-.6-1.13v-.25s.02-.12.01-.12c0-.04.02-.07.03-.11 0-.02.03-.08.03-.09.02-.04.05-.09.07-.13.01-.02.02-.03.02-.04.05-.06.1-.12.16-.16.44-.33 1.14-.34 1.67-.4l2.45-.32 5.32-.69c.35-.05.64-.26.64-.64 0-.31-.3-.69-.64-.64s-5.32.69-5.32.69l-2.55.33c-.3.04-.61.07-.92.12 0-.02 0-.03-.01-.05v-.02c0-.1-.02-.2-.02-.3s0-.2.02-.31v-.04c0-.05.02-.11.03-.16.02-.11.05-.21.08-.32.02-.05.03-.11.05-.16 0-.02.02-.05.03-.07.05-.1.09-.2.15-.3.03-.06.07-.11.1-.17 3.16-2.08 6.73-3.78 10.45-4.57.91-.19 1.87-.3 2.76.04.8.31 1.44.94 2.04 1.53.69.68 1.37 1.36 2.05 2.04l.05.07c.07.1.16.18.25.23.76.76 1.52 1.52 2.29 2.28l5.25 5.22c.59.59 1.5-.32.91-.91-2.59-2.57-5.18-5.15-7.77-7.72l-3.28-4.78a.752.752 0 0 0-.15-.16l1.59-1.08-2.31-3.22c-.68.5-1.35 1.01-2.02 1.52-.78-.35-1.65-.35-2.46-.1-.86.27-1.62.8-2.37 1.29-.67.44-1.43.91-2.25.93-.5.01-.98-.2-1.38.22-.34.36-.29.9-.21 1.35.13.73.55 1.4 1.12 1.87-1.86.83-3.66 1.8-5.36 2.93a.49.49 0 0 0-.13.12c-.04.03-.07.07-.1.11-.52.72-.78 1.65-.73 2.54-.1.03-.19.08-.28.17-.79.79-1.61 1.56-2.45 2.3.68.9 1.31 1.83 1.87 2.81l.95-.57c.25.21.52.38.82.51-.01.02-.02.03-.04.05-.47.86-.4 1.86.03 2.72s1.18 1.45 1.99 1.87c.29.15.59.29.89.41-.09 1.23.57 2.35 1.56 3.08 1.08.8 2.45 1.04 3.74 1.3 2.94.6 5.87 1.29 8.87 1.45 1.42.08 2.84.05 4.26-.07.06.05.13.09.21.12 2.46.97 4.91 1.96 7.36 2.97.32.13.71-.14.79-.45.1-.37-.13-.66-.45-.79Zm-14.55-25.64s.03.07.05.11l.31.45s-.01 0-.02-.01c-.23-.12-.46-.22-.7-.3l.36-.24Zm-8.99-.07c.24.01.48-.02.72-.05.49-.08.95-.26 1.39-.47.86-.42 1.6-1.05 2.45-1.49.42-.22.93-.39 1.42-.39-.5.39-1 .79-1.5 1.18-1.14.91-2.28 1.84-3.4 2.78a.722.722 0 0 0-.22-.2c-.31-.17-.55-.39-.74-.69-.11-.17-.17-.31-.22-.5a.61.61 0 0 1-.03-.17h.14Zm-5.1 6.55c.02-.06.01-.03 0 0ZM151.89 65.87c-.15-1.2-.72-2.42-1.81-3.03-1.31-.74-2.92-.36-4.11.42-.29.19-.41.57-.23.88.17.29.59.42.88.23.75-.5 1.75-.87 2.62-.52.79.32 1.21 1.16 1.35 1.98.18 1.05-.02 2.22-.26 3.25-.18.8-.51 1.63-1.28 1.95-.95.38-2.07.07-3.03-.24-.33-.11-.7.12-.79.45-.02.09-.03.18-.02.26a.9.9 0 0 0-.08.28c-.19 2.42-.33 4.85-.69 7.25-.18 1.2-.3 2.41-.42 3.62-.3 3.17-.54 6.35-.83 9.52-.07.76-.14 1.52-.22 2.27-.03.32-.07.64-.11.96 0 .07-.02.15-.03.22 0 .02-.01.07-.02.11v-.03c-.02.13-.03.25-.05.38-.05.34.09.69.45.79.31.08.74-.1.79-.45.42-2.77.6-5.59.83-8.38.14-1.6.27-3.2.42-4.8.06-.69.13-1.38.2-2.07.03-.29.06-.59.1-.88.02-.12.03-.24.05-.36 0-.04.01-.09.02-.13v-.1c.35-2.48.56-4.96.75-7.45.91.24 1.88.36 2.79.11 1.23-.35 1.97-1.38 2.31-2.57.17-.57.25-1.17.34-1.76.1-.72.16-1.43.07-2.16Z" class="cls-13"/><path d="M142.81 95.74c-.01.07 0 .05 0 0ZM120.19 86.19c-.48 3.34-.69 6.7-.6 10.07.02.83 1.31.83 1.29 0-.08-3.25.1-6.51.56-9.73.05-.34-.08-.69-.45-.79-.3-.08-.74.1-.79.45Z" class="cls-13"/><path d="M103.13 115.24c2.37.55 4.75 1.01 7.16 1.37 1.08.16 1.55-1.49.46-1.66-2.41-.36-4.79-.82-7.16-1.37-1.08-.25-1.54 1.41-.46 1.66Z" class="cls-6"/><path d="M111.26 113.33c-.1-.11-.24-.2-.43-.25-.41-.1-.83-.18-1.25-.25l.04-.26c.07-.45-.11-.93-.6-1.06-.83-.21-1.66-.38-2.5-.52-.42-.07-.98.11-1.06.6l-.1.63c-.43-.07-.85-.16-1.27-.26a.895.895 0 0 0-.57.05.93.93 0 0 0-.57.59 8.4 8.4 0 0 0-.36 1.56c-.06.46.11.92.6 1.06.37.1.9-.1 1.03-.5.02 0 .04.02.07.02 1.09.27 2.22.28 3.31.57.76.2 1.46.37 2.21.34.13.32.47.58.81.56.5-.02.82-.38.86-.86l.11-1.36c.02-.25-.12-.5-.32-.66ZM2.37 109.11c-.07-.89-.14-1.9.33-2.7.32-.55.94-1.13 1.52-1.44.85-.45 1.98-.48 2.92-.52 1.3-.06 2.61-.02 3.92-.01 6.17.04 12.34.05 18.52.03s12.4-.06 18.6-.09c6.17-.04 12.34-.08 18.52-.09 6.2-.02 12.4-.02 18.6.03.77 0 1.54.01 2.31.02.83 0 .83-1.28 0-1.29-6.31-.05-12.63-.06-18.94-.05-6.34.02-12.69.05-19.03.09-6.31.04-12.63.08-18.94.1-6.31.02-12.63.02-18.94-.02-1.37 0-2.74-.05-4.1-.01-1.12.03-2.31.09-3.39.44-.82.26-1.53.83-2.11 1.45s-.94 1.44-1.05 2.32c-.07.59-.06 1.18 0 1.76.07.82 1.36.83 1.29 0Z" class="cls-6"/><path d="M87.61 104.32c1.06-.03 2.14-.07 3.17.23.86.25 1.58.77 2.05 1.48 1.03 1.56 1.11 3.55 1.25 5.38.3 4.14.6 8.27.89 12.41.24 3.35.48 6.7.74 10.05.26 3.38.55 6.75.85 10.12.39 4.24.81 8.48 1.24 12.72.06.62.13 1.25.19 1.87.04.35.27.64.64.64.32 0 .68-.3.64-.64-.46-4.47-.91-8.94-1.33-13.41-.32-3.48-.62-6.96-.89-10.45s-.51-6.74-.75-10.11c-.29-4.13-.59-8.26-.89-12.39-.15-2.05-.2-4.2-1.08-6.1-.41-.9-1.06-1.69-1.9-2.22-.94-.6-2.06-.81-3.16-.86-.56-.03-1.12-.02-1.68 0-.83.03-.83 1.32 0 1.29Z" class="cls-6"/><path d="M114.77 127.46c.6-3.39 1.31-6.77 1.54-10.21 0-.12-.04-.23-.11-.32a.457.457 0 0 0-.29-.2 608.385 608.385 0 0 0-17.17-2.92.739.739 0 0 0-.21 0c-.27-.1-.6-.02-.69.34a93.63 93.63 0 0 0-1.98 10.49c-.04.29.28.54.54.54h.07c4.58.91 9.2 1.66 13.83 2.26 1.27.16 2.55.31 3.83.45.03 0 .07.01.1.01h.02c.12.01.23-.03.32-.11.1-.07.17-.16.19-.28v-.04Z" class="cls-4"/><path d="M40.11 139.61h19.84c.83 0 .83-1.29 0-1.29H40.11c-.83 0-.83 1.29 0 1.29Z" class="cls-6"/><path d="M101.76 156.37v-.04c-.46-4.46-.91-8.91-1.32-13.37-.32-3.48-.62-6.96-.89-10.45-.26-3.37-.51-6.74-.75-10.11-.29-4.13-.59-8.26-.89-12.39-.15-2.05-.2-4.2-1.08-6.1-.41-.9-1.06-1.69-1.9-2.22-.94-.6-2.06-.81-3.16-.86-.56-.03-1.12-.02-1.68 0h-.02c-5.67-.05-11.34-.06-17.01-.05-5.7 0-11.41.04-17.12.07-5.68.03-11.36.07-17.03.1-5.68.03-11.36.05-17.03.03-2.85 0-5.7-.02-8.56-.04-2-.01-4.18-.19-6.15.31h-.05c-2.44.52-4.61 2.26-5.61 4.55-.14.32-.09.69.23.88.06.04.13.06.21.07-.09.23-.16.44-.22.64-.06.21-.09.59-.09 1.08-.3.05-.58.32-.55.63l1.01 11.95.82 9.66.74 8.8.8 9.48.98 11.54.14 1.68c.12 1.67.19 3.55 1.3 4.9.57.7 1.43 1.13 2.27 1.41 1.01.32 2.08.41 3.14.42s2.15-.05 3.22-.08c1.07-.03 2.24-.07 3.37-.09a644.969 644.969 0 0 1 14.57-.21l-1.1 5.42-2 9.83c-.04.19 0 .39.1.54 0 .32.21.64.62.64h40.22c.18 0 .32-.06.42-.16.19-.11.33-.31.31-.54-.08-1.29-.08-2.58.03-3.86.01-.15-.05-.3-.16-.42a.559.559 0 0 0-.36-.22h-.13c-3.6 0-7.19 0-10.79-.02-.96 0-1.93 0-2.89-.01.19-3.7.42-7.4.66-11.1 4.37.04 8.74.09 13.11.14 4.27.05 8.54.09 12.81.13 2.28.02 4.56.03 6.84.04 1.58.01 3.24-.08 4.71-.68 1.32-.5 2.58-1.27 3.61-2.22.89-.82 1.55-1.93 2-3.07.09-.22.17-.44.24-.67v-.02c.19-.65.29-1.32.3-2 .03-1.31-.12-2.61-.21-3.91Z" class="cls-6"/><path d="M72.56 159.16c0 1.15.12 2.3.38 3.43.08.33.47.55.79.45a.66.66 0 0 0 .45-.79c-.06-.27-.12-.54-.16-.8l-.06-.37c-.02-.15 0 .06-.01-.08 0-.07-.02-.15-.03-.22-.06-.53-.08-1.07-.08-1.61 0-.34-.3-.66-.64-.64s-.64.28-.64.64ZM76.98 159.04c.05 1.16.2 2.31.46 3.45.08.33.47.55.79.45a.66.66 0 0 0 .45-.79c-.06-.27-.12-.54-.17-.81-.02-.12-.04-.25-.06-.38-.01-.06-.02-.12-.03-.19 0-.04-.01-.08-.02-.13-.01-.07-.01-.08 0-.04 0 .06-.01-.11-.02-.14 0-.07-.02-.15-.03-.22-.01-.13-.03-.25-.04-.38-.02-.28-.04-.55-.05-.83-.01-.34-.29-.66-.64-.64-.34.02-.66.28-.64.64ZM81.46 159.04c-.01 1.08.14 2.17.45 3.21.1.32.46.56.79.45s.55-.45.45-.79c-.15-.48-.26-.97-.33-1.47-.03-.19.02.13 0-.06a.88.88 0 0 0-.02-.17c-.01-.14-.03-.27-.03-.41-.02-.25-.02-.5-.02-.75 0-.34-.3-.66-.64-.64s-.64.28-.64.64ZM86.94 162.47c.83 0 .83-1.29 0-1.29s-.83 1.29 0 1.29ZM86.05 158.8v.12c0 .09.02.17.06.25.03.08.07.15.13.21s.13.11.21.13c.08.04.16.06.25.06l.17-.02c.11-.03.2-.09.28-.17l.1-.13c.06-.1.09-.21.09-.32v-.12c0-.09-.02-.17-.06-.25a.571.571 0 0 0-.13-.21.465.465 0 0 0-.21-.13.542.542 0 0 0-.25-.06l-.17.02c-.11.03-.2.09-.28.17l-.1.13a.62.62 0 0 0-.09.32Z" class="cls-6"/><g id="Layer_16"><path d="M138.83 77.96c-.07.03-.11.06-.11.07.04-.02.07-.05.11-.06Z" class="cls-10"/><path d="M146.83 55.12c-.56-2.19-1.18-4.42-2.41-6.35-.51-.8-1.11-1.51-1.81-2.14.07-.09.14-.18.21-.28.25-.37-.02-.81-.38-.95-.57-.21-1.18-.33-1.78-.38-.02-.04-.05-.07-.08-.11-2.36-2.82-6.15-4.05-9.75-3.85-2.02.11-4 .6-5.86 1.36-1.87.76-3.45 1.66-4.88 2.95-1.52 1.37-2.7 3.15-3.2 5.14-.08.32.07.57.3.7.03.02.05.04.09.06.25.15.67.09.84-.17.02-.03.05-.05.07-.08.79-1.11 1.71-2.14 2.73-3.05.18-.16.39-.36.64-.42.18-.05.25.03.35.12.12.12.23.24.34.37.13.61.34 1.15.78 1.62.47.5 1.13.84 1.79.99 1.54.35 3.22-.03 4.73-.36 2.69-.58 5.48-1.43 8.18-.63 1.03.3 2.02.86 2.66 1.69.81 1.04 1.04 2.39 1.04 3.69 0 .79-.11 1.56-.19 2.35-.05.45-.04.91.1 1.35.14.44.35.84.55 1.25l2.1 4.42c-.03 2.25-.34 4.52-1.21 6.6-.84 2.01-2.25 3.79-4.13 4.9-.72.43-1.5.75-2.31.93-.34-.21-.63-.6-.84-.91-.45-.67-.92-1.28-1.56-1.78-1.31-1.02-2.95-1.5-4.6-1.49-1.01 0-2.03.2-3 .5-.33.11-.55.45-.45.79.02.07.05.13.09.19 0 0 0 .01.01.02.08.11.2.19.34.24.69.32 1.54.29 2.27.35l2.53.22c.09 0 .19.01.28.02.31.45.68.86 1.09 1.22.06.12.14.23.26.31.69.52 1.09 1.43 1.15 2.25 0 .12.01.24 0 .37-.07.64-.29 1.24-.71 1.72-.47.54-1.04.88-1.74 1.03-.69.15-1.33.04-1.94-.35-.4-.25-.75-.56-1.14-.83-.39-.26-.8-.46-1.24-.6-.91-.29-1.88-.3-2.82-.15-.94.14-1.81.5-2.66.92-.34.17-.7.32-1.02.18-.2-.09-.44-.38-.55-.64-.18-.45-.15-1.01-.12-1.51.03-.46.07-.8.16-1.23.06-.28.13-.55.24-.8 1.58-.61 3.14-1.26 4.58-2.13.37-.22.37-.63.19-.91-.08-.27-.33-.44-.62-.47-2.38-.25-4.76.76-6.33 2.52-.66-.25-1.17-.8-1.59-1.37-.57-.78-1.07-1.62-1.49-2.49-.15-.32-.29-.65-.42-.98-.03-.14-.07-.28-.1-.43-.04-.15-.11-.3-.21-.42-.11-.33-.2-.66-.29-1-.02-.25-.04-.49-.05-.74-.1-1.8-.16-3.61-.23-5.42-.02-.35-.29-.64-.64-.64a.6.6 0 0 0-.27.07c-.31.06-.49.32-.53.63-.57 4.43-.75 8.99.26 13.37.5 2.16 1.31 4.26 2.47 6.15 1.23 1.99 2.84 3.86 4.83 5.1 2 1.24 4.32 1.81 6.62 1.93 2.31.12 4.52-.25 6.62-1.04 4.11-1.54 7.34-4.67 9.42-8.5 2.27-4.18 3.12-8.95 3.28-13.66.02-.58.03-1.15.03-1.73.59-.61 1.14-1.26 1.66-1.93.11-.14.19-.27.19-.46a.85.85 0 0 0-.04-.22c.23-2.38-.32-4.75-.9-7.05Zm-12.11-7.42v-.01s0 .01.01.02Zm3.15-3.47v-.01Z" class="cls-10"/><path d="M129.01 75.1c-.09-.26-.31-.45-.57-.47-.27-.07-.54.07-.71.3.04-.06-.1.11-.12.13-.06.06-.13.13-.2.18-.02.01-.03.02-.04.03-.03.02-.05.04-.08.05-.07.05-.13.09-.2.13-.29.16-.51.25-.87.33-.75.18-1.56.12-2.35.09-.35-.02-.64.31-.64.64 0 .17.07.32.17.43.03.1.08.2.16.27 1.04.83 2.33 1.73 3.73 1.24s2.17-1.96 1.71-3.36Z" style="fill:#b7957e"/></g><path d="M61.35 22.49c-.07-.04-.15-.08-.22-.11.07.04.15.08.22.11ZM61.93 22.81c-.09-.05-.17-.1-.26-.15.09.05.17.1.26.15Z" class="cls-1"/><path d="m29.13 45.26-.06-.31.06.31ZM28.76 42.28v-.19.19ZM28.81 43.03c0-.08-.01-.15-.02-.23 0 .08.01.15.02.23ZM29 44.52c-.02-.1-.03-.19-.05-.29.01.1.03.19.05.29ZM28.89 43.78l-.03-.26c0 .09.02.17.03.26ZM28.73 41.53v-.15.15ZM62.17 22.94c-.08-.05-.16-.09-.24-.13.08.04.16.09.24.13ZM61.67 22.66c-.11-.06-.21-.11-.32-.17.11.06.21.11.32.17ZM61.13 22.38c-.11-.06-.22-.11-.34-.17.11.05.22.11.34.17ZM28.83 39.28ZM28.74 40.78v-.1.1ZM28.77 40.03v-.06.06Z" class="cls-9"/><path d="M28.73 41.55c0 .18 0 .36.01.53 0-.18-.01-.36-.01-.53ZM28.76 42.3c0 .17.02.34.03.5l-.03-.5ZM28.81 43.04c.01.16.03.32.05.48-.02-.16-.03-.32-.05-.48ZM28.89 43.78l.06.45-.06-.45ZM28.83 39.32ZM28.73 41.38v-.57.57ZM28.77 40.06l-.03.6c0-.2.02-.4.03-.6ZM28.91 38.58ZM29 44.52c.02.14.05.28.07.42-.03-.14-.05-.28-.07-.42ZM29.19 45.55l-.06-.29.06.29ZM28.77 39.97c.01-.21.03-.43.05-.64v-.05l-.06.7Z" class="cls-7"/><path d="M28.86 43.52c-.02-.16-.03-.32-.05-.48.01.16.03.32.05.49ZM28.79 42.8l-.03-.5v-.01c0 .17.02.35.03.52ZM28.75 42.09c0-.18-.01-.36-.01-.53v-.02c0 .19 0 .37.01.56ZM28.73 41.38v-.6.6ZM29.07 44.94c-.03-.14-.05-.28-.07-.42.02.14.05.28.07.43ZM28.74 40.68c0-.2.02-.4.03-.6v-.04l-.03.65ZM29.13 45.26l.06.29-.06-.29ZM28.95 44.23l-.06-.45.06.45ZM28.83 39.28v.05-.06.01ZM29 44.52c-.02-.1-.03-.19-.05-.29.01.1.03.19.05.29ZM28.89 43.78l-.03-.27c0 .09.02.17.03.26ZM28.77 40.03v.04-.1.06ZM28.76 42.28v.01c0-.07 0-.14-.01-.21v.19ZM28.74 40.78v.03-.14.1ZM28.81 43.03c0-.08-.02-.16-.02-.24 0 .08.01.15.02.23ZM28.91 38.56v.01-.01ZM29.13 45.26l-.06-.32.06.31ZM28.73 41.53v.02-.18.15Z" class="cls-7"/><path d="M69.35 51.11c-.06-.15-.84-1.63-2.3-3.48-.03-.05-.06-.1-.07-.16-.16-1.92-.42-3.2-.42-3.2a.521.521 0 0 0-.45-.41l-1.53-.2h-.04a.33.33 0 0 0-.33.32v.53s-.01.02-.02.02h-.01c-.91-.83-1.94-1.65-3.08-2.36-.22-.15-.48-.23-.76-.24-.28 0-.54.08-.76.22-5.32 3.23-8.28 8.52-8.39 8.81a.528.528 0 0 0 .34.73l1.52.31c.2.06.36.23.38.45.01.27.25 6.29.6 7.85.06.23.26.39.51.4h.01c.89-.02 1.71-.02 2.59-.03h.07c.09 0 .17-.08.17-.17-.03-.53-.1-1.73-.15-3v-.1c0-.11-.06-.21-.15-.26-.46-.28-.77-.77-.79-1.33-.06-2.11-.09-4.55.04-6.46.01-.16.14-.29.3-.29.17 0 .31.14.31.3v.02c-.08 1.27-.1 2.77-.09 4.26 0 .2.17.36.37.36.2 0 .36-.17.36-.37-.02-1.49 0-3.01.09-4.28.01-.16.14-.29.3-.29.17 0 .31.14.31.3v.02c-.08 1.26-.1 2.76-.09 4.24a.365.365 0 0 0 .73 0c-.02-1.49 0-2.99.09-4.26.01-.16.14-.29.3-.29.17 0 .31.14.31.3v.02c-.12 1.85-.11 4.2-.05 6.26v.07c0 .56-.29 1.06-.72 1.35-.08.05-.13.14-.14.24 0 0-.04.32.09 1.85.06.67.11 1.13.13 1.34 0 .08.08.14.16.14h1.17c.4 0 .78 0 1.14.01l.87.02c.08 0 .15-.06.16-.14.21-1.84.27-2.87.27-2.87 0-.09-.07-.16-.16-.18l-1.05-.15a.356.356 0 0 1-.3-.26c-.02-.08-.01-.16-.01-.16.47-6.12 2.51-8.17 2.51-8.17.06-.06.1-.08.1-.08.05-.04.12-.06.19-.06.14 0 .25.09.3.21 0 0 .02.04.03.15.16 1.93.05 5.2-.08 7.76-.11 2.17-.23 3.87-.23 3.87 0 .07.06.13.12.13.57.02 1.14.03 1.73.05h.01c.24 0 .45-.16.51-.39.37-1.56.71-7.57.72-7.84.03-.21.18-.39.38-.44l1.53-.28a.525.525 0 0 0 .35-.73ZM53.29 121.24c-.03-.07-.38-.75-1.05-1.6s-.03-.05-.03-.07c-.18-1.16 0-1.43-.39-1.66l-.7-.09c-.22-.02-.17.26-.17.39 0 0-.01.01-.02 0-.42-.38-.89-.76-1.41-1.09a.606.606 0 0 0-.35-.11c-.13 0-.25.04-.35.1-2.45 1.47-3.82 3.89-3.87 4.03-.19.43.64.4.85.48.38.15.16 2.92.43 3.81.28.4.99.08 1.42.17.05 0 .11-.02.11-.08-.01-.24-.05-.86-.06-1.42-.85-.89-.32-2.61-.4-3.7 0-.18.3-.16.28.02-.04.58-.05 1.27-.05 1.95 0 .22.34.21.33 0-.09-2.76.46-2.82.28 0 0 .22.34.21.33 0 .09-.69-.19-1.65.19-2.09.08 0 .15.07.14.15-.06.86-.05 1.95-.03 2.9-.33 1.2-.56.01-.31 2.2 0 .07.08.07.14.07.45 0 .95.01 1.39.02.04 0 .07-.03.08-.06.07-1.31.45-1.4-.43-1.47-.12-.04-.16-.1-.13-.28.29-2.83 1.11-3.62 1.22-3.7.64-.08 0 5.09.06 5.47s.03.06.06.06c.31-.06.86.2 1.03-.15.29-.89.13-3.66.52-3.8.21-.08 1.05-.03.86-.46Z" class="cls-4"/><path d="M101.06 118.94c1.9.44 3.81.84 5.73 1.18.81.15 1.16-1.1.34-1.24-1.92-.35-3.83-.74-5.73-1.18-.81-.19-1.15 1.06-.34 1.24ZM100.64 121.98l3.94.75c.81.15 1.16-1.09.34-1.24l-3.94-.75c-.81-.15-1.16 1.09-.34 1.24Z" class="cls-12"/><path d="M100.29 78.02c-1.74-.48-3.4-1.19-4.94-2.13-1.5-.91-2.87-2.02-4.08-3.29-.6-.63-1.16-1.31-1.67-2.02v-.02c2.69-4.2 4.13-9.16 3.52-14.21-.46-3.78-1.82-7.78-4.53-10.55-2.39-2.44-5.63-3.48-8.8-4.52-1.99-.9-4.01-1.76-5.62-3.25-3.07-2.85-4.13-7.16-6.64-10.43-1.46-1.9-3.29-3.46-5.35-4.66-.08-.05-.16-.09-.24-.13-.09-.05-.17-.1-.26-.15-.11-.06-.21-.11-.32-.17-.07-.04-.15-.08-.22-.11-.11-.06-.22-.11-.34-.17l1.37.73c-1.23-.72-2.53-1.3-3.88-1.76-4.16-1.41-8.6-1.49-12.77-.43-3.24.83-6.32 2.34-8.97 4.47-4.22 3.38-6.92 8.17-7.63 13.34v.01c-.03.23-.06.46-.08.68v.06c-.02.21-.04.43-.05.64v.1l-.03.6V41.54c0 .18 0 .36.01.53 0 .07 0 .14.01.21 0 .17.02.34.03.5 0 .08.01.16.02.24.01.16.03.32.05.48l.03.27.06.45c.01.1.03.19.05.29.02.14.05.28.07.42l.06.32.06.29c.01.07.03.14.04.2.85 3.72 2.77 7.16 5.62 9.71 1.67 1.49 3.59 2.74 5.03 4.48 1.46 1.76 2.32 3.92 3.21 6 1.58 3.69 3.68 6.99 6.65 9.73a27.21 27.21 0 0 0 10.12 5.88c7.51 2.39 15.74 1.02 22.25-3.35a29.984 29.984 0 0 0 19.31 2.4c.28-.06.41-.26.41-.48.62-1.05-.54-1.82-1.54-2.1Zm-31.3-26.18-1.53.28c-.2.05-.36.23-.38.44-.02.27-.35 6.28-.72 7.84-.06.22-.27.39-.51.39h-.01c-.6-.02-1.16-.03-1.73-.05-.07 0-.12-.06-.12-.13s.12-1.71.23-3.87c.13-2.56.24-5.83.08-7.76 0-.11-.03-.15-.03-.15a.326.326 0 0 0-.3-.21c-.07 0-.14.02-.19.06 0 0-.04.02-.1.08 0 0-2.03 2.05-2.51 8.17 0 0 0 .09.01.16.03.13.13.23.3.26l1.05.15c.09.02.16.09.16.18 0 0-.05 1.03-.27 2.87-.01.08-.08.14-.16.14l-.87-.02c-.37 0-.75 0-1.14-.01h-1.17c-.08 0-.15-.06-.16-.14-.02-.21-.07-.67-.13-1.34-.13-1.53-.09-1.85-.09-1.85 0-.1.06-.19.14-.24.43-.29.72-.79.72-1.35v-.07c-.06-2.06-.08-4.41.05-6.26v-.02c0-.17-.14-.3-.31-.3s-.29.13-.3.29c-.09 1.27-.11 2.77-.09 4.26 0 .2-.16.36-.36.36-.2 0-.36-.16-.37-.36-.02-1.48 0-2.97.09-4.24v-.02c0-.17-.14-.3-.31-.3s-.29.13-.3.29c-.09 1.28-.11 2.79-.09 4.28 0 .2-.16.37-.36.37-.2 0-.37-.16-.37-.36-.02-1.49 0-2.99.09-4.26v-.02c0-.17-.14-.3-.31-.3s-.29.13-.3.29c-.13 1.91-.11 4.35-.04 6.46.03.57.34 1.06.79 1.33.09.05.15.15.15.26v.1c.05 1.26.12 2.47.15 2.99 0 .1-.08.17-.17.17h-.07c-.88 0-1.7.02-2.59.03h-.01c-.24 0-.45-.17-.51-.4-.35-1.56-.59-7.58-.6-7.85a.523.523 0 0 0-.38-.45l-1.52-.31a.525.525 0 0 1-.34-.73c.11-.29 3.07-5.58 8.39-8.81.22-.14.48-.22.76-.22s.54.09.76.24c1.14.72 2.17 1.53 3.08 2.36h.01c.01 0 .02-.02.02-.02v-.53c0-.18.15-.32.33-.32h.04l1.53.2c.22.03.41.19.45.41 0 0 .26 1.28.42 3.2 0 .06.03.11.07.16 1.46 1.85 2.25 3.33 2.3 3.48.03.07.05.15.05.23 0 .25-.17.45-.4.51Z" style="fill:#afcbcd"/><path d="M57.66 179.87c-.3 1.59-.59 3.19-.89 4.78" class="cls-4"/><path d="M56.78 184.65c.33.06.8-.96 1.04-2.28.24-1.32.17-2.44-.16-2.5-.33-.06-.8.96-1.04 2.28-.24 1.32-.17 2.44.16 2.5Z" class="cls-4"/><path d="M59.99 21.86c-.56-.24-1.13-.48-1.71-.67-4.16-1.41-8.6-1.49-12.77-.43-3.24.83-6.32 2.34-8.97 4.47-4.22 3.38-6.92 8.17-7.63 13.34v.01c-.03.23-.06.46-.08.68v.06c-.02.21-.04.43-.05.64v.1l-.03.6V41.55c0 .18 0 .36.01.53 0 .07 0 .14.01.21 0 .17.02.34.03.5 0 .08.01.16.02.24.01.16.03.32.05.48l.03.27.06.45c.01.1.03.19.05.29.02.14.05.28.07.42l.06.32.06.29c.01.06.02.12.04.18 8.5-9.89 19.08-17.98 30.76-23.87Z" class="cls-7"/></g><g id="Outline"><path d="M141.82 97.83s.3.01.84-.1l-.18-.2c-.7 1.33-2.16 4.51-4.9 8.34-.68.95-1.45 1.96-2.29 2.94-.2.23-.41.41-.57.47-.16.05-.28.03-.42-.09-.15-.12-.3-.38-.41-.66-.11-.28-.2-.63-.31-.98-.84-2.79-1.75-5.78-2.7-8.91l-.08-.27-.04-.14c-.02-.06-.04-.13-.07-.19-.1-.24-.25-.47-.43-.66-.36-.39-.93-.64-1.5-.59-.29.02-.61.14-.84.33-.23.18-.39.4-.5.6-.23.41-.33.75-.48 1.08-.55 1.35-1.08 2.67-1.59 3.94l-1.47 3.69c-.23.58-.46 1.15-.68 1.71-.01.04-.02.1-.08.12-.05.02-.1-.03-.11-.08-.47-1.62-.91-3.09-1.29-4.39-.41-1.35-.77-2.52-1.07-3.48-.61-1.92-1-2.99-1.1-2.96-.1.03.11 1.15.55 3.11.23.98.51 2.17.84 3.54.36 1.42.76 3.02 1.2 4.78a.979.979 0 0 0 1.01.75c.23-.01.45-.11.61-.27.16-.15.27-.42.38-.68.24-.56.48-1.14.73-1.73.49-1.17 1-2.39 1.54-3.66.53-1.27 1.07-2.58 1.63-3.93.14-.33.28-.7.41-.93.15-.25.25-.31.39-.32.18-.01.37.06.52.22.08.08.14.18.18.29.01.03.02.05.03.08l.04.13.08.27c.97 3.12 1.9 6.11 2.77 8.89.23.65.36 1.49 1.11 2.16.19.16.45.29.73.34.27.05.56 0 .79-.09.47-.2.75-.51.99-.79.86-1.07 1.6-2.09 2.27-3.1 2.66-4.01 3.93-7.33 4.39-8.77l.1-.31-.28.11c-.51.2-.77.33-.75.38ZM159.68 142.67c.63-.17 0-4.38-2.3-9.03-2.27-4.66-5.21-7.74-5.73-7.35-.56.4 1.38 3.97 3.55 8.42 2.19 4.43 3.82 8.15 4.48 7.96ZM148.82 140.88c-.31-.13-.9.55-1.31 1.53-.42.97-.5 1.87-.19 2 .31.13.9-.55 1.31-1.53.42-.97.5-1.87.19-2ZM140.82 162.06c.31.12.74-.24.95-.79.21-.56.12-1.1-.19-1.22-.31-.12-.74.24-.95.79-.21.56-.12 1.1.19 1.22Z" class="cls-4"/><path d="M174.55 178.37c.04-.36-2.08-.82-5.38-1.73a65.2 65.2 0 0 1-2.69-.79c-.97-.28-1.97-.65-3.04-1.01-2.12-.78-4.41-1.71-6.75-2.84a76.299 76.299 0 0 1-6.4-3.55c-.94-.62-1.86-1.18-2.68-1.76-.84-.56-1.59-1.11-2.28-1.62-2.76-2.04-4.42-3.42-4.68-3.17-.22.21 1.01 2.04 3.58 4.49.64.61 1.36 1.27 2.17 1.92.79.68 1.7 1.33 2.65 2.02 1.93 1.34 4.14 2.68 6.58 3.88 2.45 1.18 4.87 2.09 7.11 2.78 1.13.32 2.2.63 3.22.83 1.01.24 1.97.4 2.85.53 3.51.5 5.71.35 5.74.04ZM192.32 154.05c.15-.28-1.94-1.81-5.63-3.77-1.84-.99-4.09-2.05-6.64-3.12-2.56-1.05-5.41-2.1-8.47-3.03-3.06-.92-6.02-1.63-8.73-2.18-2.71-.52-5.18-.89-7.26-1.09-4.16-.41-6.75-.3-6.78.01-.07.72 10.09 1.91 22.06 5.58 11.99 3.59 21.1 8.23 21.45 7.59ZM58.36 168.64c.08 0 .23-1.07.43-3.01.2-1.95.44-4.76.72-8.25.26-3.49.57-7.64.91-12.25l.06-.87c.02-.3.05-.56.05-.92 0-.68-.15-1.36-.46-1.99a4.585 4.585 0 0 0-3.28-2.46 5.5 5.5 0 0 0-1.06-.07h-2.88c-1.3-.02-2.61-.03-3.94-.05-1.33-.02-2.65-.03-3.96-.03-.65 0-1.3.01-1.94.02-.32 0-.64.02-.96.02-.36.02-.72.06-1.07.16-1.4.37-2.56 1.43-3.06 2.73-.13.31-.21.68-.26.98-.05.29-.11.59-.16.88-.1.58-.21 1.16-.31 1.73-.8 4.55-1.51 8.65-2.12 12.1-.58 3.45-1.04 6.24-1.32 8.17-.29 1.94-.4 3.01-.32 3.03.08.02.36-1.03.79-2.94.43-1.91 1.01-4.68 1.7-8.1.68-3.43 1.48-7.51 2.37-12.05.11-.57.22-1.14.33-1.72.06-.29.11-.58.17-.88.05-.29.11-.51.21-.76.38-.96 1.25-1.74 2.28-2.01.26-.08.53-.1.8-.11.32 0 .63-.01.95-.02.64 0 1.28 0 1.92-.01l3.94.03c1.33.01 2.65.03 3.95.04h1.94c.32 0 .64 0 .96-.01.32 0 .55 0 .83.05 1.06.17 1.98.89 2.45 1.81.23.46.35.97.36 1.48 0 .23-.02.56-.03.84-.02.29-.03.58-.05.87-.24 4.62-.46 8.77-.65 12.26-.17 3.49-.28 6.32-.33 8.27s-.04 3.04.04 3.04Z" class="cls-4"/><path d="M151.05 166.54c.14.08.99-.99 2.19-2.85 1.19-1.86 2.71-4.56 3.84-7.78 1.16-3.21 1.68-6.27 1.89-8.48.04-.55.08-1.06.1-1.5v-1.13c-.02-.62-.07-.97-.15-.97-.4-.04-.73 5.43-2.98 11.67-1.1 3.12-2.45 5.81-3.44 7.76-1 1.95-1.6 3.19-1.44 3.28Z" style="fill:#e5b342"/><path d="M28.82 153.32c-.01-.34-2.88-.5-6.4-.36-3.52.14-6.37.52-6.35.86.01.34 2.88.5 6.4.36 3.52-.14 6.37-.52 6.35-.86ZM28.82 146.47c-.01-.34-2.88-.5-6.4-.36s-6.37.52-6.35.86c.01.34 2.88.5 6.4.36 3.52-.14 6.37-.52 6.35-.86ZM80.58 152.83c-.01-.34-2.88-.5-6.4-.36s-6.37.52-6.35.86c.01.34 2.88.5 6.4.36 3.52-.14 6.37-.52 6.35-.86ZM80.58 145.97c-.01-.34-2.88-.5-6.4-.36s-6.37.52-6.35.86c.01.34 2.88.5 6.4.36 3.52-.14 6.37-.52 6.35-.86Z" class="cls-4"/><path d="M96.91 160.81s.03-.51-.02-1.46-.15-2.36-.29-4.17c-.28-3.62-.72-8.85-1.29-15.32-.59-6.46-1.29-14.16-2.07-22.7-.2-2.14-.41-4.32-.62-6.56-.05-.56-.11-1.12-.16-1.69-.04-.64-.25-1.33-.63-1.89-.37-.57-.91-1.03-1.53-1.32a3.73 3.73 0 0 0-.98-.31c-.34-.07-.7-.06-.97-.06l-14.46.06c-19.81.1-37.74.26-50.72.43-3.25.05-6.18.09-8.76.13-1.29.03-2.49.03-3.61.1-1.12.08-2.15.25-3.03.57-1.79.62-2.85 1.76-3.3 2.62-.24.43-.34.8-.39 1.04-.04.25-.04.37-.03.38.06.02.12-.5.63-1.29.5-.77 1.55-1.79 3.24-2.3.84-.26 1.83-.39 2.91-.44 1.09-.04 2.29 0 3.58 0 2.58.01 5.51.03 8.76.05 12.98.04 30.92.02 50.72-.08l14.46-.09c.31 0 .53 0 .77.04.23.04.46.11.67.21.43.2.8.52 1.05.91.27.39.41.83.44 1.32.06.56.11 1.12.17 1.68.22 2.24.44 4.42.66 6.56.88 8.54 1.67 16.23 2.33 22.69.68 6.46 1.25 11.68 1.68 15.29.21 1.8.39 3.2.52 4.15.13.95.22 1.44.26 1.44Z" class="cls-4"/></g></svg>