<svg xmlns="http://www.w3.org/2000/svg" xmlns:xlink="http://www.w3.org/1999/xlink" viewBox="0 0 200 200" xmlns:v="https://vecta.io/nano"><style><![CDATA[.P{fill:#b4cacc}.Q{fill:#f6c243}.R{fill:#5b3d5b}.S{fill:#c1dade}.T{fill:#f2a6b0}.U{fill:#a0b4b5}]]></style><path d="M189.31,101.1c-2.32-7.07-8.65-15.48-10.2-23.63.17-.42.3-.88.36-1.39,1.22-9.73,6.38-19.15,1.7-28.84-1.96-4.06-5.28-7.31-9.17-9.79-6.35-5.3-15.23-7.46-23.32-6.46-.07,0-.14.02-.2.04-4.67-.22-9.42.1-13.96.27-8.51.32-17.06,1.47-25.58,1.18-8.33-.28-15.87-3.56-24-4.92-14.38-2.4-25.82,4.7-32.31,17.44-3.66,7.17-5.45,15.08-8.73,22.4-3.06,6.84-7.51,12.85-12.65,18.27-5.83,6.14-12.64,11.1-18.71,16.96-5.2,5.02-8.72,11.66-7.39,18.83.01,2.09.16,4.15.35,6.03,1.07,10.81,7.52,21.05,13.11,30.13,11.06,17.93,26.94,34.35,48.51,38.19,9.72,1.73,19.75,1.01,28.75-3.25,10.13-4.79,18.19-14.04,26.94-20.88,4.94-3.86,9.86-7.85,15.12-11.26,5.87-3.81,12.35-5.93,18.78-8.55,9.58-3.91,18.92-9.24,25.48-17.43,7.52-9.38,10.94-21.68,7.11-33.34Z" fill="#575655"/><path d="M137.6 66.11c-.04-2.48 2.36-4.84 4.9-4.53 1.34.16 2.54 1.11 3.62 1.86 1.43 1 2.84 2.01 4.51 2.56 3.45 1.13 6.89-.34 8.97-3.18 2.27-3.1 2.16-6.61 1.21-10.16-.43-1.62-.9-3.22-.37-4.87.48-1.49 1.6-2.78 3.18-3.07s2.65.3 3.68 1.39c1.34 1.41 2.64 2.56 4.52 3.17 3.36 1.08 7.34.13 9.79-2.43s3.33-6.23 2.66-9.66c-.36-1.84-1.66-3.43-1.87-5.3-.17-1.49.56-3.06 1.65-4.06 2.6-2.37 6.33-1.05 8.27 1.45.8 1.03 2.57.84 3.41 0 1.02-1.02.8-2.39 0-3.42-2.34-3.02-6.31-4.55-10.06-3.97s-6.59 3.32-7.69 6.79a9.15 9.15 0 0 0-.14 5.03c.49 1.92 1.8 3.56 1.83 5.59.04 3.2-2.4 6.07-5.77 5.51-1.61-.27-2.43-1.38-3.52-2.47-1.54-1.53-3.47-2.44-5.65-2.54-4.21-.19-7.77 2.74-8.97 6.69-.55 1.83-.48 3.72-.1 5.57.4 1.96 1.36 3.93.9 5.96-.29 1.29-1.1 2.67-2.34 3.26-1.4.67-2.75-.06-3.94-.83-3.36-2.14-6.47-4.67-10.72-3.36-3.9 1.21-6.86 4.85-6.8 9 .05 3.11 4.88 3.12 4.83 0h0z" class="Q"/><g fill="#e87003"><path d="M138.7 160.08s-.06 0-.09.01c.05.01.09.02.09-.01zm-9.08 4.91a2.74 2.74 0 0 0-.4.15h.19l.21-.14zm14.66-8.3c.15-.03.28-.07.4-.11-.09 0-.21.02-.4.11zm-24.12 14.75a2.68 2.68 0 0 0-.36.29c.22-.15.32-.23.36-.29zm12.62-7.64l-.35.14c.12-.04.24-.08.35-.14zm5.92-3.82c.07.06.27-.09 0 0h0zm2.72-1.7l-.29.12c.1-.03.2-.06.29-.12z"/><path d="M141.13 158.4a.61.61 0 0 0-.26.12l.26-.12zm4.47-1.59c-.07.04-.11.08-.14.11.03-.02.08-.06.14-.11zm-15.65 8.57c.27-.1.73-.45.76-.62-.37.28-.7.51-1.09.9.17-.11.43-.14.33-.28zm-3.59 1.98c.14-.18.41-.3.28-.37-.13.01-.45.37-.28.37z"/></g><path d="M145.17,163.87h-4.46v-3.43l4.5-.13-.04,3.56Z" class="P"/><path d="M137.72 155.23s0-.03-.01-.05l-.08-18.31-.14-19.64-.05-19.91.08-19.93.05-19.8v-2.41c0-.06-.02-.1-.04-.15l.02-17.62v-6.74c0-1.94.12-3.84-.66-5.66-.33-.76-.77-1.51-1.44-2.02-.61-.47-1.36-.74-2.09-.92-1.59-.38-3.26-.23-4.87-.24l-13.8-.08h-.04l-12.82-.08-17.6.06-17.6.22-4.3.08c-1.33.03-2.69-.03-3.99.32-.99.27-1.96.77-2.66 1.53-.7.77-1.13 1.81-1.41 2.81s-.38 2.06-.44 3.13l-.19 3.87-.08 7.36.01.94c0 .04-.02.07-.02.11l-.38 34.49-.36 34.45.16 34.04.39 16.29c.05 1.29.1 2.68.84 3.79.91 1.35 2.32 1.76 3.87 1.86l3.96.05 4.63.06 9.38.15c4.55.16 9.11.21 13.66.24l14.93.03 8.15.04 8.55-.07 5.94-.07c.03 0 .06.02.09.02 1.54.02 3.07.04 4.6-.06 1.05-.07 2.12-.3 3.04-.83 2.34-1.35 2.4-4.15 2.57-6.54.11-1.6.14-3.2.09-4.8z" class="R"/><g class="U"><path d="M79.86 181.23c-3.83 0-7.66-.25-11.48-.35l-2.61-.04c-.58 0-.58.91 0 .91 3.87-.03 7.75.22 11.61.34l2.48.05c.58 0 .58-.91 0-.91h0zm64.86-17.29l.02 6.83c0 .58.91.58.91 0l-.02-6.83c0-.58-.91-.58-.91 0z"/><path d="M145.65 168.54c-.01-.28-.23-.43-.46-.43v-.04l-.15-9.54h0v-11.75c-.07-2.46-.15-42.51-.05-47.62.1-5.12.06-50.16.06-50.16h-1.59l.12-14.14 1.38.03.08-.51s0-2.98-.08-4.83c-.09-1.85-.17-5.85-.64-8.14s-2.59-4.21-3.75-5.03-4.21-2.13-6.12-1.94-27.52 0-31.95 0l-38.81.45c-5.2.1-7.52.97-9.16 1.83-1.64.87-2.63 3.17-3.23 4.69s-.46 9.56-.47 12.49l-.26 33.4c.03 1.92-.49 31.96-.65 37.99-.16 6.02.03 28.5.16 40.82.13 12.22.49 21.19.63 24.19l-.45-1.29c.39 3.13.67 6.52 2.66 9.1 1.15 1.5 2.79 2.47 4.6 2.97 1.28.36 2.63.44 3.95.51 1.43.09 2.88.15 4.31.15.27 0 .41-.2.43-.42l9.95.32c.03.2.16.4.43.41h0c5.62.25 11.25.31 16.87.34l16.24.03 8.89.04 9.35-.08 4.64-.05c1.29.04 2.6.03 3.88-.13 1.67-.21 3.29-.85 4.67-1.82 1.29-.9 2.34-2.05 3-3.48s1.06-2.94 1.32-4.47c.22-1.3.27-2.61.22-3.92z"/></g><path d="M144.72 159.98v3.89c0 .58.91.58.91 0v-3.89c0-.58-.91-.58-.91 0z" class="P"/><path d="M141.16 163.79c-.01-.28-.23-.43-.45-.43l-.31-37.42V86.12l.11-22.08.05-29.65-.02-7.45c.23 0 .47-.14.47-.44 0-2.09.05-4.18-.46-6.23-.31-1.26-.81-2.51-1.58-3.56-.64-.87-1.51-1.44-2.5-1.84-1.6-.64-3.39-.82-5.11-.82h-6.9-7.65l-15.41-.07-19.39.14-19.93.34c-2.36.05-4.76.24-6.9 1.33-2.39 1.22-4.01 3.75-4.54 6.34-.25 1.26-.27 2.53-.26 3.8v3.83 6.02l.01.89c-.01.04-.03.09-.03.14l-.41 35.7-.44 34.61.02 34.63.33 17.66.22 8.17c.14 2.13.5 4.4 1.89 6.1 2.63 3.22 7.15 3.09 10.91 3.12 3.23.02 6.47.22 9.7.35.03 0 .06.02.09.02h0c5.55.25 11.11.31 16.67.34l16.11.03 8.83.04 9.24-.08 6.83-.08c2.62.08 5.36.06 7.52-1.59 2.68-2.04 3.25-5.62 3.26-8.8 0-1.08.04-2.18 0-3.26z" class="S"/><path d="M144.6 55.23l-.06 19.88-.06 20.07-.03 20.94.12 20.56.14 20.77.01 2.58c0 .58.91.58.91 0l-.13-20.72-.13-20.65v-20.9l.07-20.07.05-20.08v-2.38c0-.58-.9-.58-.91 0z" class="U"/><path d="M60.12 25.45c-3.32 1.57-3.26 5.1-3.33 9.89l-.44 88.85.09 32.26c.24 1.81.39 3.9 3.38 4.01s36.69.35 49.37.44c6.52.05 16.58.08 19.16-.26s4.66-.57 5.02-3.58c.35-3.01.86-15.85.78-63.48l.28-63.94c0-2.03-.65-4.07-6.13-4.11l-47.82-.45c-6.92-.05-18.6-.48-20.37.36h0z" fill="#ff8000"/><g fill="#ff9020"><path d="M93.33 179.99s-.06-.08-.06-.06c.02.03.04.07.07.1 0 0 0-.02-.01-.03zm-.24-.04c.04.05.14.09.25.11-.11-.04-.06-.02-.18-.1 0-.03.05 0 .08.02-.02-.02.03 0-.02-.06-.08-.05-.13 0-.06.06-.03 0-.05-.02-.07-.03zm2.31.87h-.02zm1.73.03s-.02.02-.02.03c.01 0 .02-.02.02-.03zm.3.12c-.02.01-.01.02 0 0z"/><path d="M95.4 180.82l.05.04s-.02-.03-.05-.04zm-2.02-.64h-.03.03zm1.26.75h-.01s0 .03-.01.05l.02-.05h0zm-.59.04s.02-.1.02-.14c0 .04-.02.06-.03.07v.07zm-.95-.47h-.02zm1.96.45v.04-.04zm-1.44-.97zm-.53.15h0-.06.07zm4.88.96h0zm4.4-1.66c-.07.05-.2-.03-.27.04.05-.02.24.01.27-.04z"/><path d="M93.37 180.19zm8.73-.72h0zM99.34 181l-.03-.05a.52.52 0 0 0 .03.05zm-1.05-.12h.02zm1.73-.04s.05.02.06 0c0 0-.01 0-.02-.01 0 .01 0 .02-.04 0zm.74-.02s-.04-.01-.05-.02h-.01l.06.02zm-5.86-.97s-.02-.06-.02-.09c0 .07-.07.1.02.09z"/><path d="M93.33 180.2l.04-.01c-.01 0-.03.01-.03.02zm5.79-.14h.03-.03zm-.62-.25h-.02z"/><path d="M99.16 180.05l.13.07c-.02 0-.03-.01-.05-.02l-.08-.04zm-3.25-.93s0 .01.01.02v-.03h0zm-.53 1.68h0zm2.96-.93v-.02l-.02.02h.02zm-3.79.6s0-.02-.01-.03c0 0 0 .02.01.03zm-.35-.01l-.05-.04.05.04zm-.27-.05v.04-.04zm4.32-.21c.02-.02 0-.01 0 0zm-1.28.26l.04-.05c-.02 0-.04 0-.04.05zm2.15-.41h0 0z"/><path d="M97.07 180.41s-.04-.01-.06 0c.02 0 .04.02.06 0zm-3.71-.33h0-.01z"/><path d="M93.35 180.08h-.01zm-.03-.02h.02zm.06.18l.03-.02s-.01.01-.03.02z"/><path d="M93.43 180.27s.03-.08 0-.07l-.02.02s-.04.09.02.05zm.22.56l-.1-.05c0 .04.02.1-.03.1.11.14 0-.09.12-.05z"/><path d="M93.95 180.91c-.05.02 0 .06 0 .08.03-.04.04-.04 0-.08zm2.07-.04v.09-.09zm.39-.49l-.04-.05v.08l.04-.03zm.25.66h-.02l.06-.02-.05.02zm4.14-.13l-.22-.11s.21.14.22.11zm1.17-.37c.09 0 .17 0 .11-.02-.03.01-.12.01-.11.02zm-3.24-1.59l.03-.04-.06.03h.03z"/></g><path d="M140.92 160.65l4.25-.1c.58-.02.58-.93 0-.91l-4.25.1c-.58.02-.58.93 0 .91z" class="P"/><g class="R"><use xlink:href="#B"/><use xlink:href="#B" x="5.39"/><use xlink:href="#B" x="10.49"/><use xlink:href="#B" x="15.45"/><path d="M66.88 179.58c.78 0 .78-1.21 0-1.21s-.78 1.21 0 1.21zm5.38.11c.78 0 .78-1.21 0-1.21s-.78 1.21 0 1.21zm5.1.09c.78 0 .78-1.21 0-1.21s-.78 1.21 0 1.21zm4.96.1c.78 0 .78-1.21 0-1.21s-.78 1.21 0 1.21z"/></g><path d="M140.81,164.39h4.25c.58,0,.58-.91,0-.91h-4.25c-.58,0-.58.91,0,.91Z" class="P"/><path d="M140.11 51.51l-.06 22.1-.08 22.3.02 22.45.15 22.02.11 22.65v2.96c0 .58.91.58.91 0l-.09-22.81-.16-22.04-.05-22.34.08-22.37.06-22.22.01-2.71c0-.58-.9-.58-.91 0h0z" class="S"/><path d="M46.49 74.69c.1 0 .2-.02.34-.03l.28-.12c-.08 0-.16 0-.23.02l-.39.12h0z" class="T"/><path d="M94.4 180.73h1.59c.51 0 1.11-.06 1.59-.27.2-.09.69-.34.66-.65-.09-.83-1.69-.92-2.25-.92H94.4c-.51 0-1.11.06-1.59.27-.2.09-.69.34-.66.65.09.83 1.69.92 2.25.92h0z" fill="#ff9020"/><g fill="#e87003"><path d="M30.67 89.6c.04-.09.08-.19.1-.27-.08.13-.1.21-.1.27zm25.64-47.9l.14-.2c-.1.08-.13.14-.14.2zm86.63-6.44c-.1.13.41.31.19.16.1-.11-.58-.31-.19-.16zm30.91 13.98c.13.14.08.29.14.46.46.19-.41-.69.11-.34a1.22 1.22 0 0 0-.3-.33l-.12.35c.27.24-.03-.24.16-.14h0z"/><path d="M173.81 49s-.02 0-.03.01l.02.02V49zm-5.86-6.18h.07-.07zm-3.16 102.6v-.16l-.36.12c.08.02.28.07.36.04z"/></g><path d="M54.48,99.14c-3.83-2.34-9.01-1.02-10.96,3.13-.45.96-.69,1.92-.75,2.98-.06.92.18,1.96-.41,2.75-.36.48-.89.76-1.5.74-1.08-.02-1.59-.96-2.3-1.62-3.34-3.1-9.05-1.77-10.3,2.77-.28,1.03-.26,2.07-.09,3.12.11.69.68,1.94.33,2.61-.67,1.28-1.8-.04-2.31-.63-1.63-1.86-3.61-2.97-6.14-2.49-2.2.42-4.12,2.01-5.13,3.98-1.42,2.77,2.74,5.22,4.17,2.44.38-.74.98-1.52,1.87-1.68.89-.15,1.28.56,1.82,1.17,1.57,1.79,3.46,2.92,5.91,2.45,2.05-.4,3.93-1.96,4.5-4.01.39-1.39.1-2.76-.17-4.13-.16-.84-.37-1.75.46-2.3.66-.44,1.31-.18,1.85.29,1.09.95,1.84,1.91,3.25,2.44,2.32.87,5.02.35,6.83-1.36.89-.84,1.58-1.95,1.9-3.14.33-1.19.09-2.31.27-3.47.34-2.22,2.68-2.95,4.45-1.87,2.66,1.63,5.09-2.56,2.44-4.18Z" class="R"/><path d="M143.46 48.99l-.27-11.84.05-2.34h2.74s.33.2.41 1.38l.26 9.77-.25 2.84s-1.29.25-1.72.2-1.21 0-1.21 0h0zm-92.63-16.9s-1.27.28-1.38.08-.33-2.65-.23-3.22c.11-.57.05-1.6.11-1.83.06-.22.23-.41.61-.39s.88 0 .88 0v5.36zm-.54 36.78c0 .15-.94.26-1.07-.12s.11-2.26 0-3.47-.2-6.5 0-6.86c.21-.37.31-.74.68-.57.38.16.72 0 .72 0l-.34 11.03h0zm.4-15.81s-1.22.04-1.33-.26c-.11-.31-.19-3.75-.13-5.3l.21-5.12c.22-.3.44-.61.72-.43s.64.15.64.15l-.11 10.96z" class="Q"/><path d="M145,29.86h-4.49l.07-3.39,4.47-.03-.05,3.42Z" class="P"/><path d="M50.48 26.28l-.67.07c-.18.02-.38.02-.55.09-.42.19-.4.62-.4 1.02v2.53 1.23c0 .36-.06.8.14 1.12.16.26.45.38.75.38.12 0 .24-.03.37-.04.03 0 .16 0 .17-.01-.03.05-.2-.22-.13-.06.1.22.42.28.62.16.23-.13.27-.4.16-.62-.2-.45-.67-.38-1.07-.34h-.18c.11 0 .05.07.08-.04.04-.12 0-.31 0-.43v-3.82c0-.08-.04-.34 0-.39l-.16.16c.08-.06.27-.04.37-.05l.5-.05c.24-.02.45-.19.45-.45 0-.23-.21-.48-.45-.45h0zm.28 15.53c-.3-.37-.84-.4-1.24-.17-.48.27-.62.82-.65 1.33l-.05 4.19-.04 4.18c0 .54-.13 1.26.22 1.73.32.43.88.47 1.37.42.57-.06.58-.97 0-.91-.15.02-.34.06-.49.02-.2-.06-.2-.18-.2-.38l.02-1.55.03-3.06.03-3.06.02-1.46c0-.18 0-.45.13-.6.1-.11.17-.11.22-.04.37.45 1-.19.64-.64h0zm-.15 15.87c-.32-.38-.88-.37-1.26-.09-.46.34-.49.94-.52 1.47l-.16 4.12-.05 4.12c0 .53-.12 1.24.21 1.69.15.21.37.31.62.34h.27c.06 0 .12 0 .18-.01h.05c.4.43 1.04-.21.64-.64-.29-.32-.59-.2-.96-.25-.12-.02-.05.06-.1-.05-.03-.07 0-.18 0-.26v-.82l.03-3.22.1-3.22.07-1.66c0-.08.08-1.08.24-.89.38.45 1.01-.2.64-.64h0z" class="Q"/><g class="U"><path d="M144.56 49.44l-.02 15.82c0 .58.91.58.91 0l.02-15.82c0-.58-.91-.58-.91 0zm.01-19.54l.02 4.48c0 .58.91.58.91 0l-.02-4.48c0-.58-.91-.58-.91 0z"/><path d="M144.6 27.95v2.08c0 .24.21.47.45.45.24-.01.45-.2.45-.45v-2.08c0-.24-.21-.47-.45-.45-.24.01-.45.2-.45.45zm-12.37-12.98c2.66-.03 5.44.33 7.81 1.64.86.48 1.65 1.07 2.29 1.82.76.89 1.2 1.99 1.52 3.1.46 1.59.66 3.26.75 4.91.03.58.94.58.91 0-.08-1.55-.26-3.11-.64-4.63-.32-1.28-.78-2.57-1.58-3.64-1.41-1.86-3.6-2.97-5.82-3.54-1.7-.44-3.47-.6-5.23-.57-.58 0-.58.91 0 .91h0z"/></g><g class="R"><path d="M97.34 17.17c-.37-.05-.78.14-1.01.43a1.33 1.33 0 0 0-.26 1.17 1.5 1.5 0 0 0 1.58 1.11c.35-.04.7-.17.95-.43a1.45 1.45 0 0 0 .37-.91c.03-.63-.39-1.31-1.04-1.43-.36-.06-.76 0-1.06.22-.34.25-.55.57-.58 1a.45.45 0 0 0 .45.45.46.46 0 0 0 .45-.45c0-.08-.02.11 0 .02 0-.02.01-.05.02-.07v-.03c0-.05-.02.07-.03.06 0-.02.03-.06.04-.08s.03-.04.04-.06c.02-.04-.04.06-.04.05l.02-.02c.02-.03.08-.11.12-.11 0 0-.09.06-.05.04 0 0 .02-.01.03-.02.02-.02.04-.03.06-.04s.05-.02.07-.04c0 0 .02 0 .03-.02.05-.02-.11.04-.04.02.04-.02.09-.03.14-.04h.03c.07-.02-.06 0-.06 0h.08.06.04s-.11-.02-.07 0c.02 0 .05 0 .07.02.04.01.11.06 0 0 .04.02.08.04.12.07.08.05-.06-.06-.01-.01.02.02.04.03.05.05 0 0 .05.04.05.05 0 0-.06-.09-.04-.05 0 .01.02.02.02.03a.54.54 0 0 1 .07.13c.02.05-.04-.1-.02-.05 0 0 0 .02.01.03 0 .02.02.05.02.07s.01.04.02.06v.04c.01.05 0-.11 0-.06v.14.08c0 .09.02-.11 0-.02-.01.05-.02.09-.04.13 0 0 0 .04-.02.04 0 0 .05-.1.02-.06-.02.02-.02.05-.04.08 0 .01-.03.06-.04.06l.04-.05-.02.02-.06.06-.02.02c-.05.05.07-.05.03-.02s-.08.05-.13.08c0 0-.03.02-.04.02l.05-.02c-.03 0-.06.02-.09.03-.04.01-.1.03-.15.03h.06-.05-.08-.08c-.1 0 .09.02.02 0-.05-.01-.11-.02-.16-.04-.01 0-.11-.04-.03 0 .08.03 0 0-.03-.02l-.06-.03c-.01 0-.02-.02-.04-.02-.05-.03.03.02.04.03l-.12-.12c-.05-.06.05.08 0 0l-.06-.09c0-.02-.01-.03-.02-.05-.03-.05 0 .02.01.04 0-.03-.02-.07-.03-.1 0-.04-.01-.07-.02-.1v.05-.05-.11.05c0-.02 0-.04.01-.06 0-.03.02-.07.03-.1.01-.04-.02.05-.02.05.01 0 .02-.04.03-.05 0-.01.01-.02.02-.03.03-.05-.02.02-.03.03.02-.02.05-.05.07-.08.01-.01.02-.02.04-.03.05-.04-.02.02-.03.02.03-.01.06-.04.08-.05.01 0 .02-.01.03-.02.04-.02-.11.04-.03.01.03 0 .05-.02.08-.02.1-.02-.1 0 0 0h.11c.11.01.25-.06.32-.13.08-.08.14-.21.13-.32 0-.11-.04-.24-.13-.32-.09-.09-.19-.12-.32-.13h0z"/><path d="M96.92 17.79c-.05.07-.08.14-.11.22a.66.66 0 0 0-.04.15c-.03.17-.03.34.02.5a.82.82 0 0 0 .25.38c.12.1.25.18.41.21.05 0 .12.02.17.02s.12-.01.17-.02c.08-.01.15-.05.22-.08.12-.06.24-.18.29-.31.06-.13.11-.28.09-.43a.79.79 0 0 0-.08-.31c-.03-.07-.08-.13-.13-.18a.71.71 0 0 0-.48-.19.73.73 0 0 0-.41.12c-.14.1-.27.24-.31.41s-.02.34.07.49.22.24.38.29a.68.68 0 0 0 .4 0c.12-.02.24-.09.33-.18.12-.11.18-.28.19-.45 0-.17-.07-.35-.2-.46-.05-.04-.1-.08-.16-.11-.12-.05-.18-.07-.31-.08-.3-.03-.63.17-.7.48-.03.12-.02.24.04.35a.48.48 0 0 0 .27.21.44.44 0 0 0 .35-.05.44.44 0 0 0 .21-.27v-.03l-.05.11s.01-.03.02-.04l-.07.09.03-.03-.09.07.05-.03-.11.05s.04-.01.06-.02l-.12.02h.09l-.12-.02.08.02-.11-.05.06.03-.09-.07s.03.02.04.04l-.07-.09.02.04-.05-.11s0 .03.01.04l-.02-.12v.05l.02-.12s0 .03-.01.05l.05-.11s-.01.03-.02.04l.07-.09s-.02.02-.04.03l.09-.07-.05.03.11-.05s-.05.02-.08.02l.12-.02h-.09l.12.02s-.05 0-.08-.02l.11.05-.05-.03.09.07-.04-.04.07.09s-.02-.02-.02-.04l.05.11s0-.03-.01-.05v.12s.01-.03.01-.05v.12-.05l-.05.11.03-.05-.07.09s.03-.03.04-.05l-.09.07.07-.04-.11.05s.05-.02.08-.02l-.12.02h.08l-.12-.02s.04 0 .06.02l-.11-.05.05.03-.09-.07s.03.03.04.05l-.07-.09.03.06-.05-.11s.02.05.02.08v-.12s-.01.06-.01.09v-.12.1l.04-.11s-.03.05-.04.08l.07-.09-.06.06.09-.07s-.04.03-.06.04l.11-.05s-.06.02-.08.02l.12-.02h-.1l.12.02-.12-.03.11.05s-.07-.03-.1-.06l.09.07-.08-.08.07.09s-.04-.06-.05-.09l.05.11s-.03-.08-.03-.12v.12s0-.09.01-.14v.12c0-.05 0-.11.03-.16l-.05.11.06-.11c.03-.05.05-.11.05-.17.01-.06.01-.12 0-.18a.44.44 0 0 0-.21-.27c-.11-.05-.23-.08-.35-.05l-.11.05a.41.41 0 0 0-.16.16h0z"/></g><g class="P"><path d="M144.57 26.54v3.36c0 .58.91.58.91 0v-3.36c-.01-.25-.2-.45-.45-.45-.24 0-.46.21-.45.45z"/><path d="M140.56 26.96l4.49-.06c.58 0 .58-.91 0-.91l-4.49.06c-.58 0-.58.91 0 .91z"/></g><g class="Q"><path d="M143.58 35.31l1.19-.06c.2 0 .4-.02.59-.03.1 0 .34-.06.43 0 .17.13.13.69.14.87l.08 1.2.17 4.78-.06 4.79-.05 1.2c0 .1.03.37-.04.45-.07.07-.35.04-.43.04-.71.04-1.43.02-2.14 0-.58-.02-.58.89 0 .91l2.01.01c.53-.02 1.15-.02 1.4-.58.13-.29.11-.66.12-.97l.05-1.12.05-2.17-.28-8.9c-.05-.57-.18-1.22-.82-1.39-.34-.09-.73-.02-1.08 0l-1.33.07c-.58.03-.58.94 0 .91h0z"/><path d="M143.75,49.14c-.15-4.82-.15-9.63-.01-14.45.02-.58-.89-.58-.91,0-.14,4.82-.14,9.63.02,14.45.02.58.92.58.91,0Z"/></g><path d="M140.58,30.35h4.44c.58,0,.58-.91,0-.91h-4.44c-.58,0-.58.91,0,.91Z" class="P"/><g class="S"><path d="M140.1 29.86l-.04 23.95-.01 7.64c0 .58.91.58.91 0l.04-24.6.01-6.99c0-.58-.91-.58-.91 0h0z"/><path d="M140.11 26.5v3.35c0 .58.91.58.91 0V26.5c0-.58-.91-.58-.91 0z"/></g><path d="M125.39 141.23c-.54-2.58 1.84-4.89 4.41-4.13 1.36.4 2.52 1.42 3.87 1.91s2.97.49 4.37.03c2.96-.96 5.03-3.68 5.06-6.81.02-1.86-1.84-6.07.91-6.76 1.18-.29 2.12.75 3.01 1.37 1.27.88 2.68 1.46 4.24 1.45 2.73-.01 5.46-1.65 6.72-4.09.7-1.35.87-2.78.69-4.27-.17-1.37-1.06-3.17-.7-4.53.19-.72.88-1.17 1.59-1.34 1.19-.29 1.66.42 2.44 1.23 2.45 2.57 5.97 3.27 8.99 1.12 3.21-2.29 3.77-6.34 3.01-9.97-.64-3.05-5.29-1.76-4.66 1.29.27 1.29.33 2.82-.4 3.97-.49.77-1.56 1.47-2.5 1.1-1.07-.43-1.88-1.94-2.85-2.61-1.1-.76-2.5-1.1-3.82-1.04-2.76.14-5.48 1.93-6.36 4.62-.46 1.43-.31 2.93-.02 4.38.24 1.23.95 2.74.24 3.92-.42.69-1.21 1.22-2.01 1.35-1.33.21-2.34-.95-3.35-1.62-2.6-1.72-5.91-1.6-8.3.47-2.7 2.35-2.26 5.47-1.8 8.66.16 1.11.23 2.18-.69 2.97-.88.76-1.83.74-2.83.27-1.74-.83-3.13-1.82-5.11-2.02-1.7-.17-3.49.24-4.97 1.1-3.25 1.88-4.59 5.69-3.84 9.26.64 3.05 5.3 1.76 4.66-1.29h0z" class="T"/><g class="S"><path d="M164.04,141.85v5.54c0,.97,1.51.97,1.51,0v-5.54c0-.97-1.51-.97-1.51,0Z"/><path d="M162.24 145.45h4.96c.4 0 .77-.35.75-.76s-.33-.76-.75-.76h-4.96c-.4 0-.77.35-.75.76s.33.76.75.76z"/></g><path d="M171.37,66.74h-2.18v-2.71c0-.97-1.51-.97-1.51,0v2.71h-2.35c-.97,0-.97,1.51,0,1.51h2.35v2.53c0,.97,1.51.97,1.51,0v-2.53h2.18c.97,0,.97-1.51,0-1.51Z" class="R"/><path d="M188.26 82.21h-1.47v-1.76c0-.4-.35-.77-.75-.76-.41.02-.75.33-.75.76v1.76h-1.6c-.39 0-.77.35-.75.76s.33.76.75.76h1.6v1.64c0 .4.35.77.75.76.41-.02.75-.33.75-.76v-1.64h1.47c.4 0 .77-.35.75-.76s-.33-.76-.75-.76z" fill="#f75e28"/><path d="M20.58,87.7h-2.74v-3.36c0-.97-1.51-.97-1.51,0v3.36h-2.94c-.97,0-.97,1.51,0,1.51h2.94v3.16c0,.97,1.51.97,1.51,0v-3.16h2.74c.97,0,.97-1.51,0-1.51Z" class="S"/><path d="M38.28 162.38h-1.04v-1.36c0-.4-.35-.77-.75-.76-.41.02-.75.33-.75.76v1.36H34.6c-.4 0-.77.35-.75.76s.33.76.75.76h1.14v1.25c0 .4.35.77.75.76.41-.02.75-.33.75-.76v-1.25h1.04c.4 0 .77-.35.75-.76s-.33-.76-.75-.76z" class="Q"/><path d="M39.41,32.84h-2.13v-2.52c0-.97-1.51-.97-1.51,0v2.52h-2.31c-.97,0-.97,1.51,0,1.51h2.31v2.35c0,.97,1.51.97,1.51,0v-2.35h2.13c.97,0,.97-1.51,0-1.51Z" class="T"/><path d="M111.47 91.6c-.11-.28-1.56-2.99-4.26-6.4-.07-.08-.11-.18-.12-.29-.16-1.98-.43-3.96-.81-5.91-.04-.2-.15-.37-.29-.51-.15-.13-.33-.22-.53-.24l-2.81-.35h-.07a.56.56 0 0 0-.42.18.59.59 0 0 0-.17.42v.98s0 .02-.01.03c0 0-.02.01-.03.01-1.78-1.61-3.68-3.06-5.69-4.33-.41-.28-.89-.43-1.39-.43a2.48 2.48 0 0 0-1.39.43c-9.69 6.05-15.02 15.88-15.23 16.42a.98.98 0 0 0-.09.41c0 .22.07.43.2.6a.99.99 0 0 0 .52.35l2.79.54a.93.93 0 0 1 .47.31c.12.15.2.33.22.52.02.5.55 11.63 1.21 14.52.05.21.18.39.34.52.17.13.37.2.59.2h.02l4.73-.09h.13s.08 0 .12-.02a.36.36 0 0 0 .17-.17c.02-.04.02-.08.02-.12h0l-.32-5.55c0-.06 0-.13-.01-.19 0-.1-.03-.19-.08-.28-.05-.08-.12-.15-.2-.2a3.23 3.23 0 0 1-1.04-1.04c-.26-.43-.4-.91-.43-1.41-.15-3.9-.22-8.41 0-11.94a.51.51 0 0 1 .18-.38.58.58 0 0 1 .39-.15c.14 0 .28.06.38.16s.16.24.17.39v.04c-.14 2.35-.15 5.13-.1 7.88 0 .09.02.18.06.26.03.08.09.15.15.22.06.06.14.11.22.14a.75.75 0 0 0 .26.05.54.54 0 0 0 .25-.06.8.8 0 0 0 .21-.15c.06-.06.11-.14.14-.22a.75.75 0 0 0 .05-.26c-.05-2.76-.04-5.56.1-7.92a.56.56 0 0 1 .17-.4c.11-.1.25-.16.4-.16a.56.56 0 0 1 .39.17c.1.11.16.25.16.4v.04c-.14 2.34-.15 5.11-.1 7.84 0 .18.08.35.2.47.13.12.3.19.47.19.18 0 .35-.08.47-.21a.71.71 0 0 0 .19-.48c-.05-2.75-.04-5.54.11-7.88a.56.56 0 0 1 .17-.4c.11-.1.25-.16.4-.16a.56.56 0 0 1 .39.17c.1.11.16.25.16.4v.05c-.2 3.43-.13 7.77 0 11.59v.13c0 .49-.12.98-.35 1.42s-.56.81-.96 1.09c-.07.05-.13.12-.17.19-.04.08-.07.16-.07.25 0 0-.07.59.19 3.42l.25 2.48c0 .07.05.14.1.19s.12.07.2.07h5.82c.07.01.14-.01.2-.06.05-.05.09-.12.1-.19.37-3.4.45-5.31.45-5.31a.31.31 0 0 0-.09-.22c-.05-.06-.13-.1-.21-.11l-1.93-.27c-.13-.02-.25-.07-.35-.15s-.17-.2-.2-.32c-.02-.1-.03-.2-.03-.3.78-11.32 4.47-15.14 4.47-15.14.05-.06.11-.11.18-.16.1-.07.22-.11.35-.11a.61.61 0 0 1 .33.1c.1.07.17.16.22.28a1.28 1.28 0 0 1 .05.27c.32 3.56.16 9.62-.03 14.34l-.37 7.16c0 .03 0 .06.02.09.01.03.03.05.05.08.02.02.05.04.07.05.03.01.06.02.09.02l3.17.07h.02c.21 0 .42-.07.59-.2a.92.92 0 0 0 .34-.52c.66-2.89 1.18-14.02 1.21-14.52.02-.19.1-.37.22-.52a.91.91 0 0 1 .47-.3l2.79-.54c.21-.05.39-.17.52-.35.13-.17.2-.38.2-.6 0-.14-.04-.28-.09-.4z" fill="#fff"/><g class="T"><path d="M171.19 8.44a.53.53 0 0 0-.2-.24l.08.45c.03.17.09.34.13.51l-.01-.73h0zm-1.37-1.46l-.05.14.16.19c.05.05.07.09.08.09.03-.03.02-.12.01-.18l-.2-.24h0zm-19.66 22.88c.81-.86.98-1.03 2.23-2.06.18-.25-.73.31-.2-.21l-.47.31-.83.91-1.31 1.1c-.37.34-.9.8-.32.57.16-.06-.12.27-.2.42l1.09-1.04h0zm-8.41 4.99c.3-.16.72-.47.92-.56.5-.24.62-.32.53-.4-.03-.02-.04-.06-.06-.09-.03-.05-.03-.12-.12-.14a2.45 2.45 0 0 0-.47.27c-.48.38-.74.69-1.53 1.12-.03.06-.16.21-.06.17.19-.07.49-.21.78-.37h0z"/><path d="M147.97 31.9c-.11.12-.34.3-.52.45l.79-.5c.47-.39 1.03-.78 1.65-1.15.09-.05.28-.25.42-.38-.17.09-.35.16-.51.27-.4.28-.75.52-.71.36l-.32.21c.19.04-.57.53-.8.76h0zm1.18-1.84c.05-.02.17-.1.27-.17l.19-.14c.09-.18.29-.41.76-.78.03-.03.02-.12-.06-.07l-.88.53c-.23.19-.33.37-.45.54-.04.05.02.05.05.09.01 0 .02.06.12 0h0zm1.73-.52s.14.05.25-.02c.27-.18.62-.43.81-.62.2-.18.25-.31.37-.46l-.61.37c-.44.34-.95.65-.82.72zm-11.32 6.77l.14-.18c-.03-.06-.02-.11-.08-.11-.15 0-.53.25-.79.41-.15.09-.32.25-.32.29 0 .05.09.05.25-.01l.81-.39h0zm-3 2.02l.21-.07.24-.21.55-.38c.36-.25.13-.18-.15-.09-.18.06-.25.05-.37.07l-.24.18c-.05.1-.06.16-.1.25s-.85.57-.32.35c.04-.02.11-.05.19-.1h0zm11.21-7.72c.14-.1.25-.21.54-.47l-1.09.59c-.02.01-.28.26-.25.26.13 0 .27 0 .8-.38z"/><path d="M148.18 30.89c.05-.08.14-.18.15-.23 0-.02-.13.04-.2.07l-.43.45.47-.28zm3.9-3.31l.37-.42c.02-.05-.14.04-.22.06l-.46.45c-.03.03.15-.04.31-.09zm-9.8 7.15l.55-.32c.18-.12.34-.26.51-.38l-.64.37-.41.34h0zm4.87-3.53l.09-.05.15-.1c.01-.05.05-.11.03-.14 0-.01-.11.05-.29.13 0 .08 0 .13.02.17h0zm-2.4 1.35l-.44.25-.31.25.49-.28c.09-.06.17-.14.26-.22zm-77.3 35.69l-.91.21c-.02 0-.21.11-.19.1l.76-.16c.02 0 .16-.08.34-.16zm-2.74.67c-.08 0-.14 0-.18.02l-.4.15h.14l.44-.15h0z"/></g><path d="M145.28 100.19s-.11-.28-.42-.67l-.59-.7-.38-.43-.33-.38v-.07l.02-.21.02-.44.03-.93.05-2.1.05-4.91-.05-4.93-.05-2.11-.03-.94-.02-.44v-.21c-.01-.07-.02-.06-.02-.09l.6-.91.48-.76c.25-.42.37-.67.32-.71s-.26.14-.6.5l-.61.67-.37.43c-.06.08-.13.15-.2.23l-.28.34-.07 1.9-.05 2.11-.05 4.93.05 4.91.05 2.1.07 1.92.57.53.43.38.7.59c.39.31.63.46.67.42z" fill="#ff7800"/><path d="M128.6 10.99c.05.13 1.59-.32 4.37-1.12 2.78-.79 6.8-1.95 11.82-3.08 2.51-.57 5.28-1.11 8.26-1.53 2.98-.45 6.19-.7 9.52-.56.83.04 1.67.07 2.5.23l1.25.19c.22.02.41.08.58.13.18.06.38.09.54.17.7.27 1.22.71 1.52 1.28s.38 1.31.26 2.09c-.27 1.59-1.12 3.23-2.13 4.75a34.12 34.12 0 0 1-3.56 4.42c-2.64 2.84-5.55 5.32-8.44 7.62-2.9 2.28-5.8 4.36-8.64 6.25-5.66 3.78-10.98 6.86-15.49 9.38l-10.78 5.81c-2.56 1.34-3.96 2.14-3.9 2.27s1.56-.44 4.24-1.57a182.18 182.18 0 0 0 11.11-5.27c4.62-2.37 10.05-5.35 15.84-9.09 2.89-1.86 5.86-3.94 8.83-6.24 2.96-2.32 5.95-4.84 8.69-7.8a35.12 35.12 0 0 0 3.76-4.69c1.08-1.67 2.06-3.47 2.4-5.57.14-1.05.07-2.24-.49-3.29s-1.55-1.79-2.53-2.14c-1.01-.38-1.92-.45-2.82-.58-.91-.17-1.8-.18-2.68-.21-3.52-.09-6.82.24-9.85.76-3.04.5-5.83 1.13-8.34 1.8-5.04 1.32-9.02 2.69-11.74 3.72s-4.17 1.73-4.12 1.86zM66.54 68.45c-.09-.28-4.73 1.02-12.22 3.04-3.75.99-8.22 2.18-13.21 3.29-2.49.56-5.12 1.08-7.86 1.52-2.72.41-5.58.78-8.42.67-1.38-.08-2.82-.25-3.8-.81-.49-.27-.82-.61-.95-1.02-.15-.42-.11-.97.03-1.53.28-1.14.98-2.29 1.69-3.35.73-1.06 1.54-2.07 2.36-3.02 3.34-3.79 6.8-6.87 9.7-9.43 5.85-5.08 9.65-8.03 9.48-8.27-.15-.21-4.26 2.33-10.39 7.18-3.04 2.45-6.63 5.43-10.17 9.29a34.02 34.02 0 0 0-2.56 3.15c-.79 1.16-1.59 2.38-2.02 3.96-.2.78-.32 1.69-.01 2.64.3.96 1.07 1.71 1.83 2.12.77.45 1.57.67 2.36.83.79.15 1.57.23 2.34.26 3.11.12 6.02-.29 8.82-.74 2.79-.47 5.45-1.04 7.96-1.66 5.03-1.22 9.47-2.55 13.19-3.72 7.42-2.38 11.91-4.15 11.83-4.4z" fill="#ffb5c4"/><path d="M149.73 76.21c0 .15 1.03.24 2.88.41 1.83.19 4.55.36 7.65 1.23.77.22 1.56.51 2.3.89s1.44.88 1.91 1.52c1.01 1.25.68 3.17-.31 4.97-.97 1.81-2.42 3.56-4.03 5.26-1.62 1.7-3.43 3.35-5.34 4.99-7.71 6.49-15.39 11.59-20.88 15.33-5.52 3.71-8.97 5.98-8.82 6.23.13.23 3.84-1.61 9.58-5.03 5.71-3.46 13.55-8.39 21.41-15 1.95-1.67 3.8-3.38 5.47-5.17 1.66-1.79 3.17-3.66 4.25-5.76.52-1.05.95-2.18 1.02-3.4.09-1.21-.28-2.52-1.04-3.42-.73-.92-1.66-1.48-2.55-1.9-.89-.41-1.77-.68-2.62-.87-3.38-.74-6.11-.68-7.99-.64-1.88.07-2.91.24-2.9.37zm-36.47 47.39c-.26-.53-6.85 2.38-14.93 5.94-8.09 3.55-14.69 6.39-14.49 6.93.18.5 7.13-1.51 15.3-5.1 8.16-3.6 14.36-7.31 14.13-7.77zm-42.7 17.53c-.09-.26-3.7.61-9.46 2.22l-10.08 2.9-5.97 1.41c-2.07.4-4.25.73-6.41.74-1.07 0-2.13-.1-3.03-.39-.45-.15-.84-.34-1.17-.58a2.36 2.36 0 0 1-.7-.88c-.32-.68-.28-1.61-.08-2.51.19-.91.55-1.81.94-2.66 1.64-3.43 3.82-6.28 5.6-8.63 3.66-4.68 6.19-7.4 5.98-7.6-.18-.18-3.07 2.18-7.07 6.7-1.96 2.29-4.29 5.06-6.17 8.73-.45.93-.88 1.92-1.14 3.03-.25 1.09-.41 2.4.15 3.72a4.25 4.25 0 0 0 1.28 1.66c.55.42 1.16.7 1.77.91 1.22.39 2.44.48 3.64.5 2.41 0 4.66-.38 6.81-.81 2.14-.44 4.17-.99 6.08-1.56 3.8-1.17 7.16-2.35 10-3.32 5.66-1.96 9.12-3.31 9.03-3.57z" fill="#e5b342"/><defs ><path id="B" d="M111.63,180.1c.78,0,.78-1.21,0-1.21s-.78,1.21,0,1.21Z"/></defs></svg>