<svg xmlns="http://www.w3.org/2000/svg" viewBox="0 0 200 200"><defs><style>.cls-1{fill:#f70}.cls-2{fill:#575655}.cls-3{fill:#f2be45}.cls-4{fill:#ebe9e6}.cls-5{fill:#fff}.cls-7{fill:#7e567c}.cls-8{fill:#c398d7}</style></defs><g id="BG_Strong"><path class="cls-2" d="M163.44 159.77c60.08-22.39 33.71-113.26-28.57-92.97-25.42 8.28-30.19-40.6-64.45-26.69-62.14 23.01-85.14 104.75-53.66 127.6 17.58 12.75 50.37-2.38 86.65-3 43.64-.74 48.6-.69 60.02-4.94z"/><path class="cls-2" d="M17.37 162.81c0 4.48-9.8 10.39 40.58 10.39s131.57-6.03 131.57-10.51-40.84-8.11-91.22-8.11c-50.38 0-80.93 3.75-80.93 8.23z"/></g><g id="Illustrations"><path class="cls-7" d="M153.78 73.16c-.04-.13-.12-.26-.18-.38-.09-.18-.18-.36-.26-.53-.18-.36-.35-.71-.53-1.07-.14-.28-.56-.38-.82-.21h-.03c-.18.08-.37.17-.55.25-.1.04-.19.08-.29.12-.02 0-.08.03-.1.04-.07.03-.13.06-.2.08-.57.24-1.14.46-1.71.69-1.26.49-2.53.97-3.81 1.42-.61.22-1.22.43-1.84.62-.05.02-.09.04-.13.06-.23.04-.46.19-.5.43-.15.93-.3 1.85-.44 2.78-.04 0-.07.02-.11.04-2.14.93-4.25 1.92-6.35 2.91 0 0-.02 0-.03.01h-.02c-.13.07-.21.19-.26.32 0 .02-.01.03-.02.05a.58.58 0 0 0 0 .32c.41 1.34.83 2.67 1.24 4.01.1.31.42.51.74.42a.61.61 0 0 0 .42-.74v-.03l1.43-.48c.11.28.42.49.73.39.3-.1.52-.42.42-.74-.17-.54-.33-1.08-.5-1.62.9-.41 1.81-.81 2.72-1.21.08-.04.15-.1.19-.17.04-.06.07-.12.08-.19.18-1.09.35-2.18.52-3.28.06 0 .12 0 .19-.03 2.71-.84 5.39-1.82 8.04-2.85.56-.22 1.12-.44 1.66-.69.08-.04.14-.1.19-.17.13-.15.17-.4.12-.59z"/><path class="cls-8" d="M158.09 132.71c-.78-1.79-2.54-2.82-4.45-2.96-.32-.02-.6.29-.6.6 0 .34.28.58.6.6.16.01.31.03.47.06.15.93.38 2.61.43 2.84.07.32.45 1.32.35 1.67s-.84 1.05-1.49 1.09c-.64.04-1.19-.37-1.52-.97-.26-.47-.79-2.95-1-4 .06-.04.13-.08.21-.13.27-.16.39-.55.21-.82-.18-.27-.53-.39-.82-.21-.33.2-.66.43-.91.72s-.46.61-.63.95c-.4.81-.63 1.68-.7 2.59a5.61 5.61 0 0 0 1.63 4.48c.62.61 1.37 1.02 2.23 1.16.42.06.85.13 1.28.09.41-.05.82-.16 1.23-.27.77-.2 1.54-.46 2.17-.95.66-.51 1.08-1.23 1.39-1.99.58-1.45.53-3.12-.1-4.54zM60.61 129.69c-.37-.68-1.4-.07-1.04.61.02.05.05.09.07.14-.97.95-3.2 3.14-3.55 3.5-.44.47-1.42 1.04-1.82.83s-1.11-1.26-.6-1.93c.51-.67 3.26-3.51 3.34-3.59.05-.05.35-.53.59-.93.06.03.12.06.17.1.66.4 1.27-.64.61-1.04-1.55-.93-3.44-1.21-5.21-.85-.86.17-1.7.51-2.42 1-.73.49-1.26 1.13-1.66 1.92a9.348 9.348 0 0 0-.92 3.35c-.16 1.74.3 3.53 1.35 4.94.69.93 1.55 1.69 2.64 2.11.51.2 1.05.27 1.6.34.58.07 1.12.04 1.69-.1 1.03-.24 2.07-.48 3.01-.97.98-.51 1.69-1.32 2.19-2.3 1.13-2.2 1.15-4.93-.04-7.11z"/><path class="cls-1" d="M89.99 135.54c0-9.56-3.7-18.59-10.41-25.43-6.75-6.88-15.69-10.66-25.19-10.66-19.67 0-35.68 16-35.68 35.68v1.18s0 .07.01.1a.6.6 0 0 0 .58.48h1.5c.26 0 .52-.2.58-.45.06-.08.09-.19.09-.3 0-.33-.01-.68-.01-1.01 0-18.15 14.77-32.92 32.92-32.92s32.92 14.77 32.92 32.92v.37c0 .25.17.45.4.5.08.04.16.06.25.06.47 0 .94.09 1.41.1.15 0 .31-.07.42-.18.04-.04.06-.08.09-.12.06-.08.1-.19.1-.3z"/><path class="cls-1" d="M155.07 134.53v.02c-.79-3.13-1.62-6.25-2.46-9.37-.87-3.19-1.75-6.38-2.65-9.57-.92-3.25-1.85-6.49-2.79-9.73-.94-3.23-1.9-6.45-2.86-9.67-.96-3.2-1.93-6.39-2.91-9.58-.04-.12-.08-.25-.11-.37.17-.12.35-.24.5-.38.49-.33.86-.86.7-1.49-.21-.83-1.13-1.02-1.84-.76-.06.02-.11.04-.16.06-1.01.02-2.03.48-2.93.9-.18.08-.37.18-.57.28-.45.19-.88.43-1.21.8-.31.35-.51.78-.39 1.25.12.43.51.74.92.85.43.12.91.04 1.35-.03.18.58 2.12 6.89 2.48 8.05-.83.63-1.68 1.23-2.53 1.83-1.31.92-2.63 1.83-3.96 2.73-1.64 1.12-3.29 2.23-4.93 3.35-1.87 1.26-3.74 2.51-5.61 3.77-1.99 1.33-3.97 2.66-5.96 3.99-2.01 1.34-4.02 2.69-6.03 4.03-1.91 1.28-3.82 2.56-5.72 3.84-1.71 1.15-3.42 2.31-5.13 3.47-1.41.96-2.81 1.92-4.21 2.9-.81.57-1.62 1.14-2.42 1.72-.51-1.45-1.02-2.9-1.53-4.34-1.31-3.68-6.97-19.67-7.78-22.04-1.19-3.49-2.36-6.99-3.46-10.51-.13-.42-.26-.83-.39-1.24-.15-.48-.69-.51-.99-.27-.39-.36-1.18-.03-.99.59 1.08 3.5 2.22 6.98 3.4 10.44.01.04.03.09.04.13-3.71 4.32-7.44 8.63-11.2 12.91-3.74 4.26-7.5 8.5-11.32 12.69a481.53 481.53 0 0 1-6.14 6.63.62.62 0 0 0-.14.23s-.01.02-.02.03c-.34.62-.32 1.46.12 2.04.23.31.51.53.88.64.32.1.67.09 1 .03.36-.07.72-.26.98-.53 3.65-3.88 7.26-7.8 10.83-11.75 3.68-4.07 7.32-8.17 10.95-12.3 1.85-2.11 3.69-4.22 5.53-6.34.77 2.21 1.54 4.42 2.32 6.63 1.33 3.75 2.66 7.49 4 11.23 1.29 3.63 2.57 7.25 3.82 10.89 1.18 3.43 2.33 6.87 3.41 10.32.12.4.25.8.37 1.19.19.6.99.5 1.16.04.39.06.85-.24.69-.73-1.05-3.4-2.17-6.78-3.32-10.15-.46-1.34-.92-2.68-1.39-4.02.57-.42 1.14-.82 1.72-1.23 1.31-.92 2.63-1.83 3.96-2.74 1.64-1.12 3.29-2.23 4.93-3.35 1.87-1.26 3.74-2.51 5.61-3.77 1.99-1.33 3.97-2.66 5.96-3.99 2.01-1.34 4.02-2.69 6.03-4.03 1.91-1.28 3.82-2.56 5.72-3.84 1.71-1.15 3.42-2.31 5.13-3.47 1.41-.96 2.81-1.92 4.21-2.9 1-.7 2-1.4 2.98-2.13.06-.04.11-.08.17-.12.78 2.56 1.55 5.12 2.31 7.69.97 3.26 1.93 6.52 2.88 9.79.93 3.21 1.84 6.42 2.73 9.64.84 3.04 1.67 6.09 2.46 9.15.1.37.19.74.29 1.11.03.1.07.19.13.25v.02c.46.82 1.54 1.2 2.41.81.36-.16.67-.5.83-.85.2-.43.28-.9.16-1.36z"/><path class="cls-1" d="M160.65 100.7a.693.693 0 0 0-.2-.31v-.03s-.04 0-.06-.01l-.02-.01a.614.614 0 0 0-.4-.07c-4.85-.98-9.98-.94-14.82.12l.12.52c-.85.18-1.65.4-2.46.65v-.05a.506.506 0 0 0-.63-.33c-7.09 2.23-13.45 6.75-17.91 12.74-4.62 6.19-7.06 13.56-7.06 21.31s2.48 15.27 7.16 21.44c.09.12.23.19.37.19h.1c.15 0 .32-.06.42-.18.17-.21.36-.4.57-.56.1-.07.21-.15.32-.21a.63.63 0 0 0 .28-.36c.02-.06.02-.14.02-.21.09-.17.08-.37-.04-.53-4.22-5.7-6.46-12.47-6.46-19.59s2.24-13.93 6.49-19.63c4.11-5.52 9.96-9.69 16.48-11.76.26-.08.41-.36.33-.63a.238.238 0 0 0-.06-.11c.7-.17 1.43-.32 2.17-.46a.5.5 0 0 0 .49.41c.03 0 .07 0 .11-.01 4.32-.92 8.9-.96 13.23-.12.1.02.2.03.29 0 .14-.05.29-.14.36-.28.25-.5.49-.99.74-1.48.07-.14.11-.3.06-.46z"/><path class="cls-8" d="M109.6 136.88c.25-.21.21-.63 0-.85-.25-.25-.6-.21-.85 0-1.52 1.25-3.03 2.43-4.58 3.59-.15-.21-.32-.42-.5-.61-1.23-1.36-2.97-2.14-4.76-2.37-1.77-.23-3.63.11-5.19 1-.77.44-1.42.99-1.91 1.74-.57.87-.96 1.88-1.2 2.89-.14.56-.22 1.14-.27 1.72v.11c-.08.92-.01 1.86.22 2.77.18.69.45 1.38.82 2.03l-.45.31c-1.45 1-2.91 1.99-4.4 2.94a.61.61 0 0 0-.21.82c.16.27.55.39.82.21 1.66-1.06 3.29-2.16 4.91-3.28.51.66 1.12 1.24 1.81 1.69.87.56 1.83.78 2.84.9.51.06 1.02.09 1.52 0 .46-.08.92-.2 1.37-.32.93-.23 1.86-.51 2.7-.97.87-.48 1.55-1.16 2.08-1.99a8.902 8.902 0 0 0 1.31-5.25c-.07-1.16-.37-2.3-.89-3.33.19-.14.38-.29.57-.43a137.6 137.6 0 0 0 4.23-3.33zM92.08 147.6c-1.34-3.08-.23-6.86 2.51-8.82.34-.25.7-.46 1.08-.65l.09-.06c.65-.19 1.33-.29 1.98-.3 1.53-.02 3.04.41 4.29 1.35.46.35.85.76 1.19 1.23-.85.64-1.71 1.28-2.59 1.92-2.73 2.01-5.48 3.99-8.26 5.93-.11-.2-.21-.4-.3-.6zm12.27-4.65a7.74 7.74 0 0 1-.46 4.62c-.29.69-.74 1.45-1.32 1.99-.57.53-1.31.87-2.05 1.12-.82.27-1.69.5-2.55.65-.31.06-.84.01-1.23-.03-.37-.05-.8-.11-1.18-.23-1.01-.32-1.87-1.01-2.53-1.85.9-.63 1.79-1.26 2.68-1.9 2.73-1.94 5.43-3.92 8.11-5.94.23.5.41 1.03.53 1.57z"/><circle class="cls-1" cx="98.3" cy="144.35" r="1.7"/><path class="cls-7" d="M88.97 83.83v-.1c-.27-1.43-1.84-1.93-3.09-2.1-.76-.1-1.53-.19-2.28-.34-.73-.15-1.44-.33-2.15-.56-1.48-.48-2.84-1.18-4.23-1.86-1.35-.66-2.74-1.28-4.23-1.52-.86-.13-1.72-.15-2.57 0-.86.15-1.66.49-2.46.82-.16.06-.27.2-.27.36a.37.37 0 0 0-.05.11c-.62 2.08-1.07 4.21-1.33 6.37 0 .07.01.14.05.2 0 .02.01.05.03.07 1.2 2.4 3.63 4.03 6.26 4.42 1.66.24 3.35.11 5.01-.06 1.69-.16 3.38-.39 5.06-.66 1.91-.3 3.81-.65 5.71-.99.18-.03.26-.16.27-.29.02-.05.03-.1.04-.15.05-.74.13-1.47.19-2.21.03-.33.06-.66.07-.99 0-.17.01-.35 0-.52zM184.65 132.83c-.19-3.28-.9-6.52-2.12-9.57a32.608 32.608 0 0 0-4.8-8.2 31.924 31.924 0 0 0-6.88-6.4 31.179 31.179 0 0 0-9.17-4.31c-3.53-1.01-7.25-1.43-10.91-1.16-1.8.13-3.58.44-5.33.88-1.35.34-2.67.7-3.97 1.2a30.95 30.95 0 0 0-8.74 5.11c-2.41 2-4.52 4.36-6.26 6.95a32.185 32.185 0 0 0-4.05 8.49c-.94 3.07-1.4 6.29-1.35 9.5.05 3.28.62 6.56 1.65 9.68 1.03 3.11 2.52 6.08 4.44 8.75.34.48.7.94 1.07 1.4.01.05.03.1.06.14 1.97 2.7 4.5 4.92 7.36 6.63 2.83 1.7 5.96 2.92 9.18 3.65 3.13.71 6.37.97 9.57.77 3.2-.19 6.38-.82 9.4-1.9 3.01-1.07 5.87-2.56 8.43-4.48 2.87-2.16 5.37-4.81 7.34-7.82 1.85-2.82 3.22-5.97 4.08-9.24.86-3.27 1.21-6.69 1.01-10.06zm-4.22 7.58c-.59 2.74-1.57 5.39-2.89 7.86a28.757 28.757 0 0 1-4.96 6.74c-2 2.02-4.3 3.71-6.83 5.01-2.61 1.34-5.45 2.24-8.34 2.73-2.88.49-5.85.53-8.75.17-2.88-.36-5.74-1.16-8.37-2.38-1.35-.62-2.66-1.35-3.88-2.21-.95-.67-1.85-1.44-2.68-2.25-2.26-2.32-4.23-4.9-5.76-7.76a28.89 28.89 0 0 1-2.95-8.37c-.53-2.88-.6-5.86-.22-8.76a28.44 28.44 0 0 1 2.45-8.33c1.24-2.64 2.86-5.1 4.82-7.27 2.07-2.28 4.49-4.21 7.19-5.68 2.47-1.35 5.1-2.25 7.84-2.88 3.22-.74 6.68-.82 9.94-.35 3.21.46 6.32 1.49 9.17 3.03 2.67 1.44 5.1 3.29 7.19 5.49 2.21 2.33 3.99 5.03 5.29 7.96 1.26 2.83 2.06 5.9 2.31 8.99.22 2.77.03 5.57-.56 8.29zM86.26 135.64v-1.06c0-.06 0-.12-.02-.17-.1-2.98-.49-5.96-1.44-8.8a37.87 37.87 0 0 0-1.63-3.96c-.77-1.63-1.6-3.21-2.62-4.7a32.25 32.25 0 0 0-4.37-5.1c-1.11-1.12-2.4-2.11-3.68-3.03-1.4-1-2.98-1.71-4.57-2.36-1.53-.62-3.08-1.21-4.67-1.67-1.62-.46-3.27-.78-4.94-.98-3.33-.4-6.72-.26-10.02.37-3.28.63-6.46 1.77-9.38 3.39-2.77 1.53-5.29 3.52-7.46 5.82a32.656 32.656 0 0 0-5.36 7.62 31.61 31.61 0 0 0-2.98 8.86c-.56 3.19-.6 6.43-.16 9.63a32.73 32.73 0 0 0 2.74 9.28c1.36 2.92 3.15 5.64 5.32 8.02l.02.02c1.28 1.79 3.05 3.22 4.85 4.45 2.13 1.46 4.45 2.63 6.87 3.52 4.79 1.76 10.02 2.4 15.1 1.84 5.07-.56 9.97-2.28 14.19-5.17 4.11-2.82 7.53-6.61 9.99-10.95 2.44-4.32 3.93-9.17 4.2-14.13 0-.19.02-.39.02-.58a.88.88 0 0 0 .02-.17zm-52.32 19.4s-.06-.1-.09-.14c-3.87-4.63-6.58-10.27-7.52-16.24-.91-5.81.02-11.92 2.72-17.15 1.31-2.53 3.02-4.83 5.09-6.79 1.91-1.8 4.1-3.28 6.44-4.46 4.75-2.37 10.16-3.42 15.45-3.11 5.64.33 11.28 2.3 15.84 5.64 2.37 1.73 4.5 3.77 6.22 6.16 1.74 2.41 3.09 5.09 3.93 7.94.84 2.81 1.16 5.75.95 8.68-.2 2.87-.93 5.7-2.01 8.36-2.2 5.41-5.98 10.25-10.56 13.86-2.3 1.82-4.91 3.31-7.74 4.12-3.26.93-6.72.87-10.08.67-3.35-.2-6.71-.7-9.89-1.84-2.67-.96-5.23-2.42-7.36-4.29-.5-.44-.98-.9-1.43-1.4z"/><path class="cls-5" d="M81.8 81.69c-.07-.37-2.12-.21-4.41-1.04-2.3-.78-3.8-2.19-4.09-1.95-.13.11.09.64.7 1.31.61.66 1.65 1.42 2.96 1.88 1.31.46 2.59.52 3.48.38.89-.13 1.39-.41 1.36-.58zM86.62 86.05c-.07-.19-1.2.08-3.03.32-.91.13-2.01.21-3.22.24-1.21.01-2.54-.04-3.92-.22-1.38-.19-2.68-.48-3.85-.8-1.16-.34-2.19-.7-3.04-1.06-1.7-.7-2.73-1.26-2.84-1.09-.09.13.76.97 2.44 1.93.83.48 1.88.96 3.09 1.38 1.21.41 2.58.75 4.04.95 1.46.18 2.88.2 4.15.12 1.27-.1 2.41-.29 3.34-.54 1.86-.49 2.91-1.08 2.85-1.23zM148.22 75.74c.17-.07.02-.76-.33-1.53-.35-.77-.76-1.34-.93-1.26-.17.07-.02.76.33 1.53s.76 1.34.93 1.26zM145.65 76.74c.17-.07.02-.76-.33-1.53-.35-.77-.76-1.34-.93-1.26-.17.07-.02.76.33 1.53s.76 1.34.93 1.26zM150.68 74.79c.17-.07.02-.76-.32-1.53s-.76-1.34-.92-1.26c-.17.07-.02.76.32 1.53s.76 1.34.92 1.26zM152.81 73.95c.17-.07.02-.76-.32-1.53s-.76-1.34-.92-1.26c-.17.07-.02.76.32 1.53s.76 1.34.92 1.26zM141.28 86.5c-.14-.13-.93.55-2.11.93-1.17.4-2.21.33-2.25.52-.01.08.24.22.69.29.45.07 1.1.04 1.76-.18.67-.22 1.2-.59 1.52-.91.32-.32.44-.59.38-.64zM145.4 99.82c-.05-.17-1.01-.05-2.15.28s-2.02.74-1.97.91c.05.17 1.01.05 2.15-.28s2.02-.74 1.97-.91zM79.58 110.11c.16-.08-.32-1.25-1.41-2.31-1.08-1.07-2.19-1.59-2.28-1.44-.1.16.81.9 1.82 1.9 1.02.99 1.71 1.93 1.87 1.84zM77.1 112.14c.12-.14-.64-.95-1.68-1.81-1.04-.86-1.98-1.45-2.1-1.31-.12.14.64.95 1.68 1.81 1.04.86 1.98 1.45 2.1 1.31zM146.58 103.37c-.03-.18-1.08-.15-2.31.2s-2.13.88-2.06 1.05c.07.17 1.05-.08 2.24-.41 1.19-.34 2.16-.65 2.13-.83zM105.86 98.64c5.37-3.47 10.82-6.89 15.96-10.62.73-.4 1.46-.77 2.33-.6.6.12 1.1.45 1.51.9l5.87 7.86c.86 1.93-.05 2.83-1.52 3.88-4.08 2.91-8.43 5.75-12.61 8.55-3.88 2.6-7.99 5.55-11.95 7.94-2.51 1.51-3.2 1.2-4.96-1.06a94.395 94.395 0 0 1-5.31-7.62c-.52-1.51.08-2.04 1.22-2.85 3.07-2.2 6.25-4.29 9.45-6.36"/><path class="cls-1" d="M105.86 98.64c5.18-3.73 10.5-7.29 15.57-11.17 1.45-1.05 3.59-1.17 4.85.39 2.01 2.58 4.01 5.17 5.99 7.77.74 1.14.7 3.08-.35 4.05-.89.94-1.76 1.41-2.6 2.01l-5.12 3.5c-3.64 2.4-11.85 8.12-15.44 10.36-1.38.84-2.64 1.72-4.13 2.41-.53.22-1.2.46-1.99.31-1.4-.33-1.99-1.37-2.76-2.32a84.11 84.11 0 0 1-5.17-7.79c-.3-.71-.39-1.68.09-2.36.47-.66 1.05-.96 1.56-1.3l3.16-1.96c2.1-1.31 4.21-2.62 6.34-3.89-2.86 2.16-6.06 4.46-8.97 6.59-.94.7-1.72 1.21-1.17 2.45 1.38 1.96 3.55 5.1 5.39 7.32.61.76 1.35 1.59 1.84 1.62.48.1 1.43-.42 2.25-.94 2.62-1.62 5.12-3.4 7.66-5.15 4.91-3.4 10.37-7.08 15.35-10.42 1.06-.82 2.47-1.32 2.74-2.51.02-.28-.06-.66-.23-1.06l.1.17c-1.93-2.64-3.85-5.28-5.76-7.94l.05.06c-.37-.43-.83-.7-1.32-.73-.48-.04-1.03.19-1.64.52l.07-.05c-5.29 3.64-10.81 6.87-16.36 10.07z"/><path d="M100.79 103.85c-.7.48-1.39.96-2.04 1.42-.88.63-1.35 1.04-.95 2.21a73.94 73.94 0 0 0 4.11 5.89c1.36 1.75 1.89 1.99 3.83.82.5-.3 1.01-.63 1.51-.95-.52-.89-5.02-7.02-6.47-9.39z" style="fill:#c74528"/><path class="cls-4" d="m128.56 96.74-4.54-6.07c-.32-.35-.71-.6-1.17-.69-.67-.13-1.24.16-1.8.47-.58.42-1.19.86-1.82 1.29 2.22 3.07 4.52 6.01 7.05 8.81.17-.12.95-.7 1.1-.81 1.14-.81 1.84-1.51 1.18-3zM117.72 92.76c-1.39.94-2.86 1.91-4.37 2.89 2.29 2.99 4.68 5.91 7.23 8.69 1.66-1.1 2.64-1.74 4.09-2.73-2.55-2.8-4.71-5.78-6.94-8.85zM111.82 96.65c-1.34.86-2.69 1.73-4.03 2.59 2.34 3 4.49 6.27 6.9 9.22 1.04-.7 2.97-2.19 4.34-3.09-2.54-2.79-4.92-5.72-7.21-8.72zM106.26 100.23c-1.36.88-2.69 1.75-3.96 2.6 1.38 2.3 5.9 8.44 6.46 9.44 1.7-1.13 2.6-1.75 4.26-2.88-2.4-2.97-4.4-6.15-6.76-9.15z"/><path class="cls-3" d="M82.17 65.42c-.11-1.14-.89-2.1-1.49-3.02-.77-1.16-1.54-2.32-2.3-3.49-.02-.04-.05-.07-.08-.1a504.603 504.603 0 0 0-16.98-24.28c-.81-1.08-1.61-2.16-2.43-3.24-.62-.81-3.18-3.73-4.1-4.26-2.23-1.3-1.7 3.22-2.87 4.69a412.16 412.16 0 0 0-10.01 13.2c-3.71 5.09-7.32 10.26-10.89 15.46-.04.06-.07.12-.08.18-.39.61-.77 1.22-1.14 1.84-.51.85-1.11 1.71-1.45 2.64-.57 1.53.39 2.63 1.9 2.84 1.71.24 3.55.02 5.27 0 1.93-.02 3.86-.03 5.79-.04 8.1-.04 16.2 0 24.31.03 3.32.02 6.64.03 9.96.05.55-.4.95-1.11 1.01-1.69.18-1.62-.87-3.15-1.66-4.46a335.991 335.991 0 0 0-21.27-30.96c-.22-.28-2.3-2.66-2.01-2.94.24-.23.73-.29.95 0 2.38 3.07 6.64 8.11 8.88 11.22A336.195 336.195 0 0 1 75.64 60.4c.85 1.39 1.85 2.82 2.18 4.44.22 1.1.1 2.19-.48 3.1h1.18c.66 0 1.61.06 2.34-.24.94-.39 1.4-1.28 1.31-2.28zM52.8 62.06c-1.4 0-2.54-1.14-2.54-2.54s1.14-2.54 2.54-2.54 2.54 1.14 2.54 2.54-1.14 2.54-2.54 2.54zm3.1-20.98-1.92 13.57h-2.31l-1.92-13.57c.79-.28 2-.51 3.07-.51s2.28.23 3.07.51z"/><path class="cls-5" d="m49.75 41.08 1.92 13.57h2.31l1.92-13.57c-.79-.28-2-.51-3.07-.51s-2.29.23-3.07.51zM52.8 56.98c-1.4 0-2.54 1.14-2.54 2.54s1.14 2.54 2.54 2.54 2.54-1.14 2.54-2.54-1.14-2.54-2.54-2.54zM77.82 64.84c-.33-1.62-1.33-3.05-2.18-4.44-.87-1.43-1.76-2.86-2.66-4.28-3.66-5.79-7.5-11.47-11.5-17.03-2.24-3.11-6.5-8.14-8.88-11.22-.22-.29-.71-.23-.95 0-.29.28 1.79 2.66 2.01 2.94 7.66 9.91 14.76 20.26 21.27 30.96.8 1.31 1.84 2.84 1.66 4.46-.07.58-.47 1.29-1.01 1.69h1.76c.58-.91.7-2 .48-3.1z"/><g id="Layer_12"><path class="cls-3" d="M107.83 81.73c-.78-2.04-1.6-4.07-2.45-6.08-.17-.41-.32-.87-.6-1.22-.13-.16-.28-.29-.48-.36-.25-.08-.5-.05-.74.04-.73.29-1.66.91-1.31 1.82.09.25.24.48.37.71.13.24.26.48.39.71.26.48.53.96.79 1.45.52.95 1.05 1.9 1.59 2.84.53.94 1.08 1.89 1.62 2.82.27.47.55.94.82 1.41.14.23.28.47.41.7.12.21.23.44.4.61.17.16.4.22.6.1.13-.02.24-.11.3-.23.11-.22.06-.43-.02-.66-.18-.52-.37-1.04-.56-1.56-.38-1.03-.76-2.06-1.15-3.09zM120.38 74.57c-.19-.16-.46-.22-.7-.29-.26-.07-.53-.14-.79-.2s-.55-.14-.82-.12c-.3.01-.52.2-.65.46-.22.44-.31.95-.36 1.44-.06.53-.07 1.07-.1 1.6-.11 2.3-.23 4.6-.34 6.9v.1c-.03.21-.06.43-.06.64 0 .23.07.48.27.61.24.16.52.07.71-.13.17-.19.24-.44.32-.68.09-.26.18-.52.26-.78.35-1.06.68-2.13.99-3.2.31-1.06.6-2.12.88-3.18.14-.53.27-1.07.4-1.6.06-.27.13-.53.19-.8.06-.28.04-.57-.19-.77zM102.52 90.69c-.15-.15-.34-.27-.51-.4-.18-.14-.37-.28-.55-.42-.37-.28-.75-.57-1.13-.85-.75-.56-1.49-1.12-2.25-1.67-.75-.55-1.51-1.09-2.28-1.62l-.57-.39c-.17-.11-.34-.24-.53-.32-.19-.07-.41-.11-.6-.02-.22.1-.33.31-.44.51-.19.35-.36.72-.35 1.13.02.42.25.78.55 1.05.31.27.69.46 1.06.63l1.31.6c1.51.7 3.03 1.4 4.54 2.1.19.1.39.21.58.3.17.09.34.17.51.25.08.04.16.07.23.11.11.05.24.13.37.08.21-.07.32-.29.33-.5.01-.23-.1-.42-.26-.58z"/></g><path class="cls-5" d="m90.97 74.94.13-.04s-.05.02-.13.04z"/></g></svg>