<svg xmlns="http://www.w3.org/2000/svg" viewBox="0 0 200 200"><defs><clipPath id="clippath"><ellipse cx="81.99" cy="72.44" class="cls-1" rx="25.93" ry="26.49"/></clipPath><style>.cls-1{fill:none}.cls-6{fill:#f75e28}.cls-7{fill:#fff}.cls-8{fill:#efedea}.cls-13{fill:#c64528}</style></defs><path id="BG_Strong" d="M17.11 168.57c14.78 32.94 162.83 35.61 176.74-.74 12.22-30.92-3.8-60.74-39.28-56.11-28.99-8.27-18.31-78.87-69.66-55.61-7.16 3.91-19.72 7.44-20.45-4.67C.32-41.68-17.58 130.13 17.11 168.57Z" style="fill:#575655"/><g id="Illustrations"><g id="Layer_8"><ellipse cx="124.53" cy="65.87" rx="23.11" ry="23.61" style="fill:#ff8000"/><path d="M134.78 65.11c-.06-.15-.88-1.66-2.39-3.55s-.07-.1-.07-.16c-.18-1.97-.46-3.27-.46-3.27a.531.531 0 0 0-.46-.42l-1.57-.19h-.04c-.18 0-.33.15-.33.33v.55s0 .02-.02.02h-.01c-.94-.85-2-1.67-3.18-2.4-.22-.15-.49-.24-.78-.24-.29 0-.55.09-.78.24-5.43 3.35-8.42 8.8-8.53 9.1a.535.535 0 0 0 .36.75l1.56.3c.21.06.37.24.39.46.01.28.31 6.44.68 8.04.06.23.27.4.52.4h.01c.91-.02 1.75-.04 2.65-.05h.08c.1 0 .18-.08.18-.18-.04-.54-.12-1.77-.18-3.07v-.11c0-.11-.07-.21-.16-.27a1.68 1.68 0 0 1-.82-1.36c-.08-2.16-.12-4.66 0-6.62.01-.16.14-.29.31-.3.17 0 .32.13.32.31v.02c-.08 1.3-.08 2.84-.06 4.36 0 .21.17.37.38.37s.37-.17.37-.38c-.03-1.53-.02-3.08.06-4.39.01-.16.14-.29.31-.3.17 0 .32.13.32.31v.02c-.08 1.3-.08 2.83-.06 4.34 0 .21.17.37.38.37s.37-.17.37-.38c-.03-1.52-.02-3.07.06-4.37.01-.16.14-.29.31-.3.17 0 .32.13.32.31v.02c-.11 1.9-.08 4.31 0 6.42v.07c0 .58-.29 1.09-.73 1.39-.08.06-.13.14-.14.24 0 0-.04.32.1 1.9.07.69.12 1.16.14 1.38.01.08.08.14.16.14H127.61c.08 0 .15-.06.17-.14.21-1.88.25-2.94.25-2.94 0-.1-.07-.17-.17-.18l-1.08-.15a.37.37 0 0 1-.31-.26c-.02-.08-.01-.17-.01-.17.44-6.27 2.51-8.39 2.51-8.39.06-.06.1-.09.1-.09a.33.33 0 0 1 .19-.06c.14 0 .26.09.31.21 0 0 .02.04.03.15.18 1.97.09 5.33-.02 7.95-.09 2.22-.21 3.97-.21 3.97 0 .08.06.13.13.13.59.01 1.17.02 1.78.04h.01c.25 0 .46-.17.52-.4.37-1.6.67-7.77.68-8.04.02-.22.18-.4.39-.46l1.56-.3c.23-.06.41-.27.41-.52 0-.08-.02-.16-.05-.23Z" class="cls-7"/></g><g id="Location_icon"><ellipse cx="124.54" cy="166.59" rx="39.1" ry="7.2" style="fill:#e2ded9"/><path d="M175.96 65.87c0-13.77-5.36-26.72-15.1-36.46-9.74-9.74-22.69-15.1-36.46-15.1s-26.72 5.36-36.46 15.1c-9.74 9.74-15.1 22.69-15.1 36.46 0 2.74.24 5.56.71 8.49v.12c.75 4.39 1.84 8.7 3.4 12.86l.12.36c.26.69.54 1.38.83 2.06 1.93 4.52 4.42 8.76 7.17 12.82 6.76 10.01 14.42 19.31 22.86 27.93 5.05 5.16 10.3 10.12 15.58 15.05.22.21.48.26.72.2.23.06.49.01.72-.2 9.41-8.78 18.76-17.68 26.98-27.61 3.7-4.46 7.15-9.14 10.46-13.89 2.81-4.02 5.44-8.17 7.53-12.62.94-2 1.76-4.04 2.48-6.12h.02c2.27-5.76 3.52-12.67 3.52-19.46Zm-19.07 0c0 17.91-14.57 32.49-32.49 32.49S91.91 83.79 91.91 65.87s14.57-32.49 32.49-32.49 32.49 14.57 32.49 32.49Z" style="fill:#f6c243"/></g><g id="Layer_9"><path d="M91.74 66.03c0 17.98 14.58 32.56 32.56 32.56s32.56-14.58 32.56-32.56c0-1.76-.14-3.49-.41-5.18-1.88-11.77-10.07-21.44-21-25.42a32.422 32.422 0 0 0-11.14-1.96c-17.98 0-32.56 14.58-32.56 32.56ZM120.14 120.96c-10.52-5.06-21.03-10.17-31.57-15.19-.62-.3-1.25-.59-1.87-.88 1.05 1.51 2.06 2.93 2.99 4.21 3.73 5.15 8.32 10.59 11 13.6 2.29 2.56 5.49 5.93 8.43 9 2.65-2.62 5.31-5.23 7.99-7.82 1.01-.98 2.03-1.95 3.05-2.92ZM117.73 14.82c-8.38 1.04-14.89 3.73-21.35 7.85-8.12 5.17-14.04 12.89-17.37 18.86-.29.52-.58 1.06-.86 1.62 8.97-6.83 18.13-13.41 27.35-19.88 4.06-2.85 8.14-5.66 12.24-8.44Z" class="cls-1"/><path d="M126.39 115.04a875.1 875.1 0 0 1 24.58-22.19A888.17 888.17 0 0 1 169.75 77a985.09 985.09 0 0 0-3.04-3.68c-3.43-4.16-6.85-8.32-10.28-12.48.27 1.69.41 3.42.41 5.18 0 17.98-14.58 32.56-32.56 32.56S91.72 84 91.72 66.02s14.58-32.56 32.56-32.56c3.92 0 7.67.69 11.14 1.96-4.05-4.87-8.14-9.71-12.29-14.48-11.38 7.7-22.6 15.64-33.64 23.83-5.65 4.19-10.72 7.97-15.92 12.17-.46 2.65-.72 5.43-.71 8.29.04 9.29 1.91 17.25 4.91 24.29.42 1 .9 2 1.4 3 15.13 6.86 30 14.28 44.98 21.46.74.36 1.49.71 2.23 1.07ZM127.97 124.72c-4.42 4.2-8.8 8.45-13.13 12.74 3.31 3.17 6.96 6.53 7.8 7.31 1.26 1.18 1.49 1.05 1.49 1.05.97 0 .86-.28 2.16-1.46 1.3-1.18 7.79-7.27 13.52-13.07.22-.22.43-.44.65-.66-4.17-1.96-8.33-3.93-12.49-5.92ZM160.31 52.84c5.13 6.22 10.25 12.44 15.38 18.65.38-3.91.39-8.58-.52-14.59-1.4-9.25-5.42-15.38-7.69-19.36a15 15 0 0 0-.43-.71 420.8 420.8 0 0 0-12.63 8.85c1.96 2.39 3.92 4.77 5.89 7.16ZM149.28 39.43c4.16-3.04 8.37-6.01 12.64-8.9-2.66-2.76-5.85-5.53-9-7.55-4.73-3.03-12.07-6.72-20.68-8.1l-2.3 1.52c6.56 7.58 12.97 15.29 19.34 23.03ZM137.43 115.86c-1.05.97-2.1 1.95-3.15 2.93 4.01 1.9 8.02 3.78 12.04 5.65 3.21-3.51 5.97-6.73 7.58-8.81 2.64-3.41 10.39-13.56 14.08-20.29 1.95-3.55 3.47-7 4.63-10.21-.2.16-.39.32-.59.49a878.808 878.808 0 0 0-34.58 30.24Z" class="cls-1"/><path d="M140.46 130.64c2.01-2.06 4.01-4.17 5.85-6.2-4.02-1.87-8.03-3.76-12.04-5.65 1.05-.98 2.1-1.95 3.15-2.93a870.624 870.624 0 0 1 35.17-30.73c1.03-2.87 1.77-5.54 2.23-7.89.34-1.75.66-3.63.86-5.74-5.13-6.22-10.25-12.44-15.38-18.65-1.96-2.38-3.93-4.77-5.89-7.16 4.16-3.02 8.37-5.97 12.63-8.85-1.15-1.81-2.97-4.06-5.14-6.31a442.05 442.05 0 0 0-12.64 8.9c-6.37-7.74-12.78-15.45-19.34-23.03l2.3-1.52c-2.46-.39-5.04-.6-7.68-.55-2.42.05-4.69.21-6.83.48-4.1 2.79-8.18 5.6-12.24 8.45-9.22 6.47-18.38 13.05-27.35 19.88a49.932 49.932 0 0 0-4.56 13.8c5.2-4.2 10.28-7.98 15.92-12.17a953.829 953.829 0 0 1 33.64-23.83c4.16 4.78 8.24 9.62 12.29 14.48 10.93 3.98 19.12 13.65 21 25.42 3.43 4.16 6.85 8.32 10.28 12.48 1.01 1.23 2.02 2.45 3.04 3.68-6.33 5.19-12.6 10.48-18.78 15.85a875.1 875.1 0 0 0-24.58 22.19c-.74-.36-1.49-.71-2.23-1.07-14.98-7.18-29.85-14.59-44.98-21.46 2.16 4.33 4.93 8.65 7.51 12.37.62.29 1.25.59 1.87.88 10.55 5.02 21.05 10.12 31.57 15.19-1.02.97-2.03 1.94-3.05 2.92-2.68 2.59-5.34 5.2-7.99 7.82.5.53 1 1.04 1.48 1.55 1.08 1.14 2.63 2.65 4.26 4.21 4.33-4.29 8.71-8.54 13.13-12.74 4.16 1.99 8.32 3.96 12.49 5.92Z" style="fill:#e5b342"/></g><g id="Layer_6"><circle cx="82.02" cy="72.35" r="32.1" class="cls-6"/><ellipse cx="81.99" cy="72.44" rx="25.93" ry="26.49" style="fill:#d6e8ea"/><path d="M106.76 81.21c.85-2.62 1.31-5.43 1.31-8.34 0-5.74-1.79-11.06-4.83-15.4a23.953 23.953 0 0 0-1.67 8.83c0 5.65 1.95 10.84 5.19 14.91Z" style="fill:#f2a6b0"/><g style="clip-path:url(#clippath);fill:none"><path d="M175.96 65.87c0-13.77-5.36-26.72-15.1-36.46-9.74-9.74-22.69-15.1-36.46-15.1s-26.72 5.36-36.46 15.1c-9.74 9.74-15.1 22.69-15.1 36.46 0 2.74.24 5.56.71 8.49v.12c.75 4.39 1.84 8.7 3.4 12.86l.12.36c.26.69.54 1.38.83 2.06 1.93 4.52 4.42 8.76 7.17 12.82 6.76 10.01 14.42 19.31 22.86 27.93 5.05 5.16 10.3 10.12 15.58 15.05.22.21.48.26.72.2.23.06.49.01.72-.2 9.41-8.78 18.76-17.68 26.98-27.61 3.7-4.46 7.15-9.14 10.46-13.89 2.81-4.02 5.44-8.17 7.53-12.62.94-2 1.76-4.04 2.48-6.12h.02c2.27-5.76 3.52-12.67 3.52-19.46Zm-19.07 0c0 17.91-14.57 32.49-32.49 32.49S91.91 83.79 91.91 65.87s14.57-32.49 32.49-32.49 32.49 14.57 32.49 32.49Z" style="fill:#f5f3f1"/></g></g><g id="Layer_7"><path d="M106.06 84.1c-.24.58-1.99 2.31-2.59 3.17s-5.23 5.96-7.37 7.19-9.89 4.37-12.35 4.06-9.24-.79-11.46-1.79c-2.22-1-7.47-4.12-9.08-6.01-1.61-1.89-3.8-5.2-4.83-7.28S56 76.3 55.91 75.08c-.1-1.22-.13-2.28-.13-2.28h6.68v13.96h2.19v-5.68h3.65V68.34h9.58v16.64h3.57V82.3l5.93-3.98 5.36 3.9v5.19h2.03V77.27h9.58v6.82h1.7" style="fill:#a0b4b5"/><path d="M98.47 87.1v2.44c0 .78 1.21.78 1.21 0V87.1c0-.78-1.21-.78-1.21 0ZM70.12 71.23h.08c.08 0 .16-.01.23-.05.08-.02.14-.07.19-.12.06-.06.1-.12.12-.19.04-.07.06-.15.05-.23l-.02-.16a.627.627 0 0 0-.16-.27l-.12-.09a.553.553 0 0 0-.31-.08h-.08c-.08 0-.16.01-.23.05-.08.02-.14.07-.19.12-.06.06-.1.12-.12.19-.04.07-.06.15-.05.23l.02.16c.03.1.08.19.16.27l.12.09c.09.06.2.08.31.08ZM72.97 71.23h.08c.08 0 .16-.01.23-.05.08-.02.14-.07.19-.12.06-.06.1-.12.12-.19.04-.07.06-.15.05-.23l-.02-.16a.627.627 0 0 0-.16-.27l-.12-.09a.553.553 0 0 0-.31-.08h-.08c-.08 0-.16.01-.23.05-.08.02-.14.07-.19.12-.06.06-.1.12-.12.19-.04.07-.06.15-.05.23l.02.16c.03.1.08.19.16.27l.12.09c.09.06.2.08.31.08ZM75.96 71.23c.78 0 .78-1.21 0-1.21s-.78 1.21 0 1.21ZM70.13 74.24h.08c.08 0 .16-.01.23-.05.08-.02.14-.07.19-.12.06-.06.1-.12.12-.19.04-.07.06-.15.05-.23l-.02-.16a.627.627 0 0 0-.16-.27l-.12-.09a.553.553 0 0 0-.31-.08h-.08c-.08 0-.16.01-.23.05-.08.02-.14.07-.19.12-.06.06-.1.12-.12.19-.04.07-.06.15-.05.23l.02.16c.03.1.08.19.16.27l.12.09c.09.06.2.08.31.08ZM72.98 74.24h.08c.08 0 .16-.01.23-.05.08-.02.14-.07.19-.12.06-.06.1-.12.12-.19.04-.07.06-.15.05-.23l-.02-.16a.627.627 0 0 0-.16-.27l-.12-.09a.553.553 0 0 0-.31-.08h-.08c-.08 0-.16.01-.23.05-.08.02-.14.07-.19.12-.06.06-.1.12-.12.19-.04.07-.06.15-.05.23l.02.16c.03.1.08.19.16.27l.12.09c.09.06.2.08.31.08ZM75.97 74.24c.78 0 .78-1.21 0-1.21s-.78 1.21 0 1.21ZM70.13 77.17h.08c.08 0 .16-.01.23-.05.08-.02.14-.07.19-.12.06-.06.1-.12.12-.19.04-.07.06-.15.05-.23l-.02-.16a.627.627 0 0 0-.16-.27l-.12-.09a.553.553 0 0 0-.31-.08h-.08c-.08 0-.16.01-.23.05-.08.02-.14.07-.19.12-.06.06-.1.12-.12.19-.04.07-.06.15-.05.23l.02.16c.03.1.08.19.16.27l.12.09c.09.06.2.08.31.08ZM72.98 77.17h.08c.08 0 .16-.01.23-.05.08-.02.14-.07.19-.12.06-.06.1-.12.12-.19.04-.07.06-.15.05-.23l-.02-.16a.627.627 0 0 0-.16-.27l-.12-.09a.553.553 0 0 0-.31-.08h-.08c-.08 0-.16.01-.23.05-.08.02-.14.07-.19.12-.06.06-.1.12-.12.19-.04.07-.06.15-.05.23l.02.16c.03.1.08.19.16.27l.12.09c.09.06.2.08.31.08ZM75.97 77.17c.78 0 .78-1.21 0-1.21s-.78 1.21 0 1.21ZM96.28 80.04v1.38c0 .78 1.21.78 1.21 0v-1.38c0-.78-1.21-.78-1.21 0ZM99.05 79.96c-.03.49-.02.98.03 1.46.04.32.25.61.61.61.3 0 .64-.28.61-.61-.06-.49-.07-.98-.03-1.46.02-.33-.29-.61-.61-.61-.35 0-.58.28-.61.61ZM101.73 80.04c.08.43.09.86.07 1.3-.04.78 1.17.78 1.21 0 .03-.54-.02-1.08-.12-1.62-.06-.32-.45-.5-.74-.42-.34.09-.48.42-.42.74ZM86.38 82.07v.08c0 .08.01.16.05.23.02.08.07.14.12.19.06.06.12.1.19.12.07.04.15.06.23.05l.16-.02c.1-.03.19-.08.27-.16l.09-.12c.06-.09.08-.2.08-.31v-.08c0-.08-.01-.16-.05-.23a.414.414 0 0 0-.12-.19.436.436 0 0 0-.19-.12.372.372 0 0 0-.23-.05l-.16.02c-.1.03-.19.08-.27.16l-.09.12c-.06.09-.08.2-.08.31ZM59.84 74.77v1.22c0 .78 1.21.78 1.21 0v-1.22c0-.78-1.21-.78-1.21 0ZM57.48 74.77v1.22c0 .78 1.21.78 1.21 0v-1.22c0-.78-1.21-.78-1.21 0ZM86.38 87.6v2.44c0 .78 1.21.78 1.21 0V87.6c0-.78-1.21-.78-1.21 0ZM72.36 87.1v2.44c0 .78 1.21.78 1.21 0V87.1c0-.78-1.21-.78-1.21 0Z" class="cls-8"/></g><g id="Magnified_glass"><path d="M81.99 39.51c-18.13 0-32.87 14.75-32.87 32.87 0 7.85 2.77 15.06 7.38 20.72a2108.961 2108.961 0 0 0-36.04 34.75c-.31.3-.29.68-.11.96 0 .03.01.05.02.08 1.07 3.07 3.44 5.41 6.53 6.42.2.07.38.05.53-.01.22.04.45-.02.65-.24 11.25-12.24 22.5-24.49 33.75-36.73A32.709 32.709 0 0 0 82 105.26c18.13 0 32.87-14.75 32.87-32.87S100.12 39.52 82 39.52Zm0 64.14c-17.24 0-31.26-14.02-31.26-31.26s14.02-31.26 31.26-31.26 31.26 14.02 31.26 31.26-14.02 31.26-31.26 31.26Z" class="cls-6"/><path d="M81.99 45.37c-14.89 0-27.01 12.12-27.01 27.01S67.1 99.39 81.99 99.39 109 87.27 109 72.38 96.88 45.37 81.99 45.37Zm0 52.41c-14.01 0-25.4-11.39-25.4-25.4s11.39-25.4 25.4-25.4 25.4 11.39 25.4 25.4-11.39 25.4-25.4 25.4Z" class="cls-6"/></g></g><g id="Outline"><path d="M61.77 99.01c.23-.24-.85-1.65-2.4-3.15-1.56-1.5-3.01-2.52-3.24-2.28-.23.24.85 1.65 2.4 3.15 1.56 1.5 3.01 2.52 3.24 2.28Z" class="cls-7"/><path d="M29.87 132.51c.18-.29-1.52-1.64-3.28-3.58-1.78-1.93-2.97-3.74-3.27-3.59-.29.13.48 2.32 2.39 4.4 1.9 2.09 4.01 3.05 4.17 2.77ZM33.68 127.9c.18-.3-1.39-1.47-2.85-3.32-1.48-1.83-2.28-3.61-2.61-3.51-.15.05-.15.58.1 1.39.25.8.77 1.86 1.57 2.87.81 1.01 1.73 1.75 2.45 2.16.73.42 1.25.54 1.33.41Z" class="cls-13"/></g></svg>