<?xml version="1.0" encoding="UTF-8"?><svg xmlns="http://www.w3.org/2000/svg" viewBox="0 0 200 200"><defs><style>.cls-1{fill:#c0d9dd;}.cls-2{fill:#fec00f;}.cls-3{fill:#f47f20;}.cls-4{fill:#eeece9;}.cls-5{fill:#575655;}.cls-6{fill:#a0b3b4;}.cls-7{fill:#d5e7e9;}.cls-8{fill:#f7b3c2;}.cls-9{fill:#fff;}.cls-10{fill:#e4b241;}.cls-11{fill:#ca919e;}.cls-12{fill:#f1a5af;}.cls-13{fill:#79577a;}.cls-14{fill:#ffcf67;}.cls-15{fill:#d5e3e7;}.cls-16{fill:#f5c141;}.cls-17{fill:#5b3d5b;}</style></defs><g id="BG_x5F_Strong"><path class="cls-5" d="M87.5,180.2c30.39-8.68,65.73-36.25,87.03-58.44,20.94-21.81.74-39.81.34-62.61-1.08-61.97-53.72-20.93-82.46-41.79C47.86-3.96,52.96,75.67,20.77,93.42c-43.27,23.87,26.14,95.65,66.73,86.78Z"/></g><g id="Outline"><path class="cls-1" d="M96.3,24.38c.32,0,.63-.54.94-.54-.32,0-.63.54-.94.54h0Z"/><path class="cls-4" d="M109.61,24.88c.22.46.39,1.4.98,1.52.09.02.39-.22.47-.27.11-.06.22-.13.33-.19.02-.01.13-.06.14-.08.06-.36-.1-.74-.25-1.07-.18-.4-.41-.78-.64-1.15-.54-.86-1.04-1.78-1.78-2.5l-.94.54c.79.72,1.35,1.64,1.87,2.56.27.47.52.96.72,1.46.13.34.19.79.57.94.06.03.41-.23.47-.27.11-.06.22-.13.33-.19.03-.02.13-.06.14-.08.27-.85-.17-1.73-.51-2.49-.43-.94-.91-1.86-1.35-2.8l-.94.54c.4.83.81,1.66,1.12,2.53.24.68.62,1.49.48,2.22l.94-.54c-.15-.12-.2-.24-.18-.43l-.94.54.22-.05c.15-.03.34-.19.47-.27s.31-.24.47-.28l-.22.05c-.15.03-.34.19-.47.27-.07.04-.46.2-.47.28-.02.19.03.31.18.43.02.02.93-.48.94-.54.14-.73-.24-1.55-.48-2.22-.31-.87-.73-1.69-1.12-2.53,0,.02-.96.51-.94.54.44.94.92,1.86,1.35,2.8.34.76.78,1.64.51,2.49l.94-.54c-.37-.15-.44-.58-.56-.91-.19-.52-.46-1.01-.73-1.49-.52-.92-1.08-1.84-1.87-2.56-.02-.02-.43.24-.47.27-.04.02-.45.29-.47.28.74.71,1.24,1.63,1.78,2.5.23.37.46.75.64,1.15.15.32.31.7.25,1.07l.94-.54c-.59-.12-.77-1.06-.98-1.52,0,.02-.96.51-.94.54h0Z"/><path class="cls-4" d="M86.51,23.63c.32,0,.63-.54.94-.54-.32,0-.63.54-.94.54h0Z"/><path class="cls-4" d="M93.79,27.9c.32,0,.63-.54.94-.54-.32,0-.63.54-.94.54h0Z"/><path class="cls-15" d="M110.11,21.32s.05-.03.07-.04c.03.03.07.07.1.1-.01,0-.03.01-.06.03-.04-.03-.07-.05-.11-.08ZM111.69,22.85s0,0-.01,0c0,0-.01-.01-.02-.02.03-.01.05-.02.07-.03,0,0,0,.01.01.02-.02,0-.03.02-.05.03ZM111.63,28.83c.06-.04.13-.07.19-.11-.02,0-.03-.02-.05-.02.01-.01.03-.03.04-.04.16-.02.32-.02.47-.02-.05.02-.1.03-.15.06-.06.02-.12.04-.18.06,0-.02.03-.05.08-.08-.13.07-.26.15-.38.22-.03.02-.06.03-.08.04-.06.03-.14.07-.23.11.1-.07.19-.15.28-.23Z"/><path class="cls-15" d="M113.13,28.9c.18.25.43.49.75.5.01,0,.03-.01.04-.02.03-.02.07-.04.1-.05.11-.06.22-.13.33-.19s.22-.13.33-.19l.07-.04s.04-.03.06-.04c-.32-.02-.57-.26-.75-.5,0,0-.16.09-.14.08-.11.06-.22.13-.33.19s-.22.13-.33.19c-.01,0-.14.08-.14.08h0Z"/><path class="cls-15" d="M100.76,16.3c-.3-.02-.6-.02-.9-.06-.27-.04-.65-.11-.77-.39l-.94.54c.62-.13,1.27-.15,1.91-.07.31.04.59.12.87.25s.58.26.9.28c.02,0,.14-.07.14-.08.11-.06.22-.13.33-.19s.22-.13.33-.19c.03-.02.11-.09.14-.08-.32-.03-.61-.16-.9-.28s-.56-.21-.87-.25c-.63-.07-1.28-.05-1.91.07-.1.02-.95.54-.94.54.12.28.5.35.77.39.3.04.6.04.9.06.02,0,.14-.07.14-.08.11-.06.22-.13.33-.19s.22-.13.33-.19c.03-.02.11-.08.14-.08h0Z"/><path class="cls-15" d="M106.28,46.69h-.25s-.03.01-.04.02c-.03.02-.07.04-.1.05-.11.06-.22.13-.33.19s-.22.13-.33.19l-.07.04s-.04.03-.06.04h.25s.03-.01.04-.02c.03-.02.07-.04.1-.05.11-.06.22-.13.33-.19s.22-.13.33-.19l.07-.04s.04-.03.06-.04h0Z"/><path class="cls-2" d="M114.34,28.99c-.12.07-.25.14-.37.21.26-.13.54-.28.54-.33-.08.05-.16.09-.24.15.02-.01.05-.01.07-.03Z"/><path class="cls-2" d="M114.17,36.23c.04.21.08.41.12.62-.02-.22-.05-.44-.08-.66-.01.01-.03.02-.05.03Z"/><path class="cls-2" d="M33.58,19.8c.45.13.86.4,1.23.75,2.18-.2,4.9-.47,7.99-.77-.18-.32-.36-.64-.56-.94-1.47-2.29-3.64-4.18-6.51-4.02-3.38.19-6.04,2.75-8.01,5.27-.72.93-1.4,1.9-2.04,2.89-.06.09-.09.18-.11.26-.04.11-.04.21,0,.32.17-.81,2.59-5.3,8.01-3.76Z"/><path class="cls-6" d="M38.02,35.32l71.82-4.81c.05-3.42-1.82-6.55-4.48-8.78-1.04-.87-2.19-1.61-3.39-2.17-4.31-2.01-9.21-2.27-13.96-2.4-13.36-.38-32.42,1.38-45.19,2.62-3.09.3-5.81.57-7.99.77-.37-.35-.78-.62-1.23-.75-5.42-1.53-7.84,2.96-8.01,3.76,0,.01,0,.03-.01.04-.15.28-.26.57-.35.88-1.52,3.58-1.37,8.96-1.6,11.8l14.13-.95c.06.05.1.09.14.12.06.05.1.09.1.1.01-.07.02-.15.03-.23Z"/><path class="cls-7" d="M25.57,23.25c-.38-.21-.09.26,0,0h0Z"/><path class="cls-1" d="M119.55,129.75c-.45-4.46-.74-12.98-1.21-24.53.06-3.26.11-6.52.15-9.78.03-2.1.04-4.19.05-6.29.19-.08.07-7.93-.07-11.77-.02-1.06-.05-2.11-.08-3.17-.04-3.06,0-6.13,0-9.19v-5.84c0-.94.02-1.89-.02-2.83-.04-.89-.23-1.76-.26-2.64-.03-.91-.19-1.8-.2-2.71-.01-.6-.11-1.18-.22-1.76,0-1.27-.1-2.55-.23-3.82-.18-1.77-.35-3.55-.59-5.32-.34-3.36-.82-6.71-1.19-10.06,0-.35-.08-.67-.3-.85.06-.03.11-.05.17-.08-.36-1.96-1.61-6.59-5.53-10.44-.63-.62-3.71-1.86-3.72-1.87,0,0-1.49-.49-2.26-.69-.9-.23-5.3-.73-5.4-.67,0,0,0,0,0,0,0,0,0,0,0,0,.08-.05-6.78-.73-10-.82-10.19-.29-37.76-1.46-50.98.13-.26.03-.49.08-.74.13-.38-.06-.78-.09-1.19-.06-3.38.19-6.04,2.75-8.01,5.27-.05.06-.09.12-.14.19-.11.14-.21.28-.31.42-.56.75-1.09,1.51-1.59,2.29-.06.09-.09.18-.11.26,0,0,.12-.12.35-.28-.2.44-.3.73-.32.78.29-.52,2.26-1.52,4.78-1.5.86.25,1.81.72,2.82,1.56,2.98,2.47,3.66,6.62,4.35,9.91.12.57.22,1.15.33,1.73h0c.51,2.73.88,5.47,1.16,8.23,0,.01,0,.02,0,.03.09.9.17,1.81.24,2.71,0,.05,0,.1.01.15.07.86.12,1.73.17,2.59,0,.13.01.26.02.39.04.79.08,1.58.11,2.37.01.3.02.61.03.91.02.62.04,1.25.06,1.87.02.95.04,1.89.05,2.84.05,3.79.07,7.57.09,11.36,0,.81,0,1.61,0,2.42.04,11.33,0,22.66.11,33.99.08,9,.14,18,.1,27,0,.97,1.04,1.07,1.95.78.78,0,1.72-.42,2.01-.97,1.28-2.43,3.1-4.64,5-6.7.01.03.02.07.04.1,1.59,2.59,3.34,5.08,5.24,7.46.18.23.51.31.81.26.25,0,.49-.08.65-.28,1.67-2.07,3.39-4.09,5.16-6.07,1.77,2.25,3.67,4.4,5.7,6.43.13.13.29.21.46.25.38.23.85.18,1.19-.14,2.11-1.96,4.12-4.02,6.04-6.17,1.21,1.72,2.52,3.36,3.94,4.91h0s0,0,0,0c.48.53.98,1.05,1.48,1.56.08.08.18.15.29.19.11.05.22.07.34.08,0,0,0,0,.01,0,.14.05.29.06.44.04.12-.01.23-.04.33-.1.08-.04.15-.1.21-.17,1.79-2.05,3.49-4.16,5.12-6.34.74.9,1.48,1.8,2.22,2.7,1.01,1.23,2.02,2.46,3.03,3.69.04.05.09.1.15.13,0,0,0,.01.02.02.09.08.2.15.32.2.15.06.32.07.48.06.21-.02.42-.09.57-.26,1.05-1.21,2.09-2.41,3.14-3.62.52-.6,1.03-1.19,1.55-1.79.3-.34.59-.7.91-1.03,1.87,2.12,3.75,4.24,5.62,6.36.05.06.12.1.18.15.1.07.2.13.32.16.22.07.46.06.68-.03.11-.05.21-.11.3-.2,2.09-2.14,4.08-4.38,5.98-6.69,2.12,2.03,4.13,4.17,6.02,6.41.22.26.62.33.96.23,0,0,.01,0,.02,0,0,0,0,0,0,0,0,0,.02,0,.03,0,.11,0,.23-.03.34-.08.12-.05.23-.13.32-.22.09-.09.17-.2.22-.31.05-.12.07-.24.05-.37-.12-1.07-.23-2.14-.34-3.21ZM114.17,36.23s.03-.02.05-.03c.03.22.05.44.08.66-.04-.21-.08-.41-.12-.62Z"/><path class="cls-1" d="M114.17,36.23s.03-.02.05-.03c.03.22.05.44.08.66-.04-.21-.08-.41-.12-.62Z"/><path class="cls-3" d="M65.26,47.24c-.1-.59-.2-1.18-.3-1.77-.08-.47-.45-.91-.97-.85,0,0-.01,0-.02,0-.07-.02-.15-.03-.23-.03-3.38,0-6.76.22-10.11.67h0c-.45-.04-.95.23-1.02.72-.11.77-.05,1.54.23,2.26.14.37.51.66.93.62,3.54-.38,7.09-.59,10.64-.65.46,0,.93-.5.85-.97h0Z"/><path class="cls-6" d="M83.27,60c0-.68-6.71-1.3-14.99-.86-8.28.43-14.9,1.75-14.82,2.42.08.7,6.76.5,14.95.08,8.19-.44,14.86-.94,14.86-1.64Z"/><path class="cls-6" d="M83.11,76.22c-.06-.69-6.46-.71-14.29-.05-7.83.66-14.14,1.76-14.08,2.45.06.69,6.46.71,14.29.05,7.83-.66,14.14-1.76,14.08-2.45Z"/><path class="cls-6" d="M85.03,93.49c-.03-.69-6.52-.97-14.49-.62s-14.41,1.19-14.38,1.88c.03.69,6.52.97,14.49.62,7.97-.35,14.41-1.19,14.38-1.88Z"/><path class="cls-6" d="M102.68,60.79c-.05-.69-1.85-1.12-4.01-.97-2.17.15-3.89.84-3.84,1.53.05.69,1.85,1.12,4.01.97,2.17-.15,3.89-.84,3.84-1.53Z"/><path class="cls-6" d="M101.3,76.6c-.04-.69-1.77-1.14-3.85-1-2.08.14-3.73.8-3.68,1.49.04.69,1.77,1.14,3.85,1s3.73-.8,3.69-1.49Z"/><path class="cls-6" d="M101.54,93.5c-.03-.69-1.49-1.2-3.28-1.13-1.79.06-3.21.68-3.19,1.37.03.69,1.49,1.2,3.28,1.13,1.79-.06,3.21-.68,3.19-1.37Z"/><ellipse class="cls-6" cx="94.47" cy="106.58" rx="7.78" ry="1.25" transform="translate(-4.7 4.36) rotate(-2.58)"/><path class="cls-17" d="M137.33,176.14c-.11-.36-.34-.36-.7-.38-.09,0-.19,0-.29-.01-.9-.08-2.17-.1-2.64-.1h-.02c-.42,0-1.53.03-1.74.11-.13.05-.22.27-.24.6-.02.3.03.6.11.74.1.17,1.35.19,2.08.19h2.3c1.12,0,1.16-.1,1.18-.55l-.08-.03h0s0,0,0,0l.08.03h0c0-.24,0-.44-.05-.59Z"/><path class="cls-6" d="M148.84,184.56s-.01,0-.02,0c.02,0,.03,0,.02,0Z"/><polygon class="cls-6" points="97.37 86.63 97.37 86.63 97.37 86.63 97.37 86.63"/><path class="cls-11" d="M159.18,135.23c-.1-3.89-.44-23.27-.42-24.51.02-1.24-.16-19.65-.17-21.55,0-1.89.09-7.08-.3-8.06-.39-.98-1.02-2.46-2.09-3.03-1.06-.56-2.56-1.12-5.92-1.18-3.36-.07-22.24-.3-25.11-.3-2.4,0-14.37.08-18.95.04,0-.14-.1-.29-.25-.29h0c-1.82-.02-3.72.23-5.34,1.11-.6.33-1.16.74-1.62,1.26-.54.61-.88,1.37-1.12,2.14-.33,1.11-.49,2.27-.55,3.43-.01.26.01,2.15.01,2.31,0,.96-.01,1.93-.01,2.89,0,.16.19.27.33.25,0,0,0,0,0,0v.04s.9-.02.9-.02l.08,9.12h-.93s-.08-.01-.12,0c-.18.02-.26.17-.25.33h0c0,1.2,0,2.4,0,3.6-.02.04-.03.08-.03.13h0c.02,4.25.03,8.5.04,12.75,0,4.3.02,8.59.04,12.89.02,4.5.03,9,.02,13.51-.01,4.45-.05,8.9-.08,13.36-.03,4.44-.07,8.87-.09,13.31,0,.57,0,1.15,0,1.72,0,.2.17.31.32.32-.01.57-.02,1.26-.03,1.95-.02,0-.03,0-.05,0-.18.02-.26.17-.25.33h0c0,.96,0,1.91-.01,2.87,0,0,0,.01,0,.02-.01.35-.01.71,0,1.06,0,.15,0,.3,0,.46,0,.04.01.08.03.11.1,1.22.36,2.41.84,3.55.39.94,1,1.72,1.8,2.34.86.66,1.88,1.12,2.94,1.31.64.12,1.31.12,1.97.13.34,0,.67,0,1.01,0,.69,0,1.38.02,2.07.02,2.08.02,4.17.04,6.25.05,1.74.01,3.47,0,5.2-.01,3.45-.02,6.91-.01,10.36-.02,3.65,0,7.3-.04,10.95-.17.13,0,.27-.01.4-.02,2.04-.04,4.08-.16,6.12-.21.32,0,.64-.02.96-.02.14,0,.27,0,.41,0,.06,0,.12,0,.18,0,.02,0,.04,0,.06,0,.01,0,.02,0,.02,0,.01,0,.02,0,.03,0,0,0,.02,0,.02,0,.02,0,.04,0,.06,0h0c.81,0,1.62-.04,2.43-.08.8-.04,1.63-.07,2.42-.24,1.17-.25,2.28-.76,3.1-1.64.77-.81,1.26-1.87,1.52-2.94.26-1.08.4-2.18.54-3.28.02-.18-.1-.29-.24-.32.11-2.59.29-7.78.36-14.5.09-7.95.2-22.45.1-26.33Z"/><path class="cls-4" d="M153.6,85.33v.14s.23.01.23.01c-.05-.04-.18-.15-.23-.15h0Z"/><path class="cls-4" d="M165.05,83.94s.04-.03.05-.05c-.03.02-.05.03-.05.05Z"/><path class="cls-4" d="M156.59,84.92c.07-.09-.02-.17-.12-.25-.47.11.22.23.12.25Z"/><path class="cls-4" d="M105.47,126.05c.03-.07.05-.15.07-.21-.06.1-.07.16-.07.21Z"/><path class="cls-4" d="M158.51,83.56c-.24-.06-.39-.03-.33.12.27.01.13-.08.33-.12Z"/><polygon class="cls-4" points="157.84 83.62 157.69 83.5 157.87 83.7 157.84 83.62"/><path class="cls-4" d="M156.32,83.32c-.1.01-.18.02-.11.05.02-.02.06-.04.11-.05Z"/><path class="cls-4" d="M156.47,83.37l.03-.08s-.08.01-.13.02c.05,0,.09.01.1.06h0Z"/><path class="cls-4" d="M156,83.19l-.28.1.29.26c.34-.08-.36-.15-.01-.36h0Z"/><path class="cls-4" d="M154.18,83.37c-.37-.22.29-.09.43-.14-.29-.11-.78.17-.91-.12-.88,0,.13.48-.88.4.92.3.57-.42,1.37-.14h0Z"/><path class="cls-4" d="M154.69,83.7c.07-.12-.32-.19-.45-.12.11.03.28.24.45.12Z"/><polygon class="cls-4" points="152.67 82.94 152.59 83.01 152.92 83.09 152.67 82.94"/><path class="cls-8" d="M127.89,181.48c1.88.25,12.88-.08,14.71-.11,1.83-.04,8.07-.09,9.26-.23,1.19-.14,3.28-.11,4.32-.83,1.04-.73,2.02-1.54,2.26-2.83.24-1.29.61-5.27.42-7.33-.18-2.06.28-11.68.28-13.06s.15-16.46,0-18.34c-.14-1.87-.12-16.31-.19-17.32-.06-1.01-.12-11.78-.24-15.03-.12-3.25-.13-15.46-.13-16.58,0-1.12-.01-6.52-.09-7.29-.08-.78-.58-2.63-1.17-3.34-.59-.7-1.57-1.52-3.27-1.98-1.69-.46-5.45-.22-6.69-.34-1.24-.12-15.1-.16-17.22-.21s-15.13.18-16.65.04c-1.51-.14-8.8-.05-9.85.23s-1.95,1.38-2.26,2c-.31.62-.86,2.22-.83,3.39.02,1.17-.06,6.11-.02,7.17.04,1.05.03,17.46.03,19.13,0,1.67.07,14.24.07,14.24,0,0,.01,24.13,0,25.69-.01,1.56-.24,25.11-.2,26.3.04,1.19.5,3.67.96,4.4s1.32,1.8,2.77,2.07c1.45.27,7.36.14,8,.16.64.02,15.72,0,15.72,0"/><path class="cls-16" d="M159.86,87.51c0-.28,0-.55,0-.83,0-.54,0-1.09,0-1.63,0-.24.03-.5-.19-.66-.11-.08-.25-.08-.38-.1-.14-.02-.29-.03-.43-.04-.3-.03-.41.32-.26.5v3.18s-.07.08-.1.14c-.14.32.3.54.5.31.01,0,.03,0,.03,0,.07,0,.14.02.21.02.2,0,.39-.04.52-.21.14-.19.11-.46.11-.69Z"/><path class="cls-16" d="M159.93,100.95c0-.7-.01-1.4-.02-2.09,0-.69-.01-1.38-.02-2.06,0-.35,0-.7-.01-1.05,0-.3.02-.62-.03-.91-.04-.29-.19-.58-.47-.7-.26-.11-.58-.06-.76.17-.09.12-.07.25,0,.35l.07,6.68c-.13.16-.09.46.17.49.26.03.54.04.77-.11.26-.17.31-.46.3-.75Z"/><path class="cls-16" d="M160.01,111.31c0-.7,0-1.39,0-2.09-.02-1.34-.04-2.7-.13-4.04-.02-.31-.12-.63-.41-.78-.25-.13-.57-.09-.76.14-.11.14-.07.28.03.38l.2,6.57c-.09.04-.17.09-.23.16-.24.28.19.63.44.39,0,0,.01,0,.02,0,.04,0,.09,0,.13,0,.13,0,.26,0,.38-.06.26-.13.32-.41.32-.67Z"/><path class="cls-6" d="M97.35,85.37c0,.45,0,.89,0,1.34,0,.07.06.15.11.19.06.05.15.07.22.06.07-.01.15-.05.19-.11.05-.07.06-.14.06-.22,0-.45,0-.89,0-1.34,0-.07-.06-.15-.11-.19-.06-.05-.15-.07-.22-.06-.07.01-.15.05-.19.11-.05.07-.06.14-.06.22"/><path class="cls-9" d="M155.35,102.4c-.05-2.71-.15-5.42-.24-8.12-.23-2.51.43-6.2-2.48-7.47,0,0-.02.05-.05.09h0c-.07-.03-.18-.06-.3-.09.11,0,.23,0,.35,0-2.76-.66-5.63-.42-8.45-.53l-8.43-.09-16.86-.14s-8.43-.02-8.43-.02c-2.71-.05-6.98-.28-6.99,3.38-.13,11.03.1,38.43.19,49.78.07,8.13.17,16.26.52,24.39.41,6.36-.62,8.2,7.05,8.05,13.11-.09,26.95-.45,40.06-.28,0,0,1.05.01,1.05.01,2.71.25,3.21-1.85,3.27-3.93.57-21.08.26-43.93-.27-65.01Z"/><path class="cls-16" d="M99.07,99.04c.08-2.43.1-4.86.06-7.29-.01-.71-.03-1.41-.05-2.12,0-.16-.19-.27-.33-.25-.08.01-.14.05-.18.1-.44-.03-.88-.07-1.32-.06-.44,0-.67.32-.73.73-.06.45-.07.91-.1,1.36-.03.47-.05.93-.07,1.4-.07,1.85-.06,3.7.04,5.55.01.22.04.45.23.59.16.13.38.14.58.15.45.03.9.02,1.35,0,.04.05.1.08.17.09.15.02.33-.09.34-.25h0Z"/><path class="cls-12" d="M100.58,86.32l-.04-1.63s.03,0,.05,0c.16,0,.27-.19.25-.33-.02-.18-.17-.26-.33-.25-.97,0-1.93-.04-2.9-.04-.16,0-.27.19-.25.33,0,.02,0,.04.01.05-.01.36,0,.71,0,1.07,0,.2,0,.41,0,.61,0,.09,0,.17,0,.26,0,.04,0,.08,0,.12,0,0,0,0,0,.01,0,0,0,0,0,.02,0,0,0,0,0,0,0,0,0,0,0,0,0-.01,0-.02,0-.03,0,0,0,.02,0,.03,0,.02,0,.05,0,.07.01.08.05.14.1.18,0,0,0,0,0,0,0,0,0,0,.01.01.04.03.08.05.14.06.02,0,.04,0,.07,0,0,0,0,0,.01,0,.96,0,1.92,0,2.87,0,.16,0,.27-.19.25-.33-.02-.14-.13-.21-.25-.23Z"/><path class="cls-12" d="M100.44,172.79v-1.9c.08-.04.15-.1.16-.2.02-.15-.09-.33-.25-.34h0c-.86-.03-1.72-.03-2.58-.06-.07-.06-.17-.1-.25-.09-.17.02-.25.17-.25.32,0,0,0,0,0,0,0,.02,0,.05,0,.07,0,.81,0,1.62,0,2.43,0,.1.07.18.17.23.06.05.15.08.23.08.92,0,1.83,0,2.75,0,.16,0,.27-.19.25-.33-.02-.13-.11-.2-.23-.23Z"/><path class="cls-8" d="M159.12,172.8c.07-3.8.2-7.59.25-11.39.11-7.43.12-14.86.07-22.29-.05-7.43-.16-14.86-.26-22.29-.11-7.63-.22-15.26-.28-22.9,0-.97-.01-1.94-.02-2.92,0-.03,0-.06-.01-.08.02-1.17.02-2.35.02-3.53,0-.68,0-1.35,0-2.03,0-.87.04-1.75,0-2.62-.1-1.71-.74-3.32-1.99-4.52-1.15-1.1-2.86-1.48-4.4-1.58-.95-.06-1.91-.05-2.86-.07-1.1-.02-2.2-.04-3.31-.06-2.13-.04-4.25-.07-6.38-.11-4.17-.06-8.34-.1-12.51-.11-4.24-.01-8.48,0-12.71.04-2.68,0-5.35,0-8.03,0-.99,0-1.98.08-2.94.35-.61.17-1.23.43-1.71.86-.62.55-1.02,1.37-1.29,2.14-.52,1.53-.49,3.1-.49,4.69,0,0,0,.01,0,.02h0s0,0,0,0c0,0,0,0,0,0,0,.72,0,1.44,0,2.16,0,2.6,0,5.19.01,7.79,0,2.02,0,4.03,0,6.05-.02.04-.03.08-.03.13h0c.02,4.74.03,9.49.04,14.23.01,4.8.03,9.61.05,14.41.02,4.85,0,9.7-.02,14.55-.03,4.74-.07,9.47-.1,14.21-.04,4.85-.07,9.71-.07,14.56,0,.13,0,.25,0,.38,0,0,0,0,0,.01-.02.41,0,.82,0,1.23,0,.09,0,.18,0,.27,0,0,0,0,0,.01,0,.06,0,.13,0,.19,0,.96.04,1.92.23,2.86.23,1.11.66,2.14,1.49,2.93.79.75,1.85,1.2,2.93,1.3.62.06,1.26.05,1.89.04.41.02.83.02,1.24.02.93.01,1.85.02,2.78.03,2.07.02,4.15.04,6.22.05,1.72.01,3.43,0,5.15-.01,3.41-.02,6.83-.01,10.24-.02,3.62,0,7.24-.04,10.86-.17.26,0,.52-.02.78-.03,1.78-.05,3.56-.17,5.34-.22,2.3-.08,4.85.24,6.97-.84,1.22-.62,2.05-1.65,2.42-2.96.45-1.55.39-3.22.42-4.82ZM157.57,178.72c-1.51,2.23-4.58,2.05-6.94,2.08-2.35.02-4.7.18-7.06.26-.43.01-.86.03-1.3.03-.06,0-.1.02-.14.04-2.84.09-5.67.12-8.51.13-3.47.02-6.94,0-10.42.02-1.36,0-2.72.02-4.08.03-.27,0-.53,0-.8,0-.02,0-.05,0-.07,0-.04,0-.01,0,0,0,0,0-.01,0-.02,0-.07,0-.15,0-.22,0-.16,0-.32,0-.49,0-1.99-.01-3.98-.03-5.97-.05-1.18-.01-2.36-.02-3.54-.03-.05-.03-.11-.05-.18-.05h0c-.35.01-.7.02-1.04.02-.04,0-.09,0-.13,0-.03,0-.06,0-.09,0-.42,0-.83,0-1.25-.02-1.01-.03-1.99-.31-2.79-.95-.82-.65-1.28-1.58-1.52-2.58-.2-.86-.29-1.81-.28-2.66,0-.45,0-.9,0-1.35,0-4.68.03-9.37.06-14.06.03-4.74.08-9.48.1-14.22.03-4.79.05-9.57.03-14.36-.01-4.82-.04-9.64-.05-14.46,0-3.17-.01-6.34-.02-9.51,0-.03.01-.07.01-.11,0-2.79,0-5.58-.01-8.37,0-2.51,0-5.02-.01-7.53,0-1.49,0-2.99,0-4.48,0,0,0,0,0-.01,0-.71,0-1.42,0-2.13,0,0,0-.01,0-.02,0-.38,0-.76,0-1.13,0-.25,0-.43.01-.71.03-.7.12-1.41.29-2.09.2-.78.54-1.6,1.08-2.21.39-.45.97-.71,1.53-.89.92-.29,1.92-.37,2.89-.37,1.5,0,2.99,0,4.49,0,.59,0,1.18,0,1.76,0,.03.01.07.02.11.02.64,0,1.28-.01,1.92-.02.44,0,.88,0,1.33,0,.02,0,.05,0,.07-.01,3.14-.03,6.27-.04,9.41-.03,4.09,0,8.18.04,12.26.09,4.22.05,8.44.13,12.66.22,1.59.03,3.21.04,4.68.72,1.52.7,2.52,2.25,2.82,3.86.15.78.14,1.57.14,2.37,0,.8,0,1.6,0,2.4,0,1.28.02,2.56,0,3.83,0,.47-.01.95-.02,1.42,0,.05.01.1.03.14.05,7.27.14,14.55.25,21.82.11,7.3.22,14.6.28,21.9.07,7.33.08,14.65,0,21.98-.04,3.73-.1,7.46-.2,11.19-.04,1.81-.08,3.62-.13,5.42-.04,1.48-.08,3.18-.93,4.45Z"/><path class="cls-9" d="M98.83,126.75c.02,3.96.05,7.92.07,11.88,0,.39.6.31.6-.08-.02-3.96-.05-7.92-.07-11.88,0-.39-.6-.31-.6.08h0Z"/><path class="cls-9" d="M99.26,126.53l-1.43-1.94c-.09-.13-.3-.16-.43-.06s-.16.29-.06.43l1.43,1.94c.09.13.3.16.43.06s.16-.29.06-.43h0Z"/><path class="cls-9" d="M98.85,138.4l-1.35,2.32h.56c-.05-.16-.09-.32-.14-.49s-.26-.22-.4-.16c-.17.07-.21.24-.16.4s.09.33.14.49c.03.11.17.19.28.19.13,0,.22-.07.28-.18l1.35-2.32c.08-.14-.02-.34-.16-.4-.17-.07-.32.02-.4.16h0Z"/><path class="cls-17" d="M128.6,82.47c1.81.25,2.21-2.57.39-2.82-1.82-.25-2.21,2.57-.39,2.82"/><path class="cls-9" d="M155.38,100.85c0-.29-.02-.59-.02-.88-.05-2.39-.15-4.78-.24-7.17-.23-2.22.43-5.48-2.48-6.6,0,0-.02.04-.05.08h0c-.07-.03-.18-.06-.3-.08.11,0,.23,0,.35,0-2.76-.58-5.63-.37-8.45-.47l-8.43-.08-16.86-.12s-8.43-.02-8.43-.02c-2.71-.05-6.98-.24-6.99,2.98-.04,3.02-.05,7.43-.03,12.37h51.94Z"/><path class="cls-4" d="M155.52,97.44c0-.34-.18-1.05-.27-3.79-.23-2.54.43-6.27-2.49-7.56,0,0-.02.05-.05.1h0c-.07-.04-.18-.07-.3-.09.11,0,.24,0,.35,0-2.77-.67-5.65-.42-8.48-.54l-8.45-.1-16.9-.14s-8.45-.02-8.45-.02c-2.72-.05-7-.28-7.01,3.41-.04,3.46-.05,3.07-.03,8.73h52.08Z"/><path class="cls-4" d="M103.69,155.35c.07,3.15.16,5.21.3,8.36.42,6.43-.63,8.29,7.12,8.14,13.24-.09,27.22-.46,40.46-.28,0,0,1.07.01,1.07.01,2.74.25,3.24-1.87,3.31-3.98.12-4.38-.14-7.74-.09-12.24l-52.16-.02Z"/><path class="cls-9" d="M148.61,161.78c-.74-.84-2.36-.86-4.8-.89-.61,0-1.28-.01-1.99-.03-6.2-.18-14.96-.24-18.14-.24h-.1c-2.92,0-10.5.08-11.96.26-.89.11-1.5.64-1.65,1.41-.13.7.18,1.42.77,1.74.72.39,9.27.45,14.31.45h15.82c7.69,0,7.99-.23,8.11-1.3l-.54-.08h0s0,0,0,0l.54.06h0c.06-.57-.06-1.03-.37-1.39Z"/><path class="cls-17" d="M133.19,160.64c-4.47-.07-7.47-.02-9.5-.02h-.1c-2.92,0-10.5.08-11.96.26-.89.11-1.5.64-1.65,1.41-.13.7.18,1.42.77,1.74.72.39,9.27.45,14.31.45l5.17-.07c.91-1.32,1.91-2.57,2.96-3.78Z"/><path class="cls-13" d="M115.44,160.71c-.61,1.15-1.39,2.21-2.09,3.3-.06.09-.12.19-.17.29,1.14.06,2.58.1,4.13.13,1.05-1.29,2.12-2.57,3.24-3.79-1.63.02-3.49.04-5.11.08Z"/><path class="cls-13" d="M125.12,160.63h-.08c-1.25,1.21-2.4,2.51-3.52,3.85,1.68.02,3.35.02,4.76.02.14-.21.27-.42.41-.62.76-1.1,1.55-2.17,2.37-3.23-1.64-.01-3.02-.02-3.93-.02Z"/><path class="cls-17" d="M145.28,101.6c.83-.14,3.63-.08,4.45.1,2.04.46,3.29,2.26,3.44,4.29.05.73.1,3.23-.13,3.8-.42,1.07-2.27.87-2.42-.38-.18-1.5.62-4.32-1.09-5.1-.95-.44-2.98-.06-4.12-.18-1.48-.16-1.53-2.3-.13-2.53Z"/><path class="cls-9" d="M145.28,101.6c3.33-.31,7.12-.42,8.14,3.57.31,1.51.35,2.96.19,4.48-.02.18-.12.46-.24.64-.82,1.24-2.94.82-3.24-.62-.2-1.42.23-2.56.04-3.87-.33-2.16-2.94-1.33-4.58-1.58-1.54.04-1.88-2.37-.31-2.62h0ZM145.28,101.6c-1.51.27-1.2,2.59.32,2.47,3.35-.24,5.62-.84,5.49,3.59,0,.63-.04,1.33.06,1.77.07.51,1.02.71,1.33.27,1.1-6.22-.74-8.69-7.21-8.1h0Z"/><path class="cls-17" d="M107.14,142.46c.65-.11,1.34.17,1.51.85.38,1.51-.72,4.35,1.08,5.26.88.45,3.01.1,4.1.2,1.61.14,1.63,2.38.07,2.55-1.14.13-3.9.09-4.94-.31-2.94-1.13-3.04-4.46-2.82-7.16.05-.62.31-1.28,1-1.4Z"/><path class="cls-9" d="M107.14,142.46c3.27-.27.25,5.04,2.79,5.91,1.73.57,4.96-1.21,5.61,1.38.26,2.16-1.85,2.25-3.38,2.16-1.33-.08-2.72-.1-3.92-.81-1.84-1.05-2.32-3.37-2.25-5.27.13-1.11-.26-3.01,1.14-3.37h0ZM107.14,142.46c-1.4.39-.94,2.27-.99,3.37.12,1.83.71,3.82,2.45,4.62,1.08.49,2.39.4,3.58.43.88-.09,2.4.28,2.34-.94-.06-.4-.34-.68-.89-.7-1.28-.12-2.6.12-3.9-.36-2.82-1.17.82-6.61-2.58-6.41h0Z"/><path class="cls-17" d="M144.42,151.02c-.76-.76-.27-2.13.88-2.24,1.32-.12,3.64.41,4.6-.58s.42-3.34.54-4.63c.15-1.54,2.34-1.5,2.54.16.11.92.07,2.99-.09,3.91-.28,1.61-1.48,3.03-3.06,3.5-.97.29-3.64.31-4.68.2-.22-.02-.58-.16-.74-.32Z"/><path class="cls-9" d="M144.42,151.02c-.48-.45-.49-1.26-.07-1.76.41-.56,1.16-.57,1.78-.57,1.14-.05,2.66.15,3.52-.64,1.22-1.6-.58-4.11.81-5.68,1.09-1.04,2.93-.18,3.03,1.22.14,2.28.19,4.97-1.65,6.63-1.5,1.47-3.68,1.22-5.6,1.19-.62-.05-1.33.04-1.84-.39h0ZM144.42,151.02c.52.42,1.22.32,1.84.35,1.82-.04,3.95-.02,5.21-1.53,1.31-1.4,1.09-3.41,1.05-5.2-.04-.5.02-1.08-.34-1.43-.25-.28-.76-.31-1-.07-.35.32-.26.93-.28,1.41-.07,1.3.18,2.83-.87,3.9-1.19.88-2.59.44-3.89.39-.61-.03-1.33-.1-1.75.44-.42.48-.43,1.27.04,1.73h0Z"/><path class="cls-17" d="M109.02,101.61c.76-.08,3.35-.13,4.01.03,1.27.31,1.17,2.26-.11,2.48-1.37.23-3.72-.45-4.76.56-.98.96-.45,3.36-.58,4.67-.15,1.55-2.38,1.51-2.55-.22-.31-3.09.17-7.11,3.99-7.52Z"/><path class="cls-9" d="M109.02,101.61c1.27-.1,2.54-.15,3.83-.08.32.03.68.16.9.44.78.87.13,2.42-1.04,2.45-1.62.32-4.07-.55-4.53,1.33-.41,1.66.91,5.44-2.06,5.17-1.8-.37-1.5-2.37-1.43-3.72.12-2.54,1.5-5.42,4.33-5.59h0ZM109.02,101.61c-2.82.19-3.97,3.13-3.79,5.61.11.89-.13,2.6,1.03,2.77,1.25-.01.7-1.54.76-2.44,0-1.01-.07-2.24.69-3.1,1.33-1.35,3.52-.47,4.96-.57.58.04,1.02-.37,1.1-.95.09-.56-.29-1.18-.93-1.25-1.25-.16-2.54-.15-3.81-.07h0Z"/><path class="cls-1" d="M111.5,146.84c6.34-.02,25.57-.03,28.85.04,2.75.06,5.51.08,8.25-.16,0-.12,0-.25,0-.37-.03-3.99.22-29.35.02-38.1-.01-.46-.02-.95-.04-1.43-.6,0-1.98-.11-2.5-.1-.5,0-24.98-.57-35.52.09.12,11.89.5,27.74.94,40.03Z"/><path class="cls-3" d="M124.28,112.43c-.05-.3-.1-.59-.15-.89-.04-.24-.22-.46-.49-.43,0,0,0,0-.01,0-.04,0-.08-.01-.12-.01-1.7,0-3.4.11-5.08.34h0c-.23-.02-.48.12-.51.36-.05.39-.02.77.12,1.14.07.18.26.33.47.31,1.78-.19,3.56-.3,5.35-.33.23,0,.47-.25.43-.49h0Z"/><path class="cls-6" d="M133.34,118.84c0-.34-3.37-.65-7.54-.43-4.16.22-7.49.88-7.45,1.22.04.35,3.4.25,7.51.04,4.12-.22,7.47-.47,7.47-.83Z"/><path class="cls-6" d="M133.26,126.99c-.03-.35-3.24-.36-7.18-.02-3.94.33-7.11.88-7.08,1.23.03.35,3.24.36,7.18.02,3.94-.33,7.11-.88,7.08-1.23Z"/><path class="cls-6" d="M134.22,135.68c-.02-.35-3.28-.49-7.28-.31s-7.24.6-7.23.95c.02.35,3.28.49,7.28.31,4.01-.18,7.24-.6,7.23-.95Z"/><path class="cls-6" d="M143.09,119.24c-.02-.35-.93-.56-2.02-.49-1.09.08-1.95.42-1.93.77.02.35.93.56,2.02.49,1.09-.08,1.95-.42,1.93-.77Z"/><path class="cls-6" d="M142.4,127.19c-.02-.35-.89-.57-1.93-.5-1.05.07-1.87.4-1.85.75.02.35.89.57,1.93.5s1.87-.4,1.85-.75Z"/><path class="cls-6" d="M142.52,135.68c-.01-.35-.75-.6-1.65-.57-.9.03-1.61.34-1.6.69s.75.6,1.65.57,1.61-.34,1.6-.69Z"/><ellipse class="cls-9" cx="138.96" cy="142.26" rx="3.91" ry=".63" transform="translate(-6.26 6.4) rotate(-2.58)"/><path class="cls-7" d="M37.47,14.58c-.26.03-.49.08-.74.13-.38-.06-.78-.09-1.19-.06-3.38.19-6.04,2.75-8.01,5.27-.05.06-.09.12-.14.19-.11.14-.21.28-.31.42-.56.75-1.09,1.51-1.59,2.29-.06.09-.09.18-.11.26,0,0,.12-.12.35-.28-.2.44-.3.73-.32.78.29-.52,2.26-1.52,4.78-1.5.86.25,1.81.72,2.82,1.56,2.98,2.47,3.66,6.62,4.35,9.91,1.63,7.83,2.08,15.85,2.18,23.83.05,3.83.07,7.66.09,11.49,6.82-19.15,9.69-42.54,19.1-55.11-8.05-.02-15.86.16-21.28.82Z"/><path class="cls-17" d="M132.46,183.15c-.11-.36-.34-.36-.7-.38-.09,0-.19,0-.29-.01-.9-.08-2.17-.1-2.64-.1h-.02c-.42,0-1.53.03-1.74.11-.13.05-.22.27-.24.6-.02.3.03.6.11.74.1.17,1.35.19,2.08.19h2.3c1.12,0,1.16-.1,1.18-.55l-.08-.03h0s0,0,0,0l.08.03h0c0-.24,0-.44-.05-.59Z"/><path class="cls-9" d="M37.99,39.76l-.89-3.04c-.14-1.02-.33-2.04-.54-3.05-1-4.12-2.74-11.45-8.16-10.74-.98,0-1.97.31-2.98.65.79-.71,1.7-1.32,2.79-1.72,6.23-.86,8.33,6.86,9.42,11.58.5,2.08.72,4.19.37,6.31h0Z"/><g id="Layer_12"><path class="cls-10" d="M152.79,64.74c.09-.52.07-1.06.09-1.59.02-.56.05-1.13.07-1.69.04-1.14.09-2.29.13-3.43.08-2.27.15-4.55.2-6.82.05-2.27.07-4.55.06-6.82,0-.56,0-1.13-.02-1.69,0-.5.01-1.02-.11-1.51-.12-.49-.36-.96-.8-1.22-.51-.3-1.08-.24-1.63-.18-.96.1-1.95.28-2.74.87-.81.61-1.21,1.58-1.32,2.56-.11,1,.04,2.02.21,3.01l.62,3.46c.71,4,1.42,8.01,2.14,12.01.06.53.13,1.06.2,1.59.06.46.13.91.21,1.36.03.21.07.41.11.62.06.3.08.65.34.85.43.31,1.03.23,1.45-.04.47-.3.7-.8.79-1.33h0Z"/><path class="cls-14" d="M172.91,63.17c3.47-4.05,6.87-8.15,10.2-12.31.67-.84,1.5-1.7,1.92-2.71.19-.45.3-.95.22-1.43-.1-.62-.46-1.13-.95-1.54-1.46-1.22-3.88-2.49-5.42-.69-.42.49-.75,1.07-1.1,1.61-.36.55-.72,1.11-1.08,1.66-.73,1.13-1.45,2.25-2.18,3.38-1.43,2.23-2.84,4.47-4.24,6.71-1.4,2.24-2.79,4.5-4.17,6.75-.69,1.13-1.37,2.26-2.06,3.39-.34.57-.68,1.13-1.02,1.7-.3.5-.68,1-.83,1.57-.15.55,0,1.11.5,1.41.19.25.52.39.85.38.61-.03.99-.38,1.38-.81.9-1,1.8-2.01,2.7-3.02,1.78-2.01,3.54-4.03,5.28-6.07h0Z"/><path class="cls-14" d="M197.32,75.53c.1-.55-.09-1.13-.23-1.66-.15-.59-.32-1.17-.51-1.75-.19-.57-.35-1.21-.68-1.72-.36-.57-.97-.78-1.62-.74-1.09.07-2.18.47-3.18.91-1.08.49-2.13,1.06-3.18,1.6-4.56,2.35-9.12,4.7-13.67,7.06l-.2.1c-.44.19-.89.38-1.3.62-.44.25-.84.67-.87,1.2-.03.64.45,1.09,1.04,1.21.55.12,1.12-.04,1.66-.15.6-.12,1.2-.25,1.8-.37,2.43-.51,4.85-1.07,7.27-1.66,2.38-.59,4.75-1.21,7.11-1.87,1.18-.33,2.36-.67,3.53-1.02.58-.17,1.17-.34,1.75-.53.6-.19,1.14-.56,1.26-1.22Z"/></g><g id="Layer_12-2"><path class="cls-16" d="M152.79,64.74c.09-.52.07-1.06.09-1.59.02-.56.05-1.13.07-1.69.04-1.14.09-2.29.13-3.43.08-2.27.15-4.55.2-6.82.05-2.27.07-4.55.06-6.82,0-.56,0-1.13-.02-1.69,0-.5.01-1.02-.11-1.51-.12-.49-.36-.96-.8-1.22-.51-.3-1.08-.24-1.63-.18-.96.1-1.95.28-2.74.87-.81.61-1.21,1.58-1.32,2.56-.11,1,.04,2.02.21,3.01l.62,3.46c.71,4,1.42,8.01,2.14,12.01.06.53.13,1.06.2,1.59.06.46.13.91.21,1.36.03.21.07.41.11.62.06.3.08.65.34.85.43.31,1.03.23,1.45-.04.47-.3.7-.8.79-1.33h0Z"/><path class="cls-16" d="M174.25,51.57c-1.33,2.09-2.66,4.18-3.97,6.28-1.4,2.24-2.79,4.5-4.17,6.75-.69,1.13-1.37,2.26-2.06,3.39-.34.57-.68,1.13-1.02,1.7-.3.5-.68,1-.83,1.57-.15.55,0,1.11.5,1.41.19.25.52.39.85.38.61-.03.99-.38,1.38-.81.9-1,1.8-2.01,2.7-3.02,1.78-2.01,3.54-4.03,5.28-6.07h0c.71-.83,1.41-1.67,2.12-2.51-.93-3.04-1.53-6.14-.78-9.08Z"/><path class="cls-16" d="M178.79,77.46c-.03-.18-.05-.36-.07-.54-1.49.77-2.98,1.54-4.47,2.31l-.2.1c-.44.19-.89.38-1.3.62-.44.25-.84.67-.87,1.2-.03.64.45,1.09,1.04,1.21.55.12,1.12-.04,1.66-.15.6-.12,1.2-.25,1.8-.37,1.09-.23,2.17-.5,3.25-.74-.36-1.18-.66-2.39-.85-3.63Z"/></g></g></svg>