<svg xmlns="http://www.w3.org/2000/svg" viewBox="0 0 200 200"><defs><style>.cls-1{fill:none}.cls-4{fill:#f6c243}.cls-6{fill:#e8f8f9}.cls-7{fill:#fff}.cls-8{fill:#ffa2af}.cls-12{fill:#ff8000}.cls-14{fill:#afcbcd}.cls-15{fill:#d6e8ea}.cls-18{fill:#5b3d5b}</style></defs><path id="BG_Strong" d="M177.46 47.04C105.59-54.97-51.53 44.62 32.89 148.66 94.9 239.48 234.23 137.1 177.46 47.04Z" style="fill:#575655"/><g id="Illustrations"><path d="M53.38 75.68c0 .07.04.03 0 0Z" class="cls-1"/><path d="M145.32 195.44c.65.13 1.22.23 1.64.31 1.45.26 4.13.13 7.03-.33-2.77.09-5.66.09-8.67.02ZM198.12 175.22c-3.49 7.83-10.46 13.43-20.94 16.73 1.51.18 2.97.33 4.1.34 3.03.02 5.96-2.08 9.35-4.09 2.63-1.56 6.04-2.53 7.43-2.88.23.69 1.4.65 1.31-.15-.35-3.33-.77-6.64-1.25-9.95ZM110.87 191.92c0 .7.88.83 1.21.41.52.37 1.41.97 2.62 1.66 2.04 1.16 7.46 1.41 9.71 1.33 1.34-.05 4.42-.41 7.23-.72-6.47-.59-13.38-1.48-20.78-2.69ZM183.83 117.79a341.11 341.11 0 0 0-11.38-28.17c-5.86-12.86-12.35-25.49-20.89-36.8-5.03-6.66-10.68-12.86-17.09-18.21-6.42-5.36-13.68-10.1-21.53-13.09-4.23-1.61-8.83-2.48-13.32-1.53-4.04.86-7.57 3.24-9.57 6.9-2.12 3.87-2.39 8.36-1.94 12.67.45 4.33 1.83 8.5 3.56 12.47.55 1.27 1.18 2.5 1.79 3.74 2.47 4.65 4.67 9.43 6.59 14.32.05.19.09.39.12.58.17.97.12 1.95-.18 2.88-.14.44-.27.73-.5 1.14-.2.36-.47.76-.69 1.03-1.13 1.37-2.67 2.32-4.33 2.85-1.83.59-3.71.65-5.63.26-4.53-.93-8.17-3.91-11.7-6.7-1.93-1.52-3.87-3.04-5.92-4.39-.86-.57-1.75-1.15-2.68-1.61-.49-.24-1-.46-1.5-.69-2.24-1-4.6-1.7-7.02-2.06-1.19-.18-2.43-.33-3.64-.31-1.08.02-2.34.3-2.94 1.31-.23.38-.31.8-.31 1.22-1.18.27-2.34.66-3.44 1.19-.94.36-2.41 1.12-2.29 2.32.07.69.51 1.25 1.11 1.56.28.15.58.25.89.31.25.05.58.14.73.22.09.05.19.1.27.16 0 0 .04.05.07.07.01.01.02.03.03.03v.02l.02.02c-.04.11-.09.21-.17.34-.35.55-.47 1.13-.35 1.77.1.56.43 1.12.87 1.49.51.41 1.07.54 1.72.52.13 0 .26-.01.39-.01.2 0 .18.01.33.03-.05 0 .05.03.04.02 0 0 .01 0 .01.01 0 .03-.01.12 0 .12-.12.57-.61 1.08-.75 1.69-.3 1.29.35 2.61 1.38 3.38.54.4 1.19.58 1.84.7.86.16 1.75.21 2.62.17 2.85-.14 5.54-1.24 7.71-3.09 1.61.88 2.7 2.35 3.65 3.89 1.28 2.09 2.49 4.23 3.73 6.35 1.09 1.88 2.18 3.73 3.58 5.4 1.3 1.56 2.79 2.94 4.45 4.11 1.45 1.03 3.04 1.91 4.71 2.52 1.32.48 2.69.8 4.08 1.01 3.23.5 6.56.5 9.77-.15 2.88-.58 5.8-1.78 7.86-3.94.45 2.39.86 4.8 1.22 7.21 1.29 8.72 1.94 17.53 2.16 26.34.23 9.5.09 19.02-.08 28.52-.17 8.88-.37 17.77-.41 26.65 4.83-16.33 58.17-5.64 72.97-68.76ZM53.38 75.68s0 .07 0 0Z" class="cls-15"/><path d="M170.53 191.4c-2.38.18-7.77 1.86-12.1 3.06-1.45.4-2.97.72-4.43.95 9.05-.29 16.78-1.45 23.19-3.47-2.52-.3-5.17-.66-6.66-.55ZM136.36 194.18c-1.01.04-2.8.22-4.72.43 4.82.44 9.38.72 13.68.82-2.72-.52-6.97-1.34-8.97-1.26ZM110.87 186.55c-.45 1.53-.48 3.29-.01 5.37h.01v-3.48c0-.63 0-1.26.01-1.89Z" class="cls-6"/><path d="M198.12 175.22c-2.17-15.11-5.58-30.03-10.05-44.62-1.32-4.3-2.74-8.57-4.23-12.81-14.8 63.12-68.14 52.43-72.97 68.76 0 .63-.01 1.26-.01 1.89v3.48c7.39 1.2 14.31 2.09 20.78 2.69 1.92-.21 3.71-.4 4.72-.43 1.99-.08 6.25.74 8.97 1.26 3.02.08 5.91.07 8.67-.02 1.46-.23 2.98-.55 4.43-.95 4.33-1.2 9.72-2.88 12.1-3.06 1.49-.11 4.14.25 6.66.55 10.48-3.3 17.44-8.9 20.94-16.73Z" class="cls-6"/><path d="m175.01 133.45-.03-.05s0 .02.03.05Z" style="fill:#f2f9f9"/><ellipse id="Bag_shadow" cx="43.21" cy="189.17" rx="19.29" ry="3.32" style="fill:#efedea"/><path d="M92.39 44.96c.47 0 .92-.41.9-.9s-.39-.9-.9-.9c-.47 0-.92.41-.9.9s.39.9.9.9ZM106.86 39.2c.47 0 .92-.41.9-.9s-.39-.9-.9-.9c-.47 0-.92.41-.9.9s.39.9.9.9Z" class="cls-18"/><path d="M103.29 46.38c-.04-.24-.15-.47-.29-.66-.1-.13-.2-.27-.32-.38-.13-.12-.27-.22-.41-.33-.07-.05-.14-.1-.22-.15-.36-.24-.83-.2-1.18.04-.23.16-.35.28-.51.51-.03.04-.05.08-.07.12-.05.11-.11.22-.14.34-.04.16-.07.33-.06.5.02.3.07.46.2.73.04.08.1.15.17.21.03.09.06.18.11.27.01.03.03.06.05.08.06.09.13.18.21.26.08.08.17.14.26.21.03.02.06.04.1.06.23.11.41.16.66.18.24.01.48-.07.69-.18.13-.07.25-.16.34-.26.19-.2.27-.36.37-.61.12-.3.1-.62.04-.93Z" style="fill:#a0b4b5"/><path d="M197.53 181.88c-1.24-.77-2.68-1.12-4.12-1.23-3.27-.25-6.38.89-9.58 1.28-1.68.21-3.32.12-4.96-.3-1.64-.42-3.13-1-4.71-1.44-1.52-.42-3.07-.66-4.65-.56-1.58.1-2.97.42-4.41.85-2.89.86-5.69 2.12-8.69 2.57-3.44.51-6.76-.61-10.11-1.19-3.35-.57-6.85-.71-10.14.34-3.03.97-5.74 2.73-8.76 3.71-2.83.92-5.8.85-8.72 1.16-1.44.15-2.9.38-4.26.9-1.14.43-2.6 1.09-3.26 2.18-.32.53-.36 1.17-.3 1.77 0 .02.01.04.02.06 0 .04-.01.08 0 .12.11.64.82 1.08 1.34 1.36.86.48 1.81.82 2.74 1.11 2.38.76 4.9 1.26 7.4 1.41 3.21.2 6.44-.52 9.62-.87 1.84-.2 3.7-.33 5.56-.24 1.77.09 3.5.41 5.24.76 3.43.69 6.83 1.37 10.33.87 3.14-.45 6.12-1.63 9.1-2.66s6.08-1.92 9.28-1.75c3.51.18 6.96 1.3 10.5.77 2.72-.4 5.13-1.8 7.43-3.24 2.29-1.43 4.47-2.92 7.05-3.54.62-.15 1.24-.23 1.87-.25.08 0 .14-.03.21-.05.32.09.7-.02.8-.44.36-1.5-.61-2.72-1.82-3.47ZM112.7 83.99c-2.23-3.22-4.85-6.16-7.41-9.12-.24-.28-.71-.24-.95 0-.27.27-.24.67 0 .95 2.48 2.87 5.03 5.73 7.2 8.85.21.3.59.43.92.24.3-.17.45-.62.24-.92Z" class="cls-15"/><path d="M105 80.38c1.88 1.25 3.82 2.45 5.64 3.79.17.13.35.26.52.39.02.01.1.08 0 0l.14.11.28.22c.38.31.76.62 1.13.95.9.78 1.76 1.61 2.61 2.44 1.01.98 2.1 1.92 3.3 2.67s2.79 1.03 4.22.88c1.24-.13 2.34-.69 3.17-1.62.73-.83 1.23-1.81 1.64-2.83 1.29-3.21 1.45-6.79.45-10.1-.25-.82-1.55-.47-1.3.36.84 2.78.8 5.74-.12 8.5-.33.99-.69 1.86-1.32 2.76-.13.18-.24.32-.44.53-.16.17-.39.38-.51.46-.44.32-.8.48-1.33.58-.26.05-.59.07-.91.07s-.65-.01-.97-.06c-.61-.09-1.21-.27-1.75-.58-1.12-.65-2.12-1.53-3.05-2.43-1.52-1.47-3.06-2.92-4.76-4.2-1.92-1.45-3.98-2.71-5.98-4.04-.3-.2-.74-.06-.92.24-.19.33-.06.72.24.92Z" class="cls-15"/><path d="M104.34 44.31c-3.37-.05-4.37-3.37-7.84 2.1-3.47 5.47-5.95 10.94-6.36 13.15-.42 2.21-.48 6.13-.48 6.13s1.73-.14 4.11.04v-.07c.4-3.85.79-7.69 1.18-11.53 0-.09.03-.17.05-.25.02-.15.06-.3.15-.43 1.54-2.29 3.08-4.59 4.62-6.88.35-.52.97-.7 1.53-.4.51.27.73 1.04.4 1.53-1.51 2.26-3.03 4.51-4.55 6.77l-.27 2.66-.9 8.85c1.35.21 2.78.53 4.16 1.02 0 0-2.75-5.5 1.12-10.97 3.86-5.47 6.44-11.68 3.07-11.73Z" class="cls-1"/><path d="m97.16 54.47 4.55-6.77c.33-.49.11-1.26-.4-1.53-.56-.3-1.18-.12-1.53.4-1.54 2.29-3.08 4.59-4.62 6.88-.09.13-.13.27-.15.43-.02.08-.04.16-.05.25-.39 3.85-.78 7.69-1.18 11.53v.17c.69.05 1.46.18 2.23.3.3-2.95.58-6.04.89-8.99l.27-2.66Z" style="fill:#c64528"/><path d="M84.22 106.75a240.609 240.609 0 0 1-13.05-10.37c-.05-.04-.11-.08-.16-.11a.642.642 0 0 0-.13-.1s-.01 0-.05-.02a.488.488 0 0 0-.07-.03c.02 0 .04.01.06.02-.04-.02-.07-.03-.11-.05-.03-.01-.06-.03-.09-.04-.18-.08-.35-.16-.53-.25-.71-.33-1.42-.66-2.14-.99-2.48-1.15-4.96-2.3-7.44-3.44-.71-.33-1.43-.65-2.14-.98.03-.06.05-.13.06-.2.37-2.33.65-4.67.85-7.02.17-2.07.33-4.17.32-6.25 0-.58-.51-1.15-1.12-1.12-.61.03-1.12.49-1.12 1.12.01 2.05-.14 4.11-.31 6.14-.09 1.12-.21 2.23-.34 3.34-.03.29-.07.58-.11.87-.01.11-.03.22-.04.33-.02.14-.02.15 0 .03 0 .07-.02.15-.03.22-.07.53-.15 1.06-.23 1.59l-5.82-2.64c-1.79-.81-3.59-1.61-5.39-2.4.03-.09.05-.19.07-.3 0-.07.02-.15.03-.22 0-.03 0-.07.01-.1.03-.22.06-.43.1-.64.07-.43.16-.86.25-1.29.2-.93.43-1.84.69-2.75a52.95 52.95 0 0 1 1.93-5.65c.05-.12.1-.23.14-.35l.06-.15c.1-.24.2-.47.31-.7.2-.45.41-.89.64-1.33.27-.52.15-1.24-.4-1.53-.51-.27-1.25-.15-1.53.4-.89 1.75-1.62 3.59-2.27 5.45a52.36 52.36 0 0 0-1.68 5.8c-.18.81-.33 1.63-.44 2.45-1.11-.49-2.23-.98-3.35-1.46-3.25-1.4-6.51-2.78-9.8-4.08-.34-.13-.67-.26-1.01-.39s-.74.15-.83.47c-.11.38.13.69.47.83.85.33 1.69.66 2.53 1 3.17 2.75 10.71 9.03 10.71 9.03l9.32 3.61 30.31 13.78c.73.55 1.46 1.1 2.19 1.64.29.22.75.05.92-.24.2-.34.05-.7-.24-.92ZM45.16 83.84c.02-.12 0-.06 0 0Z" class="cls-12"/><path d="m70.81 96.14.06.03s-.02-.02-.06-.03Z" class="cls-12"/><path d="M42.14 87.95c-.83-.31-1.55-.86-2.23-1.41-.84-.68-1.67-1.37-2.5-2.05l-5.05-4.14-2.85-2.34c-.09-.07-.19-.12-.29-.16-.25-.38-.86-.52-1.14 0C24.55 84.3 21 90.73 17.44 97.16c-3.55 6.41-7.1 12.81-10.64 19.22-1.99 3.61-3.97 7.21-5.95 10.83-.18.32-.07.63.15.82.02.14.08.27.19.37 3.14 2.84 6.36 5.57 9.76 8.09 1.05.78 2.11 1.54 3.18 2.29.3.21.75.05.92-.24.16-.27.1-.55-.08-.77L41.4 89.48c.08.07.17.13.28.16.36.1.71-.12.83-.47l.13-.4c.12-.37-.14-.71-.47-.83Z" style="fill:#e5a355"/><path d="M42.49 88.14s-.44-.19-1.18-.66-8.23-6.67-9.3-7.5-2.98-2.4-2.98-2.4 23.5 9.86 31.62 13.75c8.12 3.89 11.79 5.53 11.79 5.53s5.54 5.82 12 10.06c0 0-21.21-9.99-25.75-11.92L42.5 88.15Z" class="cls-1"/><path d="M84.71 107.58c.05-.38-.27-.7-.61-.75-.17-.08-.35-.16-.52-.25-.72-.34-1.45-.68-2.18-1.03-2.5-1.18-5.01-2.35-7.52-3.52l-3.9-1.8c.76-.69 1.51-1.38 2.27-2.07 1.12-1.03 2.19-2.1 3.1-3.33 1.74-2.36 2.57-5.54 1.28-8.3-1.19-2.57-4.26-3.73-6.94-3.54-1.66.12-3.22.64-4.74 1.3-1.43.62-2.81 1.35-4.18 2.09a94.631 94.631 0 0 0-9.08 5.56c-.02.02-.05.04-.07.05-2.87-1.24-5.76-2.46-8.67-3.61-.35-.14-.7-.27-1.05-.41-.34-.13-.74.15-.83.47-.02.09-.03.17-.02.24-3.48 6.37-6.97 12.73-10.45 19.1-3.51 6.42-7.03 12.84-10.54 19.26-1.91 3.5-3.83 6.99-5.74 10.49-.24.06-.45.26-.51.48-.11.38.13.69.47.83 1.5.58 3 1.19 4.48 1.8.41.17.83.35 1.24.52l.59.25h.02c.06.03.12.06.18.08l.36.15c.86.37 1.72.74 2.58 1.1 3.64 1.57 7.26 3.18 10.88 4.82 3.46 1.56 6.92 3.15 10.36 4.74 2.64 1.22 5.27 2.45 7.9 3.69 1.17.55 2.34 1.12 3.52 1.66.01 0 .02 0 .03.02.11.05.21.09.34.09.24 0 .48-.15.59-.36.1-.05.19-.14.26-.26 3.51-6.42 7.03-12.84 10.54-19.26 3.51-6.42 7.03-12.84 10.54-19.26 1.95-3.56 3.89-7.11 5.84-10.67.06-.07.11-.16.14-.25.01-.05.02-.09.02-.14ZM75 88.75v-.05.05Zm-20.95 4.31a91.09 91.09 0 0 1 6.47-3.97c1.32-.74 2.65-1.44 4-2.11.3-.15.61-.3.92-.44.17-.08.34-.16.51-.23.08-.03.15-.07.23-.1.04-.02.06-.03.08-.03.03-.01.05-.02.08-.03.67-.27 1.36-.51 2.07-.68.3-.07.61-.13.91-.18.05 0 .16-.02.18-.02.07 0 .13-.01.2-.02.16-.01.33-.02.49-.02.3 0 .6.02.91.05h.03c.05 0 .11.02.16.03.16.03.32.06.48.11.27.07.52.16.78.25h.03c.05.02.1.04.15.07.15.07.29.15.43.23.12.07.23.14.34.22.01 0 .04.02.06.04.04.03.08.07.13.11.11.1.22.2.32.3.04.04.07.08.11.12.02.02.07.08.11.12.17.2.3.45.42.68.03.06.06.12.08.17v.03c.05.16.11.32.15.49.04.14.07.28.09.42v.09s.02.02.02.03v.1c.03.33.03.67 0 1 0 .07-.01.15-.02.22v.14-.09c0 .14-.05.3-.08.43-.07.32-.15.63-.26.93-.04.12-.09.24-.14.36-.02.04-.04.09-.05.11-.02.05-.05.11-.08.16a10.029 10.029 0 0 1-.86 1.42c-.05.06-.09.13-.14.19-.03.04-.06.08-.09.11-.24.3-.49.59-.75.87-.52.57-1.08 1.1-1.64 1.63-1.04.96-2.09 1.91-3.14 2.87-1.35-.62-2.7-1.24-4.05-1.85-3.22-1.46-6.44-2.9-9.68-4.31Z" style="fill:#fbae5e"/><path d="M84.1 106.83c-.17-.08-.35-.16-.52-.25-.72-.34-1.45-.68-2.18-1.03-2.5-1.18-5.01-2.35-7.52-3.52-3.38-1.57-6.77-3.13-10.16-4.67-3.63-1.64-7.26-3.27-10.91-4.85-3.27-1.42-6.55-2.82-9.86-4.13-.35-.14-.7-.27-1.05-.41-.34-.13-.74.15-.83.47-.02.09-.03.17-.02.24-3.48 6.37-6.97 12.73-10.45 19.1-3.51 6.42-7.03 12.84-10.54 19.26-1.91 3.5-3.83 6.99-5.74 10.49-.24.06-.45.26-.51.48-.11.38.13.69.47.83 1.5.58 3 1.19 4.48 1.8.41.17.83.35 1.24.52.2.08.39.17.59.25h.02c.06.03.12.06.18.08l.36.15c.86.37 1.72.74 2.58 1.1 3.64 1.57 7.26 3.18 10.88 4.82.12.05.23.11.35.16 1.02-3.77 5.72-14.72 5.94-15.23.15-.43.02-.91-.31-1.21l-2.65-1.98c-.38-.32-.51-.87-.28-1.34.07-.15.18-.28.3-.38.49-.45 11.02-7.91 24.19-9.23.55-.08 1.13 0 1.67.27.54.26.96.67 1.24 1.15 1.54 2.42 2.77 4.92 3.75 7.36s.01.02.02.02c.02 0 .04 0 .06-.02l.5-1.02c.17-.34.58-.48.92-.32.03.01.05.03.08.04l2.76 1.78c.17.11.31.27.4.45 1.72-3.15 3.45-6.29 5.17-9.44 1.95-3.56 3.89-7.11 5.84-10.67.06-.07.11-.16.14-.25.01-.05.02-.09.02-.14.05-.38-.27-.7-.61-.75Z" class="cls-1"/><path d="M46.57 146.72c.11-.18.28-.3.48-.33 1.1-.17 2.11-.86 2.63-1.93 0-.01.01-.03.02-.04s.02-.04.03-.06l.02-.04c1.77-4.01 3.89-8.54 5.83-11.98 0-.02.02-.03.02-.04.15-.33.01-.71-.32-.87a.645.645 0 0 0-.84.27c-1.33 2.36-2.75 5.23-4.08 8.1-.18.38-.64.55-1.02.37s-.55-.64-.37-1.02c1.32-2.85 2.73-5.7 4.05-8.06 0-.02.02-.03.02-.04.15-.33.01-.71-.32-.87a.645.645 0 0 0-.84.27c-1.34 2.37-2.76 5.26-4.1 8.14-.18.39-.64.56-1.03.37a.771.771 0 0 1-.37-1.03c1.33-2.86 2.74-5.73 4.07-8.1s.02-.03.02-.04c.15-.33.01-.71-.32-.87a.645.645 0 0 0-.84.27c-2 3.54-4.19 8.25-6 12.36-.47 1.11-.33 2.34.29 3.29.12.19.15.43.05.64-.03.06-.06.14-.09.2-.83 1.94-1.6 3.8-2.1 5.02.98.45 1.97.9 2.95 1.36l.63-1.71c1.16-3.06 1.53-3.63 1.53-3.63ZM64.94 135.81c.08-.21.09-.3.09-.3a.675.675 0 0 0-.39-.67c-.14-.06-.28-.08-.42-.06 0 0-.1 0-.27.07 0 0-5.78 2.07-12.3 13.38 0 0-.1.16-.13.32-.05.27.04.56.34.77l1.88 1.26c.17.11.24.31.15.49 0 0-.84 1.55-2.52 4.25.5.23 1 .46 1.49.7.49.23.98.46 1.46.69.71-1.27 1.95-3.49 3.35-6.08 2.59-4.79 5.8-10.97 7.26-14.82Z" class="cls-1"/><path d="m73.14 127.63-2.76-1.78s-.05-.03-.08-.04a.686.686 0 0 0-.92.32l-.5 1.02s-.04.03-.06.02c0 0-.02-.01-.02-.02-.99-2.44-2.22-4.94-3.75-7.36-.28-.48-.7-.89-1.24-1.15a2.96 2.96 0 0 0-1.67-.27c-13.18 1.32-23.71 8.78-24.19 9.23-.13.1-.23.23-.3.38-.23.47-.1 1.02.28 1.34l2.65 1.98c.34.3.47.78.31 1.21-.22.51-4.91 11.46-5.94 15.23 2.17.98 4.34 1.97 6.51 2.97.5-1.22 1.27-3.09 2.1-5.02.03-.06.06-.14.09-.2.09-.22.06-.45-.05-.64-.62-.95-.76-2.18-.29-3.29 1.81-4.11 4-8.82 6-12.36.17-.3.53-.42.84-.27.33.15.47.54.32.87 0 .02-.02.03-.02.04-1.33 2.36-2.74 5.23-4.07 8.1-.18.39-.01.85.37 1.03s.85.01 1.03-.37c1.34-2.88 2.76-5.77 4.1-8.14.17-.3.53-.42.84-.27.33.15.47.54.32.87 0 .02-.02.03-.02.04-1.32 2.35-2.73 5.2-4.05 8.05-.18.39-.01.85.37 1.03s.84.01 1.02-.37c1.33-2.87 2.75-5.74 4.08-8.1.17-.3.53-.42.84-.27.33.15.47.54.32.87 0 .02-.02.03-.02.04-1.94 3.45-4.06 7.97-5.83 11.98l-.02.04-.03.06s-.01.03-.02.04a3.472 3.472 0 0 1-2.63 1.93c-.2.03-.38.15-.48.33 0 0-.37.57-1.53 3.63-.25.68-.46 1.26-.63 1.71.19.09.37.17.56.26 2.14.99 4.27 1.99 6.41 2.99 1.67-2.7 2.52-4.25 2.52-4.25.09-.18.02-.38-.15-.49l-1.88-1.26c-.29-.21-.39-.5-.34-.77.03-.17.13-.32.13-.32 6.52-11.32 12.3-13.38 12.3-13.38.17-.06.27-.07.27-.07.14-.02.28 0 .42.06.26.13.41.4.39.67 0 0 0 .1-.09.3-1.46 3.84-4.67 10.03-7.26 14.82-1.4 2.59-2.64 4.82-3.35 6.08.68.33 1.37.65 2.06.97.01 0 .02 0 .03.02.11.05.21.09.34.09.24 0 .48-.15.59-.36.1-.05.19-.14.26-.26 3.51-6.42 7.03-12.84 10.54-19.26 1.79-3.27 3.58-6.55 5.37-9.82-.09-.18-.23-.34-.4-.45Z" class="cls-7"/><g id="Color_lines"><path d="M51.68 30.01a65.002 65.002 0 0 0-3.68-8c-.73-1.35-1.5-2.68-2.31-3.99-.69-1.12-1.36-2.32-2.2-3.34-.73-.89-1.79-1.57-2.98-1.39-1.1.17-1.8 1.08-1.85 2.17-.06 1.35.88 2.47 1.64 3.5.89 1.21 1.8 2.41 2.72 3.59 1.78 2.27 3.65 4.49 5.57 6.64a.3.3 0 0 0 .04.08c.32.55.75 1.06 1.26 1.34.11.09.22.14.33.14.36.11.75.11 1.19-.07.22-.09.36-.45.27-.67Z" style="fill:#f2a6b0"/><path d="M40.41 47.56c0-.35-.2-.68-.49-.86a.556.556 0 0 0-.24-.21c-4.65-2.17-9.42-4.08-14.29-5.7-1.96-.65-4.22-1.08-5.32 1.14-.39.8-.8 1.86-.71 2.77.1.97.84 1.51 1.74 1.72 2.42.56 4.99.65 7.47.81 2.62.16 5.24.28 7.84.65.6.09 1.2.19 1.8.31.46.09 1.13.4 1.58.16.36-.09.62-.4.63-.79ZM75.79 7.62c-.93-.18-2.12-.15-2.89.46-1.6 1.25-1.17 4.04-1.17 5.79-.02 3.14-.04 6.27-.05 9.41 0 .11.02.2.06.28-.05.36-.07.72-.03 1.05.06.46.44.81.92.7.09-.02.17-.05.24-.09.21-.04.4-.19.48-.42.87-2.5 1.63-5.04 2.29-7.6.34-1.33.65-2.66.93-4 .25-1.18.59-2.42.65-3.63.04-.96-.44-1.75-1.42-1.94Zm-2.78 2.72c.03-.17.06-.34.11-.51-.04.17-.08.34-.11.51Z" class="cls-4"/></g><path d="M102.28 75.13a2.53 2.53 0 0 1 1.56-3.22c.44-.15.89-.17 1.31-.08.08-.48.18-.96.26-1.44.15.06.29.12.44.19.33.15.72.1.92-.24.17-.29.09-.77-.24-.92-1.38-.62-2.79-1.16-4.22-1.63A2.53 2.53 0 0 1 97.42 69c-.29-.85-.1-1.75.42-2.41-1.27-.27-2.56-.48-3.85-.63.07 1.11-.59 2.17-1.69 2.55a2.53 2.53 0 0 1-3.22-1.56c-.15-.43-.16-.88-.08-1.3-.28 0-.56-.01-.85 0-1.81.03-3.61.19-5.4.45-.36.05-.56.51-.47.83.11.39.47.52.83.47.13-.02.26-.03.39-.05-.07.92-.13 1.84-.19 2.76.3-.46.73-.84 1.29-1.03a2.53 2.53 0 1 1 1.66 4.78c-1.24.43-2.58-.17-3.11-1.34-.13 1.97-.26 3.94-.38 5.92l-.42 6.64c1.24-.29 2.53.39 2.95 1.62a2.53 2.53 0 0 1-1.56 3.22c-.57.2-1.17.17-1.7-.03-.14 2.08-.28 4.16-.44 6.24-.02.3.23.57.51.65.3.26.67.38 1.07.48.57.15 1.15.29 1.72.43.14.03.28.06.42.1-.2-.23-.37-.51-.47-.81a2.53 2.53 0 1 1 4.78-1.66c.43 1.24-.17 2.57-1.33 3.11 2.27.44 4.55.78 6.85 1.01 1.3.13 2.6.22 3.91.28.36.02.67-.32.67-.67v-.08c.04-.17.07-.33.11-.5-1.24.28-2.52-.4-2.95-1.63a2.53 2.53 0 0 1 1.56-3.22c.83-.29 1.71-.11 2.36.38.16-.75.33-1.51.49-2.26.08-.35-.11-.73-.47-.83-.33-.09-.75.11-.83.47-.01.06-.03.12-.04.18h-.66s-1.97.02-3.76.03a2.53 2.53 0 0 1-4.66-.28c-.02-.06-.03-.12-.04-.18-.97-.31-1.93-.75-2.14-1.22-.38-.86.64-1.06 1.34-1.5s2.36-.44 3.32-.73c.97-.29 1.13-.84 1.38-1.25.26-.41-1.45-1.25-2.55-1.63-1.09-.38-2.34-.76-2.95-1.37-.61-.61 0-.7.44-1.4s1.57-.26 2.62-.43c1.05-.16 1.87-.24 2.44-.58.57-.34-.07-1.45-.64-1.84s-3.46-1.51-3.83-1.95c-.36-.44-.16-.7 1.06-1.13.52-.19 1.51-.21 2.57-.17 0-.02-.02-.03-.02-.05a2.53 2.53 0 1 1 4.78-1.66c.27.79.13 1.61-.31 2.25 1.25.37 3.25 1.25 4.27 1.72-.06.36.1.72.47.82.33.09.76-.11.83-.47.11-.58.21-1.17.32-1.76-.89-.15-1.67-.75-1.98-1.66Zm-14.21 7.59a2.53 2.53 0 1 1-1.66-4.78 2.53 2.53 0 1 1 1.66 4.78Z" style="fill:#f75e28"/><path d="M86.27 73.86a2.53 2.53 0 1 0-1.66-4.78c-.56.19-1 .57-1.29 1.03-.06.8-.11 1.6-.17 2.4a2.512 2.512 0 0 0 3.11 1.34ZM97.43 69a2.53 2.53 0 0 0 4.89-1.21c-1.46-.48-2.95-.88-4.46-1.2a2.5 2.5 0 0 0-.42 2.41ZM93.94 75.93a2.528 2.528 0 0 0 3.19 1.51c.53-.18.96-.53 1.25-.97a6.49 6.49 0 0 0-.63-.16c-.81-.13-2.38-.32-3.81-.39Z" class="cls-8"/><path d="M98.69 74.22a2.53 2.53 0 1 0-4.78 1.66c0 .02.02.03.02.05 1.43.06 3 .26 3.81.39.17.03.39.08.63.16.44-.64.58-1.46.31-2.25ZM86.42 77.94a2.53 2.53 0 1 0 1.66 4.78 2.53 2.53 0 1 0-1.66-4.78ZM83.74 89.91a2.53 2.53 0 0 0 1.56-3.22 2.515 2.515 0 0 0-2.95-1.62c-.1 1.55-.19 3.1-.3 4.66 0 .05 0 .1-.01.16.53.2 1.12.23 1.7.03ZM89.64 95.31a2.53 2.53 0 1 0-4.78 1.66c.11.31.27.58.47.81.99.23 1.98.45 2.97.64a2.521 2.521 0 0 0 1.33-3.11ZM98.45 93.62a2.53 2.53 0 0 0-1.56 3.22 2.531 2.531 0 0 0 2.95 1.63c.33-1.49.65-2.97.97-4.46-.65-.5-1.53-.67-2.36-.38ZM95.55 91.59a2.53 2.53 0 0 0-3.1-3.5 2.53 2.53 0 0 0-1.61 3.03c.78.25 1.56.41 1.99.44.39.03 1.51.03 2.71.03Z" class="cls-8"/><path d="M94.11 92.87c.66-.23 1.16-.7 1.44-1.28-1.2 0-2.32 0-2.71-.03-.43-.03-1.21-.19-1.99-.44.02.06.02.12.04.18a2.53 2.53 0 0 0 3.22 1.56ZM89.1 66.95a2.53 2.53 0 0 0 3.22 1.56 2.53 2.53 0 0 0 1.69-2.55c-1.65-.2-3.32-.3-4.99-.3-.08.42-.07.86.08 1.3ZM103.85 71.91a2.53 2.53 0 0 0-1.56 3.22c.31.91 1.1 1.51 1.98 1.66.31-1.65.6-3.3.9-4.95a2.55 2.55 0 0 0-1.31.08Z" class="cls-8"/><path d="M140.6 100.31c.93-2.89 4.46-15.58-1.86-25.04-5.73-8.58-11.62-2.52-11.27 2.18.13 1.72.87 4.99.39 6.88-.48 1.89-1.94 6.06-3.65 6.46-1.71.4-2.94.84-4.4 0-1.46-.84-8.37-5.88-8.74-7.15-.37-1.26-5.4-7.33-5.4-7.33l-1.13-.97-.47 2.65c-2.68-1.75-5.86-2.7-9.05-2.81-.97-.03-1.99-.03-2.95.17-.84.17-1.87.72-1.8 1.71.08 1.17 1.43 1.52 2.33 1.87.49.19 1.03.37 1.46.58.37.17.74.37.97.68-.06-.08.08.18.03.06.01.04.03.08.03.12v.02-.02c0 .02-.02.05-.02.05-.01.02-.07.11-.1.13-.33.27-.82.32-1.25.32-1.06.02-2.13-.2-3.14.24-.84.37-1.63 1.17-1.47 2.15.19 1.13 1.47 1.44 2.38 1.75l1.68.58c.45.16.87.27 1.25.5.05.03.2.13.17.11.03.02.11.11.13.13.01.02.03.06.03.04 0 .01 0 .03.01.04 0 .02-.01.06-.01.06-.14.32-.58.47-.89.55-.91.24-1.89.12-2.82.32-.85.18-1.8.74-2.18 1.56-1.1 2.34 2.64 3.04 4.17 3.26 2.19.32 4.37.2 6.57.08 1-.05 2.03-.08 3.01.16.92.23 1.68.74 2.31 1.44s1.13 1.54 1.62 2.34.95 1.62 1.4 2.44c1.67 3.05 3.21 6.15 5.56 8.75 1.26 1.39 2.68 2.68 4.29 3.64 1.57.94 3.3 1.62 5.08 2.03s3.63.56 5.45.32 3.4-.84 4.89-1.81 2.94-2.28 4.13-3.7 2.19-2.9 2.93-4.55c.32-.72.6-1.46.78-2.23.09-.4-.14-.68-.44-.79ZM95.09 80.36s0-.03 0 0Zm0 0Zm-.36 5.98Zm.03.11s0 .01 0 0Z" class="cls-15"/></g><g id="Outline"><path d="M28.86 91.86c-.29-.17-5.65 8.23-11.98 18.78S5.65 129.87 5.94 130.05c.29.17 5.65-8.23 11.98-18.78s11.23-19.23 10.94-19.41Z" style="fill:#c99b40"/><path d="M56.44 76.92c.03.14.34.25.9.15.54-.1 1.33-.45 2.04-1.22.7-.75 1.34-1.99 1.25-3.53-.06-.75-.29-1.52-.71-2.22-.2-.35-.46-.68-.75-.99l-.23-.22-.11-.1c-.07-.06-.03-.03-.04-.04s0 0-.01 0-.04.06 0 .01l.05-.08c.07-.1.13-.21.18-.33.11-.22.19-.45.25-.69.11-.48.12-.99-.02-1.49-.26-.93-.88-1.58-1.51-1.98-1.27-.81-2.68-.7-3.56-.39-.91.31-1.48.75-1.84 1.08-.35.34-.49.6-.41.72.08.13.36.12.81.04.45-.08 1.07-.25 1.77-.29.7-.05 1.45.1 2.02.58.27.23.45.52.49.79a.917.917 0 0 1-.13.55c-.02.03-.04.07-.06.09l-.02.02s-.06.09-.09.11l-.25.14c-.07.39-.14.79-.22 1.19v.02-.02.05c-.06.39-.12.77-.18 1.14l.58.22c.08.04.22.07.26.11l.17.12.17.12.09.06.04.03.14.12c.17.17.34.35.47.54.28.39.44.81.53 1.22.16.82-.06 1.66-.4 2.3-.7 1.3-1.72 1.72-1.63 2.05ZM126.86 71.76c-.06.06-.05.2.02.42.04.11.09.23.15.38.05.15.12.32.19.51.28.75.61 1.86.59 3.23-.02 1.35-.37 3-1.39 4.37-.99 1.34-2.72 2.37-4.75 2.67-2.04.34-4.08.03-5.83-.57-1.77-.61-3.31-1.45-4.59-2.2-2.55-1.53-4.19-2.55-4.4-2.27-.1.13.16.55.74 1.2.58.64 1.47 1.52 2.69 2.49 1.22.97 2.79 2.05 4.77 2.88 1.99.82 4.46 1.3 7.02.87 2.56-.38 4.93-1.81 6.2-3.81 1.28-1.98 1.48-4.12 1.26-5.77-.23-1.67-.9-2.9-1.49-3.59a6.13 6.13 0 0 0-.42-.44c-.13-.12-.26-.2-.36-.27-.21-.13-.34-.17-.4-.11ZM138.15 110.38c-.16-.09-.56.37-1.37 1.02-.81.64-2.08 1.45-3.85 1.86-.88.21-1.86.34-2.91.29-1.05-.04-2.18-.24-3.33-.59-2.31-.7-4.71-2.03-7.08-3.7-2.37-1.66-4.44-3.5-6.19-5.31a48.18 48.18 0 0 1-4.29-5.16c-2.24-3.12-3.35-5.28-3.69-5.14-.28.11.28 2.55 2.23 6.06a34.62 34.62 0 0 0 4.08 5.75c1.76 2 3.92 4.02 6.45 5.79 2.51 1.77 5.19 3.19 7.89 3.87 1.35.34 2.68.49 3.93.44 1.26-.04 2.41-.31 3.41-.67 2.01-.72 3.34-1.92 4.03-2.86.69-.96.82-1.61.69-1.68Z" class="cls-14"/><path d="M137.31 178.84c-.67-.04-1.41 3.35-1.64 7.56-.23 4.21.13 7.65.8 7.69.67.04 1.41-3.35 1.64-7.56.23-4.21-.13-7.65-.8-7.69ZM115.98 139.92c-.67-.01-1.4 10.35-1.63 23.14-.23 12.79.13 23.17.81 23.18.67.01 1.4-10.35 1.63-23.14.23-12.79-.13-23.17-.81-23.18ZM161.96 129.16c-.7.12 1.26 14.09 2.3 31.41 1.1 17.32.89 31.42 1.6 31.45.63.04 1.94-14.13.84-31.6-1.05-17.48-4.12-31.38-4.74-31.26ZM187.77 154.4c-.68.21 1.18 7.54 2.3 16.72 1.17 9.17 1.17 16.73 1.88 16.77.32.02.75-1.87.96-4.97.21-3.09.17-7.4-.42-12.1-.59-4.7-1.6-8.89-2.57-11.84-.97-2.95-1.84-4.68-2.15-4.58Z" class="cls-7"/></g></svg>