<svg xmlns="http://www.w3.org/2000/svg" viewBox="0 0 200 161.86"><defs><style>.cls-2{fill:none}.cls-3{fill:#fb530c}.cls-5{fill:#f70}.cls-8{fill:#ffb1c3}.cls-9{fill:#ff9cae}.cls-12{fill:#fff}.cls-13{fill:#f7f7f7}.cls-2{stroke:#b9d9dd;stroke-miterlimit:10;stroke-width:3px}.cls-14{fill:#fcbe0c}.cls-15{fill:#603b5d}</style></defs><path d="M193.89 110c-3.27-15.49-8.93-30.54-16.56-44.41-2.28-4.14-4.72-9.16-7.83-13.25-1.72-5.04-4.19-9.84-8.56-13.05-7.22-5.28-17.25-3.82-25.63-3.51-20.82.75-41.57 2.75-62.17 5.87a528.56 528.56 0 0 0-30.55 5.56c-8.34 1.77-16.37 3.53-21.09 11.32-4.43 7.31-5.1 16.7-6.59 24.93-1.85 10.18-3.71 20.37-5.56 30.55-1.04 5.69-2.13 11.38-3.11 17.09-.83 4.88-1.49 9.85.16 14.64 2.32 6.73 9.82 11.26 16.5 8.93.25.12.48.24.74.35 6.7 2.64 15.7 1.86 22.79 2.1 8.65.3 17.3.33 25.95.09 17.42-.48 34.8-2.09 52.04-4.7 16.79-2.53 33.89-5.61 49.86-11.51 6.18-2.28 14.52-4.78 18.83-10.06 4.75-5.81 2.18-14.33.79-20.92z" style="fill:#575655" id="BG_Strong"/><g id="Illustrations"><path d="M76.93 91.82c-11.26 8.72-19.99 24.51-6.07 41.73 13.91 17.22 61.72 21.75 84.02 7.73 22.3-14.02 22.01-34.34 9.4-47.91-12.61-13.58-45.73-18.73-65.75-12.25-15.86 5.13-21.6 10.71-21.6 10.71z" style="fill:#d0e7e7"/><path class="cls-12" d="M98.01 94.43c-13.06 7.33-18.77 14.72-13.97 27.86 4.81 13.14 23.35 18 43.23 15.79s29.33-12.25 30.62-23.18c1.29-10.93-8.98-18.88-22.23-22.52-13.25-3.64-26.17-4.38-37.65 2.06z"/><path class="cls-15" d="M29.22 91.49c2.54 6.31 5.7 14.55 7.64 16.97s6.06 1.45 7.64 3.39c1.58 1.94 7.61 14.79 10.35 21.82 2.74 7.03 7.68 19.76 10.24 20.25s4.11-2.3 2.48-5.46-13.14-26.55-15.32-30.31-4.02-7.4-3.52-8.73 2.05-1.21 0-6.79-6.54-14.49-7.41-15.27-.31 4.16 2.12 10.94 2.52 7.84 1.75 7.84-5.03-11.23-6.97-14.9c-1.94-3.68-2.03-3.97-2.61-2.71s5.71 15.1 5.81 16.55.1 3.97-1.55.58c-1.65-3.39-6.58-12.39-7.94-14.32s-3.31-1.35-2.71.15zM175.17 83.51c1.53 11.8 8.03 55.65 8.32 58.74s4.65 3.1 5.71 2.42c1.06-.68 1.45-2.81 0-7.84-1.45-5.03-6.58-23.03-5.71-25.74s2.03-3.1 1.74-6.29-4.65-18.39-6.58-22.16-3.93-2.58-3.48.87z"/><path d="M122.84 50.92c0 4.87-.05 8.25-.15 8.38-.36.47-59.27 23.04-60.82 23.4-1.55.35-16.4-5.35-17.7-6.18-1.3-.83-2.49-.83-2.85-2.26-.12-.47-.14-3.7-.13-7.96.03-8.56.21-21.26.13-23.88-.06-2.01-.06-5.81-.04-9.03.01-3.05.04-5.58.04-5.58.36-1.3 1.94-2.02 2.28-2.14.34-.12 59.49-17.23 59.49-17.23s18.29 2.26 18.77 2.85c.47.59.83 2.73.83 2.73s.01 1.57.03 4.12c.05 7.39.15 23.03.12 32.76z" style="fill:#b3dce0"/><path class="cls-9" d="M131.95 56.09c-3.1 13.31-14.63 15.87-18.43 15.81-.13 0-.26 0-.37-.01-3.36-.24-14.46-3.8-17.55-4.51s-6.53-1.66-9.74-5.23c-3.21-3.56-6.18-12.23-2.02-23.28s15.44-12 18.88-12.35c0 0 5.42 1.4 11.13 2.87v-7.86s5.75-2.21 8.85-3.36l.05 13.51c.42.11.82.21 1.19.3 6.5 1.66 11.2 10.33 7.99 24.12z"/><path d="M131.95 56.09c-3.1 13.32-14.63 15.87-18.43 15.82-1.75-.77-3.43-1.87-4.73-3.38-.16-.18-.31-.37-.45-.56-4.01-5.35-4.9-10.21-3.14-18.76 1.52-7.42 6.93-14.94 14.92-16.8 1.22-.29 2.5-.44 3.84-.44 6.5 1.66 11.2 10.33 7.99 24.11z" style="fill:#a8cccd"/><path class="cls-15" d="M126.97 52.17c-1.31 7.13-5.4 11.76-11.73 14.73-2.34 1.1-4.53 1.52-6.44 1.63-.16-.18-.31-.37-.45-.56-4.01-5.35-4.9-10.21-3.14-18.76 1.52-7.42 6.93-14.94 14.92-16.8 5.98 4.27 8.03 13.29 6.84 19.76z"/><path class="cls-13" d="M119.96 37.09c-4.14.38-6.94 5.23-3.83 7.84 3.12 2.61 6.74.71 6.72-3.21-.02-3.92-1.76-4.74-2.89-4.63z"/><path class="cls-14" d="M108.82 16.7c-.06-.17-11.59-7.95-11.59-7.95L84.98 6.48l-16.26 5.01s-6.71 8.99-6.77 9.27 17.79 5.68 17.79 5.68l29.09-9.76z"/><path class="cls-13" d="M100.72 19.25c.05-.02-3.76-5.55-4.16-5.5s-8.97 3.05-8.97 3.05l2.6 6.12 10.53-3.67z"/><path class="cls-15" d="M53.6 21.98c-.26.4-.03 3.27 0 3.84s1.92 2.18 9.15 2.41c7.23.23 10.84-1.55 11.19-2.47s.17-4.01.17-4.01l-11.36-.35-9.15.57z"/><path d="M62.75 18.76c-7.53.19-9.97 2.5-8.92 3.95s6.41 2.31 11.65 1.96c5.24-.34 9.72-1.42 8.63-2.92-1.09-1.5-6.83-3.11-11.36-2.99z" style="fill:#b9d9dd"/><path class="cls-12" d="M102.87 54.28v-.02.02zM102.83 54.32l-.01.01.01-.01zM102.79 54.32h.02v-.02s-.02.02-.03.01zM102.76 54.26s0 .01 0 0zM102.77 54.26s0-.01 0 0zM102.75 54.26v-.03.03zM102.74 54.29zM102.75 54.27s0 .03 0 0zM102.76 54.28v.02c.01 0 0-.03 0-.02zM102.79 54.36zM102.71 54.25v.03-.03zM102.72 54.28zM102.74 54.32l.01-.02-.01.02zM102.69 54.25v-.02.03-.01zM102.68 54.25v-.03s0 .01-.01.02h.01zM102.66 54.26v-.01.01zM102.7 54.28v-.02.02zM102.7 54.28h-.01.01zM102.7 54.28zM102.73 54.31s-.01.02 0 .04v-.04zM102.71 54.31v-.01zM102.7 54.31h.01-.01zM102.67 54.28v.01h.01v-.02zM102.68 54.28zM102.63 54.29zM102.67 54.3zM102.65 54.27v.01-.01zM102.68 54.28zM102.68 54.28v.01zM102.62 54.41s0-.03.01-.01v-.1.03s.01.02 0 .04l-.01-.02c0 .02-.01.03 0 .06zM102.64 54.29v-.03.02h.01zM102.66 54.29v.05-.02c-.01 0 0-.01 0-.02s-.01 0-.01 0h.01zM102.72 54.39zM102.71 54.37s0-.01 0 0v.02-.02l-.01-.03v.05zM102.68 54.34h-.01v.03-.03zM102.63 54.28v-.02l-.01.03.01-.01zM102.61 54.28v-.02.02zM101.23 54.33zM101.29 54.35zM102.29 54.27v-.02.02zM101.77 54.34l.01-.01h-.01zM101.75 54.42h-.01.01zM100.92 54.27v.02-.02zM102.48 54.29v-.01.01zM101.3 54.14zM102.46 54.28s0-.01-.01 0zM99.86 53.82zM99.68 53.48h.01-.01zM102.56 54.27zM102.57 54.35zM102.43 54.39zM102.57 54.28zM102.56 54.27zM102.56 54.27v.01-.01zM100.44 54.03zM102.15 54.47l.01-.01h-.01v.01z"/><path class="cls-12" d="M102.13 54.48s.02-.02.03-.01v-.06l-.03.07z"/><path class="cls-12" d="M101.1 54.31v.02s-.03 0-.02.04c.02-.06.07.01.09-.05v.02c.02.03.03-.04.06-.02 0 0 .01.02 0 .02h.07s.02-.02.03-.02v.01h.02s-.02.02-.03.01c0 .06.02-.01.05.03h-.02l.04.06c0-.01-.03-.06 0-.07h.03c0 .02 0 .02.02.02v.03s.01-.02.02-.03c.02 0 .02.03.02.05.03.01-.01-.04.02-.04.02.02.04 0 .07 0 .01.01 0 .02 0 .03l.02-.02v.01c.01 0 0-.03.03-.03.01-.03.03.05.06.02v.03c.04-.02.03-.01.06-.04l.02.02s.01-.05.03-.06c0-.01 0-.02-.01-.03h.03v.06-.02s-.03.03-.03.05h.01v.01h.01v.03-.01l.04.02s.06-.07.11-.08c-.01.02 0 .04-.01.06 0-.03-.04 0-.06 0 .01 0 0 .02 0 .02l.04-.02s0 .02.02.03c0-.05.03-.03.05-.04 0 .01 0 .03-.03.02.02.04.03-.05.05-.02H102c.01-.01.04 0 .03.01s.1 0 .11-.03c0 0 0 .04-.01.05l.07-.12s0 .11-.02.13c0 0 .02.01.03 0v-.05c.02.04.01.02.04.05 0 0 0-.06.02-.06v.06l.02-.05v.06h.01s.02-.08.03-.08v.07c0-.03.02-.12.03-.14 0 .04-.03.12-.04.15v.04h.02s.02-.02.02-.04l-.02.03s.02-.08.03-.08v.06c0-.01.01-.02.01-.01v.02s0-.04.01-.01v.02-.16s.01.03.02.05v.09-.02.02c0-.03.01 0 0-.03h.01c0-.02 0-.07.02-.07v.02c.01 0 .02.02.03.02v.03-.02.04c0-.02.01-.02.02-.04 0-.03-.01 0-.02 0 0-.04.01-.08.02-.09.01 0 0 .02 0 .02.02 0 .02-.07.03-.04v.06s-.01-.02-.02-.01 0 .03-.01.02c0 .02.03 0 .05.02v-.06c0-.01.01-.03.02-.02v.03s0-.02 0 0c0-.01.01.04.02 0v-.02s0-.04.02-.03v-.03c0 .04-.02 0-.01.04 0-.04 0-.02-.02-.05v.02c0 .02-.01.02-.02.03v-.02.02s-.02-.03 0-.04-.01-.02-.02 0c0 0-.01.02 0 0h-.01c-.01 0-.03.03-.04 0 0 0 0 .01-.02 0v-.02s-.02-.02-.02 0c0-.05-.03-.01-.04-.02v.02s-.01 0-.02.01v.02s-.02-.02-.03-.01c-.01-.05-.03.03-.04 0v-.01.01-.02.04c0-.03 0 .01-.01-.03 0 .02-.01.01-.03.05h-.03v-.03l-.03.03c-.01-.02-.02-.03 0-.05-.03.03-.03 0-.06.04v-.02s-.02.02-.03 0c-.02-.03-.11-.01-.16-.05 0 .05-.02-.03-.03.01v-.03c-.03 0-.04-.02-.06 0v-.02h-.01l.01-.01c-.03 0-.04.04-.04.07-.01-.02-.02-.02-.03 0 0-.01-.01-.03 0-.03 0 0-.06-.03-.06 0h-.07s-.02.01-.04.01-.02 0-.06-.03v.02s-.03-.03-.06-.02-.02-.05-.04-.06h.01c-.03-.03 0 .03-.04.03 0-.02.01-.04 0-.04 0-.01-.06.04-.08 0v.03c-.02 0-.04-.05-.06-.02-.02 0-.05 0-.06.02 0-.07-.09.01-.08-.05h-.04v-.01c-.03-.01-.04 0-.05.01v-.01c-.03-.02-.04-.02-.08 0v-.02s-.04-.05-.09-.04c-.05.01-.08-.09-.12-.02h-.03s-.02.04 0 .06c-.02 0-.03-.04 0-.03s-.04-.03-.03-.05c-.07-.02-.13-.07-.19-.1v.03l-.03-.01s0-.03.02-.02c0-.02-.03 0-.04 0-.03-.03.03-.03.02-.03h-.01c-.02 0-.02.02-.04.01v-.02h-.03v.01c-.02 0-.03-.01-.02.02 0-.05-.1-.06-.1-.08-.02 0-.04 0-.06-.01 0 0 0 .03-.02.02.03-.05-.02-.04-.02-.08 0 .03-.05-.02-.05.03-.01-.01 0-.02 0-.04-.05 0-.07-.05-.12-.07 0 0 0 .02-.02.03v-.05s-.03.04-.04 0v.02c-.06-.08-.19-.07-.23-.18 0 .02 0 .02-.01.01 0 0-.01.02-.01.03l-.02-.05s-.04-.02-.06 0h.01s-.02.08-.04.11c.04-.02.02.07.07.05 0 .01-.01 0-.01.02.02-.01.03 0 .04 0s.06.05.1.09v-.02l.02.02c.03-.02-.03-.02 0-.04 0 .05.08.04.06.09.02 0 0-.02.02-.01s.01 0 .01 0v.04h-.01c0 .02.04.02.05.02v-.02s.09.06.15.06.02.01.07.02.02 0 .03 0c-.01 0 0 .03 0 .03.05 0 .03 0 .07-.03v.02s.02-.02.04-.01c-.02 0 0 .03-.02.04.03.05.07 0 .07.05.04-.03-.03-.04-.01-.04 0-.02.03-.02.04-.01.01 0 0 .06.03.08 0 .02.03 0 .04.02.02-.02.02 0 .03-.02h-.03s.05-.04.07 0l-.02.01c0 .01.02 0 .02.01-.02.03-.04 0-.07 0 0 .02.04 0 .02.02.03-.04.03.02.07 0v.02h.01l-.02.02s.03.03.05.03c-.04-.01 0-.03 0-.05.06 0 0 .06.06.07 0 0-.02-.02 0-.03 0 0 .02.02.02.03.04 0 0-.02.02-.03 0 .03.02 0 .04 0v.02s.02-.04.05 0l-.02.02h.02l-.01.02h.05c0-.02.02-.04.03-.03 0 .02-.01.02.01.02 0 .01-.02.02-.03 0 0 0 0 .01-.01.02 0 .02.03.01.04.02l.04-.02v.02h.03c0 .02-.01.03-.03.04h.04s.01.02 0 .02c.02.02.06-.02.08 0h.01c.02.01.04.04.07.02v.03s0-.04.04-.04c.03 0 0 .03 0 .04.02-.01.05-.04.07 0h-.02zm.27.05s-.02.01-.02 0c.01-.02.01-.01.02 0zm.43.02h-.02.02zm.73-.09zm.01.01zm-2.12-.43zM101.75 54.41v-.01.01zM100.92 54.27zM102.39 54.48v-.01.01zM102.59 54.26v.01-.01zM102.64 54.4zM102.6 54.33s0 .01 0 0 0-.02 0 0zM102.61 54.34c0-.01 0 0 0 0z"/><path class="cls-12" d="M102.55 54.29v-.02c0-.02-.01.03 0 .02zM102.6 54.39v-.02.02zM102.56 54.38zM102.57 54.38zM102.59 54.4l-.01-.01.01.01zM102.49 54.37v.02-.02zM102.51 54.43v-.02.03-.01zM102.49 54.44s-.01.02 0 .02v-.02zM102.38 54.4v-.04.04zM102.27 54.5s0-.03.01-.01v-.02.03zM102.28 54.47zM99.64 53.44v-.02.02zM99.6 53.45v-.03.02s.01 0 0 0zM101.4 54.42s0-.02-.01-.02v.02zM101.21 54.36v-.03.03zM101.03 54.35h.02c-.02 0-.02-.03-.02 0zM106.93 40.67v-.02.02zM106.89 40.72l-.01.02.01-.02zM106.84 40.74h.03v-.02c-.01 0-.02.03-.03.02zM106.79 40.68s0 .01 0 0zM106.8 40.68zM106.77 40.69v-.02.02zM106.77 40.72zM106.78 40.7s0 .03 0 0zM106.79 40.7s.01 0 0 .02c.01 0 0-.03 0-.02zM106.84 40.77s-.01 0 0 0zM106.73 40.69v.03s0-.02-.01-.03zM106.73 40.71zM106.78 40.75l.01-.03-.01.03zM106.7 40.69v-.01l-.01.02.01-.01z"/><path class="cls-12" d="M106.68 40.7v-.03.03h.02zM106.66 40.71v-.02.02zM106.72 40.73s0-.01-.01-.02v.02h.01zM106.71 40.73zM106.72 40.73zM106.75 40.74v.04-.04zM106.73 40.75v-.02.02zM106.72 40.76l.01-.01h-.01v.01zM106.67 40.73s0 .01-.01.01h.02v-.02zM106.69 40.73zM106.62 40.75zM106.68 40.75zM106.64 40.72s0-.01 0 0zM106.69 40.73zM106.69 40.73v.01zM106.63 40.87s0-.04.02-.02c0-.01-.01-.07-.02-.1v.03s.02.02.02.04c0 .01-.01 0-.02-.01v.07z"/><path class="cls-12" d="M106.64 40.75s0-.01-.02-.02v.02h.02z"/><path class="cls-12" d="M106.65 40.74v.05c.01 0 0-.02 0-.03-.02 0 0-.01-.01-.02h-.02s0 .01.02.01zM106.76 40.82zM106.75 40.81s0-.01 0 0v.01-.02s-.02-.02-.02-.03c0 .02.01.03.02.04zM106.7 40.78h-.01l.01.03v-.03zM106.62 40.74l-.01-.02v.03l.01-.01zM106.6 40.74v-.01l-.01.01h.01zM105.09 40.9zM105.15 40.91zM106.16 40.8s-.01-.04-.01-.02v.02h.01zM105.63 40.89v-.01h-.01zM105.61 40.97h-.01.01zM104.78 40.82l-.02.02s.01 0 .02-.02zM106.42 40.78s-.01 0-.01-.01c0 .01.01.03.01.01zM105.16 40.7zM106.39 40.77h.01s-.01-.01-.01 0zM103.77 40.24zM103.66 39.87h.01-.01zM106.52 40.75zM106.56 40.82zM106.36 40.9zM106.53 40.76zM106.53 40.75zM106.52 40.75h.01-.01zM104.32 40.54c-.01 0 0 0 0 0zM106.02 41zM106 41.01s.02-.02.03-.02v-.06L106 41z"/><path class="cls-12" d="M104.95 40.86v.02s-.03 0-.02.03c.02-.06.07.02.09-.04v.02c.02.03.03-.04.06-.02 0 0 .01.02 0 .02h.07s.02-.02.03-.02v.01h.02s-.02.02-.03.01c0 .06.02-.01.05.03h-.02l.04.06c0-.01-.03-.06 0-.07h.03c0 .02 0 .02.02.02v.03s.01-.02.02-.03c.02 0 .02.03.02.05.03 0-.01-.04.02-.04.02.01.04 0 .07 0 .01.01 0 .02 0 .03l.02-.02v.01c.01 0 0-.03.03-.03 0-.03.03.05.06.02v.03c.04-.02.03-.01.06-.04l.02.02s.01-.05.03-.06c0-.01 0-.02-.01-.02h.03v.05-.02s-.03.03-.03.05h.01v.01h.01V41v-.01l.04.02s.06-.07.1-.08c-.01.02 0 .04 0 .06-.01-.03-.04 0-.06 0 .01 0 0 .02 0 .02l.04-.02s0 .02.02.03c0-.05.03-.03.05-.04 0 .01 0 .03-.03.03.02.03.03-.05.05-.02.01-.01.04 0 .03.01s.1 0 .11-.03v.05l.06-.13s.02.11-.01.13c0 0 .02.01.03 0 0 0-.01-.05 0-.05.02.04.01.02.04.05 0 0 0-.06.01-.06v.06l.02-.05v.06h.02s.02-.08.04-.08v.07c0-.03.01-.12.03-.14s.01 0 .01 0c0 .04-.02.12-.03.15 0 .01 0 .02.01.02v.02h.03s.02-.02.02-.05l-.03.03s.01-.09.03-.08v.06c0-.01.02-.02.02-.01v.02s0-.04.02-.01l.01.02c0-.03-.02-.14-.02-.16 0 0 .02.03.03.05v.09-.02.02c0-.03.02 0 0-.03h.02c0-.02 0-.07.01-.08v.02c.02 0 .03.01.05.01 0 0 .01.01 0 .03v-.02c.01.02-.01 0 0 .04 0-.02.01-.03.02-.04 0-.03-.02 0-.02 0 0-.04 0-.08.02-.1.01-.01 0 .02.01.02.03 0 .01-.07.04-.04.01.02 0 .05.01.06-.01.01-.02-.01-.03-.01h.01s0 .03-.01.02c.01.02.05 0 .07.01v-.06c0-.01.01-.04.03-.03v.03s0-.01 0 0c0-.01.02.03.02 0v-.02s0-.05.01-.04c0-.03 0 0-.01-.03.01.04-.03 0 0 .04-.01-.03-.02-.01-.03-.04v.02c0 .02-.02.02-.02.03v-.02.02s-.02-.03-.01-.04h-.01s-.02-.01-.02 0c0 0-.01.02 0 0h-.02c-.02 0-.03.04-.06 0 0 0-.01.01-.02 0v-.02s-.03-.01-.03 0c-.01-.05-.04 0-.05-.01v.02s-.02 0-.03.02v.02s-.02-.01-.04-.01c-.02-.04-.04.03-.06 0h-.01v-.01.01h-.01v-.02.04c0-.03-.01.01-.02-.02 0 .02-.02.01-.03.05h-.03v-.03l-.03.04c-.01-.02-.02-.03 0-.05-.03.03-.03.01-.05.04v-.02s-.02.02-.03 0c-.02-.03-.11 0-.16-.04 0 .05-.02-.03-.03.01v-.03c-.03 0-.04-.02-.06 0v-.02h-.01v-.01c-.03 0-.04.04-.04.07-.01-.02-.02-.02-.03 0 0-.01-.01-.02 0-.03-.01 0-.06-.02-.06 0h-.07s-.02.01-.04.01-.02 0-.06-.03v.02s-.03-.03-.06-.02-.02-.06-.03-.06h.01c-.03-.03 0 .03-.04.03 0-.02.01-.04 0-.04 0-.01-.06.04-.07 0v.03c-.02 0-.04-.05-.06-.02-.02 0-.05 0-.06.02 0-.07-.09 0-.07-.06H105v-.01c-.02-.01-.04 0-.05.01v-.01c-.03-.03-.04-.02-.08 0v-.02s-.04-.05-.08-.04c-.05 0-.07-.09-.12-.03h-.03s-.02.04-.01.05c-.02 0-.03-.04 0-.03s-.04-.03-.02-.05c-.07-.03-.12-.08-.18-.12v.03l-.03-.01s0-.03.02-.02c0-.02-.03 0-.04 0-.02-.03.03-.03.02-.03h-.01c-.02 0-.02.02-.04 0v-.02s-.02-.01-.02-.02v.03s-.03-.02-.03.02c0-.05-.09-.07-.09-.09-.03 0-.04 0-.06-.02 0 0-.01.03-.03.02.04-.04-.02-.04 0-.09 0 .03-.05-.03-.05.02-.01-.01.01-.02.01-.04-.05 0-.06-.06-.1-.09 0 0 0 .02-.02.02v-.05s-.03.03-.03 0c0 0 0 .02-.01.01-.05-.09-.17-.1-.19-.22 0 .02 0 .01-.02 0l-.02.02v-.05s-.04-.03-.06-.01h.01s-.04.07-.07.1c.04-.01 0 .08.06.06 0 .01-.01 0-.02.02.02 0 .03 0 .04.02s.04.06.08.11v-.02l.02.02c.03-.01-.03-.02 0-.04-.02.04.07.06.04.1.01.01.01-.02.03 0s.01 0 .01 0v.04h-.01c0 .02.04.03.04.03v-.02s.08.07.14.08.02.02.06.04.02 0 .03 0c-.02 0 0 .03-.01.03.05 0 .03 0 .07-.02v.02s.02-.01.04 0c-.02 0 0 .03-.03.03.02.05.08 0 .07.06.04-.03-.02-.04 0-.04 0-.02.03-.02.04 0 .01 0 0 .06.02.08 0 .02.03 0 .04.02.02-.02.02.01.04-.02h-.03s.06-.04.07 0c0 0-.02 0-.03.01 0 .01.02 0 .02.02-.02.03-.04-.01-.07 0 0 .02.05 0 .02.02.04-.04.03.02.07 0v.02h.01l-.02.02s.02.04.05.03c-.04-.02 0-.03 0-.05.06 0 0 .06.05.08 0 0-.02-.02 0-.03 0 0 .02.02.02.03.04.01 0-.02.02-.03 0 .03.02 0 .04 0v.02s.02-.04.05 0l-.03.02h.02l-.01.02c.03 0 .03 0 .05.01 0-.02.02-.03.03-.03 0 .02-.01.02.01.02-.01 0-.02.02-.03 0 0 0-.01 0-.01.02s.03.02.04.02h.05-.01.03c0 .02-.02.03-.03.03h.04v.02c.02.02.06-.01.08 0h.01c.02.01.04.04.07.03v.03s0-.04.04-.04c.03 0 0 .03 0 .04.02-.01.05-.03.07 0h-.02zm.28.06s-.02.01-.02 0c.01-.02.01 0 .02 0zm.44.02h-.02.02zm.82-.17zm.01.01zm-2.18-.41zM105.61 40.96v-.01.01zM104.78 40.82v-.01.01zM106.32 40.99v-.01.01zM106.56 40.73v.01-.01zM106.66 40.85z"/><path class="cls-12" d="M106.58 40.8s0 .01.01 0 0-.02-.01 0zM106.6 40.81c0-.01 0 0 0 0zM106.51 40.77v-.02c0-.02-.01.03 0 .02zM106.6 40.86l-.01-.02v.02h.01zM106.55 40.85h.01-.01zM106.56 40.85zM106.59 40.87l-.01-.01h-.01l.02.01zM106.45 40.86v.02-.02zM106.49 40.92v-.02.03-.01zM106.46 40.93s-.01.02 0 .02v-.02zM106.29 40.91h.01l-.01-.04v.04zM106.16 41.03s0-.03.01-.02v-.02c0 .01-.01 0 0 .03zM106.16 40.99zM103.64 39.82l-.01-.02v.02h.01zM103.59 39.82l.02-.02h-.03v.02zM105.26 40.99s0-.02-.01-.02v.02zM105.06 40.92h.01v-.03l-.01.03zM104.88 40.9h.02c-.02 0-.02-.03-.02 0zM79.55 25.52s.03.02.04.02c0-.04-.05-.02-.04-.02zM79.53 25.13l.01.01-.03-.06.02.05zM79.58 24.78c-.07.02 0 .13-.04.19h-.02l.05.04c0-.08-.01-.18.01-.23zM79.74 24.61s-.01-.04-.01.04v-.04zM79.74 24.65s.02-.02 0 0zM79.75 24.48v.05s.04-.05.05-.03c0-.05-.02-.04-.05-.02zM79.71 24.42v.03s.02 0 0-.03zM79.73 24.51v-.06s-.04 0 0 .03c-.02 0 0 0 0 .03zM79.71 24.54s-.03.06-.05 0c0 .09.04.09.05 0zM79.52 24.75l-.02.03.02.03s.03-.07 0-.07zM79.83 24.18s-.04.01-.06.01v.04s.04-.05.06-.05zM79.77 24.19v-.06s-.02.06 0 .06zM79.64 24.4l.04.1-.04-.11v.01zM79.86 23.97l.03.04-.04-.06.01.02zM79.88 23.83s.05-.02.06 0c0-.04-.02-.07-.03-.1 0 .03 0 .06-.03.1zM79.88 23.68s.01.03.02.05c0-.02 0-.03-.02-.05zM79.78 24.04s.03 0 .04-.04l-.04.02v.02zM79.78 24.02v-.05s0 .02-.01.05zM79.78 24.05zM79.7 24.27s-.03-.1-.07-.05c.02.03.05 0 .07.05zM79.73 24.07l-.02.06h.03l-.02-.07zM79.72 24.04l.01.03v-.02l-.01-.01zM79.83 23.77v-.09c-.01.03-.02.06-.03.1.01 0 .03.02.03-.01zM79.8 23.89zM79.87 23.39h-.01.01zM79.79 23.79v.06-.06zM79.88 23.59s-.02.03-.03.04c.01-.01.04-.03.03-.04zM79.82 23.88zM79.82 23.88l-.02-.04v.04h.01zM79.65 23.26s.06.08.01.13c.02.06.14.04.21 0-.01 0-.03 0-.04-.07-.02.02-.06.12-.09.07 0-.08.02-.06.05-.09-.05.02-.05-.1-.11-.1v.07s0-.03-.02 0zM79.84 23.5v.02s.03-.04.06-.07c-.01-.04-.02-.05-.03-.06l-.02.11z"/><path class="cls-12" d="M79.83 23.63s-.04-.08-.09-.05c0 .07.02.05.03.1 0-.11.02.03.05-.04v.06c0-.02.02-.04.03-.05s0 0-.01 0c.01-.03.01 0 .01 0v-.11c0 .02-.01.05-.02.1zM79.56 24.15s0-.01 0 0zM79.59 24.11s.02.02.01.04-.02 0-.03 0c0 .02.02.06.04.01.02-.05.08-.1.08-.09-.04 0-.06.02-.1.04zM79.7 23.86v-.09l-.04.04h.02c-.02.05.01.04.02.05zM79.89 23.38l.04.02-.05-.07.01.05zM79.91 23.26l.03.01-.02-.04-.01.03zM80.28 17.9v-.02.02zM80.26 18.01h.02-.02zM80.35 20.32s.1-.07.06-.07h-.04s0 .06-.02.07zM80.32 18.96h-.01l.03.03s-.01-.02-.02-.03zM80.17 18.92l.03-.03s-.02.01-.03.03zM80.33 17.28l-.04-.02s.02.02.04.02zM80.08 22.03l.04-.08c-.03.04-.07.07-.04.08zM80.68 18s-.01-.02-.02-.02c0 .01.01.02.02.02zM80.13 21.85s0 .01-.01.02v.08c.02-.03.04-.06.01-.1zM80.71 15.05zM81.19 14.46v.03-.03zM80 22.78zM79.83 22.88s0-.01-.02-.01c0 0 .01 0 .02.01zM79.93 21.56zM79.97 22.82s.01-.02.02-.03c0 0 0 .01-.02.03zM79.99 22.81v.02s.01 0 0-.02zM80 22.74s0 .03-.01.04v-.04zM80.63 16.26c-.01-.02-.01-.01 0 0zM80.04 19.71v.01-.01zM80.02 19.66s.04.04.02.06h.11l-.14-.06z"/><path class="cls-12" d="m80.31 17.63-.04.03c-.05-.05-.03-.08-.08-.05.12.02 0 .14.11.17l-.03.02v-.02c-.06.04.08.05.05.11-.01.02-.03.03-.04.02l.02.05h-.02v.07c.02.01.04.04.05.05-.02.02-.01-.01-.03 0l.02.04s-.06-.03-.05-.05c-.12.02.02.04-.06.11v-.04c-.08.01-.06.05-.11.08.02 0 .12-.07.14-.02-.01.01-.02.03 0 .05-.04 0-.04.02-.04.05h-.06s.04.02.06.05c-.01.03-.06.03-.09.04-.02.05.08-.03.08.04-.03.04-.01.08.01.14-.02.03-.03-.01-.05 0l.04.04h-.02c.01.03.06.01.07.05.06.02-.1.06-.04.12-.02 0-.03-.01-.06-.01.04.07.03.06.08.12l-.04.04s.09.02.13.07c.02 0 .04-.02.05-.02l.02.06s-.03 0-.05-.02l.01.01c-.02.02-.05 0-.08-.02.01 0 .03-.01.04-.02a.211.211 0 0 0-.1-.04s.01.01.01.02h-.02l.02.02h-.06l.02.01-.05.07c.05.06.14.13.15.22-.04-.03-.07-.02-.13-.03.06-.02-.01-.07 0-.11 0 .02-.03.01-.04 0l.04.09s-.04.01-.06.03c.09 0 .05.07.07.11-.03 0-.06-.01-.05-.05-.07.03.09.07.03.11v-.02c.02.03 0 .08-.03.06-.02.05-.03.19.04.21 0 0-.09-.02-.1-.03l.23.15c-.06-.02-.22 0-.25-.06-.01.01-.02.03 0 .07.01 0 .1-.01.1 0-.08.03-.04.02-.11.06.02-.01.11.01.11.05-.01 0-.1-.01-.11-.03l.08.12s-.08-.02-.11 0c.02 0-.02.09-.01.12l.03-.04c-.03.12.12.14.1.26-.02-.02-.12-.06-.14 0 .05.04.22.16.25.27l-.03.02.02.09c-.07-.06-.21-.23-.26-.32-.03.04-.04 0-.04.08-.03.02-.04-.04-.03-.06l-.04.16c.06 0 .04.13.09.13l-.03-.18c.06 0 .15.13.12.24-.03.03-.1-.04-.12-.04.02.02.02.11 0 .12l-.02-.05c-.03.06.06.11 0 .18 0 .03-.09.07-.05.08.07-.03.28 0 .33.03 0 0-.09.13-.12.15-.06.03-.12-.08-.17-.05.02 0 .03.03.04.04-.02.03-.05-.02-.05.04.06.02-.02.12.05.04 0 .06-.02.06-.03.13.04-.02.12.08.13.14h-.05c-.02.12-.06.18-.08.29-.02 0-.04.06-.06.03 0 .02.03.04.02.07-.06.06 0-.08-.07-.04.03 0 .03.1.05.15.06 0 .03-.11.01-.16.07.01.14.11.16.23 0 .09-.05.03-.05.05-.04.17.11.17.03.3-.06.05-.09-.01-.13 0 0-.08.05-.11.05-.16l-.03.06s-.02-.08 0-.1c-.05.04-.05.29-.11.42.01.03.02.07.04.05v-.04s.04.09.07.04c.02.06.05.13.02.21h-.06s.04-.04.03-.07c.02.04-.09.11-.03.16l.05-.05c.02.06.06.14.04.21.06-.02 0-.02.07-.06-.08.03.03-.18-.06-.12.08-.04.04-.08.12-.14-.02 0-.04.02-.02-.04 0 0-.01-.01-.01-.02 0 .01-.02.02-.03.03-.04-.04-.02-.13-.04-.16.01-.03.02.02.04 0l-.02-.05s.08-.08.09 0v-.07s.06-.1.05-.14c.01-.03-.03-.1 0-.06v-.12c.02-.11-.03-.25.06-.37 0-.04-.01-.08.01-.15h.04c0-.06.06-.15.02-.18.1-.04.06-.24.09-.32h-.04c.01-.07 0-.13 0-.21h-.04c-.02-.07.05-.16.06-.27.01 0 0 .03 0 .05.11-.11-.03-.27.06-.37-.01-.03 0-.05.01-.07v-.01c0-.01.02-.02.03-.04l-.03.03v-.09h.04v-.01c.02-.03-.02-.03-.05-.02 0-.02-.01-.03-.02-.05.07-.01-.01-.09.07-.11-.03-.02 0-.17-.08-.18h.01c.01-.02.02-.04 0-.06h.05l-.07-.06c.04-.02.06-.03.09 0-.05-.07-.02-.06-.07-.12h.03s-.04-.05 0-.06c.07-.03.04-.22.12-.32-.11 0 .05-.05-.02-.06.03 0 .04-.02.06 0-.01-.06.05-.08 0-.13.03 0 .03.02.05.01 0 0-.02-.02 0-.03.02 0 .02.01.03.02 0-.06-.07-.08-.14-.09.04-.02.04-.04 0-.07.02 0 .05-.02.05.02 0-.02.05-.12 0-.13.02 0 0-.03 0-.03.01-.05.02-.05.02-.1h-.01c-.06-.02 0-.03-.01-.07.06-.07-.02-.04.05-.11h-.04c-.09-.02.06-.07.04-.12h-.03s.13-.04.15-.07l.02.02c.06-.06-.05-.02-.06-.07.03 0 .07.02.08 0 .03-.01-.08-.11-.02-.15-.02 0-.05.01-.06-.01 0-.04.1-.09.03-.13h.02c-.01-.03-.02-.1-.05-.12.15 0-.04-.18.09-.16v-.09h.02c.02-.05-.01-.08-.04-.1.01-.01.02 0 .03 0 .04-.08.03-.08-.02-.16h.04s.09-.11.05-.19c0 0 .01 0 .02.01-.04-.1.15-.19 0-.25l-.03-.06c-.02.07-.07-.02-.1 0 0-.03.06-.07.06-.03.08.03.04-.08.1-.07.02-.15.09-.29.11-.43h-.07l.01-.04c.02-.01.05 0 .04.02.04-.01-.02-.06-.04-.07.04-.06.07.04.08.02v-.03c-.02-.03-.05-.03-.04-.07.02-.02.04 0 .05-.02v-.08l-.04.02c-.02-.03.01-.06-.05-.04.09-.03.07-.22.1-.24-.03-.04-.02-.08-.01-.13-.01 0-.07 0-.06-.03.12.03.06-.07.15-.09-.06.02 0-.12-.08-.08.01-.03.04 0 .08-.02-.03-.09.06-.17.06-.27-.02 0-.04 0-.06-.02l.08-.04s-.09-.03-.03-.06h-.04c.1-.18 0-.4.17-.58-.03.02-.03 0-.03-.02 0 .01-.04 0-.06 0l.07-.07c-.06-.02 0-.09-.04-.11v.03c-.05-.04-.15.03-.23 0 .07.05-.13.09-.03.16-.02.01-.03-.02-.05-.01.03.02.04.04.02.08 0 .1-.05.13-.09.24h.04s-.02.02-.04.03c.06.04.01-.07.08-.03-.09.02-.03.17-.13.18 0 .04.05 0 .04.03h-.03l.03.02c0 .02-.04.03-.07.03v-.02c-.04.03 0 .09-.01.1l.02-.03c0 .11-.04.23 0 .33h.02c.02.08-.03.05-.03.14s.02.04.02.06c-.02-.02-.05.03-.07 0 .03.09.02.05.09.11h-.03s.04.03.04.08c-.02-.04-.05.02-.08-.02-.08.08.05.14-.06.16.08.05.06-.07.08-.04.03-.01.06.04.05.07 0 .03-.12.03-.13.1v-.02c-.03.02.02.06-.02.08.05.03 0 .04.06.06v-.07s.08.09.03.14c-.01 0-.03-.03-.04-.04-.02.01 0 .04-.02.05-.07-.02 0-.08-.05-.13-.03.01.04.08-.03.05.09.04-.02.07.04.13h-.04s.02.02.02.03l-.05-.03s-.05.07-.03.11c.01-.08.05 0 .09-.04.04.1-.12.04-.11.15 0-.02.03-.05.05-.02-.01.02-.03.04-.06.05 0 .07.04 0 .07.03-.05.02.02.04.03.07h-.04c-.04.07.08.03.04.1l-.05-.04v.04l-.04-.02c.03.05.02.06 0 .1.03 0 .08.02.07.05-.03.02-.04-.02-.04.03-.02-.02-.06-.03-.01-.05-.01 0-.02-.02-.04-.02-.03.02-.02.06-.02.08 0 0 0-.01.01-.02l.05.08s-.03 0-.04-.01c0 .02.02.03.02.05-.03-.01-.07-.01-.08-.05l.03.08s-.05.03-.06.02c-.03.04.05.1.02.15 0 0 .01 0 .02.02-.02.05-.06.08-.03.15l-.07.02s.08-.03.1.05c.01.06-.06.01-.08.03.03.03.08.09.03.13v-.04zm-.06.55s-.03-.04 0-.04c.05.02.02.03 0 .04zm-.02.85s0-.02.01-.03c0 .01 0 .02-.01.03zM80 22.5s.01-.03 0 0zm-.03.08h.02v-.05c-.01 0-.02.01-.02.04zm.96-6.43h-.01.01zM80.19 18.93h.02-.02zM80.34 17.28h-.01.01z"/><path class="cls-12" d="M79.82 21.2s.02-.03.03-.03c-.01 0-.02 0-.03.03zM79.97 23.04v-.06s-.02.04-.02.05h.02zM79.64 23.48v.03h.02s0-.06-.02-.03zM79.83 23.07s-.03.04-.03.07c.05.02.04-.02.03-.07zM79.8 23.16v.04c.02 0 0-.01 0-.04zM79.98 22.69s.04.02.03.03c.04.03-.04-.13-.03-.03zM79.7 23.09l.05-.01-.03-.03-.02.04zM79.78 22.79l-.02.06s.01 0 .01.02c0-.04.02-.08 0-.08zM79.77 22.87v.05-.05zM79.7 23l.02-.02.01-.04-.03.06zM79.89 22.13v-.07s-.03 0-.03.03c0 .02.01.04.03.04zM79.74 22.31s.02-.02.04-.02h-.05l.02.02zM79.76 22.12s-.03-.1-.04-.02c.01 0 .02.08.04.02zM79.98 21.11v.02l.09.01-.09-.03zM79.9 20.19c-.03.08.05.03.01.1.02.02.03-.06.05-.03-.01-.05 0-.07-.06-.06zM79.96 20.25v.03-.03zM81.25 14.36l.03-.03-.04.02.01.01zM81.19 14.29h.06l-.05-.02v.02zM80.13 18.24h.01s.02 0 .02-.02l-.04.02zM80.23 17.85v.01l.05-.01h-.05zM80.22 17.51v.04c0-.03.06-.04 0-.04z"/><path class="cls-5" d="M144.29 139.55c-21.12 7.43-51.73 4.63-63.26-5.71-11.53-10.35-8.3-27.59-5.99-31.64 2.31-4.05 9.76-10.71 12.24-11.03 2.48-.32 3.34 3.45 3.41 4.03l27.64 14.61 13.58-20.7.42-.64s-1.83-3.78 1.19-3.56c0 0 2.48-.43 9.48 1.73s19.61 8.19 21.23 17.78c1.62 9.59 1.19 27.69-19.94 35.13z"/><path style="fill:none" d="M69.13 63.05h117.99v121.61H69.13z"/><path class="cls-14" d="M117.33 106.47V87.84s.63-4.25 0-5.04c0 0-7.54-.36-13.78 1.58-6.24 1.94-9.05 3.6-9.05 3.6l.86 2.87 21.97 15.63z"/><path class="cls-14" d="M144.29 139.55c-21.12 7.43-51.73 4.63-63.26-5.71-11.53-10.35-8.3-27.59-5.99-31.64 2.31-4.05 9.76-10.71 12.24-11.03 2.48-.32 3.34 3.45 3.41 4.03-6.86 4.59-13.27 11.16-11.84 22.48C80.28 129 94.6 137.51 106.3 138.8c11.7 1.29 30.77.43 42.52-8.51 11.75-8.94 10.87-17.33 10.94-22.62.06-5.29-7.05-17.79-26.88-18.54 0 0-.42.03-.96 0l.42-.64s-1.83-3.78 1.19-3.56c0 0 2.48-.43 9.48 1.73s19.61 8.19 21.23 17.78c1.62 9.59 1.19 27.69-19.94 35.13z"/><path class="cls-5" d="M117.33 87.84c-10.76.85-17.23 3.43-17.23 3.43l17.23 13.15V87.84z"/><path class="cls-3" d="M123.1 116.5c-.89.41-1.71 1.04-2.15 1.92s-.44 2 .15 2.78c.74.96 2.1 1.14 3.31 1.18 1.46.05 2.98.02 4.29-.64 1.3-.66 2.32-2.1 2.04-3.53-.19-.97-.95-1.77-1.85-2.17-1.72-.74-4.14-.29-5.78.46zM140.45 119.81c-.59.37-1.15.86-1.34 1.53-.25.91.29 1.9 1.09 2.42s1.78.64 2.72.66c.86.02 1.74-.04 2.56-.35s1.55-.87 1.92-1.65c.37-.77.34-1.72-.08-2.47-1.28-2.29-5.11-1.26-6.87-.16zM144.42 109.36c-.13.74.15 1.52.64 2.09s1.17.95 1.89 1.17c1.23.38 2.63.3 3.71-.38 1.09-.68 1.78-2.02 1.54-3.28-.67-3.52-7.25-2.73-7.78.41zM131.42 106.71c-1.06.63-1.78 1.98-1.37 3.14.25.72.89 1.25 1.59 1.54s1.47.37 2.23.4c.92.04 1.87.01 2.75-.27.88-.28 1.7-.85 2.12-1.68s.36-1.92-.28-2.59c-1.51-1.59-5.27-1.59-7.04-.55zM133.32 95.79c-.54.85-.61 2.03-.01 2.84.47.63 1.24.95 2 1.14 1.44.37 2.96.4 4.41.09.89-.19 1.78-.52 2.45-1.14.67-.61 1.1-1.55.94-2.45-.72-3.92-8.15-3.06-9.78-.49zM105.69 118.49c-.29 1.17.54 2.41 1.63 2.9s2.38.38 3.54.05c.65-.19 1.29-.45 1.81-.89s.88-1.09.86-1.76c-.1-3.41-7.1-3.32-7.84-.3zM93.58 125.17c-.93.84-1.34 2.36-.6 3.37.57.77 1.62 1.02 2.58 1.08 1.55.09 3.11-.17 4.54-.77 1.03-.43 2.07-1.14 2.3-2.23.25-1.18-.6-2.39-1.71-2.89-1.15-.52-2.5-.51-3.66-.08-1.16.43-2.52.67-3.46 1.52zM81.75 116.4c.54.76 1.52 1.04 2.43 1.19 1.04.17 2.11.24 3.14 0s1.99-.85 2.51-1.76c1.4-2.46-1.64-4.97-4.02-4.57-1.99.33-5.79 2.72-4.06 5.15zM94.59 107.38c-.65.61-1.21 1.49-.97 2.35.23.85 1.13 1.32 1.97 1.58.93.28 1.92.43 2.88.27.96-.16 1.89-.66 2.44-1.46.59-.85.69-2.01.27-2.95-1.32-2.94-4.85-1.42-6.58.22zM117.15 90.11c-.54-.33-1.48-.2-2.02.14-.59.37-1.14.8-1.56 1.35s-.7 1.23-.68 1.92c.03.99.69 1.91 1.56 2.39s1.92.56 2.9.38c0-.08.01-.16.02-.24M108.13 97.47c.65-.97 1.85-1.54 3.01-1.43 1.16.11 2.23.91 2.67 1.99s.24 2.4-.51 3.3M124.47 131.86c.07.54.43 1.02.88 1.33s.99.47 1.53.57c1.1.2 2.3.14 3.22-.48 1.69-1.13 1.41-4.02-.61-4.63-1.82-.55-5.32.99-5.02 3.21zM109.45 129.28c-.28.23-.56.5-.62.85-.06.35.13.71.4.94s.61.36.95.47c1.21.4 2.63.65 3.84.11.87-.39 1.85-1.32 1.36-2.34-1.14-2.34-4.47-1.23-5.94-.04z"/><path class="cls-2" d="M92.01 100.57c-.67-.15-1.34.24-1.85.7-1.7 1.5-2.54 3.92-2.14 6.15M137.28 117.21c-.07 1.74-.75 3.46-1.9 4.77s-2.75 2.23-4.47 2.53M141.7 101.56c2.25-.93 4.88-.89 7.1.1.42.19.83.41 1.14.75s.52.79.46 1.25M134.38 104.41c-3.48.99-6.56 3.33-8.46 6.41M105.11 124.27c4.56.49 9.29-.66 13.12-3.19M90.94 123.25c1.34-2.64 3.75-4.71 6.57-5.64M107.39 109.58c2.59.85 4.66 3.11 5.28 5.75M110.59 131.81c.88 2.15 3.16 3.47 5.45 3.85 2.29.38 4.64-.03 6.93-.44M145.87 121.63a13.371 13.371 0 0 1-5.81 6.24M150.05 112.17c1.02-.33 2.17-.22 3.12.29a4.13 4.13 0 0 1 1.97 2.44M128.74 97.38c2.36-1.8 5.48-2.57 8.41-2.08"/><path class="cls-15" d="M98.93 110.79c.09.3.38.48.65.62.68.33 1.45.52 2.18.32s1.36-.85 1.35-1.6c-.05-2.91-4.75-1.32-4.18.66zM98.77 130.03c.24.37.68.55 1.1.65.56.14 1.15.19 1.71.06s1.09-.45 1.39-.94c.78-1.26-.45-2.7-1.8-2.49-1.07.17-3.32 1.32-2.41 2.71zM82.69 112.42c.19.23.49.34.78.42.5.14 1.03.23 1.55.16s1.03-.32 1.33-.74.35-1.04.04-1.47c-1.03-1.44-5.01.09-3.7 1.63zM121.91 124.75c-.6.2-1.13.63-1.38 1.21s-.14 1.32.33 1.74c.41.38 1 .47 1.56.51.84.07 1.77.05 2.41-.5.56-.48.75-1.34.46-2.01-.54-1.23-2.26-1.32-3.37-.95zM130.01 113.78c.21.56.84.84 1.43.94.1.02.21.03.32.04.57.06 1.15 0 1.66-.26 1.62-.83 1.04-2.35-.47-2.66-1.08-.23-3.54.29-2.94 1.94zM142.62 106.06c.07.52.61.82 1.11.98.58.19 1.2.31 1.8.18 1.32-.29 1.93-2.18.47-2.73-.95-.36-3.55.24-3.38 1.58zM141.72 95.8c.31.33.81.41 1.26.4.98-.01 2.14-.39 2.44-1.44.21-.72-.11-1.28-.81-1.5-1.19-.37-4.29 1.03-2.89 2.53zM106.57 92.38c-.09.29-.05.63.15.86.19.22.49.3.77.35.89.15 1.82.04 2.65-.33 1.19-.53 1.79-2.36.11-2.54-1.16-.12-3.3.41-3.68 1.66zM134.62 132.29c.24.42.79.51 1.27.55.65.06 1.32.12 1.93-.1 1.52-.55 1.26-2.69-.26-2.99-1.09-.22-3.72 1.17-2.94 2.54zM151.52 118.61c-.31.25-.58.58-.69.96s-.06.83.19 1.14c.39.49 1.12.52 1.74.45.55-.07 1.11-.19 1.57-.49s.83-.81.84-1.36c.05-1.85-2.75-1.41-3.65-.69z"/><path class="cls-12" d="M80.11 23.69c.55.06 1.21-1.84 1.48-4.25s.04-4.41-.51-4.47c-.55-.06-1.21 1.84-1.48 4.25s-.04 4.41.51 4.47zM103.58 59.5c.05-.27-.76-.66-1.81-.86-1.05-.2-1.95-.15-2 .12-.05.27.76.66 1.81.86 1.05.2 1.95.15 2-.12zM103.16 54.9c.06-.27-.72-.66-1.73-.87-1.01-.21-1.88-.16-1.93.11s.72.66 1.73.87c1.01.21 1.88.16 1.93-.11zM103.43 50.14c.06-.27-.6-.63-1.46-.81s-1.6-.1-1.66.17.6.63 1.46.81c.86.18 1.6.1 1.66-.17zM104.93 45.64c.06-.27-.6-.63-1.46-.81-.86-.18-1.6-.1-1.66.17s.6.63 1.46.81c.86.18 1.6.1 1.66-.17zM111.06 34.47c.06-.27-.6-.63-1.46-.81-.86-.18-1.6-.1-1.66.17-.06.27.6.63 1.46.81.86.18 1.6.1 1.66-.17zM106.98 41.15c.06-.27-.6-.63-1.46-.81-.86-.18-1.6-.1-1.66.17s.6.63 1.46.81 1.6.1 1.66-.17zM109.15 37.47c.06-.27-.6-.63-1.46-.81-.86-.18-1.6-.1-1.66.17s.6.63 1.46.81c.86.18 1.6.1 1.66-.17zM114.6 32.29c.06-.27-.6-.63-1.46-.81-.86-.18-1.6-.1-1.66.17-.06.27.6.63 1.46.81s1.6.1 1.66-.17zM117.74 30.93c.06-.27-.6-.63-1.46-.81-.86-.18-1.6-.1-1.66.17-.06.27.6.63 1.46.81.86.18 1.6.1 1.66-.17z"/><path class="cls-9" d="M73.2 59.15c.38-.4.95-.56 1.48-.41l.73.2-.12-13.24-.81.74c-.28.26-.64.39-1.01.39a1.48 1.48 0 0 1-1.42-1.04l-2.82-8.67-8.28 2.69s-19.15-6.18-19.67-6.42c0 1.56-.01 3.26 0 4.82l10.26 2.81c.53.14.93.56 1.06 1.09s-.04 1.09-.45 1.46l-8.04 7.36c-.28.26-.64.39-1.01.39a1.48 1.48 0 0 1-1.42-1.04l-.35-1.09c-.02 2.2-.04 4.73-.06 7.31.11 0 .22.01.33.04l11.44 3.13c.53.14.93.56 1.06 1.09s-.04 1.09-.45 1.46l-6.86 6.28c3.53 1.4 7.97 3.15 10.93 4.29l-1.87-5.77c-.17-.52-.04-1.1.34-1.5.38-.4.95-.56 1.48-.41l11.44 3.13a1.484 1.484 0 0 1 .68 2.47c2.89-1.05 5.43-1.96 5.69-2.06l-2.61-8.05c-.17-.52-.04-1.1.34-1.5z"/><path class="cls-9" d="m65.69 70.45-6.14-1.68 1.67 5.14c.25-.1.66-.26 1.19-.46l3.28-3zM45.3 65.82l4.31-3.95-6.14-1.68 1.83 5.63zM48.11 43.21l-6.14-1.68 1.83 5.62 4.31-3.94z"/><path class="cls-8" d="m41.18 66.31 1.29.51-1.27-3.92c0 1.18-.01 2.33-.02 3.4z"/><path class="cls-9" d="m72.35 37.03 1.83 5.63 1.08-.99-.04-3.85-2.87-.79z"/><path class="cls-8" d="M42.71 51.29c.13.03.25.05.38.05.37 0 .73-.14 1.01-.39l8.04-7.36c.4-.37.57-.93.45-1.46a1.5 1.5 0 0 0-1.06-1.09l-10.26-2.81c0 1.66.02 3.17.05 4.21.03 1.02.02 3.56 0 6.78l.35 1.09c.16.49.55.86 1.04.99zm5.4-8.08-4.31 3.95-1.83-5.63 6.14 1.68zM54.09 60.79a1.5 1.5 0 0 0-1.06-1.09l-11.44-3.13c-.11-.03-.22-.04-.33-.04-.02 2.14-.04 4.32-.05 6.39l1.27 3.92c1.01.4 2.55 1.01 4.31 1.71l6.86-6.28c.4-.37.57-.93.45-1.46zm-8.79 5.03-1.83-5.63 6.14 1.68-4.31 3.95zM70.16 69.37c-.13-.53-.53-.95-1.06-1.09l-11.44-3.13c-.53-.15-1.1.01-1.48.41-.38.4-.51.97-.34 1.5l1.87 5.77c1.93.75 3.23 1.24 3.24 1.21 0 0 .1-.05.27-.12l-1.67-5.14 6.14 1.68-3.28 3c1.72-.65 4.69-1.73 7.37-2.7.35-.37.5-.88.38-1.38zM73.09 46.79c.13.03.25.05.38.05.37 0 .73-.14 1.01-.39l.81-.74-.04-4.03-1.08.99-1.83-5.63 2.87.79-.02-2.63-5.97 1.94 2.82 8.67c.16.49.55.86 1.04.99zM75.41 58.94l-.73-.2c-.53-.15-1.1.01-1.48.41-.38.4-.51.97-.34 1.5l2.61 8.05.03-.01-.09-9.74z"/><path class="cls-12" d="M42.96 27.22c-.14.53 7.78 3.04 17.68 5.59l.37.09c.15.02.32-.02.46-.03.24-.03.36-.06.55-.1.32-.07.64-.14.95-.22.61-.16 1.21-.31 1.8-.47a108.563 108.563 0 0 0 8.96-2.88c3.16-1.19 5.02-2.16 4.92-2.41-.1-.26-2.11.23-5.35 1.06-1.62.42-3.54.92-5.68 1.48-1.07.27-2.19.56-3.35.85-.58.14-1.17.28-1.76.43-.29.06-.59.13-.89.19-.13.02-.31.06-.39.07h-.01s.02 0-.09-.02c-9.9-2.55-18.04-4.19-18.18-3.66z"/><path class="cls-8" d="M60.12 59.51a1.48 1.48 0 0 1-1.42-1.04l-3.41-10.49c-.17-.52-.04-1.1.34-1.5.38-.4.95-.56 1.48-.41l11.44 3.13c.53.14.93.56 1.06 1.09s-.04 1.09-.45 1.46l-8.04 7.36c-.28.26-.64.39-1.01.39zM59 49.7l1.83 5.63 4.31-3.95L59 49.7z"/><path class="cls-12" d="M60.74 40.71c-.55 0-.96 7.29-.91 16.28.05 8.99.54 16.28 1.09 16.27.55 0 .96-7.29.91-16.28-.05-8.99-.54-16.28-1.09-16.27z"/><path class="cls-8" d="m96.48 46.89-11.44-3.13c-.53-.15-1.1.01-1.48.41-.38.4-.51.97-.34 1.5l3.41 10.49a1.499 1.499 0 0 0 1.42 1.04c.37 0 .73-.14 1.01-.39l8.04-7.36c.4-.37.57-.93.45-1.46a1.5 1.5 0 0 0-1.06-1.09zm-7.73 6.12-1.83-5.63 6.14 1.68-4.31 3.95zM92.84 39.84c.13.03.25.05.38.05.37 0 .73-.14 1.01-.39l8.04-7.36c.4-.37.57-.93.45-1.46a1.5 1.5 0 0 0-1.06-1.09l-6.11-1.67c-2.05.68-4.24 1.72-6.23 3.31l2.48 7.63c.16.49.55.86 1.04.99zm5.4-8.07-4.31 3.95-1.83-5.63 6.14 1.68zM103.54 65.69a1.5 1.5 0 0 0-1.06-1.09l-11.44-3.13c-.53-.15-1.1.01-1.48.41-.38.4-.51.97-.34 1.5l.64 1.98c1.22.68 2.44 1.13 3.63 1.48l-.57-1.74 6.14 1.68-1.29 1.18c.98.28 2.14.61 3.39.97l1.93-1.77c.4-.37.57-.93.45-1.46zM117.59 21.41l-3.72 3.41v4.07l7.75-7.09c.4-.37.57-.93.45-1.46-.13-.53-.53-.95-1.06-1.09l-.66-.18c-1.67.63-3.47 1.32-4.75 1.81l2 .55z"/><path class="cls-12" d="M103.67 68.57c.17-.1-1.36-2.25-2.6-6.23-.62-1.98-1.09-4.42-1.2-7.15-.1-2.73.22-5.75 1.15-8.76 1.88-6.04 5.26-10.93 8.48-13.49 1.61-1.28 3.11-2.06 4.21-2.43 1.09-.4 1.73-.53 1.71-.62 0-.05-.67-.05-1.83.25-1.17.27-2.79.97-4.52 2.24-3.48 2.53-7.07 7.53-9.01 13.75a26.21 26.21 0 0 0-1.12 9.09c.16 2.82.73 5.33 1.45 7.33.72 2.01 1.52 3.54 2.16 4.54.64 1 1.06 1.5 1.11 1.47z"/><path class="cls-12" d="M104.39 63.9c.06-.27-.6-.63-1.46-.81-.86-.18-1.6-.1-1.66.17-.06.27.6.63 1.46.81.86.18 1.6.1 1.66-.17zM106.02 67.71c.06-.27-.6-.63-1.46-.81s-1.6-.1-1.66.17c-.06.27.6.63 1.46.81s1.6.1 1.66-.17z"/></g></svg>