<svg xmlns="http://www.w3.org/2000/svg" viewBox="0 0 200 200"><defs><style>.cls-2{fill:#f2a6b0}.cls-4{fill:#e87003}.cls-5{fill:#fff}.cls-6{fill:#ffb5c4}.cls-8{fill:#ff8000}.cls-10{fill:#ceccca}.cls-11{fill:#ceaeae}.cls-13{fill:#e2ded9}.cls-14{fill:#877166}.cls-15{fill:#5b3d5b}</style></defs><path id="BG_Strong" d="M18.51 170.96c42.8 82.54 198.26-53.53 156.06-125.58C116.14-71.11-31.15 82.59 18.51 170.96Z" style="fill:#575655"/><g id="Illustrations"><path d="M110.97 63.29c.21-.05 2.41-.45 2.41-.45s10.93-1.77 22.22 1.68l.19 1.26 3.65 1.25s-4.22 1.71-7.06 1.78c-2.84.08-10.28-.13-12.77-.85s-6.83-2.6-7.27-3.01-1.37-1.67-1.37-1.67Z" class="cls-11"/><g id="Layer_12"><path d="M92.05 89.53c.79 0 .79-1.23 0-1.23s-.79 1.23 0 1.23Z" class="cls-15"/><path d="M150.2 162.81c-.2-.2-.47-.22-.7-.11-.71-1.02-2.42-3.47-2.6-3.67-.13-.15-.52-.41-.8-.59.08-.22.04-.5-.14-.66a.635.635 0 0 0-.87 0l-3.83 3.54c-.24.22-.24.65 0 .87.23.21.54.23.78.07l2.74 3.94.22.23c-.26.21-.22.65 0 .87.26.26.61.21.87 0 1.48-1.16 2.92-2.37 4.32-3.62.25-.22.23-.64 0-.87Z" style="fill:#a5a4a4"/><path d="M184.88 130.34c-.97-5.57-2.4-11.07-4.28-16.4a103.52 103.52 0 0 0-6.96-15.54 104.09 104.09 0 0 0-9.38-14.14c-1.74-2.21-3.56-4.4-5.52-6.42-.37-.38-.74-.76-1.16-1.08-1.19-.91-2.42-1.79-3.66-2.63-4.89-3.34-10.13-6.14-15.68-8.21-.68-.25-1.36-.5-2.05-.73-.75-.25-1.07.93-.33 1.19.67.23 1.34.47 2 .71-3.59 1-7.31 1.34-11.04 1.2-2.06-.08-4.02-.29-6.03-.71-.96-.2-1.91-.44-2.84-.73-.83-.26-1.73-.59-2.44-.9-.87-.38-1.71-.83-2.5-1.35-.18-.12-.36-.24-.54-.37-.07-.05-.14-.1-.21-.16-.01-.01-.08-.06-.08-.07l-.13-.1-.2-.17c.55-.11 1.11-.21 1.67-.29.33-.05.51-.47.43-.76-.1-.35-.43-.48-.76-.43-5.22.75-10.29 2.87-14.36 6.24-.46.38-.91.78-1.34 1.19-.02.02-.05.03-.07.06-2.14 2.03-3.61 4.61-4.89 7.24-1.45 2.99-2.81 6.02-4.19 9.04-2.84 6.21-5.64 12.43-8.39 18.68-1.38 3.14-2.75 6.28-4.11 9.43-1.36 3.15-2.56 6-3.68 9.07-1.12 3.07-2.05 6.11-2.68 9.27-.63 3.12-1.11 6.41-.48 9.56.51 2.6 1.97 5.13 4.31 6.48 2.54 1.47 5.51 1.01 8-.31 2.69-1.43 4.86-3.7 6.84-5.97 1.94-2.21 3.74-4.54 5.53-6.85.12 2.08.25 4.15.38 6.26.24 3.76.49 7.53.8 11.29.03.38.06.76.1 1.14 0 .04.01.08.02.12.03.16.11.3.25.38.01 0 .03.02.04.03s.01 0 .02.01c.04.02.08.04.12.05 4.72 2.05 9.7 3.32 14.77 4.16 1.48.25 2.96.46 4.44.67.33.05.66-.08.76-.43a.688.688 0 0 0-.22-.67c.1-.11.21-.2.31-.17.27.06 2.4.28 3.76.08s3.39-.74 3.39-.74 3.61-.39 4.75-.49c1.14-.11 1.88-.57 3.62-.07 1.74.5 8.39 2.76 8.39 2.76l2.3 2.02c.54-.54 3.05-2.76 3.83-3.54.28-.28-2.16-2.02-1.87-2.31 1.75-1.77 3.06-3.57 3.4-4 .48-.6 1.8-2.32 2.64-3.42.06.04.12.07.19.09.29.08.71-.1.76-.43.45-3.25.86-6.5 1.21-9.75.05.03.11.06.16.08.02 0 .04 0 .06.01.05.08.12.14.19.2a79.12 79.12 0 0 1 7.31 6.38c2.31 2.27 4.49 4.68 6.52 7.21a81.23 81.23 0 0 1 3.26 4.37c.19.27.53.39.82.23.22.08.46.01.65-.14a29.035 29.035 0 0 0 7.36-8.99v-.02c.1-.19.12-.42 0-.6-.3-.44-.61-.88-.92-1.31.03-.03.06-.06.08-.1a77.52 77.52 0 0 0 6.13-11.52c.49-1.15.96-2.31 1.4-3.49.04-.12.04-.24 0-.36Zm-26.49-.48c-.19-.1-.38-.21-.57-.31a.637.637 0 0 0-.27-.07.516.516 0 0 0-.4.11l-.02.02c-.02.01-.04.03-.05.04-2.1 2.03-3.79 4.43-5.03 7.06.39-3.75.71-7.51.94-11.27.1-1.69.19-3.39.26-5.08.6.81 1.21 1.61 1.82 2.41 1.47 1.91 2.97 3.81 4.48 5.7-.37.48-.75.95-1.14 1.4Z" class="cls-2"/><path d="M120.52 170.22c.93 2.65 2.99 4.72 5.1 6.51 2.17 1.84 4.59 3.37 7.2 4.51 1.49.65 3.01 1.18 4.58 1.58.77.19 1.1-.99.33-1.19-5.28-1.33-10.1-4.22-13.79-8.22-.95-1.03-1.76-2.18-2.23-3.51-.11-.31-.42-.52-.76-.43-.3.08-.54.44-.43.76ZM129.21 164.27c3.14-1.73 6.49-3.03 9.97-3.87.77-.19.44-1.37-.33-1.19a41.49 41.49 0 0 0-10.26 4c-.69.38-.07 1.45.62 1.06ZM167.67 152.3c-.21.22-.43.43-.64.65-1.4-1.75-4.99-6.18-5.63-6.8-.65-.63-4.3-3.65-5.61-4.74.31-.39.62-.78.93-1.16.21-.26.25-.62 0-.87-.22-.22-.66-.26-.87 0-2.18 2.67-4.2 5.46-6.25 8.23-.2.27-.04.69.22.84.14.08.29.1.43.07 2.72 2.65 5.27 5.47 7.57 8.49.62.81 1.22 1.64 1.81 2.47-.13.23-.07.56.11.74.26.26.61.21.87 0 2.77-2.2 5.48-4.5 7.94-7.05.55-.57-.32-1.44-.87-.87Z" class="cls-10"/><path d="m160.39 159.6.13-.09s-4.94-5.97-5.56-6.94c-.62-.97-4.52-5.05-4.52-5.06l-.14.17s-.03-.03-.05-.04c-.31-.18-.64-.05-.84.22-1.95 2.62-3.94 5.21-6.17 7.59 0 0-.01 0-.02.01-.06.06-.11.14-.14.23-.08.22-.04.48.14.64 2.58 2.16 4.78 4.69 6.43 7.63.46.82.88 1.67 1.27 2.53.01.04.03.08.05.12.07.15.22.25.39.28.14.04.29.03.42-.05.01 0 .02 0 .03-.01.04-.03.08-.05.11-.09 2.84-2.07 5.66-4.16 8.42-6.34.24-.19.22-.59.04-.82ZM150.44 147.51z" class="cls-13"/><path d="M147 169.49c-1.16-3.08-2.9-5.9-5.21-8.26-.65-.67-1.35-1.29-2.07-1.89-.05-.04-.11-.07-.16-.1a.691.691 0 0 0-.3-.2c-2.2-.77-4.4-1.54-6.61-2.29-1.1-.38-2.19-.57-3.35-.52-1.06.05-2.12.18-3.17.29-1.16.12-2.31.25-3.47.36-.06 0-.11 0-.17.02-2.22.76-4.66 1.02-6.99.66h-.03c-.15-.04-.32-.03-.44.07s-.03.03-.05.04c-.03.02-.07.05-.09.08-.61.53-.85 1.31-.72 2.12.14.87.71 1.55 1.34 2.08 1.38 1.15 3.13 1.66 4.89 1.82.52.05 1.04.06 1.57.05.28 0 .56-.01.83-.03.13 0 .26-.01.39-.02h.26c.88.4 1.79.71 2.73.94l-.75.54c-1.16.84-2.3 1.73-3.37 2.68-.24.22-.49.43-.72.66-1.13 1.12-2.28 2.2-3.43 3.3-.79.75-1.62 1.5-2.36 2.31-.01 0-.02.01-.03.02-1.3 1.25-2.53 2.57-3.69 3.95-.59.71-1.17 1.43-1.72 2.17-.51.67-1.03 1.36-1.36 2.14-.34.78-.62 1.82.09 2.47.7.65 1.73.38 2.43-.14 1.39-1 2.7-2.11 3.99-3.24 1.41-1.24 2.79-2.52 4.11-3.86.61-.31 1.2-.63 1.79-.97-.22.28-.44.56-.65.84-.41.55-.8 1.12-1.16 1.71-.35.56-.73 1.18-.98 1.82-.05.06-.08.13-.11.2-.41 1.16-.81 2.33-1.05 3.54s-.36 2.51-.07 3.71c.15.62.59 1.06 1.24 1.12.61.05 1.14-.3 1.53-.74.75-.83 1.29-1.82 1.72-2.84.48-1.14.81-2.33 1.13-3.53a.65.65 0 0 0 0-.34c.37-.3.73-.6 1.09-.91 1.24-1.07 2.43-2.21 3.56-3.4.08-.08.12-.17.15-.25l.19.15s-.04.04-.05.06c-.8 1.2-1.62 2.39-2.4 3.6-.38.59-.77 1.25-1.02 1.95-.07.07-.12.15-.15.27-.54 1.92-.38 3.97.42 5.8.36.82.96 1.81 1.98 1.8 1.19-.01 1.67-1.23 1.9-2.2.28-1.19.36-2.42.24-3.63 0-.06-.02-.13-.04-.18.33-.33.65-.69.96-1.04.72-.85 1.38-1.75 2.02-2.67-.07.73-.04 1.48-.02 2.2.02.58.06 1.16.11 1.74s.09 1.17.23 1.73c.17.7.66 1.34 1.29 1.58.51.33 1.09.55 1.66.76.92.34 1.84.65 2.81.76.8.09 1.95.1 2.41-.72.25-.45.2-.99-.05-1.42-.24-.41-.63-.69-1-.97-.8-.6-1.66-1.11-2.56-1.53.4-1.01.76-2.04 1.08-3.09.18.09.4.08.59-.01.23-.11.44-.32.63-.48.29-.26.57-.53.85-.8.67-.65 1.32-1.32 1.97-1.99a21.86 21.86 0 0 0 3.66-5.14c.7-1.37 1.25-2.82 1.76-4.27a.53.53 0 0 0 .03-.41Z" class="cls-10"/></g><path id="Layer_17" d="m135.55 65.33-22.17-2.49.47-6.35s-3.22.66-3.84.11-1.42-1.25-1.73-3.12c-.3-1.87-1.02-8.21-1.02-8.21s-2.49-.13-3.14-.46-1.27-.7-1.13-1.39 2.36-6.91 2.93-8.03c.57-1.11.89-2.21 1.34-4.31.45-2.1 1.32-6.28 3.68-9.02 2.36-2.74 3.69-4.66 7.02-5.43 3.33-.77 5.83-1.51 8.74-.83 2.91.67 6.91 1.75 8.84 3.47 1.93 1.72 3.8 3.77 4.29 5.65.49 1.88.86 5.57.62 7.47-.25 1.9-1.22 7.56-1.74 9.95-.52 2.39-2.29 13.72-2.45 14.27-.17.55-.71 8.72-.71 8.72Z" class="cls-11"/><g id="Layer_6"><path d="M111.81 45.81c-.34.49-.95.75-1.6.86s-1.55 0-2.23-.29c-.31-.13-.66-.09-.84.22-.15.26-.09.71.22.84 1.79.77 4.3.76 5.51-1.02.19-.27.05-.68-.22-.84-.3-.18-.65-.06-.84.22Z" style="fill:#a08675"/><path d="M112.94 34.36c.79 0 .79-1.23 0-1.23s-.79 1.23 0 1.23Z" class="cls-15"/><path d="M140.16 24.04c-1.92-4.58-6.55-7.3-11.22-8.38-4.72-1.1-10.08-.79-14.25 1.85-2.27 1.44-3.98 3.54-5.28 5.88-1.38 2.49-2.41 5.21-2.88 8.01-.11.65-.19 1.31-.25 1.98-1.03 1.92-1.99 3.89-2.76 5.94-.39 1.03-.72 2.09-.96 3.17-.12.52-.31 1.13-.16 1.66.16.57.74.88 1.23 1.12.95.45 1.98.68 3.02.67.06.54.14 1.09.22 1.63.12.81.19 1.59.29 2.39.11.91.23 1.83.38 2.74.13.8.22 1.64.48 2.41.26.77.73 1.42 1.49 1.75.57.25 1.21.37 1.83.39.62.02 1.24-.02 1.86-.09-.21 2.82-.3 5.64-.26 8.47.01.79 1.24.79 1.23 0-.04-2.88.05-5.76.27-8.63.09-.01.19-.03.28-.04 1.14-.16 2.3-.35 3.42-.63.77-.19.44-1.38-.33-1.19-.91.23-1.85.39-2.78.54-1.04.16-2.06.3-3.16.34h-.64c-.08 0-.16-.01-.25-.02-.09-.02-.19-.03-.28-.05-.65-.13-1.18-.38-1.44-1.02s-.34-1.42-.46-2.11c-.14-.82-.26-1.64-.36-2.46-.11-.92-.19-1.84-.32-2.75-.1-.69-.21-1.39-.27-2.08.03-.07.04-.14.04-.23 0-.12-.05-.26-.13-.37a.597.597 0 0 0-.99-.21c-.77.02-1.53-.1-2.26-.39-.19-.08-.39-.17-.57-.27-.08-.05-.33-.15-.36-.21-.07-.13.05-.45.08-.58l.15-.69c.47-1.97 1.22-3.85 2.08-5.68.48-1.02.99-2.02 1.53-3.01.05-.1.08-.2.08-.29v-.02c.21-2.74.98-5.44 2.14-7.92 1.1-2.34 2.51-4.59 4.52-6.24 3.58-2.93 8.64-3.55 13.07-2.82 4.34.72 8.9 2.79 11.19 6.71 2.74 4.7 1.3 10.47.35 15.46-1.07 5.65-2.12 11.31-2.99 17l-.33 2.18V58.12l-.49 9.62c-.02.33.3.62.62.62.35 0 .6-.28.62-.62l.49-9.6c.85-5.85 1.9-11.68 3-17.49.54-2.84 1.18-5.69 1.45-8.58.25-2.69.11-5.48-.95-8Z" class="cls-15"/></g><g id="Layer_18"><path d="M139.07 22.38a.44.44 0 0 0-.31-.19.534.534 0 0 0-.22-.02c-4.96.58-9.93 1.17-14.89 1.75-.14-.2-.28-.41-.42-.61-.43-.6-1.42-.02-.99.58 2.56 3.61 4.02 7.52 3.32 11.97-.09.21-.05.41.07.55.25.38.93.44 1.02-.12v-.03c.51-.85 1.25-1.68 2.31-1.74.98-.05 1.79.75 2.33 1.49.92 1.29 1.29 2.88 1.63 4.4 0 .04.01.08.03.13.01.05.03.09.05.13.88 2.53 2.4 4.88 4.44 6.61.22.18.47.17.67.07a.62.62 0 0 0 .48-.53c.54-4.46 1.95-8.76 2.4-13.23.37-3.62.43-8.21-1.92-11.22Z" style="fill:#6a4a6b"/><path d="M138.05 21.25h-.4a.507.507 0 0 0-.17-.34 16.56 16.56 0 0 0-6.8-4.26c0-.25-.12-.5-.43-.59-5.99-1.89-14.77-2.53-19.14 2.97l-.03.06-.01.01c-.06.06-.1.12-.13.2-.04.07-.06.15-.05.24l.02.16c.03.1.08.19.16.27l.05.04c.07.08.17.14.31.17 2.24.45 4.48.84 6.74 1.16.15.04.29.09.44.14 1.54.54 2.62 1.63 3.77 2.74.08.08.17.13.27.15.08.03.17.05.28.03l14.93-1.75c.18-.02.31-.1.41-.21.57-.22.5-1.21-.21-1.19Zm-15.83-5.31c-2.1.28-4.18.89-6.13 1.78a.624.624 0 0 0-.42-.62c1.98-.88 4.26-1.2 6.55-1.16Zm-8.69 3.19c-.03.06-.05.12-.08.19l-.17-.03c.08-.06.17-.12.25-.17v.01ZM128.17 35.07c.61-.53 1.6-.53 2.22 0 .35.29.56.67.69 1.09.14.48.18.9.16 1.41-.04 1.08-.37 2.17-.79 3.19-.23.56-.5 1.1-.81 1.62-.28.48-.58.98-.98 1.37-.34.33-.85.61-1.27.35-.18-.11-.37-.34-.54-.52a3.58 3.58 0 0 0-.72-.63c-.67-.42-1.29.65-.62 1.06.46.28.78.88 1.29 1.17.66.38 1.48.29 2.13-.09s1.06-.96 1.45-1.55c.39-.59.75-1.26 1.04-1.92.55-1.24.98-2.56 1.05-3.93.06-1.22-.21-2.58-1.14-3.44-1.13-1.04-2.86-1.03-4.01-.04-.25.22-.22.65 0 .87.25.25.62.22.87 0Z" class="cls-15"/></g><g id="Layer_11"><path d="M76.54 124.13s4.48 2.05 6.16 3.65c1.68 1.6 3.46 4.28 4.44 5.87.98 1.59 1.46 6.26 1.29 7.67-.17 1.41-.82 5.92-2.75 8.49-1.93 2.58-2.03 3.49-5.19 4.25-3.16.76-4.98 1.36-7.8 0-2.82-1.36-4.6-2.32-6-3.82-1.4-1.5-3.41-3.45-4.07-5.27-.66-1.83-1.19-2.49-1.45-3.92-.26-1.43-.66-5.02-.66-5.02s1.46-16.24 16.02-11.89Z" class="cls-2"/><path d="M79 148.31c.55-.47 2.8-3.41 3.12-4.56.32-1.15 1.04-3.45.59-5.46s-.61-3.3-1.53-5.35c-.93-2.05-3.04-5.8-3.87-7-.83-1.2-3.86-5.21-4.76-6.37l-5.4-6.94c-.56-.72-3.44-4.35-3.89-5.08s-1.46-2.65-1.46-2.65.8-1.26.93-1.89.77-3.98.96-5.4c.18-1.42.75-5.22.44-5.87s-1.23-2.62-1.84-3.78c-.61-1.16-1.92-3.58-2.56-4.64-.63-1.06-.07-.9-.87-1.27s-3.46-2.02-4.23-2.47-1.99-2.24-2.6-2.08-1.39.56-1.51 1.25.08 2.5.49 3.3c.41.81 1.05 2.32 1.9 2.86s2.53 1.67 2.53 1.67l1.22 4.13.12.78s-1.8-.98-2.44-1.54-2.13-1.41-2.13-1.41l-.62 1.63 1.08 2.43 1.96 3.89-2.43 1.37s-.55-1.08-.98-1.37-1.67-3-1.67-3l-.18-1.72s.91-.61 1.22-.81.67-1.44 1.15-1.93.2-1.33-.04-1.27-2.04.1-2.57.19-1.87 1.18-1.87 1.18l-1.53-2.92s.69-2.95.98-3.51 1.05-2.76 1.05-2.76-.29-1.59-.7-1.85-1.69-.24-1.98.06-1.95 2.56-1.95 2.56l-1.24-2.56s.99-2.72.88-3.51-.52-1.95-.77-2.23-1.06-.18-1.06-.18l-1.37 1.19s-1.15-3.09-1.33-3.25-1.93-1.07-1.93-1.07-.47 1.78-.28 2.83c.19 1.05.86 3.8.91 4.01s.74 2.76.74 2.76-.43 4.33-.44 5.14.38 4.13.38 4.13l1.52.95-.66 3.02s1.12 1.77 1.96 2.44 2.46 1.44 2.67 2.33c.21.9.25 1.85.39 2.49s.38 1.58.88 2.56 2.95 4.78 3.7 5.8 3.36 4.73 3.36 4.73 1.39 4.65 1.96 6.29c.57 1.64 4.47 11.4 4.96 12.48s2.85 6.14 4.19 8.17c1.34 2.03 4.43 6.14 6.34 7.37 1.92 1.23 3.34 2.16 6.11 2.52s3.97-.81 3.97-.81Z" class="cls-11"/><path d="M54.19 121.82c2.37 1.01 5.11 1.09 7.52.15s4.21-2.66 5.28-4.89c.6-1.25.95-2.6 1-3.99.02-.66-1-.66-1.03 0-.08 2.17-.99 4.27-2.49 5.84-1.57 1.64-3.74 2.58-6.01 2.67-1.28.05-2.58-.16-3.77-.67-.25-.11-.55-.08-.7.18-.13.22-.07.59.18.7ZM55.22 124.26c.42.21.87.33 1.34.35.13 0 .27-.06.36-.15s.16-.24.15-.36a.519.519 0 0 0-.51-.51c-.08 0-.17-.01-.25-.02l.14.02c-.22-.03-.44-.09-.65-.18l.12.05c-.06-.02-.12-.05-.18-.08a.552.552 0 0 0-.4-.05c-.12.03-.25.13-.31.24-.06.12-.09.26-.05.4.04.12.12.25.24.31ZM58.27 124.69h.81c.13 0 .27-.06.36-.15s.16-.24.15-.36-.05-.27-.15-.36-.22-.15-.36-.15h-.81c-.13 0-.27.06-.36.15s-.16.24-.15.36.05.27.15.36.22.15.36.15ZM61.01 124.3l.63-.09c.07-.02.13-.05.17-.09.06-.04.1-.08.13-.14a.33.33 0 0 0 .06-.19c.01-.07.01-.14 0-.21a.563.563 0 0 0-.24-.31l-.12-.05a.615.615 0 0 0-.27 0l-.63.09c-.07.02-.13.05-.17.09-.06.04-.1.08-.13.14a.33.33 0 0 0-.06.19c-.01.07-.01.14 0 .21.04.12.12.24.24.31l.12.05c.09.02.18.02.27 0ZM63.57 123.46l.52-.3c.06-.03.11-.08.14-.13.05-.05.08-.11.09-.17.02-.07.02-.14 0-.21a.33.33 0 0 0-.06-.19.531.531 0 0 0-.31-.24l-.14-.02c-.09 0-.18.02-.26.07l-.52.3c-.06.03-.11.08-.14.13-.05.05-.08.11-.09.17-.02.07-.02.14 0 .21 0 .07.02.13.06.19.07.11.18.21.31.24l.14.02c.09 0 .18-.02.26-.07ZM65.76 122.03l.61-.65c.09-.1.15-.23.15-.36 0-.07-.01-.14-.05-.2a.355.355 0 0 0-.11-.16c-.1-.09-.23-.16-.36-.15s-.27.05-.36.15l-.61.65c-.09.1-.15.23-.15.36 0 .07.01.14.05.2.02.06.06.12.11.16.1.09.23.16.36.15s.27-.05.36-.15ZM67.62 119.84l.36-.54a.33.33 0 0 0 .06-.19c.01-.07.01-.14 0-.21a.393.393 0 0 0-.09-.17.348.348 0 0 0-.14-.13.552.552 0 0 0-.4-.05l-.12.05c-.08.05-.14.11-.18.18l-.36.54a.33.33 0 0 0-.06.19c-.01.07-.01.14 0 .21.02.07.05.13.09.17.04.06.08.1.14.13.12.06.26.09.4.05l.12-.05c.08-.05.14-.11.18-.18ZM68.95 117.42v-.12l-.02.14c.01-.08.03-.15.06-.22l-.05.12c.03-.07.07-.13.11-.19l-.08.1s0-.01.01-.01c.05-.05.09-.1.11-.16.03-.06.05-.13.05-.2s-.01-.14-.05-.2a.355.355 0 0 0-.11-.16c-.1-.09-.23-.16-.36-.15l-.14.02a.53.53 0 0 0-.23.13c-.06.07-.11.14-.16.22s-.08.17-.11.25c-.02.05-.03.1-.04.15-.01.09-.03.19-.03.28 0 .07.01.14.05.2.02.06.06.12.11.16.05.05.1.09.16.11.06.03.13.05.2.05l.14-.02a.53.53 0 0 0 .23-.13c.09-.1.15-.22.15-.36ZM69.4 115.48s-.02-.06-.02-.09l.02.14v-.13l-.02.14.03-.13-.05.12s.03-.07.06-.1a.33.33 0 0 0 .06-.19c.01-.07.01-.14 0-.21a.393.393 0 0 0-.09-.17.348.348 0 0 0-.14-.13l-.12-.05a.615.615 0 0 0-.27 0l-.12.05c-.08.05-.14.11-.18.18-.05.07-.08.15-.11.22-.02.04-.03.08-.03.12-.01.08-.03.17-.02.25 0 .06.01.13.02.19 0 .02.01.04.02.06.02.07.05.13.09.17.04.06.08.1.14.13.06.04.12.06.19.06.07.01.14.01.21 0l.12-.05c.08-.05.14-.11.18-.18l.05-.12c.02-.09.02-.18 0-.27Z" class="cls-14"/><path d="M56.47 126.85c2.6.57 5.34.25 7.76-.86 2.27-1.04 4.17-2.85 5.4-5.03.68-1.21 1.16-2.54 1.38-3.9.05-.27-.07-.55-.36-.63-.25-.07-.58.08-.63.36a11.38 11.38 0 0 1-3.01 5.99c-1.67 1.73-3.88 2.83-6.25 3.21-1.33.21-2.71.17-4.02-.12-.64-.14-.92.85-.27.99Z" class="cls-14"/><path d="M72.82 119.9a.519.519 0 0 0-.51-.51c-.27 0-.52.23-.51.51.05 1.18.04 2.35 0 3.53a7.89 7.89 0 0 0-3.42.64c-.05.02-.09.06-.13.09-.13.06-.24.18-.28.33l-.92 3.28c-1.17-.27-2.36-.44-3.55-.5-.11 0-.2.03-.29.09-.13.03-.24.11-.32.23l-1.72 2.62c-1.17-.62-2.29-1.33-3.35-2.13-.22-.17-.57-.03-.7.18-.15.26-.04.54.18.7 1.1.83 2.27 1.56 3.49 2.2.07.04.14.05.22.06.03.03.06.05.09.07.26.14.54.06.7-.18l1.84-2.81c1.13.07 2.25.23 3.35.5.04 0 .07.01.11.01.05.04.1.06.16.08.27.07.56-.09.63-.36l1.01-3.6c1.02-.43 2.13-.57 3.24-.47.17.01.32-.08.41-.22a.53.53 0 0 0 .25-.44c.06-1.31.07-2.61.01-3.92Z" class="cls-14"/><path d="M64.43 130.81c.66 0 .66-1.03 0-1.03s-.66 1.03 0 1.03ZM70.11 127.17c.66 0 .66-1.03 0-1.03s-.66 1.03 0 1.03ZM73.53 122.56l.14.14s.1.09.16.11c.06.03.13.05.2.05s.14-.01.2-.05c.06-.02.12-.06.16-.11l.08-.1c.05-.08.07-.17.07-.26l-.02-.14a.53.53 0 0 0-.13-.23l-.14-.14s-.1-.09-.16-.11a.455.455 0 0 0-.2-.05c-.07 0-.14.01-.2.05-.06.02-.12.06-.16.11l-.08.1c-.05.08-.07.17-.07.26l.02.14c.02.09.07.16.13.23ZM59.03 132.03h.14c.07 0 .14-.01.2-.05.06-.02.12-.06.16-.11.05-.05.09-.1.11-.16.03-.06.05-.13.05-.2l-.02-.14a.53.53 0 0 0-.13-.23l-.1-.08a.484.484 0 0 0-.26-.07h-.14c-.07 0-.14.01-.2.05-.06.02-.12.06-.16.11-.05.05-.09.1-.11.16-.03.06-.05.13-.05.2l.02.14c.02.09.07.16.13.23l.1.08c.08.05.17.07.26.07Z" class="cls-14"/></g><g id="Layer_5"><path d="M89.04 139.58c-.09-2.48-.66-4.95-1.79-7.16-1.03-2.02-2.52-3.78-4.27-5.21-2.11-1.72-4.52-2.99-7.04-3.99-.31-.12-.67.13-.76.43-.1.35.12.63.43.76 4.06 1.61 7.97 4.1 10.19 7.94 2.31 4 2.56 9.03 1.12 13.4-.81 2.47-2.2 4.75-4.09 6.57-.84.62-1.79 1.09-2.79 1.4-2.22.7-4.57.6-6.8-.12-4.65-1.51-8.31-5.4-10.33-9.76a19.57 19.57 0 0 1-1.8-7.82c-.02-.79-1.25-.79-1.23 0 .1 5.2 2.21 10.3 5.78 14.06 3.54 3.73 8.84 6.3 14.04 5.01 1.38-.34 2.71-.95 3.85-1.79l.02-.02a9.546 9.546 0 0 0 2.55-2.78c.08-.14.1-.28.08-.4 1.97-3.11 2.95-6.84 2.82-10.52Z" class="cls-2"/><path d="M40.11 62.23zM82.14 133.76c-1.07-2.97-2.67-5.74-4.46-8.34-1.84-2.68-3.88-5.21-5.87-7.78l-5.97-7.67c-.03-.06-.07-.13-.11-.18l-.68-.83-.48-.62-.02-.02c-.31-.41-.61-.83-.9-1.28-.46-.73-.83-1.51-1.23-2.27.25-.29.48-.59.69-.9.04-.05.07-.1.09-.15.02-.05.04-.11.05-.17.83-3.76 1.37-7.58 1.6-11.42 0-.13-.04-.26-.12-.36 0-.11-.02-.22-.07-.32a91.358 91.358 0 0 0-5.03-9.48.653.653 0 0 0-.24-.23.506.506 0 0 0-.21-.2 24.617 24.617 0 0 1-6.56-4.2c-.08-.24-.31-.44-.58-.43-.92.03-1.68.65-2.03 1.49-.39.92-.23 1.97.06 2.89a9.166 9.166 0 0 0 2.68 4.15c.64.57 1.36 1.05 2.14 1.41.44 1.22.85 2.46 1.24 3.69a14.868 14.868 0 0 0-3.59-2.51c-.01 0-.02 0-.04-.01-.07-.19-.16-.37-.27-.54-.17-.25-.51-.39-.8-.24l-.75-.03a.83.83 0 0 0-.06-.21c-.88-1.86-1.74-3.73-2.58-5.61.16-.42.28-.85.33-1.3.14-1.37-.67-2.8-2.14-2.95h-.05c0-.01-.01-.03-.02-.04-.01-.03-.03-.07-.03-.08-.03-.08-.07-.17-.11-.25-.09-.22-.18-.43-.26-.65-.18-.46-.37-.91-.54-1.37-.4-1.02-.79-2.05-1.17-3.08-.76-2.05-1.51-4.1-2.25-6.15l-.96-2.67a.755.755 0 0 0-.23-.32c-.11-.17-.29-.29-.5-.27-.73.07-1.42.2-2.1.49-.59.26-1.13.61-1.69.94-.12.07-.2.18-.26.31 0 0 0 .02-.01.03 0 .02-.02.05-.02.07v.16c0 .04 0 .09.02.13s0 .03.01.04c.26 1.04.6 2.07.94 3.09.14.44.29.88.44 1.32-.33-.17-.69-.31-1.04-.33-.58-.03-1.01.39-1.09.95-.06.45-.02.92 0 1.37.07.95.24 1.88.45 2.8.2.88.38 1.77.57 2.65.22 1 .46 2 .75 2.98 0 .03.02.06.04.09-.25 1.55-.44 3.11-.46 4.68-.02 1.38.1 2.77.4 4.12.04.2.2.34.38.41.25.21.52.39.83.51.06.02.12.04.19.05-.27.93-.47 1.88-.56 2.84-.01.14.04.27.13.38.69 1.77 2.41 2.64 3.7 3.93.58.58 1.12 1.32 1.13 2.14.01.81.15 1.51.41 2.25.56 1.59 1.41 3.09 2.34 4.49.99 1.47 2.04 2.92 3.11 4.33.63.84 1.3 1.65 2 2.44.92 3.29 1.97 6.55 3.15 9.76 1.19 3.23 2.5 6.42 3.92 9.55 1.34 2.96 2.74 5.92 4.48 8.68 1.73 2.76 3.68 5.17 6.17 7.12 2.42 1.89 5.5 3.46 8.65 2.89.36-.07.71-.16 1.05-.29.04-.01.09-.03.13-.06 2.4-1.34 4.01-3.79 4.67-6.41.79-3.1.27-6.4-.8-9.37ZM52.3 90.23c.14-.25.24-.51.3-.79 1.11.62 2.09 1.37 2.99 2.28-.64.61-1.18 1.33-1.58 2.12-.59-1.14-1.17-2.28-1.73-3.43-.01-.02-.03-.04-.04-.07.02-.04.05-.07.07-.11ZM37.17 74.32c-.17-.8-.38-1.59-.5-2.39-.11-.7-.22-1.46-.17-2.18.16.05.31.12.46.2.39.21.72.48 1.02.81.05.06.11.1.18.13a148.013 148.013 0 0 0 .84 2.26c-.11.13-.22.26-.32.4-.62.85-.86 1.84-1.05 2.85-.16-.69-.3-1.39-.45-2.08Zm1.64 13.59c-.06-.01-.13-.03-.19-.05-.11-.05-.21-.12-.31-.19-.04-.03-.08-.07-.12-.1-.44-2.14-.36-4.34-.1-6.49.14-1.12.33-2.23.53-3.34.19-1.02.3-2.15.8-3.07.46-.83 1.2-1.46 1.97-2 .59.66.8 1.54.77 2.44-.06 1.3-.67 2.52-1.26 3.67-.11.22-.1.47.03.66v.04c.09.48.18.96.3 1.43.1.38.21.75.33 1.12-.54.95-1.04 1.92-1.5 2.91-.45.97-.88 1.96-1.25 2.99h-.02Zm5.31 11.11s0 .02 0 0Zm37.87 42.59c-.38 2.75-1.85 5.44-4.3 6.83-2.75.95-5.65-.35-7.9-1.96-2.46-1.75-4.44-4.13-6.09-6.64-1.73-2.64-3.12-5.49-4.43-8.35-1.4-3.04-2.7-6.12-3.87-9.26-1.03-2.76-1.97-5.55-2.82-8.37.55.4 1.31-.41.78-.94a49.87 49.87 0 0 1-1.67-1.78c-.06-.06-.12-.13-.18-.19-.26-.3-.52-.6-.78-.91-.11-.14-.22-.27-.33-.41-.09-.12-.27-.34-.31-.4-1.09-1.42-2.12-2.89-3.15-4.35-.89-1.27-1.74-2.7-2.31-4.11-.15-.38-.28-.76-.39-1.15-.04-.16-.08-.33-.11-.49 0-.03-.01-.07-.02-.11v-.03c-.01-.09-.02-.19-.02-.28-.02-.44-.02-.87-.16-1.3-.15-.46-.39-.89-.68-1.28-.65-.86-1.49-1.49-2.32-2.16-.74-.6-1.5-1.27-1.8-2.18.03-.34.08-.63.18-1.06.1-.49.22-.93.36-1.38.05-.16.1-.31.15-.47.07-.09.1-.2.1-.32.25-.72.52-1.44.81-2.11.58-1.34 1.23-2.65 1.97-3.91.07-.07.12-.16.15-.25.32-.54.66-1.08 1.01-1.6.12-.18.25-.36.38-.54l.22-.31.07-.1.07-.1c-.03.05-.03.04.01-.02.28-.36.57-.73.91-1.04.17-.16.37-.25.5-.25h.1l.13.03c.13.03.16.05.29.13.16.1.32.26.41.42.11.19.18.47.19.75.02 1.33-.94 2.47-1.4 3.66-.26.68-.37 1.41-.5 2.12-.19.99-.45 2.07-.83 2.94-.56 1.26-1.38 2.35-2.39 3.29-.58.54.29 1.41.87.87.82-.76 1.53-1.63 2.09-2.59l.05.02c.08.02.16.02.25.01h.15c.03 0 .06.02.1.03.03.01.05.03.08.04l.06.06c-.52.71-1 1.46-1.51 2.17-.07.1-.1.23-.08.35 0 .03-.01.06-.01.1-.05 1.81.23 3.63.81 5.34.11.31.42.52.76.43.31-.08.54-.44.43-.76-.54-1.6-.8-3.26-.77-4.95 1.01-1.43 1.89-3.03 3.29-4.05.07-.02.13-.07.19-.12.04-.01.09-.03.13-.04.13-.04.25-.07.38-.09l.17-.03c.02 0 .07-.01.09-.01l.36-.03c.48-.03.95 0 1.43.02v.02c.01.04.02.09.04.14 0 0 0 .04.01.06l.01.11v.32c-.01.08-.03.16-.05.24-.01.03-.02.07-.03.11v.03c-.04.09-.08.17-.14.24 0 0-.02.02-.03.04-.02.02-.07.08-.08.09-.07.08-.15.15-.23.22-.02.01-.08.06-.03.02-.04.03-.09.06-.13.09l-.27.18c-.39.25-.79.49-1.19.74-.07.04-.13.1-.18.17-.17.11-.27.29-.29.51-.02.24-.04.47-.07.71 0 .05-.02.16 0 .05 0 .06-.02.13-.03.19l-.06.35c-.08.47-.18.93-.3 1.38-.06.23.02.49.2.64.05.14.14.28.27.34.31.15.6.36.87.58.25.19.51.39.71.63.08.09.21.15.34.17l.75 1.35c.05.09.11.16.18.2.01.23.14.45.43.53 2.41.66 4.12 3.08 3.99 5.55-.02.33.3.62.62.62.35 0 .6-.28.62-.62.14-2.6-1.44-5.13-3.73-6.29.65-.29 1.21-.75 1.63-1.35.11-.16.11-.39.02-.57a.56.56 0 0 0-.08-.27c-.16-.29-.31-.59-.47-.88.1-.05.19-.12.23-.23.13-.29.27-.58.44-.85.08-.13.16-.26.25-.39l.14-.2s.02-.03.04-.05c.02-.02.05-.06.05-.06.19-.24.41-.47.63-.69.08-.08.17-.16.26-.24v.02c.23.76 1.42.43 1.19-.33-.57-1.89-1.18-3.76-1.84-5.61 0-.23-.08-.47-.3-.56a8.06 8.06 0 0 1-3.24-2.5c-.39-.51-.75-1.13-1-1.71-.29-.67-.52-1.43-.5-2.16.01-.36.11-.71.3-.95.11-.15.23-.25.37-.32.03-.01.05-.03.08-.04 2.02 1.81 4.32 3.31 6.81 4.39h.03c1.85 3.06 3.52 6.21 5.01 9.46 0 .01.02.02.02.04v.02c-.23 3.74-.75 7.45-1.56 11.11-.07.11-.15.22-.22.32-.01.02-.11.15-.02.03-.02.03-.04.05-.06.08-.05.07-.1.13-.16.19-.22.27-.46.52-.71.77s-.49.47-.75.69l-.19.16c-.03.02-.06.05-.1.08 0 0-.01 0-.02.01-.13.1-.27.2-.4.29-.27.18-.41.55-.22.84.17.26.56.41.84.22.52-.36 1.01-.75 1.48-1.19.35.67.69 1.35 1.09 1.99.5.79 1.08 1.53 1.66 2.25l5.72 7.35c1.95 2.51 3.95 4.99 5.8 7.58 1.76 2.45 3.39 5.02 4.6 7.8 1.21 2.78 2.01 5.9 1.59 8.95Zm-35.51-52.5s-.02.02-.02.03c-.06-.05-.11-.09-.17-.13-.11-.08-.25-.14-.38-.18-.1-.03-.2-.05-.3-.06.11-.25.2-.51.29-.78.2.37.39.75.59 1.12Z" class="cls-15"/></g><g id="Layer_7"><path d="M87.56 36.4c-.01-.54-.03-1.07-.06-1.61.03-.69.08-1.37.03-2.05-.07-1.12-.38-2.26-1.05-3.17-.77-1.05-1.87-1.63-3.14-1.8-1.5-.21-3.05-.11-4.56-.11-6.35-.03-12.71-.07-19.06-.11-6.37-.03-12.74-.09-19.1-.1-6.3-.02-12.61.06-18.87.74-2.29.25-5.17.66-6.43 2.86-.67 1.17-.72 2.58-.78 3.89l-.03.8a.88.88 0 0 0-.02.17V46.78c0 .87-.01 1.74 0 2.6.01.69.06 1.4.31 2.05.55 1.45 1.89 2.1 3.35 2.29 1.59.21 3.25.09 4.85.08 1.82-.01 3.63-.02 5.45-.04 3.61-.03 7.21-.07 10.82-.12 7.24-.1 14.47-.23 21.71-.39 3.61-.08 7.21-.17 10.82-.27l5.44-.15c1.73-.05 3.52 0 5.24-.23 1.45-.2 2.72-.86 3.53-2.11.69-1.08.94-2.37 1.1-3.63.42-3.46.56-6.96.48-10.45Z" class="cls-8"/><path d="M61.71 35.96c-3.74 0-7.48.02-11.22.05-1.03 0-2.06.02-3.1.03-.64 0-1.26.56-1.23 1.23s.54 1.24 1.23 1.23c3.69-.03 7.38-.07 11.07-.08h3.24c.64 0 1.26-.57 1.23-1.23s-.54-1.23-1.23-1.23ZM61.71 42.58c-4.68 0-9.36.03-14.04.08-4.58.04-9.17.1-13.75.13-2.67.02-5.34.03-8.01.03-.64 0-1.26.57-1.23 1.23.03.66.54 1.23 1.23 1.23 4.68 0 9.36-.03 14.04-.08s9.17-.1 13.75-.13c2.67-.02 5.34-.03 8.01-.03.64 0 1.26-.57 1.23-1.23s-.54-1.23-1.23-1.23Z" class="cls-4"/></g><g id="Layer_16"><circle cx="75.15" cy="40.09" r="6.76" class="cls-5"/><path d="M78.45 39.59c-.02-.06-.31-.59-.85-1.26s-.02-.04-.02-.06c-.06-.7-.16-1.17-.16-1.17a.191.191 0 0 0-.16-.15l-.56-.07h-.01c-.07 0-.12.05-.12.12v.19c-.33-.3-.71-.59-1.13-.85a.538.538 0 0 0-.56 0c-1.93 1.19-3 3.13-3.04 3.24s-.02.05-.02.08c0 .09.06.16.14.19l.56.11c.07.02.13.08.14.16 0 .1.11 2.29.24 2.86.02.08.1.14.18.14.32 0 .62-.01.94-.02h.03s.06-.03.06-.06c-.01-.19-.04-.63-.06-1.09v-.04s-.02-.08-.06-.09a.591.591 0 0 1-.29-.48c-.03-.77-.04-1.66 0-2.36 0-.06.05-.1.11-.1s.11.05.11.11c-.03.47-.03 1.02-.02 1.56 0 .07.06.13.14.13.07 0 .13-.06.13-.14-.01-.55 0-1.1.02-1.56 0-.06.05-.1.11-.1s.11.05.11.11c-.03.47-.03 1.02-.02 1.55 0 .07.06.13.14.13.07 0 .13-.06.13-.13-.01-.54 0-1.09.02-1.55 0-.06.05-.1.11-.1s.11.05.11.11c-.04.69-.03 1.54 0 2.29v.02c0 .21-.1.4-.26.5-.03.02-.05.05-.05.09 0 0-.01.11.04.67.02.24.04.41.05.49s.03.05.06.05h1.16s.06-.02.06-.05c.07-.67.09-1.05.09-1.05 0-.03-.03-.06-.06-.06l-.38-.05c-.06-.01-.1-.05-.11-.09v-.06c.16-2.23.89-2.99.89-2.99l.03-.03c.02-.01.04-.02.07-.02.05 0 .09.03.11.08 0 0 0 .02.01.05.06.7.03 1.9 0 2.83-.03.79-.07 1.41-.07 1.41s.02.05.05.05c.21 0 .41 0 .63.01.09 0 .16-.06.18-.14.13-.57.24-2.76.24-2.86 0-.08.07-.14.14-.16l.56-.11c.08-.02.14-.1.14-.19 0-.03 0-.06-.02-.08Z" class="cls-8"/></g><g id="Layer_10"><path d="M46.08 16.05s0-.02-.01-.03c-.15-.35-.31-.7-.48-1.04-1.22-2.46-3.15-4.64-5.59-5.87-1.17-.72-2.44-1.29-3.76-1.67-3.21-.92-6.66-.6-9.81.43-1.63.54-3.27 1.22-4.68 2.2-1.39.96-2.47 2.23-3.34 3.67-.26.42-.5.86-.73 1.31-1.8 2.97-2.31 6.7-1.83 10.1.51 3.67 2.29 7.07 4.9 9.68 2.65 2.65 6.28 4.8 10.12 4.75.71 0 1.43-.08 2.14-.19l5.85 5.79s.02.01.02.02c.11.12.26.2.45.2.32 0 .63-.28.62-.62-.11-2.54-.14-5.09-.11-7.64.8-.43 1.57-.92 2.29-1.5 2.76-2.22 4.59-5.52 5.22-8.99.64-3.55.15-7.3-1.27-10.62Z" style="fill:#ffd066"/><path d="M39.95 44.8c-.11-2.54-.14-5.09-.11-7.64.8-.43 1.57-.92 2.29-1.5 2.55-2.05 4.3-5.02 5.05-8.19l-6.57-.03c-6.3-.02-12.61.06-18.87.74-1.52.16-3.3.4-4.69 1.19a17.66 17.66 0 0 0 3.71 5.47c2.65 2.65 6.28 4.8 10.12 4.75.71 0 1.43-.08 2.14-.19l5.85 5.79s.02.01.02.02c.11.12.26.2.45.2.32 0 .63-.28.62-.62Z" style="fill:#f6c243"/><path d="M39.08 26.68a.54.54 0 0 0-.38-.32c-.63-.38-1.06-.99-1.24-1.72-.22-.88-.14-1.8-.17-2.7-.03-.97-.22-1.84-.68-2.7-.21-.39-.45-.77-.73-1.12-.3-.36-.69-.64-1.09-.87-.78-.44-1.66-.69-2.55-.74.02-.49.03-.98.05-1.46.01-.32-.29-.63-.62-.62a.63.63 0 0 0-.62.62c-.02.49-.03.98-.05 1.47-.73.06-1.45.25-2.11.57-.42.2-.84.46-1.17.78-.32.31-.57.7-.8 1.08-.22.39-.43.79-.57 1.21-.15.46-.21.94-.24 1.42-.06.9.04 1.82-.12 2.71-.15.87-.59 1.62-1.35 2.06-.66.13-.62 1.22.13 1.22h4.14c-.03 1.15.5 2.34 1.6 2.84 1.28.57 2.93.2 3.6-1.1.28-.54.39-1.14.41-1.75h3.89c.26.05.53-.05.67-.29a.63.63 0 0 0 0-.61Z" class="cls-5"/></g><path d="M98.77 70.48c17.86 7.55 37.25 9.79 56.35 6.41.69-.12 1.2-.42 1.56-.81-.91-.67-1.82-1.33-2.75-1.97-1.26-.86-2.55-1.69-3.87-2.48-15.89 2.18-32.29.15-47.16-5.91-1.42.8-2.79 1.7-4.05 2.75-.43.36-.85.73-1.25 1.11.26.36.64.66 1.17.89ZM167.2 88.17c-.95-1.33-1.92-2.63-2.93-3.91-.36-.45-.72-.91-1.08-1.36-11.61 2.5-23.41 4.55-35.33 3.84-12.36-.74-23.85-5.31-35.09-10.18l-.21.42c-.8 1.65-1.57 3.31-2.34 4.98 11.73 5.08 23.61 9.75 36.51 10.72 13.62 1.02 27.22-1.58 40.48-4.5ZM126.75 109.22c16.9.23 33.9.02 50.48-3.66-.85-1.88-1.76-3.73-2.72-5.55-15.32 3.24-31.01 3.42-46.61 3.22-7.64-.1-15.5.16-23.02-1.43-7.1-1.51-13.69-4.56-20.18-7.74-.82 1.82-1.63 3.65-2.45 5.48 6.42 3.15 12.98 6.18 19.96 7.82 8.02 1.88 16.35 1.76 24.54 1.87ZM155.06 122.76c.87 1.14 1.76 2.26 2.65 3.39.49-.08.98-.16 1.48-.24-.34.32-.61.69-.79 1.1.38.48.76.97 1.15 1.45-.32.41-.64.81-.98 1.2.25.33.6.63 1.09.86 7.28 3.38 13.34 8.53 17.74 15.15 1.19-1.85 2.3-3.75 3.33-5.69-4.71-6.26-10.87-11.31-18.03-14.64 6.85-1.12 13.7-2.14 20.67-2.22-.5-2.01-1.07-4.01-1.69-5.99-8.33.26-16.56 1.73-24.78 3.1-1.11.19-2.23.36-3.34.53.5.67 1.01 1.34 1.52 2M152.88 126.9c.03-.49.07-.98.1-1.47.09-1.54.17-3.08.23-4.62-8.51 1.28-17.06 2.07-25.69 1.8-17.43-.55-34.15-5.81-48.69-15.33-.81 1.86-1.63 3.72-2.43 5.59 14.61 9.43 31.45 14.75 48.85 15.66 9.25.48 18.48-.27 27.63-1.62ZM150 137.17c-18.84 1.62-38.53 2.46-56.01-4.74-11.28-4.65-5.11 4.04-2.3 5.52.68-.86 1.35-1.72 2.02-2.58.06 1.08.13 2.15.19 3.23 18.31 4.62 37.28 6.2 56.1 4.58.52-.04.97-.2 1.35-.42.18-1.45.35-2.91.51-4.37.05.03.11.06.16.08.02 0 .04 0 .06.01.05.08.12.14.19.2.17.13.33.27.5.4-.3-1.14-1.22-2.04-2.78-1.91ZM121.42 150.74c-4.8-.63-9.54-1.69-14.15-3.17-4.3-1.39-8.45-2.97-12.99-3.1.13 2.01.28 4.03.43 6.04 4.53.29 8.73 2.24 13.06 3.51 4.46 1.31 9.04 2.16 13.65 2.74 1.47.18 2.95.33 4.43.45.63-.06 1.2-.12 1.54-.15 1.14-.11 1.88-.57 3.62-.07.4.12 1.07.33 1.86.58 4 .09 8.01 0 12.02-.22-.61-.59-1.4-1.27-1.23-1.44 1.75-1.77 3.06-3.57 3.4-4 .13-.17.34-.43.57-.73-8.73.59-17.53.71-26.21-.43ZM157.19 131.91c-.62-.38-1.24-.5-1.8-.44a24.32 24.32 0 0 0-2.59 3.78c.15.7.57 1.37 1.36 1.85 6.5 3.95 11.34 10.18 13.62 17.33.54.73 1.07 1.47 1.59 2.21.19.27.53.39.82.23.22.08.46.01.65-.14 1.06-.86 2.05-1.8 2.98-2.81-2.55-9.09-8.39-16.99-16.63-22.01Z" class="cls-6"/><path d="M92.66 102.51c-.66.02-.88 8.85-.48 19.72.4 10.86 1.26 19.65 1.92 19.63.66-.02.88-8.85.48-19.72-.4-10.86-1.26-19.65-1.92-19.63ZM77.84 123.57c-.17.31.82 1.12 2.24 2.46.35.34.74.7 1.13 1.13.41.4.8.87 1.23 1.34.82.98 1.67 2.09 2.45 3.33.77 1.25 1.41 2.49 1.93 3.66.24.59.49 1.15.67 1.69.21.53.37 1.04.52 1.51.6 1.86.89 3.1 1.25 3.08.31 0 .62-1.3.42-3.43a13.2 13.2 0 0 0-.27-1.72c-.11-.62-.31-1.25-.52-1.93a20.6 20.6 0 0 0-1.96-4.14c-.88-1.38-1.88-2.58-2.88-3.57-.52-.48-1-.94-1.51-1.31-.49-.39-.97-.71-1.43-.99-1.82-1.1-3.13-1.38-3.27-1.11ZM144.16 102.61c-.59.3 1.32 5.3 4.27 11.16 2.95 5.87 5.83 10.38 6.42 10.08s-1.32-5.3-4.27-11.16c-2.95-5.87-5.83-10.38-6.42-10.08Z" class="cls-13"/><path d="M166.1 123.15c-.28-.18-.79-.02-1.62.41-.81.43-1.86 1.14-2.94 2.04-1.08.9-1.98 1.82-2.54 2.62-.56.77-.77 1.5-.49 1.68.28.18.79.02 1.62-.41.81-.43 1.86-1.14 2.94-2.04 1.08-.9 1.98-1.82 2.54-2.62.56-.77.77-1.5.49-1.68Z" class="cls-5"/><path d="M156.11 128.36c-.17.33 5.11 3 10.57 7.71 5.5 4.66 8.97 9.46 9.27 9.24.13-.09-.58-1.4-2.02-3.33-1.44-1.93-3.66-4.43-6.46-6.82-2.8-2.39-5.62-4.19-7.75-5.32-2.13-1.12-3.54-1.62-3.6-1.48ZM137.7 159.16c-.06-.15-.87.02-2.13.41-1.25.4-2.98 1-4.8 1.89-1.83.89-3.38 1.88-4.44 2.66-1.07.78-1.66 1.36-1.58 1.49.2.31 3-1.34 6.54-3.07 1.77-.86 3.43-1.59 4.6-2.19 1.18-.59 1.87-1.04 1.81-1.19ZM137.72 182.24c.02-.19-1.23-.42-3.13-1.08-.96-.31-2.05-.8-3.24-1.38a26.98 26.98 0 0 1-3.65-2.27c-2.47-1.81-4.35-3.89-5.63-5.45-1.27-1.58-1.98-2.63-2.14-2.54-.13.07.32 1.28 1.45 3.04 1.14 1.74 3 4.02 5.6 5.92 1.29.95 2.62 1.73 3.88 2.3 1.27.56 2.46.98 3.48 1.2 2.05.47 3.36.41 3.37.26Z" class="cls-5"/><path d="M133.48 171.33c-.06.04.03.32.41.67.37.34 1.08.71 2.04.7.47-.01 1.01-.12 1.52-.41s.97-.78 1.23-1.39c.27-.6.36-1.31.24-2.01-.11-.7-.47-1.42-1.07-1.94-.6-.5-1.35-.76-2.06-.78-.7-.03-1.37.13-1.95.41-.58.27-1.04.71-1.37 1.15-.33.45-.54.92-.66 1.36-.25.88-.19 1.62-.09 2.1.11.48.26.72.34.7.09-.02.09-.28.13-.73.04-.44.12-1.09.42-1.78s.84-1.43 1.7-1.78c.84-.37 2.01-.36 2.76.28.74.62.91 1.8.59 2.61-.29.84-1.08 1.28-1.79 1.38-.72.11-1.33-.06-1.71-.24-.39-.18-.6-.34-.67-.28Z" class="cls-13"/><path d="M137.7 182.85c-.07 0-.1.29-.27.78-.17.48-.52 1.17-1.25 1.76-.36.3-.8.57-1.32.77-.26.09-.53.18-.83.23-.16.04-.25.01-.38.03-.11-.03-.23-.03-.32-.1-.41-.19-.72-.81-.88-1.5-.09-.34-.15-.72-.2-1.1l-.03-.29-.02-.24-.02-.3c-.03-.39-.05-.8-.05-1.25-.33-.08-.46-.16-.53-.17-.01.01-.07.01-.14.01h-.18l-.26-.04-.23.48c-.04.09-.08.15-.12.2l-.12.17-.25.33-.06.08-.03.04-.07.07c-.18.2-.36.37-.55.53-.39.33-.82.61-1.28.78-.45.17-.91.23-1.28.08-.4-.16-.78-.49-1.03-.91-.2-.33-.33-.7-.39-1.07l-.02-.14v-.28c0-.11-.01-.18.02-.32l.1-.42c.06-.27.15-.6.22-.89l.21-.81-1.14.93-.57.44c-.17.1-.31.16-.47.24-.32.12-.59.16-.89.17-.59 0-1.17-.21-1.6-.56-.44-.35-.73-.87-.89-1.41-.08-.27-.12-.55-.14-.83v-.31c0-.07 0-.14.02-.22.01-.14.08-.31.11-.47l.06-.24c.04-.09.09-.19.13-.29-.36-.29-.37-.36-.36-.43-.06.05-.16.09-.58-.06-.52.61-.97.71-1.11.77-.21.07-.43.12-.64.13-.42.03-.83-.05-1.17-.21-.69-.33-1.13-.93-1.37-1.45-.49-1.07-.32-1.8-.44-1.81-.04 0-.13.15-.18.5-.05.34-.06.86.14 1.5.2.62.63 1.39 1.5 1.91.43.25.97.4 1.54.39.28 0 .57-.04.86-.12.07-.02.15-.04.22-.07l.12-.04s.06-.02.09-.04c.07-.03.12-.08.15-.11-.05.08-.08.16-.1.22 0 .03-.01.05-.02.07v.02l-.01.13v.27c0 .36.05.72.14 1.08.19.71.56 1.44 1.2 1.99.63.54 1.46.86 2.32.87.42 0 .89-.07 1.27-.2l.05-.02V182.22l.03.2c.07.54.26 1.06.55 1.53.36.61.92 1.13 1.62 1.4.75.29 1.53.14 2.14-.1.62-.25 1.14-.61 1.6-1 .23-.2.45-.41.64-.63l.07-.08.04-.04v-.03s.04-.05.05-.09c0-.01.01.03.02.05v.06l.02.02.01.06.04.31c.07.42.15.82.27 1.22.12.4.27.79.5 1.15.21.36.55.71.97.89.21.11.44.12.66.15.2-.02.44-.03.59-.08.34-.08.66-.2.95-.33.59-.27 1.07-.63 1.45-1.01.77-.76 1.07-1.6 1.15-2.15.08-.56 0-.86-.06-.86Z" class="cls-5"/></g></svg>