<svg xmlns="http://www.w3.org/2000/svg" viewBox="0 0 200 200"><defs><style>.cls-1{fill:none}.cls-2{fill:#6a4a6b}.cls-3{fill:#f6c243}.cls-4{fill:#e4c7bd}.cls-5{fill:#fff}.cls-6{fill:#fbae5e}.cls-7{fill:#e5a355}.cls-9{fill:#c1dade}.cls-11{fill:#ce9352}.cls-12{fill:#5b3d5b}.cls-14{fill:#78577a}</style></defs><path id="BG_Strong" d="M197.45 72.2c3.09-31.76-40.07-38.66-63.7-33.15-17.06 4.22-29.17 67.35-47.22 24.79-5.74-33.78-58.82-41.17-81.85-22.22-9.96 32.41 1.74 73.13 30.21 93.07 47.83 59.57 168.51 15.5 162.56-62.49Z" style="fill:#575655"/><g id="Illustrations"><g id="Layer_4-2"><path d="M41.21 44.8c-.13-.16-.23-.33-.31-.5 0-.06.01-.12 0-.18.51-.25.41-1.22-.32-1.27-1.5-.11-2.4 1.76-1.32 2.84.45.45 1.44.71 1.94.2.32-.32.28-.76 0-1.09ZM46.91 62.39c-.29-1.35-.66-2.68-1.02-4.01.17-.19.24-.46.09-.75-.21-.41-.42-.83-.63-1.25-.19-.74-.38-1.47-.55-2.22-.16-.73-.48-1.51-1.34-1.55-.11 0-.2.02-.27.05-.13-.18-.25-.35-.39-.52-.22-.29-.52-.28-.75-.13-.28-.24-.78-.29-1.07.09-.57.76-.23 1.78.34 2.43.28.32.65.57 1.05.73.33.13.73.12 1.05.25.41.75.79 1.53 1.17 2.29.44 1.62.9 3.23 1.26 4.87.15.7 1.22.4 1.07-.3Z" class="cls-3"/></g><path id="Layer_7" d="M46.36 73.42s.39-5.18.3-7.24c-.08-2.05-.79-8.84-1.14-10.23-.35-1.39-1.26-3.75-1.26-3.75s-3.97.64-4.91-.81c-.94-1.45-1.72-3.16-1.2-4.04s.5-1.25 2.08-1.57c1.58-.32 2.1-.32 2.1-.32s3.14-4.79 4.33-6.4c1.19-1.61 4.81-4.8 8.32-5.71 3.51-.9 6.74-1.44 9.1-1.06s5.79 2.04 7.22 3.79c1.43 1.75 2.08 5.28 2.19 6.44.1 1.16.11 8.31-.24 10.12-.35 1.81-1.77 6.79-2.57 8.34-.81 1.55-2.1 3.42-2.48 3.77-.38.36-1.23 1.43-1.23 1.43l-.78 8.35s-8.16.54-10.52.34c-2.36-.21-7.42-.48-7.72-.68s-1.59-.76-1.59-.76Z" class="cls-4"/><g id="Chef"><path d="M55.43 136.01c-.07-.22-3.04-17.62-3.04-17.62s10.59-4.37 12.17-4.8c1.58-.44 5.3-1.98 5.3-1.98s.73 9.31.98 10.59c.25 1.27.66 3.63.66 3.63s-5.94 3.42-8.22 4.92c-2.28 1.49-7.85 5.28-7.85 5.28ZM115.3 115.44c.53-.57 7.94-7.98 8.27-8.31.34-.33 4.79-4.26 4.79-4.26l4.63 8.11 2.39 3.64v1.45l-4.78-.14-.12 6.86-4.78 6.71-.23-6.24h-5.6l-4.58-7.83Z" class="cls-4"/><path d="m149.65 115.54.55-3.51s1.56.03 2.19-.36.92-1.46.92-1.46l-.39-.89 2.49-.42-.22 7.16-5.55-.53Z" class="cls-5"/><path d="M51.28 115.72c1.29 6.51 2.37 13.05 3.4 19.6l.84 5.4c.05.32.45.5.74.42.34-.09.47-.41.42-.74-1.01-6.56-2.04-13.11-3.22-19.63-.32-1.79-.66-3.58-1.02-5.37-.06-.32-.44-.5-.74-.42-.33.09-.48.42-.42.74Z" class="cls-2"/><path d="M134.9 114.27c-.21.27-.41.54-.61.81a.44.44 0 0 0-.07.22c-.02.08-.01.16.01.24.02.08.05.15.11.2.04.06.1.12.17.16.14.07.31.11.46.06l.14-.06a.58.58 0 0 0 .22-.22c.15-.21.31-.41.47-.62l-.09.12s.04-.05.06-.07c.06-.05.1-.12.12-.19.04-.07.06-.15.05-.23 0-.08-.01-.16-.05-.23a.387.387 0 0 0-.12-.19.644.644 0 0 0-.42-.18l-.16.02c-.1.03-.19.08-.26.15ZM129.72 122.26c-1.49 2.33-3.18 4.53-4.63 6.88-.41.66.63 1.26 1.03.61 1.45-2.35 3.13-4.56 4.63-6.88.42-.65-.62-1.25-1.03-.61Z" class="cls-12"/><path d="m149.62 111.95-.55 3.43c-.05.31.08.66.42.74.29.07.68-.09.74-.42l.55-3.43c.05-.31-.08-.66-.42-.74-.29-.07-.68.09-.74.42Z" class="cls-6"/><path d="M120.39 122.5c-2.12-3.21-4.27-6.4-6.46-9.56-.18-.27-.53-.39-.82-.22-.05.03-.1.07-.14.12-.04.02-.07.05-.1.09-1.28 1.58-2.55 3.18-3.79 4.79-.16.21-.09.51.08.7v4.77l10.33.07c.19.15.45.19.67.06.27-.16.4-.55.22-.82ZM127.52 134.07s.02-.04.03-.07c0-.02.01-.04.02-.05v-.03c.02-.11.01-.22-.04-.32v-.02c0-.02-.02-.04-.03-.06v-.02s-.01-.02-.02-.03c-.41-.66-.83-1.32-1.25-1.97-.17-.26-.54-.4-.82-.22s-.4.54-.22.82c.35.55.69 1.1 1.04 1.65l-1.05 1.14c-.11.12-.18.26-.18.42 0 .15.06.32.18.42s.26.18.42.18.32-.06.42-.18c.46-.5.92-1 1.37-1.5.04-.05.08-.1.11-.16v-.02Z" class="cls-2"/><path d="M97.02 107.1c1.24-.2 2.51.29 3.47 1.06 1.09.86 1.8 2.07 2.24 3.37.83 2.47.86 5.17.93 7.76.03 1.3.05 2.61.03 3.91-.01.77 1.19.77 1.2 0 .04-2.43 0-4.88-.18-7.3-.23-3.05-.81-6.47-3.3-8.53-1.33-1.1-2.98-1.7-4.7-1.42-.32.05-.5.45-.42.74.09.34.42.47.74.42Z" class="cls-6"/><path d="M122.66 162.02c.86 5.62 1.65 11.26 2.12 16.93.14 1.66.25 3.32.33 4.99.02.32.26.6.6.6.31 0 .61-.28.6-.6-.29-5.79-.94-11.54-1.76-17.28-.24-1.65-.48-3.3-.73-4.95-.05-.32-.45-.5-.74-.42-.34.09-.47.41-.42.74Z" class="cls-5"/><path d="M102.9 122.64c-1.27-3.52-2.68-6.97-4.1-10.43-.12-.3-.4-.51-.74-.42-.07.02-.14.06-.21.11l-3.3-8.04s.05-.02.07-.03c.3-.17.36-.53.22-.82-1.68-3.42-3.5-6.78-5.62-9.94-.53-.78-1.07-1.55-1.64-2.3-.02-.02-.04-.04-.05-.06-.01-.02-.03-.04-.04-.06a27.66 27.66 0 0 0-5.84-5.49c-2.21-1.55-4.61-2.79-7.05-3.92-1.54-.72-3.1-1.39-4.66-2.07-.06-.03-.12-.04-.18-.05l.61-4.87c.09-.14.12-.33.08-.48-.09-.33-.42-.48-.74-.42a53.164 53.164 0 0 1-20.27.14c-1.9-.36-3.78-.82-5.63-1.38h-.03a.596.596 0 0 0-.28-.08c-.36 0-.56.28-.6.6-.22 1.96-.59 3.9-1.09 5.81-6.28 2.42-12.86 5.02-17.71 9.86-2.62 2.61-4.39 5.79-5.65 9.24-1.19 3.29-2.05 6.71-2.95 10.09a472.02 472.02 0 0 0-5.06 20.68c-1.59 7.23-3 14.5-4.12 21.82-1.05 6.82-1.88 13.7-2.18 20.6-.04.78-.06 1.56-.08 2.35 0 .16.05.29.12.38l.06.06c.02.01.03.02.05.04.01 0 .02.01.03.02.03.01.06.03.09.04.02 0 .05.02.07.02 3.93.95 7.89 1.78 11.87 2.5 3.98.72 7.95 1.32 11.95 1.8 3.98.48 7.98.84 11.99 1.07 3.98.23 7.97.32 11.95.28 3.94-.04 7.87-.22 11.8-.54.49-.04.99-.08 1.49-.13.32-.03.6-.26.6-.6 0-.28-.25-.59-.55-.6l2.74-32.91-2.79-14.98 9.02-6.24 27.13-.46s.04.1.05.15c.11.3.41.51.74.42.29-.08.53-.43.42-.74Z" class="cls-2"/><path d="M55.86 44.54c.86 0 .86-1.33 0-1.33s-.86 1.33 0 1.33ZM67.72 44.4h.14c.09 0 .18-.02.26-.06.08-.03.15-.07.22-.14.06-.06.11-.13.14-.22.04-.08.06-.16.06-.26l-.02-.18a.657.657 0 0 0-.17-.29l-.14-.1a.665.665 0 0 0-.34-.09h-.14c-.09 0-.18.02-.26.06-.08.03-.15.07-.22.14-.06.06-.11.13-.14.22-.04.08-.06.16-.06.26l.02.18c.03.11.09.21.17.29l.14.1c.1.06.22.09.34.09Z" class="cls-12"/><path d="M68.99 112.38s-5.7 1.68-6.14 1.83c-.44.15-10.29 3.74-11.01 4.03s2.13 5.53 2.13 5.53c.19 2.09-.9 4.48-.12 6.43s1.46 5.2 1.46 5.2l7.17-4.06 7.28-4.02 1.75-1.5 1.25-5.91-3.77-7.52Z" class="cls-4"/><path d="M96.39 103.76c0 .08 0 .17-.01.25v.1-.02c-.03.14-.05.28-.08.42-.03.13-.11.26-.13.39.02-.14.03-.06 0-.01-.02.03-.03.06-.05.1-.03.06-.06.12-.1.17s-.07.11-.11.16c-.01.02-.08.1-.02.03s-.02.02-.03.04c-.09.1-.18.2-.28.29-.05.05-.1.09-.16.14-.09.08.1-.07 0 0-.03.02-.05.04-.08.06-.13.09-.27.18-.41.25-.27.15-.39.55-.22.82s.53.38.82.22c.61-.34 1.15-.8 1.52-1.4.36-.6.51-1.31.54-2.01a.608.608 0 0 0-.6-.6c-.33.02-.59.26-.6.6Z" class="cls-3"/><path d="M98.26 111.74c-.98-.37-1.98-.65-3.01-.84-.31-.06-.66.08-.74.42-.07.3.09.67.42.74 1.03.19 2.03.47 3.01.84.29.11.67-.12.74-.42.08-.34-.1-.62-.42-.74Z" class="cls-9"/><path d="m97.03 111.17-.05-.35a.36.36 0 0 0-.11-.2.523.523 0 0 0-.17-.16.44.44 0 0 0-.22-.07.489.489 0 0 0-.24.01l-.14.06a.58.58 0 0 0-.22.22l-.06.14a.58.58 0 0 0 0 .32l.05.35c.02.08.05.15.11.2.04.06.1.12.17.16.07.04.14.07.22.07.08.02.16.01.24-.01l.14-.06a.58.58 0 0 0 .22-.22l.06-.14a.58.58 0 0 0 0-.32ZM145.41 108.58s.07-.19.03-.1c.03-.07.04-.07.01-.04.08-.09.11-.12.18-.16.21-.14.41-.2.66-.25.58-.14 1.22-.11 1.84 0 1.2.2 2.5.48 3.53 1.15.4.26.96.71 1 1.23.01.14-.04.28-.15.43-.11.14-.3.28-.48.35-.6.24-1.31.1-1.92-.04-.68-.16-1.35-.36-2.01-.59-.69-.25-1.35-.56-1.96-.98-.23-.16-.46-.36-.61-.59 0-.01-.01-.03-.02-.04-.02-.05-.02-.05 0 .01-.02-.04-.03-.08-.04-.12-.02-.04-.03-.09-.04-.14 0-.01-.02-.16-.03-.11.05-.32-.08-.64-.42-.74-.28-.08-.69.1-.74.42-.24 1.66 1.53 2.62 2.81 3.16.78.33 1.6.58 2.42.79s1.79.4 2.67.18c.72-.18 1.36-.7 1.6-1.42.28-.82-.16-1.64-.73-2.21-1.09-1.11-2.69-1.53-4.17-1.82-.96-.19-1.93-.29-2.9-.07-.75.17-1.52.59-1.71 1.38-.19.75.97 1.07 1.16.32Z" class="cls-9"/><path d="M73.65 38.88c-.06-.36-.49-.55-.82-.47-.37.1-.53.46-.47.82.95 5.33 1.01 10.87-.36 16.14-.66 2.54-1.59 5.12-3.02 7.34-.62.97-1.39 1.86-2.37 2.48-.9.58-1.96.94-2.99 1.08-2.59.34-5.27-.39-7.62-1.43-.33-.14-.71-.1-.91.24-.17.28-.09.77.24.91 2.31 1.02 4.82 1.76 7.37 1.68 1.23-.04 2.43-.29 3.55-.78-.24 3.11-.44 6.23-.6 9.35-.02.36.32.67.67.67.38 0 .65-.31.67-.67.17-3.36.39-6.71.66-10.06v-.08c.62-.45 1.17-.98 1.66-1.57.84-1.04 1.49-2.2 2.05-3.41.61-1.31 1.13-2.67 1.56-4.05.84-2.73 1.3-5.58 1.44-8.43.16-3.27-.12-6.55-.7-9.77ZM47.29 65.12c-.11-3.02-.41-6.07-1.05-9.03-.28-1.31-.64-2.61-1.15-3.84a.83.83 0 0 0-.22-.32c-.13-.31-.46-.42-.78-.37-.86.14-1.76.25-2.63.15-.82-.1-1.37-.41-1.84-1.03-.47-.62-.81-1.3-.93-2.05-.05-.3-.02-.69.08-1.02.09-.31.26-.59.52-.81.67-.55 1.77-.37 2.6-.19.35.08.72-.1.82-.47.09-.33-.11-.74-.47-.82-1.11-.24-2.34-.39-3.39.17-.98.52-1.48 1.6-1.52 2.68-.04 1 .38 2.01.9 2.84.56.89 1.3 1.6 2.34 1.88 1.09.29 2.24.2 3.35.04.87 2.23 1.32 4.67 1.62 7.02.4 3.14.52 6.32.42 9.49-.06 1.83-.2 3.65-.44 5.47-.05.36.34.67.67.67.4 0 .62-.31.67-.67.43-3.24.55-6.51.43-9.77Z" class="cls-12"/><path d="M46.08 44.58c0-1.24-.07-2.48-.1-3.71-.02-.81-1.23-.85-1.32-.12-.6 1.06-1.24 2.32-1.28 3.57-.52-.2-1.21.35-.83.94.51.79 2.09 3.35 3.1 1.76.43-.68.44-1.67.44-2.44Z" class="cls-3"/><path d="M39.3 41.86c.58 1.54 1.45 2.98 2.2 4.43.17.32.61.41.91.24.16-.1.26-.25.3-.41.95-2.69 2.54-5.16 4.54-7.19 2-2.03 4.46-3.67 7.13-4.66a27.44 27.44 0 0 1 4.85-1.28l.4-.06.15-.02s.12-.02.14-.02c.28-.04.56-.06.84-.09 1.1-.09 2.21-.09 3.31.04.05 0 .1.01.15.02.02 0 .08.01.11.02.14.02.29.04.43.07.27.05.55.11.82.18.26.07.52.14.77.23.13.04.25.09.38.13.06.02.12.04.17.07.02 0 .13.05.15.06.5.22.98.47 1.44.76.52.33.81.57 1.27.99.94.88 1.6 1.83 2.19 2.99.15.29.29.6.41.88.09.21.25.39.45.45.16.09.36.12.52.07.38-.1.52-.46.47-.82-.22-1.48-.55-2.95-.92-4.41-.41-1.62-.86-3.23-1.36-4.83-.22-.68-.44-1.36-.68-2.03-1.71-4.9-7.06-8.42-11.6-8.45-4.85-.04-10.28 3.43-15.77 8.64-5.49 5.21-5.28 11.06-4.17 14.01Z" style="fill:#ff8000"/><path d="M113.73 118.03c3.61-4 7.45-7.77 11.34-11.5 1.12-1.08 2.25-2.15 3.37-3.23.56-.53-.29-1.38-.85-.85-3.9 3.73-7.81 7.44-11.54 11.33-1.07 1.12-2.13 2.25-3.17 3.4-.52.57.33 1.42.85.85Z" class="cls-12"/><path d="M164.71 98.44c-.48-.57-1.12-.93-1.79-1.19-.72-.29-1.48-.42-2.24-.5-.04 0-.08-.01-.13-.02.32-.28.6-.61.79-1 .18-.38.29-.8.27-1.22-.02-.26-.07-.52-.27-.71-.06-.05-.12-.1-.18-.13a.656.656 0 0 0-.19-.18c-1.38-.85-3.11-.53-4.65-.61-1.67-.09-3.32-.37-4.99-.38h-.03c-1.58 0-3.16 0-4.73.06s-3.07.16-4.56.48c-.59.13-1.15.33-1.73.48-.32.08-.64.15-.96.24-.5.15-.99.35-1.48.55-.83.34-1.64.7-2.4 1.17-1.59.98-2.94 2.28-4.3 3.55-.89.86-1.78 1.72-2.68 2.58-.11-.22-.22-.43-.32-.65-.14-.29-.55-.37-.82-.22-.3.17-.36.53-.22.82 1.89 3.89 3.99 7.66 6.38 11.26.71 1.07 1.44 2.12 2.18 3.16.19.26.52.39.82.22.26-.15.4-.55.22-.82-.18-.26-.37-.52-.55-.78.67-.83 1.37-1.64 2.06-2.46.58.42 1.23.74 1.93.97 1.2.39 2.48.48 3.73.5.82.02 1.64-.13 2.44-.27 1.01-.18 2.02-.38 3.04-.56.52-.1 1.05-.19 1.58-.27.04 0 .07-.01.11-.02h.02-.02c.04 0 .07 0 .1-.01l.29-.03c.17-.02.35-.03.52-.03.56 0 .71-.64.45-.99.31-.17.58-.4.8-.73.25-.38.01-.93-.29-1.38.81.2 1.66.33 2.49.16.78-.16 1.52-.72 1.75-1.51.19-.64-.03-1.26-.4-1.78.66.13 1.34.19 2 .05.78-.16 1.52-.72 1.75-1.51.26-.9-.27-1.76-.89-2.35-.3-.29-.64-.54-.99-.75.82.14 1.65.21 2.48.22.81 0 1.63-.06 2.43-.2.7-.12 1.45-.41 1.73-1.13s-.09-1.54-.57-2.1Z" class="cls-9"/><path d="M137.23 166.09c-.03-2.38.24-15.58.52-19.31.28-3.73.52-30.85.52-30.85h-.25c.07-.34-.11-.74-.56-.74h-6.85c-.39 0-.58.31-.58.62 0 .04-.01.08-.02.13s-.51 23.82-.51 23.82c-.17 7.91-.39 15.83-.51 23.74-.06 4.37 0 8.75.69 13.08.05.28.36.45.63.44h6.9c.39 0 .58-.3.58-.6h.12s-.67-7.95-.69-10.32Z" class="cls-11"/><path d="M190.24 160.7c-.21-5.2-.4-10.4-.63-15.6-.13-2.9-.27-5.8-.44-8.69.02-.06.04-.12.04-.19.36-5.25.83-10.49 1.39-15.73.16-1.46.32-2.92.5-4.37.22-.35.06-.94-.48-.94-2.83 0-5.66 0-8.49.02-3.41 0-6.81.02-10.22.04-3.7.01-7.39.03-11.09.04-3.71.01-7.43.03-11.14.04-3.42 0-6.83.02-10.25.02h-1.13c-.05 0-.1 0-.15.01-.02 0-.04 0-.06.01-.02 0-.04.01-.06.02-.01 0-.03.01-.04.02-.18.08-.32.26-.33.51l-.51 23.77c-.17 7.91-.38 15.81-.51 23.72-.07 4.4 0 8.81.69 13.17.05.32.45.5.74.42h.01c.05.02.11.03.17.03h52.11c.2 0 .35-.08.45-.21.1-.11.16-.24.15-.39-.3-5.23-.52-10.47-.73-15.71ZM125.63 183.24l-2.33-20.79c.31-.03.5-.29.53-.59.6-5 1.09-10.01 1.45-15.04.36-5.01.6-10.02.71-15.04.06-2.82.09-5.64.08-8.46.07-.34-.12-.73-.56-.73h-16.34c.01-.95.03-2.92-.06-5-.12-2.92-1.07-6-2.25-8.58-.95-2.07-3.31-3.44-4.55-4.55-1.24-1.1-4.61-.43-4.61-.43l-1.61 2.44s1.77 0 2.78.18 1.75.87 2.35 1.36c.61.49 1.56 2.1 2.24 3.9.58 1.52.76 8.57.8 10.68H90.74c-.59 0-.73.71-.41 1.03-.5.2-1.06.41-1.42.54-.78.27-6.78 1.8-7.96 1.79-1.17 0-5.05-2.43-5.05-2.43l-1.37.49 2.79 20.47-2.74 38.54h-.05c-.77 0-.77 1.2 0 1.2 3.33 0 6.67 0 10 .02 3.63.01 7.25.03 10.88.05l10.94.06c3.34.02 6.68.04 10.01.05 2.76.01 5.51.02 8.27.02h.85c.73 0 .77-1.07.12-1.19Z" class="cls-6"/><path d="M77.92 144.33c-1.01-5.22-1.79-10.48-2.34-15.76-.16-1.52-.3-3.03-.42-4.55-.03-.32-.26-.6-.6-.6-.3 0-.63.28-.6.6 0 .11.02.23.03.34l-7.41 4.51c-.06-.28-.27-.5-.58-.5s-.63.28-.6.6a186.932 186.932 0 0 0 2.32 15.53c-.02.06-.04.13-.04.2l-1.06 15.2-1.06 15.14-.6 8.58c0 .14.05.28.14.38.08.18.25.32.51.32 2.98 0 5.97-.1 8.95-.1.04 0 .08 0 .12-.01.15-.03.26-.11.34-.22.08-.1.13-.23.14-.37.35-5.07.71-10.14 1.07-15.2.36-5.05.71-10.09 1.07-15.14l.6-8.58c.04-.11.05-.24.03-.37Z" class="cls-11"/><path d="M49.84 120.26c4.98-2.29 10.09-4.29 15.22-6.22 1.48-.56 2.96-1.11 4.44-1.66.3-.11.51-.41.42-.74-.08-.29-.43-.53-.74-.42-5.26 1.96-10.52 3.93-15.69 6.13-1.43.61-2.85 1.23-4.26 1.88-.29.14-.37.56-.22.82.18.3.52.35.82.22ZM70.82 125.36c-4.91 2.79-9.56 5.98-14.19 9.21-1.36.95-2.73 1.9-4.09 2.84-.27.18-.39.53-.22.82.15.26.55.4.82.22 4.69-3.24 9.33-6.57 14.17-9.6 1.36-.85 2.73-1.67 4.11-2.45.67-.38.07-1.42-.61-1.03Z" class="cls-12"/><path d="M101.78 108.54c-.16-.72-.65-1.33-1.24-1.73-.69-.47-1.58-.6-2.39-.59-.43 0-.85.05-1.27.1h-.71l.64-1.97H97c.32.02.6-.29.6-.6 0-.34-.28-.58-.6-.6-.9-.05-1.8-.06-2.71-.1-1-.04-1.99-.14-2.99-.02-1.56.17-3.09.8-4.67.81-.04 0-.08-.02-.12-.02-2.01-.24-3.85.51-5.55 1.53-.83.5-1.66 1.01-2.46 1.55-.6.41-1.18.86-1.79 1.26-.75.49-1.56.84-2.4 1.13h-.01c-1.34.51-2.68 1.03-4.02 1.54l-.03-.63c-.03-.77-1.23-.77-1.2 0 .19 4.37.63 8.73 1.41 13.04.23 1.27.48 2.54.75 3.8.07.32.44.5.74.42.33-.09.49-.42.42-.74-.06-.26-.11-.52-.16-.77 1.19-.66 2.4-1.3 3.62-1.91.03-.01.05-.03.07-.05.93.44 1.74 1.11 2.61 1.65.59.36 1.22.67 1.9.82.85.18 1.73.13 2.59-.01.85-.14 1.76-.4 2.63-.63.87-.23 1.7-.51 2.54-.8.75-.26 1.52-.4 2.22-.79.64-.36 1.18-.9 1.47-1.58.14-.34.17-.71.33-1.04.12-.25.28-.3.52-.37.64-.18 1.31-.21 1.82-.69s.59-1.23.64-1.92c.04-.57.09-1 .69-1.25.34-.14.69-.24 1.03-.39s.64-.38.91-.63c.52-.5.91-1.18 1.05-1.89.08-.38.09-.75.05-1.13-.02-.22-.06-.45-.06-.67 0-.07 0-.14.03-.21 0-.03.02-.06.03-.09v-.02c.11-.22.18-.3.4-.47-.01.01.1-.07.12-.08.05-.04.1-.07.16-.1.12-.08.24-.14.36-.22.49-.28 1.01-.57 1.38-.99.48-.55.67-1.24.51-1.96Z" class="cls-9"/><path d="M63.62 45.28a47.45 47.45 0 0 0 1.35 6.9c.02.08.12.48.14.48.11-.21.12-.26.02-.15.03-.02.02-.02-.02.01-.09.07-.18.13-.28.19-.68.44-1.41.75-2.19.94-.83.21-.48 1.49.36 1.28.91-.23 1.8-.61 2.59-1.13.42-.28.85-.59.85-1.15 0-.25-.09-.5-.16-.73s-.13-.48-.19-.72c-.5-1.94-.89-3.92-1.13-5.92-.04-.36-.28-.67-.67-.67-.33 0-.71.31-.67.67Z" class="cls-12"/><path d="M58.12 55.07c.12 1.19 1.02 2.05 2.08 2.5 1.06.45 2.25.51 3.33.14.34-.12.56-.46.47-.82-.09-.33-.48-.58-.82-.47-.81.28-1.56.27-2.37-.04-.11-.04-.08-.03-.18-.08s-.2-.1-.29-.16-.18-.11-.27-.18c-.09-.07.06.05-.03-.02-.04-.04-.09-.08-.13-.12-.08-.07-.15-.15-.21-.23-.07-.09.04.06-.02-.03-.02-.04-.05-.08-.07-.11-.03-.05-.06-.1-.08-.15.03.06 0 0-.01-.03-.02-.05-.03-.11-.05-.16 0-.02-.02-.16-.01-.06-.04-.36-.28-.67-.67-.67-.33 0-.7.31-.67.67Z" style="fill:#b7957e"/></g><g id="Layer_9"><path d="M184.87 168.09c.25-5.92.45-13.51.04-17.97-.02-.24-.06-.34-.06-.34a.752.752 0 0 0-1.14-.34s-.09.06-.23.2c0 0-4.68 4.78-5.67 18.97 0 0-.02.2.03.38.08.29.31.53.7.6l2.44.34c.22.03.38.2.38.41 0 0-.11 2.39-.57 6.65v.04h3.62c.03-.44.27-4.21.47-8.93ZM161.32 176.54c-.84-3.62-1.51-17.56-1.54-18.19-.05-.5-.41-.9-.88-1.03l-3.54-.68a1.213 1.213 0 0 1-.8-1.7c.26-.68 7.02-13 19.3-20.58.51-.34 1.11-.53 1.76-.53.65 0 1.25.2 1.76.53 2.66 1.64 5.06 3.5 7.19 5.42s.02.01.03.01c.02 0 .04-.02.04-.04v-1.24c0-.41.34-.75.75-.75h.09l3.56.43c.08 0 .15.03.22.05-.03-.61-.06-1.22-.1-1.83.02-.06.04-.12.04-.19.36-5.25.83-10.49 1.39-15.73.16-1.46.32-2.92.5-4.37.22-.35.06-.94-.48-.94-2.83 0-5.66 0-8.49.02-3.41 0-6.81.02-10.22.04-3.7.01-7.39.03-11.09.04-3.71.01-7.43.03-11.14.04-3.42 0-6.83.02-10.25.02h-1.13c-.05 0-.1 0-.15.01-.02 0-.04 0-.06.01-.02 0-.04.01-.06.02-.01 0-.03.01-.04.02-.18.08-.32.26-.33.51l-.51 23.77c-.17 7.91-.38 15.81-.51 23.72-.07 4.4 0 8.81.69 13.17.05.32.45.5.74.42h.01c.05.02.11.03.17.03h23.31c-.12-.14-.21-.3-.26-.48Z" class="cls-1"/><path d="M172.36 173.85c-.32-3.55-.24-4.29-.24-4.29.02-.23.14-.43.32-.55 1-.69 1.66-1.84 1.66-3.15V165.69c-.18-4.77-.26-10.22 0-14.52v-.06c0-.39-.33-.71-.72-.7-.38 0-.68.3-.7.67-.18 2.94-.2 6.43-.13 9.88 0 .46-.36.84-.83.85-.46 0-.85-.36-.86-.82-.06-3.42-.05-6.89.13-9.82v-.06c0-.39-.33-.71-.72-.7-.38 0-.68.3-.7.67-.18 2.96-.2 6.47-.13 9.93 0 .46-.36.85-.83.86s-.85-.36-.86-.83c-.06-3.44-.05-6.93.13-9.87v-.06c0-.39-.33-.71-.72-.7-.38 0-.68.3-.7.67-.27 4.42-.17 10.07.01 14.97a3.8 3.8 0 0 0 1.86 3.08c.21.12.35.35.36.6 0 .08 0 .17.01.24.14 2.93.32 5.72.41 6.93s0 .07 0 .1h3.61s0-.04-.01-.05c-.05-.49-.17-1.56-.32-3.11Z" class="cls-1"/><path d="M181.37 170.33c0-.22-.16-.38-.38-.41l-2.44-.34c-.39-.07-.61-.31-.7-.6-.05-.18-.03-.38-.03-.38.99-14.19 5.67-18.97 5.67-18.97.14-.14.23-.2.23-.2a.752.752 0 0 1 1.14.34s.04.1.06.34c.4 4.46.21 12.05-.04 17.97-.2 4.72-.44 8.49-.47 8.93h5.97c.2 0 .35-.08.45-.21.1-.11.16-.24.15-.39-.3-5.23-.52-10.47-.73-15.71-.21-5.2-.4-10.4-.63-15.6-.1-2.29-.22-4.58-.34-6.86-.07-.02-.14-.04-.22-.05l-3.56-.43h-.09c-.41 0-.75.34-.75.75v1.24s-.02.04-.04.04c-.01 0-.02 0-.03-.01-2.13-1.92-4.53-3.78-7.19-5.42-.51-.34-1.11-.53-1.76-.53-.65 0-1.25.2-1.76.53-12.28 7.58-19.04 19.9-19.3 20.58-.07.16-.12.33-.12.52 0 .57.39 1.05.92 1.18l3.54.68c.47.13.83.54.88 1.03.03.62.7 14.57 1.54 18.19.05.18.14.34.26.48h7.5v-.08c-.08-1.23-.26-4.01-.41-6.95 0-.07 0-.17-.01-.24a.716.716 0 0 0-.36-.6 3.823 3.823 0 0 1-1.86-3.08c-.19-4.89-.28-10.54-.01-14.97a.71.71 0 0 1 1.42.03v.06c-.18 2.95-.19 6.43-.13 9.87 0 .46.39.83.86.83s.83-.39.83-.86c-.06-3.46-.05-6.97.13-9.93a.71.71 0 0 1 1.42.03v.06c-.17 2.93-.19 6.4-.13 9.82 0 .47.39.83.86.83.46 0 .83-.39.83-.85-.06-3.45-.04-6.93.13-9.88a.71.71 0 0 1 1.42.03v.06c-.26 4.3-.17 9.74 0 14.52V165.88c0 1.3-.65 2.46-1.66 3.15-.18.12-.3.32-.32.55 0 0-.09.73.24 4.29.15 1.55.27 2.63.32 3.11 0 .02 0 .04.01.05h8.1v-.04c.46-4.26.57-6.65.57-6.65h-.01Z" class="cls-5"/><path d="M108.62 177.16c.02-.24.14-.44.32-.56 1.01-.7 1.68-1.88 1.67-3.21V173.22c-.2-4.85-.31-10.39-.06-14.76v-.06c0-.4-.34-.72-.74-.71a.72.72 0 0 0-.71.68c-.17 2.99-.17 6.54-.1 10.05 0 .47-.37.86-.84.87s-.86-.36-.87-.83c-.08-3.48-.08-7 .09-9.99v-.06c0-.4-.34-.72-.74-.71a.72.72 0 0 0-.71.68c-.17 3.01-.17 6.58-.09 10.09.01.47-.36.86-.84.87s-.86-.36-.87-.84c-.08-3.5-.08-7.04.09-10.04v-.06c0-.4-.34-.72-.74-.71a.72.72 0 0 0-.71.68c-.25 4.5-.14 10.24.07 15.22a3.87 3.87 0 0 0 1.9 3.12c.21.13.35.35.37.61 0 .08.01.17.01.24.15 2.78.33 5.43.42 6.78h3.63c-.06-.57-.17-1.55-.31-2.87-.34-3.61-.26-4.36-.26-4.36Z" class="cls-1"/><path d="M97.67 184.29c-.87-3.67-1.6-17.85-1.64-18.49-.06-.5-.42-.92-.9-1.05l-3.6-.68c-.54-.13-.93-.62-.94-1.2 0-.19.04-.37.12-.53.26-.69 7.08-13.24 19.53-21 .51-.35 1.12-.55 1.79-.55.67 0 1.28.19 1.79.53 2.71 1.66 5.15 3.54 7.33 5.48s.02.01.03.01c.02 0 .05-.02.05-.05v-1.26c0-.42.34-.77.76-.77h.1l3.34.39c.25-3.76.41-6.57.41-6.57-4.44-.78-35.74 1.62-38.08 6.59-2.34 4.98-11.49 39.24-11.49 39.24l16.64-.07h4.79c0-.02-.02-.05-.03-.08ZM121.55 157.33c-.02-.25-.06-.35-.06-.35a.766.766 0 0 0-.71-.48c-.17 0-.32.06-.45.15 0 0-.09.06-.23.2 0 0-4.74 4.88-5.68 19.31 0 0-.02.2.03.38.08.3.32.54.71.6l2.48.33c.22.03.39.2.39.41 0 0-.1 2.34-.53 6.52 1.43 0 2.68.01 3.66.02.06-1.01.26-4.53.42-8.83.23-6.02.4-13.74-.03-18.27Z" class="cls-1"/><path d="M121.99 144.77c-.42 0-.76.35-.76.77v1.26s-.02.05-.04.05c-.01 0-.02 0-.03-.01-2.17-1.94-4.62-3.83-7.33-5.48-.51-.34-1.13-.54-1.79-.53-.67 0-1.27.2-1.79.55-12.45 7.76-19.27 20.31-19.53 21-.08.16-.12.34-.12.53 0 .58.4 1.06.94 1.2l3.6.68c.48.13.85.54.9 1.05.03.63.77 14.81 1.64 18.49 0 .03.02.05.03.08 2.2 0 4.96 0 7.85.01-.1-1.35-.27-4-.42-6.78 0-.08-.01-.17-.01-.24a.781.781 0 0 0-.37-.61 3.87 3.87 0 0 1-1.9-3.12c-.21-4.97-.33-10.72-.07-15.22a.72.72 0 0 1 .71-.68c.4 0 .73.31.74.71v.06c-.16 3-.17 6.54-.09 10.04.01.47.4.85.87.84s.85-.4.84-.87c-.08-3.52-.08-7.09.09-10.09a.72.72 0 0 1 .71-.68c.4 0 .73.31.74.71v.06c-.16 2.98-.17 6.5-.09 9.98.01.47.4.85.87.84s.84-.4.84-.87c-.08-3.5-.07-7.05.1-10.05a.72.72 0 0 1 .71-.68c.4 0 .73.31.74.71v.06c-.24 4.37-.13 9.91.06 14.76V173.46c0 1.33-.66 2.5-1.67 3.21a.77.77 0 0 0-.32.56s-.09.75.26 4.36c.13 1.32.24 2.3.31 2.87 2.97 0 5.89.02 8.31.02.43-4.18.53-6.52.53-6.52 0-.22-.17-.38-.39-.41l-2.48-.33c-.39-.07-.63-.31-.71-.6-.05-.18-.03-.38-.03-.38.95-14.43 5.68-19.31 5.68-19.31.14-.14.23-.2.23-.2a.76.76 0 0 1 1.16.33s.04.1.06.35c.43 4.53.26 12.25.03 18.27-.16 4.3-.36 7.82-.42 8.83 1.27 0 2.1.02 2.28.03 1.5.09 2.9.3 2.94-.31.13-1.8-2.34-21.91-2.29-22.3.45-3.81.97-11.25 1.33-16.69l-3.34-.39h-.1Z" class="cls-5"/><path d="M43.96 53.07c-.41.23-.39.67-.17.96 0 .08 0 .15.02.24-.39-.12-.89.08-.86.61.07 1.79.4 3.65 2.19 4.43.2.84.39 1.68.54 2.54 0 .05.02.1.04.15.11.71 1.29.66 1.32-.14.06-1.44-.29-10.34-3.08-8.79ZM75.15 28.05c-1.06-.76-2.45-.9-3.6-.24-.83.48-1.7 1.52-2.73.91-.68-.4-1-1.09-1.79-1.36-1.54-.53-3.04.21-3.77 1.61-.92 1.76-1.27 3.8-3.74 3.73a.61.61 0 0 0-.49.21c-.17.14-.25.36-.15.64.44 1.2 1.61 1.66 2.84 1.6.78-.04 1.63-.37 2.4-.15.82.23 1.25 1.21 1.94 1.66 2.46 1.63 6.24.74 8.41-.99 2.23-1.79 3.38-5.68.67-7.62Z" class="cls-3"/></g><g id="Layer_12"><path d="M95.73 117.99c2.32.23 5.17 2.02 5.11 4.62 2.77.25 1.76-.24.9-2.94-.4-.67-3.11-8.82-2.74-5.94.71 2.25-3.37 3.37-3.27 4.27Z" class="cls-1"/><path d="M99.6 119.82c-4.04-2.93-3.56-2.22-5.4 1.1-.97.28-2.48.53-2.34 1.69 1.45-.68 13.02 2 7.75-2.79Z" class="cls-14"/><path d="M24.39 133.4c.07.04 0-.07 0 0ZM19.33 156.2c-.05-.06-.2-.3-.14-.19.04.07.08.13.14.19ZM23.63 138.18c.13-.05.28-.07.42-.05-.34-.63-.37-.73-.42.05ZM55.39 179.08c-.24.21.28.08.25.1a.571.571 0 0 1-.25-.1ZM63.65 141.26c-1.03.96-1.9 2.13-2.6 3.35.76-1.19 1.63-2.32 2.6-3.35ZM60.59 173.88c-7.9 5.56 3.69.28.81 5.04 3.55-.52 4.18.88 4.17-4.03-1.74.33-3.5-.07-4.98-1.02ZM32.46 112.9c-.43.14-.84.3-1.24.47.42-.14.84-.29 1.24-.47ZM26.5 135.44c.32.27.65.53 1 .76-.34-.26-.67-.51-1-.76ZM41.61 112.04c.05-.5.1-1 .14-1.5-.06.5-.11 1.01-.14 1.5ZM28.23 122.65c-.28.19-.35.15.02.16 0-.05-.01-.11-.02-.16ZM26.03 126.27s.05.02.08.03c-.02-.08-.03-.12-.08-.03ZM30.02 132.47c-.1.09-.02.1.07.14-.02-.05-.05-.09-.07-.14ZM64.59 172.1c1.51.61 1.18-.62 1.29-1.78-1.1.76-4.01 1.69-1.29 1.78ZM41.16 81.56c-8.58-4.28-7.06 2.74-3.04 8.19a64.95 64.95 0 0 0 3.04-8.19ZM43.09 72.79c-.57.51-.68 4.69-1.25 5.65.49.1.94-4.22 1.25-5.65ZM29.65 98.72c1.09 6.47 7.75-4.71 5.86-6.56-11-12.51-13.89-4.14-5.86 6.56Z" class="cls-1"/><path d="M91.97 97.55c-1.91-5.5-14.15 1.09-15.92-15.42-11.69-3.46-2.41-7.48-6.95-8.59-2.45.06-1.91.82-2.12 2.89-1.52 2.33-1.56-2.03-1.26-2.42-3.28.92-15.26.31-18.6-.94-.03.36.1 2.95-1.12 2.58-1.1-.07-.31-2.75-.29-2.97-1.97-.82-1.17 3.74-1.97 5.14 1.11 13.12-30.75 47.2-13.87 25.45-5.75-4.05-8.15-17.52-11.57-5.26 5.24 7.68 1.85 12.86-4.54 16.56-.57 11.95-21.52 63.98.4 61.15 5.49-.28 18.52 6.75 19.46-2.76 4.26-7.41 10.69.19 9.65 6.15 2.44.15 4.3.11 7.77.14-3.01-5.57 1.58-6.2 2.55-.02 4.04-2.55-.74-6.16 1.72-9.2 1.77-.76 2.21 2.65 2.33 4.59 4.84-2.09.9-5.83 3.72-8.71 1.77-.37 1.49 3.01 1.21 4.8 5.37-2.86 3.24-11.66 4.43-17.04-3.63.54-13.96 12.86-11.62 2.91 1.86-6.63 3.78-16.46 11.09-18.9-1.58-5.81 1.15-10.01-5.18-4.82-5.86 2.2-3.79 6.96-6.06 6.24-13.97-1.25-9.72-12.29-1.97-18.75.22-3.56-2.79 1.21-4.25-.3-.33-.47-.02-.83.72-1.15 4.67-2.48 17.86-5.81 20.02-9.48 1.27 2.07 1.73.57 4.8-.37 4.47-.5 2.06-8.51 7.36-7.66 3.28 1.88 5.04 3.16 9.04 1.61 5.16.44 3.74-.48 1.02-5.47Zm-64.63 70.89c-2.06 1.58-4.71.42-1.5 3.07.59 2.46-2.3-.65-2.71-1.09-7.02 11.07-13.9-4.06-13.04-11.11-5.26-11.82-1.32-3.49 8.12-5.61 2.31 2.16 3.94 3.94 7.42 3.88 3.17.83 1.06 3.5 1.61 5.21 2.38 1.1 2.13 4.33.1 5.65Zm8.65-56.59c-2.87 3.52 5.05 18.16-3.59 10.95-2.26-1.19 2.24 6.2 2.32 7.88-2.59 2.72-4.87-2.04-6.52-3.66 5.46 6.46 4.76 10.19-3.03 4.1.73 3.44 5.15 4.24 6.63 7.26-.3 3.1-5.64-1.25-6.93-2.33.65 3.44 5.83 5.08 8.35 6.78 1.37 2.96-4.82 1.16-5.91.06 9.79 16.06-.87 13.34-2.47-.31-.44 1.62 2.61 7.86-.44 6.54-2.58-1.76-1.97-11.3-3.01-9-5.26-.28.84-11.23 2.83-13.94-2.77 1.92-8.59 9.29-6.57.89 3.13-3.24 18.08-9.75 7.17-5.15-11.2.34 7.02-5.87 8.73-7.8-1.29.48-6.69 2.88-5.95.03 1.92-2.67 19.15-8.23 8.39-2.29Zm11.64 42.73c3.43 5.07-1.08 7.4-3.48 1.84-4.58-8.55-1.06-10.48 3.48-1.84Zm-1.95-43.66c-3.01 16.54-8.12 3.16-5.49-5.5 2.68-8.39 7.12 1.05 5.49 5.5ZM75.31 99c-3.49 4.42-11.97-2.27-11.4 1.82 10.53 2.52 7.21 14.31-.67 4.63-2.31-4.58-14.24 8.05-14.48-.98 2.14-6.15 14.24-.53 11.99-7.39-2.36-1.07-5.05-.23-7.54-.59-5.11.01-6.43-7.35-.79-7.71 13.36 2.35 8.23 8.62 9.94-7.07 6.93-10.51 6.55 8.47 2.99 12.31 3.73-2.37 14.37-.67 9.95 4.99Z" class="cls-1"/><path d="M72.7 93.1c-15.02 2.38 1.06-6.55-6.4-14.26-6.85-.29-3.75 10.36-4 14.65-2.44-2.77-6.14-4.97-9.87-4.71-16.79 7.39 22.91 9.13 3.58 11.92-14.31 3.81-6.41 10.49 6.28 3.34 1.23 3.14 8.11 8.47 8.59 2.34-.34-3.85-8.49-4.41-6.81-7.6 4.9 4.99 18.83-1.12 8.64-5.67ZM83.22 93.83c11.98 5.41 2.76-6.92-3.12-9.67-8.13-5.57-1.78 8.15 3.12 9.67ZM81.92 101.4c-3.39-.47-4.52 3.1-4.51 6.15 2.6-2.64 11.44-4.02 4.51-6.15ZM23.8 95.9c4.97 5.64 7.5 8.57.31 13.66 4.04 6.23 26.65-38.21 18.82-36.8-.14 3.69-.17 6.12-4.49 7.08 4.93 1.71.69 6.43-.31 9.93-1.81-5.42-5.84-10.15-9.74-4.41 7.04 5.76 9.98 9.17 2.74 16.06-2.75-4.58-3.9-8.03-7.36-12.75-2.91 2.2-1.8 4.72.03 7.24Z" class="cls-14"/><path d="M40.18 105.43c-.93 3.06-1.45 14.7 2.78 13.43 4.23-3.69 3.4-24.9-2.78-13.43Zm1.45 6.39c-.06.49.07-1.01.12-1.29l-.12 1.29Z" class="cls-14"/><path d="M38.19 108.78c-3.65 1.79-19.81 9.2-4.65 5.34-1.68 1.9-19.95 8.17-8.73 7.81 7.23-2.88-12.71 5.26-6.83 9.19 2.32.16 3.73-4.12 6.24-4.93-2.55 1.46-7.94 18.39-2.2 12.74-1.18 2.36 2.77 14.91 3.63 8.37 2.35 6.29 9.49 12.05 4.05.71-.8-1.7-1.6-3.41-2.4-5.11 1.09 1.14 7.27 2.87 5.91-.06-2.52-1.7-7.7-3.34-8.35-6.78 1.27 1.11 6.63 5.41 6.93 2.33-3.89-4.84-12.1-9.59-.47-3.95 1.36-.99-.11-3.52-1.38-5.22 7.48 6.64 2.77-3.2 1.72-7.16 10.04 9.14 1.36-5.84 4.28-9.59.17-.95 6.29-3.6 2.27-3.7Zm-6.97 4.6c.4-.18.82-.33 1.24-.47-.41.18-.82.34-1.24.47Zm-7.58 24.8c.05-.78.08-.67.42-.05-.14-.02-.29 0-.42.05Zm.76-4.78v-.03s.05.05 0 .03Zm.57 9.94c-.02.17-.02.34-.02.52-.18-.75-.25-1.09.02-.52Zm2.53-7.13c-.34-.24-.68-.49-1-.76.33.26.66.51 1 .76Zm-1.47-9.93c.05-.1.05-.05.08.03-.02-.01-.05-.02-.08-.03Zm1.92-3.45c.15-.06.32-.29.3-.02a.597.597 0 0 0-.3.02Zm2.08 9.64c.07.13.08.16-.06.08.02-.03.05-.05.06-.08ZM55.38 156.58c-2.32 9.98 7.98-2.4 11.62-2.91.27-3.52.52-7.4.65-9.23-1.36-16.95-11.58 5.53-12.27 12.14Zm8.27-15.32c-.97 1.03-1.83 2.16-2.6 3.35.7-1.22 1.57-2.39 2.6-3.35ZM50.37 174.87c-1.15 2.21.53 5.25 3.22 4.36-.5-1.89-1.68-5.62-3.22-4.36ZM65.56 168.89c-5.33 4.44-.79-2.7-4.2-2.98-1.96 1.05-1.21 4.28-.39 5.91-6.15 6.28-1.39-2.07-5.66-1.79-1.69 1.48-.38 4.5.38 6.24.03 1.28-3.94 3.63-.31 2.81 2.04-.17 5.7.81 6.69-1.07-2.05-3.36-7.76 1.01-1.49-4.14 3.4 3.33 8.36-1.62 2.57-1.96 5.98-2.03 1.66-15.09 2.4-3.02ZM27.24 162.78c.65-4.51-.26-5.48-5.25-5.75-2.98-3.31-5.46-4.07-9.88-2.73-7.33-4.23-3.61.58-2.03 5-1.28 7.12 6.42 21.71 13.04 11.11.4.42 3.31 3.58 2.71 1.09-5.18-2.96 8-2.67 1.4-8.72Zm-7.91-6.58a1.04 1.04 0 0 1-.17-.24c.06.08.11.16.17.24ZM20.76 107.51c1.05-2.73-2.5-12.99-3.33-6.73-2.56 7.33-5.35 19.99 3.33 6.73ZM56.66 138.42c.77-4.12-2.55-.23-3.49.1-.31.15 3.53 1.56 3.49-.1ZM49.66 124.08c-4.69 6.49-6.45 13.67 2.26 14.31-.06-.64 3.7-2.8 3.7-2.96-1.23-2.23-.63-20.83-5.96-11.35ZM42.91 148.64c-2.85.59.65 5.91 1.24 7.78 8.06 10.55 3.6-6.02-1.24-7.78ZM38.91 169.96c-4.59-.83-6.27 4.79-7.29 8.26 9.54 2.1 17.13.23 7.29-8.26Z" class="cls-14"/></g><path d="M174.06 103.88c-.73-1.55-1.68-2.99-2.88-4.2-1.28-1.28-2.81-2.23-4.47-2.9-1.9-.75-3.94-1.13-5.95-1.5-.35-.07-.71.09-.82.46-.07.22.02.49.18.66-.07.07-.13.11-.2.18-.04.04-.2.13-.02.02-.04.02-.09.07-.13.09-.09.07-.18.11-.27.18-.18.11-.33.2-.51.27-.04.02-.09.04-.13.04-.18.07-.31.15-.4.31-.04.07-.07.15-.09.24v.02c-.09.31.11.75.46.82 1.75.27 3.58.62 5.18 1.42.04.07.11.13.2.18.55.27 1.04.6 1.48.95.09.07.15.13.24.22.02.02.04.04.07.04 2.41 2.23 3.21 5.93 3.27 9.14.02 1.35-.02 2.7-.09 4.05-.02.35.31.66.66.66.04 0 .07 0 .11-.02v.29l5.35.13c.11.18.31.29.53.29.33 0 .69-.31.66-.66-.33-3.87-.77-7.81-2.46-11.37ZM155.63 106.27s-.09-.04-.15-.07c-.66-.13-1.33-.33-1.97-.55-.15-.04-.31-.11-.46-.18q-.18-.07-.35-.15c-.31-.13-.62-.29-.91-.44-.07-.04-.13-.09-.22-.11-.38-.11-.69.13-.82.46-1.22 3.19-1.9 6.57-2.01 10-.02.77 1.04.84 1.28.24.07.31.44.51.73.46.15-.02.31-.11.4-.22.13.13.31.22.53.18.04 0 .11-.02.15-.04.09.29.42.46.71.42.29-.04.46-.22.53-.49.07.29.29.53.64.53.22 0 .42-.11.53-.27.27.46 1.13.38 1.11-.29-.04-1.5-.04-2.99.04-4.49.02-.04.02-.09.02-.13.13-1.39.31-2.7.58-4.07.07-.33-.07-.66-.35-.8Z" class="cls-6"/></g><g id="Outline"><path d="M71.23 138.85c-.17 0-.24 2.45-.33 6.41-.09 3.95-.22 9.41-.5 15.43-.29 6.02-.67 11.46-.96 15.4-.29 3.94-.45 6.39-.28 6.41.16.02.62-2.39 1.13-6.32.51-3.93 1.03-9.39 1.32-15.43.29-6.04.28-11.53.15-15.49-.13-3.96-.36-6.41-.52-6.4ZM133.33 144.32c-.3-.05-1.62 6.67-1.7 15.1-.11 8.43 1.06 15.18 1.37 15.13.35-.04-.27-6.79-.16-15.12.08-8.33.85-15.06.5-15.11Z" class="cls-7"/><path d="M156.56 123.24c-.14-.1-.41.02-.81-.09-.2-.05-.45-.14-.72-.3-.27-.16-.61-.42-1.14-.69-.27-.13-.6-.26-1.01-.3-.4-.05-.83.01-1.22.14-.77.25-1.36.7-1.89 1.08-.27.19-.46.32-.7.44-.22.12-.45.19-.6.2-.16.01-.21-.01-.26-.05-.05-.03-.12-.09-.21-.3-.09-.2-.17-.49-.25-.82l-.12-.54a4 4 0 0 0-.21-.67c-.17-.43-.4-.86-.76-1.26-.18-.19-.41-.4-.71-.56-.29-.15-.6-.24-.91-.27-.31-.01-.62.02-.91.13-.3.11-.53.26-.71.4-.36.29-.6.59-.78.84-.39.52-.68 1.04-.91 1.53-.46.99-.62 1.85-.65 2.44-.02.6.08.94.24.97.35.07.77-1.09 1.87-2.55.28-.36.59-.74.96-1.11.19-.19.36-.34.5-.42.07-.04.12-.05.12-.04.02 0 .03.01.04.02l.03.03s.02.04.07.09a2.369 2.369 0 0 1 .36.91c.03.18.07.36.1.54.08.39.18.82.4 1.31.21.48.61 1.05 1.21 1.38.58.34 1.3.4 1.84.3.55-.1.98-.31 1.35-.53.36-.21.71-.49.95-.71.49-.44.89-.78 1.21-.95.32-.16.52-.2.93-.11.39.09.83.27 1.31.37.48.09.92.07 1.27-.05.35-.12.58-.32.68-.5.1-.17.08-.3.02-.35ZM96.33 130.75c-.3-.08-.99.46-2-.71-.28-.27-.64-.69-1.24-1.06-.3-.18-.68-.35-1.16-.4-.47-.06-.99.05-1.4.24-.81.38-1.31.96-1.69 1.26-.17.13-.36.24-.5.3-.18.06-.11.03-.12.03s-.08-.14-.14-.26c-.13-.25-.28-.65-.63-1.07-.33-.4-.77-.69-1.2-.86-.43-.17-.86-.23-1.26-.22-.8.01-1.5.26-2.08.63-.59.39-.93.83-1.22 1.26-.54.86-.71 1.59-.8 2.09-.08.51-.03.81.11.88.15.07.4-.12.72-.49.33-.36.73-.92 1.27-1.42.26-.24.59-.48.89-.6.31-.12.69-.19 1.04-.15.35.04.6.19.71.35.05.06.14.26.29.6.08.17.17.37.32.59.18.27.41.51.68.7.15.09.31.18.49.24.63.24 1.41.11 1.83-.09.47-.19.83-.45 1.15-.73.31-.28.5-.49.69-.68.19-.18.35-.32.46-.39.12-.08.18-.1.26-.12.08-.01.22 0 .38.06.33.12.7.38 1.12.64.42.26.9.48 1.4.54.51.06.92-.07 1.22-.25.3-.19.45-.43.49-.61.04-.18-.01-.29-.08-.32ZM141.47 105.71c-.09.12.12.52.83.84.69.32 1.88.44 3.16-.06 1.31-.5 2.5-1.6 3.52-2.8 1.03-1.18 2.03-2.45 3.27-3.06 1.23-.61 2.95-.62 4.63-1.09.83-.23 1.67-.63 2.3-1.14.64-.51 1.12-1.09 1.46-1.67.69-1.16.83-2.26.78-2.98-.06-.73-.27-1.09-.42-1.07-.17.01-.29.38-.5.95-.22.57-.57 1.36-1.24 2.12-.33.38-.74.74-1.23 1.02-.48.29-1.01.49-1.68.62-.66.13-1.43.2-2.3.31-.86.11-1.86.29-2.85.77-.99.49-1.76 1.18-2.37 1.86-.62.68-1.11 1.36-1.56 1.97-.89 1.22-1.7 2.15-2.53 2.66-.84.52-1.65.67-2.22.68-.57.02-.94-.08-1.04.07ZM99.15 112.68c.2-.26-.49-1.08-1.7-1.42-1.21-.34-2.23.01-2.19.34.03.34.89.54 1.87.82.99.27 1.83.53 2.03.26ZM84.49 99.65c-.65.13-1.03 1.01-.85 1.97.18.96.86 1.65 1.52 1.52.65-.13 1.03-1.01.85-1.97s-.86-1.64-1.52-1.52ZM51.46 105.04c-.09.13-.08.35.15.57.22.21.68.4 1.26.27.29-.06.62-.21.9-.5.29-.29.49-.7.55-1.12.07-.43.01-.9-.21-1.35-.21-.45-.67-.88-1.18-1.07-1-.37-2.08-.05-2.68.82-.27.42-.36.87-.29 1.33.04.23.12.47.26.67.14.2.31.35.57.48.52.21.88.06 1.12-.09.24-.16.38-.38.44-.6.05-.22-.02-.41-.11-.48a.239.239 0 0 0-.26-.05c-.08.03-.15.08-.22.1-.11.01-.07.02-.15-.02-.07-.04-.17-.17-.16-.18 0-.03.03.19-.02.23 0 .01 0 0 0 0s.24-.25.12-.13 0 0 .01 0c.02-.01.1-.04.18-.04.18-.01.29.07.16 0l-.04-.03-.02-.02.13.13s.02.03.04.05c.01.02.02.04.04.07v.01s.02 0 .03.02c.01 0 0 .04.02-.03.02-.05.05-.1.07-.12-.02.02-.07.06-.11.08 0 0 .04.02.06.05.03.03.06.05.09.08s.03.1 0 .17c-.06.15-.21.28-.35.39-.15.11-.31.19-.4.33ZM45.56 163.88c.06.15.21.27.44.3.23.03.55-.03.9-.29.17-.13.34-.33.47-.59.13-.26.2-.63.16-.97-.03-.35-.16-.72-.43-1.06-.27-.34-.73-.64-1.3-.68-.55-.03-1 .17-1.32.43-.33.27-.57.64-.66 1.07-.1.43.01.91.22 1.21.2.31.46.48.69.58.48.19.91.08 1.12-.09.22-.18.23-.39.15-.53-.08-.15-.21-.26-.28-.4-.06-.14-.08-.28-.03-.38.02-.04.01-.01-.02.01-.02.02-.06.05-.09.07-.07.04-.1.01-.01.03.08.02.18.11.17.11 0 0-.07-.13-.06-.22v-.03l-.03.08s-.04.07-.08.11c-.08.07-.17.1-.15.09H45.54l.01.01s.11.03-.11-.02h.01s.07.09.08.16c.06.3-.1.71.03 1.01ZM42.89 117.24c.73.02.98-9.18 4.29-19.85 3.21-10.7 8.13-18.47 7.52-18.87-.26-.17-1.83 1.56-3.82 4.75-.49.8-1.02 1.69-1.54 2.67-.54.97-1.04 2.04-1.58 3.16a64.682 64.682 0 0 0-2.88 7.58c-.83 2.76-1.43 5.44-1.84 7.9-.18 1.23-.36 2.4-.45 3.51-.12 1.1-.18 2.13-.21 3.07-.13 3.76.21 6.08.52 6.08Z" class="cls-5"/><path d="M33.03 126.08c.53.45 4.27-3.49 9.9-6.82 1.4-.84 2.77-1.57 4.05-2.2.64-.31 1.25-.6 1.83-.86.58-.27 1.06-.48 1.47-.57.4-.09.73-.07.94.01.25.11.45.31.56.49.25.35.14.72.28.8.06.04.2.02.35-.13.15-.14.31-.46.28-.89-.03-.42-.21-.92-.67-1.35-.49-.45-1.21-.65-1.9-.63-.7 0-1.38.2-2.01.39-.64.19-1.32.43-2.02.7-1.4.55-2.9 1.27-4.39 2.16-3 1.78-5.34 3.94-6.81 5.66-1.47 1.74-2.1 3.01-1.86 3.22Z" class="cls-5"/><path d="M37.96 104.34c-.66.04-.98 3.57-.42 7.86.55 4.29 1.76 7.63 2.4 7.5.66-.13.52-3.61-.02-7.81-.55-4.2-1.29-7.6-1.96-7.56ZM55.04 137.68c-.07.06.09.31.19.79.1.47.1 1.23-.32 2.05-.4.8-1.29 1.56-2.53 2.21-1.26.66-2.76 1.4-4.41 2.16a100.84 100.84 0 0 1-11.92 4.64c-2.29.72-4.74 1.41-7.27 1.99-1.24.28-2.49.47-3.65.39-1.17-.09-2.17-.5-3.06-1.3-.89-.79-1.63-1.85-2.27-2.99-.66-1.12-1.2-2.3-1.67-3.48-.94-2.37-1.53-4.8-1.98-7.14-.86-4.7-1.19-9.09-1.64-12.74-.85-7.32-1.54-11.84-1.87-11.81-.33.03-.24 4.59.18 11.95.24 3.67.39 8.07 1.15 12.98.41 2.45.98 5.03 1.97 7.61.49 1.29 1.07 2.58 1.79 3.82.69 1.25 1.54 2.52 2.75 3.6.61.54 1.31 1 2.09 1.33.78.32 1.59.49 2.38.55 1.58.11 3.03-.16 4.36-.47 2.63-.64 5.1-1.38 7.44-2.18 4.67-1.6 8.71-3.46 11.99-5.22 1.65-.88 3.08-1.72 4.35-2.54 1.28-.82 2.32-1.87 2.7-3 .38-1.1.2-2.06-.09-2.58-.29-.54-.6-.67-.64-.63Z" class="cls-5"/><path d="M38.06 178.49c.68-.07.58-6.41.96-14.17.35-7.76 1.04-14.07.37-14.19-.63-.13-2.41 6.12-2.77 14.08-.39 7.96.81 14.35 1.44 14.28ZM61.3 32.46c.32-.09-.23-3.06-1.24-6.64-1-3.58-2.08-6.4-2.4-6.31-.32.09.23 3.06 1.24 6.64 1 3.58 2.08 6.4 2.4 6.31ZM148.89 112.1c-.03-.17-.53-.21-1.24-.39-.71-.17-1.66-.53-2.47-1.23-.81-.7-1.31-1.58-1.58-2.26-.28-.68-.39-1.17-.57-1.17-.15 0-.36.51-.26 1.38.09.86.58 2.06 1.62 2.96 1.05.9 2.31 1.19 3.17 1.16.88-.03 1.36-.31 1.33-.46ZM138.42 104.38c-.11.12 0 .44.34.81.34.38.91.79 1.64 1.06.73.26 1.44.31 1.94.24s.79-.25.78-.41c-.03-.34-1.11-.52-2.31-.97-1.21-.43-2.15-.99-2.39-.74ZM157.23 106.44c.02.08.38.1 1.04-.03.33-.07.74-.17 1.18-.43.45-.26.91-.71 1.14-1.38.11-.34.14-.75.02-1.16-.12-.4-.4-.76-.71-1.01-.65-.52-1.36-.75-2.08-1.03-1.46-.55-3.13-.98-4.93-1.2-.46-.05-.94-.08-1.44-.02s-1.02.24-1.44.54c-.43.3-.79.76-.92 1.3s-.05 1.06.13 1.49c.38.9 1.08 1.41 1.67 1.79.61.39 1.22.66 1.79.85 1.15.39 2.14.44 2.8.39.67-.05 1.02-.17 1.01-.25 0-.09-.37-.12-.99-.22s-1.51-.27-2.52-.72c-.5-.22-1.03-.51-1.54-.89-.51-.37-1-.82-1.19-1.37-.2-.57-.08-1.09.44-1.43.5-.35 1.24-.39 2.07-.29 1.69.2 3.29.58 4.7 1.05.7.24 1.4.46 1.83.77.45.32.59.71.49 1.15-.21.92-1.09 1.35-1.64 1.6-.58.25-.92.39-.9.47ZM155.64 110.35c.04.15.35.24.8.09.44-.14 1.01-.57 1.31-1.28.29-.7.2-1.41 0-1.83-.21-.43-.49-.58-.63-.51-.28.17-.11 1.04-.47 1.87-.33.84-1.08 1.33-1 1.65ZM145.45 106c-.15.04-.23.39-.09.91.13.51.51 1.18 1.14 1.71.62.53 1.34.8 1.87.85.53.05.86-.07.88-.23.03-.34-1.01-.69-1.97-1.53-.98-.81-1.5-1.78-1.83-1.7Z" class="cls-5"/></g></svg>