<svg xmlns="http://www.w3.org/2000/svg" viewBox="0 0 200 200"><defs><clipPath id="clippath"><path d="M140.74 145.61s2.26-.75 4.68-.72 5.73.6 8.34 0c2.61-.6 4.4.49 4.4.9s.15.53.15.53 3.12-1.27 5.13-2.61c2.01-1.34 6.65-5.09 8.69-8.98 2.04-3.88 3.53-8.36 3.6-12.12.06-3.76-4.55-5.99-12-7.11-7.45-1.11-17.7-.79-24.48.27s-13.53 4.12-15.57 5.36c-2.04 1.24-2.38 4.62-1.3 8.21 1.08 3.6 3.1 7.35 5.67 10s6.03 5 6.03 5 1.99-3.1 2.78-4.12 1.08-1.85 2.55-2.1c1.46-.24 2.14.18 3.4-.47s2.04-.94 2.42-.45c.5.65.78 1.94.35 2.83s-1.42 2.03-1.84 2.45-1.34.81-1.94 1.07c0 0-.81 1.06-1.05 2.04z" style="fill:none"/></clipPath><style>.cls-4{fill:#b8d8dc}.cls-5{fill:#e1f5f4}.cls-6{fill:#d4a684}.cls-7{fill:#fff}.cls-8{fill:#b6858e}.cls-9{fill:#fc9fac}.cls-12{fill:#fcbe0c}.cls-14{fill:#d48c9c}.cls-15{fill:#603b5d}</style></defs><path d="M187.81 92.75c-.43-1.49-.89-2.98-1.37-4.46 1.01-10.39.43-20.79-3.85-30.66-7.2-16.61-23.82-22.86-39.23-29.99C113.13 13.67 78.89 2.7 46.52 16.3c-12.94 5.43-24.59 14.62-31.13 27.24C7.4 58.97 7.27 77.28 9.15 94.17c3.74 33.46 18.66 66.52 48.51 84.28 14.11 8.39 30.54 12.39 46.9 10.54 18.18-2.06 35.34-9.8 51.71-17.59 14.27-6.8 27.54-15.94 32.98-31.47 5.22-14.9 2.79-32.33-1.44-47.18z" style="fill:#575655" id="BG_Strong"/><g id="Illustrations"><path class="cls-9" d="M121.06 28.51c-.08.02-.14.05-.23.05-.99 0-1.15-1.26-.49-1.7-.95-1.97-2.19-3.84-3.78-5.45-1.52-1.54-3.13-2.8-4.79-3.82-.02.05-.03.1-.06.14-.05.06-.1.12-.14.19-.12.11-.25.19-.41.24l-.25.03c-.13 0-.25-.02-.36-.08a.804.804 0 0 1-.3-.19.672.672 0 0 1-.19-.3.732.732 0 0 1-.08-.36v-.19c0-.15.04-.29.11-.43-.83-.42-1.67-.77-2.52-1.07-.12.3-.39.54-.81.54-.66 0-.94-.56-.87-1.07-.03 0-.07-.02-.1-.03-.06-.02-.13-.03-.19-.05-.28-.07-.55-.14-.83-.19-.2-.04-.4-.08-.6-.11-.15-.03-.3-.06-.46-.08l-.63-.09c-.18-.02-.37-.05-.55-.06-.08 0-.17-.02-.25-.03h-.17c-.47-.04-.94-.07-1.41-.08-1.27-.03-2.43.1-3.47.32.21.55-.06 1.3-.82 1.3-.59 0-.88-.45-.89-.9-.78.21-1.55.44-2.29.74-.7.28-1.39.61-2.06.97-.34-.26-1.03-.63-2.49-1.05-.37-.1-.75-.14-1.13-.15-.26-.02-.51-.02-.77 0-1.12.08-2.15.47-3.08 1.04.09-.03.17-.06.27-.06 1.19 0 1.19 1.85 0 1.85-.87 0-1.1-.98-.7-1.52-.45.31-.88.67-1.28 1.05s-.77.8-1.13 1.22c-1.9 1.91-3.69 4.41-5.19 7.1-.3.48-.61.95-.9 1.44-2.09 3.64-3.62 7.65-3.95 11.86-.3 3.84.44 7.96 2.89 11.04 1.14 1.43 2.66 2.51 4.41 3.06.27.08.54.15.82.21a.916.916 0 0 1-.19-.33l-.03-.25c0-.17.04-.32.13-.47.05-.06.1-.12.14-.19.08-.09.18-.15.3-.19.11-.06.23-.08.36-.08.13 0 .25.02.36.08.11.04.21.1.3.19l.19.19c.11.12.19.25.24.41l.03.25c0 .17-.04.32-.13.47-.02.03-.05.06-.07.09h.36a8.6 8.6 0 0 0 3.57-.85c.33.6.66 1.2 1.03 1.78.89 1.39 1.91 2.71 3.13 3.82.38.35.78.66 1.19.97.02-.12.05-.23.11-.34.05-.06.1-.12.14-.19.12-.11.25-.19.41-.24l.25-.03c.13 0 .25.02.36.08.11.04.21.1.3.19.09.08.15.18.19.3.06.11.08.23.08.36v.19c0 .07-.01.13-.03.19.17.06.26.07.26.07s.25-6.95.16-6.98c-.23-.06-.44-.14-.63-.23v-.73l-.98-.76c.87-1.01 1.75-2.02 2.62-3.04.67-.6 1.72-1.77 2.87-3.17-.72-.4-.58-1.74.44-1.74.32 0 .55.14.7.33 1.88-2.37 3.82-5.05 4.8-6.83.12-.21.25-.47.39-.74 1.07-1.76 2.06-3.56 2.92-5.44.06-.12.11-.25.16-.37-.1 0-.19-.02-.28-.06a.804.804 0 0 1-.3-.19.672.672 0 0 1-.19-.3.732.732 0 0 1-.08-.36v-.19c0-.17.04-.32.13-.47.05-.06.1-.12.14-.19.12-.11.25-.19.41-.24l.25-.03c.13 0 .25.02.36.08.11.04.21.1.3.19 0 0 0 .01.01.02.21-.52.42-1.03.62-1.55.58-1.23 1.07-2.27 1.37-2.89.82.03 1.96.09 2.57.16 1.02.12 2.92.75 4.54 1.56.19.09.37.2.54.32-.09-.11-.17-.22-.21-.36l-.03-.25c0-.13.02-.25.08-.36.04-.11.1-.21.19-.3.08-.09.18-.15.3-.19.11-.06.23-.08.36-.08h.13c.17 0 .32.04.47.13.06.05.13.1.19.14.11.12.19.25.24.41l.03.25c0 .13-.02.25-.08.36-.04.11-.1.21-.19.3-.08.09-.18.15-.3.19-.11.06-.23.08-.36.08h-.13c-.13 0-.26-.03-.37-.09 1.18.93 2.1 2.4 3.12 4.17.84 1.47 1.94 5.97 2.58 8.76v.31c-.01.83-.06 1.66-.13 2.48-.03.32.29.59.59.59.09 0 .17-.02.24-.05.02.66.02 1.05.02 1.05s.49 0 .49-5.4c0-3.08-.55-6.69-1.9-10.11zm-43.88 3.66c1.19 0 1.19 1.85 0 1.85s-1.19-1.85 0-1.85zm.19 5.81c-1.19 0-1.19-1.85 0-1.85s1.19 1.85 0 1.85zm-2.09-3c0 .17-.04.32-.13.47-.05.06-.1.12-.14.19-.12.11-.25.19-.41.24l-.25.03c-.13 0-.25-.02-.36-.08a.804.804 0 0 1-.3-.19.672.672 0 0 1-.19-.3.732.732 0 0 1-.08-.36v-.19c0-.17.04-.32.13-.47.05-.06.1-.12.14-.19.12-.11.25-.19.41-.24l.25-.03c.13 0 .25.02.36.08.11.04.21.1.3.19.09.08.15.18.19.3.06.11.08.23.08.36v.19zm2.18 16.75c-.04.11-.1.21-.19.3l-.19.19c-.12.11-.25.19-.41.24l-.25.03c-.17 0-.32-.04-.47-.13-.06-.05-.13-.1-.19-.15a.672.672 0 0 1-.19-.3.732.732 0 0 1-.08-.36c0-.13.02-.25.08-.36.04-.11.1-.21.19-.3l.19-.19c.12-.11.25-.19.41-.24l.25-.03c.17 0 .32.04.47.13.06.05.13.1.19.15.09.08.15.18.19.3.06.11.08.23.08.36 0 .13-.02.25-.08.36zm1.42-1.31c-1.19 0-1.19-1.85 0-1.85s1.19 1.85 0 1.85zm3.39-29.55c1.19 0 1.19 1.85 0 1.85s-1.19-1.85 0-1.85zm-.38 17.33c1.19 0 1.19 1.85 0 1.85s-1.19-1.85 0-1.85zm1.41 4.97c-.17.17-.42.27-.66.27h-.38c-.25 0-.47-.1-.66-.27-.18-.17-.26-.42-.27-.66-.01-.23.11-.49.27-.66.17-.17.42-.27.66-.27h.38c.25 0 .47.1.66.27.18.17.26.42.27.66.01.23-.11.49-.27.66zm1.61-2.36c-1.19 0-1.19-1.85 0-1.85s1.19 1.85 0 1.85zm1.31-19.97c-1.19 0-1.19-1.85 0-1.85s1.19 1.85 0 1.85zm4.24 35.07c.06.11.08.23.08.36v.19c0 .17-.04.32-.13.47-.05.06-.1.13-.14.19-.12.11-.25.19-.41.24l-.25.03c-.13 0-.25-.02-.36-.08a.804.804 0 0 1-.3-.19.672.672 0 0 1-.19-.3.732.732 0 0 1-.08-.36v-.19c0-.17.04-.32.13-.47.05-.06.1-.12.14-.19.12-.11.25-.19.41-.24l.25-.03c.13 0 .25.02.36.08.11.04.21.1.3.19.09.08.15.18.19.3zm.66-28.67c-1.19 0-1.19-1.85 0-1.85s1.19 1.85 0 1.85zm2.26 2.64c-1.19 0-1.19-1.85 0-1.85s1.19 1.85 0 1.85zm1.13 12.62c-1.19 0-1.19-1.85 0-1.85s1.19 1.85 0 1.85zm.19-16.2c-1.19 0-1.19-1.85 0-1.85s1.19 1.85 0 1.85zm3.21 16.01c-1.19 0-1.19-1.85 0-1.85s1.19 1.85 0 1.85zm9.6-22.23c-1.19 0-1.19-1.85 0-1.85s1.19 1.85 0 1.85z"/><path class="cls-8" d="M81.89 38.2c-1.19 0-1.19 1.85 0 1.85s1.19-1.85 0-1.85zM82.64 41.59h-.38c-.24 0-.49.1-.66.27-.16.16-.28.42-.27.66.01.24.09.49.27.66.18.17.4.27.66.27h.38c.24 0 .49-.1.66-.27.16-.16.28-.42.27-.66-.01-.24-.09-.49-.27-.66a.938.938 0 0 0-.66-.27zM84.91 38.95c-1.19 0-1.19 1.85 0 1.85s1.19-1.85 0-1.85zM91.12 25.39c-1.19 0-1.19 1.85 0 1.85s1.19-1.85 0-1.85zM94.7 24.45c-1.19 0-1.19 1.85 0 1.85s1.19-1.85 0-1.85zM93.38 28.03c-1.19 0-1.19 1.85 0 1.85s1.19-1.85 0-1.85zM94.51 40.65c-1.19 0-1.19 1.85 0 1.85s1.19-1.85 0-1.85zM97.91 40.46c-1.19 0-1.19 1.85 0 1.85s1.19-1.85 0-1.85zM96.4 43.66c-1.02 0-1.16 1.34-.44 1.74.37-.45.75-.92 1.14-1.4-.15-.2-.38-.33-.7-.33zM105.44 30.63l.25-.03a.86.86 0 0 0 .41-.24c.05-.06.1-.12.14-.19.08-.14.13-.3.13-.47v-.19c0-.13-.02-.25-.08-.36a.75.75 0 0 0-.18-.28c-.24.58-.49 1.16-.74 1.74.03 0 .05.02.08.02z"/><path class="cls-8" d="M105.8 28.67a.732.732 0 0 0-.36-.08l-.25.03a.86.86 0 0 0-.41.24c-.05.06-.1.12-.14.19-.08.14-.13.3-.13.47v.19c0 .13.02.25.08.36.04.11.1.21.19.3.08.09.18.15.3.19.09.05.18.06.28.06.26-.57.51-1.15.74-1.74 0 0 0-.01-.01-.02a.672.672 0 0 0-.3-.19zM106.76 16.13c.42 0 .69-.24.81-.54-.56-.2-1.12-.38-1.68-.53-.07.51.21 1.07.87 1.07zM107.51 18.23c-1.19 0-1.19 1.85 0 1.85s1.19-1.85 0-1.85zM109.98 17.27c0 .13.02.25.08.36.04.11.1.21.19.3.08.09.18.15.3.19.11.06.23.08.36.08l.25-.03a.86.86 0 0 0 .41-.24c.05-.06.1-.12.14-.19.03-.05.04-.09.06-.14-.55-.34-1.11-.66-1.68-.94-.07.13-.11.28-.11.43v.19zM96.4 15.94c.76 0 1.03-.76.82-1.3l-.46.09c-.42.08-.84.2-1.25.31.01.45.31.9.89.9zM82.27 22.72c1.19 0 1.19-1.85 0-1.85s-1.19 1.85 0 1.85zM83.27 16.87c.14-.1.28-.19.42-.28-.18.05-.32.15-.42.28zM83.96 18.39c1.19 0 1.19-1.85 0-1.85-.1 0-.19.03-.27.06-.14.09-.28.18-.42.28-.4.53-.17 1.52.7 1.52zM86.22 18.98c-1.19 0-1.19 1.85 0 1.85s1.19-1.85 0-1.85zM77.18 34.02c1.19 0 1.19-1.85 0-1.85s-1.19 1.85 0 1.85zM75.01 34.14a.672.672 0 0 0-.3-.19.732.732 0 0 0-.36-.08l-.25.03a.86.86 0 0 0-.41.24c-.05.06-.1.12-.14.19-.08.14-.13.3-.13.47v.19c0 .13.02.25.08.36.04.11.1.21.19.3.08.09.18.15.3.19.11.06.23.08.36.08l.25-.03a.86.86 0 0 0 .41-.24c.05-.06.1-.12.14-.19.08-.14.13-.3.13-.47v-.19c0-.13-.02-.25-.08-.36a.804.804 0 0 0-.19-.3zM77.37 36.13c-1.19 0-1.19 1.85 0 1.85s1.19-1.85 0-1.85zM77.27 50.72c-.06-.05-.12-.1-.19-.15a.947.947 0 0 0-.47-.13l-.25.03a.86.86 0 0 0-.41.24l-.19.19c-.09.08-.15.18-.19.3-.06.11-.08.23-.08.36 0 .13.02.25.08.36.04.11.1.21.19.3.06.05.12.1.19.15.14.08.3.13.47.13l.25-.03a.86.86 0 0 0 .41-.24l.19-.19c.09-.08.15-.18.19-.3.06-.11.08-.23.08-.36 0-.13-.02-.25-.08-.36a.804.804 0 0 0-.19-.3zM78.88 48.56c-1.19 0-1.19 1.85 0 1.85s1.19-1.85 0-1.85zM80.75 53.45l-.03-.25a.86.86 0 0 0-.24-.41l-.19-.19a.672.672 0 0 0-.3-.19.732.732 0 0 0-.36-.08c-.13 0-.25.02-.36.08-.11.04-.21.1-.3.19-.05.06-.1.12-.14.19-.08.14-.13.3-.13.47l.03.25c.04.13.11.23.19.33.53.11 1.07.16 1.62.17.02-.03.05-.06.07-.09.08-.14.13-.3.13-.47zM89.97 55.42a.732.732 0 0 0-.36-.08l-.25.03a.86.86 0 0 0-.41.24c-.05.06-.1.13-.14.19-.08.14-.13.3-.13.47v.19c0 .13.02.25.08.36.04.11.1.21.19.3.08.09.18.15.3.19.11.06.23.08.36.08l.25-.03a.86.86 0 0 0 .41-.24c.05-.06.1-.13.14-.19.08-.14.13-.3.13-.47v-.19c0-.13-.02-.25-.08-.36a.804.804 0 0 0-.19-.3.672.672 0 0 0-.3-.19zM91.67 59.85c0-.13-.02-.25-.08-.36a.804.804 0 0 0-.19-.3.672.672 0 0 0-.3-.19.732.732 0 0 0-.36-.08l-.25.03a.86.86 0 0 0-.41.24c-.05.06-.1.13-.14.19-.06.11-.09.22-.11.34.25.18.5.37.76.53.18.12.41.09.59-.01.18.08.29.12.29.12v-.19c.06.03.12.05.17.07.01-.06.03-.13.03-.19v-.19zM115.78 26.53c.06.05.13.1.19.15.03.02.06.03.09.04-.1-.08-.2-.16-.31-.24.01.02.02.04.03.05z"/><path class="cls-8" d="M116.56 26.8c.13 0 .25-.02.36-.08.11-.04.21-.1.3-.19.09-.08.15-.18.19-.3.06-.11.08-.23.08-.36l-.03-.25a.86.86 0 0 0-.24-.41c-.06-.05-.13-.1-.19-.14a.947.947 0 0 0-.47-.13h-.13c-.13 0-.25.02-.36.08-.11.04-.21.1-.3.19-.09.08-.15.18-.19.3-.06.11-.08.23-.08.36l.03.25c.04.14.12.25.21.36.11.07.21.16.31.24.12.05.24.09.37.09h.13zM120.83 28.56c.09 0 .16-.03.23-.05-.22-.56-.46-1.11-.73-1.65-.65.44-.5 1.7.49 1.7z"/><path class="cls-5" d="M11.85 98.73c.56 0 .57-.88 0-.88s-.57.88 0 .88zM15.25 94.27c.56 0 .57-.88 0-.88s-.57.88 0 .88zM15.43 107.71c.56 0 .57-.88 0-.88s-.57.88 0 .88zM15.48 116.84c.56 0 .57-.88 0-.88s-.57.88 0 .88z"/><path class="cls-7" d="M65.13 141.07c-.02-.53-.05-1.05-.07-1.58-.07-1.43-.13-2.86-.2-4.29-.1-2.12-.19-4.23-.29-6.35l-.36-7.74-.39-8.48-.39-8.56c-.12-2.66-.24-5.32-.37-7.98l-.31-6.72c-.07-1.62-.15-3.23-.22-4.85-.04-.77-.06-1.53-.11-2.3v-.1c0-.19-.15-.35-.35-.35H48.43c-.28-6.45-5.6-11.61-12.11-11.61s-11.83 5.16-12.11 11.61H8.28c-.2 0-.34.16-.35.35-.02.53-.05 1.05-.07 1.58-.07 1.43-.13 2.86-.2 4.29-.1 2.12-.19 4.23-.29 6.35l-.36 7.74-.39 8.48-.39 8.56c-.12 2.66-.24 5.32-.37 7.98l-.31 6.72c-.07 1.62-.15 3.23-.22 4.85-.04.76-.09 1.53-.11 2.3v.1c0 .19.17.35.35.35h59.22c.08 0 .13-.02.18-.06.1-.05.17-.15.17-.29zM33.1 81.78c.18-1.62 1.54-2.88 3.2-2.88s3.02 1.27 3.2 2.88h-6.41zm10.43 0v-.09h.89v.09h-.89zm10.86 58.94H5.93h58.48-10.02z"/><path class="cls-9" d="m92.11 74.69.03-6.81s3.05 1.94 4.33 2.46c1.28.53 5.41 1.92 7.74 2.03 2.33.12 3.69.26 5.46-.07s4.08-.83 4.77-1.46 1.83-1.88 1.83-1.88l.08 2.35s4.36.91 6.23 1.5 5.89 2.04 7.61 3.07c1.72 1.03 3.34 1.98 4.9 3.43 1.55 1.45 4.59 4.83 4.59 4.83l-.47.69s-.61-.31-1.01-.13-1.14.89-.96 1.41.09.91.09.91-.93.07-1.16.7-.09 2.04-.09 2.04-.55.42-.76 1.23-.36 1.8.6 2.54 3.55 1.89 5 1.78c1.44-.1 2.94-.37 3.72-.76s1.56-.89 1.56-.89 4.72 8.38 5.28 9.4 4.14 7.17 4.98 8.28c.85 1.1 3.66 4.08 3.66 4.08s-5.06-.01-6.08 0-8.8.18-11.05.49-9.77 1.88-11.71 2.55c-1.93.67-6.09 2.26-6.89 2.92s-1.88 2.07-2 2.58-.37 2.63.29 4.73 1.63 4.53 2.03 5.24 1.68 3.09 1.68 3.09-.74 4.98-1.35 6.89-2.65 6.22-2.65 6.22-5.57 1.97-9.23 2.28-11.13.82-14.99 0c-3.86-.82-11.47-2.95-11.47-2.95s2.64 2.89 4.36 4.19c1.72 1.3 4.91 3.7 8.05 4.68 3.15.98 7.09 1.42 10.12 1.59s6.88-.98 8.54-1.66 5.03-2.53 5.03-2.53 1.22 3.44 1.92 5.36 3.34 9.09 3.34 9.09l2.17 5.75s-4.21 1.46-7.84 2.14-8.45 1.65-13.07 1.56c-4.62-.09-14.75-.24-25.97-5.16-11.22-4.92-20.31-15.05-24.59-24.34-4.29-9.3-6.97-21.51-5.22-30.8 1.75-9.28 2.39-13.8 7.1-21.48 4.71-7.68 10.38-12.65 15.77-15.65 5.39-3.01 15.73-7.51 15.73-7.51z"/><path class="cls-7" d="M134.09 144.19s-5.42-4.35-7.09-6.72-2.69-4.02-3.4-5.8-1.29-5.07-1.39-6.22.76-2.72 1.46-3.4 4.36-2.48 6.31-3.14c1.95-.66 7.05-2.19 11.06-2.69s11.07-.89 13.22-.81c2.15.08 8.07.35 10.02.7 1.94.35 5.54 1.16 6.85 1.58s2.86.96 3.33 1.57.82 1.54.78 2.54-.29 3.95-.63 5.27-1.38 4.81-2.64 6.84c-1.26 2.03-1.92 3.16-3.14 4.48-1.22 1.32-4.22 3.65-4.94 4.3s-2.46 1.73-3.27 2.13-2.73 1.21-2.73 1.21-.56-.65-1.79-.52-2.12-.05-2.96.17-1.83.5-1.83.5-2.59-.8-3.7-.67c-1.11.13-3.59.39-4.15.34s-3.47.94-3.47.94-.15-.89.27-1.94c.41-1.05.97-2.19 1.34-2.16s1.8-.56 2.34-1.27 1.51-2.09 1.65-2.62.71-.56.07-1.14-.76-.96-1.6-.65-1.05.77-2.46.99c-1.41.21-2.61.23-3.05.58s-.68.83-1.51 1.9-1.59 2.32-1.84 2.56-1.1 1.16-1.1 1.16z"/><path class="cls-9" d="M174.01 118.57s1.59-.88 1.93-1.13 1.71-1.47 1.71-1.47-.63-6.67-1.02-8.73c-.4-2.06-1.72-7.57-2.13-8.97s-1.71-5.52-1.71-5.52 1.71.08 3.61-.43c1.9-.5 4.88-1.4 6.83-2.47 1.94-1.07 5.36-3.31 5.36-3.31l1.72-1.52s1.21 2.47 1.85 4.34c.64 1.87 2.27 8.06 2.55 9.64s1.1 8 1.23 9.75.47 8.58-.17 12.36-2.01 9.22-3.59 11.49-3.99 5.17-6.61 6.7-6.02 3.11-7.84 3.53c-1.81.42-5.39 1.05-7.44.93-2.06-.11-6.41-1.07-6.41-1.07s2.84-1.78 4.09-3.12 3.48-4.46 4.28-6.51 2.48-5.71 2.67-7.76.84-4.66.19-5.35-1.1-1.39-1.1-1.39z"/><path class="cls-12" d="M136.34 91.47c-.32-.61-.24-.86-.28-1.73s-.25-1.62.09-2.04 1.25.21 1.16-.7-.13-1.46.22-1.8.86-.44 1.05-.49.4.21.83-.3.88-.74 1.22-1.2.58-.95 1.27-1.23 1.35-.1 2.09.05.87.7 1.56.7 1.24.25 1.63.47.47.85.68 1.14.74.56.66 1.53-.44 1.88-.44 1.88-.67.2-1.07.49-.69.64-1.14.47-.79.08-.79.08.25.39-.51 1.03-1.24.4-1.31.81.04.99.04.99-.83.71-1.05.77-1.64.54-2.14.38-1.97 0-2.5-.29-1.27-1.04-1.27-1.04zM128.04 128.68s.49-1.23 1.49-1.85 2.34-1.38 2.72-1.52 2.33-.79 2.33-.79-.4-1.12.38-1.52 1.51-.45 1.73-.29.71.24.71.24.42-.85 1.27-1.13c.85-.28 1.23-.16 1.58 0s.98.89.98.89l.36.44s3.69-.29 5.83-.53c2.14-.24 7.83-.22 7.83-.22l1.46.22s1.39-1.64 1.89-1.75 1.42-.12 1.76 0 .76 1.23.95 1.46.29.62.29.62 1.87.5 2.94.54 3.03.58 3.88.85 1.38.85 1.54 1.03.33.78.33.78-1.87.73-2.04.87-5.86 1.34-6.92 1.67c-1.06.33-4.93.86-6.07 1.02s-7.42.88-9.08.88c-1.65 0-6.91.23-8.05 0-1.14-.23-6.7-.98-7.78-1.16-1.08-.18-2.31-.74-2.31-.74z"/><path class="cls-4" d="m147.87 83.51 2.56-.1s1.33-1.61 2.33-2.71c1-1.09 5.95-6.01 5.95-6.01l1.55-1.29s-1.69 3.35-1.95 3.9-1.32 2.81-1.32 2.81-1 1.07-1.84 2.08c-.84 1.01-3.06 3.78-4.32 5.67s-2.72 4.16-3.69 4.97c-.97.82-2.69 1.77-3.88 2.14s-2.75.62-4.3.1-2.49-.85-3.08-1.56-.86-1.26-.73-1.9.68-1.62.68-1.62-.15 1.39.96 2c1.1.62 3.5.76 4.6.62s1.9-.97 1.9-.97l.33-.68s.42-.46.94-1.13.77-1.03.77-1.03.11.34.89-.1 1.35 0 1.64-.6.77-2.25.52-2.8-.52-.94-.52-.94v-.87zM163.67 70.84c.03-.53 3.98-3.69 5.04-4.48 1.07-.79 3.76-2.54 4.52-2.96s2-.64 2.44 0 .71.96.28 1.8-.66 1.17-1.73 1.85-2.8 1.68-2.8 1.68l-1.96-.15s-1.3-.04-1.52.06-3.03 1.54-3.03 1.54l-1.24.66z"/><path d="M167.07 67.6s-2.35-.13-3.19 0-1.44.64-2.27 1.34-2.06 1.37-2.84 1.74-1.67 1.64-2.15 2.11-.96.62-.77.89 1.24.65 2 .63 1.19.14 1.51-.17 2.95-2.67 3.14-2.83 3.64-2.99 3.64-2.99l.91-.71z" style="fill:#f7f7f7"/><path class="cls-6" d="M157.09 82.06c-.26-.16-.42-.87-.42-.87s1.44-3.47 1.64-3.89 1.92-2.82 2.3-3.55 2.29-2.31 3.27-2.81 3.06-1.81 3.56-2.05 1.11-.46 2.01-.3 2.74.44 3.44.72 2.88 1.63 3.57 2.05 2.68 2.42 3.54 3.27 3.83 4.93 4.5 6.04l3.55 5.88s-1.72 1.59-2.94 2.28c-1.21.69-5.25 2.45-6.31 2.8-1.06.35-3.55.92-3.55.92l-1.65-5.84s-.99-.21-1.72-.04-2.2.58-2.93.53-2.43-.23-3-.65-.75-.73-.7-1.13.34-.59.34-.59-1.97.2-2.66-.25-1.07-.8-1.07-1.19.33-1.19.33-1.19-.76.27-1.33.48-1.46.48-1.66.06-.04-1-.04-1l-.19-.82s-1.25.98-1.38 1.04-.52.12-.52.12zM129.31 172.93c-.2.11-2.64-6.49-3.3-8.21s-2.35-6.49-2.35-6.49l2.69-1.13c-.05.02 2.95-1.96 2.95-1.96s1.09-2.39 1.45-3.66 1.01-4.15 1.79-5.28 2.31-2.64 2.9-3.49 1.68-2.6 2.04-3.19.3-.83 1.49-1.07c1.19-.24 2.26-.24 2.97-.59.71-.36 1.94-.85 2.56-.76s1.72.6 1.07 1.72-.98 1.98-1.65 2.62-1.25.85-1.53 1.07-.81.2-.81.2-1.09 1.08-1.34 2.16a9.607 9.607 0 0 0-.27 1.94s1.85-.78 2.86-.94 3.69-.59 4.76-.34c1.07.25 3.7.67 3.7.67s1.21-.35 2.26-.33 3.57 0 3.57 0l1.02.34 3.64-1.62s-.42 1.23-.88 1.6-.78.73-1.28 1.16-1.48.82-1.48.82-.05.94-.7 1.69-1.93 1.73-2.89 2.15-1.5.58-1.94.82-1.72.83-1.72.83-2.54 3.72-3.37 4.71-4.65 5.03-6.06 6.2c-1.41 1.17-4.61 3.67-5.84 4.5-1.23.83-5.28 3.51-5.28 3.51l-1.04.36zM92.05 67.55l.08-10.39-.07-3.83-2.02-1.56s1.37-2.51 2.17-3.24 7.3-7.51 8.3-9.8c1-2.29 2.56-5.15 3.78-7.25 1.21-2.1 3.26-7.06 3.26-7.06s3.12.22 4.8.53c1.67.31 4.45 2.2 5.59 3.78s2.86 6.09 3.19 8.33.96 9.03 1.21 11.03.23 8.03-.31 10.1-1.82 4.84-2.54 5.57-3.13 2.92-3.13 2.92-.06 1.67-.1 2.28-2.3 2.44-4.45 2.89c-2.15.45-6.47.58-9.15.33-2.69-.25-7.4-2.48-8.38-2.93s-2.23-1.69-2.23-1.69zM158.55 74.29s-1.48-.11-1.92-.19-.7-.61 0-1.3 1.19-1.17 1.67-1.64.96-.86 1.66-1.19 1.64-1.01 1.91-1.23 2.02-1.13 2.02-1.13h2.28l-4.98 4.79-2.63 1.89z"/><path class="cls-15" d="M166.75 67.05c-.45-.02-.9-.03-1.36-.05-.57-.03-1.1-.11-1.67 0-.63.11-1.18.42-1.67.83-.4.35-.75.76-1.15 1.11-.18.16-.38.3-.6.4-.29.13-.62.18-.92.3-.65.27-1.13.87-1.62 1.35-.53.53-1.07 1.05-1.6 1.58-.25.25-.61.51-.73.85-.13.37.03.73.35.93.5.32 1.22.39 1.8.44.62.05 1.28.03 1.87-.17s.34-1.16-.26-.95c-.82.28-1.86.2-2.7-.07-.02 0-.22-.08-.21-.09l.08.11c-.05.17-.04.22.01.14.05-.02.12-.12.16-.16.26-.25.51-.5.77-.76l1.44-1.41c.22-.21.43-.44.66-.64s.45-.28.73-.35c.54-.15.98-.38 1.41-.73.75-.62 1.3-1.49 2.3-1.72.53-.12 1.04-.02 1.57 0 .45.02.9.03 1.36.05.63.03.63-.95 0-.99z"/><path class="cls-12" d="M136.4 89.65c-.14-.6-.33-1.4.16-1.89.2-.2.48-.19.73-.3.32-.14.45-.43.47-.76.02-.36-.05-.73.02-1.08.04-.22.17-.51.41-.57s.51.12.72.19c.28.1.59.14.86.01s.43-.38.54-.65.23-.54.38-.8c.29-.52.67-1.02 1.17-1.36.48-.32 1.04-.48 1.61-.43.27.03.53.11.77.25.25.16.42.4.65.58.32.25.7.28 1.09.27.31-.01.44-.04.7.06.37.14.76.44.62.88s.54.62.68.19c.18-.57-.07-1.09-.53-1.44s-.9-.42-1.43-.4c-.16 0-.33.02-.49-.01-.18-.04-.3-.17-.42-.3-.23-.24-.48-.44-.78-.57-.61-.27-1.32-.29-1.96-.1-1.38.41-2.15 1.65-2.7 2.88-.12.28-.23.36-.52.27s-.58-.25-.91-.25c-.77 0-1.16.77-1.2 1.45-.02.24 0 .47 0 .71 0 .14.04.28-.1.33-.17.07-.36.08-.53.16s-.32.2-.44.34c-.61.72-.47 1.66-.28 2.5.1.44.78.25.68-.19z"/><path class="cls-4" d="M142.97 92.42c.48-.05.73-.47.67-.93-.02-.17-.16-.45-.09-.62.01-.03.01-.02-.01 0 .04-.03.11-.01.16-.01.11 0 .22-.01.33-.05.4-.12.69-.47.87-.83.1-.19.17-.39.25-.58.06-.13.19-.45.35-.48h-.19c.12.02.22.11.34.15s.25.05.37.04c.29-.01.58-.13.83-.28s.47-.34.67-.55c.1-.1.18-.21.27-.32.05-.06.13-.17.18-.13.37.26.72-.35.36-.61-.33-.23-.73-.08-.99.19-.27.28-.49.58-.82.79-.14.09-.29.17-.46.2-.19.03-.29-.07-.46-.13-.39-.14-.7.16-.9.46-.19.29-.28.62-.44.92-.08.15-.17.31-.31.41-.12.09-.24.08-.38.09-.39.03-.68.25-.74.65-.03.18 0 .35.04.53l.06.32c.01.07-.08.07.02.06-.19.02-.35.15-.35.35 0 .18.16.37.35.35z"/><path class="cls-9" d="M126.01 137.01c-.47 3.51-1.14 7.06-2.57 10.32-.4.9-.85 1.78-1.37 2.62-.24.39.37.74.61.36 1.92-3.09 2.93-6.66 3.57-10.21.18-1.02.34-2.05.47-3.08.03-.19-.18-.35-.35-.35-.21 0-.33.16-.35.35zM188.66 136.43c-2.53 2.34-5.53 4.17-8.77 5.35s-6.7 1.75-10.15 1.62a24.95 24.95 0 0 1-5.76-.89c-.44-.12-.62.56-.19.68a26.5 26.5 0 0 0 10.56.68c3.51-.47 6.92-1.63 9.99-3.4 1.73-1 3.35-2.19 4.82-3.55.33-.31-.17-.81-.5-.5zM177.41 115.72c-.5.53-1.06 1-1.64 1.42s-1.24.83-1.93 1.13c-.17.08-.21.33-.13.48.11.18.31.2.48.13.7-.31 1.36-.72 1.98-1.16s1.21-.94 1.74-1.49c.31-.33-.19-.83-.5-.5zM145.87 93.84c1.73 2.84 3.31 5.77 4.89 8.69s3.21 6.01 5.2 8.77c1.14 1.58 2.41 3.08 3.88 4.37.34.3.84-.2.5-.5-2.56-2.26-4.51-5.11-6.23-8.04s-3.3-6.01-4.96-9.01c-.86-1.56-1.75-3.11-2.68-4.63-.24-.39-.84-.03-.61.36zM91.76 74.58c-4.19 1.57-8.34 3.27-12.28 5.4-3.88 2.1-7.51 4.63-10.77 7.6-3.27 2.98-6.06 6.48-8.46 10.18-2.62 4.04-4.38 8.45-5.57 13.11-2.43 9.51-2.51 19.65-.05 29.16 2.2 8.51 6.49 16.41 12.42 22.89 2.86 3.13 6.11 5.91 9.64 8.25 3.74 2.47 7.77 4.35 12.04 5.7 1.12.35 2.25.67 3.38.96.44.11.63-.57.19-.68-4.39-1.09-8.64-2.68-12.57-4.93a50.195 50.195 0 0 1-9.98-7.53 53.094 53.094 0 0 1-13.44-21.41c-3.05-9.24-3.57-19.27-1.72-28.81.92-4.75 2.33-9.55 4.71-13.79a52.78 52.78 0 0 1 7.72-10.48c6.01-6.33 13.74-10.54 21.78-13.74 1.04-.42 2.09-.82 3.15-1.21.42-.16.24-.84-.19-.68z"/><path class="cls-15" d="M141.05 142.24c-.47.82-.98 1.63-1.3 2.53-.33.95-.34 1.95-.12 2.93.14.62 1.09.36.95-.26-.19-.84-.15-1.66.14-2.47s.76-1.51 1.17-2.23c.32-.55-.54-1.05-.85-.5z"/><path class="cls-15" d="M140.5 147.16c1.46-.9 3.22-1.04 4.89-1.06 1.94-.03 3.88.16 5.78.56.26.05.53-.08.61-.34.07-.24-.08-.55-.34-.61-1.57-.33-3.16-.52-4.76-.58-1.48-.05-3.01-.03-4.47.3-.77.18-1.53.46-2.21.88-.54.33-.05 1.19.5.85zM146.98 151.24c1.25-.3 2.52-.47 3.8-.51.64-.02 1.29.01 1.93-.07s1.16-.27 1.71-.54c.51-.25.99-.57 1.51-.78s1.12-.35 1.69-.51c1.02-.28 2-.72 2.77-1.46.76-.72 1.27-1.67 1.82-2.55.34-.54-.52-1.04-.85-.5-.46.73-.88 1.53-1.46 2.14-.64.69-1.47 1.1-2.38 1.37-.56.16-1.14.29-1.69.49s-1.05.48-1.55.76-.98.5-1.53.58c-.59.09-1.2.05-1.79.07-1.43.04-2.85.23-4.24.55-.62.15-.36 1.1.26.95z"/><path class="cls-15" d="M150.01 154.12c2.64-.87 5.67-1.38 7.55-3.63.48-.57.85-1.21 1.06-1.93.18-.61-.77-.87-.95-.26-.43 1.41-1.6 2.43-2.86 3.11-1.58.85-3.38 1.2-5.07 1.76-.6.2-.34 1.15.26.95zM141.89 143.17c1.16-.24 2.06-1.05 2.77-1.96.34-.44.64-.91.93-1.39.33-.56.71-1.18.64-1.86-.13-1.32-1.64-1.66-2.71-1.28-.61.22-1.16.59-1.78.77s-1.33.22-2 .31c-1.25.17-2.73.77-3.02 2.15-.05.26.08.53.34.61.24.07.55-.08.61-.34.18-.87 1.12-1.25 1.91-1.4.58-.11 1.17-.14 1.76-.23s1.14-.3 1.68-.56c.43-.21.9-.47 1.36-.48.33 0 .69.1.82.37.2.4-.2.99-.41 1.36-.25.42-.51.84-.79 1.23-.59.82-1.35 1.55-2.37 1.76-.26.05-.41.36-.34.61.07.27.35.4.61.34zM162.89 76.3c1.35-.57 2.7-1.15 4.05-1.72 1.14-.48 2.44-.88 3.18-1.93.15-.22.04-.55-.18-.67-.25-.14-.52-.04-.67.18-.3.42-.77.68-1.23.89-.58.27-1.18.51-1.77.76-1.29.55-2.59 1.1-3.88 1.65-.25.1-.3.47-.18.67.15.25.43.28.67.18z"/><path class="cls-4" d="M150.68 83.65c2.47-3 5.16-5.8 8-8.45 2.89-2.7 5.92-5.26 9.06-7.67 1.72-1.32 3.47-2.6 5.24-3.83.37-.26.02-.87-.36-.61-3.22 2.24-6.34 4.61-9.35 7.12-3.05 2.54-5.98 5.22-8.74 8.08a83.524 83.524 0 0 0-4.35 4.87c-.12.15-.14.35 0 .5.12.13.38.15.5 0z"/><path class="cls-4" d="M173.06 63.75c.65-.43 1.49-.66 2.2-.22.66.42.7 1.21.32 1.85-.42.71-1.2 1.16-1.87 1.59-.8.52-1.63 1.01-2.47 1.46-.4.22-.04.82.36.61.76-.41 1.51-.85 2.24-1.32.67-.43 1.4-.86 1.95-1.46.51-.56.84-1.3.72-2.06-.12-.72-.68-1.25-1.34-1.49-.83-.29-1.75-.03-2.46.43-.38.25-.02.86.36.61zM147.87 83.86c.85-.09 1.7-.13 2.56-.1.19 0 .35-.17.35-.35 0-.2-.16-.35-.35-.35-.85-.03-1.71 0-2.56.1-.19.02-.35.15-.35.35 0 .17.16.37.35.35z"/><path class="cls-4" d="M156.75 79.86a70.63 70.63 0 0 0-4.57 5.51c-.71.96-1.4 1.93-2.06 2.93-.6.91-1.18 1.83-1.83 2.7s-1.35 1.66-2.2 2.29c-.79.59-1.68 1.03-2.62 1.3-1.87.55-3.94.49-5.74-.28-.9-.38-1.91-1.04-2.22-2.02-.13-.43-.07-.77.1-1.18s.39-.81.69-1.12c.32-.33-.18-.82-.5-.5-.3.31-.53.69-.71 1.07s-.37.8-.37 1.23c0 1.03.71 1.89 1.49 2.47 1.65 1.22 3.97 1.57 5.97 1.31 2.16-.28 4.1-1.29 5.59-2.88.78-.83 1.44-1.77 2.07-2.71.67-1.01 1.34-2.03 2.04-3.02a66.47 66.47 0 0 1 5.35-6.6c.31-.33-.19-.83-.5-.5z"/><path class="cls-15" d="M164.17 85.3c1.96-.37 3.91-.73 5.54-1.97.21-.16.32-.42.18-.67-.12-.21-.46-.34-.67-.18-.75.57-1.58.98-2.47 1.26-.92.28-1.88.44-2.82.62-.26.05-.41.37-.34.61.08.27.34.39.61.34zM168.84 77.92c-1.09.43-2.14.95-3.16 1.52s-2.01 1.2-2.92 1.94c-.21.17-.18.52 0 .7.2.2.49.17.7 0 .84-.69 1.77-1.25 2.72-1.78s1.92-1.03 2.92-1.43c.25-.1.42-.33.34-.61-.06-.24-.36-.44-.61-.34zM170.74 87.47c.38-.12.76-.27 1.16-.32s.83.01 1.23.03c.79.04 1.57-.02 2.35-.15a10.4 10.4 0 0 0 4.27-1.78c.22-.15.32-.43.18-.67-.13-.21-.46-.33-.67-.18a9.84 9.84 0 0 1-4.11 1.69c-.72.12-1.45.14-2.18.09-.43-.03-.85-.06-1.28 0s-.81.21-1.21.33c-.6.19-.35 1.14.26.95z"/><path class="cls-15" d="M165.84 79.34c-1.23.49-2.47.99-3.7 1.48-.25.1-.42.33-.34.61.06.23.36.44.61.34l3.7-1.48c.25-.1.42-.33.34-.61-.06-.23-.36-.44-.61-.34zM170.41 86.54c-.2.15-.5.13-.74.14-.29.02-.58.02-.87 0-.61-.03-1.21-.12-1.8-.28-.41-.11-1.09-.24-1.25-.7-.14-.38.39-.68.65-.85.53-.34.04-1.2-.5-.85-.57.37-1.18.86-1.16 1.61.02.85.79 1.35 1.51 1.59s1.55.39 2.34.45c.39.03.78.03 1.18 0s.82-.04 1.15-.27c.22-.15.32-.43.18-.67-.13-.21-.46-.33-.67-.18zM167.88 68.13c-2.91 1.25-5.77 2.97-7.97 5.27-.44.46.26 1.16.7.7 2.14-2.25 4.93-3.9 7.77-5.12.24-.11.3-.47.18-.67-.15-.25-.43-.28-.67-.18z"/><path class="cls-15" d="M160.05 73.11c-.78 1.26-1.5 2.57-2.15 3.9-.32.67-.63 1.34-.92 2.03-.15.35-.29.7-.43 1.05s-.31.7-.38 1.06c-.07.4 0 .8.3 1.1.32.32.72.39 1.13.22.25-.1.3-.47.18-.67-.15-.25-.43-.28-.67-.18.15-.06.1 0 .04-.1-.03-.06-.04-.06-.01-.03v-.12c0-.07.04-.14.06-.2.13-.39.29-.76.44-1.14.3-.73.61-1.45.95-2.16.69-1.46 1.47-2.88 2.32-4.26.33-.54-.52-1.04-.85-.5z"/><path class="cls-15" d="M157.39 82.54c.75-.2 1.41-.68 1.91-1.27s1.08-1.13 1.28-1.89c.07-.25-.08-.55-.34-.61s-.54.08-.61.34c-.01.04-.02.09-.04.13 0 .01-.05.12-.02.06.02-.05-.03.07-.04.08-.02.03-.03.06-.05.1-.04.07-.08.14-.13.2l-.06.09c-.09.12.06-.07-.03.04-.21.25-.43.5-.65.75a3.895 3.895 0 0 1-.51.51s-.12.09-.04.04l-.11.08c-.13.09-.26.17-.41.24-.03.02-.07.03-.1.05a1.975 1.975 0 0 1-.31.1c-.25.07-.43.35-.34.61s.34.42.61.34z"/><path class="cls-15" d="M160.21 79.31c.34-.42.72-.82.98-1.31.09-.16.05-.39-.13-.48-.16-.09-.39-.05-.48.13-.06.11-.12.22-.19.32-.04.05-.07.1-.11.15 0 .01-.02.02-.03.04 0 0-.05.06-.01.02.03-.04 0 0 0 0-.01.01-.02.03-.03.04-.16.2-.32.39-.48.59-.06.08-.1.15-.1.25 0 .09.04.19.1.25.13.12.38.15.5 0z"/><path class="cls-15" d="M162.5 75.45c-1.14.64-1.71 1.86-2.31 2.96-.64 1.18-1.22 2.38-1.65 3.66-.2.6.75.86.95.26.4-1.17.93-2.27 1.51-3.35.52-.96 1-2.12 1.99-2.67.55-.31.06-1.16-.5-.85z"/><path class="cls-15" d="M158.52 82.3c.05.51.35.9.84 1.07.44.16.96.04 1.39-.11s.86-.41 1.19-.75c.27-.27.47-.6.69-.91.15-.21.04-.56-.18-.67-.25-.13-.51-.05-.67.18l-.27.39c-.04.05-.08.11-.12.16.04-.05.03-.04 0 0-.02.02-.04.05-.06.07-.04.05-.09.1-.14.14-.03.02-.05.05-.08.07-.01 0-.09.07-.03.03-.14.11-.3.2-.46.28-.05.03-.09.04-.18.07-.09.03-.17.05-.26.08s-.18.04-.27.06H159.77c-.05 0 .06.02-.02 0-.03 0-.07-.02-.1-.03-.05 0 .06.04-.02 0 0 0-.1-.07-.05-.03s-.03-.03-.04-.04l-.03-.03s.04.05.02.02c-.02 0-.03-.1 0 0 0-.03-.03-.14-.01-.03-.03-.26-.21-.51-.49-.49-.24.01-.52.22-.49.49z"/><path class="cls-15" d="M162.87 81.3c-.31.24-.77.48-1.06.82-.36.43-.53.98-.38 1.53.3 1.08 1.56 1.65 2.6 1.66.26 0 .51-.23.49-.49s-.22-.49-.49-.49H163.74c-.1-.02-.2-.04-.29-.07-.05-.01-.09-.03-.14-.05-.01 0-.14-.06-.06-.02-.1-.04-.19-.09-.28-.15s-.18-.11-.27-.18c.08.06-.03-.03-.04-.04l-.1-.1c-.04-.04-.04-.05 0 0-.01-.02-.03-.04-.04-.06-.02-.04-.05-.08-.07-.12l-.03-.06c.02.05.02.05 0 0-.01-.04-.03-.08-.04-.13 0-.02-.01-.15-.01-.04v-.13c0-.11-.02.05 0-.04 0-.02.04-.16.03-.11s.04-.09.05-.1c.02-.04.04-.07.07-.11.07-.1-.06.06.02-.03.03-.03.05-.06.08-.09s.06-.05.09-.08c.02-.02.04-.03.06-.05-.04.03-.05.04-.02.02.08-.05.15-.11.23-.16.2-.14.4-.28.6-.43.21-.16.17-.53 0-.7-.21-.21-.49-.16-.7 0z"/><path class="cls-9" d="M122.28 149.78c-2.04.82-4.13 1.49-6.29 1.86-2.39.41-4.8.66-7.23.76-4.82.2-9.66-.18-14.38-1.16-2.67-.55-5.29-1.3-7.85-2.22-.43-.15-.61.53-.19.68a58.48 58.48 0 0 0 14.25 3.19c4.86.47 9.78.33 14.61-.41 1.27-.19 2.52-.43 3.74-.79s2.37-.77 3.53-1.23c.18-.07.3-.24.25-.43-.05-.17-.26-.32-.43-.25zM195.85 112.99c0 3.4-.15 6.83-.73 10.18s-1.55 6.43-3.24 9.27c-.96 1.61-2.15 3.06-3.52 4.33-.33.31.16.8.5.5 2.5-2.29 4.31-5.2 5.49-8.37 1.19-3.21 1.75-6.63 2.02-10.04.15-1.95.2-3.91.2-5.87 0-.45-.7-.45-.7 0zM138.69 83.55c.32.4.65.79.96 1.2.05.07.17.1.25.1.09 0 .19-.04.25-.1s.11-.16.1-.25c0-.1-.04-.17-.1-.25l-.96-1.2c-.05-.07-.17-.1-.25-.1-.09 0-.19.04-.25.1s-.11.16-.1.25c0 .1.04.17.1.25z"/><path class="cls-9" d="M116.25 71.64c3.46.7 6.9 1.55 10.18 2.85 3.2 1.28 6.15 3.05 8.72 5.34 1.28 1.14 2.41 2.42 3.53 3.72.3.34.79-.16.5-.5-1.01-1.17-2.03-2.33-3.16-3.38a29.102 29.102 0 0 0-3.98-3.1c-2.99-1.93-6.34-3.24-9.74-4.21-1.93-.55-3.89-1-5.86-1.4-.44-.09-.63.59-.19.68z"/><path class="cls-14" d="M91.96 68.18a25.21 25.21 0 0 0 9.88 4.2c1.78.34 3.6.5 5.41.45 1.67-.04 3.38-.22 4.98-.72 1.72-.54 3.32-1.47 4.35-2.98.26-.38-.35-.73-.61-.36-1.79 2.63-5.38 3.22-8.32 3.34-3.48.15-6.97-.47-10.21-1.75a24.91 24.91 0 0 1-5.12-2.79c-.37-.26-.72.35-.36.61z"/><path class="cls-9" d="M122.44 155.82c1.87 5.27 3.78 10.52 5.75 15.75l1.68 4.44c.16.42.84.24.68-.19-1.99-5.22-3.93-10.47-5.83-15.72-.54-1.49-1.07-2.98-1.6-4.47-.15-.42-.83-.24-.68.19z"/><path class="cls-9" d="M101.02 159.36c2.84.76 5.82 1.02 8.75.86 2.98-.17 5.96-.77 8.73-1.88 1.52-.6 2.98-1.35 4.33-2.27.37-.25.02-.86-.36-.61-2.36 1.61-5.04 2.69-7.81 3.35-2.86.67-5.82.89-8.75.67-1.59-.12-3.16-.38-4.7-.79-.44-.12-.63.56-.19.68zM91.88 177.77c4.82 1.4 9.84 2.1 14.86 2.2 5.07.1 10.16-.4 15.12-1.43 2.76-.57 5.48-1.31 8.14-2.21.43-.14.24-.82-.19-.68a69.16 69.16 0 0 1-14.64 3.24c-4.97.54-10.01.54-14.98-.1-2.75-.36-5.47-.92-8.14-1.69-.44-.13-.62.55-.19.68z"/><path class="cls-4" d="M145.99 90.08a10.2 10.2 0 0 1-4.06 2.08c-.75.19-1.52.29-2.29.3s-1.6-.03-2.27-.46a2.58 2.58 0 0 1-1.16-1.85c-.02-.19-.15-.35-.35-.35-.17 0-.37.16-.35.35.09.8.44 1.54 1.03 2.09.67.62 1.52.86 2.42.92 1.73.11 3.48-.26 5.05-.98.9-.41 1.74-.95 2.49-1.59.35-.29-.15-.79-.5-.5zM147.88 88.67c.6-.68 1.01-1.54 1.02-2.46 0-.81-.37-1.76-.99-2.3-.34-.29-.84.2-.5.5.5.42.8 1.16.79 1.8 0 .73-.34 1.43-.82 1.97-.3.34.2.84.5.5z"/><path class="cls-12" d="M161.61 123.29c1.84.25 3.68.56 5.5.97 1.1.25 2.6.7 2.85 1.97.09.44.76.26.68-.19-.22-1.14-1.25-1.78-2.26-2.15-.57-.21-1.16-.33-1.75-.45a64.1 64.1 0 0 0-2.34-.44c-.89-.15-1.78-.29-2.67-.41-.19-.03-.35.18-.35.35 0 .21.16.33.35.35zM141.68 123.48a70.777 70.777 0 0 1 14.85-.68c.45.03.45-.68 0-.7-3.92-.23-7.85-.14-11.75.27-1.1.12-2.19.26-3.28.43-.19.03-.29.27-.25.43.06.2.24.27.43.25zM128.34 128.85c1.21-2.35 3.83-3.28 6.23-3.9.44-.11.25-.79-.19-.68-2.58.67-5.36 1.71-6.65 4.22-.21.4.4.76.61.36z"/><path class="cls-12" d="M132.01 129.11c0-1.02 1.05-1.94 2.07-1.76.37.07.65-.44.27-.64-.03-.02.01.07.02.04 0-.05.04-.1.07-.14.08-.1.21-.15.32-.22.26-.15.54-.34.63-.65.12-.42-.14-.69-.34-1.01-.14-.23-.19-.49-.16-.76.06-.52.42-.99.95-1.06s1.08.22 1.31.71c.13.28.56.19.64-.08.22-.77.84-1.56 1.69-1.65.75-.08 1.63.64 1.41 1.43-.08.3.25.54.52.4.43-.23.98-.08 1.33.25.17.16.31.38.35.62.04.28 0 .56.09.83s.31.52.62.52c.17 0 .32-.07.46-.17.1-.07.18-.14.31-.12.26.04.46.3.49.55.05.4-.14.82-.31 1.17-.19.41.41.76.61.36.3-.63.6-1.4.25-2.08-.27-.52-.95-.89-1.52-.61-.07.03-.27.15-.29.2l.07.02c0-.02-.03-.1-.04-.13-.06-.24-.02-.5-.07-.75-.1-.52-.49-.96-.94-1.21-.55-.31-1.21-.35-1.77-.05l.52.4c.32-1.19-.79-2.34-1.96-2.33-1.23 0-2.17 1.07-2.5 2.18l.64-.08c-.53-1.11-2.15-1.44-3.02-.56-.41.42-.62 1.03-.55 1.61.03.32.14.61.33.87.06.09.22.24.2.35-.02.09-.18.17-.25.21-.3.18-.57.33-.71.66s-.09.72.25.9l.27-.64c-1.47-.26-2.95.92-2.96 2.43 0 .45.7.45.7 0z"/><path class="cls-12" d="M144.86 128.22c-.08-.03 0 0 0 .01.06.03-.03-.04 0 0 .03.03.04.05 0 0 .01.02.03.04.04.06s.02.05.03.07c-.04-.08 0 0 0 .01.02.05.03.11.05.16.06.24.11.49.22.72.14.28.39.45.67.59.07.03.13.06.2.1.03.01.05.03.08.05.02.01.02.01 0 0 .01.01.03.02.04.04l.06.06c-.03-.04.05.09.02.04s.02.1 0 .04v-.04c0 .02-.01.04-.02.06-.06.18.07.39.25.43.19.05.37-.07.43-.25.14-.41-.14-.82-.48-1.02-.14-.09-.3-.14-.44-.23-.08-.05-.07-.04-.14-.11-.05-.04.02.05-.02-.03-.02-.03-.03-.06-.05-.08-.04-.07.02.05 0-.02-.01-.04-.03-.07-.04-.11-.02-.06-.03-.11-.05-.17-.03-.13-.06-.26-.1-.39-.11-.32-.29-.56-.6-.69-.18-.07-.39.08-.43.25-.06.2.07.36.25.43zM156.64 123.87c.08-.79.55-1.48 1.13-2 .53-.48 1.43-1.16 2.19-.84.36.15.61.5.79.83s.36.77.23 1.16c-.12.36-.51.59-.83.77-.37.2-.76.34-1.17.42-.46.09-.95.1-1.41.02-.18-.03-.97-.16-.86-.47.15-.43-.53-.61-.68-.19-.18.52.25.96.7 1.16.48.21 1.06.27 1.58.26 1.03-.02 2.29-.38 3-1.18.8-.89.28-2.23-.47-2.98-.41-.41-.95-.61-1.52-.54s-1.06.34-1.5.66c-.98.71-1.76 1.71-1.89 2.95-.02.19.18.35.35.35.21 0 .33-.16.35-.35zM142.59 84.43c-.24-.76-1.12-1.24-1.88-1.03-.41.11-.77.4-1.03.74-.27.35-.45.77-.47 1.2s.11.89.41 1.2"/><path class="cls-12" d="M142.93 84.34c-.29-.88-1.22-1.45-2.14-1.32-1.02.15-1.8 1.18-1.92 2.15-.08.59.1 1.18.5 1.61.31.34.8-.16.5-.5-.65-.72-.2-1.89.53-2.37.35-.23.72-.28 1.1-.14.34.12.63.4.75.74.14.43.82.24.68-.19z"/><path class="cls-12" d="M140.06 86.11c-.31-.3-.25-.81-.08-1.21.1-.24.23-.48.42-.65s.46-.28.72-.24c.47.08.72.6.89 1.04-.14-.33-.55-.5-.91-.43s-.64.35-.82.66c-.06.11-.1.27 0 .34.06.05.14.04.22.01.23-.07.39-.27.57-.42s.47-.24.65-.08"/><path class="cls-12" d="m140.31 85.86-.04-.04c.02.03.03.03 0 0 0-.01-.06-.12-.03-.04-.01-.04-.03-.07-.03-.11 0-.02 0-.04-.01-.06 0 .05 0 .05 0 0v-.24c-.01.09.01-.04.01-.06 0-.03.01-.06.02-.09.05-.19.08-.25.18-.43.02-.04.05-.08.07-.12.01-.02.03-.04.04-.06-.02.03-.02.02 0 0 .03-.03.06-.07.09-.1l.05-.05c-.02.02-.02.02 0 0 .03-.02.07-.04.1-.06l.06-.03c-.03.01-.03.01.01 0 .01 0 .14-.03.07-.02h.13c-.07 0 .04.01.06.02.02 0 .04.01.05.02-.04-.02-.04-.02 0 0l.09.06c-.07-.04 0 0 .02.02l.07.07c.01.01.08.11.03.04.04.06.09.13.12.2s.07.14.11.21c.02.04.02.04 0 0 0 .02.02.04.02.05.01.04.03.07.04.11l.64-.27c-.13-.31-.46-.53-.78-.59-.36-.07-.73.02-1.03.24s-.61.57-.63.95c0 .25.15.48.4.53.22.04.44-.04.62-.17.09-.07.18-.14.26-.21.03-.03.07-.06.1-.09 0 0 .06-.05.03-.02s.04-.03.04-.03c.01 0 .03-.02.04-.02.03-.01.06-.03.01-.01l.12-.03c-.07.02-.03 0 0 0 .07 0-.03-.02 0 0 .01 0 .03 0 .04.01-.07-.02 0 0 .01.02.15.11.4.03.48-.13.1-.19.03-.36-.13-.48-.37-.28-.85-.06-1.16.2-.15.13-.19.19-.34.26.04-.01.03-.01 0 0-.04 0-.04.01 0 0 .06 0 .11.04.15.1.01.03.02.05.02.08v.01c0-.02.01-.04.02-.05-.03.08.02-.03.03-.05.02-.04.05-.07.07-.11.02-.03.03-.03 0 0 .01-.02.03-.03.04-.05l.09-.09c.01 0 .11-.09.05-.05.06-.04.12-.08.19-.11-.07.03.05-.02.06-.02.02 0 .15-.02.05-.02H141.3h-.01c.04 0 .07.02.11.03.02 0 .04.01.05.02-.04-.02-.04-.02 0 0l.09.06c-.07-.05.02.02.03.03.01.01.02.03.04.04-.03-.04-.03-.04 0 0 .02.03.04.06.05.1.07.16.29.21.44.14s.27-.25.2-.42c-.23-.6-.62-1.34-1.38-1.31s-1.32.82-1.45 1.54c-.07.42-.03.86.29 1.17.13.13.37.14.5 0s.14-.36 0-.5z"/><path class="cls-9" d="M172.81 92.92c1.43.22 2.85-.05 4.23-.4 1.2-.3 2.38-.67 3.53-1.12 2.34-.9 4.57-2.07 6.62-3.51 1.17-.81 2.28-1.71 3.33-2.68.33-.31-.17-.81-.5-.5a30.302 30.302 0 0 1-12.56 6.96c-1.43.39-2.97.79-4.47.56-.19-.03-.38.05-.43.25-.05.17.06.4.25.43z"/><path class="cls-9" d="M172.46 92.84c.99 3.06 1.94 6.14 2.72 9.27s1.39 6.36 1.76 9.59c.23 1.99.37 3.99.44 6 .02.45.72.45.7 0-.12-3.48-.48-6.95-1.08-10.39-.56-3.17-1.33-6.3-2.23-9.39-.51-1.77-1.07-3.52-1.63-5.27-.14-.43-.82-.25-.68.19zM190.01 85.2c1.63 3.28 2.78 6.79 3.62 10.35.87 3.67 1.42 7.41 1.78 11.16.2 2.09.34 4.18.44 6.28.02.45.73.45.7 0-.18-3.8-.5-7.6-1.05-11.36s-1.35-7.45-2.54-11.04c-.65-1.96-1.42-3.88-2.34-5.73-.2-.41-.81-.05-.61.36z"/><path class="cls-15" d="M175.7 71.26c2.39 1.69 4.41 3.86 6.12 6.22s3.15 4.89 4.58 7.42c.96 1.7 1.92 3.39 2.84 5.11.3.56 1.15.06.85-.5-1.53-2.87-3.12-5.71-4.79-8.5-1.52-2.55-3.2-5.03-5.23-7.21-1.18-1.26-2.47-2.4-3.88-3.4-.22-.15-.55-.04-.67.18-.14.25-.04.52.18.67zM173.19 87.42c1.2 2.84 2.11 5.79 2.81 8.79.14.62 1.1.36.95-.26-.72-3.09-1.67-6.11-2.91-9.03-.1-.25-.47-.3-.67-.18-.25.15-.28.43-.18.67zM125.44 175.36c4.08-1.79 7.94-4.05 11.55-6.65 3.64-2.63 7.1-5.54 10.03-8.96 1.65-1.92 3.16-3.96 4.48-6.12.33-.54-.52-1.04-.85-.5-2.31 3.76-5.18 7.24-8.48 10.18a69.357 69.357 0 0 1-10.63 7.81c-2.13 1.26-4.33 2.4-6.59 3.4-.24.11-.3.46-.18.67.15.25.43.28.67.18zM130.1 154.41c-2.96 1.98-6.24 3.39-9.67 4.34-.61.17-.35 1.12.26.95 2.72-.75 5.36-1.79 7.83-3.17.71-.4 1.4-.82 2.08-1.27.22-.15.32-.44.18-.67-.13-.22-.45-.33-.67-.18z"/><path class="cls-7" d="M149.93 115.15c-4.21 0-8.43.43-12.55 1.3-2.05.43-4.09.97-6.08 1.62-1.94.63-3.9 1.31-5.74 2.21-1.6.78-3.13 1.96-3.58 3.77-.2.8-.17 1.66.19 2.42s1.08 1.33 1.86 1.67c.87.38 1.8.61 2.72.84 1.01.26 2.03.49 3.05.69 2.08.41 4.17.72 6.28.92 4.2.41 8.43.43 12.63.14 4.26-.29 8.49-.89 12.68-1.71 3.86-.76 7.93-1.55 11.28-3.72 1.41-.92 2.93-2.39 2.94-4.2s-1.61-2.81-3.13-3.34c-1.88-.66-3.85-1.15-5.8-1.56s-3.73-.67-5.62-.85c-3.78-.36-7.58-.32-11.37-.21-1.02.03-2.04.06-3.06.1-.45.02-.45.72 0 .7 3.79-.13 7.58-.27 11.37-.1s7.26.66 10.79 1.57c1 .25 1.99.54 2.97.84.74.23 1.49.5 2.12.96s1.04 1.11 1.03 1.88c0 .82-.44 1.59-.96 2.2-1.18 1.39-2.95 2.26-4.61 2.92-1.76.7-3.61 1.16-5.45 1.57-4 .88-8.04 1.57-12.12 1.98-4.05.41-8.14.56-12.21.37-4.07-.2-8.13-.74-12.09-1.71-.91-.22-1.83-.44-2.71-.76-.76-.27-1.51-.69-1.9-1.43-.8-1.48.11-3.25 1.26-4.24.67-.57 1.47-.98 2.27-1.34.9-.4 1.83-.76 2.75-1.1 1.91-.71 3.85-1.31 5.82-1.82 3.93-1.01 7.95-1.62 12-1.82.99-.05 1.98-.07 2.98-.07.45 0 .45-.7 0-.7z"/><path class="cls-7" d="M157.98 146.37c3.94-1.5 7.52-3.87 10.41-6.95 2.82-3.01 4.95-6.66 6.14-10.61.68-2.27 1.04-4.63 1.08-7 0-.45-.7-.45-.7 0-.06 4.07-1.13 8.1-3.08 11.68s-4.65 6.6-7.92 8.93a26.82 26.82 0 0 1-6.11 3.27c-.42.16-.24.84.19.68zM121.93 125.45c.14 3.14 1.1 6.2 2.61 8.95.76 1.39 1.67 2.69 2.68 3.91.89 1.07 1.89 2.02 2.95 2.92 1.2 1.01 2.44 1.98 3.74 2.85.38.25.73-.36.36-.61-1.11-.74-2.17-1.56-3.2-2.41s-2.03-1.74-2.91-2.75c-2.01-2.29-3.62-4.96-4.57-7.86-.53-1.62-.86-3.3-.94-5.01-.02-.45-.72-.45-.7 0z"/><path class="cls-15" d="M129.59 155.6c.6-.82.96-1.81 1.28-2.77.37-1.11.66-2.25.99-3.37.31-1.06.63-2.1 1.14-3.05.11-.2.23-.4.36-.59.03-.05.07-.09.1-.14.05-.06 0 0 .06-.07.08-.09.16-.19.25-.28.51-.56.95-1.16 1.49-1.69.5-.49.97-.99 1.35-1.57s.68-1.18 1.02-1.77c.31-.55-.54-1.05-.85-.5s-.58 1.08-.91 1.6c-.3.47-.63.86-1.03 1.27-.53.54-1.02 1.1-1.51 1.67-.35.41-.71.79-.99 1.26-.57.94-.94 2.01-1.26 3.05-.35 1.12-.64 2.27-.99 3.39-.34 1.09-.67 2.14-1.35 3.06-.16.22-.04.55.18.67.25.15.52.04.67-.18zM151.75 146.61c1.75-.75 3.77-.79 5.57-.19.6.2.86-.75.26-.95-2.07-.7-4.33-.57-6.33.29-.24.1-.3.47-.18.67.15.25.43.28.67.18zM168.31 69.05c2.62-.07 5.2.72 7.34 2.24.22.15.55.04.67-.18.14-.25.04-.52-.18-.67a12.998 12.998 0 0 0-7.84-2.37c-.63.02-.64 1 0 .99z"/><path class="cls-14" d="M116.09 73.82c-.13 0-.25-.02-.36-.08a.672.672 0 0 1-.3-.19.696.696 0 0 1-.19-.3.637.637 0 0 1-.08-.36v-.13c0-.17.04-.33.13-.47.05-.06.1-.13.15-.19.12-.12.26-.2.41-.24l.25-.03c.12 0 .23.03.33.07l-.2-2.32s-.24.19-.73.48c-.03-.45-.04-.73-.04-.73-.52.47-1.14.86-1.81 1.21.54.5.34 1.64-.6 1.64-.64 0-.93-.52-.89-1.02-2.47.81-5.7.97-9.74.41-.74-.1-1.45-.25-2.12-.42.11.53-.17 1.16-.87 1.16-.93 0-1.14-1.11-.63-1.62-.9-.31-1.72-.66-2.46-1.02a.85.85 0 0 1-.85.6c-.85 0-1.09-.92-.74-1.47-1.66-1-2.62-1.86-2.62-1.86l-.93.96v6.75c-.24-.02-.57 0-.95.02.34.55.1 1.47-.75 1.47-.76 0-1.04-.74-.84-1.3-.63.09-1.19.18-1.46.23-.65.13-1.45.7 0 1.85 1.45 1.15 3.77 2.35 9.65 4.13 2.5.76 4.73 1.11 6.79 1.17 0-.01-.01-.02-.02-.03l-.03-.25c0-.13.02-.25.08-.36.04-.12.1-.22.19-.3.09-.09.19-.16.3-.19.11-.06.23-.09.36-.08h.13c.17 0 .33.04.47.13.06.05.13.1.19.15.12.12.2.26.24.41l.03.25c0 .09-.03.17-.06.25.8-.05 1.59-.13 2.35-.27-.21-.55.07-1.31.84-1.31.6 0 .9.46.91.93.57-.15 1.14-.31 1.7-.5 4.2-1.4 5.03-4.22 5.03-4.22-.02-.07-.04-.15-.05-.22.32-.56.46-.96.46-.96l-.17-1.98c-.08.05-.14.11-.23.14l-.25.03zm-19.17-.56c0 .17-.04.33-.13.47-.05.06-.1.13-.15.19-.12.12-.26.2-.41.24l-.25.03c-.13 0-.25-.02-.36-.08a.672.672 0 0 1-.3-.19.642.642 0 0 1-.19-.3.637.637 0 0 1-.08-.36v-.13c0-.17.04-.33.13-.47.05-.06.1-.13.15-.19.12-.12.26-.2.41-.24l.25-.03c.13 0 .25.02.36.08.12.04.22.1.3.19.09.09.16.19.19.3.06.11.09.23.08.36v.13zm8.48 5.9c-1.21 0-1.21-1.88 0-1.88s1.21 1.88 0 1.88zm7.77-3.18c-1.21 0-1.21-1.88 0-1.88s1.21 1.88 0 1.88z"/><path class="cls-8" d="M95.47 70.25c.46 0 .74-.27.85-.6-.59-.29-1.12-.58-1.6-.87-.35.55-.11 1.47.74 1.47zM96.64 72.47a.696.696 0 0 0-.3-.19.637.637 0 0 0-.36-.08l-.25.03c-.16.04-.3.13-.41.24-.05.06-.1.13-.15.19-.08.15-.13.3-.13.47v.13c0 .13.02.25.08.36.04.12.1.22.19.3.09.09.19.16.3.19.11.06.23.09.36.08l.25-.03c.16-.04.3-.13.41-.24.05-.06.1-.13.15-.19.09-.15.13-.3.13-.47v-.13c0-.13-.02-.25-.08-.36a.672.672 0 0 0-.19-.3zM99.41 72.29c.7 0 .98-.63.87-1.16-.52-.14-1.02-.29-1.51-.46-.5.51-.3 1.62.63 1.62zM105.4 77.29c-1.21 0-1.21 1.88 0 1.88s1.21-1.88 0-1.88zM105.54 81.67a.894.894 0 0 0-.24-.41c-.06-.05-.13-.1-.19-.15a.977.977 0 0 0-.47-.13h-.13c-.13 0-.25.02-.36.08-.12.04-.22.1-.3.19-.09.08-.16.19-.19.3-.06.11-.09.23-.08.36l.03.25s.01.02.02.03c.65.02 1.28.01 1.9-.03.03-.08.06-.16.06-.25l-.03-.25zM108.71 80.6c-.77 0-1.04.75-.84 1.31.59-.1 1.17-.23 1.74-.38 0-.47-.3-.93-.91-.93zM113.04 72.16c.95 0 1.14-1.14.6-1.64-.47.24-.96.45-1.5.62-.04.5.25 1.02.89 1.02zM113.17 74.1c-1.21 0-1.21 1.88 0 1.88s1.21-1.88 0-1.88zM116.09 71.81l-.25.03c-.16.04-.3.12-.41.24-.05.06-.1.13-.15.19-.09.15-.13.3-.13.47v.13c0 .13.02.25.08.36.04.12.1.22.19.3.09.09.19.16.3.19.11.06.23.09.36.08l.25-.03c.09-.03.16-.09.23-.14l-.15-1.76a.615.615 0 0 0-.33-.07zM89.48 76.11c.85 0 1.09-.92.75-1.47-.5.04-1.07.1-1.59.17-.2.55.08 1.3.84 1.3z"/><path class="cls-15" d="M107.55 24.9c1.98 0 3.99.19 5.85.91 1.69.66 3.14 1.81 4.2 3.29s1.76 3.19 2.29 4.93c.6 1.99 1.02 4.05 1.37 6.1.75 4.49 1 9.06.76 13.61-.12 2.14-.28 4.32-.98 6.37a9.745 9.745 0 0 1-2.71 4.14c-2.32 2.1-5.66 3.17-8.74 2.63-.4-.07-.8-.17-1.19-.29-.61-.19-.87.76-.26.95 3.27 1.01 6.95.28 9.73-1.68 1.4-.99 2.61-2.28 3.4-3.81 1.02-1.95 1.39-4.16 1.58-6.33.42-4.69.26-9.44-.38-14.1-.31-2.26-.74-4.51-1.32-6.72-.49-1.84-1.12-3.68-2.08-5.33s-2.32-3.12-4.03-4.06c-1.82-1.01-3.9-1.43-5.97-1.55-.51-.03-1.02-.04-1.53-.04-.63 0-.64.99 0 .99z"/><path class="cls-15" d="M116.31 46.79c.19 1.51.34 3.02.42 4.54.03.61.05 1.29-.27 1.83-.23.38-.67.71-1.12.61-.62-.15-.88.8-.26.95.71.17 1.43-.1 1.92-.63.55-.59.73-1.39.74-2.18.02-.83-.08-1.67-.15-2.49-.08-.88-.17-1.75-.28-2.63-.03-.26-.2-.49-.49-.49-.24 0-.53.23-.49.49z"/><path d="M110.19 55.63c.19.85.82 1.55 1.63 1.87.87.34 1.86.11 2.57-.47.21-.17.17-.52 0-.7-.2-.2-.49-.17-.7 0 .05-.04-.03.02-.05.03-.04.02-.07.05-.11.07-.03.02-.06.03-.09.05 0 0-.11.06-.08.04l-.21.07c-.08.02-.15.04-.23.05.07-.01-.04 0-.05 0h-.13c-.09 0-.17 0-.26-.01h-.02c-.04 0-.09-.02-.13-.03s-.08-.02-.13-.04c-.01 0-.13-.05-.08-.03.04.02-.04-.02-.05-.02-.04-.02-.07-.04-.11-.06-.07-.04-.14-.08-.21-.13.04.03 0 0-.02-.01-.03-.03-.06-.05-.09-.08-.06-.06-.12-.11-.17-.18 0-.01-.07-.09-.03-.03-.02-.03-.04-.05-.06-.08-.04-.07-.09-.14-.12-.21 0 0-.06-.12-.04-.07.02.04-.03-.08-.03-.08-.03-.08-.05-.16-.06-.24-.06-.26-.36-.41-.61-.34-.27.07-.4.35-.34.61z" style="fill:#8e7667"/><path class="cls-14" d="M92.8 79.43c3.11 1.58 6.56 2.46 10.06 2.58 1.73.06 3.47-.07 5.17-.39 1.6-.3 3.2-.75 4.67-1.46s2.95-1.85 3.78-3.38c.21-.4-.39-.75-.61-.36-1.45 2.69-4.66 3.81-7.48 4.4-3.26.69-6.68.64-9.93-.1-1.84-.42-3.62-1.06-5.31-1.91-.4-.2-.76.4-.36.61z"/><path class="cls-15" d="M115.88 66.67c-.35 3.31-.08 6.68.78 9.89.16.61 1.12.35.95-.26a26.28 26.28 0 0 1-.74-9.63c.03-.27-.25-.49-.49-.49-.29 0-.46.23-.49.49zM91.9 52.15s-.06.01-.1.02l.13-.02c-.14.02-.28.02-.42 0l.13.02c-.11-.02-.23-.04-.33-.08l-.09-.03.07.03s-.03-.01-.04-.02c-.05-.02-.1-.05-.15-.08s-.09-.06-.14-.1c.12.08.05.04.02.02-.02-.02-.05-.04-.07-.07-.04-.04-.08-.08-.12-.13-.06-.06.07.1.02.02-.02-.03-.04-.05-.06-.08-.14-.22-.44-.33-.67-.18-.22.14-.33.44-.18.67.48.75 1.38 1.12 2.26.95.25-.05.42-.37.34-.61-.09-.27-.33-.4-.61-.34zM119.28 42.46c.63 0 .64-.99 0-.99s-.64.99 0 .99zM107.97 42.94c.63 0 .64-.99 0-.99s-.64.99 0 .99z"/><path class="cls-15" d="M91.61 52.65c-.25 3.94-.21 7.92-.19 11.87 0 1.35.02 2.7.03 4.04 0 .63.99.64.99 0-.05-4.42-.09-8.84.04-13.26.03-.88.06-1.77.11-2.65.02-.27-.24-.49-.49-.49-.28 0-.48.23-.49.49z"/><path class="cls-9" d="M127.14 128.78v.01l.01.02v-.03z"/><path class="cls-9" d="M128.33 128.85s-.05.02-.1.03c0 0 .02-.01.02-.02s-.01-.02-.02-.04c-.01 0-.04.01-.04.02 0 0 .01.02.04.03.02.04 0 .06-.06.07h-.21c-.03 0-.04 0-.03.02 0 0 .03.02.04.02.01 0 .03-.02.04-.01.01 0 .03.02.03.03-.02.04-.07.05-.11.03-.01 0-.03-.02-.04-.02-.04.01-.08.02-.11.03-.01 0 0 .04-.04 0-.06-.05-.12-.08-.18-.12-.02-.01-.04-.05-.07-.01-.01.01-.03.02-.05.03h-.09c0-.02.01-.04.03-.06.01-.01.03-.02.05-.03 0 0 0-.02.01-.03h-.03c-.06.01-.12.03-.18.04-.05.01-.06.01-.08-.06l.04-.02s-.01-.01-.05 0c-.07.01-.12 0-.17-.02-.01 0-.02-.03-.02-.04 0-.02 0-.05.04-.04.04 0 .09.04.11-.02 0 0 .05.01.08.02-.01.06.04.06.08.06.05 0 .09-.02.14-.03 0 0 0-.02-.01-.02-.05-.01-.11 0-.14-.06-.05.01-.07-.07-.12-.03l-.01-.02c0-.04-.02-.05-.05-.03-.01 0-.02.02-.04.02h-.05c0-.01 0-.04.01-.04.03 0 .02-.06.07-.04.04.01.1.02.12.03l.04.03v-.05c0-.01-.01-.03 0-.05l.03.03.02.02c.02.03.06.04.09.03 0 0 0-.04-.01-.05 0-.02-.01-.04-.02-.06 0-.01-.02-.02-.08 0h-.01c-.09.02-.13-.01-.18.02-.03.03-.09.03-.1.08 0 .01-.02.03-.05.04 0 0-.03-.01-.04-.03v-.02c0-.02.04-.05 0-.06-.06-.02-.04.02-.03.05-.02.01-.06.02-.06.04 0 .04.03.08.05.12 0 0 .03.02.05.02.02 0 .04-.02.04.01 0 0-.02.03-.02.02a.757.757 0 0 1-.18-.09c-.01 0 0-.05 0-.07.02-.04 0-.06-.05-.07-.05-.01-.05-.03-.04-.07 0 0-.01-.03-.03-.04-.02-.01-.05-.02-.07-.03-.08-.03-.08-.03-.04-.1.01-.02.02-.05-.02-.06-.08-.02-.11-.05-.16-.15h.05c.09.01.09.01.1-.06l.02-.02s.01 0 .02.01c.04.05.08.1.15.17h-.02s0 .02.01.02c0 0 .02 0 .02-.01.01 0 0 0 0 0-.02-.03.03-.02 0-.06-.01-.02-.02-.04-.02-.06 0-.02 0-.05.05-.03.02 0 .04.01.06.02h.02l-.02-.02c-.03-.03-.08-.03-.11-.06v-.08s.03.05.07.02c.03-.02.04-.07.1-.04.02 0 .03.02.04.03-.01 0-.02.02-.04.03h-.03s-.02.02-.02.03c0 0 .02.02.03.02.02 0 .03-.01.05-.02h.03v.02s-.08.01-.01.04c.03.01.06.02.06-.02 0-.01 0-.02.01-.04 0-.01.02-.04.02-.04.03 0 .06.02.09.03v.02c0 .02-.02.03-.03.04.04.02.05.04.08.03.03 0 .05.02.09.01.04 0 .06.04.05.1 0 0-.01-.02-.02-.02h-.05c0 .01 0 .03.02.04 0 0 .03 0 .05-.03.02-.02.04-.02.06-.02.05 0 .09-.02.15 0 .05.02.06 0 .04-.05v-.01c0-.01 0-.03.02-.03h.04c.02.02.03.05.04.08 0 .01.02.02.03.03l.02-.03v-.03s.03.01.04.02c.03.03.05.06 0 .11-.03.04.05.11.12.1 0 0 .01-.02.02-.03 0 0-.02-.01-.03 0-.03.02-.03 0-.04-.02-.02-.02 0-.03.01-.04l.06-.03.08.04v.04c-.01.02-.05.03-.05.04 0 .03.03.06.05.09h.06c.02 0 .07-.05.05.02 0 .04.02.06.05.07.04 0 .02.04.03.05h.05c.03.01.04.04.03.07v.05c0 .01-.02.02-.04.02 0 0-.01 0-.02-.01.01 0 .02-.02.03-.02v-.01c-.04 0-.07 0-.07.04 0 .03.02.03.05.03h.11c.01 0 .03.01.03.02 0 0 0 .02-.02.03-.04.01-.08.02-.11 0s-.06-.04-.1 0c-.02.01-.07.04-.11 0h-.06c.02.03.03.05.05.07h.03c.05-.02.1-.03.14.02h.05c.08-.07.15-.03.23 0 .03.01.04.03-.01.03zm-.41-.29s.01.02.02.02l.05-.03s-.02-.02-.02-.01c-.01 0-.03.01-.04.02zm-1.34-.34v-.04h-.04l.02.05s.02 0 .02-.01zm1.16.32s-.03.03-.06.03c0 0-.02.02-.01.03 0 .02.03.04.04.04.06 0 .11-.02.17-.03l-.02-.01c-.02-.01-.05-.03-.12-.07zm.03 0s-.02 0-.02-.01.07.05.14.09v-.01c-.02-.05-.08-.02-.11-.06zm-.03-.21s-.03.05.01.07c.03.01.04.02 0 .04v.03c.02 0 .04-.02.06-.02.05 0 .06 0 .02-.03-.03-.02-.06-.04-.06-.07h-.05zm-.05.17.03.02s.02 0 .02-.01c0 0-.01-.02-.02-.02h-.04zm-.16-.11.03.03s.04.05.05 0c0-.02.03-.03.03-.05.01-.03-.02-.07-.11.02zm.03-.06s.02-.02.03-.04h-.01c-.01 0-.02.02-.02.04zm-.04.04zm-.03-.15v.02h.02c.01 0 .03-.02.04-.02v-.03h-.02c-.01.01-.03.02-.04.03zm0 .14h-.03c0 .01 0 .03.02.04l.03-.02s-.01-.02-.02-.02zm-.46-.28-.04.06c.02 0 .02-.02.03-.03 0 0 .01-.02.01-.03zm-.01-.03zm-.03.03v.02s.01-.02.02-.03h-.02zm-.14.11s0-.02-.02-.02h-.04s.01.01.04.03h.02zm-.09-.1s0 .03.01.03c.03.02.06.02.09 0 0 0 0-.03.01-.04h-.05c-.01 0-.02.02-.03.02l-.02-.02s-.02 0-.02.01zm.1.23s-.05 0-.07-.01c-.04 0-.05-.04-.06-.07 0-.01 0-.03-.01-.05l-.04.02c0 .03 0 .06.02.09.03.07.03.07.1.04.02 0 .07-.03.06-.03zm.18 0c-.05-.01 0-.07-.07-.08-.04 0-.04-.03-.02-.05 0 0 0-.02.02-.05-.03 0-.05 0-.05.03s-.02.06-.07.04c0 .02 0 .05.05.05.02 0 .04.04.06.06.02.02 0 .04-.02.05-.03.02 0 .03.01.03.03 0 .04 0 .06-.02.02 0 .02-.03.03-.05zm.1-.19s-.02-.03-.03-.05l-.05.05s.02.02.02.01c.02 0 .04-.01.07-.02zm-.01.2s-.03-.01-.04-.01l-.01.01c.01 0 .02.01.04.02 0 0 .01 0 .02-.02zm.3-.04h.04c-.01 0-.02-.01-.03-.02-.06-.03-.06-.03 0-.07 0 0 .02 0 .02-.01v-.02c-.02-.02-.14-.02-.16 0v.02c.01 0 .02.01.04.02h-.03a.338.338 0 0 0-.2.01s-.01.02-.02.03h.03c.08-.03.08-.03.08.05v.01s0 .01.01.02c0 0 .02-.01.02-.02 0-.07.07-.05.11-.06.03 0 .07.01.1.02zm.16.29h.01v-.06h-.06c-.04-.06-.06-.01-.08.01-.01.01-.02.03-.03.05v-.09s-.02-.02-.03-.02c0 0-.03.01-.03.02 0 .02.02.05.02.07 0 .02 0 .03-.03.04h-.02c-.02 0-.04 0 0 0h-.11c0 .01 0 .03.01.03.02.02.05.03.08.04.01 0 .03 0 .05-.02l.02-.03-.02-.01h.09c.06.02.07-.07.13-.03zm0 .29s.08-.03.12-.04c.01 0 .02-.02.03-.02-.01 0-.02-.01-.03-.01-.05-.01-.03-.01-.13.03-.01 0-.02.02-.03.03.02 0 .04.02.05.02zm.29.04-.06-.06s-.05.01-.05.03c-.02.03-.04.05-.09.05 0 0-.02.03-.02.04a.3.3 0 0 0 .08.04c.02-.05.1-.03.13-.08h.01zm.12-.05s-.04-.02-.05-.02l-.03.02c0 .01.02.02.04.03 0 0 .02-.01.04-.03zm.11.03v-.02h-.04v.02h.04zM126.63 128.15l.01.01zM127.35 128.6h.02z"/><path class="cls-9" d="M127.22 128.41h-.01s-.02.01-.03.02l.03.02s0-.02.02-.04zM125.83 127.95l.04.06v.1l.03.03c.02.01.06.04.04-.02-.01-.03.02-.04.05-.02.01 0 .02.02.03.02.08.07.13.16.24.2 0 .04.01.07.07.09.03 0 .05.02.06-.01.01-.04.03-.04.06 0 .01.02.03.04.05.04.06.02.02.05.02.07 0 .04-.03.03-.07.02h-.06c-.03 0-.07-.02-.01-.04l-.02-.02a.19.19 0 0 1-.13-.02s-.02.02-.04.02c-.03 0-.07 0-.06-.04h.04s-.01 0-.04-.01h-.02s-.07-.02-.09-.03l-.02-.02s.01 0 .02-.01l.07-.02c.05-.01 0-.02 0-.04-.06-.06-.06-.06-.09 0s-.1.1-.14.07c-.04-.04-.05-.02-.08 0 0 0-.03-.01-.03-.02v-.03c.02-.05-.01-.03-.04-.03 0 0-.03-.03-.03-.04.02-.05-.07-.06-.06-.1 0 0-.02-.01-.03-.01-.01 0-.18-.08-.19-.08-.01 0-.03-.01-.06-.03h.01c-.01-.01-.01-.03 0-.06 0 0-.03-.01-.05-.02 0-.02.03-.03.02-.04l-.06-.09h-.03c-.04.02-.05.02-.06 0a.488.488 0 0 1-.03-.07c-.01-.03-.04-.03-.06-.02-.01 0-.05 0-.02.03.05.04.06.11.12.13.04.02.05.06.05.08 0 .07.08.05.1.09h.04l-.03.05c-.07 0-.13-.06-.16-.12 0-.01-.03-.03-.04-.03-.02 0-.04.01-.03-.02v-.06c-.01-.02-.03-.04-.05-.01 0 0 0 .02-.01.02 0 0-.01 0-.02.01v-.03c.02-.03-.08-.07-.01-.1v-.02H125c-.02.01-.03.03-.04.04-.05.02-.04.04 0 .06v.03h-.02c-.06-.02-.08-.06-.08-.11 0-.02.01-.03.02-.05v-.04c0-.02-.02-.04-.03-.04h-.05v.05c0 .02.05.02.02.05-.02.01-.06 0-.08-.04-.01-.02-.03-.03-.03-.05-.02-.05.01-.09.06-.07.09.04 0-.04.13 0 .01 0 .07.03 0 0 .09 0 .09-.01.08-.03 0-.01-.03-.03-.04-.03h-.08c-.01 0-.03 0-.04.01-.02 0-.03-.01-.03-.02s.02-.03.02-.03c-.04-.04.02-.05.03-.07 0-.03.04.01.06.02.03.01.06.05.08.05.05 0 .07.01.08.06 0 .04.04.06.08.06h.02v-.01c.03 0 .02-.01.03-.04 0-.02 0-.03.01-.04h-.04c-.08 0-.09-.02-.11-.08a.219.219 0 0 0-.12-.13c-.07-.04 0-.04.01-.05.04-.02.07-.01.08.03.01.05.06.07.07.11.01.05.1.01.1.07h.02s.02-.02.02-.03c-.01-.03-.03-.05-.05-.08l.1.04h.01v-.04c.02 0 .03.02.05.03v.02l-.02.02c.01 0 .03.02.04.01.05-.05.13-.04.19-.07 0 0 .03 0 .05.01 0 0 0 .02 0 0-.04.04-.06.07-.09.1 0 0-.02-.01-.02-.02-.02-.03-.03-.03-.06-.01-.04.03-.12.03-.19.04.01 0 .02.01.03.02 0 0 .02 0 .02.02l.04.05s.02 0 .03.01h.01c0-.05.07 0 .09-.02.01-.02.05-.01.07-.03.01-.01 0-.06.02-.06.05 0 0-.04.02-.05.01-.01.03-.04.04-.03.02 0 .04.02.05.04.02.04.04.08 0 .12v.03c.01 0 .02-.02.04-.02s.05-.01.09 0v.03c.02.01.04.02.03 0 .04 0 .04-.02.03-.02h-.04c-.03-.07 0-.1.02-.08.06.03.1 0 .15 0h.03s-.01.02-.02.03c-.02 0-.03 0-.05.01v.02l.09.05s.03 0 .05-.02c.02-.01.05-.03.07.02h.05c.01 0 .02-.03.03-.04h.03c.01 0 .02.01.02.02l-.05.12s-.03-.02-.04-.02c-.01 0-.02.02-.04.03l-.02.02-.01-.01c-.02-.01-.04-.02-.05 0v.02c.02 0 .04 0 .06-.02.09.03.09.04.05.09 0 0-.03.02-.04.02-.04 0-.08-.02-.11-.03 0 0-.02 0-.03-.01l-.02.03s-.08-.02-.12-.02c-.04 0-.08.02-.09.05-.03.05.04 0 .04.03s-.02.05-.03.08h-.02c0-.05-.06-.03-.09-.04a.162.162 0 0 0-.13-.02s-.01.03 0 .03c.01.01.03.02.05.03.04.01.08.01.11.03.03.02.06.06.08.09 0 .01.01.03.02.04 0 0 .02 0 .03.01v-.03c-.02-.07-.02-.15 0-.19 0 0 .01 0 .02-.01v.02zm-.04-.19v.02h.04c.02-.05.05-.08.11-.09v-.03c-.01 0-.03-.02-.04-.01-.04.03-.08.07-.12.11zm-.43.04h.04c.06.03.04.02.07-.03.03-.04-.05-.06-.03-.09.06.04.07.04.13 0h.02c.04 0 .08.02.01.04 0 0 .02.02.02.03.05.01.04-.03.05-.05 0 0 0-.03-.02-.04 0 0-.02-.01-.08.01.01 0 .02-.02.04-.03l-.04-.02h-.01s-.02 0-.02.01c-.01.02 0 .04.02.05h-.02c-.04-.02-.07-.03-.1 0-.09-.03-.17-.02-.25-.02h.02c.06.03.13.06.14.13zm0 .05s.05.02.07.03c-.01-.03-.05-.03-.07-.05v.03zm.1.13s-.01-.02-.02-.02h-.03l-.02.03h.06zm.37.34s.05-.04.06-.05c.04-.01.07-.04.04-.07-.03-.03-.08 0-.11.01-.02 0 0 .05 0 .11z"/><path class="cls-9" d="M125.25 127.88s.02 0 .03-.02c0 0-.01-.02-.02-.02h-.03l.02.05zM126.47 127.84s.04-.02.06-.02c.03 0 .06.02.09.03 0-.02.02-.06.01-.07-.03-.04-.09-.02-.13-.04h-.05c-.03.04-.05.04-.08 0l-.04-.01c-.01.05-.05.02-.08.01 0 0-.02 0-.03.01-.02.01.04.04-.02.06-.04 0-.01.04 0 .06.04.05-.03.03-.04.06 0 .02-.02-.01-.03-.02-.03-.02-.06-.04-.09-.02-.05.03-.07-.01-.1-.04-.02 0-.05.02-.07.03-.01 0-.02.04-.02.04.07.04.02.06.01.09.06 0 .12.02.17.06.01.01.04.03.04.03.05-.02.07.01.09.04.02.02.06.06.07.05.05-.02 0-.06-.01-.09 0-.02 0-.04-.02-.05 0-.02-.02-.04-.03-.06h.12c.01 0 .03 0 .04-.01-.01 0-.02-.02-.03-.03l-.06-.06h.07c.02 0 .04 0 .05.01.03-.05.03-.05.07 0 .01.01.03.02.05.03 0-.02.01-.03 0-.04 0-.01-.02-.02-.04-.03zM126.26 127.68c.06.02.1.03.14.04 0 0 .03-.02.02-.02 0-.03-.01-.06-.05-.07-.03 0-.1 0-.12.04v.02z"/><path class="cls-9" d="m126.53 128 .03.02c.01 0 .03-.02.03-.03.01-.02.01-.04.02-.06a.167.167 0 0 0-.12-.01.3.3 0 0 0 .04.08zM128.18 128.45s-.05-.04-.08-.06l-.02.02.06.06.04-.02zM125.49 127.36s.02-.03.03-.05h-.03l-.05-.03v.06s.04.02.05.02zM126.52 128.57l.01.03c.03 0 .05 0 .08-.01-.01 0-.02-.02-.04-.03-.02 0-.04 0-.05.02zM127.3 128.07l.05-.05s0-.01-.02-.01h-.04v.06zM126.44 127.95s-.02-.03-.03-.04h-.03c-.01.02-.02.04.02.05h.05zM125.86 127.48s-.03-.05-.04-.05c-.04 0-.07 0-.1.01 0 0 .01.04.02.06.04 0 .08-.02.13-.03zM127.16 127.95l-.04-.04s-.02.01-.01.02c0 .01.02.02.03.03h.03zM126.33 128.54l.04.05s.02-.01.02-.02-.01-.03-.02-.04h-.04zM125.44 128.13s.04.04.06.05c.03.01.06.01.08.02-.02-.02-.03-.04-.06-.07h-.08zM126.4 128.3v-.06s-.02 0-.03.01v.05h.03zM126.31 128.33v.02h.03v-.04s-.02 0-.03.01zM127.95 128.31s0-.02-.01-.02h-.04v.02h.04zM127.46 128.04l-.02-.02h-.03s.01.02.02.02h.04zM126.32 128.25h.02v-.04h-.03v.03zM126.24 128.01s.01.02.02.03h.03s0-.02-.01-.02h-.04zM125.44 127.77s0-.02.01-.03h-.03v.03h.02zM124.74 127.51h-.05s-.07.02-.07-.04c0-.02-.02-.04-.03-.01-.01.02-.03.04-.06.03l.04.07s.02.01.02.02v.03h-.05a.45.45 0 0 1-.1-.14c-.02-.05-.05-.07-.09-.1-.06.04-.1-.02-.14-.06-.02-.03-.04-.05-.07-.04-.02 0-.03 0-.03-.03a.335.335 0 0 0-.15-.16c-.02 0-.06-.05-.06-.05.01-.03.02-.05-.03-.05-.04 0-.06-.03-.08-.05-.03-.03-.08-.06-.08-.09-.02-.08-.04 0-.07-.03-.03-.04-.04-.1-.1-.11l.03-.05v-.02h-.02c-.03.02-.07-.04-.07-.04.01-.06-.02-.1-.08-.14-.01-.06-.1-.12-.09-.18l-.02-.02c0 .01-.01.03-.02.04-.01.03-.04.02-.06-.02 0-.01-.02-.03-.03-.04-.02-.01-.05-.02-.07-.03-.03-.01 0-.05-.05-.07-.03-.01-.07-.07-.07-.12l.02-.03s.02.03.02.05c.02.02.04.04.06.04.02 0 .01-.07 0-.1 0 0-.03-.01-.04-.02v.03l-.04-.04c-.02-.03-.01-.04 0-.05h.05s.01-.02 0-.03c0-.01-.03-.03-.03-.03-.04.03-.06-.04-.09-.07-.02-.03 0-.04.01-.04s.04.02.02-.01l-.03-.06c-.02-.03-.04-.07-.06-.04-.01.02-.03 0-.05-.02-.01-.02-.02-.04-.04-.05-.01-.01-.03-.02-.04-.03v.05c0 .02.02.05.04.06.02.03.05.05.07.07.02.03.04.06.04.09s.02.04.04.05c0 0 .02.03.02.04 0 0 0 .02-.02.02-.04-.01-.08-.02-.1-.09-.05-.02-.06-.05-.06-.1 0-.04-.02-.03-.03-.03 0 0-.02.01-.02 0-.03-.03 0-.02 0-.03v-.08c-.02-.1-.02-.12-.11-.16-.04-.02-.05-.06-.06-.1v-.05s0-.02-.01-.03h-.01c0 .02.02.08-.03.03-.03-.04 0-.04 0-.06v-.05h-.02l-.07-.07c-.02-.02-.01-.03-.02-.05 0-.03 0-.02.02 0 .02.01.05.06.05.03l-.06-.07c-.02-.01-.02-.03-.02-.05v-.11h-.01c-.01 0 0 .03.01.05v.01h-.03c-.03-.07-.08-.11-.1-.19 0-.03-.02-.07-.04-.1-.03-.07-.05-.16-.1-.21 0 0-.02-.05-.03-.07v-.02h-.01v-.03c0-.04-.02-.06-.03-.06 0 0-.01-.02-.02-.03h.03s.05.06.05.01h.01c.03.05.03.05.05.04l.03.06c.02.04 0 .03 0 .03-.01 0-.03-.03-.04-.04h-.01l.02.02v.02s-.01 0-.02-.01v-.03.01c0 .02.02.06.04.1 0 .01.02.03.03.04.02 0 .04.02.05.02.01 0 .04.02.05.05.02.05 0 .02-.02.02-.01-.02-.02-.03-.03-.04 0 .01 0 .03.01.04 0 0 0 .01.01.02v-.02c.01.02.01.03.02.04l.02.06s-.02-.01-.03-.03c-.01-.02-.02-.04-.04-.05l-.02-.02v.02c.02.05.05.11.08.16v.01s-.01-.05 0-.06c.01 0 .01-.02 0-.04l-.02-.05s.02.03.03.05c.04.06.07.12.12.16.01.01.03.04.04.06h-.03v.03c-.03-.01-.04-.02-.06-.02 0 .01.01.03.02.04.01.01.03.02.03.02v-.04c.02.04.05.05.06.1 0 .03.05.11.07.13.06.05.1.09.1.16v.01c.06.03.05.07.06.11 0 0 .01.03.02.04.05.03.07.09.11.13.04.04.07.08.11.09l.03.06.03.05s.04.09.06.1c.01 0 .03.02.04.03l.04.04a.3.3 0 0 1 .08.04c.03.02.06.03.08 0 0 0 .03 0 .07.04v-.01l.02.02h.03v.04c.02 0 .01-.03 0-.07 0-.01-.02-.03-.04-.03v.02h-.02v.02c-.06-.07-.1-.1-.13-.11-.02 0-.02-.02-.02-.02-.02 0-.03-.01-.05-.02-.01 0-.02 0-.03-.01l-.03-.04s-.01-.03-.02-.05c0-.03-.03-.06.06.02l-.16-.16v.05l-.05-.06h-.03c-.02-.02-.04-.08-.02-.08 0 0 .03.01.04.03.02.02.03.04.02.05h.08l-.04-.02v-.02h.02v-.03h.02s.03-.02.05 0h.02l.02.02v.01c.02.03.03.06.02.07l-.06-.03s.01.04.01.06c0 .03.01.04.04.06.05.03.08.02.12.04.01 0 .03.02.03.03 0 .02.01.04.03.06v-.07c.01.01.02.03.03.04 0 .02.01.05.02.05.02.01.05.02.07.02.01 0 0-.03.01-.04.01-.02.03-.01.05.02l.02.04s0 .01-.02.01c-.04 0-.05.01-.02.05.02.03.04.07.07.1.03.03.07.06.04.09.03.05.08.06.12.09h.03v-.03c-.05-.04-.07-.08-.07-.12 0-.04-.02-.05-.06-.06 0 0-.02-.03-.03-.04h.04c.02 0 .05.03.06.02.05-.03.12.03.19.03 0 0 .02 0 .02.01v.02c-.01.01-.1 0-.13-.02-.04-.03-.03-.02-.03 0 0 .05.04.11.08.16.02.03.04.06.02.07-.01.01-.05 0-.08-.01-.07-.03-.14-.06-.21-.05-.05 0-.1-.04-.12-.11-.03-.08-.1-.13-.16-.11a.14.14 0 0 0-.12-.06l.02.02q.06.07.1.04s.04.05.06.07c.02.02 0 .05.04.06 0 0 .01.01.01.02 0 0 0 .01-.01.01-.04-.02-.08-.03-.11-.08h-.02c.01.05.05.1.1.12l.07.02s.03 0 .06.07c0 .01.03.02.04.03.01 0 .04.02.03-.01 0-.02 0-.04.03-.02.02.01.04.05.04.05-.03.04.02.06.05.08.02.01.05.03.04.04-.02.03 0 .04.03.06.05.03.09.03.12.02.04-.01.07.03.11.05.04.02.06.05.06.09 0 0 .12.09.13.09 0 0 .01-.02.02-.03v-.03c.05.04.06 0 .09-.02h.07c.02 0 .05.03.03.06-.01.02 0 .04.03.04.02 0 .04.02.06.03-.04.01-.09.03-.13-.02v-.03c-.02 0-.05 0-.07-.01 0 0 0 .02.01.02.02 0 .05.02.07.02-.01.02-.04.02-.02.05.01.01.03.03.05.04.06.03-.05.03 0 .06.02.01.06.03.03.06-.02.02-.04-.01-.06-.02-.02 0-.04-.01-.06-.02-.02-.01-.05-.03-.03-.06.01-.02-.01-.05-.05-.03-.04.02-.08.02-.13-.02 0 0-.02 0-.03-.01 0 .01.02.02.02.03.02.05.02.06-.03.05-.04 0-.07-.03-.1-.05-.03-.02-.05-.07-.09-.06-.03 0-.04-.01-.06-.01l.04.08h.02v-.06c.03.04.05.07.07.1.04.06.12.07.15.14.03 0 .06.05.09.02.01-.01.02-.04.05-.02.02.02.05.04.07.06.01.01.01.03.02.05 0 .03.03.04.05.03.02 0 .04-.01.04-.03v-.07l.09.03s.02.01.03.02c0 0 0 .02-.01.02-.02 0-.05.01-.05.02 0 .04.03.04.06.04.01 0 .02.03.03.04.01.01.04.03.04.03.06-.05.06.02.09.05h.03v-.03s-.02-.01-.02-.02c-.03-.02-.03-.03-.02-.05v-.06c.03.01.06.03.08.04.03.04.06.08.08.12 0 0 0 .03-.01.03-.07 0-.05.04-.04.08 0 .01.03.08.04.09zm-1.52-1.74h.01-.01zm-.02.02v-.01zm.23.26s-.01-.02-.02-.05.01.04.01.04l.02.02v-.01zm-.77-.74s-.02-.05-.03-.05c-.04-.03-.04-.08-.07-.12 0 0-.01-.02-.02-.03l-.02-.01v.02l.07.18s.02.01.03.02h.04zm.42.64v-.04l-.01-.02-.02.03.03.03zm.14.28v-.01c-.04-.04-.08-.08-.07-.13l-.02-.01c0 .01-.02.03-.02.04.01.02.04.05.06.07.01.02.03.03.04.05h.02zm.29.19s-.02-.03-.02-.04c-.04-.04-.06-.07-.1-.07-.01 0-.02-.01-.04-.02.01.02.02.03.03.04.02.02.05.04.08.05.01.01.03.02.04.03zm.4.39v-.03.03zm.06-.11.04.08s.01 0 .03-.01c-.02-.02-.03-.04-.05-.06h-.02zm-.12.03.04.08v-.05l-.04-.04zm-.02-.02s.05.02.07.01v-.03c-.02-.01-.05-.02-.07-.04-.01-.01 0-.04-.01-.06 0 0-.02-.03-.03-.03-.01 0-.03 0-.03.01.02.05.04.09.08.14zm.47.6s-.03-.11-.06-.12h-.04c-.01.01-.03.02 0 .05l.05.04s.02.02.04.03h.02z"/><path class="cls-9" d="m124.73 126.85.09.03h.02v-.02s-.06-.06-.09-.08c-.03-.02-.05-.04-.08 0h-.06c-.09 0-.09 0-.11-.07 0-.04-.05-.08-.07-.07-.06.03-.08 0-.1-.06l-.03-.03c0 .01-.02.03-.02.04.03.03.04.07.08.1.08.05.08.05.04.11.05.02.1.03.16.02.06 0 .12 0 .18.04zM122.78 125.14s-.03 0-.05-.02c-.04-.04-.08-.1-.12-.11-.01 0-.04-.05-.05-.08l-.02-.03h-.02c0 .03 0 .04-.03 0h-.02s.01.03.02.04c.07.07.14.14.21.23s.01.03.02.03l.03.04s.03.01.03 0c0-.06.05 0 .09.02s0 .03 0 .03c.02.01.03.02.06.04 0-.01-.02-.03-.02-.04v-.02s0-.02-.01-.02l-.06-.03c-.03-.02-.04-.04-.03-.05v-.02h-.02c-.01 0-.02.01-.03.02zM124.77 127.08c-.06-.03-.04.06-.1.04v.02c.05.03.09.05.07.11l.04.02h.03c.02-.02.03-.06.07-.06v-.04h-.08v-.02c.01-.02.09-.05.12-.04v.02c0 .01-.03.03.01.03.02 0 .04-.01.06-.02-.02-.03-.03-.07-.06-.08-.03 0-.07-.04-.1 0-.02.03-.05.04-.09.03zM123.84 126.36c.1 0 .11.02.21.07.03 0 0-.07.05-.06 0-.01-.02-.03-.02-.03h-.1c-.03-.01-.07-.04-.1-.05-.03-.01-.08-.03-.08.03 0 .02-.04.02-.06.02.04 0 .08.02.11.03z"/><path class="cls-9" d="M122.9 125.39s.05.02.07.03v-.03h-.01s0-.01-.01-.01c-.04-.02-.07-.03-.1-.05-.01 0-.02-.02-.03-.03-.04-.06-.05-.06-.06-.02-.01.05 0 .09.05.12 0 0 .02 0 .03.01-.01-.08.03-.01.06 0zM124.66 127.08v-.05c0-.02-.03-.03-.03-.04-.01-.05-.02-.08-.09-.08-.02-.05-.06-.05-.1-.06 0 0-.01 0-.02.01v.02c.08.04.12.13.21.19h.03zM123.49 125.82l.05.05c.01.04.02.04.04.02l.02-.02c.01-.01.03-.02.03-.03 0 0-.01-.03-.02-.03-.04-.02-.08-.01-.11-.06-.01 0-.03 0-.03.01 0 .02 0 .04.02.06zM124.76 126.91h-.05l.04.05c.05.04.1.06.15.01 0 0 .05 0 .02-.03-.03-.03-.07-.05-.11-.04h-.04zM124.05 126.43v.02l.07.07c.02.01.05.03.08.05.02 0 .05.01.03-.02-.02-.04-.15-.12-.18-.11zM125.07 127.25h-.02v.02c.02.03.03.06.06.07.01 0 .04-.01.07-.02h.03c.01 0 .02-.02.03-.03-.02-.01-.05-.04-.05-.04-.03.03-.07.02-.11 0zM122.26 124.46s0-.02.01-.03v-.02l-.03-.03-.06-.05s-.02-.02-.02-.03c0-.02-.01-.04-.02-.03v.03c.04.06.08.12.11.16zM123.62 126.3s-.03-.01-.05-.02c.01.01.02.03.04.05.04.02.07.05.1.09 0 0 .03 0 .04.01 0-.01 0-.03-.01-.04-.02-.02-.04-.04-.02-.06l-.02-.02s-.06-.01-.08-.02zM123.88 126.24l.02.03c.03-.01.05-.01.09.01 0 0 .02-.01.02-.02 0-.02-.02-.05-.03-.06h-.06l-.02.02s-.01 0 0 .02zM122.98 125.32s.05.03.08.05h.03l-.02-.03s-.01-.02-.02-.02l-.03-.03s-.03-.01-.04 0c-.02 0 0 .02 0 .05zM125.37 127.29s-.04-.05-.03-.09c0 0-.02-.02-.04-.02-.01 0-.04.01-.04.01.02.04.03.07.05.11.02 0 .04-.01.06-.02zM123.85 126.42s-.02.03-.01.04c.01.02.03.04.05.04h.06c0-.02-.02-.03-.02-.04-.03-.02-.05-.06-.07-.03zM124.11 126.96c.06.04.13.07.2.1v-.03l-.16-.09s-.02.02-.03.02zM123.34 125.71h.03c.01-.01.02-.02.03-.02.01-.02-.02-.04-.03-.05 0 0-.03-.01-.03 0 0 0-.02.02-.01.03 0 .02.02.04.03.05zM122.55 124.84v.02s.01.02.02.02c.04.02.07.04.11.05h.02c0-.01-.01-.02-.02-.03a.357.357 0 0 1-.1-.11h-.01c.07.1-.02.03-.02.05zM122.41 124.73s.01.03.02.05c.01.02.03.03.04.05h.01v-.03s-.01-.02-.02-.03l-.03-.04s-.04-.02-.04 0zM124.42 127.05s.01 0 .02-.02v-.04c-.04-.03-.02-.07-.05-.09l-.02-.01s-.01 0-.01.01l.04.14s.01.01.02.01zM125.09 127.17s.07.04.11.01v-.02s0-.02-.02-.02c-.03 0-.06-.01-.09-.02-.01 0-.03 0-.04.01l.03.03zM122.82 125.09s.03.01.03 0c0-.02 0-.05-.03-.07 0-.01-.04-.02-.06-.03v.01c0 .03.07.04.06.08zM124.24 126.46h.04c0-.01 0-.03-.01-.04 0-.01-.02-.02-.03-.03-.01 0-.02-.02-.03-.03h-.02v.02c0 .03.03.05.06.07zM123.14 125.57v.02h.03s.03.02.04.02c.03.02.03 0 .02-.03v-.04s-.02-.01-.02 0c-.01 0-.03.01-.04.02-.01 0-.06-.04-.05 0v.01zM124.58 126.75s.02.01.03 0c.03-.02.05-.03.08-.05v-.02l-.11.04s0 .02.01.03zM122.18 124.24h.01c0-.02-.02-.04-.02-.04-.02-.03-.02-.04-.03-.06 0 0 0-.01-.01 0 0 0 .03.09.05.11zM124.12 126.61h-.05c-.01 0-.03 0-.04.01 0 0 0 .02.01.02.02.02.03.01.05 0h.04v-.03h-.02zM124.06 126.3s.04 0 .07.01c-.02-.03-.03-.05-.04-.07-.01 0-.03.01-.04.02 0 0 0 .03.02.04zM123.87 126.11s.02 0 .05.02a.689.689 0 0 0-.03-.08h-.03c0 .02-.02.04.01.07zM124.04 126.53l-.03-.03h-.03s0 .03.01.03c.02.01.04.02.06.02h.03s0-.01-.02-.02l-.02-.02zM122 124.25v-.02h-.01c0 .01-.04-.06-.03 0 0 0 0 .02.01.03.02.04.02 0 .03.01zM122.3 124.51s.03 0 .04.01c.02.02.04.03.03 0v-.01c-.03-.05-.03-.02-.04-.02l-.02.02zM123 125.24v-.02a.458.458 0 0 0-.13-.08s0 .02.02.05c.04.01.08.03.12.05zM122.32 124.45v-.02c-.01-.03-.04-.07-.06-.07v.02c.02.02.04.05.06.07zM124.02 126.92v.03c.02 0 .05.01.07.02v-.02c-.03-.02-.05-.06-.07-.03zM122.92 125.46s.02.01.04.03v-.07h-.03c-.01 0-.03.01 0 .04zM122.73 125.22s-.02-.02-.03-.02v.03c0 .01.02.02.04.04v-.04zM122.71 125.05v-.06l-.04-.03s0 .03-.01.05c.03.02.06.04.06.03zM122.45 124.69s0 .03.01.04c0 0 .02.01.04.03-.01-.03-.02-.04-.03-.05l-.02-.02zM124.7 126.95l-.04.04.02.02h.04c-.01-.03-.02-.04-.03-.05zM122.03 124.39v.04s.01.02.03.03c0-.03-.01-.04-.02-.06l-.02-.02zM122.53 124.72s0-.02-.01-.03l-.03-.03v.01c.02.01.03.03.05.04zM123.79 126.2h.03v-.02h-.05s0 .01.02.03zM123.15 125.47l-.02-.04s-.02-.02-.04-.03c.01.02.02.04.03.05 0 0 .02.01.03.02zM124.35 126.53l-.02-.03h-.04v.02h.06zM122.1 124.17v-.03c0-.01-.02-.02-.03-.03v.02c.01.01.02.03.03.04zM122.43 124.62v-.04c-.02-.03-.03-.05-.05-.06l.02.08s.02.02.03.02zM122.28 124.51v.03s.01.02.02.03c0-.02 0-.03-.01-.05l-.01-.01zM124.11 126.35h.05v-.03h-.05v.03zM123.47 125.87s.01.02.02.03c.01 0 .03.01.04.02 0-.01-.01-.02-.03-.04-.01 0-.02 0-.04-.01zM124.36 127.45v.03c.01 0 .02-.01.03-.02v-.02s-.02 0-.03.01zM122.07 124.47v.01c0 .01.01.02.01.02v-.02l-.02-.02zM124.46 127.15v.03s.01 0 .03-.02c0 0 0-.01-.02-.02h-.02zM124.55 127.06h-.02s0 .02.02.02h.03s0-.01-.02-.03zM123.81 126.09l.01.01s.02 0 .02-.01v-.03c-.01.01-.02.02-.03.02zM125.14 127.06s0-.02-.01-.02h-.04s0 .01.01.03h.04zM122.62 125.15l.03.03v-.03l-.02-.02v.02zM123.72 125.93s-.01-.02-.02-.03c-.01 0-.02 0-.03-.01 0 .01.01.02.02.03h.02zM125.66 127.41s0-.02-.01-.03h-.02v.02h.04zM124.99 127.07s.07-.05.07-.07c0-.02-.02-.04-.03-.06 0 .01-.02.03-.03.04 0 .02 0 .04-.01.09zM122.38 124.64l.02.04c0-.01-.02-.03-.02-.04zM122.71 125.3v.02h.02v-.03c-.01 0-.02 0-.03.01zM171.22 124.28v-.02h-.02s.01.02.02.03z"/><path class="cls-9" d="M170.31 124.79s.03-.05.07-.07v.03c0 .02.02.03.03.05 0-.01.02-.03.02-.04 0-.01-.02-.03-.05-.03-.04-.05-.03-.09.01-.12.05-.03.11-.05.16-.07.03 0 .03-.02 0-.04-.01-.01-.03-.02-.04-.01-.01 0-.02.03-.02.03-.01 0-.04-.02-.04-.03 0-.06.02-.09.07-.06.02 0 .04.02.05.02a.24.24 0 0 0 .06-.08c0-.02-.03-.05.02-.04.06.03.13.03.2.05.02 0 .06.04.06-.02 0-.02 0-.05.01-.06.01-.02.04-.03.06-.05 0 .03.02.06.02.08v.1h.03c.03-.05.06-.1.08-.16.02-.05.02-.05.09 0v.06s.01 0 .02-.04c0 .01 0 0 0 0 .03-.06.07-.08.11-.1 0 0 .03.01.04.03.01.02.04.05 0 .07-.03.02-.08.02-.05.1 0 0-.04.02-.07.03-.03-.07-.07-.04-.09-.01-.03.03-.05.08-.07.12 0 0 .02.02.03.02.05 0 .07-.06.13-.03.02-.05.1.03.1-.05 0 0 .02.01.03.02.03.05.05.04.06 0v-.05c0-.01.02-.02.04-.04 0 .02.03.04.03.05-.01.03.04.08-.01.1-.03.01-.08.06-.11.05h-.05s.03.03.04.05c.01.01.03.02.04.05h-.04s-.02-.01-.03-.02c-.04-.02-.07 0-.08.04 0 0 .03.04.05.05.02.02.04.04.06.05.01 0 .03 0 .06-.06v-.01c.04-.09.1-.09.1-.16 0-.05.04-.1 0-.16a.085.085 0 0 1 0-.07h.05s0 .02.02.03c.02.02.02.09.06.06.05-.04 0-.06-.03-.07v-.01c0-.03.01-.08 0-.08a.913.913 0 0 0-.13-.08c-.01 0-.03 0-.04.02 0 .01 0 .05-.03.01 0-.01-.01-.04 0-.04.05-.02.11-.03.17-.04.01 0 .04.05.06.08.03.06.05.07.09.03.03-.03.06-.01.08.03 0 .01.03.02.05.01.02 0 .04-.02.06-.03.07-.03.07-.03.12.06.02.03.03.07.07.04.06-.05.11-.06.22-.02 0 .02 0 .04-.02.06-.06.08-.06.08.01.16v.03h-.02c-.08-.01-.15-.03-.26-.03h.02s-.03-.03-.04-.03c-.01 0-.02.02 0 .03h.01c.04.01 0 .05.06.06.02 0 .05.02.07.04.02.02.04.06 0 .08-.02 0-.04.02-.05.03v.03h.03c.05 0 .08-.04.13-.04l.08.07s-.08-.02-.07.05c0 .05.04.1-.02.13-.02 0-.04 0-.06.01v-.06l.02-.02c0-.02 0-.04-.02-.04h-.04c-.01.02-.01.04-.02.06 0 .01-.02.02-.02.03l-.02-.03s.04-.08-.03-.05c-.03.01-.06.03-.02.08.01.01.02.03.03.05 0 .02.03.06.02.06l-.09.06s-.02-.01-.02-.02c0-.02-.01-.05-.02-.07-.05.01-.07 0-.09.03-.02.03-.06.02-.08.06-.02.04-.09 0-.13-.07 0 0 .02.01.03 0 .01-.01.02-.03.03-.04-.02 0-.03-.03-.05-.03-.01 0-.02.03-.01.06 0 .03-.02.05-.03.07-.04.04-.06.1-.12.12-.06.02-.06.03 0 .09h.01c0 .02.01.04 0 .05 0 .01-.03.02-.04.01-.03-.02-.06-.04-.1-.06-.01 0-.03-.01-.04-.02v.05l.02.05h-.04c-.05-.02-.09-.03-.09-.12 0-.07-.12-.1-.17-.04v.05h.03c.01-.04.03 0 .05 0 .03 0 .02.03.01.05l-.03.08h-.1s-.02-.04-.02-.05c0-.03.02-.07.02-.08a.7.7 0 0 0-.1-.08s-.03.03-.05.04c-.02.01-.03.1-.06 0-.02-.05-.05-.07-.09-.06-.04 0-.04-.04-.06-.04-.01 0-.03.02-.05.02-.03 0-.05-.04-.06-.08 0-.02-.02-.05-.02-.07 0-.02.01-.03.02-.05h.03c0 .02 0 .03-.01.05v.02c.04 0 .06-.03.03-.08-.02-.04-.04-.04-.06-.03-.03.01-.06.03-.1.04 0 0-.03 0-.03-.02v-.04c.02-.04.06-.06.1-.04.04.02.07.03.09-.03 0-.03.04-.07.1-.04 0 0 .03-.02.04-.03-.03-.02-.05-.05-.08-.07h-.03c-.03.05-.07.08-.13.02 0 0-.04 0-.04.02-.03.13-.11.1-.19.08-.03 0-.05-.03 0-.06zm.5.24s-.02-.01-.03-.02l-.02.06s.03.01.03 0 .02-.03.02-.05zm1.22-.6s.03.02.04.03c.01-.02.02-.02.02-.03l-.06-.03v.03zm-1.06.51s0-.05.02-.08v-.05c-.02-.02-.05-.04-.05-.03-.04.04-.08.09-.11.14h.16zm-.02.02h.03s-.08-.02-.16-.02h.01c.04.05.08-.02.12.01zm.16.24s-.01-.08-.06-.07c-.03 0-.05 0-.03-.04 0 0 0-.01-.02-.03-.01.02-.02.06-.04.07-.04.02-.05.04 0 .06.04.01.08 0 .1.05l.04-.03zm-.07-.25H171s0 .02-.01.03c0 0 .02.01.03 0 .01 0 .02-.02.03-.03zm.2.05-.04-.02s-.06-.03-.04.03v.08c0 .04.06.07.07-.09zm.02.08v.07-.01c0-.02 0-.04-.01-.06zm0-.07zm.14.15s-.01-.02-.02-.02c0 0-.01.01-.01.02 0 .02-.01.04-.01.05l.03.03s.01-.01.01-.02v-.06zm-.1-.16.02-.02c-.01-.01-.03-.03-.04-.03l-.01.04c.01 0 .02.01.04.01zm.57-.03s-.01-.04-.02-.09v.06c0 .01 0 .02.01.04zm.04.02zm0-.06s-.01-.02-.02-.02c0 .01 0 .03.01.05 0-.01.01-.02 0-.03zm-.01-.23h.03c.01 0 .02-.02.03-.03h-.05v.02zm.15.02s-.03-.02-.04-.02c-.04 0-.06.04-.06.08 0 .02.02.03.03.05.01-.01.03-.02.04-.04v-.05h.03v-.03zm-.28-.15.05-.05c.03-.03.06 0 .09.02.01.01.03.02.05.04v-.06c-.03-.03-.06-.06-.1-.08-.07-.04-.08-.04-.09.04 0 .03-.01.09 0 .09zm-.11.14s.07.07.12.04c.04-.02.05 0 .06.04 0 .02.01.03.03.07.03-.01.04-.04 0-.08-.03-.04-.04-.07 0-.11-.02-.02-.04-.04-.08-.01-.02.02-.06 0-.09-.01-.03 0-.04-.03-.03-.07 0-.04-.02-.03-.03-.02-.02.02-.02.04-.03.06 0 .02.02.05.03.08zm.09.29s.04.01.07.03v-.1h-.03c-.01.02-.02.05-.03.07zm-.17-.23s.03 0 .04-.02v-.03h-.04v.03zm-.19.28-.03.03h.04c.07-.01.07-.01.06.07v.04s.01.02.02.02c.03 0 .13-.09.13-.12 0 0-.01-.01-.02-.01h-.04c0-.01 0-.03.02-.03.07-.04.11-.1.14-.17 0-.01 0-.03-.01-.05 0 0-.02.01-.03.02-.04.1-.04.1-.1 0v-.02s-.02-.01-.03-.01v.03c.05.08 0 .11-.04.15-.02.03-.06.04-.09.05zm-.34-.25v.01l.03.08s.02-.03.03-.04c0 0 .02-.01.03-.01.07.04.05-.02.05-.06 0-.02 0-.05-.01-.07.01.02.03.04.04.06 0 .02.01.04.02.05h.04s.01-.03 0-.04c-.02-.03-.05-.04-.06-.07-.01-.02-.02-.04 0-.06h.02c.01-.01.02-.02-.01 0 .01-.01.03-.03.06-.05h.02s.01-.01 0-.02c0-.01-.02-.03-.03-.03-.03 0-.05 0-.08.01-.01 0-.02.03-.02.05 0 .01 0 .04.01.05h.02c-.01 0-.03.02-.05.03 0 0-.02 0-.03.01-.05.01 0 .12-.08.12zm-.19-.35s-.04.08-.05.12v.04h.03c.04-.01.03 0 .08-.11v-.06h-.05zm-.23.11v.01c.03.02.05.04.08.05 0 0 .02-.04.02-.06-.01-.05 0-.09.03-.11v-.06h-.08c.02.08-.05.1-.04.17v.02zm-.07.1s.04.01.06 0c0 0 .01-.04 0-.04a.076.076 0 0 0-.04-.02s0 .02-.02.05zm-.1-.01.01.03c.01 0 .02 0 .03-.01v-.02c-.01 0-.02 0-.04.01zM172.06 124.55h-.02.01zM171.22 124.64h-.01z"/><path class="cls-9" d="M171.46 124.75v-.05h-.03l.02.06zM172.64 123.97h-.07s-.06-.06-.1-.08h-.04c-.02.01-.06.02 0 .05.04.02.04.05 0 .07-.01 0-.03 0-.04.01-.1.02-.22-.02-.3.05-.04-.03-.08-.05-.11-.01-.02.02-.04.03-.01.06.04.05.03.06-.03.05-.02 0-.05-.01-.07 0-.06.03-.06-.04-.08-.06-.04-.04 0-.05.02-.07.01 0 .01-.04.02-.05.02-.02.05-.04.04.03.01 0 .03.01.03 0 .01-.05.05-.06.08-.09v-.05c0-.03.02-.06.06-.02 0 .01-.01.02-.02.03 0 0 .02 0 .03-.02 0 .01 0 0 .01 0s.04-.05.06-.06h.03v.11c-.01.06.01.03.03.03.08 0 .08 0 .04-.08-.05-.07-.06-.18-.02-.18.06 0 .04-.03.03-.06 0 0 .02-.02.03-.02.01 0 .02.02.03.03.04.06.04.02.04-.01 0 0 .04-.01.05 0 .04.06.08-.02.12.02 0 0 .02 0 .02-.02 0 0 .13-.12.14-.12.01 0 .02-.02.04-.03v.02c.01 0 .04 0 .06.03 0 0 .02-.02.03-.04.02.02.03.05.05.05.04 0 .07 0 .11-.01v-.03c-.02-.06-.02-.07 0-.07.03 0 .05 0 .08.01.04 0 .04-.02.03-.05 0-.02 0-.05-.03-.03-.05.02-.13 0-.17.05-.03.03-.07.02-.1 0-.07-.04-.07.05-.12.05v.05l-.06-.08c.03-.06.08-.09.16-.08.01 0 .03-.01.04-.03 0-.02 0-.05.03-.02.02.01.05.03.07.03.03 0 .05-.01.02-.05 0 0-.02-.02-.02-.03 0 0 0-.02-.01-.03.01 0 .03 0 .03.01.04.04.09-.04.12.04 0 0 .02 0 .03.01v-.03c-.01-.02-.04-.05-.04-.07-.02-.06-.04-.06-.07-.04 0 0-.03-.01-.04-.03v-.03c.03-.05.07-.05.13-.02.02.01.03.03.05.04.01 0 .03.02.04.02.02 0 .04 0 .05-.01v-.06c0-.01-.04 0-.05-.02-.02 0-.03.04-.06 0-.02-.02 0-.06.04-.07.02 0 .03-.01.05-.01.06 0 .11.06.08.1-.05.08.05.03 0 .14 0 0-.04.06 0 0-.01.09.01.1.04.1.01 0 .03-.02.03-.03v-.09c0-.02 0-.04-.01-.05.01-.02.02-.02.02-.03.01.01.03.04.04.04.05-.02.05.04.09.06.04.02-.02.04-.03.06-.02.02-.06.04-.06.06 0 .06-.02.07-.07.06-.05-.01-.08 0-.08.06v.02h.02v.02c0 .03.01.03.04.05.02.01.03.02.04.03v-.05c0-.09.03-.09.1-.08.07 0 .12-.02.16-.07.05-.07.05.01.06.03.02.05 0 .09-.04.08-.06 0-.09.04-.14.04-.06 0-.03.1-.1.07l-.01.02c0 .01.02.03.03.03h.1l-.06.09v.02c.02 0 .03.02.05.03l-.04.04s-.02 0-.03-.02c0 0-.02-.02-.02-.03 0 .01-.03.03-.02.03.05.08.02.17.05.25 0 .01-.02.03-.03.04 0 0-.02 0 0 0-.04-.07-.07-.11-.1-.16 0 0 .02-.02.03-.02.04 0 .05-.02.03-.06a.577.577 0 0 1-.01-.23l-.03.03-.02.02c-.02 0-.05.01-.07.02l-.02.02v.02c.06.04-.02.07 0 .11.02.02 0 .06.01.09.01.02.06.04.06.05-.01.06.04.03.06.06.01.02.03.05.03.07 0 .02-.04.04-.06.04-.05 0-.11 0-.14-.07 0-.01-.02-.02-.04-.03 0 .02.01.04.01.05 0 .03 0 .06-.04.09-.01 0-.03-.01-.03-.01-.02.02-.03.04 0 .04-.02.04 0 .05 0 .05 0-.01.02-.03.02-.04.09.01.12.06.09.08-.06.04-.05.1-.06.16 0 .01-.01.02-.02.03 0-.01-.02-.03-.02-.04v-.07l-.01-.02-.09.06v.07c0 .03.01.09-.05.06 0 0-.02.03-.02.05 0 .02.02.04.03.06 0 0 0 .02-.02.02h-.03l-.1-.15s.04-.01.05-.03c0-.02 0-.04-.01-.06 0-.01 0-.02-.01-.04h.02c.02-.01.04-.03.02-.06 0 0-.02-.01-.02-.02 0 .02-.01.05 0 .08-.08.06-.08.06-.13-.02v-.05c.03-.03.06-.06.09-.08 0 0 .02-.01.03-.02l-.03-.04s.05-.07.06-.11c0-.04 0-.1-.02-.13-.04-.06-.02.04-.04.02-.03-.02-.05-.06-.07-.09 0 0 .01-.02.01-.01.06.03.05-.04.07-.05.04-.03.07-.08.05-.12 0-.01-.03-.03-.04-.03-.02 0-.04.02-.05.03-.02.03-.03.07-.06.09-.03.02-.08 0-.12.01h-.04l-.02.02.03.03c.08.03.16.1.2.15v.03h-.03zm.22.1h-.02s-.02.03-.02.04c.05.05.07.11.06.18v.01s.02.02.03.01c.01 0 .03-.02.03-.03-.02-.07-.05-.14-.08-.21zm.08-.48v.04h-.01c-.04.04-.03.03.02.09.04.06.08-.02.1.02-.05.05-.06.05-.03.14 0 0-.01 0-.01.01-.02.04-.04.07-.04-.01h-.04c-.03.04.03.06.04.09h.05c.01 0 .02-.02 0-.09 0 .02.02.04.03.06l.04-.03v-.04c-.01-.02-.04-.02-.06-.01v-.02c.04-.02.05-.06.03-.11.05-.08.05-.17.07-.26v.02c-.04.05-.09.1-.17.07zm-.06-.03-.05.06s.04-.03.07-.04h.01-.02l-.01-.01zm-.17.02h.03l.02-.02-.03-.04s0 .03-.01.04v.03zm-.46.09c.02.05.03.08.03.1 0 .05.02.1.06.1.05 0 .03-.07.03-.11 0-.02-.05-.04-.11-.09z"/><path class="cls-9" d="M172.86 123.42s0 .02.02.05h.03v-.03h-.06zM172.47 124.69s0 .06-.01.07c-.02.03-.06.04-.09.06.02.03.04.07.06.08.06 0 .08-.06.12-.09.02 0 .03-.04.03-.06-.02-.06-.02-.09.05-.07.01 0 .04-.03.04-.03-.04-.05 0-.06.03-.09v-.04c0-.03-.07 0-.05-.06 0-.04-.04-.05-.07-.05-.07 0-.02-.06-.05-.09-.02-.03.02 0 .03-.01.03-.01.07-.03.06-.07-.01-.08.05-.06.09-.07v-.09c0-.02-.03-.04-.03-.04-.06.04-.07-.03-.1-.06-.02.07-.06.1-.13.12-.02 0-.05 0-.05.01 0 .07-.04.05-.08.05-.03 0-.08.01-.08.02 0 .07.06.05.09.07l.06.03c.03 0 .05.01.08.02l-.04.08s-.02.02-.02.04v.05h.13s-.01.05-.02.07c0 .02-.03.03-.04.04.04.07.03.07-.03.08-.02 0-.03.01-.05.02.01.02.03.04.04.05h.05zM172.75 124.62s-.08.08-.12.11c0 0 0 .04.01.04.03.02.07.04.1 0 .03-.03.05-.11.03-.15 0 0-.03-.01-.02 0z"/><path class="cls-9" d="M172.27 124.61h-.04v.06c.01.03.03.05.04.07.04-.02.08-.05.09-.09-.03-.01-.07-.03-.1-.04zM170.64 125.3s.07.03.1.03c0 0 .01-.04 0-.04-.03-.02-.06-.03-.09-.05 0 0 0 .02-.02.05zM173.42 123.99s.03.04.05.06c0-.01.01-.02.02-.03l.04-.05-.07-.03s-.04.04-.03.05zM171.73 124.04l-.03-.02c-.01.02-.02.05-.03.08h.05c0-.02.01-.04.01-.06zM171.68 125.18v.1h.02c.01 0 .03-.03.03-.03a.304.304 0 0 0-.05-.07zM172.37 124.57h.06s.02-.02.01-.03c-.01-.03-.03-.05-.06-.02 0 0 0 .02-.02.05zM173.15 124.34h.07c.02-.04.02-.08.02-.12 0 0-.05-.02-.08-.02 0 .05 0 .1-.01.15zM171.89 125.2h.07v-.02c-.02 0-.03-.01-.05-.01 0 0 0 .02-.02.03zM171.85 123.92l-.06-.02v.03c.01.01.03.02.04.02 0-.02 0-.03.01-.04zM172.55 123.45s-.05 0-.07.02c-.02.02-.03.04-.04.07.02 0 .05 0 .08-.01 0-.02.01-.05.02-.07zM172.05 124.21s.04.05.06.06v-.04c-.01-.02-.03-.03-.04-.05 0 0-.01.02-.02.02zM172.06 124.1l-.02-.02c0 .01-.01.02-.01.02.02.02.03.02.04.03v-.04zM170.94 125.35l.02.02c.01 0 .02-.02.03-.03l-.02-.02c-.01 0-.02.01-.04.02zM171.57 125.34h.03c0-.01.01-.02.02-.04h-.03c-.01 0-.02.02-.03.03zM172.13 124.18s-.01.02 0 .02c0 .01.02.02.03.04 0-.01.01-.02 0-.03 0-.01-.02-.02-.03-.03zM172.41 124.31h-.04v.03h.03c.01 0 .02-.02.02-.03zM172.95 123.69l.03.03v-.03a.138.138 0 0 0-.04-.03v.02zM173.33 123.08l-.02-.06c-.02-.05 0-.08.06-.06.03 0 .04 0 .01-.03-.03-.02-.05-.05-.04-.08h-.08s-.01.03-.02.03-.04-.01-.04-.02v-.05c.05-.02.1-.04.16-.04.05 0 .07-.04.1-.07-.06-.08 0-.11.04-.13.03-.02.05-.02.04-.06 0-.03 0-.03.03-.03.08 0 .14-.06.15-.13 0-.02.04-.06.04-.06.04.02.07.03.05-.03-.02-.04.01-.06.03-.08.02-.03.04-.07.08-.08.1-.01-.02-.05 0-.07.03-.03.1-.03.08-.1l.08.04h.03s0-.02-.01-.02c-.04-.04.01-.07.02-.07.08.02.11-.02.13-.08.07-.01.09-.11.17-.1v-.02l-.02-.01c-.02 0-.04 0-.06-.02-.04-.01-.05-.04-.02-.07 0-.01.02-.02.02-.03 0-.03 0-.05-.01-.08 0-.04.06 0 .05-.06 0-.04.03-.08.09-.09l.06.02s-.02.02-.04.03c0 .02-.02.05-.01.07.01.02.1 0 .11-.02v-.05h-.04s.02-.03.03-.05c.02-.03.04-.02.06 0 .02.01.02.04.04.05h.04l.01-.04c-.06-.04-.01-.08 0-.11.02-.03.04-.02.05 0 0 .01 0 .04.03.01.02-.02.04-.03.05-.05.02-.03.04-.06 0-.08-.03 0-.03-.03-.01-.05.01-.02.02-.04.03-.05v-.05c-.02 0-.05 0-.06.01-.02.01-.03.04-.04.06-.01.03 0 .06-.02.09s-.04.06-.07.07c-.03.01-.03.03-.02.05 0 0-.01.03-.02.03 0 0-.03 0-.03-.01-.01-.04-.04-.09.02-.12-.02-.05 0-.08.06-.09.05-.01.02-.03 0-.04-.01 0-.03-.01-.03-.02 0-.04.02 0 .04 0 .03 0 .05-.02.08-.03.11-.05.11-.06.07-.16-.02-.05.01-.07.03-.1.01-.01.03-.02.05-.03 0 0 .01-.02.02-.03 0 0-.01-.01-.02-.01-.02 0-.07.05-.06-.02 0-.05.04-.01.06-.03h.06s-.02-.02-.02-.03c0-.03 0-.07-.02-.1 0-.03 0-.03.02-.04.02-.02.02 0 .03.01 0 .02 0 .07.04.07V120.38c-.01-.03 0-.04.03-.05.01 0 .03-.02.05-.03.02-.01.04-.02.05-.04 0 0 0-.01-.01-.01-.02 0-.03.01-.04.04v.02c-.02-.01-.06-.03-.05-.03.03-.06.01-.13.07-.19.02-.02.05-.06.06-.09.02-.07.09-.14.06-.21 0 0 .01-.05.02-.07 0 0 .02-.01.02-.02s.01-.03.02-.03c.03-.03.04-.05.02-.06v-.03h.05c-.01.07 0 .09.04.06h.02c-.02.06 0 .06.02.06v.07c-.01.04-.03.02-.04.01-.01-.01-.01-.05-.02-.06h-.01v.04l-.02-.02c0-.01.01-.02.02-.02h-.03c-.02.01-.03.06-.04.09v.05c.02.02.04.04.06.05.03 0 .04.04.03.08-.02.05-.04 0-.05 0v-.05c0 .01-.01.02-.02.04v.02s.01-.02.01-.01c0 .02-.01.03-.01.04l-.02.05-.02-.04v-.08s-.01.01-.01.02c-.02.05-.03.11-.05.16v.01c.02-.03.03-.04.05-.02.02 0 .04 0 .06-.02.01-.01.02-.03.03-.05v.06c-.02.07-.04.13-.03.2 0 .02 0 .05-.02.07-.01 0-.02-.03-.03-.03h-.04c-.02-.03-.04-.05-.06-.07 0 .01-.02.03-.02.04 0 .02.01.04.02.04h.06c-.02.04.01.07-.03.11-.03.02-.06.1-.05.13.01.08 0 .13-.07.17v.01c.03.07-.02.08-.06.1 0 0-.02.03-.02.04.02.06-.02.11-.04.15-.02.05-.04.1 0 .14l-.05.05s-.02.03-.03.05c-.06 0-.07.07-.07.09v.05h-.02v.13c0 .04 0 .07.04.09.01 0 .02.03 0 .09h.01l-.02.02.03.03c-.01 0-.03.01-.05.02 0 .02.04 0 .08-.02.01 0 .02-.03 0-.05h-.02v-.02s-.02 0-.03.01c.05-.08.06-.12.05-.16 0-.02 0-.03.01-.03 0-.02 0-.04-.02-.06 0-.02 0-.03-.01-.04l.02-.05s.02-.02.04-.03c.03-.02.05-.05.03.07.04-.17.05-.19.05-.22-.02 0-.04.01-.06.02l.03-.07H175s-.01-.01 0-.02c0-.03.06-.06.08-.05v.05c0 .03-.02.04-.04.04 0 0 .01.01.03.02 0 0 .02.02.02.03 0 .02.02.03.03.03v-.04h.02c0 .01 0 .02.01.02s.03-.02.03-.01l.02.02s.04.02.04.05l.02.02s0 .02-.01.03h-.01c-.02.03-.05.05-.08.04h-.01v-.07s-.05.02-.07.03c-.03 0-.04.03-.04.07 0 .06.04.09.04.15v.05c-.03 0-.05.02-.06.04h.09c-.01.01-.02.03-.03.04-.02.01-.05.02-.05.03 0 .03 0 .06.02.08 0 .01.04 0 .06 0 .04.01.04.04.01.06l-.04.04s-.02 0-.03-.02c-.02-.05-.04-.05-.08-.01-.03.03-.06.06-.08.1-.02.03-.03.09-.09.06-.04.04-.04.09-.06.14 0 0 0 .03.02.03 0 0 .03 0 .03-.01.02-.07.07-.08.13-.09.04 0 .05-.03.04-.08 0 0 .02-.02.03-.04 0 .01.02.03.02.04v.07c.07.06.03.15.05.23v.02h-.03c-.02-.01-.06-.12-.04-.16.02-.05 0-.04-.03-.04-.07 0-.12.06-.17.1-.03.02-.06.05-.09.03-.02-.01-.02-.06-.02-.09 0-.09 0-.17-.04-.24-.04-.06 0-.12.06-.16.08-.05.09-.13.03-.19.04-.05.01-.1-.01-.14v.02q-.06.07.01.11s-.03.05-.04.08c0 .02-.07 0-.04.05l-.01.01s-.02 0-.02-.01c0-.04 0-.09.02-.13 0 0-.01-.02-.02-.02-.06.02-.09.07-.08.12l.02.08s0 .03-.04.07c-.01 0-.01.03-.01.05 0 .01 0 .04.03.03.03 0 .05 0 .04.03 0 .02-.04.05-.04.05-.07-.03-.07.02-.08.06 0 .03 0 .06-.03.05-.05-.02-.05 0-.06.04-.01.05 0 .1.03.14.03.05 0 .09-.02.13-.01.04-.04.06-.09.06 0 0-.08.13-.07.13 0 .01.02.02.04.02.01 0 .02 0 .03.01-.04.06.02.07.05.11.02.02.02.06.02.08 0 .02-.02.06-.07.03-.03-.02-.04 0-.05.03 0 .02-.02.04-.02.07-.02-.06-.04-.11 0-.15h.04v-.08s-.02 0-.02.01c0 .03 0 .05-.01.08-.02-.02-.04-.05-.07-.03-.01.01-.03.03-.04.05-.03.06-.04-.06-.07-.02-.02.02-.03.06-.07.02-.03-.03 0-.04.02-.06 0-.02 0-.05.02-.07.01-.02.02-.05.07-.02.03.02.05 0 .03-.05-.03-.05-.05-.1-.01-.15v-.04c-.01 0-.02.02-.03.02-.06.02-.06 0-.08-.05-.01-.05.01-.07.03-.1.02-.03.07-.04.04-.09v-.06l-.08.03s0 .02.01.02c.03 0 .05.01.08.02-.04.02-.07.04-.1.06-.06.04-.04.13-.12.14.01.04-.03.06 0 .1.02.02.06.03.03.06l-.06.06h-.06c-.04 0-.04.02-.03.05 0 .02.02.05.04.05.03.01.06 0 .09.01l-.02.09s-.01.02-.02.03c0 0-.02-.01-.03-.02-.01-.02-.02-.06-.03-.06-.05-.01-.04.02-.04.06 0 .01-.03.02-.04.03-.01 0-.04.03-.04.03.07.08-.01.07-.04.09v.04s.03.02.04.02l.02-.02c.02-.02.03-.03.06 0 .02.02.05.02.07.03-.02.03-.02.07-.05.08-.04.02-.1.03-.15.04l-.04-.02c0-.08-.05-.07-.1-.07h-.1zm1.64-1.53s0 .01.01.01h-.01zm-.04-.01h.01-.01zm-.17.3s.02-.02.04-.03-.03 0-.05.02c0 0 0 .02-.01.03h.02zm.25-1.03s.03-.04.03-.05c-.02-.06.05-.08.05-.12 0 0 .01-.02.01-.03 0-.01 0-.02-.02-.03h-.02l-.11.15s.01.03.02.04c0 .02.03.02.04.04zm-.37.62h.05l.01-.02h-.04s-.01 0-.02.02zm-.24.19h.01c.03-.04.05-.09.11-.09v-.03c-.02 0-.05-.02-.06-.01-.02.02-.03.04-.05.07 0 .02-.02.03-.03.05 0 0 0 .01.01.02zm-.06.33s.03-.02.04-.02c.03-.04.06-.07.04-.11v-.04c-.01.01-.03.02-.04.04l-.03.09c0 .02-.01.03-.02.05zm-.32.41s.03.01.04 0-.05 0-.04 0zm.16.09-.08.03.02.04c.02-.02.04-.03.06-.04v-.03zm-.08-.14h-.01l-.08.03s.04.01.06.02c.01-.01.02-.03.03-.04zm.02-.02s0 .05.01.08h.04c.01-.02 0-.06.02-.07.01-.01.05 0 .08 0 .01 0 .03-.02.02-.03 0-.01-.03-.04-.03-.04-.05.02-.1.04-.15.07zm-.6.39s.12 0 .13-.03c0-.01 0-.03-.01-.05-.02-.02-.04-.05-.06-.02l-.04.04-.03.03v.02z"/><path class="cls-9" d="M174.14 123.32s-.02.06-.04.1v.03h.03s.08-.05.11-.09c.02-.03.04-.05 0-.09-.01-.01 0-.05 0-.07-.02-.11-.02-.11.08-.11.05 0 .1-.04.08-.07-.05-.08-.01-.1.05-.11.01 0 .02-.02.03-.04-.02 0-.04-.03-.05-.03-.04.03-.09.04-.11.08-.05.08-.05.08-.14.02-.01.06-.02.11-.01.18.02.07.01.14-.04.2zM175.33 120.86s-.03-.03-.03-.06c0-.06.04-.12 0-.17-.01-.01.01-.07.04-.08 0 0 .01-.03 0-.04 0-.01-.02-.02-.03-.02-.03.02-.04.03-.03-.03 0 0-.02-.02-.03-.02 0 0-.02.03-.02.04.02.1 0 .21-.02.31h-.03v.02h.02v.07c.08-.02.06.05.07.1s-.02.02-.02.03c0 .02 0 .05.02.08 0-.02.01-.03.02-.04s.03 0 .03 0 .01-.02.01-.03c0-.02-.01-.05-.02-.07 0-.04 0-.06.04-.05h.02s0-.02-.01-.02c-.02 0-.04-.02-.06-.02zM173.85 123.3c.04-.06-.07-.07-.05-.12h-.02c-.03.04-.07.07-.14.04l-.03.03v.04c.03.04.07.06.07.11 0 0 .03.01.05.02v-.08s.02 0 .03.01c.03.02.06.13.05.15h-.03c-.01 0-.04-.04-.04 0 0 .02.02.05.03.07.04-.01.09-.01.1-.04.01-.03.05-.07.01-.11-.04-.04-.05-.08-.03-.11zM174.57 122.33c.03.11.03.14 0 .25.02.04.09 0 .09.06.01 0 .03-.02.03-.03 0-.04-.03-.08-.03-.12 0-.04.02-.08.02-.13 0-.04 0-.1-.07-.09-.02 0-.04-.05-.06-.07 0 .04 0 .09.02.13z"/><path class="cls-9" d="M175.16 121.1s.01.06.03.08h.04v-.03c0-.04-.02-.08-.03-.13v-.05c.03-.07.02-.08-.03-.07-.07 0-.09.04-.08.1 0 .01 0 .02.01.03.08-.05.05.03.06.06zM173.84 123.16h.06c.02 0 .03-.02.05-.02.06 0 .1 0 .09-.08.06 0 .05-.06.07-.1 0 0-.01-.02-.02-.02h-.03c-.04.09-.15.11-.21.2v.03zM175.08 121.86s-.02.06-.04.06c-.04.02-.04.03 0 .05l.04.02s.04.03.06.03c0 0 .03-.02.03-.03 0-.05-.03-.1 0-.15-.01-.01-.02-.03-.03-.03-.02 0-.04.02-.06.04zM174.06 123.34v-.06l-.06.03c-.04.05-.08.09-.02.17.01.01 0 .06.03.03s.07-.06.05-.12v-.05zM174.57 122.58h-.03c-.02.02-.04.05-.07.08-.01.02-.03.06-.04.1 0 .02 0 .06.04.04.05-.02.12-.16.09-.21zM173.63 123.57s0-.02-.01-.03c0 0-.02-.02-.03-.02-.03 0-.07.01-.09.04-.01.01.01.06.02.09v.03c0 .02.02.04.03.05.02-.01.06-.04.06-.04-.03-.05-.02-.09.02-.12zM175.46 120.01s.03 0 .05-.01c0 0 .02 0 .03-.01 0-.02 0-.03-.01-.05-.01-.03-.03-.06-.04-.08v-.03c.01-.02.02-.03 0-.04 0 0-.02.01-.03.02v.2zM174.54 122.08v-.05c-.01.01-.03.03-.04.05 0 .04-.02.09-.07.11v.05c.02 0 .04 0 .04-.02.02-.03.03-.05.07-.02l.02-.02c-.05-.02 0-.07-.02-.1zM174.75 122.37l-.03.03c.02.03.04.06.02.1 0 0 .02.02.03.02.02 0 .06-.02.07-.04 0-.02-.02-.05-.03-.08 0 0-.02-.01-.03-.02 0 0-.02-.01-.03-.01zM175.32 121.15v.1c0 .01.01.02.02.03 0-.01.02-.02.02-.04 0 0 0-.02.01-.03l.02-.04s-.01-.04-.03-.05c-.02-.01-.03 0-.05.03zM173.53 123.9s.07-.01.12.01c0 0 .03-.02.03-.03v-.05h-.15v.07zM174.49 122.34s-.04-.02-.05-.02c-.02.01-.03.04-.03.06 0 .02.02.04.03.06.02 0 .04-.02.05-.02.02-.03.05-.06 0-.08zM173.9 122.56c-.02.07-.05.13-.08.19h.04c.03-.05.06-.1.08-.15 0 0-.02-.03-.04-.04zM175.12 121.68l.02.03c.02.01.03.02.05.02.03 0 .04-.03.04-.05 0-.01 0-.03-.02-.04-.01 0-.03-.01-.05 0-.02 0-.03.03-.05.04zM175.44 120.5l-.01.01v.03l.08.14.02.02c0-.01.02-.02.02-.03 0-.05-.02-.11 0-.16 0 0-.01 0-.02-.01-.03.12-.06 0-.08 0zM175.38 120.3s-.02.03-.02.05v.07s0 .02.01.01c0 0 .02 0 .03-.02v-.03c0-.02 0-.03.01-.05 0-.02-.03-.05-.04-.04zM173.85 122.89s.01.02.03.03l.04.02c.03-.04.08-.01.11-.03l.02-.02-.01-.02h-.17s-.01.01-.01.02zM173.72 123.63s-.05.07-.03.13c0 0 .02.02.03.02 0 0 .02 0 .02-.01.01-.03.02-.06.03-.1 0-.02 0-.04-.01-.06l-.04.02zM175.44 120.88s.01.03.02.03c.02-.01.05-.03.07-.06 0-.01-.01-.05-.02-.07h-.02c-.03.02.02.08-.03.1zM174.57 122.8v.05c.02 0 .03 0 .05-.01.01 0 .02-.02.03-.04 0-.01.02-.03.02-.04v-.03h-.03c-.04 0-.06.04-.07.07zM175.14 121.41h-.02s0 .02.01.03 0 .04 0 .05c0 .03.03.03.05.02h.05v-.02c-.02-.02-.03-.03-.05-.04-.02-.01 0-.08-.04-.05v.01zM174.26 123.17s-.01.03 0 .03c.02.03.05.07.08.11h.02v-.01c-.02-.05-.04-.1-.06-.14h-.04zM175.56 119.8s.02.01.02 0c0-.02.01-.04.01-.04v-.08c-.02 0-.04.09-.03.12zM174.35 122.65s0-.04-.01-.06c0-.02-.02-.03-.03-.05h-.02c-.02.02 0 .04.01.06.01.01 0 .04.01.05.02 0 .03 0 .04.01v-.02zM174.74 122.6v.08c.03-.02.06-.03.08-.05a.12.12 0 0 0-.05-.05s-.04.01-.04.02zM174.91 122.36v.06c.04-.02.07-.03.09-.04v-.04c-.03 0-.06-.02-.08.02zM174.43 122.56s.02-.02.02-.04c0-.01-.01-.03-.02-.03 0 0-.03 0-.03.01 0 .02 0 .04-.01.07v.03s.02 0 .02-.02c0 0 .01-.02.02-.02zM175.28 119.67l.02-.02s.01-.08-.03-.04c0 0-.01.02-.02.02-.01.04.02.02.03.03zM175.46 120.07s.04.03.04.04c.01.03.02.05.04.02v-.02c0-.06-.02-.04-.04-.04h-.05zM175.43 121.14s.01 0 .01-.01c.01-.03-.02-.16-.04-.17l-.04.04c.02.05.04.1.06.14z"/><path class="cls-9" d="M175.56 120.06s.02 0 .02-.01c.01-.03 0-.09-.02-.1 0 0-.01 0-.02.01 0 .03.01.07.02.1zM173.93 122.47h-.04v.08h.03c.01-.03.05-.04.01-.07zM175.09 121.14v.05c.03-.01.05-.02.08-.03 0 0-.01-.02-.02-.03-.02 0-.04-.03-.05.01zM175.19 120.85v-.04s-.03 0-.03.01v.06c.02-.01.04-.02.04-.03zM175.37 120.75l.06-.03s0-.05-.01-.05c-.02 0-.04 0-.08.01.01.04.02.08.03.08zM175.48 120.32l-.03.03s0 .02.02.05c.01-.03.02-.04.03-.06l-.01-.03zM174.01 123.25l-.05-.06s-.02.01-.02.02v.05c.03 0 .05-.01.07-.02zM175.18 119.77l-.03.03v.04c.01-.02.03-.03.03-.05v-.02zM175.54 120.41s.02-.02.02-.03c0-.02 0-.03-.01-.05h-.02c0 .02.01.04.02.07zM174.75 122.27s.01.03.03.04h.03l-.02-.06s-.01.01-.03.02zM175.27 121.39l.04-.04v-.05c-.01.02-.03.03-.04.05v.03zM174.51 122.93l.03-.02c0-.02 0-.03-.02-.05h-.03c0 .02 0 .04.01.07zM175.51 119.69s.01-.02.01-.03v-.04l-.02.02v.05zM175.54 120.26s.03-.02.05-.02v-.08l-.07.07s0 .04.01.04zM175.45 120.06s-.02 0-.03.02v.04c.01-.01.02-.03.04-.04v-.02zM174.69 122.66s0 .04.01.06h.04v-.06h-.05zM175 121.86l-.03.03v.05l.04-.04v-.05zM173.37 122.7h-.03c.01.02.02.03.03.04h.03c0-.01-.01-.03-.02-.04zM175.16 119.86h-.02v.03c.02 0 .02 0 .03-.01v-.02zM173.73 122.91h-.03s0 .02.02.04c0 0 .02 0 .03-.01 0 0 0-.02-.01-.03zM173.85 123.04s0-.02-.01-.03c0 0-.02 0-.02.01v.03s.02 0 .04-.02zM174.9 122.28l-.01.01.03.03h.03c-.02-.02-.03-.03-.05-.04zM173.85 123.73h.03c0-.01.01-.03.01-.04h-.03v.04zM175.16 120.71v.04s.02-.01.02-.02v-.03h-.02zM175.07 122.16s.02-.02.03-.02v-.03l-.03.03v.03zM173.32 124.17h.03s0-.02.01-.03c-.01 0-.02-.01-.03-.02-.01.03-.01.03-.02.04zM173.85 123.55c.04.06.05.1.08.11.02.01.05 0 .08-.01-.02-.02-.03-.04-.05-.05-.02-.01-.05-.02-.11-.05zM175.44 120.22s0 .03-.01.04h.01v-.04h-.01zM175.08 120.87s0 .01-.01.02c0 0 .02.01.03.02 0 0 .01 0 .03-.01-.02-.01-.03-.02-.04-.02z"/><g style="opacity:.5"><g style="clip-path:url(#clippath)"><path d="M142.56 145.98c.74 0 1.44-.65 1.41-1.41s-.62-1.41-1.41-1.41c-.74 0-1.44.65-1.41 1.41s.62 1.41 1.41 1.41z" style="fill:#eceae7"/></g></g><path d="M50.75 109.55c-.09-.24-1.35-2.57-3.68-5.48a.472.472 0 0 1-.11-.25c-.27-3.04-.7-5.05-.7-5.05a.818.818 0 0 0-.71-.64l-2.43-.29h-.06c-.28 0-.51.23-.51.51v.84s-.01.03-.03.03h-.02a34.15 34.15 0 0 0-4.9-3.7c-.34-.23-.75-.36-1.2-.36-.45 0-.86.13-1.2.36-8.38 5.17-12.99 13.58-13.16 14.04-.05.11-.08.23-.08.35 0 .39.27.71.63.8l2.41.46c.32.09.57.37.6.7.02.43.48 9.94 1.05 12.41.09.36.42.62.8.62h.02c1.41-.04 2.7-.06 4.09-.08s.01 0 .01 0h.11c.15 0 .27-.12.27-.27-.06-.83-.18-2.73-.28-4.73v-.16c0-.17-.1-.33-.25-.41a2.626 2.626 0 0 1-1.27-2.1c-.13-3.34-.19-7.19 0-10.21a.49.49 0 0 1 .48-.46c.27 0 .49.21.49.48v.04c-.12 2.01-.13 4.39-.09 6.74 0 .32.27.57.58.56.32 0 .57-.27.56-.58-.04-2.36-.03-4.76.09-6.77a.49.49 0 0 1 .48-.46c.27 0 .49.21.49.48v.04c-.12 2-.13 4.36-.09 6.7 0 .32.27.57.58.56.32 0 .57-.26.56-.58-.04-2.35-.03-4.73.09-6.74a.49.49 0 0 1 .48-.46c.27 0 .49.21.49.48v.04c-.17 2.93-.12 6.65 0 9.9v.11c0 .89-.45 1.68-1.13 2.15a.49.49 0 0 0-.21.38s-.06.5.16 2.92c.1 1.06.18 1.79.22 2.12.01.13.12.22.25.22h5.03v.01c.13 0 .24-.1.26-.23.32-2.9.39-4.54.39-4.54 0-.15-.11-.26-.26-.28l-1.66-.23c-.26-.05-.42-.21-.48-.41-.03-.12-.02-.26-.02-.26.67-9.68 3.87-12.94 3.87-12.94.09-.1.15-.13.15-.13a.514.514 0 0 1 .78.22s.03.07.04.23c.28 3.04.14 8.22-.03 12.26-.14 3.43-.32 6.12-.32 6.12 0 .11.09.2.2.2.91.02 1.8.03 2.74.06h.02c.39 0 .71-.26.8-.62.57-2.47 1.03-11.98 1.05-12.41.04-.34.28-.62.6-.7l2.41-.46c.36-.09.63-.42.63-.8 0-.13-.03-.25-.08-.35z" style="fill:#f70"/><path class="cls-7" d="M82.4 108.47c-.16-.15-2.12 1.6-4.08 5.3-1.95 3.65-3.68 9.44-2.99 15.89.69 6.44 3.6 11.74 6.28 14.9 2.69 3.21 4.98 4.5 5.11 4.32.21-.25-1.7-1.91-3.98-5.18-2.28-3.23-4.78-8.27-5.42-14.25-.64-5.98.74-11.44 2.29-15.07 1.54-3.67 3.06-5.7 2.8-5.9zM128.28 102.41c-.39.44 2.07 3 3.49 6.97 1.5 3.93 1.31 7.48 1.89 7.56.26.04.66-.84.82-2.36.16-1.52-.02-3.68-.83-5.89-.82-2.21-2.1-3.96-3.2-5.01-1.11-1.06-1.99-1.46-2.16-1.26zM74.5 146.98c.04.57 3.1.73 6.61 1.76 3.53.98 6.21 2.46 6.55 1.99.15-.22-.34-.89-1.39-1.69-1.04-.8-2.67-1.67-4.61-2.22-1.94-.55-3.78-.66-5.09-.54s-2.09.44-2.07.7zM181.91 126.56c.44-.36-.83-2.6-2.11-5.42-1.31-2.81-2.19-5.23-2.75-5.12-.53.08-.49 2.89.94 5.96 1.41 3.08 3.52 4.93 3.93 4.58z"/><path class="cls-9" d="M130.37 129.09c.02-.57-2.14-1.08-4.32-2.5-2.21-1.37-3.59-3.12-4.1-2.86-.23.13-.18.79.3 1.69.47.9 1.41 2.01 2.73 2.85 1.32.84 2.72 1.22 3.74 1.26 1.02.05 1.64-.18 1.66-.45zM170.41 125.24c.08.25.58.37 1.32.2.73-.17 1.69-.67 2.48-1.51s1.24-1.82 1.37-2.56c.14-.75 0-1.24-.27-1.31-.55-.12-1.32 1.22-2.56 2.49-1.2 1.31-2.5 2.14-2.35 2.69z"/><path class="cls-7" d="M86.18 56.49c.26-.2-1.35-2.29-2.82-6.14-.73-1.92-1.38-4.29-1.76-6.98a35.34 35.34 0 0 1-.05-8.8c.64-6.23 3.29-11.47 6.07-14.43 2.75-3.03 5.23-4.07 5.07-4.38-.05-.12-.71.02-1.82.5-1.1.49-2.65 1.4-4.25 2.89-.82.73-1.6 1.65-2.38 2.68-.75 1.05-1.48 2.22-2.12 3.52a27.22 27.22 0 0 0-2.55 8.99c-.4 3.29-.25 6.48.22 9.31.5 2.83 1.34 5.3 2.28 7.25 1.91 3.92 3.97 5.74 4.12 5.58z"/></g></svg>