<svg xmlns="http://www.w3.org/2000/svg" viewBox="0 0 200 200" xmlns:v="https://vecta.io/nano"><path d="M21.23 133.03C59.7 254 229.72 167.46 168.06 57.52 137.3-39.5-22.15 37.09 21.23 133.03z" fill="#575655"/><path d="M188.83 83.73c-.62-5.24-3.27-9.79-7.18-13.28-2-1.79-4.28-3.14-6.46-4.68-2.1-1.48-3.84-3.33-4.23-5.96-.38-2.51.3-5.1.93-7.51.74-2.83 1.47-5.67 1.63-8.6.27-4.94-1.45-10.56-6.09-13.03-4.6-2.45-9.86-.72-14.76-.82-2.52-.05-4.88-.76-6.77-2.48-2.02-1.83-3.34-4.26-4.42-6.73-2.16-4.92-3.79-10.43-8.63-13.43-2.12-1.32-4.74-1.93-7.19-1.24-2.27.64-4.24 2.3-5.33 4.38-2.31 4.39-.29 9.95 3.95 12.32 2.41 1.35 5.37 1.72 7.32 3.81 1.59 1.7 2.38 4.24 1.89 6.53-.29 1.36-.99 2.54-2.3 3.1-1.14.49-2.43.53-3.66.52-3.12-.04-6.2-.69-9.32-.78-2.51-.07-5.07.26-7.36 1.34-2.52 1.2-4.15 3.39-5.35 5.84-2.59 5.28-4.93 11.26-4.47 17.25.36 4.7 2.57 9.5 6.65 12.09 2.49 1.58 5.42 1.9 8.28 2.25 2.66.32 5.8.78 7.69 2.9 1.35 1.52 1.85 4.32 0 5.67-.53.39-1.16.61-1.8.76h-.07c-3.73-.04-7.52.95-10.49 3.04-2.46 1.54-4.42 3.76-5.15 6.74-.22.87-.31 1.76-.28 2.65-.19 5.06 3.23 9.91 6.87 13.26 9.52 8.78 23.33 10.28 35.58 7.92 7.3-1.41 14.28-4.05 21.12-6.91 6.76-2.24 12.86-6.42 16.4-12.74 2.38-4.25 3.56-9.31 2.99-14.17z" fill="#e8f8f9"/><path d="M32.51 118.05l-1.84-3.06c.32.09.68-.17.76-.46.1-.38-.13-.67-.46-.8l-2.66-1.08c-.4-.16-.81-.29-1.23-.35a.68.68 0 0 0-.33-.11c-4.49-.13-8.95.19-13.37.96-1.29.23-2.58.49-3.86.77-.35.08-.55.48-.46.8.1.36.46.53.8.46l1.85-.37 10.58 4.48c.14.24.44.36.72.31l7.78 3.3 2.24 1.4.33-1.81-.86-4.44z" fill="#c64528"/><path d="M35.63 135.43l-.83-.34-.44-9.83a.61.61 0 0 0 .19-.2c.16-.28.09-.75-.23-.89l-6.31-2.74-6.22-2.85-6.37-2.84-3.23-1.33c-.99-.4-2.15-.8-3.15-.2-.88.53-1.34 1.63-1.76 2.52a22.12 22.12 0 0 0-1.21 3.14c-.29.99-.44 2.08 0 3.05.43.95 1.37 1.38 2.27 1.77 4.25 1.8 8.43 3.76 12.62 5.7 4.23 1.97 8.46 3.92 12.78 5.69l1.54.62c.33.13.72-.14.8-.46.1-.37-.13-.67-.46-.8z" fill="#f75e28"/><path d="M194.17 120.46c-.22-.06-.4 0-.54.11-1.9.39-8.46 1.69-11.77 1.47-3.9-.26-4.2 1.37-6.03 1.83-1.82.46-10.14 4.94-10.14 4.94s-.2 3.47-.54 5.11c-.06.02-.12.05-.19.08-.33.13-.56.44-.46.8.07.25.34.47.61.48l.02.04.1-.05h.07c4.01-1.59 7.95-3.36 11.86-5.17l11.8-5.42 3.2-1.39c.47-.2.96-.39 1.38-.69.49-.35.83-.77 1.06-1.33.14-.33-.15-.72-.46-.8z" fill="#c64528"/><ellipse cx="99.24" cy="179.2" rx="66.71" ry="5.08" fill="#ff7800"/><path d="M170.93 116.47c0-1.64-.98-3.04-2.38-3.68-.01 0-.03-.02-.04-.02l-.16-.06a2.59 2.59 0 0 0-.45-.14c-.33-.09-.66-.14-1.02-.14a4.02 4.02 0 0 0-.85.09H33.59h-.56c-.81.01-1.55.41-2.08 1-.85.74-1.4 1.82-1.4 3.04 0 1.49.81 2.77 2.01 3.48l3.28 15.77.46 2.99c1.1 6.8 2.41 13.56 3.87 20.29l1.26 5.6c.43 1.85.81 3.72 1.45 5.51.09.24.29.43.53.47.89 2.23 2.46 3.31 4.1 4.98 2.05 2.08 6.84 2.73 9.15 3.03s25.42.11 25.42.11h29.44l34.22-.12c2.43-.12 8.52-2.68 10.84-4.88.51-.48 1.01-1.41 1.49-2.56.06.05.13.09.2.1.38.1.67-.13.8-.46.52-1.27.87-2.61 1.18-3.94l.92-3.98 1.77-8.16c1.14-5.49 2.16-11.01 3.05-16.55.2-1.27 1.23-5.97 1.41-7.23l2.72-11.18c1.08-.73 1.79-1.96 1.79-3.36z" fill="#bf9dd6"/><path d="M157.77 170.12l-115.26-.26c-.31.09-.59.47-.46.8.96 2.39 2.58 4.5 4.7 5.98 1.77 1.23 3.87 1.91 5.98 2.29 1.36.25 2.75.39 4.13.51h23.61H94.3h10.32 13.04 22.01 3.68c2.33-.19 4.71-.45 6.93-1.22 2.09-.72 3.95-1.92 5.42-3.58.97-1.1 1.72-2.31 2.32-3.64.14-.32.09-.7-.23-.89z" fill="#78577a"/><path d="M76.71 89.84c-1.97-1.48-3.71-3.17-5.18-5.01l-6.11 2.43c-3.26 1.39-6.44 2.95-9.58 4.6 4.73 1.6 9.35 3.03 13.62 5.96 2.38 1.64 4.54 3.54 6.44 5.64l27.65-1.14c-.08-.03-.15-.07-.23-.1-8.84-3.96-18.77-6.5-26.62-12.38zm62.12-3.16l-.31-.13c-8.79-3.67-25.56-6.37-26.13-6.34-.56.02-.4 1.18-2.25 2.79-1.42 1.23-1.53.81-2.64.88.3 1.08.29 2.31 1.47 2.05 4.51 1.96 8.88 4.2 12.82 7.18 3.1 2.35 5.83 5.09 8.19 8.12l21.83-1.02c-.83-.67-1.64-1.36-2.42-2.07-3.77-3.46-7.52-7.26-10.57-11.46zM36.2 103.51l-1.16.73c-.3.19-.48.52-.31.87.14.29.57.5.87.31l.67-.42 5.87-.2c-1.38-.74-2.68-1.59-3.88-2.59l-2.05 1.29z" fill="#bf9dd6"/><path d="M42.14 104.81l.7.36 33.38-1.35-.32-.35-26.48 1.1-7.28.25z" fill="#5c0663"/><path d="M69.46 97.83c-4.27-2.93-8.9-4.37-13.62-5.96-.15.08-.3.15-.44.23-3.28 1.74-6.49 3.6-9.67 5.52l-7.47 4.61c1.2 1 2.51 1.85 3.88 2.59l7.28-.25 26.48-1.1c-1.9-2.1-4.05-4-6.44-5.64z" fill="#d7c2df"/><path d="M103.55 102.32l.95.44 25.83-1.09-.35-.45-1.07.05-25.36 1.05z" fill="#5c0663"/><path d="M121.79 93.1c-3.94-2.98-8.31-5.21-12.82-7.18-1.18.26-1.17-.97-1.47-2.05-.34.02-.76.09-1.35.26-2.51.74-9.91.37-14.16.33-3.13-.03-4.38-1.81-4.83-2.75.37-.4.09-1.23-.59-1.1-3.62.68-7.19 1.6-10.7 2.72a105.57 105.57 0 0 0-4.34 1.49c1.47 1.84 3.21 3.53 5.18 5.01 7.85 5.88 17.78 8.42 26.62 12.38.08.03.15.07.23.1l25.36-1.05 1.07-.05c-2.36-3.03-5.09-5.77-8.19-8.12zm36.49 2.45s-10.71-5.2-19.45-8.86c3.05 4.2 6.8 8 10.57 11.46.78.71 1.59 1.4 2.42 2.07l14.17-.66-7.71-4z" fill="#d7c2df"/><path d="M170.3 101.27c-.77-1.42-2.43-2.47-4.08-1.95l-23.54.94-26.46 1.04-27.45 1.08-26.68 1.05-24.15.96-3.02.17c-1.77.1-3.35.67-4.04 2.27-.59 1.35-.67 3.32.34 4.51a.51.51 0 0 0 .56.46l24.41-.98 28.11-1.13 29.45-1.18 28.4-1.14 24.9-1 2.59-.1h.05.11c.42-.02.66-.36.68-.68.72-1.27.46-3.07-.2-4.3z" fill="#f75e28"/><path d="M112.11 80.89c0-.06-.02-.13-.04-.19-.51-1.48-1.96-2.29-3.32-2.84l-4.85-1.78c-.92-.39-1.79-.87-2.55-1.53-.02-.55.3-1.05.74-1.4.6-.48 1.37-.7 2.09-.94 1.18-.4 2.33-.86 3.46-1.39.02 0 .03 0 .05-.02.02 0 .03-.02.05-.03l1.2-.6c.16-.08.24-.21.26-.35.54-.49.92-1.09.95-1.9.06-1.51-.81-2.93-1.57-4.17-1.44-2.33-3.31-4.52-5.75-5.85-1.25-.68-2.63-1.12-4.06-1.22-1.52-.1-3.05.17-4.48.7-2.81 1.05-5.09 3.19-6.74 5.65-.48.72-.92 1.47-1.32 2.25-.42.82-.76 1.7-.84 2.63-.12 1.45.58 3.12 2.01 3.63.04.03.08.05.12.07 1.12.43 2.25.76 3.41 1.02l3.92 1.29s.44.48.6 1.02c0 .04.01.08.01.12-1.19 1.21-2.81 1.89-4.31 2.62-1.27.62-2.69 1.14-3.71 2.16-.62.62-1.01 1.35-1.2 2.19 0 .02 0 .04-.01.06 0 .02-.01.05-.02.07-.16.74.06 1.54.31 2.22.29.78.72 1.57 1.47 1.97 1.02.56 2.21.62 3.35.66l3.82.04 7.59-.43 3.73-.46c1.13-.16 2.28-.32 3.33-.78.48-.21.93-.48 1.27-.88.3-.35.52-.77.69-1.2.3-.74.49-1.62.31-2.42zm-2.45 3.5c.25-.17.49-.35.7-.55-.19.21-.41.4-.7.54z" fill="#ff8000"/><path d="M107.69 70.81l.05-.03 1.2-.6c.16-.08.24-.21.26-.35.54-.49.92-1.09.95-1.9.06-1.51-.81-2.93-1.57-4.17-1.44-2.33-3.31-4.52-5.75-5.85-.57-.31-1.17-.57-1.78-.77a20.31 20.31 0 0 0 0 3.12c.32 4.17 2.09 8.41 5.33 11.12.43-.18.85-.37 1.27-.56.02 0 .03 0 .05-.02z" fill="#bbdbdf"/><path d="M54.7 74.2c1.39-1.53.26-2.53-.94-3.71l-5.3-5.46-1.19-1.29c-.03-.06-.07-.13-.12-.19l-1.36-1.62-.57-.68c-.09-.25-.1-.53.04-.87.07-.17.17-.32.29-.47l.81-.71 1.14-1.13 5.82-5.89c.58-.67 1.42-1.45 1.53-2.38.1-.88-.53-1.63-1.02-2.28-1.27-1.71-2.7-3.26-4.28-4.67-.56-.58-1.15-1.12-1.8-1.62-1.14-.88-2.2-1.75-3.46-.65-1.64 1.43-3.14 3.07-4.65 4.64-1.39 1.45-2.66 3.16-4.22 4.42-.49.39-1.06.86-1.75.57-.38-.16-.84-.91-1.11-1.21l-2.26-2.38L25.63 42c-.85-.81-2.07-2.53-3.46-2-.69.27-1.27.97-1.8 1.45l-2.13 1.91-.3.27-.21.19s-.04.05-.07.07l-1.26 1.25c-.73.77-1.92 1.77-2.05 2.91-.13 1.11.93 1.83 1.62 2.52l3.66 3.61 3.47 3.42c.52.51 1.37 1.07 1.71 1.71.36.68-.22 1.11-.7 1.61l-2.81 2.97c-2.13 2.08-4.42 4.1-6.2 6.43-.73.96-.93 1.78-.12 2.75 1.31 1.59 2.96 2.99 4.47 4.38l2.18 1.94c.48.42 1.07 1.08 1.73 1.24 1.33.33 2.62-1.21 3.44-2.01 2.54-2.46 4.81-5.24 7.12-7.94.32-.26.65-.45 1-.5 1.21-.18 2.31 1.54 3.05 2.3l2.65 2.73c1.61 1.66 3.18 3.74 5.03 5.13 1.6 1.21 2.73-.05 3.91-1.18 1.7-1.64 3.56-3.21 5.15-4.96z" fill="#f2a6b0"/><path d="M32.56 49.01l-2.26-2.38-4.67-4.62c-.85-.81-2.07-2.53-3.46-2-.69.27-1.27.97-1.8 1.45l-2.13 1.91-.3.27-.21.19c-.03.02-.04.05-.07.07l-1.26 1.25c-.73.77-1.92 1.77-2.05 2.91-.13 1.11.93 1.83 1.62 2.52l3.66 3.61 3.47 3.42c.52.51 1.37 1.07 1.71 1.71.36.68-.22 1.11-.7 1.61L21.3 63.9c-2.13 2.08-4.42 4.1-6.2 6.43-.73.96-.93 1.78-.12 2.75.86 1.04 1.86 2 2.88 2.93 3.33-9.66 8.55-18.58 15.11-26.49a7.46 7.46 0 0 0-.41-.51z" fill="#ffb5c4"/><path d="M194.5 118.31a21.45 21.45 0 0 0-.75-2.08c-.29-.7-.62-1.39-.99-2.06-.2-.36-.43-.7-.71-.99a.81.81 0 0 0-.27-.35c-1.48-1.07-3.51-.78-5.22-.71l-6.09.23-3.45.13h-.04a3.07 3.07 0 0 0-.74.02c-.54.08-1.04.29-1.54.49l-1.57.64-6.45 2.8-6.23 2.9-6.31 2.72-1.32.59c-.28.01-.58.18-.62.47a282.15 282.15 0 0 0-1.48 11.22c-.02.14.04.26.12.37v.1c.09.31.47.59.8.46 4.32-1.71 8.56-3.64 12.78-5.59l12.67-5.78 1.49-.64c.2-.09.41-.17.61-.26.11.03.24.05.36.03l11.38-1.57 2.92-.4c.09.05.19.08.29.08.38 0 .62-.3.65-.65.07-.73-.09-1.47-.3-2.16z" fill="#f75e28"/><ellipse cx="95.12" cy="120.51" rx="59.01" ry="1" transform="matrix(.999995 -.003142 .003142 .999995 -.37 .3)" fill="#fff"/></svg>