<svg xmlns="http://www.w3.org/2000/svg" viewBox="0 0 192.73 200"><defs><style>.cls-1{fill:none}.cls-2{fill:#f6c243}.cls-3{fill:#e87003}.cls-4{fill:#fff}.cls-5{fill:#fbae5e}.cls-6{fill:#e5a355}.cls-9{fill:#c1dade}.cls-11{fill:#aa5536}.cls-12{fill:#afcbcd}.cls-13{fill:#bf7326}.cls-14{fill:#d6e8ea}.cls-15{fill:#d0aa8c}.cls-18{fill:#5b3d5b}</style></defs><path id="BG_Strong" d="M156.03 23.54c-30.22-18.47-77.7-19-110.09-4.41C9.2 52.97-10.94 117.57 23.47 159.66c112.12 105.11 217.42-34.79 132.56-136.12Z" style="fill:#575655"/><g id="Illustrations"><g id="Color"><path d="M108.46 66.06c-.02.25 0 6.18 0 6.18s5.04 4.01 7.36 4.64 5.78-.32 7.87-1.29 6.45-3.72 7.25-4.42 2.93-2.84 2.93-2.84l-3.48-.78-.23-1.48.02-.59s-3.71 1.08-5.39 1.32-9.36.05-11.61-.13c-2.24-.19-4.72-1.19-4.72-1.19v.59ZM108.33 59.87c.05-.43.03-2.88.03-2.88s-4.41-3.54-5.57-5.77-2.1-4.25-2.19-7c-.09-2.75.49-11.74 1.99-15.56s3.61-6.33 4.59-7.82 3.67-3.5 6-3.89 5.41-.94 8.09.57 5.39 3.52 6.49 5.47c1.1 1.96 2.4 5.94 2.64 8.35.24 2.4.43 10.93.36 13.31-.08 2.38-.36 14.36-.36 14.36s-3.67 1.88-5.69 2.33c-2.02.45-6.9 1.17-9.29.76-2.39-.4-6.26-1.77-6.26-1.77l-.81-.45ZM42.86 56.1c-1.19-.85-3-2.05-3.65-3.53s-.69-2.36-.48-2.62c.21-.26 1.54-.36 2.87 0s2.31 1.1 3.63 2.5c1.32 1.4 3.94 3.48 4.82 4.74s2.95 4.41 3.89 8.28c.94 3.87 2.52 10.62 2.86 12.53s1.98 11.92 1.98 11.92-15.14 3.91-14.93 3.83.64-4.97.88-7.04c.24-2.07 1.1-11.12 1.1-11.12l-1.34-.69s.45-6.61.38-8.24-.98-7.87-1.36-8.91-.65-1.65-.65-1.65ZM29.44 59.93s-.28-3.06-1.18-4.74-3.52-6.16-3.52-6.16l-1.46-1.13-.99 1.64-.07 1.99s-2-.91-2.23-.23-.49 2.27.17 4.2 1.76 5.5 2.52 6.58 2.67 3.01 4.1 4.02 3.26 2.29 3.26 2.29l-.59-8.45Z" class="cls-15"/><path d="M93.01 104.47c.07-.45 1.27-7.9 2.01-10.99s1.96-7.35 3.5-12.58c1.54-5.22 3.03-10.15 4.66-12.75 1.63-2.59 3.94-5.28 4.41-5.67s.75-.78.75-.78v-1.83s3.33 2.4 9.17 2.34c5.84-.06 11.09-2.34 11.09-2.34l1.64-.52-.06 6.12s-5.23 1.11-6.91 1.41c-1.68.31-9.28-.04-10.09-.23s-4.72-1.19-4.72-1.19-.39 7.58-.41 8.81c-.02 1.24.99 15.15 1.34 17.15s1.72 8.37 1.72 8.37-3.31 1.41-3.65 1.76 1 .95 1.93 1.08 2.37.13 2.37.13l.85 3.49-9.95-.56-9.09-.51-.56-.74Z" class="cls-2"/><path d="M153 135.01s-4.15-7.72-4.76-8.77-6.11-8.32-6.21-8.99-1.7-2.49-1.7-2.49-.72 1.19-1.96 1.54c-1.25.35-5.59-.11-6.74-.27s-2.13-.93-2.32-1.27-1.52-.6-2.26-.74-2.24-.52-2.24-.52l-1.14 1.03-4.93.12-2.91.11s.25-5.86.98-7.3c.72-1.44 2.32-2.18 3.3-2.53.99-.35 3.56-1.87 3.56-1.87l-4.17-1.17s-6.56.41-6.9.52-2.01.39-2.27.38-2.59-.32-2.88-.69 1.48-1.28 2.88-1.78 5.47-1.67 6.81-1.93 4.26-.12 5.26-.11 3.38 0 3.38 0-2.14-1.66-1.9-3.15.9-2.66 1.3-2.83 1.1 0 1.1 0 2.12 3.34 4.12 4.37c2 1.03 4.44 2.84 5.57 3.36 1.14.52 5.73 2.19 7.56 3.36 1.83 1.17 5.8 4.75 7.46 6.33s9.59 8.44 9.59 8.44-4.62 10.05-5.11 11.2-2.47 5.65-2.47 5.65Z" class="cls-15"/></g><path d="M102.47 67.64c-3.09.87-6.16 1.94-9.16 3.07s-5.79 2.53-8.07 4.78c-5.17 5.09-8.95 11.47-13.65 16.97-2.23 2.61-4.53 5.14-6.68 7.81.08-3.82-.04-7.64-.34-11.44 0-.06-.01-.11-.03-.16-.04-.38-.37-.73-.84-.61l-25.81 6.46c-.39.1-.53.43-.47.74v.16c1 6.47 1.8 13.05 4.1 19.21 1.13 3.01 2.6 5.88 4.39 8.56 1.6 2.38 3.4 4.81 6.26 5.71 3.81 1.4 7.54 1.3 11.25-.32.66-.29.31-1.13-.28-1.23l1.4-14.71 13.95-7.86 8.33.08 2.46-.38 1.32-2.74c.27-.56 2.75 0 2.75 0s.17-1.17.29-1.92c.12-.75 1.57-7.41 2.31-10.2.74-2.79 3.28-11.04 3.97-13.33.53-1.77 2.18-5.64 2.9-7.32h.01c.84-.24.49-1.55-.36-1.32ZM144.79 100.56c1.76 2.83 3.43 5.72 4.99 8.66.41.78 1.59.09 1.18-.69-1.56-2.94-3.23-5.83-4.99-8.66-.46-.74-1.64-.06-1.18.69Z" class="cls-9"/><path d="M182.66 137.42c-.6-6.67-2.64-12.95-4.79-19.25-2.65-7.74-5.53-15.41-9.06-22.79-3.24-6.77-6.82-13.88-12.86-18.59-5.92-4.61-13.67-7.11-21.11-8.93-.04-.53-.7-.97-1.13-.46-3.03 3.58-6.93 6.37-11.35 7.97-2.35.85-4.85 1.67-7.22.48-2.37-1.2-4.45-2.95-6.34-4.76-.63-.61-1.6.36-.96.96.13.13.26.25.4.38-.09.96-.21 2.54-.23 3.81-.02 1.96.44 9.21.99 11.68.55 2.48 1.37 8.73 1.68 9.97.32 1.24 6.72 1.13 6.72 1.13l2.67-1.13 6.04.75s-1.74-2.23-2.26-3.51c-.52-1.28 1.3-2.83 2.07-3.08s.93 1.64 1.64 2.64c.72 1 5.77 4.19 7.18 5.11s8.68 4.05 11.27 5.26c2.6 1.21 7.97 7.92 9.88 9.15 1.4.9 3.25 2.6 4.14 3.44-2.49 5.53-4.97 11.06-7.46 16.58-.88-1.68-2.96-5.66-3.69-6.82-.93-1.49-6.89-10.57-6.89-10.57l.72 7.82 1.58 22.02.56 11.78c-.25.42-.08 1.09.54 1.02 3.87-.38 7.57-1.53 10.97-3.42a.6.6 0 0 0 .19-.16c.12-.11.19-.27.16-.5-.26-2.04-.55-4.07-.85-6.1 1.83 1.44 3.79 2.72 5.93 3.76 2.63 1.27 5.41 2.19 8.34 2.34 2.94.15 5.81-.52 8.54-1.57.15 0 .3-.07.44-.23 3.69-4.43 4.02-10.7 3.53-16.2Z" class="cls-9"/><path d="M107.56 61.61c-5.69 4.73-7.57 12.12-9.63 18.89-2.42 7.96-4.83 15.94-5.6 24.27-.08.87 1.28.87 1.36 0 .75-8.06 3.09-15.79 5.43-23.5 2.03-6.68 3.79-14.03 9.41-18.7.68-.56-.29-1.52-.96-.96ZM107.78 68.33c-1.19 10.71.3 21.44 2.67 31.89.19.85 1.51.49 1.32-.36-2.35-10.34-3.8-20.92-2.62-31.52.1-.87-1.27-.86-1.36 0Z" class="cls-2"/><path d="M107.45 65.63c7.26 2.94 15.61 2.91 22.92.18.79-.3.45-1.61-.35-1.32-8.03 3-16 2.34-22.22-.18-.79-.32-1.13 1-.35 1.32ZM107.7 59.68c6.43 5.44 15.71 3.37 22.24-.68.67-.42.07-1.6-.6-1.18-6.18 3.83-14.95 5.84-21.04.68-.62-.52-1.21.66-.6 1.18ZM100.46 36.77v-.01ZM130.23 52.64ZM137.87 26.07c-.31-1.56-.77-3.11-1.41-4.63-1.78-4.22-4.83-7.96-8.89-10.15-4.6-2.47-10.32-2.84-15.18-.94-4.88 1.91-8.64 6.01-10.5 10.87-2.34 5.43-2.45 11.65-1.97 17.47.07.87 1.44.88 1.36 0-.09-1.08-.16-2.18-.2-3.28.14-.39.56-4.09 1.5-6.76s2.82-6.29 4.59-8.42 5.11-3 8.49-3.65c3.38-.66 7.75 2.34 9.67 3.54 1.92 1.2 4.48 6.8 5.17 10.03s.59 8.54.57 11.41c0 1.41-.22 4.15-.43 6.55-.23.86-.46 1.73-.69 2.58-.1.38.1.66.38.78 0 .04 0 .08-.01.12-.03.1-.04.21-.03.32 0 .04 0 .08-.01.12-.37.34-.21 1.16.46 1.22 6.55.59 12.93-4.49 14.14-10.91 1.14-6.04-1.9-12.92-7.02-16.29Z" class="cls-2"/><path d="M90.01 93.13a79.773 79.773 0 0 0-3.84 11.15c-.22.85 1.09 1.21 1.32.36.97-3.69 2.2-7.31 3.7-10.82.34-.8-.83-1.49-1.18-.69ZM111.1 102.97c.26 1.05.52 2.1.79 3.15.22.85 5.11 2.2 4.89 1.34-.27-1.05 7.13-3.34 6.87-4.39-.21-.85-12.76-.95-12.55-.1Z" class="cls-9"/><path d="M143.85 129.86c-.32-4.21-.7-8.41-1.15-12.6-.06-.58-.69-.77-1.08-.58l-1.31-1.92s-1.08.87-1.96 1.54-3.18.26-5.69-.07c-2.04-.26-3.11-1.28-3.45-1.66.55-.48-.09-1.49-.82-1.09l-1.69.93c-.58.32-.33 1.07.16 1.24.02 5.45.19 44.86.18 45.53-.01.65-.17 19.05-.19 22.96-.05.03-.1.06-.16.09-.77.43-.08 1.6.69 1.18 6.25-3.45 12.51-6.9 18.76-10.36a.55.55 0 0 0 .36-.56v-.04c-1.04-14.86-1.54-29.74-2.67-44.59Z" class="cls-6"/><path d="M77.84 104.95c.36 2.56.69 5.12.98 7.68.1.86 1.46.87 1.36 0-.31-2.69-.65-5.37-1.03-8.05-.12-.87-1.44-.5-1.32.36Z" class="cls-11"/><path d="M130.21 68.2c1.08.24 2.16.48 3.24.74.85.2 1.22-1.11.36-1.32-1.08-.25-2.16-.5-3.24-.74-.85-.19-1.22 1.13-.36 1.32ZM106.2 35.36c.88 0 .88-1.36 0-1.36s-.88 1.36 0 1.36ZM120.61 35.2c.88 0 .88-1.36 0-1.36s-.88 1.36 0 1.36ZM111.87 36.71c-.33 2.13-1.33 4.44-.93 6.63.13.73.53 1.42 1.2 1.78.77.41 1.46.06 2.24-.1.86-.18.5-1.49-.36-1.32-.68.14-1.21.42-1.65-.34-.31-.53-.1-1.62-.02-2.19.2-1.38.63-2.72.84-4.1.13-.86-1.18-1.23-1.32-.36ZM47.27 61.83c-.78-.29-1.56-.55-2.35-.78-.84-.25-1.2 1.06-.36 1.32.79.24 1.58.5 2.35.78.83.3 1.18-1.01.36-1.32ZM28.53 54.73c-.73-1.51-1.57-2.95-2.55-4.32-.5-.71-1.69-.03-1.18.69.98 1.37 1.82 2.8 2.55 4.32.38.79 1.56.1 1.18-.69ZM44.87 68.06c1.38-.11 2.93-.08 3.87 1.08.55.68 1.51-.29.96-.96-1.16-1.43-3.11-1.61-4.83-1.48-.87.07-.88 1.43 0 1.36ZM44.31 75.56c.72.2 1.44.39 2.17.55.85.2 1.22-1.12.36-1.32-.73-.17-1.45-.35-2.17-.55-.85-.24-1.21 1.08-.36 1.32Z" class="cls-18"/><path d="M46.24 75.43c.07-.88-1.3-.87-1.36 0-.35 4.73-.62 9.46-1.1 14.18v.02c-.17 1.63-.32 3.26-.46 4.9-.08.88 1.29.87 1.36 0 .15-1.76.32-3.53.5-5.29v-.03c.45-4.58.72-9.18 1.06-13.78Z" class="cls-18"/><path d="M43.77 56.78c-.15-.44-.59-.54-.93-.42-.6-.44-1.77-1.32-2.35-1.94-.8-.85-1.6-2.35-1.87-3.19-.18-.56-.05-1.12.06-1.44.15.03.3 0 .44-.08.3-.18.46-.63.25-.93-.45-.64-.91-1.28-1.37-1.92a.856.856 0 0 0-.19-.19.587.587 0 0 0-.38-.25c-4.78-1.18-9.7-1.52-14.6-.96-.18.02-.33.1-.43.21 0 0-.02 0-.02.01-.29.18-.47.62-.25.93.23.31.45.63.67.94.21.29.6.46.93.25l.02-.01c.35.53.79 1.2 1.34 2.05-.24.19-.36.51-.15.84 1.58 2.49 2.82 5.07 3.53 7.94.1.4.43.53.74.47.18.84.32 1.63.47 2.38-.27.06-.49.27-.45.63.69 6.17.63 12.72-1.98 18.48-.08.18-.08.35-.03.5.02.48.49.93.99.58l2.78-2c.57.83 1.09 1.68 1.56 2.57.23.42.68.41.98.18.04-.02.09-.05.13-.09l2.36-1.99c.42.76.71 1.59 1.04 2.39.2.49.77.55 1.11.33.09-.03.18-.09.26-.18.59-.65 1.21-1.27 1.86-1.86l1.21 2.52c.13.27.35.37.58.34.31.05.66-.08.79-.46 2.81-8.44 3.85-18.05.9-26.63Z" class="cls-4"/><path d="m31.2 50.43 2.56.2c.88.07.87-1.3 0-1.36l-2.56-.2c-.88-.07-.87 1.3 0 1.36Z" style="fill:#ff8000"/><path d="M131.78 35.77c0-.26-.03-.52-.05-.78-.19-5.07-1.22-9.99-4.61-13.98-2.56-3.01-6.22-4.94-10.12-5.14-.07-.02-.14-.04-.23-.04-.32 0-.64.02-.96.04-.38.02-.75.05-1.13.09-.05 0-.1.02-.14.03-3.29.47-6.42 2-8.57 4.6-2.9 3.51-4.34 8.12-5.23 12.5-.93 4.6-1.45 9.75-.3 14.35 1.04 4.14 3.93 7.04 7.25 9.49v.05c.03 3.78.07 7.56.1 11.34 0 .88 1.37.88 1.36 0-.02-3.47-.06-6.94-.09-10.42 1.49.99 3 1.74 4.9 1.77 2.38.03 4.68-1.14 6.84-2.03.8-.33.45-1.65-.36-1.32-1.7.7-3.56 1.67-5.39 1.92-1.98.27-3.66-.37-5.26-1.48-3.18-2.21-6.4-4.74-7.7-8.54-1.41-4.15-1.02-9.03-.31-13.28.16-.94.34-1.89.55-2.84.04-.05.08-.12.11-.19.88-2.41 1.79-4.96 3.36-7.03 1.19-1.57 2.87-2.74 4.61-3.63 5.61-2.89 13.08.1 16.64 4.89 1.93 2.6 3.09 5.73 3.34 8.95.15 3.82-.21 7.65-.37 11.46-.12 2.81-.19 5.63-.25 8.45-.1 4.6-.22 9.19-.36 13.79-.03.88 1.34.88 1.36 0 .23-7.41.31-14.83.62-22.24.14-3.4.44-7.02.38-10.6.02-.06.02-.13.02-.2ZM30.38 67.79c-2.18-1.54-3.26-4.61-3.22-7.2 0-.02.02-.03.02-.05.08-.26.26-.65.51-.93a.71.71 0 0 0 .46-.3c.14-.03.28-.01.44.08.47.28.31 1.53.42 2.01.19.86 1.5.49 1.32-.36-.14-.64-.03-1.31-.29-1.93-.25-.62-.75-1-1.38-1.11-.3-.05-.57-.04-.82.02l-2.36-3.01c-.1-.13-.22-.2-.34-.23-.22-.94-.63-1.8-1.39-2.38-.23-.17-.45-.29-.66-.36-.06-.09-.12-.19-.19-.29.02-.07.04-.14.03-.23-.02-.52-.01-1.04.03-1.56.03-.32.03-1.15.39-1.33.58-.27 1.34 1.69 1.49 2.07.33.8 1.64.45 1.32-.36-.47-1.15-1.36-3.44-2.99-3.09-1.35.29-1.6 1.83-1.62 3.15-.72-.44-1.5-.47-2.12.55-1.26 2.07.21 5.2.92 7.09.05.12.11.21.19.28.27 1.46.8 2.86 1.6 4.14 1.8 2.86 4.87 4.61 7.58 6.5.13.1.27.13.39.12.54-.03.88-.89.3-1.3Zm-3.72-9.06c-.09.1-.18.22-.26.33-.25-.5-.58-.96-.98-1.36 0-.19-.01-.39-.02-.59l1.26 1.62Zm-6.26-6.36.68-.69c.16.15.31.32.44.5.02.03.04.06.07.09-.41.31-.75.8-.97 1.35-.05.07-.09.16-.11.27v.08c-.1-.48-.25-1.23-.1-1.59Zm3.08 9.69c-1.54-2.27-2.13-5.1-1.66-7.79.11-.38.25-.84.59-.9.09.03.19.04.29.03.09.03.18.08.29.15.41.28.6.92.73 1.36.27.9.29 1.84.33 2.77-.12.23-.12.51.14.74.68.6 1.12 1.33 1.31 2.21.04.2.15.34.28.41.04 1.43.38 2.91.99 4.26-1.26-.93-2.43-1.97-3.3-3.25ZM59.54 90.35c-.28-1.57-.55-3.13-.81-4.7v-.02c-.9-5.63-1.93-11.21-3.25-16.74-.33-1.5-.69-3-1.14-4.47-.02-.07-.04-.14-.05-.2a.578.578 0 0 0-.05-.14c-.36-1.14-.78-2.26-1.27-3.35-1.34-2.93-3.23-5.16-5.7-7.18-1.18-.96-1.87-2.36-3.07-3.27-1.06-.81-2.49-1.2-3.79-1.37-.86-.11-1.96-.05-2.47.78-.61 1 .3 2.47.77 3.37.37.71.83 1.41 1.44 1.95.6.54 1.37.81 1.97 1.33 1.48 1.26 1.98 3.85 2.36 5.67.18.86 1.49.5 1.32-.36-.35-1.68-.84-3.42-1.67-4.94-.32-.58-.71-1.1-1.23-1.51-.7-.55-1.53-.83-2.14-1.52-.5-.57-.85-1.26-1.16-1.95-.21-.47-.63-1.17-.05-1.49.27-.15.84.03 1.11.09.73.14 1.49.32 2.15.66.86.45 1.37 1.17 1.95 1.91.98 1.28 2.34 2.11 3.49 3.23 1.22 1.19 2.19 2.6 2.99 4.1.73 1.38 1.3 2.82 1.76 4.31v.04c.45 1.65.87 3.31 1.27 4.97.12.54.23 1.09.35 1.63.02.08.05.14.08.2 1.15 5.08 2.06 10.19 2.87 15.35 0 .04.02.07.03.1.22 1.29.44 2.58.67 3.88.15.86 1.47.5 1.32-.36Z" class="cls-18"/><path d="M112.66 103.68c.08.98.12 1.95.12 2.92 0 .92.78 1.71 1.71 1.71s1.7-.78 1.71-1.71c0-.98-.04-1.95-.12-2.92-.07-.92-.73-1.71-1.71-1.71-.87 0-1.78.78-1.71 1.71Z" class="cls-13"/><path d="M117.18 105.85c-8.32-.45-16.64-.96-24.96-1.32.44-4.85 1.61-10.41 6.37-12.34 2.49-1.01 5.58-.93 8.04.12 2.68 1.14 4.33 3.52 5.22 6.21.68 2.08 3.98 1.19 3.29-.91-1.13-3.43-3.21-6.53-6.55-8.14-3.22-1.55-7.17-1.84-10.57-.69-6.69 2.27-8.52 9.21-9.17 15.61-3.45-.13-6.9-.24-10.35-.3-.88-.02-.88 1.35 0 1.36h.09c.24 1.92.92 7.25.92 7.54s29.36 1.44 29.68 1.43 6.63.34 6.63.34.27-4.03.41-4.8c.09-.53.51-1.92.76-2.76.07 0 .14 0 .2.01.88.05.88-1.32 0-1.36Z" class="cls-13"/><path d="m79.5 112.53-.91-7.13.06-.04c.77-.43.08-1.6-.69-1.18l-13.74 7.59c-.77.43-.08 1.6.69 1.18l1.97-1.08 12.63.67Z" class="cls-11"/><path d="m65.65 182.62.01-.01h-.01v.01zM127.87 130.37c-.03-5.12-.1-10.25-.24-15.37-.01-.45-.38-.67-.74-.66h-.04c-5.58-.1-11.15-.31-16.73-.57.03-6.95-.88-15.06-8.05-18.25-3.14-1.4-6.78-1.65-10.1-.76-3.31.89-5.93 3.26-7.56 6.24-1.89 3.46-2.36 7.4-2.63 11.28-.97-.05-1.93-.09-2.9-.13-4.78-.21-9.56-.36-14.35-.44-.47 0-.68.37-.65.74-.02.06-.04.13-.05.2l-2.62 34.92c-.04.47.34.68.7.65 0 .01-.01.02-.02.03-.33.43 2.81.66 3.72.93.92.28 3.48 1.79 3.48 1.79l.9 2.61.04 2.61-2.17 1.08s-.45 13.59-.47 13.83l-1.32 12.2c15.81.43 31.6 1.34 47.41 1.89 4.45.15 8.9.28 13.34.35.23 0 .4-.09.51-.23.1-.11.17-.26.17-.45-.06-18.16.42-36.33.33-54.49Zm-21.14-16.77c-7.18-.37-14.35-.8-21.53-1.16.24-3.61.65-7.33 2.6-10.45 1.93-3.09 5.07-4.44 8.65-4.33 3.54.11 6.72 1.81 8.44 4.96 1.83 3.33 1.89 7.25 1.84 10.99Z" class="cls-5"/><path d="M122.98 109.54c2.07-.46 4.21-.55 6.31-.28.37.05.68-.35.68-.68 0-.41-.32-.64-.68-.68-2.23-.28-4.5-.16-6.7.33-.12.03-.21.09-.29.17-.11.03-.2.08-.28.17a16.187 16.187 0 0 0-3.39 5.68c-.12.35.14.75.48.84.38.1.72-.13.84-.48.66-1.89 1.68-3.59 3.03-5.07ZM153.99 135.44c-3.85-7.38-7.78-14.79-13.19-21.16-.16-.19-.35-.25-.53-.22-.05-.01-.09-.02-.14-.01-.18 0-.36.07-.48.2-.44.49-.92.95-1.41 1.38-.02 0-.04 0-.06.01-1.71.48-3.5.23-5.22-.05-.67-.11-1.34-.23-1.98-.47-.32-.12-.63-.29-.88-.52.03 0 .06 0 .08-.01.36-.08.57-.5.48-.84-.1-.37-.48-.55-.84-.48-1.49.32-3.03.16-4.46-.4a.47.47 0 0 0-.35 0c-.07-.02-.14-.04-.21-.04-.17 0-.37.06-.48.2l-.98 1.23c-.07.06-.11.13-.14.22-.04.08-.06.17-.06.26 0 .17.08.37.2.48s.3.21.48.2c.17 0 .37-.06.48-.2l.8-1c1.09.42 2.26.6 3.42.56.79 1.43 2.48 1.86 3.97 2.11 1.92.31 3.9.6 5.82.13.05 0 .09.02.14.01.18 0 .34-.08.48-.2.44-.37.86-.76 1.26-1.17 5.15 6.18 8.92 13.36 12.63 20.46.41.78 1.58.09 1.18-.69Z" class="cls-18"/><path d="M161.56 118.09c-3.48-2.9-6.97-5.81-10.21-8.98-1.22-1.19-2.41-2.4-3.68-3.5a.61.61 0 0 0-.12-.16c-1.55-1.4-3.29-2.5-5.17-3.4-1.69-.81-3.41-1.58-5.18-2.21-1.47-.68-2.97-1.32-4.38-2.14-.76-.44-1.29-.87-1.97-1.39-.77-.6-1.55-1.19-2.24-1.89-.79-.79-1.38-1.75-1.9-2.74-.14-.26-.46-.37-.73-.32h-.04c-1.58.16-2.62 1.55-2.64 3.09-.02 1.22.52 2.28 1.2 3.25-1.41-.13-2.82-.27-4.23-.48-.06 0-.13-.01-.19 0h-.17c-3.54.48-7.08 1.34-10.39 2.67-.92.37-1.83.77-2.7 1.23-.22.11-.33.36-.33.6-.09.27-.03.59.29.77 1.81 1.03 4.04 1.26 6 .56 0 0 .01 0 .02-.01 2.26.23 4.54.06 6.74-.48.01 0 .02 0 .03.01.77.31 1.55.57 2.35.79-1.54.79-3.06 1.62-4.56 2.48h-.01c-.37-.09-.69.14-.82.48-.93 2.5-1.46 5.09-1.4 7.77.01.54.54.75.94.62.25.45 1.07.51 1.28-.13.6-1.89 1.38-3.68 2.36-5.4.02 0 .04-.01.05-.02 2.79-1.47 5.72-2.63 8.76-3.46.85-.23.49-1.55-.36-1.32-3.15.86-6.2 2.07-9.09 3.59-.01 0-.02.02-.03.02-.16.03-.31.13-.42.32-.83 1.44-1.54 2.94-2.11 4.5.03-.82.12-1.64.27-2.45.21-1.09.53-2.19.92-3.26.11 0 .23-.02.35-.09 3.06-1.75 6.19-3.36 9.39-4.83.33-.15.42-.64.25-.93-.2-.34-.6-.4-.93-.25-.97.45-1.94.91-2.9 1.38h-.01c-1.34-.24-2.64-.62-3.9-1.13-.08-.03-.16-.04-.24-.03a.638.638 0 0 0-.39-.01c-2.19.55-4.46.69-6.7.44a.57.57 0 0 0-.43.15c-1.19.37-2.47.36-3.64-.03 2.81-1.32 5.85-2.17 8.88-2.77.89-.18 1.78-.33 2.68-.45 4.12.59 8.3.64 12.38 1.46h.02c1.45.22 2.87.61 4.25 1.09h.02c.06.03.11.04.17.06.51.18 1.03.38 1.53.59.96.39 1.91.83 2.85 1.27.08.04.16.08.24.11.07.09.16.16.28.21 3.71 1.52 6.33 4.59 9.16 7.3 3.07 2.94 6.33 5.66 9.6 8.38.67.56 1.64-.4.96-.96Zm-35.25-20.22s-.03-.05-.05-.08c-.7-.87-1.5-1.88-1.58-3.04-.04-.53.05-1.02.35-1.42.09-.13.26-.29.38-.37a.95.95 0 0 1 .17-.1c.01 0 .08-.04.1-.05l.1-.03c.45.8.95 1.58 1.56 2.27.66.74 1.45 1.36 2.23 1.97.64.5 1.26 1.01 1.93 1.46-1.72-.28-3.44-.45-5.17-.6Z" class="cls-18"/><path d="M111.96 50.18c.29-1.66 2.54-2.17 3.21-.45.31.81 1.63.46 1.32-.36-1.1-2.84-5.28-2.7-5.84.45-.15.86 1.16 1.23 1.32.36Z" style="fill:#877166"/><g id="Layer_10"><path d="M154.94 79.26c1.05 1.12 2.83 1.19 4.11.45a33.78 33.78 0 0 0-4.67-3.91c-.45 1.15-.32 2.52.57 3.46Z" class="cls-1"/><path d="M181.72 132.05a7.207 7.207 0 0 1-3.36-1.94c-2.75-2.84-2.74-7.59-.2-10.52-.03-.08-.05-.15-.08-.23-2.02-5.87-5.82-15.53-8.01-21.02-2.03-5.09-6.21-12.31-8.17-15.21-3 2.12-7.45 1.98-10.09-.74-2.27-2.34-2.66-6-1.29-8.85-3.11-1.6-6.84-3.17-8.9-3.78-.45-.13-.94-.28-1.45-.43-2.43 2.35-6.34 2.85-9.27 1.26-.64.55-1.32 1.08-1.98 1.48-2.39 1.46-6.99 4.59-11.04 4.57-4.05-.03-8.86-5.36-8.86-5.36v5.95c1.14.67 1.76 2.26.52 3.43-.16.15-.31.32-.43.5.08 1.35.21 2.98.34 4.47 1.28 1.12 3.39.92 4.57-.25 2.02-2.02 5.16 1.12 3.14 3.14-1.69 1.69-4.14 2.45-6.48 2.21 1.57 1.23 4.89 3.87 5.14 4.19.33.43 3.94 2.33 3.94 2.33l3.03-.95s-.36-1.59 0-2.55 1.88-2.78 2.52-3.15 2.54 1.66 3.44 3.15c.9 1.49 4.51 4.15 4.51 4.15.71.38 6.94 2.68 9.62 3.68 2.68 1 4.63 3.59 8.31 6.85 3.68 3.26 7.37 6.35 9.4 7.93.73.57 5.55 4.46 5.81 5.08.27.62-.59 1.35-1.33 1.35s-5.28-4.22-5.28-4.22-.37.85-1.85 4.16c-1.47 3.31-4.56 8.57-4.56 8.57s1.39 3.44 2.14 4.4c.21.27.46.65.7 1.08-1.17-2.91-.52-6.49 1.81-8.69 2.08-1.96 5.22 1.17 3.14 3.14-1.29 1.22-1.56 3.43-.3 4.77 1.25 1.33 3.54 1.18 4.77-.05 2.02-2.02 5.16 1.12 3.14 3.14-2.93 2.91-8.11 3.08-11.05.05a7.02 7.02 0 0 1-1.11-1.5c.33.83.43 1.6-.15 1.78-1.07.34-2.88-.6-3.65-2.58s-2.97-4.32-3.6-6.76c-.63-2.44-6.1-10.26-6.1-10.26s.23 2.6.48 5.53c2.01-1.4 4.71 1.51 2.8 3.41-.69.68-1.5 1.21-2.37 1.59.06.78.12 1.47.16 2.01.27 3.36.75 12.81.87 16.33.04 1.07.1 2.49.18 3.94 1.15.28 2.46-.06 3.29-.9 2.02-2.02 5.16 1.12 3.14 3.14-1.62 1.62-3.94 2.39-6.18 2.24.08 1.37.13 2.31.13 2.31 5.34-.43 11.17-3.57 11.17-3.57l-1.05-6.75c2.69 2.43 6.71 4.56 10.92 5.69.68.18 1.44.34 2.26.45.05-2.04.86-4.06 2.38-5.5 2.08-1.96 5.22 1.17 3.14 3.14-.67.63-1.06 1.54-1.11 2.44 3.22-.35 6.36-1.72 7.78-5.08 2.49-5.87 1.57-12.6 1.14-15.5-.1-.7-.28-1.61-.52-2.66Zm-40.38-40.59c-2.93 2.91-8.11 3.08-11.05.05-2.91-3.01-2.72-8.19.3-11.04 2.08-1.96 5.22 1.17 3.14 3.14-1.29 1.22-1.56 3.43-.3 4.77 1.25 1.33 3.54 1.18 4.77-.05 2.02-2.02 5.16 1.12 3.14 3.14Zm27.95 16.12c-2.93 2.91-8.11 3.08-11.05.05-2.91-3.01-2.72-8.19.3-11.04 2.08-1.96 5.22 1.17 3.14 3.14-1.29 1.22-1.56 3.43-.3 4.77 1.25 1.33 3.54 1.18 4.77-.05 2.02-2.02 5.16 1.12 3.14 3.14Z" class="cls-1"/><path d="M138.21 88.33c-1.24 1.23-3.52 1.39-4.77.05-1.26-1.34-.99-3.55.3-4.77 2.08-1.96-1.06-5.09-3.14-3.14-3.03 2.85-3.22 8.03-.3 11.04 2.94 3.03 8.12 2.86 11.05-.05 2.02-2.02-1.11-5.15-3.14-3.14ZM166.16 104.45c-1.24 1.23-3.52 1.39-4.77.05-1.26-1.34-.99-3.55.3-4.77 2.08-1.96-1.06-5.09-3.14-3.14-3.03 2.85-3.22 8.03-.3 11.04 2.94 3.03 8.12 2.86 11.05-.05 2.02-2.02-1.11-5.15-3.14-3.14ZM151.81 82.4c2.64 2.72 7.09 2.86 10.09.74-.15-.23-.3-.43-.42-.6-.67-.92-1.49-1.88-2.43-2.83-1.28.74-3.05.67-4.11-.45-.88-.94-1.01-2.31-.57-3.46l-.37-.25c-.93-.63-2.15-1.32-3.49-2-1.37 2.85-.98 6.51 1.29 8.85ZM168.76 139.06c2.02-2.02-1.11-5.15-3.14-3.14-1.24 1.23-3.52 1.39-4.77.05-1.26-1.34-.99-3.55.3-4.77 2.08-1.96-1.06-5.09-3.14-3.14-2.34 2.2-2.98 5.79-1.81 8.69.15.28.29.56.4.85.3.54.67 1.04 1.11 1.5 2.94 3.03 8.12 2.86 11.05-.05ZM178.36 130.11c.94.97 2.11 1.61 3.36 1.94-.74-3.3-2.05-8.06-3.56-12.46-2.54 2.93-2.55 7.68.2 10.52ZM151.66 154.84c2.02-2.02-1.11-5.15-3.14-3.14-.83.83-2.14 1.17-3.29.9.08 1.59.17 3.21.24 4.48 2.24.15 4.56-.62 6.18-2.24ZM171.3 149.71c-1.52 1.43-2.33 3.46-2.38 5.5 1.37.19 2.9.25 4.4.08.05-.91.44-1.81 1.11-2.44 2.08-1.96-1.06-5.09-3.14-3.14ZM140.18 69.34c-2.81-.83-6.17-1.82-6.17-1.82s-1.41 1.63-3.1 3.08c2.93 1.59 6.84 1.09 9.27-1.26ZM117.14 88.52c2.02-2.02-1.11-5.15-3.14-3.14-1.17 1.17-3.28 1.37-4.57.25.21 2.4.41 4.46.41 4.46s.32.25.81.64c2.33.24 4.78-.52 6.48-2.21ZM109.02 77.24v1.78c0 .53.03 1.29.08 2.15.13-.18.27-.35.43-.5 1.24-1.17.62-2.76-.52-3.43ZM143.6 125.33c.15 1.7.3 3.51.43 5 .88-.38 1.69-.9 2.37-1.59 1.91-1.91-.79-4.81-2.8-3.41Z" class="cls-14"/><path d="M90 94.88c.38-.35.78-.54 1.19-.6 1.73-5.05 3.93-5.2 5.65-10.44 2.11-6.41 5.8-15.94 5.8-15.94-3.5.48-11.56 3.43-15.8 6.36.09.6.34 1.16.78 1.63 1.25 1.33 3.54 1.18 4.77-.05 2.02-2.02 5.16 1.12 3.14 3.14-2.93 2.91-8.11 3.08-11.05.05-.44-.46-.82-.97-1.12-1.51-3.13 3.51-6.68 8.49-8.78 11.3-.48.65-1.13 1.48-1.85 2.38.12.48.35.94.71 1.32 1.25 1.33 3.54 1.18 4.77-.05 2.02-2.02 5.16 1.12 3.14 3.14-2.93 2.91-8.11 3.08-11.05.05-.22-.23-.42-.46-.6-.71-2.4 2.94-4.63 5.61-4.63 5.61v-3.44c-.13-2.99-.55-9.07-.55-9.07s-2.61.7-9.41 2.38c-4.36 1.08-10.3 2.71-14.02 3.75-.23 1.02-.02 2.13.73 2.92 1.25 1.33 3.54 1.18 4.77-.05 2.02-2.02 5.16 1.12 3.14 3.14-2.93 2.91-8.11 3.08-11.05.05a6.4 6.4 0 0 1-.67-.81c.53 3.27 1.47 7.65 2.4 11.12 2.07-1.73 5.05 1.31 3.01 3.24a3.69 3.69 0 0 0-1.11 2.41c.38.84.81 1.79 1.32 2.79 1.29.85 3.18.6 4.27-.48 2.02-2.02 5.16 1.12 3.14 3.14-1.23 1.23-2.86 1.96-4.55 2.18 1.43 2.03 3.11 3.83 5.01 4.83 4.62 2.43 11.07.3 11.07.3l.7-10.66c-1.48-.27-2.87-.95-3.96-2.07-2.91-3.01-2.72-8.19.3-11.04 2.08-1.96 5.22 1.17 3.14 3.14-1.29 1.22-1.56 3.43-.3 4.77.32.34.7.58 1.12.73l.13-1.92c1.77-.95 13.15-7.42 14.35-7.85 1.65-.59 10.39.18 10.39.18 0-.01 0-.03.01-.04-1.53-3-.96-6.94 1.54-9.3Z" class="cls-1"/><path d="M95.53 78.97c2.02-2.02-1.11-5.15-3.14-3.14-1.24 1.23-3.52 1.39-4.77.05-.44-.46-.68-1.03-.78-1.63-.57.39-1.07.79-1.48 1.17-.63.59-1.3 1.3-2 2.08.3.54.67 1.05 1.12 1.51 2.94 3.03 8.12 2.86 11.05-.05ZM81.37 95.6c2.02-2.02-1.11-5.15-3.14-3.14-1.24 1.23-3.52 1.39-4.77.05-.36-.38-.59-.84-.71-1.32-.93 1.17-1.99 2.48-3.02 3.75.18.25.38.48.6.71 2.94 3.03 8.12 2.86 11.05-.05ZM62.77 108.3c2.08-1.96-1.06-5.09-3.14-3.14-3.03 2.85-3.22 8.03-.3 11.04a7.235 7.235 0 0 0 3.96 2.07l.3-4.47c-.42-.15-.8-.4-1.12-.73-1.26-1.34-.99-3.55.3-4.77ZM49.76 100.16c2.02-2.02-1.11-5.15-3.14-3.14-1.24 1.23-3.52 1.39-4.77.05-.75-.8-.95-1.9-.73-2.92-2.08.58-3.46.98-3.46.98-.1.71.07 2.29.39 4.28.2.28.42.55.67.81 2.94 3.03 8.12 2.86 11.05-.05ZM47.93 118.48c-1.08 1.08-2.97 1.33-4.27.48.8 1.58 1.75 3.28 2.85 4.84 1.69-.22 3.32-.96 4.55-2.18 2.02-2.02-1.11-5.15-3.14-3.14ZM40.44 110.53c.54 2.04 1.08 3.76 1.51 4.77.12.28.25.57.39.88.06-.9.45-1.78 1.11-2.41 2.04-1.92-.94-4.97-3.01-3.24Z" class="cls-14"/></g><path d="M127.48 184.86c-.07.24-.2.46-.37.64.4-.13.5-.5.57-1.49-.07.32-.13.6-.2.85ZM88.23 159.51c-.05-.66-.51-1.21-1.13-1.41l-4.67-1.05c-.69-.2-1.19-.85-1.17-1.6 0-.25.07-.48.18-.68.37-.89 9.84-16.97 26.44-26.53.68-.43 1.49-.66 2.36-.64.87.03 1.66.31 2.31.78 3.46 2.28 6.57 4.85 9.31 7.48s.02.02.04.02c.03 0 .06-.03.06-.06l.05-1.64a1.01 1.01 0 0 1 1.16-.96l4.7.71s.05.01.08.02c0-5.42-.02-10.01-.05-10.18-1.2-8.16-16.09-5.53-27.37-4.53-11.28 1-24.74 21.82-26.26 27.74-1.52 5.92-2.4 27.3-1.12 30.47 1.28 3.17 8.97 6.52 13.13 6.54.59 0 1.8.04 3.42.09-.07-.12-.12-.25-.15-.39-.97-4.83-1.29-23.37-1.31-24.2Z" class="cls-1"/><path d="M104.14 174.89c.03-.31.2-.56.44-.72a5.04 5.04 0 0 0 2.32-4.11v-.22c-.04-6.34.07-13.57.58-19.26v-.07c0-.52-.41-.95-.93-.96-.5 0-.91.37-.95.86-.35 3.9-.52 8.53-.58 13.1-.01.61-.52 1.1-1.13 1.1-.62 0-1.11-.51-1.1-1.13.05-4.54.22-9.14.57-13.03v-.07c0-.52-.41-.95-.93-.96-.5 0-.91.37-.95.86-.36 3.92-.52 8.57-.58 13.17 0 .62-.51 1.11-1.13 1.1-.62 0-1.11-.52-1.1-1.13.05-4.57.22-9.19.57-13.1s0-.05 0-.07c0-.52-.41-.95-.93-.96-.5 0-.91.37-.95.86-.53 5.86-.64 13.36-.59 19.86.04 1.74.96 3.28 2.34 4.16.27.18.45.48.45.81v.32c.07 3.86.2 7.53.26 9.17 1.55.06 3.14.13 4.76.19-.05-.67-.16-2.08-.29-4.08-.29-4.73-.14-5.7-.14-5.7ZM121.9 149.59c-.02-.32-.07-.45-.07-.45a.985.985 0 0 0-.91-.66c-.22 0-.42.06-.59.17 0 0-.12.07-.31.25 0 0-6.4 6.16-8.29 24.95 0 0-.03.26.03.5.1.39.39.72.9.82l3.22.55c.28.05.5.27.49.56 0 0-.24 3.17-1.03 8.8v.04c1.75.07 3.37.14 4.8.2.03-.34.51-5.43.98-11.87.57-7.85 1.14-17.91.78-23.85Z" class="cls-1"/><path d="M127.48 184.86c.07-.25.13-.54.2-.85.1-1.65.14-28.45.22-32.9.04-2.46.06-10.44.05-17.15-.03 0-.05-.01-.08-.02l-4.7-.71s-.08 0-.13-.01c-.55-.02-1.01.42-1.03.97l-.05 1.64s-.03.06-.06.06c-.02 0-.03 0-.04-.02-2.75-2.63-5.86-5.2-9.31-7.48a4.21 4.21 0 0 0-2.31-.78 4.15 4.15 0 0 0-2.36.64c-16.6 9.56-26.06 25.64-26.44 26.53-.1.21-.17.44-.18.68-.02.75.48 1.41 1.17 1.6l4.67 1.05c.62.19 1.08.75 1.13 1.41.01.83.34 19.36 1.31 24.2.03.14.09.27.15.39 2.56.09 6.17.22 10.13.38-.06-1.64-.18-5.31-.26-9.17V175c0-.34-.18-.64-.45-.81a5.088 5.088 0 0 1-2.34-4.16c-.05-6.5.05-14 .59-19.86.04-.49.45-.87.95-.86.52 0 .94.43.93.96v.07c-.35 3.91-.51 8.53-.57 13.1 0 .62.49 1.13 1.1 1.13.62 0 1.12-.49 1.13-1.1.05-4.6.22-9.25.58-13.17.04-.49.45-.87.95-.86.52 0 .94.43.93.96v.07c-.35 3.89-.51 8.48-.57 13.03 0 .62.49 1.12 1.1 1.13.61 0 1.12-.48 1.13-1.1.06-4.58.22-9.21.58-13.1.04-.49.45-.87.95-.86.52 0 .94.43.93.96v.07c-.51 5.7-.62 12.92-.58 19.26v.21a5.066 5.066 0 0 1-2.32 4.11c-.24.16-.41.42-.44.72 0 0-.15.97.14 5.7.13 2.01.24 3.41.29 4.08 3.7.15 7.46.3 10.77.44v-.04c.79-5.63 1.03-8.8 1.03-8.8 0-.29-.2-.51-.49-.56l-3.22-.55c-.51-.1-.8-.43-.9-.82-.06-.24-.03-.5-.03-.5 1.88-18.79 8.29-24.95 8.29-24.95.19-.18.31-.25.31-.25.17-.11.37-.18.59-.17.42.01.77.29.91.66 0 0 .05.13.07.45.35 5.94-.21 16-.78 23.85-.47 6.44-.95 11.53-.98 11.87 3.18.13 5.37.22 5.72.23.6.02.99.04 1.25-.05.17-.18.3-.4.37-.64Z" class="cls-4"/><g id="Layer_9"><path d="M64.86 177.9c-.9-.19-1.81-.35-2.71-.49.37.98.78 1.94 1.23 2.89.49-.8.99-1.6 1.48-2.4ZM42.95 173.17c.07-.95.12-1.9.15-2.85-.92.49-1.83 1.03-2.71 1.61.85.41 1.71.83 2.56 1.24ZM44.12 189.34c.27.4.54.8.8 1.2.48.05.99.09 1.49.13.29-.44.57-.88.84-1.33-1.04-.05-2.09-.05-3.13 0Z" class="cls-1"/><path d="M65.17 186.33c-.12.05-.23.09-.35.12-1.06 1.13-3.11 1.41-4.15-.32a41.944 41.944 0 0 1-4.49-10.43c-.31-1.13.08-2.03.76-2.59.46-.77 1.27-1.33 2.17-1.26 2.48.17 4.91.55 7.32 1.06.02-.33.04-.64.06-.93.06-1.12.18-2.57.33-4.11l-.15-.09c-.56-.35-.9-.81-1.08-1.31-.54-.99-.49-2.4.4-3.16.48-.41.96-.83 1.44-1.24.29-2.59.54-4.57.54-4.57l-3.83 1.2c-.36.11-.77.22-1.22.31-1.17 1.97-2.48 3.84-3.86 5.68-.37.5-.85.89-1.37 1.11-1.24.68-2.67.16-3.43-.98-1.09-1.63-2.18-3.27-3.27-4.9-1.57 0-2.99-.05-4.12-.13-1.42-.1-2.88-.33-4.19-.6-.23.27-.51.48-.82.63-.65.64-1.6 1-2.45.66-.49-.2-.98-.4-1.46-.62.14 1.51.32 3.49.44 4.43.08.62.19 1.54.31 2.65 1.81-1.1 3.69-2.07 5.67-2.91.8-.34 1.71-.02 2.35.56.86.43 1.43 1.34 1.48 2.36.17 3.28-.07 6.51-.47 9.76-.08.62-.29 1.2-.63 1.65-.75 1.26-2.25 1.51-3.49.9-1.27-.62-2.55-1.23-3.82-1.85.21 2.02.39 3.74.49 4.67.1.91.17 1.69.21 2.39 3.68-.45 7.29-.41 10.99.1.95.13 1.6 1.03 1.8 1.97.41.7.51 1.59.04 2.51-.35.69-.72 1.36-1.1 2.02 2.33.1 4.72.12 6.19-.11 2.52-.4 5.31-1.4 6.19-2.2s.56-2.36.56-2.36v-.07Z" class="cls-1"/></g><path d="M60.42 118.28c.06.05.32-.13.62-.57.31-.43.67-1.09 1.05-1.93.77-1.67 1.6-4.06 2.28-6.78.68-2.71 1.02-5.24 1.04-7.1.03-1.86-.33-3-.49-2.96-.2.03-.18 1.13-.44 2.9-.25 1.76-.72 4.19-1.39 6.85-.66 2.66-1.34 5.05-1.87 6.76-.26.86-.48 1.55-.64 2.02-.15.48-.24.73-.16.8Z" class="cls-4"/><path d="M39.41 57.82c-.02-.36-1.69-.55-3.71-.42-2.03.13-3.65.53-3.63.9s1.69.55 3.71.42c2.03-.13 3.65-.53 3.63-.9ZM39.05 63.97c-.03-.36-1.13-.58-2.47-.48-1.34.1-2.4.47-2.37.83.03.36 1.13.58 2.47.48 1.34-.1 2.4-.47 2.37-.83ZM40.13 70.9c0-.36-1.32-.66-2.96-.66s-2.96.29-2.96.66 1.32.66 2.96.66 2.96-.29 2.96-.66Z" class="cls-12"/><path d="M68.55 156.47c-.29-.21-.71-.24-1.06-.08-.32.14-.53.41-.59.74-.41.08-.89.18-1.34.29-.92.21-7.29 1.36-13.25 1.48-4.69.09-10.76-1.23-12.85-1.73-.06-.35-.27-.63-.6-.78-.36-.16-.77-.13-1.06.08a.87.87 0 0 0-.35.83l3.08 30.48c0 .08 0 .16.02.23l.06.26h.01c.62 1.98 3.02 2.36 4.79 2.64.19.03.38.06.56.09 2.29.39 5 .79 7.75.79h.05c2.49 0 4.87-.31 7.5-.96l.09-.02c1.73-.43 4.35-1.07 4.82-3.21.02-.08.03-.15.03-.22l2.7-30.07c.04-.34-.09-.65-.35-.83Z" style="fill:#ff7800"/><path d="M47.1 178.36c.34-.45.55-1.03.63-1.65.4-3.26.64-6.48.47-9.76-.05-1.02-.63-1.93-1.48-2.36-.65-.58-1.54-.9-2.35-.56-1.99.84-3.87 1.81-5.67 2.91.32 2.92.75 7.13 1.1 10.48 1.27.62 2.55 1.23 3.82 1.85 1.24.6 2.74.35 3.49-.9Zm-4.15-5.19c-.85-.41-1.71-.83-2.56-1.24.88-.58 1.78-1.11 2.71-1.61-.02.95-.07 1.9-.15 2.85ZM57.83 174.27c-.68.56-1.07 1.46-.76 2.59 1.02 3.67 2.53 7.19 4.49 10.43 1.05 1.73 3.09 1.45 4.15.32.12-.03.24-.07.35-.12.08-1.58.95-8.83 1.26-13.43-2.42-.51-4.85-.89-7.32-1.06-.9-.06-1.72.5-2.17 1.26Zm7.93 4.79c-.49.8-.99 1.6-1.48 2.4-.45-.94-.86-1.91-1.23-2.89.91.14 1.81.3 2.71.49ZM57.68 165.8c.52-.22.99-.61 1.37-1.11 1.38-1.84 2.69-3.71 3.86-5.68-3.07.66-7.95.92-11.94.9 1.09 1.63 2.18 3.27 3.27 4.9.76 1.14 2.2 1.66 3.43.98ZM54.48 187.05c-.2-.94-.85-1.84-1.8-1.97-3.7-.51-7.31-.55-10.99-.1.11 1.65.15 2.84.42 4.14.27 1.29 1.98 1.71 4 1.93-.27-.4-.54-.8-.8-1.2 1.04-.05 2.09-.04 3.13 0-.27.45-.55.89-.84 1.33.42.03.84.06 1.25.1 1.25.11 2.9.23 4.57.3.38-.66.75-1.33 1.1-2.02.47-.92.37-1.81-.04-2.51ZM66.58 166.95c.17.5.52.96 1.08 1.31l.15.09c.19-1.93.41-4.01.61-5.79-.48.41-.96.83-1.44 1.24-.88.76-.93 2.16-.4 3.16ZM41.85 159.82c.31-.15.59-.36.82-.63-2.75-.56-4.9-1.28-4.9-1.28s.07.85.17 1.96c.48.21.97.42 1.46.62.85.34 1.8-.02 2.45-.66Z" class="cls-3"/></g><g id="Outline"><path d="M132.06 48.93c.08.02.37-.67.76-1.97.39-1.3.89-3.19 1.32-5.58.42-2.39.76-5.29.66-8.53-.09-3.23-.7-6.82-2.12-10.31-1.43-3.48-3.58-6.5-6.13-8.6-2.54-2.11-5.32-3.3-7.73-3.84-2.43-.52-4.46-.43-5.8-.17-.67.13-1.19.27-1.52.41-.34.12-.51.21-.5.25s.21.04.56 0c.35-.05.87-.1 1.53-.15 1.32-.09 3.25-.04 5.52.57 2.25.62 4.84 1.83 7.17 3.86 2.34 2.01 4.33 4.87 5.7 8.18 1.35 3.32 1.97 6.74 2.13 9.86.16 3.13-.07 5.97-.37 8.34-.64 4.74-1.37 7.64-1.16 7.69Z" class="cls-6"/><path d="M141.17 41.41c-.1-.03-.27.44-.67 1.22-.39.78-1.05 1.86-2.12 2.95-1.08 1.08-2.59 2.17-4.49 2.77-.23.09-.48.14-.73.2l-.18.05h-.03s-.01 0-.02-.01c-.02-.02-.03-.07-.02-.07.13-.16.26-.33.38-.5.74-.91 1.41-1.93 2.06-2.99 1.27-2.14 2.22-4.32 2.87-6.37.64-2.05.99-3.96 1.16-5.58.33-3.23-.02-5.23-.18-5.22-.21 0-.2 1.99-.75 5.09a35.15 35.15 0 0 1-1.39 5.32 34.32 34.32 0 0 1-2.84 6.08c-.63 1.01-1.26 1.99-1.95 2.87l-.25.33-.15.2c-.08.11-.14.23-.18.36-.17.54.03 1.11.44 1.43.21.17.47.27.74.28.13 0 .26-.01.38-.03l.21-.06c.28-.08.55-.15.81-.25 2.11-.75 3.71-2.04 4.79-3.3 1.07-1.28 1.65-2.51 1.91-3.39.27-.88.27-1.4.19-1.41Z" class="cls-6"/><path d="M181.74 142.34c.18-.02.26-.6.25-1.65 0-.52-.03-1.16-.08-1.9-.07-.74-.22-1.57-.37-2.49-.09-.46-.14-.95-.28-1.44-.13-.49-.27-1.01-.41-1.54-.16-.53-.27-1.09-.48-1.64-.2-.55-.41-1.12-.63-1.71-.11-.29-.21-.59-.34-.88-.14-.29-.27-.58-.41-.88-.29-.59-.55-1.2-.88-1.8-.34-.59-.69-1.19-1.05-1.8-.36-.6-.8-1.18-1.21-1.77-1.7-2.35-3.65-4.33-5.57-5.92-1.92-1.59-3.8-2.79-5.34-3.75-.1-.06-.19-.12-.29-.18l-.19-.13-.23-.16c-.29-.2-.57-.39-.85-.58l-.2-.14-.1-.07s-.03-.03-.05-.03l-.04.05-.32.38-.59.71-.27.33c-.06.07-.11.14-.16.21-.1.14-.2.27-.29.39-.18.25-.34.49-.49.7-.58.85-.83 1.38-.7 1.5.14.12.65-.18 1.47-.82.2-.16.42-.35.67-.55.12-.1.24-.21.37-.32.06-.05.12-.11.19-.16l.09-.06c.06-.04.12-.08.18-.11l.08-.05s.06.06.09.08c.05.06.11.12.16.18l.04.04s.01.01.01.02l.06.05.26.22c1.43 1.17 3.12 2.47 4.83 4.07 1.72 1.59 3.46 3.47 5.03 5.64 3.19 4.33 4.91 8.98 6.02 12.37.27.86.52 1.63.73 2.32.18.69.35 1.29.51 1.78.32.97.58 1.51.76 1.49ZM90.82 122.12c-.25-.32-1.56.6-3.78.47-1.08-.07-2.38-.41-3.46-1.21-.13-.11-.26-.21-.39-.32-.12-.12-.23-.24-.35-.36-.1-.13-.21-.27-.32-.4-.11-.15-.21-.31-.32-.49-.47-.7-.89-1.65-1.95-2.53-.61-.49-1.47-.84-2.31-.81-.84.02-1.54.31-2.1.65s-1.03.77-1.39 1.17c-.37.4-.66.78-.94 1.11-.27.33-.52.61-.77.83-.24.22-.46.37-.72.48-.51.23-.94.22-1.23.1-.17-.06-.33-.25-.4-.5-.08-.24-.07-.47-.03-.64.09-.38.37-.53.31-.68-.02-.07-.12-.14-.31-.16-.18 0-.46.06-.73.32-.27.26-.49.68-.54 1.2-.03.26 0 .55.09.86.1.31.3.65.59.91.74.66 1.89.81 2.87.54.49-.13 1.01-.37 1.44-.68.43-.3.81-.65 1.15-.99.7-.7 1.26-1.35 1.88-1.67.31-.17.61-.25.83-.25.22 0 .41.07.65.26.44.34.9 1.1 1.43 1.89.14.2.28.4.44.61.18.21.35.41.53.6.2.18.39.36.58.52l.62.44c1.7 1.05 3.5 1.24 4.9 1.06 1.42-.18 2.46-.77 3.04-1.27.3-.25.49-.49.59-.68.1-.18.12-.31.06-.38Z" class="cls-4"/><path d="M137.21 122.58c-.16-.03-.78 2.74-1.36 7.28-.29 2.27-.55 4.98-.73 8.01-.17 3.02-.26 6.35-.21 9.85.06 3.49.26 6.82.52 9.84.28 3.01.62 5.72.98 7.98.72 4.52 1.43 7.27 1.59 7.23.2-.04-.19-2.83-.67-7.36-.25-2.26-.48-4.96-.7-7.95-.19-3-.35-6.3-.41-9.76-.05-3.47 0-6.77.11-9.77.12-3 .27-5.7.45-7.97.34-4.54.63-7.34.44-7.37Z" style="fill:#ce9352"/><path d="M102.53 87.21c.38.01.76-4.6 1.67-10.2.89-5.61 1.97-10.1 1.61-10.21-.33-.11-2 4.29-2.9 10-.93 5.71-.72 10.41-.37 10.41Z" class="cls-6"/><path d="M70.75 156.18c-.19-1.74-.49-3.46-.91-5.17 0-.32-.16-.62-.44-.89a.636.636 0 0 0-.24-.25c-4.39-2.8-10.29-2.98-15.35-3.12-5.54-.16-11.14.43-16.34 2.46-.23.09-.37.27-.43.46-.02.03-.04.07-.06.1-.18.16-.33.34-.44.54-.07.08-.12.17-.15.29-.44 1.78-.76 3.58-.96 5.41-.07.27 0 .56.3.74 2.33 1.34 5.15 1.87 7.76 2.31 2.66.45 5.38.78 8.09.83 6.42.11 12.62-.55 18.56-3.06.34 0 .65-.22.6-.65Z" style="fill:#78577a"/><path d="M69.08 151.72c-.09-.2-1.81.55-4.68 1.33-.36.09-.74.19-1.13.29-.39.1-.81.17-1.24.26-.85.2-1.78.31-2.75.45-1.95.22-4.1.34-6.36.24-2.26-.12-4.39-.45-6.31-.86-.95-.24-1.86-.44-2.69-.72-.42-.13-.83-.24-1.21-.38s-.75-.27-1.1-.4c-2.79-1.05-4.42-1.97-4.53-1.78-.08.12 1.4 1.33 4.17 2.64.35.16.72.32 1.1.49.38.17.8.3 1.22.46.84.33 1.77.58 2.75.86 1.97.49 4.18.87 6.53 1 2.35.1 4.59-.06 6.59-.35 1-.18 1.95-.34 2.82-.59.44-.12.86-.21 1.26-.34.4-.13.78-.26 1.14-.38 2.89-1.03 4.48-2.09 4.41-2.22Z" style="fill:#d7c2df"/><path d="M151.04 136.83c-.32-.18-1.14.61-2.23 2.03-.27.35-.56.75-.86 1.18-.07.11-.15.22-.23.33l-.12.17-.21.33c-.14.23-.28.45-.42.69l-.22.36-.11.18-.05.09s.04.05.06.08c.38.4.77.82 1.19 1.24.13.13.26.26.39.4l.35.34c.47.45.96.9 1.48 1.35 2.06 1.79 4.02 3.23 5.49 4.22 1.47.98 2.44 1.51 2.71 1.26.26-.25-.29-1.29-1.47-2.65-1.18-1.37-2.97-3.06-4.99-4.81-.5-.43-.99-.86-1.47-1.27l-.63-.54c-.02 0-.05 0-.08-.02-.02-.02-.02-.04-.02-.08v-.03l.08-.18c.06-.12.11-.24.17-.36.22-.48.41-.92.58-1.34.67-1.65.93-2.77.61-2.95Z" class="cls-4"/></g></svg>