<svg xmlns="http://www.w3.org/2000/svg" viewBox="0 0 200 200"><defs><clipPath id="clippath"><path d="M122.03 135.96c-15.36 4.19-14.7 9.03-18.61-8.73-.93-5.68-3.02-24.68-6.61-31.46-.76-2.11 4.24-6.13 2.06-8.03-10.22-3.81-23.78-17.83-23.78-17.83-10.26 8.99-20.99-1-31.6 9.72-15.28 13.36-36.63 44.12-41.88 57.76 3.92 11.44 13.52 14.57 23.15 21.48-2.27-.74-7.27 16.81-8.07 17.89 18.83 8.96 86.25 33.22 73.25-7.81 9.06 14.41 39.63-14.86 40.06-15.37 0 0-7.98-17.62-7.97-17.61Zm-94.71 21.92c.15-2.01 2.51-4.08 3.61-1.58.04.16-1.73.86-3.61 1.58Z" style="fill:none"/></clipPath><style>.cls-3{fill:#f96800}.cls-4{fill:#6a4a6b}.cls-5{fill:#eeece9}.cls-6{fill:#f0eeec}.cls-7{fill:#fff}.cls-9{fill:#fcb9c4}.cls-11{fill:#e4683b}.cls-12{fill:#654c69}.cls-13{fill:#a08675}.cls-15{fill:#b4cacc}.cls-17{fill:#cc5d38}.cls-20{fill:#573f59}.cls-22{fill:#78577a}</style></defs><path id="BG_Strong" d="M177.54 44.65C136.65-61.24-23.02 67.46 33.57 143.42c80.74 66.66 194.22 12.58 143.97-98.77Z" style="fill:#575655"/><g id="Illustrations"><path d="M73.46 45.22c-1.31 0-2.38 1.07-2.38 2.38 0 .24.04.46.1.68l-9.56 4.82c-.29.15-.47.45-.45.78a5.758 5.758 0 0 0 3.66 5.02l1.09.42c.19.07.4.07.59 0l1.36-.53.16.73c.06.29.28.52.56.6l2.29.69c.08.02.16.03.24.03a.817.817 0 0 0 .81-.71l1.39-10.15h.15c1.31 0 2.38-1.07 2.38-2.38s-1.07-2.38-2.38-2.38Z" class="cls-12"/><path d="M89.97 91.37c2.13-1.43 3.84-3.36 5.38-5.34 2.96-3.81 5.4-7.96 7.24-12.29 1.8-4.23 3.02-8.61 4.54-12.91.21-.59.49-1.16.84-1.68l3.5-5.37c1.5-2.3 1.75-5.22.6-7.71-.94-2.02-2.27-3.77-4.4-4.63-1.5-.61-3.23-.68-4.91-.53-1.55.14-3.13.49-4.47 1.3-1.18.72-2.1 1.76-2.86 2.86l-1.81 2.91c-2.2 3.54-6.71 4.78-10.46 2.95a.488.488 0 0 0-.07-.03c-2.24-1.08-5.01-1.66-7.44-.64-1.67.7-2.97 2.09-3.8 3.63-.82 1.54-1.21 3.21-1.47 4.88-1.66 10.37-2.48 25.89 14.1 29.16 1.13.22-9.54 3.51-8.74 4.36.95.99 2.41 1.43 3.86 1.61 3.53.44 7.33-.49 10.36-2.52Z" class="cls-9"/><path d="M106.71 97.56c1.83-1.81 3.15-4.01 4.29-6.25 2.2-4.3 3.82-8.82 4.83-13.42.98-4.49 1.37-9.02 2.06-13.53.1-.62.27-1.23.51-1.81l2.44-5.93c1.05-2.54.76-5.45-.84-7.68-1.3-1.81-2.93-3.28-5.18-3.73-1.59-.32-3.3-.07-4.93.4-1.49.43-2.98 1.06-4.15 2.11-1.02.92-1.74 2.12-2.28 3.34l-1.23 3.19c-1.5 3.89-5.71 5.94-9.73 4.85-.02 0-.05-.01-.07-.02-2.4-.65-5.23-.7-7.43.76-1.51 1-2.53 2.61-3.06 4.27-.52 1.66-.59 3.38-.54 5.07.3 10.5-8.65 28.1 8.25 28.24 1.15 0 2.3 3.02 3.25 3.7 1.12.8 2.64.96 4.09.86 3.55-.23 7.12-1.85 9.7-4.4Z" class="cls-9"/><path d="M74.66 46.42c-.2 0-.41-.08-.56-.23a.81.81 0 0 1-.03-1.15l15.82-16.55a.81.81 0 0 1 1.15-.03c.33.31.34.83.03 1.15L75.25 46.16a.81.81 0 0 1-.59.25Z" class="cls-12"/><path d="M72.69 44.78v.06-.08.02ZM72.74 44.92v-.17.13s-.01-.03-.01-.05v.03c0 .06.02.06.03.01v.05ZM73.59 45.11v.02-.02ZM73.63 45.2s0 .01 0 0ZM73.27 45.04v.03-.03ZM72.8 44.74v.02ZM73.12 45.1v.03-.03ZM73.02 45.11v-.09.09ZM76.25 45.98ZM76.06 46.28l-.04.02.04-.02zM74.59 45.47c.01-.06.04-.06.05-.13 0 .02-.05.09-.05.13ZM73.95 45.29v-.03.03ZM74.05 45.22s0 .01 0 0ZM74.14 45.24v-.01.01ZM76 45.75l-.04.04c.03-.03.05-.03.04-.04ZM72.8 44.77v-.03.03ZM74.17 44.72h.01-.01ZM75.41 45.29ZM74.23 44.73v.05-.05ZM75.54 45.95v-.01h-.01v.01ZM75.46 45.28l-.01.01.01-.01zM73.04 44.79v-.02.02ZM73.86 44.74ZM73.59 44.86s0-.02.01-.03l-.01.03ZM74.17 44.72z" class="cls-6"/><path d="M73.61 44.83s0-.01-.01 0c0 0 0 .01.01 0ZM72.75 44.73ZM72.74 44.76v-.02.02ZM72.85 44.75s-.01-.05-.02-.03v.02s.02.06.02.02ZM72.94 45.04l-.02-.02v.07c.02.07 0-.06.02-.05ZM73 45.08v.05-.05ZM73.38 45.09v.06-.06ZM73.48 44.79v-.04l-.01.06.01-.02zM73.49 45.21l-.01.01.02-.02-.01.01zM74.11 45.3l.02-.07s-.03.09-.02.07ZM74.39 45.3v.03-.03ZM75.08 45.74l-.02.02.02-.02z" class="cls-6"/><path d="M69 58.02s.02.03.03.05c0 0 .02 0 .03.01h.02a.435.435 0 0 1-.06-.07H69v.02ZM67.99 58.75h-.03c-.02 0-.04 0-.05.01v.02H68c0-.02 0-.02-.01-.03ZM69.28 57.4s.04-.01.04-.02-.03-.02-.04-.04h-.03c0 .01.02.02.03.04ZM68.19 57.53v.07s.02 0 .03-.02c0-.01.01-.02.01-.04 0 0 0-.01-.01-.02h-.03ZM68.54 57.38s.03 0 .03-.02v-.04c-.01 0-.03 0-.04.02 0 .01.01.03.02.04ZM69.34 57.23h.03s-.02-.03-.04-.04h-.03c.01.02.03.03.04.04ZM68.49 56.65s-.02.01-.02.02 0 .02.01.03c0 0 .02-.01.03-.02 0 0-.01-.02-.02-.03ZM68.86 58.79h.03s-.03-.02-.05-.03h-.04s.03.02.05.03ZM68.36 57.78v-.02h-.04c0 .02 0 .03.01.03h.03ZM68.35 57.61h.03v-.03h-.03v.03ZM68.75 56.66v-.01h-.03s.02 0 .03.01ZM68.97 58.2h.02l-.02-.02h-.02s.02.01.03.02ZM68.27 57.55l.02.02h.02l-.02-.02h-.02ZM69.06 58.6h.03v-.01h-.03ZM69.27 57.49h.01v-.02h-.01v.02ZM68.76 56.45s0-.03.05-.02h.04s.01 0 .01-.01v-.02c-.05.01-.06-.02-.07-.03s-.03-.03-.06-.02c-.03 0-.06 0-.03.03l.03.06h-.03c-.04 0-.06.02-.05.05h.12c.03 0 .03-.03 0-.06ZM68.97 55.84s0-.02.01-.03v-.02s-.02-.02-.03-.02c-.04 0-.02 0-.01.02 0 0 0 .02-.01.03h-.03c0-.01-.01-.02 0-.03 0-.02.01-.03.02-.05v-.01h-.01s-.05.04-.05.07c0 .01.04.03.06.06.03.03.05 0 .07 0ZM69.42 55.02s-.02.04.03.05h.02c.03 0 0-.05.06-.04 0-.01-.02-.02-.02-.03-.04-.02-.08-.03-.08 0ZM69.01 55.73s.01-.05-.03-.07c0 0-.01.02-.02.03l-.03.03c.04.03.07.04.09.02ZM69.62 54.58v.02c0 .02.02.04.04.04v-.02s-.03-.02-.03-.03c0-.02.02-.01.04 0s-.02-.02-.02-.02c-.02 0-.02 0-.03-.01-.05-.02-.03 0-.02.02ZM69.44 55.12s.02-.03-.01-.04h-.01c0 .01-.02.03-.03.04 0 0 .01.02.02.03h.02v-.04ZM68.97 56.09v-.02l-.1.03s0 .02.02.02c.01 0 .03.01.04.02h.02s.03-.03.02-.04ZM68.68 56.18h-.02s0 .02-.01.03v.03s.03.01.04.01c.03 0 .03-.06 0-.07Z" class="cls-5"/><path d="M69.48 54.93h-.03s.02.01.02.02v.02c-.01 0-.03 0 0 .02h.03c.02-.02.01-.04-.03-.06ZM69.56 55.33v-.02c-.02-.02-.05-.04-.08-.02l.02.03h.05ZM69.76 55.96s.03-.02.05-.03v-.02c-.02 0-.03.02-.05.03 0 0 0 .01.01.02ZM68.73 56.59s.01 0 0-.01c0-.01-.02-.03-.03-.04h-.03s.01.02.02.03c0 0 .02.01.03.02ZM69.83 54.29h.02s.02-.01.03-.02v-.02c-.01 0-.03 0-.04.02v.02ZM69.63 54.32h-.03v.02h.05v-.02ZM68.87 56.13s-.02 0-.02.02v.03s.02 0 .03-.01v-.03ZM69.61 54.43h-.03l.02.02h.03v-.01ZM69.1 55.76v-.02h-.03v.03h.02ZM69.77 54.56v.02l.04.02c0-.03-.02-.02-.04-.03ZM68.73 56.07h-.02v.03h.03v-.02ZM68.65 56.26h-.02v.03h.03v-.03ZM69.86 55.59h-.01.01v.01ZM69.49 54.9h.02-.01ZM69.37 55.21h.02-.01ZM69.77 54.22h-.01.01ZM68.85 56.48h-.02.02ZM69.29 55.23h-.02s.01.01.02 0ZM69.07 55.8l-.02-.01.02.01ZM69.03 55.81h.02s-.01-.01-.02 0ZM68.95 56.01h-.02.02V56ZM69.43 55.19h.02l-.02-.01ZM69.43 55.24h-.02s.01.01.02 0ZM69.54 54.84l.01.01h-.01ZM69.52 54.89h.02l-.02-.01ZM69.03 55.62l-.03-.01.01.01h.02zM68.98 55.59l.01.02v-.02h-.02ZM69.49 55.26h.01l-.01-.01h.01v.01ZM69.04 55.35h-.02.02ZM69.87 54.23h.01-.01ZM69.9 54.19h-.01.02ZM69.8 55.79h.02-.02ZM69.09 56.36h-.02s.02.01.03.01 0-.01 0-.01ZM69.32 56.15s.03 0 .04.01v-.02h-.04v.01ZM69.38 56.02h.02l-.02-.01ZM69.1 56.1l.01.02v-.02h-.02ZM68.45 56.61h-.02v.03h.02s0-.02-.01-.03ZM68.44 56.56h-.02v.04h.03v-.03ZM68.68 56.58v-.02h-.01v.02h.02ZM69.26 57.07h.01v-.01h-.02s0 .01.01.02ZM69.27 57.23h.03v-.01h-.03ZM69.36 57.08v.02h.03v-.02h-.02ZM68.61 56.72s.04-.03.04-.04c0-.01-.01-.05 0-.05.08-.01 0-.04-.02-.06h-.04v.02s-.04.07-.05.1v.03h.06ZM67.77 58.86h.02c0-.03-.05-.06-.09-.08-.05.02 0 .07.07.09.01 0 .01 0 0-.02" class="cls-5"/><path d="M74.06 50.26v-.06.08-.02ZM74.04 50.11s-.02.1-.03.17c.01-.07.01-.04.03-.13v.05c0-.02 0 .02.01-.03 0-.06-.01-.06-.03-.02v-.05ZM73.22 49.81v-.01.01ZM73.53 49.92v-.03.03ZM73.95 50.29v-.02.01ZM73.68 49.88v-.03.03ZM73.79 49.89s-.01.06-.02.09c0-.03 0-.04.01-.04v-.05ZM73.95 50.02ZM73.61 49.85v-.02.02ZM70.71 48.58ZM70.94 48.3l.03-.01-.03.01zM73.12 49.6ZM72.28 49.31c-.02.06-.05.06-.07.12.01-.02.06-.08.07-.12ZM73.94 50.28ZM72.89 49.58v.03-.03ZM72.78 49.63s0-.01 0 0ZM72.69 49.6v.01-.01ZM70.92 48.84l.04-.04c-.04.03-.06.03-.04.04ZM73.95 50.25v.03-.03ZM72.59 50.11h-.01.01ZM71.44 49.38ZM72.53 50.09v-.04.04ZM67.99 58.89l.02-.02v.02ZM68 58.86h.01v-.01l-.01.01ZM68.49 57.06s0 .1-.03.16c.15-.05.24-.18.03-.16ZM68.17 57.46c.18.01-.04-.05.1-.12-.09-.04-.18.13-.1.12ZM68.31 57.62c-.07.04-.05.08.06.13.09.01 0-.11-.06-.13ZM68.15 57.63c-.06-.06.01-.1-.05-.16-.1.04-.08.17.05.16ZM68.98 55.64s-.09-.04-.07 0c.02 0 .07.02.07 0ZM75.98 45.68c-.18.18 0-.04-.05-.02-.11.1-.1.07-.04 0-.1.02-.58-.6-.69-.42.18-.29-.24 0-.15-.18-.25.19 0-.2-.22-.02-.34-.53-1.11-.08-1.16-.33-.1.36-.17-.06-.3.13-.07-.07-.31-.1-.25.03-.02.11-.01-.14-.02-.04-.06.21-.08-.31-.27.08-.02-.11-.07-.18-.08-.06 0 .03.02-.13.02 0 0 .16.04-.04.04 0v.08c0-.16.06.33.09-.06.04.26 0-.05.12.15.31.13.3-.18.42.16.17-.04.16-.28.14-.06.01.09.13-.07.1.17.07-.13 0-.18.07-.03.09-.34.05.01.1-.02 0-.12.05-.28.02-.02.07-.02.08-.16.07 0 .02 0 .04-.12.04-.01.08-.16.14.03.25-.08-.09.33.18-.12.09.1.07-.2 0 .07.02.07.1-.16.14-.12.11-.05.12.11.22.38.44.24-.14.26.3.02.16.19-.04.16.09-.13.06-.03.13.18.1.11.22.18.29-.15.04.27.2.09.19-.22-.16.22.13 0 .08.29.55.5.6.07-.23-.31-.33-.1-.27-.34Zm-.27 0s.02-.03.02-.04c.02.01-.03.05-.02.04Z" class="cls-6"/><path d="m74.45 45.27-.04.06c.02-.02.03-.04.04-.06ZM76.08 45.8s.04-.01.07-.03c-.02-.01-.05 0-.07.03ZM75.47 46.02l.02-.02c-.01 0-.03.01-.02.02ZM70 54.18c-.14.02.18-.09.02-.12-.1.24-.45.6-.15.09.17-.11-.06 0-.16.16 0 .36.44.27-.19.33.17-.64-.48.83-.3.54.22.02.12-.47.33-.35-.18-.26.16.11.06-.12.15-.07 0 .32-.05.34-.11.12.21-.09.15-.02-.38.37-.08-.03-.09.48-.24-.14-.34-.46-.21.25.24-.65.03.7-.16.37-.08-.12.17.04.13-.05-.14-1.18-.39.17-.97 1.82-.39.96.08-.22-.28-.23-.06.24-.34.47-.39.76-.06.12-.07.18-.03.22-.03.01-.04.04-.03.06.02.03.05.04.09.06.06.03.1.08.17.1.02-.03-.04-.07-.08-.1-.05-.04-.06-.07-.03-.1.04 0 .09 0 .14-.01.06.04.17.08.19.13 0 .02-.02.05-.02.08 0 0-.01.02-.02.03a.18.18 0 0 0-.09-.04c0 .02.03.05.02.07-.15-.05-.15.03-.03.05.04 0 .06-.01.08-.03-.06.12-.02.18.26-.05-.26.73 1.19-.6.5-.58-.34.13.75-.88.35-.73-.05.05-.14.5-.37.3.38 0-.08-.21.22-.3-.12-.27.03-.06.12-.12.18-.19-.32-.19.1-.21-.37-.17.21-.06.15-.19-.49.02.06-.08-.2-.14-.04-.06.05-.08.09-.1.29.13.07-.25 0-.08-.16-.19.06-.13.15-.05-.2-.21.02-.15.06-.2.29-.82.45-1.39.42-1.55.19-.36.27-1.03.06-.79Zm-.73.88s-.01 0 0 0Zm-1.31 3.14c.29-.72.28-.07.03.1.02 0-.06-.08-.03-.1Zm.44.45s-.11.03-.17.1a.681.681 0 0 1-.12-.12c.19-.05.36-.09.3.02Zm-.11-.17c-.04-.11.09-.06.14-.03-.09-.03-.1 0-.14.03Zm.31-.47c-.06.07.05.15.03.25-.14-.07-.17-.22-.03-.25Zm-.03.66c-.05-.07-.05-.14.04-.1.07 0 .03.15-.04.1Zm.3-.17s-.1-.08-.11-.02c.02.08.18.1-.03.06-.1-.25.26-.21.14-.04Zm-.24-.66c.03-.15.07-.32.17-.45-.07.16-.05.38-.17.45Zm.32-1.15c-.03.07 0 .18-.09.22.02-.07.01-.18.09-.22Zm-.11.56s0-.15.07-.16c-.02.06 0 .14-.07.16Zm.07-.26c.07.02.03.08.06.1-.05-.02-.11-.07-.06-.1Zm.11-.09h.05c0 .06-.07.01-.05 0Zm.09.56s-.03-.04-.07-.08c.06 0 .15.04.07.08Zm-.05-.79c-.1-.07 0-.42.15-.43-.09.2-.1.38-.15.43Zm.29-.25s.08.09.1-.01c.19.08-.15.1-.1.01Zm.44-1.51s-.11-.14-.03-.1c.11-.02.17-.06.03.1Zm.22-.6c-.05.15-.02.08-.15.12.02.01.18-.2.15-.12Z" class="cls-6"/><path d="M68.27 57.34c0 .15.12.23.26.11-.02-.14-.19-.27-.26-.11Zm.12.03s-.05.05-.04 0c0-.07.09-.05.04 0Z" class="cls-6"/><path d="M68.36 57.22c.04-.09.04-.19.04-.29-.09-.06-.27.48-.04.29ZM68.51 56.85c-.11.32.14.02.09-.05-.13-.06-.3.05-.09.05ZM69.02 55.41c.15 0 .13.18.03.04-.1.43.34-.09.13-.21-.18.07.16.1-.16.17Zm.07.17c-.03-.06.06-.01 0 0ZM71.48 48.65l-.03.02c.01 0 .03-.01.03-.02ZM74 50.23v.01c.03-.09.01-.04 0-.01Z" class="cls-6"/><path d="M73.97 50.17c.06-.12-.35-.33-.36-.15.03-.27-.24.08-.23-.26-.14.04-.24.1-.21-.16-.06.1-.09.24-.04 0-.08.08-.11.24-.14.01-.07.33 0-.07-.09.08-.06.04.04-.17-.05 0 .05-.21-.09.12-.06.01 0-.03.06-.12.02-.07-.16.15-.17-.05-.2-.07-.11.05-.21.05-.31-.23-.17.3.07-.27-.06-.01-.06.05.04-.11-.01-.06.1-.12-.15.1-.04-.02-.2.07 0-.14-.22.01.18-.31-.23-.03-.11-.27-.2.19.02-.29-.24 0 .16-.29-.11-.08-.14-.13-.09-.14.03-.25-.21-.2.19-.13-.1 0-.04-.11-.09-.06-.05-.19-.16-.12 0-.03.14-.14 0-.06.22-.3-.65.2-.31.11-.14.08.03-.02.03 0-.17.17.21.17 0 .32.57-.07-.09.14.55.35.29.67.36.18.92.87.65.06.91.09 1.19.12.11.16.41-.2.36.14.19-.07.09-.16.22-.04 0-.07.03-.15-.03-.06Zm-2.79-1.18.03-.04c-.01 0-.02.02-.03.04Z" class="cls-6"/><path d="M71.41 48.7v.01h.02v-.01ZM71.39 49.38l.02-.01-.02.01zM73.72 50.2v.02-.02ZM73.76 50.24v-.03.03ZM72.9 50.13ZM73.19 50.06s-.01.02-.02.03l.02-.03ZM73.16 50.08s0 .01.01 0c0 0 0-.01-.01 0ZM73.99 50.3ZM74 50.29ZM74.01 50.27v.02-.02ZM73.9 50.27s0 .05.02.04v-.02s0-.06-.02-.02ZM73.85 49.96v.02s.01-.06.02-.07c-.01-.08 0 .06-.02.04ZM73.8 49.92v-.05c0 .02-.01.03 0 .05ZM73.42 49.85v-.06.06ZM73.28 50.14v.04l.02-.05-.02.01zM73.33 49.72l.01-.01-.02.02.01-.01zM72.73 49.55l-.03.07s.04-.09.03-.07ZM72.45 49.51s.02-.06 0-.03v.03ZM71.83 48.98l.02-.02-.02.01v.01z" class="cls-6"/><path d="m88.12 54.31 4.08-9.73s4.71-.5 6.33-.7c1.62-.19 2.06 3.71 2.22 3.23 3.01-8.55 5.77-4.5 5.77-4.5s6.95 2.61 9.14 2.24c2.19-.36 10.59 3.73 10.59 3.73l.16 6.55-2.22 7.52 1.18 9.26-4.5 1.15s-2.13 4.21-3.22 5.58c-1.09 1.37-3.76 4.31-5.17 4.75-1.41.44-2.36.66-3.23.42s-8.64-3.27-8.64-3.27l-5.72 5.51-7.18-4.06L78 73.51s6.18-11.48 7.33-13.49c1.16-2.01 2.77-5.71 2.77-5.71Z" class="cls-13"/><path d="M119.51 63c.81 0 .81-1.26 0-1.26s-.81 1.26 0 1.26Z" class="cls-20"/><path d="M126.28 48.77c-.03 1.93-.05 3.85-.38 5.76-.27 1.55-.67 3.07-1.22 4.54-.24.66-.56 1.29-.8 1.95-.17.47-.25.96-.31 1.45-.27 2.12.09 4.32.5 6.4.16.8.35 1.59.54 2.38.03.14.07.28.1.43-.07.02-.14.05-.21.08-.2.06-.4.12-.61.17-.45.11-.91.19-1.37.27-.22.04-.45.07-.67.1-.05 0-.37.05-.19.03l-.25.03-.52.06c-.31.03-.49.18-.61.46-.51 1.3-1.04 2.61-1.81 3.78-.36.54-.65.91-1.04 1.39-.52.63-1.06 1.25-1.6 1.86-1.15 1.31-2.52 2.61-4.23 3.13-.84.26-1.69.28-2.55.06-.99-.26-1.92-.73-2.85-1.16a86.765 86.765 0 0 1-6.56-3.41c-.7-.4-1.34.68-.64 1.09.35.2.7.4 1.05.59-.94 1.03-1.88 2.05-2.91 2.99-1.05.96-2.17 1.83-3.3 2.69-.27.21-.41.54-.23.86.16.27.59.43.86.23 1.2-.91 2.39-1.82 3.5-2.84 1.11-1.01 2.09-2.08 3.08-3.17.04-.05.08-.1.1-.15 1.28.69 2.57 1.35 3.89 1.97 1.95.92 3.95 2.01 6.17 1.63 1.91-.33 3.57-1.6 4.88-2.97.64-.66 1.23-1.37 1.82-2.07.46-.54.92-1.1 1.33-1.68.89-1.25 1.5-2.67 2.06-4.09 1.2-.13 2.45-.29 3.58-.68.31-.1.64-.23.87-.47.25-.27.26-.57.19-.91-.12-.6-.28-1.2-.42-1.8-.47-2.09-.86-4.12-.8-6.26.02-.52.05-.94.14-1.37.04-.22.1-.44.17-.66.02-.05.12-.31.09-.25.08-.17.15-.35.23-.52.64-1.5 1.15-3.04 1.5-4.63.38-1.73.59-3.5.62-5.27l.03-2.03c.01-.81-1.25-.81-1.26 0Zm-1.38 22.82s.02-.02 0 0Zm-.02.02c.02-.02.02-.02 0 0Z" class="cls-20"/><path d="M111.24 71.95c-.02 1.14.58 2.19 1.43 2.91.91.77 2.19 1.41 3.41 1.27.33-.04.65-.26.63-.63-.01-.31-.28-.67-.63-.63-.26.03-.52.02-.73-.03-.14-.03-.27-.07-.4-.11l-.18-.06s-.19-.08-.12-.04c-.21-.09-.41-.2-.61-.32-.1-.06-.2-.12-.29-.19-.02-.02-.12-.08-.05-.03l-.15-.12a5.55 5.55 0 0 1-.49-.48s-.1-.13-.07-.08-.05-.07-.06-.08c-.07-.1-.13-.2-.19-.31-.02-.04-.05-.09-.07-.13-.02-.03-.06-.12-.02-.04-.04-.1-.07-.21-.1-.31-.01-.05-.03-.1-.03-.14 0-.03-.03-.18-.02-.07-.01-.12-.02-.24-.02-.36 0-.33-.29-.64-.63-.63s-.63.28-.63.63Z" style="fill:#6d5f56"/><path d="m126.27 48.58-27.71-2.8-9.04 4.74-4.66 10.98s-5.12 3.14-2.41 4.48c2.7 1.34 8.65-2.28 9.71-6.39 2.69-10.45 7.48-5.44 7.48-5.44s0 .02.02.07c1.11 3.25 5 4.53 7.86 2.64 1.6-1.05 3.98-1.95 6.84-.96 5.36 1.85 12.45-4.35 12.45-4.35" class="cls-9"/><path d="m127.52 51.07 1.54-17.92-38.41 3.22-1.13 14.16a.982.982 0 0 0 1.25 1.03c5.48-1.56 26.06-6.77 35.18.22.62.47 1.51.07 1.58-.7Z" class="cls-11"/><path d="M126.54 52.09c-.23 0-.47-.08-.66-.23-3.86-2.96-10.21-4.07-18.87-3.29-7.03.63-13.67 2.37-16.2 3.09-.35.1-.72.03-1-.21-.28-.23-.43-.58-.4-.94l1.14-14.26h.1l38.54-3.24-1.54 17.93v.13c-.05.41-.29.75-.66.91-.15.06-.3.1-.45.1Zm-14.48-3.99c6.17 0 10.85 1.2 13.96 3.58.25.2.58.23.88.1.28-.12.47-.37.51-.67v-.05l1.53-17.78-38.17 3.2-1.12 14.06c-.02.29.09.56.31.74.22.18.51.24.79.16 2.53-.72 9.19-2.47 16.25-3.1 1.79-.16 3.48-.24 5.08-.24Z" class="cls-11"/><path d="M101.62 24.98 73.08 37.36c-1.01.58-.68 1.91.55 2.2l41.85 6.83c.42.1.87.04 1.22-.16l28.4-13.09c1.01-.59.66-1.92-.56-2.2l-41.7-6.13c-.42-.1-.86-.04-1.21.16Z" style="fill:#ee8533"/><path d="M100.18 53.84c-.72-1.18-2.1-1.79-3.45-1.71-1.44.08-2.67.89-3.41 2.12-.77 1.3-.93 2.9-.55 4.35.4 1.53 1.36 2.88 2.5 3.95.66.61 1.5 1.23 2.45 1.14s1.73-.77 1.74-1.72c0-.81-1.26-.81-1.26 0 0 .09 0 .1-.05.18-.02.04-.1.11-.15.15-.19.14-.39.16-.62.12-.56-.11-1.02-.57-1.42-.96-.88-.86-1.61-1.91-1.95-3.11-.29-1.04-.25-2.19.24-3.17.46-.93 1.25-1.62 2.27-1.77.94-.14 2.05.22 2.57 1.07.42.69 1.51.06 1.09-.64Z" class="cls-20"/><path d="M110.05 33.96c-.06 0-.12 0-.19-.02L90.7 29.49a.816.816 0 1 1 .37-1.59l19.16 4.45a.816.816 0 0 1-.18 1.61Z" class="cls-12"/><path d="M32.93 164.16s-38.74-15.18-30.94-28.73c7.02-12.21 31.92 1.03 31.92 1.03" class="cls-22"/><path d="M90.32 101.66s0 .05.01.08c0 .01.05-.11.07-.17v-.1s-.04.08-.08.14v.04ZM90.42 99.55c.01-.05.03-.12.05-.19 0 .03-.02.05-.03.07 0 .03-.02.08-.03.12ZM89.47 101.64c-.01.06-.02.11-.03.16-.01.1-.03.22-.05.35.04-.12.09-.23.13-.35-.02-.02-.04-.06-.05-.16ZM94.18 90.27c-.32.27-.57.49-.84.73-.01.01-.16.23-.14.22.23-.18.47-.37.72-.58.02-.01.13-.17.27-.37ZM88.7 101.56c0-.16 0-.31-.01-.46-.02.04-.07.14-.09.23-.04.16-.11.45-.1.45.04.02.1-.05.16-.1 0 0 .04-.11.04-.12ZM91.62 92.65c-.06.12-.11.21-.13.27-.05.17-.09.33-.13.5.03-.05.06-.09.08-.14.06-.19.11-.39.18-.63ZM89.14 99.53c-.04.1-.07.19-.13.33-.03.13-.06.28-.09.42.04-.1.09-.2.11-.29.04-.16.07-.31.11-.47Z" class="cls-7"/><path d="M73.61 86.47s-.03.07-.02.1c0 .04.04.07.06.11.04-.02.11-.04.11-.07.01-.08 0-.16 0-.24 0-.02-.03-.04-.05-.06-.02.02-.05.03-.06.05-.02.03-.02.07-.03.1ZM74.01 84.39s-.02.1-.02.14c0 0 .02.03.03.03.03 0 .07 0 .07-.02.01-.05.02-.1.03-.19 0-.02 0-.08-.01-.14-.16.02-.06.11-.09.17ZM72.06 81.58l-.05.1c.04.02.08.05.12.07 0-.03.04-.06.03-.09-.01-.03-.06-.06-.09-.08Z" class="cls-5"/><path d="M33.39 134.02v-.31c-.07-.02-.14-.04-.2-.05l-.39-.03c-.03 0-.12-.06-.14-.08-.06-.09-.11-.15-.15-.09-.02.03.03.1.06.16.31.15.57.28.83.39ZM32.65 133.21s.07-.04.05-.07a.84.84 0 0 0-.15-.14c-.12-.09-.19-.14-.25-.18-.02-.01-.07-.01-.07 0-.02.08.28.36.42.39ZM31.67 134.01s.01-.02.02-.02l-.05-.1h-.07c-.01.09-.31-.09-.18.11.02.03.07.07.1.08.17.09.12-.04.17-.07ZM33.63 134.12c.11-.03.15-.06.21-.05.12.02.23.05.13-.1 0-.01-.04-.03-.06-.05-.21-.14-.16 0-.21.03-.03.02-.03.07-.07.17ZM33.67 133.76c-.01-.06 0-.09-.03-.11-.11-.12-.33-.19-.41-.13-.01.01.02.06.03.09.14.05.27.1.4.15ZM32.01 134.53s.05.1.1.15c.02.02.09.03.19.05-.08-.09-.12-.15-.18-.19-.03-.02-.12-.03-.12-.02ZM32.14 133.17s-.07-.1-.09-.1a.824.824 0 0 0-.19-.06s.03.07.05.1l.23.06ZM34.47 134.26c0-.06-.03-.14-.05-.21-.16-.1-.23-.14-.3-.18l.19.37c.05.01.15.05.15.03ZM33.57 134.14s0 .09.04.15c.01.02.11.06.17.09-.04-.07-.08-.13-.13-.21-.02 0-.08-.03-.08-.03ZM32.39 134.74v.07c.05.02.09.05.11.06 0-.07-.01-.09-.01-.11-.04 0-.08-.02-.1-.01ZM34.2 134.51l.15.12s.02-.02.04-.03c-.06-.04-.11-.08-.17-.12 0 0-.03.03-.02.03Z" class="cls-7"/><path d="M84.75 59.85c-.19.54-.34 1.1-.55 1.64-.05.12-.09.24-.14.35.05-.13-.02.06-.04.09-.04.09-.08.17-.11.26-.34.75-.7 1.48-1.08 2.21-.99 1.9-2.07 3.77-3.21 5.59-.68 1.09-1.39 2.16-2.13 3.2-.2.28-.05.7.23.86.31.18.66.05.86-.23 1.32-1.86 2.53-3.8 3.67-5.77.95-1.65 1.88-3.33 2.67-5.06.42-.92.72-1.85 1.05-2.81.11-.32-.13-.69-.44-.77-.35-.1-.66.12-.77.44Z" class="cls-20"/><path d="m198.61 154.69-42.03 21.91-21.3-31.81 27.75-11.94 35.58 21.84zM121.95 135.96l-14.98 4.64-3.63-13.37s-2.46-16.48-2.86-19.51c-.34-2.55-2.94-9.75-3.75-11.94-.15-.41-.13-.87.07-1.26l2.42-4.81c.34-.67.16-1.49-.43-1.96-2.72-2.15-10.19-8-13.1-9.9-2.72-1.78-8.2-6-10.68-7.93-.7-.55-1.71-.41-2.24.3l-2.2 2.93c-.39.52-1.05.75-1.67.58-.93-.24-2.36-.64-3.72-1.09-2.29-.76-6.96-.29-10.41.53-3.45.83-8.91 4.67-11.36 6.46-2.44 1.78-15.96 17.01-16.65 17.77-8.44 9.29-22.74 34.53-25.1 38.73-.21.38-.26.83-.13 1.25l1.32 4.19c.08.24.21.47.39.65 1.66 1.65 10.28 10.19 11.04 10.16.63-.02 7.17 4.31 10.4 6.48-.96.38-1.65.67-1.7.76l-6.38 17.13c14.16 8.33 47.1 16.73 63.3 13.97l10.46-1.78c.68-.11 1.2-.65 1.3-1.33l-1.81-18.67c.01-.1.15 0 .38.22.24.24.49.48.75.7 9.16 12.48 38.93-16.28 38.93-16.28l-7.97-17.62Zm-94.71 21.92.57-1.65c.55-1.58 2.67-1.28 3.04.07.04.16-1.73.86-3.61 1.58Z" class="cls-22"/><path d="m161.88 136.48-20.94 8.67c-.84.35-1.12 1.41-.55 2.12l17.69 22.3c.41.51 1.12.67 1.7.37l28.26-14.39c.94-.48 1.01-1.78.14-2.37l-25.01-16.58c-.38-.25-.86-.3-1.28-.12Z" class="cls-5"/><path d="m146.37 146.22.1-.17c-.07.05-.14.09-.2.14l-.02.02c-.04.07-.08.14-.13.21-.04.08-.09.17-.13.26.04-.06.09-.14.13-.16.11-.08.18-.17.24-.3ZM146.34 149.33s0 .03.02.04l.04.02-.02-.05-.04-.02Z" class="cls-11"/><g style="clip-path:url(#clippath);fill:none"><path d="M38.42 77.57c4.79-1.1 1.23-7.87-2.7-6.41-3.91 1.48-1.44 8.82 2.7 6.41Z" class="cls-15"/><path d="M45.29 92.88c-3.48-.53-6.64 2.96-3.82 5.91 4.07 4.32 9.6-4.49 3.82-5.91Zm-1.56 4.24s.03.01 0 0ZM51.8 80.66c3.17.66 2.74-4.21 2.54-5.02-2.55-8.01-10.86 5.8-2.54 5.02ZM28.1 102.42c3.17.66 2.74-4.21 2.54-5.02-2.55-8.01-10.86 5.8-2.54 5.02Z" class="cls-4"/><path d="M66.93 71.81c3.29 2.17 6.99-2.64 4.22-5.34-3.18-3.1-8.16 2.94-4.22 5.34ZM50.51 63.61c.29 3.99 4.96 3.28 5.42-.17 2.75-5.57-7.68-5.21-5.42.17ZM22.8 62.96c.55 2.31 2.61 2.6 4.51 3.04 10.57-1.81-6.28-13.49-4.51-3.04Z" class="cls-15"/><path d="M27.62 90.19c1.81-3.36-3.78-7.54-5.4-3.29-2.21 3.37 3.42 6.77 5.4 3.29ZM32.6 109.14c-4.39-1.32-8.3 5.94-2.42 6.77 4.1 2.45 5.85-5.24 2.42-6.77ZM57.17 103.6c-2.48-5.12-8.43 1.87-4.87 4.6 2.83 2.65 7.53-1.81 4.87-4.6ZM48.54 183.03c-2.48-5.12-8.43 1.87-4.87 4.6 2.83 2.65 7.53-1.81 4.87-4.6ZM73.61 94.53c5.44 2.12 6.64-7.27.83-6.46-2.54.7-3.08 5.14-.83 6.46Zm-.12-2.65c-.05-.1-.03-.07 0 0ZM59.26 91.08c5.44 2.12 6.64-7.27.83-6.46-2.54.7-3.08 5.14-.83 6.46Zm-.12-2.65c-.05-.1-.03-.07 0 0Z" class="cls-4"/><path d="M87.79 65.43c4.41-1.35 2.71-7.96-1.89-6.62-3.85 1.14-2.01 7.73 1.89 6.62Z" class="cls-15"/><path d="M91.3 98.17c.7-3.5-5.4-3.54-6.1-.66-1.18 4.63 6.26 5.39 6.1.66Z" class="cls-4"/><path d="M102.54 68.75c-1.57 2.89 2.35 7.28 5.04 4.46 2.92-3.64-1.96-8.45-5.04-4.46Z" class="cls-15"/><path d="M107.01 87.7c-5.44-1.5-6.82 7.48-.76 5.75 2.68-.38 3.59-4.92.76-5.75ZM72.69 106.01c-5.16-1.7-6.22 6-.99 6.14 3.37 0 4.3-5.14.99-6.14ZM44.63 119.51c-3.58 3.28 1.06 9.6 4.2 4.69 1.7-2.54-1.45-6.99-4.2-4.69ZM33.27 132.1c.78-5.29-8.37-2.22-5.6 1.77.47 4.73 7.65 2.09 5.6-1.77ZM44.99 146.97c3.01 1.54 4.94-4.29 1.02-5.57-4.27-3.03-6.19 6.37-1.02 5.57ZM65.75 127.75c-4.87-2.62-8.66 5.9-2.59 6.45 3.31.1 5.25-4.4 2.59-6.45Zm-2.94 5.72c.07.03.14.06.2.1-.07-.03-.13-.07-.2-.1ZM82.96 125.69c3.63-1.16 1.41-6.48-1.67-6.54-5.34.39-4.05 9.26 1.67 6.54ZM103.89 113.42c3.52 2.02 4.63-3.95 2.06-5.37-4.03-1.78-7 4.52-2.06 5.37Z" class="cls-4"/><path d="M119.22 78.56c-4.63 1.03-1.18 7.7 2.46 6.41 3.95-2.09 2.55-10-2.46-6.41Zm3.84 2.31c-.02-.09-.03-.18-.04-.28.03.09.04.18.04.28Zm-1.62-1.81s-.07-.05-.09-.07c.02.01.38.26.09.07ZM120.6 62.08c1.9-2.51-.63-8.05-3.99-5.56-4.01 2.4.59 9.52 3.99 5.56Zm-4.21-.93c.06.08.13.16.19.24-.07-.08-.14-.16-.19-.24Zm2.82-2.36c0 .05 0 .1-.03.16 0-.05.02-.1.03-.16Zm-.21.16c.05-.03.1-.07.15-.11-.04.04-.09.08-.15.11Z" class="cls-15"/><path d="M119.54 100.67c-5.05.58-2.07 8.61 2.18 6.44 2.9-1.58.87-6.64-2.18-6.44ZM70.16 72.13c-5.05.58-2.07 8.61 2.18 6.44 2.9-1.58.87-6.64-2.18-6.44ZM92.83 134.77c-1.69-2.81-5.84-.36-5.82 2.35.59 5.77 8.44 2.38 5.82-2.35Zm-1.46 2.64s0 .02-.01.02c-.14.18-.14.17.01-.02Zm-3.09-.53s-.02-.17-.02-.16c0 .06.01.11.02.16ZM98.47 119.67c-3.18-2.66-8.56 2.23-4.73 5.24 2.93 3.42 9.08-2.33 4.73-5.24ZM64.73 151.2c1.65-2.87-4.77-6.64-5.9-2.93-3.09 4.14 3.6 6.83 5.9 2.93Zm-1.28 1.07s.02-.02.03-.02c0 0-.02.01-.03.02ZM32.02 151.2c-1.56-2.78-6.17-1.46-6.16 1.74.5 4.98 10.12 3.16 6.16-1.74ZM75.78 151.38c8.06 3.19 3.91-11.25-1.11-5.41-.64 1.81-1.07 4.46 1.11 5.41Zm-.46-3.08c-.02-.1 0-.09 0 .01 0 .02-.01-.01 0-.01ZM106.44 140.15c-2.84-6.13-8.7 1.74-3.66 4.27 2.41 1.23 5.03-2.17 3.66-4.27ZM123.34 128.57c3.23-3.08-1.16-7.52-4.68-5.66-3.47 2.87 1.13 8.11 4.68 5.66ZM116.31 144.55c-4.71-.11-3.8 6.57.22 6.5 3.95-.5 4.68-7.93-.22-6.5ZM96.33 152.86c-3.22-1.3-7.25 2.51-4.14 5.44 4.06 4.09 9.01-2.45 4.14-5.44ZM51.82 155.76c-1.78-2.86-6.02.04-5.89 2.75.81 5.46 8.73 1.47 5.89-2.75ZM111.4 156.24c-1.2-1.86-5.15-2.12-6.13.03-1.77 5.83 10.2 5.41 6.13-.03Z" class="cls-4"/><path d="M102.92 46.51c-4.2.1-3.52 6.9.41 6.09 3.21-1.1 3.74-6.35-.41-6.09ZM74.36 54.05c3.94 1.58 4.29-4.82 1.2-5.87-3.13-.68-4.9 5.51-1.2 5.87ZM38.85 54.02c5.91 6.5 6.65-10.25.32-4.39-1.43 1.01-1.99 3.34-.32 4.39Zm4.8-2.36v.05c.02-.12.03-.18 0-.05ZM16.42 72.08c-4.46-2.14-6.65 4.89-2.41 6.21 2.9.15 5.03-4.47 2.41-6.21Z" class="cls-15"/><path d="M16.05 99.42c-3.87 1.02-1.67 7.44 1.96 6.1 3.26-1.46 1.71-7.11-1.96-6.1ZM4.46 127.15c-3.87 1.02-1.67 7.44 1.96 6.1 3.26-1.46 1.71-7.11-1.96-6.1ZM14.81 122.75c-4.65 3.32 3.42 7.78 5 2.92 3.7-2.86-3.71-7.18-5-2.92ZM17.28 141.01c-4.52-1.86-6.36 5.34-1.69 6.33 3.27.63 4.18-4.89 1.69-6.33ZM4.07 140.11c-4.52-1.86-6.36 5.34-1.69 6.33 3.27.63 4.18-4.89 1.69-6.33ZM136.65 115.35c.57-4.68-4.82-5.96-6.49-1.53-1.21 3.92 7.23 7.03 6.49 1.53Z" class="cls-4"/><path d="M136.69 91.91c-.73-2.85-5.03-3.56-6.27-.69-1.99 5.12 7.02 5.95 6.27.69ZM131.62 72.38c3.84 1.79 6.02-2.16 4.23-5.34-3.59-3.26-8.71 2.53-4.23 5.34Z" class="cls-15"/><path d="M135.81 139.21c-1.03-2.72-6.6-1.52-5.75 1.62.81 5.35 8.88 3.57 5.75-1.62ZM30.76 168.77c-2-4.11-6.98-.59-6.29 3 1.46 4.32 8.71.73 6.29-3ZM134.91 162.45c-.91-3.3-6.28-4.15-6.54.03-.39 4.89 7.56 5.02 6.54-.03Zm-1.59-1.95s.03.03.04.05c-.01-.02-.07-.07-.04-.05ZM126.01 159.51c-.91-3.3-6.28-4.15-6.54.03-.39 4.89 7.56 5.02 6.54-.03Zm-1.59-1.95s.03.03.04.05c-.01-.02-.07-.07-.04-.05Z" class="cls-4"/><path d="M16.19 167.79c.95-4.29-4.85-5.87-6.8-2.21-2.18 4.55 5.76 7.06 6.8 2.21Zm-1.3-1.32c.04.23-.06-.18-.11-.27.04.09.08.18.11.27Zm.03.16-.06-.45.06.45ZM10.08 48.06c-1.21 3.39 3.43 7.94 6.14 4.38 3.12-3.68-4.15-9.28-6.14-4.38Zm4.25 1.08Zm-.18-.31v-.02c.02.03.03.07 0 .02Zm.8-.78s-.03-.02-.04-.02c-.02-.04-.02-.05.04.02ZM131.22 50.6c3.58 4.7 8.67-2.78 4.14-5.48-3.44-2.14-7.25 2.78-4.14 5.48ZM147.8 78.78c-4.57-2.36-6.97 4.89-2.35 6.32 3.94 1.15 6-4.55 2.35-6.32Zm-2.44 3.59c.05.06.14.18.05.06-.01-.02-.04-.04-.05-.06ZM149.08 56.57c-2.5-3.39-7.64 2.13-3.94 4.45 2.99 1.97 6.03-1.69 3.94-4.45ZM151.13 34.23c-2-2.3-6.59-.49-5.61 2.71.82 5.84 9.45 1.68 5.61-2.71Zm-1.74 3.47c.11-.12.22-.25.33-.39-.11.13-.19.29-.33.39Zm-.11.12c.09-.03.17-.07.26-.11-.09.03-.17.07-.26.11ZM147.41 101.67c-3.22-.71-5.64 3.18-3.16 5.54 4 3.72 8.22-4.06 3.16-5.54Z" class="cls-15"/><path d="M146.82 125.56c-3.7-1.02-4.42 5.46-.99 6.09 4.27 1 5.16-5.52.99-6.09Z" class="cls-4"/><path d="M148.48 152.64c-2.66-2.51-6.3 2.13-4.24 4.64 3.14 4.1 7.24-1.53 4.24-4.64ZM145.99 175.88c-8.82-1.73-.35 11.74 2.87 3.91.25-1.83-1.13-3.72-2.87-3.91Z" class="cls-15"/><path d="M125.36 182.62c-5.39-.59-3.49 7.52 1.1 6.39 3.43-1.21 2.03-5.81-1.1-6.39ZM103.18 167.82c-5.39-.59-3.49 7.52 1.1 6.39 3.43-1.21 2.03-5.81-1.1-6.39ZM83.77 182.78c-2.16-1.88-7.05.85-5.05 3.77 2.61 4.48 9.8-.56 5.05-3.77Z" class="cls-4"/><path d="M54.85 181.66Z" class="cls-15"/><path d="M21.33 183.54c-.96-3.54-6.96-1.91-6.18 1.61 1.21 4.6 7.69 3.07 6.18-1.61Zm-2.49.62c.03.12 0 .17 0 0Zm0 0c.02.05.03.1 0 0Z" class="cls-4"/><path d="M1.82 179.18c-3.72-2.19-6.4 2.73-3.59 5.4 3.82 3.07 9.15-3.39 3.59-5.4ZM5.06 152.72c-3.02-2.11-7.72 1.2-5.73 4.77 2.59 4.22 9.71-1.63 5.73-4.77ZM5.35 117.55c4.46-1.52-.05-8.11-3.32-4.94-2.49 2.29.21 6.62 3.32 4.94Z" class="cls-15"/><path d="M3.46 88.2c-4.29 3.55.35 9.24 4.41 5.02.88-3.04-1.16-5.96-4.41-5.02Z" class="cls-4"/><path d="M1 64.69c-3.37 2.29-.35 8.58 3.08 4.43 2.23-1.76-.8-6.56-3.08-4.43ZM28.52 38.97c-2.85-2.32-6.08 4.09-2.55 5.13 3.29 1.2 5.14-3.12 2.55-5.13Zm-1.6 2.44s.03.03.05.06c0 0-.02-.02-.05-.06ZM6.98 37.08c3.05 1.67 6.45-2.33 4.18-5.03-3.18-3.93-8.4 2.62-4.18 5.03ZM8.5 33.8ZM-.32 51.44c3.35-.7 3.09-5.95-.33-6.29-4.65-.45-4.35 7.38.33 6.29Zm-.63-3.2s.01.07-.02-.02c0 0 0 .01.02.02ZM42.03 36.41c4.57 3.88 7.48-5.63 2.18-6.11-2.61.09-3.96 4.34-2.18 6.11ZM55.62 47.51c4.56 1.53 5.64-4.42 1.54-5.67-3.66-1.16-4.79 4.57-1.54 5.67ZM88.2 44.24c4.09.62 4.22-5.89.18-5.73-3.83-.04-3.87 5.45-.18 5.73ZM117.07 42.59c2.91 1.6 5.42-2.87 2.93-4.79-2.9-3.34-5.97 2.99-2.93 4.79Zm.98-2.56s0-.01 0 0ZM131.8 33.97c2.46 4.22 7.44-2.26 3.16-4.01-2.31-.66-5.35 1.92-3.16 4.01ZM153.02 71.75c2.86 3.64 7.1-2.22 3.13-4.25-2.7-1.65-5.87 2.29-3.13 4.25ZM154.52 92.43c-5.03 1.35-.26 7.51 3.14 4.27 2.16-2.05-.57-5.93-3.14-4.27ZM153.57 115.53c-4.27 1.51-.45 8.09 3.06 4.87 2.39-2.32-.11-5.99-3.06-4.87ZM155.18 139.83c-2.7-.73-4 2.67-3.09 4.75 3.1 4.48 7.69-3.08 3.09-4.75ZM155.95 167.89c-1.14-1.07-3.16 1.46-1.16 1.78 1.09.31 1.93-.88 1.16-1.78ZM139.71 192.6c-2.67-1.88-5.85 1.34-4.82 4.12 1.79 4.47 8.86-1.33 4.82-4.12Z" class="cls-15"/><path d="M95.33 193.75c-2.89-3.92-7.82 2.12-3.81 4.55 2.81 1.91 6.34-2.13 3.81-4.55ZM63.21 178.47c-2.89-3.92-7.82 2.12-3.81 4.55 2.81 1.91 6.34-2.13 3.81-4.55Z" class="cls-4"/><path d="M29.99 200.28c.31-3.26-6.03-3.79-5.38-.18-.96 3.96 6.97 3.91 5.38.18ZM9.98 197.4c-3.04-2.67-6.54 2.16-3.37 4.34 2.84 3.47 6.36-2.16 3.37-4.34ZM23.18 21.48c.83 3.52 6.71 1.09 5.71-2.29-1.81-2.81-6.28-1.55-5.71 2.29ZM62.24 27.24c3.53-1.21 2.62-6.21-1.09-5.56-2.63 1.37-2.76 6.38 1.09 5.56ZM73.05 36.39c2.21 1.5 5.71-2.7 4-4.57-2.35-5.18-6.83 2.04-4 4.57ZM100.78 32.78c3.58 3.54 6.93-3.28 3.06-5.24-3.14-1.27-5.03 3.02-3.06 5.24ZM115.95 20.1c.41 4.83 7.22 1.97 5.05-1.82-.52-4.25-5.82-1.46-5.05 1.82ZM146.58 23.49c4.01.85 3.96-3.75 1.22-5.01-3.44-.51-4.57 4.02-1.22 5.01ZM163.15 47.34c-.46-2.35-5.41-1.27-5.33 1.13 0 4.42 7.65 3.09 5.33-1.13Z" class="cls-15"/></g><path d="m162.31 176.6-3.39 3.42 5.87 8.21 2.16-11.13-4.64-.5z" class="cls-22"/><path d="M158.03 156.93s.01.04.03.09c.01-.03.03-.05.03-.08.01-.05.03-.1.03-.14s0-.08-.02-.13l-.02-.1s-.07.08-.07.12v.24ZM158.06 156.41s0 .07.02.07h.1v.03s.04-.04.05-.07c0-.02 0-.06-.02-.07a.193.193 0 0 0-.1-.03s-.03.04-.03.07ZM157.08 155.92s-.04.04-.05.07c0 .01.01.05.02.07.04-.03.07-.05.09-.07-.02-.03-.04-.07-.06-.08ZM161.23 159.6s0 .03.02.03c.04.02.07.03.14.06-.03-.05-.04-.08-.06-.09h-.09ZM162.94 161.96s.02.07.03.12a.23.23 0 0 0 .03-.09c0-.03-.02-.05-.03-.08-.01.02-.04.04-.04.05ZM158 157.24s.05-.02.05-.03c0 0-.02-.01-.03-.03-.01 0-.02.02-.03.03v.03ZM156.93 156.96s-.05.08-.07.13v.12c.03-.07.05-.1.06-.14v-.1ZM163.05 162.37s.04-.06.04-.07v-.08c-.01.02-.03.04-.04.06v.09ZM162.99 161.27s.02-.04.02-.05-.01-.04-.02-.04c0 0-.02.02-.03.04.02.02.03.04.03.05ZM159.94 159.25l.03.03h.07c-.02 0-.03-.02-.05-.03h-.06ZM157.38 158.39s.05.04.07.06c.04.01.07.03.11.04-.02-.02-.04-.04-.06-.05-.04-.02-.08-.03-.12-.05ZM158.77 158.85h-.07l.03.03h.07s-.02-.02-.03-.02ZM163.13 160.62s.01.05.03.11c0-.04.01-.06 0-.07 0-.02-.01-.04-.02-.07 0 .01-.02.03-.02.03ZM162.29 158.99s-.03-.04-.04-.06h-.03c0 .02.02.03.03.05 0 0 .02 0 .04.02ZM161.65 160.2v.03s.02.01.03.02v-.03c-.01 0-.02-.02-.03-.03ZM158.04 157.3s.01 0 .01-.01h-.03s.01.01.02.01ZM157.86 158.59s0 .03.02.04h.04c0-.02-.02-.03-.03-.04h-.03ZM161.75 162.12s-.01.02-.01.03v.04c0-.02.01-.03.01-.04v-.03ZM161.77 162.4v.04s0-.01.01-.02v-.03ZM162.67 162.99v-.03.05-.03ZM160.93 159.13l.05.06-.03-.06h-.02zM171.79 150.77l.15.03-.13-.12-.02-.01c-.05-.01-.11-.03-.17-.05l-.18-.05s.1.05.11.08c.06.08.14.11.23.13ZM172.25 153.2s-.01.03-.01.04c.01.04.03.08.05.15.01-.06.03-.1.02-.12-.01-.03-.04-.05-.06-.07ZM173.46 156.2l.05.12c0-.05.02-.08.02-.09 0-.03-.03-.05-.04-.08-.01.02-.03.05-.03.05ZM173.63 156.61s.03-.07.03-.09c0-.03-.01-.05-.02-.08-.01.02-.03.04-.03.07 0 .02 0 .04.02.1ZM173.41 155.54s.02-.03.01-.05c0-.01-.02-.03-.03-.03 0 0-.02.02-.03.04l.04.04ZM171.72 152.22v.03c.02 0 .03.02.04.02v-.04s-.03-.01-.04-.02ZM171.04 151.64h-.06s0 .02.02.03h.06s-.01-.02-.02-.02ZM173.52 154.99s0 .04.02.08c0-.03.01-.05.01-.06 0-.02 0-.03-.02-.05 0 0-.02.02-.02.03ZM173.42 153.54s.01-.04.01-.06c0 0 0-.01-.01-.02 0 .02-.01.03-.02.05 0 0 0 .02.02.03ZM172.18 154.15v.05c0 .01 0 .03.01.05 0-.01 0-.03.01-.05 0-.02-.01-.04-.02-.06ZM172.31 156.54v.03s0 .02.01.03v-.03s0-.02-.01-.03ZM172.37 156.78v.04s0-.01.01-.01c0 0 0-.02-.01-.02ZM173.27 157.34v-.03s-.01.01-.01.02v.04c0-.02.01-.02.01-.03ZM172.42 152.68l-.01.06.02-.05-.01-.01z" class="cls-11"/><path d="m198.61 154.69-1.01 5.63a4.643 4.643 0 0 1-2.52 3.34l-37.61 18.36c-.52.26-1.12.33-1.69.2-.27-.06-.52-.16-.75-.3l-12.64-7.55 13.43 1.74c.55.07 1.11-.03 1.6-.28l41.19-21.14Z" style="fill:#a3b2b4"/><path d="M164.65 187.46h-.03c-.01 0-.02-.02-.03-.04l.02-.03c.07.03.06-.02.05-.07 0 0 .01-.02.02-.03-.06-.03-.02-.09 0-.12.02-.07 0-.16-.05-.16-.07 0-.09-.07-.09-.13 0-.09-.03-.16-.05-.23.03-.06-.03-.04-.04-.06 0 0-.03 0-.04.01 0 .02.01.04.02.05h.04c-.03.03-.06.07-.02.12.04.04.01.04-.02.05-.05.02-.06.04-.02.08v.04c0 .03-.01.07-.02.1v.03l.02-.01h.04v.06c-.02.02-.05.03-.07.05 0 0-.01.03-.02.05v.07s0 .02.01.03l.15-.12.02-.04c.03 0 .05.02.07.03 0 .02-.01.05-.03.06-.04.03-.05.05-.05.11 0 .03-.03.06-.05.09 0 0-.03-.03-.05-.04-.01 0-.03-.02-.03-.01-.03.02-.05.05-.07.08v.04s.02-.01.03-.01c.03 0 .06.02.09.02l-.04.05s-.02.02-.01.03l.02.02c.07-.03.15-.07.22-.11l.02-.04ZM165 187.26s-.05-.02-.03-.06v-.03l-.06-.12c0-.01-.02-.02-.03-.03-.02.06-.06.11-.06.17 0 .04 0 .07-.01.1v.04s.02-.01.03 0c.02 0 .04 0 .06.01V187.46s.01-.03.02-.02c.03 0 .06.02.08.04.02.02.03.06.04.09 0-.03.02-.06.03-.08l.09-.15v-.05l-.12-.03ZM164.51 187.64s-.07.05-.1.08c-.02.02-.04.05-.04.06.02.03.08.03.07.1h.03c.08-.04.07-.13.09-.21v-.06c-.02 0-.03.01-.05.02ZM164.59 185.3c.02-.05.04-.1.05-.16v-.17s-.03-.03-.04-.02c-.03 0-.08.15-.05.18.05.05.02.1 0 .15v.04s.02-.01.03-.02ZM164.55 186.28h.01s0-.08-.03-.11c-.01-.02-.1.07-.1.1v.11s.01.02.02.02c.09-.05.05.04.06.07v.03s.02-.02.02-.03l.02-.2ZM165.12 187.21h.02c.03-.04.05-.09.07-.13v-.06c0-.03-.02-.06-.03-.08-.02.02-.04.05-.06.07-.02.03-.05.06-.07.09 0 0 0 .02-.01.03.05-.01.07.02.07.07ZM165.31 186.69v-.15l.11.22s.06-.01.09-.03c.02 0 .04-.03.05-.04 0-.1-.05-.18-.1-.25 0 0-.03 0-.05.01-.02 0-.03.02-.05.03 0-.03-.01-.07 0-.07.06-.05 0-.09 0-.14 0-.03 0-.07.01-.08.03-.02.08-.06.1-.04.05.04.04-.02.06-.04l.03.02v-.05h.03l-.06.28s.02.03.02.02c.04-.02.08-.04.12-.07.01 0 .03-.01.04-.02v.06a.27.27 0 0 1-.07.08l-.03.02c0 .1-.06.19-.02.28v.07c0 .03-.01.07-.01.1s.02.06.01.07c-.05.06-.1.11-.16.17-.02.02-.04.02-.06.03v.06c.01 0 .03-.01.04-.01h.07v.06c-.02.01-.05 0-.07.02-.05.02-.08 0-.11-.04-.07-.09-.06-.16.03-.23.03-.02.06-.09.05-.11-.04-.06 0-.12 0-.18-.02.02-.04.03-.06.05-.02.02-.02.05-.04.06h-.05c0-.01 0-.03.01-.03.07-.04.06-.11.05-.18Zm.17.29h-.02s-.02.03-.02.04 0 .02.01.03c0-.01.02-.02.03-.03v-.04Zm-.02-.67s.02-.02.02-.03v-.04c-.01.02-.02.03-.03.04 0 0 0 .02.01.02ZM165.38 181.88l-.03-.09-.07.09v.24s.02-.07.04-.08c.06-.04.06-.1.05-.16ZM165.03 183.76s-.02-.03-.04-.07c0 .02-.02.03-.03.05 0 .03-.02.06-.02.09s.02.06.02.09l.02.07s.06-.05.06-.07c0-.05 0-.11-.02-.16ZM165.34 187.56c0 .07-.02.17.06.22.01 0 .02.02.03.04l.04-.07s-.03 0-.04-.02c-.01 0-.02-.02-.03-.04 0-.04-.01-.08-.02-.13 0-.02 0-.03-.01-.07-.02.04-.04.06-.03.07ZM165.02 184.1s0-.04-.02-.05c-.03 0-.07 0-.1-.01v-.02s-.04.03-.04.04c0 .01 0 .04.02.04.03.02.07.03.1.03 0 0 .03-.03.03-.04ZM164.62 185.74s-.05-.07-.08-.1l-.06.06c.02.04.04.09.06.09.02 0 .05-.03.08-.05ZM164.9 186.36s-.04.05-.04.08.02.06.03.08c.02-.01.03-.02.06-.04-.02-.05-.03-.08-.05-.12ZM165.98 184.56s.04-.03.06-.05c0-.01 0-.04-.02-.06-.04.02-.07.03-.1.04.02.03.03.06.06.07ZM165.96 185.02s.02-.02.04-.05c-.02-.03-.03-.05-.05-.07l-.05.04.06.08ZM164.53 185.55s0-.07-.01-.1c-.03.03-.05.04-.07.07.02.02.03.04.05.06 0 0 .03-.02.03-.03ZM166.74 180.4l.02-.02v-.13c-.03.04-.05.06-.05.08 0 .03.03.05.04.07ZM166.13 178.05s-.01-.05-.03-.09c-.02.03-.03.05-.03.06 0 .02.01.04.02.06.01 0 .04-.02.04-.03ZM164.71 184.51c-.04.05-.03.13.02.14l.02-.1-.04-.04ZM164.74 184.65h-.01v.01l.01-.01zM165.05 183.42s-.05.03-.06.05c0 .02.01.04.02.07.01-.02.02-.03.03-.05v-.07Z" class="cls-5"/><path d="M164.98 187.11s.03-.03.03-.04c0-.02-.01-.04-.03-.08-.02.03-.04.05-.04.06 0 .02.02.04.03.07ZM166.11 183.78l.05-.05s0-.03-.02-.05c-.02.02-.04.03-.04.05 0 .01 0 .03.02.05ZM165.64 186.27s.03-.03.05-.06c-.01-.02-.02-.03-.03-.05-.01.02-.03.04-.04.07 0 0 .01.03.02.04ZM166.03 177.72l-.05.05v.06l.04-.04v-.07ZM165.76 185.46s.04-.03.06-.03c0 0-.02-.03-.03-.03-.02 0-.04.01-.06.02 0 .01.02.03.03.04ZM165.9 185.26s.01 0 .02-.01c-.01-.02-.02-.05-.04-.08-.01.01-.02.02-.02.03.01.02.03.05.04.07ZM165.93 184.84s.01.04.02.05l.04-.04c-.01-.01-.03-.03-.04-.03l-.02.02ZM164.66 186.5h-.01s-.03.04-.05.07v.03c.01-.02.03-.04.04-.07v-.03ZM164.75 187.24s-.01-.02-.02-.02-.03.01-.04.03v.05c.01 0 .02 0 .03-.02.01 0 .02-.02.03-.04ZM166.07 178.51s-.02.02-.02.03c0 .01 0 .03.02.03 0 0 .02-.01.03-.02-.01-.02-.02-.03-.03-.04ZM164.7 185.2s.02-.01.03-.02c-.01-.02-.03-.04-.04-.06 0 .01-.02.03-.02.03 0 .02.02.03.03.05ZM164.73 185.09s.03-.01.03-.02 0-.03-.02-.07c-.02.03-.03.04-.03.05 0 .01 0 .03.02.03ZM166.7 181.49l.03-.03s0-.04-.01-.06c0 .01-.02.03-.02.04v.04ZM164.62 185.36s-.02.02-.03.02c0 0 .01.03.02.03s.02-.01.04-.03c-.02-.01-.03-.02-.04-.02ZM165.89 184.86s0-.02-.01-.03l-.03.03s.01.02.02.02c0 0 .02-.01.03-.02ZM166.33 183.15l.03-.03c0-.02 0-.03-.01-.05 0 0-.02.02-.02.03v.05ZM166.43 182.31v.05s.01 0 .03-.02c0-.02 0-.03-.01-.05 0 0-.02.01-.02.02ZM165.16 183.88s-.02-.02-.03-.04c0 .01-.02.03-.02.03 0 .01.02.02.03.03 0 0 .01 0 .02-.01ZM165.13 187.64l.02-.04v-.03h-.02s-.01.03-.02.04c0 0 0 .01.01.02ZM165.86 178.86v-.06c-.01.02-.02.03-.02.04v.04s.02 0 .02-.01ZM165.69 179.87l-.03.03v.02l.03-.03v-.03ZM165.11 187.48s0 .01.01.02l.02-.02s0-.01-.01-.03c0 .01-.02.02-.02.03ZM167.01 179.75s.02-.02.02-.03v-.04s-.01.02-.02.03v.04ZM165.04 183.24s-.02.01-.02.02v.02l.02-.02s0-.01-.01-.02ZM166.35 182.9s.02 0 .03-.01v-.02c-.01 0-.02.01-.03.02v.02ZM167.3 178.09s.01 0 .01-.02v-.03l-.01.02v.02ZM164.65 184.77v-.04c0 .01-.01.02-.01.03v.02s.01 0 .01-.01ZM165.03 185.74s.01.02.02.02l.01-.02-.02-.02-.02.02ZM167.29 177.91v-.02h-.01v.02ZM166.51 177.3v.02s.01 0 .01-.01v-.03l-.02.02ZM165.34 185.93s-.04.03-.04.04c0 .02.02.04.03.06 0 0 .03-.01.03-.02 0-.02 0-.04-.01-.07ZM166.41 180.73l.04-.04-.04.03v.01z" class="cls-5"/><path d="m156.44 175.88-20.91-30.74c-.09-.13-.29-.09-.33.07l-2.44 11.51s0 .09.02.12l1.58 2.88c.05.09.16.12.25.07l1.11-.64c.09-.05.2-.02.25.07l5.76 9.98c.05.09.02.2-.07.25l-1.34.77c-.08.05-.11.16-.07.24l2.1 3.83c.03.05.08.08.14.09l13.78 1.79c.15.02.26-.15.17-.28Z" style="fill:#d8e6e9"/><path d="m135.87 159.05-1.43.83 5.72 10.42 1.65-.95-5.94-10.3z" style="fill:#edc25c"/><path d="M155.58 182.36s-.06.03-.09.05c-.01 0-.04.03-.03.04.03.02.09.02.08.07h.03c.07-.03.05-.09.07-.14v-.04c-.01 0-.03 0-.04.01ZM155.34 180.83l.03-.1c0-.04 0-.07-.01-.11 0 0-.03-.01-.05-.01-.03 0-.06.1-.03.12.05.03.03.06.03.1v.03s.02 0 .03-.02ZM155.44 181.47h.01s-.02-.05-.04-.07c-.01-.01-.09.05-.09.07 0 .02.01.05.02.07l.02.01c.08-.03.05.02.07.04v.02s.01-.01.01-.02v-.13ZM156.13 182.06h.02l.06-.09v-.04c0-.02-.02-.04-.03-.06l-.05.05-.06.06v.02c.05 0 .07.01.08.05ZM155.63 178.53s-.03-.04-.04-.06l-.05.07c0 .02.02.05.02.07 0 .03.01.05.02.08.01-.02.01-.04.03-.06.05-.03.05-.07.02-.11ZM155.56 179.79s-.02-.02-.05-.04c0 .01-.02.03-.02.04v.06c0 .02.02.04.04.05l.03.04s.05-.04.05-.05c0-.03-.03-.07-.04-.1ZM156.39 182.29c.02.05 0 .12.08.15.01 0 .03.02.04.03l.03-.05s-.03 0-.04-.01c-.01 0-.03-.01-.03-.03l-.03-.09c0-.01 0-.02-.02-.05-.01.03-.03.04-.03.05ZM155.6 180.02s-.01-.03-.02-.03h-.1s-.03 0-.03.02c0 0 .01.03.03.03.03 0 .07.01.11.01 0 0 .03-.02.03-.03ZM155.43 181.11s-.06-.04-.1-.06c0 0-.02.02-.05.04.03.02.05.05.07.06.02 0 .05-.02.07-.04ZM155.8 181.5s-.03.03-.03.05c0 .02.03.04.04.05.01 0 .03-.02.05-.03-.02-.03-.04-.05-.06-.08ZM156.61 180.25s.04-.02.05-.04c0 0-.01-.03-.03-.04l-.09.03c.02.01.04.03.07.04ZM156.66 180.56s.01-.02.03-.03c-.02-.02-.04-.03-.06-.05l-.04.03.07.05ZM155.32 181s-.01-.04-.03-.07c-.03.02-.04.03-.07.05.02.01.04.03.06.04 0 0 .03-.01.03-.02ZM156.77 177.47s.02-.01.02-.02c0-.02-.01-.04-.03-.08-.02.03-.04.04-.04.05 0 .02.03.03.05.04ZM155.83 175.92s-.02-.03-.04-.07c-.01.02-.03.03-.03.04 0 .02.02.03.03.04.01 0 .04-.02.03-.02ZM155.35 180.3s-.01.09.04.09v-.07l-.04-.03ZM155.53 179.56s-.04.02-.05.04c0 .01.02.03.03.04 0-.01.02-.03.03-.04 0-.02 0-.03-.01-.04ZM155.98 182s.02-.02.02-.03c0-.01-.02-.03-.04-.05-.02.02-.03.03-.03.04 0 .02.03.03.04.04ZM156.63 179.73s.03-.02.04-.03c0 0-.01-.02-.03-.03-.02.02-.03.03-.03.04 0 0 .01.02.02.03ZM156.51 181.41s.02-.03.04-.04l-.03-.03c-.01.01-.03.03-.03.04l.03.03ZM155.7 175.68s-.04.03-.04.04c0 .01 0 .03.01.04.01 0 .03-.02.04-.03 0 0 0-.02-.01-.05ZM156.52 180.86s.04-.02.05-.03c-.01 0-.02-.02-.03-.02-.02 0-.04.01-.06.02.01 0 .02.02.04.03ZM156.63 180.72h.02c-.01-.02-.03-.03-.05-.05l-.02.02c.01.01.03.03.05.04ZM156.61 180.44l.03.03.03-.03c-.02 0-.03-.01-.05-.02 0 0-.02.01-.02.02ZM155.58 181.61h-.01s-.03.03-.04.05c0 0 0 .01.01.02.01-.01.03-.03.03-.04v-.02ZM155.77 182.09s-.02-.02-.02-.01c-.01 0-.03 0-.04.02v.03c.01 0 .02 0 .03-.01.01 0 .02-.02.03-.03ZM155.84 176.24s-.02.01-.02.02.01.02.02.02c0 0 .02 0 .03-.02-.02-.01-.03-.02-.04-.03ZM155.43 180.76s.02 0 .03-.01c-.02-.01-.03-.02-.05-.04l-.01.02c0 .01.02.02.03.03ZM155.45 180.68s.03 0 .03-.02c0 0 0-.02-.03-.04-.01.02-.03.03-.03.04 0 0 .01.02.02.02ZM156.88 178.19l.02-.02c0-.01-.01-.03-.02-.04 0 0-.02.02-.02.03s0 .02.01.03ZM155.38 180.87s-.02.01-.03.02c0 0 .02.02.02.01.01 0 .02-.01.04-.02-.02 0-.03-.01-.04-.01ZM156.56 180.46l-.02-.02-.02.02.02.01s.02 0 .02-.02ZM156.75 179.3l.02-.02s-.01-.02-.02-.03c0 0-.02.01-.02.02s0 .02.01.03ZM156.73 178.74s0 .02.01.03c0 0 .01 0 .02-.01 0-.01-.01-.02-.02-.03 0 0-.02 0-.02.01ZM155.71 179.86s-.02-.01-.04-.03l-.01.02s.02.01.03.02c0 0 .01 0 .02-.01ZM156.19 182.35s.01-.02.01-.03v-.02h-.01s-.01.02-.01.03c0 0 .01 0 .02.01ZM155.68 176.49s0-.02-.01-.04c0 .01-.02.02-.02.03 0 0 0 .02.01.03h.02ZM155.65 177.17s-.02.02-.02.03h.03l-.01-.02ZM156.15 182.24l.01.01s.01 0 .01-.01l-.01-.02s-.01.01-.01.02ZM156.94 177.04l.01-.02v-.03s0 .01-.02.02c0 0 0 .02.01.03ZM155.5 179.45s-.01 0-.01.01l.01.01h.02s0-.02-.02-.02ZM156.74 179.13h.03v-.02c-.01 0-.02 0-.03.01 0 0 0 .01.01.01ZM156.99 175.96l-.01-.02v.01c0 .01 0 0 .01.01ZM155.32 180.48s0-.01-.01-.02v.02c0 .01 0 0 .01.01h.01ZM155.84 181.09s.02 0 .02.01c0 0 .01-.01 0-.01 0 0-.01 0-.02-.01l-.01.01ZM156.96 175.85v-.01h-.01v.01ZM156.12 175.39v.02h.01v-.02s-.01 0-.01.01ZM156.18 181.2s-.04.03-.03.03c0 .01.02.02.03.03 0 0 .02-.01.02-.02s-.01-.03-.02-.05ZM156.49 177.7l.03-.02-.04.02h.01z" class="cls-5"/><path d="m188.47 170.67 1.21-5.19-22.82 11.9-2.06 10.85 18.47-8.13.33-4.05c.21-2.52 2.39-5.16 4.88-5.38Z" class="cls-11"/><path d="m187.2 176.13 1.27-5.46c-2.48.22-4.67 2.85-4.88 5.38l-.33 4.05 1.42-.62a4.582 4.582 0 0 0 2.52-3.34Z" style="fill:#b64e33"/><path d="M180.19 174.93s.01-.06.01-.09-.01-.05-.02-.08c-.02.02-.04.05-.05.07v.18c0 .02.01.03.02.04 0-.01.02-.03.03-.04 0-.03 0-.06.01-.09ZM179.98 176.6s.01-.08.01-.11c0 0 0-.02-.01-.02s-.03 0-.03.02c0 .04-.01.08-.02.15v.11c.07-.02.03-.09.05-.14Z" class="cls-17"/><path d="M149.32 148.85c0 .08.27.17.77.25.5.07 1.24.15 2.19-.03.47-.1.99-.27 1.49-.58.5-.31 1-.8 1.28-1.47.27-.65.36-1.47 0-2.25-.37-.78-1.17-1.28-1.95-1.44-.81-.17-1.6-.02-2.25.21-.66.24-1.21.54-1.74.85-.53.31-1.04.69-1.42 1.17a2.9 2.9 0 0 0-.64 1.57c-.05.53.11 1.05.39 1.38.27.34.59.52.87.6.58.15.88-.09.84-.15-.02-.09-.31-.06-.66-.28-.36-.22-.76-.74-.6-1.44.07-.34.26-.71.56-1.03.3-.32.71-.6 1.2-.85 1-.5 2.16-1.08 3.21-.85.53.11.96.4 1.15.78.2.38.19.89.04 1.32-.31.86-1.2 1.39-1.96 1.64-.78.25-1.49.31-1.97.39-.49.07-.77.14-.77.22ZM159.39 143.89c0 .08.27.17.77.25.5.07 1.24.15 2.19-.03.47-.1.99-.27 1.49-.58.5-.31 1-.8 1.28-1.47.27-.65.36-1.47 0-2.25-.37-.78-1.17-1.28-1.95-1.44-.81-.17-1.6-.02-2.25.21-.66.24-1.21.54-1.74.85-.53.31-1.04.69-1.42 1.17a2.9 2.9 0 0 0-.64 1.57c-.05.53.11 1.05.39 1.38.27.34.59.52.87.6.58.15.88-.09.84-.15-.02-.09-.31-.06-.66-.28-.36-.22-.76-.74-.6-1.44.07-.34.26-.71.56-1.03.3-.32.71-.6 1.2-.85 1-.5 2.16-1.08 3.21-.85.53.11.96.4 1.15.78.2.38.19.89.04 1.32-.31.86-1.2 1.39-1.96 1.64-.78.25-1.49.31-1.97.39-.49.07-.77.14-.77.22Z" class="cls-3"/><path d="M180.36 179.12s.08-.06.13-.12c0-.04.01-.08 0-.11-.02.03-.05.07-.07.11-.02.04-.04.09-.07.13Z" class="cls-17"/><path d="M83.63 182.04c1.81 1.45 4.34 1.55 6.65 1.36.61-.05 1.27-.14 1.71-.56.44-.43-.06-.47-.62-.71.74-.01 1.39.51 2.13.52.74 0 1.09-.88 1.54-1.46.45-.58-.16-1.58-.85-1.83 1.06-.07 2.77-.71 2.77-1.77l-.2-1.31c.19.06 1.03.14 1.23.05.36-.16.54-.59.53-.99-.01-.4-.17-.77-.34-1.13-.58-1.29-.28-.52-.85-1.81-.75-1.68-8.66-5.21-9.83-6.63-1.17-1.43 2.85 1.52 1.01 1.35 1.71-.95 2.41 1.23 3.64-.28.5-.61-1.32 1.51-1.72.83-.38-.65 2.93-1.59 2.32-2.03s-3.74-3.99-4.99-3.99l-3.66-1.25c-1.05.64-1.6.75-2.81.91-.45.06-.1.53-.47.8-.77.58-3.21.28-3.71 1.11-.69 1.12-2.86-.26-3.58.85-.85 1.3.66 6.46 4.73 15.65m16.72-6.47-1.27-1.63c.46.51.88 1.06 1.27 1.63Z" class="cls-13"/><path d="m52.56 171.61 3.16-.1a8.25 8.25 0 0 0 4.08 2.58l19.25 5.23-4.18-15.2-9.7-4.78c-1.7-.8-2.44-2.03-4.27-1.59" class="cls-13"/><path d="M73.21 178.39s-.07-.03-.11-.05l.11.05ZM94.2 180.43s.02.02.03.04c-.01-.01-.02-.03-.03-.04Z" class="cls-20"/><path d="M98.88 174.47c-.05-.67-.29-1.35-.63-1.93-.5-.89-1.28-1.58-2.09-2.18-1.22-.9-2.57-1.59-3.92-2.3.11-.05.22-.11.32-.18.42-.3.75-.71.9-1.21.1-.34.1-.69 0-1.02a.657.657 0 0 0-.21-.51c-1.52-1.45-3.08-2.86-4.98-3.79-.92-.45-1.89-.8-2.9-.98-.83-.16-1.72-.26-2.57-.28-.4 0-.76.06-1.08.28-.28.19-.56.37-.84.55a20.718 20.718 0 0 1-2.34 1.25c-.35.16-.49.22-.86.36-.73.28-1.47.49-2.24.62h-.04c-.04 0-.09.01-.13.02-.09 0-.19.02-.28.02-.19.01-.39.02-.58.01-.09 0-.18 0-.27-.01-.04 0-.14-.01-.19-.02h-.05l-.16-.03c-.07-.02-.14-.03-.21-.05-1.5-.83-3-1.66-4.51-2.49-2.43-1.34-4.87-2.69-7.3-4.03-.56-.31-1.12-.62-1.67-.92-.79-.44-1.5.77-.71 1.21 1.53.85 3.07 1.69 4.6 2.54 2.43 1.34 4.87 2.69 7.3 4.03.55.3 1.1.61 1.65.91.05.03.11.06.19.08 1.36.38 2.82.16 4.14-.24 1.28-.39 2.51-.97 3.67-1.63.4-.23.79-.46 1.17-.71.16-.1.34-.2.49-.32h.42c.33.02.65.07.98.09 1 .07 1.97.31 2.9.67 2.01.78 3.62 2.21 5.17 3.66.03.05.06.1.1.14-.02-.02-.03-.03 0 0 0 .02 0 .04.01.06v.11c0 .03-.02.07-.03.1v.01c-.03.1-.03.04 0 0-.04.05-.07.14-.1.18l-.09.09c-.02.02-.05.04-.07.07-.04.02-.07.05-.11.07-.02.01-.14.05-.04.03.11-.03-.05.02-.06.02-.04.01-.08.03-.13.03-.04 0-.08.02-.13.03h-.01c-.19.01-.37.02-.56 0-.24 0-.46-.01-.69 0-.35-.21-.7-.43-1.03-.66-.03-.03-.07-.05-.11-.08a1.43 1.43 0 0 0-.15-.11c-.09-.07-.18-.14-.26-.21-.2-.17-.38-.35-.56-.54-.26-.28-.73-.26-.99 0-.28.28-.26.71 0 .99.05.06.11.12.17.17.06.12.16.23.3.29.49.45 1.03.84 1.6 1.2.06.11.14.22.26.28.11.06.22.08.34.08.76.44 1.56.83 2.31 1.23.92.49 1.85.97 2.72 1.54.2.13.39.26.58.39.25.18.27.2.5.39.34.29.65.6.94.94 0 .01.01.02.02.02 0 0 0 .01.02.03.03.05.07.1.1.15.07.1.13.2.18.3.05.09.09.18.14.27.01.03.03.07.04.08.04.12.09.24.13.36.11.35.2.71.04 1.06-.12.27-.31.51-.46.76-.38-.46-.9-.81-1.42-1.1-1.9-1.05-3.82-2.04-5.74-3.06-.8-.42-1.5.78-.71 1.21 1.53.82 3.06 1.64 4.6 2.45.72.38 1.58.72 2.13 1.32.4.43.39 1.04.01 1.43-.21.21-.56.32-.91.36h-.17c-.03 0-.05-.01-.06-.01-.17-.04-.33-.1-.49-.15-.09-.03-.19-.07-.28-.11-.05-.02-.11-.04-.16-.07-.02 0-.04-.02-.07-.03h-.01c-.31-.14-.62-.28-.93-.43-.12-.07-.25-.14-.37-.21a.754.754 0 0 0-.24-.08c-.52-.25-1.04-.52-1.55-.78-.83-.43-1.66-.85-2.46-1.34-.77-.48-1.47.73-.71 1.21.76.46 1.56.87 2.34 1.28.77.4 1.54.79 2.32 1.16.47.27.92.57 1.35.9.07.06.24.19.37.3s.25.24.37.36c.01.01.02.03.03.04-.02-.02.02.02.03.04l.01.01-.01-.01c.03.05.06.09.08.14.01.05.03.1.04.15V181c0 .25-.18.6-.38.75-.18.13-.4.19-.62.24-.1.02-.24 0-.33.03-.06-.02-.12-.03-.18-.05-.17-.05-.33-.11-.5-.17-.09-.04-.19-.07-.28-.11-.05-.02-.11-.04-.16-.07h-.01c-.02 0-.03-.01-.05-.02l-.75-.33c-.57-.26-1.14-.53-1.71-.8-1.18-.57-2.35-1.16-3.52-1.76-.78-.4-1.59-.79-2.34-1.25-.75-.46-1.47.73-.71 1.21.7.43 1.45.79 2.17 1.16 1.25.65 2.51 1.28 3.77 1.89.68.33 1.36.65 2.05.96-.08.13-.14.21-.24.31-.06.06-.11.11-.17.16-.02.02-.11.07 0 0-.03.02-.05.03-.08.05-.06.03-.12.07-.18.1-.02 0-.08.03-.09.04-.1.03-.2.05-.31.07-.02 0-.07 0-.11.01h-.21c-.24 0-.48 0-.72-.02-1.99-.04-3.91-.95-5.69-1.76-3.36-1.54-6.55-3.48-10.01-4.82-2.13-.82-4.31-1.5-6.48-2.18-2.73-.86-5.48-1.69-8.21-2.54-2.2-.68-4.4-1.35-6.57-2.11-.18-.06-.36-.13-.54-.2-.35-.13-.77.15-.86.49-.11.39.13.73.49.86 2.06.77 4.17 1.4 6.26 2.05 2.78.86 5.56 1.71 8.34 2.58 2.3.72 4.61 1.43 6.87 2.28.19.07.38.14.57.22.08.03.16.07.25.1.03.01.1.04.1.05.05.02.1.04.15.07.95.42 1.89.87 2.83 1.33 1.9.94 3.76 1.95 5.68 2.85 1.92.9 3.95 1.86 6.08 2.11 1.31.15 2.79.17 3.72-.91.18-.21.33-.43.46-.66.3.11.63.23.95.23 1.18-.01 2.31-.69 2.61-1.88.14-.55.1-1.18-.19-1.67-.02-.04-.05-.07-.07-.1a2.7 2.7 0 0 0 1.21-.56c.64-.52.97-1.41.84-2.23.23.01.45-.08.6-.34.4-.69.87-1.29.8-2.15ZM82.54 161.5c-.06-.02-.03-.01.01 0Zm11.76 19.04ZM82.56 161.5ZM92.11 166.34v.01-.01Z" class="cls-20"/><path d="m122.71 138.12 27.77-11.5 11.58 12.6 2.42.69-2.06 1.66-9.49-5.05-1.19 1.25-5.23.84 4.96 2.95-.39 1.78-7.08-.06-6.07-1.41-6.49 5.48-3.46 2.66-1.06-1.68a30.78 30.78 0 0 1-3.53-7.82l-.7-2.4Z" class="cls-13"/><path d="M164.19 138.61c-.34-.08-.69-.06-1.04-.07l-.8-.02c-.34-.33-.64-.7-.95-1.04-.83-.89-1.67-1.78-2.51-2.66-.95-1-1.92-1.99-2.91-2.96-.43-.42-.87-.84-1.32-1.25-.18-.17-.37-.33-.56-.49-.08-.07-.17-.14-.25-.22a.806.806 0 0 1-.12-.14 5.864 5.864 0 0 1-.54-1.02c-.06-.14-.07-.17-.16-.37-.06-.14-.11-.28-.17-.42-.1-.24-.19-.49-.35-.7-.27-.35-.81-.53-1.22-.65-1.02-.3-1.98-.06-2.98.2-.71.19-1.43.36-2.13.59-1.93.62-3.83 1.39-5.71 2.14-1.87.74-3.72 1.53-5.56 2.33-3.71 1.62-7.38 3.33-11.08 4.99-.49.22-.99.44-1.48.66-.35.15-.43.66-.25.96.21.35.61.41.96.25 3.69-1.64 7.35-3.35 11.04-4.99 3.6-1.6 7.24-3.11 10.94-4.46.73-.27 1.45-.53 2.2-.74l1.21-.33c.43-.11.87-.26 1.31-.34.42-.07.84-.03 1.24.1.16.05.29.13.43.2v.01c.02.04.04.09.06.13 0 .02.02.04.02.06.06.14.12.29.17.43.14.35.28.7.45 1.04s.34.63.57.9c.16.19.35.33.53.49.41.35.8.72 1.19 1.09.97.93 1.92 1.89 2.85 2.86 1.4 1.46 2.76 2.96 4.16 4.42l.11.11c.09.08.19.13.3.16.06.02.13.04.2.04s.98.03.98.03h.47c.07.01.13.02.2.02h.07v.1a.66.66 0 0 1-.04.11c.06-.16-.04.05-.06.08v.02l-.02.02c-.04.04-.07.08-.11.12-.01.01-.09.08-.12.1-.03.02-.11.08-.12.08-.05.03-.1.06-.16.09-.02.01-.05.02-.08.03-.07.02-.13.05-.2.07-.09.03-.19.05-.28.06-.02 0-.11.01-.14.01H161.98c-.01 0-.08 0-.11-.01-.29-.04-.58-.11-.86-.19-.02-.01-.04-.03-.06-.04-1.33-.79-2.65-1.58-3.98-2.37-2.1-1.25-4.21-2.51-6.31-3.76-.49-.29-.97-.58-1.46-.87-.77-.46-1.48.75-.71 1.21.03.02.05.03.08.05-.23.09-.47.18-.7.27-1.13.42-2.26.86-3.36 1.35-.68.31-1.9.74-1.65 1.71.15.56.79.81 1.27.99.59.22 1.21.36 1.82.52.66.17 1.33.33 1.98.56.07.02.13.05.2.07.05.02.2.09.07.03.17.08.35.16.52.24.41.19.83.38 1.23.59.2.1.39.21.57.34.14.09.2.16.27.31.09.2.1.58.01.77-.04.07-.13.16-.22.2.04-.01-.14.03-.14.03-.13.02-.27.02-.41.02-.53.03-1.06.05-1.59.07-2 .07-4.03.06-6-.34-.97-.2-1.94-.47-2.84-.88-.51-.23-.99-.51-1.56-.53-.57-.03-1.06.26-1.49.6-.79.63-1.51 1.36-2.25 2.04-.74.68-1.44 1.32-2.16 1.97-1.42 1.26-2.89 2.48-4.46 3.56-.42.29-.84.57-1.27.84-.76.48-.06 1.69.71 1.21 3.34-2.12 6.22-4.8 9.13-7.46.37-.34.74-.69 1.12-1.02.31-.27.54-.42.94-.27.49.18.95.44 1.44.62s.94.33 1.43.46c1.99.52 4.06.65 6.11.63 1.02-.01 2.05-.06 3.07-.12 1.09-.07 1.84-.77 1.91-1.88.03-.46-.08-.98-.34-1.37s-.65-.66-1.06-.9c-.74-.42-1.54-.79-2.33-1.1-.41-.16-.82-.29-1.24-.4.63.05 1.27.09 1.9.11.69.02 1.45.07 2.1-.17.6-.22 1.09-.65 1.49-1.16 1.99 1.19 3.99 2.38 5.98 3.57.49.29.97.58 1.46.87.03.02.05.02.08.04.07.06.15.1.25.13 1.16.33 2.49.48 3.54-.26.55-.38.96-.9 1.04-1.58.08-.68-.31-1.36-.99-1.52Zm-12.82-10.54v.01c-.07-.06-.02-.04 0-.01Zm2.34 1.67s-.01-.01 0 0Zm-9.58 8.54c-.02.02-.04.03-.05.03 0 0 .03-.02.05-.04Zm6.57-1.01c-.57.12-1.22.05-1.8.03-.77-.03-1.54-.09-2.31-.17.3-.12.59-.23.89-.35.89-.34 1.79-.68 2.7-.97.48.29.96.57 1.44.86-.24.3-.56.53-.93.61Zm13.09 2.8s0 .02 0 0Zm0-.01v-.05.05Zm.07-.09s.07.03 0 0Z" class="cls-20"/><path d="M175.42 155.33c.07 0 .15-.29.09-.8-.05-.51-.26-1.26-.78-2.05a5.493 5.493 0 0 0-2.56-2.1c-.61-.25-1.26-.34-1.81-.48-.28-.07-.53-.16-.75-.28-.22-.12-.42-.28-.54-.45a.946.946 0 0 1-.17-.58c0-.24.05-.53.1-.86.05-.32.09-.7.03-1.1-.06-.4-.25-.79-.5-1.07-1.03-1.12-2.5-1.09-3.37-.72-.91.36-1.45.88-1.81 1.22-.35.36-.51.59-.46.65.05.07.31-.05.74-.28.43-.22 1.03-.59 1.79-.79.39-.1.78-.12 1.19-.03.41.09.82.32 1.07.64.25.33.28.67.16 1.27-.05.29-.13.63-.13 1.05-.01.4.11.91.39 1.28.54.74 1.34 1.04 1.99 1.19.67.15 1.23.21 1.71.38.97.33 1.74.95 2.26 1.57 1.06 1.25 1.17 2.38 1.37 2.34ZM163.47 162.21c.07.04.29-.16.49-.63s.38-1.24.16-2.19c-.21-.94-.9-2-2.07-2.6-.59-.32-1.29-.43-1.86-.52-.58-.09-1.08-.25-1.39-.57a.729.729 0 0 1-.23-.49c-.02-.2.03-.45.1-.74s.15-.61.18-.98-.04-.78-.19-1.11c-.31-.68-.85-1.1-1.38-1.35-.53-.26-1.1-.34-1.57-.32-.95.04-1.63.33-2.07.53-.44.21-.67.37-.64.45.03.08.3.07.78 0 .47-.06 1.15-.2 1.92-.13.39.04.76.13 1.13.35.36.21.68.53.82.9.07.19.1.37.07.59-.02.22-.1.49-.18.79-.08.31-.17.67-.15 1.11.02.44.24.93.56 1.24.63.64 1.45.8 2.07.89.64.09 1.13.15 1.57.35.89.4 1.48 1.15 1.74 1.85.27.71.25 1.38.2 1.82-.05.45-.12.71-.04.75Z" class="cls-3"/><path d="M83.14 139.1c-.03-.16-.1-.32-.05-.47.04-.13.16-.15.01-.1h-.06.09v.01c.01 0 .04.01.07.03.07.04.11.12.1.09 0-.01-.02-.05-.02-.09 0 0 0 .07-.02.09-.03.08-.05.06.04 0 .04-.03.09-.04.11-.05h.08s-.03 0-.05-.01c-.1-.03-.14-.11-.1-.05.04.05.05.21.04.19-.04.11-.01.02 0 .02.02-.02.06-.05.09-.06.07-.03.07-.01.01-.02-.05 0-.12-.03-.15-.05-.11-.06-.16-.25-.23-.39-.06-.14-.26-.27-.55-.11-.27.16-.54.59-.4 1.18.07.29.32.68.76.86.42.19.91.15 1.29-.03s.73-.48.92-.99c.2-.54.08-1.14-.19-1.55-.27-.42-.65-.67-1.09-.8-.43-.13-.96-.07-1.3.12a1.7 1.7 0 0 0-.78.81c-.16.33-.18.75-.05 1.07.25.6.73.75 1.03.71.32-.04.41-.26.38-.41ZM79.16 156.45c-.03-.16-.1-.32-.05-.47.04-.13.16-.15.01-.1h-.06.09v.01c.01 0 .04.01.07.03.07.04.11.12.1.09 0-.01-.02-.05-.02-.09 0 0 0 .07-.02.09-.03.08-.05.06.04 0 .04-.03.09-.04.11-.05h.08s-.03 0-.05-.01c-.1-.03-.14-.11-.1-.05.04.05.05.21.04.19-.04.11-.01.02 0 .02.02-.02.06-.05.09-.06.07-.03.07-.01.01-.02-.05 0-.12-.03-.15-.05-.11-.06-.16-.25-.23-.39-.06-.14-.26-.27-.55-.11-.27.16-.54.59-.4 1.18.07.29.32.68.76.86.42.19.91.15 1.29-.03s.73-.48.92-.99c.2-.54.08-1.14-.19-1.55-.27-.42-.65-.67-1.09-.8-.43-.13-.96-.07-1.3.12a1.7 1.7 0 0 0-.78.81c-.16.33-.18.75-.05 1.07.25.6.73.75 1.03.71.32-.04.41-.26.38-.41ZM164.71 187.7c.33.06 1-2.17 1.49-4.98.5-2.81.63-5.13.31-5.19-.33-.06-1 2.17-1.49 4.98s-.63 5.13-.31 5.19ZM155.71 182.12c.33.03.71-1.2.84-2.73.13-1.54-.03-2.81-.36-2.84-.33-.03-.71 1.2-.84 2.73-.13 1.54.03 2.81.36 2.84Z" class="cls-7"/></g><g id="Outline"><path d="M71.06 89.23c.3.12 1.07-.86 1.97-2.67.44-.91.91-2.04 1.23-3.39.33-1.35.48-2.93.23-4.59-.25-1.66-.91-3.21-1.9-4.37-.99-1.16-2.2-1.85-3.27-2.16-1.08-.32-2.02-.27-2.61-.1-.6.17-.86.42-.83.57.07.35 1.3.25 2.8 1.1.74.42 1.54 1.07 2.17 1.96.62.88 1.07 2.06 1.27 3.36.4 2.64-.25 5.18-.69 7.05-.46 1.88-.69 3.12-.37 3.24ZM54.68 115.8c-.65-.3-3.49 5.3-8.78 10.72-5.22 5.49-10.69 8.55-10.37 9.18.14.28 1.72-.12 4.03-1.34 1.16-.6 2.47-1.43 3.87-2.46a36.84 36.84 0 0 0 4.21-3.72c1.38-1.44 2.57-2.94 3.55-4.35.97-1.43 1.75-2.78 2.31-3.96 1.12-2.36 1.47-3.95 1.18-4.08Z" class="cls-7"/><path d="M59.84 154.77c.45-.46-4.9-6.28-12.68-12.06-7.77-5.81-14.87-9.26-15.19-8.7-.35.59 6.1 4.92 13.75 10.63 7.66 5.69 13.65 10.63 14.12 10.13ZM49.64 172.08c.26-.61-5.62-3.7-13.12-6.9-7.51-3.2-13.81-5.29-14.07-4.68-.26.61 5.62 3.7 13.12 6.9 7.51 3.2 13.81 5.29 14.07 4.68ZM72.24 161.16c.08.02.35-.98.77-2.79.41-1.81 1-4.43 1.73-7.66 1.46-6.47 3.55-15.39 6.15-25.17 2.6-9.78 5.22-18.55 7.17-24.89.97-3.17 1.76-5.74 2.31-7.51.54-1.78.8-2.77.72-2.8-.08-.03-.49.92-1.16 2.65-.68 1.73-1.59 4.26-2.67 7.4-2.16 6.28-4.91 15.05-7.52 24.85-2.6 9.8-4.57 18.77-5.82 25.3-.62 3.26-1.08 5.91-1.36 7.75-.28 1.84-.39 2.86-.31 2.88Z" class="cls-7"/><ellipse cx="69.65" cy="184.09" class="cls-7" rx=".6" ry="4.1"/><path d="M93.16 119.14c-.33 0-.86 9.75-1.19 21.8-.32 12.05-.31 21.83.02 21.83s.86-9.75 1.19-21.8c.32-12.05.31-21.83-.02-21.83Z" class="cls-7"/></g></svg>