<svg xmlns="http://www.w3.org/2000/svg" viewBox="0 0 200 149.87"><defs><style>.cls-2{fill:#f70}.cls-4{fill:#7e557c}.cls-5{fill:#ba917a}.cls-6{fill:#b8d8dc}.cls-7{fill:#c297d7}.cls-8{fill:#fff}.cls-9{fill:#f6f5c5}.cls-11{fill:#fcbe0c}.cls-12{fill:#ff5100}.cls-13{fill:#ffa84d}.cls-14{fill:#603b5d}</style></defs><path d="M197.67 103.95c-.66-6.55-1.18-13.13-1.99-19.66-.32-2.56-1-5.11-3.13-6.77-1.9-1.48-1.58-1.53-3.93-1.65-3.08-.16-6.19 0-9.28.04a1707.55 1707.55 0 0 0-30.36.66c-1.69.05-3.37.11-5.06.16-1.55.05-3.14.12-4.66-.24-2.57-.61-4.39-2.54-5.76-4.7-1.52-2.41-2.66-5.06-3.89-7.63-1.45-3.03-2.91-6.06-4.36-9.09-2.88-6-5.73-12-8.64-17.99-2.11-4.35-4.49-8.8-8.03-12.17-1.65-1.57-3.57-2.86-5.72-3.65-2.65-.96-5.51-.95-8.25-.41-3.2.63-6.24 1.91-9.34 2.92a111.339 111.339 0 0 1-47.02 4.78c-6.43-.73-12.9-2.14-19.39-1.3-4.79.62-9.6 2.69-12.84 6.36-1.62 1.84-2.81 4.05-3.31 6.46-.63 3.07-.26 6.21.35 9.24.85 4.19 1.93 8.34 2.94 12.48 2.31 9.46 4.72 18.91 7.19 28.33 2.39 9.09 4.82 18.17 7.45 27.2.51 1.75 1.03 3.5 1.56 5.25.16.54.64.72 1.07.66.09.03.18.05.29.05h3.15c.07 0 .14-.01.21-.03.22 0 .44-.07.65-.25 5.39-4.86 10.96-9.55 16.67-14.02 1.1-.86 2.21-1.7 3.34-2.53h39.56c.62 0 .93-.48.93-.96l108.64-.37.75.18c.51.04.28-.7.21-1.36z" style="fill:#575655" id="BG_Strong"/><g id="Illustrations"><path class="cls-5" d="M54.52 37.34s2.31.12 3.01.37.27-.56 0-1.39-.6-2.64-.59-3.4-.05-2.26-.05-2.26l-1.73-4.84s2.94-3.35 4.27-3.98 6.52-2.25 7.5-1.86 3.52 2.37 4.36 3.56c.84 1.19 2.41 3.84 3.03 5.19s3.35 4.77 3.55 5.23-.69 1.67-.46 3.17.93 4.97 1.06 6.04.45 2.37.11 3.41-.5 1.99-1.53 3.11c-1.03 1.12-2.29 2.75-2.54 3.48s-.14 3.26-.14 3.26-4.93 2.05-6.42 2.58c-1.5.53-6.77.77-6.77.77s-1.05-6.27-1.34-7.48-.67-4.82-1.28-5.54-1.26-1.58-2.18-2.65-2.77-5.09-2.77-5.09.05-1.48.94-1.68z"/><path class="cls-5" d="m32.3 99.16-1.94-14.41 2.76-5.53s8.61-14.88 8.67-15.96 3.05-6.65 3.05-6.65l8.73-2.84c.12-.04 1.8-.8 2.04-1.05s3.04-2.84 3.04-2.84.54-3.45-.49-4.24c-.7-.54-3.08 1.55-3.18 1.36-.25-.47 1.67-3.03 1.18-3.63s-2.95-5.21-2.88-5.66-.25-3-.25-3l-.69-2.47-2.21-2.12s-2.03 3.17-2.78 4.84-2.16 5.19-2.66 6.46-1.27 2.7-1.27 2.7S28.35 59.99 25.7 62.95c-2.65 2.96-9.71 11.15-11.02 12.96s-4.86 7.23-5.91 9.54C7.72 87.76 5.2 95.53 5.2 95.53s-1.42 1.9-1.41 3.02-.36 1.99 1.51 1.89 13.68-.3 16.49-.5 10.51-.79 10.51-.79zM104.41 92.63l1.31-2.9 2.7 3.51s4-10.35 4.08-10.54 5.51-14.96 5.55-14.77 2.21 8.82 2.21 8.82 1.84.92 2.91.74 1.71-.32 1.77-.34-4.53 20.28-5.43 23.31l-3.41 11.48s-7.81-13.36-8.61-14.58-3.08-4.72-3.08-4.72zM62.9 70.24s7.7-.68 10.1-1.76 5.47-3.21 5.47-3.21.61 1.15-.06 2.65c-.67 1.5-1.19 2.61-3.09 3.16-1.91.54-7.57 1.64-8.59 1.2s-3.82-2.04-3.82-2.04z"/><path class="cls-8" d="M74.74 104.27s-.35-1.15-.66-2.18-5.64-17.22-6.59-19.58-5.07-11.43-5.07-11.43 2.99.77 5.25 1.14c2.26.36 5.46-.26 6.94-.89 1.48-.63 3.49-1.83 3.64-2.61s.71-1.72.71-1.72l13.68 31.92 11.37-1.71-6.76-13.58-2.78-5.57s-6.32-11.22-7.46-12.39c-1.14-1.17-1.34-1.91-1.34-1.91s4.78.05 7.9 4.16c3.12 4.1 13.57 17.89 13.57 17.89l-2.74 6.82 13.74 23.68-25.09.14-3.37.35H66.11l-2.39-7s3.19.26 4.15-.13 2.41-1.53 3.39-2.21 2.79-2.08 3.42-1.87.06-1.33.06-1.33"/><path class="cls-5" d="M115.9 57.54c-.07-.11-1.08-4.91-1.08-4.91s.53-2.62.69-2.83-.33-.66-.69-1.16-1.73-1.68-2.33-1.58-1.29-.24-.99.86 1.63 4.85 1.7 5.72.05 1.03.34 1.53 2.37 2.36 2.37 2.36z"/><path class="cls-12" d="M129.86 63.16c-.11.16 1.88 8.8 1.88 8.8s-2.62.26-3.66.54c-1.03.28-2.83.79-4.17 1.61-1.34.82-3.31 2.31-3.31 2.31l-5.99-24.53s.28-2.19 1.99-3.19 4.38-1.65 5.96-1.65 3.07 1.04 3.07 1.04l1.09 3.26-2 1.28s.95 1.36 1.66 1.61 1.65.23 1.62.42.08 1.86.08 1.86-2.12.51-1.9 1.02 1.28 1.47 1.65 1.61.98 0 1.02.2.6 1.46.6 1.46l-.24.94.66 1.42z"/><path class="cls-12" d="M120.82 77.22s.1-1.33 2.21-2.53 4.5-2.41 5.94-2.37c1.43.04 2.94.16 2.97.5s-.08 1.29-.91 1.95-2.72 1.92-4.64 2.42c-1.93.5-5.26 1.15-5.55.03z"/><path class="cls-11" d="m74.74 104.27-3.01.77-2.04-2.49-2.71.88-1.81 4.05-3-4.6-2.47.2s-1.44 1.22-1.7 1.46 0 .99 0 .99l.33.62-3.19.21s-1.96-6.79-2.39-9.81-1.76-13.94-1.87-17.79-.13-6.95.5-9.07 1.69-2.87 2.48-2.94 2.28.79 2.49-.53.72-1.88.59-2.89-.53-1.55 0-2.73.33-1.27 1.02-1.87 1.46-1.35 1.46-1.35.38 2.05.75 2.2 3 .15 3.88.06 5.48-.87 6.77-1.39c1.28-.52 3.54-1.77 3.54-1.77l-.15-1.55s-.5-1.12.29-1.72 2.38-.8 2.54 0 .99 2.22.9 2.93.02 2.4 1.15 2.34 1.95-.29 3 .9 3.38 3.67 4.53 5.9S92.76 75.9 93.97 78s6.87 12.04 7.92 14.26 2.13 4.98 2.13 4.98L93 98.96s-3.7-7.25-5.02-10.93c-1.32-3.68-3.57-11.15-5.41-14.03-1.84-2.88-4.09-8.71-4.09-8.71s-1.83 1.8-4.85 2.95-7.21 2.08-8.44 2.02-3.35.08-3.35.08 2.35 4.93 3.22 6.61 4.32 10.77 5.49 13.91 4.2 13.43 4.2 13.43z"/><path class="cls-8" d="m107.15 85.81-2.74 6.82S90.31 70.88 89.7 70.24s-3.87-6.13-3.87-6.13 4.08.63 4.25.88 3.72 3.8 5.04 5.25 12.03 15.57 12.03 15.57z"/><path class="cls-4" d="M61.9 16.47c-.11-.17-.35-3.4.24-4.7s1.41-2.82 2.82-3.45c1.41-.63 4.06-.79 4.06-.79s3.03.53 3.62 2.77 1.66 3.84 1.25 6.31-.51 3.05-.88 4.21-1.16 3.5-1.16 3.5l-2.83-2.97-.73-1.47.73-1.57-1.15.24-1.71-4.85-2.1 2.7-1.14.21-1.02-.14z"/><path class="cls-8" d="M66.23 116.96h33.68c.64 0 .64-.99 0-.99H66.23c-.64 0-.64.99 0 .99zM106.67 85.68l-2.14 5.68c-.09.25.1.54.35.61.28.08.51-.09.61-.35.71-1.89 1.43-3.78 2.14-5.68.09-.25-.1-.54-.35-.61-.28-.08-.51.09-.61.35zM85.55 64.25c1.54.28 3.09.63 4.46 1.42.55.32 1.05-.54.5-.85-1.45-.83-3.07-1.22-4.7-1.52-.26-.05-.53.07-.61.35-.07.24.08.56.35.61z"/><path class="cls-8" d="M90.01 65.67c2.58 1.95 4.62 4.47 6.57 7.02 2.19 2.85 4.33 5.72 6.49 8.59 1.21 1.6 2.42 3.2 3.65 4.79.16.21.43.32.68.18.21-.12.34-.46.18-.68-2.22-2.88-4.39-5.78-6.58-8.68l-3.27-4.32c-1.04-1.35-2.07-2.71-3.2-3.99a27.96 27.96 0 0 0-4.01-3.76c-.21-.16-.55-.03-.68.18-.15.25-.04.52.18.68zM63.48 71.38c2.07 1.34 4.6 1.49 6.98 1.22 1.23-.14 2.48-.33 3.68-.63s2.36-.76 3.31-1.56c1.01-.85 1.68-2.01 1.85-3.32.03-.27-.25-.49-.49-.49-.3 0-.46.23-.49.49-.13.98-.7 1.85-1.42 2.5-.82.74-1.88 1.14-2.93 1.41-1.07.27-2.17.46-3.26.59-1.11.14-2.23.2-3.35.09-1.2-.12-2.36-.49-3.38-1.14-.54-.35-1.03.51-.5.85z"/><path class="cls-11" d="M56.48 63.13c-.31.95-.45 1.95-.61 2.94l.35-.35c-.42.07-.66.36-1.02.54-.03.02-.02.02-.08.02 0 0-.13-.04-.19-.06-.24-.06-.5-.08-.75-.06-.99.1-1.78.77-2.36 1.54-.62.82-.98 1.82-1.21 2.81-.25 1.06-.34 2.16-.36 3.25-.03 2.25.19 4.51.35 6.76s.33 4.63.54 6.94c.23 2.56.52 5.11.88 7.65.04.26.37.41.61.35.28-.08.38-.34.35-.61-.62-4.37-1-8.77-1.31-13.18-.16-2.22-.34-4.44-.41-6.67-.06-1.99 0-4.13.89-5.96.39-.79 1.08-1.74 2.02-1.88.43-.07.82.18 1.25.07.4-.11.66-.48 1.04-.55.15-.03.32-.19.35-.35.16-.99.29-1.98.61-2.94.2-.61-.76-.87-.95-.26zM58.78 65.75c.8 1.63 1.72 3.19 2.6 4.78s1.66 3.12 2.42 4.71c1.53 3.19 2.88 6.46 4.12 9.76.71 1.89 1.38 3.79 2.03 5.7.2.6 1.16.34.95-.26-1.15-3.4-2.39-6.78-3.76-10.1-1.36-3.29-2.86-6.53-4.55-9.66-.98-1.81-2.04-3.58-2.95-5.42-.12-.24-.46-.31-.68-.18-.24.14-.3.44-.18.68z"/><path class="cls-14" d="M124.46 77.52c-.82 4.36-1.76 8.7-2.82 13.01-1.09 4.44-2.29 8.85-3.63 13.22-.75 2.45-1.54 4.88-2.39 7.29-.09.25.1.54.35.61.27.07.52-.09.61-.35 1.5-4.3 2.84-8.65 4.06-13.03s2.31-8.78 3.28-13.21c.53-2.42 1.03-4.85 1.49-7.28.05-.26-.07-.53-.35-.61-.24-.07-.56.08-.61.35z"/><path class="cls-8" d="M94.55 79.13c3.24 4.8 6.46 9.61 9.6 14.47 3.07 4.76 6.05 9.57 8.88 14.48 1.62 2.8 3.18 5.63 4.69 8.49.3.56 1.15.06.85-.5-2.67-5.07-5.52-10.03-8.51-14.92s-6.05-9.62-9.19-14.35c-1.81-2.73-3.64-5.45-5.47-8.17-.35-.53-1.21-.03-.85.5z"/><path class="cls-14" d="M117.67 68.24c-1.27 3.47-2.65 6.89-4.03 10.31s-2.89 7.11-4.27 10.7c-.65 1.68-1.28 3.37-1.85 5.07-.2.6.75.86.95.26 1.09-3.25 2.37-6.45 3.64-9.63 1.45-3.63 2.94-7.25 4.38-10.89.73-1.85 1.45-3.7 2.13-5.56.09-.25-.1-.54-.35-.61-.28-.08-.52.09-.61.35z"/><path class="cls-14" d="M105.47 89.74c.77 1.35 1.56 2.69 2.36 4.02.33.54 1.19.05.85-.5-.81-1.33-1.59-2.67-2.36-4.02-.32-.55-1.17-.05-.85.5z"/><path class="cls-11" d="M59.34 65.02c-1.19-.28-1.53-1.82-1.74-2.85-.14-.68-.16-1.35.06-2.01.19-.56.54-1.06.98-1.45s1.06-.66 1.67-.67.64-1 0-.99c-1.54.02-2.88 1.11-3.46 2.49-.34.8-.4 1.63-.27 2.49.12.8.34 1.62.7 2.35s.97 1.39 1.81 1.59c.62.15.88-.81.26-.95z"/><path class="cls-11" d="M59.35 59.54c.86.86 2.1.76 3.21.68s2.31-.2 3.46-.37c2.29-.33 4.56-.89 6.66-1.89 1.19-.57 2.3-1.29 3.31-2.16.2-.17.18-.52 0-.7-.2-.2-.5-.17-.7 0-3.33 2.86-7.8 3.71-12.05 4.07-.59.05-1.18.11-1.77.11-.51 0-1.04-.07-1.42-.45-.45-.45-1.15.25-.7.7z"/><path class="cls-11" d="M75.35 53.59c.68-.01 1.29.38 1.67.94.21.31.36.65.42 1.03.06.39-.02.78-.06 1.17-.05.44-.02.91.25 1.28.25.34.64.52.92.84.49.57.67 1.39.67 2.12 0 1.08-.41 2.12-.84 3.09-.11.24-.07.53.18.68.21.12.57.07.68-.18.82-1.83 1.51-4.04.39-5.91-.25-.41-.57-.72-.95-1.01-.14-.11-.26-.2-.3-.38-.04-.2-.01-.42.01-.62.06-.48.1-.91 0-1.39-.08-.43-.27-.86-.51-1.23-.57-.84-1.48-1.45-2.52-1.43-.64.01-.64 1 0 .99z"/><path class="cls-14" d="M116.47 57.52c-.39-.69-.91-1.31-1.49-1.85-.25-.24-.52-.45-.77-.69l-.18-.18c-.03-.03-.06-.06-.09-.1-.11-.12.02.03-.03-.04s-.1-.14-.14-.22c-.05-.09-.07-.15-.09-.19-.09-.25-.34-.42-.61-.35-.24.07-.44.36-.35.61.27.76.86 1.22 1.43 1.74s1.07 1.09 1.46 1.77c.13.23.45.31.68.18s.31-.44.18-.68z"/><path class="cls-14" d="M113.64 54.3a18.79 18.79 0 0 0-1.72-6.19c-.11-.24-.46-.3-.68-.18-.25.14-.29.43-.18.68a17.68 17.68 0 0 1 1.58 5.69c.03.27.21.49.49.49.25 0 .52-.23.49-.49z"/><path class="cls-14" d="M111.84 47.99c.03.06 0-.06 0-.02v-.1c-.01.07.03-.08.03-.08-.02.04.02-.02.02-.03.06-.09.22-.17.38-.19.33-.05.71.06 1.02.24.78.43 1.25 1.22 1.65 1.99.12.24.45.31.68.18.24-.14.3-.44.18-.68-.57-1.09-1.32-2.15-2.52-2.58-.56-.2-1.25-.23-1.77.08-.59.35-.81 1.07-.53 1.69.11.24.46.3.68.18.25-.15.29-.43.18-.68z"/><path class="cls-7" d="m147.33 115.98 1.14-9.32s-.24-.11-.63-.27c.24.06.5-.13.56-.35.08-.28-.1-.51-.35-.61-1.92-.77-3.85-1.63-5.93-1.84-2.03-.2-3.91.5-5.64 1.5-1.76 1.02-3.45 2.18-5.15 3.29-1.77 1.15-3.52 2.31-5.27 3.49-1.95 1.32-3.88 2.67-5.79 4.06-.17.13-.27.33-.23.53 0 .25.16.5.48.5H147.27c.61 0 .63-.91.06-.98zm-1.86-10.52-.09-.03.09.03z"/><path class="cls-8" d="M99.9 116.96h18.25c.64 0 .64-.99 0-.99H99.91c-.64 0-.64.99 0 .99z"/><path class="cls-14" d="M57.89 45.78c.88 3.59 1.6 7.22 2.24 10.85.18 1.03.36 2.06.52 3.1.04.26.37.41.61.35.28-.08.39-.34.35-.61-.58-3.81-1.33-7.59-2.16-11.35-.19-.87-.39-1.74-.6-2.6-.15-.62-1.11-.36-.95.26zM76.57 36.63c.17.67.37 1.34.54 2.02.19.75.33 1.5.47 2.26.27 1.43.54 2.87.57 4.32.01.66-.02 1.31-.22 1.94s.76.87.95.26c.41-1.26.28-2.69.11-3.99-.2-1.57-.48-3.16-.85-4.7-.19-.8-.43-1.58-.63-2.37-.16-.62-1.11-.36-.95.26zM66.47 20.19c3.71 1.59 5.82 5.41 7.46 8.89.46.98.96 2.04 1.32 2.98.1.25.33.42.61.35.24-.07.44-.36.35-.61-.37-.95-.8-1.87-1.22-2.79-.45-.98-.93-1.94-1.45-2.88-.99-1.78-2.16-3.52-3.68-4.9-.86-.78-1.82-1.43-2.88-1.89-.25-.11-.53-.07-.68.18-.12.21-.07.57.18.68z"/><path class="cls-14" d="M77.98 47.05c-.64 1.28-1.58 2.41-2.42 3.56-.45.62-.91 1.25-1.29 1.92-.32.58-.6 1.23-.55 1.91.06.79.35 1.54.54 2.3.15.62 1.11.36.95-.26s-.4-1.28-.5-1.94c0-.04-.02-.21-.02-.29 0-.14 0-.16.03-.27.08-.33.23-.65.39-.94.71-1.29 1.69-2.43 2.54-3.63.42-.59.84-1.2 1.17-1.85.28-.57-.57-1.07-.85-.5zM58.37 48.92c-1.17 1.31-2.31 2.66-3.55 3.91-.45.45.25 1.15.7.7 1.24-1.25 2.38-2.6 3.55-3.91.18-.2.2-.5 0-.7-.18-.18-.52-.2-.7 0z"/><path class="cls-14" d="M55.03 52.7a90.43 90.43 0 0 1-8.62 2.83c-.8.22-1.61.42-2.42.6-.62.14-.36 1.09.26.95 2.95-.66 5.84-1.56 8.69-2.57.79-.28 1.58-.57 2.36-.87.25-.1.42-.33.35-.61-.07-.24-.36-.44-.61-.35zM43.38 43.46c-3.29 3.34-6.53 6.71-9.74 10.13s-6.42 6.92-9.57 10.43c-2.69 3-5.39 6.01-7.9 9.16-2.41 3.01-4.65 6.16-6.52 9.53S6.14 89.99 5.17 93.9c-.12.49-.23.99-.34 1.49-.13.62.82.89.95.26.83-3.94 2.23-7.74 4.1-11.3 1.76-3.37 3.9-6.52 6.23-9.52 2.42-3.1 5.03-6.05 7.64-8.98 3.11-3.49 6.26-6.94 9.45-10.35 3.19-3.41 6.42-6.79 9.69-10.13.4-.4.79-.81 1.19-1.21.45-.45-.25-1.15-.7-.7zM3.89 97.37c-.61.58-1.17 1.29-1.06 2.19.05.43.22.87.61 1.11.22.13.48.17.73.15.09 0 .17-.02.26-.03.03 0 .15-.02.04 0 .06 0 .11-.01.17-.01h.08c-.06-.01-.07-.01 0 0 .25.05.55-.07.61-.35.06-.25-.07-.55-.35-.61-.25-.05-.47-.03-.72 0-.11.02.08 0-.03 0h-.12c-.03 0-.09.01-.12 0 .11.04 0 0-.03-.02.05.02.05.02.02 0-.03-.02-.03-.02 0 0 .05.06-.01-.01-.03-.03-.09-.07.04.07 0 0-.01-.03-.03-.05-.05-.08-.05-.09.03.1 0 0-.01-.03-.02-.06-.03-.1s-.01-.07-.02-.1c-.03-.1 0 .11 0-.02v-.27.03c0-.03.01-.08.02-.1.02-.07.04-.14.07-.21-.04.1 0-.01.02-.04.02-.04.04-.09.07-.13.04-.08.09-.15.15-.22-.05.07 0 0 .02-.03s.05-.06.08-.09c.12-.13.24-.25.36-.37.19-.18.19-.52 0-.7s-.5-.19-.7 0z"/><path class="cls-14" d="M44.2 43.94c1.29-3.06 2.34-6.23 3.81-9.21.43-.87.89-1.72 1.4-2.55.33-.55-.53-1.04-.85-.5-1.76 2.91-2.96 6.07-4.19 9.22-.36.93-.73 1.86-1.12 2.77-.1.25.11.54.35.61.29.08.5-.1.61-.35zM57.38 45.22l-4.05 2.25c-.56.31-.06 1.16.5.85l4.05-2.25c.56-.31.06-1.16-.5-.85z"/><path class="cls-14" d="M54.95 47.33c.46-.98 1-1.93 1.6-2.83.14-.22.05-.56-.18-.68-.25-.13-.52-.05-.68.18-.6.9-1.14 1.85-1.6 2.83-.11.23-.07.54.18.68.22.12.56.07.68-.18z"/><path class="cls-12" d="M129.13 62.83c.63 2.72 1.25 5.44 1.88 8.16l.45 1.96c.14.62 1.1.36.95-.26-.63-2.72-1.25-5.44-1.88-8.16l-.45-1.96c-.14-.62-1.1-.36-.95.26zM125.7 49.16l.54 2.33c.06.25.36.43.61.35.26-.09.41-.34.35-.61l-.54-2.33c-.06-.25-.36-.43-.61-.35-.26.09-.41.34-.35.61z"/><path class="cls-14" d="M64.82 30.62c.64 0 .64-.99 0-.99s-.64.99 0 .99zM72.48 27.73c.64 0 .64-.99 0-.99s-.64.99 0 .99z"/><path class="cls-8" d="M52.8 99.23c-.17-1.56-.73-6.61-.93-9.04-.24-2.9-1.11-14.28-1.11-14.28l-.17.04c-.08-.22-.29-.4-.58-.33-4.48 1.12-8.96 2.2-13.46 3.22-1.34.3-2.68.61-4.02.9-.62.14-.36 1.07.25.95l-2.08 3.49a.458.458 0 0 0-.33-.14c-.24 0-.52.23-.49.49.59 5.25 1.31 10.49 2.1 15.71.22 1.45.44 2.89.67 4.34.03.17.18.28.34.33.02 0 .04.02.07.02.07.01.14 0 .2 0 5.04-1.21 10.09-2.43 15.13-3.64l4.61-1.11c.59-.14.37-1.01-.19-.96z"/><path class="cls-12" d="M114.35 52.49c.89 3.56 1.73 7.14 2.56 10.72.73 3.12 1.44 6.23 2.21 9.34.39 1.6.8 3.2 1.23 4.8.17.61 1.12.35.95-.26-.78-2.9-1.49-5.81-2.18-8.73-.78-3.3-1.53-6.6-2.31-9.89-.49-2.08-.99-4.16-1.51-6.23-.15-.62-1.11-.36-.95.26z"/><path class="cls-12" d="M115.32 52.36c0-.85.16-1.66.65-2.36.05-.07.19-.23.29-.34.12-.12.24-.24.37-.35.34-.29.71-.55 1.11-.77.98-.55 2.08-.92 3.17-1.15s2.16-.23 3.19.18c.83.33 1.38.96 1.59 1.85.15.62 1.11.36.95-.26-.24-1-.85-1.83-1.77-2.31-1.05-.55-2.25-.69-3.41-.54-1.3.17-2.59.58-3.77 1.15-.86.42-1.72 1-2.34 1.74-.75.9-1.02 2.01-1.03 3.16 0 .64.99.64.99 0z"/><path class="cls-12" d="M119.41 47.37c.26-.38.56-.73.89-1.05.3-.3.63-.6 1.03-.78.3-.14.67-.19.95.01.22.16.3.45.22.69-.19.61.76.87.95.26.17-.55 0-1.17-.4-1.58-.44-.46-1.13-.57-1.73-.42s-1.1.54-1.54.95-.87.91-1.23 1.42c-.15.22-.04.55.18.68.25.14.52.04.68-.18z"/><path class="cls-11" d="M77.82 57.34c.31.41.58.85 1.02 1.13s.93.31 1.42.41c.89.19 1.56.8 2.13 1.48.67.8 1.24 1.68 1.83 2.54.63.91 1.24 1.84 1.84 2.77 2.47 3.82 4.74 7.76 7.01 11.7 1.29 2.25 2.61 4.49 3.86 6.76.31.56 1.16.06.85-.5-1.12-2.02-2.28-4.01-3.43-6.01s-2.29-3.99-3.47-5.98c-2.26-3.83-4.58-7.67-7.22-11.25-.63-.85-1.35-1.73-2.34-2.19-.49-.23-1-.28-1.52-.41-.24-.06-.45-.14-.63-.32-.19-.19-.33-.42-.49-.63s-.43-.32-.68-.18c-.21.12-.34.46-.18.68zM78.04 65.52c2.65 4.99 4.79 10.23 6.82 15.5.58 1.5 1.15 3 1.72 4.5.09.25.33.42.61.35.24-.07.44-.36.35-.61-2.04-5.36-4.06-10.74-6.49-15.94-.68-1.45-1.39-2.89-2.14-4.3-.3-.56-1.15-.06-.85.5zM55.26 67.19c-.07.01-.08-.03-.03.02.03.03.09.05.12.07.11.06.22.12.34.15.24.07.5.06.75 0 .47-.12.85-.44 1.21-.75.25-.22.56-.5.87-.52.24 0 .54.17.65.43.1.25.33.42.61.35.23-.06.45-.36.35-.61-.21-.5-.56-.89-1.09-1.08s-1.04-.05-1.48.24-.74.69-1.19.91c-.16.08-.32.12-.49.04-.31-.15-.53-.29-.89-.21-.26.06-.41.36-.35.61.07.27.35.4.61.35z"/><path class="cls-14" d="M53.73 47.33a8.84 8.84 0 0 0-3.6-.57c-.27.01-.49.22-.49.49 0 .26.23.51.49.49a8.04 8.04 0 0 1 3.33.53c.25.1.54-.11.61-.35.08-.28-.1-.51-.35-.61zM51.74 34.03c.12-.11.22-.23.31-.36.11-.14.21-.28.32-.42l-.08.1c.11-.14.22-.28.36-.39l-.1.08s.02-.02.03-.02c.11-.08.19-.16.23-.3.03-.12.02-.28-.05-.38s-.17-.2-.3-.23-.27-.03-.38.05c-.36.25-.59.62-.85.97l.08-.1c-.08.11-.17.22-.28.31-.09.08-.14.23-.14.35s.05.27.14.35c.21.19.49.19.7 0zM53.16 36.03c-.14.32-.32.62-.47.94-.03.06-.06.11-.08.17-.09.2-.07.34.02.53.02.03.04.07.05.11l-.02-.04s.02.05.03.08c.02.06.04.13.06.19 0 .04.02.08.03.12 0 .01.02.13.01.05s0 .04 0 .05v.36c-.02.26.24.51.49.49.29-.01.47-.22.49-.49.04-.5-.08-1.01-.31-1.46v.5c.17-.38.39-.73.55-1.11.11-.24.08-.54-.18-.68-.22-.11-.56-.07-.68.18z"/><path class="cls-11" d="M62.42 70.86c5.05-.51 10.33-.95 14.65-3.9.5-.34.95-.71 1.33-1.18.44-.55.79-1.14 1.13-1.76.3-.56-.55-1.06-.85-.5-.48.89-1.02 1.82-1.85 2.41-1 .72-2.1 1.32-3.24 1.79-2.22.92-4.6 1.39-6.97 1.69-1.39.18-2.79.31-4.19.45-.27.03-.49.21-.49.49 0 .25.23.52.49.49z"/><path class="cls-14" d="M49.52 32.04c.07-.09.14-.19.21-.28.05-.06-.05.06 0 0 .02-.02.03-.04.05-.07l.1-.13c.15-.18.29-.37.44-.55.29-.36.59-.71.9-1.06.17-.19.21-.51 0-.7-.19-.17-.52-.21-.7 0-.65.74-1.27 1.5-1.86 2.28-.07.1-.08.27-.05.38s.12.24.23.3c.26.14.51.04.68-.18zM23.39 94.41c3.9-3.95 6.66-8.87 9.41-13.65 1.41-2.46 2.88-4.9 4.18-7.42 1.34-2.59 2.56-5.23 3.82-7.86 1.39-2.92 2.82-5.83 4.47-8.62.32-.55-.53-1.05-.85-.5-2.95 4.99-5.19 10.36-7.8 15.53-1.28 2.55-2.73 4.99-4.15 7.47s-2.77 4.85-4.27 7.21c-1.62 2.54-3.39 5-5.51 7.15-.45.45.25 1.15.7.7zM5.93 100.83c3.54.05 7.07 0 10.61-.12 3.54-.13 7.07-.35 10.59-.67 2-.18 4-.39 6-.62.27-.03.49-.2.49-.49 0-.24-.23-.53-.49-.49-3.53.42-7.08.75-10.63.98s-7.05.38-10.58.43c-1.99.03-3.98.03-5.98 0-.64 0-.64.98 0 .99z"/><path class="cls-12" d="M126.19 72.55c-1.04.38-2.07.81-3.03 1.36-.49.28-.95.59-1.4.94-.42.32-.83.67-1.13 1.11-.32.46-.46 1.05-.21 1.57.21.44.67.71 1.13.82.59.14 1.19.11 1.79.03s1.15-.18 1.72-.31c1.11-.26 2.18-.63 3.22-1.09 1-.44 2-.96 2.88-1.61s1.73-1.74 1.09-2.83-1.95-.94-3.01-.78c-2.47.37-4.85 1.34-6.92 2.73-.53.35-.03 1.21.5.85 1.6-1.08 3.37-1.89 5.25-2.35.47-.12.95-.21 1.43-.28.43-.07.92-.16 1.35-.05.27.07.57.26.61.56.06.41-.26.79-.54 1.05-.32.3-.71.53-1.08.76a16.848 16.848 0 0 1-4.01 1.79c-.91.27-1.84.49-2.78.59-.41.04-2.08.17-1.75-.69.17-.44.63-.78.98-1.06.39-.32.82-.59 1.25-.85.92-.54 1.9-.97 2.9-1.33.25-.09.42-.34.35-.61-.07-.24-.36-.44-.61-.35z"/><path class="cls-14" d="M57.83 37.51c-1.07-.61-2.31-1.19-3.52-.61-.51.24-.91.67-1.1 1.2-.23.63-.09 1.31.17 1.91s.6 1.1.93 1.63.66 1.03 1.03 1.51.77.95 1.22 1.36 1.01.86 1.63 1c1.41.33 2.37-1.22 1.79-2.44-.11-.24-.46-.3-.68-.18-.25.14-.29.43-.18.68s.05.57-.12.8a.54.54 0 0 1-.23.18c-.2.07-.42 0-.61-.09-.83-.4-1.51-1.18-2.05-1.9-.59-.79-1.12-1.64-1.6-2.5-.38-.68-.73-1.66.07-2.18.9-.58 1.94.02 2.76.48.55.32 1.05-.54.5-.85z"/><path class="cls-8" d="M66.59 116.19c-.55-1.88-1.09-3.76-1.61-5.65-.17-.61-1.12-.35-.95.26.52 1.89 1.06 3.77 1.61 5.65.18.61 1.13.35.95-.26z"/><path class="cls-4" d="M109.35 106.41c-1.39-2.84-2.78-5.68-4.19-8.51-1.42-2.85-2.85-5.69-4.31-8.51-.78-1.49-1.56-2.98-2.37-4.46-.25-.46-.86-.2-.91.21-1.17-.1-4.36-.3-5.91.26-1.55.56-3.38.39-3.92.99a.445.445 0 0 0-.28-.02c-.24.07-.44.36-.35.61 1.96 5.13 3.96 10.26 6.37 15.2.67 1.38 1.38 2.74 2.12 4.08.31.56 1.16.06.85-.5a86.75 86.75 0 0 1-2.31-4.5c.77-.23 1.55-.47 2.26-.86.11-.06.22-.14.33-.21 1.02 1.88 2.07 3.75 3.17 5.59.33.55 1.18.05.85-.5-1.12-1.87-2.19-3.78-3.23-5.7.28-.25.55-.51.87-.72.36-.23.74-.4 1.15-.53l.69-.06c1.02 1.96 2.07 3.91 3.15 5.84.47.83.94 1.67 1.42 2.49.32.55 1.17.05.85-.5-1.52-2.61-2.97-5.26-4.37-7.93.4.04.8.14 1.18.3.8.35 1.47.96 2.37 1.03.44.89.89 1.77 1.32 2.66.78 1.59 1.56 3.17 2.33 4.76.12.24.46.31.68.18.24-.14.3-.44.18-.68zm-12.28-7.74s-.04-.07-.06-.11l.2-.02s-.09.08-.14.13z"/><path class="cls-4" d="M93.8 99.97c.62.12 1.19-.09 1.73-.39.51-.28 1-.58 1.5-.88.22-.13.32-.45.18-.68s-.44-.32-.68-.18c-.45.27-.91.54-1.36.8-.11.06-.21.12-.32.18-.12.06-.16.08-.26.11-.05.02-.1.03-.14.04-.02 0-.2.04-.11.03h-.27c-.25-.05-.55.07-.61.35-.06.24.07.56.35.61zM78.99 116.18l-1.11-3.63-1.65-5.31c-.61-1.97-1.23-3.94-1.84-5.91-.57-1.81-1.14-3.62-1.71-5.44-.41-1.3-.82-2.59-1.25-3.88-.04-.11-.07-.21-.11-.32-.2-.6-1.16-.34-.95.26.04.12.08.24.12.37l-11.28 1.97-5.84 2.91c-.08-.44-.16-.87-.23-1.31-.04-.26-.37-.41-.61-.35-.28.08-.39.34-.35.61.4 2.61 1.02 5.21 1.58 7.79.74 3.38 1.49 6.76 2.28 10.13.28 1.21.56 2.42.87 3.62.16.62 1.11.35.95-.26-.44-1.73-.85-3.47-1.24-5.2 1.04.3 2.17-.24 3.05-.9.2-.15.4-.31.6-.46.53 2.5 1.16 4.97 1.91 7.41.19.61 1.14.35.95-.26-.79-2.53-1.44-5.1-1.98-7.7.09-.04.19-.09.28-.13.68-.24 1.39-.25 2.1-.22.4.02.8.06 1.2.09.64 2.81 1.43 5.59 2.39 8.31.09.25.34.42.61.35.24-.07.44-.36.35-.61-.93-2.62-1.69-5.29-2.32-7.99.7.02 1.4-.03 2.09-.26.63-.21 1.2-.53 1.75-.89.99 3.19 1.97 6.39 2.96 9.58.19.61 1.14.35.95-.26l-3.06-9.92.61-.46c.55-.42 1.1-.83 1.7-1.18.6-.35 1.31-.66 2.02-.63h.04c.07.23.14.46.22.69.56 1.81 1.13 3.63 1.69 5.44l1.2 3.9c.03.11.07.22.1.32.18.61 1.14.35.95-.26zm-12.96-7.88s-.06 0-.09.01l.58-.16c-.16.06-.32.11-.49.15z"/><path class="cls-14" d="M72.13 30.42a11.666 11.666 0 0 0 3.42 2.31c.42.18.89.34 1.29.59.28.18.55.43.66.76.12.35 0 .72-.17 1.03-.4.68-1.14 1.08-1.87 1.3-.42.12-.85.21-1.28.24-.17.01-.42.04-.57-.06a.272.272 0 0 1-.08-.1c-.03-.06-.02-.05 0-.09.32-.55-.53-1.05-.85-.5-.27.47-.13 1.05.26 1.41.44.39 1.05.36 1.59.29 1.03-.13 2.03-.43 2.85-1.08s1.44-1.79 1.02-2.84-1.52-1.43-2.5-1.87c-1.14-.51-2.17-1.22-3.06-2.09-.46-.44-1.16.26-.7.7zM57.39 28.56l-.78-1.57a.502.502 0 0 0-.68-.18c-.24.15-.3.43-.18.68l.78 1.57c.12.23.46.32.68.18.24-.15.3-.43.18-.68zM58.18 22.58c1.3-.73 2.84-.6 4.27-.76.78-.09 1.54-.24 2.26-.58.75-.36 1.4-.91 2.03-1.44.21-.17.18-.52 0-.7-.2-.2-.49-.17-.7 0-.61.51-1.24 1.05-1.98 1.35-.64.26-1.33.36-2.01.42-1.49.13-3.03.11-4.37.86-.56.31-.06 1.17.5.85zM50.83 30.15c0 .18.02.37.07.54.08.23.21.44.43.56.24.13.53.15.77.01.12-.07.2-.16.28-.28.03-.05.06-.1.09-.14l-.08.1.05-.05-.1.08s.02-.02.04-.02l-.12.05h.03c.12-.03.23-.12.3-.23s.09-.26.05-.38-.11-.24-.23-.3-.25-.08-.38-.05c-.05.01-.1.04-.15.06-.01 0-.02.01-.03.02a.84.84 0 0 0-.23.23c-.04.05-.07.11-.11.16l.08-.1s-.03.04-.05.05l.1-.08s-.03.02-.05.03l.12-.05s-.04.01-.06.02l.13-.02h-.07l.13.02s-.06-.01-.08-.02l.12.05s-.06-.03-.09-.05l.1.08-.07-.07.08.1s-.05-.07-.06-.11l.05.12a.865.865 0 0 1-.06-.23l.02.13c-.01-.08-.01-.16-.02-.24a.475.475 0 0 0-.49-.49c-.12.01-.26.05-.35.14s-.15.22-.14.35z"/><path class="cls-14" d="M56.36 28.75c-.23 1.35-.44 2.71-.34 4.09s.27 2.71.41 4.06c.03.27.21.49.49.49.25 0 .52-.23.49-.49-.13-1.32.58-4.75.48-6.07s-.8-.51-.58-1.81c.04-.26-.07-.53-.35-.61-.24-.07-.56.08-.61.35z"/><path class="cls-14" d="M58.5 30.3c-.06-.33-.26-.62-.43-.9-.18-.3-.36-.61-.55-.92-.36-.61-.73-1.22-1.09-1.83-.33-.55-1.18-.05-.85.5.35.58.69 1.16 1.04 1.75.17.29.35.58.52.87.13.21.38.49.39.74.01.27-.11.58-.16.84-.06.34-.11.69-.15 1.03-.08.68-.11 1.37-.09 2.06.01.64 1 .64.99 0-.01-.7.02-1.41.1-2.11.04-.34.1-.67.16-1 .07-.34.18-.69.12-1.04z"/><path class="cls-14" d="M57.19 34.4v.02c0 .03 0 .07.01.1 0 .07.01.14.02.21 0 .15.01.3.01.45 0 .32-.01.64-.03.95-.03.6-.09 1.21-.12 1.81-.01.27.24.49.49.49.28 0 .48-.23.49-.49.06-1.26.26-2.54.07-3.8-.04-.26-.37-.41-.61-.35-.28.08-.39.34-.35.61z"/><path d="M68.81 39.66c.91 1.06 2.56 1.18 3.63.29.12-.1.11-.31 0-.42-.12-.12-.3-.1-.42 0-.83.69-2.1.51-2.79-.29-.1-.12-.31-.11-.42 0-.12.12-.11.3 0 .42z" style="fill:#877065"/><path class="cls-14" d="M77.79 47.46c.44-.53.78-1.11 1.03-1.75.27-.68.41-1.39.24-2.12-.06-.26-.36-.41-.61-.35-.27.07-.41.35-.35.61.12.54-.04 1.07-.24 1.59-.17.44-.48.95-.78 1.31-.17.21-.2.5 0 .7.17.17.53.21.7 0z"/><path class="cls-14" d="M79.77 46.75c-.12-1.25-.47-2.49-.83-3.69-.18-.61-1.14-.35-.95.26.22.75.42 1.5.58 2.26a.405.405 0 0 0-.37.05c-.57.4-1.24.53-1.89.27.07.03-.15-.09-.1-.05-.01 0-.09-.09-.07-.06.02.02-.04-.07-.05-.08.03.05-.02-.04-.02-.06-.01-.04-.03-.09-.04-.13-.03-.11-.07-.21-.1-.32-.14-.44-.27-.89-.41-1.33-.01-.04-.03-.06-.05-.09-.06-.2-.24-.39-.46-.36-.37.04-.74.11-1.1.2-.36.1-.71.23-1.06.37-.08.03-.14.13-.19.21-.08.12-.12.26-.08.41.06.2.12.39.17.6.05.2.06.28.06.48V45.9c0-.03 0-.03 0 0 0 .04-.02.09-.03.13 0 0-.03.08-.03.1-.03.07-.08.14-.12.21-.02.02-.02.03-.02.03l-.03.03-.09.09c-.21.23-.41.37-.66.51-.94.12-1.9.06-2.81-.15-.46-.11-.87.48-.48.83.35.32.74.61 1.13.87 1.57 1.18 3.49 1.85 5.44 2.05 1.17.12 2.45 0 3.44-.69.5-.35.9-.81 1.1-1.39.19-.56.17-1.19.12-1.77zm-2.19.2c-.08.1-.15.21-.24.3-.03-.1-.1-.19-.2-.25.15 0 .29-.02.44-.05z"/><path class="cls-5" d="M56.55 35.38c1.19-.82 2.36-1.67 3.5-2.55.16-.12.24-.32.13-.51-.09-.16-.35-.26-.51-.13-1.15.88-2.31 1.73-3.5 2.55-.16.11-.24.33-.13.51.1.16.34.25.51.13zM55.52 31.41c1.31-.85 2.6-1.73 3.88-2.63.16-.12.24-.32.13-.51-.09-.16-.34-.25-.51-.13-1.28.9-2.57 1.78-3.88 2.63-.4.26-.03.9.37.64z"/><path class="cls-7" d="M48 33.68s2.15-3.49 3.6-5.42 4.52-5.84 5.6-7.44 3.49-5.83 3.49-5.83-2.06-.12-4 .34c-1.94.47-4.21 1.42-5.81 3.3-1.61 1.89-2.57 3.06-3.14 5.42s-.47 3.24-.48 5.55.73 4.07.73 4.07z"/><path class="cls-7" d="M60.58 14.61c-1.05.17-2.13.16-3.19.25-.83.07-1.66.21-2.45.46-1.41.45-2.7 1.23-3.78 2.24-1.2 1.12-2.2 2.52-2.94 3.99-.79 1.55-1.23 3.24-1.45 4.96-.29 2.24-.16 4.53.35 6.74.11.5.88.29.76-.21-.79-3.47-.67-7.37.82-10.64 1.2-2.65 3.3-5.16 6.09-6.18.81-.3 1.66-.47 2.52-.55 1.17-.1 2.34-.09 3.49-.29.21-.03.33-.3.28-.49-.06-.22-.28-.31-.49-.28z"/><path class="cls-14" d="M50.23 29.36c-.42.7-.98 1.44-1.44 2.02-.56.72-.98 1.57-1.39 2.38-1.03 2.02-1.86 4.13-2.68 6.24-.48 1.23-.95 2.46-1.47 3.67-.1.25.11.54.35.61.29.08.5-.1.61-.35.89-2.11 1.67-4.27 2.54-6.39.42-1.01.86-2 1.35-2.98.26-.52.53-1.03.81-1.53.19-.33.33-.64.52-.88.58-.74 1.17-1.5 1.66-2.3.33-.55-.52-1.04-.85-.5zM69.25 22.02c1.27 1.18 2.27 2.61 3.14 4.1.32.55 1.18.05.85-.5-.91-1.56-1.97-3.06-3.3-4.3-.47-.43-1.17.26-.7.7z"/><path class="cls-14" d="M56.55 28.54c-.69.68-1.39 1.34-2.1 1.99-.09-.07-.2-.13-.32-.12.05-.05.11-.09.15-.17.07-.14.07-.3.02-.44.24-.17.47-.35.7-.54.11-.09.22-.18.32-.27 0 0 .08-.07.04-.04-.03.02 0 0 .02-.01.2.04.43-.03.53-.22.12-.23.06-.54-.18-.68-.4-.22-.78-.04-1.09.23-.12.1-.24.21-.36.31-.15.12-.2.16-.34.26-.17.13-.36.25-.54.37-.24-.17-.52-.26-.81-.24-.52.04-.92.33-1.23.72-.71-.48-1.64-.59-2.3.11-.18.19-.28.4-.38.64-.04.1-.11.2-.15.29l-.02.02h-.03c-.42-.21-.89-.37-1.37-.35-.48.01-.95.17-1.32.48-.39.32-.5.73-.69 1.17-.02.04-.08.15-.09.16.03-.02-.04 0-.1-.02-.29-.04-.57-.06-.86.04-.55.18-.94.63-1 1.22-.05.56.27 1.14.84 1.29.63.16 1.1-.26 1.53-.65.08.09.17.16.29.22.35.18.74.14 1.08-.02.36-.17.62-.47.82-.8.1-.16.19-.34.28-.51.04-.07.1-.14.12-.22v-.02c.25.18.42.46.72.6.36.17.78.18 1.15.04.38-.14.68-.4.93-.73.11-.15.21-.31.3-.48.02-.04.04-.09.07-.14.03.03.07.05.1.08.14.09.29.16.45.2.2.06.41.07.62.05-.03.02-.05.05-.08.07-.2.17-.18.52 0 .7.2.2.5.17.7 0 .21-.18.41-.37.62-.55v.06l.67 3.6c.07.38.62.46.85.2.16.03.32-.02.44-.14.03.08.05.17.07.25.19.62 1.06.36.95-.26-.31-1.77-.48-3.56-.52-5.36 0-.18-.09-.31-.21-.39.46-.43.92-.86 1.37-1.3.45-.45-.24-1.15-.7-.7zm-9.78 3.97h.06-.06zm6.49-2.07z"/><path d="M51.88 35.94c.05-.13.11-.26.2-.36.21-.23.47-.3.73-.26l-.06-.24c-.43.09-.75.44-.87.87z" style="fill:none"/><path class="cls-14" d="M56.68 36.83c-.58-1.92-2.19-3.22-2.38-5.22-.03-.27-1.5-.97-1.79-.97-.25 0-.52.23-.49.49.1 1 .27 1.99.49 2.96.15-.03.3-.06.45-.05.64.02.64 1.01 0 .99-.08 0-.14.02-.21.04l.06.24c.3.04.6.23.79.49.3.42.37.97.27 1.46-.03.12-.06.24-.11.35.32.05 3.05-.38 2.93-.78z"/><path class="cls-14" d="M53.37 37.28c-.2-.65-.38-1.31-.55-1.96l-.06-.24c-.08-.32-.17-.65-.24-.98-.85.19-1.52.98-1.66 1.83-.05.29-.04.56.02.84.03.18.16.46.02.61-.13.14-.39.2-.56.29-.24.13-.47.31-.67.5-.37.38-.62.88-.63 1.42 0 .29.08.57.12.86.03.26-.02.34-.22.5-.43.34-.72.82-.69 1.38.03.54.34 1.04.88 1.2.54.17 1.11-.07 1.35-.59.12-.26.15-.53.17-.81 0-.12 0-.5.13-.58.05-.03.42.04.52.03.3-.03.57-.15.79-.35.48-.41.65-1.07.64-1.68 0-.25-.1-.54-.06-.79.03-.17.21-.24.35-.32.33-.21.59-.49.74-.84a.44.44 0 0 1-.39-.34z"/><path class="cls-14" d="M52.96 35.04c.64.02.64-.97 0-.99-.16 0-.31.02-.45.05.07.33.16.65.24.98.07-.01.14-.04.21-.04zM53.6 35.8c-.19-.26-.49-.45-.79-.49.17.66.36 1.31.55 1.96.06.21.22.31.39.34.05-.11.09-.23.11-.35.1-.49.04-1.05-.27-1.46z"/><path class="cls-11" d="M52.45 97.62c-.14-.48-.71-4.14-.99-7.02 0 0 1.36-.25 2.57-.95 1.21-.7 2.93-.68 4.29-.25 1.36.43 3.37.72 4.84-.3s3.74-2.56 4.74-2.78c1.18-.26 1.57-.07 1.72.4s2.15 6.23 2.15 6.23-.79-.27-3.12.99c-2.32 1.26-2.47 2.45-4.92 3.15-2.45.7-4.22.16-6.16-.04-1.94-.2-2.86.29-3.89.54s-1.23.02-1.23.02zM87.31 87.55s-2.34-6.21-2.58-6.89c0 0 1.1-.1 2.68-1.01s3.76-.37 5.2-.39 2.09.05 2.59-.07c0 0 1.78 3.05 2.69 4.69s1.15 2.05 1.15 2.05-.97.24-2.25.09-2.54-.2-3.76-.09c-1.22.11-2.74 1.05-3.6 1.31s-1.9.44-2.12.31z"/><path class="cls-13" d="M51.85 122.87c.24.02.73-.1 3.57-1.27 2.83-1.17 5.69-.48 7.98-.91 2.29-.43 4.34-.41 7.45-.56s7.32-.49 10.53-.87c3.21-.38 6.45.31 6.45.31l.21 2.03-2.43 1.81s7.47-1.16 10.06-1.67 5.62-1.16 5.62-1.16 7.81.83 10.63 1.02c2.82.19 5.91 1.27 5.91 1.27s-4.08.68-4.23.92-28.92 4.61-28.92 4.61.77-1.99-.33-2.35-1.6-.37-1.6-.37l-5.34 1.55-22.04-3.29-3.52-1.06z"/><path class="cls-6" d="m84.35 119.17.23-4.31 44.5 6.62-10.94 1.94s-.3-1.07-1.82-1.36-15.55-1.35-15.55-1.35l-7.73 1.72-5.02-.81-.21-2.03-3.47-.4z"/><path class="cls-12" d="M104.65 123.1c-1.02-.67-2.2-.76-3.36-.85-1.26-.1-2.52-.17-3.79-.21-2.53-.08-5.06-.04-7.58.11-.8.05-1.02 1.07-.64 1.58-.47.04-.95.08-1.42.13-1.08.12-2.17.29-3.26.32.31-.54.09-1.47-.68-1.49-3.41-.1-6.81-.05-10.21.14-1.67.1-3.34.23-5 .4-1.64.17-3.38.25-4.94.85-.43.17-.72.64-.59 1.15.12.46.61.82 1.05.65.45-.17.91-.3 1.38-.39.12.27.36.48.73.45l3.42-.18c.54.88 1.7 1.01 2.58.86.32-.05.63-.14.94-.23 3.33.26 6.67.13 9.98-.37.03 0 .05-.02.08-.03.31.04.61.05.92.06-.04.09-.08.2-.09.3-.04.41.19.96.61 1.02l.23.03h.05c2.85.35 5.52-.76 8.31-1.21 1.43-.23 2.81 0 4.24.04 1.6.04 3.16-.45 4.67-.96a.92.92 0 0 0 .24-.13c.81.28 1.68.01 2.31-.6.42-.4.27-1.17-.17-1.47z"/><path class="cls-6" d="M84.87 114.5c-.08-.28-.34-.39-.61-.35-5.78.98-11.57 1.92-17.37 2.83-5.78.9-11.56 1.77-17.35 2.6-3.26.47-6.52.92-9.78 1.36-.27.04-.41.38-.35.61.08.29.34.38.61.35.99-.13 1.97-.28 2.96-.42l8.14 1.6s3.6-1.33 5.43-1.7c1.83-.36 5.55-.61 7.59-.69 2.04-.08 5.12-.46 7.3-.59 2.18-.14 12.92-.93 12.92-.93l.21-4.08c.23-.07.36-.36.3-.59z"/><path class="cls-6" d="M129.21 120.99c-5.81-.79-11.62-1.63-17.42-2.5-5.79-.88-11.56-1.79-17.34-2.74-3.25-.53-6.5-1.07-9.75-1.62-.26-.04-.53.07-.61.35-.07.24.08.56.35.61 5.79.98 11.58 1.93 17.37 2.85s11.56 1.8 17.35 2.64c3.26.47 6.52.93 9.78 1.37.26.04.53-.06.61-.35.06-.23-.08-.57-.35-.61z"/><path class="cls-6" d="M84.08 114.85v4.03c0 .64.99.64.99 0v-4.03c0-.64-.99-.64-.99 0zM92.27 121.81l-4.11-.69c-.26-.04-.53.07-.61.35-.07.24.08.56.35.61l4.11.69c.26.04.53-.07.61-.35.07-.24-.08-.56-.35-.61z"/><path class="cls-13" d="M87.95 119.09c-1.1-.4-2.28-.57-3.44-.58s-2.42.17-3.62.3c-2.55.27-5.1.54-7.65.71-1.27.08-2.55.08-3.82.15-1.28.08-2.54.38-3.82.49s-2.46-.1-3.7-.11c-1.3-.01-2.58.26-3.85.51l-4.23.84c-1.2.24-2.53.39-3.43 1.31-.45.45.25 1.15.7.7.72-.73 1.85-.83 2.81-1.02l3.75-.75c1.25-.25 2.44-.53 3.68-.59s2.43.16 3.65.13 2.45-.32 3.67-.46c1.25-.14 2.51-.1 3.76-.17 2.51-.15 5.02-.4 7.52-.66 2.59-.27 5.25-.78 7.77.14.25.09.54-.1.61-.35.08-.28-.09-.52-.35-.61zM101.44 121.05c1.13.14 2.26.17 3.39.23s2.26.14 3.39.23c2.23.19 4.45.46 6.66.8.6.09 1.2.18 1.79.3.38.07.85.17 1.09.51.15.22.43.32.68.18.22-.13.33-.46.18-.68-.6-.86-1.64-.97-2.61-1.13-1.18-.19-2.36-.37-3.54-.52-2.34-.3-4.69-.52-7.05-.66-1.33-.08-2.66-.1-3.98-.26-.27-.03-.49.25-.49.49 0 .29.23.46.49.49z"/><path class="cls-6" d="M84.68 128.89c.25 0 .51-.23.49-.49-.06-.96-.23-2.19-1.03-2.84-.52-.42-1.13-.43-1.76-.25-.73.2-1.45.43-2.17.64-1.38.41-2.76.81-4.14 1.22l-35.47-5.7c.04-.28-.14-.57-.43-.57-.39-.51-.78-1.03-1.17-1.54-.22-.29-.44-.57-.66-.86-.21-.27-.4-.56-.65-.79-.51-.49-1.11-.59-1.78-.39-.71.21-1.41.46-2.11.69a424.337 424.337 0 0 1-16.86 5.07c-2.76.77-5.55 1.43-8.21 2.51-.75.31-1.5.64-2.23 1-.33.16-.65.33-.93.56-.29.24-.49.56-.65.9-.63 1.4-.97 2.9-1.56 4.31-.13.32-.24.66-.36.99-.12.32-.27.63-.4.94-.29.68-.37 1.5.15 2.08.49.54 1.37.68 2.04.87.81.23 1.63.45 2.46.64 3.28.78 6.62 1.3 9.95 1.84l10.35 1.67c3.43.55 6.87 1.11 10.3 1.66 1.64.26 3.34.58 4.96.05.77-.25 1.49-.64 2.2-1.04.74-.41 1.47-.82 2.19-1.25.36-.21.71-.42 1.07-.63.08-.05.13-.11.17-.18a756.4 756.4 0 0 0 14.09-4.07c3.3-.99 6.59-2.01 9.88-3.04.06.06.12.11.21.12 3.87.56 7.74 1.1 11.62 1.63.26.04.53-.06.61-.35.06-.23-.08-.57-.35-.61-.04 0-.07-.01-.11-.01l.24-4.74s.01 0 .02-.01zm-50.31-6.14c-1.61.52-3.22 1.04-4.84 1.55l4.84-1.55z"/><path class="cls-9" d="M83.73 124.04c1.55-1.3 2.9-2.81 4.44-4.12.2-.17.18-.52 0-.7-.2-.2-.49-.17-.7 0-1.55 1.3-2.9 2.81-4.44 4.12-.2.17-.18.52 0 .7.2.2.49.17.7 0z"/><path class="cls-9" d="M87.32 119.73v.06l-.02-.13c.06.46.1.92.1 1.39 0 .26.22.51.49.49s.5-.22.49-.49c0-.53-.06-1.05-.13-1.58-.02-.11-.13-.24-.23-.3a.495.495 0 0 0-.68.18l-.05.12a.57.57 0 0 0 0 .26z"/><path class="cls-9" d="M85.95 123.76c.73-.71 1.53-1.34 2.31-1.99.2-.17.19-.53 0-.7-.21-.19-.49-.18-.7 0-.78.65-1.57 1.28-2.31 1.99-.19.18-.19.52 0 .7s.5.19.7 0z"/><path class="cls-13" d="M95.64 122.24c1.93-.37 3.86-.76 5.77-1.18.62-.14.36-1.09-.26-.95-1.92.42-3.84.82-5.77 1.18-.26.05-.41.37-.35.61.08.27.35.4.61.35z"/><path class="cls-12" d="M82.97 124.28c3.22-.42 6.42-.92 9.62-1.48.92-.16 1.85-.33 2.77-.51.26-.05.41-.37.35-.61-.08-.28-.35-.4-.61-.35-4.02.76-8.07 1.42-12.13 1.95-.26.03-.49.2-.49.49 0 .24.23.53.49.49z"/><path class="cls-6" d="M77.55 126.74c-4.89-.7-9.78-1.42-14.67-2.15s-9.81-1.51-14.7-2.3c-2.72-.44-5.44-.89-8.15-1.35-.26-.04-.53.07-.61.35-.07.24.08.56.35.61 4.86.82 9.91 3.6 14.77 4.37 4.91.77 9.63-.48 14.54.25 2.74.4 5.48.8 8.22 1.19.26.04.53-.06.61-.35.06-.23-.08-.57-.35-.61z"/><path class="cls-12" d="M95.11 122.38c1.6.17 3.2.36 4.79.58.78.11 1.55.23 2.33.35.58.09 1.07.21 1.58.53.54.34 1.04-.52.5-.85s-1.1-.52-1.74-.61c-.8-.12-1.6-.25-2.4-.36-1.68-.24-3.37-.44-5.05-.62-.27-.03-.49.25-.49.49 0 .29.23.47.49.49z"/><path class="cls-6" d="M84.24 128.67v5.43c0 .64.99.64.99 0v-5.43c0-.64-.99-.64-.99 0z"/><path class="cls-6" d="M129.56 127.21c-.06-.23-.26-.34-.48-.35v-5.39l-44.4 6.92.05 5.21s-.08.01-.13.02c-.27.04-.41.38-.35.61.08.29.34.38.61.35 5.79-.79 11.58-1.61 17.36-2.47 5.76-.86 11.51-1.75 17.26-2.68 3.25-.52 6.49-1.06 9.73-1.61.26-.04.41-.37.35-.61z"/><path class="cls-6" d="M128.59 121.73v5.43c0 .64.99.64.99 0v-5.43c0-.64-.99-.64-.99 0z"/><path class="cls-6" d="M84.81 128.72c5.8-.79 11.59-1.61 17.38-2.47 5.77-.86 11.53-1.75 17.29-2.69 3.25-.53 6.49-1.06 9.74-1.61.26-.04.41-.37.35-.61-.08-.28-.34-.39-.61-.35-5.77.98-11.55 1.92-17.34 2.82-5.76.9-11.53 1.76-17.3 2.59-3.25.47-6.51.92-9.77 1.36-.27.04-.41.38-.35.61.08.29.34.38.61.35z"/><path class="cls-11" d="M166.9 34.34a.47.47 0 0 0-.3-.22.41.41 0 0 0-.13-.18c-2.08-1.9-3.59-4.35-4.42-7.03a.492.492 0 0 0-.4-.34c-.12-.08-.26-.13-.4-.07l-3.09 1.26c-.18.07-.33.22-.36.4-.09.12-.12.27-.09.42.63 3.06 2.29 5.96 4.74 7.92.15.12.33.16.5.11.13.04.27.03.4-.03 1.12-.52 2.24-1.05 3.36-1.57.24-.11.3-.46.18-.68zm-3.27-.25-.01-.01c.12-.04.05.08.01.01z"/><path class="cls-6" d="M194.97 49.47c0-.07-.02-.14-.05-.21-.39-.89-.9-1.72-1.51-2.47a.36.36 0 0 0-.1-.07.536.536 0 0 0-.15-.15c-.25-.14-.52-.04-.68.18l-.02.03c-.02.02-.03.04-.05.06a.8.8 0 0 1-.13.13l-.05.05s-.08.07-.04.04c.04-.04-.03.02-.04.03-.03.02-.06.04-.1.06-.05.03-.1.06-.16.09-.02.01-.05.02-.07.04-.12.05-.24.08-.36.11-.03 0-.06.01-.09.02H191.05c-.03 0-.14-.01-.16-.01-.1-.02-.19-.04-.28-.07-.06-.02-.11-.04-.17-.06.08.03-.08-.04-.11-.06-.05-.03-.1-.06-.16-.1-.01 0-.03-.02-.04-.03 0 0-.02-.02-.03-.02-.05-.04-.09-.08-.14-.13-.02-.02-.04-.05-.06-.07 0 0-.09-.1-.05-.06.03.05-.02-.03-.03-.04-.01-.02-.03-.04-.04-.06-.03-.05-.06-.1-.09-.16a.974.974 0 0 1-.05-.11c-.02-.05-.04-.1-.05-.15-.04-.12-.06-.24-.09-.36V45.63c0-.12 0-.25.02-.37v-.08c.01-.07.03-.14.04-.2l.06-.2c0-.03.02-.06.03-.09 0 0 .01-.03.02-.04.05-.12.11-.24.19-.35.01-.02.06-.09.07-.1.04-.05.07-.09.12-.13.05-.05.1-.09.14-.14h.01c.08 0 .15-.02.21-.06.23-.15.32-.44.18-.68-.46-.78-.91-1.55-1.37-2.33a.49.49 0 0 0-.16-.16c-.13-.19-.38-.31-.64-.15-2.26 1.35-3.33 4.25-2.7 6.77.61 2.45 2.74 4.5 5.36 4.45a5.45 5.45 0 0 0 3.83-1.71c.18-.2.16-.43.04-.61zm-3.13-2.21s.04-.02 0 0zm.74 1.99s.02 0 .02.02l-.02-.02z"/><path d="M196.16 18.95a.398.398 0 0 0-.17-.17c-1.25-.63-2.45-1.37-3.56-2.23-.16-.12-.36-.18-.53-.11-.04 0-.07-.02-.11-.02-.28 0-.48.23-.49.49-.24 3.37-1.35 6.66-3.24 9.46-.07.1-.08.19-.07.28-.09.19-.08.42.08.57.63.59 1.26 1.19 1.9 1.78.19.18.52.2.7 0 0 0 0-.02.02-.03.11 0 .22-.04.32-.13 2.04-1.97 3.61-4.38 4.67-7.01.3-.76.56-1.53.77-2.32.08-.28-.08-.48-.29-.56z" style="fill:#fc9fac"/><path class="cls-2" d="M136.01 19.11c-1.04-1.1-2.5-1.81-4.02-1.83-.41 0-.57.23-.59.75l-.41 2.53c-.09.57-.07 1.14.4 1.16.65.02 1.25.68 1.64 1.14.42.51.65 1.14.57 1.81-.07.57-.37 1.14-.86 1.45-.5.31-1.13.35-1.65.08-.18-.09-.44-.19-.57-.11-.25-.03-.36.23-.45.47-.23.66-.47 1.32-.7 1.98-.03.09-.1.33-.07.42-.02.19.14.25.32.33 2.61 1.22 5.76.16 7.2-2.32 1.44-2.47 1.19-5.78-.79-7.88z"/><ellipse class="cls-14" cx="54.27" cy="28.24" rx="2.2" ry="2.33"/><path class="cls-11" d="M189.82 67.53c-3.61-.16-7.21-.33-10.82-.5.18-1.26.36-2.53.5-3.8.17-1.51.37-3.04.33-4.56-.07-2.58-1.08-5.28-3.15-6.92-1.08-.85-2.35-1.37-3.72-1.45-1.26-.08-2.53.27-3.61.92-2.12 1.29-3.51 3.55-4.55 5.74-1.4 2.95-2.45 6.07-3.25 9.23v.01c-1.19-.06-2.38-.12-3.57-.17l-9.19-.42c-.09 0-.17.02-.23.05l-6.31.9c-.26.04-.41.37-.35.61.08.28.34.38.61.35 2.13-.3 5.61.86 7.74.56 5.35.24 7.18.02 12.53.27 4.18.2 6.9.62 11.08.82.06.26 3.82-.73 4.11-.66.34.08.71 1.13.79.75.59.03 1.23 1.15 1.82 1.18 3.06.14 6.18-2.05 9.25-1.91.64.03.64-.96 0-.99zm-26.76-1.25c.67-2.58 1.52-5.14 2.56-7.56.47-1.09.99-2.16 1.62-3.16.6-.96 1.19-1.74 2.08-2.5.05-.05.11-.09.17-.14l.03-.03.01-.01c.1-.08.21-.15.32-.23a5.304 5.304 0 0 1 .86-.48l.11-.05c.11-.04.21-.08.32-.12.15-.05.3-.09.46-.13.06-.01.13-.03.19-.04.02 0 .13-.02.17-.03.28-.04.56-.05.84-.04.13 0 .26.02.39.03h.06c.01 0 .03 0 .06.01.09.02.18.03.27.05.27.06.53.13.79.23.2.07.49.21.75.37.5.29.84.57 1.25 1.01.09.1.18.2.27.31l.12.15c.01.02.01.01.01.02s.01.02.03.04c.18.25.34.5.5.77.53.94.9 2.12 1 3.15.16 1.61-.06 3.25-.23 4.85-.15 1.42-.34 2.81-.54 4.22l-3.86-.18-10.6-.51z"/><path class="cls-2" d="M194.8 128.07c-.26-3.88-.53-7.76-.81-11.65-.27-3.82-.55-7.64-.83-11.46-.28-3.83-.57-7.65-.85-11.48-.29-3.91-.59-7.81-.88-11.72-.3-4.06-.61-8.11-.91-12.17-.04-.52-.08-1.03-.11-1.55-.03-.39-.43-.54-.71-.45h-.14c-2.14.3-4.28.61-6.41.91-.21.03-.34.24-.35.44v.03c-.23 3.85-.45 7.7-.67 11.55l-.63 11.17c-.21 3.8-.42 7.6-.64 11.4-.23 4.12-.47 8.25-.7 12.37-.27 4.65-.54 9.29-.82 13.94-.04.62-.07 1.23-.11 1.85 0 .16.05.28.13.36-.28.31-.02.95.49.81 3.79-1.01 7.58-2.02 11.37-3.02l3.25-.86s.03-.02.05-.03c.05-.01.09-.04.13-.07.11-.08.18-.2.17-.38z"/><path class="cls-8" d="m180.11 132.37-43.9-2.36 6.02-62.94 41.52 2.09-3.64 63.21z"/><path class="cls-8" d="M156.49 67.69c-.06-1.38-.04-2.76.02-4.14.06-1.3.14-2.6.31-3.89-.02.13.02-.13.02-.12.01-.08.02-.16.04-.24l.06-.4c.05-.31.11-.63.18-.94.12-.56.27-1.11.46-1.64.05-.14.1-.28.15-.43.02-.05.04-.09.05-.14 0 0 .1-.23.04-.1.12-.27.24-.53.39-.79.11-.21.24-.41.37-.61.04-.06.08-.12.12-.17 0 0 .14-.19.05-.07.09-.11.18-.22.27-.32.18-.2.36-.38.57-.55 0 0 .19-.15.1-.08.04-.03.08-.06.13-.09.15-.1.3-.2.46-.29.11-.06.23-.12.34-.17.22-.1-.12.04.1-.04.05-.02.09-.04.14-.05.28-.1.58-.17.88-.22-.15.02.09 0 .1-.01.06 0 .12-.01.19-.01h.41c.13 0 .25.01.38.03.24.02-.13-.03.1.01.09.02.18.03.26.05.26.06.51.14.76.23.21.08-.13-.06.08.03.06.03.13.06.19.09.13.06.25.13.37.2.88.51 1.64 1.3 2.2 2.15.7 1.08 1.07 2.2 1.38 3.46.77 3.14 1.32 6.35 1.8 9.55.06.4.56.62.91.52.43-.12.58-.51.52-.91-.45-3.02-.99-6.03-1.67-9.01-.31-1.37-.7-2.73-1.41-3.95-.63-1.09-1.47-2.05-2.5-2.78s-2.21-1.14-3.44-1.15c-1.33-.02-2.61.45-3.64 1.26-1.91 1.5-2.75 4.01-3.18 6.32-.27 1.5-.39 3.02-.48 4.54-.1 1.62-.13 3.25-.06 4.88.02.39.33.76.74.74.39-.02.76-.33.74-.74z"/><path class="cls-14" d="M72.53 15.11c-.28-.52-.91-.7-1.45-.51-.56.19-.88.68-1.13 1.19-.05.1-.1.21-.15.31-.02.03-.04.07-.06.11-.02 0-.04-.02-.07-.03a1.52 1.52 0 0 0-.48-.1c-.66-.02-1.22.44-1.59.95.02-.18.06-.35.05-.53-.02-.28-.12-.53-.15-.81 0-.02 0-.08-.03-.02.01-.03.11-.11.12-.12.11-.1.21-.2.3-.32.4-.5.63-1.15.45-1.79-.14-.5-.54-.84-.72-1.31-.08-.21 0-.4.09-.6.13-.26.28-.51.36-.79.16-.54.09-1.22-.41-1.56-.58-.39-1.26-.07-1.63.44-.33.47-.4 1.1-.4 1.66 0 .51.08 1.04-.05 1.54-.13.51-.6.75-.94 1.11a2.7 2.7 0 0 0-.72 1.93c0 .12.03.23.05.34-.1-.3-.22-.61-.44-.83-.34-.34-.89-.43-1.28-.12-.68.54-.5 1.62-.45 2.37.03.35 0 .66-.1.98-.72.59-1.14 1.52-1.06 2.44.02.3.24.58.57.57.29-.01.59-.25.57-.57v-.03c.28.38.72.64 1.22.64.74 0 1.36-.55 1.51-1.29.18.08.39.13.6.13.59 0 1.09-.35 1.35-.85.27.48.76.81 1.33.81s1.09-.35 1.35-.85h.02c.6-.06 1.12-.41 1.42-.93.15-.26.24-.54.27-.84.01-.12.02-.23.01-.35 0-.05-.01-.13-.01-.18v-.04l.02-.02c.1-.09.04-.03.03-.02l.1-.05c.13-.05.26-.07.39-.1.3-.07.59-.18.82-.4.4-.4.58-1.05.3-1.57zm-.99.56z"/><path class="cls-2" d="M171.79 98.49c-.06-.21-1-2.34-2.79-5.03a.454.454 0 0 1-.08-.23c-.05-1.52-.18-3.03-.38-4.54-.05-.31-.27-.55-.56-.6l-1.97-.36h-.05c-.23-.01-.43.18-.44.43l-.03.75s-.01.03-.03.03h-.02a28.83 28.83 0 0 0-3.84-3.5c-.28-.23-.62-.36-.96-.37-.35-.02-.69.08-.99.27-7.02 4.26-11.09 11.55-11.25 11.95-.18.36-.05.81.28 1 .04.02.08.04.12.05l1.95.52c.26.09.45.35.46.65 0 .38 0 8.88.38 11.1.06.33.32.57.63.58h.01c1.15.03 2.2.06 3.34.1h.09c.12 0 .22-.09.23-.23-.01-.75-.04-2.45-.04-4.24v-.15c0-.15-.07-.29-.19-.37-.59-.43-.95-1.15-.95-1.93.02-2.98.12-6.42.39-9.1.01-.24.2-.42.42-.4.22.02.38.22.37.46v.03c-.17 1.79-.27 3.91-.33 6 0 .28.2.52.46.53s.48-.21.48-.5c.06-2.11.16-4.24.33-6.03.01-.24.2-.42.42-.4.22.02.38.22.37.46v.03c-.17 1.78-.27 3.88-.33 5.96 0 .28.2.52.45.53.26 0 .48-.21.48-.5.06-2.1.16-4.22.33-6 .01-.24.2-.42.42-.4.22.02.38.22.37.46v.03c-.25 2.61-.35 5.92-.38 8.82v.1c-.03.76-.41 1.46-1 1.86-.11.07-.17.19-.19.33 0 0-.07.44.02 2.61.04.95.08 1.6.1 1.9 0 .11.09.2.2.21h.18c.38.03.77.05 1.17.07h.15l1.47.08 1.11.07c.11 0 .2-.08.22-.19.37-2.57.49-4.03.49-4.03 0-.13-.08-.24-.2-.26l-1.35-.27a.469.469 0 0 1-.37-.38c-.01-.08-.02-.15 0-.23.91-8.6 3.64-11.37 3.64-11.37.04-.04.08-.08.13-.11.19-.14.45-.08.58.13.02.03.03.07.05.1.02.07.02.14.02.21.11 2.72-.2 7.33-.5 10.92-.25 3.05-.5 5.44-.5 5.44 0 .1.07.18.15.19.74.05 1.46.11 2.23.17h.01c.31.02.58-.2.68-.52.56-2.17 1.29-10.63 1.33-11.01.04-.3.25-.54.52-.6l1.98-.31c.37-.08.6-.47.53-.87 0-.05-.02-.09-.04-.14z"/><path class="cls-4" d="M74.11 12.71c-.67-2.78-2.61-5.48-5.66-5.73-1.44-.12-2.92.36-4.1 1.17-1.18.81-2.23 2.01-2.65 3.41-.02.03-.04.06-.05.09-1.1 2.74-2.58 5.3-4.29 7.7-1.49 2.09-3.13 4.06-4.65 6.13-.83 1.14-1.62 2.31-2.3 3.55-.18.33.04.62.31.71.09.26.37.46.68.29 2.83-1.57 5.5-3.55 7.5-6.13 2.01-2.58 3.34-5.72 3.49-9.01.04-.89-.05-1.79.12-2.67.02-.09.05-.18.07-.27 0-.01.01-.03.02-.04v-.04c.19-.65.54-1.24.98-1.76.89-1.05 2.1-1.82 3.46-2.1 1.29-.26 2.59.02 3.65.79 1.04.76 1.76 1.95 2.19 3.15 1.13 3.16.39 6.52-.62 9.61-.14.43-.28.85-.43 1.28-.2.58.72.83.92.25 1.14-3.31 2.2-6.88 1.35-10.38z"/><path class="cls-14" d="M4.2 97.45c.5-.57.87-1.27 1.05-2.01"/><path class="cls-14" d="M5.54 94.11c-.56-.11-.84 2.02-1.1 2.51-.25.49-1.03 1.25-.49 1.48.2.19.75.07 1.08-.56 1.07-1.58.78-3.38.51-3.43zM4.46 100.18c.6 0 1.19 0 1.79.01"/><path class="cls-14" d="M7.79 100.28c0-.28-2.03-.54-2.96-.48-.49.03-.66.36-.9.49-.51.29-.84.52.89.51 1.52-.01 2.97.23 2.97-.52z"/><path class="cls-8" d="M85.16 118.38c.28 0 .47-.91.44-2.01-.03-1.1-.28-1.99-.56-1.98-.28 0-.47.91-.44 2.01s.28 1.99.56 1.98z"/><ellipse class="cls-8" cx="85.86" cy="131.14" rx=".5" ry="3.31"/><ellipse class="cls-12" cx="88.21" cy="124.12" rx="3.98" ry=".92"/><path class="cls-8" d="M82.29 129.33c-.2-.37-2.36.41-4.94 1.49-2.58 1.08-4.66 2.06-4.54 2.46.12.39 2.45.04 5.12-1.08 2.66-1.1 4.56-2.51 4.37-2.87zM39.63 120.93c-.04-.13-1.95.37-5.01 1.28-3.05.91-7.25 2.23-11.86 3.77-4.61 1.54-8.76 3.04-11.73 4.19-2.97 1.16-4.78 1.96-4.73 2.09.05.13 1.94-.44 4.97-1.42 3.03-1 7.2-2.39 11.81-3.91 4.61-1.54 8.77-2.97 11.77-4.05 3-1.08 4.83-1.82 4.79-1.95z"/><path class="cls-8" d="M47.73 138.8c.04-.27-9.2-1.96-20.65-3.78-11.45-1.81-20.76-3.06-20.8-2.79-.04.27 9.2 1.96 20.65 3.78 11.45 1.81 20.76 3.06 20.8 2.79zM76.59 126.56c-.05-.14-1.74.35-4.48 1.1-2.74.77-6.53 1.78-10.7 3.03-2.08.63-4.06 1.27-5.84 1.91-1.76.62-3.45 1.29-4.54 2.38-1.1 1.09-1.43 2.39-1.37 3.22.06.86.4 1.23.44 1.2.08-.03-.11-.45-.05-1.2.06-.73.45-1.83 1.46-2.71 1.01-.9 2.57-1.45 4.36-2.03 1.78-.59 3.75-1.2 5.83-1.82 4.15-1.25 7.93-2.37 10.62-3.31 2.7-.93 4.32-1.65 4.27-1.77z"/><path class="cls-2" d="M129.73 59.53c-.04-.57-3.23-.75-7-1.58-3.78-.79-6.76-1.93-7.03-1.43-.27.46 2.51 2.51 6.61 3.38 4.09.89 7.48.15 7.42-.37zM131.22 66.12c-.12-.57-3.67-.11-7.64-1.56-4-1.35-6.49-3.93-6.94-3.56-.2.16.17 1.07 1.22 2.21 1.04 1.14 2.81 2.44 5.06 3.24 2.25.79 4.45.88 5.97.63 1.53-.24 2.39-.72 2.33-.97z"/><path class="cls-8" d="M132.1 72.8c.05-.11-.62-.62-1.93-.95-1.3-.31-3.25-.37-5.19.39-1.95.75-3.37 2.1-4.05 3.3-.34.61-.45 1.2-.43 1.59.03.4.15.59.21.58.14-.02.06-.83.81-1.78.73-.95 2.07-2.09 3.82-2.75 1.74-.69 3.48-.74 4.71-.63 1.23.13 1.99.4 2.05.25z"/><path class="cls-5" d="M130.91 67.52s1.66-1.65 1.85-2.46-.11-2.53-.11-2.53l-.25-2.47c-.1-.98-.47-2.52-.47-2.52v-3.12s-.76-1.47-.91-2.17-.34-4.67-.4-4.87-1.63-4.38-2.04-4.49-.94-.15-.93.89.25 2.22.43 3.35.69 4.03.6 4.03-3.14.96-3.14.96-1.34.64-.24 1.45 2.29 1.22 2.35 1.24.43 1.72.43 1.72-.99.1-1.36.64-.32.9.07 1.28 2.09 1.32 2.09 1.32-.41.64.15 1.58 1.55 1.92 1.42 2.05-.37 1.4-.37 1.4l.82 2.73z"/><path class="cls-14" d="m131.98 62.02.16 1.35c.05.4.16.85.13 1.25-.01.15-.1.26-.19.37-.14.18-.29.35-.44.53-.29.35-.58.71-.87 1.06-.17.21-.2.5 0 .7.17.17.53.21.7 0 .31-.38.62-.76.94-1.14.3-.36.69-.73.81-1.19s0-.97-.06-1.44l-.17-1.49c-.03-.27-.21-.49-.49-.49-.24 0-.53.23-.49.49zM128.4 59.67l.24 1.03a.495.495 0 0 0 .61.35c.26-.09.41-.34.35-.61l-.24-1.03a.495.495 0 0 0-.61-.35c-.26.09-.41.34-.35.61zM127.35 55.16l.35 1.49c.06.25.36.43.61.35.26-.09.41-.34.35-.61l-.35-1.49c-.06-.25-.36-.43-.61-.35-.26.09-.41.34-.35.61zM131.29 52.79c.08-1.21.15-2.41.23-3.62.02-.27-.24-.49-.49-.49-.28 0-.48.23-.49.49-.08 1.21-.15 2.41-.23 3.62-.02.27.24.49.49.49.28 0 .48-.23.49-.49z"/><path class="cls-14" d="M131.52 48.7c-.58-2.19-1.39-4.32-2.42-6.35-.29-.57-1.14-.07-.85.5.99 1.95 1.76 4 2.32 6.11.16.62 1.12.35.95-.26z"/><path class="cls-14" d="M128.16 42.06c-.64.51-.93 1.34-1 2.13-.08.91.18 1.82.44 2.68.18.61 1.13.35.95-.26-.35-1.19-.86-2.93.3-3.85.21-.17.17-.53 0-.7-.21-.21-.49-.17-.7 0z"/><path class="cls-14" d="M127.6 46.87c.26 1.21.33 2.45.39 3.68.01.27.22.49.49.49.26 0 .51-.23.49-.49-.06-1.32-.14-2.65-.42-3.94-.06-.26-.36-.41-.61-.35-.27.07-.4.35-.35.61zM132.36 58.38c.18-.72.32-1.44.42-2.17.1-.68.23-1.39-.1-2.03-.14-.26-.35-.49-.56-.7-.26-.27-.52-.55-.78-.82l-1.56-1.65c-.44-.46-1.14.24-.7.7.47.5.95 1 1.42 1.51.23.24.45.48.68.72.19.2.41.39.56.62.3.45.13 1.09.05 1.59-.1.66-.23 1.32-.39 1.98-.15.62.8.88.95.26z"/><path class="cls-14" d="M129.29 50.89c-1.61-.13-3.24.29-4.61 1.14-.54.34-.04 1.19.5.85a6.694 6.694 0 0 1 4.11-1c.27.02.49-.24.49-.49 0-.29-.23-.47-.49-.49z"/><path class="cls-14" d="M124.24 52.76c.48 1.51 2.04 2.08 3.46 2.38.25.05.55-.07.61-.35.06-.25-.07-.55-.35-.61-.31-.07-.62-.14-.93-.23-.15-.05-.29-.1-.44-.15-.01 0-.14-.06-.04-.01-.04-.02-.08-.03-.11-.05-.07-.03-.14-.07-.2-.1-.13-.07-.26-.15-.38-.23-.02-.01-.03-.02-.05-.04.04.03.05.04.02.02-.03-.02-.05-.04-.08-.06-.06-.05-.12-.11-.17-.16-.03-.03-.05-.06-.08-.09 0 0-.08-.1-.04-.04s-.04-.05-.04-.06a.922.922 0 0 1-.05-.08c-.04-.07-.08-.14-.12-.22-.05-.09.02.07-.01-.04-.01-.04-.03-.08-.04-.12-.08-.25-.35-.43-.61-.35-.25.08-.43.34-.35.61z"/><path class="cls-14" d="M127.72 55.03c.09.03.19.06.28.1l-.12-.05c.23.1.45.23.66.39l-.1-.08c.19.15.36.31.5.49.08.09.24.14.35.14.12 0 .27-.05.35-.14s.15-.22.14-.35c0-.14-.06-.24-.14-.35-.43-.52-1.01-.91-1.66-1.11a.496.496 0 0 0-.61.35c-.06.27.08.53.35.61z"/><path class="cls-14" d="M128.62 55.63c-.04.15-.09.29-.11.44-.03.2-.03.38-.03.58 0 .13.06.26.14.35s.23.15.35.14.26-.05.35-.14.14-.22.14-.35c0-.15 0-.29.01-.44l-.02.13c.02-.16.07-.31.12-.45.04-.12.01-.27-.05-.38-.06-.1-.18-.2-.3-.23-.13-.03-.27-.02-.38.05s-.19.17-.23.3z"/><path class="cls-14" d="M132.4 58.37a6.826 6.826 0 0 0-3.4-2.22c-.25-.07-.55.09-.61.35s.08.53.35.61c.6.17 1.07.38 1.61.74.12.08.27.19.35.25-.02-.02.04.04.05.04.03.03.07.05.1.08l.18.15c.24.22.46.45.67.7.17.21.52.18.7 0 .2-.2.17-.49 0-.7z"/><path class="cls-14" d="M128.43 56.16c-.8.01-1.59.28-2.23.76-.11.08-.19.16-.23.3-.03.12-.02.28.05.38.13.2.46.34.68.18.14-.1.28-.2.43-.28l.24-.12c.05-.02.04-.02-.02 0 .02 0 .04-.02.06-.03.04-.01.07-.03.11-.04.16-.06.32-.1.49-.13.01 0 .11-.03.12-.02-.08 0-.09.01-.03 0h.07c.09 0 .18-.01.27-.01.26 0 .51-.22.49-.49s-.22-.5-.49-.49z"/><path class="cls-14" d="M125.81 57.67c.4 1.22 1.55 2.2 2.87 2.17.26 0 .51-.22.49-.49s-.22-.5-.49-.49h-.28c-.06 0 .11.02.02 0-.12-.02-.24-.05-.35-.09l-.09-.03c-.11-.04.1.05 0 0-.05-.02-.1-.05-.15-.07a2.297 2.297 0 0 1-.33-.21.5.5 0 0 1-.08-.07c-.05-.04-.09-.09-.14-.13s-.09-.09-.13-.14c-.02-.03-.05-.05-.07-.08.03.05.04.06 0 0-.08-.1-.14-.21-.2-.33-.01-.03-.03-.05-.04-.08 0-.02-.02-.03-.02-.05-.01-.03-.01-.02.01.04 0-.06-.05-.14-.07-.2-.08-.25-.35-.43-.61-.35-.25.08-.43.35-.35.61zM131.7 59.07s.07.08.11.12c.04.04-.07-.1-.01-.02.01.02.03.04.04.06l.09.15c.01.02.02.05.04.07.03.06.03.03 0 0 .06.09.09.25.12.35.02.06.03.12.04.18 0 .03.01.06.02.09 0 .04.04.13 0 .01.03.1.02.25.02.36v.28c-.01.11.02-.08 0-.01-.03.11-.05.22-.09.33-.03.1.05-.1 0 0 0 .02-.02.04-.03.05-.02.04-.13.19-.03.07-.16.2-.21.5 0 .7.18.16.53.22.7 0 .4-.5.5-1.15.43-1.77s-.27-1.27-.73-1.71c-.18-.18-.52-.2-.7 0s-.2.51 0 .7z"/><path class="cls-14" d="M132.48 61.29c-1.09-.78-2.42-1.08-3.74-.9-.26.04-.41.38-.35.61a7.49 7.49 0 0 0 1.89 3.24c.19.19.51.19.7 0s.19-.51 0-.7a6.434 6.434 0 0 1-1.63-2.81l-.35.61h.03c.04 0 .07 0 .11-.01.07 0 .15 0 .22-.01h.39a4.188 4.188 0 0 1 2.21.82c.22.16.55.04.68-.18.15-.25.04-.52-.18-.68z"/><path class="cls-8" d="M79.22 66.79c.07.1.63-.09 1.25-.79.61-.67 1.23-1.94 1.09-3.41-.06-.72-.28-1.39-.59-1.93-.31-.56-.73-.94-.74-1.13-.07-.19.16-.56.21-.83.06-.29-.06-.46-.12-.44-.07.01-.11.13-.24.29-.08.09-.17.2-.27.32-.11.14-.27.35-.28.7-.01.33.14.62.27.86.14.23.25.42.35.66.21.47.36 1.01.41 1.6.11 1.17-.27 2.22-.67 2.91-.39.7-.76 1.08-.67 1.2zM63.21 70.61c.12 0 .24-.67-.23-1.62-.24-.46-.61-.98-1.18-1.39-.53-.43-1.35-.73-2.09-.81-.34-.05-.62-.12-.74-.22-.12-.09-.18-.25-.23-.56-.04-.28-.1-.68-.29-1-.19-.31-.44-.53-.68-.67-.5-.29-.98-.29-1.28-.2-.3.09-.41.22-.39.28.04.14.65-.02 1.26.5.14.13.27.29.35.47.07.18.09.38.11.72.02.3.09.85.51 1.21.41.34.86.4 1.23.46 1.35.11 2.28.89 2.81 1.58.53.69.67 1.27.83 1.25zM77.22 59.89c-.18-.25-3.39 2.19-8.08 3.45-4.67 1.32-8.69.88-8.71 1.19-.02.12.97.4 2.61.5 1.64.1 3.94-.05 6.37-.72 2.43-.67 4.48-1.73 5.83-2.65 1.36-.92 2.06-1.67 1.98-1.76z"/><path class="cls-8" d="M64.6 98.82c.14-.06-.54-1.83-1.49-4.72-.95-2.89-2.12-6.93-3-11.49-.87-4.56-1.28-8.74-1.46-11.78-.18-3.04-.21-4.93-.36-4.94-.12 0-.35 1.89-.35 4.96 0 3.07.3 7.33 1.18 11.95.89 4.62 2.18 8.68 3.32 11.54 1.13 2.86 2.04 4.53 2.15 4.48zM93.64 87.24c.12-.03-.11-1.74-.83-4.43-.72-2.69-1.99-6.35-3.88-10.17-1.89-3.82-4.03-7.05-5.74-9.25-1.7-2.21-2.93-3.43-3.02-3.35-.25.2 4.16 5.49 7.86 13.05 3.76 7.53 5.29 14.25 5.6 14.16z"/></g></svg>