<?xml version="1.0" encoding="UTF-8"?><svg xmlns="http://www.w3.org/2000/svg" viewBox="0 0 200 200"><defs><style>.cls-1{fill:#c0d9dd;}.cls-2{fill:#f47f20;}.cls-3,.cls-4{mix-blend-mode:multiply;opacity:.5;}.cls-5{fill:#575655;}.cls-6{fill:#a0b3b4;}.cls-7{isolation:isolate;}.cls-4{fill:#8db4e0;}.cls-8,.cls-9{fill:#d5e7e9;}.cls-10{fill:#fff;}.cls-11{fill:#e1ded8;}.cls-9{stroke:#d5e7e9;stroke-miterlimit:10;stroke-width:.26px;}.cls-12{opacity:.38;}.cls-13{fill:#f48020;}.cls-14{fill:#f5c141;}.cls-15{fill:#f05f2b;}</style></defs><g class="cls-7"><g id="BG_x5F_Strong"><path class="cls-5" d="M22.49,136.83c25.9,83.2,164.1,55.29,172.69-23.61C186.83-41.6-62.87-21.53,22.49,136.83Z"/></g><g id="Outline"><path class="cls-10" d="M186.73,79.01H22.08c-1.97,0-3.57-1.6-3.57-3.57h0c0-1.97,1.6-3.57,3.57-3.57h164.65c1.97,0,3.57,1.6,3.57,3.57h0c0,1.97-1.6,3.57-3.57,3.57Z"/><polygon class="cls-4" points="33.77 79.01 24.88 79.01 25.51 83.34 33.15 83.34 33.77 79.01"/><polygon class="cls-4" points="183.92 79.01 175.03 79.01 175.66 83.34 183.29 83.34 183.92 79.01"/><polygon class="cls-4" points="108.84 79.01 99.96 79.01 100.58 83.34 108.22 83.34 108.84 79.01"/><rect class="cls-10" x="18.51" y="147.4" width="171.78" height="7.13" rx="3.57" ry="3.57"/><polygon class="cls-4" points="33.77 154.53 24.88 154.53 25.51 158.86 33.15 158.86 33.77 154.53"/><polygon class="cls-4" points="183.92 154.53 175.03 154.53 175.66 158.86 183.29 158.86 183.92 154.53"/><polygon class="cls-11" points="183.92 79.01 175.03 79.01 108.84 79.01 99.96 79.01 33.77 79.01 24.88 79.01 22.6 79.01 22.6 82.23 25.35 82.23 26.52 90.35 32.13 90.35 33.31 82.23 100.42 82.23 101.6 90.35 107.21 90.35 108.38 82.23 175.5 82.23 176.67 90.35 182.28 90.35 183.45 82.23 186.2 82.23 186.2 79.01 183.92 79.01"/><polygon class="cls-11" points="175.03 154.53 108.84 154.53 99.96 154.53 33.77 154.53 24.88 154.53 22.6 154.53 22.6 157.75 25.35 157.75 26.52 165.87 32.13 165.87 33.31 157.75 100.42 157.75 101.6 165.87 107.21 165.87 108.38 157.75 175.5 157.75 176.67 165.87 182.28 165.87 183.45 157.75 186.2 157.75 186.2 154.53 183.92 154.53 175.03 154.53"/><path class="cls-11" d="M56.63,39.57c-1.46-1.03-2.32-2.7-2.32-4.48v-6.47h.03c.59,0,1.07-.48,1.07-1.07s-.48-1.07-1.07-1.07h-12.68c-.59,0-1.07.48-1.07,1.07s.48,1.07,1.07,1.07h.03v1.67h0v4.81c0,1.78-.87,3.45-2.32,4.48-1.46,1.03-2.32,2.7-2.32,4.48v24.55c0,1.81,1.47,3.27,3.27,3.27h15.37c1.81,0,3.27-1.47,3.27-3.27v-24.55c0-1.78-.87-3.45-2.32-4.48Z"/><path class="cls-2" d="M52.83,39.57c-1.46-1.03-2.32-2.7-2.32-4.48v-6.47h-12.63v6.47c0,1.78-.87,3.45-2.32,4.48-1.46,1.03-2.32,2.7-2.32,4.48v24.55c0,1.81,1.47,3.27,3.27,3.27h15.37c1.81,0,3.27-1.47,3.27-3.27v-24.55c0-1.78-.87-3.45-2.32-4.48Z"/><path class="cls-13" d="M52.8,39.61c-1.66-1.12-2.51-3.17-2.39-5.13,0,0-.14-5.86-.14-5.86l.23.23c-3.15.1-9.48.21-12.63.23,0,0,.46-.46.46-.46,0,0-.04,6.06-.04,6.06.15,2.1-1.1,4.32-2.87,5.38-1.63,1.23-2.12,3.22-2,5.21-.06,5.88-.04,12.34.08,18.18.02.95.06,3.61.08,4.55-.2,1.92,1.25,3.63,3.22,3.43.1.05,12.96-.14,13.63-.1.76-.02,2.03.12,2.71-.32,1.3-.67,1.56-2.04,1.46-3.42,0-.93.01-3.57.01-4.54.05-4.04.13-8.08.26-12.12,0,0,.14-6.06.14-6.06.18-2.01-.55-4.08-2.24-5.25h0ZM52.86,39.53c1.75,1.16,2.55,3.3,2.4,5.34,0,0,.14,6.06.14,6.06.13,4.04.2,8.08.26,12.12,0,.95.01,3.61.01,4.54.17,1.64-.38,3.58-2,4.37-.87.56-2.24.44-3.22.46-.74.01-13.45-.1-13.63-.1-2.36.18-4.3-2.02-3.95-4.32.02-.93.06-3.58.08-4.54.11-5.83.16-12.31.08-18.18,0-.91-.09-2.22.26-3.08.32-1.01.93-1.93,1.74-2.62,1.68-1.12,2.57-2.94,2.42-4.89,0,0-.04-6.06-.04-6.06v-.47c3.38.02,9.71.13,13.09.23,0,0,.24,0,.24,0v.23s-.14,5.86-.14,5.86c-.18,1.95.63,3.92,2.25,5.05h0Z"/><path class="cls-15" d="M51.32,39.73c-1.32-.99-1.98-2.73-1.98-4.45v-1.05c-1.64,1.74-3.48,1.6-4.78,1.22-1.31-.39-2.03-1.24-3.42-1.22-.74.01-1.45.19-2.15.54l-.02.28c0,1.72-.85,4.22-2.17,5.21-1.32.99-2.22,1.94-2.22,3.67l-.32,23.57c0,1.75,1.33,3.17,2.97,3.17h13.95c1.64,0,2.97-1.42,2.97-3.17v-23.48c0-2.37-1.5-3.3-2.83-4.3Z"/><path class="cls-15" d="M51.32,39.73c-1.71-1.26-2.12-3.51-2.01-5.5-.94,1.46-3.42,1.87-5.09,1.18-.89-.31-1.64-.93-2.55-1.05-.9-.11-1.82.12-2.63.53,0,0,.07-.1.07-.1-.02.98-.15,2.02-.49,2.97-.3.86-.71,1.71-1.38,2.4-.71.63-1.41,1.12-1.87,1.85-.48.72-.56,1.54-.52,2.45.03,5.38-.02,16.21-.08,21.58,0,0-.01,1.35-.01,1.35-.05,1.16.62,2.31,1.72,2.69.59.22,1.85.1,2.52.14,1.71.01,6.33.04,8.09.05,0,0,2.7.04,2.7.04.7-.05,1.86.17,2.49-.23.72-.34,1.26-1.03,1.46-1.82.19-.65.08-1.9.13-2.62,0,0,.08-5.4.08-5.4.05-3.6.13-7.19.13-10.79,0,0,.03-5.4.03-5.4.11-1.92-1.32-3.31-2.79-4.3h0ZM51.32,39.73c1.49.98,2.95,2.37,2.86,4.3,0,0,.03,5.4.03,5.4,0,3.6.09,7.19.13,10.79l.08,5.4.02,1.35c.27,1.95-1.17,4.12-3.29,4.09-2.43.05-6.97.08-9.44.09-.88,0-3.19.02-4.05.02-2.1.27-4.08-1.69-3.91-3.8.1-6.04.34-16.89.53-22.93-.01-.91.12-1.95.68-2.72,1.19-1.54,2.77-2.06,3.34-4.09.37-.94.51-1.95.57-2.95.87-.42,1.86-.65,2.83-.5.96.16,1.71.78,2.57,1.1,1.73.7,3.79.35,5.05-1.07,0,0,.06-.06.06-.06,0,0,0,.09,0,.09-.12,1.99.25,4.22,1.94,5.5h0Z"/><path class="cls-10" d="M50.72,28.49c-4.26-.69-8.65-.48-12.95.07-.86.11-1.7.39-2.55.51,5.12.49,10.4.23,15.56.21,0-.17-.04-.61-.06-.79Z"/><path class="cls-1" d="M50.54,26.49h-12.68c-.59,0-1.07.48-1.07,1.07s.48,1.07,1.07,1.07h12.68c.59,0,1.07-.48,1.07-1.07s-.48-1.07-1.07-1.07Z"/><path class="cls-1" d="M50.54,26.49c-3.86,0-8.14.13-12.03.22-.61,0-1.24-.05-1.45.6-.18.51.26,1.09.79,1.06,3.86,0,8.14.13,12.03.22.64.04,1.43.03,1.66-.71.24-.64-.3-1.4-1-1.38h0ZM50.54,26.49c.69-.03,1.27.73,1.03,1.4-.21.76-1.05.81-1.69.77-3.89.09-8.16.21-12.03.22-.41,0-.82-.21-1.06-.55-.52-.68-.17-1.76.65-2,.42-.12.73-.04,1.07-.06l4.01.09c2.67.08,5.34.11,8.02.13h0Z"/><path class="cls-14" d="M148.92,122.74c-.2-2.02-1.58-3.74-2.65-5.38-1.36-2.07-2.73-4.13-4.09-6.2-.04-.07-.09-.12-.14-.17-9.63-14.69-19.72-29.09-30.2-43.18-1.43-1.92-2.87-3.84-4.32-5.76-1.09-1.45-2.18-3.05-3.79-3.98-3.92-2.27-6.53,2.13-8.61,4.75-6.1,7.69-12.02,15.54-17.8,23.47-6.6,9.06-13.02,18.24-19.36,27.49-.08.11-.12.22-.13.33-.69,1.08-1.37,2.17-2.02,3.27-.9,1.51-1.97,3.04-2.58,4.69-1.01,2.73.7,4.68,3.38,5.05,3.04.42,6.31.04,9.37.01,3.44-.03,6.87-.05,10.3-.07,14.41-.07,28.82-.01,43.22.05,5.91.03,11.81.06,17.72.08.97-.71,1.69-1.97,1.8-3,.32-2.87-1.54-5.59-2.96-7.93-11.57-19.04-24.2-37.43-37.82-55.06-.39-.5-.5-1.18,0-1.67.41-.41,1.28-.51,1.67,0,4.17,5.39,8.25,10.85,12.23,16.38,7.12,9.88,13.95,19.98,20.45,30.28,1.59,2.52,3.17,5.06,4.72,7.6,1.51,2.46,3.29,5.01,3.87,7.89.4,1.95.17,3.89-.85,5.51.7,0,1.4,0,2.1,0,1.18,0,2.86.1,4.16-.43,1.67-.68,2.5-2.28,2.32-4.05ZM96.7,116.77c-2.49,0-4.52-2.02-4.52-4.52s2.02-4.52,4.52-4.52,4.52,2.02,4.52,4.52-2.02,4.52-4.52,4.52ZM102.22,79.46l-3.41,24.13h-4.11l-3.41-24.13c1.4-.5,3.56-.9,5.47-.9s4.06.4,5.47.9Z"/><path class="cls-10" d="M91.28,79.46l3.41,24.13h4.11l3.41-24.13c-1.41-.5-3.56-.9-5.47-.9s-4.06.4-5.47.9Z"/><path class="cls-10" d="M96.7,107.74c-2.49,0-4.52,2.02-4.52,4.52s2.02,4.52,4.52,4.52,4.52-2.02,4.52-4.52-2.02-4.52-4.52-4.52Z"/><path class="cls-10" d="M141.18,121.71c-.58-2.88-2.37-5.43-3.87-7.89-1.56-2.55-3.13-5.08-4.72-7.6-6.51-10.3-13.33-20.4-20.45-30.28-3.98-5.53-8.07-10.98-12.23-16.38-.39-.51-1.25-.41-1.67,0-.5.49-.39,1.17,0,1.67,13.62,17.63,26.25,36.02,37.82,55.06,1.42,2.33,3.28,5.05,2.96,7.93-.12,1.04-.83,2.29-1.8,3,1.04,0,2.08.01,3.13.01,1.03-1.63,1.25-3.56.85-5.51Z"/><path class="cls-11" d="M155.56,132.15c1.6-1.51,3.76-2.44,6.14-2.44.18,0,.36,0,.54.02.94.06,1.85.26,2.69.58,1.04.4,1.99.99,2.8,1.73,1.8,1.64,2.93,4,2.93,6.62,0,2.62-1.13,4.99-2.93,6.62-.81.74-1.76,1.33-2.8,1.73-.84.33-1.75.53-2.69.58-.18.01-.36.02-.54.02-2.38,0-4.54-.93-6.14-2.44-1.73-1.63-2.81-3.95-2.81-6.52,0-2.57,1.08-4.88,2.81-6.52Z"/><path class="cls-1" d="M152.42,133.56c1.48-1.73,3.68-2.84,6.14-2.84.18,0,.36.02.54.03.95.06,1.86.28,2.69.65,1.08.47,2.03,1.17,2.8,2.04,1.27,1.43,2.06,3.31,2.06,5.37s-.78,3.94-2.06,5.37c-.77.87-1.72,1.57-2.8,2.04-.83.36-1.74.58-2.69.65-.18.01-.35.03-.54.03-2.46,0-4.66-1.1-6.14-2.84-1.21-1.41-1.94-3.24-1.94-5.25s.73-3.83,1.94-5.25Z"/><g class="cls-3"><path class="cls-6" d="M151.21,138.71c0-1.21,1.24-2.23,2.71-2.23,1.74,0,2.71.79,2.71,2.23,0,1.44-.96,2.23-2.71,2.23-1.47,0-2.71-1.02-2.71-2.23ZM151.74,138.71c0,.91,1.02,1.7,2.18,1.7,1.45,0,2.18-.57,2.18-1.7,0-1.13-.73-1.7-2.18-1.7-1.16,0-2.18.8-2.18,1.7Z"/></g><path class="cls-9" d="M151.94,144.83s.04.03.05.05c.03.03.05.06.07.09h0c1.52,1.52,3.81,2.66,6.12,2.78.18,0,.36.01.54.01,1.57,0,2.72-.49,2.72-.49,1.01-.34,1.95-.86,2.76-1.52l.06-.14v.09c1.88-1.54,3.21-3.77,3.36-6.39.15-2.62-.85-5.04-2.56-6.78-.77-.78-1.68-1.42-2.7-1.88-.82-.37-1.72-.62-2.66-.73-.18-.02-.35-.04-.53-.05-2.34-.13-4.51.65-6.18,2.03h0s-.02.01-.03.02c-.02.01-.04.03-.06.04h0c-1.45,1.29-3.17,4.13-3.3,6.34-.14,2.49.76,4.8,2.32,6.51h0ZM152.14,143.71h0c-1.13-1.49-1.76-3.36-1.65-5.36s1.22-3.92,2.36-5.28c1.47-1.75,3.82-2.47,6.28-2.34.18.01.36.04.53.06.95.12,1.84.39,2.65.8,1.05.53,1.96,1.28,2.68,2.19,1.19,1.5,1.87,3.42,1.75,5.48-.1,1.71-.73,3.26-1.71,4.52l.05-.11-.77.87c-.82.82-1.85,1.43-2.95,1.84,0,0-1.69.49-2.6.5-.18,0-.36,0-.54,0-2.39-.13-4.7-1.43-6.1-3.17Z"/><path class="cls-11" d="M171.65,146.18h.13s0-.9,0-.9v-.3s0-.99,0-.99v-.3s0-.99,0-.99v-.3s0-.99,0-.99v-.3s0-.99,0-.99v-.3s0-.99,0-.99v-.3s0-.99,0-.99v-.3s0-.99,0-.99v-.3s0-.99,0-.99v-.3s0-.99,0-.99v-.3s0-.99,0-.99v-.3s0-.99,0-.99v-.3s0-.99,0-.99v-.3s0-.99,0-.99v-.3s0-.99,0-.99v-.3s0-.99,0-.99v-.3s0-.75,0-.75v-3.24s-.13,0-.13,0c-.32,0-.59-.26-.59-.59,0-.32.26-.59.59-.59h9.09s3.58,0,3.58,0h3.58s1.93,0,1.93,0c.32,0,.59.26.59.59,0,.32-.26.59-.59.59h-.13s0,3.24,0,3.24v1.05s0,.99,0,.99v1.3s0,.3,0,.3v.99s0,.3,0,.3v.99s0,.3,0,.3v.99s0,.3,0,.3v.99s0,.3,0,.3v.99s0,.3,0,.3v.99s0,.3,0,.3v.99s0,.3,0,.3v.99s0,.3,0,.3v.99s0,.3,0,.3v.99s0,.3,0,.3v.99s0,.3,0,.3v.99s0,.3,0,.3v.99s0,.3,0,.3v.9s.13,0,.13,0c.32,0,.59.26.59.59h0c0,.32-.26.59-.59.59h-1.93s-3.58,0-3.58,0h-3.58s-9.09,0-9.09,0c-.32,0-.59-.26-.59-.59h0c0-.32.26-.59.59-.59Z"/><path class="cls-8" d="M169,121.94s.63,0,.63,0c5.7-.04,11.83-.24,17.52-.24.08,0,.16-.02.23-.05.02,0,.04-.02.07-.03,0,0-.02,0-.03,0,.02-.01.04-.03.06-.04,0,0-.01.02-.02.02.09-.06.16-.13.21-.23.01-.02.02-.04.03-.06.01-.03.01-.06.02-.09,0-.04.02-.08.02-.12,0,0,0-.01,0-.02,0-.3-.21-.6-.62-.58-.37,0-2.7-.02-3.13-.02-4.85-.09-10.19-.21-15.01-.22-.3,0-.59.17-.73.44-.32.54.15,1.29.77,1.23ZM187.63,120.8s0,0,0,0c0,0,0,0,0,0,0,0,0,0,0,0Z"/><path class="cls-8" d="M187.44,121.61s0,0,0,0c0,0,0,0,0,0Z"/><path class="cls-8" d="M168.51,146.91c0,.06.02.11.03.16.06.24.24.45.58.44.37,0,2.68.02,3.11.02,4.82.09,10.12.21,14.91.22.3,0,.59-.17.73-.43.32-.54-.14-1.28-.75-1.24,0,0-.62,0-.62,0-5.66.04-11.75.24-17.4.24-.12,0-.21.03-.3.08,0,0,.02,0,.03,0-.02.01-.04.03-.06.04.01,0,.02-.02.03-.03-.09.05-.16.13-.2.22,0,0,0,0,0,0,0,0,0,0,0,0-.01.02-.03.05-.04.07,0,0,0,.01,0,.02-.02.06-.04.12-.04.19ZM168.6,147.21s0,0,0,0c0,0,0,0,0,0,0,0,0,0,0,0Z"/><path class="cls-8" d="M168.8,146.4s0,0,0,0c0,0,0,0,0,0Z"/><rect class="cls-1" x="169.1" y="121.7" width="17.91" height="24.63"/><g class="cls-12"><path class="cls-6" d="M177.43,126.32c-2.82.05-5.64,0-8.46-.05v-1.1c5.97,0,11.94.14,17.91.14v1.13c-3.13-.44-6.3-.17-9.45-.12Z"/><path class="cls-6" d="M182.35,131.54c-1.73-.02-3.45-.07-5.18-.13-2.78-.09-5.55-.3-8.33-.39v-.98c5.97.05,11.94.37,17.91.05v1.36c-1.46-.03-2.94.1-4.4.09Z"/><path class="cls-6" d="M182.6,144.8c-1.73-.02-3.45-.07-5.18-.13-2.78-.09-5.55-.3-8.33-.39v-.98c5.97.05,11.94.37,17.91.05v1.36c-1.46-.03-2.94.1-4.4.09Z"/><path class="cls-6" d="M182.64,139.11c-1.82.02-3.63-.03-5.45-.06-2.74-.04-5.48-.06-8.22-.06v-1.53c2.78.09,5.55.31,8.33.39,1.73.05,3.45.11,5.18.13,1.46.01,2.94-.12,4.4-.09v1.03c-1.41,0-2.83.16-4.24.18Z"/></g><circle class="cls-10" cx="178.24" cy="134.99" r="7.09" transform="translate(-26.42 44.95) rotate(-13.39)"/><path class="cls-10" d="M171.16,134.99c-.09,6.1,7.71,9.17,11.79,4.7,4.04-4.12,1.09-11.4-4.7-11.53-3.73-.23-7.17,3.05-7.09,6.83h0ZM171.16,134.99c-.1-6.33,7.85-9.78,12.41-5.32,3,2.73,3,7.92,0,10.65-4.57,4.46-12.51,1-12.41-5.32h0Z"/><path class="cls-1" d="M174.3,134.99c.07,2.24,2.13,4.21,4.33,4.23,2.24.04,4.12-2.02,4.07-4.23.05-2.21-1.83-4.27-4.07-4.23-2.2.01-4.26,1.98-4.33,4.23h0ZM174.3,134.99c-.14-6.4,8.76-6.16,8.91,0-.14,6.16-9.05,6.4-8.91,0h0Z"/><rect class="cls-10" x="183.61" y="132.75" width="3.31" height="6.08" rx=".09" ry=".09"/><path class="cls-10" d="M183.7,138.83c.96,0,1.95-.03,2.91-.11.3-.05.13.09.15-.2-.1-1.3-.29-3.35-.33-4.66,0-.26-.01-.76-.02-1.02-.02.17.18.44.42.42-1.04,0-2.09-.04-3.13-.13.15.01.3-.17.28-.29,0,.04-.01.17-.02.22-.1,1.3-.29,3.35-.33,4.66,0,.18-.01.69-.01.87,0,.08-.04.23.08.24h0ZM183.7,138.83c-.13,0-.09-.16-.09-.24,0-.18,0-.69-.01-.87-.04-1.4-.24-3.48-.35-4.87,0-.39.32-.5.68-.5,0,0,.58-.04.58-.04.78-.05,1.55-.06,2.33-.07.34-.02.63.34.6.61.01,1.26-.15,3.24-.25,4.51,0,0-.1,1.16-.1,1.16-.02.12.01.28-.08.38-.06.07-.15.07-.24.06-1.01-.09-2.04-.11-3.06-.12h0Z"/><rect class="cls-10" x="169.43" y="132.36" width="3.31" height="6.08" rx=".09" ry=".09"/><path class="cls-10" d="M172.65,132.36c-.96,0-1.95.04-2.91.11-.3.05-.13-.09-.15.2.1,1.3.29,3.35.33,4.66,0,.26.01.76.02,1.02.02-.17-.18-.44-.42-.42,1.04,0,2.09.04,3.13.13-.15-.01-.3.17-.28.29,0-.04.01-.17.02-.22.1-1.3.29-3.35.33-4.66,0-.18.01-.69.01-.87,0-.08.04-.23-.08-.24h0ZM172.65,132.36c.13,0,.09.16.09.24,0,.18,0,.69.01.87.04,1.4.24,3.48.35,4.87,0,.39-.32.5-.68.5,0,0-.58.04-.58.04-.78.05-1.55.06-2.33.07-.34.02-.63-.34-.6-.61-.01-1.26.15-3.24.25-4.51,0,0,.09-1.16.09-1.16.02-.12-.01-.28.08-.38.06-.07.15-.07.24-.06,1.01.09,2.04.11,3.06.12h0Z"/><path class="cls-10" d="M55.26,51.24h-3.7c-.99-3.07-3.86-5.29-7.26-5.29s-6.27,2.22-7.26,5.29h-3.92v5.03h4.05c1.09,2.88,3.87,4.94,7.13,4.94s6.04-2.06,7.13-4.94h3.83v-5.03Z"/><path class="cls-10" d="M55.26,51.24l-3.7.13c-.12,0-.08,0-.12-.09-2.38-6.76-12.16-6.52-14.06.42,0,0-.34,0-.34,0l-3.92.02s.48-.48.48-.48l.03,5.03-.51-.51,4.05.02s.34,0,.34,0l.12.31c2.2,6.16,11.24,6.17,13.55.08,0,0,.07-.18.07-.18,0,0,.18,0,.18,0l3.83.1-.17.17s.17-5.03.17-5.03h0ZM55.26,51.24l.17,5.03s0,.16,0,.16h-.17s-3.83.11-3.83.11l.25-.17c-.53,1.5-1.54,2.84-2.85,3.78-4.05,3.1-10.44,1.09-12.12-3.7,0,0,.46.32.46.32l-4.05.02s-.51,0-.51,0c0,0,0-.52,0-.52l.03-5.03v-.49s.48,0,.48,0l3.92.02s-.44.32-.44.32c2.32-7.29,12.95-7.28,15.08.1,0,0-.12-.09-.12-.09l3.7.13h0Z"/><path class="cls-15" d="M48.5,53.63s.1-.22-.06-.56c-.08-.17-.23-.36-.46-.51-.24-.15-.56-.24-.92-.2-.18.02-.36.08-.54.18-.18.1-.33.24-.46.4-.26.32-.41.69-.58,1-.08.15-.18.27-.3.39-.12.11-.25.19-.36.21-.11.02-.21,0-.29-.07-.09-.07-.18-.21-.24-.38-.12-.32-.1-.8-.31-1.3-.1-.25-.29-.48-.51-.63-.22-.16-.46-.24-.7-.28-.47-.08-.91,0-1.28.18-.38.18-.64.44-.85.68-.4.51-.57.97-.68,1.29-.11.32-.13.51-.09.53.05.02.17-.13.35-.4.19-.27.43-.68.82-1.06.19-.19.43-.37.69-.46.27-.1.6-.13.9-.07.3.07.54.24.65.52.06.14.1.33.13.54.02.11.03.22.06.34.02.12.06.25.1.38.09.25.23.52.49.72.26.21.63.27.93.19.3-.08.52-.24.7-.42.17-.17.31-.38.41-.57.19-.38.31-.71.47-.95.16-.24.36-.37.59-.43.23-.06.45-.03.63.04.18.07.32.19.42.3.2.22.25.4.31.39Z"/></g></g></svg>