<svg xmlns="http://www.w3.org/2000/svg" viewBox="0 0 200 200"><defs><clipPath id="clippath"><path class="cls-1" d="M71.24 173.34s-1.33-11.7-1.64-16.92c-.31-5.21-.26-11.33.1-15.19.36-3.86 1.29-7.94.08-15.14s-2.34-14.01-1.77-18.23 1.92-8.09 3.9-10.31l27 11.87s4.18 3.16 6.47 5.54 4.98 5.72 5.2 8.54c.21 2.82-.85 8.28-7.63 18.21l-5.69 8.3-6.87-3.27s2.17-6.12 2.88-11.48 1.63-8.27 2.34-9.15c0 0-4.61-1.41-9.29-4.55 0 0 .07 6.68-2.34 15.55-1.18 8.88-3.42 23.28-4.07 29.64l-.68 6.29-7.98.32z"/></clipPath><style>.cls-1,.cls-2{fill:none}.cls-4{fill:#f70}.cls-6{fill:#78577a}.cls-7{fill:#e47004}.cls-8{fill:#f2be45}.cls-2{stroke-width:1.5px;stroke-miterlimit:10;stroke:#5b3d5b;stroke-linecap:round}.cls-11{fill:#d73815}.cls-12{fill:#d2e4e7}.cls-14{fill:#5b3d5b}.cls-15{fill:#f25e29}.cls-16{fill:#fff}.cls-22{fill:#cca688}.cls-23{fill:#c8909c}.cls-24{fill:#7e567c}.cls-25{fill:#bdd6da}.cls-26{fill:#ff5000}.cls-27{fill:#fc7e04}.cls-29{fill:#c398d7}.cls-30{fill:#fb7d06}.cls-31{fill:#b4927d}</style></defs><path d="M192.2 148.44c-9.92-73.27-42.82-47.04-68.34-89.59C105.72-1.59 9.33 23.16 3.37 78.34c5.62 35.78 51.82 46.5 75.01 70.48 24.74 27.5 104.67 47.17 113.83-.38z" style="fill:#575655" id="BG_Strong"/><g id="Illustrations"><path class="cls-1" d="M99.12 70.16s0-.01.02-.02c.31.3-.06.01-.02.02z"/><path class="cls-8" d="M99.12 70.16s0-.01.02-.02c.31.3-.06.01-.02.02zM93.38 74.36c0-.15-.01-.29-.02-.44-.03-.35.32-.65.65-.65.38 0 .62.3.65.65.01.15.02.31.02.46-.43.02-.87 0-1.3-.03z"/><path class="cls-12" d="M139.88 49.78c-18.07 26.17-19.61 27.96 5.29 5.53-1.89-1.71-3.59-3.63-5.29-5.53z"/><path class="cls-12" d="M196.59 28.1c-1.99-17.19-20.84-19.86-34.49-14.78-8.73 3.09-18.73-.18-26.84 4.76-10.72 7.16-10.01 20.97-3.12 30.61 3.31 9.02 6.12 17.59 15.8 21.66-.01.08 1.97 1.03 2.21 1.13.72.26 3.46.85 3.53.7 13.58 2.38 30.28-3.64 35.99-16.9 1.19-2.95 1.78-6.08 2.65-9.13 1.67-5.91 4.75-11.74 4.29-18.05zM146.23 89.43v.01-.01z"/><path class="cls-12" d="M182.57 36.51c-7.17-23.82-38.93-18.02-40.33 2.8 2.53 28.87 35.98 27.79 39.24 2.35-.59-.33 1.32-.89 1.09-5.15zm-4.96 14.57.02.02-.02-.02zm-8.29 8.5s.02.01.02.02c-.02 0-.02 0-.02-.02zM156.9 22.37c-.1.05-.09.03-.19.08-.19-.12.03-.14.19-.08zm.05-.04s.03-.01.04 0c-.02 0-.04.02-.04 0zm-.35.16.58-.23c-.08.05 0-.05-.1 0 0-.23.06-.08.1 0zm-.04-.25s0 .06-.02.05c0-.02.01-.03.02-.05zm-.46.15v.09c-.04-.03-.06-.06 0-.09zm-.03.19c.09.12.38-.22.42-.05.02-.04-.94.47-.42.05zm-1.38 36.61h-.04c0-.03.03-.01.04 0zm-.22-.1s.03-.01.05 0h-.05zm.32.17s.06.02 0 0zm.97-36.48c.08-.12-.07.14-.22.16.06-.1.19-.12.22-.16zm-12.75 15.19c-.04-.05-.07-.1-.02-.12.04.05.03.07.02.12zm-.12.85-.01-.01.01.01zm-.59 1.63c.06.03.05.04.03.07-.03 0-.04-.03-.03-.07zm.19 1.37c.09-.13.06.2 0 0zm11.82 17.2s.01 0 .03-.02c-.01 0-.02.02-.03.02zm.49.25h.04-.04zm22.25-7.54zm3.58-18.95s.01.03.01.04c0-.02-.04-.05-.01-.04zm-7.88-7.69s-.04-.03-.05-.05c.03-.01.08 0 .05.05zm-.07-.06s-.03-.03-.05-.04c.06.02.06.03.05.04zm-.13-.11v-.02.02zm-5.38-3.17h-.05s.02-.01.05 0zm-1.54-.55s-.04.08-.02.12c-.24-.06-.15-.03.02-.12zm-1.21-.32c-.06-.3.53.45.42 0 .46.42-.68.23-.42 0zm-.13.01c.06.12 0 .18-.11.14.05-.03.05-.08.11-.14zm-6.26 1.03v.01-.01zm-.03.01s-.04.01-.06.02c-.02-.06.06-.08.06-.02zm-.11-.54c.28.1-.13.1-.09.11-.22.02.21-.04.09-.11zm-.64.81c.08.02 0 .03-.04.05 0-.03 0-.06.04-.05zm-.09-.5h.02s-.03.06-.02 0zm-2.53 1.63c-.09.05-.12.04-.06-.06.06 0 .07.02.06.06zm-6.4 4.02s-.06.06-.08.06c.02-.04.05-.05.08-.06zm-.46.31c.24-.07-.07.11-.14.19-.05-.06.08-.15.14-.19zm-4.87 8.93c.03-.1.16-.3.04-.27.23-.26.01.37-.04.27zm.04 1.79c-.02.18 0 .26-.18.34.07-.13.09-.24.18-.34zm-.27-.91h.02s.02.05-.02 0zm.04 1.75c.11-.4.19-.37.12.06-.11-.04-.34.39-.12-.06zm-.31.27c-.16-.35.26-.08.17.07.04.14-.07-.18-.17-.07zm-.17.74c.1-.04 0-.16.06-.21.16 0 .01.37-.06.21zm9.38 16.92c-.08-.07-.18-.28-.22-.16-.12-.33.33.18.22.16zm.67.62v-.02s.07.01 0 .02zm1.67 1.15c-.38-.02.01-.25.16-.09-.09 0-.19-.03-.16.09zm.98.82s.03 0 .07.02c-.03 0-.05 0-.07-.02zm5.43.92s.11-.02.08.04c-.04.02-.07 0-.08-.04zm.37.09c-.19-.11.06-.07.11-.07.13 0-.05.12-.11.07zm6.36-.49c.2-.06-.29.19-.15 0 .04-.02.18.05.15 0zm1.29-.32s.01.02.02.03c-.01 0-.02-.02-.02-.03zm.84-.36c0-.08.13-.17.11-.03-.05-.04-.07.06-.11.03zm7.88-7.66zm.18-.97c.03-.15.1-.09.16.01-.06.05-.1.01-.16-.01zm1.26-3.21.02-.05s-.02.06-.02.05zm2.96-8.65c-.02.14.03.2-.1.14.07-.21.08-.31.1-.14zm.28-1.87v-.05s.02.03 0 .05zm.01-.07s-.01-.05-.02-.07c.02.02.03.04.02.07z"/><path style="fill:#9ae663" d="m153.18 38.15-7.14-12.41 2.88-1.73 2.9 5.24 2.81 1.69 2.58 4.83-4.03 2.38z"/><path d="m178.22 67.66-1.64-6.18s4.67-1.48 5.94-1.91c1.26-.43 5.94-1.77 5.94-1.77s-1.75 3.07-3.74 5.04c-1.99 1.97-4.97 4.08-6.49 4.83z" style="fill:#bde996"/><path class="cls-1" d="M148.58 47.12c-1.02 2.08-2.4 3.93-3.91 5.68 1.99 2.81 4.03 5.59 6.12 8.34 2.87-2.1 5.71-4.23 8.51-6.41 2.13-3.08 4.03-6.3 5.94-9.52-2.77.26-5.54.57-8.3.89-2.79.33-5.57.67-8.36 1.02zM155.72 59.94c2.54 2.17 5.07 4.34 7.61 6.51-1.01-3.32-2.05-6.64-3.1-9.95-1.49 1.16-2.99 2.31-4.51 3.44zM149.17 64.75c.21 1.78.38 3.56.5 5.34 2.57-2.05 5.19-4.06 7.84-6.01-1.14-.98-2.28-1.95-3.42-2.93-1.63 1.21-3.27 2.41-4.93 3.59zM158.85 36.17a90.195 90.195 0 0 0-3.44-6.04c-.79-.54-1.62-1.01-2.5-1.37a.955.955 0 0 1-.33-.22.713.713 0 0 1-.2-.22c-1.09-1.84-2.18-3.69-3.26-5.53-1.44.87-2.89 1.75-4.33 2.62 2.73 4.79 5.44 9.59 8.13 14.4 1.98-1.21 3.96-2.43 5.93-3.64zM159.68 40.02c-1.35.83-2.7 1.66-4.05 2.48 1.53-.18 3.05-.36 4.58-.52-.38-.57-.56-1.27-.53-1.96zM183.67 30.04s-.03-.04-.04-.06c-.67-1.14-1.4-2.24-2.2-3.3-2.47 1.51-4.94 3.03-7.4 4.54.59.91 1.18 1.82 1.74 2.75.04.07.08.14.1.21.11.11.2.26.24.45.33 1.39.65 2.79.98 4.18 2.55-.85 5.09-1.73 7.63-2.63-.26-2.06-.61-4.11-1.04-6.15zM174.19 35.16a.72.72 0 0 1-.14-.19c-.56-.91-1.13-1.82-1.72-2.71-2.8 1.72-5.59 3.43-8.39 5.15 1.5.7 1.95 2.63 1.34 4.07.5-.04.99-.09 1.49-.13.54-.05.95.11 1.25.38 2.4-.74 4.79-1.51 7.18-2.29-.33-1.42-.67-2.85-1-4.27z"/><path class="cls-25" d="M195.63 35.96c-2.99-.08-5.99-.14-8.99-.17-.28-2.14-.64-4.28-1.08-6.39a.842.842 0 0 0-.27-.49c-.72-1.22-1.53-2.39-2.39-3.52.08-.09.16-.19.24-.31 2.04-3.3 4.07-6.6 6.11-9.9-.24-.18-.49-.36-.74-.53-.78-.53-1.6-1-2.43-1.41-2.05 3.32-4.1 6.65-6.15 9.97-.02.03-.03.05-.04.07l-19.85 12.18a94.197 94.197 0 0 0-3.43-6.02.673.673 0 0 0-.2-.21.896.896 0 0 0-.21-.23 15.25 15.25 0 0 0-2.66-1.45c-1.07-1.82-2.15-3.64-3.23-5.46 1.64-.99 3.27-1.98 4.9-2.97.98 1.82 1.97 3.63 2.95 5.45.23.43.63.55 1 .47.17 0 .36-.04.55-.16 4.96-3.16 9.92-6.31 14.88-9.47.56-.15 1.05-.78.72-1.47-.49-1.02-1.04-2-1.64-2.96-.74.05-1.47.13-2.2.23.6.9 1.15 1.83 1.65 2.79-4.57 2.91-9.13 5.81-13.7 8.72-.84-1.54-1.67-3.08-2.5-4.62 3.27-1.98 6.53-3.96 9.8-5.93-1.54.37-3.08.79-4.62 1.18-.65.17-1.3.33-1.96.48-5.44 3.29-10.89 6.59-16.33 9.88-.74-1.29-1.47-2.58-2.21-3.87 2.7-1.59 5.41-3.18 8.11-4.77-1.39.04-2.79.07-4.18.15-1.64.96-3.28 1.93-4.92 2.89-.37-.65-.75-1.29-1.12-1.94-1.47.43-2.89 1.05-4.24 1.93-1.1.72-2.11 1.57-3.02 2.52 2-.88 3.98-1.8 5.95-2.74.81 1.42 1.63 2.84 2.44 4.26-2.92 3.43-5.78 6.91-8.56 10.45-1.21-2.02-2.44-4.03-3.68-6.03-.22.55-.42 1.1-.6 1.67 1.14 1.84 2.26 3.68 3.36 5.53-1.25 1.61-2.49 3.23-3.71 4.86.14.56.31 1.1.5 1.64 4.29-5.76 8.76-11.38 13.42-16.85 3.31 5.8 6.6 11.61 9.86 17.44-1.52.93-3.03 1.86-4.55 2.79l-.46.06c-5.23.68-10.46 1.37-15.67 2.15.52.96 1.05 1.9 1.59 2.85.1.2.2.41.29.62.23-.03.47-.07.7-.1 3.24-.47 6.48-.91 9.73-1.34.06-.08.14-.15.24-.17 1.79-.34 3.62-.36 5.43-.49.02-.03.04-.06.05-.09 2.79-.35 5.57-.7 8.36-1.02 2.76-.32 5.53-.64 8.3-.89-1.91 3.22-3.82 6.44-5.94 9.52-2.8 2.18-5.64 4.32-8.51 6.41-2.07-2.73-7.42-11.33-9.4-14.12-.26-.26-.51-.53-.79-.77-.05-.04-.09-.08-.14-.12-.02-.01-.03-.03-.05-.04-.08-.05-.16-.12-.24-.17-.05-.03-.09-.06-.14-.08 0 0-.05-.02-.07-.04-.02 0-.08-.03-.09-.03-.03 0-.06-.01-.09-.02h-.03c0 .02-.02.03-.03.04 0 .01-.01.03-.02.04-.01.05-.03.1-.04.15 0 .03-.01.07-.02.1v.32c.03.13.06.25.1.38.03.08.05.15.08.23 0 0 .04.1.02.06-.02-.05.02.05.02.06l.18.39c.09.21.18.41.27.62.04-.05.08-.09.13-.14 1.94 2.73 7.24 11.27 9.27 13.93-2.37 1.72-4.77 3.41-7.18 5.07.23.19.46.37.69.55.32.24.65.48.98.7 1.04-.72 2.09-1.45 3.12-2.18.15 1.39.27 2.79.37 4.18.08.04.16.08.24.11 0 0 1.45.83 2.2 1.13 2.77-2.22 5.58-4.38 8.45-6.48 1.96 1.68 3.92 3.36 5.89 5.03.06.05.12.09.18.12.01.04.02.08.04.11-.97.81-1.94 1.61-2.92 2.4.83-.05 1.66-.14 2.48-.25.36-.29.71-.59 1.07-.88l.33.66c.67-.12 1.34-.26 2.01-.41l-1.26-2.52a.978.978 0 0 0-.26-.33c-.82-2.74-1.66-5.48-2.51-8.2 3.03-.98 6.06-1.96 9.09-2.95.89 3.77 1.83 7.53 2.81 11.29.43-.2.85-.41 1.27-.63-.69-2.64-1.36-5.28-2-7.92 4.84-1.67 9.71-3.25 14.62-4.72.08-.18.15-.35.22-.53.15-.37.29-.74.42-1.11-5.23 1.56-10.43 3.22-15.58 5.01-.14-.61-.29-1.21-.43-1.82 3.93-1.28 7.85-2.57 11.79-3.82.07-.01.13-.03.19-.06 1.57-.5 3.15-.99 4.72-1.49.15-.53.29-1.06.43-1.59-1.67.52-3.34 1.04-5 1.57-.58-2.07-1.11-4.16-1.59-6.26 2.88-.89 5.76-1.74 8.65-2.57.18-.53.37-1.07.55-1.6-4.69 1.34-9.36 2.74-14 4.23-.85.27-.49 1.61.37 1.34 1.03-.33 2.06-.65 3.09-.97.48 2.1 1.02 4.19 1.6 6.26-7.22 2.31-14.42 4.7-21.64 7.02-.49-1.57-.99-3.13-1.49-4.7 0-.01 0-.02-.01-.03 2.21-3.31 4.2-6.75 6.24-10.16.24-.24.41-.54.5-.86 1.16-.36 2.33-.72 3.49-1.09.52 1.83 1.05 3.66 1.57 5.5.24.86 1.59.49 1.34-.37-.53-1.85-1.06-3.7-1.58-5.55 4.28-1.38 8.54-2.82 12.77-4.33.04-.01.08-.04.12-.05 2.96.03 5.92.09 8.88.16.21-.65.41-1.31.59-1.97zm-45.96 34.12c-.13-1.78-.29-3.56-.5-5.34 1.65-1.18 3.29-2.38 4.93-3.59 1.14.98 2.28 1.95 3.42 2.93-2.66 1.95-5.27 3.95-7.84 6.01zm13.66-3.63c-2.54-2.17-5.07-4.34-7.61-6.51 1.51-1.13 3.01-2.28 4.51-3.44 1.06 3.31 2.09 6.62 3.1 9.95zm-18.54-41.04c1.44-.87 2.89-1.75 4.33-2.62 1.09 1.84 2.18 3.69 3.26 5.53.06.1.13.17.2.22.09.09.2.17.33.22.88.37 1.71.84 2.5 1.37 1.22 1.97 2.37 3.98 3.44 6.04-1.98 1.21-3.96 2.43-5.93 3.64-2.69-4.81-5.4-9.61-8.13-14.4zm23.22 16.31c-.29-.27-.71-.42-1.25-.38-.5.04-.99.09-1.49.13-.41.97-1.3 1.71-2.67 1.69-1.12.02-1.92-.48-2.4-1.19-1.53.17-3.05.34-4.58.52 1.35-.83 2.7-1.66 4.05-2.48.06-1.47 1.03-2.91 2.93-2.88.51 0 .95.09 1.33.27 2.8-1.72 5.59-3.43 8.39-5.15.59.89 1.16 1.8 1.72 2.71.04.07.09.13.14.19.33 1.43.67 2.85 1 4.28-2.38.78-4.78 1.55-7.18 2.29zm9.07-2.91c-.33-1.39-.65-2.78-.98-4.18a.97.97 0 0 0-.24-.45c-.02-.07-.06-.14-.1-.21a97.94 97.94 0 0 0-1.74-2.75c2.47-1.51 4.94-3.03 7.4-4.54.8 1.05 1.53 2.15 2.2 3.3.01.02.03.04.04.06.43 2.04.78 4.08 1.04 6.15-2.54.9-5.08 1.78-7.63 2.63zM177.08 38.81z"/><path class="cls-30" d="M173.22 32.34c-.7-2.29-2.33-4.36-4.33-5.66-1.1-.71-2.41-1.06-3.69-1.26-1.3-.2-2.61-.27-3.91-.13-2.48.27-4.82 1.16-6.73 2.8a9.571 9.571 0 0 0-3.29 6.09c-.67 5.41 2.94 10.06 5.85 14.22.41.59.83 1.18 1.24 1.78.67.87 1.47 2.09 2.59 2.39 1.2.32 2.47-.56 3.24-1.4 1.65-1.78 3.29-3.59 4.81-5.48 1.57-1.95 3.07-4.04 3.92-6.41.8-2.2.98-4.7.3-6.95zm-13.13.63c.55-.5 1.38-.81 2.18-.81h.02c.11 0 .22 0 .33.02h.33c.01 0 .03 0 .05.01.87.2 1.48.43 2.14 1.09 1.28 1.27 1.36 3.3.58 4.74-.38.69-.95 1.29-1.7 1.57-.84.32-1.77.25-2.64 0-.87-.26-1.65-.73-2.17-1.49-.51-.73-.59-1.58-.48-2.47.13-1.01.57-1.94 1.35-2.65z"/><path class="cls-15" d="M109.38 158.39c.23.73.18 1.51-.12 2.22-.05.11.05.24.15.27.13.03.22-.04.27-.15.32-.77.36-1.65.12-2.45-.08-.27-.51-.15-.42.12z"/><path class="cls-15" d="M109.68 158.12c-.29-.37-.75-.49-1.2-.53-.52-.06-1.05-.06-1.57-.12-1.08-.13-2.15-.39-3.18-.75s-2.02-.84-2.95-1.41c-.93-.58-1.86-1.18-2.37-2.14-.48-.89-.73-1.92-1.59-2.54-.06-.04-.12-.05-.17-.03-.2-.02-.46.13-.61.22-.27.17-.5.4-.67.67-.36.55-.45 1.22-.37 1.86-.86.92-1.84 1.96-3.17 2.07-.66.05-1.24-.16-1.72-.61-.48-.46-.89-1.01-1.31-1.53v-.09c-.03-.11-.16-.19-.27-.15-.49.18-.88.54-1.08 1.01-.1.24-.15.52-.13.78.01.16.03.4.13.55-.45 1.13-.86 2.4-.32 3.55-.16.2-.29.43-.36.69-.04.14-.06.28-.06.42 0 .15.03.31.02.46 0 .14-.07.27-.11.4-.04.15-.06.3-.06.45 0 .32.06.62.2.91.03.06.07.1.12.11.01.02.03.04.05.05 1.05.81 2.47.88 3.74.77 1.58-.13 3.11-.58 4.71-.47.8.06 1.59.17 2.39.25s1.65.14 2.48.16c1.56.05 3.14-.04 4.67-.35 1.61-.33 3.18-.91 4.56-1.81.16-.11.11-.32-.02-.39.09-.21.22-.51.24-.61.03-.14.01-1.03-.07-1.51.1-.07.16-.22.06-.35z"/><path class="cls-11" d="M103.01 161.31c0-.13 0-.26.03-.39-.63.03-1.37.06-2.16.05-2.25 0-4.09-.25-4.15 0-.07.23 1.77.92 4.15.91.82 0 1.56-.08 2.19-.19-.02-.13-.05-.26-.06-.39z"/><path class="cls-16" d="M99.55 158.4c.22.13.8-.45 1.47-1.15.66-.71 1.21-1.32 1.07-1.53-.14-.21-.99.11-1.73.9-.75.79-1.02 1.66-.81 1.78zM102.27 158.81c.21.14.69-.19 1.07-.74.38-.55.52-1.12.31-1.26s-.69.19-1.07.74c-.38.55-.52 1.12-.31 1.26z"/><path class="cls-22" d="m83.47 54.41 1.03-2.33s.65-.1 1.3-.8c.66-.7 1.56-2.01 1.73-1.99.17.02 1.58-1.17 1.58-1.17s1.7.51 2.49.46 1 .1 1.71-.36 1.51-1.22 1.61-1.44c.1-.22.29-.96.29-.96l2.48-.16.2 3.97 1.62 3.61-1.86-.07s-.47 2.18-.83 2.94-1.03 2.2-1.77 2.5c-.74.3-.78.45-1.51.29s-4.06-1.04-3.16-.81c.01 0-.3 1.16-.41 1.32s-.5.68-.5.68-1.61-.22-3.14-.41c-3.46-.51-4.21-1.2-4.21-1.2l1.35-4.07z"/><path class="cls-14" d="M97.42 43.25zM99.51 43.25c.11-1.33-4.31.98-4.81 2.05-.1.22-.2.45-.31.67l-2.52.41s-2.88.54-3.27.66c-.4.11-2.95.36-2.95.36l-2.51.41c-.04 1.7.04 3.5-.25 5.17l1 1.07.53-1.68c.81-.21 1.58-.62 2.19-1.19.44-.42.76-.89 1.06-1.41.26-.44.52-.93.96-1.22 1.12-.72 2.25.34 3.42.32 1.35-.03 2.49-.91 3.11-2.07.32-.59.52-1.26.92-1.8.15-.2.35-.41.55-.53.24-.15.74 1.91 2.28 2.64.93.44 2.14-.2 2.38-1.12.19-.74-2.06.78-1.78-2.72z"/><path class="cls-14" d="M100.01 53.1s-.01-.04-.02-.06c-.59-1.32-1.12-2.66-1.59-4.02-.02-1.11-.1-2.21-.19-3.31-.02-.28-.35-.49-.61-.43-.3.06-.46.31-.43.61l.12 1.63c.04.54.05 1.04.06 1.56 0 .04 0 .08.01.12 0 .05.01.1.03.15.4 1.16.84 2.3 1.32 3.42l-1-.1h-.02a.496.496 0 0 0-.32.08.51.51 0 0 0-.26.4c-.22 1.37-.64 2.73-1.37 3.93-.28.46-.64.94-1.1 1.19-.56.3-1.18.12-1.8-.03-.87-.22-1.73-.47-2.58-.76-.27-.09-.58.03-.68.3-.1.26.03.59.3.68.03 0 2.04.63 2.5.74.84.21 1.65.44 2.47.13.64-.24 1.16-.77 1.55-1.33.45-.64.8-1.36 1.08-2.09.27-.69.46-1.41.6-2.14l1.44.15c.27.03.56-.19.58-.47 0-.12-.03-.24-.09-.33z"/><path class="cls-14" d="M96.06 49.99c.67.07.78-.98.11-1.05s-.78.98-.11 1.05z"/><path d="M94.66 55.86c.67.07.78-.98.11-1.05s-.78.98-.11 1.05z" style="fill:#735d54"/><path class="cls-2" d="M84.66 50.82c-1.55 2.41-2.88 8.51-2.88 8.51M89.64 58.13l-.19 1.78"/><path class="cls-30" d="M100.46 44.95c-.83-5.02-5.58-8.42-10.6-7.6-5.02.83-8.42 5.58-7.6 10.6.01.07.05.12.1.16.02.01.03.03.05.04.02 0 .04.02.07.02h.06l3.14-.51a2.71 2.71 0 0 0 2.33 2.01h.07c.32 2.97 1.05 5.89 2.13 8.67.33.83.69 1.65 1.08 2.46.25.51 1.05.15.8-.36a32.955 32.955 0 0 1-2.84-8.75c-.12-.69-.22-1.39-.3-2.08 1.25-.32 2.11-1.5 2.02-2.8 3.04-.49 6.08-.99 9.13-1.49.05 0 .09-.03.12-.05.14-.03.23-.16.21-.3z"/><path class="cls-29" d="M139.79 157.24c-.71-1.61-2.29-2.54-4.01-2.67-.29-.02-.54.26-.54.54 0 .31.25.52.54.54.14.01.28.03.42.05.13.84.34 2.35.39 2.56.06.29.4 1.19.32 1.51s-.76.94-1.34.98-1.07-.33-1.37-.87c-.23-.42-.71-2.65-.9-3.6.06-.04.12-.07.19-.12.24-.15.35-.49.19-.74s-.48-.35-.74-.19c-.3.17-.6.38-.82.64-.23.26-.41.55-.56.86-.36.73-.56 1.52-.63 2.33a5.06 5.06 0 0 0 1.47 4.04c.56.55 1.23.92 2.01 1.04.38.06.77.12 1.15.08s.74-.15 1.1-.24c.69-.18 1.39-.42 1.96-.86s.98-1.11 1.25-1.8c.52-1.3.48-2.81-.09-4.09zM52 154.53c-.33-.61-1.26-.07-.93.55l.06.12c-.88.86-2.88 2.82-3.19 3.15-.4.42-1.28.94-1.64.74s-1-1.14-.54-1.74c.46-.6 2.94-3.16 3-3.24.04-.04.31-.48.53-.83l.15.09c.6.36 1.14-.57.55-.93-1.4-.84-3.1-1.09-4.69-.77-.77.15-1.53.46-2.18.9-.65.44-1.14 1.01-1.49 1.73-.47.95-.74 1.98-.83 3.03-.14 1.55.28 3.17 1.21 4.44.62.84 1.39 1.52 2.37 1.9.46.18.95.24 1.44.3.53.06 1 .03 1.52-.09.92-.21 1.86-.43 2.71-.87.85-.45 1.52-1.19 1.97-2.07 1.02-1.99 1.04-4.44-.03-6.41z"/><path class="cls-24" d="M133.7 105.17c.26-.12.33-.5.19-.74-.16-.27-.47-.32-.74-.19h-.01l-.74-.66s.06-.03.09-.04c.26-.12.33-.5.19-.74-.16-.27-.47-.32-.74-.19-1.71.79-5.8 2.31-7.61 2.88a.37.37 0 0 0-.11.05c-.21.03-.42.17-.45.39-.14.83-.27 1.67-.4 2.5-.03 0-.06.02-.09.03-1.92.83-1.54.78-3.43 1.67-.02 0-.04.02-.06.03a.39.39 0 0 0-.19.19s0 .01-.01.02c0 .01 0 .02-.01.03a.52.52 0 0 0-.03.37c.37 1.2.74 2.41 1.12 3.61.09.28.38.46.66.38s.46-.39.38-.66v-.03l1.3-.43c.1.25.38.43.65.35.28-.09.47-.37.38-.66l-.45-1.46c.81-.37 1.63-.73 2.45-1.09.08-.03.13-.09.18-.16.04-.05.06-.1.07-.17.16-.98.32-1.97.47-2.95.05 0 .11 0 .17-.02M75.09 159.57v-.63c0-.06-.01-.11-.03-.16-.09-2.68-.44-5.36-1.3-7.92-.41-1.22-.92-2.4-1.47-3.56-.69-1.47-1.44-2.89-2.36-4.23-1.15-1.67-2.47-3.2-3.94-4.6-.5-.48-1.55 1.5-1.77 1.72-.2.2-.22.57 0 .76 2.05 1.84 3.79 4 5.13 6.42 1.33 2.42 2.15 4.81 2.58 7.4.43 2.59.36 5.12-.12 7.63s-1.36 4.95-2.54 7.23a31.24 31.24 0 0 1-4.46 6.42c-1.74 1.95-3.72 3.74-5.93 5.15-2.28 1.46-4.81 2.49-7.5 2.84-1.51.19-3.04.21-4.56.17-1.52-.04-3.02-.13-4.51-.3-2.8-.32-5.61-.96-8.17-2.17-2.29-1.08-4.46-2.52-6.17-4.4-.02-.04-.05-.08-.08-.12a31.742 31.742 0 0 1-4.26-6.61 28.767 28.767 0 0 1-2.41-7.42c-.46-2.57-.53-5.13-.22-7.69.31-2.55 1-5 2.05-7.3s2.43-4.4 4.15-6.23c1.57-1.66 3.36-3.05 5.33-4.2 2.01-1.16 4.13-2.03 6.37-2.64 2.25-.61 4.51-.93 6.84-.97 2.33-.04 4.65.21 6.93.77 2.67.66 5.23 1.71 7.59 3.12.58.35 1.14.71 1.69 1.1.24.17.6.04.74-.19s.07-.49-.11-.66l.69-.77c.23.16.52.2.74-.02.19-.19.23-.58 0-.76-.64-.51-1.3-1.01-1.99-1.44-.62-.38-1.26-.72-1.92-1.02-1.35-.62-2.75-1.15-4.15-1.65-2.74-.97-5.65-1.49-8.56-1.58-2.91-.09-5.84.26-8.65 1.03-2.79.76-5.49 1.95-7.92 3.53a28.135 28.135 0 0 0-6.09 5.38 29.64 29.64 0 0 0-4.35 6.83c-1.13 2.48-1.93 5.1-2.31 7.79-.4 2.81-.36 5.64.09 8.44.45 2.78 1.31 5.48 2.52 8.02 1.2 2.51 2.77 4.85 4.65 6.91 1.15 1.61 2.75 2.9 4.37 4.02 1.92 1.31 4.01 2.37 6.18 3.17 4.32 1.59 9.03 2.16 13.6 1.66 4.57-.5 8.98-2.05 12.78-4.66 3.7-2.54 6.79-5.96 8.99-9.86 2.2-3.89 3.54-8.26 3.78-12.73 0-.18.01-.35.02-.53a.59.59 0 0 0 .02-.14v-.32zM151.59 135.77c-.17-.12-.35-.24-.52-.36-.05-.03-.1-.05-.15-.07-2.28-1.42-4.7-2.62-7.3-3.33-1.24-.34-2.51-.57-3.78-.77-1.6-.24-3.2-.42-4.83-.4-2.02.02-4.04.27-6.01.71-.68.15.38 2.13.44 2.43.05.27.35.5.63.43 2.67-.68 5.43-.92 8.18-.68s5.19.9 7.58 1.99c2.39 1.09 4.45 2.56 6.27 4.36 1.82 1.8 3.35 3.89 4.58 6.14a31.65 31.65 0 0 1 2.85 7.28c.65 2.53 1.03 5.17.97 7.8-.06 2.71-.61 5.38-1.83 7.81-.68 1.36-1.52 2.64-2.4 3.89-.88 1.24-1.79 2.43-2.76 3.58-1.83 2.14-3.93 4.12-6.35 5.57-2.17 1.3-4.58 2.3-7.09 2.67h-.14c-2.61.27-5.26.22-7.86-.15a29.09 29.09 0 0 1-7.51-2.14 25.825 25.825 0 0 1-6.5-4.11 24.618 24.618 0 0 1-4.92-5.77c-1.32-2.15-2.3-4.47-2.85-6.92-.51-2.23-.66-4.49-.51-6.77a26.1 26.1 0 0 1 1.36-6.76c.75-2.21 1.74-4.27 3.01-6.22 1.27-1.96 2.76-3.74 4.5-5.32a27.667 27.667 0 0 1 8.67-5.35c.27-.11.37-.47.25-.72a.538.538 0 0 0-.61-.28l-.25-1c.26-.1.46-.32.4-.62-.05-.26-.35-.52-.63-.43-.78.25-1.56.51-2.31.85-.66.3-1.3.65-1.92 1.03-1.27.77-2.49 1.64-3.68 2.52a28.245 28.245 0 0 0-6.08 6.22c-1.7 2.37-3.04 4.99-3.97 7.75-.92 2.75-1.44 5.64-1.48 8.54-.04 2.72.33 5.44 1.07 8.06.74 2.61 1.83 5.11 3.24 7.42 1.43 2.32 3.16 4.44 5.18 6.26 2.11 1.89 4.48 3.44 7.05 4.62 2.56 1.18 5.28 1.97 8.07 2.38 2.75.4 5.57.4 8.32 0 1.98-.06 3.94-.66 5.77-1.39 2.16-.86 4.2-2 6.08-3.37 3.73-2.7 6.83-6.29 8.96-10.37 2.13-4.08 3.3-8.6 3.26-13.2-.04-4.49-1.16-8.95-3.17-12.97-2-3.99-4.89-7.54-8.46-10.24-.14-.11-.28-.21-.43-.31a.481.481 0 0 0-.11-.09c-.09-.06-.18-.11-.27-.17z"/><path class="cls-4" d="m72.97 130.38.56-.64-.78-2.21-.22.23a.504.504 0 0 0-.15-.31c-.19-.19-.57-.22-.76 0-3.43 3.99-6.87 7.96-10.33 11.91-3.41 3.89-6.85 7.76-10.34 11.58-1.84 2.02-3.7 4.03-5.58 6.03a.8.8 0 0 0-.13.21s-.01.02-.02.02c-.3.56-.28 1.31.11 1.83.21.28.46.48.8.58.29.09.6.08.9.02.33-.06.65-.24.88-.48a697.6 697.6 0 0 0 9.75-10.58c3.22-3.56 6.6-7.36 9.86-11.07 1.84-2.09 3.67-4.2 5.5-6.3.19-.22.22-.55 0-.76-.02-.02-.04-.03-.05-.04z"/><path class="cls-8" d="M45.24 157.2z"/><path class="cls-4" d="m122.59 119.58-.02-.22s.02-.02.03-.02c.31-.28.16-.66-.12-.83v-.08l-.05.05a.528.528 0 0 0-.58.09c-2.43 2.18-4.96 4.24-7.63 6.14-2.67 1.9-5.46 3.63-8.37 5.15a56.869 56.869 0 0 1-9.23 3.84c-3.33 1.04-6.77 1.77-10.24 2.09-3.53.33-7.11.27-10.61-.28l-.72-.12c-.86-2.43-1.72-4.87-2.56-7.31-1.09-3.18-2.16-6.36-3.16-9.56-.12-.37-.23-.74-.35-1.11-.21-.66-1.25-.38-1.04.29.98 3.17 2.02 6.32 3.09 9.46.94 2.75 1.9 5.5 2.87 8.24-.07.06-.13.15-.16.25-.07.26.09.61.38.66.04 0 .08.01.11.02.03.08.06.16.08.24-.06.06-.11.14-.13.23-.07.26.09.61.38.66.03 0 .05 0 .08.01 1.2 3.37 2.41 6.74 3.62 10.12 1.19 3.35 2.38 6.7 3.54 10.06 1.07 3.1 2.12 6.21 3.11 9.34.11.36.22.71.34 1.07.21.66 1.25.38 1.04-.29-.96-3.09-1.98-6.16-3.03-9.22-1.14-3.34-2.32-6.67-3.51-10-1.23-3.44-2.46-6.87-3.69-10.31-.07-.19-.13-.37-.2-.56 3.08.49 6.2.63 9.32.45 3.55-.2 7.09-.82 10.53-1.77 3.34-.93 6.59-2.2 9.71-3.72 3.02-1.47 5.92-3.19 8.69-5.09 2.79-1.91 5.46-4.01 8-6.25.31-.28.63-.55.94-.83.42-.37 0-.94-.44-.9z"/><path class="cls-22" d="M89.22 154.15s.61-.7.93-1.56c.32-.86.72-2.25.93-3.1l.58-2.33 4.93 2.13-.26.98-.06.57s-.89.96-.96 1.34-.07 1.32-.07 1.32-1.13 1.13-1.62 1.44c-.49.31-1.14.7-1.74.7s-1.03.06-1.54-.35-1.12-1.13-1.12-1.13z"/><path class="cls-4" d="M78.46 159.79c0-6.37-1.82-12.48-5.22-17.72-.67-1.38-1.34-2.63-1.94-3.5-.88-1.27-2.63-2.63-4.57-3.87-5.73-4.8-12.84-7.42-20.33-7.42-17.72 0-32.13 14.41-32.13 32.13V160.54c.04.26.25.47.53.47h1.35c.24 0 .47-.18.53-.41.05-.08.08-.17.08-.27 0-.33-.01-.63-.01-.91 0-16.35 13.3-29.65 29.65-29.65s29.65 13.3 29.65 29.65v.33c0 .24.18.44.42.45.09.08.21.14.35.14h1.1c.14 0 .28-.06.38-.16.03-.03.06-.07.08-.11.06-.08.09-.17.09-.27z"/><path class="cls-30" d="M81.62 121.58c.26-.92.54-1.84.84-2.76.06-.17-.06-.35-.23-.4-.18-.05-.34.06-.4.23-.3.91-.58 1.83-.84 2.76-.11.4.51.57.63.17z"/><path class="cls-24" d="M76.63 115.35c.04-1.37-1.3-2.09-2.41-2.49-1.29-.46-2.55-.96-3.73-1.66-2.34-1.38-4.18-3.54-6.73-4.54-.68-.27-1.41-.44-2.14-.48-.83-.04-1.67.11-2.48.26-.15.03-.23.13-.24.25-.02.02-.04.05-.06.08a33.71 33.71 0 0 0-2.39 5.35c-.03.09-.02.17 0 .23v.03c.61 2.39 2.46 4.28 4.75 5.13 1.37.51 2.84.7 4.28.87 1.53.19 3.07.31 4.62.4 1.74.1 3.48.16 5.21.21.39.01.43-.54.11-.65.2-.61.64-1.94.87-2.65.17 0 .34-.11.34-.32z"/><path d="M110.49 123.9c-.3-2.87-1.92-5.36-3.8-7.46-1.02-1.15-2.13-2.21-3.27-3.24-1.21-1.1-2.46-2.14-3.75-3.13-.32-.24-.64-.49-.96-.73-.18-.13-.57-.03-2.72-1.49-.33-.22-.13-11.15-1.14-11.53-4.92-1.87-21.35 1.89-22.44 1.27.11-.23-.2-.51-.38-.29-2.37 2.93-3.54 6.57-3.94 10.28-.45 4.11.05 8.22.7 12.29.73 4.55 1.62 9.1 1.53 13.72-.05 2.34-.31 4.67-.52 7-.22 2.34-.36 4.69-.41 7.04-.1 4.68 1.06 19.4 1.63 24.05.07.56.14 1.11.22 1.67 0 .07.04.12.09.14.04.05.1.08.17.09l7.26.59c.13.01.21-.07.23-.17.1-.02.18-.1.18-.23.08-3.42 4.77-36.67 5.52-40.02.77-3.46 1.29-6.96 1.52-10.5.04-.62.07-1.23.09-1.85 2.29 1.51 4.74 2.8 7.27 3.86.66.28 1.33.54 2.01.79-.39.86-.72 1.74-1.01 2.63-.2.63-.39 1.27-.53 1.91-.15.65-.24 1.28-.34 1.93a94.23 94.23 0 0 1-1.84 8.96c-.43 1.67-.91 3.33-1.43 4.97v.03c-.14.09-.2.31 0 .4l6.68 2.91s.08.02.12.02c.08 0 .16-.03.22-.11 1.84-2.79 3.72-5.56 5.56-8.35 1.77-2.66 3.56-5.33 5.01-8.18.73-1.42 1.37-2.9 1.85-4.43.48-1.53.8-3.21.63-4.85z" style="fill:#eea3ad"/><g style="clip-path:url(#clippath)"><path class="cls-23" d="M79.46 100.32c1.34 1.99 1.67 4.51.82 6.77-.85 2.25-3.12 3.82-3.95 6.21-.47 1.35-.4 2.81-.76 4.18-.29 1.12-.9 2.12-1.74 2.92-1.91 1.83-4.82 2.13-7.14.9-1.1-.59-2.09 1.09-.98 1.68 4.22 2.24 9.52.48 11.38-3.96.47-1.12.58-2.29.74-3.48.17-1.27.54-2.33 1.29-3.37 1.33-1.83 2.83-3.34 3.33-5.63.54-2.47.09-5.11-1.33-7.21-.7-1.03-2.38-.06-1.68.98zM73.54 149.88c.02-3.67.94-7.26 2.87-10.4.73-1.19 2.74-3.22 4.15-1.68 1.25 1.36.39 3.9.61 5.54.25 1.85 1.36 3.33 2.07 5.01.71 1.68.92 3.48.73 5.26-.19 1.75-.83 3.59-1.96 4.96-.99 1.2-2.59 2.26-4.17 1.52-1.69-.79-2.48-2.84-3.06-4.47-.66-1.84-1.17-3.76-1.24-5.73-.04-1.25-1.99-1.25-1.95 0 .07 2.09.56 4.14 1.26 6.1.7 1.97 1.55 4.01 3.26 5.3 1.65 1.25 3.81 1.25 5.55.16 1.74-1.09 2.98-3.04 3.66-5.03.72-2.1.83-4.4.39-6.58-.22-1.12-.63-2.18-1.14-3.2-.51-1.02-1.11-1.96-1.39-3.04-.59-2.27.56-4.74-.96-6.81-1.33-1.8-3.87-1.76-5.56-.51-1.92 1.42-2.99 3.95-3.8 6.12-.89 2.4-1.27 4.93-1.28 7.48 0 1.25 1.94 1.25 1.95 0zM88.27 120.47c1.64-1.17 4.31-2.99 6.06-.99.73.83.68 2 1.09 2.97.44 1.07 1.29 1.6 2.25 2.17 1.75 1.03 2.01 3.11 1.96 4.97-.05 2.14-.39 4.61-1.91 6.24-.75.81-1.79 1.45-2.91 1.54-1.36.11-2.46-.71-3.47-1.51-.97-.77-2.36.59-1.38 1.38 1.1.87 2.24 1.77 3.66 2.01 1.3.22 2.63-.07 3.78-.71 2.51-1.4 3.64-4.14 4-6.86.32-2.38.39-5.27-1.12-7.3-.37-.5-.81-.91-1.33-1.25-.52-.34-1.23-.57-1.59-1.1s-.4-1.3-.58-1.93c-.19-.67-.49-1.28-.93-1.82a4.565 4.565 0 0 0-3.96-1.61c-1.74.17-3.23 1.13-4.62 2.12-1.01.72-.04 2.41.98 1.68zM104.9 111.43c-1.28 1.66-1.66 3.84-1.71 5.89-.05 2.1.33 4.2 1.17 6.12 1.6 3.65 5.17 6.35 9.22 6.37 1.25 0 1.25-1.94 0-1.95-3.38-.01-6.26-2.37-7.54-5.41-1.25-2.98-1.52-7.36.54-10.04.32-.42.06-1.09-.35-1.33-.5-.3-1.01-.06-1.33.35zM95.85 151.5c.52-1.25 1.39-2.54 2.68-3.07.99-.41 2.42-.31 3.12.59.32.42.83.63 1.33.35.41-.24.67-.92.35-1.33-1.2-1.56-3.26-2.17-5.15-1.55-2.09.69-3.4 2.53-4.21 4.49-.48 1.16 1.4 1.66 1.88.52zM68.85 167.4c.62-.53 1.89-.25 2.61-.09.95.22 1.89.6 2.59 1.31.8.81 1.08 1.97 1.3 3.06.26 1.29.3 2.59.21 3.9-.09 1.25 1.86 1.24 1.95 0 .2-2.93-.12-6.85-2.61-8.8-1.85-1.45-5.44-2.43-7.41-.75-.95.81.43 2.18 1.38 1.38z"/></g><path class="cls-14" d="M91.55 145.61c-.38 1.53-.75 3.06-1.14 4.59-.32 1.26-.68 2.58-1.53 3.6-.17.2-.2.49 0 .69.17.17.52.2.69 0 .93-1.13 1.38-2.5 1.74-3.9.4-1.57.78-3.15 1.18-4.72.15-.61-.79-.87-.94-.26zM96.43 148.46c-.27.53-.47 1.09-.56 1.67a.53.53 0 0 0 .05.37.481.481 0 0 0 .66.17c.1-.06.2-.17.22-.29.06-.4.18-.8.33-1.17l-.05.12.18-.39c.12-.23.06-.54-.18-.66-.22-.12-.54-.07-.66.18z"/><path class="cls-29" d="M93.62 167.19a7.3 7.3 0 0 0-.85-3c.14-.11.28-.23.42-.34.21-.18.18-.54 0-.72-.21-.21-.51-.18-.72 0-.09.07-.17.14-.26.21-.1-.12-.2-.25-.3-.37-1.05-1.16-2.52-1.82-4.06-2.02-1.51-.2-3.09.09-4.41.85-.66.38-1.21.85-1.62 1.48-.49.74-.82 1.6-1.03 2.46-.12.48-.19.97-.23 1.46v.1a6.935 6.935 0 0 0 .91 4.11c-1.48 1.06-2.96 2.11-4.45 3.14-1.25.86-2.51 1.72-3.79 2.53-.23.15-.33.45-.18.7.14.23.46.33.7.18 2.53-1.61 4.99-3.35 7.44-5.09.29-.2.57-.41.86-.61.43.55.94 1.04 1.52 1.41.74.47 1.56.66 2.42.77.43.05.87.08 1.3 0 .39-.07.78-.18 1.17-.27.79-.19 1.58-.43 2.3-.82.74-.4 1.32-.98 1.77-1.69a7.568 7.568 0 0 0 1.12-4.47zm-11.59 3.09c-1.14-2.62-.19-5.84 2.13-7.51.29-.21.6-.39.92-.55.03-.01.05-.03.07-.05.56-.16 1.14-.25 1.69-.25 1.26-.02 2.59.35 3.66 1.15.35.27.66.57.92.91-1.96 1.57-3.94 3.04-6 4.56-1.04.77-2.08 1.53-3.13 2.28-.1-.18-.19-.36-.27-.54zm10.06-.02c-.25.59-.63 1.24-1.13 1.69s-1.12.74-1.74.95c-.7.23-1.44.42-2.17.56-.27.05-.71.01-1.05-.03-.31-.04-.68-.1-1-.2-.85-.27-1.58-.85-2.14-1.56 2.25-1.62 4.48-3.27 6.69-4.95.81-.62 1.62-1.24 2.42-1.88.23.46.4.96.51 1.48.27 1.28.14 2.69-.39 3.93z"/><path class="cls-4" d="M142.19 128.43a.503.503 0 0 0-.25-.32.543.543 0 0 0-.35-.07c-2.15-.44-4.28-.66-6.51-.66s-4.45.23-6.62.69c-.37-1.23-.73-2.47-1.1-3.7-.87-2.9-1.74-5.75-2.62-8.63-.03-.11-.07-.22-.1-.33.16-.1.31-.22.45-.35.44-.3.77-.77.63-1.34-.19-.74-1.02-.91-1.66-.69l-.15.06c-.91.02-1.83.43-2.64.81-.16.07-.33.16-.51.25-.41.17-.8.39-1.09.72-.28.31-.46.7-.35 1.12.1.38.46.66.83.77.39.11.82.03 1.21-.03l.54 1.77c-.03.02-.06.04-.08.06-3.85 3.46-7.97 6.61-12.4 9.27-4.52 2.71-9.35 4.9-14.43 6.32-3.02.84-6.12 1.42-9.24 1.67-.29.02-.54.23-.54.54 0 .27.25.56.54.54.67-.05 1.34-.12 2-.2l-.07.13c-.41.05-.82.09-1.23.12-.29.03-.54.23-.54.54 0 .27.25.56.54.54 5.31-.46 10.52-1.78 15.44-3.82a63.28 63.28 0 0 0 4.19-1.91c.26-.13.33-.5.19-.74a.467.467 0 0 0-.26-.22l.21-.49c.98-.51 1.95-1.03 2.9-1.59a75 75 0 0 0 6.57-4.31c2.11-1.55 4.19-3.23 6.17-4.98.13-.12.26-.23.4-.35.45 1.45.89 2.91 1.34 4.36-.75.57-1.51 1.11-2.28 1.65-1.18.83-2.37 1.65-3.56 2.47-1.48 1.01-2.96 2.01-4.44 3.01-1.68 1.13-3.37 2.27-5.05 3.39-1.79 1.2-3.58 2.4-5.37 3.59s-3.62 2.42-5.43 3.63c-1.81 1.21-3.44 2.3-5.15 3.46l-4.62 3.12c-1.27.86-2.54 1.73-3.79 2.61-.9.63-1.8 1.26-2.68 1.91l-.46.34c-.23.18-.35.46-.19.74.11.19.38.31.6.26l.04.11s-.05.04-.08.06c-.23.18-.35.46-.19.74.13.23.51.37.74.19.77-.59 1.57-1.16 2.37-1.72 1.18-.83 2.37-1.65 3.56-2.47 1.48-1.01 2.96-2.01 4.44-3.01 1.68-1.13 3.37-2.27 5.05-3.39 1.79-1.2 3.58-2.4 5.37-3.59l5.43-3.63c1.81-1.21 3.44-2.3 5.15-3.46l4.62-3.12c1.27-.86 2.54-1.73 3.79-2.61.9-.63 1.8-1.26 2.68-1.91.05-.04.1-.08.15-.11.27.9.54 1.8.82 2.71-6.24 2.04-11.84 6.06-15.79 11.36-4.16 5.58-6.36 12.21-6.36 19.19s2.23 13.75 6.45 19.31c.08.1.19.16.31.17a.507.507 0 0 0 .51-.14c.15-.19.33-.36.51-.51.09-.07.19-.13.29-.19.12-.07.21-.19.25-.32.02-.06.02-.12.01-.19.08-.15.08-.34-.03-.49-3.81-5.13-5.82-11.23-5.82-17.64s2.02-12.54 5.85-17.68c3.63-4.88 8.78-8.59 14.53-10.49.18.61.37 1.22.55 1.83a978.543 978.543 0 0 1 5.05 17.5c.76 2.74 1.5 5.49 2.21 8.24.09.33.17.67.26 1 .02.09.06.16.11.22v.02c.42.74 1.39 1.08 2.17.73.32-.15.6-.45.75-.77.18-.37.25-.78.15-1.19v-.04c-.72-2.82-1.47-5.63-2.23-8.44-.78-2.88-1.58-5.75-2.39-8.62-.83-2.92-1.67-5.85-2.52-8.76-.26-.88-.51-1.75-.77-2.62 3.81-.77 7.84-.78 11.64-.04.16.03.32-.03.42-.14.13-.04.25-.12.31-.24l.59-1.18c.06-.13.09-.27.05-.42z"/><path class="cls-16" d="M124.73 115.79c-.1-.26-.93-.18-1.84.18s-1.57.87-1.47 1.13.93.18 1.84-.18 1.57-.87 1.47-1.13zM128.37 127.88c-.09-.27-.95-.22-1.91.1-.97.32-1.68.8-1.59 1.07s.95.22 1.91-.1c.97-.32 1.68-.8 1.59-1.07z"/><path class="cls-22" d="M71.77 178.78c.26-.06.62-.59.75-1.31.13-.73.19-1.32.16-1.85s-.35-2.7-.35-2.7l5.76.68.11 4.72.12.92-.59 1.19s-1.26.35-1.94.55-1.11.31-1.74.11-1.37-.67-1.6-1.12c-.23-.45-.68-1.2-.68-1.2z"/><path class="cls-15" d="M92.4 184.38c-.29-.39-.74-.54-1.21-.61-.47-.07-.97-.1-1.46-.17-1-.16-1.97-.41-2.92-.77a15 15 0 0 1-3.97-2.2c-.45-.35-.91-.72-1.24-1.19-.68-.97-.77-2.3-1.74-3.08a.218.218 0 0 0-.14-.05c-.22-.07-.58.14-.73.23-.29.18-.54.44-.72.73-.32.51-.42 1.13-.36 1.72-.92.91-1.96 1.91-3.34 1.94-.61.01-1.15-.22-1.58-.65-.48-.48-.88-1.07-1.28-1.62 0-.14-.11-.29-.29-.24-.52.16-.96.56-1.14 1.08-.08.24-.12.49-.11.74 0 .14.03.33.1.46-.5 1.11-.95 2.37-.47 3.54a1.9 1.9 0 0 0-.4.72c-.04.14-.06.29-.07.43s.02.29 0 .43-.09.28-.13.41-.06.28-.07.42c-.02.3.03.59.14.87.02.05.06.09.1.11.01.02.03.05.06.07 1.03.86 2.46.99 3.75.94 1.55-.07 3.08-.45 4.64-.28.79.08 1.57.23 2.35.34.78.11 1.56.2 2.35.26 1.55.12 3.11.12 4.66-.11 1.72-.25 3.39-.78 4.88-1.67.04-.03.07-.06.09-.1.05-.02.09-.05.11-.11.37-.78.44-1.66.22-2.49-.01-.05-.05-.09-.1-.12z"/><path class="cls-14" d="M71.96 173.5c.24 1.63.51 3.45-.35 4.96-.31.54.52 1.06.83.51 1-1.75.75-3.79.47-5.7-.04-.26-.35-.42-.59-.36-.27.06-.4.32-.36.59zM77.59 172.56c.03 2.07.08 4.15.14 6.22 0 .26.19.49.47.5.25 0 .51-.2.5-.47-.07-2.07-.12-4.15-.14-6.22 0-.26-.2-.49-.47-.5-.25 0-.51.21-.5.47z"/><path class="cls-11" d="M88.45 185.96c-.08-.12-1 .48-2.69.69-.84.11-1.86.12-2.99 0-1.13-.1-2.39-.31-3.75-.44-.68-.06-1.35-.09-2.01-.07-.65.02-1.26.08-1.83.11-1.14.08-2.13.02-2.9-.26-.78-.27-1.31-.7-1.61-1.04-.3-.35-.42-.6-.49-.58-.05.01-.06.31.19.78.25.46.8 1.05 1.66 1.44.85.42 2 .54 3.18.51l1.81-.06c.61 0 1.25.02 1.9.08 1.31.12 2.58.31 3.77.37 1.18.07 2.27-.01 3.16-.21.89-.2 1.57-.52 2-.79.43-.28.61-.49.58-.54z"/><path class="cls-16" d="M83.59 181.38c-.16-.2-.69-.05-1.19.35-.5.39-.78.87-.62 1.07s.69.05 1.19-.35c.5-.39.78-.87.62-1.07zM85.48 182.6c-.18-.18-.6-.05-.95.3-.35.34-.48.77-.31.95.18.18.6.05.95-.3.35-.34.48-.77.31-.95zM85.86 110.72c-.51 0-.95 3.77-.99 8.42-.04 4.65.34 8.43.85 8.44.51 0 .95-3.77.99-8.42.04-4.65-.34-8.43-.85-8.44z"/><path class="cls-30" d="M77.56 95.86c-.06-.07-.09-.14-.12-.21-.06 0-.13.01-.19.01 0-.61-.95-.69-1.01-.05-.02.18-.02.37-.03.56.5-.03 1-.06 1.5-.1-.05-.07-.1-.15-.16-.22zM83.86 95.56c3.01-.33 6-.81 8.95-1.51.03-.02.06-.05.1-.06a.775.775 0 0 1-.29-.47v-.09c-1.8.41-3.62.83-4.57 1.05-1.54.36-6.07.78-8.9 1.02.08.15.16.3.22.46 1.5-.11 3-.24 4.5-.41zM78.74 94.9c-.56-.7-1.57.04-1.3.75.42-.03 1-.08 1.7-.14-.12-.21-.25-.42-.4-.61z"/><path class="cls-30" d="M77.72 96.08c.55-.04 1.09-.07 1.64-.11-.06-.16-.14-.31-.22-.46-.69.06-1.28.11-1.7.14.03.07.06.14.12.21.06.07.11.14.16.22z"/><path class="cls-31" d="m117.83 98.54 2.33-4.58 1.02.81s5.16-.64 5.56-.58 3.6-.26 3.6-.26 1.65 2.43 1.83 3.1.46 1.65.09 2.32-1.04 1.44-1.33 1.62-1.27.44-1.27.44 1.07.88.6 1.3-.93.78-1.59.4-1.75-1.68-2.63-1.81-3-.66-3.21-.84-.85-1-.94-1.01-4.07-.9-4.07-.9z" id="Layer_12"/><path class="cls-1" d="M69.6 85.05c-.29 2.14-.45 4.29-.63 6.44l-.09 1.02c.44-.15.88-.32 1.32-.49a81.36 81.36 0 0 1 4.34-22.77c-1.42 1.57-2.62 3.38-3.72 5.16l-1.2 10.64zM48.86 93.67s-.06.04 0 0zM121.42 98.87c-.01-.11-.01-.23-.01-.34 0-.28.29-.48.55-.46h.03c.08 0 .16.04.22.09.62.52 1.48.29 2.15 0 .87-.37 1.67-.94 2.56-1.22.89-.28 1.94-.29 2.69.34.69.57 1.04 1.54.55 2.35-.29.48-.83.78-1.37.78 0 .01.01.03.02.04 0 0 .03.04.05.06a.5.5 0 0 0 .07.08c.01.01.03.02.04.04.03.02.06.04.09.07.01 0 .05.03.07.04.03.02.07.03.1.05.04.02.09.04.13.05.01 0 .07.02.08.02.07.02.15.03.22.03H129.83c.38-.05.69-.25.99-.5.33-.28.58-.59.86-.93v-.01c.05-.07.1-.15.14-.23v-.01c.02-.03.03-.06.04-.08.05-.11.09-.22.12-.33v-.06c0-.05.01-.1.02-.16V98.43c-.01-.09-.03-.17-.06-.26 0-.02-.01-.04-.02-.06v.03c.01.04.03.11 0-.01a.3.3 0 0 0-.04-.1c-.06-.16-.11-.31-.16-.47a22.29 22.29 0 0 0-1.68-3.08c-.51.07-1.03.12-1.55.17-2.47.22-4.96.24-7.42.62a.468.468 0 0 1-.51-.26c-.14-.11-.28-.23-.42-.34l-1.66 3.57c.95.28 1.91.5 2.88.65zM132.05 98.51v-.04.06-.02zM81.28 54.06l.06.03c-.02-.01-.04-.03-.06-.04v.02zM132.05 98.55v-.03.02z"/><path class="cls-1" d="M129.82 102.28s-.02-.05-.03-.07c.04.08-.09-.1-.02-.04l-.02-.02h-.05.04a.575.575 0 0 1-.4-.27c-.8-.15-1.51-.75-1.59-1.57-.73-.24-1.26-.97-1.27-1.74 0-.13.02-.25.05-.37-.26.13-.51.27-.76.4-.9.49-2.08 1.04-3.14.86.16.29.39.55.68.7.31.16.7.21 1.06.25.44.04.87.08 1.3.19.74.2 1.36.69 1.94 1.16.47.39 1.14 1.04 1.76.95.13-.02.24-.05.31-.1s.08-.06.11-.11c0 0 .02-.03.03-.04 0-.02.01-.04.01-.04v-.14z"/><path class="cls-30" d="m46.76 94.26.01.01-.01-.01zM85.8 96.88s-.08.05-.12.05c-.1.14.1-.01.12-.05zM87.41 95.43c-.08 0-.13.12-.18.18.07 0 .19-.11.18-.18zM85.75 96.73c-.04.06-.04.12-.09.18.11-.13.1-.21.09-.18zM88.9 94.92c.15.02-.04-.13-.1-.11.01.03.04.06.1.11zM92.29 57.78h.05-.05zM88.48 94.02s-.12 0-.1.06c.03.03.12 0 .1-.06zM86.8 96.26s-.47.36-.02.17c.07-.05-.09-.06.02-.17zM89.04 93.83c-.06.02-.1-.02-.14-.02-.01.02-.03.03-.04.05.06.05.19.03.18-.03zM86.58 95.88c.08.05.15.09.1-.08.34-.21-.27 0-.26.27.3-.02-.02-.11.16-.19zM87.09 95.76c-.09-.03-.1.04-.17.11.09-.02.1-.07.17-.11zM86.18 96.66c.13-.06.45.29.33-.12-.07.11-.33 0-.33.12zM86.5 96.18s.07-.05.08-.09c-.07 0-.1.01-.08.09zM86.37 96.17c.02-.14-.11.06-.12.12.06.08.05-.09.12-.12zM86.09 96.44c.09 0 .05-.07.07-.14-.07.01-.04.09-.07.14zM90.99 92.97c-.16 0 .04.23.06.2-.02-.04.04-.24-.06-.2zM91.25 92.94c-.01-.08.15-.08.08-.14-.09 0-.22.24-.08.14zM91.31 92.72s.1-.03.11-.04c.05-.1-.25-.02-.11.04zM91.44 92.34c-.02.07-.07.13-.14.16-.05.15.28-.21.14-.16zM91.22 92.05c.08 0 .05 0 0-.04.08-.27-.23.3 0 .04z"/><path class="cls-30" d="M87.06 96.15c.63-.77-.81.56.2.05.06-.1-.15-.07-.2-.05zM91.14 93.07s.03-.08.03-.07c-.07 0-.12.07-.03.07zM91.37 92.3s.1-.02.12-.05c.07-.12-.1 0-.12.05zM91.69 91.87s.23-.24.06-.12c-.04.06-.07.05-.06.12zM91.57 91.58s-.01 0-.02.01c.01 0 0 .02.02-.01zM91.19 91.92s-.16-.05-.03-.11c.01-.02.02-.02.03-.04-.02.01-.05.02-.07.04-.05.07-.08.14.07.11zM91.69 92.01s.11-.08.13-.16c-.05 0-.13.12-.13.16zM91.15 92.73c-.06.06-.23.05-.2.15.06-.02.27-.09.2-.15zM89.25 93.46c.06-.02.06-.09.05-.13-.02.02-.04.04-.05.06v.06zM91.54 92.53s.23-.26.08-.15c-.1-.05-.16.11-.08.15zM91.75 91.68s.11-.12 0-.06c-.1.05-.05.1 0 .06zM86.21 96.2c-.06 0-.14.06-.05.07.04 0 .12-.07.05-.07zM91.08 92.36s.07.02.02.06c.09-.04.04-.16-.02-.06zM90.35 93.23s-.24.13-.07.16c.01-.03.21-.17.07-.16zM90.42 93.35s.03.04.06 0c-.02-.01-.07-.05-.06 0zM90.15 93.46s-.04.14 0 .16c.05 0 .09-.18 0-.16zM90.18 93.05c-.05-.16-.15-.04-.12.05.07-.07.21.05.12-.05zM89.69 93.22s-.08.06-.08.09c.04.02.1-.05.08-.09zM89.42 93.34c-.05.01-.11.13-.13.17.07-.03.13-.1.13-.17zM89.34 93.52c-.07.02-.13.12-.08.13.06 0 .08-.09.08-.13zM90.69 93.01c.18-.25-.26.07-.07-.03.24.27-.35-.05-.14.3.19-.37.09.2.31-.23.23-.15-.06 0-.1-.04zM90.51 92.91c.19 0-.06-.2-.06-.06.03 0 .08 0 .06.06zM89.98 93.68s.05-.02.06 0c-.01-.04-.05-.01-.06 0zM88.97 93.78l.11-.02c.02-.09-.1-.04-.11.02zM89.26 94.22c-.11.17.26 0 .16-.09-.05-.04-.08.15-.16.09zM89.07 94.34s.11.02.13-.03c0-.03-.16-.03-.13.03zM89.23 93.88c.07.02 0-.08.08-.08.13-.14-.24.02-.08.08zM89.9 93.74s.05.02.08 0c0-.05-.18-.01-.08 0zM89.87 93.95s.02-.02.03-.02c0-.02-.04.01-.03.02zM89.86 93.98c-.14-.09-.39.27-.09.07.18.04-.04.07 0 .11 0 .06.27-.13.08-.19zM89.53 94.03c-.18.15.09-.06.12-.05.01-.11-.16-.06-.12.05z"/><path class="cls-30" d="M87.24 96.07c.29-.2.07.09.32-.12-.11-.19-.18 0-.32.12zM87.75 95.67c.13.02.07-.16.21-.18.19-.16-.36.08-.21.18zM87.84 94.85c.24-.13.07.28.34-.12-.09-.02-.26.12-.05-.09.31-.19-.53.22-.29.21zM88.44 95.22c.11-.09.06 0 .09.03.32-.24-.71.03-.09-.03z"/><path class="cls-30" d="M88.25 95.12c-.06-.03-.08.12 0 .06.04-.03.01-.04 0-.06zM88.07 94.5c.48-.25-.11.2.39-.06-.17-.16-.26-.06-.39.06zM87.84 95.25c-.06 0-.05.11-.03.13.09.08.03-.15.03-.13zM89.68 93.86c-.02.15.15-.1-.03-.07-.11.07.1 0 .03.07zM88.41 94.98c.06-.05.07.03.12 0-.05-.05-.19-.11-.12 0zM90.75 92.31s-.12.11-.03.07c0-.04.12-.05.03-.07zM88.57 94.63c0 .06.15-.06.11-.09-.03.04-.12.03-.11.09zM89.07 94.81c-.06-.03-.08.12-.05.13 0 0 .06-.1.05-.13zM90.46 92.42c-.08-.05-.13.09-.06.15.09 0 0-.1.06-.15zM88.39 94.83l.07-.07c-.04-.07-.07.02-.07.07zM88.66 94.28s0-.06.03-.1c-.05-.02-.12.13-.03.1zM90.78 92.84c.08.05.09-.17-.02-.06-.03.04.03.02.02.06zM88.69 95.09c.08-.01.19-.19.11-.2-.08.01-.14.15-.11.2zM83.41 65.23c.04-.07 0 0 0 0zM84.87 63.61c.01 0 .02-.01 0 0z"/><path class="cls-30" d="m84.49 63.5-.45-.03-.38.47c.13.11.21.28.19.45-.03.29-.28.46-.55.46s-.55 0-.82.02c-.11.21-.21.42-.29.65-.09.25.03.57.29.66.26.09.55-.03.66-.29.06-.15.11-.29.18-.43.03-.06.06-.12.09-.19 0-.01 0-.02.01-.02 0 0 .04-.07 0 0l.01-.02c.02-.03.03-.06.05-.09.16-.27.33-.52.54-.76.02-.03.04-.05.06-.07 0 0 .07-.08.04-.04l.06-.06.07-.07c.11-.1.21-.2.33-.29.06-.05.12-.09.17-.13.03-.02.05-.04.08-.06 0 0 .03-.02.04-.03.02-.01 0 0 0 0-.02.01.06-.04.07-.04.03-.02.06-.03.08-.05.07-.04.14-.08.22-.11.24-.11.37-.43.25-.67-.13-.24-.42-.37-.67-.25-.03.01-.05.03-.08.05.48.19.35 1.02-.24.97zM104.06 81.16a5.933 5.933 0 0 0-4.05.54c-.24.13-.37.41-.25.67.11.24.43.38.67.25 1.1-.58 2.32-.73 3.53-.45.27.06.53-.21.55-.46.03-.3-.19-.49-.46-.55z"/><path class="cls-14" d="M131.97 98.14v-.01c.03.13.02.05 0 .01z"/><path class="cls-14" d="M132.89 97.68c-.03-.09-.06-.17-.09-.26-.02-.05-.03-.09-.05-.14 0-.01 0-.03-.01-.04v-.02c0-.04-.02-.07-.03-.1a23.03 23.03 0 0 0-1.97-3.53.429.429 0 0 0-.26-.17h-.21c-2.45.38-4.95.4-7.41.62-.53.05-1.05.1-1.58.17l-.05-.05c-.19-.15-.38-.31-.57-.46l-.44.95c.14.11.28.23.42.34.09.18.26.3.51.26l7.41-.62c.52-.05 1.03-.1 1.55-.17.63.96 1.2 2.01 1.68 3.08.05.16.1.32.16.47.01.03.02.07.04.1v-.02c0 .02.01.04.02.06l.06.26v.13-.02.04c0 .05 0 .1-.02.16v.06c-.04.11-.07.22-.12.33l-.04.08v.01c-.05.08-.09.15-.14.23v.01c-.28.35-.53.65-.86.93-.3.25-.62.45-.99.5H129.73c-.07 0-.15-.01-.22-.03-.02 0-.07-.02-.08-.02a.694.694 0 0 1-.13-.05c-.03-.02-.07-.03-.1-.05-.01 0-.05-.03-.07-.04a.55.55 0 0 1-.09-.07c-.01-.01-.03-.02-.04-.04a.572.572 0 0 1-.07-.08c-.02-.02-.04-.05-.05-.06 0-.01-.01-.03-.02-.04.54 0 1.07-.3 1.37-.78.49-.82.14-1.78-.55-2.35-.75-.62-1.8-.62-2.69-.34-.16.05-.31.11-.46.18 0 0-.93.47-.89.68s.98 0 .89.32c-.01.04-.03.08-.05.13.03-.02.07-.04.1-.05-.03.12-.05.24-.05.37 0 .77.54 1.5 1.27 1.74.08.82.79 1.42 1.59 1.57.08.14.23.24.4.27s-.01 0-.02 0h.03l.02.02c-.07-.07.06.11.02.04.01.02.02.05.03.07v.14s0 .02-.01.04c0 .01-.02.04-.03.04-.03.05-.05.06-.11.11a.63.63 0 0 1-.31.1c-.61.08-1.28-.56-1.76-.95-.58-.47-1.2-.96-1.94-1.16-.43-.12-.86-.15-1.3-.19-.36-.03-.75-.08-1.06-.25a1.64 1.64 0 0 1-.68-.7c-.16-.58-1.22-.7-1.21-.59-.98-.14-1.94-.37-2.88-.65l-.43.93c1.19.36 2.4.64 3.63.79.18.34.43.64.74.88.4.31.87.47 1.37.55.48.08.98.06 1.46.18.86.22 1.52.91 2.2 1.43.75.58 1.75 1.06 2.66.52.46-.28.75-.77.67-1.32-.02-.18-.08-.34-.17-.48.75-.33 1.35-1.02 1.86-1.65.02-.03.04-.06.06-.1.32-.49.52-1.03.46-1.63-.02-.22-.09-.43-.16-.64zM117.69 97.96a.526.526 0 0 0-.66.29c-.09.25.03.57.29.66.26.08.52.16.77.24l.43-.93c-.28-.08-.56-.17-.84-.26zM119.29 93.3a.52.52 0 0 0 .11.71c.27.21.53.43.79.64l.44-.95c-.21-.17-.42-.35-.64-.52-.21-.17-.56-.11-.71.11zM132.05 98.53v-.06.07z"/><path class="cls-30" d="M72.69 91.26c-.44.17-.87.34-1.32.49.03-.34.07-.68.09-1.02.18-2.15.34-4.3.63-6.44l1.2-10.64c1.1-1.78 2.3-3.59 3.72-5.16.56-1.64 1.17-3.26 1.84-4.85.02-.06.06-.1.09-.15v-.02c-1.67.93-3.16 2.18-4.36 3.66-.24.29-.46.59-.67.9l.17-1.49c.06-.55.16-1.12.15-1.67 0-.56-.12-1.1-.52-1.49-.46-.45-1.11-.53-1.72-.64-2.04-.38-4.1-.59-6.16-.77.05-1.25.15-2.49.32-3.73a.453.453 0 0 0-.12-.37.59.59 0 0 0-.39-.33c-.19-.06-.39-.07-.59-.1l-1.03-.14a.506.506 0 0 0-.45.2c-.08.05-.14.13-.16.22-.37 1.3-.59 2.63-.64 3.98l-3.06-.27c-.69-.06-1.38-.14-2.07-.17-.61-.03-1.18 0-1.72.21-.14.01-.28.09-.38.2-.32.39-.51.84-.64 1.31-.02-.02-.05-.04-.07-.06 0 0-.02-.01-.02-.02-.04-.05-.08-.09-.12-.15 0 0 0-.01-.01-.02-.01-.02-.02-.05-.04-.07-.06-.13-.08-.28-.16-.41-.2-.35-.55-.52-.95-.53-.4 0-.77.03-1.15.05-.1 0-.19.06-.27.13-.17 0-.34.06-.43.21-.81 1.39-1.51 2.83-2.07 4.33-.14.37-.27.74-.39 1.12-.12.38-.25.83.04 1.19.43.53 1.04.34 1.58.07-.18 1.79-.31 3.59-.44 5.38-.29 4-.58 8-.86 12l-.49 6.74v.03c-.05.2 0 .42.19.54.32.22.68.38 1.06.47.23.05.47.09.7-.02.25-.12.39-.36.43-.62.02-.15 0-.31-.03-.46.02 0 .03 0 .05-.01.07-.02.14-.03.21-.04l.24-.03c-.14.94.04 1.87.84 2.46.95.71 2.24.71 3.37.81a323.063 323.063 0 0 0 11.4.83c1.03.06 2.55.36 3.11-.78.12-.25.16-.54.21-.81.03-.17.06-.33.09-.49.06 0 .13-.01.19-.04.49-.17.97-.35 1.46-.53v-.89c.01-.7.04-1.4.07-2.1zm-21.33 1.65c-.06.04-.03.02 0 0z"/><path class="cls-30" d="M121.32 92.03c.03-.19-.03-.39-.2-.49-4.5-2.61-8.95-5.32-13.34-8.12-1.2-.77-2.4-1.54-3.6-2.32-2.05-3.26-4.26-6.42-6.6-9.48-1.12-1.46-2.26-2.92-3.47-4.31-.29-.33-.58-.66-.89-.98-.08-1.32-.16-2.64-.23-3.96.16-.23-.04-1.81-.04-2.18-1.23-.13-14.99-4.42-15.7-4.49a.462.462 0 0 0-.43.18c-.17.11-.28.31-.24.52.42 1.82.8 3.69.8 6.04-.43.62-.5.89-.93 1.8.32-.18.65-.35.99-.51 2.23-1.03 4.69-1.45 7.14-1.24.06 0 .1.03.14.04.03-.01.05-.03.08-.05.25-.12.55 0 .67.25.13.25-.01.56-.25.67-.07.04-.14.07-.22.11-.03.02-.06.03-.08.05 0 0-.09.06-.07.04-.02.01-.04.03-.04.03-.03.02-.05.04-.08.06-.06.04-.12.09-.17.13-.11.09-.22.19-.33.29-.02.02-.05.04-.07.07 0 0-.09.1-.06.06.03-.03-.03.04-.04.04-.02.03-.04.05-.06.07-.2.24-.38.49-.54.76-.02.03-.03.06-.05.09 0 .02-.01.02-.01.02s0 .01-.01.02c-.03.06-.06.12-.09.19-.07.14-.13.29-.18.43-.1.27-.39.38-.66.29-.26-.09-.39-.41-.29-.66.08-.22.18-.44.29-.65-.85.06-1.7.25-2.5.54-2.17.79-3.93 2.18-5.44 3.85a83.84 83.84 0 0 0-2.69 9.76A81.36 81.36 0 0 0 70.18 92c.89-.34 1.78-.7 2.64-1.1 2.62-1.22 5.12-2.72 7.43-4.46 1.18-.9 2.37-1.84 3.39-2.91s1.9-2.27 2.71-3.51c.15-.23.49-.27.71-.11.23.17.26.48.11.71-.01.02-.03.04-.04.06l.55.53c.4-.26 1.01.26.68.74-.98 1.44-2.11 2.77-3.34 4-2.21 2.21-4.76 4.07-7.47 5.62-2.38 1.36-4.88 2.48-7.45 3.44-.02 2.58-.97 4.46-.75 7.03 0 0 27.48 5.03 27.48 5.01 0 0-1.23-14.1-1.6-16.87l-.21-1.52c1.12.8 2.28 1.55 3.48 2.24.13.48 8.27 5.9 12.24 7.54 0-.01-.02-.02-.02-.03a.45.45 0 0 1-.07-.48c.64-1.54 1.31-3.05 2.03-4.55.05-.11.14-.2.24-.26l.09-.06c.11-.05.28-.07.39-.01l1.1.52c.13.06.22.14.28.26.03.06.04.13.05.2 0 .07 0 .15-.03.22a85.09 85.09 0 0 0-1.97 4.61c-.04.11-.11.19-.19.24-.02.03-.05.06-.08.09.04.02.09.03.13.05 1.32.51 2.64 1 3.98 1.45.1.03.19.04.27.02.24.05.47-.09.58-.31l.58-1.25c-.26-.08-.52-.15-.77-.24-.26-.09-.39-.41-.29-.66.1-.27.4-.38.66-.29.28.09.56.18.84.26l1.66-3.57-.79-.64a.52.52 0 0 1-.11-.71c.15-.22.5-.28.71-.11.21.17.43.34.64.52l.66-1.41c.04-.08.04-.17.03-.26zm-35.98 5.21s-.05.09-.06.13c-.02.04.06-.13.06-.13zm-.01.03.03-.02.38-.02 6.22-5.34s.03-.08.05-.04c.01.03-.03.09-.05.04zm6.67-5.6c.12-.16.01.04-.03.09-.03-.01.03-.08.03-.09zm0-.1v-.04c.09-.06.02.08 0 .04zm.02.45s0-.1.04-.14c.01.03 0 .11-.04.14zm11.94-9.85a5.031 5.031 0 0 0-3.53.45c-.24.13-.56-.01-.67-.25-.12-.26 0-.54.25-.67 1.23-.65 2.7-.85 4.05-.54.27.06.49.25.46.55-.02.25-.29.52-.55.46zM46.77 94.27z"/><path class="cls-30" d="M76.36 64.4c-.67 1.6-1.28 3.22-1.84 4.85 1.51-1.66 3.27-3.06 5.44-3.85.8-.29 1.65-.48 2.5-.54.51-.98 1.27-1.83 2.26-2.33a.326.326 0 0 0-.14-.04c-2.45-.22-4.91.21-7.14 1.24-.34.16-.66.33-.99.51v.02c-.04.04-.07.09-.09.15zM85.03 85.96c1.23-1.23 2.36-2.56 3.34-4 .33-.48-.28-1-.68-.74l-.55-.53s.03-.04.04-.06c.15-.23.12-.54-.11-.71-.21-.16-.56-.12-.71.11-.81 1.23-1.69 2.44-2.71 3.51-1.02 1.07-2.21 2.01-3.39 2.91-2.31 1.75-4.8 3.24-7.43 4.46-.87.4-1.75.76-2.64 1.1-.03.7-.06 1.4-.07 2.1V95c2.56-.96 5.07-2.08 7.45-3.44 2.71-1.55 5.26-3.4 7.47-5.62z"/><path class="cls-30" d="M82.47 64.87c.27-.02.55-.03.82-.02.27 0 .53-.17.55-.46a.534.534 0 0 0-.19-.45l.38-.47c.15 0 .3.02.45.03.59.05.72-.78.24-.97-.99.5-1.76 1.35-2.26 2.33zm2.08-2.04zM84.55 62.83z"/><path class="cls-14" d="M81.34 54.09c.06.05.12.09.18.13-.03-.03-.05-.07-.09-.09-.03-.02-.06-.03-.09-.04z"/><path class="cls-6" d="M110.8 98.52c.18.17.37.33.58.45.22.12.44.23.68.3.13.04.27.05.39-.01.04-.02.08-.05.12-.08-.61-.24-1.22-.48-1.82-.73.01.03.03.05.05.07z"/><path class="cls-6" d="M112.84 98.86c.61-1.55 1.27-3.09 1.97-4.61.03-.07.04-.15.03-.22 0-.07-.01-.13-.05-.2a.548.548 0 0 0-.28-.26l-1.1-.52a.526.526 0 0 0-.39.01c-.03.01-.06.03-.09.06-.1.06-.19.15-.24.26-.72 1.5-1.39 3.02-2.03 4.55-.08.19-.04.36.07.48 0 .01.01.02.02.03.6.25 1.21.5 1.82.73.03-.03.06-.06.08-.09.08-.05.14-.13.19-.24z"/><path class="cls-7" d="m87.8 95.88.05-.08c-.09.03-.09.03-.05.08zM90.55 93.43c-.11.04.06.16.1.05.11-.04-.06-.05-.1-.05zM90.42 93.62s.14-.12.05-.11c-.05.07-.14-.07-.05.11zM89.96 94.22c-.03.06-.05.18.03.08.1-.05.05-.15-.03-.08zM90.54 93.66c.02.06.07 0 .08-.05-.03.01-.09.01-.08.05zM92.04 91.36s.04-.02.07-.03c-.05.02-.07.02-.07.03zM88.8 94.81zM88.86 93.85c.01-.02.03-.03.04-.05-.02 0-.04 0-.05.05zM91.57 91.57c.14-.08 0-.04-.05 0h.02s.01 0 .02-.01zM89.25 93.4s.04-.04.05-.06c-.03 0-.04.03-.05.06zM92.2 91.29s-.07.03-.1.04c.03-.01.08-.03.16-.05-.13.04.13-.07-.06.01zM91.97 91.76c.04-.06.15-.25.03-.09 0 .02-.06.08-.03.09zM91.64 92.6l-.05.08s.1-.08.11-.11h-.02s-.02.01-.03.03zM92.02 92.02s.05-.11.04-.14c-.03.04-.03.1-.04.14zM92.02 91.53v.04s.07-.1 0-.04zM91.96 91.89s.06-.01.05-.04c-.02-.04-.05.02-.05.04zM88.32 95.56c-.11.11-.39.09-.42.33.09-.13.71-.3.42-.33zM88.55 93.98c-.05-.07-.29.05-.23.16.08.01.24-.06.23-.16zm-.07.04c.02.06-.07.09-.1.06-.01-.06.11-.09.1-.06zM87.29 96.4c-.01.15-.06.02-.13.15.14.07.43-.26.13-.15zM85.36 97.25c-.06.11.12-.15.12-.23-.04.05-.09.2-.12.23zM89.73 94.44c-.09.03-.19-.08-.2.06.03.05.34 0 .2-.06zM85.56 96.87c-.02-.06-.12.11-.09.13.05 0 .09-.09.09-.13zM86.96 95.45c-.04-.06.13-.19.06-.22-.09-.01-.16.23-.06.22zM88.75 95.28c-.1.21-.23.06-.32.24.12.04.56-.28.32-.24zM85.54 97.16c-.09.1.06-.03.02.04.08.02.1-.1-.02-.04zM85.85 97.17c.23-.09 0-.1-.06-.02.07-.03-.02.07.06.02zM87.48 96.3c-.05.04.02.05-.01.1.13 0 .19-.2.01-.1zM85.79 96.25c0 .05-.04.29.04.09.07-.07.03-.17-.04-.09zM87.68 96.09s.12.12.17.06c0-.05-.13-.09-.17-.06zM86.26 95.95c.1-.02.08-.07.14-.13-.09.01-.27.2-.14.13zM86.06 96.04s.11-.12 0-.09c-.13.08-.02.28 0 .09zM85.81 96.2c.03-.06.17-.15.08-.15-.04 0-.16.22-.08.15zM87.47 95.06s.04-.05.03-.08c-.1 0-.21.18-.03.08zM86.26 95.8s-.16.13-.07.1c.03-.02.1-.07.07-.1zM87.53 94.8s.04-.03.05-.05c.04-.14-.2.12-.05.05zM85.65 97.06s.02.01.05-.02c.02-.02.03-.03.03-.04-.02 0-.04.02-.06.02-.03.02-.05.04-.03.04z"/><path class="cls-7" d="M85.68 97.03s.04-.01.06-.02c0-.02-.03 0-.06.02zM87.64 94.97c0 .06.13-.03.12-.07h-.01c-.04 0-.09.03-.1.07zM87.74 94.9h.01-.01zM87.79 94.72c.08-.09.04-.1-.04-.02-.07.05-.03.08.04.02zM85.55 96.8s.02-.12-.02-.06c-.02.04-.02.13.02.06zM87.76 94.64s.04-.09-.02-.05c-.09.04-.03.13.02.05zM85.46 97.18s.05-.02.07-.04c.03-.05-.06.02-.07.04zM85.27 97.37s.05-.09.06-.13c0 0-.09.17-.06.13zM85.33 97.27s.06-.09.06-.12l-.06.12zM86.58 96.91c-.12.13.09.05.02-.03-.03 0-.03 0-.02.03zM89.51 93.11s.04-.04.05-.06c-.03 0-.05.03-.05.06z"/><path class="cls-7" d="m89.52 93.14.07-.09h-.03c-.02.02-.04.04-.05.06 0 .01 0 .02.01.03zM85.41 97.07s.04-.04.04-.06c-.01.01-.04.06-.04.06zM87 96.6c-.02-.1.17-.08.08-.14-.08 0-.24.17-.08.14zM86.93 96.7c-.06-.02-.03.03 0 .07.05.04.14-.14 0-.07zM86.7 96.63c.02.06 0 .11.07.06-.01 0 .08-.16-.07-.06zM86.69 96.91s.08.04.1-.02c.04-.09-.07-.01-.1.02zM86.37 97.09c0 .09.32.09.18-.04-.15-.02-.56.03-.18.04zM86.13 97.17c-.14.03-.07.05.05.03.09-.04-.01-.06-.05-.03zM85.74 97.23c.07.08.19-.03.29-.07.22-.16-.2.06-.29.07z"/><path class="cls-16" d="M69.26 78.4c-.03-.1-.49-1.14-1.38-2.46s-.04-.07-.04-.11c-.01-1.3-.13-2.18-.13-2.18a.363.363 0 0 0-.28-.3l-1.02-.21h-.03c-.12 0-.23.08-.24.2l-.03.36s0 .01-.01.01c-.57-.61-1.23-1.21-1.96-1.75a.965.965 0 0 0-.5-.2.907.907 0 0 0-.52.11c-3.75 1.91-6 5.34-6.09 5.53s-.04.09-.05.15c-.01.17.09.31.24.36l1.01.28c.13.05.23.18.23.32 0 .18-.14 4.25.02 5.32.03.15.16.28.32.29.6.03 1.15.07 1.75.11s.05 0 .05 0c.06 0 .12-.04.12-.11 0-.36.02-1.17.05-2.03v-.07c0-.07-.03-.14-.09-.18-.29-.21-.48-.56-.47-.94.06-1.43.17-3.07.35-4.35.01-.11.11-.19.22-.18.11 0 .2.11.19.22v.02c-.12.85-.21 1.87-.27 2.87 0 .14.09.25.23.26.14 0 .25-.09.26-.23.06-1.01.15-2.03.27-2.88.01-.11.11-.19.22-.18.11 0 .2.11.19.22v.02c-.12.85-.21 1.85-.27 2.85 0 .14.09.25.23.26.13 0 .25-.09.26-.23.06-1 .15-2.02.27-2.87.01-.11.11-.19.22-.18.11 0 .2.11.19.22v.02c-.17 1.24-.28 2.83-.34 4.22s0 .03 0 .03v.01c-.03.38-.25.7-.56.88-.05.03-.09.09-.1.15 0 0-.04.21-.03 1.25 0 .45.02.77.02.91 0 .05.04.1.1.1h.1c.2.02.4.03.61.05h.08c.27.02.52.04.77.06l.58.05c.06 0 .1-.03.12-.09.24-1.23.32-1.92.32-1.92 0-.06-.04-.11-.1-.13l-.7-.16a.246.246 0 0 1-.19-.19c-.01-.05 0-.11 0-.11.62-4.1 2.09-5.38 2.09-5.38.04-.04.07-.05.07-.05.04-.02.08-.03.13-.03.09 0 .17.07.19.15v.1c.01 1.31-.22 3.51-.44 5.22-.18 1.46-.35 2.6-.35 2.6s.03.09.08.09c.39.04.76.08 1.17.12.16.01.31-.09.36-.23.33-1.03.85-5.07.88-5.25.03-.14.14-.25.28-.28l1.04-.11a.35.35 0 0 0 .29-.32c0-.05 0-.11-.02-.15zM99.94 81.48c.04.28.9.39 1.92.25s1.82-.48 1.79-.75c-.04-.28-.9-.39-1.92-.25s-1.82.48-1.79.75zM51.64 94c.28.03 1.19-6.87 2.04-15.41.85-8.54 1.31-15.48 1.03-15.51s-1.19 6.87-2.04 15.41c-.85 8.54-1.31 15.48-1.03 15.51zM84.34 76.53c-.12.05.14.97.82 2.34.68 1.37 1.82 3.17 3.38 4.92 1.56 1.74 3.23 3.08 4.51 3.91 1.29.83 2.17 1.19 2.23 1.08.16-.26-2.98-2.27-5.99-5.66-3.04-3.36-4.68-6.71-4.96-6.58z"/><path class="cls-16" d="M69.95 91.9c.04.12 1.18-.09 2.95-.73 1.76-.64 4.13-1.77 6.49-3.4a31.92 31.92 0 0 0 3.17-2.52c.91-.85 1.7-1.65 2.3-2.37 1.22-1.43 1.8-2.44 1.7-2.52-.24-.2-3.11 3.41-7.75 6.57-4.6 3.2-8.97 4.67-8.86 4.97zM69.36 95.49c.03.12 1.33-.06 3.35-.69 2.01-.63 4.74-1.75 7.5-3.44a36.04 36.04 0 0 0 3.72-2.63c1.08-.9 2.01-1.74 2.73-2.52 1.46-1.53 2.19-2.63 2.09-2.71-.23-.22-3.65 3.72-9.07 6.99-5.38 3.32-10.41 4.68-10.32 4.99z"/><path class="cls-26" d="M78.72 61.04c.05.14.67.02 1.63-.09.97-.11 2.3-.15 3.75.09 1.44.24 2.69.71 3.57 1.13.88.41 1.42.73 1.52.61.08-.1-.3-.62-1.16-1.23-.42-.31-.97-.61-1.61-.89-.64-.26-1.37-.49-2.16-.62s-1.56-.15-2.25-.11c-.69.05-1.31.17-1.81.32-1 .3-1.54.67-1.49.79zM77.67 62.89c-.01.28 1.75.58 3.94.68 2.19.09 3.98-.06 3.99-.34s-1.75-.58-3.94-.68c-2.19-.09-3.98.06-3.99.34z"/><path class="cls-16" d="M73.98 70.06c.24.18 1.75-1.63 4.18-3.06 2.42-1.46 4.73-1.92 4.68-2.22-.02-.13-.63-.19-1.61-.02-.97.16-2.29.59-3.59 1.37-1.3.78-2.31 1.73-2.92 2.51-.61.78-.85 1.34-.75 1.42z"/><path d="M90.28 93.39c-.21-.19-1.36.76-2.58 2.12s-2.03 2.61-1.82 2.8c.21.19 1.36-.76 2.58-2.12s2.03-2.61 1.82-2.8z" style="fill:#ef470d"/><path class="cls-30" d="M70.41 57.03h.01l-.01-.01v.01z"/><path class="cls-24" d="M131.77 100.9s2.08.43-.95 2.42c-3.03 2 .96 2.66 1.65 2.42 5.75-2.01 3.79-7.57.56-7.41 0 0-.12.93-.27 1.2-.61 1.11-1.01 1.37-1.01 1.37zM126.37 98.7c-.16.52.4.46.71.77s.38.99.93.99c1.09 0 1.35 0 1.35-1.09s-.54-1.76-1.64-1.76-1.2.59-1.35 1.09z"/><path d="M121.12 91.54c-4.5-2.61-8.95-5.32-13.34-8.12-1.2-.77-2.4-1.54-3.6-2.32-2.05-3.26-4.26-6.42-6.6-9.48-1.12-1.46-2.26-2.92-3.47-4.31l-.89-.98c5.15 15.5 2.7 22.96 2.7 22.96.13.48 10.85 7.51 14.82 9.15 0-.01-.02-.02-.02-.03a.45.45 0 0 1-.07-.48c.64-1.54 1.31-3.05 2.03-4.55.05-.11.14-.2.24-.26l.09-.06c.11-.05.28-.07.39-.01l1.1.52c.12.06.22.14.28.26.03.06.04.13.05.2 0 .07 0 .15-.03.22-.7 1.51-1.36 3.05-1.97 4.61-.04.11-.11.19-.19.24-.02.03-.05.06-.08.09.04.02.09.03.13.05 1.32.51 2.64 1 3.98 1.45.1.03.19.04.27.02.24.05.47-.09.58-.31l.58-1.25c-.26-.08-.52-.15-.77-.24-.26-.09-.39-.41-.29-.66.1-.27.4-.38.66-.29.28.09.56.18.84.26l1.66-3.57-.79-.64a.52.52 0 0 1-.11-.71c.15-.22.5-.28.71-.11.21.17.43.34.64.52l.66-1.41c.04-.08.04-.17.03-.26.03-.19-.03-.39-.2-.49zm-17.16-9.37a5.031 5.031 0 0 0-3.53.45c-.24.13-.56-.01-.67-.25-.12-.26 0-.54.25-.67 1.23-.65 2.7-.85 4.05-.54.27.06.48.25.46.55-.02.25-.29.52-.55.46z" style="fill:#ef5f2d;opacity:.36"/><path class="cls-30" d="M85.34 97.24s-.05.09-.06.13c-.02.04.06-.13.06-.13z"/><path class="cls-31" d="m106.91 87.06-.65-3.42-.4-2.12 2.01-.32 1.28-.33s.57-.98.92-1.37 1.49-1.67 1.69-1.88.52-.6.82-.73 1.86-.79 2.09-.91 1.26-.73 1.53-.68 1.39.21 1.74.19.68-.11.68.14-.07.61-.31.8-.56.23-.91.41-.18.19-.61.24-.63 0-.63 0-.44 1.01-.6 1.16-.55.54-.55.54.84-.19 1.23-.2 1.45.07 1.79 0 1.95-.45 2.39-.62 1.16-.42 1.39-.52 1.23-.46 1.43-.42.39.09.37.31-.2.51-.2.51.48 0 .46.2-.06.21-.44.63c-.38.42-1.45 1.46-1.89 1.96-.44.5-1.42 1.75-1.42 1.75s-1.23.86-1.7 1.13-1.08.62-1.7.84-2.65.81-3.39 1.02c-.74.21-2.39.45-3.01.63l-3.42 1.07z" id="Layer_6"/><path class="cls-16" d="M104.68 80.2z"/><path d="M82.13 69.59c-.03-.34-.05-.68-.08-1.03-.01-.13-.1-.25-.24-.24-.12 0-.25.11-.24.24.03.34.05.68.08 1.03 0 .13.1.25.24.24.12 0 .25-.11.24-.24z" style="fill:#c85e05"/><path d="M128.68 74.69s-.01-.06-.03-.09l-.62-.85c-.02-.06-.07-.1-.15-.12-1.25-.31-2.57-.45-3.86-.33-.04 0-.09 0-.12.03-1.86 1.29-3.67 2.65-5.52 3.94-.53.37-1.07.74-1.62 1.1-.11.07-.16.21-.09.33.06.11.22.16.33.09.09-.06.18-.12.28-.19.17.03.35.05.44.04.21-.02 1.66-.38 1.97-.46s2.02-.6 2.02-.6.64-.34.85-.41.7-.16.95-.08-.08.74-.08.74.24 0 .35.03h.01c-.12.19.09.48.32.34a47.78 47.78 0 0 0 3.58-2.42c.33-.25.66-.5.99-.76.1-.08.09-.25 0-.33z" style="fill:#f3bf44"/><path class="cls-27" d="M82.93 86.27c.49.81 1.07 1.55 1.56 2.35s.95 1.61 1.43 2.41c.5.84 1.02 1.67 1.6 2.46.44.59.95 1.23 1.61 1.6.59.33 1.39.34 2.05.36.93.03 1.86-.03 2.79-.11.51-.05 1.03-.1 1.55-.16.75-.21 1.5-.45 2.22-.72 2.48-.91 4.85-2.1 7.31-3.07.5-.29 1-.58 1.51-.86.16-.09.3.06.29.2h.01c-.01-.16-.03-.32-.04-.48v-.01c.06-.03.11-.07.17-.1.15-.09.3-.18.46-.28l.01-.01s.02-.01.02-.02l.02-.02c.03-.04.04-.08.05-.12v-.1c-.39-2.42-.82-4.82-1.23-7.24l-.33-2.01v-.07a.17.17 0 0 0-.07-.1c-.02-.01-.04-.02-.06-.02-.33.11-.67.21-1.02.28-.87.16-1.77.2-2.65.28-.5.04-1.01.09-1.51.17-.56.1-1.12.24-1.68.37-2.2.5-4.41 1.02-6.67 1.15-.11 0-.2-.1-.2-.2 0-2.56-.58-5.06-.88-7.6-.14-.09-.24-.24-.29-.45-.29-1.36-.22-2.74-.36-4.11-.1-1.06-.41-2.16-1.17-2.94-1.19-1.24-3.15-1.06-4.77-1-.17 0-.32-.04-.43-.11-.71.74-1.37 1.53-1.92 2.4-.49.77-.89 1.59-1.21 2.44-.04.69-.09 1.39-.14 2.08.06 2.08-.09 4.17-.03 6.25.05 1.64.36 3.23.83 4.77.32.81.71 1.6 1.16 2.34zM86.27 92.35c-.39-.6-.76-1.22-1.12-1.84-.45-.76-.88-1.53-1.37-2.27-.28-.42-.56-.82-.83-1.24.38.84.8 1.66 1.24 2.47.46.84.94 1.68 1.45 2.5a.9.9 0 0 1 .48.2c.06.05.11.11.16.16z"/><path class="cls-6" d="m105.29 90.94-.84-4.36c-.01-.07-.06-.12-.12-.15a.18.18 0 0 0-.14-.04c-.43.06-.85.15-1.26.28-.11.04-.2.16-.17.28.22 1.64.53 3.27.93 4.88.08.3.54.17.47-.13v-.03l.85-.42s.09.01.13 0c.13-.04.19-.17.17-.3z"/><path class="cls-6" d="M104.04 91.55c.19-.1.37-.19.57-.28.09-.04.19-.09.28-.13.05-.02.09-.04.14-.06.02-.01.05-.02.07-.03.03-.01.03-.01 0 0 .01 0 .03-.01.04-.02.06-.03.11-.05.14-.11a.25.25 0 0 0 .02-.19c-.04-.11-.17-.22-.3-.17-.42.17-.82.36-1.22.58-.11.06-.16.22-.09.33.07.11.21.15.33.09z"/><path class="cls-14" d="M117.02 81.21H117h.02z"/><path d="M124.1 77.91a.463.463 0 0 0-.17-.24c-.03-.02-.06-.04-.1-.06.01-.03.02-.07.03-.11.03-.21-.02-.44-.18-.59-.19-.18-.44-.17-.68-.12-.52.1-1.03.28-1.5.52a.27.27 0 0 0-.08.07c-.67.15-1.32.36-1.95.63-.02 0-.03.02-.04.03l-.81.16c-.32.07-.65.15-.98.2-.31.04-.6-.08-.91-.08-.33 0-.66.08-.98.16-.06.02-.11.03-.17.05.06-.08.13-.16.19-.23.23-.3.45-.63.59-.99.57 0 1.15-.14 1.66-.39.28-.14.55-.35.71-.63.16-.28.19-.61.08-.91v-.02c0-.04-.03-.06-.05-.09a.226.226 0 0 0-.23-.08h-.02c-.72.1-1.48.05-2.18-.13h-.11c-.33 0-.64.14-.93.3s-.56.33-.84.48c-.58.3-1.18.56-1.8.76-.03.01-.06.03-.09.05-.3.14-.55.37-.78.61-.26.28-.51.57-.77.85-.51.56-1.04 1.11-1.49 1.71-.2.27-.38.55-.52.85-.4.11-.81.19-1.23.27-.58.11-1.16.21-1.74.31-.33.06-.66.11-.98.17-.13.02-.2.18-.17.3.04.14.17.19.3.17 1.13-.19 2.26-.37 3.38-.61l.5-.12h.02c.14.04.25-.05.3-.17h0c.25-.6.69-1.11 1.12-1.59.5-.56 1.01-1.12 1.51-1.68.24-.27.49-.52.82-.68h.01c.6-.2 1.18-.45 1.75-.73.28-.14.56-.3.84-.46.24-.14.5-.3.79-.3h.02c.71.18 1.44.22 2.17.15.01.16-.05.32-.14.45-.15.2-.38.32-.6.42-.53.23-1.12.31-1.7.26-.13-.01-.24.12-.24.24 0 .1.06.17.14.21-.04.08-.08.16-.14.26-.11.18-.22.35-.34.51l-.03.03c-.02.02-.03.04-.05.06a.7.7 0 0 0-.08.1c-.05.06-.11.12-.17.18l-.15.15s0 0 0 0c-.18-.03-.37-.04-.56-.02a.22.22 0 0 0-.17.07c-.04.04-.07.11-.07.17s.02.13.07.17c.04.04.11.08.17.07h0c.06 0 .13-.01.19-.01v.11c.03.12.18.22.3.17.3-.12.61-.22.93-.31s.61-.17.92-.18.62.12.94.08c.34-.04.67-.12 1-.19l1.12-.23c.06-.01.11-.05.14-.1.61-.24 1.24-.43 1.88-.56.08-.02.14-.08.16-.16.3-.14.61-.25.94-.33.09-.02.19-.05.28-.06.06-.01.13-.02.18 0 .01 0 .03.03.02.01.03.04.02.03.03.06.01.04.01.09-.01.16-.06.14-.19.25-.3.35-.15.14-.31.28-.47.41-.31.26-.62.52-.95.77-.35.26-.7.52-1.06.76h-.03l-2.81.95s-.02 0-.02.01c-.07 0-.15 0-.19.07-.05.07-.11.13-.18.19-.02.01-.03.03-.05.04 0 0 0 0 0 0s0 0 0 0l-.11.08c-.04.02-.07.04-.11.06-.02 0-.04.02-.06.03h.01-.01s0 0 0 0c-.01 0-.03.01-.02 0-.08.03-.17.06-.26.07-.12.03-.21.18-.17.3.04.13.16.2.3.17h0c.36-.07.71-.27.96-.56h.05l2.68-.9c.06.01.12 0 .17-.03h0c.8-.53 1.57-1.12 2.29-1.75.17-.15.35-.3.51-.46l.01-.01.05.02h.04s0 0 0 0c-.02 0-.03.02-.04.04-.83.98-1.73 1.9-2.68 2.77-.02 0-.04.01-.06.02-.91.48-1.83.93-2.76 1.35-.06 0-.12.02-.17.07l-.62.56c-.09.09-.09.26 0 .34.1.09.24.09.34 0l.56-.5s.05-.01.07-.02c.72-.32 1.42-.66 2.12-1.02-.13.16-.26.31-.39.45-.04 0-.09.03-.13.06-.91.73-1.92 1.34-2.98 1.83-.02 0-.04 0-.06.01-1.54.57-3.13 1.02-4.74 1.35-.45.09-.91.17-1.37.25h-.03c-1.47.4-2.92.88-4.37 1.35-.12.04-.21.17-.17.3.03.12.17.21.3.17 1.46-.48 2.92-.96 4.4-1.36 0 0 0 0 0 0 1.62-.26 3.23-.64 4.79-1.14.38-.12.75-.25 1.12-.38.05 0 .1 0 .14-.03 1.11-.49 2.16-1.12 3.12-1.87.07 0 .14-.02.19-.07h0c.42-.45.81-.94 1.15-1.46.01-.02.02-.04.03-.07.85-.79 1.66-1.62 2.42-2.5h.04c.06-.02.12-.05.14-.11h0c.03-.08.07-.16.09-.24.01-.05.02-.1.02-.16 0-.05 0-.1-.02-.15z" style="fill:#5b3d5b;stroke-linejoin:round;stroke-width:.3px;stroke-linecap:round;stroke:#5b3d5b"/><path class="cls-16" d="M82.38 68.37s-.09-.03-.08.02l.1.06v-.07zM82.13 68.6c.04.06.11.14.22.13-.09-.07-.04-.08-.15-.16 0-.05.05-.06.09-.05-.02-.02.04-.06-.02-.1-.09.03-.11.1-.06.19-.03 0-.05-.01-.07-.02zM81.22 72.73l.02-.03s-.01.02-.02.03zM81 75.35s-.01-.03-.02-.03c0 .02.01.03.02.03zM80.88 75.8v-.03s-.02.02 0 .03zM81.22 72.73l-.04.07s.03-.03.04-.07zM82.24 69.22s0-.03-.02-.04v.04h.02zM81.28 71.57v-.02s-.02-.02-.04-.02l.04.05zM81.41 70.69l.12.06c-.03-.02-.05-.04-.05-.05h-.06zM81.84 69.33v-.03.03zM81.18 72.2h-.03.03zM88.93 94.48v.01s.01 0 0-.01zM89.61 95.33h-.01s-.02.03-.02.04l.04-.04zM80.77 76.63c-.01-.02 0 0 0 0zM81.91 84.13c.06-.1.14.11.19-.04-.03.02-.17-.08-.19.04zM82.23 69.24v.04-.04zM82.1 84.08v-.02.02zM80.93 78.53s.03-.01.04-.02c0 0-.02 0-.04.02zM80.97 77.11v.04-.04zM81.12 79.25s-.02.03 0 .05h.01c-.01 0-.02-.02 0-.04zM81.21 80.01l.02-.02v-.02l-.02.04zM87.21 93.12s-.02.06-.04.08c.04-.05.13.01.04-.08zM82.19 69.21s.03.02.03.03v-.03h-.03zM81.83 79.21v.12-.12zM84.35 88.66l.02.02s0-.02-.02-.02zM81.89 79.68s-.04.05-.05.07c0 0 .01 0 .03.01l.03-.08zM85.74 92.35h.01v-.03h-.03l.01.02zM81.24 72.7h.01-.01zM84.5 88.86l-.02.01.03.01-.01-.02zM81.71 71.51s.02 0 .03-.01c0 0-.02 0-.03.01zM81.81 70.99l.05-.07s-.04.05-.05.07zM81.93 70.59s-.03-.01-.04-.01h.04zM81.58 77.06v.02c.02.04.01.01 0-.02zM81.35 75.13s.03.04.04.06c0-.03.01-.06-.04-.06zM81.83 79.19zM81.39 75.28s.01-.06 0-.09c0 .03-.02.06 0 .09zM82.33 68.87v-.02.02zM82.33 68.85v-.02.02zM82.31 68.77v.05s.02-.03 0-.05zM82.17 69.39h.03-.03zM82.14 69.55s.09-.08.08-.14h-.02s-.1.09-.06.14zM81.61 70.14l.05-.13s-.09.04-.09-.02c-.14.15.08-.02.04.16zM81.48 70.56c0-.08-.05 0-.07-.02.02.05.03.07.07.02zM81.08 73.67H81s.03-.01.08 0zM81.47 74.29l.06-.05-.08-.03.02.08zM80.87 74.61l-.01-.02.02.09-.01-.07zM81.11 79.89l.1-.03s-.14-.03-.1.03zM81.57 82.12s-.06.1 0 .13c0-.05.02-.11 0-.13zM83.5 88.67l-.05-.03.07.07-.02-.04zM88.81 94.56s-.05.04-.03.06l.07-.04-.05-.02zM88.83 94.8c.05 0 .12-.03.16-.1-.08.04-.06 0-.15.05-.03-.01-.02-.05 0-.07-.02 0-.02-.04-.07-.02-.02.07.02.11.08.1 0 .02-.03.03-.04.04zM91.53 95.58h-.02.02zM93.31 95.37s-.02.01-.02.02c.01 0 .02-.01.02-.02zM93.62 95.4h-.02.02zM91.53 95.58l.05.02s-.03-.02-.05-.02zM89.25 94.88h-.03.02zM90.74 95.67h-.01s0 .02-.01.03l.03-.03zM90.11 95.62s.03-.06.04-.09c-.01.03-.03.04-.04.04v.05zM89.22 95.18h-.02.02zM91.18 95.68v.02-.02zM106.78 89.86v.01-.01zM107.55 89.79s.01.03.02.04v-.04h-.01zM94.19 95.38c-.01.01 0 0 0 0zM99.12 94.01c-.07-.04.06-.1-.04-.14.02.02-.04.13.04.14zM89.26 94.89s.01 0 .02.01c0 0-.01-.01-.02-.01zM99.08 93.87h-.01.01zM95.43 95.07s-.01-.02-.02-.03c0 0 0 .01.02.03zM94.48 95.18h.03-.03zM95.9 94.86s.02.01.04 0c0 .01-.01.02-.03 0zM96.4 94.73l-.01-.01h-.01l.03.01zM105.45 90.65s.04.03.05.04c-.03-.04.03-.09-.05-.04zM89.23 94.91s.02-.02.03-.02h-.02l-.01.02zM95.79 94.33h.08-.08zM102.16 92.25v-.02.02zM96.1 94.25s.04.03.06.03v-.02h-.06zM104.75 91.56h-.02v.02h.01zM91.51 95.57zM102.3 92.15l.01.02v-.02h-.01zM90.67 95.36v-.02.02zM90.32 95.31l-.05-.03s.03.03.05.03zM90.06 95.23s0 .02-.01.03v-.03h.01zM94.37 94.74c.02-.02 0 0 0 0zM93.1 95.14s.02-.03.04-.04c-.02 0-.04 0-.04.04zM93.2 95.09h-.06.06zM89.07 94.74h.02zM89.05 94.74h-.02.02zM89.01 94.73h.03s-.02-.01-.03 0zM89.33 94.96l.02-.02-.02.02zM89.43 95s-.03-.08-.07-.08v.02s.03.09.07.06zM89.74 95.46l-.09-.05s.02.07-.03.06c.1.11 0-.06.11-.01zM90.02 95.57c-.05 0 0 .04-.01.05.04-.02.05-.02.01-.05zM92.18 95.55v.06-.06zM92.53 95.17l-.04-.03-.01.06.05-.03zM92.84 95.57l-.02.01.06-.04-.04.03zM96.32 94.81l-.03-.07s0 .1.03.07zM97.78 94.32s.08.04.09 0c-.03 0-.08-.01-.09 0zM102.17 92.88l-.02.04.05-.05-.03.01zM101.1 80.6s.07 0 .1-.02c.03 0 .06-.02.09-.03-.03 0-.06-.02-.09-.01-.07.01-.14.03-.21.05-.02 0-.03.02-.05.02h.06c.03 0 .07 0 .1-.01zM99.14 80.88s.09-.01.14-.02c0 0 .02 0 .02-.01 0 0-.02-.01-.03-.01-.05 0-.09.01-.17.02-.02 0-.07.01-.12.03.03.03.11 0 .16 0zM96.47 81.73h.11c.02-.01.05-.02.08-.03h-.09c-.03 0-.06.02-.09.03zM92.88 80.91c.12 0 .31-1.22.17-3.21-.07-.99-.24-2.17-.55-3.46-.31-1.28-.77-2.67-1.41-4.06-.63-1.38-1.38-2.7-2.41-3.65-.51-.47-1.09-.84-1.69-1.06-.61-.23-1.21-.26-1.74-.21-.53.05-1 .21-1.37.41-.37.2-.65.46-.83.69-.36.48-.38.82-.33.84.07.03.22-.25.6-.58.2-.16.45-.34.79-.47.33-.13.74-.22 1.18-.22.45 0 .94.06 1.41.27.47.2.95.53 1.37.96.86.85 1.54 2.07 2.15 3.41.61 1.34 1.08 2.66 1.43 3.89.35 1.23.57 2.36.73 3.32.31 1.91.36 3.13.5 3.13zM124.64 74.58c-.08-.11-.96.38-1.98 1.08-1.02.71-1.78 1.37-1.7 1.47.08.11.96-.38 1.98-1.08s1.78-1.37 1.7-1.47zM127.63 74.76c.01-.13-.64-.3-1.45-.38s-1.49-.03-1.5.1c-.01.13.64.3 1.45.38.81.08 1.49.03 1.5-.1z"/><path class="cls-16" d="M89.12 95.54s-.2-.4-.67-1c-.12-.15-.25-.31-.4-.49-.14-.18-.28-.39-.44-.61-.31-.44-.7-.92-1.05-1.51-.18-.29-.38-.59-.58-.9-.2-.31-.37-.66-.57-1-.19-.35-.41-.7-.58-1.09-.18-.38-.37-.78-.57-1.18-.72-1.64-1.38-3.5-1.86-5.51-.46-2.02-.68-3.98-.76-5.77 0-.45-.01-.88-.02-1.31-.02-.43.03-.84.04-1.23.03-.4.03-.78.07-1.15.04-.37.08-.72.12-1.06.05-.68.19-1.28.27-1.82.05-.27.08-.52.13-.75.05-.23.1-.43.14-.62.16-.75.22-1.18.16-1.2s-.24.37-.52 1.1c-.07.18-.14.39-.22.61-.07.23-.13.47-.21.74-.14.54-.32 1.14-.42 1.83-.06.34-.12.7-.19 1.08-.06.38-.08.77-.13 1.18-.03.41-.1.83-.09 1.27 0 .44-.02.89-.03 1.35.03 1.85.24 3.88.71 5.96.5 2.08 1.21 3.99 2 5.66.21.41.42.81.62 1.2.19.39.43.75.64 1.1.22.35.41.69.63 1 .22.31.44.6.64.89.39.57.83 1.04 1.19 1.46.18.21.35.4.51.57.17.16.33.31.47.45.57.53.9.8.95.75zM107.51 89.78c-.1-.11-.98.54-2.5 1.42-.19.11-.39.22-.6.34-.21.11-.43.23-.66.34-.45.25-.95.47-1.47.72-1.06.47-2.24.93-3.51 1.34-1.27.4-2.51.7-3.64.93-.57.1-1.11.22-1.62.29-.26.04-.5.08-.74.11s-.47.06-.68.09c-1.75.21-2.85.28-2.85.42 0 .12 1.1.3 2.9.25.22 0 .46-.02.71-.03.25-.01.5-.04.76-.06.53-.04 1.09-.12 1.68-.21 1.18-.19 2.46-.48 3.78-.89 1.31-.42 2.53-.93 3.6-1.46.53-.28 1.03-.54 1.48-.82.23-.14.45-.27.65-.4.2-.14.4-.28.58-.41 1.47-1.06 2.21-1.9 2.13-1.99z"/><path class="cls-16" d="M86.7 85.81c.12.1.82-.68 2.26-1.47.71-.4 1.62-.77 2.66-1.08 1.04-.31 2.22-.55 3.47-.74 1.26-.18 2.48-.32 3.59-.5 1.11-.17 2.11-.37 2.94-.61 1.66-.47 2.58-1.04 2.53-1.15-.06-.13-1.04.21-2.68.49-.82.15-1.8.27-2.9.39-1.1.12-2.33.24-3.61.42-1.29.19-2.52.47-3.6.85s-2.02.85-2.74 1.35c-.72.5-1.23.99-1.53 1.38-.3.38-.42.63-.37.67z"/><circle class="cls-14" cx="125.98" cy="98.03" r=".54"/><path d="M125.89 98.03c.09 0 2.64 2.87 2.64 2.87" style="stroke:#5b3d5b;stroke-miterlimit:10;fill:none"/><path class="cls-14" d="M78.73 51.91c0 1.3 2.15 4.21 3.97 2.72.9-.73 1.82-1.84 1.82-3.14 0-.61.74-2.45.44-3.1-.34-.73-1.78-.23-2.39-.23-.65 0-.28 2.47-1.3 3.4-.8.73-2.54-.22-2.54.35z"/></g></svg>