<svg xmlns="http://www.w3.org/2000/svg" viewBox="0 0 200 200"><defs><style>.cls-3{fill:#e87003}.cls-4{fill:#eed7d3}.cls-5{fill:#fff}.cls-7{fill:#ff8000}.cls-8{fill:#c1dade}.cls-12{fill:#70486d}.cls-13{fill:#5b3d5b}.cls-15{fill:#78577a}</style></defs><path id="BG_Strong" d="M143.7 114.9C167.44 72.25 168.41-5.21 99.45 14.72c-24.57.29-57.08-26.03-76.98 1.79-22.93 44.6 6.45 89.1 19.07 131.19 1.38 15.17-8.66 36.34 11.16 43.29 134.67 31.91 65.14-36.96 91-76.1Z" style="fill:#575655"/><g id="Illustrations"><g id="Layer_11"><path d="M85.28 31.45c-.01-.55-.04-1.1-.06-1.66.04-.71.08-1.41.03-2.12-.07-1.15-.39-2.33-1.09-3.27-.79-1.08-1.93-1.68-3.24-1.86-1.55-.21-3.15-.11-4.71-.12-6.56-.04-13.11-.07-19.67-.11-6.57-.04-13.14-.09-19.71-.11-6.5-.02-13.01.06-19.48.76-2.36.25-5.33.68-6.63 2.95-.69 1.2-.74 2.66-.81 4.02l-.03.82c-.01.06-.03.11-.03.18v11.22c0 .9-.01 1.79 0 2.69.01.71.06 1.44.32 2.11.57 1.5 1.95 2.17 3.46 2.36 1.64.21 3.35.09 5 .08 1.87-.01 3.75-.03 5.62-.04a2384.407 2384.407 0 0 0 44.73-.8c1.87-.05 3.74-.1 5.62-.16 1.79-.05 3.63 0 5.4-.24 1.5-.21 2.81-.88 3.64-2.18.72-1.11.97-2.45 1.13-3.74.44-3.57.58-7.19.49-10.78Z" class="cls-7"/><path d="M58.61 31c-3.86 0-7.72.02-11.57.06-1.06 0-2.13.02-3.19.03-.66 0-1.3.58-1.27 1.27s.56 1.28 1.27 1.27c3.81-.04 7.62-.07 11.43-.08h3.34c.66 0 1.3-.58 1.27-1.27-.03-.69-.56-1.27-1.27-1.27ZM58.61 37.84c-4.83 0-9.66.04-14.49.08-4.83.05-9.46.1-14.19.13-2.76.02-5.51.03-8.27.03-.66 0-1.3.58-1.27 1.27.03.69.56 1.27 1.27 1.27 4.83 0 9.66-.04 14.49-.08 4.73-.04 9.46-.1 14.19-.13 2.76-.02 5.51-.03 8.27-.03.66 0 1.3-.58 1.27-1.27s-.56-1.27-1.27-1.27Z" class="cls-3"/><circle cx="72.53" cy="35.42" r="7.9" class="cls-5"/><path d="M76.38 34.83c-.03-.06-.36-.69-.99-1.48s-.03-.04-.03-.07c-.07-.82-.19-1.36-.19-1.36a.224.224 0 0 0-.19-.17l-.65-.08h-.02c-.08 0-.14.06-.14.14v.23c-.39-.35-.83-.7-1.32-1-.09-.06-.2-.1-.32-.1s-.23.04-.32.1c-2.26 1.39-3.5 3.66-3.55 3.79s-.02.06-.02.1c0 .1.07.19.17.22l.65.12c.09.02.15.1.16.19 0 .11.13 2.68.28 3.35.03.1.11.17.22.17.38 0 .73-.01 1.1-.02h.03s.07-.03.07-.07c-.01-.23-.05-.74-.07-1.28v-.04s-.03-.09-.07-.11a.72.72 0 0 1-.34-.57c-.03-.9-.05-1.94 0-2.75 0-.07.06-.12.13-.12s.13.06.13.13c-.03.55-.04 1.19-.02 1.83 0 .08.07.15.16.15.08 0 .15-.07.15-.16-.01-.64 0-1.28.03-1.83 0-.07.06-.12.13-.12s.13.06.13.13c-.03.55-.04 1.19-.02 1.82 0 .08.07.15.16.15.08 0 .15-.07.15-.16-.01-.63 0-1.28.03-1.82 0-.07.06-.12.13-.12s.13.06.13.13c-.05.8-.03 1.8 0 2.68v.02c0 .25-.12.46-.3.59-.03.02-.06.06-.06.1 0 0-.02.14.04.79l.06.57s.03.06.07.06h1.36s.06-.02.07-.06c.08-.78.11-1.22.11-1.22 0-.04-.03-.07-.07-.08l-.45-.06c-.07-.01-.11-.06-.13-.11v-.07c.18-2.61 1.04-3.49 1.04-3.49l.04-.04c.02-.02.05-.03.08-.03.06 0 .11.04.13.09 0 0 0 .02.01.06.07.82.04 2.22 0 3.31-.04.92-.09 1.65-.09 1.65s.02.06.05.06c.24 0 .48 0 .74.01.1 0 .19-.07.22-.17.15-.66.28-3.23.28-3.35.01-.09.08-.17.16-.19l.65-.12c.1-.03.17-.11.17-.22 0-.03 0-.07-.02-.1Z" class="cls-7"/><path d="M42.48 10.46s0-.02-.01-.03c-.15-.36-.32-.72-.49-1.08-1.26-2.54-3.25-4.79-5.77-6.06-1.21-.75-2.52-1.33-3.88-1.72-3.31-.95-6.87-.62-10.12.44-1.68.55-3.37 1.26-4.83 2.27-1.43.99-2.55 2.3-3.45 3.79-.26.44-.52.89-.75 1.35-1.86 3.07-2.38 6.91-1.89 10.42.53 3.78 2.36 7.3 5.05 9.99 2.73 2.74 6.49 4.95 10.45 4.9.74 0 1.48-.08 2.21-.19l6.03 5.98s.02.01.03.02c.11.12.27.21.46.21.33 0 .65-.29.63-.63-.11-2.62-.15-5.25-.11-7.88.83-.44 1.62-.95 2.36-1.55 2.84-2.29 4.74-5.7 5.39-9.27.66-3.67.15-7.53-1.31-10.96Z" style="fill:#fcb9c4"/></g><path id="Layer_13" d="M36.15 40.12c-.11-2.62-.15-5.25-.11-7.88.83-.44 1.62-.95 2.36-1.55 2.63-2.11 4.44-5.18 5.21-8.45l-6.78-.03c-6.5-.02-13.01.06-19.48.76-1.57.17-3.4.41-4.84 1.23.9 2.1 2.21 4.02 3.83 5.64 2.73 2.74 6.49 4.95 10.45 4.9.74 0 1.48-.08 2.21-.19l6.03 5.98s.02.01.03.02c.11.12.27.21.46.21.33 0 .65-.29.63-.63Z" style="fill:#f2a6b0"/><path id="Layer_12" d="M35.25 21.42a.546.546 0 0 0-.39-.33c-.65-.39-1.09-1.02-1.28-1.77-.23-.91-.14-1.86-.18-2.79-.04-1-.23-1.9-.7-2.79-.22-.41-.47-.8-.76-1.16-.3-.37-.71-.66-1.13-.89-.8-.46-1.71-.71-2.64-.76.02-.5.03-1.01.05-1.51.01-.33-.3-.65-.63-.63a.64.64 0 0 0-.63.63c-.02.51-.03 1.01-.05 1.52-.76.06-1.5.26-2.18.59-.43.21-.87.48-1.21.81-.33.32-.59.72-.82 1.12-.23.4-.45.81-.59 1.25-.15.47-.22.97-.25 1.47-.06.93.04 1.88-.12 2.8-.16.9-.61 1.67-1.39 2.13-.68.13-.63 1.26.14 1.26h4.27c-.03 1.19.52 2.42 1.66 2.93 1.32.59 3.02.21 3.71-1.14.29-.56.4-1.18.43-1.8h4.02c.26.06.55-.04.69-.29.11-.19.11-.43 0-.63Z" class="cls-5"/><g id="Layer_7"><path d="M110.33 53.96c.13-.35 1.7-4.9 1.68-6.4s-.03-6.22 0-6.67 2.29-2.97 2.66-3.57c.37-.6 1.2-1.83.98-2.48s-1.38-3.21-.73-5.06c.65-1.85.82-2.24 1.82-3.15 1-.91 3-.75 3.84-.1s1.78 1.29 1.77 2.14c-.02.85 0 2.72 0 2.72l1.44.25s-.1-2.87.06-3.91c.15-1.04 1.57-4.65 1.67-5.36s-.28-2.62-.55-3.58-.61-2.85-.38-3.55c.23-.7 1.33-.86 1.33-.86l10.85 1.54 1.55.12s1.95 3.52 2.37 4.77 1.13 4.32 1.25 5.38.93 3.84 1.13 4.43 1.85 6 1.85 6l-3.45.32s-.96 5.64-1.13 6.46c-.17.82-.65 3.25-1.61 3.66s-3.46.97-3.89 1.03-2.13.46-2.13.46-1.75 3.88-1.98 4.58-1.17 3.44-1.17 3.44-5.94-.4-7.18-.55c-1.24-.15-10.33-1.59-10.33-1.59l-1.68-.47ZM162.55 72.95c.18-.4 1.97-4.52 1.97-4.52s.79-6.82 1.32-8.64c.53-1.83 1.89-6.29 2.67-7.22s1.89-2.88 3.41-3.44 3.52-1.74 4.25-2.24 1.63-1.34 2.16-.69.69 1.68.53 2.22c-.16.54-.29 1.18-.86 2-.57.82-1.67 2.33-1.67 2.33l-1.64 5.49-.09 5.08 1.57 3.39 3.58 1.25s1.27-2.78 1.24-3.1.77-.44.42-1.56c-.35-1.12-.25-1.79.09-2.8.33-1.02.82-1.51 1.2-1.96.38-.44.8-1.44.8-1.44s-1.71-.06-1.79-.81 1.01-4.6 1.01-4.6 1.6-2.9 2.24-3.24 1.95-.97 2.2-.58c.25.39 1.04 1.11.9 1.95-.15.84-.25 1.21-.46 1.67s-.43 1.65-.43 1.65 1.37.42 1.57.83.25 1.35.18 1.88c-.06.53-.35 1.31-.35 1.31l-.51.65s1.63.65 1.88 1.09.26 1.23.02 1.61-.86 1.09-.86 1.09l-.53.84s2.03.41 1.67 1.69c-.37 1.28-.93 2.05-.93 2.05l-2.94 1.75s-2.83 2.76-5.12 3.83-4.83 2.27-4.83 2.27l-1.57 6.08-10.04-5.85-2.26-1.29ZM85.55 120.64c.28-.35 2.98-4.23 4.07-5.46 1.08-1.23 3.24-4.39 3.24-4.39l4.34 3.19 4.01 3.35s6.08 1.98 6.48 2.13 2.95 1.15 3.8 1.97 3.81 3.31 3.81 3.31-1.3 1.13-2.08 1.1-1.92.24-2.54-.39c-.62-.62-1.52-1.3-2.26-1.44s-2.01-.15-2.01-.15 3.01 2.64 3.26 3.11c.25.47.63.99.08 1.53s-1.17.74-1.57.84-1.04.08-1.21.75-.17 2.4-.37 2.72-1.17.69-1.88.81-1.47.46-1.64 1.11-.04 2.16-.65 2.71c-.61.55-1.53.58-2.01.43s-1.75-.7-1.99.01-.24 1.8-.73 2.1-1.62.49-2.34.07-2.59-1.52-2.59-1.52-.52-2.75-.48-3.17-.32-1.97-.32-1.97l-.52-.49-.68 3.23s-1.65-2.41-1.88-3.47c-.22-1.06-.34-1.92-.02-2.2s1.41-.57 1.41-.57-.47-3.32-.67-3.68-1.08-3.93-1.08-3.93l-2.99-1.67Z" class="cls-4"/><path d="M92.86 110.8s-4.91 6.23-5.18 6.9c-.27.67-2.28 3.58-2.28 3.58l-1.35 1.25s-6.74-2.88-8.31-3.65c-1.57-.77-12.91-7.08-15.32-8.72-2.41-1.63-14.09-11.2-14.09-11.2s3.88-5.58 5.69-7.74c1.81-2.15 8.59-9.45 10.48-11.2 1.89-1.75 8.76-7.76 12.29-10.2 3.53-2.44 12.96-8.4 17.12-10.04 4.15-1.64 17.06-5.14 17.21-5.12s1.58-.6 1.58-.6 8.26 1.55 10.19 1.78 8.78.37 8.78.37l.23 1.06s2.18 1.31 3.59 2.52c1.4 1.21 6.43 6.01 8.84 10.37 2.41 4.36 5.41 11.14 6.36 13.24.96 2.1 3.38 6.57 3.38 6.57s3.45-8.58 3.65-8.72 4.55-9.47 4.55-9.47 6.97 3.73 8.99 4.93 7.65 4.49 7.65 4.49-3.2 10.74-3.49 12.66c-.29 1.93-5.17 13.49-6 15.28-.83 1.79-4.01 8.13-5 9.55-1 1.42-3.65 4.31-3.65 4.31s-7.92-2.91-11.98-6.6c-4.06-3.69-8.48-7.6-8.48-7.6s.56 15.75.4 19.63c-.16 3.88-1.07 14.33-1.07 14.33l-5.96.88s-1.7-5.37-2.97-6.49c-1.27-1.12-2.44-1.81-4.56-1.31-2.12.5-7.43 2.71-7.73 2.84s-1.78.74-1.78.74.35-3.64-.17-5-1.71-6.38-2.23-7.22c-.52-.85-.95-1.52-.73-1.48s1.56.33 2.45.04 1.37-.99 1.37-.99-2.03-1.49-3.04-2.56c-1.01-1.07-1.32-2.1-2.95-2.41-1.63-.32-4.52-1.81-4.99-1.79s-3.76-1.15-3.44-.9-5.43-4.54-5.43-4.54l-2.6-1.75Z" class="cls-15"/></g><g id="Layer_6"><path d="M186.53 28.74c-1.39 4.88-2.75 9.76-4.12 14.65-1.41 5.01-2.83 10.02-4.29 15.02-.81 2.78-1.64 5.55-2.49 8.32-.25.8 1 1.14 1.25.35 1.52-4.96 2.98-9.94 4.4-14.92 1.42-4.97 2.81-9.96 4.21-14.94.76-2.71 1.52-5.41 2.29-8.12.23-.8-1.02-1.15-1.25-.35Z" class="cls-7"/><path d="M191.9 29.32a.43.43 0 0 0-.22-.2c-.7-.31-1.41-.59-2.15-.77-.74-.18-1.51-.26-2.27-.29-.05 0-.09 0-.14.01a.596.596 0 0 0-.55.04 25.886 25.886 0 0 1-2.79 1.51c-.32.15-.63.28-.91.4-.07.03-.14.07-.2.11-.23.03-.44.16-.53.44-1.12 3.69-2.19 7.4-3.27 11.1-.39 1.33-.77 2.65-1.16 3.98-.17.6.48.94.91.74.14.29.3.62.36.79.12.34-.12 1.23-.44 2.22-.27.84-1.66 2.64-2.09 3.18-.33-.13-.76-.04-.89.4-.53 1.8-1.05 3.59-1.6 5.38-.15.48.24.79.63.79-.01.5 0 1.1 0 1.63v1.61a.66.66 0 0 0-.32.08c-.32.21-.37.55-.23.88l1.57 3.66s.02.02.02.04c.06.21.22.36.44.46 1.13.46 2.3.81 3.5 1.05.14.03.28.01.41-.04.24-.04.43-.21.51-.46.49-1.41.88-2.86 1.36-4.27.11-.31-.11-.7-.43-.79-.06-.42-.4-1.08-.44-1.6-.05-.66.41-1.32.92-2.06s1.6-2.26 1.6-2.26-1.32-.13-1.8-.52.01-1.73.32-2.86c.3-1.13 1.75-3.89 2.32-4.64.34-.45.98-.89 1.45-1.18.26.4 1.01.44 1.19-.16 1.38-4.66 2.72-9.33 4.04-14 .36-1.26.71-2.52 1.06-3.78a.585.585 0 0 0-.18-.63Z" class="cls-7"/><path d="M177.51 81.05a.614.614 0 0 0-.3-.42c-4.27-2.55-8.62-4.95-12.96-7.36-1.23-.68-2.45-1.37-3.67-2.05-.04-.02-.08-.04-.12-.05a.589.589 0 0 0-.32-.02c-.19.03-.36.13-.44.3-1.45 3.04-2.87 6.09-4.26 9.16-.14.32-.09.7.23.88.28.16.74.09.88-.23 0-.01 0-.02.01-.03l6.47 3.28 10.62 5.99c-.03.11-.07.22-.1.34-.24.8 1.01 1.14 1.25.35.98-3.25 1.9-6.51 2.7-9.81.03-.11.02-.22 0-.31Z" class="cls-8"/><path d="M152.13 89.22c-.58-1.17-1.15-2.35-1.71-3.53-.15-.31-.61-.41-.88-.23-.32.2-.39.56-.23.88.56 1.18 1.13 2.36 1.71 3.53.15.3.61.41.88.23.31-.2.39-.56.23-.88Z" class="cls-15"/><path d="M131.1 58.84c3.58 2.53 6.64 5.81 9.15 9.38 2.47 3.51 4.33 7.35 6.02 11.28.99 2.29 1.96 4.59 3.03 6.84.15.32.6.4.88.23.32-.19.38-.57.23-.88-1.86-3.92-3.39-8-5.34-11.87-2.03-4.02-4.55-7.79-7.63-11.08-1.73-1.85-3.63-3.55-5.7-5.01-.29-.2-.72-.05-.88.23-.19.32-.05.68.23.88ZM136.33 78.93a80.883 80.883 0 0 1-.14 16.38c-.04.35.32.65.65.65.38 0 .61-.3.65-.65.46-4.23.59-8.49.39-12.74-.06-1.22-.14-2.44-.26-3.65-.03-.35-.28-.65-.65-.65-.33 0-.68.3-.65.65ZM109.95 53.89c-3.81.7-7.6 1.55-11.31 2.7-3.7 1.15-7.33 2.61-10.79 4.38a73.561 73.561 0 0 0-6.16 3.52c-.29.19-.41.58-.23.88s.59.42.88.23c3.41-2.16 6.97-4.07 10.7-5.62 3.49-1.45 7.11-2.58 10.78-3.48 2.14-.52 4.3-.97 6.47-1.37.34-.06.54-.48.45-.8-.1-.36-.45-.51-.8-.45ZM81.73 96.58c-.11.7-.23 1.4-.34 2.1-.03.18-.03.34.07.5.08.13.23.26.39.3.17.04.35.03.5-.07.13-.08.27-.22.3-.39.11-.7.23-1.4.34-2.1.03-.18.03-.34-.07-.5a.694.694 0 0 0-.39-.3.627.627 0 0 0-.5.07c-.13.09-.27.22-.3.39Z" class="cls-15"/><path d="M95.56 85.17c-4.01 3.07-7.91 6.29-11.89 9.41-1.13.88-2.26 1.76-3.41 2.62-.28.21-.42.56-.23.88.16.28.6.44.88.23 4.1-3.08 8.06-6.33 12.07-9.51 1.07-.85 2.14-1.69 3.22-2.52.28-.21.42-.56.23-.88-.16-.27-.61-.45-.88-.23ZM91.19 141.64c-.07 0-.14-.02-.2-.03-.04-.88-.12-2.45-.16-3.28-.05-1.19-.24-2.33-.38-2.66-.14-.33-1.02-1.79-1.32-2.53-.3-.74-.67-2.42-.25-2.65.42-.23 1.41-.57 1.41-.57s-1.47-6.52-1.49-6.62-1.38-1.66-1.38-1.66l-1.44-.89-1.92 1.77-4.36-1.54c.03-.35-.32-.64-.65-.64-.38 0-.61.3-.65.65-.52 5-.93 10.01-1.13 15.03-.06 1.33-.09 2.67-.12 4 0 .22.08.38.22.48.07.07.16.12.26.14 4.39.88 8.8 1.64 13.23 2.25.35.05.69-.08.8-.45.08-.3-.1-.75-.45-.8ZM113.23 139.67s-.11-1.1-.18-1.77c-.07-.67-.9-5.09-1.56-6.39-.65-1.3-1.74-4-1.74-4s0 1.02-.93 1.64c-.93.63-1.4.41-1.85.97-.45.56-.33 1.21-.21 1.9s-.16.82-1.19 1.41-1.69.36-1.98.77c-.29.41-.76 1.38-1.05 2.42s-.7 1.39-1.71 1.42-2.08-.43-2.38-.12-.6 1.76-.73 2.1-1.59.3-1.81.31-3.12-1.76-3.12-1.76-.31 1-.13 1.45c.13.32.22 1.3.4 1.96-.22.11-.37.36-.37.59 0 .39.3.6.65.65 3.79.47 7.59.83 11.41 1.06.35.02.65-.31.65-.65 0-.09-.02-.16-.05-.24l7.91-3.73ZM137.64 142.23c-1.89.2-3.79.38-5.69.53-.35.03-.65.28-.65.65 0 .33.3.68.65.65 1.9-.15 3.8-.32 5.69-.53.35-.04.65-.27.65-.65 0-.32-.3-.68-.65-.65Z" class="cls-15"/><path d="M132.05 58.1a.685.685 0 0 0-.3-.39c-.51-.35-1.02-.69-1.55-1.01-.02 0-.03-.02-.05-.02 0-.04.01-.07.01-.11 0-.36-.3-.63-.65-.65-5.31-.2-10.6-.86-15.8-1.99-.74-.16-1.47-.33-2.2-.51-.32-.08-.63-.15-.96-.05-.42.13-.69.55-.56.99.02.07.05.12.09.17l-.71 1.73c-.18-.1-.4-.11-.61.01-.28.16-.44.6-.23.88 2.37 3.22 4.87 6.39 7.68 9.23.76.77 1.55 1.51 2.38 2.22.2.17.48.23.71.14.27-.01.51-.2.6-.47l1.28-3.61c1.16.35 2.41.41 3.6.19.19 1.23.35 2.47.46 3.71-.05.26.08.56.31.69.32.19.69.06.88-.23 2.12-3.1 3.85-6.45 5.17-9.96.02-.06.03-.12.03-.18.14-.05.28-.15.34-.28a.67.67 0 0 0 .07-.5Z" class="cls-8"/><path d="M141.31 39.16a.655.655 0 0 0-.65-.65h-.29c-.05 0-.1 0-.14-.01h-.05c-.18-.03-.36-.07-.55-.12l-.27-.09c-.04-.02-.09-.03-.14-.05 0 0-.01 0-.03-.01a4.97 4.97 0 0 1-.51-.27c-.08-.05-.16-.1-.24-.16a.55.55 0 0 1-.09-.07c.11.08-.04-.03-.05-.04-.14-.12-.27-.24-.4-.37a2 2 0 0 1-.19-.22c-.01-.02-.03-.04-.04-.05a.55.55 0 0 0-.07-.09c-.11-.17-.22-.34-.31-.52-.15-.3-.61-.41-.88-.23-.05.03-.08.06-.12.1-.16.12-.27.29-.25.5.1 1.13.51 2.19 1.2 3.09.69.9 1.86 2 3.06 1.6.32-.11.56-.45.45-.8a.692.692 0 0 0-.1-.19c.04-.02.08-.04.11-.06.24-.16.38-.48.29-.76.14-.12.24-.3.23-.49Z" style="fill:#b7957e"/><path d="M135.81 27.57v.16c0 .1.02.19.06.27.03.09.08.16.15.23.06.07.14.12.23.15.08.04.17.06.27.06l.19-.03c.12-.03.22-.09.31-.18l.11-.14c.06-.11.1-.23.1-.35v-.16c0-.1-.02-.19-.06-.27a.574.574 0 0 0-.15-.23.513.513 0 0 0-.23-.15.595.595 0 0 0-.27-.06l-.19.03c-.12.03-.22.09-.31.18l-.11.14c-.06.11-.1.23-.1.35ZM173.96 68.07c.86-1.77 1.17-3.76 1.27-5.7s-.04-3.86-.42-5.74c-.12-.59-.27-1.17-.48-1.74 1.6-1.14 3.14-2.4 4.19-4.08.55-.89.99-1.91 1.1-2.95.11-1.13-.49-2.36-1.72-2.47-.66-.06-1.19.36-1.7.71l-1.69 1.15s-.06.02-.09.04c-1.22.65-2.4 1.39-3.52 2.2-1.03.74-2.12 1.58-2.86 2.64-.03.04-.06.07-.08.12s0 .02-.01.03c-.03.05-.07.1-.1.15-.05.09-.08.18-.09.26a41.535 41.535 0 0 0-3.87 15.62c-.94 2.18-1.89 4.36-2.87 6.53-.14.32-.09.7.23.88.28.16.74.09.88-.23 1.01-2.23 1.99-4.47 2.95-6.71 0-.02.01-.03.02-.05.04-.08.07-.18.07-.28.19-4.21 1.05-8.37 2.52-12.31.41-1.1.87-2.17 1.38-3.23 0-.01 0-.02.01-.03.09-.14.16-.22.31-.39.21-.23.43-.45.65-.66.53-.49 1.05-.89 1.62-1.3 1.06-.76 2.18-1.45 3.33-2.07.05-.01.1-.03.14-.06s1.31-.89 1.31-.89l.61-.41c.18-.12.36-.28.57-.36.21-.09.4 0 .54.2.22.3.21.72.14 1.06-.32 1.67-1.4 3.09-2.63 4.22-.77.71-1.61 1.32-2.47 1.92l-.02.02c-.15.1-.24.23-.27.38-.04.15-.03.32.06.47v.01s.11.26.04.07c.03.06.05.12.07.18.06.15.11.3.16.45.11.34.19.69.27 1.04.19.86.28 1.52.35 2.35.08.95.11 1.91.08 2.86s-.11 1.83-.27 2.71c-.09.51-.21 1.01-.36 1.51-.07.23-.15.47-.24.7-.07.19-.12.31-.24.55-.15.31-.08.7.23.88.28.17.73.08.88-.23ZM189.58 59.61v-.04s0 .02.01.06Z" class="cls-13"/><path d="M191.01 63.9c-.02-.35-.11-.69-.3-.98-.26-.42-.65-.74-1.09-.94.77-.81 1.64-1.97 1.08-3.1-.25-.5-.69-.9-1.14-1.22-.14-.1-.29-.19-.46-.27.08-.14.15-.28.22-.42.47-1.03.62-2.31-.02-3.31-.34-.54-.9-.94-1.5-1.08.42-.79.8-1.62.9-2.51.1-.91-.24-1.87-1.01-2.4s-1.79-.43-2.58-.03c-.89.45-1.5 1.32-2.04 2.13-.53.8-.94 1.63-1.23 2.53 0 .01 0 .02-.01.03-.26.9-.63 1.76-.76 2.7-.13.94 0 2.04.91 2.57.19.11.38.17.56.19-.11.15-.25.3-.4.46-.46.48-.93.94-1.26 1.52-.6 1.05-.68 2.35-.11 3.39-.3.58-.1 1.26.35 1.73.31.32.67.54 1.06.67-.09.34-.11.7-.09 1.03.03.38.1.76.33 1.07.28.36.66.6 1.09.76.37.14.76.17 1.15.15-.65.47-1.33.93-2.02 1.37a48.998 48.998 0 0 1-4.94 2.8c-.87.43-1.64.77-2.53 1.09-.33.12-.55.44-.45.8.08.3.43.55.75.46-.57 2.21-1.12 4.42-1.67 6.63-.2.81 1.05 1.15 1.25.35.63-2.53 1.25-5.05 1.91-7.56 1.19-.52 2.36-1.11 3.49-1.74 1.7-.95 3.35-1.98 4.93-3.13.81-.59 1.6-1.21 2.35-1.88.05-.05.09-.1.12-.16.28-.12.56-.26.83-.4.82-.45 1.55-1.06 2.06-1.85.08-.08.15-.17.17-.29.06-.37.14-.75.12-1.13Zm-1.29-.03v.03c-.01-.05-.01-.14 0-.03Zm.01.06v-.02.02Zm-.04-.18v-.03c0 .01.01.02 0 .03Zm-1.24-5.23s-.07-.03 0 0Zm-6.05-2.28c-.05-.09-.1-.26-.11-.42-.01-.2 0-.4.03-.6.13-.88.48-1.69.73-2.53v-.05c.21-.63.47-1.21.82-1.78.35-.58.73-1.16 1.22-1.64.42-.41.99-.71 1.51-.61s.78.55.8 1.05c.03.72-.32 1.43-.64 2.06-.32.63-.7 1.29-1.13 1.89-.39.56-.82 1.08-1.29 1.57-.24.26-.5.5-.75.74-.21.2-.48.5-.76.58-.14.04-.14.03-.22-.02a.577.577 0 0 1-.22-.24Zm-.16 3.78c.68-.89 1.73-1.54 1.89-2.74v-.12c.12-.09.23-.19.34-.29.64-.58 1.23-1.22 1.76-1.91.27-.35.53-.7.77-1.07.03-.02.06-.04.05-.04.05-.01.17-.03.15-.04H187.37c.03 0 .07.01.07.01.06.01.11.03.17.05.25.09.49.3.63.57.36.7.12 1.56-.25 2.23-.13.24-.28.48-.44.72-.05.05-.09.11-.11.17-.35.52-.73 1.02-1.07 1.54-.53.81-1.07 1.63-1.77 2.31-.65.63-1.48 1.16-2.37 1.26-.08 0-.16.03-.24.06-.63-.8-.38-1.93.23-2.72Zm-.27 3.9v-.01a.5.5 0 0 0 .29.07c1.14-.13 2.14-.63 3-1.38.88-.76 1.54-1.74 2.17-2.71.31-.47.62-.93.94-1.39.03 0 .06.02.08.03h.01l.27.15c.07.04.13.09.2.14 0 0 .11.09.14.11.07.06.14.13.21.2.03.03.06.06.08.09.02.02.03.04.05.06.04.06.08.13.12.19 0 .01.02.04.03.06 0 .01 0 .03.01.04 0 0 .02.03.01.05 0 .02 0 .03.01.05 0-.02 0-.03-.01-.04-.03.07-.04.19-.07.28-.13.41-.44.77-.74 1.09-1.33 1.43-2.93 2.8-4.86 3.31-.23.06-.48.11-.72.13a.487.487 0 0 0-.24 0c-.16-.01-.32-.04-.48-.11-.19-.08-.41-.24-.53-.39Zm4.66 2.77c-.69.26-1.44.6-2.2.59-.25 0-.53-.06-.75-.19a.721.721 0 0 1-.25-.21s0-.02-.01-.03c0-.03-.02-.08-.02-.1 0-.03-.02-.11-.02-.13v-.54c.02-.13.06-.26.1-.38 1.08-.09 2.19-.61 3.08-1.15.69-.42 1.34-.92 1.94-1.47h.33c.02 0 .03 0 .05.01l.21.06h-.01.02c.02 0 .04.02.05.02.01 0 .02.01.03.02.06.03.12.07.18.11.03.02.05.05.08.07l.09.09s.02.02.03.04c0 .01.02.02.03.03-.01-.01-.02-.02-.02-.03v.01c.02.03.03.05.05.08 0 0 .04.06.06.11 0 .02.02.05.02.07 0 .03.01.1.03.14v.05c0 .12 0 .25-.02.37 0 .03 0 .05-.01.08 0 .06-.02.12-.03.18 0 .01-.02.02-.03.04-.66 1.04-1.86 1.62-3 2.04Z" class="cls-13"/><path d="M189.13 63.17s-.03-.02-.05-.02c.08.05.08.04.05.03ZM189.55 63.5a.138.138 0 0 1-.03-.04l.04.04ZM145.58 36.31c-.88-2.89-1.84-5.76-2.88-8.6.02-.06.03-.12.02-.18-.22-2.2-.55-4.42-1.29-6.51-.74-2.1-1.86-3.95-3.3-5.61-.69-.8-1.44-1.53-2.3-2.15-.79-.56-1.65-1.01-2.54-1.4-2.01-.86-4.14-1.38-6.3-1.64-2.01-.24-4.07-.24-6.06.19-2.23.48-4.35 1.49-6.16 2.86s-3.35 3.09-4.43 5.08c-.98 1.81-1.31 3.91-1.38 5.94-.08 2.31.19 4.63.53 6.91.34 2.28.78 4.5 1.17 6.75.09.49.17.99.24 1.48v.06c.38 2.44.56 4.93.37 7.4-.08 1.07-.22 2.03-.45 3.1s-.52 2.06-.87 3.06c-.42 1.19-.89 2.31-1.43 3.45-.15.32-.09.7.23.88.28.17.73.08.88-.23.98-2.07 1.83-4.21 2.35-6.45.53-2.27.72-4.61.63-6.93a40.41 40.41 0 0 0-.46-4.53v-.08c-.67-4.32-1.72-8.59-1.89-12.96-.08-2.04 0-4 .65-5.92.28-.84.75-1.67 1.29-2.48.58-.85 1.26-1.64 2.02-2.36 1.54-1.47 3.41-2.63 5.41-3.31.51-.18 1.03-.32 1.56-.44.25-.06.51-.11.76-.15.27-.04.28-.05.53-.07.95-.11 1.91-.12 2.86-.08 2.02.09 4 .46 5.95 1.1.94.31 1.74.64 2.61 1.11.41.22.82.47 1.21.74.33.23.57.42.9.74 1.52 1.44 2.77 3.14 3.65 5.05.81 1.77 1.29 3.85 1.56 5.84.06.46.12.99.17 1.49-.06.13-.08.28-.03.42 1 2.71 1.92 5.45 2.77 8.22-.1.02-.19.03-.29.05-.06 0-.13.02-.19.03-.01 0-.08.01-.11.02-.14.02-.28.04-.42.05-.54.06-1.08.09-1.63.06h-.14c-.08 0-.16.03-.23.07-.01 0-.02.01-.04.02-.01 0-.02.01-.03.02-.1.07-.19.16-.23.28-.01.03-.02.05-.03.08s0 .01 0 .01c0 .03-.01.06-.02.09l-.97 5.57c-.14.8-.27 1.61-.52 2.39-.11.33-.23.65-.4.95-.15.26-.32.46-.5.68-.02.01-.03.02-.05.03-.07.04-.13.08-.2.11l-.12.06c-.1.03-.19.07-.28.1-.45.15-.91.27-1.38.37-.55.12-1.1.21-1.65.3l-.44.06c-.06 0-.12.02-.19.03 0 0-.11.01-.04 0 .08-.01-.08.01-.1.01-.28.04-.55.07-.82.1-.94.11-1.9.21-2.85.21-.83 0-.83 1.3 0 1.29.45 0 .9-.03 1.36-.06-1.49 2.9-2.3 6.14-3.15 9.27-.22.8 1.03 1.15 1.25.35.9-3.32 1.74-6.76 3.46-9.77 1.08-.12 2.16-.27 3.23-.48.87-.17 1.88-.36 2.62-.86.54-.36.91-.98 1.17-1.56.34-.77.54-1.57.7-2.4.38-2.01.71-4.02 1.06-6.03 1.03 0 2.07-.18 3.08-.35.22-.04.38-.23.45-.44.09-.13.12-.3.06-.5Z" class="cls-13"/><path d="M66.5 87.99c5.01 3.88 10.03 7.75 15.05 11.62l4.26 3.3c.28.21.65.27.91 0 .22-.22.28-.7 0-.91-5.01-3.88-10.03-7.75-15.05-11.62l-4.26-3.3c-.28-.21-.65-.27-.91 0-.22.22-.28.7 0 .91Z" class="cls-15"/><path d="M94.85 108.5c-.02-.14-.07-.27-.18-.35-2.57-1.99-5.14-3.99-7.71-5.98-.28-.21-.65-.27-.91 0-.22.22-.28.7 0 .91.02.01.04.03.06.05-.94 1.29-4.12 5.64-4.46 6.02-.34.38-4.84 6.94-6.18 8.88-.01 0-.03-.01-.04-.02-.32-.15-.7-.09-.88.23-.17.28-.08.73.23.88 2.96 1.43 5.97 2.77 9.02 3.99h.01c.02 0 .05.02.07.03.1.04.2.04.29.02.13-.02.25-.08.34-.18 2.83-3.54 5.7-7.06 8.24-10.82a60.24 60.24 0 0 0 2.03-3.23c.09-.15.11-.3.08-.43Z" class="cls-8"/><path d="M117.73 147.05c-.19.1-.37.19-.57.27l.15-.07c-.35.15-.72.27-1.09.36-.33.08-.56.47-.45.8.11.33.44.54.8.45.63-.15 1.24-.39 1.81-.7.3-.16.42-.6.23-.88-.2-.3-.57-.4-.88-.23ZM97.6 155.32l-1.82.82c-.14.06-.26.25-.3.39-.04.15-.02.36.07.5s.22.26.39.3c.18.04.33.01.5-.07l1.82-.82c.14-.06.26-.25.3-.39.04-.15.02-.36-.07-.5s-.22-.26-.39-.3a.73.73 0 0 0-.5.07ZM98.97 138.28c0 .03 0 .02 0 0ZM91.15 135.63l-1.26-2.42-.29-.56-.1-.19s-.01-.03-.02-.04a.239.239 0 0 0-.03-.07c-.06-.2-.11-.52-.13-.66-.02-.13-.02-.42-.03-.63.05-.09.1-.17.14-.25v-.01l.01-.01c.04-.03.07-.07.11-.11 0 0 .01-.02.02-.02 0 0 .02 0 .04-.02.03-.02.2-.08.07-.04l.12-.03H89.97s.01 0 .05.02c.05.01.09.03.14.04.2.61.42 1.22.67 1.82.35.87.75 1.72 1.24 2.52.44.7 1.56.06 1.12-.65-.87-1.4-1.42-2.9-1.91-4.47-.53-1.7-.96-3.44-1.4-5.17-.11-.42-.22-.84-.33-1.27.15.07.29.15.44.22.31.15.7.08.88-.23.17-.28.08-.73-.23-.88-2.07-1.01-4.11-2.06-6.13-3.17-.73-.4-1.38.72-.65 1.12 1.36.75 2.74 1.47 4.13 2.18.64 2.2 1.13 4.46 1.77 6.66-.41.02-.81.17-1.15.51-.43.43-.64.97-.61 1.57.02.36.07.72.15 1.07.08.35.22.64.39.95l1.5 2.88c.16.31.59.4.88.23.31-.18.39-.57.23-.88Z" class="cls-13"/><path d="M115.63 124.2c-.2-.09-.39-.2-.57-.32-.22-.15-.32-.22-.51-.39-.41-.34-.79-.71-1.16-1.08-.72-.71-1.42-1.44-2.21-2.07-.04-.05-.1-.1-.16-.13l-.02-.01c-.04-.03-.09-.05-.14-.07-1.67-.9-3.51-1.37-5.23-2.13-.54-.24-1.07-.47-1.65-.61-.46-.11-.92-.2-1.37-.33-.84-.24-1.56-.57-2.33-.97-.86-.87-1.74-1.72-2.64-2.55-.02-.01-.03-.03-.05-.04a.572.572 0 0 0-.08-.07c-1.99-1.48-3.83-3.15-5.87-4.57-.29-.2-.72-.05-.88.23-.19.32-.06.68.23.88 1.98 1.39 3.79 3.01 5.72 4.46v.01h.01c.91.83 1.79 1.69 2.66 2.56.03.04.07.08.11.11 2.58 2.6 5.01 5.34 7.52 8.01.46.49.93.98 1.4 1.47.21.22.45.43.64.68.08.1.16.22.21.34 0-.02.03.09.02.07.01.05.01.11.01.12-.07.39-.29.66-.59.77-.5.19-1.04.19-1.53.43-1.04.52-1.08 1.66-1.09 2.67v.32c0 .06 0 .12-.01.17v.09c-.01.08-.03.16-.05.23 0 0-.06.13-.04.11-.02.04-.05.09-.08.13 0 0-.01.01-.03.02-.03.02-.04.04-.05.05-.04.03-.08.05-.13.07 0 0-.02 0-.04.01-.25.08-.33.08-.58.1-.51.04-1.02.06-1.5.27-.41.18-.75.51-.95.91-.36.7-.4 1.48-.55 2.24-.03.17-.07.35-.13.52 0 .03-.06.14-.06.16-.03.07-.07.13-.11.19-.02.01-.05.05-.07.07-.03.02-.06.04-.1.06h-.01l-.11.03h-.28c-.02 0-.06 0-.08-.01l-.27-.06c-.21-.06-.41-.12-.61-.19-.39-.13-.8-.26-1.22-.24-.51.02-.97.27-1.23.71-.29.48-.24 1.05-.37 1.53 0 .03-.02.07-.03.11l-.07.13c0 .02-.04.05-.05.07l-.09.09h-.01l-.15.09s-.01 0-.02.01h-.02l-.21.06c-.03 0-.06.01-.08.02h-.25l-.18-.01c-.14-.02-.4-.11-.5-.17-1.02-.55-2.06-1.13-3.01-1.79-.29-.2-.72-.05-.88.23-.19.32-.06.69.23.88.9.62 1.87 1.11 2.8 1.67.85.51 1.92.67 2.82.18.45-.25.78-.67.94-1.16.09-.29.1-.59.14-.88 0-.03.03-.18.05-.26 0-.01.05-.16.03-.09.07-.22 0 .08.05-.08.03-.07.02-.05.01-.02v.01l.02-.01c.03 0 .08-.02.08-.02h.2c.03 0 .08.01.08.01.06.01.12.03.17.04.41.11.8.27 1.21.36.92.2 1.85-.04 2.3-.94.36-.73.37-1.55.55-2.33.04-.17.09-.34.15-.5 0 0 .06-.12.08-.15.02-.04.05-.07.07-.11v-.02l.02-.01.09-.09h.02c.11-.06.15-.08.21-.1.26-.08.34-.08.59-.1.53-.04 1.06-.06 1.54-.3s.81-.71.95-1.22.1-1.09.11-1.64c0-.3 0-.37.1-.66v-.03s0-.01.01-.03c0 0 .07-.12.06-.1.08-.09.14-.14.27-.2.45-.21 1.1-.2 1.59-.46.57-.3 1-.88 1.12-1.51 0-.04.01-.09.01-.13.09-.66-.23-1.23-.66-1.72-.4-.46-.86-.89-1.28-1.33-.87-.91-1.73-1.84-2.58-2.76-1.19-1.29-2.38-2.58-3.59-3.85.3.08.61.15.91.22a7.998 7.998 0 0 1 1 .28c.06.02.11.04.17.06h.01c.04.02.07.03.11.05.88.4 1.78.74 2.69 1.07 1.02.37 2.03.74 2.98 1.27.03.02.09.07.09.07.04.03.07.06.11.09.1.08.2.17.3.26.2.18.39.36.58.55.39.38.77.77 1.16 1.16.55.54 1.13 1.11 1.79 1.54-.04.03-.09.05-.13.07 0 0-.16.05-.18.06-.09.03-.18.04-.26.06H113.59c-.1 0-.21.01-.31.02-.85.03-1.68-.05-2.48-.36-.33-.12-.71.14-.8.45-.1.37.12.67.45.8.97.37 2.1.47 3.13.39.94-.08 2.11-.49 2.29-1.56.04-.26-.02-.6-.3-.73Zm-18.41 15.38c.05-.05.03-.02 0 0Zm1.82-1.34s-.01 0-.05.02a.47.47 0 0 1 .05-.02Zm2.44-.79s-.07 0 0 0Zm.14-.04s-.06.02 0 0Zm4.3-4.68s.03-.03 0 0Zm4.43-11.42Z" class="cls-13"/><path d="M174.65 90.56s-.08-.08-.14-.11c-4.59-2.86-9.32-5.48-14.11-7.97-1.36-.71-2.72-1.4-4.08-2.09-.03-.02-.06-.03-.09-.04-.28-.1-.66-.02-.79.27-2.48 5.54-4.86 11.13-7.13 16.77-.62 1.55-1.24 3.11-1.85 4.67-.13.33.14.71.45.8.37.1.67-.12.8-.45 2.16-5.58 4.45-11.1 6.84-16.58.58-1.33 1.17-2.67 1.76-4 4.61 2.34 9.18 4.76 13.63 7.37 1.17.68 2.33 1.39 3.48 2.1a168.6 168.6 0 0 1-4.6 12.88c-.87 2.15-1.8 4.28-2.78 6.38s-1.93 4.03-3.05 5.96c-1.21 2.09-2.6 4.07-4.31 5.77a49.772 49.772 0 0 1-8.41-4.15 49.745 49.745 0 0 1-7.71-5.86c-1.29-1.2-2.52-2.47-3.68-3.8-.09-1.24-.18-2.47-.29-3.71-.28-3.26-.62-6.52-1.01-9.77-.04-.35-.27-.65-.65-.65-.32 0-.69.3-.65.65.72 5.93 1.26 11.88 1.56 17.85.32 6.37.38 12.75.07 19.12-.18 3.6-.48 7.2-.93 10.78-.04.35.33.65.65.65.39 0 .6-.3.65-.65.8-6.39 1.13-12.83 1.14-19.26 0-4.31-.14-8.63-.41-12.93a51.192 51.192 0 0 0 14.4 10.81c1.68.85 3.41 1.6 5.18 2.26.21.08.44 0 .61-.15a.64.64 0 0 0 .31-.17c3.23-3.16 5.35-7.24 7.28-11.27 2.07-4.32 3.88-8.76 5.51-13.27.91-2.51 1.75-5.04 2.54-7.59.08-.26 0-.48-.16-.61ZM86.6 101.89c-.32-.19-.69-.06-.88.23-2.91 4.2-5.83 8.4-8.74 12.6-.7 1-1.39 2.01-2.09 3.01-3.83-1.9-7.57-3.99-11.2-6.26-3.8-2.38-7.49-4.94-11.02-7.7-1.93-1.51-3.82-3.07-5.66-4.69 1.62-2.47 3.37-4.85 5.23-7.14 2.05-2.53 4.22-4.96 6.48-7.3 2.26-2.34 4.75-4.73 7.26-6.95 2.45-2.17 4.99-4.25 7.61-6.21s5.11-3.66 7.79-5.3c.32-.2.64-.39.97-.58.72-.43.07-1.54-.65-1.12a96.287 96.287 0 0 0-7.85 5.22c-2.69 1.97-5.31 4.07-7.83 6.25-2.53 2.2-4.98 4.49-7.34 6.88s-4.54 4.79-6.65 7.34c-2.11 2.54-3.91 4.92-5.66 7.53-.21.3-.41.61-.61.92-.13.2-.11.45 0 .64-.04.21 0 .44.17.59 3.4 3 6.96 5.82 10.66 8.44 3.69 2.62 7.51 5.05 11.45 7.27 2.21 1.25 4.46 2.43 6.73 3.55.17.1.35.11.52.05.15-.04.28-.13.37-.28 2.91-4.2 5.83-8.4 8.74-12.6.81-1.17 1.62-2.34 2.43-3.52.2-.29.05-.72-.23-.88Z" class="cls-15"/></g><g id="Layer_4-2"><path d="M139.6 11.09c-.34-1.06-1.08-2.57-2.45-2.25-.47.11-.65.46-1.21.23-.4-.17-.69-.76-.92-1.11-.39-.58-.79-1.14-1.26-1.66-1-1.09-2.25-1.98-3.66-2.45-6.76-2.23-10.91 5.45-16.23 8.15h-.09c-2.41.4-4.53 1.36-5.54 3.72-1 2.36-.59 5.12-.32 7.59.63 5.9 2.82 11.63 2.64 17.61-.29.51.48 1.18 1.05.72 2-1.62 3.59-3.66 4.69-5.99.07-.14.08-.28.05-.4.03-.1.03-.21-.01-.34-.64-1.97-1.39-4.22-.46-6.22.37-.81 1-1.36 1.72-1.63.18.04.38.01.56-.13.02-.01.04-.03.06-.04 1.08-.17 2.24.25 2.97 1.31.07.1.15.17.24.21.4.96.31 2.07.04 3.05-.11.4.14.68.45.76.1.08.22.13.37.14l1.69.11c.21.01.36-.06.46-.17.26-.11.45-.37.35-.73-.87-3.35-.1-6.95 2.13-9.61.09-.1.13-.21.15-.33a.65.65 0 0 0-.05-.78c-1.37-1.64-2.32-3.65-1.73-5.76a67.83 67.83 0 0 0 13.69 1.63c.2 0 .36-.07.46-.19.1-.07.17-.18.21-.33.46-1.68.49-3.46-.04-5.13Z" style="fill:#f6c243"/><path d="M120.11 26.81c-.4-.59-.83-1.2-1.47-1.56-.63-.36-1.45-.46-2.12-.11-.2.1-.26.39-.15.58.12.21.37.26.58.15s.06-.03.08-.04c.01 0 .05-.02.06-.02.06-.02.13-.03.19-.04h.09c.02.03.04.05.06.07.23.19.47.39.68.61.05.05.1.1.14.15l.03.03c.03.03.05.07.07.1l.11.17c.02.03.03.07.05.1v.03c.06.16.22.33.41.31l.49-.06c.13.16.36.22.55.11.19-.11.28-.39.15-.58Z" style="fill:#e2ded9"/><path d="M118.5 26.79c-.32-.65-.84-1.85-1.72-1.77-.88.09-1.79 1.17-2.26 1.81-1.38 1.88-1.49 4.25-.56 6.35.14.32.43.38.68.29.1 0 .21-.03.31-.07l1.2-.52c.32-.14.39-.6.23-.87a.582.582 0 0 0-.52-.3c-.38-1.51-.13-3.59 1.33-4.42a.36.36 0 0 0 .1-.07c.04.07.07.14.1.21.36.73 1.45.09 1.1-.64Z" class="cls-5"/><path d="M121.77 29.05c-.52-1.45-1.94-2.34-3.47-2.11-.72.11-1.43.49-1.89 1.06-.49.6-.73 1.3-.82 2.06-.17 1.45.3 2.98.92 4.27.33.7.76 1.35 1.24 1.95.45.57.97 1.16 1.64 1.47.86.39 1.88.2 2.49-.55.56-.7.65-1.59.3-2.4-.14-.32-.61-.39-.88-.23-.33.19-.37.56-.23.88.11.25.03.7-.18.95-.29.32-.69.35-1.08.11-.46-.28-.83-.75-1.16-1.17-.36-.46-.66-.97-.93-1.49-.49-.98-.84-2.11-.86-3.18 0-.93.29-1.93 1.21-2.32.99-.42 2.12.1 2.46 1.06.12.33.44.55.8.45.32-.09.57-.47.45-.8Z" class="cls-13"/></g><path d="M138.94 163.94c-.26-1.28-.74-2.51-1.1-3.76-.02-.07-.05-.12-.08-.18-.4-1.3-.81-2.6-1.22-3.89-.37-1.16-.73-2.34-1.15-3.48v-.01a178.2 178.2 0 0 0-2.28-6.87c-.71-2.02-1.39-4.06-2.2-6.05-.7-1.7-1.65-3.54-3.38-4.38-2.31-1.13-4.72-.01-6.89.91-1.79.76-3.59 1.49-5.38 2.23-.08-2.54-.46-5.07-1.14-7.52-.66-2.35-1.64-4.78-3.56-6.39-1.04-.87-2.24-1.44-3.59-1.61-.35-.04-.65.33-.65.65 0 .39.3.6.65.65.15.02.29.05.43.08l.42.54.8 1.01s.34.35.75.81c-.26.19-.37.57-.19.85 1.83 2.81 2.63 6.11 3.08 9.4.12.89.21 1.78.3 2.68-1.51.65-3.03 1.3-4.54 1.95.01.15.02.29.02.45 0 2.11-1.15 3.82-2.57 3.82-1.02 0-1.9-.89-2.32-2.18-2.38 1.03-4.77 2.05-7.15 3.07-.38.16-.75.32-1.13.48-.92-3.22-1.84-6.49-1.96-9.85-.04-1 0-2 .11-2.99.04-.35-.33-.65-.65-.65-.12 0-.23.03-.32.09l-.18-.25c.05-.12.12-.24.18-.36.42-.72-.7-1.37-1.12-.65-.53.91-.73 1.94-.8 2.97-.07 1.04-.03 2.15.05 3.22.18 2.21.6 4.38 1.11 6.53.25 1.05.52 2.08.79 3.12-1.01.43-2.01.86-3.02 1.28l-5.56 2.25c-1.58.64-3.27 1.33-4.08 2.95-.82 1.61-.68 3.5-.19 5.2.26.9.61 1.77.93 2.65s.64 1.77.95 2.65c.71 2.01 1.4 4.02 2.14 6.01v.01c.6 1.87 1.18 3.74 1.76 5.61.47-.75 1.14-1.22 1.88-1.22 1.42 0 2.57 1.71 2.57 3.82s-1.11 3.75-2.49 3.82c.31 1 .62 2 .99 2.98.24.66.56 1.31 1.08 1.8.52.48 1.14.77 1.81.88 1.51.27 2.93-.26 4.3-.83 1.34-.57 2.69-1.13 4.03-1.7-.22-.56-.34-1.2-.34-1.9 0-2.11 1.15-3.82 2.57-3.82s2.52 1.64 2.57 3.69l.66-.28s.07-.03.1-.05c.02 0 .03-.01.05-.02 4.69-2 9.39-4 14.08-6.01-.67-.69-1.11-1.84-1.11-3.14 0-2.11 1.15-3.82 2.57-3.82s2.57 1.71 2.57 3.82c0 .53-.07 1.04-.21 1.5 1.01-.44 2.03-.87 3.04-1.31h.01c3.26-1.51 6.51-3.03 9.76-4.54.72-.34 1.45-.68 2.04-1.23.54-.5.92-1.14 1.18-1.82.43-1.16.42-2.46.17-3.66Zm-50.83-1.06c-1.42 0-2.57-1.71-2.57-3.82s1.15-3.82 2.57-3.82 2.57 1.71 2.57 3.82-1.15 3.82-2.57 3.82Zm7.96 10.88c-1.42 0-2.57-1.71-2.57-3.82s1.15-3.82 2.57-3.82 2.57 1.71 2.57 3.82-1.15 3.82-2.57 3.82Zm5.52-13.9c-1.42 0-2.57-1.71-2.57-3.82s1.15-3.82 2.57-3.82 2.57 1.71 2.57 3.82-1.15 3.82-2.57 3.82Zm7.39 15.07c-1.42 0-2.57-1.71-2.57-3.82s1.15-3.82 2.57-3.82 2.57 1.71 2.57 3.82-1.15 3.82-2.57 3.82Zm3.11-29.1c0-2.11 1.15-3.82 2.57-3.82s2.57 1.71 2.57 3.82-1.15 3.82-2.57 3.82-2.57-1.71-2.57-3.82Zm5.14 17.86c-1.42 0-2.57-1.71-2.57-3.82s1.15-3.82 2.57-3.82 2.57 1.71 2.57 3.82-1.15 3.82-2.57 3.82Zm10.38-8.84c-1.42 0-2.57-1.71-2.57-3.82s1.15-3.82 2.57-3.82 2.57 1.71 2.57 3.82-1.15 3.82-2.57 3.82Zm4.11 15.1c-1.42 0-2.57-1.71-2.57-3.82s1.15-3.82 2.57-3.82 2.57 1.71 2.57 3.82-1.15 3.82-2.57 3.82Z" class="cls-13"/><ellipse cx="88.11" cy="159.05" class="cls-15" rx="2.57" ry="3.82"/><path d="M96.07 166.11c-1.42 0-2.57 1.71-2.57 3.82s1.15 3.82 2.57 3.82 2.57-1.71 2.57-3.82-1.15-3.82-2.57-3.82ZM101.59 152.2c-1.42 0-2.57 1.71-2.57 3.82s1.15 3.82 2.57 3.82 2.57-1.71 2.57-3.82-1.15-3.82-2.57-3.82Z" class="cls-15"/><ellipse cx="131.72" cy="166.11" class="cls-15" rx="2.57" ry="3.82"/><path d="M108.03 141.54c-.15-1.9-1.23-3.38-2.55-3.38-1.42 0-2.57 1.71-2.57 3.82 0 .59.09 1.15.25 1.65 1.22-.53 2.44-1.05 3.66-1.57.4-.17.8-.35 1.21-.52Z" class="cls-15"/><path d="M105.48 145.81c1.42 0 2.57-1.71 2.57-3.82 0-.15 0-.3-.02-.45-.4.17-.8.35-1.21.52-1.22.53-2.44 1.05-3.66 1.57.41 1.29 1.29 2.18 2.32 2.18ZM117.23 156.03c-1.42 0-2.57 1.71-2.57 3.82s1.15 3.82 2.57 3.82 2.57-1.71 2.57-3.82-1.15-3.82-2.57-3.82ZM127.61 147.18c-1.42 0-2.57 1.71-2.57 3.82s1.15 3.82 2.57 3.82 2.57-1.71 2.57-3.82-1.15-3.82-2.57-3.82ZM120.36 171.18c-1.42 0-2.57 1.71-2.57 3.82 0 1.3.44 2.45 1.11 3.14.75-.32 1.49-.64 2.24-.95.53-.23 1.06-.46 1.59-.68.13-.46.21-.97.21-1.5 0-2.11-1.15-3.82-2.57-3.82ZM101.44 180.8c-1.42 0-2.57 1.71-2.57 3.82 0 .69.12 1.34.34 1.9l.42-.18 4.38-1.85c-.05-2.05-1.18-3.69-2.57-3.69ZM108.98 167.27c-1.42 0-2.57 1.71-2.57 3.82s1.15 3.82 2.57 3.82 2.57-1.71 2.57-3.82-1.15-3.82-2.57-3.82ZM89.48 179.57c0-2.11-1.15-3.82-2.57-3.82-.74 0-1.41.47-1.88 1.22.51 1.66 1.01 3.31 1.51 4.97s0 0 0 .01c.15.47.3.95.45 1.43 1.38-.07 2.49-1.75 2.49-3.82Z" class="cls-15"/><ellipse cx="114.66" cy="145.81" class="cls-15" rx="2.57" ry="3.82"/><path d="M124.22 63.33c.15-.04.17-.57.07-1.42-.02-.21-.06-.44-.09-.69-.02-.12-.04-.25-.06-.39l-.06-.3c-.03-.13-.05-.26-.08-.39-.23-1.07-.52-2.33-.83-3.64-.09.29-.18.59-.27.89-.21.69-.41 1.37-.6 2.02-.18.62-.4 1.4-.44 1.57-.15.6-.27 1.15-.36 1.62-.17.93-.19 1.53-.04 1.58s.47-.47.85-1.33c.19-.43.39-.96.6-1.54.14-.43.11-.27.13-.3v.02s.01-.08.05-.05l.02.02s.02.07.03.09a16.343 16.343 0 0 0 .36 1.03c.31.8.57 1.27.72 1.23Z" style="fill:#afcbcd"/></g><g id="Outline"><path d="M136.86 80.96c-.66.05-.57 8.4.19 18.66s1.92 18.53 2.57 18.48c.66-.05.57-8.4-.19-18.66s-1.92-18.53-2.57-18.48ZM146.54 99.03c.6.28 2.28-2.05 3.77-5.22 1.48-3.16 2.2-5.95 1.6-6.23s-2.28 2.05-3.77 5.22-2.2 5.95-1.6 6.23ZM93.99 107.91c.42-.51-4.8-5.44-11.65-11s-12.74-9.66-13.15-9.15c-.42.51 4.8 5.44 11.65 11 6.85 5.56 12.74 9.66 13.15 9.15Z" class="cls-5"/><path d="M98.58 83.83c-.37-.55-4.93 1.86-10.2 5.37-5.27 3.52-9.24 6.81-8.87 7.36s4.93-1.86 10.2-5.37c5.27-3.52 9.24-6.81 8.87-7.36Z" class="cls-5"/><path d="M77.8 103.75c-.27-.19-2.34 2.38-4.62 5.72s-3.9 6.21-3.63 6.4c.27.19 2.34-2.38 4.62-5.72 2.28-3.35 3.9-6.21 3.63-6.4ZM171.51 98.43c.15-.29-2.62-2.07-6.2-3.96-3.58-1.9-6.6-3.2-6.76-2.91-.15.29 2.62 2.07 6.2 3.96s6.6 3.2 6.76 2.91ZM132.54 62.44c-.15-.07-1.43 2.16-3.4 5.83-.98 1.84-2.13 4.03-3.39 6.48-.31.61-.63 1.2-1.04 1.69-.4.49-.9.84-1.48.92-.57.1-1.2-.1-1.79-.43-.6-.35-1.16-.84-1.7-1.37-4.25-4.65-8.16-8.92-11.03-11.92-2.87-3.02-4.71-4.83-4.83-4.72-.12.11 1.49 2.12 4.2 5.28a563.3 563.3 0 0 0 10.81 12.19c.58.59 1.21 1.14 1.96 1.57.73.42 1.65.73 2.57.56.92-.13 1.69-.72 2.18-1.35.5-.63.83-1.3 1.14-1.92 1.21-2.47 2.28-4.71 3.16-6.59 1.77-3.77 2.79-6.14 2.64-6.21Z" class="cls-12"/><path d="M186.27 29.7c-.36-.18-2.79 7.96-5.43 18.18-1.31 5.12-2.47 9.75-3.16 13.22-.69 3.48-.78 5.74-.59 5.77.2.04.61-2.06 1.52-5.35.92-3.28 2.23-7.87 3.54-12.98 2.64-10.22 4.49-18.65 4.13-18.83Z" class="cls-5"/></g></svg>