<svg xmlns="http://www.w3.org/2000/svg" viewBox="0 0 188.21 200"><defs><clipPath id="clippath"><path d="M157.1 102.81s-.42 5.86-.52 6.5-.48 2.21-1.98 2.29c-1.5.08-10.31-.27-14.34-.58-4.03-.31-6.86-.61-7.83-.97s-2.1-1.14-1.83-3.41 1.25-12.72 1.83-18.13c.58-5.41 1.28-13.14 1.6-16.05.32-2.9.21-4.39 1.58-5.53 1.37-1.13 3.14-.75 6.2-.43 3.07.32 7.42.93 10.91 1.27 3.49.34 4.85.39 5.83.55.83.13 1.88.94 1.82 2.63-.05 1.69-.4 3.87-.4 3.87s-2.58 1.24-4.56 2.44-3.76 2.26-4.39 3.49c-.63 1.24-.39 2.03 0 2.72s1.22.88 2.67.57 5.61-1.65 5.61-1.65l-.13 1.65s-3.06 1.49-4.75 2.56c-1.69 1.08-4.22 2.93-5.02 3.89-.81.97-.75 1.93-.24 2.74s1.29 1.01 1.99.91c0 0-1.24 1.14-.75 2.63.48 1.49 2.89 1.75 5.97.84 0 0-2.15.83-3.28 1.77s-.89 2.17-.46 2.95 1.9 1.09 4.49.45Z" class="cls-1"/></clipPath><clipPath id="clippath-1"><path d="M62.65 147.54c.05-.14-.15-4.83-.22-9.07-.08-4.24-.8-11.31-1.07-13.73 0 0 5.52-.43 6.73-.65s5.18 1.4 5.18 1.4l4.52 9.4s-3.72 9.45-3.85 9.5-11.3 3.15-11.3 3.15Z" class="cls-1"/></clipPath><style>.cls-1{fill:none}.cls-4{fill:#f2a6b0}.cls-6{fill:#f75e28}.cls-7{fill:#fff}.cls-10{fill:#e5b342}.cls-11{fill:#ff8000}.cls-12{fill:#a08675}.cls-13{fill:#ce9352}.cls-14{fill:#c64528}.cls-15{fill:#cc5e05}.cls-17{fill:#70486d}.cls-18{fill:#5b3d5b}.cls-20{fill:#78577a}</style></defs><path id="BG_Strong" d="M169.44 67.52C116.22-46.54-49.08 56.15 26.77 156.96c42.59 91.49 198.13-.35 142.67-89.43Z" style="fill:#575655"/><g id="Illustrations"><g id="Layer_7"><path d="M48.58 96.33c-3.88.31-7.73.79-11.58 1.36-2.24.33-4.48.68-6.72 1.06-1.16.19-2.35.35-3.5.61-1 .23-1.98.6-2.89 1.07-1.81.94-3.46 2.43-4.32 4.32-.95 2.09-1.07 4.43-1.25 6.69a300.031 300.031 0 0 0-.84 30.58c.02.62.03 1.25.05 1.88.03.88 1.4.89 1.37 0-.15-5-.18-10.01-.08-15.02.1-5.02.33-10.05.68-15.06.09-1.23.18-2.47.29-3.7.09-1.03.19-2.07.44-3.08s.61-1.94 1.2-2.79c.53-.74 1.21-1.4 1.96-1.92.78-.55 1.64-.99 2.55-1.3 1.02-.35 2.07-.52 3.13-.7 2.25-.38 4.51-.75 6.77-1.09 3.79-.58 7.58-1.08 11.4-1.42.44-.04.89-.08 1.33-.11.37-.03.69-.3.69-.69 0-.35-.32-.72-.69-.69ZM42.5 94.91c-.41-.19-.81-.38-1.21-.59-.19-.1-.38-.21-.56-.32-.09-.05-.17-.11-.26-.17a.834.834 0 0 0-.12-.08c-.04-.03-.19-.15-.02-.01-.15-.12-.29-.2-.49-.2-.17 0-.37.08-.49.2s-.21.3-.2.49c0 .17.06.38.2.49.74.58 1.58 1.01 2.44 1.4.17.08.34.12.53.07.16-.04.33-.17.41-.32.16-.3.1-.78-.25-.94ZM19.14 146.75z" class="cls-15"/><path d="M56.28 92.26c.64-.25.56-1.35-.24-1.32-4 .15-8 .38-11.99.67.28-.72.6-1.43 1.03-2.09.46-.71 1.06-1.35 1.85-1.68.96-.4 2.07-.36 3.09-.4 1.27-.05 2.55-.12 3.82-.17.37-.02.69-.3.69-.69 0-.35-.29-.67-.64-.68.28-.4.11-1.11-.53-1.1-1.4.02-2.8.04-4.2.08s-2.74.02-4.1.17c-1.25.14-2.36.6-3.21 1.55-.79.88-1.3 1.94-1.71 3.04-.29.75-.51 1.53-.67 2.32-4.47.35-8.95.7-13.37 1.52-2.17.4-4.32.92-6.41 1.61-1.08.36-2.15.76-3.2 1.21-.91.39-1.79.83-2.57 1.44s-1.45 1.38-1.88 2.29c-.42.92-.66 1.95-.78 2.98s-.14 2.03-.17 3.05c-.03 1.13-.06 2.26-.08 3.39-.08 3.97-.08 7.93-.05 11.9.04 4.09.12 8.18.17 12.27 0 .6.02 1.19.02 1.79 0 .47.39.69.76.66 1.3 2.42 7.13 10.57 7.21 10.69 0-.06.22-3.07.05-4.19-.16-1.13 1.13-14.9 1.69-17.16.57-2.26 3.46-10.47 5.24-13.54 1.77-3.06 9.26-7.49 10.08-8.32.81-.83 8.21-3.29 8.21-3.29l-.4-1.31s5.23-1.82 6.36-2.31 2.96-.09 2.96-.09l3.99-1.48-1.04-2.8Z" class="cls-15"/></g><g id="Sign"><path d="M172.72 42.02c-.14-.52-.34-1.01-.57-1.5v-.02c-2.67-5.4-5.71-10.62-8.91-15.73s-6.63-10.19-10.12-15.17c-.84-1.2-1.68-2.41-2.54-3.6-.74-1.03-1.61-2.1-2.8-2.62-1.29-.57-2.63-.28-3.7.61-1.04.87-1.73 2.16-2.47 3.28-3.32 5.05-6.72 10.06-10.07 15.09-3.48 5.21-6.91 10.45-10.2 15.78-.42.67-.83 1.35-1.24 2.03-.94 1.62-1.8 3.73-1.06 5.59.34.88 1 1.58 1.85 1.98s1.75.54 2.67.62c2.18.18 4.39.22 6.58.28 2.19.06 4.49.1 6.74.11 4.53.01 9.06-.1 13.58-.35a213.497 213.497 0 0 0 17.09-1.64c1.02-.14 2.12-.19 3.1-.54.85-.3 1.65-.83 2.01-1.68.34-.8.27-1.7.05-2.53Z" class="cls-10"/><path d="M172.77 41.58c-.13-.32-.27-.63-.43-.94 0-.03-.02-.07-.04-.11-1.55-3.11-3.27-6.14-5.02-9.14-2.02-3.46-4.1-6.88-6.22-10.27-1.93-3.09-3.89-6.17-5.88-9.22-1.34-2.06-2.69-4.12-4.1-6.13-.72-1.02-1.48-2.07-2.58-2.71-1.1-.64-2.29-.72-3.43-.22-1.14.51-1.95 1.51-2.67 2.51-.78 1.1-1.53 2.21-2.24 3.36-.35.56-.68 1.13-1 1.71-.85 1.22-1.7 2.45-2.53 3.69a268.45 268.45 0 0 0-5.37 8.33c-1.06 1.71-2.11 3.43-3.15 5.16-.3.5.46.95.77.49.41.26 1.09.67 1.73.89 1 .35 3.61 2.67 5.58 3.98 1.97 1.31 8.15 6.25 10.4 8.08 1.95 1.58 5.84 5.44 6.88 6.46-.25.26-.15.8.31.78 4.14-.21 8.27-.63 12.38-1.18 1.03-.14 2.06-.28 3.09-.43.81-.12 1.64-.23 2.38-.6s1.29-1.03 1.47-1.85c.2-.89.01-1.79-.32-2.63Z" style="fill:#f6c243"/><path d="M128.19 28.34c3.82 2.13 7.4 4.67 10.87 7.32 1.7 1.3 3.42 2.6 5.07 3.97 1.63 1.35 3.19 2.78 4.71 4.24 1.52 1.46 3.05 2.79 4.56 4.21.43.4 1.08-.24.65-.65-1.32-1.25-2.7-2.45-4.02-3.7-1.54-1.46-3.08-2.92-4.7-4.29s-3.37-2.7-5.08-4.02c-1.71-1.32-3.5-2.66-5.31-3.91a73.036 73.036 0 0 0-6.29-3.96c-.51-.29-.98.5-.46.79Z" class="cls-10"/><path d="M142.6 17.54c.91-.32 2.3-.58 3.53-.58s2.63.26 3.53.58l-2.21 15.59h-2.66l-2.21-15.59Zm.58 20.79c0-1.39 1.04-2.92 2.95-2.92s2.95 1.52 2.95 2.92-1.04 2.92-2.95 2.92-2.95-1.52-2.95-2.92Z" class="cls-7"/></g><g id="Thumb"><path d="M143.16 108.92s-5-.48-6.27-2.11c-1.27-1.63-1.66-2.69-2.25-4.45-.59-1.76-.47-4.53-1.34-5.61s-1.39-1.89-1.68-3.13c-.28-1.24-.31-3.88-.53-5.11-.22-1.22-1.31-3.07-1.41-4.77-.1-1.7-.52-6.38-.34-6.95s.94-1.64 1.86-1.2 2.55 2.05 2.95 2.88 1.13 3.18 1.11 4.05-.11 1.24.29 2 1.85 4.01 2.07 4.64 3.16 3.02 4.06 3.78 3 3.57 3.4 5.31c.4 1.75 1.18 3.04 1.05 4.09s-.27 5.95-2.98 6.56Z" class="cls-12"/><path d="M131.2 94.51c.76 1.41 1.36 2.9 1.78 4.45s.57 3.2 1.15 4.72c.5 1.3 1.22 2.54 2.2 3.54.98 1 2.15 1.64 3.5 1.93 1.09.24 2.21.38 3.33.44.37.02.69-.33.69-.69 0-.39-.32-.66-.69-.69-.87-.05-1.66-.15-2.5-.3-.58-.11-1.22-.24-1.72-.48-.57-.27-1.04-.61-1.49-1.04-.89-.85-1.56-1.95-2-3.08-.56-1.46-.71-3.02-1.1-4.52-.45-1.73-1.12-3.41-1.97-4.98-.42-.78-1.61-.08-1.19.69Z" class="cls-18"/><path d="M134.55 77.8c-.55-.91-1.26-1.79-2.14-2.39s-2.06-.76-2.95-.11c-.95.7-.93 1.97-.79 3.05l.31 5.4c0 .13.05.25.11.36 0 .11.03.21.08.31.75 1.59 1.2 3.33 1.31 5.08.11 1.75-.05 3.54.82 5.13.43.77 1.61.08 1.19-.69-.8-1.45-.52-3.25-.67-4.84-.17-1.87-.67-3.67-1.47-5.36l-.34-5.83c0-.06-.02-.12-.03-.18v-.62c.01-.16.03-.25.08-.44 0-.02.03-.07.03-.06 0-.02.02-.04.03-.05.01-.02.08-.1.1-.12.19-.15.49-.21.73-.18.31.04.68.26.95.49 1.26 1.07 2.09 2.64 2.46 4.23.22.94.26 1.9.15 2.86-.04.37.35.69.69.69.41 0 .64-.32.69-.69.24-2.08-.26-4.24-1.34-6.03Z" class="cls-18"/><path d="M134.61 84.26c1.04 1.82 1.89 3.74 2.56 5.72.12.35.47.58.84.48.34-.09.6-.49.48-.84-.71-2.1-1.61-4.13-2.7-6.05-.44-.77-1.62-.08-1.19.69Z" class="cls-18"/><path d="M137.49 90.49c.87.74 1.86 1.33 2.78 2.01.77.56 1.46 1.24 2.06 1.98 1.2 1.48 2 3.26 2.38 5.12.22 1.05.28 2.13.19 3.21-.03.37.34.69.69.69.39 0 .66-.32.69-.69.31-4.09-1.46-8.37-4.65-10.98-1.02-.83-2.17-1.46-3.17-2.31-.28-.24-.69-.28-.97 0-.25.25-.28.73 0 .97Z" class="cls-18"/></g><g id="Layer_10"><path d="m79.78 191.93-12.55 2.04s-6.89-3-10.39-5.64c-3.5-2.63-11.71-9.21-15.09-12.32-5.94-5.46-8.64-9.03-14.26-16.08-2.86-3.59-8.39-12.37-8.39-12.37s-.02-6.23.04-8.06 1.19-11.85 1.74-14.02c.55-2.16 2.32-8.52 4.05-11.31 1.73-2.79 5.33-6.59 7.77-8.32 2.44-1.73 6.67-3.83 8.31-4.51s3.4-1.09 3.4-1.09l12.91-5.19-3.97-10.51-.84-1.44L64.99 83l-1.28 4.6-.75 2.48 6.55 14.47s4.99 23.32 5.98 29.45c1 6.13 2.45 17.73 2.8 20.31.35 2.58 1.72 25.02 1.62 28.41s-.14 9.2-.14 9.2Z" class="cls-11"/><path d="m65.57 96.42-2.6-6.32s1.4-4.47 1.54-5.03 1.81-7.76 1.85-8.77-.31-6.2-.38-7.25c-.07-1.05-.16-4.55-.16-4.55s-1.19 2.16-2.32 2.35-2.54-1.3-2.82-2.89c-.28-1.59-.89-4.13-.75-5.5s1.04-2.28 1.04-2.28 2.43-.33 3.03.36c.6.69 1.19 1.54 1.57 2.21s.78 1.49.78 1.49 3.39-2.88 3.95-3.16 2.51-2.27 2.51-2.27-.67-2.32-.83-3.49-.42-3.19 0-4.47 1.06-1.99 2.16-2.81c1.1-.82 3.64-1.28 4.89-.95s3.78 1.35 4.87 1.62c1.09.27 2.5 1.15 4.25.79 1.75-.37 3.19-1.05 4.19-1.68 1-.63 1.13-1.37 1.41-1.4s1.09 1.58 1.7 2.5c.61.92 1.74 4.41 2.19 5.6.46 1.19.68 6.13.9 8.42.22 2.29-.24 8.74-.53 11.02s-2.27 7.98-3.05 9.33c-.78 1.34-4.42 4.94-4.55 5.04s-.84 1.28-.84 1.48-.33 9.42-.33 9.42-1.82 1.3-4.02 1.77c-2.2.47-8.95 1.41-10.98 1.25-2.03-.16-7.33-.89-7.45-1.22s-1.24-.6-1.24-.6ZM134.15 116.52c.07-.29 1.34-6.64 1.34-6.64s10.67.69 12.16.82c1.49.13 4.84.13 4.84.13l-.51 5.69-.06 1.95-17.77-1.95ZM156.35 106.81c.34-.28 2.96-2.82 3.62-3.7s.81-1.48 1.62-2.33 1.95-1.9 2.18-2.52c.23-.62.36-2.02.27-2.32s.01-.92.01-.92 1.36-1.66 1.15-2.43-.12-.94-.62-1.3-2.57-1.01-2.57-1.01.51-.63 1.13-1.1c.61-.47 1.53-1.93 1.53-2.47s-.3-2.27-.92-2.65-1.96-.79-1.96-.79-.17-.59-.01-.81 1.08-1.75 1.47-2.33.91-2.4.42-3.26-.96-1.69-1.89-1.67c-.93.02-4.19 1.67-5.19 2.26s-2.77 1.45-3.58 2.24c-.81.78-1.96 1.52-1.62 2.53.34 1.01.7 1.21 1.69 1.05s5.04-1.13 5.04-1.13h.96l-.64 2.71s-6.2 4.14-6.87 4.65c-.67.51-1.58 1.03-1.82 1.74-.24.72-.35 2.16.86 2.21s2.47-.23 2.47-.23-2.19 1.26-2 2.43c.19 1.17 0 1.53.85 1.62s5.18-.43 5.18-.43v1.19s-1.73.73-2.59 1.37-1.84 1.19-1.44 1.97.59.47 1.87.58c1.29.11 1.63.17 1.63.17l-.23 4.7Z" class="cls-12"/><path d="m98.75 169.59 1.23 19.09-15.05 2.36-5.15.89s.54-12.63.43-14.24-1.92-24.47-2.31-27.45-1.91-13.54-2.59-17.32c-.68-3.78-3.21-16.48-3.71-18.74-.5-2.26-2.08-9.11-2.08-9.11l-3.95-8.65s5.04 1.5 7.16 1.67c2.11.17 8.96-.31 10.74-.7s5.79-2.16 5.79-2.16l.87 1.01 1.65 6s.6 10.26.72 11.46 2.08 18.8 2.44 21.76c.36 2.96 3.02 25.65 3.17 27.17s.65 6.96.65 6.96Z" class="cls-4"/><path d="m51.03 174.49 4.28-4.02s2.77-6.12 4.02-8.09c1.25-1.98 2.7-3.77 3.46-4.48.76-.71 2.23-2.05 2.97-2.5.74-.45 2.42-1.15 3.53-.84s2.47.32 2.47.32 1.83-1.34 2.43-1.38 1.86.63 2.4.84.98.36 1.71 0 1.22-1.78 2.64-1.54c1.41.25 1.48 1.15 2.13 1.71.65.55 1.12 1.55 1.12 1.55l3.06-1.18s1.3.75 1.86 2.44 1.86 6.15 1.69 7.67c-.16 1.51-.36 5.49-.26 6.32.1.83.26 1.88.18 2.77-.08.89-1.92 2.67-2.05 3.18-.13.52-1.81 1.51-3.14 1.54s-3.34.13-4.6 0-1.06.5-1.99.98-5.9 3.24-6.94 3.72c-1.05.48-4.56.15-5.4 0-.85-.15-3.39.72-3.82.83s-2.33 3.03-2.33 3.03-5.09-6.89-6.18-8.55-3.25-4.3-3.25-4.3Z" class="cls-12"/></g><g id="Layer_4-2"><path d="M48.25 171.64c3.12 4.58 6.33 9.1 9.68 13.51 1.03 1.35 2.06 2.68 3.1 4.02.23.29.73.24.97 0 .29-.29.23-.68 0-.97-3.36-4.31-6.63-8.69-9.76-13.17-.94-1.35-1.88-2.71-2.81-4.07-.21-.31-.6-.44-.94-.25-.3.18-.46.63-.25.94Z" class="cls-11"/><path d="M90.55 165.46c.3.24.57.5.83.78l.18.21c.03.04.06.08.1.12.07.08-.05-.08 0 0 .11.16.23.32.34.49.21.32.39.65.56.99.09.18.18.37.26.55.02.04.03.08.05.12.03.07-.03-.07.02.04l.12.3c.13.33.47.6.84.48.32-.11.62-.49.48-.84-.62-1.58-1.45-3.14-2.8-4.22-.28-.22-.7-.29-.97 0-.23.25-.3.73 0 .97Z" class="cls-13"/><path d="M79.24 179.53c0 4.13-.09 8.26-.14 12.39-.01.88 1.36.88 1.37 0 .05-4.13.15-8.26.14-12.39 0-.88-1.37-.89-1.37 0ZM112.46 186.88c-.34-.35-.67-.71-.98-1.08a.464.464 0 0 0-.22-.14.595.595 0 0 0-.27-.06c-.17 0-.37.08-.49.2s-.21.3-.2.49l.03.18c.03.12.09.22.18.3.32.37.64.73.98 1.08.12.13.31.2.49.2s.37-.08.49-.2.21-.3.2-.49-.07-.35-.2-.49Z" class="cls-11"/><path d="M156.25 118.52c-.08-.29-.35-.48-.66-.5-6.6-.4-13.19-.99-19.76-1.78-1.81-.22-3.63-.46-5.44-.71h-.07c-.24-.04-.51.04-.65.24a.95.95 0 0 0-.1.17c-.9 1.9-1.86 3.77-2.82 5.63-1.3 2.55-2.61 5.1-3.87 7.67l-.51 1.05c.05-1.89.12-3.77.04-5.66-.05-1.4-.23-2.82-.41-4.21-.21-1.61-.5-3.2-1.01-4.74-1.79-5.44-5.66-9.86-10.32-13.08-2.5-1.73-5.25-3.13-8.15-4.07-.21-.07-.43 0-.6.13l-1.95-2.45-5.95-2.57.55-2.96 1.71-7.07-4.4-.59-2.07 1.83-.09 1.86-.1 7.99s1.27 4.63 1.74 6.08c.47 1.46 1.56 16.93 1.81 19.13.24 2.21 2.23 16.26 2.34 20.47.11 4.21 2.47 14.81 2.58 22.25.06 4.17.64 11.82 1.15 17.75-.19.12-.33.34-.32.57.13 2.69.19 5.39.25 8.08.02.88 1.39.89 1.37 0 0-.14 0-.28-.01-.43l10.04-1.24 8.22-.72 5.8 1.83.32 1.05c-.22.16-.32.5-.26.75.11.39.48.53.84.48 4.73-.68 9.02-2.94 12.31-6.4 1.53-1.61 2.84-3.42 3.96-5.33 1.4-2.39 2.62-4.91 3.68-7.47.9-2.19 1.65-4.43 2.34-6.7l2.16-7.11a150.69 150.69 0 0 0 4.26-18.05 150.887 150.887 0 0 0 2.11-20.8.62.62 0 0 0-.1-.37Z" class="cls-11"/><path d="M111.51 132.27c.55-2.83 1.26-5.62 2.14-8.37.11-.35-.13-.75-.48-.84-.37-.1-.73.13-.84.48-.88 2.75-1.59 5.54-2.14 8.37-.07.36.1.74.48.84.34.09.77-.11.84-.48Z" class="cls-11"/><path d="M65.51 96.91c3.14 1.44 6.57 2.05 10.01 2.04 1.79 0 3.58-.17 5.35-.43 1.61-.23 3.22-.51 4.79-.93 1.66-.44 3.27-1.11 4.55-2.29.27-.25.25-.72 0-.97-.27-.27-.7-.25-.97 0-1.01.93-2.28 1.46-3.58 1.83-1.48.43-3.02.7-4.55.94-3.22.51-6.56.7-9.79.15-1.76-.3-3.49-.79-5.11-1.54-.34-.16-.74-.1-.94.25-.17.3-.09.78.25.94ZM69.28 104.43c5.79 1.37 12 1.26 17.64-.73 1.59-.56 3.14-1.27 4.6-2.12.76-.44.07-1.63-.69-1.19-4.96 2.89-10.78 3.94-16.46 3.46-1.59-.13-3.17-.39-4.72-.76-.86-.2-1.23 1.12-.37 1.32Z" class="cls-4"/><path d="M57.14 94.4c-1.32.51-2.65 1.01-3.99 1.48-.34.12-.6.47-.48.84.11.33.48.61.84.48 1.34-.48 2.67-.97 3.99-1.48.33-.13.6-.47.48-.84-.11-.32-.49-.62-.84-.48Z" class="cls-11"/><path d="M66.16 61.03c.88 0 .89-1.37 0-1.37s-.89 1.37 0 1.37Z" class="cls-18"/><path d="M92.84 22.9s.01.01 0 0ZM92.81 22.88s.02.03.03.03c0 0-.01-.02-.02-.03ZM92.83 22.86v.01-.01z" class="cls-20"/><path d="M92.83 22.87c0 .01.01.02.01.03 0 0-.01-.02-.02-.02ZM92.83 22.86h-.01.01z" class="cls-20"/><path d="M95.36 44.81c1.29.41 2.79-.2 3.45-1.37.18-.31.08-.76-.25-.94-.33-.17-.75-.09-.94.25-.03.05-.06.11-.1.16-.02.02-.08.11-.01.02s0 0-.02.02c-.08.09-.17.18-.26.26-.02.02-.04.03-.06.05.15-.13.08-.06.03-.03s-.1.07-.16.1-.11.06-.16.09c-.03.01-.06.03-.08.04.04-.02.15-.06.04-.02s-.22.08-.34.1c-.06.01-.12.03-.18.03.04 0 .17-.02.05 0h-.09c-.03 0-.37 0-.37-.01 0 0 .18.03.07 0-.03 0-.06-.01-.09-.02-.07-.01-.13-.03-.2-.05-.34-.11-.76.13-.84.48-.08.38.11.73.48.84ZM95.04 60.7v.16c0 .09.02.18.06.27.03.08.08.16.14.22.06.07.13.11.22.14.08.04.17.06.27.06l.18-.03a.58.58 0 0 0 .3-.18l.11-.14c.06-.11.09-.22.09-.35v-.16a.66.66 0 0 0-.06-.27.636.636 0 0 0-.14-.22.464.464 0 0 0-.22-.14.595.595 0 0 0-.27-.06l-.18.03a.58.58 0 0 0-.3.18l-.11.14c-.06.11-.09.22-.09.35ZM79.63 61.38c.88 0 .89-1.37 0-1.37s-.89 1.37 0 1.37ZM95.31 67.73c-.21-.46-.56-.77-.97-1.05-.43-.3-.51-.75-.65-1.25-.16-.61-.37-1.2-.61-1.78-.52-1.25-1.21-2.39-2.04-3.45-.23-.29-.73-.24-.97 0-.29.29-.23.68 0 .97.62.78 1.14 1.65 1.56 2.55.21.44.38.89.53 1.36.15.46.24.94.4 1.39.19.53.47.95.93 1.29.16.12.3.2.42.31.02.02.04.05.07.07v.02c.02.04.04.07.07.11 0 .01.03.07.04.08.02.06.04.12.06.17 0 .03.03.13.03.14 0 .07.01.15 0 .22 0 .04-.02.16-.01.18-.01.08-.03.15-.05.22-.01.04-.03.08-.04.12-.04.08-.08.15-.12.22 0 .02-.02.03-.03.04l-.08.09c-.02.02-.05.04-.07.07l-.02.02c-.06.04-.13.09-.19.12-.15.06-.16.03-.23-.04-.37-.36-.76-.66-1.31-.58-.46.06-.8.36-1.11.67-.11.11-.28.29-.37.35l-.12.07c.04-.03-.09.02-.15.04H90.11c-.16-.03-.31-.08-.46-.13-.01 0-.05-.02-.06-.02-.01 0-.03-.01-.04-.02-.08-.04-.16-.07-.23-.11-.16-.08-.31-.16-.47-.24-.65-.33-1.35-.65-2.1-.52-.52.09-.85.41-1.23.74-.03.03-.19.13-.12.11-.04.02-.18.05-.18.05H85.05c-.05 0-.09-.02-.14-.03-.01 0-.09-.03-.1-.03a1.71 1.71 0 0 1-.23-.13c.06.05-.13-.14-.12-.12-.06-.08-.15-.3-.16-.38-.05-.4.09-.79.36-1.09.25-.27.27-.7 0-.97-.25-.25-.72-.27-.97 0-.75.81-1.04 2.07-.46 3.05.51.86 1.66 1.31 2.61.94.27-.11.49-.26.7-.46.09-.08.17-.19.27-.25.02-.02.06-.03.08-.05h.01c.05 0 .17-.03.14-.03h.18c.04 0 .08.02.11.03.1.03.19.05.29.09.04.01.08.03.11.04.09.04.18.08.26.12.17.08.33.17.5.25.36.18.73.36 1.12.46.39.09.81.11 1.19-.02.46-.16.78-.49 1.12-.82.05-.05.16-.16.19-.18.01 0 .04-.02.06-.04l.01.01c.04.05.09.09.14.14.49.48 1.11.63 1.75.36.9-.37 1.4-1.26 1.47-2.2.03-.45-.06-.9-.25-1.3Zm-5.17 2.76s.06.01 0 0Zm2.08.22c.04 0 .02 0 0 0Zm1.87-1.29c0-.02.03-.07 0 0Z" class="cls-18"/><path d="M84.24 74.13c-.22.02-.38.06-.58.16-.06.03-.12.08-.17.12s-.12.09-.17.14c-.1.11-.19.22-.25.35-.04.09-.08.18-.11.27s-.04.2-.05.31c-.02.14 0 .3.04.44s.09.28.18.4a1.49 1.49 0 0 0 .82.59c.28.08.61.09.89 0 .35-.11.62-.32.82-.62.08-.12.14-.27.19-.4.05-.15.07-.31.07-.47s-.02-.31-.05-.45-.1-.3-.18-.43c-.21-.33-.54-.55-.93-.61-.23-.03-.45 0-.66.11-.22.12-.38.33-.45.57a.7.7 0 0 0 .07.53c.08.14.25.28.41.32.18.04.37.03.53-.07s.26-.23.32-.41c0-.01 0-.03.01-.04l-.07.16s.02-.03.03-.05l-.11.14.05-.05-.14.11s.04-.02.05-.03l-.16.07s.05-.02.08-.02l-.18.03h.13l-.18-.03c.05 0 .1.02.15.04l-.16-.07s.09.05.14.08l-.14-.11s.07.06.1.1l-.11-.14c.04.06.08.12.11.19l-.07-.16c.03.08.05.16.07.24l-.03-.18c.01.09.01.18 0 .27l.03-.18c-.01.09-.03.18-.07.26l.07-.16c-.03.07-.06.13-.11.19l.11-.14c-.04.06-.09.11-.15.15l.14-.11c-.05.04-.11.07-.16.09l.16-.07a.83.83 0 0 1-.21.06l.18-.03h-.24l.18.03a.865.865 0 0 1-.23-.06l.16.07a.724.724 0 0 1-.19-.11l.14.11s-.09-.08-.13-.13l.11.14s-.06-.09-.08-.15l.07.16a.47.47 0 0 1-.04-.16l.03.18v-.2l-.03.18c0-.07.03-.14.06-.21l-.07.16c.03-.07.06-.13.11-.19l-.11.14c.04-.05.09-.1.14-.14l-.14.11s.09-.06.14-.08l-.16.07c.05-.02.1-.04.16-.04l-.18.03h.03c.19-.02.35-.07.49-.2.12-.12.21-.31.2-.49s-.07-.36-.2-.49c-.13-.12-.31-.22-.49-.2Z" style="fill:#705e55"/><path d="M112.62 151.16c-.15-6.16-.51-12.3-1.19-18.41-.65-5.9-1.56-11.77-2.9-17.55-.66-2.88-1.42-5.75-2.32-8.56-.9-2.82-2.06-5.78-3.63-8.41-.39-.66-.82-1.3-1.27-1.93a.788.788 0 0 0-.37-.29.604.604 0 0 0-.21-.17c-2.09-1.14-4.29-2.1-6.55-2.86-.35-.12-.75.14-.84.48-.1.38.13.73.48.84s.07.02.1.04l-.78 4c-.48-.12-1.09.43-.79 1.03 1.28 2.6 2.25 5.37 3.19 8.1.95 2.75 1.79 5.53 2.55 8.34 1.52 5.65 2.67 11.39 3.55 17.17.88 5.78 1.49 11.6 1.95 17.42.46 5.83.76 11.7 1 17.56.24 5.85.22 11.98 1.32 17.87.13.73.29 1.46.46 2.18.16.66.97.6 1.25.14l2.32-.46c.22.57 1.27.47 1.34-.3.54-5.9.94-11.81 1.18-17.73.25-6.16.32-12.32.17-18.48Z" class="cls-15"/><path d="M73.54 170.53c-.41.37-1.08.75-1.59.93-.33.11-.67.2-1.01.26-.03 0-.29.04-.14.02l-.26.03c-.18.02-.35.02-.53.03-.36 0-.7.31-.69.69s.3.69.69.69c1.65-.03 3.26-.56 4.5-1.67.27-.24.26-.73 0-.97a.7.7 0 0 0-.97 0ZM67.97 165.92c-.05-.02-.1-.03-.15-.05.68-.86 1.04-1.97.81-3.07-.08-.35-.51-.59-.84-.48-.37.12-.56.47-.48.84s.01.07.02.1c0 .06.01.12.01.18V163.73c-.02.13-.05.26-.09.38-.02.07-.05.13-.07.2v.03c0 .02-.02.03-.03.05-.06.12-.13.24-.2.36l-.12.18c-.01.02-.08.1-.02.03a4.849 4.849 0 0 1-.6.6c-.41-.03-.83-.02-1.24.02-.86.09-1.66.25-2.34.83-.99.85-1.3 2.5-.31 3.48.05.05.1.08.16.11.81.64 1.64 1.25 2.54 1.76.31.18.76.08.94-.25s.09-.75-.25-.94c-.44-.25-.87-.52-1.29-.81-.21-.14-.41-.29-.61-.44-.05-.04-.1-.08-.15-.11-.07-.06.1.08.03.02-.03-.02-.05-.04-.07-.06-.11-.08-.21-.16-.31-.25-.03-.03-.11-.14-.08-.08-.01-.02-.03-.04-.04-.07 0-.02-.02-.03-.02-.05.01.02-.03-.07-.04-.11l-.03-.12V168.25c.03-.1.05-.19.08-.29v-.02s0-.02.02-.03c.03-.05.06-.11.09-.16.02-.03.04-.05.05-.08.01-.01.05-.07.06-.08.05-.05.1-.11.16-.16.01-.01.05-.04.08-.06.09-.06.19-.12.3-.18.01 0 .03-.01.04-.02 0 0 .02 0 .05-.02.06-.02.12-.04.19-.06.34-.09.69-.13 1.04-.15.82-.05 1.6.03 2.37.31.35.13.75-.14.84-.48.11-.38-.13-.72-.48-.84Zm-4.9 2.58s0 .03 0 0ZM68.34 183.18c-.12 0-.24-.01-.37-.03h-.08c.11.02.13.02.06 0-.05 0-.1-.02-.15-.03-.18-.03-.36-.08-.54-.12-.44-.12-.87-.23-1.32-.33-.35-.08-.76.11-.84.48-.08.35.11.76.48.84.92.22 1.81.51 2.75.56.36.02.7-.33.69-.69a.705.705 0 0 0-.69-.69ZM81.7 178.01c-3.09.73-5.62 2.75-8.44 4.11-.75.36-1.53.67-2.34.87-.86.22-.49 1.54.37 1.32 3.05-.76 5.56-2.8 8.36-4.12.78-.37 1.58-.66 2.42-.86s.5-1.53-.37-1.32Z" class="cls-18"/><path d="M104.34 189.05c.12-.18.17-.41.12-.6-.11-.4-.48-.53-.84-.48-1.54.21-3.08.43-4.62.65-.69-3.47-1.35-6.94-2.11-10.39-.23-1.03-.46-2.05-.71-3.08-.12-.5-.62-.58-.98-.4-.53-.8-1.55-2.1-1.55-2.1l-.45-.35c-.14-.49-.29-.99-.44-1.48-.11-.35-.48-.58-.84-.48-.35.1-.59.49-.48.84.72 2.25 1.28 4.56 1.81 6.86.61 2.63 1.15 5.28 1.61 7.94.11.67.22 1.34.32 2.01.03.16.05.32.07.49 0 .07.02.13.03.2 0 .03 0 .06.01.09v.06c.01.1.02.2.04.29-1.14.16-2.28.32-3.41.49-3.98.57-7.96 1.15-11.94 1.74-2.2.32-4.4.65-6.6.99-.37.05-.57.52-.48.84.08.3.31.45.58.48l.53 1.41 31.14-4.3-.81-1.73ZM70.95 193.84a.7.7 0 0 0 .07-.53c-.05-.16-.16-.33-.32-.41a.806.806 0 0 0-.53-.07l-2.74.42a.7.7 0 0 0-.48.85c.05.16.16.33.32.41.17.09.34.1.53.07h.06l1.77 1.68 1.71-.5-.49-1.78s.08-.09.1-.13ZM124.57 187.46c-1.97-.24-3.9-.78-5.73-1.53-.16-.07-.34-.03-.49.05-3.96.52-7.92 1.05-11.87 1.6-.37.05-.57.52-.48.84.11.4.48.53.84.48s.06 0 .08-.01l.65 1.59 14.74-2.04c.74.16 1.5.29 2.26.39.37.05.69-.35.69-.69 0-.41-.32-.64-.69-.69Z" class="cls-13"/><path d="M142.28 66.61c-.94-.16-1.91-.09-2.78.31-.94.43-1.45 1.39-1.68 2.36s-.28 2.06-.38 3.09c-.1 1.03-.21 2.11-.32 3.17-.46 4.42-.96 8.83-1.42 13.24-.24 2.38-.47 4.77-.66 7.16-.03.37.34.69.69.69.4 0 .66-.32.69-.69.33-4.14.77-8.27 1.21-12.4.45-4.13.91-8.26 1.29-12.4.05-.52.1-1.03.22-1.54.06-.23.12-.45.22-.66.06-.12.13-.24.21-.36.08-.13.05-.08.16-.19s.24-.19.44-.28c.11-.05-.07.03.05-.02.06-.02.12-.04.19-.06.1-.03.2-.05.31-.08.19-.04.37-.05.61-.05h.31c.14 0 .21.02.26.03.37.06.74-.1.84-.48.09-.33-.11-.78-.48-.84ZM157.98 82.14l-.24 2.71c-.03.36.34.7.69.69.4-.02.65-.3.69-.69l.24-2.71c.03-.36-.34-.7-.69-.69-.4.02-.65.3-.69.69Z" class="cls-6"/><path d="M159.32 68.72c-.59-.34-1.29-.43-1.96-.49-.05-.01-.1-.02-.15-.02-4.01-.31-8.01-.71-12-1.22-1.12-.14-2.24-.3-3.35-.45-.21-.03-.41 0-.57.11-.91-.12-1.83-.24-2.74-.37-.1-.01-.2-.01-.29 0-.71-.03-1.42.08-2.08.39-.94.43-1.45 1.39-1.68 2.36s-.28 2.06-.38 3.09c-.1 1.03-.21 2.11-.32 3.17-.46 4.42-.96 8.83-1.42 13.24-.24 2.33-.46 4.67-.65 7-.18 2.11-.42 4.22-.64 6.32-.12 1.12-.24 2.24-.34 3.36-.09 1.01-.26 2.08-.04 3.09.22 1.01 1.02 1.7 2.03 1.92s2.16.3 3.24.41c2.28.25 4.57.44 6.86.57.71.04 1.42.08 2.12.11l1.37.09c1.54.09 3.07.15 4.61.18.76.02 1.53.02 2.29.02.69 0 1.4.04 2.04-.25.76-.35 1.09-1.11 1.22-1.89.14-.88.24-1.77.33-2.66.16-1.48.27-2.95.43-4.43.04-.37-.35-.69-.69-.69-.31 0-.52.18-.62.43-.73.11-1.63.23-2.06.24-.78.02-.83-1-.57-1.77s3.25-1.94 3.25-1.94l.83-1.86-1.42.17s-3.3.4-4.07.31-.66-.46-.85-1.62 2-2.43 2-2.43-1.06.17-1.72.22-1.71-.82-1.61-1.23.29-1.47 1.27-2.41c.98-.94 7.42-4.96 7.42-4.96l.24-2.92s-3.64 1.1-5.17 1.35c-1.53.25-1.77-.04-2.11-1.05-.34-1.01.67-1.46 1.62-2.53.86-.97 5.13-3.15 5.94-3.56.1.05.21.08.31.08.4 0 .65-.32.69-.69l.24-2.54c.07-.77.21-1.57.21-2.35s-.35-1.52-1.05-1.93Z" class="cls-6"/><path d="M165.77 93.71c.17-.57.19-1.23 0-1.81-.21-.63-.62-1.09-1.16-1.46-.49-.34-1-.44-1.53-.43.06-.03.12-.07.18-.1.63-.38 1.17-.82 1.55-1.46.33-.56.49-1.2.54-1.84.04-.65-.05-1.28-.27-1.87-.24-.65-.74-1.17-1.33-1.51-.47-.28-.96-.38-1.47-.33.49-.7.94-1.42 1.34-2.17 0-.02.01-.03.02-.05.71-.75 1.08-1.77.96-2.84-.16-1.34-.9-2.71-2.27-3.2-.86-.31-1.82-.15-2.6.3-1.65.87-3.27 1.78-4.88 2.73-1.34.79-2.81 1.61-3.64 2.98-.4.66-.65 1.47-.45 2.24.22.86 1.04 1.34 1.9 1.31.79-.02 1.58-.3 2.33-.51.84-.23 1.67-.46 2.51-.71 1.32-.39 2.63-.8 3.92-1.25l-.12.18c-.19.28-.38.55-.59.81-.01.01-.02.03-.03.03l-.09.12-.17.21c-.13.16-.26.31-.39.47a.76.76 0 0 0-.12.19c-.15.07-.3.14-.45.2-2.93 1.32-5.74 2.93-8.26 4.93-.6.41-1.19.87-1.65 1.43-.39.46-.74 1-.75 1.63 0 .59.24 1.34.69 1.75.42.38 1.06.48 1.63.46-.23.25-.42.54-.57.86-.23.52-.33 1.12-.14 1.67.21.6.69 1.02 1.28 1.23.51.18 1.08.17 1.62.11.68-.07 1.36-.18 2.03-.28.32-.04.64-.09.97-.13-.68.32-1.34.67-1.98 1.06-.72.43-1.46.93-1.8 1.74-.3.73-.19 1.67.44 2.19.72.59 1.71.42 2.56.32.94-.11 1.88-.28 2.8-.51.55-.14 1.1-.3 1.64-.49a24.412 24.412 0 0 1-4.12 4.38c-.29.24-.24.73 0 .97.28.28.68.24.97 0 2.2-1.82 4.08-4.03 5.54-6.48v-.02c.22-.14.43-.3.63-.46 1.37-1.14 2.25-3.11 1.6-4.87.53-.45.94-1.02 1.15-1.75Zm-12.14-11.06c-.28.07-.6.16-.85.19-.27.02-.49.02-.63-.14a.479.479 0 0 1-.07-.16c0-.04-.01-.05-.02-.06v-.3c.02-.19.15-.52.28-.74.66-1.14 1.94-1.82 3.04-2.48 1.65-.98 3.33-1.92 5.03-2.82.01 0 .02-.01.03-.02a1.964 1.964 0 0 1 1.16-.25l.14.03c.08.02.17.05.25.08.03.01.05.02.14.07.51.28.78.73.95 1.26.05.14.09.28.12.43 0 .04.01.08.02.12 0 0 .02.15.02.17v.37c0 .02-.02.15-.02.17 0 .05-.02.1-.03.15-.03.14-.07.28-.12.41-.01.02-.05.1-.05.11-.03.06-.07.12-.1.18-.11.18-.29.37-.47.52a96.554 96.554 0 0 1-8.82 2.71Zm-3.15 10.07s-.02-.01-.05-.03c-.05-.08-.1-.16-.13-.24-.02-.05-.08-.22-.09-.32-.06-.32 0 .05-.01-.13v-.1c.01-.04.02-.08.04-.12 0-.02 0-.03.01-.04 0 0 .02-.02.03-.05.06-.11.13-.22.21-.33.36-.48.91-.92 1.42-1.27.03-.02.05-.04.08-.06.02-.01.04-.03.06-.04 1.98-1.6 4.18-2.91 6.45-4.04 1.13-.56 2.29-1.12 3.47-1.55.53-.2.87-.16 1.31.17.44.34.54.61.65 1.15.18.89 0 1.92-.73 2.58-.42.39-.99.65-1.48.93-.55.31-1.1.6-1.66.89-2.23 1.11-4.6 1.97-7.06 2.43-.61.11-1.24.24-1.86.26-.28 0-.41.01-.65-.08Zm3.68 3.84c-.52.07-.91.15-1.44.14-.23 0-.32 0-.53-.07-.16-.05-.27-.1-.37-.22a.826.826 0 0 1-.12-.26v-.19c.02-.11.05-.23.09-.34.12-.3.4-.64.7-.87.39-.3.86-.54 1.31-.72 1.24-.49 2.55-.81 3.83-1.18l4.09-1.2h.02c.22-.06.45-.12.67-.17.1-.02.2-.05.3-.07.05 0 .09-.02.14-.03h.09c.08 0 .17-.01.25-.01.04 0 .16.02.16.02.05.01.11.02.16.04 0 0 .03 0 .05.02 0 0 .1.05.11.05.34.18.61.4.76.74 0 .01.05.18.06.2l.03.15v.04c.02.21 0 .41-.03.55-.18.83-.84 1.4-1.62 1.78-.98.48-2.12.67-3.19.84-1.22.19-2.45.35-3.68.52l-1.85.26Zm8.26 2.46c-.96.96-2.28 1.46-3.55 1.84-.76.23-1.54.42-2.32.56-.73.13-1.48.26-2.22.25-.13 0-.23 0-.35-.04-.02 0-.14-.08-.11-.05-.14-.16-.13-.35-.08-.56.05-.17.21-.39.39-.55.24-.23.53-.4.82-.57 1.45-.88 2.98-1.58 4.59-2.1.31-.1.52-.39.5-.7 1.07-.17 2.27-.41 3.31-.88.2 1.01-.22 2.05-.98 2.8ZM134.87 109.31c-.12 1.11-.34 2.31-.58 3.47-.3 1.47-.64 2.93-1.01 4.39-.22.86 1.11 1.22 1.32.37.68-2.7 1.34-5.45 1.63-8.22.04-.37-.34-.69-.69-.69-.4 0-.65.32-.69.69ZM151.81 111.6l-.81 7.77c-.04.37.34.69.69.69.4 0 .65-.32.69-.69l.81-7.77c.04-.37-.34-.69-.69-.69-.4 0-.65.32-.69.69Z" class="cls-18"/><path d="M76.28 134.48c-1.05-6.25-2.27-12.48-3.61-18.68-.79-3.65-1.62-7.28-2.48-10.92a.659.659 0 0 0-.11-.24c-2.52-5.38-4.89-10.82-7.09-16.34-.59-1.49-1.17-2.98-1.74-4.48 1.18 0 2.37 0 3.55-.01.88-.01.89-1.39 0-1.37-4.09.06-8.19-.08-12.28-.01-.04 0-.09 0-.13.02h-.04c-.02 0-.04.02-.06.02-.11.04-.2.1-.26.18-.16.17-.25.42-.16.64l5.06 12.22c.14.34.46.59.84.48.32-.09.62-.5.48-.84l-4.7-11.36c2.09-.02 4.17.01 6.26.03 0 .03.01.06.02.1a302.059 302.059 0 0 0 9.06 21.36c1.49 6.33 2.9 12.67 4.16 19.05 1.26 6.39 2.29 12.4 3.2 18.64.53 3.66 1.01 7.33 1.44 11.01.04.37.28.69.69.69.34 0 .73-.32.69-.69a398.94 398.94 0 0 0-2.77-19.49ZM96.29 82.92c-1.51-.12-3.01-.39-4.52-.33-.36.02-.7.3-.69.69.02.36.3.7.69.69 1.52-.07 3.02.21 4.52.33.36.03.7-.34.69-.69-.02-.4-.3-.66-.69-.69Z" class="cls-11"/><path d="M97.02 146.95c-1.13-9.4-2.35-18.8-3.34-28.21-.56-5.29-1.04-10.59-1.41-15.9.05-.07.09-.15.11-.24l3.56-14.65 1.01-4.15c.21-.86-1.11-1.22-1.32-.37l-3.56 14.65-.37 1.51c-.38-1.71-.86-3.41-1.42-5.07-.12-.35-.47-.58-.84-.48-.34.09-.6.49-.48.84.86 2.53 1.5 5.12 1.94 7.76v.11c.65 9.49 1.69 18.94 2.83 28.38 1.13 9.4 2.34 18.8 3.35 28.21.57 5.32 1.07 10.65 1.44 15.98.03.37.3.69.69.69.35 0 .71-.32.69-.69-.67-9.49-1.73-18.94-2.86-28.38ZM48.36 170.69c-2.08 1.34-4.1 2.79-6.04 4.33-.29.23-.24.73 0 .97.29.29.68.23.97 0a75.21 75.21 0 0 1 5.76-4.11c.31-.2.44-.61.25-.94-.18-.31-.63-.45-.94-.25Z" class="cls-11"/><path d="M52.38 173.24c-.06-2.9-1.55-5.65-3.91-7.33-1.3-.92-2.88-1.45-4.45-1.7-1.65-.26-3.32-.28-4.97-.06-1.89.25-3.71.8-5.43 1.62-.33.16-.42.64-.25.94.2.34.6.41.94.25 2.73-1.31 5.82-1.82 8.83-1.49 1.44.16 2.89.55 4.13 1.3a7.59 7.59 0 0 1 2.53 2.51c.75 1.2 1.17 2.56 1.21 3.96.02.88 1.39.89 1.37 0ZM37.02 103.9c1.88-.95 3.83-1.78 5.79-2.57.41-.17.82-.33 1.24-.5.34-.14.59-.46.48-.84-.09-.33-.5-.62-.84-.48-3.39 1.36-6.79 2.74-9.93 4.62-3.14 1.88-5.91 4.31-7.99 7.36-2.08 3.05-3.49 6.59-4.56 10.14-1.19 3.94-1.98 8-2.4 12.09-.42 4.09-.46 8.22-.1 12.31.04.5.1 1 .15 1.51.04.37.29.69.69.69.34 0 .73-.32.69-.69-.45-4.02-.52-8.07-.21-12.1.31-4.03.99-7.94 2.04-11.79.96-3.53 2.18-7.01 4.06-10.16.91-1.53 1.97-2.95 3.22-4.22 1.24-1.27 2.55-2.3 3.99-3.24.34-.22 1.2-.64 1.28-.65h.07c.79-.58 1.59-1.03 2.45-1.44h-.1Z" class="cls-11"/><path d="M62.61 144.92c-.09-4.5-.29-8.63-.64-12.94-.35-4.18-.84-8.36-1.51-12.5-.65-3.94-1.47-7.84-2.56-11.68-1.01-3.57-2.26-7.08-3.84-10.44-.18-.39-.37-.78-.57-1.16-.14-.4-.58-.61-.98-.64-.42-.03-.87.1-1.28.19a29.222 29.222 0 0 0-7.74 2.7c-.11.05-.19.14-.24.24-.21.21-.3.58-.12.84 1.92 2.76 3.18 5.95 4.26 9.11.33.96.63 1.93.93 2.9.17.56.8.59 1.14.3.7 1.76 1.39 3.45 1.78 4.35.85 2 1.97 11.14 2.25 13.33.28 2.18 1.17 11.03 1.24 13.28.07 2.26.49 11.6.38 13.24s-.37 2.15-.81 3.69c-.44 1.54-.12 2.17.43 3.3s.09 2.25.25 3.49c.16 1.24-.4 2.46-.92 3.34-.52.88-2.28 2.61-2.28 2.61s1.39.02 1.78-.34c.39-.37 1.42-1.37 2.03-2.34s1.48-2.1 1.85-3.13 1.57-3.15 2.38-4.76c.51-1.02 1.25-2.15 1.72-2.83.07.03.15.05.23.05.39 0 .67-.32.69-.69.22-4.5.27-9.01.18-13.51Z" class="cls-15"/><path d="M55.25 163.55c-.17-.62-.37-1.24-.43-1.89-.13-1.39.41-2.72.7-4.06.61-2.82.5-5.71.28-8.57-.22-2.85-.49-5.87-.73-8.8l-.75-8.93c-.23-2.72-.45-5.44-.83-8.14-.38-2.7-.9-5.22-1.79-7.72-.8-2.24-1.84-4.31-3.44-6.09-2.82-3.12-6.91-5.2-11.13-5.45-.86.41-1.66.87-2.45 1.44.6-.08 1.2-.11 1.8-.1 3.69.05 7.32 1.71 9.98 4.24 1.54 1.46 2.67 3.2 3.47 5.16.97 2.37 1.58 4.87 2 7.39s.66 5.14.88 7.73l.72 8.6.72 8.6c.23 2.76.51 5.55.24 8.33-.13 1.36-.5 2.64-.81 3.97-.16.67-.27 1.35-.26 2.04s.16 1.33.33 1.97.35 1.22.44 1.86c.08.54.08 1.1.04 1.64a7.38 7.38 0 0 1-.94 3.07c-.26.46-.56.88-.92 1.27-.6.65.37 1.62.97.97 1.63-1.77 2.46-4.23 2.26-6.62-.05-.65-.18-1.28-.35-1.9Z" class="cls-11"/><path d="M99.47 48.09c1-1.44 1.06-3.52-.03-4.93v-.01c.73-1.7.19-3.8-1.22-4.99.42-1.87-.47-3.97-2.11-4.97-.14-.95-.58-1.83-1.23-2.54a4.785 4.785 0 0 0-2.98-1.5h-.04a5.973 5.973 0 0 0-4.21-2.19c.3-.91.16-1.95-.38-2.74.36-.85.3-1.87-.15-2.67-.18-.31-.63-.45-.94-.25a.714.714 0 0 0-.18 1.05l.01.05c.01.03.03.07.04.11.03.09.05.19.07.29v.16c-.27-.03-.61.23-.95.67-.51.65-1.48.69-2.35.37s-1.13-1.11-2.03-1.15c-.9-.04-.5.52-.84 1.15-.34.63-.63.87-1.34 1.22s-1.18-.04-1.62-.7c-.43-.66-.99-.68-1.56-.63-.57.05-1.76-.29-2.13-.75-.37-.46-.05-.85.13-1.22s.01-.92-.02-1.48c-.01-.18-.05-.4-.12-.6.13-.26.1-.59-.12-.8-1.05-1.06-2.65-1.47-4.05-.88-.64.27-1.24.75-1.56 1.38-.19.39-.3.82-.27 1.25-1.32.02-2.59.7-3.29 1.88-.64 1.09-.81 2.78.08 3.71-.4 1.09-.24 2.35.34 3.35-.8.11-1.57.52-2.1 1.12-.78.88-1.1 2.03-1.13 3.19-1.08.39-2.03 1.17-2.57 2.2-.56 1.08-.65 2.31-.33 3.45-.89.81-1.47 1.88-1.62 3.09-.14 1.14.15 2.25.74 3.2-.7.85-1.08 1.97-.98 3.06.1 1.06.6 2.06 1.39 2.79-.59 1.89 0 3.97 1.49 5.29-.15.37-.26.75-.32 1.13-.26 1.65.1 3.35.65 4.91.28.81.59 1.62.96 2.39.34.71.85 1.39 1.57 1.74.63.31 1.3.32 1.9.09.08.23.18.45.33.64.13.18.27.33.44.47.14.11.28.21.43.3l.09 1.47c.09 1.81.14 3.62.06 5.42-.04.82-.1 1.64-.2 2.45-.53 3.62-1.38 7.18-2.52 10.66-.39 1.18-.81 2.35-1.24 3.51-.13.35.14.75.48.84.38.11.71-.13.84-.48 1.37-3.68 2.54-7.42 3.28-11.28.19-.99.35-1.99.5-2.99v-.1c0-.03.01-.05.02-.08.46-3.55.24-7.18-.03-10.74-.07-.97-.21-1.93-.3-2.9a.68.68 0 0 0-.21-.53c-.01-.02-.03-.03-.05-.05-.01 0-.02-.02-.03-.03l-.09-.06s-.01 0-.02-.01c-.03-.01-.06-.03-.09-.04 0 0-.02 0-.03-.01h-.01c-.03 0-.06-.01-.09-.01h-.11c-.03 0-.06 0-.09.01h-.01a.21.21 0 0 0-.11.04c-.02 0-.03.02-.05.02-.02 0-.03.02-.05.03-.16.1-.29.25-.33.43-.22.52-.45 1.07-.87 1.46-.34.32-.76.45-1.16.28-.53-.22-.84-.76-1.08-1.25-.29-.6-.53-1.23-.75-1.86-.47-1.31-.82-2.67-.74-4.07.02-.42.14-.97.32-1.35.21-.45.45-.78.81-.99.17-.1.39-.17.65-.17.3 0 .59.09.85.23.66.35 1.15.95 1.62 1.51.03.03.06.06.1.09.19.81.44 1.62.75 2.39.02.06.06.12.09.17 0 0 0 .02.01.03.17.3.64.47.94.25 2.41-1.76 4.72-3.69 6.87-5.75.19-.18.24-.4.19-.59 0-.08 0-.16-.03-.23-.31-.75-.62-1.5-.87-2.28-.12-.39-.23-.78-.31-1.18-.05-.26-.11-.61-.13-.78-.06-.46-.09-.92-.1-1.38.02-.44.08-.88.19-1.31.05-.19.11-.38.18-.57.07-.19.1-.24.21-.45.08-.15.16-.3.26-.44.05-.08.1-.15.15-.22 0-.01.09-.12.05-.06-.05.06.06-.07.07-.08.22-.26.46-.51.72-.72.01 0 .07-.06.11-.09.1-.04.19-.11.26-.18.12-.08.25-.16.38-.24.13-.08.26-.14.4-.21.07-.03.14-.07.22-.1.12-.05.02 0 0 0 .05-.02.11-.04.16-.06.47-.18.96-.31 1.45-.35 1.13-.1 2.25.12 3.34.42 1.09.3 2.17.68 3.23 1.08s2.12.77 3.25.91c.94.12 1.89.01 2.81-.21.24-.06.47-.12.7-.2.14.02.27-.01.38-.1.03-.02.06-.05.09-.07 1.25-.48 2.38-1.24 3.24-2.26 1.33 1.73 2.31 3.71 2.92 5.81.72 2.48.97 5.06 1.09 7.63.13 2.73.26 5.47.1 8.2-.11 1.93-.4 3.82-.88 5.7-.43 1.68-.92 3.36-1.48 5-.28.82-.58 1.64-.91 2.45 0 .01-.02.05-.03.06 0 0 0-.02.02-.05-.02.04-.03.08-.05.12-.04.09-.08.19-.13.28-.07.16-.15.32-.22.48-.14.28-.29.56-.45.83-.07.11-.14.21-.21.32v.01l-.01.02c-.05.05-.09.11-.13.16-.2.24-.41.47-.63.7-.54.57-1.11 1.11-1.68 1.65-.63.58-1.27 1.15-1.93 1.7-.15.12-.3.25-.46.37-.07.05-.13.1-.2.16 0 0-.11.09-.09.07a24.374 24.374 0 0 1-.87.63c-.2.13-.41.25-.62.36-.02 0-.04.01-.06.02h-.14c-.13 0-.26-.01-.39-.02-.08 0-.17-.02-.26-.03-.04 0-.07 0-.11-.01h-.04c-.38-.06-.75-.12-1.12-.21-1.76-.39-3.46-.98-4.9-2.07-.02-.02-.12-.1-.15-.12-.09-.07-.17-.15-.26-.23-.15-.13-.28-.28-.41-.43-.24-.28-.72-.25-.97 0-.28.28-.24.69 0 .97 1.24 1.45 3.16 2.27 4.94 2.83.81.25 1.65.46 2.5.58.55.08 1.23.23 1.77.02.5-.2.99-.53 1.44-.86-.09 3.39-.15 6.77-.64 10.13-.05.37.09.74.48.84.32.09.79-.11.84-.48.54-3.8.6-7.61.71-11.44v-.14c.23-.19.47-.39.69-.59 1.21-1.05 2.41-2.14 3.46-3.35.95-1.11 1.5-2.5 2.01-3.86.66-1.73 1.2-3.5 1.7-5.28.47-1.69.86-3.39 1.07-5.13.34-2.79.29-5.61.17-8.42-.09-2.22-.2-4.46-.53-6.66 0 0 .02-.01.02-.02a3.78 3.78 0 0 0 .61-3.94ZM86.93 86.03c-.1.04-.03 0 .03-.01-.01 0-.02 0-.03.01Zm.06 0H87Zm.01 0ZM61.77 184.08l-2.11 3.08c-.2.3-.07.78.25.94.35.19.72.07.94-.25l2.11-3.08c.2-.3.07-.78-.25-.94-.35-.19-.72-.07-.94.25Z" class="cls-18"/><path d="M48.47 127.36a343.653 343.653 0 0 1 5.06 10.94c.15.34.65.42.94.25.35-.2.4-.6.25-.94-1.29-2.93-2.63-5.83-4-8.73-.35-.74-.7-1.48-1.06-2.21-.16-.33-.64-.42-.94-.25-.34.2-.41.6-.25.94Z" class="cls-11"/><path d="M67.78 167.31c.32-.84.57-1.47.91-2.21.15-.34.1-.74-.25-.94-.3-.17-.78-.09-.94.25-1.36 3.02-2.36 6.2-3.23 9.38-.98 3.6-1.78 7.24-2.46 10.91-.36 1.93-.68 3.87-.95 5.82-.05.37.09.74.48.84h.02v.03l2.13 1c.12.22.38.38.62.38.4 0 .65-.32.69-.69.45-4.48 1.21-8.94 2.17-13.34.29-1.3.59-2.6.93-3.89.16-.6-.45-.96-.9-.82.02-1 .01-2.02-.04-2.14-.06-.13.04-1.48.13-2.65.22-.65.45-1.3.69-1.94Z" class="cls-13"/><path d="M125.25 187.9c-.13-.17-.32-.29-.53-.26-3.37.44-6.74.89-10.1 1.35-2.22.3-4.45.61-6.67.92-1.46-3.49-3.2-6.84-5.16-10.08-1.97-3.26-4.07-6.22-6.58-8.99a53.344 53.344 0 0 0-4.42-4.35c-.28-.24-.7-.27-.97 0-.25.25-.28.73 0 .97.1.09.19.18.29.26l-.27 1.67.24.31c-.3.06-.53.37-.53.67 0 .39.32.66.69.69.2.01.43.25.6.44.27.29.51.6.77.91.5.61 1 1.22 1.49 1.84a93.695 93.695 0 0 1 7.98 12.02 91.1 91.1 0 0 1 2.17 4.16l-.45.06c-3.72.53-7.45 1.06-11.17 1.6-3.73.54-7.46 1.09-11.19 1.65l-6.94 1.05c-1.08-3.27-2.01-6.59-2.72-9.97-.76-3.57-1.26-7.09-1.48-10.69-.13-2.05-.16-4.11-.1-6.17.02-.51-.43-.72-.82-.65l-.06-.19-.67-.28.12-.97c.05-.37-.09-.74-.48-.84-.32-.09-.79.11-.84.48-.54 3.76-.56 7.57-.27 11.35.31 4.11.96 8.2 1.82 12.23.45 2.11.98 4.21 1.55 6.3-.36.06-.73.11-1.09.17-.37.06-.57.52-.48.84.11.39.48.54.84.48.42-.07.84-.13 1.26-.19 3.24.67 10.86 1.28 14.88 1.63 4.94.43 17.24-1.05 22.95-2.21 5.71-1.16 16.01-4.74 16.01-4.74v-.05c.37-.02.69-.3.69-.69v-2.18c0-.23-.13-.46-.33-.58Z" style="fill:#fbae5e"/><path d="M67.35 163.21c.52 1.66.69 3.52 1.78 4.95.22.3.59.45.94.25.29-.17.47-.64.25-.94-.52-.69-.76-1.34-.99-2.16-.23-.82-.4-1.65-.65-2.46-.11-.35-.48-.58-.84-.48s-.59.49-.48.84ZM156.23 127.84c-.08-.25-.28-.46-.63-.45-3.69.07-7.4.13-11.07-.26-.27-.03-.51.17-.62.41-.08.08-.14.17-.16.29-.3 1.47-.51 2.97-.61 4.47-.02.3.22.58.51.66.02.02.04.03.07.04.9.4 1.88.43 2.85.48s1.86.05 2.79.05c1.86-.01 3.73-.1 5.59-.21a.72.72 0 0 0 .47-.2c.17-.08.32-.22.35-.42.23-1.51.41-3.02.54-4.54a.529.529 0 0 0-.08-.32ZM74.86 170.95c1-4.03.63-8.29-1-12.1-.14-.34-.65-.42-.94-.25-.35.21-.39.6-.25.94 1.47 3.46 1.76 7.4.86 11.05-.21.86 1.11 1.22 1.32.37Z" class="cls-18"/><path d="M91.71 167.64c-.08-2.27-.3-4.58-.76-6.81-.22-1.09-.52-2.16-.92-3.19-.21-.54-.44-1.06-.7-1.57-.26-.51-.52-1-.91-1.4-.78-.8-1.81-.67-2.69-.14-.32.19-.63.41-.97.58 0 0-.02 0-.04.02-.03 0-.06.02-.07.02-.03 0-.06.01-.09.02.03 0 .04-.02-.03 0H84.44h.06c-.02 0-.04 0-.06-.01-.03-.02-.15-.1-.05-.03 0 0 .03.01.05.03h-.01c-.02 0-.07-.03-.04-.02-.01-.01-.03-.02-.04-.03-.18-.48-.39-.94-.67-1.37-.56-.86-1.43-1.61-2.49-1.66s-1.73.79-2.56 1.33c-.33.21-.55.29-.95.38-.22.05-.22.04-.46.05h-.04c-.03 0-.06-.01-.09-.02-.02-.01-.03-.02-.03-.02-.01 0-.03-.02-.04-.03-.58-.54-1.28-.91-2.13-1-.8-.08-1.54.25-2.19.69-.54.37-1.04.79-1.64.93-1.23-.65-2.79-.73-4.11-.35-.6.17-1.15.52-1.66.87-.67.47-1.3.99-1.91 1.53-1.1.97-2.18 2.02-3.07 3.2-1.21 1.62-2.16 3.43-3.02 5.25-.89 1.89-1.73 3.78-2.89 5.52v.01l-4.14 3.89c-.27.25-.26.71 0 .97.27.27.7.25.97 0l4.61-4.33a.64.64 0 0 0 .19-.54c.79-1.29 1.44-2.64 2.08-4.01.81-1.74 1.66-3.45 2.71-5.05.15-.23.3-.46.46-.68.06-.08.11-.17.18-.25a.87.87 0 0 1 .09-.11c.03-.03.06-.08.07-.09.04-.05.08-.09.11-.14a32.316 32.316 0 0 1 1.85-1.93c.56-.54 1.14-1.05 1.75-1.54.19-.15.19-.15.35-.27.14-.1.28-.21.42-.3.25-.17.51-.34.78-.48.06-.03.13-.06.2-.1.01 0 .02 0 .03-.01 0 0 .02 0 .04-.01.18-.06.36-.11.55-.15.43-.09.9-.11 1.38-.07.86.07 1.68.44 2.26 1.14.24.29.73.24.97 0 .28-.28.24-.68 0-.96.28-.15.55-.34.81-.53.48-.35.95-.72 1.53-.73.64 0 1.2.36 1.64.81a5.309 5.309 0 0 1 .35.39s.01.02.03.05c.04.05.08.11.11.17.17.27.31.55.46.84.17.33.63.43.94.25.33-.2.42-.61.25-.94-.1-.19-.21-.39-.32-.58.16-.04.32-.09.47-.15.37-.14.7-.3 1.01-.54.38-.29.73-.65 1.17-.87.3-.15.56-.13.85.01.35.17.65.46.87.79.57.83.84 1.81 1.12 2.77.25.84 1.57.49 1.32-.37-.02-.08-.05-.17-.08-.25.25-.04.5-.12.76-.26.28-.15.54-.33.81-.5.13-.08.26-.15.39-.22 0 0 .02 0 .03-.01.02 0 .04-.02.07-.02.05-.01.1-.02.15-.04h.09c.01 0 .08 0 .12.02.03.01.11.06.1.05.09.06.18.16.25.25.28.36.48.8.68 1.2.44.89.77 1.83 1.04 2.79.55 1.99.79 4.05.95 6.1.08 1.03.16 2.07.1 3.11-.05.91-.22 1.86-.7 2.65-.34.55-.94 1.04-1.57 1.21-.04.01-.08.02-.13.03 0 0-.07.01-.1.02H87.47c-.1-.02-.2-.04-.29-.07 0 0-.04-.01-.06-.02-.03-.02-.07-.03-.1-.05-.11-.06-.22-.12-.31-.2-.08-.06-.28-.27-.38-.41.31-.94.41-1.97.48-2.94.08-1.25.02-2.51-.11-3.76-.15-1.43-.39-2.85-.64-4.26-.06-.37-.51-.57-.84-.48-.39.11-.54.48-.48.84.38 2.21.76 4.43.73 6.68-.01 1.09-.11 2.18-.38 3.23-.1.4-.21.73-.42 1.06-.16.25-.37.45-.66.5-.26.05-.55-.02-.8-.07-.31-.07-.62-.13-.92-.2l-1.58-.35c.16-.42.28-.87.39-1.28.19-.68.34-1.41.43-2.13.21-1.5.23-3.01.03-4.52-.22-1.7-.68-3.33-1.38-4.89-.15-.34-.64-.42-.94-.25-.35.2-.4.6-.25.94 1.09 2.43 1.5 5.15 1.26 7.8-.12 1.32-.42 2.62-.87 3.86-.07.2-.15.45-.26.6-.15.2-.4.22-.64.23a14.544 14.544 0 0 1-6.79-1.13c-.34-.14-.76.16-.84.48-.11.4.13.7.48.84 1.31.55 2.68.91 4.08 1.09-.28.46-.48.96-.53 1.51-.07.94.28 1.81.84 2.51.51.64 1.24 1.12 2.05 1.27 1.03.19 2.03-.02 3.06-.12 2-.19 4 .62 5.97.05.84-.24 1.62-.71 2.24-1.33.32-.32.58-.69.84-1.06.07-.1.14-.19.21-.29l.02-.02c.02-.03.04-.05.06-.07.05-.07.11-.13.16-.2.48-.62.96-1.26 1.15-2.03.21-.83.05-1.67-.34-2.41.6-1.28.69-2.83.64-4.2Zm-1.58 6.06v.03-.04c0 .05-.02.09-.03.13-.07.33-.12.43-.27.68s-.29.47-.46.7c-.04.05-.08.11-.12.16.06-.08-.03.04-.05.06-.11.13-.21.27-.32.41-.17.22-.31.46-.48.68-.4.55-.96.99-1.58 1.27-1.5.68-3.3.12-4.9.03-.89-.05-1.75.12-2.64.2-.4.04-.82.07-1.22 0-.37-.07-.55-.14-.85-.34-.51-.35-.94-1-1.03-1.65-.02-.14-.02-.36 0-.52 0-.06.03-.14.05-.21 0-.03.02-.06.03-.1v-.03c.16-.37.41-.7.69-.99.41.01.83 0 1.24-.02.63-.04 1.22-.13 1.67-.51l1.87.41c.62.14 1.25.32 1.89.35.85.04 1.51-.36 1.98-.96.52.48 1.15.8 1.91.83.88.03 1.72-.36 2.39-.91.07-.06.13-.12.2-.18 0 .03.01.06.02.08v.23c0 .08 0 .14-.01.21ZM84.5 155.18h-.02.01ZM84.37 155.15v-.01.01z" class="cls-18"/></g><g style="clip-path:url(#clippath);fill:none"><path d="m138.35 64.49-3.04 4.49c-.91 1.34-.3 3.48 1.11 4.23 1.56.83 3.26.32 4.23-1.11l3.04-4.49c.91-1.34.3-3.48-1.11-4.23-1.56-.83-3.26-.32-4.23 1.11ZM140.66 77.77l-3.04 4.49c-.91 1.34-.3 3.48 1.11 4.23 1.56.83 3.26.32 4.23-1.11l3.04-4.49c.91-1.34.3-3.48-1.11-4.23-1.56-.83-3.26-.32-4.23 1.11ZM150.23 64.83l-3.04 4.49c-.91 1.34-.3 3.48 1.11 4.23 1.56.83 3.26.32 4.23-1.11l3.04-4.49c.91-1.34.3-3.48-1.11-4.23-1.56-.83-3.26-.32-4.23 1.11ZM153.27 78.33l-3.04 4.49c-.91 1.34-.3 3.48 1.11 4.23 1.56.83 3.26.32 4.23-1.11l3.04-4.49c.91-1.34.3-3.48-1.11-4.23-1.56-.83-3.26-.32-4.23 1.11ZM144.32 91.32l-3.04 4.49c-.91 1.34-.3 3.48 1.11 4.23 1.56.83 3.26.32 4.23-1.11l3.04-4.49c.91-1.34.3-3.48-1.11-4.23-1.56-.83-3.26-.32-4.23 1.11ZM131.92 91.32l-3.04 4.49c-.91 1.34-.3 3.48 1.11 4.23 1.56.83 3.26.32 4.23-1.11l3.04-4.49c.91-1.34.3-3.48-1.11-4.23-1.56-.83-3.26-.32-4.23 1.11Z" class="cls-14"/><path d="m127.28 80.27-3.04 4.49c-.91 1.34-.3 3.48 1.11 4.23 1.56.83 3.26.32 4.23-1.11l3.04-4.49c.91-1.34.3-3.48-1.11-4.23-1.56-.83-3.26-.32-4.23 1.11Z" class="cls-20"/><path d="m134.12 104.36-3.04 4.49c-.91 1.34-.3 3.48 1.11 4.23 1.56.83 3.26.32 4.23-1.11l3.04-4.49c.91-1.34.3-3.48-1.11-4.23-1.56-.83-3.26-.32-4.23 1.11ZM148.3 105.11l-3.04 4.49c-.91 1.34-.3 3.48 1.11 4.23 1.56.83 3.26.32 4.23-1.11l3.04-4.49c.91-1.34.3-3.48-1.11-4.23-1.56-.83-3.26-.32-4.23 1.11ZM158.06 92.14l-3.04 4.49c-.91 1.34-.3 3.48 1.11 4.23 1.56.83 3.26.32 4.23-1.11l3.04-4.49c.91-1.34.3-3.48-1.11-4.23-1.56-.83-3.26-.32-4.23 1.11ZM162.18 65.32l-3.04 4.49c-.91 1.34-.3 3.48 1.11 4.23 1.56.83 3.26.32 4.23-1.11l3.04-4.49c.91-1.34.3-3.48-1.11-4.23-1.56-.83-3.26-.32-4.23 1.11Z" class="cls-14"/></g><path id="Layer_6" d="M73.69 133.61c-.07-.13-.99-1.34-2.57-2.78s-.07-.08-.08-.13c-.42-1.7-.85-2.81-.85-2.81a.466.466 0 0 0-.46-.3l-1.4.05h-.04c-.16.03-.27.18-.24.34l.08.48s0 .02-.02.02h-.01c-.94-.61-1.98-1.19-3.11-1.67-.22-.1-.46-.14-.71-.1-.25.04-.47.15-.65.31-4.29 3.67-6.17 8.85-6.23 9.13-.02.07-.03.13-.01.21.03.22.22.38.43.4l1.41.05c.19.02.35.16.4.35.05.24 1.15 5.6 1.69 6.95.08.19.29.31.51.28h.01c.8-.15 1.53-.27 2.31-.41h.06c.08-.03.14-.11.13-.19-.11-.47-.34-1.54-.57-2.66 0-.03-.01-.06-.02-.09a.277.277 0 0 0-.18-.21c-.45-.18-.8-.58-.9-1.08-.37-1.88-.74-4.06-.91-5.79-.01-.14.08-.28.23-.3.15-.03.3.08.32.23v.02c.11 1.15.31 2.5.55 3.83a.33.33 0 1 0 .65-.11c-.23-1.34-.44-2.7-.55-3.85-.01-.14.08-.28.23-.3.15-.03.3.08.32.23v.02c.11 1.15.31 2.49.54 3.81a.33.33 0 1 0 .65-.11c-.23-1.33-.43-2.68-.54-3.83-.01-.14.08-.28.23-.3.15-.03.3.08.32.23v.02c.16 1.68.52 3.78.88 5.62v.07c.08.51-.1.99-.45 1.32-.06.06-.1.14-.09.23 0 0 0 .29.35 1.65.15.59.26 1 .31 1.19.02.07.09.12.16.11s.08-.01.13-.02c.26-.04.54-.08.82-.13h.05l.05-.02c.36-.05.7-.11 1.03-.16l.78-.11a.16.16 0 0 0 .13-.15c-.08-1.68-.18-2.61-.18-2.61-.01-.08-.09-.13-.17-.13l-.96.02c-.15 0-.26-.08-.31-.19-.03-.07-.03-.14-.03-.14-.47-5.55 1.05-7.69 1.05-7.69.05-.06.08-.09.08-.09a.298.298 0 0 1 .46.06s.02.04.04.13c.43 1.7.81 4.65 1.07 6.96.22 1.96.36 3.5.36 3.5 0 .07.07.11.13.1.51-.07 1.02-.14 1.56-.21h.01c.22-.04.38-.21.4-.42.11-1.45-.48-6.89-.5-7.13 0-.19.11-.38.28-.45l1.33-.48c.2-.08.32-.29.28-.51a.406.406 0 0 0-.08-.19Z" class="cls-7" style="fill:none;clip-path:url(#clippath-1)"/><path d="M102.54 23.9c-.13-.78-.65-1.56-1.37-1.92-.87-.44-1.75-.17-2.67-.19-.2 0-.51-.09-.67-.22.03.03-.05-.06-.07-.08 0-.01-.01-.03-.01-.04-.03-.16.02-.38.02-.56.03-.73-.33-1.46-.87-1.93-.54-.48-1.25-.78-1.97-.73-.8.06-1.39.55-2.07.92-.16.09-.22.12-.38.16h-.11l-.05-.01a.546.546 0 0 1-.19-.18c-.1-.16-.18-.33-.27-.5-.35-.67-.87-1.16-1.6-1.39-.69-.22-1.46-.16-2.1.16-.65.32-.98.95-1.4 1.41-.06.06-.11.12-.18.18-.03.03-.04.03-.04.04 0 0-.01 0-.04.02-.02 0-.07.03-.1.05-.03 0-.07.01-.03.01h-.08c-.02 0-.03 0-.05-.01h-.01c-.01 0-.03-.01-.04-.02-.02-.02-.11-.08-.11-.08-.04-.04-.09-.08-.13-.12-.23-.25-.29-.35-.52-.65-.2-.26-.42-.49-.69-.69l.12-.18c.19-.31.3-.72.44-1 .04-.02.07-.05.11-.08.12-.1.25-.21.38-.3.22 0 .41-.14.52-.33.05-.03.11-.06.17-.08.4-.16.67-.12 1.02.11.42.28.79.55 1.28.69s1.03.16 1.55.06.94-.33 1.35-.62c.36-.25.75-.61 1.2-.67.35-.05.52.16.76.41.3.33.59.65.98.89.93.55 2.11.55 3.05.04.12-.07.2-.15.26-.25 1.08-.62 1.45-2.08 1.01-3.24-.44-1.18-1.5-2.07-2.72-2.36-.6-.14-1.24-.15-1.83.02-.34.09-.65.25-.95.43-.28.16-.59.39-.92.44-.14.02-.26-.06-.34-.16-.21-.27-.34-.61-.54-.88-.4-.53-.99-.92-1.64-1.07-.69-.16-1.4-.09-2.04.22-.63.31-1.11.93-1.5 1.53-.34.51-.69 1.12-1.26 1.36-.57.24-.97-.33-1.52-.64-1.15-.64-2.68-.35-3.59.57-.39.4-.6.88-.73 1.4-.06-.25-.14-.5-.24-.75-.1-.23-.2-.47-.26-.71-.05-.18-.09-.32 0-.47 0 .02.13-.12.05-.07.04-.03.08-.05.12-.07-.03.01-.11.04.03-.01.2-.07.41-.11.62-.14.45-.08.91-.17 1.3-.43.46-.31.81-.76.98-1.29s.1-1.07.02-1.6c-.03-.2-.08-.43-.09-.59 0-.11-.02-.22 0-.33.01-.16 0-.08 0-.05l.04-.14c.15-.32.66-.44.96-.65.97-.67 1.48-1.94 1.15-3.09-.28-.98-1.1-1.71-2.07-1.96-.02-.01-.03-.03-.05-.04-1.4-.91-3.64-.45-4.2 1.23-.37 1.1.23 2.11.42 3.17 0 0 .01.08.02.19v.26c0 .14-.03.3-.08.43a.62.62 0 0 1-.17.25c-.02 0-.1.06-.1.06-.07.03-.18.03-.28.03-.54 0-1.04-.14-1.58-.04-.46.09-.89.34-1.23.65-.73.67-.99 1.68-.74 2.63.22.83.77 1.52.94 2.32v.24c0 .02 0 .04-.01.05-.05.18-.05.19-.18.32-.03.03-.06.05-.08.08-.02.01-.04.03-.05.03-.08.05-.16.1-.25.14-.21.11-.25.12-.45.2-.47.19-.93.39-1.31.73-.41.37-.68.9-.79 1.43-.22 1.08.11 2.08.56 3.04 0 .18.07.35.19.51 0 .01.02.02.03.03-.04.58.02 1.17.2 1.72.03.1.09.19.16.27-.38.5-.55 1.14-.35 1.77.27.83 1.08 1.4 1.94 1.35.21-.01.41-.06.61-.13.14-.05.27-.11.38-.1 0 0 .01 0 .02.02.05.06.09.1.11.13.11.14.19.29.3.42.46.62 1.11.97 1.88 1.05.71.07 1.43-.16 1.97-.61.54-.45.72-1.09 1.07-1.64.01-.02.06-.09.07-.1.04-.04.07-.08.11-.12.01-.01.02-.02.02-.03 0 0 .02 0 .04-.01-.11.05.04 0 .05-.01h.06c.03 0 .06.02.02 0 .01 0 .02.01.03.01.02.01.1.06.1.06.05.04.1.09.15.13.49.48.86 1.05 1.55 1.28.84.28 1.76-.07 2.39-.62.32-.28.58-.64.82-.99.21-.31.39-.71.62-.98 0 0 .06-.06.09-.08a.4.4 0 0 1 .18.15c.23.31.3.73.5 1.06.36.61 1.02 1.05 1.71 1.18.7.13 1.45.03 2.03-.39.29-.21.51-.46.74-.73.11-.13.22-.26.34-.38.14-.14.15-.15.27-.22h.04s0 .02.01.02l.03.06c0 .02.02.06.03.09.01.06.03.11.04.17 0 .03.01.06.02.09 0 .01.02.14 0 .06s0 .03 0 .03c0 .04 0 .08.01.13 0 .06.01.13.02.19.02.18.04.36.08.53.06.31.18.62.38.87.54.71 1.45.75 2.24.5.38-.12.65-.27 1.01-.38l.23-.06c.1-.02.02-.01.13-.02h.19c.01 0 .08.02.11.02 0 0 .03.01.04.02.01 0 .02.01.02.02 0 0 0 .01.01.02 0 .02.02.03.02.04.05.16.04.31.05.48.02.43.08.86.33 1.22.49.69 1.33.98 2.15.84 1.7-.3 2.78-2.34 2.52-3.94Zm-21.3-.49s-.01 0 0 0Zm11.57-.54Zm0 0Zm.02 0c-.03 0-.01 0 0 0Zm.02.03s0-.01-.01-.02c.02 0 .02.01.01.02Z" class="cls-20"/></g><g id="Outline"><path d="M139.14 67.61c-.15-.04-.96 2.2-1.94 5.92-.97 3.72-2.05 8.94-2.73 14.78-.68 5.84-.83 11.17-.74 15.02.09 3.85.37 6.22.53 6.21.18 0 .2-2.38.33-6.2.13-3.82.41-9.09 1.08-14.88.68-5.79 1.61-10.98 2.36-14.73.75-3.75 1.27-6.07 1.1-6.11ZM149.4 73.53c-.3-.11-.74.35-1.02 1.03l.67-.29v.02c-.01.01.06-.08.08-.08-.01 0-.03-.01-.05-.03a.99.99 0 0 1-.11-.17c-.09-.12-.03-.31-.1-.46-.05-.14-.38-.27-.69.11-.14.18-.23.43-.2.73.03.28.17.67.6.88.08.04.17.06.25.08l.52.14.17-.52c.23-.7.18-1.34-.12-1.45ZM44.54 91.54c-.18-.03-.36.36-.8.76-.42.41-1.16.84-1.96.78-.79-.06-1.46-.6-1.81-1.07-.37-.47-.49-.88-.67-.88-.15-.01-.36.49-.09 1.28.13.38.4.81.82 1.17.41.36.99.65 1.67.71.67.05 1.29-.15 1.76-.45.47-.29.79-.68.99-1.03.39-.73.26-1.26.11-1.27ZM48.7 126.48c-.3.15.56 2.46 1.91 5.16 1.35 2.7 2.7 4.77 2.99 4.62.3-.15-.55-2.46-1.91-5.16-1.35-2.7-2.69-4.77-2.99-4.62ZM31.84 153.75c.07.19 1.31-.19 3.35-.34.25-.01.52-.03.8-.05.28-.01.57 0 .87 0 .6-.01 1.23.07 1.9.13 1.33.19 2.77.51 4.22 1.05 1.44.56 2.74 1.27 3.86 2 .54.4 1.07.75 1.51 1.16.22.2.46.37.66.56.2.2.39.38.57.56 1.43 1.46 2.11 2.57 2.29 2.47.12-.05-.3-1.34-1.65-3.04-.17-.21-.35-.42-.54-.65-.19-.22-.42-.43-.65-.65-.44-.46-.98-.87-1.54-1.32-1.16-.84-2.53-1.63-4.08-2.23-1.55-.57-3.11-.89-4.53-1.02-.72-.03-1.39-.08-2.03-.03-.32.02-.62.02-.92.06-.29.04-.57.09-.84.13-2.13.39-3.3 1.07-3.24 1.19ZM123.49 128.75c-.61-.29-3.21 3.95-5.83 9.47-2.61 5.52-4.24 10.22-3.63 10.51s3.21-3.95 5.83-9.47 4.24-10.22 3.63-10.51ZM113.63 122.42c-.32-.11-1.08 1.3-1.7 3.14-.62 1.84-.87 3.42-.55 3.53.32.11 1.08-1.3 1.7-3.14.62-1.84.87-3.42.55-3.53Z" class="cls-7"/><path d="M87.94 104.67c-.02-.33-3.53-.35-7.84-.04-4.3.31-7.77.84-7.75 1.18.02.33 3.53.35 7.84.04 4.3-.31 7.77-.84 7.75-1.18Z" style="fill:#ffb5c4"/><path d="M95.97 33.81c.02-.07-.17-.22-.51-.07-.31.15-.67.61-.56 1.28.1.61.56 1.1.77 1.54.25.46.43 1.01.49 1.61.13 1.22-.21 2.34-.61 3.06-.38.74-.79 1.13-.68 1.29.07.13.71-.03 1.38-.79.67-.73 1.28-2.12 1.11-3.69-.09-.78-.36-1.5-.75-2.07-.41-.59-.78-.88-.89-1.17-.13-.23-.06-.54.02-.68.08-.16.22-.22.22-.31ZM72.88 39.84c.09-.02.07-.34.1-.88.02-.54.12-1.32.47-2.19.35-.86.97-1.83 1.94-2.54.24-.18.5-.33.79-.47.29-.14.63-.28.99-.49.36-.2.74-.53 1-.9.27-.37.44-.76.59-1.15.29-.77.47-1.44.81-1.95.34-.53.79-.98 1.28-1.33.99-.71 2.09-1.06 3.04-1.27.95-.21 1.76-.31 2.31-.41.56-.1.87-.19.86-.27 0-.08-.32-.15-.88-.2-.57-.04-1.39-.07-2.43.04-1.02.12-2.31.4-3.53 1.2-.61.39-1.19.92-1.65 1.61-.47.7-.69 1.5-.94 2.16-.26.69-.55 1.16-1.06 1.45-.26.16-.58.31-.9.48-.33.18-.66.39-.94.62-1.15.92-1.78 2.12-2.08 3.15-.29 1.04-.25 1.93-.12 2.5.12.58.31.86.38.84Z" class="cls-17"/><path d="M79.88 12.37c-.08-.02-.2.15-.37.44-.17.28-.4.69-.8.94-.39.25-1.07.41-1.53.18-.23-.1-.43-.33-.75-.69-.16-.17-.36-.37-.62-.53-.26-.16-.55-.27-.83-.32-1.16-.2-2.18.18-2.93.77-.38.29-.68.75-.81 1.15-.15.41-.17.81-.15 1.16.05.69.25 1.17.4 1.49.16.32.29.47.37.45.08-.02.1-.23.09-.57 0-.34-.06-.83 0-1.36.06-.53.27-1.09.78-1.43.52-.37 1.33-.6 2.01-.47.34.08.56.2.84.49.27.27.65.71 1.18.9.52.2 1.04.16 1.45.04.42-.12.77-.32 1.05-.58.55-.53.67-1.12.71-1.47.04-.36 0-.56-.08-.58ZM73.31 20.11c-.06.05.03.31.44.51.41.19 1.1.23 1.82-.15.72-.39 1.24-1.13 1.79-1.72.53-.57 1.3-.99 1.85-.65.32.17.66.51 1.06.85.2.17.43.34.72.48a1.754 1.754 0 0 0 1.81-.16c.23-.16.39-.34.53-.51.28-.35.46-.62.66-.82.18-.19.4-.31.54-.34.17-.03.35.02.47.08.25.12.26.35.34.36.04 0 .1-.04.13-.16.04-.12 0-.34-.15-.54a1.18 1.18 0 0 0-.78-.42c-.4-.04-.77.12-1.1.36-.32.23-.59.55-.84.79-.26.25-.53.42-.74.41-.22.02-.47-.14-.81-.43-.33-.29-.69-.7-1.28-1.02-.29-.16-.66-.26-1.01-.25-.35 0-.67.09-.95.22-.56.25-.97.64-1.28 1.02-.6.76-.97 1.4-1.41 1.73-.44.34-.92.44-1.23.42-.32-.01-.51-.12-.57-.05Z" class="cls-7"/><path d="M66.67 45.9c.05-.08-.31-.34-.73-.95-.41-.59-.88-1.65-.62-2.87.13-.6.45-1.23.96-1.74.06-.06.13-.12.2-.18.08-.07.12-.09.27-.23.25-.24.39-.61.39-.97 0-.18-.04-.36-.11-.52-.03-.08-.08-.16-.12-.23l-.07-.12a3.04 3.04 0 0 1-.23-.52c-.24-.73-.16-1.61.32-2.24.24-.32.57-.59.96-.77.19-.09.4-.16.61-.2.12-.02.19-.03.34-.05.24-.03.47-.12.66-.26.38-.29.59-.75.56-1.22l-.03-.24c0-.05-.02-.11-.02-.16-.01-.11-.01-.22-.02-.33 0-.44.1-.87.27-1.25.34-.78.98-1.33 1.73-1.56.37-.12.76-.16 1.14-.15.19 0 .37.03.55.07.09.02.18.05.26.07l.31.11c.32.09.67.06.95-.09.28-.13.51-.41.6-.63.14-.29.33-.55.55-.77.87-.89 2.04-.91 2.73-.75.71.17 1.07.44 1.13.36.05-.04-.2-.47-.98-.81-.39-.16-.91-.29-1.53-.25-.61.04-1.33.29-1.93.81-.3.26-.58.58-.79.96-.11.21-.28.24-.43.19l-.27-.11c-.11-.04-.23-.08-.34-.11a4.28 4.28 0 0 0-.73-.13c-.5-.04-1.02 0-1.53.14s-1.02.4-1.46.76c-.44.37-.8.85-1.04 1.38a4.202 4.202 0 0 0-.37 2.18c0 .08.02.15.03.23l.02.15c0 .06-.03.13-.08.17-.02.02-.05.02-.07.03-.11.01-.3.04-.45.07-.31.06-.6.16-.88.3-.55.27-1.04.66-1.4 1.15-.74 1.01-.79 2.3-.42 3.3.09.26.21.5.35.72l.11.16s.03.04.04.06a.314.314 0 0 1-.04.33s-.13.12-.21.19c-.08.08-.17.16-.25.25-.62.69-.97 1.51-1.08 2.29-.1.78.03 1.49.26 2.05.23.56.54.98.84 1.28.6.59 1.06.71 1.09.65ZM63.85 33.87c-.02-.08-.22-.11-.56-.03-.34.09-.82.3-1.28.75-.46.44-.91 1.14-1.03 2.03-.06.44-.05.91.06 1.38.05.23.13.47.23.7.07.15.06.13.07.17v.09c-.01.06-.04.11-.1.15l-.24.16c-.1.07-.2.14-.29.22-.37.31-.67.68-.88 1.08-.43.8-.45 1.65-.31 2.27.14.64.44 1.08.68 1.33.25.25.44.33.5.27.14-.12-.29-.71-.32-1.72-.01-.5.09-1.08.43-1.6.17-.26.39-.5.66-.71.07-.05.14-.1.21-.14.08-.06.11-.06.29-.18.29-.2.52-.53.59-.91.03-.19.03-.38 0-.56-.03-.17-.14-.38-.16-.42a2.97 2.97 0 0 1-.28-1.46c.03-.62.28-1.17.57-1.58.59-.83 1.26-1.11 1.2-1.29Z" class="cls-17"/><path d="M40.36 175.83c.17.28.97.17 2.14-.3 1.15-.48 2.7-1.29 4.19-2.65.16-.14.3-.29.45-.44.03-.03 0-.02.01-.03 0-.02 0-.04.02-.1.02-.06.08-.06.2 0 .16.2.31.4.45.58.15.19.3.36.44.51.56.61 1 .9 1.23.78.23-.13.22-.66.02-1.45-.05-.2-.11-.42-.19-.65a7.58 7.58 0 0 1-.12-.36l-.07-.19c-.03-.07-.03-.1-.09-.23-.4-.9-.93-2-1.53-3.17-.21.28-.43.56-.64.85-.23.3-.46.64-.71.92-.24.27-.5.62-.74.85-.13.12-.24.24-.38.36-1.25 1.15-2.56 2.15-3.45 2.97-.9.82-1.4 1.47-1.22 1.76ZM39.36 98.65c-.03-.17-3.21.23-8.32.99-2.56.38-5.6.86-8.98 1.41-.85.15-1.76.32-2.66.72-.9.38-1.78 1.09-2.3 2.01-.53.92-.74 1.95-.84 2.95-.1 1.01-.07 2-.07 2.98.06 7.89.18 15.04.32 20.21.15 5.17.32 8.37.49 8.37s.3-3.2.37-8.38c.07-5.17.09-12.32.03-20.21 0-.99-.03-1.95.05-2.86.08-.91.27-1.77.67-2.48.77-1.45 2.49-1.93 4.13-2.22 3.36-.61 6.39-1.17 8.93-1.67 5.08-.98 8.21-1.67 8.18-1.84Z" class="cls-7"/><path d="M32.55 106.1c.07.07.34-.15.85-.4.51-.26 1.31-.5 2.34-.51 1.03-.02 2.25.18 3.59.6 1.33.4 2.75 1 4.14 1.82 2.78 1.63 4.84 3.78 6.1 5.49 1.27 1.71 1.84 2.93 2.02 2.86.13-.05-.16-1.41-1.31-3.34-1.13-1.91-3.22-4.32-6.2-6.06-1.48-.87-3.01-1.48-4.45-1.85-1.43-.37-2.81-.52-3.95-.37-1.15.13-2.04.55-2.54.97-.5.42-.65.75-.6.8Z" class="cls-7"/></g></svg>