<svg xmlns="http://www.w3.org/2000/svg" width="200" height="200" viewBox="0 0 200 200"><defs><style>.cls-1{fill:#ff8000}.cls-3{fill:#ce9351}.cls-4{fill:#5b3b5b}.cls-6{fill:#9c8276}.cls-8{fill:#d7b27c}.cls-9{fill:#fff}</style></defs><path id="BG_Strong_Light" d="M43.75 51.06c-1.69 15.77-7.4 30.84-17.07 43.41l-3.15 3.04a39.85 39.85 0 0 0-6.27 49.62l.13.21c5.27 8.61 12.87 14.97 21.42 19.93q.13.18.35.2c6.63 3.81 13.82 6.78 20.94 9.3 16.24 5.76 33.86 11.75 51.29 11.57 17.37-.18 32.68-7.68 44.84-19.89 12.17-12.23 22.52-27.73 28.4-43.99 13.28-36.75-7.7-70.86-38.19-90.96l-2.25-1.46c-.07-.24-.02-.49-.23-.69-.08.13-.16.31-.07.5-9.56-6.14-20.2-11.99-31.32-15.81l.34-.3c-.34-.04-.49.07-.68.18l-.41-.14.1-.19c-.05.02-.16.05-.2-.03q-.06.09-.05.17c-7.56-2.51-15.32-4.07-23.1-4.1a50.7 50.7 0 0 0-26.79 7.4h.02l-.09.06-.02.01-1.39.91c-5.31 3.63-14.68 13.67-16.54 31.03Z" data-name="BG_Strong Light" style="fill:#edebe8"/><path id="BG_Strong_Dark" d="M43.75 51.06c-1.69 15.77-7.4 30.84-17.07 43.41l-3.15 3.04a39.85 39.85 0 0 0-6.27 49.62l.13.21c5.27 8.61 12.87 14.97 21.42 19.93q.13.18.35.2c6.63 3.81 13.82 6.78 20.94 9.3 16.24 5.76 33.86 11.75 51.29 11.57 17.37-.18 32.68-7.68 44.84-19.89 12.17-12.23 22.52-27.73 28.4-43.99 13.28-36.75-7.7-70.86-38.19-90.96l-2.25-1.46c-.07-.24-.02-.49-.23-.69-.08.13-.16.31-.07.5-9.56-6.14-20.2-11.99-31.32-15.81l.34-.3c-.34-.04-.49.07-.68.18l-.41-.14.1-.19c-.05.02-.16.05-.2-.03q-.06.09-.05.17c-7.56-2.51-15.32-4.07-23.1-4.1a50.7 50.7 0 0 0-26.79 7.4h.02l-.09.06-.02.01-1.39.91c-5.31 3.63-14.68 13.67-16.54 31.03Z" data-name="BG_Strong Dark" style="fill:#575655"/><g id="Illustrations"><g id="Outline"><path d="m20.04 49.44 39.23-11.8a6 6 0 0 1 1.89-.25l58.49 2.38-38.16 12.07c4.18 1.21-61.45-2.4-61.45-2.4" class="cls-8"/><path d="m120.87 116.45-38.94 12.74-.43-75.88a2 2 0 0 1 1.4-1.92l36.75-11.62a2 2 0 0 1 2.6 1.91v72.87a2 2 0 0 1-1.38 1.9" style="fill:#ce9352"/><path d="M21.08 49.31a3.1 3.1 0 0 0-3.24 3.12v44.45a21.46 21.46 0 0 1 37.76 13.94c0 6.29-2.72 11.93-7.04 15.86l32.5 2.5.88.02V51.62z" class="cls-8"/><path d="M55.59 110.81a21.46 21.46 0 0 0-37.76-13.94v24.54a3.1 3.1 0 0 0 2.88 3.11l27.83 2.14a21.4 21.4 0 0 0 7.04-15.86Z" class="cls-9"/><path d="M45.83 108.4c-.08-.2-1.01-2.09-2.85-4.48l-.08-.2a36 36 0 0 0-.48-4.1 1 1 0 0 0-.19-.35q-.17-.16-.37-.15l-1.95-.29s-.03.01-.05-.02q-.17 0-.29.13c-.12.13-.12.17-.14.29l-.02.67a27 27 0 0 0-3.84-3.08q-.42-.3-.95-.33c-.53-.03-.66.09-.97.26a32 32 0 0 0-10.85 11.04 1 1 0 0 0-.07.3q0 .24.14.41c.14.17.21.22.34.24l1.92.42c.13.02.25.13.32.21s.13.22.15.36c0 .35.18 8.02.58 10.02q.04.22.23.36c.19.14.26.16.41.14 1.12-.01 2.17 0 3.3.02h.08l.07-.02.07-.03s.02-.05.05-.06.02-.05 0-.08c-.02-.69-.09-2.21-.13-3.82v-.11a.4.4 0 0 0-.04-.18.3.3 0 0 0-.14-.14q-.43-.28-.71-.74c-.28-.46-.27-.62-.26-.97-.03-2.7 0-5.81.2-8.22 0-.08.07-.19.13-.25q.12-.12.28-.08c.08 0 .21.03.25.13q.12.13.11.26v.03c-.11 1.6-.18 3.53-.18 5.43 0 .08 0 .11.04.18s.04.1.1.15.07.08.15.09.13.02.17.04.11 0 .18-.04.1-.04.15-.1.07-.11.09-.15.02-.13.04-.17c0-1.9.07-3.83.22-5.44q0-.17.11-.28.15-.15.26-.11c.11.04.21.03.28.11s.12.18.11.26v.03c-.11 1.6-.18 3.53-.19 5.4q.02.18.14.33c.12.15.22.14.33.13.11 0 .26-.03.33-.14a.4.4 0 0 0 .13-.33c0-1.9.07-3.83.19-5.43q0-.17.11-.28.15-.15.26-.11.17 0 .28.11c.11.11.12.18.11.26v.03c-.17 2.37-.21 5.37-.2 8v.03l.03.03v.03q0 .52-.27.97c-.27.45-.38.55-.7.73-.07.03-.08.07-.14.14q-.04.06-.04.17s-.06.41.08 2.37l.12 1.73.06.13.14.06h.19q.55 0 1.18.03h.16l1.45.05 1.1.03s.11 0 .13-.06q.04-.03.07-.11c.31-2.34.41-3.66.41-3.66q.03-.08-.07-.16c-.1-.08-.11-.07-.15-.09l-1.33-.21q-.13 0-.23-.09c-.1-.09-.1-.15-.13-.22s-.02-.15 0-.19c.73-7.79 3.39-10.37 3.39-10.37q.05-.07.12-.09.11-.06.24-.07c.13-.01.17.04.23.09s.12.1.16.2c.03.07 0 .11.04.18.16 2.45-.07 6.62-.29 9.89-.18 2.75-.37 4.93-.37 4.93l.03.07.03.07s.01.03.06.05l.05.02 2.21.1q.23 0 .41-.14.2-.14.24-.34c.51-1.96 1.06-9.64 1.11-9.97a.6.6 0 0 1 .16-.34q.12-.15.33-.22l1.95-.33q.22-.04.36-.23c.14-.19.16-.26.14-.41z" class="cls-1"/><path d="m38.1 49.95.02 30.51q.38-.63.92-1.1c.61-.5 1.54-.7 2.13 0l.68.81q.72-.78 1.41-1.62c.59-.72 1.98-.58 2.36.32q.29.71.48 1.44l.16-.2c.25-.34.51-.74.76-1.1.63-.9 1.54-1 2.36-.32q.73.64 1.36 1.39l.28.29.15-.23c.27-.43.5-.88.8-1.28.77-1.02 1.07-.95 2.35-.42.67.28 3.01 2.15 3.2 2.32l.77-29.91 33.38-12.24-16.47-.64-37.1 11.96" class="cls-3"/><path id="Layer_12" d="M141.38 81.56c.09-.52.07-1.06.09-1.59l.07-1.69.13-3.43q.12-3.41.2-6.82t.06-6.82q0-.85-.02-1.69c0-.5.01-1.02-.11-1.51a2 2 0 0 0-.8-1.22c-.51-.3-1.08-.24-1.63-.18-.96.1-1.95.28-2.74.87a3.6 3.6 0 0 0-1.32 2.56c-.11 1 .04 2.02.21 3.01l.62 3.46 2.14 12.01a86 86 0 0 0 .41 2.95l.11.62c.06.3.08.65.34.85.43.31 1.03.23 1.45-.04.47-.3.7-.8.79-1.33Zm20.12-1.57q5.2-6.07 10.2-12.31c.67-.84 1.5-1.7 1.92-2.71.19-.45.3-.95.22-1.43a2.6 2.6 0 0 0-.95-1.54c-1.46-1.22-3.88-2.49-5.42-.69-.42.49-.75 1.07-1.1 1.61l-1.08 1.66-2.18 3.38a684 684 0 0 0-8.41 13.46l-2.06 3.39-1.02 1.7c-.3.5-.68 1-.83 1.57-.15.55 0 1.11.5 1.41.19.25.52.39.85.38.61-.03.99-.38 1.38-.81l2.7-3.02q2.67-3.01 5.28-6.07Zm24.41 12.36c.1-.55-.09-1.13-.23-1.66q-.22-.88-.51-1.75c-.19-.57-.35-1.21-.68-1.72-.36-.57-.97-.78-1.62-.74a10 10 0 0 0-3.18.91c-1.08.49-2.13 1.06-3.18 1.6l-13.67 7.06-.2.1q-.67.27-1.3.62c-.44.25-.84.67-.87 1.2-.03.64.45 1.09 1.04 1.21.55.12 1.12-.04 1.66-.15l1.8-.37a231 231 0 0 0 17.91-4.55q.88-.25 1.75-.53c.6-.19 1.14-.56 1.26-1.22Z" data-name="Layer 12" style="fill:#ff8100"/><path d="M163.25 112.78a2 2 0 0 0-.15-.53 5.5 5.5 0 0 0-1.89-2.13q-.45-.62-1.06-1.16c-1.67-1.48-3.54-2.77-5.34-4.08a203 203 0 0 0-11.45-7.83c-4.09-2.6-8.53-5.91-13.43-6.65a1.3 1.3 0 0 0-.66.06c-.41-.09-.8.04-1.08.29a57 57 0 0 0-18.18 7.38 1.2 1.2 0 0 0-.49 1.54 61 61 0 0 0 .22 8.57" class="cls-3"/><path d="M122.1 40.96a2 2 0 0 0-.62-.85c-3.32 2.13-13.24 11.32-23.57 23.65a204 204 0 0 0-16.22 21.91l.02 3.69c3.92-4.36 10.95-13.15 19.26-23.03 10.08-12.03 18.91-21.91 21.13-25.37m.15 61.69v-5.46a206 206 0 0 0-9.06 10.19 184 184 0 0 0-11.68 15.41l5.17-1.69a549 549 0 0 0 15.57-18.44Zm-18-20.71c7.99-10.38 14.52-19.87 18.01-25.59v-3.3c-4.03 4.4-12.03 14.56-21.18 26.45-8.41 10.95-15.67 20.58-19.28 25.96l.02 2.77c4.12-3.9 12.94-13.94 22.43-26.3Zm2.21 20.37a205 205 0 0 0 15.79-23.83v-4.53c-4.03 5.46-10.77 15.22-18.97 25.94-9.15 12.04-17.63 21.99-21.36 26.92v2.2c4.19-3.26 14.36-13.31 24.54-26.7" class="cls-8"/><path d="M79.52 52.28c0-.21-3.37-.52-8.83-.86s-13.01-.71-21.35-1.02-15.9-.51-21.37-.58-8.86 0-8.87.2 3.36.52 8.83.86c5.46.34 13.02.71 21.36 1.02s15.91.51 21.38.58 8.86 0 8.87-.2Z" class="cls-9"/><path d="m104.72 44.49-7.1 2.25A162 162 0 0 0 81.57 65.5l.03 5.04c3.34-3.75 7.71-8.83 12.61-14.33 3.86-4.36 7.51-8.36 10.51-11.71Zm-.47 37.45c7.99-10.38 14.52-19.87 18.01-25.59v-3.3c-4.03 4.4-12.03 14.56-21.18 26.45-8.41 10.95-15.67 20.58-19.28 25.96l.02 2.77c4.12-3.9 12.94-13.94 22.43-26.3Zm2.21 20.37a205 205 0 0 0 15.79-23.83v-4.53c-4.03 5.46-10.77 15.22-18.97 25.94-9.15 12.04-17.63 21.99-21.36 26.92v2.2c4.19-3.26 14.36-13.31 24.54-26.7" class="cls-8"/><path d="m104.72 44.49-7.1 2.25A162 162 0 0 0 81.57 65.5l.03 5.04c3.34-3.75 7.71-8.83 12.61-14.33 3.86-4.36 7.51-8.36 10.51-11.71Zm-6.81 19.26a204 204 0 0 0-16.22 21.91m31.5 21.72a184 184 0 0 0-11.68 15.41" class="cls-8"/><path d="M119.65 39.77c-.12-.42-8.83 1.76-19.37 5.1-10.55 3.31-18.93 6.55-18.78 6.96.07.2 2.24-.38 5.71-1.39a751 751 0 0 0 26.97-8.52c3.43-1.17 5.53-1.95 5.47-2.15m-37.71 89.42c.41 0 .75-16.86.76-37.65 0-20.8-.33-37.65-.74-37.65s-.75 16.86-.76 37.65c0 20.8.33 37.65.74 37.65m10.45-33.87.48 14.87 21.4-7.55-.53-14.29z" class="cls-9"/><path id="_1vjtAY.tif" d="m100.53 94.09-.01 11.73-1.48.53V94.57zm2.96-.94v11.61l-1.48.53-.01-11.67zm-5.94 1.9.01 11.82-1.48.54V95.53zm13.35-4.27v11.37l-1.47.51V91.25zm-5.18 1.65v11.54l-.74.26V92.67zm2.22-.71v11.47l-.74.25.01-11.48z" class="cls-3" data-name="1vjtAY.tif"/><path d="M163.25 112.78a2 2 0 0 0-.15-.53 5.5 5.5 0 0 0-1.89-2.13q-.45-.62-1.06-1.16c-1.67-1.48-3.54-2.77-5.34-4.08a203 203 0 0 0-11.45-7.83c-4.09-2.6-8.53-5.91-13.43-6.65a1.3 1.3 0 0 0-.66.06c-.41-.09-.8.04-1.08.29a57 57 0 0 0-18.18 7.38 1.2 1.2 0 0 0-.49 1.54 61 61 0 0 0 .22 8.57c-.08.45.07.95.57 1.26 4.06 2.49 8.39 4.91 12.91 6.4.26 1.6-1.76 1.39 0 8.51.02.09 5.79 3.32 5.84 3.39-.07 1.75 0 0-.75 2.88-.33 1.27 1.7 2.01 2.63 2.94-1.25 1.62.06 2.95.31 3.43 4.94 9.3 6.91 19.9 7.06 30.54.03 2.28 1.01 3.68 3.33 4.02 1.81.27 4.68.71 6.12-.76.7-.72.88-1.78 1.09-2.73q.41-1.94.68-3.9.52-3.96.61-7.97c.08-3.02.03-6.05 0-9.07l-.02-4.22q.51-.19.98-.53c2.2-1.59 3.07-4.43 2.98-7.15q.35-.25.42-.76.1-.22.08-.51c-.09-2.37.55-4.64 1.97-6.55.76-1.02 1.66-1.92 2.51-2.86 1.47-1.21 2.93-2.43 3.92-3.96a7.6 7.6 0 0 0 .26-7.85Z" class="cls-1"/><path d="M123.23 115.89c.26 1.6-1.76 1.39 0 8.51.02.09 5.79 3.32 5.84 3.39-.07 1.75-1.8 1.56-.75 2.88q1.23 1.54 2.63 2.94c-1.25 1.62.06 2.95.31 3.43 4.94 9.3 6.91 19.9 7.06 30.54.03 2.28 1.01 3.68 3.33 4.02 1.81.27 4.68.71 6.12-.76.7-.72.88-1.78 1.09-2.73q.42-1.93.68-3.9.52-3.96.61-7.97c.08-3.02.03-6.05 0-9.07l-.02-4.22q.51-.19.98-.53c2.2-1.59 3.07-4.43 2.98-7.15q.34-.25.42-.76.1-.22.08-.51c-.09-2.37.55-4.64 1.97-6.55.76-1.02 1.66-1.92 2.51-2.86-6.56 5.16-35.84-8.7-35.84-8.7m29.26-8.22v-.09c-.3-2.87-20.47-14.54-24.42-16.8a57 57 0 0 0-15.66 5.94c4.46 2.68 25.87 15.25 35.3 15.8a4.5 4.5 0 0 0 4.78-4.85" style="fill:#f65e23"/><path d="M174.77 157.83c-1.41-1.86-2.3-7.92-2.88-10.19-1.35-5.22-2.22-6.98-3.5-12.13-1.04-4.19-4.47-9.71-9.01-11.03-.4-.12-.73-.04-.99.13q-.38.11-.66.51c-.5.74-1.55 1.01-2.31 1.38q-1.4.7-2.65 1.63a19 19 0 0 0-4.12 4.27q-.78 1.1-1.42 2.29c-4.47-.84-8.31-3.56-12.54-5.1-2.08-.76-4.47-1.15-6.45.11-1.7 1.09-1.18 2.89-.64 4.79.67 2.38 4 4.3 5.99 5.85-.61 0-3.89.13-4.46.45-1.37.78-1.94 2.47-1.68 3.97.22 1.29.98 2.3 1.93 3.13a1 1 0 0 0 .09.8c-.62 2.38-.77 5.17.62 7.23a7 7 0 0 0 1.95 1.9q-.12.16-.19.39c-.76 2.48-.11 2.55 1.75 4.09 1.7 1.42 5.1 2.6 7.43 1.45 2.04-1 1.9-2.21.7-3.92-.29-.41-1.92-.8-2.3-1.11 1.5-.82 3.67-.95 3.24-2.73a6.3 6.3 0 0 0-1.83-2.92c.53-.3 2.52-1.15 2.81-1.66 1.34 1.74 1.11 3.91 2.45 5.65l.49 1.56c1.45 4.37 4.63 7.99 7.15 11.86a36 36 0 0 0 4.74 5.52c1.45 1.38 1.36 3.29 3.33 3.83l16.96-18.14c-.43-1.98-2.8-2.3-4-3.88Z" class="cls-6"/><path d="M129.58 122.18c-.26-2.24-1.88-3.04-4-3.81-1.9-.69-5.01-2.02-6.62-.45-1.47 1.43-1.03 3.31.06 4.7q.11.71.46 1.35c.57.99 3.91 2.07 4.82 2.74 1.64 1.2 6.82 2.93 8.9 1.6 1.91-1.23-3.39-4.14-3.63-6.13Z" class="cls-6"/><path d="M129.83 129.85a1 1 0 0 1-.28-.06c-1.97-.8-11.83-4.98-12.01-8.42q-.14-2.62 1.32-3.77c1.54-1.2 3.78-.53 3.87-.5.4.12.62.54.49.94a.75.75 0 0 1-.94.49s-1.59-.47-2.51.25q-.84.67-.74 2.5c.1 1.84 6.54 5.26 11.08 7.11a.76.76 0 0 1-.28 1.45Zm48.94 32.61a1 1 0 0 1-.4-.12 1 1 0 0 1-.28-.22l-1.99-2.43c-2.99-3.6-3.3-4.09-4.41-9.49-2.27-11-5.12-16.57-7.02-20.25l-.75-1.47c-2.09-4.24-4.42-3.25-4.52-3.21a.75.75 0 0 1-.99-.37.75.75 0 0 1 .35-.99c.04-.02 3.73-1.72 6.51 3.9l.74 1.45c1.93 3.75 4.85 9.42 7.15 20.63 1.07 5.19 1.24 5.39 4.1 8.84q.81.97 1.92 2.34a.76.76 0 0 1-.4 1.39Z" class="cls-4"/><path d="M161.8 180.6a.7.7 0 0 1-.57-.27 204 204 0 0 0-3.83-4.4c-4.66-5.25-8.03-9.04-12-18.57a293 293 0 0 0-1.93-4.56c-1.52-3.53-5.02-7.56-8.71-10.02a28 28 0 0 1-8.32-8.68 3.6 3.6 0 0 1 .72-4.63c3.64-3.02 11.74-.15 24.05 8.51.34.24.42.71.18 1.04a.74.74 0 0 1-1.04.18c-15.91-11.19-20.85-9.73-22.23-8.58-.76.63-.93 1.8-.39 2.71a26 26 0 0 0 7.87 8.2c3.91 2.61 7.63 6.89 9.25 10.67q.82 1.9 1.93 4.58c3.87 9.3 7.17 13.01 11.74 18.15 1.21 1.37 2.47 2.78 3.86 4.43.27.32.23.79-.09 1.06a.7.7 0 0 1-.48.18Z" class="cls-4"/><path d="M140.84 153.84c-4.7-.1-11.6-5.12-11.89-5.34q-2.49-2.3-2.01-4.49c.61-2.86 4.8-4.31 4.97-4.38l.48 1.42c-.99.34-3.63 1.58-3.99 3.27q-.28 1.38 1.49 3.02s6.75 4.9 10.95 4.99c-.02 0 .98-.03 1.31-.58.24-.41.11-1.16-.39-2.1l1.33-.7q1.15 2.21.34 3.57c-.76 1.26-2.42 1.31-2.61 1.31Z" class="cls-4"/><path d="M137.75 159.03q-1.75.02-4.02-.66-3.69-1.12-4.96-3.85c-1.34-2.89-.03-5.99.02-6.12l1.38.59s-1.1 2.63-.04 4.91q1 2.1 4.03 3.04c4.01 1.21 6.53.41 7.17-.84.39-.76.03-1.66-.96-2.41l.91-1.19c1.59 1.21 2.12 2.85 1.39 4.28-.65 1.28-2.34 2.25-4.92 2.25" class="cls-4"/><path d="M139.28 164.84a10 10 0 0 1-2.69-.42q-4.5-1.3-5.7-4.06c-.9-2.1.07-3.98.11-4.06l1.33.7-.66-.35.67.34c-.03.06-.68 1.36-.06 2.79q.91 2.09 4.72 3.19c2.33.67 4.11.4 4.53-.69.39-1.01-.4-2.65-2.42-3.66l.67-1.34c2.53 1.27 3.89 3.65 3.15 5.55-.42 1.08-1.58 2.01-3.66 2.01Z" class="cls-4"/><path d="M162.99 120.63s-.17.08-.36.29c-.2.21-.43.56-.82.92a9 9 0 0 1-3.7 2.33c-1.75.63-4.04.81-6.55.65a43 43 0 0 1-8.12-1.5c-5.69-1.58-10.68-3.66-14.28-5.15-3.6-1.51-5.82-2.48-5.92-2.29s1.97 1.48 5.48 3.25a81 81 0 0 0 14.33 5.63c2.92.8 5.78 1.32 8.44 1.43s5.11-.21 7-1.04a8.5 8.5 0 0 0 3.78-2.95c.35-.45.51-.87.63-1.14q.17-.41.1-.45Z" class="cls-9"/></g></g></svg>