<?xml version="1.0" encoding="UTF-8"?><svg xmlns="http://www.w3.org/2000/svg" viewBox="0 0 200 200"><defs><style>.cls-1{fill:#a97e67;}.cls-2{fill:#fc5205;}.cls-3{fill:#52294d;}.cls-4{fill:#9fcfd3;}.cls-5{fill:#575655;}.cls-6{fill:#fd4f02;}.cls-7{fill:#de2e00;opacity:.49;}.cls-8{fill:#99b2b4;}.cls-8,.cls-9{fill-rule:evenodd;}.cls-10{fill:#fc6d02;}.cls-11{fill:#b9d8db;}.cls-9{fill:#cee6e8;}.cls-12{fill:#4e2a4b;}.cls-13{fill:none;stroke:#52294d;stroke-linecap:round;stroke-linejoin:round;}.cls-14{fill:#755d52;}.cls-15{fill:#fff;}.cls-16{fill:#fdaa01;}.cls-17{fill:#b27e64;}.cls-18{fill:#87a2a1;}.cls-19{fill:#fd7f97;}.cls-20{fill:#713f6b;}</style></defs><g id="BG_Strong"><path class="cls-5" d="M9.07,127.4c-.33,19.13,7.23,34.48,16.2,41.76,21.32,17.31,57.55-23.49,100.54-15.53,71.87,31.25,93.65-116.07,27.56-124.42-36.34-5-82.31,12.38-98.1,47.23-.38,31.42-51.03,25.02-46.2,50.96Z"/></g><g id="Illustrations"><path class="cls-9" d="M116.83,175.55l12.94-25.78,12.24-9.15-1.63-11.24,8.33-17.01-37.38,2.72L14.49,152.57c1.42,2.88,2.29,6.3,3.91,8.83,6.13,9.54,13.12,15.89,22.67,16.41,19.88-.68,44.74-1.1,71.8-1.13l3.96-1.13Z"/><path class="cls-9" d="M13.53,149.34c41.88-16.43,133.46-52.09,133.46-52.09l9.88,4.28-7.02,5-26.4,6.38-107.39,43.65c-1.12-1.93-2.53-7.22-2.53-7.22Z"/><path class="cls-8" d="M15.66,155.85l107.79-42.95,26.4-6.38s2.64-2.08,4.74-3.4c.99-.63,2.16-1.78,2.16-1.37,0,1.17-.28,3.36-.47,5.72-.16,2.01-.07,2.77-.71,3.68-.75,1.08-2.76,1.3-4.57,2.11-2.78,1.25-9.09,3.02-10.34,3.21-1.38.21-14.13-.83-15.53,0-2.24,1.33-6.49,6.78-7.39,7.34-1.62,1.01-8.93-.72-9.78-.64-1.32.13-11.01,8.77-12.28,8.78-3.22.02-12.25.51-13.59.94-1.76.56-8.35,6.42-9.48,6.94-.96.44-22.28,5.73-23.47,6.49-3.26,2.07-31.42,13.87-31.42,13.87-.68-1.35-1.38-2.6-2.06-4.37Z"/><path class="cls-11" d="M15.63,155.84c24.77-10.05,55.96-22.68,80.73-32.43,0,0,27.06-10.63,27.06-10.64,0,0,13.21-3.17,13.21-3.17-.05.03,13.41-3.29,13.14-3.19,2.05-1.68,4.32-3.05,6.41-4.68.12-.08.25-.18.41-.23.04,0,.09-.03.19,0,.11.04.15.17.15.21,0,.7-.06,1.4-.12,2.09-.16,1.76-.34,3.5-.43,5.27-.05.9-.23,1.91-.95,2.56-1.24,1.01-2.89,1.15-4.3,1.83-2.64,1.14-5.41,1.95-8.18,2.73-.87.21-1.74.52-2.64.57-4.6.04-9.92-.58-14.48-.14-.19.03-.42.08-.52.14-.9.57-1.66,1.33-2.42,2.1-1.22,1.25-2.38,2.58-3.56,3.89-.49.49-.91,1.09-1.53,1.45-1.11.46-2.34.28-3.46.22-2-.17-3.94-.56-5.9-.83-.21-.02-.44-.05-.48-.02-2.11,1.12-5.34,4.01-7.29,5.47-1.44,1.1-2.75,2.22-4.35,3.13-.22.12-.53.22-.8.19-4.12.11-8.39.28-12.48.76-.85.05-1.54.49-2.23.97-1.43.99-2.8,2.1-4.18,3.19-.94.73-2.69,2.22-3.73,2.85-.11.07-.27.12-.37.15l-.33.1c-1.71.49-3.41.92-5.12,1.37-4.69,1.3-13.21,3.27-17.75,4.86-10.27,5.11-20.99,9.25-31.57,13.67,0,0-.07.03-.07.03l-.03-.06c-.72-1.46-1.49-2.86-2.03-4.42h0Z"/><path class="cls-11" d="M111.43,176.52c1.74-11.7,3.58-23.52,6.07-35.1.56-2.91,1.4-6.06,1.63-8.91.14.63,1.08.84,1.47.29,0,0-.02.04-.02.04l-.04.08c-7.38,14.48-14.98,29.51-22.95,43.64,6.67-15.04,13.81-29.86,21.31-44.5.09-.16.17-.34.3-.47.59-.62,1.6-.31,1.74.52.13,1.33-.27,2.62-.46,3.85-.65,3.4-1.82,8.19-2.6,11.6-2.08,9.66-4.08,19.35-6.45,28.95h0Z"/><path class="cls-11" d="M36.4,175.43c15.13-11.28,30.5-22.27,46.52-32.26,2.24-1.3,4.96-2.81,6.99-3.94,1.08-.67,2.25.58,1.54,1.64-2.37,4.6-4.87,9.48-7.27,14.05,0,0-.06.12-.06.12l-.11.12-.03.03c.1-.13.16-.29.16-.53.02-.49-.54-.99-1.05-.87-.14.03-.14.04-.16.04-.02,0,0,0,.02-.01,1.27-.79,2.67-1.89,3.89-2.78,3.37-2.42,6.88-4.63,9.92-7.46.88-.78,1.66-1.6,2.53-2.47,1.54-1.48,3.2-2.81,4.92-4.07.26-.18.49-.34.82-.53l-.1.07c.53-.45,1.48-.24,1.75.44.2.42.03.86-.11,1.21,0,0-.47,1.24-.47,1.24-4.5,11.91-9.62,25.32-14.35,37.12,3.98-12.07,8.7-25.63,12.93-37.63,0,0,.44-1.25.44-1.25l.11-.31c.03-.1,0,0,0,.06-.05.36.42.57.67.36-.23.15-.5.33-.77.52-1.63,1.22-3.21,2.53-4.66,3.96-1.6,1.72-3.44,3.45-5.29,4.93-2.75,2.3-5.88,4.13-8.69,6.35-.94.67-1.81,1.4-2.84,1.95-.36.19-1.01.08-1.23-.35-.25-.43-.13-.82.09-1.12.07-.08.12-.15.2-.22,0,0-.18.24-.18.24,2.15-4.19,4.51-8.7,6.69-12.89.08-.13.53-1.02.6-1.15,0,0,.06-.12.06-.12l.02-.05c-.23.44.11,1.01.62,1,.15,0,.28-.05.38-.11l-.06.04c-3.53,1.96-7.06,3.84-10.5,5.97-14.75,9.4-29.27,19.18-43.96,28.67h0Z"/><g id="Layer_10"><polygon class="cls-6" points="49.57 54.04 49.57 54.04 49.57 54.04 49.57 54.04"/></g><path class="cls-6" d="M91.4,86.98l-2.21,6.2,9.67-.82s-.89-3.8-1.26-6.97c-.4-3.48-.96-11.21-1.72-11.7l-4.49,13.29Z"/><path class="cls-17" d="M106.94,109.79s3,2.02,7.6.47c0,0,1.03.53-.18.92-1.21.39-6.63,2.83-8.06,2.03,0,0-3.43,2.04-5.32,2.02,0,0,2.35-.99,2.57-1.76.22-.78-1.4-2.43-1.4-2.43l.95-3.55,3.83,2.32Z"/><path class="cls-6" d="M107.9,108.37s.04-.04.05-.06c.01-.03.02-.06.01-.1,0-.01,0-.03-.01-.04,0,0,0-.02,0-.02h0c-.04-.1-1.13-2.28-1.65-3.26-.73-1.39-3.98-8.26-5.91-9.06-1.23-.52-2.53-.43-3.8-.12-.76.82-1.37,1.76-1.63,2.87-.5,2.18.51,4.49,1.54,6.36,1.2,2.18,4.62,5.89,4.68,5.86,0,0,0,0,0,0,.03.03.07.06.1.1.09.09.18.18.28.26,0,0,0,0,0,0,0,0,.01,0,.02.01,0,0,.01,0,.02,0,0,0,0,0,0,0,.03.01.06.02.09.01,0,0,.01,0,.02,0,0,0,0,0,0,0,.02,0,.03,0,.05-.02,1.59-.72,3.17-1.46,4.76-2.19.44-.2.88-.4,1.32-.6.01,0,.02,0,.03-.01,0,0,0,0,.01,0Z"/><path class="cls-7" d="M107.97,108.21s0-.03-.01-.04c0,0,0-.02,0-.02h0c-.04-.1-1.13-2.28-1.65-3.26-.47-.89-1.97-4.03-3.5-6.38.29,1.74.35,3.66-.26,5.31-.69,1.91-2.13,3.41-2.97,5.24.87,1.02,1.58,1.76,1.6,1.75,0,0,0,0,0,0,.03.03.07.06.1.1.09.09.18.18.28.26,0,0,0,0,0,0,0,0,.01,0,.02.01,0,0,.01,0,.02,0,0,0,0,0,0,0,.03.01.06.02.09.01,0,0,.01,0,.02,0,0,0,0,0,0,0,.02,0,.03,0,.05-.02,1.59-.72,3.17-1.46,4.76-2.19.44-.2.88-.4,1.32-.6.01,0,.02,0,.03-.01,0,0,0,0,.01,0,.02-.02.04-.04.05-.06.01-.03.02-.06.01-.1Z"/><path class="cls-20" d="M102.69,107.39c-1.09.45-2.15.97-3.19,1.54-.07.04-.09.1-.08.16.04.05.09.1.13.15.04.01.08.01.13-.02,0,0,.01,0,.02-.01l.45.51s0,.06.02.09c.05.09.15.1.24.06l2.85-1.38s.07-.07.08-.11c.01-.03.02-.07,0-.1h0c-.12-.28-.26-.56-.42-.82-.05-.07-.15-.11-.22-.07h0Z"/><path class="cls-7" d="M92.26,87.38c-.77,1.45-3.06,5.8-3.06,5.8l9.67-.82s-1.22-5.99-1.31-7.7c-.23-4.38-.99-10.09-1.45-10.67,0,0-.18,6.52-3.84,13.4Z"/><path class="cls-13" d="M100.99,115.23s2.35-.99,2.57-1.76c.11-.39-1.32-2.54-1.7-3.06"/><path class="cls-13" d="M105.93,109.18l1.01.61s3,2.02,7.6.47c0,0,.26.13.37.31"/><path class="cls-16" d="M72.45,94.08s.19-.04.54-.12c3.9-.86,24.81-4.42,29.34,1.24,5.31,6.64-13.46,28.63-13.46,28.63l-7.74-5.11s13.05-15.41,8.4-16.14c-2.67-.42-19.29,4.78-19.29,4.78l-12.06-9.99"/><path class="cls-15" d="M71.4,105.54s.12-.11.37-.29c.25-.17.62-.43,1.12-.73.99-.61,2.47-1.44,4.38-2.26,1.91-.82,4.28-1.63,6.98-2.2,1.35-.29,2.79-.51,4.28-.64.37-.04.75-.06,1.13-.08.38-.03.77-.05,1.16-.04.78,0,1.61.07,2.39.38.39.15.76.37,1.08.66.31.29.56.65.73,1.03.34.77.35,1.61.24,2.37-.11.77-.34,1.49-.61,2.17-.14.34-.29.66-.43.99-.15.32-.3.64-.45.95-1.23,2.48-2.64,4.54-3.94,6.17-1.3,1.63-2.51,2.82-3.4,3.57-.45.37-.8.65-1.06.83-.25.18-.39.26-.4.25-.01-.01.11-.13.33-.33.23-.2.57-.5.99-.89.84-.79,2-2,3.26-3.64,1.25-1.64,2.61-3.7,3.8-6.16.58-1.23,1.22-2.54,1.42-3.97.1-.71.08-1.45-.21-2.1-.28-.65-.84-1.16-1.53-1.43-.69-.27-1.46-.34-2.21-.35-.38,0-.75.01-1.13.04-.38.03-.75.04-1.12.08-1.48.12-2.9.33-4.23.6-2.68.53-5.02,1.3-6.94,2.08-1.92.77-3.41,1.54-4.42,2.1-1.02.55-1.57.89-1.59.85Z"/><path class="cls-16" d="M58.18,97.36s-.08.24-.24.66c-1.3,3.59-6.38,16.1-9.91,19.54-1.41,1.38-28.43,22.58-28.43,22.58l7.23,7.69s25.72-17.63,30.78-21.72c2.07-1.67,16.95-24.67,16.95-24.67l-16.38-4.08Z"/><path class="cls-2" d="M88.71,123.9c-.66-.81-1.24-1.47-1.24-1.47l-5.71-4.09-.9,1.33s4.37,3.64,7.23,5.73c.17.16.64.5,1.04.32,0,0,0,0,0,0,.03,0,3.42-1.68,3.84-2.1.81-.8-2.57-.12-4.27.26Z"/><path class="cls-2" d="M27,147.98c-.66-.81-1.24-1.47-1.24-1.47l-5.23-4.97-1.38,1.36s4.37,4.49,7.23,6.58c.17.16.64.5,1.04.32,0,0,0,0,0,0,.03,0,3.42-1.68,3.84-2.1.81-.8-2.57-.12-4.27.26Z"/><path class="cls-15" d="M65.81,100.73s-.24.33-.79.64c-.27.16-.62.3-1.02.43-.4.12-.86.21-1.34.24-.48.03-.95,0-1.36-.06-.41-.07-.78-.17-1.07-.29-.59-.23-.9-.47-.87-.53.03-.07.39.06.97.19.58.13,1.39.25,2.29.19.9-.06,1.69-.28,2.25-.5.56-.21.9-.38.94-.32Z"/><path class="cls-15" d="M60.17,97.93s-.04.21-.17.6c-.13.39-.32.95-.56,1.69-.49,1.47-1.12,3.61-1.93,6.26-.83,2.63-1.86,5.81-3.73,9-.93,1.59-2.08,3.17-3.43,4.65-1.35,1.49-2.88,2.89-4.51,4.24-6.57,5.34-12.91,9.65-17.59,12.62-2.34,1.48-4.27,2.63-5.61,3.4-.67.39-1.2.68-1.56.87-.36.19-.55.29-.56.27,0-.01.17-.14.51-.36.35-.22.86-.54,1.51-.95,1.31-.82,3.21-2.01,5.52-3.53,4.62-3.03,10.92-7.39,17.46-12.71,1.62-1.34,3.13-2.73,4.47-4.19,1.34-1.46,2.47-3,3.4-4.56,1.86-3.13,2.92-6.26,3.79-8.88.86-2.63,1.54-4.77,2.08-6.22.27-.73.49-1.29.65-1.66.16-.38.25-.57.27-.56Z"/><path class="cls-10" d="M58.13,97.48s-.26-7.93,10.58-16.41c10.84-8.49,16.01-14.16,17.64-13.91,1.63.25,9.87,3.73,9.87,3.73-.09,3.62-.29,6.54-2.11,11.8-.57,1.65-1.83,4.7-2.41,5.92-.32.66-.75,1.7-.97,2.06-.43.7-31.82,9.38-32.61,6.81Z"/><polygon class="cls-6" points="52.56 76.61 52.56 76.62 52.56 76.61 52.56 76.61"/><path class="cls-10" d="M88.35,83.29c.89-1.12,1.76-2.26,2.57-3.45.8-1.19,1.56-2.46,2.13-3.81.57-1.34.89-2.78.65-4.22-.12-.69-.38-1.35-.78-1.93-.42-.61-1-1.11-1.63-1.49-.02-.01-.04-.02-.05-.03,0,0,0-.02-.02-.02-.52-.67-1.09-1.31-1.64-1.95-.07-.09-4.16-4.14-4.25-4.06-.82-.75-1.65-1.49-2.49-2.22-1.03-.9-2.08-1.78-3.23-2.54-.49-.32-.99-.61-1.51-.87-.37-.22-.77-.39-1.18-.46-.42-.08-.81.02-1.17.24-.08,0-.16.03-.2.11h0s-.02.03-.03.05c0,0,0,0-.01.01,0,0-.03.02-.04.03,0,0,0,0,0,0-.02,0-.03.01-.05.02,0,0-.01,0-.02,0-.02,0-.04,0-.06.01h-.06s0,0,0,0c0,0,0,0-.01,0,0,0-.03-.01-.05-.02h-.01s-.03-.03-.05-.04c0,0,0,0-.01-.01-.02-.02-.03-.03-.04-.05,0,0,0,0,0,0,0,0,0,0,0,0-.01-.02-.06-.08-.05-.11.01.03.01.04,0,.01,0-.01,0-.02,0-.03,0-.02,0-.04-.01-.06,0,0,0,0,0,0,0,0,0,0,0,0,0-.02,0-.04,0-.07,0-.01,0-.02,0-.04,0-.03,0-.02,0,0,0-.01.01-.04.02-.06,0-.02.01-.04.02-.06,0,0,0,0,0,0,0,0,0-.01.01-.02.02-.04.05-.07.07-.11,0,0,0,0,.01-.01.02-.02.03-.03.05-.05s.04-.03.06-.04c0,0,0,0,0,0,0,0,0,0,0,0,.02-.01.04-.02.06-.04.65-.6-.07-1.48-.53-1.93-.19-.18-.39-.38-.63-.47-.74-.42-1.68-.35-2.45-.03-.49.2-.94.5-1.36.82-.46.34-.9.69-1.34,1.05-.5.41-1,.82-1.49,1.25-.18.16-.04.4.14.43.02.07.06.14.13.2.22.19.57.16.93.03-.44.36-.87.72-1.3,1.08-1.93,1.61-3.85,3.23-5.76,4.88-1.9,1.65-3.85,3.37-5.74,5.08-1.95,1.76-3.88,3.55-5.79,5.36-.24.23-.48.46-.72.68,0,0,0,0,0,0-.41.39-.84.88-.57,1.46.08.17.21.31.34.44.16.16.33.31.49.47.16.16.34.33.51.48.16.15.36.23.58.18.42-.1.72-.48.99-.8.03-.03.06-.05.09-.08.01,0,.03-.02.04-.03-.05.05,0,0,.01,0,.03-.02.07-.04.1-.05.02,0,.04-.02.06-.02,0,0,0,0,0,0,.04-.01.08-.02.12-.03,0,0,.02,0,.02,0,0,0,0,0,0,0,.01,0,.03,0,.03,0,.02,0,.04,0,.06,0,0,0,0,0,0,0,.02,0,.04.01.06.02,0,0,0,0,.01,0,0,0,.02.01.03.02.01,0,.03.02.04.03.01.01.02.02.03.03s.02.02.03.04c.01.03.03.05.04.08,0,0,0,0,0,0,0,.02,0,.03.01.05,0,0,0,0,0,0,0,0,0-.01,0-.02,0,0,0,.01,0,.02,0,.02,0,.02,0,0,0,.01,0,.02,0,.03,0,0,0,0,0,.01,0,0,0,.02,0,.02,0,0,0,0,0,.01,0,.01-.01.02-.02.03-.01.02-.02.04-.03.07,0,0-.01.01-.02.02,0,0-.01,0-.02.02h0c-.38.39-.7.85-.78,1.39-.09.6.19,1.2.51,1.69.37.58.83,1.1,1.27,1.63.46.56.94,1.1,1.42,1.64.97,1.09,1.96,2.15,2.98,3.19.51.52,1.02,1.03,1.53,1.54.52.51.98.99,1.51,1.44.46.38,1.01.68,1.62.61.55-.06,1.01-.43,1.42-.77.11-.09.21-.18.32-.26,0,0,0,0,0,0h0c1.05-.87,2.08-1.77,3.11-2.67.34-.3.68-.59,1.02-.89.13-.12.09-.28-.01-.37.07-.09,1.01-1.31,1.41-1.8.41-.51,4.02-4.89,4.55-5.66.53-.77,2.75-3.25,3.43-3.83.67-.58,3.38-2.74,4.04-3.02s2.65-1.16,3.25-1.38c.6-.22,2.51-.51,3.1-.67s2.67.74,3.32,1.15.98,1.38,1.04,1.99c.06.61,0,2.08-.38,3.3-.38,1.22-1.27,2.83-1.67,3.59-.27.5-.82,1.78-1.16,2.6-.35.47-.71.94-1.08,1.4-.1.13-.2.25-.3.37-.08.1-.03.27.07.34.12.08.26.03.34-.07ZM52.19,76.33s.01,0,.03,0c0,0-.01,0-.03,0Z"/><path class="cls-15" d="M73.24,75.05h0c.04-.07.33-.86.54-2.03h0s.02-.06.04-.08h0c.67-.7,1.06-1.23,1.06-1.23.07-.09.07-.21,0-.31h0l-.44-.64h0s0-.01-.01-.02c-.06-.07-.16-.07-.23-.02l-.2.18s-.01,0-.01,0c0,0,0,0,0,0h0c0-.62-.03-1.28-.14-1.95h0c-.02-.13-.07-.26-.16-.36h0c-.09-.11-.21-.18-.34-.21h0c-2.99-.92-5.97-.26-6.12-.21h0s-.07.03-.1.06c-.09.08-.11.21-.06.32l.39.68c.05.1.03.21-.04.29-.1.09-2.28,2.2-2.75,2.85h0c-.07.1-.06.23.02.32h0c.3.33.58.64.88.97l.02.03s.09.04.12,0h0c.19-.19.62-.62,1.08-1.06.01-.01.03-.02.04-.04h0s.06-.09.05-.14c-.05-.26.03-.55.24-.74.77-.73,1.68-1.55,2.44-2.14h0c.06-.05.15-.04.21.02.06.06.05.16-.01.22h0c-.51.4-1.08.9-1.63,1.4h0c-.08.07-.08.18-.01.26.07.08.18.08.26.01h0c.56-.51,1.13-1,1.64-1.4.06-.05.15-.04.21.02.06.06.05.16-.01.22h0c-.5.4-1.07.89-1.62,1.39h0c-.08.07-.08.18-.01.26.07.07.18.08.26.01h0c.55-.5,1.13-1,1.63-1.39.06-.05.15-.04.21.02.06.06.05.16-.01.22h0c-.74.58-1.62,1.37-2.37,2.08h0s0,.01-.01.02h0c-.21.19-.5.25-.75.19-.05-.01-.1,0-.14.03,0,0-.13.09-.67.65-.23.25-.39.42-.46.5h0s-.03.08,0,.11h0l.05.05h0c.1.11.2.22.3.34l.04.04c.13.15.26.29.38.43l.28.33h0s.07.04.11.01h0c.76-.53,1.17-.86,1.17-.86.04-.03.04-.08.01-.12l-.29-.45h0c-.04-.07-.04-.14,0-.2.02-.03.06-.06.06-.06,2.46-1.87,3.91-1.79,3.91-1.79.04,0,.06,0,.06,0,.03,0,.06.02.09.05.05.05.05.12.02.18,0,0-.01.02-.05.06-.67.7-1.94,1.76-2.94,2.56-.85.68-1.53,1.21-1.53,1.21h0s-.03.06,0,.09h0c.19.22.37.44.56.67h0c.08.1.21.12.32.07h0c.71-.38,3.09-2.27,3.19-2.35.09-.06.21-.06.3,0l.62.48c.1.07.23.06.32-.02.03-.03.05-.06.07-.09h0Z"/><path class="cls-10" d="M53.31,76.25c.18.2,5.35-4.08,11.56-9.56,6.21-5.48,11.1-10.09,10.92-10.29-.18-.2-5.35,4.08-11.56,9.56-6.21,5.48-11.1,10.09-10.92,10.29Z"/><path class="cls-15" d="M74.43,54.76s-.08-.09-.26-.14c-.18-.05-.46-.07-.79-.01-.33.05-.71.2-1.09.42-.38.22-.76.5-1.13.83-.36.32-.7.62-1.02.87-.32.25-.62.44-.9.57-.54.26-.94.27-.94.35-.01.05.41.18,1.06-.03.32-.1.67-.28,1.03-.53.36-.24.72-.54,1.08-.86.36-.31.71-.59,1.04-.81.34-.22.66-.38.94-.46.57-.18.96-.11.97-.18Z"/><path class="cls-10" d="M82.88,66.39c.09-.1-1.28-1.57-3.06-3.3-1.78-1.73-3.3-3.05-3.39-2.95s1.28,1.57,3.06,3.3c1.78,1.73,3.3,3.05,3.39,2.95Z"/><path class="cls-15" d="M87.87,68.21s-.42-.84-1.31-2.05c-.44-.61-1-1.31-1.64-2.07-.65-.75-1.39-1.56-2.21-2.37-.82-.81-1.63-1.54-2.4-2.18-.77-.64-1.48-1.18-2.09-1.62-1.23-.87-2.04-1.33-2.07-1.28-.04.06.7.62,1.86,1.55.58.47,1.26,1.04,2.01,1.68.74.65,1.54,1.38,2.35,2.18.81.8,1.55,1.59,2.21,2.32.66.73,1.24,1.41,1.71,1.98.95,1.15,1.52,1.88,1.58,1.84Z"/><path class="cls-15" d="M59.13,88.39c-.03.06.95.65,2.6,1.51.82.43,1.82.91,2.96,1.37,1.14.46,2.43.9,3.83,1.2,1.4.29,2.78.39,4.02.32,1.24-.07,2.35-.3,3.24-.61.89-.31,1.57-.66,2-.95.44-.29.65-.48.63-.51-.05-.08-.99.61-2.75,1.11-.87.26-1.95.44-3.15.48-1.2.04-2.53-.07-3.89-.35-2.73-.58-5.06-1.64-6.74-2.39-1.68-.77-2.72-1.25-2.75-1.18Z"/><path class="cls-15" d="M62.84,87.17c-.02.06,1,.57,2.72,1.27.86.35,1.89.74,3.07,1.1,1.18.36,2.5.68,3.93.85,1.42.16,2.8.14,4.03-.04,1.23-.18,2.31-.51,3.17-.9.86-.39,1.5-.8,1.91-1.13.41-.33.61-.54.59-.56-.06-.08-.93.69-2.63,1.36-.85.33-1.9.61-3.09.76-1.19.15-2.53.16-3.91,0-2.77-.34-5.19-1.18-6.93-1.78-1.74-.61-2.82-1-2.85-.93Z"/><path class="cls-15" d="M62.68,86.97c3.08-4.45,7.69-7.49,11.72-10.99,0,0,6.16-5.16,6.16-5.16,1.04-.85,2.08-1.7,3.17-2.49.7-.47,1.4-1,2.24-1.21.52-.09,1.01.2,1.48.35-.32-.08-.65-.17-.98-.22-.32-.07-.62.06-.91.21-.57.32-1.09.74-1.61,1.16-1.03.85-2.02,1.75-3.02,2.64-1.99,1.79-4.01,3.57-6.07,5.29-4.06,3.5-8.66,6.34-12.2,10.42h0Z"/><path class="cls-10" d="M86.73,63.89c-.18.3-.28.66-.12.99.18.37.55.61.88.82.38.24.79.46,1.23.54.18.03.36.03.54.02-.04-.05-.08-.09-.12-.14-.04-.05-.08-.1-.12-.14.22-.19.43-.38.64-.58.28-.27.55-.56.8-.86.04-.04.06-.1.04-.15,0-.03-.01-.06-.03-.09-.45-.63-.97-1.21-1.49-1.77-.02-.02-.03-.03-.05-.03-.03-.02-.07-.02-.11,0-.67.33-1.31.74-1.88,1.22-.05.05-.11.09-.16.14,0,0-.01,0-.02-.01,0,.02,0,.03-.02.05Z"/><path class="cls-15" d="M90.46,64.48s-.04-.1-.15-.25c-.06-.07-.12-.16-.21-.25-.04-.05-.08-.1-.13-.15-.02-.03-.05-.06-.07-.08-.05-.05-.09-.1-.14-.15-.19.13-.4.28-.62.44-.19.14-.4.29-.61.45-.14.1-.28.21-.41.3-.07.05-.13.1-.19.15-.03.02-.06.05-.09.07h0s0,0,0,0c0,0,0,0,0,0l-.03-.03s-.08-.07-.11-.1c-.07-.07-.14-.13-.21-.19-.13-.12-.25-.22-.35-.31-.2-.17-.32-.26-.34-.24-.02.02.07.14.24.34.08.1.19.22.31.35.06.07.12.14.19.21.03.04.07.07.1.11.06.06.12.13.18.19.15-.11.31-.22.47-.34.13-.1.27-.2.41-.3.21-.16.42-.31.61-.46.09-.07.19-.14.27-.21.04-.03.09-.07.13-.1l.03-.02h0s.01-.02.01-.02h.02s.05.06.08.08c.05.05.1.09.15.14.09.09.17.16.24.22.14.12.22.17.24.16Z"/><path class="cls-15" d="M89.33,65.92s-.04-.01-.09,0c-.02,0-.05.02-.08.04-.02,0-.03,0-.04,0,0,0,0,0-.01-.01,0,0,0-.01,0-.02,0,0,0,0,0-.01l-.02-.03s-.03-.04-.05-.06c-.06-.08-.14-.17-.22-.26-.31-.36-.63-.62-.69-.56-.05.05.17.37.48.73.08.09.16.17.24.25.02.02.04.04.06.05.02.02.05.04.07.06.03.03.06.05.09.07.03.02.05.06.08.02.05-.05.09-.1.12-.13.02-.03.03-.05.05-.07.02-.04.03-.07.02-.08Z"/><path class="cls-15" d="M92.41,73.16c.26.82.47,1.65.55,2.51.09.95.13,1.9.26,2.85.19,1.39.5,2.83.9,4.18,1.38-4.06,2.39-8.17,2.23-10.52-.02-.26.84-.81.79-1,0,0-3.46-1.36-6-2.36.21,1.49.82,2.92,1.27,4.34Z"/><path class="cls-1" d="M93.02,61.57l3.34-8.04,8.75,2.25.19,5.17,1.16,2.4.07,1.78-1.67-.08s-.57,2.35-.85,2.85-.99,1.61-1.43,1.84c-.44.22-.74.34-1.03.32s-3-.6-3-.6l-1.75,2.17-.82-.31c-.92-.35-1.76-.88-2.46-1.57l-2.18-2.14s1.35-3.34,1.62-4.06c.27-.72.07-1.98.07-1.98h0Z"/><path class="cls-14" d="M102.85,65.3c.48.4,1.05.7,1.66.86.13.03.26,0,.32-.13.05-.11,0-.29-.13-.32-.58-.15-1.09-.42-1.55-.8-.1-.08-.26-.06-.34.04-.08.11-.06.26.04.34h0Z"/><path class="cls-12" d="M103.66,61.8c.31.04.38-.45.06-.49s-.38.45-.06.49h0Z"/><path class="cls-12" d="M104.91,57.87c.01.06.03.12.04.17,0,.05.01.11.02.16,0,.06.04.12.09.16.03.02.05.03.09.04.03.01.06.01.1,0,.06-.01.12-.04.16-.09s.06-.12.05-.18c0-.05-.01-.11-.02-.16,0-.06-.02-.12-.04-.17,0-.03-.01-.06-.03-.09-.01-.03-.03-.05-.06-.07-.03-.02-.05-.03-.09-.04-.03-.01-.06-.01-.1,0-.06.01-.12.04-.16.09s-.06.12-.05.18h0Z"/><path class="cls-12" d="M96.97,60.78c-.31-.42-.85-.55-1.33-.4-.5.15-.85.61-.99,1.1-.16.54-.13,1.11.07,1.64s.56.93.98,1.26c.27.21.61.4.96.28.31-.1.52-.43.48-.76s-.52-.24-.49.07c.01.12-.1.24-.22.24-.19,0-.38-.17-.52-.29-.31-.26-.57-.58-.72-.96s-.19-.8-.11-1.2c.07-.34.27-.71.59-.86s.7-.12.92.18c.19.25.58-.05.39-.3h0Z"/><path class="cls-12" d="M106.28,62.44c-.24-.42-.49-.84-.73-1.26,0-1.02-.04-2.04-.1-3.05,0-.13-.15-.23-.28-.21-.14.02-.22.14-.21.28.05,1.02.1,2.03.09,3.05,0,.09.03.17.09.22.36.61.77,1.22,1.05,1.88.13.3.22.61.23.94,0,.21-.02.55-.21.66-.14.08-.36.01-.5-.02-.2-.05-.4-.13-.58-.23-.06-.03-.14-.02-.2,0-.09.02-.17.11-.18.21h0c-.24,1.28-.67,2.55-1.39,3.65-.28.43-.64.87-1.11,1.1-.24.12-.51.18-.78.16-.34-.03-.67-.13-.99-.22-.79-.22-1.57-.47-2.34-.76-.29-.11-.49.34-.19.45.11.04.23.08.34.12-.65,1-1.39,1.93-2.2,2.8-.09.1-.05.27.04.34.11.09.25.05.34-.04h0c.84-.89,1.6-1.86,2.27-2.89,0-.01.01-.02.02-.04.45.15.9.29,1.36.42.69.2,1.41.44,2.12.19.56-.2,1.01-.64,1.36-1.12.4-.55.72-1.17.98-1.8.27-.65.46-1.33.61-2.02.12.05.25.1.38.13.21.06.42.1.63.07.4-.05.63-.41.7-.78.15-.79-.23-1.58-.61-2.24Z"/><path class="cls-12" d="M93.38,61.09c-2-.74-3.65-3.08-3.48-5.21.09-1.12.64-2.29,1.67-2.76.8-.37,1.77-.26,2.58.09s1.51.93,2.18,1.5c.18-1.43.48-3.06,1.73-3.77,1.16-.66,2.84-.07,3.32,1.18.22.56.27,1.28.81,1.56.89.47,1.84-.86,2.84-.7.86.14,1.18,1.25,1.93,1.67.55.31,1.24.21,1.87.29s1.35.52,1.26,1.15c-.08.58-.78.85-1.37.85s-1.2-.17-1.75.05c-.52.21-.86.72-1.36.95-.9.42-1.92-.14-2.75-.69.44.61.87,1.5.35,2.05-.22.23-.54.31-.85.36-1.37.2-2.82-.19-3.91-1.06.08.83-.2,1.7-.75,2.33-.22-.83-.57-1.78-1.39-2-.62-.16-1.27.19-1.72.65s-.76,1.04-1.2,1.51"/><path class="cls-12" d="M93.42,60.91c-.05-.02-.1-.04-.15-.06s.03.02-.02,0c0,0-.02,0-.03-.01-.03-.01-.06-.03-.09-.04-.1-.05-.2-.1-.29-.15-.2-.11-.39-.24-.58-.37-.02-.02-.05-.03-.07-.05.03.02-.01-.01-.02-.01,0,0-.02-.01-.03-.02-.05-.04-.1-.08-.14-.12-.09-.07-.17-.15-.25-.23-.17-.17-.33-.34-.49-.53-.02-.02-.03-.04-.05-.06-.01-.01-.02-.03-.03-.04-.02-.03,0,0,0,0-.04-.05-.08-.1-.11-.15-.07-.1-.14-.19-.2-.29-.13-.2-.24-.41-.34-.62-.02-.05-.05-.1-.07-.15,0-.02-.01-.03-.02-.05-.01-.03,0,0,0,0-.01-.03-.03-.06-.04-.09-.04-.11-.08-.22-.12-.33-.07-.22-.13-.44-.17-.66,0-.05-.02-.1-.02-.16,0,.04,0-.01,0-.02,0-.01,0-.02,0-.03,0-.03,0-.07-.01-.1-.01-.11-.02-.22-.02-.33s0-.22.01-.33c0-.06,0-.11.02-.17,0-.01,0-.02,0-.03,0-.06,0,.04,0-.02,0-.03,0-.06.01-.09.04-.23.1-.46.18-.68.02-.05.04-.11.06-.16,0,0,.02-.04,0-.01,0-.01,0-.02.01-.03.01-.03.03-.06.04-.09.05-.11.11-.21.17-.32.06-.1.12-.19.19-.28-.02.03,0,0,0,0,0-.01.02-.02.03-.03.02-.02.04-.04.05-.06.04-.05.08-.09.12-.13.04-.04.08-.07.11-.11.02-.02.04-.03.06-.05.01-.01.03-.02.04-.03,0,0,.05-.04.01-.01.09-.07.19-.14.29-.19.11-.06.2-.1.31-.14.13-.05.26-.08.4-.11.03,0,.06-.01.1-.02,0,0-.03,0,0,0,.02,0,.03,0,.05,0,.07,0,.14-.01.21-.01.14,0,.28,0,.42.02.01,0,.03,0,.04,0,0,0,.06,0,.03,0,.03,0,.06,0,.09.01.07.01.14.02.21.04.14.03.27.07.41.12.06.02.12.04.18.07.02,0,.03.01.05.02.06.02-.01,0,.02,0s.07.03.1.05c.13.06.26.13.39.2.5.28.93.62,1.36.97.11.09.21.18.32.27.06.05.13.07.2.04s.1-.09.11-.17c0-.05.01-.11.02-.16,0-.03,0-.05.01-.08,0,.04,0-.01,0-.02,0-.02,0-.03,0-.05.02-.11.03-.23.05-.34.04-.23.08-.46.14-.69s.11-.44.19-.66c.02-.05.04-.1.06-.15,0-.02.02-.05.03-.07,0-.01.01-.03.02-.04-.02.04,0,0,0-.02.04-.1.09-.21.15-.3s.11-.19.17-.28c.03-.04.06-.08.09-.12,0-.01.02-.03.03-.04-.02.03,0,0,0,0,.02-.02.04-.05.06-.07.07-.08.15-.16.23-.24.04-.03.07-.07.11-.1.01,0,.02-.02.03-.02-.03.02,0,0,0,0,.02-.02.05-.03.07-.05.09-.06.18-.12.28-.17.02-.01.04-.02.07-.03,0,0,.02,0,.03-.01-.04.02,0,0,.01,0,.05-.02.09-.03.14-.05.1-.03.2-.05.3-.07.01,0,.09-.01.04,0,.02,0,.05,0,.07,0,.05,0,.1,0,.15,0,.1,0,.2,0,.3.01.02,0,.05,0,.07,0-.05,0,.03,0,.04,0,.05,0,.11.02.16.03.1.02.19.05.28.08.02,0,.05.02.07.03,0,0,.08.03.04.01.05.02.1.04.15.07.09.04.17.09.26.15.04.03.08.06.12.08,0,0,.04.04,0,0,0,0,.02.01.02.02.02.02.05.04.07.06.08.07.15.14.21.21.01.02.03.03.04.05,0,0,.05.07.03.03.03.04.06.09.09.13.06.09.11.18.15.27,0,0,0,.02.01.03-.02-.04,0,0,0,0,0,.02.02.05.03.07.02.05.04.11.05.16.07.21.12.43.2.64.08.22.18.43.34.61.15.16.35.28.56.32.41.08.81-.09,1.16-.27.18-.1.36-.2.55-.29.04-.02.09-.04.14-.07.02-.01.05-.02.07-.03.03-.01,0,0,0,0,.02,0,.04-.01.05-.02.09-.03.18-.06.27-.09.02,0,.05,0,.07-.01.01,0,.02,0,.03,0,.03,0-.05,0,0,0,.05,0,.1,0,.15,0,.02,0,.05,0,.07,0,0,0,.02,0,.03,0,.05,0-.04,0,0,0s.09.02.14.03c.02,0,.04.01.07.02.01,0,.03,0,.04.01,0,0-.04-.02,0,0,.05.02.09.04.13.07.04.02.08.05.11.08-.04-.03.02.01.03.02.02.02.04.03.06.05.3.27.52.63.8.93.14.16.3.3.48.41.23.14.49.22.75.26.28.04.56.04.84.06.14,0,.28.01.42.03,0,0,.04,0,0,0,.02,0,.03,0,.05,0,.03,0,.05,0,.08.02.05.01.1.03.16.04s.1.03.15.05-.03-.02.02,0c0,0,.02,0,.03.01.03.01.06.03.09.04.05.03.09.05.14.08.02.01.04.03.06.05,0,0,.03.02,0,0,.01.01.03.02.04.03.04.03.07.06.1.1.02.02.03.04.05.06-.03-.04,0,0,0,0,0,.01.02.02.02.04.01.02.02.04.04.06,0,0,.03.08.02.03.02.05.03.09.04.14,0,.01,0,.04,0,0,0,.01,0,.02,0,.04,0,.02,0,.05,0,.07,0,.01,0,.08,0,.03,0,.03-.01.06-.02.09,0,.02-.01.05-.02.07-.01.04.01-.02,0,0,0,0,0,.02-.02.03-.01.02-.02.04-.03.06,0,0-.01.02-.02.03-.03.04.02-.02,0,.01-.03.04-.06.07-.1.1,0,0-.01.01-.02.02,0,0-.04.03-.01.01s-.01.01-.02.01c-.01,0-.02.02-.04.02-.04.03-.08.05-.13.07-.02.01-.05.02-.07.03-.04.02.02,0,0,0-.02,0-.03.01-.05.02-.1.04-.2.06-.31.08-.02,0-.05,0-.07.01.05,0-.03,0-.04,0-.06,0-.11,0-.17,0-.28,0-.57-.04-.85-.05s-.59-.01-.87.07c-.27.08-.49.23-.71.4-.1.08-.19.16-.28.24-.05.04-.09.08-.14.12,0,0-.02.01-.03.02-.05.04.03-.02-.02.01-.03.02-.05.04-.08.06-.05.03-.1.07-.15.1-.02.01-.05.03-.07.04-.02,0-.03.02-.05.02,0,0-.05.02-.03.01-.06.02-.12.04-.18.06-.03,0-.06.02-.09.02-.02,0-.03,0-.05,0,0,0-.07,0-.03,0-.12.01-.25.01-.38,0-.02,0-.04,0-.06,0,0,0,.03,0,0,0-.03,0-.06-.01-.09-.02-.07-.01-.14-.03-.21-.05-.27-.08-.49-.17-.74-.31s-.47-.27-.7-.42c-.07-.04-.17-.03-.23.03s-.08.16-.03.23c.13.19.25.38.36.58.01.03.03.05.04.08,0,.01.01.02.01.03,0,0,.02.05.01.03s.01.03.01.03c0,.01,0,.02.01.03.01.03.02.06.03.08.04.1.06.21.08.32,0-.04,0,0,0,0,0,.01,0,.03,0,.04,0,.02,0,.05,0,.07,0,.05,0,.1,0,.15,0-.04,0,0,0,0,0,.01,0,.03,0,.04,0,.02-.01.05-.02.07s-.02.04-.02.07c.01-.03,0,0,0,0,0,.01-.01.03-.02.04-.01.02-.03.05-.04.07,0,0-.01.02-.02.03-.03.04.01-.02,0,0-.04.04-.08.08-.12.12s.02-.01-.01,0c-.01,0-.02.02-.04.03-.02.01-.05.03-.07.04s-.05.02-.07.04c-.03.02-.01,0,0,0-.02,0-.03.01-.05.02-.11.04-.22.07-.34.09-.03,0-.06.01-.09.01-.01,0-.02,0-.04,0-.06,0,.02,0-.02,0-.06,0-.12.01-.18.02-.24.02-.49.03-.73.01-.12,0-.24-.02-.36-.03-.06,0,.02,0-.02,0-.02,0-.03,0-.05,0-.03,0-.06,0-.09-.01-.06,0-.12-.02-.18-.03-.24-.05-.47-.11-.7-.19-.07-.02-.13-.05-.2-.07-.01,0-.02,0-.04-.01,0,0-.05-.02-.03-.01-.04-.01-.07-.03-.11-.05-.12-.06-.24-.12-.36-.18s-.23-.13-.34-.21c-.06-.04-.12-.08-.17-.12-.03-.02-.05-.04-.08-.06,0,0-.05-.03-.03-.02,0,0,0,0-.01,0-.01,0-.02-.02-.03-.02-.06-.05-.13-.07-.2-.04-.06.03-.12.1-.11.17.01.16.02.32,0,.47,0,.04,0,.08,0,.11,0,.02,0,.04,0,.06,0,0,0,.02,0,.03,0,.03,0-.02,0,0-.01.08-.03.16-.04.23-.04.16-.08.31-.14.46,0,.02-.01.04-.02.05,0,.02,0,0,0,0,0,0,0,.02-.01.03-.02.04-.03.08-.05.11-.03.07-.07.14-.11.21-.05.08-.09.15-.15.22-.01.02-.03.04-.04.05,0,0-.02.02,0,.01,0-.01-.01.02-.01.02-.03.04-.06.07-.09.11l.31.08c-.1-.39-.23-.77-.41-1.13s-.42-.67-.76-.86c-.39-.23-.87-.24-1.29-.09-.45.17-.83.48-1.14.84-.36.43-.65.91-1.02,1.31-.07.07-.08.19,0,.26.07.07.19.08.26,0,.17-.18.32-.37.46-.57.07-.09.14-.19.21-.28.03-.05.07-.09.1-.14.02-.02.03-.04.05-.07,0-.01.02-.02.02-.03,0,0,.03-.04.02-.03.14-.18.29-.35.45-.51.16-.14.31-.26.51-.36.02-.01.05-.02.07-.03.01,0,.02-.01.03-.02.03-.01-.02,0,0,0,.05-.02.1-.04.16-.05.05-.01.1-.03.15-.04.01,0,.07-.01.04,0,.03,0,.06,0,.09,0,.05,0,.1,0,.15,0,.02,0,.05,0,.07,0,.04,0,.01,0,0,0,.02,0,.04,0,.05,0,.04,0,.09.02.13.03.02,0,.04.01.06.02,0,0,.02,0,.03.01.04.02-.02-.01.01,0,.08.04.15.08.22.13,0,0,.05.04.02.02.02.01.03.03.05.04.03.03.06.06.09.09s.06.06.09.1c.01.02.03.04.04.05,0,0-.02-.03,0,0,0,.01.02.02.02.03.05.07.1.15.14.22.05.09.1.18.14.28,0,0,0,.02.01.03,0,0,.02.05,0,.02,0,.02.02.05.03.07.02.05.04.1.05.15.07.2.13.4.18.6.03.13.22.19.31.08.46-.53.74-1.19.8-1.89.02-.19.02-.38,0-.57l-.32.13c.83.66,1.85,1.06,2.91,1.14.25.02.51.02.77,0s.52-.05.77-.12c.26-.08.49-.21.66-.43.14-.19.21-.43.21-.66,0-.28-.09-.55-.2-.81s-.25-.48-.41-.71l-.25.25c.91.6,2.13,1.25,3.17.55.22-.15.41-.33.61-.49.05-.04.09-.07.12-.09.05-.04.11-.08.16-.11.05-.03.1-.06.16-.09.02,0,.03-.02.05-.02,0,0-.03.01,0,0s.08-.03.12-.04c.53-.15,1.12.03,1.68,0,.44-.02.94-.17,1.23-.53.15-.19.23-.42.21-.66s-.13-.46-.29-.63c-.34-.36-.84-.52-1.32-.56-.28-.02-.56-.02-.84-.04-.03,0-.07,0-.1,0-.02,0-.04,0-.06,0,0,0-.04,0,0,0-.07,0-.14-.02-.21-.04-.06-.01-.12-.03-.19-.05-.03-.01-.06-.02-.09-.03.03.01-.03-.01-.03-.01-.02,0-.04-.02-.05-.03-.05-.02-.09-.05-.14-.08-.02-.01-.04-.03-.06-.04,0,0-.04-.03,0,0-.01,0-.02-.02-.03-.03-.08-.07-.15-.14-.22-.21-.15-.16-.28-.32-.41-.49-.26-.33-.55-.66-.95-.81s-.86-.03-1.26.15c-.19.09-.38.19-.56.29-.09.05-.18.1-.28.14-.02.01-.04.02-.07.03-.01,0-.03.01-.04.02,0,0,.04-.02,0,0-.05.02-.09.04-.14.05-.04.01-.09.03-.13.04-.02,0-.04,0-.06.01-.01,0-.03,0-.04,0-.04,0,.04,0,0,0s-.08,0-.13,0c-.02,0-.04,0-.06,0h-.01s-.02,0,.01,0c0,0-.03,0-.04,0-.04,0-.09-.02-.13-.04,0,0-.05-.02,0,0-.01,0-.02,0-.03-.01-.02-.01-.05-.02-.07-.04-.02-.01-.04-.03-.06-.04-.04-.03.03.02,0,0,0,0-.02-.02-.03-.02-.04-.03-.07-.07-.11-.11.03.03,0,0,0,0,0-.01-.01-.02-.02-.03-.01-.02-.03-.04-.04-.06-.03-.05-.05-.1-.08-.15,0-.01-.01-.02-.02-.04.02.04,0,0,0,0-.01-.03-.02-.05-.03-.08-.02-.05-.04-.11-.05-.16-.07-.22-.13-.44-.21-.66-.31-.83-1.08-1.42-1.94-1.58-.43-.08-.88-.07-1.29.08-.44.15-.82.44-1.11.79-.6.73-.84,1.69-.99,2.61-.04.24-.07.47-.1.71l.32-.13c-.9-.75-1.85-1.54-3.03-1.79-.57-.12-1.18-.12-1.73.08-.48.17-.89.48-1.2.88-.61.78-.87,1.81-.78,2.79s.48,1.92,1.06,2.72,1.33,1.47,2.22,1.88c.11.05.23.1.35.14.09.03.21-.04.23-.13.02-.11-.03-.19-.13-.23h0Z"/><path class="cls-12" d="M88.88,56.91c-.79.6-.96,1.73-.72,2.69s1.1,1.74,2.08,1.89c.39.06.84.06,1.07.38.08.11.12.25.15.38.21.72.48,1.42.81,2.09.04.07.08.15.15.18.16.06.3-.13.36-.29.37-.93.6-1.91.7-2.9.14-1.38-.04-2.9-1.01-3.88-.91-.93-2.46-1.16-3.6-.53"/><path class="cls-12" d="M88.79,56.75c-.28.21-.5.48-.65.79s-.23.66-.26,1.01c-.05.68.1,1.4.51,1.97s1.01.99,1.7,1.13c.09.02.19.03.28.04.04,0,.08,0,.12.01.01,0,.02,0,.03,0,0,0-.03,0,0,0,.03,0,.05,0,.08.01.08.01.16.03.24.05.04.01.08.02.11.04,0,0,.03.01,0,0-.02,0,0,0,.01,0,.02,0,.04.02.05.03.02,0,.03.02.05.03,0,0,.02.01.03.02,0,0-.02-.02,0,0,.01.01.03.02.04.04,0,0,.01.02.02.02,0,0,.03.04.02.02-.01-.02,0,0,0,.01,0,.01.01.02.02.03.01.02.02.04.03.06.01.03,0-.02,0,0,0,0,0,.02.01.03,0,.02.02.05.03.07.06.2.12.41.19.62.14.42.3.83.49,1.24.05.1.09.2.14.3.04.09.09.19.16.26.17.17.43.13.58-.04.14-.16.2-.37.27-.57s.14-.41.2-.62c.12-.42.22-.84.3-1.27.13-.76.19-1.54.1-2.31-.08-.72-.28-1.43-.7-2.03s-.99-1.02-1.68-1.23-1.39-.21-2.04.02c-.16.06-.32.13-.48.21-.09.05-.12.17-.07.25.06.09.16.12.25.07.07-.04.14-.07.22-.11.02,0,0,0,0,0,.01,0,.02,0,.03-.01.02,0,.03-.01.05-.02.04-.02.08-.03.12-.04.15-.05.31-.09.46-.11.02,0,.04,0,.06,0,.03,0-.03,0,0,0,0,0,.02,0,.03,0,.04,0,.08,0,.13-.01.08,0,.16,0,.24,0s.16,0,.24,0c.04,0,.08,0,.12.01,0,0,.06,0,.04,0-.02,0,0,0,0,0,.01,0,.03,0,.04,0,.16.03.31.06.47.11.07.02.15.05.22.08.01,0,.02,0,.03.01,0,0-.03-.01,0,0,.02,0,.04.02.05.02.04.02.08.04.11.05.14.07.28.16.41.25.02.01.03.02.05.04.02.01,0,0,0,0,0,0,.02.01.03.02.03.03.06.05.1.08.06.05.12.11.17.17.06.06.12.13.17.19,0,0,.04.04.03.04-.01-.01,0,0,0,0,0,0,.01.02.02.03.02.03.05.07.07.1.1.14.18.29.25.44.02.03.03.07.05.1,0,0,.02.06.01.03,0,.02.02.04.03.07.03.08.06.16.09.24.05.16.1.32.13.49.02.08.03.16.05.25,0,.04.01.08.02.12,0-.03,0,.02,0,.03,0,.02,0,.05,0,.07.02.17.03.34.03.52,0,.35,0,.69-.04,1.04-.04.4-.11.81-.2,1.22s-.21.81-.35,1.2c-.04.1-.07.2-.11.3,0,.02-.02.05-.03.07s0,0,0,0c0,0,0,.02-.01.03-.02.04-.04.07-.06.1.02-.03-.01.01-.02.02,0,0-.02.01-.02.02-.01.01,0,0,0,0,0,0-.02.01-.02.02,0,0,.03-.01.01,0,0,0-.01,0-.02,0,.02,0,.03,0,.02,0-.01,0,0,0,0,0,.03,0,0,0,0,0,.03,0,0,.01,0,0,0,0,.02.02,0,0,0,0-.03-.03-.01-.01.01.02,0,0,0,0,0-.01-.01-.02-.02-.03-.01-.02-.02-.04-.03-.07-.18-.37-.34-.74-.48-1.12-.07-.2-.14-.39-.2-.59s-.11-.4-.19-.59c-.15-.34-.48-.48-.82-.54-.09-.02-.18-.03-.28-.04-.02,0-.04,0-.06,0,0,0-.06,0-.04,0s-.03,0-.04,0c-.02,0-.04,0-.07-.01-.16-.03-.31-.07-.46-.13,0,0-.06-.02-.03,0-.02,0-.03-.01-.05-.02-.04-.02-.08-.04-.11-.05-.07-.04-.14-.08-.21-.12s-.13-.09-.19-.13c.03.02-.01-.01-.02-.02-.02-.01-.03-.02-.05-.04-.03-.03-.06-.06-.09-.08-.06-.06-.12-.11-.17-.17-.02-.03-.05-.05-.07-.08-.01-.02-.02-.03-.04-.05.02.03-.02-.02-.02-.03-.09-.13-.18-.27-.25-.41,0-.02-.02-.04-.02-.05,0-.01,0-.02-.01-.03,0,0,.01.03,0,0-.02-.04-.03-.08-.04-.12-.03-.07-.05-.15-.07-.23s-.04-.16-.05-.24c0-.02,0-.04,0-.06,0,0,0-.06,0-.04s0-.04,0-.04c0-.02,0-.05,0-.07-.01-.16-.02-.32,0-.48,0-.04,0-.07,0-.11,0-.02,0-.04,0-.06,0-.01,0-.02,0-.03,0-.03,0,.03,0,0,.01-.08.03-.16.05-.24s.04-.15.06-.22c.01-.04.03-.07.04-.11,0-.01,0-.02.01-.03,0,0,.01-.03,0,0s0,0,0,0c0-.01.01-.02.02-.04.03-.07.07-.14.11-.21.02-.03.04-.06.06-.09.01-.02.02-.03.03-.05,0,0,.04-.05.02-.03.05-.06.1-.12.15-.17.03-.03.05-.05.08-.07.01-.01.03-.03.04-.04,0,0,.05-.04.03-.02.08-.06.13-.16.07-.25-.05-.08-.17-.13-.25-.07h0Z"/><path class="cls-13" d="M93.37,61.05s-.27,3.18-2.04,6.57"/><path class="cls-10" d="M94.83,80.91c.17-.56.34-1.12.5-1.69.32-1.14.59-2.3.78-3.47.1-.64.18-1.28.22-1.92,0-.05.06-.2.03-.22.2-.27.55-.74.58-.78.04-.05,1.05-1.4,1.05-1.4,0,0-.14-.36-.24-.53-.5.84-.97,1.13-1.64,1.84,0,.2-.08,1.05-.08,1.08h0c-.07,1.14-.26,2.28-.51,3.4-.26,1.15-.58,2.29-.93,3.42-.14.45-.28.91-.43,1.36.06-.61.1-1.22.13-1.83.03-.79.04-1.58.02-2.37-.02-.79-.06-1.58-.13-2.36-.07-.79-.16-1.57-.27-2.35-.11-.77-.24-1.53-.4-2.3-.02-.09-.04-.18-.06-.28.51-.67,1.02-1.33,1.53-2l.42-.55s.02-.04.02-.06c0-.04,0-.08-.04-.12-.86-.89-1.8-1.7-2.79-2.44-.28-.21-.56-.4-.84-.6-.07-.04-.16-.02-.2.05-.01.02-.02.04-.02.07-.41.82-.8,1.65-1.18,2.49-.11.24-.21.48-.31.72-.01.03-.01.06,0,.09-.02,0-.05.01-.08.02.16,1.15.22,2.32.27,3.49.07,1.66.12,3.31.34,4.96.22,1.63.53,3.24.97,4.82.42,1.49.63,5.97.57,6.26,1.12-2.2,2.52-6.22,2.69-6.78Z"/><g id="Layer_12"><polygon class="cls-4" points="101.01 74.8 101.01 74.8 101.01 74.8 101.01 74.8"/></g><path class="cls-6" d="M87.88,70.84c.65.07,1.27.31,1.75.76.43.4.7.94.83,1.51.31,1.29.08,2.65-.2,3.93-.11.51-.23,1.02-.36,1.52.29-.7.53-1.42.69-2.15.35-1.56.1-3.17-.63-4.6-.15-.3-.33-.59-.51-.87-.16-.1-.33-.2-.5-.27-1.34-.55-2.89-.22-4.14.4-1.4.69-2.57,1.76-3.56,2.95-1.03,1.24-1.9,2.62-2.65,4.04-.75,1.43-1.39,2.99-1.86,4.57-.47,1.58-.79,3.12-.94,4.71-.14,1.46-.1,2.95.34,4.35.11.34.23.67.39.99.11.24.49.08.38-.16h0c-.61-1.27-.8-2.7-.76-4.1.04-1.52.3-3.04.67-4.52.38-1.54.92-3.05,1.58-4.5.66-1.44,1.46-2.82,2.39-4.11.88-1.23,1.9-2.38,3.14-3.24,1.14-.79,2.53-1.38,3.94-1.24Z"/><path class="cls-10" d="M87.92,70.51c-.04-.06-.1-.1-.19-.09h0c-.92.14-1.82.36-2.69.68-.83.31-1.63.73-2.36,1.23-.54.37-1.05.78-1.52,1.23-1.25,1.44-2.37,2.99-3.25,4.71-.67,1.31-1.14,2.69-1.57,4.1-.32,1.06-.64,2.13-.88,3.21-.43,1.97-.4,4.43.48,6.3,1.13,2.41,9.1-6.26,9.37-6.48,1.44-1.16,2.52-2.78,3.41-4.37.81-1.44,1.54-3,1.9-4.61.35-1.56.1-3.17-.63-4.6M79.37,76.19c.41-.56.85-1.09,1.33-1.6-.47.52-.94,1.1-1.33,1.6Z"/><path class="cls-15" d="M85.09,71.14s-.04-.06-.06-.03l.04.09.03-.05Z"/><path class="cls-15" d="M84.79,71.16c0,.06,0,.15.08.2-.02-.09,0-.07-.02-.18.02-.03.07-.02.08.01,0-.03.06-.02.04-.08-.08-.02-.13.01-.14.1-.02,0-.03-.03-.04-.05h0Z"/><path class="cls-15" d="M84.55,71.64s0-.02,0-.04c0,0-.01.02-.02.03h0Z"/><path class="cls-15" d="M84.22,71.51v-.02s0,.01,0,.02Z"/><path class="cls-15" d="M76.72,81.59c.09-.04.04.14.15.07-.03,0-.07-.14-.15-.07Z"/><path class="cls-15" d="M84.53,71.65s-.01.01-.02.02c.01,0,.02-.01.02-.02Z"/><path class="cls-15" d="M84.52,71.61s.01.03,0,.04c0,0,0-.01.01-.02,0,0-.01-.02-.02-.02h0Z"/><path class="cls-15" d="M79.17,78.22s-.04.05-.06.08c.02-.02.04-.05.06-.08Z"/><path class="cls-15" d="M76.06,85.92v.02s0-.02,0-.02Z"/><path class="cls-15" d="M78.98,78.56s-.06.01-.07.02c0,0,0,.01.01.02l.06-.04Z"/><polygon class="cls-15" points="76.06 86.13 76.04 86.13 76.05 86.15 76.06 86.13"/><path class="cls-15" d="M83.02,72.93s.01,0,.02,0c0,0-.01,0-.02,0Z"/><path class="cls-15" d="M83.36,72.62l.07-.02s-.05.02-.07.02Z"/><path class="cls-15" d="M83.64,72.41s-.01-.02-.02-.03h0l.02.03Z"/><path class="cls-15" d="M80.1,76.63s0,0,0,.01c0,.03,0,.01,0-.01Z"/><path class="cls-15" d="M80.93,75.2s0,.04,0,.06c.02-.02.04-.04,0-.06Z"/><path class="cls-15" d="M79.18,78.21h0s0,0,0,0h0Z"/><path class="cls-15" d="M80.88,75.32s.04-.04.05-.06c-.02.02-.04.03-.05.06Z"/><path class="cls-15" d="M84.8,71.45h.01s0-.02,0-.02v.02Z"/><path class="cls-15" d="M84.8,71.43v-.02s0,.01,0,.02Z"/><path class="cls-15" d="M84.83,71.38l-.02.04s.02-.02.02-.04Z"/><path class="cls-15" d="M84.42,71.72v.02s0-.01,0-.02Z"/><path class="cls-15" d="M84.32,71.81s.1,0,.13-.05v-.02s-.13.01-.13.07h0Z"/><path class="cls-15" d="M83.65,71.94l.1-.06s-.08-.02-.05-.06c-.17.03.07.03-.06.12h0Z"/><polygon class="cls-15" points="81.44 74.69 81.51 74.68 81.47 74.62 81.44 74.69"/><path class="cls-15" d="M87.92,82.35c.35-.6.71-1.29,1.04-2.06.44-1.03.84-2.21,1.12-3.48.28-1.26.44-2.54.23-3.71-.11-.58-.31-1.12-.61-1.58-.3-.46-.69-.79-1.08-1.03-.39-.24-.79-.37-1.14-.42-.36-.05-.67-.02-.92.05-.49.14-.68.37-.65.4.03.06.27-.06.7-.09.22,0,.48,0,.77.09.29.08.61.23.92.45.3.23.61.52.82.9.22.38.37.85.44,1.35.15,1.02-.01,2.19-.28,3.41-.27,1.22-.63,2.36-1.02,3.37-.39,1.01-.82,1.89-1.2,2.62-.69,1.31-1.23,2.13-1.27,2.33.81-.76,1.51-1.67,2.11-2.62Z"/><path class="cls-15" d="M81.93,73.37c-.23.22-.45.48-.69.74-.23.26-.49.52-.71.82-.23.29-.46.59-.71.9-.92,1.27-1.82,2.76-2.56,4.41-.72,1.67-1.22,3.33-1.54,4.87-.07.39-.13.76-.19,1.13-.07.36-.09.73-.12,1.07-.03.35-.07.68-.08,1.01,0,.32-.01.63-.02.93-.02.49.02.94.05,1.35.09.32.2.64.35.95.04.08.08.15.12.23,0-.1,0-.2-.01-.31,0-.2,0-.41.01-.64.01-.46,0-.98.06-1.56.02-.29.04-.59.07-.9.02-.31.08-.64.13-.97.05-.33.08-.69.16-1.04.07-.35.14-.72.22-1.09.35-1.48.85-3.08,1.55-4.69.72-1.6,1.57-3.05,2.43-4.31.23-.31.44-.61.66-.9.2-.3.45-.55.66-.82.22-.26.42-.52.63-.75.22-.23.42-.45.62-.66.38-.43.78-.77,1.11-1.09.17-.16.32-.31.47-.44.15-.13.29-.24.41-.35.49-.43.75-.69.72-.73-.03-.05-.35.13-.91.48-.14.09-.29.19-.46.3-.16.12-.33.25-.52.4-.37.29-.8.61-1.22,1.03-.22.2-.44.42-.68.64Z"/><path class="cls-15" d="M90.38,67.35c3.81,4.11,3.26,10.15,0,14.42-1.01,1.41-2.24,2.64-3.56,3.73,1.17-1.25,2.28-2.56,3.2-3.98,2.96-4.32,3.52-9.79.35-14.17h0Z"/><g id="Layer_6"><path class="cls-17" d="M94.27,92.47s.55-2.41.58-2.53.36-1.57.36-1.57l1.47.38.97.15s.69-.5,1.04-.66,1.52-.7,1.72-.78.54-.26.78-.25,1.51.02,1.7,0,1.08-.13,1.25,0,.89.56,1.14.65.5.13.42.3-.23.4-.45.45-.46,0-.74.01-.18.08-.49-.02-.43-.19-.43-.19c0,0-.6.56-.76.61s-.54.21-.54.21c0,0,.63.12.9.23s.97.48,1.22.53,1.47.28,1.82.29.92.06,1.11.06.98.05,1.1.14.24.18.16.32-.29.29-.29.29c0,0,.33.15.25.27s-.1.13-.49.3c-.39.18-1.43.57-1.88.78-.45.21-1.5.77-1.5.77,0,0-1.1.22-1.5.27s-.93.1-1.41.07-2.06-.24-2.63-.32c-.57-.08-1.77-.41-2.25-.46-.48-.06-2.66-.29-2.66-.29h0Z"/></g><path class="cls-19" d="M112.88,90.51s0-.05,0-.07l-.17-.77s-.02-.09-.07-.13c-.76-.58-1.63-1.08-2.54-1.38-.03-.01-.06-.02-.09-.01-1.66.33-3.3.72-4.96,1.05-.48.09-.96.18-1.43.27-.1.02-.17.1-.16.2.01.09.1.18.2.16h0c.08-.01.16-.03.25-.04.11.07.22.14.29.16.15.05,1.25.24,1.49.27s1.56.19,1.56.19c0,0,.54-.04.71-.03s.53.1.67.23-.28.48-.28.48c0,0,.16.07.23.12,0,0,0,0,0,0-.14.09-.08.36.12.33,1.07-.15,2.13-.34,3.17-.59.3-.07.6-.14.9-.22.09-.02.13-.14.1-.23Z"/><path class="cls-10" d="M95.67,87.53s0-.06-.02-.09c-.02-.03-.04-.06-.07-.08-.01,0-.03-.01-.04-.02,0,0-.02,0-.02,0h0c-.11-.03-2.6-.56-3.75-.79-1.61-.31-3.1-1.06-4.72-1.37-.07.05-4.65-.78-6.57.27-1.23.67-2.01,1.79-2.58,3.03.18,1.16.54,2.28,1.29,3.21,1.46,1.83,4.01,2.53,6.21,2.91,2.57.44,5.2.41,7.8.2.02-.06.04-.12.06-.19,0,0,0,0,0,0,.05,0,.1-.01.14-.02.13-.02.26-.04.39-.05,0,0,0,0,.01,0,0,0,.01,0,.02,0,0,0,.01,0,.02,0,0,0,0,0,0,0,.03-.02.05-.04.07-.07,0,0,0-.01,0-.02,0,0,0,0,0,0,0-.02.01-.03.02-.05.45-1.77.88-3.55,1.32-5.32.12-.49.25-.98.37-1.48,0-.01,0-.02,0-.04,0,0,0-.01,0-.02Z"/><path class="cls-20" d="M91.46,91.15c-.34,1.19-.62,2.4-.82,3.62-.01.08.03.14.08.17.07,0,.14,0,.2,0,.04-.02.06-.06.07-.12,0,0,0-.02,0-.02l.71-.04s.06.04.09.04c.1.01.18-.06.21-.15l.73-3.24c.01-.05,0-.1-.04-.14-.02-.03-.04-.06-.08-.07h0c-.31-.09-.63-.15-.95-.19-.09,0-.18.05-.2.14h0Z"/><path class="cls-20" d="M90.96,94.69c.16-.01.31-.02.47-.03.08,0,.16,0,.23,0,.04,0,.08,0,.12,0,.02,0,.04,0,.06,0,.02,0,.02,0,0,0,.01,0,.02,0,.03,0,.05,0,.09,0,.13-.03.04-.03.07-.07.07-.12,0-.09-.05-.2-.15-.21-.34,0-.67,0-1.01.03-.09,0-.17.11-.16.2.02.1.1.17.2.16h0Z"/><path class="cls-3" d="M102.94,91.49s0,0,0,0c0,0-.01,0-.02,0,0,0,0,0,0,0,0,0,0,0,.01,0Z"/><path class="cls-3" d="M108.77,91.35c0-.08,0-.15-.04-.21-.01-.03-.03-.05-.05-.07.02-.02.03-.04.05-.06.09-.14.12-.31.06-.46-.08-.18-.25-.25-.43-.29-.39-.09-.79-.11-1.19-.09-.03,0-.05.01-.07.03-.5-.1-1.01-.15-1.52-.15-.01,0-.03,0-.04,0l-.6-.13c-.24-.05-.49-.09-.73-.16-.23-.06-.39-.23-.6-.33-.22-.1-.48-.14-.72-.18-.04,0-.09-.01-.13-.02.07-.03.13-.07.2-.1.25-.14.5-.3.7-.51.39.17.83.25,1.25.23.24-.01.48-.07.68-.22.19-.15.31-.36.33-.6,0,0,0,0,0-.01,0-.03,0-.05,0-.07-.01-.06-.07-.11-.14-.13,0,0,0,0-.01,0-.52-.15-1.03-.41-1.46-.74-.02-.02-.04-.03-.06-.03,0,0,0,0-.01,0-.23-.1-.48-.1-.72-.07s-.48.06-.72.07c-.49.03-.98.03-1.46-.02-.03,0-.05,0-.07,0-.25,0-.49.09-.71.19-.26.11-.52.24-.78.35-.51.23-1.04.45-1.53.72-.22.12-.42.26-.61.42-.31-.04-.62-.11-.92-.18-.43-.1-.86-.2-1.28-.31-.24-.06-.48-.12-.72-.18-.09-.02-.19.06-.21.15-.02.1.06.18.15.21.83.21,1.66.43,2.49.59.13.03.25.05.38.07,0,0,0,0,.01.01.08.07.18.04.25-.03h0c.35-.34.81-.55,1.24-.75.51-.23,1.03-.47,1.54-.7.24-.11.49-.21.77-.22,0,0,0,0,.01,0,.47.04.94.05,1.41.02.24-.01.48-.04.71-.07.21-.03.43-.06.63.03,0,0,0,0,.01,0,.43.33.92.59,1.44.75-.04.11-.13.21-.23.26-.16.09-.35.11-.53.11-.43,0-.86-.12-1.24-.33-.09-.05-.2,0-.24.09-.03.07-.01.14.03.19-.05.04-.11.09-.17.13-.13.09-.25.17-.39.25,0,0-.03.02-.03.01-.02,0-.03.02-.05.03-.03.01-.06.03-.09.04-.06.03-.11.05-.17.08-.05.02-.1.04-.15.06,0,0,0,0,0,0-.11-.08-.24-.14-.37-.18-.05-.01-.09-.02-.14,0-.04.02-.08.05-.1.1s-.02.09,0,.14c.02.04.05.09.1.1h0s.09.03.14.05c-.02.02-.03.05-.03.08-.01.09.05.2.15.21.24,0,.49.03.73.06s.47.06.68.15.39.27.62.34c.24.08.49.12.74.17l.84.18s.09,0,.13-.03c.49.01.98.08,1.46.18.06.01.12-.01.16-.06.25,0,.49.01.74.06.07.01.14.03.21.04.04,0,.09.02.12.05,0,0,.01.03.01.02,0,.04,0,.02,0,.05,0,.03-.02.07-.05.1-.08.08-.21.11-.31.15-.15.05-.29.1-.44.14-.29.09-.58.17-.88.24-.32.08-.63.14-.95.2,0,0-.01,0-.02,0l-2.21-.19s-.01,0-.02,0c-.05-.03-.1-.04-.15-.01-.06.03-.12.06-.18.08-.02,0-.03,0-.05.01,0,0,0,0,0,0,0,0,0,0,0,0-.03,0-.07.01-.1.02-.03,0-.06,0-.09,0-.02,0-.03,0-.05,0,0,0,0,0,0,0,0,0,0,0,0,0,0,0,0,0,0,0,0,0-.03,0-.01,0-.07,0-.13-.01-.2-.03-.09-.02-.2.06-.21.15-.01.1.05.18.15.21h0c.27.06.57.03.82-.09.01,0,.02,0,.04,0l2.11.18s.08.04.12.03h0c.71-.13,1.41-.3,2.09-.51.16-.05.33-.1.49-.16,0,0,0,0,.01,0l.03.03s.02.01.03.02c0,0,0,0,0,0-.01,0-.03,0-.04.01-.86.42-1.75.79-2.66,1.09-.02,0-.03,0-.05,0-.76.06-1.53.09-2.29.1-.04-.02-.09-.02-.13,0l-.59.2c-.09.03-.14.15-.1.23.04.09.14.13.23.1l.53-.18s.04,0,.05,0c.59,0,1.17-.03,1.76-.06-.13.07-.27.13-.4.19-.03,0-.07,0-.11,0-.84.23-1.71.35-2.58.36-.01,0-.03,0-.04,0-1.23-.07-2.45-.24-3.65-.49-.34-.07-.67-.15-1.01-.24,0,0-.01,0-.02,0-1.13-.17-2.26-.27-3.4-.38-.1,0-.19.05-.21.15-.01.09.06.2.15.21,1.14.11,2.28.21,3.42.38,0,0,0,0,0,0,1.19.31,2.4.53,3.62.65.29.03.59.05.88.07.03.02.07.02.11.02.91,0,1.81-.12,2.69-.35.04.02.1.03.15,0h0c.43-.18.84-.4,1.22-.65.02-.01.03-.02.04-.04.82-.28,1.62-.61,2.4-.99,0,0,.02,0,.03,0,.04,0,.1,0,.13-.03h0s.1-.08.14-.14c.02-.03.04-.06.06-.1.01-.03.03-.07.03-.11Z"/><path class="cls-15" d="M110.18,89.27c-.01-.1-.77-.07-1.68.06-.92.13-1.65.32-1.63.41.01.1.77.07,1.68-.06s1.65-.32,1.63-.41Z"/><path class="cls-15" d="M112.12,90.39c.05-.08-.33-.41-.85-.74s-.98-.52-1.03-.43c-.05.08.33.41.85.74.52.32.98.52,1.03.43Z"/><path class="cls-15" d="M93.94,86.84c-.73-.07-1.48-.05-2.17-.28-5.27-1.76-6.41-1.89-6.77-1.92-.85-.06-1.64-.03-2.28.1-.64.13-1.14.31-1.46.49-.32.17-.47.3-.45.34.05.11.76-.22,1.98-.33.61-.06,1.34-.04,2.14.05.81.1,1.68.28,2.6.53.92.25,1.79.52,2.61.73.81.22,1.56.38,2.19.46,1.28.18,2.08.06,2.07-.03,0-.05-.17-.09-.47-.15Z"/><path class="cls-15" d="M93.94,94.43c-5.41,1.47-14.17,2.11-18.11-2.66.58.54,1.22,1.01,1.91,1.38,4.81,2.48,10.98,1.89,16.21,1.28h0Z"/><path class="cls-18" d="M68.69,63.59l23.05-19.74-1.18-1.91-22.79,20.54c.14.47.66.69.91,1.11Z"/><path class="cls-10" d="M67.03,29.99c2.44,9.47,14.53,10.92,16.97,20.39,3.83-3.18,7.65-6.37,11.48-9.55-2.44-9.47-14.53-10.92-16.97-20.39-1.49,3.08-2.74,5.96-3.82,8.7-2.75.45-5.33.75-7.66.85Z"/><path class="cls-2" d="M67.03,29.99c1.39-.06,2.87-.19,4.42-.39-4.01,6.1,7.65,12.84,13.51,15.06,4.49,1.69,8.14-2.7,9.94-5.52.22.53.41,1.09.57,1.69-3.83,3.18-7.65,6.37-11.48,9.55-2.44-9.47-14.53-10.92-16.97-20.39Z"/><path class="cls-15" d="M80.44,33.08h0c.06-.02.72-.17,1.66-.2h0s.05,0,.07-.02h0c.63-.45,1.09-.7,1.09-.7.08-.04.18-.03.24.03h0l.46.42h0s0,0,.01.01c.05.05.04.14-.01.18l-.16.14s0,0,0,.01c0,0,0,0,0,0h0c.49.06,1.01.17,1.52.33h0c.1.03.2.08.27.17h0c.07.09.12.19.13.29h0c.39,2.47-.46,4.75-.52,4.86h0s-.03.05-.05.07c-.07.06-.18.07-.26.01l-.49-.39c-.07-.05-.16-.05-.24,0-.09.07-1.99,1.56-2.56,1.86h0c-.08.04-.19.02-.25-.05h0c-.23-.28-.44-.53-.66-.8l-.02-.02s-.02-.07,0-.1h0c.17-.13.56-.42.96-.73,0,0,.02-.02.03-.03h0s.08-.03.12-.02c.2.07.43.03.61-.1.66-.53,1.42-1.16,1.97-1.69h0s.05-.12,0-.17c-.04-.05-.12-.06-.17-.02h0c-.37.36-.82.76-1.28,1.14h0c-.06.05-.15.04-.21-.02-.05-.06-.04-.15.02-.21h0c.46-.38.92-.78,1.29-1.14.05-.04.05-.12,0-.17-.04-.05-.12-.06-.17-.02h0c-.37.36-.82.75-1.27,1.13h0c-.06.05-.15.04-.21-.02-.05-.06-.04-.15.02-.2h0c.46-.38.92-.78,1.28-1.13.05-.04.05-.12,0-.17-.04-.05-.12-.06-.17-.02h0c-.54.53-1.26,1.13-1.91,1.65h0s0,.01,0,.01h0c-.17.15-.25.37-.23.58,0,.04,0,.08-.04.1,0,0-.09.09-.59.45-.22.16-.37.26-.44.31h0s-.06.01-.08-.01h0l-.04-.04h0c-.08-.09-.16-.18-.24-.28l-.03-.04c-.1-.12-.2-.24-.3-.35l-.23-.26h0s-.02-.06,0-.09h0c.51-.54.81-.83.81-.83.03-.02.07-.02.1,0l.32.28h0c.05.04.11.05.16.02.03-.01.05-.04.05-.04,1.75-1.73,1.85-2.89,1.85-2.89,0-.03,0-.05,0-.05,0-.03-.01-.05-.03-.07-.04-.04-.09-.05-.14-.04,0,0-.02,0-.05.03-.63.45-1.61,1.34-2.35,2.04-.64.6-1.12,1.08-1.12,1.08h0s-.05.02-.07,0h0c-.15-.17-.3-.34-.47-.52h0c-.06-.08-.07-.18-.01-.26h0c.38-.52,2.13-2.18,2.21-2.26.06-.06.07-.16.04-.23l-.31-.54c-.04-.08-.02-.19.05-.25.02-.02.05-.04.08-.04h0Z"/><rect class="cls-10" x="68.88" y="59.37" width="5.38" height="2.17" transform="translate(70.18 -33.22) rotate(48.96)"/><rect class="cls-10" x="66.26" y="62.14" width="5.38" height="2.17" transform="translate(71.37 -30.29) rotate(48.96)"/><rect class="cls-10" x="53.87" y="72.68" width="5.38" height="2.17" transform="translate(75.06 -17.33) rotate(48.96)"/><rect class="cls-10" x="51.25" y="75.45" width="5.38" height="2.17" transform="translate(76.25 -14.4) rotate(48.96)"/><path class="cls-15" d="M192.94,86.92c-.11-8.46-1.32-16.77-3.69-24.34-.08-.14-.15-.29-.22-.43-5.32-13.6-25.68-5.38-30.99,4.47-10.47-5.48-19.42,13.11-13.42,19.65,9.52,2.12,31.87,2.84,48.33.65Z"/></g></svg>