<svg xmlns="http://www.w3.org/2000/svg" viewBox="0 0 200 200"><defs><style>.cls-1{fill:none}.cls-6{fill:#c1dade}.cls-8{fill:#cc9e40}.cls-9{fill:#5b3d5b}.cls-11{fill:#78577a}</style></defs><path id="BG_Strong" d="M194.44 71.06c-24.75-24.2-65.87-10.12-91.6-29.75C51.36 17.05 5.85 36.51 6.7 97.04c3.36 20.25-11.92 41.62 1.46 59.51 40.52 20.01 92.93 31.06 140.88 31.95 42.53-11.27 57.77-81.03 45.4-117.44Z" style="fill:#575655"/><g id="Illustrations"><path d="M32.44 177.17a.687.687 0 0 0-.81-.12c-.2-.65-.5-1.52-.78-2.12-.51-1.05-2.38-18.62-2.63-21.49-.26-2.87-2.07-18.56-2.38-21.03s-2-22.9-3.01-35.63c-.69-8.59-.56-12.35-.4-13.89.52-.37 1.03-.74 1.55-1.1.31-.22.46-.61.25-.96-.18-.31-.65-.47-.96-.25-4.39 3.11-8.73 6.28-12.79 9.82a99.57 99.57 0 0 0-3.56 3.26c-.06.03-.11.07-.16.11-.96.87-1.84 1.84-2.29 3.08-.45 1.23-.41 2.61-.36 3.91v.15c.37 6.41.77 12.82 1.24 19.23.37 5.2.79 10.39 1.27 15.57.44 4.82.93 9.63 1.46 14.44.58 5.3 1.19 10.59 1.81 15.88.77 6.58 1.55 13.16 2.31 19.74l.33 2.82c0 .02 0 .04.01.06 0 .04 0 .09.01.13.27 1.73.23 3.87 1.59 5.23.06.06.13.11.19.14.25.22.63.29.93-.02 4.28-4.39 8.71-8.63 13.32-12.67 1.28-1.12 2.57-2.22 3.88-3.3.29-.24.25-.74 0-.99Z" class="cls-8"/><path id="Layer_4-2" d="M38.13 89.1a153.999 153.999 0 0 1-3.41-36.95c.15-5.37.62-11.68 2.91-17.8C42.43 21.5 54.84 12.04 68.5 10.8c13.66-1.24 27.57 5.84 34.61 17.61 3.92 6.55 5.45 13.83 6.58 20.13 1.98 11.06 3.37 22.34 4.12 33.52l-18.92 1.27c-.7-10.48-2.01-21.06-3.87-31.44-.87-4.87-1.92-9.94-4.2-13.75-3.33-5.56-10.16-9.04-16.62-8.45-6.46.59-12.55 5.24-14.82 11.31-1.31 3.51-1.6 7.7-1.71 11.7-.31 10.86.7 21.77 2.99 32.4" class="cls-8"/><path d="M144.42 159.67v-.06c-.64-6.82-1.28-13.63-1.94-20.45a1980.08 1980.08 0 0 0-2.98-28.81c-.52-4.68-1.07-9.37-1.62-14.05-.69-5.83-1.39-11.65-2.09-17.48-.1-.86-.21-1.72-.31-2.58v-.03a84 84 0 0 0-.43-3.51c-.12-.79-.37-1.52-.94-2.1-.56-.58-1.34-.96-2.12-1.1-.96-.18-1.93-.09-2.89 0h-.01c-6.68.58-13.35 1.18-20.03 1.78-6.5.59-12.99 1.2-19.48 1.82-6.39.61-12.77 1.23-19.16 1.87-6.44.64-12.88 1.29-19.32 1.95-6.63.68-13.26 1.38-19.89 2.08l-2.55.27h-.03c-.84.1-1.67.21-2.51.35-.77.13-1.54.24-2.26.55-1.51.65-2.02 2.27-2.18 3.78-.1.94-.07 1.89 0 2.83.37 6.35.76 12.69 1.22 19.04.36 5.02.76 10.04 1.22 15.06.42 4.59.9 9.18 1.4 13.77.56 5.08 1.16 10.16 1.76 15.24.77 6.5 1.54 13 2.29 19.5.11.93.22 1.86.32 2.79v.03c.19 1.57.16 3.3.91 4.74.37.72.97 1.3 1.74 1.57.84.3 1.79.16 2.66.1l2.73-.17h.03c7.09-.57 14.17-1.15 21.26-1.77 6.51-.56 13.01-1.16 19.51-1.8 6.5-.64 12.44-1.28 18.66-2 6.33-.73 12.65-1.53 18.96-2.38 6.72-.91 13.42-1.88 20.12-2.91.88-.14 1.76-.27 2.63-.41h.01c.89-.13 1.79-.28 2.65-.52.93-.26 1.78-.83 2.23-1.7.4-.77.54-1.62.56-2.48.03-.94-.04-1.88-.13-2.82Z" style="fill:#f6c243"/><path d="M142.44 164.74c-.45.47-.9.95-1.34 1.42-1.68.46-4.93 1.32-6.81 1.57-2.62.35-16.62 2.03-21.92 2.63-5.3.6-31.76 3.69-33.63 3.87-1.87.18-31.81 2.93-34.67 3.16-2.86.23-12.19.53-12.19.53s-11.17 9.78-11.51 10.17c-.28.31-4.14 3.53-5.32 4.93-.3-.16-.73.01-.89.29-.21.36-.05.73.25.96.93.71 2.1.59 3.2.52l3.54-.22s.08 0 .12-.02c7.02-.57 14.03-1.15 21.05-1.76 6.75-.6 13.49-1.22 20.23-1.9 6.55-.66 13.08-1.36 19.62-2.12a1092.07 1092.07 0 0 0 40.27-5.45l2.31-.36c.06 0 .13 0 .19-.01 1.8-.33 3.37-1.19 4.73-2.4 3.91-3.53 7.25-7.62 10.74-11.54.99-1.11 1.98-2.2 3.01-3.28.62-.65-.37-1.65-.99-.99Z" style="fill:#f2a6b0"/><path d="M117.01 84.99c.37.15.71.27 1.02.44-.12.2-1.86-.47-1.02-.44Z" style="fill:#efedea"/><path d="m105.37 122.74-3.87 1.1c-.19.07-.35.18-.49.32-.04.05-.09.1-.12.15.15-.2.36-.37.61-.46l3.87-1.1c.22-.08.42-.21.57-.38-.15.16-.34.29-.56.37ZM91.14 103.63c-.01-.17.02-.33.1-.47a.79.79 0 0 0-.1.48l.12 1.37-.12-1.37Z" class="cls-1"/><path d="M105.93 122.37a1.415 1.415 0 0 0-.01.01ZM79.94 99.42c-.44.12-.83.33-1.18.61-12.94 9.61-19.29 23.97-19.51 24.75-.07.18-.1.38-.08.59.05.63.53 1.13 1.13 1.22l4 .42c.54.1.97.52 1.08 1.06.09.69 2.17 16.15 3.45 20.1.2.57.77.95 1.4.89h.03c1.05-.12 2.06-.23 3.06-.33l11.89-1.02-5.27-48.29ZM100.63 124.86c.04-.21.13-.4.25-.57l.12-.15c-.19.19-.33.44-.38.71ZM100.24 146.21c.05-.05.1-.1.14-.15.1-.13.17-.27.22-.43-.07.22-.19.42-.36.58ZM92.01 102.72l4 .14c.57.02 1.09.39 1.25.95 0 0 .99 3.23 1.85 8.15.02.15.11.28.21.39 4.21 4.42 6.59 8.04 6.78 8.42a1.364 1.364 0 0 1 .07 1.24c-.06.13-.13.25-.23.35.25-.27.4-.64.36-1.04-.02-.21-.08-.4-.18-.57-.18-.36-2.56-3.99-6.78-8.41-.1-.11-.19-.24-.21-.39-.87-4.92-1.85-8.15-1.85-8.15-.16-.56-.68-.93-1.25-.95l-4-.14h-.1c-.17.02-.33.08-.46.19.12-.1.27-.16.44-.17h.1Z" class="cls-11"/><path d="M100.63 125.05c0-.28.1-.54.25-.75a1.4 1.4 0 0 0-.25.57c-.01.07-.02.14-.02.2.03.7.61 16.28.02 20.39-.01.06-.03.11-.04.17-.05.16-.12.3-.22.43.14-.18.24-.39.28-.62.59-4.11 0-19.69-.02-20.39ZM79.94 99.42c.23-.07.46-.12.71-.14.73-.06 1.41.1 2.01.43 3.11 1.57 5.96 3.42 8.51 5.35h.03c.02 0 .03 0 .04-.02 0 0-.01 0-.02.01h-.03c-2.55-1.93-5.4-3.77-8.51-5.35a3.523 3.523 0 0 0-2.74-.29s0 .01 0 .01Z" class="cls-11"/><path d="M99.4 146.56c-1.06.06-2.07.13-3.08.2l-11.11.95 11.09-.94c1.01-.07 2.02-.13 3.08-.2s.03 0 .03 0c.32-.03.61-.17.82-.37-.21.2-.49.33-.8.35h-.03ZM91.24 105.04s.03-.02.03-.04l-.12-1.37c-.02-.28.09-.54.29-.71-.08.07-.15.15-.21.24a.76.76 0 0 0-.1.47l.12 1.37v.03ZM105.37 122.74c.22-.08.41-.2.56-.37-.15.15-.33.28-.54.35l-3.87 1.1c-.2.07-.37.19-.51.34.14-.14.3-.25.49-.32l3.87-1.1Z" class="cls-9"/><path d="M100.64 145.47c.59-4.11 0-19.69-.02-20.39 0-.07 0-.14.02-.21.05-.27.18-.52.38-.71.14-.15.31-.26.51-.34l3.87-1.1c.21-.07.39-.19.54-.35.1-.11.18-.23.24-.36a1.364 1.364 0 0 0-.07-1.24c-.18-.37-2.56-4-6.78-8.42a.827.827 0 0 1-.21-.39c-.87-4.92-1.85-8.15-1.85-8.15-.16-.56-.68-.93-1.25-.95l-4-.14h-.1a.86.86 0 0 0-.45.18c-.2.17-.32.43-.29.71l.12 1.37s-.01.03-.03.04c0 .01-.02.03-.04.03h-.03c-2.55-1.93-5.4-3.77-8.51-5.35-.6-.33-1.28-.49-2.01-.43-.25.02-.48.07-.71.14l5.27 48.29 11.11-.95c1.01-.07 2.02-.13 3.08-.2h.03c.31-.03.59-.16.8-.35a1.354 1.354 0 0 0 .4-.74Z" class="cls-9"/><path d="M91.44 102.91s0-.01.02-.01c-.09.07-.17.16-.22.26a.69.69 0 0 1 .21-.24ZM91.25 105.01v.03-.03ZM100.64 145.47c0 .05-.03.11-.04.16.02-.05.03-.11.04-.17.59-4.11 0-19.69-.02-20.39 0-.07 0-.14.02-.2-.01.07-.02.14-.02.21.03.7.61 16.28.02 20.39ZM91.21 105.06h-.03c-2.55-1.93-5.4-3.77-8.51-5.35-.6-.33-1.28-.49-2.01-.43-.25.02-.48.07-.71.14.23-.06.46-.11.71-.13.73-.06 1.41.1 2.01.43 3.11 1.57 5.96 3.42 8.51 5.35 0 0 .02.01.03 0 .02 0 .03-.01.04-.03 0 .01-.02.02-.04.02Z" class="cls-9"/><path d="M91.9 102.73h.1l4 .14c.57.02 1.09.39 1.25.95 0 0 .99 3.23 1.85 8.15.03.15.11.28.21.39 4.22 4.42 6.59 8.04 6.78 8.42a1.364 1.364 0 0 1 .07 1.24c.09-.2.14-.43.11-.67-.02-.21-.08-.4-.18-.57-.18-.37-2.56-4-6.78-8.42-.1-.11-.19-.24-.21-.39-.87-4.92-1.85-8.15-1.85-8.15-.16-.56-.68-.93-1.25-.95l-4-.14h-.1c-.17.01-.32.08-.44.17 0 0 0 .01-.02.01.13-.1.28-.17.45-.18Z" class="cls-9"/><g id="Cupcake_shapes"><path d="M198.09 60.29c-.13-.81-.3-1.65-.62-2.41-.33-.77-.85-1.42-1.65-1.74-.83-.33-1.76-.19-2.61 0-1.95.44-3.9.91-5.85 1.37l-23.7 5.55c-.5.12-1.01.24-1.51.35l-.77.15c-.81.16-1.76.35-2.21 1.13-.4.68-.33 2.07.69 2.14.5.04 1.02 0 1.51-.01.5 0 1.01 0 1.51-.02 1.01-.01 2.02-.02 3.03-.04 2.07-.03 4.13-.07 6.2-.11 4.04-.09 8.08-.21 12.12-.35 2.06-.08 4.13-.16 6.19-.25 1.48-.06 2.99-.12 4.4-.58 1.26-.41 2.48-1.16 3.03-2.42.39-.89.38-1.82.23-2.76Zm-22.56 4.88s-.08.01-.12.02c.04 0 .08-.01.11-.02Zm17.76-7.64c.38-.09.81-.19 1.23-.21l-2.47.51c.42-.1.83-.19 1.25-.29ZM175.09 30.96l5.42-4.33c.91-.73 1.82-1.46 2.74-2.19.45-.36.89-.72 1.34-1.07.38-.3.79-.6 1.1-.97.73-.85.8-1.82.31-2.82-.4-.82-.94-1.59-1.51-2.3-1.09-1.37-2.66-2.47-4.49-2.08-1.04.22-1.89.91-2.7 1.55-.82.65-1.62 1.33-2.4 2.03a72 72 0 0 0-4.56 4.52c-3.03 3.24-5.91 6.62-8.79 10-.73.85-1.44 1.71-2.16 2.57-1.64 1.72-3.25 3.46-4.83 5.22-1.45 1.62-2.89 3.26-4.3 4.91-.17.21-.44.43-.51.7-.07.26.03.58.15.81.19.38.52.69.9.88.88.43 1.85.26 2.67-.22.94-.55 1.77-1.33 2.61-2.01.91-.73 1.82-1.46 2.74-2.19 1.81-1.45 3.62-2.89 5.42-4.33 3.62-2.89 7.23-5.78 10.85-8.67Zm-1.61-8.94c-.28.31-.56.62-.84.92-.19.17-.37.34-.56.51.46-.48.92-.96 1.39-1.43ZM135.71 5.89c-.83-.36-1.74-.32-2.62-.23-1.38.15-2.88.38-3.97 1.34-1.27 1.12-1.1 2.79-.94 4.32.01.24.03.48.04.71.18 3.81.52 7.61 1.01 11.39.17 1.29.36 2.57.56 3.85l.72 5.71c.17 1.33.3 2.66.55 3.97.11.57.19 1.36.65 1.76.32.28.7.25 1.09.19l1.09-.15c.4-.05.64-.27.69-.69.22-1.97.38-3.95.5-5.93l1.31-10.05.75-5.74c.23-1.78.55-3.57.68-5.36.09-1.28.03-2.72-.67-3.84-.35-.56-.84-1-1.45-1.26Zm-.52 14.87s-.01-.09-.02-.14.03 0 .04 0c0 .04-.01.09-.02.13Z" class="cls-6"/></g></g><g id="Outline"><path d="M10.5 111.5c-.11-2.05-.15-4.11.26-6.13.24-1.21.6-2.44 1.19-3.53.43-.81 1.16-1.85 2.13-2.03 2-.39 2 3.26 2.12 4.42.29 2.72.57 5.43.86 8.15 1.13 10.67 2.25 21.33 3.38 32 .57 5.38 1.14 10.77 1.7 16.15.27 2.58.69 5.19.76 7.79.06 2.09-.39 4.54-2.47 5.56s-3.71-.8-4.3-2.57c-.39-1.15-.49-2.36-.6-3.56l-.36-4.01c-.48-5.34-.97-10.68-1.45-16.03-.97-10.73-1.95-21.47-2.92-32.2l-.36-4.01c-.1-1.14-1.9-1.15-1.8 0l3.18 35.02c.52 5.79 1.05 11.58 1.57 17.36.13 1.42.25 2.85.39 4.27.12 1.3.25 2.64.71 3.87.74 2.02 2.42 3.85 4.7 3.91s4.04-1.61 4.85-3.52c1.05-2.45.61-5.19.34-7.75-.62-5.83-1.23-11.65-1.85-17.48l-3.69-34.96c-.3-2.86-.6-5.73-.91-8.59-.2-1.9-.35-4.39-2.32-5.34-2.2-1.06-4.31.91-5.26 2.75-1.18 2.28-1.64 4.9-1.71 7.44-.03 1.01.01 2.02.07 3.02.06 1.15 1.86 1.16 1.8 0Z" style="fill:#ba8d3c"/><path d="M42.14 169.87c-.18-.03-.35-.08-.53-.14-.88-.31-1.62-.97-2.09-1.85-.59-1.12-.7-2.34-.8-3.43l-.06-.66-.3-2.5-1.41-11.52-.54-4.39c-.49-3.97-1.01-8.2-1.5-12.45a601.33 601.33 0 0 1-2.27-23.58c-.36-4.6-.7-9.55-1.08-15.56-.08-.98-.08-1.78-.01-2.51.21-2.07 1.04-3.44 2.47-4.07.68-.3 1.37-.42 1.99-.52l.14-.02c.66-.11 1.35-.21 2.1-.3l2.12-.23c5.42-.6 10.83-1.19 16.25-1.78a3944.573 3944.573 0 0 1 31.44-3.28c5.3-.53 10.61-1.06 15.92-1.57 5.45-.53 10.9-1.04 16.36-1.54h.09c.75-.08 1.67-.17 2.6 0 .91.17 1.76.6 2.38 1.23.59.6.95 1.37 1.11 2.37.14.91.27 1.88.37 2.88l.35 2.8c.57 4.54 1.14 9.08 1.7 13.63.47 3.82.94 7.65 1.39 11.48.41 3.53.83 7.19 1.23 10.88.41 3.79.83 7.81 1.33 12.66.57 5.57 1.12 11.14 1.67 16.7v.14c.07.65.14 1.49.12 2.35-.02 1-.21 1.84-.58 2.55-.5.96-1.41 1.67-2.55 2-.76.22-1.53.35-2.2.45l-.14.02-2.13.34c-5.65.9-11.18 1.73-16.45 2.47a837.46 837.46 0 0 1-30.77 3.74c-4.99.52-10.21 1.03-15.95 1.56-4.8.44-9.95.9-16.11 1.42v.02l-3.85.27c-.53.04-1.16.1-1.81-.02Zm-1.12-6.51c.04.29.06.58.09.87.09.95.17 1.84.54 2.53.18.34.45.6.76.7.34.12.83.08 1.34.04l2.61-.18c6.71-.57 12.22-1.06 17.34-1.53 5.73-.53 10.93-1.03 15.92-1.55 5.33-.55 10.17-1.1 15.22-1.71a764.2 764.2 0 0 0 15.46-2.02c5.25-.73 10.77-1.56 16.4-2.46l2.19-.35c.61-.09 1.33-.21 2-.4.5-.14.89-.43 1.08-.8.2-.39.3-.87.32-1.51.02-.77-.05-1.55-.11-2.15v-.13c-.55-5.54-1.11-11.08-1.67-16.62-.49-4.84-.92-8.86-1.33-12.65-.4-3.68-.81-7.34-1.23-10.87-.45-3.82-.91-7.64-1.38-11.46-.56-4.54-1.13-9.08-1.7-13.62l-.35-2.75c-.11-1.03-.23-1.97-.37-2.86-.08-.49-.22-.83-.45-1.06a2.1 2.1 0 0 0-1.09-.55c-.64-.11-1.35-.04-2.03.03h-.07c-5.45.51-10.87 1.02-16.3 1.54-5.3.51-10.61 1.03-15.91 1.56-5.21.52-10.43 1.06-15.64 1.6-5.26.55-10.52 1.11-15.78 1.68-5.42.59-10.83 1.18-16.24 1.78l-2.17.24c-.68.08-1.31.18-1.92.28l-.14.02c-.52.09-1.02.17-1.42.35-.22.1-.88.39-1.06 2.12-.05.51-.05 1.09 0 1.78s.03.48.03.48c.37 5.93.71 10.82 1.07 15.39.34 4.4.69 8.42 1.06 12.28.34 3.5.73 7.17 1.2 11.22.49 4.24 1.01 8.47 1.5 12.43l.54 4.39c.47 3.84.95 7.69 1.41 11.53l.28 2.35Z" style="fill:#e5b342"/></g></svg>