<svg xmlns="http://www.w3.org/2000/svg" viewBox="0 0 200 200"><defs><clipPath id="clippath-1"><path class="cls-1" d="M75.41 147.34c.05-.13-.14-4.6-.21-8.65-.07-4.04-.76-10.78-1.02-13.09 0 0 5.26-.41 6.42-.61s4.93 1.33 4.93 1.33l4.31 8.96s-3.55 9-3.67 9.06-10.76 3-10.76 3z"/></clipPath><style>.cls-1{fill:none}.cls-2{fill:#d85500}.cls-3{fill:#ebae1a}.cls-4{fill:#f70}.cls-6{fill:#cfe6e8}.cls-8{fill:#b8d8dc}.cls-10{fill:#a8cccd}.cls-11{fill:#fff}.cls-14{fill:#e0c3ba}.cls-15{fill:#fcbd07}.cls-16{fill:#fc9fac}.cls-17{fill:#ffcb52}.cls-19{fill:#ef5f2d}.cls-21{fill:#7e567c}.cls-22{fill:#603c5d}.cls-23{fill:#5b3d5b}</style></defs><path d="M177.19 71.09C126.47-37.61-31.06 60.25 41.22 156.32c40.58 87.19 188.82-.33 135.97-85.23z" style="fill:#575655" id="BG_Strong"/><g id="Illustrations"><g id="Layer_7"><path class="cls-2" d="M62.01 98.54c-3.69.3-7.37.76-11.04 1.29-2.14.31-4.27.65-6.4 1.01-1.11.18-2.24.33-3.33.58-.96.22-1.89.57-2.75 1.02-1.73.9-3.3 2.32-4.11 4.11-.91 2-1.02 4.22-1.19 6.37-.38 4.85-.64 9.7-.77 14.57-.14 4.86-.14 9.72-.03 14.58.02.6.03 1.19.05 1.79.03.84 1.33.84 1.31 0a286.389 286.389 0 0 1 .85-32.19c.08-.99.19-1.97.42-2.93s.58-1.85 1.15-2.66c.5-.71 1.16-1.33 1.87-1.83.75-.52 1.57-.94 2.43-1.24.97-.34 1.98-.49 2.99-.66 2.15-.36 4.3-.71 6.45-1.04 3.61-.55 7.22-1.03 10.86-1.35.42-.04.84-.07 1.27-.11.35-.03.65-.28.65-.65 0-.33-.3-.68-.65-.65zM56.22 97.19c-.39-.18-.78-.36-1.15-.57-.18-.1-.36-.2-.53-.31-.08-.05-.16-.1-.24-.16-.04-.03-.08-.05-.12-.08-.04-.03-.19-.14-.02-.01-.14-.11-.27-.19-.46-.19-.16 0-.35.07-.46.19s-.2.29-.19.46c0 .16.06.36.19.46.71.56 1.51.96 2.33 1.33.16.07.32.12.5.07.15-.04.32-.16.39-.3.15-.29.1-.74-.24-.89zM33.95 146.59z"/><path class="cls-2" d="M69.34 94.67c.61-.23.54-1.29-.22-1.26-3.81.14-7.62.36-11.43.64.27-.69.58-1.36.98-1.99.43-.67 1.01-1.29 1.76-1.6.92-.38 1.97-.34 2.95-.39 1.21-.05 2.43-.11 3.64-.16.35-.02.65-.29.65-.65 0-.33-.28-.64-.61-.65.27-.38.1-1.06-.51-1.05-1.33.02-2.66.04-4 .08s-2.61.02-3.9.16c-1.19.13-2.25.57-3.06 1.48-.75.84-1.24 1.85-1.63 2.9a15.5 15.5 0 0 0-.64 2.21c-4.26.34-8.53.67-12.74 1.45-2.06.38-4.11.87-6.11 1.53-1.03.34-2.05.73-3.05 1.16-.86.37-1.71.79-2.45 1.37s-1.38 1.31-1.79 2.18c-.4.87-.63 1.86-.74 2.84-.12.99-.13 1.94-.16 2.91-.03 1.08-.06 2.16-.08 3.23-.07 3.78-.08 7.56-.04 11.34.04 3.9.11 7.79.16 11.69 0 .57.02 1.14.02 1.71 0 .45.38.66.72.63 1.24 2.31 6.79 10.08 6.87 10.18 0-.06.21-2.93.05-3.99-.15-1.07 1.07-14.2 1.61-16.35.54-2.15 3.3-9.98 4.99-12.9 1.69-2.92 8.83-7.14 9.6-7.93.77-.79 7.82-3.14 7.82-3.14l-.38-1.25s4.99-1.74 6.06-2.2c1.07-.47 2.82-.08 2.82-.08l3.8-1.41-.99-2.67z"/></g><g id="Thumb"><path class="cls-14" d="M144.7 112.12s.64-4.62-.57-6.17.45.02-.11-1.66-.45-4.32-1.28-5.34c-.83-1.02-1.33-1.8-1.6-2.98s-.3-3.7-.5-4.87-1.25-2.93-1.34-4.54c-.09-1.62-.49-6.08-.32-6.62.17-.54.89-1.56 1.77-1.14.88.42 2.43 1.95 2.81 2.75s1.08 3.04 1.06 3.86-.11 1.18.27 1.91 1.76 3.82 1.97 4.42 3.01 2.87 3.87 3.6 2.86 3.4 3.24 5.07c.38 1.67 13 3.28 12.88 4.28s-3.89 7.84-6.47 8.43l-15.68-.98z"/><path class="cls-22" d="M140.75 96.81c.73 1.35 1.29 2.77 1.69 4.24s.54 3.05 1.1 4.5c.48 1.24 1.16 2.42 2.1 3.38.94.96 2.05 1.56 3.33 1.84 1.04.23 2.11.36 3.17.42.35.02.65-.32.65-.65 0-.37-.3-.63-.65-.65-.83-.05-1.59-.14-2.38-.29-.55-.1-1.16-.23-1.64-.46-.54-.26-.99-.58-1.42-.99-.84-.81-1.49-1.86-1.91-2.94-.53-1.39-.67-2.88-1.05-4.31a21.37 21.37 0 0 0-1.88-4.75c-.4-.74-1.53-.08-1.13.66z"/><path class="cls-22" d="M143.94 80.88c-.52-.86-1.2-1.7-2.04-2.28s-1.97-.73-2.81-.11c-.91.67-.88 1.88-.75 2.9l.3 5.15c0 .13.05.24.11.34 0 .1.03.2.07.3a13.53 13.53 0 0 1 1.25 4.84c.11 1.67-.05 3.38.78 4.88.41.74 1.54.08 1.13-.66-.76-1.38-.49-3.1-.63-4.61-.17-1.78-.64-3.49-1.4-5.11l-.32-5.55c0-.06-.02-.11-.03-.17v-.59c.01-.15.02-.24.08-.42 0-.01.03-.07.02-.06 0-.02.02-.03.03-.05.01-.02.08-.1.1-.11.18-.15.46-.2.69-.17.29.04.65.25.91.47 1.2 1.02 1.99 2.52 2.34 4.03.21.89.25 1.81.14 2.72-.04.35.33.65.65.65.39 0 .61-.3.65-.65.23-1.98-.24-4.04-1.28-5.75z"/><path class="cls-22" d="M144 87.04c.99 1.74 1.81 3.56 2.44 5.46.11.33.45.55.8.46.33-.09.57-.47.46-.8-.67-2-1.54-3.93-2.58-5.77-.42-.73-1.55-.07-1.13.66z"/><path class="cls-22" d="M146.74 92.98c.83.71 1.77 1.27 2.65 1.91.73.54 1.39 1.18 1.96 1.88 1.14 1.41 1.91 3.11 2.27 4.88.21 1 .26 2.03.19 3.06-.03.35.32.65.65.65.38 0 .63-.3.65-.65.29-3.9-1.39-7.98-4.43-10.46-.97-.79-2.07-1.39-3.02-2.2-.27-.23-.66-.26-.92 0-.24.24-.27.7 0 .92z"/></g><g id="Layer_10"><path class="cls-4" d="M81.26 190.62c-12.34-2.54-21.94-5.83-39.35-31.47-2.72-3.42-8-11.79-8-11.79s-.02-5.94.03-7.68c.05-1.74 1.13-11.29 1.66-13.36.53-2.06 2.21-8.12 3.86-10.78s5.08-6.28 7.4-7.93c2.32-1.65 6.36-3.65 7.92-4.3 1.56-.65 3.24-1.04 3.24-1.04l12.3-4.95-3.78-10.01-.8-1.37 11.89-.1v4.86l-.6 6.87s3.76 5.2 4.91 8.81c10.44 32.47 10.68 75.17 10.58 78.4-.09 3.23 0 7.5 0 7.5s-8.49-1.09-11.29-1.67z"/><path class="cls-14" d="m161.04 112.36-.49 5.42-.06 1.86-16.93-1.86c.07-.27 1.27-6.32 1.27-6.32"/><path d="M164.71 108.53c.32-.27 2.82-2.69 3.45-3.53.63-.84.77-1.41 1.55-2.22.78-.8 1.86-1.81 2.08-2.4.22-.59.34-1.93.26-2.21s.01-.88.01-.88 1.3-1.58 1.09-2.31-.12-.9-.6-1.24-2.45-.96-2.45-.96.49-.6 1.07-1.05c.58-.45 1.46-1.84 1.46-2.35s-.29-2.17-.88-2.52-1.86-.75-1.86-.75-.16-.56-.01-.77 1.02-1.67 1.4-2.22.87-2.29.4-3.11c-.47-.82-.91-1.61-1.8-1.59s-3.99 1.59-4.95 2.15-2.64 1.38-3.41 2.13c-.78.75-1.87 1.45-1.54 2.41.33.96.67 1.16 1.61 1 .94-.16 4.81-1.08 4.81-1.08h.91l-.61 2.58s-5.9 3.95-6.55 4.43-1.5.98-1.73 1.66c-.23.68-.33 2.06.82 2.11s2.35-.22 2.35-.22-2.09 1.2-1.91 2.31c.18 1.11 0 1.46.81 1.55s4.94-.41 4.94-.41v1.13s-1.65.7-2.47 1.3c-.82.6-1.76 1.13-1.37 1.88.38.74.56.45 1.79.55 1.23.1 1.55.16 1.55.16l-.22 4.48z" style="fill:#a28273"/><path class="cls-16" d="M109.82 168.36s13.46 18.58 8.38 21.13c-5.58 2.8-25.65 2.8-25.65 2.8s-.29-14.68-.4-16.21-1.83-23.32-2.2-26.16c-.37-2.84-1.82-12.91-2.47-16.51-.65-3.6-3.06-15.7-3.54-17.86-.48-2.15-1.98-8.68-1.98-8.68l-3.76-8.24s4.81 1.43 6.82 1.59c2.01.16 8.54-.3 10.23-.67s5.51-2.06 5.51-2.06l.83.97 1.58 5.72s.58 9.78.69 10.92 1.98 17.92 2.33 20.73c.35 2.82 2.87 24.45 3.02 25.89.14 1.45.62 6.63.62 6.63z"/></g><g id="Layer_4"><g id="Drink"><path d="M167.08 79.45c-.24 0-.42-.28-.43-.06 0 .09-.07.08-.08.17-.69.06-2.02.17-2.56.25-.76.11-5.34.69-9.62.63-3.53-.05-8.63-.64-10.31-.84v-.03c-.02-.23-.18-.42-.42-.42-.22 0-.44.19-.42.42.24 3.69.46 7.37.67 11.06.21 3.56.41 7.11.64 10.66.13 2.15.28 4.3.42 6.45 0 .11.05.22.13.3 0 .03.02.05.04.07.41.54 1.09.61 1.71.7.75.11 1.5.21 2.25.29 1.47.16 2.94.26 4.42.29 2.95.07 5.91-.1 8.84-.51.72-.1 1.48-.17 2.17-.41.55-.2 1.22-.59 1.17-1.27.27-3.68.53-7.36.78-11.05.24-3.55.46-7.11.66-10.66.12-2.07.22-4.14.32-6.22.01-.23-.13.16-.36.16z" style="fill:#c74528"/><path class="cls-6" d="M168.74 74.71s-.01-.03-.02-.05c-.34-.91-.92-1.72-1.43-2.54 0-.01-.02-.02-.03-.04a.642.642 0 0 0-.1-.13c-.25-.3-.62-.46-.98-.58-.41-.14-.83-.21-1.25-.28-1.04-.18-2.07-.33-3.12-.45-1.7-.2-3.4-.31-5.1-.33-.03 0-.07-.01-.11-.01h-.26c-2.08-.01-4.16.11-6.22.37-.82.09-1.63.2-2.45.33-.49.08-.99.17-1.48.26s-.95.18-1.42.31c-.43.13-.89.32-1.19.66-.06.07-.11.14-.16.21-.26.34-.51.7-.71 1.08-.19.35-.36.74-.52 1.13-.17.37-.31.75-.34 1.16-.03.35.04.71.16 1.04.05.15.16.33.11.49-.06.19-.17.36-.22.55-.11.42-.08.88.15 1.25.02.03.04.06.07.08.51.65 1.38.74 2.15.86.96.14 1.92.27 2.88.38 1.92.21 3.85.34 5.79.39a69.891 69.891 0 0 0 13.26-.93c.39-.07.78-.14 1.15-.28.73-.26 1.47-.75 1.44-1.62V78c.01-.38-.16-.73-.25-1.1-.07-.32.17-.65.26-.97.12-.41.09-.82-.05-1.22z"/></g><g id="Layer_20"><path class="cls-1" d="M152.52 109.38h.17c0-.02-.01-.04-.02-.06-.05.02-.1.03-.15.05zM165.84 104.97c-.23.08-.46.16-.68.24-.82.28-1.75-.32-1.96-1.11-.24-.87.3-1.68 1.11-1.96.5-.17 1.01-.35 1.51-.53-.22-.62-.44-1.24-.65-1.86-.28-.82.32-1.74 1.11-1.96.02 0 .04 0 .06-.01.04-.53.07-1.06.11-1.58.11-1.63.22-3.25.32-4.88-.78.16-1.6-.42-1.81-1.16-.24-.87.3-1.68 1.11-1.96.3-.1.6-.21.9-.32.03-.56.07-1.12.1-1.68-.05-.13-.09-.27-.14-.4-.15-.46-.04-.95.23-1.33.09-1.62.16-3.07.25-4.83 0 0-.62.19-.85.23-.72.15-1.82.32-2.37.4-.36.05-1.61.21-3.28.36l.51 1.41c.29.82-.33 1.75-1.11 1.96-.87.24-1.68-.3-1.96-1.11-.17-.5-.35-.99-.53-1.49-.58.21-1.17.41-1.75.61-.8.28-1.71-.3-1.95-1.08-3.48-.04-6.88-.4-9.13-.76.17.18.3.4.38.64.18.54.37 1.08.56 1.62.65-.25 1.3-.49 1.94-.75.81-.32 1.75.35 1.96 1.11.25.89-.31 1.65-1.11 1.96-.57.22-1.13.44-1.7.66.21.58.42 1.15.62 1.73.29.82-.33 1.75-1.11 1.96-.87.24-1.68-.3-1.96-1.11-.17-.5-.35-.99-.53-1.49-.15.06-.31.11-.46.16.12 1.3.24 2.61.32 3.95.12 1.96.23 3.92.35 5.87.38-.14.76-.29 1.13-.44.81-.32 1.75.35 1.96 1.11.25.89-.31 1.65-1.11 1.96-.57.22-1.13.44-1.7.66.21.58.42 1.15.62 1.73.2.58-.05 1.21-.49 1.61.1 1.53.2 3.07.31 4.6 0 .11.05.22.13.3 0 .03.02.05.04.07.41.54 1.09.61 1.71.7.74.11 1.48.21 2.22.29-.05-.09-.09-.19-.12-.29-.24-.87.3-1.68 1.11-1.96.5-.17 1.01-.35 1.51-.53-.22-.62-.44-1.24-.65-1.86-.28-.82.32-1.74 1.11-1.96.86-.24 1.69.3 1.96 1.11.18.54.37 1.08.56 1.62.65-.25 1.3-.49 1.94-.75.81-.32 1.75.35 1.96 1.11.25.89-.31 1.65-1.11 1.96-.57.22-1.13.44-1.7.66.14.39.29.79.43 1.18 2.09-.05 4.18-.22 6.26-.51.72-.1 1.48-.17 2.17-.41.55-.2 1.22-.59 1.17-1.27.05-.75.11-1.5.16-2.25zm-5.88-11.15c-.57.22-1.13.44-1.7.66.21.58.42 1.15.62 1.73.29.82-.33 1.75-1.11 1.96-.87.24-1.68-.3-1.96-1.11-.17-.5-.35-.99-.53-1.49-.58.21-1.17.41-1.75.61-.82.28-1.75-.32-1.96-1.11-.24-.87.3-1.68 1.11-1.96.5-.17 1.01-.35 1.51-.53-.22-.62-.44-1.24-.65-1.86-.28-.82.32-1.74 1.11-1.96.86-.24 1.69.3 1.96 1.11.18.54.37 1.08.56 1.62.65-.25 1.3-.49 1.94-.75.81-.32 1.75.35 1.96 1.11.25.89-.31 1.65-1.11 1.96zM142.96 79.83v.1c.04-.03.08-.05.12-.07l-.13-.02z"/><path class="cls-19" d="M159.11 90.74c-.65.25-1.29.5-1.94.75-.19-.54-.38-1.07-.56-1.62-.27-.82-1.1-1.35-1.96-1.11-.8.22-1.39 1.14-1.11 1.96.21.62.43 1.24.65 1.86-.5.18-1.01.36-1.51.53-.81.28-1.35 1.1-1.11 1.96.22.79 1.14 1.4 1.96 1.11.59-.2 1.17-.41 1.75-.61.18.49.36.99.53 1.49.28.81 1.09 1.35 1.96 1.11.79-.22 1.4-1.15 1.11-1.96-.2-.58-.41-1.16-.62-1.73.57-.22 1.14-.43 1.7-.66.8-.31 1.36-1.07 1.11-1.96-.21-.76-1.16-1.43-1.96-1.11z"/><path class="cls-17" d="M164.97 90.14c.2.74 1.03 1.32 1.81 1.16l.21-3.44c-.3.11-.6.21-.9.32-.81.28-1.35 1.1-1.11 1.96zM166.94 85.79c.04.13.09.27.14.4.01-.22.03-.45.04-.68l.06-1.05c-.27.38-.39.87-.23 1.33z"/><path class="cls-19" d="M156.07 82.02c.59-.2 1.17-.41 1.75-.61.18.49.36.99.53 1.49.28.81 1.09 1.35 1.96 1.11.79-.22 1.4-1.15 1.11-1.96-.17-.47-.33-.94-.51-1.41-1.87.17-4.26.33-6.52.32h-.28c.24.77 1.14 1.35 1.95 1.08zM144.57 88.01c.28.81 1.09 1.35 1.96 1.11.79-.22 1.4-1.15 1.11-1.96-.2-.58-.41-1.16-.62-1.73.57-.22 1.14-.43 1.7-.66.8-.31 1.36-1.07 1.11-1.96-.21-.76-1.16-1.43-1.96-1.11-.65.25-1.29.5-1.94.75-.19-.54-.38-1.07-.56-1.62a1.73 1.73 0 0 0-.38-.64c-.45-.07-.85-.15-1.2-.22l-.71-.12s-.08.05-.12.07c.15 2.31.4 4.53.61 6.77.16-.05.31-.11.46-.16.18.49.36.99.53 1.49zM145.14 101.54c-.2-.58-.41-1.16-.62-1.73.57-.22 1.14-.43 1.7-.66.8-.31 1.36-1.07 1.11-1.96-.21-.76-1.16-1.43-1.96-1.11-.38.15-.76.29-1.13.44.1 1.6.19 3.19.29 4.79l.12 1.85c.44-.4.69-1.03.49-1.61zM165.17 99.74c.21.62.43 1.24.65 1.86-.5.18-1.01.36-1.51.53-.81.28-1.35 1.1-1.11 1.96.22.79 1.14 1.4 1.96 1.11.23-.08.46-.16.68-.24l.51-7.21c-.02 0-.04 0-.06.01-.8.22-1.39 1.14-1.11 1.96zM157.35 107.57c.8-.31 1.36-1.07 1.11-1.96-.21-.76-1.16-1.43-1.96-1.11-.65.25-1.29.5-1.94.75-.19-.54-.38-1.07-.56-1.62-.27-.82-1.1-1.35-1.96-1.11-.8.22-1.39 1.14-1.11 1.96.21.62.43 1.24.65 1.86-.5.18-1.01.36-1.51.53-.81.28-1.35 1.1-1.11 1.96.03.1.07.2.12.29h.02c1.14.12 2.28.21 3.43.26.05-.02.1-.03.15-.05 0 .02.01.04.02.06l.82.03c.86.02 1.72.02 2.57 0-.14-.4-.28-.79-.43-1.18.57-.22 1.14-.43 1.7-.66z"/></g><path class="cls-11" d="M166.53 73.33c-.03-.11-1.3.23-3.38.6-.52.09-1.09.19-1.7.27-.61.1-1.27.15-1.96.23-1.39.12-2.91.19-4.52.17-1.6-.03-3.13-.16-4.51-.33-.69-.1-1.34-.18-1.95-.3-.61-.1-1.18-.22-1.69-.33-2.06-.45-3.32-.83-3.36-.72-.03.08 1.17.64 3.23 1.23.52.14 1.08.3 1.7.42.61.15 1.28.25 1.98.37 1.4.21 2.95.36 4.59.4 1.64.02 3.19-.07 4.6-.23.7-.09 1.37-.18 1.99-.3.62-.1 1.19-.24 1.71-.36 2.08-.51 3.3-1.03 3.27-1.11zM167.7 75.74c-.09-.21-1.45.2-3.65.71-.28.06-.56.13-.87.19-.3.07-.62.12-.94.18-.65.14-1.35.23-2.08.35-1.47.2-3.1.36-4.81.41-1.71.04-3.35-.03-4.83-.15-.74-.08-1.45-.14-2.1-.24-.33-.05-.65-.08-.95-.13-.3-.05-.6-.1-.87-.15-2.23-.39-3.61-.72-3.69-.51-.06.17 1.21.87 3.45 1.54.28.08.58.16.88.25.31.08.63.15.97.22.67.16 1.4.27 2.16.39 1.53.2 3.24.32 5.02.28 1.79-.05 3.48-.26 5-.54.76-.16 1.48-.31 2.14-.5.33-.09.65-.17.96-.27.3-.1.59-.2.87-.29 2.2-.78 3.44-1.55 3.36-1.72zM165.62 102.71c-.08-.21-1.22.05-3.06.36-.46.08-.96.16-1.5.23-.54.08-1.12.13-1.72.2-1.22.1-2.56.17-3.96.15-1.41-.03-2.74-.15-3.95-.29-.6-.09-1.18-.16-1.72-.26-.54-.08-1.04-.19-1.49-.28-1.82-.38-2.96-.68-3.04-.48-.07.17.94.83 2.75 1.49.45.16.96.33 1.51.47.55.16 1.14.28 1.77.41 1.26.23 2.66.4 4.14.43 1.48.02 2.89-.09 4.16-.27.63-.11 1.23-.21 1.78-.35.56-.12 1.06-.27 1.52-.42 1.84-.59 2.88-1.21 2.81-1.39z"/><path class="cls-14" d="M164.71 108.53c.32-.27 2.82-2.69 3.45-3.53.63-.84.77-1.41 1.55-2.22.78-.8 1.86-1.81 2.08-2.4.22-.59.34-1.93.26-2.21s.01-.88.01-.88 1.3-1.58 1.09-2.31-.12-.9-.6-1.24-2.45-.96-2.45-.96.49-.6 1.07-1.05c.58-.45 1.46-1.84 1.46-2.35s-.29-2.17-.88-2.52-1.86-.75-1.86-.75-.16-.56-.01-.77 1.02-1.67 1.4-2.22.87-2.29.4-3.11c-.47-.82-.91-1.61-1.8-1.59s-3.99 1.59-4.95 2.15-2.64 1.38-3.41 2.13c-.78.75-1.87 1.45-1.54 2.41.33.96.67 1.16 1.61 1 .94-.16 4.81-1.08 4.81-1.08h.91l-.61 2.58s-5.9 3.95-6.55 4.43-1.5.98-1.73 1.66c-.23.68-.33 2.06.82 2.11s2.35-.22 2.35-.22-2.09 1.2-1.91 2.31c.18 1.11 0 1.46.81 1.55s4.94-.41 4.94-.41v1.13s-1.65.7-2.47 1.3c-.82.6-1.76 1.13-1.37 1.88.38.74.56.45 1.79.55 1.23.1 1.55.16 1.55.16l-.22 4.48z"/><path class="cls-4" d="M122.89 184.84c-.32-.33-.63-.67-.94-1.02a.596.596 0 0 0-.21-.14.542.542 0 0 0-.25-.06c-.16 0-.35.07-.46.19s-.2.29-.19.46l.02.17c.03.11.09.21.17.29.3.35.61.69.94 1.02.12.12.3.19.46.19s.35-.07.46-.19.2-.29.19-.46-.07-.34-.19-.46z"/><path class="cls-4" d="M164.62 119.69a.67.67 0 0 0-.63-.47 312.68 312.68 0 0 1-24.02-2.37h-.06a.652.652 0 0 0-.62.22c-.04.05-.07.1-.09.16-.85 1.81-1.78 3.59-2.69 5.37-1.24 2.43-2.48 4.86-3.69 7.31-.16.33-.32.67-.49 1 .05-1.8.11-3.6.04-5.39-.05-1.34-.22-2.68-.39-4.01-.2-1.53-.48-3.05-.96-4.52-1.71-5.18-5.39-9.4-9.83-12.46-2.39-1.65-5.01-2.98-7.76-3.88-.2-.06-.41 0-.57.12l-1.85-2.33-5.67-2.45.52-2.82 1.63-6.73-4.2-.57-1.98 1.74-.09 1.78-.1 7.62s1.21 4.41 1.66 5.79c.45 1.39 1.49 16.13 1.72 18.23s2.13 15.49 2.23 19.5c.1 4.01 2.35 14.11 2.46 21.21.06 3.97.61 11.26 1.09 16.92-.18.12.75 11.49.95 11.6 2.76 1.61 23.74-1.67 24.09-1.72 0 0 8.6-2.81 11.74-6.1 1.46-1.53 2.71-3.26 3.78-5.08 1.34-2.28 2.5-4.67 3.51-7.12.86-2.09 1.57-4.23 2.23-6.38.69-2.26 1.38-4.52 2.06-6.78 1.71-5.64 3.06-11.39 4.06-17.2 1-5.82 1.65-11.71 1.92-17.62l.09-2.21c0-.14-.03-.26-.09-.35z"/><path class="cls-4" d="M121.98 132.79c.52-2.69 1.2-5.36 2.04-7.97.11-.34-.13-.71-.46-.8-.35-.1-.7.12-.8.46-.84 2.62-1.52 5.28-2.04 7.97-.07.35.1.71.46.8.32.09.74-.11.8-.46z"/><path class="cls-16" d="M78.15 99.1c2.99 1.38 6.26 1.95 9.54 1.94 1.71 0 3.41-.16 5.1-.41 1.53-.22 3.07-.49 4.56-.89 1.58-.42 3.12-1.06 4.33-2.18.26-.24.24-.68 0-.92a.658.658 0 0 0-.92 0c-.96.88-2.17 1.39-3.41 1.75-1.42.41-2.88.67-4.33.89-3.07.48-6.26.66-9.33.14-1.67-.28-3.33-.75-4.87-1.46-.32-.15-.7-.09-.89.24-.17.28-.09.75.24.89zM81.73 106.26c5.52 1.3 11.44 1.2 16.81-.69 1.52-.54 2.99-1.21 4.38-2.02.73-.42.07-1.55-.66-1.13-4.72 2.75-10.27 3.75-15.68 3.3-1.52-.13-3.02-.37-4.5-.72-.82-.19-1.17 1.07-.35 1.26z"/><path class="cls-4" d="M70.16 96.7c-1.26.49-2.53.96-3.8 1.41-.32.12-.57.45-.46.8.1.32.46.58.8.46 1.27-.45 2.54-.92 3.8-1.41.32-.12.57-.44.46-.8-.1-.31-.46-.59-.8-.46z"/><path class="cls-22" d="M78.76 64.9c.84 0 .84-1.31 0-1.31s-.84 1.31 0 1.31z"/><path class="cls-21" d="M104.19 28.56s.01.01 0 0zM104.16 28.54s.02.03.03.02c0 0-.01-.02-.02-.03zM104.18 28.53z"/><path class="cls-21" d="M104.18 28.54c0 .01.01.02.01.02s-.01-.02-.02-.02zM104.18 28.53h-.01.01z"/><path class="cls-22" d="M106.29 64.58v.15c0 .09.02.17.06.25.03.08.07.15.14.21.06.06.13.11.21.14.08.04.16.06.25.06l.17-.02c.11-.03.21-.09.29-.17l.1-.13c.06-.1.09-.21.09-.33v-.15c0-.09-.02-.17-.06-.25a.487.487 0 0 0-.14-.21.596.596 0 0 0-.21-.14.542.542 0 0 0-.25-.06l-.17.02c-.11.03-.21.09-.29.17l-.1.13a.63.63 0 0 0-.09.33zM91.6 65.24c.84 0 .84-1.31 0-1.31s-.84 1.31 0 1.31zM106.55 71.28c-.2-.44-.54-.73-.93-1-.41-.28-.49-.72-.61-1.19-.15-.58-.35-1.14-.58-1.7-.5-1.19-1.15-2.28-1.95-3.29-.22-.28-.7-.23-.92 0-.27.27-.22.65 0 .92a12.335 12.335 0 0 1 1.99 3.72c.14.44.23.89.39 1.33.18.51.45.91.89 1.23.16.11.29.19.4.3.02.02.04.05.06.07v.02c.02.03.04.07.06.1 0 .01.03.07.04.08.02.05.04.11.05.16 0 .03.03.13.03.14v.21c0 .03-.01.16-.01.17-.01.07-.03.14-.05.21-.01.04-.03.08-.04.11-.03.07-.07.14-.11.21 0 .01-.02.03-.03.04l-.08.09c-.02.02-.04.04-.07.06 0 0-.01.01-.02.01-.06.04-.12.08-.19.11-.14.06-.15.03-.22-.04-.35-.34-.73-.63-1.25-.56-.43.06-.76.34-1.06.64-.11.11-.27.28-.35.34 0 0-.06.04-.11.06.04-.02-.09.02-.14.04h-.16c-.15-.03-.29-.07-.44-.13-.01 0-.05-.02-.06-.02-.01 0-.02-.01-.04-.02-.07-.03-.15-.07-.22-.1-.15-.07-.3-.15-.45-.22-.62-.31-1.29-.62-2-.5-.49.08-.81.39-1.17.71-.03.03-.18.13-.12.1-.03.02-.17.05-.17.05h-.16c-.05 0-.09-.02-.13-.03-.01 0-.08-.03-.09-.03a.743.743 0 0 1-.21-.13c.06.04-.13-.13-.11-.11-.06-.07-.14-.29-.15-.36-.05-.38.08-.76.34-1.04.24-.26.26-.67 0-.92-.24-.24-.68-.26-.92 0-.71.77-.99 1.97-.44 2.91.48.82 1.59 1.25 2.48.89.26-.1.46-.25.67-.44.09-.08.17-.18.26-.24.02-.02.05-.03.08-.04.04 0 .16-.02.13-.03h.17c.03 0 .07.02.11.02.09.02.18.05.27.09.04.01.07.03.11.04.08.04.17.08.25.12l.48.24c.34.17.7.34 1.07.43.37.09.77.11 1.13-.02.44-.15.75-.46 1.06-.78.05-.04.16-.15.18-.17.01 0 .04-.02.05-.04l.01.01c.04.05.09.09.13.13.47.46 1.05.6 1.67.34.85-.36 1.33-1.2 1.4-2.1.03-.43-.06-.86-.24-1.24zm-4.93 2.63s.06.01 0 0zm1.98.21c.04 0 .02 0 0 0zm1.78-1.23c0-.02.03-.07 0 0z"/><path class="cls-2" d="M123.04 150.79c-.14-5.87-.49-11.72-1.13-17.55-.62-5.62-1.49-11.22-2.76-16.73-.63-2.75-1.35-5.48-2.21-8.16-.86-2.68-1.97-5.51-3.46-8.02-.38-.63-.78-1.24-1.21-1.84a.781.781 0 0 0-.35-.28.688.688 0 0 0-.2-.17c-2-1.09-4.08-2-6.24-2.73-.33-.11-.72.13-.8.46-.1.36.12.69.46.8s.06.02.1.03l-.75 3.81c-.46-.11-1.04.41-.76.98 1.22 2.47 2.14 5.12 3.04 7.72.9 2.62 1.71 5.27 2.43 7.95 1.45 5.38 2.54 10.85 3.38 16.36.84 5.51 1.42 11.05 1.86 16.6.43 5.55.72 11.15.95 16.73.23 5.58.21 11.42 1.26 17.03.13.7.28 1.39.44 2.07.15.63.92.57 1.19.14l2.21-.43c.21.54 1.21.44 1.27-.28.51-5.62.89-11.25 1.12-16.89.24-5.87.31-11.74.17-17.62z"/><path class="cls-22" d="M75.82 167.32s0 .03 0 0zM173.69 96.05c.16-.55.18-1.17 0-1.72-.2-.6-.59-1.04-1.11-1.4-.47-.32-.96-.42-1.46-.41.06-.03.11-.06.17-.1.6-.36 1.12-.78 1.48-1.39.31-.53.47-1.14.51-1.76.04-.61-.05-1.22-.26-1.78-.22-.62-.7-1.11-1.27-1.44-.45-.26-.92-.36-1.4-.31.47-.66.89-1.35 1.28-2.07 0-.02.01-.03.02-.05a3.37 3.37 0 0 0 .92-2.7c-.15-1.28-.86-2.58-2.17-3.05-.82-.3-1.73-.14-2.48.28-1.57.83-3.12 1.7-4.65 2.6-1.28.76-2.67 1.54-3.46 2.84-.38.63-.62 1.4-.43 2.13.21.82.99 1.27 1.81 1.25.75-.02 1.5-.29 2.22-.48.8-.22 1.6-.44 2.39-.68 1.25-.37 2.5-.76 3.74-1.19l-.11.17c-.18.26-.37.52-.56.77 0 .01-.02.03-.02.03-.03.04-.06.07-.09.11l-.16.2c-.12.15-.25.3-.37.45-.05.05-.08.12-.11.18-.14.06-.29.13-.43.19-2.79 1.26-5.47 2.79-7.87 4.7-.57.39-1.13.83-1.57 1.36-.37.44-.7.96-.71 1.55 0 .56.23 1.28.66 1.67.4.36 1.01.45 1.55.44-.22.24-.4.51-.54.82-.22.5-.32 1.06-.13 1.59.2.57.66.97 1.22 1.17.49.17 1.03.16 1.54.11.65-.07 1.29-.17 1.94-.26.31-.04.61-.08.92-.13-.65.31-1.28.64-1.89 1.01-.69.41-1.39.89-1.71 1.66-.29.7-.18 1.59.42 2.09.68.56 1.63.4 2.44.31.9-.11 1.79-.27 2.66-.49.52-.13 1.05-.28 1.56-.46-1.13 1.55-5.93 7.32-7.41 8.55-.27.22-.23.69 0 .92.27.27.65.23.92 0 2.1-1.74 7.37-8.21 8.77-10.55v-.02c.21-.14.41-.28.6-.44 1.31-1.09 2.14-2.97 1.52-4.64.51-.43.9-.97 1.1-1.67zM162.12 85.5c-.26.07-.57.16-.81.18-.26.02-.47.02-.6-.13a.523.523 0 0 1-.07-.15c0-.04-.01-.05-.02-.06V85.05c.02-.18.15-.49.27-.71.63-1.09 1.84-1.74 2.9-2.36 1.57-.94 3.17-1.83 4.79-2.69.01 0 .02-.01.03-.02.3-.16.6-.25.89-.24.07 0 .14 0 .21.01 0 0 .14.03.13.03.08.02.16.05.24.08.02.01.05.02.13.07.48.27.74.69.9 1.2.04.13.08.27.11.41 0 .04.01.08.02.11 0 0 .02.14.02.16v.36c0 .02-.01.14-.02.16 0 .05-.02.09-.03.14-.03.13-.07.26-.12.39 0 .02-.05.09-.05.11-.03.06-.06.11-.1.17-.11.18-.27.35-.45.49-2.75 1-5.57 1.85-8.4 2.58zm-3 9.6-.04-.02c-.05-.07-.09-.15-.13-.23-.02-.05-.07-.21-.09-.31-.05-.3 0 .05-.01-.12v-.1l.03-.12c0-.02 0-.03.01-.04 0 0 .01-.02.03-.05.06-.11.12-.21.2-.31.34-.46.86-.87 1.36-1.21.03-.02.05-.04.07-.06.02-.01.04-.02.05-.04 1.88-1.52 3.99-2.77 6.15-3.85 1.08-.54 2.18-1.06 3.31-1.48.5-.19.83-.15 1.25.17.42.32.51.58.61 1.09.17.85 0 1.83-.69 2.46-.4.37-.94.62-1.42.89-.52.29-1.05.58-1.59.84-2.13 1.06-4.38 1.88-6.72 2.32-.58.11-1.18.23-1.77.24-.27 0-.39.01-.62-.07zm3.5 3.66c-.5.07-.87.14-1.37.14-.22 0-.31 0-.5-.06a.664.664 0 0 1-.35-.21.577.577 0 0 1-.11-.25v-.18c.02-.11.05-.22.09-.32.12-.29.38-.61.67-.83.37-.29.82-.51 1.25-.68 1.18-.47 2.43-.77 3.65-1.13l3.9-1.15h.02c.21-.06.43-.11.64-.16.1-.02.19-.05.29-.06.05 0 .09-.02.14-.02h.08c.08 0 .16-.01.24-.01.03 0 .15.02.16.02.05.01.1.02.15.04 0 0 .03 0 .04.01 0 0 .1.05.11.05.33.17.58.38.72.71 0 .01.05.17.06.19l.03.14v.04c.02.2 0 .39-.03.52-.17.79-.8 1.33-1.55 1.7-.94.46-2.02.63-3.04.8-1.16.19-2.34.33-3.5.49l-1.77.24zm7.88 2.34c-.91.92-2.17 1.39-3.38 1.76-.73.22-1.47.4-2.21.53-.69.12-1.42.25-2.12.24-.12 0-.22 0-.33-.04-.02 0-.14-.08-.11-.05-.13-.15-.13-.33-.07-.53.04-.16.2-.37.37-.53.23-.22.51-.38.78-.54 1.38-.84 2.84-1.5 4.37-2 .29-.1.5-.37.48-.67 1.02-.16 2.17-.39 3.15-.84.19.96-.21 1.95-.93 2.67zM144.24 110.91c-.11 1.05-.32 2.2-.55 3.31-.29 1.4-.61 2.79-.96 4.18-.2.82 1.06 1.16 1.26.35.65-2.58 1.55-6.92 1.83-9.57.04-.35-.37-.23-.99-1.2-.21-.32-.28.85-.32 1.2l-.27 1.73z"/><path class="cls-22" d="M160.39 113.09c-.26 2.47-.51 4.94-.77 7.4-.04.35.33.65.65.65.38 0 .62-.3.65-.65.26-2.47.52-4.94.77-7.4.04-.35-.33-.65-.65-.65-.38 0-.62.3-.65.65z"/><path class="cls-4" d="M107.48 85.77c-1.44-.11-2.87-.37-4.31-.31-.34.02-.67.29-.65.65.02.34.29.67.65.65 1.45-.06 2.87.2 4.31.31.34.03.67-.32.65-.65a.662.662 0 0 0-.65-.65z"/><path class="cls-4" d="M108.18 146.78c-1.08-8.96-2.23-17.91-3.18-26.89-.53-5.04-1-10.09-1.34-15.15.05-.06.08-.14.11-.23l3.39-13.96.96-3.95c.2-.82-1.06-1.17-1.26-.35l-3.39 13.96-.35 1.44c-.37-1.63-.82-3.25-1.35-4.83-.11-.33-.45-.55-.8-.46-.33.09-.57.47-.46.8.82 2.41 1.43 4.88 1.85 7.39v.1c.62 9.04 1.61 18.05 2.69 27.05 1.07 8.96 2.23 17.91 3.19 26.89.54 5.07 1.02 10.15 1.38 15.23.02.35.28.65.65.65.33 0 .68-.3.65-.65-.64-9.04-1.65-18.05-2.73-27.05zM61.8 169.41a75.16 75.16 0 0 0-5.75 4.12c-.28.22-.23.7 0 .92.27.27.65.22.92 0 1.76-1.4 3.6-2.7 5.49-3.92.3-.19.42-.58.24-.89-.17-.29-.6-.43-.89-.24z"/><path class="cls-4" d="M65.63 171.84c-.06-2.76-1.48-5.39-3.73-6.98-1.24-.88-2.74-1.38-4.24-1.62-1.57-.25-3.16-.27-4.74-.06-1.8.24-3.54.76-5.18 1.55-.32.15-.4.61-.24.89.19.32.58.39.89.24 2.6-1.25 5.55-1.74 8.42-1.42 1.37.15 2.75.53 3.94 1.24.98.59 1.81 1.42 2.41 2.39a7.469 7.469 0 0 1 1.15 3.77c.02.84 1.33.84 1.31 0zM50.99 105.76c1.8-.91 3.65-1.69 5.51-2.45.39-.16.78-.32 1.18-.47.33-.13.56-.44.46-.8-.09-.31-.48-.59-.8-.46-3.23 1.3-6.47 2.61-9.46 4.4-2.99 1.79-5.63 4.11-7.61 7.01-1.98 2.91-3.33 6.28-4.34 9.66a62.006 62.006 0 0 0-2.29 11.52c-.4 3.9-.44 7.83-.09 11.73.04.48.09.96.14 1.44.04.35.27.65.65.65.32 0 .69-.3.65-.65-.43-3.83-.49-7.69-.2-11.53.29-3.84.94-7.56 1.94-11.24.91-3.36 2.08-6.69 3.87-9.69.87-1.45 1.88-2.81 3.07-4.03 1.19-1.21 2.43-2.19 3.8-3.09.33-.21 1.14-.61 1.22-.62h.07c.75-.55 1.52-.98 2.33-1.38h-.1z"/><path class="cls-4" d="M68.37 162.6c-.16-.6-.35-1.19-.41-1.8-.13-1.33.39-2.59.66-3.87.58-2.68.48-5.44.27-8.16-.21-2.72-.47-5.59-.7-8.39l-.71-8.51c-.22-2.59-.43-5.18-.79-7.75-.36-2.57-.86-4.98-1.71-7.36-.76-2.14-1.75-4.11-3.28-5.8-2.69-2.97-6.59-4.96-10.61-5.19-.82.39-1.58.83-2.33 1.38.57-.08 1.15-.11 1.72-.1 3.52.05 6.98 1.63 9.51 4.04 1.47 1.4 2.54 3.05 3.31 4.92.92 2.26 1.5 4.64 1.91 7.05.41 2.4.63 4.9.84 7.36l.69 8.19.69 8.19c.22 2.63.48 5.29.23 7.93-.12 1.3-.47 2.52-.77 3.78-.15.63-.26 1.29-.25 1.94s.15 1.27.31 1.88.34 1.17.42 1.77c.07.51.07 1.04.03 1.56a7.056 7.056 0 0 1-1.77 4.14c-.57.62.35 1.55.92.92 1.55-1.69 2.34-4.03 2.16-6.31-.05-.61-.17-1.22-.33-1.81z"/><path class="cls-4" d="M61.91 128.12c1.33 2.74 2.61 5.51 3.87 8.29l.96 2.13c.14.32.61.4.89.24.33-.19.38-.57.24-.89-1.23-2.79-2.51-5.56-3.81-8.32-.33-.7-.67-1.41-1.01-2.11-.15-.32-.61-.4-.89-.24-.32.19-.39.58-.24.89z"/><path class="cls-22" d="M164.6 128.57a.577.577 0 0 0-.6-.43c-3.51.07-7.05.13-10.55-.25-.26-.03-.49.16-.59.39-.07.07-.13.16-.15.27-.29 1.4-.48 2.83-.58 4.26-.02.28.21.55.48.63.02.01.04.03.07.04.86.38 1.79.41 2.72.45s1.77.05 2.66.04c1.78-.01 3.55-.1 5.32-.2.17 0 .33-.08.45-.19.17-.08.3-.21.33-.4.22-1.43.39-2.88.52-4.32 0-.11-.02-.21-.08-.31z"/></g><path class="cls-11" d="M85.94 134.07c-.07-.12-.95-1.27-2.45-2.65s-.07-.08-.08-.12c-.4-1.62-.81-2.67-.81-2.67a.468.468 0 0 0-.44-.29l-1.34.05h-.03c-.15.02-.26.17-.23.32l.07.46s0 .02-.02.02h-.01c-.9-.58-1.89-1.13-2.96-1.59a1.168 1.168 0 0 0-1.3.2c-4.09 3.5-5.88 8.44-5.94 8.7-.02.06-.02.13-.01.2.03.21.2.36.41.38l1.34.05c.18.02.34.15.39.33.05.23 1.09 5.34 1.61 6.62.08.19.28.3.49.27h.01c.76-.14 1.45-.26 2.2-.39h.06c.08-.02.14-.1.12-.18-.1-.45-.33-1.47-.55-2.54 0-.03-.01-.06-.02-.09a.287.287 0 0 0-.17-.2c-.43-.17-.76-.55-.86-1.03-.35-1.79-.71-3.87-.86-5.52-.01-.14.08-.26.22-.29.14-.03.28.07.31.22v.02c.1 1.1.3 2.39.52 3.65.03.17.19.29.36.26.17-.03.29-.19.26-.36-.22-1.27-.42-2.57-.52-3.67-.01-.14.08-.26.22-.29.14-.03.28.07.31.22v.02c.1 1.09.3 2.37.52 3.63.03.17.19.29.36.26s.28-.19.26-.36c-.22-1.27-.41-2.56-.52-3.65-.01-.14.08-.26.22-.29.14-.03.28.07.31.22v.02c.15 1.6.5 3.6.84 5.36v.07c.08.48-.1.94-.43 1.26a.31.31 0 0 0-.09.22s0 .27.33 1.57c.14.56.25.95.3 1.13.02.07.09.11.15.1s.08-.01.12-.02c.25-.04.51-.08.78-.12h.05l.05-.02c.34-.05.67-.1.98-.15l.74-.11a.14.14 0 0 0 .12-.14c-.07-1.6-.17-2.49-.17-2.49-.01-.08-.08-.13-.16-.13l-.92.02c-.15 0-.24-.08-.29-.18-.03-.06-.03-.14-.03-.14-.45-5.29 1-7.32 1-7.32.04-.06.07-.09.07-.09.04-.04.09-.07.15-.08.12-.02.23.04.29.14 0 0 .02.03.04.12.41 1.62.77 4.43 1.02 6.63.21 1.87.34 3.34.34 3.34 0 .06.07.1.12.09.49-.07.97-.13 1.49-.2h.01c.21-.03.36-.2.38-.4.1-1.38-.45-6.57-.48-6.8 0-.19.1-.36.27-.43l1.26-.45c.19-.08.3-.28.27-.49-.01-.07-.04-.13-.07-.19z" style="clip-path:url(#clippath-1)" id="Layer_6"/><path class="cls-21" d="M92.93 25.05s-.01 0 0 0zm11.74-.55zm0 .01zm.02-.01c-.03 0-.01 0 0 0zm.02.03s0-.01-.01-.02c.02 0 .02.01.01.02z"/><path class="cls-11" d="M58.16 93.98c-.17-.03-.34.34-.76.73-.4.39-1.11.8-1.86.74-.75-.06-1.39-.57-1.73-1.02-.35-.45-.47-.84-.64-.84-.14-.01-.35.47-.08 1.22.13.37.38.77.78 1.12.39.35.95.62 1.59.68.64.04 1.23-.14 1.67-.43.45-.28.76-.64.94-.98.37-.7.25-1.2.1-1.21zM62.12 127.27c-.29.14.53 2.35 1.82 4.92 1.29 2.58 2.57 4.55 2.85 4.4.29-.14-.53-2.35-1.82-4.92-1.29-2.58-2.57-4.55-2.85-4.4zM133.4 129.44c-.58-.27-3.06 3.77-5.55 9.02-2.49 5.26-4.04 9.74-3.46 10.01s3.06-3.77 5.55-9.02c2.49-5.26 4.04-9.74 3.46-10.01zM124 123.4c-.3-.1-1.03 1.24-1.62 2.99-.59 1.75-.83 3.26-.53 3.36.3.1 1.03-1.24 1.62-2.99.59-1.75.83-3.26.53-3.36z"/><path d="M99.52 106.49c-.02-.32-3.37-.33-7.47-.03-4.1.3-7.41.8-7.39 1.12.02.32 3.37.33 7.47.03 4.1-.3 7.41-.8 7.39-1.12z" style="fill:#ffb1c3"/><path class="cls-11" d="M53.23 100.75c-.03-.16-3.06.22-7.93.95-2.44.37-5.33.82-8.56 1.34-.81.14-1.68.3-2.54.68-.86.36-1.7 1.03-2.19 1.92-.5.88-.71 1.86-.8 2.81-.09.96-.07 1.91-.06 2.84.05 7.52.17 14.33.31 19.26.14 4.93.31 7.98.47 7.98s.28-3.05.35-7.98c.07-4.93.08-11.74.03-19.26 0-.95-.03-1.86.05-2.73.08-.86.26-1.69.64-2.36.73-1.38 2.37-1.83 3.93-2.12 3.2-.58 6.09-1.12 8.51-1.59 4.84-.94 7.82-1.6 7.79-1.75z"/><path class="cls-11" d="M46.74 107.86c.07.06.32-.14.81-.38.49-.24 1.25-.48 2.23-.49.98-.02 2.15.17 3.42.57 1.27.38 2.62.96 3.94 1.74 2.65 1.55 4.61 3.61 5.81 5.23 1.21 1.63 1.76 2.8 1.93 2.72.12-.04-.15-1.35-1.25-3.18-1.08-1.82-3.07-4.12-5.91-5.77-1.41-.83-2.87-1.41-4.24-1.76-1.36-.36-2.68-.49-3.77-.36-1.1.12-1.95.53-2.42.93-.48.4-.62.72-.57.76z"/><path class="cls-8" d="M125.22 34.71s4.11-1.77 5.75-2.32c0 0 .66 1.93 2.42 2.86 1.74.93 5.2 1.88 6.77 2.78.76.43 2.17.68 3.64.81 1.62.15 3.29.16 4.22.14 1.78-.07 10.92-.8 12.89-.97 1.97-.18 8.76-.74 10.45-.73s4.42-.14 6.01 1.07c1.58 1.22 2.66 2.23 2.98 3.36s.71 3.05-.01 4.73c-.72 1.66-2.18 4.04-3.28 5.29s-2.73 3.2-4.97 4.97c-2.25 1.77-4.7 3.57-6.76 4.7-2.06 1.13-6.32 3.19-7.12 3.53s-7.85 3.04-7.85 3.04l-1.44.05s3.73-1.86 6.64-3.93c2.91-2.08 4.14-3.85 5.02-5.15.88-1.3 1.85-4.2 2.17-5.42.33-1.22 0-3.59-.48-4.63-.48-1.05-3.03-4.09-4.42-4.88-1.4-.78-5.77-2.81-7.08-3.05-1.32-.26-4.4-1.19-4.4-1.19s-2.88-.68-5.1-.86c-2.22-.18-9.16-1.36-10.38-1.76s-5.65-2.44-5.65-2.44z"/><g id="Layer_7-2"><path class="cls-8" d="M163.05 50.31c-.37-2.07-1.52-3.78-2.92-5.07-1.5-1.36-3.23-2.3-4.99-3.08-2.01-.89-4.08-1.58-6.17-2.19-.68-.2-1.36-.38-2.04-.57 2.18-.04 4.37-.17 6.54-.34 2.49-.19 4.97-.45 7.46-.68.31-.03.61-.05.92-.08.19-.01.36-.18.36-.42.01-.2-.15-.43-.33-.41-2.48.23-4.94.47-7.42.68-2.43.2-4.87.36-7.31.42-1.11.02-2.21.03-3.31 0-.38-.1-.77-.21-1.15-.31-2.1-.57-4.19-1.19-6.24-2-1.66-.65-3.43-1.43-4.6-3.04a5.08 5.08 0 0 1-.63-1.2c-.08-.2-.33-.26-.48-.15-.18.12-.21.36-.13.57.72 1.94 2.37 3.12 3.97 3.9.93.46 1.88.81 2.84 1.16.91.33 1.84.62 2.76.9-.08 0-.16-.01-.25-.02-2.37-.2-4.72-.55-7.06-1.12-1.17-.28-2.34-.62-3.48-1.01-1.15-.39-2.28-.82-3.37-1.39-.28-.15-.54-.3-.8-.46-.4-.24-.76.47-.36.72 1.08.66 2.22 1.15 3.38 1.58 1.13.43 2.29.8 3.46 1.11 2.35.63 4.75 1.04 7.15 1.3 1.62.16 3.26.26 4.89.3 1 .27 2 .53 2.99.8 2.07.55 4.14 1.15 6.15 1.92 1.85.69 3.7 1.5 5.39 2.65 1.46 1 2.82 2.31 3.6 4.09.91 2.07.7 4.46-.01 6.56-.65 1.92-1.73 3.63-2.98 5.08-1.25 1.45-2.68 2.63-4.18 3.67-1.55 1.07-3.16 1.99-4.8 2.85-.39.2-.79.42-1.19.62-.17.09-.22.39-.13.57.11.2.31.23.48.15 1.66-.85 3.31-1.74 4.91-2.76 1.58-1.01 3.11-2.16 4.48-3.53 1.34-1.35 2.53-2.93 3.39-4.75 1.01-2.11 1.63-4.61 1.19-7.02z"/><path class="cls-6" d="M180.5 41.16c-.88-1.89-2.52-3.15-4.24-3.74-2.11-.73-4.37-.59-6.53-.49-2.28.11-4.56.28-6.84.49-.28.03-.55.05-.81.07-.19.01-.36.18-.36.42 0 .22.16.43.36.42h.11l13.78 14.13s-.07.08-.11.12c-.33.34.16.93.49.55 1.44-1.62 2.9-3.34 3.86-5.4.48-1.04.83-2.19.89-3.38.06-1.11-.15-2.22-.61-3.17z"/><path class="cls-8" d="M149.94 68.4c1.87-.61 3.73-1.24 5.56-1.96 1.83-.72 3.68-1.47 5.48-2.34 1.8-.85 3.58-1.8 5.31-2.84 1.71-1.03 3.36-2.16 4.95-3.42 1.59-1.26 3.12-2.63 4.55-4.15.18-.19.36-.38.53-.57.33-.36-.16-.95-.49-.58-1.38 1.51-2.85 2.9-4.4 4.16a47.727 47.727 0 0 1-4.86 3.46c-1.68 1.05-3.42 2-5.18 2.85-1.77.85-3.59 1.65-5.41 2.36-1.82.72-3.66 1.36-5.51 1.99-.23.08-.47.15-.7.23-.44.14-.25.93.18.8z"/><path class="cls-6" d="M164.16 8.7c-.1-.38-.26-.7-.48-1-.13-.18-.37-.15-.49 0-.1.12-.12.28-.08.41-.05.06-.08.15-.08.26.02 1.93-1.11 3.5-2.37 4.58-1.48 1.28-3.24 2.12-4.97 2.82-3.82 1.54-7.84 2.16-11.86 2.35-4.02.19-7.69-.11-11.51.39-1.86.24-3.7.66-5.44 1.46-1.74.8-3.28 1.82-4.52 3.36-1.23 1.53-1.97 3.51-1.7 5.65.28 2.13 1.5 3.98 2.98 5.24.4.34.83.65 1.26.9.31.19.59-.18.52-.48.81-.25 3.78-1.21 5.28-2.09.08.09.2.13.32.09.18-.04.32-.28.25-.5-.49-1.61-.21-3.39.6-4.79.77-1.35 1.94-2.34 3.15-3.05 2.8-1.66 5.98-2.09 9.05-2.59 2.77-.45 5.56-.96 8.26-1.81 2.66-.84 5.28-2.03 7.59-3.82.58-.46 1.15-.95 1.68-1.47.52-.51 1.03-1.04 1.46-1.66.78-1.13 1.5-2.74 1.1-4.24z"/></g><path class="cls-10" d="M151.66 39.96c0 .06.77 0 2.16-.08 1.39-.09 3.39-.21 5.87-.24 1.24-.01 2.6 0 4.05.04.73.02 1.48.06 2.26.1.78.05 1.57.09 2.37.21s1.61.31 2.39.62c.79.31 1.53.78 2.14 1.44.29.35.57.72.75 1.16.12.21.17.45.26.67.05.24.13.47.16.72.16.99.02 2.04-.26 3.05-.3 1.01-.72 1.97-1.22 2.85-.25.44-.51.87-.79 1.29-.29.41-.57.82-.85 1.22a40.235 40.235 0 0 1-3.58 4.29 38.18 38.18 0 0 1-3.64 3.36c-1.19.97-2.35 1.8-3.44 2.48a36.632 36.632 0 0 1-5.33 2.83c-.65.29-1.16.48-1.5.63-.34.15-.52.24-.52.26 0 .03.2 0 .55-.1.36-.1.89-.24 1.55-.49 1.33-.47 3.25-1.28 5.47-2.62 1.12-.66 2.3-1.47 3.53-2.43 1.23-.95 2.49-2.07 3.74-3.35 1.25-1.28 2.49-2.72 3.67-4.33 1.17-1.59 2.35-3.41 3-5.62.31-1.1.46-2.3.28-3.46-.16-1.16-.7-2.21-1.38-2.99a6.326 6.326 0 0 0-2.4-1.6c-.85-.33-1.7-.52-2.53-.63-.83-.12-1.64-.15-2.42-.19-.78-.03-1.54-.05-2.27-.06-1.46-.02-2.83 0-4.07.06-2.49.1-4.5.31-5.88.5s-2.14.34-2.14.4zM133 20.42c0-.06-.32-.12-.91-.18-.59-.05-1.44-.12-2.51-.03-1.06.1-2.37.34-3.64 1.21-1.27.87-2.35 2.42-2.88 4.31-.52 1.89-.41 3.92.23 5.48.62 1.57 1.63 2.66 2.55 3.32.93.67 1.8.93 2.4 1.01.15.01.28.03.4.04.12 0 .21 0 .29-.01.16-.01.24-.03.24-.06s-.08-.06-.23-.1c-.08-.02-.17-.04-.28-.06-.11-.03-.23-.07-.37-.11-.55-.17-1.35-.49-2.18-1.18-.82-.68-1.7-1.72-2.23-3.15-.54-1.41-.62-3.21-.15-4.91.48-1.7 1.44-3.11 2.55-3.92 1.13-.82 2.35-1.12 3.36-1.28 1.02-.16 1.87-.18 2.46-.22.59-.04.91-.08.91-.13z"/><path class="cls-11" d="M160.33 14.94s-.34.18-.95.57c-.62.38-1.53.94-2.74 1.54-1.22.6-2.74 1.23-4.56 1.75-.91.25-1.89.47-2.94.63-1.05.15-2.17.25-3.34.27-2.35.05-4.92-.4-7.74-.43-.7 0-1.42.03-2.15.12s-1.47.22-2.21.47c-1.46.5-2.91 1.31-4.13 2.6-.6.64-1.15 1.39-1.56 2.26-.41.87-.68 1.85-.75 2.87-.08 1.02.04 2.06.32 3.04s.72 1.89 1.27 2.72c.54.82 1.19 1.56 1.91 2.19.72.64 1.53 1.13 2.36 1.53 1.67.82 3.47 1.23 5.27 1.51 1.81.27 3.58.45 5.33.68 1.75.21 3.48.42 5.17.62 1.7.2 3.36.4 4.99.6 1.63.21 3.24.34 4.75.66 1.51.31 2.97.83 4.15 1.77 1.19.93 2.03 2.3 2.47 3.79.42 1.5.5 3.07.34 4.54-.17 1.47-.55 2.85-1.08 4.06-.52 1.22-1.2 2.25-1.93 3.15-.73.89-1.5 1.64-2.25 2.28-1.52 1.28-2.96 2.15-4.14 2.84-1.19.68-2.13 1.16-2.77 1.5-.64.34-.97.52-.96.55 0 .03.36-.11 1.01-.4.65-.29 1.61-.73 2.83-1.36 1.21-.65 2.68-1.48 4.25-2.75.78-.64 1.58-1.39 2.34-2.29.76-.9 1.49-1.98 2.05-3.24.56-1.26.98-2.7 1.17-4.24.18-1.55.12-3.22-.33-4.84-.46-1.61-1.38-3.14-2.67-4.16-1.29-1.03-2.82-1.58-4.38-1.91-1.57-.34-3.17-.48-4.8-.69-1.63-.2-3.3-.41-4.99-.62-1.69-.21-3.42-.42-5.17-.63-1.75-.22-3.53-.41-5.31-.68-1.77-.28-3.51-.68-5.1-1.45-.79-.39-1.55-.84-2.22-1.43-.67-.58-1.27-1.27-1.78-2.03-.5-.76-.91-1.6-1.17-2.49a7.88 7.88 0 0 1-.3-2.72c.12-1.83.96-3.46 2.08-4.64 1.12-1.2 2.49-1.98 3.87-2.47.69-.24 1.4-.38 2.1-.47.7-.09 1.4-.13 2.09-.13 2.76 0 5.35.42 7.74.33 1.19-.03 2.33-.15 3.39-.33 1.06-.19 2.06-.43 2.97-.71 1.83-.57 3.36-1.25 4.57-1.9 1.21-.65 2.11-1.26 2.7-1.69.59-.44.89-.69.88-.71z"/><path class="cls-3" d="M57.14 49.12c-.39-1.49-.96-2.93-1.7-4.28-.46-1.09-1-2.14-1.62-3.14-1.5-2.45-3.46-4.72-5.83-6.35-2.41-1.66-5.3-2.5-8.17-2.93-3-.45-6.08-.62-9.09-.23-2.86.37-5.62 1.27-8.07 2.81-2.22 1.4-4.12 3.24-5.7 5.33a23.386 23.386 0 0 0-2.6 4.39c-.46.83-.86 1.68-1.2 2.56-1.08 2.76-1.58 5.74-1.6 8.7 0 .86.03 1.72.1 2.58v.27c0 .09.02.17.05.24.21 1.9.64 3.78 1.35 5.56.92 2.33 2.22 4.49 3.85 6.39 1.6 1.88 3.52 3.51 5.63 4.79 2.17 1.31 4.57 2.25 7.05 2.74 2.65.52 5.37.55 8.04.15 2.64-.4 5.22-1.25 7.58-2.49 2.35-1.23 4.47-2.89 6.25-4.85 1.77-1.95 3.21-4.19 4.27-6.6a25.34 25.34 0 0 0 2.02-7.69c.26-2.65.07-5.36-.61-7.94z"/><path class="cls-15" d="M13.75 58.95c.15-2.23.53-4.42 1.16-6.58.63-2.16 1.48-4.18 2.64-6.09s2.51-3.52 4.2-4.9c1.83-1.5 4.03-2.59 6.33-3.23 2.51-.7 5.13-.89 7.73-.78 2.65.12 5.3.53 7.83 1.34 2.4.78 4.66 1.97 6.56 3.63 1.76 1.54 3.21 3.41 4.31 5.47 1.19 2.22 1.95 4.67 2.28 7.17.36 2.76.23 5.58-.32 8.3-.14.67-.3 1.34-.49 2-.19.66.84.94 1.03.28.78-2.79 1.15-5.71 1.02-8.61-.14-2.9-.72-5.5-1.81-8.05-.96-2.25-2.32-4.34-4.01-6.12a18.748 18.748 0 0 0-6.28-4.35c-2.57-1.1-5.31-1.69-8.08-1.98-2.7-.28-5.44-.25-8.11.23-2.57.46-5.08 1.38-7.26 2.84-1.91 1.28-3.55 2.93-4.89 4.79s-2.39 3.96-3.17 6.13-1.3 4.51-1.58 6.83c-.07.55-.12 1.11-.15 1.67-.02.29.26.53.53.53.31 0 .51-.25.53-.53z"/><path d="M38.74 81.67c2.64-.4 5.22-1.25 7.58-2.49 2.35-1.23 4.47-2.89 6.25-4.85 1.77-1.95 3.21-4.19 4.27-6.6a25.34 25.34 0 0 0 2.02-7.69c.26-2.65.07-5.36-.61-7.94a18.9 18.9 0 0 0-1.7-4.29c-.46-1.09-1-2.14-1.62-3.14-1.5-2.45-3.46-4.72-5.83-6.35-2.41-1.66-5.3-2.5-8.17-2.93-3-.45-6.08-.62-9.09-.23-2.86.37-5.62 1.27-8.07 2.81-2.22 1.4-4.12 3.24-5.7 5.33a23.386 23.386 0 0 0-2.6 4.39c-.46.83-.86 1.68-1.2 2.56-1.08 2.76-1.58 5.74-1.6 8.7 0 .86.03 1.72.1 2.58v.27c0 .09.02.17.05.24.21 1.9.64 3.78 1.35 5.56.92 2.33 2.22 4.49 3.85 6.39 1.6 1.88 3.52 3.51 5.63 4.79 2.17 1.31 4.57 2.25 7.05 2.74" style="fill:#ffcb4f"/><path class="cls-1" d="M59.33 57.6s-.16-.03-.37-.06c0 .85-.03 1.7-.11 2.54-.26 2.66-.95 5.25-2.02 7.69-1.06 2.41-2.5 4.65-4.27 6.6a22.847 22.847 0 0 1-6.25 4.85 24.13 24.13 0 0 1-7.58 2.49"/><path class="cls-15" d="m42.5 76.76-.02-.11s-.06.06.02.11z"/><path class="cls-3" d="M35.18 78.42c.27 0 .48-1.13.49-2.52 0-1.39-.21-2.52-.47-2.52-.27 0-.48 1.13-.49 2.52 0 1.39.21 2.52.47 2.52zM35.12 42.92c.27 0 .48-1.13.49-2.52 0-1.39-.21-2.52-.47-2.52-.27 0-.48 1.13-.49 2.52 0 1.39.21 2.52.47 2.52zM55.19 58.37c0-.27-1.13-.48-2.52-.49-1.39 0-2.52.21-2.52.47 0 .27 1.13.48 2.52.49s2.52-.21 2.52-.47zM20.18 58.42c0-.27-1.13-.48-2.52-.49s-2.52.21-2.52.47c0 .27 1.13.48 2.52.49 1.39 0 2.52-.21 2.52-.47zM51.87 47.33c-.15-.22-1.21.22-2.37.98-1.17.76-1.99 1.56-1.85 1.78.15.22 1.21-.22 2.37-.98 1.17-.76 1.99-1.56 1.85-1.78zM22.67 66.67c-.15-.22-1.21.22-2.37.98-1.17.76-1.99 1.56-1.85 1.78.15.22 1.21-.22 2.37-.98 1.17-.76 1.99-1.56 1.85-1.78zM46.3 39.73c-.23-.13-.98.74-1.67 1.95s-1.07 2.3-.84 2.43c.23.13.98-.74 1.67-1.95s1.07-2.3.84-2.43zM27.78 71.43c-.23-.13-.98.74-1.67 1.95s-1.07 2.3-.84 2.43c.23.13.98-.74 1.67-1.95s1.07-2.3.84-2.43zM17.75 48.5c-.13.23.74.98 1.95 1.67s2.3 1.07 2.43.84c.13-.23-.74-.98-1.95-1.67s-2.3-1.07-2.43-.84zM48.2 65.77c-.13.23.74.98 1.95 1.67s2.3 1.07 2.43.84-.74-.98-1.95-1.67-2.3-1.07-2.43-.84zM23.78 39.73c-.23.13.15 1.22.84 2.43.69 1.21 1.44 2.08 1.67 1.95.23-.13-.15-1.22-.84-2.43-.69-1.21-1.44-2.08-1.67-1.95zM41.34 70.01c-.23.13.15 1.22.84 2.43.69 1.21 1.44 2.08 1.67 1.95.23-.13-.15-1.22-.84-2.43-.69-1.21-1.44-2.08-1.67-1.95z"/><path class="cls-11" d="M35.03 40.57c-.53.01-.83 5.6-.66 12.49.03.86.05 1.7.08 2.51 0 .17.01.34.02.5 0 .01.01 0 0 .02 0 .02-.02.04-.06.04h-.02c-.03-.02-.14-.1-.2-.14-.15-.11-.29-.21-.44-.31-.29-.2-.57-.4-.84-.59-.55-.38-1.06-.72-1.53-1.03-1.89-1.24-3.15-1.9-3.31-1.69-.16.21.8 1.25 2.48 2.77a74.938 74.938 0 0 0 2.18 1.89c.14.11.27.23.41.34.08.06.12.1.23.19.14.11.3.19.47.25.67.26 1.52.06 2.03-.52.26-.28.42-.67.46-1.06.02-.23 0-.3 0-.4v-.3c-.02-.81-.03-1.65-.04-2.51-.17-6.88-.73-12.45-1.26-12.44z"/><path class="cls-2" d="M77.59 153.54c-.14-5.87-.49-11.72-1.13-17.55-.62-5.62-1.49-11.22-2.76-16.73-.63-2.75-1.35-5.48-2.21-8.16-.86-2.68-1.97-5.51-3.46-8.02-.38-.63-.78-1.24-1.21-1.84a.781.781 0 0 0-.35-.28.688.688 0 0 0-.2-.17c-2-1.09-4.08-2-6.24-2.73-.33-.11-.72.13-.8.46-.1.36.12.69.46.8s.06.02.1.03l-.75 3.81c-.46-.11-1.04.41-.76.98 1.22 2.47 2.14 5.12 3.04 7.72.9 2.62 1.71 5.27 2.43 7.95 1.45 5.38 2.54 10.85 3.38 16.36.84 5.51 1.42 11.05 1.86 16.6.43 5.55.72 11.15.95 16.73.23 5.58.21 11.42 1.26 17.03.13.7 4.98 2.95 5.05 2.22.51-5.62.96-11.98 1.19-17.62.24-5.87.31-11.74.17-17.62z"/><path class="cls-23" d="M76.72 39.72c1.14-.85 2.62-1.12 4-.84.02-.16.05-.33.09-.49.32-1.11 1.2-1.87 2.03-2.62.84-.76 1.49-1.68 2.29-2.48.86-.85 1.91-1.5 3.13-1.64.61-.07 1.21.03 1.77.28.22.1.43.22.64.33.18.08.36.12.47.11.9-.1 1.71-1.05 2.41-1.6 1.86-1.45 4.34-2.42 6.68-1.56 1.88.7 2.96 2.35 3.35 4.2l.71-.5c.18-.13.41-.16.63-.13a.88.88 0 0 1 .17-.02c.49 0 1.07.46 1 1-.21 1.61-.64 3.17-1.24 4.65 1.07.15 2.11.47 3.1.93 1.28.6 2.56 1.5 3.32 2.71.78 1.23.87 2.75.84 4.17-.03 1.59-.1 3.19-.16 4.78-.05 1.62-.11 3.24-.16 4.87.01.21.01.43 0 .65-.02.62-.5.94-.98.96-.27.06-.55.02-.79-.16-.47-.08-.83-.49-.85-.99-.05-1.25-.19-2.49-.39-3.71-.73-1.39-1.75-2.67-2.69-3.89-.94-1.23-1.85-2.47-2.53-3.87-.38-.79-.71-1.61-.97-2.45-1.26 1.71-2.82 3.2-4.62 4.39-.07.05-.15.08-.23.1-.24.16-.54.22-.85.16-4.06-.86-8.01-2.23-11.72-4.08.07.12.14.24.21.37.48.9.84 1.97-.05 2.76-.62.55-1.49.85-2.2 1.27-2.76 1.66-4.1 4.58-4.64 7.66-.33 1.89-.35 3.83-.37 5.75.03.23.06.47.08.71.05.54-.5 1-1 1-.48 0-.81-.31-.94-.72a.893.893 0 0 1-.14-.53v-.45c-.47-3.74-1.75-7.33-2.21-11.08-.42-3.4-.19-7.8 2.82-10.04z"/><path class="cls-23" d="M74.33 59.34a24.077 24.077 0 0 1-.4-12.77c.46-1.89 1.16-3.75 1.2-5.7.04-1.5-.43-3.11-1.44-4.15a.525.525 0 0 1 .36-.89c1.59-.02 3.2.29 4.66.93.25.11.54 0 .67-.23 1.41-2.76 3.99-4.81 6.85-6 3.01-1.27 6.32-1.67 9.58-1.76 4.71-.14 9.44.34 14.04 1.41.42.09.55.62.23.9l-2.01 1.77c-.25.21-.23.61.02.81 1.86 1.43 4.56 2.64 5.69 8.08.08.4-.3.74-.69.6-1.99-.72-6.75-1.67-7.14 5.52"/><path class="cls-14" d="m78.19 61.57-.8-1.52c-.39-.69-.99-1.55-1.61-2.25s-3.1-.38-3.1-.38a4.22 4.22 0 0 1-1.07 2.32c-.15 1.4.48 3.99.76 5.61s1.72 3.14 2.88 2.96c1.16-.19 2.37-2.39 2.37-2.39l.16 4.64.39 7.39-.52 8.98c-.15.57-.98 11.83-.98 11.83s8.17 3.56 20.74.3c2.22-.58 4.09-1.81 4.09-1.81l.34-9.6c0-.21.74-1.4.87-1.51s3.83-3.78 4.63-5.14c.8-1.36 2.83-7.19 3.11-9.51.28-2.32.76-8.9.54-11.23l-.91-8.58-2.24-5.71c-.62-.94-1.45-2.58-1.74-2.54s-.42.79-1.43 1.43l-.89.67c-.97.72-2.26.83-3.33.27l-3.96-2.08c-.37-.19-.75-.36-1.14-.5-3.21-1.2-6.8-.63-9.5 1.47l-1.79 1.4a9.981 9.981 0 0 0-2.7 3.25l-3.99 7.72 1.15 7.6"/><path class="cls-23" d="m77.59 66.76.11 4.29.16 6.46.02 2.47v6.56l-.8 11.47v.08c0 .84-1.3.84-1.3 0l.8-17.47v-2.63l-.16-6.06-.13-5.09v-.08c-.02-.84 1.29-.84 1.3 0z"/><path class="cls-23" d="M76.49 59.8c-.45-.52-.93-1-1.45-1.44-.06-.06-.13-.11-.19-.16-.02-.02-.19-.15-.09-.08-.14-.11-.29-.2-.45-.29-.32-.18-.68-.28-1.04-.26-.59.04-.99.42-1.27.91-.34.59-.46 1.27-.49 1.93-.08 1.83.2 3.65.91 5.34.19.43.39.97.75 1.3.08.07.13.08 0 0 .06.04.12.08.18.13.15.11.3.19.47.27.02 0 .19.08.11.05s.08.02.12.04c.12.05.25.07.36.11.06.01.18.02.05 0 .07 0 .13 0 .2.01s.14 0 .2 0c.04 0 .13-.02-.02 0 .04 0 .07 0 .11-.02a.83.83 0 0 0 .21-.06c.02 0 .06-.02.08-.02.07-.02-.08.05.04-.01l.21-.12.13-.08c.33-.26.56-.59.77-.93.43-.72 1.56-.06 1.13.66-.46.76-1.07 1.42-1.91 1.74-.59.22-1.25.2-1.85 0-.43-.14-.84-.35-1.22-.62-.4-.3-.72-.69-.94-1.14-1.01-1.89-1.44-4.08-1.41-6.2.02-1.7.48-3.76 2.26-4.44 1.02-.39 2.17-.05 3 .6.71.55 1.37 1.17 1.96 1.85.23.27.26.66 0 .93-.23.23-.69.27-.93 0l.02.04z"/><path class="cls-23" d="M77.13 61.73c-.33-.82-.5-1.7-.62-2.57-.19-1.38-.16-2.8.15-4.17.21-.9.55-1.77 1.01-2.58.41-.73 1.54-.07 1.13.66-.87 1.55-1.18 3.3-1.08 5.07.05.72.12 1.24.29 1.96.11.43.22.87.4 1.29.13.33-.14.72-.46.8-.38.11-.67-.13-.8-.46h-.02zM102.81 87.01l-.68 10.88c-.05.35-.49.54-.8.46-.38-.11-.5-.46-.46-.8.5-3.49.53-7.01.63-10.54.02-.84 1.33-.84 1.3 0z"/><path class="cls-23" d="M106.28 42.71c1.59 1.89 2.83 4.05 3.6 6.4.77 2.36 1.15 5.04 1.33 7.62l.41 7.13c.11 2.38.12 4.8-.25 7.15l-.74 3.73c-.43 1.65-1.11 3.25-1.93 4.75-1 1.82-2.17 3.59-3.48 5.19-1.09 1.33-2.43 2.36-4.03 2.98-1.61.62-3.4.84-5.11.66-1.71-.19-3.65-.67-5.11-1.74-.38-.28-.74-.59-1.04-.95-.23-.27-.26-.66 0-.93.23-.23.69-.27.93 0 .27.3.6.61.87.8.35.26.74.47 1.14.66.68.32 1.57.57 2.38.73l1.1.15c.35.04.7.05 1.04.05.81 0 1.62-.14 2.39-.34.87-.22 1.55-.49 2.3-.95l.45-.29.22-.16c-.08.06.13-.11.16-.13.28-.24.55-.49.81-.76.57-.61.96-1.13 1.43-1.77L107 79.9c.93-1.55 1.65-3.04 2.18-4.71.35-1.14.56-2.31.77-3.48.38-2.06.48-4.12.43-6.2l-.36-6.86c-.13-2.43-.29-4.85-.86-7.24s-1.45-4.47-2.8-6.41c-.3-.45-.64-.88-1-1.29-.22-.27-.27-.66 0-.93.23-.23.69-.27.93 0v-.06z"/><path class="cls-23" d="M102.61 63.11c-.04-.35-.28-.66-.66-.66-.33 0-.69.3-.66.66.2 2.05.95 3.95 1.49 5.92.12.41.25.87.27 1.27.01.3.01.56-.23.74-.33.23-.86.27-1.24.32-.52.05-1.05.06-1.57.02-.35-.02-.66.32-.66.66 0 .38.3.63.66.66.52.05 1.05.04 1.57-.02.48-.06 1.01-.12 1.47-.29.86-.32 1.31-1.03 1.31-1.95 0-.8-.27-1.61-.49-2.37-.48-1.63-1.1-3.25-1.25-4.95z"/><circle class="cls-23" cx="107.54" cy="62.14" r=".97"/><circle class="cls-23" cx="91.34" cy="62.14" r=".97"/><path d="M92.59 76.73c.58 2.02 3.29 2.97 5.12 2.18.31-.13.37-.58.22-.84-.18-.32-.54-.35-.84-.22-.12.05-.37.09-.49.1-.22.01-.43 0-.65-.02-.07 0 .07.02-.04 0-.05 0-.1-.02-.15-.03-.09-.02-.18-.04-.26-.06s-.17-.05-.26-.08c-.05-.02-.09-.03-.14-.05-.1-.04.01 0-.05-.02a4.23 4.23 0 0 1-.47-.25c-.04-.03-.08-.05-.12-.08-.03-.02-.07-.05-.02 0a2 2 0 0 1-.22-.19 3.32 3.32 0 0 1-.18-.19c-.04-.05.04.06-.03-.03-.02-.03-.04-.06-.06-.1-.05-.08-.1-.16-.14-.25.03.06.01.03 0-.01a.845.845 0 0 1-.05-.17c-.09-.32-.43-.52-.76-.43s-.52.44-.43.76z" style="fill:#735d54"/></g></svg>