<svg width="192" height="108" viewBox="0 0 192 108" fill="none" xmlns="http://www.w3.org/2000/svg">
<path d="M152.449 1.5L187.2 54L152.449 106.5H46.5V1.5H152.449Z" fill="#6AB458" stroke="black" stroke-width="3" stroke-linejoin="round"/>
<path d="M0 0H48V108H0V0Z" fill="white"/>
<path d="M48 0V3H3V105H48V108H0V0H48Z" fill="black"/>
<path d="M20.378 9.9668H27.578L38.0944 34.5984H31.898L29.978 29.9752H17.7598L15.8398 34.5984H9.90527L20.378 9.9668ZM19.418 25.9584H28.3198L23.9562 14.7036H23.6944L19.418 25.9584Z" fill="black"/>
<path d="M25.4307 65.1503V45.8359L32.6089 52.0695L34.6325 50.3122L25.6789 42.5532C25.4588 42.3607 25.1971 42.208 24.9088 42.1037C24.6204 41.9995 24.3112 41.9458 23.9989 41.9458C23.6865 41.9458 23.3773 41.9995 23.089 42.1037C22.8006 42.208 22.5389 42.3607 22.3189 42.5532L13.3652 50.3122L15.3889 52.0695L22.5671 45.8359V65.1503H25.4307Z" fill="black"/>
<path d="M25.222 98.0332C22.7493 98.0332 20.6111 97.6669 18.8075 96.9343C17.0329 96.2017 15.5639 95.2417 14.4002 94.0543C13.2366 92.8417 12.3784 91.4648 11.8257 89.9238C11.2729 88.3827 10.9966 86.8038 10.9966 85.1869C10.9966 83.5196 11.2729 81.928 11.8257 80.4122C12.4075 78.8711 13.2657 77.5196 14.4002 76.3575C15.5348 75.1701 16.9602 74.2354 18.6766 73.5532C20.422 72.8459 22.4584 72.4922 24.7857 72.4922C27.0257 72.4922 28.9893 72.8332 30.6766 73.5153C32.3639 74.1722 33.7893 75.0438 34.9529 76.1301L31.2002 79.0859C30.4439 78.328 29.4984 77.7343 28.3639 77.3048C27.2584 76.8753 26.0948 76.6606 24.8729 76.6606C23.6802 76.6606 22.6039 76.8627 21.6439 77.2669C20.6839 77.6711 19.8548 78.2396 19.1566 78.9722C18.4584 79.7048 17.9202 80.6017 17.542 81.6627C17.1639 82.6985 16.9748 83.8732 16.9748 85.1869C16.9748 86.3996 17.1493 87.5364 17.4984 88.5975C17.8475 89.6585 18.3711 90.5806 19.0693 91.3638C19.7675 92.1469 20.6257 92.7659 21.6439 93.2206C22.6911 93.6501 23.8984 93.8648 25.2657 93.8648C26.4875 93.8648 27.622 93.7259 28.6693 93.448C29.7166 93.1701 30.6184 92.7785 31.3748 92.2732V87.7638H25.1348V83.709H37.0039V94.1301C36.4802 94.6606 35.7966 95.1659 34.9529 95.6459C34.1093 96.1259 33.1784 96.5427 32.1602 96.8964C31.142 97.2501 30.0366 97.528 28.8439 97.7301C27.6511 97.9322 26.4439 98.0332 25.222 98.0332Z" fill="black"/>
<path d="M105.925 22.5C108.97 22.5 111.703 22.9557 114.09 23.9102L114.089 23.9111C116.489 24.7851 118.518 26.0731 120.133 27.7959L120.431 28.1104C121.896 29.7055 122.995 31.5941 123.737 33.7539C124.581 35.9767 124.996 38.379 124.996 40.9453C124.996 42.3204 124.714 43.7014 124.182 45.0811L124.183 45.082C123.763 46.2529 123.166 47.3802 122.403 48.4639L122.065 48.9258C121.132 50.1582 120.009 51.276 118.706 52.2812L118.696 52.2891C118.29 52.5966 117.866 52.8791 117.428 53.1436C117.912 53.3535 118.389 53.5953 118.861 53.8672C120.44 54.6824 121.851 55.7629 123.094 57.0957L123.342 57.3438C124.566 58.5936 125.553 60.0251 126.303 61.6309L126.451 61.957C127.165 63.5936 127.532 65.2825 127.532 67.0137C127.532 69.7764 127.083 72.3457 126.168 74.7051L126.169 74.7061C125.3 77.0429 123.926 79.0724 122.064 80.7812L122.053 80.791L122.042 80.8018C120.172 82.4489 117.842 83.7176 115.096 84.6367L115.095 84.6357C112.366 85.5694 109.178 86.0176 105.563 86.0176H78.7954V22.5H105.925ZM97.1011 71.3789H104.205C105.966 71.3789 107.142 70.9099 107.936 70.1484C108.708 69.35 109.226 68.0271 109.226 65.8965C109.226 63.9097 108.718 62.6325 107.929 61.8213C107.131 61.0009 105.959 60.5068 104.205 60.5068H97.1011V71.3789ZM97.1011 46.9863H102.937C104.095 46.9863 104.933 46.5987 105.592 45.8438C106.272 45.0052 106.69 43.7974 106.69 42.0625C106.69 40.4966 106.325 39.3551 105.708 38.5205L105.581 38.3574C104.909 37.5377 104.073 37.1377 102.937 37.1377H97.1011V46.9863Z" fill="white" stroke="black" stroke-width="3"/>
</svg>
