<svg width="192" height="108" viewBox="0 0 192 108" fill="none" xmlns="http://www.w3.org/2000/svg">
<path d="M152.449 1.5L187.2 54L152.449 106.5H46.5V1.5H152.449Z" fill="#C4D552" stroke="black" stroke-width="3" stroke-linejoin="round"/>
<path d="M0 0H48V108H0V0Z" fill="white"/>
<path d="M48 0V3H3V105H48V108H0V0H48Z" fill="black"/>
<path d="M20.378 9.9668H27.578L38.0944 34.5984H31.898L29.978 29.9752H17.7598L15.8398 34.5984H9.90527L20.378 9.9668ZM19.418 25.9584H28.3198L23.9562 14.7036H23.6944L19.418 25.9584Z" fill="black"/>
<path d="M25.4307 65.1503V45.8359L32.6089 52.0695L34.6325 50.3122L25.6789 42.5532C25.4588 42.3607 25.1971 42.208 24.9088 42.1037C24.6204 41.9995 24.3112 41.9458 23.9989 41.9458C23.6865 41.9458 23.3773 41.9995 23.089 42.1037C22.8006 42.208 22.5389 42.3607 22.3189 42.5532L13.3652 50.3122L15.3889 52.0695L22.5671 45.8359V65.1503H25.4307Z" fill="black"/>
<path d="M25.222 98.0332C22.7493 98.0332 20.6111 97.6669 18.8075 96.9343C17.0329 96.2017 15.5639 95.2417 14.4002 94.0543C13.2366 92.8417 12.3784 91.4648 11.8257 89.9238C11.2729 88.3827 10.9966 86.8038 10.9966 85.1869C10.9966 83.5196 11.2729 81.928 11.8257 80.4122C12.4075 78.8711 13.2657 77.5196 14.4002 76.3575C15.5348 75.1701 16.9602 74.2354 18.6766 73.5532C20.422 72.8459 22.4584 72.4922 24.7857 72.4922C27.0257 72.4922 28.9893 72.8332 30.6766 73.5153C32.3639 74.1722 33.7893 75.0438 34.9529 76.1301L31.2002 79.0859C30.4439 78.328 29.4984 77.7343 28.3639 77.3048C27.2584 76.8753 26.0948 76.6606 24.8729 76.6606C23.6802 76.6606 22.6039 76.8627 21.6439 77.2669C20.6839 77.6711 19.8548 78.2396 19.1566 78.9722C18.4584 79.7048 17.9202 80.6017 17.542 81.6627C17.1639 82.6985 16.9748 83.8732 16.9748 85.1869C16.9748 86.3996 17.1493 87.5364 17.4984 88.5975C17.8475 89.6585 18.3711 90.5806 19.0693 91.3638C19.7675 92.1469 20.6257 92.7659 21.6439 93.2206C22.6911 93.6501 23.8984 93.8648 25.2657 93.8648C26.4875 93.8648 27.622 93.7259 28.6693 93.448C29.7166 93.1701 30.6184 92.7785 31.3748 92.2732V87.7638H25.1348V83.709H37.0039V94.1301C36.4802 94.6606 35.7966 95.1659 34.9529 95.6459C34.1093 96.1259 33.1784 96.5427 32.1602 96.8964C31.142 97.2501 30.0366 97.528 28.8439 97.7301C27.6511 97.9322 26.4439 98.0332 25.222 98.0332Z" fill="black"/>
<path d="M106.505 22.5C111.137 22.5 115.246 23.3661 118.785 25.1533H118.784C122.279 26.83 125.284 29.0119 127.781 31.7041L128.793 32.7949L127.71 33.8154L118.358 42.6289L117.216 43.7051L116.192 42.5156C115.022 41.1559 113.569 40.1026 111.809 39.3574L111.791 39.3506L111.773 39.3428C109.992 38.5349 108.211 38.1406 106.418 38.1406C103.078 38.1407 100.391 39.4352 98.2471 42.1045L98.248 42.1055C96.1587 44.7773 95.0156 48.6486 95.0156 53.9111C95.0156 56.4477 95.3438 58.7223 95.9814 60.748L96.2344 61.4805C96.8459 63.145 97.6295 64.5735 98.5742 65.7812L98.7803 66.0273C99.8135 67.2321 100.991 68.169 102.313 68.8535C103.781 69.5248 105.318 69.8593 106.938 69.8594C108.746 69.8594 110.505 69.489 112.227 68.7383L112.234 68.7344L112.241 68.7314C114.002 67.9862 115.455 66.933 116.625 65.5732L117.653 64.3789L118.796 65.4648L128.062 74.2783L129.122 75.2861L128.14 76.3711C125.692 79.0765 122.704 81.265 119.197 82.9443L119.198 82.9453C115.666 84.6651 111.595 85.5 107.024 85.5C101.943 85.5 97.4431 84.6089 93.5664 82.7744L93.5586 82.7705C89.8063 80.9662 86.6598 78.586 84.1455 75.623L84.124 75.5977C81.693 72.5987 79.8733 69.1968 78.6641 65.4053L78.6611 65.3945L78.6582 65.3848C77.5185 61.6231 76.9483 57.7671 76.9482 53.8223C76.9482 49.9423 77.4881 46.1506 78.5674 42.4521L78.5693 42.4443L78.5713 42.4375C79.721 38.643 81.4831 35.2641 83.8623 32.3164L83.8682 32.3086L83.874 32.3018C86.3317 29.3331 89.4242 26.9774 93.125 25.2295L93.8506 24.8965C97.5117 23.2835 101.742 22.5 106.505 22.5Z" fill="white" stroke="black" stroke-width="3"/>
</svg>
