<svg width="192" height="108" viewBox="0 0 192 108" fill="none" xmlns="http://www.w3.org/2000/svg">
<path d="M152.449 1.5L187.2 54L152.449 106.5H46.5V1.5H152.449Z" fill="#FCF251" stroke="black" stroke-width="3" stroke-linejoin="round"/>
<path d="M0 0H48V108H0V0Z" fill="white"/>
<path d="M48 0V3H3V105H48V108H0V0H48Z" fill="black"/>
<path d="M20.378 9.9668H27.578L38.0944 34.5984H31.898L29.978 29.9752H17.7598L15.8398 34.5984H9.90527L20.378 9.9668ZM19.418 25.9584H28.3198L23.9562 14.7036H23.6944L19.418 25.9584Z" fill="black"/>
<path d="M25.4307 65.1503V45.8359L32.6089 52.0695L34.6325 50.3122L25.6789 42.5532C25.4588 42.3607 25.1971 42.208 24.9088 42.1037C24.6204 41.9995 24.3112 41.9458 23.9989 41.9458C23.6865 41.9458 23.3773 41.9995 23.089 42.1037C22.8006 42.208 22.5389 42.3607 22.3189 42.5532L13.3652 50.3122L15.3889 52.0695L22.5671 45.8359V65.1503H25.4307Z" fill="black"/>
<path d="M25.222 98.0332C22.7493 98.0332 20.6111 97.6669 18.8075 96.9343C17.0329 96.2017 15.5639 95.2417 14.4002 94.0543C13.2366 92.8417 12.3784 91.4648 11.8257 89.9238C11.2729 88.3827 10.9966 86.8038 10.9966 85.1869C10.9966 83.5196 11.2729 81.928 11.8257 80.4122C12.4075 78.8711 13.2657 77.5196 14.4002 76.3575C15.5348 75.1701 16.9602 74.2354 18.6766 73.5532C20.422 72.8459 22.4584 72.4922 24.7857 72.4922C27.0257 72.4922 28.9893 72.8332 30.6766 73.5153C32.3639 74.1722 33.7893 75.0438 34.9529 76.1301L31.2002 79.0859C30.4439 78.328 29.4984 77.7343 28.3639 77.3048C27.2584 76.8753 26.0948 76.6606 24.8729 76.6606C23.6802 76.6606 22.6039 76.8627 21.6439 77.2669C20.6839 77.6711 19.8548 78.2396 19.1566 78.9722C18.4584 79.7048 17.9202 80.6017 17.542 81.6627C17.1639 82.6985 16.9748 83.8732 16.9748 85.1869C16.9748 86.3996 17.1493 87.5364 17.4984 88.5975C17.8475 89.6585 18.3711 90.5806 19.0693 91.3638C19.7675 92.1469 20.6257 92.7659 21.6439 93.2206C22.6911 93.6501 23.8984 93.8648 25.2657 93.8648C26.4875 93.8648 27.622 93.7259 28.6693 93.448C29.7166 93.1701 30.6184 92.7785 31.3748 92.2732V87.7638H25.1348V83.709H37.0039V94.1301C36.4802 94.6606 35.7966 95.1659 34.9529 95.6459C34.1093 96.1259 33.1784 96.5427 32.1602 96.8964C31.142 97.2501 30.0366 97.528 28.8439 97.7301C27.6511 97.9322 26.4439 98.0332 25.222 98.0332Z" fill="black"/>
<path d="M99.7812 22.5C104.97 22.5 109.506 23.3568 113.341 25.1309C117.115 26.8768 120.26 29.2521 122.747 32.2637L123.203 32.8193C125.442 35.6215 127.091 38.8191 128.154 42.3975L128.358 43.0957C129.344 46.5969 129.835 50.2333 129.835 54C129.835 58.018 129.276 61.9159 128.156 65.6885L128.154 65.6953C127.021 69.4479 125.223 72.7942 122.759 75.7207L122.76 75.7217C120.331 78.678 117.216 81.0533 113.449 82.8604L113.439 82.8652C109.659 84.6438 105.148 85.5 99.96 85.5H73.8574V22.5H99.7812ZM92.0322 70.2227H99.0625C102.954 70.2227 105.845 68.8343 107.927 66.1055L107.932 66.0986L107.938 66.0918C110.12 63.3006 111.301 59.3584 111.301 54.0928C111.301 48.6261 110.113 44.6365 107.946 41.9199L107.942 41.9141L107.938 41.9082C105.793 39.1664 102.864 37.7773 98.9727 37.7773H92.0322V70.2227Z" fill="white" stroke="black" stroke-width="3"/>
</svg>
