<svg id="Illustration" xmlns="http://www.w3.org/2000/svg" viewBox="0 0 200 200"><defs><style>.cls-10,.cls-5,.cls-8,.cls-9{stroke-width:0}.cls-5{fill:#ba8d3c}.cls-8{fill:#e5b342}.cls-9{fill:#f6c243}.cls-10{fill:#ffdf9d}</style></defs><path class="cls-8" d="M122.31 119.05c.1-1.54 11.12-2.1 24.62-1.26 3.65.23 7.1.54 10.21.89a69.17 69.17 0 0 0-6.24-20.33c-3.97.06-8.76-.05-13.93-.37-13.5-.84-24.37-2.77-24.27-4.31.1-1.54 11.12-2.1 24.62-1.26 3.93.24 7.63.58 10.91.98a70.26 70.26 0 0 0-10.67-13.81c-2.73-.05-5.67-.17-8.76-.36-13.5-.84-24.37-2.77-24.27-4.31.1-1.54 11.12-2.1 24.62-1.26.62.04 1.24.08 1.85.13-11.82-9.23-26.69-14.74-42.85-14.74H67.41c-11.81 12.49-49 51.19-49 69.74 0 19.6 35.99 57.07 49 69.74h20.74c13.9 0 26.84-4.08 37.71-11.09-4.39.19-10.25.11-16.68-.29-13.5-.84-24.37-2.77-24.27-4.31.1-1.54 11.12-2.1 24.62-1.26 8.92.56 16.67 1.59 20.89 2.67a70.087 70.087 0 0 0 15.59-16.51c-4.44.22-10.51.15-17.2-.27-13.5-.84-24.37-2.77-24.27-4.31.1-1.54 11.12-2.1 24.62-1.26 7.77.48 14.66 1.33 19.09 2.25a69.024 69.024 0 0 0 7.54-18.36c-3.33-.02-7.08-.14-11.06-.39-13.5-.84-24.37-2.77-24.27-4.31.1-1.54 11.12-2.1 24.62-1.26 4.26.27 8.26.64 11.73 1.08.69-3.94 1.07-7.99 1.07-12.14 0-1.7-.08-3.38-.2-5.05-3.34-.01-7.1-.14-11.09-.39-13.5-.84-24.37-2.77-24.27-4.31Z"/><path class="cls-5" d="M146.93 117.8c-13.5-.84-24.52-.28-24.62 1.26-.1 1.54 10.77 3.46 24.27 4.31 3.99.25 7.75.37 11.09.39-.12-1.7-.29-3.39-.54-5.05-3.1-.36-6.55-.67-10.21-.89ZM104.52 163.18c-.1 1.54 10.77 3.46 24.27 4.31 6.68.42 12.75.49 17.2.27.79-1.17 1.53-2.36 2.24-3.58-4.44-.92-11.32-1.77-19.09-2.25-13.5-.84-24.52-.28-24.62 1.26ZM120.45 141.12c-.1 1.54 10.77 3.46 24.27 4.31 3.98.25 7.73.37 11.06.39.4-1.6.74-3.23 1.02-4.87-3.48-.44-7.47-.81-11.73-1.08-13.5-.84-24.52-.28-24.62 1.26ZM112.7 93.68c-.1 1.54 10.77 3.46 24.27 4.31 5.17.32 9.96.44 13.93.37-.82-1.69-1.72-3.34-2.67-4.96-3.28-.39-6.97-.73-10.91-.98-13.5-.84-24.52-.28-24.62 1.26ZM104.52 74.93c-.1 1.54 10.77 3.46 24.27 4.31 3.09.19 6.03.31 8.76.36-2.06-2.07-4.26-4-6.56-5.8-.61-.04-1.23-.09-1.85-.13-13.5-.84-24.52-.28-24.62 1.26ZM84.9 182.85c-.1 1.54 10.77 3.46 24.27 4.31 6.43.4 12.29.48 16.68.29 1.56-1.01 3.08-2.06 4.55-3.19-4.22-1.08-11.96-2.11-20.89-2.67-13.5-.84-24.52-.28-24.62 1.26Z"/><path d="M25.26 15.83v-.04c0-.36-.28-.58-.61-.61-1.31-.13-2.62-.27-3.87-.69a6.917 6.917 0 0 1-2.92-1.88c-1.62-1.74-2.42-4.11-2.98-6.39-.39-1.6-.65-3.22-.76-4.87-.02-.33-.26-.61-.61-.61h-.11c-.31 0-.63.28-.61.61.18 2.72-.06 5.56-1.18 8.08-.95 2.13-2.49 4-4.54 5.14-.56.31-1.11.54-1.73.72-.79.23-1.62.32-2.42.56-.73.21-.45 1.32.25 1.2.05.03.1.06.15.08 4.61 1.68 7.66 5.99 8.97 10.58.4 1.41.66 2.85.8 4.3.03.33.26.61.61.61.27 0 .55-.21.61-.48.09-.1.15-.23.17-.37.05-.36.06-.7.11-1.03.06-.37.14-.73.22-1.09.36-1.49.92-2.93 1.65-4.28.63-1.17 1.38-2.3 2.17-3.38a18.068 18.068 0 0 1 2.43-2.7c1.19-1.08 2.53-1.98 3.94-2.8.27-.16.33-.42.27-.65Zm-10.92 7.32v-.05.04Z" style="fill:#ffa1ae;stroke-width:0"/><path d="M198.41 174.3v-.06c0-.49-.38-.79-.83-.83-1.88-.18-3.76-.39-5.56-1a9.835 9.835 0 0 1-4.18-2.72c-2.29-2.49-3.43-5.87-4.22-9.12-.55-2.26-.91-4.56-1.07-6.88-.03-.45-.36-.83-.83-.83H181.55c-.43 0-.86.38-.83.83.26 3.89-.1 7.95-1.7 11.55-1.36 3.05-3.58 5.71-6.51 7.32-.79.44-1.56.76-2.44 1.01-1.12.32-2.29.46-3.42.79-.99.29-.61 1.8.35 1.62.07.04.14.08.22.11 6.56 2.39 10.92 8.52 12.78 15.05.57 2.01.95 4.07 1.14 6.16.04.45.35.83.83.83.35 0 .73-.27.81-.63.17-.2.25-.47.28-.76.08-1 .24-1.96.49-2.96.53-2.1 1.33-4.15 2.36-6.05.9-1.66 1.96-3.26 3.08-4.77.28-.37.42-.56.71-.92.28-.34.56-.68.85-1 .59-.66 1.21-1.28 1.86-1.87 1.7-1.54 3.6-2.81 5.61-3.98.37-.21.46-.57.37-.89Zm-16.36-13.06s-.05-.02-.08-.02l.03-.16c.02.06.03.13.05.19Zm.8 23.43Zm-.41 1.98c.06-.03.13-.06.19-.1-.04.1-.08.19-.11.29-.02-.06-.05-.13-.07-.19Z" style="fill:#603b5d;stroke-width:0"/><circle class="cls-9" cx="70.18" cy="128.8" r="69.74"/><circle class="cls-10" cx="40.49" cy="96.99" r="1.76"/><circle class="cls-10" cx="40.67" cy="102.1" r="1.76"/><circle class="cls-10" cx="45.07" cy="99.6" r="1.76"/><circle class="cls-10" cx="69.21" cy="78.98" r="1.76"/><circle class="cls-10" cx="65.9" cy="82.88" r="1.76"/><circle class="cls-10" cx="70.84" cy="83.99" r="1.76"/><circle class="cls-10" cx="99.13" cy="73.49" r="1.76"/><circle class="cls-10" cx="98.37" cy="78.54" r="1.76"/><circle class="cls-10" cx="103.15" cy="76.9" r="1.76"/><circle class="cls-10" cx="125.04" cy="100.66" r="1.76"/><circle class="cls-10" cx="124.27" cy="105.72" r="1.76"/><circle class="cls-10" cx="129.06" cy="104.07" r="1.76"/><circle class="cls-10" cx="124.38" cy="135.13" r="1.76"/><circle class="cls-10" cx="128.9" cy="137.54" r="1.76"/><circle class="cls-10" cx="128.94" cy="132.48" r="1.76"/><circle class="cls-10" cx="79.01" cy="185.39" r="1.76"/><circle class="cls-10" cx="83.52" cy="187.79" r="1.76"/><circle class="cls-10" cx="83.56" cy="182.73" r="1.76"/><circle class="cls-10" cx="26.92" cy="168.59" r="1.76"/><circle class="cls-10" cx="31.43" cy="170.99" r="1.76"/><circle class="cls-10" cx="31.47" cy="165.93" r="1.76"/><circle class="cls-10" cx="13.04" cy="101.88" r="1.76"/><circle class="cls-10" cx="17.55" cy="104.28" r="1.76"/><circle class="cls-10" cx="17.59" cy="99.22" r="1.76"/><circle class="cls-10" cx="41.72" cy="72.12" r="1.76"/><circle class="cls-10" cx="46.23" cy="74.52" r="1.76"/><circle class="cls-10" cx="46.27" cy="69.46" r="1.76"/><circle class="cls-10" cx="29.7" cy="133.02" r="1.76"/><circle class="cls-10" cx="33.38" cy="136.58" r="1.76"/><circle class="cls-10" cx="34.81" cy="131.72" r="1.76"/><circle class="cls-10" cx="62.84" cy="167.72" r="1.76"/><circle class="cls-10" cx="61.75" cy="162.73" r="1.76"/><circle class="cls-10" cx="57.87" cy="165.97" r="1.76"/><circle class="cls-10" cx="97.32" cy="151.45" r="1.76"/><circle class="cls-10" cx="101.77" cy="148.93" r="1.76"/><circle class="cls-10" cx="97.53" cy="146.18" r="1.76"/><circle class="cls-10" cx="103.92" cy="112.31" r="1.76"/><circle class="cls-10" cx="99.15" cy="110.47" r="1.76"/><circle class="cls-10" cx="99.72" cy="115.5" r="1.76"/><path d="M94.5 125.09c-.16-.44-2.41-4.72-6.61-10.09a.857.857 0 0 1-.19-.46c-.45-5.57-1.2-9.27-1.2-9.27-.12-.64-.66-1.11-1.29-1.19s-4.4-.57-4.4-.57h-.12c-.51 0-.93.41-.94.93v1.54s-.04.06-.07.06c-.01 0-.03 0-.04-.01-2.62-2.42-5.57-4.77-8.85-6.85-.62-.43-1.37-.68-2.18-.68s-1.56.23-2.19.65c-15.29 9.35-23.79 24.69-24.12 25.53-.09.2-.15.42-.15.65 0 .71.47 1.31 1.12 1.48l4.38.89c.58.17 1.02.68 1.08 1.3.03.78.72 18.22 1.72 22.75.17.65.75 1.14 1.45 1.14h.03c2.56-.04 4.9-.07 7.43-.08h.21c.27 0 .49-.22.49-.49v-.01c-.09-1.52-.28-5.01-.43-8.67 0-.09 0-.21-.01-.3a.947.947 0 0 0-.44-.76c-1.31-.8-2.2-2.23-2.27-3.87-.18-6.12-.24-13.18.14-18.71.03-.46.41-.83.87-.83.49 0 .89.39.89.88v.07c-.25 3.68-.3 8.04-.26 12.34a1.041 1.041 0 1 0 2.08-.02c-.04-4.33.01-8.71.26-12.41.03-.46.41-.83.87-.83.49 0 .89.39.89.88v.07c-.24 3.66-.3 8-.26 12.27 0 .58.48 1.04 1.05 1.04.57 0 1.03-.48 1.03-1.05-.04-4.31.01-8.67.27-12.35.03-.46.41-.83.87-.83.49 0 .89.39.89.88v.07c-.36 5.37-.31 12.18-.14 18.15v.21a4.791 4.791 0 0 1-2.08 3.92c-.22.15-.37.4-.4.69 0 0-.12.92.25 5.36.17 1.94.3 3.28.36 3.89.02.23.22.41.45.41h.41c.84 0 1.72 0 2.62.02h.34c1.14 0 2.23.02 3.28.03l2.49.04c.24 0 .43-.18.47-.41.62-5.32.78-8.31.78-8.31 0-.27-.2-.47-.47-.52l-3.02-.44c-.48-.09-.76-.39-.86-.75-.06-.22-.03-.47-.03-.47 1.37-17.73 7.21-23.66 7.21-23.66.17-.17.28-.24.28-.24.15-.11.34-.18.55-.17.39 0 .73.25.86.6 0 0 .05.12.07.43.46 5.58.13 15.07-.24 22.47-.31 6.28-.67 11.21-.67 11.21 0 .2.16.37.36.37 1.65.04 3.27.09 4.98.15h.03c.7 0 1.29-.47 1.47-1.12 1.08-4.51 2.05-21.94 2.09-22.72.07-.62.52-1.12 1.11-1.28l4.39-.82a1.526 1.526 0 0 0 1.01-2.12Z" style="fill:#fff;stroke-width:0"/><path class="cls-8" d="M181.31 28.83c.04-.71 5.17-.98 11.45-.58 1.7.11 3.3.25 4.75.42-.49-3.34-1.48-6.52-2.9-9.46-1.84.03-4.08-.02-6.48-.17-6.28-.39-11.33-1.29-11.29-2 .04-.71 5.17-.98 11.45-.58 1.83.11 3.55.27 5.07.45-1.38-2.35-3.05-4.5-4.96-6.42-1.27-.02-2.64-.08-4.07-.17-6.28-.39-11.33-1.29-11.29-2 .04-.71 5.17-.98 11.45-.58l.86.06A32.281 32.281 0 0 0 165.42.95h-9.64c-5.49 5.81-22.79 23.81-22.79 32.43 0 9.11 16.74 26.54 22.79 32.43h9.64c6.46 0 12.48-1.9 17.54-5.16-2.04.09-4.77.05-7.76-.13-6.28-.39-11.33-1.29-11.29-2 .04-.71 5.17-.98 11.45-.58 4.15.26 7.75.74 9.71 1.24 2.81-2.15 5.27-4.74 7.25-7.68-2.07.1-4.89.07-8-.12-6.28-.39-11.33-1.29-11.29-2 .04-.71 5.17-.98 11.45-.58 3.61.23 6.82.62 8.88 1.05 1.55-2.63 2.75-5.5 3.51-8.54-1.55 0-3.29-.06-5.14-.18-6.28-.39-11.33-1.29-11.29-2 .04-.71 5.17-.98 11.45-.58 1.98.12 3.84.3 5.46.5.32-1.83.5-3.72.5-5.64 0-.79-.04-1.57-.09-2.35-1.55 0-3.3-.06-5.16-.18-6.28-.39-11.33-1.29-11.29-2Z"/><path class="cls-5" d="M192.76 28.25c-6.28-.39-11.4-.13-11.45.58-.04.71 5.01 1.61 11.29 2 1.86.12 3.6.17 5.16.18-.06-.79-.14-1.58-.25-2.35-1.44-.17-3.05-.31-4.75-.42ZM173.04 49.35c-.04.71 5.01 1.61 11.29 2 3.11.19 5.93.23 8 .12.37-.54.71-1.1 1.04-1.66-2.06-.43-5.27-.82-8.88-1.05-6.28-.39-11.4-.13-11.45.58ZM180.44 39.09c-.04.71 5.01 1.61 11.29 2 1.85.12 3.59.17 5.14.18.19-.75.34-1.5.48-2.27-1.62-.2-3.48-.38-5.46-.5-6.28-.39-11.4-.13-11.45.58ZM176.84 17.03c-.04.71 5.01 1.61 11.29 2 2.4.15 4.63.2 6.48.17-.38-.79-.8-1.56-1.24-2.31-1.53-.18-3.24-.34-5.07-.45-6.28-.39-11.4-.13-11.45.58ZM173.04 8.31c-.04.71 5.01 1.61 11.29 2 1.44.09 2.81.14 4.07.17-.96-.96-1.98-1.86-3.05-2.7l-.86-.06c-6.28-.39-11.4-.13-11.45.58ZM163.91 58.5c-.04.71 5.01 1.61 11.29 2 2.99.19 5.71.22 7.76.13.73-.47 1.43-.96 2.12-1.48-1.96-.5-5.56-.98-9.71-1.24-6.28-.39-11.4-.13-11.45.58Z"/><path d="M197.85 33.36c0 17.91-14.52 32.43-32.43 32.43h-9.64c-6.05-5.89-22.79-23.32-22.79-32.43 0-8.63 17.3-26.62 22.79-32.43h9.64c17.91 0 32.43 14.52 32.43 32.43Z" style="stroke-width:0;fill:none"/><circle class="cls-9" cx="157.06" cy="33.36" r="32.43"/><circle class="cls-10" cx="143.25" cy="18.57" r=".82"/><circle class="cls-10" cx="143.34" cy="20.95" r=".82"/><circle class="cls-10" cx="145.38" cy="19.78" r=".82"/><circle class="cls-10" cx="156.61" cy="10.19" r=".82"/><circle class="cls-10" cx="155.07" cy="12" r=".82"/><circle class="cls-10" cx="157.37" cy="12.52" r=".82"/><circle class="cls-10" cx="170.17" cy="9.99" r=".82"/><circle class="cls-10" cx="172.4" cy="9.22" r=".82"/><circle class="cls-10" cx="182.58" cy="20.28" r=".82"/><circle class="cls-10" cx="182.22" cy="22.63" r=".82"/><circle class="cls-10" cx="184.45" cy="21.86" r=".82"/><circle class="cls-10" cx="182.27" cy="36.31" r=".82"/><circle class="cls-10" cx="184.37" cy="37.43" r=".82"/><circle class="cls-10" cx="184.39" cy="35.07" r=".82"/><circle class="cls-10" cx="161.17" cy="59.68" r=".82"/><circle class="cls-10" cx="163.27" cy="60.8" r=".82"/><circle class="cls-10" cx="163.28" cy="58.45" r=".82"/><circle class="cls-10" cx="136.94" cy="51.87" r=".82"/><circle class="cls-10" cx="139.04" cy="52.99" r=".82"/><circle class="cls-10" cx="139.06" cy="50.63" r=".82"/><circle class="cls-10" cx="130.49" cy="20.84" r=".82"/><circle class="cls-10" cx="132.59" cy="21.96" r=".82"/><circle class="cls-10" cx="132.61" cy="19.61" r=".82"/><circle class="cls-10" cx="138.24" cy="35.32" r=".82"/><circle class="cls-10" cx="139.95" cy="36.98" r=".82"/><circle class="cls-10" cx="140.61" cy="34.72" r=".82"/><circle class="cls-10" cx="153.65" cy="51.46" r=".82"/><circle class="cls-10" cx="153.14" cy="49.14" r=".82"/><circle class="cls-10" cx="151.34" cy="50.65" r=".82"/><circle class="cls-10" cx="169.69" cy="43.9" r=".82"/><circle class="cls-10" cx="171.76" cy="42.73" r=".82"/><circle class="cls-10" cx="169.78" cy="41.45" r=".82"/><circle class="cls-10" cx="172.75" cy="25.69" r=".82"/><circle class="cls-10" cx="170.54" cy="24.84" r=".82"/><circle class="cls-10" cx="170.8" cy="27.18" r=".82"/><path d="M179.86 33.81c.31.01.89-1.95.37-5.58-.24-1.81-.91-3.99-2.11-6.33a22.357 22.357 0 0 0-5.66-6.95c-2.6-2.12-5.97-3.97-9.92-4.78-3.92-.79-8.4-.76-12.73.79-2.17.72-4.28 1.82-6.22 3.23-1 .67-1.88 1.51-2.79 2.33-.84.9-1.7 1.79-2.42 2.81-3.04 3.98-4.78 9.16-4.82 14.48.04 5.32 1.78 10.5 4.82 14.48.72 1.03 1.59 1.92 2.42 2.81.91.82 1.8 1.65 2.79 2.33 1.94 1.41 4.04 2.51 6.22 3.23 4.33 1.55 8.8 1.58 12.73.79 3.95-.81 7.32-2.66 9.92-4.78 2.61-2.14 4.45-4.62 5.66-6.95 1.2-2.34 1.87-4.52 2.11-6.33.52-3.62-.06-5.59-.37-5.58-.45 0-.64 1.93-1.73 5.05-1.08 3.06-3.39 7.43-8.06 10.68-2.31 1.59-5.16 2.9-8.38 3.37-3.2.45-6.78.27-10.13-1.08-1.69-.62-3.31-1.54-4.8-2.68-.77-.54-1.44-1.22-2.14-1.87-.63-.72-1.3-1.42-1.84-2.23-2.32-3.14-3.6-7.12-3.65-11.24.05-4.12 1.33-8.11 3.65-11.24.54-.81 1.21-1.51 1.84-2.23.71-.64 1.37-1.33 2.14-1.87 1.49-1.15 3.11-2.06 4.8-2.68 3.35-1.35 6.93-1.53 10.13-1.08 3.22.47 6.07 1.79 8.38 3.37 4.67 3.25 6.98 7.62 8.06 10.68 1.09 3.12 1.28 5.06 1.73 5.05Z" style="fill:#d49b24;stroke-width:0"/><path d="M121.85 128.8c.29 0 .51-1.13.67-3.35.03-.55.07-1.17.11-1.86 0-.68-.07-1.43-.12-2.24-.11-1.62-.22-3.51-.7-5.57-.68-4.19-2.37-9.2-5.26-14.57-2.91-5.35-7.25-10.99-13.32-15.84-.76-.6-1.54-1.21-2.32-1.82-.82-.57-1.68-1.09-2.53-1.64-.87-.53-1.7-1.15-2.64-1.61-.93-.47-1.87-.95-2.82-1.43l-1.44-.72c-.5-.2-1-.39-1.51-.59-1.02-.39-2.04-.79-3.08-1.19-1.05-.37-2.14-.62-3.23-.93-1.1-.27-2.18-.67-3.32-.81-2.27-.37-4.58-.87-6.96-.93-1.19-.06-2.39-.19-3.6-.19-1.21.04-2.43.09-3.66.13-.61.03-1.23.03-1.85.1l-1.85.26c-1.24.19-2.49.32-3.74.56-2.46.62-5 1.11-7.43 2.08-2.5.78-4.86 1.97-7.28 3.12-1.18.63-2.32 1.35-3.48 2.03-.57.36-1.18.67-1.73 1.07l-1.65 1.21c-2.27 1.54-4.27 3.46-6.35 5.33-1.9 2.05-3.87 4.08-5.5 6.42l-1.29 1.71-1.14 1.83-1.13 1.84c-.39.61-.75 1.24-1.05 1.9-.63 1.31-1.27 2.62-1.91 3.93-.51 1.37-1.02 2.75-1.53 4.13-1.84 5.6-2.83 11.57-2.9 17.62.07 6.05 1.06 12.01 2.9 17.62.51 1.38 1.02 2.76 1.53 4.13.64 1.32 1.27 2.63 1.91 3.93.3.66.66 1.29 1.05 1.9l1.13 1.84 1.14 1.83 1.29 1.71c1.64 2.34 3.61 4.37 5.5 6.42 2.08 1.87 4.08 3.78 6.35 5.33l1.65 1.21c.55.4 1.15.72 1.73 1.07 1.17.68 2.3 1.41 3.48 2.03 2.42 1.14 4.78 2.34 7.28 3.12 2.43.97 4.97 1.46 7.43 2.08 1.24.24 2.5.38 3.74.56l1.85.26c.62.07 1.24.06 1.85.1 1.23.04 2.45.09 3.66.13 1.21 0 2.41-.13 3.6-.19 2.39-.06 4.69-.56 6.96-.93 1.14-.14 2.23-.54 3.32-.81 1.09-.32 2.18-.57 3.23-.93 1.03-.4 2.06-.8 3.08-1.19.51-.2 1.01-.39 1.51-.59l1.44-.72c.95-.48 1.89-.96 2.82-1.43.94-.45 1.77-1.08 2.64-1.61.85-.55 1.72-1.08 2.53-1.64.78-.61 1.56-1.22 2.32-1.82 6.07-4.85 10.41-10.5 13.32-15.84 2.88-5.37 4.58-10.38 5.26-14.57.48-2.07.59-3.95.7-5.57.05-.81.12-1.55.12-2.24-.04-.68-.08-1.3-.11-1.86-.16-2.21-.39-3.35-.67-3.35-.29 0-.63 1.13-1.01 3.24-.09.53-.18 1.11-.29 1.76-.13.64-.33 1.34-.5 2.09-.36 1.51-.7 3.25-1.39 5.13-1.1 3.82-3.12 8.29-6.12 12.97a50.375 50.375 0 0 1-12.89 13.53c-5.62 4-12.6 7.36-20.57 8.63-2 .24-4.01.63-6.1.6-1.04.02-2.08.11-3.14.08l-3.18-.21c-.53-.04-1.07-.04-1.6-.12l-1.6-.27c-1.06-.19-2.15-.33-3.22-.56-2.11-.61-4.29-1.05-6.36-1.95-2.14-.7-4.14-1.79-6.2-2.8-1-.56-1.96-1.21-2.95-1.8-.49-.32-1.01-.58-1.47-.94l-1.39-1.07c-1.93-1.34-3.61-3.03-5.38-4.63-1.59-1.79-3.27-3.53-4.63-5.55l-1.09-1.47-.95-1.57-.95-1.58c-.33-.52-.64-1.06-.88-1.62-.53-1.11-1.07-2.23-1.6-3.36-.42-1.17-.85-2.34-1.28-3.52a51.402 51.402 0 0 1-2.43-14.99c.07-5.16.9-10.22 2.43-14.99.43-1.18.85-2.35 1.28-3.52.54-1.12 1.07-2.24 1.6-3.36.24-.57.55-1.11.88-1.62l.95-1.58.95-1.57 1.09-1.47c1.37-2.02 3.05-3.76 4.63-5.55 1.77-1.61 3.44-3.29 5.38-4.63l1.39-1.07c.46-.36.98-.63 1.47-.94.99-.6 1.95-1.25 2.95-1.8 2.06-1 4.06-2.1 6.2-2.8 2.07-.9 4.25-1.34 6.36-1.95 1.07-.24 2.15-.37 3.22-.56l1.6-.27c.53-.08 1.07-.08 1.6-.12l3.18-.21c1.05-.03 2.1.06 3.14.08 2.09-.03 4.1.36 6.1.6 7.97 1.27 14.95 4.63 20.57 8.63a50.52 50.52 0 0 1 12.89 13.53c3 4.69 5.01 9.15 6.12 12.97.69 1.88 1.03 3.62 1.39 5.13.17.75.37 1.45.5 2.09.11.65.2 1.24.29 1.76.38 2.11.72 3.24 1.01 3.24Z" style="fill:#cc9e40;stroke-width:0"/></svg>