<svg id="Illustration" xmlns="http://www.w3.org/2000/svg" viewBox="0 0 200 200"><defs><style>.cls-5{fill:#fff}.cls-6{fill:#ffd066}.cls-8{fill:#b4cacc}.cls-10{fill:#c64528}</style></defs><g id="Layer_4"><path class="cls-10" d="M7.67 105.61c-1.96 2.25-3.87 4.53-5.73 6.86-.36.46-.62.89-.62 1.49 0 .52.23 1.14.62 1.49.39.35.93.64 1.49.62.53-.02 1.16-.19 1.49-.62 1.86-2.32 3.77-4.61 5.73-6.86.37-.43.62-.91.62-1.49 0-.52-.23-1.14-.62-1.49-.8-.73-2.21-.89-2.99 0Z"/><path class="cls-10" d="M1.4 114.53a58.176 58.176 0 0 0 6.11 16.27c1.33 2.37 4.98.24 3.65-2.14-2.67-4.77-4.55-9.91-5.69-15.26-.24-1.12-1.55-1.76-2.6-1.47-1.16.32-1.72 1.48-1.47 2.6Z"/><path class="cls-10" d="M9.33 131.85c3-.26 6.01-.42 8.99-.8.58-.08 1.07-.19 1.49-.62.37-.37.64-.97.62-1.49-.05-1.02-.94-2.27-2.12-2.12-2.98.39-5.99.55-8.99.8-1.1.09-2.17.91-2.12 2.12.05 1.07.93 2.21 2.12 2.12Z"/><path class="cls-10" d="M4.28 114.64c1.65 4.3 3.32 8.59 5 12.89.31.8.86 1.41 1.76 1.52.8.1 1.71-.26 2.11-1.01 1.45-2.76-.3-5.69-1.24-8.32-.47-1.33-.92-2.66-1.33-4.01-.21-.68-.41-1.35-.6-2.03-.03-.13-.19-1.02-.17-.51v-.37c.01.45-.2.82-.65 1.1l-1.07.29.14-.02-1.83-1.04c2.25 4.29 4.21 8.71 5.88 13.26.39 1.07 1.43 1.8 2.6 1.47 1.03-.28 1.87-1.52 1.47-2.6a118.53 118.53 0 0 0-6.31-14.27c-.3-.59-1.14-1.13-1.83-1.04-4.35.57-2.1 5.79-1.27 8.37.48 1.47 1 2.93 1.54 4.38.26.7.57 1.39.79 2.1.09.29.19.68.2.75 0 .04.01.44.02.3 0-.16-.15.32-.02.07l3.87.51c-1.67-4.29-3.33-8.59-5-12.89-.41-1.07-1.43-1.8-2.6-1.47-1.02.28-1.89 1.53-1.47 2.6Z"/></g><g id="Layer_7"><path d="M82.3 187.4c2.01-2.9 1.29-6.68.3-9.85-1.2-3.83-3.08-7.4-4.21-11.25a17.19 17.19 0 0 1-.66-5.84c.13-2.35.36-4.69-.29-6.99-.54-1.91-1.83-3.36-2.95-4.94-.42-.59-.81-1.19-.95-1.88-.17-.86 0-1.75.17-2.6.43-2.34.67-4.53-.32-6.78-.72-1.64-1.81-3.07-2.44-4.73 0-.03-.01-.06-.02-.05.03-.26.1-.48.19-.72.21-.55.55-1.05.82-1.56.68-1.26 1.15-2.63.87-4.07-.28-1.43-1.09-2.68-1.51-4.06-.38-1.27-.5-2.61-.48-3.94.02-1.04-1.13-1.83-2.09-1.75-1.13.1-1.73 1.04-1.75 2.09-.01.81-1.44.91-1.33 1.7-2.22.45-4.51 1.83-7.52 1.99-3.3.17-10.18 3.99-13.75 6.1-.06-.42-.11-.84-.16-1.26-.12-1-1.04-1.89-2.09-1.75-1.01.14-1.87 1.02-1.75 2.09.42 3.57.94 7.13 1.56 10.67 1.9 12.14 5.29 24.06 9.77 35.5 1.29 3.29 2.67 6.55 4.19 9.74 1 2.08 2.03 4.17 3.35 6.07 1.69 2.45 4.29 5.17 7.4 5.6 2.06.28 3.82-.68 5.59-1.58 1.83-.93 3.65-1.86 5.47-2.79 1.38-.71 2.85-1.33 3.95-2.43.12-.1.24-.2.34-.34.08-.1.15-.21.23-.31l.02-.02c.01-.01.02-.03.03-.05h.01Z" style="fill:#f6c243"/><path d="M82.89 181.08c-.15-.15-.35-.35-.62-.64-.23-.21-.45-.44-.68-.65-1.47 1.62-2.95 3.22-4.44 4.82-3.02 3.25-8 4-11.55 1.03-3.27-2.73-4.05-8.31-1.03-11.55 1.76-1.88 3.49-3.78 5.22-5.69l-3.57-3.45c-3.2-3.09-4.04-7.95-1.03-11.55 2.7-3.22 8.36-4.1 11.55-1.03.15.15.3.29.45.44-.62-1.6-1.74-2.88-2.73-4.29-.42-.59-.81-1.19-.95-1.88-.17-.86 0-1.75.17-2.6.19-1.03.34-2.03.37-3.03-2.18-1.83-3.24-4.93-2.79-7.75-.11-.24-.22-.48-.31-.73 0-.03-.01-.06-.02-.05.03-.26.1-.48.19-.72.21-.55.55-1.05.82-1.56.68-1.26 1.15-2.63.87-4.07-.28-1.43-1.09-2.68-1.51-4.06-.38-1.27-.5-2.61-.48-3.94.02-1.04-1.13-1.83-2.09-1.75-1.13.1-1.73 1.04-1.75 2.09-.01.81-1.44.91-1.33 1.7-1.77.36-3.6 1.31-5.8 1.76-.38 1.69-1.38 3.32-3.2 4.62-1.19.85-2.33 1.97-3.44 3.2.91.9 1.83 1.8 2.75 2.7 3.17 3.11 4.06 7.92 1.03 11.55-2.68 3.2-8.38 4.13-11.55 1.03-.9-.89-1.8-1.77-2.7-2.65l-.05.06c1.01 5.41 2.32 10.76 3.87 16.05 5.73.64 10.7 7.62 5.84 13.36-.3.36-.62.72-.93 1.08.08.2.15.39.22.59 1.29 3.29 2.67 6.55 4.19 9.74 1 2.08 2.03 4.17 3.35 6.07 1.69 2.45 4.29 5.17 7.4 5.6 2.06.28 3.82-.68 5.59-1.58 1.83-.93 3.65-1.86 5.47-2.79 1.38-.71 2.85-1.33 3.95-2.43.12-.1.24-.2.34-.34.08-.1.15-.21.23-.31l.02-.02c.01-.01.02-.03.03-.05 1.11-1.61 1.39-3.49 1.25-5.4a8.07 8.07 0 0 1-.65-.93h.01Z" style="fill:none"/><path class="cls-6" d="M45.46 145.03c3.16 3.11 8.87 2.18 11.55-1.03 3.03-3.63 2.14-8.43-1.03-11.55-.91-.9-1.83-1.8-2.75-2.7 1.1-1.23 2.24-2.35 3.44-3.2 1.82-1.3 2.82-2.93 3.2-4.62-.55.11-1.12.2-1.72.24-3.3.17-10.18 3.99-13.75 6.1-.06-.42-.11-.84-.16-1.26-.12-1-1.04-1.89-2.09-1.75-1.01.14-1.87 1.02-1.75 2.09.42 3.57.94 7.13 1.56 10.67.23 1.47.48 2.95.76 4.41l.05-.06c.9.89 1.8 1.77 2.7 2.65ZM65.21 153.41c-3.01 3.6-2.17 8.46 1.03 11.55l3.57 3.45c-1.73 1.91-3.47 3.81-5.22 5.69-3.02 3.24-2.24 8.81 1.03 11.55 3.55 2.97 8.52 2.22 11.55-1.03 1.49-1.6 2.97-3.21 4.44-4.82.23.21.45.44.68.65.26.28.46.49.62.64.2.34.42.64.65.93-.12-1.52-.51-3.05-.95-4.46-1.2-3.83-3.08-7.4-4.21-11.25a17.19 17.19 0 0 1-.66-5.84c.13-2.35.36-4.69-.29-6.99-.06-.23-.14-.44-.22-.66-.15-.15-.3-.29-.45-.44-3.19-3.08-8.85-2.2-11.55 1.03ZM74.07 141.01c.03-1.26-.12-2.5-.68-3.75-.62-1.39-1.49-2.64-2.12-4-.44 2.82.62 5.92 2.79 7.75ZM46.58 158.48c1.43 4.88 3.07 9.7 4.91 14.44.3-.36.62-.72.93-1.08 4.86-5.74-.11-12.72-5.84-13.36Z"/></g><g id="Layer_8"><path d="M159.34 95.57c-1.02-8.25-2.8-16.36-5.39-24.26-5.31-16.2-13.23-31.33-23.65-44.84-5.69-7.38-12.06-14.4-19.66-19.87-.93-.67-2.35-.16-2.89.76-.62 1.07-.17 2.22.76 2.89.28.2.55.42.83.63-.44 4.68-1.28 14.81-.86 19.55.56 6.27 7.29 31.3 9.51 37.41 2.21 6.11 13.32 26.7 17.27 31.46 3.94 4.75 14.27 16.58 16.67 19.38 1.24 1.45 2.87 2.4 4.15 2.98 0 .26-.01.52-.02.77-.1 2.72 4.14 2.72 4.23 0 .31-8.97.16-17.95-.93-26.86Z" style="fill:#ff8000"/><path d="M159.08 123.88c.15-.32.19-.64.17-.95v-.09s-.01-.08-.02-.12c-.07-.44-.27-.86-.65-1.13-6.27-4.51-11.66-10.18-16.51-16.15-5.2-6.39-9.84-13.24-13.91-20.4-4.01-7.07-7.33-14.69-10.1-22.42-2.77-7.74-4.84-15.64-6.04-23.76-1.47-9.91-1.7-19.95-1.36-29.96 0-.17-.03-.33-.08-.48-.17-.74-.81-1.37-1.55-1.51-1.07-.19-2 .53-2.24 1.55-3.08 12.81-9.53 24.6-17.77 34.81-8.86 10.97-19.78 20.18-31.34 28.18-6.74 4.66-13.76 8.91-20.95 12.85-.91.5-1.01 1.91-.46 2.69.58.82 1.51.93 2.35.62l14.71 32.87c-.14.05-.28.09-.42.14-2.35.78-1 4.4 1.35 3.61 13.73-4.57 27.8-8.14 42.22-9.66 13.3-1.4 26.76-1.05 39.77 2.22 7.08 1.78 13.91 4.46 20.26 8.03.42.24.89.24 1.34.1.01 0 .03 0 .04-.01.06-.02.1-.03.16-.06.28-.1.55-.28.77-.54.02-.02.03-.05.05-.08.03-.04.06-.09.09-.13s.06-.08.08-.12c.01-.03.03-.05.05-.08Z" style="fill:#f2a6b0"/><path d="M55.6 121.81c-.01-.34-.09-.69-.24-1.02L39.85 85.21c-.04-.11-.09-.23-.15-.34l-.04-.08c-.18-.42-.55-.71-.97-.87-.44-.22-.94-.3-1.41-.11s-.08.03-.12.05c-.04.01-.08.03-.12.05-5.33 2.19-10.61 4.51-15.91 6.78-1.27.54-2.54 1.09-3.81 1.62-.1.04-.59.25-.04.02-.1.05-.21.09-.32.14-.21.09-.43.18-.64.27-.66.28-1.31.54-1.97.82-3.77 1.61-7.75 4.04-8.47 8.44-.42 2.52.16 5 1.06 7.35.9 2.35 2.03 4.83 3.05 7.23l3.14 7.35c.84 1.96 1.63 3.96 2.7 5.82 2.01 3.47 5.29 6.65 9.62 6.21 2.28-.24 4.25-1.26 6.3-2.21.5-.24 1-.46 1.5-.67.32-.14.64-.28.95-.41.08-.03.37-.16 0 0 .24-.1.47-.19.71-.3 6.56-2.73 13.36-5.04 19.76-8.16.86-.42 1.19-1.53.95-2.42Z" style="fill:#f75e28"/></g><g id="Speech_bubble"><path d="M199.01 43.23c-.05-4.46-.97-8.91-2.33-13.17-1.82-5.67-4.44-11.19-8.47-15.63-3.32-3.65-7.68-6.45-12.47-7.6-2.83-.93-5.76-1.32-8.71-1.27-6.04-.22-12 1.38-17.07 4.55-1.03.51-2.04 1.06-3.02 1.63-4.62 2.69-8.6 6.27-11.42 10.83-2.96 4.8-5.24 10.28-6.3 15.82-.17.86-.29 1.72-.39 2.59-.75 3.83-.46 7.38.72 10.83.19.72.42 1.43.68 2.13 1.77 4.73 4.91 8.68 9.29 11.24 2.28 1.34 4.73 2.32 7.11 3.48a39.12 39.12 0 0 0 6.16 3.51c.55.33 1.1.65 1.66.96 2.03 1.13 4.18 2.04 6.4 2.71-.39 3-2.03 5.83-4.47 7.64-1.38 1.02-2.93 1.69-4.39 2.56-1.38.83-.92 2.41.57 2.73 1.47.32 3.2.15 4.68-.03 1.58-.19 3.14-.55 4.64-1.08 2.97-1.06 5.68-2.74 7.92-4.95 1.81-1.79 3.28-3.89 4.36-6.18 1.53-.32 3.02-.79 4.45-1.39l.4-.12c.17 0 .35-.05.53-.17.01 0 .02-.01.03-.02 6.7-2.26 12.55-6.97 16.04-13.15 2.04-3.63 3.25-7.67 3.62-11.81.2-2.23.1-4.45-.23-6.63h.02Z" style="fill:#d6e8ea"/><path class="cls-8" d="M158.24 88.62s-.71-3.72-1.15-5.71c0 0-1.12.95-2.25 1.56-1.13.62-2.59 1.4-3.08 1.74-.48.34-.6.8-.59 1.27s.3.89.84 1.15 2.23.73 6.23 0ZM154.44 73.15s-1.14-5.69-6-16.36c-4.86-10.67-8.67-17.06-16.26-27.86 0 0-2.94 7.22-3.42 11.5s-.72 7.5 1.18 12.88c1.9 5.38 5.04 8.86 8.17 11.1s7.42 3.54 8.5 4.27 4.35 2.8 7.82 4.48Z"/></g><path class="cls-5" d="M132.05 79.11c.19.23 2.27-1.1 3.88-4.6 1.62-3.4 2.34-9.04.11-14.54-1.09-2.73-2.86-5.04-4.83-6.68-.29-.22-.58-.45-.87-.66l-.64-.49c-.11-.06-.2-.22-.32-.19l-.37.15c-1.19.46-1.41.57-1.95.8-.97.42-1.86.82-2.69 1.18-3.27 1.48-5.23 2.57-5.09 2.93.13.36 2.33-.09 5.77-1.1.86-.26 1.8-.55 2.8-.86.44-.14 1.24-.41 1.1-.33.03-.01.05.04.07.07-.03-.01.08.08.19.17l.31.26a16.28 16.28 0 0 1 3.95 5.8c1.91 4.73 1.61 9.6.62 12.8-.96 3.26-2.4 4.99-2.05 5.29ZM131.78 116.37c.32-.31-3.01-4.01-7.68-10.49-.58-.81-1.19-1.66-1.82-2.55-.6-.91-1.22-1.86-1.86-2.84-1.33-1.93-2.55-4.12-3.93-6.36-2.59-4.58-5.22-9.74-7.6-15.33s-4.2-11.1-5.68-16.15c-.7-2.54-1.38-4.95-1.87-7.24-.58-2.28-.97-4.43-1.36-6.39-1.47-7.85-1.93-12.81-2.38-12.79-.32.01-.55 5.04.44 13.09.27 2.01.56 4.22 1.04 6.55.41 2.35 1.01 4.83 1.66 7.44 1.38 5.19 3.17 10.84 5.59 16.55 2.43 5.71 5.19 10.95 7.96 15.56 1.47 2.25 2.79 4.44 4.23 6.35.7.97 1.38 1.9 2.03 2.8.69.86 1.36 1.69 2 2.49 5.16 6.28 9.02 9.52 9.24 9.3ZM30.94 97.05c-.22-.73-3.65-.36-7.66.84s-7.08 2.76-6.86 3.49c.22.73 3.65.36 7.66-.84s7.08-2.76 6.86-3.49ZM35.75 108c-.31-.7-4.45.46-9.24 2.6-4.79 2.13-8.42 4.43-8.11 5.13.31.7 4.45-.46 9.24-2.6 4.79-2.13 8.42-4.43 8.11-5.13ZM41.25 117.74c-.41-.64-3.92.86-7.83 3.37-3.91 2.5-6.75 5.06-6.34 5.7.41.64 3.92-.86 7.83-3.37 3.91-2.5 6.75-5.06 6.34-5.7Z"/></svg>