<svg id="Illustration" xmlns="http://www.w3.org/2000/svg" viewBox="0 0 200 200"><defs><style>.cls-1{fill:#f2a6b0}.cls-2{fill:#f6c243}.cls-5{fill:#fff}.cls-7{fill:#5b3d5b}</style></defs><g id="_"><path class="cls-1" d="M33.41 167.22s-5.67-3.4-6.59-4.87c-.92-1.48-2.11-6.25-2.34-7.55-.23-1.3-6.27-37.07-6.42-37.99s-6.56-40.8-7.05-43.99c-.5-3.19-6.5-43.97-6.75-46.1-.26-2.13-.96-9.35 0-10.99.96-1.64 5.58-2.3 8.08-2.79 2.5-.49 30.75-5.65 35.18-6.35 4.43-.7 30.59-4.14 33.44-4.41 2.85-.27 8.12-.83 10.51 0s5.03 2.11 5.71 5.17c.67 3.05 3.08 17.51 3.41 19.43.33 1.92 2.28 16.43 2.93 18.27.65 1.85 8.89 46.28 9.04 47.12.15.83 6.17 33.78 6.69 36.72.52 2.93 2.05 15.8 2.64 17.57.59 1.77.76 3.87-.34 4.63-1.1.77-16.39 4.26-16.39 4.26s-58.26 11.44-60.14 11.78c-1.89.34-10.5 1.7-11.57.1h-.01Z"/><path d="M78.31 135.04c-1.25.41-32.68 5.13-35.52 4.89-2.84-.23-5.07-2.12-5.85-6.61-.78-4.49-8.26-47.97-9.01-52.34-.75-4.38-7.13-44.1-7.48-47.4-.36-3.3-2.25-8.03 2.24-9.92 4.49-1.89 33.33-6.62 36.16-6.85 2.83-.23 25.53-2.84 25.53-2.84s2.82-.61 4.01.76 4.26 17.45 4.5 18.63c.23 1.18 9.1 50.32 9.4 51.51.3 1.19 4.3 26.27 5.02 27.92.72 1.64 2.73 12.64 1.89 14.17-.83 1.53-5.91 2.77-7.09 3.51-1.18.74-20.09 3.81-20.09 3.81l-3.71.77Z" style="fill:#e8f8f9"/></g><g id="Layer_5"><path class="cls-1" d="m32.29 161.06-8.46-54.03L15.37 53l-4.78-30.5c-.2-1.28-2.14-.73-1.94.54l8.46 54.03 8.46 54.03 4.78 30.5c.2 1.28 2.14.73 1.94-.54Z"/><path class="cls-1" d="m123.17 145.85-.98-6.75c-.04-.26-.15-.44-.3-.55-3.09-18.11-6.43-36.18-9.81-54.25-3.64-19.51-7.32-39.01-10.69-58.57-.91-5.28-1.77-10.57-2.65-15.85-.31-1.87-.75-4-2.03-5.48-1.28-2.48-4.55-3.25-7.08-3.65-1.51-.23-2.97-.11-4.49.03-1.97.18-3.95.36-5.92.56-7.77.79-15.53 1.79-23.26 2.93-15.41 2.27-30.72 5.11-46 8.1-1.68.33-3.48.56-4.98 1.41-1.5.85-2.31 2.31-2.44 4.03-.16 2.01.17 4.15.38 6.16.2 1.97.47 3.93.78 5.88-.07.2-.1.41-.07.64 1.09 7.93 2.28 15.85 3.48 23.76 1.52 9.99 3.07 19.97 4.66 29.94 1.58 9.97 3.34 20.87 5.05 31.3 1.52 9.28 3.06 18.57 4.65 27.84.63 3.69 1.27 7.38 1.92 11.08.35 1.97.56 4.05 1.21 5.94.95 2.77 3.09 4.35 5.5 5.83 1.14.7 2.28 1.41 3.25 2.35.18.17.37.27.56.29 1.22.65 2.64.73 4.01.56 1.85-.22 3.69-.62 5.52-.96 7.74-1.42 15.47-2.87 23.19-4.35 15.45-2.97 30.86-6.08 46.26-9.34 2.03-.43 4.09-.79 6.09-1.32 1.46-.38 2.97-1.01 3.82-2.32 1.03-1.58.62-3.5.36-5.24Zm-1.98 4.04c-.59 1.05-1.99 1.4-3.07 1.66-1.69.4-3.4.73-5.11 1.09-7.16 1.52-14.31 3-21.47 4.45-14.33 2.91-28.68 5.69-43.06 8.35l-5.88 1.08c-1.96.36-3.9.91-5.84.91-3.47.01-4.14-3.61-4.42-6.38-.13-1.28-2.15-1.29-2.01 0h-.02c.11 1.05.25 2.16.52 3.23-.9-.56-1.77-1.15-2.55-1.87-1.97-1.83-2.17-4.3-2.6-6.71-.63-3.54-1.24-7.07-1.85-10.61-1.54-9-3.05-18.02-4.53-27.03-1.7-10.31-3.36-20.62-5.01-30.94-1.6-10.07-3.18-20.14-4.73-30.23-1.25-8.18-2.48-16.37-3.63-24.56l-.27-1.95c.08-.17.11-.37.07-.59-.58-3.54-1.01-7.16-1.17-10.76-.06-1.43.1-2.76 1.45-3.52 1.21-.68 2.68-.85 4.01-1.11 7.2-1.41 14.41-2.79 21.63-4.09C46.13 7.7 60.66 5.39 75.29 3.77c3.91-.44 7.86-.93 11.79-1.15 1.2-.07 2.35.1 3.5.37-.07 0-.13.01-.2.02-.03 0-.05.01-.08.02A881.004 881.004 0 0 0 53.69 7.5c-12.22 1.75-24.4 3.77-36.53 6.04-2.5.47-5.61.69-7.53 2.57-.83.81-1.34 1.93-1.43 3.08-.09 1.15.26 2.42.4 3.59.15 1.28 2.16 1.29 2.01 0-.21-1.81-1.03-4.03.61-5.4.76-.64 1.77-.93 2.72-1.17 1.3-.32 2.61-.52 3.92-.77 5.79-1.09 11.6-2.11 17.42-3.07 11.71-1.95 23.45-3.65 35.23-5.11 6.62-.82 13.24-1.56 19.88-2.23.05 0 .1-.02.15-.03 1.46-.17 3.46-.63 4.56.59.03.04.06.08.09.11 1.29 1.53 1.49 3.82 1.79 5.71.75 4.65 1.53 9.3 2.33 13.94 1.62 9.45 3.32 18.88 5.05 28.31 3.56 19.39 7.25 38.75 10.79 58.14 1.99 10.91 3.93 21.82 5.75 32.76.02.13.07.24.12.33l.03.18c.2 1.4.89 3.5.15 4.82Z"/><path class="cls-1" d="M109.71 120.58v-.07c-1.41-8.06-2.85-16.12-4.3-24.17-1.81-10.07-3.64-20.14-5.5-30.21-1.81-9.84-3.64-19.67-5.5-29.51-.78-4.09-1.56-8.18-2.36-12.27-.34-1.7-.67-3.4-1.01-5.09-.46-2.28-.79-5.02-3.13-6.15-1.26-.61-2.69-.66-4.07-.56-1.71.13-3.42.35-5.13.54-3.56.4-7.13.85-10.68 1.32-7.2.97-14.38 2.11-21.54 3.4a476.71 476.71 0 0 0-21.2 4.35c-1.5.34-3.19.56-4.52 1.38-1.21.75-1.85 1.97-2 3.36-.19 1.73.24 3.55.49 5.27 1.02 7.06 2.13 14.12 3.24 21.17 1.45 9.2 2.93 18.38 4.44 27.57 1.51 9.19 3.07 18.6 4.66 27.9 1.24 7.26 2.49 14.53 3.84 21.77.21 1.16.43 2.32.66 3.47 0 .07 0 .15.03.23.42 1.99.79 3.84 2.43 5.19 2.04 1.67 4.58 1.81 7.1 1.54 6.31-.69 12.61-1.71 18.88-2.69 12.62-1.98 25.19-4.23 37.78-6.33 2.46-.41 5.38-1.04 7.05-3.1 1.79-2.21.87-5.8.35-8.31Zm-2.04 7.19c-1.46 1.56-3.91 1.95-5.91 2.28-5.75.96-11.49 1.94-17.23 2.93-11.61 1.99-23.24 3.94-34.92 5.51-1.59.21-3.19.46-4.79.59-1.25.1-2.56.11-3.74-.38-.87-.36-1.75-1.01-2.2-1.87-.46-.87-.61-1.92-.79-2.88 0-.06 0-.13-.02-.2h-.02c-1.23-6.32-2.33-12.65-3.42-18.98-1.52-8.79-3-17.59-4.46-26.39-1.54-9.28-3.05-18.56-4.52-27.85-1.24-7.79-2.47-15.57-3.64-23.37-.42-2.79-.92-5.58-1.21-8.39-.13-1.24-.2-2.74.98-3.5 1.26-.81 3.08-.96 4.52-1.29a476.162 476.162 0 0 1 52.74-8.93c1.68-.19 3.36-.42 5.05-.52 1.18-.07 2.65-.09 3.56.81.91.9 1.03 2.35 1.27 3.53a993.888 993.888 0 0 1 2.64 13.49c1.79 9.33 3.53 18.67 5.26 28.02a7615.805 7615.805 0 0 1 10.11 55.78c.28 1.59.56 3.18.84 4.76 0 .04 0 .08.01.13.26 1.27.53 2.62.58 3.96.03.94.01 2.02-.66 2.75Z"/></g><g id="Layer_6"><path class="cls-7" d="M81.72 192.32a870.56 870.56 0 0 1-7.98-5.52c.07-11.32-.11-22.64-.33-33.96-.06-3.04-.13-6.08-.19-9.12-.03-1.25-1.04-2.32-2.32-2.32s-2.34 1.06-2.32 2.32c.27 11.4.47 22.8.53 34.2v5.61c-2.34-1.66-4.66-3.33-6.97-5.01-1.01-.74-2.58-.17-3.17.83-.68 1.17-.18 2.43.83 3.17 6.46 4.7 12.98 9.3 19.59 13.8 1.03.7 2.57.19 3.17-.83.67-1.14.21-2.46-.83-3.17ZM196.35 174.44c-2.91-1.98-5.8-3.99-8.68-6.01v-.06c.07-11.36.02-22.74-.1-34.1-.03-3.05-.07-6.09-.12-9.14-.02-1.25-1.05-2.32-2.32-2.32s-2.34 1.06-2.32 2.32c.18 11.37.26 22.74.26 34.12 0 1.97-.01 3.95-.02 5.92-2.1-1.5-4.2-3.01-6.29-4.52-1.01-.74-2.58-.17-3.17.83-.68 1.17-.18 2.43.83 3.17 6.46 4.7 12.98 9.3 19.59 13.8 1.03.7 2.57.19 3.17-.83.67-1.14.21-2.46-.83-3.17Z"/><path d="M185.81 82.83c0-.06-.02-.11-.02-.17 0-.05-.02-.1-.02-.15 0-.05-.01-.1-.02-.15 0-.05-.01-.1-.02-.14a2.22 2.22 0 0 0-.6-1.01l-.02-.02c-.06-.06-.12-.11-.19-.16-.38-.32-.86-.51-1.41-.51-.18 0-.37.03-.55.08h-.08l-44.62 7.28-44.62 7.28-25.12 4.1c-.87.14-1.47.95-1.63 1.81-.05.19-.08.39-.07.59.86 14.22 1.48 28.45 1.87 42.69.03 1.25 1.04 2.32 2.32 2.32.28 0 .54-.06.79-.15.1 0 .19-.01.29-.03l44.16-7.21 43.88-7.16 24.95-4.07c.58-.09 1.03-.48 1.32-.98.65-.42 1.09-1.14 1.07-1.94-.28-14.11-.79-28.22-1.64-42.3Z" style="fill:#f75e28"/></g><g id="Layer_8"><path class="cls-2" d="M123.59 90.15h-.03c-10.89 1.89-21.8 3.69-32.76 5.15-.46.06-.85.31-.97.74-5.99 9.78-11.64 19.77-17.13 29.84-1.38 2.54-2.75 5.08-4.09 7.64v.02c-.19.16-.32.41-.3.74l.48 11.11c0 .23.08.42.2.57.76 1.86 3.77.79 5.24.53 2.27-.4 4.54-.81 6.81-1.21 4.49-.8 8.98-1.6 13.47-2.39.37-.06.58-.27.67-.53.1-.07.19-.17.27-.3 7.77-13.06 15.33-26.24 22.92-39.41 2.07-3.59 4.14-7.19 6.22-10.78.16-.15.24-.35.26-.56.14-.71-.59-1.28-1.23-1.16ZM186.67 94.78c-.27-3.18-.5-6.35-.68-9.53-.07-1.22.15-2.99-.72-3.99-.92-1.05-2.36-.71-3.58-.56-6.35.83-12.67 1.85-18.96 3.06-.14.03-.25.08-.35.14-.21.06-.4.2-.55.45-7.69 13.3-15.28 26.65-23.01 39.92-2.11 3.61-4.22 7.22-6.36 10.82-.46.78.24 1.5.94 1.49.1.01.21.02.33 0 10.61-1.81 21.27-3.34 31.88-5.16.42-.07.64-.34.71-.65 5.13-8.64 10.13-17.35 15.12-26.07 1.73-3.01 3.46-6.03 5.2-9.04.19-.33.17-.64.04-.9Z"/></g><path d="M157.94 52.84c-2.9-7.25-6.32-14.29-10.49-20.9-4.01-6.36-8.67-12.28-13.81-17.75a141.28 141.28 0 0 0-4.2-4.28c-1.4-1.36-2.93-2.59-4.95-2.79-3.71-.38-5.99 3.05-8.1 5.53-4.57 5.42-9.19 10.79-13.47 16.44a154.727 154.727 0 0 0-14.36 22.86c-.01.02-.03.04-.05.06-1.36 2.19-1.65 5.16-.58 7.52 1.18 2.6 3.75 3.08 6.34 3.11 6.04.07 12.08.28 18.12.45 5.07.15 10.15.28 15.23.32 6.07.05 12.2.14 18.26-.27 1.78-.12 3.55-.31 5.31-.56 1.68-.24 3.44-.38 4.85-1.42 1.22-.9 2.26-2.2 2.56-3.71.31-1.57-.07-3.16-.68-4.61Z" style="fill:#ff8000" id="Layer_11"/><g id="Layer_12"><path class="cls-5" d="M126.13 47.56c-.69-.72-1.62-1.12-2.61-1.24-1.97-.25-4.16.98-4.62 2.99-.46 2.02.95 4.32 2.81 5.11 1.18.5 2.55.35 3.62-.29.62-.26 1.15-.7 1.5-1.35.48-.87.6-1.85.46-2.82-.13-.89-.56-1.75-1.17-2.4ZM127.34 21.33c-1.09-2.13-4.18-2.39-5.94-.97-1.05.85-1.38 2.11-1.44 3.41-.04.97-.03 1.95-.02 2.93-.02.53-.03 1.05-.02 1.58.03 3.77.34 7.54.57 11.31v.13c.03.54.44 1.02 1.01 1.01.6-.01 1.2 0 1.8.05.15.01.3.03.46.05.07 0 .13.01.2.03h.02c.3.05.6.1.91.16.52.1 1.11-.15 1.24-.7.04-.18.03-.38-.02-.56.01-.05.03-.11.03-.17.42-3.14.78-6.28 1.1-9.44.16-1.63.32-3.26.45-4.9.11-1.3.28-2.7-.34-3.91Z"/></g><path class="cls-5" d="M29.25 167.53c.8-.12-3.67-34.17-9.99-76.05C12.95 49.6 7.19 15.75 6.39 15.87c-.8.12 3.67 34.17 9.99 76.05 6.31 41.88 12.08 75.73 12.88 75.61ZM88.05 142.98c-.42.1-.54.94-.99 1.95-.2.51-.56 1.06-.97 1.63-.45.55-1 1.12-1.66 1.62-.68.49-1.37.85-2.03 1.13-.67.23-1.29.41-1.84.46-1.09.14-1.93.01-2.15.39-.2.29.36 1.2 1.92 1.66.77.24 1.74.27 2.78.08 1.02-.22 2.1-.67 3.07-1.38.95-.73 1.7-1.63 2.2-2.54.47-.94.73-1.88.72-2.69 0-1.63-.7-2.43-1.04-2.32ZM61.68 69.94c-.76-.26-5.86 12.45-11.39 28.39-5.53 15.94-9.39 29.08-8.63 29.35.76.26 5.86-12.45 11.39-28.39 5.53-15.94 9.39-29.08 8.63-29.35ZM48.89 57.82c.76.27 3.91-6.54 7.03-15.22s5.04-15.94 4.28-16.21c-.76-.27-3.91 6.54-7.03 15.22s-5.04 15.94-4.28 16.21Z"/></svg>