<svg id="Illustration" xmlns="http://www.w3.org/2000/svg" viewBox="0 0 200 200"><defs><style>.cls-2{fill:#a0b4b5;stroke:#a0b4b5;stroke-miterlimit:10}.cls-3{fill:#fff}.cls-4{fill:#f6c243}.cls-5{fill:#c1dade}</style></defs><path class="cls-2" d="M5.11 62.46c-1.24-.41-2.92 1.18-2.14 2.34 3.01 4.25 5.94 8.81 8.79 13.53.95-3.29 1.2-7.88 1.48-12.97-2.74-.88-5.45-1.85-8.13-2.91z"/><path class="cls-2" d="M161.01 138.57c-5.06-17.18-11.74-33.91-19.71-50.05-9.1-21.81-20.29-42.86-34.11-62.29-18.01-9.97-13.59-9.9-17.96 5.86-16.78-6.57-13.88-7.81-18.86 8.77-15.84-6.82-13.92-8.31-17.02 8.17-17.09-6.68-12.56-8.63-17.28 8.43-17.37-6.29-13.31-8-17.97 9.38-1.63-.46-3.24-.94-4.85-1.46-.27 5.09-.52 9.68-1.48 12.97 8.63 14.31 16.53 30.18 23.67 44.1 11.46 23.71 21.94 48.91 28.66 74.28.4 1.35 2.74 1.19 3.24.03 1.54-4.15 3.3-8.22 5.28-12.18 16.65 8.32 12.56 9.97 19.28-6.57 16.42 8.08 11.85 9.89 18.08-6.7 14.89 8.84 12.42 9.11 17.7-6.69 3.41 1.59 5.97 2.89 7.95 3.81 7.43 3.45 6.62 1.46 11.44-11.42 15.14 7.39 12.25 10.63 16.55-8.9-.82-3.19-1.7-6.36-2.63-9.52zm-14.84 14.77c-.11.03-.18.02-.21-.03.03.04.1.05.21.02v.01zm1.16-.62c-.2-.27 1.34-2.65 2.24-3.29-.02-.03-.03-.06-.06-.08.03.02.05.05.06.08-.89.64-2.4 2.96-2.25 3.29zm2.55-2.8h.01v-.01c-.05.17-.05.15-.02.03zm.91-1.67c-.88.47-1.42.78-1.45.71.08.04.63-.28 1.53-.76-.03.01-.05.04-.08.05z"/><path class="cls-5" d="M7.57 49.78c-1.24-.43-2.92 1.22-2.14 2.44 3.01 4.43 5.94 9.19 8.79 14.11.95-3.43 1.2-8.22 1.48-13.52-2.74-.92-5.45-1.93-8.13-3.03z"/><path class="cls-5" d="M163.4 128.88c-5.06-17.91-11.75-35.35-19.71-52.17-9.1-22.74-20.29-44.68-34.11-64.93-18.01-10.4-13.59-10.32-17.96 6.11-16.78-6.85-13.88-8.14-18.86 9.14-15.84-7.11-13.92-8.66-17.02 8.52-17.09-6.96-12.56-9-17.28 8.78-17.37-6.56-13.31-8.34-17.97 9.77-1.63-.48-3.24-.98-4.85-1.53-.27 5.3-.52 10.09-1.48 13.52C22.79 81 30.69 97.55 37.83 112.06c11.47 24.72 21.95 50.98 28.66 77.44.4 1.41 2.74 1.24 3.24.04 1.54-4.32 3.3-8.56 5.28-12.7 16.65 8.68 12.56 10.39 19.28-6.85 16.42 8.42 11.85 10.31 18.08-6.99 14.89 9.21 12.43 9.5 17.7-6.98 3.41 1.65 5.97 3.01 7.95 3.97 7.43 3.59 6.62 1.52 11.44-11.91 15.14 7.71 12.25 11.08 16.55-9.28-.82-3.33-1.7-6.63-2.64-9.93zm-14.84 15.39c-.11.03-.18.02-.21-.03.03.05.1.06.21.02v.01zm1.16-.65c-.2-.29 1.34-2.77 2.24-3.43-.02-.03-.03-.06-.06-.08.03.02.05.05.06.09-.89.66-2.4 3.09-2.24 3.42zm2.55-2.92.01-.01v-.01c-.05.18-.05.16-.02.03z"/><path class="cls-5" d="M152.36 140.94h-.02c-.04.15-.04.17.02 0zM55.83 72.24l-1.69-2.46c-.45-.65-1.31-1.07-2.06-.61 0 0-.02.02-.03.02-.12.02-.25.07-.37.12a127.06 127.06 0 0 0-14.82 8.05c-.71.25-1.27 1.01-1.04 1.78.36 1.24.99 2.36 1.93 3.25.47.46 1.24.64 1.83.29 5.08-3.03 10.3-5.82 15.63-8.39.68-.33 1.06-1.4.61-2.06z"/><path class="cls-3" d="M92.75 75.14c-.4-.83-11.16 3.54-24.03 9.77-12.87 6.23-22.97 11.95-22.57 12.78.4.83 11.16-3.54 24.03-9.77 12.87-6.23 22.97-11.95 22.57-12.78zM104.08 90.42c-.41-.83-11.97 4.01-25.82 10.82-13.85 6.81-24.74 13-24.34 13.83.41.83 11.97-4.01 25.82-10.82 13.85-6.81 24.74-13 24.34-13.83zM108.74 110.16c-.4-.83-11.16 3.54-24.03 9.77-12.87 6.23-22.97 11.95-22.57 12.78.4.83 11.16-3.54 24.03-9.77 12.87-6.23 22.97-11.95 22.57-12.78zM137.09 96.91c-.16-.17-2.52-.49-9.15 2.68-6.63 3.17-8.8 5.21-8.59 5.63.21.42 3.22-.09 9.85-3.26 6.63-3.17 8.21-4.71 7.89-5.06z"/><path d="M55.52 65.27c-.59-.89-1.18-1.77-1.77-2.66-.47-.7-1.36-1.15-2.11-.66-.01 0-.02.01-.03.02-.12.03-.25.07-.37.13-5.13 2.5-10.09 5.37-14.84 8.59-.71.27-1.27 1.08-1.01 1.91.41 1.33 1.07 2.53 2.04 3.5.49.49 1.27.7 1.87.32 5.08-3.23 10.31-6.22 15.66-8.95.69-.35 1.04-1.51.57-2.21z" style="fill:#ff8000"/><ellipse class="cls-3" cx="135.02" cy="140.51" rx="13.15" ry="2.23" transform="rotate(-29.99 135.033 140.52)"/><ellipse class="cls-3" cx="132.02" cy="140.52" rx="13.15" ry="2.23" transform="rotate(-29.99 132.033 140.518)"/><g id="Layer_8"><path class="cls-4" d="M141.59 55.38c7.24-6.01 14.64-11.83 22.19-17.47 3.82-2.85 7.69-5.61 11.56-8.39 3.24-2.34 6.63-5.02 8.17-8.84 1.33-3.29 1.12-7.43-1.12-10.3-2.47-3.17-6.48-3.71-10.02-2.07-3.5 1.62-5.93 4.91-8.26 7.85-2.89 3.65-5.72 7.35-8.5 11.09-6.08 8.2-11.9 16.61-17.43 25.18-.08.07-.16.13-.24.2-.34.28-.52.69-.58 1.11-.46 1 .09 2.31 1.03 2.8 1.14.6 2.37.09 3.03-.92.05-.09.11-.16.16-.25zM184.18 65.1c.49-2.51-.53-5.04-2.81-6.29-2.19-1.2-4.79-.92-7.06-.15-2.56.87-5.07 1.93-7.59 2.9-5.89 2.27-11.77 4.52-17.66 6.79-.98.38-1.64 1.35-1.33 2.42l.02.03-.05.13c-.22.94.4 2.22 1.45 2.35 5.16.65 10.35.67 15.54.46 5.11-.2 10.58-.39 15.11-3.07 2.08-1.22 3.92-3.12 4.39-5.55h-.01zM128.52 32.01c1.38-2.1 2.72-4.23 4.02-6.38 1.09-1.79 2.43-3.63 2.99-5.67.6-2.18-.25-4.49-2.32-5.53-2.01-1.01-4.43-.55-6.2.73-1.87 1.35-3.09 3.32-3.97 5.42-.89 2.1-1.61 4.27-2.31 6.44a112.8 112.8 0 0 0-3.78 15.38c-.09.52.04.95.3 1.29.08.21.21.41.4.59.6.56 1.78.63 2.32-.08 2.98-3.96 5.84-8.02 8.55-12.17v-.02z"/></g><path class="cls-3" d="M121.3 61.05c-.16-.17-2.52-.49-9.16 2.67-6.64 3.16-8.81 5.2-8.6 5.62.21.42 3.22-.08 9.86-3.24 6.64-3.16 8.22-4.7 7.9-5.05zM130.91 77.02c-.16-.17-2.52-.49-9.16 2.67-6.64 3.16-8.81 5.2-8.6 5.62.21.42 3.22-.08 9.86-3.24 6.64-3.16 8.22-4.7 7.9-5.05z"/></svg>