<svg id="Illustration" xmlns="http://www.w3.org/2000/svg" viewBox="0 0 200 200"><defs><clipPath id="clippath"><ellipse class="cls-2" cx="79.04" cy="70" rx="57.76" ry="50.96"/></clipPath><clipPath id="clippath-1"><path class="cls-2" d="M28.39 82.78H13.91c-3.29 0-5.99-2.69-5.99-5.99V62.31c0-3.29 2.69-5.99 5.99-5.99l15.41-1.95c3.29 0 5.05 4.64 5.05 7.93v14.48c0 3.29-2.69 5.99-5.99 5.99Z"/></clipPath><style>.cls-2{fill:none}.cls-10,.cls-14,.cls-2,.cls-5,.cls-8,.cls-9{stroke-width:0}.cls-5{fill:#9bb5b5}.cls-8{fill:#fff}.cls-9{fill:#ea718b}.cls-10{fill:#ffb4c3}.cls-14{fill:#6a4a6b}</style></defs><path class="cls-9" d="M37.35 33.89a62.14 62.14 0 0 1 1.11-17.32c.31-1.49.86-3.18 2.28-3.71 1.26-.46 2.62.21 3.79.86 3.29 1.83 6.57 3.65 9.86 5.48 2.01 1.12 4.31 2.77 4.06 5.05-.17 1.55-1.5 2.67-2.72 3.63-2.68 2.1-5.4 4.22-8.51 5.61s-6.71 1.99-9.94.93"/><path class="cls-8" d="M68.24 22.57c-.12-.55.46-3.81-9-2.58-3.57.63-11.19 2.99-16.62 7.04-5.42 4.07-9.31 8.9-11.6 12.66-2.31 3.77-.06 10.15.43 10.42 1.13.65 3.75-11.99 13.91-19.47 10.05-7.64 23.19-6.8 22.88-8.07Z"/><rect class="cls-9" x="41.88" y="104.34" width="28.21" height="23.39" rx="5" ry="5"/><rect class="cls-9" x="87.77" y="104.34" width="28.21" height="23.39" rx="5" ry="5"/><path class="cls-8" d="M36.52 102.39c-.43.86-4.65 4.53 9.12 12.96 5.38 2.96 17.93 7.97 29.39 8.4 11.47.4 21.74-1.83 28.75-4.35 7.05-2.51 10.87-13.3 10.51-14.19-.8-2.06-17.69 11.81-39.04 10.87-21.37-.62-37.79-15.7-38.74-13.7Z"/><path class="cls-9" d="M28.39 82.78H13.91c-3.29 0-5.99-2.69-5.99-5.99V62.31c0-3.29 2.69-5.99 5.99-5.99l15.41-1.95c3.29 0 5.05 4.64 5.05 7.93v14.48c0 3.29-2.69 5.99-5.99 5.99Z"/><ellipse cx="79.04" cy="70" rx="57.76" ry="50.96" style="fill:#ffa2af;stroke-width:0"/><path d="M131.22 51c4.09-.12 7.84-2.2 10.31-5.43s3.75-7.81 1.88-11.46c-.99-1.93-3.13-3.3-5.33-2.86-2.01.4-3.56 2.18-3.98 4.14-.91 4.28 2.73 8.39 6.09 10.49 4.02 2.51 8.89 2.86 13.22.99.75-.32.9-1.41.54-2.05-.44-.77-1.31-.86-2.05-.54-5.22 2.25-12.41-.46-14.56-5.86-.51-1.27-.6-2.9.56-3.85s2.41-.08 2.93 1.05c1.19 2.57-.04 5.95-1.61 8.07-1.87 2.52-4.83 4.22-7.99 4.31-1.93.05-1.93 3.05 0 3Z" style="fill:#fc688a;stroke-width:0"/><ellipse cx="79.04" cy="70" rx="57.76" ry="50.96" style="fill:#f2a6b0;stroke-width:0"/><path class="cls-9" d="M118.76 33c4.82 7.44 7.57 16.05 7.57 25.23 0 28.14-25.86 50.96-57.76 50.96-15.39 0-29.37-5.31-39.72-13.96 9.95 15.36 28.7 25.72 50.19 25.72 31.9 0 57.76-22.81 57.76-50.96 0-14.57-6.93-27.71-18.04-36.99Z"/><path class="cls-10" d="M32.27 101.57c.06-28.71 13.83-59.42 37.91-75.9 2.89-1.98 5.92-3.79 9.08-5.29 2.12-1.01 8.05-3.01 10.17-1.21 4.95 4.22-6.94 14.71-9.68 17.71-10.44 11.41-21.62 22.46-29.71 35.76s-14.31 30.23-6.33 44.38c7.06 12.52 25.93 16.53 34.36 3.07 4.12-6.57 4.96-15.3 7.54-22.55 2.78-7.81 6.33-15.32 10.5-22.48 4.32-7.4 9.29-14.4 14.94-20.84 4.22-4.82 11.89-15.29 19.09-15.08 4.04.12 5.85 4.63 5.44 8.16-.57 4.87-4.65 8.86-8.24 11.81-6.95 5.7-14.47 9.88-19.82 17.33-9.74 13.56-11.03 31.52-4.34 46.61 2.6 5.87 11.22.79 8.63-5.05-6.44-14.53-1.97-32.37 10.11-42.5 6.97-5.85 15.21-9.93 20.18-17.88 3.99-6.39 4.83-14.58.78-21.16-4.08-6.63-11.94-8.79-19.07-6.01-7.76 3.03-13.89 10-19.29 16.09-11.63 13.11-20.76 28.19-27.13 44.52-1.48 3.81-2.79 7.68-3.93 11.6-1.2 4.14-1.7 9.9-4.63 13.27-6.11 7.03-15.45-.11-17.74-6.77-2.95-8.56.67-18.47 4.59-26.14s8.76-14.11 14.16-20.42c5.46-6.39 11.31-12.43 16.97-18.63 5.04-5.51 12.41-11.79 13.3-19.61.75-6.59-1.99-13.01-8.68-14.84-7.78-2.13-14.85.68-21.55 4.54-30.02 17.3-47.54 53.55-47.61 87.53-.01 6.44 9.99 6.44 10 0Z" style="clip-path:url(#clippath)"/><path d="m158.38 191.66-60.34-18.93c-6.76-2.72-11.29-11.41-9.41-15.77l33.1-82.37c1.09-3.48 4.83-5.43 8.31-4.34l56.07 11.55c3.48 1.09 9.7 12.71 8.61 16.19l-28.03 89.33c-1.09 3.48-4.83 5.43-8.31 4.34Z" style="fill:#b4cacc;stroke-width:0"/><rect x="101.09" y="69.69" width="76.49" height="106.88" rx="6" ry="6" transform="rotate(17.42 139.352 123.153)" style="fill:#c1dade;stroke-width:0"/><rect class="cls-14" x="118.61" y="78.62" width="59.82" height="25.96" rx="4" ry="4" transform="rotate(17.42 148.517 91.62)"/><rect class="cls-8" x="110.52" y="104.81" width="15.5" height="15.5" rx="3" ry="3" transform="rotate(17.42 118.254 112.556)"/><rect class="cls-8" x="131.8" y="111.95" width="15.5" height="15.5" rx="3" ry="3" transform="rotate(17.42 139.56 119.714)"/><rect class="cls-8" x="153.08" y="118.63" width="15.5" height="15.5" rx="3" ry="3" transform="rotate(17.42 160.856 126.372)"/><rect class="cls-8" x="104.08" y="125.34" width="15.5" height="15.5" rx="3" ry="3" transform="rotate(17.42 111.818 133.116)"/><rect class="cls-8" x="125.49" y="132.06" width="15.5" height="15.5" rx="3" ry="3" transform="rotate(17.42 133.254 139.82)"/><rect class="cls-8" x="146.77" y="138.74" width="15.5" height="15.5" rx="3" ry="3" transform="rotate(17.42 154.522 146.516)"/><rect class="cls-8" x="98" y="144.7" width="15.5" height="15.5" rx="3" ry="3" transform="rotate(17.42 105.76 152.45)"/><rect class="cls-8" x="119.42" y="151.42" width="15.5" height="15.5" rx="3" ry="3" transform="rotate(17.42 127.17 159.19)"/><rect class="cls-8" x="140.7" y="158.1" width="15.5" height="15.5" rx="3" ry="3" transform="rotate(17.42 148.465 165.849)"/><path class="cls-10" d="M9.01 73.38c.79-1.42 1.58-2.85 2.38-4.27.16-.29.33-.58.5-.86.09-.14.19-.27.27-.41.12-.2-.13.15.02-.03.07-.09.14-.17.22-.25.05-.05.09-.1.14-.14.03-.03.24-.21.1-.1-.13.1.04-.03.06-.04.07-.04.15-.08.22-.13-.03.02-.23.07-.07.03.08-.02.16-.04.24-.07.16-.05-.07.02-.1.01h.18-.02c-.25-.1.19.11-.03 0-.17-.09.02.04.04.04-.06 0-.18-.1-.02 0 .09.06.09.21-.02-.03.03.06.19.41.14.25-.05-.18 0 .03 0 .06.02.1.05.21.08.31.06.21 0-.24 0-.01 0 .06 0 .13.01.2 0 .15 0 .3-.01.46 0 .22.07-.22 0 0-.02.07-.03.14-.05.2-.02.09-.05.18-.08.27-.01.03-.13.38-.07.21.06-.15-.02.06-.03.07l-.12.24c-.07.14-.15.27-.23.41s-.17.26-.26.39c-.05.07-.1.15-.16.22.09-.12.05-.06-.02.02-.22.26-.45.51-.69.75-.11.11-.23.21-.34.32l-.2.17c-.1.09-.13.09 0 0-.3.21-.6.41-.92.59-.15.08-.3.15-.45.23-.2.11.22-.08.01 0-.1.04-.19.07-.29.11-.31.11-.63.19-.95.26-.08.02-.16.03-.24.04.2-.04.15-.02-.02 0-.18.02-.36.02-.55.02-.78 0-1.54.68-1.5 1.5s.66 1.51 1.5 1.5c3.43-.03 6.79-2.35 8.14-5.49.75-1.75.85-4.18-.74-5.53-.85-.72-2.03-.95-3.08-.57s-1.76 1.09-2.38 1.95c-.59.81-1.04 1.73-1.52 2.6l-1.67 3c-.38.69-.19 1.67.54 2.05s1.65.19 2.05-.54Z" style="clip-path:url(#clippath-1)"/><path d="M152.96 47c1.07-.34 2.19-1.12 2.86-2.07 1.32-1.88 1.42-3.94.96-3.86-.37 0-.84.61-1.79 1.33-1.1.83-2.81 1.89-3.72 2.12" style="fill:#fb6889;stroke-width:0"/><path class="cls-5" d="m121.34 112.47-6.47-2.05c-.17-.02-.32.11-.34.29l-.46 1.5c-.02.18.11.33.27.35l6.45 2.15h.03c.16 0 .29-.12.3-.29l.49-1.6a.316.316 0 0 0-.27-.35ZM143.19 119.64l-6.47-2.05c-.17-.02-.32.11-.34.29l-.46 1.5c-.02.18.11.33.27.35l6.45 2.15h.03c.16 0 .29-.12.3-.29l.49-1.6a.316.316 0 0 0-.27-.35ZM164.33 126.28l-6.47-2.05c-.17-.02-.32.11-.34.29l-.46 1.5c-.02.18.11.33.27.35l6.45 2.15h.03c.16 0 .29-.12.3-.29l.49-1.6a.316.316 0 0 0-.27-.35ZM115.12 133.2l-6.47-2.05c-.17-.02-.32.11-.34.29l-.46 1.5c-.02.18.11.33.27.35l6.45 2.15h.03c.16 0 .29-.12.3-.29l.49-1.6a.316.316 0 0 0-.27-.35ZM136.96 139.78l-6.47-2.05c-.17-.02-.32.11-.34.29l-.46 1.5c-.02.18.11.33.27.35l6.45 2.15h.03c.16 0 .29-.12.3-.29l.49-1.6a.316.316 0 0 0-.27-.35ZM158.11 146.42l-6.47-2.05c-.17-.02-.32.11-.34.29l-.46 1.5c-.02.18.11.33.27.35l6.45 2.15h.03c.16 0 .29-.12.3-.29l.49-1.6a.316.316 0 0 0-.27-.35ZM109.17 152.64l-6.47-2.05c-.17-.02-.32.11-.34.29l-.46 1.5c-.02.18.11.33.27.35l6.45 2.15h.03c.16 0 .29-.12.3-.29l.49-1.6a.316.316 0 0 0-.27-.35ZM130.71 159.38l-6.47-2.05c-.17-.02-.32.11-.34.29l-.46 1.5c-.02.18.11.33.27.35l6.45 2.15h.03c.16 0 .29-.12.3-.29l.49-1.6a.316.316 0 0 0-.27-.35ZM151.86 166.02l-6.47-2.05c-.17-.02-.32.11-.34.29l-.46 1.5c-.02.18.11.33.27.35l6.45 2.15h.03c.16 0 .29-.12.3-.29l.49-1.6a.316.316 0 0 0-.27-.35Z"/><path d="m134.69 86.19-.72-1.19c-.11-.11-.28-.13-.39-.02l-4.51 2.49-2.4-4.75a.272.272 0 0 0-.39-.02l-1.22.67c-.12.1-.14.28-.04.39l2.32 4.67-4.7 2.6-.02.02c-.09.1-.09.26.01.37l.77 1.26c.11.11.28.13.39.02l4.43-2.49 2.35 4.74.02.02c.1.1.26.1.37 0l1.29-.72c.12-.1.14-.28.04-.39l-2.34-4.64 4.73-2.66c.11-.1.11-.28 0-.39Z" style="fill:#9ab4b4;stroke-width:0"/><path class="cls-14" d="M79.26 44.94c1.67.01 3.1-11.55 3.2-25.81 0 0-1.17-.09-2.84-.1-1.67-.01-3.2.07-3.2.07-.1 14.26 1.17 25.83 2.84 25.84Z"/></svg>