<svg id="Illustration" xmlns="http://www.w3.org/2000/svg" viewBox="0 0 200 200"><defs><style>.cls-1{fill:none}.cls-3{fill:#f6c243}.cls-4{fill:#f75e28}.cls-5{fill:#e8f8f9}.cls-6{fill:#fff}.cls-7{fill:#ffd066}.cls-8{fill:#ff8000}.cls-9{fill:#c1dade}.cls-10{fill:#ba8d3c}.cls-11{fill:#cca88d}.cls-12{fill:#5b3d5b}</style></defs><g id="Layer_27"><path d="M89.46 32.09c-1.52-3.53-4.09-6.58-7.09-8.96-3.37-2.68-7.21-4.6-11.16-6.26-4.02-1.69-8.22-3.59-12.59-4.06-4.54-.48-9.02 1.1-13.23 2.6-3.92 1.39-7.75 3.08-10.98 5.75-5.53 4.58-8.93 11.56-9.37 18.7-.01.23-.01.45-.02.68-.14 1.04-.23 2.09-.26 3.13-.14 4.17.53 8.44 2.21 12.27 1.49 3.39 3.9 6.29 6.75 8.62 2.86 2.33 6.07 4.16 9.38 5.75 1.67.8 3.37 1.55 5.07 2.27.59.25 1.17.5 1.76.75.74 2.61 1.47 5.22 2.22 7.82.42 1.45.85 2.91 1.29 4.36.36 1.2.69 2.88 1.63 3.79 1.01.97 2.25.28 2.75-.82.6-1.35 1.07-2.77 1.58-4.16 1.11-3.02 2.17-6.07 3.19-9.12.04-.13.05-.25.05-.36 5.29-1.36 10.04-5.02 13.77-9.02 2.92-3.13 5.69-6.49 8.2-9.95 2.53-3.5 4.7-7.35 5.71-11.58.98-4.08.81-8.31-.85-12.19Z" style="fill:#f2a6b0"/><path class="cls-4" d="M57.68 43.34c-2.15-.8-4.72-.22-6.39 1.33-1.79 1.66-2.39 4.51-1.29 6.71.35.88.91 1.68 1.65 2.31 1.91 1.6 4.49 1.97 6.72.81 2.06-1.07 3.48-3.37 3.29-5.71-.2-2.41-1.71-4.58-3.99-5.43Zm-1.89 5.95s-.02 0-.04.01c-.07 0 0-.02.03-.02ZM61.85 4.54c-.33-1.33-1.13-1.83-2.23-2.08-.75-.45-1.63-.42-2.47-.35-.21.01-.42.04-.63.06-.91 0-1.81.07-2.71.22-1.23.2-3.43.49-4.22 1.59-.13.19-.22.39-.27.6-.03.05-.07.09-.1.15-.82 1.53-.45 3.48-.33 5.12.15 2.17.31 4.35.46 6.53l.03.42c0 2.9.06 5.81.21 8.7.17 3.17.41 6.33.76 9.48.15 1.31.37 2.59 1.71 3.16 1.27.54 2.84.57 4.19.39 1.19-.16 2.39-.49 2.99-1.62.63-1.17.57-2.73.7-4.02.33-3.23.67-6.47 1.01-9.7l.99-9.52c.31-3.03.65-6.14-.07-9.14Z"/></g><g id="Layer_6"><path class="cls-10" d="M145.14 98.17c-.72-2.13-3-4.57-4.73-5.71-1.73-1.14-5.57-.74-6.82-.41-1.11.3-2.23 1.53-3.65 3.14-.42-.4-1.18-.48-1.56.17-1.53 2.57-3.01 5.17-4.27 7.9-1.26 2.73-2.23 5.48-3.25 8.26-2.09 5.7-4.29 11.35-6.37 17.06-.33.91.68 1.43 1.39 1.12 1.07 2.22 3.86 8.05 4.61 9.79.92 2.17 3.63 9.22 3.63 9.22h.01s3.28-2.84 4.76-6.07c1.48-3.23 8.21-14.2 10.02-17.8 1.81-3.6 6.02-13.1 6.47-15.9.45-2.8.49-8.64-.23-10.76Z"/><path class="cls-10" d="M124.82 149.42c4.38-4.87 7.84-10.48 10.78-16.31.58-1.15-1.15-2.16-1.73-1.01-2.86 5.68-6.21 11.16-10.47 15.9-.86.95.55 2.37 1.41 1.41Z"/><path class="cls-10" d="M129.34 97.82c1.71-3.33 5.19-6.16 9.1-5.07 3.65 1.01 5.79 4.39 6.27 7.98.26 1.88.05 3.76-.27 5.62-.33 1.83-.74 3.65-1.31 5.42-1.1 3.35-2.45 6.59-3.86 9.82-1.58 3.63-3.4 7.09-5.39 10.51-.65 1.11 1.08 2.12 1.73 1.01 1.99-3.41 3.81-6.89 5.39-10.51 1.54-3.55 3.07-7.1 4.22-10.79 1.15-3.69 2.11-8.24 1.32-12.27-.79-4.03-3.51-7.6-7.56-8.72-4.77-1.32-9.22 1.85-11.36 5.99-.59 1.14 1.14 2.15 1.73 1.01Z"/><path class="cls-9" d="M125.8 152.15c-2.19-8.28-5.33-16.32-9.48-23.81-.02-.03-.03-.05-.05-.07-.01-.02-.02-.04-.04-.05-.04-.05-.07-.09-.11-.13a.835.835 0 0 0-.47-.23.797.797 0 0 0-.46.01c-.52.2-1.03.43-1.51.72s-.93.62-1.35.99c-.17.14-.26.4-.28.62-.05.11-.07.24-.08.38l-.18 25.23c0 .17.04.32.1.44.04.17.13.35.3.5 1.02.89 2.29.89 3.58.75 1.5-.17 3.01-.33 4.48-.72 1.27-.33 2.53-.83 3.62-1.57.82-.56 2.09-1.53 1.97-2.62.03-.14.02-.29-.02-.45Z"/></g><path class="cls-11" d="M116.72 152.47c.36-.51 1.15-1.98 1.18-3.41.03-1.43-.87-4.05-.74-5.94.12-1.89-.92-6.51-2.2-8.62-1.28-2.12-8.75-11.45-10.1-13.49-1.35-2.05-6.87-12.61-6.87-12.61s-1.85-8.18-1.58-10.08c.27-1.91.37-5.71-.39-7.39-.75-1.68-3.62-8.14-3.62-8.14s-2.06-1.76-2.8-2.2-6.33-3.39-6.35-2.97c-.03.41.1 2.05 1.34 3.38 1.25 1.33 2.38 2.5 3.28 3.59.9 1.09-1.55.26-2.69-.13-1.14-.4-3.71-1.51-4.88-1.44-1.17.07-2.85.03-3.25.81-.39.79.28 1.33.79 1.67.51.33 1.83.6 2.56 1.04.73.44 3.15 2.07 2.21 2.23s-1.21-.61-1.49.62c-.27 1.23-1.31 1.19-1.31 1.19s-3.03 1.25-3.05 1.96c-.03.71.21.66 1.47.91s4 .54 4 .54-.28 2.3-1.2 2.61-2.62 1.07-1.23 1.14c1.38.07 3.3-.38 3.57-.17s.87.64 1.04 1.69c.17 1.05.53 5.39.93 7.04.39 1.65 1.83 2.5 2.55 2.93s1.87.8 1.87.8 1.27 2.81 1.77 4.15c.51 1.34 5.35 22.64 6.43 24.57s5.77 10.03 7.53 11.36c1.75 1.33 5.84 3.35 7.96 3.61 2.13.27 3.24-1.24 3.24-1.24h.03Z" id="Layer_15"/><path class="cls-12" d="M79.06 94.89h.04-.04ZM87.25 90.45s.03.02.04.04a.218.218 0 0 0-.05-.04ZM90.25 94.38v.01c.03.03.05.06.08.09.01.02.03.03.04.05 0 0-.03-.04-.12-.15Z"/><path class="cls-12" d="M119.42 147.3c-.1-2.27-.36-4.55-.74-6.79-.05-.31-.11-.61-.17-.92 0-.11 0-.23-.03-.36-.15-.77-.37-1.52-.63-2.25-.21-.65-.47-1.29-.79-1.89-1.42-2.93-3.55-5.56-5.61-8.03-3.14-3.79-6.07-7.65-8.5-11.94a66.33 66.33 0 0 1-3.48-7.08v-.12l-1.85-16.35s-.01-.06-.02-.08c.03-.31-.02-.64-.16-.96-1.22-2.88-2.48-5.74-3.78-8.58-.08-.39-.32-.75-.7-1a64.553 64.553 0 0 0-7.02-4.09c-.09-.05-.19-.08-.28-.11-.69-.33-1.3-.82-2.12-.82-.75 0-1.41.47-1.69 1.15-.19.44-.18.87-.08 1.33.12.56.42 1.11.72 1.59.37.59.79 1.15 1.24 1.69.3.37.64.7 1 1v.01c-1.11-.38-2.23-.7-3.38-.95-1.06-.23-2.07-.3-3.14-.04-1.07.26-1.97.77-2.81 1.43-.43.34-.51.94-.36 1.46h-.02c.21.89.98 1.59 1.76 2.01.68.36 1.47.6 2.26.69.41.34.83.66 1.26.96-.2.36-.35.73-.45 1.09l-1.87.67c-.85.31-1.77.58-2.51 1.13-.45.33-.86.71-1.13 1.22-.27.51-.35 1.03-.13 1.56.21.49.63.82 1.13.95 1.16.31 2.42.23 3.59 0 .03 0 .06-.01.09-.02s.03 0 .04 0h-.02.02c.32.14.73.18 1.07.21.13.01.26.01.39.01-.29.19-.58.39-.87.6-.43.31-.85.59-1.13 1.06-.49.83-.21 1.93.61 2.42.81.49 1.77.23 2.64 0 .33-.09.66-.19 1-.28.29 1.06.37 2.14.44 3.23.13 2.13.24 4.19 1.43 6.03 1.07 1.67 2.65 2.57 4.49 3.07 2.5 7.24 3.7 14.86 5.83 22.2 1.53 5.27 3.35 10.8 6.87 15.09 2.39 2.91 5.57 5.07 9.02 6.53.13.06.27.09.41.12 1.96.61 4.21.27 5.81-1.03 2.03-1.63 2.41-4.42 2.3-6.86ZM85.51 76.71v-.03l.14.06-.14-.03ZM82.82 90.2Zm.08-.09.02-.02-.02.02Zm-5.01 1.96s-.07 0-.1.01c.18-.02.21-.02.1-.01Zm1.32 2.78s.01 0 0 0Zm36.34 56.67c-.93 1.12-2.54 1.12-3.8.65-2.65-1.2-5.08-2.8-7.06-4.96-1.71-1.87-2.97-4.11-3.97-6.43-2.53-5.93-4.01-12.46-5.49-18.79-.97-4.14-1.98-8.29-3.42-12.3-.05-.53-.37-1.01-1.07-1.16-.93-.19-1.89-.41-2.66-.98-.44-.32-.69-.7-.99-1.22-.85-1.43-.74-3.27-.87-4.94-.09-1.09-.2-2.19-.48-3.25-.28-1.07-.81-2.02-1.29-3.01-.64-1.29-2.06-3.3-1.69-4.88l.01-.01h.16c.04 0 .08.02.12.03.01 0 .03 0 .04.01.06.04.14.1.21.13.02.02.04.03.05.05.05.05.12.11.17.18l.02.02c.13.18.25.37.37.55.28.41.58.81.94 1.14.25.24.55.46.84.67.6.89 1.18 1.81 1.82 2.68.66.91 1.38 1.72 2.21 2.43.12.17.27.31.45.43.9.61 1.82 1.19 2.76 1.72.34.19.77.25 1.15.15.35-.09.73-.37.89-.69.19-.35.27-.77.15-1.15s-.35-.7-.69-.89c-.8-.45-1.59-.95-2.35-1.46a2.11 2.11 0 0 0-.23-.19c-.05-.03-.26-.19-.05-.04.21.15-.03-.02-.05-.05-.1-.08-.2-.17-.29-.25-.2-.19-.39-.38-.58-.58-.18-.2-.36-.4-.53-.61 0 0-.07-.07-.1-.12l-.02-.02c-.01-.01-.02-.03-.03-.04 0 .01.01.02.02.03-.08-.1-.16-.21-.24-.32-.66-.91-1.25-1.88-1.89-2.81-.07-.11-.15-.2-.24-.29-.04-.05-.09-.09-.14-.13-.05-.04-.09-.08-.14-.12-.09-.07-.19-.14-.29-.21 0 0 .01.01.01.02l-.02-.02c-.02-.02-.05-.03-.07-.05-.15-.11-.05-.05.03.01a3.449 3.449 0 0 1-.63-.63c-.03-.04-.06-.09-.09-.13-.09-.13-.17-.25-.25-.37-.13-.19-.27-.38-.42-.57 0-.25-.06-.49-.19-.7-.2-.31-.47-.5-.8-.65l.04.02c-1.21-.52-2.35-1.17-3.41-1.96-.26-.2-.51-.41-.75-.63-.1-.09-.22-.16-.34-.23.24.05.53.12.73.17 1.66.39 3.31.92 4.88 1.61.34.4.68.81 1 1.22.73.96 1.39 1.98 1.98 3.03.03.05.06.08.09.13.25 1.08.6 2.14 1.11 3.15.35.71 1.4.96 2.05.54.72-.47.91-1.3.54-2.05-.07-.15-.15-.3-.21-.45 0-.01 0-.02-.01-.03 0-.02-.01-.04-.03-.07-.1-.27-.2-.54-.29-.81-.17-.55-.31-1.11-.41-1.67-.05-.29-.1-.57-.14-.85 0-.04 0-.06-.01-.08v-.02c-.02-.17-.04-.33-.05-.49-.06-.58-.1-1.16-.14-1.75-.03-.51-.3-1-.71-1.28-.47-.61-1-1.15-1.56-1.68-.57-.54-1.16-1.08-1.65-1.69-.13-.18-.25-.36-.35-.54-.02-.03-.04-.05-.06-.08 1.3.73 2.57 1.5 3.82 2.32v.02c1.25 2.74 2.46 5.5 3.65 8.26v.07l1.77 15.65c-.16.32-.22.67-.08 1.01 1.94 4.75 4.33 9.28 7.23 13.51 2.72 3.97 6.09 7.43 8.82 11.37 1.18 1.7 2.2 3.5 2.83 5.46.18.65.32 1.31.45 1.97.33 1.73.52 3.49.67 5.24.15 1.75.49 4.25-.76 5.75Z"/><path class="cls-11" d="M145.11 80.73s-.58-4.38-.9-5.66c-.32-1.28.15-4.28.15-4.28s-1.03-.81-1.75-1.67c-.72-.87-2.58-3.07-2.78-4.43-.2-1.36.11-3.77-.53-4.09-.64-.33-.28-.64-1.59 0s-1.84 1.27-2.58 1.51-1.39 1.03-1.61 1.19c-.21.16-1.21-3.76-1.77-4.49-.55-.73-2.91-1.89-3.91-2.15-.99-.26-2.99 0-2.99 0l-5.37 1.37s-1.1 9.78-.44 13.33c.66 3.56 2.21 7.88 3.09 9.36.87 1.47 1.42 2.27 3.75 1.57s5.15-2.08 5.23-1.79.19 3.75.19 3.75 4.29-.97 6.82-1.74c2.54-.77 6.97-1.79 6.97-1.79h.01Z"/><g id="Layer_4"><path class="cls-3" d="M146.93 79.67c.35.67.67 1.36.97 2.05.04.09.07.17.11.25.05.11.04.1 0-.02.01.04.03.07.05.11.07.17.14.35.21.52.14.36.28.72.41 1.08.18.49.69.87 1.23.7.48-.15.89-.71.7-1.23-.55-1.53-1.21-3.03-1.95-4.48-.24-.47-.93-.64-1.37-.36-.47.31-.61.87-.36 1.37h-.01Z"/><path class="cls-12" d="M153.88 57.49c-2.3-1.37-4.97-.53-6.89 1.09-.46.39-.39.91-.09 1.26-.29.66-.6 1.31-.92 1.95-.09-.55-.44-1.03-1.04-1.2-.32-.09-.7-.04-1.03.1-.34-.59-1.39-.55-1.68.07l-.06.15c-.02-.04-.04-.09-.07-.13a1.18 1.18 0 0 0-1.05-.56c-.56-1.43-2.09-2.1-3.59-1.78-.36.08-.69.21-.98.39-.5-.09-.99-.19-1.48-.34-.27-.08-.54-.17-.8-.27-.07-.03-.13-.05-.2-.08-.31-.13.07.03-.11-.04-.15-.07-.29-.13-.43-.2-.29-.14-.59-.15-.86-.05-.33-.47-.71-.92-1.14-1.33-.38-.36-1.04-.41-1.41 0s-.41 1.03 0 1.41c.19.17.37.35.55.55.08.09.16.19.24.29 0 0 .01.02.02.03a8.043 8.043 0 0 1 .88 1.53c.02.05.04.11.06.17.05.13.09.25.13.37.07.24.14.49.19.73.03.13.05.27.08.4l.03.18v.04c.03.27.05.55.07.83.03.71.85 1.31 1.51.87.32-.22.59-.47.84-.75.07.06.14.11.22.15.71.37 1.62.18 2.05-.54h-.01c.13-.23.26-.45.4-.65.05-.09.12-.17.18-.25.02-.02.05-.05.08-.09.07-.07.15-.15.21-.22.02-.02.03-.03.04-.05.01 0 .03-.01.05-.03 0 0 .12-.07.21-.11.05-.02.09-.03.14-.04h.07s.02.17.03.2v.48c-.08.19-.08.48-.11.68-.11.55-.23 1.09-.36 1.63-.13.54-.27 1.03-.43 1.53-.08.27-.17.53-.27.79-.01.03-.02.05-.02.07-.01.01-.02.03-.04.05-.04.06-.25.37-.06.13-.49.61-.64 1.53 0 2.12.55.5 1.59.65 2.12 0 .46-.57.78-1.24 1.03-1.94.63 1.03 1.37 1.98 2.21 2.85-.07 2.23.05 4.46.45 6.67.15.8 1.11 1.25 1.85 1.05.84-.23 1.19-1.05 1.05-1.85-.21-1.17-.33-2.35-.37-3.54.96.38 2.08.45 3.17.24 2.16-.43 4.23-1.76 5.68-3.39 1.52-1.71 2.61-3.92 2.6-6.25 0-2.14-1.05-4.25-2.91-5.36Z"/><path class="cls-3" d="M185.2 167.16c-.91-5.41-2.01-10.78-3.28-16.12-.15-.64-.73-.81-1.21-.66-.07-.3-.14-.57-.19-.77-.8-2.97-4.16-14.68-4.03-17.58.13-2.9-1.01-14.85-1.77-17.78-.77-2.93-3.35-10.56-5.11-13.34-1.75-2.79-7-9.66-9.85-11.34-2.85-1.67-9.95-5.56-9.95-5.56l-1.62-3.92c.69-.61.16-2.03-.92-1.71l-9.29 2.76c-3.02.89-6.07 1.74-9.22 1.91-.1 0-.19.03-.27.05-.07 0-.14.01-.2.03-.56.18-.79.67-.7 1.23l.64 3.77c-2.81 5.15-5.21 10.52-7.18 16.05-1.95 5.51-3.55 11.36-1.46 17.08 1.02 2.81 2.64 5.31 4.4 7.71.32 11.43.37 22.86 1.03 34.27.19 3.3.43 6.6.75 9.89 0 .03.01.05.02.08-.02.41.19.79.72.88 8.31 1.34 16.82 1.23 25.19.55 7.95-.65 15.9-1.81 23.66-3.63 3.09-.72 6.19-1.53 9.14-2.68.09-.04.17-.08.24-.13.32-.21.54-.58.46-1.06Z"/><path class="cls-12" d="M132.46 80.52c.28-1.06-.92-2.41-2.23-1.76h-.01c-1.22.61-2.49 1.09-3.8 1.45-.79.22-2.1.78-2.81.18-.71-.6-1.03-1.8-1.34-2.64-.47-1.26-.85-2.55-1.15-3.86a32.854 32.854 0 0 1 .07-15.18c.59-.05 1.19-.17 1.75-.33 1.35-.38 2.65-.87 3.67-1.81.39-.37.37-1.04 0-1.41-.39-.39-1.02-.37-1.41 0-.23.21-.49.38-.77.53-.12-.17-.3-.3-.52-.35v-.02c-.89-.19-1.81-.33-2.72-.4-.41-.03-.82-.05-1.23-.05h-.31s-.25-.03-.19-.01c-.06-.02-.12-.04-.19-.05-.03-.01-.05-.03-.07-.04h-.01l-.01-.01c-.04-.04-.08-.08-.12-.13 0-.01-.07-.1-.09-.13 0 0-.03-.05-.05-.08 0-.02-.06-.16-.07-.18-.02-.07-.03-.14-.05-.21 0-.02 0-.03-.01-.04v-.38c0-.11.01-.21.03-.31 0-.04.02-.11.02-.13.04-.2.09-.39.13-.59.02-.09.05-.18.07-.27.37.25.94.17 1.25-.14.41-.41.35-1 0-1.41-.44-.54-.86-1.15-1.36-1.61-.65-.6-1.49-.34-2.05.23-.87.87-1.09 2.28-1.15 3.45-.11 2.1.77 4.18 2.51 5.29a35.985 35.985 0 0 0 .36 18c.42 1.49.93 2.96 1.57 4.37.53 1.17 1.31 2.28 2.53 2.81 1.45.64 3.07.19 4.53-.21.81-.22 1.6-.49 2.37-.8.06 1.02.12 2.04.23 3.06.04.41.14.76.44 1.06.26.26.69.45 1.06.44.74-.03 1.59-.67 1.5-1.5-.17-1.61-.21-3.23-.36-4.84Z"/><path class="cls-3" d="M149.53 84.98c9.32 3.53 16.74 10.72 20.91 19.72 2.16 4.66 3.47 9.69 4.27 14.76.84 5.37.77 10.82 1.52 16.2.75 5.41 2.39 10.64 3.77 15.92.33 1.25 2.26.71 1.93-.53-1.27-4.85-2.77-9.67-3.58-14.63-.88-5.41-.79-10.92-1.55-16.36-1.45-10.31-5.19-20.5-12.68-27.97a39.73 39.73 0 0 0-14.06-9.03c-1.21-.45-1.73 1.47-.53 1.93Z"/><path class="cls-9" d="M161.16 46c-.62-3.08-2.75-5.73-4.87-7.94-1.05-1.1-2.2-2.11-3.46-2.97-1.31-.9-2.73-1.49-4.23-2.03-1.49-.54-2.55-1.29-3.51-2.47-.91-1.1-1.6-2.37-2.35-3.57-1.58-2.53-3.5-4.85-5.94-6.6-2.44-1.75-5.57-2.83-8.63-2.62-3.07.22-6.08 1.67-7.39 4.59-1.43 3.19-1.34 7.23-.91 10.63.44 3.5 1.47 6.87 3.06 10.01-1.78 3.35-3.43 6.76-4.93 10.25-.04.1-.07.2-.09.3-.24.51-.11 1.21.6 1.37 9.26 2.2 18.42 4.77 27.47 7.73.34.11.62.04.83-.12.2-.08.36-.21.45-.41.82-1.91 1.66-3.8 2.53-5.69 5.66-.15 12.7-3.88 11.38-10.47Z"/></g><g id="Layer_24"><path class="cls-1" d="M134.16 136.53c-1.77.55-3.55 1.11-5.31 1.69 1.41 1.46 2.85 2.9 4.29 4.33.41-2 .74-4.01 1.02-6.03ZM124.55 95.98l-.15.05c-.7 1.62-1.38 3.27-2 4.84.38.38.75.77 1.13 1.14.41-2 .74-4.01 1.02-6.03ZM138.91 175.03c1.14.03 2.34.04 3.6.04.06-.42.13-.83.19-1.25-1.27.39-2.53.8-3.79 1.21ZM156.38 111.49c.41-2 .74-4.01 1.02-6.03-1.77.55-3.55 1.11-5.31 1.69 1.41 1.46 2.85 2.9 4.29 4.33Z"/><path class="cls-1" d="M185 165.94c-.31-2.03-1.49-8.18-2.62-12.79-.37-1.5-.73-2.91-1.05-4.14-.59 3.38-1.34 6.73-2.27 10.04-1.1 3.94-6.2 3.41-7.55.53-4.29-4.06-8.43-8.24-12.45-12.57-.89-.96-1.19-2.04-1.08-3.06-.05-1.65.76-3.36 2.73-4.06 5.57-1.97 11.19-3.77 16.86-5.4.17-.05.33-.08.51-.1-.37-3.5-.65-7.98-1.35-14.57-1.17-11.03-6.03-19.09-7.94-22.02-1.92-2.93-6.22-7.55-10.36-10.4-2.64-1.81-5.03-2.93-6.43-3.5-1.77 2.38-5.73 1.65-6.89-.84-1.05-.99-2.09-2-3.13-3.01-1.28.38-3.08.91-5.11 1.44-3.99 1.05-7.28 1.53-8.13 1.61s-1.25.27-1.1 1.37c.07.53.21 1.39.32 2.15.03 0 .07-.02.1-.03 2.35-.67 5.26 1.25 5.06 3.86-.52 7.01-1.69 13.93-3.59 20.7-1.1 3.94-6.2 3.41-7.55.53-.85-.8-1.68-1.61-2.51-2.42-1.1 4.36-1.05 8.7.07 11.91 1.25 3.6 4.42 7.9 4.42 7.9s.03.97.07 2.35c4.51-1.54 9.06-2.97 13.64-4.29 2.35-.67 5.26 1.25 5.06 3.86-.52 7.01-1.69 13.93-3.59 20.7-1.1 3.94-6.2 3.41-7.55.53a272.71 272.71 0 0 1-7.27-7.16c.08 2.83.15 5.59.15 7.36 0 4.04 1.17 19.66 1.21 20.41.04.74.23 1.25.67 1.31.09.01.17.03.25.04 0-.1 0-.2.01-.29-.05-1.65.76-3.36 2.73-4.06 5.57-1.97 11.19-3.77 16.86-5.4 2.35-.67 5.26 1.25 5.07 3.86-.16 2.17-.39 4.34-.68 6.5 7.28-.56 15.58-1.84 20.8-2.9 6.55-1.33 11.75-2.97 12.81-3.41 1.06-.43 1.09-.51.78-2.54Zm-30.14-44.78c-4.29-4.06-8.43-8.24-12.45-12.56-.89-.96-1.19-2.04-1.08-3.06-.05-1.65.76-3.36 2.73-4.06 5.57-1.97 11.19-3.77 16.86-5.4 2.35-.67 5.26 1.25 5.06 3.86-.52 7.01-1.69 13.93-3.59 20.7-1.1 3.94-6.2 3.41-7.55.53Z"/><path class="cls-1" d="M173.04 149.91c.41-2 .74-4.01 1.02-6.03-1.77.55-3.55 1.11-5.31 1.69 1.41 1.46 2.85 2.9 4.29 4.33Z"/><path class="cls-7" d="M131.62 152.21c1.35 2.88 6.45 3.41 7.55-.53 1.89-6.77 3.06-13.69 3.59-20.7.19-2.61-2.71-4.53-5.06-3.86-4.59 1.31-9.13 2.75-13.64 4.29.03 1.25.06 2.85.07 4.41.01 1.85.13 5.6.23 9.24 2.38 2.43 4.81 4.82 7.27 7.16Zm2.55-15.68c-.27 2.02-.61 4.03-1.02 6.03-1.45-1.43-2.87-2.87-4.29-4.33 1.77-.58 3.53-1.15 5.31-1.69ZM129.55 111.13c1.89-6.77 3.06-13.69 3.59-20.7.19-2.61-2.71-4.53-5.06-3.86-.03 0-.07.02-.1.03.12.81.23 1.49.23 1.49-1.23 2.24-2.55 5.05-3.8 7.92.05-.01.09-.03.15-.05-.27 2.02-.61 4.03-1.02 6.03-.38-.37-.75-.76-1.13-1.14-1.01 2.57-1.87 4.95-2.45 6.75-.17.54-.32 1.09-.46 1.63.83.81 1.67 1.62 2.51 2.42 1.35 2.88 6.45 3.41 7.55-.53ZM160.72 139.88c-1.97.7-2.79 2.41-2.73 4.06-.11 1.02.19 2.1 1.08 3.06 4.01 4.33 8.16 8.51 12.45 12.57 1.35 2.88 6.45 3.41 7.55-.53.93-3.31 1.68-6.66 2.27-10.04-.66-2.56-1.15-4.31-1.15-4.31s.07.25-1.09-4.23c-.47-1.81-.75-3.73-.99-6.09-.17.02-.34.05-.51.1-5.68 1.63-11.3 3.43-16.86 5.4Zm12.32 10.03c-1.45-1.43-2.87-2.87-4.29-4.33 1.77-.58 3.53-1.15 5.31-1.69-.27 2.02-.61 4.03-1.02 6.03ZM146.23 164.42c-5.68 1.63-11.3 3.43-16.86 5.4-1.97.7-2.79 2.41-2.73 4.06-.01.1-.01.2-.01.29.32.05.73.13 2.21.29 1.35.14 5.08.46 10.08.57 1.26-.41 2.52-.82 3.79-1.21-.06.42-.13.83-.19 1.25.9 0 1.83 0 2.79-.03 1.66-.03 3.45-.13 5.31-.27.29-2.15.52-4.32.68-6.5.19-2.61-2.71-4.53-5.07-3.86ZM152.01 83.89c-.8-.33-1.27-.48-1.27-.48s-1.33-3.22-1.8-4.24-1.02-1.05-1.4-.89c-.38.15-1.38.43-1.38.43s.67 2.35.86 2.82c.19.47-.04 1.13-.31 1.22s-1.26.86-1.69-.31-1.02-3.01-1.02-3.01-.76.24-2 .61c1.03 1.01 2.08 2.01 3.13 3.01 1.16 2.49 5.12 3.22 6.89.84Z"/></g><path class="cls-12" d="M147.41 81.52c-.69-1.86-1.27-3.79-1.71-5.73-.17-.77-1.1-1.29-1.85-1.05-.81.26-1.23 1.03-1.05 1.85.43 1.94 1.01 3.87 1.71 5.73.14.37.33.69.69.89.32.19.79.27 1.15.15.72-.23 1.34-1.06 1.05-1.85Z" id="Layer_26"/><g id="Layer_12"><path class="cls-3" d="M188.39 132.9c-.78-3.27-1.96-6.45-3.26-9.54-2.56-6.11-5.66-11.94-8.76-17.78-2.02-3.79-4.14-7.41-7.19-10.48a31.832 31.832 0 0 0-4.69-3.9c-.69-.47-1.41-.87-2.11-1.31.25.15-.37-.26-.48-.33-.35-.21-.73-.39-1.11-.56-3.01-1.35-6.11-1.92-9.24-.59s-5.76 4.13-7.08 7.11c-1.59 3.6-1.38 7.92-.43 11.66.51 2.01 1.31 3.97 2.57 5.63 1.43 1.87 3.33 3.13 5.45 4.11.7.32 1.35-.18 1.49-.75 1.6 1.24 2.93 3.7 4.11 5.68 1.47 2.46 6.53 9.29 8.86 11.59 2.33 2.3 7.65 8.01 9.9 9.37v-.02c1.89 1.15 4.46 1.25 7.01 1.22 2.02-.02 3.37-.72 3.95-2.52.51.5 1.49.5 1.62-.38.41-2.74.03-5.52-.61-8.2Z"/><path class="cls-3" d="M168.88 135.02c-2.15-4.05-5.89-6.85-8.48-10.57-2.21-3.19-3.49-7.47-7.27-9.21-1.16-.53-2.18 1.19-1.01 1.73 3.56 1.63 4.71 5.97 6.87 8.93 2.57 3.51 6.12 6.26 8.17 10.14.61 1.14 2.33.13 1.73-1.01ZM165.59 139.57c1.42 1.36 3.21 2.38 4.95 3.28 2.28 1.18 4.69 2.25 7.25 2.63 2.52.36 5.05-.05 7.38-1.06 1.71-.73 3.65-1.94 4.01-3.93.4-2.23-.81-4.62-1.63-6.62-.48-1.17-2.41-.66-1.93.53.45 1.09.94 2.19 1.27 3.33.24.81.57 1.91.23 2.73-.39.95-1.47 1.53-2.34 1.95-1.21.59-2.55.99-3.89 1.14-2.85.32-5.58-.59-8.11-1.81-2-.96-4.17-2.03-5.78-3.58-.93-.89-2.35.52-1.41 1.41Z"/></g><g id="Layer_25"><path class="cls-1" d="M153.68 112.55a86.84 86.84 0 0 0 2.59-5.53c-1.86.05-3.71.13-5.57.21.97 1.79 1.97 3.56 2.97 5.32Z"/><path class="cls-1" d="M188.61 140.38c-3.04-5.05-5.92-10.2-8.63-15.44-.6-1.17-.6-2.29-.22-3.24.35-1.47 1.42-2.77 3.18-3.1-1.75-3.65-3.83-7.67-6.15-12.62-3.98-8.48-10.35-14.18-16.3-16.46-5.95-2.27-16.1 3.05-16.78 6.67-.19 1.02-.3 2.27-.33 3.61.35-.12.71-.21 1.12-.24 5.89-.41 11.79-.64 17.7-.69 2.45-.02 4.73 2.61 3.85 5.07-2.38 6.62-5.36 12.96-8.99 18.98-.06.11-.13.19-.2.28 2.99 3.72 8.54 10.78 8.54 10.78s3.97-1.22 10.6 1.24c6.63 2.45 12.75 7.39 12.75 7.39.11-.38.2-.76.27-1.15-.19-.35-.32-.72-.39-1.11v.02Z"/><path class="cls-7" d="M165.87 101.34c.04-.47.09-.94.12-1.42.19-2.61-2.71-4.53-5.06-3.86-3.45.99-6.87 2.05-10.28 3.16-2.06.1-4.11.21-6.17.36-.41.03-.77.12-1.12.24-.02.63 0 1.29.01 1.95-1.47.82-2.09 2.3-2.04 3.75-.11 1.02.19 2.1 1.08 3.06 4.01 4.33 8.16 8.51 12.45 12.56.35.74.95 1.33 1.66 1.72.1.12.2.24.3.37.04-.06.08-.11.12-.17 2.02.86 4.7.28 5.47-2.45 1.38-4.94 2.37-9.96 3.01-15.04.2-.53.41-1.07.6-1.61.32-.91.22-1.83-.16-2.64Zm-13.76 5.83c1.39-.06 2.77-.12 4.16-.16-.43 1.01-.89 2-1.35 2.99-.94-.94-1.88-1.88-2.81-2.83ZM179.76 121.71c-.38.95-.38 2.07.22 3.24 2.71 5.24 5.59 10.38 8.63 15.44.07.39.2.77.39 1.11.89-4.64-.87-10.12-2.83-15.46-.89-2.41-1.97-4.83-3.23-7.43-1.76.33-2.83 1.63-3.18 3.1Z"/></g><path class="cls-11" d="m163.82 148.31-8.66 16.46-2.93 4.28s-6.57 4.03-6.83 4.37-3.49 1.16-5.21 2.07-3.77 1.75-4.51 1.95c-.73.19-1.15 1.34-1.15 1.34s3.36 1.22 3.7 1.52c.34.3-1.88 2.81-2.01 3.84-.13 1.03-.9 2-.83 2.55s2.56 8.56 2.56 8.56.97-.99 1.07-2.05c.11-1.05-.07-4.77-.07-4.77s1.09 4.39 2.34 5.91c1.25 1.53 2.85 3.93 3.57 2.99.72-.94.66-3.83.69-4.47s.11-2.97.11-2.97 1.77 5.99 2.78 6.46c1.01.47 1.33.83 1.91-.25.58-1.09.89-2.63.75-3.13-.13-.49-.48-2.77-.48-2.77s1.48 4.61 3.41 2.87c1.93-1.75 3.01-3.36 2.21-3.55-.81-.19-1.28.51-.96-.75.32-1.25.23-2.39.67-3.17.45-.78 1.53-1.55 1.33-2.69-.2-1.13-.32-1.31.65-2.52s2.39-3.8 3.27-6.16c.87-2.36 9.3-8.58 9.9-9.15.59-.57 9.96-9.65 12.26-14.13 0 0-11.35-1.89-14.3-2.21-2.95-.32-5.23-.4-5.23-.4h-.01Z"/><g id="Layer_11"><path class="cls-3" d="M188.36 138.2c-.29-2.03-1.57-4.22-3.24-5.44-1.61-1.18-3.85-1.35-5.78-1.12-4.24.51-7.83 3.1-10.5 6.31-.81.99.59 2.41 1.41 1.41.07-.08.15-.17.23-.25l8.92-.46 7.27.52c.26.24.66.34.98.26.57-.15.77-.7.7-1.23Z"/><path class="cls-6" d="M189.91 138.6h-.01c-4.14-.68-8.33-1.03-12.53-.98-2.05.02-4.11.13-6.15.34-2 .2-4.02.37-5.87 1.19-.01 0-.02.01-.03.02-.19.03-.36.12-.49.27a46.928 46.928 0 0 0-3.69 5.3c-.27.45-.53.89-.77 1.35-.25.45-.57.97-.68 1.51-.21 1.08.56 2.05 1.54 2.06.1.04.21.06.33.06 7.91.17 15.82 1.03 23.59 2.57h.04c.13.07.28.12.46.12 1.49.05 2.26-1.33 2.91-2.46.75-1.3 1.45-2.63 2-4.03.68-1.71 2.25-6.84-.63-7.33Z"/><path class="cls-12" d="M182.36 149.67c-2.8 4.56-6.45 8.54-10.23 12.28-3.83 3.79-7.89 7.34-11.92 10.92-.32.28-.46.61-.47.93v.02c-.16.64-.38 1.26-.61 1.88l-.12.27c-.07.14-.13.28-.2.42-.15.31-.32.62-.5.92-.17.29-.34.56-.53.83-.1.15-.2.29-.3.43-.04.05-.08.11-.12.16-.44.54-.91 1.05-1.42 1.53-.25.23-.38.56-.42.9 0 .05-.01.11-.02.17 0 .16 0 .32.05.48.03.08.04.18.06.27.01.18.01.36 0 .53-.06.33-.15.65-.27.96-.25.54-.54 1.05-.85 1.55-.21.34-.24.77-.14 1.15 0 .09-.01.19-.02.28-.09.61-.25 1.2-.48 1.78-.04.09-.08.18-.13.27-.2.31-.29.69-.22 1.05 0 .06.01.12.03.18.09.35.37.73.69.89.07.04.15.07.23.1a4.885 4.885 0 0 1-.55.58l-.02.02c-.07.04-.13.09-.2.13-.03.02-.14.05-.2.09h-.03s-.09.03-.13.04h-.03c-.03 0-.07-.02-.1-.02-.03-.02-.07-.04-.1-.06-.06-.05-.11-.1-.16-.16-.02-.02-.04-.05-.06-.07-.02-.03-.04-.06-.07-.1-.16-.24-.3-.49-.43-.74-.1-.27-.27-.51-.52-.68 0-.09 0-.18.01-.26 0-.1.02-.2.03-.3 0-.09.03-.22 0-.06.03-.21.07-.43.11-.63.14-.77-.21-1.65-1.05-1.85-.73-.17-1.7.22-1.85 1.05-.27 1.5-.35 2.98-.21 4.5.08.87.23 1.58.59 2.37-.04.09-.08.16-.01.02-.06.11-.13.22-.2.32-.06-.06-.12-.12-.17-.19-.03-.03-.05-.06-.07-.08-.01-.02-.03-.04-.06-.09-.09-.13-.17-.26-.26-.39-.17-.27-.31-.55-.45-.83-.02-.04-.14-.32-.13-.29-.05-.12-.09-.24-.13-.35-.11-.3-.21-.61-.3-.92-.19-.64-.35-1.29-.5-1.93 0-.03-.02-.05-.03-.08-.07-.49-.34-.94-.83-1.15v-.1c.05-.79-.73-1.53-1.5-1.5-.86.04-1.44.66-1.5 1.5-.06.84-.01 1.67.03 2.51.05.89 0 1.77.16 2.65.07.38.15.76.27 1.12.02.05.04.1.06.14-.37-.37-.72-.76-1.04-1.16-.07-.1-.15-.19-.21-.29 0 0 0-.01-.01-.02-.28-.91-.54-1.83-.73-2.77-.11-.52-.21-1.04-.29-1.56-.02-.14-.05-.28-.06-.42l.02.15-.03-.24c-.03-.28-.07-.57-.09-.85-.07-.75-.61-1.48-1.42-1.49-.36-.49-1.04-.76-1.62-.57-.81.26-1.23 1.02-1.05 1.85.06.27.11.55.15.83.02.2.04.39.05.59-.2-.72-.39-1.44-.56-2.16 1.29-2.82 2.8-5.53 4.57-8.08.02-.02.02-.05.04-.07 1.83-1.46 3.68-2.89 5.57-4.27.06-.04.12-.08.17-.13 1.2-.88 2.42-1.75 3.64-2.6.65.56 1.73.65 2.28-.31 4.24-7.36 7.92-15.02 11.9-22.52.91-1.71-1.69-3.22-2.59-1.51-3.52 6.63-6.8 13.38-10.44 19.94-2.22 1.48-4.4 3.02-6.55 4.6-.02 0-.03.01-.05.02-.94.43-1.87.85-2.85 1.17-.97.33-1.91.52-2.83.89-.91.37-1.75.97-2.68 1.35-.98.41-2.03.66-3.07.91-.43.1-.77.42-.95.82-.29.46-.3 1.05-.21 1.56.07.35.23.69.44.98.4.57.87 1.03 1.47 1.39.44.26.93.45 1.44.57-.78 1.4-1.49 2.83-2.14 4.3-.17.38-.22.82-.11 1.22-.01.16 0 .32.03.49.65 2.72 1.47 5.4 2.49 8 .11.29.3.56.54.76.11.13.23.25.39.33.71.38 1.63.19 2.05-.54.2-.34.37-.7.5-1.07.07.1.15.19.23.28.59.82 1.25 1.59 2.01 2.26.19.17.4.3.64.37.5.27 1.05.64 1.6.75.89.17 1.66-.23 2.15-.95.17-.26.3-.53.38-.82.15.17.31.34.48.49.67.59 1.52.98 2.43.75.81-.2 1.33-.81 1.79-1.46.46-.65.82-1.41.79-2.21.59.16 1.22.17 1.85-.04.97-.32 1.76-.97 2.39-1.77.3-.38.63-.77.87-1.2.35-.63.47-1.29.33-2-.11-.57-.45-1.02-.91-1.34.18-.66.28-1.34.32-2.03.78-1.34 1.42-2.81 1.27-4.36 1.9-1.97 3.28-4.42 3.98-7.07 8.05-7.15 16.69-14.32 22.37-23.59 1.01-1.65-1.58-3.16-2.59-1.51Zm-44.45 28.61c.18-.07.35-.15.52-.23-.17.25-.33.5-.49.75-.21 0-.43 0-.64-.01-.17-.03-.33-.07-.5-.12.37-.12.74-.24 1.11-.38Zm11.57 16.35s0-.08.02-.13c.02 0 0 .07-.02.13Zm6.14-3.85c.12 0 .27.05 0 0Z"/></g><g id="Layer_7"><path class="cls-5" d="M39.97 120.4c-7.36-4.97-9.01-14.53-7.75-22.76.08-.49-.18-.88-.52-1.08-.15-.12-.35-.2-.6-.21l-15.48-.38c-.44-.01-.73.22-.87.52-.01.02-.02.05-.04.08v.01c-.02.05-.04.09-.05.15-2.76 10.44.63 21.74 8.74 28.88.79.7 1.89-.13 1.71-.93 2.76-.6 10.43-2.27 13.37-2.92.16.12.31.24.48.36 1.07.72 2.07-1.01 1.01-1.73Z"/><path class="cls-9" d="M24.48 125.92c5.21-.87 10.36-2.03 15.45-3.45 1.24-.35.71-2.27-.53-1.93-5.09 1.42-10.24 2.57-15.45 3.45-1.27.21-.73 2.14.53 1.93Z"/></g><g id="Layer_13"><path class="cls-9" d="M66.07 164.58c.39-.15 1.31-1.29 1.31-1.29s-1.54-2.09-1.96-2.45-26.63-23.73-26.63-23.73l-19.15-18.68-2.17-1.02s16.96-4.83 17.2-4.89 13.58-2.79 13.58-2.79l34.61 27.75s11.83 9.71 12.07 9.93 1.57 2.58 1.18 3.01-3.25 2.09-3.53 2.23c-.28.14-22.46 10.66-22.7 10.64s-3.81 1.29-3.81 1.29Z"/><path class="cls-5" d="M65.05 155.67c-.1.33-19.96-17.52-23.66-20.85-3.71-3.33-13.41-12.9-13.41-12.9l15.84-4.51 6.25-1.7 4.83 3.67 32.66 26.4-13.03 5.95-9.48 3.95Z"/><path class="cls-8" d="m46.29 144.08-26.65-25.65s-1.89-1.34-3.73-.26c-1.83 1.08-4.4 4.54-4.86 8.66-.46 4.13.17 10.56.99 13.6.81 3.04 2.07 5.69 4.19 6.45 2.11.76 7.86 1.53 10.34.76 2.48-.77 5.17-2.75 5.39-2.99s.81-.78.81-.78l16.58 10.86s15.36 10.57 15.71 10.26 1.78-1.13 1.89-1.57c.11-.44-.12-1.57-.53-1.74s-20.12-17.6-20.12-17.6Z"/></g><g id="Layer_10"><path class="cls-9" d="m65.91 162.62.03.04-.15-.2c.14.19.27.37.37.58l-.1-.24c.05.11.07.21.09.32l-.03-.27v.24l.03-.27c-.01.09-.04.18-.07.27l.1-.24c-.06.13-.13.25-.22.37l.15-.2c-.19.25-.42.47-.67.67l.2-.15c-.11.08-.22.15-.34.21l.24-.1c-.11.05-.22.08-.34.09l.27-.03c-.13.01-.27.01-.4 0l.27.03a2.43 2.43 0 0 1-.6-.17l.24.1c-.11-.05-.23-.01-.34-.07-.46-.25-1.11-.22-1.36.27s-.13 1.1.36 1.37c.55.3 1.2.55 1.84.47.38-.04.74-.14 1.07-.35.25-.17.49-.37.7-.58.47-.47.85-1.03.89-1.72.04-.69-.38-1.31-.79-1.84-.15-.19-.48-.29-.71-.29-.25 0-.54.11-.71.29s-.31.44-.29.71l.03.27c.05.17.13.31.26.44h-.02ZM88.28 145.08c-9.6-8.06-19.28-16.02-29.18-23.71-2.82-2.19-5.66-4.37-8.52-6.51-.33-.24-.65-.24-.9-.09h-.06c-7.36 1.86-14.7 3.76-22 5.82-.09.02-.18.04-.27.08-.47.18-.66.61-.61 1.02 0 .17.07.35.19.51.02.03.04.06.07.1 4.71 5.21 9.94 9.88 15.18 14.54 4.95 4.41 9.93 8.78 14.91 13.16 2.37 2.08 4.73 4.16 7.1 6.25.05.04.09.07.14.1.21.29.55.44 1 .26 7.59-3.01 14.99-6.43 22.52-9.58.44-.19.76-.56.73-1.04.1-.3.05-.65-.28-.92Zm-49.88-14.3c-3.05-2.77-6.02-5.64-8.84-8.65 6.73-1.88 13.5-3.63 20.27-5.35 9.94 7.47 19.63 15.25 29.21 23.18 2.3 1.9 4.59 3.82 6.87 5.74-6.91 2.93-13.73 6.05-20.69 8.83-8.96-7.89-17.99-15.71-26.83-23.74Z"/><path class="cls-8" d="M64.25 163.31c-10.34-6.77-20.68-13.54-31.02-20.32-.32-.21-.63-.2-.89-.07-.24.06-.46.22-.63.46-.05.07-.09.13-.15.2 0-.01.01-.02-.03.03-.09.11-.19.23-.29.34-.2.23-.41.44-.63.64-.11.1-.23.2-.34.3-.05.05-.11.09-.15.13-.03.03-.18.14-.08.06-.25.18-.49.35-.76.51-.25.15-.5.29-.76.41-.12.06-.24.12-.37.17-.01 0-.12.04-.13.05-.06.03-.13.05-.19.07-.29.1-.57.19-.87.25-.15.03-.29.07-.44.09-.05 0-.09.02-.14.02-.02 0-.18.02-.18.02-.07 0-.14.02-.2.04h-.06c-2.2.06-4.47.27-6.67.07-1.57-.14-3.37-.82-4.23-2.23 0-.02-.01-.04-.02-.05-2.43-4.12-3.6-8.87-3.43-13.64.09-2.35.51-4.69 1.25-6.92.69-2.08 1.67-4.7 4.01-5.32 1.24-.33.71-2.26-.53-1.93-2.7.71-4.05 3.13-4.99 5.56-.97 2.49-1.52 5.13-1.69 7.78-.36 5.32.9 10.73 3.59 15.34.02.04.03.09.06.13 1.03 1.76 3.1 2.85 5.07 3.16 2.49.39 5.09.12 7.59.05.09 0 .17-.02.24-.03h.02c2.6-.24 4.95-1.59 6.63-3.55 10.13 6.64 20.27 13.27 30.4 19.91 1.08.71 2.08-1.03 1.01-1.73Z"/><path class="cls-9" d="M97.28 149.11c-.47-1.94-2.62-3.19-4.06-4.37-3.68-3-7.34-6.03-11-9.06-7.17-5.94-14.32-11.88-21.66-17.6-4.06-3.17-8.18-6.22-12.37-9.2-.33-.24-.66-.22-.92-.07a244.363 244.363 0 0 0-30.4 7.62 7.2 7.2 0 0 0-4.11 2.8c-.2.28.19.61.45.45 1.1-.63 2.32-1 3.57-1.12.07.01.14.02.21 0 .23-.03.45-.03.67-.02.01 0 .25.02.09 0-.17-.01.07.02.09.02.11.03.22.05.33.09h.02c.03.02.06.03.09.04.07.04.15.08.23.12s.14.09.21.13c.03.02.08.06.12.09.56.5 1.11 1.03 1.7 1.51 0 0 .02.01.02.02a613.979 613.979 0 0 0 34.78 32.91c2.89 2.53 5.8 5.02 8.73 7.49.34.43.59.94.63 1.47.05.86-.59 1.57-1.13 2.16-.04.05-.06.09-.08.14-.07.12-.04.3.06.4.05.05.1.07.15.08.09.09.23.12.37.03.29-.2.54-.42.79-.66-.07.66.42 1.36 1.19 1.05 9.82-3.85 19.45-8.21 28.82-13.06 1.3-.71 2.83-1.79 2.41-3.49ZM18.24 118.7c.05.02.03.01 0 0Zm75.63 32.17a296.73 296.73 0 0 1-27.72 12.62c.06-.18.11-.36.17-.53.03-.1.06-.21.07-.32.81-.02 1.51-1.01.74-1.66a618.074 618.074 0 0 1-35.53-32.16 676.05 676.05 0 0 1-9.65-9.66c-.64-.52-1.21-1.12-1.87-1.63 8.98-2.76 18.14-5.01 27.37-6.72 14.01 9.99 27.09 21.16 40.37 32.08 1.91 1.57 3.83 3.14 5.75 4.71.47.38 1.9 1.33 1.79 2.09-.07.53-1.1.97-1.5 1.19Z"/></g><path class="cls-6" d="M144.84 52.71c.02-.41-1.07-.68-2.28-1.7-.6-.51-1.24-1.18-1.72-2.06-.25-.43-.43-.91-.58-1.41-.05-.25-.13-.51-.15-.77l-.03-.19c0-.29.01-.39.02-.6l.06-1.09.09-1.17c-.67.12-1.34.24-1.99.36-.33.06-.65.12-.96.14-.23.02-.3.03-.46.04-.55.04-1.08.03-1.58 0a15.03 15.03 0 0 1-2.7-.42c-1.54-.38-2.52-.8-2.75-.5-.21.26.41 1.27 2.03 2.22.8.47 1.86.9 3.09 1.13.62.11 1.28.19 1.98.19.15 0 .39-.01.48 0s0 .02 0 .02c0-.03.01.06 0-.06l.05.31c.05.41.17.8.28 1.18.27.74.61 1.41 1.03 1.98a7.176 7.176 0 0 0 2.82 2.34c1.96.86 3.3.38 3.27.05ZM159.94 122.23c-.71.23.13 4.79 1.89 10.17 1.76 5.39 3.76 9.57 4.48 9.33s-.13-4.79-1.89-10.18c-1.76-5.39-3.76-9.56-4.48-9.33Z"/></svg>