<svg id="Illustration" xmlns="http://www.w3.org/2000/svg" viewBox="0 0 200 200"><defs><style>.cls-4,.cls-5{stroke-width:0}.cls-4{fill:#fff}.cls-5{fill:#ea718b}</style></defs><path class="cls-5" d="M19.03 62.05c-1.24-.41-2.92 1.17-2.14 2.34 3 4.26 5.93 8.82 8.77 13.54.96-3.29 1.21-7.88 1.5-12.97-2.74-.89-5.45-1.86-8.12-2.92Z"/><path class="cls-5" d="M174.82 138.39c-5.04-17.19-11.69-33.93-19.64-50.08-9.07-21.83-20.23-42.89-34.02-62.34-17.99-10-13.57-9.92-17.97 5.84-16.77-6.59-13.87-7.83-18.87 8.74-15.83-6.84-13.91-8.33-17.03 8.15C50.21 42 54.74 40.05 50 57.1c-17.36-6.31-13.29-8.02-17.99 9.35-1.62-.46-3.24-.95-4.85-1.47-.28 5.09-.54 9.68-1.5 12.97 8.61 14.32 16.49 30.2 23.6 44.14 11.43 23.73 21.87 48.94 28.55 74.32.4 1.35 2.74 1.19 3.24.04 1.54-4.15 3.32-8.21 5.3-12.18 16.64 8.35 12.54 9.98 19.29-6.54 16.41 8.1 11.83 9.9 18.09-6.68 14.88 8.86 12.41 9.13 17.71-6.67 3.41 1.59 5.96 2.9 7.94 3.82 7.43 3.46 6.61 1.47 11.46-11.4 15.12 7.41 12.24 10.65 16.57-8.88-.82-3.19-1.69-6.36-2.62-9.53Zm-14.87 14.75c-.11.03-.18.02-.21-.03.03.04.1.05.21.02v.01Zm1.17-.62c-.2-.28 1.34-2.65 2.24-3.29-.02-.03-.03-.06-.06-.08.03.02.05.05.06.08-.89.64-2.41 2.96-2.25 3.28Zm2.55-2.79h.01v-.01c-.05.17-.05.15-.02.03Zm.92-1.67c-.89.47-1.42.78-1.45.71.08.04.64-.28 1.53-.76-.03.01-.05.04-.08.05Z"/><path d="M21.51 49.38c-1.24-.43-2.92 1.22-2.14 2.44 3 4.44 5.93 9.2 8.77 14.12.96-3.43 1.21-8.21 1.5-13.52-2.74-.92-5.45-1.94-8.12-3.04Z" style="stroke-width:0;fill:#fa9daa"/><path d="M177.22 128.7c-5.04-17.92-11.69-35.37-19.64-52.2-9.07-22.75-20.23-44.71-34.02-64.98-17.99-10.42-13.57-10.34-17.97 6.09-16.77-6.87-13.87-8.16-18.87 9.11-15.83-7.13-13.91-8.68-17.03 8.49-17.08-6.98-12.55-9.01-17.29 8.76-17.36-6.58-13.29-8.36-17.99 9.75-1.62-.48-3.24-.99-4.85-1.53-.28 5.3-.54 10.09-1.5 13.52 8.61 14.93 16.49 31.49 23.6 46.01 11.43 24.73 21.87 51.01 28.55 77.48.4 1.41 2.74 1.25 3.24.04 1.54-4.32 3.32-8.56 5.3-12.69 16.64 8.7 12.54 10.41 19.29-6.82 16.41 8.44 11.83 10.32 18.09-6.96 14.88 9.24 12.41 9.52 17.71-6.95 3.41 1.66 5.96 3.02 7.94 3.98 7.43 3.6 6.61 1.53 11.46-11.89 15.12 7.73 12.24 11.1 16.57-9.25-.82-3.33-1.69-6.63-2.62-9.93Zm-14.86 15.37c-.11.03-.18.02-.21-.03.03.05.1.06.21.02v.01Zm1.17-.64c-.2-.29 1.34-2.76 2.24-3.43-.02-.03-.03-.06-.06-.08.03.02.05.05.06.09-.89.66-2.41 3.09-2.25 3.42Zm2.55-2.92.01-.01v-.01c-.05.18-.05.16-.02.03Z" style="fill:#f2a6b0;stroke-width:0"/><path d="M166.16 140.75h-.02c-.04.15-.04.17.02 0Z" style="fill:#bbd4d8;stroke-width:0"/><path d="m69.73 71.91-1.68-2.47c-.45-.65-1.31-1.07-2.06-.61 0 0-.02.02-.03.02-.12.02-.25.07-.37.12-5.11 2.34-10.07 5.02-14.83 8.02-.71.25-1.27 1.01-1.04 1.78.36 1.24.99 2.36 1.92 3.26.47.46 1.24.64 1.83.3 5.09-3.02 10.31-5.81 15.64-8.36.68-.33 1.06-1.4.61-2.06Z" style="fill:#ff8000;stroke-width:0"/><path class="cls-4" d="M106.65 74.86c-.4-.83-11.17 3.52-24.04 9.73-12.88 6.21-22.99 11.92-22.59 12.75.4.83 11.17-3.52 24.04-9.73 12.88-6.21 22.99-11.92 22.59-12.75ZM117.96 90.16c-.41-.83-11.97 4-25.83 10.78-13.86 6.79-24.76 12.96-24.36 13.79.41.83 11.97-4 25.83-10.78 13.86-6.79 24.76-12.96 24.36-13.79ZM122.59 109.91c-.4-.83-11.17 3.52-24.04 9.73-12.88 6.21-22.99 11.92-22.59 12.75.4.83 11.17-3.52 24.04-9.73 12.88-6.21 22.99-11.92 22.59-12.75ZM135.17 60.77c-.16-.17-2.52-.49-9.16 2.67-6.64 3.16-8.81 5.2-8.6 5.62.21.42 3.22-.08 9.86-3.24 6.64-3.16 8.22-4.7 7.9-5.05ZM144.77 76.75c-.16-.17-2.52-.49-9.16 2.67-6.64 3.16-8.81 5.2-8.6 5.62.21.42 3.22-.08 9.86-3.24 6.64-3.16 8.22-4.7 7.9-5.05ZM150.96 96.7c-.16-.17-2.52-.49-9.16 2.67-6.64 3.16-8.81 5.2-8.6 5.62.21.42 3.22-.08 9.86-3.24 6.64-3.16 8.22-4.7 7.9-5.05Z"/><path d="m157.79 114.64-2.16-.92c-.77-.33-1.67.03-2 .8l-3.75 8.75-8.75-3.75c-.77-.33-1.67.03-2 .8l-.92 2.16c-.33.77.03 1.67.8 2l8.75 3.75-3.75 8.75c-.33.77.03 1.67.8 2l2.16.92c.77.33 1.67-.03 2-.8l3.75-8.75 8.75 3.75c.77.33 1.67-.03 2-.8l.92-2.16c.33-.77-.03-1.67-.8-2l-8.75-3.75 3.75-8.75c.33-.77-.03-1.67-.8-2Z" style="fill:#f75e28;stroke-width:0"/></svg>