<?xml version="1.0" encoding="UTF-8"?>
<svg id="Illustration" xmlns="http://www.w3.org/2000/svg" viewBox="0 0 200 180">
  <defs>
    <style>
      .cls-1 {
        fill: #f9ec6d;
      }

      .cls-2 {
        fill: #eeb217;
      }

      .cls-3 {
        fill: #fff;
      }

      .cls-4 {
        fill: #ffbe04;
      }

      .cls-5 {
        fill: #edaf18;
      }

      .cls-6 {
        fill: #f70;
      }

      .cls-7 {
        fill: #9bb5b5;
      }
    </style>
  </defs>
  <path class="cls-5" d="m194.7,131.39c-.19-1.18-.19-1.19,0,0,.09.58-1.15-6.24-1.13-5.68-.35-2.06-1.29,3.48-1.72,1.44,0-.02-.01-.03-.02-.05-1.23-6.46-2.51-12.9-3.83-19.34-1.35-6.61-2.75-13.2-4.17-19.79-1.41-6.51-2.85-13.02-4.31-19.52-1.46-6.5-2.94-13-4.43-19.5-.75-3.28-1.5-6.56-2.26-9.84-.33-1.43-.74-2.9-1.77-4-.94-.99-2.31-1.37-3.65-1.39-.72-.01-1.44.1-2.15.23-3.03.64-6.07,1.28-9.1,1.92-1.43.3-2.85.6-4.28.9-3.86.82-7.72,1.63-11.58,2.45-5.65,1.19-11.29,2.39-16.94,3.58-6.85,1.45-13.69,2.9-20.54,4.34-7.41,1.57-14.81,3.13-22.22,4.7-7.32,1.55-14.63,3.1-21.95,4.64-6.63,1.4-13.26,2.81-19.9,4.21-5.34,1.13-10.69,2.26-16.03,3.39-3.4.72-6.81,1.44-10.21,2.16-1.22.26,2.59.17,1.33.61,1.43-.94-2.15-.18-.7-.93,1.05-.54.4-2.29-.66-1.74-.94.48-2.12.28-3.14.6-.99.31-1.91.86-2.65,1.59-1.46,1.43-2.11,3.47-1.87,5.46-.04,1.22.25,2.45.48,3.63.29,1.55.58,3.11.9,4.66,0,.02.01.04.02.07,1.23,6.45,2.51,12.89,3.83,19.33,1.35,6.61,2.75,13.2,4.17,19.79,1.41,6.51,2.85,13.02,4.31,19.52,1.46,6.5,2.94,13,4.43,19.5.75,3.28,1.5,6.56,2.26,9.84.33,1.43.74,2.9,1.77,4,.94.99,2.31,1.37,3.65,1.39.72.01,1.44-.1,2.15-.23,10.37-2.19,20.75-4.39,31.12-6.59,8.49-1.8,16.98-3.6,25.46-5.39,7.81-1.65,15.62-3.31,23.43-4.96,8.34-1.77,16.67-3.53,25.01-5.3,10.07-2.13,20.14-4.26,30.22-6.4,1.44-.3,2.88-.61,4.32-.91,3.01-.63,6.01-1.26,9.02-1.89,1.83-.38,3.66-.77,5.48-1.15.62-.13,1.24-.25,1.85-.42,1.82-.26,3.61-.97,4.77-2.44,1.54-1.94,1.57-4.14,1.2-6.49Z"/>
  <path class="cls-4" d="m195.99,126.5c-.35-2.07-.75-4.14-1.18-6.2,0-.02-.01-.03-.02-.05-1.21-6.42-2.47-12.83-3.77-19.24-1.33-6.57-2.7-13.13-4.11-19.69-1.39-6.48-2.81-12.95-4.24-19.42-1.44-6.47-2.9-12.93-4.36-19.4-.74-3.26-1.48-6.52-2.23-9.78-.33-1.43-.73-2.88-1.76-3.98-.93-.99-2.3-1.37-3.62-1.39-.72-.01-1.43.09-2.13.22-3.02.63-6.03,1.26-9.05,1.9-1.42.3-2.84.59-4.25.89-3.84.8-7.68,1.61-11.52,2.41-5.62,1.18-11.23,2.35-16.85,3.53-6.81,1.43-13.62,2.85-20.43,4.28-7.37,1.54-14.73,3.09-22.1,4.63-7.28,1.52-14.56,3.05-21.83,4.57-6.6,1.38-13.19,2.76-19.79,4.14-5.31,1.11-10.63,2.23-15.94,3.34-3.39.71-6.77,1.42-10.16,2.13-2.86.6-6.63,1.04-7.49,4.39-.4,1.57.02,3.21.31,4.76.29,1.55.57,3.09.89,4.63,0,.02.01.04.02.07,1.21,6.42,2.47,12.82,3.77,19.22,1.33,6.57,2.7,13.13,4.11,19.69,1.39,6.48,2.81,12.95,4.24,19.42,1.44,6.47,2.9,12.93,4.36,19.4.74,3.26,1.48,6.52,2.23,9.78.33,1.43.73,2.88,1.76,3.98.93.99,2.3,1.37,3.62,1.39.72.01,1.43-.09,2.13-.22,10.32-2.16,20.64-4.32,30.96-6.49,8.44-1.77,16.89-3.54,25.33-5.31,7.77-1.63,15.54-3.26,23.3-4.89,8.29-1.74,16.59-3.48,24.88-5.22,10.02-2.1,20.04-4.2,30.06-6.3,1.43-.3,2.87-.6,4.3-.9,2.99-.62,5.98-1.24,8.97-1.86,1.82-.38,3.64-.75,5.45-1.13,1.51-.31,3.07-.59,4.35-1.52.8-.58,1.39-1.32,1.72-2.25.4-1.14.28-2.37.09-3.54Z"/>
  <path class="cls-1" d="m59.44,101.08c-.28-1.28-.59-2.55-.86-3.83-.57-2.5-.95-5.05-1.57-7.54-.29-1.18-.73-2.33-1.53-3.25-.67-.77-1.64-1.26-2.64-1.43-1.48-.26-2.93.02-4.37.32-.92.19-1.85.38-2.77.57-1.81.38-3.62.76-5.44,1.14-1.11.23-2.22.47-3.33.7-.79.16-1.57.32-2.33.59-.94.34-1.86.83-2.55,1.57-.78.83-1.15,1.88-1.23,3-.1,1.24.19,2.5.44,3.71.22,1.06.47,2.12.71,3.18.13.59.26,1.18.39,1.77.55,2.45.94,4.93,1.53,7.37.27,1.11.63,2.24,1.35,3.14.67.84,1.58,1.42,2.63,1.66,1.2.28,2.43.15,3.63-.07,3.95-.83,7.89-1.67,11.84-2.47,1.2-.24,2.41-.44,3.54-.94.97-.43,1.83-1.02,2.45-1.89.67-.94.87-2.13.82-3.27-.06-1.35-.39-2.7-.69-4.01Z"/>
  <path class="cls-3" d="m70.71,66.92c-.16-.13-.73.38-1.82,1.07-1.09.68-2.77,1.54-4.98,1.77-1.09.13-2.3.06-3.52-.25-1.24-.33-2.6-.94-4.22-1.46-.81-.25-1.71-.49-2.72-.54-1-.06-2.16.13-3.16.68-1.02.55-1.77,1.36-2.37,2.11-.6.75-1.12,1.52-1.62,2.06-.52.56-1.12,1-1.63,1.15-.51.15-.89.09-1.36-.21-.47-.3-.97-.9-1.53-1.55-.55-.64-1.2-1.39-2.12-1.93-.89-.54-1.9-.76-2.82-.78-.93-.02-1.8.16-2.57.44-1.55.55-2.8,1.55-3.63,2.61-.83,1.05-1.35,2.12-1.71,3.06-.36.94-.58,1.76-.73,2.44-.28,1.35-.31,2.12-.14,2.17.19.06.57-.61,1.15-1.82.6-1.18,1.38-2.99,2.89-4.56.74-.77,1.71-1.39,2.87-1.72,1.14-.32,2.43-.29,3.36.33.46.29.91.8,1.42,1.44.52.63,1.07,1.41,2.03,2.1.48.34,1.09.62,1.74.73.66.12,1.35.05,1.95-.13,1.22-.38,2.1-1.12,2.84-1.89.76-.82,1.23-1.58,1.76-2.24.51-.65,1-1.16,1.52-1.45,1.03-.62,2.42-.47,3.86-.07,1.44.39,2.9.96,4.43,1.26,1.57.29,3.05.23,4.34-.06,2.59-.56,4.36-1.85,5.34-2.87.99-1.05,1.27-1.8,1.13-1.9Z"/>
  <path class="cls-2" d="m58.45,93.27c-3.45.61-5.25.72-6.4.45-2.08-.49-2.42-1.23-3.61-4.49-1.9-5.22-2.83-6.31-2.02-1.14s1.35,11.03,11.9,6.2c.72-.33,2.24-1.4.13-1.03Z"/>
  <path class="cls-2" d="m31.78,99.29c3.37-.97,5.03-1.66,5.95-2.41,1.65-1.35,1.63-2.17,1.27-5.62-.59-5.52-.24-6.91,1.31-1.91s3.64,10.5-7.96,10.81c-.8.02-2.62-.28-.57-.87Z"/>
  <path class="cls-2" d="m32.9,106.56c3.44-.64,5.24-.77,6.4-.51,2.08.47,2.43,1.21,3.65,4.46,1.95,5.2,2.88,6.29,2.03,1.13s-1.44-11.02-11.95-6.1c-.72.34-2.22,1.42-.12,1.03Z"/>
  <path class="cls-2" d="m59.52,100.32c-3.36,1-5.01,1.7-5.93,2.46-1.64,1.36-1.61,2.18-1.22,5.63.63,5.52.3,6.91-1.3,1.93-1.52-4.75-3.73-10.47,7.87-10.87.8-.03,2.63.25.57.86Z"/>
  <path class="cls-7" d="m135.22,52.45c.38,1.26,6.94.39,14.82-1.23,7.88-1.64,14.25-3.45,14.09-4.75-.15-1.28-6.94-1.54-15.05.14-8.11,1.67-14.24,4.61-13.87,5.84Z"/>
  <path class="cls-3" d="m192.25,133.21c.41,1.53-127.52,28.98-156.7,34.4,0,0-3.54.89-5.25-1.06-4.4-5.03-19.57-87.48-19.57-87.48,0,0-1.99-10.27-1.36-10.51.53-.2,2.69,9.75,2.69,9.75,0,0,16.51,71.08,19.2,80.06,1.77,5.9,2.63,5.25,11.34,3.76,34.4-5.89,149.15-30.67,149.64-28.91Z"/>
  <g>
    <path class="cls-6" d="m49.41,130.12c-.85-.39-2.84,2.16-4.44,5.69-.79,1.79-1.38,3.37-1.59,4.86-.09.73-.02,1.37.14,1.78.16.42.4.62.63.62.48-.04.84-.7,1.5-1.63.64-.91,1.63-2.47,2.4-4.23,1.6-3.53,2.21-6.71,1.36-7.09Z"/>
    <path class="cls-6" d="m51.21,140.11c.35-.3.24-1.09-.32-2.1-.56-1-1.58-2.21-2.95-3.25-1.37-1.04-2.81-1.7-3.92-1.96-1.12-.27-1.91-.16-2.11.26-.38.87,1.58,2.56,3.99,4.41,2.43,1.82,4.59,3.25,5.32,2.65Z"/>
    <path class="cls-6" d="m67.7,126.89c-.83-.42-2.67,1.5-4.1,4.3-1.43,2.8-1.91,5.42-1.07,5.84.83.43,2.67-1.5,4.1-4.3,1.43-2.8,1.91-5.42,1.07-5.84Z"/>
    <path class="cls-6" d="m69.92,135.83c.39-.23.41-1.08-.11-2.21-.5-1.13-1.58-2.51-3.14-3.58-1.56-1.07-3.23-1.58-4.46-1.65-1.24-.07-2.03.24-2.1.69-.09.47.5.99,1.37,1.59.86.57,2.01,1.33,3.28,2.16,1.23.89,2.35,1.69,3.19,2.29.87.6,1.56.96,1.97.71Z"/>
    <path class="cls-6" d="m92.63,121.03c-.84-.41-2.67,1.6-4.1,4.49-1.42,2.89-1.9,5.57-1.06,5.99.84.41,2.67-1.6,4.1-4.49,1.42-2.89,1.9-5.57,1.06-5.99Z"/>
    <path class="cls-6" d="m94.84,130.37c.54-.77-1.25-2.95-3.99-4.89-2.74-1.93-5.41-2.88-5.95-2.12-.54.77,1.25,2.95,3.99,4.89,2.74,1.93,5.41,2.88,5.95,2.12Z"/>
    <path class="cls-6" d="m108.64,116.88c-.81-.46-2.81,1.56-4.1,4.67-1.3,3.11-1.32,5.94-.43,6.2.91.26,2.34-1.99,3.56-4.89,1.21-2.91,1.79-5.51.97-5.97Z"/>
    <path class="cls-6" d="m111.41,126.77c.64-.67-.94-3.21-3.79-5.36-2.84-2.15-5.72-2.98-6.19-2.18-.48.81,1.47,2.86,4.15,4.89,2.68,2.02,5.18,3.34,5.83,2.66Z"/>
    <path class="cls-6" d="m134.42,111.81c-.76-.53-3.07,1.48-4.73,4.72-1.67,3.24-1.97,6.28-1.1,6.59.89.32,2.55-2.02,4.11-5.04,1.55-3.03,2.5-5.74,1.72-6.27Z"/>
    <path class="cls-6" d="m136.21,121.48c.36-.29.28-1.09-.27-2.13-.54-1.04-1.58-2.29-2.98-3.35-1.41-1.06-2.89-1.71-4.04-1.96-1.15-.24-1.95-.11-2.13.32-.34.89,1.71,2.49,4.12,4.34,2.44,1.82,4.54,3.36,5.3,2.78Z"/>
    <path class="cls-6" d="m151.09,107.86c-.84-.4-2.7,1.71-4.14,4.73-1.44,3.02-1.93,5.79-1.09,6.19s2.7-1.71,4.14-4.73c1.44-3.02,1.93-5.79,1.09-6.19Z"/>
    <path class="cls-6" d="m153.59,118.49c.65-.68-.84-3.15-3.31-5.52-2.48-2.37-5.01-3.75-5.66-3.07-.65.68.84,3.15,3.31,5.52,2.48,2.37,5.01,3.75,5.66,3.07Z"/>
  </g>
  <g>
    <path class="cls-6" d="m191.76,56.87c-3.18-7.95-6.93-15.67-11.5-22.92-4.39-6.97-9.5-13.47-15.14-19.47-1.5-1.6-3.04-3.16-4.6-4.69-1.53-1.5-3.22-2.84-5.43-3.07-4.06-.42-6.58,3.34-8.87,6.07-5.01,5.94-10.08,11.83-14.77,18.02-5.98,7.88-11.22,16.26-15.74,25.06-.02.02-.04.04-.05.07-1.49,2.4-1.81,5.65-.63,8.25,1.29,2.85,4.12,3.38,6.95,3.42,6.62.08,13.25.3,19.87.49,5.57.16,11.13.31,16.7.35,6.66.05,13.37.15,20.02-.3,1.95-.13,3.89-.34,5.82-.61,1.85-.26,3.78-.41,5.32-1.55,1.34-.98,2.47-2.41,2.8-4.07.34-1.72-.08-3.47-.74-5.06Z"/>
    <g>
      <path class="cls-3" d="m156.89,51.09c-.76-.8-1.78-1.23-2.86-1.36-2.16-.27-4.56,1.07-5.07,3.28-.51,2.21,1.05,4.74,3.08,5.6,1.29.55,2.79.38,3.97-.32.68-.28,1.26-.77,1.65-1.48.53-.95.66-2.03.51-3.09-.14-.98-.61-1.91-1.29-2.63Z"/>
      <path class="cls-3" d="m158.22,22.33c-1.2-2.34-4.58-2.62-6.52-1.07-1.16.93-1.51,2.31-1.58,3.74-.05,1.07-.04,2.14-.02,3.22-.02.58-.03,1.16-.02,1.73.04,4.13.37,8.28.63,12.4,0,0,0,.01,0,.02,0,.04-.01.08,0,.12.03.59.49,1.12,1.1,1.1.66-.01,1.32,0,1.97.06.17.01.33.03.5.05.07,0,.15.02.22.03,0,0,.01,0,.02,0,.33.05.67.11,1,.17.56.11,1.22-.16,1.36-.77.05-.2.03-.42-.03-.62.02-.06.03-.13.04-.19.45-3.44.86-6.89,1.2-10.35.18-1.79.34-3.58.5-5.37.12-1.43.3-2.96-.38-4.28Z"/>
    </g>
  </g>
</svg>