<?xml version="1.0" encoding="UTF-8"?><svg id="Illustration" xmlns="http://www.w3.org/2000/svg" xmlns:xlink="http://www.w3.org/1999/xlink" viewBox="0 0 200 200"><defs><style>.cls-1{fill:none;}.cls-2{fill:#ea5e2b;}.cls-3{fill:#f1a4ae;}.cls-4{fill:#f6d068;}.cls-5{fill:#f5c043;}.cls-6{fill:#f6d069;}.cls-7{fill:#c5d8dc;}.cls-8{fill:#fff;}.cls-9{fill:#c0d8db;}.cls-10{fill:#d3e6e8;}.cls-11{fill:#ec752f;}.cls-12{clip-path:url(#clippath);}</style><clipPath id="clippath"><rect class="cls-1" x="5.89" y="-2.73" width="190.11" height="190.11"/></clipPath></defs><g class="cls-12"><path class="cls-10" d="M84.16,119.41c-.02.48.36.78.44,1.23.08.45-.05.98.07,1.37.09.29.58.51.7.9.72,2.38.2,5.03.54,7.45.37,2.67.44,5.45.81,8.13.08.61-.14,1.5,0,2.06.64,2.76.77,6.06,1.28,8.81.19,1.02.6,2.35.78,3.37.65,3.74,1.12,7.38,1.77,11.17,1.5,8.82,3.66,19.24,2.05,28.28-.05.25-1.3,3.31-1.43,3.44-.22.25-1.36,1.1-1.75,1.44-2.59,2.23-4.31,4.25-6.68,6.63-1.12,1.13-5.87,5.86-6.24,6.13-1.12.03-.8-.86-.94-1.49-.62-2.73-.14-5.51-.3-8.32-.07-1.18-.11-13.73,0-17.24.11-3.51-.18-6.82.32-10.38.07-.46.06-1.95,0-2.41-.17-1.25-2.44-1.23-3.31-.67-.42.27-.74,2.58-.89,3.19-1.43,5.83-2.81,12.07-4.27,18.08-.43,1.78-1.3,3.86-1.57,5.61-.09.59-.84,3.73-.8,4.23-.05,0-.11,0-.16,0-.98-.13-.62.08-.89.45-1.43,1.98-3.29,3.5-4.84,5.38-1.95,2.37-3.46,5.31-5.98,7.27-.79.61-1.38.98-2.3.4-.46-.3-4.12-8.85-4.58-9.78-1-2.04-2.29-1.96-2.52-1.96-1.76.04-6.47,5.6-8.03,6.96-1.32,1.15-5.23,3.73-6.81,4.35-.57.22-1.24.42-1.64-.19-.06-.08-.56-1.08-.59-1.17-.23-.66-2.58-5.4-2.86-6.71-.23-1.03-.3-3.5-.04-4.51.31-1.21.89-1.14,1.44-1.83,2.17-2.73,4.43-5.82,6.52-8.63,9.99-13.43,17.96-28.56,28.43-41.62,1.61-2.01,3.5-3.99,4.53-6.39.36-.25,1.18-1.4,1.27-1.76.02-.09-.02-.22,0-.32.44.1.51-.6.64-.96.55-.37,3.27-4.3,3.66-5.11.02-.04-.02-.12,0-.16,1.07-1.31,1.99-2.74,3.03-4.07,1.98-2.55,3.98-4.48,6.13-6.79.99-1.06,1.95-3.07,3.38-3.48.44-.13,1,.07,1.38-.03.19-.05.08-.31.1-.33.03-.03.13.03.16,0Z"/><path class="cls-9" d="M64.73,200.42h0c-.04-.5,5.22-22.1,6.65-27.93.15-.61.47-2.92.89-3.19.86-.56,3.13-.58,3.31.67.06.46.07,1.95,0,2.41-.5,3.56-.39,26.45-.32,27.63.16,2.81-.32,5.59.3,8.32.14.63-.17,1.52.94,1.49.37-.27,5.12-5,6.24-6.13,2.37-2.39,4.1-4.41,6.68-6.63l-.95,3.12c-.2,2.06-.32,4.03-.48,6.06-.12,1.43-.14,1.27-.01,2.73.26,3.1.33,6.88.99,9.88.37,1.71,1.83,4.02,2.03,5.63.21,1.61-.07,3.48.01,5.1.03.63.27,1.3.32,1.91.09,1.21-.02,2.81.17,3.98.12.73,2.12,3.21,2.34,4.46-.27.02-11.55-.75-14.22-.38-9.93,1.39-19.76,1.21-29.94,1.12-7.34.15-14.7.36-22.05.49-.26,0-33.24,1.14-32.95.35,4.71-7.58,13.31-20.17,18.62-27.27,3.21-4.3,6.51-8.62,9.6-12.9.17-.24.21-.45.59-.44-.26,1.01-.18,3.49.04,4.51.29,1.31,2.63,6.05,2.86,6.71.03.08.54,1.08.59,1.17.39.61,1.07.41,1.64.19,1.58-.62,13.08-11.27,14.85-11.31.23,0,1.47-.66,2.52,1.96.39.97,4.12,9.49,4.58,9.78.92.59,1.5.22,2.3-.39,2.52-1.95,4.02-4.9,5.97-7.27,1.55-1.87,3.41-3.39,4.84-5.38.27-.37.07-.59,1.05-.46,0,0-.04.15,0,0h0Z"/><path class="cls-9" d="M86.39,120.92c.84,1.08,11.45,12.39,12.57,13.75.7.85,1.32,1.95,2.01,2.78,5.45,6.58,11.62,12.76,17.11,19.42,8.46,10.27,16.4,21.04,24.85,31.31.24.29,2.34,3.77,2.7,4.24,0,0-.77,7.66-1.48,8.24-2.43,1.98-4.57-4.82-9.03-1.53-1.1.81-6,9.5-6.14,9.9-.1.3-1.4,2.61-1.53,2.69-.16.1-1.06.07-1.29,0-.34-.1-9.23-7.21-10.85-9.08-.33-.39-1.86-1.67-2.26-1.72-1.26-.17-1.56,2.9-1.85,3.68-.12.31-.39.52-.5.78-.6,1.46-.9,3.4-2.71,2.05-1.7-1.27-13.32-13.77-16.81-11.82.13-.14,1.38-3.19,1.43-3.44,1.61-9.04-.55-19.45-2.05-28.28-.64-3.79-1.11-7.43-1.77-11.17-.18-1.02-.59-2.34-.78-3.37-.51-2.75-.63-6.05-1.28-8.81-.13-.56.09-1.45,0-2.06-.38-2.68-.44-5.46-.81-8.13-.34-2.41.18-5.07-.54-7.45-.12-.39-.61-.61-.7-.9-.11-.39.01-.92-.07-1.37-.08-.45-.46-.76-.44-1.23.09-.07.13-.27.32-.32.14-.04,1.49,1.29,1.92,1.83h0Z"/><path class="cls-10" d="M129.23,207.93c-.42-.66-2.31-4.43-2.7-5.36-2.72-6.35-6.32-12.92-10.01-18.88-.54-.88-3.74-8.03-3.82-8.31-.12-.41-2.09-3.78-1.01-4.63l1.62.39c.78.2,3.89,4.77,4.45,5.42,2.17,2.54,15.99,22.59,17.36,22.58,0,0-5.71,9.08-5.89,8.79h0Z"/><path class="cls-4" d="M85.41,124.23c-.46.15-6.03.86-6.03.86.17-3.04-2.84-18.46-3.38-20.98-.43-2.02-7.91-55.38-8.2-56.99-.07-.38-2.51-19.46-2.53-19.84,1.21-.18,4.77-.58,5.98-.76,1.8-.27,13.97,96.67,14.14,97.72h0Z"/><path class="cls-2" d="M108.09,78.07c4.21.76,8.03.34,12.32,1.63,4.12,1.24,7.98,3.72,12.15,4.85l-.02,1.07c-.13.22-2.11.66-2.49.99-.55.48-.54,5.42-.17,6.27.28.66,3.01,2.4,3.69,2.57,1.69.4,15.85,3.86,13.59,3.69-22.82-1.69-39.46-10.12-39.09-13.54.07-.62-.03-6.91.01-7.53Z"/><path class="cls-11" d="M174,45.36c-1.02.07-2.06.32-3.07.51-1.01.19-27.56,2.94-27.69,1.38-.31-3.44-.03-6.92.05-10.37.02-.67-.43-1.03-.94-1.11-.18-.12-.4-.19-.64-.21-5-.36-10.09-1.24-14.79-3.04-4.27-1.63-8.21-4.03-12.27-6.1-7.62-3.89-16.1-3.04-18.55-2.64-2.4.4-4.78.93-7.15,1.48-2.3.53-4.58,1.14-6.76,2.07-2.52,1.07-4.68,2.65-6.8,4.38-.19.15-.29.38-.32.62-.08,0-.17,0-.25,0,.02.12-.02.25,0,.36.04.21.07.39.11.54-.07.21-.08.45-.04.68.61,3.28,1.94,6.35,3.1,9.46,1.12,3.01,1.96,6.12,2.39,9.31.47,3.48-2.58,29.54,0,28.45,6.06-2.56,13.07-1.08,19.49-.81,3.62.15,7.23.45,10.83.81,1.84.18,3.67.38,5.51.58,1.79.2,3.6.35,5.37.73,3.12.68,3.47.94,6.49,1.89-1.06,5.69-1.69,11.04-.74,11.9.83.74,18.34,4.63,26.64,2.32,3.99-1.11,7.86-1.61,11.54-3.51.45-.23,4.76-1.83,2.21-3.81-1.43-1.11-10.38-9.89-11.36-11.35-.82-1.2-1.49-2.48-2.13-3.78,3.23-5.08,7.62-9.27,11.56-13.78,2.36-2.7,4.49-5.57,6.5-8.53.99-1.46,2.09-2.92,2.94-4.48.38-.7.78-1.57.73-2.39-.06-1.06-1-1.64-1.98-1.58h0Z"/><path class="cls-8" d="M125.04,53.07c-.09-.25-1.38-2.67-3.76-5.69-.06-.07-.1-.16-.11-.26-.28-3.16-.72-5.25-.72-5.25-.07-.36-.37-.63-.73-.67l-2.48-.3h-.07c-.29,0-.52.24-.52.53v.88s-.02.03-.03.03h-.02c-1.48-1.36-3.15-2.68-5.01-3.84-.35-.24-.77-.38-1.23-.38s-.87.14-1.23.38c-8.55,5.37-13.26,14.1-13.44,14.58-.05.11-.08.23-.08.37,0,.4.27.74.64.83l2.46.48c.33.09.58.38.62.73.02.44.48,10.32,1.07,12.89.09.37.42.65.82.65h.02c1.44-.03,2.76-.06,4.18-.08h.02s.08,0,.11,0c.15,0,.28-.13.28-.28-.06-.86-.19-2.84-.28-4.91,0-.05,0-.12,0-.17,0-.18-.11-.34-.25-.43-.74-.45-1.24-1.26-1.29-2.19-.13-3.47-.19-7.47,0-10.61.02-.26.23-.47.48-.47.27,0,.5.22.51.5v.04c-.12,2.09-.13,4.56-.08,6.99,0,.33.27.59.6.59.32,0,.58-.28.58-.61-.04-2.45-.03-4.94.09-7.04.02-.26.23-.47.48-.47.27,0,.5.22.51.5v.04c-.12,2.08-.14,4.53-.08,6.96,0,.33.27.59.59.59.32,0,.58-.28.58-.6-.04-2.44-.03-4.91.09-7,.02-.26.23-.47.48-.47.27,0,.5.22.51.5v.04c-.18,3.05-.12,6.9,0,10.28v.03s0,.03,0,.05v.03c0,.93-.46,1.74-1.15,2.23-.13.09-.21.23-.22.4,0,0-.06.52.16,3.04.1,1.1.19,1.86.22,2.2.02.13.13.23.25.23h.24c.47,0,.96,0,1.47,0h.09s.09,0,.09,0h1.84s1.4,0,1.4,0h0c.14,0,.25-.09.26-.22.32-3.02.4-4.71.4-4.71,0-.15-.12-.27-.26-.29l-1.7-.24c-.27-.05-.43-.22-.48-.42-.03-.13-.03-.27-.03-.27.69-10.06,3.95-13.44,3.95-13.44.09-.1.16-.14.16-.14.08-.06.19-.1.3-.1.22,0,.41.14.48.34,0,0,.03.07.04.24.28,3.16.14,8.54-.03,12.73-.14,3.56-.33,6.36-.33,6.36,0,.11.09.21.2.21.92.02,1.84.03,2.8.06h.02c.39,0,.73-.28.82-.65.58-2.56,1.05-12.44,1.07-12.89.03-.35.29-.64.62-.73l2.46-.48c.36-.09.64-.43.64-.83,0-.13-.02-.26-.08-.37v-.03Z"/><path class="cls-6" d="M72.48,18.52c-.15-.49-.45-.95-.73-1.39,0-.06-.02-.12-.03-.18-.57-2.13-3.14-2.42-4.89-2.39-1.94.04-3.98,1.71-4.13,3.82-.05.72.06,1.43.3,2.12.01.09.02.17.03.26l.08.04c.45,1.1,1.21,2.09,2.11,2.77.83.62,1.82.85,2.82.74.99-.11,2.1-.52,2.93-1.1.88-.61,1.3-1.85,1.54-2.88.13-.59.16-1.2-.02-1.79h0Z"/><path class="cls-8" d="M143.73,36.73c2.84,12.02,4.12,32-1.04,43.32-.56,1.1-1.25,2.2-2.1,3.05,1.55-3.58,1.78-7.45,2.09-11.29.25-3.84.33-7.71.39-11.59.14-6.94.06-16.62.66-23.49Z"/><path class="cls-5" d="M34.39,141.76s0-.02,0-.04c0-.44-.35-.7-.77-.75-.9-.08-1.86-.17-2.69-.58-.73-.37-1.26-.93-1.67-1.61-.94-1.56-1.32-3.51-1.45-5.31-.03-.4-.33-.75-.77-.75-.01,0-.02,0-.03,0-.01,0-.03,0-.04,0-.4,0-.79.34-.77.75.07.97.03,1.96-.17,2.91-.11.17-.18.38-.18.59,0,.05,0,.1,0,.15-.2.63-.48,1.24-.86,1.8-.43.63-1.02,1.21-1.69,1.61-.36.22-.7.38-1.09.49-.5.15-1.02.21-1.52.35-.87.24-.6,1.46.18,1.46.02,0,.04.02.05.02,3.43,1.22,5.13,4.79,5.47,8.12.04.4.32.75.77.75.3,0,.61-.2.73-.48.14-.21.14-.46.17-.71.03-.25.1-.58.18-.89.23-.2.37-.48.39-.82,0-.1.01-.19.02-.29,0-.02.01-.1.02-.15.17-.41.36-.81.58-1.19.72-1.23,1.48-2.28,2.56-3.22.68-.6,1.43-1.07,2.24-1.54.26-.14.41-.42.36-.7h0s0,0,0,0h0Z"/><path class="cls-8" d="M61.54,90.19s0-.03,0-.05c0-.57-.44-.91-.96-.96-1.13-.11-2.33-.23-3.36-.76-.91-.48-1.57-1.21-2.09-2.09-1.17-2.02-1.65-4.55-1.82-6.88-.04-.52-.42-.96-.96-.96-.01,0-.03,0-.04,0s-.03,0-.05,0c-.49,0-.99.44-.96.96.08,1.26.03,2.54-.21,3.77-.15.23-.22.49-.23.76,0,.06,0,.13,0,.19-.24.82-.59,1.6-1.08,2.33-.54.82-1.28,1.57-2.11,2.09-.44.28-.88.49-1.36.64-.63.2-1.28.27-1.91.45-1.09.31-.76,1.89.23,1.89.02,0,.05.02.07.03,4.28,1.58,6.42,6.21,6.83,10.52.05.52.41.96.96.96.37,0,.77-.27.91-.63.17-.27.18-.6.21-.92.03-.33.13-.76.23-1.15.28-.26.46-.63.49-1.06,0-.12.01-.25.02-.37,0-.02.01-.13.02-.2.21-.53.45-1.05.73-1.54.9-1.6,1.85-2.95,3.19-4.17.85-.77,1.78-1.39,2.8-1.99.33-.17.51-.54.45-.9v.02s0,0,0,0Z"/><path class="cls-7" d="M170.07,137.08s0-.04,0-.06c0-.79-.6-1.26-1.29-1.34-1.52-.15-3.14-.31-4.52-1.05-1.23-.66-2.12-1.67-2.81-2.9-1.58-2.8-2.22-6.31-2.45-9.54-.05-.72-.56-1.34-1.29-1.34-.02,0-.04,0-.05,0-.02,0-.04,0-.06,0-.66,0-1.34.61-1.29,1.34.11,1.75.05,3.52-.29,5.24-.19.32-.3.68-.31,1.06,0,.09,0,.18-.01.26-.33,1.13-.8,2.23-1.45,3.24-.73,1.14-1.72,2.18-2.84,2.9-.6.39-1.18.68-1.83.89-.84.27-1.72.37-2.57.62-1.46.43-1.02,2.63.3,2.63.03.01.06.03.09.04,5.77,2.2,8.64,8.61,9.2,14.59.07.72.55,1.34,1.29,1.34.5,0,1.03-.37,1.22-.87.23-.37.24-.83.28-1.27.05-.45.17-1.05.3-1.6.38-.36.62-.87.65-1.47,0-.17.02-.35.03-.52,0-.03.02-.18.03-.27.28-.73.61-1.45.98-2.13,1.21-2.22,2.49-4.1,4.3-5.79,1.14-1.07,2.4-1.93,3.77-2.75.44-.24.68-.75.61-1.25h0s0,.01,0,.01h0Z"/><path class="cls-3" d="M51.02,98.64s0-.04,0-.06c0-.77-.59-1.23-1.28-1.3-1.51-.15-3.11-.31-4.48-1.03-1.22-.64-2.1-1.63-2.78-2.82-1.57-2.73-2.2-6.14-2.42-9.3-.05-.7-.55-1.3-1.28-1.3-.02,0-.04,0-.05,0-.02,0-.04,0-.06,0-.66,0-1.33.6-1.28,1.3.11,1.7.05,3.43-.29,5.1-.19.31-.3.66-.31,1.03,0,.08,0,.17-.01.26-.33,1.1-.79,2.17-1.44,3.16-.72,1.11-1.71,2.13-2.81,2.83-.6.38-1.17.66-1.81.87-.83.26-1.7.36-2.54.61-1.45.42-1.01,2.56.3,2.56.03.01.06.03.09.04,5.71,2.14,8.56,8.39,9.11,14.22.07.7.54,1.3,1.28,1.3.5,0,1.02-.36,1.21-.84.23-.37.24-.81.28-1.24.05-.44.17-1.02.3-1.56.38-.35.62-.84.65-1.43,0-.17.02-.34.03-.5,0-.03.02-.17.03-.26.28-.72.6-1.41.97-2.08,1.2-2.16,2.47-3.99,4.26-5.64,1.13-1.05,2.38-1.88,3.73-2.69.44-.24.68-.73.6-1.22h0s0,.01,0,.01h0Z"/></g></svg>