<?xml version="1.0" encoding="UTF-8"?><svg id="Illustration" xmlns="http://www.w3.org/2000/svg" viewBox="0 0 200 200"><defs><style>.cls-1{fill:#f4d472;}.cls-2{fill:#c4d7db;}.cls-3{fill:#eb672c;}.cls-4{fill:#fff;}.cls-5{fill:#ed8031;}.cls-6{fill:#e4a6ae;}</style></defs><path class="cls-3" d="M106.49,72.92s.04,39.02,3.34,39.92c3.29.9,25.11-22.25,25.11-22.25l-28.45-17.67Z"/><path class="cls-5" d="M21.84,28.73s17.21-9.15,52.05-8.72c34.84.43,41.35.92,61.44,4.02l-2.25,58.71s2.88,4.99,4.27-6.95c1.39-11.93,2.73-28.64,2.73-28.64,0,0,15.34,3.27,26.07-4.27,0,0,2.23-.75,2.84.86.61,1.6-.4,5.58-6.9,15.02-13.01,18.87-14.91,23.99-14.91,23.99,0,0,19.47,14.95,32.92,18.84,7.48,2.16,11.79,2.56,12.34,3.89.43,1.06-1.99,3.22-3.77,3.6-4.01.86-22.69,11.57-41.49,9.15-31.79-.9-43.69-2.63-35.52-11.78,8.17-9.15,20.1-12.4,20.1-12.4,0,0-23.61-9.44-50.01-5.88-17.37,2.34-29.57,7.41-34.74,8.68-2.69.66-2.26-1.74-2.26-1.74,0,0-.95-16.28-7.15-33.91-3.51-9.98-12.28-21.83-15.76-28.22-1.4-2.58.12-3.44,0-4.21v-.02Z"/><path class="cls-1" d="M36.62,107.68L10.38,23.01v-1.49l2.57-.62,3.51-.88,5.15,15.83,43.23,141.15-6.93,2.96-21.29-72.29Z"/><path class="cls-1" d="M14.57,15.65c-4.18-2.49-8.15-.01-8.64,3.45-1.24,3.44,2.84,5.92,5.93,5.68,2.87-.22,4.51-2.08,4.68-4.91.06-.9.12-2.04-.41-2.85-.44-.66-1.38-.83-1.55-1.39h-.01Z"/><path class="cls-4" d="M101.95,53.3c-.12-.32-1.81-3.45-4.95-7.36-.08-.09-.13-.21-.14-.33-.37-4.09-.94-6.79-.94-6.79-.09-.47-.49-.81-.96-.87l-3.26-.39h-.09c-.38,0-.69.31-.69.69v1.14s-.02.04-.04.04h-.02c-1.95-1.76-4.15-3.46-6.58-4.96-.47-.31-1.01-.49-1.61-.49s-1.14.18-1.61.49c-11.24,6.95-17.43,18.25-17.66,18.87-.07.14-.11.3-.11.48,0,.52.36.96.84,1.08l3.23.62c.43.12.76.49.81.95.02.57.63,13.36,1.41,16.68.12.48.56.83,1.08.83h.02c1.89-.04,3.62-.08,5.49-.1h.17c.2,0,.37-.17.37-.37-.08-1.11-.24-3.67-.37-6.36,0-.07,0-.16-.01-.22-.01-.23-.14-.43-.33-.56-.97-.58-1.63-1.63-1.7-2.83-.17-4.49-.26-9.66,0-13.73.02-.33.3-.61.63-.61.36,0,.66.28.67.65v.06c-.16,2.71-.18,5.9-.11,9.05,0,.42.36.77.79.76.42,0,.77-.36.76-.79-.06-3.17-.04-6.39.12-9.11.02-.33.3-.61.63-.61.36,0,.66.28.67.65v.06c-.16,2.69-.18,5.87-.11,9.01,0,.42.36.77.78.76.42,0,.76-.36.76-.78-.06-3.16-.04-6.36.12-9.06.02-.33.3-.61.63-.61.36,0,.66.28.67.65v.06c-.23,3.94-.16,8.93,0,13.3v.16c0,1.2-.6,2.25-1.51,2.88-.17.11-.28.3-.29.51,0,0-.08.67.21,3.93.13,1.42.24,2.4.29,2.85.02.17.17.3.33.3h6.75c.18.01.32-.12.34-.29.42-3.91.52-6.1.52-6.1,0-.2-.16-.35-.34-.38l-2.23-.31c-.36-.07-.57-.28-.63-.55-.04-.17-.03-.35-.03-.35.9-13.01,5.19-17.39,5.19-17.39.12-.13.21-.18.21-.18.11-.08.26-.13.4-.13.29,0,.53.18.63.43,0,0,.03.09.06.31.37,4.09.19,11.04-.04,16.48-.19,4.61-.43,8.23-.43,8.23,0,.14.12.27.27.27,1.21.02,2.41.04,3.68.08h.02c.51,0,.96-.36,1.08-.83.77-3.32,1.38-16.1,1.41-16.68.04-.46.38-.82.81-.95l3.23-.62c.48-.12.85-.56.85-1.08,0-.17-.03-.33-.11-.48v-.03Z"/><path class="cls-2" d="M107.05,140.24c-.06-.04-.11,0-.12-.09-.61.13-1.19.35-1.74.66.3,2.43-.23,4.99-.13,7.44.08,1.83.31,3.93,0,5.72-.2,1.11-.87.74-1.7.54-1.13-.27-2.21-.45-3.38-.45-1.44,0-2.95-.34-4.39-.2-.55.06-1.25.33-1,1.04.26.75,1.65,1.49,2.23,1.93,1,.75,2.14,1.32,3.18,2.03.6.41,1.51.75,2.01,1.27.5.52.28,1.15.06,1.72-.67,1.74-2.06,3.18-3.01,4.77-.35.58-3.17,5.1-1.17,5.32.86.09,1.8-.85,2.4-1.35,1.17-.99,2.35-2.04,3.41-3.17.94-.99,1.92-1.94,2.8-2.99.3-.35.59-.88.98-1.12,1.15,1.11,1.68,2.93,2.16,4.41.49,1.48,1.02,2.81,1.75,4.13.49.89.94,2.55,1.88,3.09,1.35.76,1.3-2.37,1.26-3.02-.09-1.43-.26-2.91-.51-4.33-.24-1.42-.71-2.93-.86-4.42-.09-.9,0-1.75.98-1.08.66.46,1.35.87,2.03,1.31,1.02.66,1.95,1.49,3.05,2.01.77.36,1.59.62,2.38.92.49.19,1.07.6,1.13-.13.05-.51-.34-.95-.58-1.37-.87-1.51-1.8-2.75-2.96-4.05-1.03-1.16-2.31-2.13-3.26-3.36-.43-.55-.62-.91-.21-1.52,1.31-1.89,3.03-3.54,4.52-5.29,1.13-1.33,2.73-2.88,3.01-4.68-.58-.28-1.6.47-2.11.71-1.49.71-2.87,1.52-4.28,2.39-1.38.85-2.83,1.64-4.28,2.37-.41.2-.91.55-1.39.5-.68-2.47-1.3-4.96-2.14-7.4-.54-1.55-.98-3.39-2.13-4.62-1.39-1.48-1.65.98-1.77,1.85"/><path class="cls-6" d="M176.19,144.57c-.94-1.83-4.41-1.08-7.32-.35,0,0-1.45-3.16-2.66-4.28-1.22-1.12-2.7-.4-2.95,1.75s-.27,3.92-.27,3.92c0,0-4.09.19-5.44.75-1.36.57-2.68,1.84-.21,3.15,2.47,1.31,5.02,2.46,4.93,2.42-.09-.04-.34,5.19-.38,6.31-.04,1.12,1.72,2.48,3.38.44,1.65-2.03,2.72-3.89,2.72-3.89,0,0,4.1,1.67,5.06,1.73.96.07,1.46-1.43.78-2.93-.69-1.51-1.56-3.28-1.56-3.28,0,0,4.58-4.55,3.96-5.75h-.01Z"/><path class="cls-2" d="M80.42,123.58c-2.21-3.13-6.66,1.9-7.41,4.11-1.16,3.43,1.95,5.24,4.86,5,2.7-.22,4.24-2.07,4.4-4.9.06-.9.11-2.03-.39-2.84-.42-.66-1.3-.82-1.45-1.38h-.01Z"/></svg>