<svg id="Illustration" xmlns="http://www.w3.org/2000/svg" viewBox="0 0 200 200"><defs><style>.cls-1{fill:none}.cls-4{fill:#e4c7bd}.cls-5{fill:#fff}.cls-7{fill:#cc9e40}.cls-8{fill:#5b3d5b}</style></defs><path class="cls-1" d="M32.54 152.6s0 .07-.02.16l.02-.16ZM9.2 154.07c2.93 1.93 10.83 5.03 20.97 8-1.3-1.47-2.45-3.05-3.02-4.99-1.24-4.27.61-8.45 1.66-12.53h.01c.14-.51.25-1.03.35-1.55.03-.18.15-.49.11-.67 0 0-.05.55-.03.2 0-.11.02-.22.03-.33.04-.51.05-1.03.01-1.54 0-.11-.02-.22-.03-.33-.05-.21-.13-.51-.14-.55-.07-.25-.17-.49-.24-.74.03.11.05.16.06.2s.01.04 0 0c-.02-.06-.07-.2-.14-.33-.12-.23-.25-.46-.38-.67-.03-.04-.14-.2-.21-.32-.05-.07-.12-.15-.14-.18-.07-.09-.15-.17-.22-.25-.18-.19-.36-.38-.56-.56-.04-.03-.16-.14-.26-.23-.06-.04-.33-.25-.4-.3-.44-.3-.9-.56-1.37-.78l-.12-.06h-.02c-.25-.08-.49-.18-.75-.25-.3-.09-.61-.16-.93-.22a4.57 4.57 0 0 1-.36-.07c-.57-.05-1.14-.09-1.72-.07-.32 0-.64.02-.95.06-.04 0-.23.02-.33.04-.06.01-.12.02-.13.02-.54.1-1.08.22-1.61.36-.62.17-1.22.38-1.82.61-.06.02-.1.04-.13.05-.02.01-.06.03-.13.06-.25.12-.5.23-.75.36-.85.43-1.66.93-2.44 1.47-1.56 5.63-2.69 10.03-3.05 11.52"/><path class="cls-1" d="M23.13 135.03c.11.01.2.02 0 0ZM29.28 140.55s0-.09-.02-.19c0 .09.02.19.02.19ZM32.48 154.83v.04c-.01-.17-.1-.49 0-.04Z"/><path class="cls-7" d="M28.93 139.24s.01.04 0 0Z"/><path d="M9.89 154.75c16.22 7.3 33.5 11.98 51.2 13.86 4.91.52 9.83.82 14.76.9.9.02 1.43-.55 1.59-1.23.11-.16.2-.33.23-.53 2.21-12.56 4.42-25.14 5.64-37.85.26-2.78.48-5.57.64-8.37 7.54 2.82 15.37 4.78 23.38 5.84 5.67.75 11.38 1.02 17.09.8h.02c.99.27 1.75-.34 2.11-1.2 3.53-8.42 6.49-17.05 8.85-25.87.15-.56.03-1.04-.24-1.4-.22-.35-.55-.63-.96-.71-11.81-2.3-23.78-3.75-35.74-4.94-6.01-6.16-12.44-12.07-19.73-16.61 0-.18 0-.36-.06-.54-1.08-3.43-2.3-6.8-3.69-10.13.13-2.11-.12-4.26-.7-6.29-.07-.24-.2-.46-.37-.65-.17-.53-.62-.94-1.18-1.16A69.004 69.004 0 0 0 50 54.3c-.29 0-.55.05-.76.15-.76-.02-1.64.42-1.76 1.24l-1.04 6.96C39 72.99 32.71 84.1 27.51 95.73c-5.23 11.7-9.34 23.64-12.85 35.85-2.03 7.03-3.85 14.12-5.57 21.23" style="fill:#f6c243"/><path class="cls-7" d="M73.34 60.81c-3.26 4.44-6.19 9.23-7.71 14.56-1.38 4.86-1.49 10.35.4 15.1.98 2.45 2.33 4.72 4.25 6.56 1.9 1.83 4.18 3.15 6.66 4.03 4.63 1.66 9.98 1.45 14.52-.4 3.66-1.49 6.84-3.78 9.49-6.62-2.14-.31-3.5-.5-3.5-.5-.33-.48-.99-1.22-1.88-2.15-.3.28-.61.57-.93.84-.19.17-.39.32-.59.48-.14.11-.28.21-.43.32-.87.62-1.79 1.18-2.73 1.67-.25.12-.49.25-.75.36-.07.03-.38.17-.47.21l-.04.02c-.15.06-.3.11-.44.17-.3.11-.6.21-.9.3-.48.15-.97.28-1.46.39-.22.05-.45.09-.67.14-.14.02-.27.04-.4.07-1.03.09-2.05.15-3.08.09-.27-.01-.54-.04-.8-.06h-.04s-.11-.02-.17-.02c-.04 0-.09-.01-.13-.01.04 0 .07 0 .1.01h-.02c-.53-.1-1.05-.2-1.58-.33-.48-.12-.96-.27-1.42-.43-.25-.09-.5-.19-.75-.28.58.22-.18-.09-.36-.18-.44-.22-.87-.46-1.29-.71-.19-.12-.38-.24-.57-.37-.12-.09-.25-.18-.37-.26-.73-.62-1.39-1.27-2.01-2-.02-.04-.27-.35-.32-.43a16.443 16.443 0 0 1-1.21-2.12c-.07-.14-.17-.38-.17-.38-.07-.19-.15-.37-.21-.56-.18-.52-.34-1.04-.48-1.58s-.25-1.08-.33-1.62l-.03-.18c-.02-.32-.06-.63-.09-.95-.07-1.07-.07-2.14.02-3.21.02-.27.06-.54.08-.82.02-.11.03-.2.05-.31.09-.57.22-1.15.35-1.71.32-1.34.75-2.65 1.27-3.94.04-.09.07-.19.11-.28.02-.04.04-.09.06-.14.15-.33.29-.65.44-.97.29-.61.59-1.2.91-1.79.46-.85.96-1.68 1.47-2.5l-1.33-3.2s.19-2.26.28-3.69c.02-.43-.07-.83-.21-1.18-.19.17-.37.36-.53.58h-.01ZM82.57 131.64c-.28-.37-.54-.75-.79-1.14-.53-.81-.99-1.65-1.43-2.51-.23-.45-.43-.91-.65-1.37l-.02-.04c-.04-.1-.08-.19-.12-.29-.09-.22-.17-.43-.25-.64-.73-1.99-1.23-4.05-1.51-6.14-.2-1.48-2.18-2.43-3.52-2-1.63.53-2.21 1.92-2 3.52.59 4.28 2.11 8.5 4.42 12.15 1.09 1.72 2.38 3.38 3.95 4.68.44.36.89.7 1.35 1.01.29-2.56.53-4.92.72-7.01l-.03-.03c-.05-.06-.11-.13-.15-.18h.01ZM78.85 155.37l-.04-.04-.35-.29c-.64-.54-1.25-1.12-1.81-1.75-.21-.23-.41-.48-.61-.72.02.01-.41-.56-.5-.68-.49-.72-.93-1.48-1.3-2.27-.1-.21-.2-.42-.3-.64-.02-.06-.11-.25-.15-.34-.16-.39-.32-.78-.48-1.18-.44-1.1-.87-2.2-1.37-3.27a18.91 18.91 0 0 0-3.09-4.63c-2.36-2.63-5.63-4.66-9.1-5.43-3.57-.78-7.27-.35-10.44 1.52-3.08 1.82-5.51 4.78-6.53 8.22-1.04 3.49-.26 7.09 1.51 10.2 1.5 2.65 3.62 4.88 5.18 7.48.22.36.43.74.62 1.12.06.12.12.25.19.38.02.06.06.12.08.17v.02c.12.37.27.73.37 1.11.06.2.11.41.15.62.02.12.04.33.06.41.03.44.04.89.02 1.33 0 .12-.02.23-.03.35 1.92.33 3.79.61 5.6.85.17-1.4.14-2.82-.1-4.23-.55-3.18-2.5-5.9-4.39-8.42-.87-1.16-1.75-2.31-2.5-3.55-.32-.53-.88-1.26-.99-1.87-.01-.04-.02-.07-.03-.1-.05-.13-.09-.27-.14-.4-.13-.41-.22-.82-.32-1.23 0-.02-.01-.04-.01-.06-.01-.16-.03-.32-.04-.48-.01-.36.01-.72.02-1.08v-.04l.09-.48c.09-.42.23-.82.36-1.24 0-.01.01-.03.02-.05.07-.15.14-.3.22-.45.17-.32.35-.64.54-.94.08-.12.17-.24.25-.36.02-.04.04-.07.06-.09l.02-.02c.27-.3.53-.61.82-.9.26-.26.55-.49.82-.74l.01-.01h.02c.12-.1.24-.19.36-.27.31-.2.62-.4.95-.57.19-.11.4-.2.59-.3l.06-.03c.02 0 .04-.01.07-.02.35-.12.69-.24 1.05-.33.25-.07.81-.28 1.08-.22l-.31.04.35-.03.57-.03c.46-.01.91.02 1.37.04h.07c.18.03.36.06.53.1.38.07.75.17 1.11.28.37.11.73.24 1.09.37h.01c.23.11.45.22.67.33.69.35 1.35.76 1.98 1.21.06.04.15.12.22.17.1.08.2.17.3.25.32.28.64.57.94.88.27.28.54.57.78.87.05.06.3.39.29.36.04.06.08.11.12.16.52.74.96 1.52 1.36 2.34.1.21.2.42.29.64.02.06.11.25.15.34.16.4.32.78.48 1.18.44 1.1.87 2.2 1.37 3.27 1.95 4.18 5.35 7.52 9.39 9.63.31-1.65.66-3.63 1.05-5.99l-.66-.45c-.04-.03-.07-.06-.11-.07Zm-30.33-10.65c.06-.13.14-.29 0 0Zm11.9-4.39s.02 0 0 0Z"/><path class="cls-7" d="M111.56 112.84c-3.21-.75-6.48-.07-9.57.88-1.47.45-2.93.96-4.42 1.36-.65.17-1.3.31-1.96.43-.06.01-.11.02-.15.03-.09 0-.19.01-.28.02-.39.03-.78.04-1.17.04-.14 0-.28-.01-.43-.02l-.21-.02c-.32-.04-.28-.03.13.02-.21.06-.62-.12-.83-.19-.2-.06-.41-.13-.61-.2l.04.02-.04-.02h-.01c-.12-.04-.31-.17-.14-.08-.32-.17-.64-.33-.94-.54-.13-.09-.25-.18-.38-.27l-.07-.07c-.3-.27-.59-.53-.88-.8-.57-.56-1.11-1.16-1.66-1.75-2.04-2.24-4.26-4.2-7.07-5.42-6.41-2.79-14.32-2.4-19.47 2.74-1.06 1.06-1.14 3 0 4.04 1.14 1.05 2.91 1.13 4.04 0 .22-.22.45-.44.69-.64.07-.06.14-.12.21-.19.02-.02.06-.04.11-.07.54-.36 1.09-.7 1.67-.98.07-.03.14-.07.21-.11.03-.01.07-.02.14-.04.26-.09.51-.19.77-.27.3-.09.59-.17.89-.24.25-.06.79-.25 1.07-.22-.15 0-.58.07-.1.02.14-.01.27-.03.41-.04.31-.02.62-.04.93-.05.66-.02 1.33.01 1.99.07a1.503 1.503 0 0 1 .29.04c.35.07.69.12 1.04.2.62.14 1.23.32 1.84.53.14.05.27.09.4.15.01 0 .15.06.25.11.11.04.22.1.23.11.13.06.25.12.38.19.57.28 1.12.6 1.65.95.23.15.46.32.69.48.07.06.3.25.41.35.55.48 1.06 1.01 1.56 1.54 2.22 2.38 4.34 4.78 7.52 5.85 2.89.97 6.05.48 8.91-.33 1.38-.39 2.73-.86 4.1-1.27.62-.19 1.25-.37 1.89-.53.33-.08.67-.15 1-.22.15-.03.3-.06.44-.08l.33-.06c.22-.03.15-.02-.2.03.09-.11.75-.07.89-.07.37-.02.74-.02 1.11 0 .15 0 .3.02.44.03h.17c.24.05.54.17.69.22.12.04.25.09.37.12h.02c.23.13.47.23.7.37.22.13.43.28.65.41.12.13.28.23.41.36.22.2.42.41.62.63.09.1.17.2.25.3.35.41-.06-.1-.09-.11.17.08.4.59.49.74.17.28.32.57.47.87.02.04.04.07.07.11.03.08.05.17.07.21.1.28.19.56.27.84.07.28.13.57.19.86v.02a10.462 10.462 0 0 1 .01 1.35v.11l-.06.28c-.07.32-.15.64-.27.94l-.03.09s-.14.3-.19.4c-.09.19-.2.36-.32.54 2.32.13 4.4.17 6.15.15.09-.32.17-.64.22-.98 1.03-6.06-2.79-12.79-8.97-14.24v-.02Zm3.42 11.15s.02.06.02.13l-.02-.13Zm.02 1.78c0 .08-.01.15-.02.16.01-.07.02-.11.02-.16ZM34.91 158.84c-.37-.4-.74-.79-1.09-1.2-.02-.03-.12-.15-.19-.23-.02-.04-.05-.07-.06-.07-.19-.27-.37-.54-.53-.83-.06-.11-.12-.22-.17-.33-.02-.04-.08-.18-.12-.27v-.02c-.05-.14-.1-.28-.14-.42-.05-.19-.09-.37-.13-.56 0-.11-.04-.33-.04-.37-.03-.5-.01-1 .03-1.5 0-.02.01-.11.02-.2.06-.3.11-.59.17-.88.46-2.14 1.24-4.19 1.75-6.31.58-2.4.85-4.94.19-7.37-.7-2.59-2.37-4.72-4.47-6.32-4.24-3.23-10.08-3.31-14.93-1.49-.78 2.64-1.51 5.19-2.16 7.53.78-.54 1.59-1.04 2.44-1.47l.75-.36c.07-.03.11-.05.13-.06.03-.01.07-.02.13-.05a17.076 17.076 0 0 1 3.43-.97l.13-.02c.11-.01.29-.04.33-.04.32-.03.64-.05.95-.06.57-.01 1.14.02 1.72.07.12.02.24.04.36.07.31.06.62.14.93.22.25.07.49.17.75.25h.02l.12.06c.48.23.94.49 1.37.78.07.04.34.26.4.3.1.09.22.2.26.23.19.18.38.36.56.56l.22.25c.02.02.09.11.14.18.07.11.18.27.21.32.14.22.27.44.38.67.06.12.11.27.14.33-.01-.03-.03-.09-.06-.2.07.25.17.49.24.74.01.05.09.34.14.55 0 .11.02.22.03.33.04.51.03 1.03-.01 1.54 0 .11-.02.22-.03.33-.02.35.04-.2.03-.2.04.17-.07.49-.11.67-.1.53-.22 1.04-.35 1.56-1.06 4.08-2.9 8.27-1.66 12.53.57 1.95 1.72 3.52 3.02 4.99 2.81.82 5.78 1.64 8.87 2.41-.36-.91-.85-1.78-1.42-2.55-.82-1.11-1.76-2.1-2.71-3.1Zm-2.4-6.08c.01-.09.02-.16.02-.16s0 .08-.02.16Zm-9.39-17.73c.2.02.11.01 0 0Zm6.15 5.52-.02-.19c.02.11.04.18.02.19Zm3.21 14.33v-.04c-.11-.46-.02-.13 0 .04Zm0 .09v-.04.04ZM20.47 121.06c.25.01.51.04.76.06.04 0 .3.04.43.05.95.14 1.89.35 2.81.62.49.14.97.31 1.45.49-.01 0 .23.1.38.15.14.06.36.16.35.15.92.43 1.8.94 2.65 1.5 1.69 1.1 3.28 2.36 5.06 3.32 1.9 1.02 3.94 1.7 6.11 1.78 2.05.08 4.04-.44 5.9-1.25 3.55-1.56 6.33-4.73 7.5-8.42 1.24-3.92.56-8.31-1.37-11.89-.93-1.73-2.22-3.28-3.71-4.54-.74-.62-1.51-1.2-2.22-1.84-.4-.35-.74-.73-1.11-1.1-.04-.04-.07-.07-.1-.09-.01-.02-.02-.04-.04-.07-.17-.25-.33-.5-.48-.77-.07-.13-.14-.27-.21-.4-.04-.07-.14-.35-.17-.41-.12-.33-.22-.67-.31-1.02-.06-.22-.09-.44-.14-.67 0-.04-.02-.08-.03-.12-.08-.44-.04-.98-.03-1.4 0-.23.02-.46.03-.69 0 0 0-.1.02-.2s.06-.41.06-.43c.04-.23.09-.46.14-.69.11-.45.23-.9.38-1.34.06-.19.14-.36.2-.54v-.02c.04-.09.08-.17.12-.25.93-1.94 2.25-3.65 3.36-5.48 1.11-1.82 2-3.82 2.47-5.9 1.07-4.76.25-10.01-3.23-13.61-.6-.62-1.28-1.18-2.01-1.67a81.432 81.432 0 0 0-3.27 4.68c.06.04.12.07.17.11 0 0 .07.05.15.1.09.07.28.22.29.23.22.19.42.38.62.59.1.11.48.58.52.6.15.22.31.44.45.68.11.2.21.4.32.6.02.05.05.09.07.12.01.03.02.07.04.12.17.48.32.95.43 1.43.06.23.09.48.14.71.04.47.07.93.06 1.39 0 .46-.04.93-.07 1.39v.07s0 .03-.01.05c-.06.29-.11.59-.17.88-.09.41-.2.83-.33 1.23-.07.24-.15.49-.25.72-.01.04-.12.3-.17.42-.37.83-.81 1.62-1.29 2.39-1.04 1.68-2.24 3.27-3.12 5.05-1.75 3.53-2.44 7.77-1.25 11.6.61 1.97 1.67 3.74 3.15 5.19 1.34 1.32 2.95 2.33 4.23 3.73.12.14.25.28.36.43.04.06.09.11.12.15.25.34.48.69.69 1.06.19.33.37.67.53 1.01.06.11.31.82.07.16.07.22.16.43.23.64.15.43.27.87.37 1.32.03.15.06.3.09.44 0 .04.02.11.04.19.18.79.1 1.76.02 2.55v.12c-.01.19-.09.41-.12.57-.08.37-.19.74-.31 1.09-.03.09-.19.48-.16.43l-.06.12c-.22.45-.48.88-.76 1.3-.08.12-.17.23-.25.35.42-.59 0-.01-.09.09-.23.27-.49.53-.75.77-.15.15-.32.28-.48.43-.02.02-.04.04-.06.05s-.03.02-.05.03c-.36.24-.71.48-1.09.69-.27.15-.59.36-.89.46-.07.02-.15.04-.19.06-.17.06-.34.11-.51.17-.38.11-.75.19-1.14.27-.11.02-.17.04-.19.04-.18.01-.37 0-.53 0-.35.01-.7 0-1.06-.03h-.09c-.21-.06-.42-.09-.63-.14-.4-.11-.8-.24-1.19-.38a.3.3 0 0 1-.1-.04c-.03-.02-.07-.04-.13-.07-.22-.12-.44-.22-.67-.34-1.85-1-3.5-2.32-5.28-3.46a23.518 23.518 0 0 0-6.22-2.8c-1.84-.53-3.76-.8-5.68-.87-.66 1.85-1.3 3.77-1.94 5.72a19.378 19.378 0 0 1 2.34.01h.01Zm26.04-12.19c-.14-.16-.08-.1 0 0Zm-4.66 14.56s-.09.02-.14.02c.05 0 .1-.02.14-.02Zm3.54-49.08c-.02-.15-.04-.44 0 0ZM128.47 115.69c.58.34 1.18.66 1.79.95.74-1.79 1.38-3.64 1.93-5.42-.5-.27-.99-.54-1.46-.85-.49-.31-.96-.64-1.43-.98-.02-.02-.48-.38-.55-.43-.19-.15-.37-.32-.55-.48-.95-.84-1.77-1.77-2.6-2.73-.09-.12-.16-.22-.23-.32-.2-.28-.4-.56-.59-.85-.35-.54-.69-1.1-.99-1.67-.28-.52-.54-1.05-.77-1.59a19.2 19.2 0 0 0-.27-.68c-.11-.28-.2-.57-.3-.86-.28-.88-.51-1.78-.69-2.69-1.72-.26-3.74-.56-5.88-.88.88 8 5.55 15.36 12.58 19.46Z"/><g id="Layer_5"><path d="M184.59 147.47c-.25-4.6-.53-9.2-.86-13.8-.04-.54-.29-1.04-.67-1.37-.29-.4-.74-.67-1.38-.67h-16.13c.14-2.74-.32-5.52-1.36-8.06-1.17-2.85-2.93-5.77-5.74-7.23-.86-.45-1.95-.22-2.46.65-.47.81-.22 2.01.65 2.46 2.09 1.09 3.46 3.41 4.27 5.55.81 2.14 1.15 4.37 1.04 6.64h-21.77c.15-.96.39-1.91.72-2.83.08-.24.19-.47.28-.71-.19.53-.01.04.04-.07.06-.13.12-.27.19-.4.24-.49.51-.97.79-1.44.49-.8.2-2.01-.65-2.46-.85-.45-1.94-.21-2.46.65-1.23 2.02-2.11 4.31-2.43 6.66-.03.21-.04.4-.04.6h-15.86c-.39 0-.7.1-.96.27-.83.18-1.3.91-1.41 1.76-2.1 16.25-3.46 32.59-4.07 48.96-.17 4.64-.28 9.28-.34 13.92 0 .45.12.8.34 1.08.19.67.74 1.24 1.65 1.24h69.06c.61 0 1.05-.25 1.34-.62.3-.32.49-.73.46-1.18-.97-16.52-1.38-33.07-2.26-49.59Z" style="fill:#fbae5e"/><path class="cls-4" d="M51.62 55.32s1.29-3.89.74-7.17c-.55-3.29-1.28-11.05-1.28-11.05s1.97-3.42 6.15-6.53c4.18-3.11 9.11-6.38 13.32-7.58 4.21-1.2 9.88-2.08 9.88-2.08s2.14 7.59 2.5 10.6c.36 3.02.45 14.59-.38 16.63-.82 2.04-3.07 5.05-3.07 5.05H75l-4.48-.55-.68 6.09s-5.84-1.8-8.96-2.33c-3.12-.52-7.45-1.01-7.45-1.01l-1.84-.08Z"/><path class="cls-1" d="M151.43 198.8c-1.04-4.47-1.86-21.68-1.9-22.45-.06-.62-.51-1.12-1.09-1.28l-4.37-.84c-.65-.16-1.14-.75-1.14-1.46 0-.23.05-.45.14-.64.32-.84 8.67-16.05 23.82-25.41a3.86 3.86 0 0 1 2.17-.66c.8 0 1.55.24 2.17.66 3.28 2.02 6.24 4.33 8.87 6.69s.02.01.04.01c.03 0 .06-.03.06-.06v-1.52c0-.51.42-.93.93-.93h.12l3.52.43c-.06-1.29-.12-2.59-.19-3.88-.25-4.6-.53-9.2-.86-13.8-.04-.54-.29-1.04-.67-1.37-.29-.4-.74-.67-1.38-.67h-60.91c-.39 0-.7.1-.96.27-.83.18-1.3.91-1.41 1.76-2.1 16.25-3.46 32.59-4.07 48.96-.17 4.64-.28 9.28-.34 13.92 0 .45.12.8.34 1.08.19.67.74 1.24 1.65 1.24h35.47s-.02-.04-.02-.06ZM180.56 166.18c-.03-.3-.07-.42-.07-.42a.939.939 0 0 0-.86-.59c-.2 0-.39.06-.54.18 0 0-.11.07-.28.24 0 0-5.78 5.9-7 23.43 0 0-.03.25.04.47.1.36.38.66.86.74l3.01.42c.27.04.47.24.47.51 0 0-.13 2.78-.66 7.73h4.44c.09-1.46.33-5.55.54-10.49.31-7.31.55-16.68.05-22.19Z"/><path class="cls-1" d="M164.76 190.19c.02-.29.17-.53.39-.68a4.728 4.728 0 0 0 2.04-3.89v-.21c-.22-5.9-.32-12.62 0-17.92v-.07a.87.87 0 0 0-.9-.86c-.46 0-.84.37-.86.82-.22 3.63-.24 7.95-.16 12.2 0 .57-.45 1.04-1.02 1.05s-1.04-.45-1.06-1.02c-.08-4.23-.06-8.5.16-12.12v-.07a.87.87 0 0 0-.9-.86c-.46 0-.84.37-.86.82-.22 3.65-.24 7.98-.16 12.26.01.57-.45 1.04-1.02 1.06s-1.04-.45-1.06-1.02c-.08-4.25-.06-8.55.16-12.19v-.07a.87.87 0 0 0-.9-.86c-.46 0-.84.37-.86.82-.33 5.46-.21 12.44.01 18.48a4.69 4.69 0 0 0 2.29 3.8c.25.16.43.43.44.75 0 .09.01.21.01.3.16 3.33.36 6.49.47 8.15h4.41c-.08-.71-.19-1.86-.34-3.38-.4-4.38-.29-5.29-.29-5.29Z"/><path class="cls-5" d="M181.15 150.92c-.51 0-.93.42-.93.93v1.52s-.03.06-.06.06c-.01 0-.03 0-.04-.01-2.63-2.37-5.59-4.67-8.87-6.69a3.86 3.86 0 0 0-2.17-.66c-.8 0-1.55.24-2.17.66-15.16 9.36-23.5 24.57-23.82 25.41a1.51 1.51 0 0 0 1 2.1l4.37.84c.58.16 1.02.66 1.09 1.28.03.77.86 17.99 1.9 22.45s.01.05.02.06H161c-.11-1.66-.31-4.83-.47-8.15 0-.09-.01-.21-.01-.3a.954.954 0 0 0-.44-.75 4.705 4.705 0 0 1-2.29-3.8c-.23-6.04-.34-13.02-.01-18.48.03-.45.4-.82.86-.82.49 0 .88.38.9.86v.07c-.21 3.64-.23 7.95-.16 12.19.01.57.49 1.03 1.06 1.02.57-.01 1.03-.49 1.02-1.06-.08-4.27-.06-8.61.16-12.26.03-.45.4-.82.86-.82.49 0 .88.38.9.86v.07c-.21 3.62-.23 7.9-.16 12.12a1.04 1.04 0 0 0 2.08-.03c-.08-4.25-.06-8.56.16-12.2.03-.45.4-.82.86-.82.49 0 .88.38.9.86v.07c-.31 5.31-.21 12.03 0 17.92v.21c0 1.62-.81 3.04-2.04 3.89-.22.15-.37.4-.39.68 0 0-.11.91.29 5.29.15 1.53.27 2.67.34 3.38h10.12c.53-4.96.66-7.73.66-7.73 0-.27-.2-.47-.47-.51l-3.01-.42c-.47-.08-.76-.38-.86-.74-.06-.22-.04-.47-.04-.47 1.22-17.52 7-23.43 7-23.43.17-.18.28-.24.28-.24.16-.11.34-.18.54-.18.39 0 .73.25.86.59 0 0 .05.12.07.42.5 5.51.25 14.88-.05 22.19-.21 4.95-.45 9.04-.54 10.49h5.09c.61 0 1.05-.25 1.34-.62.3-.32.49-.73.46-1.18-.9-15.23-1.32-30.48-2.06-45.71l-3.52-.43h-.12Z"/><path class="cls-4" d="M127.97 121.25c.08-.23 5.27-14.67 5.27-14.67l4.79 1.99s7.84-3.37 10.25-2.98 3.06.08 3.96 1.86c.9 1.79.9 2.09 2.66 3.73 1.76 1.64 2.29 3.51 1.76 4.31s-1.37.15-1.37 1.5 1.1 2.54 0 3.34c-1.1.8-.87.86-2.14 1.23-1.28.36-1.67 1.5-2.18 2.87-.51 1.36.02 1.89-1.87 2.62-1.89.73-4.99-.36-5.58-.62s-7.43-4.86-7.43-4.86l-8.11-.32Z"/><path class="cls-8" d="M158.43 113.08c-6.11-10.44-9.06-11.31-20.42-6.41-2.86-1.3-5.74-2.53-8.65-3.67-5.48.73 0 4.54 2.72 4.96 7.82 5.69 11.54-2.66 18.49.12.7 2.47 3.21 4.01 4.48 6.12-.09-.25.06.39.03.37-1.27 1.43-2.54 2.91-2 5.1-2.8.23-3.89 2.5-4.04 4.99 0-.01-.22.33-.2.32-.1.12-.23.24-.35.35-.1.06-.55.27-.71.3-3.21.16-6.25-2.27-8.88-4.02-1.58-2.63-11.24-1.95-14.2-2.74-2.31-.05-2.33 3.57 0 3.59l10.93 1.19c4.67 3.91 15.92 10.21 17.2.14 2.13-1.17 4.64-2.1 3.79-5.53 1.55-1.13 2.56-3.24 1.82-5.17Zm-5.65 10.41c-.01.01-.02.02-.04.03l.03-.03Zm.31-3.68c.04.17-.01.08 0 0Zm3.53-1.68c0-.12.01-.07 0 0Z"/></g><path d="M59 31.16c-.67-.4-1.63-.29-2.18.28-1.86 1.95-3.65 3.97-5.38 6.03-.74-.15-1.59.09-1.94.82-.67 1.39-1.02 2.94-.84 4.48.09.77.23 1.51.52 2.22.35.86.78 1.58 1.36 2.3.22.27.63.44 1 .5.01 0 .03.01.04.02.88.24 2.03-.3 2.21-1.26.14-.72.27-1.45.46-2.15.16-.57.36-1.14.54-1.52.53-1.1 1.2-2.11 1.87-3.12 1.36-2.02 2.78-4.11 3.17-6.56.13-.8-.08-1.6-.82-2.03Z" style="fill:#f75e28"/><g id="Layer_3-2"><path d="M82.33 20.72c-.21-2.36-.8-4.62-1.79-6.76.4-2.27.4-4.54-.03-6.81-.41-2.13-1.24-4.19-3.43-4.97-1.9-.68-4.09-.1-5.89.62-2 .8-3.85 1.88-5.6 3.14-3.57 2.56-7 5.38-10.37 8.2-3.37 2.82-6.52 5.67-9.41 8.87-1.59 1.76-3.64 3.93-3.05 6.53.41 1.79 2.38 3.3 4.19 2.99l2.35 4.23c-.12.72.28 1.54.88 1.89.92.54 1.87.14 2.46-.65 5.09-6.79 12.56-11.75 20.72-14.02 2.32-.65 4.68-1.08 7.08-1.27.68-.05 1.28-.42 1.59-.98.21-.28.33-.63.3-1.01h.01Z" style="fill:#78577a"/><path class="cls-8" d="M52.66 58.64c.76-3.57 1.05-7.23 1.04-10.87 0-.94-.82-1.84-1.8-1.8-.97.05-1.8.79-1.8 1.8a55.333 55.333 0 0 1-.36 6.57c-.02.19-.05.38-.07.57.04-.29-.05.3-.05.36-.12.81-.27 1.61-.43 2.41-.19.91.27 1.98 1.26 2.21.9.21 2-.27 2.21-1.26ZM84.05 27.53c-.3-1.45-.67-2.89-1.08-4.31-.1-.34-.21-.68-.31-1.02-.04-.14-.21-.84-.14-.39-.12-.69-.22-1.15-.53-1.8-.42-.88-1.67-1.11-2.46-.64-.9.53-1.07 1.58-.64 2.46.02.04.08.3.08.26.03.23.06.46.11.68.19.78.47 1.54.68 2.3.41 1.48.75 2.97 1.04 4.47.58 3 .89 6.05.96 9.1.1 4.35.33 9.77-3.13 12.93-.31.08-.62.15-.93.21l-.35.06c.17-.03-.33.03-.39.04-.69.06-1.38.05-2.07-.02-.11-.01-.62-.03-.14-.01-.18 0-.38-.06-.55-.09a16.8 16.8 0 0 1-.97-.21c-.74-.18-1.47-.4-2.2-.62-.42-.13-.89-.06-1.29.14-.46.21-.84.58-.94 1.12-.62 3.09-1.08 6.23-1.43 9.37-.1.94.9 1.84 1.8 1.8 1.06-.05 1.69-.79 1.8-1.8.08-.75.17-1.49.27-2.23.01-.11.02-.16.02-.17v-.03c.03-.17.05-.34.07-.51.05-.37.11-.74.17-1.12.13-.86.28-1.72.43-2.57.97.24 1.95.44 2.95.54 1.65.16 3.43-.06 5.08-.51.26-.07.5-.21.7-.4l.1-.07h-.01c3.53-2.8 4.36-7.34 4.54-11.59a61.82 61.82 0 0 0-1.25-15.35Z"/></g><path class="cls-5" d="M50.35 98.93c-.27.21.77 2.16 3.04 4.9 2.26 2.74 5.81 6.19 10.3 9.27 4.5 3.07 9.01 5.13 12.37 6.24 3.37 1.12 5.57 1.39 5.67 1.05.24-.77-7.91-3.57-16.52-9.52-8.66-5.86-14.23-12.45-14.86-11.94ZM59.65 67.05c-.03.78 4.71 1.44 9.96 3.76 5.28 2.25 9 5.26 9.55 4.7.25-.26-.38-1.38-1.84-2.81-1.45-1.43-3.77-3.11-6.64-4.36-2.87-1.24-5.69-1.79-7.72-1.87-2.04-.08-3.29.22-3.31.58ZM67.76 130.36c-.65-.44-3.64 3.29-8.62 6.01-4.92 2.82-9.66 3.43-9.63 4.22.01.35 1.27.68 3.32.53 2.04-.14 4.86-.85 7.62-2.39 2.76-1.55 4.84-3.58 6.02-5.26 1.2-1.68 1.57-2.92 1.28-3.11Z"/></svg>