<svg id="Illustration" xmlns="http://www.w3.org/2000/svg" viewBox="0 0 200 200"><defs><clipPath id="clippath"><path d="m141.76 39.78-2.5 9.43-1.31.78s-11.04-4.92-17.21-6.5c-6.17-1.58-10.86-2.94-14.57-3.72-3.72-.77-1.15-2.07.6-6.14 1.75-4.06 3.2-7.21 3.2-7.21s-5.72-3.81-6.73-9.64c-1-5.83 3.2-13.12 11.42-14.8 8.21-1.68 7.69 4.04 14.85 1.46 7.16-2.58 13-3.77 17.14 4.18 4.15 7.94 3.28 10.41 7.14 15.57 3.85 5.16 1.31 12.15 0 14.04-1.31 1.89-5.48 5.69-12.03 2.55Z" style="fill:none"/></clipPath><style>.cls-3{fill:#f6c243}.cls-5{fill:#fff}.cls-6{fill:#ff8000}.cls-7{fill:#a0b4b5}.cls-8{fill:#c1dade}.cls-9{fill:#ceccca}.cls-10{fill:#d0aa8c}.cls-11{fill:#5b3d5b}</style></defs><g id="Layer_4"><path class="cls-3" d="M142.46 45.86c-2.58-1.4-5.67.04-6.67 2.61-.42.25-.67.72-.73 1.24-.17 1.42-.27 2.85-.29 4.28 0 .68 0 1.36.03 2.04.03.75 0 1.58.19 2.3.75 2.92 5 1.81 6.74.57 2.19-1.57 3.27-4.09 3.42-6.72.13-2.3-.5-5.13-2.69-6.33Z"/><path class="cls-9" d="M36.52 175.84c-2.86-5.06-11.56-20.89-12.46-22.53-.9-1.64-7.1-12.7-7.1-12.7s13.18-8.46 19.16-11.03c5.98-2.57 11.69-4.85 13.18-4.31 1.49.55 5.9 2.58 8.79 8.51 2.89 5.93 11.29 21.49 13.55 25.18 2.26 3.68 5.51 11.28 6.14 13.74.63 2.47.92 5.15-1.63 7.4s-14.21 10.07-16.31 11.48c-2.1 1.4-5.69 4.52-9.12 2.02-3.43-2.5-3.79-2.21-6.92-6.62-3.12-4.42-7.26-11.14-7.26-11.14h-.02Z"/><path d="M41.02 168.39c-1.84-3.18-6.49-11.85-7.28-13.48-.79-1.63-2.13-5.21 1.94-7.54s12.94-7.86 14.78-7.61c1.84.25 3.8 1.75 5.87 4.52 2.05 2.77 9.45 14.58 11.44 18.46 1.99 3.88 4.28 8.19 3.83 9.53-.45 1.35-5.02 5.35-7.74 6.9-2.72 1.55-6.98 5.12-9.62 4.35-2.65-.77-6.65-4.73-8.71-7.92-2.05-3.2-4.5-7.2-4.5-7.2Z" style="fill:#f5f3f1"/><path class="cls-6" d="M16.1 141.62s-5.18 8.07-5.88 11.66c-.7 3.58-1.21 6.75 0 12.03 1.21 5.28 2.79 8.48 5.88 8.76 3.09.28 4.42 1.18 6.69-1.22 2.26-2.41 2.56-2.66 3.31-1.64l10.89 14.78c.82 1.12 5.88 8.66 8.67 9.7 2.79 1.04 6.61 0 6.61 0s-.25-.03-3.65-3.46-12.57-17.5-14.8-21.09c-2.24-3.59-13.46-24.9-13.46-24.9l-4.26-4.62Z"/><path class="cls-10" d="M70.69 123.81s-5.87-2.85-7.52-5.03c-1.65-2.17-2.58-3.07-3-4.73-.42-1.66-.42-2.63.48-2.95.9-.32 2.9-.54 2.14-1.17-.75-.62-2.12-1.13-3.04-1.65-.91-.53-2.68-1.33-2.68-1.33s-1.03-1.78.35-2.54c1.39-.76 2.29-1.98 2.29-1.98l-1.25-2.99s-.12-.64 1.35-.26c1.47.37 2.26.3 2.27-1.4.02-1.69-1.38-2 .17-2.74 1.55-.75 2.74-1.83 3.49 0s2.17 5.17 2.17 5.17l4.59 10.54 1.89 3.36-3.72 9.71v-.02ZM118.15 74.74c.25-.54-.75-5.96-.75-5.96s-6.62-3.77-7.79-7.74c-1.17-3.98-2-8.69-1.97-11.22.03-2.53 1.01-8.91 1.01-8.91l.97-1.88 26.04 8.44-.7 11.44.26 8.58-17.06 7.25h-.02Z"/><path class="cls-8" d="M121.82 169.46h-.01.01zM193.63 109.31c-.42-2.63-1.85-4.96-3.29-7.15a86.733 86.733 0 0 0-4.44-6.12 79.31 79.31 0 0 0-10.26-10.63 79.347 79.347 0 0 0-14.07-9.68c-.11-.06-.21-.1-.31-.13-.12-.09-.25-.17-.41-.22-5.77-2.01-12.09-3.98-18.16-2.14 0-.02-.01-.04-.02-.05-.13-.34-.26-.7-.37-1.04-.22-.65-.4-1.31-.56-1.98-.35-1.46-.52-2.55-.6-4-.04-.66-.5-1.31-1.18-1.42-.4-.3-.94-.42-1.51-.18l-24.24 10.31c-.7.3-.86.9-.68 1.44-.5 2.29-.65 4.65-.44 6.99 0 0-.02.01-.03.02a40.4 40.4 0 0 0-9.1 11.68c-.11.22-.15.46-.16.7-.01.02-.02.03-.03.05-4.21 7.02-7.95 14.32-11.2 21.84-1.97-1.18-4.06-2.19-6.08-3.17-3.2-1.56-6.46-2.99-9.59-4.69-.33-.18-.65-.21-.94-.16-.43.06-.84.29-1.02.68-2.83 6.07-5.31 12.35-7.38 18.72-.22.66.04 1.18.48 1.48.1.13.21.25.37.35 3.63 2.44 7.24 4.9 10.88 7.34 3.08 2.06 6.24 4.05 9.6 5.61 3.02 1.4 6.3 2.57 9.66 2.56 3.13 0 5.71-1.3 8.12-3.22 1.97-1.58 3.77-3.47 5.26-5.57a203.88 203.88 0 0 0 4.67 19.53c1.12 3.83 2.36 7.64 3.85 11.34.02.06.05.1.08.16.14.54.57.96 1.31.89 15.89-1.57 31.3-6.54 45.94-12.75 4.05-1.72 8.06-3.56 12.02-5.5.09 0 .18-.02.27-.04.83-.23 1.11-.99 1-1.77a66 66 0 0 0-3.85-14.87c.14-.06.27-.13.4-.23 3.97-3.23 7.65-6.79 10.66-10.94 1.45-2 2.73-4.13 3.77-6.37 1.13-2.44 2.03-4.97 1.6-7.68ZM151.59 19.32c-2.2-3.88-2.9-8.44-5.29-12.21-2.1-3.31-5.44-5.89-9.54-5.61-3.95.27-7.81 3.07-11.8 2.25-2.03-.42-3.88-1.4-5.94-1.7-1.74-.25-3.5-.16-5.21.24-3.36.77-6.43 2.77-8.44 5.59-4.35 6.1-1.78 15.06 4.62 18.46-1.87 3.83-3.61 7.73-5.19 11.69-.29.72.32 1.58 1 1.77.17.05.33.05.49.04 10.69 1.98 21.11 5.3 30.94 9.93.72.34 1.4.07 1.8-.41.24-.16.44-.42.54-.78l2.44-8.97c2.03 1.81 5.19 2 7.8.72 3.55-1.76 5.71-5.65 6.01-9.51.33-4.36-2.2-7.88-4.23-11.49Z"/><path class="cls-3" d="M41.38 127.02c-5.15-7.03-8.23-15.4-8.72-24.12-.03-.48-.25-.84-.56-1.07-.45-.52-1.17-.58-1.8-.3-2.9 1.31-5.76 2.66-8.62 4.04-2.86 1.39-5.74 2.55-8.13 4.49-.41.33-.49.91-.35 1.41.59 9.07 3.71 17.87 9.09 25.21 1.07 1.45 3.5.08 2.51-1.39l13.83-7.23c.09.13.18.27.28.4 1.08 1.47 3.56.05 2.48-1.44Z"/><path class="cls-11" d="M63.91 95.72c1.13.24 1.84 2.88 2.24 3.79a165 165 0 0 1 1.66 4.18c2.15 5.51 4.44 11.19 8.98 15.2 1.38 1.21 3.41-.8 2.03-2.03h-.03c-5.46-4.81-7.38-12.12-10.11-18.61-.68-1.61-1.3-3.49-2.7-4.61-1.26-1-3.24-1.17-4.45.03-1.22 1.2-.85 2.83-.37 4.3-1.32-.4-2.83-.43-3.79.53-.69.69-.84 1.75-.59 2.66.16.57.49 1.02.89 1.42-1.01.48-1.85 1.23-2.21 2.41-.31.98-.12 2.06.54 2.86.55.68 1.37.98 2.19 1.2.68.18 1.33.43 1.94.74-.04.02-.08.03-.12.05-.79.44-1.49 1.26-1.62 2.19-.04.3-.06.57.03.84-.04.21-.04.43.03.64 1.86 5.27 6.05 9.47 11.31 11.35 1.81 1.41 3.73 2.64 5.79 3.63.68.32 1.58.21 1.96-.52.33-.64.21-1.62-.52-1.96-.97-.47-1.92-.97-2.83-1.55-.46-.29-.91-.57-1.35-.89-.22-.15-.44-.31-.66-.47-.11-.08-.22-.16-.32-.24-.06-.04-.11-.09-.16-.12.15.12.17.13.05.04-.09-.07-.18-.14-.28-.19-.17-.17-.38-.31-.62-.39-4.37-1.47-8.08-5.12-9.6-9.45-.01-.03-.03-.06-.04-.1 0-.03 0-.06.02-.08 0-.02.01-.03.02-.04-.01.02-.03.05-.05.08.02-.04.04-.09.07-.13.01-.02.02-.03.01-.02l.04-.04c.04-.03.08-.07.12-.11l-.09.09c.01 0 .02-.01.03-.02.04-.03.09-.05.14-.08.05-.02.09-.03.14-.05.06-.02.11-.03.18-.05h.01c.11 0 .23-.02.35-.02a.2.2 0 0 1 .09.02l.18.05c.01 0 .02 0 .03.01-.02-.01-.04-.02-.07-.04.03.02.06.03.09.05.04.02.07.03.07.04.1.05.19.1.28.15.07.04.14.09.2.14.12.11.24.21.35.33.07.11.15.22.21.34.21.39.31.62.42.93.13.36.37.66.68.85.01.01.02.03.03.04.24.18.47.37.73.52.26.14.55.27.83.36.17.07.35.11.54.14.31.06.61.1.92.11.36 0 .75-.16 1.01-.42.14-.13.24-.29.3-.46.09-.17.13-.35.12-.55-.02-.37-.13-.75-.42-1.01s-.62-.41-1.01-.42c-.06 0-.12 0-.18-.01-.13-.02-.26-.06-.39-.1-.03-.08-.07-.15-.12-.23-.2-.3-.42-.61-.65-.92.29-.26.47-.62.46-1.04-.05-1.7-.24-3.4-.53-5.08.14-.28.19-.61.06-1.01l-1.81-5.66c-.28-.87-.57-1.74-.83-2.61-.13-.44-.52-1.12.14-.97Zm-1.88 6.73c-.52-.48-1.07-.91-1.63-1.32-.24-.17-.41-.29-.54-.4l-.11-.11c.53.04 1.07.25 1.57.55.28.18.61.22.93.17l.63 1.96c-.27-.29-.55-.58-.84-.85Zm-2.7-1.87c-.06.03-.09 0 0 0Zm-.68 5.63s-.23-.08-.27-.09c-.06-.03-.12-.06-.19-.1 0-.02-.01-.04-.02-.06v.04l-.01-.01c-.01.05-.01.04 0 0-.06-.06-.05-.06 0 0 0-.06.02-.16.03-.2-.03.22.04 0 .06-.12.02-.03.06-.1.1-.16 0 .02.22-.17.22-.19.46-.31 1.06-.44 1.68-.57.48.45.93.93 1.29 1.42.44.6.81 1.2 1.12 1.82-.47-.33-.96-.63-1.48-.88a11.8 11.8 0 0 0-2.08-.77l-.45-.12Zm3.19 5.98c.11-.02.08-.01 0 0Zm.39 0c.07 0 .13.02 0 0ZM58.15 105.99Z"/><path class="cls-11" d="m61.23 112.45-.01.02c0 .01-.01.03-.02.05a.26.26 0 0 0 .03-.07s.03-.02.07-.06c-.01 0-.02.01-.03.02-.01.01-.03.02-.04.03ZM62.47 112.26c.06.03.09.05.09.05-.02-.01-.05-.03-.07-.04h-.02ZM16.96 142.04c1.84 0 1.84-2.87 0-2.87s-1.84 2.87 0 2.87Z"/><path class="cls-6" d="M53.92 193.77c-1.96.93-3.84 2.01-6.02 1.36-2.58-.77-4.55-3.07-6.14-5.11-4.41-5.63-8.51-11.52-12.74-17.27-.82-1.11-1.65-2.83-2.91-3.48-1.41-.72-2.63.17-3.39 1.35-1.18 1.84-3.03 2.58-5.22 2.29-5.67-.75-7.04-7.3-6.89-12.06.23-6.98 2.96-13.85 7.38-19.23 1.17-1.41-.86-3.46-2.03-2.03-4.3 5.25-7.11 11.53-7.97 18.28-.73 5.71-.12 13.24 5.35 16.56 2.12 1.29 4.82 1.72 7.22 1.14 1.21-.3 2.37-.89 3.28-1.75.43-.4.78-.87 1.11-1.37.08-.11.19-.27.23-.39 0 .03.29-.75-.07-.2l-.24.08.27.35c.11.26.39.53.55.75 4.59 6.23 9.06 12.59 13.81 18.69 2.03 2.6 4.51 5.28 7.8 6.18 2.94.81 5.46-.45 8.08-1.69 1.66-.79.21-3.26-1.44-2.48Z"/><path class="cls-9" d="M79.27 170.91c-1.24-4.14-3.64-8.05-5.65-11.86-4.18-7.91-8.65-15.67-13.42-23.25-1.2-1.91-2.42-3.81-3.65-5.7-1-1.53-2.01-3.15-3.39-4.37-3.43-2.98-7.47-1.7-11.26-.19-9.07 3.59-17.69 8.23-25.68 13.82-.98.69-.71 1.98.02 2.5.03.15.07.31.16.47 5.11 9.3 10.22 18.6 15.33 27.89 2.35 4.27 4.72 8.53 7.4 12.6 2.49 3.8 5.22 8.04 8.9 10.81 1.6 1.2 3.34 1.88 5.32 1.86.28.76 1.13 1.32 2.01.76 3.87-2.45 7.65-5.06 11.45-7.61 3.37-2.25 7.25-4.31 10.09-7.25 2.84-2.94 3.54-6.64 2.38-10.48Zm-3.48 7.36c-1.08 1.55-2.68 2.7-4.21 3.76-1.86 1.27-3.76 2.5-5.63 3.76-2.82 1.88-5.63 3.81-8.46 5.68-1.22.81-2.86 1.18-4.27 1.18-1.84 0-3.32-1.02-4.62-2.26-3.15-2.98-5.63-6.81-7.93-10.46-5.01-7.92-9.3-16.31-13.81-24.52L18.94 141c6.15-4.2 12.67-7.86 19.48-10.89 1.87-.83 3.77-1.62 5.68-2.34 1.77-.67 3.88-1.51 5.75-.78 1.47.57 2.49 1.96 3.35 3.23 1.15 1.69 2.25 3.41 3.34 5.14a360.65 360.65 0 0 1 12.6 21.38c1.97 3.63 3.89 7.29 5.72 10.99 1.62 3.28 3.27 7.2.94 10.56Z"/><path class="cls-9" d="M71.56 167.05c-1.33-2.65-2.68-5.28-4.07-7.89-2.89-5.37-6.07-10.59-9.8-15.43-1.6-2.07-3.52-5.34-6.46-5.49-1.14-.06-2.24.48-3.24.94-1.4.65-2.78 1.35-4.16 2.05-3.12 1.59-6.41 3.14-9.29 5.16-2.41 1.69-4.27 4.68-2.85 7.61.01.03.03.05.05.08 3.15 6.58 6.66 13 10.56 19.17 1.82 2.88 3.59 5.97 5.86 8.51 1.92 2.15 4.87 3.74 7.75 2.99.23.01.48-.02.73-.15 2.96-1.41 5.85-2.95 8.66-4.64 2.33-1.4 5.18-2.85 6.77-5.15 1.75-2.54.75-5.27-.51-7.77Zm-1.78 6.05c-.59.97-1.6 1.64-2.52 2.26-1.24.82-2.5 1.62-3.78 2.37-2.4 1.44-4.88 2.74-7.39 3.97-.05.01-.1.02-.14.04-3.02 1.26-5.44-1.38-7.01-3.63-1.87-2.67-3.63-5.43-5.33-8.21-3.44-5.61-6.57-11.41-9.41-17.34v-.01c-.39-.84.17-1.99.7-2.64.76-.95 1.91-1.55 2.95-2.14 2.39-1.37 4.81-2.68 7.25-3.94 1.16-.59 2.32-1.18 3.49-1.74.75-.36 1.78-1.04 2.64-.95 1.09.12 1.95 1.5 2.58 2.26.9 1.1 1.77 2.22 2.61 3.35 3.03 4.11 5.68 8.48 8.12 12.96 1.18 2.17 2.32 4.37 3.44 6.57.95 1.86 3.12 4.71 1.82 6.82Z"/><g style="clip-path:url(#clippath);fill:none"><path class="cls-7" d="m104.41 5.64 1.04 6.75c.07.44.51.93.88 1.15.41.24 1.01.34 1.47.19.46-.15.91-.44 1.15-.88.26-.49.28-.94.19-1.47l-1.04-6.75c-.07-.44-.51-.93-.88-1.15-.41-.24-1.01-.34-1.47-.19s-.91.44-1.15.88c-.26.49-.28.94-.19 1.47Z"/><path class="cls-7" d="m105.51 5.7 6.19 3.77-.69-2.62c-.32.6-.66 1.18-1.03 1.75-.17.26-.35.52-.54.76-.05.07-.11.13-.15.2.11-.14.12-.15.04-.05-.11.13-.21.27-.32.39-.85 1.02-1.8 1.95-2.83 2.79-.78.63-.71 2.05 0 2.7.83.76 1.87.68 2.7 0 2.23-1.81 4.08-4.09 5.43-6.62.49-.93.23-2.06-.69-2.62l-6.19-3.77c-.85-.52-2.14-.22-2.62.69-.48.91-.23 2.06.69 2.62ZM124.34 18.67c.95 2.88 1.8 5.79 2.56 8.72.25.97 1.38 1.65 2.35 1.34.97-.32 1.61-1.31 1.34-2.35-.76-2.93-1.62-5.84-2.56-8.72-.32-.95-1.34-1.66-2.35-1.34-.95.31-1.67 1.34-1.34 2.35Z"/><path class="cls-7" d="M126.2 19.5c2.06.63 4.17 1.11 6.3 1.44l-1.34-2.35-3.34 8.5c-.36.94.4 2.14 1.34 2.35 1.1.25 1.96-.33 2.35-1.34l3.34-8.5c.34-.89-.39-2.21-1.34-2.35-2.13-.33-4.23-.81-6.3-1.44-.96-.29-2.12.34-2.35 1.34-.23.99.32 2.04 1.34 2.35ZM109.97 38.19l3.3 7.65c.17.41.74.76 1.15.88.46.12 1.07.07 1.47-.19.4-.26.76-.66.88-1.15.12-.54.02-.97-.19-1.47l-3.3-7.65c-.17-.41-.74-.76-1.15-.88-.46-.12-1.07-.07-1.47.19-.4.26-.76.66-.88 1.15-.12.54-.02.97.19 1.47Z"/><path class="cls-7" d="m111.57 38.92 6.9 2.11-1.15-2.81a38.252 38.252 0 0 0-3.31 6.1c-.21.49-.34.94-.19 1.47.12.44.47.93.88 1.15.82.43 2.2.3 2.62-.69.92-2.13 2.02-4.17 3.31-6.1.71-1.06-.03-2.47-1.15-2.81l-6.9-2.11c-.96-.3-2.12.34-2.35 1.34s.32 2.04 1.34 2.35ZM149 34.61a90.4 90.4 0 0 1 3.14 6.5c.18.41.74.76 1.15.88.46.12 1.07.07 1.47-.19.4-.26.76-.66.88-1.15.12-.54.03-.97-.19-1.47-.97-2.21-2.01-4.38-3.14-6.5-.47-.88-1.77-1.23-2.62-.69-.9.58-1.18 1.67-.69 2.62Z"/><path class="cls-7" d="M150.56 33.88c.16-.03.32-.06.49-.08.15-.02.49-.08.14-.02a9.7 9.7 0 0 1 1.07-.11c.66-.06 1.32-.11 1.98-.12.66-.02 1.38-.02 2.06 0 .33 0 .66.05.99.06.45 0-.35-.12 0 0l.11.03c-.7-.24-1.02-.78-.96-1.62.17-.49 0 .04-.05.11l-.21.47-.42.94-.84 1.88-1.75 3.92c-.4.91-.3 2.09.69 2.62.83.44 2.18.29 2.62-.69l2.03-4.55 1.05-2.35c.48-1.07 1.02-2.17.33-3.31-.61-1-1.69-1.21-2.77-1.29-.82-.06-1.65-.08-2.48-.07-1.72.03-3.42.21-5.12.49-.99.16-1.62 1.44-1.34 2.35.34 1.07 1.29 1.51 2.35 1.34h.03ZM137.65-.88l2.76 7.9c.32.95 1.32 1.67 2.35 1.34.93-.31 1.69-1.34 1.34-2.35l-2.76-7.9c-.32-.95-1.32-1.67-2.35-1.34-.93.31-1.69 1.34-1.34 2.35Z"/><path class="cls-7" d="M139.26-.31c.95.06 1.89.13 2.84.22.44.05.88.1 1.32.14.25.03.51.06.75.1.23.03.25.03.06 0 .12.02.25.04.37.05.44.07.88.12 1.32.2.21.04.45.11.66.12-.75-.36-1.07-.83-.95-1.4q.03-.17-.02 0c.2-.5-.09.11-.14.2-.12.21-.26.41-.38.62-.23.36-.46.72-.7 1.07-.51.76-1.02 1.51-1.57 2.26a90.267 90.267 0 0 1-.8 1.07l-.23.29-.34.43c-.34.43-.77.84-1.02 1.33-.42.83-.36 1.87.32 2.55.64.64 1.66.76 2.45.31.86-.5 1.09-1.4.96-2.32-.09-.61-.75-1.2-1.34-1.34h-.06c-.97-.23-2.11.28-2.35 1.32-.22.97.29 2.12 1.34 2.35h.06l-1.34-1.32v.05l.2-1.47.21-.27.84-.49-.07.02 1.47.19-.07-.03.88 1.15-.05-.11v1.01c-.06.12-.12.24-.21.34l.23-.29.34-.43c.32-.41.65-.83.97-1.25.52-.68 1.02-1.37 1.51-2.06.49-.7.97-1.4 1.42-2.12.46-.72.99-1.45 1.17-2.3.28-1.4-.5-2.73-1.9-3.08-.94-.23-1.95-.31-2.91-.43-1.76-.23-3.53-.4-5.29-.51-1-.06-1.96.92-1.91 1.91.05 1.09.84 1.84 1.91 1.91l.04.02Z"/></g><path class="cls-5" d="M176.36 116.44c-.06 0-.11.04-.09.07.06-.04.07-.03.12-.06h.17c-.06 0-.13-.02-.21 0-.02 0 0 0 0-.02ZM170.3 113.23s.05-.03.08-.06c-.03 0-.06.03-.08.06ZM170.23 112.55v.04s.03-.07 0-.04ZM172.35 114.88l-.02-.12c-.05.1 0 .09.02.12ZM175.73 116.58s.03-.02.05-.03h-.04v.03ZM173.46 115.2h.02l.05-.08-.07.08ZM174.26 115.57s-.07.14-.1.22c.03-.07.06-.1.08-.1 0-.03.02-.07.03-.11ZM172.93 114.85l.03-.09-.03.09ZM151.32 100.1l.01.01.01-.01h-.02zM169.95 111.6s.03-.02 0 0ZM164.54 106.47c-.25.36-.5.28-.75.71.12-.14.63-.43.75-.71ZM163.79 107.18l-.02.05.03-.05ZM168.5 110.5c-.05.06-.09.11-.11.16.03-.04.07-.08.11-.16ZM167.57 110.46s.05-.09 0-.07l-.03.05s.08-.06.05.02ZM167.03 109.93l-.06.08h.04l.02-.08ZM154.23 101.93c0-.07.03-.13.05-.19-.06.14-.16.12-.05.19ZM175.73 116.54s-.02.03-.03.03h.03v-.03ZM165.11 113.11l-.06-.13c0 .06.02.11.06.13ZM158.2 105.48l-.05.02s.02 0 .05-.02ZM164.71 112.78c.1-.13.14-.22.16-.28l-.1.08-.07.2ZM156.45 101.09h-.03v.07l.05-.08h-.02ZM157.9 105.45l.06-.08-.07.06.01.02zM173.79 116.34l.07.08s-.05-.06-.07-.08ZM174.21 116.48l.03-.07-.03.07ZM167.39 114.14h-.03c-.09.04-.04.03.03 0ZM169.72 114.52c-.06.05-.11.09-.15.11.02.04.04.07.15-.11ZM165.12 113.12l-.01-.01.01.01z"/><path class="cls-5" d="M169.49 114.58c0 .08.03.09.08.06 0-.04-.02-.09-.08-.06ZM176.21 116.5h-.05.05ZM175.36 116.57s.1.07.16.05v-.02s-.11-.08-.16-.02ZM174.75 115.95s.09.06.12.09c0-.06-.03-.13.04-.12-.13-.21 0 .12-.16.04ZM174.37 115.7c.08 0 .02-.09.04-.12-.06.04-.08.05-.04.12ZM171.64 114.22l.14-.25c-.07 0-.06.1-.14.25ZM170.35 115.23l-.04.19.16-.23-.12.04zM171.2 113.15l.04-.02-.14.04.1-.02zM167.4 109.73l-.34.39c.1-.04.5-.46.34-.39ZM165.44 108.48c.17-.21.26-.37.04-.22 0 .07-.11.25-.04.22ZM160.8 103.02l.14-.1-.16.05.02.05z"/><path class="cls-11" d="M127.14 60.48c-1.58 1.36-3.12 2.78-4.77 4.04-1.27.97-2.75 1.95-4.39 2.09-3.4.3-5.75-3.05-6.93-5.8-1.45-3.41-1.86-7.24-1.97-10.91-.11-3.96.3-7.98 2.11-11.55.83-1.64-1.63-3.1-2.48-1.44-3.19 6.28-3.1 14.16-1.61 20.91 1.03 4.67 4.1 10.66 9.05 11.57.43 2.31.77 4.51 1.01 6.74.09.75.6 1.47 1.43 1.43.71-.03 1.52-.63 1.43-1.43a97.15 97.15 0 0 0-1-6.78c.19-.04.38-.08.58-.14 3.73-1.02 6.69-4.26 9.53-6.7 1.4-1.2-.63-3.22-2.03-2.03ZM137.04 69.43c-1.59-7.65.26-15.5-.5-23.22-.18-1.82-3.05-1.83-2.87 0 .78 8-1.04 16.05.6 23.99.37 1.81 3.13 1.04 2.76-.76Z"/></g><path class="cls-5" d="M156.71 159.65c.38-.13-1.21-5.54-3.51-14.32-2.28-8.79-5.17-20.99-7.39-34.64-.75-4.57-1.39-9-1.91-13.22-.28-2.11-.5-4.17-.72-6.16-.1-1-.2-1.98-.3-2.94-.14-1.43-.27-2.83-.4-4.2-.87.24-1.71.45-2.48.62l-.28.06-.15.02-.3.04c-.2.03-.4.04-.6.05-.8.04-1.59 0-2.36-.11-1.53-.25-2.93-.79-4.11-1.52-2.37-1.46-3.76-3.66-4.44-5.58-.71-1.94-.77-3.62-.74-4.75.04-1.13.14-1.76 0-1.8-.1-.03-.44.53-.72 1.71-.26 1.17-.44 3.01.15 5.25.56 2.2 1.96 4.89 4.7 6.79 1.35.94 2.97 1.66 4.78 2.03.91.19 1.86.27 2.83.25.24 0 .49 0 .74-.04l.62-.06.25-.03v.19l.09 1.29c.08.97.15 1.96.23 2.97.18 2.01.36 4.09.61 6.22.46 4.27 1.07 8.75 1.83 13.35 2.24 13.78 5.46 26.03 8.23 34.74 2.78 8.71 5.04 13.9 5.36 13.78ZM174.82 119.22c.46-.6-4.25-5.05-10.52-9.94-6.28-4.9-11.74-8.38-12.2-7.79-.46.6 4.25 5.05 10.52 9.94 6.28 4.9 11.74 8.38 12.2 7.79Z"/><path class="cls-5" d="M177.56 135.89c.7-.27-.63-5.37-2.98-11.37-2.35-6-4.82-10.65-5.53-10.37-.7.27.63 5.37 2.98 11.37 2.35 6 4.82 10.65 5.53 10.37ZM111.17 107.12c-.68-.19-3.19 7.78-2.83 17.97.31 10.19 3.34 17.98 4.01 17.74.77-.22-.99-8.05-1.27-17.83-.36-9.78.88-17.72.09-17.88ZM129.5 94.6c-.06-.17-.24-.32-.56-.28-.31.03-.73.29-.99.79-.24.47-.39 1.24.16 2.07.27.39.75.72 1.25.83.5.11.99.06 1.44-.11.44-.18.84-.48 1.12-.9.29-.42.41-.98.34-1.46-.16-.98-.8-1.44-1.3-1.62-.52-.18-1.01-.09-1.26.1-.26.19-.28.42-.21.59.19.33.47.62.44.94 0 .07-.01.14-.05.18-.06.04.17-.08.2-.06.04 0 .03.02-.09-.06-.11-.07-.18-.21-.18-.21s.04.15.01.28c-.03.14-.06.13-.03.11 0-.03.26-.11.18-.09-.05 0-.11-.05-.16-.1-.24-.21-.24-.62-.32-.98ZM132.58 113.13c-.07.37.07.78-.02 1.11-.04.31-.22.79-.28.79 0 .01 0 0 .02.02 0 0-.02-.03 0 0l.87.34c-.03.1-.03.04.08-.04.07-.07.35-.15.22-.13a.56.56 0 0 1-.26-.23c-.16-.28-.05-.61-.2-.87-.13-.29-.76-.56-1.39.07-.3.32-.52.84-.49 1.46a2.045 2.045 0 0 0 1.5 1.88l.5.14.49-.27c.31-.17.6-.41.82-.7.55-.73.61-1.52.5-2.13-.12-.62-.43-1.13-.8-1.44-.81-.65-1.51-.34-1.55 0ZM137.98 135.13c-.18.03-.43.03-.39 0-.04-.02-.11-.13-.14-.25-.04-.12 0-.15-.04 0 0 .16-.25.32-.13.25h.54s-.02-.02 0-.02c.01 0 .06.02.11.04.11.05.24.21.22.18.02-.01.04.08 0-.12-.23-.74.12.42.02 1.04.05.17.21.35.51.4.29.04.72-.06 1.11-.46.35-.39.68-1.01.51-1.89-.09-.43-.37-.92-.81-1.24-.44-.33-1-.47-1.49-.44-.98.08-1.72.61-2.11 1.43-.09.21-.15.43-.17.65-.01.26-.02.31.05.7.07.33.31.67.54.82.24.18.46.22.65.25.71.06 1.2-.33 1.35-.76.11-.46-.17-.6-.33-.58ZM143.92 151.96c-.06-.17-.25-.32-.59-.27-.33.04-.77.31-1.06.82-.27.5-.45 1.31.07 2.19.26.43.72.8 1.22.96.5.16 1.03.16 1.51.03.49-.14.93-.4 1.28-.81.35-.39.56-.95.56-1.45 0-1.03-.58-1.62-1.07-1.91-.51-.3-1.04-.3-1.32-.16-.29.13-.39.36-.37.53.31.58.68 1.83.19 1.16-.04.02-.02-.05-.06.15-.05.15-.09.15-.04.12 0-.01.11-.06.09-.05-.02 0-.05 0-.07-.02a.684.684 0 0 1-.15-.18c-.2-.31-.12-.74-.21-1.1Z"/></svg>