<svg id="Illustration" xmlns="http://www.w3.org/2000/svg" viewBox="0 0 200 200"><defs><style>.cls-1{fill:none}.cls-5{fill:#fff}.cls-7{fill:#a08675}.cls-8{fill:#bf9dd6}.cls-9{fill:#dd542a}.cls-10{fill:#5b3d5b}</style></defs><path class="cls-8" d="M34.45 176.46c-2.87-5.09-11.62-21.02-12.53-22.66-.91-1.65-7.14-12.77-7.14-12.77s13.25-8.5 19.27-11.09c6.02-2.58 11.76-4.89 13.26-4.33 1.5.56 5.93 2.6 8.84 8.56 2.91 5.97 11.35 21.62 13.63 25.32 2.28 3.7 5.54 11.34 6.17 13.83.64 2.48.92 5.18-1.65 7.44-2.57 2.26-14.29 10.13-16.41 11.54-2.12 1.41-5.72 4.55-9.17 2.04-3.45-2.52-3.82-2.22-6.96-6.66-3.14-4.44-7.31-11.21-7.31-11.21Z"/><path class="cls-5" d="M38.97 168.98c-1.85-3.2-6.52-11.92-7.32-13.56-.8-1.65-2.14-5.24 1.95-7.59 4.09-2.35 13.02-7.9 14.87-7.65 1.85.25 3.83 1.76 5.9 4.55 2.07 2.79 9.51 14.66 11.5 18.57 2 3.91 4.31 8.23 3.86 9.58-.46 1.35-5.05 5.38-7.79 6.94-2.74 1.56-7.01 5.16-9.68 4.37-2.66-.78-6.7-4.75-8.76-7.97-2.07-3.22-4.53-7.24-4.53-7.24Z"/><path class="cls-7" d="M68.82 124.14s-5.9-2.87-7.57-5.05c-1.67-2.18-2.6-3.08-3.02-4.75-.42-1.67-.43-2.64.48-2.97.91-.33 2.91-.55 2.15-1.18-.76-.62-2.14-1.14-3.05-1.67-.92-.53-2.68-1.34-2.68-1.34s-1.04-1.79.35-2.56c1.39-.76 2.3-1.99 2.3-1.99l-1.26-3.01s-.13-.64 1.35-.26c1.48.37 2.27.3 2.29-1.41.02-1.71-1.38-2.01.17-2.77 1.55-.76 2.76-1.85 3.51 0s2.19 5.2 2.19 5.2l4.61 10.6 1.9 3.38-3.74 9.77ZM116.55 74.79c.25-.55-.75-6-.75-6s-6.66-3.78-7.83-7.79c-1.17-4-2.01-8.74-1.98-11.28.03-2.54 1.02-8.96 1.02-8.96l.96-1.89 26.19 8.49-.7 11.5.26 8.63-17.16 7.3Z"/><path d="M192.51 109.45c-.42-2.65-1.91-5.03-3.36-7.23s-2.91-4.18-4.49-6.17a79.307 79.307 0 0 0-10.36-10.69c-4.33-3.7-9.03-6.94-14.04-9.65-.12-.06-.24-.11-.35-.14-.12-.09-.25-.17-.42-.22-5.79-2.01-12.14-4-18.22-2.17-.13-.34-.25-.68-.37-1.03-.21-.66-.41-1.32-.57-2-.16-.68-.29-1.35-.4-2.04-.01-.11-.03-.21-.05-.31a20.742 20.742 0 0 1-.16-1.67c-.04-.62-.43-1.22-1.01-1.43-.48-.46-1.17-.48-1.8-.21l-24.38 10.37c-.55.24-.78.9-.72 1.49-.5 2.31-.67 4.69-.46 7.05-3.73 3.3-6.85 7.31-9.14 11.74-.12.24-.18.5-.18.75-4.23 7.05-7.98 14.36-11.24 21.9-2-1.19-4.11-2.21-6.14-3.19-3.2-1.55-6.44-2.99-9.57-4.69-.08-.04-.16-.07-.24-.1h-.02c-.2-.07-.39-.09-.57-.07h-.01c-.05 0-.09.01-.14.02-.45.06-.88.29-1.07.71-2.85 6.11-5.35 12.43-7.43 18.85-.22.69.04 1.23.49 1.54.1.14.23.27.39.38 3.59 2.42 7.16 4.85 10.76 7.26 3.05 2.05 6.18 4.02 9.51 5.6 3.09 1.47 6.45 2.7 9.91 2.75 3.26.04 5.94-1.29 8.44-3.29 1.92-1.54 3.7-3.39 5.17-5.44a208.82 208.82 0 0 0 4.7 19.58c1.12 3.82 2.36 7.61 3.84 11.3.01.03.03.05.04.08.21.59.77 1.09 1.41 1.03s.02 0 .03 0c.07 0 .15-.01.23-.03 16-1.61 31.52-6.64 46.26-12.91 3.99-1.7 7.93-3.51 11.82-5.42.09 0 .18-.02.26-.04.87-.24 1.16-1.04 1.05-1.85-.7-5.1-2-10.09-3.85-14.9.13-.06.25-.14.37-.23 3.94-3.2 7.6-6.75 10.61-10.85a38.66 38.66 0 0 0 3.78-6.3c1.23-2.58 2.18-5.23 1.73-8.13Z" style="fill:#f2a6b0"/><path d="M149.86 18.38c-1.98-3.68-2.72-8.19-5.09-11.82-2.2-3.37-5.66-5.88-9.86-5.46-2.06.2-3.97.9-5.93 1.52-1.83.58-3.75 1.12-5.67.7-1.92-.42-3.84-1.4-5.88-1.69-1.83-.26-3.69-.17-5.5.27-3.37.82-6.4 2.85-8.4 5.68-4.31 6.14-1.73 15.15 4.68 18.57-1.87 3.83-3.6 7.72-5.18 11.68-.3.76.33 1.65 1.05 1.85.17.05.32.05.47.05 10.75 1.98 21.24 5.32 31.13 9.99.74.35 1.63.21 2.06-.54 0-.01.01-.03.02-.04.16-.16.29-.38.37-.65l2.42-8.91c.7.61 1.53 1.07 2.46 1.33 1.98.56 4.13.08 5.88-.94 3.49-2.04 5.59-6.08 5.61-10.08.03-4.39-2.68-7.83-4.66-11.5Z" style="fill:#f75e28"/><path d="M39.4 127.32c-5.18-7.04-8.28-15.49-8.76-24.22-.03-.5-.26-.87-.57-1.11-.48-.56-1.24-.62-1.9-.32-2.91 1.31-5.8 2.67-8.67 4.06-2.87 1.39-5.78 2.57-8.19 4.53-.43.35-.52.97-.36 1.49.58 9.11 3.74 18 9.15 25.36.48.66 1.31.98 2.06.54.63-.36 1-1.34.57-2 2.03-1.06 11.42-5.97 13.79-7.21.1.13.19.27.29.4.48.66 1.31.98 2.06.54.64-.37 1.02-1.4.54-2.06Z" style="fill:#f6c243"/><path class="cls-10" d="M62.47 96.33c.73.84 1.13 2.08 1.56 3.09 1.89 4.45 3.35 9.11 5.73 13.34 1.35 2.4 3.03 4.65 5.12 6.47 1.45 1.27 3.59-.85 2.13-2.13-4.14-3.62-6.25-8.78-8.2-13.8-1-2.57-1.91-5.26-3.22-7.7-.65-1.22-1.66-2.34-3.07-2.61-1.51-.29-3.15.37-3.66 1.91-.33.98-.12 2.07.21 3.13-1.31-.36-2.76-.33-3.69.61-.7.71-.87 1.79-.61 2.74.15.55.46 1 .84 1.39-.99.5-1.81 1.25-2.17 2.42-.31 1.01-.12 2.12.55 2.94.57.68 1.39 1 2.22 1.23.64.17 1.24.4 1.81.68-.81.45-1.52 1.29-1.65 2.23-.05.33-.06.62.04.91-.04.21-.03.42.05.62 1.87 5.3 6.07 9.53 11.36 11.44 1.83 1.42 3.76 2.66 5.85 3.67.37.18.75.26 1.16.15.35-.09.73-.37.9-.69.35-.67.22-1.69-.54-2.06a30.132 30.132 0 0 1-4.21-2.44c-.22-.15-.44-.31-.66-.48-.11-.08-.21-.16-.33-.24l-.02-.02s-.03-.03-.07-.06c-.07-.05-.13-.1-.2-.15-.19-.21-.43-.37-.71-.46h-.01c-.3-.11-.6-.21-.89-.33-.05-.02-.08-.03-.1-.04-.03-.01-.06-.03-.12-.05-.15-.07-.29-.13-.43-.2-.55-.26-1.08-.56-1.59-.87-1.09-.68-1.8-1.24-2.73-2.16s-1.51-1.63-2.16-2.63c-.34-.53-.66-1.08-.94-1.65-.31-.62-.4-.84-.64-1.53-.01-.04-.03-.07-.05-.11v-.07c0 .01-.02.03-.03.05.01-.03.03-.06.04-.09 0 0 .01-.02.02-.03v.01c.01-.01.03-.02.05-.04.03-.03.06-.05.09-.09l-.07.07h.01c.05-.04.11-.06.16-.09l.1-.03c.06-.02.12-.03.18-.05.04-.01.08-.02.12-.02.07 0 .13 0 .18.01.04 0 .09.02.11.02.06.02.12.03.18.05.01 0 .02 0 .03.01-.03-.01-.04-.02-.08-.05.04.02.08.05.13.07-.01 0-.03-.01-.05-.02.11.06.11.06.06.03.1.05.21.1.3.17.07.04.13.08.19.13l.33.3c.07.12.15.23.22.35.1.18.19.37.27.56.02.05.04.09.05.11.03.08.06.17.09.24.14.38.4.7.73.9 0 0 .01.02.02.03.24.19.48.37.74.52.27.15.56.27.86.37.17.06.35.11.54.14.31.05.63.1.94.11.38 0 .8-.17 1.06-.44.15-.13.25-.29.31-.48.09-.18.14-.37.13-.58-.02-.39-.15-.79-.44-1.06a1.56 1.56 0 0 0-1.06-.44c-.07 0-.13 0-.2-.01a2.25 2.25 0 0 1-.35-.09c-.03-.07-.06-.14-.1-.2-.2-.29-.4-.58-.62-.88.28-.27.45-.64.43-1.06-.06-1.71-.24-3.41-.53-5.08.15-.29.19-.64.06-1.05-.92-2.89-1.98-5.77-2.78-8.7-.03-.11-.13-.37-.11-.53h.02c.33-.05.58.16.78.39Zm-4.85 4.2c-.02-.03-.03-.04 0 0Zm-.2.29c-.07.03-.09 0 0 0Zm-1.18 5.32.02.02-.02-.02Zm3.54 6.36c.05-.03.14-.03.22-.03l-.22.03Zm.48-.01c.08 0 .22.03 0 0Zm-1.01-5.23c-.68-.33-1.38-.6-2.11-.79l-.45-.12c-.02 0-.22-.08-.27-.09-.05-.03-.1-.05-.15-.08v-.09s.04-.1.06-.17c.02-.02.06-.1.1-.16.02.02.24-.19.22-.19.44-.29 1.01-.42 1.62-.54.49.46.93.94 1.28 1.42.38.53.69 1.04.98 1.57-.41-.27-.83-.53-1.28-.74Zm.9-4.65c-.52-.48-1.08-.92-1.66-1.34-.13-.09-.26-.18-.39-.28-.1-.07.02.03-.13-.11.19.02.39.06.62.13.25.08.52.22.8.39.27.17.58.22.88.19l.53 1.64c-.21-.22-.41-.43-.63-.63Z"/><path class="cls-10" d="m59.36 112.75-.01.01v-.01l-.02.02h.01l-.02.02c0 .01-.01.03-.02.05.02-.03.03-.05.03-.07.01 0 .04-.03.08-.07 0 0-.02.01-.03.02-.02.01-.03.03-.04.04ZM14.78 142.53c1.93 0 1.94-3.01 0-3.01s-1.94 3.01 0 3.01Z"/><path d="M53.96 194.99c-.44-.75-1.33-.89-2.06-.54h.01c-.86.4-1.72.8-2.61 1.14-.54-.51-1.39-1.32-2.69-2.64-3.42-3.45-12.63-17.6-14.89-21.21-2.26-3.61-13.54-25.05-13.54-25.05l-3.21-3.49c.28-.37.57-.74.86-1.1.52-.63.62-1.51 0-2.13-.54-.54-1.61-.63-2.13 0-4.34 5.27-7.16 11.62-8.03 18.4-.74 5.78-.12 13.44 5.46 16.76 2.23 1.33 5.11 1.77 7.61 1.03 1.24-.37 2.43-1.04 3.3-2 .3-.33.64-.72.89-1.13.19.22.4.45.51.59 4.6 6.25 9.09 12.6 13.83 18.74 2.06 2.66 4.55 5.38 7.88 6.36 1.46.43 3 .46 4.45-.03 1.31-.45 2.58-1.04 3.83-1.64.74-.35.92-1.4.54-2.06Zm-30.68-22.58Z" style="fill:#ff8000"/><path class="cls-8" d="M77.33 170.85c-.7-2.03-1.73-4.02-2.72-5.98-.98-1.95-2.04-3.96-3.08-5.93-4.18-7.87-8.64-15.59-13.4-23.14-1.19-1.89-2.39-3.76-3.62-5.62-1-1.53-2.03-3.14-3.45-4.33-1.6-1.33-3.53-1.95-5.6-1.73-2.08.22-4.16 1.08-6.15 1.88-8.92 3.59-17.42 8.17-25.29 13.69-.66.47-.98 1.32-.54 2.06.12.2.3.37.51.5.03.17.08.35.18.53 5.11 9.3 10.22 18.59 15.32 27.89 2.31 4.19 4.63 8.38 7.24 12.4 1.34 2.07 2.76 4.08 4.27 6.04 1.38 1.78 2.8 3.57 4.58 4.97 1.74 1.37 3.57 2.21 5.77 2.19.32.77 1.18 1.32 2.09.74 3.94-2.48 7.77-5.16 11.64-7.73 1.89-1.26 3.79-2.52 5.68-3.78 1.52-1.02 3.05-2.1 4.33-3.41 1.29-1.32 2.4-3.03 2.81-4.91.45-2.12.13-4.3-.56-6.33Zm-3.35 7.88c-1 1.51-2.53 2.66-4 3.68-1.89 1.31-3.82 2.56-5.73 3.83-3.05 2.03-6.06 4.11-9.12 6.12-1.11.62-2.52.9-3.73.92-1.71.03-3.05-.73-4.32-1.85-1.62-1.42-2.97-3.15-4.26-4.87-1.29-1.72-2.6-3.64-3.82-5.52-5.14-8.02-9.49-16.58-14.07-24.92l-8.08-14.7c6.23-4.25 12.83-7.95 19.73-11 1.81-.8 3.66-1.56 5.52-2.27 1.69-.64 3.64-1.42 5.46-.88 1.48.44 2.54 1.75 3.39 2.97 1.13 1.61 2.18 3.29 3.23 4.95 4.57 7.15 8.9 14.47 12.95 21.92 2.02 3.72 4 7.48 5.88 11.27 1.59 3.21 3.18 7.04.98 10.35Z"/><path class="cls-8" d="M69.84 167.75c-1.31-2.6-2.62-5.2-4-7.76-2.81-5.26-5.88-10.37-9.47-15.13-.95-1.27-1.93-2.51-2.95-3.72-.91-1.09-1.97-2.06-3.39-2.42-1.35-.33-2.58.17-3.8.71-1.32.59-2.6 1.26-3.9 1.91-3.15 1.59-6.35 3.21-9.33 5.1-2.57 1.63-4.94 4.73-3.54 7.86.02.07.05.14.08.22a188.011 188.011 0 0 0 12.62 22.42c1.45 2.21 2.87 4.67 4.85 6.45 1.88 1.69 4.3 2.6 6.71 2.12.33.04.68 0 1-.16 2.85-1.35 5.62-2.83 8.33-4.45 1.32-.79 2.62-1.6 3.9-2.45 1.06-.71 2.12-1.48 2.93-2.48.88-1.1 1.43-2.38 1.39-3.81-.05-1.61-.73-3.01-1.44-4.42Zm-1.91 5.8c-.57.98-1.55 1.67-2.48 2.3-1.28.85-2.58 1.67-3.9 2.45a98.44 98.44 0 0 1-7.5 4.04c-.15.03-.29.07-.43.13-2.61 1.14-5.12-1.66-6.44-3.51-1.92-2.69-3.7-5.5-5.43-8.32-3.5-5.69-6.68-11.57-9.56-17.59 0-.01 0-.02-.01-.03s0-.02 0-.02c-.37-.75.14-1.84.59-2.45.72-.96 1.83-1.57 2.86-2.16 2.47-1.43 4.98-2.78 7.52-4.08 1.29-.66 2.59-1.31 3.9-1.94.6-.29 1.48-.79 2.08-.78 1.1.03 1.99 1.44 2.58 2.16a88.25 88.25 0 0 1 2.54 3.24c3.14 4.24 5.88 8.74 8.4 13.37 1.23 2.26 2.4 4.53 3.56 6.82.58 1.13 1.24 2.26 1.71 3.44.38.96.58 2.02.04 2.95Z"/><path class="cls-10" d="M135.61 69.42c-1.61-7.69.27-15.58-.5-23.34-.08-.81-.64-1.51-1.51-1.51-.75 0-1.59.69-1.51 1.51.8 8.04-1.07 16.15.6 24.14.4 1.89 3.3 1.09 2.91-.8ZM125.55 60.4c-2.24 1.93-4.47 4.27-7.17 5.57-2.38 1.14-4.69.45-6.47-1.38-1.95-2.01-2.97-4.8-3.58-7.49-.64-2.85-.86-5.82-.85-8.74.02-3.48.54-7.01 2.14-10.14.88-1.72-1.71-3.25-2.6-1.52-1.66 3.24-2.38 6.82-2.52 10.44-.14 3.62.14 7.07.87 10.48 1.02 4.75 4.1 10.88 9.14 11.84.19 1.01.37 2.01.52 3.02l.15 1c.02.15.04.31.07.46 0 .04 0 .06.01.08 0 .01 0 .05.01.13.09.67.17 1.34.24 2.01.09.78.63 1.55 1.51 1.51.74-.03 1.6-.67 1.51-1.51-.25-2.27-.57-4.52-.97-6.77.16-.03.31-.07.47-.11 1.82-.49 3.4-1.55 4.86-2.7 1.65-1.29 3.2-2.7 4.79-4.06 1.47-1.27-.66-3.39-2.13-2.13Z"/><path class="cls-1" d="M152.85 33.43c-.44.01-.89.05-1.33.08.46.9.92 1.81 1.35 2.72.36-.71.74-1.68 1.04-2.8-.35 0-.7-.01-1.06 0Z"/><path class="cls-1" d="M147.5 34.46c-.21-.39-.28-.8-.25-1.19-.24-.23-.44-.52-.56-.9-.31-.96.36-2.3 1.4-2.47 1.71-.28 3.43-.46 5.17-.49h1.18c-.01-2.17-.54-4.47-2.05-6.48-3.88-5.19-3.01-7.67-7.18-15.65-.32-.62-.66-1.17-1-1.68-.11.15-.22.31-.33.46-.33.43-.66.86-.99 1.27-.03.03-.05.07-.08.1-.09.63-.39 1.19-1 1.55-.82.48-1.89.35-2.56-.33-.62-.62-.74-1.51-.49-2.3l-1.83-5.22c-2.68-.13-5.68.76-8.94 1.93-7.2 2.6-6.67-3.16-14.94-1.47-1.79.37-3.37 1.01-4.77 1.83 1.26.77 2.52 1.53 3.78 2.3.96.58 1.24 1.77.72 2.74a21.653 21.653 0 0 1-5.48 6.67c-.87.71-1.97.8-2.84 0-.6-.54-.75-1.6-.37-2.34-.19-.23-.35-.48-.38-.73l-.55-3.54c-1.47 2.54-2.04 5.39-1.59 7.96 1.02 5.86 6.77 9.7 6.77 9.7s-1.47 3.16-3.22 7.24c-1.75 4.08-4.34 5.39-.6 6.17 1.47.31 3.11.71 4.92 1.18-.4-.91-.78-1.82-1.18-2.73-.23-.52-.33-.98-.2-1.55.11-.51.5-.92.92-1.2.18-.12.41-.19.64-.23.43-.2.92-.27 1.37-.13 2.32.71 4.63 1.41 6.94 2.12 1.17.35 1.94 1.83 1.2 2.95a36.4 36.4 0 0 0-1.73 2.87c.58.15 1.16.3 1.77.46 6.21 1.59 17.31 6.53 17.31 6.53l1.31-.79 2.52-9.49c4.25 2.03 7.51 1.16 9.63-.22-.76-1.67-1.56-3.32-2.42-4.94h-.02Zm-14.08-15.11c-1.12 2.85-2.24 5.7-3.35 8.54-.42 1.05-1.31 1.67-2.47 1.4-.42-.09-.81-.4-1.08-.78-.59-.23-1.08-.73-1.24-1.34-.76-2.95-1.63-5.88-2.58-8.77-.27-.82.12-1.65.77-2.14.47-.7 1.41-1.09 2.22-.84 2.08.63 4.19 1.12 6.33 1.45.99.15 1.77 1.54 1.4 2.47Z"/><path class="cls-1" d="M113.84 41c.15-.27.31-.55.47-.82-.31-.09-.63-.19-.94-.29l.48 1.11ZM128.04 22.12c.23-.6.47-1.19.7-1.78-.45-.09-.89-.19-1.33-.29.21.69.43 1.38.63 2.08ZM107.6 9.16c.04-.06.09-.11.13-.17.19-.25.36-.51.54-.77.01-.02.03-.04.04-.06-.44-.26-.86-.53-1.3-.79.11.7.22 1.41.33 2.12l.27-.33Z"/><path class="cls-9" d="M104.08 12.82c-.37.74-.21 1.8.37 2.34.87.8 1.97.71 2.84 0a21.94 21.94 0 0 0 5.48-6.67c.52-.97.24-2.16-.72-2.74-1.26-.77-2.52-1.53-3.78-2.3-2.23 1.31-3.96 3.1-5.12 5.1l.55 3.54c.04.25.19.51.38.73Zm4.22-4.66s-.03.04-.04.06c-.17.26-.35.52-.54.77-.04.06-.09.11-.13.17-.09.11-.17.22-.27.33-.11-.7-.22-1.41-.33-2.12.44.26.86.53 1.3.79ZM132.02 16.88a45.69 45.69 0 0 1-6.33-1.45c-.81-.25-1.75.15-2.22.84-.65.48-1.04 1.31-.77 2.14.95 2.9 1.81 5.82 2.58 8.77.16.61.65 1.1 1.24 1.34.27.38.66.68 1.08.78 1.15.26 2.06-.35 2.47-1.4 1.12-2.85 2.24-5.7 3.35-8.54.37-.93-.41-2.32-1.4-2.47Zm-3.98 5.25c-.2-.7-.42-1.39-.63-2.08.44.11.88.2 1.33.29-.23.6-.47 1.19-.7 1.78ZM117.92 37.08c-2.32-.71-4.63-1.41-6.94-2.12-.45-.14-.94-.07-1.37.13-.23.04-.46.11-.64.23-.43.27-.8.69-.92 1.2-.13.56-.02 1.02.2 1.55.4.91.78 1.82 1.18 2.73 2.32.6 4.96 1.32 7.96 2.1.54-.98 1.11-1.94 1.73-2.87.74-1.11-.03-2.59-1.2-2.95ZM113.85 41l-.48-1.11c.31.09.63.19.94.29-.15.27-.32.54-.47.82ZM148.09 29.9c-1.04.17-1.71 1.51-1.4 2.47.12.37.32.67.56.9-.03.4.04.8.25 1.19.86 1.62 1.66 3.27 2.42 4.94 1.17-.76 2-1.67 2.46-2.35.15-.21.31-.49.47-.82-.44-.92-.88-1.82-1.35-2.72.44-.03.89-.07 1.33-.08h1.06c.32-1.21.54-2.58.54-4.02-.4 0-.78-.01-1.18 0-1.73.03-3.46.21-5.17.49ZM139.24 8.67c.67.67 1.75.8 2.56.33.62-.36.92-.92 1-1.55.03-.03.05-.07.08-.1.33-.42.66-.85.99-1.27.11-.15.22-.31.33-.46-2.08-3.11-4.53-4.33-7.3-4.45l1.83 5.22c-.25.79-.12 1.68.49 2.3h.02Z"/><path class="cls-5" d="M156.04 161.73c.39-.14-1.24-5.67-3.59-14.67-2.34-9-5.3-21.51-7.57-35.5-.77-4.68-1.42-9.22-1.95-13.55-.28-2.16-.51-4.27-.74-6.31-.11-1.02-.21-2.02-.31-3.01-.14-1.46-.28-2.9-.41-4.3-.89.24-1.75.46-2.54.63l-.28.06-.16.02-.31.04c-.21.03-.41.04-.62.05-.82.05-1.63 0-2.42-.12-1.57-.25-3-.81-4.21-1.56-2.43-1.5-3.85-3.75-4.55-5.72-.72-1.99-.79-3.71-.76-4.87.04-1.16.14-1.8 0-1.84-.11-.03-.46.54-.74 1.75-.27 1.2-.45 3.08.15 5.38.57 2.25 2.01 5.01 4.81 6.95 1.38.96 3.04 1.7 4.9 2.08.93.19 1.9.28 2.9.26.25 0 .5 0 .75-.04l.64-.06.26-.03v.2l.09 1.33c.08 1 .16 2.01.24 3.04.18 2.06.37 4.19.62 6.38.47 4.37 1.1 8.96 1.87 13.69 2.29 14.12 5.59 26.68 8.43 35.6 2.85 8.92 5.16 14.24 5.5 14.13ZM177.39 120.31c.48-.61-4.35-5.17-10.78-10.19s-12.03-8.59-12.51-7.98c-.48.61 4.35 5.17 10.78 10.19s12.03 8.59 12.51 7.98ZM180.2 137.38c.7-.32-.38-4.15-2.42-8.55s-4.25-7.7-4.96-7.37c-.7.32.38 4.15 2.42 8.55s4.25 7.7 4.96 7.38ZM109.36 107.9c-.7-.2-3.27 7.97-2.9 18.41.31 10.44 3.42 18.43 4.11 18.18.79-.22-1.01-8.25-1.31-18.28-.37-10.02.9-18.15.1-18.32Z"/><path class="cls-5" d="M130.95 95.08c-.06-.17-.25-.33-.57-.29-.32.03-.75.3-1.01.81-.24.48-.4 1.28.17 2.12.28.4.77.74 1.28.85.51.12 1.02.06 1.47-.12.45-.18.86-.49 1.15-.93.3-.43.43-1.01.35-1.5-.17-1.01-.82-1.47-1.33-1.66-.54-.19-1.03-.09-1.29.11s-.29.44-.22.6c.19.33.48.64.45.96 0 .08-.01.15-.05.19-.07.04.18-.08.2-.06.04 0 .03.02-.09-.06-.11-.07-.19-.22-.19-.22s.04.16.01.29c-.03.14-.06.13-.03.11 0-.03.26-.11.19-.09-.05 0-.11-.05-.16-.1-.24-.21-.24-.63-.33-1.01ZM134.1 114.07c-.08.38.07.8-.03 1.14-.04.32-.23.81-.29.81 0 .01 0 0 .02.02 0 0-.02-.03 0 0l.89.34c-.03.1-.03.04.08-.04.07-.07.36-.15.23-.13-.09-.03-.19-.13-.27-.24-.16-.29-.05-.62-.2-.89-.13-.29-.78-.57-1.42.08-.31.33-.54.86-.5 1.5.02.32.1.69.35 1.06.24.37.68.72 1.19.86l.51.14.5-.28c.32-.17.62-.42.84-.72.56-.75.63-1.56.51-2.19-.12-.64-.44-1.15-.82-1.48-.83-.67-1.55-.35-1.59 0ZM139.64 136.61c-.18.03-.44.03-.4 0-.04-.02-.12-.13-.15-.26-.04-.12 0-.16-.04 0 0 .16-.25.33-.13.26h.55s-.02-.02 0-.02c.01 0 .06.02.11.04.11.05.25.22.23.19.02-.01.04.09 0-.12-.23-.76.12.43.02 1.07.05.18.22.36.53.41.3.04.74-.06 1.13-.47.36-.4.7-1.04.52-1.94-.09-.44-.38-.94-.83-1.27-.45-.34-1.03-.48-1.53-.45-1 .08-1.76.63-2.16 1.47-.09.21-.15.44-.17.66-.01.26-.02.32.05.71.07.33.32.69.56.84.25.18.47.23.66.26.73.06 1.23-.33 1.38-.78.11-.47-.17-.61-.34-.59ZM145.73 153.86c-.06-.17-.26-.33-.6-.28-.34.04-.79.31-1.08.84-.27.51-.46 1.34.07 2.24.26.44.74.82 1.25.98.52.17 1.05.17 1.55.03s.96-.42 1.31-.83c.36-.4.57-.97.57-1.48 0-1.05-.6-1.66-1.09-1.96-.52-.3-1.06-.31-1.35-.16-.3.14-.4.36-.38.55.32.6.69 1.87.19 1.19-.04.02-.02-.05-.06.15-.05.15-.09.16-.04.12 0-.01.11-.06.1-.05-.02 0-.05 0-.08-.02a.601.601 0 0 1-.15-.19c-.2-.32-.12-.76-.21-1.13Z"/></svg>