<?xml version="1.0" encoding="UTF-8"?><svg id="Illustration" xmlns="http://www.w3.org/2000/svg" viewBox="0 0 200 200"><defs><style>.cls-1{fill:none;}.cls-2{fill:#f6c243;}.cls-3{fill:#e5b342;}.cls-4{fill:#ba8d3c;}.cls-5{fill:#ffdf9d;}.cls-6{fill:#cc9e40;}</style></defs><path class="cls-3" d="M146.29,132.93c1.07.04,1.46,4.81.88,10.66-.16,1.58-.37,3.08-.62,4.42,5.01-.45,9.78-1.38,14.17-2.7-.05-1.72.03-3.79.26-6.03.59-5.85,1.93-10.55,3-10.51,1.07.04,1.46,4.81.88,10.66-.17,1.7-.41,3.3-.68,4.72,3.52-1.29,6.75-2.84,9.63-4.62.04-1.18.12-2.46.25-3.79.59-5.85,1.93-10.55,3-10.51,1.07.04,1.46,4.81.88,10.66-.03.27-.06.54-.09.8,6.43-5.12,10.27-11.56,10.27-18.56v-8.98c-8.71-5.11-35.68-21.22-48.61-21.22-13.66,0-39.78,15.58-48.61,21.22v8.98c0,6.02,2.85,11.62,7.73,16.33-.13-1.9-.08-4.44.2-7.22.59-5.85,1.93-10.55,3-10.51,1.07.04,1.46,4.81.88,10.66-.39,3.86-1.11,7.22-1.86,9.04,3.22,2.62,7.1,4.91,11.51,6.75-.15-1.92-.1-4.55.19-7.45.59-5.85,1.93-10.55,3-10.51,1.07.04,1.46,4.81.88,10.66-.34,3.37-.93,6.35-1.57,8.27,3.95,1.45,8.24,2.56,12.8,3.27.01-1.44.1-3.07.27-4.79.59-5.85,1.93-10.55,3-10.51,1.07.04,1.46,4.81.88,10.66-.19,1.85-.45,3.58-.75,5.08,2.75.3,5.57.47,8.46.47,1.19,0,2.36-.04,3.52-.09.01-1.45.1-3.07.27-4.8.59-5.85,1.93-10.55,3-10.51Z"/><path class="cls-4" d="M147.16,143.59c.59-5.85.19-10.62-.88-10.66-1.07-.04-2.41,4.66-3,10.51-.17,1.73-.26,3.36-.27,4.8,1.19-.05,2.36-.13,3.52-.23.25-1.34.46-2.84.62-4.42Z"/><path class="cls-4" d="M115.53,125.22c-1.07-.04-2.41,4.66-3,10.51-.29,2.89-.34,5.52-.19,7.45.81.34,1.65.66,2.49.97.64-1.92,1.23-4.9,1.57-8.27.59-5.85.19-10.62-.88-10.66Z"/><path class="cls-4" d="M130.91,132.12c-1.07-.04-2.41,4.66-3,10.51-.17,1.72-.26,3.35-.27,4.79,1.12.17,2.25.32,3.4.44.3-1.5.56-3.24.75-5.08.59-5.85.19-10.62-.88-10.66Z"/><path class="cls-4" d="M163.97,128.76c-1.07-.04-2.41,4.66-3,10.51-.22,2.24-.3,4.31-.26,6.03,1.18-.36,2.33-.75,3.46-1.16.27-1.42.51-3.02.68-4.72.59-5.85.19-10.62-.88-10.66Z"/><path class="cls-4" d="M177.05,125.22c-1.07-.04-2.41,4.66-3,10.51-.13,1.34-.21,2.61-.25,3.79,1.44-.89,2.79-1.84,4.04-2.84.03-.27.06-.53.09-.8.59-5.85.19-10.62-.88-10.66Z"/><path class="cls-4" d="M101.81,116.72c-1.07-.04-2.41,4.66-3,10.51-.28,2.79-.33,5.32-.2,7.22.7.68,1.44,1.33,2.22,1.97.75-1.83,1.47-5.18,1.86-9.04.59-5.85.19-10.62-.88-10.66Z"/><ellipse class="cls-2" cx="139.49" cy="106.34" rx="48.61" ry="26.19"/><path class="cls-6" d="M139.49,85.66c0-.11-.79-.19-2.33-.25-.39-.01-.82-.03-1.3-.04-.48,0-.99.03-1.56.05-1.13.04-2.44.08-3.88.26-2.92.26-6.41.89-10.16,1.97-3.73,1.09-7.66,2.72-11.04,5-.42.29-.84.58-1.27.87-.39.31-.76.63-1.15.95-.37.33-.8.64-1.12.99-.33.35-.66.7-1,1.06-.17.18-.33.36-.5.54-.14.19-.27.38-.41.57-.27.38-.55.77-.83,1.15-.26.39-.43.8-.65,1.21-.19.41-.47.82-.57,1.25-.26.85-.6,1.72-.65,2.61-.04.45-.13.9-.13,1.35.03.45.06.91.09,1.37.02.23.02.46.07.69l.18.69c.13.46.22.94.39,1.4.44.92.77,1.88,1.45,2.79.54.94,1.38,1.83,2.17,2.73.44.44.94.87,1.42,1.31.25.22.47.44.75.65l.84.62c1.07.85,2.41,1.6,3.71,2.39,1.43.71,2.84,1.45,4.48,2.07l1.19.48,1.27.43,1.29.42c.42.15.86.28,1.32.39.91.24,1.82.48,2.74.72.96.19,1.92.38,2.88.57,3.91.69,8.06,1.06,12.28,1.09,4.22-.03,8.38-.4,12.28-1.09.96-.19,1.92-.38,2.88-.57.92-.24,1.83-.48,2.74-.72.46-.11.9-.25,1.32-.39l1.29-.42,1.27-.43,1.19-.48c1.63-.61,3.05-1.35,4.48-2.07,1.3-.78,2.64-1.53,3.71-2.39l.84-.62c.28-.21.5-.43.75-.65.48-.44.98-.86,1.42-1.31.8-.91,1.63-1.8,2.17-2.73.68-.91,1.02-1.87,1.45-2.79.17-.47.26-.94.39-1.4l.18-.69c.05-.23.04-.46.07-.69.03-.46.06-.92.09-1.37,0-.45-.09-.9-.13-1.35-.04-.9-.39-1.76-.65-2.61-.1-.43-.38-.84-.57-1.25-.22-.41-.39-.82-.65-1.21-.28-.39-.55-.77-.83-1.15-.14-.19-.27-.38-.41-.57-.17-.18-.33-.36-.5-.54-.34-.36-.67-.71-1-1.06-.32-.35-.75-.66-1.12-.99-.39-.32-.75-.64-1.15-.95-.43-.29-.85-.58-1.27-.87-3.38-2.28-7.32-3.91-11.04-5-3.74-1.08-7.23-1.72-10.16-1.97-1.44-.18-2.76-.22-3.88-.26-.56-.02-1.08-.05-1.56-.05-.48.01-.91.03-1.3.04-1.54.06-2.33.14-2.33.25,0,.11.79.24,2.26.38.37.03.78.07,1.23.11.45.05.93.12,1.46.19,1.05.14,2.26.26,3.57.52,2.66.41,5.78,1.17,9.04,2.3,3.25,1.13,6.62,2.72,9.43,4.84,2.79,2.11,5.13,4.73,6.01,7.72.17.75.44,1.51.42,2.29.01.39.08.78.05,1.18-.05.39-.1.79-.15,1.19-.03.2-.03.4-.09.6l-.19.6c-.13.4-.23.81-.39,1.21-.43.79-.73,1.61-1.36,2.39-.49.8-1.25,1.55-1.95,2.33-.39.38-.84.74-1.26,1.11-.22.18-.41.38-.66.55l-.74.52c-.93.73-2.11,1.35-3.23,2.02-1.25.6-2.46,1.23-3.87,1.74l-1.02.41-1.1.36-1.1.36c-.36.13-.74.24-1.13.33-.78.2-1.56.4-2.34.6-.82.16-1.63.32-2.46.48-3.33.58-6.85.89-10.45.91-3.6-.03-7.12-.34-10.45-.91-.82-.16-1.64-.32-2.46-.48-.78-.2-1.56-.4-2.34-.6-.4-.09-.77-.21-1.13-.33l-1.1-.36-1.1-.36-1.02-.41c-1.41-.51-2.62-1.14-3.87-1.74-1.12-.66-2.29-1.29-3.23-2.02l-.74-.52c-.25-.17-.44-.37-.66-.55-.42-.37-.87-.73-1.26-1.11-.7-.77-1.46-1.53-1.95-2.33-.63-.78-.93-1.6-1.36-2.39-.16-.4-.26-.81-.39-1.21l-.19-.6c-.05-.2-.06-.4-.09-.6-.05-.4-.1-.8-.15-1.19-.02-.4.04-.79.05-1.18-.02-.78.25-1.54.42-2.29.89-2.99,3.22-5.62,6.01-7.72,2.82-2.12,6.18-3.71,9.43-4.84,3.27-1.13,6.38-1.88,9.04-2.3,1.31-.26,2.52-.39,3.57-.52.53-.07,1.01-.14,1.46-.19.45-.04.86-.08,1.23-.11,1.47-.14,2.26-.27,2.26-.38Z"/><path class="cls-3" d="M149.61,114.71c1.07.04,1.46,4.81.88,10.66-.16,1.58-.37,3.08-.62,4.42,5.01-.45,9.78-1.38,14.17-2.7-.05-1.72.03-3.79.26-6.03.59-5.85,1.93-10.55,3-10.51,1.07.04,1.46,4.81.88,10.66-.17,1.7-.41,3.3-.68,4.72,3.52-1.29,6.75-2.84,9.63-4.62.04-1.18.12-2.46.25-3.79.59-5.85,1.93-10.55,3-10.51,1.07.04,1.46,4.81.88,10.66-.03.27-.06.54-.09.8,6.43-5.12,10.27-11.56,10.27-18.56v-8.98c-8.71-5.11-35.68-21.22-48.61-21.22-13.66,0-39.78,15.58-48.61,21.22v8.98c0,6.02,2.85,11.62,7.73,16.33-.13-1.9-.08-4.44.2-7.22.59-5.85,1.93-10.55,3-10.51,1.07.04,1.46,4.81.88,10.66-.39,3.86-1.11,7.22-1.86,9.04,3.22,2.62,7.1,4.91,11.51,6.75-.15-1.92-.1-4.55.19-7.45.59-5.85,1.93-10.55,3-10.51,1.07.04,1.46,4.81.88,10.66-.34,3.37-.93,6.35-1.57,8.27,3.95,1.45,8.24,2.56,12.8,3.27.01-1.44.1-3.07.27-4.79.59-5.85,1.93-10.55,3-10.51,1.07.04,1.46,4.81.88,10.66-.19,1.85-.45,3.58-.75,5.08,2.75.3,5.57.47,8.46.47,1.19,0,2.36-.04,3.52-.09.01-1.45.1-3.07.27-4.8.59-5.85,1.93-10.55,3-10.51Z"/><path class="cls-4" d="M150.49,125.37c.59-5.85.19-10.62-.88-10.66-1.07-.04-2.41,4.66-3,10.51-.17,1.73-.26,3.36-.27,4.8,1.19-.05,2.36-.13,3.52-.23.25-1.34.46-2.84.62-4.42Z"/><path class="cls-4" d="M118.85,107c-1.07-.04-2.41,4.66-3,10.51-.29,2.89-.34,5.52-.19,7.45.81.34,1.65.66,2.49.97.64-1.92,1.23-4.9,1.57-8.27.59-5.85.19-10.62-.88-10.66Z"/><path class="cls-4" d="M134.23,113.9c-1.07-.04-2.41,4.66-3,10.51-.17,1.72-.26,3.35-.27,4.79,1.12.17,2.25.32,3.4.44.3-1.5.56-3.24.75-5.08.59-5.85.19-10.62-.88-10.66Z"/><path class="cls-4" d="M167.3,110.54c-1.07-.04-2.41,4.66-3,10.51-.22,2.24-.3,4.31-.26,6.03,1.18-.36,2.33-.75,3.46-1.16.27-1.42.51-3.02.68-4.72.59-5.85.19-10.62-.88-10.66Z"/><path class="cls-4" d="M180.37,107c-1.07-.04-2.41,4.66-3,10.51-.13,1.34-.21,2.61-.25,3.79,1.44-.89,2.79-1.84,4.04-2.84.03-.27.06-.53.09-.8.59-5.85.19-10.62-.88-10.66Z"/><path class="cls-4" d="M105.14,98.51c-1.07-.04-2.41,4.66-3,10.51-.28,2.79-.33,5.32-.2,7.22.7.68,1.44,1.33,2.22,1.97.75-1.83,1.47-5.18,1.86-9.04.59-5.85.19-10.62-.88-10.66Z"/><ellipse class="cls-2" cx="142.82" cy="88.12" rx="48.61" ry="26.19"/><path class="cls-6" d="M142.82,67.44c0-.11-.79-.19-2.33-.25-.39-.01-.82-.03-1.3-.04-.48,0-.99.03-1.56.05-1.13.04-2.44.08-3.88.26-2.92.26-6.41.89-10.16,1.97-3.73,1.09-7.66,2.72-11.04,5-.42.29-.84.58-1.27.87-.39.31-.76.63-1.15.95-.37.33-.8.64-1.12.99-.33.35-.66.7-1,1.06-.17.18-.33.36-.5.54-.14.19-.27.38-.41.57-.27.38-.55.77-.83,1.15-.26.39-.43.8-.65,1.21-.19.41-.47.82-.57,1.25-.26.85-.6,1.72-.65,2.61-.04.45-.13.9-.13,1.35.03.45.06.91.09,1.37.02.23.02.46.07.69l.18.69c.13.46.22.94.39,1.4.44.92.77,1.88,1.45,2.79.54.94,1.38,1.83,2.17,2.73.44.44.94.87,1.42,1.31.25.22.47.44.75.65l.84.62c1.07.85,2.41,1.6,3.71,2.39,1.43.71,2.84,1.45,4.48,2.07l1.19.48,1.27.43,1.29.42c.42.15.86.28,1.32.39.91.24,1.82.48,2.74.72.96.19,1.92.38,2.88.57,3.91.69,8.06,1.06,12.28,1.09,4.22-.03,8.38-.4,12.28-1.09.96-.19,1.92-.38,2.88-.57.92-.24,1.83-.48,2.74-.72.46-.11.9-.25,1.32-.39l1.29-.42,1.27-.43,1.19-.48c1.63-.61,3.05-1.35,4.48-2.07,1.3-.78,2.64-1.53,3.71-2.39l.84-.62c.28-.21.5-.43.75-.65.48-.44.98-.86,1.42-1.31.8-.91,1.63-1.8,2.17-2.73.68-.91,1.02-1.87,1.45-2.79.17-.47.26-.94.39-1.4l.18-.69c.05-.23.04-.46.07-.69.03-.46.06-.92.09-1.37,0-.45-.09-.9-.13-1.35-.04-.9-.39-1.76-.65-2.61-.1-.43-.38-.84-.57-1.25-.22-.41-.39-.82-.65-1.21-.28-.39-.55-.77-.83-1.15-.14-.19-.27-.38-.41-.57-.17-.18-.33-.36-.5-.54-.34-.36-.67-.71-1-1.06-.32-.35-.75-.66-1.12-.99-.39-.32-.75-.64-1.15-.95-.43-.29-.85-.58-1.27-.87-3.38-2.28-7.32-3.91-11.04-5-3.74-1.08-7.23-1.72-10.16-1.97-1.44-.18-2.76-.22-3.88-.26-.56-.02-1.08-.05-1.56-.05-.48.01-.91.03-1.3.04-1.54.06-2.33.14-2.33.25,0,.11.79.24,2.26.38.37.03.78.07,1.23.11.45.05.93.12,1.46.19,1.05.14,2.26.26,3.57.52,2.66.41,5.78,1.17,9.04,2.3,3.25,1.13,6.62,2.72,9.43,4.84,2.79,2.11,5.13,4.73,6.01,7.72.17.75.44,1.51.42,2.29.01.39.08.78.05,1.18-.05.39-.1.79-.15,1.19-.03.2-.03.4-.09.6l-.19.6c-.13.4-.23.81-.39,1.21-.43.79-.73,1.61-1.36,2.39-.49.8-1.25,1.55-1.95,2.33-.39.38-.84.74-1.26,1.11-.22.18-.41.38-.66.55l-.74.52c-.93.73-2.11,1.35-3.23,2.02-1.25.6-2.46,1.23-3.87,1.74l-1.02.41-1.1.36-1.1.36c-.36.13-.74.24-1.13.33-.78.2-1.56.4-2.34.6-.82.16-1.63.32-2.46.48-3.33.58-6.85.89-10.45.91-3.6-.03-7.12-.34-10.45-.91-.82-.16-1.64-.32-2.46-.48-.78-.2-1.56-.4-2.34-.6-.4-.09-.77-.21-1.13-.33l-1.1-.36-1.1-.36-1.02-.41c-1.41-.51-2.62-1.14-3.87-1.74-1.12-.66-2.29-1.29-3.23-2.02l-.74-.52c-.25-.17-.44-.37-.66-.55-.42-.37-.87-.73-1.26-1.11-.7-.77-1.46-1.53-1.95-2.33-.63-.78-.93-1.6-1.36-2.39-.16-.4-.26-.81-.39-1.21l-.19-.6c-.05-.2-.06-.4-.09-.6-.05-.4-.1-.8-.15-1.19-.02-.4.04-.79.05-1.18-.02-.78.25-1.54.42-2.29.89-2.99,3.22-5.62,6.01-7.72,2.82-2.12,6.18-3.71,9.43-4.84,3.27-1.13,6.38-1.88,9.04-2.3,1.31-.26,2.52-.39,3.57-.52.53-.07,1.01-.14,1.46-.19.45-.04.86-.08,1.23-.11,1.47-.14,2.26-.27,2.26-.38Z"/><path class="cls-3" d="M146.29,94.97c1.07.04,1.46,4.81.88,10.66-.16,1.58-.37,3.08-.62,4.42,5.01-.45,9.78-1.38,14.17-2.7-.05-1.72.03-3.79.26-6.03.59-5.85,1.93-10.55,3-10.51,1.07.04,1.46,4.81.88,10.66-.17,1.7-.41,3.3-.68,4.72,3.52-1.29,6.75-2.84,9.63-4.62.04-1.18.12-2.46.25-3.79.59-5.85,1.93-10.55,3-10.51,1.07.04,1.46,4.81.88,10.66-.03.27-.06.54-.09.8,6.43-5.12,10.27-11.56,10.27-18.56v-8.98c-8.71-5.11-35.68-21.22-48.61-21.22-13.66,0-39.78,15.58-48.61,21.22v8.98c0,6.02,2.85,11.62,7.73,16.33-.13-1.9-.08-4.44.2-7.22.59-5.85,1.93-10.55,3-10.51,1.07.04,1.46,4.81.88,10.66-.39,3.86-1.11,7.22-1.86,9.04,3.22,2.62,7.1,4.91,11.51,6.75-.15-1.92-.1-4.55.19-7.45.59-5.85,1.93-10.55,3-10.51,1.07.04,1.46,4.81.88,10.66-.34,3.37-.93,6.35-1.57,8.27,3.95,1.45,8.24,2.56,12.8,3.27.01-1.44.1-3.07.27-4.79.59-5.85,1.93-10.55,3-10.51,1.07.04,1.46,4.81.88,10.66-.19,1.85-.45,3.58-.75,5.08,2.75.3,5.57.47,8.46.47,1.19,0,2.36-.04,3.52-.09.01-1.45.1-3.07.27-4.8.59-5.85,1.93-10.55,3-10.51Z"/><path class="cls-4" d="M147.16,105.63c.59-5.85.19-10.62-.88-10.66-1.07-.04-2.41,4.66-3,10.51-.17,1.73-.26,3.36-.27,4.8,1.19-.05,2.36-.13,3.52-.23.25-1.34.46-2.84.62-4.42Z"/><path class="cls-4" d="M115.53,87.27c-1.07-.04-2.41,4.66-3,10.51-.29,2.89-.34,5.52-.19,7.45.81.34,1.65.66,2.49.97.64-1.92,1.23-4.9,1.57-8.27.59-5.85.19-10.62-.88-10.66Z"/><path class="cls-4" d="M130.91,94.17c-1.07-.04-2.41,4.66-3,10.51-.17,1.72-.26,3.35-.27,4.79,1.12.17,2.25.32,3.4.44.3-1.5.56-3.24.75-5.08.59-5.85.19-10.62-.88-10.66Z"/><path class="cls-4" d="M163.97,90.81c-1.07-.04-2.41,4.66-3,10.51-.22,2.24-.3,4.31-.26,6.03,1.18-.36,2.33-.75,3.46-1.16.27-1.42.51-3.02.68-4.72.59-5.85.19-10.62-.88-10.66Z"/><path class="cls-4" d="M177.05,87.27c-1.07-.04-2.41,4.66-3,10.51-.13,1.34-.21,2.61-.25,3.79,1.44-.89,2.79-1.84,4.04-2.84.03-.27.06-.53.09-.8.59-5.85.19-10.62-.88-10.66Z"/><path class="cls-4" d="M101.81,78.77c-1.07-.04-2.41,4.66-3,10.51-.28,2.79-.33,5.32-.2,7.22.7.68,1.44,1.33,2.22,1.97.75-1.83,1.47-5.18,1.86-9.04.59-5.85.19-10.62-.88-10.66Z"/><ellipse class="cls-2" cx="139.49" cy="68.39" rx="48.61" ry="26.19"/><path class="cls-6" d="M139.49,47.71c0-.11-.79-.19-2.33-.25-.39-.01-.82-.03-1.3-.04-.48,0-.99.03-1.56.05-1.13.04-2.44.08-3.88.26-2.92.26-6.41.89-10.16,1.97-3.73,1.09-7.66,2.72-11.04,5-.42.29-.84.58-1.27.87-.39.31-.76.63-1.15.95-.37.33-.8.64-1.12.99-.33.35-.66.7-1,1.06-.17.18-.33.36-.5.54-.14.19-.27.38-.41.57-.27.38-.55.77-.83,1.15-.26.39-.43.8-.65,1.21-.19.41-.47.82-.57,1.25-.26.85-.6,1.72-.65,2.61-.04.45-.13.9-.13,1.35.03.45.06.91.09,1.37.02.23.02.46.07.69l.18.69c.13.46.22.94.39,1.4.44.92.77,1.88,1.45,2.79.54.94,1.38,1.83,2.17,2.73.44.44.94.87,1.42,1.31.25.22.47.44.75.65l.84.62c1.07.85,2.41,1.6,3.71,2.39,1.43.71,2.84,1.45,4.48,2.07l1.19.48,1.27.43,1.29.42c.42.15.86.28,1.32.39.91.24,1.82.48,2.74.72.96.19,1.92.38,2.88.57,3.91.69,8.06,1.06,12.28,1.09,4.22-.03,8.38-.4,12.28-1.09.96-.19,1.92-.38,2.88-.57.92-.24,1.83-.48,2.74-.72.46-.11.9-.25,1.32-.39l1.29-.42,1.27-.43,1.19-.48c1.63-.61,3.05-1.35,4.48-2.07,1.3-.78,2.64-1.53,3.71-2.39l.84-.62c.28-.21.5-.43.75-.65.48-.44.98-.86,1.42-1.31.8-.91,1.63-1.8,2.17-2.73.68-.91,1.02-1.87,1.45-2.79.17-.47.26-.94.39-1.4l.18-.69c.05-.23.04-.46.07-.69.03-.46.06-.92.09-1.37,0-.45-.09-.9-.13-1.35-.04-.9-.39-1.76-.65-2.61-.1-.43-.38-.84-.57-1.25-.22-.41-.39-.82-.65-1.21-.28-.39-.55-.77-.83-1.15-.14-.19-.27-.38-.41-.57-.17-.18-.33-.36-.5-.54-.34-.36-.67-.71-1-1.06-.32-.35-.75-.66-1.12-.99-.39-.32-.75-.64-1.15-.95-.43-.29-.85-.58-1.27-.87-3.38-2.28-7.32-3.91-11.04-5-3.74-1.08-7.23-1.72-10.16-1.97-1.44-.18-2.76-.22-3.88-.26-.56-.02-1.08-.05-1.56-.05-.48.01-.91.03-1.3.04-1.54.06-2.33.14-2.33.25,0,.11.79.24,2.26.38.37.03.78.07,1.23.11.45.05.93.12,1.46.19,1.05.14,2.26.26,3.57.52,2.66.41,5.78,1.17,9.04,2.3,3.25,1.13,6.62,2.72,9.43,4.84,2.79,2.11,5.13,4.73,6.01,7.72.17.75.44,1.51.42,2.29.01.39.08.78.05,1.18-.05.39-.1.79-.15,1.19-.03.2-.03.4-.09.6l-.19.6c-.13.4-.23.81-.39,1.21-.43.79-.73,1.61-1.36,2.39-.49.8-1.25,1.55-1.95,2.33-.39.38-.84.74-1.26,1.11-.22.18-.41.38-.66.55l-.74.52c-.93.73-2.11,1.35-3.23,2.02-1.25.6-2.46,1.23-3.87,1.74l-1.02.41-1.1.36-1.1.36c-.36.13-.74.24-1.13.33-.78.2-1.56.4-2.34.6-.82.16-1.63.32-2.46.48-3.33.58-6.85.89-10.45.91-3.6-.03-7.12-.34-10.45-.91-.82-.16-1.64-.32-2.46-.48-.78-.2-1.56-.4-2.34-.6-.4-.09-.77-.21-1.13-.33l-1.1-.36-1.1-.36-1.02-.41c-1.41-.51-2.62-1.14-3.87-1.74-1.12-.66-2.29-1.29-3.23-2.02l-.74-.52c-.25-.17-.44-.37-.66-.55-.42-.37-.87-.73-1.26-1.11-.7-.77-1.46-1.53-1.95-2.33-.63-.78-.93-1.6-1.36-2.39-.16-.4-.26-.81-.39-1.21l-.19-.6c-.05-.2-.06-.4-.09-.6-.05-.4-.1-.8-.15-1.19-.02-.4.04-.79.05-1.18-.02-.78.25-1.54.42-2.29.89-2.99,3.22-5.62,6.01-7.72,2.82-2.12,6.18-3.71,9.43-4.84,3.27-1.13,6.38-1.88,9.04-2.3,1.31-.26,2.52-.39,3.57-.52.53-.07,1.01-.14,1.46-.19.45-.04.86-.08,1.23-.11,1.47-.14,2.26-.27,2.26-.38Z"/><path class="cls-3" d="M149.61,75.24c1.07.04,1.46,4.81.88,10.66-.16,1.58-.37,3.08-.62,4.42,5.01-.45,9.78-1.38,14.17-2.7-.05-1.72.03-3.79.26-6.03.59-5.85,1.93-10.55,3-10.51,1.07.04,1.46,4.81.88,10.66-.17,1.7-.41,3.3-.68,4.72,3.52-1.29,6.75-2.84,9.63-4.62.04-1.18.12-2.46.25-3.79.59-5.85,1.93-10.55,3-10.51,1.07.04,1.46,4.81.88,10.66-.03.27-.06.54-.09.8,6.43-5.12,10.27-11.56,10.27-18.56v-8.98c-8.71-5.11-35.68-21.22-48.61-21.22-13.66,0-39.78,15.58-48.61,21.22v8.98c0,6.02,2.85,11.62,7.73,16.33-.13-1.9-.08-4.44.2-7.22.59-5.85,1.93-10.55,3-10.51,1.07.04,1.46,4.81.88,10.66-.39,3.86-1.11,7.22-1.86,9.04,3.22,2.62,7.1,4.91,11.51,6.75-.15-1.92-.1-4.55.19-7.45.59-5.85,1.93-10.55,3-10.51,1.07.04,1.46,4.81.88,10.66-.34,3.37-.93,6.35-1.57,8.27,3.95,1.45,8.24,2.56,12.8,3.27.01-1.44.1-3.07.27-4.79.59-5.85,1.93-10.55,3-10.51,1.07.04,1.46,4.81.88,10.66-.19,1.85-.45,3.58-.75,5.08,2.75.3,5.57.47,8.46.47,1.19,0,2.36-.04,3.52-.09.01-1.45.1-3.07.27-4.8.59-5.85,1.93-10.55,3-10.51Z"/><path class="cls-4" d="M150.49,85.9c.59-5.85.19-10.62-.88-10.66-1.07-.04-2.41,4.66-3,10.51-.17,1.73-.26,3.36-.27,4.8,1.19-.05,2.36-.13,3.52-.23.25-1.34.46-2.84.62-4.42Z"/><path class="cls-4" d="M118.85,67.54c-1.07-.04-2.41,4.66-3,10.51-.29,2.89-.34,5.52-.19,7.45.81.34,1.65.66,2.49.97.64-1.92,1.23-4.9,1.57-8.27.59-5.85.19-10.62-.88-10.66Z"/><path class="cls-4" d="M134.23,74.43c-1.07-.04-2.41,4.66-3,10.51-.17,1.72-.26,3.35-.27,4.79,1.12.17,2.25.32,3.4.44.3-1.5.56-3.24.75-5.08.59-5.85.19-10.62-.88-10.66Z"/><path class="cls-4" d="M167.3,71.08c-1.07-.04-2.41,4.66-3,10.51-.22,2.24-.3,4.31-.26,6.03,1.18-.36,2.33-.75,3.46-1.16.27-1.42.51-3.02.68-4.72.59-5.85.19-10.62-.88-10.66Z"/><path class="cls-4" d="M180.37,67.54c-1.07-.04-2.41,4.66-3,10.51-.13,1.34-.21,2.61-.25,3.79,1.44-.89,2.79-1.84,4.04-2.84.03-.27.06-.53.09-.8.59-5.85.19-10.62-.88-10.66Z"/><path class="cls-4" d="M105.14,59.04c-1.07-.04-2.41,4.66-3,10.51-.28,2.79-.33,5.32-.2,7.22.7.68,1.44,1.33,2.22,1.97.75-1.83,1.47-5.18,1.86-9.04.59-5.85.19-10.62-.88-10.66Z"/><ellipse class="cls-2" cx="142.82" cy="48.65" rx="48.61" ry="26.19"/><path class="cls-6" d="M142.82,27.97c0-.11-.79-.19-2.33-.25-.39-.01-.82-.03-1.3-.04-.48,0-.99.03-1.56.05-1.13.04-2.44.08-3.88.26-2.92.26-6.41.89-10.16,1.97-3.73,1.09-7.66,2.72-11.04,5-.42.29-.84.58-1.27.87-.39.31-.76.63-1.15.95-.37.33-.8.64-1.12.99-.33.35-.66.7-1,1.06-.17.18-.33.36-.5.54-.14.19-.27.38-.41.57-.27.38-.55.77-.83,1.15-.26.39-.43.8-.65,1.21-.19.41-.47.82-.57,1.25-.26.85-.6,1.72-.65,2.61-.04.45-.13.9-.13,1.35.03.45.06.91.09,1.37.02.23.02.46.07.69l.18.69c.13.46.22.94.39,1.4.44.92.77,1.88,1.45,2.79.54.94,1.38,1.83,2.17,2.73.44.44.94.87,1.42,1.31.25.22.47.44.75.65l.84.62c1.07.85,2.41,1.6,3.71,2.39,1.43.71,2.84,1.45,4.48,2.07l1.19.48,1.27.43,1.29.42c.42.15.86.28,1.32.39.91.24,1.82.48,2.74.72.96.19,1.92.38,2.88.57,3.91.69,8.06,1.06,12.28,1.09,4.22-.03,8.38-.4,12.28-1.09.96-.19,1.92-.38,2.88-.57.92-.24,1.83-.48,2.74-.72.46-.11.9-.25,1.32-.39l1.29-.42,1.27-.43,1.19-.48c1.63-.61,3.05-1.35,4.48-2.07,1.3-.78,2.64-1.53,3.71-2.39l.84-.62c.28-.21.5-.43.75-.65.48-.44.98-.86,1.42-1.31.8-.91,1.63-1.8,2.17-2.73.68-.91,1.02-1.87,1.45-2.79.17-.47.26-.94.39-1.4l.18-.69c.05-.23.04-.46.07-.69.03-.46.06-.92.09-1.37,0-.45-.09-.9-.13-1.35-.04-.9-.39-1.76-.65-2.61-.1-.43-.38-.84-.57-1.25-.22-.41-.39-.82-.65-1.21-.28-.39-.55-.77-.83-1.15-.14-.19-.27-.38-.41-.57-.17-.18-.33-.36-.5-.54-.34-.36-.67-.71-1-1.06-.32-.35-.75-.66-1.12-.99-.39-.32-.75-.64-1.15-.95-.43-.29-.85-.58-1.27-.87-3.38-2.28-7.32-3.91-11.04-5-3.74-1.08-7.23-1.72-10.16-1.97-1.44-.18-2.76-.22-3.88-.26-.56-.02-1.08-.05-1.56-.05-.48.01-.91.03-1.3.04-1.54.06-2.33.14-2.33.25,0,.11.79.24,2.26.38.37.03.78.07,1.23.11.45.05.93.12,1.46.19,1.05.14,2.26.26,3.57.52,2.66.41,5.78,1.17,9.04,2.3,3.25,1.13,6.62,2.72,9.43,4.84,2.79,2.11,5.13,4.73,6.01,7.72.17.75.44,1.51.42,2.29.01.39.08.78.05,1.18-.05.39-.1.79-.15,1.19-.03.2-.03.4-.09.6l-.19.6c-.13.4-.23.81-.39,1.21-.43.79-.73,1.61-1.36,2.39-.49.8-1.25,1.55-1.95,2.33-.39.38-.84.74-1.26,1.11-.22.18-.41.38-.66.55l-.74.52c-.93.73-2.11,1.35-3.23,2.02-1.25.6-2.46,1.23-3.87,1.74l-1.02.41-1.1.36-1.1.36c-.36.13-.74.24-1.13.33-.78.2-1.56.4-2.34.6-.82.16-1.63.32-2.46.48-3.33.58-6.85.89-10.45.91-3.6-.03-7.12-.34-10.45-.91-.82-.16-1.64-.32-2.46-.48-.78-.2-1.56-.4-2.34-.6-.4-.09-.77-.21-1.13-.33l-1.1-.36-1.1-.36-1.02-.41c-1.41-.51-2.62-1.14-3.87-1.74-1.12-.66-2.29-1.29-3.23-2.02l-.74-.52c-.25-.17-.44-.37-.66-.55-.42-.37-.87-.73-1.26-1.11-.7-.77-1.46-1.53-1.95-2.33-.63-.78-.93-1.6-1.36-2.39-.16-.4-.26-.81-.39-1.21l-.19-.6c-.05-.2-.06-.4-.09-.6-.05-.4-.1-.8-.15-1.19-.02-.4.04-.79.05-1.18-.02-.78.25-1.54.42-2.29.89-2.99,3.22-5.62,6.01-7.72,2.82-2.12,6.18-3.71,9.43-4.84,3.27-1.13,6.38-1.88,9.04-2.3,1.31-.26,2.52-.39,3.57-.52.53-.07,1.01-.14,1.46-.19.45-.04.86-.08,1.23-.11,1.47-.14,2.26-.27,2.26-.38Z"/><path class="cls-3" d="M96.23,116.68c.24-1.09,8.18-.24,17.73,1.9,2.58.58,5.01,1.19,7.19,1.8.07-5.26-.68-10.38-2.15-15.23-2.84-.4-6.25-1.03-9.91-1.85-9.55-2.14-17.09-4.75-16.85-5.83.24-1.09,8.18-.24,17.73,1.9,2.78.62,5.38,1.28,7.68,1.94-1.55-3.94-3.59-7.66-6.05-11.08-1.94-.35-4.03-.76-6.22-1.25-9.55-2.14-17.09-4.75-16.85-5.83.24-1.09,8.18-.24,17.73,1.9.44.1.87.2,1.31.3-7.4-7.94-17.39-13.56-28.94-15.4-14.26-2.27-14.81-2.36-14.81-2.36-9.86,7.58-40.83,31-42.93,44.25-2.23,14,19.22,44.86,27.08,55.39,0,0,1.3.21,14.81,2.36,9.93,1.58,19.64.13,28.2-3.64-3.16-.36-7.33-1.09-11.88-2.1-9.55-2.14-17.09-4.75-16.85-5.83.24-1.09,8.18-.24,17.73,1.9,6.31,1.41,11.73,3.03,14.62,4.28,4.85-2.61,9.25-5.99,13.01-10.02-3.2-.35-7.53-1.09-12.26-2.15-9.55-2.14-17.09-4.75-16.85-5.83.24-1.09,8.18-.24,17.73,1.9,5.5,1.23,10.32,2.62,13.38,3.78,3.03-3.66,5.56-7.78,7.48-12.26-2.38-.39-5.04-.9-7.85-1.53-9.55-2.14-17.09-4.75-16.85-5.83.24-1.09,8.18-.24,17.73,1.9,3.01.67,5.83,1.4,8.26,2.1.94-2.74,1.68-5.59,2.15-8.55.19-1.22.33-2.43.43-3.63-2.38-.39-5.06-.91-7.88-1.54-9.55-2.14-17.09-4.75-16.85-5.83Z"/><path class="cls-4" d="M113.96,118.58c-9.55-2.14-17.49-2.99-17.73-1.9-.24,1.09,7.3,3.7,16.85,5.83,2.82.63,5.5,1.15,7.88,1.54.11-1.23.17-2.45.19-3.67-2.18-.61-4.6-1.22-7.19-1.8Z"/><path class="cls-4" d="M78.51,146.18c-.24,1.09,7.3,3.7,16.85,5.83,4.73,1.06,9.06,1.8,12.26,2.15.69-.74,1.36-1.52,2.01-2.3-3.06-1.16-7.89-2.55-13.38-3.78-9.55-2.14-17.49-2.99-17.73-1.9Z"/><path class="cls-4" d="M92.39,132.23c-.24,1.09,7.3,3.7,16.85,5.83,2.81.63,5.48,1.14,7.85,1.53.47-1.1.89-2.22,1.29-3.36-2.43-.71-5.25-1.43-8.26-2.1-9.55-2.14-17.49-2.99-17.73-1.9Z"/><path class="cls-4" d="M92.25,97.46c-.24,1.09,7.3,3.7,16.85,5.83,3.65.82,7.07,1.44,9.91,1.85-.4-1.3-.85-2.58-1.35-3.85-2.3-.65-4.9-1.32-7.68-1.94-9.55-2.14-17.49-2.99-17.73-1.9Z"/><path class="cls-4" d="M88.54,83.14c-.24,1.09,7.3,3.7,16.85,5.83,2.18.49,4.28.91,6.22,1.25-1.24-1.71-2.59-3.34-4.03-4.89-.43-.1-.87-.2-1.31-.3-9.55-2.14-17.49-2.99-17.73-1.9Z"/><path class="cls-4" d="M62.25,158c-.24,1.09,7.3,3.7,16.85,5.83,4.55,1.02,8.72,1.74,11.88,2.1,1.23-.54,2.44-1.12,3.61-1.76-2.89-1.25-8.31-2.87-14.62-4.28-9.55-2.14-17.49-2.99-17.73-1.9Z"/><path class="cls-1" d="M120.53,127.68c-4.38,27.52-30.23,46.27-57.75,41.89l-14.81-2.36c-7.86-10.53-29.31-41.39-27.08-55.39,2.11-13.25,33.08-36.67,42.93-44.25,0,0,.55.09,14.81,2.36,27.52,4.38,46.27,30.23,41.89,57.75Z"/><circle class="cls-2" cx="57.88" cy="117.72" r="50.45"/><circle class="cls-5" cx="40.28" cy="91.62" r="1.28"/><circle class="cls-5" cx="39.83" cy="95.29" r="1.28"/><circle class="cls-5" cx="43.26" cy="94" r="1.28"/><circle class="cls-5" cx="62.85" cy="82.01" r="1.28"/><circle class="cls-5" cx="60.05" cy="84.42" r="1.28"/><circle class="cls-5" cx="63.45" cy="85.78" r="1.28"/><circle class="cls-5" cx="83.73" cy="85.02" r="1.28"/><circle class="cls-5" cx="87.34" cy="84.39" r="1.28"/><circle class="cls-5" cx="100.27" cy="103.85" r="1.28"/><circle class="cls-5" cx="99.15" cy="107.37" r="1.28"/><circle class="cls-5" cx="102.75" cy="106.74" r="1.28"/><circle class="cls-5" cx="95.89" cy="128.4" r="1.28"/><circle class="cls-5" cx="98.83" cy="130.63" r="1.28"/><circle class="cls-5" cx="99.44" cy="127.02" r="1.28"/><circle class="cls-5" cx="57.75" cy="159.14" r="1.28"/><circle class="cls-5" cx="60.7" cy="161.38" r="1.28"/><circle class="cls-5" cx="61.31" cy="157.76" r="1.28"/><circle class="cls-5" cx="22.45" cy="141.22" r="1.28"/><circle class="cls-5" cx="25.4" cy="143.45" r="1.28"/><circle class="cls-5" cx="26.01" cy="139.84" r="1.28"/><circle class="cls-5" cx="20.12" cy="91.99" r="1.28"/><circle class="cls-5" cx="23.07" cy="94.22" r="1.28"/><circle class="cls-5" cx="23.68" cy="90.61" r="1.28"/><circle class="cls-5" cx="28.49" cy="116.13" r="1.28"/><circle class="cls-5" cx="30.7" cy="119.09" r="1.28"/><circle class="cls-5" cx="32.28" cy="115.78" r="1.28"/><circle class="cls-5" cx="48.21" cy="144.69" r="1.28"/><circle class="cls-5" cx="48" cy="140.99" r="1.28"/><circle class="cls-5" cx="44.86" cy="142.87" r="1.28"/><circle class="cls-5" cx="74.7" cy="136.98" r="1.28"/><circle class="cls-5" cx="78.16" cy="135.69" r="1.28"/><circle class="cls-5" cx="75.44" cy="133.24" r="1.28"/><circle class="cls-5" cx="83.86" cy="109.77" r="1.28"/><circle class="cls-5" cx="80.66" cy="107.91" r="1.28"/><circle class="cls-5" cx="80.5" cy="111.57" r="1.28"/><path class="cls-6" d="M92.79,123.98c.47.1,1.84-2.78,1.93-8.48.08-2.84-.42-6.35-1.69-10.24-1.29-3.88-3.51-8.14-7-12.07-3.47-3.9-8.19-7.56-14.07-9.77-5.83-2.17-12.72-3.22-19.75-1.89-3.51.57-7.02,1.75-10.34,3.45-1.7.79-3.26,1.86-4.86,2.89-1.5,1.17-3.05,2.33-4.41,3.73-5.65,5.37-9.59,12.9-10.95,21.06-1.24,8.18.17,16.56,3.87,23.42.86,1.75,1.97,3.33,3.04,4.91,1.2,1.48,2.36,2.98,3.72,4.26,2.63,2.64,5.6,4.85,8.76,6.48,6.26,3.44,13.14,4.59,19.36,4.33,6.27-.28,11.89-2.29,16.41-4.92,4.53-2.65,7.97-6.01,10.4-9.3,2.42-3.31,3.98-6.49,4.79-9.21,1.68-5.44,1.27-8.6.79-8.66-.69-.12-1.46,2.81-3.9,7.33-2.4,4.44-7.02,10.59-14.98,14.44-3.94,1.87-8.63,3.2-13.7,3.13-5.03-.09-10.48-1.24-15.29-4.13-2.45-1.36-4.71-3.17-6.72-5.29-1.05-1.02-1.91-2.23-2.84-3.39-.79-1.26-1.65-2.5-2.29-3.88-2.79-5.39-3.79-11.82-2.86-18.16,1.08-6.32,4.02-12.13,8.35-16.38,1.03-1.12,2.23-2.02,3.38-2.98,1.24-.82,2.43-1.7,3.75-2.34,2.56-1.4,5.28-2.41,8.03-2.95,5.48-1.26,11.01-.66,15.82.82,4.84,1.51,8.88,4.23,12.05,7.23,6.37,6.13,8.86,13.4,9.76,18.37.92,5.05.74,8.08,1.43,8.18Z"/></svg>