<?xml version="1.0" encoding="UTF-8"?><svg id="Illustration" xmlns="http://www.w3.org/2000/svg" viewBox="0 0 200 200"><defs><style>.cls-1{fill:#f4c044;}.cls-2{fill:#e5b342;}.cls-3{fill:#cc9e40;}</style></defs><path class="cls-2" d="M77.15,77.75c-23.53,26.75-52,51.5-49.15,72.25.95,6.92,19.58,18.98,24.32,22.83,18.68,15.17,57.39,1.59,88.76-34.08,31.37-35.67,42.48-78.23,24.83-95.08-5.85-5.58-26.32-24.71-35.91-23.67-19.35,2.1-31.88,33.9-52.85,57.75Z"/><path class="cls-3" d="M85.56,176.21c-1.49,1.99-8.04-.42-14.63-5.37-6.58-4.95-10.71-10.58-9.22-12.56,1.49-1.99,8.04.42,14.63,5.37,6.58,4.95,10.71,10.58,9.22,12.56Z"/><path class="cls-3" d="M112.46,163.47c-1.67,1.84-7.95-1.15-14.03-6.67-6.08-5.52-9.64-11.49-7.97-13.33,1.67-1.84,7.95,1.15,14.03,6.67,6.08,5.52,9.64,11.49,7.97,13.33Z"/><path class="cls-3" d="M132.5,145.5c-1.6,1.92-7.28-.3-12.46-4.95-5.17-4.64-8.05-9.76-6.46-11.66,1.6-1.92,7.28.3,12.46,4.95,5.17,4.64,8.05,9.76,6.46,11.66Z"/><path class="cls-3" d="M150.5,124.5c-1.73,1.77-7.6-1.03-13.54-5.95-2.97-2.46-5.38-4.99-6.91-7.11-1.52-2.13-2.2-3.87-1.55-4.94.65-1.05,2.67-1.12,5.31-.2,2.63.91,5.82,2.77,8.9,5.33,6.17,5.11,9.54,11.09,7.79,12.87Z"/><path class="cls-3" d="M166.5,99.5c-1.81,1.66-7.58-1.35-13.74-6.23-3.07-2.44-5.6-4.92-7.27-6.94-1.65-2.04-2.51-3.68-1.99-4.82.51-1.12,2.63-1.37,5.43-.53,2.8.82,6.19,2.67,9.45,5.27,3.25,2.61,5.77,5.47,7.21,7.93,1.46,2.46,1.81,4.49.9,5.33Z"/><path class="cls-3" d="M172.48,70.48c-1.57,1.92-7.77-.55-13.85-5.52-6.08-4.97-9.72-10.56-8.15-12.48s7.77.55,13.85,5.52c6.08,4.97,9.72,10.56,8.15,12.48Z"/><path class="cls-1" d="M57.15,60.75c-31.37,35.67-42.48,78.23-24.83,95.08,17.65,16.85,57.39,1.59,88.76-34.08,31.37-35.67,42.48-78.23,24.83-95.08-17.65-16.85-57.39-1.59-88.76,34.08Z"/><path class="cls-3" d="M106.85,112.76c-.51-.42,1.55-3.6,4.96-9.39,1.7-2.9,3.72-6.46,5.81-10.69,2.06-4.24,4.21-9.16,5.86-14.73.82-2.78,1.5-5.72,1.9-8.76.35-3.02.44-6.19-.17-9.09-.61-2.9-1.94-5.36-4.06-6.76-2.08-1.44-5.11-1.9-8.48-1.46-3.36.42-6.93,1.64-10.44,3.28-3.52,1.65-7.01,3.74-10.4,6.13-6.8,4.79-13.27,10.72-19.21,17.41-5.94,6.7-11.14,13.81-15.16,21.09-1.99,3.64-3.7,7.33-4.95,11.02-1.26,3.68-2.08,7.36-2.22,10.83-.16,3.47.42,6.69,1.83,9.15,1.39,2.47,3.63,4.25,6.25,5.17,1.31.46,2.72.73,4.16.83,1.45.09,2.92,0,4.37-.17,2.91-.39,5.75-1.21,8.39-2.25,5.3-2.09,9.86-4.88,13.69-7.55,3.85-2.68,6.98-5.3,9.53-7.48,5.08-4.38,7.81-7.01,8.33-6.58.44.36-1.37,3.76-5.84,9.05-2.25,2.63-5.15,5.75-8.93,8.98-3.78,3.23-8.41,6.64-14.26,9.42-2.92,1.38-6.18,2.57-9.81,3.26-1.82.33-3.73.54-5.73.52-2-.04-4.09-.31-6.18-.94-4.18-1.22-8.26-4.11-10.76-8.21-2.54-4.09-3.4-8.89-3.33-13.42.06-4.57.98-9.02,2.34-13.32,1.37-4.31,3.21-8.47,5.36-12.52,4.33-8.09,9.84-15.71,16.19-22.88,6.36-7.17,13.36-13.51,20.92-18.69,3.78-2.59,7.73-4.87,11.86-6.7,4.14-1.82,8.47-3.24,13.11-3.7,2.31-.22,4.71-.19,7.12.29,2.4.48,4.81,1.46,6.84,2.97,2.04,1.49,3.66,3.47,4.75,5.56,1.1,2.09,1.71,4.24,2.05,6.31.65,4.15.29,7.97-.31,11.49-.65,3.51-1.62,6.73-2.72,9.71-2.21,5.96-4.91,10.95-7.49,15.16-2.62,4.2-5.15,7.6-7.35,10.26-4.4,5.33-7.39,7.75-7.83,7.38Z"/></svg>