<svg id="Illustration" xmlns="http://www.w3.org/2000/svg" viewBox="0 0 200 200"><defs><style>.cls-1{fill:none}.cls-4{fill:#fff}.cls-6{fill:#b4cacc}.cls-7{fill:#d6e8ea}.cls-8{fill:#c1dade}.cls-9{fill:#5b3d5b}</style></defs><path d="m136.4 15.59 1.79 29.67s-16.08-3.65-15.98-3.32-14.27 7.7-18.09 9.06c-3.82 1.36-12.9 3.35-13.67 4.08s-6.21 2.07-6.86 1.93-1.32-.24-2.05-1.32c-.73-1.08-.64-3.61-.64-3.61s-5.21-1.24-5.7-1.69-2.19-4.4-2.19-4.4-3.32 1.31-5.28-.06c-1.96-1.37-2.63-3.92-2.87-5.13-.23-1.21.64-3.48.64-3.48s-4.53.96-5.85-.47c-1.32-1.43-1.48-4.46-1.23-5.03.25-.57.9-1.66.9-1.66s-4.93-.55-6.3-2.84-1.72-4.05-.2-4.83c1.52-.78 9.61-1.53 12.95-3.64s8.29-1.98 12.04-3.46c3.74-1.48 11.09-4.92 13.4-5.15 2.31-.23 9.26-.52 11.85.98s8.73 3.73 12.05 4.39c3.31.66 21.28 0 21.28 0z" style="fill:#e4c7bd"/><path class="cls-8" d="M122.54 76.78h14.37c1.94 0 1.95-3.02 0-3.02h-14.37c-1.94 0-1.95 3.02 0 3.02z"/><path class="cls-8" d="M150.52 192.83c-.39-6.76-.83-13.52-1.3-20.27-.57-8.15-1.18-16.3-1.85-24.45-.7-8.6-1.46-17.19-2.31-25.78-.81-8.2-1.69-16.38-2.71-24.56-.87-6.94-1.82-13.88-3.06-20.76-.13-.7-.25-1.4-.39-2.09-.15-.8-1.12-1.26-1.86-1.06-.73.2-1.08.85-1.06 1.54l-12.97.71s3.72 42.41 3.62 48.92c-.09 5.91 2.37 56.5 2.83 65.92-1.87.08-1.85 3.01.07 3.01 5.39 0 10.78.22 16.16.32 1.11.02 2.22.04 3.33.05.51 0 .89-.21 1.13-.52.25-.27.4-.61.38-.99z"/><path class="cls-6" d="M92.72 55.69c.14 6.41.07 12.84.11 19.25 0 .99.87 1.93 1.89 1.89 1.02-.05 1.89-.83 1.89-1.89-.03-6.42.03-12.84-.11-19.25-.02-.99-.85-1.94-1.89-1.89-1.01.05-1.91.83-1.89 1.89z"/><path class="cls-9" d="M117.45 14.54c-3.96.07-7.3-1.96-10.82-3.55-4.27-1.93-8.96-2.72-13.64-2.5-.82.04-1.51.67-1.51 1.51 0 .79.69 1.55 1.51 1.51 4.43-.21 8.83.53 12.81 2.4 3.74 1.76 7.4 3.72 11.65 3.64 1.94-.03 1.95-3.06 0-3.02z"/><path class="cls-9" d="M92.99 8.49c-2.24.02-4.43.85-6.48 1.67-2.4.95-4.81 2.08-7.08 2.99-1.06.43-2.13.83-3.23 1.15-1.09.31-2.21.43-3.31.7-3.09.74-6.17 1.73-9.05 3.06-3.42 1.59-7.01 2.6-10.8 2.78-.82.04-1.51.67-1.51 1.51 0 .79.69 1.55 1.51 1.51 3.53-.17 7.01-.92 10.27-2.28 1.56-.65 3.06-1.48 4.68-2.01 1.4-.45 2.81-.87 4.22-1.27 1.24-.36 2.49-.56 3.75-.83 1.07-.23 2.11-.59 3.13-.97 1.26-.47 2.5-1 3.74-1.54 1.12-.48 2.37-1.03 3.38-1.45 1.26-.53 2.54-1.03 3.85-1.44.54-.17 1.1-.32 1.66-.43.13-.03.26-.05.39-.07.06 0 .48-.06.09-.02.27-.03.54-.05.81-.05 1.94-.02 1.95-3.04 0-3.02z"/><path class="cls-9" d="M52.06 21.17c-1.67.93-2.32 3.08-1.71 4.85.65 1.92 2.41 3.18 4.19 3.96 3.73 1.62 7.96 1.45 11.78.24.78-.25 1.28-1.05 1.06-1.86-.21-.77-1.08-1.3-1.86-1.06-2.79.88-5.81 1.21-8.64.34-1.19-.36-2.56-.95-3.34-1.96-.07-.09-.24-.37-.28-.46-.16-.38-.14-.41-.11-.74-.02.2.17-.51.09-.34.02-.04.25-.33.14-.21.18-.18-.03 0 .21-.14 1.7-.94.18-3.56-1.53-2.61z"/><path class="cls-9" d="M65.38 30.33c6.52 1.16 13.22.96 19.64-.67 1.88-.48 1.09-3.39-.8-2.91a43.211 43.211 0 0 1-18.04.67c-.8-.14-1.63.22-1.86 1.06-.2.73.25 1.72 1.06 1.86zM72.44 45.91c-.17 1.87-.16 3.58 1.18 5.06 1.28 1.42 3.27 2.01 5.12 2.04 1.98.03 4-.45 5.92-.89 1.83-.41 3.64-.93 5.38-1.62 1.74-.69 3.44-1.51 4.97-2.59 1.6-1.13 2.94-2.73 2.53-4.82-.19-.94-.87-1.76-1.72-2.19-.78-.39-1.55-.4-2.39-.43-1.33-.05-2.64-.04-3.94.35-.97.29-1.9.64-2.9.81-.94.15-1.86.36-2.79.53-1.91.34-3.86.51-5.74 1.05-1.87.54-1.07 3.45.8 2.91 1.42-.41 2.88-.6 4.34-.82 1.4-.22 2.79-.52 4.19-.75 1.42-.24 2.78-.92 4.18-1.06.81-.08 1.73-.07 2.54.01.12.01.31.07.41.15.08.06.09.07.07.28 0-.04.09-.32-.02.13-.07.27.02.06-.13.31-.16.27-.4.49-.65.7-1.09.9-2.44 1.58-3.71 2.16-2.82 1.29-5.93 1.99-8.97 2.53-1.53.27-3.28.45-4.65-.35-.52-.31-.95-.74-1.06-1.28-.14-.63 0-1.51.06-2.22.07-.81-.75-1.51-1.51-1.51-.88 0-1.44.69-1.51 1.51z"/><path class="cls-9" d="M92.77 49.29c.47.03.94.08 1.41.14l-.4-.05c.61.08 1.23.18 1.81.42l-.36-.15c.2.08.38.18.55.31l-.31-.24c.09.07.17.15.24.24l-.24-.31c.08.1.13.21.19.33l-.15-.36c.09.22.15.44.18.67l-.05-.4c.02.19.02.38 0 .57l.05-.4c-.02.15-.06.3-.12.45l.15-.36c-.06.13-.13.26-.22.38l.24-.31c-.07.08-.14.15-.22.22l.31-.24s-.08.06-.13.09c-.33.21-.59.52-.69.9s-.05.84.15 1.16c.43.67 1.35 1 2.07.54.67-.43 1.18-1.1 1.35-1.89.19-.9.05-1.75-.33-2.58-.51-1.15-1.88-1.65-3.04-1.86-.81-.15-1.63-.24-2.46-.29s-1.55.73-1.51 1.51c.04.86.66 1.46 1.51 1.51z"/><path class="cls-9" d="M95.41 50.52c-2.4 1.92-5.11 3.13-8.02 4-.77.23-1.56.43-2.33.66-.35.1-.79.24-1.11.28s-.34.07-.58-.08c-.48-.29-1.02-.96-1.24-1.49.08.2-.03-.18-.04-.23.04.3.03-.12.03-.19-.02.24.05-.27.07-.33.05-.22.11-.45.17-.67.49-1.88-2.43-2.69-2.91-.8-.25.96-.48 1.95-.24 2.94.25 1 1 1.94 1.72 2.66.83.82 1.86 1.3 3.03 1.21 1.03-.08 2.01-.43 3-.69 3.88-1.06 7.43-2.61 10.59-5.13.64-.51.53-1.61 0-2.14-.63-.63-1.5-.51-2.14 0z"/><path class="cls-9" d="M83.41 58.5c2.62.19 5.39-.82 7.84-1.61s4.78-1.48 7.15-2.28c5.68-1.93 11.34-3.99 16.78-6.54 3.02-1.42 5.97-2.99 8.61-5.05.64-.5.53-1.61 0-2.14-.64-.64-1.49-.5-2.14 0 .21-.17-.2.15-.19.14-.13.1-.26.19-.39.28-.27.19-.54.38-.82.56-.59.39-1.19.76-1.8 1.11a57.91 57.91 0 0 1-3.9 2.05c-2.77 1.34-5.61 2.52-8.48 3.62-2.49.95-5 1.84-7.51 2.71-2.31.8-4.66 1.48-6.98 2.24-1.45.48-2.91.95-4.39 1.34-.7.18-1.41.33-2.13.46-.49.09.28-.02-.2.03-.19.02-.38.04-.57.05-.3.02-.6.02-.89 0-.81-.06-1.51.74-1.51 1.51 0 .87.69 1.45 1.51 1.51zM63.44 37.36c-.72 1.62-.99 3.36-.53 5.1s1.61 3.22 3.06 4.24c1.69 1.2 3.83.96 5.78.73 2.09-.24 4.17-.61 6.21-1.1 1.93-.46 3.83-1.03 5.72-1.66 1.89-.64 3.85-1.28 5.6-2.26 1.6-.9 3.24-2.33 3.59-4.22.19-1.04.03-2.17-.71-2.97s-1.79-1.03-2.82-1.16c-1.15-.14-2.31-.16-3.46-.02-1.07.12-2.12.43-3.18.52-.58.05-1.17 0-1.75-.05-.25-.02-.5-.05-.75-.07-.16-.02.06 0 .08.01-.1-.01-.2-.03-.3-.05-.87-.14-1.74-.34-2.62-.38-.82-.04-1.51.72-1.51 1.51 0 .85.69 1.47 1.51 1.51.13 0 .26.02.38.03-.31-.03.23.04.23.04.29.05.58.1.86.15.7.12 1.4.21 2.11.27.92.08 1.8.07 2.72-.07.78-.12 1.55-.33 2.34-.42s1.61-.1 2.41-.05c.38.02.76.05 1.13.15.08.02.53.18.34.01.22.2-.05.76-.25 1.08-.37.58-.93 1.01-1.51 1.36-1.32.82-2.81 1.32-4.27 1.84-1.61.56-3.24 1.08-4.88 1.53-1.66.46-3.35.84-5.05 1.14-1.61.28-3.3.57-4.93.51-1.37-.05-2.41-1.14-2.96-2.32-.47-1.02-.47-2.33 0-3.4.33-.74.22-1.62-.54-2.07-.65-.38-1.73-.21-2.07.54z"/><path class="cls-9" d="M58.02 29.38c-1.77 2.6-2.4 6.75.71 8.66 1.43.88 3.2.83 4.8.69 1.57-.13 3.13-.27 4.69-.42 2.87-.28 5.73-.68 8.57-1.18 2.69-.47 5.41-.97 7.32-3.1.55-.62.92-1.13.98-1.96.04-.54-.03-1.08-.12-1.61-.21-1.27-.84-2.64-2.18-3.03-1.87-.54-2.67 2.38-.8 2.91-.48-.14.02.04-.19-.1l-.08-.06c.09.1.09.1.02 0l-.05-.07c.04.06.08.13.12.19.04.05.11.27 0-.03.07.18.12.36.17.55l.06.25.03.19c-.02-.17-.02-.2-.01-.09.01.1.12.84.02.9 0 0 .08-.41.01-.16-.05.16.12-.27.12-.28.01.01-.53.59-.57.63-.56.55-1.27.94-1.98 1.17-1.15.38-2.36.56-3.55.77a94 94 0 0 1-6.76.97c-1.17.13-2.35.23-3.52.34-1.35.12-2.73.32-4.09.27-.56-.02-1.18-.1-1.62-.46-.27-.22-.41-.55-.51-.93-.08-.3-.07-.99.06-1.51.19-.73.56-1.36.98-1.98.46-.68.13-1.68-.54-2.07-.75-.44-1.61-.13-2.07.54z"/><path class="cls-9" d="M83.54 29.6c1.41.81 2.92 1.45 4.49 1.85.76.19 1.68-.25 1.86-1.06.18-.79-.24-1.65-1.06-1.86s-1.54-.45-2.28-.76l.36.15c-.64-.27-1.25-.59-1.85-.93-.69-.39-1.68-.18-2.07.54-.38.72-.19 1.65.54 2.07z"/><path class="cls-9" d="M87.59 30.84c1.9 2.48 4.53 4.25 7.36 5.54 3.47 1.57 7.46 2.87 11.3 2.79 1.94-.04 1.95-3.06 0-3.02-1.78.04-3.51-.33-5.23-.79-1.55-.42-3.09-.93-4.55-1.59-1.32-.6-2.59-1.3-3.77-2.13-.48-.34-.9-.68-1.39-1.14-.23-.22-.45-.44-.67-.67-.09-.09-.17-.19-.25-.29-.04-.04-.34-.42-.19-.22-.5-.65-1.3-.99-2.07-.54-.64.37-1.04 1.42-.54 2.07z"/><path class="cls-6" d="M70.31 27.75c-3.03.88-5.76 2.83-7.73 5.29-2.11 2.65-3.45 5.89-4.53 9.08-1.06 3.14-1.79 6.37-2.42 9.61-.69 3.52-1.28 7.07-1.81 10.62-.62 4.17-1.15 8.36-1.57 12.56-.1.99.94 1.93 1.89 1.89 1.11-.05 1.78-.83 1.89-1.89.7-6.92 1.67-13.76 2.95-20.6 1.12-6.03 2.39-12.4 5.6-17.6 1.51-2.45 4.03-4.53 6.74-5.32.98-.28 1.59-1.33 1.32-2.32-.27-.98-1.34-1.61-2.32-1.32z"/><path d="M176.85 60.54c.25-.24.43-.58.43-1.04V7.27c0-.39-.14-.68-.34-.92-.04-.06-.08-.12-.13-.17h-.01c-.24-.25-.58-.42-1.03-.41-10.18.11-20.34.63-30.51 1.03-2.85.11-5.7.21-8.55.29-.21 0-.41.05-.6.14-.07.03-.11.08-.17.11-.44.27-.76.73-.74 1.26.45 11.27 1.15 22.53 2.11 33.77.27 3.19.56 6.39.88 9.58a2 2 0 0 0 .14.56c0 .46.19.92.71 1.21 2.08 1.16 4.39 1.7 6.69 2.23 2.36.55 4.73 1.07 7.11 1.55 4.79.97 9.62 1.79 14.46 2.47 2.82.4 5.65.75 8.48 1.05.37.04.71-.13.98-.38.02-.02.05-.03.07-.05.01-.01.02-.03.03-.04z" style="fill:#f6c243"/><path class="cls-7" d="M131.03 192.46c-.39-15.25-.97-30.49-1.72-45.73-.76-15.41-1.69-30.82-2.8-46.22-.61-8.42-1.27-16.83-1.99-25.24-.07-.81-.64-1.51-1.51-1.51-.07 0-.14.01-.21.02-.08-.01-.17-.02-.26-.02-11.77.1-23.54.29-35.3.33-12.84.04-25.68-.07-38.52.13-7.13.11-14.26.32-21.38.72-.44 0-.8.18-1.06.45-.28.27-.45.63-.45 1.06-1.33 14.95-2.48 29.92-3.48 44.9-1.03 15.38-1.9 30.77-2.61 46.17-.38 8.31-.72 16.62-.99 24.93-.03 1.01.77 1.49 1.56 1.45.13.04.27.06.43.06h108.78c.39 0 .7-.13.94-.32.35-.24.59-.63.57-1.19z"/><path class="cls-7" d="M96.17 56.27c1.99 5.96 3.16 12.26 3.94 18.36.13.98.78 1.94 1.89 1.89.92-.04 2.02-.84 1.89-1.89-.85-6.57-1.98-13.07-4.08-19.37-.32-.97-1.3-1.6-2.32-1.32-.95.26-1.64 1.35-1.32 2.32zM69.21 28.21c-2.33 1.88-3.85 4.8-5.06 7.49a44.864 44.864 0 0 0-2.9 8.89c-1.35 6.22-1.71 12.66-1.73 19.02 0 3.84.16 7.69.49 11.51.08.98.81 1.94 1.89 1.89.95-.04 1.98-.83 1.89-1.89-.56-6.52-.65-13.09-.21-19.62.38-5.74 1.24-11.45 3.43-16.93 1.05-2.64 2.58-5.84 4.87-7.69.79-.64.67-2 0-2.67-.79-.79-1.87-.64-2.67 0z"/><path class="cls-9" d="M138.19 14.13c-6.91-.12-13.83-.05-20.74.41-.81.05-1.51.66-1.51 1.51 0 .78.69 1.57 1.51 1.51 6.9-.46 13.82-.53 20.74-.41 1.95.03 1.95-2.99 0-3.02zM122.33 43.41c5.78 1.31 11.58 2.55 17.4 3.69.8.16 1.63-.23 1.86-1.06.2-.74-.25-1.7-1.06-1.86-5.82-1.14-11.61-2.38-17.4-3.69-.8-.18-1.64.24-1.86 1.06-.21.76.26 1.68 1.06 1.86z"/><path class="cls-1" d="M66 156.18a2.622 2.622 0 0 0-1.92-2.24l-7.69-1.48a2.638 2.638 0 0 1-1.99-2.56c0-.4.09-.79.25-1.13.57-1.47 15.25-28.25 41.94-44.72 1.1-.73 2.4-1.16 3.83-1.16 1.42 0 2.73.42 3.83 1.16 5.77 3.56 10.99 7.61 15.62 11.78s.04.02.06.02a.1.1 0 0 0 .1-.1v-2.69c0-.9.73-1.63 1.63-1.63.07 0 .14 0 .2.01l5.45.66c-.26-3.87-.52-7.73-.8-11.6-.61-8.42-1.27-16.83-1.99-25.24-.07-.81-.64-1.51-1.51-1.51-.07 0-.14.01-.21.02-.08-.01-.17-.02-.26-.02-11.77.1-23.54.29-35.3.33-12.84.04-25.68-.07-38.52.13-7.13.11-14.26.32-21.38.72-.44 0-.8.18-1.06.45-.28.27-.45.63-.45 1.06-1.33 14.95-2.48 29.92-3.48 44.9-1.03 15.38-1.9 30.77-2.61 46.17-.38 8.31-.72 16.62-.99 24.93-.03 1.01.77 1.49 1.56 1.45.13.04.27.06.43.06H69.01c-1.66-9.83-2.94-36.51-3-37.78z"/><path class="cls-1" d="M92.8 180.56c.03-.5.3-.93.68-1.2 2.17-1.5 3.6-4 3.6-6.84v-.36c-.38-10.38-.56-22.2 0-31.55v-.12a1.55 1.55 0 0 0-1.57-1.52c-.81.01-1.47.66-1.52 1.46-.39 6.4-.43 13.98-.29 21.47.01 1-.79 1.83-1.8 1.85-1.01.02-1.84-.78-1.86-1.79-.14-7.44-.1-14.97.28-21.34v-.12a1.55 1.55 0 0 0-1.57-1.52c-.81.01-1.47.66-1.52 1.46-.39 6.43-.43 14.05-.29 21.58a1.831 1.831 0 0 1-3.66.06c-.14-7.47-.1-15.05.27-21.46v-.12a1.55 1.55 0 0 0-1.57-1.52c-.81.01-1.47.66-1.52 1.46-.58 9.61-.38 21.9.03 32.53a8.306 8.306 0 0 0 4.03 6.69c.45.27.75.75.78 1.31 0 .16.02.36.03.52.24 4.78.51 9.37.71 12.49h7.68c-.12-1.11-.25-2.48-.41-4.09-.7-7.72-.51-9.31-.51-9.31zM120.61 138.29c-.05-.53-.13-.74-.13-.74a1.634 1.634 0 0 0-2.48-.73s-.19.12-.49.43c0 0-10.17 10.39-12.32 41.23 0 0-.04.43.07.82.18.63.68 1.15 1.51 1.3s5.3.73 5.3.73c.47.07.83.42.83.89 0 0-.19 4.19-.96 11.75h7.74c.2-3.4.54-9.51.84-16.62.54-12.87.97-29.37.09-39.06z"/><path d="M121.66 111.44c-.9 0-1.63.73-1.63 1.63v2.69a.1.1 0 0 1-.1.1c-.02 0-.05 0-.06-.02-4.63-4.17-9.84-8.22-15.62-11.78-1.1-.73-2.4-1.16-3.83-1.16-1.42 0-2.73.42-3.83 1.16-26.68 16.47-41.37 43.25-41.94 44.72-.16.34-.25.72-.25 1.13 0 1.24.85 2.27 1.99 2.56l7.69 1.48c1.03.28 1.8 1.16 1.92 2.24.06 1.27 1.34 27.95 3 37.78h17.04c-.2-3.12-.48-7.71-.71-12.49 0-.16-.02-.36-.03-.52-.03-.55-.33-1.04-.78-1.31a8.272 8.272 0 0 1-4.03-6.69c-.4-10.63-.61-22.91-.03-32.53.05-.8.7-1.44 1.52-1.46.85-.01 1.56.67 1.57 1.52v.12c-.38 6.41-.41 13.98-.27 21.46.02 1.01.85 1.82 1.86 1.8 1.01-.02 1.81-.85 1.8-1.86-.14-7.53-.1-15.15.29-21.58.05-.8.7-1.44 1.52-1.46.85-.01 1.56.67 1.57 1.52v.12c-.38 6.37-.41 13.9-.28 21.34.02 1.01.85 1.81 1.86 1.79 1.01-.02 1.81-.84 1.8-1.85-.14-7.49-.1-15.07.29-21.47.05-.8.7-1.44 1.52-1.46.85-.01 1.56.67 1.57 1.52v.12c-.55 9.34-.37 21.17 0 31.55v.36c0 2.84-1.42 5.34-3.6 6.84-.39.27-.65.7-.68 1.2 0 0-.19 1.59.51 9.31.16 1.61.3 2.98.41 4.09h18.21c.77-7.56.96-11.75.96-11.75 0-.47-.36-.82-.83-.89l-5.3-.73c-.84-.15-1.34-.66-1.51-1.3-.11-.38-.07-.82-.07-.82 2.15-30.84 12.32-41.23 12.32-41.23.3-.31.49-.43.49-.43a1.634 1.634 0 0 1 2.48.73s.08.21.13.74c.88 9.69.45 26.19-.09 39.06-.3 7.11-.64 13.21-.84 16.62h9.84c.39 0 .7-.13.94-.32.35-.24.59-.63.57-1.19-.39-15.25-.97-30.49-1.72-45.73-.57-11.55-1.23-23.09-2-34.62l-5.45-.66c-.07 0-.14-.01-.2-.01z" style="fill:#ff8000"/><path class="cls-4" d="M137.04 130.87c-.96.03-1.29 13.79-.74 30.72.56 16.94 1.79 30.64 2.75 30.61.96-.03 1.29-13.79.74-30.72-.56-16.94-1.79-30.64-2.75-30.61zM56.14 85.53c-.1-.18-1.73.48-4.28 1.71-.64.31-1.33.65-2.08 1.02-.37.19-.76.38-1.15.58-.4.2-.81.43-1.16.56-.78.27-1.09.14-1.32-.6-.24-.71.15-1.66.06-3.01-.05-.67-.38-1.4-.85-1.87-.47-.48-1.04-.81-1.63-.98-1.21-.38-2.41-.11-3.35.28-1.87.85-3.15 2.02-4.18 3.07-2.01 2.15-2.6 3.91-2.45 3.98.2.12 1.12-1.39 3.18-3.21 1.02-.88 2.38-1.91 3.96-2.55.79-.29 1.64-.43 2.39-.16.78.26 1.39.83 1.44 1.6.04.41-.03.9-.09 1.44-.06.53-.09 1.21.1 1.82.16.6.59 1.31 1.33 1.6.74.29 1.45.09 1.93-.12.51-.22.89-.47 1.27-.68l1.12-.65c.72-.42 1.38-.82 1.99-1.18 2.43-1.46 3.88-2.46 3.78-2.64z"/></svg>