<svg id="Illustration" xmlns="http://www.w3.org/2000/svg" viewBox="0 0 200 152.24"><defs><style>.cls-2{fill:#fff}.cls-5{fill:#c99b40}</style></defs><path d="M199.44 41.81c-.03-1.02-.08-2.03-.14-3.05-.03-1.23-.07-2.47-.13-3.71-.01-.29-.09-.57-.21-.82-.31-3.3-.76-6.58-1.35-9.85-.89-4.93-1.99-10.04-5.15-14.06-2.97-3.78-7.57-5.6-12.2-6.31-5.23-.8-10.59-.74-15.86-.87-11.77-.31-23.57-.37-35.33.31-5.59.33-11.25.68-16.78 1.59-4.55.74-9.12 2.39-11.85 6.33-1.44 2.07-2.13 4.61-2.52 7.07-.42 2.58-.7 5.2-1.04 7.79-.53 4.02-.87 8.03-.8 12.1.03 1.31.08 2.62.14 3.92.18 5.89.81 11.77 1.86 17.57.89 4.89 2 9.91 5.12 13.91 2.96 3.78 7.57 5.6 12.2 6.31 5.28.8 10.7.74 16.03.88 1.02.03 2.03.05 3.05.07 9.41 5.77 19.13 10.98 28.81 16.26 2.83 1.55 5.66 3.09 8.48 4.66.62.34 1.22.32 1.71.09.98-.27 1.7-1.4 1.37-2.41-2.07-6.4-4.41-12.71-6.54-19.09 5.07-.31 10.18-.68 15.19-1.5 4.58-.76 9.23-2.48 11.88-6.53 1.36-2.08 2.01-4.56 2.4-6.98.46-2.84.74-5.71 1-8.58.42-4.8.61-9.63.59-14.45.06-.2.1-.42.1-.67Z" style="fill:#f6c243"/><g id="_-2"><path d="M122.05 75.64v-.06c.03-5.16-.23-10.25-1-15.35-.39-2.56-.86-5.1-1.3-7.65-.5-2.87-.89-5.81-1.9-8.56-1.01-2.75-2.5-5.15-4.8-6.95-2.15-1.68-4.71-2.74-7.35-3.37-2.64-.63-5.41-.9-8.15-1.09-3.45-.24-6.9-.41-10.36-.52-13.84-.45-27.68.05-41.49.91-6.46.4-12.96.7-19.39 1.47-5.49.65-11.01 1.9-15.38 5.47-4.37 3.57-6.39 9.35-7.4 14.84-1 5.43-1.6 10.97-1.88 16.49-.1.23-.17.5-.17.81 0 1.05.01 2.1.02 3.15-.04 1.61-.05 3.21-.03 4.82 0 .3.06.56.16.78.15 3.92.41 7.84.81 11.75.35 3.47.8 6.93 1.34 10.38.46 2.92.87 5.91 1.9 8.7 1.02 2.79 2.5 5.15 4.8 6.95 2.15 1.68 4.71 2.74 7.35 3.37 2.64.63 5.41.9 8.15 1.09 3.45.24 6.9.41 10.36.52 1.25.04 2.5.06 3.74.09-2.2 7.72-4.7 15.35-6.84 23.09-.29 1.07.27 1.87 1.05 2.22.55.44 1.31.59 2.09.11 11.15-6.84 22.47-13.4 33.52-20.4 3.14-1.99 6.24-4.01 9.33-6.08 0 0 .02-.01.03-.02 5.99-.36 12.01-.67 17.96-1.38 5.49-.65 11.01-1.9 15.38-5.47 4.47-3.65 6.39-9.35 7.4-14.84 1.23-6.63 1.85-13.41 2.02-20.14.05-1.71.05-3.42.03-5.13Z" style="fill:#c1dade"/><path d="M96.2 32.38s-.69 5.17.46 16.42c1.15 11.26 2.19 16.76 4.48 21.47 2.3 4.71 5.51 6.91 9.3 8.45 3.79 1.54 11.49 1.89 11.49 1.89s.35-9.76 0-14.24c-.35-4.47-1.72-12.29-2.76-17.8-1.04-5.51-3.42-9.63-6.89-12.29-4.19-3.22-16.08-3.91-16.08-3.91Z" style="fill:#ff8000"/></g><path class="cls-2" d="M85.7 63.98c-.29-.74-3.22-.29-7.95-.62-2.44-.17-5.34-.37-8.55-.6-3.27-.19-6.86-.32-10.63-.37-15.09-.21-27.33.86-27.35 2.41-.02 1.54 12.19 2.97 27.28 3.18 3.77.05 7.37.03 10.64-.07 3.25-.1 6.24-.22 8.81-.6 2.56-.37 4.63-1.01 5.95-1.68 1.33-.67 1.93-1.3 1.81-1.65ZM73.71 85.97c.05.2.19.37-.03.51-.08.06-.15.12-.24.13.03 0 .15.02.21.06l.04.02v.01c.07.06-.59-.55-.31-.29 0 0-.03-.03-.06-.08-.05-.1-.14-.12-.39-.19-.22-.07-.66-.16-1.04-.23-.8-.16-1.71-.3-2.71-.44-4.02-.55-9.58-.92-15.72-.98-12.28-.13-22.25 1.02-22.27 2.56-.02 1.54 9.93 2.9 22.21 3.02 6.14.06 11.7-.19 15.73-.65 1.01-.12 1.92-.24 2.72-.39.42-.08.82-.16 1.19-.23.44-.1.97-.26 1.42-.63.21-.19.39-.39.54-.72.12-.3.12-.57.08-.78-.08-.43-.3-.72-.56-.89-.26-.18-.56-.17-.69-.08-.14.09-.16.2-.14.29Z"/><path class="cls-5" d="M175.9 26.66c-.04-1.54-10.16-2.55-22.61-2.25-12.45.3-22.52 1.79-22.48 3.33s10.16 2.55 22.61 2.25c12.45-.3 22.52-1.79 22.48-3.33ZM170.84 50.85c-.04-1.54-9.04-2.53-20.09-2.21-11.05.32-19.98 1.83-19.93 3.37s9.04 2.53 20.09 2.21c11.05-.32 19.98-1.83 19.93-3.37Z"/></svg>