<svg id="Illustration" xmlns="http://www.w3.org/2000/svg" viewBox="0 0 200 170.28"><defs><clipPath id="clippath"><path class="cls-1" d="M72.17 107.66s4.04-11.39 6.82-15.9c2.78-4.52 7.19-10.5 15.63-14.58 8.44-4.07 16.94-6.33 16.94-6.33v6.41h4.11v-4.48h22.43s-1.2 5.47 1.4 5.54c2.6.07 2.72-1.07 3.06-3.88l5.35-1.39s1.85.36 6.03 1.77 14.13 4.47 18.3 10.31c4.17 5.85 10.02 13.57 14.68 23.8 4.67 10.23 7.93 19.14 9.46 26.16 1.53 7.02 3.04 14.33-.78 20.59-3.81 6.26-13.76 7.02-19.75 7.58s-21.22 0-21.22 0l-18.44.25h-9.18l-1.11-4.21H98.48l-7.91-.07s-3.57-16.78-3.63-16.91-6.33-25.92-6.96-29.07c-.63-3.14-1.19-5.02-1.95-5.3-.76-.28-5.85-.3-5.85-.3Z"/></clipPath><clipPath id="clippath-1"><path class="cls-1" d="M38.68 107.02s-.85-7.44-1.11-9.67c-.26-2.23-.89-8.49-.89-8.96s-.41-2.05.78-2.57c1.2-.52 1.77-.41 1.77-.41s1.13 4.81 1.45 5.43c.33.62 1.16 1.46 2.46 1.14 1.3-.31 2.03-1.36 1.72-2.61s-1.41-4.86-1.41-4.86l10.17-1.57s.79 3.39 1.26 4.33 1.41 1.73 2.92 1.1c1.51-.63 1.2-2.09.78-3.34s-.89-2.58-.89-2.58 1.72-.65 2.72-.28c1 .37 1.77 2.29 2.29 5.06.52 2.77 5.48 20.2 5.48 20.2l-29.52-.41h.02Z"/></clipPath><style>.cls-1{fill:none}.cls-4{fill:#f6c243}.cls-5{fill:#f75e28}.cls-6{fill:#fff}.cls-7{fill:#ffd066}.cls-9{fill:#b7957e}.cls-10{fill:#5b3d5b}</style></defs><g id="Layer_5"><path class="cls-9" d="M113.15 74.83c.52-.9 0-12.04 0-12.04s-5.75-2.74-7.04-10.59-.86-18.99-.9-23.04c-.04-4.05-.11-5.31 3.24-6.56s11-.36 13.11-2.66c2.11-2.29 4.3-3.8 4.94-5.55.64-1.75 3.3-4.87 3.3-4.87s3.62 2.66 5.87 4.87 4.28 7.85 5.04 10.49c.76 2.64-1.45 6.3 1.26 5.31 2.71-.99 5.56-1.65 4.81.93s-.58 4.93-1.39 7.72-1.22 4.25-1.22 4.25-3.11-2.26-2.98-.93c.14 1.33-1.7 32.65-1.7 32.65l-22.38.02-3.97-.02ZM41.57 85.81s-2.13-2.26-4.45-4.39c-2.32-2.13-7.9-9.82-9.46-13.49-1.56-3.68-2.54-7.9-1.94-9.36s3.25.75 3.98 1.86c.73 1.1 3.85 4.38 3.85 4.38s-1.04-6.81-1.3-7.71c-.26-.9-1.58-6.19-1.55-7.14.02-.95 2.63-.05 3.6 1.71.97 1.77 4.74 8.04 4.74 8.04s.45-6.33.46-9.05c.01-2.73.04-6.57.74-7.3.69-.74 3.38-1.83 3.98 1.28.6 3.11 3.18 13.5 3.18 13.5s2.07-7.18 2.47-9.24c.4-2.05.95-4.16.95-4.16s4.75-1.5 3.86 3.09-.63 16.16-.63 16.16-.06 2.16 1.86.82 2.32-3.52 4.53-5.09c2.21-1.57 4.08-2.52 4.94-1.14.85 1.38-.63 6.24-.63 6.24l-2.69 6.05s-4.47 5.77-5.47 6.33c-1 .56-1.93 2.26-1.93 2.26l1.1 3.04-14.19 3.34Z"/></g><g id="_"><path class="cls-4" d="M111.72 163.18c14.19.24 28.39.33 42.59.18 4.04-.04 8.09-.1 12.12-.18 1.1-.02 2.05-.92 2.05-2.05s-.94-2.07-2.05-2.05c-14.19.28-28.39.31-42.59.17-4.04-.04-8.09-.1-12.12-.17-1.1-.02-2.05.95-2.05 2.05s.94 2.03 2.05 2.05ZM63.83 90.79c-.69-2.35-1.38-4.7-2.06-7.05-.09-.3-.25-.57-.45-.79-.37-.61-1.01-1.08-1.72-.99-7.29.96-14.56 2.18-21.76 3.68-1.08.23-1.71 1.5-1.43 2.51.05.19.14.36.24.52.14 2.94.51 5.87.84 8.79.34 3.01.66 6.3 1.22 9.4.16.89 1.07 1.45 1.94 1.48.03.33.04.54.03.57-.08.32 17.46.11 23.59.03.04.17.07.35.11.52.23 1.08 1.5 1.71 2.51 1.43 1.13-.31 1.65-1.43 1.43-2.51-1.23-5.95-2.8-11.77-4.51-17.59ZM131.76 153.97l4.29-20.49c.23-1.08-.31-2.21-1.43-2.51-1.01-.28-2.29.34-2.51 1.43l-4.29 20.49c-.23 1.08.31 2.21 1.43 2.51 1.01.28 2.29-.34 2.51-1.43ZM145.38 108.69c4.56 7.39 8.51 15.15 11.74 23.21.41 1.03 1.36 1.74 2.51 1.43.97-.27 1.84-1.48 1.43-2.51-3.36-8.39-7.4-16.49-12.15-24.19-.58-.94-1.83-1.3-2.8-.74-.97.56-1.32 1.86-.74 2.8Z"/><path class="cls-10" d="M164.61 45.48c-1.36-2.96-3.6-5.07-6.44-6.37-.72-.33-1.46-.63-2.14-1.03-.32-.19-.53-.33-.72-.51-.34-.32-.39-.4-.57-.68-.37-.6-.48-.93-.65-1.74 0-.05-.05-.29-.06-.32l-.03-.35c-.04-.44-.04-.89-.02-1.33.08-1.94.58-3.84.81-5.77.2-1.68.14-3.34-.11-5.01-.46-3.21-1.74-6.34-3.68-8.95-4.72-6.34-12.91-9.27-20.61-7.47-.24.06-.45.17-.64.31-3.19-2.35-7.05-3.69-11.05-3.75-4.54-.07-8.63 1.55-12.03 4.35-1.58 1.3-2.95 2.9-4.02 4.65-.57.92-1.03 1.9-1.42 2.91-.36.91-.64 1.99-1.01 2.74-.43.86-.77 1.19-1.47 1.57.02-.02-.25.11-.33.14-.22.07-.45.14-.68.18-.2.04-.42.08-.63.12-.06 0-.4.05-.47.05-2.03.18-4.11.07-6.11.58-4.05 1.03-7.45 4.67-8.15 8.8-.44 2.6.14 5.12.85 7.62.28 1 .57 1.99.76 3.01.04.21.08.43.11.65.02.14.04.29.05.43.05.5.08 1 .07 1.51-.01.97-.05 1.33-.4 2.38-.01.03-.02.05-.02.07-.03.06-.05.11-.08.17-.11.21-.23.4-.35.6-.05.08-.07.11-.07.12-.01 0-.04.03-.1.1-.2.21-.39.42-.62.59-.61.48-1.75.97-2.59 1.37-1.03.5-1.99 1.1-2.85 1.86-3.73 3.3-4.53 8.56-3.84 13.26 1.34 9.03 7.8 17.55 17.2 18.92 1.22.18 2.42.27 3.65.23 1.1-.04 2.05-.91 2.05-2.05 0-.52-.2-1-.52-1.36.59-.41 1.17-.86 1.79-1.22 1.9-1.11 3.95-1.42 6.08-1.75 2.09-.34 3.92-1.37 5.09-3.06.39.52 1.02.86 1.66.86.52 0 .96-.19 1.31-.5.02 1.53 0 3.06-.04 4.59-.04 1.1.97 2.05 2.05 2.05 1.14 0 2.01-.94 2.05-2.05.13-3.92.03-7.85-.26-11.76 2.48.73 5.07 1.06 7.66 1.09 1.1.01 2.05-.95 2.05-2.05s-.94-2.03-2.05-2.05c-2.88-.04-5.27-.34-8.06-1.42-.41-.16-.81-.34-1.4-.66-.56-.3-1.33-.8-1.68-1.07a9.09 9.09 0 0 1-2.31-2.7c-.78-1.39-1.18-2.99-1.5-4.59-.35-1.74-.63-3.49-.91-5.23-.53-3.38-.95-6.79-1.11-10.23-.14-3.16-.05-6.44.46-9.62.05-.09.11-.17.17-.26l.21-.24c.19-.21.39-.4.6-.59.25-.22.43-.36.88-.63.4-.25.82-.47 1.25-.68.06-.03.41-.18.45-.2.19-.08.39-.15.58-.22.56-.2 1.13-.38 1.7-.55 1.19-.34 2.39-.61 3.62-.82 2.31-.4 4.58-.75 6.71-1.77 1.98-.94 3.54-2.55 4.75-4.36.94-1.42 1.65-2.99 2.27-4.58a17.082 17.082 0 0 1 2.67 1.76c2.59 2.13 4.37 4.56 5.71 7.67 0 .01.01.02.02.03.43 1.32.78 2.66 1.02 4.02a36.82 36.82 0 0 1 .22 1.39c.02.22.05.43.07.65.08.84.12 1.68.14 2.52.01.62.33 1.21.8 1.6.06.07.11.14.18.2.75.69 2.17.88 2.89 0h-.01c.07-.08.15-.16.23-.24.02-.01.07-.05.13-.08.04-.01.2-.09.29-.11.02 0 .02 0 .03-.01.02 0 .05 0 .1.01h.07c.02 0 .03 0 .06.01.04 0 .05.01.08.01.02.01.03.02.06.04.02.01.03.01.04.02.02.02.04.04.08.07.03.03.06.04.07.05 0 .01.01.02.02.04.06.1.12.21.18.31.02.05.07.18.1.27.05.17.08.34.12.51 0 .02 0 .03.01.05v.02c.01.7.02 1.54-.06 2.11-.09.69-.32 1.71-.55 2.5-.13.46-.28.9-.45 1.35 0 0-.17.41-.16.41-.07.16-.15.32-.23.48-.09.18-.2.34-.3.52-.04.07-.06.1-.06.12-.02.01-.05.04-.1.08-.03.03-.11.12-.18.19h-.02c0-.01.01-.02.02-.03l-.08.05c-.49-.73-1.31-1.23-2.24-.93-.95.31-1.86 1.46-1.43 2.51.08.2.18.39.28.57.07 11.31-.44 22.62-1.52 33.88-.11 1.1 1.01 2.05 2.05 2.05 1.19 0 1.94-.94 2.05-2.05.07-.73.13-1.45.2-2.18.27.04.55.02.82-.06 6.74-1.99 13.71-4.77 18.34-10.31 2.16-2.59 3.87-5.66 4.43-9.02.56-3.36.12-6.42-1.24-9.38Zm-21.69-5.04h.01l-.01.01Zm.58-15.06c-.04.09-.03.06 0 0Zm-.33 15.52c-.05-.12-.1-.23-.17-.34.08.1.14.21.17.34Zm-.2-.51-.02.02h-.01.02Z"/><path class="cls-4" d="M92.65 106.01c-1.39 9.94-2.12 19.94-2.13 29.97 0 1.1.94 2.05 2.05 2.05s2.05-.94 2.05-2.05c.01-9.66.66-19.32 1.99-28.89.15-1.09-.27-2.2-1.43-2.51-.95-.26-2.36.33-2.51 1.43Z"/><path class="cls-4" d="M197.2 139.11c0-.17 0-.34-.05-.51-2.54-11.6-6.65-22.86-12.12-33.4a132.11 132.11 0 0 0-9.21-15.15c-1.75-2.48-3.52-5.05-5.69-7.17-2.18-2.12-4.9-3.66-7.72-4.89-6.63-2.89-13.54-5.17-20.56-6.88-1.07-.26-2.22.34-2.51 1.43-.02.08-.03.17-.04.26l-24.45.02c0-.18 0-.37-.06-.56-.3-1.07-1.45-1.74-2.51-1.43-6.85 1.99-13.81 4.1-20.02 7.68-3.04 1.75-5.9 3.88-8.32 6.43-2.76 2.91-4.86 6.35-6.59 9.95-2.12 4.39-3.89 8.94-5.55 13.52-.38 1.04.43 2.24 1.43 2.51.83.23 1.57-.08 2.07-.66.57.44 1.19.86 1.65 1 1.13.36 3.15 10.47 4.17 15.16 1.02 4.7 8.82 35.86 8.82 35.86h27.19l16.97-.88s8.5.4 18.99.47c4.05.6 8.14 1.03 12.23 1.27 5.59.33 11.31.48 16.87-.29 4.53-.63 9.39-2.22 12.43-5.84 4.28-5.11 3.61-11.75 2.6-17.88Z"/><path class="cls-4" d="m135.16 134.47 18.04.04c5.87.01 11.76-.07 17.61.38 3.22.24 6.4.68 9.55 1.41 1.07.25 2.22-.33 2.51-1.43.28-1.03-.35-2.26-1.43-2.51-5.86-1.35-11.89-1.76-17.88-1.87-6-.11-12-.06-17.99-.07l-10.42-.02c-1.1 0-2.05.94-2.05 2.05s.94 2.05 2.05 2.05Z"/><path d="M127.14 161.99c.06-.2.11-.4.11-.61 0-1.1-.94-2.05-2.05-2.05H90.97c-3.06-12.56-5.92-25.17-8.99-37.73-1.01-4.14-2.06-8.28-3.09-12.42-.26-1.05-1.41-1.68-2.44-1.44-.12-.02-.23-.04-.36-.05-10.4-.37-20.81-.61-31.23-.73-10.36-.12-20.72-.12-31.09.01l-4.44.06c-1.16.02-2.31.05-3.43.36-2.21.61-4.02 2.17-3.91 4.47v.12c1.53 14.3 3.85 28.44 7.48 42.36 1.08 4.13 2.25 8.24 3.47 12.34.16.55.54.99 1.02 1.25.38.47.95.78 1.58.78h108.77c1.1 0 2.05-.94 2.05-2.05v-.04c.53-1.38.79-2.89.8-4.37 0-.09-.01-.18-.03-.26Z" style="fill:#ff8000"/><path class="cls-10" d="M68.34 58.58c-.17-.53-.48-.92-.94-1.22-.73-.49-1.55-.87-2.38-1.14-.5-.16-1.03-.25-1.55-.28-.67-.04-1.27.14-1.87.41-.06.03-.12.07-.18.11-1.03.53-1.99 1.25-2.74 2.12-.81.92-1.37 2.04-2.05 3.09-.03.05-.16.22-.14.21-.04.04-.07.09-.11.13-.1.11-.23.2-.32.3-.02.02-.03.03-.03.04-.01 0-.02.02-.04.03-.13.1-.27.18-.41.28.55-5.02.95-10.07 1.21-15.11.08-1.58-.36-3.12-1.78-3.98-1.32-.8-2.96-1.2-4.37-.4-.63.36-1.25.87-1.68 1.46-.49.66-.62 1.4-.77 2.19-.22 1.2-.49 2.39-.78 3.58l-.16-.83-.83-4.32c-.26-1.37-.45-2.8-1.4-3.89-2-2.29-5.57-1.1-6.76 1.4-.63 1.32-.74 2.76-.76 4.2-.03 1.44-.03 2.9-.02 4.36 0 .66.02 1.31.03 1.97-.19-.36-.38-.72-.58-1.08-.63-1.16-1.24-2.34-1.93-3.47-.69-1.13-1.59-2.25-2.9-2.74-.72-.27-1.51-.24-2.18.17-.93.58-1.1 1.57-1.2 2.57-.15 1.41.04 2.85.32 4.23.33 1.64.8 3.25 1.29 4.86-.44-.55-.92-1.06-1.45-1.51-1.14-.97-2.53-1.68-3.97-.81-1.23.75-1.76 2.23-1.91 3.59-.27 2.29.72 4.72 1.57 6.81.99 2.44 2.17 4.8 3.39 7.14 0 .02.01.04.02.05.06.12.12.22.18.33.03.05.05.11.08.16.01.03.03.05.05.07 2.65 4.64 6.11 9.17 10.99 11.56h.02l1.49 5.28c.29 1.03 1.46 1.77 2.51 1.43 1.06-.34 1.74-1.41 1.43-2.51l-1.78-6.3c-.22-.78-.94-1.39-1.73-1.5-.54-.27-1.08-.56-1.58-.89-.25-.16-.49-.33-.74-.5a8.11 8.11 0 0 0-.36-.26c-.02-.01-.04-.04-.08-.06-1-.82-1.93-1.71-2.77-2.69-.2-.23-.4-.46-.59-.69-.09-.12-.19-.24-.28-.36-.04-.05-.06-.07-.08-.1-.02-.02-.03-.04-.05-.07-.39-.52-.76-1.04-1.12-1.58-.74-1.09-1.41-2.22-2.05-3.37-1.13-2.16-2.27-4.33-3.16-6.61-.47-1.2-.93-2.45-1.2-3.71 0 .02-.06-.33-.08-.43.07.08.22.27.26.32.61.8 1.14 1.66 1.69 2.49 1.16 1.78 2.41 3.49 4.2 4.67l.02.06c.31 1.06 1.44 1.73 2.51 1.43s1.74-1.45 1.43-2.51l-2.5-8.68-.9-3.1c1.2 2.22 2.37 4.45 3.5 6.71.21.42.59.7 1.01.86.37.43.89.71 1.51.71 1.06 0 2.1-.94 2.05-2.05h-.01c-.25-4.93-.43-9.92-.25-14.86.02-.49.04-.81.13-1.19.04-.17.13-.47.17-.56-.04.09.06-.09.1-.16.02-.02.04-.05.06-.07l.01-.01c.02.09.05.17.05.2.05.21.09.43.14.65.13.67.26 1.34.39 2.02l.69 3.59 1.61 8.33c-.02.08-.05.15-.07.23-.33 1.06.39 2.23 1.43 2.51 1.1.3 2.18-.37 2.51-1.43h.01c.7-2.22 1.36-4.46 1.97-6.71.6-2.25 1.01-4.43 1.5-6.65 0-.02.01-.05.02-.09.06-.05.1-.09.14-.13.03 0 .06.02.09.03.07.02.13.04.16.05-.07-.02-.15-.04 0 .02.02.51-.04 1.02-.08 1.52-.18 2.49-.32 4.99-.51 7.48-.22 2.94-.51 5.87-.86 8.81-.85.38-1.35 1.54-1.08 2.4.37 1.14 1.38 1.62 2.51 1.43 1.27-.21 2.48-.8 3.57-1.48 1.09-.68 2.34-1.42 3.17-2.4.45-.54.82-1.11 1.17-1.71.14-.25.28-.51.43-.76.08-.12.15-.24.23-.36.02-.02.12-.16.17-.23.06-.07.14-.17.14-.17.09-.11.19-.21.28-.31.2-.2.41-.38.62-.57.02 0 .03-.02.05-.03l.35-.23c.17-.11.36-.2.54-.29.2.04.4.09.59.16a60.47 60.47 0 0 1-1.05 3.22c-.26.74-.54 1.47-.82 2.2-.15.38-.3.75-.46 1.13-.01.03-.02.04-.03.06-.01.02-.02.05-.04.09-.09.21-.18.43-.28.64-.08.19-.14.4-.18.6-.33.74-.72 1.45-1.16 2.13-.24.36-.49.71-.74 1.06v.01c-.04.06-.09.11-.13.17-.14.18-.28.35-.43.53-.9 1.06-1.87 2.04-2.86 3.01-.23.1-.44.23-.62.41l-1.47 1.14c-.85.45-1.23 1.36-1.04 2.35a52.38 52.38 0 0 0 2.2 8.1c.36 1 1.41 1.78 2.51 1.43.99-.32 1.81-1.43 1.43-2.51a55.25 55.25 0 0 1-1.91-6.71l.18-.14c.34-.08.66-.25.93-.51 2.58-2.51 5.22-5.16 6.7-8.49.12-.26.21-.52.25-.78 1.33-3.06 2.47-6.2 3.37-9.42.05-.17.06-.36.06-.54.04-.27.03-.55-.05-.81Zm-42.52.48h-.07c-.09-.11-.06-.1.06 0ZM42.21 44.2Zm-.27.24s-.01.02 0 0Zm.04-.07Zm.24-.17Zm.09-.03h.03-.03Zm.04-.01c.07-.02 0 .02 0 0Zm10.33 2.65c0-.08-.02-.23 0-.02v.02Zm0 0-.04-.11h.02c0 .03 0 .06.01.12Zm-.02-.12h-.02c0-.05 0-.07.02 0Zm-.61.06c-.1 0-.07 0 0 0Z"/><path class="cls-6" d="M57.44 137.51c-.08-.22-1.2-2.35-3.3-5.03a.388.388 0 0 1-.09-.23c-.21-2.77-.59-4.62-.59-4.62a.733.733 0 0 0-.65-.59l-2.21-.3h-.06c-.26 0-.47.2-.47.46v.77s-.02.03-.04.03h-.02a31.894 31.894 0 0 0-4.43-3.43 1.93 1.93 0 0 0-1.09-.34c-.41 0-.78.11-1.1.32-7.69 4.62-11.99 12.24-12.15 12.66a.69.69 0 0 0-.08.32c0 .36.24.65.56.74l2.19.45c.29.08.51.34.54.65.01.39.33 9.07.82 11.32.08.33.37.57.72.57h.02c1.29-.02 2.46-.02 3.73-.02h.11c.14 0 .25-.11.25-.24-.04-.76-.13-2.5-.2-4.32v-.15c0-.16-.09-.3-.22-.38-.66-.4-1.1-1.11-1.13-1.93-.08-3.04-.09-6.56.1-9.31.02-.23.21-.41.44-.41.24 0 .44.2.44.44v.04c-.13 1.83-.17 4-.15 6.14a.525.525 0 1 0 1.05-.01c-.01-2.15.02-4.33.15-6.18.02-.23.21-.41.44-.41.24 0 .44.2.44.44v.04c-.13 1.83-.17 3.98-.15 6.11a.525.525 0 0 0 1.05 0c-.01-2.15.02-4.32.15-6.15.02-.23.21-.41.44-.41.24 0 .44.2.44.44v.04c-.19 2.67-.18 6.06-.11 9.03v.1c-.01.81-.43 1.52-1.06 1.94-.11.08-.19.2-.2.34 0 0-.06.46.12 2.67.08.97.15 1.64.18 1.94.01.11.11.21.23.21h.21c.42 0 .86.01 1.32.01h.17c.58.01 1.12.02 1.65.02l1.24.02c.12 0 .22-.09.24-.2.32-2.64.4-4.13.4-4.13 0-.14-.1-.24-.23-.25l-1.51-.23a.531.531 0 0 1-.43-.38c-.03-.11-.02-.24-.02-.24.72-8.82 3.66-11.76 3.66-11.76.09-.09.14-.12.14-.12a.43.43 0 0 1 .27-.08c.2 0 .37.12.43.3 0 0 .02.06.04.21.22 2.78.04 7.5-.16 11.18-.17 3.12-.36 5.58-.36 5.58 0 .11.08.19.18.19.82.02 1.64.05 2.5.08h.02c.35 0 .65-.23.74-.56.55-2.25 1.07-10.91 1.09-11.3.04-.31.26-.56.56-.63l2.21-.4a.75.75 0 0 0 .58-.73c0-.11-.02-.23-.07-.33Z"/></g><g style="clip-path:url(#clippath);fill:none" id="Layer_8"><path class="cls-7" d="m188.27 89.25-4.95 8.55c-.26.45-1.32 1.79-1.38 2.38a.55.55 0 0 0-.07.09c-.17.02-.37.04-.61.08-1.65-.07-3.4.14-5.04.25-5.01.34-10 .97-14.95 1.85 2.07-10.38 4.55-20.66 7.48-30.83 1.27-4.41-5.6-6.29-6.86-1.89a378.915 378.915 0 0 0-8.52 36.28c-.5 2.72 1.59 4.98 4.37 4.37 7.77-1.69 15.58-2.62 23.52-2.92 3.56-.13 5.27-1.06 7.1-4.16 2.05-3.47 4.03-6.97 6.05-10.46 2.29-3.97-3.85-7.56-6.14-3.59ZM95.69 124.66h.01c-4.36-6.35-8.11-13.11-11.09-20.22 1.2-1.04 2.85-1.5 4.39-1.99 2.74-.87 5.5-1.7 8.25-2.55l13.08-4.04c.72 6.8 1.17 13.62 1.33 20.46.11 4.57 7.22 4.59 7.11 0-.2-8.41-.82-16.78-1.87-25.12-.27-2.18-2.06-4.19-4.51-3.43l-17.61 5.44c-4.89 1.51-11 2.5-14.99 5.93-1.84 1.59-3.27 3.68-2.51 6.14.82 2.63 2.18 5.23 3.37 7.71 2.55 5.32 5.54 10.4 8.87 15.26 2.57 3.75 8.74.2 6.14-3.59ZM149.05 141.65c-2.68-.24-5.55.34-8.23.52-2.69.18-5.47.31-8.2.39-5.87.18-11.74.12-17.6-.12-1.7-.07-2.85 1.19-3.43 2.61l-7.6 18.71c-1.72 4.24 5.16 6.08 6.86 1.89s6.51-16.02 6.51-16.02c4.69.15 9.39.19 14.09.08 2.74-.07 5.48-.19 8.21-.36 1.57-.09 3.12-.2 4.68-.33.61-.05 1.22-.1 1.83-.16-.07.66-.11 1.33-.15 1.59l-.68 3.97-1.36 7.94c-.73 4.25-2.16 9.11 2.86 11.09 3.63 1.43 5.5-3.34 3.38-5.81-.03-.78.44-2.32.52-2.82l.78-4.53 1.36-7.94c.71-4.16 2.29-10.15-3.82-10.71ZM179.79 144.14c3.02-5.22 6.06-10.43 9.14-15.61 2.34-3.94-3.81-7.53-6.14-3.59-2.16 3.63-4.3 7.27-6.42 10.92-2.21-5.47-4.34-10.98-6.37-16.53-1.56-4.26-8.44-2.42-6.86 1.89 2.75 7.52 5.68 14.98 8.75 22.37-4.36 7.58-8.67 15.2-12.91 22.85-2.22 4.01 3.92 7.6 6.14 3.59 3.38-6.1 6.8-12.17 10.26-18.23 2.84 6.54 5.81 13.02 8.9 19.45 1.99 4.13 8.12.52 6.14-3.59a538.84 538.84 0 0 1-10.63-23.52ZM119.79 69.35c2.7 5.77 5.27 11.6 7.75 17.46-1.35 1.66-2.68 3.33-4.01 5.01-2.81 3.56 2.19 8.62 5.03 5.03.68-.86 1.37-1.71 2.05-2.57.66 1.64 1.32 3.27 1.96 4.92 1.64 4.22 8.52 2.38 6.86-1.89-1.21-3.11-2.46-6.21-3.73-9.3 7.9-9.57 16.14-18.86 24.7-27.86 3.15-3.31-1.87-8.35-5.03-5.03a523.983 523.983 0 0 0-22.75 25.53c-2.15-5-4.37-9.97-6.68-14.9-1.94-4.14-8.07-.53-6.14 3.59ZM92.4 86.39c3.8 2.58 7.36-3.59 3.59-6.14a66.016 66.016 0 0 1-8.36-6.73c-3.33-3.14-8.37 1.89-5.03 5.03 3.05 2.88 6.34 5.48 9.8 7.84ZM140.12 121.05l-.36 7.23c-.09 1.92 1.7 3.56 3.56 3.56 2 0 3.46-1.63 3.56-3.56l.36-7.23c.09-1.92-1.7-3.56-3.56-3.56-2 0-3.46 1.63-3.56 3.56ZM99.74 143.09c-3.92 4.91-7.66 9.95-11.2 15.13-2.58 3.79 3.57 7.36 6.14 3.59 3.2-4.69 6.55-9.26 10.1-13.69 2.83-3.55-2.17-8.61-5.03-5.03Z"/></g><path class="cls-7" d="m37.11 117.78 31.56-33.84c3.12-3.34-1.9-8.39-5.03-5.03l-31.56 33.84c-3.12 3.34 1.9 8.39 5.03 5.03Z" style="clip-path:url(#clippath-1);fill:none" id="Layer_9"/><g id="Layer_10"><path class="cls-9" d="m131.04 147.44 2.53-12.05-5.45-.25s-2.07-18.8-3.21-19.57c-1.13-.77.13-.62-3.37.61s-7.17 1-7.17 1l-5.95 4.09s-2.23 3.28-2.02 5.53c.21 2.25-1.96 2.31.21 4.73s2.5.56 3.38 3.02c.89 2.46 2.59 4.52 2.59 4.52s3.6 5.9 6.27 6.41c2.67.5 7.2 1.16 7.2 1.16l4.97.81Z"/><path class="cls-5" d="M136.44 108.08c.26.14.51.29.74.47l-.41-.32c.18.14.34.28.5.44.18.2.4.34.66.42.24.13.5.19.79.18.28.01.55-.05.79-.18.25-.08.47-.23.66-.42l.32-.41c.18-.32.28-.66.28-1.03l-.07-.55c-.09-.34-.27-.65-.53-.9-.3-.31-.65-.57-.99-.82a5.59 5.59 0 0 0-.66-.41c-.24-.15-.49-.23-.76-.24-.27-.06-.55-.05-.82.04-.27.07-.5.18-.69.37-.23.14-.4.34-.53.58l-.21.49c-.09.36-.09.72 0 1.08l.21.49c.18.31.43.55.74.74Z"/><path class="cls-5" d="M140.35 105.98c-.39-.36-.89-.55-1.39-.58-.1-.21-.23-.41-.4-.57-.85-.78-2.04-.76-2.89 0-3.6 3.24-7.14 6.54-10.63 9.9-.77.74-.8 2.16 0 2.89.13.12.27.21.42.29-.55.78-.5 1.97.22 2.63.81.74 2.07.79 2.89 0 3.98-3.84 7.88-7.75 11.78-11.67.75-.76.82-2.15 0-2.89ZM110.29 132.55s-.02-.03-.04-.04c-.83-.76-2.1-.83-2.89 0-2.43 2.56-4.83 5.15-7.2 7.76-.51.56-.71 1.39-.49 2.1l-1.43 1.41c-.25.24-.4.62-.4.97s.15.74.4.97c.25.23.6.41.97.4.37-.02.7-.14.97-.4l1.61-1.59c.69.19 1.45.07 1.96-.5 2.4-2.72 5.03-5.21 7.72-7.62.8-.72.78-2.18 0-2.89a2.2 2.2 0 0 0-1.17-.56Z"/><path class="cls-10" d="M142.76 134.54c-4.28-.17-8.55-.52-12.81-1.02l-2.08-15.43c-.17-1.23-.17-2.68-.66-3.84-.56-1.31-1.81-2.03-3.22-2-1.21.02-2.45.63-3.26 1.53-.41.46-.76.97-1.1 1.48-.01.02-.07.1-.12.17-3.57-1.08-7.7-.12-10.99 1.44-2.07.98-3.04 2.94-3.38 5.1-.37 2.29-.66 4.59-1 6.88-.07.46-.02.93.13 1.33.24 1.68.72 3.39 2.3 4.31.49.28 1 .44 1.5.5.75 3.59 2.35 7.03 5.12 9.5 3.05 2.72 6.98 4.05 10.84 3.38.07.05.13.1.21.14l11.95 5.72c.97.46 2.25.3 2.8-.74.48-.91.3-2.31-.74-2.8l-11.47-5.49c-.41-.9-1.44-1.42-2.39-1.12h-.02c-1.52.47-2.95.47-4.45.07a9.57 9.57 0 0 1-4.02-2.21c-2.5-2.32-3.82-5.8-4.16-9.05-.18-1.74-1.94-2.5-3.21-1.63-.03-.07-.06-.15-.07-.17-.05-.18-.09-.37-.13-.55-.03-.13-.04-.16-.04-.17 0 0 0-.05-.02-.19-.02-.17-.06-.33-.11-.49l.76-5.26c.11-.78.21-1.58.45-2.34l.11-.28c.06-.1.2-.33.17-.32.22-.26.36-.33.69-.5 1.21-.62 3.04-1.07 4.51-1.33.67-.12 1.46-.17 2.27-.11.52.04 1.35.25 1.85.51.62.31 1.45.43 2.06 0 .94-.66 1.58-1.49 2.23-2.43.04-.05.27-.37.29-.41l.02-.02.12.86.49 3.65 1.94 14.47c.09.66.63 1.13 1.26 1.35.33.21.73.35 1.15.4 4.71.6 9.45 1 14.2 1.19 1.1.04 2.05-.97 2.05-2.05 0-1.14-.94-2-2.05-2.05Zm-34.83-3.17c.04-.08.09-.14.16-.2-.05.06-.11.12-.16.2Zm.7-.39c.09.08.1.17 0 0Z"/></g><path class="cls-9" d="M141.74 34.41c.23-.38.47-.75.72-1.11.11-.16.22-.31.33-.46-.27.36.2-.25.26-.31.26-.3.53-.58.81-.85.11-.1.08-.07-.1.08.21-.11.19-.12-.06 0 .2-.05.21-.06.04-.02-.12.03-.24.03-.37 0-.21-.05-.38-.15-.53-.3-.19-.28-.25-.35-.16-.21.06.11-.18-.52-.03-.03.12.37 0-.48-.02-.09v.43c0 .14-.03.28-.04.42.04-.66.04-.31.01-.14-.08.46-.17.92-.29 1.38-.22.84-.52 1.66-.81 2.47-.08.23-.17.46-.25.69-.15.43.16-.3-.05.14-.08.15-.15.31-.23.46-.05.09-.48.66-.16.29-.08.09-.46.43-.06.14-.13.1-.28.17-.42.25-.22.1-.2.09.06-.02-.1.04-.21.08-.31.12-.17.06-.33.11-.51.15-.46.11-.99.24-1.41.48-.47.27-.73.62-1.05 1.04l1.27-.98h.84c-1.09-.22-2.35.29-2.62 1.47-.24 1.05.32 2.4 1.49 2.62.78.15 1.5.14 2.15-.37.18-.14.56-.44.6-.69 0 .04-1.06.78-.89.74.1-.02.21-.08.31-.11.87-.27 1.79-.46 2.56-.98 1.72-1.16 2.36-3.1 3.02-4.97.55-1.55 1.07-3.24 1.06-4.9 0-.92-.24-1.77-.8-2.5-.78-1.01-2.13-1.43-3.37-1.11-1.1.28-1.97 1.07-2.69 1.92s-1.38 1.78-1.97 2.74-.24 2.38.76 2.91c1.04.55 2.29.25 2.91-.76Z"/><path class="cls-6" d="M179.18 131.19s.02.09.1.14c.04.01.12.04.23-.03.12-.08.15-.25.15-.34v-.06l-.17-.14c-.25-.21-.81-.21-1.1-.3-.37-.18-.88-.38-1.54-.54-.64-.18-1.39-.37-2.21-.57-.79-.18-1.74-.43-2.86-.47-.5-.02-.98-.03-1.39-.1-.27-.06-1.16-.27-1.7-.27-.58-.03-.92-.1-1.51-.23-.55-.12-1.19-.29-1.93-.36-.19-.02-.38-.03-.57-.03l-.39-.02c-.26-.02-.55-.05-.85-.09-.6-.08-1.34-.19-2.09-.19-1.32 0-2.67-.02-4.06-.03-3.1-.05-6.13-.12-8.92.1-1.38.1-2.75.29-3.93.52-1.14.2-2.27.35-3.32.56-1.03.2-2.05.5-2.77.8-.76.29-1.41.55-1.94.79-.54.2-1.05.49-1.27.79-.22.29-.23.49-.16.55.08.06.24-.01.5-.09.26-.09.6-.12 1.18-.17.58-.07 1.28-.18 2.09-.33.84-.17 1.63-.28 2.64-.35.99-.07 2.11-.1 3.36-.22 1.21-.12 2.41-.21 3.74-.24 2.64-.06 5.59.08 8.75.13 1.41.02 2.77 0 4.09-.02.57-.02 1.12.05 1.79.12.33.03.68.06 1.04.07h.9c.48.02 1.03.12 1.63.22.56.11 1.37.18 1.91.16.59-.02.76.04 1.54.13.64.04 1.19 0 1.67-.03.86-.07 1.71.04 2.57.1.82.06 1.56.11 2.2.16.64.01 1.23.09 1.75.13.63-.07.79-.21 1-.21l-.17-.2s.21.03.15.03c-.03-.05-.02-.05-.04-.01-.04.04-.08.08-.09.12ZM92.97 155.23s0 .12.07.22l.02-.3c-.03-.07-.06.04.03-.08.02-.03.01-.14.04-.28.03-.31.13-.58.18-1.22-.01-.35-.1-.64-.13-.86-.01-.13-.02-.15 0-.3.02-.14.03-.29.05-.43.07-.59.12-1.24.17-2.01.1-1.5.19-3.24.27-5.18.03-.98.06-2.01.09-3.08 0-.56-.01-1.07.02-1.55.05-.53.11-1.06.16-1.6.06-.6.11-1.22.17-1.84 0-.58.01-1.18.02-1.77v-3.66c1.14-12.92 1.4-24.4.78-24.38-.96.02-2.33 10.28-3.61 24.3 0 1.26.01 2.5.02 3.72 0 .6.01 1.2.02 1.79-.04.55-.07 1.09-.11 1.62l-.05.79c-.01.25-.06.66-.06.95 0 .63.04 1.19.07 1.7.04 1.05.07 2.06.11 3.02.07 1.94.17 3.69.27 5.19.06.77.11 1.47.16 2.1.01.16.03.32.04.47 0 .13.07.39.13.53.1.22.19.43.27.62.07.33.1.86.21 1.19.06.18.12.35.27.51.17.2.46.14.52.06l.25-.29h-.23c-.12-.01-.2.01-.22.06Z"/><path class="cls-6" d="M154.89 128.27c-.1.1-.13.35-.11.58l.73-.42c-.03-.29-.02-.67-.02-1.35-.02-.75-.23-1.52-.43-2.46-.23-.9-.39-1.8-.62-2.9-.2-1.07-.58-2.36-.95-3.48-.2-.64-.53-1.44-.87-2.02-.31-.56-.57-1.04-.76-1.49-.17-.37-.35-1.08-.53-1.59-.15-.56-.44-1.02-.67-1.47-.24-.44-.47-.85-.68-1.21-.19-.27-.36-.59-.55-.87-.35-.59-.8-1-1.1-1.07l-.48-.1.06.19c.04.13.1.21.18.24.08.03.18 0 .29-.08l-.42.09c.01.26.06.62.13 1.23.04.3.09.68.23 1.14.09.38.2.8.32 1.24.11.44.3.9.35 1.42.1.54.13.97.35 1.72.21.68.5 1.31.79 1.89.28.55.44.99.65 1.63.4 1.21.73 2.17 1.04 3.26.31 1.04.68 2.12 1.06 2.94.34.8.76 1.53.98 2.08.23.62.55 1.26.95 1.53l.73-.42c-.34-.3-.56-.34-.66-.24ZM172.86 164.7c-.01-.1-.17-.17-.45-.22-.31-.03-.49-.16-1.06-.29-.28-.05-.58-.11-.92-.17-.29-.04-.58-.09-.9-.17-.32-.08-.66-.18-1.04-.29-.37-.13-.89-.25-1.29-.35-.21-.05-.4-.11-.58-.18l-.31-.12c-.16-.06-.32-.11-.48-.14-.66-.15-1.27-.12-1.72-.16-.24-.02-.4-.04-.6-.09-.21-.05-.45-.13-.72-.21-.27-.09-.58-.18-.94-.26-.18-.04-.37-.07-.57-.09l-.44-.04c-.38-.04-.91-.23-1.62-.41-.84-.21-1.67-.14-2.01-.21-.1-.02-.17-.03-.25-.06-.2-.07-.41-.12-.62-.17-.41-.09-.79-.13-1.12-.17l-.23-.03-.12-.02a2.13 2.13 0 0 1-.34-.11l-.53-.18a3.91 3.91 0 0 0-.8-.16c-.49-.04-.67-.03-.79-.07-.16-.04-.44-.16-.83-.31-.88-.3-1.48-.38-2.13-.53-1.19-.23-2.28-.64-3.48-.97-.92-.28-1.57-.19-1.94-.26-.19-.03-.28-.05-.39-.09a.411.411 0 0 1-.12-.07c-.1-.06-.21-.13-.32-.18-.22-.11-.47-.17-.71-.2-.52-.1-.91-.13-1.29-.26-.4-.13-.85-.33-1.36-.49-1.15-.35-1.97-.23-2.64-.29-.33-.01-.62-.05-.89-.09-.25-.05-.65-.1-.91-.12a33.2 33.2 0 0 1-.39-.03h-.28c-.19 0-.37-.01-.53 0-.31.03-.47.14-.47.23.04.16.41.45 1.42.86.23.11.39.16.72.32.32.15.69.28 1.07.38.75.21 1.62.29 2.18.6.34.16.74.4 1.26.65.54.26 1.18.38 1.7.54.02 0 .04.02.06.04l.03.03.23.16c.37.24.82.39 1.19.47.74.14 1.3.16 1.52.27 1.09.37 2.36.9 3.74 1.21.62.15 1.35.31 1.74.46.24.09.59.26 1.09.41.54.15 1.07.14 1.26.16.13.01.12.01.22.04l.44.15c.18.06.4.13.64.19.12.03.25.05.38.07l.27.03c.34.04.63.07.87.12.12.02.23.05.34.08.23.07.49.13.71.15.95.1 1.42 0 1.82.11.51.09 1.17.31 1.99.37h.46a6.94 6.94 0 0 1 1.05.19c.28.06.58.14.91.19.34.06.73.08 1.03.07.62-.02 1.05-.08 1.37-.04.08 0 .16.02.23.03l.38.09c.28.06.54.1.78.13.5.05.84.07 1.26.14.42.05.84.1 1.24.1.4.01.77-.02 1.1-.06.28-.03.54-.06.77-.08.22-.05.48-.04.72-.07.24-.04.43-.11.55-.18.25-.13.37-.25.36-.35Z"/></svg>