<svg id="Illustration" xmlns="http://www.w3.org/2000/svg" viewBox="0 0 200 168.17"><defs><style>.cls-2{fill:#fff}.cls-5{fill:#5b3d5b}</style></defs><path class="cls-5" d="M192.03 31.77 19.84 13.82c-1.93-.2-3.82.38-5.34 1.62-1.59 1.3-2.57 3.17-2.77 5.25L8.71 52.47c-.4 4.19 2.57 7.95 6.63 8.37l172.19 17.95c.25.03.5.04.75.04 1.66 0 3.27-.58 4.59-1.65 1.59-1.3 2.57-3.17 2.78-5.25l3.01-31.78c.4-4.19-2.57-7.95-6.63-8.37Z"/><path d="M185.95 20.75 13.76 2.8c-1.93-.19-3.82.38-5.34 1.62-1.59 1.3-2.57 3.17-2.78 5.25L2.63 41.45c-.4 4.19 2.57 7.95 6.63 8.37l172.19 17.95c.25.03.5.04.75.04 1.66 0 3.27-.58 4.59-1.65 1.59-1.3 2.57-3.17 2.78-5.25l3.01-31.78c.4-4.19-2.57-7.95-6.63-8.36Z" style="fill:#fcb9c4"/><path class="cls-5" d="M190.13 117.47 17.94 99.52c-1.93-.2-3.82.38-5.34 1.62-1.59 1.3-2.57 3.17-2.78 5.25l-3.01 31.78c-.4 4.19 2.57 7.95 6.63 8.37l172.19 17.95c.25.03.5.04.74.04 1.67 0 3.27-.58 4.59-1.66 1.59-1.3 2.57-3.17 2.78-5.25l3.01-31.78c.4-4.19-2.57-7.95-6.63-8.37Z"/><path d="M182.91 107.91 10.72 89.96c-3.5-.37-6.63 2.32-6.98 5.99L.72 127.73c-.35 3.67 2.22 6.95 5.72 7.31l172.19 17.95c.21.02.42.04.64.04 3.23 0 6.02-2.58 6.34-6.02l3.02-31.78c.35-3.67-2.22-6.95-5.72-7.31Z" style="fill:#f45e28"/><path class="cls-2" d="M41.96 114.37c-.11-2.95-1.22-5.75-2.46-8.41-.86-1.83-1.91-3.72-3.31-5.11-3.6-3.86-8.8-4.23-13.77-2.82-2.33.66-4.47 1.92-6.45 3.38-1.68 1.25-3.28 2.69-4.45 4.47-2.5 3.8-2.77 8.95-1.2 13.26 1.57 4.31 4.83 7.81 8.65 10.12 1.36.82 2.82 1.51 4.37 1.74 1.73.25 3.5-.09 5.18-.6 3.52-1.06 6.88-2.89 9.41-5.66 2.53-2.77 4.16-6.54 4.03-10.37ZM44.48 28.7c-.06-3.84-.86-7.72-2.75-11-1.89-3.28-4.93-5.92-8.5-6.79-2.75-.67-5.62-.28-8.39.29-1.91.39-3.94.96-5.57 2-4.49 2.63-6.2 7.79-6.21 13.19 0 2.53.59 5.03 1.43 7.4.71 2.03 1.62 4.02 2.96 5.68 2.85 3.52 7.52 5.15 11.9 4.68 4.39-.46 8.46-2.84 11.59-6.09 1.11-1.15 2.13-2.45 2.75-3.96.69-1.68.83-3.56.8-5.39ZM151.59 36.82c-.26-.38-1.81.31-4.59 1.13-2.76.82-6.92 1.62-11.89 1.01-2.47-.29-5.11-1.03-7.69-2.25-2.55-1.16-5.05-3.27-8.53-5.2-1.73-.93-3.82-1.85-6.27-2.05-2.45-.27-5.03.41-7.09 1.44-2.08 1.04-3.81 2.35-5.41 3.55-.8.6-1.58 1.18-2.34 1.71l-.57.38-.5.3c-.34.18-.69.37-1.07.52-1.47.64-3.12.92-4.39.77-1.33-.17-1.87-.61-2.25-1.4-.39-.75-.35-2.26-.12-4.11.18-1.81.54-4.15-.35-6.71a8.179 8.179 0 0 0-2.19-3.3c-.96-.88-2.05-1.46-3.13-1.83-2.17-.75-4.31-.75-6.28-.32-.98.21-1.95.59-2.8 1.03-.83.43-1.56.94-2.24 1.47-1.35 1.07-2.41 2.24-3.32 3.37-1.8 2.27-3.04 4.4-4.22 6.09-1.17 1.71-2.25 3.06-3.25 4.06-1.98 2-3.53 2.64-3.41 3.09.05.36 2.02.51 4.87-1.21 1.4-.85 2.92-2.15 4.45-3.79 1.54-1.64 3.04-3.58 4.8-5.38.88-.89 1.83-1.74 2.86-2.42.52-.33 1.05-.65 1.61-.88.53-.21 1.04-.38 1.62-.46 1.14-.17 2.41-.05 3.42.38 1.05.43 1.64 1.09 1.88 1.92.29.87.17 2.3-.11 4.16-.13.93-.28 1.97-.3 3.17-.02 1.19.12 2.61.7 4.01.58 1.38 1.58 2.69 2.89 3.58 1.3.9 2.75 1.33 4.1 1.5 2.73.32 5.22-.2 7.54-1.17.58-.24 1.15-.53 1.7-.83l.82-.5.7-.47c.91-.64 1.75-1.28 2.55-1.89 1.59-1.22 3.04-2.32 4.43-3.05 1.4-.71 2.65-1.06 3.95-.96 1.3.05 2.7.54 4.13 1.24 2.85 1.38 5.74 3.55 9.09 4.84 3.27 1.28 6.49 1.87 9.41 1.91 5.87.11 10.41-1.54 13.14-3.13 2.76-1.61 3.88-3.01 3.66-3.32ZM154.48 127.06c-.26-.38-1.78.35-4.52 1.16-2.73.77-6.84 1.56-11.67.69-2.4-.4-4.93-1.29-7.32-2.7-2.44-1.47-4.95-3.61-8.06-5.72-1.57-1.04-3.33-2.09-5.45-2.83-2.1-.74-4.67-1.06-7.14-.51-2.5.54-4.6 1.8-6.34 3.02-1.74 1.22-3.32 2.55-4.71 3.37-1.45.86-2.99 1.43-4.17 1.44-1.17 0-1.95-.35-2.76-1.28-.82-.94-1.51-2.52-2.29-4.24-.78-1.7-1.69-3.7-3.31-5.41-1.57-1.7-3.57-2.8-5.52-3.4-1.97-.61-3.92-.77-5.74-.66-3.64.22-6.91 1.57-9.33 3.31-2.41 1.73-4.17 3.67-5.52 5.44a36.42 36.42 0 0 0-3.05 4.74c-1.44 2.7-1.98 4.3-1.63 4.53.36.24 1.59-.95 3.58-3.16 2.01-2.14 4.78-5.49 8.95-7.91 2.05-1.17 4.49-1.9 7.15-1.88 2.61.02 5.36.88 6.94 2.79.8.9 1.43 2.26 2.12 3.94.71 1.65 1.39 3.66 3.02 5.72.81 1.02 1.93 1.99 3.25 2.63 1.33.65 2.83.94 4.22.92 2.82-.06 5.15-1.08 7.2-2.27 2.11-1.28 3.6-2.6 5.11-3.67 1.48-1.08 2.84-1.84 4.12-2.14 2.56-.68 5.43.51 8.26 2.24 2.83 1.72 5.57 3.83 8.65 5.41 3.15 1.58 6.34 2.36 9.25 2.55 5.86.42 10.41-1.25 13.13-2.8 2.74-1.62 3.81-3.05 3.58-3.35Z"/><path d="M46.1 20.17c-.27-.79-2.27-.95-5.31-.44-1.52.27-3.31.68-5.29 1.39-1.96.7-4.23 1.78-6.25 3.32a32.59 32.59 0 0 0-3.02 2.58c-.17.15-.09.1-.11.12v.03l-.01.08c-.02.06-.04.15-.09.25-.05.04-.13.05-.23.04-.05 0-.11-.02-.18-.04-.04-.02-.05 0-.13-.06l-.31-.31c-.82-.8-1.59-1.47-2.27-1.99-1.36-1.04-2.38-1.47-2.86-1.11-.49.36-.37 1.46.22 3.06.3.8.71 1.73 1.24 2.75l.2.39c.13.22.27.43.4.65.3.47.6.95.92 1.45.68 1.03 1.39 2.11 2.13 3.23.79-.63 1.6-1.29 2.44-1.96.83-.68 1.68-1.38 2.55-2.1.93-.74 1.85-1.48 2.78-2.18 1.61-1.24 3.24-2.16 4.88-3.07 1.64-.89 3.19-1.7 4.48-2.47 2.59-1.52 4.11-2.81 3.84-3.62Z" style="fill:#70486d"/></svg>