<svg id="Illustration" xmlns="http://www.w3.org/2000/svg" viewBox="0 0 200 200"><defs><style>.cls-1{fill:none}.cls-2{fill:#f96800}.cls-3{fill:#e4c7bd}.cls-4{fill:#fff}.cls-6{fill:#ff8000}.cls-7{fill:#a0b4b5}.cls-11{fill:#5b3d5b}</style></defs><path class="cls-3" d="m179.33 84.79.29-3.08s4.11-.97 5.2-1.65 1.65.07 1.06 1.35c-.59 1.28-2.05 4.2-2.05 4.2l-4.5-.83ZM98.31 62.36c.44-.1-.92-15.92-.92-15.92s4.8-.74 6.2-2.21 3.08-4.19 3.04-5.88c-.04-1.7 0-6.48 0-6.48l24.56-3.25s.94 10.08 0 13.08-.27 3.25-2.21 6.87-4.15 5.95-4.15 5.95l-2.91 2.88.15 5.62-19.64-.89s-5.17.47-4.13.24ZM185.03 58.27c-.85 0-1.43.41-3.65 1.17-2.22.76-1.81 1.36-4.54 1.57-2.73.21-2.04-.93-4.12.56-2.08 1.49-2.57 2.15-1.06 3.18 1.51 1.03 2.48 1.07 3.83 1.82s2.99-.12.82.8c-2.17.92-4.86.8-5.87 1.49-1.01.69-2.29.95-2.48 2.22-.19 1.27 1.03 1.39 2.48 2.41 1.45 1.01.99 1.68 1.82 1.69s.67 1.03-1.01 1.01c-1.68-.02-.69.7-2.18 1.56-1.49.86-2.47.79-1.11 2.03 1.36 1.24 3.68.94 7.14 1.43 3.46.5 5.26.06 7.92-1.43s4.3-1.21 4.12-3.2c-.18-1.99.38-1.95-1.05-3.09-1.43-1.14-2.25-.14-.12-2.41 2.13-2.26 3.13-2.64 2.47-3.89-.66-1.25-1.16-.24-2.16-1.79-.99-1.56-.23-.93.11-2.93s.85-2.41-.27-3.3l-1.11-.89h.01Z"/><path class="cls-6" d="M31.18 125.94c-.17 2.56.54 5.23 1.98 7.37.52.78 1.61 1.19 2.46.64.78-.5 1.21-1.63.64-2.46-.21-.32-.41-.65-.59-.99-.09-.16-.16-.33-.24-.49-.11-.26-.02-.07.03.08-.04-.1-.09-.21-.12-.31-.27-.72-.45-1.47-.56-2.23l.06.48c-.09-.69-.11-1.38-.06-2.08.06-.94-.87-1.84-1.8-1.8-1.03.04-1.73.79-1.8 1.8ZM158.26 91.72c-2.85 9.79-6.06 19.41-9.67 28.95-.34.91.39 1.98 1.26 2.21 1.01.28 1.87-.34 2.21-1.26 3.6-9.54 6.82-19.16 9.67-28.95.65-2.23-2.83-3.18-3.47-.96ZM67.57 124.29l-3.41 5.72c-.49.81-.21 2.01.64 2.46.85.45 1.95.22 2.46-.64l3.41-5.72c.49-.81.21-2.01-.64-2.46-.85-.45-1.95-.22-2.46.64Z"/><path class="cls-6" d="m190.46 85.92-11.13-1.37c-.94-.11-1.84.91-1.8 1.8.03.6.28 1.05.67 1.35l-.89 3.77-17.37.83-4.17-.02v-3.22c.35 0 .68-.07.94-.24.89-.57 1.06-1.54.64-2.46-1.08-2.37-2.25-4.71-3.49-7.01-.08-.3-.23-.59-.44-.84-3.02-3.42-6.62-6.27-10.71-8.32-3.65-1.82-7.63-3.12-11.59-4.31l.39-4.87c.08-.94-.89-1.84-1.8-1.8-.37.02-.69.13-.95.3-11.71 2.48-24.19 2.49-35.65-1.21-.94-.3-1.65.15-1.99.83-.12.11-.23.23-.31.38-.24.45-.27.89-.18 1.38l.63 3.61c-4.02.76-7.9 1.96-11.64 3.66-4.23 1.93-8.01 4.4-11.7 7.1-.1.07-.19.15-.28.24-.02.02-.05.03-.08.05-8.42 6.73-15.87 14.79-21.84 23.78a86.16 86.16 0 0 0-3.5 5.74c-3.18 4.91-6.15 9.94-9.05 15.01-1.94 3.39-3.82 7.92-.04 10.84.37.29.83.46 1.3.53l.26.96h-.01l2.43 1.51 16.32-1.51 18.06-.64 4.78 48.62c-.88.02-1.61.98-1.61 1.8 0 1.08.84 1.67 1.8 1.8 17.96 2.41 36.38 2.3 54.32-.21 4.88-.69 9.73-1.58 14.52-2.75.73-.18 1.11-.66 1.23-1.21.05-.16.09-.33.09-.53.27-10.09.36-20.2.23-30.3 3.03 3.39 7.01 5.98 11.42 7.07 2.95.74 6.01.53 8.69-.97 2.24-1.26 3.98-3.28 5.32-5.44 1.38-2.21 2.39-4.65 3.26-7.1 1.15-3.23 2.16-6.52 3.21-9.79a1069.652 1069.652 0 0 0 13.1-43.94c.26-.33.42-.73.4-1.11-.05-1.07-.79-1.68-1.8-1.8ZM55.09 110.97c.1 1.66-1.41 3.67-2.46 4.83-1.05 1.15-2.23 2.41-2.64 3.78-.41 1.37-1.83 2.67-3.57 3.88-.25.17-.49.29-.73.38-.23-.56-.67-1.02-1.2-1.27l-.27-3.9c-.07-1.01-.71-1.68-1.48-1.96.43-1.27.74-2.27.79-2.57.14-.85-.16-1.58-.65-2.06.81-1.33 1.64-2.65 2.48-3.96 1.29-.22 1.72.41 3.32.21 1.67-.19.19 1.13 2.43-.19 2.25-1.32 2.16-.92 3.97-1.33 1.81-.41-.1 2.52 0 4.18Z"/><path class="cls-6" d="M111.68 64.76c1.2 15.27 2.04 30.58 2.51 45.89.47 15.31.58 30.64.31 45.96a972.3 972.3 0 0 1-.79 25.9c-.1 2.32 3.5 2.31 3.6 0 .67-15.3.99-30.63.92-45.95a977.58 977.58 0 0 0-1.27-45.94c-.44-8.62-1.01-17.24-1.68-25.85-.08-.97-.77-1.8-1.8-1.8-.91 0-1.88.83-1.8 1.8Z"/><path class="cls-11" d="M109.34 56.95c4.71 2.85 10.54 3.03 15.2 0 3.11-2.03 5.05-4.93 6.36-8.36 1.03-2.71 1.68-5.55 2.29-8.39.49-2.26-2.98-3.23-3.47-.96-.84 3.92-1.67 8.04-3.75 11.33-.19.31-.39.6-.61.89-.12.16.01-.02.04-.04-.05.06-.1.13-.15.19l-.36.42c-.23.25-.47.49-.73.72-.11.11-.24.21-.36.31-.08.06-.45.36-.19.16-1.46 1.11-3.11 2-4.95 2.28-2.6.39-5.26-.33-7.48-1.67-1.99-1.2-3.8 1.91-1.82 3.11h-.01ZM95.58 46.44c.06 6.9.49 13.89 1.52 20.72.14.96 1.36 1.49 2.21 1.26 1.03-.29 1.41-1.25 1.26-2.21-.96-6.38-1.34-13.2-1.39-19.76-.02-2.31-3.62-2.32-3.6 0Z"/><path class="cls-11" d="M133.18 40.21c.74-3.73.66-7.54-.26-11.22-.23-.91-1.31-1.55-2.21-1.26-.91.29-1.51 1.23-1.26 2.21.2.8.36 1.6.48 2.41-.04-.3.02.22.03.28l.06.66c.04.41.06.83.06 1.24.02.84 0 1.67-.07 2.5-.01.19-.04.39-.06.58 0 0-.07.58-.03.29-.06.45-.14.89-.23 1.33-.19.92.26 1.98 1.26 2.21.89.2 2.02-.27 2.21-1.26ZM120.13 56.34c.12 1.53.12 3.07.14 4.6.01 1.67.03 3.35-.02 5.02-.03.94.85 1.84 1.8 1.8.95-.04 1.77-.79 1.8-1.8.05-1.67.04-3.34.02-5.02-.01-1.53-.01-3.07-.14-4.6-.07-.94-.78-1.85-1.8-1.8-.91.04-1.88.79-1.8 1.8Z"/><path d="M183.7 50.11c-.32-.52-.89-.91-1.51-.85l-21.04 2.13c-.96.1-1.79.75-1.8 1.78 0 .04-.03.08-.04.12-1.45 10.25-2.91 20.5-4.35 30.75l-1.1 7.77c-.14.96.24 1.93 1.26 2.21.2.06.43.06.66.04h.02c7.21-.26 14.38-.73 21.53-1.61.06 0 .13-.02.2-.04.03 0 .05 0 .07-.01.03 0 .06-.01.09-.02.65-.14 1.26-.56 1.37-1.25v-.04c.04-.11.05-.22.06-.34.44-3.01.86-6.02 1.26-9.04.12-.94-.91-1.84-1.8-1.8-1.08.05-1.67.79-1.8 1.8v.1c-2.06.08-5.27.1-6.55-.49-1.96-.89-4.48-1.47-2.62-2.73 1.86-1.26 4.46-2.06 4.46-2.06s-1.55-1.92-2.91-3.05-1.88-1-1.18-2.41c.7-1.41 4.95-4.01 5.98-3.76 1.03.25-3.41-3.35-3.41-3.35s-.43-1.71 2.18-2.4c1.71-.45 4.9-1.23 6.89-1.71.17.76 1.01 1.41 1.77 1.38 1.07-.05 1.68-.79 1.8-1.8.33-2.71.66-5.41 1-8.11.06-.45-.15-.89-.48-1.21Z" style="fill:#70486d"/><path class="cls-11" d="M188.56 73.73c-.33-.56-.82-1-1.4-1.29 1.56-1.34 3.07-2.71 3.08-4.95 0-1.01-.36-2.02-1.1-2.72-.45-.42-.96-.67-1.53-.89.08-.09.14-.16.17-.21.33-.48.58-1.03.7-1.59.25-1.2.07-2.48-.59-3.52-1.33-2.13-4.48-2.73-6.51-1.23-.2.15-.37.32-.51.51-1.82.29-3.64.52-5.46.85-2.09.37-4.26.65-5.7 2.27-.67.76-1.22 1.67-1.39 2.68-.15.91.07 1.85.53 2.66-.37.12-.72.26-1.03.46-1.38.88-2.21 2.61-2.36 4.2-.15 1.59.86 3.09 2.05 4.01.11.08.23.16.34.23-.21.13-.42.27-.62.44-1.43 1.22-1.86 3.32-.97 4.99.94 1.76 2.81 2.38 4.65 2.65 1.95.28 3.9.34 5.85.1 1.96-.24 3.95-.69 5.83-1.45.43-.17.87-.36 1.31-.55-.18.39-.37.78-.56 1.16-1.09 2.17-2.16 4.33-2.73 6.71-.23.94.3 1.95 1.26 2.21s1.98-.31 2.21-1.26c.16-.64.34-1.28.56-1.91.23-.66.32-.89.56-1.41.46-1.01.99-2 1.48-3 1.17-2.37 1.96-4.75 2.31-7.36.02-.09.03-.19.04-.28v-.05c.1-.83-.03-1.68-.49-2.46Zm-2.98 1.94s-.06-.02-.1-.04h.11c0 .01 0 .02-.01.03Zm-.12-.07v.01-.01Zm1.53-11.96v.03c-.28-.1-.01-.08 0-.03Zm-15.09.89s-.05-.03-.06-.03c.02 0 .04.01.06.03Zm-2.84 6.8s-.01-.03-.01-.06v.06Zm-.02-.07v.01Zm.02-.19s0-.01 0 0Zm4.1 8.84c-.96-.05-2.03-.1-2.96-.42-.46-.16-.94-.47-.84-.87.02-.09.12-.19.24-.3.11-.11.46-.26.48-.27.99-.39 1.98-.89 3-1.18.93-.26 1.3-1.01 1.26-1.75.03-.12.04-.25.04-.37-.05-1.05-.79-1.71-1.8-1.8h.03c-.14-.03-.64.01-.16-.03-.13.01-.29-.05-.41-.07-.36-.07-.72-.16-1.08-.26-.18-.05-.35-.11-.53-.16-.08-.02-.59-.24-.53-.19a.913.913 0 0 1-.13-.08 2.5 2.5 0 0 1-.23-.18c-.07-.07-.41-.55-.19-.19-.08-.12-.16-.24-.22-.36-.02-.03-.03-.06-.05-.09a.737.737 0 0 1-.04-.14v-.05c.03-.15.08-.3.12-.45l.1-.24c.09-.16.19-.3.27-.45.03-.04.07-.08.1-.11.02-.02.05-.04.07-.07.01 0 .02 0 .03-.01.23-.08.46-.15.69-.22.86-.26 1.75-.44 2.64-.59.05 0 .44-.06.45-.06l.51-.06c.44-.05.88-.09 1.32-.13l2.58-.21c.94-.08 1.85-.77 1.8-1.8-.04-.91-.79-1.88-1.8-1.8-1.16.1-2.31.18-3.46.3-.09-.02-.19-.04-.29-.04-.5-.04-.49-.03-.9-.11-.15-.03-.3-.06-.45-.11-.04 0-.25-.08-.35-.11a9.59 9.59 0 0 1-.26-.12c-.03-.02-.12-.09-.21-.15-.03-.06-.07-.12-.1-.17-.01-.02-.02-.03-.03-.04 0-.01 0-.02-.01-.04-.01-.04-.02-.08-.02-.11 0-.06.02-.11.02-.14.02-.06.02-.09.03-.11.01-.01.04-.04.08-.11.28-.42.47-.69.94-.95.04-.01.15-.06.22-.08.21-.06.44-.11.66-.17.4-.1.81-.19 1.21-.28.81-.17 1.63-.31 2.46-.44 1.72-.27 3.45-.49 5.17-.79.55-.09.95-.52 1.16-1.03.63-.13 1.25.18 1.18.96-.06.66-.7.94-1.06 1.47-.64.96-.62 2.15.03 3.1.57.84 1.48 1.27 2.42 1.57.1.03.18.08.22.11.01.04.02.08.01.12-.05.22 0 .2-.09.42-.24.66-.92 1.15-1.47 1.61-.76.64-1.66 1.29-2.14 2.19-1.05 1.94.44 3.91 2.52 3.93-.02.12 0 .31.01.28-.26.65-1 1.06-1.58 1.4-3.23 1.91-6.97 2.78-10.71 2.6Z"/><g id="Layer_5"><path class="cls-6" d="M139.31 27.13v-.09c-1.11-5.67-2.46-11.71-5.91-16.47-3.3-4.58-8.32-7.8-13.9-8.79-5.57-.99-11.46.14-16.52 2.58-4.74 2.29-8.84 6.29-11.76 10.61-3.2 4.72-4.75 10.24-5.22 15.87-.04.15-.06.31-.06.48-.05 5.53.24 12.4 5.74 15.37 2.68 1.44 5.82 1.69 8.69.67 2.84-1.01 4.75-3.12 5.62-5.97.92-2.98.96-6.08.67-9.16 10.29-.95 20.59-1.91 30.87-2.86.02 0 .05 0 .07-.01.14 0 .29-.01.42-.06.44-.12.76-.37.98-.69.23-.29.37-.66.37-1.08 0-.14-.02-.27-.06-.41Zm-42.48 8.52c-.06.11-.11.21-.19.32-.07.09-.16.16-.24.24-.05.04-.11.06-.16.09-.04.01-.09.03-.13.04H96l-.23-.06-.15-.09c-.05-.04-.09-.09-.14-.14l-.06-.09c0-.01 0-.04-.01-.05v-.04c.03-.14.06-.28.11-.41.06-.12.13-.24.2-.36.09-.11.2-.21.31-.31.07-.04.14-.09.22-.13.03 0 .06-.01.09-.02h.08c.16-.01.31 0 .47 0h.03c.01.04.02.09.04.14v.36c-.04.17-.08.34-.14.5h.01Z"/><path class="cls-11" d="M99.95 35.41c-.05-.11-.11-.21-.18-.3-.18-.25-.36-.51-.59-.73-.22-.21-.48-.4-.74-.58-.1-.07-.21-.13-.32-.18-.64-.29-1.15-.45-1.86-.47-.44-.01-.91.05-1.33.2-.69.24-1.16.51-1.7 1-.46.41-.86 1.01-.99 1.61-.12.56-.12 1.01 0 1.56 0 .01 0 .03.01.04.02.21.05.42.1.64.08.3.21.59.35.86.14.28.36.53.56.76.07.08.14.16.22.22.24.2.49.41.76.56.27.15.57.27.86.37.31.11.65.12.96.16.11.01.23.01.34 0 .31-.03.66-.06.97-.16.29-.09.58-.21.84-.36.29-.14.53-.36.77-.56.09-.07.18-.15.26-.24.21-.24.41-.49.59-.76.06-.1.11-.2.16-.31.13-.29.28-.59.35-.9.21-.89-.04-1.68-.41-2.46Z"/></g><path class="cls-2" d="m83.01 85.06.03-.06c.25-.6.5-1.19.75-1.79v-.03l.03-.06v-.03l.27-1.99v-.13l-.27-1.99v-.05c0-.02-.01-.04-.02-.06-.03-.09-.72-1.73-.77-1.81-.01-.02-.02-.04-.03-.05a90.01 90.01 0 0 0-1.19-1.54c-.02-.02-.04-.04-.06-.05a5.694 5.694 0 0 0-2.41-1.55c-.89-.47-1.85-.68-2.88-.64-1.03-.04-1.99.18-2.88.64-.07.02-.14.07-.21.1-1.08.37-2.04.95-2.86 1.77-.39.5-.78 1.01-1.17 1.51a7.36 7.36 0 0 0-1.02 3.77v.07l.27 1.99v.03c0 .02.02.04.02.07.25.6.5 1.19.75 1.79 0 .01.01.02.02.03.37.57.75 1.15 1.25 1.61.2.19.5.4.69.54-.06-.03.69.57.91.69l.06.03c.11.06 1.7.74 1.82.77.02 0 .05.01.07.02.1.02 1.92.27 2.02.27h.07c.09 0 1.93-.25 2.02-.27.34-.09.44-.18.94-.39.2-.08.65-.25.95-.41 0 0 .02-.01.03-.02.5-.39 1.01-.78 1.51-1.17.02-.01.03-.03.05-.04 0 0 .01-.02.02-.02l1.17-1.51s.02-.03.04-.05ZM97.15 107.12c.04-1.03-.18-1.99-.64-2.88-.3-.93-.82-1.73-1.55-2.41-.5-.39-1.01-.78-1.51-1.17a7.36 7.36 0 0 0-3.77-1.02l-1.99.27c-1.27.36-2.37 1-3.3 1.92l-.33.33c-.73.68-1.24 1.48-1.55 2.41-.47.89-.68 1.85-.64 2.88-.04 1.03.18 1.99.64 2.88.3.93.82 1.73 1.55 2.41.5.39 1.01.78 1.51 1.17a7.36 7.36 0 0 0 3.77 1.02l1.99-.27c1.27-.36 2.37-1 3.3-1.92l.33-.33c.73-.68 1.24-1.48 1.55-2.41.47-.89.68-1.85.64-2.88ZM131.51 145.73c.04-1.03-.18-1.99-.64-2.88-.3-.93-.82-1.73-1.55-2.41-.5-.39-1.01-.78-1.51-1.17a7.36 7.36 0 0 0-3.77-1.02l-1.99.27c-1.27.36-2.37 1-3.3 1.92l-.33.33c-.73.68-1.24 1.48-1.55 2.41-.47.89-.68 1.85-.64 2.88-.04 1.03.18 1.99.64 2.88.3.93.82 1.73 1.55 2.41.5.39 1.01.78 1.51 1.17a7.36 7.36 0 0 0 3.77 1.02l1.99-.27c1.27-.36 2.37-1 3.3-1.92l.33-.33c.73-.68 1.24-1.48 1.55-2.41.47-.89.68-1.85.64-2.88ZM109.49 74.52s-.07-.03-.11-.04c-.37-.12-1.7-.23-2.25-.28-.72-.02-1.49.11-2.14.26-1.35.3-2.83 1.14-3.8 2.14-.26.27-.4.49-.68.86-.29.38-.46.55-.66.87-.77 1.3-1.01 2.53-1.08 4.03-.03.76.08 1.48.33 2.17.17.7.43 1.37.8 2.02.37.57.75 1.15 1.24 1.61.03.03.06.06.09.08.5.39 1.01.78 1.51 1.17.03.02.07.04.1.06l1.79.75c.06.02.11.04.17.05 2.12.62 4.39.19 6.3-.82.06-.03.11-.06.17-.09.27-.19.54-.39.79-.6-.24-4.5-.51-8.99-.82-13.49l-1.77-.75ZM122.95 103.45c-1.13-1.08-2.34-1.76-3.84-2.19-.41-.12-.82-.19-1.23-.24.13 5.75.22 11.5.25 17.24 1.33.02 2.67-.26 3.8-.99 1.61-1.04 2.98-2.56 3.44-4.47.42-1.75.54-3.78-.09-5.51-.56-1.53-1.12-2.7-2.32-3.85ZM110.77 103.59c-1.08 1.03-1.76 2.37-2.18 3.78-.39 1.3-.34 2.86 0 4.17.18.72.52 1.4.85 2.07a5.65 5.65 0 0 0 1.93 2.1c.72.66 1.57 1.11 2.54 1.34.1.03.21.05.31.08.1.07.21.12.32.19-.03-5.29-.11-10.58-.23-15.87a9.6 9.6 0 0 0-3.53 2.15Z"/><path d="M113.2 118.55c.12 5.29.2 10.58.23 15.87.5.32 1.03.58 1.63.73.64.14 1.3.22 1.96.23-.03-5.75-.12-11.5-.25-17.24-1.22-.14-2.43.03-3.57.42Z" style="fill:#ffcf4e"/><path class="cls-2" d="M143.29 114.5c-1.39.42-2.53 1.03-3.57 2.06-1.07 1.07-1.76 2.4-2.08 3.84-.09.23-.2.45-.26.7l-.27 1.99c0 1.35.34 2.61 1.02 3.77.39.5.78 1.01 1.17 1.51.93.93 2.03 1.57 3.3 1.92.65.19 2.18.32 2.23.32.43.01.77-.07 1.24-.13.37-.05.84-.08 1.24-.19.7-.2 1.36-.53 2.01-.86a5.65 5.65 0 0 0 2.1-1.93c.66-.72 1.11-1.57 1.34-2.54.16-.72.28-1.71.32-2.27.07-.84-.14-1.84-.27-2.57-.77-4.18-5.51-6.83-9.52-5.64ZM157.45 108.87c.93.93 2.03 1.57 3.3 1.92.65.19 2.18.32 2.23.32.43.01.77-.07 1.24-.13.37-.05.84-.08 1.24-.19.7-.2 1.36-.53 2.01-.86a5.65 5.65 0 0 0 2.1-1.93c.66-.72 1.11-1.57 1.34-2.54.16-.72.28-1.71.32-2.27.07-.84-.14-1.84-.27-2.57-.77-4.18-5.51-6.83-9.52-5.64-.18.05-.34.12-.51.18a380.47 380.47 0 0 1-4.2 12.76c.24.31.48.63.72.94ZM144.89 71.4c-1.03-.04-1.99.18-2.88.64-.93.3-1.73.82-2.41 1.55-.73.68-1.24 1.48-1.55 2.41-.47.89-.68 1.85-.64 2.88l.09.69c-.03.27-.04.54-.03.82-.04 1.03.18 1.99.64 2.88.3.93.82 1.73 1.55 2.41.5.39 1.01.78 1.51 1.17a7.36 7.36 0 0 0 3.77 1.02l1.99-.27c1.27-.36 2.37-1 3.3-1.92.38-.47.89-1.08 1.23-1.59.03-.05.06-.09.09-.14.36-.64.63-1.35.87-2.04.28-.82.38-1.72.37-2.57v-.06c-.08-.63-.17-1.25-.25-1.88-2.21-2.32-4.7-4.34-7.44-5.98-.03 0-.06 0-.1-.01h-.12ZM179.19 124.67l-1.99-.27h-.19l-1.99.27c-.06 0-.12.02-.18.04-.33.13-.66.26-.98.41-.34.12-.66.26-.98.42-1.95 1.21-3.29 2.93-3.98 5.11-.06.21-.11.42-.16.63-.03.12-.08.23-.1.35l-.27 1.99c0 1.35.34 2.61 1.02 3.77.96 1.32 1.56 2.17 3 3 .37.21.67.31 1.11.5.39.16.74.34 1.13.46.38.11.78.19 1.19.25 1.05-3.01 2-6.05 2.97-9.08.76-2.36 1.5-4.73 2.24-7.09-.51-.27-1.04-.5-1.59-.68-.09-.03-.17-.05-.26-.07ZM160.17 151.53c.4-2.11.33-3.99-.51-5.98-.79-1.87-2.13-3.55-3.98-4.48-2.24-1.13-4.61-1.45-7.07-.82-2.2.56-4.28 2.23-5.34 4.22-1.3 2.43-1.45 5.19-.38 7.72.49 1.17.8 1.88 1.82 2.86.21.2.41.35.61.52.42.64.93 1.23 1.54 1.7 0-2.74.01-5.48-.02-8.22 2.92 3.27 6.73 5.77 10.95 6.92.96-1.02 1.31-1.67 1.82-2.88.23-.55.46-.99.56-1.56ZM111.12 162.13c-1.17-1.37-3.05-2.4-4.79-2.84-2.57-.65-5.19-.25-7.51 1.01-1.62.88-2.95 2.71-3.44 4.47-.23.83-.29 1.8-.2 2.75-.22 1.7-.02 3.38.66 4.99 1.05 2.48 3.09 4.63 5.8 5.29 2.54.62 5.14.34 7.38-1.07 1.7-1.07 3.05-2.65 3.85-4.48.08-2.25.14-4.51.2-6.76-.44-1.21-1.1-2.34-1.97-3.36ZM144.45 168.92c-.9-.95-2.51-1.87-3.78-2.14-3.05-.66-5.84.18-8.13 2.23-.69.62-1.19 1.4-1.69 2.17-.14.17-.31.32-.43.51-.66.72-1.11 1.57-1.34 2.54-.49 1.79-.27 4.17.75 5.76.47.73 1.05 1.42 1.72 1.99.39.55.86 1.04 1.38 1.49 4.14-.64 8.25-1.42 12.32-2.41.73-.18 1.12-.67 1.23-1.22.05-.16.08-.33.09-.51.06-2.12.07-4.25.11-6.37-.11-.39-.25-.78-.41-1.17-.47-1.1-.97-1.96-1.83-2.86ZM98.44 141.23c-.01-.05-.04-.1-.05-.16-.13-.44-.56-1.47-.79-1.86-.15-.25-.51-.73-.82-1.12-.3-.62-.68-1.19-1.2-1.68-1.42-1.31-3.3-2.28-5.29-2.19-1.99.09-3.84.77-5.29 2.19-.55.54-1.04 1.21-1.46 1.84-.07.1-.13.2-.19.31-.27.52-.62 1.36-.81 1.92-.03.09-.06.18-.08.27-.12.52-.27 1.59-.29 2.13-.02.82.1 1.66.32 2.45.01.04.03.07.05.11.25.6.5 1.19.75 1.79.04.07.08.13.13.2.31.48.84 1.2 1.25 1.6.26.24.55.46.84.66.26.22.53.42.8.62.07.04.13.08.2.11.39.21 1.47.67 1.89.79.35.1.92.14 1.16.17.68.09.76.15 1.21.12.56-.03 1.56-.14 2.09-.3.6-.25 1.19-.5 1.79-.75.03-.02.07-.03.1-.05.39-.23 1.26-.9 1.58-1.22.33-.32.98-1.18 1.23-1.57.21-.35.23-.48.47-1.03.08-.18.33-.68.42-1.01.08-.31.28-1.75.28-2.07v-.17c0-.42-.18-1.71-.29-2.11Z"/><g id="Layer_7"><path class="cls-3" d="M49.7 117.29c-.29.41-1.82 2.89-3.43 1.51-1.61-1.38-4.12-3.69-4.78-6.17-.66-2.48-1.58-3.98-.73-6.3.86-2.33 4.29-5.05 4.29-5.05l3.75.13s.64-1.46 3.3-1.33c2.67.12 5.08 1.11 5.08 1.11h4.33c2.14 0 2.41.72 4.58-.19 2.16-.91 3.97-1.16 3.97.84s.74 3.89-1.25 5.78c-1.98 1.9-.68.18-1.98 1.9-1.31 1.71-1.68 3.26-2.57 4.24-.89.98-1.24 2.64-2.87 2.57-1.63-.07-1.51-.94-3.31 0s-2.01 1.18-3.15 1.2c-1.15.02-5.25-.23-5.25-.23Z"/><path class="cls-7" d="M43.15 126.77c-.02-.86 0-1.73.1-2.58 0-.09.12-.88.04-.35.03-.19.06-.36.09-.55a20.219 20.219 0 0 1 1.02-3.75c.06-.17.14-.34.2-.51q.06-.15 0 0c.05-.11.1-.23.15-.34.18-.39.37-.78.58-1.16.53-.99.29-2.38-.77-2.93-.99-.52-2.37-.29-2.93.77-1.86 3.5-2.83 7.43-2.75 11.39.02 1.12.97 2.19 2.14 2.14 1.17-.05 2.17-.94 2.14-2.14Z"/><path class="cls-11" d="M72.35 101.31c-.45-1.59-1.68-3.02-3.43-3.04-1.03-.01-1.93.54-2.78 1.03l-1.74 1.02c-.68-.53-1.5-.9-2.35-1.04-1.41-.23-2.74.1-3.97.71-1.3-1.53-3.42-2.29-5.41-2.09-1.62.17-3.01.91-4.1 1.99-2.08-.99-4.53-.27-6.27 1.32-1.91 1.74-2.78 4.4-2.75 6.94.06 4.43 2.43 10.84 7.29 11.96 1.41.32 2.91.19 4.08-.71.35-.27.64-.59.87-.95 2.24 1.4 5.4 1.19 7.17-.79.71.31 1.49.48 2.33.46 1.65-.04 3.3-.83 4.21-2.23.87-1.34.8-3.01.27-4.49.51.23 1.1.2 1.68-.06 2.43-1.04 4.26-3.4 4.88-5.95.32-1.31.39-2.78.01-4.08Zm-3.66.5a.078.078 0 0 0-.04-.04c.01 0 .03.02.05.05Zm-20.81 14.86c-.61-.09-1.23-.46-1.73-.94-1.33-1.26-2.08-2.99-2.56-4.73-.51-1.88-.76-4.05.19-5.85.36-.67.82-1.28 1.46-1.7.29-.18.9-.51 1.37-.51-1.03 2.72-.68 5.73.33 8.41.51 1.36 1.1 2.73 1.86 3.96-.27.38-.38.84-.23 1.35-.03.02-.06.03-.05.02 0 0-.56 0-.64-.01Zm1-.21v-.05c.01.01 0 .03 0 .05Zm7-.85c-.44.19-.73.2-1.21.15-.72-.09-1.58-.71-2.18-1.45-.76-.94-1.31-2.09-1.79-3.2-.53-1.21-.97-2.51-1.1-3.83-.2-1.98.36-4.38 2.21-5.45 1.2-.69 2.81-.44 3.62.63v.11c-1.58 2.75-1.99 6.15-1.09 9.19.38 1.27 1 2.55 1.83 3.62-.09.09-.19.17-.29.21Zm5.76-1.16a1.9 1.9 0 0 1-.97-.05c-.39-.12-.81-.39-1.13-.7-.74-.7-1.28-1.61-1.6-2.56-.82-2.42-.51-5.03.86-7.2.08-.12.13-.24.18-.35.66-.43 1.39-.79 2.17-.79.3 0 .67.1.97.3.16.11.38.37.37.6 0 .13 0 .15-.04.35-.06.29-.16.57-.26.85-.2.54-.44 1.06-.63 1.61a5.956 5.956 0 0 0 0 3.91c.31.92.99 2.11 1.06 2.91.06.69-.28.96-.98 1.14Zm7.27-10.2c-.06.26-.13.53-.21.79-.04.1-.17.66-.06.2-.03.12-.12.26-.18.36a5.448 5.448 0 0 1-.63.99l-.17.2c-.21.24-.44.45-.68.66-.03.02-.04.04-.05.05-.02.01-.03.02-.06.05-.13.09-.26.18-.39.26-.27.16-.56.31-.84.43-.35.15-.6.46-.74.82-.15-.58-.1-.93.12-1.59.45-1.32 1.07-2.54 1.03-3.92l1.74-1.02c.32-.19.64-.39.98-.57l.07.14c0 .03.02.06.03.12.04.14.07.29.11.44v.06c.02.31.04.63.01.94 0 .12 0 .29-.04.41.16-.46-.02.07-.05.19Z"/><path class="cls-7" d="M63.02 111.45c-.21-.09.06.04.11.07.13.08.26.15.39.23s.26.16.38.25c.58.4-.11-.1.2.16.47.4.9.84 1.29 1.31.72.85 1.46 2.05 2.02 3.2 1.06 2.2 1.56 4.76 1.49 7.28-.03 1.16 1.01 2.14 2.14 2.14s2.11-.98 2.14-2.14c.09-3.35-.69-6.67-2.18-9.66-1.5-2.98-3.73-5.65-6.85-6.97-1.06-.45-2.36.49-2.63 1.5-.34 1.23.43 2.18 1.5 2.63Z"/><path d="M36.17 194.9c-.29-1-1.33-1.42-2.36-1.25-1.79.31-3.6.55-5.41.74.18-.79.17-1.63.09-2.44-.25-2.22-.46-4.44-.61-6.67-.31-4.57-.4-9.15-.35-13.73.09-9.05.73-18.09 1.35-27.12l.99-14.22.66-.06c1.03-.09 1.91-.75 1.91-1.78 0-.89-.88-1.88-1.91-1.78-2.94.27-5.87.61-8.79.99-1.43.19-2.85.39-4.27.59-.71.11-1.52.21-2.18.49-.7.14-1.36.59-1.48 1.26-3.13 17.12-4.38 34.52-3.61 51.88.21 4.88.59 9.75 1.11 14.6.1.9.72 1.67 1.71 1.76.16.04.33.08.5.09 7.14.47 14.3.06 21.34-1.13 1.01-.17 1.59-1.32 1.33-2.19h-.01Z" style="fill:#b4cacc"/><path d="M95.79 190.13c0-.14-.02-.28-.05-.41v-.06c-2.15-17.27-3.78-34.6-5.84-51.88-.59-4.9-1.21-9.81-1.88-14.7-.06-.44-.32-.79-.66-1.02-.29-.36-.7-.59-1.14-.54-14.84 1.33-29.69 2.68-44.53 4.01-4.24.39-8.48.76-12.72 1.15-.4.04-.76.21-1.05.48-.57.22-1.04.76-1.08 1.63-.75 17.34-.79 34.73-.12 52.07.19 4.87.44 9.74.74 14.6.02.36.12.69.29.97.19.76.82 1.43 1.55 1.36l50.59-4.56 14.32-1.29s.05 0 .08-.01c.12 0 .24-.01.35-.05.39-.12.67-.36.86-.68.2-.29.33-.65.33-1.06h-.01Z" style="fill:#d6e8ea"/><path class="cls-1" d="M72.75 185.6c0-.3.13-.57.35-.75a4.94 4.94 0 0 0 1.81-4.24v-.21c-.73-6.15-1.4-13.18-1.52-18.77v-.07a.922.922 0 0 0-1.01-.83c-.49.05-.84.46-.84.94.08 3.83.41 8.34.86 12.78.06.6-.39 1.13-.98 1.18-.6.06-1.13-.38-1.19-.98-.44-4.42-.78-8.9-.86-12.71v-.07a.922.922 0 0 0-1.01-.83c-.49.05-.84.46-.84.94.08 3.84.42 8.38.86 12.85a1.089 1.089 0 1 1-2.17.21c-.44-4.44-.78-8.94-.86-12.78v-.07a.922.922 0 0 0-1.01-.83c-.49.05-.84.46-.84.94.11 5.75.82 13.04 1.57 19.34a4.951 4.951 0 0 0 2.72 3.79c.28.14.49.41.53.74.01.09.03.21.04.31.39 2.98.79 5.84 1.06 7.68 1.53-.14 3.05-.27 4.58-.41-.13-.69-.29-1.58-.49-2.66-.79-4.56-.75-5.52-.75-5.52h-.03Z"/><path class="cls-1" d="M55.64 172.38c-.12-.64-.63-1.13-1.25-1.24l-4.64-.51c-.69-.11-1.25-.69-1.31-1.43-.02-.24.01-.47.09-.69.26-.9 7.72-17.53 22.81-28.61.62-.49 1.38-.81 2.22-.87.84-.07 1.64.12 2.33.51 3.6 1.84 6.9 4 9.85 6.26s.02.01.04.01c.03 0 .06-.03.06-.06l-.13-1.6a.975.975 0 0 1 .89-1.05h.12l3.8.15A908.054 908.054 0 0 0 88 123.07c-.06-.44-.32-.79-.66-1.02-.29-.36-.7-.59-1.14-.54-14.84 1.33-29.69 2.68-44.53 4.01-4.24.39-8.48.76-12.72 1.15-.4.04-.76.21-1.05.48-.57.22-1.04.76-1.08 1.63-.75 17.34-.79 34.73-.12 52.07.19 4.88.44 9.74.74 14.6.02.36.12.69.29.97.19.76.82 1.43 1.55 1.36 10.02-.91 20.04-1.81 30.06-2.71-1.46-5.41-3.59-21.93-3.69-22.71ZM87.27 159.13a1.89 1.89 0 0 0-.11-.44.955.955 0 0 0-.95-.54c-.21.01-.41.1-.56.23 0 0-.11.08-.27.28 0 0-5.55 6.67-5.35 25.12 0 0 0 .26.08.49.14.37.46.65.96.7l3.18.18c.29.02.51.21.54.49 0 0 .09 2.56-.01 7.17l4.6-.41c-.04-2.01-.13-5.7-.29-10.01-.29-7.68-.83-17.52-1.81-23.24Z"/><path class="cls-6" d="M86.61 143.11c-.54.04-.94.51-.89 1.05l.13 1.6s-.02.06-.06.06c-.01 0-.03 0-.04-.01-2.96-2.26-6.25-4.42-9.85-6.26a4.09 4.09 0 0 0-2.33-.51c-.84.07-1.6.39-2.22.87-15.08 11.07-22.54 27.7-22.81 28.61-.08.21-.11.44-.09.69.06.74.61 1.31 1.31 1.43l4.64.51c.62.12 1.13.61 1.25 1.24.1.77 2.23 17.29 3.69 22.71 3.36-.3 6.72-.61 10.08-.91-.27-1.84-.67-4.7-1.06-7.68-.01-.09-.03-.21-.04-.31a.96.96 0 0 0-.53-.74 4.974 4.974 0 0 1-2.72-3.79c-.75-6.3-1.46-13.6-1.57-19.34-.01-.48.35-.89.84-.94.51-.05.96.32 1.01.83v.07c.08 3.83.42 8.34.86 12.78a1.089 1.089 0 1 0 2.17-.21c-.44-4.47-.79-9.01-.86-12.85-.01-.48.35-.89.84-.94.51-.05.96.32 1.01.83v.07c.08 3.81.42 8.29.86 12.71.06.6.59 1.03 1.19.98.6-.06 1.03-.59.98-1.18-.44-4.45-.78-8.96-.86-12.78-.01-.48.35-.89.84-.94.51-.05.96.32 1.01.83v.07c.11 5.58.79 12.61 1.51 18.77v.06s.01.06.01.09v.06a4.94 4.94 0 0 1-1.81 4.24c-.21.18-.35.45-.35.75 0 0-.04.96.75 5.52.19 1.07.36 1.96.49 2.66 1.96-.18 3.92-.35 5.87-.53 1.63-.15 3.27-.29 4.91-.44.1-4.61.01-7.17.01-7.17-.02-.28-.25-.47-.54-.49l-3.18-.18c-.51-.05-.83-.33-.96-.7-.09-.22-.08-.49-.08-.49-.2-18.44 5.35-25.12 5.35-25.12.16-.19.27-.28.27-.28.15-.13.34-.21.56-.23.41-.04.78.19.95.54 0 0 .06.12.11.44.99 5.72 1.52 15.56 1.81 23.24.16 4.31.25 8 .29 10.01 1.6-.14 3.2-.29 4.8-.44.03 0 .05 0 .08-.01.12 0 .24-.01.35-.05.39-.12.67-.36.86-.68.2-.29.33-.65.33-1.06 0-.14-.02-.28-.05-.41v-.06c-1.93-15.44-3.43-30.94-5.2-46.4l-3.8-.15h-.12v-.03Z"/></g><path class="cls-4" d="M141.55 104.8c-.84.12.08 11.13 2.04 24.59 1.97 13.46 4.24 24.27 5.07 24.15s-.08-11.13-2.04-24.59c-1.97-13.46-4.24-24.27-5.07-24.15ZM111.82 182.79c1.61.2 5.98-25.92 6.24-58.5.35-32.58-3.54-58.77-5.16-58.6-1.75.16-.62 26.33-.97 58.55-.25 32.22-1.87 58.36-.12 58.55ZM162.39 93.58c-.81-.26-2.39 2.44-3.54 6.03-1.15 3.59-1.43 6.71-.63 6.96.81.26 2.39-2.44 3.54-6.03 1.15-3.59 1.43-6.71.63-6.96Z"/></svg>