<svg id="Illustration" xmlns="http://www.w3.org/2000/svg" viewBox="0 0 200 200"><defs><style>.cls-1{fill:none}.cls-4{fill:#f75e28}.cls-5{fill:#fff}.cls-6{fill:#fbae5e}.cls-7{fill:#c1dade}.cls-8{fill:#b7957e}.cls-9{fill:#afcbcd}.cls-10{fill:#5b3d5b}</style></defs><path class="cls-8" d="m156.58 97.11.25-2.73s3.65-.86 4.62-1.47 1.47.06.94 1.2-1.82 3.74-1.82 3.74l-4-.74Z"/><g id="Layer_9"><path class="cls-10" d="M119.67 72.23c-.22-1.92-.8-3.77-1.83-5.41-1.12-1.79-2.62-3.3-4.02-4.86-1.35-1.5-3.56.69-2.28 2.2-.31.26-.55.63-.67 1.14-.72 3.02-3.3 4-4.73 6.46-.96 1.66-.57 4.23 1.48 4.84.94.29 1.82-.1 2.58-.6.21-.14.41-.25.6-.36.34.58.94 1 1.75 1.03-.1.44-.2.88-.27 1.29-.22 1.22.6 2.3 1.59 2.69-.82 1.48 1.2 3.34 2.47 1.92 2.51-2.79 3.75-6.6 3.33-10.34Z"/><path d="M81.9 62.22c-1.41-.25-2.59-.66-3.67-1.67-.67-.63-1.13-1.73-2-2.16-.07-.04-.14-.06-.22-.09.58-.84.95-1.84 1.06-2.89.09-.85-.79-1.59-1.59-1.59-.93 0-1.5.73-1.59 1.59-.13 1.24-1.32 2.08-2.49 2.1-.97.01-1.93-.19-2.91-.13-.79.04-1.53.21-2.26.5-3.03 1.24-4.9 4.29-5.28 7.47-.21 1.74.25 3.34.7 5.01.2.75.46 1.6.27 2.38-.15.63-.6.98-1.14 1.28-1.41.77-3.03 1.05-4.37 1.99-1.43 1.01-2.6 2.35-3.31 3.97-1.66 3.79-.62 8.41 2.65 11.02.67.53 1.59.65 2.25 0 .55-.55.67-1.71 0-2.25h-.02c4.75-.25 7.58-4.83 11.74-6.69 3.38-1.51 9.69-.42 9.75-5.47 0-.58.1-1.95-.43-1.61.16-.13.34-.23.53-.31.77 2.09 4.38 1.87 4.29-.73-.11-3.19-.23-6.39-.34-9.58-.03-.9-.66-1.97-1.63-2.14ZM71.77 76.61s0 .04.01.06l-.1.03.08-.1Z" style="fill:#78577a"/></g><path class="cls-8" d="M84.56 77.18c.39-.09-.82-14.15-.82-14.15s4.26-.66 5.51-1.97 2.74-3.72 2.7-5.23c-.04-1.51 0-5.76 0-5.76l21.83-2.89s.83 8.96 0 11.62c-.83 2.66-.24 2.89-1.97 6.11s-3.69 5.29-3.69 5.29l-2.58 2.56.13 4.99-17.46-.79s-4.59.42-3.67.21ZM161.64 73.54c-.75 0-1.27.36-3.24 1.04-1.97.67-1.61 1.21-4.03 1.4-2.43.18-1.81-.82-3.66.5-1.85 1.33-2.28 1.91-.94 2.83 1.34.92 2.2.95 3.4 1.62 1.2.67 2.66-.11.73.71-1.93.82-4.32.71-5.21 1.33-.89.61-2.04.84-2.2 1.97-.16 1.13.91 1.24 2.2 2.14 1.29.9.88 1.5 1.62 1.5s.6.92-.89.9-.61.62-1.93 1.38c-1.33.76-2.2.7-.99 1.81 1.21 1.1 3.27.83 6.34 1.28 3.08.44 4.68.05 7.04-1.28 2.36-1.33 3.82-1.08 3.66-2.85-.16-1.77.34-1.73-.93-2.75s-2-.13-.11-2.14c1.9-2.01 2.78-2.35 2.2-3.46-.58-1.11-1.03-.21-1.92-1.59-.88-1.38-.2-.82.1-2.61.3-1.78.75-2.14-.24-2.94l-.99-.79h.01Z"/><path class="cls-7" d="M24.9 133.69c-.15 2.28.48 4.65 1.76 6.55.46.69 1.43 1.06 2.19.57.69-.44 1.07-1.45.57-2.19-.19-.29-.37-.58-.53-.88a9.02 9.02 0 0 1-.22-.44c-.1-.23-.02-.06.03.07-.03-.09-.08-.18-.11-.27a9.05 9.05 0 0 1-.49-1.99l.06.43c-.08-.62-.1-1.23-.06-1.85.06-.84-.77-1.64-1.6-1.6-.91.04-1.54.7-1.6 1.6ZM137.84 103.27c-2.53 8.7-5.39 17.26-8.6 25.73-.3.81.34 1.76 1.12 1.97.9.25 1.66-.3 1.97-1.12 3.2-8.48 6.06-17.03 8.6-25.73.58-1.98-2.51-2.83-3.08-.85ZM57.24 132.22l-3.03 5.08c-.43.72-.18 1.79.57 2.19s1.73.2 2.19-.57l3.03-5.08c.43-.72.18-1.79-.57-2.19-.75-.4-1.73-.2-2.19.57Z"/><path class="cls-7" d="M168.07 99.72c-.04-.95-.7-1.49-1.6-1.6l-9.89-1.22c-.83-.1-1.64.81-1.6 1.6.02.53.25.93.59 1.2l-.79 3.35-15.44.74-3.7-.02v-2.86c.31 0 .6-.06.84-.21.79-.51.95-1.37.57-2.19-.96-2.11-2-4.19-3.1-6.23-.07-.27-.2-.53-.39-.75-2.68-3.04-5.89-5.58-9.52-7.39-3.25-1.62-6.78-2.77-10.3-3.83l.35-4.33c.07-.84-.79-1.64-1.6-1.6-.33.02-.61.11-.85.26-10.41 2.21-21.5 2.21-31.68-1.08-.84-.27-1.47.14-1.77.74-.11.1-.2.21-.27.33-.21.4-.24.79-.16 1.23l.56 3.21c-3.57.68-7.03 1.74-10.34 3.25-3.76 1.71-7.12 3.91-10.4 6.31-.09.07-.17.14-.25.21-.02.02-.05.03-.07.05-7.49 5.98-14.1 13.14-19.41 21.13a77.95 77.95 0 0 0-3.11 5.1c-2.82 4.36-5.46 8.83-8.05 13.34-1.73 3.01-3.39 7.04-.04 9.64.33.26.74.41 1.15.47l.23.85h-.01l2.16 1.34 14.51-1.34 16.05-.56 4.25 43.21c-.78.02-1.43.87-1.43 1.6 0 .96.74 1.48 1.6 1.6 15.96 2.14 32.34 2.04 48.28-.18 4.34-.61 8.65-1.4 12.9-2.44.65-.16.99-.59 1.1-1.09.04-.14.07-.29.08-.46.24-8.97.31-17.96.19-26.93 2.69 3.01 6.24 5.32 10.16 6.29 2.62.65 5.34.47 7.72-.86 1.99-1.12 3.53-2.92 4.73-4.83 1.22-1.96 2.13-4.14 2.9-6.31 1.02-2.87 1.92-5.79 2.85-8.7 1.96-6.1 3.86-12.21 5.7-18.34 2.06-6.88 4.05-13.78 5.95-20.71.23-.29.37-.65.36-.99ZM46.16 120.39c.09 1.47-1.26 3.26-2.19 4.29-.93 1.02-1.99 2.14-2.35 3.36s-1.63 2.37-3.17 3.45c-.22.15-.44.26-.65.34-.2-.49-.6-.91-1.06-1.13l-.24-3.47c-.06-.89-.63-1.5-1.31-1.74.38-1.13.66-2.02.7-2.28.12-.75-.14-1.4-.58-1.83.72-1.18 1.46-2.35 2.2-3.52 1.15-.2 1.53.36 2.95.19 1.48-.17.16 1 2.16-.17s1.92-.82 3.53-1.19c1.61-.37-.09 2.24 0 3.71Z"/><path class="cls-7" d="M96.45 79.31a855.036 855.036 0 0 1 2.51 81.64c-.13 7.68-.37 15.35-.7 23.02-.09 2.06 3.11 2.06 3.2 0 .6-13.6.88-27.22.82-40.84-.05-13.61-.43-27.24-1.13-40.83a802.9 802.9 0 0 0-1.5-22.98c-.07-.86-.69-1.6-1.6-1.6-.81 0-1.67.74-1.6 1.6Z"/><path class="cls-10" d="M82.13 63.02c.05 6.13.44 12.35 1.35 18.42.13.86 1.21 1.33 1.97 1.12.91-.25 1.25-1.11 1.12-1.97-.86-5.67-1.19-11.74-1.24-17.56-.02-2.06-3.22-2.06-3.2 0ZM115.33 47.52c-.2-.81-1.16-1.38-1.97-1.12-.81.26-1.34 1.1-1.12 1.97.17.69.31 1.38.41 2.07 0 .05.03.28.04.32l.06.59a20.572 20.572 0 0 1-.05 3.83s-.05.39-.04.32c-.05.38-.12.75-.19 1.12 0 .05-.01.09-.02.14-.74 3.44-1.48 7.05-3.3 9.94-.17.27-.35.53-.55.79l-.01.02c-.03.04-.06.08-.09.11-.11.13-.22.25-.32.37-.2.22-.42.44-.65.64-.1.1-.21.19-.32.28-.06.05-.27.21-.24.2-1.28.96-2.72 1.73-4.32 1.97-2.31.35-4.68-.29-6.65-1.48-1.77-1.07-3.38 1.7-1.62 2.77h-.01c2.97 1.79 6.44 2.39 9.68 1.62.01.64.02 1.28.02 1.92.01 1.48.03 2.98-.02 4.46-.03.84.75 1.64 1.6 1.6.84-.04 1.57-.7 1.6-1.6.04-1.48.03-2.97.02-4.46 0-1.05-.01-2.1-.06-3.15.22-.13.45-.26.67-.4 2.77-1.8 4.49-4.38 5.65-7.43.91-2.4 1.5-4.94 2.04-7.45 0-.03 0-.06.01-.09.63-3.28.56-6.63-.25-9.87Zm-6.73 19.99.03-.04c-.01.01-.02.03-.03.04Z"/><path d="M160.46 66.29c-.29-.46-.79-.81-1.34-.75l-18.7 1.89c-.86.09-1.59.67-1.6 1.59 0 .04-.03.07-.03.11l-3.87 27.33-.98 6.9c-.12.86.21 1.72 1.12 1.97.18.05.38.06.58.03h.02c6.41-.23 12.78-.65 19.14-1.43.06 0 .11-.02.18-.03.03 0 .04 0 .06-.01.03 0 .06-.01.08-.02.58-.12 1.12-.49 1.22-1.11v-.03c.03-.1.04-.2.05-.3.39-2.67.76-5.35 1.12-8.03.11-.83-.81-1.64-1.6-1.6-.96.04-1.48.7-1.6 1.6v.09c-1.83.07-4.68.09-5.82-.44-1.74-.79-3.98-1.31-2.33-2.42 1.66-1.12 3.97-1.83 3.97-1.83s-1.38-1.71-2.59-2.72c-1.21-1.01-1.67-.89-1.05-2.14.62-1.25 4.4-3.57 5.32-3.34.92.22-3.03-2.98-3.03-2.98s-.38-1.52 1.93-2.13c1.52-.4 4.35-1.09 6.12-1.52.15.68.9 1.25 1.57 1.22.95-.04 1.49-.7 1.6-1.6.29-2.4.59-4.81.89-7.21.05-.4-.13-.79-.43-1.08Z" style="fill:#f6c243"/><path class="cls-10" d="M164.78 87.28c-.3-.5-.73-.89-1.24-1.15 1.39-1.19 2.73-2.41 2.74-4.4 0-.89-.32-1.8-.98-2.42-.4-.37-.86-.6-1.36-.79.07-.08.12-.14.16-.19.29-.43.51-.91.62-1.41.22-1.07.06-2.2-.52-3.13-1.19-1.89-3.98-2.42-5.79-1.09-.18.13-.33.28-.45.45-1.62.26-3.24.46-4.85.75-1.86.33-3.79.58-5.06 2.02-.6.67-1.08 1.48-1.24 2.38-.14.8.06 1.64.47 2.37-.33.11-.64.23-.92.41-1.23.78-1.97 2.32-2.1 3.73-.13 1.41.76 2.75 1.82 3.57l.3.21c-.19.11-.37.24-.55.39-1.27 1.08-1.66 2.95-.86 4.43.84 1.56 2.49 2.12 4.14 2.35 1.73.25 3.46.3 5.2.09 1.74-.21 3.51-.62 5.18-1.29.38-.15.77-.32 1.17-.49-.16.35-.33.69-.5 1.03-.97 1.93-1.92 3.85-2.42 5.96-.2.84.27 1.73 1.12 1.97.85.23 1.76-.27 1.97-1.12.14-.57.3-1.14.49-1.69.2-.59.29-.79.49-1.26.41-.9.88-1.78 1.32-2.66 1.04-2.11 1.74-4.22 2.05-6.54.02-.08.02-.17.04-.25v-.05c.09-.73-.03-1.49-.44-2.18ZM162.13 89s-.06-.01-.09-.03h.1V89Zm-.11-.07v.01Zm1.36-10.63v.03c-.25-.09-.01-.07 0-.03Zm-13.41.79s-.04-.02-.05-.02c.02 0 .03 0 .05.02Zm-2.52 6.05s-.01-.03-.01-.05v.05Zm-.01-.07v.01Zm.02-.17s0-.01 0 0Zm3.64 7.86c-.86-.04-1.81-.09-2.63-.37-.41-.15-.83-.42-.74-.77.02-.08.11-.17.21-.27.1-.1.41-.23.43-.24.88-.35 1.76-.79 2.67-1.05.82-.23 1.15-.9 1.12-1.56.02-.11.04-.22.03-.33-.04-.93-.7-1.52-1.6-1.6h.03c-.13-.03-.57.01-.15-.03-.11.01-.26-.04-.37-.06-.32-.06-.64-.14-.96-.23-.16-.04-.31-.1-.47-.14-.07-.02-.52-.21-.47-.17a.746.746 0 0 1-.12-.07c-.03-.02-.16-.12-.2-.16-.06-.06-.37-.49-.17-.17-.07-.11-.14-.21-.2-.32-.02-.03-.03-.06-.04-.08-.02-.04-.03-.08-.04-.12v-.04c.03-.13.07-.27.11-.4.02-.04.06-.16.09-.21.08-.14.17-.27.24-.4.03-.03.06-.07.09-.1.02-.02.04-.04.07-.06.01 0 .02 0 .03-.01.2-.07.41-.13.62-.2.77-.23 1.55-.39 2.35-.52.05 0 .39-.06.4-.06l.45-.06c.39-.04.78-.08 1.17-.11l2.3-.18c.83-.07 1.64-.69 1.6-1.6-.04-.81-.7-1.67-1.6-1.6-1.03.09-2.05.16-3.08.27-.08-.02-.17-.03-.25-.04-.44-.04-.43-.03-.8-.1-.13-.03-.27-.06-.4-.1-.04 0-.22-.07-.31-.09-.06-.03-.21-.1-.23-.11-.03-.02-.11-.08-.19-.13l-.09-.15c-.01-.02-.02-.03-.02-.03v-.04c0-.03-.02-.07-.02-.1 0-.05.01-.1.02-.13.02-.05.02-.08.02-.1.01-.01.03-.04.07-.09.25-.37.42-.61.83-.85.04-.01.14-.05.2-.07.19-.06.39-.1.58-.15.36-.09.72-.17 1.08-.25.72-.15 1.45-.28 2.19-.39 1.53-.24 3.06-.44 4.59-.7.49-.08.84-.46 1.03-.91.56-.11 1.11.16 1.05.85-.05.58-.62.84-.94 1.31-.57.86-.55 1.91.03 2.76.51.75 1.31 1.13 2.15 1.4.08.03.16.08.2.1 0 .03.02.07.01.11-.04.2 0 .18-.08.37-.22.59-.82 1.02-1.31 1.43-.68.56-1.47 1.15-1.9 1.95-.93 1.72.39 3.47 2.24 3.49-.02.1 0 .27.01.25-.23.58-.89.94-1.4 1.24-2.87 1.69-6.2 2.47-9.52 2.31Z"/><g id="Layer_5"><path d="M121 45.86v-.08c-.99-5.04-2.19-10.4-5.25-14.64-2.94-4.07-7.39-6.93-12.35-7.81-4.95-.88-10.19.12-14.69 2.3-4.21 2.04-7.85 5.59-10.46 9.43-2.84 4.19-4.23 9.1-4.64 14.1-.03.13-.06.27-.06.43-.04 4.92.21 11.02 5.1 13.66a9.574 9.574 0 0 0 7.73.6c2.52-.9 4.22-2.77 5-5.31.82-2.65.86-5.41.6-8.14 9.15-.84 18.3-1.69 27.44-2.54.02 0 .04 0 .06-.01.13 0 .25-.01.37-.05.39-.11.67-.33.87-.62.2-.26.33-.58.33-.96 0-.12-.02-.24-.05-.36Zm-37.76 7.57c-.05.1-.1.19-.16.29-.06.08-.14.15-.22.22-.04.03-.1.06-.15.08-.04.01-.08.03-.11.03h-.1l-.2-.06c-.04-.03-.09-.05-.13-.08l-.13-.13c-.02-.03-.03-.06-.05-.08 0-.01 0-.03-.01-.04v-.03c.03-.12.06-.25.1-.37.06-.11.11-.22.18-.32.08-.1.18-.19.27-.27.06-.04.13-.08.2-.11.03 0 .06-.01.08-.02h.07c.14-.01.28 0 .42 0h.03l.03.12v.32c-.03.15-.07.3-.12.44h.01Z" style="fill:#f2a6b0"/><path class="cls-10" d="M86.02 53.22c-.04-.1-.1-.18-.16-.27-.16-.22-.32-.46-.52-.65a5.2 5.2 0 0 0-.65-.51c-.09-.06-.18-.11-.29-.16-.56-.26-1.02-.4-1.66-.42-.39-.01-.81.04-1.19.18-.61.22-1.03.46-1.51.89-.41.36-.77.89-.88 1.43-.11.5-.11.89 0 1.39 0 .01 0 .03.01.04.02.19.04.37.09.56.07.27.19.53.31.77.13.25.32.47.49.68.06.07.13.14.2.2.21.18.43.37.68.5.24.13.51.24.77.33.27.1.58.11.86.14.1.01.2.01.3 0 .27-.03.59-.05.86-.14.25-.08.51-.19.75-.32.25-.13.47-.32.69-.49.08-.06.16-.13.23-.21.19-.21.37-.44.52-.67.06-.09.1-.18.15-.27.11-.25.25-.52.31-.8.18-.79-.03-1.49-.37-2.19Z"/></g><g id="Margins"><path class="cls-4" d="M195.64 40.93c-.46-.95-.95-1.88-1.39-2.85-.88-1.94-1.69-3.98-2.87-5.76-4.5-8.67-9.79-16.95-15.89-24.56-.93-1.17-1.88-2.32-2.87-3.44-.91-1.04-2-2.06-3.4-2.39-2.96-.69-5.4 1.54-7.17 3.61-4.08 4.77-7.91 9.76-11.5 14.91-4.01 5.77-7.69 11.78-11.03 17.97-1.34 2.06-2.14 4.8.08 6.59 1.9 1.53 4.41 1.52 6.73 1.64 5.49.26 10.98.46 16.48.52 5.49.06 10.98-.04 16.46-.36 2.76-.16 5.52-.38 8.27-.67 1.35-.15 2.7-.3 4.05-.48 1.08-.15 2.3-.2 3.24-.82 1.39-.92 1.47-2.51.8-3.91Z"/><path class="cls-5" d="M168.45 33.56c-.07-.05-.15-.1-.22-.13-.2-.09-.41-.2-.62-.23-.44-.09-.84-.11-1.29.01-.04.01-.08.03-.13.04-.15.06-.3.12-.45.2-.19.1-.36.24-.51.38-.21.18-.39.43-.51.68-.22.44-.3.75-.34 1.23v.23c.03.21.04.43.11.64.06.18.14.39.25.56.04.06.09.12.13.18l.06.12c.24.34.38.47.71.72.06.04.13.08.2.11.15.06.3.14.45.18.11.03.23.04.34.06.1.01.21.04.31.03.16 0 .34-.03.49-.06.21-.04.41-.13.6-.23.09-.05.18-.11.26-.18.19-.11.36-.23.55-.39.16-.14.29-.33.41-.49.06-.08.1-.15.14-.23.18-.4.34-.82.3-1.27-.03-.45-.13-.86-.37-1.25s-.51-.63-.88-.9h.01ZM168.97 12.99c-.93-.8-2.46-.75-3.36.27-1.12 1.27-.81 3.44-.77 5.01.04 1.65.13 3.3.22 4.94.07 1.31.04 2.69.43 3.95v.25c0 1.03.81 1.54 1.61 1.53.76.1 1.59-.26 1.73-1.11.48-2.79.88-5.6 1.18-8.41.13-1.24.34-2.52.35-3.78.01-1.09-.42-2.19-1.4-2.65Z"/></g><path class="cls-9" d="M98.59 100.15c.47-.46.91-.98 1.22-1.55.14-.27.26-.55.36-.84l.36-.84c.1-.3.16-1.2.2-1.72-.03-.56-.06-1.12-.1-1.67a4.99 4.99 0 0 0-.11-.53c-.22-.53-.45-1.06-.67-1.59-.01-.03-.03-.06-.05-.09-.28-.53-.68-1-1.1-1.43-.46-.46-.98-.87-1.55-1.18h-.02c.27 4.01.51 8.02.73 12.03 0 0 .01 0 .02-.01.24-.18.48-.37.72-.56ZM134.7 114.67c-.08.21-.18.4-.23.63l-.24 1.77c0 1.2.31 2.33.91 3.37.13.17.26.34.4.51 1.31-3.77 2.56-7.57 3.74-11.38-1.03.37-1.92.87-2.72 1.68a7.02 7.02 0 0 0-1.86 3.43ZM98.76 169.16c-.05 2.01-.11 4.02-.18 6.03.18-.42.34-.84.45-1.28.42-1.64.28-3.26-.27-4.75ZM71.93 97.43s.02-.03.02-.05c.22-.53.45-1.06.67-1.59v-.03s.02-.04.02-.06v-.03l.24-1.77v-.11l-.24-1.77v-.04c0-.02-.01-.04-.02-.05a78.6 78.6 0 0 0-.68-1.62c0-.02-.02-.03-.03-.05-.03-.05-1.01-1.33-1.06-1.37l-.05-.05c-.6-.65-1.32-1.11-2.15-1.38a4.93 4.93 0 0 0-2.57-.57c-.92-.03-1.77.16-2.57.57-.07.02-.12.06-.19.09-.96.33-1.82.85-2.55 1.58-.35.45-.7.9-1.04 1.35a6.63 6.63 0 0 0-.91 3.37v.06l.24 1.77v.03c0 .02.01.04.02.06.22.53.45 1.06.67 1.59 0 0 0 .02.01.03.33.51.67 1.03 1.11 1.44.18.17.45.36.62.48-.05-.03.61.51.81.62l.06.03c.1.05 1.52.66 1.62.68.02 0 .04.01.06.02.08.02 1.72.24 1.8.24h.06c.08 0 1.72-.22 1.8-.24.3-.08.39-.16.84-.35.18-.07.58-.22.85-.36 0 0 .02-.01.02-.02.45-.35.9-.7 1.35-1.04.01-.01.03-.02.04-.04l.02-.02 1.04-1.35s.02-.03.03-.05ZM72.86 122.11c.45.35.9.7 1.35 1.04 1.04.6 2.16.91 3.37.91l1.77-.24c1.13-.32 2.11-.89 2.94-1.71l.29-.29c.65-.6 1.11-1.32 1.38-2.15.42-.79.61-1.65.57-2.57.03-.92-.16-1.77-.57-2.57-.27-.83-.73-1.54-1.38-2.15-.45-.35-.9-.69-1.35-1.04a6.63 6.63 0 0 0-3.37-.91l-1.77.24c-1.13.32-2.11.89-2.94 1.71l-.29.29c-.65.6-1.11 1.32-1.38 2.15a4.93 4.93 0 0 0-.57 2.57c-.03.92.16 1.77.57 2.57.27.83.73 1.54 1.38 2.15Z"/><path class="cls-9" d="M87.01 98.75c.33.51.67 1.03 1.11 1.44.02.03.05.05.08.07.45.35.9.7 1.35 1.04.03.02.06.04.09.05l1.59.67s.1.03.15.05c1.89.56 3.92.17 5.62-.74.05-.03.1-.05.15-.08.24-.17.48-.35.7-.54-.22-4.01-.46-8.02-.73-12.03-.53-.22-1.05-.44-1.58-.66-.03-.01-.06-.02-.1-.03-.33-.1-1.52-.21-2-.25-.64-.01-1.33.1-1.91.23-1.2.27-2.53 1.02-3.39 1.91-.23.24-.36.44-.61.76-.26.34-.41.49-.58.78-.68 1.16-.9 2.26-.96 3.59-.03.68.07 1.32.29 1.93.15.62.38 1.23.72 1.8ZM106.57 129.09c-1.01-.96-2.09-1.57-3.43-1.95-.36-.1-.73-.17-1.1-.21a7.3 7.3 0 0 0-3.18.37c-1.17.4-2.25 1.05-3.15 1.91-.96.92-1.57 2.12-1.94 3.37-.35 1.16-.3 2.55 0 3.72.16.65.46 1.25.76 1.85.42.78.99 1.4 1.72 1.87.64.59 1.4.99 2.27 1.19.09.03.19.05.28.07.09.06.19.11.28.17.45.28.91.52 1.45.65.57.13 1.16.2 1.75.21 1.19.02 2.38-.23 3.39-.88 1.43-.92 2.65-2.28 3.06-3.98.38-1.56.48-3.37-.08-4.91-.5-1.37-1-2.41-2.07-3.44ZM113.51 124.46c.83.83 1.81 1.4 2.94 1.71.58.17 1.94.28 1.99.28.38.01.68-.06 1.11-.12.33-.04.75-.07 1.1-.17.62-.17 1.22-.47 1.79-.76.78-.42 1.4-.99 1.87-1.72.59-.64.99-1.4 1.19-2.27.15-.64.25-1.53.29-2.03.06-.75-.12-1.64-.24-2.29-.69-3.73-4.92-6.1-8.49-5.03-1.24.37-2.26.92-3.18 1.84a7.02 7.02 0 0 0-1.86 3.43c-.08.21-.18.4-.23.63l-.24 1.77c0 1.2.31 2.33.91 3.37.35.45.7.9 1.04 1.35ZM148.19 118.75c.15-.64.25-1.53.29-2.03.06-.75-.12-1.64-.24-2.29-.69-3.73-4.92-6.1-8.49-5.03-.16.05-.31.11-.46.16-1.18 3.82-2.43 7.61-3.74 11.38.22.28.43.56.65.84.83.83 1.81 1.4 2.94 1.71.58.17 1.94.28 1.99.28.38.01.68-.06 1.11-.12.33-.04.75-.07 1.1-.17.62-.17 1.22-.47 1.79-.76.78-.42 1.4-.99 1.87-1.72.59-.64.99-1.4 1.19-2.27ZM119.22 93.26c-.03.92.16 1.77.57 2.57.27.83.73 1.54 1.38 2.15.45.35.9.7 1.35 1.04 1.04.6 2.16.91 3.37.91l1.77-.24c1.13-.32 2.11-.89 2.94-1.71.34-.42.8-.97 1.1-1.42.03-.04.06-.08.08-.13.32-.57.57-1.2.78-1.82.25-.73.34-1.53.33-2.29v-.05c-.07-.56-.15-1.12-.22-1.67a31.641 31.641 0 0 0-6.64-5.34c-.03 0-.06 0-.09-.01h-.1c-.92-.03-1.77.16-2.57.57-.83.27-1.54.73-2.15 1.38-.65.6-1.11 1.32-1.38 2.15a4.93 4.93 0 0 0-.57 2.57c.03.21.06.41.08.62-.02.24-.03.48-.02.73ZM156.64 132.82a.977.977 0 0 0-.23-.06l-1.77-.24h-.17l-1.77.24a.42.42 0 0 0-.16.04c-.3.11-.59.23-.87.37-.3.11-.59.23-.87.37-1.74 1.08-2.94 2.61-3.55 4.56-.06.18-.1.37-.14.57-.03.1-.07.2-.09.31l-.24 1.77c0 1.2.31 2.33.91 3.37.85 1.18 1.39 1.93 2.67 2.68.33.19.6.28.99.44.35.15.66.3 1.01.41.34.1.7.17 1.06.22.94-2.68 1.78-5.39 2.65-8.1.68-2.11 1.34-4.22 2-6.33-.46-.24-.93-.45-1.42-.61ZM135.58 147.06c-2-1.01-4.11-1.29-6.3-.73-1.96.5-3.82 1.99-4.76 3.77-1.16 2.17-1.29 4.63-.34 6.89.44 1.04.71 1.68 1.62 2.55.19.18.37.32.55.46.38.57.83 1.09 1.37 1.52 0-2.44.01-4.89-.02-7.33 2.6 2.91 6.01 5.15 9.77 6.18.85-.91 1.17-1.49 1.62-2.56.21-.49.41-.89.5-1.39.36-1.88.3-3.56-.46-5.34-.71-1.67-1.9-3.16-3.55-4ZM92.73 163.63c-2.3-.58-4.63-.22-6.7.9-1.44.79-2.63 2.42-3.06 3.99-.2.74-.26 1.6-.18 2.45-.2 1.51-.02 3.01.59 4.45.93 2.21 2.76 4.13 5.17 4.71 2.27.55 4.59.3 6.59-.95a8.897 8.897 0 0 0 3.43-4c.07-2.01.13-4.02.18-6.03a9.579 9.579 0 0 0-1.76-2.99c-1.05-1.22-2.72-2.14-4.27-2.53ZM125.61 171.83c-.81-.85-2.24-1.67-3.37-1.91-2.72-.59-5.2.16-7.25 1.99-.62.55-1.06 1.25-1.51 1.94-.13.15-.27.28-.38.45-.59.64-.99 1.4-1.19 2.27-.44 1.6-.24 3.72.67 5.14.42.65.94 1.26 1.54 1.78.35.49.77.93 1.23 1.33 3.69-.57 7.36-1.26 10.98-2.15.65-.16.99-.59 1.1-1.09.04-.14.07-.29.08-.46.05-1.89.06-3.79.1-5.68-.1-.35-.22-.7-.37-1.05-.42-.98-.87-1.75-1.63-2.55ZM84.91 153.23c.19-.31.21-.43.41-.92.07-.16.29-.6.37-.9.07-.27.25-1.56.25-1.85v-.15c0-.37-.16-1.53-.26-1.89-.01-.05-.03-.09-.05-.14-.12-.39-.5-1.31-.71-1.66-.13-.23-.45-.65-.73-1-.27-.55-.6-1.06-1.07-1.5-1.27-1.17-2.94-2.03-4.72-1.95-1.78.08-3.42.68-4.72 1.95-.49.48-.93 1.08-1.3 1.64-.06.09-.12.18-.17.28-.24.46-.56 1.22-.72 1.71-.03.08-.05.16-.07.24-.11.47-.24 1.42-.26 1.9-.02.73.08 1.48.28 2.19.01.03.03.06.04.1.22.53.45 1.06.67 1.59.04.06.07.12.11.17.28.43.75 1.07 1.11 1.43.24.21.49.41.75.59.23.19.47.38.72.55.06.04.12.07.18.1.34.19 1.31.6 1.69.71.32.09.82.12 1.03.15.61.08.67.13 1.08.11.5-.02 1.39-.13 1.87-.27.53-.22 1.06-.45 1.59-.67.03-.01.06-.03.09-.04.35-.2 1.12-.8 1.41-1.09.29-.29.88-1.05 1.1-1.4Z"/><g id="Layer_7"><path class="cls-8" d="M41.35 126c-.25.36-1.62 2.57-3.05 1.34-1.43-1.22-3.66-3.28-4.24-5.48-.58-2.2-1.41-3.53-.65-5.6.76-2.07 3.81-4.49 3.81-4.49l3.34.11s.56-1.29 2.94-1.19 4.52.99 4.52.99h3.85c1.9 0 2.14.64 4.07-.17 1.92-.81 3.53-1.03 3.53.74s.65 3.46-1.11 5.14c-1.76 1.69-.6.16-1.76 1.69-1.17 1.52-1.5 2.9-2.28 3.77-.79.87-1.1 2.35-2.55 2.28-1.45-.06-1.34-.83-2.94 0-1.6.83-1.78 1.05-2.8 1.07-1.02.02-4.66-.2-4.66-.2Z"/><path class="cls-6" d="M35.53 134.43c-.02-.77 0-1.54.09-2.3 0-.08.11-.78.03-.31.03-.16.05-.32.08-.49a18.607 18.607 0 0 1 .9-3.33c.06-.15.12-.3.18-.46q.05-.14 0 0c.04-.1.09-.2.13-.3.16-.35.33-.69.51-1.03.47-.88.25-2.11-.69-2.6-.88-.46-2.11-.25-2.6.69-1.66 3.11-2.52 6.6-2.44 10.13.02 1 .86 1.95 1.9 1.9 1.04-.04 1.93-.84 1.9-1.9Z"/><path class="cls-10" d="M61.48 111.8c-.4-1.41-1.49-2.68-3.05-2.7-.92-.01-1.71.48-2.47.92l-1.55.91c-.6-.47-1.33-.8-2.09-.92-1.25-.2-2.44.09-3.53.63-1.16-1.36-3.04-2.04-4.81-1.86-1.44.15-2.67.81-3.64 1.77-1.85-.88-4.02-.24-5.57 1.17-1.69 1.55-2.47 3.91-2.44 6.17.06 3.93 2.16 9.64 6.48 10.63 1.25.29 2.59.16 3.62-.63.31-.24.57-.53.78-.84 2 1.26 4.8 1.06 6.38-.7.64.27 1.33.43 2.07.41 1.47-.04 2.93-.74 3.74-1.99.77-1.19.71-2.68.24-3.99.45.21.98.17 1.49-.05 2.16-.93 3.79-3.03 4.34-5.28.29-1.17.34-2.47.01-3.63Zm-3.25.45a.138.138 0 0 1-.03-.04c.01 0 .03.02.04.05Zm-18.5 13.2c-.54-.08-1.09-.41-1.54-.84-1.19-1.12-1.85-2.66-2.27-4.21-.46-1.67-.68-3.6.16-5.2.32-.6.73-1.14 1.3-1.51.25-.16.8-.46 1.22-.45-.92 2.42-.6 5.1.29 7.47.46 1.21.98 2.43 1.65 3.52-.24.33-.34.75-.2 1.2-.03.02-.05.02-.04.02 0 0-.5 0-.57-.01Zm.89-.19v-.04c.01.01 0 .03 0 .04Zm6.22-.75c-.39.16-.65.18-1.07.13-.64-.08-1.41-.63-1.93-1.29-.68-.83-1.16-1.86-1.59-2.84-.47-1.07-.86-2.23-.98-3.4-.18-1.76.32-3.89 1.97-4.84 1.07-.61 2.5-.39 3.22.56v.1c-1.4 2.44-1.77 5.46-.97 8.17.34 1.13.89 2.27 1.63 3.22-.08.08-.17.15-.26.19Zm5.12-1.03c-.25.06-.58.04-.86-.04-.34-.11-.72-.35-1-.62-.66-.62-1.14-1.43-1.42-2.28-.73-2.15-.46-4.47.77-6.4.07-.11.12-.21.16-.32.59-.38 1.23-.7 1.93-.71.27 0 .6.09.86.27.15.1.34.33.33.53 0 .11 0 .13-.04.31-.06.26-.15.51-.23.75-.18.48-.39.95-.56 1.43a5.322 5.322 0 0 0 0 3.48c.28.82.88 1.88.94 2.58.06.62-.25.85-.87 1.02Zm6.46-9.07c-.05.23-.11.47-.19.7-.03.09-.15.59-.06.18-.03.11-.11.23-.16.32-.13.25-.27.49-.43.72-.02.04-.09.12-.12.16a8.35 8.35 0 0 1-.75.76l-.04.04c-.02.01-.03.02-.06.04-.11.08-.23.16-.35.23-.24.15-.49.27-.75.38-.31.13-.53.41-.66.73-.13-.51-.09-.83.11-1.41.4-1.17.95-2.26.92-3.48l1.54-.91c.29-.17.57-.35.87-.5.03.05.05.11.06.12 0 .02.01.06.03.1.04.13.06.26.1.39v.05c.02.28.03.56.01.84 0 .11 0 .25-.03.36.15-.41-.02.06-.04.16Z"/><path class="cls-4" d="M29.33 194.98c-.26-.89-1.19-1.26-2.09-1.11-1.59.27-3.2.49-4.81.65.16-.7.15-1.45.08-2.17-.22-1.97-.41-3.95-.54-5.93-.27-4.06-.36-8.13-.31-12.2.08-8.04.65-16.08 1.2-24.11.29-4.21.58-8.42.88-12.64l.58-.06c.91-.08 1.7-.67 1.7-1.59 0-.79-.78-1.67-1.7-1.59-2.61.24-5.22.54-7.82.88-1.27.16-2.53.34-3.79.53-.63.1-1.35.18-1.94.43-.62.12-1.21.52-1.31 1.12-2.78 15.21-3.89 30.68-3.21 46.11.19 4.33.52 8.67.98 12.98.09.8.64 1.48 1.52 1.57.14.04.29.07.44.08 6.34.42 12.71.06 18.97-1.01.9-.15 1.41-1.17 1.19-1.95h-.01Z"/><path class="cls-6" d="M82.32 190.74c0-.12-.02-.25-.04-.37v-.06c-1.91-15.35-3.36-30.76-5.19-46.11-.52-4.36-1.07-8.72-1.67-13.06-.06-.39-.29-.7-.59-.91-.26-.32-.62-.52-1.02-.48-3.86.35-7.73.7-11.6 1.04-.1-2.59-.77-5.14-1.94-7.46-1.33-2.66-3.32-5.02-6.09-6.2-.95-.4-2.09.43-2.34 1.33-.3 1.09.37 1.92 1.31 2.33-.11-.04.09.05.13.08.11.07.23.13.35.2l.34.22c.05.03.08.05.11.07 0 0 .01.02.07.07.42.36.8.75 1.15 1.17.64.75 1.3 1.82 1.8 2.85.84 1.73 1.28 3.71 1.33 5.69-8.06.73-16.12 1.45-24.18 2.18l-11.31 1.02c-.36.03-.68.18-.93.43-.51.2-.93.68-.96 1.45-.67 15.42-.7 30.86-.11 46.28.16 4.33.39 8.66.65 12.98.02.32.11.62.25.86.16.67.73 1.28 1.38 1.21l44.96-4.05 12.73-1.15s.04 0 .07-.01c.11 0 .22-.01.31-.04.35-.11.6-.32.76-.6.18-.26.29-.58.29-.95h-.01Z"/><path class="cls-1" d="M61.84 186.71c0-.27.11-.51.31-.67a4.41 4.41 0 0 0 1.61-3.77v-.19c-.65-5.47-1.24-11.72-1.35-16.68v-.06a.818.818 0 0 0-1.63.09c.07 3.4.37 7.41.76 11.36.05.53-.34 1-.87 1.05a.974.974 0 0 1-1.06-.87c-.39-3.93-.69-7.91-.76-11.29v-.06a.818.818 0 0 0-1.63.09c.07 3.41.37 7.45.76 11.42a.974.974 0 0 1-.87 1.06.974.974 0 0 1-1.06-.87c-.39-3.95-.69-7.95-.77-11.36v-.06a.818.818 0 0 0-1.63.09c.1 5.11.73 11.59 1.4 17.19a4.42 4.42 0 0 0 2.42 3.37c.25.13.43.37.47.66.01.08.03.19.04.27.34 2.65.7 5.19.95 6.83 1.36-.12 2.71-.24 4.07-.37-.11-.62-.26-1.41-.43-2.36-.7-4.05-.67-4.9-.67-4.9h-.03Z"/><path class="cls-1" d="M46.64 174.96c-.11-.56-.56-1-1.11-1.1l-4.12-.46c-.62-.1-1.11-.62-1.16-1.27-.02-.22.01-.42.08-.61.23-.8 6.86-15.58 20.27-25.43a3.5 3.5 0 0 1 1.97-.77c.75-.06 1.46.11 2.07.45 3.2 1.64 6.13 3.56 8.75 5.56s.02.01.03.01c.03 0 .05-.03.05-.06l-.11-1.42c-.04-.48.32-.89.79-.93h.11l3.38.13a705.641 705.641 0 0 0-2.23-17.93c-.06-.39-.29-.7-.59-.91-.26-.32-.62-.52-1.02-.48l-39.57 3.57-11.31 1.02c-.36.03-.68.18-.93.43-.51.2-.93.68-.96 1.45-.67 15.42-.7 30.86-.11 46.28.16 4.33.39 8.66.65 12.98.02.32.11.62.25.86.16.67.73 1.28 1.38 1.21 8.91-.81 17.81-1.61 26.71-2.41-1.3-4.81-3.19-19.5-3.28-20.18ZM74.75 163.18c-.04-.28-.1-.39-.1-.39a.856.856 0 0 0-.84-.48c-.19.01-.36.09-.49.2 0 0-.1.07-.24.25 0 0-4.94 5.93-4.76 22.32 0 0 0 .23.07.43.12.33.41.58.86.62l2.83.16c.25.02.46.19.48.44 0 0 .08 2.27-.01 6.37l4.09-.37c-.04-1.79-.11-5.07-.26-8.9-.26-6.83-.74-15.57-1.61-20.66Z"/><path class="cls-5" d="M74.16 148.95c-.48.04-.83.46-.79.93l.11 1.42s-.02.05-.05.06c-.01 0-.03 0-.03-.01-2.63-2-5.55-3.93-8.75-5.56-.61-.34-1.32-.51-2.07-.45-.75.06-1.42.34-1.97.77-13.41 9.84-20.03 24.62-20.27 25.43-.07.19-.1.39-.08.61.05.65.55 1.17 1.16 1.27l4.12.46c.55.11 1 .54 1.11 1.1.09.69 1.98 15.37 3.28 20.18l8.96-.81c-.24-1.64-.6-4.17-.95-6.83-.01-.08-.03-.19-.04-.27a.879.879 0 0 0-.47-.66 4.403 4.403 0 0 1-2.42-3.37c-.67-5.6-1.29-12.09-1.4-17.19-.01-.43.31-.79.74-.83.45-.04.85.29.89.74v.06c.07 3.4.37 7.41.77 11.36.05.53.53.93 1.06.87.53-.05.93-.53.87-1.06-.39-3.97-.7-8.01-.76-11.42-.01-.43.31-.79.74-.83.45-.04.85.29.89.74v.06c.07 3.39.37 7.37.76 11.29.05.53.53.92 1.06.87.53-.05.92-.52.87-1.05-.39-3.95-.69-7.96-.76-11.36-.01-.43.31-.79.74-.83.45-.04.85.29.89.74v.06c.1 4.96.7 11.21 1.34 16.68v.05s.01.06.01.08v.06c.13 1.5-.52 2.89-1.61 3.77-.19.16-.31.4-.31.67 0 0-.03.85.67 4.9.17.95.32 1.74.43 2.36 1.74-.16 3.48-.31 5.22-.47l4.36-.39c.09-4.1.01-6.37.01-6.37-.02-.25-.22-.42-.48-.44l-2.83-.16c-.45-.04-.74-.29-.86-.62-.08-.2-.07-.43-.07-.43-.18-16.39 4.76-22.32 4.76-22.32.15-.17.24-.25.24-.25.13-.11.3-.19.49-.2.36-.03.69.17.84.48 0 0 .05.11.1.39.88 5.09 1.35 13.83 1.61 20.66.15 3.83.22 7.11.26 8.9 1.42-.13 2.85-.25 4.27-.39.03 0 .04 0 .07-.01.11 0 .22-.01.31-.04.35-.11.6-.32.76-.6.18-.26.29-.58.29-.95 0-.12-.02-.25-.04-.37v-.06c-1.71-13.72-3.05-27.5-4.62-41.24l-3.38-.13h-.11v-.03Z"/></g><path class="cls-5" d="M121.56 114.13c-.73.11.1 9.32 1.84 20.57s3.75 20.27 4.48 20.16c.73-.11-.1-9.32-1.84-20.57s-3.75-20.27-4.48-20.16ZM139.95 104.88c-.67-.3-2.35 1.99-3.75 5.11-1.4 3.13-1.99 5.9-1.32 6.21.67.3 2.35-1.99 3.75-5.11 1.4-3.13 1.99-5.9 1.32-6.21ZM95.97 184.26c1.4.18 5.21-22.58 5.44-50.96.3-28.38-3.09-51.2-4.49-51.05-1.53.14-.54 22.93-.84 51-.22 28.07-1.63 50.84-.11 51.01Z"/></svg>