<?xml version="1.0" encoding="UTF-8"?>
<svg id="Illustration" xmlns="http://www.w3.org/2000/svg" viewBox="0 0 200 180">
  <defs>
    <style>
      .cls-1 {
        fill: #f6aa00;
      }

      .cls-2 {
        fill: #fff;
      }

      .cls-3 {
        fill: #ffb900;
      }

      .cls-4 {
        fill: #dc9600;
      }

      .cls-5 {
        fill: #c98500;
      }
    </style>
  </defs>
  <g>
    <path class="cls-1" d="m152.08,76.85c.12-1.91,13.8-2.6,30.55-1.56,4.54.28,8.82.67,12.67,1.11-1.3-8.93-3.95-17.41-7.75-25.23-4.92.08-10.87-.06-17.29-.46-16.75-1.04-30.24-3.44-30.12-5.34.12-1.91,13.8-2.61,30.55-1.56,4.88.3,9.47.72,13.54,1.21-3.69-6.26-8.14-12.02-13.24-17.14-3.38-.06-7.04-.21-10.87-.44-16.75-1.04-30.24-3.44-30.12-5.34.12-1.91,13.8-2.6,30.55-1.56.78.05,1.54.1,2.3.16-14.68-11.45-33.12-18.29-53.18-18.29h-25.74c-14.66,15.51-60.82,63.53-60.82,86.55,0,24.32,44.66,70.83,60.82,86.55h25.74c17.25,0,33.31-5.07,46.8-13.76-5.45.24-12.72.14-20.7-.36-16.75-1.04-30.24-3.44-30.12-5.34.12-1.91,13.8-2.6,30.55-1.56,11.07.69,20.69,1.97,25.92,3.31,7.51-5.73,14.06-12.65,19.35-20.49-5.51.27-13.05.18-21.34-.33-16.75-1.04-30.24-3.44-30.12-5.34.12-1.91,13.8-2.6,30.55-1.56,9.65.6,18.19,1.65,23.7,2.79,4.14-7.02,7.33-14.68,9.36-22.79-4.13-.02-8.79-.17-13.72-.48-16.75-1.04-30.24-3.44-30.12-5.34.12-1.91,13.8-2.6,30.55-1.56,5.29.33,10.25.79,14.56,1.34.86-4.89,1.33-9.92,1.33-15.06,0-2.11-.1-4.2-.25-6.27-4.14-.02-8.81-.17-13.76-.48-16.75-1.04-30.24-3.44-30.12-5.34Z"/>
    <path class="cls-5" d="m182.63,75.29c-16.75-1.04-30.43-.35-30.55,1.56-.12,1.91,13.37,4.3,30.12,5.34,4.95.31,9.62.46,13.76.48-.15-2.11-.37-4.21-.67-6.27-3.85-.44-8.13-.83-12.67-1.11Z"/>
    <path class="cls-5" d="m130,131.62c-.12,1.91,13.37,4.3,30.12,5.34,8.3.52,15.83.61,21.34.33.98-1.45,1.89-2.93,2.78-4.44-5.51-1.14-14.05-2.19-23.7-2.79-16.75-1.04-30.43-.35-30.55,1.56Z"/>
    <path class="cls-5" d="m149.77,104.24c-.12,1.91,13.37,4.3,30.12,5.34,4.94.31,9.59.46,13.72.48.5-1.99.91-4.01,1.27-6.05-4.31-.54-9.27-1.01-14.56-1.34-16.75-1.04-30.43-.35-30.55,1.56Z"/>
    <path class="cls-5" d="m140.15,45.37c-.12,1.91,13.37,4.3,30.12,5.34,6.41.4,12.36.54,17.29.46-1.02-2.1-2.14-4.15-3.32-6.15-4.07-.49-8.66-.91-13.54-1.21-16.75-1.04-30.43-.35-30.55,1.56Z"/>
    <path class="cls-5" d="m130,22.09c-.12,1.91,13.37,4.3,30.12,5.34,3.83.24,7.49.38,10.87.44-2.56-2.57-5.29-4.96-8.15-7.19-.76-.05-1.52-.11-2.3-.16-16.75-1.04-30.43-.35-30.55,1.56Z"/>
    <path class="cls-5" d="m105.64,156.04c-.12,1.91,13.37,4.3,30.12,5.34,7.99.5,15.25.6,20.7.36,1.94-1.25,3.82-2.56,5.65-3.96-5.23-1.34-14.85-2.62-25.92-3.31-16.75-1.04-30.43-.35-30.55,1.56Z"/>
  </g>
  <circle class="cls-3" cx="87.38" cy="88.95" r="86.55"/>
  <path class="cls-4" d="m151.51,88.95c.36,0,.64-1.41.84-4.15.04-.69.08-1.46.13-2.31,0-.85-.09-1.77-.15-2.77-.14-2.01-.27-4.35-.87-6.92-.85-5.2-2.95-11.42-6.53-18.08-3.61-6.63-9-13.64-16.53-19.66-.95-.74-1.91-1.5-2.88-2.26-1.01-.7-2.08-1.35-3.14-2.04-1.08-.65-2.11-1.43-3.27-1.99-1.15-.59-2.32-1.18-3.5-1.78-.59-.29-1.19-.59-1.78-.89-.62-.24-1.25-.49-1.88-.73-1.26-.49-2.53-.98-3.82-1.47-1.3-.46-2.66-.77-4-1.16-1.36-.34-2.7-.83-4.13-1.01-2.82-.46-5.68-1.08-8.64-1.15-1.48-.08-2.97-.24-4.47-.24-1.5.05-3.02.11-4.54.17-.76.04-1.53.03-2.3.12l-2.3.32c-1.53.23-3.09.4-4.64.7-3.05.78-6.21,1.38-9.22,2.58-3.1.97-6.03,2.45-9.04,3.87-1.47.78-2.87,1.68-4.32,2.53-.71.45-1.47.83-2.14,1.33l-2.05,1.5c-2.82,1.91-5.3,4.29-7.88,6.61-2.35,2.55-4.8,5.07-6.83,7.97l-1.6,2.13-1.41,2.27-1.4,2.29c-.49.76-.93,1.53-1.3,2.36-.79,1.62-1.58,3.25-2.37,4.88-.63,1.7-1.26,3.41-1.9,5.13-2.28,6.95-3.51,14.35-3.6,21.87.09,7.51,1.32,14.91,3.6,21.87.64,1.72,1.27,3.43,1.9,5.13.79,1.63,1.58,3.26,2.37,4.88.37.82.81,1.6,1.3,2.36l1.4,2.29,1.41,2.27,1.6,2.12c2.03,2.91,4.48,5.43,6.83,7.97,2.58,2.32,5.07,4.7,7.88,6.61l2.05,1.5c.68.5,1.43.89,2.14,1.33,1.45.85,2.86,1.75,4.32,2.53,3,1.42,5.93,2.9,9.04,3.87,3.01,1.21,6.17,1.81,9.22,2.58,1.54.3,3.1.47,4.64.7l2.3.32c.76.09,1.53.08,2.3.12,1.53.06,3.04.11,4.54.17,1.5,0,2.99-.16,4.47-.24,2.96-.07,5.82-.69,8.64-1.15,1.42-.18,2.76-.67,4.13-1.01,1.35-.39,2.71-.7,4-1.16,1.28-.5,2.56-.99,3.82-1.47.63-.25,1.25-.49,1.88-.73.6-.3,1.19-.59,1.78-.89,1.18-.6,2.34-1.19,3.5-1.78,1.16-.56,2.19-1.34,3.27-1.99,1.06-.69,2.13-1.34,3.14-2.04.97-.76,1.93-1.51,2.88-2.26,7.53-6.02,12.92-13.03,16.53-19.66,3.58-6.66,5.68-12.88,6.53-18.08.6-2.57.73-4.91.87-6.92.06-1.01.15-1.93.15-2.77-.05-.85-.09-1.62-.13-2.31-.2-2.74-.48-4.15-.84-4.15-.36,0-.78,1.41-1.25,4.02-.11.65-.23,1.38-.36,2.19-.16.8-.41,1.66-.62,2.6-.45,1.87-.87,4.03-1.73,6.36-1.37,4.74-3.87,10.28-7.59,16.1-3.75,5.79-9,11.78-16,16.79-6.97,4.97-15.64,9.13-25.53,10.71-2.48.3-4.98.78-7.57.75-1.29.02-2.59.13-3.89.09-1.31-.09-2.62-.18-3.95-.26-.66-.05-1.33-.06-1.99-.15l-1.98-.34c-1.32-.24-2.67-.41-3.99-.7-2.61-.76-5.32-1.3-7.89-2.42-2.65-.87-5.14-2.23-7.7-3.47-1.24-.69-2.43-1.5-3.67-2.24-.6-.39-1.25-.72-1.82-1.17l-1.73-1.32c-2.4-1.66-4.48-3.76-6.67-5.75-1.97-2.22-4.05-4.38-5.75-6.89l-1.35-1.82-1.18-1.95-1.18-1.96c-.41-.64-.79-1.31-1.09-2.02-.66-1.38-1.32-2.77-1.99-4.17-.53-1.45-1.05-2.91-1.58-4.37-1.9-5.92-2.93-12.2-3.02-18.61.09-6.41,1.12-12.69,3.02-18.61.53-1.46,1.06-2.92,1.58-4.37.67-1.39,1.33-2.78,1.99-4.17.3-.71.68-1.37,1.09-2.02l1.18-1.96,1.18-1.95,1.35-1.82c1.69-2.51,3.78-4.67,5.75-6.89,2.2-1.99,4.28-4.09,6.67-5.75l1.73-1.32c.57-.45,1.22-.78,1.82-1.17,1.23-.74,2.42-1.55,3.67-2.24,2.56-1.25,5.04-2.6,7.7-3.47,2.57-1.12,5.28-1.66,7.89-2.42,1.33-.29,2.67-.46,3.99-.7l1.98-.34c.66-.1,1.33-.1,1.99-.15,1.32-.09,2.64-.18,3.95-.26,1.31-.04,2.6.07,3.89.09,2.59-.03,5.09.45,7.57.75,9.9,1.58,18.56,5.74,25.53,10.71,6.99,5.02,12.25,11,16,16.8,3.72,5.81,6.22,11.36,7.59,16.1.86,2.33,1.28,4.49,1.73,6.36.22.94.46,1.8.62,2.6.13.8.25,1.53.36,2.19.47,2.61.89,4.02,1.25,4.02Z"/>
  <path class="cls-2" d="m72.35,118.49c.25-.99-.25-2.01-1.19-2.43-3.29-1.46-6.1-3.22-8.42-5.28-2.12-1.88-3.81-3.92-5.09-6.11-.57-.99-.24-2.25.74-2.84l9.81-5.89c.88-.53,2.01-.34,2.67.45,1.05,1.25,2.33,2.5,3.85,3.74,2.09,1.7,4.84,2.99,8.24,3.86,2.2.56,4.06.73,5.57.51,1.51-.22,2.46-1.06,2.83-2.53.17-.67.08-1.31-.25-1.93-.34-.62-.99-1.27-1.96-1.94-.97-.67-2.27-1.41-3.91-2.22-1.64-.81-3.67-1.77-6.09-2.88-2.17-.98-4.16-2.16-5.97-3.55-1.82-1.39-3.29-3-4.42-4.86-1.13-1.85-1.87-3.9-2.22-6.16-.35-2.26-.18-4.75.52-7.49,1.26-4.94,3.83-8.57,7.73-10.88,3.5-2.08,7.69-3.02,12.59-2.82.99.04,1.88-.61,2.12-1.57l1.53-6.01c.28-1.12,1.42-1.8,2.54-1.51l10.27,2.61c1.12.28,1.8,1.42,1.51,2.54l-1.48,5.81c-.24.96.23,1.96,1.12,2.39,3.07,1.51,5.61,3.24,7.62,5.18,1.7,1.65,3.12,3.31,4.25,4.98.67.99.37,2.35-.66,2.97l-9.75,5.86c-.89.54-2.05.34-2.7-.48-.96-1.21-2.11-2.35-3.47-3.41-1.9-1.48-4.25-2.57-7.05-3.29-1.94-.49-3.68-.62-5.24-.37-1.55.24-2.49,1-2.82,2.27-.19.74-.1,1.38.25,1.93.36.55,1.02,1.15,2,1.79.97.64,2.27,1.36,3.88,2.16,1.61.8,3.59,1.75,5.94,2.84,2.1.96,4.06,2.14,5.87,3.52,1.81,1.39,3.33,2.98,4.54,4.78,1.21,1.8,2.01,3.82,2.41,6.05.39,2.23.25,4.68-.43,7.35-1.27,5.01-3.92,8.78-7.94,11.31-3.63,2.28-7.92,3.38-12.87,3.3-.97-.02-1.83.63-2.07,1.57l-1.59,6.25c-.28,1.12-1.42,1.8-2.54,1.51l-10.27-2.61c-1.12-.28-1.8-1.42-1.51-2.54l1.51-5.95Z"/>
</svg>