<svg id="Illustration" xmlns="http://www.w3.org/2000/svg" viewBox="0 0 200 200"><defs><style>.cls-1{fill:#77456f}.cls-1,.cls-2,.cls-3,.cls-5,.cls-6,.cls-7{stroke-width:0}.cls-2{fill:#ff8000}.cls-3{fill:#fff}.cls-5{fill:#ffd066}.cls-6{fill:#ffcd20}.cls-7{fill:#eaae1a}</style></defs><path d="M192.89 139.74c-.19-1.18-3.27-14.19-3.08-13 .09.58-2.99-22.7-.78-3.47-.35-2.06 1.45 14.28 1.02 12.23 0-.02-.01-.03-.02-.05-1.23-6.46-2.51-12.9-3.83-19.34-1.35-6.61-2.75-13.2-4.17-19.79-1.41-6.51-2.85-13.02-4.31-19.52-1.46-6.5-2.94-13-4.43-19.5-.75-3.28-1.5-6.56-2.26-9.84-.33-1.43-.74-2.9-1.77-4-.94-.99-2.31-1.37-3.65-1.39-.72-.01-1.44.1-2.15.23l-9.1 1.92-4.28.9c-3.86.82-7.72 1.63-11.58 2.45-5.65 1.19-11.29 2.39-16.94 3.58-6.85 1.45-13.69 2.9-20.54 4.34-7.41 1.57-14.81 3.13-22.22 4.7-7.32 1.55-14.63 3.1-21.95 4.64-6.63 1.4-13.26 2.81-19.9 4.21-5.34 1.13-20.93 2.36-26.27 3.49-.94.48-2.12.28-3.14.6-.99.31-1.91.86-2.65 1.59-1.46 1.43-2.11 3.47-1.87 5.46-.04 1.22.25 2.45.48 3.63.29 1.55.58 3.11.9 4.66 0 .02.01.04.02.07 1.23 6.45 2.51 12.89 3.83 19.33 1.35 6.61 2.75 13.2 4.17 19.79 1.41 6.51 2.85 13.02 4.31 19.52 1.46 6.5 2.94 13 4.43 19.5.75 3.28 1.5 6.56 2.26 9.84.33 1.43.74 2.9 1.77 4 .94.99 2.31 1.37 3.65 1.39.72.01 1.44-.1 2.15-.23 10.37-2.19 20.75-4.39 31.12-6.59 8.49-1.8 16.98-3.6 25.46-5.39 7.81-1.65 15.62-3.31 23.43-4.96 8.34-1.77 16.67-3.53 25.01-5.3 10.07-2.13 20.14-4.26 30.22-6.4 1.44-.3 2.88-.61 4.32-.91l9.02-1.89c1.83-.38 3.66-.77 5.48-1.15.62-.13 1.24-.25 1.85-.42 1.82-.26 3.61-.97 4.77-2.44 1.54-1.94 1.57-4.14 1.2-6.49Z" style="fill:#e5b342;stroke-width:0"/><path class="cls-5" d="M196.74 129.95c-.35-2.08-.76-4.17-1.2-6.23 0-.02-.01-.03-.02-.05-1.23-6.46-2.51-12.9-3.83-19.34-1.35-6.61-2.75-13.2-4.17-19.79-.91-4.23-1.84-8.45-2.78-12.67L16.12 107.36c.6 2.84 1.21 5.69 1.82 8.53 1.41 6.51 2.85 13.02 4.31 19.52 1.46 6.5 2.94 13 4.43 19.5.75 3.28 1.5 6.56 2.26 9.84.33 1.43.74 2.9 1.77 4 .94.99 2.31 1.37 3.65 1.39.72.01 1.44-.1 2.15-.23 10.37-2.19 20.75-4.39 31.12-6.59 8.49-1.8 16.98-3.6 25.46-5.39 7.81-1.65 15.62-3.31 23.43-4.96 8.34-1.77 16.67-3.53 25.01-5.3 10.07-2.13 20.14-4.26 30.22-6.4 1.44-.3 2.88-.61 4.32-.91l9.02-1.89c1.83-.38 3.66-.77 5.48-1.15 1.52-.32 3.08-.6 4.37-1.53.8-.58 1.4-1.33 1.72-2.26.4-1.14.28-2.39.08-3.56ZM178.79 45.51c-.75-3.28-1.5-6.56-2.26-9.84-.33-1.43-.74-2.9-1.77-4-.94-.99-2.31-1.37-3.65-1.39-.72-.01-1.44.1-2.15.23-1.29.27-2.58.55-3.86.82l-5.23 1.11-4.28.9c-3.86.82-7.72 1.63-11.58 2.45-5.65 1.19-11.29 2.39-16.94 3.58-6.85 1.45-13.69 2.9-20.54 4.34-7.41 1.57-14.81 3.13-22.22 4.7-7.32 1.55-14.63 3.1-21.95 4.64-6.63 1.4-13.26 2.81-19.9 4.21l-16.03 3.39-10.21 2.16c-2.88.61-6.67 1.06-7.52 4.43-.4 1.58.03 3.23.32 4.79.29 1.55.58 3.11.9 4.66 0 .02.01.04.02.07.46 2.4.93 4.8 1.4 7.2l168.14-35.39-.69-3.06Z"/><path class="cls-2" d="M183.22 65.01c-1.23-5.48-2.48-10.96-3.73-16.44L11.34 83.96c.79 4.05 1.6 8.09 2.43 12.13.77 3.76 1.56 7.51 2.35 11.27l168.63-35.49c-.51-2.28-1.01-4.57-1.53-6.85Z"/><path class="cls-7" d="M47.9 59.18ZM47.86 59.18h.04-.04ZM47.64 59.23c.08-.02.14-.03.18-.04-.05.01-.11.02-.18.04ZM47.82 59.19h.04-.04Z"/><path class="cls-1" d="M44.91 136.89c-.07-.12-.23.07-.21.14.09.06.37-.03.21-.14ZM45.88 137.68c-.14-.16-.19.14.03.13.1-.15-.02-.09-.03-.13ZM48.31 134.2c.09-.1-.13-.21-.19-.16-.03.1.13.35.19.16ZM47.68 135.34c-.01.14.14.12.12.03.11-.11-.11-.2-.12-.03ZM60.84 133.21c-.07-.12-.23.07-.21.14.09.06.37-.03.21-.14ZM61.8 134c-.14-.16-.19.14.03.13.1-.15-.02-.09-.03-.13ZM64.23 130.52c.09-.1-.13-.21-.19-.16-.03.1.13.35.19.16ZM63.6 131.66c-.01.14.14.12.12.03.11-.11-.11-.2-.12-.03ZM81.9 128.44c-.07-.12-.24.07-.21.14.09.06.37-.03.21-.14ZM82.89 129.26c-.08-.14-.22.05-.06.11.14.05.15-.1.06-.11ZM85.22 125.69c.09-.1-.13-.21-.19-.16-.03.1.13.35.19.16ZM84.6 126.83c-.01.14.14.12.12.03.11-.11-.11-.2-.12-.03ZM96.9 125.11c-.07-.12-.24.07-.21.14.09.06.37-.03.21-.14ZM97.9 125.93c-.08-.14-.22.05-.06.11.14.05.15-.1.06-.11Z"/><rect class="cls-3" x="37.16" y="113.08" width="143.11" height="23.88" rx="6.84" ry="6.84" transform="rotate(-11.89 108.664 124.986)"/><path class="cls-1" d="M100.23 122.36c.09-.1-.13-.21-.19-.16-.03.1.13.35.19.16ZM99.6 123.5c-.01.14.14.12.12.03.11-.11-.11-.2-.12-.03ZM118.65 120.74c-.07-.12-.24.07-.21.14.09.06.37-.03.21-.14Z"/><path class="cls-6" d="M119.65 121.56c-.08-.14-.22.05-.06.11.14.05.15-.1.06-.11Z"/><path class="cls-1" d="M121.97 117.99c.09-.1-.13-.21-.19-.16-.03.1.13.35.19.16Z"/><path class="cls-6" d="M121.35 119.13c-.01.14.14.12.12.03.11-.11-.11-.2-.12-.03Z"/><path class="cls-1" d="M133.45 117.54c-.07-.12-.24.07-.21.14.09.06.37-.03.21-.14ZM134.44 118.35c-.08-.14-.22.05-.06.11.14.05.15-.1.06-.11ZM136.77 114.79c.09-.1-.13-.21-.19-.16-.03.1.13.35.19.16ZM136.15 115.93c-.01.14.14.12.12.03.11-.11-.11-.2-.12-.03Z"/><path class="cls-3" d="M191.53 136.58c.41 1.53-127.52 28.98-156.7 34.4 0 0-3.54.89-5.25-1.06-4.4-5.03-19.57-87.48-19.57-87.48S8.02 72.17 8.65 71.93c.53-.2 2.69 9.75 2.69 9.75s16.51 71.08 19.2 80.06c1.77 5.9 2.63 5.25 11.34 3.76 34.4-5.89 149.15-30.67 149.64-28.91Z"/><path class="cls-2" d="M186.93 128.1c.4 1.48-21.62 6.8-49.96 12.06 0 0-3.43.87-5.09-1.03-4.27-4.88-7.87-29-7.87-29s-1.32-10.08-.71-10.31c.18-.07.91-.3 1.16 1.3.43 2.72 1.72 8.3 1.72 8.3s3.26 13.43 5.88 22.15c1.72 5.73 3.31 4.72 11.77 3.27 24.15-4.14 39.14-7.18 41.43-7.86 1.74-.52 1.54.65 1.68 1.12Z"/><path class="cls-2" d="M123.11 100.13c-.37-1.44 21.86-6.32 50.42-11.08 0 0 3.47-.8 5.1 1.06 4.19 4.78 7.34 28.18 7.34 28.18s1.57 9.59.95 9.81c-.24.09-1.98.57-2.08 0-.41-2.47-2.36-16.76-6.54-30.66-1.67-5.56-3.24-4.61-11.76-3.31-25.26 3.85-38.16 7.08-42.55 7.25-.95.04-.78-.83-.89-1.25Z"/><path class="cls-1" d="M142.22 112.68c-.91-.45-2.9 1.73-4.44 4.87s-2.05 6.04-1.14 6.49c.91.45 2.9-1.73 4.44-4.87 1.54-3.13 2.05-6.04 1.14-6.49Z"/><path class="cls-1" d="M144.61 122.79c.58-.83-1.35-3.2-4.33-5.29-2.97-2.09-5.86-3.12-6.44-2.29-.58.83 1.35 3.2 4.33 5.29 2.97 2.09 5.86 3.12 6.44 2.29ZM170.72 106.02c-.91-.45-2.9 1.73-4.44 4.87-1.54 3.13-2.05 6.04-1.14 6.49.91.45 2.9-1.73 4.44-4.87 1.54-3.13 2.05-6.04 1.14-6.49Z"/><path class="cls-1" d="M173.11 116.14c.58-.83-1.35-3.2-4.33-5.29-2.97-2.09-5.86-3.12-6.44-2.29-.58.83 1.35 3.2 4.33 5.29 2.97 2.09 5.86 3.12 6.44 2.29ZM155.93 109.06c-.88-.5-3.04 1.69-4.44 5.05-1.41 3.37-1.43 6.44-.46 6.71.98.28 2.54-2.16 3.85-5.3 1.31-3.15 1.94-5.97 1.05-6.47Z"/><path class="cls-1" d="M158.93 119.77c.69-.73-1.02-3.48-4.1-5.81-3.08-2.33-6.19-3.23-6.7-2.36-.52.88 1.59 3.09 4.49 5.29 2.9 2.19 5.61 3.62 6.32 2.88Z"/></svg>