<svg id="Illustration" xmlns="http://www.w3.org/2000/svg" viewBox="0 0 200 200"><defs><style>.cls-1{fill:#f6c243}.cls-2{fill:#ff8000}</style></defs><path style="fill:#c1dade" d="M174.95 60.97 36.4 31.16l66.16 109.38 72.39-79.57z" id="Layer_6"/><path d="M104.86 78.36c1.11 3.03 2.4 6.32 3.82 9.75 5.73 13.79 11.51 24.49 12.9 23.91 1.4-.58-2.12-12.23-7.85-26.01a252.9 252.9 0 0 0-4.63-10.47c.57-.38 1.14-.76 1.72-1.15 7.33-4.98 13.83-9.73 18.54-13.48.39 2.42 1.37 5.73 2.82 9.27 2.72 6.66 6.07 11.6 7.47 11.03 1.4-.57.32-6.44-2.4-13.1-1.68-4.1-3.58-7.54-5.13-9.45 3.44-2.9 5.34-4.9 4.99-5.42-.85-1.25-13.99 6.2-29.36 16.63-.36.25-.71.49-1.07.73-2.82-5.48-5.04-8.83-5.84-8.5-.83.35.1 4.67 2.2 11.01-5.16 3.61-9.74 7-13.34 9.85 1.34-7.61 2.75-16.4 4.12-25.8.64-4.53 1.26-8.95 1.87-13.26l-7.56-1.63c-.44.29-.88.58-1.31.86-.54.37-1.08.73-1.61 1.09-2.11 1.45-4.13 2.84-6.04 4.16-3.8 2.65-7.14 5.05-9.88 7.09-5.48 4.08-8.57 6.76-8.23 7.28.34.52 4.05-1.19 10.03-4.5 2.99-1.66 6.54-3.71 10.53-6.09 1.98-1.2 4.08-2.47 6.28-3.79.55-.34 1.1-.67 1.66-1.02.12-.06.11-.04.17-.06.07-.02.11-.01.13 0-.03.08-.05.14-.07.18l-.03.04-.02.11-.04.23-.14.92c-.37 2.47-.75 5-1.13 7.56-1.69 11.56-3.06 22.27-4.01 31.01-2.11 1.92-3.2 3.22-2.93 3.63.2.3 1.13.09 2.6-.53-.89 8.72-1.29 15.07-1.07 17.7l.69 1.14c1-1.3 2.88-9.3 5.07-21.15 4.17-2.26 9.81-5.69 16.11-9.81Z" style="fill:#d6e8ea"/><path d="M102.66 144.48c-.12 0-.26 0-.38-.02a3.945 3.945 0 0 1-2.99-1.88l-3.6-5.95a3.938 3.938 0 0 1 1.33-5.41 3.938 3.938 0 0 1 5.41 1.33l1.77 2.92c.79.09 1.55.43 2.18 1a3.948 3.948 0 0 1 .27 5.57l-1.06 1.17c-.75.83-1.81 1.29-2.92 1.29Zm12.98-14.29c-.95 0-1.89-.33-2.65-1.02a3.948 3.948 0 0 1-.27-5.57l5.74-6.32a3.948 3.948 0 0 1 5.57-.27 3.948 3.948 0 0 1 .27 5.57l-5.74 6.32c-.77.85-1.85 1.29-2.92 1.29Zm-25.77-6.82c-1.33 0-2.63-.68-3.37-1.9l-4.43-7.3a3.938 3.938 0 0 1 1.33-5.41 3.938 3.938 0 0 1 5.41 1.33l4.43 7.3c1.13 1.86.53 4.28-1.33 5.41-.64.39-1.34.57-2.04.57Zm43.43-12.61c-.95 0-1.89-.33-2.65-1.02a3.948 3.948 0 0 1-.27-5.57l5.74-6.32a3.948 3.948 0 0 1 5.57-.27 3.948 3.948 0 0 1 .27 5.57l-5.74 6.32c-.77.85-1.85 1.29-2.92 1.29Zm-57.04-9.85c-1.33 0-2.63-.68-3.37-1.9l-4.43-7.3a3.938 3.938 0 0 1 1.33-5.41 3.938 3.938 0 0 1 5.41 1.33l4.43 7.3c1.13 1.86.53 4.28-1.33 5.41-.64.39-1.34.57-2.04.57Zm74.7-9.59c-.95 0-1.89-.33-2.65-1.02a3.948 3.948 0 0 1-.27-5.57l5.74-6.32a3.948 3.948 0 0 1 5.57-.27c1.62 1.46 1.73 3.95.27 5.57l-5.74 6.32c-.77.85-1.85 1.29-2.92 1.29ZM62.65 78.44c-1.33 0-2.63-.68-3.37-1.9l-4.43-7.3a3.938 3.938 0 0 1 1.33-5.41 3.938 3.938 0 0 1 5.41 1.33l4.43 7.3c1.13 1.86.53 4.28-1.33 5.41-.64.39-1.34.57-2.04.57Zm105.97-6.56c-.95 0-1.89-.33-2.65-1.02a3.948 3.948 0 0 1-.27-5.57l1.73-1.9-1.66-.35a3.933 3.933 0 0 1-3.02-4.68 3.933 3.933 0 0 1 4.68-3.02l8.35 1.79c2.13.46 3.48 2.55 3.02 4.68-.18.86-.64 1.59-1.25 2.13-.09.12-.18.23-.28.34l-5.74 6.32c-.77.85-1.85 1.29-2.92 1.29Zm-19.34-12.49c-.28 0-.55-.03-.83-.09l-8.35-1.79a3.933 3.933 0 0 1-3.02-4.68 3.933 3.933 0 0 1 4.68-3.02l8.35 1.79c2.13.46 3.48 2.55 3.02 4.68a3.939 3.939 0 0 1-3.85 3.11ZM49.05 55.98c-1.33 0-2.63-.68-3.37-1.9l-4.43-7.3a3.938 3.938 0 0 1 1.33-5.41 3.938 3.938 0 0 1 5.41 1.33l4.43 7.3c1.13 1.86.53 4.28-1.33 5.41-.64.39-1.34.57-2.04.57Zm74.56-2.11c-.28 0-.55-.03-.83-.09l-8.35-1.79a3.933 3.933 0 0 1-3.02-4.68 3.933 3.933 0 0 1 4.68-3.02l8.35 1.79c2.13.46 3.48 2.55 3.02 4.68a3.939 3.939 0 0 1-3.85 3.11Zm-25.68-5.52c-.28 0-.55-.03-.83-.09l-8.35-1.79a3.933 3.933 0 0 1-3.02-4.68 3.933 3.933 0 0 1 4.68-3.02l8.35 1.79c2.13.46 3.48 2.55 3.02 4.68a3.939 3.939 0 0 1-3.85 3.11Zm-25.68-5.52c-.28 0-.55-.03-.83-.09l-8.35-1.79a3.933 3.933 0 0 1-3.02-4.68 3.933 3.933 0 0 1 4.68-3.02l8.35 1.79c2.13.46 3.48 2.55 3.02 4.68a3.939 3.939 0 0 1-3.85 3.11Zm-25.67-5.52c-.28 0-.55-.03-.83-.09l-8.35-1.79a3.933 3.933 0 0 1-3.02-4.68 3.933 3.933 0 0 1 4.68-3.02l8.35 1.79c2.13.46 3.48 2.55 3.02 4.68a3.939 3.939 0 0 1-3.85 3.11Z" style="fill:#a0b4b5" id="Layer_5"/><ellipse class="cls-1" cx="36.47" cy="31.16" rx="13.05" ry="13.33"/><path class="cls-2" d="M66.2 31.16c0-16.43-13.37-29.8-29.8-29.8S6.6 14.73 6.6 31.16c0 1.6.14 3.24.43 4.95v.09c.02.1.04.19.06.28.4 2.28 1.04 4.68 1.95 7.22l.11-.04c5.06 13.07 16.3 23.64 26.28 32.97.28.26.6.34.89.31.3.04.62-.05.89-.31 10.33-9.65 21.94-20.62 26.85-34.28l.1.04c1.31-3.33 2.04-7.32 2.04-11.24Zm-12.15 0c0 9.73-7.92 17.65-17.65 17.65s-17.65-7.92-17.65-17.65 7.92-17.65 17.65-17.65 17.65 7.92 17.65 17.65Z"/><g id="Layer_8"><ellipse class="cls-1" cx="174.99" cy="60.97" rx="8.16" ry="8.34"/><path class="cls-2" d="M193.6 60.97c0-10.28-8.37-18.65-18.65-18.65s-18.65 8.37-18.65 18.65c0 1.01.09 2.05.27 3.13v.03c0 .05.02.1.03.15.25 1.44.65 2.94 1.22 4.54l.09-.03c3.19 8.18 10.15 14.77 16.42 20.64.18.16.37.22.56.19.18.02.39-.03.56-.19 6.49-6.07 13.68-12.91 16.78-21.46l.08.03c.82-2.09 1.27-4.58 1.27-7.03Zm-7.6 0c0 6.09-4.95 11.04-11.04 11.04s-11.04-4.95-11.04-11.04 4.95-11.04 11.04-11.04S186 54.88 186 60.97Z"/></g><ellipse class="cls-1" cx="102.66" cy="140.54" rx="16.47" ry="16.83"/><path class="cls-2" d="M140.19 140.54c0-20.75-16.88-37.62-37.62-37.62s-37.62 16.88-37.62 37.62c0 2.02.18 4.1.54 6.25v.12c.03.13.05.26.08.39.51 2.88 1.31 5.88 2.46 9.09l.12-.05c6.37 16.51 20.61 29.87 33.18 41.62.35.33.76.43 1.13.39.37.05.77-.06 1.13-.39 13.02-12.16 27.73-26.03 33.92-43.28l.11.05c1.65-4.21 2.57-9.24 2.57-14.2Zm-15.34 0c0 12.29-9.99 22.28-22.28 22.28s-22.28-9.99-22.28-22.28 9.99-22.28 22.28-22.28 22.28 9.99 22.28 22.28Z"/></svg>