<svg id="Illustration" xmlns="http://www.w3.org/2000/svg" viewBox="0 0 200 200"><defs><style>.cls-2{stroke-width:0;fill:#ba8d3c}</style></defs><path d="M153.59 87.9c.12-1.91 13.81-2.61 30.57-1.56 4.54.28 8.82.67 12.68 1.11a86.224 86.224 0 0 0-7.75-25.25c-4.93.08-10.88-.06-17.3-.46-16.77-1.05-30.26-3.44-30.14-5.35.12-1.91 13.81-2.61 30.57-1.56 4.88.3 9.47.73 13.54 1.21a87.083 87.083 0 0 0-13.25-17.15c-3.39-.06-7.05-.21-10.88-.45-16.77-1.05-30.26-3.44-30.14-5.35.12-1.91 13.81-2.61 30.57-1.56.78.05 1.54.1 2.3.16-14.69-11.46-33.15-18.3-53.22-18.3H85.39C70.72 28.91 24.53 76.96 24.53 100c0 24.34 44.69 70.87 60.86 86.61h25.75c17.26 0 33.33-5.07 46.83-13.77-5.46.24-12.73.14-20.72-.36-16.77-1.05-30.26-3.44-30.14-5.35.12-1.91 13.81-2.61 30.57-1.56 11.08.69 20.7 1.97 25.94 3.31a86.912 86.912 0 0 0 19.36-20.5c-5.52.27-13.06.18-21.36-.33-16.77-1.05-30.26-3.44-30.14-5.35.12-1.91 13.81-2.61 30.57-1.56 9.65.6 18.2 1.65 23.71 2.8a86.114 86.114 0 0 0 9.37-22.81c-4.14-.02-8.79-.17-13.73-.48-16.77-1.05-30.26-3.44-30.14-5.35.12-1.91 13.81-2.61 30.57-1.56 5.29.33 10.26.79 14.57 1.34.86-4.9 1.33-9.93 1.33-15.07 0-2.11-.1-4.2-.25-6.27-4.15-.02-8.82-.17-13.77-.48-16.77-1.05-30.26-3.44-30.14-5.35Z" style="fill:#e5b342;stroke-width:0"/><path class="cls-2" d="M184.17 86.34c-16.77-1.05-30.45-.35-30.57 1.56-.12 1.91 13.38 4.3 30.14 5.35 4.95.31 9.63.46 13.77.48-.15-2.11-.37-4.21-.67-6.28-3.85-.44-8.14-.83-12.68-1.11ZM131.5 142.7c-.12 1.91 13.38 4.3 30.14 5.35 8.3.52 15.84.61 21.36.33.98-1.45 1.9-2.94 2.78-4.44-5.51-1.15-14.06-2.2-23.71-2.8-16.77-1.05-30.45-.35-30.57 1.56ZM151.28 115.3c-.12 1.91 13.38 4.3 30.14 5.35 4.94.31 9.6.46 13.73.48.5-1.99.91-4.01 1.27-6.05-4.32-.54-9.28-1.01-14.57-1.34-16.77-1.05-30.45-.35-30.57 1.56ZM141.65 56.4c-.12 1.91 13.38 4.3 30.14 5.35 6.42.4 12.37.54 17.3.46-1.02-2.1-2.14-4.15-3.32-6.16a235.3 235.3 0 0 0-13.54-1.21c-16.77-1.05-30.45-.35-30.57 1.56ZM131.5 33.11c-.12 1.91 13.38 4.3 30.14 5.35 3.83.24 7.49.38 10.88.45a88.484 88.484 0 0 0-8.15-7.2c-.76-.05-1.52-.11-2.3-.16-16.77-1.05-30.45-.35-30.57 1.56ZM107.13 167.14c-.12 1.91 13.38 4.3 30.14 5.35 7.99.5 15.26.6 20.72.36 1.94-1.25 3.83-2.56 5.65-3.96-5.24-1.34-14.86-2.62-25.94-3.31-16.77-1.04-30.45-.35-30.57 1.56Z"/><circle cx="88.85" cy="100.01" r="86.61" style="fill:#f6c243;stroke-width:0"/><path d="M153.02 100.01c.36 0 .64-1.41.84-4.16.04-.69.08-1.46.13-2.31 0-.85-.09-1.77-.15-2.78-.14-2.01-.27-4.35-.87-6.92-.85-5.21-2.95-11.43-6.53-18.1-3.61-6.64-9-13.65-16.54-19.67-.95-.74-1.91-1.5-2.88-2.26-1.01-.7-2.08-1.35-3.14-2.04-1.08-.65-2.11-1.43-3.28-2-1.15-.59-2.32-1.18-3.5-1.78-.59-.29-1.19-.59-1.79-.89-.62-.24-1.25-.49-1.88-.73-1.26-.49-2.53-.98-3.82-1.48-1.3-.46-2.66-.77-4.01-1.16-1.36-.34-2.71-.83-4.13-1.01-2.82-.46-5.68-1.08-8.65-1.15-1.48-.08-2.97-.24-4.47-.24-1.5.05-3.02.11-4.55.17-.76.04-1.53.03-2.3.12l-2.3.32c-1.53.23-3.1.4-4.64.7-3.05.78-6.21 1.38-9.23 2.59-3.1.97-6.04 2.45-9.04 3.87-1.47.78-2.88 1.68-4.33 2.53-.71.45-1.47.83-2.15 1.33l-2.05 1.5c-2.82 1.91-5.31 4.3-7.89 6.61-2.35 2.55-4.8 5.07-6.83 7.98l-1.6 2.13-1.41 2.27-1.4 2.29c-.49.76-.93 1.54-1.3 2.36-.79 1.62-1.58 3.25-2.37 4.88-.63 1.7-1.27 3.41-1.9 5.13-2.29 6.96-3.51 14.36-3.6 21.88.09 7.52 1.32 14.92 3.6 21.88.64 1.72 1.27 3.43 1.9 5.13.79 1.63 1.58 3.26 2.37 4.88.37.82.82 1.6 1.3 2.36l1.4 2.29 1.41 2.27 1.6 2.13c2.03 2.91 4.48 5.43 6.83 7.98 2.58 2.32 5.07 4.7 7.89 6.61l2.05 1.5c.68.5 1.43.89 2.15 1.33 1.45.85 2.86 1.75 4.33 2.53 3.01 1.42 5.94 2.9 9.04 3.87 3.02 1.21 6.17 1.81 9.23 2.59 1.55.3 3.11.47 4.64.7l2.3.32c.76.09 1.54.08 2.3.12 1.53.06 3.04.11 4.55.17 1.5 0 2.99-.16 4.47-.24 2.96-.07 5.83-.69 8.65-1.15 1.42-.18 2.77-.67 4.13-1.01 1.35-.39 2.71-.7 4.01-1.16 1.29-.5 2.56-.99 3.82-1.48.63-.25 1.25-.49 1.88-.73.6-.3 1.19-.59 1.79-.89l3.5-1.78c1.16-.56 2.19-1.34 3.28-1.99 1.06-.69 2.13-1.34 3.14-2.04.97-.76 1.93-1.51 2.88-2.26 7.54-6.03 12.93-13.03 16.54-19.67 3.58-6.67 5.68-12.89 6.53-18.1.6-2.57.73-4.91.87-6.92.06-1.01.15-1.93.15-2.78-.05-.85-.09-1.62-.13-2.31-.2-2.75-.48-4.16-.84-4.16s-.78 1.41-1.25 4.02c-.11.65-.23 1.38-.36 2.19-.16.8-.41 1.66-.62 2.6-.45 1.87-.87 4.03-1.73 6.37-1.37 4.74-3.88 10.29-7.6 16.11-3.75 5.79-9.01 11.79-16.01 16.81-6.98 4.97-15.65 9.14-25.55 10.72-2.48.3-4.98.78-7.58.75-1.29.02-2.59.13-3.9.09-1.31-.09-2.62-.18-3.95-.26-.66-.05-1.33-.06-1.99-.15l-1.98-.34c-1.32-.24-2.67-.41-4-.7-2.61-.76-5.33-1.31-7.89-2.42-2.66-.87-5.14-2.23-7.7-3.48-1.25-.69-2.44-1.5-3.67-2.24-.6-.39-1.25-.72-1.82-1.17l-1.73-1.32c-2.4-1.67-4.48-3.76-6.68-5.75-1.97-2.22-4.06-4.38-5.75-6.89l-1.35-1.82-1.18-1.95-1.18-1.96c-.41-.64-.79-1.31-1.09-2.02-.66-1.38-1.33-2.77-1.99-4.17-.53-1.45-1.05-2.91-1.58-4.37a63.994 63.994 0 0 1-3.02-18.62c.09-6.41 1.12-12.69 3.02-18.62.53-1.46 1.06-2.92 1.58-4.37.67-1.39 1.33-2.78 1.99-4.17.3-.71.68-1.37 1.09-2.02l1.18-1.96 1.18-1.95 1.35-1.82c1.7-2.51 3.78-4.67 5.75-6.89 2.2-1.99 4.28-4.09 6.68-5.75l1.73-1.32c.57-.45 1.22-.78 1.82-1.17 1.23-.74 2.42-1.55 3.67-2.24 2.56-1.25 5.05-2.6 7.7-3.48 2.57-1.12 5.28-1.66 7.89-2.42 1.33-.29 2.67-.46 4-.7l1.98-.34c.66-.1 1.33-.1 1.99-.15 1.33-.09 2.64-.18 3.95-.26 1.31-.04 2.61.07 3.9.09 2.59-.03 5.09.45 7.58.75 9.9 1.58 18.57 5.74 25.55 10.71a62.49 62.49 0 0 1 16.01 16.81c3.72 5.82 6.23 11.36 7.6 16.11.86 2.33 1.28 4.49 1.73 6.37.22.94.46 1.8.62 2.6.13.8.25 1.53.36 2.19.47 2.62.89 4.02 1.25 4.02Z" style="stroke-width:0;fill:#cc9e40"/><path d="M73.81 129.57c.25-.99-.25-2.01-1.19-2.43-3.29-1.46-6.1-3.23-8.42-5.29-2.12-1.88-3.82-3.92-5.09-6.11-.57-.99-.24-2.25.74-2.84l9.82-5.9a2.09 2.09 0 0 1 2.68.45c1.05 1.25 2.33 2.5 3.85 3.74 2.09 1.71 4.84 2.99 8.25 3.86 2.2.56 4.06.73 5.58.51 1.51-.22 2.46-1.06 2.83-2.53.17-.67.08-1.31-.26-1.93-.34-.62-.99-1.27-1.96-1.94-.97-.67-2.27-1.41-3.92-2.22-1.64-.81-3.68-1.77-6.09-2.88-2.17-.98-4.16-2.16-5.98-3.55-1.82-1.39-3.29-3.01-4.42-4.86-1.13-1.85-1.87-3.91-2.22-6.17-.35-2.26-.18-4.76.52-7.5 1.26-4.94 3.84-8.57 7.73-10.89 3.5-2.08 7.7-3.02 12.6-2.82.99.04 1.88-.61 2.12-1.57l1.53-6.01c.28-1.12 1.42-1.8 2.54-1.51l10.27 2.61c1.12.28 1.8 1.42 1.51 2.54l-1.48 5.82c-.24.96.23 1.96 1.12 2.4 3.07 1.51 5.61 3.24 7.62 5.19 1.7 1.65 3.12 3.31 4.25 4.99a2.1 2.1 0 0 1-.66 2.97l-9.76 5.86c-.89.54-2.05.34-2.7-.48-.96-1.21-2.12-2.35-3.48-3.41-1.9-1.48-4.25-2.58-7.06-3.29-1.94-.49-3.68-.62-5.24-.37s-2.5 1-2.82 2.27c-.19.74-.1 1.38.26 1.93s1.02 1.15 2 1.79c.97.64 2.27 1.36 3.88 2.16 1.61.8 3.59 1.75 5.94 2.85 2.1.96 4.06 2.14 5.88 3.52 1.82 1.39 3.33 2.98 4.54 4.78 1.21 1.8 2.02 3.82 2.41 6.05s.25 4.69-.43 7.36c-1.28 5.01-3.93 8.78-7.95 11.31-3.63 2.28-7.92 3.38-12.88 3.3-.97-.02-1.83.63-2.07 1.57l-1.59 6.25a2.081 2.081 0 0 1-2.54 1.51l-10.27-2.62a2.081 2.081 0 0 1-1.51-2.54l1.51-5.95Z" style="fill:#fff;stroke-width:0"/></svg>