<svg id="Layer_1" xmlns="http://www.w3.org/2000/svg" viewBox="0 0 200 112.88"><defs><style>.cls-1{fill:none}.cls-4{fill:#78577a}.cls-5{fill:#6a4a6b}.cls-6{fill:#fcb9c4}.cls-7{fill:#fff}.cls-8{fill:#f2a6b0}.cls-9{fill:#f75e28}.cls-10{fill:#c1dade}.cls-11{fill:#5b3d5b}.cls-12{fill:#bf9dd6}</style></defs><path class="cls-6" d="M-13.85-6.07h224.38v126.91H-13.85z"/><path d="m120.71 92.95-10.45-4.06s-24.23-2.53-26.03-2.17-1.14.97-1.14.97 33.16 8 36.23 7.97c3.07-.04 1.4-2.71 1.4-2.71z" style="fill:#eaeaea"/><path class="cls-7" d="m120.34 87.02-8.8 6.78s-23.94 4.54-25.76 4.33-1.22-.87-1.22-.87 31.1-12.6 34.16-12.81c3.06-.22 1.62 2.58 1.62 2.58z"/><path class="cls-9" d="M118.12 82.94c-.49.29-.69.9-.45 1.42.61 1.35 1.27 3.47 2.22 3.79.63.21 8.66-3.97 10.81-4.37 1.6-.3 3.38-.33 4.37-.54 3.66-.78 9.09-10.93-.23-13.52-4.09-1.14-6.39 1.66-7.63 4.38-1.46 3.22-3.94 5.87-6.99 7.64l-2.1 1.22z"/><ellipse class="cls-6" cx="133.26" cy="76.12" rx="4.6" ry="4.24" transform="rotate(-32.12 133.254 76.108)"/><path class="cls-9" d="m120.35 92.93-.57 2.63c-.12.55.2 1.1.73 1.27 1.48.48 4.48 1.52 7.32 2.96 3.98 2.02 10.85 5.05 15.27 2.87 4.54-2.24 5.12-5.16 3.02-8.04-1.86-2.55-20.43-2.58-24.71-2.56-.51 0-.95.36-1.06.86z"/><path class="cls-8" d="M137.75 100.45c-4.71-.24-9.28-2.84-9.09-4.05.39-2.37 3.01-1.52 7.72-1.29 4.71.24 7.42.11 7.41 2.79 0 1.22-1.34 2.78-6.05 2.54z"/><path class="cls-11" d="M38.82 29.11h119.43v5.72H38.82z"/><rect class="cls-4" x="32.2" y="20.79" width="12.76" height="21.87" rx="6.38" ry="6.38"/><rect class="cls-4" x="155.08" y="20.28" width="12.76" height="21.87" rx="6.38" ry="6.38"/><path class="cls-5" d="M38.47 21.77c-.48 0-.92-.2-.85-2.43.06-2.22.75-3.97 1.23-3.92.49.05.59 1.84.53 4.01-.07 2.17-.42 2.33-.91 2.34z"/><path class="cls-5" d="M44.68 15.67c.13.46-2.5 1.62-5.95 2.29-3.45.67-6.33.58-6.38.1-.05-.49 2.67-1.18 6.04-1.83 3.37-.65 6.15-1.03 6.29-.55zM138.18 34.11c-.41 1.44-.81 2.95-1.41 4.32a6.725 6.725 0 0 0 4.13-6.21v-1.5c0-.37-.04-.74-.09-1.1-.1.09-.21.17-.31.26-1.2 1.18-1.86 2.62-2.32 4.22zM136.03 31.21c.76-1.78 2.02-3.3 3.57-4.44a6.732 6.732 0 0 0-2.81-2.24c-1.81-.3-2.93 2.02-3.4 3.42-.71 2.12-1.27 4.16-2.7 5.92-2.53 3.09-6.75 4.49-10.62 3.7-1.89-.39-1.09-3.28.8-2.89 3.44.7 7.16-1.25 8.6-4.44.92-2.04 1.15-4.35 2.53-6.18.16-.21.33-.4.5-.59l-3.59-.79c-.43 1.46-.86 2.94-1.95 4.06-1.02 1.05-2.38 1.57-3.66 2.21-.53.27-1.03.56-1.45.99-.18.18-.35.4-.44.6-.07.16-.12.39-.11.45.12.8-.19 1.61-1.05 1.85-.72.2-1.72-.25-1.85-1.05-.31-2.02.7-3.63 2.3-4.79 1.18-.86 2.75-1.2 3.86-2.13.84-.71 1.13-1.79 1.42-2.84l-14.27-3.15c-.48-.1-.96-.16-1.45-.16H88.44c-.5 0-1 .06-1.49.17l-17.62 4c-.28.44-.45.94-.58 1.45-.46 1.82-.52 3.68-1.48 5.34-1.02 1.76-2.77 2.82-4.83 2.59-.98-.11-1.91-.48-2.89-.57-.2-.02-.63.01-.9.12v.4c0 1.46.47 2.81 1.26 3.91a5.66 5.66 0 0 1 2.54-1.47c1.39-.37 2.85-.26 4.23-.63 1.12-.3 1.8-1.05 2.29-2.07 1.15-2.39 1.14-5.18 2.99-7.25 1.72-1.93 4.74-2.46 6.75-.7 1.46 1.28-.67 3.39-2.12 2.12-.47-.42-1.24-.2-1.73.07-.81.43-1.27 1.28-1.58 2.11-.74 1.93-.95 4.04-2.07 5.82-1.31 2.09-3.3 2.85-5.67 3.1-.99.11-2.07.11-2.98.56-.14.07-.3.18-.45.3.97.54 2.08.85 3.27.85h7.1c.04-.2.09-.41.13-.61.31-1.69.66-3.39 1.87-4.7a4.155 4.155 0 0 1 4.83-.98c.74.34.92 1.41.54 2.05-.44.75-1.32.87-2.05.54.11.05.07.04-.08 0H77.49c-.07.02-.27.08-.33.1-.02.02-.26.16-.28.16-.33.25-.65.78-.81 1.21-.27.72-.4 1.48-.53 2.23h57.49c.57-.6.98-1.39 1.27-2.13.71-1.84.97-3.81 1.76-5.62z"/><path class="cls-5" d="M60.2 28.78c1.04.15 2.37.83 3.41.44.64-.24 1.06-.93 1.32-1.53.55-1.28.65-2.68.93-4.02l-1.97.45c-2.4.55-4.24 2.34-4.93 4.6.41-.02.83 0 1.24.06z"/><path class="cls-4" d="M59.55 31.71c.97.09 1.91.46 2.89.57 2.06.23 3.82-.83 4.83-2.59.96-1.66 1.03-3.53 1.48-5.34.13-.52.3-1.02.58-1.45l-3.47.79c-.29 1.34-.38 2.75-.93 4.02-.26.6-.68 1.29-1.32 1.53-1.03.39-2.37-.29-3.41-.44-.42-.06-.83-.08-1.24-.06a6.75 6.75 0 0 0-.31 1.96v1.13c.26-.1.7-.13.9-.12z"/><path class="cls-4" d="M65.54 37.24c2.36-.25 4.36-1.01 5.67-3.1 1.12-1.78 1.33-3.89 2.07-5.82.32-.83.78-1.68 1.58-2.11.49-.26 1.26-.48 1.73-.07 1.45 1.27 3.58-.85 2.12-2.12-2.01-1.76-5.03-1.22-6.75.7-1.85 2.07-1.84 4.86-2.99 7.25-.49 1.02-1.16 1.77-2.29 2.07-1.38.37-2.85.26-4.23.63-.95.26-1.85.78-2.54 1.47.58.81 1.33 1.48 2.2 1.97.14-.13.3-.23.45-.3.91-.45 1.99-.46 2.98-.56zM72.08 40.41s0 .03-.01.04c.03-.06.03-.07.01-.04zM76.86 35.51l.02-.02c-.02.01-.02.02-.02.02z"/><path class="cls-4" d="m76.86 35.51.02-.02-.02.02c.02 0 .26-.15.28-.16h-.03c.03-.01.03-.01.03 0 .06-.02.26-.08.33-.1h.02-.03c.09-.02.09-.01.03 0h.21-.01.01c.15.05.18.05.08 0 .74.34 1.61.21 2.05-.54.38-.64.2-1.71-.54-2.05-1.66-.76-3.58-.37-4.83.98-1.21 1.31-1.57 3.01-1.87 4.7-.04.2-.08.41-.13.61h3.04c.13-.76.26-1.51.53-2.23.16-.42.47-.95.81-1.21zM77.11 35.36h.03-.03z"/><path class="cls-4" d="M77.47 35.24h.03c.06-.01.06-.02-.03 0zM77.7 35.24h.01-.01zM120.71 27c-1.6 1.16-2.61 2.77-2.3 4.79.12.8 1.13 1.24 1.85 1.05.86-.24 1.17-1.04 1.05-1.85 0-.06.04-.29.11-.45.09-.21.27-.42.44-.6.42-.43.91-.73 1.45-.99 1.28-.64 2.64-1.16 3.66-2.21 1.09-1.12 1.52-2.6 1.95-4.06l-2.92-.64c-.29 1.05-.58 2.14-1.42 2.84-1.1.92-2.67 1.27-3.86 2.13zM129.46 30.24c-1.44 3.19-5.16 5.14-8.6 4.44-1.88-.39-2.69 2.51-.8 2.89 3.88.79 8.1-.61 10.62-3.7 1.44-1.76 2-3.8 2.7-5.92.47-1.41 1.59-3.72 3.4-3.42-.37-.16-.76-.29-1.16-.37l-3.13-.69c-.18.19-.35.39-.5.59-1.38 1.83-1.61 4.14-2.53 6.18zM136.03 31.21c-.78 1.82-1.05 3.79-1.76 5.62-.28.74-.7 1.52-1.27 2.13h1.17c.92 0 1.8-.19 2.59-.52.6-1.37 1-2.89 1.41-4.32.45-1.6 1.11-3.04 2.32-4.22.1-.1.21-.17.31-.26-.17-1.05-.6-2.02-1.21-2.86-1.54 1.14-2.8 2.66-3.57 4.44z"/><path class="cls-10" d="M77.26 20.86c.98.18 1.01 4.35 1.26 9.35.21 5.01.56 9.16-.4 9.43-.46.12-1.17-.81-1.82-2.48-.64-1.66-1.19-4.08-1.31-6.79-.12-2.71.2-5.17.69-6.88.49-1.72 1.11-2.71 1.58-2.63zM122.33 39.49c-.98-.14-1.18-4.33-1.08-9.41.12-5.08.51-9.26 1.49-9.36.96-.1 2.16 4.12 2.04 9.43-.11 5.31-1.5 9.48-2.45 9.34z"/><circle class="cls-4" cx="38.48" cy="17.21" r="3.48"/><path class="cls-5" d="M161.46 21.41c-.48.03-.93-.15-.98-2.38-.06-2.22.54-4 1.02-3.98.49.03.69 1.8.75 3.97.05 2.17-.29 2.35-.78 2.38z"/><path class="cls-5" d="M167.57 17.08c0 .48-2.86.85-6.36.52-3.5-.33-6.23-1.22-6.15-1.7.09-.49 2.9-.38 6.31-.06 3.41.33 6.19.74 6.19 1.24z"/><circle class="cls-4" cx="161.45" cy="16.7" r="3.48" transform="rotate(-59.98 161.455 16.699)"/><path class="cls-7" d="M162.93 17.38c-.46-.17-.66-.86-.94-1.45-.23-.61-.58-1.23-.39-1.68.11-.21.42-.31.84-.17.41.13.91.54 1.17 1.16.26.62.21 1.26.02 1.65-.19.4-.48.55-.71.48zM39.8 17.83c-.46-.17-.66-.86-.94-1.45-.23-.61-.58-1.23-.39-1.68.11-.21.42-.31.84-.17.41.13.91.54 1.17 1.16.26.62.21 1.26.02 1.65-.19.4-.48.55-.71.48zM42.7 28.25c-.5-.03-.82-1.28-1.53-2.56-.67-1.31-1.52-2.27-1.27-2.7.13-.2.56-.2 1.13.1.56.29 1.23.91 1.69 1.77.46.86.59 1.76.52 2.39-.07.64-.31 1-.55.99zM165.77 27.99c-.5-.03-.82-1.28-1.53-2.56-.67-1.31-1.52-2.27-1.27-2.7.13-.2.56-.2 1.13.1.56.29 1.23.91 1.69 1.77.46.86.59 1.76.52 2.39-.07.64-.31 1-.55.99zM138.67 30.73c-.24-.08-.29-.53-.52-1.05-.22-.53-.65-1.2-1.31-1.74-.68-.56-1.49-.97-2.09-1.33-.6-.36-.98-.67-.91-.91.06-.23.54-.35 1.29-.28.74.07 1.83.34 2.83 1.15 1.03.85 1.48 2.07 1.42 2.94-.06.9-.51 1.31-.71 1.22zM119.88 23.53c-.27.06-.64-1.17-1.83-2.72-1.16-1.55-3.27-3.34-6.03-4.46-2.78-1.12-5.57-1.54-7.58-1.9-2.02-.34-3.29-.63-3.27-.88.02-.24 1.3-.4 3.39-.37 2.07.05 5.04.27 8.13 1.51 3.1 1.25 5.39 3.48 6.41 5.42 1.06 1.95.98 3.38.78 3.4z"/><path style="stroke:#78577a;stroke-linecap:round;stroke-linejoin:round;fill:none" d="m99.79 118.78.39-80.92"/><path class="cls-5" d="M98.25 36.51h3.62v2.07h-3.62z"/><path class="cls-1" d="M123.56 34.44c-.05 0-.04 0 0 0zM85.62 40.1c.05-.1.09-.19.14-.28-.05.09-.1.18-.14.28z"/><path class="cls-4" d="M79.88 20.99c.93-1.62 1.12-3.57 1.45-5.37.12-.67.27-1.33.45-1.98-4.29 2.52-5.06 6.07-5.06 8.95v.37c1.33.17 2.53-.86 3.16-1.96z"/><path class="cls-11" d="M113.94 41.5c-.74-.2-1.32-1.08-1.05-1.85.08-.23.17-.47.26-.7-.42-.26-.94-.31-1.74-.31h-4.81c-1.98.57-4.12.34-6.16-.02h-5.59c-1.46.58-3.11.75-4.76.82l-2.42 5.77h23.31l3.02-.02c.69-.02 1.36-.12 2-.29l-1.33-3.41c-.23.06-.49.07-.75 0z"/><path class="cls-4" d="M85.69 22.43c.53-1.61 1.31-3.14 2.61-4.27 1.19-1.03 2.63-1.65 4.1-2.2 1.45-.54 3-.96 4.27-1.86 1.25-.89 1.98-2.19 2.31-3.64h-.54c-5.41 0-9.49.55-12.57 1.46-.4.5-.72 1.07-.92 1.62-.69 1.84-.82 3.83-1.26 5.73-.44 1.87-1.22 3.82-2.71 5.1-1.21 1.04-2.69 1.65-4.25 1.58v5.96c1.58-.64 3.3-.59 4.89-1.19 3.14-1.19 3.19-5.58 4.08-8.29z"/><path class="cls-5" d="M105.88 35.73h-4.7c1.55.27 3.26.49 4.7 0zM115.78 40.45c-.19.52-.59.92-1.1 1.05l1.33 3.41.13-.03v-5.4c-.12.31-.25.65-.37.98zM110.48 35.73c-.63.94-1.41 1.77-2.45 2.34-.46.26-.95.43-1.43.58h4.81c.8 0 1.32.05 1.74.31.39-1 .86-2 1.5-2.85a2.91 2.91 0 0 0-1.41-.38h-2.76zM94.86 38.62h5.59c-.21-.03-.43-.06-.64-.1-1.55-.29-1.3-2.26-.13-2.79h-1.46c-.05.09-.09.17-.15.26-.84 1.32-1.95 2.13-3.21 2.64zM85.46 40.51c.05-.15.11-.29.17-.41.04-.1.09-.19.14-.28-.7.19-1.37.49-1.97.97v3.97l1.45-3.62.22-.64zM90.85 36.45c1.09-.05 2.25-.21 3.22-.72h-7.38c-1.06 0-1.98.58-2.49 1.42.27-.1.55-.2.84-.27 1.9-.49 3.87-.34 5.81-.44z"/><path class="cls-11" d="M113.72 45.22c.1 0 .2-.01.29-.02l-3.02.02h2.73zM85.62 40.1c-.06.13-.11.26-.17.41l-.22.64.53-1.33c-.05.09-.1.18-.14.28zM85.24 41.15l.22-.64-.22.64z"/><path class="cls-11" d="M85.62 40.1c-.06.13-.11.26-.17.41.05-.15.11-.28.17-.41zM106.6 38.64l4.81.01-4.81-.01zM94.86 38.62l5.58.01-5.58-.01z"/><path class="cls-4" d="M88.71 39.48c-1 .02-2 .08-2.93.33l-.53 1.33-1.31 3.87s-.09-.02-.14-.04c-.03 0-.05-.02-.08-.02L78.77 57.3c-.09.22.1.45.33.41l3.46-.66c.1-.02.18-.09.22-.18l4.9-11.65 2.42-5.77c-.47.02-.93.03-1.39.04z"/><path class="cls-4" d="m83.79 44.76-.08.19s.05.02.08.02v-.21zM83.79 44.76v.21s.09.03.14.04l1.31-3.87-1.45 3.62z"/><path class="cls-5" d="M80.12 34.12c1.75-.3 3.42-.71 4.76-1.95 2.53-2.33 2.7-5.89 3.71-8.95.52-1.58 1.37-2.79 2.84-3.59 1.37-.75 2.9-1.14 4.33-1.72 3.15-1.28 5.61-3.59 6.22-7.06.02-.12.03-.23.03-.34-.84-.03-1.71-.05-2.62-.05h1.19-1.6c-.34 1.46-1.06 2.75-2.31 3.64-1.28.91-2.82 1.33-4.27 1.86-1.47.54-2.9 1.16-4.1 2.2-1.29 1.12-2.08 2.66-2.61 4.27-.89 2.71-.93 7.1-4.08 8.29-1.58.6-3.31.56-4.89 1.19v3.51c.75-.92 2.33-1.11 3.39-1.3zM80.98 24.36c1.49-1.28 2.27-3.23 2.71-5.1.45-1.9.57-3.89 1.26-5.73.21-.55.52-1.12.92-1.62-1.63.48-2.98 1.06-4.09 1.72-.19.65-.33 1.32-.45 1.98-.33 1.8-.52 3.76-1.45 5.37-.63 1.1-1.82 2.13-3.16 1.96v3c1.56.07 3.03-.54 4.25-1.58zM100.61 35.62a1.51 1.51 0 0 0-.93.1h1.5c-.19-.03-.38-.07-.57-.1zM99.81 38.52c.21.04.42.08.64.11h6.16c.49-.13.97-.31 1.43-.57 1.04-.57 1.81-1.4 2.45-2.34h-4.61c-1.45.49-3.16.27-4.7 0h-1.5c-1.16.53-1.41 2.5.13 2.79z"/><path class="cls-11" d="M106.6 38.64h-6.16c2.04.35 4.18.58 6.16 0z"/><path class="cls-5" d="m100.44 38.63 6.16.01-6.16-.01zM123.59 34.44h-.03.04zM122.1 34.39s.03 0 0 0-.04 0 0 0zM116.95 37.97c.04-.06-.05.05 0 0zM118.52 37h.06-.06zM117.91 37.17s.03-.02.05-.03c-.05.02-.06.03-.05.03zM114.32 40.55l.37.95c.5-.13.91-.53 1.1-1.05.12-.33.24-.66.37-.98v-.85c0-1.09-.61-2.03-1.49-2.52-.64.84-1.12 1.85-1.5 2.85.42.26.75.74 1.16 1.6z"/><path class="cls-5" d="M113.15 38.95c-.09.23-.18.47-.26.7-.27.76.31 1.64 1.05 1.85.26.07.52.06.75 0l-.37-.95c-.42-.86-.74-1.34-1.16-1.6zM85.77 39.82c0-.01.01-.03.02-.04.25-.44.56-.73.95-.91-.41.18-.72.48-.98.95zM87.42 38.68c-.08.01-.16.03-.23.05.07-.02.15-.03.23-.05zM87.86 38.62c-.07 0-.13.01-.2.02.07 0 .13-.02.2-.02zM87.04 38.76c-.08.02-.17.05-.25.08.08-.03.16-.06.25-.08zM111.04 11.58v.01-.01z"/><path class="cls-5" d="M86.74 38.87s.03-.02.05-.02c.08-.03.16-.06.25-.08.05-.01.1-.03.15-.04.07-.02.15-.03.23-.05l.24-.03c.07 0 .13-.02.2-.02.16-.01.33-.02.5-.02h2.09l4.41.01c1.26-.51 2.38-1.31 3.21-2.64.05-.08.1-.17.15-.26h-4.15c-.97.51-2.13.67-3.22.72-1.94.09-3.9-.05-5.81.44-.29.07-.56.17-.84.27-.26.43-.42.94-.42 1.48v2.16c.6-.47 1.27-.78 1.97-.97.26-.46.57-.76.98-.95z"/><path class="cls-5" d="m85.77 39.82.02-.04s-.01.03-.02.04z"/><path class="cls-11" d="M90.1 39.45c1.65-.07 3.3-.24 4.76-.83h-4.41l-.35.83z"/><rect class="cls-5" x="92.65" y="36.41" height="4.41"/><path class="cls-4" d="M88.36 38.61c-.18 0-.35 0-.5.02-.07 0-.13.01-.2.02-.08 0-.16.02-.24.03-.08.01-.16.03-.23.05-.05.01-.1.03-.15.04-.08.03-.17.05-.25.08-.02 0-.03.02-.05.02-.4.18-.7.47-.95.91l-.02.04c.94-.25 1.93-.32 2.93-.33.46 0 .93-.02 1.39-.04l.35-.83h-2.09z"/><path class="cls-5" d="M87.19 38.72s-.1.03-.15.04c.05-.01.1-.03.15-.04zM87.66 38.64c-.08 0-.16.02-.24.03l.24-.03zM86.79 38.85s-.03.02-.05.02c.02 0 .03-.02.05-.02zM90.45 38.61h-2.09 2.09zM88.36 38.61c-.18 0-.35 0-.5.02.16-.01.33-.02.5-.02z"/><path class="cls-4" d="m112.16 45.26-2.78-6.61h2.09c1.3 0 2.05.26 2.57 1.17l.55 1.37 6.48 16.16c.09.22-.1.45-.33.41l-3.46-.66a.31.31 0 0 1-.22-.18"/><path class="cls-1" d="M116.95 37.97c.04-.06-.05.05 0 0zM122.1 34.39s-.04 0 0 0c.05 0 .03 0 0 0z"/><path class="cls-4" d="M118.08 37.38c-1.44-.89-1.51-2.35-2.13-3.78-.82-1.87-2.27-2.48-4.25-2.38-2.18.11-4.27.82-6.47.56-1.82-.22-3.52-1.03-4.53-2.61-.85-1.32-1.1-3.06-.71-4.58.49-1.86 1.98-2.84 3.22-4.16 2.38-2.53 3.02-6.28 1.93-9.52-.02-.07-.03-.14-.05-.21-.98-.08-2-.15-3.09-.19 0 .11 0 .22-.03.34-.61 3.47-3.07 5.78-6.22 7.06-1.44.58-2.97.97-4.33 1.72-1.47.8-2.32 2.01-2.84 3.59-1 3.06-1.18 6.63-3.71 8.95-1.35 1.24-3.01 1.64-4.76 1.95-1.06.18-2.64.38-3.39 1.3v.68c0 2.38.93 4.55 2.44 6.18.73.78 1.58 1.44 2.54 1.93.63.32 1.3.57 2 .74l.08-.19v-6.13c0-.54.16-1.04.42-1.48.51-.85 1.42-1.42 2.49-1.42h26.55c.51 0 .99.14 1.41.38.89.5 1.49 1.43 1.49 2.52v6.25c3.21-.89 5.69-3.51 6.43-6.78-1.59.22-3.26.05-4.5-.72zm-1.13.59s.04-.06 0 0z"/><path class="cls-4" d="M113.71 22.73c-2-3.34-1.62-7.05-.69-10.61-.33-.1-.66-.2-1.02-.29-.31-.08-.63-.16-.96-.24-.85-.19-1.77-.36-2.74-.5.78 3.18.27 6.63-1.43 9.44-.87 1.44-2.07 2.43-3.22 3.62-.95.99-1.18 2.49-.29 3.62 1.1 1.4 3.3 1.17 4.85.94 1.82-.27 3.62-.66 5.46-.36 1.61.26 3.07 1.04 4.04 2.36.55.76.95 1.62 1.26 2.5.16.44.19 1.13.49 1.49.51.61 1.77.49 2.46.42.3-.03.6-.08.89-.15V27.8c-3.69 0-7.16-1.79-9.13-5.07zm8.39 11.66s.05 0 0 0-.03 0 0 0z"/><path class="cls-4" d="M116.05 20.78c1.32 2.5 3.97 4.12 6.78 4.06v-2.27c0-3.06-1.45-6.88-7.02-9.41-.68 2.54-1.02 5.22.23 7.61z"/><path class="cls-5" d="M118.58 37h-.06.06zM123.94 34.66s.12-.04 0 0zM117.97 37.14c-.05.02-.06.03-.05.03.02 0 .03-.02.05-.03z"/><path class="cls-5" d="M119.48 34.69c-.3-.36-.34-1.05-.49-1.49-.31-.88-.71-1.74-1.26-2.5-.97-1.33-2.43-2.1-4.04-2.36-1.84-.3-3.64.09-5.46.36-1.55.23-3.75.46-4.85-.94-.89-1.13-.66-2.64.29-3.62 1.15-1.19 2.35-2.18 3.22-3.62 1.69-2.81 2.2-6.26 1.43-9.44-1-.15-2.07-.28-3.21-.38.01.07.02.13.05.21 1.09 3.24.44 6.99-1.93 9.52-1.24 1.32-2.73 2.31-3.22 4.16-.4 1.52-.15 3.25.71 4.58 1.01 1.58 2.71 2.39 4.53 2.61 2.2.27 4.29-.45 6.47-.56 1.98-.1 3.43.51 4.25 2.38.62 1.42.69 2.88 2.13 3.78 1.24.77 2.91.93 4.5.72.05-.23.12-.45.15-.68.06-.43.1-.87.1-1.32v-1.14c-.29.06-.59.12-.89.15-.69.07-1.95.19-2.46-.42zm-1.57 2.48.05-.03c-.02 0-.03.02-.05.03zm.67-.17h-.06.06z"/><path class="cls-5" d="M122.83 26.25v-1.41c-2.82.05-5.47-1.56-6.78-4.06-1.26-2.39-.91-5.07-.23-7.61-.33-.15-.67-.3-1.04-.44-.29-.11-.57-.22-.87-.33-.15-.05-.29-.1-.44-.15-.14-.05-.3-.08-.45-.13-.93 3.56-1.31 7.28.69 10.61 1.96 3.28 5.43 5.06 9.13 5.07v-1.55z"/><path class="cls-7" d="M119.68 26.66c-.28 0-.36-1.08-.62-2.65-.28-1.56-.78-3.76-2.3-5.42-1.56-1.66-3.65-2.59-5.11-3.25-1.49-.64-2.46-1.04-2.41-1.29.05-.23 1.12-.27 2.8.1 1.65.41 4.04 1.17 6.02 3.25.96 1.06 1.56 2.3 1.86 3.45.32 1.15.4 2.2.38 3.07-.05 1.75-.42 2.74-.62 2.74z"/><path class="cls-12" d="M33.84 16.2a1.897 1.897 0 0 0-2.42-1.5l-5.28 1.35c-.32.48-.68.99-1.06 1.52-1 1.41-1.92 2.64-2.54 3.33l9.78-.17c1.19.02 2.11-1.04 1.91-2.21l-.39-2.31zM12.96 19.44c-.95.24-.76 1.65.22 1.63l5.57-.1c.09-.69.54-1.98 1.42-3.38l-7.2 1.85zM24.19 16.56l-2.08.53c-.14.19-.28.39-.42.59-.97 1.36-1.73 2.61-2.25 3.28l2.34-.04c.22-.81 1.02-2.41 2.22-4.11.06-.09.12-.17.19-.25zM54.06 12.36l-9.42.17a1.902 1.902 0 0 0-1.91 2.21l.39 2.31a1.897 1.897 0 0 0 2.42 1.5l4.04-1.04c.29-.62.67-1.3 1.16-1.99 1.23-1.75 2.64-2.88 3.32-3.17zM57.44 12.3l-2.99.05c.15.35-1.19 1.9-2.62 3.94-.19.27-.38.54-.55.79l2.45-.63c.13-.2.27-.41.42-.61 1.3-1.83 2.64-3.17 3.29-3.54zM63.78 12.19l-5.96.11c.07.38-.86 1.84-2.13 3.66L64 13.83c.95-.24.76-1.65-.22-1.63z"/><path class="cls-7" d="m22.11 17.09-1.94.5c-.87 1.4-1.33 2.7-1.42 3.38h.69c.52-.69 1.29-1.93 2.25-3.29.14-.2.28-.4.42-.59zM26.14 16.06l-1.95.5c-.06.09-.12.16-.19.25-1.21 1.7-2 3.3-2.22 4.11h.76c.62-.7 1.54-1.93 2.54-3.34.38-.53.73-1.04 1.06-1.52zM54.45 12.35h-.39c-.67.29-2.09 1.42-3.32 3.17-.49.69-.87 1.37-1.16 1.99l1.69-.43c.18-.26.36-.52.55-.79 1.43-2.04 2.77-3.59 2.62-3.94zM57.82 12.29h-.38c-.65.38-1.99 1.72-3.29 3.55-.15.21-.28.41-.42.61l1.96-.5c1.27-1.82 2.2-3.28 2.13-3.66z"/><path class="cls-12" d="M156.98 14.82a1.89 1.89 0 0 0-1.89-2.12l-5.44-.2c-.44.36-.93.75-1.44 1.16-1.36 1.07-2.59 1.99-3.38 2.47l9.43 2.61c1.13.36 2.31-.4 2.46-1.58l.28-2.33zM136.05 12c-.98-.04-1.2 1.37-.25 1.63l5.37 1.48c.28-.63 1.08-1.75 2.32-2.84l-7.43-.27zM147.64 12.42l-2.15-.08c-.19.15-.38.29-.57.44-1.31 1.03-2.4 2.01-3.09 2.51l2.26.62c.44-.71 1.66-2.02 3.3-3.31.08-.07.17-.12.25-.19zM177.47 16.87l-9.08-2.51c-1.13-.36-2.31.4-2.46 1.58l-.28 2.33a1.89 1.89 0 0 0 1.89 2.12l4.17.15c.46-.51 1.01-1.06 1.68-1.58 1.68-1.33 3.35-2.01 4.08-2.1zM180.72 17.77l-2.88-.8c.04.38-1.68 1.48-3.63 3.03-.26.2-.51.41-.75.61l2.53.09c.19-.16.37-.31.57-.47 1.77-1.39 3.43-2.29 4.16-2.46zM186.84 19.46l-5.75-1.59c-.04.39-1.35 1.52-3.08 2.9l8.58.31c.98.04 1.2-1.37.25-1.63z"/><path class="cls-7" d="m145.49 12.34-2-.07c-1.23 1.1-2.04 2.21-2.32 2.84l.66.18c.69-.5 1.78-1.48 3.09-2.51.19-.15.38-.3.57-.44zM149.65 12.5l-2.01-.07c-.08.06-.17.12-.25.19-1.64 1.29-2.86 2.59-3.3 3.31l.73.2c.79-.48 2.02-1.4 3.38-2.47.51-.4 1-.79 1.44-1.16zM177.84 16.97l-.37-.1c-.73.08-2.4.76-4.08 2.1-.66.52-1.22 1.07-1.68 1.58l1.74.06c.24-.2.49-.4.75-.61 1.95-1.55 3.67-2.65 3.63-3.03zM181.09 17.87l-.37-.1c-.73.17-2.39 1.07-4.16 2.46-.2.16-.39.31-.57.47l2.02.07c1.73-1.38 3.04-2.52 3.08-2.9zM98.79 91.61l2.62-1.01-.07 5.07-2.89.51.34-4.57z"/><path class="cls-8" d="M250.58 88.46c-1.55-3.95-4.19-7.52-8.03-9.51-3.71-1.92-7.81-1.96-11.64-2.76-3.28-.68-4.34-1.85-5.06-4.95-.76-3.26.13-7.78.51-11.46.88-8.5-1.61-16.65-8.34-22.23-13.96-11.56-33.6-5.87-43.72 7.88-2.6 3.53-4.43 7.69-5.03 12.04-.63 4.52.44 8.55 1.91 12.79.53 1.52 1.24 3.33 1.24 4.72 0 1.11-.5 1.5-1.58 2.33-2.98 2.28-5.64 4.22-7.64 7.49-4.18 6.85-4.24 15.7-.85 22.85 1.59 3.37 4.73 7.55 8.45 8.68.5.15.99.23 1.49.27.68.33 1.47.54 2.4.54h66.55c.85 0 1.59-.17 2.24-.45 1.57-.24 3.03-1.05 3.67-2.52 3.47-8.07 6.87-17.03 3.45-25.73zM37.28 89.79c-1.55-3.95-4.19-7.52-8.03-9.51-3.71-1.92-7.81-1.96-11.64-2.76-3.28-.68-4.34-1.85-5.06-4.95-.76-3.26.13-7.78.51-11.46.88-8.5-1.61-16.65-8.34-22.23-13.96-11.56-33.6-5.87-43.72 7.88-2.6 3.53-4.43 7.69-5.03 12.04-.63 4.52.44 8.55 1.91 12.79.53 1.52 1.24 3.33 1.24 4.72 0 1.11-.5 1.5-1.58 2.33-2.98 2.28-5.64 4.22-7.64 7.49-4.18 6.85-4.24 15.7-.85 22.85 1.59 3.37 4.73 7.55 8.45 8.68.5.15.99.23 1.49.27.68.33 1.47.54 2.4.54h66.54c.85 0 1.59-.17 2.24-.45 1.57-.24 3.03-1.05 3.67-2.52 3.47-8.07 6.87-17.03 3.45-25.73z"/><path class="cls-9" d="m70.89 54.04-2.77-1.67c-.99-.6-2.28-.27-2.88.72l-6.76 11.26-11.26-6.76c-.99-.6-2.28-.27-2.88.72l-1.67 2.77c-.6.99-.27 2.28.72 2.88l11.26 6.76-6.76 11.26c-.6.99-.27 2.28.72 2.88l2.77 1.67c.99.6 2.28.27 2.88-.72l6.76-11.26 11.26 6.76c.99.6 2.28.27 2.88-.72l1.67-2.77c.6-.99.27-2.28-.72-2.88l-11.26-6.76 6.76-11.26c.6-.99.27-2.28-.72-2.88z"/></svg>