<svg id="Illustration" xmlns="http://www.w3.org/2000/svg" viewBox="0 0 200 200"><defs><style>.cls-1{fill:none}.cls-2{fill:#f2a6b0}.cls-4{fill:#e4c7bd}.cls-5{fill:#ffd066}.cls-6{fill:#ff8000}.cls-8{fill:#5b3d5b}</style></defs><g id="Layer_7"><path class="cls-2" d="M65.56 93.6c-5.91-9.36-8.97-20.16-9.02-31.21-.01-2.94-3.47-3.67-5.16-2.16-.88-.22-1.87-.05-2.73.72-6.82 6.13-9.04 16.4-6.86 25.14 1.71 6.87 6.94 12.88 13.71 14.45-3.19 4.95-4.24 11.23-1.98 16.83 2.96 7.34 10.61 11.36 18.3 10.23 1.31-.2 1.97-1 2.14-1.97.19-.38.3-.84.3-1.35-.01-5.63.75-12.01-.46-17.54-1.12-5.11-5.54-8.84-8.25-13.13ZM156.54 99.84c-1.4-1.52-2.96-2.84-4.36-4.3 3.04-1.74 5.47-4.42 6.86-7.87 2.65-6.6-.24-12.94-3.9-18.49-4.23-6.4-7.6-12.84-9.87-20.21-2.34-7.59-3.76-15.41-5.17-23.22-.69-3.83-6.53-2.21-5.85 1.61 2.23 12.37 4.59 24.92 10.34 36.22.76 1.49 1.68 2.94 2.65 4.37a2.2 2.2 0 0 0-.9.67c-1.7 2.15-3.51 3.19-6.22 3.59-1.41.21-2.07 1.7-2.22 2.92-2.16 17.39-3.99 34.81-5.5 52.26-3.21.52-2.98 5.87.67 6.02 11.64.48 24.2-6.51 27.21-18.34 1.42-5.56.16-11.01-3.74-15.24Zm-8.99 22.91c.07.08.15.15.24.23-.11.08-.24.15-.35.24.04-.15.07-.31.11-.46Z"/></g><path class="cls-4" d="M74.35 130.12c.32-1.32 0-25.4 0-25.4s-8.11-7.29-10.94-13.52c-2.83-6.23-6.66-19.57-6.42-24.07s4.87-6.88 7.12-10.47c2.26-3.58 6.42-14.96 8.36-18.88 1.94-3.93 8.22-13.85 13.04-17.5 4.82-3.65 18.23-7.31 20.3-8.88 2.07-1.58 15.43 10.18 18.62 13.63 3.19 3.45 11.43 24.54 12.43 25.19 1 .65 5.48-1.79 7.41-.98 1.93.81 5.49 7.5 4.69 11.06-.79 3.56-2.38 7.55-3.79 8.74-1.41 1.19-6.51 3.57-6.51 3.57l-5.51 40.99-2.74 14.01s-12.49 3.82-18.67 4.36c-6.19.55-24.3-1.66-27.23-1.51-2.93.15-10.16-.33-10.16-.33Z" id="Layer_8"/><path d="M196.45 190.57c-1.1-15.58-8.87-29.88-20.23-40.43-12.03-11.17-27.36-17.95-43.06-22.18-.08-.02-.16-.03-.24-.04.05-.32.03-.65-.07-1-.34-1.25-1.81-2.22-3.1-1.76-13.58 4.75-28.32 6.16-42.38 3.95-4.07-.64-8.08-1.56-12.02-2.75-1.27-.38-2.81.46-3.1 1.76-.26 1.15.22 2.28 1.19 2.85-.4-.14-.88-.15-1.4.02-15.2 4.99-29.37 12.57-41.91 22.53-11.71 9.3-23.17 20.98-26.51 36.06-.32 1.42.58 2.45 1.66 2.8.38.4.92.66 1.63.66h186.85c.46 0 .84-.11 1.16-.3.9-.23 1.62-.95 1.54-2.18Z" style="fill:#f6c243" id="Layer_9"/><g id="_"><path class="cls-8" d="M97.38 6.18C86.1 4.42 74.86 9.94 67.8 18.64c-7.66 9.43-10.77 21.42-12.3 33.25-1.43 11.09-1.26 22.83 2.54 33.46 1.99 5.56 4.92 10.63 8.82 15.07 3.9 4.44 8.88 8.35 13.76 11.97 2.64 1.95 5.29 3.88 8.75 3.72 3.1-.13 6.29-1.04 9.25-1.94a64.283 64.283 0 0 0 16.38-7.61c1.22-.79 2.4-1.64 3.56-2.52 1.08-.82 1.65-2.18.91-3.45-.63-1.07-2.36-1.74-3.45-.91-4.38 3.32-9.43 6.2-14.34 8.1a61.009 61.009 0 0 1-8.05 2.51c-1.29.3-2.73.67-3.93.75-1.42.11-2.27-.14-3.41-.83-2.3-1.39-4.61-3.27-6.58-4.82-2.24-1.76-4.41-3.6-6.44-5.58-3.89-3.79-6.93-7.91-9.19-12.92-.07-.16-.15-.33-.22-.49-.01-.03-.19-.44-.06-.14-.11-.25-.2-.5-.3-.75-.26-.67-.51-1.34-.75-2.02-.42-1.23-.8-2.48-1.13-3.74-.33-1.26-.61-2.55-.86-3.84-.11-.63-.22-1.25-.32-1.88l-.12-.81c.05.35-.01-.1-.02-.14-.03-.23-.05-.45-.08-.68-.62-5.31-.59-10.67-.14-15.99.24-2.83.51-4.96.94-7.62.43-2.66 1-5.48 1.71-8.18 1.41-5.39 3.23-10.2 6.19-14.9 1.44-2.3 2.75-4.01 4.66-5.96A34.726 34.726 0 0 1 77 16.7s.42-.32.59-.44a33.027 33.027 0 0 1 4.98-2.97c.28-.13.55-.26.84-.38.12-.05.24-.11.36-.15-.32.13.08-.03.12-.05.61-.24 1.22-.46 1.84-.66 1.19-.38 2.41-.69 3.65-.91.17-.03.34-.05.51-.09 0 0 .42-.06.18-.03s.17-.02.18-.02c.17-.02.34-.04.51-.05a25.2 25.2 0 0 1 1.94-.1c.61 0 1.21 0 1.82.05.3.02.61.05.91.07.18.02.34.03.52.06-.11-.01-.41-.06.11.02 1.3.2 2.78-.33 3.1-1.76.28-1.21-.37-2.89-1.76-3.1h.01Z"/><path class="cls-8" d="M81.07 13.83c.92-.42 2.21-.91 3.4-1.29s2.47-.71 3.73-.96c1.33-.27 2.25-.4 3.42-.52 1.33-.13 2.67-.18 4-.18 2.64.01 4.92.25 7.32.72 2.59.51 5.13 1.26 7.58 2.23 4.49 1.78 9.07 4.65 12.53 8.22 1.79 1.85 2.99 3.43 4.33 5.65.63 1.04 1.21 2.11 1.74 3.21.59 1.21.87 1.87 1.31 3.01 1.02 2.66 1.8 5.4 2.44 8.17.31 1.36.58 2.73.82 4.09.13.73.25 1.47.36 2.2l.15.97c.03.18.05.37.08.55 0 .05.09.62.04.3.18 1.31 1.04 2.59 2.53 2.53 1.22-.05 2.71-1.12 2.53-2.53-1.45-10.86-4.16-21.92-11.52-30.39-7.48-8.6-19.14-13.36-30.37-13.93-6.53-.33-13.02.89-18.97 3.58-1.25.56-1.54 2.36-.91 3.45.75 1.28 2.21 1.47 3.45.91ZM71.56 104.5c.42 10.97.34 21.96-.26 32.92-.07 1.32 1.21 2.59 2.53 2.53 1.43-.07 2.45-1.11 2.53-2.53.6-10.96.68-21.95.26-32.92-.05-1.32-1.12-2.59-2.53-2.53-1.33.06-2.58 1.11-2.53 2.53Z"/><path class="cls-8" d="M151.32 54.78c-.49-3.16-1.86-6.14-4.94-7.47-3.29-1.41-6.93-.6-9.8 1.39-1.12.77-1.63 2.22-.91 3.45.65 1.11 2.33 1.69 3.45.91.3-.22.61-.43.94-.61.16-.09.32-.18.49-.26.28-.13.34-.15.15-.09.34-.15.69-.26 1.05-.34 0 0 .43-.09.51-.11.32-.03.63-.02.95-.03.06 0 .09 0 .13.01.15.03.3.05.44.1.1.02.68.27.65.23.16.09.32.18.48.28-.03 0 .3.28.44.42.02.04.06.1.14.21.1.16.19.33.27.51-.05-.12.2.6.24.74.08.28.15.56.22.84.3 1.33.39 2.65.3 4.18-.14 2.52-.93 5.13-2.45 7.3-.24.34-.57.72-1.08 1.19-.1.1-.21.19-.32.28-.03.02-.09.06-.21.15-.29.18-.57.37-.87.53-.88.47-1.41.54-2.37.21-.23-.12-.47-.2-.72-.23-.6-.13-1.24.05-1.77.41-.02.01-.04.03-.06.04-.11.08-.22.17-.32.27-.32.32-.56.7-.66 1.1-.02.08-.02.15-.03.22-.03.14-.05.29-.06.44-.26 4.03-.77 8.06-1.21 12.07-.47 4.38-1.04 8.75-1.62 13.12-.61 4.55-1.25 9.08-1.76 13.64-.51 4.55-.94 9-1.48 13.5-.57 4.73-1.27 9.54-2.35 14.33-.29 1.29.39 2.79 1.76 3.1 1.29.29 2.79-.38 3.1-1.76 2.01-8.89 2.79-18.01 3.78-27.06.98-9.07 2.39-18.1 3.42-27.16.26-2.31.47-4.62.69-6.94.13-1.32.28-2.61.43-3.89 2.14-.08 4.19-1.11 5.89-2.54 2.22-1.88 3.64-4.69 4.47-7.43.91-3 1.04-6.16.57-9.25ZM77.02 54.96c1.32 0 2.59-1.16 2.53-2.53-.06-1.37-1.11-2.53-2.53-2.53-1.32 0-2.59 1.16-2.53 2.53.06 1.37 1.11 2.53 2.53 2.53ZM108.85 54.96c1.32 0 2.59-1.16 2.53-2.53-.06-1.37-1.11-2.53-2.53-2.53-1.32 0-2.59 1.16-2.53 2.53.06 1.37 1.11 2.53 2.53 2.53ZM84.27 67.76l-1.93 4.39c-.27.61-.47 1.27-.26 1.95.2.61.58 1.21 1.16 1.51 2.38 1.25 5.08 1.91 7.78 1.8.67-.03 1.31-.26 1.78-.74.44-.44.77-1.16.74-1.78-.06-1.32-1.11-2.59-2.53-2.53-.73.03-1.47 0-2.2-.09l.67.09c-1.16-.15-2.28-.46-3.35-.92l.61.26c-.32-.14-.63-.29-.94-.45l.91 3.45 1.93-4.39c.28-.65.45-1.24.26-1.95-.16-.59-.61-1.22-1.16-1.51-.59-.31-1.29-.46-1.95-.26-.59.19-1.25.57-1.51 1.16h-.01Z"/><path d="M91.13 89.62c0-.14.03-.28.03-.42 0 .69-.05.36 0 .12.03-.13.07-.27.11-.4.03-.1.21-.48.02-.09-.19.38 0 0 .05-.08.06-.13.13-.25.2-.37s.17-.23.24-.35c-.29.54-.21.26-.04.07.18-.2.36-.36.55-.55.22-.21-.48.33-.12.09.11-.07.23-.15.35-.23s.24-.13.37-.2c.4-.22-.56.18-.09.03.25-.07.49-.14.75-.2.3-.07-.63.05-.18.03.14 0 .28-.01.42-.01s.29.03.42.03c-.16.01-.61-.1-.19-.01.26.05.5.13.74.21.47.14-.49-.25-.08-.04.13.06.25.13.38.2s.24.15.36.22c.37.22-.34-.3-.11-.1.2.17.38.34.56.53.15.17.3.48-.04-.08.07.12.16.23.24.35s.13.25.2.37c.23.4-.21-.55-.03-.09.46 1.23 1.73 2.21 3.1 1.76 1.21-.39 2.26-1.78 1.76-3.1-1.34-3.6-4.93-5.76-8.75-5.15-3.54.57-6.15 3.99-6.26 7.47-.04 1.32 1.19 2.59 2.53 2.53 1.4-.06 2.48-1.11 2.53-2.53Z" style="fill:#a08675"/></g><g id="Layer_13"><path class="cls-1" d="M87.25 184.66c.27.09.41.07 0 0Z"/><path class="cls-1" d="M137.01 178.82c2.35-4.35 6.65-5.58 11.06-6.95 4.12-1.28 8.26-2.53 12.4-3.75 4.18-1.23 8.42-2.71 12.71-3.53 4.49-.85 8.71-.31 13.09.79.83.21 1.65.43 2.47.66a52.45 52.45 0 0 0-3.68-6.02 62.279 62.279 0 0 0-7.62-8.83c-17.36 7.75-35.56 13.5-54.31 16.79-5.5.96-12.06 2.86-17.17-.37-4.86-3.07-6.11-9.31-7.64-14.45-2.28-7.68-4.1-15.49-5.51-23.37-9.55-.88-16.29-2.97-16.29-2.97v3.42l-13.34 4.09s-.04.01-.06.02c1.95 1.77 3.89 3.56 5.78 5.4 7 6.82-3.72 17.52-10.71 10.71-3.27-3.17-6.63-6.23-10.09-9.19-9.35 5.46-18.84 12.77-26.42 19.38C9.9 170.93 4.06 185.71 3.74 189.26c-.32 3.56 3.16 3.72 3.16 3.72h2.53c.75 0 8.49.05 17.74.09.77-6.81 1.87-13.58 3.33-20.26 1.31-6.03 4.13-11.58 11.12-11.89 4.99-.23 10.41 1.58 15.29 2.53 10.88 2.11 21.81 4.04 32.66 6.32 5.13 1.08 8.58 3.91 11.07 8.47 2.64 4.83 5.04 9.81 7.43 14.77 2.29.01 4.16.03 5.45.06 4.22.07 12.3.08 20.63.05.03-.34.06-.69.1-1.04.5-4.28.65-9.38 2.74-13.25Z"/><path class="cls-1" d="M45.67 174.36c-.03.48-.1.98-.2 1.48.77-1.27.32-3.48.2-1.48ZM195.63 184.45c-2.3-.98-4.63-1.86-7.03-2.63-3.62-1.17-8.11-3.08-11.97-2.49-5.1.78-10.3 2.85-15.25 4.32-2.48.74-4.96 1.5-7.44 2.26-1.24.38-2.63.66-3.89 1.12-.51 1.77-.63 4.13-.77 6 3.25-.02 6.09-.04 8.18-.06 9.64-.08 27.66-.32 32.65 0 4.98.32 6.48 2.22 6.24-3.64-.05-1.28-.3-2.96-.73-4.9ZM113.87 152.2c.15.48.41 1.04.63 1.61 1.4-.19 3.16-.2 3.99-.34a221.627 221.627 0 0 0 45.1-12.78c-1.27-.78-2.57-1.55-3.91-2.31-10.51-5.99-25.79-10.13-25.79-10.13l.13-3.37s-6.61 2.73-24.14 4.79c-.57.07-1.13.13-1.7.18 1.04 5.23 2.26 10.43 3.68 15.58.63 2.27 1.3 4.53 2 6.77ZM115.15 156.03c0-.36-.1-.67-.31-.93 0 .05.01.11.01.16.21.9.31 1.16.3.77ZM86.85 184.61c-.1-.01-.21-.03-.34-.04-.98-.11-1.96-.39-2.93-.58-8.49-1.64-16.98-3.29-25.48-4.94-4.26-.83-8.53-1.65-12.79-2.48-.3 1.34-.73 2.7-.98 3.97-.82 4.17-1.47 8.36-1.98 12.56 6.48 0 12.3 0 15.68-.05 6.16-.09 20.39-.13 33.15-.11-.71-1.41-1.42-2.82-2.14-4.22-.71-1.36-1.4-2.85-2.2-4.11ZM42.49 176.02c1.03.62 1.76.68 2.28.45-.66-.11-2.01-.29-2.28-.45Z"/><path class="cls-5" d="M89.57 169.76c-10.85-2.28-21.78-4.22-32.66-6.32-4.88-.94-10.3-2.75-15.29-2.53-6.99.32-9.81 5.87-11.12 11.89-1.46 6.69-2.56 13.46-3.33 20.26 4.9.02 10.24.04 15.19.05.51-4.2 1.16-8.39 1.98-12.56.25-1.27.67-2.63.98-3.97 4.26.83 8.53 1.65 12.79 2.48 8.49 1.64 16.98 3.29 25.48 4.94.96.19 1.95.47 2.93.58.13.01.24.03.34.04.79 1.26 1.49 2.75 2.2 4.11.73 1.4 1.43 2.81 2.14 4.22 6.41 0 12.44.03 16.9.05-2.39-4.96-4.79-9.94-7.43-14.77-2.49-4.56-5.94-7.39-11.07-8.47Zm-47.08 6.27c.27.16 1.62.35 2.28.45-.52.23-1.25.17-2.28-.45Zm2.98-.19c.09-.5.17-1 .2-1.48.12-2 .57.21-.2 1.48Zm41.78 8.83c.41.07.27.09 0 0ZM105.96 167.61c5.1 3.23 11.66 1.33 17.17.37 18.75-3.29 36.95-9.04 54.31-16.79-4.09-3.93-8.67-7.31-13.85-10.51a221.627 221.627 0 0 1-45.1 12.78c-.83.14-2.59.14-3.99.34-.22-.57-.48-1.13-.63-1.61a208.812 208.812 0 0 1-5.68-22.35c-5.49.51-10.76.37-15.38-.05 1.41 7.88 3.23 15.68 5.51 23.37 1.52 5.14 2.78 11.38 7.64 14.45Zm9.19-11.58c.01.38-.09.13-.3-.77 0-.05-.01-.11-.01-.16.21.26.32.57.31.93ZM153.95 185.91c2.48-.76 4.96-1.52 7.44-2.26 4.94-1.47 10.14-3.55 15.25-4.32 3.85-.59 8.34 1.32 11.97 2.49 2.4.77 4.73 1.66 7.03 2.63-1.15-5.16-3.58-12.16-6.89-18.4-.82-.23-1.64-.45-2.47-.66-4.38-1.1-8.61-1.64-13.09-.79-4.29.81-8.52 2.3-12.71 3.53-4.14 1.22-8.28 2.47-12.4 3.75-4.4 1.37-8.71 2.61-11.06 6.95-2.09 3.87-2.24 8.96-2.74 13.25-.04.34-.07.69-.1 1.04 5.25-.01 10.59-.05 15.13-.07.14-1.88.25-4.24.77-6 1.27-.46 2.65-.74 3.89-1.12h-.01ZM68.9 139.75c-1.89-1.84-3.83-3.63-5.78-5.4-4.74 1.46-9.86 3.91-15.02 6.92 3.45 2.96 6.82 6.02 10.09 9.19 7 6.8 17.72-3.9 10.71-10.71Z"/></g><g id="Layer_14"><path class="cls-6" d="M64.81 130.52a424.76 424.76 0 0 0 20.24 65.38c1.67 4.18 8.51 2.35 6.82-1.88a426.625 426.625 0 0 1-20.24-65.38c-.99-4.44-7.81-2.56-6.82 1.88ZM138.59 127.74c-6.4 22.05-14.12 43.71-23.19 64.8-1.78 4.13 4.31 7.74 6.11 3.57 9.31-21.66 17.31-43.85 23.89-66.49 1.27-4.38-5.55-6.25-6.82-1.88Z"/></g><path class="cls-2" d="M141 50.77c5.56-9.98 3.99-20.53-3.13-29.48-.65-.82-1.35-1.6-2.06-2.36-.02-.03-.05-.06-.07-.09-4.12-5.26-9.94-8.2-16.16-10.09-1.45-.47-2.94-.87-4.45-1.18-1.84-.42-3.69-.79-5.52-1.12-.03-.01-.05-.03-.09-.05-9.58-4.55-21.44-7.68-31.3-2.31-8.39 4.57-15.14 12.43-19.42 20.95-6.24-3.32-14.46-1.93-19.46 3.5-7.18 7.78-6.27 19.64-.01 27.68 3.34 4.29 8.51 7.35 13.76 7.93.34.1.7.13 1.06.09 3.97.19 7.94-1.07 11.15-4.32 3.85-3.91 5.72-9.54 7.53-14.59 1.87-5.2 3.93-10.16 7.18-14.67 6.42-8.92 15.95-15.23 26.55-17.95 5.72 5.18 11.73 10.2 17.02 15.81 4.11 4.36 7.15 9.44 9.13 15.01.49 3.1.89 6.21 1.3 9.24.04.28.11.52.2.74.36 1.24 1.68 2.26 2.94 2.2 1.36-.06 2.32-.82 2.77-1.94.14-.21.26-.44.36-.71.28-.76.51-1.52.71-2.28Z" id="Layer_6"/><g id="Hand"><path class="cls-4" d="M32.02 152.05c.15-.6 4.63-12.14 7.74-17.38 3.11-5.24 13-20.26 14.71-21.14 1.71-.87 6.83-4.76 6.83-4.76l5.34-8.38s4.11 4.59 5.34 5.44c1.23.86 6.65-1.19 7.83-1.06 1.17.13 8.96-.13 11.22 1.3 2.26 1.43 9.74 5.17 10.38 7.69.63 2.52 3.54 6.32 1.02 7.21-2.52.89-5.31 1.29-7.37-.66-2.07-1.95-4.47-2.9-5.47-1.97-1 .93.84 1.95 0 4.99s-1.95 6.75-2.77 6.75-.44 2.98-.9 5.37c-.46 2.4-2.94 5.12-4.13 5.8s-8.36 2.38-7.94 2.43 9.43.31 8.55 3.87c-.88 3.56-4.97 8.57-8.86 9.33-3.89.77-6.05-.81-9.3 1.06-3.25 1.87-6.36 6.19-11.84 6.91-5.48.71-11.67 1.35-14.97-1.74-3.3-3.09-5.64-10.08-5.39-11.06h-.02Z"/><path class="cls-8" d="M105.8 117.76c-1.41-2.66-3.11-5.14-5.04-7.46-.13-.16-.32-.3-.53-.41-.08-.12-.17-.23-.29-.33-1.96-1.8-4.08-3.44-6.32-4.88a41.7 41.7 0 0 0-3.18-1.84c-1.42-.74-2.9-1.42-4.55-1.37-.21 0-.42.05-.62.1h-.05c-5.49.88-10.92 2.11-16.26 3.66-.77.22-1.54.46-2.31.7.94-1.77 1.84-3.56 2.69-5.38.56-1.19.38-2.78-.91-3.45-1.12-.59-2.86-.37-3.45.91-1.68 3.59-3.54 7.08-5.57 10.49-2.12.85-4.21 1.8-6.21 2.87-.35.12-.66.31-.9.6-6.7 8.23-12.59 17.11-17.46 26.54-1.36 2.63-2.63 5.31-3.84 8.01v.02c-.24.27-.43.6-.55.98-1.07 3.43-1.39 7.36-.07 10.78 1.22 3.17 3.55 5.76 6.51 7.43 5.99 3.39 13.83 2.96 19.97.2 2.7-1.21 5.11-3.1 6.84-5.5 2.92.12 5.85-.11 8.72-.68 2.73-.54 5.46-1.52 7.7-3.22 2.24-1.7 4.12-4.2 4.63-7.04.39-2.21.07-4.6-1.27-6.29 1.14-.75 2.17-1.64 3.06-2.66 2.1-2.42 3.69-5.85 2.25-9-.07-.14-.14-.27-.22-.4 1.41-1.42 2.4-3.15 3-5.13.4-1.32.65-2.84.56-4.29 2.51 1.17 5.06 2.57 7.9 2.67 2.54.08 5.14-1.12 6.42-3.37.62-1.09.33-2.49-.63-3.25Zm-51.52 43.82c.06-.03.05-.02 0 0Zm32.24-40.88s-.03-.04 0 0Zm.48.78c.01.02.02.11.02.19-.02-.09-.04-.19-.03-.19Zm12.08-2.29c-1.96-.49-3.85-1.49-5.73-2.44-2.25-1.14-4.49-2.59-6.49-4.12-1.08-.83-2.83-.17-3.45.91-.1.16-.17.33-.23.49-2.43-.05-4.92.64-7.15 1.43-3.54 1.25-7.02 2.66-10.53 4-1.27.48-2.15 1.7-1.76 3.1.34 1.22 1.83 2.26 3.1 1.76h-.01l7.95-3.04c2.44-.93 5.13-2.05 7.62-2.18.32-.01.63-.02.94 0 .15 0 .32.01.47.02.01 0 .07 0 .13.02.1.03.41.11.49.13.11.03.47.19.51.19.21.11.42.22.62.35.07.05.15.1.22.15.01.01.02.02.04.03.18.16.36.32.52.51l.22.25c.02.03.05.06.07.09.11.17.21.35.31.53.02.13.05.27.1.39v.04c.01.34.02.69 0 1.03-.01.19-.03.37-.05.55.04-.53 0-.04-.05.2-.1.51-.24 1-.4 1.49-.03.09-.17.44-.19.52-.06.13-.18.37-.22.44-.11.22-.24.44-.38.65-.05.09-.12.18-.18.27-.02.04-.03.05-.04.08-.16.2-.32.38-.5.56-.11.11-.71.61-.3.3-.23.18-.44.38-.61.6-1.48-.28-3.06-.29-4.37-.22-3.72.21-7.43.86-11.13 1.33-1.31.17-2.59 1.04-2.53 2.53.05 1.23 1.12 2.71 2.53 2.53 2.75-.36 5.52-.72 8.27-1.06 1.37-.17 2.74-.32 4.12-.31.55 0 1.24.03 1.7.08.19.03.61.11.9.18.12.03.25.06.37.1.03 0 .17.06.26.09 0 0 0 .01.01.02 0 .02 0 .04.02.07 0 .02 0 .03.01.04v.24c0 .1 0 .2-.02.3-.01.04-.04.17-.05.23l-.15.53c0-.02-.11.27-.1.25-.05.09-.22.41-.3.54-.14.24-.3.46-.45.69-.01.02-.02.04-.03.05-.07.09-.14.18-.22.26-.31.36-.64.69-.99 1.01-.12.11-.24.21-.36.32 0 0-.32.26-.12.11.2-.15-.12.09-.13.1l-.4.28c-.41.28-.84.54-1.28.77-.22.12-.45.24-.68.34-.11.05-.23.11-.35.16-.03.01-.04.02-.06.03-.02 0-.03.01-.05.02-1.12.45-2.27.76-3.46.98-.94.06-1.89.12-2.83.17-.31 0-.63-.02-.94-.05-1.32-.1-2.59 1.23-2.53 2.53.02.43.13.81.31 1.14.4.87 1.23 1.54 2.26 1.48.26-.03.52-.04.78-.06a20.2 20.2 0 0 0 3.71-.22c.22-.01.43-.03.65-.04.62-.03 1.23-.08 1.85-.06.13 0 .27.01.4.03.04 0 .1.02.18.03.13.03.25.07.37.11.02.01.06.03.09.05.06.07.17.18.24.24.04.08.07.13.08.15.04.12.08.24.11.36.03.09.04.14.06.18v.17c.01.31 0 .61-.02.91-.01-.03-.13.61-.15.69-.03.09-.34.95-.18.59-.21.48-.67 1.25-.86 1.5-.72.96-1.55 1.62-2.72 2.27-1.17.65-2.18 1-3.62 1.35-3.04.76-6.13.94-9.31.75-.05 0-.11 0-.16.01-1.02-.18-2.11.26-2.65 1.2-.16.28-.34.57-.52.84l-.21.3c-.02.03-.03.04-.04.06-.41.51-.86.98-1.33 1.41-.21.2-.42.38-.65.56-.03.02-.16.12-.19.14-.09.06-.18.13-.27.19-.51.35-1.04.67-1.58.96-.29.15-.59.3-.89.44-.1.05-.21.09-.31.14-.05.02-.1.04-.12.05-.63.24-1.25.46-1.89.64-.56.16-1.13.3-1.7.41-.33.07-.65.12-.98.18-.07.01-.5.06-.07 0-.16.02-.33.04-.49.05-1.54.15-3.1.16-4.63-.01-.13-.01-.37-.05-.67-.11a15.48 15.48 0 0 1-2.19-.56c-.14-.05-.28-.09-.43-.15.01 0-.5-.21-.52-.21-.52-.24-1.03-.5-1.52-.81-.29-.18-.57-.37-.85-.57 0 0-.11-.09-.17-.13-.1-.09-.28-.24-.31-.27-.47-.42-.92-.88-1.32-1.36-.03-.04-.05-.06-.07-.08-.08-.1-.15-.21-.22-.32-.19-.28-.36-.57-.53-.86-.63-1.15-.95-2.59-.98-4.01-.02-1.49.17-2.66.58-4.09.09-.11.17-.23.22-.36 4.18-9.41 9.31-18.38 15.31-26.75 1.66-2.32 3.25-4.39 5.02-6.57.02 0 .04-.01.06-.02 4.67-2.5 9.52-4.17 14.83-5.7 5.1-1.47 10.3-2.64 15.53-3.5h.19l.66.21c.06.04.49.23.56.27a42.232 42.232 0 0 1 3.75 2.15c.48.31.96.63 1.43.97.24.17.47.34.7.51.06.04.46.35.49.37.86.67 1.69 1.38 2.49 2.12.16.15.35.27.55.38.08.12.17.24.27.36.22.27.44.54.66.82a41.03 41.03 0 0 1 3.02 4.57c-.1.02-.2.04-.3.07-.04 0-.41.02-.45.02-.46 0-.57-.03-1.04-.15Z"/></g></svg>