<svg id="Illustration" xmlns="http://www.w3.org/2000/svg" viewBox="0 0 200 200"><defs><style>.cls-3{fill:#cca88d}.cls-4{fill:#5b3d5b}</style></defs><g id="_-2"><path class="cls-3" d="M180.92 97.5c-.88-4.14-5.67-7.88-9.28-9-3.61-1.13-11.53 4.83-11.53 4.83s.49-22.3-.75-24.09c-1.24-1.79-1.82-10.98-3.86-14.42-2.05-3.43-12.98-13.38-17.86-15.42-4.88-2.04-31.05-1.77-31.05-1.77S95.8 45.4 91.94 52.18c-3.86 6.78-8.53 16.25-9.13 17.3-.71 1.22-4.36 15.59-5.28 23.86-.94 8.28.53 25.71 2.35 36.61 1.82 10.9 5.72 17.62 5.72 17.62l12.5 10.19 2.2 24.28c-.69.07-.91 1.18-.13 1.37 18.33 4.55 37.65 6.54 56.32 2.79a90.16 90.16 0 0 0 15.35-4.54c.8-.32.49-1.56-.27-1.37-.24-1.95-.92-7.61-1.29-11.91-.46-5.28-1.84-35.19-1.23-36.42.61-1.23.87-22.62 2.62-21.86 1.75.76 5.45-2.37 8.76-5.43 3.31-3.06 1.4-3.02.52-7.16Zm-66.64 87.38c3.01.43 6.29.87 9.59 1.26-2.6-.25-5.2-.56-7.79-.96-.61-.09-1.2-.2-1.81-.3Z"/><path class="cls-4" d="M178.62 88.05c-1.55-.8-3.29-1.29-5.04-1.39.67-.66 1.34-1.31 2-1.98.61-.63.86-1.32.84-2.01 0-.03 0-.04.01-.07.7-9.29.49-18.35-3.49-26.92h-.01c-4.67-10.04-12.69-18.2-20.03-26.33-4.05-4.48-8.07-8.98-12.13-13.43-2.87-3.15-6.67-6.7-11.27-6.44-1.82.11-3.43.99-4.69 2.27-.49.5-.91 1.49-1.56 1.72-1.37.49-3.32-1.04-4.37-1.84-3.89-2.95-6.73-7.25-11.65-8.67-3.98-1.15-8.77.36-10.85 4.1-1.13 2.03-1 4.24-.25 6.37.27.78 1.3 2.18.77 2.84-.95 1.17-3.91-1.35-4.71-1.96-1.84-1.38-4.41.5-4.41 2.53 0 7.71 3.17 14.96 8.92 20.08-7.22-2.01-12.65 4.17-15.01 10.79-3.38 9.49-5.07 19.72-5.96 29.74-.32 1.41-.63 2.83-.87 4.26-.2 1.18.24 2.14.95 2.78-1.23 8.34-1.66 16.81-1.26 25.23.27 5.59.91 11.17 1.88 16.68.83 4.73 1.86 9.46 3.57 13.96 1.72 4.5 4.02 8.73 7.42 12.14 2.35 2.36 5.33 4.26 8.5 5.75-.02 5 0 10 .27 14.98.25 4.67.78 9.31 1.41 13.94.2 1.41 2.08 2.31 3.34 1.9 1.55-.5 2.1-1.83 1.9-3.34l-.06-.4c0-.04-.01-.11-.03-.22-.04-.26-.07-.52-.11-.78-.08-.59-.15-1.18-.22-1.78-.13-1.06-.24-2.11-.34-3.17-.21-2.13-.37-4.26-.48-6.39-.22-4.2-.26-8.4-.26-12.6 9.88 3.24 20.53 3.93 30.79 2.42 2.56-.38 5.09-.92 7.6-1.6 1.37-.37 2.35-1.95 1.9-3.34-.45-1.39-1.87-2.3-3.34-1.9h-.01c-9.54 2.59-19.73 2.91-29.33.84-4.71-1.01-9.16-2.37-13.17-4.7-2.05-1.2-3.48-2.29-5.11-4.05-1.37-1.46-2.31-2.81-3.4-4.77-.54-.96-1.01-1.96-1.48-2.97-.03-.08-.06-.13-.08-.18-.1-.24-.2-.48-.29-.72-.24-.61-.46-1.22-.68-1.84-.7-2.03-1.28-4.11-1.78-6.2-1.16-4.9-1.96-9.81-2.47-14.68-1.06-10.26-.89-20.97.57-30.98.71-4.84 1.67-9.65 2.98-14.37.44-1.57.92-3.12 1.44-4.67a70.413 70.413 0 0 1 20.82-26.99c.11-.08.21-.18.3-.27 4.05.2 8.1.39 12.15.58 5.84.28 11.81.36 17.47 2.01 10.61 3.1 16.16 12.74 21.09 21.86 0 .09-.01.17 0 .26.61 9.79.83 19.59.67 29.4-.04 2.44 2.39 3.29 4.14 2.58.65 0 1.32-.22 1.93-.73 1.3-1.1 2.57-2.22 3.84-3.36.18.07.37.12.55.15.63.46 1.43.68 2.2.38v-.03c.3-.12.61-.23.93-.31.09-.02.62-.11.67-.14.52-.04 1.04-.04 1.57 0 .09.03.59.11.67.13.32.08.63.19.94.29.07.03.12.05.16.06.11.05.21.1.32.16.29.15.58.32.85.5.11.07.22.15.32.22.03.03.06.05.11.09.24.23.49.44.71.68.09.1.18.21.27.31.02.03.04.06.07.1.19.3.39.6.55.92.44.83.71 2.14.71 3.15 0 .32-.02.63-.04.94 0 .08-.01.13-.02.17-.02.14-.05.29-.08.43-.08.35-.17.7-.27 1.04-.06.17-.11.33-.17.5-.01.03-.03.06-.04.1-.15.32-.32.64-.51.94-.04.06-.37.53-.42.61-.39.48-.84.92-1.31 1.32-.02 0-.53.38-.59.42-.3.19-.6.37-.91.53-.07.04-.69.31-.66.31-.29.11-.58.21-.87.3-.34.1-.68.18-1.02.25-.11.02-.23.04-.35.06-.03 0-.1 0-.24.02-.6.02-1.2.03-1.8 0-.23-.06-.47-.11-.71-.1-1.53.07-2.63 1.2-2.72 2.72-.54 9.96-1.1 19.93-1.15 29.9-.04 8.85.42 17.68 1.39 26.48.68 6.12 1.55 12.2 2.53 18.27.23 1.41 2.05 2.32 3.34 1.9 1.53-.49 2.14-1.83 1.9-3.34-1.56-9.68-2.8-19.08-3.37-29.03-.51-8.79-.42-17.59-.08-26.38.19-4.99.45-9.98.72-14.97 5.27-.34 10.08-3.71 12.04-8.7 2.19-5.6-.04-12.53-5.46-15.33ZM94.3 22.29l-.06-.22c.06.01.12.04.18.05-.04.06-.08.11-.12.17Z"/></g><path d="M77.58 165.01a85.342 85.342 0 0 0-8.46-23.71c-.04-.87-.48-1.56-1.1-2.02-5.83-10.27-13.74-19.33-23.26-26.59-1.21-.92-2.41-.59-3.17.26-.08.06-.16.11-.23.18-10.25 9.7-19.13 21.01-25 33.9-.29.3-.52.68-.66 1.18-4.26 14.97-2.03 35.27 10.76 45.74 12.19 9.97 29.86 6.81 38.74-5.81 4.55-6.42 8.8-12.95 12.12-20.1.27-.6.34-1.18.25-1.71.11-.4.13-.84.04-1.32Zm-24.35-36.9c-.67.06-1.32.34-1.82.91-.11.13-.22.27-.33.39.37-.83.72-1.66 1.07-2.51.36.39.72.79 1.08 1.19Z" style="fill:#ff8000" id="Layer_6"/><g id="Arm"><path class="cls-3" d="M62 158.45c-4.74-.56-11.34-.48-14.53-7.3-3.19-6.83-5.4-10.46-3.6-16.97 1.79-6.5 7.45-15.09 10.89-21.77 3.45-6.68 8.9-12.52 10.68-16.07 1.77-3.55 3.93-18.11 4.09-19.44s1.96-15.23 1.96-15.23 5.71 2.22 7.14 4.93c1.44 2.71 2.26 8.53 2.26 8.53s2.91.01 6.92-2.98c4.02-2.99 9.3-7.38 13.36-7.99s17.14-1.72 21.91-.9c4.76.82 9.81.36 9.41 3.04-.4 2.68 1.97 3.43-3.88 5.22-5.85 1.79-18.39 4.39-18.39 4.39S98 79.54 97.48 79.84c-.51.3 16.06 1.68 20.29 2.13 4.23.44 18.87 2.29 22.67 3.15 3.8.85 8.35 2.75 4.36 5.51-3.98 2.76-5.9 5.23-11.76 4.65-5.86-.57-18.64 0-18.64 0s-13.18 3.45-12.55 4.06c.63.61 22.65 4.41 25.07 4.69 2.41.29 9.34 4.67 11.17 6.02 1.84 1.36 3.34 6.57-1.05 6.78s-10.96-.43-16.26-.67c-5.3-.24-18.61-.78-18.61-.78l-10.24 2.38s16.83 4.7 21.42 7.32c4.59 2.62 12.34 6.64 12.17 9.55-.17 2.91-.28 7.33-4.75 5.73-4.47-1.6-10.18-5.06-15.02-6.02s-13.82-1.16-13.82-1.16l-2.39 2.8s-3.65 10.19-7.66 13.86c-4.01 3.66-15.42 9.13-19.89 8.61Z"/><path class="cls-4" d="M142.96 88.63c-.01.02-.03.03-.03.04 0-.01.02-.02.03-.03Z"/><path class="cls-4" d="M129.83 97.11c4.33.23 8.73.26 12.76-1.55 3.46-1.56 6.52-4.87 6.52-8.84 0-1.3-1.04-2.53-2.35-2.69-.28-.23-.61-.41-.99-.49l-12.03-2.71c-.4-.09-.81-.08-1.21 0-.34-.15-.71-.26-1.12-.3-7.07-.72-14.17-1.22-21.27-1.51-.4-.02-.79.09-1.15.26-.18-.03-.36-.04-.55-.03-1.61.1-3.22.22-4.84.35.01 0 .02-.01.03-.02 6.18-.77 12.31-1.85 18.37-3.29h.04c5.5-1.04 12.46-3.11 14.05-9.25.32-1.27-.34-2.74-1.58-3.23-.18-.21-.4-.39-.67-.51-3.71-1.61-7.73-2.58-11.71-3.21-.25-.08-.52-.13-.8-.12-6.38.18-12.75.49-19.1 1.15-.26 0-.52.01-.79.09-4.37 1.27-8.4 3.7-12.07 6.34a82.5 82.5 0 0 0-5.89 4.66c-.23-2.27-.93-4.48-2.14-6.42a15.51 15.51 0 0 0-9.14-6.73c-1-.26-2.15.11-2.82.89-.74.48-1.21 1.29-1.27 2.26-.68 10.84-1.96 21.42-3.92 32.07-.03.17-.05.34-.05.51-5.72 7.69-11.27 15.5-16.65 23.43-.06.09-.1.19-.14.28-4.04 6.33-6.97 13.84-6.48 21.46.45 6.98 3.74 13.79 9.56 17.82 3.17 2.19 7.02 3.17 10.83 3.35 1.89.09 3.77-.04 5.64-.28 1.72-.23 3.52-.44 5.19-.94 2.16-.65 4.17-1.85 5.98-3.16a43.07 43.07 0 0 0 6.4-5.67c3.6-3.92 7.34-9.16 7.8-14.7 2.29-.42 4.49-.58 7.04-.43.35.02.71.05 1.06.08.12 0 .59.07.69.08.64.1 1.27.21 1.9.34 1.31.28 2.6.65 3.87 1.08a42.089 42.089 0 0 1 2.71 1.03c.01 0 .02 0 .03.01h.02c.2.08.39.17.58.25 1.26.56 2.51 1.16 3.74 1.77 1.41.7 2.8 1.55 4.29 2.07 1.61.56 3.67.58 5.29.04 3.55-1.18 5.74-5.17 4.67-8.79-.16-.55-.52-1.04-.97-1.4-.06-.09-.12-.18-.19-.27-6.09-7.64-15-11.37-24.25-13.73.79-.13 1.59-.25 2.39-.36.08 0 .15.03.23.03l19.38.87c.05 0 .11.02.16.02h-.01c2.6.08 5.2.49 7.8.69 1.56.12 3.03.1 4.58-.2 2.57-.5 5.13-2.32 5.71-5 .65-2.93-1.01-5.83-3.32-7.54-.1-.08-.2-.16-.32-.23-2.85-1.66-5.78-3.19-8.65-4.82-.35-.2-.74-.3-1.13-.33-.08-.03-.15-.06-.23-.08-5.4-1.24-10.85-2.39-16.35-3.07 5.61-.3 11.23-.66 16.8-1.38.02 0 .04 0 .06-.01ZM80.7 82.53a74.15 74.15 0 0 1 5.24-5.25c3.6-3.27 6.9-5.85 11.23-8.3 1.04-.59 2.1-1.13 3.19-1.63.1-.04.2-.08.3-.13-.2.09-.34.13-.06.02.26-.11.51-.2.77-.3.44-.16.88-.3 1.33-.44 6.13-.62 12.28-.92 18.43-1.1 1.69.29 3.37.64 5.04 1.06.97.25 1.94.51 2.9.82.23.07.45.15.67.23-.08.08-.15.16-.24.24-.11.11-.23.2-.34.31-.05.04-.09.08-.14.12-.15.13-.09.08.18-.14-.09.18-.58.4-.77.51-.25.15-.51.3-.77.42-.11.05-.39.17-.5.21-1.56.55-3.12 1.06-4.72 1.45-.14.01-.28.03-.42.06-6.26 1.55-12.77 2.77-19.02 3.53h-.02c-.46 0-.93.11-1.39.32-4.05 1.87-7.85 4.28-11.66 6.59-3.24.49-6.45 1.1-9.62 1.83.13-.15.26-.3.39-.44Zm-7.38-17.15c.32.19.64.4.97.59.02.01.03.01.04.02.02.02.04.03.07.06.12.1.25.2.37.31.27.24.53.49.77.75.2.22.39.44.58.66.05.06.16.21.2.26.11.16.23.33.33.49.2.32.39.65.56.99.08.15.15.32.23.48 0 .02.02.03.02.05 0 .03.02.07.05.16.23.71.41 1.41.56 2.14.01.09.04.28.05.34.02.22.04.44.04.65.01.39 0 .79-.01 1.18 0 .18-.04.35-.04.53v.06c0 .03-.02.07-.03.13-.08.43-.18.86-.3 1.28-.11.4-.11.81-.03 1.22-.11.12-.22.23-.33.35-1.94 2.1-3.76 4.33-5.39 6.69-.16.24-.26.51-.32.79-.25.13-.47.29-.68.48a275.25 275.25 0 0 0 2.29-20.66Zm32.41 28.07c-.43.02-.85.15-1.23.35-6.83 1.11-13.56 2.75-20.13 4.94-1.34.45-2.36 1.89-1.9 3.34.15.47.44.89.79 1.23.16 1.27 1.26 2.68 2.7 2.51 7.76-.95 15.55-1.7 23.35-2.27 3.01.25 5.6.64 8.7 1.2 3.31.6 6.59 1.31 9.87 2.06.14.03.28.04.41.06 2.75 1.55 5.54 3.02 8.27 4.61 0 0 .01 0 .02.01.02.02.03.02.05.04.11.09.21.19.31.29.05.05.21.26.27.34.12.19.22.39.34.58.04.12.09.24.12.36.02.08.03.14.04.17 0 .03-.01.04-.02.06-.07.11-.19.27-.2.3l-.15.15c-.21.11-.55.29-.47.28-.21.08-.44.14-.65.2-.18.04-.34.08-.52.11-.03 0-.05 0-.08.01 0 0-.08 0-.27.03-.18.01-.36.03-.53.04-.48.02-.96-.01-1.44-.04-2.77-.18-5.54-.63-8.31-.74-.06 0-.12-.02-.18-.02l-18.99-.86a3.76 3.76 0 0 0-1.21-.02c-5.31.76-10.6 1.72-15.84 2.9-1.39.31-2.34 1.99-1.9 3.34.29.9.93 1.54 1.73 1.82.29.26.63.45 1.04.52 6.73 1.22 13.52 2.45 19.89 5.02.18.07.35.14.53.22-.21-.08-.16-.06.14.06.35.15.7.31 1.04.47.61.28 1.2.58 1.79.89 1.35.71 2.66 1.49 3.92 2.36 1.26.87 1.86 1.34 3.02 2.4 1.09.99 2.04 2.02 2.94 3.13v.12c-.06.2-.17.54-.12.48-.08.16-.18.32-.28.47.05-.12-.22.2-.32.33-.09.06-.19.11-.28.17 0 0-.02 0-.03.01.02 0 .04 0 .06-.01-.03 0-.05.01-.07.02-.09.05-.18.06-.17.05-.03 0-.05.02-.08.02-.05 0-.24.04-.34.06-.11 0-.31.02-.34.02H120.36c-.16-.03-.32-.07-.48-.11-.03 0-.25-.1-.26-.1-.57-.26-1.13-.57-1.69-.86-1.13-.57-2.27-1.14-3.41-1.68-4.88-2.31-9.91-4.07-15.35-4.37-3.47-.19-6.97.26-10.35 1.04-.59.14-1.09.52-1.45 1.01-.28.34-.46.74-.51 1.18-.05.28-.05.57 0 .85.02.38.02.75 0 1.13 0 .1-.12.88-.04.49a.2.2 0 0 1-.02.09c-.03.15-.06.32-.09.47-.12.55-.27 1.09-.44 1.62-.1.29-.2.58-.31.87-.03.08-.07.17-.1.26-.02.04-.04.09-.07.16a28.358 28.358 0 0 1-2.88 4.82l-.34.45c-.22.27-.43.54-.65.81a40.446 40.446 0 0 1-5.41 5.38c-.22.18-.44.35-.66.53.52-.42-.22.16-.35.26-.45.33-.9.65-1.37.95-.85.56-1.73 1.04-2.65 1.48-.02 0-.03.01-.04.02-.18.06-.35.13-.53.19-.51.17-1.03.27-1.56.38-.85.18-1.71.32-2.57.46-.01 0-.26.03-.3.04l-.51.06c-.51.06-1.02.1-1.53.13-.81.06-1.63.08-2.44.06-.4 0-.81-.02-1.21-.05-.2-.01-.4-.03-.61-.05.01 0-.4-.05-.53-.06-.77-.11-1.54-.28-2.29-.49-.83-.23-1.56-.5-2.13-.77-.61-.3-1.2-.63-1.77-1.01-.14-.09-.28-.19-.42-.29.03.02-.35-.27-.4-.3a.746.746 0 0 1-.15-.13 9.01 9.01 0 0 1-.48-.42c-.53-.49-1.03-1-1.51-1.54l-.33-.39c-.02-.02-.11-.14-.18-.22-.06-.08-.16-.21-.18-.24-.13-.18-.25-.35-.37-.53-.4-.61-.77-1.23-1.11-1.88-.18-.34-.34-.7-.51-1.04-.01-.03-.05-.11-.08-.17-.07-.16-.13-.33-.2-.5a22.22 22.22 0 0 1-1.2-4.63c-.02-.15-.03-.29-.05-.44-.04-.39-.06-.77-.08-1.15-.04-1.01-.02-2.03.06-3.03.13-1.59.49-3.4 1.01-5.23 1.08-3.7 2.77-7 4.96-10.37v-.02c7.03-10.35 14.35-20.5 21.95-30.43 3.98-1.48 8.2-2.37 12.37-3.12 1.1-.2 2.21-.38 3.32-.55.59.12 1.21.05 1.78-.27.19-.03.38-.06.58-.09.31-.04.62-.08.93-.13l.39-.06c.09-.01.18-.02.21-.03 2.43-.32 4.86-.6 7.3-.83 2.44-.23 4.88-.44 7.32-.59.4-.03.79-.14 1.14-.31.18.04.37.07.56.08 7.1.28 14.19.79 21.27 1.51.17.02.35.01.52-.02.12.05.24.1.37.13l10.74 2.42s-.01.02-.02.03c-.03.04-.05.07-.07.1.02-.02.04-.04.07-.08-.02.03-.05.06-.07.08-.04.05-.05.06-.03.03-.07.08-.14.17-.22.25-.25.27-.53.52-.81.77-.02.02-.02.02-.04.03h-.01c-.14.1-.27.2-.42.29-.32.21-.65.41-1 .58-.15.08-.31.15-.46.23-.05.02-.08.04-.1.05 0 0-.01 0-.08.02-.8.28-1.61.51-2.45.66-.17.03-.34.06-.51.08-.03 0-.24.03-.28.04-.46.05-.91.08-1.38.11-1.6.08-3.2.01-4.8-.07-.15-.03-.3-.03-.46-.02h-.12c-.25-.01-.49.03-.73.1-7.74.96-15.53 1.25-23.31 1.68Z"/><path class="cls-4" d="M121.95 137.49h.01c-.12.03-.18.05-.18.06.06-.02.11-.03.17-.05Z"/></g><path d="M187.88 46.3c-.32-3.11-1.27-6.09-2.29-9.04-3.91-11.29-9.68-21.91-16.24-31.87-.82-1.23-1.64-2.46-2.48-3.67-.37-.53-.95-.86-1.56-.86h-.2c-.49.04-.96.29-1.28.85-2.93 5.15-5.65 10.41-8.4 15.66-1.41 2.67-2.81 5.34-4.28 7.98-1.38 2.5-2.85 4.95-4.16 7.49-2.51 4.86-4.51 10.28-3.84 15.83.58 4.86 2.81 9.4 6.21 12.93 3.4 3.53 7.73 5.78 12.48 6.43 4.76.65 9.91-.3 14.3-2.58 4.39-2.28 8.24-6.05 10.27-10.62 1.2-2.7 1.78-5.58 1.48-8.54Z" style="fill:#c1dade"/></svg>