<svg id="Illustration" xmlns="http://www.w3.org/2000/svg" viewBox="0 0 200 200"><defs><style>.cls-1{fill:#ff8000}.cls-2{fill:#a0b4b5}.cls-3{fill:#e87003}.cls-4{fill:#e8f8f9}.cls-5{fill:#fff}.cls-6{fill:#d6e8ea}.cls-7{fill:#c1dade}</style></defs><path class="cls-1" d="M78.08 68.82c-5.29.53-11.26.85-17.6.87-8.12 11.47-21.05 19.07-35.01 20.62l2.14 16.74c22.66-2.44 40.62-18.02 50.47-38.24z"/><path class="cls-1" d="m92.66 90.09 4.3-25.29c-1.74.82-4.16 1.57-7.13 2.23-10.41 26.05-32.82 46.99-60.95 50l2.35 18.37c15.33-.87 28.9-10.23 40.31-20.28 8.26-7.27 15.65-15.58 21.12-25.03zM22.22 64.82l1.99 15.55c8.9-.96 17.09-4.89 23.39-11.02-11.5-.7-20.8-2.37-25.38-4.53zM77.41 123.23c-12.7 10.93-27.96 21.11-44.91 22.19l3.09 24.2c10.08-1.44 19.5-8.19 27.09-14.45 8.74-7.2 16.47-15.47 23.09-24.63l3.16-18.59c-3.58 4-7.44 7.76-11.52 11.27zM66.13 165.13c-2.92 2.26-5.96 4.42-9.11 6.36.84 0 1.69-.01 2.55-.01 7.87 0 14.83.32 19.09.82l3.75-22.05a136.857 136.857 0 0 1-16.28 14.88z"/><path class="cls-1" d="M52.9 173.85a57.739 57.739 0 0 1-6.51 2.98c3.76.67 8.3 1.17 13.18 1.17 12.97 0 23.49-3.49 23.49-4.57 0-.43-1.63-.82-4.39-1.14l-.27 1.56H52.9z"/><path class="cls-1" d="M57.02 171.49c-1.35.83-2.73 1.62-4.12 2.36h25.5l.27-1.56c-4.26-.5-11.22-.82-19.09-.82-.86 0-1.71 0-2.55.01z"/><path class="cls-6" d="M23.55 57c-2.26-.71-3.74-1.5-4.24-2.34-.12.25-.19.51-.19.77v6.34c0 1.08 1.1 2.11 3.1 3.04l-1-7.81h2.33zM95.59 57h2.7l-1.33 7.79c1.97-.93 3.06-1.95 3.06-3.03v-6.34c0-.26-.07-.51-.19-.77-.5.83-1.98 1.62-4.24 2.34zM64.5 60.51c.22 1.03.12 2.17-.48 3.35a47.556 47.556 0 0 1-3.53 5.83c6.33-.03 12.3-.34 17.6-.87a81.15 81.15 0 0 0 3.86-9.34c-5.12.55-11.05.91-17.45 1.04z"/><path class="cls-6" d="M95.59 57c-.78.25-1.66.49-2.62.71-.88 3.16-1.92 6.27-3.14 9.31 2.97-.66 5.4-1.41 7.13-2.23L98.29 57h-2.7zM54.44 60.51c-13.51-.28-24.93-1.63-30.89-3.5h-2.33l1 7.81c4.58 2.16 13.88 3.83 25.38 4.53 2.65-2.57 4.96-5.54 6.84-8.83z"/><path class="cls-4" d="M54.01 47.59c-19.71.42-34.89 3.15-34.89 6.45 0 .21.07.42.19.63 1.79-3.66 16.26-6.58 34.7-7.08zM99.83 54.67c.12-.21.19-.42.19-.63 0-1.29-2.32-2.49-6.31-3.5.11.23.19.47.26.73 3.19 1.01 5.26 2.16 5.86 3.4zM85.12 49.29c.07-.1.14-.2.22-.29-6.76-.9-15.38-1.46-24.8-1.49 9.31.04 17.85.7 24.58 1.78z"/><path class="cls-4" d="M23.55 57h33.36c1.49-1.02 3.38-.88 4.92 0h20.92c.6-1.95 1.13-3.93 1.59-5.92.16-.71.43-1.3.78-1.79-6.73-1.08-15.26-1.73-24.58-1.78l.26 3.95c4.5.18 7.9.97 7.9 1.92s-3.28 1.71-7.66 1.91a45.843 45.843 0 0 1-6.55-.16c-3.18-.32-5.37-.98-5.37-1.74s2.08-1.39 5.14-1.72L54 47.6c-18.44.5-32.91 3.42-34.7 7.08.5.83 1.98 1.62 4.24 2.34zM93.97 51.27c.2.74.23 1.57.02 2.47-.25 1.09-.52 2.18-.81 3.26h2.42c2.26-.71 3.74-1.5 4.24-2.34-.61-1.24-2.68-2.4-5.86-3.4zM95.59 57h-2.42c-.06.24-.14.47-.2.71.97-.23 1.84-.47 2.62-.71z"/><path class="cls-4" d="M64.5 60.51c6.39-.13 12.33-.49 17.45-1.04.28-.82.55-1.64.81-2.47H61.84c1.3.74 2.34 2 2.67 3.51zM56.92 57H23.55c5.96 1.88 17.38 3.23 30.89 3.5.32-.56.65-1.12.94-1.7.41-.81.94-1.4 1.53-1.81z"/><path class="cls-7" d="M49.13 53.38c0 .76 2.19 1.42 5.37 1.74l-.22-3.47c-3.06.33-5.14.98-5.14 1.72zM61.05 53.99h-.08l.08 1.3c4.38-.19 7.66-.97 7.66-1.91s-3.4-1.74-7.9-1.92l.16 2.52h.08z"/><path class="cls-2" d="m60.55 47.52-1.26-19.45c-.15-2.32-.4-6.2-3.33-8.72-2.11-1.81-4.8-2.14-6.59-2.36l-24.36-2.98-.79 6.48 24.36 2.98c1.06.13 2.52.31 3.12.83.85.73 1 2.99 1.07 4.2l1.24 19.09c1.82-.04 3.67-.06 5.56-.06h.97z"/><path class="cls-2" d="M59.57 47.51a252.868 252.868 0 0 1 0 0zM60.55 47.52h-.97.97zM54.01 47.59l.26 4.07c1.38-.15 2.96-.23 4.64-.23.64 0 1.27.01 1.88.04l-.26-3.95h-.97c-1.89 0-3.74.03-5.56.08zM60.96 53.99h.08-.08z"/><path class="cls-2" d="m54.28 51.66.22 3.47a45.843 45.843 0 0 0 6.55.16l-.08-1.3a44.902 44.902 0 0 1-6.47-.16l6.46.16-.16-2.52c-.61-.02-1.24-.04-1.88-.04-1.68 0-3.26.08-4.64.23z"/><path class="cls-2" d="M54.5 53.82a45.843 45.843 0 0 0 6.47.16l-6.46-.17z"/><path class="cls-3" d="M60.48 69.69h-.91c-4.17 0-8.19-.12-11.98-.35-6.31 6.13-14.5 10.07-23.39 11.02l1.27 9.94c13.96-1.55 26.9-9.15 35.01-20.62z"/><path class="cls-6" d="M64.5 60.51c-1.62.03-3.26.05-4.93.05s-3.45-.02-5.13-.05a40.18 40.18 0 0 1-6.84 8.83c3.78.23 7.81.35 11.98.35h.91a47.07 47.07 0 0 0 3.53-5.83c.6-1.17.71-2.32.48-3.35z"/><path class="cls-4" d="M56.92 57h4.92c-1.54-.88-3.43-1.02-4.92 0zM64.5 60.51c-.33-1.51-1.37-2.76-2.67-3.51h-4.92c-.59.41-1.12 1-1.53 1.81-.3.58-.62 1.14-.94 1.7"/><path class="cls-3" d="M89.83 67.03c-3.3.73-7.28 1.34-11.75 1.79-9.85 20.21-27.82 35.8-50.47 38.24l1.27 9.98c28.13-3.01 50.53-23.95 60.95-50z"/><path class="cls-6" d="M81.94 59.47c-1.1 3.2-2.39 6.32-3.86 9.34 4.46-.45 8.44-1.06 11.75-1.79 1.22-3.04 2.26-6.15 3.14-9.31-2.94.69-6.69 1.29-11.02 1.75z"/><path class="cls-4" d="M93.97 51.27c-.07-.25-.15-.5-.26-.73-2.28-.58-5.1-1.09-8.37-1.53-.08.09-.15.19-.22.29 3.48.56 6.47 1.22 8.84 1.97z"/><path class="cls-4" d="M93.99 53.74c.21-.91.18-1.73-.02-2.47-2.37-.75-5.37-1.42-8.84-1.97a5.06 5.06 0 0 0-.78 1.79 86.06 86.06 0 0 1-1.59 5.92h10.42c.29-1.08.56-2.17.81-3.26z"/><path class="cls-4" d="M92.97 57.72c.07-.24.14-.47.2-.71H82.75c-.26.83-.53 1.65-.81 2.47 4.34-.47 8.08-1.06 11.02-1.75z"/><path class="cls-3" d="m88.93 111.96 3.72-21.87c-5.47 9.45-12.86 17.76-21.12 25.03-11.41 10.05-24.98 19.41-40.31 20.28l1.28 10.02c16.95-1.07 32.21-11.26 44.91-22.19 4.08-3.51 7.94-7.28 11.52-11.27zM62.68 155.18c-7.58 6.25-17.01 13-27.09 14.45l.54 4.23h.3c-.23-.16-.35-.3-.35-.42 0-1.01 9.17-1.84 20.94-1.95 3.15-1.94 6.19-4.1 9.11-6.36 5.85-4.53 11.27-9.51 16.28-14.88l3.35-19.7a131.804 131.804 0 0 1-23.09 24.63z"/><path class="cls-3" d="M36.43 173.85c1.11.79 4.79 2.05 9.96 2.98 2.22-.85 4.39-1.85 6.51-2.98H36.43z"/><path class="cls-3" d="M57.02 171.49c-11.77.11-20.94.94-20.94 1.95 0 .11.12.26.35.42H52.9c1.39-.74 2.77-1.53 4.12-2.36z"/><path class="cls-5" d="M173.07 115.8c-.84.04-.76 14.72.2 32.78.95 18.06 2.41 32.67 3.25 32.62s.76-14.72-.2-32.78c-.95-18.06-2.41-32.67-3.25-32.62z"/><path class="cls-3" d="M179.48 137.98H185M58.02 137.98h8.97"/><path class="cls-7" d="m149.98 188.18-62.18-.05c-11.46 0-21.64-7.31-25.33-18.16l-8.08-23.8 131.16.1-10.93 25.64a26.77 26.77 0 0 1-24.64 16.27z"/><path class="cls-6" d="m132.33 188.18-50.89-.05c-9.38 0-17.71-7.31-20.73-18.16l-6.62-23.8 107.36.1-8.95 25.64c-3.45 9.87-11.39 16.28-20.17 16.27z"/><path class="cls-7" d="m88.24 98.98 62.6-.41c11.54-.08 21.84 7.15 25.63 17.97l8.31 23.74-132.05.87 10.82-25.72c4.17-9.9 13.88-16.38 24.69-16.45z"/><path class="cls-6" d="m81.8 98.98 51.24-.41c9.44-.08 17.88 7.15 20.98 17.97l6.8 23.74-108.09.87 8.86-25.72c3.41-9.9 11.36-16.38 20.21-16.45z"/><path class="cls-3" d="M61.64 147.54h-5.16M175.04 147.54h-8.37"/><path class="cls-7" d="m79.96 144.24 4.19 7.59A9.993 9.993 0 0 0 92.9 157h17.86c3.28 0 6.35-1.61 8.22-4.31L125 144l-43 1"/><path class="cls-4" d="M184.12 139.4h-6.45l.07-.31H50.1c-3.23 0-5.88 1.83-5.88 4.07s2.65 4.07 5.88 4.07h6.45l-.07.31H184.11c3.23 0 5.88-1.83 5.88-4.07s-2.65-4.07-5.88-4.07z"/><path class="cls-1" d="M114.28 119.52c-.09-.22-1.27-2.4-3.46-5.12a.43.43 0 0 1-.1-.23c-.14-1.59-.36-3.17-.67-4.73a.777.777 0 0 0-.67-.6l-2.27-.27h-.06c-.26 0-.48.22-.48.48v.79s-.01.03-.03.03h-.02a32.932 32.932 0 0 0-4.6-3.46c-.33-.22-.73-.34-1.13-.34-.4 0-.79.12-1.13.34-7.84 4.86-12.14 12.75-12.31 13.18-.05.1-.07.22-.07.33 0 .36.24.67.59.75l2.26.42c.31.08.53.34.57.66.02.4.47 9.31 1.01 11.63.09.34.4.58.75.58h.02c1.32-.04 2.53-.06 3.84-.08s.1 0 .1 0c.14 0 .25-.11.25-.25v-.02c-.06-.78-.17-2.56-.27-4.43v-.15c0-.16-.09-.3-.23-.38-.7-.42-1.15-1.15-1.19-1.97-.13-3.13-.19-6.74-.03-9.57 0-.25.21-.45.46-.45s.45.21.45.46v.03c-.11 1.89-.11 4.11-.07 6.31 0 .3.25.53.55.53.3 0 .53-.25.53-.55-.05-2.21-.04-4.46.07-6.35 0-.25.21-.45.46-.45s.45.21.45.46v.03c-.11 1.88-.11 4.09-.07 6.28 0 .3.25.54.55.53.3 0 .54-.25.53-.55-.05-2.2-.04-4.44.07-6.32 0-.25.21-.45.46-.45s.45.21.45.46v.03c-.16 2.75-.1 6.23.02 9.28v.11c0 .8-.39 1.56-1.05 2.01-.12.08-.19.22-.2.36 0 0-.05.47.16 2.74.1.99.17 1.68.21 1.99.02.12.12.21.24.21h4.71c.12 0 .23-.08.24-.2.29-2.72.36-4.25.36-4.25 0-.14-.11-.25-.24-.26l-1.56-.21a.553.553 0 0 1-.45-.38c-.02-.08-.03-.16-.02-.24.61-9.07 3.6-12.14 3.6-12.14.04-.05.09-.09.14-.12.21-.16.51-.11.67.11.02.03.04.07.06.11.02.07.03.14.04.22.26 2.85.15 7.7 0 11.49-.13 3.21-.29 5.73-.29 5.73 0 .11.08.19.19.19.85.01 1.68.03 2.57.05.35 0 .66-.24.75-.58.53-2.31.94-11.23.96-11.63a.76.76 0 0 1 .56-.66l2.26-.44c.34-.09.59-.4.58-.76 0-.11-.02-.23-.07-.33z"/><path class="cls-4" d="M130.81 87.87c-.49 1.01-2 .56-1.89-.56.4-4.04 0-9.2-2.92-14.31-5.42-9.45-19.05-3.2-14-23 2-7.83 13.62-7.11 8.13-23.06-.32-.93.74-1.73 1.53-1.14 3.47 2.58 9.03 7.65 8.34 13.2-1 8-11 15-8 19s17 7 14 17c-1.39 4.62-3.41 9.23-5.19 12.87z"/><path class="cls-5" d="M129.66 88.02c-.07-.06.63-.94 1.86-2.53.61-.8 1.35-1.78 2.08-2.98s1.46-2.64 1.87-4.33c.41-1.68.53-3.65-.14-5.52-.65-1.88-2.16-3.52-4.1-4.75-1.95-1.25-4.24-2.15-6.66-3.18-2.38-1.06-4.94-2.34-6.87-4.6-.95-1.13-1.64-2.48-1.92-3.91-.29-1.42-.21-2.86.06-4.2.57-2.69 1.95-4.97 3.37-6.91 1.43-1.95 2.91-3.67 4.09-5.38 1.19-1.71 2.09-3.43 2.57-5.1.49-1.67.52-3.26.2-4.6-.32-1.34-.9-2.41-1.52-3.15-1.26-1.51-2.46-1.75-2.39-1.88 0-.03.3-.01.81.18s1.24.59 1.97 1.35c.73.75 1.44 1.87 1.86 3.31.42 1.44.46 3.22-.01 5.03-.46 1.82-1.37 3.67-2.56 5.47-1.19 1.81-2.65 3.56-4.01 5.48-1.36 1.91-2.6 4.04-3.09 6.47-.24 1.2-.3 2.46-.04 3.67.25 1.21.83 2.35 1.65 3.33 1.67 1.97 4.06 3.21 6.38 4.26 2.35 1.02 4.74 1.98 6.8 3.35 2.06 1.34 3.78 3.23 4.47 5.41.71 2.17.5 4.33 0 6.11-.5 1.81-1.34 3.29-2.15 4.5-.82 1.21-1.63 2.16-2.31 2.91-1.37 1.5-2.2 2.25-2.26 2.2zM182.5 139.13c0 .49-28.73.81-64.16.72-35.43-.09-64.15-.56-64.15-1.05s28.73-.81 64.16-.72c35.43.09 64.15.56 64.15 1.05zM182.5 148.13c0 .49-28.73.81-64.16.72-35.43-.09-64.15-.56-64.15-1.05s28.73-.81 64.16-.72c35.43.09 64.15.56 64.15 1.05zM159.5 134.5c-.24.04-.57-.53-.97-1.57-.37-1.05-.88-2.55-1.46-4.41-1.19-3.69-2.93-8.74-5.72-13.8-2.81-5.05-6.29-8.97-9.19-11.42-2.87-2.48-4.96-3.78-4.73-4.27.17-.4 2.69.11 6.21 2.26 3.52 2.1 7.75 6.22 10.79 11.71 3.03 5.49 4.48 10.98 5.07 14.95.28 1.99.42 3.61.38 4.75-.02 1.13-.14 1.77-.39 1.8zM95.5 64.5c.13.43-3.67 2.08-10.14 3.8-1.62.42-3.39.87-5.32 1.24-1.92.43-4 .75-6.19 1.11-4.38.63-9.24 1.1-14.37 1.19-5.13.07-10.01-.25-14.42-.8-2.2-.33-4.29-.62-6.22-1.06-.97-.21-1.9-.38-2.79-.61-.89-.24-1.73-.47-2.55-.68-6.47-1.84-10.16-3.79-10-4.19.18-.51 4.13.59 10.57 1.76.8.14 1.65.29 2.52.45.88.15 1.8.25 2.75.39 1.89.31 3.94.47 6.08.71 4.3.36 9.03.57 14.01.5 4.98-.09 9.71-.45 14.01-.89 2.15-.26 4.19-.47 6.1-.76 1.91-.25 3.68-.54 5.31-.8 6.48-1.06 10.51-1.86 10.66-1.35z"/></svg>