<svg id="Illustration" xmlns="http://www.w3.org/2000/svg" viewBox="0 0 200 200"><defs><clipPath id="clippath"><path class="cls-2" d="M194.01 52.75c-24.84 18.55-59.52 16.03-81.42-5.88l3.03 92.24a111.82 111.82 0 0 1 53.96 2.56l.52.16 25.48-90.26-1.57 1.18Z"/></clipPath><clipPath id="clippath-1"><path class="cls-2" d="M18.85 133.15c-3.94 6.65-3.18 31.16 1.89 36.34 5.07 5.17 12.03 6.81 18.71 7.71 25.13 3.39 51.15-1.21 74.68-13.21 6.81-3.47 13.63-7.76 18.26-14.7 4.63-6.94 1.93-26.96-1.8-34.41-40.18 2.65-74.05 4.81-113.31 16.25"/></clipPath><clipPath id="clippath-2"><path class="cls-2" d="M91.12 60.46c-24.23-7-39.4-2.74-59.81 12.08-18.35 13.33-29.01 36.4-27.84 58.98.23 4.46 3.88 7.97 8.34 8.24 33.25 2.02 69.31-10.28 94.99-31.03 4.43-3.58 13.36-11.07 18.05-17.88 2.47-3.6 1.93-8.44-1.24-11.44-5.74-5.44-17.07-14.51-32.48-18.96Z"/></clipPath><style>.cls-2{fill:none}.cls-11,.cls-12,.cls-13,.cls-14,.cls-15,.cls-17,.cls-19,.cls-2,.cls-3,.cls-6,.cls-7{stroke-width:0}.cls-3{fill:#f96700}.cls-6{fill:#aa5536}.cls-7{fill:#b64f2c}.cls-11{fill:#fff}.cls-12{fill:#e87003}.cls-13{fill:#e5a355}.cls-14{fill:#f09e43}.cls-15{fill:#fbae5e}.cls-17{fill:#ffaa4b}.cls-19{fill:#f6c243}</style></defs><path class="cls-12" d="m194.01 52.75 1.57-1.18.61-2.16-.3-.16a102.982 102.982 0 0 0-83.41-5.82l.11 3.43c21.9 21.92 56.58 24.44 81.42 5.88Z"/><path class="cls-19" d="m137.01 82.28-7.91-61.04 14.62-1.13 3.71 56.99-10.42 5.18zM125.14 98.84l-7.91-61.03 12.15-6.11 6.18 61.97-10.42 5.17zM174.56 94.81l16.56-59.27-11.16-7.79-14.98 60.45 9.58 6.61zM157.61 89.64l10.56-60.63-11.84-1.26-8.9 56.26 10.18 5.63z"/><path style="fill:#ffbe00;stroke-width:0" d="m172.84 99.02-10.55-60.64 11.87-6.63 8.87 61.64-10.19 5.63z"/><path class="cls-19" d="m163.66 80.87 16.56-59.27-13.07-.08-13.06 52.74 9.57 6.61zM143.42 71.97l2.05-61.51 12.48 3.86-3.41 54.22-11.12 3.43z"/><path class="cls-11" d="M134.9 66.57c-.66.17-3.8-10.42-5.58-23.89-1.81-13.46-1.55-24.5-.87-24.52.73-.02 1.61 10.86 3.4 24.18 1.76 13.32 3.77 24.06 3.05 24.22ZM143.2 71.41c-.67.06-1.64-20.15-1.28-33.73.33-13.58 2.33-24.44 3-24.35.73.09-.12 10.98-.45 24.41-.36 13.43-.54 33.61-1.28 33.66ZM162.34 82.93c.62.27 6.7-12.24 11.81-31.62 4.7-15.76 7.12-24.52 7.12-24.52l-2.31.47c-.72-.14-3.33 10.46-7.25 23.32-3.88 12.86-10.05 32.08-9.37 32.36Z"/><path class="cls-11" d="M159.34 113.21c.35.03 1.05-4.31 1.93-11.34.88-7.04 1.93-16.78 2.88-27.56.95-10.78 1.6-20.56 1.85-27.66.28-7.1.02-11.52-.33-11.52-.36 0-.73 4.35-1.47 11.4-.71 7.05-1.65 16.79-2.59 27.56-.95 10.77-1.71 20.54-2.13 27.62-.43 7.08-.49 11.48-.14 11.51ZM154.41 112.71c.35 0 .72-4.37 1.07-11.46.35-7.08.66-16.88.8-27.7.13-10.82.05-20.63-.23-27.72-.25-7.1-.85-11.49-1.19-11.46-.36.03-.4 4.39-.61 11.48-.18 7.08-.38 16.87-.51 27.68-.14 10.81-.17 20.61-.05 27.7.11 7.09.38 11.49.73 11.49Z"/><path class="cls-11" d="M154.75 34.45c0 .49 2.45.84 5.45 1.05 3 .21 5.46.2 5.54-.29.08-.47-2.34-1.25-5.42-1.47-3.08-.22-5.58.22-5.57.7Z"/><path d="M194.01 52.75c-24.84 18.55-59.52 16.03-81.42-5.88l3.03 92.24a111.82 111.82 0 0 1 53.96 2.56l.52.16 25.48-90.26-1.57 1.18Z" style="fill:#ff8000;stroke:#f70;stroke-miterlimit:10"/><g style="clip-path:url(#clippath)"><path class="cls-3" d="M37.39 36.2c.2 4.06.61 8.1 1.17 12.12.23 1.62 2.27 2.47 3.69 2.1 1.73-.46 2.32-2.09 2.1-3.69-.49-3.49-.79-7.01-.96-10.53-.18-3.84-6.19-3.87-6 0ZM69.5 35.13l1.22 11.69c.4 3.8 6.4 3.84 6 0L75.5 35.13c-.4-3.8-6.4-3.84-6 0ZM101.83 35.12c.28 3.84.82 7.65 1.65 11.41s6.61 2.17 5.79-1.6c-.71-3.25-1.2-6.5-1.44-9.82-.28-3.83-6.28-3.86-6 0ZM130.63 34.77l-.57 10.29c-.21 3.86 5.79 3.85 6 0l.57-10.29c.21-3.86-5.79-3.85-6 0ZM156.97 34.75l1.28 9.6c.21 1.61 1.23 3 3 3 1.45 0 3.22-1.38 3-3-.43-3.2-.85-6.4-1.28-9.6-.21-1.61-1.23-3-3-3-1.45 0-3.22 1.38-3 3ZM53.97 64.92c.04 4.27-.14 8.53-.54 12.79-.36 3.84 5.64 3.82 6 0 .4-4.26.58-8.51.54-12.79-.03-3.86-6.03-3.87-6 0ZM88.97 61.38c.39 4.73.78 9.45 1.18 14.18.32 3.82 6.32 3.85 6 0-.39-4.73-.78-9.45-1.18-14.18-.32-3.82-6.32-3.85-6 0Z"/><path class="cls-12" d="M143.36 60.31c-.06 3.99.42 7.95 1.4 11.83s6.74 2.15 5.79-1.6c-.86-3.38-1.24-6.75-1.19-10.23.06-3.86-5.94-3.86-6 0ZM174.26 61.02l.4 8.87c.17 3.85 6.17 3.87 6 0l-.4-8.87c-.17-3.85-6.17-3.87-6 0Z"/><path class="cls-3" d="M35.89 90.46c-.16 3.21-.05 6.39.34 9.57.2 1.61 1.24 3 3 3 1.47 0 3.2-1.38 3-3-.39-3.19-.51-6.37-.34-9.57.2-3.86-5.8-3.85-6 0ZM73.18 86.56c-.1 4.49-.21 8.98-.31 13.47-.09 3.86 5.91 3.86 6 0 .1-4.49.21-8.98.31-13.47.09-3.86-5.91-3.86-6 0ZM102.33 86.93c.3 3.59.78 7.16 1.45 10.7.72 3.79 6.5 2.18 5.79-1.6-.57-3.02-.98-6.05-1.24-9.11-.32-3.82-6.32-3.85-6 0Z"/><path class="cls-12" d="m132.61 85.49-.57 9.94c-.22 3.86 5.78 3.84 6 0l.57-9.94c.22-3.86-5.78-3.84-6 0ZM119.54 60.74l-.57 9.94c-.22 3.86 5.78 3.84 6 0l.57-9.94c.22-3.86-5.78-3.84-6 0ZM158.37 84.09c.29 3.59.78 7.16 1.46 10.7.73 3.79 6.51 2.18 5.79-1.6-.58-3.02-.99-6.04-1.24-9.11-.31-3.82-6.31-3.86-6 0Z"/><path class="cls-3" d="M53.62 113.87c-.12 3.32 0 6.63.35 9.93.17 1.61 1.26 3 3 3 1.49 0 3.17-1.38 3-3-.35-3.31-.46-6.61-.35-9.93.14-3.86-5.86-3.86-6 0ZM25.59 117.06v9.58c0 3.86 6 3.87 6 0v-9.58c0-3.86-6-3.87-6 0ZM86.19 114.03c1.1 2.82 1.77 5.69 1.9 8.71.18 3.84 6.18 3.87 6 0-.16-3.55-.83-6.99-2.12-10.31-.59-1.51-2.01-2.56-3.69-2.1-1.44.4-2.69 2.17-2.1 3.69Z"/><path class="cls-12" d="M118.47 110.21c-.71 3.91-1.07 7.84-.98 11.82s6.09 3.87 6 0c-.08-3.44.15-6.84.77-10.23.69-3.78-5.09-5.39-5.79-1.6ZM146.58 111.49c.49 3.43.98 6.85 1.48 10.28.23 1.62 2.27 2.47 3.69 2.1 1.73-.46 2.32-2.09 2.1-3.69-.49-3.43-.98-6.85-1.48-10.28-.23-1.62-2.27-2.47-3.69-2.1-1.73.46-2.32 2.09-2.1 3.69ZM170.38 110.07c1.43 3.76 2.28 7.59 2.47 11.6s6.18 3.87 6 0c-.21-4.54-1.07-8.94-2.68-13.2-1.36-3.58-7.16-2.02-5.79 1.6Z"/><path class="cls-3" d="M38.01 142.25c-.1 3.91.02 7.81.36 11.7s6.34 3.85 6 0-.46-7.79-.36-11.7-5.9-3.86-6 0ZM71.34 139.79c.4 3.81.52 7.79 1.22 11.56.49 2.6 3.72 4.9 5.87 2.24.63-.79 1.18-1.88.77-2.92l-.08-.21c-1.4-3.55-7.2-2-5.79 1.6l.08.21.77-2.92-.17.21 2.12-.88-.27.03 2.12.88c.87 1.03.27-.96.23-1.43l-.29-2.79-.59-5.58c-.4-3.8-6.4-3.84-6 0ZM101.69 138.34c.08 3.68.31 7.36.68 11.02s6.39 3.84 6 0-.6-7.34-.68-11.02-6.08-3.87-6 0Z"/><path class="cls-12" d="M133.48 137.03c.89 3.72 1.34 7.43 1.39 11.25s6.05 3.87 6 0c-.06-4.34-.6-8.63-1.61-12.85-.9-3.75-6.68-2.16-5.79 1.6ZM161.61 139.69c-.43 2.98-.66 5.94-.57 8.95.11 3.85 6.11 3.87 6 0-.07-2.45.01-4.92.36-7.35.23-1.6-.39-3.22-2.1-3.69-1.41-.39-3.46.48-3.69 2.1Z"/><path class="cls-3" d="M53.23 166.73c.18 4.46.81 8.88 1.91 13.21.95 3.74 6.74 2.15 5.79-1.6s-1.54-7.67-1.7-11.61-6.15-3.87-6 0ZM85.15 167.44c.42 3.67.4 7.32-.05 10.98-.2 1.62 1.52 2.98 3 3 1.78.02 2.8-1.4 3-3 .45-3.67.47-7.31.05-10.98-.18-1.62-1.25-2.98-3-3-1.48-.02-3.18 1.39-3 3ZM120.42 170.36l2.04 11.01c.68 3.67 6.49 2.19 5.79-1.6s-1.36-7.34-2.04-11.01-6.49-2.19-5.79 1.6ZM149.19 169.84c-.79 3.67-1.05 7.35-.64 11.09.18 1.62 1.25 2.98 3 3 1.49.02 3.18-1.39 3-3-.35-3.2-.26-6.35.42-9.49.81-3.76-4.97-5.37-5.79-1.6ZM172.51 173.21c.67 2.9 1 5.79 1.03 8.77.04 3.86 6.04 3.87 6 0a48.99 48.99 0 0 0-1.24-10.37c-.87-3.76-6.65-2.17-5.79 1.6ZM25.62 171.94c-.79 3.5-.78 6.99.06 10.48.91 3.75 6.69 2.16 5.79-1.6-.59-2.43-.62-4.85-.06-7.29.85-3.76-4.93-5.37-5.79-1.6ZM22.22 66.05c.92 3.72 1.56 7.47 1.89 11.29s6.33 3.85 6 0c-.37-4.35-1.05-8.64-2.1-12.88-.93-3.75-6.72-2.16-5.79 1.6ZM106.88 195.08c.09 3.67.3 7.33.62 10.98s6.34 3.85 6 0-.53-7.32-.62-10.98c-.1-3.85-6.1-3.87-6 0ZM137.66 194.15c-.13 3.31-.26 6.62-.38 9.93-.15 3.86 5.85 3.85 6 0 .13-3.31.26-6.62.38-9.93.15-3.86-5.85-3.85-6 0ZM161.94 195.2l.51 8.17c.24 3.84 6.24 3.86 6 0l-.51-8.17c-.24-3.84-6.24-3.86-6 0ZM185.75 32.38c.26 3.44.51 6.87.77 10.31.29 3.83 6.29 3.86 6 0-.26-3.44-.51-6.87-.77-10.31-.29-3.83-6.29-3.86-6 0ZM6.07 34.52c.11 3.85.49 7.65 1.1 11.45.26 1.61 2.25 2.48 3.69 2.1 1.71-.45 2.35-2.1 2.1-3.69-.52-3.27-.79-6.55-.88-9.86-.11-3.85-6.11-3.87-6 0ZM6.36 91.29c-.2 3.3-.4 6.6-.59 9.9-.23 3.86 5.77 3.84 6 0 .2-3.3.4-6.6.59-9.9.23-3.86-5.77-3.84-6 0ZM6.91 144.49c.05 3.96.4 7.88.97 11.8.23 1.62 2.27 2.47 3.69 2.1 1.73-.46 2.32-2.09 2.1-3.69-.49-3.38-.71-6.79-.75-10.21-.05-3.86-6.05-3.87-6 0ZM71.7 194.15v11c0 3.86 6 3.87 6 0v-11c0-3.86-6-3.87-6 0ZM40.89 193.08c.1 3.85.45 7.65.96 11.46.22 1.62 2.28 2.47 3.69 2.1 1.74-.46 2.31-2.09 2.1-3.69-.44-3.27-.66-6.57-.74-9.87-.1-3.85-6.1-3.87-6 0ZM9.76 194.16c-.39 3.41-.77 6.82-1.16 10.24-.18 1.62 1.51 2.98 3 3 1.77.02 2.82-1.4 3-3 .39-3.41.77-6.82 1.16-10.24.18-1.62-1.51-2.98-3-3-1.77-.02-2.82 1.4-3 3ZM188.82 155.15c.4 4.41.92 8.8 1.53 13.18.23 1.62 2.27 2.47 3.69 2.1 1.73-.46 2.32-2.09 2.1-3.69-.54-3.85-.96-7.71-1.32-11.58-.35-3.81-6.35-3.85-6 0ZM188.94 79.49c-.57 3.9-.58 7.61-.05 11.51.22 1.6 2.28 2.49 3.69 2.1 1.73-.48 2.32-2.07 2.1-3.69-.37-2.73-.35-5.59.05-8.32.24-1.61-.4-3.21-2.1-3.69-1.41-.4-3.45.49-3.69 2.1ZM58.65 20.33c.06-3.54.38-7.04 1-10.52.67-3.78-5.11-5.4-5.79-1.6-.71 4.01-1.14 8.04-1.21 12.12-.07 3.86 5.93 3.86 6 0ZM87.81 6.87l.71 9.91c.27 3.83 6.28 3.86 6 0l-.71-9.91c-.27-3.83-6.28-3.86-6 0ZM118.83 8.27c.14 3.9.27 7.8.41 11.7s6.13 3.87 6 0-.27-7.8-.41-11.7-6.13-3.87-6 0ZM144.64 9.76c.42 2.49.84 4.98 1.25 7.48.27 1.6 2.24 2.49 3.69 2.1 1.69-.47 2.36-2.09 2.1-3.69-.42-2.49-.84-4.98-1.25-7.48-.27-1.6-2.24-2.49-3.69-2.1-1.69.47-2.36 2.09-2.1 3.69ZM171.12 8.72c.74 3.62.8 7.25.35 10.92-.2 1.62 1.52 2.98 3 3 1.79.02 2.8-1.4 3-3 .53-4.21.29-8.36-.56-12.51-.77-3.78-6.56-2.18-5.79 1.6ZM28.62 17.7c-.49-3.14-.74-6.3-.82-9.48-.09-3.85-6.1-3.87-6 0s.46 7.4 1.03 11.08c.25 1.61 2.25 2.47 3.69 2.1 1.71-.45 2.34-2.1 2.1-3.69ZM203.41 19.41l-.18-10.89c-.06-3.86-6.06-3.87-6 0l.18 10.89c.06 3.86 6.06 3.87 6 0ZM186.79 132.2c-.31 2.84-.29 5.66.08 8.49.21 1.61 1.23 3 3 3 1.46 0 3.21-1.38 3-3a35.46 35.46 0 0 1-.08-8.49c.18-1.61-1.51-3-3-3-1.77 0-2.82 1.38-3 3ZM186.57 192.09l.37 9.98c.14 3.85 6.14 3.87 6 0l-.37-9.98c-.14-3.85-6.14-3.87-6 0ZM-3 173.04v9.98c0 3.86 6 3.87 6 0v-9.98c0-3.86-6-3.87-6 0Z"/></g><path class="cls-15" d="M130.39 150.33 28.08 160.55c-6.33.63-11.14 5.96-11.14 12.32v3.97c.01 6.52 5.2 13.12 11.53 14.68 34.91 8.55 71.67 3.87 103.24-12.96 3.81-2.03 6.28-5.9 6.61-10.21l.72-9.56c.37-4.89-3.77-8.94-8.65-8.45Z"/><path class="cls-17" d="M122.39 140.31c-5.73.72-10.79 4.1-15.83 7.06-24.57 14.43-53.6 20.21-81.46 16.23"/><path d="M18.85 133.15c-3.94 6.65-3.18 31.16 1.89 36.34 5.07 5.17 12.03 6.81 18.71 7.71 25.13 3.39 51.15-1.21 74.68-13.21 6.81-3.47 13.63-7.76 18.26-14.7 4.63-6.94 1.93-26.96-1.8-34.41-40.18 2.65-74.05 4.81-113.31 16.25" style="fill:#874733;stroke-width:0"/><g style="clip-path:url(#clippath-1)"><path class="cls-7" d="M80.16 162.82c3.88-9.77 5.15 15.17 10.15 4.89 6.58-11.86-7.04-19.46-18.54-12.41-1.88 1.97-3.27 12.35 1.61 8.87 2.08-.62-2.49 6.29 3.79 4.47 1.73-3.87-1.81-4.1 3-5.82Zm1.8-6.41c.08.88.15 1.7.26 2.9-1.43-1.53-1.44-1.91-.26-2.9ZM27.34 132.96c-.77-.09-1.41 1.2-2.15.12"/><path class="cls-6" d="M98.09 140.56c1.42-19.7 22.78 2.94 10.34 9.4-5.2 1.87-10.15-11.66-9.8-6.46 3.1 4.75-1.76 8.23-5.77 5.1 1.24-3.49-.95-11.41 5.24-8.05ZM21.11 167.68c22.85 15.16 10.66-2.36 14.87-8.53-.61-7.15-4.98 2.62-6.4 1-3.44 3.04-17.75 2.24-8.47 7.53ZM65.74 185.58c15.59-1.75-3.25-2.54.5-17.16 3.77-4.23 11.26-3.13 8.22 3.49-6.05 4.26 10.58-2.01 6.11 5.02-.13 2.1-7.63 3.91-2.95 3.87 19.38 3.12-15.05 27.44-11.88 4.77ZM119.78 162.93c1.43-5.07 2.02-5.24 2.11-.09-2.32 4.16 11.3 11.78-.9 12.47-10.17 4.32-16.26-28.55-1.21-12.38ZM136.47 150.08c-9.51 7-9.98-8.85-.18-6.97 12.3 1.59 6.17 10.22.18 6.97ZM59.91 164.57c-1.92-4.08-3.51-3.65-5.12-2.31-2.25 1.87-4.53 5.51-7.79.98-1.03-5.64 5.77-10.07-4-9.03-1.04-2.3 1.86-1.59 3.37-1.64-10.76-9.99 13.61-19.97 15.96-4.83 4.51-3.25 9.51 6.19 3.29 7.48-5.78.77-1.87 5.98-5.71 9.34Z"/><path class="cls-6" d="M66.71 162.69c6.22 5.48-4.21 15.95-8.33 7.24-2.15-4.94 3.79-12.55 8.33-7.24ZM98.89 158.91c3.45-3 5.18.84 2.3 3.05-2.26 3.41-3.6-1.32-2.3-3.05ZM31.92 150.58c1.87 1.67-.49 4.61-2.36 2.96-1.87-1.67.31-4.92 2.36-2.96Z"/><path class="cls-7" d="M83.82 194.19c-2.67-3.17 4.75-4.65 2.93-.68"/><path class="cls-6" d="M120.81 147.64c2.87-2.59 2.17 3.12-.18 2.04-.78-.57-.35-1.41.18-2.04ZM43.2 173.81c.05-.64-.61-1.91.2-2.04 2.41.16 2.72 2.48-.2 2.04Z"/></g><path class="cls-11" d="M135.42 144.66c-30.7 34.3-112.17 32.56-116.01 22.85-.31-.79.71 3.91 3.91 5.48 18.84 9.23 81.18 12.43 111-25.06.99-1.24 1.46-3.67 1.1-3.27Z"/><path class="cls-19" d="m24.89 128.93-11.25 10.75c-1.62 1.55-.66 4.16 1.63 4.44 27.19 3.36 53.13 15.25 72.69 33.33 1.62 1.5 4.37.67 4.71-1.44 3.54-22.44 21.38-42.45 44.14-49.9 2.56-.84 2.44-4.25-.15-5-36.88-10.59-78.05-7.6-112.66 8.45"/><path d="M17.29 131.13c.1-.1.2-.2.29-.3-.08.04-.18.14-.29.3Z" style="fill:#00b743;stroke-width:0"/><path d="M128.15 112.78c-2.54-1.21-5.44-1.37-8.26-1.52-17.78-.93-36.07-1.79-52.9 3.86-10.7 3.59-20.5 9.73-31.58 11.98-8.53 1.73-11.97-2.15-17.82 3.74.78-.41 6.45.04 7.53 1.6 1.19 1.72-5.24 3.46-5.54 10.15-.09 2.07-.62 4.22.15 6.15 1.6 4.05 7.34 4.93 11.5 3.39 4.16-1.54 7.46-4.71 11.4-6.73 3.94-2.03 9.38-2.6 12.37.61 1.72 1.86 2.17 4.48 3 6.85s2.5 4.85 5.05 5.11c3.65.37 5.79-3.7 7.81-6.69 4.89-7.27 15.03-10.71 23.49-7.98 3.66 1.18 6.9 3.34 10.5 4.68 3.6 1.34 7.95 1.73 11.06-.47 5.6-3.97 3.57-13 7.84-18.31 2.84-3.53 8.44-5.45 8.82-9.93.23-2.74-1.87-5.26-4.41-6.47Z" style="fill:#6b9327;stroke-width:0"/><path d="M122.3 104.18c2.49 5.87-7.37 14.12-20.7 19.76-13.33 5.64-26.46 4.71-27.75 1.67s9.76-7.04 23.09-12.68 24.07-11.79 25.36-8.75Z" style="fill:#dd542a;stroke-width:0"/><ellipse cx="98.12" cy="113.33" rx="26.21" ry="5.98" transform="rotate(-22.95 98.097 113.315)" style="fill:#f75e28;stroke-width:0"/><path class="cls-15" d="M91.12 59.96c-24.23-7-39.4-2.74-59.81 12.08-18.35 13.33-29.01 36.4-27.84 58.99.23 4.46 3.88 7.97 8.34 8.24 33.25 2.02 69.31-10.28 94.99-31.03 4.43-3.58 13.36-11.07 18.05-17.88 2.47-3.6 1.93-8.44-1.24-11.44-5.74-5.44-17.07-14.51-32.48-18.96Z"/><path d="M38.24 55.21c14.29-11.97 25.82-25.5 35.51-39.18-15.08 2.83-29.8 7.58-43.69 14.09l9.23 8.56-1.05 16.53Z" style="fill:#ff8000;stroke-width:0"/><g style="clip-path:url(#clippath-2)"><path class="cls-14" d="M37.39 39.19c.2 4.06.61 8.1 1.17 12.12.23 1.62 2.27 2.47 3.69 2.1 1.73-.46 2.32-2.09 2.1-3.69-.49-3.49-.79-7.01-.96-10.53-.18-3.84-6.19-3.87-6 0ZM69.5 38.12l1.22 11.69c.4 3.8 6.4 3.84 6 0L75.5 38.12c-.4-3.8-6.4-3.84-6 0ZM101.83 38.12c.28 3.84.82 7.65 1.65 11.41s6.61 2.17 5.79-1.6c-.71-3.25-1.2-6.5-1.44-9.82-.28-3.83-6.28-3.86-6 0ZM130.63 37.76l-.57 10.29c-.21 3.86 5.79 3.85 6 0l.57-10.29c.21-3.86-5.79-3.85-6 0ZM156.97 37.74l1.28 9.6c.21 1.61 1.23 3 3 3 1.45 0 3.22-1.38 3-3l-1.28-9.6c-.21-1.61-1.23-3-3-3-1.45 0-3.22 1.38-3 3Z"/><path class="cls-13" d="M53.97 67.91c.04 4.27-.14 8.53-.54 12.79-.36 3.84 5.64 3.82 6 0 .4-4.26.58-8.51.54-12.79-.03-3.86-6.03-3.87-6 0ZM88.97 64.37c.39 4.73.78 9.45 1.18 14.18.32 3.82 6.32 3.85 6 0-.39-4.73-.78-9.45-1.18-14.18-.32-3.82-6.32-3.85-6 0ZM35.89 93.45c-.16 3.21-.05 6.39.34 9.57.2 1.61 1.24 3 3 3 1.47 0 3.2-1.38 3-3-.39-3.19-.51-6.37-.34-9.57.2-3.86-5.8-3.85-6 0ZM73.18 89.55c-.1 4.49-.21 8.98-.31 13.47-.09 3.86 5.91 3.86 6 0 .1-4.49.21-8.98.31-13.47.09-3.86-5.91-3.86-6 0ZM102.33 89.92c.3 3.59.78 7.16 1.45 10.7.72 3.79 6.5 2.18 5.79-1.6-.57-3.02-.98-6.05-1.24-9.11-.32-3.82-6.32-3.85-6 0ZM53.62 116.87c-.12 3.32 0 6.63.35 9.93.17 1.61 1.26 3 3 3 1.49 0 3.17-1.38 3-3-.35-3.31-.46-6.61-.35-9.93.14-3.86-5.86-3.86-6 0ZM25.59 120.06v9.58c0 3.86 6 3.87 6 0v-9.58c0-3.86-6-3.87-6 0ZM86.19 117.02c1.1 2.82 1.77 5.69 1.9 8.71.18 3.84 6.18 3.87 6 0-.16-3.55-.83-6.99-2.12-10.31-.59-1.51-2.01-2.56-3.69-2.1-1.44.4-2.69 2.17-2.1 3.69Z"/><path class="cls-14" d="M38.01 145.24c-.1 3.91.02 7.81.36 11.7s6.34 3.85 6 0-.46-7.79-.36-11.7-5.9-3.86-6 0ZM71.34 142.79c.4 3.81.52 7.79 1.22 11.56.49 2.6 3.72 4.9 5.87 2.24.63-.79 1.18-1.88.77-2.92l-.08-.21c-1.4-3.55-7.2-2-5.79 1.6l.08.21.77-2.92-.17.21 2.12-.88-.27.03 2.12.88c.87 1.03.27-.96.23-1.43l-.29-2.79-.59-5.58c-.4-3.8-6.4-3.84-6 0ZM101.69 141.34c.08 3.68.31 7.36.68 11.02s6.39 3.84 6 0-.6-7.34-.68-11.02-6.08-3.87-6 0ZM53.23 169.72c.18 4.46.81 8.88 1.91 13.21.95 3.74 6.74 2.15 5.79-1.6s-1.54-7.67-1.7-11.61-6.15-3.87-6 0ZM85.15 170.43c.42 3.67.4 7.32-.05 10.98-.2 1.62 1.52 2.98 3 3 1.78.02 2.8-1.4 3-3 .45-3.67.47-7.31.05-10.98-.18-1.62-1.25-2.98-3-3-1.48-.02-3.18 1.39-3 3ZM120.42 173.35l2.04 11.01c.68 3.67 6.49 2.19 5.79-1.6s-1.36-7.34-2.04-11.01-6.49-2.19-5.79 1.6ZM149.19 172.84c-.79 3.67-1.05 7.35-.64 11.09.18 1.62 1.25 2.98 3 3 1.49.02 3.18-1.39 3-3-.35-3.2-.26-6.35.42-9.49.81-3.76-4.97-5.37-5.79-1.6ZM172.51 176.2c.67 2.9 1 5.79 1.03 8.77.04 3.86 6.04 3.87 6 0a48.99 48.99 0 0 0-1.24-10.37c-.87-3.76-6.65-2.17-5.79 1.6ZM25.62 174.93c-.79 3.5-.78 6.99.06 10.48.91 3.75 6.69 2.16 5.79-1.6-.59-2.43-.62-4.85-.06-7.29.85-3.76-4.93-5.37-5.79-1.6Z"/><path class="cls-13" d="M22.22 69.05c.92 3.72 1.56 7.47 1.89 11.29s6.33 3.85 6 0c-.37-4.35-1.05-8.64-2.1-12.88-.93-3.75-6.72-2.16-5.79 1.6Z"/><path class="cls-14" d="M106.88 198.07c.09 3.67.3 7.33.62 10.98s6.34 3.85 6 0-.53-7.32-.62-10.98c-.1-3.85-6.1-3.87-6 0ZM137.66 197.14c-.13 3.31-.26 6.62-.38 9.93-.15 3.86 5.85 3.85 6 0 .13-3.31.26-6.62.38-9.93.15-3.86-5.85-3.85-6 0ZM161.94 198.19l.51 8.17c.24 3.84 6.24 3.86 6 0l-.51-8.17c-.24-3.84-6.24-3.86-6 0ZM185.75 35.37c.26 3.44.51 6.87.77 10.31.29 3.83 6.29 3.86 6 0-.26-3.44-.51-6.87-.77-10.31-.29-3.83-6.29-3.86-6 0ZM6.07 37.51c.11 3.85.49 7.65 1.1 11.45.26 1.61 2.25 2.48 3.69 2.1 1.71-.45 2.35-2.1 2.1-3.69-.52-3.27-.79-6.55-.88-9.86-.11-3.85-6.11-3.87-6 0Z"/><path class="cls-13" d="M6.36 94.29c-.2 3.3-.4 6.6-.59 9.9-.23 3.86 5.77 3.84 6 0 .2-3.3.4-6.6.59-9.9.23-3.86-5.77-3.84-6 0Z"/><path class="cls-14" d="M6.91 147.48c.05 3.96.4 7.88.97 11.8.23 1.62 2.27 2.47 3.69 2.1 1.73-.46 2.32-2.09 2.1-3.69-.49-3.38-.71-6.79-.75-10.21-.05-3.86-6.05-3.87-6 0ZM71.7 197.14v11c0 3.86 6 3.87 6 0v-11c0-3.86-6-3.87-6 0ZM40.89 196.07c.1 3.85.45 7.65.96 11.46.22 1.62 2.28 2.47 3.69 2.1 1.74-.46 2.31-2.09 2.1-3.69-.44-3.27-.66-6.57-.74-9.87-.1-3.85-6.1-3.87-6 0ZM9.76 197.15c-.39 3.41-.77 6.82-1.16 10.24-.18 1.62 1.51 2.98 3 3 1.77.02 2.82-1.4 3-3 .39-3.41.77-6.82 1.16-10.24.18-1.62-1.51-2.98-3-3-1.77-.02-2.82 1.4-3 3ZM188.82 158.15c.4 4.41.92 8.8 1.53 13.18.23 1.62 2.27 2.47 3.69 2.1 1.73-.46 2.32-2.09 2.1-3.69-.54-3.85-.96-7.71-1.32-11.58-.35-3.81-6.35-3.85-6 0ZM188.94 82.49c-.57 3.9-.58 7.61-.05 11.51.22 1.6 2.28 2.49 3.69 2.1 1.73-.48 2.32-2.07 2.1-3.69-.37-2.73-.35-5.59.05-8.32.24-1.61-.4-3.21-2.1-3.69-1.41-.4-3.45.49-3.69 2.1ZM58.65 23.32c.06-3.54.38-7.04 1-10.52.67-3.78-5.11-5.4-5.79-1.6-.71 4.01-1.14 8.04-1.21 12.12-.07 3.86 5.93 3.86 6 0ZM87.81 9.86l.71 9.91c.27 3.83 6.28 3.86 6 0l-.71-9.91c-.27-3.83-6.28-3.86-6 0ZM118.83 11.26c.14 3.9.27 7.8.41 11.7s6.13 3.87 6 0-.27-7.8-.41-11.7-6.13-3.87-6 0ZM144.64 12.75c.42 2.49.84 4.98 1.25 7.48.27 1.6 2.24 2.49 3.69 2.1 1.69-.47 2.36-2.09 2.1-3.69-.42-2.49-.84-4.98-1.25-7.48-.27-1.6-2.24-2.49-3.69-2.1-1.69.47-2.36 2.09-2.1 3.69ZM171.12 11.71c.74 3.62.8 7.25.35 10.92-.2 1.62 1.52 2.98 3 3 1.79.02 2.8-1.4 3-3 .53-4.21.29-8.36-.56-12.51-.77-3.78-6.56-2.18-5.79 1.6ZM28.62 20.69c-.49-3.14-.74-6.3-.82-9.48-.09-3.85-6.1-3.87-6 0s.46 7.4 1.03 11.08c.25 1.61 2.25 2.47 3.69 2.1 1.71-.45 2.34-2.1 2.1-3.69ZM203.41 22.4l-.18-10.89c-.06-3.86-6.06-3.87-6 0l.18 10.89c.06 3.86 6.06 3.87 6 0ZM186.79 135.19c-.31 2.84-.29 5.66.08 8.49.21 1.61 1.23 3 3 3 1.46 0 3.21-1.38 3-3a35.46 35.46 0 0 1-.08-8.49c.18-1.61-1.51-3-3-3-1.77 0-2.82 1.38-3 3ZM186.57 195.09l.37 9.98c.14 3.85 6.14 3.87 6 0l-.37-9.98c-.14-3.85-6.14-3.87-6 0ZM-3 176.03v9.98c0 3.86 6 3.87 6 0v-9.98c0-3.86-6-3.87-6 0Z"/><path class="cls-17" d="M130.39 153.32 28.08 163.54c-6.33.63-11.14 5.96-11.14 12.32v3.97c.01 6.52 5.2 13.12 11.53 14.68 34.91 8.55 71.67 3.87 103.24-12.96 3.81-2.03 6.28-5.9 6.61-10.21l.72-9.56c.37-4.89-3.77-8.94-8.65-8.45Z"/></g><path d="M45.32 77.3c.39.04.8-.03 1.16-.17.52-.2 1.01-.49 1.39-.91.41-.45.66-.98.73-1.58.06-.52-.06-1.12-.38-1.54-1.67-4.18-9.92-23.47-11.82-28.25-1.72-4.32-3.45-8.65-5.17-12.97-.19-.49-.39-.97-.58-1.46-.03-.06-.06-.13-.09-.18-.09-.52-.32-1-.74-1.36-.47-.4-1.04-.63-1.66-.68-.97-.08-2.18.32-2.74 1.18-.23.2-.37.53-.26.82l5.22 13.08 13.36 31.99.55 1.37c.02.07.05.13.08.19.18.36.52.6.95.49Z" style="fill:#a84902;stroke-width:0"/><path class="cls-11" d="M126.33 85.11c-25.62 40.56-114.58 59.36-121.14 50.8-.53-.7 2.65 3.97 3.52 4.07 25.87 3.12 93.33-7.97 117.2-51.44.79-1.44.73-3.92.43-3.43ZM199.11 49.02c-18.25 9.47-36.57 13.26-49.71 12.26-25.08-1.9-39.32-17.66-39.32-17.66 2.67 8.42 22.16 21.14 39.23 22.73 20.6 1.93 47.91-9.18 49.8-17.33Z"/></svg>