<svg id="Illustration" xmlns="http://www.w3.org/2000/svg" viewBox="0 0 200 200"><defs><style>.cls-1{fill:none}.cls-1,.cls-10,.cls-11,.cls-12,.cls-13,.cls-2,.cls-4,.cls-6,.cls-7,.cls-8,.cls-9{stroke-width:0}.cls-2{fill:#a7cccd}.cls-4{fill:#d2e9eb}.cls-6{fill:#d6e8ea}.cls-7{fill:#b3dce0}.cls-8{fill:#c1dade}.cls-9{fill:#b4cacc}.cls-10{fill:#badade}.cls-11{fill:#a0b4b5}.cls-12{fill:#fff}.cls-13{fill:#ffbe00}</style></defs><path class="cls-9" d="M176.83 179.6c0 5.32-32.21 16.52-71.94 16.52s-71.94-11.21-71.94-16.52 32.21-2.73 71.94-2.73 71.94-2.59 71.94 2.73Z"/><path class="cls-12" d="M198.36 175.71c-.56-2.59-38.43 6.61-91.78 6.75-53.35.51-96.13-8.18-96.66-5.58-.24 1.08 9.07 3.5 26.51 6.92 17.42 3.43 41.93 5.13 69.1 4.99 27.17-.19 51.64-2.18 69.02-5.82 17.4-3.63 24.08-6.17 23.82-7.25Z"/><path class="cls-8" d="M164.09 171.71c-15.81-1.1-36.84-1.7-59.19-1.7s-43.38.6-59.19 1.7c-25.48 1.77-25.48 3.89-25.48 5.16s0 3.39 25.48 5.16c15.81 1.1 36.84 1.7 59.19 1.7s43.38-.6 59.19-1.7c25.48-1.77 25.48-3.89 25.48-5.16s0-3.39-25.48-5.16Z"/><ellipse class="cls-10" cx="97.65" cy="173.57" rx="16.92" ry="3.31"/><path class="cls-2" d="M142.43 37.7c.45-1.57.38-2.81-.26-3.66-.07-.09-.15-.18-.23-.27.49 1.26.65 2.61.49 3.93Z"/><path class="cls-1" d="M25.81 112.6c-.04.06-.09.12-.13.18.04-.06.09-.12.13-.18ZM63.87 75.87c.26-.2.52-.41.77-.61-.26.2-.52.41-.77.61ZM62.47 76.99c.25-.2.5-.4.76-.61-.25.2-.51.4-.76.61ZM25.32 113.31c-.04.06-.09.12-.13.19.04-.06.09-.12.13-.19ZM24.85 114.01l-.12.18.12-.18ZM52.55 85.24l-.68.59c.22-.2.45-.39.68-.59ZM61.09 78.11c.25-.2.49-.4.74-.6-.25.2-.5.4-.74.6ZM59.71 79.22c.24-.2.48-.39.72-.59-.24.2-.48.39-.72.59ZM69.64 71.37c.29-.23.59-.45.89-.68l-.89.68ZM26.86 111.18l-.09.12.09-.12ZM68.18 72.49c.28-.22.56-.43.84-.65-.28.22-.56.43-.84.65ZM22.67 117.83s-.04.09-.06.13c.02-.04.04-.09.06-.13ZM26.33 111.89c-.04.05-.08.11-.12.16.04-.05.08-.11.12-.16ZM66.72 73.62l.81-.63-.81.63ZM22.01 119.47s0 .03-.01.04c0-.01 0-.03.01-.04ZM71.12 70.23c.33-.25.67-.51 1.01-.76-.34.25-.67.51-1.01.76ZM23.27 116.63c-.03.05-.06.11-.09.16.03-.05.06-.11.09-.16ZM23.61 116c-.03.06-.06.11-.1.17.03-.06.06-.11.1-.17ZM48.86 88.46c-.26.23-.51.45-.76.68.25-.23.51-.45.76-.68ZM22.41 118.39s-.03.07-.04.11c.02-.04.03-.07.04-.11ZM22.95 117.24c-.03.05-.05.1-.07.15.02-.05.05-.1.07-.15ZM22.2 118.94s-.02.06-.03.08c.01-.03.02-.06.03-.08ZM53.13 84.74c.15-.13.31-.26.46-.4-.16.13-.31.27-.46.4ZM47.45 89.73l-.92.83c.3-.28.61-.55.92-.83ZM51.3 86.32c-.23.2-.45.4-.68.59l.68-.59ZM45.97 91.07c-.2.18-.39.36-.59.54.19-.18.39-.36.59-.54ZM24 115.35c-.04.06-.07.12-.11.18.04-.06.07-.12.11-.18ZM50.07 87.4l-.72.63.72-.63ZM18.14 51.49c-2.34.33-4.71 1.15-6.92 2.46-4.66 2.74-8.07 7.24-9.12 12.04-1.74 7.9 2.07 16.74 8.83 21.85-.63-12.47 1.82-24.99 7.21-36.34ZM24.41 114.69l-.12.18.12-.18ZM65.29 74.75c.26-.21.53-.42.8-.63-.27.21-.53.42-.8.63ZM33.03 103.86l-.29.32.29-.32ZM123.6 61.54c1.06.69 2.23 1.21 3.51 1.46 6.76 1.35 13.37-5.45 14.75-12.43.69-3.45.55-6.97-.09-10.54-.36.8-.86 1.55-1.48 2.22-3.05 5.03-8.86 11.71-16.69 19.28ZM41.54 95.22c-.16.16-.33.31-.49.47.16-.16.32-.31.49-.47ZM40.49 96.22c-.16.15-.32.31-.47.46.16-.15.31-.31.47-.46ZM43.7 93.17c-.18.16-.35.33-.53.49.17-.16.35-.33.53-.49ZM30.67 106.5s-.07.08-.11.13c.04-.04.07-.08.11-.13ZM32.22 104.75c-.09.09-.17.19-.25.28l.25-.28ZM42.6 94.21c-.17.16-.33.32-.5.47.17-.16.33-.32.5-.47ZM59.08 79.74l-.16.13.16-.13ZM44.82 92.13c-.18.17-.37.34-.55.51.18-.17.37-.34.55-.51ZM33.88 102.94c-.11.12-.22.24-.33.35.11-.12.22-.23.33-.35ZM72.62 69.11c.5-.38 1.01-.75 1.51-1.13-.51.38-1.01.75-1.51 1.13ZM95.35 9a29.03 29.03 0 0 0-3.01-2.45C83.9.59 72.35.12 64.89 5.44c-2.73 1.95-4.87 4.86-6.12 8.2C70.55 9.02 83.13 7.53 95.36 9ZM31.43 105.63l-.21.24.21-.24ZM27.38 110.5s-.01.02-.02.03c0 0 .01-.02.02-.03Z"/><path class="cls-9" d="M110 53.16c-.77-2.66-1.22-5.34-1.55-8.01a289.74 289.74 0 0 0-10.64 6.45c1.9 3.18 3.17 6.84 3.66 10.72.92 7.35-.99 14.66-5.25 20.07-8.55 10.86-25.77 13.59-37.6 5.96-1.83-1.18-3.49-2.54-5.02-4.01-.16.13-.31.27-.46.4-.2.17-.39.34-.58.5l-.68.59c-.19.17-.38.33-.58.5-.23.2-.45.4-.68.59-.18.16-.37.32-.55.48l-.72.63-.49.43c-.26.23-.51.45-.76.68-.22.2-.44.39-.65.58l-.92.83c-.19.17-.37.34-.56.51-.2.18-.39.36-.59.54-.19.18-.38.35-.57.52-.18.17-.37.34-.55.51-.19.18-.38.35-.57.53-.18.16-.35.33-.53.49l-.57.54c-.17.16-.33.32-.5.47-.19.18-.38.36-.56.54-.16.16-.33.31-.49.47-.19.18-.37.36-.56.54-.16.15-.32.31-.47.46-.17.17-.35.34-.52.51 1.28.65 2.53 1.41 3.72 2.33 4.59 3.53 7.44 9.25 7.84 15.55 11.35-6.17 25-14.98 39.15-25.52 10.63-7.92 20.25-15.86 28.26-23.19-4.31-3.38-7.11-8.53-8.46-13.19ZM39.01 104.98c-1.4-1.08-2.97-1.89-4.66-2.54l-.47.5c-.11.12-.22.24-.33.35-.17.19-.35.37-.52.56l-.29.32c-.18.19-.35.39-.53.58-.09.09-.17.19-.25.28-.18.2-.36.4-.53.6l-.21.24c-.19.21-.37.42-.55.63-.04.04-.07.08-.11.13a97.075 97.075 0 0 0-3.18 3.87s-.01.02-.02.03c-.17.22-.34.44-.5.65l-.09.12c-.15.2-.29.4-.44.59-.04.05-.08.11-.12.16-.14.19-.27.37-.4.55-.04.06-.09.12-.13.18-.13.18-.25.35-.37.53-.04.06-.09.12-.13.19-.12.17-.23.34-.34.51l-.12.18c-.11.17-.21.33-.32.5l-.12.18c-.1.16-.2.32-.29.48-.04.06-.07.12-.11.18-.09.16-.18.31-.27.47-.03.06-.06.11-.1.17-.09.15-.17.31-.25.46-.03.05-.06.11-.09.16-.08.15-.16.3-.23.45-.03.05-.05.1-.07.15-.07.15-.14.3-.21.44-.02.04-.04.09-.06.13-.07.15-.13.29-.19.44-.02.04-.03.07-.04.11-.06.15-.12.29-.17.44-.01.03-.02.06-.03.08-.05.15-.11.3-.15.44 0 .01 0 .03-.01.04-.37 1.16-.47 2.15-.29 2.95.09.38.24.72.45 1.02 1.67 2.24 7.03 1.49 14.83-1.64 2.18-.87 4.55-1.94 7.09-3.17.08-.65.13-1.31.13-1.98.03-4.79-1.92-9.17-5.2-11.7ZM140.28 42.26c.57-.93 1.03-1.81 1.41-2.62-.42-2.24-1.03-4.5-1.75-6.78-4.31-.74-13.31 2.5-24.93 8.67.32 3.38.73 6.61 1.62 9.71 1.06 3.65 3.42 7.98 6.97 10.29 7.82-7.56 13.63-14.25 16.69-19.28Z"/><path class="cls-9" d="M62.36 82.55c8.81 5.69 22.11 3.61 28.44-4.43 3.13-3.97 4.52-9.41 3.83-14.94-.36-2.84-1.26-5.51-2.6-7.82-5.78 3.83-11.8 8.06-17.9 12.61-.51.38-1.01.75-1.51 1.13-.16.12-.32.24-.49.37-.34.25-.67.51-1.01.76l-.6.45-.89.68-.63.48c-.28.22-.56.43-.84.65-.22.17-.43.33-.64.5l-.81.63c-.21.17-.43.33-.64.5-.27.21-.53.42-.8.63-.22.17-.43.34-.64.51-.26.2-.52.41-.77.61-.22.17-.43.34-.65.52-.25.2-.51.4-.76.61-.21.17-.43.34-.64.52-.25.2-.5.4-.74.6l-.65.53c-.24.2-.48.39-.72.59-.21.17-.42.35-.63.52l-.16.13c1.08.99 2.22 1.89 3.44 2.68Z"/><path class="cls-8" d="M48.36 66.05c3.33 5.18 6.52 10.13 10.55 13.82l.16-.13c.21-.17.42-.35.63-.52.24-.2.48-.39.72-.59l.65-.53c.25-.2.49-.4.74-.6.21-.17.43-.34.64-.52.25-.2.5-.4.76-.61.21-.17.43-.34.65-.52.26-.2.52-.41.77-.61.21-.17.43-.34.64-.51.26-.21.53-.42.8-.63.21-.17.43-.33.64-.5l.81-.63c.21-.17.43-.33.64-.5.28-.22.56-.43.84-.65l.63-.48c.29-.23.59-.45.89-.68l.6-.45c.33-.25.67-.51 1.01-.76.16-.12.32-.24.49-.37.5-.38 1.01-.75 1.51-1.13 6.11-4.55 12.12-8.78 17.9-12.61-1.16-2.01-2.65-3.75-4.41-5.1-3.71-2.84-8.44-4.34-13.45-5.94-6.69-2.13-13.6-4.33-18.52-10-3.89-4.48-5.6-10.52-4.83-17v-.02c-.32.17-.64.34-.96.52-.37-.89-.85-1.74-1.46-2.54-3.84-4.99-10.99-5.92-15.98-2.09-4.99 3.84-5.92 10.99-2.09 15.98.59.77 1.27 1.43 1.99 2a74.82 74.82 0 0 0-10.38 13.31c1.6.11 3.17.38 4.69.84 10.4 3.1 16.16 12.07 21.73 20.74ZM42.56 69.78c-5.12-7.96-9.95-15.48-17.9-17.86-2.06-.61-4.28-.75-6.52-.44a75.754 75.754 0 0 0-7.21 36.34c1.5 1.13 3.14 2.09 4.9 2.8 3.13 1.27 6.59 1.94 10.24 2.64 4.54.87 9.19 1.77 13.43 3.92.17-.17.34-.34.52-.51.16-.15.31-.31.47-.46.18-.18.37-.36.56-.54.16-.16.32-.31.49-.47.19-.18.37-.36.56-.54.17-.16.33-.32.5-.47l.57-.54c.17-.16.35-.33.53-.49.19-.18.38-.35.57-.53.18-.17.37-.34.55-.51.19-.17.38-.35.57-.52.19-.18.39-.36.59-.54.19-.17.37-.34.56-.51.3-.28.61-.55.92-.83.22-.19.43-.39.65-.58.25-.23.51-.45.76-.68l.49-.43.72-.63c.18-.16.37-.32.55-.48l.68-.59c.19-.17.38-.33.58-.5.22-.2.45-.39.68-.59.19-.17.39-.33.58-.5l.46-.4c-4.38-4.22-7.75-9.45-11.03-14.56Z"/><path class="cls-8" d="M107.12 32.63C105.62 22.99 101.4 14.6 95.36 9a75.394 75.394 0 0 0-36.59 4.64c-.54 1.44-.91 2.95-1.1 4.51-.54 4.53.59 8.68 3.19 11.67 3.65 4.2 9.36 6.02 15.41 7.95 5.35 1.7 10.89 3.46 15.55 7.04 2.39 1.83 4.42 4.16 6.01 6.82 3.68-2.34 7.24-4.5 10.64-6.45-.22-1.78-.38-3.56-.54-5.31-.22-2.5-.44-4.87-.8-7.22ZM22 119.51s0-.03.01-.04c.05-.14.1-.29.15-.44.01-.03.02-.06.03-.08.05-.14.11-.29.17-.44.02-.04.03-.07.04-.11.06-.14.13-.29.19-.44.02-.04.04-.09.06-.13.07-.14.14-.29.21-.44.02-.05.05-.1.07-.15.07-.15.15-.3.23-.45.03-.05.06-.11.09-.16.08-.15.17-.3.25-.46.03-.06.06-.11.1-.17.09-.15.18-.31.27-.47.04-.06.07-.12.11-.18.1-.16.19-.32.29-.48l.12-.18c.1-.16.21-.33.32-.5l.12-.18c.11-.17.23-.34.34-.51.04-.06.09-.12.13-.19.12-.18.24-.35.37-.53.04-.06.09-.12.13-.18.13-.18.26-.37.4-.55.04-.05.08-.11.12-.16.14-.2.29-.39.44-.59l.09-.12c.16-.22.33-.43.5-.65 0 0 .01-.02.02-.03.95-1.23 2.02-2.52 3.18-3.87.04-.04.07-.08.11-.13.18-.21.37-.42.55-.63l.21-.24c.17-.2.35-.4.53-.6l.25-.28c.17-.19.35-.39.53-.58l.29-.32c.17-.19.34-.37.52-.56.11-.12.22-.23.33-.35l.47-.5c-2.91-1.12-6.18-1.75-9.57-2.4-3.82-.73-7.78-1.49-11.54-3.02-.46-.19-.92-.39-1.37-.61a75.144 75.144 0 0 0 9.55 26.06l.75 1.01-.45-1.02c-.18-.8-.08-1.79.29-2.95ZM114.79 39.23c.07.78.14 1.54.21 2.3 11.62-6.17 20.63-9.41 24.93-8.67-.32-1.01-.67-2.03-1.02-3.05a75.162 75.162 0 0 0-32.79-18.71c3.9 5.8 6.63 12.81 7.82 20.47.4 2.57.63 5.16.86 7.66Z"/><path class="cls-7" d="M23.52 116.17c-.09.15-.17.31-.25.46.08-.15.17-.3.25-.46ZM27.36 110.53c-.17.22-.34.44-.5.65.16-.22.33-.43.5-.65ZM33.55 103.3c-.17.19-.35.37-.52.56.17-.19.34-.37.52-.56ZM22.88 117.39ZM26.77 111.29c-.15.2-.29.4-.44.59.14-.2.29-.39.44-.59ZM26.21 112.05c-.14.19-.27.37-.4.55.13-.18.26-.37.4-.55ZM23.18 116.79c-.08.15-.16.3-.23.45.07-.15.15-.3.23-.45ZM23.89 115.53c-.09.16-.18.31-.27.47.09-.15.18-.31.27-.47ZM24.29 114.88c-.1.16-.2.32-.29.48.1-.16.19-.32.29-.48ZM31.22 105.87c-.19.21-.37.42-.55.63.18-.21.37-.42.55-.63ZM25.19 113.5c-.12.17-.23.34-.34.51.11-.17.23-.34.34-.51ZM25.68 112.78ZM31.96 105.04c-.18.2-.36.4-.53.6.17-.2.35-.4.53-.6ZM24.72 114.2c-.11.17-.21.33-.32.5.1-.16.21-.33.32-.5ZM30.56 106.63ZM32.74 104.17c-.18.19-.35.39-.53.58.17-.19.35-.39.53-.58ZM67.53 72.99c.21-.17.43-.33.64-.5-.22.17-.43.33-.64.5ZM70.53 70.69l.6-.45-.6.45ZM72.13 69.47c.16-.12.32-.24.49-.37-.16.12-.32.24-.49.37ZM46.53 90.56c-.19.17-.37.34-.56.51.19-.17.37-.34.56-.51ZM53.13 84.74c-.2.17-.39.34-.58.5.19-.17.39-.33.58-.5ZM69.02 71.85l.63-.48-.63.48ZM64.64 75.26c.21-.17.43-.34.64-.51-.22.17-.43.34-.64.51ZM66.09 74.12c.21-.17.43-.33.64-.5-.21.17-.43.33-.64.5ZM43.17 93.66l-.57.54.57-.54ZM22 119.51c-.37 1.16-.47 2.15-.29 2.95-.18-.8-.08-1.79.29-2.95ZM44.27 92.64c-.19.18-.38.35-.57.53.19-.18.38-.35.57-.53ZM41.05 95.69c-.19.18-.37.36-.56.54.18-.18.37-.36.56-.54ZM22.61 117.96c-.07.15-.13.29-.19.44.06-.14.13-.29.19-.44ZM42.1 94.68c-.19.18-.38.36-.56.54.19-.18.37-.36.56-.54ZM63.22 76.38c.21-.17.43-.34.65-.52-.22.17-.43.34-.65.52ZM45.39 91.61c-.19.18-.38.35-.57.52.19-.17.38-.35.57-.52ZM50.62 86.92c-.18.16-.37.32-.55.48.18-.16.37-.32.55-.48ZM22.17 119.02c-.05.15-.11.3-.15.44.05-.14.1-.29.15-.44ZM48.1 89.14c-.22.2-.44.39-.65.58.22-.19.43-.39.65-.58ZM49.35 88.03l-.49.43.49-.43ZM33.88 102.94l.47-.5-.47.5ZM22.37 118.5c-.06.15-.12.29-.17.44.05-.14.11-.29.17-.44ZM51.87 85.82c-.19.17-.38.33-.58.5.19-.17.38-.33.58-.5ZM60.44 78.63l.65-.53-.65.53ZM39.5 97.19c.17-.17.34-.34.52-.51-.17.17-.35.34-.52.51ZM61.83 77.51c.21-.17.43-.34.64-.52-.21.17-.43.34-.64.52ZM59.08 79.74c.21-.17.42-.35.63-.52-.21.17-.42.35-.63.52Z"/><path class="cls-2" d="M140.28 42.26a8.05 8.05 0 0 0 1.48-2.22c-.02-.13-.05-.27-.08-.4-.37.81-.84 1.69-1.41 2.62Z"/><path class="cls-4" d="M36.56 100.14c-.13.14-.27.27-.4.41.13-.14.26-.27.4-.41ZM37.51 99.17l-.42.42.42-.42ZM39.47 97.22c-.15.15-.31.3-.46.45.15-.15.3-.3.46-.45ZM34.74 102.02c-.12.13-.24.25-.35.37.12-.12.23-.25.35-.37ZM35.64 101.08c-.13.13-.25.26-.38.4.13-.13.25-.26.38-.4ZM55.71 82.54c.23-.19.46-.39.69-.58-.23.19-.46.39-.69.58ZM38.04 98.64l.44-.44-.44.44ZM54.42 83.64c.23-.19.45-.39.68-.58-.23.19-.46.39-.68.58ZM57.03 81.44l.71-.59-.71.59ZM53.59 84.34l.22-.19c-.07.06-.15.12-.22.19ZM58.92 79.87c-.19.15-.37.31-.56.46.19-.15.37-.31.56-.46Z"/><path class="cls-11" d="M116.63 51.24c-.9-3.1-1.3-6.33-1.62-9.71-2.1 1.12-4.29 2.33-6.55 3.63.32 2.67.78 5.35 1.55 8.01 1.35 4.66 4.16 9.81 8.46 13.19 1.79-1.64 3.51-3.25 5.13-4.82-3.55-2.31-5.91-6.65-6.97-10.29ZM94.63 63.19c.69 5.53-.7 10.97-3.83 14.94-6.34 8.04-19.63 10.11-28.44 4.43-1.22-.79-2.36-1.69-3.44-2.68-.19.15-.37.31-.56.46-.21.17-.41.34-.62.51l-.71.59c-.21.17-.41.34-.62.52-.23.19-.46.39-.69.58-.2.17-.41.34-.61.52-.23.19-.46.39-.68.58-.2.17-.4.34-.61.51l-.22.19c1.54 1.48 3.2 2.84 5.02 4.01 11.83 7.63 29.05 4.9 37.6-5.96 4.26-5.41 6.17-12.72 5.25-20.07-.49-3.88-1.76-7.54-3.66-10.72-1.9 1.21-3.83 2.46-5.79 3.76 1.34 2.31 2.24 4.98 2.6 7.82ZM43.22 99.52c-1.19-.92-2.43-1.68-3.72-2.33l-.03.03c-.15.15-.31.3-.46.45-.18.18-.36.36-.54.53l-.44.44c-.18.18-.36.36-.53.54l-.42.42c-.18.18-.36.36-.53.54-.13.14-.27.27-.4.41-.17.18-.35.36-.52.54-.13.13-.25.26-.38.4-.17.18-.35.36-.52.54-.12.13-.24.25-.35.37-.02.02-.03.03-.04.05 1.69.65 3.26 1.46 4.66 2.54 3.29 2.53 5.23 6.9 5.2 11.7 0 .67-.05 1.33-.13 1.98a163.5 163.5 0 0 0 6.98-3.6c-.4-6.29-3.26-12.02-7.84-15.55Z"/><path class="cls-10" d="M141.69 39.64c.32-.69.56-1.34.73-1.94.16-1.32 0-2.67-.49-3.93-.47-.47-1.14-.77-2-.92.72 2.28 1.33 4.54 1.75 6.78Z"/><path class="cls-6" d="M24.77 100.04c3.39.65 6.66 1.28 9.57 2.4.01-.02.03-.03.05-.05.12-.12.23-.25.35-.37.17-.18.34-.36.52-.54.13-.13.25-.26.38-.4.17-.18.35-.36.52-.54.13-.14.26-.27.4-.41.18-.18.35-.36.53-.54l.42-.42c.18-.18.35-.36.53-.54l.44-.44c.18-.18.36-.36.54-.53.15-.15.3-.3.46-.45l.03-.03c-4.24-2.15-8.89-3.05-13.43-3.92-3.66-.7-7.11-1.36-10.24-2.64-1.76-.72-3.4-1.67-4.9-2.8.15 2.87.45 5.74.93 8.59.45.21.91.42 1.37.61 3.76 1.53 7.72 2.29 11.54 3.02ZM107.12 32.63c.37 2.35.58 4.72.8 7.22.16 1.75.32 3.53.54 5.31 2.26-1.3 4.45-2.51 6.55-3.63-.07-.76-.14-1.52-.21-2.3-.22-2.5-.46-5.09-.86-7.66-1.19-7.66-3.91-14.67-7.82-20.47-3.53-.96-7.13-1.66-10.76-2.1 6.04 5.59 10.26 13.99 11.76 23.63Z"/><path class="cls-4" d="M142.71 35.74c0-1.96-1.71-3.84-2.49-4.63a80.9 80.9 0 0 0-1.31-1.31c.36 1.02.7 2.04 1.02 3.05.86.15 2.31 2.41 2.78 2.88Z"/><path class="cls-6" d="M55.65 34.33c4.92 5.67 11.84 7.87 18.52 10 5.01 1.59 9.74 3.1 13.45 5.94 1.76 1.35 3.25 3.09 4.41 5.1 1.96-1.3 3.89-2.55 5.79-3.76-1.59-2.66-3.62-4.99-6.01-6.82-4.66-3.57-10.2-5.33-15.55-7.04-6.05-1.92-11.76-3.74-15.41-7.95-2.6-2.99-3.73-7.13-3.19-11.67.18-1.55.56-3.07 1.1-4.51-2.7 1.06-5.35 2.28-7.95 3.67v.02c-.77 6.49.94 12.53 4.83 17ZM24.66 51.92c7.95 2.37 12.78 9.89 17.9 17.86 3.28 5.11 6.65 10.34 11.03 14.56.07-.06.15-.12.22-.19.2-.17.4-.34.61-.51.23-.19.45-.39.68-.58.2-.17.41-.34.61-.52.23-.19.46-.39.69-.58.21-.17.41-.34.62-.52l.71-.59c.21-.17.41-.34.62-.51.19-.15.37-.31.56-.46-4.04-3.69-7.22-8.64-10.55-13.82-5.57-8.67-11.33-17.63-21.73-20.74-1.52-.45-3.09-.73-4.69-.84-1.4 2.28-2.67 4.62-3.8 7.01 2.24-.31 4.46-.18 6.52.44Z"/><path class="cls-4" d="M37.09 99.6c-.18.18-.36.36-.53.54.18-.18.35-.36.53-.54ZM39.47 97.22l.03-.03-.03.03ZM55.1 83.06c.2-.17.41-.34.61-.52-.2.17-.41.34-.61.52ZM53.81 84.15c.2-.17.4-.34.61-.51-.2.17-.4.34-.61.51ZM56.41 81.96c.21-.17.41-.34.62-.52-.21.17-.41.34-.62.52ZM57.74 80.85c.21-.17.41-.34.62-.51-.21.17-.41.34-.62.51ZM34.35 102.44s.03-.03.04-.05c-.01.02-.03.03-.05.05ZM36.16 100.54c-.17.18-.35.36-.52.54.17-.18.35-.36.52-.54ZM35.26 101.48c-.17.18-.35.36-.52.54.17-.18.34-.36.52-.54ZM39.02 97.67c-.18.18-.36.36-.54.53.18-.18.36-.36.54-.53ZM37.51 99.17c.18-.18.35-.36.53-.54-.18.18-.36.36-.53.54Z"/><path class="cls-7" d="M141.77 40.04c.34-.74.56-1.53.66-2.33-.17.6-.42 1.25-.73 1.94.02.13.05.27.08.4Z"/><path d="m96.7 77.91 20.55 22.98 30.59-3.9c2.36-.3 4.04 2.24 2.84 4.29l-15.51 26.65 13.16 27.88c1.02 2.15-.88 4.53-3.2 4.03l-30.14-6.51-22.45 21.13c-1.73 1.63-4.58.57-4.82-1.8l-3.12-30.67-27.04-14.82c-2.09-1.14-1.96-4.18.22-5.14l28.21-12.45 5.74-30.29c.44-2.34 3.37-3.15 4.96-1.38Z" style="fill:#f6c243;stroke-width:0"/><path class="cls-13" d="M128.1 109.24v.06h.07l.02-.04-.08-.04h-.01Z"/><path class="cls-13" d="M133.01 107.05c-.1.05-.17.16-.39.25 0-.02.06-.07.05-.08-.03-.03-.09-.05-.14-.08-.05.04-.13.09-.14.13 0 .03.08.04.22.02.16.07.08.2-.14.29-.28.12-.58.23-.86.35-.14.05-.15.08-.07.1.05.01.14 0 .21-.02.05-.02.11-.1.14-.1.07 0 .17.01.17.04-.02.15-.19.24-.41.24-.07 0-.17-.02-.22 0-.14.08-.29.18-.38.28-.05.05.07.11-.15.11-.3 0-.61.05-.92.08-.11.01-.23-.04-.3.11-.03.06-.07.13-.14.17-.1.07-.22.13-.34.19 0-.07-.02-.13 0-.2.02-.05.09-.12.12-.17.02-.03 0-.06 0-.09-.04.01-.1.02-.13.04-.2.16-.41.33-.59.5-.16.15-.19.16-.41.05l.11-.16s-.08 0-.19.12c0-.03 0-.01-.01 0-.23.18-.44.27-.66.35-.05.02-.15 0-.17-.03-.04-.05-.11-.1.07-.18.18-.07.43-.12.38-.3 0 0 .23-.09.35-.13.06.17.28.05.41-.03.18-.11.32-.25.48-.37-.03-.01-.07-.04-.1-.03-.22.06-.42.22-.65.18-.16.14-.43 0-.55.21-.03-.01-.08-.01-.09-.03-.07-.1-.17-.06-.28.05-.04.04-.06.09-.11.13-.06.05-.14.08-.21.12-.02-.04-.08-.1-.05-.12.11-.09-.07-.18.19-.27.17-.06.43-.2.56-.21l.21-.03s-.07-.07-.13-.09c-.05-.02-.11-.04-.13-.11l.19-.02s.08 0 .12.01c.16.02.3-.04.4-.14.02-.02-.1-.07-.16-.1s-.13-.07-.21-.09c-.04-.01-.12 0-.34.2.02-.04 0-.01-.05.04-.3.25-.55.29-.65.47-.07.14-.31.28-.2.42.03.04-.02.13-.09.2-.03.03-.15.04-.22.04-.02 0-.01-.05-.03-.07-.05-.05.02-.22-.18-.13-.27.12-.12.16.03.18 0 0 .01.02 0 .03-.05.08-.17.21-.13.23.13.07.3.11.48.15.04 0 .17-.04.22-.08.07-.04.09-.14.16-.05.02.02-.01.11-.03.11-.28.09-.57.17-.85.22-.06.01-.12-.11-.13-.18-.02-.15-.14-.15-.36-.05-.21.1-.28.06-.31-.05 0-.03-.12-.03-.19-.02-.11.03-.22.08-.34.12-.36.12-.36.12-.4-.12-.01-.08-.03-.17-.24-.07-.34.16-.56.18-.97.1.06-.05.11-.11.18-.15.38-.23.38-.22.22-.42-.01-.02 0-.05.01-.08.03 0 .07-.01.1-.01.3.01.6.02 1.04 0l-.1.03s.08.04.12.04c.05 0 .11-.05.05-.07.05-.02 0-.02-.04 0-.14-.02.07-.14-.15-.14-.09 0-.18-.03-.22-.08-.05-.06-.1-.14.13-.21.09-.03.18-.06.26-.1.03-.01.05-.05.07-.07h-.12c-.19 0-.39.14-.59.14l-.22-.18c.12-.04.28.03.35-.14.05-.12 0-.26.28-.35.08-.03.16-.03.25-.04-.03.05-.04.1-.08.15-.02.02-.1.05-.11.06-.01.04-.02.09.02.1.04.01.14 0 .18-.03.07-.05.1-.11.16-.17.03-.03.09-.05.13-.07l.04.07s-.26.22.07.11c.15-.04.28-.1.2-.2-.02-.03-.03-.07-.04-.11 0-.05-.03-.14 0-.15.14-.07.3-.12.45-.17.02 0 .06.02.07.04 0 .05-.01.11-.02.17.21-.05.29-.02.42-.11.12-.09.26-.08.4-.19.13-.11.36-.06.44.12-.04.01-.09-.01-.11 0-.07.04-.12.08-.18.13.05.02.1.05.16.04.04 0 .1-.07.13-.17.04-.09.13-.15.22-.2.2-.12.36-.27.62-.36.27-.09.26-.11.08-.21-.01 0-.05 0-.05-.01 0-.04-.02-.08.01-.12.03-.03.14-.07.17-.06.12.02.22.07.34.1.05.01.11 0 .17.01 0-.04.01-.08.01-.12 0-.04 0-.08-.01-.12.05 0 .11-.02.16-.01.2.01.35.02.25.24-.07.17.43.16.69-.01.03-.02.01-.08.02-.12-.05.01-.12.03-.13.04-.08.1-.14.04-.21.05-.14 0-.07-.06-.02-.11l.18-.21c.14.06.3-.06.44-.08.04 0 .07.07.06.12-.02.07-.16.18-.13.2.1.06.24.1.39.11.03 0 .15-.1.23-.15.09-.05.19-.27.26-.05.03.11.18.12.34.07.18-.06.14.06.22.05.06 0 .16-.09.22-.1.15-.02.22.04.23.12.02.05.07.09.06.14 0 .04-.07.09-.12.14-.01.01-.08 0-.12 0l.09-.13s0-.02-.01-.04c-.19.06-.29.12-.21.24.05.08.14.05.26 0 .15-.06.31-.13.47-.18.05-.02.13 0 .15.01.02.02 0 .08-.04.11-.14.11-.3.2-.49.19-.18 0-.3 0-.44.17-.06.07-.25.23-.48.21-.04 0-.15.08-.22.12.11.03.21.07.32.09.02 0 .1-.03.13-.05.19-.15.38-.27.62-.19.03 0 .19-.05.21-.09.22-.34.6-.36.96-.39.16 0 .24.01 0 .14Zm-2.19-.09.11.03.14-.17h-.12a.57.57 0 0 0-.13.14Zm-6.14 2.33-.11-.08c-.08.05-.12.07-.15.09l.22.06s.05-.07.04-.08Zm5.35-1.97c.08.08-.06.14-.16.21-.03.02-.03.09 0 .11.06.02.18.05.22.03.23-.14.44-.29.65-.44 0 0 0-.02-.71.1Zm.1-.06s-.08.01-.12.02v.03c.16-.02.38-.06.74-.11h-.06c-.15-.09-.39.12-.56.08Zm-.51-.47c.06.05-.02.19.19.14.16-.04.22-.05.11.07 0 0 .03.03.07.06.08-.07.14-.15.22-.19.2-.09.23-.14.03-.13-.15 0-.34.05-.4-.05l-.22.11Zm.11.55s.05 0 .18-.02l.08-.08c-.04 0-.08-.01-.11 0-.05.02-.1.06-.15.09Zm-.87.05.17.02c.13.02.24.04.19-.11-.02-.05.04-.13.05-.2 0-.1-.2-.13-.41.29Zm-.01-.19.05-.17c-.02.01-.04.02-.05.03-.04.05-.02.09 0 .13Zm-.07.18v-.01l-.01.01Zm-.45-.29s.04.03.07.04c.03-.02.06-.04.08-.06.04-.05.08-.11.12-.14-.05-.03-.07-.05-.1-.06-.03.02-.07.04-.08.06-.04.05-.07.11-.08.16Zm.29.34s-.07.04-.1.07c.05.02.1.05.16.05.02 0 .04-.02.08-.1-.05 0-.09-.01-.14-.01Zm-2.49.4s0 .11-.05.24c.07-.07.03-.08.06-.15.02-.03 0-.06-.01-.09Zm-.12-.05v-.02c-.01.01 0 .02 0 .02Zm-.07.15s.04.03.05.05v-.12c-.04.03-.07.06-.06.07Zm-.3.6s-.08-.02-.11 0c-.06.02-.1.06-.16.09.04 0 .09 0 .2-.03l.06-.05Zm-.61.01s.08.05.12.04c.17-.04.3-.12.36-.23.02-.04-.02-.08-.04-.13-.07.04-.16.07-.21.11-.04.03-.04.08-.05.12h-.12s-.07.07-.06.09Zm.98.27c-.17-.04-.2.1-.3.15-.17.09-.28.04-.38-.01-.05-.02-.09-.04-.17-.08-.06.09-.12.14-.1.16.09.06.19.13.31.16.26.08.29.07.47-.15.07-.08.19-.23.17-.23Zm.7-.43c-.24.09-.2-.15-.47-.03-.19.08-.24.04-.18-.09.02-.04-.02-.07-.04-.17-.14.05-.21.11-.14.21.06.09.07.17-.19.28.07.05.13.09.31 0 .09-.04.25-.02.37 0 .13 0 .12.07.05.15-.09.11.05.07.11.03.11-.06.16-.11.21-.19.04-.06 0-.12-.02-.19Zm-.04-.69c-.07 0-.15-.02-.25-.03-.04.09-.07.17-.1.25.04 0 .1 0 .12-.02.08-.06.15-.13.23-.2Zm.42.51c-.08.02-.14.04-.2.06-.02 0-.02.04-.03.07.06-.02.13-.03.19-.05.02 0 .02-.04.04-.08Zm1.16-.82c.06-.03.11-.07.16-.1-.06 0-.12.01-.18.03-.32.08-.33.08-.18-.15.02-.03.05-.06.07-.09-.02-.01-.03-.03-.06-.03-.12 0-.64.3-.67.38 0 0 .05.03.08.02.06 0 .13-.03.19-.04-.04.03-.07.08-.12.1-.33.13-.59.3-.8.51-.03.03 0 .07 0 .11.05-.02.11-.04.13-.07.28-.27.27-.27.44-.06 0 .01 0 .03.02.03.03.01.06.02.09.02.01-.03.04-.07.03-.08-.14-.17.17-.28.33-.4.12-.08.31-.12.46-.19Zm1.25.36s.04-.03.03-.04l-.07-.17c-.06.04-.11.08-.17.12-.04.02-.1.05-.13.05-.29-.04-.26.1-.3.2-.02.06-.02.12-.02.17-.04-.04-.08-.07-.11-.11-.02-.03-.02-.08-.06-.1-.03-.01-.13 0-.17.02-.04.02-.09.09-.07.11.06.05.18.08.21.14.03.06.06.08-.05.16-.03 0-.06.02-.09.03-.08.04-.14.08.05 0-.07.04-.17.1-.35.18l-.06-.02s-.09.08-.08.09c.02.03.07.05.12.05.12-.02.26-.04.38-.08.06-.02.12-.09.15-.14.02-.04.03-.11 0-.11h-.09c.07-.03.15-.07.27-.12.05-.02.09-.04.14-.05.26-.07.13-.32.47-.36Zm.52.72c.14-.12.26-.24.38-.36.03-.03.04-.08.06-.11-.06.01-.11.02-.12.03-.22.08-.16.04-.48.36-.04.04-.05.1-.07.15.08-.02.19-.02.23-.06Zm1.24-.51s-.02-.01-.04-.01c-.12-.01-.23-.04-.35-.03-.03 0-.16.13-.16.18 0 .12-.06.21-.25.31-.03.02-.03.13-.01.13.13-.01.26-.04.4-.06-.02-.17.33-.3.38-.47 0-.01.02-.03.03-.04Zm.43-.32c-.12.02-.2.02-.26.04-.03.01-.08.1-.07.1.05.01.13.02.2 0 .03 0 .06-.07.13-.15Zm.46-.09s-.03-.05-.04-.05c-.06.02-.12.04-.18.07l.02.05c.06-.02.12-.04.19-.06Z"/><path class="cls-13" d="m124.73 109-.03.01h.07-.04ZM128.56 108.31s.04-.02.07-.03h-.03s-.02.02-.04.03ZM127.62 108.18s-.03.02-.05.04c-.03.03-.06.07-.09.12h.14s-.01-.09 0-.15ZM121.2 110.66l.3.02c.08.07.15.15.25.22.02.02.13 0 .19-.03.12-.04.32-.08.09-.15-.14-.04-.05-.14.13-.19.06-.02.13-.03.19-.04.46-.06.89.01 1.39-.2.12.07.24.12.48 0 .11-.06.22-.09.17-.17-.07-.13 0-.16.2-.14.09 0 .21 0 .31-.03.3-.1.19.07.24.13.09.1-.05.14-.2.2-.07.03-.12.11-.2.14-.14.07-.3.13-.14-.05-.05 0-.13-.01-.13 0-.13.14-.34.2-.53.28-.04.02-.04.1-.09.14-.11.1-.23.18-.33.08l.16-.1s-.08 0-.19.07c.02-.04-.02 0-.07.03-.16.09-.28.14-.4.18-.04.01-.08.01-.12.02.01-.02.02-.05.04-.07l.19-.22c.14-.16-.02-.07-.12-.06-.38.04-.38.04-.33.23.05.2-.1.48-.3.5-.27.03-.26.1-.31.2 0 .02-.15.06-.19.05-.05 0-.07-.05-.08-.09-.06-.16-.13-.04-.25.04-.03.02-.22.03-.23 0-.04-.16-.46.05-.54-.08 0 0-.11.02-.16.04-.05.04-1.01.2-1.09.18h-.36s.03-.02.06-.03c-.1 0-.15-.07-.19-.15h-.29c0-.06.06-.13 0-.16-.16-.08-.32-.16-.47-.24-.06.01-.11.01-.14.03-.17.08-.21.09-.27.05-.09-.07-.15-.15-.23-.23-.1-.11-.21-.1-.32-.09-.07 0-.22-.02-.04.09.27.17.45.41.83.47.25.04.37.16.44.24.17.22.55.07.76.16l.16-.09v.23c-.38.09-.85.01-1.16-.19a.689.689 0 0 0-.29-.07c-.1 0-.17.05-.22-.07a.461.461 0 0 0-.16-.22c-.1-.09-.23-.14-.29-.05-.02.02-.02.06-.03.08-.02.02-.05.03-.08.05-.03-.04-.08-.09-.08-.11.03-.12-.47-.3-.2-.39.02 0-.02-.06-.03-.09h-.1c-.06.04-.09.11-.17.12-.22.03-.15.11.07.25.03.02.03.09.02.13 0 .02-.08.01-.12 0-.33-.13-.48-.3-.5-.51 0-.06.03-.11.03-.17 0-.04 0-.1-.04-.15a.578.578 0 0 0-.18-.2c-.08-.04-.19-.06-.24-.04-.03.01.04.13.05.19 0 .08.26.15.14.21-.07.04-.28-.09-.4-.22-.06-.07-.14-.15-.17-.22-.1-.21.03-.34.24-.2.42.27.01-.16.59.13.05.03.35.19 0 0 .41.11.39.02.33-.06a.435.435 0 0 0-.2-.13c-.12-.03-.24-.04-.36-.05h-.18c-.09-.06-.12-.08-.14-.1.03-.03.09-.08.07-.1-.17-.2.08-.15.09-.25.01-.11.18.1.28.16.12.07.26.24.35.25.23.02.31.11.39.28.07.17.22.26.43.28.03 0 .08.01.12.02v-.05h.05c.12 0 .09-.05.08-.13-.01-.06 0-.1.02-.13h-.19c-.34 0-.42-.12-.53-.34-.11-.22-.3-.42-.56-.6-.32-.23-.03-.15.04-.16.15-.04.29.03.34.19.06.2.3.32.37.47.1.21.41.09.47.31 0 0 .1.03.11.02.03-.02.07-.07.05-.1l-.25-.3c.14.06.29.11.44.16h.05l-.02-.14.22.09s.01.06 0 .08c0 .03-.03.05-.05.08.06.01.15.05.16.04.15-.18.46-.2.62-.37.02-.02.11-.01.17 0 0 0 .02.05 0 .02-.06.17-.1.3-.16.42 0 0-.09 0-.12-.03-.12-.09-.16-.08-.25.01-.12.12-.43.18-.74.18.05.02.1.04.17.07.04.02.09.03.13.05l.26.16.13.03c.02 0 .06 0 .05-.02-.05-.17.3-.01.33-.14.02-.06.19-.09.23-.15.03-.05-.07-.18-.04-.19.18-.06-.03-.13 0-.19.02-.06.04-.14.09-.15.06-.02.18.01.24.04.14.08.3.16.26.32 0 .03.03.07.05.1.03-.04.04-.09.08-.13.07-.06.14-.12.35-.15.03.02.07.06.1.05.1-.02.2-.06.11-.08.14-.07.09-.12.07-.11l-.16.08c-.26-.11-.26-.24-.12-.25.26-.04.35-.19.48-.32.02-.02.08-.03.12-.05 0 .04.02.08 0 .11-.03.05-.09.1-.13.16-.01.01.02.05.02.05.14-.03.28-.07.43-.11.16-.04.1-.11.13-.17.04-.08.1-.21.3-.15 0 0 .14-.08.16-.12.02-.05-.02-.1-.01-.15 0-.01.06-.05.1-.06.04-.01.11-.02.12-.01l.14.4c-.08.02-.19.03-.23.07-.05.04-.04.1-.05.16 0 .03-.02.05 0 .1-.02.01-.05 0-.07 0-.11.03-.21.07-.17.15 0 .02.04.03.07.04.06-.06.12-.12.18-.2.42-.16.43-.16.46.05 0 .04-.05.11-.11.14-.16.09-.33.16-.5.23-.04.02-.09.03-.14.04l.04.11c-.22.04-.36.17-.48.27-.12.09-.23.25-.22.34.02.18.19-.09.23-.04.06.07.07.16.1.25 0 0-.09.04-.09.03-.18-.1-.31.08-.47.1-.27.04-.52.14-.61.24-.02.03.02.09.07.1.09 0 .21 0 .31-.03.19-.05.37-.15.54-.17.2-.03.39 0 .59 0 .07 0 .12.02.19.02.04 0 .09-.03.14-.05-.02-.02-.02-.06-.05-.07-.28-.09-.49-.28-.5-.43 0-.02.02-.05.04-.08h.11Zm-.68-.33s.06.03.08.03c.06-.02.16-.07.16-.08-.07-.16-.02-.31.16-.48v-.04c-.03-.02-.05-.05-.08-.04-.06.01-.15.04-.16.06l-.16.54Zm-1.68.89.15-.06h.08c.32 0 .23-.01.25-.19.01-.16-.36-.09-.31-.22.32.02.39 0 .5-.2h.09c.17-.05.34-.09.13.08.05.01.12.04.16.03.23-.07.06-.16.08-.24 0-.02-.1-.05-.16-.06-.05 0-.11.01-.26.16.02-.04.04-.09.07-.15h-.19s-.05 0-.06.02c-.02.02-.05.04-.05.06-.01.06.08.11.19.11l-.05.05c-.21 0-.36.02-.43.15-.42.01-.76.09-1.15.1h.08c.34.11.69.16.91.36Zm.11.16c.14 0 .28 0 .42-.01-.12-.06-.29-.01-.42-.05-.02 0-.03-.01-.04-.02.01.02.03.02.04.04v.04Zm.82.21s-.1-.03-.14-.02l-.15.02v.13l.2-.06c.04-.01.06-.04.08-.06Zm2.46-.13c.06-.15.05-.22.1-.27.12-.14.14-.27-.06-.25-.21.02-.29.2-.35.31-.03.06.15.11.31.22Z"/><path class="cls-13" d="M118.46 111.58s.08-.04.11-.11c-.05-.02-.1-.04-.14-.05-.05-.01-.11 0-.17 0l.2.15ZM123.26 108.73c.06-.07.1-.15.18-.19.14-.07.3-.12.45-.17-.04-.07-.05-.18-.13-.19-.22 0-.41.18-.63.25-.08.03-.2.12-.2.15 0 .15-.06.23-.32.19-.04 0-.21.09-.21.09.08.14-.13.17-.27.24-.04.02-.06.07-.08.11-.04.08.26 0 .1.16-.12.12.07.13.19.13.27 0-.02.15.03.23.04.07-.1.03-.17.04-.16.03-.33.08-.39.2-.1.21-.3.17-.48.18-.06.08-.13.16-.17.24-.02.04.04.12.04.12.35-.11.24.09.3.17.23-.17.49-.29.79-.33.08-.01.23-.03.24-.04.12-.18.27-.15.44-.16.13 0 .38-.05.41-.09.13-.18-.16-.11-.27-.16-.07-.03-.13-.05-.21-.07-.09-.02-.19-.03-.29-.04l.3-.22c.05-.04.12-.06.16-.1.05-.04.07-.09.11-.13l-.19.03-.37.03c.07-.07.14-.14.22-.2.07-.05.16-.08.24-.12-.02-.18-.02-.18.27-.21.08 0 .16-.04.25-.07-.03-.04-.04-.1-.09-.11-.05-.01-.15.02-.23.03ZM122.01 108.95c.26-.12.46-.22.66-.31.03-.02.06-.1.03-.11-.1-.05-.21-.09-.4 0-.15.07-.37.3-.36.4 0 .02.08.03.07.02Z"/><path class="cls-13" d="M123.94 108.9s.16-.01.17-.03c.04-.05.06-.1.05-.15 0-.07-.04-.12-.06-.18-.2.06-.38.15-.51.28l.35.09ZM131.74 106.14c-.16 0-.3.01-.43.02 0 0-.07.1-.06.1.12.02.24.02.37.03l.12-.14ZM118.65 109.71s.04-.12.05-.17h-.11l-.19-.03.06.18c.07.02.17.05.19.02ZM125.35 110.22s.11.04.12.03l.26-.22c-.06 0-.12.01-.22.02-.06.06-.12.11-.16.17ZM127.2 107.18l.08-.24h-.09c-.06.03-.15.08-.14.1.02.06.07.1.11.15h.04ZM123.44 109.04h-.24c-.04 0-.11.06-.11.08 0 .07.04.13.19.06.05-.02.08-.07.16-.14ZM120.09 109.5c-.09-.02-.2-.08-.23-.06-.11.06-.22.14-.3.22-.01.01.11.1.18.15.12-.1.24-.2.35-.32ZM126.33 107.23h-.28c0 .03-.03.07-.01.07.06.01.12.02.19.01.02 0 .06-.05.1-.08ZM124.57 110.63h.27s.03-.05.01-.06c-.04-.02-.11-.03-.16-.04-.06.06-.09.08-.12.11ZM120.1 112.04c.14 0 .28.02.41 0 .15-.03.28-.1.42-.16h-.46l-.37.17ZM124.19 109.92a1.55 1.55 0 0 0-.15-.14c-.02.03-.07.07-.06.1.02.05.06.08.09.12.05-.03.09-.06.11-.07ZM123.96 110.22s.04.03.06.05c.04-.03.09-.06.11-.07-.06-.04-.09-.06-.11-.07-.02.03-.06.07-.06.1ZM130.49 106.3s-.08-.04-.09-.03c-.06.03-.11.06-.17.09.02 0 .05.03.07.03.06-.02.12-.05.19-.09ZM127.83 106.72h-.14c-.04.03-.08.07-.13.1h.12c.06-.03.1-.07.15-.1ZM123.78 110.01s.08-.05.07-.06c0-.03-.04-.06-.06-.1-.04.04-.09.07-.09.08.02.03.05.06.08.08ZM122.86 109.72h.16c.04-.04.07-.07.1-.09-.04 0-.08-.02-.11 0-.06.02-.1.06-.16.09ZM119.13 111.04s-.01-.07-.02-.12c-.06.01-.12.02-.12.03 0 .04.02.07.04.11.03 0 .1-.01.1-.02ZM115.62 109.99h-.21c-.18 0-.31-.08-.33-.28-.01-.09-.08-.16-.14-.09-.06.06-.12.12-.26.05l.19.34s.09.07.1.1c.02.05.03.14.01.13-.07-.02-.18-.05-.21-.09-.17-.22-.36-.45-.45-.67-.09-.21-.24-.33-.39-.47-.24.1-.44-.2-.57-.38-.1-.14-.15-.23-.28-.24-.1 0-.11-.06-.14-.15-.12-.32-.37-.6-.64-.75-.09-.05-.27-.24-.26-.26.04-.12.06-.2-.15-.22-.16-.01-.25-.15-.36-.27-.13-.13-.33-.29-.37-.41-.11-.36-.18 0-.32-.15-.15-.16-.19-.43-.45-.49l.12-.21s.03-.02.03-.03c0-.03-.01-.06-.02-.09h-.09c-.15.08-.31-.18-.31-.21.06-.26-.11-.44-.38-.61-.07-.28-.46-.53-.44-.82 0-.01-.06-.06-.1-.08-.01 0-.04.02-.04.04-.03.06-.04.14-.07.2-.06.11-.16.1-.3-.07-.04-.05-.1-.13-.15-.15-.11-.05-.23-.08-.34-.11-.16-.05-.03-.24-.26-.31-.16-.05-.33-.27-.38-.49l.1-.16c.04.06.08.13.13.2.1.06.22.17.3.18.09 0 .04-.35-.04-.44-.03-.04-.12-.06-.21-.07l-.06.12-.15-.18c-.13-.14-.08-.2-.01-.23s.17 0 .23-.03c.03-.01.05-.09.03-.13-.02-.04-.14-.13-.15-.12-.18.15-.32-.13-.45-.26s-.06-.18.04-.18c.06 0 .18.08.08-.08-.06-.09-.09-.2-.16-.29-.1-.13-.24-.3-.33-.14-.05.09-.13.05-.24-.07-.07-.08-.14-.15-.21-.22-.06-.05-.14-.09-.21-.13 0 .09-.03.17 0 .26.04.09.14.2.22.27.12.1.27.17.37.28.11.11.21.27.25.39.04.14.1.16.2.2.03.01.11.11.12.15 0 .04-.04.1-.07.09-.19-.04-.4-.05-.52-.36-.23-.05-.33-.19-.36-.41-.02-.2-.1-.14-.16-.1-.04.02-.08.08-.11.06-.15-.1-.01-.1-.02-.15a4.57 4.57 0 0 0-.07-.36c-.12-.49-.16-.54-.62-.64-.24-.05-.3-.21-.4-.36-.05-.07-.04-.16-.07-.24-.02-.04-.06-.09-.09-.13-.02.02-.06.02-.07.05-.02.09.14.36-.15.18-.21-.13-.01-.18-.05-.29-.02-.05 0-.1.01-.15v-.1s-.08.02-.13 0c-.15-.05-.3-.13-.45-.17-.13-.03-.11-.1-.14-.17-.04-.12 0-.1.1-.09.12.02.32.19.36.02l-.41-.18s-.04-.02-.06-.02c-.14 0-.16-.09-.18-.2-.02-.07-.06-.16-.07-.24-.01-.11-.04-.2-.07-.29h-.09c-.09.06 0 .15.09.23.02.02.05.02.07.04-.09.06-.22.15-.23.14-.23-.26-.61-.3-.76-.69-.06-.15-.15-.34-.27-.45-.27-.24-.36-.73-.81-.74-.05 0-.17-.17-.25-.26l-.02-.13-.09.02s-.06-.08-.06-.11c-.05-.18-.11-.29-.27-.21-.02.01-.1-.04-.15-.06l.26-.25c.26.16.42.17.42-.1 0-.06.06-.08.09-.12.2.2.27.1.36.03.01-.01.19.12.26.21.12.14 0 .18-.06.2-.09.02-.24-.06-.32-.04-.03 0-.06.02-.08.03l.16.02s.02.09 0 .1c-.04.02-.1.02-.15.03-.03-.05-.05-.09-.07-.11-.05.03-.08.08-.07.13.02.1.19.26.31.37.06.05.17.08.23.07.14-.02.28-.05.38-.13.12-.09.28-.06.4.09.16.19-.07.17-.15.21a.824.824 0 0 0-.2-.12c.03.05.06.11.1.16.02.02.07.03.1.04-.02-.04-.03-.09-.01-.08.08.09.11.13.14.16l.17.22c-.07 0-.13 0-.2-.03-.09-.04-.19-.1-.28-.15-.04-.02-.08-.02-.12-.03.01.04.02.08.04.11l.57.59s.04.03.06.04l-.01-.02c.01 0 .02-.02.04-.02 0-.02-.01-.04-.02-.05-.08-.13-.09-.2.01-.26.09-.06.09-.15.04-.28-.03-.08-.07-.17-.11-.25.07.06.15.11.21.18.23.25.47.47.77.58.08.03.17.15.26.23-.06.02-.15.02-.17.06-.04.06-.03.15-.06.19a.91.91 0 0 0-.4.09c.04.05.09.14.13.15.08.03.17.04.23.01.04-.02.03-.11.04-.17v-.08c.14.17.32.12.4.39.05.16.32.47.47.52.36.13.55.3.61.65 0 .01.04.05.05.05.32.06.31.27.36.47.01.05.09.14.12.15.26.06.41.33.59.51.19.18.38.34.59.35l.19.28.17.22c-.05.22.23.39.33.44.07.03.14.08.2.13l-.04.06.21.12c.13.06.25.09.38.16.16.08.28.11.37.02.03-.03.12-.01.34.2v-.02c-.02-.01-.04-.03-.05-.04 0-.02-.02-.04-.03-.06a.7.7 0 0 1 .08.1l.13-.03c.01.06.03.13.05.2.1.03.05-.14-.04-.32-.03-.06-.11-.14-.19-.13 0 .03 0 .05.01.07-.02 0-.05-.01-.08-.02 0 .03.02.07.04.11-.29-.34-.47-.44-.63-.51-.08-.03-.1-.07-.11-.1-.08-.03-.16-.05-.24-.06a.75.75 0 0 1-.16-.04l-.18-.18c-.03-.06-.07-.13-.1-.22-.06-.13-.14-.27.3.04-.65-.52-.74-.59-.83-.66.02.09.03.17.05.26l-.27-.27-.05.05s-.06.01-.09-.01c-.13-.1-.21-.35-.12-.4.03-.01.13.05.19.1.12.1.14.16.11.21.03 0 .06-.02.09-.06.02-.03.09-.01.14-.01.07 0 .11 0 .12-.04l-.18-.06-.01-.11c.05.02.08.01.11 0s-.03-.14 0-.15l.09-.02c.02-.09.12-.1.24-.05l.08-.02s.07.06.1.1c.01.02.02.04.02.06 0 0 0 .01-.01.02.1.13.14.28.1.37-.01.01-.02.03-.03.03l-.3-.11c.03.09.06.19.07.27.01.13.08.19.24.29.24.14.38.05.59.15.06.03.17.1.17.12 0 .12.06.22.13.31 0-.02 0-.04-.01-.07 0-.04-.02-.08-.03-.11v-.16c.05.07.11.13.15.2.05.08.07.22.11.24.11.06.24.1.33.09.05 0 .01-.15.04-.2.06-.1.16-.06.25.09l.11.22c.08.15-.04.07-.09.06-.2-.03-.23.05-.07.26.12.16.22.32.35.48.12.15.33.29.19.43.14.23.36.32.55.46.04.02.11.02.12 0 .01-.02-.02-.12-.04-.14-.25-.19-.3-.4-.33-.6-.02-.17-.1-.25-.28-.29-.03 0-.09-.12-.13-.19.06 0 .11 0 .17.01.09.03.22.13.27.11.24-.12.57.19.85.24.02 0 .08.05.07.06 0 .03-.01.06-.03.08-.06.06-.46-.02-.58-.14-.18-.18-.15-.11-.15.03 0 .26.21.52.35.78.08.14.18.3.11.36-.05.04-.22-.03-.34-.09-.34-.17-.65-.32-.95-.29-.23.02-.46-.2-.61-.52-.17-.38-.48-.58-.75-.49-.21-.23-.39-.24-.58-.23l.09.1q.29.3.48.14c.1.1.19.22.3.3.1.08.01.25.21.25 0 0 .05.06.05.08 0 .03-.04.07-.05.06-.17-.11-.37-.15-.52-.34 0 0-.08 0-.08.02.06.24.27.46.5.53l.34.09c.13.04.13.04.28.29.03.05.13.11.2.14.05.02.16.09.12-.04-.03-.11.01-.18.13-.09.08.05.21.23.19.25-.11.19.08.3.25.38.11.06.23.14.19.21-.09.14-.02.17.16.28.22.14.39.18.56.15.17-.03.33.18.49.29.17.11.25.26.27.42 0 .03.53.49.54.48.03-.02.05-.06.07-.09a.36.36 0 0 0 .02-.11c.24.23.26.03.37 0 .07-.02.21.01.3.07.08.05.23.17.15.28-.06.08.03.15.14.22.09.05.17.12.26.18-.19 0-.37 0-.56-.23 0-.07-.02-.13-.04-.14-.1-.05-.2-.09-.31-.13.02.04.04.09.06.11.1.05.2.11.29.16-.05.05-.18.05-.07.19.06.07.13.14.2.2.26.22-.2.05-.01.24.09.08.25.2.13.28-.09.06-.16-.1-.24-.15-.09-.06-.18-.09-.26-.16-.1-.08-.2-.16-.13-.29.05-.08-.06-.2-.2-.18-.17.03-.36 0-.57-.21-.04-.04-.09-.05-.14-.08.04.05.08.11.1.16.1.24.08.24-.13.2-.17-.03-.29-.16-.42-.29-.12-.11-.2-.33-.39-.3-.11-.05-.19-.07-.26-.09l.16.35s.08 0 .08-.01c0-.08.01-.17.02-.24.11.16.21.31.3.45.18.26.54.36.66.68.13.02.28.23.4.17.06-.03.07-.15.2-.03.1.09.2.2.27.31.04.07.04.15.06.23.03.13.13.18.22.19.07 0 .16-.01.17-.06.02-.08-.02-.2-.03-.31l.37.22s.08.06.11.1c-.02.02-.03.06-.05.06-.07.01-.21-.02-.21.03 0 .15.13.18.25.23.04.02.09.13.14.19l.15.18c.24-.14.28.14.39.29.02.03.12.06.14.05.03-.02.03-.08.01-.13 0-.03-.06-.07-.1-.1-.11-.09-.13-.16-.08-.23.04-.05.02-.14.03-.22.12.09.27.17.35.28.14.18.24.38.35.58.02.04-.02.11-.04.11-.29-.09-.2.11-.14.27.02.05.15.35.18.38Zm-6.82-8.55c.06.03.06 0 .06-.02l-.06.02Zm-.05.12s0-.04-.01-.05v.05Zm1.12 1.2h-.04.04c-.02-.04-.06-.11-.12-.21s.06.2.06.2c.01.03.06.06.1.09 0 0 .01 0-.02-.07Zm-4.02-3.08c-.06-.07-.13-.2-.18-.21-.26-.07-.26-.34-.44-.46-.03-.04-.07-.09-.1-.1a.23.23 0 0 0-.14-.01c-.02 0-.03.06-.01.09l.49.74c.13.19.13.01.19.02.08.01.13-.04.19-.06Zm2.33 2.69v-.19l-.07-.07-.08.13s.1.09.15.13Zm.75 1.23s0-.04-.01-.05c-.18-.18-.38-.36-.36-.58-.04-.02-.1-.06-.11-.05-.03.05-.1.13-.07.18.07.11.18.2.28.3.06.07.13.14.2.2.02.01.05 0 .07 0Zm1.38.86c-.04-.08-.09-.16-.1-.19-.17-.17-.28-.33-.46-.35-.05 0-.11-.06-.17-.09.05.07.1.15.16.2.11.09.24.17.36.25l.2.16Zm1.77 1.89s.03-.09 0-.12l-.02-.02c-.01.16.01.16.02.15Zm.25-.43.18.35s.06 0 .13-.02c-.07-.1-.13-.19-.2-.28-.02-.03-.07-.04-.1-.05Zm-.48.06s-.03.02-.03.03l.17.35c.01-.08.02-.13.03-.19l-.18-.19Zm-.09-.11c.1.16.2.11.3.09 0-.1 0-.13-.01-.14-.1-.08-.23-.12-.3-.21-.05-.07-.02-.18-.05-.27a.316.316 0 0 0-.14-.14c-.06-.02-.15.02-.14.03.1.22.2.44.34.64Zm1.96 2.83c.04-.07-.12-.45-.24-.53-.05-.04-.13-.05-.17-.03-.05.03-.14.06-.01.2l.19.2c.05.05.09.1.15.15.02.02.07.03.08.01ZM115.58 107.39c.1.1.23.17.35.24.03.02.06.01.09.02l-.05-.1c-.08-.16-.17-.31-.32-.45-.12-.11-.21-.22-.32-.13-.03.03-.17-.06-.26-.1q-.38-.08-.44-.45c-.03-.17-.19-.4-.28-.38-.26.05-.35-.1-.42-.35-.01-.04-.09-.1-.14-.15-.03.05-.09.1-.07.14.11.17.17.36.35.53.33.29.32.3.15.51.22.13.43.25.65.29.25.05.5.16.74.4Z"/><path class="cls-13" d="M106.44 98.62c-.07.09-.14.04-.28-.05-.22-.13-.43-.44-.69-.37-.06.02-.25-.19-.27-.36 0-.03-.1-.12-.14-.13-.04-.01-.11.02-.11.05.04.17.03.23-.16.04-.01-.01-.1.03-.14.06 0 0 .07.14.11.16.44.21.85.49 1.25.82l-.04.09s.08.05.09.04c.02-.01.03-.04.04-.06l.17.14s.13.03.14 0c0-.34.28-.1.48 0h.04c.01.07.03.13.05.14.09.06.19.08.34.13-.05-.07-.09-.12-.13-.16h.03c.01-.06.03-.09.02-.12a.313.313 0 0 0-.08-.11l-.3-.1c-.16-.07-.23-.15-.15-.26.01-.02 0-.07 0-.1-.03 0-.08-.02-.1 0-.06.04-.12.1-.16.15ZM115.72 108.37c-.24-.19-.18.17-.39.02v.08c.19.17.34.33.3.52 0 0 .06.06.15.14.02 0 .11.04.14.02.09-.05.11-.2.3-.15.01 0 .01-.1.02-.15l-.19-.05s-.08 0-.12-.01c0-.03 0-.06.02-.08.06-.06.38-.08.47-.03.01 0 .01.06.01.09 0 .04-.1.09.05.12.08.02.15-.02.22-.03-.08-.12-.15-.31-.24-.36-.11-.06-.29-.23-.38-.12-.09.1-.21.11-.36-.01ZM111.77 104.33c.43.1.5.13.92.44.14 0-.03-.31.21-.22-.03-.05-.08-.15-.1-.15-.15-.04-.29-.04-.44-.11-.15-.07-.31-.23-.47-.3-.15-.07-.36-.18-.35.08 0 .07-.17.06-.27.08.17.06.34.13.5.17ZM107.17 99.8c.12.04.24.07.35.08.02 0 .03-.02.03-.04h.03c0-.04 0-.09.01-.13h-.07s-.04-.05-.05-.05l-.53-.17a.517.517 0 0 1-.18-.12c-.23-.25-.28-.26-.33-.05-.06.25.04.42.31.52.05.02.09.02.14.02-.11-.39.16-.11.3-.07ZM115.24 108.22c0-.06 0-.13-.03-.19-.03-.07-.1-.15-.12-.21-.04-.2-.1-.37-.35-.43-.06-.22-.26-.28-.42-.39-.02-.01-.06.01-.07.03-.01.02-.01.08 0 .09.35.28.51.69.88 1.02 0 0 .05.04.11.07ZM110.07 101.67c.06.09.2.18.23.26.06.19.1.21.19.11l.09-.09c.05-.05.11-.09.15-.15.01-.02-.06-.13-.09-.15-.18-.09-.37-.08-.53-.32-.05.02-.13.02-.13.06 0 .08.05.19.11.27ZM115.69 107.69l-.19-.03.14.2c.2.21.39.36.58.24.04-.02.2.06.07-.08-.12-.14-.26-.3-.45-.3-.05 0-.11-.03-.16-.03Z"/><path class="cls-13" d="M112.69 104.77s-.03.06-.02.08c.09.1.18.21.32.36.09.07.22.2.36.3.07.04.2.11.13-.07-.08-.21-.63-.68-.79-.67ZM116.94 109.3s-.06.01-.09.02c0 .03-.03.06-.01.08.08.1.16.24.28.3.06.04.17-.03.26-.05.03 0 .08 0 .11-.01.05-.03.08-.07.12-.1-.08-.06-.22-.16-.23-.17-.12.1-.27.06-.43-.08ZM103.32 96.05s.06-.15.09-.24l.03-.14c-.07-.02-.15-.05-.22-.06l-.46-.04s-.13-.07-.13-.1c-.03-.11-.07-.18-.15-.11-.03.03 0 .12 0 .2.31.19.57.35.84.49ZM110.78 103.98c-.06 0-.14-.06-.21-.09.05.07.11.14.18.23.17.1.34.24.45.44.02.03.12.05.18.07-.02-.06-.02-.14-.07-.19-.1-.12-.19-.21-.08-.27l-.07-.1c-.09.14-.26-.09-.38-.11ZM111.9 103.79l.1.15c.11-.03.23-.01.38.1.01 0 .08-.04.07-.07-.04-.1-.08-.26-.15-.31-.08-.06-.19-.03-.28-.03-.03 0-.04.04-.08.08 0 0-.05.04-.04.08ZM107.53 99.34c.14.17.27.14.4.19.05.02.09 0 .14 0l-.12-.16s-.07-.07-.1-.11l-.15-.16c-.14-.14-.16-.05-.22 0-.08.06-.03.13.06.24ZM118.14 109.53a.332.332 0 0 1-.17-.3c0-.01-.09-.07-.14-.07-.05 0-.15.04-.15.04.07.13.16.27.25.4.09-.02.14-.04.2-.06ZM111.82 104.62s-.08.11-.06.15c.06.08.16.18.24.22.08.04.16.01.24.02-.04-.08-.08-.17-.11-.21-.13-.12-.23-.29-.32-.17ZM112.94 107.11l.82.6s0-.12-.02-.13a8.06 8.06 0 0 0-.66-.53c-.03-.02-.09.04-.14.07ZM109.4 101.16c.06-.01.11-.02.12-.03.06-.06.1-.08.12-.12.04-.1-.08-.18-.16-.24-.04-.04-.13-.05-.17-.03-.04.03-.07.09-.05.15.02.08.09.17.14.26ZM105.19 97.35s.01.05.02.09c.04.02.09.06.12.06l.64.07h.11c-.03-.05-.06-.13-.09-.15-.21-.12-.42-.21-.59-.43 0 0-.05.02-.08.03.38.43-.12.2-.13.34ZM104.32 97.09c.01.06.08.15.14.2.09.07.18.11.28.16.03.01.08 0 .08-.02 0-.04 0-.09-.02-.14-.01-.03-.07-.07-.1-.11-.05-.05-.1-.11-.16-.16-.07-.06-.25-.01-.23.07ZM114.24 107.8s.05-.02.1-.05c0-.03.04-.12.02-.14-.16-.16-.1-.3-.18-.44a.293.293 0 0 0-.1-.09c-.01 0-.05.01-.05.03l.15.62s.05.07.06.07ZM117 109.03c.16.14.31.18.44.11.02-.01.03-.05.02-.07 0-.02-.04-.07-.07-.07-.11-.04-.23-.07-.35-.11-.06-.01-.11.01-.16.02l.12.13ZM106.66 98.29s.14.04.14.01c-.02-.11-.04-.26-.13-.37-.05-.06-.21-.06-.31-.08-.02 0-.03.05-.02.09.04.17.34.12.32.35ZM113.5 105.12s.12.05.18.07c-.02-.06-.03-.13-.06-.19-.03-.05-.09-.1-.14-.15-.05-.05-.09-.1-.15-.15-.03-.03-.07-.04-.11-.05 0 .03.02.07.02.1 0 .15.15.26.26.36ZM108.4 100.54v.09c.04 0 .08 0 .13.02.07.03.14.07.19.1.13.06.13-.04.11-.15-.01-.07.02-.12.03-.19-.03-.01-.08-.04-.09-.04-.07.03-.13.07-.2.1s-.29-.17-.23.02c0 .01.02.03.04.05ZM114.96 106.75s.1.08.12.07c.11-.03.21-.08.32-.12v-.07s-.03-.03-.04-.03h-.47s.02.1.05.14ZM102.76 95.04s.1-.05.08-.09c-.03-.08-.11-.16-.12-.18-.11-.11-.16-.18-.22-.23-.02-.02-.08-.02-.09 0-.06.09.18.45.34.49ZM113.01 105.65c-.07-.02-.15-.05-.22-.06-.06 0-.11.01-.16.03 0 0 .02.07.04.1.1.12.15.09.22.05.03-.02.13.02.18.04.01-.06.02-.08.03-.11a.405.405 0 0 0-.09-.05ZM112.74 104.2c.08.05.17.07.28.11-.07-.14-.12-.25-.18-.36-.06.02-.15.02-.19.07-.02.02.04.15.08.18ZM111.87 103.18s.1.05.21.11c-.06-.17-.1-.28-.15-.4 0 0-.12-.05-.13-.03-.04.08-.08.18.07.32ZM112.64 105.21c-.05-.05-.1-.12-.15-.14-.04-.02-.1 0-.12.02-.01.02.02.12.05.14.08.06.17.11.26.15.04.02.08.03.12.04-.02-.03-.04-.07-.07-.1a.474.474 0 0 0-.1-.1ZM101.27 96.02l.03-.03-.02-.12-.09.02c-.04.09-.33-.14-.25.11.01.03.05.08.09.11.17.11.16-.05.24-.08ZM103.57 96.18c.15-.04.2-.08.27-.06.13.03.25.06.2-.13 0-.02-.03-.04-.05-.06-.2-.18-.19 0-.26.04-.05.03-.07.09-.15.21ZM107.61 98.91s-.02-.06-.03-.08c-.08-.1-.61-.31-.69-.27-.01 0 .05.1.11.22.2.04.4.08.61.12ZM103.75 95.74c0-.07.03-.11.01-.14-.09-.15-.32-.24-.43-.16-.02.01 0 .07 0 .11.14.06.29.13.42.19ZM112.58 106.87s.01.12.02.13c.1.05.21.1.31.14-.02-.04-.03-.08-.04-.1-.11-.09-.2-.27-.29-.16ZM107.26 100.15s.1.06.2.11c-.03-.14-.05-.24-.07-.35-.04 0-.1 0-.13.03-.05.04-.15.08 0 .21ZM106.19 99.12a.49.49 0 0 0-.19-.07c-.01 0 0 .11.02.13.05.05.12.08.23.15-.03-.12-.04-.2-.06-.21ZM106.06 98.24c.02-.08 0-.2-.04-.3 0-.02-.21-.11-.23-.09-.05.05-.04.16-.06.31.19.05.33.11.34.08ZM104.6 96.71c0 .06.03.14.07.21.02.02.1.03.22.07-.07-.12-.1-.2-.15-.26-.03-.03-.14-.04-.14-.02ZM115.42 107.74l-.17.1s.06.08.09.1c.05.03.11.03.19.05a4.12 4.12 0 0 0-.11-.25ZM101.47 96.68c0 .06.02.13.06.19.01.02.09.03.21.07-.06-.11-.09-.19-.14-.24-.03-.03-.13-.04-.13-.02ZM105.06 96.72c-.03-.06-.04-.12-.06-.13a.6.6 0 0 0-.2-.07c-.02 0-.01.06-.02.09.09.04.19.07.29.11ZM111.53 103.59s.1 0 .14-.02c.02 0 0-.06 0-.09l-.23-.04s.04.07.09.15ZM108.4 100.03l-.12-.22c-.07-.04-.13-.08-.18-.11.06.08.11.17.17.25.03.03.08.05.13.08ZM113.97 105.54c-.04-.06-.07-.14-.1-.15a.297.297 0 0 0-.16-.01c-.01 0 0 .06 0 .09.08.02.15.04.25.07ZM102.18 94.98c-.02-.06-.04-.12-.06-.13a.6.6 0 0 0-.2-.07s0 .08.01.13c.08.03.16.05.25.08ZM104.51 96.35c.03-.07.02-.18.03-.26-.15-.12-.22-.17-.28-.23l.09.46c.06.01.16.06.17.03ZM103.49 96.2c-.01.06-.03.12-.01.18 0 .03.11.07.17.11-.02-.08-.05-.17-.07-.26-.02 0-.08-.04-.08-.04ZM112.94 104.47c.09.02.16.06.2.05.03 0 .01-.07.02-.11-.07-.03-.14-.07-.2-.09-.02 0 0 .07-.02.15ZM110.03 101.94c.04.06.07.12.12.16.05.05.12.07.18.11-.04-.06-.07-.11-.13-.2-.05-.02-.11-.04-.17-.07ZM113.98 109.31v.11c.05-.02.1-.02.12-.04.02-.01 0-.06 0-.09-.04 0-.09 0-.12.03ZM101.85 96.95s-.01.05-.02.08c.05.03.09.06.11.07.02-.08.02-.11.03-.14-.04 0-.09-.02-.12-.01ZM114.42 108.27v.12c.03 0 .06 0 .13-.02-.01-.02-.04-.07-.06-.11-.03 0-.07 0-.08.02ZM114.78 108.01s-.05 0-.09.01c.02.03.04.08.06.1.04.03.08.04.12.05-.02-.03-.04-.07-.1-.17ZM111.58 103.08s.03.05.05.07c.03-.02.07-.03.1-.05.01 0 0-.05-.02-.12-.06.04-.1.07-.14.1ZM117.17 108.67s-.03-.07-.05-.09c-.04-.03-.1-.04-.14-.06.02.03.03.06.05.11.04.01.09.03.14.04ZM105.6 98.91c.1.06.14.09.17.11-.02-.04-.02-.09-.05-.13-.02-.03-.07-.05-.11-.07 0 .04-.01.08-.02.09ZM111.16 102.27c-.03-.05-.05-.1-.08-.15a.666.666 0 0 1-.12-.06c.03.05.06.11.09.16.02.03.07.03.1.05ZM119.29 109.64l-.09-.06a.31.31 0 0 0-.08.02c.01.03.03.06.03.08.08-.02.11-.03.14-.04ZM116.59 108.59c.15-.09.26-.11.27-.18.01-.06-.07-.18-.11-.27-.04.04-.09.08-.11.13-.03.07-.03.15-.05.31ZM104.1 96.66c.04.05.09.1.14.14l.06-.04c-.06-.05-.11-.1-.16-.14l-.04.04ZM106.16 99.54s.04.05.06.08c.04-.02.08-.03.11-.06.01 0 0-.05-.02-.13-.07.05-.11.07-.15.11Z"/><path d="m117.26 100.89 30.59-3.9c2.36-.3 4.04 2.24 2.84 4.29l-15.51 26.65 13.16 27.88c1.02 2.15-.88 4.53-3.2 4.03L115 153.33l-16.69 15.71" style="fill:#ffd066;stroke-width:0"/><path class="cls-12" d="M22.08 119.15c1.25 1.26 19.59-27.95 56.9-52.13 37.32-24.18 61.23-33.28 60.95-34.16-.96-3.08-42.12 11.62-64.7 27.58-25.21 17.82-46.98 39.76-53.16 58.71ZM25.07 38.6c.35.34 4.9-6.19 15.34-14.48 4.42-3.51 7.17-5.17 9.46-6.3 1.56-.77-.12-2.49 1.38-3.18 0 0 6.98-.89 8.2-1.5.79-.4-9.55 1.27-19.49 8.73-6.8 5.11-13.29 11.47-14.89 16.72Z"/><path d="M165.22 67.88c-.1-.65-.59-1.03-1.23-1.08-1.52-.13-3.02-.41-4.46-.92-1.07-.38-2.31-1.03-3.13-1.7-2.02-1.65-3.12-3.91-3.73-6.45-.42-1.78-.58-3.61-.62-5.44-.03-1.4-1.95-1.58-2.4-.53-.53.09-1.01.49-1.02 1.18-.04 3.37-.92 6.85-3.16 9.46-2.23 2.59-5.41 4.03-8.78 4.39-.67.07-1.25.52-1.25 1.25 0 .66.57 1.28 1.25 1.25 6.52-.26 10.85 5.86 12.14 11.63.4 1.8.51 3.64.35 5.48-.13 1.4 2.16 1.7 2.45.33 1.17-5.45 2.28-11.66 7.12-15.11 1.67-1.19 3.56-1.93 5.56-2.38.6-.13.98-.79.9-1.37Z" style="fill:#bf9dd6;stroke-width:0"/><path d="M189.25 89.65c-.1-.65-.59-1.03-1.23-1.08-2.39-.21-4.68-.95-6.15-2.81-1.44-1.83-1.84-4.6-1.89-7.05-.03-1.33-1.76-1.56-2.32-.67-.45.15-.82.52-.83 1.14-.03 2.27-.61 4.64-2.12 6.4-1.5 1.75-3.65 2.73-5.93 2.99-.67.07-1.25.52-1.25 1.25 0 .66.57 1.27 1.25 1.25 5.85-.21 8.87 6.7 8.43 11.69-.12 1.4 2.16 1.7 2.45.33.52-2.43.99-4.98 2.13-7.15 1.38-2.63 3.64-4.26 6.55-4.92.6-.13.98-.79.9-1.37Z" style="fill:#d3c3dd;stroke-width:0"/></svg>