<svg id="Illustration" xmlns="http://www.w3.org/2000/svg" viewBox="0 0 200 200"><defs><style>.cls-1{fill:#78577a}.cls-2{fill:#f0a4ae}.cls-3{fill:#fab7c2}.cls-4{fill:#f45f29}.cls-5{fill:#fff}.cls-6{fill:#fd7f03}.cls-7{fill:#f4c044}.cls-8{fill:#edebe8}.cls-9{fill:#bfd8dc}.cls-10{fill:#5b3d5b}</style></defs><path class="cls-9" d="M189.94 26.54c-.42-2.03-1.75-6.79-4.18-9.07-2.44-2.28-6.07-4.66-8.75-5.55-2.68-.89-6.78-2.23-11.72-2.85-3.72-.47-10.24-1.04-15.7-1.3-.34-.04-.68-.09-1.03-.13-8.37-1.03-17.02-2.01-25.29.26-3.47.95-6.76 2.51-9.62 4.65-1.11.75-2.12 1.61-2.96 2.59-.33.34-.67.68-.98 1.04-2.75 3.18-4.68 6.99-5.84 11.02-.76 2.66-1.22 5.43-1.32 8.2-.18 4.96-.59 9.91-.93 14.87-.68 10.08-1.35 20.15-2.02 30.23-.67 10.19-1.34 20.37-1.98 30.56-.15 2.33-.29 4.66-.44 6.99-.03.44.27.67.6.72-.16 2.33-.29 4.14-.36 5.05-.35 4.65-1.75 15.61-1.43 18.12.32 2.51 2.15 7.85 4.63 9.79 2.48 1.94 8.04 5.4 14.84 6.1 6.8.7 18.05 2.72 24.16 2.7 6.11-.01 12.2.18 16.11-.24 3.91-.41 10.4-.98 14.05-3.46 3.66-2.48 6.37-4.6 8.09-7.84 1.72-3.24 4.43-8.54 4.97-14.41.53-5.87 2.16-28.5 2.16-28.5l3.1-51.66s.92-9.41 1.22-12.92c.3-3.51 1.04-12.94.62-14.97z"/><path class="cls-4" d="m50.64 42.73-18.77 3.86 24.91 27.5-6.14-31.36z"/><path class="cls-6" d="m165.55 133.96-54.86-4.22s2.66-43 3.17-50.77 3.38-50.77 3.38-50.77l54.96 2.78-6.65 102.97z"/><path class="cls-1" d="m185 106.1-6.47-.53s-2.14-.12-3.99-2.03c-1.84-1.9-2.2-3.17-2.11-4.61s1.3-20.59 1.53-24.16 1.46-17.37 1.46-17.37 3.19-2.23 4-2.72 3.37-.4 4.71-.65 3.96.39 3.96.39-2.17 36.65-2.37 39.62-.72 12.05-.72 12.05z"/><path class="cls-4" d="M43.77 10.2c-.34.71-11.9 36.4-11.9 36.4s-9.42 1.99-9.11 1.39S43.77 10.2 43.77 10.2z"/><path class="cls-2" d="m50.64 42.73 6.74 31.23L68.9 38.83l-18.26 3.9zM31.87 46.59l-9.12 1.4 32.54 25.56L36.6 52.4l-4.73-5.81z"/><path class="cls-3" d="M44.35 10.84c.26.28 24.74 27.27 24.74 27.27l9.23-1.99-33.97-25.28z"/><path class="cls-6" d="m78 36.89-9.66 2.36-10.96 34.71L78 36.89z"/><path class="cls-3" d="M78.99 35.08A828.529 828.529 0 0 0 44.34 8.66c-1.3-.94-2.65 1.16-1.36 2.09 11.78 8.5 23.33 17.31 34.65 26.42 1.25 1.01 2.6-1.09 1.36-2.09z"/><path class="cls-4" d="M23.8 48.66c6.61-12.94 13.56-25.7 20.84-38.27.8-1.39-1.29-2.75-2.09-1.36A836.757 836.757 0 0 0 21.71 47.3c-.72 1.42 1.36 2.79 2.09 1.36z"/><path class="cls-2" d="M21.96 49.63a828.529 828.529 0 0 0 34.65 26.42c1.3.94 2.65-1.16 1.36-2.09a828.529 828.529 0 0 1-34.65-26.42c-1.25-1.01-2.6 1.09-1.36 2.09z"/><path class="cls-4" d="M30.53 46.99c7.94 10.02 16.8 19.23 25.73 28.36 1.12 1.14 2.97-.53 1.84-1.68-8.93-9.13-17.79-18.34-25.73-28.36-1-1.26-2.84.43-1.84 1.68z"/><path class="cls-6" d="M77.04 36.25a818.006 818.006 0 0 1-20.72 38.06c-.8 1.38 1.28 2.73 2.08 1.35 7.24-12.5 14.15-25.2 20.72-38.06.72-1.41-1.35-2.77-2.08-1.35z"/><path class="cls-2" d="M67.9 37.72c-3.15 12.39-7.48 24.42-11.9 36.4-.56 1.51 1.81 2.28 2.37.78 4.42-11.98 8.75-24.01 11.9-36.4.39-1.55-1.97-2.34-2.37-.78z"/><path class="cls-3" d="M69.92 39.89c2.78-.59 5.56-1.19 8.34-1.78.66-.14 1.1-.82.96-1.48s-.82-1.1-1.48-.96c-2.78.59-5.56 1.19-8.34 1.78-.66.14-1.1.82-.96 1.48s.82 1.1 1.48.96z"/><path class="cls-4" d="M49.1 41.83c2.26 10.99 4.53 21.97 6.87 32.94.33 1.57 2.77 1.05 2.44-.52-2.34-10.97-4.61-21.95-6.87-32.94-.32-1.57-2.76-1.05-2.44.52zM22.85 49.6c9.03-1.93-.56.09 8.47-1.84 1.57-.34 1.05-2.77-.52-2.44-9.03 1.93.56-.09-8.47 1.84-1.57.34-1.05 2.77.52 2.44z"/><path class="cls-3" d="M32.08 47.78c9.03-1.93-.56.09 8.47-1.84 1.57-.34 1.05-2.77-.52-2.44-9.03 1.93.56-.09-8.47 1.84-1.57.34-1.05 2.77.52 2.44z"/><path class="cls-9" d="M177.44 106.03c-.4 6.41-.81 12.82-1.21 19.23-.06.99 1.48.99 1.54 0 .41-6.41.81-12.82 1.21-19.23.06-.99-1.48-.99-1.54 0z"/><path class="cls-1" d="M180.78 53.64c-.88 13.63-1.75 27.25-2.61 40.88-.23 3.68-.46 7.36-.7 11.04-.06.99 1.48.99 1.54 0 .85-13.49 1.7-26.98 2.57-40.47.24-3.82.49-7.63.74-11.45.06-.99-1.48-.99-1.54 0z"/><path class="cls-9" d="M171.2 56.71c-.08 1.26-.16 2.52-.25 3.78-.03.4.37.79.77.77.44-.02.74-.34.77-.77.08-1.26.16-2.52.25-3.78.03-.4-.37-.79-.77-.77-.44.02-.74.34-.77.77zM184.11 106.26c-.56 8.1-1.11 16.2-1.62 24.31-.06.99 1.48.99 1.54 0 .51-8.1 1.07-16.21 1.62-24.31.07-.99-1.47-.98-1.54 0z"/><path class="cls-1" d="M185.68 105.8c.93-13.42 1.88-26.84 2.8-40.26.26-3.77.52-7.54.77-11.32.03-.44-.38-.74-.77-.77l-6.19-.45c-.53-.04-.88.12-1.39.33-1.15.49-2.29 1.03-3.39 1.63-.97.53-2.13 1.08-2.74 2.05-.68 1.08-.6 2.51-.68 3.73-.71 11.2-1.42 22.4-2.12 33.6-.1 1.6-.21 3.21-.3 4.81-.07 1.35.08 2.59.86 3.73 1.34 1.95 3.58 2.9 5.81 3.42.96.22 1.38-1.26.41-1.48-1.78-.41-3.72-1.09-4.84-2.64-.7-.97-.77-1.98-.7-3.14.08-1.31.17-2.62.25-3.93.33-5.26.66-10.52 1-15.78s.66-10.52 1-15.78c.08-1.32.16-2.63.25-3.95.03-.54.04-1.14.29-1.62s.79-.8 1.26-1.09c1-.6 2.03-1.13 3.08-1.62.54-.25 1.22-.72 1.77-.74 1.18-.05 2.43.18 3.6.26.93.07 1.86.13 2.78.2l-.77-.77c-.91 13.48-1.86 26.96-2.8 40.44-.26 3.71-.52 7.43-.77 11.14-.07.99 1.47.98 1.54 0z"/><path class="cls-6" d="M111.46 129.74c.8-13.65 1.65-27.29 2.53-40.94.84-13.02 1.71-26.04 2.58-39.06l1.44-21.54-.77.77 5.44.27 13.05.66c5.26.26 10.52.53 15.79.79 4.53.23 9.06.46 13.59.68 1.5.08 3 .15 4.5.23.69.03 1.45.17 2.14.11h.09l-.77-.77c-.86 12.82-1.72 25.65-2.57 38.47-.88 13.31-1.75 26.62-2.59 39.93-.48 7.75-.95 15.49-1.41 23.24-.06.99 1.48.99 1.54 0 .8-13.61 1.65-27.22 2.53-40.83.85-13.09 1.72-26.18 2.6-39.28l1.44-21.54c.03-.43-.38-.75-.77-.77l-5.44-.27-13.05-.66c-5.26-.26-10.52-.53-15.79-.79l-13.59-.68c-2.2-.11-4.44-.35-6.65-.33h-.09c-.44-.02-.74.37-.77.77l-2.58 38.52c-.88 13.24-1.74 26.49-2.57 39.74-.48 7.76-.95 15.52-1.41 23.28-.06.99 1.48.99 1.54 0z"/><path class="cls-9" d="M176.23 125.26c-.2 3.83-.86 7.64-1.99 11.31-1.08 3.5-2.63 6.96-4.91 9.85-4.96 6.29-13.06 7.7-20.63 7.98-4.29.16-8.59.06-12.88-.05-4.63-.12-9.28-.36-13.87-.97-4.45-.59-8.88-1.55-13.11-3.06-3.58-1.28-7-3.21-9.04-6.53-.8-1.31-1.58-2.66-1.98-4.15-.48-1.78-.47-3.64-.38-5.47.19-4.27.78-8.51 1.1-12.78.08-1.11.15-2.21.19-3.32.04-.99-1.5-.99-1.54 0-.19 4.59-.78 9.15-1.14 13.73-.29 3.7-.44 7.4 1.3 10.79.82 1.6 1.78 3.15 3.03 4.44 1.35 1.4 2.98 2.51 4.71 3.37 4.02 2.02 8.57 3.13 12.97 3.92 4.7.84 9.46 1.25 14.22 1.45 4.63.2 9.27.28 13.9.23 7.86-.09 16.78-.88 22.66-6.72 2.65-2.63 4.5-5.98 5.87-9.43 1.48-3.74 2.37-7.71 2.82-11.71.11-.96.19-1.92.24-2.88s-1.49-.99-1.54 0z"/><path class="cls-9" d="M182.48 130.57c-.23 3.9-.96 7.77-2.22 11.47-1.22 3.58-2.97 7.08-5.49 9.93-5.57 6.29-14.37 7.49-22.33 7.75-4.58.15-9.17.05-13.75-.05-4.84-.11-9.69-.34-14.51-.89-4.73-.54-9.44-1.42-13.99-2.84-3.85-1.2-7.78-2.86-10.31-6.16-.95-1.24-1.87-2.69-2.42-4.16-.67-1.8-.74-3.7-.67-5.6.16-4.42.84-8.81 1.21-13.21.09-1.14.17-2.29.22-3.44.04-.99-1.5-.99-1.54 0-.21 4.77-.91 9.49-1.28 14.24-.16 2.05-.29 4.13.01 6.17.25 1.71.91 3.28 1.8 4.74.99 1.63 2.1 3.14 3.56 4.38 1.59 1.35 3.4 2.37 5.32 3.17 4.44 1.88 9.28 2.93 14.03 3.67 4.92.77 9.89 1.14 14.86 1.33 4.88.19 9.78.27 14.67.22 8.32-.08 17.82-.7 24.39-6.45 5.98-5.24 8.75-13.62 9.71-21.3.12-1 .21-1.99.27-2.99s-1.48-.99-1.54 0z"/><path class="cls-6" d="M165.55 133.19c-14.23-.8-28.41-2.11-42.61-3.27-4.08-.34-8.16-.65-12.25-.94-.99-.07-.98 1.47 0 1.54 14.03 1 28.04 2.37 42.07 3.39 4.26.31 8.52.59 12.79.83.99.06.99-1.48 0-1.54zM162.88 40.45c-11.96-.56-23.92-1.17-35.87-1.81-3.31-.18-6.62-.35-9.93-.53-.99-.05-.99 1.49 0 1.54 11.81.63 23.62 1.26 35.43 1.84 3.46.17 6.91.34 10.37.5.99.05.99-1.49 0-1.54z"/><path class="cls-10" d="M129.09 34.25h-.05c-1.52.37-2.55 1.78-2.71 3.29-.16 1.57.87 2.91 2.27 3.47 1.45.58 3.1.15 4.08-1.05.54-.66.96-1.46 1.18-2.29.26-.99-.06-1.94-.8-2.63-1.04-.97-2.64-1.27-3.97-.78zm2.62 4.44c-.14.2-.31.41-.53.59-.08.07-.16.12-.28.2-.04.03-.09.05-.13.07-.08.04-.09.04-.02.01-.03.01-.07.03-.1.04-.1.03-.21.07-.32.09-.02 0-.25.03-.09.02-.05 0-.1 0-.15.01h-.42c-.01 0-.01 0-.04-.01a3.58 3.58 0 0 1-.57-.16c-.03-.01-.03-.01-.05-.01 0 0-.01 0-.04-.03-.04-.02-.09-.04-.13-.07-.29-.16-.32-.18-.54-.42-.27-.28-.45-.7-.46-1.07v-.15c0-.02.01-.17.01-.21.02-.13.05-.25.08-.38l.06-.18c.01-.03.01-.05.02-.05 0 0 0-.01.03-.04.07-.14.14-.27.23-.4 0 0 .08-.11.09-.12.04-.05.08-.09.13-.14.04-.05.09-.09.14-.13.01-.01.03-.02.04-.04.12 0 .24-.03.34-.1.22-.16.42-.27.59-.33.13-.04.25-.08.38-.1 0 0 .26-.03.11-.02.08 0 .16-.01.24-.01.49-.01.93.09 1.36.36.35.21.79.64.74 1.15-.06.59-.38 1.16-.7 1.64zM145.09 34.89c-1.28.48-2.57.95-3.85 1.43-.38.14-.67.53-.54.95.07.22.25.4.46.5.92 1.29 2.1 2.38 3.48 3.16.53.3 1.13-.09 1.16-.66l.27-4.63c.03-.47-.52-.91-.97-.74zm-1.35 3.5c-.35-.32-.66-.67-.94-1.01.55-.21 1.11-.41 1.66-.62l-.12 2.13c-.02-.01-.03-.03-.05-.04-.02-.02-.1-.08-.11-.09-.15-.12-.29-.25-.44-.38zM159.96 36.9c-.02-.41-.33-.78-.77-.77-1.08.02-2.16.03-3.24.05-.14 0-.27.06-.39.13h-.04c-.44.02-.74.34-.77.77-.05.78-.11 1.56-.16 2.34-.05.68-.24 1.53.13 2.15.24.41.68.65 1.15.65.36 0 .7-.12 1.04-.21.19-.05.37-.09.56-.13.08-.02.16-.03.24-.04-.12.02.12-.01.12-.01.38-.04.77-.05 1.15-.03.3.01.69-.25.74-.57.22-1.43.31-2.87.23-4.32zm-3.06 3.52c-.29.06-.57.15-.86.22v-.02c0-.15.02-.29.03-.44.02-.35.05-.69.07-1.04.03-.48.07-.96.1-1.43l2.18-.03c0 .41.02.83 0 1.24-.02.33-.04.66-.07.99-.01.14-.03.25-.04.35-.48.02-.95.06-1.42.16z"/><path class="cls-1" d="M178.53 106.34c2.12.17 4.26.06 6.38.23.41.03.77-.38.77-.77 0-.44-.35-.74-.77-.77-2.12-.17-4.26-.06-6.38-.23-.41-.03-.77.38-.77.77 0 .44.35.74.77.77z"/><path class="cls-5" d="M155.49 70.89c-.07-.23-1.07-2.49-3.03-5.39a.407.407 0 0 1-.08-.24c0-1.6-.1-3.19-.28-4.77a.764.764 0 0 0-.62-.65l-2.24-.46h-.06c-.26-.02-.5.18-.52.44l-.06.79s-.02.03-.03.03h-.02c-1.32-1.4-2.75-2.68-4.3-3.82a2 2 0 0 0-1.1-.43c-.4-.03-.8.05-1.15.25-8.21 4.2-13.15 11.7-13.35 12.12-.06.1-.09.21-.1.32-.03.35.19.68.52.8l2.22.61c.3.11.5.39.51.7-.01.4-.3 9.32.05 11.67.06.35.35.61.7.64h.02c1.32.07 2.52.15 3.83.24s.1 0 .1 0c.14.01.26-.09.27-.23v-.02c0-.78.04-2.56.1-4.44v-.15a.48.48 0 0 0-.2-.4 2.422 2.422 0 0 1-1.02-2.06c.13-3.13.36-6.73.76-9.54.03-.25.25-.43.5-.41.25.03.43.25.41.5v.03c-.26 1.87-.45 4.09-.59 6.28a.537.537 0 0 0 1.07.07c.14-2.21.33-4.44.59-6.32.03-.25.25-.43.5-.41s.43.25.41.5v.03c-.26 1.86-.45 4.07-.59 6.25a.537.537 0 0 0 1.07.07c.14-2.2.33-4.43.59-6.29.03-.25.25-.43.5-.41s.43.25.41.5v.03c-.38 2.73-.61 6.2-.74 9.25v.11c-.07.8-.52 1.52-1.22 1.92-.13.07-.21.2-.23.34 0 0-.09.46-.07 2.74.02 1 .04 1.69.04 2 0 .12.1.22.22.23l.21.02 1.35.11h.17c.59.06 1.15.11 1.69.15l1.28.11c.12.01.23-.07.26-.19.51-2.69.71-4.21.71-4.21 0-.14-.09-.26-.22-.28l-1.54-.34a.523.523 0 0 1-.41-.42.964.964 0 0 1 0-.24c1.36-8.99 4.58-11.8 4.58-11.8.05-.04.1-.08.15-.11.23-.14.52-.07.66.16.02.03.04.07.05.11.02.07.02.15.02.22.03 2.86-.49 7.69-.95 11.45-.39 3.19-.76 5.69-.76 5.69 0 .11.07.2.17.21.85.08 1.68.17 2.56.26.35.03.68-.18.8-.52.72-2.26 1.86-11.11 1.91-11.52.06-.31.3-.55.62-.61l2.28-.26c.35-.06.62-.35.65-.7.01-.11 0-.23-.04-.34z"/><path class="cls-7" d="M96.28 86.7c1.29-.33 2.63.68 2.92 1.93s-.72 2.64-1.93 3.03-2.47-.26-3.02-1.42c-.51-1.07-.34-2.41.65-3.13 1.06-.77 2.69-.76 3.62.19.38.39.98-.21.6-.6-1.11-1.13-2.93-1.27-4.29-.55-1.46.77-2.03 2.47-1.51 4.01s2.02 2.71 3.72 2.43 3.13-1.88 3.06-3.6c-.09-1.97-2.11-3.6-4.05-3.1-.53.13-.3.95.23.82zM93.22 97.47c1.29-.33 2.63.68 2.92 1.93s-.72 2.64-1.93 3.03-2.47-.26-3.02-1.42c-.51-1.07-.34-2.41.65-3.13 1.06-.77 2.69-.76 3.62.19.38.39.98-.21.6-.6-1.11-1.13-2.93-1.27-4.29-.55-1.46.77-2.03 2.47-1.51 4.01s2.02 2.71 3.72 2.43c1.67-.28 3.13-1.88 3.06-3.6-.09-1.97-2.11-3.6-4.05-3.1-.53.13-.3.95.23.82zM105.01 103.06c1.29-.33 2.63.68 2.92 1.93s-.72 2.64-1.93 3.03-2.47-.26-3.02-1.42c-.51-1.07-.34-2.41.65-3.13 1.06-.77 2.69-.76 3.62.19.38.39.98-.21.6-.6-1.11-1.13-2.93-1.27-4.29-.55-1.46.77-2.03 2.47-1.51 4.01s2.02 2.71 3.72 2.43c1.67-.28 3.13-1.88 3.06-3.6-.09-1.97-2.11-3.6-4.05-3.1-.53.13-.3.95.23.82zM108.18 91.58c1.29-.33 2.63.68 2.92 1.93s-.72 2.64-1.93 3.03c-1.26.41-2.47-.26-3.02-1.42-.51-1.07-.34-2.41.65-3.13 1.06-.77 2.69-.76 3.62.19.38.39.98-.21.6-.6-1.11-1.13-2.93-1.27-4.29-.55-1.46.77-2.03 2.47-1.51 4.01s2.02 2.71 3.72 2.43 3.13-1.88 3.06-3.6c-.09-1.97-2.11-3.6-4.05-3.1-.53.13-.3.95.23.82z"/><path class="cls-8" d="m43.77 10.2 6.87 32.53 18.44-4.62L43.77 10.2z"/><path class="cls-3" d="M33.35 45.52c3.15-12.39 7.18-22.96 11.6-34.93.56-1.51-1.81-2.28-2.37-.78-4.42 11.98-8.75 24.01-11.9 36.4-.39 1.55 1.93 1.71 2.32.16l.35-.84z"/><path class="cls-8" d="M68.58 39.4c1 1.26 2.84-.43 1.84-1.68-7.94-10.02-16.8-19.23-25.73-28.36-1.12-1.14-2.97.53-1.84 1.68"/><path class="cls-8" d="m50.71 43.99 18.88-4.03c1.57-.34 1.05-2.77-.52-2.44l-18.88 4.03c-1.57.34-1.05 2.77.52 2.44z"/><path class="cls-8" d="M42.85 11.04c8.93 9.13 17.79 18.34 25.73 28.36"/><path class="cls-3" d="M52.23 43.7c-2.24-10.86-4.93-22.93-7.24-33.77M43.77 10.2l6.5 33.85-19.01 3.78L43.77 10.2z"/><path class="cls-3" d="M44.99 9.94c-.34-1.57-2.77-1.05-2.44.52 2.32 10.84 4.79 22.95 7.02 33.81l2.66-.56"/><path class="cls-5" d="M169.71 11.22s.15.12.48.26c.16.07.36.15.6.24l.81.39c1.21.59 2.93 1.65 4.69 3.5 1.74 1.85 3.51 4.5 4.68 7.92s1.68 7.58 1.63 12.18c-.04 4.6-.47 9.69-.76 15.15-.31 5.46-.65 11.3-1 17.44-.66 12.28-1.39 25.79-2.15 39.96-.38 7.06-.95 13.95-2.52 20.35-.79 3.19-1.83 6.26-3.24 9.05-1.41 2.78-3.17 5.33-5.35 7.28-2.18 1.96-4.76 3.34-7.45 4.21-2.68.88-5.43 1.34-8.11 1.62-2.68.27-5.31.37-7.84.43-2.53.05-4.97.1-7.28.09-9.26-.04-16.72-1.03-21.81-1.97-5.1-.94-7.87-1.72-7.92-1.56-.02.07.65.33 1.96.76 1.31.4 3.25.99 5.8 1.57 5.08 1.18 12.59 2.4 21.95 2.62 2.34.06 4.78.05 7.32.04 2.55-.02 5.21-.07 7.97-.32s5.63-.69 8.5-1.6c2.87-.89 5.71-2.37 8.12-4.5 4.84-4.34 7.63-10.68 9.27-17.24 1.65-6.61 2.23-13.61 2.61-20.71.71-14.18 1.38-27.69 2-39.97.29-6.14.56-11.98.81-17.45.21-5.47.56-10.54.52-15.25-.05-4.69-.67-9-1.99-12.55-1.33-3.55-3.28-6.25-5.18-8.09-1.92-1.85-3.78-2.83-5.08-3.32-.33-.11-.62-.22-.86-.3l-.64-.15c-.35-.07-.53-.1-.54-.06z"/><path class="cls-6" d="M128.55 166.44s-.44-.2-1.05-.53c-.03-.02-.05-.03-.09-.05-.55-.3-1.22-.68-1.86-1.12-1.4-.96-5.33-4.97-6.87-6.91s-6.2-10.93-7.47-13.64c-1.27-2.71-3.31-6.76-5.28-10.24-1.97-3.48-5.31-7.13-7.99-9.71-2.68-2.58-4.44-2.16-7.47-1.99-3.03.17-17.42 4.57-21.75 5.72-4.33 1.15-8.19 2.55-10.48 3.87-2.28 1.32-3.2 3.65-4.6 6.71-.91 1.98-2.45 8.4-3.23 12.8-.74 2.83-1.28 5.72-1.81 8.58-.9 4.81-1.62 9.65-2.18 14.5-.14 1.21-.26 2.42-.38 3.63-.1.99 1.44.98 1.54 0 .47-4.81 1.1-9.61 1.91-14.38.74-4.36 1.53-8.76 2.71-13.02 1.03-3.73 2.5-7.48 5.12-10.39 2.68-2.97 6.34-4.68 10.11-5.81 1.96-.59 3.97-1.03 5.97-1.45 2.2-.46 4.41-.86 6.66-.97 2.21-.1 4.42.09 6.52.83 1.91.67 3.65 1.81 5.2 3.11 2.68 2.24 5.13 4.85 6.94 7.84 1.91 3.15 4 6.16 6.16 9.14 4.8 6.63 10.7 13.14 19.27 14.25.98.13 1.96.17 2.95.13.49-.02.73-.41.74-.79.44-.07.7-.13.7-.13zM45.37 85.95c-8.14 2.64-16.62 5.7-22.85 11.81-3.31 3.24-5.86 7.25-7.91 11.39-2.3 4.65-3.96 9.6-5.14 14.65-2.59 11.02-3.21 22.55-1.94 33.79 1.11 9.81 3.52 20.01 9.97 27.77 5.61 6.75 14.99 11.1 23.78 8.95 1.04-.26 2.05-.62 3.03-1.05.91-.4.12-1.72-.78-1.33-5.11 2.23-10.84 1.62-15.84-.66-1.63-1.81-4.4-5.03-5.42-6.92-1.47-2.73-3.15-6.93-4-10.82-.85-3.89-2.5-9.76-3.03-14.39-.52-4.63-1.16-12.37-.78-25.03.37-12.66 4.66-23.45 5.43-27.04.48-2.23 2.1-5.56 3.26-7.75 5.23-5.31 12.23-8.33 19.2-10.75 1.14-.4 2.28-.78 3.43-1.15.94-.31.54-1.79-.41-1.48z"/><path class="cls-7" d="M46.62 85.53c-4.59 1.51-9.09 3.3-13.41 5.47-3.81 1.91-7.62 4.14-10.12 7.69-1.27 1.81-2.19 3.87-3.04 5.91a64.53 64.53 0 0 0-2.18 6.02c-1.35 4.35-2.3 8.82-3 13.32-.83 5.36-1.31 10.77-1.56 16.18-.04.99 1.5.99 1.54 0 .41-9.08 1.44-18.21 3.88-26.98 1.13-4.06 2.54-8.12 4.56-11.83 2.07-3.8 5.42-6.22 9.18-8.21 4.66-2.47 9.57-4.44 14.57-6.1.94-.31.54-1.8-.41-1.48z"/><path class="cls-7" d="M138.85 146.07c-.53-3.16-1.11-6.32-1.74-9.46-2.04-10.3-4.85-20.42-9.94-29.66-1.06-1.93-2.21-3.8-3.41-5.64a72.857 72.857 0 0 0-4.16-6.15c-1.1-1.46-2.29-2.88-3.54-4.23-.02-.02-.03-.04-.05-.06l-.03-.03c-5.23-5.63-11.71-10.18-19.14-12.24-6.09-1.69-12.35-1.25-18.53-.27-.39.06-.55.33-.55.63-.08 0-.14.01-.14.01s.1.17.26.43c.01.02.03.05.04.07.8 1.32 2.92 4.82 3.2 5.36.34.66.83 2.19.83 2.19s-14.15 2.96-18.31 3.86c-4.16.89-12.21 2.87-12.21 2.87l-2.94-5.98-1.67-1.49-3 1.03-12.19 4.92s-5.37 3.35-6.54 4.26c-1.16.91-4.63 9.09-4.63 9.09l-.49 1.76c-.39-.22-.98-.14-1.15.42-4.62 14.59-6.49 29.97-5.1 45.22.69 7.56 2.11 15.07 4.24 22.36 1.71 5.85 4.2 11.92 9.16 15.77.69.54 1.43 1.02 2.2 1.45.04.02.08.06.11.08.15.09.32.17.51.25 3.22 1.64 6.93 2.29 10.33 1.46 2.11.27 4.05-.96 5.14-2.74a.74.74 0 0 0 .2-.35c.04-.08.1-.16.14-.25 1.19-2.52 1.17-5.5 1.39-8.23.49-5.95.93-11.9 1.6-17.83.67-5.91 1.58-11.8 3.02-17.57.71-2.85 1.54-5.69 2.56-8.44.93-2.5 2.21-4.95 4.44-6.52 2.11-1.48 4.62-2.22 7.08-2.88 3.05-.82 6.11-1.62 9.16-2.43l9.3-2.46c1.53-.4 3.05-.81 4.58-1.21 1.42-.38 2.9-.77 4.38-.6 2.57.28 4.62 2.25 6.33 4.03 1.63 1.7 3.09 3.55 4.41 5.5 2.45 3.64 4.38 7.59 6.24 11.55 1.83 3.89 3.6 7.82 5.87 11.48 2.29 3.69 5.1 7.02 8.56 9.65.87.66 1.77 1.26 2.7 1.83.09.1.21.17.37.2.14.04.28.04.4 0 5.57-.58 9.97-4.72 11.02-10.21.69-3.58.29-7.23-.31-10.79z"/><path class="cls-1" d="M75.7 77.93a25.25 25.25 0 0 1 5.51 9.3c.31.94 1.8.54 1.48-.41a27.131 27.131 0 0 0-5.91-9.98c-.68-.73-1.76.36-1.09 1.09z"/><path class="cls-1" d="M81.5 86.57a434.223 434.223 0 0 0-30.27 6.44c-.96.24-.55 1.73.41 1.48 10.01-2.5 20.1-4.65 30.27-6.44.97-.17.56-1.66-.41-1.48z"/><path class="cls-1" d="M81.96 87.02s-.35-.99-.83-2.19c-.39-.97-3.36-5.27-4.46-6.86.52-.42.4-1.44-.41-1.36-8.19.85-16.34 2.26-24.25 4.58-2.21.65-4.4 1.37-6.56 2.17-.02 0-.02.02-.04.02-.03.01-.05.02-.07.04-.11.04-.21.09-.29.18-.59.65-1.04 1.38-1.35 2.2-.07.18-.01.44.08.59.08.14.24.26.4.32l-.33.59 1.6-.57 1.19-.27a25.22 25.22 0 0 1 3.98 7.49c.3.92 1.74.55 1.49-.36 2.13-.51 8.96-2.13 11.55-2.71 3.08-.69 18.31-3.86 18.31-3.86z"/><path class="cls-7" d="M40.1 105.91c4.25.05 8.21 3.26 9.04 7.45.81 4.1-1.58 8.63-5.42 10.27-4.29 1.83-9.71.16-12.4-3.6-1.41-1.96-2-4.34-1.35-6.7s2.39-4.63 4.37-6.14c2.3-1.75 5.27-2.36 8.04-1.49 2.47.77 4.5 2.73 5.42 5.14.35.92 1.84.52 1.48-.41-.94-2.46-2.75-4.55-5.14-5.68-2.69-1.27-5.85-1.3-8.56-.09-2.61 1.17-4.84 3.49-6.18 6s-1.66 5.4-.56 8.07c2.1 5.07 7.87 7.91 13.2 6.98 5.07-.89 8.76-5.61 8.79-10.7.03-5.75-5.06-10.58-10.73-10.65-.99-.01-.99 1.53 0 1.54zM69.78 97.25c2.1 0 4.04 1.8 3.98 3.94-.03 1.04-.5 2.05-1.23 2.78-.87.86-2.03 1.19-3.23 1.1s-2.4-.65-3.01-1.78c-.57-1.06-.53-2.32-.08-3.41.42-1.01 1.33-2.32 2.5-2.5.58-.08 1.23 0 1.8.09.62.09 1.25.24 1.8.54 1.13.63 1.64 1.87 1.57 3.13-.08 1.35-.92 2.54-1.89 3.42-.73.67.36 1.75 1.09 1.09 1.19-1.08 2.09-2.52 2.3-4.13.19-1.51-.28-3.16-1.42-4.21-1.21-1.11-2.89-1.39-4.47-1.48-.88-.05-1.73.1-2.46.6-.67.46-1.22 1.09-1.67 1.77-.91 1.38-1.29 3.12-.86 4.74s1.63 2.85 3.23 3.37c1.59.52 3.46.42 4.9-.48a5.753 5.753 0 0 0 2.49-3.4c.88-3.38-1.9-6.74-5.35-6.73-.99 0-.99 1.54 0 1.54z"/><path class="cls-5" d="M37.54 126.1c-.04.09.81.66 2.61.86 1.76.16 4.57-.18 7.19-2.24.66-.49 1.26-1.13 1.83-1.84.55-.73 1.02-1.57 1.37-2.49.67-1.85.87-4.02.39-6.18-.46-2.15-1.52-4.32-3.28-6.02-1.75-1.7-4.11-2.83-6.65-3.18-2.54-.36-5.14.19-7.24 1.37-2.1 1.18-3.79 2.95-4.71 5.02-.93 2.08-.99 4.27-.69 6.16.15.95.4 1.85.71 2.68.3.83.72 1.65 1.23 2.31.99 1.36 2.24 2.23 3.36 2.84 1.13.61 2.2.92 3.07 1.1 1.76.34 2.75.12 2.74 0 0-.16-.95-.22-2.54-.76-.79-.28-1.73-.68-2.71-1.32-.96-.64-2-1.49-2.77-2.68-.4-.59-.69-1.24-.93-2-.24-.76-.42-1.57-.53-2.41-.2-1.67-.07-3.52.72-5.16.77-1.64 2.21-3.11 3.98-4.07 1.78-.96 3.9-1.4 6.03-1.11 2.12.29 4.11 1.23 5.55 2.61 1.46 1.37 2.4 3.19 2.83 5.01.45 1.82.34 3.65-.16 5.23a8.739 8.739 0 0 1-2.54 3.8 10.331 10.331 0 0 1-6.27 2.55c-1.66.05-2.58-.25-2.63-.09zM70.5 105.5c-.02.12.38.35 1.19.26.8-.09 1.93-.69 2.74-1.86.41-.59.76-1.25.97-2.13.19-.87.14-1.86-.2-2.79-.34-.93-.94-1.85-1.86-2.52-.92-.67-2.1-.99-3.26-.94-1.16.05-2.27.46-3.15 1.14-.89.68-1.48 1.61-1.8 2.55-.66 1.88-.16 3.83.76 4.95.91 1.15 2.01 1.63 2.76 1.77.76.15 1.19.01 1.2-.11.02-.15-.36-.28-.93-.62-.56-.33-1.33-.9-1.87-1.84-.54-.91-.73-2.24-.2-3.51.26-.63.68-1.21 1.24-1.61.57-.41 1.3-.67 2.06-.7.76-.03 1.49.16 2.05.54.57.38 1 .96 1.27 1.57.27.61.35 1.27.29 1.85-.07.57-.29 1.2-.54 1.68-.5 1-1.2 1.58-1.75 1.86-.56.28-.96.34-.97.49zM107.97 98.78c-.01.13.22.31.73.32.5.02 1.26-.2 1.92-.87.32-.34.62-.79.78-1.37.15-.58.13-1.27-.13-1.89a3.59 3.59 0 0 0-3.43-2.27c-1.66.11-2.82 1.29-3.22 2.52-.21.62-.21 1.3-.06 1.86s.43 1.01.73 1.35c.62.69 1.33.96 1.82 1 .49.05.75-.09.76-.22.04-.28-.88-.56-1.43-1.62-.27-.52-.37-1.16-.09-1.74.26-.6.94-1.14 1.58-1.16.64-.04 1.36.45 1.64 1.01.31.54.22 1.14-.07 1.64-.58 1.02-1.53 1.15-1.54 1.43zM88.5 106.5c0 .12.25.29.76.3.5.01 1.3-.2 2-.86.67-.66 1.35-1.66 1.24-3.14-.18-1.45-1.34-2.79-3.02-3.07-.86-.14-1.7.12-2.34.53-.64.42-1.11.99-1.38 1.62-.29.62-.36 1.33-.25 1.93.12.6.37 1.11.68 1.48.62.76 1.37 1.06 1.87 1.12.52.06.79-.07.8-.2.04-.28-.94-.56-1.49-1.7-.26-.56-.32-1.22.04-1.83.34-.62 1.11-1.1 1.77-.98.71.09 1.37.77 1.49 1.36.14.61-.14 1.43-.48 1.93-.7 1.07-1.72 1.2-1.71 1.5zM102.67 110.96c-.05.12.13.37.63.52.49.14 1.31.14 2.14-.39.41-.26.81-.67 1.07-1.25.25-.57.33-1.25.2-1.91a3.65 3.65 0 0 0-.97-1.86c-.52-.54-1.32-.93-2.12-.98-1.61-.1-3.02.77-3.63 2.03-.31.63-.37 1.33-.26 1.91.1.58.34 1.07.63 1.44.57.76 1.3 1.09 1.79 1.16.51.07.78-.07.79-.19.04-.29-.9-.56-1.37-1.7-.23-.55-.29-1.25.06-1.76.31-.53 1.11-.97 1.85-.9.69.03 1.25.6 1.45 1.26.2.66.03 1.22-.36 1.64-.81.87-1.8.72-1.89.98zM96.22 94.22c.02.13.32.24.86.12.52-.12 1.3-.5 1.86-1.4.56-.89.75-2.31.05-3.61-.35-.65-.93-1.22-1.65-1.57-.71-.36-1.62-.49-2.46-.3-.84.18-1.57.64-2.11 1.25a3.68 3.68 0 0 0-.87 2.13c-.11 1.45.67 2.72 1.58 3.26.9.56 1.77.56 2.29.43.54-.13.75-.37.71-.49-.05-.28-1.18-.13-2.15-1.06-.45-.43-.73-1.16-.6-1.94.07-.39.23-.73.5-1.01s.66-.51 1.07-.6c.8-.2 1.68.23 2.08.85.44.64.48 1.46.28 2.05-.21.61-.62 1.05-.93 1.33-.32.28-.55.44-.52.58z"/></svg>