<?xml version="1.0" encoding="UTF-8"?>
<svg id="Illustration" xmlns="http://www.w3.org/2000/svg" xmlns:xlink="http://www.w3.org/1999/xlink" viewBox="0 0 200 200">
  <defs>
    <style>
      .cls-1 {
        fill: none;
      }

      .cls-2 {
        clip-path: url(#clippath);
      }

      .cls-3 {
        fill: #f96800;
      }

      .cls-4 {
        fill: #f97b09;
      }

      .cls-5 {
        fill: #f76700;
      }

      .cls-6 {
        fill: #fff;
      }

      .cls-7 {
        fill: #ffe4cc;
      }

      .cls-8 {
        fill: #ffa2af;
      }

      .cls-9 {
        fill: #ffc101;
      }

      .cls-10 {
        fill: #ff7800;
      }

      .cls-11 {
        fill: #7e557c;
      }

      .cls-12 {
        fill: #b9d9dd;
      }

      .cls-13 {
        fill: #db5600;
      }

      .cls-14 {
        fill: #c69ada;
      }
    </style>
    <clipPath id="clippath">
      <path class="cls-1" d="m141.96,197.17s1.27.26,1.29-1.5c.02-1.76-2.05-50.41-2.35-56.15-.3-5.74-2.37-41.83-2.67-46.87-.3-5.04-1.41-20.47-1.94-24.62-.53-4.15-.73-9.85-1.17-10.51s-1.04-1.55-1.04-1.55c0,0,.27-.2,2.21-.4,1.94-.2,17.86.1,21.02,0s4.15,0,4.15,0c0,0,1.01-.11,1.25,1.28s1.23,8.61,1.92,14.44c.69,5.83,3.16,28.15,4.35,43.94,1.19,15.78,3.14,43.67,3.99,55.93.85,12.26,1.44,26.02,1.44,26.02h-32.46Z"/>
    </clipPath>
  </defs>
  <path class="cls-5" d="m74.88,57.61c-.16-6.62,1.32-13.24,4.48-19.02,1.62-2.96,3.41-5.35,5.84-7.67,2.24-2.13,4.96-3.97,7.79-5.16,1.27-.53,2.96-1.07,4.46-1.41,1.7-.39,2.78-.54,4.47-.62,1.6-.08,3.19-.02,4.78.17.21.03.02,0-.02,0,.09.01.18.03.27.04.18.03.36.06.54.09.42.07.84.15,1.25.25.77.17,1.53.38,2.28.62.35.11.69.23,1.03.36.2.07.39.15.59.23,0,0,.27.11.12.05-.13-.05.17.08.2.09.72.32,1.42.68,2.1,1.07.68.39,1.34.82,1.98,1.29.08.06.37.28.33.25s.24.2.32.26c.33.27.65.56.97.85,1.17,1.09,2.27,2.25,3.29,3.48.55.67.74.92,1.27,1.66.43.61.85,1.24,1.24,1.89s.79,1.35,1.15,2.05c.18.35.35.7.52,1.06.08.16.15.33.23.5.03.07.24.54.15.33.62,1.47,1.12,3,1.52,4.55.84,3.32,1.12,6.41,1.02,9.93-.03.93-.08,1.86-.17,2.79-.08.96.88,1.79,1.79,1.79,1.04,0,1.7-.82,1.79-1.79.63-7.22-.44-14.56-3.79-21.03-3.04-5.88-7.97-11.43-14.13-14.1s-13.73-3-20.35-.88c-6.89,2.2-12.58,6.9-16.51,12.92-3.96,6.06-6.06,13.3-6.35,20.51-.04.88-.04,1.76-.02,2.63.02.96.8,1.79,1.79,1.79s1.81-.82,1.79-1.79h0Z"/>
  <path class="cls-3" d="m174.76,196.19c-.6-8.3-1.16-16.6-1.72-24.9-.62-9.26-1.25-18.52-1.91-27.78-.69-9.66-1.41-19.31-2.21-28.96-.78-9.46-1.64-18.92-2.62-28.36-.91-8.68-1.92-17.35-3.14-25.99-.14-1.01-.29-2.02-.44-3.03-.14-.92-1.45-.62-1.5.23l-27.09.69c2.71,14.82,7.97,130,8.32,137.7-.74.23-.67,1.51.24,1.51h31.29c.52,0,.77-.42.75-.83.02-.08.04-.17.03-.28Z"/>
  <path class="cls-4" d="m135.63,58.16c8.78,0,17.56,0,26.34,0,1.01,0,1.01-1.57,0-1.57-8.78,0-17.56,0-26.34,0-1.01,0-1.01,1.57,0,1.57h0Z"/>
  <path class="cls-7" d="m142.19,171.44c-.38-9.2-.76-18.4-1.17-27.59-.43-9.58-.9-19.16-1.44-28.74-.53-9.37-1.13-18.73-1.86-28.08-.68-8.67-1.46-17.33-2.46-25.96-.11-.99-.23-1.99-.35-2.98-.05-.44-.4-.69-.75-.73,0-.38-.26-.76-.75-.76h-25.31c.46-6.9-.66-13.87-3.86-20.06-3.04-5.88-7.97-11.43-14.13-14.1-6.39-2.77-13.73-3-20.35-.88-6.89,2.2-12.58,6.9-16.51,12.92-3.96,6.06-6.06,13.3-6.35,20.51-.02.54-.03,1.08-.03,1.62h-30s-.07,0-.11.01c-.3,0-.58.16-.64.56-1.27,8.53-2.3,17.1-3.23,25.67-1.01,9.38-1.88,18.77-2.68,28.17-.82,9.66-1.56,19.32-2.25,28.99-.67,9.34-1.31,18.68-1.94,28.02-.57,8.42-1.13,16.85-1.73,25.27-.07.97-.14,1.94-.21,2.91-.01.15.02.27.07.37.02.37.26.73.75.73h137.57c.53,0,.78-.44.74-.85.02-.08.04-.16.03-.26-.38-8.25-.72-16.5-1.06-24.75Zm-37.57-116.66c-.02.61-.05,1.21-.09,1.82h-54.08c.01-6.28,1.49-12.52,4.49-18,1.62-2.96,3.41-5.35,5.84-7.67,2.24-2.13,4.96-3.97,7.8-5.16,1.27-.53,2.96-1.07,4.46-1.41,1.7-.39,2.78-.54,4.47-.62,1.6-.08,3.19-.02,4.78.17.02,0,.03,0,.05,0,.07,0,.14.02.2.03.18.03.36.06.54.09.42.07.84.15,1.25.25.77.17,1.53.38,2.28.62.35.11.69.23,1.03.36.2.07.39.15.59.23,0,0,.07.03.12.05.06.03.19.08.2.09.72.32,1.42.68,2.1,1.07.68.39,1.34.82,1.98,1.29.07.05.3.22.33.25.03.03.25.2.32.26.33.27.65.56.97.85,1.17,1.09,2.27,2.25,3.29,3.48.55.67.74.92,1.27,1.66.43.61.85,1.24,1.24,1.89.41.67.79,1.35,1.15,2.05.18.35.35.7.52,1.06.08.16.15.33.23.5.02.05.14.32.16.37.61,1.46,1.11,2.97,1.5,4.51.84,3.32,1.12,6.41,1.02,9.93Z"/>
  <path class="cls-10" d="m111.59,125.66h0c-.22-.59-3.3-6.45-9.05-13.8h0c-.14-.18-.24-.39-.26-.62h0c-.59-7.6-1.61-12.66-1.61-12.66-.16-.87-.9-1.52-1.76-1.63h0s-6.06-.81-6.06-.81h0c-.05,0-.11-.01-.16-.01-.71,0-1.29.56-1.3,1.27l-.02,2.11s-.04.08-.08.08c-.02,0-.04,0-.05-.02h0c-3.59-3.31-7.65-6.54-12.15-9.39h0c-.86-.59-1.88-.93-2.99-.94h0s0,0,0,0h0c-1.12-.01-2.14.31-3.01.87h0c-21.09,12.68-32.87,33.56-33.32,34.71h0c-.13.27-.2.57-.21.88-.01.97.64,1.79,1.54,2.03l6.02,1.23c.8.23,1.41.93,1.49,1.78.04,1.07.9,24.87,2.26,31.05h0c.22.89,1.03,1.56,1.99,1.57h.05c3.52-.05,6.74-.07,10.23-.07h0s0,0,0,0h.03c.09,0,.18,0,.27,0h0c.37,0,.68-.3.68-.67,0,0,0-.01,0-.02h0c-.12-2.08-.37-6.83-.55-11.83,0-.13-.01-.28-.02-.41h0c-.02-.44-.25-.82-.6-1.03-1.8-1.1-3.01-3.06-3.1-5.29-.22-8.35-.26-17.99.28-25.53h0c.04-.63.56-1.12,1.2-1.13.67,0,1.22.54,1.22,1.21,0,.03,0,.06,0,.09h0c-.36,5.03-.45,10.97-.41,16.84h0c0,.79.65,1.43,1.44,1.43.79,0,1.43-.65,1.43-1.44h0c-.04-5.91.06-11.89.43-16.93.04-.63.56-1.12,1.2-1.13.67,0,1.22.54,1.22,1.21,0,.03,0,.06,0,.09-.35,5-.45,10.91-.41,16.74h0s0,0,0,0c0,.79.65,1.43,1.44,1.42.79,0,1.43-.65,1.43-1.43h0c-.04-5.88.06-11.83.43-16.85.04-.63.56-1.12,1.2-1.13.67,0,1.22.54,1.22,1.21,0,.03,0,.06,0,.09-.52,7.33-.49,16.61-.29,24.76,0,0,0,.07,0,.08,0,.04,0,.08,0,.12,0,0,0,0,0,0,0,.03,0,.05,0,.08-.03,2.23-1.17,4.18-2.89,5.33-.31.21-.52.54-.55.94,0,0-.16,1.25.32,7.31.23,2.65.4,4.48.48,5.31h0c.03.31.3.56.62.57h0c.19,0,.38,0,.57,0h0s0,0,0,0c0,0,0,0,0,0h0c1.16,0,2.36.02,3.61.04h.23s.23,0,.23,0c1.57.02,3.07.04,4.52.06l3.42.07h0s0,0,0,0c.33,0,.59-.24.65-.56h0c.88-7.25,1.11-11.33,1.11-11.33,0-.37-.27-.65-.64-.71l-4.15-.62h0c-.66-.12-1.04-.53-1.18-1.03-.08-.3-.04-.64-.04-.64,1.97-24.18,10.05-32.25,10.05-32.25.24-.24.39-.33.39-.33.21-.15.47-.24.75-.23.54,0,1,.35,1.18.83,0,0,.06.17.1.58.6,7.62.11,20.56-.44,30.65-.46,8.57-.98,15.29-.98,15.29h0s0,0,0,.01c0,.28.22.5.49.5h0c2.26.06,4.49.14,6.86.22h.05c.96.01,1.78-.63,2.03-1.52h0c1.5-6.15,2.93-29.93,2.99-30.99.1-.85.72-1.53,1.53-1.74l6.05-1.09c.9-.22,1.58-1.02,1.59-1.99,0-.32-.06-.62-.19-.89Z"/>
  <line class="cls-8" x1="184.77" y1="54.38" x2="195.48" y2="42.14"/>
  <g class="cls-2">
    <g>
      <path class="cls-13" d="m138.53,177.44c1.91,3.24,4.04,6.33,6.34,9.3,1.55,2,4.31-.8,2.78-2.78-2.1-2.71-3.99-5.56-5.73-8.51-1.28-2.18-4.68-.2-3.39,1.98h0Z"/>
      <path class="cls-13" d="m168.52,189.84c1.84,3.17,3.68,6.33,5.52,9.5,1.27,2.19,4.67.21,3.39-1.98-1.84-3.17-3.68-6.33-5.52-9.5-1.27-2.19-4.67-.21-3.39,1.98h0Z"/>
      <path class="cls-13" d="m151.73,160.79c2.61,2.58,5.05,5.32,7.28,8.24,1.51,1.98,4.93.03,3.39-1.98-2.44-3.19-5.05-6.21-7.9-9.04-1.8-1.78-4.58.99-2.78,2.78h0Z"/>
      <path class="cls-13" d="m139.93,125.84c1.69,2.65,3.39,5.3,5.08,7.95,1.36,2.13,4.76.16,3.39-1.98-1.69-2.65-3.39-5.3-5.08-7.95-1.36-2.13-4.76-.16-3.39,1.98h0Z"/>
      <path class="cls-13" d="m165.28,141.64c2.23,3.04,4.47,6.08,6.7,9.11,1.48,2.02,4.89.06,3.39-1.98-2.23-3.04-4.47-6.08-6.7-9.11-1.48-2.02-4.89-.06-3.39,1.98h0Z"/>
      <path class="cls-13" d="m155.02,109.58c1.52,2.12,2.89,4.33,4.1,6.65s4.57.26,3.39-1.98-2.58-4.53-4.1-6.65-4.87-.08-3.39,1.98h0Z"/>
      <path class="cls-13" d="m134.59,79.82c1.8,2.49,3.78,4.81,6,6.93,1.83,1.75,4.61-1.03,2.78-2.78-1.97-1.89-3.79-3.92-5.39-6.14-.63-.87-1.7-1.27-2.69-.71-.86.49-1.32,1.83-.71,2.69h0Z"/>
      <path class="cls-13" d="m161.32,81.06c2.13,2.6,3.93,5.42,5.47,8.4,1.16,2.25,4.55.26,3.39-1.98-1.7-3.29-3.74-6.33-6.09-9.2-1.6-1.96-4.37.84-2.78,2.78h0Z"/>
      <path class="cls-13" d="m141.2,56.57c1.84,2.51,3.69,5.01,5.53,7.52,1.48,2.02,4.9.06,3.39-1.98-1.84-2.51-3.69-5.01-5.53-7.52-1.48-2.02-4.9-.06-3.39,1.98h0Z"/>
    </g>
  </g>
  <g>
    <path class="cls-6" d="m158.43,23.13c-.04.05-.09.1-.11.15-.01.04,0,.12.04.15.04.03.15.03.16.01.05-.1.09-.22.11-.33,0-.04-.01-.08-.02-.13-.04.01-.08.02-.11.04-.03.02-.05.06-.08.1Z"/>
    <path class="cls-6" d="m178.28,38.66c-.11-.03-.21-.07-.31-.12-.11-.06-.15-.1-.22-.19-.04-.06-.21-.02-.32-.04-.06-.01-.11-.06-.16-.09.04-.03.08-.06.11-.09.09-.09.17-.18.26-.27-.18-.08-.21-.52-.56-.19-.18.17-.43,0-.57-.18-.1-.13-.1-.34-.35-.27-.02,0-.08-.13-.14-.19-.05-.05-.11-.11-.18-.14-.09-.03-.35-.16-.47-.25-.28-.2-.53-.44-.9-.52-.22-.05-.17-.22-.04-.34-.03-.17-.49.01-.31-.35.01-.02-.11-.12-.18-.17-.02-.01-.11.03-.11.04.05.18-.01.4.22.52.03.02.04.09.05.14-.04-.01-.1-.01-.12-.04-.07-.1-.28.09-.28-.16,0-.06.07-.22-.13-.22-.19,0-.27.11-.32.25-.01.03.1.14.1.14.19-.1.19.14.31.17.14.03.28.09.42.13.03.01.07.02.1.02-.2.32.23.35.28.54.08.34.29.23.44.14.16-.1.19-.05.28.08.2.28.4.62.82.3.01-.01.06-.01.06,0,.01.03.03.1.02.1-.15.05-.09.46-.41.23-.14.1-.37-.21-.45.04-.06.19.21.25.33.36.24.22.63.23.81.56.24-.07.11.21.27.28.19.08.23,0,.31-.1.11-.13-.05-.18-.08-.26-.01-.05.02-.14.06-.16.04-.02.15,0,.17.05.12.18.02.78.48.24,0-.01.05-.01.06,0,.16.15.35.16.54.2.03-.07.07-.14.1-.2Z"/>
    <path class="cls-6" d="m172.91,33.7c-.11.04.15.32-.14.21-.04-.01-.09-.05-.12-.03-.1.06-.19.2-.31.03-.02-.03,0-.12.02-.14.15-.11.31-.22.24-.14-.39.3-.41.47-.56.38-.15-.09-.29-.22-.44-.31-.05-.03-.14,0-.21,0,.02.07.04.14.07.21.03.05.13.11.13.14-.12.41.13.42.42.38.04,0,.08,0,.13,0-.02.06-.02.12-.05.17-.07.13-.16.25-.24.37.12-.03.24-.07.36-.08.07,0,.18.03.23.09.1.1.17.23.26.35.02.03.07.04.11.05.01,0,.03-.01.05-.02-.13-.21.16-.5-.17-.68-.04-.02-.05-.11-.07-.17-.01-.04-.02-.09-.02-.13.04,0,.1-.01.11,0,.08.16.51.03.34.39,0,.01.06.08.09.08.2-.02.35,0,.35.26,0,.01.16.06.21.03.26-.11.47,0,.68.15.26.18-.07.34.02.51.07.05.14.11.21.16.04.03.07.05.11.08.19.13.23-.06.28-.14.08-.13-.03-.22-.15-.19-.2.04-.14-.1-.17-.18,0-.02,0-.04-.01-.06.07.02.15.02.2.06.13.08.25.18.38.28.25-.15.31.14.46.21-.04.07-.07.15-.11.22.05.09.07.21.15.26.15.11.84.21,1.13.21.05,0,.11.07.16.11.04-.05.12-.13.11-.15-.11-.18-.22-.48-.36-.49-.38-.04-.56-.35-.85-.49-.09-.04-.25-.02-.29-.08-.04-.06.03-.19.03-.29,0-.08-.05-.2-.1-.22-.13-.05-.29-.08-.42-.06-.06.01-.13.17-.13.26,0,.11-.01.16-.13.08-.08-.05-.14-.11-.22-.16-.15-.09-.23-.17-.1-.35.13-.19.07-.34-.12-.64-.02-.04-.03-.09-.02-.13.01-.08.07-.17.04-.23-.02-.06-.19-.09-.19-.12,0-.31-.16-.35-.41-.27-.13.04-.26.04-.37-.08-.1-.11-.37.06-.41-.23,0-.03-.31-.01-.43-.08-.18-.1-.5-.04-.52-.37,0-.01-.14-.05-.16-.02-.11.13-.22.26-.31.41-.09.16-.09.32.09.45.16.12.33.24.81.12.31-.06.33.06.3.07Zm.41.94c.01-.06.01-.13.05-.17.12-.1.19.03.27.08.03.02.05.08.11.19-.19-.05-.3-.08-.42-.1Z"/>
    <path class="cls-6" d="m168.54,28.19c-.15-.16-.23.16-.45.03-.2-.11-.08.21-.15.32-.12.18.02.15.12.14.02,0,.05,0,.06.02.04.11.08.23.12.34-.12-.02-.35-.01-.35-.05-.07-.33-.47-.16-.59-.4,0-.02-.21.02-.29.08-.13.11.05.17.08.26.01.03-.01.08-.02.12-.24-.04-.5-.07-.57-.34-.06-.21-.25-.01-.29-.15-.04-.12-.03-.28-.1-.37-.13-.15-.33-.24-.46-.38-.17-.18-.28.24-.44,0-.08.06-.18.1-.23.18-.19.32-.21,0-.29-.08-.09-.09-.09-.28-.29-.21-.02-.07-.09-.16-.06-.2.06-.1.15-.21.25-.27.07-.04.18,0,.27,0,.11.13.11.48.41.19.04-.04.26-.13.26.11.1,0,.23.04.28-.01.11-.09.18-.23.27-.35.08.11.38.15.25.32-.19.25-.06.26.15.32.12.03.22.16.33.23.1.07.09.06.41-.1.08-.04.22-.04.31,0,.27.13.39.14.52,0,.13-.15.09-.24-.13-.37-.28-.18-.55-.4-.82-.59-.08-.06-.19-.08-.28-.11-.01,0-.06.07-.06.1.02.14.12.16.24.15.06,0,.13.03.17.07.05.05.09.13.1.2,0,.02-.12.09-.14.07-.11-.09-.19-.09-.27.03-.17.24-.23.12-.32-.1-.15-.35-.14-.56.13-.76.04-.03.15.02.22,0,.1-.02.28.09.28-.12,0-.25.11-.2.28-.14.11.04.26-.03.29.16-.16-.01-.2.07-.17.21-.31,0-.14.22-.1.3.06.12.16,0,.25,0,.25-.03.46.15.54.37.13.34.39.43.69.48.18.03.23.09.14.25-.02.03-.01.11,0,.12.31.16.2.32.05.5-.03.03-.02.1-.02.16.04,0,.09-.02.13-.01.15.01.39-.35.44.12.06-.04.12-.08.19-.11.06-.03.14-.05.21-.06.01,0,.07.12.05.15-.16.28.07.13.16.15.06.01.15.03.18.07.06.08.15.2.13.27-.02.07-.17.09-.25.14-.03.02-.05.07-.07.1.04.02.09.05.13.06.19.02.24.1.13.25-.04.05-.1.1-.11.16-.03.15-.04.3-.05.45-.16-.06-.27-.18-.48-.14-.25.05-.25,0-.18-.27.03-.13,0-.29-.01-.43-.02-.21-.16-.24-.35-.27-.27-.05-.43-.38-.75-.34,0-.1-.05-.24,0-.31.16-.2.18-.19.16-.55-.02-.05-.04-.11-.08-.15-.03-.03-.09-.01-.14-.02Z"/>
    <path class="cls-6" d="m179.32,38.88c-.07-.13-.12-.27-.21-.38-.21-.22,0-.41,0-.62,0-.03.03-.05.05-.07.11.17.34.07.46.24.06.09.3.18.3.2-.18.46.06.17.18.11.17-.1.34-.21.52-.3.15-.08.39.05.35.2-.05.18-.04.3.08.46.1.12-.08.08-.13.11-.04.04-.07.09-.1.14.05.01.1.03.15.04.26.03.24-.4.48-.3.15.06.24.28.38.41.03.03.14,0,.21,0,.07,0,.15,0,.22.01-.03.39.39.18.51.38l-.39.52c-.13.01-.3.08-.37.03-.14-.12-.28-.29-.31-.46-.04-.27-.15-.31-.37-.25-.05.02-.1.04-.16.05.04.05.09.09.12.14.04.06.06.14.09.2-.07,0-.15.04-.21.02-.19-.06-.35-.18-.54-.26-.15-.06-.36-.14-.19-.37.01-.01-.07-.09-.11-.14-.06.05-.12.09-.17.14-.02.02.02.09.02.13-.01.08.13.19-.08.23-.23.04-.19-.11-.2-.22-.02-.26-.32-.05-.38-.24-.07-.05-.15-.11-.22-.16Z"/>
    <path class="cls-6" d="m161.08,24.08c.03.08.05.17.1.23.14.15.18.29.07.45-.2-.17-.41.16-.62-.04-.15-.14-.3-.21-.27-.5.03-.31-.44-.45-.72-.25-.08.06-.22.18-.03.31.01,0-.01.11-.02.11-.07,0-.16,0-.21-.03-.04-.03-.03-.12-.04-.19-.04-.21-.12-.29-.29-.11-.02.02-.13,0-.17-.03-.03-.03-.04-.11-.02-.16.02-.08.08-.14.1-.22.08-.27.07-.27.29-.13.06.04.11.09.17.12.03.02.1.01.12,0,.03-.05.07-.12.05-.17-.03-.1-.11-.27-.13-.26-.16.02-.22-.03-.24-.18-.14.02-.27.04-.29-.16-.03-.19-.12-.39.07-.54.07-.06.1-.22.24-.1.04.03,0,.14.02.21,0,.06.02.13.06.16.04.03.13.02.16,0,.08-.07.13-.17.2-.25.02-.02.07-.01.11,0,0,0,.01.06.01.06-.18.04.07.28-.17.34-.11.02-.04.22.12.25.06.01.14.08.17.07.37-.26.78,0,1.15-.05.24-.04.25.13.37.21.32.22,0,.21-.07.29-.11.13-.21.28-.31.41-.02-.01-.04-.02-.05-.04-.06-.12.18-.27-.07-.37-.16-.06-.24-.28-.45-.23-.04,0-.1,0-.13.02-.07.05.04.44.14.44.18,0,.18.11.25.23.05.1.16.29.34.13Z"/>
    <path class="cls-6" d="m172.59,31.19c.07.05.15.11.29.42.1.2.15.16.14.13-.04-.12-.1-.23-.15-.34,0-.02-.05-.04-.05-.04-.03.03-.08.07-.07.1,0,.12.02.24.05.36,0,.03.11.03.09-.21.17-.44.15-.42.42-.23.2.15.36.43.68.36.06.16.47.11.28.42,0,.01.05.09.08.09.17.02.34,0,.5.05.16.05.2-.2.36-.08-.09.12-.15.31-.26.33-.18.04-.25.16-.32.28-.12.19-.23.24-.41.05-.02-.02-.13,0-.16.02-.11.12-.21.07-.25-.04-.05-.14.07-.17.19-.19.05,0,.09-.08.13-.12-.06-.02-.13-.03-.19-.06-.19-.09-.12-.19-.04-.3.03-.04.03-.11.04-.17-.05.03-.1.09-.15.09-.07,0-.2-.03-.21-.06-.04-.21-.07-.2-.22-.06-.24.22-.38.18-.69-.1-.08-.07-.19-.15-.28-.14-.18,0-.24-.07-.25-.22l-.24.08c-.02-.1-.07-.2-.06-.29.01-.1.06-.24.13-.27.16-.07.25,0,.32.19.1.26.22.07.31-.04Z"/>
    <path class="cls-6" d="m182.37,40.02c.19.12.19-.1.29-.15.04-.02.13-.02.16,0,.04.03.05.1.04.16,0,.04-.06.07-.07.1-.02.05-.02.11-.03.16.04,0,.09,0,.13-.02.28-.06.49-.3.8-.28.05,0,.1.02.15.03-.03.05-.05.12-.1.14-.29.14-.59.26-.88.4-.14.07-.12.22-.26.3.13.27.09.48.23.74.02.03.12.02.18.03-.02.1-.03.19-.05.29-.06,0-.12.02-.19.02-.05-.04-.1-.09-.16-.12-.07-.03-.2-.07-.21-.04-.06.09-.24.16-.07.31.02.05.04.11.08.15.03.03.09.01.14.02.05.04.13.07.15.12.07.14-.07.1-.13.11-.06.02-.16,0-.19.03-.22.27-.21-.06-.29-.12-.07-.05-.14-.1-.21-.16.05-.07.1-.14.15-.21.06-.09.06-.13-.08-.14-.07,0-.14-.06-.2-.11-.01-.01.04-.11.08-.15.38-.27.4-.28.05-.67-.14-.16-.13-.16.05-.21.1-.03.14-.25.25-.27.21-.06.22-.11.07-.26-.02-.02.06-.14.1-.21Z"/>
    <path class="cls-6" d="m164.26,27.1c.09-.14-.06-.25-.11-.21-.18.14-.24.06-.32-.11-.06-.13-.15-.26-.26-.35-.31-.28-.34-.27-.39.14-.01.11.02.26-.12.23-.1-.02-.2-.14-.26-.24-.05-.08-.06-.17.1-.21.13-.04.34-.18.08-.37,0,0,.05-.07.08-.1.06-.05.13-.09.19-.15.09-.09.17-.19.25-.28.04.11.07.32.11.32.25,0,.2.19.25.33.02.05.1.14.12.14.2-.06.19.06.23.19.07.27.27.33.46.14.03-.03.05-.08.08-.1.11-.07.08-.31.32-.23.13.04,0,.31.22.22.03.09.12.21.09.26-.12.22-.25.44-.52.5-.15-.22,0-.23.16-.26.04,0,.07-.09.1-.13-.07-.01-.14-.04-.2-.04-.27,0-.37.34-.66.31Z"/>
    <path class="cls-6" d="m162.63,27.43c-.12.2-.29.23-.5.12-.07-.04-.16-.07-.24-.08-.25-.03-.29-.05-.12-.25.15-.18-.04-.26-.06-.38-.03-.2-.16-.07-.24-.07-.28-.02-.32-.03-.18-.27.14-.24-.1-.33-.17-.33-.3.03-.44-.19-.63-.33-.11-.08-.17-.23-.26-.35-.01-.02-.02-.06-.01-.06.03-.01.08-.03.1-.02.08.05.15.1.22.16.24.18.16,0,.16-.13,0-.05.07-.1.11-.16.03.06.06.11.08.17.06.23.13.27.32.2.05-.02.09-.08.15-.1.03,0,.1.03.11.06.01.05.02.12,0,.17-.07.11-.37.01-.26.25.03.08.22.1.33.16.07.04.14.08.18.14.14.22.26.47.58.24,0,0,.16.15.15.15-.17.2.02.27.14.35.2.12.15.23.03.35Z"/>
    <path class="cls-6" d="m169.77,31.13c-.07.05-.12.1-.13.1-.06-.04-.12-.08-.17-.13-.02-.03-.03-.08-.04-.12-.26.28-.32,0-.45-.06-.11-.05-.15.04-.22.11-.05.05-.11.06-.17.09,0-.06,0-.13.02-.19.11-.27.08-.46-.13-.55-.11-.05-.23-.04-.29-.2-.05-.13-.21-.18-.33-.24-.04-.02-.22.1-.09-.09.04-.06.08-.28.22-.15.13.11.26.23.49,0,.02-.03.14-.01.16.03.24.55.59.98,1.08,1.27.04.02.04.09.06.14Z"/>
    <path class="cls-6" d="m178.81,35.82c.32-.37.36-.37.73-.11.04.03.07.05.11.08.23.18.24.27.04.44-.18.15-.17.14.06.29.05.03.11.16.09.19-.06.11-.15.2-.09.35.01.03.03.07.04.1.03-.02.08-.03.1-.06.09-.15.18-.23.35-.07.12.1.11.18.01.26-.08.06-.18.09-.27.13-.2.08-.32,0-.46-.27.11-.19-.09-.21-.18-.28-.02-.02-.13.05-.19.09-.05.04-.08.1-.12.15-.1-.13-.26-.25-.29-.39-.02-.11.1-.26.18-.37.16-.22.1-.39-.12-.53Z"/>
    <path class="cls-6" d="m183.03,41.64s.02-.04.04-.05c.12-.05.33.2.36-.06.02-.15-.15-.24-.33-.24-.07,0-.17-.05-.22-.11-.04-.04-.05-.17-.02-.2.12-.1.26-.19.4-.26.03-.01.14.08.16.15.02.06-.02.14-.03.21.05-.04.12-.06.14-.11.05-.11.3-.19.07-.37-.01-.01.01-.08.02-.12.14.1.39.17.35.34-.12.53.15.82.55,1.13.22.17-.19.05-.16.18-.05-.04-.1-.08-.16-.12-.09-.06-.18-.11-.27-.16,0,.09,0,.19,0,.28,0,.03-.01.06-.02.1-.04-.01-.08-.02-.12-.04-.04-.02-.09-.05-.1-.08-.06-.23-.22-.31-.44-.33-.07,0-.14-.1-.21-.15Z"/>
    <path class="cls-6" d="m177.49,35.47c.1.19.18.39.35.08.01-.02.15,0,.21.03.19.12.36.34.6.12,0,0,.07.04.1.08.05.06-.11.45-.18.49-.18.11-.21-.17-.3-.14-.11.02-.18.16-.29.2-.08.02-.21-.01-.28-.07-.09-.08-.03-.39-.15-.3-.21.15-.27,0-.38-.07-.13-.07-.27-.24-.39-.23-.25,0-.19-.2-.17-.25.04-.11.05-.29.3-.21.22.07.37.25.58.27Z"/>
    <path class="cls-6" d="m177.23,34.11c-.08.03-.13.07-.19.08-.15.03-.31.03-.46.06-.03,0-.05.06-.08.1.04.03.08.08.11.08.13,0,.23.05.2.18-.04.13-.14.12-.26.04-.03-.02-.13.1-.2.09-.06,0-.12-.1-.17-.16-.05.06-.1.16-.17.18-.09.02-.19-.03-.29-.03-.12,0-.16,0-.1-.13.07-.14.36-.25.07-.46.04-.03.07-.07.11-.08.12-.03-.04-.27.17-.21-.03-.08-.08-.16-.09-.24,0-.08-.14-.21.06-.23.12-.02.17-.02.21.13.04.17.14.32.22.48.08-.29.35.08.48-.12.09-.13.19.02.27.08.04.03.05.1.08.16Z"/>
    <path class="cls-6" d="m162.99,25.63c-.06.04-.18.08-.22.17-.04.08.03.21.02.31,0,.03-.15.08-.19.05-.1-.05-.07-.26-.3-.22-.11.02-.25-.16-.39-.2-.23-.06-.1-.24-.16-.35-.1-.18-.19.33-.3-.01-.02-.06-.11-.11-.18-.13-.07-.02-.16.29-.22-.03-.03-.16,0-.24.18-.26.23-.02.44-.08.6.23.08.15.37.23.58.28.14.04.32,0,.26-.24,0-.04.18-.11.21-.09.12.07.21.36.11.48Z"/>
    <path class="cls-6" d="m182.83,38.26s-.02.04-.04.05c-.07.07-.14.14-.22.22-.04-.06-.07-.12-.11-.18-.08.29-.35-.09-.48.12-.09.14-.19-.02-.27-.07-.04-.03-.07-.12-.05-.15.02-.04.09-.09.15-.09.1,0,.2.04.3.04.02,0,.06-.08.06-.12,0-.05-.02-.14-.06-.15-.09-.04-.21-.07-.3-.06-.18.02-.31-.05-.37-.2-.07-.19-.02-.38.04-.57.01-.03.1-.03.16-.04.02.07.06.15.05.21-.03.1-.01.2.08.11.22-.21.3,0,.39.12.08.12.11.37.18.38.16.03.31,0,.31.22.06-.02.12-.04.17-.07.05-.03.09-.08.14-.11,0,.06,0,.13-.03.19s-.07.1-.11.16Z"/>
    <path class="cls-6" d="m181.66,41.44c-.14.19-.26.39-.57.22-.04-.02-.13.08-.2.1-.05,0-.12-.04-.17-.06.12-.28-.11-.38-.28-.54-.13-.12.1-.63.3-.69.01,0,.06.04.06.07,0,.08.04.2,0,.24-.27.26.18.25.18.42,0,0,.13.02.14.04.04.23.13.12.18.03.03-.06,0-.17.02-.24.02-.06.09-.16.15,0,.03.07.09.15.15.17.09.03.24-.05.13.14-.02.04-.05.07-.08.1Z"/>
    <path class="cls-6" d="m175.52,33.13c-.07-.01.01-.19-.14-.13-.02,0-.08-.11-.13-.17-.05-.06-.1-.07.02-.12.14-.06.24-.1.4,0,.1.07.25.05.37.09.03,0,.05.08.07.12-.04,0-.1.04-.13.03-.16-.12-.2-.1-.2.1,0,.16-.14.18-.25.07Z"/>
    <path class="cls-6" d="m184.55,40.53c.06-.11.08-.16.1-.18.03-.03.08-.08.12-.07.14.03.28.09.42.13.26.06.25.06.26-.22,0-.05.05-.15.06-.14.12.04.24.08.34.14.02.01.02.16,0,.17-.34.1-.06.31-.06.47,0,.09.11.2-.05.26-.17.06-.41.04-.43-.09-.05-.3-.3-.25-.46-.34-.09-.05-.2-.07-.3-.1Z"/>
    <path class="cls-6" d="m180.94,36.7c.06-.05.13-.16.18-.15.09.03.17.11.26.18.01,0,.01.06,0,.06-.07.03-.2.04-.22.09-.1.23.11.07.15.11.05.06.07.15.1.22-.08.08-.11.25-.29.11-.08-.06-.17-.19-.26-.04-.03.04.01.15.05.2.1.14-.04.09-.08.14-.15.19-.34.04-.51.05-.1,0-.19-.1-.1-.22.1-.14.2-.27.3-.41.21.07.31-.12.47-.18,0,0-.03-.1-.05-.15Z"/>
    <path class="cls-6" d="m170.14,31.63c-.11-.08-.22-.15-.32-.25-.02-.02,0-.15.04-.16.19-.08.45-.02.54-.28.11.06.29.1.31.18.05.2.13.22.32.23.13,0,.24.1,0,.19-.12.05.09.13.14.2.05.07.11.13.17.19-.09-.01-.19,0-.28-.04-.11-.04-.31-.11-.32-.17-.04-.35-.35-.26-.54-.37-.02-.01-.07,0-.11.01.02.04.03.08.06.11.09.07.18.13.27.21.02.01,0,.07,0,.1,0,0-.05.02-.06,0-.08-.05-.15-.11-.22-.16Z"/>
    <path class="cls-6" d="m163.62,23.54c.07.05.15.08.17.14.04.08.05.17.04.26,0,.02-.11.02-.17.04-.12.06-.29-.21-.39.04,0,.01-.07.02-.09.01-.08-.08-.13-.21-.22-.24-.07-.02-.18.1-.27.1-.09,0-.2-.07-.29-.12-.03-.02-.06-.09-.05-.11.03-.05.1-.12.13-.11.12.03.22.12.33-.04.04-.05.22,0,.15-.17,0,0,.06-.06.08-.05.19.08.39.17.56.25Z"/>
    <path class="cls-6" d="m180.46,35.92c.16.16.39.39.61.62.02.02.01.09,0,.12-.04.04-.13.09-.15.08-.18-.17-.3-.18-.46.04-.09.12-.22-.07-.31-.14,0,0,.06-.13.11-.18.04-.04.12-.03.16-.07.02-.02,0-.09,0-.14-.41.06-.39-.26-.44-.5,0-.03,0-.07,0-.11.04.01.09.01.12.03.09.06.18.13.35.26Z"/>
    <path class="cls-6" d="m160.62,26.2c-.28-.07-.48-.11-.68-.17-.03,0-.07-.09-.07-.14,0-.04.04-.11.07-.12.12-.03.26.04.35-.14.02-.05.15-.01.22.02.16.09.3.24.49.22.01,0,.04.1.05.16,0,.02-.04.07-.05.07-.17-.18-.29.17-.38.08Z"/>
    <path class="cls-6" d="m182.8,41.95c.06,0,.12-.01.19-.02.16.18.44.21.52.49,0,.03.17.02.26.04.08.02.15.05.22.08-.04.09-.07.21-.14.26-.07.05-.19.02-.29.02.1.23-.2.08-.21.21,0,.02-.07.04-.1.05,0-.04-.03-.08-.02-.1.03-.1.08-.19.12-.29.02-.04.05-.07.07-.11,0,0-.04-.04-.05-.04-.29.05-.28-.41-.57-.35-.08.02-.16.05-.23.07-.05,0-.11,0-.14-.02-.04-.03-.05-.1-.08-.15.15-.05.3-.1.45-.15Z"/>
    <path class="cls-6" d="m170.2,32.81c.25-.07.49.12.45.26-.07.28.02.26.23.28.09,0,.18.15.27.24-.1.06-.2.12-.3.18-.08-.04-.17-.12-.22-.11-.29.1-.48-.05-.51-.29-.03-.23-.36-.27-.28-.52.16.12.32.24.49.35,0,0,.08-.05.08-.09.02-.15-.07-.24-.19-.31Z"/>
    <path class="cls-6" d="m180.17,40.48c-.06.09-.13.17-.19.26-.04-.03-.08-.05-.11-.09-.11-.13-.11-.13-.2.05-.02.04-.04.08-.08.1-.09.07-.08.27-.28.16-.17-.09-.23-.23-.2-.38.03-.14.13-.27.32-.25-.04-.26.05-.2.22-.1.1.06.25.04.37.03.13-.01.26-.06.39-.09l-.23.31Z"/>
    <path class="cls-6" d="m178.08,39.74s.04-.05.07-.08c.1,0,.17-.02.14-.15-.01-.06.05-.07.05-.07.04.15.15-.16.17.03.01.08.19.14.06.25.02.02.03.05.05.06.04.01.11-.02.06.07-.02.04-.06.08-.09.11-.02.02-.06.04-.08.03-.15-.08-.29-.16-.43-.24Z"/>
    <path class="cls-6" d="m185.2,41.72s.03,0,.03-.03c0-.05-.02-.11-.05-.16-.02-.03-.1-.05-.11-.03-.09.09-.16.19-.25.28-.01.01-.11-.02-.11-.04-.03-.13-.1-.28-.06-.38.04-.1.1-.32.29-.22.15.07.34-.1.47.18.1.21.06.29-.04.43-.03.04.03.13.01.19-.02.05-.11.11-.14.1-.09-.05-.17-.13-.25-.2.04-.03.09-.05.2-.11Z"/>
    <path class="cls-6" d="m177.07,36.79c.24.12.21-.16.33-.21.11-.04.25-.12.33-.08.16.08.17.42.04.53-.05.04-.1.08-.13.13-.12.26-.28.2-.45.03-.05-.05-.11-.08-.16-.12.02-.1.03-.19.05-.29Z"/>
    <path class="cls-6" d="m184.01,39.41c-.11,0-.22.02-.26-.02-.14-.15-.27-.32-.37-.5-.09-.15-.11-.01-.17,0-.07.01-.18,0-.21-.03-.05-.06-.05-.17-.05-.25,0-.02.1-.03.16-.04.02,0,.04-.01.07,0,.18.02.42,0,.52.09.15.15.22.4.31.6.02.04,0,.1.01.17Z"/>
    <path class="cls-6" d="m172.01,32.5c-.11,0-.19.01-.28,0-.15-.02-.14.02-.06.12.26.34-.15.25-.24.33-.19.17-.09-.09-.14-.14-.1-.11-.18-.23-.26-.35-.04-.05-.07-.1-.11-.15.06.01.11.03.17.03.11,0,.22.02.31-.02.11-.05.13-.34.33-.13.08.08.06.25.24.17,0,.03.02.06.04.14Z"/>
    <path class="cls-6" d="m179.51,37.16c-.09.2-.18.41-.29.6-.02.03-.14,0-.21-.01.02-.23-.19-.16-.29-.21-.08-.04-.17-.07-.25-.1.09-.08.08-.32.33-.18.15.09.17-.08.24-.14.06,0,.14.02.16,0,.13-.18.22-.02.32.04Z"/>
    <path class="cls-6" d="m166.1,26s-.02-.1,0-.12c.04-.05.1-.08.16-.1.14-.04.12.08.12.14,0,.12-.02.24-.03.36,0,.19-.17.19-.28.17-.2-.04-.39-.12-.58-.21-.06-.03-.12-.14-.11-.19.01-.07.09-.15.16-.18.04-.01.13.07.18.12.12.14.27.15.37,0Z"/>
    <path class="cls-6" d="m159.19,25.51c-.09-.12-.21-.27-.31-.42-.02-.04,0-.13.04-.16.03-.03.15-.01.16,0,.07.25.23.27.4.14.16-.12.22-.04.26.11.08.29.02.37-.17.47-.19.1-.22-.1-.38-.13Z"/>
    <path class="cls-6" d="m160.05,21.93c.11-.05.23-.12.34-.15.05-.01.13.03.12.07-.03.2.02.33.16.4.04.02.03.11.03.18,0,.05-.03.12-.06.15-.03.03-.09.04-.12.02-.07-.04-.14-.1-.2-.15,0-.28-.05-.39-.19-.46-.02-.01-.04-.03-.07-.05Z"/>
    <path class="cls-6" d="m185.8,40.41c-.07-.01-.2-.02-.2-.03,0-.24-.3-.16-.33-.26-.06-.18-.19-.28-.32-.39-.04-.03-.05-.09-.07-.14.04,0,.09-.01.13-.02.2,0,.41.24.61.03.04.05.12.13.11.14-.16.19-.15.36.09.5.01,0,0,.07-.02.17Z"/>
    <path class="cls-6" d="m178.66,38.39c.29.19.27.54.42.8-.09.04-.18.08-.26.13-.1-.11-.34.1-.36-.17.28-.1-.35-.45.12-.52.04,0,.06-.15.08-.24Z"/>
    <path class="cls-6" d="m177.85,38.02c-.05-.04-.13-.07-.16-.12-.03-.06-.04-.15-.04-.22,0-.03.08-.07.12-.07.19,0,.38,0,.56.03.06,0,.14.04.16.08.02.04-.02.12-.04.17-.03.06-.08.1-.11.16-.1.18-.21.27-.4.06-.03-.03-.07-.05-.11-.08Z"/>
    <path class="cls-6" d="m176.01,35.58c0-.1-.04-.2,0-.27.06-.14.43.1.35-.25.06.02.15.02.17.05.11.17.22.35.3.53.06.13-.07.1-.13.12-.12.04-.11-.05-.16-.11-.04-.05-.18-.01-.27-.02-.07,0-.14-.03-.25-.05Z"/>
    <path class="cls-6" d="m162.36,26.71c-.19.18-.34.21-.45-.08-.31.01-.3-.22-.31-.41,0-.06.06-.18.11-.18.12,0,.21.06.14.2-.06.13-.08.18.1.1.13-.06.42.08.46.2.01.05-.03.11-.04.16Z"/>
    <path class="cls-6" d="m171.46,30.2c.09.04.15.18.28.09.05-.04.06-.15.17-.03.17.19.5.33.74.31.21-.01.14.02.13.18-.01.19-.1.31-.19.44-.02-.12,0-.31-.08-.36-.11-.07-.23-.13-.35-.2-.16-.09-.36-.09-.52-.17-.09-.04-.28-.09-.17-.28Z"/>
    <path class="cls-6" d="m171.16,30.09s-.06-.04-.06-.06c0-.04.03-.08.05-.11.1-.11.14-.2-.03-.31-.05-.03-.07-.13-.11-.2l.28-.1s.04.09.04.12c-.01.06-.12.13.05.15.07,0,.18.04.21.09.06.12.16.3.11.37-.08.13-.25.18-.41.02-.02-.02-.08,0-.14.01Z"/>
    <path class="cls-6" d="m159.29,25.41s.1-.07.15-.06c.05.01.09.08.12.14.06.13.12.27.16.4,0,.01-.07.08-.09.07-.09-.04-.21-.16-.16.07.02.08.03.17.03.26,0,.03-.04.08-.08.09-.03.01-.1,0-.12-.02-.08-.12-.16-.24-.22-.37-.01-.02.02-.1.04-.11.25-.04.17-.16.08-.3-.02-.03.05-.11.09-.18Z"/>
    <path class="cls-6" d="m169.2,31.74c-.08.2-.3.12-.44.19-.2.1-.1-.31-.3-.16,0-.04-.04-.1-.02-.13.13-.19.31-.27.55-.24.23.03.31.17.21.34Z"/>
    <path class="cls-6" d="m175.08,34.74c-.05-.09-.09-.18-.15-.27-.06-.1-.22-.19-.05-.31.12-.08.42,0,.47.11.06.13.06.3.14.41.15.2-.04.16-.1.15-.1,0-.2-.06-.31-.1Z"/>
    <path class="cls-6" d="m166.56,29.12c.03.05.08.12.13.19-.06.03-.17.07-.17.09.05.18.14.34.17.52.03.19-.14.18-.26.18-.17,0-.05-.09-.05-.15,0-.04-.03-.11-.04-.11-.08,0-.22.02-.12-.1.13-.15.11-.3.08-.47-.01-.09,0-.18,0-.27.08.04.15.08.25.14Z"/>
    <path class="cls-6" d="m171.25,30.68c.1.07.36.6.34.71,0,.02-.02.04-.04.05-.03.01-.07.02-.11.03-.03-.32-.37-.35-.53-.56-.06-.08-.06-.2-.09-.3.11,0,.21-.01.32,0,.04,0,.07.05.11.08Z"/>
    <path class="cls-6" d="m161.77,27.53c-.14-.03-.33-.04-.46-.13-.12-.08-.11-.25,0-.38.06-.07.41-.08.51,0,.11.09.11.33-.05.51Z"/>
    <path class="cls-6" d="m162.75,24.36s-.1.05-.16.06c-.19.03-.38.06-.58.07-.08,0-.16-.03-.24-.04.01-.07,0-.16.05-.21.04-.06.04-.17.22-.09.17.08.41,0,.62,0,.03,0,.08.05.09.08.01.03,0,.08-.01.14Z"/>
    <path class="cls-6" d="m167.86,30.58s.1.11.13.2c.03.1.25.17.09.31-.11.1-.38.08-.45-.06-.08-.16-.09-.35-.12-.53,0-.03.1-.09.14-.08.06,0,.11.07.22.15Z"/>
    <path class="cls-6" d="m160.69,26.44s.08.05.11.08c.03.03.04.07.06.11-.06-.01-.11-.03-.17-.03-.04,0-.08.03-.12.04.01.02.02.04.03.05.07.08.14.16.21.24-.1-.05-.21-.09-.31-.15-.1-.07-.17-.12-.27,0-.02.03-.14-.02-.21-.04-.04-.01-.07-.05-.11-.08.03-.04.05-.09.08-.1.11-.05.26-.06.33-.14.15-.19.25-.07.37.02Z"/>
    <path class="cls-6" d="m164.27,28.56c-.1,0-.16.01-.21,0-.12-.04-.05-.33-.29-.21,0-.09,0-.27,0-.27.23-.01.21-.15.19-.32,0-.05.07-.1.11-.15.06.06.14.12.17.19.05.12.08.26-.14.23.04.07.1.13.12.2.03.1.03.2.05.33Z"/>
    <path class="cls-6" d="m184.07,40.56c-.28-.17-.04-.51-.26-.69,0,0,.03-.08.03-.08.21.09.43.18.63.28.03.01.06.09.04.11-.03.05-.11.12-.13.11-.38-.21-.17.1-.19.21,0,.03,0,.07-.01.11-.04-.01-.08-.02-.12-.03Z"/>
    <path class="cls-6" d="m167.93,31.66s.03.13,0,.21c-.03.09-.43.15-.47.08-.07-.12-.15-.27-.13-.38.03-.16.32-.12.6.1Z"/>
    <path class="cls-6" d="m159.83,24.93c-.2-.1-.08-.2,0-.31.1-.14.18-.04.27.02.15.09.09.43.4.32-.02.07-.01.16-.05.2-.04.05-.13.05-.2.07-.01-.26-.29-.17-.4-.3Z"/>
    <path class="cls-6" d="m169.65,33.03c-.07.1-.42.24-.49.2-.18-.09-.25-.29-.13-.49.06-.12.15-.24.22.03.02.06.22.07.32.12.04.02.06.09.09.14Z"/>
    <path class="cls-6" d="m158.67,24.44c.09.07.18.13.26.2.02.02.02.1.02.1-.13.02-.26.05-.39.04-.06,0-.12-.08-.18-.13-.01-.01-.01-.04-.01-.06.01-.16-.41-.18-.18-.38.16-.14.28.13.42.19.02,0,.04.03.05.04Z"/>
    <path class="cls-6" d="m165.46,25.23s.08.07.14.13c0,0-.04.07-.04.07-.4-.23-.13.26-.32.29-.06.01-.1.09-.19,0-.08-.08-.09-.09.02-.16.15-.08.08-.22-.02-.33-.05-.06-.24-.08-.11-.2.05-.04.2,0,.3.03.06.02.11.07.21.15Z"/>
    <path class="cls-6" d="m172.32,31.95c.08.14.18.26.21.39.01.07-.11.16-.17.24-.1-.08-.2-.16-.3-.25.09-.09.11-.17-.02-.26-.06-.05-.1-.13-.15-.19.08.02.16.05.24.06.06.01.12,0,.18,0Z"/>
    <path class="cls-6" d="m163.04,27.07c.09.15.4.06.19.3-.06.06-.03.2-.06.29-.02.05-.09.1-.14.1-.05,0-.12-.06-.14-.11-.04-.15-.07-.3-.08-.45,0-.06.03-.16.07-.17.06-.01.14.03.16.03Z"/>
    <path class="cls-6" d="m166.4,30.27c.03.11.03.2.08.26.14.16.26.32.04.48-.09.06-.33-.18-.38-.4-.02-.08.03-.19.08-.27.02-.04.1-.04.18-.07Z"/>
    <path class="cls-6" d="m169.54,32.32c.44-.09.47-.07.58.32.02.06.05.11.08.17-.05.01-.11.03-.16.04-.07,0-.14,0-.21,0-.07-.05-.14-.1-.21-.16-.03-.03-.05-.07-.07-.1.05,0,.09-.01.14,0,.04,0,.09.04.11.03.05-.03.07-.09.11-.13-.05-.02-.09-.03-.14-.05-.08-.04-.15-.08-.22-.11Z"/>
    <path class="cls-6" d="m167.58,29.28s0,.09,0,.12c-.08.21-.16.41-.24.62-.01.02-.09.05-.11.03-.05-.03-.09-.08-.13-.13.22-.12.05-.33.09-.49.03-.11.05-.13.16-.1.07.02.15-.03.24-.05Z"/>
    <path class="cls-6" d="m183.91,41.4c-.05-.09-.09-.13-.08-.16.08-.26.39-.27.55-.45,0,0,.16.11.25.17-.06.03-.12.09-.18.09-.2,0-.16.27-.35.27-.06,0-.12.05-.18.08Z"/>
    <path class="cls-6" d="m164.47,25.64c.1.09.28.12.14.34-.15.24-.32-.06-.45.05-.09-.13-.09-.25,0-.39.11-.17.2-.1.31,0Z"/>
    <path class="cls-6" d="m183.31,39.29c.11.14.04.42-.1.47-.06.02-.19.14-.29-.08-.15-.33-.19-.31.15-.37.09-.01.18-.02.25-.03Z"/>
    <path class="cls-6" d="m184.35,39.51c-.15-.08-.21-.17-.08-.34.14-.17.21-.03.32.03.16.09.23.18.09.35-.14.17-.22.03-.33-.04Z"/>
    <path class="cls-6" d="m181.52,40.52s-.08-.12-.06-.14c.1-.09.22-.16.34-.23.02-.01.08.01.12.03.11.05.12.26.02.42-.09.15-.12.14-.42-.08Z"/>
    <path class="cls-6" d="m167.23,30.37c.02.27.05.47.04.66,0,.05-.12.1-.18.14-.04-.07-.12-.13-.13-.2,0-.16,0-.32.04-.47,0-.04.11-.07.22-.13Z"/>
    <path class="cls-6" d="m158.69,25.24c-.04.06-.06.09-.07.09-.22-.01-.44-.03-.66-.05,0-.04-.01-.1,0-.12.06-.05.16-.07.2-.13.09-.13.16-.17.28-.03.08.09.17.17.24.24Z"/>
    <path class="cls-6" d="m162.72,27.85c-.12.07-.24.16-.37.18-.07.01-.18-.1-.25-.17-.01-.01.06-.16.11-.17.09-.03.16-.03.12-.15,0-.02.05-.07.08-.07.15.03.1.33.33.25,0,.04,0,.08-.01.12Z"/>
    <path class="cls-6" d="m161.72,22.33c-.08.07-.28-.02-.2.18,0,0-.09.05-.11.04-.15-.08-.07-.17-.02-.26-.07-.04-.14-.08-.21-.12.03-.05.06-.13.1-.13.09-.01.23.06.28.02.24-.21.16.05.18.13.02.05-.02.11-.03.15Z"/>
    <path class="cls-6" d="m165.96,29.82c-.04.13-.08.26-.12.39-.07-.04-.15-.11-.22-.11-.12,0-.25,0-.24-.13.02-.11.05-.31.28-.22.09.04.2.04.3.06Z"/>
    <path class="cls-6" d="m163.98,24.98s-.09.05-.11.04c-.05-.03-.12-.09-.12-.14,0-.12.03-.24.02-.37,0-.09-.03-.17.1-.16.08,0,.17.02.24.05.02,0,0,.11,0,.16-.04.14-.09.27-.13.4Z"/>
    <path class="cls-6" d="m163.8,28.55c-.11.13-.13.26-.33.16-.26-.14-.03-.3-.09-.43,0-.01.04-.07.05-.06.14.04.28.08.4.15.02.01-.03.16-.04.19Z"/>
    <path class="cls-6" d="m165.76,28.26c-.1.06-.18.14-.27.15-.12.02-.25-.03-.37-.04,0-.06,0-.13.03-.16.11-.09.22-.17.35-.24.04-.02.15-.01.16.01.05.09.08.2.1.28Z"/>
    <path class="cls-6" d="m170.51,32.04c.03.06.07.13.1.19-.13.03-.26.09-.39.09-.06,0-.13-.1-.17-.17-.03-.06-.05-.15-.03-.22,0-.02.12-.04.19-.02.1.03.19.08.32.13Z"/>
    <path class="cls-6" d="m162.67,24.79s.08.05.11.12c.02.03-.05.15-.06.15-.17-.03-.33-.08-.49-.12.02-.07.04-.15.07-.22.09-.18.2-.07.37.06Z"/>
    <path class="cls-6" d="m178.34,34.89c-.16-.04-.33-.06-.5-.12-.06-.02-.11-.12-.14-.19,0-.02.06-.1.07-.09.21.07.41.16.61.24,0,0-.02.07-.04.16Z"/>
    <path class="cls-6" d="m165.63,29.42c-.15.02-.29.07-.42.04-.05,0-.14-.23-.1-.26.08-.09.22-.13.33-.19.05.12.11.24.19.41Z"/>
    <path class="cls-6" d="m181.28,40.57s-.1.01-.12,0c-.08-.12-.19-.24-.23-.37-.04-.14.1-.15.21-.17.11-.02.15,0,.16.12,0,.11.04.22.05.33,0,.03-.05.07-.07.1Z"/>
    <path class="cls-6" d="m169.68,31.77c.12.09.18.13.23.17.02.02.01.06.01.09,0,0-.04.01-.06,0-.22-.05-.44-.09-.66-.15-.03,0-.05-.06-.07-.1.03-.02.06-.03.08-.05.2-.17.38-.14.47.03Z"/>
    <path class="cls-6" d="m173.4,32.77c-.13.05-.2.09-.28.11-.1.02-.17.23-.31.05-.07-.09.04-.28.2-.31.08-.02.17,0,.25.02.04,0,.07.06.14.13Z"/>
    <path class="cls-6" d="m169.44,30.2c-.14.17-.18.14-.22-.01-.01-.04-.17-.05-.26-.09-.02-.01-.02-.11,0-.16,0-.04.06-.1.07-.1.14.04.28.07.4.15.04.03,0,.17,0,.21Z"/>
    <path class="cls-6" d="m183.06,42.04c.06,0,.12-.01.19-.02.14.09.25.17.09.34-.09.1-.14.1-.26.03-.2-.12-.13-.23-.02-.35Z"/>
    <path class="cls-6" d="m161.59,24.02c.02-.15.04-.29.08-.42,0-.03.18-.03.18-.02.04.17.07.34.1.51-.1-.02-.2-.03-.35-.06Z"/>
    <path class="cls-6" d="m182.32,43.17s-.08.05-.08.04c-.16-.15-.32-.3-.48-.45,0,0,.04-.06.07-.09.03-.03.08-.04.11-.06.08.18.21.32.38.42.02.01,0,.1,0,.14Z"/>
    <path class="cls-6" d="m163.26,27.36c0-.07,0-.15.02-.17.09-.07.19-.12.3-.18.06-.03.12-.06.18-.09.01.06.02.13.03.19.06.28-.32.08-.33.29-.06-.01-.12-.02-.2-.04Z"/>
    <path class="cls-6" d="m168.47,29.82c-.11-.08-.17-.12-.22-.17-.03-.03-.04-.07-.06-.11.04,0,.08-.02.12-.02.09-.01.18-.04.26-.03.19.03.08.2.13.3.02.04,0,.1-.01.15-.09-.05-.19-.1-.22-.12Z"/>
    <path class="cls-6" d="m161.85,23.05s-.07-.13-.06-.14c.06-.04.13-.09.2-.08.1.01.21.06.29.12.06.05.08.15.12.23l-.28.05c.03-.23-.16-.12-.27-.18Z"/>
    <path class="cls-6" d="m179.41,39.78c-.4-.02.02-.29-.14-.37.05,0,.11,0,.14.03.07.07.14.16.19.24.05.07.07.16.11.24-.13.01-.29.08-.29-.14Z"/>
    <path class="cls-6" d="m162.42,24.09s-.09-.05-.1-.08c-.02-.07-.03-.15-.02-.21.02-.05.08-.09.12-.13.03.06.06.13.1.19.03.06.08.15.11.15.14,0,.13.04.08.14-.05.1-.11.11-.19.02-.03-.03-.07-.05-.11-.08Z"/>
    <path class="cls-6" d="m182.64,38.63c.02.24.04.37.05.51-.07,0-.16.03-.21,0-.08-.05-.22-.1-.12-.24.06-.07.13-.13.28-.26Z"/>
    <path class="cls-6" d="m164.01,29.14c.07.05.14.1.21.16.02.02.02.06.01.09-.01.04-.06.1-.07.1-.1-.03-.21-.05-.27-.12-.09-.1-.14-.24-.2-.37.04,0,.08-.02.11,0,.07.04.14.1.21.15Z"/>
    <path class="cls-6" d="m178.87,35.05c.03.06.06.11.05.12-.04.07-.11.13-.14.2-.03.06-.03.13-.04.19-.07-.05-.17-.08-.21-.14-.03-.05-.01-.17.03-.2.08-.08.2-.12.31-.18Z"/>
    <path class="cls-6" d="m175.64,36.21c-.11.02-.22.03-.32.05,0-.16-.3-.31-.03-.48.17.1.3.23.36.43Z"/>
    <path class="cls-6" d="m179.57,41.19c0-.06,0-.13.02-.16.03-.04.1-.06.16-.07.12-.01.23,0,.35,0-.02.05-.04.11-.07.16-.11.18-.27.13-.46.08Z"/>
    <path class="cls-6" d="m181.68,42.09c.11.08.2.12.21.16,0,.04-.06.13-.1.14-.13.03-.41-.17-.43-.3,0-.04.09-.12.11-.12.1.03.19.09.22.11Z"/>
    <path class="cls-6" d="m168.19,32.38s0-.05.02-.08c.05-.06.11-.11.17-.17,0,.27.32.09.37.27,0,.03,0,.08-.03.11-.02.03-.07.07-.1.06-.13-.05-.26-.11-.43-.19Z"/>
    <path class="cls-6" d="m163.13,24.46c-.12-.1-.33-.2.01-.25.04,0,.07-.09.11-.14.08,0,.16.01.24.02-.03.09-.05.19-.11.25-.06.06-.17.08-.25.12Z"/>
    <path class="cls-6" d="m168.54,28.19s.11,0,.14.02c.04.03.05.1.08.15-.12.07-.12.42-.36.2-.16-.14.1-.24.14-.36Z"/>
    <path class="cls-6" d="m183.8,43.37c-.02-.11-.04-.21-.03-.21.13-.03.26-.06.39-.07,0,0,.05.14.04.15-.12.05-.25.09-.41.14Z"/>
    <path class="cls-6" d="m165.22,29.75c-.18,0-.31.02-.44.02-.02,0-.04-.1-.06-.15.13-.03.26-.06.39-.07.02,0,.05.09.11.2Z"/>
    <path class="cls-6" d="m163.52,25.25c-.08-.02-.17-.03-.24-.06-.1-.05-.18-.11-.27-.17-.01,0,0-.04-.01-.06.16,0,.32-.02.47,0,.01,0,.02.12.05.31Z"/>
    <path class="cls-6" d="m163.36,24.72c-.14,0-.25.03-.34,0-.15-.06-.09-.17,0-.25.05-.05.13-.06.19-.09.05.11.1.22.16.35Z"/>
    <path class="cls-6" d="m164.2,25.21c-.04-.07-.06-.11-.08-.15.04,0,.09-.03.1-.01.15.17.21-.05.32-.05.05,0,.14.07.14.1-.01.08-.06.21-.1.21-.14-.01-.28-.06-.39-.09Z"/>
    <path class="cls-6" d="m178.45,38.47c-.02-.12-.03-.2-.04-.28.12.01.24.02.36.04,0,0,.02.14,0,.15-.1.05-.21.07-.32.1Z"/>
    <path class="cls-6" d="m179.32,38.88c.07.05.15.11.22.16-.08.1-.15.21-.23.31-.07-.05-.15-.11-.22-.16.08-.1.15-.21.23-.31Z"/>
    <path class="cls-6" d="m184.83,42.82c-.12,0-.25.04-.28,0-.06-.08-.06-.19-.09-.29.12.02.24.03.36.06.02,0,0,.12,0,.23Z"/>
    <path class="cls-6" d="m180.45,35.99s-.07-.08-.11-.12c.13.01.26.03.39.04-.02.05-.03.1-.05.15-.04.13-.14-.02-.23-.07Z"/>
    <path class="cls-6" d="m158.37,23.74c.12,0,.23,0,.34.02.02,0,.05.14.05.14-.11.05-.22.08-.33.12-.01-.08-.03-.17-.05-.28Z"/>
    <path class="cls-6" d="m182.85,42.84s0,.1-.03.15c-.09.14-.18.04-.25-.03-.05-.05-.1-.15-.08-.19.11-.18.2,0,.35.07Z"/>
    <path class="cls-6" d="m162.78,28.54c-.04-.13-.06-.22-.08-.3.07,0,.16-.02.21,0,.08.05.23.11.11.24-.04.04-.13.04-.24.06Z"/>
    <path class="cls-6" d="m175.26,33.99c-.05-.05-.17-.12.05-.16.08-.01.14-.14.22-.2.02-.01.07,0,.1.02,0,0,.02.05,0,.06-.05.07-.15.14-.14.2.04.26-.05.24-.23.08Z"/>
    <path class="cls-6" d="m177.5,39.55c-.04-.07-.08-.13-.13-.2.1,0,.25-.05.3,0,.08.07.09.21.13.33-.09-.04-.19-.08-.3-.12Z"/>
    <path class="cls-6" d="m164.75,29.1s0,.11-.03.15c-.09.14-.18.04-.25-.03-.05-.05-.1-.15-.08-.19.11-.19.2,0,.36.07Z"/>
    <path class="cls-6" d="m166.02,27.13c-.08-.12-.16-.25-.24-.37-.01-.02.01-.06.03-.09,0,0,.04,0,.06,0,.15.07.29.3.25.43,0,.02-.06.01-.1.02Z"/>
    <path class="cls-6" d="m176.98,37.16c-.1.09-.12.28-.3.14-.03-.03-.05-.14-.04-.15.11-.05.22-.08.33-.11,0,.05,0,.09,0,.12Z"/>
    <path class="cls-6" d="m179.99,38s-.07.02-.08,0c-.05-.03-.13-.07-.13-.11,0-.12.02-.23.03-.35,0,0,.06,0,.06,0,.04.15.08.3.12.46Z"/>
    <path class="cls-6" d="m164.06,27.6c-.13-.4-.12-.44.2-.5-.04.07-.07.14-.1.22-.04.09-.06.19-.1.28Z"/>
    <path class="cls-6" d="m165.99,28.88c-.08.09-.17.18-.25.26,0-.13-.01-.25,0-.38,0-.06.07-.1.11-.15.05.09.09.18.14.26Z"/>
    <path class="cls-6" d="m180.87,39.98c-.09.12-.13.22-.21.27-.04.03-.14-.03-.21-.05-.02,0-.03-.02-.05-.04.08-.06.15-.12.23-.17.04-.02.11,0,.24-.02Z"/>
    <path class="cls-6" d="m162.32,22.74c-.11,0-.18.03-.22,0-.14-.08-.09-.17-.01-.25.04-.04.09-.07.14-.11.03.11.06.22.09.36Z"/>
    <path class="cls-6" d="m164.99,28.73c-.12,0-.2,0-.28,0,0-.05-.02-.15,0-.16.09-.04.19-.06.29-.09,0,.07,0,.13,0,.25Z"/>
    <path class="cls-6" d="m178.91,39.69c-.08.03-.12.06-.15.05-.05-.03-.13-.1-.12-.12.03-.09.09-.17.15-.26,0,0,.09.03.09.05.02.1.02.19.03.28Z"/>
    <path class="cls-6" d="m180.37,41.41s.06.02.1.02c.14,0,.13.06.07.13-.03.03-.1.04-.16.04-.04,0-.08-.04-.1-.08-.03-.06-.09-.16-.06-.2.13-.17.14-.02.16.08Z"/>
    <path class="cls-6" d="m169.52,32.32c-.08.19-.26.18-.38.02-.03-.04-.02-.13,0-.16.07-.11.12-.07.15.05,0,.03.08.04.13.06.03.01.07.02.1.03Z"/>
    <path class="cls-6" d="m178.96,40.37c-.03.08-.04.17-.09.24-.03.04-.1.06-.14.1,0-.12,0-.24.01-.35,0-.04.09-.06.14-.09.03.04.05.08.08.11Z"/>
    <path class="cls-6" d="m171.21,34.11c-.22-.04-.33-.06-.45-.09,0,0,0-.11,0-.16.08-.19.16-.02.22.02.06.04.1.1.22.23Z"/>
    <path class="cls-6" d="m177.38,34.81c.02.15.05.29.07.43,0,0-.06.03-.09.03-.02,0-.05-.02-.05-.04-.02-.13-.03-.26-.04-.39,0-.01.07-.03.11-.04Z"/>
    <path class="cls-6" d="m182.73,43.41c.11.08.22.16.32.24-.08.15-.17.21-.35.07-.18-.14-.04-.21.02-.31Z"/>
    <path class="cls-6" d="m174.99,33.44s-.11-.09-.16-.16c-.01-.02,0-.08.03-.11.03-.03.1-.07.12-.06.11.07.22.14.31.23.02.02,0,.11-.02.16-.01.03-.07.05-.1.05-.06-.02-.11-.06-.19-.11Z"/>
  </g>
  <g>
    <path class="cls-6" d="m172.95,98.33c-35.23-9.1-93.26-14.84-96.62-22.19-2.67-5.82,3.33-22.31,5.36-28.13,1.54-4.42,3.41-2.74,4.63-2.74-5.71,0-1.33,10.24-3.3,22.4-.72,4.46,5.33.48,9.38,3.12,17.55,11.45,79.45,11.61,80.55,27.54Z"/>
    <path class="cls-6" d="m110.84,86.17l-.24.02c.05-.19.13-.1.24-.02Z"/>
    <path class="cls-6" d="m126.99,89.75c.24-.05.12.17.15.2-.2-.03.11-.16-.15-.2Z"/>
    <path class="cls-6" d="m135.86,90.84c-.15.05.03-.26.02-.3,0,0-.02.3-.02.3Z"/>
  </g>
  <path class="cls-12" d="m181.66,97.68l-99.42-21.6c-2.43-.54-3.96-2.94-3.42-5.37l11.64-51.17c.54-2.43,2.94-3.96,5.37-3.42l97.38,21.51c2.43.54,3.96,2.94,3.42,5.37l-9.6,51.25c-.54,2.43-2.94,3.96-5.37,3.42Z"/>
  <circle class="cls-14" cx="136.76" cy="61.98" r="30.73" transform="translate(-2.55 117.98) rotate(-46.28)"/>
  <circle class="cls-11" cx="136.76" cy="61.98" r="22.3" transform="translate(-4.46 112.97) rotate(-44.23)"/>
  <rect class="cls-8" x="99.85" y="14.82" width="17.88" height="9.89" rx="2.53" ry="2.53" transform="translate(6.83 -23) rotate(12.46)"/>
  <rect class="cls-8" x="174.97" y="85.77" width="5.52" height="5.52" rx="1.41" ry="1.41" transform="translate(23.28 -36.26) rotate(12.46)"/>
  <rect class="cls-8" x="165.47" y="83.68" width="5.52" height="5.52" rx="1.41" ry="1.41" transform="translate(22.61 -34.26) rotate(12.46)"/>
  <path class="cls-9" d="m147.36,25.2c-1.66-6.23-1.26-13,1.14-18.98.71-1.77,2.08-3.75,3.97-3.49,1.13.16,2,1.16,2.33,2.26s.21,2.27.03,3.4c-.97,6.15-3.68,12.01-7.74,16.72"/>
  <path class="cls-9" d="m139.47,21.47c-3.85-1.39-7.14-4.24-9.07-7.84-.52-.98-.96-2.05-.89-3.16s.75-2.24,1.82-2.52c1.74-.46,3.19,1.36,4,2.98,1.59,3.18,2.83,6.53,3.68,9.97"/>
  <path class="cls-9" d="m156.65,25.46c4.07-.41,7.96-2.37,10.71-5.39.74-.82,1.43-1.76,1.63-2.84s-.18-2.35-1.15-2.89c-1.58-.87-3.42.54-4.6,1.91-2.32,2.69-4.33,5.64-6,8.78"/>
  <path class="cls-6" d="m143.2,51.58c-.02.55.96.98,2.02,1.88.55.43,1.1,1.04,1.65,1.74.51.74,1.01,1.61,1.39,2.58.36.99.56,1.96.66,2.86.05.89.05,1.71-.08,2.4-.21,1.38-.65,2.35-.27,2.75.29.34,1.58-.03,2.69-1.76.56-.85.93-2.02,1.07-3.35.09-1.32-.09-2.78-.61-4.21-.55-1.41-1.39-2.63-2.32-3.56-.98-.9-2.03-1.54-3.01-1.81-1.98-.56-3.19.01-3.18.46Z"/>
</svg>