<svg id="Illustration" xmlns="http://www.w3.org/2000/svg" viewBox="0 0 200 200"><defs><style>.cls-2{fill:#f6c243}.cls-3{fill:#ff8000}.cls-4{fill:#a08675}.cls-6{fill:#d6e8ea}.cls-8{fill:#5b3d5b}</style></defs><g id="Layer_3-2"><path class="cls-4" d="m71.01 149.22.38-19.26s-9.18-8.4-11.24-11.76c-2.06-3.36-5.55-13.58-6.24-18.98-.68-5.4-2.22-28.22-1.36-30.58.86-2.36 5.66-21.89 6.96-24.05 1.3-2.16 5.07-7.21 5.59-7.77.52-.56 24.05-2.83 33-1.72 8.94 1.12 18.83 3.07 21.64 4.56 2.8 1.49 3.28 3.48 3.2 6.06-.08 2.58-1.01 5.47-1.33 9.22-.32 3.76.87 14.81 1.05 16.16.18 1.34.6 5.12.97 4.51.37-.6 3.9-7.8 6.12-8.38 2.22-.58 4.98-.26 5.97 1.14s2.9 5.23 1.23 9.9-3.72 12.77-5.45 13.05c-1.73.28-2.88 1.46-4.35.95-1.48-.52-2.24-1.36-2.24-1.36s1.11 34.17 1.14 34.61 1.32 21.42 1.32 21.42-14.98 4.97-19.94 5.03c-6.46.09-29.23-1.45-29.23-1.45l-7.16-1.33Z"/><path d="M186.35 168.11c-1.06-1-2.21-1.83-3.42-2.58-1.8-1.3-3.64-2.54-5.56-3.66-3.17-1.83-6.52-3.36-9.91-4.74-.64-.26-1.28-.5-1.92-.76-.04-.02-.08-.04-.13-.06-.01 0-.03 0-.05-.01-7.35-2.93-14.82-5.59-22.3-8.12-4.74-1.6-9.49-3.14-14.28-4.62-1.13-.35-2.39.41-2.7 1.53-.11.4-.09.79.01 1.16a121.878 121.878 0 0 1-42.89 2.77c-4.29-.48-8.55-1.23-12.76-2.17-.84-.19-1.71.09-2.25.7-14.97 4.29-29.94 8.68-44.23 14.96-3.47 1.52-6.86 3.19-10.17 5.03-.18.08-.35.19-.51.33-.04.03-.08.07-.12.11l-.04.04c-.04.04-.08.09-.12.14-.03.04-.06.07-.09.11-4.74 5.43-6.32 13.53-3.36 20.2.84 1.89 2.28 3.34 4.27 4 1.92.63 4.09.48 6.09.5l13.26.16c17.86.21 35.72.43 53.58.65 17.8.21 35.6.43 53.4.64 8.9.11 17.8.21 26.7.32 4.4.05 8.8.13 13.2.16 2.01.01 4.15-.13 5.9-1.23 1.58-1 2.6-2.5 3.29-4.22.63-1.57.87-3.26 1.07-4.92.23-1.9.43-3.82.4-5.74-.06-4.06-1.36-7.84-4.35-10.67Z" style="fill:#c1dade"/></g><g id="Layer_7"><path d="M186.65 168.16c-1.06-1-2.21-1.83-3.42-2.58-1.8-1.3-3.64-2.54-5.56-3.66-3.17-1.83-6.52-3.36-9.91-4.74-.64-.26-1.28-.5-1.92-.76-.04-.02-.08-.04-.13-.06-.01 0-.03 0-.05-.01-1.46-.58-2.94-1.15-4.42-1.72-1.75.17-3.52.25-5.3.28l-.06 5.72c-.08 7.69-12.02 7.69-11.94 0l.07-6.08c-1.85-.09-3.69-.17-5.5-.21-5.3-.11-6.94-5.84-4.93-9.31-1.5-.48-2.99-.96-4.49-1.42-1.13-.35-2.39.41-2.7 1.53-.11.4-.09.79.01 1.16a121.878 121.878 0 0 1-42.89 2.77c-1.43-.16-2.86-.36-4.29-.58-.08.18-.17.35-.25.52 1.24.48 2.48.97 3.72 1.43 3.04 1.13 5.09 4 4.17 7.35-.8 2.92-4.32 5.3-7.35 4.17-1.87-.7-3.73-1.41-5.59-2.16-.33.75-.67 1.5-1 2.24-.11.25-.89 2.05-.63 1.44-1.26 2.98-3.9 5.12-7.35 4.17-2.82-.77-5.42-4.37-4.17-7.35.72-1.72 1.46-3.43 2.22-5.14-1.62-.73-3.24-1.46-4.84-2.22-.83-.39-1.48-1.01-1.95-1.75-10.83 3.25-21.56 6.81-31.93 11.36-1.75.77-3.48 1.57-5.19 2.42l.36 2.22c.52 3.19-.79 6.42-4.17 7.35-1.69.46-3.76.03-5.28-1.05-2.02 4.74-2.24 10.24-.13 15.02.84 1.89 2.28 3.34 4.27 4 1.92.63 4.09.48 6.09.5l3.04.04c.12-2.88 2.04-5.64 5.75-5.55l5.64.12.06-5.69c.08-7.69 12.02-7.69 11.94 0l-.07 6.17c1.42.06 2.82.04 4.13-.14 3.2-.45 6.4.74 7.35 4.17.12.43.17.88.18 1.34 9.6.11 19.21.23 28.81.35l25.28.3c-1.33-.77-2.39-2.06-2.95-3.61-.5-1.34-.97-2.7-1.45-4.06-1.58.54-3.17 1.07-4.76 1.58-7.35 2.34-10.47-9.19-3.17-11.51 1.41-.45 2.81-.92 4.2-1.39-.55-1.78-1.09-3.58-1.61-5.37-2.16-7.4 9.37-10.54 11.51-3.17.43 1.48.88 2.97 1.33 4.45 1.63-.64 3.26-1.29 4.87-1.96 3-1.24 6.57 1.36 7.35 4.17.93 3.39-1.19 6.11-4.17 7.35-1.45.6-2.91 1.19-4.37 1.76.58 1.67 1.17 3.34 1.78 5 .96 2.62-.67 5.57-2.99 6.86l22.55.27 14.89.18c-3.76-3.91-.57-12.05 5.68-9.95 1.75.59 3.55.98 5.36 1.28l1.14-6.49c.56-3.19 4.46-4.96 7.35-4.17 3.32.91 4.73 4.17 4.17 7.35-.29 1.65-.58 3.31-.87 4.95 1.53.31 3.04.71 4.52 1.26 2.08.78 3.7 2.38 4.22 4.38 1.22-.97 2.05-2.28 2.64-3.75.63-1.57.87-3.26 1.07-4.92.23-1.9.43-3.82.4-5.74-.06-4.06-1.36-7.84-4.35-10.67v-.02Z" style="fill:none"/><path class="cls-6" d="M120.87 187.33c-.61-1.66-1.2-3.32-1.78-5 1.46-.58 2.92-1.16 4.37-1.76 2.98-1.24 5.1-3.96 4.17-7.35-.77-2.81-4.35-5.41-7.35-4.17-1.61.67-3.24 1.33-4.87 1.96-.45-1.48-.9-2.97-1.33-4.45-2.14-7.36-13.67-4.23-11.51 3.17.52 1.79 1.06 3.58 1.61 5.37-1.4.47-2.8.94-4.2 1.39-7.29 2.33-4.17 13.86 3.17 11.51 1.59-.51 3.18-1.04 4.76-1.58.47 1.36.95 2.71 1.45 4.06.57 1.55 1.62 2.84 2.95 3.61 1.85.03 3.71.04 5.57.07 2.33-1.28 3.95-4.24 2.99-6.86ZM182.67 188.86c-1.48-.56-2.99-.96-4.52-1.26.29-1.65.58-3.31.87-4.95.56-3.17-.85-6.43-4.17-7.35-2.88-.79-6.78.97-7.35 4.17l-1.14 6.49c-1.81-.3-3.6-.69-5.36-1.28-6.25-2.09-9.44 6.04-5.68 9.95 3.94.05 7.87.09 11.81.14 4.4.05 8.8.13 13.2.16 2.01.01 4.15-.13 5.9-1.23.23-.14.44-.3.65-.46-.52-2-2.14-3.6-4.22-4.38ZM138.49 154.35c1.82.04 3.65.12 5.5.21l-.07 6.08c-.08 7.69 11.86 7.69 11.94 0l.06-5.72c1.78-.03 3.55-.11 5.3-.28-5.91-2.26-11.9-4.37-17.88-6.4-3.25-1.1-6.52-2.16-9.78-3.2-2.02 3.48-.38 9.21 4.93 9.31ZM58.14 152.95c1.61.76 3.22 1.5 4.84 2.22-.75 1.71-1.49 3.42-2.22 5.14-1.26 2.97 1.35 6.57 4.17 7.35 3.45.95 6.08-1.19 7.35-4.17-.26.62.52-1.18.63-1.44.33-.75.67-1.5 1-2.24 1.85.74 3.71 1.45 5.59 2.15 3.02 1.12 6.54-1.26 7.35-4.17.92-3.34-1.14-6.21-4.17-7.35-1.24-.46-2.48-.95-3.72-1.43.08-.18.17-.35.25-.52-2.84-.43-5.67-.97-8.48-1.6-.84-.19-1.71.09-2.25.7-4.1 1.18-8.21 2.36-12.3 3.59.48.74 1.12 1.36 1.95 1.75ZM50.71 187.96c-1.31.19-2.71.19-4.13.14l.07-6.17c.08-7.69-11.86-7.69-11.94 0l-.06 5.69-5.64-.12c-3.72-.08-5.63 2.68-5.75 5.55l10.22.13 24.76.3c0-.46-.06-.92-.18-1.34-.94-3.44-4.14-4.62-7.35-4.17ZM15.26 174.54c3.39-.93 4.69-4.15 4.17-7.35l-.36-2.22c-1.68.83-3.34 1.7-4.98 2.61-.18.08-.35.19-.51.33-.04.03-.08.07-.12.11l-.04.04c-.04.04-.08.09-.12.14-.03.04-.06.07-.09.11a19.802 19.802 0 0 0-3.23 5.19c1.52 1.08 3.59 1.51 5.28 1.05Z"/></g><g id="Layer_6"><path class="cls-8" d="M63.8 76.15c1.19 0 2.19-1.01 2.19-2.19s-1.01-2.19-2.19-2.19-2.19 1.01-2.19 2.19 1.01 2.19 2.19 2.19ZM99.33 75.38c1.19 0 2.19-1.01 2.19-2.19S100.51 71 99.33 71s-2.19 1.01-2.19 2.19 1.01 2.19 2.19 2.19ZM72.16 82.25c-.36 1.58-.99 3.04-1.96 4.27-1.19 1.52-2.77 2.7-3.72 4.42-1.02 1.84-1.33 4.1-.25 5.98 1.08 1.88 3.2 2.77 5.3 2.22.22-.06.43-.14.66-.19.36-.08-.28-.08.23-.02-.48-.06-.03-.01 0 .03l-.16-.08c.12.06.24.12.36.19s.23.15.35.23c-.29-.21.08.07.15.13.31.26.62.54.92.8 1.49 1.26 3.2 2.12 5.22 1.94 1.01-.09 1.97-.36 2.84-.88.33-.19.63-.43.95-.64.38-.25.43-.36.83-.27 1.67.4 3.47.81 5.32.43 2.05-.43 3.74-1.87 4.38-3.88.68-2.13-.08-4.25-1.83-5.55-.95-.71-2.45-.16-3 .79-.65 1.12-.16 2.29.79 3-.41-.3 0 .02-.03.03l-.13-.14.09.16c.32-.04-.4-.21-.04 0 .16.09-.01.28 0-.02v.38c.03-.42.02-.11-.02 0-.04.13-.07.25-.12.38.18-.42-.11.13-.14.17.26-.37-.31.21-.11.07-.13.09-.28.17-.41.23.1-.05.28-.07-.13.04-.68.18-.85.19-1.67.13-.4-.03.25.05-.14-.02a7.87 7.87 0 0 1-.47-.1c-.36-.09-.71-.19-1.06-.28-.96-.22-1.95-.31-2.9-.01-.77.24-1.38.68-2.04 1.12-.57.38-.97.52-1.44.52-.36 0-.77-.11-1.19-.37-.38-.24-.66-.52-1.19-.97-1.15-.99-2.39-1.87-3.97-1.94-.75-.03-1.61.16-2.32.44.07-.03.21-.05.26 0-.03-.03-.43-.11-.06 0-.03 0-.38-.2-.08-.04l-.15-.16c.09.13.09.14.01 0-.19-.3-.21-.43-.12-.84.13-.56.38-1.02.71-1.46 1.1-1.48 2.56-2.63 3.61-4.17 1.05-1.54 1.71-3.17 2.11-4.9.26-1.16-.36-2.38-1.53-2.7-1.11-.3-2.43.37-2.7 1.53Z"/><path d="M82.65 115.22c.14-.39-.08.12.03-.1.08-.14.14-.29.21-.43.14-.26.31-.49.46-.74.16-.28-.31.35.07-.09l.26-.29c.22-.24.46-.45.7-.67.3-.26-.11.05.09-.07.11-.06.21-.14.32-.21.28-.18.57-.31.85-.47s-.45.15.1-.04c.12-.04.25-.09.36-.13.31-.09.62-.16.94-.22-.21.04-.21.02 0 0 .16 0 .33-.02.5-.02.3 0 .59.02.89.04-.45-.04 0 .01.1.03.16.03.32.07.48.11.13.04.25.08.38.11-.01 0 .54.19.3.09-.25-.09.23.11.28.13.15.08.3.15.43.24.26.15.51.31.74.49-.25-.19-.03 0 .09.09.13.11.25.23.36.34.09.09.18.19.27.29.42.46-.22-.33.14.18.67.93 1.94 1.47 3 .79.92-.6 1.5-2 .79-3-2.23-3.12-5.91-4.79-9.73-4.2-3.57.55-6.45 3.22-7.67 6.55-.4 1.08.44 2.45 1.53 2.7 1.24.28 2.28-.38 2.7-1.53Z" style="fill:#705e55"/><path class="cls-8" d="M139.79 72.68c-.36-3.4-2.25-6.64-5.57-7.86-.7-.26-1.43-.37-2.16-.37.85-4.39 1.06-8.91.57-13.35 0-.09-.03-.17-.05-.25.68-1.7 1.24-3.57 1.08-5.42-.1-1.11-.38-2.19-.99-3.14-.3-.47-.69-.88-1.02-1.32.01.01-.15-.22-.18-.28-.02-.04-.05-.08-.06-.13.02-.04.04-.09.05-.14.07-.25.14-.48.23-.73.17-.5.31-.99.38-1.52.15-1.08 0-2.12-.43-3.12-.59-1.37-1.59-2.47-2.73-3.39 1.16-3.31-.22-7.36-3.27-9.18v-.11c-.03-.57-.11-1.17-.3-1.72-.36-1.11-.97-2.1-1.78-2.93-1.38-1.42-3.2-2.15-5.1-2.19a5.753 5.753 0 0 0-5.51-2.68c-1.48.16-2.7.76-3.87 1.64-.2.15-.4.3-.61.44-.03.02-.05.03-.08.05-1.38-1.96-3.16-4.07-5.79-4.02-2.03.04-3.84 1.28-5.24 2.8l-.02-.02c-.41-.45-.85-.85-1.35-1.19-1.03-.71-2.28-1.04-3.52-1.11-1.55-.09-3.07.37-4.32 1.22-1.2-1.03-2.63-1.75-4.29-1.57-1.25.13-2.26.69-3.24 1.46-.34.27-.67.55-.99.83-.02-.02-.04-.05-.07-.07-.47-.43-.99-.81-1.56-1.09-1.25-.63-2.63-.9-4.02-.72-1.86.24-3.46 1.22-4.55 2.65-1.92-1.12-4.11-1.63-6.26-.52-1.21.62-2.16 1.77-2.46 3.11-.03.14-.05.28-.07.42-.2-.12-.4-.24-.61-.34-.66-.32-1.34-.53-2.08-.53-1.56 0-2.92.94-3.79 2.19-1.49 2.16-.91 4.63.08 6.84-1.54 1.15-2.38 3.08-2.15 5.08.16 1.33.66 2.6 1.41 3.7.14.21.3.43.45.63 0 .01 0 .02.02.03-.29.51-.33 1.49-.39 2.01-.29 2.57.02 5.27.09 7.85l.22 7.57c-.23.76-.45 1.52-.65 2.28-1.01 3.95-1.59 8.01-2.07 12.06-.48 4.05-.74 8.06-.82 12.1-.15 8.14.51 16.28 1.91 24.29.68 3.86 1.52 7.69 3.08 11.3 1.33 3.1 3.26 5.9 5.53 8.4 5.01 5.51 11.56 9.39 17.95 13.09.27.16.58.25.88.27 3.93 2.07 8.44 2.13 12.66.69 4.85-1.66 9.61-3.66 14.37-5.57 1.1-.44 1.87-1.46 1.53-2.7-.29-1.04-1.6-1.98-2.7-1.53-4.49 1.81-9 3.61-13.55 5.28-2 .74-3.87 1.28-5.97 1.18-1.8-.09-3.63-.72-5.26-1.77-.27-.18-.58-.26-.89-.29-5.02-2.92-9.95-5.93-14.07-9.85-2.31-2.2-4.03-4.29-5.55-7.05-1.68-3.05-2.57-6.44-3.26-9.84-1.52-7.52-2.25-15.19-2.29-22.85-.04-7.67.54-15.35 2.03-22.85.32-1.62.71-3.24 1.17-4.82.23-.34.37-.75.36-1.19.59-1.85 1.3-3.65 2.17-5.36 1.69-3.35 3.78-6.42 6.29-9.16 11.74-2.74 23.93-1.92 35.79-.42 2.94.37 5.88.79 8.82 1.22 1.26.18 2.53.36 3.76.67.58.14 1.16.31 1.72.52.36.13.83.35 1.36.68.06.04.44.31.45.3.22.19.44.39.64.6.35.37.52.67.81 1.24.03.06.05.09.05.1 0 .01 0 .02.02.04.06.15.11.3.16.46.09.27.16.55.23.82.15.68.16.84.19 1.61.09 2.85-.82 5.57-1.29 8.35-.6 3.6-.3 7.11.18 10.7.48 3.59 1 7.41 1.5 11.11.16 1.18 1.67 1.82 2.7 1.53.01 0 .02 0 .03-.01.65-.08 1.25-.43 1.63-1.04 1.09-1.73 2.13-3.49 3.14-5.27.49-.19.9-.55 1.16-1.03.5-.28.9-.74 1.08-1.32.05-.02.09-.04.13-.06l.48-.14c.03 0 .1-.02.15-.03.05 0 .1-.01.15-.01h.53c0 .02.41.09.52.13.03 0 .11.05.16.07.07.04.15.07.22.11.07.04.44.3.43.28.18.15.35.32.51.5.05.06.11.12.16.19 0 .02.16.24.18.27.52.8.84 1.66.91 2.56.23 2.71-.72 5.4-1.68 7.91s-2.12 4.83-3.53 7.04c-.38.6-.55.85-1.01 1.31-.09.09-.58.51-.48.43-.13.09-.27.17-.41.25l-.16.08-.31.09c-.04.01-.06.02-.08.03h-.44s-.02 0-.05-.02c-.08-.01-.15-.04-.22-.06-.05-.02-.11-.05-.17-.08l-.06-.06c-.01-.02-.03-.04-.05-.07-.61-1.01-1.97-1.4-3-.79-.95.56-1.33 1.77-.91 2.75.11 14.35.59 28.69 1.45 43.01.25 4.06.52 8.12.82 12.17.09 1.18.95 2.19 2.19 2.19 1.12 0 2.28-1.01 2.19-2.19a839.197 839.197 0 0 1-2.09-43.43c-.07-3.02-.11-6.03-.14-9.05h.11c1.76.06 3.37-.74 4.64-1.91 1.27-1.17 2.11-2.63 2.92-4.07.89-1.58 1.67-3.21 2.37-4.88 1.43-3.39 2.85-7.21 2.45-10.95Zm-31.12-57.31h.02c.08.13.07.12-.02 0Z"/><path class="cls-8" d="m69.45 129.19-.53 20.85c-.03 1.19 1.03 2.19 2.19 2.19s2.17-1.01 2.19-2.19l.53-20.85c.03-1.19-1.03-2.19-2.19-2.19s-2.17 1.01-2.19 2.19Z"/></g><g id="Layer_4"><path class="cls-3" d="M131.73 141.84c2.66 8.52.28 17.59-1.86 25.97-2.21 8.62-5.07 17.05-8.5 25.25-1.4 3.36 4.07 4.82 5.45 1.5 3.73-8.92 6.79-18.1 9.07-27.5 2.11-8.72 4.05-17.93 1.3-26.73-1.08-3.46-6.54-1.99-5.45 1.5ZM59.79 146.04c1.25 18.03 9.53 34.58 16.47 50.97 1.41 3.34 6.28.46 4.88-2.85-6.52-15.4-14.52-31.18-15.7-48.12-.25-3.61-5.91-3.64-5.66 0Z"/></g><g id="Layer_5"><path class="cls-4" d="M19.92 178.44c.16-.67 5.18-13.57 8.65-19.42 3.47-5.85 14.52-22.64 16.43-23.61 1.91-.97 7.63-5.32 7.63-5.32l6.28-10.15s4.44 6.03 6.45 6.32c1.66.25 6.64-.79 7.94-.63 1.31.15 10.01-.14 12.53 1.45 2.52 1.6 10.89 5.77 11.59 8.59.7 2.81 3.96 7.06 1.14 8.06-2.82.99-5.93 1.45-8.24-.74-2.31-2.17-5-3.24-6.11-2.21-1.11 1.04.94 2.17 0 5.58-.94 3.4-2.19 7.54-3.1 7.54s-.5 3.32-1.01 6-3.29 5.72-4.61 6.47-9.34 2.65-8.87 2.71 10.54.35 9.56 4.32c-.99 3.98-5.55 9.57-9.89 10.43-4.34.85-6.76-.9-10.39 1.19-3.63 2.09-7.1 6.92-13.23 7.72-6.12.8-13.04 1.51-16.73-1.95-3.69-3.46-6.3-11.27-6.03-12.35Z"/><path class="cls-8" d="M81.81 144.66v-.13.13ZM93.84 136.47c.04.05.09.12.12.16-.04-.05-.08-.11-.12-.16Z"/><path class="cls-8" d="M101.97 140.47c-1.56-2.97-3.46-5.75-5.61-8.32-.14-.17-.35-.32-.58-.43-.09-.14-.2-.27-.33-.39-2.16-1.99-4.49-3.8-6.97-5.37-1.15-.74-2.34-1.42-3.55-2.05-1.51-.79-3.09-1.52-4.84-1.47-.17 0-.34.03-.5.07-.04 0-.08 0-.11.01-7.36 1.17-14.71 2.85-21.82 5.18 1.25-2.3 2.44-4.63 3.55-7.01.52-1.11.35-2.6-.85-3.22-1.04-.55-2.66-.35-3.22.85-1.9 4.06-4.01 8.02-6.32 11.87-2.38.95-4.73 1.99-7 3.2-.03.02-.05.04-.08.05-.33.11-.64.29-.86.57-7.45 9.14-13.98 19.01-19.4 29.49-1.53 2.96-2.97 5.96-4.32 9.01-.01.02-.02.05-.03.07-.23.26-.42.57-.54.93-1.19 3.78-1.52 8.07-.06 11.84 1.34 3.45 3.93 6.26 7.17 8.06 6.56 3.63 15.1 3.15 21.79.12 3.01-1.36 5.69-3.48 7.59-6.19 3.25.15 6.51-.09 9.7-.71 3.04-.59 6.08-1.65 8.56-3.54 2.48-1.89 4.4-4.46 4.96-7.48.47-2.48.11-5.32-1.61-7.14 1.38-.86 2.63-1.89 3.7-3.09 2.26-2.56 4.1-6.35 2.46-9.7a4.66 4.66 0 0 0-.39-.65c1.67-1.59 2.82-3.58 3.49-5.83.48-1.63.79-3.61.51-5.39.2.09.39.19.59.28 2.76 1.29 5.57 2.86 8.68 3.02 2.71.14 5.55-1.12 6.9-3.54.58-1.04.3-2.38-.65-3.08Zm-28.64 31.28c.15.13.07.09 0 0Zm5.3-14.05s-.02 0-.03-.01l-.08-.04c.03.01.07.03.11.05 0-.03 0-.03 0 0 .02 0 .03.02.05.02-.01 0-.03-.01-.05-.02Zm-.76-16.47c.11.01.21.03 0 0Zm18.71 1.13c-.09 0-.38.03-.41.03-.62.01-.88-.03-1.5-.19-2.21-.56-4.34-1.69-6.43-2.75-1.31-.66-2.54-1.47-3.78-2.26-1.23-.79-2.4-1.51-3.52-2.37-1.01-.77-2.64-.16-3.22.85a2.4 2.4 0 0 0-.29.81c-2.94-.15-5.95.71-8.67 1.69-3.81 1.38-7.58 2.88-11.37 4.33-1.19.45-2 1.59-1.65 2.9.31 1.14 1.7 2.11 2.9 1.65h.03l8.84-3.39c2.78-1.06 5.8-2.31 8.66-2.46.34-.02.68-.03 1.02-.01.19 0 .39.02.58.03h.07c.25.04.5.1.74.18.14.04.28.09.43.14.05.02.07.02.07.02.02.01.05.03.09.05.23.13.46.25.69.38.12.08.24.16.37.24a10.136 10.136 0 0 1 .65.61c.09.09.17.19.25.28.04.06.14.18.17.24.14.21.26.44.39.66.04.16.08.34.12.49v-.03c.01-.34 0-.11 0 .04.02.07 0 .16 0 .13.02.39.02.77 0 1.16-.01.2-.04.41-.06.61.04-.62-.04.18-.08.37a11 11 0 0 1-.46 1.68c-.03.09-.06.19-.1.28-.02.04-.15.34-.15.36-.09.18-.17.36-.26.54-.14.27-.3.53-.46.79-.08.12-.46.6-.36.51-.15.17-.3.35-.46.51-.09.09-.19.19-.29.28-.08.08-.55.44-.14.14-.28.21-.52.47-.71.75-1.73-.35-3.6-.34-5.12-.25-4.13.24-8.26.96-12.36 1.49-1.22.16-2.42.97-2.36 2.36.05 1.14 1.05 2.53 2.36 2.36h-.01c3.18-.41 6.36-.84 9.54-1.23 1.53-.18 3.06-.33 4.6-.31.64.01 1.36.04 1.86.13.33.06.65.13.98.21.16.04.31.09.47.13.05.02.07.02.08.02.02.01.06.03.13.07.02 0 .08.04.13.06.06.03.13.33.08.09 0-.03 0-.05-.01-.06.02.07.06.24.07.27.01.05.02.1.03.14 0 .05.01.12.01.16-.04.54.03.38-.08.83-.17.7-.31.98-.66 1.58-.16.28-.33.54-.52.8-.01.02-.08.11-.13.18-.08.09-.24.29-.24.28-.36.42-.75.81-1.17 1.18-.19.18-.4.35-.6.52.08-.06.31-.22-.07.05-.16.11-.31.23-.47.33-.48.33-.99.63-1.5.91-.25.13-.49.26-.74.38-.14.07-.29.14-.43.2l-.08.04c-.04.01-.08.03-.14.05-1.25.48-2.39.81-3.53 1.02l-3.88.24c-.24-.01-.47-.02-.72-.04-1.23-.09-2.41 1.16-2.36 2.36.02.35.1.67.23.96.36.86 1.16 1.54 2.16 1.48s.77-.04.77-.04c1.44.06 2.9-.03 4.36-.27 1.02-.07 2.06-.15 3.08-.07.02.01.44.07.53.1l.21.06c.04.02.1.04.2.08 0 0 .1.06.16.1l.11.09c.03.03.06.05.08.07.08.12.16.25.23.38.23.41.07.18.04.08.05.15.09.3.13.45.02.08.05.36.07.41.01.24.02.48.02.72 0 .16-.02.32-.03.48 0 .02-.01.04-.02.08-.06.27-.11.55-.19.81-.04.15-.1.3-.14.45 0 0-.03.09-.06.16-.04.09-.11.25-.12.27-.05.11-.11.21-.16.32-.15.28-.32.56-.5.83-.26.4-.37.55-.84 1.04-.19.21-.4.4-.61.6l-.27.24c-.05.05-.09.08-.12.11-.02.01-.04.03-.08.06-2.06 1.55-4.21 2.24-6.74 2.76-3.05.63-6.22.79-9.41.6-.08 0-.17 0-.25.02-.95-.18-1.98.24-2.48 1.11-.19.33-.39.66-.6.97-.09.13-.18.25-.26.37-.02.02-.07.08-.1.13-.44.53-.91 1.03-1.41 1.5-.25.23-.51.45-.77.67-.36.3-.14.11-.06.05-.15.11-.31.23-.46.33-.6.41-1.22.79-1.86 1.14-.31.16-.62.32-.93.46-.14.06-.28.13-.42.19-.03.01-.05.02-.07.03-.03.01-.07.03-.12.05-.7.26-1.39.51-2.1.71-.63.18-1.28.34-1.93.46-.35.07-.68.13-1.03.18-.11.02-.6.08-.18.03-.23.03-.46.05-.69.08-3.32.31-6.64.08-9.56-1.19-2.46-1.06-4.49-2.77-5.75-5.05-.76-1.38-1.14-3.04-1.18-4.7-.03-1.75.22-3.21.71-4.89.09-.11.17-.24.24-.38a167.526 167.526 0 0 1 17.19-29.98c1.86-2.59 3.66-4.94 5.66-7.39.04-.02.08-.03.13-.05h-.01c.96-.51 1.92-.99 2.91-1.45.5-.23.99-.45 1.5-.67.53-.23.63-.27 1.32-.55 2.25-.91 4.54-1.73 6.85-2.48 4.72-1.53 9.53-2.78 14.38-3.83 2.35-.5 4.72-.95 7.09-1.34h.31c.04 0 .07.01.13.03.28.08.55.16.82.26.02.01.09.04.21.1.14.07.29.14.44.21.29.14.57.3.85.45 1.14.6 2.24 1.26 3.32 1.96 2.26 1.46 3.82 2.68 5.81 4.51.18.17.39.29.61.4.09.14.19.28.3.42.25.3.5.6.75.92.02.02.04.05.06.07-.05-.07-.08-.11.03.03.12.16.24.31.36.48.49.66.96 1.33 1.41 2.01.67 1.01 1.28 2.06 1.86 3.12h-.01c-.13.05-.27.09-.4.12-.17.04-.34.08-.51.11ZM78.63 157.69h.01-.01z"/></g><g id="Layer_8"><path class="cls-2" d="M152.41 22.57c.41.14.92.11 1.25-.2 5.22-4.98 10.43-9.96 15.65-14.94.4-.38.6-.97.35-1.5-.86-1.82-2.7-4.57-5.01-4.44-1.21.07-2.02.91-2.68 1.85-.71 1.01-1.38 2.04-2.06 3.07a208.94 208.94 0 0 0-6.33 10.3c-.67.83-1.34 1.67-1.89 2.56-.66 1.09-.72 2.8.72 3.29ZM175.47 62.02c-1.58-1.07-3.18-2.11-4.81-3.09-3.68-2.22-7.5-4.23-11.42-6.01-.62-.28-1.39.11-1.63.72-.22.57-.44 1.13-.66 1.7-.31.17-.57.45-.72.83-.35.89.17 1.68.79 2.28 1.38 1.34 2.82 2.6 4.3 3.81 2.96 2.41 6.1 4.61 9.25 6.75 1.29.88 3.07 2.67 4.73 1.77.75-.41 1.15-1.24 1.56-1.95.5-.84 1.13-1.71 1.47-2.62.77-2.07-1.45-3.22-2.87-4.19ZM186.62 33.03c-.28-.99-.58-2.02-1.05-2.94-1.09-2.16-3.29-1.14-5.09-.62-4.1 1.18-8.16 2.53-12.15 4.04-2.18.82-4.35 1.69-6.48 2.63-.89.39-1.76.84-2.39 1.6-.34.4-.66.94-.58 1.49.08.55.53 1.14.8 1.64.46.86 1.48.82 2.04.33 4.26-.79 8.52-1.56 12.79-2.35l6.45-1.19 3.07-.57c1.01-.19 2.33-.23 2.82-1.31.38-.85.01-1.91-.22-2.76Zm-22.58 4.91s.01.07.02.11c-.28.08-.56.16-.84.23.13-.05.26-.1.37-.14l.45-.18Z"/></g></svg>