<svg id="Illustration" xmlns="http://www.w3.org/2000/svg" viewBox="0 0 200 200"><defs><style>.cls-11,.cls-4,.cls-5{stroke-width:0}.cls-4{fill:#c1dade}.cls-5{fill:#fff}.cls-11{fill:#f75e28}</style></defs><path class="cls-4" d="M194.17 51.57a72.274 72.274 0 0 0-36.83-46.52s-4.35 2.98-4.35 2.98L75.03 61.37l-3.91 26.05-46.61 34.09c-.62.45-1.37.7-2.14.7-1.61 0-3.03 1.06-3.48 2.61l-.47 1.63a3.59 3.59 0 0 1-1.26 1.85l-11.04 9.39 14.67 19.95 12.43-7.51c.79-.64 1.83-.87 2.82-.63 1.72.43 3.47-.61 3.91-2.33l.03-.1c.21-.81.72-1.5 1.42-1.94l49.89-31.04 25.47 3.03 78.16-62.6-.75-2.97Z"/><path style="fill:#b3dce0;stroke-width:0" d="m157.34 5.05-4.36 2.98 37.01 50.45 4.92-3.94"/><path class="cls-11" d="M24.59 121.44c-.65.48-1.43.77-2.24.76-1.62-.02-3.02 1.11-3.48 2.67l-.46 1.57a3.59 3.59 0 0 1-1.26 1.85l-11.03 9.39v.02l14.65 19.93h.02l12.42-7.5c.77-.63 1.79-.86 2.76-.64 1.75.4 3.53-.59 3.98-2.33l.02-.06c.21-.83.72-1.52 1.43-1.96l49.88-31.03 25.46 3.03h.01l78.15-62.59v-.01c-.49-1.95-1.39-3.77-2.63-5.35l-11.94-15.17c-5.08-6.46-15.19-18.83-23.39-18.44-10.82.52-17.9 16.63-20.93 27.03l-1.17 4.01c-3.39 11.63-4.68 24.32-16.48 27.04-21.88 5.05-32.21 3.42-44.47 19.16-8.2 10.53-17.55 20.1-28.02 28.36l-12.66 9.99"/><path class="cls-4" d="M24.5 121.51c-.62.45-1.37.7-2.14.7-1.61 0-3.03 1.06-3.48 2.61l-.47 1.63a3.59 3.59 0 0 1-1.26 1.85l-11.04 9.39 14.67 19.95 12.43-7.51c.79-.64 1.83-.87 2.82-.63 1.72.43 3.47-.61 3.91-2.33l.03-.1c.21-.81.72-1.5 1.42-1.94L24.5 121.5Z"/><path d="M33.21 150.13c.79-.64 1.83-.87 2.82-.63 1.72.43 3.47-.61 3.91-2.33l.03-.1c.21-.81.72-1.5 1.42-1.94v-19.95c-3.51 1.25-10.41 4.82-12.88 9.36-2.13 3.92-3.01 10.6-5.66 14.18-1.41 1.91-3.24 3.5-4.62 5.43l2.56 3.48 12.43-7.51Z" style="fill:#ff5000;stroke-width:0"/><path style="fill:#3f9544;stroke-width:0" d="M77.54 122.65 59 96.28l-34.5 25.23 16.89 23.63"/><path class="cls-11" d="M24.89 183.42c-1.22-7.77-1.43-9.59-3.04-17.29-.1-.46-.05 0-.1-.46l-.81-4.25c-.13-.68-1.08-.73-1.28-.07-2.29 7.63-3.98 15.43-5.05 23.32-.29 2.16-.54 4.39.07 6.48.6 2.09 2.26 4.03 4.42 4.3 2.58.33 4.95-1.84 5.76-4.31.81-2.47.44-5.16.03-7.73Z"/><path d="M114.27 32.73c-8.13 5.77-16.1 52.92-16.1 52.92s43.01 11.47 54.66 3.22c12.59-8.92 19.41-55.62 19.41-55.62s-45.46-9.41-57.98-.52Z" style="fill:#ffe8d0;stroke-width:0"/><path d="m93.71 65.65-2.07-3.87a2.258 2.258 0 0 0-3.15-.87l-7.67 4.59c-.69.28-1.25.88-1.36 1.74l-3.28 25.43c-.2 1.54 1.83 2.27 2.66.96l8.79-18.91 5.77-6.49c.63-.71.75-1.73.3-2.57Z" style="fill:#e8f8f9;stroke-width:0"/><path style="stroke-width:0;fill:#37b552" d="M74.62 118.49 59 96.28l-34.5 25.23 5.31 7.38"/><path class="cls-5" d="M32.33 147.89c.67-.5-1.71-4.8-5.31-9.6-3.6-4.8-7.06-8.28-7.74-7.78-.67.5 1.71 4.8 5.31 9.6 3.6 4.8 7.06 8.28 7.74 7.78ZM42.85 145.85c.95-.72-2.43-6.84-7.56-13.67-5.13-6.83-10.06-11.79-11.01-11.08-.95.72 2.43 6.84 7.56 13.67 5.13 6.83 10.06 11.79 11.01 11.08ZM79.03 123.71c.95-.72-3.11-7.75-9.07-15.72-5.96-7.96-11.57-13.84-12.53-13.12-.95.72 3.11 7.75 9.07 15.72 5.96 7.96 11.57 13.84 12.53 13.12ZM196.55 55.48c.67-.54-7.78-12.46-18.87-26.61-11.09-14.15-20.63-25.19-21.3-24.64-.67.54 7.78 12.46 18.87 26.61 11.09 14.15 20.63 25.19 21.3 24.64Z"/><path d="M114.27 32.73c-8.13 5.77-16.1 52.92-16.1 52.92s43.01 11.47 54.66 3.22c12.59-8.92 19.41-55.62 19.41-55.62s-45.46-9.41-57.98-.52Z" style="fill:#ffead4;stroke-width:0"/><path d="M113.51 31.44c-2.53 1.84-3.93 4.96-5.12 7.75-1.8 4.23-3.17 8.63-4.41 13.06-2.49 8.88-4.43 17.93-6.16 26.99-.38 2-.75 4-1.09 6.01-.13.79.2 1.62 1.05 1.85 5.51 1.47 11.12 2.64 16.72 3.67 9.56 1.74 19.64 3.35 29.37 2.34 3.68-.38 7.52-1.14 10.48-3.5s4.96-5.81 6.62-9.13c4.35-8.75 6.92-18.42 9.1-27.91 1.41-6.14 2.66-12.35 3.59-18.59.02-.1.03-.21.05-.31.11-.76-.18-1.67-1.05-1.85-5.47-1.13-11-1.98-16.54-2.71-9.86-1.31-20.03-2.33-29.97-1.34-4.28.43-9.01 1.15-12.62 3.67-1.57 1.1-.07 3.7 1.51 2.59 2.91-2.03 6.65-2.75 10.13-3.16 4.75-.56 9.56-.54 14.34-.32 8.94.41 17.84 1.57 26.66 3.09 1.9.33 3.81.67 5.7 1.06l-1.05-1.85c-.73 5.02-1.71 10.02-2.76 14.98-2 9.36-4.35 18.82-8.08 27.66-1.49 3.53-3.24 7.2-5.79 10.11-2.2 2.5-4.8 3.59-8.15 4.19-4.3.77-8.78.65-13.12.37-4.94-.32-9.85-.98-14.73-1.8-4.22-.71-8.42-1.55-12.59-2.48-2.21-.5-4.44-1.24-6.68-1.6-.11-.02-.21-.06-.32-.08l1.05 1.85c.9-5.34 1.97-10.65 3.1-15.94 2-9.31 4.15-18.74 7.56-27.66.71-1.85 1.49-3.68 2.46-5.4.39-.69.81-1.38 1.3-2.01-.1.13.39-.44.52-.58.1-.1.2-.19.3-.28.3-.28.05-.06.16-.14 1.55-1.12.05-3.73-1.51-2.59Z" style="fill:#ffe9d1;stroke-width:0"/></svg>