<?xml version="1.0" encoding="UTF-8"?>
<svg id="Illustration" xmlns="http://www.w3.org/2000/svg" viewBox="0 0 200 200">
  <defs>
    <style>
      .cls-1 {
        fill: #00b942;
      }

      .cls-2 {
        fill: #009837;
      }

      .cls-3 {
        fill: #fff;
      }

      .cls-4 {
        fill: #ffe9d1;
      }

      .cls-5 {
        fill: #e4f9f9;
      }

      .cls-6 {
        fill: #ff5000;
      }

      .cls-7 {
        fill: #bbdbdf;
      }

      .cls-8 {
        fill: #b2dbdf;
      }
    </style>
  </defs>
  <path class="cls-7" d="m194.35,49.32c-5.18-20.57-18.93-37.94-37.77-47.71h0s-4.46,3.05-4.46,3.05l-79.94,54.69-4.01,26.72-47.8,34.95c-.64.47-1.4.72-2.19.72-1.65,0-3.1,1.09-3.56,2.68l-.49,1.67c-.22.75-.67,1.42-1.29,1.9l-11.32,9.63,15.04,20.46,12.75-7.7c.81-.66,1.88-.9,2.89-.64,1.77.44,3.56-.63,4.01-2.39l.03-.1c.21-.83.73-1.54,1.46-1.99l51.16-31.83,26.12,3.11,80.15-64.19-.77-3.04Z"/>
  <polyline class="cls-8" points="156.58 1.61 152.11 4.67 190.06 56.41 195.11 52.36"/>
  <path class="cls-6" d="m20.45,120.97c-.67.49-1.47.79-2.3.78-1.66-.02-3.1,1.14-3.56,2.73l-.47,1.61c-.22.75-.67,1.42-1.29,1.9l-11.31,9.62v.02s15.02,20.44,15.02,20.44h.02s12.73-7.69,12.73-7.69c.79-.64,1.84-.89,2.83-.66,1.8.41,3.62-.6,4.08-2.39l.02-.06c.22-.85.74-1.56,1.47-2.01l51.15-31.82h0s26.11,3.11,26.11,3.11h.01s80.14-64.18,80.14-64.18h0s0-.01,0-.01c-.5-2-1.42-3.87-2.7-5.49l-12.24-15.55c-5.21-6.62-15.58-19.31-23.99-18.91h0c-11.1.53-18.35,17.05-21.47,27.72l-1.2,4.11c-3.48,11.93-4.8,24.94-16.9,27.73-22.44,5.18-33.03,3.51-45.6,19.65-8.41,10.79-18,20.61-28.74,29.09l-12.98,10.25"/>
  <path class="cls-8" d="m20.36,121.03c-.64.47-1.4.72-2.19.72-1.65,0-3.1,1.09-3.56,2.68l-.49,1.67c-.22.75-.67,1.42-1.29,1.9l-11.32,9.63,15.04,20.46,12.75-7.7c.81-.66,1.88-.9,2.89-.64,1.77.44,3.56-.63,4.01-2.39l.03-.1c.21-.83.73-1.54,1.46-1.99l-17.32-24.23Z"/>
  <path class="cls-6" d="m29.3,150.39c.81-.66,1.88-.9,2.89-.64,1.77.44,3.56-.63,4.01-2.39l.03-.1c.21-.83.73-1.54,1.46-1.99v-20.45c-3.6,1.29-10.67,4.94-13.21,9.6-2.18,4.02-3.09,10.87-5.81,14.54-1.45,1.96-3.33,3.59-4.74,5.57l2.62,3.56,12.75-7.7Z"/>
  <polyline class="cls-2" points="74.76 122.2 55.74 95.16 20.36 121.03 20.36 121.03 37.68 145.27"/>
  <path class="cls-6" d="m20.76,184.52c-1.25-7.97-1.47-9.83-3.12-17.73-.1-.47-.05,0-.1-.47l-.83-4.36c-.13-.69-1.11-.75-1.31-.07-2.34,7.82-4.08,15.82-5.18,23.91-.3,2.21-.55,4.5.07,6.65.62,2.14,2.32,4.13,4.53,4.41,2.65.34,5.08-1.88,5.91-4.42.83-2.54.45-5.29.04-7.93Z"/>
  <path class="cls-5" d="m91.34,63.76l-2.12-3.96c-.62-1.17-2.1-1.57-3.23-.89l-7.87,4.71h0c-.71.28-1.28.9-1.39,1.78l-3.36,26.07c-.2,1.58,1.88,2.33,2.73.98l9.01-19.39,5.92-6.66c.65-.73.77-1.78.31-2.63Z"/>
  <polyline class="cls-1" points="71.76 117.94 55.74 95.16 20.36 121.03 20.36 121.03 25.81 128.61"/>
  <path class="cls-3" d="m28.39,148.09c.69-.52-1.75-4.92-5.44-9.84-3.69-4.92-7.24-8.49-7.93-7.98-.69.52,1.75,4.92,5.44,9.85,3.69,4.92,7.24,8.49,7.93,7.98Z"/>
  <path class="cls-3" d="m39.18,145.99c.98-.73-2.49-7.01-7.75-14.02-5.26-7.01-10.32-12.09-11.29-11.36-.98.73,2.49,7.01,7.75,14.02,5.26,7.01,10.32,12.09,11.29,11.36Z"/>
  <path class="cls-3" d="m76.28,123.3c.98-.74-3.19-7.95-9.3-16.12-6.12-8.16-11.87-14.19-12.84-13.45-.98.74,3.19,7.95,9.3,16.12,6.12,8.16,11.87,14.19,12.84,13.45Z"/>
  <path class="cls-3" d="m196.79,53.33c.69-.56-7.98-12.78-19.35-27.29C166.07,11.52,156.29.21,155.6.77c-.69.56,7.98,12.78,19.35,27.29,11.38,14.51,21.15,25.83,21.84,25.27Z"/>
  <path class="cls-4" d="m172.08,29.79c-1.58-.33-3.18-.62-4.77-.9-3.97-.7-7.96-1.32-11.96-1.85-5.1-.68-10.22-1.21-15.35-1.5-5.09-.29-10.22-.38-15.29.12-3.96.39-8.18,1.05-11.68,3.04-.34.19-.67.4-.99.63-2.5,1.8-3.88,5.08-5.04,7.83-1.83,4.32-3.21,8.83-4.46,13.34-1.37,4.93-2.57,9.91-3.67,14.91-.92,4.17-1.78,8.36-2.57,12.55-.38,2-.77,4-1.09,6.01,0,.03,0,.06-.01.09-.07.41.1.83.54.95,1.62.43,3.25.82,4.88,1.2,4.01.94,8.05,1.78,12.1,2.53,5.08.93,10.2,1.7,15.34,2.19,4.86.46,9.8.71,14.67.22,3.64-.37,7.49-1.12,10.4-3.48,2.96-2.4,4.98-5.94,6.63-9.31,2.16-4.4,3.83-9.04,5.28-13.72,1.52-4.87,2.79-9.81,3.93-14.78.93-4.09,1.77-8.2,2.52-12.32.39-2.16.77-4.32,1.1-6.49.01-.1.03-.19.04-.29.06-.39-.09-.86-.54-.95Z"/>
</svg>