<svg id="Illustration" xmlns="http://www.w3.org/2000/svg" viewBox="0 0 200 200"><defs><style>.cls-1{fill:#f96800}.cls-2{fill:#f6c243}.cls-5{fill:#ff8000}.cls-7{fill:#5b3d5b}</style></defs><path d="M71.24 147.12s-1.29-14.21-1.84-17.57c-.55-3.36-6.71-31.51-6.71-31.51s-2.36.61-4.6.07c-2.24-.54-5.17-1.9-6.52-4.5-1.35-2.6-3.22-8.48-2.92-10.07s1.62-4.91 2.99-5.65c1.37-.73 4.61-1.98 5.81-2.36 1.2-.38 4-1.13 4-1.13s-1.59-5.61-2.59-7.15c-1-1.53-1.17-5.04-1.25-7.17-.08-2.14.39-12.35 3.08-17.59 2.68-5.24 7.04-12.58 12.07-15.96 5.03-3.38 12.86-7.75 19.41-7.88 6.55-.13 15.66.54 20.96 3.43 5.3 2.89 10.84 6.91 12.83 9.37s5.63 8.71 6.22 10.42 2.74 9.25 2.74 9.25 1.39 9.66 1.7 12.48c.31 2.82 1.55 24.19 1.19 27.63-.36 3.44-2.11 18.69-4.66 23.51-2.55 4.82-6.73 11.06-6.73 11.06v19.09s-3.29 2.36-9.88 4.04c-6.59 1.69-13.37 2.54-17.71 2.82-4.34.27-14.29-.73-16.96-1.42-2.67-.69-8.68-2.55-8.68-2.55l-1.96-.67Z" style="fill:#e4c7bd"/><path class="cls-2" d="M57.19 57.07s-3.89-.22-5.39 1.37c-1.5 1.59-3.19 5.19-3.18 7.85s1.69 12.31 1.69 12.31 2.67-2.15 4.66-2.15 3.81 1.82 3.81 1.82l1.39 7.71.54 2.1 3.34-4.7s-2.94-9.89-3.44-11.25c-.5-1.35-3.07-7.77-3.07-7.77l-.35-7.28ZM57.19 98.12s2.84-.16 3.42-.39c.59-.23 1.78-.83 1.78-.83l1.66 7.38.97 4.45s-3.54-3.91-4.06-4.64c-.51-.73-3.77-5.98-3.77-5.98ZM142.97 49.75c-2.7-2.35-6.99-3.1-9.8-.39-.97.94-.95 2.6 0 3.54.7.69 1.75.87 2.65.55l.24 2.21s1.28 15.66 1.63 18.8c.13 1.14.09 3.65 0 6.39-.76 3.53-1.6 7.05-2.47 10.56-.31 1.27.41 2.78 1.75 3.08s2.74-.39 3.08-1.75c1.81-7.25 3.46-14.56 4.6-21.95.57-3.76 1.12-7.56 1.33-11.36.18-3.36-.29-7.33-3-9.68Z"/><path class="cls-2" d="M55.38 99.85c2.2 4.32 5.35 8.04 8.18 11.96.76 1.06 2.22 1.68 3.42.9 1.05-.68 1.72-2.29.9-3.42-2.82-3.92-5.98-7.63-8.18-11.96-.59-1.17-2.34-1.6-3.42-.9-1.19.77-1.53 2.18-.9 3.42ZM57.86 54.66c-5.32-1.35-10.16 2.89-11.38 7.86-.65 2.64-.52 5.35-.17 8.02a92.5 92.5 0 0 0 1.58 8.74c.31 1.31 1.82 2.1 3.08 1.75 1.35-.37 2.06-1.76 1.75-3.08-.53-2.32-.99-4.66-1.34-7.01-.15-.96-.27-1.92-.33-3.06-.03-.49-.04-.99-.03-1.49 0-.29.01-.59.03-.89 0 .02.07-.75.03-.5.07-.53.19-1.06.34-1.57.07-.23.14-.47.23-.69.26-.73-.15.19.17-.38.12-.21.23-.42.35-.63.03-.05.37-.55.22-.34-.11.15.28-.33.35-.39.14-.15.28-.29.43-.43.02-.01.6-.49.23-.22.19-.14.39-.27.59-.39.17-.1.35-.19.52-.28.23-.12-.27.06.15-.06.22-.06.44-.13.67-.19.63-.16-.41-.03.24-.03.23 0 .46 0 .69.01-.45-.04.11.04.25.08 1.27.32 2.78-.41 3.08-1.75s-.39-2.73-1.75-3.08h.02Z"/><path class="cls-7" d="M60.12 60.1c-.11-1.62-.11-3.24 0-4.87a45.541 45.541 0 0 1 .15-1.69c0 .04.09-.75.05-.39-.04.36.06-.43.06-.39.03-.16.05-.32.07-.48a41.54 41.54 0 0 1 1.53-6.12c.23-.69.48-1.37.75-2.06.07-.19.15-.37.23-.56.18-.43-.24.53.08-.19.18-.41.37-.81.56-1.21.68-1.43 1.45-2.82 2.29-4.16.43-.69.88-1.36 1.35-2.02.21-.3.43-.59.65-.89.06-.08.38-.49.13-.17l.45-.57a39.754 39.754 0 0 1 5.84-5.83l.47-.38c.13-.11.13-.1-.03.02.13-.1.26-.19.39-.29a36.988 36.988 0 0 1 6.03-3.63c.37-.17.73-.34 1.11-.51.06-.03.44-.19.07-.03.23-.09.45-.18.68-.27 1.51-.59 3.06-1.07 4.64-1.45.79-.19 1.58-.35 2.38-.49.36-.06.72-.12 1.08-.17.46-.07-.59.07.18-.03.24-.03.48-.06.72-.08 1.62-.17 3.24-.24 4.85-.21.73.01 1.46.05 2.19.09.41.03.81.06 1.21.1.16.01.32.03.49.05l.48.06c.27.03.32.04.15.02-.35-.05.43.07.39.06.16.03.32.05.48.08l1.2.21c.79.15 1.59.33 2.38.54 1.57.41 3.12.9 4.63 1.49.19.07.38.15.57.23.09.04.58.24.19.07.37.16.74.33 1.11.49.73.34 1.46.71 2.17 1.09 1.42.77 2.8 1.64 4.11 2.58.48.35.96.71 1.42 1.09.65.54 1.29 1.1 1.92 1.69 1.27 1.21 2.48 2.51 3.56 3.9.99 1.28 2.12 3.08 2.93 4.69.87 1.72 1.47 3.34 2.07 5.23 1.22 3.9 1.96 7.96 2.62 11.99 1.36 8.3 2.07 16.79 2.15 25.26.04 4.14-.05 8.29-.33 12.43-.25 3.76-.59 6.81-1.35 10.44a51.82 51.82 0 0 1-1.39 5.31c-.56 1.74-1.12 3.18-1.86 4.7-.77 1.59-1.65 3.12-2.66 4.56-.86 1.24-1.85 2.42-3.06 3.62-.61.61-1.25 1.19-1.91 1.74-.13.11-.27.22-.4.33.07-.05-.6.47-.35.28-.12.09-.69.51-1 .71-1.41.98-2.92 1.84-4.47 2.57-.15.07-.31.15-.47.21.01 0-.77.33-.35.16-.32.13-.64.26-.96.38-.89.33-1.79.63-2.7.87-.75.21-1.5.38-2.26.53-.42.08-.85.15-1.27.22-.51.08-.21.03-.1.02-.3.04-.6.07-.89.1-1.68.16-3.35.17-5.03.05-1.31-.09-2.56 1.22-2.5 2.5.07 1.43 1.1 2.4 2.5 2.5 7.37.53 14.96-1.62 21.04-5.81 6.49-4.48 10.87-10.99 13.36-18.42 2.5-7.48 3.14-15.51 3.36-23.35.26-8.95-.19-17.92-1.33-26.8-.58-4.52-1.27-9.05-2.26-13.51-.91-4.11-2.17-8.18-4.14-11.91-3.48-6.59-9.32-11.98-15.88-15.44-12.35-6.51-27.85-6.91-40.13 0-12.28 6.91-20.44 20.24-21.38 34.22-.11 1.62-.1 3.24 0 4.87.09 1.3 1.09 2.56 2.5 2.5 1.28-.06 2.6-1.1 2.5-2.5ZM60.61 89.4c1.29 0 1.29-2 0-2s-1.29 2 0 2Z"/><path class="cls-2" d="M55.04 59.1c0 2.22.22 4.42.33 6.63.03.66.26 1.29.73 1.77.43.43 1.15.76 1.77.73 1.3-.06 2.57-1.1 2.5-2.5-.11-2.21-.33-4.42-.33-6.63 0-1.31-1.15-2.56-2.5-2.5s-2.5 1.1-2.5 2.5Z"/><path class="cls-7" d="M88.89 72.7c1.31 0 2.56-1.15 2.5-2.5-.06-1.35-1.1-2.5-2.5-2.5-1.31 0-2.56 1.15-2.5 2.5.06 1.35 1.1 2.5 2.5 2.5ZM120.32 69.77c1.31 0 2.56-1.15 2.5-2.5-.06-1.35-1.1-2.5-2.5-2.5-1.31 0-2.56 1.15-2.5 2.5.06 1.35 1.1 2.5 2.5 2.5ZM110.44 77.54c1.25 4.2 1.94 8.29 2.04 12.63.03 1.05.02 2.1-.02 3.14-.02.57-.05 1.15-.09 1.72l-.06.78c-.01.15-.03.31-.05.47-.02.19-.02.21 0 .07-.13-.22.43-.95.67-.89.03 0-.71.15-.53.13-.49.06-1.03.04-1.53-.01-.79-.09-2.04-.45-2.97-.73-1.25-.38-2.78.45-3.08 1.75-.29 1.29.41 2.67 1.75 3.08 2.66.81 5.89 1.57 8.54.29 1.67-.81 2.04-2.3 2.2-3.99.12-1.3.19-2.61.21-3.92.07-5.34-.69-10.72-2.23-15.84-.39-1.29-1.76-2.11-3.08-1.75-1.32.36-2.14 1.78-1.75 3.08Z"/><path d="M94.73 106.71c1.91 2.68 4.67 4.39 7.95 4.79 3.28.4 6.26-.78 8.59-2.85.98-.87.95-2.66 0-3.54-1.05-.96-2.49-.93-3.54 0-.1.09-.21.17-.3.26.15-.14.26-.18.03-.03s-.44.29-.67.43c-.11.07-.23.13-.35.19 0 0-.57.27-.24.13.29-.13-.11.04-.17.06-.13.05-.25.09-.38.13-.25.08-.51.15-.77.2-.13.03-.26.05-.39.07-.35.07.43-.02.07-.01-.27 0-.53.03-.79.03-.14 0-.81.05-.89-.05.04.05.48.09.09 0-.13-.03-.25-.05-.38-.08-.25-.06-.5-.13-.75-.21-.06-.02-.34-.08-.37-.13.04.08.4.19.06.03-.23-.11-.46-.23-.69-.36s-.44-.27-.65-.42c-.39-.26.18.18-.03-.02-.09-.09-.19-.17-.29-.25-.19-.17-.37-.36-.55-.55-.09-.09-.17-.2-.25-.29-.24-.27.34.47-.02-.03-.75-1.06-2.22-1.68-3.42-.9-1.05.68-1.71 2.28-.9 3.42h.02Z" style="fill:#b7957e"/><path class="cls-2" d="M55.71 67c2.56 5.37 4.53 11.08 5.93 16.93.31 1.31 1.81 2.1 3.08 1.75 1.34-.37 2.06-1.76 1.75-3.08-1.49-6.26-3.67-12.32-6.43-18.13-.58-1.22-2.33-1.54-3.42-.9-1.25.73-1.48 2.2-.9 3.42Z"/><path class="cls-2" d="M62.39 81.78c-.84.86-1.57 1.83-2.28 2.8-.6.82-1.17 1.67-1.66 2.56-.32.57-.43 1.29-.25 1.93.16.58.61 1.21 1.15 1.49.58.31 1.28.46 1.93.25.65-.21 1.17-.57 1.49-1.15.63-1.13 1.38-2.2 2.17-3.23l-.39.51c.43-.56.89-1.11 1.38-1.62.45-.46.73-1.12.73-1.77 0-.61-.27-1.35-.73-1.77-.46-.42-1.1-.76-1.77-.73s-1.3.25-1.77.73Z"/><path class="cls-2" d="M63.02 87.73c-.64-3.34-1.1-6.72-1.74-10.06-.25-1.29-1.86-2.14-3.08-1.75-1.37.45-2.02 1.7-1.75 3.08.64 3.34 1.1 6.72 1.74 10.06.25 1.29 1.86 2.14 3.08 1.75 1.37-.45 2.02-1.7 1.75-3.08Z"/><path class="cls-5" d="M199.02 193.93a158.406 158.406 0 0 0-25.11-21.49 159.93 159.93 0 0 0-28.87-15.81c-5.73-2.41-11.59-4.48-17.56-6.2-.67-.19-1.13.28-1.22.82l.12-5.21c.18-.09.36-.17.53-.26 1.15-.59.13-2.32-1.01-1.73-13.01 6.62-28.27 8.6-42.56 5.72-4.06-.82-8.02-2.03-11.85-3.6-1.19-.49-1.71 1.45-.53 1.93.06.02.12.04.17.07l-.44 5.24a.89.89 0 0 0-.35.06c-9.84 3.44-19.41 7.63-28.6 12.55a200.466 200.466 0 0 0-26.44 16.94c-4.68 3.55-9.21 7.29-13.57 11.24-.32.29-.37.64-.26.95-.11.56.21 1.21.94 1.21 25.37-.27 50.75-.45 76.13-.55a11951.186 11951.186 0 0 1 118.47.1c.36 0 .62-.16.78-.39.88.56 2.03-.72 1.21-1.58Z"/><path class="cls-7" d="m123.92 125.11-.33 31.95c-.01 1.31 1.16 2.56 2.5 2.5s2.49-1.1 2.5-2.5l.33-31.95c.01-1.31-1.16-2.56-2.5-2.5-1.34.06-2.49 1.1-2.5 2.5ZM68.11 109.79c-1.01-4.58-2.05-9.15-3.04-13.73-.16-.72-.68-1.26-1.33-1.56h-.01c-.12-.06-.24-.11-.37-.14-.61-.2-1.27-.18-1.83.14-.01 0-.02.01-.03.02-.04.02-.08.03-.11.06-.21.14-.41.28-.63.4-.06.04-.32.16-.38.2-.24.09-.49.17-.74.23-.1.03-.55.1-.55.11-.42.03-.84.03-1.26 0 .05 0-.44-.08-.54-.11a7.57 7.57 0 0 1-.72-.22c-.04-.02-.33-.15-.4-.19-.2-.11-.39-.23-.57-.36-.03-.03-.33-.28-.37-.33-.26-.24-.5-.51-.72-.78 0 0-.25-.35-.29-.42-.15-.23-.31-.47-.45-.71-.34-.57-.65-1.15-.95-1.74-.99-1.98-1.78-4.19-1.7-6.36 0-.09.03-.49.03-.56.03-.21.07-.42.12-.63.05-.25.12-.49.2-.72.04-.12.08-.23.12-.35 0-.03.01-.04.02-.06 0-.01 0-.02.01-.03.11-.23.22-.44.34-.65.04-.08.33-.5.3-.49.13-.16.28-.32.42-.47.09-.09.18-.17.27-.25l.07-.07c.22-.15.45-.28.68-.41l.08-.04c.09-.02.39-.13.38-.12.11-.03.22-.06.33-.08.03 0 .21-.04.29-.05h.51c.11 0 .23.02.34.02.21.05.41.11.62.17-.02 0 .35.18.49.27.13.12.25.23.36.36.93.99 2.6.93 3.54 0 .98-.98.93-2.55 0-3.54-2.09-2.24-5.55-2.86-8.37-1.8-3.03 1.14-5.13 3.85-5.85 6.97-.78 3.42 0 6.79 1.36 9.94 1.26 2.9 2.98 6.03 5.85 7.61 2.18 1.2 4.82 1.53 7.23.94 3.26 14.81 6.92 29.56 7.62 44.64.22 4.66.16 9.32-.2 13.97-.1 1.31 1.22 2.56 2.5 2.5 1.44-.07 2.4-1.1 2.5-2.5 1.29-16.56-1.64-32.95-5.19-49.07ZM56.65 79.68s-.06-.05 0 0Z"/><path class="cls-5" d="M146.71 95.44c-.51-2.85-1.11-5.68-1.77-8.5.45-.83.79-1.73 1.1-2.6.75-2.08 1.25-4.32 1.19-6.55-.1-3.82-1.96-7.74-5.49-9.5-.35-.17-.69-.2-1-.13a1.46 1.46 0 0 0-.69.01c-.36.11-.71.34-.89.69-.19.37-.24.75-.15 1.15.03.15.06.3.08.45.04.37.05.73.04 1.1-.03.12-.05.24-.04.37.31 4.15.43 8.32.36 12.48-.06.3-.07.6-.03.91-.02 1.04-.05 2.08-.09 3.12 0 .09 0 .16.01.24-.09.8.41 1.67 1.27 1.72 1.01 4.53 1.85 9.11 2.34 13.66.35 3.2.54 6.42.55 9.64 0 1.45-.03 2.89-.13 4.34-.09 1.45-.19 2.4-.43 3.72a26.55 26.55 0 0 1-1.23 4.46c0-.01-.04.11-.08.18-.03.06-.18.41-.2.46-.15.33-.31.65-.49.96a15.826 15.826 0 0 1-.85 1.38c.01-.01-.43.6-.25.37-.18.23-.32.48-.44.74-.11 0-.21-.01-.31-.02-.94-.04-1.85-.02-2.78.16-2.05.4-4.01 1.34-5.95 2.09-1.8.69-3.66 1.31-5.39 2.15-1.48.71-2.77 1.82-3.26 3.43s-.11 3.56.87 4.96c1.05 1.51 2.63 2.27 4.45 2.32 1.82.05 3.72-.59 5.43-1.31 1.72-.73 3.34-1.46 4.87-2.42 1.68-1.05 3.2-2.38 4.21-4.11.51-.87.9-1.84 1.07-2.84.06-.37.1-.74.12-1.11.24-.12.46-.27.64-.49 3.88-4.98 4.93-11.13 5.09-17.3.17-6.83-.57-13.67-1.76-20.38Zm-22.15 42.71h-.01c-.22.17-.25-.12.01 0ZM132.25 29.62c-4-8.37-11-15.04-19.35-19C104 6.4 94.17 4.9 84.45 6.64c-9.72 1.74-18.84 6.64-25.34 13.97-3.76 4.25-6.42 9.38-8.35 14.7-1.66 4.58-2.4 9.57-2.76 14.42-.7 9.43 1.24 18.72 3.87 27.73-.63 1.7-.86 3.56-.7 5.38.28 3.25 1.28 6.59 3.3 9.14 1 1.26 2.4 2.26 3.94 2.78.07.03.13.06.19.09 2.6.97 5.23-.03 6.95-1.95 1.94-2.16 2.5-5.09 2.3-7.91-.07-1.05-.19-2.09-.39-3.1-.2-1.68-.59-3.34-1.26-4.86-.62-1.39-1.62-2.67-2.87-3.56-.09-.08-.17-.17-.26-.25a.555.555 0 0 1-.08-.06c-5.19-9.78-7.88-21.16-8.7-32.04v-.01c1.06-4.93 3.17-9.59 5.95-13.82 1.31-2 2.92-3.81 4.72-5.53.83-.79 1.69-1.54 2.58-2.26l.36-.28c.21-.16.43-.32.65-.48a41.98 41.98 0 0 1 7.37-4.27c.27-.12.54-.25.81-.36.23-.1.1-.04.02-.01.11-.04.21-.09.32-.13.55-.22 1.11-.43 1.68-.63 1.08-.39 2.18-.73 3.29-1.03 1.11-.3 2.24-.55 3.36-.77.55-.1 1.09-.19 1.64-.27.09-.02.14-.02.16-.03.01 0 .05 0 .18-.02.34-.04.67-.08 1.01-.11 2.24-.23 4.51-.27 6.76-.14.55.03 1.1.08 1.66.13.29.03.59.07.89.1h.08-.11c.17.02.34.05.51.07 1.13.17 2.25.39 3.36.66 2.14.51 4.26 1.15 6.31 1.95.23.09.45.17.67.27l.21.09c-.06-.02-.08-.04.02 0 .04.02.07.03.11.05-.02 0-.05-.02-.08-.03.04.02.09.04.16.07.46.2.95.42 1.43.65.97.46 1.94.96 2.87 1.49.93.53 1.85 1.1 2.74 1.7.43.29.85.59 1.26.89.17.12.33.25.49.37.06.05.42.34.5.4 1.66 1.35 3.21 2.85 4.62 4.47 1.31 1.51 2.34 2.93 3.5 4.9.57.97 1.09 1.96 1.57 2.97.58 1.22 2.33 1.54 3.42.9 1.25-.73 1.48-2.2.9-3.42ZM56.9 72.09c-.4.15-.78.34-1.15.56-.63-2.35-1.21-4.73-1.68-7.12-.06-.32-.11-.64-.17-.96.87 2.56 1.86 5.07 2.99 7.52Z"/><path class="cls-5" d="M108.75 14.2s.03.01.04.02c0 0-.02 0-.02-.01h-.02Z"/><path class="cls-1" d="M139.57 181.44c6.14-6.37 10.75-13.4 13.17-21.33a166.78 166.78 0 0 0-7.71-3.49c-1.83-.77-3.68-1.49-5.54-2.19-2.93 11.06-12 17.8-19.6 27.33-3.62 4.53-5.73 9.18-6.74 13.94h14.5c2.59-5.64 7.68-9.88 11.91-14.26ZM90.11 177.52c5.64-7.9 9.3-17.08 9.24-26.54-4.75.22-9.51-.08-14.2-.89.74 12.13-8.77 21.47-15.85 30.94-3.6 4.82-5.54 9.76-6.32 14.84 4.74-.03 9.49-.06 14.23-.08.31-1.02.72-2.02 1.26-3.02 3.03-5.6 7.96-10.09 11.64-15.26ZM37.01 168.68c-4.18 2.39-8.27 4.92-12.27 7.6 1.89 5.35 1.92 11.71 1.57 16.94-.07.98-.18 1.95-.31 2.9 4.75-.04 9.5-.09 14.25-.12 0-.08.02-.15.03-.23.88-8.56.41-18.76-3.27-27.1ZM176.91 174.57c-1.17 7.51-3.13 14.83-6.86 21.22l15.64.06c1.49-3.64 2.66-7.44 3.59-11.33a159.87 159.87 0 0 0-12.38-9.95Z"/><path d="M122.81 159.72c-.34-.2-3.04 3.67-7.14 10.08-1.02 1.61-2.13 3.37-3.32 5.26-.3.47-.6.96-.9 1.45l-.46.74c-.13.21-.14.18-.22.24-.13.08-.28.06-.38-.01a.5.5 0 0 1-.08-.07l-.18-.24-.55-.76c-2.93-4.08-6.19-8.55-9.65-13.22l-.16-.22c-.05-.07-.1-.14-.22-.28-.2-.25-.47-.47-.75-.65-.58-.35-1.27-.51-1.94-.42-.67.08-1.3.39-1.76.84-.52.56-.6.81-.82 1.1-.77 1.18-1.54 2.35-2.28 3.49-1.49 2.3-2.92 4.51-4.28 6.63-.34.53-.67 1.05-1 1.57l-.49.77-.16.25s-.06.06-.08.09c-.11.09-.27.11-.4.05a.436.436 0 0 1-.19-.15c-.09-.12-.28-.45-.41-.66-1.18-1.9-2.27-3.67-3.27-5.29-4.04-6.45-6.71-10.34-7.05-10.14-.34.2 1.72 4.44 5.31 11.15.91 1.67 1.9 3.5 2.97 5.47.15.27.23.44.45.79.25.4.62.76 1.06.99.89.49 2.07.45 2.94-.15.22-.15.41-.32.58-.51l.23-.3.13-.19.52-.75c.35-.51.7-1.02 1.05-1.54 1.41-2.08 2.89-4.27 4.42-6.54.76-1.14 1.53-2.29 2.32-3.47.53-.81.43-.62.56-.68.05 0 .09 0 .13.03.02.02.04.03.06.06 0-.01.05.06.11.14l.16.22c3.45 4.66 6.77 9.09 9.82 13.08l.57.74.14.18.26.3c.19.19.41.36.64.5.96.56 2.2.48 3.05-.12.42-.27.79-.76.95-1.06l.43-.76c.28-.5.56-1 .84-1.49 1.09-1.96 2.1-3.78 3.02-5.44 3.66-6.67 5.75-10.9 5.41-11.1Z" style="fill:#fff"/></svg>