<svg xmlns="http://www.w3.org/2000/svg" xmlns:xlink="http://www.w3.org/1999/xlink" viewBox="0 0 200 200" xmlns:v="https://vecta.io/nano"><defs><clipPath id="A"><path d="M184.65 129.18l-.49-6.4c0-.02 0-.03-.01-.05l-1.64-19.89-1.94-20.38-2.1-20.13-2.23-20.12-1.15-10.15c-.17-1.48-.41-3-1.33-4.22-.83-1.11-2.17-1.65-3.51-1.82-.73-.09-1.46-.07-2.19-.01l-9.37.9-4.4.42-11.92 1.14-17.44 1.67-21.16 2.03-22.88 2.19-22.61 2.16-20.49 1.96-16.51 1.58-10.52 1.01c-2.96.28-6.83.3-8.07 3.6-.58 1.54-.34 3.25-.23 4.85l.38 4.79c0 .02 0 .04.01.07l1.64 19.87 1.94 20.38 2.1 20.13 2.23 20.12 1.15 10.15c.17 1.48.41 3 1.33 4.22.83 1.11 2.17 1.65 3.51 1.82.73.09 1.46.07 2.19.01l32.05-3.07 26.23-2.52 24.13-2.32 25.76-2.47 31.12-2.98 4.45-.43 9.29-.87 5.65-.53c1.56-.15 3.17-.25 4.57-1.05.87-.49 1.56-1.18 1.99-2.08.53-1.11.55-2.37.49-3.57z" fill="none" stroke-width="0"/></clipPath><clipPath id="B"><path d="M197.41 176.28l.1-6.55v-.05l.19-20.35-.06-20.88-.26-20.63-.39-20.64-.22-10.41c-.03-1.52-.14-3.08-.96-4.41-.74-1.2-2.05-1.87-3.39-2.17-.73-.16-1.47-.2-2.22-.22l-9.6.04-4.51.02-12.21.05-17.87.07-21.67.08-23.44.09-23.16.09-20.99.08-16.91.06-10.78.04c-3.04.01-6.96-.33-8.53 2.9-.74 1.51-.65 3.27-.68 4.9l-.07 4.9v.07l-.19 20.33.06 20.88.26 20.63.39 20.64.22 10.41c.03 1.52.14 3.08.96 4.41.74 1.2 2.05 1.87 3.39 2.17.73.16 1.47.2 2.22.22l32.83-.13 26.87-.11 24.72-.1 26.39-.11 31.88-.13 4.56-.02 9.51-.02 5.78-.01c1.6 0 3.24.04 4.74-.64.93-.42 1.69-1.05 2.22-1.93.65-1.07.78-2.36.83-3.58z" fill="none" stroke-width="0"/></clipPath><path id="C" d="M115.02 77.48c-.7-1.84-1.05-3.78-1.38-5.71l-1.13.87c1.85 1.05 3.64 2.23 5.31 3.56l.16-1.2-4.09 2.09c-.37.19-.48.71-.27 1.05.22.37.68.46 1.05.27l4.09-2.09c.4-.21.53-.9.16-1.2-1.78-1.4-3.65-2.68-5.62-3.8-.62-.35-1.24.23-1.13.87.34 1.93.69 3.87 1.38 5.71.15.39.52.65.94.54.37-.1.68-.55.54-.94h0z"/><path id="D" d="M96.16 88.74l-.89-5.67-1.15.66c1.9.94 3.71 2.09 5.36 3.43l.16-1.2c-1.25.86-2.6 1.6-4.01 2.16-.38.15-.65.51-.54.94.1.37.56.69.94.54 1.54-.61 3.01-1.37 4.38-2.31.37-.25.57-.87.16-1.2a29.73 29.73 0 0 0-5.67-3.67c-.46-.23-1.22.04-1.15.66l.94 6.08c.08.41.56.64.94.54.42-.12.62-.54.54-.94h0z"/><path id="E" d="M77.86 101.73l-.95-4.54-.94.94c-.06-.02-.05-.02.04.02a1.01 1.01 0 0 1 .15.07l.29.13.58.28 1.13.63 1.08.71.26.19c.02.02.24.18.17.13l.25.2c.04.03.08.07.13.1.06.06.06.05-.02-.03l-.1-.39v.05l.1-.39c.18-.16.22-.21.12-.15a.3.3 0 0 0-.08.04l-.2.09-.4.18-.8.35c.07-.03-.05.02-.06.02l-.24.1-.36.15-.85.33c-.37.14-.67.52-.54.94.12.37.54.69.94.54l2.51-1.03c.41-.18.97-.34 1.23-.73.23-.34.15-.78-.11-1.07-.12-.14-.28-.25-.42-.36-1.35-1.06-2.82-1.91-4.4-2.58-.24-.1-.57.02-.75.2-.21.21-.24.47-.2.75l.95 4.54c.1.39.56.66.94.54s.64-.53.54-.94h0z"/><path id="F" d="M75.17 81.19c-.47-2.09-.76-4.2-.88-6.34l-1.15.66 2.72 1.91 1.21.94.67.54c.13.11.32.22.35.36l.35-.87-4.38 2.03c-.38.16-.46.72-.27 1.05.23.39.67.44 1.05.27l4.38-2.03c.31-.16.42-.55.35-.87-.14-.61-.66-.98-1.12-1.35l-1.51-1.18-3.01-2.13c-.47-.31-1.18.09-1.15.66a41.25 41.25 0 0 0 .93 6.74c.09.4.56.64.94.54.42-.11.63-.54.54-.94h0z"/><path id="G" d="M58.53 91.29l-.33-2.69-.11-1.34-.04-.67a5.09 5.09 0 0 0-.02-.39v-.17c0-.14-.01-.08-.05.16l-.27.27.05-.03-.39.1c-.19-.07-.21-.06-.07.02l.13.09.3.22.51.38 1.06.83 2.13 1.85.16-1.2c-1.14.78-2.38 1.4-3.7 1.81-.39.12-.65.53-.54.94.11.39.55.66.94.54 1.44-.46 2.82-1.11 4.07-1.97.39-.27.54-.85.16-1.2l-2.42-2.09-1.34-1.03c-.45-.34-.99-.87-1.6-.7-.73.2-.67.98-.63 1.56l.12 1.68.42 3.43c.06.41.58.64.94.54.44-.12.6-.53.54-.94h0z"/><path id="H" d="M37.8 127.96l-.4-3.05-.2-1.49-.1-.75-.05-.36c0-.05-.01-.1-.01-.15-.15.21-.17.26-.05.16l-.34.2c-.39-.17-.48-.17-.28-.02l.14.12.29.25.62.54 1.19 1.03 1.19 1.03.57.49c.15.13.49.37.56.47l-.1-.39v.08c.05-.13.08-.26.12-.39l.1-.11-.17.08c-.08.03-.15.07-.23.1l-.51.23-1.09.49-2.12.94c-.38.17-.47.72-.27 1.05.23.39.67.44 1.05.27l3.67-1.64c.31-.14.68-.26.87-.57.23-.38.15-.83-.14-1.15-.44-.48-1-.88-1.49-1.3l-3.05-2.64c-.26-.22-.5-.45-.85-.5-.41-.05-.81.16-1.03.51-.34.56-.08 1.38 0 1.98l.59 4.48c.05.41.31.77.77.77.37 0 .82-.35.77-.77h0z"/><path id="I" d="M11.96 77.89l-.33-2.69-.11-1.34-.04-.67c0-.13-.01-.26-.02-.39v-.17c0-.14-.01-.08-.05.16l-.27.27.05-.03-.39.1c-.19-.07-.21-.06-.07.02l.13.09.3.22.51.38 1.06.83 2.13 1.85.16-1.2c-1.14.78-2.38 1.4-3.7 1.81-.39.12-.65.53-.54.94.11.39.55.66.94.54 1.44-.46 2.82-1.11 4.07-1.97.39-.27.54-.85.16-1.2l-2.42-2.09-1.34-1.03c-.45-.34-.99-.87-1.6-.7-.73.2-.67.98-.63 1.56l.12 1.68.42 3.43c.06.41.58.64.94.54.44-.12.6-.53.54-.94h0z"/><path id="J" d="M192.63 44.77c-.3-.8-.55-1.62-.76-2.45l-.27-1.2-.11-.61-.03-.2-.01-.07c0 .05 0 .04 0-.05 0 .08-.04.15-.11.21l-.93.12 2.71 1.83 2.44 1.78.16-1.2c-1.13.7-2.31 1.18-3.62 1.45-.41.08-.64.56-.54.94.12.42.54.62.94.54 1.41-.29 2.76-.84 3.98-1.6.39-.25.54-.87.16-1.2-.83-.73-1.75-1.35-2.66-1.96l-2.8-1.89c-.26-.18-.72-.12-.93.12-.43.49-.35 1.01-.25 1.61l.28 1.41c.22.97.51 1.92.85 2.85.14.39.52.65.94.54.37-.1.68-.55.54-.94h0z"/><path id="K" d="M80.7 195.32l-.95-4.54-.94.94c-.06-.02-.05-.02.04.02.05.02.1.04.15.07l.29.13.58.28 1.13.63 1.08.71.26.19c.02.02.24.18.17.13l.25.2c.04.03.08.07.13.1.06.06.06.05-.02-.03l-.1-.39v.05l.1-.39c.18-.16.22-.21.12-.15a.3.3 0 0 0-.08.04l-.2.09-.4.18-.8.35c.07-.03-.05.02-.06.02l-.24.1-.36.15-.85.33c-.37.14-.67.52-.54.94.12.37.54.69.94.54l2.51-1.03c.41-.18.97-.34 1.23-.73.23-.34.15-.78-.11-1.07-.12-.14-.28-.25-.42-.36-1.35-1.06-2.82-1.91-4.4-2.58-.24-.1-.57.02-.75.2-.21.21-.24.47-.2.75l.95 4.54c.1.39.56.66.94.54s.64-.53.54-.94h0z"/></defs><g fill="#ffbe04"><path d="M178.95 20.45l7.09-6.39 3.71-3.09c1.04-.86 2.12-1.84 2.56-3.16.37-1.14.21-2.53-.61-3.45-.9-1.01-2.27-1.11-3.42-.47-1.14.63-1.89 1.79-2.61 2.83l-2.62 3.93c-1.87 2.9-3.64 5.87-5.31 8.88-.03.02-.05.05-.08.07-.11.1-.16.24-.17.39-.13.35.08.78.41.92.4.18.8-.02 1-.38.02-.03.03-.06.05-.09zm18.25 2.14c.12-.98-.34-1.94-1.25-2.36-.88-.41-1.88-.23-2.74.12l-2.87 1.32-6.67 3.08c-.37.17-.6.56-.45.97 0 .03-.01.04-.01.06-.06.37.21.85.62.87 2.02.12 4.03 0 6.03-.22 1.98-.21 4.09-.42 5.77-1.58.77-.53 1.44-1.31 1.56-2.26zm-24.74-11.42l.16-3.47c.03-.97.15-2.01-.09-2.96-.25-1.01-1.12-1.74-2.19-1.69-1.03.05-1.9.79-2.32 1.71-.44.97-.48 2.03-.36 3.08.12 1.04.33 2.08.54 3.11.5 2.39 1.16 4.73 1.99 7.03.08.23.23.37.41.45.08.07.18.12.29.14.37.09.86-.15.91-.56l.66-6.83zM15.21 184.2l-5.53 3.44-2.86 1.63c-.8.45-1.65.98-2.1 1.82-.39.72-.45 1.68 0 2.39.49.79 1.39 1.02 2.24.73.84-.28 1.49-.98 2.09-1.59l2.23-2.33 4.64-5.33c.02-.01.04-.03.06-.04a.36.36 0 0 0 .16-.24c.13-.22.04-.53-.16-.67-.25-.17-.54-.08-.72.14-.01.02-.03.04-.04.05zM3.2 181.93c-.2.65 0 1.34.56 1.74.54.38 1.23.38 1.86.25l2.09-.54 4.85-1.27c.27-.07.47-.31.42-.6 0-.01.01-.02.02-.03.09-.24-.04-.59-.31-.66-1.34-.32-2.71-.48-4.08-.57-1.35-.1-2.8-.21-4.07.37-.58.26-1.12.71-1.32 1.33zm15.75 14.96c.65.18 1.34-.04 1.72-.62.36-.55.34-1.25.18-1.86l-.62-2.06-1.44-4.8c-.08-.27-.32-.46-.61-.4-.01 0-.02-.01-.03-.01-.24-.08-.59.06-.65.34-.27 1.35-.38 2.72-.43 4.1-.05 1.36-.11 2.8.51 4.05.28.57.75 1.1 1.38 1.27zM7.6 44c8.66-2 17.57-3.12 26.26-4.21 12.4-1.55 24.83-2.82 37.27-3.99l40.26-3.44 34.77-2.51 21.5-1.27 1.3-.05c1.75-.06 1.76-2.79 0-2.72-6.44.22-12.88.68-19.32 1.09l-33.77 2.39-40.06 3.35-38.19 3.96c-9.49 1.14-19.04 2.31-28.41 4.25l-2.35.51c-1.71.4-.98 3.02.72 2.63h0z"/><path d="M184.65 129.18l-.49-6.4c0-.02 0-.03-.01-.05l-1.64-19.89-1.94-20.38-2.1-20.13-2.23-20.12-1.15-10.15c-.17-1.48-.41-3-1.33-4.22-.83-1.11-2.17-1.65-3.51-1.82-.73-.09-1.46-.07-2.19-.01l-9.37.9-4.4.42-11.92 1.14-17.44 1.67-21.16 2.03-22.88 2.19-22.61 2.16-20.49 1.96-16.51 1.58-10.52 1.01c-2.96.28-6.83.3-8.07 3.6-.58 1.54-.34 3.25-.23 4.85l.38 4.79c0 .02 0 .04.01.07l1.64 19.87 1.94 20.38 2.1 20.13 2.23 20.12 1.15 10.15c.17 1.48.41 3 1.33 4.22.83 1.11 2.17 1.65 3.51 1.82.73.09 1.46.07 2.19.01l32.05-3.07 26.23-2.52 24.13-2.32 25.76-2.47 31.12-2.98 4.45-.43 9.29-.87 5.65-.53c1.56-.15 3.17-.25 4.57-1.05.87-.49 1.56-1.18 1.99-2.08.53-1.11.55-2.37.49-3.57z"/></g><g clip-path="url(#A)"><path d="M-.067 57.398l185.23-17.02 2.808 30.561L2.741 87.96z" fill="#ffe1a6"/></g><path d="M25.68 73.21c.07-.01.41-.05.02 0l.29-.04.6-.08 1.36-.16 2.82-.29 6.43-.51c5.13-.34 10.26-.57 15.39-.76 12.61-.45 25.22-.61 37.83-.67l40.52.15 35.14.59 21.76.67 1.32.07c1.75.1 1.75-2.62 0-2.72-6.51-.37-13.04-.49-19.56-.66l-34.13-.62-40.31-.22-38.74.56c-9.6.29-19.24.62-28.79 1.72l-2.68.34c-.73.1-1.13 1.03-.95 1.68.22.79.94 1.05 1.68.95h0z" fill="#ff5f00"/><path d="M197.41 176.28l.1-6.55v-.05l.19-20.35-.06-20.88-.26-20.63-.39-20.64-.22-10.41c-.03-1.52-.14-3.08-.96-4.41-.74-1.2-2.05-1.87-3.39-2.17-.73-.16-1.47-.2-2.22-.22l-9.6.04-4.51.02-12.21.05-17.87.07-21.67.08-23.44.09-23.16.09-20.99.08-16.91.06-10.78.04c-3.04.01-6.96-.33-8.53 2.9-.74 1.51-.65 3.27-.68 4.9l-.07 4.9v.07l-.19 20.33.06 20.88.26 20.63.39 20.64.22 10.41c.03 1.52.14 3.08.96 4.41.74 1.2 2.05 1.87 3.39 2.17.73.16 1.47.2 2.22.22l32.83-.13 26.87-.11 24.72-.1 26.39-.11 31.88-.13 4.56-.02 9.51-.02 5.78-.01c1.6 0 3.24.04 4.74-.64.93-.42 1.69-1.05 2.22-1.93.65-1.07.78-2.36.83-3.58z" fill="#f70"/><path d="M134.2 119.22h0c-.17-.45-2.58-4.9-7.04-10.46h0c-.11-.13-.19-.3-.21-.47h0c-.52-5.8-1.34-9.65-1.34-9.65-.13-.66-.7-1.15-1.36-1.23h0l-4.63-.56h0-.12a.98.98 0 0 0-.98.98v1.61s-.03.06-.06.06c-.01 0-.03 0-.04-.01h0c-2.78-2.5-5.9-4.93-9.36-7.06h0c-.66-.44-1.44-.69-2.29-.69h0 0c-.85 0-1.63.25-2.29.69h0c-16 9.88-24.8 25.93-25.14 26.82h0a1.54 1.54 0 0 0-.15.68c0 .74.51 1.36 1.2 1.54l4.61.89c.62.17 1.08.7 1.15 1.35.04.81.91 18.99 2 23.7h0c.18.68.8 1.18 1.53 1.18h.03l7.81-.15h0 .02.2 0c.28 0 .51-.23.51-.52v-.01l-.53-9.04a3.03 3.03 0 0 0-.02-.31h0c-.02-.33-.2-.62-.47-.78-1.38-.83-2.33-2.31-2.42-4.01-.24-6.37-.36-13.74-.02-19.5h0c.03-.48.42-.86.91-.87.51 0 .93.4.94.91v.07h0c-.23 3.84-.25 8.38-.16 12.87h0c.01.61.51 1.09 1.12 1.08s1.09-.51 1.08-1.12h0c-.08-4.51-.06-9.08.17-12.94.03-.48.42-.86.91-.87.51 0 .93.4.94.91v.07c-.23 3.82-.25 8.34-.17 12.79h0c.01.6.51 1.08 1.11 1.07s1.08-.51 1.08-1.11h0c-.08-4.49-.06-9.04.17-12.87.03-.48.42-.86.91-.87.51 0 .93.4.94.91v.07c-.33 5.6-.22 12.69 0 18.92v.06.09.06a4.96 4.96 0 0 1-2.16 4.1c-.23.16-.39.42-.41.72 0 0-.11.96.31 5.58l.42 4.05h0c.03.24.23.43.48.43h0 .44 0 0 2.75.18.18 3.45l2.61.02h0c.25 0 .45-.19.49-.43h0c.61-5.55.75-8.66.75-8.66 0-.28-.21-.49-.5-.53l-3.18-.44h0c-.5-.09-.8-.4-.91-.78-.07-.23-.04-.49-.04-.49 1.29-18.49 7.38-24.72 7.38-24.72.18-.18.3-.26.3-.26a.95.95 0 0 1 .57-.19c.41 0 .77.26.91.62 0 0 .05.13.08.44.53 5.81.27 15.7-.06 23.42l-.61 11.69h0c0 .22.17.39.38.39h0l5.24.11h.03a1.57 1.57 0 0 0 1.53-1.18h0c1.09-4.71 1.97-22.89 2-23.7.07-.65.54-1.18 1.15-1.35l4.61-.89a1.59 1.59 0 0 0 1.2-1.54 1.57 1.57 0 0 0-.15-.68z" fill="#fff"/><g clip-path="url(#B)" fill="#f96700"><path d="M58.85 115.91c-.66-1.75-1.08-3.58-1.2-5.45l-1.15.66c1.84.92 3.71 1.85 5.29 3.19l.16-1.2c-1.23.74-2.52 1.36-3.88 1.83-.39.14-.65.52-.54.94.1.38.55.67.94.54a22.77 22.77 0 0 0 4.24-1.99c.39-.24.54-.88.16-1.2-1.68-1.43-3.63-2.45-5.6-3.43-.48-.24-1.19.04-1.15.66.13 2 .54 3.98 1.26 5.85.15.39.52.65.94.54.37-.1.68-.55.54-.94h0zm34.22-46.94c-.3-.8-.55-1.62-.76-2.45l-.27-1.2-.11-.61-.03-.2-.01-.07c0 .05 0 .04 0-.05 0 .08-.04.15-.11.21l-.93.12 2.71 1.83L96 68.33l.16-1.2c-1.13.7-2.31 1.18-3.62 1.45-.41.08-.64.56-.54.94.12.42.54.62.94.54 1.41-.29 2.76-.84 3.98-1.6.39-.25.54-.87.16-1.2-.83-.73-1.75-1.35-2.66-1.96l-2.8-1.89c-.26-.18-.72-.12-.93.12-.43.49-.35 1.01-.25 1.61l.28 1.41c.22.97.51 1.92.85 2.85.14.39.52.65.94.54.37-.1.68-.55.54-.94h0z"/><use xlink:href="#C"/><path d="M132.25 85.7c-.7-1.84-1.05-3.78-1.38-5.71l-1.13.87c1.85 1.05 3.64 2.23 5.31 3.56l.16-1.2-4.09 2.09c-.37.19-.48.71-.27 1.05.22.37.68.46 1.05.27l4.09-2.09c.4-.21.53-.9.16-1.2-1.78-1.4-3.65-2.68-5.62-3.8-.62-.35-1.24.23-1.13.87.34 1.93.69 3.87 1.38 5.71.15.39.52.65.94.54.37-.1.68-.55.54-.94h0z"/><use xlink:href="#D"/><use xlink:href="#E"/><use xlink:href="#F"/><path d="M38.53 104.07c-.72-1.73-1.21-3.55-1.46-5.41l-1.13.87c1.83.91 3.58 1.97 5.23 3.17l-.16-1.2c-.98.76-2.12 1.4-3.27 1.84-.39.15-.65.51-.54.94.1.37.55.69.94.54 1.43-.55 2.73-1.3 3.94-2.23.43-.33.19-.95-.16-1.2-1.65-1.2-3.4-2.26-5.23-3.17-.28-.14-.6-.14-.85.06s-.32.48-.27.81a22.56 22.56 0 0 0 1.46 5.41c.16.38.51.65.94.54.36-.1.69-.56.54-.94h0zm-17.78 11.72c-.72-1.73-1.21-3.55-1.46-5.41l-1.13.87c1.83.91 3.58 1.97 5.23 3.17l-.16-1.2c-.98.76-2.12 1.4-3.27 1.84-.39.15-.65.51-.54.94.1.37.55.69.94.54 1.43-.55 2.73-1.3 3.94-2.23.43-.33.19-.95-.16-1.2-1.65-1.2-3.4-2.26-5.23-3.17-.28-.14-.6-.14-.85.06s-.32.48-.27.81a22.56 22.56 0 0 0 1.46 5.41c.16.38.51.65.94.54.36-.1.69-.56.54-.94h0z"/><use xlink:href="#G"/><use xlink:href="#H"/><path d="M20.02 139.66l-.4-3.05-.2-1.49-.1-.75-.05-.36c0-.05-.01-.1-.01-.15-.15.21-.17.26-.05.16l-.34.2c-.39-.17-.48-.17-.28-.02l.14.12.29.25.62.54 1.19 1.03 1.19 1.03.57.49c.15.13.49.37.56.47l-.1-.39v.08c.05-.13.08-.26.12-.39l.1-.11-.17.08c-.08.03-.15.07-.23.1l-.51.23-1.09.49-2.12.94c-.38.17-.47.72-.27 1.05.23.39.67.44 1.05.27l3.67-1.64c.31-.14.68-.26.87-.57.23-.38.15-.83-.14-1.15-.44-.48-1-.88-1.49-1.3l-3.05-2.64c-.26-.22-.5-.45-.85-.5-.41-.05-.81.16-1.03.51-.34.56-.08 1.38 0 1.98l.59 4.48c.05.41.31.77.77.77.37 0 .82-.35.77-.77h0zm-7.73-37.15c-.66-1.75-1.08-3.58-1.2-5.45l-1.15.66c1.84.92 3.71 1.85 5.29 3.19l.16-1.2c-1.23.74-2.52 1.36-3.88 1.83-.39.14-.65.52-.54.94.1.38.55.67.94.54a22.77 22.77 0 0 0 4.24-1.99c.39-.24.54-.88.16-1.2-1.68-1.43-3.63-2.45-5.6-3.43-.48-.24-1.19.04-1.15.66.13 2 .54 3.98 1.26 5.85.15.39.52.65.94.54.37-.1.68-.55.54-.94h0zm34.22-46.94c-.3-.8-.55-1.62-.76-2.45l-.27-1.2-.11-.61-.03-.2-.01-.07c0 .05 0 .04 0-.05 0 .08-.04.15-.11.21l-.93.12L47 53.15l2.44 1.78.16-1.2c-1.13.7-2.31 1.18-3.62 1.45-.41.08-.64.56-.54.94.12.42.54.62.94.54 1.41-.29 2.76-.84 3.98-1.6.39-.25.54-.87.16-1.2-.83-.73-1.75-1.35-2.66-1.96l-2.8-1.89c-.26-.18-.72-.12-.93.12-.43.49-.35 1.01-.25 1.61l.28 1.41c.22.97.51 1.92.85 2.85.14.39.52.65.94.54.37-.1.68-.55.54-.94h0zm21.94 8.51c-.7-1.84-1.05-3.78-1.38-5.71l-1.13.87c1.85 1.05 3.64 2.23 5.31 3.56l.16-1.2-4.09 2.09c-.37.19-.48.71-.27 1.05.22.37.68.46 1.05.27l4.09-2.09c.4-.21.53-.9.16-1.2-1.78-1.4-3.65-2.68-5.62-3.8-.62-.35-1.24.23-1.13.87.34 1.93.69 3.87 1.38 5.71.15.39.52.65.94.54.37-.1.68-.55.54-.94h0zM49.59 75.34l-.89-5.67-1.15.66c1.9.94 3.71 2.09 5.36 3.43l.16-1.2c-1.25.86-2.6 1.6-4.01 2.16-.38.15-.65.51-.54.94.1.37.56.69.94.54 1.54-.61 3.01-1.37 4.38-2.31.37-.25.57-.87.16-1.2a29.73 29.73 0 0 0-5.67-3.67c-.46-.23-1.22.04-1.15.66l.94 6.08c.08.41.56.64.94.54.42-.12.62-.54.54-.94h0zM31.3 88.33l-.95-4.54-.94.94c-.06-.02-.05-.02.04.02a1.01 1.01 0 0 1 .15.07l.29.13.58.28 1.13.63 1.08.71.26.19c.02.02.24.18.17.13l.25.2c.04.03.08.07.13.1.06.06.06.05-.02-.03l-.1-.39v.05l.1-.39c.18-.16.22-.21.12-.15a.3.3 0 0 0-.08.04l-.2.09-.4.18-.8.35c.07-.03-.05.02-.06.02l-.24.1-.36.15-.85.33c-.37.14-.67.52-.54.94.12.37.54.69.94.54l2.51-1.03c.41-.18.97-.34 1.23-.73.23-.34.15-.78-.11-1.07-.12-.14-.28-.25-.42-.36-1.35-1.06-2.82-1.91-4.4-2.58-.24-.1-.57.02-.75.2-.21.21-.24.47-.2.75l.95 4.54c.1.39.56.66.94.54s.64-.53.54-.94h0zm-2.7-20.54c-.47-2.09-.76-4.2-.88-6.34l-1.15.66 2.72 1.91 1.21.94.67.54c.13.11.32.22.35.36l.35-.87-4.38 2.03c-.38.16-.46.72-.27 1.05.23.39.67.44 1.05.27l4.38-2.03c.31-.16.42-.55.35-.87-.14-.61-.66-.98-1.12-1.35l-1.51-1.18-3.01-2.13c-.47-.31-1.18.09-1.15.66a41.25 41.25 0 0 0 .93 6.74c.09.4.56.64.94.54.42-.11.63-.54.54-.94h0z"/><use xlink:href="#I"/><path d="m158.41,91.72c-.66-1.75-1.08-3.58-1.2-5.45l-1.15.66c1.84.92,3.71,1.85,5.29,3.19l.16-1.2c-1.23.74-2.52,1.36-3.88,1.83-.39.14-.65.52-.54.94.1.38.55.67.94.54,1.48-.52,2.9-1.18,4.24-1.99.39-.24.54-.88.16-1.2-1.68-1.43-3.63-2.45-5.6-3.43-.48-.24-1.19.04-1.15.66.13,2,.54,3.98,1.26,5.85.15.39.52.65.94.54.37-.1.68-.55.54-.94h0Z"/><use xlink:href="#J"/><path d="M195.72 64.54l-.89-5.67-1.15.66c1.9.94 3.71 2.09 5.36 3.43l.16-1.2c-1.25.86-2.6 1.6-4.01 2.16-.38.15-.65.51-.54.94.1.37.56.69.94.54 1.54-.61 3.01-1.37 4.38-2.31.37-.25.57-.87.16-1.2a29.73 29.73 0 0 0-5.67-3.67c-.46-.23-1.22.04-1.15.66l.94 6.08c.08.41.56.64.94.54.42-.12.62-.54.54-.94h0zm-18.3 13l-.95-4.54-.94.94c-.06-.02-.05-.02.04.02a1.01 1.01 0 0 1 .15.07l.29.13.58.28 1.13.63 1.08.71.26.19c.02.02.24.18.17.13l.25.2c.04.03.08.07.13.1.06.06.06.05-.02-.03l-.1-.39v.05l.1-.39c.18-.16.22-.21.12-.15a.3.3 0 0 0-.08.04l-.2.09-.4.18-.8.35c.07-.03-.05.02-.06.02l-.24.1-.36.15-.85.33c-.37.14-.67.52-.54.94.12.37.54.69.94.54l2.51-1.03c.41-.18.97-.34 1.23-.73.23-.34.15-.78-.11-1.07-.12-.14-.28-.25-.42-.36-1.35-1.06-2.82-1.91-4.4-2.58-.24-.1-.57.02-.75.2-.21.21-.24.47-.2.75l.95 4.54c.1.39.56.66.94.54s.64-.53.54-.94h0zm-2.69-20.55c-.47-2.09-.76-4.2-.88-6.34l-1.15.66 2.72 1.91 1.21.94.67.54c.13.11.32.22.35.36l.35-.87-4.38 2.03c-.38.16-.46.72-.27 1.05.23.39.67.44 1.05.27l4.38-2.03c.31-.16.42-.55.35-.87-.14-.61-.66-.98-1.12-1.35l-1.51-1.18-3.01-2.13c-.47-.31-1.18.09-1.15.66a41.25 41.25 0 0 0 .93 6.74c.09.4.56.64.94.54.42-.11.63-.54.54-.94h0zm-26.12 17.4c-.72-1.73-1.21-3.55-1.46-5.41l-1.13.87c1.83.91 3.58 1.97 5.23 3.17l-.16-1.2c-.98.76-2.12 1.4-3.27 1.84-.39.15-.65.51-.54.94.1.37.55.69.94.54 1.43-.55 2.73-1.3 3.94-2.23.43-.33.19-.95-.16-1.2-1.65-1.2-3.4-2.26-5.23-3.17-.28-.14-.6-.14-.85.06s-.32.48-.27.81a22.56 22.56 0 0 0 1.46 5.41c.16.38.51.65.94.54.36-.1.69-.56.54-.94h0zm9.48-7.29l-.33-2.69-.11-1.34-.04-.67a5.09 5.09 0 0 0-.02-.39v-.17c0-.14-.01-.08-.05.16l-.27.27.05-.03-.39.1c-.19-.07-.21-.06-.07.02l.13.09.3.22.51.38 1.06.83 2.13 1.85.16-1.2c-1.14.78-2.38 1.4-3.7 1.81-.39.12-.65.53-.54.94.11.39.55.66.94.54 1.44-.46 2.82-1.11 4.07-1.97.39-.27.54-.85.16-1.2l-2.42-2.09-1.34-1.03c-.45-.34-.99-.87-1.6-.7-.73.2-.67.98-.63 1.56l.12 1.68.42 3.43c.06.41.58.64.94.54.44-.12.6-.53.54-.94h0zm-20.73 36.67l-.4-3.05-.2-1.49-.1-.75-.05-.36c0-.05-.01-.1-.01-.15-.15.21-.17.26-.05.16l-.34.2c-.39-.17-.48-.17-.28-.02l.14.12.29.25.62.54 1.19 1.03 1.19 1.03.57.49c.15.13.49.37.56.47l-.1-.39v.08c.05-.13.08-.26.12-.39l.1-.11-.17.08c-.08.03-.15.07-.23.1l-.51.23-1.09.49-2.12.94c-.38.17-.47.72-.27 1.05.23.39.67.44 1.05.27l3.67-1.64c.31-.14.68-.26.87-.57.23-.38.15-.83-.14-1.15-.44-.48-1-.88-1.49-1.3l-3.05-2.64c-.26-.22-.5-.45-.85-.5-.41-.05-.81.16-1.03.51-.34.56-.08 1.38 0 1.98l.59 4.48c.05.41.31.77.77.77.37 0 .82-.35.77-.77h0zm32.5 27.58c-.66-1.75-1.08-3.58-1.2-5.45l-1.15.66c1.84.92 3.71 1.85 5.29 3.19l.16-1.2c-1.23.74-2.52 1.36-3.88 1.83-.39.14-.65.52-.54.94.1.38.55.67.94.54a22.77 22.77 0 0 0 4.24-1.99c.39-.24.54-.88.16-1.2-1.68-1.43-3.63-2.45-5.6-3.43-.48-.24-1.19.04-1.15.66.13 2 .54 3.98 1.26 5.85.15.39.52.65.94.54.37-.1.68-.55.54-.94h0zm19.01-14.18l-.95-4.54-.94.94c-.06-.02-.05-.02.04.02a1.01 1.01 0 0 1 .15.07l.29.13.58.28 1.13.63 1.08.71.26.19c.02.02.24.18.17.13l.25.2c.04.03.08.07.13.1.06.06.06.05-.02-.03l-.1-.39v.05l.1-.39c.18-.16.22-.21.12-.15a.3.3 0 0 0-.08.04l-.2.09-.4.18-.8.35c.07-.03-.05.02-.06.02l-.24.1-.36.15-.85.33c-.37.14-.67.52-.54.94.12.37.54.69.94.54l2.51-1.03c.41-.18.97-.34 1.23-.73.23-.34.15-.78-.11-1.07-.12-.14-.28-.25-.42-.36-1.35-1.06-2.82-1.91-4.4-2.58-.24-.1-.57.02-.75.2-.21.21-.24.47-.2.75l.95 4.54c.1.39.56.66.94.54s.64-.53.54-.94h0zm-2.69-20.54c-.47-2.09-.76-4.2-.88-6.34l-1.15.66 2.72 1.91 1.21.94.67.54c.13.11.32.22.35.36l.35-.87-4.38 2.03c-.38.16-.46.72-.27 1.05.23.39.67.44 1.05.27l4.38-2.03c.31-.16.42-.55.35-.87-.14-.61-.66-.98-1.12-1.35l-1.51-1.18-3.01-2.13c-.47-.31-1.18.09-1.15.66a41.25 41.25 0 0 0 .93 6.74c.09.4.56.64.94.54.42-.11.63-.54.54-.94h0zm-36.63 22.88c-.72-1.73-1.21-3.55-1.46-5.41l-1.13.87c1.83.91 3.58 1.97 5.23 3.17l-.16-1.2c-.98.76-2.12 1.4-3.27 1.84-.39.15-.65.51-.54.94.1.37.55.69.94.54 1.43-.55 2.73-1.3 3.94-2.23.43-.33.19-.95-.16-1.2-1.65-1.2-3.4-2.26-5.23-3.17-.28-.14-.6-.14-.85.06s-.32.48-.27.81a22.56 22.56 0 0 0 1.46 5.41c.16.38.51.65.94.54.36-.1.69-.56.54-.94h0zm19.99-12.78l-.33-2.69-.11-1.34-.04-.67a5.09 5.09 0 0 0-.02-.39v-.17c0-.14-.01-.08-.05.16l-.27.27.05-.03-.39.1c-.19-.07-.21-.06-.07.02l.13.09.3.22.51.38 1.06.83 2.13 1.85.16-1.2c-1.14.78-2.38 1.4-3.7 1.81-.39.12-.65.53-.54.94.11.39.55.66.94.54 1.44-.46 2.82-1.11 4.07-1.97.39-.27.54-.85.16-1.2l-2.42-2.09-1.34-1.03c-.45-.34-.99-.87-1.6-.7-.73.2-.67.98-.63 1.56l.12 1.68.42 3.43c.06.41.58.64.94.54.44-.12.6-.53.54-.94h0zm-20.73 36.67l-.4-3.05-.2-1.49-.1-.75-.05-.36c0-.05-.01-.1-.01-.15-.15.21-.17.26-.05.16l-.34.2c-.39-.17-.48-.17-.28-.02l.14.12.29.25.62.54 1.19 1.03 1.19 1.03.57.49c.15.13.49.37.56.47l-.1-.39v.08c.05-.13.08-.26.12-.39l.1-.11-.17.08c-.08.03-.15.07-.23.1l-.51.23-1.09.49-2.12.94c-.38.17-.47.72-.27 1.05.23.39.67.44 1.05.27l3.67-1.64c.31-.14.68-.26.87-.57.23-.38.15-.83-.14-1.15-.44-.48-1-.88-1.49-1.3l-3.05-2.64c-.26-.22-.5-.45-.85-.5-.41-.05-.81.16-1.03.51-.34.56-.08 1.38 0 1.98l.59 4.48c.05.41.31.77.77.77.37 0 .82-.35.77-.77h0zm-32.05 25c-.7-1.84-1.05-3.78-1.38-5.71l-1.13.87c1.85 1.05 3.64 2.23 5.31 3.56l.16-1.2-4.09 2.09c-.37.19-.48.71-.27 1.05.22.37.68.46 1.05.27l4.09-2.09c.4-.21.53-.9.16-1.2-1.78-1.4-3.65-2.68-5.62-3.8-.62-.35-1.24.23-1.13.87.34 1.93.69 3.87 1.38 5.71.15.39.52.65.94.54.37-.1.68-.55.54-.94h0zm19.72-15.83c-.7-1.84-1.05-3.78-1.38-5.71l-1.13.87c1.85 1.05 3.64 2.23 5.31 3.56l.16-1.2-4.09 2.09c-.37.19-.48.71-.27 1.05.22.37.68.46 1.05.27l4.09-2.09c.4-.21.53-.9.16-1.2-1.78-1.4-3.65-2.68-5.62-3.8-.62-.35-1.24.23-1.13.87.34 1.93.69 3.87 1.38 5.71.15.39.52.65.94.54.37-.1.68-.55.54-.94h0zm-37.49 29.76l-.89-5.67-1.15.66c1.9.94 3.71 2.09 5.36 3.43l.16-1.2c-1.25.86-2.6 1.6-4.01 2.16-.38.15-.65.51-.54.94.1.37.56.69.94.54 1.54-.61 3.01-1.37 4.38-2.31.37-.25.57-.87.16-1.2a29.73 29.73 0 0 0-5.67-3.67c-.46-.23-1.22.04-1.15.66l.94 6.08c.08.41.56.64.94.54.42-.12.62-.54.54-.94h0z"/><use xlink:href="#K"/><path d="M78 174.78c-.47-2.09-.76-4.2-.88-6.34l-1.15.66 2.72 1.91 1.21.94.67.54c.13.11.32.22.35.36l.35-.87-4.38 2.03c-.38.16-.46.72-.27 1.05.23.39.67.44 1.05.27l4.38-2.03c.31-.16.42-.55.35-.87-.14-.61-.66-.98-1.12-1.35l-1.51-1.18-3.01-2.13c-.47-.31-1.18.09-1.15.66a41.25 41.25 0 0 0 .93 6.74c.09.4.56.64.94.54.42-.11.63-.54.54-.94h0zm-36.63 22.88c-.72-1.73-1.21-3.55-1.46-5.41l-1.13.87c1.83.91 3.58 1.97 5.23 3.17l-.16-1.2c-.98.76-2.12 1.4-3.27 1.84-.39.15-.65.51-.54.94.1.37.55.69.94.54 1.43-.55 2.73-1.3 3.94-2.23.43-.33.19-.95-.16-1.2-1.65-1.2-3.4-2.26-5.23-3.17-.28-.14-.6-.14-.85.06s-.32.48-.27.81a22.56 22.56 0 0 0 1.46 5.41c.16.38.51.65.94.54.36-.1.69-.56.54-.94h0zm19.99-12.78l-.33-2.69-.11-1.34-.04-.67c0-.13-.01-.26-.02-.39v-.17c0-.14-.01-.08-.05.16l-.27.27.05-.03-.39.1c-.19-.07-.21-.06-.07.02l.13.09.3.22.51.38 1.06.83 2.13 1.85.16-1.2c-1.14.78-2.38 1.4-3.7 1.81-.39.12-.65.53-.54.94.11.39.55.66.94.54 1.44-.46 2.82-1.11 4.07-1.97.39-.27.54-.85.16-1.2l-2.42-2.09-1.34-1.03c-.45-.34-.99-.87-1.6-.7-.73.2-.67.98-.63 1.56l.12 1.68.42 3.43c.06.41.58.64.94.54.44-.12.6-.53.54-.94h0zm95.69-1.03c-.66-1.75-1.08-3.58-1.2-5.45l-1.15.66c1.84.92 3.71 1.85 5.29 3.19l.16-1.2c-1.23.74-2.52 1.36-3.88 1.83-.39.14-.65.52-.54.94.1.38.55.67.94.54a22.77 22.77 0 0 0 4.24-1.99c.39-.24.54-.88.16-1.2-1.68-1.43-3.63-2.45-5.6-3.43-.48-.24-1.19.04-1.15.66.13 2 .54 3.98 1.26 5.85.15.39.52.65.94.54.37-.1.68-.55.54-.94h0zm31.86-41.29c-.3-.8-.55-1.62-.76-2.45l-.27-1.2-.11-.61-.03-.2-.01-.07c0 .05 0 .04 0-.05 0 .08-.04.15-.11.21l-.93.12 2.71 1.83 2.44 1.78.16-1.2c-1.13.7-2.31 1.18-3.62 1.45-.41.08-.64.56-.54.94.12.42.54.62.94.54 1.41-.29 2.76-.84 3.98-1.6.39-.25.54-.87.16-1.2-.83-.73-1.75-1.35-2.66-1.96l-2.8-1.89c-.26-.18-.72-.12-.93.12-.43.49-.35 1.01-.25 1.61l.28 1.41c.22.97.51 1.92.85 2.85.14.39.52.65.94.54.37-.1.68-.55.54-.94h0zm3.09 19.77l-.89-5.67-1.15.66c1.9.94 3.71 2.09 5.36 3.43l.16-1.2c-1.25.86-2.6 1.6-4.01 2.16-.38.15-.65.51-.54.94.1.37.56.69.94.54 1.54-.61 3.01-1.37 4.38-2.31.37-.25.57-.87.16-1.2a29.73 29.73 0 0 0-5.67-3.67c-.46-.23-1.22.04-1.15.66l.94 6.08c.08.41.56.64.94.54.42-.12.62-.54.54-.94h0zm-18.3 12.99l-.95-4.54-.94.94c-.06-.02-.05-.02.04.02.05.02.1.04.15.07l.29.13.58.28 1.13.63 1.08.71.26.19c.02.02.24.18.17.13l.25.2c.04.03.08.07.13.1.06.06.06.05-.02-.03l-.1-.39v.05l.1-.39c.18-.16.22-.21.12-.15a.3.3 0 0 0-.08.04l-.2.09-.4.18-.8.35c.07-.03-.05.02-.06.02l-.24.1-.36.15-.85.33c-.37.14-.67.52-.54.94.12.37.54.69.94.54l2.51-1.03c.41-.18.97-.34 1.23-.73.23-.34.15-.78-.11-1.07-.12-.14-.28-.25-.42-.36-1.35-1.06-2.82-1.91-4.4-2.58-.24-.1-.57.02-.75.2-.21.21-.24.47-.2.75l.95 4.54c.1.39.56.66.94.54s.64-.53.54-.94h0zm-2.69-20.54c-.47-2.09-.76-4.2-.88-6.34l-1.15.66 2.72 1.91 1.21.94.67.54c.13.11.32.22.35.36l.35-.87-4.38 2.03c-.38.16-.46.72-.27 1.05.23.39.67.44 1.05.27l4.38-2.03c.31-.16.42-.55.35-.87-.14-.61-.66-.98-1.12-1.35l-1.51-1.18-3.01-2.13c-.47-.31-1.18.09-1.15.66a41.25 41.25 0 0 0 .93 6.74c.09.4.56.64.94.54.42-.11.63-.54.54-.94h0zm-36.64 22.88c-.72-1.73-1.21-3.55-1.46-5.41l-1.13.87c1.83.91 3.58 1.97 5.23 3.17l-.16-1.2c-.98.76-2.12 1.4-3.27 1.84-.39.15-.65.51-.54.94.1.37.55.69.94.54 1.43-.55 2.73-1.3 3.94-2.23.43-.33.19-.95-.16-1.2-1.65-1.2-3.4-2.26-5.23-3.17-.28-.14-.6-.14-.85.06s-.32.48-.27.81a22.56 22.56 0 0 0 1.46 5.41c.16.38.51.65.94.54.36-.1.69-.56.54-.94h0zm20-12.78l-.33-2.69-.11-1.34-.04-.67c0-.13-.01-.26-.02-.39v-.17c0-.14-.01-.08-.05.16l-.27.27.05-.03-.39.1c-.19-.07-.21-.06-.07.02l.13.09.3.22.51.38 1.06.83 2.13 1.85.16-1.2c-1.14.78-2.38 1.4-3.7 1.81-.39.12-.65.53-.54.94.11.39.55.66.94.54 1.44-.46 2.82-1.11 4.07-1.97.39-.27.54-.85.16-1.2l-2.42-2.09-1.34-1.03c-.45-.34-.99-.87-1.6-.7-.73.2-.67.98-.63 1.56l.12 1.68.42 3.43c.06.41.58.64.94.54.44-.12.6-.53.54-.94h0zm-20.73 36.67l-.4-3.05-.2-1.49-.1-.75-.05-.36c0-.05-.01-.1-.01-.15-.15.21-.17.26-.05.16l-.34.2c-.39-.17-.48-.17-.28-.02l.14.12.29.25.62.54 1.19 1.03 1.19 1.03.57.49c.15.13.49.37.56.47l-.1-.39v.08c.05-.13.08-.26.12-.39l.1-.11-.17.08c-.08.03-.15.07-.23.1l-.51.23-1.09.49-2.12.94c-.38.17-.47.72-.27 1.05.23.39.67.44 1.05.27l3.67-1.64c.31-.14.68-.26.87-.57.23-.38.15-.83-.14-1.15-.44-.48-1-.88-1.49-1.3l-3.05-2.64c-.26-.22-.5-.45-.85-.5-.41-.05-.81.16-1.03.51-.34.56-.08 1.38 0 1.98l.59 4.48c.05.41.31.77.77.77.37 0 .82-.35.77-.77h0zm-79.36-35.92c-.66-1.75-1.08-3.58-1.2-5.45l-1.15.66c1.84.92 3.71 1.85 5.29 3.19l.16-1.2c-1.23.74-2.52 1.36-3.88 1.83-.39.14-.65.52-.54.94.1.38.55.67.94.54a22.77 22.77 0 0 0 4.24-1.99c.39-.24.54-.88.16-1.2-1.68-1.43-3.63-2.45-5.6-3.43-.48-.24-1.19.04-1.15.66.13 2 .54 3.98 1.26 5.85.15.39.52.65.94.54.37-.1.68-.55.54-.94h0z"/><path d="M73.29 151.45l-.95-4.54-.94.94c-.06-.02-.05-.02.04.02.05.02.1.04.15.07l.29.13.58.28 1.13.63 1.08.71.26.19c.02.02.24.18.17.13l.25.2c.04.03.08.07.13.1.06.06.06.05-.02-.03l-.1-.39v.05l.1-.39c.18-.16.22-.21.12-.15a.3.3 0 0 0-.08.04l-.2.09-.4.18-.8.35c.07-.03-.05.02-.06.02l-.24.1-.36.15-.85.33c-.37.14-.67.52-.54.94.12.37.54.69.94.54l2.51-1.03c.41-.18.97-.34 1.23-.73.23-.34.15-.78-.11-1.07-.12-.14-.28-.25-.42-.36-1.35-1.06-2.82-1.91-4.4-2.58-.24-.1-.57.02-.75.2-.21.21-.24.47-.2.75l.95 4.54c.1.39.56.66.94.54s.64-.53.54-.94h0zm-2.69-20.54c-.47-2.09-.76-4.2-.88-6.34l-1.15.66 2.72 1.91 1.21.94.67.54c.13.11.32.22.35.36l.35-.87-4.38 2.03c-.38.16-.46.72-.27 1.05.23.39.67.44 1.05.27l4.38-2.03c.31-.16.42-.55.35-.87-.14-.61-.66-.98-1.12-1.35l-1.51-1.18-3.01-2.13c-.47-.31-1.18.09-1.15.66a41.25 41.25 0 0 0 .93 6.74c.09.4.56.64.94.54.42-.11.63-.54.54-.94h0zm-36.63 22.88c-.72-1.73-1.21-3.55-1.46-5.41l-1.13.87c1.83.91 3.58 1.97 5.23 3.17l-.16-1.2c-.98.76-2.12 1.4-3.27 1.84-.39.15-.65.51-.54.94.1.37.55.69.94.54 1.43-.55 2.73-1.3 3.94-2.23.43-.33.19-.95-.16-1.2-1.65-1.2-3.4-2.26-5.23-3.17-.28-.14-.6-.14-.85.06s-.32.48-.27.81a22.56 22.56 0 0 0 1.46 5.41c.16.38.51.65.94.54.36-.1.69-.56.54-.94h0zm19.99-12.78l-.33-2.69-.11-1.34-.04-.67c0-.13-.01-.26-.02-.39v-.17c0-.14-.01-.08-.05.16l-.27.27.05-.03-.39.1c-.19-.07-.21-.06-.07.02l.13.09.3.22.51.38 1.06.83 2.13 1.85.16-1.2c-1.14.78-2.38 1.4-3.7 1.81-.39.12-.65.53-.54.94.11.39.55.66.94.54 1.44-.46 2.82-1.11 4.07-1.97.39-.27.54-.85.16-1.2l-2.42-2.09-1.34-1.03c-.45-.34-.99-.87-1.6-.7-.73.2-.67.98-.63 1.56l.12 1.68.42 3.43c.06.41.58.64.94.54.44-.12.6-.53.54-.94h0zm-20.73 36.67l-.4-3.05-.2-1.49-.1-.75-.05-.36c0-.05-.01-.1-.01-.15-.15.21-.17.26-.05.16l-.34.2c-.39-.17-.48-.17-.28-.02l.14.12.29.25.62.54 1.19 1.03 1.19 1.03.57.49c.15.13.49.37.56.47l-.1-.39v.08c.05-.13.08-.26.12-.39l.1-.11-.17.08c-.08.03-.15.07-.23.1l-.51.23-1.09.49-2.12.94c-.38.17-.47.72-.27 1.05.23.39.67.44 1.05.27l3.67-1.64c.31-.14.68-.26.87-.57.23-.38.15-.83-.14-1.15-.44-.48-1-.88-1.49-1.3L33 171.2c-.26-.22-.5-.45-.85-.5-.41-.05-.81.16-1.03.51-.34.56-.08 1.38 0 1.98l.59 4.48c.05.41.31.77.77.77.37 0 .82-.35.77-.77h0z"/></g><path d="M135.04 159.58c0-.41-.35-.77-.77-.77H79.03c-.41 0-.77.35-.77.77v4.2c0 .41.35.77.77.77h55.24c.21 0 .37-.08.49-.19.02-.01.04-.02.05-.04s.02-.03.04-.05c.11-.12.19-.28.19-.49v-4.2z" fill="#ffdf9d"/><path d="M177.46 67.14c0-.83-13.18-1.52-34.48-1.98l-83.23-.53-23.73.16c-1.97.03-4.01.1-6.1.45-2.08.34-4.27.95-6.27 2.16-2.01 1.16-3.71 2.98-4.78 4.94-1.1 1.97-1.63 4.02-1.96 5.96-.6 3.9-.38 7.45-.35 10.74l.19 9.7.44 17.42c.64 21.3 1.44 34.47 2.27 34.47s1.52-13.18 1.97-34.48l.29-17.42.11-9.71c.05-3.37-.03-6.72.53-9.79.29-1.52.72-2.95 1.42-4.12.34-.59.73-1.12 1.2-1.58a6.67 6.67 0 0 1 1.57-1.2c2.37-1.38 5.82-1.67 9.51-1.67l23.71-.04L143 69.39c21.3-.63 34.47-1.44 34.47-2.27z" fill="#fff"/></svg>