<svg id="Illustration" xmlns="http://www.w3.org/2000/svg" viewBox="0 0 200 200"><defs><clipPath id="clippath"><path class="cls-2" d="M184.65 129.18c-.12-2.14-.29-4.28-.49-6.4 0-.02 0-.03-.01-.05-.5-6.63-1.05-13.26-1.64-19.89-.61-6.8-1.26-13.59-1.94-20.38-.67-6.71-1.38-13.42-2.1-20.13-.73-6.71-1.47-13.41-2.23-20.12-.38-3.38-.76-6.77-1.15-10.15-.17-1.48-.41-3-1.33-4.22-.83-1.11-2.17-1.65-3.51-1.82-.73-.09-1.46-.07-2.19-.01l-9.37.9-4.4.42-11.92 1.14c-5.81.56-11.63 1.11-17.44 1.67-7.05.68-14.1 1.35-21.16 2.03l-22.88 2.19-22.61 2.16c-6.83.65-13.66 1.31-20.49 1.96-5.5.53-11 1.05-16.51 1.58-3.51.34-7.01.67-10.52 1.01-2.96.28-6.83.3-8.07 3.6-.58 1.54-.34 3.25-.23 4.85.12 1.6.22 3.19.38 4.79 0 .02 0 .04.01.07.5 6.63 1.05 13.25 1.64 19.87.61 6.8 1.26 13.59 1.94 20.38.67 6.71 1.38 13.42 2.1 20.13.73 6.71 1.47 13.41 2.23 20.12.38 3.38.76 6.77 1.15 10.15.17 1.48.41 3 1.33 4.22.83 1.11 2.17 1.65 3.51 1.82.73.09 1.46.07 2.19.01 10.68-1.02 21.37-2.05 32.05-3.07l26.23-2.52c8.04-.77 16.09-1.55 24.13-2.32a22425 22425 0 0 1 25.76-2.47c10.37-1 20.75-1.99 31.12-2.98 1.48-.14 2.97-.28 4.45-.43l9.29-.87c1.88-.18 3.76-.35 5.65-.53 1.56-.15 3.17-.25 4.57-1.05.87-.49 1.56-1.18 1.99-2.08.53-1.11.55-2.37.49-3.57Z"/></clipPath><clipPath id="clippath-2"><path class="cls-2" d="M197.41 176.28c.08-2.18.11-4.37.1-6.55v-.05c.11-6.78.17-13.57.19-20.35.02-6.96 0-13.92-.06-20.88-.06-6.88-.15-13.76-.26-20.63-.11-6.88-.24-13.76-.39-20.64-.07-3.47-.14-6.94-.22-10.41-.03-1.52-.14-3.08-.96-4.41-.74-1.2-2.05-1.87-3.39-2.17-.73-.16-1.47-.2-2.22-.22-3.2.01-6.4.02-9.6.04-1.5 0-3.01.01-4.51.02-4.07.02-8.14.03-12.21.05-5.96.02-11.91.05-17.87.07-7.22.03-14.45.06-21.67.08l-23.44.09-23.16.09c-7 .03-13.99.05-20.99.08l-16.91.06c-3.59.01-7.18.03-10.78.04-3.04.01-6.96-.33-8.53 2.9-.74 1.51-.65 3.27-.68 4.9-.03 1.63-.07 3.26-.07 4.9v.07c-.11 6.78-.17 13.56-.19 20.33-.02 6.96 0 13.92.06 20.88.06 6.88.15 13.76.26 20.63.11 6.88.24 13.76.39 20.64.07 3.47.14 6.94.22 10.41.03 1.52.14 3.08.96 4.41.74 1.2 2.05 1.87 3.39 2.17.73.16 1.47.2 2.22.22 10.94-.04 21.89-.08 32.83-.13 8.96-.04 17.91-.07 26.87-.11 8.24-.03 16.48-.07 24.72-.1 8.8-.04 17.59-.07 26.39-.11 10.63-.04 21.25-.09 31.88-.13 1.52 0 3.04-.01 4.56-.02 3.17 0 6.34-.01 9.51-.02 1.93 0 3.86 0 5.78-.01 1.6 0 3.24.04 4.74-.64.93-.42 1.69-1.05 2.22-1.93.65-1.07.78-2.36.83-3.58Z"/></clipPath><clipPath id="clippath-3"><path class="cls-2" d="M381.77 196.28H262.13c-6.22 0-11.14-1.84-11.14-17.26v-71.68h141.16l.72 79.22c0 5.36-5.73 9.71-11.09 9.71Z"/></clipPath><style>.cls-2{fill:none}.cls-2,.cls-3,.cls-6,.cls-8,.cls-9{stroke-width:0}.cls-3{fill:#f96700}.cls-6{fill:#fff}.cls-8{fill:#ffb2c1}.cls-9{fill:#ffbe04}</style></defs><path class="cls-9" d="M178.95 20.45c2.31-2.19 4.67-4.32 7.09-6.39 1.22-1.05 2.47-2.06 3.71-3.09 1.04-.86 2.12-1.84 2.56-3.16.37-1.14.21-2.53-.61-3.45-.9-1.01-2.27-1.11-3.42-.47-1.14.63-1.89 1.79-2.61 2.83-.89 1.3-1.76 2.61-2.62 3.93-1.87 2.9-3.64 5.87-5.31 8.88-.03.02-.05.05-.08.07-.11.1-.16.24-.17.39-.13.35.08.78.41.92.4.18.8-.02 1-.38.02-.03.03-.06.05-.09ZM197.2 22.59c.12-.98-.34-1.94-1.25-2.36-.88-.41-1.88-.23-2.74.12-.97.4-1.91.88-2.87 1.32-2.22 1.03-4.44 2.06-6.67 3.08-.37.17-.6.56-.45.97v.01c0 .02-.01.03-.01.05-.06.37.21.85.62.87 2.02.12 4.03 0 6.03-.22 1.98-.21 4.09-.42 5.77-1.58.77-.53 1.44-1.31 1.56-2.26ZM172.46 11.17c.07-1.16.13-2.31.16-3.47.03-.97.15-2.01-.09-2.96-.25-1.01-1.12-1.74-2.19-1.69-1.03.05-1.9.79-2.32 1.71-.44.97-.48 2.03-.36 3.08.12 1.04.33 2.08.54 3.11.5 2.39 1.16 4.73 1.99 7.03.08.23.23.37.41.45.08.07.18.12.29.14.37.09.86-.15.91-.56.29-2.27.51-4.55.66-6.83ZM15.21 184.2c-1.81 1.2-3.66 2.34-5.53 3.44-.95.56-1.91 1.09-2.86 1.63-.8.45-1.65.98-2.1 1.82-.39.72-.45 1.68 0 2.39.49.79 1.39 1.02 2.24.73.84-.28 1.49-.98 2.09-1.59.75-.76 1.5-1.54 2.23-2.33 1.6-1.73 3.15-3.51 4.64-5.33.02-.01.04-.03.06-.04a.36.36 0 0 0 .16-.24c.13-.22.04-.53-.16-.67-.25-.17-.54-.08-.72.14-.01.02-.03.04-.04.05ZM3.2 181.93c-.2.65 0 1.34.56 1.74.54.38 1.23.38 1.86.25.7-.15 1.39-.36 2.09-.54 1.62-.42 3.23-.85 4.85-1.27.27-.07.47-.31.42-.6 0-.01.01-.02.02-.03.09-.24-.04-.59-.31-.66-1.34-.32-2.71-.48-4.08-.57-1.35-.1-2.8-.21-4.07.37-.58.26-1.12.71-1.32 1.33ZM18.95 196.89c.65.18 1.34-.04 1.72-.62.36-.55.34-1.25.18-1.86-.18-.69-.41-1.38-.62-2.06l-1.44-4.8c-.08-.27-.32-.46-.61-.4-.01 0-.02-.01-.03-.01-.24-.08-.59.06-.65.34-.27 1.35-.38 2.72-.43 4.1-.05 1.36-.11 2.8.51 4.05.28.57.75 1.1 1.38 1.27ZM7.6 44c8.66-2 17.57-3.12 26.26-4.21 12.4-1.55 24.83-2.82 37.27-3.99 13.41-1.26 26.83-2.39 40.26-3.44 11.59-.9 23.18-1.75 34.77-2.51 7.16-.47 14.33-.96 21.5-1.27.43-.02.87-.04 1.3-.05 1.75-.06 1.76-2.79 0-2.72-6.44.22-12.88.68-19.32 1.09-11.26.73-22.52 1.53-33.77 2.39-13.36 1.02-26.72 2.13-40.06 3.35-12.74 1.17-25.48 2.43-38.19 3.96-9.49 1.14-19.04 2.31-28.41 4.25-.78.16-1.57.33-2.35.51-1.71.4-.98 3.02.72 2.63Z"/><path class="cls-9" d="M184.65 129.18c-.12-2.14-.29-4.28-.49-6.4 0-.02 0-.03-.01-.05-.5-6.63-1.05-13.26-1.64-19.89-.61-6.8-1.26-13.59-1.94-20.38-.67-6.71-1.38-13.42-2.1-20.13-.73-6.71-1.47-13.41-2.23-20.12-.38-3.38-.76-6.77-1.15-10.15-.17-1.48-.41-3-1.33-4.22-.83-1.11-2.17-1.65-3.51-1.82-.73-.09-1.46-.07-2.19-.01l-9.37.9-4.4.42-11.92 1.14c-5.81.56-11.63 1.11-17.44 1.67-7.05.68-14.1 1.35-21.16 2.03l-22.88 2.19-22.61 2.16c-6.83.65-13.66 1.31-20.49 1.96-5.5.53-11 1.05-16.51 1.58-3.51.34-7.01.67-10.52 1.01-2.96.28-6.83.3-8.07 3.6-.58 1.54-.34 3.25-.23 4.85.12 1.6.22 3.19.38 4.79 0 .02 0 .04.01.07.5 6.63 1.05 13.25 1.64 19.87.61 6.8 1.26 13.59 1.94 20.38.67 6.71 1.38 13.42 2.1 20.13.73 6.71 1.47 13.41 2.23 20.12.38 3.38.76 6.77 1.15 10.15.17 1.48.41 3 1.33 4.22.83 1.11 2.17 1.65 3.51 1.82.73.09 1.46.07 2.19.01 10.68-1.02 21.37-2.05 32.05-3.07l26.23-2.52c8.04-.77 16.09-1.55 24.13-2.32a22425 22425 0 0 1 25.76-2.47c10.37-1 20.75-1.99 31.12-2.98 1.48-.14 2.97-.28 4.45-.43l9.29-.87c1.88-.18 3.76-.35 5.65-.53 1.56-.15 3.17-.25 4.57-1.05.87-.49 1.56-1.18 1.99-2.08.53-1.11.55-2.37.49-3.57Z"/><g style="clip-path:url(#clippath)"><path transform="rotate(-5.25 93.995 64.199)" style="fill:#ffe1a6;stroke-width:0" d="M.95 48.82h186.01v30.69H.95z"/></g><path d="M25.68 73.21c.07-.01.41-.05.02 0 .1-.01.2-.03.29-.04.2-.03.4-.05.6-.08.45-.06.9-.11 1.36-.16.94-.11 1.88-.2 2.82-.29 2.14-.2 4.29-.37 6.43-.51 5.13-.34 10.26-.57 15.39-.76 12.61-.45 25.22-.61 37.83-.67 13.51-.07 27.01 0 40.52.15 11.71.13 23.43.32 35.14.59 7.25.17 14.51.33 21.76.67.44.02.88.04 1.32.07 1.75.1 1.75-2.62 0-2.72-6.51-.37-13.04-.49-19.56-.66-11.38-.28-22.75-.48-34.13-.62-13.43-.17-26.87-.25-40.31-.22-12.91.03-25.83.16-38.74.56-9.6.29-19.24.62-28.79 1.72-.89.1-1.78.22-2.68.34-.73.1-1.13 1.03-.95 1.68.22.79.94 1.05 1.68.95Z" style="fill:#ff5f00;stroke-width:0"/><path d="M197.41 176.28c.08-2.18.11-4.37.1-6.55v-.05c.11-6.78.17-13.57.19-20.35.02-6.96 0-13.92-.06-20.88-.06-6.88-.15-13.76-.26-20.63-.11-6.88-.24-13.76-.39-20.64-.07-3.47-.14-6.94-.22-10.41-.03-1.52-.14-3.08-.96-4.41-.74-1.2-2.05-1.87-3.39-2.17-.73-.16-1.47-.2-2.22-.22-3.2.01-6.4.02-9.6.04-1.5 0-3.01.01-4.51.02-4.07.02-8.14.03-12.21.05-5.96.02-11.91.05-17.87.07-7.22.03-14.45.06-21.67.08l-23.44.09-23.16.09c-7 .03-13.99.05-20.99.08l-16.91.06c-3.59.01-7.18.03-10.78.04-3.04.01-6.96-.33-8.53 2.9-.74 1.51-.65 3.27-.68 4.9-.03 1.63-.07 3.26-.07 4.9v.07c-.11 6.78-.17 13.56-.19 20.33-.02 6.96 0 13.92.06 20.88.06 6.88.15 13.76.26 20.63.11 6.88.24 13.76.39 20.64.07 3.47.14 6.94.22 10.41.03 1.52.14 3.08.96 4.41.74 1.2 2.05 1.87 3.39 2.17.73.16 1.47.2 2.22.22 10.94-.04 21.89-.08 32.83-.13 8.96-.04 17.91-.07 26.87-.11 8.24-.03 16.48-.07 24.72-.1 8.8-.04 17.59-.07 26.39-.11 10.63-.04 21.25-.09 31.88-.13 1.52 0 3.04-.01 4.56-.02 3.17 0 6.34-.01 9.51-.02 1.93 0 3.86 0 5.78-.01 1.6 0 3.24.04 4.74-.64.93-.42 1.69-1.05 2.22-1.93.65-1.07.78-2.36.83-3.58Z" style="fill:#f70;stroke-width:0"/><path class="cls-6" d="M134.2 119.22c-.17-.45-2.58-4.9-7.04-10.46a.915.915 0 0 1-.21-.47c-.52-5.8-1.34-9.65-1.34-9.65-.13-.66-.7-1.15-1.36-1.23l-4.63-.56h-.12c-.54 0-.98.44-.98.98v1.61s-.03.06-.06.06c-.01 0-.03 0-.04-.01-2.78-2.5-5.9-4.93-9.36-7.06-.66-.44-1.44-.69-2.29-.69-.85 0-1.63.25-2.29.69-16 9.88-24.8 25.93-25.14 26.82a1.597 1.597 0 0 0 1.05 2.22l4.61.89c.62.17 1.08.7 1.15 1.35.04.81.91 18.99 2 23.7.18.68.8 1.18 1.53 1.18h.03c2.69-.07 5.15-.11 7.81-.15h.22c.28 0 .51-.23.51-.52v-.01c-.11-1.59-.34-5.22-.53-9.04 0-.1-.01-.22-.02-.31a.972.972 0 0 0-.47-.78 4.996 4.996 0 0 1-2.42-4.01c-.24-6.37-.36-13.74-.02-19.5.03-.48.42-.86.91-.87.51 0 .93.4.94.91v.07c-.23 3.84-.25 8.38-.16 12.87.01.61.51 1.09 1.12 1.08.61-.01 1.09-.51 1.08-1.12-.08-4.51-.06-9.08.17-12.94.03-.48.42-.86.91-.87.51 0 .93.4.94.91v.07c-.23 3.82-.25 8.34-.17 12.79.01.6.51 1.08 1.11 1.07.6-.01 1.08-.51 1.08-1.11-.08-4.49-.06-9.04.17-12.87.03-.48.42-.86.91-.87.51 0 .93.4.94.91v.07c-.33 5.6-.22 12.69 0 18.92v.21c0 1.7-.85 3.2-2.16 4.1-.23.16-.39.42-.41.72 0 0-.11.96.31 5.58.2 2.02.35 3.42.42 4.05.03.24.23.43.48.43h7l2.61.02c.25 0 .45-.19.49-.43.61-5.55.75-8.66.75-8.66 0-.28-.21-.49-.5-.53l-3.18-.44c-.5-.09-.8-.4-.91-.78-.07-.23-.04-.49-.04-.49 1.29-18.49 7.38-24.72 7.38-24.72.18-.18.3-.26.3-.26.16-.12.36-.19.57-.19.41 0 .77.26.91.62 0 0 .05.13.08.44.53 5.81.27 15.7-.06 23.42-.28 6.55-.61 11.69-.61 11.69v.01c0 .21.17.38.38.38 1.73.03 3.43.06 5.24.11h.03c.74 0 1.36-.5 1.53-1.18 1.09-4.71 1.97-22.89 2-23.7.07-.65.54-1.18 1.15-1.35l4.61-.89c.69-.17 1.2-.8 1.2-1.54 0-.24-.05-.47-.15-.68Z"/><g style="clip-path:url(#clippath-2)"><path class="cls-3" d="M58.85 115.91a18.87 18.87 0 0 1-1.2-5.45l-1.15.66c1.84.92 3.71 1.85 5.29 3.19l.16-1.2c-1.23.74-2.52 1.36-3.88 1.83-.39.14-.65.52-.54.94.1.38.55.67.94.54 1.48-.52 2.9-1.18 4.24-1.99.39-.24.54-.88.16-1.2-1.68-1.43-3.63-2.45-5.6-3.43-.48-.24-1.19.04-1.15.66.13 2 .54 3.98 1.26 5.85.15.39.52.65.94.54.37-.1.68-.55.54-.94ZM93.07 68.97c-.3-.8-.55-1.62-.76-2.45-.1-.4-.19-.8-.27-1.2a11.026 11.026 0 0 1-.14-.81 1.08 1.08 0 0 1-.01-.07v-.05c0 .08-.04.15-.11.21l-.93.12c.9.61 1.81 1.22 2.71 1.83.84.56 1.68 1.12 2.44 1.78l.16-1.2c-1.13.7-2.31 1.18-3.62 1.45-.41.08-.64.56-.54.94.12.42.54.62.94.54 1.41-.29 2.76-.84 3.98-1.6.39-.25.54-.87.16-1.2-.83-.73-1.75-1.35-2.66-1.96s-1.87-1.26-2.8-1.89c-.26-.18-.72-.12-.93.12-.43.49-.35 1.01-.25 1.61a23.415 23.415 0 0 0 1.13 4.26c.14.39.52.65.94.54.37-.1.68-.55.54-.94ZM115.02 77.48c-.7-1.84-1.05-3.78-1.38-5.71l-1.13.87c1.85 1.05 3.64 2.23 5.31 3.56l.16-1.2c-1.36.7-2.73 1.39-4.09 2.09-.37.19-.48.71-.27 1.05.22.37.68.46 1.05.27 1.36-.7 2.73-1.39 4.09-2.09.4-.21.53-.9.16-1.2-1.78-1.4-3.65-2.68-5.62-3.8-.62-.35-1.24.23-1.13.87.34 1.93.69 3.87 1.38 5.71.15.39.52.65.94.54.37-.1.68-.55.54-.94ZM132.25 85.7c-.7-1.84-1.05-3.78-1.38-5.71l-1.13.87c1.85 1.05 3.64 2.23 5.31 3.56l.16-1.2c-1.36.7-2.73 1.39-4.09 2.09-.37.19-.48.71-.27 1.05.22.37.68.46 1.05.27 1.36-.7 2.73-1.39 4.09-2.09.4-.21.53-.9.16-1.2-1.78-1.4-3.65-2.68-5.62-3.8-.62-.35-1.24.23-1.13.87.34 1.93.69 3.87 1.38 5.71.15.39.52.65.94.54.37-.1.68-.55.54-.94ZM96.16 88.74c-.38-1.88-.68-3.77-.89-5.67l-1.15.66c1.9.94 3.71 2.09 5.36 3.43l.16-1.2c-1.25.86-2.6 1.6-4.01 2.16-.38.15-.65.51-.54.94.1.37.56.69.94.54 1.54-.61 3.01-1.37 4.38-2.31.37-.25.57-.87.16-1.2a29.73 29.73 0 0 0-5.67-3.67c-.46-.23-1.22.04-1.15.66.22 2.04.53 4.07.94 6.08.08.41.56.64.94.54.42-.12.62-.54.54-.94ZM77.86 101.73c-.38-1.5-.69-3.02-.95-4.54l-.94.94c-.06-.02-.05-.02.04.02.05.02.1.04.15.07.1.04.2.09.29.13.2.09.39.19.58.28.38.2.76.41 1.13.63s.73.46 1.08.71c.09.06.17.13.26.19.02.02.24.18.17.13.09.07.17.13.25.2.04.03.08.07.13.1.06.06.06.05-.02-.03l-.1-.39v.05c.03-.13.07-.26.1-.39.18-.16.22-.21.12-.15a.3.3 0 0 0-.08.04c-.07.03-.13.06-.2.09-.13.06-.26.12-.4.18-.26.12-.53.24-.8.35.07-.03-.05.02-.06.02-.08.03-.16.07-.24.1l-.36.15c-.28.11-.57.22-.85.33-.37.14-.67.52-.54.94.12.37.54.69.94.54.85-.32 1.69-.66 2.51-1.03.41-.18.97-.34 1.23-.73.23-.34.15-.78-.11-1.07-.12-.14-.28-.25-.42-.36a19.238 19.238 0 0 0-4.4-2.58c-.24-.1-.57.02-.75.2-.21.21-.24.47-.2.75.26 1.53.58 3.04.95 4.54.1.39.56.66.94.54s.64-.53.54-.94ZM75.17 81.19c-.47-2.09-.76-4.2-.88-6.34l-1.15.66a51.09 51.09 0 0 1 3.93 2.85c.22.18.45.36.67.54.13.11.32.22.35.36l.35-.87c-1.44.72-2.9 1.4-4.38 2.03-.38.16-.46.72-.27 1.05.23.39.67.44 1.05.27 1.48-.63 2.94-1.3 4.38-2.03.31-.16.42-.55.35-.87-.14-.61-.66-.98-1.12-1.35-.5-.4-1-.8-1.51-1.18a62.89 62.89 0 0 0-3.01-2.13c-.47-.31-1.18.09-1.15.66.12 2.27.44 4.53.93 6.74.09.4.56.64.94.54.42-.11.63-.54.54-.94ZM38.53 104.07c-.72-1.73-1.21-3.55-1.46-5.41l-1.13.87c1.83.91 3.58 1.97 5.23 3.17l-.16-1.2c-.98.76-2.12 1.4-3.27 1.84-.39.15-.65.51-.54.94.1.37.55.69.94.54 1.43-.55 2.73-1.3 3.94-2.23.43-.33.19-.95-.16-1.2-1.65-1.2-3.4-2.26-5.23-3.17-.28-.14-.6-.14-.85.06s-.32.48-.27.81c.26 1.86.75 3.67 1.46 5.41.16.38.51.65.94.54.36-.1.69-.56.54-.94ZM20.75 115.79c-.72-1.73-1.21-3.55-1.46-5.41l-1.13.87c1.83.91 3.58 1.97 5.23 3.17l-.16-1.2c-.98.76-2.12 1.4-3.27 1.84-.39.15-.65.51-.54.94.1.37.55.69.94.54 1.43-.55 2.73-1.3 3.94-2.23.43-.33.19-.95-.16-1.2-1.65-1.2-3.4-2.26-5.23-3.17-.28-.14-.6-.14-.85.06s-.32.48-.27.81c.26 1.86.75 3.67 1.46 5.41.16.38.51.65.94.54.36-.1.69-.56.54-.94ZM58.53 91.29a40.3 40.3 0 0 1-.33-2.69c-.04-.45-.08-.89-.11-1.34-.02-.22-.03-.45-.04-.67 0-.13-.01-.26-.02-.39v-.17c0-.14-.01-.08-.05.16l-.27.27.05-.03-.39.1c-.19-.07-.21-.06-.07.02.04.03.09.06.13.09.1.07.2.14.3.22.17.13.34.25.51.38.36.27.71.55 1.06.83.73.59 1.44 1.21 2.13 1.85l.16-1.2c-1.14.78-2.38 1.4-3.7 1.81-.39.12-.65.53-.54.94.11.39.55.66.94.54 1.44-.46 2.82-1.11 4.07-1.97.39-.27.54-.85.16-1.2-.78-.73-1.58-1.42-2.42-2.09-.44-.35-.89-.69-1.34-1.03s-.99-.87-1.6-.7c-.73.2-.67.98-.63 1.56s.07 1.12.12 1.68c.1 1.15.24 2.29.42 3.43.06.41.58.64.94.54.44-.12.6-.53.54-.94ZM37.8 127.96l-.4-3.05-.2-1.49-.1-.75c-.02-.12-.03-.24-.05-.36 0-.05-.01-.1-.01-.15-.15.21-.17.26-.05.16l-.34.2c-.39-.17-.48-.17-.28-.02l.14.12.29.25c.21.18.41.36.62.54.4.34.79.69 1.19 1.03s.79.69 1.19 1.03l.57.49c.15.13.49.37.56.47l-.1-.39v.08c.05-.13.08-.26.12-.39l.1-.11c-.06.03-.11.05-.17.08-.08.03-.15.07-.23.1-.17.08-.34.16-.51.23-.36.16-.72.33-1.09.49-.71.32-1.41.63-2.12.94-.38.17-.47.72-.27 1.05.23.39.67.44 1.05.27 1.23-.54 2.45-1.09 3.67-1.64.31-.14.68-.26.87-.57.23-.38.15-.83-.14-1.15-.44-.48-1-.88-1.49-1.3-1.02-.88-2.03-1.76-3.05-2.64-.26-.22-.5-.45-.85-.5-.41-.05-.81.16-1.03.51-.34.56-.08 1.38 0 1.98.2 1.49.39 2.99.59 4.48.05.41.31.77.77.77.37 0 .82-.35.77-.77ZM20.02 139.66c-.13-1.02-.27-2.03-.4-3.05l-.2-1.49-.1-.75c-.02-.12-.03-.24-.05-.36 0-.05-.01-.1-.01-.15-.15.21-.17.26-.05.16l-.34.2c-.39-.17-.48-.17-.28-.02l.14.12.29.25c.21.18.41.36.62.54.4.34.79.69 1.19 1.03s.79.69 1.19 1.03l.57.49c.15.13.49.37.56.47l-.1-.39v.08c.05-.13.08-.26.12-.39l.1-.11c-.06.03-.11.05-.17.08-.08.03-.15.07-.23.1-.17.08-.34.16-.51.23-.36.16-.72.33-1.09.49-.71.32-1.41.63-2.12.94-.38.17-.47.72-.27 1.05.23.39.67.44 1.05.27 1.23-.54 2.45-1.09 3.67-1.64.31-.14.68-.26.87-.57.23-.38.15-.83-.14-1.15-.44-.48-1-.88-1.49-1.3-1.02-.88-2.03-1.76-3.05-2.64-.26-.22-.5-.45-.85-.5-.41-.05-.81.16-1.03.51-.34.56-.08 1.38 0 1.98.2 1.49.39 2.99.59 4.48.05.41.31.77.77.77.37 0 .82-.35.77-.77ZM12.29 102.51a18.87 18.87 0 0 1-1.2-5.45l-1.15.66c1.84.92 3.71 1.85 5.29 3.19l.16-1.2c-1.23.74-2.52 1.36-3.88 1.83-.39.14-.65.52-.54.94.1.38.55.67.94.54 1.48-.52 2.9-1.18 4.24-1.99.39-.24.54-.88.16-1.2-1.68-1.43-3.63-2.45-5.6-3.43-.48-.24-1.19.04-1.15.66.13 2 .54 3.98 1.26 5.85.15.39.52.65.94.54.37-.1.68-.55.54-.94ZM46.51 55.57c-.3-.8-.55-1.62-.76-2.45-.1-.4-.19-.8-.27-1.2a11.026 11.026 0 0 1-.14-.81 1.08 1.08 0 0 1-.01-.07v-.05c0 .08-.04.15-.11.21l-.93.12c.9.61 1.81 1.22 2.71 1.83.84.56 1.68 1.12 2.44 1.78l.16-1.2c-1.13.7-2.31 1.18-3.62 1.45-.41.08-.64.56-.54.94.12.42.54.62.94.54 1.41-.29 2.76-.84 3.98-1.6.39-.25.54-.87.16-1.2-.83-.73-1.75-1.35-2.66-1.96s-1.87-1.26-2.8-1.89c-.26-.18-.72-.12-.93.12-.43.49-.35 1.01-.25 1.61A23.415 23.415 0 0 0 45.01 56c.14.39.52.65.94.54.37-.1.68-.55.54-.94ZM68.45 64.08c-.7-1.84-1.05-3.78-1.38-5.71-.38.29-.75.58-1.13.87 1.85 1.05 3.64 2.23 5.31 3.56l.16-1.2c-1.36.7-2.73 1.39-4.09 2.09-.37.19-.48.71-.27 1.05.22.37.68.46 1.05.27 1.36-.7 2.73-1.39 4.09-2.09.4-.21.53-.9.16-1.2-1.78-1.4-3.65-2.68-5.62-3.8-.62-.35-1.24.23-1.13.87.34 1.93.69 3.87 1.38 5.71.15.39.52.65.94.54.37-.1.68-.55.54-.94ZM49.59 75.34c-.38-1.88-.68-3.77-.89-5.67l-1.15.66c1.9.94 3.71 2.09 5.36 3.43l.16-1.2c-1.25.86-2.6 1.6-4.01 2.16-.38.15-.65.51-.54.94.1.37.56.69.94.54 1.54-.61 3.01-1.37 4.38-2.31.37-.25.57-.87.16-1.2a29.73 29.73 0 0 0-5.67-3.67c-.46-.23-1.22.04-1.15.66.22 2.04.53 4.07.94 6.08.08.41.56.64.94.54.42-.12.62-.54.54-.94ZM31.3 88.33c-.38-1.5-.69-3.02-.95-4.54l-.94.94c-.06-.02-.05-.02.04.02.05.02.1.04.15.07.1.04.2.09.29.13.2.09.39.19.58.28.38.2.76.41 1.13.63s.73.46 1.08.71c.09.06.17.13.26.19.02.02.24.18.17.13.09.07.17.13.25.2.04.03.08.07.13.1.06.06.06.05-.02-.03l-.1-.39v.05c.03-.13.07-.26.1-.39.18-.16.22-.21.12-.15a.3.3 0 0 0-.08.04c-.07.03-.13.06-.2.09-.13.06-.26.12-.4.18-.26.12-.53.24-.8.35.07-.03-.05.02-.06.02-.08.03-.16.07-.24.1l-.36.15c-.28.11-.57.22-.85.33-.37.14-.67.52-.54.94.12.37.54.69.94.54.85-.32 1.69-.66 2.51-1.03.41-.18.97-.34 1.23-.73.23-.34.15-.78-.11-1.07-.12-.14-.28-.25-.42-.36a19.238 19.238 0 0 0-4.4-2.58c-.24-.1-.57.02-.75.2-.21.21-.24.47-.2.75.26 1.53.58 3.04.95 4.54.1.39.56.66.94.54s.64-.53.54-.94ZM28.6 67.79c-.47-2.09-.76-4.2-.88-6.34l-1.15.66a51.09 51.09 0 0 1 3.93 2.85c.22.18.45.36.67.54.13.11.32.22.35.36l.35-.87c-1.44.72-2.9 1.4-4.38 2.03-.38.16-.46.72-.27 1.05.23.39.67.44 1.05.27 1.48-.63 2.94-1.3 4.38-2.03.31-.16.42-.55.35-.87-.14-.61-.66-.98-1.12-1.35-.5-.4-1-.8-1.51-1.18a62.89 62.89 0 0 0-3.01-2.13c-.47-.31-1.18.09-1.15.66.12 2.27.44 4.53.93 6.74.09.4.56.64.94.54.42-.11.63-.54.54-.94ZM11.96 77.89a40.3 40.3 0 0 1-.33-2.69c-.04-.45-.08-.89-.11-1.34-.02-.22-.03-.45-.04-.67 0-.13-.01-.26-.02-.39v-.17c0-.14-.01-.08-.05.16l-.27.27.05-.03-.39.1c-.19-.07-.21-.06-.07.02.04.03.09.06.13.09.1.07.2.14.3.22.17.13.34.25.51.38.36.27.71.55 1.06.83.73.59 1.44 1.21 2.13 1.85l.16-1.2c-1.14.78-2.38 1.4-3.7 1.81-.39.12-.65.53-.54.94.11.39.55.66.94.54 1.44-.46 2.82-1.11 4.07-1.97.39-.27.54-.85.16-1.2-.78-.73-1.58-1.42-2.42-2.09-.44-.35-.89-.69-1.34-1.03s-.99-.87-1.6-.7c-.73.2-.67.98-.63 1.56s.07 1.12.12 1.68c.1 1.15.24 2.29.42 3.43.06.41.58.64.94.54.44-.12.6-.53.54-.94ZM158.41 91.72a18.87 18.87 0 0 1-1.2-5.45l-1.15.66c1.84.92 3.71 1.85 5.29 3.19l.16-1.2c-1.23.74-2.52 1.36-3.88 1.83-.39.14-.65.52-.54.94.1.38.55.67.94.54 1.48-.52 2.9-1.18 4.24-1.99.39-.24.54-.88.16-1.2-1.68-1.43-3.63-2.45-5.6-3.43-.48-.24-1.19.04-1.15.66.13 2 .54 3.98 1.26 5.85.15.39.52.65.94.54.37-.1.68-.55.54-.94ZM192.63 44.77c-.3-.8-.55-1.62-.76-2.45-.1-.4-.19-.8-.27-1.2a11.026 11.026 0 0 1-.14-.81 1.08 1.08 0 0 1-.01-.07v-.05c0 .08-.04.15-.11.21l-.93.12c.9.61 1.81 1.22 2.71 1.83.84.56 1.68 1.12 2.44 1.78l.16-1.2c-1.13.7-2.31 1.18-3.62 1.45-.41.08-.64.56-.54.94.12.42.54.62.94.54 1.41-.29 2.76-.84 3.98-1.6.39-.25.54-.87.16-1.2-.83-.73-1.75-1.35-2.66-1.96s-1.87-1.26-2.8-1.89c-.26-.18-.72-.12-.93.12-.43.49-.35 1.01-.25 1.61a23.415 23.415 0 0 0 1.13 4.26c.14.39.52.65.94.54.37-.1.68-.55.54-.94ZM195.72 64.54c-.38-1.88-.68-3.77-.89-5.67l-1.15.66c1.9.94 3.71 2.09 5.36 3.43l.16-1.2c-1.25.86-2.6 1.6-4.01 2.16-.38.15-.65.51-.54.94.1.37.56.69.94.54 1.54-.61 3.01-1.37 4.38-2.31.37-.25.57-.87.16-1.2a29.73 29.73 0 0 0-5.67-3.67c-.46-.23-1.22.04-1.15.66.22 2.04.53 4.07.94 6.08.08.41.56.64.94.54.42-.12.62-.54.54-.94ZM177.42 77.54c-.38-1.5-.69-3.02-.95-4.54l-.94.94c-.06-.02-.05-.02.04.02.05.02.1.04.15.07.1.04.2.09.29.13.2.09.39.19.58.28.38.2.76.41 1.13.63s.73.46 1.08.71c.09.06.17.13.26.19.02.02.24.18.17.13.09.07.17.13.25.2.04.03.08.07.13.1.06.06.06.05-.02-.03l-.1-.39v.05c.03-.13.07-.26.1-.39.18-.16.22-.21.12-.15a.3.3 0 0 0-.08.04c-.07.03-.13.06-.2.09-.13.06-.26.12-.4.18-.26.12-.53.24-.8.35.07-.03-.05.02-.06.02-.08.03-.16.07-.24.1l-.36.15c-.28.11-.57.22-.85.33-.37.14-.67.52-.54.94.12.37.54.69.94.54.85-.32 1.69-.66 2.51-1.03.41-.18.97-.34 1.23-.73.23-.34.15-.78-.11-1.07-.12-.14-.28-.25-.42-.36a19.238 19.238 0 0 0-4.4-2.58c-.24-.1-.57.02-.75.2-.21.21-.24.47-.2.75.26 1.53.58 3.04.95 4.54.1.39.56.66.94.54s.64-.53.54-.94ZM174.73 56.99c-.47-2.09-.76-4.2-.88-6.34l-1.15.66a51.09 51.09 0 0 1 3.93 2.85c.22.18.45.36.67.54.13.11.32.22.35.36l.35-.87c-1.44.72-2.9 1.4-4.38 2.03-.38.16-.46.72-.27 1.05.23.39.67.44 1.05.27 1.48-.63 2.94-1.3 4.38-2.03.31-.16.42-.55.35-.87-.14-.61-.66-.98-1.12-1.35-.5-.4-1-.8-1.51-1.18a62.89 62.89 0 0 0-3.01-2.13c-.47-.31-1.18.09-1.15.66.12 2.27.44 4.53.93 6.74.09.4.56.64.94.54.42-.11.63-.54.54-.94ZM148.61 74.39c-.72-1.73-1.21-3.55-1.46-5.41-.38.29-.75.58-1.13.87 1.83.91 3.58 1.97 5.23 3.17l-.16-1.2c-.98.76-2.12 1.4-3.27 1.84-.39.15-.65.51-.54.94.1.37.55.69.94.54 1.43-.55 2.73-1.3 3.94-2.23.43-.33.19-.95-.16-1.2-1.65-1.2-3.4-2.26-5.23-3.17-.28-.14-.6-.14-.85.06s-.32.48-.27.81c.26 1.86.75 3.67 1.46 5.41.16.38.51.65.94.54.36-.1.69-.56.54-.94ZM158.09 67.1a40.3 40.3 0 0 1-.33-2.69c-.04-.45-.08-.89-.11-1.34-.02-.22-.03-.45-.04-.67 0-.13-.01-.26-.02-.39v-.17c0-.14-.01-.08-.05.16l-.27.27.05-.03-.39.1c-.19-.07-.21-.06-.07.02.04.03.09.06.13.09.1.07.2.14.3.22.17.13.34.25.51.38.36.27.71.55 1.06.83.73.59 1.44 1.21 2.13 1.85l.16-1.2c-1.14.78-2.38 1.4-3.7 1.81-.39.12-.65.53-.54.94.11.39.55.66.94.54 1.44-.46 2.82-1.11 4.07-1.97.39-.27.54-.85.16-1.2-.78-.73-1.58-1.42-2.42-2.09-.44-.35-.89-.69-1.34-1.03s-.99-.87-1.6-.7c-.73.2-.67.98-.63 1.56s.07 1.12.12 1.68c.1 1.15.24 2.29.42 3.43.06.41.58.64.94.54.44-.12.6-.53.54-.94ZM137.36 103.77c-.13-1.02-.27-2.03-.4-3.05l-.2-1.49-.1-.75c-.02-.12-.03-.24-.05-.36 0-.05-.01-.1-.01-.15-.15.21-.17.26-.05.16l-.34.2c-.39-.17-.48-.17-.28-.02l.14.12.29.25c.21.18.41.36.62.54.4.34.79.69 1.19 1.03s.79.69 1.19 1.03l.57.49c.15.13.49.37.56.47l-.1-.39v.08c.05-.13.08-.26.12-.39l.1-.11c-.06.03-.11.05-.17.08-.08.03-.15.07-.23.1-.17.08-.34.16-.51.23-.36.16-.72.33-1.09.49-.71.32-1.41.63-2.12.94-.38.17-.47.72-.27 1.05.23.39.67.44 1.05.27 1.23-.54 2.45-1.09 3.67-1.64.31-.14.68-.26.87-.57.23-.38.15-.83-.14-1.15-.44-.48-1-.88-1.49-1.3-1.02-.88-2.03-1.76-3.05-2.64-.26-.22-.5-.45-.85-.5-.41-.05-.81.16-1.03.51-.34.56-.08 1.38 0 1.98.2 1.49.39 2.99.59 4.48.05.41.31.77.77.77.37 0 .82-.35.77-.77ZM169.86 131.35a18.87 18.87 0 0 1-1.2-5.45l-1.15.66c1.84.92 3.71 1.85 5.29 3.19l.16-1.2c-1.23.74-2.52 1.36-3.88 1.83-.39.14-.65.52-.54.94.1.38.55.67.94.54 1.48-.52 2.9-1.18 4.24-1.99.39-.24.54-.88.16-1.2-1.68-1.43-3.63-2.45-5.6-3.43-.48-.24-1.19.04-1.15.66.13 2 .54 3.98 1.26 5.85.15.39.52.65.94.54.37-.1.68-.55.54-.94ZM188.87 117.17c-.38-1.5-.69-3.02-.95-4.54l-.94.94c-.06-.02-.05-.02.04.02.05.02.1.04.15.07.1.04.2.09.29.13.2.09.39.19.58.28.38.2.76.41 1.13.63s.73.46 1.08.71c.09.06.17.13.26.19.02.02.24.18.17.13.09.07.17.13.25.2.04.03.08.07.13.1.06.06.06.05-.02-.03l-.1-.39v.05c.03-.13.07-.26.1-.39.18-.16.22-.21.12-.15a.3.3 0 0 0-.08.04c-.07.03-.13.06-.2.09-.13.06-.26.12-.4.18-.26.12-.53.24-.8.35.07-.03-.05.02-.06.02-.08.03-.16.07-.24.1l-.36.15c-.28.11-.57.22-.85.33-.37.14-.67.52-.54.94.12.37.54.69.94.54.85-.32 1.69-.66 2.51-1.03.41-.18.97-.34 1.23-.73.23-.34.15-.78-.11-1.07-.12-.14-.28-.25-.42-.36a19.238 19.238 0 0 0-4.4-2.58c-.24-.1-.57.02-.75.2-.21.21-.24.47-.2.75.26 1.53.58 3.04.95 4.54.1.39.56.66.94.54s.64-.53.54-.94ZM186.18 96.63c-.47-2.09-.76-4.2-.88-6.34l-1.15.66a51.09 51.09 0 0 1 3.93 2.85c.22.18.45.36.67.54.13.11.32.22.35.36l.35-.87c-1.44.72-2.9 1.4-4.38 2.03-.38.16-.46.72-.27 1.05.23.39.67.44 1.05.27 1.48-.63 2.94-1.3 4.38-2.03.31-.16.42-.55.35-.87-.14-.61-.66-.98-1.12-1.35-.5-.4-1-.8-1.51-1.18a62.89 62.89 0 0 0-3.01-2.13c-.47-.31-1.18.09-1.15.66.12 2.27.44 4.53.93 6.74.09.4.56.64.94.54.42-.11.63-.54.54-.94ZM149.55 119.51c-.72-1.73-1.21-3.55-1.46-5.41l-1.13.87c1.83.91 3.58 1.97 5.23 3.17l-.16-1.2c-.98.76-2.12 1.4-3.27 1.84-.39.15-.65.51-.54.94.1.37.55.69.94.54 1.43-.55 2.73-1.3 3.94-2.23.43-.33.19-.95-.16-1.2-1.65-1.2-3.4-2.26-5.23-3.17-.28-.14-.6-.14-.85.06s-.32.48-.27.81c.26 1.86.75 3.67 1.46 5.41.16.38.51.65.94.54.36-.1.69-.56.54-.94ZM169.54 106.73a40.3 40.3 0 0 1-.33-2.69c-.04-.45-.08-.89-.11-1.34-.02-.22-.03-.45-.04-.67 0-.13-.01-.26-.02-.39v-.17c0-.14-.01-.08-.05.16l-.27.27.05-.03-.39.1c-.19-.07-.21-.06-.07.02.04.03.09.06.13.09.1.07.2.14.3.22.17.13.34.25.51.38.36.27.71.55 1.06.83.73.59 1.44 1.21 2.13 1.85l.16-1.2c-1.14.78-2.38 1.4-3.7 1.81-.39.12-.65.53-.54.94.11.39.55.66.94.54 1.44-.46 2.82-1.11 4.07-1.97.39-.27.54-.85.16-1.2-.78-.73-1.58-1.42-2.42-2.09-.44-.35-.89-.69-1.34-1.03s-.99-.87-1.6-.7c-.73.2-.67.98-.63 1.56s.07 1.12.12 1.68c.1 1.15.24 2.29.42 3.43.06.41.58.64.94.54.44-.12.6-.53.54-.94ZM148.81 143.4c-.13-1.02-.27-2.03-.4-3.05l-.2-1.49-.1-.75c-.02-.12-.03-.24-.05-.36 0-.05-.01-.1-.01-.15-.15.21-.17.26-.05.16l-.34.2c-.39-.17-.48-.17-.28-.02l.14.12.29.25c.21.18.41.36.62.54.4.34.79.69 1.19 1.03s.79.69 1.19 1.03l.57.49c.15.13.49.37.56.47l-.1-.39v.08c.05-.13.08-.26.12-.39l.1-.11c-.06.03-.11.05-.17.08-.08.03-.15.07-.23.1-.17.08-.34.16-.51.23-.36.16-.72.33-1.09.49-.71.32-1.41.63-2.12.94-.38.17-.47.72-.27 1.05.23.39.67.44 1.05.27 1.23-.54 2.45-1.09 3.67-1.64.31-.14.68-.26.87-.57.23-.38.15-.83-.14-1.15-.44-.48-1-.88-1.49-1.3-1.02-.88-2.03-1.76-3.05-2.64-.26-.22-.5-.45-.85-.5-.41-.05-.81.16-1.03.51-.34.56-.08 1.38 0 1.98.2 1.49.39 2.99.59 4.48.05.41.31.77.77.77.37 0 .82-.35.77-.77ZM116.76 168.4c-.7-1.84-1.05-3.78-1.38-5.71l-1.13.87c1.85 1.05 3.64 2.23 5.31 3.56l.16-1.2c-1.36.7-2.73 1.39-4.09 2.09-.37.19-.48.71-.27 1.05.22.37.68.46 1.05.27 1.36-.7 2.73-1.39 4.09-2.09.4-.21.53-.9.16-1.2-1.78-1.4-3.65-2.68-5.62-3.8-.62-.35-1.24.23-1.13.87.34 1.93.69 3.87 1.38 5.71.15.39.52.65.94.54.37-.1.68-.55.54-.94ZM136.48 152.57c-.7-1.84-1.05-3.78-1.38-5.71l-1.13.87c1.85 1.05 3.64 2.23 5.31 3.56l.16-1.2c-1.36.7-2.73 1.39-4.09 2.09-.37.19-.48.71-.27 1.05.22.37.68.46 1.05.27 1.36-.7 2.73-1.39 4.09-2.09.4-.21.53-.9.16-1.2-1.78-1.4-3.65-2.68-5.62-3.8-.62-.35-1.24.23-1.13.87.34 1.93.69 3.87 1.38 5.71.15.39.52.65.94.54.37-.1.68-.55.54-.94ZM98.99 182.33c-.38-1.88-.68-3.77-.89-5.67l-1.15.66c1.9.94 3.71 2.09 5.36 3.43l.16-1.2c-1.25.86-2.6 1.6-4.01 2.16-.38.15-.65.51-.54.94.1.37.56.69.94.54 1.54-.61 3.01-1.37 4.38-2.31.37-.25.57-.87.16-1.2a29.73 29.73 0 0 0-5.67-3.67c-.46-.23-1.22.04-1.15.66.22 2.04.53 4.07.94 6.08.08.41.56.64.94.54.42-.12.62-.54.54-.94ZM80.7 195.32c-.38-1.5-.69-3.02-.95-4.54l-.94.94c-.06-.02-.05-.02.04.02.05.02.1.04.15.07.1.04.2.09.29.13.2.09.39.19.58.28.38.2.76.41 1.13.63s.73.46 1.08.71c.09.06.17.13.26.19.02.02.24.18.17.13.09.07.17.13.25.2.04.03.08.07.13.1.06.06.06.05-.02-.03l-.1-.39v.05c.03-.13.07-.26.1-.39.18-.16.22-.21.12-.15a.3.3 0 0 0-.08.04c-.07.03-.13.06-.2.09-.13.06-.26.12-.4.18-.26.12-.53.24-.8.35.07-.03-.05.02-.06.02-.08.03-.16.07-.24.1l-.36.15c-.28.11-.57.22-.85.33-.37.14-.67.52-.54.94.12.37.54.69.94.54.85-.32 1.69-.66 2.51-1.03.41-.18.97-.34 1.23-.73.23-.34.15-.78-.11-1.07-.12-.14-.28-.25-.42-.36a19.238 19.238 0 0 0-4.4-2.58c-.24-.1-.57.02-.75.2-.21.21-.24.47-.2.75.26 1.53.58 3.04.95 4.54.1.39.56.66.94.54s.64-.53.54-.94ZM78 174.78c-.47-2.09-.76-4.2-.88-6.34l-1.15.66a51.09 51.09 0 0 1 3.93 2.85c.22.18.45.36.67.54.13.11.32.22.35.36l.35-.87c-1.44.72-2.9 1.4-4.38 2.03-.38.16-.46.72-.27 1.05.23.39.67.44 1.05.27 1.48-.63 2.94-1.3 4.38-2.03.31-.16.42-.55.35-.87-.14-.61-.66-.98-1.12-1.35-.5-.4-1-.8-1.51-1.18a62.89 62.89 0 0 0-3.01-2.13c-.47-.31-1.18.09-1.15.66.12 2.27.44 4.53.93 6.74.09.4.56.64.94.54.42-.11.63-.54.54-.94ZM41.37 197.66c-.72-1.73-1.21-3.55-1.46-5.41l-1.13.87c1.83.91 3.58 1.97 5.23 3.17l-.16-1.2c-.98.76-2.12 1.4-3.27 1.84-.39.15-.65.51-.54.94.1.37.55.69.94.54 1.43-.55 2.73-1.3 3.94-2.23.43-.33.19-.95-.16-1.2-1.65-1.2-3.4-2.26-5.23-3.17-.28-.14-.6-.14-.85.06s-.32.48-.27.81c.26 1.86.75 3.67 1.46 5.41.16.38.51.65.94.54.36-.1.69-.56.54-.94ZM61.36 184.88a40.3 40.3 0 0 1-.33-2.69c-.04-.45-.08-.89-.11-1.34-.02-.22-.03-.45-.04-.67 0-.13-.01-.26-.02-.39v-.17c0-.14-.01-.08-.05.16l-.27.27.05-.03-.39.1c-.19-.07-.21-.06-.07.02.04.03.09.06.13.09.1.07.2.14.3.22.17.13.34.25.51.38.36.27.71.55 1.06.83.73.59 1.44 1.21 2.13 1.85l.16-1.2c-1.14.78-2.38 1.4-3.7 1.81-.39.12-.65.53-.54.94.11.39.55.66.94.54 1.44-.46 2.82-1.11 4.07-1.97.39-.27.54-.85.16-1.2-.78-.73-1.58-1.42-2.42-2.09-.44-.35-.89-.69-1.34-1.03s-.99-.87-1.6-.7c-.73.2-.67.98-.63 1.56s.07 1.12.12 1.68c.1 1.15.24 2.29.42 3.43.06.41.58.64.94.54.44-.12.6-.53.54-.94ZM157.05 183.85a18.87 18.87 0 0 1-1.2-5.45l-1.15.66c1.84.92 3.71 1.85 5.29 3.19l.16-1.2c-1.23.74-2.52 1.36-3.88 1.83-.39.14-.65.52-.54.94.1.38.55.67.94.54 1.48-.52 2.9-1.18 4.24-1.99.39-.24.54-.88.16-1.2-1.68-1.43-3.63-2.45-5.6-3.43-.48-.24-1.19.04-1.15.66.13 2 .54 3.98 1.26 5.85.15.39.52.65.94.54.37-.1.68-.55.54-.94ZM188.91 142.56c-.3-.8-.55-1.62-.76-2.45-.1-.4-.19-.8-.27-1.2a11.026 11.026 0 0 1-.14-.81 1.08 1.08 0 0 1-.01-.07v-.05c0 .08-.04.15-.11.21l-.93.12c.9.61 1.81 1.22 2.71 1.83.84.56 1.68 1.12 2.44 1.78l.16-1.2c-1.13.7-2.31 1.18-3.62 1.45-.41.08-.64.56-.54.94.12.42.54.62.94.54 1.41-.29 2.76-.84 3.98-1.6.39-.25.54-.87.16-1.2-.83-.73-1.75-1.35-2.66-1.96s-1.87-1.26-2.8-1.89c-.26-.18-.72-.12-.93.12-.43.49-.35 1.01-.25 1.61a23.415 23.415 0 0 0 1.13 4.26c.14.39.52.65.94.54.37-.1.68-.55.54-.94ZM192 162.33c-.38-1.88-.68-3.77-.89-5.67l-1.15.66c1.9.94 3.71 2.09 5.36 3.43l.16-1.2c-1.25.86-2.6 1.6-4.01 2.16-.38.15-.65.51-.54.94.1.37.56.69.94.54 1.54-.61 3.01-1.37 4.38-2.31.37-.25.57-.87.16-1.2a29.73 29.73 0 0 0-5.67-3.67c-.46-.23-1.22.04-1.15.66.22 2.04.53 4.07.94 6.08.08.41.56.64.94.54.42-.12.62-.54.54-.94ZM173.7 175.32c-.38-1.5-.69-3.02-.95-4.54l-.94.94c-.06-.02-.05-.02.04.02.05.02.1.04.15.07.1.04.2.09.29.13.2.09.39.19.58.28.38.2.76.41 1.13.63s.73.46 1.08.71c.09.06.17.13.26.19.02.02.24.18.17.13.09.07.17.13.25.2.04.03.08.07.13.1.06.06.06.05-.02-.03l-.1-.39v.05c.03-.13.07-.26.1-.39.18-.16.22-.21.12-.15a.3.3 0 0 0-.08.04c-.07.03-.13.06-.2.09-.13.06-.26.12-.4.18-.26.12-.53.24-.8.35.07-.03-.05.02-.06.02-.08.03-.16.07-.24.1l-.36.15c-.28.11-.57.22-.85.33-.37.14-.67.52-.54.94.12.37.54.69.94.54.85-.32 1.69-.66 2.51-1.03.41-.18.97-.34 1.23-.73.23-.34.15-.78-.11-1.07-.12-.14-.28-.25-.42-.36a19.238 19.238 0 0 0-4.4-2.58c-.24-.1-.57.02-.75.2-.21.21-.24.47-.2.75.26 1.53.58 3.04.95 4.54.1.39.56.66.94.54s.64-.53.54-.94ZM171.01 154.78c-.47-2.09-.76-4.2-.88-6.34l-1.15.66a51.09 51.09 0 0 1 3.93 2.85c.22.18.45.36.67.54.13.11.32.22.35.36l.35-.87c-1.44.72-2.9 1.4-4.38 2.03-.38.16-.46.72-.27 1.05.23.39.67.44 1.05.27 1.48-.63 2.94-1.3 4.38-2.03.31-.16.42-.55.35-.87-.14-.61-.66-.98-1.12-1.35-.5-.4-1-.8-1.51-1.18a62.89 62.89 0 0 0-3.01-2.13c-.47-.31-1.18.09-1.15.66.12 2.27.44 4.53.93 6.74.09.4.56.64.94.54.42-.11.63-.54.54-.94ZM134.37 177.66c-.72-1.73-1.21-3.55-1.46-5.41l-1.13.87c1.83.91 3.58 1.97 5.23 3.17l-.16-1.2c-.98.76-2.12 1.4-3.27 1.84-.39.15-.65.51-.54.94.1.37.55.69.94.54 1.43-.55 2.73-1.3 3.94-2.23.43-.33.19-.95-.16-1.2-1.65-1.2-3.4-2.26-5.23-3.17-.28-.14-.6-.14-.85.06s-.32.48-.27.81c.26 1.86.75 3.67 1.46 5.41.16.38.51.65.94.54.36-.1.69-.56.54-.94ZM154.37 164.88a40.3 40.3 0 0 1-.33-2.69c-.04-.45-.08-.89-.11-1.34-.02-.22-.03-.45-.04-.67 0-.13-.01-.26-.02-.39v-.17c0-.14-.01-.08-.05.16l-.27.27.05-.03-.39.1c-.19-.07-.21-.06-.07.02.04.03.09.06.13.09.1.07.2.14.3.22.17.13.34.25.51.38.36.27.71.55 1.06.83.73.59 1.44 1.21 2.13 1.85l.16-1.2c-1.14.78-2.38 1.4-3.7 1.81-.39.12-.65.53-.54.94.11.39.55.66.94.54 1.44-.46 2.82-1.11 4.07-1.97.39-.27.54-.85.16-1.2-.78-.73-1.58-1.42-2.42-2.09-.44-.35-.89-.69-1.34-1.03s-.99-.87-1.6-.7c-.73.2-.67.98-.63 1.56s.07 1.12.12 1.68c.1 1.15.24 2.29.42 3.43.06.41.58.64.94.54.44-.12.6-.53.54-.94ZM133.64 201.55l-.4-3.05-.2-1.49-.1-.75c-.02-.12-.03-.24-.05-.36 0-.05-.01-.1-.01-.15-.15.21-.17.26-.05.16l-.34.2c-.39-.17-.48-.17-.28-.02l.14.12.29.25c.21.18.41.36.62.54.4.34.79.69 1.19 1.03s.79.69 1.19 1.03l.57.49c.15.13.49.37.56.47l-.1-.39v.08c.05-.13.08-.26.12-.39l.1-.11c-.06.03-.11.05-.17.08-.08.03-.15.07-.23.1-.17.08-.34.16-.51.23-.36.16-.72.33-1.09.49-.71.32-1.41.63-2.12.94-.38.17-.47.72-.27 1.05.23.39.67.44 1.05.27 1.23-.54 2.45-1.09 3.67-1.64.31-.14.68-.26.87-.57.23-.38.15-.83-.14-1.15-.44-.48-1-.88-1.49-1.3-1.02-.88-2.03-1.76-3.05-2.64-.26-.22-.5-.45-.85-.5-.41-.05-.81.16-1.03.51-.34.56-.08 1.38 0 1.98.2 1.49.39 2.99.59 4.48.05.41.31.77.77.77.37 0 .82-.35.77-.77ZM54.28 165.63a18.87 18.87 0 0 1-1.2-5.45l-1.15.66c1.84.92 3.71 1.85 5.29 3.19l.16-1.2c-1.23.74-2.52 1.36-3.88 1.83-.39.14-.65.52-.54.94.1.38.55.67.94.54 1.48-.52 2.9-1.18 4.24-1.99.39-.24.54-.88.16-1.2-1.68-1.43-3.63-2.45-5.6-3.43-.48-.24-1.19.04-1.15.66.13 2 .54 3.98 1.26 5.85.15.39.52.65.94.54.37-.1.68-.55.54-.94ZM73.29 151.45c-.38-1.5-.69-3.02-.95-4.54l-.94.94c-.06-.02-.05-.02.04.02.05.02.1.04.15.07.1.04.2.09.29.13.2.09.39.19.58.28.38.2.76.41 1.13.63s.73.46 1.08.71c.09.06.17.13.26.19.02.02.24.18.17.13.09.07.17.13.25.2.04.03.08.07.13.1.06.06.06.05-.02-.03l-.1-.39v.05c.03-.13.07-.26.1-.39.18-.16.22-.21.12-.15a.3.3 0 0 0-.08.04c-.07.03-.13.06-.2.09-.13.06-.26.12-.4.18-.26.12-.53.24-.8.35.07-.03-.05.02-.06.02-.08.03-.16.07-.24.1l-.36.15c-.28.11-.57.22-.85.33-.37.14-.67.52-.54.94.12.37.54.69.94.54.85-.32 1.69-.66 2.51-1.03.41-.18.97-.34 1.23-.73.23-.34.15-.78-.11-1.07-.12-.14-.28-.25-.42-.36a19.238 19.238 0 0 0-4.4-2.58c-.24-.1-.57.02-.75.2-.21.21-.24.47-.2.75.26 1.53.58 3.04.95 4.54.1.39.56.66.94.54s.64-.53.54-.94ZM70.6 130.91c-.47-2.09-.76-4.2-.88-6.34-.38.22-.77.44-1.15.66a51.09 51.09 0 0 1 3.93 2.85c.22.18.45.36.67.54.13.11.32.22.35.36l.35-.87c-1.44.72-2.9 1.4-4.38 2.03-.38.16-.46.72-.27 1.05.23.39.67.44 1.05.27 1.48-.63 2.94-1.3 4.38-2.03.31-.16.42-.55.35-.87-.14-.61-.66-.98-1.12-1.35-.5-.4-1-.8-1.51-1.18a62.89 62.89 0 0 0-3.01-2.13c-.47-.31-1.18.09-1.15.66.12 2.27.44 4.53.93 6.74.09.4.56.64.94.54.42-.11.63-.54.54-.94ZM33.97 153.79c-.72-1.73-1.21-3.55-1.46-5.41l-1.13.87c1.83.91 3.58 1.97 5.23 3.17l-.16-1.2c-.98.76-2.12 1.4-3.27 1.84-.39.15-.65.51-.54.94.1.37.55.69.94.54 1.43-.55 2.73-1.3 3.94-2.23.43-.33.19-.95-.16-1.2-1.65-1.2-3.4-2.26-5.23-3.17-.28-.14-.6-.14-.85.06s-.32.48-.27.81c.26 1.86.75 3.67 1.46 5.41.16.38.51.65.94.54.36-.1.69-.56.54-.94ZM53.96 141.01a40.3 40.3 0 0 1-.33-2.69c-.04-.45-.08-.89-.11-1.34-.02-.22-.03-.45-.04-.67 0-.13-.01-.26-.02-.39v-.17c0-.14-.01-.08-.05.16l-.27.27.05-.03-.39.1c-.19-.07-.21-.06-.07.02.04.03.09.06.13.09.1.07.2.14.3.22.17.13.34.25.51.38.36.27.71.55 1.06.83.73.59 1.44 1.21 2.13 1.85l.16-1.2c-1.14.78-2.38 1.4-3.7 1.81-.39.12-.65.53-.54.94.11.39.55.66.94.54 1.44-.46 2.82-1.11 4.07-1.97.39-.27.54-.85.16-1.2-.78-.73-1.58-1.42-2.42-2.09-.44-.35-.89-.69-1.34-1.03s-.99-.87-1.6-.7c-.73.2-.67.98-.63 1.56s.07 1.12.12 1.68c.1 1.15.24 2.29.42 3.43.06.41.58.64.94.54.44-.12.6-.53.54-.94ZM33.23 177.68c-.13-1.02-.27-2.03-.4-3.05l-.2-1.49-.1-.75c-.02-.12-.03-.24-.05-.36 0-.05-.01-.1-.01-.15-.15.21-.17.26-.05.16l-.34.2c-.39-.17-.48-.17-.28-.02l.14.12.29.25c.21.18.41.36.62.54.4.34.79.69 1.19 1.03s.79.69 1.19 1.03l.57.49c.15.13.49.37.56.47l-.1-.39v.08c.05-.13.08-.26.12-.39l.1-.11c-.06.03-.11.05-.17.08-.08.03-.15.07-.23.1-.17.08-.34.16-.51.23-.36.16-.72.33-1.09.49-.71.32-1.41.63-2.12.94-.38.17-.47.72-.27 1.05.23.39.67.44 1.05.27 1.23-.54 2.45-1.09 3.67-1.64.31-.14.68-.26.87-.57.23-.38.15-.83-.14-1.15-.44-.48-1-.88-1.49-1.3-1.02-.88-2.03-1.76-3.05-2.64-.26-.22-.5-.45-.85-.5-.41-.05-.81.16-1.03.51-.34.56-.08 1.38 0 1.98.2 1.49.39 2.99.59 4.48.05.41.31.77.77.77.37 0 .82-.35.77-.77Z"/></g><path d="M135.04 159.58c0-.41-.35-.77-.77-.77H79.03c-.41 0-.77.35-.77.77v4.2c0 .41.35.77.77.77h55.24c.21 0 .37-.08.49-.19.02-.01.04-.02.05-.04.01-.02.02-.03.04-.05.11-.12.19-.28.19-.49v-4.2Z" style="fill:#ffdf9d;stroke-width:0"/><g style="clip-path:url(#clippath-3)"><rect class="cls-8" x="200.72" y="186.91" width="9.37" height="23.22" rx="4.52" ry="4.52" transform="rotate(90 205.41 198.52)"/><rect class="cls-8" x="200.72" y="94.09" width="9.37" height="23.22" rx="4.52" ry="4.52" transform="rotate(90 205.41 105.7)"/></g><path class="cls-6" d="M177.46 67.14c0-.83-13.18-1.52-34.48-1.98-21.3-.45-50.73-.66-83.23-.53-8.13.06-16.07.11-23.73.16-1.97.03-4.01.1-6.1.45-2.08.34-4.27.95-6.27 2.16-2.01 1.16-3.71 2.98-4.78 4.94-1.1 1.97-1.63 4.02-1.96 5.96-.6 3.9-.38 7.45-.35 10.74.07 3.34.13 6.57.19 9.7.16 6.26.31 12.09.44 17.42.64 21.3 1.44 34.47 2.27 34.47.83 0 1.52-13.18 1.97-34.48.09-5.33.19-11.16.29-17.42.03-3.13.07-6.37.11-9.71.05-3.37-.03-6.72.53-9.79.29-1.52.72-2.95 1.42-4.12.34-.59.73-1.12 1.2-1.58.45-.47.98-.87 1.57-1.2 2.37-1.38 5.82-1.67 9.51-1.67 7.66-.01 15.59-.03 23.71-.04 32.5-.14 61.93-.6 83.23-1.23 21.3-.63 34.47-1.44 34.47-2.27Z"/></svg>