<svg id="Illustration" xmlns="http://www.w3.org/2000/svg" viewBox="0 0 200 200"><defs><style>.cls-1{fill:#ffa2af}.cls-2{fill:#fff}.cls-3{fill:#fd7f03}.cls-5{fill:#f4c044}.cls-7{fill:#fdce66}</style></defs><path class="cls-3" d="M94.92 2.97c-2.99.11-3.41 1.91-3.46 3.58-.19 5.73 1.49 11.43 1.9 17.13.34 4.71.54 9.76 2.48 14.21.32.74.81 2.28 2.05 1.24 1.08-.9 1-4.9 1.06-5.97.42-7.77 2.21-15.46 1.6-23.25-.15-1.86-.32-4.5-1.58-6.13-1.15-1.49-2.14-.86-4.04-.81"/><path d="M145.57 77.68c-5.06-13.28-15.64-24.85-29.24-28.97-8.88-2.69-18.42-2.14-27.57-.63-8.36 1.38-16.82 3.65-23.6 8.73-14.59 10.92-17.56 32.55-11.6 49.77a117.416 117.416 0 0 0 25.77 42.41c2.72-.02 5.45-.03 8.17-.03 12.47 0 24.95.13 37.42.05 7.39-9.19 17.03-20.03 20.93-30.7 4.75-13 4.64-27.7-.28-40.63z" style="fill:#f6c243"/><path class="cls-5" d="M82.25 151.98s.02.02.02.03c-1.95 4.13-.93 10.5 3.33 10.92.28.03.57.05.86.07 11.62-.03 23.25.09 34.87.01h.04c.19 0 .38-.01.57-.02 2.67-.09 3.7-2.37 3.98-5.03.22-2.12-.46-4.22-1.7-5.95-2.35.01-4.7.03-7.05.03-11.64 0-23.29-.11-34.93-.06z"/><path class="cls-2" d="M87.5 148.96c-2.72 0-5.45.01-8.17.03.96 1.01 1.93 2.01 2.92 2.98 11.64-.05 23.29.06 34.93.06 2.35 0 4.7-.01 7.05-.03-.27-.37-.55-.73-.86-1.06.5-.64 1.02-1.28 1.54-1.94-12.47.08-24.95-.04-37.42-.05zM86.47 162.99c.13 0 .25.02.37.03.04.99.11 1.98.16 2.97 11.04-.03 22.07.07 33.11.01-.01-.98-.03-1.97-.04-2.95.44-.02.88-.03 1.32-.05h-.04c-11.62.08-23.25-.04-34.87-.01zM113.14 126.22c.09.1.58-.15 1.4-.79.81-.64 1.94-1.68 3.17-3.24 1.22-1.55 2.56-3.62 3.61-6.26 1.06-2.63 1.85-5.86 1.89-9.48.04-3.61-.63-7.62-2.39-11.55-.88-1.95-1.99-3.93-3.6-5.72-1.58-1.77-3.78-3.4-6.46-4-2.65-.63-5.39-.27-7.85.51-2.49.78-4.77 1.95-6.98 3.25-2.22 1.33-4.49 2.98-6.28 5.3-1.8 2.33-2.98 5.31-2.82 8.53.04.8.19 1.61.43 2.4.11.4.27.77.43 1.15.19.38.39.77.63 1.12.93 1.42 2.23 2.49 3.71 3.18 1.47.69 3.2 1 4.91.67 1.74-.33 3.26-1.37 4.25-2.61 1.02-1.24 1.63-2.68 1.93-4.13.3-1.44.3-2.84.17-4.15-.28-2.57-.83-5.01-1.98-7.36-.58-1.16-1.33-2.27-2.28-3.2-.93-.94-2.1-1.7-3.3-2.17-2.43-.96-4.97-.93-7.2-.37-2.23.59-4.24 1.72-5.75 3.24-1.51 1.47-2.57 3.21-3.3 4.92-1.45 3.45-1.68 6.83-1.47 9.66.21 2.84.8 5.18 1.33 7.05 1.12 3.73 2.02 5.66 2.27 5.59.29-.07-.11-2.19-.75-5.94-.29-1.87-.63-4.16-.62-6.78 0-2.59.44-5.57 1.81-8.41.69-1.4 1.62-2.75 2.85-3.85 1.18-1.1 2.72-1.86 4.4-2.25 1.68-.37 3.52-.29 5.08.39 1.56.66 2.79 1.98 3.62 3.75.83 1.74 1.29 3.93 1.49 6.07.18 2.11-.17 4.11-1.32 5.46-.56.68-1.24 1.09-1.98 1.22-.75.14-1.65.01-2.47-.39-.83-.39-1.58-1.02-2.06-1.77-.13-.18-.22-.38-.33-.57-.08-.22-.19-.44-.25-.67-.14-.46-.23-.94-.25-1.45-.11-2.03.67-4.2 1.98-5.88 1.33-1.74 3.17-3.16 5.16-4.37 2.02-1.22 4.08-2.3 6.12-2.97 2.04-.68 4.08-.94 5.88-.55 1.8.35 3.37 1.42 4.69 2.79 1.31 1.38 2.34 3.04 3.18 4.74 1.67 3.4 2.43 6.94 2.57 10.18.14 3.25-.38 6.2-1.17 8.69-.78 2.5-1.83 4.53-2.79 6.13-1.95 3.19-3.51 4.67-3.29 4.91z"/><path class="cls-5" d="M87 165.99c.39 7.38 1.01 14.76 1.93 22.1.12.93.24 1.87.71 2.7.93 1.65 2.98 2.47 4.9 3.09 4.3 1.41 8.8 2.52 13.38 2.47 4.57-.05 9.26-1.37 12.55-4.27-.15-8.65-.25-17.39-.37-26.09-11.03.06-22.07-.04-33.11-.01z"/><path class="cls-7" d="M119.01 181.85h-12.35M90.13 186.15c3.63.12 7.26.25 10.9.37M100.3 171.63H88.13c-1.93 0-1.93 3 0 3h12.17c1.93 0 1.93-3 0-3zM120.01 178h-12.35c-1.93 0-1.93 3 0 3h12.35c1.93 0 1.93-3 0-3z"/><path class="cls-7" d="M100.03 185.02c-3.63-.12-7.26-.25-10.9-.37-.81-.03-1.5.71-1.5 1.5 0 .84.69 1.47 1.5 1.5 3.63.12 7.26.25 10.9.37.81.03 1.5-.71 1.5-1.5 0-.84-.69-1.47-1.5-1.5zM120.03 190.02c-3.63-.12-7.26-.25-10.9-.37-.81-.03-1.5.71-1.5 1.5 0 .84.69 1.47 1.5 1.5 3.63.12 7.26.25 10.9.37.81.03 1.5-.71 1.5-1.5 0-.84-.69-1.47-1.5-1.5z"/><path d="M41.22 19.1c-11.31.87-3.15 9.78-1.76 12.68 3.18 6.61 7.39 12.59 12.1 18.36.45.55 1.9 2.99 3.07 2.22 1.26-.82-.02-4.09-.27-4.78-2.07-5.7-4.45-11.33-6.35-17.13-1.01-3.1-1.72-7.1-3.8-9.67-.86-1.06-2.11-1.25-2.99-1.69z" style="fill:#ffc101"/><path class="cls-1" d="M45.5 63.9c-1.2 1.93-11.23-4.45-17.33-7.75-6.1-3.3-8.61-5.3-7.02-8.03 1.6-2.73 2.9-3.97 6.95-.11 4.05 3.86 14.51 11.16 16.27 12.47 1.75 1.31 1.14 3.42 1.14 3.42zM158.78 18c11.31.87 3.15 9.78 1.76 12.68-3.18 6.61-7.39 12.59-12.1 18.36-.45.55-1.9 2.99-3.07 2.22-1.26-.82.02-4.09.27-4.78 2.07-5.7 4.45-11.33 6.35-17.13 1.01-3.1 1.72-7.1 3.8-9.67.86-1.06 2.11-1.25 2.99-1.69z"/><path class="cls-3" d="M154.5 62.79c1.2 1.93 11.23-4.45 17.33-7.75s8.61-5.3 7.02-8.03-2.9-3.97-6.95-.11c-4.05 3.86-14.51 11.16-16.27 12.47-1.75 1.31-1.14 3.42-1.14 3.42z"/></svg>