<svg id="Illustration" xmlns="http://www.w3.org/2000/svg" viewBox="0 0 158.98 200"><defs><style>.cls-1{fill:none}.cls-2{fill:#f2a6b0}.cls-4{fill:#f75e28}.cls-6{fill:#cc949f}</style></defs><path d="M141.36 46.8c-1.58-13.54-6.84-26.94-17.44-35.94-4.78-4.06-10.44-7.17-16.59-8.54-6.57-1.46-13.47-.92-19.84 1.21C74.39 7.91 64.5 18.2 58.3 30.29c-6.86 13.41-9.34 28.36-11.22 43.15-.24 1.9-.47 3.8-.71 5.69-.12.97.91 1.8 1.8 1.8 1.07 0 1.69-.83 1.8-1.8h.01c.72-5.86 1.44-11.78 2.44-17.65l18.56 2.04c-.21 1.77-.41 3.54-.6 5.3-.1.97.9 1.8 1.8 1.8 1.06 0 1.69-.83 1.8-1.8.85-7.77 1.72-15.63 4.4-23.02 2.29-6.31 6.1-12.5 12.12-15.83 2.79-1.54 5.96-2.36 9.15-2.07 2.87.26 5.67 1.62 7.88 3.45 5.4 4.46 8.05 11.27 8.97 18.05 1.21 8.91-.38 17.89-1.93 26.65-.17.96.26 1.94 1.26 2.21.87.24 2.04-.3 2.21-1.26.41-2.33.83-4.68 1.19-7.04l10.4 4.36 6.15 6.46c-.35 1.99-.72 3.97-1.1 5.94-.36 1.87-.72 3.73-1.09 5.61-.19.96.27 1.95 1.26 2.21.89.24 2.03-.3 2.21-1.26 3-15.26 6.08-30.89 4.26-46.5Z" style="fill:#cc9e40"/><g id="Layer_6"><path class="cls-4" d="M112.24 168.71s-10.23.13-14.78 0c-4.55-.13-68.04-7.26-68.04-7.26s-13.27-1.78-14.21-2.11c-.15-.05-.36-.12-.59-.19-.62-.96-1.23-1.92-1.84-2.89-1.23-1.96-4.35-.15-3.11 1.82 3.09 4.92 6.34 9.73 9.97 14.26 2.68 3.34 5.52 6.44 8.51 9.4 1.54 1.53 2.91 3.34 4.8 4.46 2.08 1.23 4.62 1.75 6.99 2.07h.07c11.71.93 23.41 2.03 35.08 3.35 10.38 1.17 20.74 2.5 31.11 3.78 7.12.88 14.24 1.73 21.36 2.56.96.11 1.78-.88 1.8-1.77.22 0 .38-.01.49-.04 1.57-.36 3.59-2.06 3.59-2.06l-21.18-25.37Z"/><path class="cls-2" d="M133.7 196.73c2.02-1.13 3.46-2.82 4.35-4.93.78-1.84 1.22-3.76 1.72-5.68.23-.91-.3-1.99-1.26-2.21-.96-.22-1.96.28-2.21 1.26-.45 1.73-.83 3.47-1.49 5.14-.01.04-.14.33-.05.12.1-.23-.06.13-.08.17-.09.19-.18.38-.28.56s-.2.36-.31.52c-.06.09-.12.19-.19.28-.23.32.01 0 0 0 .04.04-.87.9-.97.98 0 0-.36.28-.19.15s-.21.14-.2.14c-.22.14-.44.28-.67.41-.83.46-1.17 1.66-.65 2.46.52.8 1.58 1.13 2.46.65Z"/><path class="cls-4" d="M127.07 197.89c.87.12 1.71.19 2.58.09.87-.1 1.7-.25 2.52-.56.45-.17.83-.4 1.08-.83.23-.39.32-.96.18-1.39s-.41-.86-.83-1.08-.94-.35-1.39-.18c-.6.22-1.22.38-1.85.47l.48-.06c-.74.1-1.48.1-2.21 0l.48.06h-.08c-.24-.09-.48-.1-.72-.05-.24.01-.46.08-.67.21-.37.22-.73.65-.83 1.08-.1.46-.08.98.18 1.39.23.36.63.76 1.08.83h-.02Z"/><path class="cls-2" d="M151.34 102.98c.06-.27.07-.57.03-.86-.73-5.31-3.87-9.8-7.08-13.93-3.21-4.13-6.64-8.47-10.37-12.33a59.05 59.05 0 0 0-7-6.22c-.78-.58-2.02-.12-2.46.65-.54.92-.13 1.88.65 2.46.93.7 1.83 1.45 2.71 2.22.17 1.66.38 3.77.51 5.31.25 2.9-3.34 29.73-4.4 34.18-1.05 4.44-5.08 34.78-6.01 41.69-.63 4.62-2.95 8.67-4.42 10.85-.64-.2-1.43 0-1.88.44-.76.76-.6 1.77 0 2.54 6.66 8.6 13.51 17.06 20.53 25.37.63.74 1.9.65 2.54 0 .62-.62.64-1.46.26-2.15.58-.85 1.44-2.2 1.95-3.46.12-.3.33-1.16.59-2.4.02 0 .04.02.07.03.87.24 2.04-.3 2.21-1.26 1.84-10.37 3.69-20.74 5.33-31.14 1.41-8.91 2.63-17.83 3.75-26.78.79-6.29 1.52-12.59 2.25-18.9.41-2.1.48-4.22.23-6.32Z"/><path d="M129.99 74.83c-.46-2.1-1.36-3.97-3.17-5.21-1.25-.86-2.9-1.14-4.36-1.43-1.43-.28-2.93-.57-4.41-.66-.04 0-.09-.02-.13-.02-11.44-1.32-22.86-2.78-34.28-4.24-9.71-1.24-19.44-2.43-29.18-3.4-6.85-.69-13.72-1.29-20.58-1.83-1.63-.25-3.24-.46-4.88-.2-1.38.21-2.69.8-3.8 1.64-2.48 1.88-3.93 4.66-4.64 7.65-.03.12-.04.24-.05.36-1.88 10.88-3.75 21.76-5.54 32.66-1.54 9.4-3.01 18.82-4.41 28.24-1 6.75-1.99 13.5-2.96 20.26-.01.08-.01.15-.02.23-.01.08-.03.16-.04.25h-.01c-.21 3.26.27 6.56 2.4 9.14 1.04 1.25 2.45 1.99 3.95 2.55 1.62.61 3.29.96 5.01 1.18h.08c11.71.93 23.41 2.03 35.08 3.35 10.38 1.17 20.74 2.5 31.11 3.78 7.12.88 14.24 1.73 21.36 2.56h.24c3.19.23 6.47-.86 8.6-3.36 2.02-2.37 2.63-5.54 3.4-8.47.02-.08.03-.17.04-.26 1.83-10.28 3.65-20.57 5.28-30.88 1.41-8.91 2.63-17.83 3.75-26.78.78-6.29 1.52-12.58 2.25-18.88.52-2.73.52-5.5-.08-8.21Z" style="fill:#f6c243"/><path d="M97.39 114.77c.07-.37.02-.78-.24-1.2-2.35-3.9-4.92-7.67-7.68-11.29.5-.31.8-.85.86-1.52l.28-2.78c.09-.87.28-1.79.23-2.66-.08-1.27-.78-2.23-1.94-2.75-.85-.39-1.72-.77-2.57-1.16-.54-.25-1.04-.33-1.6-.09-.47.19-.96.63-1.05 1.17l-.35 2.35a124.082 124.082 0 0 0-7.03-7.27c-.95-.9-1.94-2.08-3.34-2.17-1.2-.08-2.19.56-3.19 1.16a166.072 166.072 0 0 0-15.95 10.83c-4.57 3.51-8.96 7.22-13.15 11.17-.66.63-.67 1.39-.34 2 .08.21.21.41.38.56.38.34.77.46 1.27.53l7.29.96c-.43 3.29-.82 6.59-1.13 9.89-.17 1.86-.33 3.72-.46 5.58-.12 1.61-.45 3.44.03 5.03 1.03 3.42 4.9 3.63 7.85 4.02 3.67.48 7.33.92 11.01 1.33 4.18.46 8.37.87 12.57 1.23.53.04 1.01-.23 1.34-.62.76-.1 1.46-.51 2.08-1.06 1.72-1.51 2.33-3.87 2.78-6.03 1.09-5.24 1.78-10.57 2.11-15.91 2.72.53 5.48.89 8.25 1.04.94.05 1.84-.87 1.8-1.8 0-.2-.05-.38-.11-.55Z" style="fill:#78577a"/></g><g id="Layer_7"><path class="cls-1" d="M143.97 136.02c.41 2.26 1.47 4.4 2.96 6.23.67-4.59 1.3-9.09 1.71-12.48.15-1.29.31-2.58.47-3.87-3.47 2.16-5.9 5.81-5.13 10.11ZM145.06 89.29c-1.78-2.35-3.78-4.8-5.79-7.38-5.77-7.42-12.03-12.11-12.03-12.11 3.31 2.83 3.47 8.96 3.15 12.11-.32 3.15-1.29 10.92-1.29 10.92l-.58 4.13c6.58.25 12.73-2.66 16.55-7.67ZM120.5 181.23c3.25 4.07 6.67 8.36 8.68 10.87.06-.19.13-.37.18-.57 1.5-6.28-5.08-7.3-8.86-10.3ZM117.13 169.97c1.11-3.39 3.48-5.98 3.72-9.67.12-1.9-.35-3.74-1.26-5.23-.81 4.4-1.55 8.17-1.95 9.59-1.21 4.28-5.4 6.22-5.4 6.22s2.39 3 5.46 6.84c-1.16-2.37-1.42-5.15-.57-7.74Z"/><path class="cls-1" d="M131.68 137.1c-1.58-12 7.78-22.59 19.07-25.1.42-4.19.65-7.83.47-10.41-.02-.28-.06-.56-.1-.85-6.42 6.03-15.19 9.42-24.36 8.64l-3.59 25.32s-.45 2.71-1.11 6.5c3.76 1.81 6.98 4.81 8.89 8.6 2.26 4.46 2.69 9.45 1.84 14.32-.41 2.33-1.24 4.57-2.28 6.69-.04.08-.4.78-.76 1.47 1.22.62 3.03 1.71 3.31 1.87 2.09 1.24 3.84 2.9 5.28 4.86.85 1.16 1.55 2.4 2.1 3.69.98-5.68 3.29-19.59 3.29-19.59s.45-2.8 1.1-6.9c-6.91-3.97-12.02-10.78-13.12-19.12h-.02Z"/><path class="cls-6" d="M151.11 100.74c-.54-3.6-2.95-7.37-6.05-11.45-3.82 5.01-9.98 7.91-16.55 7.67l-1.76 12.43c9.18.78 17.94-2.61 24.36-8.64ZM131.68 137.1c1.1 8.34 6.2 15.15 13.12 19.12.61-3.91 1.4-8.99 2.13-13.97-1.49-1.82-2.55-3.98-2.96-6.23-.77-4.31 1.66-7.96 5.13-10.11.6-4.86 1.22-9.66 1.64-13.91-11.29 2.5-20.65 13.1-19.07 25.1ZM133.04 174.16c-.28-.17-2.08-1.25-3.31-1.87.37-.69.72-1.4.76-1.47 1.05-2.12 1.88-4.36 2.28-6.69.85-4.87.41-9.86-1.84-14.32-1.92-3.78-5.13-6.79-8.89-8.6-.69 4.03-1.62 9.29-2.46 13.86.91 1.49 1.38 3.34 1.26 5.23-.23 3.69-2.61 6.28-3.72 9.67-.85 2.59-.59 5.37.57 7.74.89 1.11 1.84 2.3 2.8 3.51 3.78 3.01 10.36 4.03 8.86 10.3-.05.2-.12.38-.18.57.76.95 1.32 1.66 1.59 1.99 1.91 2.39 2.65 1.87 2.65 1.87v.91s1.24-.56 1.99-1.18c2.3-1.88 4.01-7.37 4.74-11.49.07-.39.16-.89.25-1.48a17.55 17.55 0 0 0-2.1-3.69c-1.43-1.95-3.18-3.6-5.28-4.86Z"/></g></svg>