<svg id="Illustration" xmlns="http://www.w3.org/2000/svg" viewBox="0 0 200 200"><defs><style>.cls-2{fill:none}.cls-3{fill:#fff}.cls-4{fill:#ff8000}.cls-7{fill:#5b3d5b}.cls-2{stroke:#ff8000;stroke-miterlimit:10;stroke-width:3.19px}</style></defs><g id="Magnifying_glass"><circle class="cls-4" cx="121.27" cy="69.41" r="67.09" transform="rotate(-45 121.27 69.408)"/><circle cx="121.27" cy="69.41" r="44.67" style="fill:#c1dade"/><path class="cls-2" d="M188.21 69.49c0 37.01-30 67.01-67.01 67.01s-67.01-30-67.01-67.01 30-67.01 67.01-67.01 67.01 30 67.01 67.01Z"/><circle class="cls-2" cx="121.2" cy="69.49" r="54.77"/><path class="cls-4" d="M88.44 113.69s-.05.06-.07.09l-10.14-8.54c1.02-1.24-.8-3.01-1.96-1.8-24.16 25.38-48 51.04-71.55 76.99-.49.53-.43 1.17-.12 1.64 0 .11.02.21.06.33 2.36 7.57 7.66 13.8 15.19 16.55.41.15.76.09 1.03-.08.4.13.85.05 1.21-.39 22.75-27.63 45.5-55.26 68.24-82.9 1.09-1.31-.8-3.22-1.89-1.89Z"/><path d="M121.2 59.71c18.5 0 34.37 11.24 41.16 27.27 2.31-5.39 3.6-11.33 3.6-17.57 0-24.67-20-44.67-44.67-44.67s-44.67 20-44.67 44.67c0 6.18 1.25 12.05 3.51 17.4 6.83-15.93 22.65-27.1 41.08-27.1Z" style="fill:none"/><path d="M121.2 59.71c-18.44 0-34.26 11.17-41.08 27.1 6.78 16.03 22.66 27.27 41.16 27.27s34.26-11.17 41.08-27.1c-6.78-16.03-22.66-27.27-41.16-27.27Z" style="fill:#d6e8ea"/></g><g id="Open_eye"><path class="cls-3" d="M143.42 65.98c-.59-1.72-1.55-4.03-2.82-5.47-2.23-2.52-7.2-6.48-11.88-7.68-4.68-1.2-8.24-.09-13.71 1.99-5.46 2.08-7.69 5.73-9.87 8.93-1.58 2.33-2.72 6.64-3.16 8.92-.94.17-1.8 1.2-1.23 2.33 3.46 6.8 10.51 11.22 17.99 12.12 7.65.92 15.19-2.51 20.39-8.02 2.97-3.14 5.25-7 6.24-11.22.31-1.32-.97-2.13-1.97-1.9Z"/><path class="cls-7" d="M130.72 67.68c-.13-2.04-.93-3.84-2.3-5.26-1.54-1.61-3.73-2.45-5.93-2.59a9.45 9.45 0 0 0-1.3.02c-.07 0-.13 0-.2.02-.11.01-.22.02-.34.04-.17.02-.34.06-.51.09-.09.02-.18.03-.28.05-.24.06-.47.12-.7.2-.08.03-.16.06-.23.09-2.6.95-4.65 3.13-5.26 5.94-.79 3.59 1 7.5 4.25 9.34 3.72 2.1 8.32.86 10.88-2.43 1.22-1.58 2.05-3.46 1.92-5.5Z"/><path class="cls-7" d="M145.37 67.04c-.81-3.33-2.48-6.38-4.74-8.92.88-1.38 1.7-2.81 2.41-4.29.19-.38.27-.78.16-1.2-.1-.36-.38-.75-.71-.93-.7-.37-1.75-.22-2.13.56-.61 1.24-1.29 2.44-2.01 3.62-1.97-1.66-4.22-2.98-6.65-3.84l.97-6.71c.06-.43.08-.81-.16-1.2-.19-.32-.56-.63-.93-.71-.74-.17-1.79.23-1.92 1.09l-.97 6.72a22.77 22.77 0 0 0-8.27-.04 56.444 56.444 0 0 1-1.42-6.16c-.12-.67-.26-1.57-.32-2.06-.1-.8-.64-1.6-1.56-1.56-.75.03-1.67.69-1.56 1.56.4 3.03 1 6.02 1.83 8.96-2.21.7-4.32 1.74-6.25 3.06-.36-.37-.7-.74-1.03-1.13-.11-.13-.22-.26-.32-.39-.04-.05-.08-.09-.11-.14-.01-.01-.02-.03-.03-.04-.11-.13-.07-.06-.02 0-.09-.09-.21-.3-.26-.37-.1-.14-.2-.28-.3-.41a22.76 22.76 0 0 1-1.98-3.46c-.35-.74-1.47-.98-2.13-.56-.76.49-.93 1.33-.56 2.13 1.07 2.31 2.54 4.45 4.29 6.31a23.565 23.565 0 0 0-3.11 3.35 24.689 24.689 0 0 0-2.6 4.28 38.31 38.31 0 0 1-2.7-1.88c-.22-.17-.45-.35-.67-.53-.33-.27-.66-.46-1.1-.46-.38 0-.84.17-1.1.46-.26.28-.48.68-.46 1.1.02.39.14.84.46 1.1a39.91 39.91 0 0 0 4.39 3.15c-.67 2-1.11 4.09-1.3 6.2-.07.84.77 1.56 1.56 1.56.9 0 1.48-.71 1.56-1.56.65-7.49 5.17-14.49 11.99-17.78 6.82-3.28 14.85-2.55 20.56 2.19 3.05 2.54 5.27 5.91 6.2 9.78.47 1.94 3.47 1.12 3-.83Z"/></g><path class="cls-3" d="M34.3 185.78c1.21-1.11-1.98-6.56-7.13-12.17s-10.3-9.26-11.51-8.15c-1.21 1.11 1.98 6.56 7.13 12.17s10.3 9.26 11.51 8.15ZM80.96 126.96c1.09-1.23-1.28-5.11-5.29-8.66-4.01-3.56-8.15-5.44-9.24-4.21-1.09 1.23 1.28 5.11 5.29 8.66 4.01 3.56 8.15 5.44 9.24 4.21Z"/></svg>