<svg id="Illustration" xmlns="http://www.w3.org/2000/svg" viewBox="0 0 200 200"><defs><style>.cls-1{fill:none}.cls-4{fill:#f75e28}.cls-7{fill:#ffc101}.cls-8{fill:#fcb9c4}.cls-9{fill:#ff8000}</style></defs><g id="Layer_5"><path d="m72.42 141.57-15.58-14.51c.86-.97-.58-2.4-1.49-1.43L19.69 163.2l-9.95 10.48c-.92.97.55 2.44 1.46 1.46l.03-.03 15.24 14.47c-.88.97.57 2.41 1.48 1.44l35.34-37.22 9.92-10.45c.71-.75 0-1.79-.79-1.78Z" style="fill:#f2a6b0"/><path d="M195.41 80.49c-2.31-4.52-12.53-24.46-15.38-28.82-3.22-4.92-14.17-20.05-28.62-30.07-14.45-10.02-27.53-15.03-32.44-16.74a75.39 75.39 0 0 0-7.8-2.25c.16-1.06-1.37-1.85-1.88-.74-5.59 12.21-11.18 24.4-16.78 36.6-5.1 11.11-10.2 22.21-15.3 33.32C73.9 79 70.6 86.23 67.29 93.44c-.51 1.12 1 2.11 1.66 1.26l35.1 33.48c-.6.74.33 2.07 1.37 1.53 12.09-6.31 24.18-12.61 36.26-18.9 11.14-5.8 22.27-11.59 33.4-17.39 7.11-3.71 14.21-7.41 21.32-11.12 1.16-.61.17-2.35-1-1.81Z" style="fill:#ffe1a6"/><path class="cls-4" d="m55.77 106.86 28.18 26.75 8.16 7.75c.63.59 1.58-.35.95-.95l-28.18-26.75-8.16-7.75c-.63-.59-1.58.35-.95.95Z"/><path class="cls-4" d="m105.56 128.18-27.77-26.36-9.15-8.68c-.49-.47-1.11-.32-1.48.06-.06.04-.12.09-.17.15l-11.49 12.1c-.3.32-.34.68-.24 1.01-.85 5.76-1.15 11.61-2.24 17.33v.04c-.1.31-.04.67.27.97l10.31 9.8c.16.16.34.24.52.27.04.16.13.33.29.47l10.31 9.8c.1.1.21.16.31.21.02 0 .04.02.06.03h.03c.17.06.37.08.6.03 5.7-1.39 11.56-1.99 17.31-3.15.27.04.57-.04.82-.31l11.49-12.1c.06-.07.11-.14.16-.21.4-.36.55-.98.04-1.45Z"/><path class="cls-9" d="M27.94 189.56c-5.58-5.3-11.16-10.6-16.74-15.89-.1-.09-.2-.16-.31-.21-.02 0-.03-.02-.05-.03a.937.937 0 0 0-.29-.06c-.3-.03-.6.06-.81.29l-6.47 6.81c-.12.13-.19.28-.24.43-.13.33-.09.71.23 1.03 5.58 5.3 10.81 10.96 16.39 16.26.1.1.21.16.33.21H20c.11.04.22.06.34.07h.12c.05 0 .11-.02.16-.03.18-.04.36-.12.49-.26l6.82-7.18c.1-.11.17-.23.22-.37.16-.34.14-.76-.22-1.1Z"/><path d="M196.88 81.13c-6.23-15.29-14.57-29.74-25.4-42.24-10.12-11.69-22.4-21.53-36.24-28.48-7.88-3.95-16.21-6.97-24.78-9.01-.33-.08-.61 0-.83.15-.4.18-.66.59-.44 1.13.02.12.07.23.14.33 6.19 15.11 14.42 29.41 25.13 41.79 10.06 11.63 22.27 21.4 36.04 28.28 7.82 3.92 16.1 6.89 24.61 8.94.7.74 2.22.2 1.77-.89Z" style="fill:#f6c243"/></g><g id="Layer_8"><path class="cls-1" d="M35.13 150.18c.21-.75.9-1.24 1.66-1.27 5.39-.21 10.78-.3 16.18-.26 2-6.3 3.73-12.68 5.18-19.12l-3.38-3.18s-9.8 10.27-11.99 12.54c-.84.87-5.9 6.18-11.81 12.38 1.17.49 2.33.97 3.5 1.45.21-.85.42-1.7.66-2.54ZM33.25 178.7c-.75-.26-1.24-.86-1.27-1.66-.26-7.01.33-14.04 1.74-20.91-1.76-.71-3.51-1.44-5.27-2.19-3.75 3.94-7.64 8.02-10.89 11.43l.7.06c1.44.1 3.1.19 3.6 1.85.39 1.27.09 2.9.06 4.21l-.1 4.48c-.06 2.54-.12 5.09-.17 7.63l6.95 6.7s4.72-4.96 9.67-10.17c-1.7-.39-3.38-.86-5.03-1.43Z"/><path class="cls-1" d="M18.51 169.76c0-.22-.03-.53-.03-.82-.3-.03-.62-.09-.72-.1-.44-.03-.88-.07-1.33-.11-.63-.06-1.26-.13-1.89-.21-2.82 2.95-4.66 4.89-4.66 4.89l1.37.16 7.01 6.76.18-7.82.06-2.75ZM37.71 154.01c3.94 1.55 7.9 3.04 11.89 4.46.78-2.11 1.53-4.24 2.24-6.38-4.57-.02-9.14.06-13.7.23-.14.57-.3 1.13-.43 1.69ZM67.14 149.04c.14 0 .3.04.46.08 3.16-3.34 5.38-5.7 5.38-5.7l-11.9-11.17c-1.3 5.53-2.8 11.01-4.49 16.43 3.52.06 7.03.17 10.55.35Z"/><path class="cls-1" d="M52.3 161.13c-.31.82-1.19 1.53-2.13 1.21-3.75-1.31-7.48-2.69-11.18-4.12-.68-.26-1.35-.54-2.03-.81a84.322 84.322 0 0 0-1.56 18.36c1.86.59 3.76 1.06 5.67 1.41 2.42-2.54 4.68-4.94 6.25-6.6 3.05-3.23 10.96-11.6 17.19-18.2-3.01-.12-6.03-.21-9.04-.26-1 3.02-2.05 6.02-3.17 9Z"/><path class="cls-8" d="M21.92 171.48c.03-1.31.32-2.93-.06-4.21-.5-1.66-2.16-1.76-3.6-1.85-.23-.01-.47-.04-.7-.06-1.08 1.14-2.1 2.2-3.01 3.15a60.645 60.645 0 0 0 3.22.32c.1 0 .42.06.72.1 0 .29.03.6.03.82l-.06 2.75-.18 7.82 3.38 3.26c.06-2.54.12-5.09.17-7.63l.1-4.48ZM67.14 149.05c-3.51-.17-7.03-.28-10.55-.35-.36 1.14-.73 2.29-1.1 3.42 3.02.04 6.03.13 9.04.26 1.09-1.15 2.13-2.24 3.08-3.25-.16-.05-.31-.08-.46-.08ZM38.14 152.33c4.57-.17 9.13-.24 13.7-.23.1-.29.2-.58.3-.88.28-.86.55-1.71.82-2.57-5.39-.04-10.79.05-16.18.26h.01c-.77.03-1.46.52-1.66 1.27-.23.84-.44 1.69-.66 2.54 1.08.43 2.15.86 3.23 1.29.14-.57.29-1.13.43-1.69Z"/><path class="cls-8" d="m61.07 132.28-2.91-2.73c-1.46 6.45-3.18 12.83-5.18 19.12-.27.86-.54 1.71-.82 2.57-.1.29-.2.58-.3.88-.72 2.14-1.47 4.26-2.24 6.38-3.99-1.42-7.96-2.91-11.89-4.46-1.08-.43-2.15-.86-3.23-1.29-1.17-.48-2.33-.96-3.5-1.45-.83.87-1.68 1.76-2.53 2.66 1.75.74 3.51 1.47 5.27 2.19-1.41 6.87-2 13.9-1.74 20.9.03.8.52 1.41 1.27 1.66 1.65.57 3.33 1.04 5.03 1.43.93-.98 1.88-1.97 2.8-2.95-1.91-.36-3.8-.83-5.67-1.41a84.71 84.71 0 0 1 1.56-18.34c.68.26 1.35.52 2.03.79 3.7 1.44 7.43 2.81 11.18 4.12.94.33 1.82-.38 2.13-1.21 1.12-2.98 2.17-5.98 3.17-9 .38-1.14.75-2.29 1.1-3.43 1.7-5.42 3.2-10.9 4.49-16.43Z"/></g><path class="cls-9" d="M44.15 140.55c-.5-.78-1.21-1.49-1.94-2.04s-1.64-.92-2.58-.95c-1.09-.03-2.11.37-2.96 1.01-.09.05-.17.11-.25.18-1.92 2.02-3.84 4.05-5.76 6.08l-.03.03c-.7.69-1.3 1.56-1.49 2.54-.19.99-.02 2.07.54 2.95.5.78 1.2 1.49 1.94 2.04s1.64.92 2.58.95c1.11.03 2.16-.39 3.02-1.06.02-.01.04-.03.06-.04l.11-.08c.05-.04.1-.1.14-.15l5.64-5.94s.01 0 .02-.01c.7-.7 1.32-1.57 1.51-2.56.19-.99.02-2.07-.54-2.95Z"/><path class="cls-7" d="M102.84 68.61c-.78-.36-5.09 7.31-9.63 17.13-4.54 9.82-7.59 18.08-6.81 18.44s5.09-7.31 9.63-17.13c4.54-9.82 7.59-18.08 6.81-18.44ZM149.64 83.14c-.38-.77-13.44 4.9-29.17 12.66-15.73 7.76-28.18 14.67-27.8 15.44.38.77 13.44-4.9 29.17-12.66 15.73-7.76 28.18-14.67 27.8-15.44Z"/><path d="M91.59 141.59c.59-.62-7.04-8.85-17.05-18.37-10.01-9.53-18.6-16.75-19.19-16.13-.59.62 7.04 8.85 17.05 18.37 10.01 9.53 18.6 16.75 19.19 16.13Z" style="fill:#fff"/></svg>