<svg id="Illustration" xmlns="http://www.w3.org/2000/svg" viewBox="0 0 200 200"><defs><style>.cls-1{fill:none}.cls-3{fill:#e87003}.cls-5{fill:#fff}</style></defs><g id="Bag"><path class="cls-3" d="M89.36 49.19c-.25-11.63 5.34-24.41 16.4-29.03 1.05-.44 2.75-.97 4.1-1.28.68-.15 1.38-.29 2.07-.39.5-.08-.38.04.13-.02.15-.02.3-.03.45-.05.4-.04.8-.07 1.2-.09 3.18-.16 5.36.08 8.36 1.06 2.37.78 4.87 2.21 6.71 3.93 2.27 2.12 3.76 3.91 5.28 6.41 1.76 2.91 2.74 5.4 3.48 8.85.4 1.83.52 2.85.62 4.75.09 1.9.04 3.88-.13 5.81-.13 1.57 1.43 2.91 2.91 2.91 1.69 0 2.77-1.34 2.91-2.91.61-7.06-.48-14.22-3.76-20.55-2.99-5.75-7.84-11.17-13.85-13.78-6.32-2.75-13.55-3.03-20.12-.95-6.57 2.07-12.42 6.77-16.34 12.7-4.37 6.62-6.43 14.74-6.26 22.63.03 1.57 1.32 2.91 2.91 2.91s2.94-1.33 2.91-2.91h.02zM187.5 188.56c-1.27-17.57-2.38-35.15-3.63-52.72-1.37-19.18-2.85-38.36-4.85-57.49-1.01-9.72-2.17-19.43-3.6-29.11-.09-.65-.55-.92-1.04-.91-.06 0-.12-.02-.18-.02h-28.1c-1.63 0-1.63 2.53 0 2.53h.32c2.69 16.59 7.72 125.77 8.21 136.8-1.36.26-1.27 2.5.27 2.5h31.32c.75 0 1.16-.54 1.21-1.12.04-.14.07-.3.06-.47z"/><path d="M153.71 136.19c-.85-19-1.83-38.01-3.31-56.98-.75-9.65-1.64-19.3-2.81-28.9-.07-.55-.11-1.11-.4-1.45-.33-.38-.94-.53-1.59-.53h-24.81c.46-6.79-.67-13.65-3.82-19.74-2.99-5.75-7.84-11.17-13.85-13.78-6.32-2.75-13.55-3.03-20.12-.95-6.57 2.07-12.42 6.77-16.34 12.7-4.21 6.38-6.27 14.15-6.26 21.77H28.95c-.06 0-.12 0-.18.02-.49 0-.94.26-1.05.91-2.65 17.88-4.39 35.89-5.92 53.89-1.62 19.04-2.92 38.1-4.21 57.17-.63 9.41-1.26 18.83-1.94 28.24-.02.24.03.44.11.61.1.52.5.99 1.19.99h137.72c.78 0 1.18-.57 1.21-1.18.03-.13.06-.26.05-.41-.81-17.46-1.45-34.92-2.23-52.37zM82.64 20.16c1.05-.44 2.75-.97 4.1-1.28.68-.15 1.38-.29 2.07-.39h.13c.15-.02.3-.03.45-.05.4-.04.8-.07 1.2-.09 3.18-.16 5.36.08 8.36 1.06 2.37.78 4.87 2.21 6.71 3.93 2.27 2.12 3.76 3.91 5.28 6.41 1.76 2.91 2.74 5.4 3.48 8.85.4 1.83.52 2.85.62 4.75.08 1.63.05 3.32-.07 4.99H66.25c.04-11.39 5.6-23.65 16.4-28.16z" style="fill:#ff8000"/></g><g id="Layer_3"><path class="cls-1" d="M141.96 127.41c-.05-.58-.14-.82-.14-.82-.26-.67-.91-1.14-1.67-1.14-.4 0-.76.13-1.05.34 0 0-.21.13-.54.47 0 0-11.19 11.44-13.55 45.37 0 0-.05.47.08.9.19.7.74 1.27 1.67 1.43l5.83.8c.51.08.91.46.91.98 0 0-.24 5.17-1.21 14.4h8.58c.19-3.23.63-10.78 1.01-19.77.6-14.16 1.07-32.31.1-42.98v.02zM81.88 147.1a2.901 2.901 0 0 0-2.12-2.47L71.3 143a2.908 2.908 0 0 1-1.91-4.06c.62-1.62 16.78-31.09 46.14-49.21a7.516 7.516 0 0 1 4.21-1.27c1.56 0 3 .46 4.21 1.27 6.35 3.92 12.09 8.37 17.18 12.96s.04.03.07.03c.06 0 .11-.05.11-.11v-2.95c0-1 .8-1.8 1.8-1.8.08 0 .15 0 .23.02l8.43 1.02c-.4-6.57-.84-13.13-1.36-19.69-.75-9.65-1.64-19.3-2.81-28.9-.07-.55-.11-1.11-.4-1.45-.33-.38-.94-.53-1.59-.53H28.95c-.06 0-.12 0-.18.02-.49 0-.94.26-1.05.91-2.65 17.88-4.39 35.89-5.92 53.89-1.62 19.04-2.92 38.1-4.21 57.17-.63 9.41-1.26 18.83-1.94 28.24-.02.24.03.44.11.61.1.52.5.99 1.19.99h68.49c-1.97-9.26-3.52-41.59-3.58-43.05z"/><path class="cls-1" d="M111.36 173.92c.03-.56.33-1.03.75-1.32a9.11 9.11 0 0 0 3.96-7.52V164.68c-.42-11.42-.62-24.43-.02-34.71v-.13c-.02-.94-.79-1.69-1.73-1.67-.89.02-1.62.72-1.67 1.6-.43 7.04-.47 15.38-.32 23.62 0 1.1-.87 2.02-1.97 2.03s-2.02-.86-2.05-1.97c-.15-8.19-.11-16.47.3-23.49v-.13c-.02-.94-.79-1.69-1.73-1.67-.89.02-1.62.72-1.67 1.6-.43 7.08-.47 15.46-.32 23.74.02 1.11-.87 2.03-1.97 2.05-1.11.02-2.03-.87-2.05-1.98-.15-8.22-.12-16.56.3-23.61v-.13c-.02-.94-.79-1.69-1.73-1.67-.89.02-1.62.72-1.67 1.6-.64 10.58-.41 24.1.03 35.78a9.12 9.12 0 0 0 4.44 7.36c.49.3.83.83.86 1.44 0 .18.03.4.03.57.3 6.08.66 11.89.88 15.22h8.51c-.14-1.39-.35-3.41-.61-5.99-.78-8.49-.57-10.25-.57-10.25l.02.02z"/><path class="cls-5" d="M143.11 97.86c-1 0-1.8.8-1.8 1.8v2.95c0 .06-.05.11-.11.11-.03 0-.05 0-.07-.03-5.09-4.59-10.83-9.04-17.18-12.96a7.516 7.516 0 0 0-4.21-1.27c-1.56 0-3 .46-4.21 1.27-29.36 18.12-45.52 47.59-46.14 49.21-.18.38-.28.79-.28 1.24 0 1.36.94 2.5 2.19 2.82l8.46 1.63c1.13.31 1.98 1.28 2.12 2.47.07 1.47 1.62 33.79 3.58 43.05h18.56c-.22-3.34-.58-9.15-.88-15.22 0-.18-.03-.4-.03-.57-.03-.61-.37-1.14-.86-1.44a9.12 9.12 0 0 1-4.44-7.36c-.45-11.7-.67-25.21-.03-35.78.05-.88.78-1.59 1.67-1.6.94-.02 1.71.73 1.73 1.67v.13c-.41 7.05-.46 15.38-.3 23.61.02 1.11.94 2 2.05 1.98 1.11-.02 2-.94 1.97-2.05-.15-8.28-.11-16.67.32-23.74.05-.88.78-1.59 1.67-1.6.94-.02 1.71.73 1.73 1.67v.13c-.41 7.02-.46 15.3-.3 23.48.03 1.11.94 2 2.05 1.97 1.1-.02 1.99-.93 1.97-2.03-.15-8.24-.11-16.58.32-23.62.05-.88.78-1.59 1.67-1.6.94-.02 1.71.73 1.73 1.67v.13c-.61 10.28-.41 23.29 0 34.71V165.09a9.11 9.11 0 0 1-3.96 7.52c-.43.3-.72.77-.75 1.32 0 0-.21 1.75.57 10.25.25 2.58.46 4.6.61 5.99h19.73c.98-9.24 1.21-14.4 1.21-14.4 0-.51-.4-.9-.91-.98l-5.83-.8c-.92-.16-1.47-.73-1.67-1.43-.12-.42-.08-.9-.08-.9 2.36-33.94 13.55-45.37 13.55-45.37.33-.34.54-.47.54-.47.3-.21.66-.34 1.05-.34.76 0 1.41.47 1.67 1.14 0 0 .09.24.14.82.96 10.67.5 28.82-.1 42.98-.38 8.99-.82 16.54-1.01 19.77h13.85c.78 0 1.18-.57 1.21-1.18.03-.13.06-.26.05-.41-.81-17.46-1.45-34.92-2.23-52.37-.56-12.43-1.18-24.86-1.96-37.29l-8.43-1.02c-.08 0-.15-.02-.23-.02v-.03z"/></g><path d="M182.57 129.25c-7.49-3.07-15.41-5.69-19.65-10.12-2.49-2.6-5.27-7.29-4.39-11.23 1.19-5.32 8.01-7.17 11.94-9.75 3.12-2.05 6.31-4.46 9.17-7.25-.37-4.18-.74-8.37-1.15-12.54-.81-8.35-1.74-16.69-2.83-25.01-3.1-.79-6.3-.81-9.52-.38-3.2.42-13.54 4.68-15.83 1.41a9.307 9.307 0 0 0-2.14-2.19c.5 3.94 1.06 11.03 1.66 19.98 3.13.55 6.49.44 10.06-.22 2.4-.44 11.48-4.22 13.31-1.11 1.78 3.03-8.54 10.65-9.81 11.54-4.12 2.88-8.63 5.15-12.43 8.2.76 13.32 1.53 28.27 2.22 42.4 4.89 4.41 10.86 7.36 16.89 9.78 1.65.66 12.53 3.23 13.16 5.15 1.36 4.16-10.3 9.12-12.66 10.13-5.32 2.27-11.15 3.72-15.89 6.95.52 11.51.88 19.98 1 22.66-1.27.26-1.18 2.5.25 2.5h8.64c-2.28-4.54-3.89-9.49 1.49-12.18 4.23-2.11 8.98-3.09 13.27-5.16 1.93-.93 3.92-1.96 5.88-3.13-.72-11.28-1.42-22.57-2.17-33.84l-.45-6.59z" style="fill:#cc5e05"/><path class="cls-5" d="M168.49 115.68c-.96.05-.86 16.71.22 37.21s2.73 37.08 3.69 37.03c.96-.05.86-16.71-.22-37.21s-2.73-37.08-3.69-37.03z"/></svg>