<svg id="Illustration" xmlns="http://www.w3.org/2000/svg" viewBox="0 0 200 200"><defs><style>.cls-1{fill:none}.cls-3{fill:#fff}.cls-7{fill:#d6e8ea}</style></defs><g id="Bag"><path d="M115.88 78.67c-.21-9.58 4.4-20.11 13.51-23.92.86-.36 2.27-.8 3.38-1.06.56-.13 1.14-.24 1.71-.32.41-.06-.31.03.1-.01.13-.01.25-.03.37-.04.33-.03.66-.06.99-.08 2.62-.13 4.42.07 6.89.88 1.95.64 4.02 1.82 5.53 3.24 1.87 1.74 3.1 3.22 4.35 5.28 1.45 2.4 2.26 4.45 2.87 7.29.33 1.51.43 2.35.51 3.91.08 1.56.03 3.2-.1 4.79-.11 1.29 1.18 2.4 2.4 2.4 1.39 0 2.29-1.1 2.4-2.4.5-5.82-.4-11.71-3.1-16.93-2.46-4.74-6.45-9.2-11.41-11.35-5.2-2.27-11.17-2.49-16.58-.79-5.41 1.71-10.23 5.58-13.46 10.46-3.6 5.45-5.29 12.15-5.16 18.64.03 1.29 1.08 2.4 2.4 2.4s2.42-1.1 2.4-2.4h.01Z" style="fill:#a0b4b5"/><path d="M196.73 193.49c-1.05-14.47-1.96-28.96-2.99-43.43-1.13-15.8-2.35-31.6-4-47.36-.83-8.01-1.79-16.01-2.97-23.98-.08-.54-.45-.76-.85-.75-.05 0-.1-.01-.15-.01h-23.15c-1.34 0-1.34 2.08 0 2.08h.26c2.22 13.67 6.36 103.62 6.77 112.7-1.12.22-1.04 2.06.22 2.06h25.81c.62 0 .95-.44.99-.92.03-.12.06-.24.05-.39Z" style="fill:#c1dade"/><path class="cls-7" d="M168.9 150.34c-.7-15.65-1.51-31.32-2.72-46.94-.62-7.95-1.35-15.9-2.31-23.81-.06-.45-.09-.92-.33-1.2-.27-.31-.77-.44-1.31-.44h-20.44c.38-5.6-.55-11.24-3.15-16.26-2.46-4.74-6.45-9.2-11.41-11.35-5.2-2.27-11.17-2.49-16.58-.79-5.41 1.71-10.23 5.58-13.46 10.46-3.47 5.26-5.16 11.66-5.16 17.93H66.12s-.1 0-.15.01c-.4 0-.78.22-.86.75-2.18 14.73-3.62 29.56-4.88 44.4-1.33 15.69-2.4 31.39-3.47 47.1-.52 7.75-1.04 15.52-1.6 23.27-.01.19.02.36.09.5.08.43.41.81.98.81h113.46c.64 0 .97-.47 1-.97.03-.1.05-.22.04-.34-.67-14.38-1.2-28.77-1.84-43.15Zm-58.55-95.59c.86-.36 2.27-.8 3.38-1.06.56-.13 1.14-.24 1.71-.32h.11c.13-.01.25-.03.37-.04.33-.03.66-.06.99-.08 2.62-.13 4.42.07 6.89.88 1.95.64 4.02 1.82 5.53 3.24 1.87 1.74 3.1 3.22 4.35 5.28 1.45 2.4 2.26 4.45 2.87 7.29.33 1.51.43 2.35.51 3.91.07 1.34.04 2.74-.06 4.11H96.86c.03-9.39 4.62-19.49 13.51-23.2Z"/></g><g id="Alert"><path d="M116.08 76.65v-.02c-4.67-11.7-10.21-23.06-16.93-33.73-6.46-10.26-13.97-19.82-22.25-28.66a216.12 216.12 0 0 0-6.7-6.84c-2.29-2.23-4.72-4.35-8.04-4.64-5.92-.52-9.61 5.33-12.95 9.28-7.39 8.75-14.86 17.43-21.75 26.58C19.63 48.99 12.61 59.93 6.5 71.4c-.71 1.34-1.41 2.68-2.1 4.03h-.01c-2.18 3.47-2.61 8.32-.75 12.03.92 1.84 2.53 3.17 4.48 3.79s4.02.55 6.02.58c9.73.15 19.46.46 29.19.74 8.14.23 16.29.44 24.44.51 4.57.03 9.14 0 13.72-.02 5.17-.03 10.35-.06 15.5-.41 2.88-.19 5.75-.49 8.61-.9 2.7-.38 5.52-.59 7.77-2.27 1.87-1.39 3.45-3.43 3.86-5.77.42-2.43-.2-4.82-1.13-7.06Z" style="fill:#f6c243"/><path class="cls-3" d="M66.29 71.96a6.399 6.399 0 0 0-5.58-5.47c-2.9-.35-6.24 1.38-6.94 4.43-.7 3.04 1.49 6.43 4.22 7.59 1.69.72 3.69.51 5.28-.41.96-.36 1.76-1.02 2.32-2.02.7-1.26.9-2.71.69-4.13ZM66.45 25.65c-1.66-3.39-6.77-3.62-9.27-1.07-1.49 1.51-1.65 3.62-1.67 5.63-.01 1.26 0 2.52 0 3.78-.04 1.14-.05 2.28-.03 3.41.12 5.86.56 11.72.92 17.57V55c0 .06-.01.11-.01.17.03.57.46 1.06 1.04 1.04.98-.01 1.95 0 2.93.1.97.09 1.73.19 2.74.4.54.1 1.15-.15 1.29-.73.05-.24.02-.51-.08-.74.03-.1.06-.2.08-.31.67-5.07 1.26-10.15 1.77-15.24.26-2.58.5-5.16.72-7.73.17-2.07.53-4.36-.42-6.31Z"/></g><path class="cls-7" d="M193.24 145.4c-6.88-2.49-14.16-4.62-18.06-8.21-2.28-2.1-4.84-5.91-4.03-9.11 1.09-4.31 7.36-5.82 10.97-7.9 2.87-1.66 5.8-3.62 8.42-5.88-.34-3.39-.68-6.78-1.06-10.17-.75-6.77-1.6-13.53-2.6-20.27-2.84-.64-5.79-.66-8.75-.31-2.94.34-12.44 3.79-14.55 1.14a7.95 7.95 0 0 0-1.97-1.77c.45 3.2.98 8.94 1.52 16.2 2.87.45 5.97.36 9.24-.17 2.2-.36 10.55-3.42 12.22-.9 1.63 2.46-7.85 8.64-9.02 9.36-3.78 2.34-7.93 4.17-11.42 6.65.7 10.8 1.41 22.92 2.04 34.38 4.49 3.58 9.98 5.97 15.52 7.93 1.52.54 11.51 2.62 12.09 4.18 1.25 3.37-9.46 7.39-11.63 8.21-4.89 1.84-10.25 3.02-14.6 5.63.48 9.34.81 16.2.92 18.37-1.17.21-1.09 2.03.23 2.03h7.94c-2.1-3.68-3.57-7.7 1.37-9.87 3.89-1.71 8.25-2.51 12.19-4.18 1.77-.75 3.6-1.59 5.4-2.54-.66-9.15-1.31-18.3-2-27.44-.13-1.78-.28-3.56-.41-5.34Z"/><g id="Layer_3-2"><path class="cls-1" d="M159.21 143.11c-.04-.48-.12-.67-.12-.67-.22-.55-.75-.94-1.38-.94-.33 0-.63.1-.87.28 0 0-.17.11-.44.39 0 0-9.22 9.42-11.17 37.37 0 0-.04.39.06.74.16.58.61 1.04 1.38 1.17l4.8.66c.42.06.75.38.75.81 0 0-.19 4.26-1 11.87h7.07c.16-2.66.52-8.88.83-16.29.49-11.67.88-26.62.08-35.41ZM109.71 159.33c-.1-.98-.81-1.78-1.74-2.04l-6.97-1.34a2.392 2.392 0 0 1-1.58-3.34c.51-1.33 13.83-25.61 38.01-40.54.99-.67 2.18-1.05 3.47-1.05s2.47.38 3.47 1.05c5.23 3.23 9.96 6.9 14.15 10.68s.03.02.06.02c.05 0 .09-.04.09-.09v-2.43c0-.82.66-1.48 1.48-1.48.06 0 .13 0 .19.01l6.95.84c-.33-5.41-.69-10.82-1.12-16.22-.62-7.95-1.35-15.9-2.31-23.81-.06-.45-.09-.92-.33-1.2-.27-.31-.77-.44-1.31-.44H66.13s-.1 0-.15.01c-.4 0-.78.22-.86.75-2.18 14.73-3.62 29.56-4.88 44.4-1.33 15.69-2.4 31.39-3.47 47.1-.52 7.75-1.04 15.52-1.6 23.27-.01.19.02.36.09.5.08.43.41.81.98.81h56.43c-1.62-7.63-2.9-34.26-2.95-35.47Z"/><path class="cls-1" d="M134 181.42c.03-.46.27-.85.62-1.09a7.508 7.508 0 0 0 3.26-6.2V173.8c-.35-9.41-.51-20.13-.01-28.6v-.11c-.01-.77-.65-1.39-1.42-1.38-.74.01-1.33.59-1.38 1.32-.35 5.8-.39 12.67-.26 19.46 0 .91-.72 1.66-1.63 1.67-.91.01-1.67-.71-1.69-1.63-.13-6.75-.09-13.57.25-19.35v-.11c-.01-.77-.65-1.39-1.42-1.38-.74.01-1.33.59-1.38 1.32-.35 5.83-.39 12.74-.26 19.56.01.92-.72 1.67-1.63 1.69a1.67 1.67 0 0 1-1.69-1.63c-.13-6.77-.1-13.64.25-19.45v-.11c-.01-.77-.65-1.39-1.42-1.38-.74.01-1.33.59-1.38 1.32-.53 8.71-.34 19.85.02 29.48a7.513 7.513 0 0 0 3.65 6.07c.4.24.68.68.71 1.19 0 .15.02.33.03.47.25 5.01.54 9.8.72 12.54h7.01c-.12-1.15-.29-2.81-.5-4.93-.64-7-.47-8.44-.47-8.44h.01Z"/><path d="M160.16 118.77c-.82 0-1.48.66-1.48 1.48v2.43s-.04.09-.09.09c-.02 0-.04 0-.06-.02-4.2-3.78-8.92-7.45-14.15-10.68a6.151 6.151 0 0 0-3.47-1.05c-1.29 0-2.47.38-3.47 1.05-24.19 14.93-37.5 39.21-38.01 40.54a2.392 2.392 0 0 0 1.58 3.34l6.97 1.34a2.4 2.4 0 0 1 1.74 2.04c.06 1.21 1.33 27.84 2.95 35.47h15.29c-.18-2.75-.48-7.54-.72-12.54 0-.15-.02-.33-.03-.47-.03-.5-.31-.94-.71-1.19a7.513 7.513 0 0 1-3.65-6.07c-.37-9.64-.55-20.77-.02-29.48.04-.72.64-1.31 1.38-1.32.77-.01 1.41.6 1.42 1.38v.11c-.34 5.81-.38 12.67-.25 19.45.01.92.77 1.65 1.69 1.63a1.65 1.65 0 0 0 1.63-1.69c-.13-6.82-.09-13.73.26-19.56.04-.72.64-1.31 1.38-1.32.77-.01 1.41.6 1.42 1.38v.11c-.34 5.78-.38 12.6-.25 19.34.02.92.77 1.65 1.69 1.63.91-.01 1.64-.76 1.63-1.67-.13-6.79-.09-13.66.26-19.46.04-.72.64-1.31 1.38-1.32.77-.01 1.41.6 1.42 1.38v.11c-.5 8.47-.34 19.19 0 28.6V174.16c0 2.57-1.29 4.84-3.26 6.2-.35.24-.59.63-.62 1.09 0 0-.17 1.45.47 8.44.21 2.13.38 3.79.5 4.93h16.25c.81-7.62 1-11.87 1-11.87 0-.42-.33-.74-.75-.81l-4.8-.66c-.76-.13-1.21-.6-1.38-1.17-.1-.35-.06-.74-.06-.74 1.95-27.96 11.17-37.37 11.17-37.37.27-.28.44-.39.44-.39a1.484 1.484 0 0 1 2.25.66s.08.19.12.67c.79 8.79.41 23.74-.08 35.41-.31 7.41-.67 13.63-.83 16.29h11.41c.64 0 .97-.47 1-.97.03-.1.05-.22.04-.34-.67-14.38-1.2-28.77-1.84-43.15-.46-10.24-.97-20.48-1.61-30.72l-6.95-.84c-.06 0-.13-.01-.19-.01v-.02Z" style="fill:#ff8000"/></g><path class="cls-3" d="M180.84 135.4c-.78.04-.7 13.55.18 30.17.88 16.62 2.22 30.06 2.99 30.02.78-.04.7-13.55-.18-30.17-.88-16.62-2.22-30.06-2.99-30.02Z"/></svg>