<?xml version="1.0" encoding="UTF-8"?>
<svg id="Illustration" xmlns="http://www.w3.org/2000/svg" viewBox="0 0 200 200">
  <defs>
    <style>
      .cls-1 {
        fill: #f8f8f8;
      }

      .cls-2 {
        fill: #eea2ac;
      }

      .cls-3 {
        fill: #fff;
      }

      .cls-4 {
        fill: #ffc101;
      }

      .cls-5 {
        fill: #e2f7f7;
      }
    </style>
  </defs>
  <path class="cls-4" d="m178.34,7.23c-2.56-1.8-6.15-1.5-8.91-.05-2.77,1.46-4.88,3.88-6.84,6.32-13.48,16.71-23.84,34.52-29.08,55.34-.02.08-.03.16-.03.24h0c0,.83.99,1.27,1.61.71,14.9-13.56,28.64-28.41,41-44.32,2.11-2.72,4.24-5.58,5.06-8.92.82-3.35.02-7.33-2.8-9.31Z"/>
  <path class="cls-4" d="m193.77,47.6c-1.14-2.24-3.79-3.38-6.3-3.39-2.51-.01-4.92.92-7.23,1.9-15.56,6.64-29.68,16.63-41.13,29.08-.44.47-.54,1.17-.28,1.75h0c.32.71,1.11,1.09,1.87.89,15.73-4.11,29.72-11.48,44.6-18.16,2.52-1.13,5.11-2.36,6.95-4.42,1.84-2.06,2.78-5.19,1.52-7.66Z"/>
  <path class="cls-4" d="m187.96,85.57c-1.65-1.19-3.67-1.73-5.66-2.17-13.5-3.02-27.65-3.1-41.19-.25-.31.07-.56.29-.66.59h0c-.14.44.08.92.52,1.09,12.38,4.84,25.19,7.23,38.23,9.89,2.2.45,4.48.87,6.67.38s4.29-2.1,4.63-4.32c.31-2.01-.89-4.02-2.54-5.21Z"/>
  <g id="_" data-name=" ">
    <path class="cls-2" d="m55.38,195.58s-6.67-3.18-7.86-4.73c-1.18-1.55-3.01-6.73-3.4-8.16-.39-1.43-10.91-40.6-11.17-41.61s-11.63-44.73-12.52-48.22c-.89-3.5-11.89-48.26-12.4-50.61-.51-2.35-2.06-10.31-1.16-12.23.9-1.93,5.97-3.15,8.7-3.96,2.74-.81,33.63-9.55,38.49-10.8,4.86-1.25,33.62-7.85,36.76-8.45,3.14-.6,8.95-1.79,11.7-1.11,2.74.67,5.83,1.82,6.9,5.15,1.07,3.33,5.29,19.16,5.86,21.27.57,2.1,4.27,18.05,5.19,20.03.92,1.99,14.8,50.58,15.06,51.49.26.91,10.45,36.96,11.33,40.17.89,3.21,3.96,17.37,4.81,19.28.84,1.9,1.25,4.22.11,5.19-1.14.97-17.8,6.48-17.8,6.48,0,0-63.65,18.91-65.71,19.49-2.06.58-11.51,3-12.87,1.34h-.01Z"/>
    <path class="cls-5" d="m101.97,155c-1.35.59-35.84,9.17-39.03,9.21-3.19.04-5.87-1.82-7.21-6.74-1.34-4.92-14.28-52.53-15.58-57.32-1.29-4.79-12.61-48.34-13.36-51.98-.75-3.64-3.36-8.71,1.44-11.28,4.8-2.58,36.4-10.9,39.53-11.46,3.13-.56,28.12-5.87,28.12-5.87,0,0,3.07-.98,4.54.42,1.47,1.4,6.59,18.97,6.98,20.26.39,1.29,15.47,55.06,15.92,56.35.45,1.29,7.57,28.79,8.55,30.55.97,1.75,4.37,13.78,3.61,15.57-.76,1.79-6.28,3.71-7.52,4.66-1.24.95-21.96,6.37-21.96,6.37l-4.05,1.25h0Z"/>
  </g>
  <g id="Layer_5" data-name="Layer 5">
    <g>
      <path class="cls-2" d="m53.48,188.84l-15.15-59.25-15.15-59.25-8.55-33.44c-.36-1.4-2.46-.59-2.1.8l15.15,59.25,15.15,59.25,8.55,33.44c.36,1.4,2.46.59,2.1-.8h0Z"/>
      <path class="cls-2" d="m153.05,162.28l-1.81-7.41c-.07-.28-.21-.47-.39-.59-5.36-19.84-11-39.6-16.67-59.35-6.13-21.34-12.28-42.66-18.11-64.08-1.57-5.78-3.09-11.57-4.63-17.36-.55-2.05-1.26-4.37-2.84-5.89-1.69-2.62-5.4-3.13-8.27-3.31-1.71-.1-3.32.2-5,.51-2.18.41-4.36.82-6.53,1.26-8.57,1.71-17.1,3.64-25.58,5.72-16.91,4.16-33.66,8.94-50.35,13.9-1.83.54-3.81.99-5.4,2.1-1.58,1.11-2.33,2.82-2.29,4.75.03,2.26.63,4.6,1.08,6.81.44,2.17.94,4.32,1.49,6.47-.06.23-.07.47,0,.72,2.06,8.71,4.21,17.4,6.39,26.09,2.75,10.96,5.54,21.91,8.36,32.84,2.82,10.94,5.93,22.88,8.94,34.31,2.68,10.17,5.38,20.35,8.12,30.5,1.09,4.04,2.19,8.09,3.31,12.13.6,2.15,1.06,4.45,1.98,6.48,1.35,2.99,3.91,4.51,6.74,5.91,1.35.66,2.69,1.33,3.87,2.27.22.18.44.26.66.27,1.43.59,3.02.53,4.53.2,2.04-.44,4.04-1.09,6.04-1.65,8.47-2.4,16.91-4.83,25.36-7.3,16.88-4.94,33.72-10.04,50.51-15.3,2.21-.69,4.47-1.32,6.65-2.11,1.58-.57,3.2-1.44,4.01-2.99.98-1.87.32-3.97-.15-5.87Zm-1.78,4.71c-.55,1.24-2.06,1.77-3.24,2.18-1.84.63-3.71,1.18-5.57,1.76-7.81,2.45-15.61,4.86-23.43,7.23-15.65,4.75-31.33,9.38-47.05,13.86-2.14.61-4.29,1.22-6.43,1.83-2.14.6-4.25,1.42-6.4,1.64-3.86.38-4.99-3.58-5.6-6.63-.28-1.41-2.53-1.21-2.24.21h-.02c.23,1.16.5,2.38.92,3.54-1.06-.53-2.1-1.09-3.04-1.82-2.38-1.83-2.87-4.55-3.6-7.19-1.08-3.87-2.13-7.74-3.19-11.62-2.67-9.86-5.3-19.73-7.91-29.61-2.98-11.3-5.93-22.6-8.85-33.91-2.85-11.04-5.68-22.09-8.46-33.15-2.26-8.98-4.5-17.96-6.65-26.96-.17-.71-.34-1.43-.51-2.14.07-.2.08-.42.02-.67h0c-1.02-3.88-1.89-7.86-2.44-11.86-.22-1.59-.18-3.08,1.24-4.07,1.27-.88,2.89-1.23,4.35-1.67,7.87-2.33,15.74-4.64,23.64-6.85,15.84-4.44,31.78-8.55,47.89-11.91,4.31-.9,8.65-1.86,13.01-2.53,1.32-.2,2.63-.14,3.94.04-.07.02-.15.03-.22.05-.03,0-.06.02-.09.03-13.49,2.67-26.92,5.63-40.28,8.85-13.42,3.25-26.77,6.78-40.03,10.6-2.73.79-6.17,1.36-8.11,3.66-.83.99-1.29,2.29-1.27,3.58.03,1.29.54,2.66.82,3.96.3,1.4,2.54,1.21,2.24-.21h0c-.42-1.99-1.57-4.37.11-6.08.78-.79,1.87-1.23,2.9-1.59,1.41-.49,2.85-.86,4.28-1.27,6.33-1.82,12.69-3.58,19.07-5.27,12.83-3.41,25.72-6.55,38.68-9.42,7.28-1.61,14.58-3.14,21.89-4.59.06-.01.11-.03.17-.05,1.61-.34,3.79-1.07,5.14.17.03.04.07.08.11.11,1.6,1.56,2.06,4.09,2.6,6.17,1.33,5.1,2.69,10.19,4.07,15.27,2.81,10.35,5.7,20.67,8.62,30.99,6.02,21.21,12.18,42.37,18.17,63.58,3.37,11.93,6.68,23.88,9.88,35.86.04.14.1.26.17.36l.05.2c.37,1.53,1.36,3.8.68,5.35Z"/>
    </g>
    <path class="cls-2" d="m135.39,135.56s0-.05-.01-.08c-2.42-8.83-4.88-17.64-7.35-26.45-3.08-11.02-6.19-22.03-9.32-33.05-3.06-10.76-6.14-21.52-9.26-32.27-1.3-4.48-2.61-8.94-3.93-13.41-.55-1.86-1.11-3.71-1.66-5.57-.75-2.49-1.41-5.51-4.13-6.51-1.47-.55-3.07-.45-4.59-.19-1.89.32-3.77.75-5.65,1.14-3.93.83-7.85,1.7-11.75,2.6-7.92,1.85-15.79,3.87-23.62,6.07-7.76,2.19-15.49,4.55-23.14,7.09-1.63.54-3.49.96-4.88,2.02-1.27.97-1.85,2.39-1.87,3.96-.03,1.95.65,3.93,1.1,5.81,1.88,7.75,3.87,15.49,5.85,23.23,2.59,10.08,5.21,20.15,7.86,30.22,2.66,10.07,5.39,20.38,8.14,30.56,2.15,7.95,4.31,15.91,6.58,23.83.36,1.26.73,2.53,1.1,3.8,0,.08.03.17.05.26.67,2.17,1.29,4.19,3.26,5.52,2.45,1.64,5.29,1.53,8.06.96,6.95-1.44,13.85-3.23,20.73-5,13.84-3.54,27.6-7.38,41.39-11.05,2.7-.72,5.88-1.73,7.53-4.2,1.76-2.65.35-6.55-.49-9.29Zm-1.51,8.22c-1.46,1.9-4.14,2.59-6.33,3.17-6.3,1.68-12.58,3.38-18.87,5.08-12.72,3.44-25.45,6.85-38.29,9.84-1.75.41-3.5.85-5.27,1.17-1.38.24-2.84.4-4.2-.02-1.01-.3-2.06-.94-2.64-1.84-.6-.92-.88-2.07-1.19-3.13,0-.07-.02-.14-.04-.22h-.02c-2.04-6.9-3.93-13.84-5.82-20.77-2.63-9.62-5.2-19.26-7.76-28.9-2.69-10.16-5.36-20.34-7.99-30.53-2.21-8.54-4.4-17.08-6.53-25.63-.77-3.06-1.62-6.12-2.24-9.21-.28-1.37-.51-3.03.72-4,1.32-1.04,3.33-1.4,4.89-1.91,3.77-1.25,7.56-2.45,11.36-3.61,15.28-4.67,30.76-8.65,46.4-11.92,1.85-.39,3.7-.82,5.56-1.11,1.31-.21,2.94-.39,4.05.52,1.1.91,1.4,2.51,1.79,3.8.26.86.52,1.73.78,2.59,1.21,4.04,2.41,8.09,3.58,12.14,2.98,10.2,5.91,20.42,8.83,30.63,3.14,10.99,6.25,21.99,9.34,32.99,2.62,9.34,5.24,18.68,7.83,28.04.48,1.74.96,3.48,1.44,5.22,0,.05.01.09.03.14.43,1.38.87,2.87,1.06,4.35.14,1.04.23,2.25-.45,3.13Z"/>
  </g>
  <path class="cls-1" d="m50.79,196.37c.88-.22-7.71-37.65-19.18-83.61C20.15,66.8,10.14,29.72,9.26,29.94c-.88.22,7.71,37.65,19.18,83.61,11.47,45.96,21.47,83.04,22.35,82.82Z"/>
  <path class="cls-1" d="m76.55,84.28c-.88-.21-5.21,14.48-9.68,32.81-4.47,18.34-7.38,33.37-6.5,33.59.88.21,5.21-14.48,9.68-32.81,4.47-18.34,7.38-33.37,6.5-33.59Z"/>
  <path class="cls-1" d="m61.03,72.15c.87.22,3.66-7.7,6.21-17.69,2.56-9.99,3.92-18.28,3.04-18.5-.87-.22-3.66,7.7-6.21,17.69-2.56,9.99-3.92,18.28-3.04,18.5Z"/>
  <path class="cls-3" d="m112.64,166.04c-1.47-6.03-2.82-7.01-3.54-7-.78-.19-3.56.2-7.07,1.14-3.42.91-10.12,3.48-11.89,4.47-.1-.13-.19-.19-.26-.16-.41.2-.28,3.76.77,7.78.92,3.51,2.24,6.2,2.83,6.69,0,0,0,.01,0,.02.01.02.05.03.1.04.04.02.08.02.11,0,0,0,0,0,0,0,1.38.01,9.22-1.95,12.88-2.91,3.97-1.05,6.84-2.06,6.83-2.3.41-.2.21-3.75-.77-7.78Zm-6.94,8.21c-3.45.91-10.28,3.5-11.87,4.43.1-.98-.4-3.92-1.28-7.29-.77-2.92-1.6-5.34-2.16-6.37,2.19-.28,9.15-2.05,12.54-2.96.62-.17,1.21-.34,1.76-.52-.02.02-.04.04-.04.04,2.08-.69,4.44-1.13,5.15,1.22.26,1.24.58,2.67.96,4.12.87,3.31,1.83,5.98,2.37,6.71-.93-.29-4.09-.26-7.43.62Z"/>
</svg>