<svg id="Illustration" xmlns="http://www.w3.org/2000/svg" viewBox="0 0 200 200"><defs><style>.cls-3{fill:#e2c5bc}.cls-4{fill:#fff}.cls-5{fill:#f4c044}.cls-7{fill:#ff7800}.cls-8{fill:#fdce66}.cls-9{fill:#5b3d5b}</style></defs><path class="cls-3" d="M62.17 129.47c-1.75-3.52-1.35-8.33 1.76-10.74-2.12-2.1-4.05-4.57-4.67-7.49-.62-2.92.39-6.34 2.99-7.8.29-.16.62-.33.74-.64.09-.24.03-.5-.04-.75-.85-3.06-2.88-5.91-2.65-9.07.23-3.18 2.65-5.71 4.92-7.96.37-.36.75-.76.84-1.27.08-.49-.13-.97-.33-1.42l-5.31-11.58c-.13-.28-.26-.58-.19-.87.07-.29.32-.51.56-.69 2.39-1.83 7.63-2.27 10.64-2.21.07 4.03.15 7.39.22 11.42.04 2.42-.05 6.44.32 8.84.27 1.69-1.37 1.89-1.26 3.6.15 2.48-.42 5.01-1.62 7.19.34-.11 2.76-4 3.1-4.11.19 1.28-.19 6.15 0 7.44 1.77-.54 2.27.78 3.04 2.46s.45 3.71-.49 5.31c-.94 1.59-.99 2.23-2.55 3.22.22 2.59-.08 6.17-.22 8.94 2.12-.15 3.55 1.53 3.73 3.64.17 2.11-1.38 4.18-3.49 4.39-.24.02-.53.04-.67.24-.1.13-.1.3-.11.46-.05 1.87.28 3.74.22 5.61-.03.98-.4 1.35-1.35 1.26-.58-.06-1.47-.81-1.96-1.12-2.51-1.57-4.82-3.61-6.15-6.29zM80.29 142.98c6.35 7.2 13.36 13.84 20.91 19.79 1.95 1.54 3.96 3.05 6.22 4.1 3.72 1.74 5.77.67 9.75-.32 1.75 1.08 5.34 3.93 6.68 5.49 0-.12-.03-.23-.1-.33 8.34-6.9 16.39-13.78 24.73-20.68.09-.08.19-.17.21-.29.01-.12-.06-.23-.14-.33l-8.26-10.99c1.23-5.52 2.34-10.9 1.8-16.54-.75-7.8-4.84-14.99-5.56-22.79-.24-2.62-.1-5.27-.48-7.87-.44-3.03-1.57-5.91-2.68-8.76-2.02-5.15-4.05-10.31-6.69-15.17-4.28 1.4-6.67 6.09-7.15 10.56-.48 4.46.48 8.95.57 13.44.16 7.59-2.16 15.15-1.3 22.69.09.83.22 1.69-.03 2.48-.21.63-.64 1.16-1.07 1.66-2.48 2.89-5.32 5.5-8.56 7.49-4.75 2.91-10.2 4.43-15.39 6.46-5.19 2.03-10.32 5.29-13.46 9.89z"/><path class="cls-7" d="M123.27 41.67c0-1.19 0-2.37-.16-3.55-.17-1.2-.5-2.47-1.44-3.24-1.11-.9-2.71-.85-4.14-.85l-43.98-.11c-1.06-.1-2.05.71-2.5 1.67-.45.97-.53 2.07-.5 3.13.46 17.41.33 34.16 1.06 51.19.73 17.11-.52 34.19-.35 51.31.01 1.17 1.23 1.92 2.35 2.27 1.12.35 2.32.3 3.48.16l41.87-.06c1.12 0 2.33-.25 3.2-.96.26-.21.26-.44.42-.72.27-.46.33-1.02.38-1.55.09-.97.1-66.85.31-98.69z"/><path class="cls-4" d="m119.65 137.25-44.37.21-1.29-99.34 45.66.43v98.7z"/><path class="cls-3" d="M123.76 127.21c-3.98-9.24-3.76-18.12-1.72-27.98.12-.56.24-1.13.23-1.7-.01-.48-1.4-2.55-1.51-3.02-1.09-4.72-2.08-9.57-1.52-14.38.57-4.81 2.94-9.65 7.17-12.02 1.57 3.49 3.5 6.91 5.08 10.4 1.07 2.37 2.15 4.76 2.76 7.29 1.18 4.84.62 9.93 1.37 14.85 1.15 7.52 5.31 14.41 5.92 21.99.56 6.92-1.9 13.72-4.88 19.98-4.78-4.82-10.22-9.18-12.9-15.41z"/><path class="cls-9" d="M124.18 124.68a48.14 48.14 0 0 1-1.37-6.63l.05.39c-.46-3.48-.56-7.01-.3-10.51.07-.99.18-1.98.31-2.96l-.05.39c.3-2.21.74-4.4 1.34-6.55.21-.75-.26-1.65-1.04-1.83-.78-.18-1.6.24-1.82 1.04-.97 3.5-1.54 7.11-1.76 10.74-.21 3.64-.02 7.29.52 10.89.3 1.96.71 3.9 1.25 5.81.21.75 1.06 1.29 1.82 1.04.77-.25 1.26-1.03 1.04-1.83z"/><path class="cls-9" d="M124.22 97.57c-.8-3.47-2.04-6.83-2.84-10.3-.23-.99-.43-1.99-.56-3l.05.39c-.2-1.5-.23-2.99-.03-4.49l-.05.39c.24-1.73.69-3.43 1.37-5.04l-.15.35c.56-1.31 1.26-2.55 2.13-3.68l-.23.3c.71-.9 1.51-1.72 2.42-2.43l-.3.23c.47-.36.96-.68 1.48-.97.68-.38.96-1.36.53-2.02-.43-.66-1.31-.94-2.03-.53-4.02 2.26-6.58 6.45-7.67 10.82-.53 2.15-.75 4.35-.51 6.55.26 2.39.84 4.73 1.5 7.03.68 2.39 1.47 4.75 2.02 7.17.17.75 1.09 1.27 1.83 1.03.79-.26 1.22-1.01 1.04-1.82z"/><path class="cls-3" d="M73.55 122.42c.58.33 1.19.67 1.58 1.22.51.71.57 1.64.58 2.52 0 .19 0 .39-.08.57-.1.23-.32.38-.53.51-1.58.97-3.41 1.4-5.21 1.81-.46-1.33-.85-2.68-1.17-4.05-.23-.96-.9-2.7-.54-3.67.84-2.25 4.26.47 5.38 1.09z"/><path class="cls-9" d="M125.65 68.47c1.3 3.29 2.59 6.58 3.89 9.87 1.24 3.14 2.6 6.25 3.53 9.5.48 1.67.72 3.38 1.02 5.09.26 1.48.54 2.96.82 4.43.79 4.16 1.6 8.32 2.41 12.48.72 3.7 1.51 7.4 2.15 11.11.07.4.13.79.18 1.19-.04-.32.02.19.03.27.03.22.05.44.07.66.08.8.14 1.6.18 2.4.07 1.6.03 3.21-.09 4.8-.03.36-.06.71-.1 1.06-.02.2-.04.4-.07.6-.01.11-.03.22-.04.33.03-.22 0-.06-.01.07a39.233 39.233 0 0 1-1.67 6.94c-.26.76-.54 1.51-.84 2.25-.29.72.32 1.66 1.04 1.82.87.19 1.52-.26 1.84-1.04 2.46-6 3.42-12.66 2.77-19.11-.22-2.21-.66-4.38-1.08-6.56-.38-1.94-.75-3.87-1.13-5.81-.83-4.26-1.66-8.53-2.48-12.79-.32-1.65-.63-3.3-.93-4.95-.22-1.19-.38-2.38-.6-3.57-.62-3.29-1.93-6.4-3.15-9.5-1.3-3.29-2.59-6.58-3.89-9.87-.32-.82-.65-1.64-.97-2.47-.28-.72-1.01-1.3-1.84-1.04-.7.23-1.35 1.05-1.04 1.82zM67.29 131.11c1.9.15 3.88-.12 5.67-.78 1.77-.66 3.6-1.65 4.37-3.48.44-1.05.35-2.15-.12-3.16-.4-.84-1.13-1.48-1.87-2.02-.68-.5-1.44-.89-2.19-1.28-.83-.44-1.69-.84-2.55-1.22-.95-.41-1.92-.8-2.9-1.14-.9-.32-1.82-.65-2.77-.77-.64-.09-1.28-.05-1.89.21-.51.22-.96.54-1.34.95-.64.69-1.18 1.5-1.56 2.37-.43.98-.7 1.95-.82 3.02-.11.94-.03 1.88.13 2.8.31 1.74 1.1 3.43 2.12 4.87 1.02 1.43 2.14 2.57 3.5 3.56 1.03.75 2.17 1.35 3.23 2.04.38.25.75.5 1.12.77.3.21.8.24 1.14.15.34-.09.72-.36.88-.68.18-.34.27-.76.15-1.14-.12-.38-.35-.65-.68-.88-.85-.61-1.73-1.17-2.63-1.71-.67-.41-1.34-.81-1.96-1.28l.3.23c-.91-.71-1.73-1.55-2.44-2.46l.23.3c-.65-.84-1.19-1.75-1.61-2.73l.15.35c-.34-.82-.59-1.67-.71-2.55l.05.39c-.09-.73-.1-1.45 0-2.18l-.05.39c.1-.69.28-1.36.55-2l-.15.35c.26-.62.6-1.19 1-1.73l-.23.3c.23-.3.48-.59.79-.83l-.3.23c.14-.11.29-.19.45-.26l-.35.15c.15-.06.31-.1.47-.12l-.39.05c.22-.02.43-.01.65.01l-.39-.05c.82.12 1.62.42 2.4.69.78.27 1.6.58 2.39.92l-.35-.15c.96.41 1.91.85 2.83 1.33.82.43 1.66.86 2.4 1.43l-.3-.23c.31.24.6.51.84.82l-.23-.3c.15.19.27.4.37.62l-.15-.35c.08.19.13.37.16.57l-.05-.39c.03.2.03.4 0 .61l.05-.39c-.03.2-.08.39-.16.58l.15-.35c-.11.25-.25.48-.41.69l.23-.3c-.24.3-.51.55-.81.79l.3-.23c-.53.4-1.11.7-1.71.95l.35-.15c-1 .42-2.04.7-3.11.85l.39-.05c-.87.11-1.76.14-2.64.07-.77-.06-1.51.73-1.48 1.48.04.86.65 1.42 1.48 1.48z"/><path class="cls-3" d="M72.12 101.57c.9-.05 1.89-.07 2.57.5.6.5.79 1.34.82 2.12.06 1.83-.62 3.65-1.74 5.11-1.13 1.46-2.68 2.57-4.38 3.32l-.06-7.56c0-.77-.36-2.38.18-3.02s1.88-.43 2.61-.48z"/><path class="cls-9" d="M80.91 146.3c1.97 1.74 3.88 3.54 5.74 5.4 1.67 1.67 3.36 3.32 5.12 4.91 2.68 2.42 5.39 4.86 8.36 6.93 2.57 1.79 5.43 3.28 8.47 4.08 1.56.41 3.2.65 4.82.6 1.8-.05 3.53-.46 5.17-1.21.37-.17.73-.37 1.09-.58.66-.4.97-1.35.53-2.04-.43-.67-1.32-.96-2.03-.53-.44.27-.9.5-1.38.71l.35-.15c-.91.38-1.86.64-2.84.78l.39-.05c-1.2.16-2.41.14-3.61-.02l.39.05c-1.74-.24-3.43-.75-5.04-1.43l.35.15c-2.5-1.07-4.79-2.55-6.94-4.22l.3.23c-1.5-1.17-2.93-2.41-4.36-3.67-1.31-1.16-2.61-2.32-3.89-3.52-1.66-1.57-3.25-3.22-4.89-4.81a140.85 140.85 0 0 0-4.02-3.7c-.58-.52-1.53-.62-2.1 0-.52.56-.62 1.55 0 2.11zM65.58 117.13c-.53-.36-1.05-.73-1.55-1.12l.3.23c-1.09-.84-2.11-1.76-2.96-2.84l.23.3c-.49-.63-.9-1.31-1.22-2.04l.15.35c-.27-.64-.45-1.3-.55-1.99l.05.39c-.09-.71-.09-1.42 0-2.12l-.05.39c.1-.68.28-1.34.54-1.97l-.15.35c.26-.6.59-1.16.99-1.68l-.23.3c.42-.54.91-1.02 1.45-1.44l-.3.23c.55-.42 1.14-.76 1.78-1.03l-.36.15c.71-.29 1.45-.47 2.22-.57l-.4.05c1.2-.15 2.42-.12 3.63-.05 1.28.08 2.54.2 3.81.37l-.4-.05c.55.07 1.13.11 1.64.32l-.36-.15c.12.05.22.11.33.19l-.3-.23c.1.08.18.17.26.27l-.23-.3c.09.12.16.25.22.39l-.15-.35c.14.35.23.72.28 1.09l-.05-.39c.06.5.06 1 0 1.5l.05-.39c-.09.67-.29 1.33-.55 1.95l.15-.35c-.33.76-.76 1.47-1.27 2.13l.23-.3c-.53.68-1.15 1.28-1.83 1.81l.3-.23c-.69.52-1.43.96-2.23 1.3l.36-.15c-.72.3-1.48.53-2.26.64l.4-.05a6.1 6.1 0 0 1-1.54.02l.4.05a4.27 4.27 0 0 1-1.05-.27l.36.15a3.57 3.57 0 0 1-.68-.4l.3.23c-.14-.11-.27-.23-.39-.37-.51-.59-1.59-.56-2.11 0-.58.62-.55 1.47 0 2.09 1.36 1.54 3.62 1.71 5.52 1.33 1.79-.35 3.43-1.22 4.85-2.33 1.36-1.07 2.49-2.5 3.18-4.07.47-1.06.78-2.15.84-3.32.03-.57-.04-1.16-.16-1.72-.11-.51-.29-1.03-.59-1.46a3.066 3.066 0 0 0-1.77-1.23c-.56-.15-1.17-.2-1.75-.27-1.06-.14-2.13-.25-3.2-.33-2.09-.15-4.27-.23-6.29.43-2.01.65-3.53 1.82-4.74 3.42-1.21 1.6-1.79 3.61-1.75 5.57.04 1.98.73 3.9 1.91 5.49 1.18 1.59 2.57 2.78 4.12 3.91.35.26.7.5 1.06.75.3.21.81.24 1.15.15.34-.1.72-.36.89-.68.4-.75.15-1.55-.54-2.02z"/><path class="cls-9" d="M64.66 100.46a62.559 62.559 0 0 1-2.74-5.65l.15.35c-.33-.79-.69-1.58-.8-2.43l.05.39c-.03-.29-.04-.57 0-.86l-.05.39c.04-.26.11-.5.21-.74l-.15.35c.17-.38.39-.72.65-1.05l-.23.3c.48-.62 1.03-1.19 1.55-1.77l1.75-1.96 1.71-1.92c.29-.32.57-.64.86-.96.26-.3.52-.62.82-.87l-.3.23c.08-.06.16-.11.25-.15l-.35.15a.83.83 0 0 1 .21-.06l-.39.05h.25l-.39-.05c.06.01.11.03.17.05l-.35-.15c.1.04.18.09.26.16l-.3-.23c.12.1.22.21.32.33l-.23-.3c.39.53.63 1.18.89 1.78l-.15-.35c.61 1.45 1.09 2.97 1.31 4.53l-.05-.39c.14 1.05.16 2.11.02 3.17l.05-.39c-.12.88-.35 1.75-.7 2.57l.15-.35c-.29.68-.66 1.31-1.1 1.9l.23-.3c-.38.48-.8.91-1.29 1.29-.28.22-.43.71-.43 1.05 0 .36.16.8.43 1.05s.65.45 1.05.43c.42-.02.72-.18 1.05-.43 2.15-1.69 3.25-4.37 3.55-7.03.34-2.94-.53-5.88-1.7-8.55-.3-.68-.6-1.36-1.11-1.91-.74-.81-1.89-1.05-2.88-.56-.69.35-1.19 1.05-1.69 1.61s-1.02 1.14-1.52 1.71c-1.02 1.14-2.03 2.28-3.05 3.41-.5.56-1.01 1.12-1.44 1.75-.48.7-.76 1.48-.84 2.31-.09.88.15 1.79.46 2.61.31.82.69 1.69 1.07 2.52.68 1.52 1.43 3.02 2.23 4.48.37.68 1.37.96 2.03.53.66-.43.93-1.3.53-2.03z"/><path class="cls-9" d="M67.72 82.89c-1.46-3.24-2.93-6.49-4.39-9.73-.41-.91-.84-1.82-1.24-2.75l.15.35c-.12-.29-.22-.58-.27-.89l.05.39a2.09 2.09 0 0 1 0-.5l-.05.39c.02-.16.07-.31.12-.46l-.15.35c.12-.27.28-.52.46-.76l-.23.3c.17-.21.36-.4.58-.57l-.3.23c.38-.29.8-.52 1.25-.71l-.35.15c.93-.4 1.92-.63 2.92-.77l-.39.05c1.18-.16 2.39-.2 3.57-.04l-.39-.05c.4.05.79.13 1.17.25.73.23 1.63-.27 1.81-1.04.18-.8-.24-1.58-1.03-1.83-.67-.21-1.39-.3-2.09-.36s-1.41-.05-2.12 0c-1.66.12-3.29.46-4.81 1.17-.62.3-1.23.7-1.71 1.2-.34.36-.65.79-.86 1.24-.34.77-.43 1.52-.24 2.35.14.61.44 1.18.69 1.75.24.54.48 1.07.72 1.61.47 1.04.94 2.09 1.41 3.13 1.06 2.35 2.12 4.69 3.18 7.04.14.32.56.59.88.68.35.1.82.05 1.13-.15s.59-.51.67-.89c.09-.41.02-.76-.15-1.14zM138.79 140.39c2.78 3.27 5.54 6.56 8.23 9.91.69.86 1.38 1.73 2.05 2.62l-.23-.3c.18.24.36.48.54.73.24.32.48.57.88.69.35.1.82.05 1.13-.15.31-.2.59-.51.68-.89.08-.37.08-.84-.15-1.15-1.34-1.82-2.76-3.58-4.18-5.32-1.55-1.9-3.13-3.79-4.71-5.67-.72-.85-1.44-1.71-2.16-2.56-.51-.59-1.57-.57-2.08 0-.57.63-.54 1.48 0 2.12zM116.26 167.69c.94 1.14 1.98 2.21 3.02 3.25 1.12 1.12 2.27 2.22 3.43 3.31.49.46.99.92 1.48 1.38.57.53 1.54.6 2.09 0 .52-.57.61-1.53 0-2.09-2.18-2.01-4.35-4.04-6.39-6.2-.54-.57-1.06-1.14-1.56-1.74-.23-.28-.7-.43-1.04-.43-.36 0-.8.16-1.04.43-.26.28-.45.65-.43 1.04.02.41.17.73.43 1.04z"/><path class="cls-4" d="m92.25 36.17-.02.06.06-.05-.05-.02zM92.17 36l.03-.03s.02.02.04.03c-.02.01-.03.02-.04.03 0-.01-.02-.02-.02-.03zM92.06 36.11v.02s0 .01-.01.01h-.02l.02-.02z"/><path d="M92.53 40.24c-.12-4.97-.83-10.09-2.88-14.71-2.05-4.62-5.1-8.24-9.38-10.65-3.89-2.19-8.42-3.19-12.88-3.29-5-.11-9.91.83-14.73 2.07-4.82 1.24-10.13 2.46-14.5 5.11-4.37 2.64-7.57 7.36-10.4 11.7-2.64 4.04-5 8.29-6.1 13.03-1.88 8.11-.11 16.95 4.51 23.84.15.22.31.43.46.64.6 1.06 1.26 2.09 1.96 3.08 2.81 3.94 6.44 7.42 10.69 9.77 3.76 2.08 8.04 3.07 12.32 3.21 4.28.14 8.55-.43 12.73-1.3 2.11-.44 4.21-.94 6.29-1.47 1.11-.28 2.23-.56 3.34-.86 1.52 1.04 3.91 2.69 4.17 2.88.39.28 8.85 6.46 10.01 7.12 1.16.66 1.49-.06 1.45-1.1-.04-1.04-2.41-7.89-2.41-7.89l-2.64-7.03c4.66-5.05 6.74-12.36 7.42-19.21.49-4.94.69-9.99.58-14.95z" style="fill:#edebe8"/><path class="cls-7" d="M58.6 51.24c-2.5-.93-5.49-.26-7.42 1.54-2.08 1.93-2.77 5.23-1.5 7.78a6.776 6.776 0 0 0 1.92 2.68c2.22 1.86 5.22 2.28 7.81.94 2.39-1.25 4.05-3.91 3.82-6.63-.23-2.79-1.98-5.31-4.64-6.29zm-2.2 6.9-.05.02c-.09 0 0-.02.04-.02zm7.04-51.92c-.38-1.55-1.31-2.12-2.59-2.41-.88-.52-1.89-.49-2.87-.41l-.73.07c-1.05 0-2.1.09-3.15.26-1.43.23-3.99.56-4.91 1.85-.16.22-.26.46-.32.7l-.12.17c-.95 1.77-.52 4.04-.39 5.94l.53 7.57.03.49a192.484 192.484 0 0 0 1.13 21.1c.17 1.52.43 3 1.99 3.67 1.48.63 3.3.66 4.87.46 1.39-.19 2.77-.56 3.48-1.88.73-1.36.66-3.16.81-4.66l1.17-11.25 1.15-11.04c.36-3.51.76-7.12-.09-10.6z"/><path class="cls-4" d="M101.01 36.19c0-.55-1.63-1-3.63-1s-3.63.45-3.63 1 1.63 1 3.63 1 3.63-.45 3.63-1zM97.01 140.8c0-.55-.24-1-.54-1s-.54.45-.54 1 .24 1 .54 1 .54-.45.54-1z"/><path d="M141.94 193.76c1.39-.27 2.7-.92 3.64-1.9.95-.98 1.6-2.36 1.77-3.77.01-.12 0-.23.01-.34-3.8 1.78-7.72 3.33-11.76 4.62.68.48 1.42.88 2.2 1.14 1.29.43 2.75.53 4.14.26z" style="fill:none"/><path class="cls-5" d="M134.23 160.51c.42.55 1.08 1.13 1.96 1.52.44.19.92.33 1.42.38.52.05 1.1.03 1.7-.09 1.2-.22 2.5-.81 3.79-1.68 1.3-.86 2.62-2.07 4.17-3.35.78-.64 1.63-1.3 2.59-1.91.98-.61 2.06-1.16 3.27-1.54 1.2-.38 2.55-.6 3.97-.46 1.43.12 2.86.71 4.01 1.48 2.27 1.6 3.58 3.51 4.95 4.83 1.36 1.38 2.6 2.08 4.17 2.27 1.52.2 3.07-.14 4.28-.79 1.24-.65 2.09-1.63 2.65-2.72.55-1.12.76-2.27.79-3.3-2.29-.06-4.58.12-6.84.63-.48.11-.95.23-1.42.36-4.68-3.74-9.44-7.41-14.75-10.11-8.09 2.33-15.16 7.17-21.84 12.35.3.06.28 1.01 1.14 2.11zM127.82 184.53c-.15-1.45-.28-2.77-.56-3.89-.28-1.11-.76-2.11-1.37-2.84-.61-.73-1.34-1.16-2.13-1.3-.8-.14-1.65 0-2.41.3-1.54.6-2.6 1.75-3.38 2.79-.5.68-.89 1.3-1.22 1.82 2.05 2.74 4.22 5.16 6.33 7.75-1.13 1.32-2.14 2.73-2.92 4.28-.36.72-.66 1.49-.9 2.27h2.35c3.34-.55 6.62-1.27 9.84-2.14-1.15-1.3-2.03-2.75-2.61-4.28-.64-1.66-.87-3.34-1.02-4.78z"/><path class="cls-5" d="M185.44 156.22c-1.73-.43-3.48-.74-5.23-.91.16 1.25.09 2.7-.43 4.24-.57 1.63-1.77 3.36-3.55 4.48a10.302 10.302 0 0 1-6.35 1.62 9.701 9.701 0 0 1-3.56-.96c-1.16-.58-2.13-1.36-2.98-2.16-1.69-1.61-3-3.34-4.46-4.33-.73-.47-1.42-.76-2.18-.84-.76-.09-1.6 0-2.43.25-1.67.47-3.2 1.47-4.72 2.6-1.52 1.12-3.03 2.34-4.72 3.28-1.67.93-3.45 1.55-5.2 1.66a7.94 7.94 0 0 1-2.5-.23c-.81-.21-1.5-.55-2.07-.95-1.15-.8-1.86-1.81-2.2-2.72-.35-.91-.34-1.69-.21-2.17.05-.2.11-.35.18-.46-.72.56-1.43 1.12-2.14 1.68-1.49 1.18-2.97 2.37-4.4 3.61-4.67 4.05-8.6 8.58-12.18 13.62.6 1 1.22 1.93 1.86 2.83.17-.47.38-.99.67-1.57.33-.65.76-1.36 1.36-2.06.61-.72 1.4-1.4 2.4-1.93 1-.52 2.24-.91 3.65-.81 1.41.09 2.88.81 3.92 1.91 1.05 1.09 1.78 2.43 2.25 3.89.46 1.46.66 2.92.89 4.32.22 1.41.47 2.71 1 3.91.51 1.22 1.29 2.36 2.25 3.33.38.38.8.72 1.24 1.03a97.3 97.3 0 0 0 11.76-4.62c.04-.59.01-1.17-.12-1.72-.15-.65-.42-1.23-.84-1.86-.83-1.26-2.13-2.48-3.33-4.07-.6-.8-1.18-1.72-1.56-2.8a7.361 7.361 0 0 1-.37-3.43c.32-2.3 1.61-4.13 3.14-5.39.78-.63 1.64-1.14 2.56-1.5.93-.36 1.89-.55 2.8-.61 1.84-.12 3.57.24 5.09.8 3.06 1.15 5.32 3.12 7.08 4.94 1.51 1.54 2.77 3.14 3.89 4.45a98.92 98.92 0 0 0 19.75-20.34z"/><path class="cls-5" d="M153.62 170.31c-1.2-.38-2.47-.56-3.7-.43-.63.07-1.21.21-1.74.45-.54.24-1.07.57-1.54.98-.93.81-1.61 1.95-1.72 3.04-.12 1.07.31 2.16 1.26 3.38.93 1.22 2.3 2.46 3.52 4.23.6.87 1.15 1.98 1.42 3.13.06.24.1.48.14.72 4.39-2.3 8.59-4.92 12.56-7.84-1.23-1.19-2.53-2.51-3.98-3.81-1.76-1.57-3.79-3.07-6.21-3.84z"/><path class="cls-8" d="M154.72 167.18c-1.52-.56-3.25-.92-5.09-.8a9.282 9.282 0 0 0-5.36 2.11c-1.53 1.26-2.82 3.09-3.14 5.39-.16 1.14 0 2.37.37 3.43.38 1.07.96 2 1.56 2.8 1.21 1.59 2.51 2.81 3.33 4.07.42.63.69 1.21.84 1.86.13.54.16 1.13.12 1.72 1.32-.62 2.62-1.26 3.9-1.94-.04-.24-.08-.48-.14-.72-.27-1.15-.82-2.26-1.42-3.13-1.22-1.77-2.59-3.01-3.52-4.23-.95-1.21-1.38-2.31-1.26-3.38.11-1.09.79-2.23 1.72-3.04.47-.41.99-.74 1.54-.98.53-.23 1.11-.38 1.74-.45 1.23-.13 2.5.05 3.7.43 2.43.77 4.45 2.27 6.21 3.84 1.45 1.3 2.75 2.63 3.98 3.81.63-.46 1.25-.93 1.87-1.4-1.12-1.31-2.38-2.91-3.89-4.45-1.75-1.81-4.02-3.79-7.08-4.94zM134.36 191.33c-.97-.97-1.74-2.12-2.25-3.33-.52-1.2-.78-2.49-1-3.91-.22-1.4-.43-2.87-.89-4.32-.47-1.45-1.2-2.8-2.25-3.89-1.04-1.09-2.51-1.81-3.92-1.91-1.41-.1-2.66.28-3.65.81-1 .53-1.8 1.22-2.4 1.93-.6.71-1.03 1.42-1.36 2.06-.29.58-.5 1.1-.67 1.57.26.36.51.71.77 1.06.33-.52.72-1.14 1.22-1.82.78-1.04 1.84-2.19 3.38-2.79.76-.3 1.62-.44 2.41-.3s1.52.56 2.13 1.3c.61.73 1.08 1.73 1.37 2.84.28 1.12.41 2.44.56 3.89.15 1.44.38 3.12 1.02 4.78.58 1.52 1.46 2.98 2.61 4.28 1.4-.38 2.78-.79 4.15-1.23-.44-.31-.86-.65-1.24-1.03z"/><path d="M133.08 158.4c-.07-.01-.17.06-.26.22l.27-.21h-.01z" style="fill:#f4d280"/><path class="cls-8" d="M132.86 161.25c.34.91 1.05 1.92 2.2 2.72.58.4 1.26.74 2.07.95.78.2 1.63.28 2.5.23 1.75-.11 3.53-.73 5.2-1.66 1.68-.94 3.19-2.15 4.72-3.28 1.53-1.13 3.05-2.13 4.72-2.6.83-.24 1.66-.34 2.43-.25.76.08 1.45.37 2.18.84 1.46.99 2.77 2.72 4.46 4.33.85.8 1.82 1.59 2.98 2.16 1.16.57 2.38.88 3.56.96 2.38.17 4.6-.49 6.35-1.62 1.77-1.12 2.98-2.84 3.55-4.48.52-1.54.6-2.99.43-4.24-.75-.07-1.51-.12-2.26-.14-.03 1.04-.24 2.18-.79 3.3-.56 1.08-1.41 2.07-2.65 2.72-1.22.65-2.76.99-4.28.79-1.56-.19-2.81-.89-4.17-2.27-1.37-1.32-2.68-3.23-4.95-4.83-1.15-.77-2.58-1.36-4.01-1.48-1.42-.14-2.77.08-3.97.46-1.21.38-2.28.92-3.27 1.54-.96.61-1.81 1.27-2.59 1.91-1.55 1.28-2.87 2.48-4.17 3.35-1.3.87-2.6 1.46-3.79 1.68-.59.12-1.18.14-1.7.09-.5-.05-.99-.19-1.42-.38-.88-.39-1.54-.97-1.96-1.52-.86-1.1-.84-2.05-1.14-2.11l-.27.21c-.07.11-.13.25-.18.46-.13.48-.14 1.26.21 2.17z"/></svg>