<svg id="Illustration" xmlns="http://www.w3.org/2000/svg" viewBox="0 0 200 200"><defs><style>.cls-1{fill:none}.cls-4{fill:#f0ba31}.cls-5{fill:#f4f4f4}.cls-6{fill:#ffecd6}.cls-7{fill:#ffa2af}.cls-8{fill:#fbae5e}.cls-9{fill:#fff}.cls-11{fill:#ffc101}.cls-12{fill:#ff7800}.cls-13{fill:#5b3d5b}</style></defs><path class="cls-11" d="M38.67 57.64c-1.61 2.43-14.27-6.06-21.99-10.49-7.73-4.43-10.88-7.08-8.75-10.53s3.84-5 8.92.07c5.07 5.08 18.27 14.78 20.48 16.52 2.21 1.74 1.35 4.43 1.35 4.43z"/><path class="cls-7" d="M34.31 5.61c-12.08.71-3.56 10.37-2.13 13.49 3.26 7.12 7.63 13.57 12.55 19.82.47.59 1.97 3.22 3.23 2.43 1.36-.85.05-4.36-.2-5.1-2.09-6.12-4.53-12.18-6.43-18.39-1.02-3.33-1.7-7.6-3.86-10.39-.89-1.15-2.23-1.38-3.16-1.86zM184.22 103.24c-1.02-1.9-4.78-1.12-7.93-.36 0 0-1.57-3.29-2.89-4.45s-2.93-.42-3.2 1.82-.29 4.07-.29 4.07-4.43.19-5.9.79c-1.47.59-2.9 1.93-.23 3.28s5.44 2.57 5.35 2.52-.37 5.41-.41 6.57 1.86 2.58 3.65.46c1.79-2.12 2.94-4.05 2.94-4.05s4.44 1.73 5.48 1.8 1.58-1.48.84-3.05c-.74-1.57-1.7-3.42-1.7-3.42s4.95-4.73 4.28-5.98z"/><path d="m50.5 69.14-.13-8.96c-.2-14.3 11.23-26.06 25.53-26.27 14.3-.2 26.06 11.23 26.27 25.53l.13 8.96" style="stroke:#fbae5e;stroke-miterlimit:10;stroke-width:6px;fill:none"/><path class="cls-12" d="M7.7 192.51c-1.79-1.19 7.83-124.95 7.83-124.95l51.23-.73-11.5 126.27s-45.77.59-47.55-.6z"/><path class="cls-6" d="M68.58 83.31s0-.01-.01-.02c0 .03.01.04.01.02zM67.25 83.53s-.04-.04-.06-.05c0 .02.01.05.02.06l.03-.02zM60.86 82.26v-.07.08zM65.77 83.96s-.04.01-.06.03c.04 0 .05 0 .06-.03zM67.7 83.84s-.04-.03-.05-.03c.02.02.03.03.05.03zM68.58 83.25c0 .06.04.03 0 0zM68.98 82.98h-.04c.01.01.03.02.04 0zM68.9 82.97h.04c-.01-.01-.02-.02-.04 0zM54.44 81.42s.05.06.08.08c.06-.22-.14 0-.05-.2-.03 0-.05.03-.07.06l.05.21c.05-.08-.04-.07-.01-.15zM60.46 81.84v.02c0-.1 0-.13-.04-.17-.04.15.04.36-.03.53.01-.02.04-.01.06 0-.04-.13 0-.27.02-.38zM60.44 82.22v.01c0 .02 0 .04.01.05.01 0 .02 0 .03.02 0-.04-.03-.07-.05-.08zM55.48 81.47l.04.02c-.02-.04-.03-.04-.04-.02zM65.77 81.28s.03-.04.04-.07c-.02.01-.03.04-.04.07zM61.2 82.02s.02.03.04.03c0 0 .01 0 .02-.01l-.06-.02zM58.82 84.12c.02-.24-.02.02-.08-.12l-.04.13s.09 0 .12-.01zM54.4 81.35v.02-.02zM57.37 84.23s-.02-.02-.02-.03c0 .01.01.03.02.03zM60.73 82.31h.19l-.06-.05c-.02.12-.11-.09-.13.05zM63.48 81.89s.08-.15.03-.22c-.02.09-.08-.06-.09.07v-.01c.03.08.06.15.07.16zm-3.03.95c0-.1.02-.21 0-.29 0-.03-.02-.06-.01-.08-.03-.02-.05-.04-.07-.01 0 .33-.05.38.07.38zM61.42 81.45h-.03.03z"/><path class="cls-6" d="M60.39 82.46s.03.05.07.09c0-.04-.03-.07-.07-.09zM67.22 83.96s-.01.01-.02.03c0-.01.01-.02.02-.03zM67.27 83.9s.11-.03.12-.14c-.06.05-.11.08-.17.2.03-.01.06.06.05-.06zM66.74 83.87c.03-.06.07-.03.05-.13-.02-.04-.07.06-.05.13zM63.02 81.12c-.05-.05-.08 0-.06.13.06 0 .02-.09.06-.13zM62.89 81.29l-.01-.07-.04-.11.05.18zM62.53 81.09s.01-.05.02-.06c-.02.02-.04.04-.02.06zM62.56 81.02zM62.58 81.06v-.08s-.01.02-.03.03c0 0 .02 0 .03.04zM62.42 81.07l.08.22c.07-.11-.08-.11-.02-.34l-.05.13zM62.18 81.14c-.07-.07-.15.28-.19.02-.18.14.06.43-.15.54.2.13.08-.5.26-.36-.09-.16.05-.13.08-.19zM62.23 81.57c0-.13-.08-.14-.1-.05.02.01.07.19.1.05zM61.83 81.27l-.06-.1-.01.08.07.02zM61.62 81.22l.05-.15c-.02.06-.1.05-.05.15zM61.31 81.04c-.05-.05-.09.3.02.22h-.03c0-.07-.06-.19 0-.22zM60.65 81.61s.08-.04.07-.11l-.09.07.03.04zM60.69 82.46c.04.21.09-.02.16.05-.07-.04-.07-.07-.16-.05zM60.52 81.32c.02-.09.07-.03.09-.02-.02-.12-.08-.09-.09.02zM60.37 81.4c-.03-.08 0-.12-.02-.18-.07-.09-.14-.08-.18.04.02.09.05.33.03.44.11-.08.15-.47.21-.17l.08-.37c-.09-.06-.06.26-.12.24zM60.62 82.09l-.06-.12c.02.12-.03.14-.06.18.02.27.09-.04.12-.06zM59.78 81.58l-.12.07.04.01.08-.08zM59.69 81.5v-.08l-.09.15.09-.07zM59.56 81.41l.02.01.07-.07-.09.06zM59.3 81.37l.03.11s.1.09.09-.06c-.03.05-.09.04-.11-.05zM58.55 84.28c.02-.08 0-.14-.01-.21l-.03.19s.03-.03.04.01zM58.39 83.97l-.08.22c.11.03.12-.14.21-.18-.04-.07-.09.09-.14.03l.02-.08zM56.55 83.87c0-.14-.02-.12.05-.22-.09.09-.17.06-.28.09.02.09-.05.25-.01.21l.12-.09v.1c.07.11.03-.16.13-.09zM51.71 82.54c0-.07 0-.13-.02-.19-.07.08.04.18.02.19z"/><path class="cls-8" d="M114.86 176.46c.02-.54.29-1.05.73-1.36a9.154 9.154 0 0 0 3.81-7.62v-.39c-.65-11.43-1.12-24.46-.73-34.78v-.13c0-.94-.76-1.7-1.7-1.7s-1.7.76-1.7 1.7c-.28 7.05-.15 15.42.18 23.67a2.03 2.03 0 0 1-1.95 2.1 2.03 2.03 0 0 1-2.1-1.95c-.32-8.19-.46-16.49-.19-23.53v-.13c0-.94-.76-1.7-1.7-1.7s-1.7.76-1.7 1.7c-.28 7.1-.15 15.5.18 23.79a2.023 2.023 0 0 1-4.04.16c-.32-8.23-.46-16.59-.19-23.66v-.13c0-.94-.77-1.7-1.71-1.7s-1.7.76-1.7 1.7c-.42 10.61.09 24.14.79 35.85a9.164 9.164 0 0 0 4.6 7.29c.51.3.85.83.89 1.42.01.18.04.4.04.57.41 5.85.87 11.45 1.17 14.83 2.83-.04 5.68-.09 8.53-.13-.17-1.37-.41-3.25-.69-5.62-.95-8.5-.78-10.25-.78-10.25zM144.54 129.24c-.02-.28-.08-.55-.16-.81a1.54 1.54 0 0 0-.23-.39c-.6-.79-1.73-.95-2.52-.35-.19.13-.37.29-.53.46 0 0-10.96 11.69-12.62 45.73-.02.3.01.61.09.9.23.76.91 1.31 1.7 1.39l5.86.69c.51.04.9.45.92.96 0 0-.13 5.06-.89 14.14 2.89-.06 5.76-.12 8.58-.19.13-3.4.4-10.75.59-19.48.3-14.2.39-32.39-.8-43.06z"/><path class="cls-9" d="M116.36 192.59c6.66-.07 13.56-.14 19.78-.2.01-.15.02-.29.04-.43-6.54.14-13.21.26-19.85.37l.03.26zM89.11 192.86l18.7-.19c0-.07-.01-.15-.02-.22-6.39.09-12.68.18-18.71.25l.03.16zM153.07 100.39l-.92-.09c1.29 10.74 2.44 22.29 3.43 33.44-.59-7.96-1.84-23.79-2.51-33.35zM160.26 188.87c-.07-.75-1.71-19.12-2.97-33.64 1.48 20.62 2.1 36.16 1.45 36.18-4.5.13-9.19.25-13.98.36 0 .19-.01.37-.02.53 7.2-.07 12.31-.13 13.02-.14 2.75-.04 2.63-2.11 2.51-3.3z"/><path class="cls-9" d="M157.3 155.23c-.72-8.35-1.32-15.43-1.41-17.13-.04-.76-.15-2.3-.31-4.36-.98-11.15-2.14-22.7-3.43-33.44l-6.92-.69h-.22a1.8 1.8 0 0 0-1.76 1.84l.06 2.96c0 .06-.05.11-.11.11-.03 0-.05 0-.07-.03-5.44-4.72-11.29-8.95-17.48-12.62a7.517 7.517 0 0 0-4.25-1.19c-1.5.03-2.96.51-4.19 1.37-29.02 18.78-44.59 48.63-45.18 50.26a2.923 2.923 0 0 0 2.01 4.03l8.51 1.42c1.15.29 2.01 1.25 2.17 2.43.1 1.44 2.25 32.56 4.37 42.51 6.04-.07 12.32-.15 18.71-.25-.3-3.39-.76-8.98-1.17-14.83 0-.18-.03-.4-.04-.57-.04-.59-.38-1.13-.89-1.42a9.149 9.149 0 0 1-4.6-7.29c-.7-11.71-1.2-25.24-.79-35.85 0-.94.76-1.7 1.7-1.7s1.7.76 1.7 1.7v.13c-.27 7.07-.12 15.42.2 23.66a2.01 2.01 0 0 0 2.1 1.94 2.01 2.01 0 0 0 1.94-2.1c-.33-8.29-.46-16.69-.18-23.79 0-.94.76-1.7 1.7-1.7s1.7.76 1.7 1.7v.13c-.27 7.04-.13 15.33.19 23.53.04 1.12.98 1.99 2.1 1.95 1.12-.04 1.99-.98 1.95-2.1-.33-8.25-.46-16.63-.18-23.67 0-.94.76-1.7 1.7-1.7s1.7.76 1.7 1.7v.13c-.39 10.31.08 23.35.73 34.78v.39a9.132 9.132 0 0 1-3.8 7.62c-.44.32-.71.82-.73 1.36 0 0-.17 1.76.78 10.25.28 2.37.52 4.25.69 5.62 6.63-.11 13.3-.23 19.85-.37.76-9.08.89-14.14.89-14.14a.995.995 0 0 0-.92-.96l-5.86-.69c-.8-.08-1.47-.63-1.7-1.39-.08-.29-.11-.6-.09-.9 1.65-34.04 12.62-45.73 12.62-45.73.16-.17.34-.33.53-.46.79-.6 1.92-.44 2.52.35.09.12.17.25.23.39.09.26.14.53.16.81 1.19 10.67 1.1 28.86.8 43.06-.18 8.72-.45 16.07-.59 19.48 4.79-.11 9.48-.23 13.98-.36.65-.02.04-15.56-1.45-36.18z"/><path class="cls-4" d="M54 66.89c-.04-.18-.02-.06-.02-.03l.02.03zM53.98 66.86l-.02-.02s.01.03.02.02zM53.86 66.76c-.02-.14.06.04.02-.18-.05-.12-.07-.06-.02.18zM53.93 66.89l-.03-.12.03.19v-.07zM53.97 66.99l-.02-.04v.12l.02-.08zM53.77 66.69v-.04c.07.15.06.22.1.32.03 0-.08-.33-.03-.29-.04-.15-.05.01-.11-.22-.05-.07.03.14.04.23zM52.84 68.28v-.02c0 .02.01.04 0 .02zM52.55 68.54s-.02-.04-.03-.04c0 .02.02.04.02.06v-.02zM52.94 67.79s.02.04.03.05c-.01-.03-.02-.05-.03-.05zM50.54 67.52s0-.04-.02-.07v.06h.02zM52.26 69v.03s.01 0 0-.03zM53.06 67.74s0 .02.01.02v-.02zM52.74 68.82s-.02-.03-.02-.02c0 .02.02.02.02.02zM53.38 66.52s-.01 0 0 .02c.01.03.02.04 0-.02zM53.26 66.57c0-.03 0-.02 0 0zM53.18 66.57c0-.02 0-.02 0 0zM53.37 66.54c-.03-.09-.11-.39-.04-.06v.04c-.01-.07 0 .06 0 .07 0 .03.02.06.02.08 0 0 .01 0 .03.03.03.07 0-.09-.01-.16zM52.83 68.22c.02.06.02.03 0 0zM52.87 67.95h-.01c0 .01.01.02.01 0zM53.29 67.93v-.01.01zM52.85 67.94h.01c0-.01-.01-.02-.01 0zM53.13 67.78zM48.63 66.9s.03.05.04.08c-.04-.22-.04 0-.06-.19v.07l.06.2c0-.08-.03-.07-.04-.15zM50.33 67.12v.02c-.02-.09-.02-.12-.05-.17.03.14.1.35.12.51 0-.02 0-.01.02 0-.04-.12-.07-.26-.09-.37zM50.42 67.49v.01c0 .02.01.04.02.05l.01.02c-.01-.04-.02-.06-.03-.08zM48.92 66.92s0 .01.01.02c-.01-.04-.02-.04-.01-.02zM51.61 66.41v-.07.07zM50.57 67.27s.01.02.02.03v-.01l-.02-.02zM50.45 69.39c-.05-.23 0 .02-.05-.11l.02.13s.02 0 .03-.02zM48.61 66.84v.02-.02zM50.1 69.53s0-.02-.01-.03c0 .01 0 .02.01.03z"/><path class="cls-4" d="M50.52 67.57h.05l-.03-.05c.02.12-.05-.09-.02.05z"/><path class="cls-4" d="m50.69 69.47.04.14c-.03-.31.14.1.06-.33.19.48-.08-.45.09-.02l-.02-.07c.2.04.45.25.55-.03l.03.1c.31.1.51-.17.79-.16 0-.1-.07-.31-.08-.43.01 0 .03-.01.06.11 0 .07.04.18.04.22.03-.02.1.11.09-.04l-.06-.15c0-.07.02-.03.03-.02.02.08.08.25.08.29-.05-.4.09.16.09 0-.08-.33-.09-.62-.11-.87l.04.08s.06.24.03.23c.05.09.04-.06.08-.01a.873.873 0 0 1-.05-.23c.03.04.07.21.1.22v.11c.05.12.02-.05.03-.07.04.14.07.16.11.31-.02-.2.01-.09 0-.22-.07-.14-.04-.18-.07-.3l-.02.06c.07.08 0 .03.06.26-.05-.1-.07-.4-.1-.35 0-.13.05-.03.04-.23-.01.05-.04-.16-.07-.22.03-.02.03.08.08.23.02-.01.06.12.03-.06.05.06.04.18.08.27.03.17-.13-.18.01.34-.01 0 .02.21 0 .21.04.06.11.23.1.1l-.08-.29s-.03-.21-.01-.19c.02.09.06.21.07.18-.01-.04-.02-.03-.03-.08.02-.03-.03-.23-.01-.29-.05-.07-.07-.16-.13-.28-.05-.21 0-.03.02-.06 0 .03 0 .03.02.07v-.1c.04.08.06.3.12.39.06.17 0-.1.04 0 0-.02-.01-.04-.02-.05l.01.01v-.01c0-.03.03-.02 0-.18.02.07 0-.02 0-.07 0-.06-.03-.25.05 0 .03.02.07.1.08.18l.05.05.05.2c.02-.06-.02-.18-.05-.39.05.11.07 0 .06-.07h.01l-.03-.08s0-.1.01-.11c0-.02-.01-.03 0 0l.01.01c0 .02 0 .02 0 0l.02.07c.08.21 0-.13.04-.06v.02c.03.05.12.33.08.16v-.06l.02.03s-.01-.02-.02-.03c0-.06-.02-.13-.01-.09l.04.03s.01 0 .01-.03l.03.08s.02.03.03.06c.11.28.02-.16.13.08-.03-.14-.06-.2-.08-.27-.02-.11-.02-.21-.03-.29.07.19.17.34.23.62.04.01-.05-.17-.06-.27s-.05-.11-.09-.22c-.04-.15-.02-.2 0-.16l.05.21c.01-.08-.08-.4-.11-.62.05.08.08.27.14.46v-.06l.05.16c0-.05-.03-.2.01-.14.02.15.07.14.1.35.03.05-.05-.26.01-.05-.04-.17-.03-.08-.05-.13-.07-.24 0-.12 0-.19.03.13.03.15.07.23-.02-.1-.03-.17.01-.06-.04-.16.01-.04.03-.03a.997.997 0 0 1-.1-.28c0-.07 0-.1.02-.08l-.03-.07c-.04-.24.07.16.08.08.01.1 0 .1.03.22 0-.08-.02-.2-.02-.28l.08.23c-.03-.12.03 0-.02-.15.05.1.03.2.06.31.06.1-.04-.27.05-.04l.03.15s.01-.08.03 0c-.01-.05-.01-.03-.02-.03-.08-.32-.01-.24-.1-.56l-.02-.02c0-.07-.04-.3 0-.18.04.1.05.23.06.31.03.02-.08-.37-.04-.34-.03-.05-.05-.17-.07-.25-.02-.02-.07-.07-.02.06v.03c.03.09.03.12.04.16-.02 0-.05-.15-.07-.21-.05-.04.08.33.05.33l-.02-.06c0 .09-.01.11.04.31-.07-.21-.01.09-.06-.03-.12-.47.06.02 0-.24-.04-.09-.05-.23-.07-.33v.21c-.02-.06-.09-.29-.06-.12 0 .07.05.26.02.2-.01-.04-.03-.12-.04-.15-.03-.04.01.11.02.15-.03-.04-.04-.19-.07-.24.03.19-.04-.04-.05-.02.08.26.03.38.13.6v.19c-.04-.13-.06-.38-.13-.6h.03c-.09-.33 0 .23-.12-.13-.02-.01 0 .04-.08-.12l.08.29c-.03-.06-.08-.22-.1-.28 0 .02-.01.02-.03 0 0-.04-.02-.08-.01-.1-.05-.16-.04-.1-.02-.01.01.08 0 .07 0 .07l-.02-.11s0 .06.01.11v.03c.02.05.07.22.1.29-.07-.11-.08-.04-.17-.27-.02-.09-.04-.19-.04-.2-.03-.04 0 .11.03.24v.01a.777.777 0 0 0-.06-.16c0-.03-.02-.05-.03-.06.06.23 0 .13.02.23.01.02.02.02.03 0 .03.16.06.34.02.22-.02-.15-.09-.24-.07-.31-.1-.29.04.22-.01.12l-.05-.11c-.04-.17 0-.09-.02-.15v.02c-.03-.13.04-.06.02-.26l-.08-.08c-.02.22-.16.01-.12.4 0 .02.01.05.03.11v-.04.13c-.05-.16-.09-.18-.14-.3q.04.1.08.23c.04.17.06.24.02.19-.03-.12-.02-.12-.06-.21.02.06.04.14.03.16-.03-.08-.05-.09-.09-.21 0-.03.01 0 .02.02 0-.03-.05-.1-.06-.21v.04c-.05-.1-.04-.16-.07-.22-.01.09.04.37.04.46a4.29 4.29 0 0 1-.07-.26c-.04-.08.03.31 0 .33-.02-.08 0-.05 0-.09-.11-.08-.17-.07-.32-.31l.05.28-.07-.18c-.13-.16-.14.04-.19.14-.02.02-.06-.19-.1-.26-.06-.02 0 .3-.02.37-.02-.09-.07-.33-.09-.33.02.08.05.21.02.16l-.02-.09c-.04-.12-.03 0-.06-.05-.04.02-.03.22 0 .54-.05-.02-.07-.3-.1-.36.05.09 0-.05-.01-.15 0 .08 0 .13-.06-.06-.02.02-.03.01-.01.15 0-.07.03.03.04.13-.03-.06-.06.02-.12-.23-.08.07-.21.05-.31.09.02.13.03.05.04.14.02.17-.04-.08-.03.06l-.03-.14v.38c-.04-.15-.06-.12-.06-.22 0 .03-.2-.65-.18-.51l.18.64c.02.06-.01.03 0 .07-.05-.12-.1-.27-.11-.26-.05-.16-.02-.13 0-.13-.07-.27-.09-.16-.13-.41-.01.05.04.14.05.24l-.04-.05.04.09c0 .09.05.29-.01.15l.04.27c-.06-.21-.03-.03-.06-.08l-.03-.14s-.03-.02-.06-.1c-.04-.19.03.04-.01-.14l-.04-.06c.03.12.04.22.08.29.04.23.08.42.03.41-.07-.2-.03-.19-.09-.39-.07-.08.08.55.05.53-.06-.08 0 .11-.04.14-.03-.14-.06-.14-.11-.28l-.02-.15s-.02 0-.05-.11c.05.19 0 .19 0 .29l.05.16c0 .06 0 .17-.04.13-.02.06.03.2.05.38-.05-.14-.09-.32-.14-.49.03.08.03.03.06.08 0-.15-.06-.5 0-.43-.09-.4-.01.05-.07-.08v-.05c0-.05 0-.12-.04-.32-.01.05.09.4.01.24 0 .12-.09-.19-.11-.21.02.15.11.47.06.41l-.04-.22s.07.33.03.33c.02.02.04.22.07.22.02.12 0 .15-.04.09 0 .04.02.08.04.15.06.15 0-.16.07.06l-.05-.24a2 2 0 0 1 .11.37c0-.01 0-.05.01 0 .1.36-.06-.12.02.18v-.03c.07.23.03.21 0 .2-.05-.1-.08-.14-.12-.31v-.08c-.04-.13 0 .09-.02.09 0-.02-.01-.04-.02-.05 0 .01 0 .03.01.05 0 0-.01-.03-.03-.07-.02 0-.01.1-.04.05l.04.15-.02-.08s.06.09.08.2c0 .11-.08-.18-.12-.3-.05-.23.03 0 .02-.09-.07-.22-.04-.02-.11-.16-.05-.25.04 0-.02-.24-.04-.04 0 .14-.04.09-.03-.12 0-.13-.05-.28l-.04-.07s-.09-.31-.07-.38c-.04-.1.03.21-.03.06.03.11.1.3.11.4l-.04-.07c-.04-.12-.05-.27-.09-.37v.09c.02.07.04.11.06.21-.03-.08.05.29.07.41-.01 0-.03-.02-.06-.1.02.23-.02.23 0 .45-.02-.15-.07-.25-.11-.36.02-.04-.05-.27-.09-.42 0 .03.05.27.07.35-.05-.09.03.17-.04.01-.03-.08-.05-.23-.08-.32-.03 0 .07.29.02.24 0-.03 0-.04-.02-.08-.03-.05-.02.07.01.19-.1-.3-.04.04-.11-.25-.02.09.05.16.07.27.02.14-.04.03-.06 0 0 0 0-.09.02-.05l-.06-.2c-.08-.13.09.47 0 .31 0-.11-.03-.16-.06-.31 0 .05-.04 0 .02.16-.02-.01-.04-.05-.06-.08 0 .08 0 .14.03.28-.03-.02-.08-.16-.12-.24 0 .16-.12-.08-.13.09s.09.28.05.28c-.06-.25-.07-.16-.12-.29-.08-.12-.04.21-.13.05-.01-.05-.03-.12-.02-.13-.06-.07-.07-.01-.11-.02V67c-.11-.19-.09.07-.13.14 0-.03-.03-.13-.03-.16-.04-.05-.09-.08-.05.16-.1-.24 0 .08-.11-.15-.01-.04 0-.04 0-.05-.04-.08-.05-.05-.08-.07 0 .17.07.5 0 .42-.09-.34.01-.09-.06-.37 0 .06.01.14-.02.06-.03-.14-.02-.08-.05-.21-.03-.09.05.37.04.34.02.07.03.1.04.09.04.21-.05.03-.05.12 0 0 .05.06.09.23-.05-.06.02.27.03.41-.07-.15-.05-.29-.12-.53-.03-.09-.09-.27-.1-.37-.04-.04 0 .17-.02.23l-.02-.07s.01.34-.05.21l.04.07s-.02.03 0 .17c-.03-.11-.08-.21-.09-.3.08.37-.02.24.05.59-.03-.09-.06-.24-.08-.32.03.03.06.09.03-.05-.02 0-.06-.08-.07-.16.04.23.02.33.07.56-.04-.11-.07-.17-.12-.35-.03.13.18.57.11.58-.08-.17-.04-.25-.09-.3v-.03c-.16-.47.07.35.03.34-.07-.26-.03-.19-.1-.38-.01.07.08.47.02.39l-.02-.11s-.07-.02-.08 0c-.01-.05 0-.04 0-.06-.06-.09.02.14-.06-.04l.02.13c.04.09.1.21.08.05.02.15.12.32.17.55l-.02-.09c.15.37.22.4.32.53-.03-.28.09.09.09-.11-.07-.31 0-.06.01-.13 0 .04.06.23.08.27-.01-.08-.01-.11-.01-.14.03.1.14.34.11.13.05.09.02.1.03.16.05.15-.01-.13.02-.02 0 0 0 .03.01.05.03-.02.07.05.12.08-.08-.3 0-.12 0-.23.02.1.05.11.07.16l-.04-.23c-.03-.19.06.13.06.02l-.02-.05c0-.09.09.07.15.23 0-.63.33.27.46.06-.01-.09-.05-.15-.07-.29 0-.04.02-.03.03-.04-.03-.08 0 .02-.03-.06v.09s0-.03-.02-.07v.08c0-.08-.06-.31-.02-.23v.06c.02.01 0-.09.02-.04.03.05 0-.02.03.07l.08.11c-.05-.27.05-.03.06 0 .05.2-.02.07.02.27l.06.14-.04-.16.04.04v.03c0-.06-.02-.13 0-.07 0 .02.02.06.02.07v-.09c.03.17.02.05.07.24.08.08 0-.28.12-.03-.03-.09-.06-.3-.04-.27.02.04.03.09.05.16v-.1c.1.29.07.09.14.18l.02.08c-.01-.1-.02-.19.01-.16l.04.17c.06.11-.07-.36-.02-.26-.05-.18-.09-.27-.14-.44.05.18.09.2.05.07 0-.08.02 0 .03.04v-.11s.06.23.08.34c-.03-.2.02-.07.05-.04v.08l.05.03c-.02-.15 0-.16.05-.09l.05.24c.05.12-.01-.08-.02-.13 0-.12.04.04.09.17-.02-.26.18.37.12 0zm2.56-1.65v-.03s-.02-.08 0 .03zm-.24-.01c0-.1.02.01.04.08-.04-.06-.04.02-.08-.05.02.05.03.11.05.15-.01 0-.04-.06-.07-.18-.05-.24.11.13.06 0zm.2-1.3s0 .04.01.05-.01-.05-.01-.05zm-.08.24c-.02-.05-.03-.08-.04-.1.02.06.04.11.04.1zm-.34-.22c-.03-.1-.04-.06-.04-.04 0 0 .02.04.04.04zm-1.64.54s-.01-.14-.05-.21c.02.09-.04-.06 0 .07v-.01c.03.08.05.15.06.15zm-.58 1.01c-.02-.1-.05-.21-.07-.28a.31.31 0 0 1-.02-.08c-.01-.02-.02-.04-.02 0 .08.32.08.37.11.36zM50.49 66.71z"/><path class="cls-4" d="M50.47 67.72s.02.05.04.08a.191.191 0 0 0-.04-.08zM53.92 67.47v.03l.04.09c0-.11-.04-.25-.07-.41.02.15-.02.08-.04.14l.07.15zM53.63 66.41s-.05-.15-.05-.16l.02.1.03.06zM53.2 66.03l.05.08c-.01-.09-.08-.23-.05-.08zM53.75 67.68v-.11c-.05-.08-.06-.07-.03.05 0-.07.02.06.03.06zM53.13 66.02c.04.19-.05-.08 0 .1 0-.05.05.09 0-.1zM53.62 67.84c.06.18.03.02.05.05-.01 0-.08-.18-.05-.05zM53.14 66.6c-.03-.14-.02-.13 0-.1 0 .04.02.11.02.13v-.16c-.04-.09-.08-.15-.12-.32.02.13.06.32.1.45zM53.59 67.87s.07.17.08.16c-.03-.09-.07-.23-.08-.2l-.04-.16c-.05-.11.06.21.04.21zM52.97 66.25l.03.07c-.02-.13.02-.07-.02-.28-.02.02-.02.11 0 .21zM53.45 67.59l.06.22s-.02-.07-.03-.13c.01.03.03.05.02 0-.01.04-.05-.18-.05-.1zM53.45 67.85v.1l.08.24c0-.09-.03-.14-.08-.34zM53.39 67.71v-.04l.04.34c-.02-.14 0-.12-.04-.3zM52.59 66.37c.02.1.07.21.04.11-.02-.08-.08-.2-.04-.11zM53.14 68.13c-.03-.07-.03.07-.02.14 0-.05.06-.02.02-.14zM53.11 68.3v-.03.03zM52.64 68.95v.03-.03zM52.64 68.89s.02-.03 0-.14v.2c0-.01.03.06 0-.06zM52.49 68.88c0-.06 0-.03-.02-.13-.01-.04 0 .06.02.13zM50.84 66.34s-.02 0 .02.13c.01 0-.02-.09-.02-.13zM50.84 66.5l-.02-.06-.03-.11.05.17zM50.7 66.32s0-.05-.01-.06c0 .02 0 .04.01.06zM50.69 66.25z"/><path class="cls-4" d="m50.71 66.3-.02-.07v.03l.02.04zM50.66 66.31l.07.21c0-.11-.05-.1-.09-.33l.02.13zM50.62 66.38c-.03-.06.03.27-.05.03-.01.14.12.41.09.52.08.12-.1-.49-.02-.36-.06-.15-.02-.13-.03-.19zM50.74 66.8c-.03-.13-.05-.13-.04-.05 0 .01.07.18.04.05zM50.56 66.52l-.04-.09.01.08.03.01zM50.49 66.48l-.02-.15c.01.06-.01.05.02.15zM50.37 66.32s.05.29.06.21c-.01-.06-.06-.18-.05-.21zM50.33 66.9s.01-.04 0-.11V66.9zM50.55 67.71c.06.2.02-.02.05.04-.03-.03-.03-.06-.05-.04zM50.22 66.61c-.02-.09 0-.03.02-.02-.03-.12-.04-.08-.02.02zM50.2 66.69c-.03-.08-.03-.11-.05-.17-.04-.09-.06-.07-.04.04.03.09.1.32.12.43 0-.08-.08-.46.01-.17l-.07-.36c-.04-.05.05.25.03.24zM50.44 67.35l-.05-.12c.03.11.03.14.03.18.07.26.01-.05.02-.06zM50.09 66.89l-.02.07.02.01v-.08zM50.05 66.81l-.02-.07.01.14.01-.07zM49.99 66.73l.01.01v-.07l-.01.06zM49.91 66.7l.03.11s.05.09 0-.06c0 .05-.02.04-.04-.05zM50.42 69.54a1.17 1.17 0 0 0-.05-.2l.04.19s0-.03.01.01zM50.3 69.25l.03.22s0-.14.01-.18c-.03-.06 0 .09-.03.04v-.07zM49.79 69.21c-.03-.14-.03-.12-.04-.21 0 .09-.03.07-.05.09.03.09.05.24.05.2v-.09l.03.09c.05.1-.03-.16.02-.09zM48.18 68.08c-.01-.07-.03-.13-.05-.19 0 .08.05.17.05.19z"/><path class="cls-9" d="M23.17 144.1c-1.1-.06-2.49 8.34-3.1 18.77-.61 10.43-.21 18.94.89 19 1.1.06 2.49-8.34 3.1-18.77s.21-18.94-.89-19z"/><path class="cls-8" d="m82.55 147.77-8.51-1.42c-1.3-.3-2.23-1.45-2.26-2.78-.01-.43.08-.85.25-1.25.59-1.64 16.16-31.49 45.18-50.26a7.585 7.585 0 0 1 4.19-1.37c1.5-.03 2.98.38 4.25 1.19 6.19 3.67 12.04 7.9 17.48 12.62.02.02.05.03.07.03.06 0 .11-.05.11-.11l-.06-2.96c-.02-.99.77-1.81 1.76-1.84h.22l6.92.69c-1.71-14.27-3.65-27.11-5.7-35.65L40.54 67.22l-4.5 125.94s23.52-.1 53.05-.45c-2.12-9.95-4.27-41.07-4.37-42.51a2.907 2.907 0 0 0-2.17-2.43z"/><path class="cls-1" d="m132.1 18.19.01-.02c.1 0-.02-.12-.01.02zM132.19 18.58s.04 0 0 0z"/><path class="cls-12" d="M99.14 34.8c.01-.02.07-.03.12-.05.11-.07.23-.13.34-.21.02-.01.03-.02.04-.03.04-.04.09-.07.13-.11.27-.25.53-.51.77-.79.21-.24.25-.31.49-.68.19-.29.34-.6.5-.91.02-.05.04-.07.04-.07 0-.02.01-.05.04-.12.05-.14.09-.28.13-.42 0-.03.01-.07.02-.1v-.25c-.03-.29-.1-.58-.18-.87-1.09-.11-2.2-.17-3.31-.15-7.6.11-14.7 3.17-20 8.62-5.3 5.45-8.15 12.64-8.05 20.24l.13 8.96 5.1-.07-.13-8.96c-.09-6.24 2.26-12.13 6.6-16.61a23.21 23.21 0 0 1 16.05-7.06c.29-.24.68-.35 1.08-.35-.01-.03 0-.06.08 0zM104.74 32.01c-.23 1.27-.98 2.5-1.81 3.51 4.5.82 8.66 2.97 12.01 6.23 4.47 4.35 6.98 10.17 7.07 16.41l.13 8.96 5.1-.07-.13-8.96c-.11-7.6-3.17-14.7-8.62-20a28.29 28.29 0 0 0-13.72-7.39c.05.43.04.86-.04 1.31z"/><path class="cls-12" d="M99.14 34.8h-.01c.08 0 .17 0 .25.02-.11-.01-.18-.02-.21-.03h-.02zM99.06 34.81s.04.03.07 0h-.07zM99.67 34.51s.04-.03 0 0z"/><path class="cls-13" d="M132.15 18.58c-.08-.02-.05 0 0 0z"/><path class="cls-13" d="M132.97 18.46c.14-.16.21-.15-.24.04-.48.2-.22.05-.5.11.01 0-.04-.01-.08-.03.03.06.05.08 0 0-.05-.01-.09-.02 0 0 0-.01-.01-.02-.02-.03l.02.02c-.02-.04-.04-.09-.05-.12 0-.07.02-.15 0-.21v-.03c-.02.03-.08.1-.08.1-.03.02-.31.19-.43.24-.08.04-.27.09-.48.15.58.33 1.4.3 1.86-.22z"/><path class="cls-5" d="M131.11 18.68c-.11-.06-.22-.13-.3-.22-.12-.12-.2-.25-.27-.39 0 .2 0 .41.02.62 0 .04.01.08.02.12h.04c.14-.03.32-.07.5-.12zM132.1 18.19l.01-.02c.1 0-.02-.12-.01.02z"/><path class="cls-5" d="M132.97 18.46c.14-.16.21-.15-.24.04-.48.2-.22.05-.5.11.01 0-.04-.01-.08-.03h.04c-.02 0-.03-.02-.05-.03-.02-.04-.04-.09-.05-.12 0-.07.02-.15 0-.21v-.03c-.02.03-.08.1-.08.1-.03.02-.31.19-.43.24-.08.04-.27.09-.48.15.58.33 1.4.3 1.86-.22z"/><path class="cls-5" d="M134.03 16.16c.97.75 1.38 2 .91 3.15-.49 1.2-1.54 1.88-2.75 2.26a4.176 4.176 0 0 0 6.68-3.79 4.176 4.176 0 0 0-4.62-3.7c-1.3.14-2.39.86-3.05 1.88.85-.58 2.01-.42 2.82.21z"/><path class="cls-13" d="M112.85 16.24c-3.65-.22-7.38.76-9.95 3.47-1.12 1.19-2.04 2.69-2.32 4.32-.34 1.92.16 3.6.76 5.41.08.24.17.49.24.75 1.08.11 2.15.28 3.2.51-.17-1.58-1.02-3.06-1.25-4.65-.2-1.42.36-2.83 1.29-3.9 2.59-2.97 6.6-3.24 10.36-2.56 2.07.37 4.12.96 6.17 1.47l1.39-2.8c-3.28-.77-6.5-1.81-9.88-2.02z"/><path class="cls-11" d="M130.81 16.29c-.44.5-.56 1.21-.27 1.78.03-.78.27-1.51.67-2.13-.14.1-.28.21-.4.35z"/><path class="cls-13" d="M128.78 22.08c1.04-.04 2.29-.15 3.41-.5a4.167 4.167 0 0 1-1.62-2.76c-1.81.37-3.73.24-5.53-.07-.77-.13-1.54-.3-2.3-.48l-1.39 2.8c2.44.61 4.9 1.1 7.43 1.01zM132.02 18.29s.06-.07.08-.1c0-.14.12-.01.01-.02l-.01.02v.03c0 .06-.01.14 0 .21 0 .03.02.08.05.12.02.01.03.02.05.03h.02H132.16"/><path class="cls-13" d="M131.11 18.68c-.18.05-.37.09-.5.12h-.04c.16 1.14.76 2.11 1.62 2.76 1.21-.39 2.27-1.06 2.75-2.26.47-1.15.05-2.4-.91-3.15-.82-.64-1.97-.79-2.82-.21-.41.62-.64 1.35-.67 2.13.07.14.15.27.27.39.09.09.19.16.3.22"/><path class="cls-13" d="M132.15 18.57s0-.01-.01-.02c0 0-.01 0-.02-.02 0 .02.01.02.02.03zM132.15 18.58h.01l-.01-.01v.01z"/><path class="cls-13" d="M132.16 18.57h.03c-.02 0-.03-.02-.05-.03 0 0 0 .01.01.02h.01zM132.16 18.58c.05.08.04.06 0 0zM99.22 34.79h-.02c.07 0 .07-.01.02 0zM101.58 31.96s.02-.02 0 0zM99.2 34.8zM101.79 31.2l-.03.12v.02c.01.16.02-.13.03-.14zM99.67 34.51s-.01 0-.02.01c-.01 0-.02.02-.03.03.02-.02.04-.03.05-.04zM99.14 34.8h.02c-.04 0-.03-.01.03-.01l.04-.02s.02-.01.03-.02c-.05.01-.11.03-.12.05z"/><path class="cls-13" d="M99.2 34.8h.01c.04-.02.11-.06.13-.06a.45.45 0 0 0-.08.02s-.02.01-.03.02c-.02.01-.03.02-.04.02z"/><path class="cls-13" d="M101.76 31.06v.25c0-.04.02-.08.03-.12 0 .01-.01.3-.03.14v-.02c0 .03-.01.07-.02.1-.04.14-.08.28-.13.42-.02.07-.03.11-.04.12.02-.02-.01.04 0 0 0 0-.02.03-.04.07-.16.31-.32.61-.5.91-.24.37-.28.44-.49.68-.24.28-.5.54-.77.79-.04.04-.08.07-.13.11 0 0 .01 0 .02-.01.04-.03.04-.03 0 0-.01 0-.03.02-.05.04.01 0 .02-.02.03-.03-.01 0-.02.02-.04.03-.11.07-.23.14-.34.21.03 0 .06-.02.08-.02-.01 0-.09.04-.13.06h-.04c.03 0 .1.01.21.03-.08-.01-.17-.02-.25-.02-.03.03-.06.02-.07 0-.4 0-.79.11-1.08.35.12 0 .24-.01.36-.01 1.56-.03 3.1.1 4.6.38.83-1.01 1.58-2.24 1.81-3.51.08-.45.08-.88.04-1.31-1.05-.23-2.12-.4-3.2-.51.09.29.16.58.18.87z"/><path class="cls-13" d="M99.17 34.81h.02c-.06 0-.07 0-.03.01zM99.2 34.8h.02-.01zM99.06 34.81h.08c-.08-.05-.09-.02-.08 0z"/><path d="m191.22 41.12-11.55-14.28c-.21-.26-.38-.56-.51-.87l-6.4-16.07a3.378 3.378 0 0 0-3.49-2.1l-19.26 2.12c-.26.03-.53.03-.8 0l-18.64-2.39c-1.42-.18-2.8.56-3.44 1.84l-4.4 8.89c.76.18 1.53.34 2.3.48 1.81.31 3.72.44 5.53.07 0-.04-.01-.08-.02-.12-.02-.21-.03-.41-.02-.62-.29-.58-.17-1.28.27-1.78.12-.14.26-.25.4-.35a4.206 4.206 0 0 1 3.05-1.88 4.19 4.19 0 0 1 4.62 3.7 4.19 4.19 0 0 1-3.7 4.62c-1.11.12-2.16-.2-2.98-.83-1.12.36-2.37.47-3.41.5-2.54.09-4.99-.41-7.43-1.01l-1.89 3.81c-.12.24-.26.46-.43.66l-13.44 16.1a3.364 3.364 0 0 0-.18 4.07l10.83 15.57c.16.24.3.49.4.76l7.2 19.64a3.355 3.355 0 0 0 3.61 2.17l21.81-3c.22-.03.44-.04.66-.03l21.12 1.27c1.5.09 2.88-.83 3.37-2.25l6.27-18.09c.09-.26.21-.5.36-.73l10.38-15.95c.79-1.22.71-2.81-.2-3.94z" style="fill:#f6c243"/><path d="M136.1 56.89c-1.62.93-3.18 1.46-4.69 1.58-1.51.13-2.9-.02-4.18-.45-1.28-.43-2.42-1.08-3.43-1.96a11.45 11.45 0 0 1-2.44-2.94c-.62-1.08-1.05-2.28-1.3-3.59s-.23-2.63.05-3.95c.28-1.32.85-2.6 1.72-3.84.87-1.24 2.12-2.32 3.74-3.25s3.19-1.46 4.69-1.58c1.51-.13 2.9.02 4.18.45 1.28.43 2.42 1.08 3.43 1.96s1.82 1.86 2.44 2.94c.62 1.08 1.05 2.28 1.3 3.59s.23 2.63-.05 3.95c-.28 1.32-.85 2.6-1.72 3.84-.87 1.24-2.12 2.32-3.74 3.25zm-3.33-5.81c.86-.49 1.44-1.21 1.73-2.17.3-.95.14-1.97-.48-3.05-.62-1.08-1.41-1.73-2.39-1.95-.97-.22-1.89-.09-2.74.4-.86.49-1.44 1.21-1.73 2.17-.3.95-.14 1.97.48 3.05.62 1.08 1.41 1.73 2.39 1.95.97.22 1.89.09 2.74-.4zm13.84-23.89 7.53-4.32-4.64 43.81-7.53 4.32 4.64-43.81zm24 28.15c-1.62.93-3.19 1.46-4.69 1.58-1.51.13-2.9-.02-4.18-.45-1.28-.43-2.42-1.08-3.43-1.96a11.45 11.45 0 0 1-2.44-2.94c-.62-1.08-1.05-2.28-1.3-3.59s-.23-2.63.05-3.95c.28-1.32.85-2.6 1.72-3.84.87-1.24 2.12-2.32 3.74-3.25 1.62-.93 3.19-1.46 4.69-1.58 1.51-.13 2.9.02 4.18.45 1.28.43 2.42 1.08 3.43 1.96 1.01.88 1.82 1.86 2.44 2.94.62 1.08 1.05 2.28 1.3 3.59s.23 2.63-.05 3.95c-.28 1.32-.85 2.6-1.72 3.84-.87 1.24-2.12 2.32-3.74 3.25zm-3.34-5.81c.86-.49 1.44-1.21 1.73-2.17.3-.95.14-1.97-.48-3.05-.62-1.08-1.41-1.73-2.39-1.96-.97-.22-1.89-.09-2.74.4-.86.49-1.44 1.21-1.73 2.17-.3.95-.14 1.97.48 3.05.62 1.08 1.41 1.73 2.39 1.95.97.22 1.89.09 2.74-.4z" style="fill:#eeb217"/><path class="cls-9" d="M136.95 52.51c-1.62.93-3.18 1.46-4.69 1.58-1.51.13-2.9-.02-4.18-.45-1.28-.43-2.42-1.08-3.43-1.96a11.45 11.45 0 0 1-2.44-2.94c-.62-1.08-1.05-2.28-1.3-3.59s-.23-2.63.05-3.95c.28-1.32.85-2.6 1.72-3.84.87-1.24 2.12-2.32 3.74-3.25 1.62-.93 3.19-1.46 4.69-1.58 1.51-.13 2.9.02 4.18.45 1.28.43 2.42 1.08 3.43 1.96s1.82 1.86 2.44 2.94c.62 1.08 1.05 2.28 1.3 3.59s.23 2.63-.05 3.95c-.28 1.32-.85 2.6-1.72 3.84-.87 1.24-2.12 2.32-3.74 3.25zm-3.34-5.82c.86-.49 1.44-1.21 1.73-2.17.3-.95.14-1.97-.48-3.05-.62-1.08-1.41-1.73-2.39-1.95-.97-.22-1.89-.09-2.74.4s-1.44 1.21-1.73 2.17c-.3.95-.14 1.97.48 3.05.62 1.08 1.41 1.73 2.39 1.95.97.22 1.89.09 2.74-.4zm13.85-23.88 7.53-4.32-4.64 43.81-7.53 4.32 4.64-43.81zm23.99 28.15c-1.62.93-3.19 1.46-4.69 1.58-1.51.13-2.9-.02-4.18-.45-1.28-.43-2.42-1.08-3.43-1.96a11.45 11.45 0 0 1-2.44-2.94c-.62-1.08-1.05-2.28-1.3-3.59s-.23-2.63.05-3.95c.28-1.32.85-2.6 1.72-3.84.87-1.24 2.12-2.32 3.74-3.25 1.62-.93 3.19-1.46 4.69-1.58 1.51-.13 2.9.02 4.18.45 1.28.43 2.42 1.08 3.43 1.96 1.01.88 1.82 1.86 2.44 2.94.62 1.08 1.05 2.28 1.3 3.59s.23 2.63-.05 3.95c-.28 1.32-.85 2.6-1.72 3.84-.87 1.24-2.12 2.32-3.74 3.25zm-3.34-5.81c.86-.49 1.44-1.21 1.73-2.17.3-.95.14-1.97-.48-3.05-.62-1.08-1.41-1.73-2.39-1.95-.97-.22-1.89-.09-2.74.4-.86.49-1.44 1.21-1.73 2.17-.3.95-.14 1.97.48 3.05.62 1.08 1.41 1.73 2.39 1.95.97.22 1.89.09 2.74-.4zM72.81 79.42c-.32-.47-1.68-.04-3.56.65-.94.33-2.03.71-3.13.86-.55.08-1.1.11-1.64.05-.54-.06-1.06-.19-1.71-.43-1.26-.46-2.77-1.26-4.47-1.58-1.65-.34-3.59-.09-4.8.94-1.16.95-1.54 2.21-1.43 3.03.11.84.55 1.12.79 1.05.28-.07.43-.43.74-.77.29-.33.77-.73 1.41-.92.57-.16 1.35-.12 2.39.25 1.04.34 2.23 1.08 3.98 1.75.86.33 1.89.56 2.87.59.98.03 1.9-.13 2.71-.37 1.62-.5 2.81-1.28 3.69-2 1.75-1.46 2.45-2.66 2.15-3.1z"/></svg>