<svg id="Illustration" xmlns="http://www.w3.org/2000/svg" viewBox="0 0 200 200"><defs><style>.cls-1{fill:none}.cls-2{fill:#f6c243}.cls-4{fill:#fff}.cls-5{fill:#ffd066}.cls-8{fill:#c1dade}.cls-9{fill:#ba8d3c}.cls-10{fill:#cca88d}.cls-11{fill:#5b3d5b}</style></defs><path d="M83.18 26.41c-1.92-4.39-5.08-8.16-8.78-11.11-4.19-3.29-8.92-5.69-13.79-7.75-5.01-2.13-10.15-4.46-15.57-5.01-5.63-.62-11.18 1.37-16.4 3.22-4.87 1.72-9.61 3.84-13.58 7.14C8.2 18.59 4.01 27.24 3.46 36.09v.75c-.21 1.3-.27 2.68-.34 3.98-.14 5.15.69 10.43 2.74 15.23 1.85 4.19 4.8 7.82 8.37 10.7 3.57 2.88 7.55 5.15 11.6 7.14 2.06.96 4.19 1.92 6.31 2.81.69.27 1.44.62 2.2.96.89 3.22 1.85 6.45 2.74 9.67.55 1.78 1.03 3.57 1.58 5.42.48 1.51.82 3.57 1.99 4.67 1.23 1.23 2.81.34 3.43-1.03.75-1.65 1.3-3.43 1.92-5.15 1.37-3.77 2.68-7.48 3.98-11.32.07-.14.07-.27.07-.41 6.59-1.65 12.42-6.24 17.08-11.18 3.64-3.91 7.07-8.03 10.15-12.35 3.16-4.32 5.83-9.13 7.07-14.34 1.1-5.15.89-10.43-1.17-15.23Z" style="fill:#9fea63" id="Layer_27"/><g id="Layer_6"><path class="cls-9" d="M138.27 100.64c-.89-2.2-3.43-4.53-5.28-5.56-1.85-1.03-5.76-.41-7 .07-1.1.43-2.2 1.78-3.55 3.53-.44-.47-1.23-.57-1.6.17-1.37 2.74-2.68 5.49-3.77 8.37-1.1 2.88-1.92 5.83-2.74 8.78-1.72 6.04-3.57 11.94-5.35 17.98-.26 1 .84 1.51 1.52 1.14 1.25 2.21 4.52 7.99 5.41 9.7 1.1 2.13 4.39 9.19 4.39 9.19s3.16-3.16 4.53-6.52c1.23-3.43 7.41-15.16 8.99-19s5.21-13.93 5.49-16.81c.27-2.88-.14-8.92-1.03-11.05Z"/><path class="cls-9" d="M120.98 154.71c4.19-5.42 7.41-11.46 10.02-17.77.21-.55-.21-1.1-.69-1.3-.62-.14-1.03.21-1.3.75-2.47 5.97-5.49 11.73-9.47 16.88-.82 1.03.62 2.54 1.44 1.44Z"/><path class="cls-9" d="M121.94 101.46c1.51-3.5 4.87-6.79 8.92-5.97 3.84.75 6.24 4.05 7.07 7.68.41 1.92.34 3.84.14 5.76-.21 1.92-.48 3.77-.96 5.63-.89 3.5-2.06 6.93-3.29 10.36-1.37 3.84-2.95 7.55-4.73 11.18-.55 1.17 1.17 2.2 1.78 1.03 3.5-7.14 6.52-14.75 8.37-22.57.96-4.05 1.58-8.64.55-12.69-1.1-4.05-4.12-7.62-8.37-8.44-2.2-.41-4.46-.14-6.38 1.1-2.13 1.37-3.91 3.5-4.87 5.83-.48 1.23 1.3 2.26 1.78 1.1Z"/><path class="cls-8" d="M122.32 157.92c.02-.14.02-.3-.04-.47-2.81-8.37-6.66-16.4-11.46-23.81a.886.886 0 0 0-.62-.48l-.27-.07c-.21 0-.34.07-.55.14-.96.41-1.85 1.1-2.61 1.85-.21.21-.27.48-.27.75 0 .04 0 .07.01.11-.01.07-.02.15-.01.23l1.65 25.93c.01.19.07.35.15.49.07.24.24.45.47.61 1.17.89 2.68.62 3.98.34 1.51-.27 3.02-.55 4.46-1.1 1.3-.48 2.47-1.1 3.57-1.99.8-.64 1.67-1.56 1.55-2.55Z"/></g><g id="Layer_9"><path class="cls-10" d="M114.19 152.1c0-.62-.14-2.33-.96-3.57-.75-1.23-3.02-2.95-3.98-4.67-.96-1.72-4.46-5.08-6.79-6.17-2.33-1.1-14-4.87-16.33-5.83-2.33-.96-13.04-6.93-13.04-6.93s-6.24-5.97-7.07-7.75c-.82-1.78-2.95-5.08-4.53-6.11-1.58-1.03-7.75-4.94-7.75-4.94s-2.74-.34-3.64-.27c-.89.07-7.34.69-7.14 1.03s1.23 1.72 3.09 2.13 3.43.82 4.87 1.23c1.37.41-1.17 1.1-2.4 1.44-1.23.27-4.05.82-5.01 1.51-.96.75-2.4 1.65-2.33 2.54.14.89 1.03.96 1.65.96s1.92-.55 2.81-.55c.89-.07 3.91 0 3.16.69s-1.37.14-.89 1.37c.48 1.23-.48 1.78-.48 1.78s-1.92 2.81-1.51 3.43.55.41 1.78-.07 3.7-1.78 3.7-1.78 1.1 2.13.48 2.95c-.62.82-1.65 2.4-.41 1.65 1.23-.75 2.61-2.2 2.95-2.2s1.1.07 1.85.89c.75.82 3.5 4.32 4.8 5.49 1.3 1.17 2.95 1.1 3.84 1.1.89-.07 2.06-.41 2.06-.41s2.68 1.72 3.91 2.54c1.23.82 17.43 16.4 19.49 17.43 2.06 1.03 10.63 5.35 12.9 5.49 2.26.14 6.93-.41 8.92-1.44s1.99-2.88 1.99-2.95Z"/><path class="cls-11" d="M39.75 117.45c.69.69 1.72.89 2.68.82s1.85-.34 2.68-.82c.34-.21.62-.55.69-.89s.07-.89-.14-1.17c-.48-.69-1.37-.96-2.13-.55-.14.07-.34.21-.55.27l.34-.14c-.41.14-.82.27-1.23.34l.41-.07c-.27.07-.62.07-.89 0l.41.07c-.14 0-.34-.07-.48-.14l.34.14c-.14-.07-.21-.07-.27-.14l.34.27-.07-.07c-.27-.27-.69-.48-1.1-.48-.34 0-.82.14-1.1.48-.27.27-.48.69-.48 1.1.14.34.27.69.55.96ZM53.39 114c-.25-.07-.13-.03 0 0ZM53.47 114.02s-.02 0-.03-.01h-.05c.02 0 .04.01.08.02ZM49.14 124.11s-.01 0-.01.01c.03 0 .08 0 .12-.05-.03.02-.07.03-.1.03ZM48.54 107.73s.06.03.09.04c.05 0 0-.01-.09-.04Z"/><path class="cls-11" d="M113.71 146.4c-1.37-1.99-2.88-3.7-4.46-5.42-.25-.27-.5-.54-.76-.81a1.69 1.69 0 0 0-.27-.36c-.56-.56-1.16-1.07-1.79-1.54-.42-.33-.86-.64-1.32-.91-2.86-1.81-6.17-2.94-9.38-3.93-4.94-1.51-9.74-3.16-14.41-5.49-2.51-1.32-5.01-2.75-7.36-4.3-.04-.05-.08-.11-.12-.16l-10.63-12.63c-.1-.35-.33-.65-.69-.88-2.71-1.76-5.49-3.52-8.2-5.29-.27-.29-.64-.48-1.06-.48-2.81 0-5.56.14-8.37.48-.11 0-.22.03-.33.06-.05 0-.1 0-.15.01h-.21l.41-.07c-.75.07-1.65 0-2.33.48-.62.34-.96 1.03-.96 1.72 0 .55.27.96.62 1.37.41.41.96.75 1.51.96.69.27 1.3.55 2.06.75.43.13.85.22 1.28.29.09.05.18.08.26.12-1.16.31-2.3.68-3.4 1.09-1.03.41-1.99.89-2.68 1.72-.75.82-1.23 1.72-1.58 2.74-.27.75.27 1.72 1.1 1.92.82.21 1.65-.27 1.92-1.1 0-.07.07-.14.07-.27-.07.14-.07.07 0 0 .07-.21.21-.34.27-.55.11-.11.18-.25.27-.38-.06.4-.06.8.14 1.13.27.41.55.75.96.82.79.12 1.56.17 2.33.2v.01c-.03.17.02.38.12.58.04.2.09.39.16.57l-1.37 1.86c-.62.82-1.3 1.65-1.51 2.68-.21.75-.21 1.78.41 2.4.48.41 1.1.55 1.72.41.34-.07.62-.27.89-.41.86-.39 1.58-1.04 2.25-1.7-.03 0-.04-.01.01-.01l.07-.07c.21-.14-.07.07-.07.07l.14-.07s-.02.02-.04.03c.03-.02.07-.03.1-.03.34-.07.69-.21.96-.41.09-.04.16-.1.24-.15-.1.23-.21.47-.31.7-.07.27-.21.55-.27.75-.14.48-.21.89-.14 1.37.07.27.27.62.48.89.27.27.62.48 1.03.55.48.07 1.03-.07 1.44-.34.55-.41.96-.89 1.37-1.37.19-.22.37-.44.56-.65.72.64 1.32 1.39 1.91 2.09 1.3 1.65 2.47 3.57 4.39 4.53 2.08 1.04 4 1.09 6.09.41 6.14 4.66 11.37 10.37 17.17 15.37 4.39 3.77 9.26 7.68 14.89 9.4 3.55 1.08 7.22 1.15 10.85.56.15.02.3.02.47-.01 2.26-.48 4.25-2.06 4.94-4.25.82-2.47-.34-5.08-1.72-7.07Zm-68.35-23.16h-.01c-.03.02-.04.03-.04.03-.1.03-.03 0 .04-.03h.01Zm1.11-.78c-.07.07-.21.14 0 0Zm3.22-4.66s0-.03-.01-.05c0-.03.01-.06.02-.1v.15Zm.08.13c.1-.05.12-.06 0 0Zm62.84 34.17c-.11 1.18-1.01 2.01-2.05 2.46a2.01 2.01 0 0 0-.49.01c-3.22.62-6.52.62-9.67-.27-2.54-.69-4.87-1.99-7.07-3.43-5.63-3.77-10.43-8.51-15.37-13.1-2.94-2.75-5.96-5.49-9.19-7.97-.26-.39-.69-.68-1.16-.73-.46-.09-.95.06-1.32.36-.76.28-1.58.48-2.4.38-.48-.07-1.03-.34-1.58-.62-1.37-.75-2.47-2.61-3.5-3.98-.62-.75-1.23-1.58-2.06-2.2-.89-.75-1.85-1.3-2.88-1.85-.99-.54-2.67-1.26-3.6-2.31-.01-.05-.02-.11-.04-.16-.1-.26-.24-.55-.45-.74.01 0 .03-.01.04-.01.07 0 .14-.07.21-.07h.14c.07 0 .14.07.21.07.14.07.21.07.34.14.48.21.96.41 1.51.55.59.13 1.18.14 1.77.2.05.03.1.05.15.08.07 0 .14.07.21.07.27.14.55.21.75.34.62.27 1.3.55 1.92.75.99.39 1.99.63 3.02.75.19.09.4.14.62.14 1.1 0 2.2 0 3.36-.07.41 0 .82-.14 1.1-.48.27-.27.48-.69.48-1.1s-.14-.82-.48-1.1c-.27-.27-.69-.48-1.1-.48-1.1.07-2.2.07-3.36.07-.08 0-.16.01-.23.03-.04 0-.08-.01-.11-.03H60.19c-.27-.07-.55-.14-.89-.21-.55-.14-1.1-.34-1.58-.55-.27-.07-.55-.21-.82-.27-.07 0-.55-.21-.21-.07-.14-.07-.21-.07-.34-.14-.62-.27-1.3-.55-1.92-.82-.3-.11-.62-.07-.93.05-.07 0-.15-.02-.22-.03-.02 0-.04-.01-.08-.02-.07 0-.14 0-.21-.07-.14-.07-.27-.07-.41-.14-.32-.1-.63-.22-.94-.35-.34-.64-1.02-.94-1.8-.82-.21.07-.48.07-.69.14-.04 0-.09 0-.13.02.02 0 .04-.01.06-.02-.07 0-.21 0-.34.07-.48.07-.89.07-1.37.07H46c-.21 0-.41 0-.62-.07-.14 0-.21 0-.34-.07h-.14c-.16-.03-.32-.04-.47-.04.2-.09.38-.17.75-.31 1.54-.59 3.18-1.02 4.83-1.35.04.02.07.04.11.05.89.27 1.85.55 2.74.89.2.07.39.19.59.26.04 0 .07.01.09.01.14 0 .21.07.27.14.41.21.89.41 1.3.62.09.05.19.08.29.11.81.77 1.68 1.46 2.66 2.02.69.41 1.72.21 2.13-.55.41-.75.21-1.65-.55-2.13a4.49 4.49 0 0 1-.75-.48c-.14-.07-.27-.21-.41-.27-.01-.01-.04-.03-.06-.05 0 0-.01-.01-.01-.02-.48-.41-.89-.75-1.3-1.23-.41-.48-.82-.89-1.17-1.3-.21-.27-.41-.48-.62-.75-.07-.07-.07-.14-.14-.21.07.07.21.27.07.07-.07-.14-.21-.27-.27-.41-.27-.34-.48-.62-.89-.69-.2-.04-.48-.05-.72-.01-.78-.25-1.63-.42-2.43-.53-.48-.07-.96-.14-1.44-.27-.21-.07-.41-.14-.69-.21-.03 0-.1-.03-.17-.07h-.06l-.06-.06c.01 0 .03 0 .04.01-.02 0-.03 0-.04-.01-.16-.14-.35-.24-.56-.3 1.53-.11 3.08-.17 4.63-.18.03.02.05.04.08.06 2.67 1.69 5.27 3.32 7.87 5.06.06.12.14.24.23.36l10.34 12.29c.09.33.28.65.64.89 4.46 3.02 9.26 5.56 14.27 7.55 4.53 1.78 9.33 2.81 13.79 4.67.81.32 1.61.69 2.39 1.1.11.14.25.26.42.34 1.51.69 2.74 1.85 3.91 3.09 1.3 1.37 2.54 2.81 3.7 4.32 1.1 1.37 2.61 3.22 2.4 5.15Z"/></g><path class="cls-10" d="M140.74 85.89s-.62-4.53-.96-5.83c-.34-1.3.14-4.39.14-4.39s-1.1-.82-1.78-1.72c-.75-.89-2.68-3.16-2.88-4.53s.14-3.84-.55-4.19-.27-.69-1.65 0c-1.37.69-1.92 1.3-2.68 1.58-.75.27-1.44 1.03-1.65 1.23s-1.23-3.84-1.85-4.6c-.55-.75-3.02-1.92-4.05-2.2-1.03-.27-3.09 0-3.09 0l-5.56 1.44s-1.17 10.09-.48 13.72 2.26 8.1 3.16 9.61c.89 1.51 1.44 2.33 3.84 1.65 2.4-.75 5.28-2.13 5.42-1.85.14.27.21 3.84.21 3.84s4.39-1.03 7-1.78c2.88-.96 7.41-1.99 7.41-1.99Z"/><g id="Layer_4"><path class="cls-2" d="M142.66 84.79c.34.69.69 1.37 1.03 2.13.07.07.07.21.14.27.07.14.07.07 0 0q0 .07.07.14c.07.21.14.34.21.55.14.34.27.75.41 1.1.21.48.69.89 1.23.75.48-.14.89-.75.75-1.3-.55-1.58-1.23-3.09-1.99-4.6-.27-.48-.96-.69-1.37-.34-.62.21-.75.75-.48 1.3Z"/><path class="cls-11" d="M126.95 64.9s-.02-.03-.03-.05c0 0 0 .02.03.05Z"/><path class="cls-11" d="M149.8 61.95c-2.33-1.44-5.15-.55-7.07 1.1-.47.41-.42.94-.13 1.31-.29.66-.6 1.29-.92 1.92-.12-.53-.46-.98-1.08-1.17-.35-.06-.75 0-1.11.15-.36-.55-1.39-.52-1.71.12-.02.04-.03.08-.05.12 0-.02-.01-.04-.02-.05-.22-.33-.62-.56-1.02-.57-.48-1.6-2.13-2.37-3.79-2.03-.45.1-.84.3-1.21.54-.46-.08-.92-.18-1.33-.34-.27-.07-.55-.21-.82-.27-.07 0-.14-.07-.21-.07a.23.23 0 0 0-.09-.03s-.02-.02-.05-.03c-.14-.07-.27-.14-.48-.21-.32-.14-.63-.14-.91-.01a8.82 8.82 0 0 0-1.08-1.22c-.41-.34-1.1-.41-1.44 0-.34.41-.48.82-.07 1.23l.55.55c.07.07.21.21.27.34.07.07.07.14.14.21.26.4.53.86.73 1.32 0 0 .03.02.03.05 0 .07.07.14.07.14.07.14.07.27.14.41.07.27.14.48.21.75 0 .14.07.27.07.41v.28c.07.27.07.55.07.82 0 .75.89 1.37 1.58.89.37-.26.68-.57.98-.89.06.05.12.09.19.13.69.48 1.65.27 2.06-.48.14-.21.27-.41.41-.69.07-.14.14-.21.21-.34l.07-.07.21-.21c.02-.02.02-.03.03-.05.01 0 .02 0 .03-.02l.14-.07h.07c.07 0 .14-.07.14-.07h.07c0 .07.07.34.07.14v.48c-.07.21-.07.55-.14.75-.14.55-.21 1.1-.34 1.65-.14.55-.27 1.03-.41 1.58-.07.27-.14.55-.27.82-.04.07-.04.1-.04.1 0 .01-.02.02-.03.04-.07.07-.27.41-.07.14-.48.62-.69 1.58 0 2.2.55.55 1.65.69 2.2 0 .46-.59.79-1.26 1.05-1.96.65 1.05 1.41 2.02 2.27 2.91-.06 2.31.05 4.62.45 6.87.14.82 1.17 1.3 1.92 1.1.89-.27 1.23-1.1 1.1-1.92-.2-1.18-.32-2.38-.37-3.59 1 .39 2.15.46 3.25.23 2.2-.41 4.32-1.78 5.83-3.5 1.58-1.78 2.68-4.05 2.68-6.45 0-2.2-1.1-4.39-3.02-5.49Zm-16.07 3.94c.01 0 .04.02.08.04l-.08-.04Zm0 0v-.02h.02l.14.07c-.09-.03-.14-.05-.15-.05Z"/><path class="cls-2" d="M181.52 175.99c.35-.21.6-.6.52-1.11-.96-5.56-2.06-11.11-3.36-16.6-.34-1.3-2.33-.75-1.99.55 1.23 5.16 2.27 10.39 3.18 15.61-5.79 2.13-11.93 3.31-18 4.35-8.51 1.44-17.22 2.26-25.87 2.26-4.43 0-8.8-.26-13.17-.87-1.04-11.67-1.31-23.34-1.51-35.01l-.21-9.95c0-.34-.15-.59-.36-.76-3.15-4.33-5.67-8.94-5.2-14.47.27-2.88 1.17-5.76 2.13-8.51.96-2.74 1.99-5.42 3.16-8.1 1.3-3.02 2.74-5.97 4.39-8.85.55-1.17-1.23-2.2-1.85-1.03-2.88 5.28-5.35 10.84-7.41 16.54-1.99 5.69-3.64 11.66-1.51 17.56 1.09 2.92 2.78 5.5 4.61 8.02.33 11.74.41 23.47 1.09 35.21.2 3.39.47 6.71.74 10.02-.15.49.04 1.05.7 1.16 8.58 1.37 17.29 1.23 25.93.55 8.16-.69 16.33-1.85 24.36-3.7 3.16-.75 6.38-1.58 9.4-2.74.04-.01.06-.03.1-.05.05-.02.09-.05.13-.07Z"/><path class="cls-2" d="M177.8 159.49c.58-.05 1.15-.54.95-1.29-1.3-5.01-2.88-9.95-3.7-15.09-.89-5.56-.82-11.25-1.58-16.81-1.51-10.63-5.35-21.13-13.04-28.82-4.12-4.12-9.06-7.27-14.48-9.33a.992.992 0 0 0-.84.13l-1.23-2.98c.84-.61.28-2.12-.89-1.82-3.22.96-6.38 1.92-9.54 2.81-3.09.89-6.24 1.78-9.47 1.99h-.03c-.17-.04-.35-.05-.52 0-.55.21-.82.69-.69 1.3l.75 4.6c.03.22.16.4.33.54-1.74 3.78-6.56 14.29-7.4 17.09-1.03 3.43-2.13 7.89-1.99 10.09.14 2.2 1.03 5.97 2.06 7.89s3.5 5.42 3.5 5.42l1.85 45.83s21.41 2.26 32.59.14c11.18-2.06 26.55-6.04 26.55-6.04s-2.03-10.29-3.22-15.66Z"/><path class="cls-11" d="M127.76 85.89c.44-1.15-.87-2.78-2.32-2.06-1.23.62-2.54 1.1-3.91 1.51-.82.21-2.13.82-2.88.21-.75-.62-1.1-1.85-1.37-2.74-.48-1.3-.89-2.61-1.17-3.98a33.52 33.52 0 0 1 .1-15.62c.6-.05 1.19-.16 1.75-.3 1.37-.34 2.74-.89 3.77-1.85.41-.41.41-1.1 0-1.44a.997.997 0 0 0-1.44 0c-.24.21-.51.39-.8.54a.845.845 0 0 0-.57-.47c-.89-.21-1.85-.34-2.81-.41-.41-.07-.82-.07-1.23-.07h-.34c-.07 0-.34-.07-.14 0-.07 0-.14-.07-.27-.07h.07c-.07 0-.07-.07-.14-.07l-.21-.21c.14.14 0-.07 0-.07s-.14-.21-.07-.14c-.03-.05-.07-.14-.07-.14 0-.07 0-.14-.07-.21V57.41c.07-.21.07-.41.14-.62.04-.11.07-.22.11-.33.38.24.97.15 1.26-.15.48-.27.41-.89.07-1.3-.48-.55-.89-1.17-1.37-1.65-.69-.62-1.51-.34-2.13.21-.89.89-1.1 2.33-1.17 3.57-.12 2.14.8 4.26 2.56 5.42.02.03.06.05.08.07-1.46 6.05-1.28 12.51.37 18.53.41 1.51.96 3.02 1.65 4.53.55 1.24 1.37 2.33 2.61 2.88 1.51.69 3.16.21 4.67-.21.77-.2 1.55-.47 2.31-.77.06.99.11 1.98.22 2.97.07.41.14.75.48 1.1.27.27.69.48 1.1.48.75 0 1.58-.69 1.51-1.51-.18-1.58-.21-3.16-.36-4.73Z"/><path class="cls-8" d="M157.21 50.14c-.62-3.16-2.81-5.9-5.01-8.16-1.1-1.17-2.26-2.2-3.57-3.09-1.37-.89-2.81-1.51-4.32-2.06-1.51-.55-2.61-1.3-3.64-2.54-.96-1.17-1.65-2.47-2.4-3.7-1.65-2.61-3.57-5.01-6.11-6.79-2.54-1.78-5.76-2.88-8.92-2.68-3.16.21-6.24 1.72-7.62 4.73-1.51 3.29-1.37 7.41-.96 10.91.46 3.61 1.55 7.14 3.2 10.38-1.81 3.45-3.49 6.9-5.05 10.47-.05.11-.07.22-.09.33-.24.53-.09 1.23.64 1.38 9.54 2.26 18.94 4.94 28.27 7.96.35.12.64.04.85-.14.21-.08.41-.21.52-.41.84-1.96 1.71-3.9 2.59-5.84 5.81-.19 13-4 11.61-10.76Z"/></g><g id="Layer_24"><path class="cls-1" d="M129.49 143.32c-1.85.55-3.64 1.17-5.49 1.72 1.44 1.51 2.95 3.02 4.39 4.46.48-2.06.82-4.12 1.1-6.17ZM119.61 101.53c-.07 0-.07.07-.14.07-.69 1.65-1.44 3.36-2.06 5.01l1.17 1.17c.41-2.06.75-4.12 1.03-6.24ZM134.36 182.9c1.17 0 2.4.07 3.7.07.07-.41.14-.82.21-1.3-1.3.41-2.61.82-3.91 1.23ZM152.34 117.52c.41-2.06.75-4.12 1.03-6.17-1.85.55-3.64 1.17-5.49 1.72l4.46 4.46Z"/><path class="cls-1" d="M181.84 173.57c-.34-2.06-1.51-8.44-2.68-13.17-.34-1.51-.75-3.02-1.1-4.25-.62 3.5-1.37 6.93-2.33 10.36-1.1 4.05-6.38 3.5-7.75.55-4.39-4.19-8.71-8.51-12.83-12.97-.89-.96-1.23-2.13-1.1-3.16-.07-1.72.75-3.43 2.81-4.19 5.76-2.06 11.53-3.91 17.36-5.56.14-.07.34-.07.55-.07-.34-3.57-.69-8.23-1.37-15.03-1.23-11.39-6.17-19.62-8.16-22.64-1.99-3.02-6.38-7.75-10.63-10.7-2.74-1.85-5.15-3.02-6.66-3.57-1.85 2.47-5.9 1.72-7.07-.89-1.1-1.03-2.13-2.06-3.22-3.09-1.3.41-3.16.96-5.28 1.51-4.12 1.1-7.48 1.58-8.37 1.65s-1.3.27-1.1 1.44c.07.55.21 1.44.34 2.2h.07c2.4-.69 5.42 1.3 5.21 3.98-.55 7.2-1.72 14.34-3.7 21.34-1.17 4.05-6.38 3.5-7.75.55-.89-.82-1.72-1.65-2.61-2.47-1.1 4.46-1.1 8.99.07 12.28 1.3 3.7 4.53 8.16 4.53 8.16s0 1.03.07 2.4c4.67-1.58 9.33-3.09 14.07-4.39 2.4-.69 5.42 1.3 5.21 3.98-.55 7.2-1.72 14.34-3.7 21.34-1.17 4.05-6.38 3.5-7.75.55-2.54-2.4-5.01-4.87-7.48-7.34.07 2.88.14 5.76.14 7.55 0 4.19 1.23 20.24 1.23 20.99.07.75.27 1.3.69 1.37.07 0 .14 0 .27.07v-.27c-.07-1.72.75-3.43 2.81-4.19 5.69-2.06 11.53-3.91 17.36-5.56 2.4-.69 5.42 1.3 5.21 3.98-.14 2.26-.41 4.46-.69 6.72 7.48-.55 16.05-1.92 21.41-3.02 6.72-1.37 12.08-3.09 13.17-3.5 1.1-.41 1.1-.82.75-2.95Zm-31.01-46.11c-4.39-4.19-8.71-8.51-12.83-12.97-.89-.96-1.23-2.13-1.1-3.16-.07-1.72.75-3.43 2.81-4.19 5.76-2.06 11.53-3.91 17.36-5.56 2.4-.69 5.42 1.3 5.21 3.98-.55 7.2-1.72 14.34-3.7 21.34-1.17 4.05-6.38 3.5-7.75.55Z"/><path class="cls-1" d="M169.49 157.11c.41-2.06.75-4.12 1.03-6.17-1.85.55-3.64 1.17-5.49 1.72 1.51 1.44 3.02 2.95 4.46 4.46Z"/><path class="cls-5" d="M126.88 159.44c1.37 2.95 6.66 3.5 7.75-.55 1.92-7 3.16-14.07 3.7-21.34.21-2.68-2.81-4.67-5.21-3.98-4.73 1.37-9.4 2.81-14.07 4.39 0 1.3.07 2.95.07 4.53 0 1.92.14 5.76.21 9.54 2.54 2.54 5.01 5.01 7.55 7.41Zm2.61-16.12c-.27 2.06-.62 4.12-1.03 6.17-1.51-1.44-2.95-2.95-4.39-4.46 1.78-.55 3.57-1.17 5.42-1.72ZM124.75 117.18c1.92-7 3.16-14.07 3.7-21.34.21-2.68-2.81-4.67-5.21-3.98h-.07c.14.82.21 1.51.21 1.51-1.3 2.33-2.61 5.21-3.91 8.16.07 0 .07-.07.14-.07-.27 2.06-.62 4.12-1.03 6.17l-1.17-1.17c-1.03 2.68-1.92 5.08-2.54 6.93-.21.55-.34 1.1-.48 1.65.82.82 1.72 1.65 2.61 2.47 1.37 3.16 6.59 3.7 7.75-.34ZM156.86 146.75c-2.06.69-2.88 2.47-2.81 4.19-.14 1.03.21 2.13 1.1 3.16 4.12 4.46 8.37 8.78 12.83 12.97 1.37 2.95 6.66 3.5 7.75-.55a105.4 105.4 0 0 0 2.33-10.36c-.69-2.61-1.17-4.46-1.17-4.46s.07.27-1.1-4.32c-.48-1.85-.75-3.84-1.03-6.24-.21 0-.34.07-.55.07-5.9 1.65-11.66 3.5-17.36 5.56Zm12.62 10.36c-1.51-1.44-2.95-2.95-4.39-4.46 1.85-.62 3.64-1.17 5.49-1.72-.34 1.99-.69 4.12-1.1 6.17ZM141.91 172c-5.83 1.65-11.6 3.5-17.36 5.56-2.06.69-2.88 2.47-2.81 4.19v.27c.34.07.75.14 2.26.27 1.37.14 5.21.48 10.36.62 1.3-.41 2.61-.82 3.91-1.23-.07.41-.14.82-.21 1.3h2.88c1.72 0 3.57-.14 5.49-.27.27-2.2.55-4.46.69-6.72.21-2.68-2.81-4.67-5.21-3.98ZM147.88 89.11c-.82-.34-1.3-.48-1.3-.48s-1.37-3.29-1.85-4.39c-.48-1.03-1.03-1.1-1.44-.89-.41.14-1.44.41-1.44.41s.69 2.4.89 2.88c.21.48-.07 1.17-.34 1.23s-1.3.89-1.72-.34c-.48-1.23-1.03-3.09-1.03-3.09s-.75.27-2.06.62c1.03 1.03 2.13 2.06 3.22 3.09 1.17 2.68 5.21 3.43 7.07.96Z"/></g><path class="cls-11" d="M143.14 86.64c-.69-1.92-1.3-3.91-1.78-5.9-.21-.75-1.17-1.3-1.92-1.1-.82.27-1.23 1.03-1.1 1.92.41 1.99 1.03 3.98 1.78 5.9.14.41.34.69.69.89.34.21.82.27 1.17.14.82-.14 1.44-1.03 1.17-1.85Z" id="Layer_26"/><path class="cls-2" d="M185.2 139.2c-2.68-.55-9.74-4.25-12.83-5.69-3.02-1.44-10.29-6.31-12.56-8.16-2.26-1.85-5.01-4.39-7.34-4.32-2.33.07-7.75-1.65-9.95-5.56-2.13-3.91-3.91-7.62-3.57-11.05.34-3.43.48-5.76 3.43-7.96s5.56-3.64 8.85-3.22c3.22.41 6.59 1.92 10.29 3.36 3.77 1.37 11.8 8.78 14.75 11.6 2.95 2.81 12.69 11.94 14.55 15.03 1.85 3.09 3.43 6.24 4.25 9.26.82 3.02-.21 4.67-2.68 5.56-2.47.82-5.01 1.65-7.2 1.17Z" id="Layer_17"/><g id="Layer_12"><path class="cls-2" d="M196.79 133.03c-.55-2.74-1.92-5.35-3.43-7.68-1.92-2.88-4.12-5.56-6.38-8.1-4.53-5.01-9.54-9.54-14.55-14.13-3.22-2.95-6.52-5.76-10.5-7.68-3.29-1.58-7.07-2.88-10.7-3.16-3.22-.21-6.31.34-8.78 2.54-2.47 2.2-4.05 5.76-4.46 8.99-.55 4.19 1.3 8.58 3.57 11.94 1.17 1.72 2.61 3.29 4.32 4.46 2.06 1.44 4.53 1.92 7 2.2 1.3.14 1.3-1.92 0-2.06-2.06-.21-4.05-.69-5.83-1.85-1.44-.96-2.61-2.26-3.64-3.7-1.92-2.81-3.5-6.31-3.43-9.81.07-2.88 1.44-6.17 3.43-8.23 2.13-2.2 4.87-2.61 7.82-2.4 1.37.07 2.81.48 4.12.82 1.92.48 3.84 1.23 5.63 2.13 3.77 1.85 6.86 4.46 9.95 7.27 4.53 4.12 9.06 8.3 13.24 12.76 2.47 2.68 4.87 5.42 6.93 8.37 1.65 2.33 3.16 4.94 3.7 7.82.21 1.37 2.2.82 1.99-.48Z"/><path class="cls-2" d="M175.25 134.33c-3.43-3.16-7.96-4.67-11.73-7.27-3.43-2.4-6.11-6.17-10.63-6.59-1.3-.14-1.3 1.92 0 2.06 1.92.21 3.57 1.37 5.08 2.61 1.58 1.3 3.02 2.74 4.73 3.91 3.57 2.4 7.89 3.84 11.11 6.79.96.82 2.4-.62 1.44-1.51Z"/><path class="cls-2" d="M172.51 134.53c1.51 1.37 3.36 2.33 5.21 3.22 2.47 1.17 4.94 2.2 7.68 2.47 2.61.27 5.21-.27 7.62-1.37 1.72-.82 3.64-2.13 3.91-4.25.27-2.33-1.1-4.8-1.99-6.86-.55-1.23-2.33-.14-1.78 1.03.48 1.1 1.03 2.2 1.37 3.36.27.82.62 1.92.21 2.81-.41.89-1.37 1.44-2.26 1.92-1.23.69-2.68 1.1-4.05 1.3-2.88.41-5.69-.41-8.3-1.58-2.06-.89-4.39-1.99-6.04-3.5-1.1-.89-2.61.55-1.58 1.44Z"/></g><g id="Layer_25"><path class="cls-1" d="M152.68 117.66c.27-2.06.48-4.19.62-6.24-1.78.69-3.57 1.37-5.35 2.13 1.58 1.44 3.16 2.81 4.73 4.12Z"/><path class="cls-1" d="M196.18 132.61c-4.67-3.84-9.26-7.82-13.72-12.01-.96-.89-1.37-1.99-1.3-3.09-.14-1.51.41-3.16 1.99-4.12-2.95-2.95-6.38-6.11-10.29-10.15-6.79-6.86-14.96-10.22-21.47-10.36-6.59-.14-14.55 8.51-14 12.28.14 1.03.48 2.33.89 3.64.27-.21.62-.41 1.03-.62 5.56-2.4 11.25-4.67 16.95-6.79 2.4-.89 5.49.89 5.49 3.57 0 7.27-.75 14.41-2.2 21.54 0 .14-.07.21-.07.34 4.19 2.61 12.01 7.55 12.01 7.55s3.43-2.54 10.7-2.47c7.27.07 14.89 2.74 14.89 2.74 0-.41-.07-.82-.14-1.23-.34-.14-.55-.41-.75-.82Z"/><path class="cls-5" d="M159.19 101.63c-.93-.38-1.99-.45-2.95-.1-1.32.48-2.63.96-3.94 1.46-4.24 1.28-8.45 2.67-12.6 4.16-2.06.75-2.88 2.47-2.81 4.19-.14 1.03.21 2.13 1.1 3.16 4.12 4.46 8.37 8.78 12.83 12.97 1.37 2.95 6.59 3.5 7.75-.55.03-.12.06-.25.1-.37.23.14.47.28.73.44 0-.14.07-.21.07-.34.88-4.16 1.47-8.33 1.84-12.52.43-2.82.76-5.66.98-8.54.15-1.91-1.35-3.46-3.09-3.95Zm-10.87 11.75c1.66-.69 3.31-1.33 4.97-1.97-.04.68-.11 1.35-.16 2.02-.24 1.33-.49 2.67-.71 4-.28-.24-.56-.49-.84-.73-1.1-1.09-2.18-2.19-3.25-3.31ZM181.15 117.59c-.07 1.03.34 2.13 1.3 3.09 4.46 4.19 8.99 8.16 13.72 12.01.21.34.48.69.75.96-.75-4.8-4.32-9.54-8.1-14-1.72-2.06-3.57-3.98-5.69-6.11-1.58.89-2.13 2.47-1.99 4.05Z"/></g><path class="cls-10" d="m171 143.59-8.37 17.22-2.88 4.46s-6.66 4.39-6.86 4.73-3.57 1.3-5.28 2.33c-1.72 1.03-3.84 1.92-4.6 2.13-.75.21-1.17 1.44-1.17 1.44s3.5 1.17 3.84 1.44c.34.27-1.85 2.95-1.92 4.05-.07 1.1-.82 2.06-.75 2.68s2.88 8.71 2.88 8.71.96-1.03 1.03-2.13c.07-1.1-.21-4.87-.21-4.87s1.3 4.46 2.61 6.04c1.3 1.51 3.09 3.98 3.77 2.95.69-.96.55-3.98.55-4.6v-3.09s1.99 6.11 3.09 6.52c1.03.41 1.37.82 1.99-.34.55-1.17.82-2.74.69-3.22-.14-.48-.62-2.81-.62-2.81s1.65 4.73 3.57 2.81c1.92-1.85 3.02-3.57 2.13-3.7-.89-.14-1.3.55-1.03-.75s.14-2.47.62-3.29c.48-.82 1.51-1.65 1.3-2.81-.27-1.17-.34-1.37.55-2.61.89-1.23 2.33-3.98 3.16-6.45.82-2.47 9.26-9.13 9.88-9.74.62-.62 9.95-10.29 12.14-14.96 0 0-11.73-1.58-14.75-1.78-3.02-.27-5.35-.34-5.35-.34Z"/><g id="Layer_11"><path class="cls-2" d="M195.97 132.54c-.34-1.99-1.65-4.12-3.29-5.35-1.65-1.23-4.05-1.44-6.04-1.17-4.39.62-8.1 3.43-10.77 6.86-.82.89.62 2.4 1.44 1.37.08-.11.16-.21.25-.31l9.15-.78 7.41.3c.5.79 2.04.23 1.85-.92Z"/><path class="cls-11" d="M147.46 186.88c1.99 0 1.99-3.09 0-3.09s-1.99 3.09 0 3.09Z"/><path class="cls-4" d="M197.34 132.76s-.05-.01-.07-.01c-4.25-.55-8.51-.75-12.83-.55-2.13.07-4.19.27-6.31.55-2.13.27-3.98.48-5.83 1.37-.1.05-.18.11-.25.17-.14.08-.26.18-.36.31-1.3 1.72-2.47 3.57-3.5 5.49-.27.48-.55.96-.75 1.44-.27.48-.55 1.03-.62 1.58-.1.92.53 1.74 1.34 1.92.14.08.31.14.51.14 8.15-.07 16.3.55 24.32 1.85.14.09.31.14.52.14 1.58 0 2.33-1.44 2.95-2.61.75-1.37 1.37-2.74 1.92-4.19.55-1.44.82-2.95.89-4.46.07-1.38-.38-3.01-1.92-3.14Z"/><path class="cls-11" d="M161.32 188.74s.02 0 .02.02c-.15-.18-.15-.08-.02-.02Z"/><path class="cls-11" d="M190.14 144.35c-2.74 4.8-6.31 8.99-10.09 12.97-3.77 3.98-7.89 7.82-11.87 11.6-.21.2-.34.43-.41.65-.06.11-.12.24-.14.38-.14.69-.34 1.37-.62 1.99-.07.14-.14.34-.21.48-.04.08-.03.09-.02.07-.02.07-.06.15-.12.2-.14.34-.27.62-.48.96-.34.62-.69 1.17-1.1 1.72-.07.07-.14.14-.14.21-.14.14-.21.27-.34.34-.27.27-.48.55-.75.82-.49.49-.59 1.41-.18 1.99.02.19.02.39-.01.58-.06.32-.15.63-.27.95-.26.51-.52.97-.78 1.49-.22.36-.26.81-.14 1.22 0 .22-.02.46-.05.7-.11.52-.23 1.04-.42 1.56-.01.03-.03.05-.04.08-.27.37-.4.85-.25 1.31.18.54.6.93 1.09 1.08-.08.09-.17.2-.2.3l.14-.14-.14.14-.21.21-.21.21s-.08.06-.14.11c-.05.03-.11.07-.14.09-.07.07-.21.07-.27.14l.21-.07c-.07 0-.14.07-.14.07-.07 0-.21 0-.27.07.08 0 .14 0 .19-.01-.02 0-.02 0-.05.01h-.17s-.05-.03-.08-.05l.05.05c-.07-.07-.14-.07-.21-.14l-.21-.21c-.1-.14-.2-.29-.3-.44-.02-.49-.24-.97-.66-1.25v-.37c0-.21 0-.34.07-.55v-.48c.14-.82-.21-1.72-1.1-1.92-.75-.14-1.78.21-1.92 1.1-.21 1.58-.27 3.09-.07 4.67.13.87.27 1.67.66 2.4-.03.07-.02.09.01.03-.07.14-.16.3-.26.45l-.21-.21-.14-.14c-.14-.14-.21-.27-.34-.48-.21-.27-.34-.55-.48-.82-.07-.14-.14-.27-.21-.34 0-.07-.07-.14-.07-.27-.14-.34-.21-.62-.34-.96-.17-.5-.29-1.03-.44-1.54.05-.64-.24-1.3-.86-1.56v-.05c0-.82-.75-1.58-1.51-1.51-.89.07-1.51.69-1.51 1.51-.07.89.07 1.72.14 2.61.07.89.07 1.85.27 2.74.07.41.21.75.34 1.17.05.11.09.21.13.31-.52-.46-.97-.96-1.42-1.49-.02-.04-.04-.08-.08-.13-.02-.06-.06-.1-.09-.15-.29-.88-.57-1.8-.8-2.66-.14-.55-.27-1.03-.34-1.58-.07-.27-.07-.55-.14-.82 0-.14-.07-.27-.07-.34v-.21c-.07-.41-.14-.75-.48-1.1-.27-.27-.69-.48-1.1-.48h-.02c-.38-.45-1.02-.7-1.62-.55-.75.27-1.3 1.03-1.1 1.92.08.27.13.53.18.78-.15-.5-.29-1-.42-1.5.24-.59.49-1.15.79-1.82.34-.75.69-1.51 1.1-2.26.75-1.44 1.58-2.88 2.54-4.32.05-.08.09-.17.12-.26 2.99-2.56 6.06-5.01 9.24-7.38.67.56 1.76.65 2.31-.32 4.12-7.68 7.68-15.71 11.53-23.6.82-1.78-1.78-3.36-2.68-1.58-3.4 6.92-6.59 14.01-10.13 20.92-2.21 1.6-4.41 3.24-6.57 4.93-.01 0-.03 0-.04.01-.96.48-1.92.96-2.88 1.3-1.03.34-2.06.62-3.09 1.1-1.03.48-1.78 1.03-2.74 1.51-.96.41-1.99.69-2.95.96-.72.21-1.05.75-1.09 1.32-.09.36-.09.75 0 1.09.07.34.27.69.48 1.03.41.55.96 1.1 1.58 1.44.49.25.99.43 1.53.56-.79 1.56-1.5 3.15-2.15 4.79-.09.26-.08.54 0 .81-.01.19 0 .38.06.56.82 2.88 1.78 5.76 2.95 8.51.08.18.21.33.37.45.12.17.28.31.45.38.69.27 1.72.14 2.06-.62.21-.38.38-.78.51-1.2.1.14.22.27.35.38.6.78 1.26 1.48 2.02 2.12.14.14.34.27.48.34.05.02.11.03.16.05.53.27 1.11.64 1.69.71.89.14 1.72-.21 2.2-1.03.19-.29.31-.59.39-.9.14.14.28.29.43.42.75.62 1.65 1.03 2.61.75.82-.21 1.37-.89 1.78-1.58.4-.66.79-1.46.69-2.25a3.2 3.2 0 0 0 1.91-.08c1.1-.41 1.85-1.17 2.61-2.06.27-.34.55-.69.69-1.03.34-.69.48-1.3.34-2.06-.1-.61-.51-1.11-1.02-1.44.15-.66.23-1.35.25-2.04.79-1.45 1.42-3.01 1.15-4.64 1.79-2.02 3.09-4.51 3.73-7.17 8.08-7.66 16.83-15.4 22.44-25.19.89-1.65-1.78-3.22-2.74-1.51Zm-44.91 31.77h-.03.04Zm-.83-.06c-.2-.04-.39-.09-.58-.15-.02-.01-.04-.02-.07-.04.53-.17 1.05-.35 1.58-.58.19-.08.38-.17.56-.26-.22.35-.43.7-.64 1.05-.27.02-.55.02-.85-.02Zm13.37 16.33h.05c.13.07.07.07-.05 0Zm5.94-13.63s.02.07.02.11l-.02-.11Zm.17 8.9s.03 0 .04-.01c.11.01.21.05-.04.01Z"/></g><g id="Layer_7"><path class="cls-5" d="M35.97 118.41c-7.55-5.08-9.26-14.96-7.96-23.4.11-.67-.42-1.15-.96-1.25a.763.763 0 0 0-.27-.05l-15.92-.41c-.56 0-.88.38-.96.81v.01c-2.81 10.77.62 22.37 8.99 29.71.86.75 2.01-.14 1.75-.97 2.81-.62 10.78-2.36 13.81-3.02.17.12.32.25.49.36 1.1.75 2.13-1.03 1.03-1.78Z"/><path class="cls-5" d="M19.99 124.17c5.35-.89 10.7-2.06 15.92-3.57 1.3-.34.75-2.33-.55-1.99-5.21 1.44-10.57 2.68-15.92 3.57-1.3.21-.69 2.2.55 1.99Z"/></g><path class="cls-4" d="M58.34 163.01c-.14.34-20.51-18.04-24.36-21.47-3.84-3.43-13.79-13.31-13.79-13.31l16.33-4.67 6.45-1.78 4.94 3.77 33.62 27.17-13.38 6.11-9.81 4.19Z"/><g id="Layer_10"><path d="M59.78 169.11c-.41-.07-20.72-18.04-20.72-18.04l-27.44-26.41s-.92-.64-2.12-.68c.02-.63-.5-1.31-1.31-1.1-2.81.75-4.19 3.22-5.15 5.76-1.03 2.54-1.58 5.28-1.72 8.03a28.16 28.16 0 0 0 3.77 15.92c.08.13.17.22.26.3 1.14 1.57 3.04 2.6 4.95 2.85 2.54.41 5.21.14 7.82.07h.04c.07.01.15.01.23 0 2.67-.24 5.08-1.62 6.78-3.65 10.43 6.86 20.86 13.66 31.3 20.53.56.39 1.1.11 1.35-.36.32.17.53.26.57.22.34-.34 1.85-1.17 1.92-1.65.07-.48-.14-1.65-.55-1.78Z" style="fill:#ff8000"/><path class="cls-8" d="m59.09 170.01-.07-.07s0 .07.07.07Z"/></g><path class="cls-8" d="M91.55 156.28c-.48-1.99-2.68-3.29-4.19-4.46-3.77-3.09-7.55-6.18-11.32-9.33-7.41-6.11-14.75-12.21-22.3-18.11-4.15-3.27-8.37-6.33-12.65-9.39-.23-.22-.54-.34-.93-.28-10.63 1.92-21.2 4.6-31.42 7.89-.07.02-.14.05-.19.09-1.63.46-3.03 1.47-4.06 2.86-.21.27.21.62.48.48 1.55-.92 3.39-1.3 5.15-1.16 0 0 .07.07.13.07.07.07.14.07.21.14.07.07.14.07.21.14l.07.07c.55.49 1.05.98 1.64 1.47.14.11.27.24.4.36 11.45 11.64 23.3 22.88 35.56 33.64 2.96 2.61 5.98 5.17 9.04 7.73.36.45.64.99.64 1.54.07.89-.62 1.65-1.17 2.2-.07.08-.09.17-.08.26-.05.12-.02.26.08.36.06.06.13.09.2.09l.61.1c1.13.19 2.29.06 3.36-.36 9.46-3.79 18.8-8.01 27.83-12.71.08-.02.17-.05.25-.1 1.3-.75 2.88-1.85 2.47-3.57Z"/><path d="M60.71 163.46c-.1.34-20.71-18.19-24.56-21.64-3.85-3.46-13.92-13.39-13.92-13.39l16.44-4.68 6.48-1.76 5.02 3.8 33.9 27.4-13.52 6.17-9.84 4.1Z" style="fill:#e8f8f9"/><path class="cls-4" d="M61.67 25.34c-.38-.64-3.42.27-7.78 2.8-4.35 2.53-9.98 6.76-15.2 12.44a66.961 66.961 0 0 0-3.65 4.28c-.57.7-1.09 1.43-1.62 2.13-.26.35-.51.7-.75 1.06-.22.33-.44.65-.66.96-.01.06-.07.61-.28.42l-.17-.06-.1-.04-.05-.02-.18-.15c-.52-.43-1.01-.84-1.49-1.24-3.83-3.12-6.47-4.78-7.02-4.23-.55.55 1.1 3.19 4.2 7.03.39.48.8.97 1.23 1.49l.18.21.31.34.63.69c.44.47.88.96 1.33 1.45.47.5.94 1.01 1.42 1.53l.37.4s.06.07.09.09l.08-.1.15-.2.63-.83c.87-1.15 1.77-2.34 2.69-3.56.27-.33.54-.67.82-1.01.26-.31.52-.63.78-.95.54-.63 1.06-1.29 1.63-1.93 1.12-1.3 2.3-2.63 3.53-3.97 9.81-10.75 19.67-17.66 18.85-19.05ZM142.12 55.05c.02-.42-1.11-.71-2.36-1.76-.62-.52-1.28-1.22-1.77-2.13-.26-.44-.45-.94-.6-1.46-.06-.26-.13-.52-.15-.79l-.03-.2c0-.3.01-.4.02-.62l.06-1.13.09-1.21c-.69.13-1.38.25-2.06.37-.34.06-.67.13-1 .14-.24.02-.31.04-.47.04-.56.05-1.11.03-1.64 0-1.05-.06-1.99-.24-2.79-.44-1.59-.39-2.6-.83-2.84-.51-.22.27.42 1.31 2.1 2.3.83.49 1.92.93 3.2 1.17.64.12 1.33.2 2.04.2.16 0 .41-.01.5 0s0 .03 0 .03c0-.03.01.06 0-.06l.05.32c.05.43.17.82.29 1.22.28.76.63 1.46 1.06 2.05a7.429 7.429 0 0 0 2.92 2.42c2.03.89 3.41.39 3.38.05ZM156.5 126.51c-.48.61 2.5 3.76 6.65 7.04 4.15 3.28 7.91 5.44 8.39 4.83.48-.61-2.5-3.76-6.65-7.04-4.15-3.28-7.91-5.44-8.39-4.83Z"/></svg>