<?xml version="1.0" encoding="UTF-8"?>
<svg id="Illustration" xmlns="http://www.w3.org/2000/svg" viewBox="0 0 180 200">
  <defs>
    <style>
      .cls-1 {
        fill: #f3f3f3;
      }

      .cls-2 {
        fill: #fa7c07;
      }

      .cls-3 {
        fill: #edebe8;
      }

      .cls-4 {
        fill: #fff;
      }

      .cls-5 {
        fill: #ffa2af;
      }

      .cls-6 {
        fill: #ffc101;
      }

      .cls-7 {
        fill: #ff7800;
      }

      .cls-8 {
        fill: #c9c7c5;
      }

      .cls-9 {
        fill: #d7c2df;
      }

      .cls-10 {
        fill: #e1dcd6;
      }

      .cls-11 {
        fill: #603b5d;
      }
    </style>
  </defs>
  <path class="cls-9" d="m2.9,83.46c.12-3.59.36-7.19.87-10.74.35-2.45.69-5.02,1.46-7.38.19-.59.76-.74,1.22-.61,1.06-2.48,3.15-3.38,4.68-4.3,1.69-1.02,2.71-2.71,5.64-1.94,2.93.77,5.01,2.63,7.58,6.43,2.56,3.81,9.05,16.55,11.29,20.6,2.24,4.05,16.02,28.93,19.23,34.78,3.21,5.85,15.47,26.38,18.8,31.93,3.33,5.55,13.69,21.34,16.49,24.53,2.8,3.19,11.04,10.11,14.26,11.68,1.93.94,5.09,1.41,7.3,1.62,2.37-.74,4.74-1.48,7.11-2.24,1.16-.37,1.65,1.45.5,1.82-2.69.87-5.39,1.7-8.09,2.54-3.51,1.09-7.03,2.21-10.69,2.67-6.46.82-12.94-1.29-17.68-5.76-2.6-2.45-4.65-5.43-6.53-8.44-8.43-13.73-17.02-27.35-25.78-40.87-2.39-3.68-4.79-7.35-7.2-11.02-3.21.78-6.41,1.57-9.62,2.34-3.38.81-6.86,1.51-10.34,1.01-5.57-.79-10.31-4.56-13.37-9.14-3.59-5.37-5.01-11.88-5.92-18.18-1.03-7.07-1.44-14.23-1.2-21.37Z"/>
  <path class="cls-3" d="m78.38,39.69c-5.06-8.01-8.86-16.75-11.26-25.92-.68-2.6-1.24-5.22-1.69-7.87-.12-.7-.99-1.1-1.63-.92-.24.07-.43.19-.58.35-10.24,1.53-20.48,3.06-30.71,4.59-2.78.42-5.56.85-8.26,1.62-.99.28-1.12,1.33-.71,2.01,0,.02,0,.03,0,.05,1.42,9.39,4.08,18.55,7.86,27.27,1.06,2.46,2.22,4.87,3.47,7.24.79,1.51,3.07.17,2.28-1.33-.15-.29-.29-.58-.44-.87l28.24-4.47,9.89-2.47c.41.69.83,1.37,1.25,2.05.91,1.43,3.19.11,2.28-1.33Z"/>
  <path class="cls-11" d="m4.99,65.26c.49-2.72,1.14-5.47,2.52-7.9,1.42-2.48,3.54-4.4,5.86-6.02,5.36-3.77,11.86-5.2,18.2-6.34,7.46-1.34,14.93-2.63,22.4-3.94,7.51-1.32,15.02-2.64,22.53-3.96,3.78-.66,7.56-1.33,11.33-1.99,3.52-.62,7.12-1.24,10.7-.89,6.02.58,10.81,4.16,14.52,8.75,4.15,5.13,7.36,11.05,10.8,16.66,8.02,13.08,16.05,26.16,24.07,39.24,7.97,12.99,15.94,25.98,23.9,38.97,1,1.64,2.01,3.27,3.01,4.91,2.41,4.13,3.71,9.02,3.04,13.8-.32,2.26-1.11,4.48-2.42,6.36-1.5,2.16-3.56,3.72-5.79,5.07-9.83,5.96-20.46,10.68-31.16,14.84-6.11,2.37-12.29,4.53-18.51,6.58-.05.02-.11.03-.16.04-.09.07-.2.13-.33.17-4.71,1.44-9.74,1.69-14.45.09-4.63-1.58-8.63-4.68-12.01-8.16-3.53-3.64-6.38-7.83-9.23-12-3.13-4.59-6.18-9.24-9.16-13.94-5.91-9.31-11.53-18.8-16.99-28.38-5.23-9.18-10.27-18.46-15.38-27.7-4.34-7.85-8.69-15.7-13.02-23.55-.68-1.23-1.35-2.46-2.03-3.68-1.34-2.49-2.62-5.02-4.05-7.46-1.23-2.09-2.67-4.25-4.93-5.32-2.57-1.22-5.13.1-7.31,1.51-1.86,1.21-3.67.91-4.33,3.11-.11.6-.96,1.34-1.41,1.21-.5-.09-.42.55-.24-.08Z"/>
  <path class="cls-10" d="m164.09,150.71c-1.77-4.27-6.54-13.43-8.49-17.1-1.95-3.67-9.54-17.77-12.91-23.71-3.37-5.94-12.1-20.92-15.18-25.84s-13.22-20.38-16.02-24.26c-2.8-3.88-7.45-10.95-9.32-12.13-1.87-1.18-4.24-1.69-7.26-1.39-3.02.3-18.57,2.63-23.45,3.7s-17.33,3.9-20.94,4.93c-3.61,1.03-8.68,2.83-10.47,4.19-1.79,1.37-4.56,2.94-3.5,5.75,1.06,2.81,9.93,19.95,11.35,22.55,1.42,2.6,18.74,33.09,20.91,36.8,2.17,3.71,16.53,26.73,19,30.56,2.47,3.83,9.84,14.85,11.32,16.59,1.48,1.74,5.24,4.95,7.45,5.15,2.22.2,8.55-.92,11.7-1.98,3.15-1.06,9.23-3.17,9.23-3.17,4.15-1.53,17.01-6.51,21.11-8.32,4.1-1.82,9.21-3.82,11.7-5.83,2.49-2.01,5.55-2.24,3.78-6.51Z"/>
  <path class="cls-1" d="m138.88,157c3.49-.87,9.25-4.54,11.7-5.59s4.02-2.44,3.49-5.24-4.02-7.86-5.24-11c-1.22-3.14-21.3-37.18-24.09-42.25-2.79-5.06-13.17-20.71-15.75-24.06-2.58-3.35-4.15-6.14-6.94-6.84-2.79-.7-16.23,1.75-19.2,2.09s-18.5,4.54-21.3,5.24-6.98,2.97-8.38,3.84-1.92,2.97-.52,6.11,16.06,30.37,17.46,33.34,15.68,25.74,18.4,29.8,8.94,14.01,10.54,16.19,4.4,6.55,7.89,7.77c3.49,1.22,6.98.7,10.12-1.05s17.28-6.46,19.03-6.98,2.79-1.4,2.79-1.4Z"/>
  <path class="cls-2" d="m110.47,72.73s-3.93-5.11-5.11-6.81-2.56-3.4-6.32-3.01-14.24,1.96-21.31,3.4-16.35,3.54-21.08,5.89-4.58,3.67-3.27,6.55c1.31,2.88,3.54,6.81,3.54,6.81l53.55-12.83Z"/>
  <path class="cls-5" d="m148.84,74.54c5.2-.77,10.63,2.22,13.08,6.81.7,1.31,2.35,1.75,3.56.9l7.44-5.19c1.27-.88,1.4-2.71.27-3.77-2.35-2.19-6.18-5.44-9.13-6.36-6.22-1.94-15.48,2.13-15.48,10.2"/>
  <path class="cls-6" d="m125.6,35.17l3.27-20.13c.14-.87.92-1.49,1.8-1.42l12.19.89c1.23.09,1.96,1.41,1.38,2.5l-11.19,20.98c-.41.77-1.34,1.1-2.14.77l-4.26-1.74c-.73-.3-1.16-1.07-1.04-1.85Z"/>
  <path class="cls-7" d="m139.24,53.65c.06-.16.2-.5.05-.14.07-.16.14-.33.22-.49.16-.35.33-.7.51-1.04.35-.66.73-1.3,1.14-1.92.2-.3.4-.59.62-.88.1-.13.33-.42.09-.12.13-.16.26-.33.39-.49.48-.57.98-1.13,1.52-1.65s1.09-1.02,1.67-1.5c.06-.05.47-.37.27-.22s.21-.16.28-.2c.31-.23.63-.45.96-.66.65-.43,1.32-.82,2.01-1.17.32-.16.64-.32.97-.47.16-.07.33-.15.49-.22-.4.18.07-.02.22-.08,1.41-.55,2.88-.95,4.37-1.18.11-.02.21-.03.32-.05-.05,0-.31.03-.05,0,.22-.02.43-.05.65-.06.47-.04.93-.06,1.4-.06.43,0,.86,0,1.29.04.21.01.43.03.64.06.02,0,.37.04.13.01-.22-.03.2.03.24.04.88.15,1.74.39,2.58.69,0,0,.34.13.14.05s.12.05.13.06c.17.08.35.16.52.25.35.18.69.38,1.01.59.15.1.3.2.45.31.07.05.15.11.22.16-.02-.02-.27-.23-.09-.06.29.27.59.51.87.79.25.26.48.53.72.81-.25-.29-.01,0,.09.13.12.17.23.35.34.53.19.31.33.63.51.94.12.22-.03-.09-.04-.12.03.08.07.17.1.25.07.19.14.39.2.59.05.15.33.92.24,1.05,0,0-.04-.43-.02-.16,0,.09.02.17.02.26.01.2.02.4.02.6,0,.17,0,.34-.02.51,0,.02-.01.25-.02.26,0,0,.07-.43.02-.16-.07.37-.14.73-.24,1.09-.05.16-.11.33-.16.49-.13.4.14-.27-.04.11-.16.33-.33.66-.53.97-.04.07-.33.49-.17.26s-.21.24-.26.3c-.11.12-.23.24-.35.36-.06.06-.12.11-.19.17-.04.04-.33.27-.1.09s-.19.12-.26.17c-.14.09-.29.18-.44.25-.08.04-.55.23-.27.14s-.25.08-.34.1c-.15.04-.31.08-.46.12-.08.02-.16.02-.23.04-.26.07.21-.04.2-.02-.14.13-.83.04-1.02.03-.09,0-.59-.02-.25-.01s-.15-.03-.25-.05c-.34-.07-.67-.16-.99-.27-.22-.08-.42-.11-.07-.01-.15-.04-.3-.14-.44-.21-.31-.16-.62-.34-.91-.53-.14-.09-.27-.19-.4-.28-.2-.14.11.08.12.09-.06-.06-.13-.1-.19-.16-.27-.23-.53-.48-.77-.74-.11-.12-.22-.25-.33-.37-.27-.31.18.27-.06-.07-.2-.29-.4-.59-.57-.9-.08-.14-.15-.29-.22-.44-.04-.07-.07-.15-.1-.22,0,.01.14.38.07.15-.11-.36-.24-.7-.32-1.07-.04-.19-.08-.37-.11-.56-.08-.43.01.27-.02-.17-.03-.41-.05-.82-.04-1.23,0-.19.01-.38.03-.57,0-.09.06-.62.03-.37s.05-.28.07-.37c.04-.22.09-.44.14-.65.09-.37.2-.74.32-1.11.06-.18.13-.36.2-.54,0-.03.13-.33.03-.1s.06-.14.08-.18c.34-.74.74-1.45,1.18-2.13.11-.16.22-.32.33-.48.07-.1.35-.47.12-.18.26-.33.53-.65.82-.96.54-.59,1.11-1.13,1.72-1.65.1-.08.2-.16.29-.24.02-.02.27-.21.08-.06-.17.13.24-.18.31-.23.33-.24.68-.47,1.02-.69.67-.42,1.37-.8,2.08-1.14.17-.08.35-.16.52-.24.23-.11-.06.02-.09.04.09-.04.18-.07.26-.11.38-.15.77-.29,1.16-.42.75-.25,1.52-.45,2.3-.61.19-.04.37-.07.56-.11.09-.01.61-.1.36-.06s.28-.03.37-.04c.22-.02.44-.04.66-.06.79-.06,1.58-.07,2.37-.03.38.02.76.05,1.14.09.09.01.19.02.28.03-.03,0-.37-.06-.11-.01.22.04.44.07.66.11,1.13.21,2.43-.31,2.71-1.54.25-1.08-.33-2.49-1.54-2.71-7.48-1.38-15.72,1.16-20.69,7.05-2.55,3.02-4.35,6.89-4.2,10.91.15,3.81,2.09,7.22,5.33,9.25,3.01,1.88,7.09,2.2,10.07.06,3.22-2.32,4.66-6.34,3.95-10.2-.67-3.66-3.48-6.87-6.75-8.5-3.9-1.94-8.4-2.08-12.6-1.12-6.87,1.57-13.04,6.37-16.3,12.62-.45.86-.83,1.75-1.18,2.65-.42,1.07.46,2.46,1.54,2.71,1.27.29,2.26-.39,2.71-1.54h0Z"/>
  <path class="cls-2" d="m60.97,18.82c-1.19-.34-2.39-.45-3.59-.37-.08-.03-.17-.05-.27-.04-3.58.18-7.15.48-10.71.92-1.81.22-3.62.48-5.42.77-.87.14-1.73.29-2.6.45-.85.15-1.72.27-2.55.52-.66.19-1.26.58-1.53,1.24-.25.63-.08,1.35.47,1.77.57.43,1.4.53,2.09.58.79.05,1.59,0,2.37-.11,1.71-.23,3.41-.6,5.11-.92,1.75-.32,3.5-.65,5.25-.97,3.82-.71,7.8-1.21,11.4-2.75.43-.18.49-.94-.02-1.09h0Z"/>
  <path class="cls-8" d="m49.16,33.88c-3.95.39-7.89.76-11.84,1.17-.76.08-1.57.25-2.01.95-.17.28-.26.62-.21.94.06.44.45.61.83.74.73.25,1.51.2,2.26.1.93-.13,1.86-.3,2.78-.49,2.14-.44,4.26-1,6.34-1.68.8-.14,1.56-.37,2.27-.82.47-.3.03-.96-.42-.91h0Z"/>
  <path class="cls-8" d="m68.14,30.25c-3.95.39-7.89.76-11.84,1.17-.76.08-1.57.25-2.01.95-.17.28-.26.62-.21.94.06.44.45.61.83.74.73.25,1.51.2,2.26.1.93-.13,1.86-.3,2.78-.49,2.14-.44,4.26-1,6.34-1.68.8-.14,1.56-.37,2.27-.82.47-.3.03-.96-.42-.91h0Z"/>
  <path class="cls-4" d="m4.14,66.56c3.34-6.49,9.37-9.77,13.43-7.91,20.39,9.31,65.98,150.83,108.8,128.61-12.72,6.6-21.83,5.01-29.39.51-4.6-2.74-9.47-7.11-11.73-9.81-23.84-28.42-53.39-89.78-53.39-89.78-6.91-11.31-14.87-33.16-27.72-21.61Z"/>
</svg>