<svg id="Illustration" xmlns="http://www.w3.org/2000/svg" viewBox="0 0 200 200"><defs><style>.cls-1{fill:none}.cls-2{fill:#f2a6b0}.cls-3{fill:#f6c243}.cls-4{fill:#f75e28}.cls-5{fill:#fff}.cls-6{fill:#ffd066}.cls-7{fill:#fcb9c4}.cls-9{fill:#a0b4b5}.cls-10{fill:#a08675}.cls-12{fill:#5b3d5b}</style></defs><g id="Layer_22"><path class="cls-2" d="M48.13 64.74c-1.91-.87-3.92-1.36-5.96-1.52-.13-.07-.27-.13-.44-.14-6.07-.6-12.16-.98-18.26-1.13-3.11-.07-6.21-.09-9.32-.05-1.5.02-2.99.06-4.49.11-1.46.05-2.96.03-4.42.23-1.15.16-2.27.66-2.88 1.7-.58 1-.48 2.25.35 3.09.85.87 2.22 1.25 3.37 1.5 1.31.29 2.67.4 4.02.41 2.94.03 5.89-.16 8.83-.27 3.02-.11 6.06-.21 9.08-.33 6.61-.23 13.43-.09 19.88-1.78.78-.2 1.05-1.47.24-1.84ZM42.99 79.56c-7.67-.52-15.33-1.09-23-1.58-1.48-.09-3.08-.03-4.14 1.17-.42.48-.7 1.1-.71 1.74-.02.85.66 1.31 1.34 1.68 1.31.7 2.83.87 4.29.91 1.82.05 3.66.03 5.48-.03 4.24-.14 8.46-.54 12.66-1.17 1.57-.01 3.11-.19 4.6-.83 1-.43.38-1.82-.51-1.88Z"/></g><path class="cls-9" d="M196.98 145.28c-1.48-6.63-4.6-13.06-9.46-17.87-1.56-1.55-3.29-2.9-5.17-4.03-1.11-.82-2.29-1.56-3.53-2.19-3.51-1.78-7.35-2.81-11.27-3.18-4.8-.45-9.6.17-14.2 1.52-10.01 1.91-19.26 7.1-25.04 15.87-.03.05-.07.11-.11.17-2 2.72-3.51 5.76-4.54 8.97a36.32 36.32 0 0 0-2.45 10.14c-.92 10.14 3.04 20.17 10.12 27.4.13.13.27.25.4.38 3.35 4.12 7.65 7.46 12.51 9.62 6.74 3 14.3 3.86 21.56 2.6 6.91-1.2 13.36-4.47 18.61-9.09 11.3-9.96 15.81-25.71 12.56-40.3Zm-3.57 12.53c-.74 5.13-2.57 10.12-5.03 14.67-3.49 6.44-8.44 11.82-15.16 14.91-8.11 3.73-18.22 4.25-26.97 1.36-.3-.13-.6-.25-.9-.39-1.44-.7-2.84-1.46-4.2-2.31-3.81-2.41-6.64-5.7-8.7-9.69-2.11-4.08-3.53-8.55-4.45-13.04-.62-3.01-.95-6.07-1.05-9.13.17-1.54.37-3.08.58-4.61.52-3.67 1.3-7.38 2.86-10.76.11-.23.23-.46.35-.69.57-1.09 1.21-2.15 1.92-3.15 1.21-1.66 2.62-3.16 4.16-4.51.09-.07.19-.15.28-.21.08-.06.15-.13.21-.2 1.52-1.27 3.17-2.41 4.89-3.44.22-.13.44-.25.67-.38a39.32 39.32 0 0 1 5.98-2.54c.23-.07.46-.14.68-.2 7.36-2.06 15.27-1.8 22.51.63 3.47 1.17 6.83 2.84 9.74 5.07 3 2.31 5.28 5.22 6.95 8.61 3.03 6.15 4.83 13.11 4.69 20.01h-.01Z" id="Wheel1"/><g id="Top_leg_2"><path class="cls-2" d="M82.76 98.74c.24-.61.51-1.21.82-1.79.34-.84.56-1.08.67-.74.17-1.45 1.05-2.91 2.58-3.14h.11c2.32-.36 4.53.91 4.59 3.48v.03c.02.9-.23 1.62-.66 2.17-.29.56-.66 1.14-1.03 1.86-.99 1.9-1.36 4.07-1.22 6.2.05.82.19 1.61.39 2.37.35.21.7.42 1.05.62 2.46 1.4 5.08 2.54 7.75 3.51.99.36 1.99.68 3 .96.93.09 1.83.29 2.7.6 1.03.17 2.07.28 3.11.3 3.02.06 6.06-.49 8.97-1.23.05-.01.09-.03.13-.03.04-1.87.1-3.74-.42-5.48-1.03-3.47-4.39-4.11-7.52-4.41-11.03-1.07-15.91-12.58-13.46-22.3-2.06-.47-4.17-.75-6.27-.56-.62.05-1.24.15-1.84.27-1.03 2.41-2.71 4.48-5.31 5.98-.97.56-1.94.97-2.91 1.28-.16.57-.29 1.15-.36 1.74-.35 2.79.32 5.54 1.56 8.05.66 1.5 1.5 2.89 2.46 4.18.23-1.36.59-2.63 1.11-3.91Z"/><path class="cls-2" d="M102.76 93.43c3.05 4.57 8.58 2.82 13.01 5.16 4.28 2.26 6.61 6.28 7 11.03.01.17.03.35.04.53 1.7-1.95 2.14-4.41 1.1-6.88-1.1-2.62-3.11-4.73-5.08-6.7-4.06-4.03-8.22-8.19-13.32-10.88-1.37-.72-2.81-1.33-4.27-1.88-.81 3.23-.4 6.72 1.53 9.62Z"/><path class="cls-6" d="M86.21 81.43c-1.84.4-3.59 1.15-5.07 2.35-1.56 1.27-2.61 3-3.15 4.9.97-.31 1.94-.72 2.91-1.28 2.6-1.49 4.28-3.57 5.31-5.98Z"/><path class="cls-7" d="M107.79 104.02c3.14.3 6.49.94 7.52 4.41.52 1.74.46 3.61.42 5.48 2.39-.62 4.84-1.52 6.65-3.28.16-.15.3-.32.44-.48-.01-.18-.02-.36-.04-.53-.4-4.75-2.72-8.78-7-11.03-4.43-2.34-9.96-.59-13.01-5.16-1.94-2.9-2.35-6.38-1.53-9.62-1.36-.5-2.75-.95-4.13-1.36-.91-.27-1.83-.52-2.76-.74-2.45 9.72 2.43 21.23 13.46 22.3h-.01Z"/><path class="cls-6" d="M103.5 114.87c-.87-.31-1.78-.51-2.7-.6.89.24 1.79.44 2.7.6Z"/></g><g id="Lower_leg_2"><path class="cls-2" d="M101.03 137.16c-.07-1.99.29-3.95.93-5.82.68-1.96 1.82-3.99 1.68-6.14-.13-2.11-1.48-3.42-3.13-3.67-1.43 2.57-3.23 4.89-3.47 7.96-.13 1.72.22 3.44 0 5.17-.21 1.67-.77 3.27-1.58 4.74-.2.36-.15.71.01.99.08.2.21.38.42.48 2.21 1.15 4.51 2.1 6.87 2.87a15.67 15.67 0 0 1-1.73-6.59ZM110.66 123.18c.37 2.03.2 4.12-.31 6.12-.63 2.48-2.11 4.7-2.09 7.33 0 .85.13 1.66.36 2.41 1.35-1.91 2.71-3.82 4.06-5.73 2.13-2.99 4.3-5.96 6.32-9.02a12.48 12.48 0 0 1-3.04-5.92c-.68-3.24.27-6.8-.66-9.95-1.03-3.47-4.39-4.11-7.52-4.41-.3-.03-.59-.07-.89-.12-.42.44-.8.88-1.15 1.33-1.51 1.95-2.62 4.22-3.16 6.63-.19.86-.29 1.74-.37 2.64 4.08.93 7.61 4.14 8.44 8.69ZM122.78 109.63c.18 2.2.05 4.8.49 7 .38-.91.72-1.84 1.01-2.79.98-3.25 1.5-7.06.07-10.26-.23-.51-.53-.99-.87-1.43-.84-1.36-2.13-2.42-4.02-2.94a9.13 9.13 0 0 0-3.07-.28c3.9 2.31 6.02 6.16 6.4 10.69Z"/><path class="cls-7" d="M115.3 108.43c.93 3.15-.01 6.71.66 9.95.48 2.29 1.56 4.29 3.04 5.92l.42-.63c1.46-2.23 2.8-4.57 3.83-7.04-.44-2.2-.31-4.8-.49-7-.38-4.53-2.51-8.38-6.4-10.69-3.55.25-7.02 2.39-9.47 4.96.3.05.58.09.89.12 3.14.3 6.49.94 7.52 4.41ZM103.64 125.2c.13 2.15-1.01 4.17-1.68 6.14-.64 1.87-1.01 3.84-.93 5.82.09 2.4.72 4.61 1.73 6.59.44.14.89.3 1.33.42.17.05.33.05.47.03.27-.03.53-.16.72-.44l3.34-4.71c-.22-.76-.36-1.56-.36-2.41-.01-2.63 1.46-4.85 2.09-7.33.51-1.99.68-4.09.31-6.12-.83-4.55-4.35-7.76-8.44-8.69-.19 2.11-.29 4.24-1.24 6.14-.15.3-.31.6-.48.89 1.64.24 2.99 1.56 3.13 3.67h.02Z"/></g><path d="M97.55 157.32a9.925 9.925 0 0 1-1.39-2.78c-.03-.07-.01-.16.01-.23-.95-1.35-1.7-2.86-2.15-4.45-.02-.07 0-.13.02-.19.27-.97.81-1.87 1.37-2.69 0 0 .01 0 .01-.01a.12.12 0 0 1 .05-.05h.01s.05-.03.07-.03h.07c.33.03.66.13.99.15.48.04.98.05 1.46.02 1.08-.06 2.02-.46 2.76-1.26.78-.85 1.21-1.93 1.53-3.02.33-1.13.58-2.29.87-3.43 0-.01.01-.03.02-.04v-.05c0-.14.13-.25.27-.25.75.03 1.46.41 1.92 1.01 0 0 0 .02.01.03 2.33-.05 4.64.36 6.82 1.17 3.86-.68 7.77-1.04 11.66-1.56s.07-.02.1-.02c.7-.03 1.01.84 1.2 1.37.19.58.29 1.17.3 1.78 0 .09-.05.19-.13.25-.03.11-.09.21-.22.28-6.99 3.74-13.98 7.48-20.97 11.23-2.01 1.08-4.03 2.15-6.04 3.23-.36.19-.66-.15-.63-.46h.02Z" style="fill:#dd542a" id="Foot2"/><g id="Bike"><path class="cls-9" d="m68.78 104.05 8.47.88c1.22.13 2.5.39 3.73.23s2.03-.9 2.66-1.96c.67-1.13 1.29-2.29 1.89-3.47.53-1.03 1.14-2.21.39-3.29-.64-.91-2.07-1.13-3.06-1.37-1.38-.34-2.78-.57-4.18-.8-3.12-.53-6.25-.97-9.39-1.33-1.28-.15-1.27 1.86 0 2.01 2.96.34 5.92.76 8.86 1.25 1.45.25 2.91.49 4.34.85.24.06 1.75.31 1.85.58.09.23-.7 1.42-.81 1.62-.33.63-.66 1.25-1.01 1.87-.3.54-.6 1.3-1.05 1.72-.82.76-2.73.22-3.72.12l-8.95-.93c-1.29-.13-1.27 1.88 0 2.01Z"/><path class="cls-9" d="m146.96 105.16.9-.24c.82-.22 1.63-.44 2.13-1.19.43-.67.35-1.54.16-2.27-.22-.81-.73-1.58-1.61-1.76-.79-.17-1.57.09-2.33.26l-.52.12-2.45-9.84c.17-.04.35-.07.52-.11 1.95-.43 3.89-.9 5.82-1.41.82-.22 1.02-.93.86-1.57.27-.12.55-.21.83-.33.66-.29.82-1.26.48-1.84-.3-.51-.81-.61-1.32-.55-.28-.53-.89-.94-1.48-.73l-5.11 1.83c-1.67.25-3.31.61-4.91 1.16-.97.33-1.94.8-2.23 1.87s.34 2.15 1.4 2.44c.45.12.93.1 1.41.02.77 3.31 1.57 6.62 2.4 9.92l-.07.02c-.85.19-1.57.45-2.11 1.18-.4.55-.52 1.26-.56 1.93-.06 1.02.24 1.99 1.29 2.35.4.14.84.1 1.26 0 .52.02 1.02-.1 1.52-.24.2.77.41 1.55.61 2.32-3.78 1.24-7.43 2.8-10.93 4.65a183.744 183.744 0 0 0-30.41 17.74c-3.23 2.32-6.37 4.76-9.44 7.29-.29-.57-.58-1.15-.87-1.72-3.74-7.42-7.34-14.86-10.46-22.56-1.34-3.31-2.72-6.61-4.42-9.75.27.07.54.14.82.19 1.41.24 3.08-.02 4.12-1.19.22-.26.38-.56.44-.88.87-1.1 1.6-2.26 2.08-3.58.23-.63.32-1.35-.04-1.96-.43-.74-1.21-.94-1.99-1.12-1.15-.26-2.32-.44-3.49-.62-.11-.1-.25-.19-.43-.24-2.41-.66-4.8-1.36-7.18-2.12-2.37-.76-4.54-1.57-6.85-2.23-1.11-.32-2.24-.59-3.39-.77-1.07-.17-2.25-.38-3.33-.18-1.56.28-2.29 1.54-2.5 2.93-.13.64-.15 1.33-.12 2 .08 1.91.23 3.89 1.14 5.62.47.9 1.14 1.66 1.94 2.22 1.29 1 2.87 1.38 4.48 1.56 2.01.21 4.04.26 6.05.38.45.03.75-.21.88-.52.73-.06 1.47-.12 2.2-.16 0 .02.01.03.02.05l8.1 16.83-4.14 4.56c-2.86-2.46-6.13-4.43-9.7-5.7-4.6-1.64-9.56-1.88-14.4-1.56-9.29.61-18.62 2.61-26.01 8.58-2.45 1.98-4.6 4.29-6.42 6.83-1.04 1.05-2.01 2.17-2.82 3.4-1.45 2.19-2.4 4.69-3.12 7.2-1.56 5.41-2.4 11.1-2.21 16.73.34 9.99 4.2 20.17 12.09 26.62 6.63 5.42 15.13 7.71 23.57 8.12 5 .44 10.05.12 14.88-1.1.26-.06.51-.12.76-.19.05-.01.09-.02.13-.03.6-.16 1.21-.34 1.8-.56 1.38-.46 2.74-.99 4.06-1.62.21-.09.43-.17.64-.27 5.01-2.25 9.5-5.7 12.88-10.03 3.62-4.63 5.62-9.93 6.3-15.75.75-6.38 1.02-13-.17-19.35v.02c-.36-1.87-.89-3.69-1.55-5.45-.53-1.65-1.27-3.22-2.15-4.72-1.46-3-3.33-5.82-5.67-8.36 1.08-1.06 2.16-2.13 3.25-3.19l11.13 23.11 2.53 5.27c-2.57 1.84-4.23 4.92-3.82 8.26.17 1.42.68 2.78 1.55 3.92a2 2 0 0 0 .19.22c.99 1.49 2.48 2.63 4.34 3.01 3.08.64 6.06-.58 8.36-2.6 1.09-.96 2.04-2.15 2.44-3.57.02-.06.03-.12.04-.18.3-.6.52-1.23.62-1.9.21-1.38-.02-2.73-.58-4-.11-.24-.23-.47-.37-.7-.32-.69-.74-1.33-1.25-1.9-.75-.81-1.68-1.32-2.7-1.59.45-1.77.94-3.52 1.53-5.24a62.73 62.73 0 0 1 5.23-9.33 68.126 68.126 0 0 1 19.55-19.13c4.25-2.73 8.79-4.96 13.54-6.64 2.62 9.86 5.37 19.68 8.07 29.52 1.33 4.86 2.65 9.74 3.92 14.62.4 1.52 2.56 1.07 2.63-.28.08-.22.1-.47.03-.76l-12.35-49.48Zm-7.82-15.69h-.01l.02-.02v.02Zm-55.08 58.79c.37 5.1.42 10.23.01 15.32-.4 4.94-1.41 9.91-3.63 14.33-2.27 3.37-5.18 6.3-8.58 8.54-4.08 2.69-8.76 4.26-13.52 5.24-10.15 1.43-21.26-.2-29.64-6.34-8.34-6.1-12.32-16.35-12.56-26.44-.12-5.28.68-10.67 2.54-15.63 1.03-2.76 2.49-5.37 4.49-7.55 1.98-2.17 4.33-4.02 6.72-5.69 4.68-3.28 9.92-5.83 15.56-6.91 2.36-.45 4.77-.59 7.16-.48 4.65.43 9.1 1.82 13.28 3.91 1.99.99 3.93 2.08 5.83 3.22L56.7 146.3l-6.97 7.67c-1.04 1.14.36 2.77 1.51 2.2.21-.05.43-.17.62-.38 7.52-8.14 15.21-16.13 23.05-23.95 1.35.98 2.6 2.07 3.67 3.39 2.98 3.68 4.58 8.44 5.47 13.05Zm22.54 12.3c-.06.22-.14.43-.22.64-.13.3-.29.59-.46.87-.71.9-1.63 1.68-2.43 2.29-.2.16-.41.3-.63.43-.25.11-.5.21-.75.29-.61.19-1.27.3-1.91.26-.79-.12-1.54-.48-2.21-.9-.47-.38-.89-.82-1.25-1.28-1.29-1.64-1.54-3.59-.48-5.42.35-.6.8-1.1 1.32-1.53l1.94 4.02c.16.33.39.52.65.62.3.22.68.3 1.05.22.57.04 1.17-.23 1.4-.93.58-1.8 1.06-3.64 1.52-5.48.22.16.44.33.63.54 1.21 1.29 1.99 3.52 1.85 5.36Z"/></g><g id="Pelvis"><path class="cls-2" d="M107.42 81.1c.4-2.25 1.09-3.6.36-5.75-.73-2.11-1.93-3.9-3.72-5.24-1.77-1.32-3.98-2.06-6.14-2.41-2.41-.39-5.02-.58-7.38.14-.94.28-1.82.7-2.64 1.22-.4-.58-.82-1.15-1.29-1.68-1.43-1.62-3.37-3.36-5.6-3.58h-.12c-1.85-.44-3.76-.03-5.53.79-.2.09-.4.19-.59.3-.22.08-.45.15-.67.25-.95.39-1.8.91-2.55 1.54-.87.46-1.72.94-2.39 1.72-1.27 1.51-2.24 3.38-2.96 5.25-.54 1.07-1 2.19-1.36 3.34-1.18 3.71-1.58 7.79-1.31 11.66.25 3.75 1.27 7.63 4.04 10.33 2.78 2.71 6.97 4.63 10.87 4.69 2.12.03 4.12-.6 5.94-1.68 1.13-.67 2.23-.47 3.18-1.37.5-.12.86-.54 1.26-.78 1.68-1.03 2.98-2.03 4.22-2.91 3.39-2.43 5.41-4.65 7.93-7.32 1.04-.91 2.3-2.62 3.25-3.62 1.54-1.62 2.05-2.6 2.68-3.44.19-.25 0 .01 0 0 0-.84.54-1.4.55-1.46Z"/><path class="cls-1" d="M77.86 80.7c4.16-3.39 2.43-11.5 1.01-17.05-1.2.07-2.39.42-3.53.95-.2.09-.4.19-.59.3-.22.08-.45.15-.67.25-.95.39-1.8.91-2.55 1.54-.87.46-1.72.94-2.39 1.72-1.27 1.51-2.24 3.38-2.96 5.25-.52 1.05-.97 2.13-1.33 3.25 3.33 3.9 8.49 7.46 13.02 3.79Z"/><path class="cls-1" d="M80.73 87.45c-6.11 3.51-12.32 1.78-17.3-2.01-.03 1.08-.01 2.15.06 3.21.14 2.12.54 4.29 1.35 6.25 3.44-.09 6.87 1.18 9.46 4.01 1.38 1.51 2.23 3.07 2.72 4.67.46.06.93.09 1.39.1 1.03.01 2.03-.13 2.99-.4.03-.17.05-.35.07-.52.23-1.39.6-2.68 1.13-3.98.24-.61.51-1.21.82-1.79.34-.84.56-1.08.67-.74.17-1.45 1.05-2.91 2.58-3.14h.11c2.32-.36 4.53.91 4.59 3.48v.03c.01.71-.15 1.31-.42 1.8.74-.52 1.42-1.02 2.07-1.49.85-.61 1.62-1.21 2.32-1.8-2.7-5.84-2.4-13.39 1.27-19.03 2.54-3.9 8.81-.26 6.26 3.66-1.9 2.92-2.64 6.5-1.9 9.83 1.04-.91 2.29-2.62 3.24-3.61 1.54-1.62 2.05-2.6 2.68-3.44 0-.84.54-1.4.55-1.46.4-2.25 1.09-3.6.36-5.75-.73-2.11-1.93-3.9-3.72-5.24-1.77-1.32-3.98-2.06-6.14-2.41-2.41-.39-5.02-.58-7.38.14-.94.28-1.82.7-2.64 1.22-.28-.4-.58-.8-.89-1.18 1.11 7.54.65 15.6-6.26 19.56h-.02ZM106.87 82.56s.19-.25 0 0Z"/><path class="cls-6" d="M64.85 94.91c.62 1.51 1.5 2.91 2.7 4.08 2.45 2.39 6 4.17 9.48 4.6-.48-1.6-1.33-3.16-2.72-4.67-2.59-2.82-6.02-4.1-9.46-4.01Z"/><path class="cls-7" d="M102.86 79.77c2.55-3.92-3.72-7.55-6.26-3.66-3.67 5.64-3.97 13.18-1.27 19.03 2.11-1.77 3.72-3.52 5.61-5.52h.01c-.73-3.35 0-6.93 1.9-9.85Z"/></g><g id="Lower_leg_1"><path class="cls-2" d="M81.71 126.03c-.98-1.36-2.4-2.45-4.04-2.9-1.81-.48-3.62 0-5.21.92-2.76 1.62-4.64 4.46-5.28 7.56-.45 1.24-.5 2.51-.55 3.84-.06 1.5-.48 2.88-.79 4.35-.31 1.47-.4 2.97-.34 4.47.11 3.07.78 6.09.95 9.15.19 3.4-.11 6.81.68 10.16.1.42.38.63.69.7.37.24.83.35 1.27.4.84.1 1.68.18 2.53.27l5.09.54c.15.01.28-.01.41-.08.33-.05.61-.27.68-.72.68-4.57 1.46-9.12 2.34-13.65.85-4.41 1.88-8.77 2.8-13.16.82-3.89 1.23-8.43-1.23-11.85Z"/><path class="cls-1" d="M73.94 165.21c.66-2.9.35-5.89-2.04-8.09-1.47-1.35-3.46-1.67-5.37-1.26.03 2.6 0 5.19.6 7.74.1.42.38.63.69.7.37.24.83.35 1.27.4.84.1 1.68.18 2.53.27l2.31.25ZM74.76 150.21c2.07 1.33 3.59 2.98 4.65 4.84.24-1.33.47-2.67.73-4 .38-1.94.78-3.88 1.21-5.81-.67-2.52-1.99-4.84-4.1-7.24-3-3.41-6.32-6.71-8-11.01a11.82 11.82 0 0 0-2.06 4.62c-.45 1.24-.5 2.51-.55 3.84-.06 1.5-.48 2.88-.79 4.35-.31 1.47-.4 2.97-.34 4.47.05 1.44.23 2.86.42 4.29 2.98-.54 6.08-.12 8.84 1.66h-.01ZM81.71 126.03c-.98-1.36-2.4-2.45-4.04-2.9-.66-.17-1.31-.22-1.95-.17.93 4.41 4.76 7.73 7.78 11.25.24-2.88-.07-5.8-1.79-8.19Z"/><path class="cls-7" d="M71.9 157.11c2.39 2.19 2.7 5.2 2.04 8.09.93.1 1.85.19 2.78.3.15.01.28-.01.41-.08.33-.05.61-.27.68-.72.48-3.23 1.03-6.44 1.61-9.66-1.06-1.86-2.59-3.51-4.65-4.84-2.76-1.78-5.85-2.2-8.84-1.66.21 1.62.44 3.24.54 4.87.05.8.06 1.62.07 2.42 1.91-.41 3.9-.09 5.37 1.26Z"/></g><g id="Top_leg_1"><path class="cls-2" d="M77.55 80.99c-1.54.03-3.06.44-4.44 1.14 1.48.18 2.99-.13 4.44-1.14ZM88.62 106.81c.06.9.21 1.76.45 2.6.37-2.73.56-5.5.52-8.26-.8 1.77-1.1 3.73-.97 5.67ZM84.7 84.07c-.97 1.29-2.21 2.41-3.8 3.33-4.63 2.66-9.32 2.31-13.48.34-1.29 2.18-2.15 4.65-2.62 7.14 3.51-.15 7.04 1.11 9.67 4 5.63 6.16 2.51 13.12 1.21 20.21-1.13 6.16 3.45 10.21 7.2 14.45 1.11-1.84 1.71-3.91 2.24-6 .61-2.41 1.23-4.84 1.82-7.27-2.41-2.87-4.28-6.21-5.08-9.9-.54-2.53-.64-5.08-.23-7.63.23-1.39.6-2.68 1.13-3.98.24-.61.51-1.21.82-1.79.34-.84.56-1.08.67-.74.17-1.45 1.05-2.91 2.58-3.14h.11c.66-.11 1.3-.07 1.89.07-.05-.26-.08-.52-.13-.78-.6-3.06-1.84-6.16-4.01-8.28Z"/><path class="cls-2" d="M70.39 110.41c.54-2.74.36-5.69-2.13-7.44a5.267 5.267 0 0 0-3.82-.9c.06.78.15 1.58.26 2.35.41 2.79 1.48 5.5 1.39 8.35-.09 2.95-1.01 5.82-1.38 8.74-.36 2.78-.35 5.65.45 8.36 1.35 4.56 5.32 8.67 10.35 8.4.21.02.42 0 .61-.05.38-.05.75-.13 1.12-.23-3.08-3.49-6.5-6.87-8.12-11.34-2.04-5.61.2-10.72 1.28-16.24Z"/><path class="cls-7" d="M86.99 67.88c-.13-.17-.27-.34-.41-.5-1.43-1.62-3.37-3.36-5.6-3.58h-.12a7.09 7.09 0 0 0-2-.16c1.43 5.55 3.16 13.66-1.01 17.05-.67.55-1.34.93-2.03 1.18-.9.3-1.81.37-2.71.26-.04.02-.07.04-.11.06-3.04-.35-5.99-2.75-8.16-5.29 0 .03-.02.06-.03.09-.86 2.69-1.29 5.58-1.37 8.44 4.08 3.1 8.97 4.81 13.96 3.42 1.17-.31 2.34-.79 3.5-1.46 1.59-.91 2.83-2.04 3.8-3.33-.03-.03-.06-.05-.09-.08 3.15-4.31 3.22-10.36 2.38-16.11ZM75.73 122.98c-.26-1.21-.31-2.5-.05-3.9 1.3-7.08 4.42-14.05-1.21-20.21-2.64-2.88-6.16-4.14-9.67-4-.1.53-.19 1.06-.25 1.59-.23 1.86-.25 3.75-.11 5.61 1.29-.19 2.64.07 3.82.9 2.49 1.75 2.67 4.69 2.13 7.44-1.08 5.51-3.32 10.62-1.28 16.24 1.62 4.47 5.04 7.85 8.12 11.34 0 0 .02.02.02.03 2.11 2.4 3.43 4.71 4.1 7.24.53-2.46 1.08-4.91 1.6-7.36.25-1.18.46-2.41.56-3.66-3.02-3.53-6.85-6.85-7.78-11.25ZM88.84 93.14c-.05-.01-.11-.02-.17-.03-.02 0-.05 0-.07-.01a4.55 4.55 0 0 0-1.65-.04h-.11c-.21.04-.4.1-.59.18-1.2.4-1.92 1.6-2.11 2.84-.03 0-.07.02-.11.07-.12-.09-.31.19-.6.86-.31.58-.58 1.18-.82 1.79-.54 1.3-.9 2.59-1.13 3.98-.03.17-.05.35-.07.52.06-.02.11-.04.17-.05-.32 2.38-.21 4.76.3 7.12.8 3.68 2.66 7.03 5.08 9.9.82-3.41 1.56-6.84 2.06-10.3.03-.18.05-.37.07-.55-.1-.34-.17-.69-.24-1.04l-.06-.26c-.07-.42-.13-.85-.16-1.29v-.14c-.01-.2-.02-.41-.02-.61v-.75c0-.16.02-.31.04-.47 0-.09.01-.18.02-.27.02-.17.04-.35.07-.52l.03-.2c.03-.18.07-.37.11-.55.01-.06.02-.11.04-.17.04-.19.09-.37.15-.56.02-.05.03-.11.05-.16.06-.18.11-.36.18-.54.02-.06.05-.13.07-.19.06-.16.13-.32.19-.48.09-.2.18-.4.28-.6.38-.72.74-1.29 1.03-1.86.42-.55.68-1.27.66-2.17v-.03c-.04-1.84-1.19-3.02-2.69-3.4Z"/></g><path class="cls-4" d="M59.88 169.72c.61-.85 1.35-1.59 2.19-2.2.07-.05.15-.07.23-.06.97-1.33 2.17-2.53 3.53-3.45.07-.05.13-.05.18-.04 1-.05 2.03.17 2.99.44 0 0 .01 0 .02.01.03 0 .05.02.07.03h.01s.03.05.05.07c0 0 0 .01.01.03 0 .01.01.02.02.04.08.32.09.66.17.99.11.47.27.94.44 1.39.4 1 1.09 1.76 2.08 2.21 1.05.46 2.21.53 3.35.49 1.18-.05 2.35-.17 3.53-.27h.04s.03-.02.04-.02c.14-.04.28.05.32.18.21.72.08 1.52-.34 2.13 0 0-.01.01-.02.03.79 2.19 1.13 4.51 1.06 6.84 1.88 3.45 3.47 7.04 5.2 10.56s.04.06.05.09c.25.66-.47 1.23-.92 1.58-.48.37-1.02.65-1.6.85-.09.03-.19 0-.27-.05a.435.435 0 0 1-.34-.12c-5.77-5.43-11.55-10.86-17.32-16.3l-4.99-4.69c-.3-.27-.07-.67.24-.74h-.02Z" id="Foot1"/><g id="Top_arm"><path class="cls-3" d="M134.99 67.54c-.94-4.1-1.92-5.28-3.95-7.18-1.28-1.24-2.63-2.42-3.95-3.62.25-.83.51-1.69.76-2.58 1.11-3.85 1.91-9.07 1.8-11.99-.1-2.68-2.15-4.72-3.84-6.65-1.62-1.86-3.33-3.81-5.73-4.63-.39-.13-.82-.07-1.19.12-17.58-.32-32.46 11.61-43.36 24.31-3.25 3.79-6.25 7.79-8.97 11.97-.36.54-.34 1.07-.11 1.5.1.36.34.69.78.93 12.32 6.56 24.68 13.06 37.34 18.96.02.01.05.01.07.03.45.28 1.09.42 1.62-.03 4.21-3.53 8.37-9.05 12.06-14.16.74.5 1.49.98 2.23 1.45 2.44 1.52 5.51 1.55 8.82.9 3.31-.65 6.62-4.96 5.62-9.33Z"/><path class="cls-5" d="M100.87 49.66c-.1 0-.32.07-.25.11.02-.04.62-.02.25-.11ZM100.29 50.16c1.5-.11-.06-.02.42-.24-.56-.24-.11.35-.42.24ZM101.31 55.14l.03-.05s-.03.03-.03.05ZM102.39 58.12s-.05-.01-.09 0c.03 0 .06.01.09 0ZM102.25 58.79v-.04c-.03.03-.04.05 0 .04ZM101.31 55.14l-.08.12c.11-.04.07-.07.08-.12ZM101.35 50.59s-.06-.01-.11-.01c.04.03.07.03.11.01ZM100.53 53.95c.03-.06-.15.02-.16 0h.16ZM100.13 52.95s.3-.07.44-.1c-.24.04-.27.01-.44.1ZM100.17 51.16h-.05.05ZM100.73 54.69l-.1.05c.04-.01.07-.03.1-.05ZM120.94 75.19l-.03.05s.03-.04.03-.05ZM121.19 77.18s-.1.15-.11.16l.11-.16ZM102.35 59.86s-.03 0 0 0ZM107.63 67.4c.15-.26.39-.1.54-.42-.09.09-.48.21-.54.42ZM101.31 50.62s.01.03.01.04c0-.02 0-.03-.01-.04ZM108.17 66.98v-.03.03ZM103.65 61.79s.08-.06.11-.09c-.03.02-.06.04-.11.09ZM103.2 60.08l-.02.06s.02-.05.02-.06ZM104.49 62.32s-.02.11.03.04c-.04.02-.07 0-.03-.04ZM104.99 63.09s.08-.05.01-.06c0 0-.02.09-.01.06ZM118.62 73.9c-.03.09-.08.17-.13.26.11-.19.27-.19.13-.26Z"/><path class="cls-5" d="M101.18 50.63c.08-.02.12-.02.14-.01-.02-.05-.13 0-.14.01ZM106.65 61.02l.03.14s0-.1-.03-.14ZM113.69 70.03h.05s-.02-.02-.05 0ZM106.95 61.48c-.09.09-.21.25-.06.15 0 0 .08-.17.06-.15ZM115.81 74.72s.04-.06.05-.08c0 .02-.12.08-.05.08ZM101.35 55.09s.05-.02.04-.02c-.01 0-.03.02-.04.02ZM114.02 70.11l-.05.06s.09-.04.05-.06ZM101.86 53.32s.05-.03.07-.05c-.02 0-.05.03-.07.05ZM101.72 52.71l.08-.12c-.05.05-.07.09-.08.12ZM101.72 52.2l-.13.03.13-.03ZM105.06 59.02h.02-.02ZM103.37 57.33h.17s0-.08-.17 0ZM106.65 61v.01ZM103.57 57.43c.04-.07.01-.09-.04-.1 0 .04-.02.09.04.1ZM101.26 50.16s-.01-.02-.05-.01h.05ZM101.22 50.15h-.04.04ZM101.08 50.1l.09.03s0-.04-.09-.03ZM101.29 50.81l.11-.03s-.06.01-.11.03ZM101.38 50.99c.05-.08.27-.27.03-.2.17-.02-.22.22-.03.2ZM100.23 52.2c.14-.4-.17.05-.27-.1-.3.32.25-.12.27.1ZM100.23 52.75c-.09-.07-.17.05-.24.07.13.02.15.02.24-.07ZM101.55 56.27l-.27.11c.07.05.11-.05.27-.11ZM103.22 56.31l.14-.13c-.05.06-.45.04-.14.13ZM101.5 57.55c-.15-.05.09.04.09.05l-.09-.05ZM104.66 63.11l.29-.21c-.08 0-.42.21-.29.21ZM106.52 65.17c-.13.13-.17.26 0 .19-.01-.07.06-.19 0-.19ZM111.53 71.74l-.12.05s.19.03.12-.05Z"/></g><path class="cls-3" d="M152.61 74.78c.13-.47-.02-1-.36-1.35-.11-.16-.27-.31-.5-.42-4.15-2.11-8.08-4.61-12.17-6.82-.99-.62-1.99-1.25-2.97-1.88-3.39-2.16-7.01-3.78-11.09-4.07-3.66-.25-6.68 1.63-7.83 5.1-1.12 3.41.29 6.93 2.45 9.61 2.5 3.09 5.89 4.96 9.52 6.38.78.33 1.57.62 2.36.88 4.74 1.56 9.75 2.21 14.69 2.88h.05c.44.09.91-.01 1.25-.3h.01c.05-.05.11-.11.15-.16l.1-.13c.01-.02.03-.04.05-.06l.03-.04s.01-.02.01-.03c1.75-3.04 3.27-6.22 4.23-9.6Z" id="Forearm"/><g id="Hand"><path class="cls-10" d="m148.89 82.84 2.81-7.12s7.49 1.83 9.52 2.58c2.03.74 2.51 1.64 2.16 2.65-.36 1.01-.48 1.8-2.37 3.59-1.89 1.79-3.95 3.32-4.82 3.78-.87.46-3.99-.23-4.49-1.09s-.45-2.69-.45-2.69l-2.36-1.7Z"/><path class="cls-12" d="M164.53 78.16c-1.28-1.21-3.02-1.98-4.7-2.45-1.86-.52-3.81-.7-5.74-.86-.92-.42-1.87-.78-2.85-1.01-.39-.09-.81-.05-1.16.15-.32.18-.61.54-.69.9-.09.39-.07.82.15 1.16.21.32.52.6.9.69h-.01c.7.16 1.37.38 2.03.65.04.02.09.04.13.06.17.11.36.17.56.18h.04c.21.11.46.19.71.21 1.8.15 3.57.32 5.31.82.82.24 1.59.55 2.32 1 .24.14.51.43.77.57-.04.06-.07.13-.09.16-1.7 2.93-4.22 5.26-7.21 6.83-.58-.24-1.15-.47-1.73-.71-.2-.09-.39-.18-.57-.27.1.04.2.08.29.11.1.04.21.07.32.09.22.05.45.07.68.1.1.01.21.01.31.01.23 0 .46-.04.68-.07.11-.01.21-.04.32-.07.37-.1.71-.37.9-.69.11-.17.17-.36.18-.56.05-.2.03-.4-.03-.6-.12-.36-.34-.72-.69-.9-.35-.18-.76-.26-1.16-.15l-.13.03H154.09c-.1-.13-.22-.25-.37-.33-.17-.11-.36-.17-.56-.18-.13-.03-.26-.03-.39-.01-.16-.07-.32-.14-.49-.16-.21-.03-.46-.09-.69-.06-.04 0-.07 0-.11.01-.03-.09-.06-.17-.11-.25-.25-.45-.66-.85-1.13-1.07-.75-.36-1.58-.44-2.39-.58-.41-.07-.79-.07-1.16.15-.32.18-.61.54-.69.9-.09.39-.07.82.15 1.16.2.31.52.63.9.69.51.08 1.05.14 1.56.27 0 .3.07.61.22.88.03.06.08.11.12.16-.05.15-.09.32-.07.49.04.44.11.77.28 1.17.17.4.37.68.64 1.01.4.49.97.87 1.53 1.15 1.16.58 2.41 1.02 3.6 1.51.34.14.87.02 1.16-.15.17-.1.35-.28.49-.47 2.92-1.53 5.44-3.77 7.34-6.48.48-.68.97-1.4 1.29-2.18.46-1.08.17-2.2-.68-3Z"/></g><g id="Head"><path class="cls-10" d="M127.31 38.52c-.05-.11-1.65-2.72-2.8-3.74s-3.16-2.55-3.12-2.66 1.93-5.98 1.93-5.98.09-2.13 0-3.13.4-1.47 1.26-1.86 5.9-1.14 7.6-1.37 7.18-1.29 7.18-1.29-.32 6.06-.45 8.06c-.13 2.01-1.98 6.4-2.74 7.53s-.96.91-2.49 1.29c-1.54.38-3.62.36-3.62.36l-2.74 2.8Z"/><path class="cls-12" d="M140.33 18.99c-.09-.81-.63-1.51-1.51-1.51-.75 0-1.6.69-1.51 1.51.52 5 .04 10.53-2.81 14.81-.03.03-.06.07-.09.1-.04 0-.08.02-.12.02-.48.03-.97 0-1.45-.02-.56-.03-1.13-.07-1.69-.14-.1-.01-.19-.03-.29-.05-.15-.04-.31-.05-.47-.04h-.04a.85.85 0 0 0-.22.04c-.02 0-.04 0-.06.01-.39.11-.74.35-.93.71a26.786 26.786 0 0 1-2.66 3.36c-.27.29-.44.66-.44 1.07 0 .37.17.81.44 1.07.27.25.66.46 1.07.44.4-.02.79-.15 1.07-.44.92-.99 1.77-2.05 2.55-3.15.15.01.29.03.44.04.52.05 1.03.07 1.54.1.41.02.83.04 1.24 0 .93-.09 1.81-.42 2.41-1.17.04-.05.07-.1.11-.15.04-.05.09-.1.13-.16 3.21-4.69 3.89-10.94 3.31-16.47ZM123.96 27.17c-.21-1.62-.38-3.25-.49-4.88-.03-.4-.15-.77-.44-1.07-.26-.26-.69-.46-1.07-.44-.77.03-1.57.66-1.51 1.51.11 1.55.26 3.09.46 4.63-.11.44-.23.88-.38 1.31-.09.26-.19.52-.3.78-.01.04-.03.06-.03.08 0-.02.03-.07.07-.15-.03.07-.05.13-.08.19l-.15.33c-.47.99-1.04 1.93-1.7 2.8-.22.29-.24.83-.15 1.16s.37.73.69.9c.35.19.77.27 1.16.15.39-.12.65-.36.9-.69 1.32-1.76 2.29-3.79 2.84-5.92.12-.22.21-.46.18-.7ZM120.21 29.1s0 .02 0 0Z"/><path class="cls-4" d="M144.84 17.01c0-.1 0-.19-.03-.3-1.03-5.89-5.66-11.11-11.66-12.13-3.12-.53-6.37-.09-9.15 1.48-2.7 1.53-4.75 3.96-5.92 6.82-1.27 3.09-1.6 6.52-1.13 9.81.1.72 1.01 1.11 1.65.94.76-.16 1.54-.33 2.3-.49.37 1.92 1.64 3.59 3.57 4.25.4.13.8.21 1.21.22a36.72 36.72 0 0 0 5.53 12.12c.42.59 1.17.87 1.84.48.58-.34.9-1.24.48-1.84a34.782 34.782 0 0 1-5.25-11.44c.85-.52 1.52-1.31 1.85-2.3.38-1.12.18-2.31-.14-3.43 4.63-.97 9.26-1.92 13.92-2.79.8-.15 1.05-.8.93-1.42Zm-18.75 7.53s.02 0 .04-.01c-.01 0-.03.01-.04.01Zm-1.54-.38-.05-.05s.03.02.05.04Zm1.63-2.13s.09.03.13.04c.06.03.11.06.17.09.01 0 .02.01.03.02a.317.317 0 0 1-.05-.06c.08.09.19.17.28.26l.02.02c.04.07.09.13.13.2.02.03.04.07.05.11l.06.21c0 .11.01.25 0 .35-.03.08-.04.2-.06.27-.01.05-.03.09-.05.15-.07.13-.15.25-.22.38-.04.04-.07.08-.11.11-.05.05-.11.1-.16.15-.03.02-.05.04-.09.06-.01.01-.09.06-.15.09h-.03l-.09.03c-.05.01-.07.01-.08.02h-.15c-.17 0-.34-.03-.5-.05h-.02c-.12-.03-.24-.04-.36-.07-.01 0-.07-.01-.13-.03h-.01s-.02-.01-.03-.02l-.17-.17-.03-.03c-.07-.12-.14-.23-.21-.36-.02-.07-.05-.13-.06-.21l-.03-.12v-.31s.01-.09.02-.11l.06-.21c.03-.05.05-.09.08-.14-.01.01-.03.03-.05.04.02-.01.04-.04.06-.07v-.02s.05-.05.06-.05c.01-.01.03-.03.03-.04l.07-.06c.11-.09.09-.08-.05.03.03-.07.25-.16.32-.19.03-.02.12-.07.19-.11.35-.08.7-.15 1.06-.23h.04Z"/><path class="cls-4" d="M126.51 22.19c.11.12.09.07 0 0ZM124.51 22.63s-.04.04-.06.07v.03s.07-.08.06-.09Z"/></g><g id="JET_backpack"><path d="M95.94 23.62s-.01-.02-.03-.03c-2.94-2.92-6-5.7-9.17-8.35.65-.87 1.24-1.78 1.72-2.76.58-1.18 1.26-2.59 1.19-3.94-.08-1.65-1.25-3.15-3-3.14-1.52 0-2.62 1.07-3.57 2.11-.85.94-1.63 1.94-2.33 2.99a146.87 146.87 0 0 0-9.5-6.55c-.32-.2-.62-.19-.88-.07-.15.04-.3.11-.43.23-9.44 8.34-18 17.62-25.57 27.67-2.14 2.84-4.23 5.73-5.73 8.96-.11.25-.13.49-.07.7.05.74.87 1.48 1.4 1.94 1.13.99 2.26 1.96 3.41 2.92 2.21 1.84 4.48 3.61 6.79 5.32 2.33 1.72 4.7 3.37 7.12 4.96 2.49 1.63 5.01 3.28 7.74 4.49.07.03.15.05.22.07.36.31.87.38 1.27-.09 7.94-9.45 15.97-18.83 23.82-28.36 2.07-2.51 4.07-5.1 5.81-7.85.31-.49.13-.96-.21-1.23ZM49.06 44.79v.01c-.02-.06-.06-.17.01-.01Zm-.02.02s-.07.03 0 0Zm.01.01v-.02h.01l.03.06c-.01 0-.03-.03-.05-.05ZM86.66 8.65v-.07c0 .03.01.06 0 .07Zm-2.56 2.33s.02-.03.03-.03c.04-.05.08-.1.11-.15.11-.14.23-.29.35-.43.21-.25.42-.49.63-.73.21-.23.42-.46.64-.68.09-.09.19-.17.27-.26.04-.03.07-.05.08-.07l.11-.08c.07-.04.18-.09.2-.1.01 0 .03 0 .05-.01.01.01.02.03.03.03 0 .02.01.04.02.07v.3c-.01.06-.03.12-.04.17-.07.31-.18.61-.29.91-.05.13-.1.26-.15.4a13.574 13.574 0 0 1-.97 1.87c-.16.27-.33.53-.5.78-.09.13-.17.25-.27.38-.42-.34-.85-.66-1.27-1 .31-.46.62-.91.95-1.36h.02Z" style="fill:#ff8000"/><path class="cls-5" d="M75.34 36.12c.04-.15.27-1.78.17-4.11 0-.05 0-.11.04-.17.99-1.63 1.51-2.8 1.51-2.8.09-.2.04-.44-.12-.59l-1.11-1.04-.03-.03c-.14-.11-.34-.07-.45.07l-.31.42s-.02.01-.03 0v-.01c-.25-1.19-.6-2.43-1.1-3.67-.09-.24-.25-.46-.47-.62a1.28 1.28 0 0 0-.74-.26c-6.12-.48-11.54 2.04-11.79 2.21-.07.03-.12.09-.17.15-.14.19-.13.46.02.64l1.04 1.12c.13.16.15.4.05.58-.15.22-3.43 5.17-4.04 6.63-.09.21-.02.46.17.6l2.09 1.48.05.04c.07.05.18.04.23-.04.27-.44.92-1.44 1.6-2.48.02-.03.04-.06.05-.09.06-.09.07-.2.03-.3-.2-.48-.17-1.06.14-1.52 1.17-1.72 2.56-3.69 3.76-5.14.1-.12.27-.15.41-.05s.17.29.07.42v.02h-.01c-.8.97-1.68 2.16-2.53 3.35-.11.16-.07.38.09.5s.38.07.5-.09c.85-1.2 1.74-2.4 2.54-3.37.1-.12.27-.15.41-.05s.17.29.07.42v.02c-.81.97-1.69 2.15-2.53 3.33-.11.16-.07.38.09.5s.38.07.5-.09c.85-1.2 1.73-2.39 2.53-3.35.1-.12.27-.15.41-.05s.17.29.07.42v.02c-1.18 1.41-2.52 3.3-3.66 4.98h-.01l-.02.04h-.01c-.33.46-.85.69-1.36.68a.32.32 0 0 0-.25.11s-.21.23-1 1.53c-.34.57-.57.97-.67 1.15-.04.07-.02.15.05.21l.11.08c.23.17.48.35.72.53l.05.03.05.03c.32.23.62.46.91.67l.68.51c.07.05.15.04.21-.02 1.23-1.34 1.87-2.14 1.87-2.14.05-.07.04-.17-.03-.23l-.75-.73a.374.374 0 0 1-.09-.38c.03-.07.09-.13.09-.13 3.9-4.62 6.71-5.08 6.71-5.08.08-.01.13-.01.13-.01.07 0 .13.02.19.06.11.08.15.21.12.34 0 0-.01.04-.07.13-.99 1.63-2.96 4.18-4.53 6.16-1.33 1.67-2.41 2.96-2.41 2.96-.04.06-.03.13.03.17.45.34.89.68 1.36 1.04.19.15.46.13.63 0 1.2-1.03 4.94-5.65 5.1-5.85.14-.15.37-.21.56-.13l1.38.66c.21.09.47.02.61-.17.05-.06.07-.13.09-.21v.04Z"/></g><path class="cls-5" d="M90.16 88.78c-.79.14-.12 6.7-.49 14.74-.31 8.04-1.52 14.52-.75 14.73.69.22 3.18-6.21 3.51-14.61.38-8.4-1.56-15.02-2.27-14.85ZM104.71 53.45c-.35.06-.43 1.79.18 4.48.6 2.68 2.01 6.3 4.4 9.8 2.4 3.49 5.27 6.11 7.56 7.64 2.29 1.54 3.93 2.08 4.12 1.78.44-.69-4.98-4.43-9.4-10.98-4.51-6.47-6.05-12.88-6.85-12.72ZM122.78 48.83c-.6.47.79 3.22 3.09 6.14 2.31 2.92 4.66 4.91 5.26 4.44.6-.47-.79-3.22-3.09-6.14-2.31-2.92-4.66-4.91-5.26-4.44Z"/></svg>