<svg id="Illustration" xmlns="http://www.w3.org/2000/svg" viewBox="0 0 200 200"><defs><style>.cls-2,.cls-3,.cls-5{stroke-width:0}.cls-2{fill:#ff8000}.cls-3{fill:#fff}.cls-5{fill:#e5b342}</style></defs><path class="cls-5" d="M193.5 138.77c-.19-1.18-.19-1.19 0 0 .09.58-1.15-6.24-1.13-5.68-.35-2.06-1.29 3.48-1.72 1.44 0-.02-.01-.03-.02-.05-1.23-6.46-2.51-12.9-3.83-19.34-1.35-6.61-2.75-13.2-4.17-19.79-1.41-6.51-2.85-13.02-4.31-19.52-1.46-6.5-2.94-13-4.43-19.5-.75-3.28-1.5-6.56-2.26-9.84-.33-1.43-.74-2.9-1.77-4-.94-.99-2.31-1.37-3.65-1.39-.72-.01-1.44.1-2.15.23l-9.1 1.92-4.28.9c-3.86.82-7.72 1.63-11.58 2.45-5.65 1.19-11.29 2.39-16.94 3.58-6.85 1.45-13.69 2.9-20.54 4.34-7.41 1.57-14.81 3.13-22.22 4.7-7.32 1.55-14.63 3.1-21.95 4.64-6.63 1.4-13.26 2.81-19.9 4.21l-16.03 3.39-10.21 2.16c-1.22.26 2.59.17 1.33.61 1.43-.94-2.15-.18-.7-.93 1.05-.54.4-2.29-.66-1.74-.94.48-2.12.28-3.14.6-.99.31-1.91.86-2.65 1.59-1.46 1.43-2.11 3.47-1.87 5.46-.04 1.22.25 2.45.48 3.63.29 1.55.58 3.11.9 4.66 0 .02.01.04.02.07 1.23 6.45 2.51 12.89 3.83 19.33 1.35 6.61 2.75 13.2 4.17 19.79 1.41 6.51 2.85 13.02 4.31 19.52 1.46 6.5 2.94 13 4.43 19.5.75 3.28 1.5 6.56 2.26 9.84.33 1.43.74 2.9 1.77 4 .94.99 2.31 1.37 3.65 1.39.72.01 1.44-.1 2.15-.23 10.37-2.19 20.75-4.39 31.12-6.59 8.49-1.8 16.98-3.6 25.46-5.39 7.81-1.65 15.62-3.31 23.43-4.96 8.34-1.77 16.67-3.53 25.01-5.3 10.07-2.13 20.14-4.26 30.22-6.4 1.44-.3 2.88-.61 4.32-.91l9.02-1.89c1.83-.38 3.66-.77 5.48-1.15.62-.13 1.24-.25 1.85-.42 1.82-.26 3.61-.97 4.77-2.44 1.54-1.94 1.57-4.14 1.2-6.49Z"/><path d="M195.79 129.88c-.35-2.07-.75-4.14-1.18-6.2 0-.02-.01-.03-.02-.05-1.21-6.42-2.47-12.83-3.77-19.24-1.33-6.57-2.7-13.13-4.11-19.69-1.39-6.48-2.81-12.95-4.24-19.42-1.44-6.47-2.9-12.93-4.36-19.4-.74-3.26-1.48-6.52-2.23-9.78-.33-1.43-.73-2.88-1.76-3.98-.93-.99-2.3-1.37-3.62-1.39-.72-.01-1.43.09-2.13.22-3.02.63-6.03 1.26-9.05 1.9-1.42.3-2.84.59-4.25.89-3.84.8-7.68 1.61-11.52 2.41-5.62 1.18-11.23 2.35-16.85 3.53-6.81 1.43-13.62 2.85-20.43 4.28-7.37 1.54-14.73 3.09-22.1 4.63-7.28 1.52-14.56 3.05-21.83 4.57L42.55 57.3c-5.31 1.11-10.63 2.23-15.94 3.34l-10.16 2.13c-2.86.6-6.63 1.04-7.49 4.39-.4 1.57.02 3.21.31 4.76.29 1.55.57 3.09.89 4.63 0 .02.01.04.02.07 1.21 6.42 2.47 12.82 3.77 19.22 1.33 6.57 2.7 13.13 4.11 19.69 1.39 6.48 2.81 12.95 4.24 19.42 1.44 6.47 2.9 12.93 4.36 19.4.74 3.26 1.48 6.52 2.23 9.78.33 1.43.73 2.88 1.76 3.98.93.99 2.3 1.37 3.62 1.39.72.01 1.43-.09 2.13-.22 10.32-2.16 20.64-4.32 30.96-6.49l25.33-5.31c7.77-1.63 15.54-3.26 23.3-4.89l24.88-5.22 30.06-6.3 4.3-.9 8.97-1.86c1.82-.38 3.64-.75 5.45-1.13 1.51-.31 3.07-.59 4.35-1.52.8-.58 1.39-1.32 1.72-2.25.4-1.14.28-2.37.09-3.54Z" style="fill:#ffd066;stroke-width:0"/><path d="M59.24 104.46c-.28-1.28-.59-2.55-.86-3.83-.57-2.5-.95-5.05-1.57-7.54-.29-1.18-.73-2.33-1.53-3.25-.67-.77-1.64-1.26-2.64-1.43-1.48-.26-2.93.02-4.37.32l-2.77.57c-1.81.38-3.62.76-5.44 1.14-1.11.23-2.22.47-3.33.7-.79.16-1.57.32-2.33.59-.94.34-1.86.83-2.55 1.57-.78.83-1.15 1.88-1.23 3-.1 1.24.19 2.5.44 3.71.22 1.06.47 2.12.71 3.18l.39 1.77c.55 2.45.94 4.93 1.53 7.37.27 1.11.63 2.24 1.35 3.14.67.84 1.58 1.42 2.63 1.66 1.2.28 2.43.15 3.63-.07 3.95-.83 7.89-1.67 11.84-2.47 1.2-.24 2.41-.44 3.54-.94.97-.43 1.83-1.02 2.45-1.89.67-.94.87-2.13.82-3.27-.06-1.35-.39-2.7-.69-4.01Z" style="fill:#ffead4;stroke-width:0"/><path class="cls-3" d="M70.51 70.29c-.16-.13-.73.38-1.82 1.07-1.09.68-2.77 1.54-4.98 1.77-1.09.13-2.3.06-3.52-.25-1.24-.33-2.6-.94-4.22-1.46-.81-.25-1.71-.49-2.72-.54-1-.06-2.16.13-3.16.68-1.02.55-1.77 1.36-2.37 2.11-.6.75-1.12 1.52-1.62 2.06-.52.56-1.12 1-1.63 1.15-.51.15-.89.09-1.36-.21-.47-.3-.97-.9-1.53-1.55-.55-.64-1.2-1.39-2.12-1.93-.89-.54-1.9-.76-2.82-.78-.93-.02-1.8.16-2.57.44-1.55.55-2.8 1.55-3.63 2.61-.83 1.05-1.35 2.12-1.71 3.06-.36.94-.58 1.76-.73 2.44-.28 1.35-.31 2.12-.14 2.17.19.06.57-.61 1.15-1.82.6-1.18 1.38-2.99 2.89-4.56.74-.77 1.71-1.39 2.87-1.72 1.14-.32 2.43-.29 3.36.33.46.29.91.8 1.42 1.44.52.63 1.07 1.41 2.03 2.1.48.34 1.09.62 1.74.73.66.12 1.35.05 1.95-.13 1.22-.38 2.1-1.12 2.84-1.89.76-.82 1.23-1.58 1.76-2.24.51-.65 1-1.16 1.52-1.45 1.03-.62 2.42-.47 3.86-.07 1.44.39 2.9.96 4.43 1.26 1.57.29 3.05.23 4.34-.06 2.59-.56 4.36-1.85 5.34-2.87.99-1.05 1.27-1.8 1.13-1.9Z"/><path class="cls-5" d="M58.25 96.64c-3.45.61-5.25.72-6.4.45-2.08-.49-2.42-1.23-3.61-4.49-1.9-5.22-2.83-6.31-2.02-1.14.77 4.93 1.35 11.03 11.9 6.2.72-.33 2.24-1.4.13-1.03ZM31.58 102.67c3.37-.97 5.03-1.66 5.95-2.41 1.65-1.35 1.63-2.17 1.27-5.62-.59-5.52-.24-6.91 1.31-1.91 1.48 4.76 3.64 10.5-7.96 10.81-.8.02-2.62-.28-.57-.87ZM32.7 109.94c3.44-.64 5.24-.77 6.4-.51 2.08.47 2.43 1.21 3.65 4.46 1.95 5.2 2.88 6.29 2.03 1.13-.81-4.92-1.44-11.02-11.95-6.1-.72.34-2.22 1.42-.12 1.03ZM59.32 103.69c-3.36 1-5.01 1.7-5.93 2.46-1.64 1.36-1.61 2.18-1.22 5.63.63 5.52.3 6.91-1.3 1.93-1.52-4.75-3.73-10.47 7.87-10.87.8-.03 2.63.25.57.86Z"/><path d="M135.02 55.83c.38 1.26 6.94.39 14.82-1.23 7.88-1.64 14.25-3.45 14.09-4.75-.15-1.28-6.94-1.54-15.05.14-8.11 1.67-14.24 4.61-13.87 5.84Z" style="stroke-width:0;fill:#cc9e40"/><path class="cls-3" d="M192.05 136.58c.41 1.53-127.52 28.98-156.7 34.4 0 0-3.54.89-5.25-1.06-4.4-5.03-19.57-87.48-19.57-87.48S8.54 72.17 9.17 71.93c.53-.2 2.69 9.75 2.69 9.75s16.51 71.08 19.2 80.06c1.77 5.9 2.63 5.25 11.34 3.76 34.4-5.89 149.15-30.67 149.64-28.91Z"/><path class="cls-2" d="M50.16 138.08c1.23-3.29 1.59-5.95.75-6.34-.78-.36-2.38 1.38-3.94 4.13-.88-.45-1.73-.78-2.46-.96-1.33-.32-2.27-.19-2.5.31-.38.85 1.14 2.37 3.29 4.1-.75 1.79-1.32 3.41-1.54 4.94-.11.86-.03 1.62.17 2.12.19.5.48.74.75.73.57-.04 1-.83 1.78-1.93.56-.8 1.34-2.01 2.08-3.43 2.1 1.47 3.84 2.4 4.52 1.84.41-.36.28-1.3-.38-2.49-.52-.93-1.38-2.01-2.51-3.02ZM72.4 132.42c.83-2.3.96-4.13.22-4.51-.71-.36-2.03.71-3.34 2.57-1.15-.49-2.26-.75-3.17-.8-1.47-.09-2.4.29-2.5.82-.1.56.59 1.17 1.62 1.89.61.4 1.34.89 2.15 1.42-1.39 3.01-1.8 5.68-.89 6.14.86.44 2.62-1.24 4.18-3.88.84.6 1.61 1.16 2.24 1.61 1.03.71 1.86 1.14 2.34.84.46-.28.48-1.28-.12-2.63-.48-1.08-1.42-2.35-2.73-3.47ZM101.34 127.19c1.37-3.09 1.76-5.79.85-6.24-.86-.42-2.6 1.3-4.15 4-2.45-1.39-4.52-1.94-5.03-1.22-.54.77.92 2.77 3.37 4.76-.91 2.5-1.09 4.52-.31 4.9.72.35 2.06-.8 3.38-2.76 2.59 1.53 4.82 2.16 5.35 1.41.55-.78-.95-2.82-3.47-4.84ZM120.54 121.83c1.08-2.91 1.5-5.33.65-5.81-.78-.44-2.5 1.06-3.94 3.63-2.3-1.2-4.2-1.53-4.6-.84-.46.77.92 2.46 3.1 4.33-.95 3.02-.84 5.51.07 5.77.8.23 1.95-1.19 3.08-3.35 2.65 1.83 4.93 2.89 5.59 2.2.72-.75-.92-3.48-3.94-5.93ZM150.68 115.52c1.25-2.76 1.86-4.99 1.1-5.51-.72-.5-2.58.9-4.31 3.42-.8-.37-1.56-.63-2.23-.77-1.37-.29-2.31-.13-2.53.38-.31.8 1.03 2.1 2.95 3.64-1.53 3.42-1.74 6.43-.8 6.76.89.32 2.42-1.59 3.98-4.33 2.35 1.72 4.28 2.97 5.05 2.39.43-.34.33-1.3-.32-2.53-.56-1.06-1.57-2.3-2.9-3.44ZM170.77 111.56c1.32-3.12 1.69-5.81.79-6.23-.81-.39-2.39 1.17-3.88 3.67-1.8-1.24-3.29-1.78-3.8-1.25-.59.62.33 2.51 2.13 4.64-1.21 2.98-1.52 5.5-.66 5.91.74.35 2.13-.92 3.5-3.05 2.58 2.22 5 3.41 5.68 2.7.75-.79-.92-3.62-3.76-6.38Z"/></svg>