<svg id="Illustration" xmlns="http://www.w3.org/2000/svg" viewBox="0 0 200 200"><defs><clipPath id="clippath"><path d="M197.41-43.72c.08-2.18.11-4.37.1-6.55v-.05c.11-6.78.17-13.57.19-20.35.02-6.96 0-13.92-.06-20.88-.06-6.88-.15-13.76-.26-20.63-.11-6.88-.24-13.76-.39-20.64-.07-3.47-.14-6.94-.22-10.41-.03-1.52-.14-3.08-.96-4.41-.74-1.2-2.05-1.87-3.39-2.17-.73-.16-1.47-.2-2.22-.22-3.2.01-6.4.02-9.6.04-1.5 0-3.01.01-4.51.02-4.07.02-8.14.03-12.21.05-5.96.02-11.91.05-17.87.07-7.22.03-14.45.06-21.67.08l-23.44.09-23.16.09c-7 .03-13.99.05-20.99.08l-16.91.06c-3.59.01-7.18.03-10.78.04-3.04.01-6.96-.33-8.53 2.9-.74 1.51-.65 3.27-.68 4.9-.03 1.63-.07 3.26-.07 4.9v.07c-.11 6.78-.17 13.56-.19 20.33-.02 6.96 0 13.92.06 20.88.06 6.88.15 13.76.26 20.63.11 6.88.24 13.76.39 20.64.07 3.47.14 6.94.22 10.41.03 1.52.14 3.08.96 4.41.74 1.2 2.05 1.87 3.39 2.17.73.16 1.47.2 2.22.22 10.94-.04 21.89-.08 32.83-.13 8.96-.04 17.91-.07 26.87-.11 8.24-.03 16.48-.07 24.72-.1 8.8-.04 17.59-.07 26.39-.11 10.63-.04 21.25-.09 31.88-.13 1.52 0 3.04-.01 4.56-.02 3.17 0 6.34-.01 9.51-.02 1.93 0 3.86 0 5.78-.01 1.6 0 3.24.04 4.74-.64.93-.42 1.69-1.05 2.22-1.93.65-1.07.78-2.36.83-3.58Z" style="stroke-width:0;fill:none"/></clipPath><style>.cls-4,.cls-6,.cls-7,.cls-9{stroke-width:0}.cls-4{fill:#f9f9f9}.cls-6{fill:#ffa1ae}.cls-7{fill:#fff}.cls-9{fill:#f6c243}</style></defs><path d="m152.98 161.06-1.8-7.37c-.07-.28-.21-.47-.39-.58-5.33-19.73-10.94-39.38-16.57-59.02-6.09-21.22-12.21-42.42-18-63.71-1.56-5.74-3.08-11.51-4.61-17.26-.54-2.04-1.25-4.35-2.82-5.85-1.68-2.61-5.37-3.12-8.22-3.29-1.7-.1-3.3.19-4.97.5-2.17.41-4.33.82-6.49 1.25-8.52 1.7-17 3.62-25.44 5.69-16.81 4.14-33.47 8.89-50.07 13.82-1.82.54-3.79.98-5.37 2.09-1.57 1.1-2.31 2.8-2.28 4.72.03 2.25.63 4.57 1.07 6.77.43 2.16.94 4.3 1.48 6.43-.06.23-.06.47 0 .71 2.05 8.66 4.19 17.3 6.35 25.94 2.73 10.9 5.51 21.78 8.31 32.66 2.8 10.88 5.89 22.75 8.89 34.12 2.67 10.12 5.35 20.23 8.08 30.33 1.09 4.02 2.18 8.04 3.29 12.06.59 2.14 1.05 4.42 1.97 6.45 1.35 2.97 3.88 4.49 6.7 5.88 1.34.66 2.67 1.32 3.84 2.26.22.17.44.25.66.27 1.42.59 3 .53 4.5.2 2.03-.44 4.01-1.08 6.01-1.64 8.42-2.38 16.82-4.8 25.21-7.26 16.79-4.91 33.53-9.98 50.22-15.21 2.2-.69 4.44-1.31 6.61-2.1 1.57-.57 3.18-1.43 3.98-2.97.97-1.85.31-3.94-.15-5.84Z" style="fill:#f2a6b0;stroke-width:0"/><g style="clip-path:url(#clippath)"><path d="m40.63 1.55-.4-3.05c-.07-.5-.13-1-.2-1.49l-.1-.75c-.02-.12-.03-.24-.05-.36 0-.05-.01-.1-.01-.15-.15.21-.17.26-.05.16l-.34.2c-.39-.17-.48-.17-.28-.02l.14.12.29.25c.21.18.41.36.62.54.4.34.79.69 1.19 1.03s.79.69 1.19 1.03l.57.49c.15.13.49.37.56.47l-.1-.39v.08c.05-.13.08-.26.12-.39l.1-.11c-.06.03-.11.05-.17.08-.08.03-.15.07-.23.1-.17.08-.34.16-.51.23-.36.16-.72.33-1.09.49-.71.32-1.41.63-2.12.94-.38.17-.47.72-.27 1.05.23.39.67.44 1.05.27 1.23-.54 2.45-1.09 3.67-1.64.31-.14.68-.26.87-.57.23-.38.15-.83-.14-1.15-.44-.48-1-.88-1.49-1.3-1.02-.88-2.03-1.76-3.05-2.64-.26-.22-.5-.45-.85-.5-.41-.05-.81.16-1.03.51-.34.56-.08 1.38 0 1.98.2 1.49.39 2.99.59 4.48.05.41.31.77.77.77.37 0 .82-.35.77-.77Z" style="fill:#f96700;stroke-width:0"/></g><path class="cls-9" d="M178.13 6.89c-2.54-1.79-6.11-1.49-8.86-.05-2.75 1.45-4.85 3.86-6.8 6.28-13.4 16.62-23.71 34.32-28.92 55.02-.02.08-.03.16-.03.24 0 .83.99 1.27 1.6.71a349.274 349.274 0 0 0 40.77-44.07c2.1-2.71 4.21-5.55 5.03-8.87.82-3.33.02-7.29-2.79-9.26ZM193.47 47.03c-1.13-2.22-3.77-3.36-6.26-3.37-2.5-.01-4.89.91-7.19 1.89a119.41 119.41 0 0 0-40.9 28.92c-.43.47-.54 1.16-.27 1.75.32.71 1.1 1.09 1.85.89 15.64-4.09 29.55-11.42 44.34-18.06 2.51-1.13 5.08-2.34 6.91-4.4 1.83-2.05 2.76-5.16 1.52-7.62ZM187.69 84.79c-1.64-1.19-3.65-1.72-5.63-2.16a96.81 96.81 0 0 0-40.95-.25.85.85 0 0 0-.65.59c-.14.44.08.92.51 1.08 12.31 4.81 25.05 7.19 38.02 9.84 2.19.45 4.45.86 6.63.38s4.26-2.09 4.6-4.3c.31-2-.89-4-2.53-5.19Z"/><path d="M102.19 153.82c-1.34.58-35.64 9.12-38.81 9.16-3.17.04-5.83-1.81-7.17-6.7-1.34-4.89-14.2-52.23-15.49-57-1.29-4.77-12.54-48.07-13.28-51.69-.74-3.62-3.34-8.66 1.44-11.22 4.77-2.56 36.2-10.84 39.31-11.4 3.11-.56 27.96-5.83 27.96-5.83s3.06-.97 4.52.42c1.46 1.39 6.56 18.86 6.94 20.15.38 1.28 15.38 54.75 15.83 56.03.45 1.28 7.53 28.63 8.5 30.38.97 1.74 4.35 13.7 3.59 15.49-.76 1.78-6.25 3.69-7.48 4.63-1.23.94-21.84 6.34-21.84 6.34l-4.03 1.25Z" style="fill:#d6e8ea;stroke-width:0"/><g id="Layer_5"><path class="cls-6" d="m53.98 187.47-15.06-58.92-15.06-58.92-8.5-33.25c-.36-1.39-2.45-.58-2.09.8L28.33 96.1l15.06 58.92 8.5 33.25c.36 1.39 2.45.58 2.09-.8ZM135.42 134.5s0-.05-.01-.08c-2.41-8.78-4.86-17.54-7.31-26.3-3.07-10.96-6.16-21.91-9.27-32.86-3.04-10.7-6.1-21.4-9.2-32.09-1.29-4.45-2.59-8.89-3.91-13.33l-1.65-5.53c-.75-2.48-1.4-5.48-4.11-6.48-1.46-.54-3.05-.44-4.56-.19-1.88.32-3.75.75-5.62 1.13-3.9.82-7.8 1.69-11.68 2.59a546.43 546.43 0 0 0-23.49 6.04 526.29 526.29 0 0 0-23.01 7.05c-1.62.54-3.47.95-4.86 2.01-1.27.96-1.84 2.38-1.86 3.93-.03 1.94.64 3.91 1.1 5.78 1.87 7.71 3.84 15.4 5.81 23.1 2.57 10.03 5.18 20.04 7.82 30.05 2.64 10.01 5.36 20.27 8.1 30.39 2.14 7.91 4.29 15.82 6.54 23.69.36 1.26.72 2.52 1.1 3.78 0 .08.02.17.05.25.67 2.16 1.28 4.17 3.24 5.49 2.44 1.64 5.26 1.52 8.02.95 6.91-1.43 13.78-3.22 20.61-4.97 13.76-3.52 27.44-7.34 41.16-10.99 2.68-.71 5.85-1.72 7.48-4.18 1.75-2.64.35-6.51-.48-9.24Zm-1.5 8.18c-1.45 1.88-4.12 2.57-6.3 3.15-6.26 1.67-12.51 3.36-18.77 5.06-12.65 3.42-25.31 6.81-38.07 9.78-1.74.41-3.48.85-5.24 1.16-1.37.24-2.82.4-4.18-.02-1-.3-2.05-.94-2.63-1.83-.6-.91-.87-2.06-1.18-3.11 0-.07-.02-.14-.04-.22h-.02c-2.02-6.86-3.91-13.76-5.79-20.65-2.61-9.57-5.18-19.15-7.71-28.74-2.68-10.11-5.33-20.22-7.94-30.35-2.2-8.49-4.38-16.98-6.5-25.48-.76-3.04-1.61-6.09-2.23-9.16-.28-1.36-.51-3.01.72-3.98 1.31-1.03 3.31-1.39 4.87-1.9 3.75-1.24 7.51-2.43 11.3-3.59a527.09 527.09 0 0 1 46.14-11.85c1.84-.38 3.68-.82 5.53-1.1 1.3-.21 2.93-.38 4.02.52 1.1.9 1.39 2.49 1.78 3.77l.78 2.58c1.21 4.02 2.39 8.04 3.56 12.07 2.97 10.14 5.88 20.3 8.78 30.46 3.12 10.93 6.21 21.87 9.29 32.8 2.61 9.29 5.21 18.58 7.78 27.88.48 1.73.95 3.46 1.43 5.19 0 .05.01.09.03.14.42 1.38.86 2.85 1.06 4.32.14 1.04.23 2.24-.45 3.12Z"/></g><path class="cls-4" d="M51.3 194.96c.87-.22-7.67-37.44-19.07-83.13-11.4-45.7-21.35-82.57-22.22-82.35-.87.22 7.67 37.44 19.07 83.13 11.4 45.7 21.35 82.57 22.22 82.35ZM76.92 83.5c-.87-.21-5.18 14.4-9.62 32.63-4.44 18.23-7.33 33.19-6.46 33.4.87.21 5.18-14.4 9.62-32.63 4.44-18.23 7.33-33.19 6.46-33.4ZM61.48 71.44c.87.22 3.64-7.65 6.18-17.59 2.54-9.94 3.9-18.18 3.03-18.4-.87-.22-3.64 7.65-6.18 17.59-2.54 9.94-3.9 18.18-3.03 18.4Z"/><path class="cls-7" d="M93.97 177.71c.41-.2-.1-3.6-1.15-7.59-1.05-3.99-2.23-7.06-2.64-6.86-.41.2-.28 3.74.77 7.73s2.61 6.92 3.02 6.72Z"/><path class="cls-7" d="M90 163.77c.2.41 9.15-1.86 13.14-2.93s6.55-2.47 6.35-2.88c-.2-.41-3.25-.05-7.23 1.02-3.99 1.07-12.46 4.39-12.25 4.8ZM93.76 177.66c.2.41 9.07-1.81 13.02-2.85 3.95-1.04 6.8-2.04 6.79-2.28-.02-.45-3.72-.62-7.67.42-3.95 1.04-12.34 4.3-12.14 4.7Z"/><path class="cls-7" d="M109.28 157.84s.6 3.84 1.65 7.83c1.05 3.99 2.23 7.06 2.64 6.86.41-.2.21-3.73-.77-7.73-1.46-6-2.81-6.98-3.52-6.96Z"/><path class="cls-7" d="M104.85 160.36c2.24-.75 4.81-1.2 5.27 1.86 0 0 1.13-3.23-.14-4.05-1.85-1.21-5.13 2.19-5.13 2.19Z"/></svg>