<svg id="Illustration" xmlns="http://www.w3.org/2000/svg" viewBox="0 0 200 200"><defs><style>.cls-2{stroke-width:0;fill:#fff}</style></defs><path d="m178.3 39.34-14.49-14.15c-7.7-7.52-20.06-7.32-27.51.45l-112.11 115-3.1 28.11 13.81 10.87 29.29-5.44L178.01 67.34c8.07-7.54 8.21-20.3.3-28.02Z" style="fill:#f6c243;stroke-width:0"/><path style="fill:#6a4a6b;stroke-width:0" d="m19.57 182.47 15.32-2.85-13.81-10.87-1.51 13.72z"/><path d="M178.29 39.47 163.68 25.2c-7.77-7.58-20.23-7.38-27.74.45l-10.89 11.31 42.2 41.15 10.73-10.39c8.14-7.61 8.28-20.47.31-28.25Z" style="fill:#f2a6b0;stroke-width:0"/><path d="M23.5 140.74c4.12-3.32 12.01-9.69 17.32-5.44 4.62 4.02 2.12 13.7 8.11 15.64.89.23 1.92.31 2.84.34 17.93.53 22.51 8.62 12.53 23.74 3.3-13.56 4.78-18.38-11.54-18.76-.38-.03-1.32-.02-1.69-.04-3.25-.02-6.66-1.25-8.56-3.99-2.15-3.06-2.45-6.51-2.96-9.84-.39-1.98-.43-3.66-1.8-4.77-1.58-.93-3.62-.36-5.53.06-2.89.75-5.77 1.96-8.71 3.07Z" style="stroke-width:0;fill:#cc9e40"/><rect x="113.69" y="52.02" width="60.86" height="15.19" rx="2.06" ry="2.06" transform="rotate(45.09 144.118 59.613)" style="fill:#e5b342;stroke-width:0"/><path class="cls-2" d="M117.39 45.1c7.89 5.89 14.94 12.65 21.8 19.66 6.78 7.08 13.31 14.35 18.92 22.44-7.9-5.88-14.95-12.65-21.8-19.66-6.78-7.08-13.3-14.36-18.92-22.44ZM128.84 32.02c7.89 5.89 14.94 12.65 21.8 19.66 6.78 7.08 13.31 14.35 18.92 22.44-7.9-5.88-14.95-12.65-21.8-19.66-6.78-7.08-13.3-14.36-18.92-22.44Z"/></svg>