<svg id="Illustration" xmlns="http://www.w3.org/2000/svg" viewBox="0 0 200 200"><defs><style>.cls-5,.cls-8{stroke-width:0}.cls-5{fill:#fff}.cls-8{fill:#f6c243}</style></defs><path class="cls-8" d="m115.66 168.21-17.89 3.88-13.41-96.65 11.33-2.04 19.97 94.81z"/><path style="fill:#78577a;stroke-width:0" d="M142.57 184.52 77.9 196.13l-.25-32.92 52.66-9.45 12.26 30.76z"/><path style="fill:#bf9dd6;stroke-width:0" d="m91.97 173.13.93 10.23 32.41-5.82-3.6-9.75-29.74 5.34z"/><path class="cls-5" d="M135.65 152.65c-.06-.85-14.49 1.06-30.68 3.72-16.8 3.1-29.95 6.7-29.7 7.51.26.89 13.61-2.33 30.23-5.4 16.61-3.11 30.23-4.92 30.15-5.83ZM81.39 121.25c.08.74 7.16 3.52 17.24 1.85s14.9-6.51 14.72-7.23c-.19-.79-7.31 1.76-14.85 3.18-6.26 1.18-17.2 1.4-17.11 2.2Z"/><path class="cls-8" d="m118.22 100.18-2.81-8.55c8.37-2.75 17.03-5.6 24.22-10.5 9.46-6.45 14.39-15.13 13.52-23.82-.6-6.02-4.03-11.19-8.72-13.17-4.11-1.73-8.58-.81-12.92 2.66l-5.62-7.03c6.88-5.49 14.91-6.92 22.03-3.92 7.69 3.24 13.25 11.31 14.18 20.57 1.21 12.07-5.13 23.79-17.41 32.16-8.25 5.61-17.51 8.66-26.48 11.61ZM62.03 108.68c-6.15 0-12.36-.4-18.54-1.94-14.28-3.57-24.2-12.3-27.22-23.97-2.35-9.07.12-18.66 6.28-24.42 5.67-5.3 13.7-6.75 22.03-3.98l-2.84 8.54c-5.25-1.75-9.76-1.05-13.04 2.01-3.79 3.54-5.25 9.66-3.71 15.58 2.17 8.37 9.71 14.75 20.68 17.49 8.4 2.09 17.5 1.75 26.29 1.43l.33 8.99c-3.39.13-6.82.25-10.27.25Z"/><path style="fill:#ffcd4e;stroke-width:0" d="M139.26 19.24 25.11 39.73 22 21.89 136.15 1.41l3.11 17.83z"/><path d="M134.16 20.28 30.25 38.93c8.7 49.86 39.01 86.11 67.7 80.96s44.91-49.74 36.21-99.61Z" style="fill:#ffd066;stroke-width:0"/><path d="m88.59 47.52 8.23 11.32 13.86-.45c2.17-.07 3.47 2.41 2.21 4.2l-8.08 11.44 4.71 13.23c.74 2.07-1.19 4.1-3.25 3.43l-13.22-4.26-10.95 8.63c-1.71 1.35-4.21.12-4.22-2.08l-.09-14.07-11.48-7.9c-1.79-1.23-1.41-4.02.64-4.72l13.16-4.44 3.86-13.51c.6-2.11 3.33-2.61 4.62-.84Z" style="fill:#f70;stroke-width:0"/><path d="m110.68 58.39-13.86.45-8.23-11.32c-.64-.89-1.65-1.2-2.57-1.04l7.03 39.95 13.22 4.26c2.07.67 3.99-1.36 3.25-3.43l-4.71-13.23 8.08-11.44c1.26-1.79-.04-4.27-2.21-4.2Z" style="stroke-width:0;fill:#f96700"/><path class="cls-5" d="M29.85 38.74c.09 1.48 25.28-1.57 53.54-5.91 29.34-5.09 52.33-11.1 51.91-12.53-.43-1.55-23.77 3.8-52.79 8.84-29 5.11-52.77 7.99-52.66 9.6Z"/></svg>