<?xml version="1.0" encoding="UTF-8"?>
<svg id="Illustration" xmlns="http://www.w3.org/2000/svg" viewBox="0 0 160 200">
  <defs>
    <style>
      .cls-1 {
        fill: #f96800;
      }

      .cls-2 {
        fill: #fff;
      }

      .cls-3 {
        fill: #ffcf4e;
      }

      .cls-4 {
        fill: #ffc101;
      }

      .cls-5 {
        fill: #ff7800;
      }

      .cls-6 {
        fill: #7e557c;
      }

      .cls-7 {
        fill: #c69ada;
      }
    </style>
  </defs>
  <polygon class="cls-4" points="107.09 169.53 89.03 173.45 75.5 75.91 86.93 73.86 107.09 169.53"/>
  <polygon class="cls-6" points="134.24 185.99 68.98 197.71 68.72 164.49 121.87 154.96 134.24 185.99"/>
  <polygon class="cls-7" points="83.17 174.5 84.11 184.82 116.82 178.95 113.18 169.11 83.17 174.5"/>
  <path class="cls-2" d="m127.25,153.83c-.06-.86-14.63,1.07-30.96,3.76-16.96,3.13-30.23,6.76-29.97,7.58.26.89,13.74-2.35,30.51-5.45,16.76-3.14,30.5-4.96,30.42-5.89Z"/>
  <path class="cls-2" d="m72.5,122.14c.08.75,7.22,3.55,17.39,1.87,10.17-1.68,15.04-6.57,14.85-7.3-.19-.8-7.38,1.78-14.99,3.21-6.32,1.19-17.36,1.41-17.26,2.22Z"/>
  <g>
    <path class="cls-3" d="m109.61,100.73l-2.74-8.33c8.46-2.78,17.2-5.66,24.49-10.61,9.6-6.54,14.59-15.35,13.71-24.18-.62-6.14-4.11-11.4-8.89-13.42-4.2-1.77-8.76-.83-13.2,2.71l-5.47-6.85c6.89-5.51,14.94-6.94,22.07-3.94,7.7,3.24,13.28,11.34,14.21,20.63,1.22,12.12-5.16,23.9-17.5,32.31-8.31,5.65-17.65,8.72-26.68,11.69Z"/>
    <path class="cls-3" d="m52.96,109.3c-6.19,0-12.45-.41-18.66-1.95-14.35-3.59-24.32-12.36-27.35-24.08-2.36-9.1.11-18.71,6.29-24.49,5.68-5.31,13.73-6.76,22.07-3.98l-2.77,8.32c-5.36-1.78-9.96-1.07-13.32,2.07-3.87,3.61-5.35,9.84-3.79,15.88,2.2,8.51,9.85,14.98,20.99,17.76,8.51,2.12,17.69,1.77,26.57,1.44l.33,8.76c-3.42.13-6.88.26-10.36.26Z"/>
  </g>
  <polygon class="cls-3" points="130.89 19.2 15.71 39.87 12.57 21.87 127.76 1.2 130.89 19.2"/>
  <path class="cls-4" d="m125.75,20.25c8.78,50.32-7.58,95.32-36.54,100.52-28.96,5.2-59.55-31.38-68.32-81.7"/>
  <path class="cls-5" d="m79.86,40.91l10.53,14.5,17.74-.58c2.77-.09,4.45,3.08,2.83,5.37l-10.34,14.64,6.03,16.94c.94,2.65-1.52,5.24-4.16,4.39l-16.92-5.45-14.02,11.05c-2.19,1.73-5.39.16-5.4-2.66l-.12-18.01-14.69-10.11c-2.3-1.58-1.81-5.15.82-6.04l16.84-5.68,4.94-17.3c.77-2.7,4.27-3.34,5.91-1.07Z"/>
  <path class="cls-1" d="m108.13,54.82l-17.74.58-10.53-14.5c-.82-1.13-2.11-1.54-3.28-1.33l9,51.14,16.92,5.45c2.65.85,5.11-1.74,4.16-4.39l-6.03-16.94,10.34-14.64c1.62-2.29-.06-5.47-2.83-5.37Z"/>
  <path class="cls-2" d="m20.48,38.88c.09,1.49,25.51-1.59,54.03-5.96,29.61-5.14,52.81-11.2,52.38-12.64-.44-1.56-23.99,3.84-53.27,8.92-29.27,5.16-53.26,8.07-53.14,9.68Z"/>
</svg>