<svg id="Illustration" xmlns="http://www.w3.org/2000/svg" viewBox="0 0 200 200"><defs><style>.cls-1{fill:none}.cls-5{fill:#b4cacc}.cls-6{fill:#d6e8ea}.cls-7{fill:#c1dade}</style></defs><g id="Layer_3"><path class="cls-1" d="M120.86 158.14s-.04.51.06.97c.16.76.6 1.37 1.34 1.54l4.68.87c.41.08.73.5.73 1.06 0 0-.19 5.58-.98 15.56h6.89c.16-3.49.51-11.64.81-21.35.48-15.29.86-34.9.08-46.42v.02c-.04-.63-.12-.88-.12-.88-.21-.72-.73-1.23-1.34-1.23-.32 0-.61.14-.85.36 0 0-.17.15-.43.51M109.9 160.62c.03-.6.26-1.11.6-1.43 1.92-1.78 3.18-4.76 3.18-8.13v-.43c-.34-12.33-.5-26.39-.01-37.49v-.15c-.01-1.01-.64-1.82-1.39-1.8-.72.02-1.3.77-1.34 1.73-.35 7.61-.38 16.62-.26 25.52 0 1.19-.7 2.18-1.59 2.2-.89.02-1.63-.93-1.65-2.13-.12-8.85-.09-17.79.24-25.37v-.15c-.01-1.01-.64-1.82-1.39-1.8-.72.02-1.3.77-1.34 1.73-.35 7.64-.38 16.7-.26 25.64.01 1.2-.7 2.2-1.59 2.21-.89.02-1.63-.94-1.65-2.14-.12-8.88-.09-17.88.24-25.5v-.15c-.01-1.01-.64-1.82-1.39-1.8-.72.02-1.3.77-1.34 1.73-.52 11.42-.33 26.03.02 38.65.13 3.38 1.52 6.31 3.56 7.95.39.32.66.89.69 1.56 0 .19.02.43.03.62.24 6.57.53 12.84.7 16.44h6.84c-.12-1.5-.28-3.68-.49-6.47-.62-9.17-.45-11.07-.45-11.07v.02z"/></g><path class="cls-1" d="M170.81 133.45c-.15-.52-.92-1.08-2.01-1.65l.3 5.88c1.34-1.39 2.11-2.85 1.71-4.23z"/><path class="cls-5" d="M167.06 160.34c-4.13 2.23-8.69 3.29-12.77 5.57-4.86 2.72-3.8 7.6-1.83 12.24h17.61c.6 0 .93-.58.97-1.21.03-.15.05-.32.05-.51-.32-5.95-.62-11.91-.92-17.87-1.04.63-2.09 1.22-3.11 1.78zM169.1 137.68l-.3-5.88c-3.27-1.69-9.46-3.38-10.65-3.92-5.53-2.49-10.98-5.5-15.55-9.89.47 12.29.9 23.93 1.25 33.55 4.47-3.23 9.85-4.79 14.78-7.15 1.58-.75 7.45-3.56 10.47-6.71zM154.37 30.89c2.54-.38 5.06-.43 7.53.04-.17-1.65-.34-3.31-.52-4.96-.07-.7-.44-.99-.83-.98-.05 0-.09-.02-.14-.02h-22.58c-1.31 0-1.31 2.73 0 2.73h.26c.12.97.24 2.24.37 3.76.24.3.47.61.69.96 2.21 3.53 12.16-1.07 15.24-1.52zM147.06 90.22c-.85 4.25 1.83 9.33 4.22 12.13 3.63 4.25 10.05 6.96 16.49 9.84-.69-12.8-1.44-25.59-2.31-38.37a64.928 64.928 0 0 1-6.92 5.87c-3.78 2.78-10.34 4.78-11.49 10.53zM144.27 175.72c-.18.21-.3.5-.33.82.1-.08.22-.15.36-.18 0-.19-.02-.4-.02-.64zM161.16 50.21c-1.76-3.36-10.5.72-12.8 1.2-3.04.63-5.92.79-8.63.41.3 5.74.61 12.16.92 18.96 3.46-2.92 7.43-5.23 11.08-8.1 1.22-.96 11.15-9.19 9.44-12.46z"/><path class="cls-7" d="M137.07 30.06c.48 4.26 1.02 11.91 1.6 21.58.35.07.7.13 1.05.18-.45-8.61-.88-15.7-1.27-20.36-.43-.54-.89-1.01-1.37-1.4zM139.76 71.53c.73 14.39 1.47 30.53 2.14 45.79.23.23.47.44.7.67-.6-15.67-1.28-32.37-1.96-47.21-.3.25-.59.5-.88.75zM161.9 30.93c.91 8.8 1.69 17.63 2.37 26.47.43 5.47.82 10.94 1.19 16.42M144.68 175.45c-.1-2.85-.4-11.76-.84-23.91-.17.12-.34.23-.51.35.47 11.63.8 20.39.94 23.83.11-.13.24-.23.41-.27zM152.46 178.16h-7.56c-.74 0-1.05-.86-.96-1.62"/><path class="cls-7" d="M168.8 131.8c-.21-4.1-.41-8.21-.63-12.31-.13-2.43-.27-4.87-.4-7.3-6.44-2.88-12.87-5.59-16.49-9.84-2.39-2.8-5.07-7.88-4.22-12.13 1.14-5.75 7.71-7.75 11.49-10.53 2.33-1.72 4.7-3.68 6.92-5.87-.37-5.48-.77-10.95-1.19-16.42-.68-8.84-1.46-17.67-2.37-26.47-2.47-.46-4.99-.41-7.53-.04-3.08.46-13.03 5.05-15.24 1.52-.22-.35-.45-.66-.69-.96.39 4.66.82 11.75 1.27 20.36 2.71.38 5.6.22 8.63-.41 2.31-.48 11.05-4.56 12.8-1.2 1.71 3.27-8.22 11.5-9.44 12.46-3.65 2.87-7.62 5.18-11.08 8.1.68 14.84 1.35 31.54 1.96 47.21 4.57 4.39 10.03 7.41 15.55 9.89 1.19.54 7.37 2.23 10.65 3.92zM154.29 165.91c4.07-2.28 8.64-3.34 12.77-5.57 1.02-.55 2.06-1.15 3.11-1.78-.35-6.96-.72-13.92-1.07-20.89-3.02 3.15-8.89 5.95-10.47 6.71-4.93 2.36-10.32 3.92-14.78 7.15.44 12.15.74 21.07.84 23.91-.17.04-.3.15-.41.27 0 .24.02.45.02.64a.94.94 0 0 0-.36.18c-.09.76.22 1.62.96 1.62h7.56c-1.96-4.64-3.03-9.52 1.83-12.24z"/><path d="M152.79 97.72c-.92.05-.83 18.05.21 40.19 1.04 22.14 2.63 40.05 3.55 39.99.92-.05.83-18.05-.21-40.19-1.04-22.14-2.63-40.05-3.55-39.99z" style="fill:#a0b4b5"/><path class="cls-6" d="M143.94 119.86c-.55-16.63-1.19-33.26-2.03-49.87-.1-1.91-.2-3.82-.31-5.73-.11-1.98-.2-3.96-.32-5.94-.6-10.42-1.31-20.84-2.26-31.22-.05-.59-.09-1.2-.33-1.57-.26-.41-.75-.57-1.28-.57H43.68s-.09 0-.14.02c-.39 0-.76.28-.84.98-.53 4.83-1.02 9.66-1.47 14.51-.22 2.42-.44 4.84-.65 7.27-1.04 12.12-1.87 24.28-2.64 36.43-.33 5.14-.63 10.29-.93 15.43-.89 15.43-1.67 30.88-2.45 46.32-.25 5.08-.51 10.17-.76 15.25-.26 5.09-.52 10.17-.79 15.25-.01.25.02.47.09.66.08.56.4 1.07.96 1.07h110.67c.62 0 .95-.62.98-1.28.03-.14.05-.28.04-.45-.65-18.86-1.17-37.72-1.8-56.57z"/><path class="cls-6" d="M36.81 31.18c-4.56 10.23-2.67 22.61 4.67 30.55s93.52-.39 93.52-.39l-1.49-35.79-87.24-.87c-4-.04-7.67 2.48-9.46 6.5z"/><ellipse cx="87.74" cy="59.04" rx="39.61" ry="1" style="fill:#fff"/><path d="m114.75 107.88-10.88-.27.23-10.41c.11-5.02-4.07-9.22-9.32-9.35l-6.35-.16c-5.25-.13-9.61 3.85-9.72 8.87l-.23 10.41-10.88-.27c-5.25-.13-9.61 3.85-9.72 8.87l-.13 6.07c-.11 5.02 4.07 9.22 9.32 9.35l10.88.27-.23 10.41c-.11 5.02 4.07 9.22 9.32 9.35l6.35.16c5.25.13 9.61-3.85 9.72-8.87l.23-10.41 10.88.27c5.25.13 9.61-3.85 9.72-8.87l.13-6.07c.11-5.02-4.07-9.22-9.32-9.35z" style="fill:#79db6b"/></svg>