<?xml version="1.0" encoding="UTF-8"?>
<svg id="Illustration" xmlns="http://www.w3.org/2000/svg" xmlns:xlink="http://www.w3.org/1999/xlink" viewBox="0 0 200 200">
  <defs>
    <style>
      .cls-1 {
        clip-path: url(#clippath);
      }

      .cls-2 {
        fill: none;
      }

      .cls-2, .cls-3, .cls-4, .cls-5, .cls-6 {
        stroke-width: 0px;
      }

      .cls-3 {
        fill: #f96700;
      }

      .cls-4 {
        fill: #f70;
      }

      .cls-7 {
        opacity: .7;
      }

      .cls-5 {
        fill: #c15400;
      }

      .cls-6 {
        fill: #fff;
      }
    </style>
    <clipPath id="clippath">
      <path class="cls-2" d="M-22.59,176.28c.08-2.18.11-4.37.1-6.55,0-.02,0-.04,0-.05.11-6.78.17-13.57.19-20.35.02-6.96,0-13.92-.06-20.88-.06-6.88-.15-13.76-.26-20.63-.11-6.88-.24-13.76-.39-20.64-.07-3.47-.14-6.94-.22-10.41-.03-1.52-.14-3.08-.96-4.41-.74-1.2-2.05-1.87-3.39-2.17-.73-.16-1.47-.2-2.22-.22-3.2.01-6.4.02-9.6.04-1.5,0-3.01.01-4.51.02-4.07.02-8.14.03-12.21.05-5.96.02-11.91.05-17.87.07-7.22.03-14.45.06-21.67.08-7.81.03-15.63.06-23.44.09-7.72.03-15.44.06-23.16.09-7,.03-13.99.05-20.99.08-5.64.02-11.27.04-16.91.06-3.59.01-7.18.03-10.78.04-3.04.01-6.96-.33-8.53,2.9-.74,1.51-.65,3.27-.68,4.9-.03,1.63-.07,3.26-.07,4.9,0,.03,0,.05,0,.07-.11,6.78-.17,13.56-.19,20.33-.02,6.96,0,13.92.06,20.88.06,6.88.15,13.76.26,20.63.11,6.88.24,13.76.39,20.64.07,3.47.14,6.94.22,10.41.03,1.52.14,3.08.96,4.41.74,1.2,2.05,1.87,3.39,2.17.73.16,1.47.2,2.22.22,10.94-.04,21.89-.08,32.83-.13,8.96-.04,17.91-.07,26.87-.11,8.24-.03,16.48-.07,24.72-.1,8.8-.04,17.59-.07,26.39-.11,10.63-.04,21.25-.09,31.88-.13,1.52,0,3.04-.01,4.56-.02,3.17,0,6.34-.01,9.51-.02,1.93,0,3.86,0,5.78-.01,1.6,0,3.24.04,4.74-.64.93-.42,1.69-1.05,2.22-1.93.65-1.07.78-2.36.83-3.58Z"/>
    </clipPath>
  </defs>
  <g class="cls-1">
    <path class="cls-3" d="M-.53,96.76c-.7-1.84-1.05-3.78-1.38-5.71l-1.13.87c1.85,1.05,3.64,2.23,5.31,3.56l.16-1.2c-1.36.7-2.73,1.39-4.09,2.09-.37.19-.48.71-.27,1.05.22.37.68.46,1.05.27,1.36-.7,2.73-1.39,4.09-2.09.4-.21.53-.9.16-1.2-1.78-1.4-3.65-2.68-5.62-3.8-.62-.35-1.24.23-1.13.87.34,1.93.69,3.87,1.38,5.71.15.39.52.65.94.54.37-.1.68-.55.54-.94h0Z"/>
  </g>
  <g>
    <path class="cls-4" d="M102.87,195.11c127.7-6.66,119.62-192.89-7.44-190.57-127.7,6.65-119.61,192.89,7.44,190.57Z"/>
    <path class="cls-5" d="M59,109h7c1.94,38.08-10.92,40.34,33.5,39,44.44,1.36,31.56-1.01,33.5-39h8v-20.24c.16-5.37-6.14-8.44-11.68-7.76,14.79-14.3-6.67-28.65-19.36-15.51-3.48,3.42-7.99,6.96-9.96,9.39-1.96-2.42-6.48-5.97-9.96-9.39-12.7-13.15-34.15,1.22-19.36,15.51-5.54-.68-11.84,2.38-11.68,7.76,0,0,0,20.24,0,20.24ZM127.46,74.43c-3.24,7.5-17.71,6.07-22.89,5.78,1.1-1.71,5.49-5.81,9.42-9.44,4.2-5.06,16.88-4.89,13.47,3.66ZM103,109h24c-2.02,38.6,9.68,32.71-24,33v-33ZM103,87c2.15.73,31.94-1.83,32,1.71,0,0,0,14.29,0,14.29h-32s0-16,0-16ZM95.07,80.22c-5.17.29-19.66,1.71-22.89-5.78-2.06-4,1.11-7.31,5.31-7.13,6.4-.48,15.06,10.14,17.58,12.91ZM73,109h24s0,33,0,33c-33.67-.29-21.98,5.6-24-33ZM65,103v-14.29c-.04-3.53,29.99-.99,32-1.71v16s-32,0-32,0Z"/>
    <g class="cls-7">
      <g>
        <path class="cls-6" d="M171.26,80.37c.05.23.13.58.2.86-.25-.8-.36-1.19-.2-.86Z"/>
        <path class="cls-6" d="M173.62,91.82c-.51-2.98-1.43-7.67-2.17-10.6.19.64.52,1.54.79,2.58.26,1.04.55,2.19.83,3.28.46,2.22.73,4.24.55,4.73Z"/>
        <path class="cls-6" d="M171.98,79.58l.88,3.7c-.75-2.1-.39-1.77-.88-3.7Z"/>
        <path class="cls-6" d="M171.86,81.06l-.25-.13c-.13-.66-.23-1.34-.38-1.99.24.7.42,1.42.63,2.12Z"/>
        <path class="cls-6" d="M27.85,80.82c.19-.35.34-.55.42-.34l-.42.34Z"/>
        <path class="cls-6" d="M25.4,89.08c-.11.77-.18,1.31-.24,1.77.04-.53.11-.97.24-1.77Z"/>
        <path class="cls-6" d="M30.09,73.42c-.19.47-.34.95-.49,1.43.12-.47.28-.97.49-1.43Z"/>
        <path class="cls-6" d="M107.32,29.98c1.4.33,2.73.58,3.72.85-2.76-.24-2.96-.55-3.72-.85Z"/>
        <path class="cls-6" d="M27.93,129.15l.3.29c.09.42.1.64-.3-.29Z"/>
        <path class="cls-6" d="M22.43,90.88c.1-.03.16.06.19.23-.03.15-.06.31-.09.46l-.11-.69Z"/>
        <path class="cls-6" d="M32.17,67.78s.01-.06.02-.08c.2-.36.44-.7.66-1.05-.29.6-.51.95-.68,1.13Z"/>
        <path class="cls-6" d="M33.56,140.47c.21.54.44,1.03.57,1.52-.64-1.05-.79-1.63-.57-1.52Z"/>
        <path class="cls-6" d="M25.13,91.06s0,0,0,.02c0-.06.02-.17.03-.23,0,.08-.01.14-.02.21Z"/>
        <path class="cls-6" d="M24.93,78.2c-.21.65-.4,1.26-.63,1.96.19-.85.43-1.54.63-1.96Z"/>
        <path class="cls-6" d="M107.32,29.98c-.4-.09-.79-.17-1.19-.24.57.04.91.13,1.19.24Z"/>
        <path class="cls-6" d="M167.37,71.04c-.52-1.1-.53-1.41-.52-1.67.23.63.42,1.2.52,1.67Z"/>
        <path class="cls-6" d="M173.06,94.85l-.04-.48c.03.2.04.36.04.48Z"/>
        <path class="cls-6" d="M163.15,138.72c-.14.16-.29.33-.43.44.17-.35.34-.5.43-.44Z"/>
        <path class="cls-6" d="M132.69,168.62c1.42-.68,2.88-1.31,4.33-1.86,1.42-.62,2.85-1.13,4.04-1.82l-.92.28,2.5-1.2-.18-.24c2.01-1.09,4.14-2.52,5.93-3.8.91-.62,1.69-1.26,2.39-1.73.7-.47,1.26-.84,1.65-1.03l-.71-.02c1.3-.96,2.65-1.87,3.9-2.92-.74.57-1.5,1.12-2.28,1.62,1.04-.87,2.13-1.97,3.29-3.01,1.11-1.1,2.25-2.2,3.23-3.27,2-2.11,3.47-3.98,3.83-4.44l-.44.29c.49-.75.97-1.27,1.55-2.01l-.62.44c.59-.84,1.12-1.61,1.6-2.33.44-.75.84-1.43,1.22-2.09.78-1.29,1.29-2.53,1.91-3.75.59-1.23,1.1-2.53,1.77-4,.57-1.52,1.34-3.2,2.09-5.36.73-2.38-.52,1.28-.67,1.27.12-.68.48-1.75.85-2.73.34-.99.66-1.91.81-2.23-.29.29-.66,1.37-.91,2.01-.29.63-.37.84-.12-.6.74-1.92-.73,1.24.3-2.21.29-.41.6-.82.87-1.24.34-1.99-.31-.49.41-3.57.4-1.76.38-.65.36.2-.02.42-.04.77.03.66.07-.11.26-.68.49-2.13.11-.73.15-1.49.16-2.3,0-.81-.07-1.68-.09-2.63-.02-.96-.04-1.98-.07-3.11-.03-1.14.08-2.39.13-3.8-.29-4.84-.78,2.53-.72-4.14-.04,1.42-.21,2.84-.31,4.26-.15-1.1-.41-.41-.3-3.27.18-.91.34-2.7.29-4.25-.05,3.12-.26,1.76-.5.36-.1-.7-.28-1.41-.39-1.58-.13-.17-.16.19-.21,1.63-.01-.71-.1-1.42-.16-2.13,0,.27-.04.34-.09.2l-.31-2.82c.07,1.75.38,5.88-.16,3.99l-.49-4.05c-.18,1.11-.45-.35-.66-.09.23,3.97.35,7.93.07,11.85.18-.46.29-2.16.47-1.53.17,3.17-.34,2.57-.24,5.54l.3-1.29c-.1.23-.15.65-.15,0-.1-1.04.1-1.49.25-1.5.23,1.05-.08,4.05-.43,4.91-.36,3.82.45.85.45,1.7-.31.97-.62,2.55-.83,4.19-.27,1.63-.58,3.32-.96,4.45.25-.46.43-.95.65-1.42-.26,2.97-1.37,5.42-2.04,7l.46-.55c-1.35,3.85-1.45,6.09-3.66,8.49l.36-.3c-.36.76-.8,1.73-1.28,2.67-.48.94-1.08,1.8-1.61,2.42.07.09.04.41-.29,1.01-.41.28-.81.81-1.27,1.54-.23.37-.48.78-.76,1.23-.31.43-.64.9-1,1.41,1.07-1.26,1.17-.53,2.26-1.92-.9,1.75-1.62,2.33-2.25,2.87-.63.54-1.31.92-2.37,2.15-1.09,1.63,1.34-1.15,1.78-1.4-.88.91-1.66,1.92-2.46,2.89-.83.94-1.56,1.96-2.38,2.82-1.57,1.79-3.17,3.24-4.68,3.9l1.46-1.62c-1.64,1.16-2.5,1.8-2.26,1.72.49-.41.72-.48.94-.56-1.11,1.03-2.17,1.87-3.22,2.58-1.07.68-2.07,1.31-3.14,1.84-2.12,1.09-4.26,2.1-6.93,3.52.48-.05,1.29-.39,1.39-.27-2.44,1.42-2.8.47-6.8,2.55l.9-.14c-1.35.67-2.5.8-2.33.67.1.41-2.15,1.25-4.79,2.1-1.33.41-2.74.85-4.02,1.24-1.27.43-2.4.82-3.12,1.22-1.13.05-3.29.23-5.39.46-1.06.08-2.1.18-2.99.29-.9.1-1.66.17-2.13.28-2.75.72,2.51.31,1.53.84-1.1.1-1.95.06-2.93.06-.98-.03-2.09-.06-3.72.09-.05-.43,6.38-1.19.28-1.16-.28.1-.56.17-.85.25.63-.02,1.5-.17,2.38-.15,1.78.18-1.05.34-1.45.48-1.1,0-2.19-.03-3.29-.04-1.1-.02-2.19-.11-3.28-.16-.45-.49,3.45-.21,3.86-.39-1.29.06-2.65.02-4.04.06-1.39,0-2.81-.03-4.22-.08-2.81-.16-5.59-.46-7.92-1.11l.42.26c-2.99-.78-3.89-.86-4.66-.85-.77,0-1.38-.03-3.63-1.09-2.52-.66.74.8-3.01-.42-1.06-.36-.38-.31-.17-.31-2.25-.87-2.77-1.02-3.26-1.11-.48-.1-.92-.21-2.87-1.32l.68.85c-4.8-2.45-9.17-5.99-12.96-8.48,0,.46,2.33,2.08,3.16,2.89-1.25-.94-2.57-2.04-4-3.09-1.38-1.13-2.85-2.23-4.22-3.45-2.78-2.38-5.36-4.93-7.05-7.25,1.35,1.08-1.16-2.53,1.39.05.23,1.05,1.66,2.06,2.97,3.48-.38-.73-1.11-1.7-2.06-2.71-.93-1.02-1.98-2.18-2.98-3.29-1.98-2.25-3.62-4.46-3.5-5.1-.26-.16-.53-.31-.78-.48-.4-.78-1.29-2.8-.4-1.57-.57-.86-1.15-1.72-1.66-2.63-.51-.9-1.08-1.77-1.55-2.7.32,1.06.96,2.65,1.58,4.16.71,1.46,1.44,2.81,2.01,3.31.34.85-.09.36-.52-.16-.41-.53-.84-1.09-.63-.28-1.65-3.95-1.59-2.09-3.54-6.04,1.35,1.54-1.19-4.26-.81-4.2-.31-.64-.71-1.72-1.06-2.78-.33-1.07-.55-2.15-.67-2.75-.42-1.18-1.05-3.14-1.76-5.29-.3-1.09-.6-2.23-.87-3.34-.29-1.11-.43-2.21-.58-3.21.05.76.13,1.75.14,2.53.05.78.04,1.36-.15,1.31-.15-.99-.28-2.02-.45-2.85-.18-.82-.39-1.43-.63-1.59.13,1.77.28,2.8.45,3.43.19.62.38.85.56,1.06.4.41.7.75,1.3,3.89,0,.82.08,1.67.28,2.71.21,1.04.59,2.25,1.06,3.85-.75-1.34-.64-.67-1.15-1.16-.23-2.09-.96-4.63-1.67-7.34-.7-2.71-1.4-5.62-1.48-8.29.03-1.13.25-1.29.4-1.8.17-.51.21-1.35.17-3.87l.26,2.14.36,2.12c-.38-2.33-.31-2.62-.19-2.8.11-.18.28-.27.24-2.21l-.24,1.56c-.19-2.38-.18-3.26.08-4.58-.16.67-.36,1.35-.47,2.03-.11-1.29-.13-3.68.15-3.71-.12-.33-.22-.45-.3-.45.07-.25.15-.86.22-2.37-.1.88-.11,1.52-.25,1.53.21-2.88.09-3.22-.05-3.3-.12-.07-.34.12-.12-1.66-.17.56-.21-.47-.13-1.77.19.04.39-.37.59-1.03.23-.66.48-1.57.72-2.54.22-.97.53-1.99.81-2.87.28-.88.52-1.64.74-2.06l-.02.02c.55-1.5.99-3.03,1.64-4.49-.37.89-.24-.16.13-1.5l-.07.21c.18-.74-.16-.38-.34-.37-.17.02-.25-.34.73-2.43.38-.71.71-1.45,1.14-2.14-.21.38-.14-.04-.1-.27l1.24-2.16c.56-1.84,1.47-3.41,2.61-4.91.55-.77,1.12-1.53,1.74-2.32.61-.79,1.17-1.67,1.81-2.59-.77,1.03-1.86,2.65-1.6,1.81.21-.38.51-.84.84-1.24.34-.4.68-.76.93-.99l-.21.12,1.4-1.61,1.48-1.53c.96-1.04,2.04-1.96,3.06-2.94-.33.15-1.32,1.09-2.07,1.76-.74.69-1.21,1.16-.63.24.6-1.16,2.55-2.71,3.71-3.7,0,.29-1.92,2.34.22.48.17-.32,2.02-2.31.98-1.56,2.32-1.79,5.74-4.28,8.12-5.39.63-.54-.48.12-.86.35l-.14.17c-.75.45-.88.38-1.17.46-.29.08-.72.33-2.01,1.47-.66-.38,3.85-3.19,6.44-4.76l-2.18,1.09c-.72.37-1.42.79-2.14,1.18,3.09-2.75,7.34-5.2,11.8-7.05,4.46-1.87,9.11-3.16,13.05-4.16-1.13.38-2.18.7-2.89.96-.72.26-1.1.46-.88.67,2.43-.62,3.5-.84,4.55-1.09,1.05-.27,2.11-.49,4.57-.95l-.43.06c1.24-.38,2.76-.57,4.17-.75,1.41-.13,2.7-.31,3.52-.62-1.15-.18-3.61.73-3.75.14l3.15-.38,3.16-.26c-2.02-.2-6.32.55-8.7.95-1.71.33,3.47-.51,2.71.03-1.46.21-2.63.4-3.63.52-.99.15-1.8.26-2.52.33-1.45.11-2.52.21-4.02.28-1.84.06,2.42-1.08,3.51-1.29,3.85-.26,9.31-.85,15.19-1.36,1.07-.22,2.15-.37,3.23-.52,1.47.18,1.88.5,2.59.77.7.28,1.7.41,4.31.59l-1.54-.44c1.15-.04,1.91-.02,2.47.02-2.23-.44-4.66-.82-6.73-1.1,1.51-.31,3.7-.19,6.02.2,1.17.16,2.36.43,3.54.67,1.18.25,2.34.49,3.41.72-.21-.12-1.73-.39-2.17-.63,3.28.4,6.59,1.19,9.61,2.19,3.03,1.01,5.79,2.14,8.13,3.11,1.05.25.09-.18-1-.67-1.1-.45-2.34-.96-1.77-1,.62.26,1.27.49,1.91.7.63.23,1.24.46,1.8.66,1.11.39,1.97.77,2.22,1.11-.83-1.03,5.64,2.49,1.18-.12,4.48,1.86,8.93,4.46,12.98,7.56,4.07,3.1,7.71,6.72,10.8,10.47-.17-.48-.07-.58.29-.34-2.2-2.48-5.62-5.94-6.82-7.4,1.91,1.17,3.57,3.78,4.15,4.07-.71-.87-2.32-2.41-2.16-2.64,1.16.86,1.94,1.66,2.62,2.42.65.78,1.17,1.54,1.84,2.29l-.86-.69c.5.6.9,1.1,1.23,1.53.31.44.54.81.73,1.12.38.62.58,1.03.8,1.43.23.4.46.81.88,1.44.41.64,1.1,1.45,2.05,2.78,1.63,1.77.23-.18.56-.47.77,1.35,3.9,5.36,4.18,7.07-.61-1.19-1.33-2.31-2.04-3.45.68,1.23,1.36,2.4,1.9,3.54.56,1.12,1.09,2.14,1.4,3.06,0-.22.02-.41-.2-.97.41,1.04.92,2.2,1.36,3.24.41,1.06.7,2.01.79,2.59l.67.41c-.35-.58-.89-1.78-1.37-2.93-.53-1.12-.97-2.2-.99-2.56.27.08.77,1.07,1.3,2.23.5,1.17.97,2.55,1.32,3.36-1.35-3.65-2.07-5.5-2.72-7.22-.36-.84-.72-1.65-1.19-2.61-.48-.95-1.18-2-2.09-3.39l.46,1.03c-2.46-3.31-4.5-7.07-6.95-9.78.73.71,1,.76.75.34-2.78-2.92-5.64-5.7-8.84-8.32-3.21-2.59-6.74-5.02-10.79-7.14-.72-.6-1.46-1.16-2.22-1.7l-.31.24c-2.03-.94-2.21-1.13-2.19-1.27.02-.14.23-.22-1.11-.79,1.01.45.8.42.97.59-1.15-.62-1.9-.99-2.42-1.21-.53-.2-.82-.26-1.04-.28-.45-.05-.65.04-1.99-.54.58.43,1.87.97,2.84,1.41.96.48,1.6.83.9.8-1.12-.64-2.48-1.19-3.85-1.79-1.38-.56-2.8-1.07-4.09-1.55-1.31-.43-2.47-.86-3.36-1.2-.89-.33-1.48-.62-1.62-.88-4.73-.98-10.07-1.84-15.27-2.24-5.2-.41-10.25-.33-14.31.06-1.09.27.7.04.29.21-1.62-.07-4.3.35-6.54.86-2.25.5-4.08,1.04-4.15.81-1.48.49-2.03.97-2.41,1.19-2.04.31-4.43.93-6.92,1.75l1.85-.51-.18.13-2.62.73.08-.06c-3.07,1.1-6.31,2.5-9.38,4.06-3.06,1.6-6,3.25-8.56,4.81,2.99-1.72-.4.93,1.03.15-.72.29-1.64.74-2.64,1.41-1.01.64-2.15,1.43-3.28,2.37-2.32,1.81-4.65,4.16-6.62,6.37.13.08-.08.5.45.06l-2.45,2.4.43-.23c-1.87,2.42-3.9,4.89-5.53,7.35-.41.61-.83,1.2-1.19,1.8-.35.61-.69,1.19-1.01,1.75-.66,1.12-1.12,2.21-1.48,3.16,1.12-2.24,1.3-2.17,1.62-2.29-1.99,3.9-3.56,7.72-5.15,12.59.11-.25.21-.41.26-.4-.15.65-.37,1.36-.61,2.06-.24.7-.43,1.42-.63,2.08l.3.26c-.17.63-.35,1.31-.5,2.02-.12.72-.25,1.47-.38,2.24-.29,1.53-.44,3.13-.75,4.66.09.62-.08,2.48-.31,4.65-.11,1.08-.14,2.24-.2,3.35-.06,1.11-.04,2.18.06,3.07-.02,1.37.26-2.99.43.84-.35.29-.34,1.53-.23,2.75.11,1.22.2,2.41-.19,2.61.12.56.19,1.12.34,1.67l.45,1.65-.27.81c.62,1.36.77,2.43.92,3.7.07.63.13,1.32.26,2.1.14.78.38,1.64.73,2.66.02-.24-.08-.69.04-.5.16.68.43,1.78.58,2.43.17.64.16.84-.33-.31.18.54.47,1.41.78,2.36.31.95.65,1.98,1.01,2.8.68,1.67,1.14,2.64.69.94-.13.33-1.16-2.72-1.47-4.07.2.03.54.86.91,1.77.41.9.88,1.86,1.21,2.18,0,.12.12.56.19.88l.38.37c1.35,4.08,3.69,7.76,4.94,10.66.17.11.67.68,1.48,1.91l-.33.3c.84,1.28,1.79,2.49,2.72,3.7l-.79-2.09c3.06,3.93,4.93,7,7.87,9.94.32.05.82.44,1.47,1.01.67.55,1.46,1.28,2.32,2.07.87.77,1.85,1.55,2.78,2.27.95.7,1.91,1.26,2.73,1.64-.84-.68-1.7-1.32-2.51-2.02,1.36,1.04,2.49,1.8,3.46,2.44,1,.59,1.85,1.09,2.68,1.58,1.69.92,3.33,1.8,6.14,3.32-1.24-.55-2.17-.96-2.97-1.36-.79-.41-1.47-.76-2.21-1.14-.76-.36-1.55-.83-2.61-1.4-1.07-.55-2.35-1.32-4.07-2.34,6.67,4.36,11.61,7.63,18.61,9.85-.4-.34-2.05-1.11-.33-.63.58.46,2.22.97,3.54,1.44,1.33.43,2.38.73,1.8.8,2.21.51,2.7.18,4.05.45,1.19.41,2.41.75,3.63,1.08,1.21.36,2.45.64,3.68.92l-.22-.12c6.43.5,12.37.87,18.38.82,6-.05,12.07-.71,18.28-2.57l-.3-.17c1.08-.14,2.14-.38,3.21-.57-2.5.51.97-.59,1.09-.86,2.66-.72,5.33-1.51,7.93-2.5.08-.28-.53-.46-2.38.38ZM35.22,142.56l-1.08-1.64c-.25-.31-.45-.66-.64-1.06.22.35.41.72.64,1.06.62.8,1.18,1.31,1.08,1.64ZM114.21,28.73c.88.36-1.33-.18-1.97-.23,1.03.17,2.06.36,3.08.6.45-.03-.66-.25-1.11-.37ZM37.51,140.85l.83.7c.18.42.39.82.6,1.22-.52-.61-.96-1.27-1.43-1.92ZM56.52,159.37c-.72-.53-1.4-1.1-2.1-1.65l.22.08c.69.54,1.36,1.12,2.08,1.62l-.2-.05ZM83.47,172.65c-.17-.05-.32-.1-.51-.16.17.05.34.1.51.16,2.04.64,2.97.18,4.59.98-2.16.09-3.45-.53-4.59-.98ZM41.64,149.85c-.6-.7-.85-1.09-1.31-1.57.17.48,1.2,2.06.26,1.07-.47-.86-2.48-3.3-2.24-3.55.7,1.2,1.61,1.98,2.24,2.61.64.63,1.09,1.04,1.06,1.44ZM22.99,89.74l-.04.69.5-2.48-.46,1.79ZM25.49,78.28c.36-.62.76-1.8,1.26-3.09.23-.65.48-1.33.72-1.99.28-.65.54-1.28.79-1.85-.05-.72-1.41,1.46-2.26,4.28-1.29,3.2.11,1.38-.5,2.64ZM58.36,162.66c-.16-.19-.3-.39-.46-.59.19.1.38.22.57.31l-2.19-1.57c.8.39,1.5.81,2.14,1.22.65.39,1.24.78,1.77,1.16,1.06.77,1.94,1.43,2.73,1.88-1.45-.68-4.85-3.42-4.56-2.42ZM36.71,56.1c1.64-1.9,4.91-4.98,4.83-4.48-.11-.22-.88.24-1.62.95-.76.69-1.57,1.56-1.94,1.98-.38.53-.69.89-1.27,1.55ZM37.37,56.78c-1.21,1.32-1.78,2.09-2.41,2.7-.31.3-.6.59-.94.93-.32.36-.68.76-1.14,1.28.82-1.6,1.59-2.47,2.09-2.9.5-.43.76-.41.75-.16,1.6-1.89,1.12-1.65,1.86-2.75l-.21.9ZM34.04,59c-.26.43-.54.83-.77,1.27-.37.81-.48,1.36-.72,1.93-.24.57-.61,1.16-1.42,2.12.63-1.39,1.42-2.7,2.14-4.05.15-.37.42-.77.77-1.27ZM56.32,38.35c-.46.19-.91.42-1.36.63,1.26-.77,1.46-.77,1.36-.63l1.16-.48c-1.37.86-1.69,1.08-1.67,1.02.02-.06.4-.4.51-.54ZM38.57,53.32c-.98,1.05-1.83,2.21-2.73,3.33.36-.04,1.84-2.28,2.73-3.33ZM55.73,39.23c-.74.51-2.14,1.33-3.2,2.12-1.07.76-1.9,1.34-1.64,1.15.1-.23,1.03-.94,2.07-1.66,1.05-.7,2.24-1.36,2.76-1.6ZM144.51,42.26c-.73-.51-1.44-1.05-2.2-1.51.43.13.86.25,1.28.41l.92,1.1ZM115.88,30.38l.68-.04c.51.1,1.01.23,1.5.37-.72-.14-1.45-.23-2.18-.32ZM87.31,29.39c.13-.09.04-.18-.21-.23-.44.03-.83.03-1.02-.02.39-.05.77-.03,1.02.02,1.15-.08,2.85-.33,3.63-.48-.24-.07-.8-.05-1.39-.03-.59.05-1.2.1-1.55.09,1.28-.41,3.45-.36,5.05-.39,1.6.04,2.66,0,1.79-.56,1.13.04,4.97.37,3.64.58-1.51-.05-3.69.06-5.78.24-1.04.13-2.05.25-2.95.36-.89.14-1.67.3-2.22.43-.12.08-.36.16-.88.24.14-.06.48-.15.88-.24ZM51.7,43.37c-.91.59-1.28.88-1.48.97-.79.5-1.44.82-1.32.53,1.89-1.27.82-.28,1.32-.53.48-.32.99-.65,1.48-.97ZM46.41,47.66c.96-.69,1.87-1.43,2.86-2.08-.53.28-1.03.61-1.54.92.72-.53,1.47-1,2.23-1.47.76-.47,1.49-.97,2.27-1.39-1.18.96-2.48,1.96-3.58,2.69-1.07.77-1.95,1.29-2.24,1.32ZM45.64,48.67l-.72.29,1.01-.55-.28.26.17-.07-2.21,1.98-2.12,2.09,2.04-2.05c.7-.66,1.42-1.3,2.13-1.95ZM24.13,103.43c.55,1.09.66-.24.69-1.98.02-1.74.14-3.89.36-4.46-.33-.25-.84-2.53-.84,3.3-.32-5.04.61-3.13-.07-6.15-.13,2.41-.29,5.32-.34,5.76l-.03-2.85c-.31.8-.23,1.91-.11,3.06.14,1.15.41,2.33.34,3.34ZM32.14,132.86l1.75,3.32-1.6-3.16-.15-.15ZM109.64,171.62c-.14-.1.96-.41,2.25-.65,1.29-.24,2.74-.52,3.34-.39-2.36.51-4.99.78-5.59,1.04ZM146.43,158.08l-1.78,1.11c-.6.36-1.22.69-1.82,1.03.2-.45,1.01-.9,1.93-1.47.91-.57,2-1.15,2.76-1.78.7-.2-.63.6-1.08,1.1ZM164.94,138.29c.25-.37.52-.73.76-1.1-.38.32-.79.63-1.18.93l.41.17ZM163.39,139.48c.11-.42-.2-.03-.63.51-.43.53-.95,1.24-1.12,1.52.58-.67,1.2-1.33,1.75-2.03ZM171.81,116.91l-.33,1.69.79-1.43-.46-.26ZM171.77,119.71c-.41.32-.78.05-1.62,3.92.28.26.6-.78.56.76.47-1.23.59-2.33.74-2.96-.29.85-.43,1.91-.72,2.08.25-1.47.75-2.92,1.04-3.8.15-.11.3-.3.46-.81-.11-.01-.28.3-.46.81ZM167.28,133.47c-.18.5-.35.93-.4,1.14l-.19.17c.13-.55.37-.95.59-1.31.21-.54.46-1.17.71-1.82-.09-.52-1.4,1.87-1.89,2.42.65-1.11,1.38-2.01,1.93-3.65-.17.17-.13-.04-.58.94.33-.72.59-1.46.86-2.2,1.37-2.37.6.1-.32,2.49.03.1,0,.3-.13.77-.13.39-.36.7-.58,1.05ZM173.69,115.29l-.29,1.29c-.23.65-.27.2-.4.42.29-1.51.79-3.48.7-1.71ZM122.15,169.86c.82-.31-1.22-.12-3.12.42.31-.21.61-.44.92-.67.12.28,3.93-.74,4.35-.88.78.18-.73.5-2.15,1.14ZM38.79,144.11c-.03-.88-3.21-4.8-3.59-5.89.69,1.11,2,2.82,2.86,4.16.94,1.29,1.5,2.21.73,1.72ZM33.71,136.92c-.7-1.2-.89-1.55-.59-1.55-.21-.65-.86-1.54-1.08-2.19,1.5,2.25.99,2.33,1.67,3.74.18.31.39.67.65,1.12-.31-.47-.49-.81-.65-1.12ZM75.51,169.43l1.66.91c.93.28,1.88.46,2.81.69l-2.26-.76-2.22-.84ZM106.19,173.53c-.25-.22,3.06-.48,3.76-.48-.24-.25-2.46-.03-4.23.09-.23-.01-.6-.01-1.17.01.35,0,.73,0,1.17-.01.67.02.22.21.22.32l-.88.14c.82,0,1.64-.06,2.46-.1l-1.35.03ZM156.01,152.54c1.26-1.59,1.46-1.72,2.47-2.63-.22.39-1.42,1.74-2.47,2.63ZM89.63,173.39c3.36.24-1.55-.65.66-.55l-1.75-.17c2.87-.01,1.98.62,3.99.69-.45-.01-.9-.02-1.34-.06-.54.08-.04.2.64.31.68.09,1.52.19,1.63.32-1.59.05-5.17-.65-3.83-.54ZM158.38,150.4c1.05-1.32,1.52-1.83,1.97-2.14.43-.33.82-.47,1.48-1.26-.74,1.14-1.2,1.51-1.64,1.86-.47.33-.89.67-1.81,1.54ZM110.93,174.24l-.2.08c.91-.07,1.83-.1,2.74-.19l.21-.09c-.91.11-1.83.13-2.74.2Z"/>
        <path class="cls-6" d="M158.76,145.29c.47-.64.78-1.06,1.07-1.38-.33.45-.67.92-1.07,1.38Z"/>
        <path class="cls-6" d="M31.98,128.87c-.11-.03-.25-.27-.42-.61.06.02.16.18.42.61Z"/>
        <path class="cls-6" d="M29.91,122.94c-.03-.08-.05-.16-.08-.23-.01-.05-.03-.13-.04-.19l.11.42Z"/>
        <path class="cls-6" d="M166.2,69.46c.23,1.4-.59-1.17-1.15-2.11.51.96.97,1.21,1.15,2.11Z"/>
        <path class="cls-6" d="M162.53,61.63c.27.61.67,1.45,1.23,2.43-.38-.6-.74-1.29-1.23-2.43Z"/>
        <path class="cls-6" d="M165.92,67.83c-.87-1.45-1.54-2.75-2.16-3.77.61.93,1.17,1.69,2.16,3.77Z"/>
        <path class="cls-6" d="M146.68,44.65c.46.52,1.25,1.12,1.87,1.66.62.53,1.14.94,1.14.94-4.47-3.51.6,1.07.81,1.51-2.6-2.36-2.43-2.6-3.82-4.11Z"/>
        <path class="cls-6" d="M140.53,40.27c.5.31.98.6,1.37.8-.5-.24-.94-.52-1.37-.8Z"/>
        <path class="cls-6" d="M138.58,39.39c-1.69-1.02-2.18-1.58-2.9-2.16,1.13.44,1.95.99,2.7,1.51.74.53,1.43,1.02,2.15,1.54-1.18-.76-2.39-1.4-1.94-.88Z"/>
        <path class="cls-6" d="M80.02,32.43c.44-.06,1.49-.29,1.55-.15-1.06.23-2.12.44-3.16.73-1.28.25.98-.43,1.61-.57Z"/>
        <path class="cls-6" d="M68.31,35.28c-2.44.95-1.04.77-2.29,1.22l-.06-.52c.77-.26,1.57-.46,2.35-.7Z"/>
        <path class="cls-6" d="M68.79,32.37l.77-.21c-.28.09-.56.18-.87.28l.1-.07Z"/>
        <path class="cls-6" d="M57.25,41.22c.6-.16,1.23-.27,1.83-.41-1.97.92-2.19.62-1.83.41Z"/>
        <path class="cls-6" d="M49.37,47.18c.42-.28.87-.53,1.3-.8-1.31.89-2.5,1.92-3.75,2.89l2.45-2.1Z"/>
        <path class="cls-6" d="M40.71,55.29l-.18.39c-.76.78-1.42,1.64-2.13,2.46.76-.96,1.49-1.95,2.32-2.86Z"/>
        <path class="cls-6" d="M67.62,164.83c.14.32-.98-.1-2.31-.67-1.3-.63-2.82-1.37-3.52-1.71,1.19-.02,3.65,2.11,5.83,2.38Z"/>
        <path class="cls-6" d="M155.9,148.82c-1.15,1.2-2.4,2.31-3.64,3.42,1.35-1.39,1.54-1.57,1.77-1.74.23-.16.48-.3,1.87-1.68Z"/>
      </g>
    </g>
    <path class="cls-6" d="M58,105h8c1.94,38.08-10.92,40.34,33.5,39,44.44,1.36,31.56-1.01,33.5-39h7s0-20.24,0-20.24c.16-5.37-6.14-8.44-11.68-7.76,14.79-14.3-6.67-28.65-19.36-15.51-3.48,3.42-7.99,6.96-9.96,9.39-1.96-2.42-6.48-5.97-9.96-9.39-12.7-13.15-34.15,1.22-19.36,15.51-5.54-.68-11.84,2.38-11.68,7.76,0,0,0,20.24,0,20.24ZM126.79,69.96c-3.24,7.5-17.71,6.07-22.89,5.78,1.1-1.71,5.49-5.81,9.42-9.44,4.2-5.06,16.88-4.89,13.47,3.66ZM102,105h24c-2.02,38.6,9.68,32.71-24,33v-33ZM102,83c2.15.73,31.94-1.83,32,1.71,0,0,0,14.29,0,14.29h-32s0-16,0-16ZM94.4,75.74c-5.17.29-19.66,1.71-22.89-5.78-2.06-4,1.11-7.31,5.31-7.13,6.4-.48,15.06,10.14,17.58,12.91ZM72,105h24s0,33,0,33c-33.67-.29-21.98,5.6-24-33ZM64,99v-14.29c-.04-3.53,29.99-.99,32-1.71v16s-32,0-32,0Z"/>
  </g>
</svg>