<svg id="Illustration" xmlns="http://www.w3.org/2000/svg" viewBox="0 0 200 200"><defs><style>.cls-1{fill:none}.cls-2{fill:#f6c243}.cls-5{fill:#ffd066}.cls-6{fill:#ff8000}.cls-7{fill:#ff8e1d}.cls-9{fill:#b4cacc}</style></defs><path d="M187.51 166.7c-.81-3.05-1.52-6.02-1.79-9.17-.13-1.6-.37-3.27-1.32-4.61-.94-1.33-2.31-2.21-3.97-2.24-.91-.02-1.54.74-1.59 1.59-.3 4.55-1.76 8.97-4.18 12.83-2.25 3.6-5.37 6.65-8.36 9.69-.92-2.02-1.67-4.07-1.88-6.34-.28-2.9-.81-5.56-2.52-7.99-.6-.86-2.23-1.2-2.76 0-.97 2.25-3.42 3.53-4.93 5.39-1.69 2.08-2.93 4.44-4.12 6.83-1.71 3.45-3.63 7.57-7.04 9.68-.17-5.82-1.27-11.75-4.85-16.47-1.79-2.35-4.05-4.32-6.77-5.49-1.27-.55-2.78-.93-3.8-1.91-.98-.95-1.42-2.32-1.9-3.56-.62-1.62-1.35-3.19-2.69-4.34-1.38-1.18-3.12-1.84-4.92-1.28-.6.18-1.26.84-1.17 1.54.67 5.28-3.63 9.21-7.33 12.25-2.05 1.68-4.15 3.32-5.88 5.34-1.83 2.13-3.05 4.64-4.64 6.94-1.15 1.68-3.01 3.61-5.17 3.94.28-5.77-.96-11.56-3.49-16.75-1.38-2.85-3.2-5.43-5.29-7.8-1.77-2.01-3.91-4.08-4.72-6.71-.4-1.3-.24-2.64-.5-3.95-.28-1.5-1.39-2.76-2.95-2.92-3.26-.34-5.25 3.63-6.65 5.96-1.57 2.62-3 5.34-4.75 7.84a22.625 22.625 0 0 1-6.56 6.26c-5.17 3.27-12.02 6.26-14.05 12.46-.83-1.44-1.86-2.74-3.12-3.85-1.93-1.68-4.32-2.57-6.33-4.11-3.66-2.81-4.69-7.9-8.45-10.64-1.86-1.36-4.86-1.71-6.12.64-.63 1.18-.41 2.45-.3 3.71.12 1.38.08 2.77-.06 4.15-.49 5.14-2.43 10.2-1.77 15.41.59 4.67 2.66 9.53 6.74 12.17.12.1.26.18.42.24.29.13.57.16.82.11h153.28c.38 0 .69-.11.94-.29.11-.06.22-.13.33-.23 2.1-1.88 4.12-3.92 5.58-6.35 1.56-2.59 2.25-5.56 2.2-8.58-.05-3.19-.81-6.31-1.63-9.37l.02-.02Z" style="fill:#78577a" id="Back_fire"/><path d="M190.79 67.61c-2.1-5.37-6.17-9.44-11.27-12.05-2.61-1.33-5.39-2.13-8.13-3.15-2.63-.98-4.97-2.45-6.12-5.12-1.1-2.55-1.1-5.47-1.1-8.19 0-3.2-.02-6.4-.67-9.54-1.08-5.29-4.46-10.76-10.05-12.08-5.54-1.32-10.61 1.98-15.82 3.23-2.68.64-5.36.55-7.84-.74-2.64-1.37-4.72-3.58-6.54-5.88-3.65-4.6-6.9-9.96-12.85-11.8-2.61-.81-5.55-.72-7.94.69-2.22 1.3-3.84 3.61-4.41 6.11-1.22 5.28 2.45 10.59 7.59 11.93 2.92.76 6.15.33 8.79 1.99 2.15 1.36 3.69 3.82 3.82 6.38.07 1.52-.34 2.95-1.57 3.91-1.07.83-2.42 1.24-3.72 1.56-3.31.83-6.75.99-10.07 1.76-2.67.62-5.29 1.68-7.4 3.46-2.32 1.96-3.44 4.73-4.03 7.65-1.28 6.3-2.08 13.27.06 19.46 1.69 4.87 5.36 9.33 10.39 10.93 3.07.97 6.25.5 9.37.08 2.91-.4 6.35-.79 8.93.94 1.86 1.23 3.16 4.05 1.57 5.99-.45.55-1.06.96-1.69 1.3-.03 0-.05 0-.08.01-3.95.99-7.67 3.1-10.24 6.12-2.18 2.31-3.62 5.2-3.57 8.55.01.98.16 1.95.45 2.87 1.21 5.4 6.17 9.58 10.94 12.11 12.5 6.64 27.51 4.39 39.79-1.51 7.32-3.51 13.97-8.24 20.39-13.16 6.52-4.24 11.8-10.36 13.8-18.01 1.34-5.16 1.18-10.82-.77-15.81h-.01Z" style="fill:#e8f8f9" id="Layer_13"/><g id="Cooking_pot"><path d="M198.48 110.71c-.04-.77-.09-1.54-.16-2.31-.09-1-.09-2.16-.81-2.94-.93-.99-2.37-.91-3.53-.45-1.4.56-2.75 1.33-4.1 2l-17.4 8.64c-1.25.62-.9 2.1.03 2.69l-.51 16.22c-.46.21-.93.41-1.39.63-.79.36-.98 1.49-.57 2.18.47.81 1.4.93 2.18.57 5.02-2.3 10.13-4.42 15.15-6.74 2.36-1.09 4.75-2.18 7.01-3.46 1.01-.58 1.98-1.26 2.71-2.18.86-1.09 1.23-2.37 1.39-3.73.43-3.64.18-7.48 0-11.12Z" style="fill:#cc5e05"/><path class="cls-2" d="M27.17 139.43c1.2 9.62 2.93 19.17 5.18 28.6.47 2 3.55 1.15 3.08-.85-2.19-9.15-3.9-18.42-5.07-27.75-.11-.86-.66-1.59-1.59-1.59-.78 0-1.7.74-1.59 1.59Z"/><path class="cls-2" d="M174.01 104.68c-.25-.34-.66-.58-1.21-.58H26.79c-.9 0-1.41.62-1.52 1.31-.04.14-.07.29-.07.45-.03 4.38.05 8.76.25 13.13.04.86.71 1.59 1.59 1.59.54 0 1.06-.31 1.35-.75l2.93 1.81s2.2 19.6 2.74 19.88c.53.28-5.29-2.08-5.29-2.08.91 9.3 5.13 28.17 5.53 28.77s41.85-.6 41.85-.6l88.18.58c.64 1.06 2.54 1.22 2.91-.32 3.8-15.87 6.11-32.1 6.88-48.41.21-4.58.3-9.18.28-13.77 0-.43-.15-.76-.37-1.01Z"/><path class="cls-5" d="M164.16 166.95c-4.7 5.6-10.54 10.06-16.96 13.53-1.81.98-.2 3.73 1.61 2.76 6.63-3.59 12.75-8.24 17.61-14.02.55-.66.64-1.61 0-2.25-.57-.57-1.7-.66-2.25 0Z"/><path class="cls-6" d="M35.57 140.84 34.1 130.1l-.96-6.93c-.08-.57-.13-1.15-.23-1.71-.01-.08-.01-.16-.04-.24-.22-.81-1-1.08-1.68-1.42l-1.89-.94-14.33-7.12-7.09-3.52c-1.84-.91-5.53-3-6.56.13-.48 1.46-.39 3.29-.46 4.81-.09 1.79-.13 3.59-.13 5.37 0 1.57-.03 3.17.1 4.74.2 2.47 1.11 4.4 3.17 5.85 2.06 1.45 4.52 2.45 6.8 3.52 2.53 1.19 5.09 2.32 7.65 3.44 4.97 2.18 9.97 4.32 14.8 6.8.39.21.87.29 1.26.19.6-.17.94-.59 1.07-1.1.14-.36.16-.76 0-1.11Z"/><path class="cls-5" d="M107.7 168.21s-61.44-.01-71.28 0c-.34-.38-.68-.74-1-1.13-.55-.66-1.69-.57-2.25 0-.65.65-.55 1.59 0 2.25 4.84 5.76 10.92 10.41 17.52 13.98.19.13.43.21.7.24h.06c.05 0 .08.02.13.02 13.06 0 26.11-.01 39.17-.04 11.12-.02 22.24-.05 33.37-.06 7.96 0 15.93-.01 23.89-.01 1.41 0 1.85-1.51 1.32-2.45 2.48-1.6 7.72-5.04 9.57-6.52 2.44-1.96 6.29-6.28 6.29-6.28H107.7Z"/><path class="cls-2" d="M34.29 169.76c16.93 0 33.88-.01 50.81-.03 17.35-.01 34.71-.04 52.07-.04h28.12c2.05 0 2.05-3.19 0-3.19-16.93 0-33.88.01-50.81.03-17.35.01-34.71.04-52.07.04H34.29c-2.05 0-2.05 3.19 0 3.19ZM27.49 114.02h145.3c2.05 0 2.05-3.19 0-3.19H27.49c-2.05 0-2.05 3.19 0 3.19Z"/></g><g id="Top"><path d="M169.08 63.16c-15.28-6.4-30.7-12.62-47.17-15.21-4.7-.74-9.45-1.2-14.21-1.3-1.48-.03-1.89 1.62-1.23 2.56-.24.58-.64 1.41-1.64 2.45-1.91 1.98-1.61.59-4.34 1.66-2.73 1.07-11 1.37-15.75 1.74-2.73.21-4.28-.88-5.11-1.85 1.43-.84.58-3.41-1.25-2.9C62.29 54.82 47.83 63.45 34.4 73.2c-3.83 2.78-7.6 5.64-11.37 8.5-.69.52-1.04 1.37-.57 2.18.4.67 1.49 1.1 2.18.57l1.77-1.35 12.83-1.55 88.27-11.34 38.05-5.08c.89.37 1.79.74 2.68 1.12.79.33 1.76-.36 1.96-1.11.26-.92-.32-1.63-1.11-1.96Z" style="fill:#c1dade"/><path class="cls-6" d="M108.51 46.58c-.03-.19-.08-.38-.16-.57-.02-.06-.06-.1-.08-.15 0-.01-.02-.02-.02-.04-1.09-2.12-3.59-2.93-5.75-3.49-2.17-.56-4.52-.97-6.45-2.13.03-.05.05-.09.08-.14.01-.02.02-.03.03-.05.06-.06.12-.13.18-.19.02-.02.13-.11.18-.15.04-.03.09-.06.1-.07.19-.13.4-.24.6-.34.39-.2.8-.37 1.2-.55a37.55 37.55 0 0 0 3.47-1.75c.09-.04.18-.08.27-.14.1-.06.2-.13.3-.2.34-.2.68-.41 1.02-.62.29-.18.51-.46.65-.78.57-.66.96-1.45 1.01-2.42.09-1.88-1-3.55-2.04-5-1.97-2.75-4.46-5.29-7.59-6.67-3.41-1.51-7.06-1.39-10.44.15-3.34 1.53-5.92 4.43-7.65 7.62-1.05 1.95-2.15 4.24-1.91 6.51.19 1.84 1.33 3.6 3.11 4.21.11.06.22.12.35.15 1.87.53 3.78.86 5.71 1.04.7.06 1.54.18 1.99.42.11.06.21.13.31.2 0 .01.11.11.2.19 0 0 0 .01.02.03-.21.21-.42.4-.64.59-.04.04-.39.3-.16.13l-.38.28c-.26.18-.52.35-.79.52-1.01.64-2.06 1.24-3.1 1.84-.96.55-1.93 1.17-2.69 1.98-.82.87-1.3 1.86-1.53 2.97-.04.09-.07.18-.08.27-.01.08 0 .16-.02.25 0 .06-.02.12-.03.18v.17c-.04 1.88.97 4.09 2.55 5.06 1.21.74 2.75.81 4.12.75 1.52-.06 3.05-.18 4.57-.33 3.03-.3 6.06-.72 9.06-1.3 1.51-.29 3.02-.61 4.51-.98 1.29-.31 2.64-.67 3.76-1.41 1.88-1.25 2.77-3.87 2.18-6.05Z"/><path class="cls-2" d="M175.43 70.92c.26-.72.33-1.51.24-2.25-.13-1.07-.43-2.14-1.03-3.05a5.544 5.544 0 0 0-2.61-2.15c-.95-.37-2.14-.42-3.08-.03-8.65 1.1-17.3 2.2-25.95 3.29l-29.43 3.72-30.38 3.84-29.67 3.75c-8.95 1.13-17.9 2.27-26.85 3.41-1.01.13-2.01.26-3.02.38-.13.02-.26.05-.39.09-1.03-.08-2.03.12-2.9.72-.98.68-1.69 1.64-2.08 2.79-.61 1.78-.45 4.25.88 5.71.27.53.81.96 1.4.88l27.07-3.44 31.18-3.97 32.66-4.16 31.51-4.01 27.84-3.54 2.84-.36c.13 0 .27-.03.39-.06.76-.17 1.38-.69 1.38-1.55Z"/></g><g id="Layer_15"><path class="cls-1" d="m22.75 81.87 9.65-1.2 2.78-.35c-2.13-.84-4.15-1.91-5.97-3.32-3.78 2.81-6.45 4.87-6.45 4.87ZM128.11 68.6c3.44-.45 5.75-.74 5.75-.74s9.93-1.25 17.82-2.25c-1.22-.8-2.42-1.63-3.56-2.52-4.68-3.61-9.39-7.66-13.19-12.29-2.83-.74-5.89-1.44-10.17-2.28-8.19-1.62-16.05-1.71-16.05-1.71.46 3.23-1.08 5.21-2.45 6.04-.45.27-1.28.59-2.34.91 4.99 1.68 9.86 3.66 14.32 6.48 3.69 2.33 7 5.16 9.88 8.35ZM99.37 71.64c-9.79-3.41-20.6-5.22-29.5-10.76a30.622 30.622 0 0 1-6.24-5.12c-4.06 1.91-8.65 4.34-13.94 7.23-.87.47-1.85 1.06-2.89 1.7 5.54 1.38 10.94 2.44 16.08 5.36a39.85 39.85 0 0 1 7.75 5.77l1.52-.19s22.08-2.78 25.91-3.2c.47-.05 1.39-.16 2.62-.31-.43-.16-.86-.32-1.3-.47Z"/><path class="cls-9" d="M46.8 64.69c-5.32 3.3-12.48 8.49-17.61 12.3 1.82 1.41 3.84 2.48 5.97 3.32l35.46-4.49a39.449 39.449 0 0 0-7.75-5.77c-5.14-2.91-10.54-3.98-16.08-5.36ZM69.87 60.88c8.9 5.55 19.72 7.35 29.5 10.76.43.15.87.31 1.3.47 6.02-.74 19.65-2.51 27.44-3.52a47.2 47.2 0 0 0-9.88-8.35c-4.47-2.82-9.33-4.8-14.32-6.48-2.2.67-5.42 1.4-8.55 1.87-4.66.71-13.93 2.37-15.99-.25-2.05-2.62-1.65-4.91-1.65-4.91s-1.37.33-7.03 2.33c-2.18.77-4.51 1.76-7.05 2.95 1.79 1.93 3.89 3.66 6.24 5.12ZM148.11 63.09c1.15.89 2.35 1.71 3.56 2.52 3.77-.47 7.07-.89 8.59-1.08 4.7-.58 9.09-1.25 9.09-1.25s-20.32-8.19-26.51-10.15c-2.95-.93-5.34-1.65-7.91-2.33 3.8 4.63 8.5 8.67 13.19 12.29Z"/></g><path class="cls-7" d="M186.47 182.09c-.15-1.6-.56-3.17-1.24-4.64h.01c-8.01-8.97-11.63-19.82-13.18-31.32-4.48-8.78-9.44 4.92-12.6 8.1-6.81 3.45-11.59 9.4-14.28 16.55-.01.03-.03.06-.04.08v-.01c-6.11 17.66-5.49.18-14.45-3.38-4.95-6.3-11.38-6-12.59 2.74-2.36 5-8.37 8.13-9.43 13.89 1.22-13.17-4.73-16.44-7.02-27.67-.02.04-.06.08-.09.11 1.77-4.67-7.05-20.98-9.48-9.61-.94 9.12-13.86 11.49-15.1 21.15-.61-14.37-10.8-4.34-12.58 4.08-3.83 15.85-5.29 13.82-8.26.8-.16-.37-.33-.74-.51-1.1h.02c-.14-.27-.3-.48-.4-.73v.02c-27.32-34.35-1.97 24.41-27.3 1.41-2.72-2.45-3.77-5.93-5.15-9.2-.19-.52-.38-1.17-.54-1.61-.42-1.01-.5-2.08-.86-2.65-.5-1.31-.82-2.63-1.5-3.83-7.23-24.33-19.19 29.52-2.21 36.31 2.69 1.91 6.06 3.35 9.32 3.48 0 0-.01 0-.02-.01 6.41.69 14.56-.12 21.58 0-.05.03 1.05-.02 1.1 0l-.02.02c.23 0 .72-.03.97-.02-.06.03.21 0 .2.01 0 0-.01 0-.02-.01.61 0 1.09.05 1.71.01v-.01c.99.08 1.72.28 3.15.01.38-.05 1.82.03 2.16-.01-.06 0-.11.02-.17.03 2.57-.08 5.13.16 7.83-.03 29.62.08 63.77.67 94.85.01l-.01-.01h.82s-.01 0-.02.01c9.68.57 28.17 2.56 25.37-12.98Z"/><path class="cls-7" d="M145.14 170.79v.06c.01-.02.02-.05.03-.07h-.04Z"/><path d="M167.63 115.61c-.01-.81-30.02-.99-67.01-.4-37 .59-66.98 1.73-66.96 2.53s30.02.99 67.01.4c37-.59 66.98-1.73 66.96-2.53Z" style="fill:#fff"/></svg>