<svg id="Illustration" xmlns="http://www.w3.org/2000/svg" viewBox="0 0 200 200"><defs><style>.cls-2{fill:#f2a6b0}.cls-3{fill:#f6c243}.cls-5{fill:#ea718b}.cls-6{fill:#ede4d6}.cls-7{fill:#fff}.cls-8{fill:#ff8000}.cls-10{fill:#5b3d5b}</style></defs><path class="cls-10" d="M73.83 49.29c-.2-.11-.39-.25-.58-.39.32-.35.42-.83.34-1.35-.03-.18-.03-.21-.01-.1 0-.08-.02-.16-.03-.24-.02-.16-.04-.32-.05-.48-.04-.35-.06-.7-.07-1.05-.03-.67-.03-1.35 0-2.03.06-1.4.23-2.46.57-3.86.02-.1.04-.2.04-.31.29-.55.29-1.25-.21-1.71-.53-.49-1.51-.61-2.03 0-.18.21-.37.41-.57.59-.06.05-.27.18-.31.25-.05.03-.09.06-.14.1-.47.32-.98.59-1.5.84-.13.06-.26.11-.38.17-.06.03-.13.06-.19.09-.04.01-.25.11-.07.03s-.04.01-.07.03c-.06.03-.13.05-.19.08-.13.05-.26.11-.39.16-.3.12-.6.24-.91.34-.15.05-.31.1-.47.14l-.24.06c-.06.01-.36.06-.04.01-.39.05-.72.13-1.01.42-.13.13-.24.29-.31.47-.21.32-.29.71-.15 1.09 1.51 3.76 4.1 6.94 7.53 9.12.63.4 1.6.15 1.96-.52.37-.71.16-1.53-.52-1.96ZM70.95 38.6s-.02.02-.03.02c.03-.06.19-.14.03-.02Z"/><g id="Layer_6"><path class="cls-6" d="M22.86 116.68s-6.68 8.32-9.32 13.79c-2.64 5.46-4 7.9-4.43 11.23-.44 3.34-1.53 10-.8 11.12.73 1.12 2.21 2.81 4.48 3.93 2.26 1.12 6.47 3.48 10.07 4.57 3.6 1.09 24.39.51 24.75 1.01.35.5 3.9 0 3.9 0s3.82 4.04 7.48 4.93c3.66.9 5.36 1.1 5.36 1.1s1.93 5.09.87 7.41c-1.05 2.33-5.13 6.7-5.13 6.7s11.07-.01 11.5.14 12.92-.14 12.92-.14 2.18-1.35 3.6-4.38c1.43-3.02 1.85-3.96 1.54-5.63-.31-1.67-1.05-5.38-1.05-5.38l3.78.92s1.93-1.58 1.53-3.32c-.4-1.74-1.53-2.83-1.53-2.83s-5.79 1.59-8.67 0c-2.87-1.59-7.86-4.44-10.84-6.57-2.99-2.13-8.54-6.42-11.11-7.41-2.56-.99-9.15-4.78-10.27-4.95-1.12-.16-6.17-2.1-5.57-2.56.6-.46 5.57-7.97 5.57-7.97s-12.78-8.3-14.97-9.35c-2.19-1.05-13.67-6.35-13.67-6.35h-.01ZM131.31 159.37s-2.84.37.04-8.19c2.87-8.56 6.8-21.61 8.33-26.26 1.53-4.66 2.79-9.48 6.1-15.18 3.31-5.69 6.37-10.34 6.37-10.34h-3.42s5.24-16.57 6.82-20.21c1.57-3.64 5.92-12.66 5.92-12.66s14.88 1.78 19.16 4.17c4.27 2.39 10.61 6.68 12.71 8.47 2.11 1.79 3.32 3.07 3.32 3.07s-1.4 3.4-2.23 8.11c-.83 4.71.09 5.31-2.9 8.9-2.98 3.6-3.05 3.13-5.85 6.09s-10.46 6.49-10.46 6.49l-2.21 1.17s1.52-2.36.04-4.71-.72-4.63-2.92-3.7c-2.19.92-5.24 5.74-5.24 5.74l-5.92 9.26s2.01 7.02 2.29 11.12c.28 4.1.35 7.75-.29 8.49-.64.74-1.58.92-3.29 2.41-1.71 1.5-2.31 1.54-3.72 2.37-1.41.83-2.72-.06-3.56.92-.84.97-1.28 2.17-3.09 2.11s-5.09-1.56-5.09-1.56-4.21 6.22-4.98 7.36c-.77 1.15-5.95 6.55-5.95 6.55v.02ZM93.94 98.56S77.79 79.5 77.79 78.81s-2.49-14.62-3.02-18.69c-.53-4.06-.82-17.51-.82-17.51s4.86-7.36 8.83-9.01c3.98-1.66 12.05-4.56 15.79-4.1 3.73.47 8.8.82 11.47 2.51 2.66 1.69 4.83 3.82 4.83 3.82s-1.04 9.6-3.38 14.18-1.71 5.57-3.07 6.69c-1.35 1.12-4.14 1.89-4.14 3.31s1.34 12.5 1.34 12.5-7.59 19.35-8.01 20.21c-.41.87-3.67 5.83-3.67 5.83Z"/><path class="cls-2" d="M16.34 114.88c.61-.8 6.44-9.07 13.67-15.35 7.23-6.28 15.28-12.26 22.97-16.43C60.67 78.92 76.27 73 76.27 73l17.68 21.98 13.03-27.61s25-4.7 35.94-6.24c10.94-1.54 21.22-.03 21.22-.03s-6.02 12.25-8.58 18.08c-2.56 5.82-6.82 20.21-6.82 20.21l-2.25 7.07s-2.1-1.51-4.25-2.06c-2.16-.54-3.69.18-3.69.18l2.61 13.89s-6.5 21.04-7.37 25.5c-.87 4.47-3.73 8.95-3.72 11.19s1.25 4.18 1.25 4.18l-.42 2.97-12.43 16.82.59-4.97-14.76-3.21-10.34-2.49s1.06-3.53.47-4.83c-.59-1.31-2.01-1.78-2.01-1.78s-4.47 1.45-7.51 0-15.43-9.65-17.67-11.21c-2.24-1.56-6.71-5.84-7.69-5.19s-3.37-1.98-3.37-1.98l.04-7.19s-5.77-6.85-13.67-10.27c-7.91-3.42-14.93-6.95-16.54-7.53-1.61-.58-9.67-3.6-9.67-3.6Z"/></g><path class="cls-10" d="M107.35 31.15c-1.28-.32-2.56-.64-3.85-.95-1.28-.31-2.71-.73-4.09-.72-2.59.04-5.32 1.01-7.71 1.93-.72.28-1.22.97-1 1.76.19.69 1.04 1.27 1.76 1 1.13-.43 2.28-.82 3.45-1.14.71-.2 1.44-.4 2.18-.53l-.8 1.51c-.18.34-.25.73-.14 1.1.09.33.35.69.66.86.33.18.74.26 1.1.14.34-.11.68-.33.86-.66l1.52-2.86c.54.12 1.07.27 1.6.4 1.24.29 2.48.6 3.71.91 1.79.45 2.55-2.31.76-2.76Z"/><g id="Layer_3-2"><path class="cls-10" d="M79.25 161.05c4.3 2 9.04 2.92 13.77 2.52l-1.39-.79c.79 1.23.95 2.75.32 4.06-.38.78-.21 1.74.58 2.21.71.42 1.82.21 2.21-.58 1.15-2.33 1.1-5.09-.32-7.31-.29-.45-.82-.85-1.39-.79-4.15.35-8.36-.32-12.15-2.08-.79-.37-1.73-.22-2.21.58-.41.69-.21 1.83.58 2.21Z"/><path d="m116.2 34.61-1.32-22.62c-.01-.25-.1-.46-.23-.62a1.38 1.38 0 0 0-.45-.57c-4.23-3.15-8.7-5.96-13.39-8.38-.31-.16-.61-.16-.87-.06-.23-.19-.54-.28-.92-.16C89.52 5.14 80.41 9.32 72 14.62c-.14.09-.24.19-.32.3-.3.16-.51.46-.48.9l1.38 26.51c.02.45.27.75.59.91.44.57 1.35.75 1.71-.08 2.32-5.29 7.27-8.65 12.64-10.34 3-.95 6.14-1.45 9.27-1.72 3.19-.26 6.44-.22 9.54.62 3.02.82 5.78 2.42 7.77 4.86.78.95 2.05-.15 1.72-1.15.24-.17.39-.44.37-.83Z" style="fill:#f75e28"/><path class="cls-10" d="M120.21 41.97c-.1-.31-.3-.59-.62-.75-.28-.14-.56-.3-.82-.47l-.31-.22c-.07-.06-.14-.11-.21-.17-.23-.2-.44-.41-.64-.63-.1-.11-.2-.22-.29-.34-.01-.04-.11-.14-.13-.16-.17-.24-.34-.5-.48-.76-.08-.14-.16-.29-.23-.44-.03-.05-.05-.11-.07-.17-.04-.11-.07-.22-.11-.34.15-1.55.2-3.11.12-4.66-.04-.84-.71-1.65-1.61-1.61-.84.04-1.65.71-1.61 1.61.06 1.08.03 2.16-.02 3.24a1.6 1.6 0 0 0-.02.49c-.01.15-.01.3-.02.44l-.09.99c-.02.19-.05.39-.07.58-.01.11-.01.11 0-.01-.01.11-.03.22-.05.33-.11.73-.24 1.45-.38 2.17 0 .04 0 .09-.01.13-1.14 5.55-3.13 11.43-7.05 15.64-3.6 3.87-8.97 5.21-14.05 3.84-2.85-.77-5.34-2.37-7.18-4.68-.1-.13-.23-.22-.37-.3-.07-.09-.14-.19-.21-.28-.19-.26-.37-.53-.54-.79-.34-.54-.65-1.1-.93-1.68-.07-.14-.14-.29-.2-.44-.03-.06-.06-.12-.08-.19-.12-.3-.23-.58-.33-.89-.21-.61-.38-1.22-.52-1.85-.19-.82-1.18-1.38-1.98-1.12-.86.28-1.32 1.1-1.12 1.98.64 2.87 2 5.5 3.84 7.79.11.13.25.23.4.3 3.91 4.71 10.4 6.6 16.34 5.62 6.36-1.05 10.81-5.87 13.55-11.45.45-.92.87-1.87 1.25-2.82 2.98-1.3 5.48-3.54 6.93-6.47.22-.45.23-1.01 0-1.44ZM81.89 52.35c.05.12.05.12 0 0Zm35.33-13.09c-.05-.06-.04-.06.01.02 0 0 0-.01-.01-.02Z"/><path class="cls-2" d="M147.6 180.4c.04.62.08 1.25.11 1.88.01.29.11.55.32.76.19.19.49.33.76.32s.57-.1.76-.32c.19-.21.33-.47.32-.76-.04-.62-.08-1.25-.11-1.88-.02-.29-.11-.55-.32-.76-.19-.19-.49-.33-.76-.32s-.57.1-.76.32c-.19.21-.33.47-.32.76ZM147.56 156.13c-.15-1.36-2.31-1.38-2.15 0 .05.41.08.82.13 1.24-1.5 1.99-4.51 5.98-6.63 8.9-2.94 4.04-3.45 4.83-7.61 9.33-4.16 4.51-9.11 5.74-9.11 5.74v1.94l13.36-.34s.99-2.45 2.31-4.13c1.32-1.68 1.98-2.18 5.31-4.67 1.76-1.32 3.05-1.48 3.88-1.35.01.16.03.32.04.48.11 1.37 2.26 1.38 2.15 0-.47-5.72-1.03-11.44-1.67-17.14ZM137.51 104.34c1.07 4.78 1.78 9.6 2.61 14.43.23 1.36 2.31.78 2.07-.57-.82-4.83-1.54-9.65-2.61-14.43-.3-1.35-2.37-.78-2.07.57Z"/><path class="cls-10" d="M78.64 169.51c1.72 1.76 1.97 4.48 1.11 6.71-.96 2.49-3.17 4.25-5.5 5.37-.78.38-1 1.5-.58 2.21.47.8 1.42.96 2.21.58 3.17-1.54 5.89-4.13 7.05-7.51 1.13-3.27.44-7.15-2.01-9.65-1.45-1.48-3.73.79-2.28 2.28Z"/><path class="cls-10" d="M70.38 169.14c1.92 2.19 2.49 5.47 1.33 8.16a8.14 8.14 0 0 1-2.39 3.09c-.53.42-1.15.78-1.78 1.05-.87.37-1.59.69-1.88 1.7-.57 2 2.54 2.85 3.11.86l.04-.15-.42.71s-.47.21 0 0c.23-.11.47-.19.69-.29.38-.16.74-.36 1.1-.57.75-.46 1.47-1.02 2.1-1.65 1.26-1.26 2.21-2.83 2.76-4.53 1.18-3.69.13-7.78-2.39-10.64-.57-.65-1.69-.59-2.28 0-.65.65-.57 1.63 0 2.28Z"/><path class="cls-3" d="M65.09 172.48c-.22-2.37-1.58-4.1-1.58-4.1l-8.24-2.01c.02-.74-.76-1.5-1.6-1.03-6.52 3.65-8.89 11.89-5.44 18.49.57 1.07 2.06.37 1.99-.64 2.3.35 8.07-.12 8.67-.7.69-.67 3.27-1.5 3.27-1.5s.75-.85 2.02-2.88 1.13-3.26.91-5.63ZM148.39 173.27c-1.61-1.5-3.76-1.2-5.57-.21-1.76.97-3.38 2.29-4.72 3.79-1.54 1.72-2.72 3.67-3.59 5.8-.21.54.24 1.18.75 1.32.62.17 1.1-.21 1.33-.75.03-.08.08-.16.11-.24 2.18.09 6.84.24 8.36.06.02.22.11.43.29.61.37.37 1.16.46 1.52 0 1.27-1.6 2.63-3.32 3.02-5.39.33-1.77-.14-3.75-1.49-5.01ZM165.45 177.57c-.5-1.77-2.23-2.78-4-2.83-1.96-.05-3.69 1.11-5.11 2.33-1.52 1.31-2.8 2.88-3.82 4.6-.64 1.08.82 2.06 1.63 1.35 2.26.12 6.64.34 8.03.32.03.02.05.04.08.06.54.32 1.12.09 1.47-.39 1.12-1.52 2.29-3.47 1.73-5.44ZM84.52 181.88h.01-.01zM118.86 173.09c-.12-.1-.27-.18-.47-.22-9.91-1.93-19.74-4.2-29.49-6.8-1.34-.36-1.91 1.72-.57 2.07.33.09.67.17 1 .26.01.31.23 5.49-.72 8.51-.97 3.11-3.53 4.27-4.09 4.96.24.01 23.54.99 29.42 1.08-.23.42-.22.93.15 1.29.39.39 1.15.44 1.52 0a17.46 17.46 0 0 0 4.11-10.11c.04-.51-.39-.95-.87-1.05Z"/><path class="cls-8" d="M151.22 143.44c-.28.58-.57 1.16-.86 1.73l.05-.27s-3.09 2.11-4.72 1.82c-.91-.16-1.89-.54-2.57-.84.58-1.12-1.18-2.09-1.91-.97-7.03 10.67-14.14 21.3-21.47 31.77-1.4 1.99-2.8 3.98-4.22 5.96-.81 1.12 1.05 2.2 1.86 1.08.04-.05.08-.11.11-.16.25.49.86.86 1.51.57 12.71-5.64 21.79-17.1 28.51-28.92 1.98-3.5 3.79-7.09 5.57-10.69.61-1.24-1.25-2.33-1.85-1.08Z"/><path class="cls-2" d="M140.36 104.9c.13-.02.12-.02-.01 0 .06 0 .12-.01.19-.02.12-.01.24-.02.37-.02h.74c.12 0 .24.02.37.04.24.02-.17-.04.08.01s.48.09.72.16.47.14.7.22c.03 0 .31.13.09.03.11.05.22.1.34.16.22.11.44.23.64.36.11.06.21.14.31.2.05.04.1.07.15.11q-.06-.05 0 0c.44.35 1.1.46 1.52 0 .36-.39.47-1.15 0-1.52-1.93-1.53-4.3-2.17-6.75-1.8-.56.09-.92.82-.75 1.33.2.61.72.84 1.33.75Z"/><path class="cls-2" d="M148.15 105.62c2.76-11.82 6.8-23.33 12.1-34.26 1.49-3.08 3.08-6.12 4.76-9.1.68-1.2-1.17-2.29-1.86-1.08a166.804 166.804 0 0 0-14.39 33.78c-1 3.33-1.89 6.7-2.69 10.08-.32 1.35 1.75 1.92 2.07.57Z"/><path class="cls-2" d="M164.13 60.03c-7.81-.67-15.68-.47-23.48.21-7.94.69-15.86 1.86-23.65 3.54-4.05.87-8.08 1.88-12.05 3.07-1.32.39-.76 2.47.57 2.07 14.8-4.44 30.43-6.8 45.87-7.11 4.25-.09 8.5.01 12.74.38 1.38.11 1.37-2.03 0-2.15Z"/><path class="cls-2" d="M104.59 68.65c-2.8 8.6-6.29 16.97-10.4 25.02-3.09-3.24-5.99-6.6-8.63-10.22-2.61-3.59-5.34-7.06-8.26-10.4 0-.61-.45-1.23-1.18-1.11-.34-.1-.7.03-.95.28-4.26 1.27-8.43 2.88-12.51 4.65-4.35 1.88-8.63 3.95-12.69 6.39-10.54 6.08-20 14-28.07 23.11-2.28 2.57-4.43 5.24-6.49 7.98-.32.43-.24.84.03 1.14.12.2.32.37.61.44 10.85 2.96 21.1 7.81 30.5 13.94 2.66 1.74 5.25 3.58 7.78 5.51.29.22.57.25.82.17.02 2.65.06 5.29.15 7.94.05 1.38 2.2 1.38 2.15 0-.41-12.07-.04-24.16 1.1-36.18.13-1.38-2.02-1.37-2.15 0a282.56 282.56 0 0 0-1.26 26.02c-8.96-6.81-18.79-12.48-29.33-16.48a98.42 98.42 0 0 0-7.67-2.55c6.94-9.05 15.18-17.17 24.48-23.78 2.72-1.93 5.53-3.73 8.42-5.4 3.97-2.38 8.17-4.42 12.42-6.27 3.95-1.72 7.99-3.27 12.11-4.51 2.96 3.37 5.69 6.87 8.34 10.49 2.82 3.86 5.91 7.44 9.23 10.87-.79 1.5-1.59 2.98-2.42 4.45-5.66 10.01-12.35 19.31-19.79 28.06-3.87 4.55-7.71 9.1-11.1 14.02-.79 1.14 1.07 2.22 1.86 1.08 3.02-4.39 6.4-8.47 9.85-12.52 3.72-4.35 7.33-8.78 10.69-13.42C88.98 108.02 94.8 98 99.57 87.5c2.7-5.96 5.08-12.06 7.1-18.28.43-1.32-1.65-1.88-2.07-.57Z"/><path class="cls-10" d="M71.99 39.97c-.77 11.87 1.62 23.81 3.7 35.45.15.86 1.2 1.34 1.98 1.12.9-.25 1.28-1.12 1.12-1.98-2.03-11.36-4.33-22.99-3.58-34.59.14-2.07-3.09-2.06-3.22 0Z"/><path class="cls-8" d="M173.75 107.12c-.66-1.88-2.16-3.48-4.14-3.75-.45-.46-1.29-.58-1.73.14-3.19 5.24-6.52 10.39-9.83 15.54-.66 1.02.68 1.96 1.52 1.42.48.77 1.12 1.94 1.46 3.19.25.95.43 2.09.55 3.08-.23.39-.46.78-.68 1.17-.68 1.2 1.17 2.29 1.85 1.08 1.5-2.66 3.14-5.22 4.86-7.74 1.6-2.36 3.4-4.63 4.86-7.09 1.24-2.1 2.12-4.63 1.27-7.04Z"/><path class="cls-10" d="M174.61 80.35c-.25-.79-1.13-1.43-1.98-1.12-3.38 1.18-6.6 2.79-9.55 4.81-.23.16-.43.38-.57.62-4.31 4.1-8.17 8.72-11.59 13.65-.03 0-.05-.02-.07-.03-1.63-.5-3.36-.72-5.06-.62-.84.04-1.65.71-1.61 1.61.04.83.71 1.66 1.61 1.61.77-.04 1.54-.01 2.31.08.31.05.62.1.93.18-1.9 2.93-3.67 5.94-5.27 9.01-.74 1.41-1.43 2.84-2.1 4.28-.12.15-.23.31-.3.52-.06.18-.12.35-.18.52-.39.86-.76 1.73-1.13 2.61-.1.25-.1.51-.03.76-3.58 10.64-6.5 21.49-10.27 32.06-1.01 2.83-3.02 8.11.74 9.88.05.02.1.04.14.05.55.31 1.25.32 1.81-.29 2.13-2.3 4.2-4.63 6.09-7.13 1.41-1.88 2.68-3.85 3.9-5.84.25.24.52.43.84.58.17.14.38.24.64.31 1.65.39 3.39.18 4.88-.67a6.48 6.48 0 0 0 1.91-1.7c.07-.09.37-.42.52-.64.15.09.51.14.63.17 2.68.62 5.31-.91 6.4-3.27 1.55.06 3.14-.81 4.01-2.1 1.48-2.2.92-4.98.76-7.44-.16-2.33-.23-4.67-.55-6.99-.34-2.45-1.05-4.75-2.08-6.99-.37-.79-1.5-.99-2.21-.58-.81.47-.95 1.41-.58 2.21 1.55 3.37 1.88 6.93 2.09 10.59.11 1.95.49 4 .34 5.94-.08.94-.87 2.79-2.04 1.95-1.07-.77-2.36.29-2.43 1.39-.05.87-.73 1.66-1.51 2.01-1.21.54-2.29-.35-3.53-.1-1.5.3-1.81 1.58-2.85 2.46-.73.61-1.7.87-2.64.72-.11-.06-.23-.12-.35-.16a.507.507 0 0 0-.07-.06l-.02-.02s0-.01-.01-.02c-.05-.08-.09-.16-.14-.24-.03-.06-.06-.11-.09-.16-.06-.15-.05-.11.04.11-.08-.09-.12-.32-.16-.43-.09-.27-.17-.54-.24-.82-.06-.24-.2-.61-.16-.85.03.24.04.26.01.09 0-.08-.01-.15-.02-.23l-.03-.4c-.04-.59-.03-1.2.01-1.79.06-.85-.78-1.65-1.61-1.61-.92.04-1.55.71-1.61 1.61-.08 1.22-.02 2.47.23 3.67-.01.02-.03.03-.04.06-1.53 2.56-3.09 5.11-4.88 7.51-1.26 1.7-2.78 3.44-4.3 5.11-.01-.42 0-.85.07-1.24.31-1.63 1.03-3.22 1.58-4.78.99-2.81 1.92-5.63 2.81-8.47 1.65-5.24 3.17-10.51 4.83-15.75 1.06-3.33 2.18-6.65 3.34-9.94 3.79-8.5 8.92-16.56 14.93-23.63 1.86-2.18 3.82-4.28 5.92-6.25.06-.06.1-.11.15-.17 1.25-.83 2.53-1.61 3.87-2.29.73-.37 1.47-.72 2.22-1.05.03-.01.06-.02.08-.03.1-.04.19-.08.29-.12.2-.08.41-.16.61-.24.41-.16.82-.31 1.23-.45.79-.28 1.4-1.12 1.12-1.98Zm-3.23 2.79c.07-.03.06-.03 0 0ZM64.44 166.34c-.49-.34-1.14-.27-1.64.03-3.34-.2-6.48-1.74-8.76-4.19-.27-.29-.55-.62-.81-.96l-.07-.1c-1.81-2.43-3.13-5.97-1.22-8.53.52-.7.11-1.8-.58-2.21-.82-.48-1.68-.12-2.21.58-2.11 2.83-1.57 6.5-.05 9.6l-20.32-.31c-3.82 0-7.75-.52-11.02-2.59-1.42-1.07-3.04-1.75-4.63-2.53-.35-.17-.69-.36-1.03-.55-.17-.1-.34-.21-.51-.32-.07-.05-.15-.1-.22-.16-.01 0-.01 0-.02-.01-.3-.26-.57-.53-.84-.82a6.143 6.143 0 0 1-.48-.83c-.03-.07-.08-.12-.12-.18-.06-3.01.14-6.07.61-8.91.03-.2.03-.4.01-.59.83-4.76 3.01-9.29 5.5-13.38 2.84-4.66 6.26-8.95 10.04-12.87 1.44-1.49-.84-3.77-2.28-2.28-4.04 4.18-7.71 8.8-10.71 13.79-3 4.99-5.24 10.2-5.97 15.88-.02.14 0 .28.03.41a51.56 51.56 0 0 0-.46 8.52c.01.44.22.87.53 1.18 0 .02.01.04.02.06 1.74 3.58 5.96 4.17 8.88 6.39 3.73 2.36 8.3 3.02 12.64 3.02l22.42.34c.08.1.16.2.25.3 2.96 3.39 7.38 5.46 11.88 5.52 1.46 1.81.44 5.41-.35 7.26-.62 1.43-1.55 2.83-2.85 3.71-.68.46-1.4.81-2.21.97-.97.2-1.92-.05-2.68.74-1.34 1.41.57 3.5 2 2.52.35-.03.87-.04 1.18-.09.49-.08.96-.21 1.43-.39 1.09-.42 2.05-1 2.94-1.75 1.68-1.43 2.8-3.41 3.54-5.46 1.29-3.6 1.6-8.34-1.88-10.79Z"/><path class="cls-10" d="M85.7 161.23c-.1-.11-.22-.2-.36-.29-5.47-3.22-10.73-6.77-15.78-10.61a1.4 1.4 0 0 0-.36-.32c-3.29-2.16-6.81-4.01-10.35-5.75-3.36-1.66-6.79-3.18-10.27-4.57.76-1.38 1.58-2.73 2.48-4.03.25-.36.5-.71.76-1.06.13-.17.26-.35.39-.52.04-.06.22-.29.09-.13.06-.09.14-.17.2-.26.57-.72 1.17-1.43 1.78-2.13.56-.63.67-1.67 0-2.28-.62-.56-1.68-.67-2.28 0-2.5 2.81-4.69 5.91-6.48 9.23-.79-.29-1.57-.59-2.37-.87a98.485 98.485 0 0 0-9.95-2.91c-2.02-.47-2.88 2.64-.86 3.11 10.57 2.46 20.79 6.77 30.28 12.01 1.53.85 3.04 1.73 4.51 2.68.01.01.02.02.04.03 5.23 4.04 10.71 7.74 16.4 11.09 2.66 2.19 4.6 5.83 4.45 9.31-.15 3.51-2.82 6.85-6.04 8.1-.81.32-1.38 1.08-1.12 1.98.21.77 1.17 1.44 1.98 1.12 4.5-1.74 7.92-5.87 8.37-10.74.41-4.45-2.07-9.48-5.54-12.21Z"/><path d="M184.37 182.28c-.24-.19-.56-.3-.95-.3H34.13c-.65 0-1.09.31-1.34.75-.39.25-.67.68-.67 1.29v13.79c0 .47.17.84.43 1.09.01.02.03.03.04.04l.04.04c.26.26.62.43 1.09.43h149.57c.95.42 2.33-.05 2.33-1.4v-14.22c0-.88-.58-1.39-1.25-1.52Z" style="fill:#c1dade"/></g><g id="Layer_7"><path d="M161.4 59.75c-4-.14-10.37-.2-18.23.21-2.4.13-5.08.39-7.85.74.08 1.35.24 2.71.51 4.06.45 2.28-.62 4.63-3 5.29-2.12.58-4.84-.72-5.29-3-.33-1.69-.57-3.38-.72-5.09-10.34 1.73-19.75 3.9-19.75 3.9l-.09.93c-.06.64.11 2.64-.47 3.9.25 1.41.51 2.81.76 4.23.42 2.29-.59 4.63-3 5.29-1.21.34-2.65.04-3.73-.72-.29.87-.57 1.58-.8 2.01-1.13 2.17-6.14 11.45-6.14 11.45L77.1 71.54c-2.3.66-4.76 1.45-7.37 2.4.14.42.24.87.25 1.33l.24 7.7c.07 2.33-2.03 4.3-4.3 4.3s-4.23-1.98-4.3-4.3l-.17-5.61c-6.9 3.19-14.59 7.56-22.95 13.71-1.39 1.02-2.72 2.05-4 3.07-.18 3.12-.11 6.23.19 9.35.23 2.32-2.15 4.3-4.3 4.3-2.49 0-4.07-1.99-4.3-4.3-.06-.59-.1-1.2-.14-1.79-7.31 7.11-11.17 12.66-11.17 12.66-1.28 4.28 2.56 3.63 12.33 7.48 9.77 3.85 27.09 15.18 27.09 15.18l.67 5.54s2.66 2.92 5.87 3.08c2.31.12 8.52 4.63 12.86 8.03-.11-.24-.19-.5-.23-.77l-.87-5.98c-.35-2.39.56-4.5 3-5.29 2.02-.65 4.96.77 5.29 3l.87 5.98c.35 2.39-.56 4.5-3 5.29-.71.23-1.54.2-2.33-.04.48.39.88.73 1.18.99 2.72 2.33 14.58 3.44 16.45 4.34s1.76 6.8 1.76 6.8 4.62.87 9.57 1.86l-.78-4.98c-.36-2.3.55-4.61 3-5.29 2.06-.57 4.93.71 5.29 3 .44 2.84.9 5.69 1.34 8.54.03.18.04.37.05.54 1.15.25 2.06.46 2.56.6 3.07.86 4.19 2.61 4.19 2.61l9-13.67c-4.46-1.66 1.73-16.47 1.73-16.47.77-2.18 2.18-6.55 3.68-11.29-.82-.54-1.45-1.35-1.62-2.34-.47-2.78-1.2-5.47-2.21-8.1-.84-2.18.93-4.72 3-5.29 2.16-.59 4.05.57 5.01 2.39.97-3.13 1.62-5.25 1.62-5.25l-1.07-8.27 2.83-7.81c1.53-.77 2.92-1.07 4.09-1.15-.59-.75-.95-1.7-1.05-2.71-.16-1.63-.79-3.95-1.54-5.54-1-2.11-.61-4.62 1.54-5.88 1.88-1.1 4.89-.56 5.88 1.54a30.67 30.67 0 0 1 1.64 4.31c1.27-3.09 2.78-6.63 4.21-10.03 1.53-3.63 3.35-7.88 4.9-11.47-.4-2.7-.79-5.39-1.2-8.09v.02ZM59.25 119.69c0 2.33-1.97 4.3-4.3 4.3s-4.3-1.98-4.3-4.3V112c0-2.33 1.97-4.3 4.3-4.3s4.3 1.98 4.3 4.3v7.69Zm28.13-1.68c-2.44 0-4.14-1.98-4.3-4.3-.24-3.56-.49-7.13-.73-10.69-.16-2.33 2.09-4.3 4.3-4.3 2.44 0 4.14 1.98 4.3 4.3.24 3.56.49 7.13.73 10.69.16 2.33-2.09 4.3-4.3 4.3Zm22.99 25.05c-2.05.57-4.93-.7-5.29-3-.43-2.85-.87-5.69-1.3-8.54-.35-2.31.54-4.61 3-5.29 2.05-.57 4.93.7 5.29 3 .43 2.85.87 5.69 1.3 8.54.35 2.31-.54 4.61-3 5.29Zm10.14-37.15c-2.01.65-4.98-.77-5.29-3-.27-2-.55-3.99-.82-5.99-.33-2.39.54-4.49 3-5.29 2.01-.65 4.98.77 5.29 3 .27 2 .55 3.99.82 5.99.33 2.39-.54 4.49-3 5.29Z" style="fill:none"/><path class="cls-5" d="M30.39 107.78c2.15 0 4.53-1.98 4.3-4.3-.31-3.12-.37-6.22-.19-9.35a117.61 117.61 0 0 0-8.54 7.56c.04.59.08 1.2.14 1.79.23 2.31 1.81 4.3 4.3 4.3ZM54.94 107.7c-2.33 0-4.3 1.97-4.3 4.3v7.69c0 2.32 1.98 4.3 4.3 4.3s4.3-1.97 4.3-4.3V112c0-2.32-1.98-4.3-4.3-4.3ZM65.92 87.25c2.27 0 4.37-1.97 4.3-4.3l-.24-7.7c-.01-.47-.1-.91-.25-1.33-2.61.96-5.38 2.08-8.28 3.42.06 1.87.11 3.74.17 5.61.07 2.32 1.93 4.3 4.3 4.3ZM90.94 103.02c-.16-2.31-1.86-4.3-4.3-4.3-2.21 0-4.45 1.97-4.3 4.3.24 3.56.49 7.13.73 10.69.16 2.31 1.86 4.3 4.3 4.3 2.21 0 4.45-1.97 4.3-4.3-.24-3.56-.49-7.13-.73-10.69ZM79.02 155.01c2.44-.79 3.35-2.89 3-5.29l-.87-5.98c-.32-2.23-3.27-3.65-5.29-3-2.44.79-3.35 2.89-3 5.29l.87 5.98c.04.27.12.53.23.77 1.05.82 1.98 1.58 2.73 2.19.79.23 1.61.26 2.33.04ZM112.82 162.57c-.36-2.29-3.23-3.57-5.29-3-2.45.67-3.37 2.99-3 5.29l.78 4.98c3.22.64 6.57 1.31 8.9 1.81-.01-.18-.02-.36-.05-.54-.44-2.84-.9-5.69-1.34-8.54ZM112.07 129.23c-.35-2.3-3.24-3.57-5.29-3-2.46.67-3.35 2.98-3 5.29.43 2.85.87 5.69 1.3 8.54.35 2.3 3.24 3.57 5.29 3 2.46-.67 3.35-2.98 3-5.29-.43-2.85-.87-5.69-1.3-8.54ZM134.53 117.69c-2.07.57-3.84 3.11-3 5.29 1.01 2.63 1.75 5.32 2.21 8.1.16 1 .8 1.8 1.62 2.34 1.48-4.67 3.04-9.69 4.18-13.34-.96-1.83-2.84-2.99-5.01-2.39ZM122.69 94.63c-.31-2.23-3.28-3.65-5.29-3-2.46.8-3.33 2.89-3 5.29.27 2 .55 3.99.82 5.99.31 2.23 3.28 3.65 5.29 3 2.46-.8 3.33-2.89 3-5.29-.27-2-.55-3.99-.82-5.99ZM145.96 83.49c-2.15 1.26-2.54 3.77-1.54 5.88.75 1.6 1.38 3.9 1.54 5.54.1 1.02.46 1.97 1.05 2.71 2.07-.14 3.41.44 3.41.44 0-1.03 1.3-4.45 3.07-8.73-.43-1.45-.97-2.89-1.64-4.31-.99-2.1-4-2.64-5.88-1.54ZM132.82 70.04c2.38-.65 3.45-3 3-5.29-.26-1.35-.43-2.7-.51-4.06-2.79.35-5.68.79-8.5 1.26.14 1.7.39 3.39.72 5.09.44 2.28 3.17 3.58 5.29 3ZM162.59 67.84c1.92-4.45 3.42-7.89 3.42-7.89s-1.66-.13-4.62-.22c.4 2.71.79 5.41 1.2 8.11ZM104.26 80.19c2.41-.66 3.42-2.99 3-5.29-.25-1.41-.51-2.81-.76-4.23-.25.55-.64.97-1.27 1.07-2.04.35-1.87-2.11-1.87-2.11s-1.62 6.25-2.84 9.83c1.08.75 2.52 1.05 3.73.72Z"/></g><path class="cls-7" d="M60.3 110.3c-.76-.19-2.96 5.97-4.91 13.75-1.95 7.79-2.9 14.25-2.14 14.44.76.19 2.96-5.97 4.91-13.75 1.95-7.79 2.9-14.25 2.14-14.44ZM98.69 84.68c-.81-.31-6.02 13.05-15.65 27.7-9.53 14.72-19.66 24.87-19.05 25.48.25.26 3.12-1.94 7.22-6.11 4.1-4.15 9.33-10.35 14.22-17.82 4.87-7.48 8.43-14.77 10.58-20.19 2.16-5.43 3.02-8.94 2.68-9.07ZM133.09 93.22c-.6.55 1.39 3.53 3.74 7.1 1.16 1.78 2.22 3.39 2.99 4.58.78 1.17 1.35 1.91 1.74 1.8.37-.1.48-1.1.11-2.6-.36-1.49-1.2-3.44-2.46-5.35-2.54-3.84-5.57-6.06-6.12-5.53ZM101.02 26.78c.79-.05 1.11-5.42.72-11.99-.39-6.58-1.34-11.87-2.13-11.82-.79.05-1.11 5.42-.72 11.99.39 6.58 1.34 11.87 2.13 11.82ZM114.4 95.64c.64-1.44-.39-3.3-2.3-4.16-1.92-.86-3.99-.39-4.64 1.05-.64 1.44.39 3.3 2.3 4.16 1.92.86 3.99.39 4.64-1.05ZM107.45 115.76c.78-1.37-.15-3.38-2.1-4.49-1.94-1.11-4.15-.91-4.94.46-.78 1.37.15 3.38 2.1 4.49 1.94 1.11 4.15.91 4.94-.46ZM97.63 131.26c.96-1.25.33-3.35-1.42-4.7s-3.94-1.43-4.9-.18c-.96 1.25-.33 3.35 1.42 4.7s3.94 1.43 4.9.18ZM84.01 143.9c.95-1.26.38-3.29-1.28-4.55-1.66-1.26-3.78-1.26-4.73 0-.95 1.26-.38 3.29 1.28 4.55 1.66 1.26 3.78 1.26 4.73 0Z"/></svg>