<svg id="Illustration" xmlns="http://www.w3.org/2000/svg" viewBox="0 0 200 200"><defs><style>.cls-1{fill:#f2a6b0}.cls-2{fill:#f75e28}.cls-3{fill:#ffb5c4}.cls-9{fill:#d7c2df}</style></defs><path d="M144.96 82v-.03c3.72-5.66 6.15-12.08 7.33-18.74 5.24-7.53 11.26-15.01 13.81-23.96 1.35-3.65 1.28-14.25-4.86-9.9-3.64 5.13-6.36 10.98-8.71 16.81-.88-5.75-2.7-11.36-5.47-16.49.76-4.75.73-9.73-.01-14.52-.76-3.12-4.04-16.26-8.66-11.55-2.28 4.02-2.04 8.85-.73 13.15-2.97-2.81-15.12-14.64-18.7-10.59-1.01 1.76.51 3.25 2.15 3.76-15.29 0-16.89 15.56 8.99 5.97 7.36 6.32 13.08 14.15 16.13 23.27-5.09-3.81-10.86-8.94-17.58-8.61-4.96 1.56-1.62 7.33 1.51 9.03 5.41 3.68 12.02 5.05 17.96 7.64.93 6.84.44 13.93-1.51 20.46-.11-5.09-.3-11.02-3.74-15.08-3.74-2.6-5.61 3.58-5.75 6.44-1 7.83.48 15.71 1.97 23.38-20.16 27.27-68.44 23.44-83.17-7.4 5.29-5.43 10.47-11.23 14.02-18 2.77-4.83-2.58-9.4-6.85-5.78-4.69 4.76-7.66 11.16-9.79 17.43-.79-2.33-1.54-5.79-1.78-7.7-1.17-9.08.51-18.69 4.5-26.86 31.71 7.33 32.26-14.72 3.61-6.24 4.39-6.43 10.29-11.66 17.32-15.38 2.24-1.94 7.99-1.72 7.64-5.51-1.76-4.82-12.55 3.49-15.43 4.98 5.03-17.4-12.22-13.03-7.24 6.04-4.99 5.03-8.9 11.15-11.53 17.71-2.14-4.19-2.2-14.5-7.49-15.33-2.55.09-3.49 3.47-3.88 5.53-.82 8.56 3.26 17.3 7.87 24.32-.37 3.99-.26 7.96.31 11.87-3.07-5.01-6.06-10.57-11.3-13.61-5.71-1.45-3.58 7.69-2.01 10.55 5.33 10.07 12.97 20.45 22.97 25.96 14.72 19.59 44.24 25.37 66.21 15.59 2.54-1.15 4.97-2.5 7.28-4.04 9.53-.67 18.86-3.58 27.04-8.53 3.57-2.42 11.27-6.1 7.27-11.23-4.91-3.72-15.84 4.95-20.95 6.94.36-.66 1.13-.95 1.23-1.77h.02Zm-31.37-67.74c-.33-.09-.34-.09 0 0Zm48.46 17.6c-.03-.07-.03-.08 0 0ZM78.22 96.27Z" style="fill:#e5b342" id="Layer_4"/><path d="M197.35 195.29V83.21c0-1.23-1.02-2.41-2.26-2.52-.2-.05-.41-.09-.62-.09h-29.29c-1.33 0-2.6 1.17-2.54 2.54.06 1.38 1.12 2.54 2.54 2.54h.16c-.18 15.07-.16 92.62-.16 107.7-1.33 0-2.6 1.17-2.54 2.54.06 1.38 1.12 2.54 2.54 2.54h29.29c1.04 0 2.05-.73 2.4-1.71.31-.41.5-.92.5-1.49Z" style="fill:#bf9dd6" id="Layer_9"/><path d="m33.91 167.73 1.02-48.44 129.48 1.32.47 2.12s-18.27-.85-25.47 1.79c-7.19 2.64-35.1 16.67-45.34 22.39-10.25 5.72-30.23 17.04-41.72 18.55-11.49 1.51-18.43 2.28-18.43 2.28Z" style="fill:#c1dade" id="Layer_12"/><path d="m165.16 180.78.14-62.03-132.05.04.58 13.96-.58 63.18 36.86.55v-1.86h93.76c-.88-.45-.81-6.02-.45-13.85h1.74Z" style="fill:#d6e8ea"/><path class="cls-1" d="M62.25 158.52c0-.19-.01-.38-.05-.58-.18-.81-.86-1.28-1.67-1.32-.6-.03-1.21.04-1.8.07-.17 0-.34 0-.51.01-.41-.05-.81-.08-1.2.07-1.09.42-1.22 1.55-1.27 2.57-.05 1.01.01 2.02.07 3.03.03.42.3.9.75.98.25.05.5.08.75.11.26.09.54.14.81.15.9.01 1.8-.09 2.68-.24.51-.08.98-.35 1.23-.82.22-.41.24-.87.24-1.32v-2.54c0-.05 0-.12-.02-.17Z" id="Layer_7"/><path d="M159.66 111.92c-3.43-2.91 2.81 5.06.34 9.17-2.83 4.69-3.96 11.79-7.81 15.72-4.45 4.54-12.08 2.6-17.62 1.81-12.46-1.77-24.56-.05-35.78 5.82-11.54 6.04-17.47 15.06-24.64 25.35-2.55 3.66-4.43 5.22-8.74 3.1-2.42-1.19-4.78-2.44-7.42-3.11-6.62-1.69-12.83-.54-18.98 2.15-3.45 1.52-4.2 4.52-3.3 7.23-1.82 1.29-2.85 3.38-3.01 5.7-1.2 16.65 22.19 9.84 37.4 9.77 20.1-.09 41.61-4.83 61.47-8.43 8.91-1.62 22.09 5.58 30.01 1 7.52-4.35.67-6.9 3.28-14.71 3.11-9.32.14-26.56.52-36.37.31-7.95.95-18.52-5.73-24.19Z" style="fill:#bbdbdf"/><path class="cls-1" d="M167.87 107.29c.03-8.04.05-16.08.05-24.13 0-1.33-1.17-2.6-2.54-2.54-20.31.2-40.63.26-60.93.29-20.77.03-41.53.03-62.3.13-11.91.05-23.81.14-35.72.28-.41 0-.8.12-1.16.31-1.03.33-1.82 1.24-1.84 2.41-.09 5.24-.07 10.49-.07 15.73 0 8.19.01 16.38.03 24.57.02 9.22.05 18.43.07 27.65.02 8.42.04 16.84.05 25.27 0 5.71 0 11.42-.06 17.13 0 .42-.01.84-.02 1.27-.02 1.33 1.19 2.6 2.54 2.54 11.84-.14 23.68-.14 35.52-.02 9.17.1 18.34.27 27.51.4.26.09.53.15.82.14.22 0 .44-.05.64-.11h.27c10.42.15 20.82.22 31.24.16 11.04-.07 22.08-.35 33.13-.41 8.44-.04 16.88.05 25.31.09 1.55 0 3.09.01 4.64.02h.1c.08 0 .16-.02.24-.03.44-.05.87-.21 1.23-.47.25-.17.46-.38.63-.63.29-.4.45-.88.43-1.39v-.02c-.09-14.37-.07-28.74-.02-43.11.05-15.18.14-30.37.19-45.54ZM45.28 193.14c-3.22-.04-6.44-.06-9.67-.08.17-18.81.23-37.62.14-56.43v-1.37c10.47-.28 20.95-.43 31.42-.46-.14 15.78-.15 31.56-.02 47.33.03 3.78.07 7.56.11 11.34-7.33-.11-14.65-.24-21.98-.33Zm26.93-14.9c-.07-10.55-.09-21.1-.04-31.65.02-3.94.05-7.87.08-11.8 4.25 0 8.5 0 12.76.03 10.3.05 20.62.15 30.94.26l.9 43.17H72.22Zm90.36 0h-40.65l-.65-31.3-.25-11.82c5.07.05 10.14.1 15.21.13 8.81.06 17.62.09 26.43.05-.06 12.2-.11 24.81-.11 37.15 0 1.93 0 3.86.01 5.78Zm.14-51.08c0 1.01 0 2.04-.01 3.06-16.23.07-32.46-.09-48.69-.26-17.06-.17-34.16-.34-51.23-.24-9.02.06-18.04.2-27.06.45-.02-2.96-.03-5.91-.06-8.87 17.14-.25 34.28-.38 51.42-.4 16.84-.01 33.69.09 50.53.32 8.38.11 16.76.26 25.13.44 0 1.83-.01 3.66-.02 5.49Z"/><path class="cls-2" d="M152.24 99.68c-3.05-.11-6.11-.35-9.15-.32-1.21 0-2.26.22-3.44.41-2.45.39-3.34.13-5.01-1.67-1.27-1.37-3.43-.58-3.97 1.04l-2.5.39c-.2-.4-.45-.77-.73-1.12-.34-.22-.56-.54-.95-.73-1.13-.58-2.32-.46-3.39.13-1.22.67-1.56 1.93-2.58 2.76-2.24 1.83-5.01-.31-4.37-2.96.71-2.97-3.87-4.24-4.58-1.26-.87 3.63.54 7.57 4.13 9.1 1.8.77 3.8.76 5.64.07 1.55-.58 2.35-1.94 3.4-2.96.48.57 1.05 1.36 1.37 1.56 1.1.71 2.48 1.06 3.78.96 1.46-.12 2.65-.75 3.57-1.68 1.69 1.22 3.56 1.82 5.94 1.34 4.28-.87 8.49-.48 12.85-.33 3.06.11 3.05-4.64 0-4.75ZM30.01 69.24c-.21-1.27-1.27-1.65-2.25-1.4-1.11-.12-2.23.52-2.1 1.93.33 3.52.54 7.04.58 10.57.02 2.3.85 8.9-2.2 9.68-.33.08-.6.09-.84.04-.39-6.66-.79-13.32-1.19-19.98-.06-.99-.69-1.61-1.44-1.84-.07-.05-.14-.12-.22-.17-.03-.02-.05-.03-.09-.05-.16-.07-.35-.16-.52-.22-.03 0-.06-.01-.09-.02-.18-.03-.4-.07-.59-.07-.37-.02-.68.07-.99.2-.2.02-.38.06-.56.16-.25.08-.47.22-.66.42 0 0-.01.01-.01.02-.45.32-.73.84-.67 1.59.56 6.24.82 12.48.81 18.74-.2.35-.52.64-1.06.82-4.86 1.67-3.96-16.53-3.81-19.43.06-1.22-.79-1.86-1.73-1.95-.98-.28-2.14.09-2.48 1.36-1.65 6.22-.12 13.97.79 20.24.71 4.92 3.31 9.11 7.9 10.21.47 11.58.14 23.16-.31 34.74-.48 12.57-1.08 25.14-.87 37.72.05 3.07.03 6.18.37 9.24.27 2.47.85 5.41 3.07 6.9 2.08 1.39 4.32.03 4.92-2.17.33-1.21.27-2.48.28-3.72v-4.74c0-12.69-.12-25.4-.39-38.08-.26-12.69-.66-25.38-1.2-38.07-.03-.64-.05-1.28-.08-1.92 12.19-2.98 9.17-21.33 7.59-30.72h.02Zm-7.96 110.8V180v.04Z"/><path class="cls-9" d="M193.22 104.49c0-.81-4.69-1.43-10.46-1.39-5.77.04-10.44.72-10.44 1.53s4.69 1.43 10.46 1.39c5.77-.04 10.44-.72 10.44-1.53ZM193.22 94.59c0-.81-4.69-1.43-10.46-1.39-5.77.04-10.44.72-10.44 1.53s4.69 1.43 10.46 1.39c5.77-.04 10.44-.72 10.44-1.53Z"/><path class="cls-3" d="M72.13 196.28c.81 0 1.48-3.75 1.5-8.38.02-4.63-.61-8.39-1.42-8.39-.81 0-1.48 3.75-1.5 8.38-.02 4.63.61 8.39 1.42 8.39ZM117.35 196.28c.81 0 1.48-3.75 1.5-8.38.02-4.63-.61-8.39-1.42-8.39-.81 0-1.48 3.75-1.5 8.38-.02 4.63.61 8.39 1.42 8.39ZM94.74 196.28c.81 0 1.48-3.75 1.5-8.38.02-4.63-.61-8.39-1.42-8.39-.81 0-1.48 3.75-1.5 8.38s.61 8.39 1.42 8.39ZM139.96 196.28c.81 0 1.48-3.75 1.5-8.38.02-4.63-.61-8.39-1.42-8.39-.81 0-1.48 3.75-1.5 8.38-.02 4.63.61 8.39 1.42 8.39ZM162.57 196.28c.81 0 1.48-3.75 1.5-8.38.02-4.63-.61-8.39-1.42-8.39-.81 0-1.48 3.75-1.5 8.38-.02 4.63.61 8.39 1.42 8.39Z"/></svg>