<?xml version="1.0" encoding="UTF-8"?>
<svg id="Illustration" xmlns="http://www.w3.org/2000/svg" xmlns:xlink="http://www.w3.org/1999/xlink" viewBox="0 0 200 200">
  <defs>
    <style>
      .cls-1 {
        fill: none;
      }

      .cls-2 {
        clip-path: url(#clippath);
      }

      .cls-3 {
        fill: #f96800;
      }

      .cls-4 {
        fill: #fff;
      }

      .cls-5 {
        fill: #ffcf4e;
      }

      .cls-6 {
        fill: #ffa2af;
      }

      .cls-7 {
        fill: #ffb5c4;
      }

      .cls-8 {
        fill: #ffc101;
      }

      .cls-9 {
        fill: #ff7800;
      }
    </style>
    <clipPath id="clippath">
      <path class="cls-1" d="m148.59,121.95c-.07-.07-.14-.14-.2-.21-2.53-2.49-1.93-6.91,1.14-8.65,1.86-.74,3.83-.78,5.82-.59,1.07-1.96,2.02-4,2.81-6.12-13.05-14.96-37.27-18.83-53.31-5.73-5.47,4.22-9.93,9.69-12.72,16.01-1.88,3.38-1.13,8.3-4.75,10.47-2.54,1.56-6.22.59-7.69-1.98-2.42-9.74,6.73-22.07,13.3-28.9,17.96-18.52,48.05-19.16,68.23-5.72.28-13.71-5.65-26.9-16.24-35.79-.07-.06-.14-.12-.21-.19l-19.83-20.77c-5.2-5.45-9.98-11.28-14.3-17.45-.66-.94-1.84-1.36-2.94-1.05L18.89,40.56c-1.1.31-1.88,1.29-1.95,2.43l-.51,8.65c-.63,10.82-2.25,21.56-4.82,32.09l-3.65,14.95c-3.47,14.2.1,29.2,9.57,40.33h0c11.56,13.57,29.98,19.15,47.12,14.27l4.79-1.36c4.13-5.07,8.17-10.21,12.4-15.19,1.99-2.16,5.93-2.1,7.94,0,2.35,2.47,4.69,4.93,7.04,7.4l29.39-8.36c8.79-2.5,16.46-7.37,22.37-13.82Z"/>
    </clipPath>
  </defs>
  <rect class="cls-8" x="7.27" y="12.26" width="116.82" height="50.2" rx="25.1" ry="25.1" transform="translate(-7.71 19.39) rotate(-15.88)"/>
  <circle class="cls-8" cx="53.09" cy="13.97" r="6.1" transform="translate(9.12 46.85) rotate(-51.52)"/>
  <circle class="cls-5" cx="64.99" cy="10.59" r="6.1" transform="translate(16.26 54.88) rotate(-51.52)"/>
  <g>
    <path class="cls-1" d="m158.16,106.39c-.8,2.11-1.74,4.15-2.81,6.12,2.56.25,5.17.89,7.66.94-1.35-2.57-2.98-4.92-4.84-7.05Z"/>
    <path class="cls-6" d="m148.59,121.95c-.07-.07-.14-.14-.2-.21-2.53-2.49-1.93-6.91,1.14-8.65,1.86-.74,3.83-.78,5.82-.59,1.07-1.96,2.02-4,2.81-6.12-13.05-14.96-37.27-18.83-53.31-5.73-5.47,4.22-9.93,9.69-12.72,16.01-1.88,3.38-1.13,8.3-4.75,10.47-2.54,1.56-6.22.59-7.69-1.98-2.42-9.74,6.73-22.07,13.3-28.9,17.96-18.52,48.05-19.16,68.23-5.72.28-13.71-5.65-26.9-16.24-35.79-.07-.06-.14-.12-.21-.19l-19.83-20.77c-5.2-5.45-9.98-11.28-14.3-17.45-.66-.94-1.84-1.36-2.94-1.05L18.89,40.56c-1.1.31-1.88,1.29-1.95,2.43l-.51,8.65c-.63,10.82-2.25,21.56-4.82,32.09l-3.65,14.95c-3.47,14.2.1,29.2,9.57,40.33h0c11.56,13.57,29.98,19.15,47.12,14.27l4.79-1.36c4.13-5.07,8.17-10.21,12.4-15.19,1.99-2.16,5.93-2.1,7.94,0,2.35,2.47,4.69,4.93,7.04,7.4l29.39-8.36c8.79-2.5,16.46-7.37,22.37-13.82Z"/>
    <path class="cls-9" d="m68.65,152.91c-1.69,2.45-4.52,4.37-5.09,7.42-.24,10.1,8.73,5.93,14.59,5.43,12.7,33.08,60.8,41.85,85.74,16.12,6.57-6.83,15.72-19.16,13.3-28.9-1.47-2.56-5.15-3.53-7.69-1.98-3.62,2.17-2.87,7.09-4.75,10.47-2.78,6.33-7.24,11.8-12.72,16.01-18.33,14.97-47.33,7.77-58.15-12.79,4.43.09,9.25,2.04,13.48.35,3.07-1.74,3.66-6.16,1.14-8.65-3.89-4.09-7.78-8.18-11.67-12.28l-27.38,7.79c-.27.33-.53.66-.8.98Z"/>
    <path class="cls-3" d="m81.85,136.73c-4.23,4.98-8.27,10.12-12.4,15.19l27.38-7.79c-2.35-2.47-4.69-4.93-7.04-7.4-2.02-2.1-5.95-2.16-7.94,0Z"/>
    <path class="cls-9" d="m161.05,93.9c-.41,4.34-1.39,8.53-2.88,12.49,1.86,2.13,3.49,4.49,4.84,7.05-2.49-.05-5.1-.69-7.66-.94-1.87,3.42-4.14,6.59-6.76,9.45,6.17,6.49,12.34,12.98,18.51,19.47,2.02,2.1,5.95,2.16,7.94,0,4.51-5.31,8.79-10.79,13.2-16.17,1.69-2.45,4.52-4.37,5.09-7.42.24-10.1-8.48-5.93-14.34-5.43-3.56-9.26-9.91-16.62-17.75-21.84-.02,1.11-.08,2.23-.19,3.35h0Z"/>
    <path class="cls-3" d="m93,96.27c-6.57,6.83-15.72,19.16-13.3,28.9,1.47,2.56,5.15,3.53,7.69,1.98,3.62-2.17,2.87-7.09,4.75-10.47,2.78-6.33,7.24-11.8,12.72-16.01,16.04-13.1,40.26-9.22,53.31,5.73,1.49-3.95,2.47-8.14,2.88-12.49h0c.11-1.12.16-2.24.19-3.35-20.18-13.44-50.27-12.81-68.23,5.72Z"/>
    <path class="cls-9" d="m149.52,113.09c-3.07,1.74-3.66,6.16-1.14,8.65.07.07.14.14.2.21,2.62-2.86,4.89-6.03,6.76-9.45-2-.19-3.97-.15-5.82.59Z"/>
  </g>
  <g class="cls-2">
    <path class="cls-7" d="m154.96-.38c-2.2-2.52-45.76,32.01-97.3,77.13C6.12,121.86-33.87,160.47-31.67,162.98c2.2,2.52,45.76-32.01,97.3-77.13C117.17,40.75,157.16,2.13,154.96-.38Z"/>
    <path class="cls-7" d="m140.59-19.23c-1.98-2.69-48.31,28.02-103.49,68.6C-18.07,89.95-61.19,125.03-59.21,127.72c1.98,2.69,48.31-28.02,103.49-68.6C99.45,18.54,142.57-16.54,140.59-19.23Z"/>
    <path class="cls-7" d="m170.37,18.41c-2.41-2.32-42.83,35.85-90.28,85.24C32.64,153.04-3.86,194.96-1.45,197.27c2.41,2.32,42.83-35.85,90.28-85.24,47.45-49.39,83.96-91.31,81.55-93.62Z"/>
    <path class="cls-7" d="m203.45,12.16c-2.69-1.98-37.78,41.14-78.36,96.31-40.58,55.17-71.3,101.5-68.61,103.48,2.69,1.98,37.78-41.14,78.36-96.31C175.42,60.47,206.14,14.14,203.45,12.16Z"/>
  </g>
  <path class="cls-4" d="m121.21,25.28c-5.16-5.09-9.93-9.04-12.08-10.1-5.9-4.22-90.01,16.64-92.32,26.86-1.05,2.28-2.4,8.19-3.37,15.2-1.27,9.1-1.43,16.6-.36,16.74,1.06.15,2.95-7.11,4.22-16.21.82-5.88,2.07-12.6,2.47-16.04,13.79-5.35,61.88-19.09,86.1-24.59,3.83,1.85,8.8,6,12.45,9.61,6.54,6.46,12.07,13.25,12.83,12.48.76-.76-3.39-7.49-9.93-13.94Z"/>
</svg>