<svg id="Illustration" xmlns="http://www.w3.org/2000/svg" viewBox="0 0 200 200"><defs><clipPath id="clippath"><path class="cls-2" d="M43.36 95.74h67.81v58.71H43.36z"/></clipPath><clipPath id="clippath-1"><path class="cls-2" d="M123.59 95.74v86.05h46.66V95.74h-46.66z"/></clipPath><style>.cls-2{fill:none}.cls-10,.cls-2,.cls-3,.cls-6,.cls-7{stroke-width:0}.cls-3{fill:#d6e8ea}.cls-6{fill:#fff}.cls-7{fill:#e8f8f9}.cls-10{fill:#fcb9c4}</style></defs><rect x="31.77" y="15.55" width="149.35" height="166.24" rx="6.08" ry="6.08" style="fill:#f2a6b0;stroke-width:0"/><path d="m190.53 71.32-9.16-10.94H31.66l-6.88 11.74-3.79 6.47c0 4.08 3.27 7.38 7.3 7.38s7.3-3.3 7.3-7.38c0 4.08 3.27 7.38 7.3 7.38s7.3-3.3 7.3-7.38c0 4.08 3.27 7.38 7.3 7.38s7.3-3.3 7.3-7.38c0 4.08 3.27 7.38 7.3 7.38s7.3-3.3 7.3-7.38c0 4.08 3.27 7.38 7.3 7.38s7.3-3.3 7.3-7.38c0 4.08 3.27 7.38 7.3 7.38s7.3-3.3 7.3-7.38c0 4.08 3.27 7.38 7.3 7.38s7.3-3.3 7.3-7.38c0 4.08 3.27 7.38 7.3 7.38s7.3-3.3 7.3-7.38c0 4.08 3.27 7.38 7.3 7.38s7.3-3.3 7.3-7.38c0 4.08 3.27 7.38 7.3 7.38s7.3-3.3 7.3-7.38h.39c0 4.08 3.27 7.38 7.3 7.38s7.3-3.3 7.3-7.38c0 4.08 3.27 7.38 7.3 7.38s7.3-3.3 7.3-7.38l-6.09-7.27Z" style="fill:#f6c243;stroke-width:0"/><path class="cls-7" d="M43.36 95.74h67.81v58.71H43.36z"/><path class="cls-10" d="M28.25 15.55h156.43v9.32H28.25z"/><rect x="5.05" y="90.02" width="35.08" height="35.08" rx="3.15" ry="3.15" style="fill:#ff8000;stroke-width:0"/><path class="cls-10" d="M28.25 31.45h156.43v9.32H28.25z"/><path class="cls-7" d="M123.59 95.74v86.05h46.66V95.74h-46.66z"/><path class="cls-3" d="M43.36 154.45s1.6-28.4 28.18-29.36c34.91-1.25 39.63-29.36 39.63-29.36v58.71H43.36Z" style="clip-path:url(#clippath)"/><g style="clip-path:url(#clippath-1)"><path class="cls-2" d="M170.25 95.74v10.05c.53-3.35.55-6.75 0-10.05Z"/><path class="cls-3" d="M139.45 134.76c-9.36.88-13.81 7.59-15.86 14.85v32.18h46.66v-76c-2.22 14.08-13.54 27.36-30.8 28.97Z"/></g><path class="cls-10" d="M28.23 177.13h156.43v9.32H28.23z"/><path d="M135.76 142.93c0-.19-.01-.38-.05-.58-.18-.81-.86-1.28-1.67-1.32-.6-.03-1.21.04-1.8.07-.17 0-.34 0-.51.01-.41-.05-.81-.08-1.2.07-1.09.42-1.22 1.55-1.27 2.57-.05 1.01.01 2.02.07 3.03.03.42.3.9.75.98.25.05.5.08.75.11.26.09.54.14.81.15.9.01 1.8-.09 2.68-.24.51-.08.98-.35 1.23-.82.22-.41.24-.87.24-1.32v-2.54c0-.05 0-.12-.02-.17Z" style="fill:#f70;stroke-width:0" id="Layer_7"/><path class="cls-6" d="M179.06 177.23c0-.88-32.51-1.63-72.61-1.69-40.1-.06-72.61.61-72.61 1.48s32.51 1.63 72.61 1.69c40.1.06 72.61-.61 72.61-1.48ZM179.06 60.48c0-.88-32.51-2.74-72.61-2.8-40.1-.06-72.61 1.72-72.61 2.59s32.51.53 72.61.58c40.1.06 72.61.5 72.61-.38Z"/><path d="M181.12 24.87s-109.25.06-149.35 0v6.57c0 .87 109.25.12 149.35.18v-6.75Z" style="fill:#ea718b;stroke-width:0"/><path d="M194.29 77.63c0-.89-45.24-3.71-85.85-3.77-40.61-.06-85.85 2.67-85.85 3.56s45.24-.4 85.85-.34c40.61.06 85.85 1.44 85.85.55Z" style="fill:#ffd066;stroke-width:0"/><path class="cls-6" d="M35.13 106.86c-.07-.21-1.17-2.2-3.16-4.73-.07-.07-.07-.14-.07-.21a45.84 45.84 0 0 0-.62-4.32c0-.14-.14-.27-.21-.34-.14-.07-.27-.14-.41-.21l-2.06-.27h-.07c-.14 0-.21.07-.34.14s-.14.14-.14.27v.75c-1.3-1.17-2.68-2.26-4.18-3.16-.34-.21-.69-.34-1.1-.34-.34 0-.75.14-1.03.34-7.13 4.39-11.11 11.66-11.25 12.07-.07.07-.07.14-.07.27s.07.34.14.41c.07.14.21.21.41.27l2.06.41c.14.07.27.14.34.21.07.14.14.27.14.41 0 .34.41 8.58.89 10.7.07.14.14.27.27.34s.27.14.41.14c1.23 0 2.33-.07 3.5-.07h.14s.07 0 .07-.07l.07-.07v-.07c-.07-.69-.14-2.33-.21-4.05v-.14c0-.07 0-.14-.07-.21-.07-.07-.07-.14-.14-.14-.34-.21-.55-.48-.75-.75-.21-.34-.27-.69-.34-1.03-.14-2.88-.14-6.17 0-8.78 0-.14.07-.21.14-.27s.21-.14.27-.14c.14 0 .21.07.27.14s.14.21.14.27c-.07 1.72-.14 3.77-.07 5.76 0 .07 0 .14.07.21 0 .07.07.14.14.14l.14.14c.07.07.14 0 .21 0s.14 0 .21-.07c.07 0 .14-.07.14-.14l.14-.14c0-.07.07-.14 0-.21-.07-2.06 0-4.12.07-5.83 0-.14.07-.21.14-.27s.21-.14.27-.14c.14 0 .21.07.27.14s.14.21.14.27c-.07 1.72-.14 3.77-.07 5.76 0 .14.07.27.14.34s.21.14.34.14.27-.07.34-.14.14-.21.14-.34c-.07-1.99 0-4.05.07-5.76 0-.14.07-.21.14-.27s.21-.14.27-.14c.14 0 .21.07.27.14.07.07.14.21.14.27-.14 2.54-.07 5.69 0 8.51v.07c0 .34-.07.75-.27 1.03-.14.34-.41.62-.69.82l-.14.14c0 .07-.07.14-.07.21 0 0-.07.41.14 2.54.07.89.14 1.51.21 1.85q0 .07.07.14t.14.07h4.32c.07 0 .14 0 .14-.07q.07-.07.07-.14c.27-2.47.34-3.91.34-3.91 0-.07 0-.14-.07-.14q-.07-.07-.14-.07l-1.44-.21c-.07 0-.21-.07-.27-.14s-.14-.14-.14-.21v-.21c.55-8.3 3.29-11.11 3.29-11.11l.14-.14c.07-.07.14-.07.27-.07.07 0 .21 0 .27.07s.14.14.14.21 0 .14.07.21c.21 2.61.14 7.07 0 10.56-.14 2.95-.27 5.28-.27 5.28v.07s0 .07.07.07c0 0 .07 0 .07.07h.07c.75 0 1.51 0 2.33.07.14 0 .34-.07.41-.14.14-.07.21-.21.27-.41.48-2.13.89-10.29.89-10.7 0-.14.07-.27.14-.41s.21-.21.34-.21l2.06-.41c.14-.07.27-.14.41-.27.07-.14.14-.27.14-.41.07-.14 0-.21 0-.27Z"/></svg>