<?xml version="1.0" encoding="UTF-8"?><svg id="Illustration" xmlns="http://www.w3.org/2000/svg" viewBox="0 0 200 200"><defs><style>.cls-1,.cls-2,.cls-3{fill:none;}.cls-4{fill:#ff8000;}.cls-5{fill:#c1dade;}.cls-6{fill:#f96800;}.cls-7{fill:#f96800;}.cls-2{stroke:#fff;stroke-linecap:round;stroke-linejoin:round;stroke-width:2px;}.cls-3{stroke:#b4cacc;stroke-miterlimit:10;stroke-width:4px;}.cls-8{fill:#fff;}.cls-9{fill:#ffcf4e;}.cls-10{fill:#ffcf4e;}.cls-11{fill:#ee8031;}.cls-12{fill:#b4cacc;}.cls-13{fill:#bf9dd6;}</style></defs><path class="cls-12" d="M175.24,167.12c-4.49,0-8.85-2.01-12.45-5.77-3.87-4.04-6.41-9.69-7.16-15.9-1.58-13.12,5.46-24.79,15.7-26.02,10.22-1.24,19.84,8.44,21.42,21.56h0c1.58,13.12-5.46,24.79-15.7,26.02-.6.07-1.21.11-1.81.11ZM172.38,129.27c-.37,0-2.72,4.24-3.09,4.29-7.09.85-9.16,1.23-7.96,11.2.6,4.98,2.59,9.46,5.61,12.62,2.8,2.93,6.15,4.33,9.43,3.93,7.09-.85.48-2.51-.72-12.49l.17-7.89c-1.14-9.45,3.24-11.66-3.43-11.66Z"/><ellipse class="cls-5" cx="170.15" cy="144.02" rx="15.33" ry="20.43" transform="translate(-15.98 21.34) rotate(-6.86)"/><g id="Layer_22"><path class="cls-13" d="M179.2,89.82c-7.7-.53-15.41-1.09-23.12-1.58-1.49-.09-3.1-.03-4.17,1.17-.42.48-.71,1.11-.71,1.75-.02.86.66,1.31,1.35,1.69,1.31.71,2.84.87,4.31.92,1.83.05,3.67.03,5.51-.03,4.26-.14,8.5-.55,12.72-1.17,1.58-.01,3.12-.2,4.62-.84,1-.43.38-1.83-.51-1.89h0Z"/></g><ellipse class="cls-12" cx="154.97" cy="138.75" rx="11.04" ry="14.72" transform="translate(-15.46 19.5) rotate(-6.86)"/><ellipse class="cls-12" cx="160.39" cy="125" rx="13.27" ry="17.7" transform="translate(-13.78 20.04) rotate(-6.86)"/><path class="cls-7" d="M32.94,87.77l13.57,59.53,115.57-20.99c6.73-1.22,11.2-7.66,9.98-14.39l-9.25-51.29c-1.15-6.4-6.76-11.03-13.26-10.95l-42.37.49c-4.54.05-9.05.78-13.38,2.15l-13.96,4.44c-9.12,2.9-18.03,6.44-26.66,10.58l-13.53,6.5c-5.22,2.5-8,8.29-6.72,13.93Z"/><path class="cls-4" d="M102.11,74.68l50.65-21.25c3.81-1.6,8.94,1.86,9.76,5.91l16.85,87.18c.62,3.1-1.07,6.2-4.01,7.36l-54.72,21.63c-5.8,2.29-11.96,3.56-18.19,3.74l-44.84,1.29c-3.17.08-5.95-2.12-6.58-5.24l-18.29-88.55c-.81-4.03,2.66-7.62,6.77-7.66l42.14-.24c7.03-.04,13.98-1.46,20.46-4.18Z"/><circle class="cls-5" cx="63.82" cy="30.73" r="10.75"/><path class="cls-2" d="M58.58,26.13c-1.75,1.92-2.28,4.87-1.31,7.28"/><g id="Layer_22-2"><path class="cls-13" d="M62.63,118.72c-1.92-.87-3.94-1.37-5.99-1.52-.13-.07-.27-.13-.44-.14-6.1-.6-12.22-.98-18.35-1.13-3.12-.07-6.24-.09-9.36-.05-1.5.02-3.01.06-4.52.11-1.47.05-2.98.03-4.44.24-1.16.16-2.29.67-2.89,1.71-.59,1-.48,2.26.35,3.11.86.88,2.23,1.25,3.39,1.5,1.32.29,2.68.4,4.04.41,2.95.03,5.93-.16,8.88-.27,3.04-.11,6.09-.22,9.13-.33,6.65-.24,13.5-.09,19.98-1.79.78-.2,1.06-1.48.24-1.85h0Z"/><path class="cls-13" d="M35.03,131.91c-7.7-.53-15.41-1.09-23.12-1.58-1.49-.09-3.1-.03-4.17,1.17-.42.48-.71,1.11-.71,1.75-.02.86.66,1.31,1.35,1.69,1.31.71,2.84.87,4.31.92,1.83.05,3.67.03,5.51-.03,4.26-.14,8.5-.55,12.72-1.17,1.58-.01,3.12-.2,4.62-.84,1-.43.38-1.83-.51-1.89h0Z"/></g><path class="cls-3" d="M70.53,35.95c9.31,7.17,12.84,10.2,20.65,25.82"/><circle class="cls-6" cx="81.79" cy="91.6" r="3.73"/><path class="cls-4" d="M162.28,58.62c1.16,2.96-2.46,5.78-5.65,5.78s-5.76-2.58-5.76-5.76,8.26-5.02,8.33-4.94c.36.45,1.77,1.57,3.09,4.93Z"/><circle class="cls-6" cx="84.67" cy="105.6" r="3.73"/><path class="cls-6" d="M96.17,95.15c-3.18-14.03-3.33-13.97-4.18-13.83-.81.16-1,.2,1.6,14.35,1.62,8.86,3.93,20.61,6.48,33.08,2.55,12.47,5.06,24.18,7.05,32.97,3.13,13.82,3.36,13.99,4.14,13.84h.04c.81-.17,1-.21-1.6-14.36-1.62-8.86-3.93-20.6-6.48-33.08-2.56-12.47-5.06-24.18-7.05-32.97Z"/><path class="cls-6" d="M104.61,88.3c1.96,1.32,4.45,1.57,6.63.64l45.11-19.13c1.59-.67,2.64-2.18,2.75-3.93l-.14-12.11c.02-.34-2.38-1.77-2.66-1.97-.28-.2-4.31-1.81-4.63-1.68l-60.54,27.31c-.35.14-13.39.7-13.42,1.07-.02.27,6.79.49,10.66.61,1.7.05,3.36.55,4.82,1.43l11.43,7.74Z"/><path class="cls-8" d="M162.81,112.55h0c-.22-.36-3.03-3.59-7.74-7.2h0c-.11-.08-.21-.21-.26-.36h0c-1.48-5.03-2.86-8.23-2.86-8.23-.23-.55-.79-.82-1.36-.69h0l-3.96.92h0s-.07.02-.1.03c-.45.17-.73.69-.64,1.18l.29,1.44s-.02.06-.03.07c0,0-.02,0-.03,0h0c-2.76-1.38-5.8-2.6-9.07-3.45h0c-.63-.19-1.32-.18-2.04.08h0c-.71.26-1.32.73-1.79,1.32h0c-11.52,13.75-15.96,30.81-16.08,31.7h0c-.04.21-.04.44,0,.65.14.66.67,1.07,1.27,1.01l3.99-.62c.55-.04,1.02.3,1.2.85.18.71,4.19,16.72,5.95,20.6h0c.27.55.88.81,1.49.59h.03c2.23-.9,4.27-1.69,6.48-2.54h0l.19-.08h0c.23-.09.38-.36.34-.62h0c-.37-1.4-1.23-4.57-2.08-7.94l-.07-.28h0c-.07-.29-.28-.5-.53-.55-1.29-.32-2.36-1.35-2.74-2.85-1.35-5.63-2.78-12.18-3.54-17.45h0c-.06-.44.2-.9.6-1.06.42-.17.85.07.95.53l.02.06h0c.51,3.5,1.31,7.58,2.18,11.57h0c.12.54.62.81,1.12.62.51-.19.81-.79.69-1.33h0c-.88-4.01-1.69-8.11-2.19-11.63-.06-.44.2-.9.6-1.06.42-.17.85.07.95.53l.02.06c.5,3.49,1.3,7.53,2.17,11.51h0c.11.53.62.81,1.12.62.5-.19.81-.79.7-1.32h0c-.88-3.99-1.68-8.07-2.18-11.58-.06-.44.2-.9.6-1.06.42-.17.85.07.95.53l.02.06c.74,5.12,2.11,11.43,3.42,16.93v.05s.03.06.03.08v.05c.32,1.52-.12,3.13-1.04,4.33-.16.21-.25.49-.21.77,0,0,.08.89,1.26,4.91.52,1.75.9,2.96,1.08,3.5h0c.06.2.27.31.47.24h0l.36-.13h0c.73-.27,1.5-.55,2.29-.85l.15-.06.15-.04c1-.37,1.95-.71,2.87-1.05l2.18-.78h0c.21-.08.34-.31.33-.54h0c-.5-5.15-.94-7.98-.94-7.98-.05-.25-.27-.37-.5-.32l-2.73.58h0c-.43.08-.74-.11-.9-.42-.1-.19-.12-.42-.12-.42-2.27-16.94,1.68-24.38,1.68-24.38.12-.22.2-.32.2-.32.11-.16.27-.28.44-.34.35-.13.69,0,.87.28,0,0,.07.1.15.38,1.49,5.04,3.06,13.98,4.19,20.98.95,5.94,1.6,10.65,1.6,10.65h0c.05.19.21.29.39.22h0c1.45-.51,2.87-.99,4.39-1.51h.03c.61-.24,1.04-.87,1.07-1.53h0c.06-4.56-2.5-21.08-2.62-21.82-.06-.6.24-1.22.72-1.56l3.67-2.21c.54-.36.85-1.08.71-1.74-.04-.21-.13-.41-.24-.56h0Z"/><ellipse class="cls-6" cx="52.91" cy="88.89" rx="13.31" ry="2.19" transform="translate(-2.85 1.76) rotate(-1.86)"/><path class="cls-10" d="M41.15,89.17s-.01-.04-.02-.06c-.01-.03-.02-.06-.04-.09-.02-.04-.04-.09-.07-.13,0-.01-.02-.03-.03-.04-.03-.05-.07-.09-.1-.14-.01-.01-.03-.03-.04-.04-.04-.04-.07-.07-.12-.11-.01-.01-.03-.02-.04-.03-.21-.15-.47-.24-.74-.19h0s-.02,0-.04,0c-.01,0-.03,0-.04,0-2.51.44-5.05.8-7.55,1.34-2.27.49-4.72,1.69-5.12,4.24-.38,2.37,1.18,4.79,3.53,5.34,1.06.24,2.25.05,3.22-.43,1.08-.53,1.9-1.32,2.68-2.23,1.76-2.03,3.07-4.4,4.44-6.7.14-.23.14-.51.06-.76Z"/><path class="cls-4" d="M155.39,53.29c-.15-.44-.23-.68-9.63,2.62-5.86,2.06-13.62,4.92-21.85,8.06-8.22,3.13-15.92,6.17-21.69,8.54-9.23,3.8-9.15,4.05-9.01,4.49.06.17.1.3.62.24.88-.11,3.11-.79,9-2.85,5.86-2.06,13.62-4.92,21.85-8.06,8.22-3.13,15.92-6.17,21.69-8.54,9.23-3.8,9.16-4.03,9.01-4.49Z"/><path class="cls-12" d="M55.08,191.86c-4.35,1-9.06.14-13.44-2.5-4.71-2.84-8.51-7.45-10.71-12.97-4.64-11.67-.57-23.95,9.06-27.37,9.62-3.42,21.24,3.3,25.88,14.97h0c4.64,11.67.57,23.95-9.06,27.37-.57.2-1.14.37-1.73.5ZM43.34,157.81c-.36.08-1.63,4.5-1.98,4.62-6.67,2.37-8.6,3.18-5.07,12.05,1.76,4.43,4.75,8.09,8.42,10.31,3.41,2.06,6.99,2.59,10.07,1.49,6.67-2.37-.13-2.41-3.66-11.28l-1.7-7.27c-3.34-8.41.38-11.42-6.09-9.92Z"/><path class="cls-5" d="M58.99,166.75c3.96,9.97.76,20.33-7.15,23.13-7.91,2.81-17.53-3-21.49-12.97-3.96-9.97-.76-20.33,7.15-23.13,7.91-2.81,17.53,3,21.49,12.97Z"/><path class="cls-1" d="M58.99,166.75c3.96,9.97.76,20.33-7.15,23.13-7.91,2.81-17.53-3-21.49-12.97-3.96-9.97-.76-20.33,7.15-23.13,7.91-2.81,17.53,3,21.49,12.97Z"/><path class="cls-12" d="M53.88,168.76c2.9,7.31.56,14.91-5.25,16.97-5.8,2.06-12.86-2.2-15.77-9.51-2.9-7.31-.56-14.91,5.25-16.97,5.8-2.06,12.86,2.2,15.77,9.51Z"/><path class="cls-2" d="M37.79,178.07c-.8-.92-1.48-2.01-1.97-3.25-1.47-3.71-.8-7.54,1.42-9.57"/><path class="cls-12" d="M111.43,198.22c-4.78.57-9.73-.91-14.12-4.25-4.72-3.6-8.25-8.98-9.96-15.15-3.61-13.05,2.18-25.74,12.9-28.28,10.71-2.55,22.38,6.01,25.99,19.06h0c3.61,13.05-2.18,25.74-12.9,28.28-.63.15-1.27.26-1.91.34ZM102.82,160.35c-.39.05-2.27,4.63-2.66,4.72-7.43,1.76-9.58,2.4-6.84,12.33,1.37,4.96,4.15,9.23,7.83,12.03,3.42,2.6,7.19,3.59,10.62,2.78,7.43-1.76.14-2.6-2.61-12.52l-.98-7.99c-2.6-9.4,1.74-12.19-5.37-11.35Z"/><path class="cls-5" d="M118.55,171.76c3.08,11.15-1.56,21.88-10.36,23.96-8.81,2.09-18.44-5.26-21.52-16.41-3.08-11.15,1.56-21.88,10.36-23.96,8.81-2.09,18.44,5.26,21.52,16.41Z"/><path class="cls-1" d="M118.55,171.76c3.08,11.15-1.56,21.88-10.36,23.96-8.81,2.09-18.44-5.26-21.52-16.41-3.08-11.15,1.56-21.88,10.36-23.96,8.81-2.09,18.44,5.26,21.52,16.41Z"/><path class="cls-12" d="M112.84,173.32c2.26,8.18-1.14,16.05-7.6,17.58-6.46,1.53-13.53-3.86-15.79-12.03s1.14-16.05,7.6-17.58c6.46-1.53,13.53,3.86,15.79,12.03Z"/><path class="cls-2" d="M94.51,181.41c-.75-1.08-1.35-2.33-1.73-3.71-1.15-4.15.02-8.17,2.64-10.09"/><path class="cls-11" d="M85.93,67.52s7.31.39,13.64-3.22c0,0-5.55-7.7-10.13-5.26,0,0-5.75,3.12-3.51,8.48Z"/><path class="cls-9" d="M49.36,29.26s-15.83-1.33-16.55.92,2.35,4.09,7.15,2.86,9.4-3.78,9.4-3.78Z"/><path class="cls-9" d="M53.03,19.76s-12.26-14.81-14.3-14.91-3.98,1.74-1.43,3.57,15.73,11.34,15.73,11.34Z"/><path class="cls-9" d="M63.35,16.9s-2.14-10.62,1.53-14.2,2.66,3.06,1.94,4.39-3.47,9.8-3.47,9.8Z"/></svg>