<?xml version="1.0" encoding="UTF-8"?>
<svg id="Illustration" xmlns="http://www.w3.org/2000/svg" xmlns:xlink="http://www.w3.org/1999/xlink" viewBox="0 0 200 200">
  <defs>
    <style>
      .cls-1 {
        fill: none;
      }

      .cls-2 {
        clip-path: url(#clippath);
      }

      .cls-3 {
        fill: #f96800;
      }

      .cls-4 {
        fill: #fff;
      }

      .cls-5 {
        fill: #ffcf4e;
      }

      .cls-6 {
        fill: #ffa2af;
      }

      .cls-7 {
        fill: #ffb5c4;
      }

      .cls-8 {
        fill: #ffc101;
      }

      .cls-9 {
        fill: #afcbcd;
      }

      .cls-10 {
        fill: #bbdbdf;
      }

      .cls-11 {
        clip-path: url(#clippath-1);
      }
    </style>
    <clipPath id="clippath">
      <path class="cls-1" d="m81.34,136.43c0-4.88,3.99-8.87,8.87-8.87h30.91s0-30.91,0-30.91c0-4.88,3.99-8.87,8.87-8.87h9.7c4.88,0,8.87,3.99,8.87,8.87v30.91s1.72,0,1.72,0c9.57-7.93,15.9-19.46,17.11-32.36h0c1.39-14.77-4.57-29.28-15.92-38.81-.07-.06-.14-.12-.2-.19l-19.66-20.59c-5.16-5.4-9.9-11.19-14.18-17.31-.65-.93-1.82-1.35-2.92-1.04L26.44,42.31c-1.09.31-1.87,1.28-1.94,2.41l-.5,8.58c-.63,10.73-2.23,21.38-4.78,31.82l-3.62,14.83c-3.44,14.08.09,28.95,9.49,39.99h0c11.46,13.46,29.72,18.99,46.73,14.15l10.96-3.12c-.91-1.39-1.45-3.06-1.45-4.84v-9.7Z"/>
    </clipPath>
    <clipPath id="clippath-1">
      <path class="cls-1" d="m317,137.03l-14.23-26.29c-2.34-4.32,1.29-9.46,6.15-8.68l29.52,4.7c1.91.3,3.84-.35,5.17-1.75l20.61-21.65c3.39-3.56,9.39-1.69,10.16,3.17l4.63,29.35c4.54-6.59,7.46-14.34,8.24-22.66h0c1.39-14.77-4.57-29.28-15.92-38.81-.07-.06-.14-.12-.2-.19l-19.66-20.59c-5.16-5.4-9.9-11.19-14.18-17.31-.65-.93-1.82-1.35-2.92-1.04l-88.08,25.05c-1.09.31-1.87,1.28-1.94,2.41l-.5,8.58c-.63,10.73-2.23,21.38-4.78,31.82l-3.62,14.83c-3.44,14.08.09,28.95,9.49,39.99h0c11.46,13.46,29.72,18.99,46.73,14.15l23.96-6.82,1.43-2.8c.88-1.72.85-3.76-.07-5.46Z"/>
    </clipPath>
  </defs>
  <g>
    <path class="cls-8" d="m39.01,14.25h66.06c13.74,0,24.89,11.15,24.89,24.89h0c0,13.74-11.15,24.89-24.89,24.89H39.01c-13.74,0-24.89-11.15-24.89-24.89h0c0-13.74,11.15-24.89,24.89-24.89Z" transform="translate(-7.96 21.2) rotate(-15.88)"/>
    <circle class="cls-8" cx="60.36" cy="15.95" r="6.05" transform="translate(10.32 53.28) rotate(-51.52)"/>
    <circle class="cls-5" cx="72.15" cy="12.59" r="6.05" transform="translate(17.4 61.24) rotate(-51.52)"/>
    <g>
      <path class="cls-10" d="m81.34,136.43c0-4.88,3.99-8.87,8.87-8.87h30.91s0-30.91,0-30.91c0-4.88,3.99-8.87,8.87-8.87h9.7c4.88,0,8.87,3.99,8.87,8.87v30.91s1.72,0,1.72,0c9.57-7.93,15.9-19.46,17.11-32.36h0c1.39-14.77-4.57-29.28-15.92-38.81-.07-.06-.14-.12-.2-.19l-19.66-20.59c-5.16-5.4-10.92-11.04-15.2-17.16-.65-.93-.8-1.49-1.89-1.18L26.44,42.31c-1.09.31-1.87,1.28-1.94,2.41l-.5,8.58c-.63,10.73-2.23,21.38-4.78,31.82l-3.62,14.83c-3.44,14.08.09,28.95,9.49,39.99h0c11.46,13.46,29.72,18.99,46.73,14.15l10.96-3.12c-.91-1.39-1.45-3.06-1.45-4.84v-9.7Z"/>
      <path class="cls-7" d="m179.47,127.56h-29.18c-5.01,4.15-10.9,7.31-17.42,9.17l-50.08,14.24c1.59,2.42,4.33,4.04,7.42,4.04h30.91s0,30.91,0,30.91c0,4.88,3.99,8.87,8.87,8.87h9.7c4.88,0,8.87-3.99,8.87-8.87v-30.91s30.91,0,30.91,0c4.88,0,8.87-3.99,8.87-8.87v-9.7c0-4.88-3.99-8.87-8.87-8.87Z"/>
      <path class="cls-6" d="m150.29,127.56h-1.72v-30.91c0-4.88-3.99-8.87-8.87-8.87h-9.7c-4.88,0-8.87,3.99-8.87,8.87v30.91s-30.91,0-30.91,0c-4.88,0-8.87,3.99-8.87,8.87v9.7c0,1.78.54,3.44,1.45,4.84l50.08-14.24c6.52-1.85,12.41-5.02,17.42-9.17Z"/>
    </g>
    <g class="cls-2">
      <path class="cls-9" d="m160.83,1.71c-2.18-2.49-45.38,31.74-96.48,76.48C13.26,122.92-26.4,161.2-24.21,163.7c2.18,2.49,45.38-31.74,96.48-76.48C123.36,42.49,163.02,4.2,160.83,1.71Z"/>
      <path class="cls-9" d="m146.59-18.08c-1.96-2.67-47.91,27.78-102.61,68.02C-10.73,90.18-53.49,124.97-51.53,127.64c1.96,2.67,47.91-27.78,102.61-68.02C105.8,19.38,148.55-15.41,146.59-18.08Z"/>
      <path class="cls-9" d="m176.12,19.25c-2.39-2.3-42.47,35.54-89.52,84.52C39.55,152.74,3.35,194.3,5.74,196.6c2.39,2.3,42.47-35.54,89.52-84.52,47.05-48.97,83.25-90.54,80.86-92.84Z"/>
      <path class="cls-9" d="m208.92,13.04c-2.67-1.96-37.46,40.79-77.7,95.5-40.24,54.71-70.7,100.65-68.03,102.61,2.67,1.96,37.46-40.79,77.7-95.5C181.13,60.95,211.59,15.01,208.92,13.04Z"/>
    </g>
    <path class="cls-4" d="m127.62,27.16c-5.12-5.05-9.84-8.96-11.98-10.02-5.85-4.18-89.25,16.5-91.54,26.63-1.04,2.26-2.38,8.12-3.34,15.07-1.26,9.02-1.42,16.46-.36,16.6,1.06.15,2.93-7.05,4.19-16.07.81-5.83,2.05-12.5,2.45-15.91,13.67-5.31,61.36-18.93,85.38-24.39,3.8,1.83,8.72,5.95,12.35,9.53,6.48,6.4,11.97,13.13,12.72,12.38.75-.76-3.36-7.42-9.85-13.82Z"/>
  </g>
  <g class="cls-11">
    <path class="cls-3" d="m377.86-27.02c-1.96-2.67-47.91,27.78-102.61,68.02-54.71,40.24-97.47,75.02-95.5,77.69,1.96,2.67,47.91-27.78,102.61-68.02,54.71-40.24,97.47-75.02,95.5-77.69Z"/>
  </g>
</svg>