<svg id="Illustration" xmlns="http://www.w3.org/2000/svg" viewBox="0 0 200 200"><defs><style>.cls-1{fill:none}.cls-1,.cls-2,.cls-5,.cls-6,.cls-7{stroke-width:0}.cls-9{fill:#513d57;stroke:#513d57;stroke-miterlimit:10;stroke-width:6px}.cls-2{fill:#78577a}.cls-5{fill:#fff}.cls-6{fill:#ffb5c4}.cls-7{fill:#ffa2af}</style></defs><path class="cls-2" d="M139.34 19.52 11.27 60.24c-3.54 1.13-5.28 5.09-3.74 8.44.04.09.08.17.11.26l42.02 117.19a4.124 4.124 0 0 0 5.12 2.5l132.07-41.98c2.25-.71 3.44-3.17 2.62-5.38L146.85 22.95a3.76 3.76 0 0 0-.2-.46 6.163 6.163 0 0 0-7.3-2.96Z"/><path d="M153.96 38.48 14.06 82.95l42.52 85.54a7.506 7.506 0 0 0 8.99 3.81l125.49-39.84c4.39-1.39 6.5-6.37 4.45-10.49l-41.53-83.5Z" style="fill:#d6e8ea;stroke-width:0"/><path class="cls-5" d="M146.77 48.84c-.25-.77-26.91 7.33-59.53 18.08-32.63 10.76-58.87 20.1-58.62 20.87s26.91-7.33 59.53-18.08c32.63-10.76 58.87-20.1 58.62-20.87ZM157.29 71.4c-.25-.77-26.41 7.17-58.43 17.74-32.02 10.57-57.77 19.76-57.52 20.53s26.41-7.17 58.43-17.74c32.02-10.57 57.77-19.76 57.52-20.53ZM169.54 97.35c-.25-.77-26.12 7.08-57.78 17.54-31.66 10.46-57.12 19.56-56.87 20.32s26.12-7.08 57.78-17.54c31.66-10.46 57.12-19.56 56.87-20.32Z"/><path class="cls-5" d="M65.44 159.99c.73-.34-6.49-16.84-16.14-36.85S31.24 87.18 30.5 87.52s6.49 16.84 16.14 36.85 18.06 35.96 18.8 35.62ZM94.17 148.72c.73-.34-6.49-16.84-16.14-36.85s-18.06-35.96-18.8-35.62 6.49 16.84 16.14 36.85 18.06 35.96 18.8 35.62ZM123.42 139.39c.73-.34-6.49-16.84-16.14-36.85s-18.06-35.96-18.8-35.62 6.49 16.84 16.14 36.85 18.06 35.96 18.8 35.62ZM151.81 129.82c.73-.34-6.49-16.84-16.14-36.85s-18.06-35.96-18.8-35.62 6.49 16.84 16.14 36.85 18.06 35.96 18.8 35.62ZM182.02 119.68c.73-.34-6.49-16.84-16.14-36.85s-18.06-35.96-18.8-35.62 6.49 16.84 16.14 36.85 18.06 35.96 18.8 35.62Z"/><path class="cls-5" d="M182.6 120.32c-.25-.77-26.91 7.33-59.53 18.08-32.63 10.76-58.87 20.1-58.62 20.87s26.91-7.33 59.53-18.08c32.63-10.76 58.87-20.1 58.62-20.87Z"/><path d="m114.33 81.23 8.44 6.97 10.53-3c.81-.23 1.54.57 1.23 1.35l-4.02 10.18 6.11 9.08c.47.7-.07 1.64-.91 1.59l-10.93-.67-6.75 8.62c-.52.67-1.58.44-1.79-.37l-2.73-10.6-10.28-3.76c-.79-.29-.91-1.36-.2-1.82l9.24-5.88.4-10.94c.03-.84 1.02-1.29 1.67-.75Z" style="fill:#ff8000;stroke-width:0"/><path d="m136.62 105.81-6.11-9.08 4.02-10.18c.31-.79-.42-1.59-1.23-1.35l-10.53 3-3.01 24.93 5.02-6.41 10.93.68c.84.05 1.38-.89.91-1.59Z" style="fill:#f75e28;stroke-width:0"/><path class="cls-1" d="M119.99 58.36c-.26-.12-.1-.04 0 0ZM34.27 52.49c0-.08-.02-.16-.03-.24.01.13.02.2.02.24ZM133.89 48.8c-.05-.05-.32-.22-.09-.06l.09.06Z"/><path class="cls-7" d="M79.8 53.74c-1.26-3.11-1.4-6.61-.5-9.84.71-2.55 2.04-4.97 3.83-6.94L37.99 51.31c.43 2.42.37 4.93-.12 7.35-.6 2.94-1.9 5.68-3.71 8.06-1.87 2.46-4.37 4.3-7.19 5.52-5.55 2.41-12.33 2.06-17.52-1.09-.92-.56-1.22-1.68-.73-2.63.46-.91 1.77-1.25 2.63-.73.66.4 1.34.74 2.04 1.05h.02c.06.03.12.06.19.08l.51.18c.36.12.73.23 1.1.33.72.19 1.46.29 2.2.43.07 0 .13.01.2.02.18.02.36.03.54.04.38.02.77.03 1.15.03.68 0 1.37-.04 2.05-.13l.26-.03c.12-.02.24-.04.37-.06.32-.06.63-.12.95-.2.67-.16 1.32-.36 1.96-.59.17-.06.34-.13.51-.2.06-.03.58-.23.27-.11-.3.11.2-.1.26-.13.14-.07.29-.14.43-.22a14.861 14.861 0 0 0 2.2-1.37c.06-.04.11-.09.17-.13.21-.18.43-.35.63-.54.49-.44.94-.91 1.37-1.41.21-.24.39-.52.61-.76.03-.04.06-.08.09-.13.09-.12.18-.25.26-.38.35-.53.68-1.08.97-1.65.15-.29.3-.59.43-.89.06-.12.11-.25.16-.38.02-.04.03-.08.05-.12.47-1.23.8-2.51 1-3.82l.03-.2c.01-.13.03-.26.04-.39.02-.31.04-.62.05-.93.02-.64 0-1.28-.05-1.91-.02-.27-.06-.53-.09-.8s0 0 0 .01c0 .04 0 .05 0 0l-22.82 7.25c-3.58 1.14-5.32 5.19-3.68 8.57l6.5 14.48 5.6-1.78c-1.44-.19-2.86-.52-4.24-1.02-1.02-.37-1.62-1.26-1.38-2.36.2-.96 1.41-1.73 2.36-1.38.71.25 1.43.47 2.17.64.35.08.7.15 1.05.21l.56.09c.07 0 .44.03.11.01h-.05.1c1.44.15 2.89.15 4.32-.01.17-.02.35-.05.52-.07.03 0 .06-.01.09-.01.33-.06.66-.12.99-.19.61-.14 1.22-.3 1.82-.49.6-.19 1.18-.44 1.77-.66l.04-.02s-.02 0-.03.01c.02 0 .03-.01.05-.02.06-.03.11-.05.17-.08.15-.07.3-.14.45-.22.28-.14.56-.29.83-.44.57-.32 1.11-.67 1.64-1.04.13-.1.27-.2.4-.3.07-.05.13-.1.2-.15.28-.21-.08.08-.09.08.08 0 .27-.22.33-.27.13-.1.25-.21.37-.32a18.955 18.955 0 0 0 1.99-2.08c.1-.13.21-.25.31-.38.02-.03.04-.05.06-.08.73-1.02 1.38-2.08 1.92-3.21.14-.3.28-.59.4-.89v-.03s.03-.04.04-.07c.05-.13.1-.27.15-.4a20.22 20.22 0 0 0 .96-3.67c.03-.18.06-.36.08-.55s0-.06 0-.09c.03-.3.05-.61.07-.91.07-1.26 0-2.53-.17-3.79-.12-.8.66-1.71 1.39-1.88.3-.07.59-.16.87-.25.34-.11.67-.23 1-.36.06-.03.13-.05.19-.08.16-.08.33-.16.49-.24.68-.35 1.25-.82 1.87-1.24 1.22-.83 2.67-1.42 4.12-1.69 3.16-.6 6.45-.06 8.98 2.02 3.02 2.47 3.57 6.74 2.79 10.35-.36 1.68-1 3.23-1.77 4.73l24.29-7.72a18.627 18.627 0 0 1-4.67-6.74ZM147.3 27.63c-.19.13-.08.06.02-.01-.01 0-.02.02-.02.02Z"/><path class="cls-7" d="M57.35 65.23c.03-.06.06-.13.09-.19 0-.02 0-.03.01-.05.08-.21.16-.43.24-.65.31-.88.54-1.79.68-2.72 0-.03 0-.05.01-.07v-.02c0-.09.02-.18.02-.27.02-.22.02-.44.03-.67 0-.43-.02-.87-.07-1.3v-.03c-.03-.13-.05-.26-.08-.39-.04-.19-.1-.39-.16-.58-.06-.19-.13-.38-.2-.57-.03-.06-.05-.1-.07-.15a7.46 7.46 0 0 0-.55-.9s-.03-.04-.04-.06c-.1-.12-.21-.23-.32-.34s-.23-.21-.34-.31c-.05-.05-.15-.11-.22-.15.04.02.09.06.18.11-.27-.16-.51-.34-.78-.49l-.36-.18c.04.01-.07-.05-.15-.08s-.1-.04-.15-.07c.04.02.07.03.1.05-.26-.09-.53-.18-.8-.25-.28-.07-.55-.11-.83-.16-.09-.01-.2-.03-.26-.03-.16-.01-.32-.02-.48-.02-.33 0-.65 0-.98.03-.14.01-.28.03-.43.05-.05 0-.09.01-.14.02-.65.12-1.29.31-1.9.56h-.02c-.06.03-.11.06-.16.08-.15.07-.3.15-.44.23-.29.16-.57.34-.85.53-.63.45-1.22.89-1.92 1.24-.56.27-1.13.52-1.72.74.19 2.63-.14 5.32-.94 7.82-1.13 3.57-3.15 6.83-5.85 9.39l17.26-5.49c.7-1.11 1.39-2.23 1.99-3.4.22-.43.43-.86.62-1.3ZM92.78 41.17v.04c-.02-.12-.06-.29 0-.03ZM94.87 46.04s-.02-.02-.03-.04c.01.02.02.04.04.06 0-.01 0 0-.02-.02ZM30 75.81s-.03.02 0 0ZM126.84 36.39c.04-.34.09-.67.13-1.01 0-.07.02-.15.02-.23l.06-.61c.06-.71.11-1.42.1-2.13 0-.59-.05-1.17-.12-1.75 0-.04-.02-.09-.02-.13-.03-.14-.05-.27-.08-.4-.06-.27-.12-.53-.19-.8-.15-.55-.33-1.09-.54-1.61-.02-.04-.08-.19-.12-.28-.04-.07-.07-.15-.08-.17-.11-.23-.22-.46-.34-.68-.27-.5-.56-1-.88-1.47-.16-.25-.34-.49-.52-.72-.08-.09-.19-.2-.24-.31-.01-.02-.03-.03-.04-.05-.01-.02-.03-.03-.05-.05l-28.24 8.98.03.11c.14.92-.42 1.88-1.35 2.14.11-.01.02 0-.1.03-.02 0-.03.02-.04.03 0 0 .02-.02.03-.02-.02 0-.03 0-.05.01-.01 0-.03.02-.04.03 0 0-.02.02-.02.03 0 0-.02 0-.02.01-.05.03-.09.07-.14.1.06-.03.1-.06.14-.09-.07.07-.14.14-.21.22l-.05.05c-.06.07-.11.14-.16.2.03-.04.05-.06.08-.09-.12.18-.22.37-.32.56-.05.11-.1.22-.16.32 0 .01 0 .02-.02.03-.09.26-.18.51-.25.77-.07.24-.13.49-.18.74-.03.16-.03.57-.11.73v.07c0 .11-.02.21-.02.32-.01.25-.01.51 0 .76 0 .25.02.51.04.76 0 .06.05.28.06.41v.04-.03.07a11.864 11.864 0 0 0 .53 1.98c.04.11.14.56.23.59-.11-.24-.13-.3-.07-.17.03.06.05.12.08.18.05.12.11.23.17.34.1.19.2.38.31.56.21.37.45.72.7 1.07.04.06.08.11.13.17-.01-.02-.03-.04-.03-.05.08.1.12.15.14.18-.02-.02-.04-.05-.07-.07.02.03.04.06.05.07.03.02.05.05.06.06.15.17.31.35.47.51.29.3.59.59.91.86.11.1.22.19.34.28l.15.12-.19-.15c.08.14.38.27.51.36.38.26.78.5 1.18.71.22.12.45.23.68.34.07.03.45.25.55.25-.09-.03-.32-.13-.08-.04.12.04.24.09.35.13.2.07.4.14.6.2.44.14.89.25 1.35.34.23.05.45.09.68.12.09.01.19.03.28.04h.02c.85.07 1.7.09 2.56.02.23-.02.46-.05.69-.07.1-.02.2-.03.3-.05a14.59 14.59 0 0 0 2.51-.73c.07-.03.15-.06.22-.09.1-.12.45-.21.59-.28a14.424 14.424 0 0 0 1.7-1.04c.06-.05.13-.09.19-.14.02-.01.04-.03.05-.04.12-.09.12-.13.09-.12.14-.12.33-.25.4-.31.15-.14.29-.27.43-.42.16-.16.31-.32.45-.49.06-.07.33-.49.42-.51.07-.1.14-.19.2-.29a11.914 11.914 0 0 0 .85-1.58c0-.02.02-.04.02-.06 0-.01 0-.02.02-.04.03-.08.06-.15.08-.23.07-.21.14-.42.2-.63.12-.4.21-.82.28-1.23.02-.11.03-.21.05-.32.02-.2.03-.4.04-.6.02-.42.01-.84-.02-1.26 0-.14-.02-.28-.04-.42 0-.06-.08-.44 0-.1.07.35 0-.04-.02-.1-.02-.12-.04-.23-.07-.35-.08-.39-.19-.77-.32-1.14-.07-.19-.2-.42-.24-.62V37l-.12-.21c-.2-.39-.44-.76-.69-1.12-.63-.88-.16-2.11.66-2.65.91-.61 2.07-.17 2.65.66 2.78 3.9 2.68 9.47.28 13.52-.94 1.6-2.24 2.95-3.74 4.03l14.18-4.51a15.95 15.95 0 0 1-1.18-5.65c-.04-1.57.17-3.14.36-4.7Z"/><path class="cls-7" d="M124.03 24.11c.07.09.22.26.05.06-.02-.02-.03-.04-.05-.06ZM109.22 49.31c.28-.11-.01 0-.1.04.03-.01.07-.03.1-.04ZM17.36 69.85h.03c-.16-.02-.31-.03-.03 0ZM148.45 26.94s-.04.02-.06.02c-.27.14-.54.28-.8.45l-.21.15c-.02.01-.04.03-.06.05 0 0 .01 0 .02-.01 0 0-.02.01-.02.02l-.09.07c-.22.2-.43.41-.63.63-.07.08-.14.17-.21.25 0-.01.02-.03.02-.04-.02.03-.04.06-.06.08 0 0-.02.02-.02.03-.03.04-.06.09-.07.11-.16.24-.32.49-.45.75-.06.12-.13.25-.18.38 0 .02-.02.03-.02.05-.11.34-.22.67-.3 1.01-.04.18-.08.37-.11.56 0 .03-.01.06-.01.09.02.18-.04.43-.05.6 0 .17-.01.33 0 .5 0 .33.02.67.05 1 0 .07.01.15.02.22.06.13.07.4.09.53.07.33.15.65.25.97.3 1.04-.33 2.06-1.32 2.4-.99.34-2.11-.34-2.4-1.32-1.07-3.65-.65-7.64 1.81-10.63.97-1.18 2.27-2.06 3.69-2.61l.09-.03-.46-1.02a6.18 6.18 0 0 0-7.42-3.19l-11.7 3.72c.39.56.76 1.14 1.09 1.74 1.19 2.19 1.92 4.58 2.08 7.06.1 1.51-.07 3.02-.25 4.52-.05.38-.09.76-.14 1.14-.02.18-.04.35-.07.53V37.81c-.08.74-.15 1.47-.18 2.21-.02.64 0 1.27.05 1.9l.06.52c0 .02 0 .05.01.07.05.28.1.55.16.83.14.59.31 1.18.53 1.74.04.1.07.19.11.28.02.05.05.12.08.17l22.82-7.26L149 26.73s-.1.02-.14.04c-.13.04-.27.08-.39.13ZM90.37 36.35l-.03.02c.26-.09.27-.1.21-.09-.06.02-.11.05-.17.07ZM94.88 51.26c-1.81-1.32-3.36-2.94-4.41-4.94-1.04-2-1.66-4.22-1.66-6.48 0-.87.1-1.85.31-2.83-.09.05-.18.1-.26.15-.37.23-.72.46-1.07.72-.06.05-.13.09-.19.14 0 0-.02.02-.04.03.14-.1-.09.07-.13.1l-.18.15c-.56.49-1.09 1.02-1.58 1.59-.13.15-.26.31-.39.47 0-.01.02-.03.02-.04-.04.07-.1.13-.14.19-.21.29-.4.58-.59.88-.39.63-.74 1.29-1.03 1.97 0 .02-.02.04-.02.06-.02.06-.05.12-.07.18-.06.17-.12.33-.18.49-.11.33-.21.67-.3 1-.1.38-.18.76-.25 1.14-.03.15-.05.29-.07.44v-.04.07c0 .03 0 .06-.01.09v.12c-.06.73-.07 1.47-.01 2.21l.06.55c0-.02 0-.04-.02-.07l.03.15s0 .06.01.08c0 .02 0 .03.01.05.06.35.14.69.23 1.04.1.38.22.75.34 1.11.06.16.12.33.18.49.01.03.04.11.08.19 0-.01.12.26.14.3.04.07.07.14.1.21.08.16.16.31.24.46.17.33.36.64.56.95.2.31.41.61.62.91.06.08.13.16.2.24.02.03.04.07.07.1l.03.03c0 .01.02.02.03.04v-.02l.14.17c.48.56 1 1.09 1.54 1.59.29.26.59.52.89.76.12.1.26.18.37.29-.42-.4.04.03.18.12.08.05.16.1.24.16l15.42-4.9c-3.34.01-6.68-.92-9.41-2.91Z"/><path class="cls-6" d="M96.18 61.84c.07 0 .16.02.17.02-.05 0-.12-.01-.17-.02ZM107.14 53.94c2.27-.39 4.46-1.33 6.34-2.69l-9.19 2.92c.95 0 1.91-.07 2.85-.23ZM94.36 35.21ZM99.59 49.48h.03-.03ZM94.89 46.07s.04.05.07.07c-.02-.02-.06-.08-.14-.18 0 .01.02.03.03.05 0 .01.02.02.03.04l.02.02ZM92.79 41.24v-.04.03Z"/><path class="cls-6" d="M117.22 47.21c2.4-4.05 2.5-9.62-.28-13.52-.58-.82-1.74-1.26-2.65-.66-.82.54-1.28 1.77-.66 2.65.26.36.49.73.69 1.12.04.07.07.14.11.21v.02c.06.2.19.43.25.62.13.38.23.76.32 1.14.03.12.05.23.07.35.01.05.09.44.02.1-.07-.34 0 .04 0 .1.01.14.03.28.04.42.03.42.04.84.02 1.26 0 .2-.03.4-.04.6-.02.11-.03.21-.05.32-.07.42-.16.83-.28 1.23-.06.21-.13.42-.2.63-.03.07-.05.15-.08.23 0 .02 0 .02-.02.04 0 .02-.02.04-.02.06-.16.37-.34.73-.54 1.07-.1.18-.21.34-.31.51-.06.1-.13.2-.2.29-.08.02-.36.44-.42.51-.15.17-.3.33-.45.49-.14.14-.28.28-.43.42-.07.07-.27.2-.4.31.04-.01.04.02-.09.12-.02.01-.03.03-.05.04-.06.05-.13.09-.19.14-.16.12-.33.23-.5.34-.39.25-.79.49-1.2.7-.14.07-.48.16-.59.28-.07.03-.15.06-.22.09a14.59 14.59 0 0 1-2.51.73c-.1.02-.2.04-.3.05-.23.03-.46.06-.69.07-.86.07-1.71.06-2.56-.02h-.02c-.09-.01-.19-.03-.28-.04-.23-.04-.46-.08-.68-.12-.45-.09-.9-.21-1.35-.34-.2-.06-.4-.13-.6-.2-.12-.04-.24-.09-.35-.13-.23-.09 0 .02.08.04h.03-.03c-.1 0-.47-.22-.55-.25-.23-.11-.45-.22-.68-.34-.41-.22-.8-.46-1.18-.71-.14-.09-.43-.23-.51-.36l.19.15-.15-.12c-.12-.09-.23-.18-.34-.28-.32-.27-.62-.56-.91-.86-.16-.17-.31-.34-.47-.51-.01-.01-.03-.04-.06-.06 0 0-.03-.04-.05-.07-.02-.02-.03-.04-.04-.06-.04-.06-.08-.11-.13-.17-.25-.34-.48-.7-.7-1.07-.11-.18-.21-.37-.31-.56-.06-.11-.11-.23-.17-.34-.03-.06-.05-.12-.08-.18-.06-.13-.04-.08.07.17-.09-.04-.19-.49-.23-.59-.08-.22-.15-.44-.22-.67-.13-.43-.22-.87-.31-1.31V41.18c-.05-.26-.01-.09 0 .03 0-.13-.06-.36-.06-.41a9.67 9.67 0 0 1-.04-.76v-.76c0-.11.01-.21.02-.32v-.07c.08-.16.08-.56.11-.73.05-.25.11-.5.18-.74.07-.26.16-.51.25-.77 0 0 0-.02.02-.03.05-.11.1-.22.16-.32.1-.19.21-.38.32-.56-.02.03-.05.05-.08.09.06-.06.11-.13.16-.2s.05-.06.05-.06c.07-.08.14-.15.21-.22a.85.85 0 0 1-.14.09c.05-.03.09-.07.14-.1 0 0 .02 0 .02-.01 0 0 .02-.02.02-.03.01-.01.03-.03.04-.03.02 0 .03 0 .05-.01 0 0-.02.02-.03.02.02 0 .03-.02.04-.03.12-.03.21-.04.1-.03.93-.26 1.49-1.22 1.35-2.14 0-.04-.02-.07-.03-.11l-12.56 3.99a17.316 17.316 0 0 0-3.83 6.94c-.89 3.22-.75 6.73.5 9.84 1.04 2.56 2.64 4.87 4.67 6.74l4.41-1.4c-.08-.05-.16-.1-.24-.16-.13-.09-.6-.52-.18-.12-.11-.11-.25-.19-.37-.29a17.765 17.765 0 0 1-2.43-2.35l-.14-.17v.02c0-.01-.02-.02-.03-.04l-.03-.03c-.03-.03-.05-.07-.07-.1-.07-.08-.14-.17-.2-.24-.22-.3-.42-.6-.62-.91-.2-.31-.38-.63-.56-.95-.08-.15-.16-.31-.24-.46-.04-.07-.07-.14-.1-.21-.02-.04-.14-.32-.14-.3-.04-.08-.07-.17-.08-.19-.06-.16-.13-.33-.18-.49-.13-.37-.25-.74-.34-1.11-.09-.34-.17-.69-.23-1.04 0-.02 0-.04-.01-.05 0-.02 0-.05-.01-.07 0-.06-.01-.11-.03-.16 0 .03.01.05.02.07l-.06-.55c-.06-.74-.05-1.47.01-2.21v-.12c0-.03.01-.06.01-.09v-.07.04c.02-.15.04-.3.07-.44.07-.38.15-.76.25-1.14.09-.34.19-.67.3-1 .06-.16.12-.33.18-.49.02-.06.05-.12.07-.18 0-.02.02-.04.02-.06.3-.68.64-1.34 1.03-1.97.18-.3.38-.59.59-.88.04-.06.1-.13.14-.19 0 .02-.02.03-.02.04.13-.16.26-.32.39-.47.48-.57 1.01-1.1 1.58-1.59l.18-.15c.03-.03.26-.2.13-.1-.09.06-.28.2-.05.03.03-.02.03-.02.05-.03.02-.01.03-.03.04-.03.06-.05.13-.09.19-.14.35-.26.71-.49 1.07-.72.09-.05.18-.1.26-.15-.22.98-.31 1.96-.31 2.83 0 2.26.62 4.49 1.66 6.48 1.04 1.99 2.6 3.62 4.41 4.94 2.73 1.99 6.07 2.92 9.41 2.91l9.19-2.92c1.5-1.09 2.8-2.44 3.74-4.03ZM90.34 36.36s.02-.02.03-.02c.06-.02.11-.05.17-.07.06-.02.06 0-.21.09Zm18.88 12.95s-.07.03-.1.04c.09-.04.38-.15.1-.04Z"/><path class="cls-6" d="M87.56 38.06s-.02.01-.05.03c-.23.17-.04.03.05-.03ZM53.35 54.72c.07.01.13.03.2.04.16.02.23.04-.2-.04Z"/><path class="cls-6" d="M59.15 53.11c-2.53-2.08-5.81-2.62-8.98-2.02-1.45.27-2.9.87-4.12 1.69-.63.42-1.2.89-1.87 1.24-.16.08-.33.16-.49.24-.06.03-.13.05-.19.08-.33.13-.66.25-1 .36-.29.09-.58.18-.87.25-.73.17-1.51 1.09-1.39 1.88a19.188 19.188 0 0 1 .1 4.7v.08c-.03.19-.05.37-.08.56-.1.61-.22 1.2-.38 1.8-.16.63-.36 1.26-.58 1.87-.05.13-.1.27-.15.4-.01.03-.02.05-.03.07v.03c-.14.3-.27.6-.41.89a20.8 20.8 0 0 1-1.98 3.29c-.1.13-.2.26-.31.38-.21.25-.42.5-.64.74-.43.47-.88.91-1.35 1.34-.12.11-.24.22-.37.32-.07.06-.26.28-.33.27.01 0 .38-.29.09-.08-.07.05-.13.1-.2.15-.13.1-.27.2-.4.3-.53.38-1.08.72-1.64 1.04-.27.16-.55.3-.83.44-.15.08-.3.15-.45.22-.06.03-.11.05-.17.08-.02 0-.03.01-.05.02-.03.01-.05.02-.07.03-.03.02-.03.01 0 0 .02 0 .03-.01.07-.03-.59.22-1.17.47-1.77.66-.6.19-1.21.35-1.82.49-.33.07-.66.13-.99.19-.03 0-.06.01-.09.01-.17.02-.35.05-.52.07a19.5 19.5 0 0 1-4.32.01h-.1.05c.33.02-.04 0-.11-.01l-.56-.09a18.566 18.566 0 0 1-3.22-.85c-.95-.34-2.16.43-2.36 1.38-.24 1.1.36 1.99 1.38 2.36 1.38.49 2.8.83 4.24 1.02l17.61-5.6c2.7-2.56 4.72-5.82 5.85-9.39.79-2.5 1.12-5.19.94-7.82.59-.22 1.16-.47 1.72-.74.7-.34 1.29-.79 1.92-1.24.27-.19.56-.37.85-.53.14-.08.29-.16.44-.23.05-.03.1-.05.16-.08h.02c.61-.25 1.25-.44 1.9-.57.05 0 .09-.02.14-.02.14-.02.28-.04.43-.05.32-.03.65-.04.98-.03.16 0 .32.01.48.02.06 0 .18.02.26.03-.07-.01-.13-.03-.2-.04.43.08.36.06.2.04.28.05.56.09.83.16.27.07.53.16.8.25-.03-.02-.06-.03-.1-.05.05.02.1.05.15.07.09.03.2.09.15.08.12.06.24.11.36.18.27.15.52.33.78.49l-.18-.11c.07.05.16.11.22.15.12.1.23.2.34.31s.22.22.32.34c.02.02.03.03.04.05.21.29.4.6.55.91.02.05.04.09.07.14.07.2.14.39.2.58.06.19.11.38.16.58.03.13.05.26.08.39v.03c.05.43.08.87.07 1.3 0 .22-.01.45-.03.67 0 .09-.02.18-.02.27v.02s0 .04-.01.07c-.14.92-.37 1.84-.68 2.72-.07.22-.16.43-.24.65 0 .01 0 .03-.01.05-.03.07-.06.13-.09.19-.19.44-.4.87-.62 1.3-.6 1.17-1.3 2.29-1.99 3.4l5.44-1.73c.77-1.5 1.41-3.05 1.77-4.73.78-3.61.23-7.88-2.79-10.35Z"/><path class="cls-6" d="m30.1 75.76-.04.02c.01 0 .02 0 .03-.01Z"/><path class="cls-6" d="M30 75.81s.04-.02.07-.03-.05.02-.07.03ZM34.27 52.49s0 .04 0 0ZM34.27 52.49zM34.37 53.28c.05.64.07 1.28.05 1.91-.01.31-.03.62-.05.93-.01.13-.02.26-.04.39 0 .07-.02.13-.03.2-.19 1.3-.53 2.59-1 3.82-.01.04-.03.08-.05.12-.05.13-.11.26-.16.38-.14.3-.28.6-.43.89-.29.57-.62 1.12-.97 1.65-.08.13-.17.26-.26.38-.03.04-.06.08-.09.13-.22.24-.4.51-.61.76-.43.5-.89.97-1.37 1.41-.2.19-.42.36-.63.54-.06.04-.11.09-.17.13-.14.11-.29.21-.44.32-.56.39-1.15.74-1.76 1.05-.14.07-.29.15-.43.22-.06.03-.57.24-.26.13.31-.12-.21.09-.27.11-.17.07-.34.13-.51.2-.64.24-1.3.43-1.96.59-.31.08-.63.14-.95.2l-.37.06-.26.03c-.68.08-1.37.12-2.05.13-.38 0-.77 0-1.15-.03-.18 0-.36-.03-.54-.04-.07 0-.13-.01-.2-.02-.74-.14-1.47-.24-2.2-.43-.37-.1-.73-.21-1.1-.33l-.51-.18c-.06-.02-.12-.05-.19-.07h-.02c-.7-.32-1.38-.66-2.04-1.06-.87-.52-2.17-.18-2.63.73-.49.96-.19 2.07.73 2.63 5.19 3.15 11.97 3.5 17.52 1.09 2.82-1.22 5.32-3.06 7.19-5.52 1.81-2.38 3.12-5.12 3.71-8.06.49-2.41.55-4.92.12-7.35l-3.71 1.18c.03.27.07.53.09.8ZM17.36 69.85c-.27-.03-.12-.02.03 0h-.03ZM131.16 45.11c-.22-.57-.39-1.15-.53-1.74-.06-.27-.12-.55-.16-.83 0-.02 0-.05-.01-.07l-.06-.52c-.06-.63-.07-1.27-.05-1.9.02-.74.09-1.47.18-2.21V37.75c.03-.18.05-.35.07-.53.05-.38.09-.76.14-1.14.18-1.5.35-3.01.25-4.52-.16-2.49-.9-4.88-2.08-7.06-.33-.61-.7-1.18-1.09-1.74l-3.9 1.24.05.05c.01.02.03.03.04.05.05.11.17.21.24.31.18.24.35.48.52.72.32.47.61.96.88 1.47.12.22.24.45.34.68 0 .02.04.1.08.17.04.09.1.24.12.28.21.53.39 1.06.54 1.61.07.27.14.53.19.8.03.13.05.27.08.4 0 .04.02.09.02.13.07.58.12 1.16.12 1.75 0 .71-.04 1.42-.1 2.13l-.06.61c0 .07-.02.15-.02.23-.04.34-.08.67-.13 1.01-.19 1.56-.4 3.13-.36 4.7.05 1.91.44 3.86 1.18 5.65l3.69-1.17a2.45 2.45 0 0 1-.08-.17c-.04-.1-.08-.19-.11-.28Zm-7.13-21s.03.04.05.06c.17.2.02.03-.05-.06Zm6.44 18.49v.06-.06ZM156.91 29.07l-.08-.05s.04.02.08.05ZM147.31 23.26c-1.42.55-2.71 1.42-3.69 2.61-2.46 2.99-2.88 6.98-1.81 10.63.28.97 1.41 1.65 2.4 1.32.99-.34 1.62-1.36 1.32-2.4-.09-.32-.18-.64-.25-.97-.03-.13-.03-.41-.09-.53-.01-.07-.02-.15-.02-.22-.03-.33-.05-.67-.05-1v-.5c0-.16.07-.42.05-.6 0-.03 0-.06.01-.09.03-.19.07-.37.11-.56.08-.34.19-.67.3-1.01 0-.02.02-.03.02-.05.06-.13.12-.25.18-.38.14-.26.29-.51.45-.75 0-.02.03-.07.07-.11 0 0 .01-.02.02-.03.02-.03.04-.06.06-.08 0 .02-.02.03-.02.04.07-.08.14-.17.21-.25.2-.22.41-.44.63-.63l.09-.07c-.09.07-.2.15-.02.01 0 0 .01 0 .02-.02.02-.02.04-.03.06-.05l.21-.15c.25-.17.53-.31.8-.45.02 0 .03 0 .06-.02.13-.05.26-.09.39-.13.05-.01.1-.02.14-.04l-1.59-3.54-.09.03Z"/><path class="cls-6" d="M147.32 27.61s.02-.01.02-.02l-.02.01Z"/><g id="Layer_8"><ellipse class="cls-9" cx="36.31" cy="59.45" rx="1.76" ry="2.4" transform="rotate(-17.64 36.314 59.457)"/><path class="cls-2" d="M41.92 50.17a9.855 9.855 0 0 0-4.87-5.78 9.816 9.816 0 0 0-7.53-.64c-5.19 1.65-8.07 7.22-6.42 12.4l5.72-1.82c-.65-2.03.48-4.22 2.52-4.87.98-.31 2.03-.22 2.95.25s1.6 1.28 1.91 2.27c.31.99.22 2.03-.25 2.95-.48.92-1.28 1.6-2.27 1.91l.09.28c-.78.42-1.08 1.73-.65 3.09.43 1.36 1.43 2.26 2.32 2.14l.07.21c2.51-.8 4.56-2.53 5.78-4.87a9.816 9.816 0 0 0 .64-7.53Z"/><ellipse class="cls-9" cx="67.13" cy="49.6" rx="1.76" ry="2.4" transform="rotate(-17.64 67.116 49.584)"/><path class="cls-2" d="M72.75 40.32a9.855 9.855 0 0 0-4.87-5.78 9.816 9.816 0 0 0-7.53-.64c-2.51.8-4.56 2.53-5.78 4.87a9.816 9.816 0 0 0-.64 7.53l5.72-1.82c-.31-.99-.22-2.03.25-2.95s1.28-1.6 2.27-1.91c.98-.31 2.03-.22 2.95.25.92.48 1.6 1.28 1.91 2.27.31.98.22 2.03-.25 2.95-.48.92-1.28 1.6-2.27 1.91l.09.28c-.79.42-1.09 1.73-.65 3.09.43 1.36 1.44 2.26 2.32 2.14l.07.21c5.19-1.65 8.07-7.22 6.42-12.4Z"/><ellipse class="cls-9" cx="100.22" cy="39.28" rx="1.76" ry="2.4" transform="rotate(-17.64 100.197 39.274)"/><path class="cls-2" d="M105.83 30c-1.65-5.19-7.21-8.07-12.4-6.42-5.19 1.65-8.07 7.22-6.42 12.4l5.72-1.82c-.31-.98-.22-2.03.25-2.95.48-.92 1.28-1.6 2.27-1.91a3.878 3.878 0 0 1 2.35 7.39l.09.27c-.78.42-1.08 1.73-.65 3.09.43 1.36 1.43 2.26 2.32 2.14l.07.21c5.19-1.65 8.07-7.21 6.42-12.4Z"/><ellipse class="cls-9" cx="127.95" cy="30.41" rx="1.76" ry="2.4" transform="rotate(-17.64 127.939 30.412)"/><path class="cls-2" d="M133.57 21.13a9.855 9.855 0 0 0-4.87-5.78 9.816 9.816 0 0 0-7.53-.64c-5.19 1.65-8.07 7.22-6.42 12.4l5.72-1.82c-.31-.98-.22-2.03.25-2.95.48-.92 1.28-1.6 2.27-1.91.99-.31 2.03-.22 2.95.25s1.6 1.28 1.91 2.27c.31.99.22 2.03-.25 2.95-.48.92-1.28 1.6-2.27 1.91l.09.28c-.79.42-1.08 1.73-.65 3.09.43 1.36 1.44 2.26 2.32 2.14l.07.21c2.51-.8 4.56-2.53 5.78-4.87a9.816 9.816 0 0 0 .64-7.53Z"/></g></svg>