<?xml version="1.0" encoding="UTF-8"?><svg id="Illustration" xmlns="http://www.w3.org/2000/svg" viewBox="0 0 200 200"><defs><style>.cls-1{fill:#70486d;}.cls-2{fill:#e4c7bd;}.cls-3{fill:none;stroke:#573f59;stroke-linecap:round;stroke-linejoin:round;stroke-width:4.23px;}.cls-4{fill:#f6c243;}.cls-5{fill:#e5b342;}.cls-6{fill:#ba8d3c;}.cls-7{fill:#cc9e40;}.cls-8{fill:#e2ded9;}</style></defs><path class="cls-2" d="M38.29,101.99c-.91.82-1.68,1.81-2.36,2.84-2.58,3.9-3.82,8.58-3.82,13.24s1.23,9.4,3.59,13.46c1.17,2.02,2.63,3.88,4.34,5.47.62.58,1.81,2.01,2.74,1.82.72-.15,1.48-.65,2.15-.95.74-.33,1.48-.66,2.22-.98,5.83-2.51,12.03-4.68,18.45-4.62.67,0,1.34.04,2,.09,6.59.56,12.67,3.6,18.77,6.15,24.22,10.14,52.55,12.98,76.56,2.34,9.48-4.2,17.98-10.33,26.08-16.83,2.71-2.17,5.52-4.6,6.46-7.94.88-3.12-.78-7.68-4.47-7.89.19-2.56-2.22-4.72-4.75-5.19s-5.1.31-7.55,1.08c-1.31-2.46-4.47-3.41-7.23-3.06-2.76.35-5.27,1.72-7.8,2.88-11.2,5.14-24.1,6.48-36.11,3.74-2.97-.68-5.98-1.65-8.25-3.68s-3.6-5.37-2.52-8.21c5.7,1.3,11.8.78,17.19-1.47,3.72-1.56,7.27-4.12,8.8-7.86s.35-8.73-3.29-10.49c-3.39-1.65-7.37-.12-10.96,1.04-16.34,5.27-34.94,2.52-50.21,10.37-4.39,2.26-8.34,5.33-12.83,7.4-5.81,2.69-12.26,3.6-18.62,4.33-2.54.29-5.19.6-7.35,1.96-.45.28-.86.61-1.25.96Z"/><path class="cls-3" d="M36.78,100.48c.07-.05,7.57-1.12,10.11-1.41,6.36-.73,12.81-1.64,18.62-4.33,4.48-2.07,8.43-5.14,12.83-7.4,15.27-7.85,33.87-5.1,50.21-10.37,3.59-1.16,7.57-2.69,10.96-1.04,3.63,1.76,4.81,6.75,3.29,10.49s-5.07,6.3-8.8,7.86c-5.39,2.25-11.49,2.78-17.19,1.47-1.08,2.85.25,6.18,2.52,8.21s5.28,3.01,8.25,3.68c12.01,2.74,24.92,1.4,36.11-3.74,2.53-1.16,5.04-2.53,7.8-2.88,2.76-.35,5.92.6,7.23,3.06,2.45-.77,5.02-1.55,7.55-1.08s4.94,2.63,4.75,5.19c3.69.22,5.35,4.77,4.47,7.89-.95,3.34-3.76,5.76-6.46,7.94-8.09,6.49-16.59,12.62-26.08,16.83-24,10.64-52.34,7.8-76.56-2.34-6.1-2.56-12.18-5.59-18.77-6.15-.67-.06-1.33-.09-2-.09-6.43-.06-24.19,7.15-25.01,7.69"/><path class="cls-3" d="M144.99,117.76c3.42-.53,6.35-1.23,8.71-1.91,1.86-.53,4.8-1.38,8.44-2.99,2.8-1.24,4.76-2.38,7.57-4.01,5.71-3.31,5.64-3.2,7.81-4.29.89-.44,8.05-3.45,11.57-.25.35.32,1.6,1.47,1.57,3.15,0,.53-.15,1.01-.35,1.42"/><path class="cls-3" d="M125.39,127.84s11.03-.41,22.46,3.13c13.34-.82,19.87-6.26,26.41-8.44,1.71-.57,4.18-.94,5.82-.19,1.17.54,2.21,1.82,2.21,2.78,0,2.18-.79,5.99-10.33,11.03-9.54,5.04-20.3,11.32-39.29,11.45-18.99.12-29.28-3.38-29.28-3.38"/><path class="cls-3" d="M97.76,105.1s16.33.27,27.5,22.6"/><path class="cls-5" d="M175.12,47.98c.05-.84,6.11-1.15,13.53-.69,2.01.13,3.9.3,5.61.49-.57-3.95-1.75-7.71-3.43-11.17-2.18.04-4.82-.03-7.65-.2-7.42-.46-13.39-1.52-13.34-2.37.05-.84,6.11-1.15,13.53-.69,2.16.13,4.19.32,5.99.54-1.64-2.77-3.61-5.32-5.86-7.59-1.5-.03-3.12-.09-4.82-.2-7.42-.46-13.39-1.52-13.34-2.37.05-.84,6.11-1.15,13.53-.69.34.02.68.05,1.02.07-6.5-5.07-14.67-8.1-23.55-8.1h-11.4c-6.49,6.87-26.93,28.13-26.93,38.33,0,10.77,19.78,31.37,26.93,38.33h11.4c7.64,0,14.75-2.24,20.73-6.09-2.41.1-5.63.06-9.17-.16-7.42-.46-13.39-1.52-13.34-2.37.05-.84,6.11-1.15,13.53-.69,4.9.31,9.16.87,11.48,1.46,3.32-2.54,6.23-5.6,8.57-9.07-2.44.12-5.78.08-9.45-.15-7.42-.46-13.39-1.52-13.34-2.37.05-.84,6.11-1.15,13.53-.69,4.27.27,8.06.73,10.49,1.24,1.84-3.11,3.25-6.5,4.15-10.09-1.83,0-3.89-.08-6.08-.21-7.42-.46-13.39-1.52-13.34-2.37.05-.84,6.11-1.15,13.53-.69,2.34.15,4.54.35,6.45.59.38-2.17.59-4.39.59-6.67,0-.94-.05-1.86-.11-2.78-1.83,0-3.9-.08-6.1-.21-7.42-.46-13.39-1.52-13.34-2.37Z"/><path class="cls-6" d="M188.65,47.29c-7.42-.46-13.48-.15-13.53.69-.05.84,5.92,1.9,13.34,2.37,2.19.14,4.26.2,6.1.21-.07-.94-.16-1.86-.29-2.78-1.71-.2-3.6-.37-5.61-.49Z"/><path class="cls-6" d="M165.34,72.24c-.05.84,5.92,1.9,13.34,2.37,3.67.23,7.01.27,9.45.15.43-.64.84-1.3,1.23-1.97-2.44-.51-6.22-.97-10.49-1.24-7.42-.46-13.48-.15-13.53.69Z"/><path class="cls-6" d="M174.09,60.11c-.05.84,5.92,1.9,13.34,2.37,2.19.14,4.25.2,6.08.21.22-.88.4-1.77.56-2.68-1.91-.24-4.11-.45-6.45-.59-7.42-.46-13.48-.15-13.53.69Z"/><path class="cls-6" d="M169.83,34.04c-.05.84,5.92,1.9,13.34,2.37,2.84.18,5.47.24,7.65.2-.45-.93-.95-1.84-1.47-2.72-1.8-.22-3.83-.4-5.99-.54-7.42-.46-13.48-.15-13.53.69Z"/><path class="cls-6" d="M165.34,23.73c-.05.84,5.92,1.9,13.34,2.37,1.7.11,3.32.17,4.82.2-1.13-1.14-2.34-2.2-3.61-3.19-.34-.02-.67-.05-1.02-.07-7.42-.46-13.48-.15-13.53.69Z"/><path class="cls-6" d="M154.55,83.05c-.05.84,5.92,1.9,13.34,2.37,3.54.22,6.75.26,9.17.16.86-.55,1.69-1.13,2.5-1.75-2.32-.59-6.58-1.16-11.48-1.46-7.42-.46-13.48-.15-13.53.69Z"/><circle class="cls-4" cx="146.46" cy="53.34" r="38.33"/><path class="cls-7" d="M174.87,53.34c.16,0,.28-.62.37-1.84.02-.3.04-.65.06-1.02,0-.38-.04-.78-.07-1.23-.06-.89-.12-1.93-.38-3.06-.37-2.3-1.3-5.06-2.89-8.01-1.6-2.94-3.98-6.04-7.32-8.71-.42-.33-.85-.66-1.28-1-.45-.31-.92-.6-1.39-.9-.48-.29-.94-.63-1.45-.88-.51-.26-1.03-.52-1.55-.79-.26-.13-.53-.26-.79-.39-.28-.11-.55-.22-.83-.32-.56-.22-1.12-.43-1.69-.65-.57-.2-1.18-.34-1.77-.51-.6-.15-1.2-.37-1.83-.45-1.25-.2-2.52-.48-3.83-.51-.65-.03-1.31-.1-1.98-.1-.67.02-1.34.05-2.01.07-.34.02-.68.01-1.02.05l-1.02.14c-.68.1-1.37.18-2.05.31-1.35.34-2.75.61-4.08,1.14-1.37.43-2.67,1.08-4,1.71-.65.34-1.27.74-1.91,1.12-.31.2-.65.37-.95.59l-.91.67c-1.25.85-2.35,1.9-3.49,2.93-1.04,1.13-2.13,2.24-3.02,3.53l-.71.94-.62,1-.62,1.01c-.21.33-.41.68-.58,1.04-.35.72-.7,1.44-1.05,2.16-.28.75-.56,1.51-.84,2.27-1.01,3.08-1.55,6.36-1.59,9.68.04,3.33.58,6.6,1.59,9.68.28.76.56,1.52.84,2.27.35.72.7,1.44,1.05,2.16.16.36.36.71.58,1.04l.62,1.01.62,1,.71.94c.9,1.29,1.98,2.4,3.02,3.53,1.14,1.03,2.24,2.08,3.49,2.93l.91.67c.3.22.63.39.95.59.64.38,1.27.77,1.91,1.12,1.33.63,2.63,1.29,4,1.71,1.33.54,2.73.8,4.08,1.14.68.13,1.37.21,2.05.31l1.02.14c.34.04.68.03,1.02.05.68.02,1.35.05,2.01.07.67,0,1.32-.07,1.98-.1,1.31-.03,2.58-.31,3.83-.51.63-.08,1.22-.3,1.83-.45.6-.17,1.2-.31,1.77-.51.57-.22,1.13-.44,1.69-.65.28-.11.56-.22.83-.32.26-.13.53-.26.79-.39.52-.26,1.04-.53,1.55-.79.52-.25.97-.59,1.45-.88.47-.3.94-.59,1.39-.9.43-.34.86-.67,1.28-1,3.34-2.67,5.72-5.77,7.32-8.71,1.59-2.95,2.51-5.7,2.89-8.01.26-1.14.32-2.17.38-3.06.03-.45.07-.85.07-1.23-.02-.38-.04-.72-.06-1.02-.09-1.22-.21-1.84-.37-1.84-.16,0-.35.62-.55,1.78-.05.29-.1.61-.16.97-.07.35-.18.74-.28,1.15-.2.83-.39,1.78-.77,2.82-.61,2.1-1.72,4.55-3.36,7.13-1.66,2.56-3.99,5.22-7.08,7.44-3.09,2.2-6.92,4.04-11.31,4.74-1.1.13-2.21.35-3.35.33-.57,0-1.15.06-1.72.04-.58-.04-1.16-.08-1.75-.12-.29-.02-.59-.02-.88-.07l-.88-.15c-.59-.11-1.18-.18-1.77-.31-1.16-.34-2.36-.58-3.49-1.07-1.18-.39-2.28-.99-3.41-1.54-.55-.31-1.08-.66-1.62-.99-.27-.17-.55-.32-.81-.52l-.77-.59c-1.06-.74-1.98-1.66-2.95-2.55-.87-.98-1.79-1.94-2.55-3.05l-.6-.81-.52-.86-.52-.87c-.18-.29-.35-.58-.48-.89-.29-.61-.59-1.23-.88-1.84-.23-.64-.47-1.29-.7-1.94-.84-2.62-1.3-5.4-1.34-8.24.04-2.84.49-5.62,1.34-8.24.23-.65.47-1.29.7-1.94.29-.62.59-1.23.88-1.84.13-.31.3-.61.48-.89l.52-.87.52-.86.6-.81c.75-1.11,1.67-2.07,2.55-3.05.97-.88,1.89-1.81,2.95-2.55l.77-.59c.25-.2.54-.34.81-.52.55-.33,1.07-.69,1.62-.99,1.13-.55,2.23-1.15,3.41-1.54,1.14-.49,2.34-.74,3.49-1.07.59-.13,1.18-.2,1.77-.31l.88-.15c.29-.04.59-.04.88-.07.59-.04,1.17-.08,1.75-.12.58-.02,1.15.03,1.72.04,1.15-.02,2.25.2,3.35.33,4.38.7,8.22,2.54,11.31,4.74,3.1,2.22,5.42,4.87,7.08,7.44,1.65,2.58,2.76,5.03,3.36,7.13.38,1.03.57,1.99.77,2.82.1.41.21.8.28,1.15.06.36.11.68.16.97.21,1.16.4,1.78.55,1.78Z"/><path class="cls-8" d="M12.6,125.23c-4.04,4.8-5.39,9.66-6.7,14.36-1.43,5.14-3.59,12.91-.96,22.02,3.17,10.94,11.25,16.92,14.36,19.15,8.68,6.23,17.36,7.1,22.98,7.66,14.48,1.45,27.9-4.54,36.15-16.91,9.1-13.65,9.3-31.07-1.69-43.41-8.93-10.03-20.69-12.38-25.85-13.4-2.72-.54-6.91-1.35-12.45-.96-3.88.27-17.2,1.21-25.85,11.49Z"/><path class="cls-1" d="M48.77,145.77c.05.07.22.04.5-.1.14-.07.31-.16.49-.29.17-.14.37-.31.59-.51.85-.81,1.82-2.33,2.19-4.46.17-1.06.18-2.26-.08-3.52-.26-1.26-.81-2.59-1.76-3.76-.94-1.17-2.31-2.15-3.87-2.62-1.55-.49-3.26-.57-4.92-.25-1.66.35-3.2,1.09-4.44,2.14-1.25,1.04-2.13,2.47-2.54,3.92-.42,1.45-.41,2.88-.16,4.14.25,1.26.73,2.37,1.3,3.28,1.17,1.82,2.65,2.84,3.75,3.25.28.1.53.17.74.23.22.05.41.06.57.07.31.02.47-.02.5-.1s-.1-.22-.33-.38c-.12-.09-.27-.17-.44-.28-.16-.12-.35-.26-.56-.4-.83-.61-1.88-1.67-2.67-3.26-.75-1.58-1.19-3.78-.48-5.85.36-1.02.98-1.98,1.92-2.72.92-.75,2.09-1.29,3.35-1.56,1.27-.24,2.55-.19,3.69.13,1.15.32,2.1.96,2.83,1.76,1.46,1.63,1.91,3.83,1.84,5.57-.1,1.77-.66,3.16-1.19,4.04-.14.22-.26.41-.36.59-.11.17-.22.31-.29.43-.15.25-.21.41-.16.48Z"/><path class="cls-1" d="M41.99,147.52c0,.37-.85.63-2.03,1.12-.6.23-1.28.57-1.99.97-.71.42-1.46.92-2.19,1.52-.11.1-.22.18-.32.29-.58.53-1.1,1.08-1.55,1.62-.25.31-.48.62-.7.91.22-.67.37-1.44.43-2.31.03-.58-.01-1.2-.12-1.84.2-.2.41-.41.64-.6.38-.32.78-.6,1.18-.85.54-.34,1.09-.62,1.63-.84.94-.37,1.83-.56,2.59-.62h.02c.94-.06,1.64.07,2.04.25.25.11.39.25.38.37Z"/><path class="cls-1" d="M55.62,148.26c-.03.07-.05.13-.08.2-.24.69-.35,1.4-.36,2.09-.06-.04-.13-.08-.2-.12-.53-.34-1.19-.77-1.94-1.24-.23-.15-.48-.3-.72-.46-1.05-.63-2-1.2-2.72-1.62-.71-.45-1.19-.83-1.12-1.19.02-.13.11-.23.28-.32.22-.12.55-.2.96-.2.13,0,.25,0,.39,0,.96.04,2.28.41,3.53,1.19.03.02.06.04.09.06.76.48,1.4,1.06,1.87,1.62Z"/><path class="cls-1" d="M70.94,151.84c-.37,2.13-1.34,3.65-2.19,4.45-.22.2-.42.37-.59.5,0,0-.02.01-.03.02-.18.12-.34.21-.47.27-.28.14-.44.17-.49.1-.03-.03-.03-.09,0-.17.03-.08.08-.18.16-.31.07-.13.18-.26.29-.43.1-.18.22-.37.36-.59.52-.88,1.09-2.27,1.19-4.04.07-1.74-.37-3.95-1.84-5.58-.72-.79-1.68-1.44-2.82-1.76-1.14-.33-2.42-.38-3.69-.14-1.26.27-2.42.82-3.34,1.56-.88.69-1.48,1.58-1.85,2.53-.03.07-.05.13-.08.2-.24.69-.35,1.4-.36,2.09-.02,1.38.34,2.7.84,3.75.79,1.6,1.85,2.66,2.67,3.26.21.15.4.29.56.41.16.11.32.2.43.29.18.13.29.23.32.31.01.03.02.05.01.07-.03.08-.19.12-.49.1-.16-.01-.35-.03-.57-.08-.22-.06-.46-.14-.74-.23-.08-.03-.17-.07-.26-.11-1.07-.47-2.41-1.47-3.49-3.14-.57-.91-1.05-2.02-1.29-3.28-.16-.84-.23-1.76-.12-2.71.04-.47.14-.95.28-1.43.11-.37.25-.75.42-1.12.48-1.04,1.19-2.02,2.12-2.8,1.24-1.05,2.79-1.79,4.44-2.14,1.66-.32,3.37-.24,4.92.25,1.56.48,2.93,1.45,3.86,2.62.95,1.17,1.5,2.5,1.76,3.76.26,1.26.25,2.46.08,3.52Z"/><path class="cls-1" d="M49.58,168.08c.37.06.76-.73,1.45-1.81.33-.55.78-1.16,1.29-1.8.53-.63,1.15-1.28,1.87-1.9.73-.6,1.48-1.11,2.19-1.53.72-.4,1.4-.73,1.99-.97,1.18-.49,2.03-.75,2.03-1.12.01-.32-.89-.71-2.42-.62-.76.04-1.66.25-2.6.61-.94.39-1.91.95-2.81,1.7-.89.76-1.61,1.63-2.15,2.49-.52.87-.87,1.72-1.04,2.47-.35,1.49-.11,2.45.21,2.49Z"/><path class="cls-1" d="M74.96,162.34c.28-.2.22-.85-.26-1.7-.47-.85-1.38-1.86-2.63-2.64-1.25-.78-2.57-1.14-3.54-1.19-.97-.05-1.58.19-1.64.52-.06.35.41.74,1.13,1.19.71.42,1.66.99,2.71,1.62,1.03.66,1.96,1.26,2.66,1.71.72.44,1.28.69,1.56.48Z"/><path class="cls-1" d="M35.46,151.42c-.02.15-.04.29-.06.42-.37,2.13-1.34,3.65-2.19,4.45-.22.2-.42.37-.59.5,0,0-.02.01-.03.02-.18.12-.34.21-.47.27-.28.14-.44.17-.49.1-.03-.03-.03-.09,0-.17.03-.08.08-.18.16-.31.07-.13.18-.26.29-.43.1-.18.22-.37.36-.59.27-.45.55-1.03.76-1.73.22-.67.37-1.44.43-2.31.03-.58-.01-1.2-.12-1.84-.22-1.29-.74-2.65-1.72-3.74-.72-.79-1.68-1.44-2.82-1.76-1.14-.33-2.42-.38-3.69-.14-1.26.27-2.42.82-3.34,1.56-.94.74-1.57,1.71-1.92,2.73-.71,2.07-.27,4.26.48,5.84.79,1.6,1.85,2.66,2.67,3.26.21.15.4.29.56.41.16.11.32.2.43.29.18.13.29.23.32.31.01.03.02.05.01.07-.03.08-.19.12-.49.1-.16-.01-.35-.03-.57-.08-.22-.06-.46-.14-.74-.23-.08-.03-.17-.07-.26-.11-1.07-.47-2.41-1.47-3.49-3.14-.57-.91-1.05-2.02-1.29-3.28-.25-1.26-.27-2.69.16-4.14.41-1.44,1.29-2.87,2.54-3.92,1.24-1.05,2.79-1.79,4.44-2.14,1.66-.32,3.37-.24,4.92.25,1.56.48,2.93,1.45,3.86,2.62.95,1.17,1.5,2.5,1.76,3.76,0,.01,0,.03,0,.04.22,1.08.24,2.13.13,3.06Z"/><path class="cls-1" d="M14.04,168.08c.37.06.76-.73,1.45-1.81.33-.55.78-1.16,1.29-1.8.53-.63,1.15-1.28,1.87-1.9.73-.6,1.48-1.11,2.19-1.53.72-.4,1.4-.73,1.99-.97,1.18-.49,2.03-.75,2.03-1.12.01-.32-.89-.71-2.42-.62-.76.04-1.66.25-2.6.61-.94.39-1.91.95-2.81,1.7-.89.76-1.61,1.63-2.15,2.49-.52.87-.87,1.72-1.04,2.47-.35,1.49-.11,2.45.21,2.49Z"/><path class="cls-1" d="M39.42,162.34c.28-.2.22-.85-.26-1.7-.47-.85-1.38-1.86-2.63-2.64-1.25-.78-2.57-1.14-3.54-1.19-.97-.05-1.58.19-1.64.52-.06.35.41.74,1.13,1.19.71.42,1.66.99,2.71,1.62,1.03.66,1.96,1.26,2.66,1.71.72.44,1.28.69,1.56.48Z"/></svg>