<svg id="Illustration" xmlns="http://www.w3.org/2000/svg" viewBox="0 0 200 200"><defs><clipPath id="clippath"><path class="cls-1" d="M122.52 39.82s.23-1.39 0-3.48-1.56-5.69-3.75-7.75c-2.19-2.06-3.92-2.49-5.07-2.46 0 0-4.03-5.99-9.39-7.78s-13.07 2.54-15.24 5.36-4.24 7.6-4.13 8.85c0 0-2.35 2.54-2.53 4.88s.38 9.45 2.29 11.05c0 0 3.68-3.92 5.43-5.48s5.36-4.8 10.37-5.97 9.28-1.37 12.93-.3c3.65 1.07 6.5 2.57 7.77 3.41s1.28 0 1.32-.33z"/></clipPath><style>.cls-1{fill:none}.cls-2{fill:#78577a}.cls-4{fill:#f45f29}.cls-6{fill:#fd7f03}.cls-7{fill:#f4c044}.cls-8{fill:#edebe8}.cls-9{fill:#bfd8dc}.cls-11{fill:#5b3d5b}</style></defs><path class="cls-7" d="M177.68 51.01c-.66-1.34-1.47-2.61-2.38-3.8-1.88-2.45-4.11-4.58-6.48-6.55-1.23-1.02-2.47-2.07-3.83-2.91-1.36-.84-2.98-1.53-4.61-1.44-1.63.09-3.01.91-3.96 2.21-.83 1.14-1.21 2.57-1.32 3.96-.03.31-.04.62-.03.94 0 .08.03.16.05.24-2.98 2.77-5.38 6.15-7.26 9.75-2.11 4.06-3.61 8.42-4.83 12.82-.7 2.52-1.32 5.06-1.93 7.59-.26.36-.21.95.11 1.24.43.39.96.34 1.39 0 .41-.33.83-.66 1.24-.98.04-.03.13-.1.16-.12.11-.09.22-.17.34-.26.21-.16.43-.32.64-.48.85-.63 1.71-1.25 2.58-1.86 1.71-1.19 3.47-2.33 5.26-3.4 3.6-2.17 7.35-4.1 11.2-5.77.27-.12.54-.23.82-.35.01 0 .02 0 .03-.01.08-.03.16-.07.23-.1.13-.05.26-.11.39-.16.55-.23 1.1-.45 1.65-.66 1.08-.42 2.18-.82 3.28-1.21h.04c1.68.11 3.49.23 5.09-.41 1.45-.58 2.75-1.67 3.21-3.22.5-1.73-.31-3.53-1.06-5.05z"/><path class="cls-4" d="M149.11 66.17c3.37 0 3.38-5.24 0-5.24s-3.38 5.24 0 5.24zM156.17 53.85c3.37 0 3.38-5.24 0-5.24s-3.38 5.24 0 5.24zM167.23 51.41H167c-.36-.01-.7.06-1.01.23-.32.11-.61.29-.84.54-.26.24-.44.52-.54.84-.16.31-.24.65-.23 1.01l.09.7c.12.44.35.83.67 1.16l.53.41c.41.24.85.36 1.32.36h.23c.36.01.7-.06 1.01-.23.32-.11.61-.29.84-.54.26-.24.44-.52.54-.84.16-.31.24-.65.23-1.01l-.09-.7c-.12-.44-.35-.83-.67-1.16l-.53-.41a2.57 2.57 0 0 0-1.32-.36z"/><path class="cls-11" d="M134.7 89.77c1.95.78 3.99 1.31 6.04 1.75 2.41.51 4.85.86 7.29 1.15 2.52.3 5.04.52 7.57.69s4.89.29 7.33.4c2.17.1 4.34.18 6.51.28l.72.03c.51.03 1.01-.47.98-.98-.02-.55-.43-.95-.98-.98-2.11-.1-4.22-.18-6.32-.28-2.42-.1-4.84-.22-7.26-.37-2.52-.16-5.04-.36-7.55-.64-.61-.07-1.22-.14-1.83-.22l-.46-.06c-.07 0-.14-.02-.21-.03-.11-.01.08.01.08.01-.05 0-.09-.01-.14-.02-.3-.04-.61-.08-.91-.13-1.17-.17-2.33-.37-3.49-.59-2.09-.41-4.17-.92-6.18-1.65-.23-.08-.45-.17-.67-.26-.48-.19-1.1.21-1.21.69-.13.57.17 1 .69 1.21z"/><path class="cls-8" d="M147.53 190.79c2.98-2 4.43-5.23 5.56-8.52.58-1.67 1.08-3.37 1.76-5.01.77-1.84 1.73-3.6 2.67-5.36 1.95-3.63 3.81-7.31 4.25-11.47.46-4.33-.57-8.7-2.06-12.74-1.49-4.02-3.4-7.9-5.32-11.73-1.73-3.45-3.65-6.83-6.1-9.82a26.938 26.938 0 0 0-4.07-4.06c-1.67-1.33-3.49-2.44-5.3-3.56-1.78-1.1-3.52-2.25-5.1-3.64-1.56-1.38-3-2.89-4.63-4.19-3.19-2.54-7-4.03-10.96-4.88-2-.43-4.04-.71-6.08-.91-2.21-.22-4.44-.38-6.65-.17s-4.33.92-6.46 1.7c-.99.37-1.99.72-3.02.95s-2.12.32-3.19.36c-2.04.08-4.06.05-6.08.32-1.78.23-3.54.6-5.26 1.14-6.56 2.04-12.75 6.34-15.89 12.59-.9 1.79-1.47 3.7-2.03 5.61-.61 2.08-1.32 4.05-2.5 5.88s-2.45 3.33-3.63 5.04-2.26 3.51-3.21 5.37c-3.7 7.23-5.44 15.56-3.26 23.52 2.15 7.87 7.44 14.64 13.33 20.11a66.34 66.34 0 0 0 4.91 4.11c.42.32 1.1.07 1.34-.35.3-.51.07-1.02-.35-1.34-6.29-4.8-12.06-10.91-15.49-18.1-1.63-3.41-2.64-7.13-2.75-10.91s.64-7.77 1.96-11.44c1.34-3.71 3.27-7.21 5.54-10.43 1.18-1.67 2.49-3.24 3.56-4.98 1.1-1.78 1.79-3.74 2.38-5.74.54-1.81 1.04-3.64 1.89-5.33.71-1.42 1.59-2.75 2.63-3.96 2.16-2.53 4.86-4.52 7.83-6.01s6.26-2.47 9.56-2.85c1.97-.23 3.95-.17 5.93-.26 2.17-.11 4.19-.57 6.23-1.32s3.92-1.47 6.03-1.67c2.18-.21 4.38-.05 6.56.16 3.8.37 7.68 1.03 11.21 2.56 1.76.76 3.42 1.74 4.9 2.96 1.56 1.29 2.96 2.75 4.48 4.07 3.11 2.71 6.89 4.41 10.11 6.96 5.97 4.71 9.23 11.92 12.4 18.62 1.83 3.87 3.55 7.86 4.35 12.08.38 1.98.51 4.01.33 6.02s-.75 3.93-1.52 5.77c-1.5 3.59-3.68 6.85-5.2 10.43-1.3 3.08-1.97 6.44-3.6 9.37-.75 1.34-1.71 2.53-2.98 3.39-1.04.7-.06 2.4.99 1.7z"/><path class="cls-8" d="M161.99 189.54h-14.5c.81-.61 1.75-1.45 2.27-2.35 1.02-1.78 1.37-2.17 2.36-5.12.99-2.95 2.73-7.2 4.34-10.25 1.61-3.05 4.54-8.2 4.41-12.2-.13-4.01-.4-7.79-2.39-12.44-2-4.65-5.03-11.81-7.59-15.62-2.56-3.8-5.46-7.72-8.78-9.84-2.63-1.69-7.44-5.22-9.34-6.62 3.24-2.72 4.39-7.62 4.93-11.68.44-3.28.44-6.7-.58-9.89-1.01-3.18-3.04-5.94-4.88-8.69-2.38-3.55-4.99-7.06-8.18-9.9-.5-.76-.84-1.29-.84-1.29s.81-1.44 1.75-3.22c1.86-1.88 3.28-4.19 4.12-6.72.61-1.85.91-3.83.84-5.77a15.38 15.38 0 0 0-1.45-6c-.54-1.15-1.19-2.25-1.79-3.36-.61-1.14-1.11-2.33-1.66-3.5-.56-1.19-1.26-2.27-2.12-3.27-.8-.93-1.71-1.77-2.64-2.57-1.85-1.6-3.76-3.2-5.93-4.34a14.824 14.824 0 0 0-7.15-1.71c-2.46.04-4.86.64-7.11 1.59-2.27.96-4.32 2.33-6.2 3.91-1.85 1.55-3.51 3.32-5.09 5.15-.78.91-1.55 1.84-2.31 2.77-.81 1-1.62 2.03-2.27 3.15-1.27 2.16-1.81 4.62-1.5 7.11.3 2.44 1.23 4.76 2.62 6.78 1.05 1.53 2.31 2.91 3.67 4.16.77 1.04 1.73 1.99 2.5 2.66-.3 0-.6-.02-.9-.01-2.79.06-5.57.68-8.07 1.92-2.45 1.2-4.59 3.08-5.9 5.48-.79 1.45-1.31 3.03-1.73 4.62-.46 1.71-.87 3.44-1.3 5.16l-1.32 5.27c-.44 1.75-.93 3.5-1.14 5.31-.32 2.83.49 5.62 1.99 8 1.28 2.04 2.97 3.78 4.79 5.35-2.09 1.39-7.44 5.01-8.54 6.4-1.37 1.74-3.91 6.87-4.88 9.79s-3.51 7.29-5.01 9.4c-1.5 2.11-5.71 9.07-6.67 12.32s-2.11 10.73-1.68 13.36c.43 2.63 2.82 10.09 4.74 12.93 1.92 2.84 6.72 8.61 8.45 10.21 1.1 1.01 2.46 2.56 3.31 3.56H49.52c-1.26 0-1.27 1.96 0 1.96H162c1.26 0 1.27-1.96 0-1.96z"/><path class="cls-11" d="M117.6 49.1h.16l-.26-.04c.06 0 .12.03.18.05l-.23-.1c.07.03.13.07.19.11l-.2-.15c.06.05.12.11.17.17l-.15-.2c.05.07.09.14.13.22l-.1-.23c.03.07.05.15.06.23l-.04-.26c0 .07.01.14 0 .22l.04-.26c0 .06-.02.12-.05.17l.1-.23c-.02.05-.05.1-.08.14l.15-.2s-.08.09-.12.12l.2-.15s-.09.06-.15.08l.23-.1c-.06.03-.13.04-.19.05l.26-.04h-.24l.26.04c-.09-.01-.18-.04-.27-.07l.23.1a.946.946 0 0 1-.24-.14l.2.15c-.06-.05-.11-.1-.16-.15l.15.2a.95.95 0 0 1-.1-.17l.1.23s-.04-.1-.04-.15l.04.26v-.16l-.04.26c0-.05.02-.1.04-.15l-.1.23c.02-.05.05-.1.08-.14l-.15.2s.08-.09.13-.13l-.2.15c.06-.05.13-.09.2-.12l-.23.1c.09-.04.18-.06.28-.08l-.26.04c.1-.01.19-.01.29 0l-.26-.04c.08.01.15.03.23.06l-.23-.1c.06.02.11.05.16.09l-.2-.15s.08.07.12.12l-.15-.2.06.09c.11.21.36.39.59.45s.55.04.76-.1.39-.34.45-.59c.06-.26.03-.51-.1-.76-.39-.74-1.32-.98-2.08-.79-.33.08-.68.27-.91.54-.17.2-.3.4-.37.66-.07.27-.06.52 0 .8.04.17.11.35.22.5.08.1.15.21.25.31s.2.17.31.25c.3.22.71.33 1.08.34.45.01.91-.17 1.24-.49.2-.2.31-.41.41-.67.03-.09.04-.18.05-.27s.03-.18.02-.28c-.03-.49-.22-.95-.57-1.31-.1-.1-.21-.18-.32-.26-.05-.03-.1-.06-.16-.09-.27-.12-.54-.21-.84-.19-.14 0-.26.02-.38.08-.12.04-.23.11-.32.2-.17.17-.3.45-.29.69s.09.52.29.69c.18.17.44.31.69.29zM119.55 98.06c.28-1.14-.26-2.27-1.26-2.87-.91-.54-2.13-.57-3 .07-.9.66-1.42 1.78-1.13 2.89.19.72.75 1.33 1.42 1.65.54.29 1.19.4 1.8.3 1.03-.17 1.92-1.05 2.17-2.05zm-3-1.27h.04v.01h-.06c-.05.03-.08.04-.08.04.01 0 .02-.01.03-.02.01 0 .02-.01.03-.02h.02zm.6 1.21-.03.03.04-.04zm-.65.06s-.02-.01-.03-.02c.01 0 .02.01.04.02zm-.09-1.19-.01.01z"/><path class="cls-11" d="M116.54 96.8s.01 0 .02-.01h-.03.01zM121.23 124.99c.44.35 1.02.55 1.57.52.13 0 .25-.03.38-.05.03 0 .07 0 .1-.01h.02c.72-.14 1.39-.56 1.76-1.19.11-.19.18-.4.23-.61.05-.18.09-.35.11-.54.06-.69-.28-1.32-.77-1.79-.14-.15-.29-.28-.46-.4a2.24 2.24 0 0 0-.78-.33c-.14-.03-.28-.03-.41-.01-.52-.05-1.04.03-1.5.31-.54.32-.93.86-1.1 1.47-.17.62-.1 1.26.18 1.84.16.33.4.59.69.8zM126.89 144.46c-.3-.64-.87-1.09-1.52-1.35-.35-.14-.75-.19-1.12-.17-.32.02-.61.19-.8.44-.18.05-.35.11-.51.2-.68.37-1.1 1.16-1.09 1.93 0 .67.33 1.35.83 1.8 0 0 .02.01.03.02.22.25.48.46.79.59.63.28 1.35.32 1.99.06.68-.28 1.22-.74 1.51-1.42.29-.69.21-1.43-.1-2.1zM122.11 167.95a2.69 2.69 0 0 0-.74-.14c-1.11-.02-2.13.7-2.52 1.73-.18.48-.16 1.07.03 1.54.23.57.59 1.04 1.12 1.36 1.02.62 2.36.39 3.18-.44.43-.44.69-1.01.72-1.62.03-.62-.24-1.2-.62-1.67a2.3 2.3 0 0 0-1.16-.75z"/><path class="cls-6" d="M130.2 60.55a79.723 79.723 0 0 0-15.4-6.3c-1.5-.44-3.01-.82-4.53-1.17h-.05c-.43-.16-1-.06-1.22.39-.68 1.39-1.05 2.89-1.08 4.44 0 .26.11.5.29.69.11.27.31.5.62.57l8.84 1.77c1.45.29 2.91.62 4.37.84.79.12 1.59.22 2.4.24.66.02 1.31-.04 1.97-.04.19 0 .39 0 .58.02.05 0 .11 0 .16.01h.05c.03 0 .07.01.1.02.19.04.37.09.55.15h.03c.07.04.15.07.22.11.36.17.74.33 1.15.34.53.02 1.03-.25 1.29-.72.25-.45.12-1.09-.35-1.34z"/><path class="cls-11" d="M98.08 48.02s.05.09.07.14l-.1-.23c.03.08.05.16.07.24l-.04-.26c.01.09.01.18 0 .27l.04-.26c-.01.09-.04.18-.07.26l.1-.23c-.04.08-.08.16-.13.23l.15-.2c-.05.06-.1.11-.16.16l.2-.15c-.06.05-.13.09-.2.12l.23-.1c-.06.03-.13.04-.2.05l.26-.04h-.21l.26.04c-.08-.01-.16-.04-.24-.07l.23.1c-.08-.03-.15-.08-.22-.13l.2.15c-.07-.05-.12-.11-.18-.18l.15.2a.724.724 0 0 1-.11-.19l.1.23a.592.592 0 0 1-.05-.19l.04.26v-.16l-.04.26c0-.06.02-.11.04-.16l-.1.23s.04-.08.07-.12l-.15.2s.07-.08.11-.11l-.2.15a.95.95 0 0 1 .17-.1l-.23.1c.08-.03.16-.05.24-.07l-.26.04c.09-.01.18-.01.27 0l-.26-.04c.07.01.14.03.2.05l-.23-.1c.05.02.1.05.15.09l-.2-.15s.07.06.1.1l-.15-.2s.05.08.07.12l-.1-.23v.02c.23-.4.46-.81.69-1.21l-.58.15c-.24.06-.46.24-.59.45s-.18.52-.1.76.22.47.45.59.49.17.76.1l.58-.15c.23-.06.48-.24.59-.45l.1-.23a.92.92 0 0 0 0-.52c-.1-.24-.18-.41-.36-.61-.08-.08-.18-.15-.27-.22-.03-.02-.07-.05-.11-.06-.14-.07-.29-.14-.45-.17s-.34-.06-.5-.04c-.32.03-.66.1-.93.29-.22.15-.35.28-.5.5-.02.03-.04.07-.06.1-.05.11-.11.23-.14.36-.06.28-.06.5 0 .78 0 .05.03.09.04.14.05.12.09.24.16.35.19.3.47.58.8.73.11.05.23.11.35.14.13.04.27.05.41.06.18.02.38 0 .55-.06s.34-.12.49-.22.28-.2.39-.34c.08-.1.17-.21.23-.32s.11-.24.16-.36c.07-.18.09-.37.11-.56v-.16c0-.13-.03-.27-.06-.4-.01-.05-.03-.1-.05-.15-.05-.13-.1-.26-.17-.37-.14-.21-.34-.38-.59-.45-.24-.06-.55-.04-.76.1s-.39.34-.45.59-.05.54.1.76z"/><path class="cls-11" d="M99.58 48.26s.03-.05.04-.08c.04-.09.09-.19.12-.28.04-.13.06-.27.05-.4 0-.26-.08-.53-.22-.75-.25-.39-.63-.68-1.08-.8-.28-.08-.54-.07-.82-.02-.13.02-.25.08-.37.14-.06.03-.12.06-.17.1-.11.08-.22.16-.32.26s-.19.22-.27.34c-.03.05-.06.1-.09.16-.06.13-.12.27-.17.41-.07.22-.1.45-.11.68-.01.16 0 .31.01.47 0 .14.02.26.08.38.04.12.11.23.2.32.17.17.45.3.69.29s.52-.09.69-.29l.15-.2c.09-.15.13-.32.13-.5-.03-.2-.03-.4 0-.6l-.04.26c.02-.15.06-.29.11-.43l-.1.23c.04-.09.09-.18.15-.26l-.15.2c.05-.06.11-.12.17-.17l-.2.15c.06-.04.12-.08.19-.11l-.23.1s.1-.03.15-.04l-.26.04h.18l-.26-.04c.07.01.14.03.21.06l-.23-.1c.07.03.14.07.2.12l-.2-.15c.06.04.11.09.15.15l-.15-.2s.06.09.08.14l-.1-.23s.03.09.04.14l-.04-.26v.11l.04-.26-.03.11.1-.23s-.03.05-.04.08c-.13.21-.16.52-.1.76s.24.47.45.59c.23.12.5.18.76.1s.45-.23.59-.45z"/><path class="cls-9" d="M103.2 20.24c.82-.66 1.51-1.52 1.97-2.47s.95-2.2.66-3.26c-.18-.66-.72-1.19-1.4-1.31-.3-.05-.58-.05-.88-.03-.11 0-.22.02-.34.03h-.18c-.26 0 .14.05-.04 0-.05-.01-.24-.03-.25-.08l.11.05-.12-.06a.413.413 0 0 1-.11-.07.383.383 0 0 1-.11-.08l.09.07s-.07-.06-.1-.09c-.08-.08-.16-.17-.24-.25-.15-.17.08.13 0 0-.03-.05-.07-.1-.1-.15-.06-.09-.11-.18-.16-.28-.04-.08-.13-.2-.14-.29l.04.11s-.03-.09-.05-.13c-.03-.07-.05-.14-.08-.22-.37-1.09-.6-2.23-1.34-3.15-.42-.52-1.03-.88-1.7-.93-.63-.05-1.22.28-1.63.75-.14.16-.26.33-.41.49-.04.05-.19.15-.21.21.03-.1.14-.1 0-.02-.03.02-.06.03-.08.05-.08.04-.08.04 0 0l.06-.02s-.08.03-.12.04l-.12.03c-.21.06.23 0 0 0h-.26c-.23 0 .22.05 0 0-.11-.02-.22-.05-.33-.08-.06-.02-.11-.04-.17-.06-.17-.06-.02-.06 0 0-.01-.04-.25-.12-.29-.14-.09-.05-.19-.11-.28-.17-.05-.03-.1-.07-.15-.1-.21-.15.09.09-.06-.04-.35-.3-.66-.63-.98-.95-.72-.73-1.53-1.47-2.56-1.72-1.24-.3-2.44.14-3.4.92s-1.45 1.84-1.89 2.91l-.27.69c-.05.13-.1.26-.14.39 0 .02-.05.14-.05.14.05-.12.06-.13.01-.04l-.03.06-.04.06c-.05.07-.05.08 0 .01l.03-.05c-.08.07-.07.07.03-.02.16-.09.11-.03.04-.02-.22.05.16.02.02 0-.05 0-.13.02-.18 0 .13.07.13.02.04 0-.15-.04-.3-.07-.45-.12a6.137 6.137 0 0 0-3.32-.03c-.53.15-1.06.38-1.53.67-.5.32-1.01.72-1.3 1.25-.67 1.23 0 2.55.67 3.63.59.96 1.32 1.78 2.11 2.57.09.09.17.18.25.27.12.13 0-.01-.02-.03.05.04.09.13.12.18 0 .02.07.13.07.13-.05 0-.05-.18-.02-.03.01.05.02.13.04.18-.03-.08-.02-.24-.02-.06v.1c0 .18.05-.2.01-.09-.03.07-.04.14-.06.21-.05.17.1-.18.03-.07-.02.04-.04.08-.06.11-.04.08-.09.15-.14.22-.06.08-.25.26-.04.07-.07.06-.12.15-.18.22-.13.15-.26.29-.38.44-.29.33-.58.67-.8 1.04-.57.95-.59 2.13.04 3.07.73 1.09 1.89 1.59 3.16 1.74.54.07 1.08.07 1.62.06l-.69-1.68c-.52.47-.8 1.19-.76 1.89.04.75.34 1.41.8 1.99 1 1.27 2.72 1.47 4.19.97.92-.31 1.74-.82 2.53-1.38.42-.3.66-.87.35-1.34-.27-.41-.9-.67-1.34-.35-.36.26-.73.51-1.12.74-.19.11-.39.22-.6.31-.04.02-.27.11-.07.03-.1.04-.2.08-.31.11-.21.07-.42.12-.63.16-.11.02-.11.02.02 0-.05 0-.11.01-.16.01H87c-.08 0-.17 0-.24-.02.24.06-.04-.02-.09-.03-.06-.02-.15-.07-.22-.07.15.06.17.07.08.03-.03-.02-.07-.03-.1-.05-.07-.04-.13-.08-.19-.12-.14-.09.17.15-.03-.02-.1-.09-.19-.19-.28-.29-.11-.12.13.19-.02-.03-.04-.06-.08-.13-.12-.19-.03-.06-.06-.15-.1-.2.06.15.07.18.04.08-.01-.03-.02-.07-.04-.1l-.06-.21c-.03-.12.02-.16 0 .05 0-.07-.01-.14 0-.21v-.1c.01-.1 0-.07-.02.11.02-.06.03-.14.05-.2.04-.16-.12.22 0 0 .02-.03.03-.06.05-.09.06-.08.04-.06-.06.07.05-.03.11-.11.15-.16.63-.58.13-1.68-.69-1.68h-.77c-.13 0-.26 0-.38-.02-.07 0-.14 0-.21-.02-.05 0-.3-.04-.08 0-.25-.04-.5-.09-.74-.17a.983.983 0 0 0-.16-.05c-.18-.06-.03-.01 0 0-.11-.05-.21-.11-.31-.17-.05-.03-.1-.07-.15-.1-.12-.08.17.16 0 0-.07-.07-.14-.13-.2-.2 0 0-.16-.18-.06-.06s-.04-.06-.05-.07c-.05-.08-.15-.21-.17-.3 0 .02.07.22.03.04-.01-.04-.03-.09-.04-.13-.01-.05 0-.21-.02-.07-.02.16 0-.04 0-.07 0-.03.01-.12 0-.14.04.08-.04.18 0 .07.03-.1.06-.19.08-.29.03-.12-.1.19-.04.08l.06-.12c.04-.07.07-.13.11-.19.05-.08.11-.16.16-.23s.09-.05-.05.06c.04-.03.08-.1.11-.13.23-.27.48-.53.71-.81.6-.73 1.04-1.52.87-2.5-.18-1.06-1.15-1.71-1.81-2.47-.08-.09-.16-.19-.24-.28l-.1-.13c-.17-.21.07.1-.02-.03-.15-.21-.31-.42-.45-.64-.13-.21-.26-.42-.38-.63-.06-.11-.12-.22-.17-.33l-.09-.18c-.02-.04-.11-.27-.04-.07-.04-.1-.08-.21-.11-.32 0-.03-.04-.13-.04-.16-.03.2 0 .05 0-.02v-.04.02c0-.02.04-.15.04-.15.02 0-.1.17 0 .03.06-.09.09-.18.01-.04.06-.1.18-.19.26-.27.03-.02.09-.09.11-.1-.11.03-.1.08-.02.02.21-.14.43-.28.66-.39.05-.02.09-.04.14-.07.17-.08 0 0-.02 0 .1-.06.25-.09.36-.13.22-.07.45-.11.67-.16.24-.05-.15.01 0 0 .06 0 .13-.01.19-.02.1 0 .2-.01.31-.01h.38c.05 0 .1 0 .15.01.21.01-.18-.04.04 0 .51.09 1 .27 1.53.33.73.09 1.39-.23 1.8-.83.3-.43.44-1 .62-1.49.04-.12.09-.23.14-.35l.06-.15c-.08.18-.02.04 0 0 .12-.25.23-.5.36-.74.12-.21.26-.42.4-.62-.11.16.05-.05.09-.1.09-.1.19-.2.29-.3.05-.04.1-.08.14-.12.08-.07.03-.08-.02.01.04-.07.22-.15.28-.19.1-.06.2-.11.3-.16.14-.07-.03 0-.03.01 0-.02.19-.07.21-.07.11-.03.21-.05.32-.08.14-.03-.24 0 0 0h.3c.03 0 .24.05.09 0-.14-.04 0 0 .04.01.07.02.14.03.2.05.04.01.14.03.16.06 0 0-.21-.1-.04-.02.09.05.18.09.27.15s.18.11.26.17c.04.03.08.05.11.08-.18-.17-.02-.01.02.02.73.61 1.31 1.37 2.08 1.94.84.62 1.89.99 2.94.83.53-.08 1.03-.37 1.39-.75.14-.14.26-.31.39-.46l.17-.2c.04-.04.08-.07.12-.11.07-.09-.17.11-.02.02.17-.1-.16.03-.03 0 .06 0 .23-.04-.02 0 .15-.02-.02.07-.05-.01.01.03.12.01.14.04l-.1-.04s.07.03.1.05c.05.03.2.1.02 0 .05.03.26.2.27.27 0 0-.13-.19-.01-.01.03.04.06.09.09.13.07.11.13.23.19.34.02.04.06.1.07.14-.02-.15-.03-.09 0-.02.05.14.1.27.15.41.31.94.51 1.94 1.1 2.76.65.91 1.59 1.55 2.75 1.47.22-.02.44-.05.67-.04.21 0 0-.03-.02-.01 0 0 .14.03.13.04-.06.03-.17-.08-.05 0-.1-.08-.12-.1-.07-.05.05.05.03.03-.06-.08.1.15-.04-.06-.02-.07 0 0 .04.14.04.15.05.1 0-.24 0-.03v.26c0 .22.04-.17 0-.03-.03.13-.05.26-.09.39-.05.21-.12.42-.19.62-.02.06-.05.12-.07.18-.02.05-.05.17.01-.02-.03.12-.11.24-.16.35-.1.2-.21.4-.34.6-.06.1-.12.19-.19.28-.04.05-.07.11-.11.15.11-.12.03-.03-.03.04-.29.35-.62.67-.97.96-.4.32-.36 1.06 0 1.39.43.39.96.35 1.39 0z"/><path class="cls-9" d="M101.97 21.5c2.22-1.62 3.41-4.42 2.47-7.11-.43-1.25-2.1-2.32-3.37-1.37-.05.04-.68.34-.35.25-.53.14-.25-.09-.14 0 .16.13-.13-.33-.07-.15.01.05 0 .1-.03.13.04-.27.08-.54.11-.81.12-1.88-1.31-3.74-3.35-3.18-1.88.52-2.22 3.03-2.03 4.66.1.81.28 1.59.46 2.38.06.28.15.64.18.88.02.2.03.39.02.59.06-.23.16-.44.3-.63l1.01-.59-.18.03h1.22L98 16.5l1.01.59c-.93-.83-.79-2.76-1.08-3.99-.4-1.73-1.34-3.4-2.95-4.24-1.32-.69-2.94-.1-3.37 1.37-.63 2.17.19 4.07 1.04 6.04a6.529 6.529 0 0 1 .41 1.25c.09.4 0-.25.03.16.02.17.02.33.01.5-.02.38.08-.25-.02.11-.09.32.15-.17-.03.1-.2.28.31-.27-.19.15 1.2.15 2.4.31 3.6.46-1.12-1.92-1.35-4.2-1.91-6.32-.61-2.31-2.3-6.9-5.55-5.19-2.53 1.33-2.28 5.08-1.47 7.35.41 1.14.99 2.2 1.42 3.32.32.82.78 2 .37 2.84h3.96c-.72-1.49-1.44-2.97-2.17-4.46-.58-1.19-1.07-2.53-2.09-3.42-.69-.61-1.53-.92-2.45-.9-.48 0-.92.25-1.38.27.58-.02-.2-.18-.38-.24-1.55-.51-3.41-.26-4.32 1.24-.96 1.59-.22 3.4 1.1 4.51.55.46 1.13.87 1.69 1.32.03.03.63.57.64.57-.21.11-.2-1.03-.17-.73-.05.16-.03.11.07-.14-.04.08-.09.16-.14.24-.09.13-.07.11.07-.07-.09.1-.17.21-.26.31-.27.31-.55.61-.81.93-.76.94-1.42 2.06-1.27 3.32.18 1.55 1.32 2.52 2.9 2.21.75-.15 1.76-.42 2.28-.36l-1.16-.31c-.44-.34-.64-.72-.58-1.15.01-.1 0-.08-.02.06-.08.17-.1.38-.13.57-.11.62-.12 1.27.06 1.88.38 1.28 1.52 2.25 2.89 2.2 1.02-.04 1.92-.69 2.21-1.68.37-1.29 1.09-2.25 2.09-3.12 1.32-1.15 2.34-2.74 1.76-4.56-.64-2.04-2.94-2.78-4.78-1.86-.76.38-1.33.96-1.82 1.64-.15.2-.32.41-.44.64-.17.32-.17.17.09.08-1.16.44-1.95 1.55-1.6 2.82.3 1.11 1.66 2.04 2.82 1.6s1.92-1.15 2.65-2.18c.05-.07.32-.47.27-.4s.13-.26.12-.11c-.03.65-2.02-1.34-1.68-1.31-.4-.03.76-.62-.17.02-1.84 1.26-3.12 3.44-3.73 5.54.74-.56 1.47-1.12 2.21-1.68l.25.03 1.01.59c.19.21.28.45.27.72-.05.25-.05.23.03-.06.09-.36.16-.73.19-1.1.07-.95-.2-1.88-.89-2.57-1.48-1.46-3.66-.67-5.43-.33l2.9 2.21c-.02-.09-.02-.18-.02-.28v.04c-.03.02-.26.52-.02.17 0 0 .33-.47.16-.25s.18-.2.21-.24c.52-.59 1.1-1.17 1.47-1.86.49-.91.68-1.95.4-2.96-.35-1.29-1.37-2.06-2.36-2.84-.41-.32-.86-.83-1.32-1.07-.34-.4-.54-.07-.6.99.05.78-.15 1.15-.62 1.1.12.14.63.23.79.28.73.22 1.44.26 2.18.1.11-.01.21-.04.31-.07.27-.05.2-.09-.21-.12l-.4-.22c-.06-.1-.04-.09.04.05.1.45.53 1.02.73 1.43.28.57.56 1.14.83 1.71.58 1.2 1.17 2.4 1.75 3.6.73 1.5 3.23 1.49 3.96 0 1.19-2.43.74-4.86-.28-7.25-.41-.97-.9-1.89-1.21-2.9-.13-.42-.24-.84-.25-1.27 0-.05.02-.54.02-.46-.02-.46.44-.32-.24.02l-1.16.31h.27c-.39-.1-.77-.2-1.16-.31-.23-.12-.24-.38-.05.01.11.23.24.44.35.68.14.33.25.68.36 1.02.27.89.47 1.79.67 2.69.42 1.89.92 3.77 1.91 5.46.79 1.36 2.49 1.41 3.6.46 1.59-1.36 1.79-3.55 1.38-5.47-.2-.93-.63-1.79-1.01-2.66-.3-.7-.66-1.44-.44-2.2-1.12.46-2.24.91-3.37 1.37.08.04.27.21.16.05.03.04.27.27.13.09.2.27.34.61.38.73.24.74.33 1.51.45 2.28.28 1.82 1.01 4.33 2.99 4.96 2.54.81 3.86-1.74 3.63-3.89-.1-.97-.33-1.9-.53-2.84-.09-.39-.14-.61-.15-.98v-.39c0 .11.14-.29.09-.2-.66.38-1.32.76-1.98 1.13h.16c-.39-.12-.77-.22-1.16-.33l.12.06-.82-.82c-.15-.21-.07-.93-.13-.37-.08.66-.1 1.24.05 1.9.21.95.77 1.86 1.5 2.5 1.59 1.38 4.11 1.56 5.82.27-1.12-.46-2.24-.91-3.37-1.37.25.73.11 1.59-.36 1.94-1 .73-1.49 1.99-.82 3.14.58.99 2.13 1.55 3.14.82z"/><path class="cls-11" d="M122.74 39.13v-.03c.11-2.32-.38-4.63-1.33-6.74-.48-1.07-1.11-2.05-1.83-2.97-.7-.89-1.52-1.68-2.48-2.29-1.02-.64-2.15-.96-3.33-.91a22.655 22.655 0 0 0-5.19-5.51c-1-.76-2.06-1.45-3.21-1.95-1.32-.57-2.7-.88-4.14-.84-2.58.07-5.21.91-7.5 2.1-2.2 1.14-4.14 2.76-5.58 4.79-1.44 2.03-3.11 4.72-3.16 7.22-1.7 1.21-1.98 2.86-2.42 4.88-.51 2.33-.23 4.7.27 7 .3 1.38.67 2.74.97 4.12.11.5.72.84 1.21.69.37-.12.6-.4.67-.73.23-.06.44-.21.59-.44.35-.53.71-1.04 1.09-1.54.02-.02.04-.05.06-.07.05-.06.09-.12.14-.17.1-.13.2-.25.31-.37.21-.25.42-.49.63-.73.85-.95 1.78-1.84 2.76-2.66.11-.1.23-.19.35-.28.06-.05.12-.09.17-.14.03-.02.06-.05.09-.07 0 0 .03-.03.05-.04h.01l.12-.09c.06-.04.12-.09.18-.13.13-.1.26-.19.39-.29.52-.38 1.06-.73 1.61-1.07 1.08-.66 2.2-1.25 3.36-1.75.03-.01.06-.03.09-.04.06-.03.13-.05.19-.08l.45-.18c.3-.12.6-.23.91-.33.6-.21 1.2-.39 1.81-.55a25.827 25.827 0 0 1 2.93-.59h.05l.28-.03.52-.06a27.257 27.257 0 0 1 5.18.01c.16.02.32.03.48.05.08 0 .16.02.24.03.03 0 .08.01.09.01.69.1 1.38.22 2.06.37 1.35.3 2.68.7 3.96 1.2l.45.18c.07.03.22.09.06.03.09.04.17.07.26.11a26.275 26.275 0 0 1 2.76 1.41c.3.18.6.36.89.55.43.28 1.1.1 1.34-.35.12-.24.15-.49.1-.72zm-1.98-1.57v.04c-.01 0-.02-.01-.03-.02.01 0 .02-.02.03-.03z"/><path class="cls-7" d="M107.52 84.16c-.61.07-1.22.1-1.83.08-.28 0-.56-.02-.83-.04-.14-.01-.28-.02-.42-.04-.08 0-.17-.02-.25-.03-.28-.03.21.03-.07 0-1.19-.18-2.34-.5-3.46-.95-.25-.1.12.05-.03-.01-.06-.03-.13-.06-.19-.08-.13-.06-.25-.12-.38-.18-.28-.13-.55-.28-.81-.43-.49-.28-.96-.58-1.41-.91-.1-.07-.2-.15-.31-.23l-.12-.09c.19.15 0 0-.04-.03-.22-.17-.43-.35-.64-.53-.41-.35-.82-.72-1.21-1.1-1.58-1.52-3.02-3.17-4.59-4.69a26.9 26.9 0 0 0-3.28-2.72c-.11-.08-.21-.16-.32-.24.19.14-.03-.02-.05-.04l-.18-.15a6.55 6.55 0 0 1-.6-.58c-.04-.05-.09-.1-.13-.15.15.18-.02-.02-.04-.06-.09-.13-.17-.27-.25-.4-.02-.05-.05-.09-.07-.14-.02-.05-.05-.09-.07-.14.05.11.05.12 0 .02-.05-.15-.11-.3-.15-.45-.09-.31-.16-.62-.21-.93 0-.05-.02-.11-.03-.16 0-.05-.02-.11-.02-.16.02.13.02.14 0 .02-.02-.16-.04-.32-.05-.48-.03-.33-.05-.67-.08-1l-.33-4.57c-.04-.51-.43-1.01-.98-.98-.5.02-1.02.43-.98.98l.3 4.19c.09 1.26.13 2.56.53 3.77.22.67.54 1.27.97 1.82.4.51.9.91 1.41 1.3.23.18.47.35.71.52.11.08.21.16.32.24a2.196 2.196 0 0 1 .22.17c.44.35.86.72 1.28 1.1 3.35 3.07 6.09 6.98 10.28 8.99 2.59 1.25 5.52 1.79 8.38 1.48.51-.06 1.01-.41.98-.98-.02-.48-.44-1.04-.98-.98zM104.39 100.55c-.19 0-.37-.03-.55-.05.17.02-.05 0-.11-.02-.12-.02-.24-.04-.37-.07-.38-.07-.76-.16-1.15-.25-.79-.18-1.59-.35-2.38-.53-1.59-.35-3.18-.71-4.77-1.06l-2.71-.6c-.5-.11-1.09.15-1.21.69-.11.5.15 1.09.69 1.21 3.23.72 6.45 1.43 9.68 2.15.95.21 1.91.44 2.88.49.51.03 1-.47.98-.98-.02-.55-.43-.95-.98-.98z"/><path class="cls-7" d="M128.82 65.02c-.07 0-.13.03-.2.04a.42.42 0 0 0-.16.04c-.02 0-.04.02-.06.03-.19.08-.36.2-.48.39-.08.13-.17.25-.26.38-.04.06-.09.12-.13.19-.01.01-.03.04-.05.07-.16.21-.34.42-.52.62-.4.45-.83.86-1.29 1.24l-.3.24c-.03.02-.06.05-.07.05-.06.05-.12.09-.19.13-.24.17-.48.33-.73.48-.25.15-.5.3-.76.43-.05.03-.1.05-.15.08-.31 0-.6.13-.8.39-.12.07-.22.16-.3.3-.05.08-.07.18-.09.27-.13.2-.25.4-.39.59-.06.08-.11.16-.17.23 0 0 0 .02-.01.02-.02.02-.04.05-.06.07-.14.17-.28.34-.42.5a14.57 14.57 0 0 1-1.95 1.85c-.08.06-.15.12-.23.17-.19.14-.38.27-.57.39-.34.23-.7.44-1.06.64-.38.21-.78.4-1.18.58 0 0-.01 0-.02.01-.03.01-.05.02-.08.03-.09.04-.18.07-.27.11-.2.08-.41.15-.62.22-.46.15-.93.28-1.4.39-.24.05-.47.1-.71.14-.1.02-.21.03-.31.05-.06 0-.12.01-.18.02a68.028 68.028 0 0 0-8.12-3.79c-2.84-1.1-5.76-2.01-8.72-2.71-1.53-.36-3.07-.66-4.62-.91-.54-.31-1.06-.66-1.57-1.03-.02-.02-.02-.01-.03-.02l-.02-.01-.18-.15c-.13-.11-.26-.21-.39-.32-.24-.21-.48-.43-.71-.66-.45-.45-.9-.93-1.28-1.44-.01-.02-.03-.04-.04-.06-.05-.06-.09-.12-.14-.19-.09-.13-.18-.25-.27-.38a15.2 15.2 0 0 1-.54-.85c-.01-.02-.04-.03-.05-.05-.36-.75-.72-1.51-1.08-2.26-.1-.21-.31-.35-.54-.43a.761.761 0 0 0-.45-.12c-.49.02-1.04.43-.98.98.62 5.87 3.87 10.95 7.83 15.17.92.98 1.88 1.91 2.86 2.83 0 0 .01.02.02.03.06.05.12.1.17.15.14.13.27.26.41.39.03.03.06.04.09.06.87.77 1.79 1.47 2.75 2.1a68.19 68.19 0 0 0-4 8.63 65.736 65.736 0 0 0-3.85 15.8c-.06.51.5 1 .98.98.58-.03.92-.43.98-.98.02-.2.05-.4.07-.6 0-.03.03-.22.03-.23.01-.09.02-.18.04-.27.06-.41.12-.83.19-1.24.13-.84.28-1.67.45-2.5.23-1.13.49-2.26.78-3.38.13.16.29.31.51.37.28.08.57.03.8-.11.09.19.25.35.47.44.28.12.62.08.89-.07-.05.08-.1.16-.13.26-.4 1.78-.81 3.56-1.21 5.33l-.3 1.35-.15.65c-.06.25-.15.52-.15.78 0 .83.82 1.47 1.6 1.03.49-.28.6-.81.43-1.25l.09-.41.22-.97.45-1.99.9-3.99c.07-.29-.01-.6-.18-.84.02-.02.03-.03.04-.05.1.16.24.3.44.38.28.12.61.08.87-.07 0 .04-.01.07-.01.11-.03.5.37.86.82.95-.6 2.6-1.07 5.22-1.42 7.86-.07.51.5 1 .98.98.59-.03.91-.43.98-.98-.02.18 0-.03 0-.07l.03-.23c.02-.16.04-.31.07-.47l.15-.98c.1-.64.21-1.27.33-1.9.23-1.27.49-2.52.78-3.78a1 1 0 0 0-.05-.59c.03-.02.07-.03.1-.05.11.1.23.18.39.22.36.08.69-.03.93-.26.08.34.3.64.67.73.22.05.46.02.68-.08-.11.82-.22 1.64-.31 2.46-.23 1.97-.4 3.95-.57 5.93-.04.51.48 1 .98.98.57-.03.93-.43.98-.98.15-1.74.3-3.47.49-5.2.09-.87.19-1.75.32-2.62 0-.05.01-.1.02-.15.01-.09.03-.19.04-.28.03-.23.07-.46.1-.68.06-.43.13-.86.2-1.28.29-1.72.65-3.44 1.1-5.12.22-.82.47-1.64.74-2.45.14-.4.28-.8.43-1.2.08-.2.15-.4.23-.59.04-.1.08-.2.12-.29.01-.03.05-.11.07-.16.45-1.05.97-2.07 1.53-3.06 3.49-.01 6.97-.68 10.26-1.86 1.28-.46 2.55-.96 3.67-1.73 1.17-.81 2.21-1.84 2.83-3.13.02-.04.02-.08.04-.12.02-.04.05-.07.06-.11 1.25-3.42 2.06-6.97 2.47-10.58.11-1 .19-2.01.24-3.02.02-.51-.47-1.01-.98-.98z"/><g style="clip-path:url(#clippath)"><path class="cls-2" d="m121.38 31.41-2.25 6.24c-.17.48.2 1.1.69 1.21.55.13 1.02-.17 1.21-.69l2.25-6.24c.17-.48-.2-1.1-.69-1.21-.55-.13-1.02.17-1.21.69z"/><path class="cls-2" d="M121.83 30.33c-1.74.55-3.52.99-5.33 1.32-.51.09-.84.74-.69 1.21.18.54.66.78 1.21.69 1.8-.32 3.58-.76 5.33-1.32.49-.16.85-.69.69-1.21-.16-.49-.68-.85-1.21-.69z"/><path class="cls-2" d="M115.65 33.32c1.14 1.71 2.27 3.43 3.41 5.14l1.34-1.34c-.14-.09-.27-.18-.41-.27-.43-.29-1.11-.1-1.34.35-.26.49-.1 1.04.35 1.34.14.09.27.18.41.27.81.54 1.88-.54 1.34-1.34-1.14-1.71-2.27-3.43-3.41-5.14-.28-.43-.88-.65-1.34-.35-.43.27-.66.89-.35 1.34zM106.54 33.22c-.21.86-.46 1.71-.74 2.55-.14.41-.28.82-.44 1.23-.07.2-.15.39-.23.59-.05.11-.09.22-.14.33.08-.19-.06.15-.08.18-.11.25-.18.48-.1.76.06.23.24.47.45.59.42.22 1.13.15 1.34-.35.75-1.73 1.37-3.51 1.82-5.35.12-.5-.16-1.09-.69-1.21s-1.08.15-1.21.69z"/><path class="cls-2" d="M107.53 32.24c-1.84.13-3.68.26-5.52.4-.51.04-1.01.43-.98.98.02.5.43 1.02.98.98 1.84-.13 3.68-.26 5.52-.4.51-.04 1.01-.43.98-.98-.02-.5-.43-1.02-.98-.98z"/><path class="cls-2" d="M100.99 34.42c.99 1.77 2.13 3.44 3.39 5.02.32.4 1.06.36 1.39 0 .39-.43.34-.96 0-1.39-.07-.09-.15-.18-.22-.28l-.11-.14c.06.08.04.05 0-.01-.14-.19-.28-.37-.42-.56-.29-.39-.56-.79-.83-1.19-.53-.79-1.03-1.61-1.49-2.44-.25-.45-.9-.64-1.34-.35s-.62.86-.35 1.34zM111.57 19.84c-.54 1.79-1.09 3.58-1.63 5.37-.15.49.18 1.09.69 1.21s1.05-.16 1.21-.69c.54-1.79 1.09-3.58 1.63-5.37.15-.49-.18-1.09-.69-1.21s-1.05.16-1.21.69z"/><path class="cls-2" d="M112.14 18.79c-1.93.5-3.86 1.01-5.79 1.51-.5.13-.85.71-.69 1.21s.68.82 1.21.69c1.93-.5 3.86-1.01 5.79-1.51.5-.13.85-.71.69-1.21s-.68-.82-1.21-.69z"/><path class="cls-2" d="M105.92 21.97c1.25 1.36 2.5 2.73 3.75 4.09.35.38 1.04.38 1.39 0 .37-.41.37-.98 0-1.39-1.25-1.36-2.5-2.73-3.75-4.09-.35-.38-1.04-.38-1.39 0-.37.41-.37.98 0 1.39zM98.44 22.84c-.48 1.66-1 3.3-1.56 4.93-.17.49.19 1.1.69 1.21.55.12 1.03-.17 1.21-.69.57-1.63 1.09-3.28 1.56-4.93.14-.49-.17-1.09-.69-1.21s-1.06.16-1.21.69z"/><path class="cls-2" d="M99.01 21.55c-1.57.66-3.21 1.15-4.88 1.48-.51.1-.84.73-.69 1.21.17.54.67.79 1.21.69 1.67-.32 3.31-.82 4.88-1.48.25-.1.45-.21.59-.45.12-.21.18-.52.1-.76-.15-.45-.7-.9-1.21-.69z"/><path class="cls-2" d="M93.2 25.01c1.2 1.42 2.39 2.85 3.59 4.27.33.39 1.05.37 1.39 0 .39-.42.35-.97 0-1.39-1.2-1.42-2.39-2.85-3.59-4.27-.33-.39-1.05-.37-1.39 0-.39.42-.35.97 0 1.39zM93.37 36.21c-.23.78-.49 1.55-.77 2.31-.14.37-.28.75-.43 1.12-.03.08-.07.16-.1.25-.02.05-.05.11-.07.16.04-.1.04-.09 0 .01-.08.19-.16.38-.25.57-.21.47-.15 1.08.35 1.34.43.23 1.12.15 1.34-.35.71-1.59 1.32-3.22 1.82-4.89.15-.49-.18-1.09-.69-1.21s-1.05.16-1.21.69z"/><path class="cls-2" d="M94.11 34.92c-1.62.27-3.22.66-4.79 1.16-.49.16-.85.69-.69 1.21.16.49.68.85 1.21.69 1.57-.5 3.17-.89 4.79-1.16.51-.08.84-.74.69-1.21-.18-.55-.66-.78-1.21-.69z"/><path class="cls-2" d="m88.22 37.93 3.33 4.77c.29.42.87.66 1.34.35.42-.27.67-.89.35-1.34l-3.33-4.77c-.29-.42-.87-.66-1.34-.35-.42.27-.67.89-.35 1.34z"/><path class="cls-1" d="M85.43 32.12c.69-1.64 1.25-3.33 1.68-5.06"/><path class="cls-2" d="M86.73 26.23c-.74.19-1.48.36-2.23.5-.37.07-.75.13-1.13.19-.17.03-.35.05-.52.08.22-.03-.04 0-.09.01-.12.01-.23.03-.35.04-.51.06-1.01.41-.98.98.02.48.44 1.05.98.98 1.63-.19 3.25-.48 4.84-.89.5-.13.85-.71.69-1.21s-.67-.82-1.21-.69z"/><path class="cls-2" d="M81.31 28.82c.59.52 1.13 1.1 1.62 1.72.09.11 0-.03-.04-.05.03.01.07.1.1.13l.17.23a13.665 13.665 0 0 1 .93 1.53c.24.46.91.63 1.34.35.46-.3.61-.86.35-1.34-.77-1.49-1.83-2.84-3.09-3.96-.38-.34-1.02-.41-1.39 0-.34.37-.41 1.03 0 1.39zM83.81 43.39c-.5 1.6-1.01 3.2-1.51 4.8-.15.49.18 1.09.69 1.21.53.12 1.04-.16 1.21-.69.5-1.6 1.01-3.2 1.51-4.8.15-.49-.18-1.09-.69-1.21a1.01 1.01 0 0 0-1.21.69z"/><path class="cls-2" d="m84.44 42.4-5.05.81c-.51.08-.84.74-.69 1.21.18.55.66.77 1.21.69l5.05-.81c.51-.08.84-.74.69-1.21-.18-.55-.66-.77-1.21-.69z"/><path class="cls-2" d="M79.14 45.06c.3.33.58.68.86 1.03l.1.13c.07.09-.09-.12.02.03.07.09.13.17.19.26.14.18.27.37.4.56.52.74.99 1.52 1.42 2.32.24.45.91.63 1.34.35.46-.3.61-.86.35-1.34-.91-1.69-2.03-3.27-3.31-4.71-.34-.39-1.05-.37-1.39 0-.38.41-.36.98 0 1.39z"/></g><path class="cls-6" d="M84.96 194.57a1770.58 1770.58 0 0 1-6.26-41.7.64.64 0 0 0-.1-.26c0-.04.02-.07.02-.1-.02-.53-.43-.98-.98-.98l-10.55.03c-.23-4.15-1.61-8.82-5.66-10.71-2.11-.98-4.55-1.12-6.78-.46-2.31.68-4.2 2.2-5.47 4.24-1.29 2.07-1.89 4.56-1.94 6.99h-1.69c-3 0-6 .02-9.01.03-.05 0-.1.02-.15.03-.07-.04-.13-.08-.21-.1-.48-.11-1.11.14-1.21.69-.96 5.53-1.72 11.09-2.36 16.66-.63 5.49-1.14 11-1.61 16.51-.27 3.13-.53 6.27-.8 9.4-.03.35.22.69.54.86.02.01.04.03.07.05.12.05.25.08.38.08H83.9c.06 0 .12-.03.18-.04.07 0 .14 0 .2-.02.55-.18.77-.66.69-1.21zm-35.71-44.03c.01-.12.03-.24.04-.36v-.02c0-.06.02-.12.03-.18.04-.28.09-.55.15-.82.11-.52.26-1.04.44-1.54.04-.11.08-.23.13-.34.02-.06.16-.42.07-.17.09-.25.22-.49.34-.72.24-.47.52-.93.83-1.35l.1-.13.01-.01a8.214 8.214 0 0 1 .84-.91c.18-.17.36-.32.55-.48l.01-.01.11-.08c.12-.09.25-.17.37-.25.21-.13.42-.25.64-.36.1-.05.21-.1.31-.15.06-.03.12-.06.19-.08.01 0 .02 0 .03-.01.48-.19.98-.34 1.48-.44.12-.02.23-.05.35-.06.05 0 .1-.02.16-.02.28-.03.56-.05.84-.06.23 0 .47 0 .7.01.12 0 .23.02.35.03.07 0 .14.01.21.02h.05c.49.08.98.2 1.45.37.1.04.23.07.32.12 0 0 .01 0 .02.01.06.03.13.06.19.09.23.11.45.24.67.37.1.06.2.13.29.19.06.04.11.08.17.12h.01c.21.14.4.33.57.5.16.16.32.32.46.49.07.08.14.17.22.26.04.05.08.11.12.16.29.4.54.83.76 1.27.06.12.12.24.17.37.03.06.06.12.08.19v.02c.11.27.2.54.29.81.17.54.31 1.09.43 1.65.05.27.1.55.14.83 0 .06.02.12.03.17v.05c.02.14.03.28.05.42.04.35.05.71.07 1.07-1.19 0-2.38 0-3.57.01-4.11.01-8.22.02-12.34.04 0-.36.01-.71.05-1.07z"/><path d="M68.85 173.53c-.08-.2-1.13-2.14-3.09-4.56a.398.398 0 0 1-.09-.21c-.23-2.54-.6-4.22-.6-4.22a.703.703 0 0 0-.6-.54l-2.03-.24h-.05c-.24 0-.43.19-.43.43v.7s0 .03-.02.03h-.02a29.06 29.06 0 0 0-4.1-3.08c-.29-.19-.63-.3-1-.3s-.71.11-1 .31c-6.98 4.34-10.81 11.37-10.96 11.76a.687.687 0 0 0 .45.97l2.02.38c.27.07.47.3.51.59.02.36.42 8.3.91 10.36.08.3.35.51.67.51h.02c1.18-.03 2.25-.06 3.41-.08H52.95c.12 0 .22-.1.22-.23-.05-.69-.16-2.28-.24-3.95v-.14c0-.15-.09-.27-.21-.34a2.167 2.167 0 0 1-1.06-1.75c-.11-2.79-.18-6.01-.03-8.52.01-.21.18-.38.4-.38.22 0 .41.17.41.4v.03c-.09 1.68-.1 3.67-.06 5.62 0 .26.22.48.49.47.26 0 .48-.22.47-.49-.04-1.97-.04-3.97.06-5.66.01-.21.18-.38.4-.38.22 0 .41.17.41.4v.03c-.09 1.67-.1 3.64-.06 5.59a.48.48 0 0 0 .96-.02c-.04-1.96-.04-3.95.06-5.63.01-.21.18-.38.4-.38.22 0 .41.17.41.4v.03c-.14 2.45-.08 5.55.03 8.27v.1c0 .74-.37 1.4-.94 1.8a.42.42 0 0 0-.18.32s-.05.42.14 2.44c.09.88.16 1.5.19 1.77.01.1.1.19.21.19h4.2c.11 0 .2-.08.21-.19.26-2.43.32-3.79.32-3.79 0-.12-.09-.21-.22-.23l-1.39-.19c-.22-.04-.35-.17-.4-.34-.03-.1-.02-.21-.02-.21.54-8.08 3.2-10.82 3.2-10.82.08-.08.13-.11.13-.11.07-.05.16-.08.25-.08.18 0 .34.11.4.27 0 0 .02.06.03.19.24 2.54.14 6.86 0 10.24-.11 2.86-.25 5.11-.25 5.11 0 .09.08.17.17.17.76.01 1.5.02 2.29.04h.02c.32 0 .59-.22.67-.52.47-2.06.83-10.01.84-10.36.03-.28.23-.52.5-.59l2.01-.39c.3-.08.52-.35.52-.67 0-.11-.02-.21-.07-.3z" style="fill:#fff"/><path class="cls-1" d="M128.36 65.16s-1.94 2.12-2.82 3.16c-.88 1.04-2.92 1.47-2.92 1.47s-.56 1.52-2.75 3.36c-2.19 1.85-5.08 3.25-7.28 3.22 0 0-7.17-3.62-9.52-4.38-2.34-.76-7.03-1.95-8.82-2.2-1.79-.25-3.17-.94-3.17-.94s-4.05-2.28-5.29-4.9c-1.24-2.63-1.28-2.68-2.22-2.54-.94.14-.44 2.22-.31 3.83.13 1.61-.53 6.15 3.8 8.99s4.34 5.3 7.81 6.72c3.48 1.42.92 4.35.92 4.35s-2.48 4.95-3.21 7.07c-.73 2.11-1.88 6.48-1.88 6.48l14.66 3.35s1.59-9.46 3.14-12.68l1.55-3.22s7.22.97 14.06-3.36c0 0 2.29-1.13 3.53-5 1.23-3.86 1.93-8.94 2-10.32.08-1.38.15-2.76-1.31-2.46z"/><path class="cls-11" d="M170.87 87.16c-.33-1.95-.78-3.87-1.22-5.79-.9-3.91-1.81-7.81-2.71-11.72l-1.26-5.43c.14-.18.24-.4.23-.62v-.03c.23-.11.46-.21.69-.32.6-.27.6-1.12.2-1.54-2.37-2.49-5.62-3.85-8.85-4.85-.9-.28-1.81-.53-2.72-.78-.49-.14-1.09.17-1.21.69-.12.52.16 1.06.69 1.21 1.57.43 3.14.88 4.67 1.44.17.06.34.13.51.19.1.04.19.08.29.11.05.02.1.04.14.06 0 0 .04.02.08.03.03.01.16.07.19.08.09.04.19.08.28.12.19.08.37.17.55.26a16.32 16.32 0 0 1 2.59 1.56c.03.02.06.05.09.07.01.01.03.02.04.03.07.06.15.12.22.18-.06.03-.11.05-.17.08a.72.72 0 0 0-.31.29c-.38-.05-.76-.11-1.14-.17-.78-.13-1.57-.27-2.34-.43-1.57-.32-3.13-.71-4.67-1.17-.86-.26-1.72-.53-2.57-.83-.49-.17-1.1.19-1.21.69-.12.55.17 1.03.69 1.21 3.06 1.06 6.21 1.87 9.41 2.39.56.09 1.12.16 1.68.23.83 3.57 1.65 7.14 2.48 10.7.45 1.93.89 3.86 1.34 5.79.44 1.91.9 3.82 1.26 5.75.1.54.2 1.08.28 1.62l.06.42v.05c0 .04.02.14.02.15l.09.84a16.815 16.815 0 0 1 .03 2.42c0 .12-.02.25-.03.37 0 .06-.01.12-.02.19 0 .04-.04.31-.01.11-.04.27-.05.51.1.76.12.2.35.4.59.45.46.11 1.13-.14 1.21-.69.29-2.08.11-4.13-.24-6.19zM83.89 84.6c-.36-.33-1.04-.42-1.39 0a9.852 9.852 0 0 1-1.47 1.43c-.04.03-.07.06-.11.09h-.01c-.09.07-.18.14-.28.2-.76.55-1.58 1.01-2.41 1.44-1.7.87-3.47 1.57-5.18 2.41-.85.42-1.68.87-2.46 1.39-.97.65-1.86 1.4-2.69 2.22-.84.83-1.64 1.71-2.44 2.58-.87.94-1.73 1.88-2.6 2.82l-5.08 5.5a127.29 127.29 0 0 1-5.71-6.35c-.51-.61-1.01-1.22-1.5-1.84-.25-.31-.49-.62-.74-.93-.12-.15-.24-.3-.35-.45-.05-.07-.11-.14-.16-.21-.03-.03-.05-.07-.08-.1-.01-.02-.03-.03-.04-.05-.96-1.24-1.89-2.5-2.8-3.77-1.03-1.44-2.03-2.91-2.99-4.4-.28-.43-.88-.65-1.34-.35-.43.28-.65.88-.35 1.34 1.73 2.65 3.55 5.24 5.48 7.75 1.96 2.56 4 5.05 6.15 7.45 1.12 1.26 2.27 2.48 3.44 3.69.04.16.11.31.24.43.38.35 1.02.4 1.39 0 1.75-1.89 3.49-3.78 5.24-5.67 1.69-1.83 3.35-3.69 5.08-5.48A23.405 23.405 0 0 1 70.59 94c.1-.08.2-.17.31-.25.02-.01.03-.02.04-.03.07-.05.14-.1.21-.16.77-.56 1.6-1.04 2.44-1.47 1.69-.87 3.47-1.58 5.18-2.42 1.9-.93 3.77-2.08 5.14-3.72.33-.39.41-1.01 0-1.39z"/><path d="M46.52 69.17c-3.77.07-7.55-.01-11.32-.1.28-2.73.59-5.46.95-8.18 1.81-1.43 3.61-2.87 5.42-4.3.4-.32.36-1.06 0-1.39-.43-.39-.96-.34-1.39 0-1.83 1.45-3.66 2.9-5.49 4.36-.12.09-.19.23-.23.37-.11.16-.19.35-.22.57-.38 2.84-.7 5.68-.99 8.52-1.64-.04-3.27-.07-4.91-.09-1.72-.02-3.45-.02-5.17.02-.51 0-1.01.44-.98.98.02.51.42.97.95.98-.02.08-.05.16-.04.24.34 3.58.71 7.16 1.13 10.73.42 3.63.89 7.25 1.4 10.87.28 2.01.58 4.02.88 6.02.07.49.68.79 1.14.69.04 0 .08.03.13.03 3.82.33 7.65.38 11.48.35 1.1 0 2.2-.03 3.31-.04.13 0 .26-.03.38-.08.05-.02.09-.06.14-.09.28-.18.48-.46.46-.8l1.26-12.89c.2-2.03.42-4.07.6-6.1.13-1.46.19-2.93.3-4.4.07-.86.15-1.72.26-2.57 0-.05.01-.09.02-.14.01-.09.03-.19.04-.28.03-.19.06-.38.1-.56.05-.25.11-.5.18-.75h.22c.51 0 1.01-.44.98-.98-.02-.52-.43-.99-.98-.98zM25.22 72s.01.03.02.05v-.04zm.03.1v.02c0 .02.01.05.02.07-.01-.02-.03-.06-.04-.12 0 0 0 .02.02.02zm10.41.87v.05-.06zm-.27-.74.04.04s.01.02.02.03c-.04-.04-.07-.07-.07-.08zm.11.11.01.01z" style="fill:#f0a4ae"/><path class="cls-11" d="M21.61 76.53c1.06.58 2.08 1.24 3.11 1.87 1.03.63 2.09 1.27 3.27 1.56.5.12 1.09-.16 1.21-.69s-.15-1.08-.69-1.21c-.27-.07-.52-.16-.78-.25-.11-.04.12.06-.04-.02-.07-.03-.13-.06-.2-.09-.12-.06-.23-.11-.35-.18-.51-.27-1.01-.57-1.51-.88-1.01-.62-2-1.25-3.03-1.82-.45-.25-1.09-.12-1.34.35s-.13 1.08.35 1.34zM21.48 85.66c2.55 1.47 5.18 2.78 7.89 3.94.25.11.48.18.76.1.23-.06.47-.24.59-.45.22-.42.15-1.13-.35-1.34-2.7-1.15-5.34-2.47-7.89-3.94-.45-.26-1.09-.12-1.34.35s-.12 1.07.35 1.34zM102.87 60.37c.07.73.15 1.43.45 2.1.3.67.87 1.18 1.56 1.44.65.24 1.43.11 1.98-.29.52-.38.89-.89 1.22-1.44.26-.44.11-1.1-.35-1.34s-1.06-.12-1.34.35c-.08.14-.17.28-.26.42l-.07.1c-.05.06-.14.13.05-.06-.06.06-.1.13-.16.19l-.17.17c-.1.09.07-.06.09-.07-.02 0-.08.05-.1.07-.03.02-.07.04-.1.06-.14.09.18-.06.09-.03-.08.03-.16.05-.25.06l.26-.04c-.1.01-.2.01-.3 0l.26.04c-.1-.01-.19-.06-.29-.07.15.07.19.08.12.05a.488.488 0 0 0-.07-.03.913.913 0 0 1-.13-.08c-.16-.1.18.16.04.03-.04-.03-.08-.07-.11-.1s-.07-.08-.1-.11c-.12-.14.12.2.03.04-.05-.09-.11-.18-.16-.28-.08-.16.07.21.01.02-.02-.06-.04-.11-.05-.17a4.02 4.02 0 0 1-.14-.69l.04.26c-.03-.19-.04-.39-.06-.59-.02-.27-.09-.5-.29-.69-.17-.17-.45-.3-.69-.29-.49.02-1.03.43-.98.98z"/><path class="cls-8" d="M92.48 83.28a81 81 0 0 0 24.89 6.41c1.92.18 1.91-2.82 0-3a76.666 76.666 0 0 1-23.38-6c-1.75-.76-3.28 1.82-1.51 2.59z"/></svg>