<svg id="Illustration" xmlns="http://www.w3.org/2000/svg" viewBox="0 0 200 200"><defs><style>.cls-1{fill:#cccac8}.cls-2{fill:#fff}.cls-4{fill:#f4c044}.cls-7{fill:#e2b142}.cls-8{fill:#bfd8dc}</style></defs><path class="cls-8" d="M44.88 144.14s-5.61-6.81-8.05-14.04c-2.45-7.23-6-15.99-4.92-26.89s1.88-23.45 12.16-37.5C54.35 51.66 67.73 41.67 84.81 38.3c17.09-3.37 33.36.49 46.56 6.66 13.2 6.17 27.55 20.53 32.05 33.47 4.5 12.94 5.54 26.09 3.38 35.4-2.15 9.31-3.88 15.58-6.57 20.24-2.69 4.66-7.02 10.5-7.02 10.5s-8.46-3.38-10.72-4.6c-2.26-1.22-13.06-5.75-14.98-6.62s-7.23-2.65-9.71-3.24c-2.48-.59-20.07-2.33-23.03-2.33s-13.24.52-19.68 3.48c-6.44 2.96-15.68 6.79-15.68 6.79l-12.37 6.49-2.15-.39z"/><path d="M93.25 84.1c-.84-2.06-1.66-4.13-2.5-6.18h1.26c.03 0 .05 0 .08-.02.3-.05.49-.24.56-.49.06-.14.05-.31 0-.48v-.03c-.01-.03 0-.06-.03-.09-2.57-5.02-4.24-10.39-6.04-15.71-.01-.26-.19-.44-.41-.54-.02 0-.03-.02-.05-.02a.75.75 0 0 0-.16-.04c-.05 0-.09-.02-.14-.01-.03 0-.07 0-.1.01-.07 0-.13.02-.2.05 0 0-.02 0-.03.01-.23.09-.4.28-.42.54-1.88 5.39-4.09 10.62-6.62 15.74-.02.03-.01.06-.02.09 0 .02 0 .03-.01.05-.02.08-.04.16-.04.23 0 .34.2.67.6.73.03 0 .07.02.1.02h1.21c-3.54 7.01-7.22 13.96-11.12 20.78-.04.08-.06.15-.07.22-.24.43-.09 1.19.47 1.19h1.95c-3.22 8-7.17 15.65-11.81 22.92-.2.31-.12.62.07.82.12.17.3.29.57.29h16.38l.15 5.53c.03.95 1.51.96 1.48 0v-.11l3.97-.59-1.02-11.3-.62-6.82-2.8-.24h-7.22l-.44-.69 2.29-3.25s8.16-9.98 9.81-11.8c1.42-1.56 7.89-8.2 9.72-10.08.18.18.42.28.7.2.35-.1.67-.54.52-.91z" style="fill:#9eb2b3"/><path class="cls-1" d="M37.8 153.3c-2.97-1.48-5.89-3.07-8.75-4.76.51-2.07.55-4.2.44-6.32-.05-.94-.12-1.87-.19-2.81a.83.83 0 0 0 .2-.34c.14-.1.25-.24.32-.42 1.53-3.77 2.53-7.71 3.03-11.75.05-.4-.38-.74-.74-.74-.44 0-.69.35-.74.74-.4 3.29-1.21 6.52-2.34 9.63-.03-.26-.05-.52-.08-.78-.49-4.38-1.21-8.74-2.18-13.04-.21-.93-1.64-.54-1.43.39.93 4.17 1.65 8.39 2.12 12.64 0 .09.02.17.03.26-3-3.67-5.96-7.36-8.87-11.1-.59-.75-1.63.3-1.05 1.05 3.34 4.28 6.74 8.52 10.18 12.71.1 1.1.18 2.2.24 3.3.11 1.92.1 3.86-.3 5.74a138.6 138.6 0 0 1-13.06-8.98c-.78-3.24-1.81-6.42-3.09-9.5-.15-.37-.49-.64-.91-.52-.35.1-.67.54-.52.91a61.75 61.75 0 0 1 2.6 7.59c-1.98-1.6-3.93-3.25-5.82-4.96-.71-.64-1.76.41-1.05 1.05 2.06 1.86 4.18 3.65 6.34 5.38-2.68-.09-5.34-.5-7.93-1.25-.92-.27-1.31 1.16-.39 1.43 3.3.96 6.73 1.41 10.16 1.33.02 0 .04-.01.06-.01 4.11 3.17 8.4 6.11 12.85 8.81a76.204 76.204 0 0 1-6.83 3.96.652.652 0 0 0-.34-.18l-13.42-2.52c-.93-.18-1.33 1.25-.39 1.43l12.12 2.28a75.46 75.46 0 0 1-10.1 3.94c-.91.28-.52 1.71.39 1.43 4.08-1.26 8.05-2.87 11.87-4.79a48.351 48.351 0 0 1-7.83 9.69c-.69.66.36 1.71 1.05 1.05 3.59-3.43 6.66-7.39 9.08-11.73.05-.09.07-.18.09-.27 1.95-1.06 3.85-2.2 5.7-3.43.02-.01.02-.02.04-.04.44.26.87.53 1.31.78 2.42 1.39 4.88 2.71 7.38 3.95.85.42 1.6-.86.75-1.28z"/><path class="cls-8" d="M45.41 143.62c-5.72-7.35-9.46-16.12-11.34-25.21-1.91-9.22-1.91-18.88.06-28.09s5.71-17.38 10.98-24.81c5.12-7.23 11.66-13.49 19.17-18.19 8.27-5.18 17.72-8.36 27.42-9.33 10.31-1.04 20.79.32 30.53 3.8 9.24 3.3 17.82 8.53 25 15.22 7.52 7 13.77 15.67 16.87 25.54 3 9.59 3.61 19.99 2.17 29.91-1.35 9.28-4.47 18.4-9.61 26.27a51.502 51.502 0 0 1-3.98 5.32c-.62.72.43 1.78 1.05 1.05 6.2-7.25 10.34-16.09 12.62-25.32a72.618 72.618 0 0 0 1.09-29.61c-.93-5.46-2.55-10.8-5.04-15.76s-5.42-9.06-8.88-13.03c-6.59-7.58-14.79-13.75-23.85-18.08s-19.89-7.02-30.39-7.13c-10.4-.11-20.82 2.13-30.16 6.74C61.06 46.89 53.86 52.6 48 59.4c-6.03 7.01-10.69 15.18-13.56 23.98-2.99 9.2-3.93 19.05-2.89 28.65 1.03 9.48 3.93 18.81 8.88 26.99 1.19 1.96 2.49 3.84 3.9 5.65.59.75 1.63-.3 1.05-1.05z"/><path class="cls-7" d="M57.54 157.53c.11.09.15.19.14.3-.07.04-.14.09-.21.12l.07-.42zM81.59 145.54l.52-.38c-.18.23-.35.33-.52.38zM32.03 164.42l-.17.18c.06-.09.12-.14.17-.18zM48.52 147.41c.12-.04.24-.08.35-.08-.1.19-.26.19-.35.08zM51.21 144.32c-.26.32-.47.49-.65.62.19-.22.41-.42.65-.62zM88.75 133.38c-.15.17-.43.64-.62.54l.85-1.41c.45-.5-.1.56-.23.87zM89.7 135.71c-1.1.79-.21.8-.83 1.11l-.37-.62 1.2-.49zM88.14 132.37l.37-.18c-.13.08-.25.16-.39.25l.02-.07zM84.98 140.22l1.22.06c-1.02.53-1.42.04-1.22-.06zM81.3 143.83l.76-.31-2.06 1.37 1.3-1.06zM52.73 142.52l2.03-1.57c-1.32 1.51-.41.36-2.03 1.57zM126.73 140.56c.24-.32.52-.63.83-.88-.36.78-.7 1.07-.83.88zM102.94 135.18l.2-.24c-.07.11-.14.19-.2.24zM126.97 138.74l-.45 1.26c-.05.27-.13.53-.29.8l.29-.8c.13-.68.03-1.23.45-1.26zm-3.93-1.08c-.06-.25-.15-.51-.23-.76l.53-.74c-.1.5-.17 1.01-.3 1.5zm-3-2.25c.53-.3.79-.45 1.12-.75-.4-.01-1.6.43-.94-.18.68-.14 2.38-1.33 2.65-1.01-1.71.72-2.01 2.42-2.82 1.93zm1.52 8.31c.33-.74.71-1.46.99-2.21-.3.71-.68 1.38-1.02 2.06l.02.15zm3.24-7.87c-.45.14-.74 1.03-1 1.96-.3.91-.54 1.89-.76 2.19.1-.41.22-.96.38-1.52.08-.28.16-.57.24-.84.07-.28.14-.55.21-.8.29-.99.63-1.63.93-.99zm-1.41 5.59c-.34.84-.37 1.11-.7.87-.33.33-.43 1.07-.76 1.4.2-.87.43-1.21.69-1.45.24-.24.51-.38.77-.82.09-.22.19-.47.34-.78-.11.35-.22.58-.34.78zM118.53 144.88c.08.09.05.28-.02.51-.05-.06-.06-.19.02-.51zM143.17 138.54l.46-.21c-.19.11-.37.22-.57.34l.11-.13z"/><path class="cls-1" d="M195.69 134.82a32.15 32.15 0 0 1-7.91 1.25c2.16-1.73 4.27-3.52 6.33-5.38.71-.64-.34-1.69-1.05-1.05-1.89 1.71-3.83 3.36-5.82 4.96.71-2.58 1.57-5.12 2.6-7.59.16-.37-.17-.81-.52-.91-.43-.12-.76.15-.91.52a63.345 63.345 0 0 0-3.09 9.49c-4.18 3.24-8.53 6.25-13.06 8.99-.4-1.89-.4-3.82-.3-5.75.06-1.1.14-2.2.24-3.3 3.45-4.19 6.85-8.43 10.18-12.71.58-.74-.46-1.8-1.05-1.05-2.91 3.74-5.88 7.43-8.87 11.1 0-.09.02-.17.03-.26.47-4.25 1.19-8.47 2.12-12.64.21-.93-1.22-1.33-1.43-.39a122.3 122.3 0 0 0-2.18 13.04c-.03.26-.05.52-.08.78-1.13-3.12-1.93-6.34-2.34-9.63-.05-.4-.31-.74-.74-.74-.36 0-.79.34-.74.74.49 4.04 1.49 7.98 3.03 11.75.07.17.18.31.32.41.04.13.11.25.2.35-.08.94-.14 1.87-.19 2.81-.11 2.12-.07 4.25.44 6.31-.49.29-.97.59-1.47.87a141.39 141.39 0 0 1-7.29 3.9c-.85.43-.1 1.71.75 1.28 2.96-1.47 5.85-3.06 8.69-4.73.02.01.02.03.04.04a78.23 78.23 0 0 0 5.7 3.43c.01.09.03.18.09.27 2.42 4.34 5.49 8.3 9.08 11.73.69.66 1.74-.39 1.05-1.05a48.634 48.634 0 0 1-7.83-9.69c3.82 1.91 7.78 3.52 11.87 4.79.91.28 1.31-1.15.39-1.43a75.99 75.99 0 0 1-10.1-3.94l12.12-2.28c.94-.18.54-1.61-.39-1.43l-13.42 2.52c-.15.03-.25.09-.34.18-2.34-1.2-4.62-2.52-6.83-3.96 4.44-2.69 8.73-5.63 12.84-8.81.02 0 .04.02.07.02 3.43.08 6.87-.37 10.16-1.33.91-.27.53-1.7-.39-1.43z"/><path class="cls-8" d="M77.48 77.53h16.28v1.95H77.48zM66.62 99.53h13.75v1.95H66.62zM58.5 123.4h22v2.2h-22z"/><path class="cls-2" d="M68.15 65.86c-2.32 0-2.32 3.6 0 3.6s2.32-3.6 0-3.6zM99.48 57.69c-2.32 0-2.32 3.6 0 3.6s2.32-3.6 0-3.6zM122.09 51.78c-2.32 0-2.32 3.6 0 3.6s2.32-3.6 0-3.6zM129.72 67.77c-2.32 0-2.32 3.6 0 3.6s2.32-3.6 0-3.6zM131.17 87.74c-2.32 0-2.32 3.6 0 3.6s2.32-3.6 0-3.6zM149.7 77.94c-2.32 0-2.32 3.6 0 3.6s2.32-3.6 0-3.6zM143.7 101.18c-2.32 0-2.32 3.6 0 3.6s2.32-3.6 0-3.6zM158.23 105.73c-2.32 0-2.32 3.6 0 3.6s2.32-3.6 0-3.6zM139.16 124.8c-2.32 0-2.32 3.6 0 3.6s2.32-3.6 0-3.6zM121.16 118.8c-2.32 0-2.32 3.6 0 3.6s2.32-3.6 0-3.6zM80.16 47.8c-2.32 0-2.32 3.6 0 3.6s2.32-3.6 0-3.6zM51.98 122.25c-2.32 0-2.32 3.6 0 3.6s2.32-3.6 0-3.6zM69.24 116.08c-2.32 0-2.32 3.6 0 3.6s2.32-3.6 0-3.6zM76.24 83.08c-2.32 0-2.32 3.6 0 3.6s2.32-3.6 0-3.6zM60.34 94.1c-2.32 0-2.32 3.6 0 3.6s2.32-3.6 0-3.6zM44.72 80.66c-2.32 0-2.32 3.6 0 3.6s2.32-3.6 0-3.6zM38.18 108.81c-2.32 0-2.32 3.6 0 3.6s2.32-3.6 0-3.6z"/><path d="M130.95 110.49a171.48 171.48 0 0 0-12.42-15.41l.06-13.41c0-.34-.19-.55-.43-.65-.09-.14-.22-.26-.39-.29-2.45-.41-4.93-.51-7.4-.28a.88.88 0 0 0-.54.25c-.21.11-.36.31-.36.61 0 1.5.02 3 .02 4.5-.54-.51-1.07-1.02-1.61-1.52-2.4-2.22-4.88-4.36-7.41-6.43a.735.735 0 0 0-.58-.17c-.19-.02-.4.02-.58.17-8.92 7.26-17.1 15.4-24.29 24.38-1.97 2.46-3.87 4.98-5.69 7.55-.1.08-.17.18-.2.3-.22.39-.02.75.32.91.1.07.21.12.35.14 2.94.32 5.95.44 8.93.38 0 2.66.03 5.31.25 7.96.26 3.09.71 6.16 1.14 9.22.06.4.56.61.91.52.02 0 .04-.02.06-.03.78-.14 5.08-.94 5.95-1.07.96-.14 9.41-.64 11.04-.63 1.63.01 9.68.73 11.68 1.01s9.71 2.03 9.71 2.03.01-.13.03-.33c.42-.01.66-.35.71-.74.78-5.85 1.22-11.74 1.34-17.64 1.1.04 2.2.04 3.29.03 1.82-.01 3.66-.04 5.47-.27a.94.94 0 0 0 .56-.28c.22-.2.31-.51.08-.84z" style="fill:#e6f6f7"/><path d="M106.49 119.1c-.09-1.34-.21-2.7-.82-3.92-.49-.97-1.27-1.8-2.18-2.39-2-1.29-4.74-1.22-6.69.15-1.94 1.37-2.8 3.66-3.11 5.93-.37 2.75-.18 5.54.16 8.28.08.68.87.86 1.27.56l.5.08s2.52.08 3.93-.19c1.09-.21 4.05.19 5.35.39.32.45 1.28.31 1.37-.44.34-2.81.42-5.63.23-8.46z" style="fill:#fd7f03"/><path class="cls-4" d="M99.83 99.38c-1.56.11-3.34 1.26-3.84 2.76s.1 3.28 1.38 4.21 3.14.95 4.45.08 2.01-2.58 1.72-4.13c-.07-.38-.2-.76-.42-1.08-.38-.56-.7-.98-1.3-1.29-.65-.33-1.07-.59-1.99-.54"/><path class="cls-2" d="M153.07 143.81c-5.89-2.81-11.7-5.8-17.68-8.41-6.21-2.71-12.6-4.97-19.22-6.44-7.47-1.65-15.2-2.47-22.85-2.13-3.88.17-7.76.66-11.55 1.51-3.83.87-7.51 2.18-11.11 3.75-7.6 3.32-15.07 6.95-22.59 10.45-.97.45-1.93.9-2.9 1.34-.87.4-.11 1.68.75 1.28.38-.18.76-.35 1.13-.53l3.53.2 30.37-.13 41.52.13 28.78-.27c.36.17.71.34 1.07.51.86.41 1.61-.87.75-1.28z"/><path class="cls-4" d="M162.17 144.85c-.07-.52-.54-.74-.94-.69a.686.686 0 0 0-.46-.18H38.6c-.2 0-.34.07-.46.17-.18.12-.31.3-.33.57-.18 2.68-.45 5.37-.41 8.06.05 3.26.58 6.49 1.21 9.69.02.1.06.17.1.24.05.33.27.63.7.63h120.62c.21 0 .37-.08.49-.19.2-.07.37-.21.43-.48.68-2.86 1.27-5.75 1.51-8.68.25-3.05.09-6.09-.29-9.12z"/></svg>