<svg id="Illustration" xmlns="http://www.w3.org/2000/svg" viewBox="0 0 200 168.62"><defs><clipPath id="clippath"><path d="m174.08 114.68-13.58-4.04 13.73-64.04c1.63-6.75 8.58-10.76 15.23-8.78 6.7 1.99 10.33 9.23 7.92 15.79l-23.31 61.06Z" style="fill:none"/></clipPath><style>.cls-3{fill:#f6f6f6}.cls-4{fill:#fff}.cls-6{fill:#ffa84b}.cls-7{fill:#fbae5e}.cls-8{fill:#ff4f00}.cls-9{fill:#f70}.cls-12{fill:#d63715}.cls-13{fill:#d73815}.cls-14{fill:#9ab4b4}.cls-12{stroke:#d63715;stroke-miterlimit:10;stroke-width:2px}</style></defs><rect x="14.68" y="20.64" width="176.64" height="116.52" rx="17.11" ry="17.11" transform="rotate(-8.54 102.933 78.864)" style="fill:#ffd884"/><path class="cls-7" d="M186.49 110.98c-4.33 2.1-9.65 2.08-13.91 3.95l-4.76 7.69 13.51-2.09c7.01-1.09 11.85-7.55 10.99-14.54-1.35 2.05-3.28 3.77-5.83 5ZM183.31 101.37c1.59-1.4 1.69-3.61 1.33-5.92l-4.77 7.71c1.3-.4 2.49-.95 3.44-1.79Z"/><path class="cls-6" d="M110.63 115.35c3.69-3.17 8.17-5.38 12.97-6.22 2.55-.45 5.85-.02 7.74-1.92 1.83-1.85 2.37-5.51 2.69-7.99.7-5.39-1.33-11.02 1.55-16.01 2.16-3.74 6.08-6.12 10.07-7.48 4.64-1.58 10.77-.96 14.84-3.95 4.32-3.17 3.66-8.9-.04-11.96l-19.33-1.4c-.61 1.72-1.5 3.36-2.7 4.84-5.51 6.83-13.55 5.12-20.61 8.92-1.83.98-3.82 2.3-5.1 3.98-1.77 2.33-1.45 3.58-.86 6.25.76 3.43 1.22 6.27-.06 9.68-2.69 7.17-8.89 12.85-16.81 12.25-3.76-.29-7.25-1.27-10.81.55-4.38 2.24-4.02 5.84-2.99 10.08 1.76 7.31 2.67 15.34-1.8 21.88l27.65-4.29c-1.82-6.22-1.7-12.64 3.6-17.21ZM21.68 113.67c3.76.49 7.18 4.47 9.03-.96 1.28-3.77-.28-8.47.05-12.4.3-3.56 1.5-6.98 4.23-9.41 6-5.35 12.87-1.6 19.62-.79 1.86.22 3.13.38 3.93-1.36.76-1.66-.27-5.15-.47-6.89-.42-3.79-.79-7.54.25-11.27 2.35-8.45 9.72-11.23 17.79-10.22 3.51.44 7.58 1.63 10.6-.87 1.65-1.37 2.17-3.06 2.38-4.86l-32.9-2.38c-1.03.78-2.42 1.06-4.08.41C39.78 47.88 35.99 69 31.68 76.24c-5.44 9.11-13.39 12.13-22.8 11.99l4.36 28.15c2.33-2 5.34-3.11 8.44-2.7Z"/><path class="cls-6" d="M45.5 133.13c5.66-4.74 12.31-2.93 18.7-1.17 3.08.85 5.75 1.66 7.48-1.61 2.45-4.61.46-9.72-.53-14.36-1.48-6.87-.45-13.37 5.32-17.94 2.56-2.03 5.63-3.34 8.84-3.93 3.72-.68 6.88.33 10.55.32 4.7 0 7.22-5.4 6.37-9.39-.74-3.47-1.47-6.46-.28-9.99 2.3-6.88 9.76-11.75 16.33-13.87 3.4-1.1 8.03-.69 11-2.81.33-.24.62-.49.89-.76L99.1 55.37c-.02.21-.03.41-.05.62-.16 1.38-.41 2.64-.88 3.95-1.06 2.97-3.01 5.53-5.47 7.48-5.95 4.71-12.06 3.17-18.99 2.66-9.99-.72-4.82 12.9-5.21 18.74-.41 6.15-4.45 10.55-10.62 11.23-2.88.32-5.7-.2-8.49-.9-3.07-.77-7.36-2.89-8.64 1.13-.97 3.05.39 7.37.22 10.53-.2 3.54-1.06 7.02-3.2 9.9-4.29 5.77-9.66 5.54-15.75 3.66-1.08-1.21-2.01-1.15-2.8.17-.43.77-.63 1.58-.61 2.44-.23 1.96.18 3.97.42 5.92.34 2.79.51 5.36.17 8.04 2.62 2.76 6.51 4.24 10.55 3.61l10.21-1.58c.73-3.72 2.36-7.16 5.54-9.82ZM51.54 141.07s-.07.07-.1.11l5.82-.9c-2.05-.5-4.11-.61-5.72.8ZM169.19 105.41c2.99-1.19 7.21-1.2 10.62-2.24l4.82-7.79c-.37-2.36-1.21-4.83-1.44-6.64-.71-5.65 1.04-10.43 4.24-14.33l-1.98-12.79-12.85-.93c1.61 5.04.96 10.72-2.6 15.47-3.17 4.24-7.86 6.33-12.94 7.36-3.89.79-11.61.82-13.03 5.5-.81 2.68.31 6.38.11 9.23-.19 2.62-.62 5.29-1.38 7.8-1.53 5.08-4.25 9.84-9.54 11.64-5.06 1.72-10.14.8-14.75 4.12-3.28 2.36-2.59 4.98-1.52 8.51.07.22.15.44.23.66l38.96-6.04c0-8.05 4.36-16.08 13.05-19.53ZM172.52 114.95c-2.09.93-3.93 2.31-5.26 4.63-.73 1.27-1.16 2.56-1.35 3.84l1.56-.24.35-.57h-.05l4.75-7.66ZM21.32 73.82c3.61-4.41 5.15-10.26 7.41-15.38 1.19-2.7 2.79-5.4 4.72-7.82L2.7 48.39l4.64 29.93c5.22.45 10.28.02 13.98-4.49ZM179.81 103.17s.04-.01.06-.02l4.77-7.71v-.06l-4.82 7.79Z"/><path class="cls-6" d="m172.52 114.95-4.75 7.67h.05l4.76-7.7c-.02 0-.04.02-.06.03Z"/><path class="cls-9" d="M19.04 132.88c-.24-1.94-.65-3.95-.42-5.92-.03-.86.18-1.67.61-2.44.79-1.32 1.72-1.38 2.8-.17 6.09 1.88 11.46 2.12 15.75-3.66 2.14-2.88 3-6.36 3.2-9.9.18-3.16-1.19-7.48-.22-10.53 1.28-4.03 5.57-1.91 8.64-1.13 2.78.7 5.61 1.22 8.49.9 6.17-.68 10.2-5.08 10.62-11.23.39-5.84-4.78-19.46 5.21-18.74 6.93.5 13.04 2.04 18.99-2.66 2.45-1.94 4.41-4.51 5.47-7.48.47-1.31.72-2.57.88-3.95.02-.2.03-.41.05-.62l-10-.72c-.21 1.81-.73 3.5-2.38 4.86-3.03 2.5-7.09 1.31-10.6.87-8.07-1.01-15.43 1.77-17.79 10.22-1.04 3.73-.67 7.48-.25 11.27.19 1.74 1.23 5.23.47 6.89-.8 1.74-2.07 1.59-3.93 1.36-6.75-.81-13.62-4.56-19.62.79-2.73 2.43-3.92 5.85-4.23 9.41-.33 3.92 1.23 8.63-.05 12.4-1.85 5.43-5.26 1.45-9.03.96-3.1-.4-6.1.7-8.44 2.7l2.81 18.13c.39 2.5 1.53 4.7 3.15 6.41.34-2.67.17-5.25-.17-8.04ZM31.68 76.24c4.31-7.23 8.1-28.36 20.43-23.57 1.66.64 3.05.37 4.08-.41l-22.74-1.65a36.114 36.114 0 0 0-4.72 7.82c-2.26 5.12-3.8 10.97-7.41 15.38-3.7 4.52-8.76 4.94-13.98 4.49l1.54 9.91c9.41.14 17.37-2.87 22.8-11.99ZM81.18 114.96c-1.02-4.24-1.39-7.84 2.99-10.08 3.56-1.82 7.05-.83 10.81-.55 7.92.6 14.12-5.08 16.81-12.25 1.28-3.41.82-6.25.06-9.68-.59-2.67-.91-3.92.86-6.25 1.28-1.68 3.27-3 5.1-3.98 7.06-3.8 15.1-2.09 20.61-8.92 1.2-1.48 2.09-3.12 2.7-4.84l-10.95-.79c-.27.26-.56.52-.89.76-2.97 2.12-7.6 1.71-11 2.81-6.56 2.12-14.02 6.99-16.33 13.87-1.18 3.53-.46 6.52.28 9.99.85 3.99-1.67 9.38-6.37 9.39-3.66 0-6.83-1-10.55-.32-3.21.59-6.28 1.9-8.84 3.93-5.78 4.57-6.8 11.07-5.32 17.94 1 4.63 2.98 9.75.53 14.36-1.74 3.27-4.4 2.46-7.48 1.61-6.39-1.76-13.03-3.57-18.7 1.17-3.18 2.66-4.81 6.1-5.54 9.82l11.48-1.78s.07-.07.1-.11c1.61-1.41 3.67-1.3 5.72-.8l22.12-3.43c4.47-6.55 3.56-14.57 1.8-21.88ZM118.46 121.81c4.61-3.32 9.68-2.41 14.75-4.12 5.29-1.79 8.01-6.56 9.54-11.64.76-2.51 1.19-5.19 1.38-7.8.2-2.85-.92-6.56-.11-9.23 1.42-4.68 9.14-4.71 13.03-5.5 5.07-1.03 9.77-3.12 12.94-7.36 3.56-4.76 4.21-10.43 2.6-15.47l-12.15-.88c3.71 3.06 4.37 8.79.04 11.96-4.07 2.99-10.19 2.37-14.84 3.95-3.99 1.36-7.91 3.74-10.07 7.48-2.88 4.99-.85 10.62-1.55 16.01-.32 2.48-.86 6.14-2.69 7.99-1.89 1.9-5.19 1.47-7.74 1.92-4.8.84-9.28 3.05-12.97 6.22-5.3 4.56-5.42 10.99-3.6 17.21l10.14-1.57c-.07-.22-.16-.44-.23-.66-1.07-3.53-1.76-6.15 1.52-8.51ZM189.48 87.54v.08l-4.84 7.82c.36 2.32.25 4.53-1.33 5.92-.95.83-2.13 1.38-3.44 1.79l-7.29 11.78c4.27-1.87 9.59-1.85 13.91-3.95 2.55-1.23 4.48-2.95 5.83-5-.02-.14-.02-.28-.04-.41l-2.79-18.03ZM172.52 114.95l7.29-11.79c-3.41 1.04-7.63 1.05-10.62 2.24-8.7 3.45-13.05 11.48-13.05 19.53l9.77-1.52c.19-1.27.62-2.56 1.35-3.84 1.33-2.33 3.17-3.71 5.26-4.63Z"/><path class="cls-9" d="M183.19 88.74c.23 1.81 1.07 4.27 1.44 6.64l4.84-7.82-2.04-13.15c-3.19 3.9-4.95 8.68-4.24 14.33ZM172.52 114.95l.06-.03 7.29-11.78s-.04.01-.06.02l-7.29 11.79ZM184.64 95.44l4.84-7.82v-.06l-4.85 7.82v.06ZM178.04 13.82c-.95-6.12-6.67-10.3-12.79-9.36L10.94 28.38c-6.12.95-10.3 6.67-9.36 12.79l1.12 7.21 182.75 13.24-7.41-47.8Z"/><path class="cls-12" d="M89.16 104.32c-1.42 8.32-9.02 13.81-17.3 12.17-13.38-2.65-15.56-13.05-14.12-19.34 1.88-8.23 10.53-13.73 18.76-11.85 10.24 2.34 14.04 10.9 12.66 19.02ZM90.11 33.84c8.18-2.07 18.79 3.14 19.68 11.18 1.51 13.56-7.19 19.22-13.52 20.45-8.29 1.61-16.82-4.07-18.43-12.36-2.01-10.31 4.28-17.25 12.27-19.27ZM140.36 54.26c-6.66-5.18-7.85-16.41-2.05-22.06 9.77-9.52 18.36-6.48 23.22-2.24 6.37 5.54 6.19 15.07 1.58 22.14-4.96 7.61-16.24 7.22-22.75 2.16ZM118.74 80.93c6.31-5.6 15.68-5.14 21.11 1.33 8.78 10.44 3.97 19.92-1.08 23.92-6.61 5.25-16.81 4.12-22.05-2.49-6.53-8.23-4.14-17.29 2.03-22.76Z"/><path d="M63.66 57.6c-.44-2.25-1.62-4.34-3.33-5.89-.45-.46-.84-.95-1.19-1.48-.29-.63-.51-1.28-.65-1.86-.39-2.26-1.48-4.28-3.15-5.88l-.2-.16c-1.91-1.27-4.14-1.88-6.34-1.77-.69-.01-1.38-.09-2.05-.23-.61-.22-5.26 5.5-5.74 5.2-1.88-1.34.85-.59-1.46-.51-2.27.44-5.6-5.8-7.09-4.13-.46.45-.96.86-1.51 1.21-.63.29-1.28.51-1.86.65-2.26.39-4.28 1.48-5.88 3.15l-.16.2c-1.27 1.91-1.88 4.14-1.77 6.34-.01.69-.09 1.39-.23 2.05a9.25 9.25 0 0 1-.81 1.67c-1.34 1.88-2.04 4.2-1.97 6.51l.03.26c.44 2.27 1.64 4.37 3.31 5.86.45.46.86.96 1.21 1.51.29.63.53 1.28.65 1.86.39 2.26 4.9-4.01 6.55-2.43l-3.2 8.47c1.91 1.27-.65-4.2 1.55-4.31.69.01 6.16 6.18 6.84 6.32.61.22 1.19.51 1.66.81 1.88 1.34 4.2 2.04 6.51 1.97l.26-.03c2.27-.45 4.37-1.64 5.86-3.31.46-.45.96-.86 1.51-1.21.63-.29 1.28-.51 1.86-.65 2.26-.39 4.3-1.48 5.88-3.15l.16-.2c1.27-1.91 1.88-4.14 1.77-6.34.01-.69.09-1.38.23-2.05.22-.61.51-1.19.81-1.67 1.34-1.88 2.04-4.2 1.97-6.51l-.03-.26Z" style="fill:#d63715"/><path class="cls-8" d="M60.25 56.73c-.44-2.25-1.62-4.34-3.33-5.89-.45-.46-.84-.95-1.19-1.48-.29-.63-.51-1.28-.65-1.86-.39-2.26-1.48-4.28-3.15-5.88l-.2-.16c-1.91-1.27-4.14-1.88-6.34-1.77-.69-.01-1.38-.09-2.05-.23-.61-.22-1.19-.51-1.67-.81-1.88-1.34-4.2-2.04-6.51-1.97l-.24.03c-2.27.44-4.37 1.64-5.86 3.31-.46.45-.96.86-1.51 1.21-.63.29-1.28.51-1.86.65-2.26.39-4.28 1.48-5.88 3.15l-.16.2c-1.27 1.91-1.88 4.14-1.77 6.34-.01.69-.09 1.39-.23 2.05a9.25 9.25 0 0 1-.81 1.67c-1.34 1.88-2.04 4.2-1.97 6.51l.03.26c.44 2.27 1.64 4.37 3.31 5.86.45.46.86.96 1.21 1.51.29.63.53 1.28.65 1.86.39 2.26 1.5 4.3 3.15 5.88l.2.16c1.91 1.27 4.14 1.88 6.34 1.77.69.01 1.38.09 2.05.23.61.22 1.19.51 1.66.81 1.88 1.34 4.2 2.04 6.51 1.97l.26-.03c2.27-.45 4.37-1.64 5.86-3.31.46-.45.96-.86 1.51-1.21.63-.29 1.28-.51 1.86-.65 2.26-.39 4.3-1.48 5.88-3.15l.16-.2c1.27-1.91 1.88-4.14 1.77-6.34.01-.69.09-1.38.23-2.05.22-.61.51-1.19.81-1.67 1.34-1.88 2.04-4.2 1.97-6.51l-.03-.26Z"/><path class="cls-13" d="M32.13 61.45c.59-.12 1.14-.35 1.67-.65.51-.28.99-.63 1.38-1.07.73-.82 1.13-1.89 1.19-2.98.06-1.12-.3-2.24-.92-3.17-.31-.47-.7-.89-1.13-1.24a3.06 3.06 0 0 0-.77-.47c-.28-.11-.57-.19-.87-.25-1.22-.25-2.53-.18-3.68.32-.29.13-.56.28-.82.46 0 0-.02 0-.02.01h-.01c-.46.32-.87.72-1.19 1.18-.36.48-.63 1.01-.76 1.58-.26 1.14-.04 2.39.48 3.43.49.98 1.26 1.82 2.24 2.33.97.51 2.13.69 3.21.48Zm-2.08-6.27c.26-.28.62-.44 1-.45.4-.01.77.04 1.11.25.71.43.94 1.31.71 2.08-.22.72-.93 1.34-1.72 1.29-.75-.04-1.33-.69-1.51-1.39-.16-.61 0-1.31.41-1.78ZM45.41 53.24c.3-.43.6-.86.89-1.29.15-.22.29-.44.43-.65.06-.09.14-.18.16-.29a.305.305 0 0 0-.15-.3c-.2-.11-.48-.04-.7-.03-.27.02-.54.03-.81.05-.53.03-1.07.07-1.6.11-.26.02-.5.09-.68.28-.07.08-.13.17-.18.26-.27.35-.5.75-.74 1.12-.54.84-1.06 1.69-1.58 2.55l-.81 1.35c-.91 1.46-1.82 2.91-2.73 4.37-1.01 1.61-2.01 3.22-3.02 4.82l-1.71 2.73c-.07.11.02.27.14.29.26.03.51.02.77-.01.38-.03.75-.05 1.13-.08.23-.02.46-.03.68-.05.22-.02.46-.01.68-.06.21-.04.35-.14.47-.31.13-.19.26-.38.38-.56.25-.37.5-.75.74-1.13.2-.32.4-.65.6-.98a.26.26 0 0 0 .11-.1c1.15-1.87 2.3-3.75 3.44-5.62.89-1.45 1.77-2.91 2.68-4.35.45-.72.91-1.44 1.4-2.13ZM52.12 60.13c-.5-.86-1.28-1.58-2.2-1.95-.57-.23-1.19-.34-1.8-.39-.65-.06-1.28 0-1.89.21-.01 0-.03 0-.04.01-1.74.47-3.11 1.98-3.45 3.77-.41 2.19.6 4.67 2.68 5.62 1.09.5 2.31.57 3.48.33.59-.12 1.18-.31 1.71-.61.45-.26.79-.66 1.09-1.07.64-.86 1.04-1.88 1.11-2.95.07-1.04-.15-2.08-.68-2.98Zm-6.04 2.28a2.08 2.08 0 0 1 .86-1.15c.33-.21.76-.24 1.14-.18.37.06.78.17 1.05.45.15.15.23.36.29.56.07.23.12.47.13.72.01.42-.1.86-.37 1.19-.28.35-.7.52-1.13.59-.43.07-.87.03-1.24-.21-.65-.41-.93-1.23-.73-1.96Z"/><path class="cls-4" d="M30 60.82c.59-.12 1.14-.35 1.67-.65.51-.28.99-.63 1.38-1.07.73-.82 1.13-1.89 1.19-2.98.06-1.12-.3-2.24-.92-3.17-.31-.47-.7-.89-1.13-1.24a3.06 3.06 0 0 0-.77-.47c-.28-.11-.57-.19-.87-.25-1.22-.25-2.53-.18-3.68.32-.29.13-.56.28-.82.46 0 0-.02 0-.02.01h-.01c-.46.32-.87.72-1.19 1.18-.36.48-.63 1.01-.76 1.58-.26 1.14-.04 2.39.48 3.43.49.98 1.26 1.82 2.24 2.33.97.51 2.13.69 3.21.48Zm-2.08-6.27c.26-.28.62-.44 1-.45.4-.01.77.04 1.11.25.71.43.94 1.31.71 2.08-.22.72-.93 1.34-1.72 1.29-.75-.04-1.33-.69-1.51-1.39-.16-.61 0-1.31.41-1.78ZM43.27 52.61c.3-.43.6-.86.89-1.29.15-.22.29-.44.43-.65.06-.09.14-.18.16-.29a.305.305 0 0 0-.15-.3c-.2-.11-.48-.04-.7-.03-.27.02-.54.03-.81.05-.53.03-1.07.07-1.6.11-.26.02-.5.09-.68.28-.07.08-.13.17-.18.26-.27.35-.5.75-.74 1.12-.54.84-1.06 1.69-1.58 2.55l-.81 1.35c-.91 1.46-1.82 2.91-2.73 4.37-1.01 1.61-2.01 3.22-3.02 4.82l-1.71 2.73c-.07.11.02.27.14.29.26.03.51.02.77-.01.38-.03.75-.05 1.13-.08.23-.02.46-.03.68-.05.22-.02.46-.01.68-.06.21-.04.35-.14.47-.31.13-.19.26-.38.38-.56.25-.37.5-.75.74-1.13.2-.32.4-.65.6-.98a.26.26 0 0 0 .11-.1l3.44-5.62c.89-1.45 1.77-2.91 2.68-4.35.45-.72.91-1.44 1.4-2.13ZM49.98 59.5c-.5-.86-1.28-1.58-2.2-1.95-.57-.23-1.19-.34-1.8-.39-.65-.06-1.28 0-1.89.21-.01 0-.03 0-.04.01-1.74.47-3.11 1.98-3.45 3.77-.41 2.19.6 4.67 2.68 5.62 1.09.5 2.31.57 3.48.33.59-.12 1.18-.31 1.71-.61.45-.26.79-.66 1.09-1.07.64-.86 1.04-1.88 1.11-2.95.07-1.04-.15-2.08-.68-2.98Zm-6.04 2.28a2.08 2.08 0 0 1 .86-1.15c.33-.21.76-.24 1.14-.18.37.06.78.17 1.05.45.15.15.23.36.29.56.07.23.12.47.13.72.01.42-.1.86-.37 1.19-.28.35-.7.52-1.13.59-.43.07-.87.03-1.24-.21-.65-.41-.93-1.23-.73-1.96Z"/><path class="cls-3" d="M73.68 82.98c-8.8-2.01-17.94 3.77-19.96 12.61-.99 4.33-.17 9.09 2.2 12.73 2.62 4.03 6.89 6.66 12.71 7.82 1.04.21 2.09.31 3.12.31 3.11 0 6.12-.92 8.7-2.7 3.55-2.44 5.91-6.2 6.66-10.59 1.4-8.19-2.21-17.61-13.42-20.16ZM101.84 34.46c-4.4-3.05-10.15-4.17-15.01-2.94-8.06 2.04-15.21 9.15-13.01 20.43 1.53 7.83 8.72 13.45 16.52 13.45 1.02 0 2.06-.1 3.09-.3 7.55-1.47 15.83-8 14.32-21.54-.39-3.5-2.49-6.73-5.91-9.1ZM159.14 27.86c-10.9-9.49-21.57-.65-24.58 2.28-2.79 2.72-4.25 6.83-4 11.29.27 4.91 2.57 9.5 6.14 12.28 3.22 2.5 7.49 3.9 11.66 3.9.99 0 1.97-.08 2.94-.24 4.15-.69 7.47-2.79 9.6-6.07 4.53-6.94 5.37-17.23-1.76-23.44ZM126.86 74.74c-4.29-.31-8.49 1.14-11.82 4.1-6.22 5.52-9.29 15.12-2.15 24.13 2.66 3.36 6.74 5.57 11.19 6.07.64.07 1.29.11 1.93.11 3.78 0 7.47-1.24 10.35-3.52 3.48-2.76 5.81-6.98 6.25-11.3.48-4.78-1.21-9.51-5.02-14.05-2.74-3.26-6.55-5.22-10.72-5.53Z"/><path class="cls-8" d="M183.63 144.88c-.09-.17-.24-.29-.41-.39l.03-.09-46.78-13.91v.04a1.007 1.007 0 0 0-1.26.68l-4.59 15.91c-.15.52.14 1.07.66 1.23l9.3 2.95 16.84 5.7 19.91 5.95a1.014 1.014 0 0 0 1.25-.67l5.14-16.65c.08-.25.05-.53-.07-.77Z"/><rect class="cls-14" x="154.45" y="112.16" width="19.92" height="19.92" rx="1.82" ry="1.82" transform="rotate(16.55 164.44 122.16)"/><path class="cls-14" d="M138.85 131.54h43.73c1.4 0 2.54 1.14 2.54 2.54v3.5h-48.81v-3.5c0-1.4 1.14-2.54 2.54-2.54Z" transform="rotate(16.55 160.737 134.6)"/><g style="clip-path:url(#clippath);fill:none"><path d="m174.23 46.6-13.73 64.04 13.58 4.04 13.87-36.33-6.15-40.25c-3.64 1.36-6.58 4.43-7.56 8.51Z" style="fill:#badade"/><path class="cls-14" d="M199.78 121.52c-.13 1.43-.45 2.87-1.01 4.32 4.94-1.07 3.02-2.71 1.01-4.32ZM199.78 121.52c.12-1.34.07-2.68-.11-4.02-3.82.97-1.81 2.48.11 4.02ZM189.47 37.82c-2.63-.78-5.3-.62-7.67.27l6.15 40.25 9.44-24.73c2.41-6.56-1.22-13.8-7.92-15.79Z"/></g><path class="cls-4" d="M172.19 134.13c.25-.69-4.19-2.72-9.92-4.54-5.73-1.82-10.57-2.74-10.82-2.05-.25.69 4.19 2.72 9.92 4.54 5.73 1.82 10.57 2.74 10.82 2.05ZM183.66 144.68c.36-.66-10.03-4.35-23.2-8.24-13.18-3.9-24.15-6.52-24.52-5.86-.36.66 10.03 4.35 23.2 8.24 13.18 3.9 24.15 6.52 24.52 5.86ZM176.32 115.92c.23-.63-3.85-2.5-9.11-4.17s-9.7-2.51-9.93-1.88c-.23.63 3.85 2.5 9.11 4.17s9.7 2.51 9.93 1.88Z"/></svg>