<svg id="Illustration" xmlns="http://www.w3.org/2000/svg" viewBox="0 0 200 200"><defs><style>.cls-1{fill:none}.cls-5{fill:#fcb9c4}.cls-7{fill:#c1dade}</style></defs><path d="M176.62 27.28c-3.92-8.69-10.38-16.34-18.68-21.11-8.29-4.77-18.41-6.1-27.87-3.58-9.46 2.52-18.75 8.81-24.72 17.06-.75 1.04-1.45 2.12-2.09 3.23-.07.12-.12.24-.16.35-.16.48-.1.94.11 1.32.02.04.05.08.08.12.15.25.36.49.62.67 5.53 4.01 11.13 7.94 16.78 11.78.03.02.06.05.1.07.02.01.05.02.07.03.81.49 1.95.1 2.41-.68 2.78-3.67 6.41-6.79 10.87-8.13 4.47-1.35 8.65-.58 12.37 1.91 8.44 5.64 10.8 16.82 10.71 26.31-.06 6.61-1.2 13.11-2.34 19.6-.17.96.26 1.95 1.27 2.23.87.24 2.05-.3 2.23-1.27.49-2.81.99-5.66 1.41-8.54l4.49.78 7.62 5.6 4.51 4.96c-.49 2.83-1.02 5.66-1.57 8.47l-.81 4.14c-.19.96.27 1.96 1.27 2.23.89.24 2.04-.3 2.23-1.27 2.28-11.57 4.57-23.22 4.81-35.04.23-10.67-1.32-21.49-5.73-31.27Z" style="fill:#cc9e40"/><g id="Layer_6"><path d="M173.29 195.36c.31-.23.54-.41.54-.41l-21.31-25.52s-10.28.13-14.86 0-68.43-7.3-68.43-7.3-13.34-1.79-14.29-2.12l-.6-.2c-.62-.96-1.24-1.93-1.85-2.9-1.24-1.97-4.37-.15-3.13 1.83 3.11 4.95 6.38 9.78 10.03 14.34 2.69 3.36 5.55 6.47 8.56 9.45 1.55 1.54 2.93 3.36 4.83 4.48 2.1 1.24 4.64 1.76 7.03 2.08h.07c11.78.93 23.54 2.04 35.28 3.37 10.44 1.18 20.86 2.51 31.29 3.8 7.16.89 14.32 1.74 21.48 2.57.08 0 .16-.03.24-.04.62.06 1.24.14 1.88.07.88-.1 1.71-.26 2.53-.56.45-.17.83-.4 1.09-.83.23-.39.32-.96.18-1.4-.1-.29-.34-.49-.55-.71Z" style="fill:#f75e28"/><path d="M191.86 103.33c.06-.28.07-.57.03-.87-.73-5.34-3.89-9.86-7.12-14.01s-6.68-8.52-10.43-12.4a58.794 58.794 0 0 0-7.04-6.25c-.78-.59-2.03-.12-2.48.65-.54.93-.13 1.89.65 2.48.94.71 1.84 1.46 2.72 2.23.17 1.67.38 3.8.51 5.34.25 2.91-3.36 29.9-4.42 34.37-1.06 4.47-5.1 34.98-6.05 41.93-.63 4.65-2.97 8.72-4.45 10.91-.64-.2-1.44 0-1.89.44-.76.76-.6 1.78 0 2.56 6.41 8.27 12.99 16.41 19.73 24.42-.31.55-.36 1.27 0 1.81.53.81 1.59 1.14 2.48.65 2.03-1.13 3.48-2.84 4.38-4.96.77-1.81 1.21-3.71 1.7-5.6.01-.04.03-.07.03-.11 1.85-10.42 3.71-20.86 5.36-31.31 1.42-8.96 2.65-17.94 3.77-26.93.79-6.33 1.53-12.66 2.26-19.01.41-2.11.49-4.24.23-6.36Z" style="fill:#f2a6b0"/><path d="M170.38 75.01c-.46-2.12-1.37-3.99-3.19-5.24-1.26-.86-2.91-1.15-4.38-1.44-1.43-.28-2.95-.57-4.44-.66-.04 0-.09-.02-.13-.02-11.5-1.33-22.99-2.79-34.47-4.26-9.77-1.25-19.55-2.44-29.35-3.42-6.89-.69-13.79-1.3-20.69-1.84-1.64-.25-3.25-.46-4.91-.2-1.38.21-2.7.81-3.82 1.65-2.5 1.89-3.95 4.68-4.67 7.69-.03.12-.04.24-.05.36-1.89 10.95-3.77 21.89-5.57 32.85-1.55 9.46-3.02 18.93-4.43 28.4-1.01 6.79-2 13.58-2.98 20.37-.01.08-.01.16-.02.23-.02.08-.03.16-.04.25h-.01c-.21 3.28.27 6.6 2.41 9.19 1.04 1.26 2.46 2 3.97 2.57 1.63.61 3.31.96 5.04 1.19h.07c11.78.93 23.54 2.04 35.28 3.37 10.44 1.18 20.86 2.51 31.29 3.8 7.16.89 14.32 1.74 21.48 2.57h.24c3.21.23 6.51-.87 8.65-3.38 2.03-2.39 2.65-5.57 3.42-8.52.02-.09.03-.17.04-.26 1.84-10.34 3.67-20.68 5.31-31.05 1.42-8.96 2.65-17.94 3.77-26.93.79-6.32 1.53-12.65 2.26-18.99.53-2.75.53-5.53-.08-8.26Z" style="fill:#ffd066"/><path d="M137.59 115.19c.08-.38.03-.8-.23-1.23-2.36-3.92-4.94-7.7-7.71-11.34.5-.32.8-.86.86-1.52.1-.93.19-1.87.28-2.79.09-.87.28-1.8.23-2.68-.08-1.28-.79-2.24-1.95-2.77-.86-.39-1.73-.77-2.59-1.16-.55-.25-1.04-.33-1.61-.09-.47.19-.97.64-1.05 1.18l-.35 2.37a118.61 118.61 0 0 0-7.09-7.32c-.95-.91-1.95-2.1-3.36-2.19-1.21-.08-2.21.57-3.21 1.16-1.16.69-2.32 1.4-3.47 2.13-4.32 2.73-8.52 5.65-12.58 8.76a174.72 174.72 0 0 0-13.23 11.23c-.64.61-.68 1.35-.37 1.95.08.24.21.46.41.64.38.35.77.46 1.28.53 2.44.33 4.88.64 7.33.97-.44 3.31-.82 6.63-1.13 9.95-.17 1.87-.33 3.74-.46 5.62-.12 1.62-.45 3.46.03 5.06 1.04 3.44 4.93 3.65 7.9 4.04 3.69.48 7.37.93 11.07 1.34 4.21.46 8.42.87 12.64 1.24.54.05 1.03-.24 1.37-.66.76-.1 1.45-.52 2.08-1.06 1.73-1.52 2.34-3.89 2.79-6.06 1.09-5.26 1.79-10.61 2.12-15.97 2.74.53 5.51.89 8.29 1.04.95.05 1.85-.87 1.81-1.81 0-.19-.05-.37-.1-.54v-.02Z" style="fill:#ff8000"/></g><g id="Layer_11"><path class="cls-1" d="M95.53 137.67c-2.97-.39-6.87-.6-7.9-4.04-.48-1.59-.15-3.43-.03-5.06.14-1.87.29-3.75.46-5.62.31-3.32.71-6.64 1.13-9.95-2.44-.33-4.88-.64-7.33-.97-.5-.07-.9-.18-1.28-.53-.19-.17-.32-.4-.41-.64-.3-.6-.27-1.35.37-1.95 4.21-3.97 8.63-7.71 13.23-11.23 4.05-3.11 8.25-6.04 12.58-8.76 1.15-.73 2.3-1.43 3.47-2.13.94-.56 1.89-1.16 3-1.16l.5-3.59s-37.02 26.31-38.81 27.17c-1.79.86 6.66 6.28 9.59 8.22 2.93 1.95-.65 20.14 0 21.11.65.98 20.72 3.74 20.72 3.74l.48-3.43c-3.26-.37-6.52-.76-9.78-1.18Z"/><path d="M106.36 88.93c-4.32 2.73-8.52 5.65-12.58 8.76a174.72 174.72 0 0 0-13.23 11.23c-.64.61-.68 1.35-.37 1.95.08.24.21.46.41.64.38.35.77.46 1.28.53 2.44.33 4.88.64 7.33.97-.44 3.31-.82 6.63-1.13 9.95-.17 1.87-.33 3.74-.46 5.62-.12 1.62-.45 3.46.03 5.06 1.04 3.44 4.93 3.65 7.9 4.04 3.26.43 6.52.82 9.78 1.18l7.52-53.22c-1.11 0-2.06.6-3 1.16-1.16.69-2.32 1.4-3.47 2.13Z" style="fill:#cc5e05"/></g><g id="Layer_7"><path class="cls-1" d="M184.44 136.55c.41 2.27 1.47 4.43 2.97 6.27.68-4.62 1.31-9.14 1.72-12.55.15-1.29.31-2.59.47-3.89-3.49 2.17-5.93 5.84-5.16 10.17ZM185.54 89.55c-1.79-2.37-3.8-4.83-5.82-7.42-5.8-7.46-12.1-12.18-12.1-12.18 3.33 2.84 3.49 9.01 3.17 12.18-.33 3.17-1.3 10.98-1.3 10.98l-.59 4.15c6.61.25 12.8-2.68 16.64-7.71ZM160.83 182.01c3.27 4.09 6.71 8.4 8.73 10.94.06-.19.13-.37.18-.57 1.51-6.32-5.1-7.35-8.91-10.36ZM157.44 170.7c1.11-3.41 3.5-6.02 3.74-9.73.12-1.91-.35-3.76-1.27-5.26-.82 4.43-1.56 8.22-1.96 9.64-1.22 4.3-5.43 6.25-5.43 6.25l5.49 6.88a10.395 10.395 0 0 1-.57-7.79Z"/><path class="cls-1" d="M172.08 137.63c-1.59-12.07 7.82-22.72 19.18-25.24.42-4.21.65-7.87.47-10.47-.02-.28-.06-.57-.1-.85-6.46 6.06-15.27 9.48-24.5 8.69l-3.61 25.46s-.46 2.73-1.11 6.54c3.78 1.82 7.02 4.84 8.94 8.65 2.27 4.48 2.7 9.5 1.85 14.4-.41 2.34-1.25 4.6-2.3 6.73-.04.08-.4.78-.77 1.48 1.23.62 3.04 1.72 3.33 1.88 2.1 1.25 3.87 2.91 5.31 4.88.85 1.16 1.56 2.41 2.11 3.71.98-5.71 3.31-19.7 3.31-19.7s.46-2.82 1.11-6.94c-6.95-3.99-12.09-10.84-13.19-19.23h-.02Z"/><path class="cls-5" d="M191.62 101.07c-.55-3.62-2.97-7.42-6.09-11.52-3.84 5.04-10.04 7.95-16.64 7.71l-1.77 12.5c9.23.79 18.05-2.63 24.5-8.69ZM172.08 137.63c1.11 8.39 6.24 15.24 13.19 19.23.62-3.93 1.41-9.04 2.14-14.05-1.5-1.83-2.57-4-2.97-6.27-.77-4.33 1.67-8 5.16-10.17.6-4.88 1.23-9.72 1.65-13.99-11.35 2.52-20.77 13.17-19.18 25.24ZM173.45 174.91c-.28-.17-2.1-1.26-3.33-1.88.37-.7.73-1.4.77-1.48 1.05-2.13 1.89-4.39 2.3-6.73.85-4.9.42-9.92-1.85-14.4-1.93-3.8-5.16-6.83-8.94-8.65-.7 4.05-1.63 9.34-2.47 13.94.91 1.5 1.39 3.35 1.27 5.26-.24 3.71-2.62 6.32-3.74 9.73-.85 2.61-.59 5.4.57 7.79.89 1.12 1.85 2.32 2.82 3.53 3.8 3.02 10.42 4.05 8.91 10.36-.05.2-.12.38-.18.57.76.95 1.33 1.67 1.6 2 1.92 2.41 2.67 1.88 2.67 1.88v.91s1.25-.57 2.01-1.19c2.31-1.9 4.03-7.42 4.77-11.56.07-.39.16-.89.26-1.49-.55-1.31-1.25-2.55-2.11-3.71-1.44-1.96-3.2-3.62-5.31-4.88Z"/></g><g id="Layer_10"><path class="cls-7" d="M62.58 25.16c-2.51-.08-4.98-.52-7.37-1.31-2.18-.72-3.82-1.92-5.04-3.87-2.54-4.07-4.05-9.05-3.96-13.85.02-1.1-.77-1.67-1.63-1.74-.16-.05-.33-.08-.5-.08-.92 0-1.89.83-1.81 1.81.4 5.05-.3 10.29-3.36 14.46a13.492 13.492 0 0 1-4.82 4.09c-2.32 1.16-4.99 1.52-7.56 1.74-.98.08-1.81.77-1.81 1.81 0 .36.13.73.35 1.04.15.52.53.96 1.2 1.15 2.79.76 5.76 1.53 7.95 3.52 2.01 1.83 3.45 4.26 4.63 6.68 2.41 4.97 3.71 10.66 3.45 16.19-.01.13 0 .26.02.39.1.66.53 1.07 1.07 1.25.24.1.48.17.72.17.64 0 1.11-.3 1.42-.75s.06-.08.08-.12c.17-.26.29-.57.31-.95 1.25-11.18 6.09-22.85 16.72-28.04 2.26 0 2.23-3.54-.07-3.62Zm-17.86-8.07.03.09h-.07l.03-.09ZM31.64 84.73c-3.29.28-6.47-1-8.72-3.49-2.71-3-2.66-7.28-3.37-11.06-.14-.75-.86-1.24-1.6-1.31-.32-.08-.65-.1-.95-.02-1.04.28-1.41 1.26-1.27 2.23.5 3.38-.03 7.02-1.92 9.91-1.65 2.52-4.49 4.36-7.53 4.48h-.01c-.97-.14-1.94.24-2.23 1.27-.24.85.29 2.09 1.27 2.23.16.02.31.06.47.08l.17.03c7.53 1.5 9.32 10.14 10.05 16.89-.15 1.07-.28 2.36.28 3.13.35.48.91.98 1.56.9.79-.1 1.27-.34 1.73-1 .23-.33.29-.75.23-1.16v-.08c-.06-.68-.12-1.37-.19-2.06.15-1.4.49-2.81.84-4.08.58-2.12 1.43-4.14 2.61-6 2.01-3.2 5.01-5.87 8.57-7.2.08-.03.16-.07.24-.11.87-.16 1.58-.82 1.58-1.78s-.83-1.9-1.81-1.81Z"/></g></svg>