<?xml version="1.0" encoding="UTF-8"?><svg id="Illustration" xmlns="http://www.w3.org/2000/svg" viewBox="0 0 200 200"><defs><style>.cls-1{fill:#c8a48a;}.cls-2{fill:#7fb963;}.cls-3{fill:#e37d3a;}.cls-4{fill:#9c8275;}.cls-5{fill:#c9909c;}.cls-6{fill:#e8a1ad;}.cls-7{fill:#f2ca7a;}.cls-8{fill:#fff;}.cls-9{fill:#e2dfdb;}.cls-10{fill:#f5c045;}.cls-11{fill:#c69842;}.cls-12{fill:#9ec458;}</style></defs><path class="cls-5" d="M175.13,131.99c-3.84-4.06-24.33-21.67-26.47-21.15-2.54.64-5.11,1.2-7.66,1.82-.11.05-.14.08-.21.12-.02,0-.04,0-.04,0l-.88.21c-2.73.65-6.09,1.5-8.81,2.11-1.16.22,3.66-2.44,2.49-2.33l-33.8,2.49c-.31.15,1.67,10.14,9.91,8.29.93.5,5.55,8.15,14.77,4.26,4.16,4.55,7.91,8.55,16.92,4.88,1.62,1.8,5.18,7.64,17.57,5.56,5.93,6.26,14.76,2.27,14.76,2.27,2.66,2.84,8.75.64,9.16-1.45,0,0-3.86-3.02-7.7-7.1ZM116.21,127.34h0s0,0,0,0c0,0,0,0,0,0,.06.01.11.03.16.05l-.12.06s-.03-.07-.04-.11h0s0,0,0,0ZM116.31,127.36s-.03,0-.04-.01c.02,0,.03,0,.04.01ZM140.81,112.78h0s.01,0,0,0Z"/><path class="cls-10" d="M42.49,186.61c9.19-11.04,42.44-46.64,95.86-29.08,17.41,5.72,33.46,14.72,46.13,26.91.65.62,1.06,1.38-.02,2.51-1.29,1.35-58.24-1.5-77.77-1.08-19.53.41-39.51.3-59.11,1.19-1.47.07-5.98.44-5.09-.44"/><path class="cls-4" d="M86.12,108.28c11.09,25.53,11.63,28.3,16.17,62.73.21,1.63-16.85.62-16.75-.09,1.67-11.37-.14-25.89-2.23-37.2-4.61-24.99-16.23-45.91-18.78-48.96-.15-2.82-.64-8.41-.64-8.41,4.52,1.37,21.63,30.54,22.23,31.92Z"/><path class="cls-1" d="M86.3,108.7c-.6-1.38-6.12-10.92-9.06-15.18,0,0,8.54,12.49,8.65,16.26.13,4.69-4.53,3.55-4.53,3.55,4.82,9.96,10.2,30.33,10.79,58.43,0,.13,4.7-.02,4.69.12,3.06-.01,5.53-.25,5.45-.88-4.53-34.44-4.9-36.78-15.99-62.31Z"/><path class="cls-12" d="M96.76,20.87c-.69.91-4.94,6.94-2.89,6.96.77,0,1.72-.97,1.99-1.2,1.36-1.21,2.62-3.12,4.85-2.42.54.46,3.03,1.21.77,5.47-.94,1.76-11.59,7.55-10.46,9.53.78,1.36,4.24-3.49,6.05-1.67.59.72.81,1.63-.22,2.96-2.96,3.82-21.66,12.67-19.61,18.45,1.19,3.36,9.04-9.22,12.06-7.61,1.32.7-1.45,3.72-.73,4.82,2.46,3.73,8.96-12.48,13.22-10.79,3.59,1.43-.11,5.57,1.18,6.42,4.14,2.73,12.59-13.06,16.82-10.48,2.2,1.34-3.61,7.47-2.01,8.95s10.76-3.41,12.57.21c1.88,3.74-12.36,4.66-11.38,6.93.53,1.23,8.35,2.25,7.78,4.92-.98,4.66-20.53-3.97-21.31,1.08-.27,1.74,7.13,3.42,6.47,6.15-2.06,8.59-28.14-8.38-34.54,5.4-1.06,2.29,1.63.59,2.41.29,1.6-.6,12.97-5.23,14.18-2.98,1.48,2.74-3.68,2.52-2.65,4.96.9,2.78,13.3-5.26,15.31-2.57s-3.04,3.34-1.45,6.12c.67,1.18,11.09-2.93,12.79,2.1,1.07,3.16-6.78.92-7.74,4.36-.37,1.33,14.97,2.8,13.17,7.74-.96,2.64-10.41-2.33-12.21-.4-1.98,2.13,8.71,4.57,5.96,8.4-1.62,2.26-9.32-6.13-13.13-4.96-2.22.68,3.08,4.75.9,6.2-3.48,2.32-7.92-8.93-11.19-7.91-1.45.45,3.96,5.73.58,7.31-3.37,1.58-7.06-11.85-8.9-11.55-2.83.46,2,4.37-.47,5.31-3.17,1.21-6.68-7.02-8.85-5.6-1.79,1.17,8.31,10.65,3.4,16.64-2.47,3-6.67-1.03-6.89,1.28.24,1.68,7.08,10.75,5.52,12.4-2.14,2.27-4.91-4.78-5.94-3.68-2.89,3.07,5.19,15.46,1.14,16.64-1.48.43-1.73-4.86-3.22-5.28-.16-.05-.51.17-.6.31-1.92,3.03,1.97,12.7-2.82,13.28-5.38.65-2.18-17.56-3.54-18.28-2.56-1.34-.28,7.67-3.76,7.67-4.75,0,1.82-14.31,0-16.48-1.04-1.23-2.34,5.93-5.19,3.76-3.88-2.95,4.57-12.3,3.99-13.52-1.2-2.51-2.61,3.61-4.11,1.77-1.2-1.48,2.85-7.3,1.49-9.26-1.06-.28-1.49.38-1.88,1.3-.73,1.72-1.35,7.66-2.65,8.86-1.76,1.63-2.25-4.57-3.57-3.44-1.65,1.43,1.74,20.43-2.85,20.87-2.09.2.11-7.95-2.51-8.27-3.25-.4-2.58,15.7-5.93,15.45-4.83-.36,1.54-19.16-.4-20.3-1.54-.91-5.47,4.62-6.79,2.22-1.81-3.31,7.97-9.94,5.93-12.66-1.09-1.46-6.68.55-7.07-.8-1.24-4.31,14.94-6.73,15.23-9.18-.17-2.45-4.11-1.82-3.65-4.28.7-3.76,17.63-4.22,16.77-8.1-.74-3.31-12.17,5.35-13.26,2.74-.54-1.94,3.51-3.31,2.05-4.73-2.37-.94-8.05,8.14-9.67,10.81-.73,1.21-1.89,2.44-3.25,3.25-4.59,1.37-.81-4.57-1.79-5.26-2.71-1.07-6.65,12.16-9.75,10.39-1.88-1.07-3.51-2.31,5.57-13.21.43-.51.57-1.03-.07-1.43-.56.03-.93.37-1.36.61-.75.41-7.83,5.51-9.88,2.8-4.42-5.83,8.41-9.71,8.11-10.97-.51-2.14-8.34,2.59-8.57-1.82-.08-1.64,2.09-3.86,3.37-4.86,4.96-3.87,11.85-1.26,11.8-3.95.08-1.29-6.42.16-6.05-3.57.12-1.18.89-1.99,1.23-2.31,4.67-4.28,13.95-.05,14.52-1.08.82-1.47-4.54-3.12-4.57-4.91.11-2.17,1.17-2.49,3.49-2.64,7.99-.53,15.86,12.01,17.35,13.12.4.3,1.91-.11,1.28-2.16-.63-1.74-7.76-9.92-4.39-12.46,3.54-2.67,7.04,6.07,8.33,5.42,1.91-.98-6.13-17.34-1.8-18.33,4.53-1.04,4.93,7.37,7.61,6.56,1.37-.42.64-2.57.57-3.67-.16-2.56-.61-11.47,4.1-11.23,2.37.12.95,4.21,2.26,4.87,1.37.31,1.66-.79,2.12-1.82.62-1.38,1.49-5.78,3.35-7.71,1.07-1.11,3.11-2.12,4.52-.92s-2,5.18-.01,5.12,7.95-11.22,9.71-13.31c.6-.71,3.94-5,6.84-2.9,1.53,1.11.97,4.34.44,5.02-1.22,1.57-2.47,3.14-3.64,4.69Z"/><path class="cls-2" d="M64.55,71.66c1.9.32,13.08-.08,13.52-5.25.25-2.87,4.57-2.18,4.82-4.74.3-2.99-4.59-.82-5.28-2.23-2.98-6.1,16.27-15.13,19.22-18.95,1.03-1.33.81-2.24.22-2.96-1.82-1.82-5.27,3.03-6.05,1.67-1.13-1.98,9.52-7.77,10.46-9.53,2.26-4.25-.23-5-.77-5.47-2.23-.7-3.49,1.22-4.85,2.42-.26.23-1.21,1.21-1.99,1.2-2.04-.02,2.2-6.05,2.89-6.96,1.17-1.55,2.42-3.12,3.64-4.69.53-.69,1.09-3.92-.44-5.02-2.9-2.1-6.24,2.19-6.84,2.9-1.76,2.09-7.68,13.25-9.71,13.31-1.99.06,1.41-3.93.01-5.12-1.41-1.2-3.45-.18-4.52.92-1.86,1.93-2.73,6.32-3.35,7.71-.46,1.03-.75,2.13-2.12,1.82-1.32-.66.11-4.75-2.26-4.87-4.7-.24-4.26,8.68-4.1,11.23.07,1.1.79,3.26-.57,3.67-2.68.81-3.09-7.6-7.61-6.56-4.33,1,3.71,17.36,1.8,18.33-1.28.66-4.79-8.09-8.33-5.42-3.36,2.54,3.76,10.72,4.39,12.46.14.46,4.46,9.56,7.8,10.12Z"/><path class="cls-2" d="M110.22,87.24c.96-3.44,8.81-1.2,7.74-4.36-1.7-5.03-12.12-.92-12.79-2.1-1.58-2.78,3.36-3.56,1.45-6.12-2.01-2.69-14.41,5.35-15.31,2.57-1.03-2.44,4.13-2.22,2.65-4.96-1.21-2.25-12.67,2.1-13,.29-.46-2.51,2.93-1.28,3.19-3.59.34-2.97-8.63-1.1-5.42-4.35,2.59-2.62-9.39-.01-11.38,1.67-.9.76-4.08,18-3.62,19.08.9,2.1,2.32,3.98,3.83,5.67.96,1.07,1.99,2.05,3.11,2.94.73.58,1.49,1.13,2.29,1.62.69.42,1.44.84,2.24.99.55.1,1.06-.01,1.26-.58.2-.6.05-1.21-.15-1.78-.2-.61-.42-1.21-.45-1.86,0-.05,0-.09,0-.13,0-.05,0-.09,0-.14,0-.11.06-.18.13-.23.03-.03.05-.06.09-.09,2.17-1.42,5.68,6.82,8.85,5.6,2.47-.94-2.36-4.85.47-5.31,1.84-.3,5.52,13.13,8.9,11.55,3.38-1.58-2.04-6.86-.58-7.31,3.27-1.01,7.71,10.23,11.19,7.91,2.18-1.45-3.12-5.52-.9-6.2,3.81-1.17,11.51,7.22,13.13,4.96,2.75-3.83-7.95-6.27-5.96-8.4,1.8-1.92,11.25,3.04,12.21.4,1.8-4.94-13.54-6.41-13.17-7.74Z"/><path class="cls-2" d="M55.56,99.04c.16.23.24.53.27.86-.04-.28-.06-.56-.07-.83,0-.39.6-.39.61,0,0,.69.16,1.38.4,2.03.2.53.48,1.14.95,1.49,1,.75,1.58-1.42,1.69-2.05.19-1.16.02-2.36-.09-3.52-.11-1.11-.21-2.29.12-3.37.35-1.17,1.21-2.01,2.29-2.54.15-.08.32-.04.41.11.42.63.72,1.34,1.03,2.03.4.9.79,1.8,1.2,2.69.35.75.73,1.5,1.18,2.2.28.43.65.99,1.16,1.19.41.16.77-.16,1.02-.54.57-.85.93-1.96,1.08-2.96.33-2.28-.62-4.43-.93-6.65-.14-.97-.13-1.97.26-2.89.48-1.13,1.44-1.93,2.47-2.54.12-.07.27-.05.37.05.41.41.8.84,1.24,1.22.38.32.85.64,1.37.59.59-.05,1.2-.53,1.52-1.01.47-.71-.33-1.34-.8-1.8-1.56-1.52-2.2-3.74-2.5-5.85-.17-1.19-.22-2.38-.22-3.58,0-1.07.01-2.15.16-3.21.14-.97.38-1.92.53-2.89.13-.86.2-1.79-.14-2.61-.4-.97-1.38-1.56-2.35-1.84-.98-.28-1.99-.16-2.93.21-1.96.77-9.93-.97-8.98.86,1.11,2.14,1.11,4.73-.56,6.18-1.77,1.55-9.41,1.5-9.28,3.16.21,2.82,6.92,2.31,8.53,2.47.8.08,2.45.26,2.47,1.37,0,.56-.43,1.06-.81,1.43-.72.71-2.27,1.31-2.07,2.21.87,3.87-16.07,4.34-16.77,8.1-.46,2.45,3.48,1.82,3.65,4.28-.29,2.45-16.47,4.87-15.23,9.18.39,1.35,5.98-.67,7.07.8,2.04,2.72-7.74,9.35-5.93,12.66,1.31,2.4,5.25-3.13,6.79-2.22,1.94,1.14-4.43,19.95.4,20.3,3.35.25,2.68-15.85,5.93-15.45,2.62.32.42,8.47,2.51,8.27,4.59-.45,1.2-19.45,2.85-20.87,1.32-1.13,1.81,5.07,3.57,3.44,1.3-1.2,1.91-7.14,2.65-8.86.39-.92.83-1.58,1.88-1.3Z"/><path class="cls-3" d="M138.71,125.87c-.78,2.84-1.7,5.64-2.52,8.47-1.26,4.36-2.36,8.74-3.35,13.18-.38,1.71-.76,3.41-1.1,5.13-.32,1.61-.69,3.23-.97,4.85-.66,3.84-1.14,7.74-1.6,11.61-.05.39-.22.79-.1,1.24.58.01,2.51.34,3.19.19.45-5.8,1.77-20.84,9.4-44.14-.27-.14-2.7-.37-2.96-.52Z"/><path class="cls-9" d="M114.6,179.47l.14-.14c-.07.02-.11.13-.14.14Z"/><path class="cls-6" d="M182.83,139.09l-.14-.49-.03-.1s-.08-.08-.08-.08c-5.32-5.7-10.85-11.78-16.19-17.46-3.84-4.06-10.44-11.29-14.36-15.12-.7-.7-1.4-1.41-2.05-2.16,0,0-.06,0-.12,0-.04-.1-.12-.2-.2-.24-.2-.13-.44-.07-.63,0h-.03s-.02.01-.03.01l-.11.02c-2.17.36-4.32.9-6.45,1.42-2.54.64-5.11,1.2-7.66,1.82-.11.05-.14.08-.21.12-.02,0-.04,0-.04,0l-.88.21c-2.73.65-6.09,1.5-8.81,2.11-1.16.22-2.34.62-3.51.73h-.05c-.31.15-.64.3-.97.4-.24.07-1.38.35-1.66.41-5.97,1.45-12.95,2.96-18.87,4.56,0,0,0,0,0,0h0s0,0,0,0c0,0,0,0,0,0,0,0,0,0,0,0,0,0,0,0,0,0,.52,1.27,1.6,2.2,2.47,3.21.93.5,1.68,1.35,2.66,1.86,1.74.9,3.69,1.56,5.66,1.74.3.15,2.84-.03,3.91-.36.6-.04,1.24-.22,1.89-.46,4.16,4.55,10.78,6.78,16.8,5.05,1.62,1.8,3.41,3.6,5.64,4.69.22.11.76.38.98.48.55.23,1.13.44,1.7.61.45.14.9.26,1.38.35,1.08.37,2.2.54,3.31.62.81.06,1.69.04,2.51.04.27.02.68.04.94-.16,1.04-.07,2.09-.27,3.08-.63,3.26,4.46,9.16,5.05,14.33,4.81.8-.04,2.23-.41,3.04-.33.18.15.36.31.55.45,3.45,2.31,7.85,3.1,11.92,2.36l.44-.08-.12-.43ZM109.97,121.4h0s0,0,0,0c0,0,0,0,0,0,.06.01.11.03.16.05l-.12.06s-.03-.07-.04-.11h0s0,0,0,0ZM110.07,121.42s-.03,0-.04-.01c.02,0,.03,0,.04.01ZM134.57,106.83h0s.01,0,0,0Z"/><path class="cls-11" d="M111.73,170.42c3.4-.33,6.79-.66,10.19-.99,6.3-.61,13.04.62,18.93,2.93"/><path class="cls-8" d="M151.93,106.83c.22.22.48.62.66.88,2.28,3.32,4.4,6.76,6.52,10.18,2.81,4.62,5.78,9.46,8.43,14.16.91,1.57,1.88,3.16,2.69,4.79-5.15-7.96-10.25-16.1-14.98-24.31-.55-.94-1.65-2.86-2.19-3.81,0,0-.55-.95-.55-.95-.14-.23-.4-.72-.58-.93h0Z"/><path class="cls-8" d="M152.44,131.99c-1.28-8.81-2.14-17.8-2.55-26.7,1.28,8.81,2.13,17.8,2.55,26.7h0Z"/><path class="cls-8" d="M148.33,105.06c-4.55,7.26-9.52,14.38-14.78,21.14,4.54-7.26,9.52-14.37,14.78-21.14h0Z"/><path class="cls-8" d="M116.17,121.08c3.66-1.74,7.04-3.98,10.62-5.86.92-.52,1.95-1.1,2.9-1.58,5.33-2.83,12.16-6.62,17.55-9.28-7.24,4.45-15.52,8.98-23.11,12.89-2.6,1.37-5.19,2.8-7.96,3.82h0Z"/><path class="cls-5" d="M174.21,110.02c.31,0,.31-.48,0-.48s-.31.48,0,.48h0Z"/><path class="cls-7" d="M133.94,173.52c.06.15.15.03.18.04l-.18-.04Z"/></svg>