<svg id="Illustration" xmlns="http://www.w3.org/2000/svg" viewBox="0 0 200 200"><defs><clipPath id="clippath"><path class="cls-2" d="M-58.23 196.28h-119.64c-6.22 0-11.14-1.84-11.14-17.26v-71.68h141.16l.72 79.22c0 5.36-5.73 9.71-11.09 9.71Z"/></clipPath><clipPath id="clippath-1"><path class="cls-2" d="m-33.95 109.11-168.02.58-1.66-38.53c0-5.99 3.64-12.91 11.12-12.52l146.87-.91c5.99 0 11.19 5.81 11.19 11.81l.5 39.58Z"/></clipPath><clipPath id="clippath-2"><rect class="cls-2" x="25.69" y="42.38" width="153.84" height="113.29" rx="8.73" ry="8.73"/></clipPath><clipPath id="clippath-3"><path class="cls-2" d="M80.96 195.16H17.65V84.64s9.43-2.16 16.16 3.85 47.15 53.1 47.15 53.1v53.58Zm44.49 0h63.31V84.64s-9.43-2.16-16.16 3.85-47.15 53.1-47.15 53.1v53.58Zm0-53.58H80.96v53.58h44.49v-53.58Z"/></clipPath><clipPath id="clippath-4"><path class="cls-2" d="M189.82 197.38H18.59s31.28-34.79 46.38-48.92c4.08-3.82 9.73-5.91 15.58-5.76s46.08-.2 46.08-.2h.31c5.76 0 11.26 2.16 15.21 5.97 14.65 14.13 47.66 48.91 47.66 48.91Z"/></clipPath><style>.cls-2{fill:none}.cls-10,.cls-11,.cls-12,.cls-14,.cls-16,.cls-2,.cls-6,.cls-8{stroke-width:0}.cls-6{fill:#b4cacc}.cls-8{fill:#f5c143}.cls-10{fill:#e5b342}.cls-11{fill:#ffcf66}.cls-12{fill:#ffb2c1}.cls-14{fill:#f2a6b0}.cls-16{fill:#f6c243}</style></defs><g style="clip-path:url(#clippath)"><rect class="cls-12" x="-5.62" y="181.84" width="9.37" height="23.22" rx="4.52" ry="4.52"/><rect class="cls-12" x="-5.62" y="181.84" width="9.37" height="23.22" rx="4.52" ry="4.52" transform="rotate(90 -.935 193.455)"/><rect class="cls-12" x="-5.62" y="96.5" width="9.37" height="23.22" rx="4.52" ry="4.52"/><rect class="cls-12" x="-5.62" y="96.5" width="9.37" height="23.22" rx="4.52" ry="4.52" transform="rotate(90 -.935 108.115)"/></g><g style="clip-path:url(#clippath-1)"><rect class="cls-12" x="-3.26" y="97.55" width="9.37" height="23.22" rx="4.52" ry="4.52"/><rect class="cls-12" x="-3.26" y="97.55" width="9.37" height="23.22" rx="4.52" ry="4.52" transform="rotate(90 1.425 109.155)"/><rect class="cls-12" x="56.95" y="77.56" width="9.37" height="23.22" rx="4.52" ry="4.52"/><rect class="cls-12" x="56.95" y="77.56" width="9.37" height="23.22" rx="4.52" ry="4.52" transform="rotate(90 61.635 89.165)"/><rect class="cls-12" x="33.55" y="97.55" width="9.37" height="23.22" rx="4.52" ry="4.52"/><rect class="cls-12" x="33.55" y="97.55" width="9.37" height="23.22" rx="4.52" ry="4.52" transform="rotate(90 38.24 109.16)"/><rect class="cls-12" x="56.95" y="120.83" width="9.37" height="23.22" rx="4.52" ry="4.52"/><rect class="cls-12" x="56.95" y="120.83" width="9.37" height="23.22" rx="4.52" ry="4.52" transform="rotate(90 61.635 132.435)"/><rect class="cls-12" x="82.49" y="97.55" width="9.37" height="23.22" rx="4.52" ry="4.52"/><rect class="cls-12" x="82.49" y="97.55" width="9.37" height="23.22" rx="4.52" ry="4.52" transform="rotate(90 87.18 109.16)"/><rect class="cls-12" x="14.94" y="71.71" width="9.37" height="23.22" rx="4.52" ry="4.52"/><rect class="cls-12" x="14.94" y="71.71" width="9.37" height="23.22" rx="4.52" ry="4.52" transform="rotate(90 19.625 83.315)"/><rect class="cls-12" x="14.94" y="126.5" width="9.37" height="23.22" rx="4.52" ry="4.52"/><rect class="cls-12" x="14.94" y="126.5" width="9.37" height="23.22" rx="4.52" ry="4.52" transform="rotate(90 19.63 138.11)"/></g><path class="cls-14" d="M188.89 86.75c-.09-4.48-2.01-8.79-4.21-12.61-2.92-5.06-6.63-9.66-10.52-14-9.36-10.44-20.14-19.62-31.25-28.13-5.28-4.05-10.68-7.94-16.23-11.61-2.99-1.98-5.98-3.93-9.28-5.35a37.3 37.3 0 0 0-11.98-2.96c-8.3-.62-16.59 1.74-23.65 6.06-5.34 3.26-10.44 6.94-15.41 10.74-11.04 8.45-21.55 17.72-30.95 27.97-4.11 4.47-8.03 9.16-11.4 14.22-2.53 3.8-4.94 7.98-5.94 12.48-.45 2.04-.47 4.14-.42 6.23.22 40.05 9.39 74.22 9.39 74.22l161.67.09v-1.67c.08-.14.13-.3.13-.5 0-7.68 0-15.35.01-23.03 0-8.03 0-16.06.01-24.08v-14.05c0-4.66.1-9.34 0-14Z"/><path d="M72.61 66.19c1.54-3.8 3.43-7.48 5.71-10.89.5-.74 1.02-1.47 1.56-2.19.29-.39 1.03-1.3 1.56-1.9 1.1-1.26 2.28-2.46 3.53-3.56.29-.25.58-.5.88-.74.15-.12.29-.24.44-.36.49-.39-.33.24.17-.13.64-.48 1.29-.94 1.96-1.36 1.24-.79 2.54-1.48 3.88-2.09.07-.03.6-.25.13-.06.16-.06.32-.13.48-.19.32-.12.64-.24.96-.35a27.58 27.58 0 0 1 3.9-1.03c.33-.06.66-.11.98-.17.09-.02.65-.08.1-.02.22-.03.44-.05.66-.08 1.38-.14 2.77-.18 4.16-.11.67.03 1.34.08 2.01.16l.5.06c-.55-.07.02 0 .11.02.39.06.78.13 1.17.2 1.41.27 2.81.63 4.17 1.06.67.22 1.33.45 1.99.7.33.13.66.26.99.4-.45-.19.1.04.16.07.22.1.44.19.66.29 2.77 1.27 5.4 2.83 7.86 4.61l.93.69c.02.02.53.41.19.15.15.12.31.24.46.36a56.913 56.913 0 0 1 5.62 5.11c2.82 2.91 5.02 5.66 7.21 8.91 2.31 3.43 4.32 7.06 6.03 10.82.47 1.03 1.96 1.28 2.87.75 1.06-.62 1.22-1.83.75-2.87-3.13-6.88-7.28-13.31-12.35-18.93-4.54-5.03-9.93-9.46-15.99-12.52-5.5-2.78-11.65-4.51-17.85-4.25-6.22.26-12.18 2.49-17.12 6.27-6.24 4.79-10.74 11.46-13.98 18.56-.53 1.15-1.02 2.32-1.5 3.49-.43 1.05.46 2.3 1.46 2.58 1.2.33 2.15-.41 2.58-1.46Z" style="fill:#f8bfb7;stroke-width:0"/><path d="M10.52 12.54c.46-1.42 2.48-1.91 3.02-.26.38 1.17-.84 2.36-1.29 3.37-.83 1.89-.85 4.18.31 5.95 1.05 1.6 3.02 2.57 4.93 2.28 1.06-.16 1.88-.7 2.79-1.21 1.7-.95 3.3.13 2.53 2.19-.72 1.93-2.4 2.89-2.44 5.17-.03 1.86.82 3.71 2.21 4.94 3.2 2.82 7.97 1.18 9.98-2.18 1.29-2.16-2.08-4.12-3.37-1.97-1.21 2.03-5.24 2.36-4.92-.79.11-1.11 1.16-1.84 1.71-2.75s.92-2.02.96-3.1c.2-4.87-4.73-7.15-8.64-4.88-.6.35-1.28.97-2.07.57-.85-.43-.72-1.77-.48-2.46.38-1.11 1.24-1.98 1.57-3.13.51-1.79-.02-3.77-1.23-5.16-2.98-3.42-8.08-1.58-9.36 2.39-.77 2.4 3 3.42 3.76 1.04Z" style="fill:#f75e2b;stroke-width:0"/><rect x="25.69" y="42.38" width="153.84" height="113.29" rx="8.73" ry="8.73" style="fill:#c1dade;stroke-width:0"/><g style="clip-path:url(#clippath-2)"><path class="cls-6" d="M195.55 166.91c4.91-3.82-1.8-98.03-2.01-131.19-.08-13.41-83.75-7.3-96.93-4.81 0 0 60.67 5.39 68.84 53.7 8.05 47.58-27.87 84.69-27.87 84.69l57.96-2.39Z"/><path class="cls-6" d="M3.81 49.86C1.16 55.49 44.82 154.29 60 183.77c6.14 11.93 86.12-35.93 96.75-44.12 0 0-57.47 15.51-86.62-23.88-28.71-38.79-19.49-92.15-19.49-92.15L3.81 49.86Z"/></g><path d="M135.04 91.57c-.15-3.26-1.38-6.44-3.46-8.96-.54-.73-.99-1.51-1.37-2.32-.27-.94-.45-1.9-.53-2.75-.08-3.25-1.19-6.33-3.2-8.91l-.25-.27c-2.42-2.19-5.43-3.5-8.54-3.81-.97-.16-1.91-.41-2.84-.75-.81-.44-1.57-.96-2.18-1.48a15.289 15.289 0 0 0-8.74-4.12h-.35c-3.28.14-6.49 1.39-8.92 3.43-.73.54-1.53 1.01-2.37 1.39-.94.27-1.9.45-2.75.53-3.25.08-6.33 1.19-8.91 3.2l-.27.25c-2.19 2.42-3.5 5.43-3.81 8.54-.16.97-.41 1.94-.75 2.84-.44.81-.96 1.55-1.48 2.18a15.289 15.289 0 0 0-4.12 8.74v.37c.13 3.28 1.39 6.49 3.43 8.92.54.73 1.01 1.53 1.39 2.37.27.94.48 1.9.53 2.75.08 3.25 1.21 6.35 3.2 8.91l.25.27c2.42 2.19 5.43 3.5 8.54 3.81.97.16 1.91.41 2.84.75.81.44 1.57.96 2.16 1.48 2.37 2.27 5.48 3.74 8.74 4.12h.37c3.28-.16 6.49-1.39 8.92-3.43.73-.54 1.53-1.01 2.37-1.39.94-.27 1.9-.45 2.75-.53a14.96 14.96 0 0 0 8.91-3.2l.27-.25c2.19-2.42 3.5-5.43 3.81-8.54.16-.97.41-1.91.75-2.84.44-.81.96-1.57 1.48-2.18 2.27-2.37 3.74-5.48 4.12-8.74v-.37Z" style="fill:#ff8000;stroke-width:0"/><path d="M120.25 84.36c-.3-.38-.82-.48-1.3-.55-1.75-.26-3.8-.58-5.8-.8l-3.11-.51-.97-1.54c-.37-.8-.75-1.63-1.1-2.41-.88-1.99-1.7-4.06-3.13-5.7-.17-.2-.39-.4-.65-.38-.18.02-.33.14-.46.27-1.13 1.08-1.95 2.44-2.75 3.79L98.31 81c-.58.75-1.04 1.35-1.3 1.7-2.91-.18-5.83-.17-8.74.06-.48.04-1.01.1-1.33.46-.47.53-.23 1.37.15 1.97.7 1.08 1.78 2.17 2.95 3.17 1.27 1.09 2.09 1.87 3.13 2.7l.79.95c-1.18 3.46-2.35 6.94-3.05 10.52-.16.84-.22 1.89.49 2.37.65.43 1.51.1 2.2-.26 2.52-1.33 5.99-3.21 8.44-5.04l1.06-.53 1.01.61c2.33 2.07 5.66 4.43 8.08 5.93.66.41 1.5.8 2.18.41.74-.43.76-1.48.65-2.33-.45-3.65-1.39-7.21-2.33-10.76s3.82-3.42 3.82-3.42c.1-.07.18-.14.28-.22 1.06-.79 2.04-1.65 2.79-2.53l.51-.46c.27-.32.37-.7.33-1.06.05-.31 0-.62-.19-.87Z" style="fill:#fafafa;stroke-width:0"/><path d="m101.68 125.56-.67-.03c-3.78-.43-7.38-2.12-10.15-4.75-.41-.36-.94-.72-1.51-1.04-.69-.24-1.41-.43-2.14-.56-3.63-.37-7.13-1.94-9.88-4.43l-.55-.59c-2.33-3-3.62-6.56-3.73-10.32-.04-.54-.17-1.23-.39-2-.28-.59-.62-1.17-1.01-1.7-2.39-2.88-3.8-6.55-3.97-10.34v-.1l.03-.67c.43-3.76 2.11-7.35 4.72-10.12a11 11 0 0 0 1.08-1.57c.23-.66.42-1.39.55-2.13.37-3.62 1.94-7.13 4.43-9.88l.59-.55c2.98-2.33 6.54-3.61 10.29-3.73.63-.06 1.34-.2 2.03-.39.59-.28 1.16-.62 1.7-1.01 2.88-2.39 6.55-3.8 10.34-3.97h.1l.64.03c3.77.43 7.36 2.11 10.13 4.74.44.37.98.74 1.54 1.06.7.24 1.42.43 2.14.56 3.63.37 7.13 1.94 9.88 4.43l.55.59c2.33 2.98 3.61 6.54 3.73 10.29.06.63.2 1.33.39 2.02.3.61.63 1.16 1 1.68a17.76 17.76 0 0 1 3.98 10.38v.1l-.03.67c-.43 3.77-2.11 7.36-4.74 10.13-.37.45-.74.99-1.06 1.54-.24.69-.43 1.41-.56 2.14-.37 3.62-1.94 7.13-4.43 9.88l-.58.54a17.346 17.346 0 0 1-10.3 3.73c-.63.06-1.34.2-2.03.39-.59.28-1.17.62-1.7 1.01-2.85 2.36-6.51 3.77-10.33 3.97h-.11Zm-.2-5.01h.15c2.69-.16 5.36-1.19 7.34-2.85l.13-.1c.88-.65 1.82-1.2 2.81-1.65l.35-.13c1.08-.31 2.19-.53 3.21-.62h.17c2.69-.08 5.23-.98 7.35-2.62l.11-.1c1.75-1.97 2.85-4.46 3.1-7.03l.02-.17c.19-1.11.48-2.21.86-3.27l.15-.34c.51-.94 1.13-1.84 1.78-2.61l.1-.11c1.88-1.97 3.1-4.52 3.43-7.2v-.16a12.75 12.75 0 0 0-2.88-7.39l-.09-.11c-.62-.84-1.15-1.74-1.62-2.74l-.14-.37a17.44 17.44 0 0 1-.62-3.21v-.17c-.08-2.67-.98-5.21-2.62-7.35l-.1-.1c-1.97-1.75-4.46-2.85-7.03-3.1l-.17-.02a19.8 19.8 0 0 1-3.28-.86l-.34-.15c-.94-.51-1.85-1.13-2.61-1.78l-.11-.1c-1.97-1.88-4.52-3.1-7.21-3.43h-.14c-2.66.14-5.33 1.17-7.33 2.85l-.13.1c-.88.64-1.82 1.2-2.8 1.65l-.35.13c-1.08.31-2.19.53-3.21.62h-.17c-2.67.08-5.21.98-7.35 2.62l-.1.1c-1.75 1.97-2.85 4.46-3.1 7.03l-.02.17c-.19 1.15-.49 2.26-.87 3.29l-.15.32c-.48.88-1.07 1.75-1.75 2.58l-.12.14c-1.88 1.97-3.1 4.52-3.43 7.2v.16c.13 2.66 1.17 5.33 2.85 7.33l.1.13c.64.88 1.2 1.82 1.65 2.8l.13.35c.35 1.22.56 2.32.63 3.27v.11c.07 2.67.98 5.21 2.62 7.35l.1.1c1.97 1.75 4.46 2.86 7.03 3.1l.18.02c1.12.19 2.22.48 3.27.86l.34.15c.98.53 1.88 1.15 2.62 1.8l.08.07c1.97 1.88 4.52 3.1 7.2 3.43Z" style="fill:#e87003;stroke-width:0"/><path class="cls-14" d="M164.59 53.65c-.58-1.61-.03-3.29 1.84-3.4 1.27-.07 2.16.98 3.11 1.69 1.75 1.32 3.74 1.92 5.88 1.21 1.84-.61 3.25-2.12 3.77-3.98.26-.92.32-1.93.14-2.87-.21-1.05-1.44-2.67-.61-3.66.99-1.18 2.68.24 3.71.7.94.42 1.91.65 2.94.61 1.85-.09 3.72-1.11 4.78-2.62 1.2-1.72 1.43-3.93.7-5.88-.33-.89-.82-1.67-1.48-2.36-.16-.16-.89-.61-.92-.83-.11-.95 1.59-1.14 2.28-1.04 2.61.4 3.73-3.58 1.1-3.99-2.41-.37-5.05-.18-6.62 1.95-1.37 1.87-1.28 4.31.31 6 1.06 1.13 2.65 2.89.76 4.24-1.45 1.03-2.91-.35-4.23-.91-2.33-.98-4.81-.5-6.47 1.47-1.76 2.09-1.33 3.97-.59 6.33.66 2.13-.72 3.62-2.81 2.49-1.14-.62-1.94-1.69-3.17-2.22-5.23-2.25-10.31 2.97-8.43 8.17.9 2.49 4.9 1.41 3.99-1.1Z"/><path class="cls-8" d="M170.04 9.6v-.02c.05-.29-.03-.59-.31-.86-3.02-2.81-6.66-5.08-10.46-6.69-.11-.05-.23-.06-.35-.05-.33-.01-.66.14-.86.53-3.38 6.68-6.52 13.51-9.01 20.57v.01c0 .02-.02.05-.03.07-.15.44-.02.79.24 1.02.07.08.15.14.25.19 2.47 1.18 4.86 2.52 7.15 4.02.26.17.59.19.87.09.17-.05.33-.14.47-.29.05-.05.09-.11.13-.17 3.77-6.1 7.98-11.91 11.75-18.01.06-.1.1-.21.13-.31l.03-.11ZM188.76 87.43v-.19c0-.44-.32-.91-.77-1.01-5.92-1.34-12.79.17-17.26 4.32-2.77 2.57-5.27 5.45-7.81 8.24-4.08 4.49-8.11 9.04-12.12 13.6-4.27 4.86-8.53 9.73-12.77 14.62-3.34 3.84-6.66 7.69-9.99 11.54l-2.81 3.26c-.17.19-.36.4-.54.61H81.72c-.57-.68-1.15-1.34-1.73-2.01-2.91-3.38-5.82-6.75-8.74-10.12-4.12-4.76-8.26-9.5-12.4-14.24-4.18-4.77-8.38-9.54-12.62-14.26-3.02-3.36-6.04-6.75-9.21-9.96-1.77-1.79-3.68-3.36-6.01-4.38-3.29-1.43-6.99-1.89-10.56-1.53-.67.07-1.34.15-1.99.29-.45.1-.77.57-.77 1.01v95.73c0 4.4-.15 8.83 0 13.24v.19c0 .57.48 1.05 1.05 1.05h54.79c2.53 0 5.09.11 7.62 0h98.84c2.53 0 5.09.11 7.62 0h.11c.57 0 1.05-.48 1.05-1.05v-95.73c0-4.4.15-8.83 0-13.24Z"/><g style="clip-path:url(#clippath-3)"><path class="cls-11" d="M125.1 122.02c2-.36 4.02-.6 6.05-.62 1.77-.02 3.22.1 4.74.42 2.91.62 4.91 1.61 7.43 3.29 3.41 2.27 6.26 5.36 9.95 7.2 3.25 1.62 6.95 2.32 10.57 2s7.12-1.44 10.1-3.46c3.35-2.28 5.79-5.48 7.39-9.18 1.68-3.92 2.43-8.04 3.11-12.22.35-2.13.74-4.27 1.44-6.32.29-.84.64-1.63 1.07-2.4.38-.67.88-1.4 1.22-1.8 2.28-2.68 5.13-4.38 8.51-5.19 1.62-.39 3.2-.53 5.07-.36.15.01.3.03.45.04-.3-.03.48.08.56.09.44.08.88.18 1.32.3.91.25 1.56.51 2.24.85 1.01.5 2.27.27 2.87-.75.54-.93.27-2.36-.75-2.87-6.26-3.12-14.07-2.3-19.74 1.76-3.07 2.2-5.31 5.1-6.64 8.63-1.55 4.1-1.76 8.56-2.73 12.8-.87 3.79-2.2 7.69-4.83 10.64-2.24 2.51-5.1 4.08-8.34 4.86s-6.45.62-9.61-.53c-3.58-1.31-6.71-4.52-9.88-6.85-2.77-2.03-5.89-3.68-9.25-4.47-4.43-1.05-9-.7-13.44.1-1.11.2-1.74 1.56-1.46 2.58.32 1.17 1.46 1.67 2.58 1.46ZM198.34 187.54c-7.93-4.88-13.26-13.46-14.53-22.68-.67-4.85.07-10 1.65-14.76.91-2.75 2.07-5.4 3.34-8 1.18-2.43 2.43-4.93 4.22-6.97 2.03-2.32 4.65-3.91 7.26-5.48 3.07-1.84 6.14-3.68 9.2-5.52 2.31-1.39.21-5.01-2.12-3.62-2.88 1.73-5.76 3.46-8.64 5.18-2.58 1.55-5.2 3.11-7.42 5.17s-3.92 4.75-5.32 7.47-2.74 5.64-3.84 8.56c-2.04 5.37-3.2 11.11-2.67 16.86.48 5.22 2.06 10.3 4.66 14.86 2.91 5.1 7.06 9.47 12.06 12.55 2.3 1.42 4.41-2.21 2.12-3.62ZM59.96 107.98c3.4 4.05 5.76 9.27 5.44 14.64-.18 2.94-1.39 5.7-2.45 8.4s-1.96 5.58-2.47 8.51c-1.95 11.23.81 23.3 9.53 31.08 4.46 3.97 9.99 6.52 15.96 6.97 1.13.08 2.1-1.02 2.1-2.1 0-1.2-.96-2.01-2.1-2.1-9.49-.71-17.65-8.26-20.52-17.32-1.66-5.25-1.84-10.92-.77-16.31.57-2.89 1.52-5.63 2.6-8.36s2.13-5.69 2.31-8.77c.39-6.49-2.58-12.73-6.67-17.6-.73-.87-2.21-.75-2.96 0-.86.86-.73 2.09 0 2.96ZM6.81 91c2.27 7.9 9.44 12.4 15.8 16.8 2.97 2.05 6.09 4.41 8.15 7.27s3.21 5.68 3.9 8.99c1.28 6.17.08 12.92-3.7 18.18-4.39 6.11-11.42 9.79-17.25 14.33-3.43 2.67-6.67 5.81-8.42 9.86-1.99 4.62-1.78 9.68-1.44 14.59.08 1.13.91 2.1 2.1 2.1 1.07 0 2.17-.96 2.1-2.1-.29-4.14-.6-8.42.85-12.4 1.26-3.44 4.1-6.13 6.88-8.38 5.95-4.82 12.97-8.46 17.79-14.56 4.41-5.59 6.4-12.77 5.58-19.85-.41-3.55-1.4-6.98-3.08-10.15-1.77-3.35-4.33-6.16-7.28-8.51-6.27-5-15.53-8.92-17.94-17.29-.74-2.59-4.79-1.49-4.04 1.11Z"/></g><path class="cls-10" d="M187.41 196.39H19.02s31.74-33.23 46.59-47.13c4.02-3.76 9.57-5.81 15.33-5.66s45.31-.2 45.31-.2h.31c5.66 0 11.07 2.12 14.96 5.87 14.41 13.89 45.89 47.12 45.89 47.12Z"/><path class="cls-10" d="M187.41 195.34H25.84c-2.17 0-4.38-.14-6.55 0h-.28l.74 1.79c2.71-2.84 5.44-5.67 8.17-8.5 6.01-6.22 12.04-12.42 18.12-18.58 6.09-6.17 12.2-12.34 18.48-18.32 1.68-1.6 3.34-3.16 5.36-4.33 2.58-1.49 5.5-2.4 8.47-2.67 1.6-.14 3.24-.08 4.85-.09 5.89-.03 11.79-.05 17.68-.08l19.95-.09c1.68 0 3.36-.01 5.04-.02 3.97-.02 7.83.82 11.27 2.84 2.03 1.19 3.67 2.77 5.33 4.4 1.37 1.34 2.73 2.69 4.09 4.04 3.09 3.08 6.15 6.19 9.2 9.31 6.34 6.47 12.63 12.99 18.9 19.54 3.82 3.98 7.63 7.98 11.43 11.98l.56.59c.93.98 2.41-.5 1.48-1.48a3235.49 3235.49 0 0 0-26.47-27.59c-6.08-6.26-12.01-12.32-18.17-18.33-1.8-1.76-3.66-3.4-5.89-4.61-2.63-1.43-5.52-2.3-8.49-2.64-1.69-.19-3.38-.14-5.08-.14-5.92.03-11.84.05-17.76.08l-20.07.09c-1.66 0-3.31.02-4.97.02-4.28 0-8.4.8-12.17 2.9-3.74 2.09-6.75 5.46-9.8 8.43-3.18 3.1-6.33 6.23-9.46 9.38-6.48 6.5-12.89 13.07-19.28 19.66-3.91 4.03-7.81 8.08-11.69 12.13-.19.2-.38.39-.56.59-.62.65-.18 1.79.74 1.79H180.58c2.18 0 4.37.04 6.55 0h.28c1.35 0 1.35-2.1 0-2.1Z"/><g style="clip-path:url(#clippath-4)"><path class="cls-16" d="M50.64 204.6c3.25-7.28 7.41-13.8 13.59-18.82.15-.12.3-.24.46-.37.27-.21-.11.08.27-.2.33-.25.67-.49 1.01-.73.67-.46 1.35-.9 2.05-1.32.68-.41 1.38-.79 2.1-1.14.35-.18.71-.34 1.06-.51.16-.07.33-.15.49-.22.44-.19-.08.02.24-.1 1.43-.56 2.88-1.05 4.37-1.42.74-.18 1.48-.34 2.22-.46.17-.03.34-.06.52-.08.09-.01.68-.1.41-.06s.25-.03.33-.04l.61-.06a34.383 34.383 0 0 1 6.82.03l.53.06c.09.01.68.09.42.05s.26.04.34.05c.21.03.41.06.61.1 3.11.52 6.16 1.42 9.08 2.61l.19.08c.2.09.4.17.6.26.37.16.74.33 1.11.51.74.35 1.48.72 2.21 1.11a57.317 57.317 0 0 1 6.44 4.02c.35.25.7.51 1.04.77.08.06.45.34.34.26-.08-.06.32.25.42.33 1.38 1.09 2.71 2.25 3.99 3.45s2.57 2.51 3.77 3.84c.61.67 1.21 1.36 1.79 2.06.29.35.59.7.87 1.06.13.16.27.33.4.5.06.07.42.54.26.33 2.29 2.96 4.33 6.11 6.13 9.39.46.83.9 1.68 1.32 2.53.51 1.01 1.94 1.3 2.87.75 1.03-.6 1.26-1.85.75-2.87-3.45-6.91-7.99-13.33-13.43-18.82-5.05-5.1-10.95-9.51-17.48-12.52-6.06-2.79-12.68-4.49-19.38-4.25-6.64.24-13.14 2.37-18.6 6.18-6.62 4.62-11.6 11.2-15.22 18.36-.53 1.06-1.04 2.13-1.52 3.21s-.3 2.25.75 2.87c.89.52 2.4.29 2.87-.75ZM155.03 146.25c-6.05 5.27-12.99 9.75-20.67 11.91-5.98 1.68-12.02 1.81-17.92.07-.7-.21-1.4-.44-2.08-.69-.34-.13-.68-.26-1.02-.4s.44.2-.14-.06c-.24-.11-.49-.21-.73-.33-1.33-.61-2.62-1.32-3.86-2.09-2.61-1.63-4.59-3.27-6.84-5.58s-3.94-4.49-5.7-7.28c-.86-1.37-1.66-2.78-2.4-4.22s-1.42-2.94-1.93-4.24c-3.02-7.55-4.41-15.32-4.46-23.33-.02-2.7-4.21-2.7-4.19 0 .09 14.52 4.57 29.49 14.29 40.5 4.32 4.89 9.73 8.8 15.86 11.07 6.32 2.34 13.22 2.62 19.78 1.23 9.42-2 17.8-7.35 24.97-13.59.85-.74.76-2.2 0-2.96-.85-.85-2.11-.75-2.96 0ZM167.11 165.5c.68 1.74.9 3.22.74 5.07-.12 1.42-.65 3.09-1.4 4.42-1.82 3.27-5.06 4.99-8.39 6.56-3.8 1.8-7.44 3.61-10.04 7.03-2.62 3.45-4.26 7.82-5.06 12.05-.94 5.04-.75 10.22.66 15.15.74 2.59 4.78 1.49 4.04-1.11-1.15-4.04-1.45-8.33-.74-12.47s2.13-8.38 4.76-11.54c2.52-3.02 6.28-4.38 9.72-6.08 3.55-1.75 6.78-4.04 8.72-7.58 2.09-3.82 2.6-8.51 1.01-12.6-.41-1.05-1.41-1.79-2.58-1.46-1.01.28-1.88 1.52-1.46 2.58Z"/></g><path d="M188.43 197.09s-32.72-35.57-46.99-49.56c-3.85-3.78-10.6-5.92-16.21-5.92h1.08l-46.28.2c-5.7-.15-11.21 1.92-15.19 5.71-14.71 14-47.34 49.32-47.34 49.32" style="fill:none;stroke:#fff;stroke-miterlimit:10;stroke-width:3px"/></svg>