<svg id="Illustration" xmlns="http://www.w3.org/2000/svg" viewBox="0 0 200 200"><defs><style>.cls-1{fill:none}.cls-3{fill:#f75e28}.cls-4{fill:#fff}.cls-7{fill:#ff8000}.cls-9{fill:#dd542a}</style></defs><path d="M72.97 143.69c-1.29-4.82-2.72-10.04-6.38-13.66-3.32-3.3-8.25-4.93-12.67-2.97-1.09.48-2.36 1.29-3.48.5-.78-.54-1.34-1.37-2.08-1.97-1.84-1.47-4.04-1.11-5.7.41-1.71 1.56-2.27 3.84-3.75 5.55-.66.76-1.44 1.29-2.48 1.1-1.26-.23-2.29-.65-3.59-.37-2.11.46-3.88 2.27-4.18 4.41-.3 2.18.78 4.16.86 6.29.04 1.21-.54 1.75-1.55 2.31-.88.48-1.67 1.05-2.3 1.82-1.24 1.52-1.87 3.53-1.79 5.49.09 1.92.82 3.83 2.25 5.15.78.72 1.68 1.27 2.52 1.91.65.5 1.42 1.13 1.53 2 .15 1.21-.75 2.43-.87 3.64-.11 1.02.09 2.04.5 2.98.83 1.92 2.59 3.51 4.64 4.04 1.01.26 2.08.25 3.08-.04 1.07-.31 2.35-1.2 3.48-.7.73.33 1.26 1.07 1.75 1.68.6.74 1.18 1.48 1.94 2.05 3.48 2.61 6.45-1.12 9.24-2.8.7-.42 1.4-.69 2.23-.65 1.4.07 1.39-2.11 0-2.18H56.1l4.56-40.89c1.06.36 2.07.89 2.97 1.53 4.44 3.17 5.92 8.95 7.26 13.93.36 1.35 2.47.78 2.1-.58Z" style="fill:#cfea5e"/><g id="Layer_5"><path class="cls-9" d="m183.62 63.06-25.05-1.08c.32-3.7.54-7.42.37-11.14-.16-3.41-.68-6.82-1.45-10.16-1.42-6.16-4.17-12.29-9.93-15.48-5.34-2.95-12.33-3.58-17.98-1.2-5.53 2.33-9.77 7.22-12.12 12.66-3.17 7.37-3.24 15.52-3.13 23.42-6.68-.29-13.35-.57-20.03-.87-.15 0-.29.02-.41.06-7.45 1.52-14.93 2.86-22.37 4.38-1.37.28-.79 2.38.58 2.1 1.83-.38 3.67-.74 5.51-1.1 17.86.76 83.75 4.04 83.75 4.04l17.88-3.67c1.46.06 2.93.13 4.39.19 1.4.06 1.4-2.12 0-2.18Zm-29.39-1.26c-2.04-.09-4.08-.18-6.12-.26-9.81-.41-19.62-.83-29.42-1.25-.15-11.15.11-25.02 10.75-31.35 4.32-2.56 9.92-2.61 14.6-.62 2.27.96 4.28 2.52 5.67 4.54 1.58 2.31 2.53 4.91 3.25 7.6.85 3.22 1.42 6.53 1.61 9.86.22 3.83 0 7.66-.32 11.48ZM73.2 64.53h-.04.04Z"/><path class="cls-3" d="m194.84 179.3-5.17-59.36-5.93-54.71.17-.04c1.37-.28.79-2.38-.58-2.1l-22.27 4.57c-1.21.25-.9 1.9.12 2.1v.08l-1.84 77.17-1.4 49.56c-.2.09-.39.17-.59.26-1.28.56-.17 2.44 1.1 1.88 9.86-4.31 19.57-8.99 29.17-13.84 2.42-1.22 4.83-2.45 7.22-3.72.83-.44.61-1.43 0-1.84Z"/><path class="cls-3" d="M196 180.08c-1.1-14.4-2.29-28.79-3.62-43.17-1.37-14.88-2.89-29.74-4.5-44.58-1.02-9.39-2.08-18.79-3.17-28.18-.16-1.38-2.34-1.39-2.18 0 1.87 16.11 3.65 32.23 5.3 48.36 1.47 14.36 2.81 28.73 4.03 43.12.69 8.15 1.34 16.29 1.96 24.44.11 1.39 2.29 1.4 2.18 0Z"/><path d="M162.04 69.16c.34-.63.04-1.65-.91-1.69-5.66-.25-11.33-.49-17-.73.32-3.67.53-7.35.36-11.02-.16-3.41-.68-6.82-1.45-10.16-1.42-6.16-4.17-12.29-9.93-15.48-5.34-2.95-12.33-3.58-17.98-1.2s-9.77 7.22-12.12 12.66c-3.15 7.34-3.24 15.44-3.13 23.31-2.42-.1-4.83-.2-7.25-.31l-20.82-.9c-.13 0-.25.01-.36.04-.33.07-.61.31-.7.76-2.74 15.36-5.31 30.75-7.75 46.17-2.35 14.93-4.55 29.89-6.66 44.86-1.25 8.84-2.46 17.68-3.67 26.52v.21c-.09.48.11.97.7 1.1.02 0 .04.02.06.03.08.02.17.03.26.03 13.77 2.44 27.55 4.75 41.37 6.89 12.81 1.98 25.65 3.8 38.5 5.55 7.91 1.07 15.83 2.13 23.74 3.17.36.05.68-.17.88-.47.34-.15.61-.46.63-.94.6-16.71 1.13-33.42 1.61-50.14.48-16.52.89-33.05 1.26-49.57.21-9.34.4-18.68.57-28.02 0-.28-.08-.51-.22-.68Zm-47.06-35.35c4.32-2.56 9.92-2.61 14.6-.62 2.27.96 4.28 2.52 5.67 4.54 1.58 2.31 2.53 4.91 3.25 7.6.85 3.22 1.42 6.53 1.61 9.86.22 3.79 0 7.59-.31 11.37-4.73-.2-9.45-.41-14.18-.61-7.13-.3-14.26-.61-21.38-.91-.15-11.13.15-24.93 10.75-31.23Z" style="fill:#fbae5e"/></g><g id="Layer_6"><path class="cls-1" d="M95.66 156.61c-.07-1.08-.8-2-1.81-2.33l-7.59-1.84a2.65 2.65 0 0 1-1.57-3.76c.63-1.44 16.53-27.46 43.9-42.64a6.803 6.803 0 0 1 3.87-.98c1.42.07 2.7.55 3.76 1.34 5.59 3.83 10.6 8.1 15.02 12.48s.04.02.07.03c.05 0 .1-.04.1-.09l.12-2.68c.04-.9.81-1.6 1.71-1.55.07 0 .14 0 .2.02l7.66 1.29.11.03.14-5.74.47-18.79-51.98-3.03-39.71 20.79-1.28 51.12 15.98 28.29s5.54.93 11.69 1.9c-.84-11.65-.86-32.76-.86-33.88ZM150.95 141.32c-.02-.53-.09-.75-.09-.75a1.62 1.62 0 0 0-1.47-1.1c-.36-.01-.69.08-.97.26 0 0-.2.11-.51.4 0 0-10.62 9.89-14.21 40.54 0 0-.07.43.03.82.15.64.62 1.18 1.45 1.36l5.25.97c.46.09.81.46.78.93 0 0-.4 4.26-1.54 11.88 2.58.35 5.23.7 7.65 1.02.33-3.14 1.02-9.68 1.71-17.41 1.14-12.81 2.34-29.24 1.92-38.94Z"/><path class="cls-1" d="M121.25 182.17c.06-.5.34-.91.74-1.17a8.274 8.274 0 0 0 3.91-6.65V174c.11-10.36.48-22.16 1.47-31.46v-.12c.02-.85-.65-1.56-1.5-1.59-.81-.02-1.5.59-1.58 1.38-.68 6.36-1.07 13.92-1.29 21.39-.04 1-.87 1.79-1.88 1.76a1.82 1.82 0 0 1-1.77-1.87c.21-7.43.6-14.93 1.27-21.27v-.12c.02-.85-.65-1.56-1.5-1.59-.81-.02-1.5.59-1.58 1.38-.69 6.39-1.08 13.99-1.29 21.5-.03 1.01-.87 1.8-1.88 1.77s-1.8-.87-1.77-1.88c.21-7.46.6-15.01 1.28-21.38s0-.08 0-.12c.02-.85-.65-1.56-1.5-1.59-.81-.02-1.5.59-1.58 1.38-1.03 9.55-1.4 21.82-1.5 32.43a8.247 8.247 0 0 0 3.71 6.86c.44.29.71.78.72 1.34v.52c0 3.78.05 7.44.09 10.35 2.5.36 5.08.73 7.62 1.07-.04-.81-.09-1.7-.14-2.69-.34-7.73-.08-9.31-.08-9.31v.03Z"/><path class="cls-4" d="M153.44 114.61c-.07-.01-.13-.02-.2-.02-.9-.04-1.66.65-1.71 1.55l-.12 2.68c0 .05-.05.09-.1.09-.02 0-.04-.01-.07-.03-4.42-4.37-9.43-8.65-15.02-12.48a6.872 6.872 0 0 0-3.76-1.34c-1.42-.07-2.74.3-3.87.98-27.38 15.18-43.27 41.19-43.9 42.64-.17.33-.28.71-.3 1.11-.06 1.23.74 2.31 1.87 2.65l7.59 1.84c1.01.33 1.74 1.25 1.81 2.33 0 1.13.02 22.24.86 33.88 1.76.28 3.57.56 5.31.83 3.34.51 7.56 1.13 12.01 1.76-.04-2.91-.08-6.57-.09-10.35v-.52c0-.55-.28-1.05-.72-1.34a8.247 8.247 0 0 1-3.71-6.86c.09-10.61.46-22.88 1.5-32.43.08-.8.77-1.4 1.58-1.38.85.02 1.52.73 1.5 1.59v.12c-.68 6.37-1.07 13.92-1.28 21.38-.03 1.01.76 1.85 1.77 1.88 1.01.03 1.85-.76 1.88-1.77.21-7.51.61-15.11 1.29-21.5.08-.8.77-1.4 1.58-1.38.85.02 1.52.73 1.5 1.59v.12c-.68 6.34-1.06 13.84-1.27 21.26-.03 1.01.76 1.85 1.77 1.88 1 .03 1.84-.76 1.88-1.76.21-7.48.61-15.04 1.29-21.39.08-.8.77-1.4 1.58-1.38.85.02 1.52.73 1.5 1.59v.12c-.99 9.29-1.36 21.1-1.47 31.46v.35a8.259 8.259 0 0 1-3.91 6.65c-.4.25-.68.67-.74 1.17 0 0-.26 1.58.08 9.31.05.99.09 1.88.14 2.69 3.51.49 6.95.97 9.99 1.38 2.4.33 5.27.71 8.21 1.1 1.15-7.63 1.54-11.88 1.54-11.88.02-.46-.32-.83-.78-.93l-5.25-.97c-.83-.19-1.3-.73-1.45-1.36-.09-.39-.03-.82-.03-.82 3.58-30.65 14.21-40.54 14.21-40.54.31-.29.51-.4.51-.4.28-.18.61-.28.97-.26.69.03 1.26.49 1.47 1.1 0 0 .07.22.09.75.42 9.71-.78 26.14-1.92 38.94a977.05 977.05 0 0 1-1.71 17.41c5.29.7 9.55 1.27 10 1.32.34.04.76-.3.85-.51 0 0 .55-.13.64-1.02.09-.89 1.02-28.2 1.02-28.2l.89-32.42.49-20.89-.11-.03-7.66-1.29v-.04Z"/></g><path d="M93.5 41.63c-.28-5.88-1.47-11.73-3.55-17.23-.95-2.5-2-4.91-3.59-7.07-1.59-2.16-3.25-3.98-5.02-5.83-1.78-1.85-3.45-3.46-5.51-4.81-2-1.32-4.21-2.31-6.48-3.06-4.84-1.61-10.04-2.48-15.12-2.8C44.12.2 33.62 2.12 24.84 7.33c-8.48 5.02-14.59 13.02-17.87 22.25-3.25 9.17-3.73 19.26-1.9 28.78 2 10.39 6.85 20.13 12.94 28.71 3.16 4.44 6.66 8.63 10.4 12.6 3.69 3.91 7.54 7.96 11.99 11.01.35.24.71.47 1.08.69 1.89 1.31 3.96 2.33 6.08 2.45.02 0 .04 0 .05.01.17.03.33.03.48 0 .83-.01 1.67-.16 2.51-.51 2.66-1.11 4.8-3.27 6.87-5.21 2.11-1.97 4.18-3.96 6.23-6 8.13-8.1 15.52-17 21.08-27.09 5.66-10.26 9.3-21.57 8.73-33.38ZM37.29 29.19c3.08-2.15 6.65-3.51 10.35-3.87 8.85-.47 17.56 4.27 21.39 12.44 3.64 7.75 1.41 17.2-4.62 23.1-6.35 6.21-16.39 7.72-24.56 4.6-2.16-.83-4.28-2.01-5.97-3.59-1.86-1.72-3.11-3.97-3.99-6.32-1.66-4.45-2.05-9.37-.94-14 1.2-4.99 4.12-9.41 8.35-12.36Z" style="fill:#f6c243"/><g id="Layer_11"><path class="cls-1" d="M194.79 164.66s-.01-.16-.04-.43a8.748 8.748 0 0 1-3.25-1.87c-1.47-1.35-2.34-3.69-2.34-5.65 0-2.15.92-4.09 2.34-5.65.65-.71 1.3-1.43 1.95-2.14-.36-4.11-.68-7.75-.81-8.98-.06-.57-.16-1.62-.3-2.98-.4.86-.94 1.66-1.6 2.38-1.66 1.81-3.3 3.63-4.96 5.44-3.01 3.3-8.23 2.82-11.3 0-1.47-1.35-2.34-3.69-2.34-5.65 0-2.15.92-4.09 2.34-5.65 1.66-1.81 3.3-3.63 4.96-5.44 3.01-3.3 8.23-2.82 11.3 0 .3.28.58.62.83.97-.64-6.74-1.35-14.27-1.5-15.85-.11-1.15-.61-5.93-1.16-11.09l-2.13 2.34c-3.01 3.3-8.23 2.82-11.3 0-1.47-1.35-2.34-3.69-2.34-5.65 0-2.15.92-4.09 2.34-5.65 1.66-1.81 3.3-3.63 4.96-5.44 1.76-1.93 4.28-2.56 6.68-2.19-.33-2.89-1.05-9.23-1.6-14.23-3.17 2.5-7.63 2.17-10.63-.58-1.5-1.38-2.24-3.35-2.29-5.34-5.37 1.11-10.88 2.23-10.88 2.23.45.23.57 1.25.54 1.89 0 .15-.02 1.1-.04 2.51 2.64-.59 5.6.24 7.63 2.1 1.47 1.35 2.34 3.69 2.34 5.65 0 2.15-.92 4.09-2.34 5.65-1.66 1.81-3.3 3.63-4.96 5.44-.85.93-1.87 1.55-2.98 1.91-.13 5.67-.36 14.49-.36 14.49v.41c2.81-.97 6.17-.17 8.4 1.88 1.47 1.35 2.34 3.69 2.34 5.65 0 2.15-.92 4.09-2.34 5.65-1.66 1.81-3.3 3.63-4.96 5.44-1.12 1.23-2.55 1.93-4.06 2.19l-.1 3.44-.37 16.17c2.5-.38 5.21.47 7.1 2.21 1.47 1.35 2.34 3.69 2.34 5.65 0 2.15-.92 4.09-2.34 5.65-1.66 1.81-3.3 3.63-4.96 5.44-.8.88-1.76 1.48-2.78 1.84l-.28 8.2s-.2 5.87-.39 11.33c2.15 0 4.33.82 5.92 2.29 1.1 1 1.85 2.56 2.17 4.09.44-.2.71-.33.71-.33l10.22-4.83 2.05-1.02 14.54-7.35c1.18-.35 1.28-.45 1.18-1.79-.09-1.34-1.18-14.75-1.18-14.75Zm-8.08 13.57c-1.66 1.81-3.3 3.63-4.96 5.44-3.01 3.3-8.23 2.82-11.3 0-1.47-1.35-2.34-3.69-2.34-5.65 0-2.15.92-4.09 2.34-5.65 1.66-1.81 3.3-3.63 4.96-5.44 3.01-3.3 8.23-2.82 11.3 0 1.47 1.35 2.34 3.69 2.34 5.65 0 2.15-.92 4.09-2.34 5.65Z"/><path class="cls-7" d="M169.84 85.36c1.42-1.56 2.34-3.5 2.34-5.65 0-1.96-.87-4.3-2.34-5.65-2.03-1.86-4.99-2.69-7.63-2.1-.07 4.7-.19 14.47-.21 16.42 0 .67-.04 2.29-.09 4.33 1.1-.36 2.13-.98 2.98-1.91 1.66-1.81 3.3-3.63 4.96-5.44ZM185.52 71.27c-.41-3.64-.74-6.55-.77-6.86-.09-.89-.57-1.66-2.11-1.21-.72.21-5.33 1.18-10.04 2.15.05 2 .79 3.96 2.29 5.34 3 2.75 7.46 3.09 10.63.58ZM180.46 87.69c-1.66 1.81-3.3 3.63-4.96 5.44-1.42 1.56-2.34 3.5-2.34 5.65 0 1.96.87 4.3 2.34 5.65 3.06 2.82 8.29 3.3 11.3 0l2.13-2.34c-.76-7.14-1.61-15.02-1.61-15.02s-.07-.59-.17-1.57c-2.4-.37-4.91.25-6.68 2.19ZM169.95 120.8c1.42-1.56 2.34-3.5 2.34-5.65 0-1.96-.87-4.3-2.34-5.65-2.23-2.04-5.59-2.85-8.41-1.88l-.6 20.8c1.51-.25 2.94-.96 4.06-2.19 1.66-1.81 3.3-3.63 4.96-5.44ZM179.46 128.05c-1.66 1.81-3.3 3.63-4.96 5.44-1.42 1.56-2.34 3.5-2.34 5.65 0 1.96.87 4.3 2.34 5.65 3.06 2.82 8.29 3.3 11.3 0 1.66-1.81 3.3-3.63 4.96-5.44.65-.72 1.2-1.52 1.6-2.38-.2-2.1-.48-4.94-.76-7.94-.25-.36-.52-.69-.83-.97-3.06-2.82-8.29-3.3-11.3 0ZM167.57 161.53c1.42-1.56 2.34-3.5 2.34-5.65 0-1.96-.87-4.3-2.34-5.65-1.89-1.74-4.6-2.58-7.1-2.21l-.13 5.69-.51 15.09c1.03-.37 1.98-.97 2.78-1.84 1.66-1.81 3.3-3.63 4.96-5.44ZM175.41 166.94c-1.66 1.81-3.3 3.63-4.96 5.44-1.42 1.56-2.34 3.5-2.34 5.65 0 1.96.87 4.3 2.34 5.65 3.06 2.82 8.29 3.3 11.3 0 1.66-1.81 3.3-3.63 4.96-5.44 1.42-1.56 2.34-3.5 2.34-5.65 0-1.96-.87-4.3-2.34-5.65-3.06-2.82-8.29-3.3-11.3 0ZM189.15 156.72c0 1.96.87 4.3 2.34 5.65.93.85 2.05 1.48 3.25 1.87-.15-1.8-.76-9.09-1.3-15.3-.65.71-1.3 1.43-1.95 2.14-1.42 1.56-2.34 3.5-2.34 5.65ZM159.16 188.34c-.16 4.51-.32 8.74-.36 9.13-.09.86-.9 1.31-.9 1.31s.23.07.42 0c.16-.05 6.74-3.05 8.94-4.05-.32-1.54-1.07-3.09-2.17-4.09-1.6-1.47-3.78-2.29-5.92-2.29Z"/></g><path class="cls-4" d="M108.72 78.68c.06-.17-.41-.6-1.51-.76-1.1-.16-2.72.17-4.37 1-.82.41-1.69.93-2.54 1.45-.83.5-1.73.98-2.68 1.3-.94.33-1.93.47-2.71.24-.79-.21-1.39-.78-2.11-1.84-.71-1-1.49-2.39-2.98-3.29-1.47-.88-3.12-.95-4.47-.67-1.37.28-2.53.9-3.46 1.66-.93.78-1.56 1.63-2.06 2.45-.97 1.64-1.37 3.05-1.6 4.02-.22.98-.24 1.55-.05 1.62.19.08.56-.36 1.09-1.18.54-.81 1.22-2.04 2.24-3.28 1.01-1.25 2.44-2.4 4.31-2.66.91-.13 1.83 0 2.52.46.69.42 1.3 1.35 2.08 2.52.41.58.87 1.2 1.51 1.76s1.45.98 2.27 1.18c1.68.4 3.19 0 4.37-.5 1.21-.51 2.2-1.16 3.07-1.81.84-.64 1.55-1.2 2.23-1.67 1.35-.96 2.51-1.45 3.37-1.65.86-.18 1.42-.16 1.48-.36Z"/><path class="cls-7" d="M91.19 59.76s-18.06 3.62-19.09 3.81c-1.02.19-1.17.23-1.43 1.51-.25 1.28-6.13 36.11-6.13 36.11s10.29-10.54 15.41-18.34c5.11-7.8 9.07-14.61 11.25-23.09Z" id="Layer_9"/><path d="M177.96 109.58c-.8 0-1.63 16.4-1.86 36.64-.23 20.25.23 36.67 1.03 36.67s1.63-16.4 1.86-36.64c.23-20.25-.23-36.67-1.03-36.67Z" style="fill:#ef470d"/></svg>