<?xml version="1.0" encoding="UTF-8"?><svg xmlns="http://www.w3.org/2000/svg" width="200" height="200" xmlns:xlink="http://www.w3.org/1999/xlink" viewBox="0 0 200 200"><defs><linearGradient id="uuid-9aef49c6-cad4-4faa-82ea-30c0db4e1d74" x1="41.8819" y1="134.488" x2="152.6226" y2="20.8559" gradientUnits="userSpaceOnUse"><stop offset=".002" stop-color="#fbe7b4"/><stop offset=".0108" stop-color="#fbd696"/><stop offset=".0261" stop-color="#fcbb68"/><stop offset=".0414" stop-color="#fda643"/><stop offset=".0566" stop-color="#fe9525"/><stop offset=".0715" stop-color="#fe8910"/><stop offset=".0862" stop-color="#fe8204"/><stop offset=".1002" stop-color="#ff8000"/><stop offset=".1238" stop-color="#f16f0a"/><stop offset=".1626" stop-color="#e05a18"/><stop offset=".2008" stop-color="#d64e20"/><stop offset=".2374" stop-color="#d34a23"/><stop offset=".5133" stop-color="#c64528"/><stop offset=".5935" stop-color="#cb4a24"/><stop offset=".6994" stop-color="#db5b18"/><stop offset=".8193" stop-color="#f67606"/><stop offset=".8536" stop-color="#ff8000"/><stop offset=".9068" stop-color="#fda33e"/><stop offset="1" stop-color="#fbe7b4"/></linearGradient><linearGradient id="uuid-cdebe79c-3e04-403e-b2f0-588212f74b21" x1="-1640" y1="-1860" x2="-1639" y2="-1860" gradientTransform="translate(-367250.1138 145172.9013) rotate(-152.9464) scale(159.2892 -159.2892)" gradientUnits="userSpaceOnUse"><stop offset="0" stop-color="#f75e28"/><stop offset=".303" stop-color="#f75e28"/><stop offset=".4749" stop-color="#fb7011"/><stop offset=".5937" stop-color="#ff8000"/><stop offset=".78" stop-color="#ff8000"/><stop offset=".8043" stop-color="#fe8407"/><stop offset=".8409" stop-color="#fe901c"/><stop offset=".8852" stop-color="#fda33e"/><stop offset=".9357" stop-color="#fcbe6d"/><stop offset=".9907" stop-color="#fbe0a9"/><stop offset="1" stop-color="#fbe7b4"/></linearGradient><linearGradient id="uuid-b4e9f50a-6a55-4ba3-a506-10d0d5f730ba" x1="63.2337" y1="75.9546" x2="164.0648" y2="75.9546" gradientUnits="userSpaceOnUse"><stop offset=".2905" stop-color="#c64528"/><stop offset=".4786" stop-color="#cf4928"/><stop offset=".7858" stop-color="#e75628"/><stop offset=".9466" stop-color="#f75e28"/></linearGradient><linearGradient id="uuid-2b891a4d-d002-416f-b70d-27818abb9197" x1="182.796" y1="54.365" x2="64.8268" y2="77.7853" gradientUnits="userSpaceOnUse"><stop offset=".0294" stop-color="#ff7300"/><stop offset=".4901" stop-color="#ff8000"/><stop offset=".7759" stop-color="#fab344"/><stop offset=".9457" stop-color="#f8ce69"/></linearGradient><linearGradient id="uuid-4b6a4fd7-0556-44f3-a825-9c38e741bce0" x1="114.7922" y1="48.4861" x2="113.0842" y2="105.1326" gradientUnits="userSpaceOnUse"><stop offset=".0052" stop-color="#c64528"/><stop offset=".2873" stop-color="#d84e28" stop-opacity=".63"/><stop offset=".5695" stop-color="#e85628" stop-opacity=".2923"/><stop offset=".7747" stop-color="#f35b28" stop-opacity=".0808"/><stop offset=".8796" stop-color="#f75e28" stop-opacity="0"/></linearGradient><linearGradient id="uuid-c6fd8e21-aa8b-466d-8ef9-acaa7d10a190" x1="-1640" y1="-1860" x2="-1639" y2="-1860" gradientTransform="translate(-20526.1597 108113.5685) rotate(149.4208) scale(44.3319 -44.3319)" gradientUnits="userSpaceOnUse"><stop offset="0" stop-color="#ff8000"/><stop offset=".0283" stop-color="#ff8000"/><stop offset=".4222" stop-color="#fc9d28"/><stop offset=".9968" stop-color="#f8ce69"/><stop offset=".9997" stop-color="#f8ce69"/><stop offset="1" stop-color="#f8ce69"/></linearGradient><linearGradient id="uuid-5c43775c-6499-423b-a69a-b85a96863f94" x1="-1640" y1="-1860" x2="-1639" y2="-1860" gradientTransform="translate(-4364.4293 110889.3408) rotate(140.9061) scale(44.7058 -44.7058)" gradientUnits="userSpaceOnUse"><stop offset="0" stop-color="#ff8000"/><stop offset=".0283" stop-color="#ff8000"/><stop offset=".4222" stop-color="#fc9d28"/><stop offset=".9968" stop-color="#f8ce69"/><stop offset=".9997" stop-color="#f8ce69"/><stop offset="1" stop-color="#f8ce69"/></linearGradient><linearGradient id="uuid-d0277c9a-d240-4b73-8e64-4bb949fab0ce" x1="-1640" y1="-1860" x2="-1639" y2="-1860" gradientTransform="translate(-7648.2743 119463.101) rotate(142.3058) scale(48.2336 -48.2336)" gradientUnits="userSpaceOnUse"><stop offset="0" stop-color="#ff8000"/><stop offset=".0283" stop-color="#ff8000"/><stop offset=".4222" stop-color="#fc9d28"/><stop offset=".9968" stop-color="#f8ce69"/><stop offset=".9997" stop-color="#f8ce69"/><stop offset="1" stop-color="#f8ce69"/></linearGradient><linearGradient id="uuid-df96c49e-1dd2-4294-b510-064f3500b9fc" x1="-1640" y1="-1860" x2="-1639" y2="-1860" gradientTransform="translate(-28955.1911 132220.783) rotate(150.9896) scale(54.5528 -54.5528)" gradientUnits="userSpaceOnUse"><stop offset="0" stop-color="#ff8000"/><stop offset=".0283" stop-color="#ff8000"/><stop offset=".4222" stop-color="#fc9d28"/><stop offset=".9968" stop-color="#f8ce69"/><stop offset=".9997" stop-color="#f8ce69"/><stop offset="1" stop-color="#f8ce69"/></linearGradient><linearGradient id="uuid-1715f1af-c2cb-4a6f-a62e-eba8889b63e0" x1="80.1394" y1="99.1964" x2="32.3351" y2="125.706" xlink:href="#uuid-b4e9f50a-6a55-4ba3-a506-10d0d5f730ba"/><linearGradient id="uuid-91720b6f-5307-43ca-8cec-7553da548c0f" x1="95.1506" y1="112.6173" x2="47.3463" y2="139.127" xlink:href="#uuid-b4e9f50a-6a55-4ba3-a506-10d0d5f730ba"/><linearGradient id="uuid-496d9810-f92e-46a8-9a2c-7146fe4d1b79" x1="110.1618" y1="126.0382" x2="62.3575" y2="152.5479" xlink:href="#uuid-b4e9f50a-6a55-4ba3-a506-10d0d5f730ba"/><linearGradient id="uuid-5c2cfc91-c67b-426a-96fb-980cf9962360" x1="125.173" y1="139.4592" x2="77.3687" y2="165.9688" gradientUnits="userSpaceOnUse"><stop offset=".2905" stop-color="#c64528"/><stop offset=".4549" stop-color="#ce4e21"/><stop offset=".7233" stop-color="#e66611"/><stop offset=".9482" stop-color="#ff8000"/></linearGradient></defs><g id="uuid-cf5be4e6-cd86-401a-ab33-67aadba9a347"><path d="M171.2248,46.8419c-1.9858-3.4891-4.4701-6.7861-7.4642-9.7801-17.1054-17.1054-45.2792-16.665-62.9278.9837l-.0434.0416c-19.791-17.7991-50.022-17.4262-68.7558,1.3077-17.7926,17.7924-19.0125,45.9508-3.8425,65.6913,2.0416,3.5225,4.5428,6.8536,7.4988,9.9129-.1654,2.946.8699,5.9449,3.1207,8.1958h.0001c.3044.3044.6263.5795.9562.8398.4813,1.7036,1.3877,3.3121,2.7294,4.6539h.0001c2.3415,2.3413,5.4925,3.3669,8.5508,3.0947.4688,1.7731,1.3928,3.4505,2.7834,4.8411.3034.3034.6244.577.953.8364.4833,1.7049,1.3902,3.3149,2.7326,4.6573,2.3425,2.3425,5.4948,3.3683,8.5543,3.0942.4668,1.7731,1.3889,3.4508,2.7799,4.8416.3028.3028.6234.5759.9514.835.4813,1.7056,1.3909,3.3154,2.7342,4.6587,2.3412,2.3412,5.4935,3.376,8.5523,3.1062.4693,1.7689,1.3941,3.442,2.7819,4.8297.3028.3029.6225.5774.9505.8365.4829,1.7051,1.3926,3.3146,2.7351,4.6571,4.1989,4.1989,11.0067,4.1989,15.2057,0l14.1333-14.1333c1.4467-1.4466,2.3826-3.2051,2.8324-5.0579,8.572,1.5571,17.3378-7.8968,16.3369-15.3744,6.1219,2.6286,18.2307-8.6653,16.4958-15.4764,11.4211.5945,15.9028-10.1036,15.1906-14.7841,16.2374-16.2374,16.8065-40.2503,3.4743-57.3091Z" fill="url(#uuid-9aef49c6-cad4-4faa-82ea-30c0db4e1d74)"/><path d="M102.793,39.9824c-19.7019-19.7019-51.382-19.9651-70.7594-.5878-19.3773,19.3774-19.1143,51.0575.5878,70.7594l63.1989,53.677s16.2996-13.881,19.5559-19.6769c8.7767,2.1915,18.0293-7.5653,17.0023-15.2362,6.1219,2.6285,18.2307-8.6655,16.496-15.4764,11.421.5945,15.9027-10.1038,15.1904-14.7841-1.8776-2.4036-61.2719-58.675-61.2719-58.675Z" fill="url(#uuid-cdebe79c-3e04-403e-b2f0-588212f74b21)"/><path d="M63.2337,74.126s12.7773,14.8994,30.6796.8687l22.8648-21.743,47.2868,45.4059-43.7367-41.8379-22.7614,21.9413s-14.047,12.9149-34.3331-4.6349Z" fill="url(#uuid-b4e9f50a-6a55-4ba3-a506-10d0d5f730ba)"/><path d="M164.0648,98.6575c17.6487-17.6487,16.8013-44.4903-.3042-61.5957-17.1054-17.1054-45.2792-16.6651-62.9279.9836l-37.599,36.0806h0c8.2152,8.7493,21.9824,9.1391,30.6796.8687l22.8648-21.743,47.2868,45.4059Z" fill="url(#uuid-2b891a4d-d002-416f-b70d-27818abb9197)"/><path d="M164.0648,98.6575l-44.4592-41.1414-22.0388,21.2448s-14.047,12.433-34.3331-4.6349l19.1384,26.0313s40.6454,48.4674,81.6927-1.4998Z" fill="url(#uuid-4b6a4fd7-0556-44f3-a825-9c38e741bce0)"/><path d="M63.3569,74.0103c7.5953,7.6613,20.8796,7.9695,28.5222.5593,1.601-1.4973,4.0594-4.1747,5.6649-5.8114,3.6261-3.7734,13.3338-13.8741,17.0796-17.772,0,0,2.1711-2.2592,2.1711-2.2592l2.1487,2.2697,45.1213,47.6608-49.452-43.1508,4.3195.0105c-7.2592,6.2321-17.6802,15.5024-24.9256,21.5692-9.1166,7.3881-23.504,6.0627-30.8962-2.8449,0,.0002.2464-.2312.2464-.2312h0Z" fill="#ff8000"/><path d="M115.6708,142.9738c5.9495,1.4188,11.9191-3.0586,14.4203-8.258,1.2996-2.5392,1.2874-5.074.8227-7.7293.0002,0,1.9447.8135,1.9447.8135,3.4181,1.1706,7.4924-1.7664,10.0316-4.1137,2.5541-2.4969,5.4976-6.3331,4.8054-9.9443-.0001,0-.1714-1.6262-.1714-1.6262,2.2978.2263,4.6914.3121,6.9272-.3626,5.468-1.6369,9.7229-7.3198,9.5698-13.0889.8519,3.7896-1.2101,8.2604-3.8106,11.2144-2.8075,3.2219-7.1606,4.7943-11.3995,4.7777.0009.0035,1.2449-1.527,1.243-1.5116,1.8506,7.6396-10.5703,19.8184-18.1554,16.8914-.0001-.0002,1.6857-1.2796,1.6857-1.2796.8523,9.3594-9.1929,18.7886-18.5029,16.5783-.0001-.0001.5893-2.3611.5893-2.3611h0Z" fill="#c64528"/><path d="M113.2092,149.3502l-14.1333,14.1333c-4.199,4.199-11.0068,4.199-15.2057,0-4.199-4.199-4.199-11.0068,0-15.2058l14.1332-14.1332c4.199-4.199,11.0068-4.199,15.2058,0,4.199,4.1989,4.199,11.0067,0,15.2057Z" fill="url(#uuid-c6fd8e21-aa8b-466d-8ef9-acaa7d10a190)"/><path d="M98.1893,135.9207l-14.1333,14.1333c-4.1989,4.1989-11.0067,4.1989-15.2057,0-4.199-4.199-4.199-11.0068,0-15.2058l14.1333-14.1333c4.1989-4.1989,11.0067-4.1989,15.2057,0h0c4.199,4.199,4.199,11.0068,0,15.2058Z" fill="url(#uuid-5c43775c-6499-423b-a69a-b85a96863f94)"/><path d="M83.1696,122.4911l-14.1333,14.1333c-4.199,4.1989-11.0068,4.1989-15.2058,0h0c-4.1989-4.199-4.1989-11.0068,0-15.2058l14.1333-14.1333c4.199-4.1989,11.0068-4.1989,15.2057,0h.0001c4.1989,4.199,4.1989,11.0068,0,15.2058Z" fill="url(#uuid-d0277c9a-d240-4b73-8e64-4bb949fab0ce)"/><path d="M68.1497,109.0615l-14.1333,14.1332c-4.199,4.199-11.0067,4.199-15.2057,0-4.199-4.1989-4.199-11.0067,0-15.2057l14.1332-14.1333c4.199-4.199,11.0068-4.199,15.2058,0s4.199,11.0068,0,15.2058Z" fill="url(#uuid-df96c49e-1dd2-4294-b510-064f3500b9fc)"/><path d="M68.1496,93.8557c4.1989,4.1989,4.1989,11.0068,0,15.2057l-14.1333,14.1333c-3.7669,3.7669-9.6335,4.1545-13.8324,1.1628-.4816-.3431-.9413-.7307-1.3733-1.1628l1.2857,1.2857c4.1989,4.1989,11.0068,4.1989,15.2057,0l14.1333-14.1333c4.1989-4.1989,4.1989-11.0068,0-15.2057l-1.2857-1.2857Z" fill="url(#uuid-1715f1af-c2cb-4a6f-a62e-eba8889b63e0)"/><path d="M83.1608,107.2767c4.1989,4.1989,4.1989,11.0068,0,15.2057l-14.1333,14.1333c-3.7669,3.7669-9.6335,4.1545-13.8324,1.1628-.4816-.3431-.9413-.7307-1.3733-1.1628l1.2857,1.2857c4.1989,4.1989,11.0068,4.1989,15.2057,0l14.1333-14.1333c4.1989-4.1989,4.1989-11.0068,0-15.2057l-1.2857-1.2857Z" fill="url(#uuid-91720b6f-5307-43ca-8cec-7553da548c0f)"/><path d="M98.172,120.6976c4.1989,4.1989,4.1989,11.0068,0,15.2057l-14.1333,14.1333c-3.7669,3.7669-9.6335,4.1545-13.8324,1.1628-.4816-.3431-.9413-.7307-1.3733-1.1628l1.2857,1.2857c4.1989,4.1989,11.0068,4.1989,15.2057,0l14.1333-14.1333c4.1989-4.1989,4.1989-11.0068,0-15.2057l-1.2857-1.2857Z" fill="url(#uuid-496d9810-f92e-46a8-9a2c-7146fe4d1b79)"/><path d="M113.1832,134.1185c4.1989,4.1989,4.1989,11.0068,0,15.2057l-14.1333,14.1333c-3.7669,3.7669-9.6335,4.1545-13.8324,1.1628-.4816-.3431-.9413-.7307-1.3733-1.1628l1.2857,1.2857c4.1989,4.1989,11.0068,4.1989,15.2057,0l14.1333-14.1333c4.1989-4.1989,4.1989-11.0068,0-15.2057l-1.2857-1.2857Z" fill="url(#uuid-5c2cfc91-c67b-426a-96fb-980cf9962360)"/><path d="M149.0293,114.9092c-.3037,0-.6064-.1123-.8428-.3389l-15.6582-15.0352c-.4844-.4658-.5-1.2363-.0352-1.7207.4658-.4863,1.2354-.501,1.7207-.0352l15.6582,15.0352c.4844.4658.5,1.2363.0352,1.7207-.2393.249-.5586.374-.8779.374Z" fill="#c64528"/><path d="M132.4639,129.9951c-.3037,0-.6064-.1123-.8428-.3389l-15.6582-15.0352c-.4844-.4658-.5-1.2363-.0352-1.7207.4658-.4863,1.2354-.5,1.7207-.0352l15.6582,15.0352c.4844.4658.5,1.2363.0352,1.7207-.2393.249-.5586.374-.8779.374Z" fill="#c64528"/><path d="M68.1497,93.8557c5.0385,3.6956,5.2225,11.6256.9212,15.9925.0002,0-2.3533,2.4114-2.3533,2.4114-3.9422,3.9867-7.9517,7.8886-12.0516,11.7171-4.3222,4.2145-12.0941,3.9806-15.8553-.7822,4.1201,3.4997,10.7619,3.346,14.429-.6668,0,.0001,2.3054-2.4344,2.3054-2.4344,3.0929-3.2419,6.2132-6.4572,9.4065-9.5996,0,0,2.3917-2.3462,2.3917-2.3462,3.9141-3.6833,4.0849-10.0177.8064-14.2917h0Z" fill="#ff8000"/><path d="M83.1609,107.2767c5.0384,3.6954,5.2225,11.6257.9211,15.9924.0002,0-2.3532,2.4114-2.3532,2.4114-3.9423,3.9867-7.9516,7.8887-12.0517,11.7171-4.3221,4.2147-12.0939,3.9804-15.8553-.7821,4.1203,3.4995,10.762,3.3461,14.4291-.667,0,.0001,2.3054-2.4344,2.3054-2.4344,3.0929-3.2419,6.2132-6.4572,9.4065-9.5996,0,0,2.3917-2.3461,2.3917-2.3461,3.9139-3.6834,4.085-10.0177.8064-14.2917h0Z" fill="#ff8000"/><path d="M98.172,120.6976c5.0385,3.6952,5.2226,11.6257.9212,15.9924.0002,0-2.3533,2.4114-2.3533,2.4114-3.9422,3.9869-7.9515,7.8886-12.0516,11.7171-4.3221,4.2147-12.094,3.9805-15.8553-.7821,4.1204,3.4997,10.762,3.346,14.4291-.667,0,.0001,2.3054-2.4344,2.3054-2.4344,3.0926-3.2418,6.2134-6.4572,9.4064-9.5996,0,0,2.3919-2.3461,2.3919-2.3461,3.9138-3.6834,4.085-10.0177.8063-14.2917h0Z" fill="#ff8000"/><path d="M113.1832,134.1185c5.0384,3.6954,5.2226,11.6255.9212,15.9924.0002,0-2.3533,2.4114-2.3533,2.4114-3.9421,3.987-7.9517,7.8885-12.0516,11.7172-4.3223,4.2145-12.094,3.9805-15.8553-.7822,4.1201,3.4997,10.7619,3.346,14.429-.6668,0,.0001,2.3054-2.4345,2.3054-2.4345,3.093-3.2418,6.2133-6.4571,9.4065-9.5996,0,0,2.3917-2.3461,2.3917-2.3461,3.914-3.6833,4.0849-10.0177.8064-14.2917h0Z" fill="#ff8000"/><path d="M83.2852,27.7726c-27.8074-8.1215-57.7169,8.5439-63.6754,37.175-1.9482,8.9949-1.4086,18.5425,1.4577,27.4984-5.9637-12.9078-5.5473-28.7928.9807-41.5471,10.9882-22.1931,38.4006-32.703,61.237-23.1264h0Z" fill="#f6c243"/></g><g id="uuid-7a09571f-7bfe-43bc-843d-f21c33ea714d"><ellipse cx="94.3547" cy="181.5914" rx="37.0225" ry="5.3503" fill="#090909" opacity=".07"/></g></svg>