<?xml version="1.0" encoding="UTF-8"?><svg xmlns="http://www.w3.org/2000/svg" width="200" height="200" xmlns:xlink="http://www.w3.org/1999/xlink" viewBox="0 0 200 200"><defs><linearGradient id="uuid-b72b831f-d1e7-4fcb-9e9b-8f475aaac6a4" x1="-1200" y1="-1860" x2="-1199" y2="-1860" gradientTransform="translate(-41973.6088 75312.7547) rotate(61.9908) scale(38.9523)" gradientUnits="userSpaceOnUse"><stop offset="0" stop-color="#f1d078"/><stop offset=".104" stop-color="#f1d078"/><stop offset=".5784" stop-color="#fb9520"/><stop offset=".7473" stop-color="#ff8000"/><stop offset=".9997" stop-color="#ff8000"/><stop offset="1" stop-color="#ff8000"/></linearGradient><linearGradient id="uuid-2bcc957e-b660-48bc-8329-42106bf90e8a" x1="-1200" y1="-1860" x2="-1199" y2="-1860" gradientTransform="translate(59944.1673 29670.9273) rotate(83.5065) scale(30.1934 -30.1934)" gradientUnits="userSpaceOnUse"><stop offset="0" stop-color="#ff8000"/><stop offset=".0084" stop-color="#ff8000"/><stop offset=".3551" stop-color="#fbb56f"/><stop offset=".6586" stop-color="#f8e1cb"/><stop offset=".7946" stop-color="#f7f3f0"/><stop offset=".9027" stop-color="#f8f5f3"/><stop offset=".9891" stop-color="#fefdfd"/><stop offset="1" stop-color="#fff"/></linearGradient><linearGradient id="uuid-bfc0df8d-ae9a-4460-9ab4-1d867bc46a5a" x1="-1200" y1="-1860" x2="-1199" y2="-1860" gradientTransform="translate(-74349.4526 50924.66) rotate(-157.1259) scale(40.7014 -40.7014)" gradientUnits="userSpaceOnUse"><stop offset="0" stop-color="#cc573d"/><stop offset=".1916" stop-color="#cc573d"/><stop offset=".418" stop-color="#eb7726"/><stop offset=".5917" stop-color="#ff8c19"/><stop offset=".6722" stop-color="#fe8d1c"/><stop offset=".7365" stop-color="#fe9326"/><stop offset=".7952" stop-color="#fe9d36"/><stop offset=".8505" stop-color="#fdaa4e"/><stop offset=".9035" stop-color="#fcbc6d"/><stop offset=".9541" stop-color="#fcd192"/><stop offset="1" stop-color="#fbe9bb"/></linearGradient><linearGradient id="uuid-01e64724-a1d9-4e97-b93e-2fa70054155d" x1="105.995" y1="176.4846" x2="103.0682" y2="-13.7577" gradientUnits="userSpaceOnUse"><stop offset="0" stop-color="#f75e28"/><stop offset=".1148" stop-color="#f86321"/><stop offset=".2737" stop-color="#fb720f"/><stop offset=".3791" stop-color="#ff8000"/><stop offset=".6894" stop-color="#ff8000"/><stop offset=".7416" stop-color="#fe9322"/><stop offset=".8667" stop-color="#fcc070"/><stop offset=".9559" stop-color="#fbdca1"/><stop offset="1" stop-color="#fbe7b4"/></linearGradient><linearGradient id="uuid-c288e798-d54e-4c7f-b200-07d464a6274f" x1="147.9475" y1="93.998" x2="188.7594" y2="93.5122" gradientUnits="userSpaceOnUse"><stop offset=".2484" stop-color="#e97435" stop-opacity="0"/><stop offset=".3134" stop-color="#eb8249" stop-opacity=".1028"/><stop offset=".5645" stop-color="#f3b796" stop-opacity=".4821"/><stop offset=".7677" stop-color="#f9ddce" stop-opacity=".761"/><stop offset=".9128" stop-color="#fdf5f1" stop-opacity=".9338"/><stop offset=".9862" stop-color="#fff"/></linearGradient><linearGradient id="uuid-0986b2b7-1a3a-48b8-a5be-c7aa30406662" x1="-1200" y1="-1860" x2="-1199" y2="-1860" gradientTransform="translate(-88388.6467 -49400.5148) rotate(152.071) scale(45.8247)" gradientUnits="userSpaceOnUse"><stop offset="0" stop-color="#f75e28"/><stop offset=".1896" stop-color="#f75e28"/><stop offset=".3689" stop-color="#fa6e14"/><stop offset=".5917" stop-color="#ff8000"/><stop offset=".6319" stop-color="#fe8b13"/><stop offset=".714" stop-color="#fda846"/><stop offset=".8297" stop-color="#fbd697"/><stop offset=".8682" stop-color="#fbe7b4"/><stop offset=".988" stop-color="#fbe7b4"/><stop offset="1" stop-color="#fbe7b4"/></linearGradient><linearGradient id="uuid-bcfa29d6-c51c-4a25-85a6-15a7fdfeb903" x1="-1200" y1="-1860" x2="-1199" y2="-1860" gradientTransform="translate(-27043.8802 -35955.1345) rotate(175.89) scale(20.4182)" gradientUnits="userSpaceOnUse"><stop offset="0" stop-color="#c64528"/><stop offset=".2173" stop-color="#c64528"/><stop offset=".4457" stop-color="#eb6b0d"/><stop offset=".5951" stop-color="#ff8000"/><stop offset=".7034" stop-color="#fda845"/><stop offset=".8336" stop-color="#fbd594"/><stop offset=".8935" stop-color="#fbe7b4"/><stop offset=".9903" stop-color="#fbe7b4"/><stop offset="1" stop-color="#fbe7b4"/></linearGradient><linearGradient id="uuid-547dba29-b584-4b57-a814-d07425857e81" x1="-1200" y1="-1860" x2="-1199" y2="-1860" gradientTransform="translate(-31900.7119 -56562.7691) rotate(-176.6685) scale(29.3787)" gradientUnits="userSpaceOnUse"><stop offset="0" stop-color="#ff8000"/><stop offset=".0136" stop-color="#ff8000"/><stop offset=".281" stop-color="#fd9d34"/><stop offset=".7724" stop-color="#fbd28f"/><stop offset=".9948" stop-color="#fbe7b4"/><stop offset="1" stop-color="#fbe7b4"/></linearGradient><linearGradient id="uuid-4c182917-5992-47b7-a8e7-ea2c703d0d51" x1="-1200" y1="-1860" x2="-1199" y2="-1860" gradientTransform="translate(97649.1846 53766.5163) rotate(-28.3707) scale(50.2722)" gradientUnits="userSpaceOnUse"><stop offset="0" stop-color="#f75e28"/><stop offset=".1896" stop-color="#f75e28"/><stop offset=".3689" stop-color="#fa6e14"/><stop offset=".5917" stop-color="#ff8000"/><stop offset=".6321" stop-color="#fe8103"/><stop offset=".6644" stop-color="#fe870d"/><stop offset=".6939" stop-color="#fe911d"/><stop offset=".7217" stop-color="#fd9e35"/><stop offset=".7483" stop-color="#fdb054"/><stop offset=".774" stop-color="#fcc57a"/><stop offset=".7986" stop-color="#fbdea5"/><stop offset=".8058" stop-color="#fbe7b4"/><stop offset=".9823" stop-color="#fbe7b4"/><stop offset="1" stop-color="#fbe7b4"/></linearGradient><linearGradient id="uuid-ae70186b-5547-4a94-9877-ccb56badb63e" x1="-1200" y1="-1860" x2="-1199" y2="-1860" gradientTransform="translate(45278.4541 26302.0296) rotate(-27.0956) scale(23.5613)" gradientUnits="userSpaceOnUse"><stop offset="0" stop-color="#c64528"/><stop offset=".2173" stop-color="#c64528"/><stop offset=".4457" stop-color="#eb6b0d"/><stop offset=".5951" stop-color="#ff8000"/><stop offset=".7035" stop-color="#fda845"/><stop offset=".8338" stop-color="#fbd594"/><stop offset=".8937" stop-color="#fbe7b4"/><stop offset=".9903" stop-color="#fbe7b4"/><stop offset="1" stop-color="#fbe7b4"/></linearGradient><linearGradient id="uuid-db3311bb-6a0c-4b0c-addc-368659dffad9" x1="-1200" y1="-1860" x2="-1199" y2="-1860" gradientTransform="translate(107438.04 77622.9816) rotate(93.0373) scale(59.8397 -59.8397)" gradientUnits="userSpaceOnUse"><stop offset="0" stop-color="#f1d078"/><stop offset=".1126" stop-color="#f1d078"/><stop offset=".6933" stop-color="#ff8000"/><stop offset="1" stop-color="#ff8000"/></linearGradient><linearGradient id="uuid-e5d2415e-685e-4d20-958c-4ca31bce79f1" x1="-1200" y1="-1860" x2="-1199" y2="-1860" gradientTransform="translate(-174258.3478 -6340.8154) rotate(124.9194) scale(78.8255)" gradientUnits="userSpaceOnUse"><stop offset="0" stop-color="#ff8000"/><stop offset=".0084" stop-color="#ff8000"/><stop offset=".3456" stop-color="#fda541"/><stop offset=".793" stop-color="#fbd493"/><stop offset=".998" stop-color="#fbe7b4"/><stop offset="1" stop-color="#fbe7b4"/></linearGradient><linearGradient id="uuid-6f48d5b9-972e-43b6-ab16-8f67d85696f7" x1="-1200" y1="-1860" x2="-1199" y2="-1860" gradientTransform="translate(111558.59 42375.0507) rotate(77.9777) scale(53.8639 -53.8639)" gradientUnits="userSpaceOnUse"><stop offset="0" stop-color="#c64528"/><stop offset=".153" stop-color="#d34b28"/><stop offset=".4373" stop-color="#f75e28"/><stop offset=".5165" stop-color="#f9681b"/><stop offset=".684" stop-color="#fd7907"/><stop offset=".7959" stop-color="#ff8000"/><stop offset="1" stop-color="#ff8000"/></linearGradient><linearGradient id="uuid-004c038e-8e00-4801-abdd-f768b767755b" x1="-1200" y1="-1860" x2="-1199" y2="-1860" gradientTransform="translate(6162.9912 129119.3183) rotate(30.1013) scale(58.3575)" gradientUnits="userSpaceOnUse"><stop offset="0" stop-color="#fbe7b4"/><stop offset=".0415" stop-color="#fbd99c"/><stop offset=".148" stop-color="#fcb965"/><stop offset=".247" stop-color="#fda039"/><stop offset=".3352" stop-color="#fe8e1a"/><stop offset=".4097" stop-color="#fe8306"/><stop offset=".4613" stop-color="#ff8000"/><stop offset=".917" stop-color="#ff8000"/><stop offset="1" stop-color="#ff8000"/></linearGradient><linearGradient id="uuid-7ff6681c-d743-4cd6-8bab-08a3a8615faf" x1="-1200" y1="-1860" x2="-1199" y2="-1860" gradientTransform="translate(-52784.1098 -40813.4563) rotate(-85.057) scale(30.1933 -30.1933)" gradientUnits="userSpaceOnUse"><stop offset="0" stop-color="#c64528"/><stop offset=".2173" stop-color="#c64528"/><stop offset=".4375" stop-color="#e96a0e"/><stop offset=".5951" stop-color="#ff8000"/><stop offset=".7043" stop-color="#fda847"/><stop offset=".8324" stop-color="#fbd595"/><stop offset=".8915" stop-color="#fbe7b4"/><stop offset="1" stop-color="#fbe7b4"/></linearGradient><linearGradient id="uuid-485fb784-0f71-497c-b93f-d431e4a4321d" x1="-1200" y1="-1860" x2="-1199" y2="-1860" gradientTransform="translate(-101361.7495 52015.498) rotate(95.7106) scale(51.4745)" gradientUnits="userSpaceOnUse"><stop offset="0" stop-color="#ff8000"/><stop offset=".0007" stop-color="#ff8000"/><stop offset=".1709" stop-color="#f75e28"/><stop offset=".3156" stop-color="#dd5128"/><stop offset=".4733" stop-color="#c64528"/><stop offset=".6557" stop-color="#de5128"/><stop offset=".8012" stop-color="#f55d28"/><stop offset=".8462" stop-color="#f7661d"/><stop offset=".9237" stop-color="#fa7111"/><stop offset="1" stop-color="#fc750d"/></linearGradient></defs><g id="uuid-3ffab26c-acb6-4bb1-b340-a24a8de1ad91"><path d="M48.2493,52.1288c.5714-.5972-1.3488-15.9452-2.8401-27.1652-.3447-2.5941,3.1128-3.797,4.4547-1.5504l12.6115,21.1127-14.2261,7.6029Z" fill="url(#uuid-b72b831f-d1e7-4fcb-9e9b-8f475aaac6a4)"/><path d="M48.7435,51.6033l-.4941.5255-.3339.3501c.168-.3339.3866-4.1139-2.7207-27.4868-.1945-1.4639.7327-2.4723,1.7369-2.8224,1.0068-.351,2.1737-.0253,2.9321,1.2435-.6757-1.1326-2.0093-1.1071-2.79-.8357-.7777.271-1.6243,1.0511-1.4504,2.3575,3.5303,26.5604,3.3247,26.4541,3.1201,26.6682Z" fill="url(#uuid-2bcc957e-b660-48bc-8329-42106bf90e8a)"/><polygon points="62.4753 44.5259 49.8639 23.4132 74.1825 37.1803 62.4753 44.5259" fill="#ff5b00"/><path d="M47.1094,130.3622l-8.0002,22.1515c-.8859,2.7926,5.0317,7.1613,13.217,9.7577,3.8973,1.2362,7.6064,1.8478,10.5184,1.8478,3.2037,0,5.4425-.7401,5.9066-2.2031l7.2606-18.7491-28.9025-12.8047" fill="url(#uuid-bfc0df8d-ae9a-4460-9ab4-1d867bc46a5a)"/><ellipse cx="104.7311" cy="94.3259" rx="73.7189" ry="65.6702" fill="url(#uuid-01e64724-a1d9-4e97-b93e-2fa70054155d)"/><ellipse cx="104.8753" cy="94.5108" rx="73.425" ry="65.4084" fill="url(#uuid-c288e798-d54e-4c7f-b200-07d464a6274f)"/><path d="M115.1544,170.3716c.177,1.8774-6.583,4.0503-15.0988,4.8533-8.5159.8029-15.5629-.0684-15.7399-1.9458-.177-1.8776,6.583-4.0504,15.0988-4.8533,8.5159-.8029,15.5629.0682,15.7399,1.9458Z" fill="#c64528"/><path d="M115.1544,170.3716c-.177-1.8776-7.224-2.7487-15.7399-1.9458-8.5157.8029-15.2758,2.9757-15.0988,4.8533l-1.2925-23.1182s13.3641-6.3414,28.9989-2.1952l3.1322,22.4059Z" fill="url(#uuid-0986b2b7-1a3a-48b8-a5be-c7aa30406662)"/><path d="M84.3158,173.2992c-.1232-1.3066,2.1305-2.3827,4.2234-3.0554,2.8665-.9211,6.7216-1.6433,10.855-2.033,4.1335-.3898,8.0562-.4008,11.0437-.0316,2.1819.2699,4.5934.8655,4.7166,2.1721v.0405c-.0725-.7736-1.9906-1.4404-4.7693-1.7837-2.958-.3661-6.8469-.3547-10.9504.0328-4.1035.3868-7.9258,1.1022-10.7635,2.014-2.6656.8567-4.4283,1.8301-4.3553,2.6036v.0405Z" fill="url(#uuid-bcfa29d6-c51c-4a25-85a6-15a7fdfeb903)"/><path d="M84.7587,38.005c-.9675,0-1.8478-.6549-2.0933-1.636-.2894-1.1571.4137-2.3297,1.5712-2.619,6.6388-1.6606,13.5342-2.5027,20.4945-2.5027,4.891,0,9.7845.4188,14.5448,1.2448,1.175.2036,1.9625,1.3217,1.7589,2.4967-.2037,1.1753-1.3219,1.963-2.4971,1.7587-4.5172-.7837-9.1628-1.181-13.8066-1.181-6.6073,0-13.15.7986-19.4468,2.3735-.1755.0441-.3523.0651-.5256.0651Z" fill="#f75e28"/><path d="M50.576,73.3176c-.9205,2.2543-2.7089,3.6562-3.9944,3.1313-1.2856-.5249-1.5815-2.778-.6611-5.0322.9205-2.2543,2.7089-3.6562,3.9944-3.1313,1.2856.5249,1.5815,2.778.6611,5.0322Z" fill="#c64528"/><path d="M85.2843,37.9399h0c6.3141-1.5793,12.8221-2.5895,19.4468-2.5895,4.6565,0,9.2771.6112,13.8066,1.397-4.5046-.7816-9.1746-.9651-13.8066-.9651-6.5891,0-13.1669.5869-19.4468,2.1576Z" fill="url(#uuid-547dba29-b584-4b57-a814-d07425857e81)"/><path d="M176.6404,153.715c.6663,1.7642-5.2123,5.6188-13.1302,8.6095-7.9181,2.9906-14.877,3.9849-15.5433,2.2207s5.2123-5.6188,13.1302-8.6094c7.918-2.9907,14.877-3.985,15.5433-2.2208Z" fill="#c64528"/><path d="M176.6404,153.715c-.8535-1.4641-6.8489-1.0359-14.4886,1.8351-8.007,3.0089-14.23,7.0071-14.2754,8.7556l-7.0275-12.7208s-3.2827-12.7548,6.8696-19.3933c11.1899-7.317,16.4535.1345,16.4535.1345l12.4684,21.3889Z" fill="url(#uuid-4c182917-5992-47b7-a8e7-ea2c703d0d51)"/><path d="M147.8763,164.3057h0c.0514-1.9685,6.3019-5.99,14.1993-8.9576,7.2526-2.7256,13.546-3.3817,14.5647-1.6331-.7736-1.3265-6.9924-.7517-14.4128,2.0371-8.0414,3.0221-14.3112,7.006-14.3512,8.5536Z" fill="url(#uuid-ae70186b-5547-4a94-9877-ccb56badb63e)"/><path d="M71.0563,82.2379c-.941,2.3044-2.7692,3.7377-4.0834,3.201s-1.6167-2.8398-.6758-5.1443c.941-2.3044,2.7692-3.7377,4.0834-3.201,1.3141.5366,1.6167,2.8397.6758,5.1443Z" fill="#c64528"/><path d="M79.3044,59.0214l22.0569-32.4683c1.7328-2.7675,5.9764-1.8623,6.4291,1.3713l3.343,36.2189-31.829-5.1219Z" fill="url(#uuid-db3311bb-6a0c-4b0c-addc-368659dffad9)"/><path d="M80.2394,59.1427l-1.1136-.2426,22.0569-32.4684c.8469-1.3527,2.348-1.9897,3.9183-1.6547,1.5682.3345,2.4672,1.5591,2.6895,3.1473-.2349-1.6779-1.6932-2.4932-2.7797-2.7249-1.0874-.2313-2.5679.0327-3.4663,1.468l-21.3051,32.4751Z" fill="url(#uuid-e5d2415e-685e-4d20-958c-4ca31bce79f1)"/><polygon points="111.1334 64.1433 107.7904 27.9244 115.1578 52.436 111.1334 64.1433" fill="url(#uuid-6f48d5b9-972e-43b6-ab16-8f67d85696f7)"/><ellipse cx="40.1584" cy="104.7527" rx="13.7719" ry="21.951" fill="url(#uuid-004c038e-8e00-4801-abdd-f768b767755b)"/><path d="M40.1584,126.7037h0c7.4749,0,13.1241-9.9663,13.1241-21.9509s-5.6493-21.9512-13.1241-21.9512c7.7131,0,13.9879,9.7283,13.9879,21.9512s-6.2748,21.9509-13.9879,21.9509Z" fill="url(#uuid-7ff6681c-d743-4cd6-8bab-08a3a8615faf)"/><path d="M47.0443,126.7037c7.606,0,13.7719-9.8279,13.7719-21.951s-6.1659-21.951-13.7719-21.951h-6.8859c7.606,0,13.7719,9.8279,13.7719,21.951s-6.1659,21.951-13.7719,21.951h7.606" fill="url(#uuid-485fb784-0f71-497c-b93f-d431e4a4321d)"/></g><g id="uuid-edef4d9a-0633-4c4d-a959-47048f18935a"><ellipse cx="103.2509" cy="184.6015" rx="48.6249" ry="5.3503" fill="#090909" opacity=".07"/></g></svg>