<svg xmlns="http://www.w3.org/2000/svg" width="200" height="200"><defs><linearGradient id="a" x1="-2458.835" y1="629.292" x2="-2324.991" y2="733.312" gradientTransform="scale(-1 1) rotate(.401 81097.803 328236.574)" gradientUnits="userSpaceOnUse"><stop offset="0" stop-color="#fbe7b4"/><stop offset=".257" stop-color="#f75e28"/><stop offset=".504" stop-color="#c64528"/><stop offset=".721" stop-color="#f75e28"/><stop offset=".823" stop-color="#ff8000"/><stop offset=".996" stop-color="#fbe7b4"/></linearGradient><linearGradient id="b" x1="153.316" y1="155.838" x2="24.563" y2="26.238" gradientUnits="userSpaceOnUse"><stop offset=".043" stop-color="#f75e28"/><stop offset=".206" stop-color="#fa6d17"/><stop offset=".326" stop-color="#fe7b09"/><stop offset=".663" stop-color="#fd9022"/><stop offset=".702" stop-color="#fca13e"/><stop offset=".779" stop-color="#fbbe70"/><stop offset=".845" stop-color="#fbd495"/><stop offset=".899" stop-color="#fbe2ab"/><stop offset=".934" stop-color="#fbe7b4"/></linearGradient></defs><ellipse cx="99.952" cy="181.591" rx="45.489" ry="7.738" fill="#090909" opacity=".07"/><path d="M37.352 153.324c17.004 25.474 60.276 26.442 96.652 2.162 36.375-24.28 52.08-64.615 35.075-90.089l-8.37-12.35c-17.004-25.474-60.277-26.442-96.652-2.162-36.376 24.28-52.08 64.615-35.075 90.09l8.37 12.349z" fill="url(#a)"/><path d="M28.981 140.946c17.004 25.475 60.277 26.443 96.652 2.162 36.376-24.28 52.08-64.614 35.076-90.089-17.004-25.474-60.277-26.442-96.652-2.162-36.376 24.28-52.08 64.615-35.076 90.09z" fill="url(#b)"/><path d="m62.42 92.018 5.54 1.354-14.306 23.07c-2.585 4.169-1.384 8.368 2.677 9.36l35.219 8.605c4.06.993 9.468-1.592 12.053-5.76l14.305-23.071 6.253 1.528 9.773-15.761c2.013-3.247 1.078-6.517-2.085-7.29l-2.029-.496c2.057-1.185 3.9-2.874 5.154-4.896 2.501-4.034 2.453-8.1-.124-10.612-2.579-2.513-7.031-2.833-11.622-.837l-13.685 5.95-3.675-10.192c-1.233-3.419-4.858-5.073-9.465-4.315-4.605.757-9.019 3.733-11.52 7.766-1.254 2.023-1.715 4.05-1.476 5.796l-1.828-.447c-3.162-.773-7.373 1.24-9.386 4.487L62.42 92.018zm41.446-16.722-12.934-3.16c-1.976-.483-2.56-2.527-1.303-4.555 1.308-2.11 3.527-3.606 5.937-4.002 2.408-.397 4.232.435 4.877 2.224l3.423 9.493zm26.362 2.205c-1.257 2.029-3.889 3.286-5.865 2.803l-12.934-3.16 12.746-5.543c1.524-.662 2.983-.84 4.19-.545a3.85 3.85 0 0 1 1.799.977c1.349 1.314 1.372 3.358.064 5.468zm-9.3 23.203-22.243-5.435 7.381-11.905 22.762 5.561c.546.134.707.698.36 1.258l-6.752 10.89-1.508-.37zm-26.357 28.831L79.69 125.9l15.973-25.76 17.498 4.276-14.305 23.07c-.92 1.483-2.842 2.402-4.286 2.05zM72.705 94.531l18.213 4.45-15.972 25.76-15.594-3.811c-1.444-.353-1.87-1.846-.952-3.329l14.305-23.07zm4.234-17.114c.347-.56 1.074-.908 1.62-.775l22.761 5.562L93.94 94.11 70.98 88.5l-.793-.193 6.752-10.89z" fill="#f75e28"/><path d="m61.84 91.149 5.54 1.353-14.306 23.07c-2.585 4.17-1.384 8.368 2.677 9.36l35.219 8.606c4.06.992 9.468-1.592 12.053-5.761l14.304-23.07 6.254 1.528 9.773-15.762c2.013-3.246 1.077-6.516-2.085-7.29l-2.029-.495c2.057-1.185 3.9-2.874 5.154-4.897 2.5-4.033 2.453-8.1-.125-10.611-2.578-2.513-7.03-2.834-11.621-.837l-13.685 5.95-3.675-10.192c-1.233-3.42-4.858-5.073-9.465-4.315-4.605.757-9.02 3.733-11.52 7.766-1.254 2.023-1.715 4.05-1.476 5.796l-1.828-.447c-3.163-.773-7.373 1.24-9.386 4.487l-9.773 15.76zm41.446-16.722-12.934-3.16c-1.977-.483-2.561-2.527-1.303-4.555 1.308-2.11 3.527-3.606 5.936-4.002 2.409-.397 4.232.434 4.878 2.223l3.423 9.494zm26.362 2.205c-1.258 2.028-3.889 3.286-5.865 2.803l-12.934-3.16 12.746-5.543c1.524-.663 2.983-.84 4.19-.545a3.85 3.85 0 0 1 1.799.976c1.348 1.315 1.372 3.359.064 5.469zm-9.3 23.203L98.104 94.4l7.382-11.906 22.762 5.562c.546.133.707.698.36 1.258l-6.752 10.889-1.508-.368zm-26.357 28.831-14.88-3.636 15.972-25.758 17.499 4.275-14.305 23.07c-.92 1.483-2.842 2.402-4.286 2.049zM72.125 93.662l18.213 4.45-15.972 25.759-15.594-3.81c-1.444-.353-1.871-1.846-.952-3.329l14.305-23.07zm4.234-17.115c.347-.56 1.074-.907 1.62-.774l22.761 5.562L93.36 93.24l-22.96-5.61-.792-.194 6.752-10.889z" fill="#fff"/><path d="M161.985 55.06c13.143 25.541-2.732 63.136-37.322 86.224-36.375 24.28-79.648 23.313-96.652-2.162a39.417 39.417 0 0 1-1.335-2.165 39.4 39.4 0 0 0 2.246 3.865c17.004 25.475 60.277 26.443 96.652 2.162 35.363-23.604 51.18-62.377 36.41-87.924z" fill="#ff911a"/></svg>