<?xml version="1.0" encoding="UTF-8"?><svg xmlns="http://www.w3.org/2000/svg" width="200" height="200" xmlns:xlink="http://www.w3.org/1999/xlink" viewBox="0 0 200 200"><defs><linearGradient id="uuid-c4963d4b-5434-4b37-93f7-3be659b186ae" x1="-2458.8345" y1="629.2916" x2="-2324.9908" y2="733.3115" gradientTransform="translate(-2299.7363 -559.6651) rotate(179.5989) scale(1 -1)" gradientUnits="userSpaceOnUse"><stop offset="0" stop-color="#fbe7b4"/><stop offset=".2574" stop-color="#f75e28"/><stop offset=".5042" stop-color="#c64528"/><stop offset=".7208" stop-color="#f75e28"/><stop offset=".8235" stop-color="#ff8000"/><stop offset=".9964" stop-color="#fbe7b4"/></linearGradient><linearGradient id="uuid-3e7f8a4a-c80d-48ab-b385-025c1240479a" x1="153.3156" y1="155.8378" x2="24.5629" y2="26.2381" gradientUnits="userSpaceOnUse"><stop offset=".0433" stop-color="#f75e28"/><stop offset=".2063" stop-color="#fa6d17"/><stop offset=".3262" stop-color="#fe7b09"/><stop offset=".6633" stop-color="#fd9022"/><stop offset=".7023" stop-color="#fca13e"/><stop offset=".7786" stop-color="#fbbe70"/><stop offset=".8454" stop-color="#fbd495"/><stop offset=".8993" stop-color="#fbe2ab"/><stop offset=".9337" stop-color="#fbe7b4"/></linearGradient></defs><g id="uuid-51cd7bb4-a470-4a25-9815-b3b6d5a41b67"><path d="M37.3519,153.3238c17.004,25.4745,60.2766,26.4425,96.6521,2.1622,36.3755-24.2803,52.0793-64.6145,35.0754-90.089l-8.3703-12.3495c-17.004-25.4745-60.2766-26.4425-96.6521-2.1622C27.6815,75.1657,11.9776,115.4999,28.9816,140.9743l8.3703,12.3495Z" fill="url(#uuid-c4963d4b-5434-4b37-93f7-3be659b186ae)"/><path d="M28.9814,140.9461c17.004,25.4745,60.2766,26.4425,96.6521,2.1622,36.3755-24.2803,52.0793-64.6145,35.0754-90.089-17.004-25.4745-60.2766-26.4425-96.6521-2.1622C27.6813,75.1374,11.9774,115.4716,28.9814,140.9461Z" fill="url(#uuid-3e7f8a4a-c80d-48ab-b385-025c1240479a)"/><path d="M62.4204,92.0182l5.5389,1.3534-14.3048,23.0702c-2.585,4.1691-1.3845,8.3679,2.6765,9.3602l35.2191,8.6054c4.0609.9922,9.4679-1.5921,12.0529-5.7612l14.3047-23.0702,6.2536,1.528,9.7727-15.7612c2.0132-3.2467,1.0778-6.5169-2.0849-7.2896l-2.0285-.4957c2.0567-1.1852,3.8998-2.8743,5.1539-4.8968,2.5009-4.0333,2.4529-8.0995-.1248-10.6118-2.5782-2.5124-7.0308-2.8331-11.6213-.8368l-13.685,5.9506-3.6755-10.1925c-1.2327-3.4189-4.8576-5.0729-9.4644-4.3153-4.605.7573-9.0193,3.7332-11.5202,7.7665-1.2541,2.0225-1.715,4.0493-1.4759,5.7956l-1.8278-.4466c-3.1627-.7728-7.3731,1.24-9.3863,4.4867l-9.7727,15.7613h0ZM103.866,75.2961l-12.9343-3.1604c-1.9762-.4829-2.5606-2.5263-1.3028-4.5547,1.3082-2.1099,3.5274-3.606,5.9366-4.0022,2.4084-.3966,4.232.4347,4.8775,2.2237l3.4229,9.4935ZM130.2284,77.501c-1.2577,2.0285-3.889,3.2862-5.8652,2.8033l-12.9343-3.1604,12.7463-5.5427c1.5241-.6626,2.9825-.8398,4.1895-.5449.6952.1699,1.3068.496,1.7994.9763,1.3485,1.3143,1.3725,3.3586.0643,5.4684ZM120.9284,100.7039l-22.2439-5.4351,7.3818-11.9051,22.7616,5.5615c.546.1334.7074.6977.3599,1.2579l-6.7518,10.8891-1.5077-.3684ZM94.5708,129.5352l-14.879-3.6355,15.9718-25.7589,17.4981,4.2754-14.3047,23.0702c-.9193,1.4826-2.842,2.4017-4.2862,2.0487ZM72.7051,94.5311l18.2127,4.4501-15.9718,25.7589-15.5941-3.8103c-1.4437-.3527-1.8707-1.8459-.9515-3.3285l14.3047-23.0701ZM76.9389,77.4166c.3473-.5602,1.074-.9076,1.6195-.7742l22.762,5.5617-7.3818,11.9051-22.9586-5.6097-.7929-.1938,6.7518-10.8891Z" fill="#f75e28"/><path d="M61.8402,91.1489l5.5389,1.3534-14.3048,23.0702c-2.585,4.169-1.3845,8.368,2.6764,9.3602l35.2191,8.6054c4.0608.9922,9.4679-1.5921,12.0529-5.7612l14.3047-23.0702,6.2536,1.528,9.7727-15.7612c2.0132-3.2467,1.0778-6.5169-2.0849-7.2896l-2.0285-.4957c2.0567-1.1852,3.8998-2.8743,5.1539-4.8968,2.5009-4.0333,2.4529-8.0995-.1248-10.6118-2.5782-2.5124-7.0308-2.8331-11.6213-.8368l-13.685,5.9506-3.6755-10.1925c-1.2327-3.4189-4.8576-5.0729-9.4644-4.3153-4.605.7573-9.0193,3.7332-11.5202,7.7665-1.2541,2.0225-1.715,4.0493-1.4759,5.7956l-1.8278-.4466c-3.1627-.7728-7.3731,1.24-9.3863,4.4867l-9.7726,15.7613ZM103.2859,74.4268l-12.9343-3.1604c-1.9762-.4829-2.5606-2.5263-1.3028-4.5547,1.3082-2.1099,3.5274-3.606,5.9366-4.0022,2.4084-.3966,4.232.4347,4.8775,2.2237l3.4229,9.4935ZM129.6482,76.6318c-1.2577,2.0285-3.889,3.2862-5.8652,2.8033l-12.9343-3.1604,12.7463-5.5427c1.5241-.6626,2.9825-.8398,4.1895-.5449.6952.1699,1.3068.496,1.7994.9763,1.3486,1.3143,1.3726,3.3586.0643,5.4684ZM120.3483,99.8346l-22.2439-5.4351,7.3817-11.9051,22.7616,5.5615c.546.1334.7074.6977.3599,1.2579l-6.7518,10.8891-1.5076-.3684ZM93.9907,128.666l-14.879-3.6355,15.9718-25.7589,17.4981,4.2754-14.3047,23.0702c-.9193,1.4826-2.842,2.4017-4.2862,2.0487ZM72.1249,93.6619l18.2127,4.4501-15.9718,25.7589-15.5941-3.8103c-1.4437-.3527-1.8707-1.8459-.9515-3.3285l14.3047-23.0701ZM76.3588,76.5473c.3473-.5602,1.074-.9076,1.6195-.7742l22.762,5.5617-7.3818,11.9051-22.9586-5.6097-.7929-.1938,6.7518-10.8891Z" fill="#fff"/><path d="M161.9846,55.0606c13.143,25.5404-2.7317,63.1354-37.3215,86.2238-36.3755,24.2803-79.6481,23.3123-96.6521-2.1622-.4733-.7091-.9119-1.4336-1.3348-2.1651.6785,1.3185,1.4114,2.6146,2.2461,3.8651,17.004,25.4745,60.2766,26.4425,96.6521,2.1622,35.3629-23.6046,51.1799-62.3777,36.4101-87.924v.0002Z" fill="#ff911a"/></g><g id="uuid-146998d0-b366-4a58-9116-cb5727e47077"><ellipse cx="99.9522" cy="181.5914" rx="45.4891" ry="7.7381" fill="#090909" opacity=".07"/></g></svg>