<?xml version="1.0" encoding="UTF-8"?><svg xmlns="http://www.w3.org/2000/svg" width="200" height="200" xmlns:xlink="http://www.w3.org/1999/xlink" viewBox="0 0 200 200"><defs><linearGradient id="uuid-1f991d51-f06f-40c7-9e4c-4e259afb9696" x1="32.8313" y1="137.221" x2="318.1954" y2="-49.508" gradientUnits="userSpaceOnUse"><stop offset="0" stop-color="#ff5b00"/><stop offset=".0654" stop-color="#ff5f00"/><stop offset=".1383" stop-color="#ff6c00"/><stop offset=".1619" stop-color="#ff7300"/><stop offset=".685" stop-color="#ff8000"/><stop offset=".9005" stop-color="#fcc87e"/><stop offset="1" stop-color="#fbe7b4"/></linearGradient><linearGradient id="uuid-48b3a410-c57f-4893-8726-a81ba42604f5" x1="-1420" y1="-1860" x2="-1419" y2="-1860" gradientTransform="translate(19490.1937 -505918.8009) rotate(-35.1553) scale(216.4165 -216.4165)" gradientUnits="userSpaceOnUse"><stop offset="0" stop-color="#ff5b00"/><stop offset=".0654" stop-color="#ff5f00"/><stop offset=".1383" stop-color="#ff6c00"/><stop offset=".1619" stop-color="#ff7300"/><stop offset=".685" stop-color="#ff8000"/><stop offset=".9005" stop-color="#fcc87e"/><stop offset="1" stop-color="#fbe7b4"/></linearGradient><linearGradient id="uuid-93bbf43b-f47c-407b-b505-0f3f0315af9e" x1="3.1983" y1="95.685" x2="57.28" y2="163.3552" gradientUnits="userSpaceOnUse"><stop offset="0" stop-color="#e8ad82"/><stop offset=".9485" stop-color="#c7482a"/></linearGradient><linearGradient id="uuid-5bfb6a92-afb8-4520-a2c3-4d617c60fd0c" x1="4.7809" y1="131.6777" x2="41.9451" y2="131.6777" xlink:href="#uuid-93bbf43b-f47c-407b-b505-0f3f0315af9e"/><linearGradient id="uuid-a7414a1a-db22-4e19-8b9c-921b56b7f1bf" x1="4.7809" y1="143.7034" x2="40.2466" y2="143.7034" xlink:href="#uuid-93bbf43b-f47c-407b-b505-0f3f0315af9e"/></defs><g id="uuid-4c97e232-a9cc-4f65-b2b4-cd57e813202d"><path d="M4.7809,112.8153s72.9696-10.5989,140.6398-68.8931l49.7335,61.1477s-65.6319,44.0264-154.9076,68.0778L4.7809,112.8153Z" fill="#f75e28"/><path d="M47.3921,166.125l-.688-1.0527c-.3955-.6045-1.4424-1.3564-3.0923-1.4844-.6851-.0576-1.3633.0195-1.9663.2139l-1.3159.4219-25.0693-44.166,2.0513-.6094c.9834-.292,1.6748-.8809,1.7202-1.4668.0181-.2334-.0635-.4834-.2427-.7422l-1.3291-1.918,2.2324-.6787c1.3232-.4014,2.9023-.8604,4.7163-1.3867,19.9175-5.7842,66.5605-19.3291,114.457-56.1074l1.2778-.9805,1.0493,1.2227c.6133.7148,1.4858,1.1494,2.457,1.2246.9302.0742,1.8252-.1953,2.5269-.7529l1.2935-1.0283,36.0674,42.7607-1.3462,1.0928c-.6743.5469-1.0811,1.3027-1.145,2.1289h0c-.0645.833.2256,1.6484.8174,2.2949l1.2817,1.4023-1.5342,1.1201c-16.0405,11.708-74.2061,41.1504-133.0112,58.1416l-1.208.3496ZM43.1865,160.1689c.2295,0,.4595.0088.689.0264,1.9209.1494,3.6431.8779,4.8311,2.0068,60.1431-17.5264,114.4775-46.0312,129.5674-56.377-.4917-1.0107-.708-2.1299-.6191-3.2725h0c.0918-1.1846.5049-2.2959,1.1919-3.2432l-31.9771-37.9111c-1.0732.4902-2.2676.7061-3.4834.6094-1.3164-.1025-2.5449-.5537-3.5762-1.2988-48.0078,36.5195-94.5068,50.0215-114.4526,55.8135-1.0684.3105-2.0547.5967-2.9546.8613.0356.2852.043.5723.0205.8604-.1118,1.4385-.9316,2.7119-2.2441,3.5889l21.8071,38.418c.3945-.0547.7964-.082,1.2002-.082Z" fill="#ff8000"/><path d="M4.7809,103.0316s72.3407-10.9752,140.0108-69.2694l50.3625,48.0715s-64.0013,52.9947-153.277,77.0461L4.7809,103.0316Z" fill="url(#uuid-1f991d51-f06f-40c7-9e4c-4e259afb9696)"/><path d="M49.2896,152.0635l-.688-1.0527c-.395-.6045-1.4419-1.3564-3.0918-1.4844-.6836-.0537-1.3638.0195-1.9668.2139l-1.2261.3926-27.2017-41.0508,2.2031-.6543c.9834-.292,1.6748-.8809,1.7202-1.4668.0181-.2334-.0635-.4834-.2427-.7422l-1.3291-1.918,2.2324-.6777c.8804-.2686,1.8716-.5635,2.9673-.8906,18.0356-5.3818,65.9453-19.6777,115.3252-57.5947l1.2788-.9814,1.0488,1.2246c.6118.7139,1.4844,1.1484,2.4565,1.2236.9219.0693,1.8242-.1953,2.5273-.7529l1.1484-.9121,36.3638,34.0195-1.5156,1.2305c-.6743.5469-1.0811,1.3027-1.145,2.1289h0c-.0645.833.2256,1.6484.8174,2.2949l1.2817,1.4023-1.5342,1.1201c-6.2559,4.5664-63.0566,45.1709-130.2222,64.5781l-1.208.3496ZM45.0845,146.1074c.2295,0,.4595.0088.689.0264,1.9209.1494,3.6426.8779,4.8301,2.0068,62.7788-18.377,116.228-55.2383,126.7866-62.7969-.4971-1.0156-.7163-2.1406-.627-3.2891.0869-1.1201.4609-2.1738,1.082-3.0869l-31.6958-29.6523c-1.1128.541-2.3672.7822-3.6372.6816-1.3174-.1025-2.5454-.5537-3.5767-1.2979-49.4761,37.6504-97.2339,51.9033-115.2964,57.293-.4263.127-.8364.249-1.23.3672.0361.2861.0435.5752.021.8643-.1084,1.3984-.8872,2.6416-2.1362,3.5146l23.4995,35.4639c.4233-.0625.856-.0947,1.291-.0947Z" fill="#fbe7b4"/><path d="M4.7809,95.2863S78.1582,69.6042,145.8284,11.3101l44.8416,48.1029s-62.7783,57.4789-147.1621,87.645L4.7809,95.2863Z" fill="url(#uuid-48b3a410-c57f-4893-8726-a81ba42604f5)"/><path d="M52.439,139.5801l-.7676-.9971c-.4404-.5723-1.542-1.2402-3.1968-1.2402-.6846,0-1.3574.126-1.9453.3662l-1.1914.4854-30.2969-38.8223,2.146-.8223c.9575-.3672,1.6006-1.0088,1.6006-1.5957,0-.2344-.1006-.4775-.2988-.7207l-1.4736-1.8086,2.1733-.8496c6.5859-2.5742,65.8652-26.4238,118.459-70.4658l1.1929-.999,1.1011,1.0986c.6665.665,1.5698,1.0312,2.5444,1.0312.9307,0,1.8047-.3359,2.4609-.9463l1.2354-1.1484,33.0571,34.9766-1.2339,1.1689c-.6294.5957-.9756,1.3809-.9756,2.21,0,.8359.3521,1.626.9922,2.2256l1.3867,1.2979-1.4434,1.2354c-5.7983,4.9639-58.5488,49.2031-124.3486,73.8789l-1.1777.4414ZM48.4746,133.9404c1.9272,0,3.7002.5928,4.9717,1.627,61.4404-23.2803,111.2168-63.5703,121.061-71.8369-.5742-.9736-.8799-2.0781-.8799-3.2295,0-1.2002.332-2.3506.9546-3.3535l-28.6987-30.3662c-2.1621,1.1826-5.0234,1.1113-7.1074-.1836C89.1016,67.874,33.8677,91.335,22.0986,96.0791c.0605.2871.0913.5801.0913.875,0,1.4023-.6797,2.7012-1.8579,3.6689l26.1743,33.5391c.6377-.1465,1.3022-.2217,1.9683-.2217Z" fill="#fff"/><path d="M122.405,70.9989c-2.4267-4.0853-7.3848-6.0846-13.9589-5.6306-4.6023.3181-9.7191,1.8283-14.7088,4.3111l-2.2462-3.4533-5.0375,12.2659,13.3343.4897-1.819-2.7966c3.8145-1.7933,7.6813-2.9086,11.0076-3.1385,3.4243-.24,5.9703.4672,6.8114,1.883,1.5627,2.6308-1.6855,7.9135-5.7019,11.772l5.3324,5.5504c7.7012-7.3991,10.3782-15.5429,6.9865-21.2532Z" fill="#f75e28"/><path d="M98.9482,94.2472c-3.7752,1.7601-7.5955,2.8535-10.8866,3.0809-3.4254.2378-5.9703-.4677-6.8112-1.883-1.2101-2.0372.5489-7.0177,6.1923-12.2348l-5.2246-5.6517c-8.1801,7.5625-11.0863,15.9225-7.5847,21.8173,2.2003,3.7044,6.4818,5.694,12.1633,5.694.5839,0,1.1826-.0211,1.7954-.0634,4.5105-.3118,9.515-1.7704,14.4099-4.1656l2.4718,4.0205,4.6261-14.5011-12.5955,1.5384,1.4439,2.3485Z" fill="#f75e28"/><ellipse cx="55.8272" cy="108.5349" rx="6.0803" ry="3.3636" transform="translate(-34.2618 26.1913) rotate(-20.3519)" fill="#fff"/><ellipse cx="137.8906" cy="59.4129" rx="6.0803" ry="3.3636" transform="translate(-9.7437 86.7591) rotate(-33.8037)" fill="#fff"/><path d="M122.405,70.5176c-2.4267-4.0853-7.3848-6.0846-13.9589-5.6306-4.6023.3181-9.7191,1.8283-14.7088,4.3111l-2.2462-3.4533-5.0375,12.2659,13.3343.4897-1.819-2.7966c3.8145-1.7933,7.6813-2.9086,11.0076-3.1385,3.4243-.24,5.9703.4672,6.8114,1.883,1.5627,2.6308-1.6855,7.9135-5.7019,11.772l5.3324,5.5504c7.7012-7.3991,10.3782-15.5429,6.9865-21.2532Z" fill="#fff"/><path d="M98.9482,93.766c-3.7752,1.7601-7.5955,2.8535-10.8866,3.0809-3.4254.2378-5.9703-.4677-6.8112-1.883-1.2101-2.0372.5489-7.0177,6.1923-12.2348l-5.2246-5.6517c-8.1801,7.5625-11.0863,15.9225-7.5847,21.8173,2.2003,3.7044,6.4818,5.694,12.1633,5.694.5839,0,1.1826-.0211,1.7954-.0634,4.5105-.3118,9.515-1.7704,14.4099-4.1656l2.4718,4.0205,4.6261-14.5011-12.5955,1.5384,1.4439,2.3485Z" fill="#fff"/><polygon points="4.7809 95.2862 4.7809 96.73 43.5078 148.5017 43.5078 147.0579 4.7809 95.2862" fill="url(#uuid-93bbf43b-f47c-407b-b505-0f3f0315af9e)"/><path d="M43.5078,147.0579v1.4438c84.3839-30.1662,147.1622-87.645,147.1622-87.645v-1.4438s-62.7783,57.4789-147.1622,87.645Z" fill="#c64528"/><path d="M41.8772,158.88L4.7809,103.0317v1.4438l37.0963,55.8483c.0227-.0061.0452-.0127.0679-.0188v-1.4438c-.0227.0061-.0452.0127-.0679.0188Z" fill="url(#uuid-5bfb6a92-afb8-4520-a2c3-4d617c60fd0c)"/><path d="M195.1541,81.8337s-63.9689,52.9674-153.209,77.0274v1.4438c89.2401-24.06,153.209-77.0274,153.209-77.0274v-1.4438Z" fill="#c64528"/><polygon points="4.7809 112.8152 4.7809 114.259 40.2466 174.5915 40.2466 173.1478 4.7809 112.8152" fill="url(#uuid-a7414a1a-db22-4e19-8b9c-921b56b7f1bf)"/><path d="M40.2466,173.1478v1.4438c89.2757-24.0515,154.9075-68.0778,154.9075-68.0778v-1.4439s-65.6319,44.0264-154.9075,68.0779Z" fill="#c64528"/></g><g id="uuid-eb930409-5d4f-4d75-9578-e8691a10c58d"><ellipse cx="66.485" cy="181.5914" rx="46.1753" ry="5.3503" fill="#090909" opacity=".07"/></g></svg>