<?xml version="1.0" encoding="UTF-8"?><svg xmlns="http://www.w3.org/2000/svg" width="200" height="200" xmlns:xlink="http://www.w3.org/1999/xlink" viewBox="0 0 200 200"><defs><linearGradient id="uuid-19da1760-bd33-4d4b-a124-eb1c0c3f81ff" x1="213.1026" y1="158.4162" x2="-43.8948" y2="35.7012" gradientTransform="translate(-.5726 .1288)" gradientUnits="userSpaceOnUse"><stop offset=".0903" stop-color="#f8c762"/><stop offset=".306" stop-color="#f8c862"/><stop offset=".6063" stop-color="#f8c962"/><stop offset=".8955" stop-color="#f8d06e"/></linearGradient><linearGradient id="uuid-50a435f2-c82a-47bb-a7c6-a7f05bc85b29" x1="213.6169" y1="158.3572" x2="-43.3673" y2="35.6485" gradientTransform="translate(-1.1452 .2576) skewX(-.0125)" gradientUnits="userSpaceOnUse"><stop offset=".0903" stop-color="#f9c05c"/><stop offset=".306" stop-color="#f9c35c"/><stop offset=".6063" stop-color="#f9c45c"/><stop offset=".6553" stop-color="#f8c660"/><stop offset=".8955" stop-color="#f8d172"/></linearGradient><linearGradient id="uuid-77d00b0e-1a50-4a82-993b-91646a824ac1" x1="214.1309" y1="158.2982" x2="-42.8402" y2="35.5958" gradientTransform="translate(-1.7178 .3865) skewX(-.0187)" gradientUnits="userSpaceOnUse"><stop offset=".0903" stop-color="#f9b855"/><stop offset=".2957" stop-color="#f9bc55"/><stop offset=".306" stop-color="#f9bd55"/><stop offset=".6063" stop-color="#f9bf55"/><stop offset=".7302" stop-color="#f9c865"/><stop offset=".8955" stop-color="#f9d377"/></linearGradient><linearGradient id="uuid-fd1a24ae-7627-4b3b-8a2e-c13c713c0872" x1="214.6447" y1="158.2393" x2="-42.3132" y2="35.5432" gradientTransform="translate(-2.2904 .5153) rotate(-.0125) skewX(-.025)" gradientUnits="userSpaceOnUse"><stop offset=".0903" stop-color="#fab14f"/><stop offset=".2762" stop-color="#fab54f"/><stop offset=".306" stop-color="#fab74f"/><stop offset=".6063" stop-color="#fabb4f"/><stop offset=".7652" stop-color="#f9ca6a"/><stop offset=".8955" stop-color="#f9d47c"/></linearGradient><linearGradient id="uuid-17e7c7cc-3a77-47f9-b89a-3b68cb0efef1" x1="215.1582" y1="158.1805" x2="-41.7866" y2="35.4906" gradientTransform="translate(-2.863 .6441) rotate(-.0156) skewX(-.0312)" gradientUnits="userSpaceOnUse"><stop offset=".0903" stop-color="#faaa48"/><stop offset=".2491" stop-color="#faae48"/><stop offset=".306" stop-color="#fab248"/><stop offset=".6063" stop-color="#fab648"/><stop offset=".7875" stop-color="#f9cb6e"/><stop offset=".8955" stop-color="#f9d680"/></linearGradient><linearGradient id="uuid-8f103a92-3672-4222-8351-b172519cfd72" x1="215.6715" y1="158.1218" x2="-41.2602" y2="35.4382" gradientTransform="translate(-3.4355 .7729) rotate(-.0187) skewX(-.0374)" gradientUnits="userSpaceOnUse"><stop offset=".0903" stop-color="#fba342"/><stop offset=".2392" stop-color="#fba742"/><stop offset=".306" stop-color="#fbac42"/><stop offset=".6063" stop-color="#fbb142"/><stop offset=".6183" stop-color="#fab245"/><stop offset=".8028" stop-color="#f9cc73"/><stop offset=".8955" stop-color="#f9d785"/></linearGradient><linearGradient id="uuid-df6bf708-18a5-4586-8d23-634874a2f687" x1="216.1845" y1="158.0631" x2="-40.7341" y2="35.3857" gradientTransform="translate(-4.0081 .9017) rotate(-.0218) skewX(-.0436)" gradientUnits="userSpaceOnUse"><stop offset=".0903" stop-color="#fb9c3b"/><stop offset=".2309" stop-color="#fba03b"/><stop offset=".306" stop-color="#fba63b"/><stop offset=".6063" stop-color="#fbac3b"/><stop offset=".6548" stop-color="#fab44a"/><stop offset=".815" stop-color="#f9ce78"/><stop offset=".8955" stop-color="#f9d98a"/></linearGradient><linearGradient id="uuid-216717b3-bfb2-4a8e-8313-10f689b3d304" x1="216.6973" y1="158.0045" x2="-40.2082" y2="35.3333" gradientTransform="translate(-4.5807 1.0306) rotate(-.0249) skewX(-.0498)" gradientUnits="userSpaceOnUse"><stop offset=".0903" stop-color="#fc9535"/><stop offset=".2175" stop-color="#fc9935"/><stop offset=".306" stop-color="#fca135"/><stop offset=".6063" stop-color="#fca735"/><stop offset=".6803" stop-color="#fbb64f"/><stop offset=".8235" stop-color="#fad07d"/><stop offset=".8955" stop-color="#fadb8f"/></linearGradient><linearGradient id="uuid-35d04145-1379-4462-a025-9b6ca6750ccb" x1="217.2098" y1="157.9459" x2="-39.6826" y2="35.281" gradientTransform="translate(-5.1533 1.1594) rotate(-.0281) skewX(-.056)" gradientUnits="userSpaceOnUse"><stop offset=".0903" stop-color="#fc8d2e"/><stop offset=".2072" stop-color="#fc912e"/><stop offset=".306" stop-color="#fc9b2e"/><stop offset=".6063" stop-color="#fca22e"/><stop offset=".7005" stop-color="#fbb753"/><stop offset=".8303" stop-color="#fad181"/><stop offset=".8955" stop-color="#fadc93"/></linearGradient><linearGradient id="uuid-5d33643a-743c-479a-955c-56d53816e87a" x1="217.722" y1="157.8874" x2="-39.1573" y2="35.2287" gradientTransform="translate(-5.7259 1.2882) rotate(-.0312) skewX(-.0623)" gradientUnits="userSpaceOnUse"><stop offset=".0903" stop-color="#fc8627"/><stop offset=".2029" stop-color="#fc8a27"/><stop offset=".306" stop-color="#fc9527"/><stop offset=".6063" stop-color="#fc9d27"/><stop offset=".7185" stop-color="#fbb958"/><stop offset=".8363" stop-color="#fad386"/><stop offset=".8955" stop-color="#fade98"/></linearGradient><linearGradient id="uuid-fc9157fb-862a-4062-b5ec-059a5104002f" x1="218.234" y1="157.8289" x2="-38.6323" y2="35.1765" gradientTransform="translate(-6.2985 1.417) rotate(-.0343) skewX(-.0685)" gradientUnits="userSpaceOnUse"><stop offset=".0903" stop-color="#fd7f21"/><stop offset=".199" stop-color="#fd8321"/><stop offset=".306" stop-color="#fd8f21"/><stop offset=".6063" stop-color="#fd9821"/><stop offset=".7313" stop-color="#fbba5c"/><stop offset=".8408" stop-color="#fad48b"/><stop offset=".8955" stop-color="#fadf9d"/></linearGradient><linearGradient id="uuid-201adaac-ef0e-4620-8809-10c066d684e9" x1="218.7457" y1="157.7705" x2="-38.1075" y2="35.1244" gradientTransform="translate(-6.8711 1.5458) rotate(-.0374) skewX(-.0747)" gradientUnits="userSpaceOnUse"><stop offset=".0903" stop-color="#fd781a"/><stop offset=".1922" stop-color="#fd7c1a"/><stop offset=".306" stop-color="#fd8a1a"/><stop offset=".6063" stop-color="#fd941a"/><stop offset=".7428" stop-color="#fbbc60"/><stop offset=".8446" stop-color="#fad68f"/><stop offset=".8955" stop-color="#fae1a1"/></linearGradient><linearGradient id="uuid-c76c8b37-fb2f-48f3-87b8-27bd418d30ce" x1="219.2572" y1="157.7122" x2="-37.5829" y2="35.0723" gradientTransform="translate(-7.4437 1.6747) rotate(-.0405) skewX(-.0808)" gradientUnits="userSpaceOnUse"><stop offset=".0903" stop-color="#fe7114"/><stop offset=".1893" stop-color="#fe7514"/><stop offset=".2996" stop-color="#fe8214"/><stop offset=".306" stop-color="#fe8414"/><stop offset=".6063" stop-color="#fe8f14"/><stop offset=".6197" stop-color="#fd931b"/><stop offset=".7527" stop-color="#fbbd65"/><stop offset=".8479" stop-color="#fad794"/><stop offset=".8955" stop-color="#fae2a6"/></linearGradient><linearGradient id="uuid-5b7046a8-02d7-4063-961d-f0a210d21216" x1="219.7685" y1="157.6539" x2="-37.0587" y2="35.0202" gradientTransform="translate(-8.0163 1.8035) rotate(-.0436) skewX(-.087)" gradientUnits="userSpaceOnUse"><stop offset=".0903" stop-color="#fe690d"/><stop offset=".184" stop-color="#fe6d0d"/><stop offset=".2885" stop-color="#fe7a0d"/><stop offset=".306" stop-color="#fe7e0d"/><stop offset=".6063" stop-color="#fe8a0d"/><stop offset=".6377" stop-color="#fd9520"/><stop offset=".762" stop-color="#fcbf6a"/><stop offset=".851" stop-color="#fbd999"/><stop offset=".8955" stop-color="#fbe4ab"/></linearGradient><linearGradient id="uuid-7911e7b3-07ac-42f4-87b8-3b5e7e4620bf" x1="220.2794" y1="157.5957" x2="-36.5347" y2="34.9682" gradientTransform="translate(-8.5889 1.9323) rotate(-.0467) skewX(-.0932)" gradientUnits="userSpaceOnUse"><stop offset=".0903" stop-color="#ff6207"/><stop offset=".1794" stop-color="#ff6607"/><stop offset=".2789" stop-color="#ff7307"/><stop offset=".306" stop-color="#ff7907"/><stop offset=".6063" stop-color="#ff8507"/><stop offset=".6509" stop-color="#fe9624"/><stop offset=".7688" stop-color="#fcc06e"/><stop offset=".8533" stop-color="#fbda9d"/><stop offset=".8955" stop-color="#fbe5af"/></linearGradient><linearGradient id="uuid-a510c53b-c150-41a6-949c-69b1a39190c8" x1="220.7902" y1="157.5376" x2="-36.0109" y2="34.9163" gradientTransform="translate(-9.1615 2.0611) rotate(-.0498) skewX(-.0994)" gradientUnits="userSpaceOnUse"><stop offset=".0903" stop-color="#ff5b00"/><stop offset=".1774" stop-color="#ff5f00"/><stop offset=".2745" stop-color="#ff6c00"/><stop offset=".306" stop-color="#ff7300"/><stop offset=".6063" stop-color="#ff8000"/><stop offset=".6649" stop-color="#fe9729"/><stop offset=".776" stop-color="#fcc273"/><stop offset=".8557" stop-color="#fbdca2"/><stop offset=".8955" stop-color="#fbe7b4"/></linearGradient><radialGradient id="uuid-fb514c03-f1b0-42a6-9939-8c5311caa6e8" cx="151.7548" cy="103.3731" fx="151.7548" fy="103.3731" r="65.7163" gradientUnits="userSpaceOnUse"><stop offset=".2804" stop-color="#fff"/><stop offset=".5962" stop-color="#fefefd"/><stop offset=".7099" stop-color="#fefcf6"/><stop offset=".791" stop-color="#fef8ea"/><stop offset=".8566" stop-color="#fdf2d9"/><stop offset=".9127" stop-color="#fcebc3"/><stop offset=".9616" stop-color="#fbe2a9"/><stop offset="1" stop-color="#fada8e"/></radialGradient></defs><g id="uuid-12960f62-8601-4ccf-8dd6-f0b2c6646ced"><path d="M173.5,49.1431s-1.3332-9.1096-9.7403-7.9798L13.1876,74.5624s-5.4067.5625-7.2224,5.3649c-.4183,1.1062-.472,2.2975-.2809,3.4418.184,1.1024.5357,2.9384,1.2075,5.9245l18.3413,81.5249s1.8941,6.8353,10.3002,5.4825l151.0028-33.9s6.4547-2.3847,5.7169-8.8429l-18.7529-84.415Z" fill="#b9471e"/><path d="M174.4161,48.1118s-1.3332-9.1096-9.7403-7.9798L14.1037,73.5311s-5.4067.5625-7.2224,5.3649c-.4183,1.1062-.472,2.2975-.2809,3.4418.184,1.1024.5357,2.9384,1.2075,5.9245l18.3413,81.5249s1.8941,6.8353,10.3002,5.4825l151.0028-33.9s6.4547-2.3847,5.7169-8.8429l-18.7529-84.415Z" fill="#f96422"/><path d="M14.2104,73.3932s-5.3926.5525-7.1984,5.367c-.208.554-.3284,1.1312-.3709,1.7162-.0392.539-.0054,1.1044.097,1.7168.1843,1.1031.5359,2.9379,1.2066,5.9188l18.3424,81.5298s1.8942,6.8357,10.3013,5.4827l150.9384-33.8842s6.4547-2.3847,5.7169-8.8429l-18.7529-84.415s-1.3332-9.1096-9.7403-7.9798L14.2104,73.3932Z" fill="#f96b26"/><path d="M14.3171,73.2553s-5.3786.5426-7.1745,5.369c-.2054.551-.328,1.1266-.372,1.7133-.0377.503-.0049,1.0542.1051,1.7108.1846,1.1038.5361,2.9374,1.2056,5.913l18.3435,81.5347s1.8943,6.8361,10.3025,5.4829l150.874-33.8684s6.4547-2.3847,5.7169-8.8429l-18.7529-84.415s-1.3332-9.1096-9.7403-7.9798L14.3171,73.2553Z" fill="#f9712b"/><path d="M14.4238,73.1174s-5.3645.5327-7.1505,5.371c-.2028.548-.3276,1.1221-.3731,1.7104-.0361.467-.0044,1.0039.1132,1.7049.1848,1.1044.5363,2.9369,1.2046,5.9073l18.3446,81.5395s1.8945,6.8365,10.3036,5.4831l150.8096-33.8526s6.4547-2.3847,5.7169-8.8429l-18.7529-84.415s-1.3332-9.1096-9.7403-7.9798L14.4238,73.1174Z" fill="#f9782f"/><path d="M14.5305,72.9795s-5.3505.5228-7.1265,5.3731c-.2002.5449-.3272,1.1175-.3742,1.7075-.0343.431-.0038.9537.1213,1.699.1851,1.1051.5365,2.9364,1.2037,5.9015l18.3457,81.5444s1.8946,6.8369,10.3048,5.4833l150.7452-33.8368s6.4547-2.3847,5.7169-8.8429l-18.7529-84.415s-1.3332-9.1096-9.7403-7.9798L14.5305,72.9795Z" fill="#f97e34"/><path d="M14.6372,72.8415s-5.3365.5128-7.1025,5.3751c-.1975.5419-.3268,1.1129-.3753,1.7046-.0323.395-.0033.9034.1294,1.6931.1854,1.1058.5368,2.9359,1.2027,5.8958l18.3468,81.5493s1.8947,6.8373,10.3059,5.4835l150.6808-33.821s6.4547-2.3847,5.7169-8.8429l-18.7529-84.415s-1.3332-9.1096-9.7403-7.9798L14.6372,72.8415Z" fill="#f98538"/><path d="M14.744,72.7036s-5.3224.5029-7.0785,5.3771c-.1949.5389-.3265,1.1083-.3764,1.7017-.0302.359-.0028.8532.1375,1.6872.1857,1.1065.537,2.9353,1.2017,5.89l18.3479,81.5542s1.8948,6.8377,10.3071,5.4837l150.6164-33.8053s6.4547-2.3847,5.7169-8.8429l-18.7529-84.415s-1.3332-9.1096-9.7403-7.9798L14.744,72.7036Z" fill="#f98c3d"/><path d="M14.8507,72.5657s-5.3084.493-7.0546,5.3792c-.1923.5358-.3261,1.1037-.3775,1.6988-.0279.3231-.0023.8029.1456,1.6813.1859,1.1071.5372,2.9348,1.2008,5.8843l18.349,81.5591s1.895,6.8381,10.3082,5.4839l150.552-33.7895s6.4547-2.3847,5.7169-8.8429l-18.7529-84.415s-1.3332-9.1096-9.7403-7.9798L14.8507,72.5657Z" fill="#f99241"/><path d="M14.9574,72.4278s-5.2943.4831-7.0306,5.3812c-.1897.5328-.3257,1.0991-.3786,1.696-.0254.2871-.0018.7526.1538,1.6753.1862,1.1078.5374,2.9343,1.1998,5.8785l18.3501,81.564s1.8951,6.8385,10.3093,5.4841l150.4876-33.7737s6.4547-2.3847,5.7169-8.8429l-18.7529-84.415s-1.3332-9.1096-9.7403-7.9798L14.9574,72.4278Z" fill="#f99946"/><path d="M15.0641,72.2899s-5.2803.4731-7.0066,5.3832c-.187.5298-.3253,1.0945-.3796,1.6931-.0228.2512-.0012.7024.1619,1.6694.1865,1.1085.5376,2.9338,1.1988,5.8728l18.3512,81.5689s1.8952,6.8389,10.3105,5.4843l150.4232-33.7579s6.4547-2.3847,5.7169-8.8429l-18.7529-84.415s-1.3332-9.1096-9.7403-7.9798L15.0641,72.2899Z" fill="#f8a04a"/><path d="M15.1708,72.152s-5.2663.4632-6.9826,5.3852c-.1844.5267-.3249,1.0899-.3807,1.6902-.02.2152-.0007.6521.17,1.6635.1868,1.1092.5378,2.9333,1.1979,5.867l18.3523,81.5738s1.8954,6.8393,10.3116,5.4845l150.3588-33.7421s6.4547-2.3847,5.7169-8.8429l-18.7529-84.415s-1.3332-9.1096-9.7403-7.9798L15.1708,72.152Z" fill="#f8a64e"/><path d="M15.2775,72.0141s-5.2522.4533-6.9586,5.3873c-.1818.5237-.3245,1.0853-.3818,1.6873-.0171.1793-.0002.6019.1781,1.6576.187,1.1098.5381,2.9328,1.1969,5.8613l18.3534,81.5787s1.8955,6.8397,10.3128,5.4847l150.2944-33.7263s6.4547-2.3847,5.7169-8.8429l-18.7529-84.415s-1.3332-9.1096-9.7403-7.9798L15.2775,72.0141Z" fill="#f8ad53"/><path d="M15.3842,71.8761s-5.2382.4433-6.9347,5.3893c-.1792.5207-.3241,1.0806-.3829,1.6844-.014.1434.0003.5516.1862,1.6517.1873,1.1105.5383,2.9323,1.196,5.8555l18.3545,81.5836s1.8956,6.8401,10.3139,5.4849l150.23-33.7106s6.4547-2.3847,5.7169-8.8429l-18.7529-84.415s-1.3332-9.1096-9.7403-7.9798L15.3842,71.8761Z" fill="#f8b457"/><path d="M15.4909,71.7382s-5.2241.4334-6.9107,5.3913c-.1766.5176-.3237,1.076-.384,1.6815-.0107.1076.0009.5014.1943,1.6457.1876,1.1112.5385,2.9318,1.195,5.8497l18.3556,81.5885s1.8958,6.8405,10.3151,5.4851l150.1656-33.6948s6.4547-2.3847,5.7169-8.8429l-18.7529-84.415s-1.3332-9.1096-9.7403-7.9798L15.4909,71.7382Z" fill="#f8ba5c"/><path d="M15.5976,71.6003s-5.2101.4235-6.8867,5.3934c-.1739.5146-.3233,1.0713-.3851,1.6786-.0073.0717.0014.4511.2024,1.6398.1879,1.1119.5387,2.9313,1.194,5.844l18.3567,81.5934s1.8959,6.8409,10.3162,5.4853l150.1013-33.679s6.4547-2.3847,5.7169-8.8429l-18.7529-84.415s-1.3332-9.1096-9.7403-7.9798L15.5976,71.6003Z" fill="#f8c160"/><path d="M15.7043,71.4624s-5.196.4136-6.8627,5.3954c-.1713.5116-.3229,1.0667-.3862,1.6757-.0037.0358.0019.4009.2105,1.6339.1881,1.1125.5389,2.9308,1.1931,5.8382l18.3578,81.5983s1.896,6.8413,10.3173,5.4855l150.0369-33.6632s6.4547-2.3847,5.7169-8.8429l-18.7529-84.415s-1.3332-9.1096-9.7403-7.9798L15.7043,71.4624Z" fill="#f8c765"/><path d="M175.6097,46.0388s-1.3332-9.1096-9.7403-7.9798L15.8111,71.3245s-6.2911.49-7.226,7.0703c0,0,.0085,1.2281,1.4107,7.4605l18.3589,81.6032s1.8961,6.8417,10.3185,5.4857l149.9725-33.6474s6.4547-2.3847,5.7169-8.8429l-18.7529-84.415Z" fill="#f8ce69"/><path d="M175.5926,46.1011s-1.333-9.1096-9.7422-7.9794L15.7539,71.3958s-6.2794.4869-7.2149,7.0674c0,0,.0111,1.2274,1.4133,7.4599l18.3592,81.6044s1.88,6.8444,10.3045,5.4879l150.0106-33.656s6.4564-2.385,5.7188-8.8433l-18.7529-84.415Z" fill="url(#uuid-19da1760-bd33-4d4b-a124-eb1c0c3f81ff)"/><path d="M175.5755,46.1634s-1.3329-9.1097-9.7441-7.979L15.6967,71.4671s-6.2677.4838-7.2038,7.0645c0,0,.0137,1.2268,1.4159,7.4594l18.3595,81.6056s1.8639,6.8471,10.2905,5.4901l150.0488-33.6646s6.4581-2.3854,5.7207-8.8437l-18.7528-84.415Z" fill="url(#uuid-50a435f2-c82a-47bb-a7c6-a7f05bc85b29)"/><path d="M175.5585,46.2257s-1.3327-9.1097-9.746-7.9785L15.6395,71.5385s-6.2559.4807-7.1927,7.0616c0,0,.0163,1.2262,1.4185,7.4588l18.3597,81.6068s1.8478,6.8497,10.2765,5.4923l150.087-33.6732s6.4598-2.3858,5.7225-8.8442l-18.7527-84.415Z" fill="url(#uuid-77d00b0e-1a50-4a82-993b-91646a824ac1)"/><path d="M175.5414,46.288s-1.3325-9.1098-9.748-7.9781L15.5823,71.6098s-6.2442.4775-7.1816,7.0587c0,0,.0188,1.2255,1.4211,7.4583l18.36,81.6081s1.8317,6.8524,10.2625,5.4946l150.1252-33.6818s6.4615-2.3862,5.7244-8.8446l-18.7527-84.415Z" fill="url(#uuid-fd1a24ae-7627-4b3b-8a2e-c13c713c0872)"/><path d="M175.5243,46.3503s-1.3323-9.1098-9.7499-7.9777L15.5252,71.6811s-6.2325.4744-7.1705,7.0558c0,0,.0214,1.2249,1.4237,7.4577l18.3603,81.6093s1.8156,6.8551,10.2486,5.4968l150.1634-33.6904s6.4631-2.3866,5.7263-8.845l-18.7526-84.415Z" fill="url(#uuid-17e7c7cc-3a77-47f9-b89a-3b68cb0efef1)"/><path d="M175.5072,46.4127s-1.3322-9.1098-9.7518-7.9772L15.468,71.7525s-6.2207.4713-7.1593,7.0529c0,0,.024,1.2242,1.4264,7.4572l18.3606,81.6105s1.7995,6.8578,10.2346,5.499l150.2015-33.699s6.4648-2.387,5.7281-8.8454l-18.7526-84.415Z" fill="url(#uuid-8f103a92-3672-4222-8351-b172519cfd72)"/><path d="M175.4902,46.475s-1.332-9.1099-9.7537-7.9768L15.4108,71.8238s-6.209.4682-7.1482,7.05c0,0,.0266,1.2236,1.429,7.4566l18.3608,81.6117s1.7834,6.8605,10.2206,5.5012l150.2397-33.7075s6.4665-2.3873,5.73-8.8458l-18.7525-84.415Z" fill="url(#uuid-df6bf708-18a5-4586-8d23-634874a2f687)"/><path d="M175.4731,46.5373s-1.3318-9.1099-9.7557-7.9764L15.3536,71.8951s-6.1973.4651-7.1371,7.0471c0,0,.0292,1.2229,1.4316,7.4561l18.3611,81.613s1.7673,6.8632,10.2066,5.5035l150.2779-33.7161s6.4682-2.3877,5.7319-8.8463l-18.7524-84.4151Z" fill="url(#uuid-216717b3-bfb2-4a8e-8313-10f689b3d304)"/><path d="M175.456,46.5996s-1.3316-9.1099-9.7576-7.9759L15.2964,71.9665s-6.1855.4619-7.126,7.0442c0,0,.0318,1.2223,1.4342,7.4555l18.3614,81.6142s1.7512,6.8659,10.1926,5.5057l150.3161-33.7247s6.4699-2.3881,5.7338-8.8467l-18.7524-84.4151Z" fill="url(#uuid-35d04145-1379-4462-a025-9b6ca6750ccb)"/><path d="M175.4389,46.6619s-1.3315-9.11-9.7595-7.9755L15.2393,72.0378s-6.1738.4588-7.1149,7.0413c0,0,.0343,1.2216,1.4368,7.455l18.3616,81.6154s1.7351,6.8686,10.1786,5.5079l150.3543-33.7333s6.4716-2.3885,5.7356-8.8471l-18.7523-84.4151Z" fill="url(#uuid-5d33643a-743c-479a-955c-56d53816e87a)"/><path d="M175.4219,46.7242s-1.3313-9.11-9.7614-7.9751L15.1821,72.1091s-6.1621.4557-7.1038,7.0384c0,0,.0369,1.221,1.4394,7.4544l18.3619,81.6166s1.719,6.8713,10.1647,5.5101l150.3924-33.7419s6.4733-2.3889,5.7375-8.8475l-18.7523-84.4151Z" fill="url(#uuid-fc9157fb-862a-4062-b5ec-059a5104002f)"/><path d="M175.4048,46.7865s-1.3311-9.1101-9.7634-7.9746L15.1249,72.1805s-6.1503.4526-7.0927,7.0355c0,0,.0395,1.2203,1.442,7.4539l18.3622,81.6178s1.7029,6.874,10.1507,5.5123l150.4306-33.7505s6.475-2.3892,5.7394-8.8479l-18.7522-84.4151Z" fill="url(#uuid-201adaac-ef0e-4620-8809-10c066d684e9)"/><path d="M175.3877,46.8488s-1.331-9.1101-9.7653-7.9742L15.0677,72.2518s-6.1386.4495-7.0816,7.0326c0,0,.0421,1.2197,1.4446,7.4533l18.3625,81.6191s1.6868,6.8767,10.1367,5.5146l150.4688-33.7591s6.4767-2.3896,5.7412-8.8484l-18.7522-84.4151Z" fill="url(#uuid-c76c8b37-fb2f-48f3-87b8-27bd418d30ce)"/><path d="M175.3706,46.9111s-1.3308-9.1101-9.7672-7.9738L15.0105,72.3231s-6.1268.4463-7.0705,7.0297c0,0,.0447,1.219,1.4472,7.4528l18.3627,81.6203s1.6707,6.8794,10.1227,5.5168l150.507-33.7677s6.4784-2.39,5.7431-8.8488l-18.7521-84.4151Z" fill="url(#uuid-5b7046a8-02d7-4063-961d-f0a210d21216)"/><path d="M175.3536,46.9734s-1.3306-9.1102-9.7691-7.9733L14.9534,72.3944s-6.1151.4432-7.0594,7.0268c0,0,.0473,1.2184,1.4498,7.4523l18.363,81.6215s1.6546,6.8821,10.1087,5.519l150.5451-33.7763s6.4801-2.3904,5.745-8.8492l-18.752-84.4152Z" fill="url(#uuid-7911e7b3-07ac-42f4-87b8-3b5e7e4620bf)"/><path d="M175.3365,47.0357s-1.3304-9.1102-9.7711-7.9729L14.8962,72.4658s-6.1034.4401-7.0483,7.024c0,0,.0499,1.2177,1.4524,7.4517l18.3633,81.6227s1.6385,6.8848,10.0947,5.5212l150.5833-33.7848s6.4818-2.3908,5.7468-8.8496l-18.752-84.4152Z" fill="url(#uuid-a510c53b-c150-41a6-949c-69b1a39190c8)"/><path d="M177.6202,57.2331c-.5345-.3541-1.19-.5234-1.8418-.4478l-7.9752.9136h0c-.0691.0077-.1385.0197-.2078.0362-.9045.216-1.4625,1.1243-1.2466,2.0288l.6432,2.6929c.0121.0542-.0216.1082-.0758.1211-.0246.0059-.0491.0023-.07-.0083l.0004.0003c-5.6413-3.0726-11.8384-5.8835-18.4834-8.0758-1.278-.4734-2.689-.5862-4.1141-.2458v.0003l-.0037.0009v-.0003c-1.4252.3403-2.633,1.0786-3.5591,2.0784h0c-22.8144,22.9128-31.1295,53.2884-31.3458,54.8992h.0001c-.0801.3817-.0792.7867.0175,1.1912.296,1.2394,1.395,2.0771,2.6135,2.0932l8.0632-.3575c1.0972.0365,2.0888.736,2.4641,1.7907.3583,1.243,7.8149,26.9483,11.8801,36.7505l17.2074-3.8606c-.9446-3.0734-2.2927-7.5198-3.6438-12.1542-.0463-.1589-.1068-.3569-.1534-.5174h0c-.1615-.5491-.5833-.96-1.0968-1.1255-2.6437-.8318-4.8202-2.9279-5.6493-5.7478-2.9504-10.564-6.0982-22.8351-7.8171-32.6149-.1452-.8134.3594-1.6136,1.1727-1.823.8529-.2195,1.7223.294,1.9418,1.1469.0104.0407.0192.0813.0264.122,1.1547,6.517,2.935,14.1226,4.8642,21.5853h0c.2596,1.0089,1.2884,1.6168,2.2973,1.3572,1.009-.2597,1.6164-1.2884,1.3567-2.2973-1.9415-7.5138-3.7303-15.1692-4.88-21.7102-.1451-.8134.3595-1.6136,1.1728-1.823.8529-.2195,1.7223.294,1.9417,1.1469.0105.0406.0193.0813.0265.122,1.1486,6.4826,2.9164,14.0429,4.8339,21.4676h0c.0004.0015.0008.003.0012.0044.2613,1.0054,1.2872,1.6101,2.2938,1.3511,1.0041-.2584,1.6101-1.2791,1.3584-2.2833h0c-1.9309-7.4797-3.7082-15.0938-4.8526-21.604-.1451-.8134.3595-1.6136,1.1728-1.823.8529-.2195,1.7223.294,1.9417,1.1469.0105.0406.0193.0813.0265.122,1.6839,9.5042,4.6984,21.3237,7.565,31.6388.0018.0065.0252.0901.0269.0967.0141.0523.0279.1048.0412.1575.0001.0002.0001.0004.0001.0006.0087.034.0169.0682.0252.1024.6797,2.8461-.1482,5.6997-1.968,7.7217-.3245.3616-.4839.8574-.3977,1.3696,0,0,.1902,1.6434,2.7465,9.2183.5273,1.5316.9834,2.8407,1.3589,3.9106l18.3185-4.1099c-1.0474-7.861-1.8701-12.1674-1.8701-12.1674-.112-.469-.5542-.7351-1.0417-.695l-5.4871.5357c-.875.0532-1.4977-.3453-1.8292-.9391-.2023-.3598-.2626-.8041-.2626-.8041-5.234-31.4449,2.4743-44.3042,2.4743-44.3042.228-.3785.3926-.5453.3926-.5453.2227-.2601.5267-.4547.885-.5403.6916-.1652,1.3858.1245,1.7693.6749,0,0,.1352.1955.3092.712,3.2022,9.5126,6.7241,26.1601,9.2623,39.1973,1.4374,7.3833,2.5805,13.7239,3.1825,17.1289l3.0275-.6792s6.4547-2.3847,5.7168-8.8429l-16.5475-74.4875Z" fill="url(#uuid-fb514c03-f1b0-42a6-9939-8c5311caa6e8)"/><path d="M39.9727,126.1785l-1.9755-9.7637c-.0989-.4889.2173-.9653.7061-1.0642l13.8344-2.7963c.4885-.0987.9646.217,1.0638.7054l1.9276,9.4911c.0979.4823-.2083.9542-.6887,1.0611l-13.7864,3.0689c-.4935.1099-.981-.2068-1.0813-.7023Z" fill="#b9471e"/><path d="M38.9215,125.5312l-1.9755-9.7637c-.0989-.4889.2173-.9653.7061-1.0642l13.8344-2.7963c.4885-.0987.9646.217,1.0638.7054l1.9276,9.4911c.0979.4823-.2083.9542-.6887,1.0611l-13.7864,3.0689c-.4935.1099-.981-.2068-1.0813-.7023Z" fill="#fff"/><path d="M75.6929,101.9435c-.0396.0171-.0786.0369-.1166.0595-.4947.2915-.6593.9286-.3678,1.4231,2.0686,3.5105,3.3098,7.5791,3.5893,11.7658.2552,3.8234-.2924,7.6791-1.584,11.1509-.2.538.0739,1.1366.612,1.3367.5383.2001,1.1364-.0743,1.3367-.612,1.393-3.7452,1.9843-7.8996,1.7096-12.0143-.3009-4.5085-1.6401-8.894-3.8726-12.6824-.2688-.4565-.8325-.6321-1.3066-.4273Z" fill="#b9471e"/><path d="M70.9855,105.0312c-.0492.0212-.0971.0464-.1437.0759-.4855.3065-.6307.9485-.3243,1.4339,1.6707,2.6471,2.6684,5.763,2.8851,9.0107.1887,2.8224-.2205,5.6583-1.1828,8.2009-.2034.537.0672,1.137.6041,1.3401.5368.2029,1.1369-.0669,1.3401-.6041,1.0672-2.8194,1.5212-5.9577,1.313-9.0754-.2395-3.5917-1.3465-7.0434-3.2012-9.9818-.277-.439-.8283-.5997-1.2902-.4002Z" fill="#b9471e"/><path d="M71.1608,115.7014c.1542,2.3085-.1937,4.6333-1.0059,6.7231-.2082.5354-.8106.8003-1.3454.5923-.5351-.2081-.8002-.8104-.5923-1.3455.7028-1.808,1.0036-3.8246.8695-5.8314-.1659-2.4836-.9727-4.8251-2.3332-6.7712-.3291-.4706-.2143-1.1187.2562-1.4475.059-.0412.1207-.0755.1844-.103.4436-.1916.9756-.0523,1.2631.3592,1.5779,2.2567,2.5129,4.9622,2.7038,7.8239Z" fill="#b9471e"/><path d="M63.241,109.9781c-.0919.0397-.1795.0933-.2597.1612-.4382.371-.4927,1.027-.1219,1.465,1.0781,1.2737,1.7376,2.9585,1.8566,4.744.0865,1.294-.1177,2.5911-.5906,3.7512-.2168.5315.0385,1.1383.5701,1.3548.5318.2169,1.1383-.0385,1.3548-.5701.5916-1.4509.8474-3.0673.74-4.6744-.1485-2.2258-.981-4.3385-2.3441-5.9487-.303-.3579-.7962-.4598-1.2053-.283Z" fill="#b9471e"/><path d="M75.6929,101.9435c-.0396.0171-.0786.0369-.1166.0595-.4947.2915-.6593.9286-.3678,1.4231,2.0686,3.5105,3.3098,7.5791,3.5893,11.7658.2552,3.8234-.2924,7.6791-1.584,11.1509-.2.538.0739,1.1366.612,1.3367.5383.2001,1.1364-.0743,1.3367-.612,1.393-3.7452,1.9843-7.8996,1.7096-12.0143-.3009-4.5085-1.6401-8.894-3.8726-12.6824-.2688-.4565-.8325-.6321-1.3066-.4273Z" fill="#b9471e"/><path d="M70.9855,105.0312c-.0492.0212-.0971.0464-.1437.0759-.4855.3065-.6307.9485-.3243,1.4339,1.6707,2.6471,2.6684,5.763,2.8851,9.0107.1887,2.8224-.2205,5.6583-1.1828,8.2009-.2034.537.0672,1.137.6041,1.3401.5368.2029,1.1369-.0669,1.3401-.6041,1.0672-2.8194,1.5212-5.9577,1.313-9.0754-.2395-3.5917-1.3465-7.0434-3.2012-9.9818-.277-.439-.8283-.5997-1.2902-.4002Z" fill="#b9471e"/><path d="M71.1608,115.7014c.1542,2.3085-.1937,4.6333-1.0059,6.7231-.2082.5354-.8106.8003-1.3454.5923-.5351-.2081-.8002-.8104-.5923-1.3455.7028-1.808,1.0036-3.8246.8695-5.8314-.1659-2.4836-.9727-4.8251-2.3332-6.7712-.3291-.4706-.2143-1.1187.2562-1.4475.059-.0412.1207-.0755.1844-.103.4436-.1916.9756-.0523,1.2631.3592,1.5779,2.2567,2.5129,4.9622,2.7038,7.8239Z" fill="#b9471e"/><path d="M63.241,109.9781c-.0919.0397-.1795.0933-.2597.1612-.4382.371-.4927,1.027-.1219,1.465,1.0781,1.2737,1.7376,2.9585,1.8566,4.744.0865,1.294-.1177,2.5911-.5906,3.7512-.2168.5315.0385,1.1383.5701,1.3548.5318.2169,1.1383-.0385,1.3548-.5701.5916-1.4509.8474-3.0673.74-4.6744-.1485-2.2258-.981-4.3385-2.3441-5.9487-.303-.3579-.7962-.4598-1.2053-.283Z" fill="#b9471e"/><path d="M73.0829,100.6954c-.0383.0199-.0757.0424-.112.0676-.4726.3261-.5914.9734-.2653,1.4458,2.3138,3.3534,3.8426,7.3228,4.4204,11.4794.5276,3.7954.2568,7.6804-.7836,11.2356-.161.5509.1549,1.1284.7059,1.2896.5512.1611,1.1284-.1549,1.2896-.7059,1.1219-3.8351,1.4151-8.0212.8471-12.1058-.6223-4.4759-2.2712-8.7548-4.7685-12.3734-.3009-.4364-.8755-.5711-1.3337-.3329Z" fill="#fff"/><path d="M73.8295,114.1462c.4304,3.0949.2017,6.2575-.6614,9.146-.1644.5503-.7436.8623-1.2936.6982-.55-.1643-.8627-.7434-.6982-1.2936.7783-2.6048.9839-5.4626.5941-8.2644-.448-3.2239-1.6658-6.2607-3.5213-8.7817-.3403-.4622-.2413-1.113.2211-1.4534.0444-.0327.0904-.0612.1379-.0859.4464-.232,1.0078-.111,1.3155.307,2.0598,2.7985,3.4106,6.1623,3.906,9.7277Z" fill="#fff"/><path d="M69.545,114.7419c.3189,2.292.1379,4.6357-.5234,6.7779-.1693.5488-.7509.8562-1.2996.6866-.5485-.1692-.856-.751-.6866-1.2996.5718-1.8533.7276-3.8861.4506-5.8785-.3428-2.4659-1.3147-4.7436-2.8108-6.5873-.3617-.4457-.2936-1.1003.1521-1.4621.0559-.0453.115-.0839.1765-.1159.4288-.2228.9691-.1218,1.2855.2681,1.735,2.1378,2.8607,4.7697,3.2557,7.6108Z" fill="#fff"/><path d="M61.2369,109.5988c-.0888.0462-.1721.1058-.2475.1793-.4104.4012-.4182,1.0593-.0169,1.47,1.1661,1.1935,1.9443,2.827,2.1908,4.5995.1784,1.2844.0673,2.5928-.3214,3.7837-.1783.5456.1197,1.1327.6654,1.3107.546.1786,1.1327-.1197,1.3107-.6654.4865-1.4894.6263-3.1198.4046-4.7152-.3074-2.2096-1.2885-4.2572-2.763-5.7663-.3278-.3353-.827-.4018-1.2225-.1962Z" fill="#fff"/><path d="M177.6202,57.2331c-.5345-.3541-1.19-.5234-1.8418-.4478l-7.9752.9136h0c-.0691.0077-.1385.0197-.2078.0362-.9045.216-1.4625,1.1243-1.2466,2.0288l.6432,2.6929c.0121.0542-.0216.1082-.0758.1211-.0246.0059-.0491.0023-.07-.0083l.0004.0003c-5.6413-3.0726-11.8384-5.8835-18.4834-8.0758-1.278-.4734-2.689-.5862-4.1141-.2458v.0003l-.0037.0009v-.0003c-1.4252.3403-2.633,1.0786-3.5591,2.0784h0c-22.8144,22.9128-31.1295,53.2884-31.3458,54.8992h.0001c-.0801.3817-.0792.7867.0175,1.1912.296,1.2394,1.395,2.0771,2.6135,2.0932l8.0632-.3575c1.0972.0365,2.0888.736,2.4641,1.7907.3583,1.243,7.8149,26.9483,11.8801,36.7505l17.2074-3.8606c-.9446-3.0734-2.2927-7.5198-3.6438-12.1542-.0463-.1589-.1068-.3569-.1534-.5174h0c-.1615-.5491-.5833-.96-1.0968-1.1255-2.6437-.8318-4.8202-2.9279-5.6493-5.7478-2.9504-10.564-6.0982-22.8351-7.8171-32.6149-.1452-.8134.3594-1.6136,1.1727-1.823.8529-.2195,1.7223.294,1.9418,1.1469.0104.0407.0192.0813.0264.122,1.1547,6.517,2.935,14.1226,4.8642,21.5853h0c.2596,1.0089,1.2884,1.6168,2.2973,1.3572,1.009-.2597,1.6164-1.2884,1.3567-2.2973-1.9415-7.5138-3.7303-15.1692-4.88-21.7102-.1451-.8134.3595-1.6136,1.1728-1.823.8529-.2195,1.7223.294,1.9417,1.1469.0105.0406.0193.0813.0265.122,1.1486,6.4826,2.9164,14.0429,4.8339,21.4676h0c.0004.0015.0008.003.0012.0044.2613,1.0054,1.2872,1.6101,2.2938,1.3511,1.0041-.2584,1.6101-1.2791,1.3584-2.2833h0c-1.9309-7.4797-3.7082-15.0938-4.8526-21.604-.1451-.8134.3595-1.6136,1.1728-1.823.8529-.2195,1.7223.294,1.9417,1.1469.0105.0406.0193.0813.0265.122,1.6839,9.5042,4.6984,21.3237,7.565,31.6388.0018.0065.0252.0901.0269.0967.0141.0523.0279.1048.0412.1575.0001.0002.0001.0004.0001.0006.0087.034.0169.0682.0252.1024.6797,2.8461-.1482,5.6997-1.968,7.7217-.3245.3616-.4839.8574-.3977,1.3696,0,0,.1902,1.6434,2.7465,9.2183.5273,1.5316.9834,2.8407,1.3589,3.9106l18.3185-4.1099c-1.0474-7.861-1.8701-12.1674-1.8701-12.1674-.112-.469-.5542-.7351-1.0417-.695l-5.4871.5357c-.875.0532-1.4977-.3453-1.8292-.9391-.2023-.3598-.2626-.8041-.2626-.8041-5.234-31.4449,2.4743-44.3042,2.4743-44.3042.228-.3785.3926-.5453.3926-.5453.2227-.2601.5267-.4547.885-.5403.6916-.1652,1.3858.1245,1.7693.6749,0,0,.1352.1955.3092.712,3.2022,9.5126,6.7241,26.1601,9.2623,39.1973,1.4374,7.3833,2.5805,13.7239,3.1825,17.1289l3.0275-.6792s6.4547-2.3847,5.7168-8.8429l-16.5475-74.4875Z" fill="#ffefe1" opacity=".29"/></g><g id="uuid-73d110a8-4ce5-4b50-895e-da1dad91eda5"><ellipse cx="57.3322" cy="181.5914" rx="37.0225" ry="5.3503" fill="#090909" opacity=".07"/></g></svg>