<?xml version="1.0" encoding="UTF-8"?><svg xmlns="http://www.w3.org/2000/svg" width="200" height="200" xmlns:xlink="http://www.w3.org/1999/xlink" viewBox="0 0 200 200"><defs><linearGradient id="uuid-c4edcab8-5e8b-4b3f-83fc-f58ee1385780" x1="35.264" y1="45.2094" x2="83.7075" y2="205.3696" gradientUnits="userSpaceOnUse"><stop offset="0" stop-color="#fbe7b4"/><stop offset=".0218" stop-color="#fbd290"/><stop offset=".0567" stop-color="#fcb55d"/><stop offset=".0895" stop-color="#fd9e34"/><stop offset=".1193" stop-color="#fe8d17"/><stop offset=".1451" stop-color="#fe8306"/><stop offset=".1639" stop-color="#ff8000"/><stop offset=".2097" stop-color="#fb7210"/><stop offset=".2762" stop-color="#f86321"/><stop offset=".3248" stop-color="#f75e28"/><stop offset=".7021" stop-color="#f75e28"/><stop offset=".7278" stop-color="#f8651f"/><stop offset=".8116" stop-color="#fd7808"/><stop offset=".8643" stop-color="#ff8000"/><stop offset=".898" stop-color="#fda13a"/><stop offset=".9319" stop-color="#fcbf6e"/><stop offset=".9615" stop-color="#fbd494"/><stop offset=".9852" stop-color="#fbe2ab"/><stop offset="1" stop-color="#fbe7b4"/></linearGradient><linearGradient id="uuid-41e0edcb-6b38-4bc9-97bc-aa2a8cb75cd3" x1="44.6327" y1="119.6913" x2="4.4707" y2="101.868" gradientUnits="userSpaceOnUse"><stop offset=".0824" stop-color="#c64528"/><stop offset=".144" stop-color="#cb4728" stop-opacity=".8834"/><stop offset=".2734" stop-color="#da4f28" stop-opacity=".5828"/><stop offset=".4585" stop-color="#f15b28" stop-opacity=".1052"/><stop offset=".4975" stop-color="#f75e28" stop-opacity="0"/></linearGradient><linearGradient id="uuid-cbaa7316-2473-455a-8eec-362829a4f9e1" x1="47.9921" y1="84.5232" x2="42.5521" y2="87.959" gradientUnits="userSpaceOnUse"><stop offset="0" stop-color="#fff"/><stop offset=".0273" stop-color="#fde5dd"/><stop offset=".0715" stop-color="#fbc2ad"/><stop offset=".117" stop-color="#faa384"/><stop offset=".1631" stop-color="#f98a63"/><stop offset=".2102" stop-color="#f87649"/><stop offset=".2584" stop-color="#f76836"/><stop offset=".3086" stop-color="#f7602b"/><stop offset=".364" stop-color="#f75e28"/><stop offset=".8849" stop-color="#c64528"/></linearGradient><linearGradient id="uuid-7a9f9b6b-e2a1-475b-9f98-155e86e8dddf" x1="72.018" y1="77.715" x2="67.8593" y2="85.082" gradientUnits="userSpaceOnUse"><stop offset="0" stop-color="#fff"/><stop offset=".0273" stop-color="#fde5dd"/><stop offset=".0715" stop-color="#fbc2ad"/><stop offset=".117" stop-color="#faa384"/><stop offset=".1631" stop-color="#f98a63"/><stop offset=".2102" stop-color="#f87649"/><stop offset=".2584" stop-color="#f76836"/><stop offset=".3086" stop-color="#f7602b"/><stop offset=".364" stop-color="#f75e28"/><stop offset=".8856" stop-color="#c64528"/></linearGradient><linearGradient id="uuid-3d84e904-5345-44ed-8bbd-ba11c0b704e8" x1="101.1824" y1="152.493" x2="17.3238" y2="54.2344" gradientUnits="userSpaceOnUse"><stop offset="0" stop-color="#c64528"/><stop offset=".0491" stop-color="#d04a28"/><stop offset=".1342" stop-color="#ed5828"/><stop offset=".1601" stop-color="#f75e28"/><stop offset=".2631" stop-color="#fc740d"/><stop offset=".3378" stop-color="#ff8000"/><stop offset=".6534" stop-color="#ff8000"/><stop offset=".6944" stop-color="#fe870c"/><stop offset=".7701" stop-color="#fd9a2e"/><stop offset=".872" stop-color="#fcba65"/><stop offset=".9953" stop-color="#fbe5b0"/><stop offset="1" stop-color="#fbe7b4"/></linearGradient><linearGradient id="uuid-d67c21ce-8726-4b97-b63f-844e8dcad7b3" x1="151.6372" y1="31.7811" x2="133.8926" y2="180.9312" gradientUnits="userSpaceOnUse"><stop offset="0" stop-color="#fbe7b4"/><stop offset=".0575" stop-color="#fac995"/><stop offset=".1583" stop-color="#f89b66"/><stop offset=".2476" stop-color="#f77944"/><stop offset=".321" stop-color="#f7652f"/><stop offset=".3694" stop-color="#f75e28"/><stop offset=".7305" stop-color="#f75e28"/><stop offset=".7701" stop-color="#f76a35"/><stop offset=".8438" stop-color="#f88d58"/><stop offset=".9429" stop-color="#f9c490"/><stop offset="1" stop-color="#fbe7b4"/></linearGradient><linearGradient id="uuid-f56cbb5c-8d55-44d2-99f1-d1fd33f5bf25" x1="178.881" y1="136.9521" x2="93.2755" y2="72.2085" gradientUnits="userSpaceOnUse"><stop offset="0" stop-color="#f75e28"/><stop offset=".1116" stop-color="#f8661e"/><stop offset=".2975" stop-color="#fe7b04"/><stop offset=".3278" stop-color="#ff8000"/><stop offset=".6607" stop-color="#ff8000"/><stop offset=".7019" stop-color="#fe8205"/><stop offset=".7522" stop-color="#fe8b14"/><stop offset=".8073" stop-color="#fe992c"/><stop offset=".8657" stop-color="#fdad4f"/><stop offset=".9268" stop-color="#fcc67b"/><stop offset=".9893" stop-color="#fbe5b1"/><stop offset=".9922" stop-color="#fbe7b4"/></linearGradient><linearGradient id="uuid-99e0808a-572e-406e-876a-02901d9f8957" x1="137.3571" y1="71.8377" x2="124.863" y2="113.4847" xlink:href="#uuid-41e0edcb-6b38-4bc9-97bc-aa2a8cb75cd3"/><linearGradient id="uuid-04a02895-ba3d-4a8b-8adb-c453b2e6ed60" x1="143.0288" y1="129.6126" x2="117.6212" y2="97.7945" gradientUnits="userSpaceOnUse"><stop offset="0" stop-color="#c64528"/><stop offset=".0404" stop-color="#ca4728" stop-opacity=".9147"/><stop offset=".2349" stop-color="#dd5028" stop-opacity=".5264"/><stop offset=".3955" stop-color="#eb5728" stop-opacity=".242"/><stop offset=".5143" stop-color="#f35c28" stop-opacity=".0664"/><stop offset=".5782" stop-color="#f75e28" stop-opacity="0"/></linearGradient></defs><g id="uuid-e6fb7bf4-f5a5-4b30-b74f-f9e3531976a2"><path d="M86.5614,164.3874c.008-.0021.0161-.0039.0241-.0058-1.1917-4.9741-2.3835-9.9485-3.5752-14.9226.0016-.0008.0032-.0016.0048-.0025.0074-.0037.0149-.0076.0223-.0113l3.4836-1.7569c1.7591-.8684,3.7444-2.0688,5.7209-3.7312,11.2227-9.4395,10.7362-24.17,10.6619-25.6786-.124-2.5188-.4556-8.0042-3.7482-13.5095-8.507-14.224-28.2016-14.2367-29.6804-14.2157-.4589-1.6636-.9179-3.3274-1.3768-4.9912.0004-.0006.0007-.0012.0011-.0021.0036.0031.008.0066.0116.0095.0037-.007.0075-.014.0112-.021.0036.0031.008.0066.0116.0097l8.6292-4.3521c3.6439-6.8126,7.2878-13.625,10.9317-20.4376-2.9363-1.8993-7.2494-4.2406-12.8328-5.8618-6.0862-1.7672-11.3945-2.0146-15.0508-1.9011-1.4787-4.9113-2.9573-9.8227-4.436-14.734-6.7597,1.6371-13.5193,3.2742-20.279,4.9113,0,0-.0218.0152-.0214.0171l-11.3628,5.7244c.0005.0018.0009.0039.0014.0058-.0081.0018-.0161.0039-.0242.0058,1.0349,4.2338,2.0699,8.4679,3.1049,12.7017.2102.86-.2007,1.7514-.9912,2.1501l-.5572.281c-2.0709,1.021-4.5207,2.5063-6.9431,4.671-1.2127,1.0837-14.5327,13.4-10.4564,29.943,4.0015,16.2393,20.957,21.0916,22.6554,21.5466,3.533.9466,6.7065,1.1087,9.138,1.0234,1.0599,1.7337,1.3119,2.1459,2.3719,3.8796h0c-.0041-.0023-.0087-.0043-.0127-.0066-.0033.006-.0067.0121-.01.0181-.0041-.0023-.0087-.0045-.0128-.0068-.0033.0062-.0067.0123-.01.0183-.0041-.0023-11.279,5.6796-11.2831,5.6773-.0033.0062-.0067.0123-.01.0183-.0041-.0023-.0087-.0045-.0128-.0068-3.6121,6.572-7.2243,13.1442-10.8365,19.7162-.3271.5951-.1553,1.3404.4029,1.7271,5.884,4.0762,15.3086,8.9875,26.4816,8.0271.9141-.0786,1.8055-.1935,2.6737-.3398.434-.0732.8534.1879.9685.6127,1.1607,4.2855,2.3214,8.5712,3.482,12.8567.2419.8932,1.1483,1.4338,2.0492,1.2223,6.4324-1.5106,12.8649-3.0213,19.2973-4.5319l11.3828-5.7472Z" fill="url(#uuid-c4edcab8-5e8b-4b3f-83fc-f58ee1385780)"/><path d="M39.6394,121.2527l12.864-5.3505s-18.3779-1.109-24.715-9.0305l-12.3575,5.0698s9.9188,9.9089,24.2086,9.3113Z" fill="url(#uuid-41e0edcb-6b38-4bc9-97bc-aa2a8cb75cd3)"/><path d="M41.9486,87.1853c-.5446-2.1289,1.0823-3.8737,2.7131-4.9905.5809,2.5877,1.1618,5.1753,1.7427,7.763-1.6301-.2429-3.9962-.9757-4.4559-2.7725Z" fill="url(#uuid-cbaa7316-2473-455a-8eec-362829a4f9e1)"/><path d="M76.8229,81.2442c-1.4087-1.1969-3.7926-2.8825-7.1293-3.8025-1.4748-.4067-2.8239-.5776-3.9607-.6337l2.5292,8.7538,8.5609-4.3176Z" fill="url(#uuid-7a9f9b6b-e2a1-475b-9f98-155e86e8dddf)"/><path d="M102.9638,118.3167c-.124-2.5188-.4556-8.0042-3.7482-13.5095-8.507-14.224-28.2016-14.2367-29.6804-14.2157-1.2674-4.5944-2.5349-9.189-3.8023-13.7834,1.1369.0561,2.486.2271,3.9607.6337,3.3367.9199,5.7207,2.6055,7.1293,3.8025,3.6439-6.8126,7.2878-13.625,10.9317-20.4376-2.9363-1.8993-7.2494-4.2406-12.8328-5.8618-6.0862-1.7672-11.3945-2.0146-15.0508-1.9011-1.4787-4.9113-2.9573-9.8227-4.436-14.734-6.7597,1.6371-13.5193,3.2742-20.279,4.9113,1.1618,4.7528,2.3236,9.5059,3.4855,14.2587-2.3643.9808-5.6426,2.659-8.8721,5.5452-1.2127,1.0837-14.5327,13.4-10.4564,29.943,4.0015,16.2393,20.957,21.0916,22.6554,21.5466,4.2128,1.1287,7.9145,1.1421,10.4564.9506,1.2674,4.7,2.5349,9.4002,3.8023,14.1003-1.5837-.1755-3.3432-.4701-5.2282-.9506-3.6118-.9204-6.5868-2.2426-8.8721-3.4854-3.8023,6.918-7.6046,13.8362-11.4069,20.7542,5.7864,4.1851,15.6437,9.7315,27.455,8.7162,1.1848-.1019,2.3315-.2647,3.4388-.478,1.3731,5.0697,2.7461,10.1396,4.1192,15.2093,6.9709-1.6371,13.9418-3.2742,20.9127-4.9113-1.2146-5.0697-2.4292-10.1396-3.6439-15.2093,2.2486-.7662,5.7886-2.2615,9.3002-5.2152,11.2227-9.4395,10.7362-24.17,10.6619-25.6786ZM41.9486,87.1853c-.5446-2.1883,1.0823-3.8737,2.7131-4.9905.5809,2.5877,1.1618,5.1753,1.7427,7.763-1.6301-.2429-4.0733-1.2352-4.4559-2.7725ZM76.9813,122.9111c-.5809-2.482-1.1618-4.9641-1.7427-7.4461,2.0424-.478,4.1165.8092,4.5945,2.8517.478,2.0425-.8093,4.1164-2.8517,4.5944Z" fill="#ff8000"/><path d="M102.9638,118.3167c-.124-2.5188-.4556-8.0042-3.7482-13.5095-8.507-14.224-28.2016-14.2367-29.6804-14.2157-1.2674-4.5944-2.5349-9.189-3.8023-13.7834,1.1369.0561,2.486.2271,3.9607.6337,3.3367.9199,5.7207,2.6055,7.1293,3.8025,3.6439-6.8126,7.2878-13.625,10.9317-20.4376-2.9363-1.8993-7.2494-4.2406-12.8328-5.8618-6.0862-1.7672-11.3945-2.0146-15.0508-1.9011-1.4787-4.9113-2.9573-9.8227-4.436-14.734-6.7597,1.6371-13.5193,3.2742-20.279,4.9113,1.1618,4.7528,2.3236,9.5059,3.4855,14.2587-2.3643.9808-5.6426,2.659-8.8721,5.5452-1.2127,1.0837-14.5327,13.4-10.4564,29.943,4.0015,16.2393,20.957,21.0916,22.6554,21.5466,4.2128,1.1287,7.9145,1.1421,10.4564.9506,1.2674,4.7,2.5349,9.4002,3.8023,14.1003-1.5837-.1755-3.3432-.4701-5.2282-.9506-3.6118-.9204-6.5868-2.2426-8.8721-3.4854-3.8023,6.918-7.6046,13.8362-11.4069,20.7542,5.7864,4.1851,15.6437,9.7315,27.455,8.7162,1.1848-.1019,2.3315-.2647,3.4388-.478,1.3731,5.0697,2.7461,10.1396,4.1192,15.2093,6.9709-1.6371,13.9418-3.2742,20.9127-4.9113-1.2146-5.0697-2.4292-10.1396-3.6439-15.2093,2.2486-.7662,5.7886-2.2615,9.3002-5.2152,11.2227-9.4395,10.7362-24.17,10.6619-25.6786ZM41.9486,87.1853c-.4413-1.8121,1.0823-3.8737,2.7131-4.9905.5809,2.5877,1.1618,5.1753,1.7427,7.763-1.6301-.2429-3.9905-.8614-4.4559-2.7725ZM75.6495,122.9909c-.7774-3.4759-.7985-3.5702-1.5758-7.0461,2.3493-1.4256,5.1894-.064,5.7594,2.3719.5753,2.458-1.4062,4.9616-4.1836,4.6742ZM102.9638,118.3167c-.124-2.5188-.4556-8.0042-3.7482-13.5095-8.507-14.224-28.2016-14.2367-29.6804-14.2157-1.2674-4.5944-2.5349-9.189-3.8023-13.7834,1.1369.0561,2.486.2271,3.9607.6337,3.3367.9199,5.7207,2.6055,7.1293,3.8025,3.6439-6.8126,7.2878-13.625,10.9317-20.4376-2.9363-1.8993-7.2494-4.2406-12.8328-5.8618-6.0862-1.7672-11.3945-2.0146-15.0508-1.9011-1.4787-4.9113-2.9573-9.8227-4.436-14.734-6.7597,1.6371-13.5193,3.2742-20.279,4.9113,1.1618,4.7528,2.3236,9.5059,3.4855,14.2587-2.3643.9808-5.6426,2.659-8.8721,5.5452-1.2127,1.0837-14.5327,13.4-10.4564,29.943,4.0015,16.2393,20.957,21.0916,22.6554,21.5466,4.2128,1.1287,7.9145,1.1421,10.4564.9506,1.2674,4.7,2.5349,9.4002,3.8023,14.1003-1.5837-.1755-3.3432-.4701-5.2282-.9506-3.6118-.9204-6.5868-2.2426-8.8721-3.4854-3.8023,6.918-7.6046,13.8362-11.4069,20.7542,5.7864,4.1851,15.6437,9.7315,27.455,8.7162,1.1848-.1019,2.3315-.2647,3.4388-.478,1.3731,5.0697,2.7461,10.1396,4.1192,15.2093,6.9709-1.6371,13.9418-3.2742,20.9127-4.9113-1.2146-5.0697-2.4292-10.1396-3.6439-15.2093,2.2486-.7662,5.7886-2.2615,9.3002-5.2152,11.2227-9.4395,10.7362-24.17,10.6619-25.6786ZM41.9486,87.1853c-.5093-2.2338,1.0823-3.8737,2.7131-4.9905.5809,2.5877,1.1618,5.1753,1.7427,7.763-1.6301-.2429-4.0202-.8614-4.4559-2.7725ZM75.6495,122.9909c-.7774-3.4759-.7985-3.5702-1.5758-7.0461,2.3493-1.4256,5.1894-.064,5.7594,2.3719.5753,2.458-1.4062,4.9616-4.1836,4.6742ZM102.9638,118.3167c-.124-2.5188-.4556-8.0042-3.7482-13.5095-8.507-14.224-28.2016-14.2367-29.6804-14.2157-1.2674-4.5944-2.5349-9.189-3.8023-13.7834,1.1369.0561,2.486.2271,3.9607.6337,3.3367.9199,5.7207,2.6055,7.1293,3.8025,3.6439-6.8126,7.2878-13.625,10.9317-20.4376-2.9363-1.8993-7.2494-4.2406-12.8328-5.8618-6.0862-1.7672-11.3945-2.0146-15.0508-1.9011-1.4787-4.9113-2.9573-9.8227-4.436-14.734-6.7597,1.6371-13.5193,3.2742-20.279,4.9113,1.1618,4.7528,2.3236,9.5059,3.4855,14.2587-2.3643.9808-5.6426,2.659-8.8721,5.5452-1.2127,1.0837-14.5327,13.4-10.4564,29.943,4.0015,16.2393,20.957,21.0916,22.6554,21.5466,4.2128,1.1287,7.9145,1.1421,10.4564.9506,1.2674,4.7,2.5349,9.4002,3.8023,14.1003-1.5837-.1755-3.3432-.4701-5.2282-.9506-3.6118-.9204-6.5868-2.2426-8.8721-3.4854-3.8023,6.918-7.6046,13.8362-11.4069,20.7542,5.7864,4.1851,15.6437,9.7315,27.455,8.7162,1.1848-.1019,2.3315-.2647,3.4388-.478,1.3731,5.0697,2.7461,10.1396,4.1192,15.2093,6.9709-1.6371,13.9418-3.2742,20.9127-4.9113-1.2146-5.0697-2.4292-10.1396-3.6439-15.2093,2.2486-.7662,5.7886-2.2615,9.3002-5.2152,11.2227-9.4395,10.7362-24.17,10.6619-25.6786ZM41.9486,87.1853c-.5743-2.2774,1.0823-3.8737,2.7131-4.9905.5809,2.5877,1.1618,5.1753,1.7427,7.763-1.6301-.2429-4.0081-.9967-4.4559-2.7725ZM75.6495,122.9909c-.7774-3.4759-.7985-3.5702-1.5758-7.0461,2.3493-1.4256,5.1894-.064,5.7594,2.3719.5753,2.458-1.4062,4.9616-4.1836,4.6742Z" fill="url(#uuid-3d84e904-5345-44ed-8bbd-ba11c0b704e8)"/><path d="M44.0585,82.5544c.5294,2.3586,1.059,4.7173,1.5885,7.0759.2887.0673.5701.121.8315.16-.5809-2.5877-1.1618-5.1753-1.7427-7.763-.2299.1575-.4569.3354-.6773.5271Z" fill="#ff9e1d"/><path d="M76.2081,81.5522c.1288-.2409.2576-.4817.3864-.7226-1.4357-1.1732-3.7099-2.6958-6.8269-3.5552-1.4748-.4067-2.8239-.5776-3.9608-.6337.0494.179.0987.3579.1482.5368.9426.0893,1.9952.2611,3.1238.5722,3.3367.9199,5.7207,2.6055,7.1293,3.8025Z" fill="#ff9e1d"/><path d="M77.9751,122.3934c1.4887-.7964,2.3332-2.5298,1.932-4.2441-.57-2.4359-3.4102-3.7974-5.7594-2.3718.0108.0482.0199.0892.0304.1361,2.1773-.7953,4.5272.5194,5.0401,2.711.334,1.4273-.1977,2.8661-1.2431,3.7688Z" fill="#ff9e1d"/><path d="M38.7154,57.3123c-1.1381-4.6557-2.2762-9.3116-3.4142-13.9674-.2534.0613-.5067.1227-.7601.1841,1.1485,4.6989,2.2972,9.398,3.4459,14.0969.2503-.111.495-.2167.7284-.3136Z" fill="#ff9e1d"/><path d="M65.8068,169.1636c-1.373-5.0697-2.7461-10.1396-4.1191-15.2093-1.1073.2133-2.2539.376-3.4389.478-11.8113,1.0153-21.6685-4.5311-27.4549-8.7162,3.6832-6.7013,7.3664-13.4028,11.0497-20.1041-.1095-.0583-.2251-.1169-.3317-.1748-3.8023,6.918-7.6046,13.8362-11.4069,20.7542,5.7864,4.1851,15.6438,9.7315,27.4549,8.7162,1.1848-.1019,2.3315-.2647,3.4389-.478,1.373,5.0697,2.7461,10.1396,4.1192,15.2093,6.9708-1.6371,13.9417-3.2742,20.9127-4.9113-.0237-.0989-.0475-.1979-.0711-.2968-6.7176,1.5776-13.4351,3.1551-20.1528,4.7327Z" fill="#ff9e1d"/><path d="M83.0756,149.0431c.017.0706.0339.1412.0508.2117,1.8157-.6712,4.2375-1.7673,6.7657-3.5652-2.633,1.7573-5.1009,2.7689-6.8165,3.3535Z" fill="#ff9e1d"/><path d="M51.8099,115.7729c1.215,4.5058,2.43,9.0116,3.6451,13.5175.2849.0379.5716.0771.8461.1075-1.2674-4.7-2.5348-9.4002-3.8023-14.1003-2.5419.1915-6.2436.1782-10.4564-.9506-1.6984-.4549-18.6539-5.3072-22.6555-21.5466-4.0763-16.5431,9.2437-28.8593,10.4564-29.943.8882-.7938,1.7795-1.4931,2.6551-2.1148-1.0939.7328-2.2215,1.587-3.3439,2.5902-1.2128,1.0837-14.5327,13.4-10.4563,29.943,4.0015,16.2393,20.957,21.0916,22.6554,21.5466,4.2128,1.1287,7.9145,1.1421,10.4564.9506Z" fill="#ff9e1d"/><path d="M163.0411,49.2798c-.0147-.0025-.0295-.005-.0442-.0077l-22.6835-3.967c-21.1249-2.9695-41.7976,19.8606-46.1735,50.9924-4.3761,31.1318,9.2016,58.7764,30.3266,61.7456,0,0,21.888,2.7154,21.8888,2.7156.0136.0018.0271.0029.0406.0049.0011,0,.0021.0002.0032.0004,20.9184,2.9406,41.3889-19.6665,45.7221-50.4937,4.2672-30.358-8.7065-57.3668-29.08-60.9905ZM147.645,103.9799c-1.0926,7.7727-3.8313,14.5618-7.3738,19.2508-2.0918-5.4302-2.8454-12.6398-1.7636-20.3367,1.0956-7.7939,3.8641-14.5853,7.4364-19.234,2.0501,5.4586,2.7793,12.6485,1.7009,20.3199Z" fill="url(#uuid-d67c21ce-8726-4b97-b63f-844e8dcad7b3)"/><path d="M140.3134,45.3051c-21.1249-2.9695-41.7975,19.8606-46.1736,50.9924-4.376,31.1318,9.2016,58.7763,30.3266,61.7457,21.1249,2.9695,41.7975-19.8606,46.1736-50.9924,4.376-31.1318-9.2016-58.7763-30.3266-61.7457ZM147.645,103.9799c-2.1811,15.5171-10.922,27.116-19.5233,25.9068-8.6012-1.209-13.8058-14.768-11.6246-30.285,2.1811-15.5171,10.922-27.116,19.5233-25.9068,8.6013,1.209,13.8058,14.7682,11.6246,30.285Z" fill="#ff8000"/><path d="M140.3134,45.4218c-21.1249-2.9695-41.7975,19.8606-46.1736,50.9924-4.376,31.1318,9.2016,58.7763,30.3266,61.7457,21.1249,2.9695,41.7975-19.8606,46.1736-50.9924,4.376-31.1318-9.2016-58.7763-30.3266-61.7457ZM147.645,104.0965c-2.1811,15.5171-10.922,27.116-19.5233,25.9068-8.6012-1.209-13.8058-14.768-11.6246-30.285,2.1811-15.5171,10.922-27.116,19.5233-25.9068,8.6013,1.209,13.8058,14.7682,11.6246,30.285Z" fill="url(#uuid-f56cbb5c-8d55-44d2-99f1-d1fd33f5bf25)"/><path d="M128.1217,129.8134h0c-1.4454-.3318-2.4007-.8843-3.0155-1.2504-.2976-.2054-.5251-.3482-.6666-.4593l-.2106-.1686c-.5702-.4356-1.0762-.9479-1.5641-1.4673-.4652-.5445-.9104-1.1032-1.2958-1.7066-.7931-1.1887-1.442-2.4723-1.9688-3.8043-.5258-1.3326-.9624-2.7026-1.2912-4.1015-.3291-1.3986-.5706-2.8179-.7561-4.2445-.1796-1.4276-.2849-2.8663-.3105-4.3072-.0184-.5061-.0069-1.0137-.0185-1.5201-.0004-.5068.0159-1.0139.0227-1.5207l.06-1.2821c.0902-1.4384.2391-2.873.4412-4.3005l.0011-.0082c.1992-1.428.4516-2.8481.7614-4.2556.313-1.4085.706-2.7963,1.1301-4.1731.4218-1.3781.9197-2.7319,1.4859-4.0547.5716-1.3201,1.195-2.6179,1.897-3.8715.7017-1.2541,1.4991-2.4506,2.3719-3.5866.8736-1.1351,1.8512-2.1901,2.9413-3.1141.5369-.4738,1.1188-.8882,1.7161-1.2833.6123-.3648,1.2398-.7177,1.908-.9793.8416-.3487,1.7335-.5773,2.6517-.6942l.399-.0278c.1332-.0051.3011-.0303.5019-.0256l.7072.0154h0l-.701-.1175c-.2014-.034-.3717-.0333-.5075-.0477l-.4093-.0305c-.95-.0277-1.905.1207-2.8308.3723-1.4654.4007-2.8306,1.1227-4.0712,1.9957-1.2384.8819-2.3547,1.923-3.3705,3.0463-1.0169,1.1247-1.9066,2.354-2.7232,3.6237-.816,1.2713-1.5419,2.598-2.176,3.9654-.6397,1.3648-1.2076,2.7622-1.697,4.1858-.4911,1.4231-.8943,2.8745-1.2442,4.3367-.3397,1.4634-.6192,2.9397-.8431,4.4246l-.0012.0085c-.1941,1.4891-.3324,2.9852-.4093,4.4854l-.0474,1.3375c-.0104,1.0579-.019,2.1168.0479,3.1741.0779,1.5033.2387,3.0031.4773,4.4914.2326,1.4892.5645,2.9646.9985,4.4116.4349,1.4456.9513,2.8726,1.6187,4.234.6667,1.3598,1.4528,2.6683,2.4001,3.8574.9519,1.1812,2.0652,2.2516,3.3633,3.0408l.2411.1492c.1615.0978.4195.2207.7527.3952.6799.3154,1.7562.7354,3.2337.8518Z" fill="#ff911a"/><path d="M136.0204,73.8115c4.3632.1351,7.7877,4.3347,9.8882,9.862,0,0-4.7183,5.8866-6.5098,14.5088l-20.5736-4.8295s4.8789-19.9226,17.1952-19.5413Z" fill="url(#uuid-99e0808a-572e-406e-876a-02901d9f8957)"/><path d="M117.7781,98.1823l20.9167,3.4919c-.7039,3.4919-.6781,8.2361-.6781,8.2361-.1553,7.9058,2.3111,13.3629,2.3111,13.3629-3.5397,4.7192-7.9921,7.8414-12.2061,6.7302-11.6032-3.0599-11.0979-23.2198-11.0979-23.2198.1695-2.5857.7542-8.6012.7542-8.6012Z" fill="url(#uuid-04a02895-ba3d-4a8b-8adb-c453b2e6ed60)"/><path d="M124.4664,158.1598c12.7878,1.3575,24.3529-6.8066,31.59-16.7262,14.4133-20.039,18.3419-47.9883,10.0121-71.2251-3.2495-8.6681-8.7761-16.9099-16.9439-21.5891-2.7259-1.5209-5.7041-2.6232-8.8113-3.1977,6.3169.6324,12.2808,3.7721,16.8853,8.2007,22.1556,22.6976,18.826,64.9152.2216,88.8556-7.652,9.8928-20.0237,18.0398-32.9538,15.6817h0Z" fill="#ff911a"/></g><g id="uuid-75cf325a-500f-4c73-a734-9a365a86efa2"><ellipse cx="85.4375" cy="181.5914" rx="60.9336" ry="5.3503" fill="#090909" opacity=".07"/></g></svg>