<svg xmlns="http://www.w3.org/2000/svg" xmlns:xlink="http://www.w3.org/1999/xlink" viewBox="0 0 200 200"><defs><radialGradient id="k" cx="132.232" cy="99.876" fx="132.232" fy="99.876" r="2.672" gradientTransform="rotate(1.232 3268.557 133.596) scale(1 1.67524)" xlink:href="#a"/><radialGradient id="l" cx="134.634" cy="111.601" fx="134.634" fy="111.601" r="2.671" gradientTransform="rotate(1.232 3639.138 149.28) scale(1 1.67524)" xlink:href="#a"/><radialGradient id="g" cx="139.437" cy="135.05" fx="139.437" fy="135.05" r="2.67" gradientTransform="rotate(1.232 4380.303 180.645) scale(1 1.67524)" xlink:href="#a"/><radialGradient id="h" cx="141.839" cy="146.775" fx="141.839" fy="146.775" r="2.669" gradientTransform="rotate(1.232 4750.887 196.329) scale(1 1.67524)" xlink:href="#a"/><radialGradient id="i" cx="125.027" cy="64.67" fx="125.027" fy="64.67" r="2.686" gradientTransform="rotate(1.232 2155.816 86.504) scale(1 1.67524)" xlink:href="#a"/><radialGradient id="j" cx="127.428" cy="76.426" fx="127.428" fy="76.426" r="2.673" gradientTransform="rotate(1.232 2527.37 102.229) scale(1 1.67524)" xlink:href="#a"/><radialGradient id="a" cx="137.035" cy="123.326" fx="137.035" fy="123.326" r="2.671" gradientTransform="rotate(1.232 4009.72 164.962) scale(1 1.67524)" gradientUnits="userSpaceOnUse"><stop offset="0" stop-color="#ff5b00"/><stop offset=".2" stop-color="#fe5c02"/><stop offset=".347" stop-color="#fe620c"/><stop offset=".477" stop-color="#fe6b1c"/><stop offset=".597" stop-color="#fe7932"/><stop offset=".71" stop-color="#fd8a50"/><stop offset=".819" stop-color="#fc9f73"/><stop offset=".921" stop-color="#fcb89d"/><stop offset=".947" stop-color="#fcbfa9"/></radialGradient><radialGradient id="m" cx="129.83" cy="88.183" fx="129.83" fy="88.183" r="2.66" gradientTransform="rotate(1.232 2898.967 117.955) scale(1 1.67524)" xlink:href="#a"/><radialGradient id="b" cx="-995.802" cy="114.679" fx="-995.802" fy="114.679" r="21.703" gradientTransform="matrix(-1 0 0 1 -912.91 0)" gradientUnits="userSpaceOnUse"><stop offset=".542" stop-color="#fff"/><stop offset=".627" stop-color="#fefefc"/><stop offset=".69" stop-color="#fefaf2"/><stop offset=".746" stop-color="#fdf5e2"/><stop offset=".798" stop-color="#fceecc"/><stop offset=".846" stop-color="#fbe4af"/><stop offset=".889" stop-color="#fada8e"/></radialGradient><radialGradient id="n" cx="-972.623" cy="93.126" fx="-972.623" fy="93.126" r="11.16" xlink:href="#b"/><radialGradient id="o" cx="143.922" cy="157.532" fx="143.922" fy="157.532" r="3.234" gradientUnits="userSpaceOnUse"><stop offset=".409" stop-color="#ff5b00"/><stop offset=".562" stop-color="#fd7c38"/><stop offset=".744" stop-color="#fca074"/><stop offset=".877" stop-color="#fcb69a"/><stop offset=".947" stop-color="#fcbfa9"/></radialGradient><radialGradient id="p" cx="-425.226" cy="907.528" fx="-425.226" fy="907.528" r="1.116" gradientTransform="matrix(2.16343 0 0 -43.46844 947.94 39602.612)" gradientUnits="userSpaceOnUse"><stop offset="0" stop-color="#fdf2ef" stop-opacity=".7"/><stop offset=".293" stop-color="#fff" stop-opacity="0"/></radialGradient><radialGradient id="q" cx="122.944" cy="53.775" fx="122.944" fy="53.775" r="2.337" gradientTransform="matrix(1 0 0 1.53754 0 -28.906)" gradientUnits="userSpaceOnUse"><stop offset="0" stop-color="#ff5b00"/><stop offset=".211" stop-color="#fe5c02"/><stop offset=".366" stop-color="#fe620c"/><stop offset=".503" stop-color="#fe6b1c"/><stop offset=".63" stop-color="#fe7932"/><stop offset=".75" stop-color="#fd8a50"/><stop offset=".865" stop-color="#fc9f73"/><stop offset=".973" stop-color="#fcb89d"/><stop offset="1" stop-color="#fcbfa9"/></radialGradient><linearGradient id="e" x1="-1025.909" y1="143.291" x2="-995.011" y2="27.427" gradientTransform="matrix(-1 0 0 1 -912.91 0)" gradientUnits="userSpaceOnUse"><stop offset=".351" stop-color="#ff8000" stop-opacity="0"/><stop offset=".445" stop-color="#ff962c" stop-opacity=".173"/><stop offset=".647" stop-color="#ffc285" stop-opacity=".523"/><stop offset=".812" stop-color="#ffe3c6" stop-opacity=".78"/><stop offset=".931" stop-color="#fff7ef" stop-opacity=".939"/><stop offset=".992" stop-color="#fff"/></linearGradient><linearGradient id="d" x1="-979.485" y1="150.463" x2="-932.753" y2="-54.618" gradientTransform="matrix(-1 0 0 1 -912.91 0)" gradientUnits="userSpaceOnUse"><stop offset=".029" stop-color="#f75e28"/><stop offset=".47" stop-color="#d44c28"/><stop offset=".728" stop-color="#c64528"/></linearGradient><linearGradient id="c" x1="21.006" y1="96.909" x2="25.996" y2="93.494" gradientUnits="userSpaceOnUse"><stop offset=".171" stop-color="#ff8000"/><stop offset=".886" stop-color="#f75e28"/></linearGradient><linearGradient id="f" x1="-1103.711" y1="152.505" x2="-922.962" y2="49.386" gradientTransform="matrix(-1 0 0 1 -912.91 0)" gradientUnits="userSpaceOnUse"><stop offset="0" stop-color="#ff5b00"/><stop offset=".131" stop-color="#ff5f00"/><stop offset=".276" stop-color="#ff6c00"/><stop offset=".324" stop-color="#ff7300"/><stop offset=".685" stop-color="#ff8000"/><stop offset=".9" stop-color="#fcc87e"/><stop offset="1" stop-color="#fbe7b4"/></linearGradient><linearGradient id="r" x1="49.471" y1="186.155" x2="72.575" y2="144.948" xlink:href="#c"/></defs><path d="M31.217 170.43a325.864 325.864 0 0 0 83.603-4.795s-31.252 8.786-85.949 7.025a2.65 2.65 0 0 1-2.512-2.141l-6.01-30.76a1.362 1.362 0 0 1 .382-1.238c.503-.492 1.592-1.384 2.149-1.834.226-.182.475-.33.745-.438 3.906-1.568 10.573-3.97 12.279-11.295 2.32-9.963-6.954-23.815-24.17-27.384-.96-.2-1.716-.94-1.922-1.9-2.149-10.027-3.987-18.792-6.136-28.82-.1-.47.044-.96.384-1.3l2.057-2.47C8.264 73.1 9.9 82.636 11.973 92.586a3.653 3.653 0 0 0 2.77 2.815c16.772 3.792 25.767 17.406 23.478 27.235-1.927 8.275-11.532 12.497-14.743 13.695a1.21 1.21 0 0 0-.762 1.369l5.955 30.474a2.797 2.797 0 0 0 2.546 2.255" fill="url(#d)"/><path d="m5.859 64.09 6.447 30.088c.101.472.48.83.954.919 17.722 3.302 27.316 17.425 24.961 27.54-1.931 8.293-11.574 12.515-14.764 13.703-.543.202-.856.769-.745 1.338l6.195 31.704c.103.525.54.917 1.072.957a325.861 325.861 0 0 0 84.841-4.704 325.102 325.102 0 0 0 24.526-5.613 3.776 3.776 0 0 1 2.798-5.133l-.892-4.331a3.776 3.776 0 1 1-1.522-7.394l-.89-4.33a3.776 3.776 0 1 1-1.522-7.395l-.891-4.328a3.776 3.776 0 1 1-1.58-7.384 3.776 3.776 0 0 1 1.58 7.384l.89 4.328a3.776 3.776 0 0 1 1.522 7.395l.892 4.33a3.776 3.776 0 0 1 1.522 7.394l.89 4.33a3.774 3.774 0 0 1 4.42 3.093 326.14 326.14 0 0 0 48.073-18.39 2.898 2.898 0 0 0 1.588-3.22l-6.092-28.668c-13.079-.624-22.74-10.868-22.658-21.628.062-8.022 5.536-15.659 13.775-19.31l-6.29-32.558a1.135 1.135 0 0 0-1.593-.815 328.379 328.379 0 0 1-48.723 18.069c.228.486.36 1.027.36 1.6a3.776 3.776 0 0 1-3.053 3.705l.89 4.328a3.776 3.776 0 1 1 1.522 7.396l.891 4.328a3.776 3.776 0 1 1 1.553 7.391 3.776 3.776 0 0 1-1.553-7.391l-.89-4.328a3.776 3.776 0 0 1-1.522-7.396l-.891-4.328a3.776 3.776 0 0 1-4.482-3.358 327.27 327.27 0 0 1-23.89 5.246 328.078 328.078 0 0 1-86.454 4.004 1.187 1.187 0 0 0-1.265 1.431zm121.198 35.876a3.777 3.777 0 1 1 4.544 3.698l.89 4.326a3.776 3.776 0 1 1 1.487 7.405 3.776 3.776 0 0 1-1.486-7.405l-.89-4.326a3.776 3.776 0 0 1-4.544-3.698zm-2.402-11.726a3.777 3.777 0 1 1 7.555 0 3.777 3.777 0 0 1-7.555 0z" fill="url(#e)"/><path d="m5.859 64.09 6.447 30.088c.101.472.48.83.954.919 17.722 3.302 27.316 17.425 24.961 27.54-1.931 8.293-11.574 12.515-14.764 13.703-.543.202-.856.769-.745 1.338l6.195 31.704c.103.525.54.917 1.072.957a325.866 325.866 0 0 0 84.841-4.704 325.136 325.136 0 0 0 24.526-5.614 3.776 3.776 0 0 1 2.798-5.133l-.892-4.33a3.776 3.776 0 1 1-1.522-7.394l-.89-4.33a3.776 3.776 0 1 1-1.522-7.395l-.891-4.328a3.776 3.776 0 1 1-1.58-7.384 3.776 3.776 0 0 1 1.58 7.384l.89 4.328a3.776 3.776 0 0 1 1.522 7.395l.892 4.33a3.776 3.776 0 0 1 1.522 7.394l.89 4.33a3.774 3.774 0 0 1 4.42 3.093 326.144 326.144 0 0 0 48.073-18.39 2.898 2.898 0 0 0 1.588-3.22l-6.092-28.668c-13.079-.624-22.74-10.868-22.658-21.628.062-8.022 5.536-15.659 13.775-19.31l-6.29-32.558a1.135 1.135 0 0 0-1.593-.815 328.392 328.392 0 0 1-48.723 18.069c.228.486.36 1.027.36 1.6a3.776 3.776 0 0 1-3.053 3.705l.89 4.328a3.776 3.776 0 1 1 1.522 7.396l.891 4.328a3.776 3.776 0 1 1 1.553 7.391 3.776 3.776 0 0 1-1.553-7.391l-.89-4.328a3.776 3.776 0 0 1-1.522-7.396l-.891-4.328a3.776 3.776 0 0 1-4.482-3.358 327.322 327.322 0 0 1-23.89 5.246 328.077 328.077 0 0 1-86.455 4.004A1.187 1.187 0 0 0 5.86 64.09zm121.198 35.876a3.777 3.777 0 1 1 4.544 3.698l.89 4.326a3.776 3.776 0 1 1 1.487 7.405 3.776 3.776 0 0 1-1.486-7.405l-.89-4.326a3.776 3.776 0 0 1-4.544-3.698zm-2.402-11.726a3.778 3.778 0 0 1 3.777-3.777 3.776 3.776 0 1 1-3.777 3.777z" fill="url(#f)"/><path d="m180.412 69.368.837-2.604c-8.24 3.652-13.713 11.289-13.775 19.311 0 0 .244-11.345 11.657-15.391a2.07 2.07 0 0 0 1.281-1.316zM139.41 143.953c-.679 0-1.314.182-1.865.496a3.776 3.776 0 1 1 4.761 5.703 3.776 3.776 0 0 0-2.895-6.199zM137.009 132.227c-.68 0-1.315.182-1.866.496a3.776 3.776 0 1 1 4.761 5.703 3.776 3.776 0 0 0-2.895-6.199zM134.607 120.5c-.68 0-1.315.182-1.865.496a3.776 3.776 0 1 1 4.761 5.703 3.776 3.776 0 0 0-2.895-6.199zM132.205 108.774c-.679 0-1.315.182-1.865.496a3.776 3.776 0 1 1 4.761 5.703 3.776 3.776 0 0 0-2.896-6.199zM129.804 97.048c-.68 0-1.315.182-1.866.495a3.776 3.776 0 1 1 4.761 5.703 3.776 3.776 0 0 0-2.896-6.199zM127.402 85.322c-.68 0-1.315.181-1.866.495a3.776 3.776 0 1 1 4.761 5.703 3.776 3.776 0 0 0-2.896-6.199zM125 73.595c-.68 0-1.315.182-1.866.496a3.776 3.776 0 1 1 4.761 5.703A3.776 3.776 0 0 0 125 73.595zM122.598 61.869c-.679 0-1.315.182-1.865.495a3.776 3.776 0 1 1 4.761 5.703 3.776 3.776 0 0 0-2.895-6.199zM141.812 155.68c-.679 0-1.315.181-1.865.495a3.775 3.775 0 0 1 6.61 1.758l-1.012.98a3.774 3.774 0 0 0-3.733-3.233z" fill="#b9471e"/><path d="M141.812 155.68c-.679 0-1.315.181-1.865.495a3.775 3.775 0 0 1 6.61 1.758l-1.012.98a3.774 3.774 0 0 0-3.733-3.233z" fill="#b9471e"/><path d="m145.545 158.913 1.012-.98s11.198-3.112 21.883-7.231c0 0-21.265 7.731-22.895 8.21z" fill="#b9471e"/><path d="M60.226 116.744c14.47 3.995 17.708 7.234 21.703 21.703 3.996-14.469 7.235-17.708 21.704-21.703-14.47-3.996-17.708-7.235-21.704-21.703-3.995 14.468-7.234 17.707-21.703 21.703z" fill="#f75e28"/><path d="M136.427 127.11c.119.006.224.001.316.001.09-.005.164-.017.226-.023l.136-.02.045-.01c.24-.05.48-.124.708-.229.113-.054.23-.106.336-.175l.163-.1c.053-.035.104-.073.156-.111.05-.04.103-.077.153-.118l.144-.13c.1-.083.184-.182.273-.278.176-.194.322-.413.457-.64.065-.116.119-.237.178-.357.05-.123.097-.248.14-.374.035-.13.074-.258.103-.389.022-.131.048-.264.06-.397l.025-.34v-.003a15.175 15.175 0 0 0-.018-.462l-.056-.401c-.028-.132-.065-.262-.098-.393-.036-.13-.088-.255-.135-.382a1.509 1.509 0 0 0-.083-.184l-.09-.181c-.056-.123-.136-.233-.207-.347-.07-.115-.158-.217-.24-.323-.08-.108-.177-.2-.271-.296-.048-.047-.092-.096-.143-.14l-.154-.128c-.052-.041-.103-.084-.156-.124l-.166-.11-.166-.108c-.058-.032-.118-.062-.176-.092l-.176-.09c-.059-.028-.122-.049-.183-.073-.123-.047-.243-.097-.371-.125-.127-.03-.25-.071-.38-.083-.129-.016-.254-.043-.383-.042 0 0-.065-.003-.192-.004-.126-.008-.319.016-.565.05v.527c.214.059.368.088.468.128a4.136 4.136 0 0 1 .715.299c.092.043.177.1.262.153.042.028.086.051.126.081l.12.09.119.089.11.1.111.096c.035.034.067.071.101.107l.102.104c.034.035.062.076.093.113.061.075.124.15.175.231.054.08.114.156.156.243.024.042.046.085.07.126a3.957 3.957 0 0 1 .272.661c.023.093.05.185.07.278.015.094.032.188.049.283l.024.33v.246c-.003.097-.019.192-.023.289-.011.096-.03.19-.044.287-.024.094-.046.19-.068.285-.031.092-.057.188-.092.28-.04.09-.068.187-.114.276l-.067.135c-.02.046-.044.09-.07.134-.05.087-.1.177-.16.26l-.086.13c-.03.041-.063.08-.095.121-.033.041-.063.084-.097.125l-.106.117c-.069.081-.146.154-.224.229-.156.15-.329.286-.513.417l-.034.026-.107.067c-.048.031-.108.072-.183.117-.075.043-.166.09-.27.152z" fill="url(#a)"/><path d="M138.84 138.834c.118.005.223 0 .315 0 .09-.005.165-.018.226-.024l.136-.02.045-.01c.24-.051.478-.125.706-.23.113-.055.23-.107.336-.176l.163-.1c.052-.036.103-.074.155-.112.05-.04.103-.077.152-.118l.145-.13c.099-.084.182-.182.27-.279.176-.193.322-.413.457-.64.064-.116.118-.237.177-.357.05-.123.097-.248.14-.374.034-.129.073-.257.1-.388.023-.132.049-.264.061-.397l.024-.333v-.002c-.005-.156-.009-.313-.019-.47l-.056-.4c-.03-.131-.065-.262-.099-.392-.037-.13-.088-.255-.135-.382-.022-.063-.053-.124-.083-.184l-.09-.18-.046-.09-.053-.087-.109-.17c-.069-.115-.158-.216-.24-.322-.08-.108-.177-.2-.27-.295-.049-.047-.093-.097-.144-.14l-.154-.127c-.052-.042-.103-.085-.156-.124l-.165-.11-.167-.108-.175-.092-.176-.09c-.06-.028-.122-.049-.183-.073-.123-.047-.243-.096-.371-.124-.127-.03-.25-.071-.38-.083-.128-.016-.253-.043-.382-.042 0 0-.065-.003-.192-.004-.126-.008-.318.017-.564.05v.528c.214.058.368.087.468.128.1.034.15.048.15.048.196.073.386.152.564.25.092.043.176.1.261.153.042.028.086.05.126.081l.12.09.119.088.11.1.111.096c.035.034.067.071.101.106a4.1 4.1 0 0 0 .102.105c.034.035.062.075.093.112.061.076.124.15.175.231a3.481 3.481 0 0 1 .5 1.029c.022.092.048.184.07.277.014.094.031.188.048.282l.025.335v.242c-.002.096-.018.19-.023.287-.01.096-.03.191-.043.288-.022.094-.046.188-.067.284-.031.093-.057.188-.092.28-.039.09-.067.187-.113.276l-.066.135a1.04 1.04 0 0 1-.07.134c-.05.087-.1.177-.16.26l-.084.13c-.03.042-.064.08-.096.122-.032.04-.063.084-.096.124l-.106.117c-.068.082-.145.155-.223.23-.155.15-.328.286-.51.418l-.035.026-.107.068c-.048.03-.108.071-.182.117-.075.043-.165.09-.27.152z" fill="url(#g)"/><path d="M141.252 150.558c.119.004.224 0 .315-.001.09-.006.165-.019.226-.025l.136-.02.045-.01a3.32 3.32 0 0 0 .705-.233c.112-.054.229-.106.334-.176l.163-.1a5.84 5.84 0 0 0 .155-.112c.05-.04.103-.077.152-.119l.144-.129c.099-.084.182-.183.27-.28.175-.193.32-.413.455-.64.063-.116.117-.237.176-.356.048-.124.097-.248.138-.375.034-.128.074-.257.1-.388.022-.131.049-.263.06-.397l.023-.324v-.003c-.004-.158-.008-.317-.02-.476l-.055-.4c-.03-.131-.066-.261-.1-.392-.038-.129-.088-.254-.135-.38-.022-.064-.054-.124-.083-.184l-.09-.18-.046-.09-.054-.086-.108-.17c-.07-.115-.16-.216-.24-.322-.08-.108-.178-.2-.272-.295a2.708 2.708 0 0 0-.297-.266c-.052-.042-.102-.085-.155-.124l-.166-.11-.166-.108-.176-.091-.175-.09c-.06-.027-.122-.048-.183-.072-.122-.047-.243-.096-.37-.124-.128-.03-.25-.071-.38-.083-.128-.016-.253-.043-.382-.042 0 0-.065-.003-.192-.003-.126-.009-.318.016-.563.05v.527c.213.059.367.087.467.128a4.117 4.117 0 0 1 .714.298c.091.043.176.1.26.153.043.027.086.05.126.08l.12.09.119.088.11.1.11.096c.036.034.068.071.102.106.033.036.068.07.102.105.034.034.062.075.093.112.06.075.124.148.175.23.114.156.206.325.292.495l.06.13c.02.044.042.086.055.132.028.091.068.178.094.27l.07.277c.014.094.031.188.048.282.011.113.015.226.026.34v.001l-.001.234c0 .096-.017.191-.021.288-.01.096-.03.19-.043.287-.021.094-.046.188-.066.285-.03.092-.057.187-.091.28-.039.09-.068.186-.112.275l-.066.135-.032.068-.038.066c-.05.087-.098.178-.158.26l-.085.13c-.03.042-.064.08-.095.122l-.096.125-.105.117a4.573 4.573 0 0 1-.731.65l-.035.025-.107.068c-.047.031-.107.072-.181.117-.075.044-.165.09-.269.154z" fill="url(#h)"/><path d="m194.674 139.632-2.19 1.016-.732.335c-.977.443-1.95.893-2.933 1.326-.98.437-1.959.875-2.944 1.3l-1.475.643-1.48.63-1.482.629-1.486.616c-.99.415-1.985.816-2.98 1.217-.992.406-1.992.795-2.99 1.188-.997.396-2 .775-3.002 1.158-1 .386-2.007.756-3.013 1.127-.503.185-1.005.375-1.51.555l-1.514.542-1.515.541-1.52.525-1.52.525-1.526.51c-1.017.338-2.033.681-3.055 1.003l-1.532.49-.765.245-.769.236c-1.025.313-2.048.634-3.075.94l-2.712.797c0 .001.002.014 0-.008l-.008-.084a2.584 2.584 0 0 0-.12-.544 2.816 2.816 0 0 0-.147-.361c-.027-.06-.06-.116-.09-.173a3.055 3.055 0 0 0-.333-.48 4.028 4.028 0 0 0-.869-.767 3.516 3.516 0 0 0-1.046-.46 3.53 3.53 0 0 0-.37-.069l-.185-.017-.186-.006-.184.007-.182.02-.09.015c-.06.009-.149.03-.263.063.114.038.197.064.252.085l.082.028c.107.042.212.085.314.131.101.047.2.097.295.149l.14.081.136.086.13.09.128.094c.083.064.162.132.24.2.077.069.15.14.222.213.072.074.14.15.206.226.066.077.127.158.188.238.06.08.117.164.171.248.055.083.107.168.159.253.05.086.103.17.151.257.026.043.05.087.073.13.026.044.05.088.073.132.025.044.048.088.072.133.025.044.047.09.071.135.084.156.167.317.263.484l.202.358.246-.076 3.164-.977c1.025-.32 2.046-.656 3.069-.984l.766-.247.764-.256 1.528-.512c1.02-.336 2.033-.694 3.047-1.047l1.52-.531 1.516-.547 1.515-.546 1.51-.563 1.509-.563c.502-.188 1.002-.384 1.503-.576 1.002-.386 2.005-.77 3.001-1.17.998-.397 1.997-.79 2.99-1.2.993-.407 1.988-.81 2.976-1.23.99-.415 1.98-.83 2.964-1.258l1.479-.637 1.473-.65 1.472-.65 1.468-.663c.979-.439 1.953-.89 2.927-1.34.976-.447 1.943-.911 2.915-1.367l.727-.345c.484-.232 1.209-.58 2.176-1.046z" fill="#ff7300"/><path d="M124.363 68.49c.119.005.225.004.316.003.091-.005.166-.017.227-.023l.137-.018.045-.01c.06-.012.12-.027.18-.041.06-.015.123-.027.18-.05l.177-.061.09-.032.085-.04c.113-.053.232-.102.339-.171l.165-.099c.054-.033.105-.073.157-.11l.155-.116.146-.128c.048-.044.099-.086.143-.133l.133-.144c.093-.093.169-.2.248-.306l.06-.079.053-.084.105-.168c.037-.056.064-.117.094-.176l.089-.18c.056-.12.1-.247.148-.373.04-.128.073-.258.108-.389.024-.132.048-.265.067-.398l.028-.376v-.218l-.011-.216a4.212 4.212 0 0 0-.444-1.558 4.06 4.06 0 0 0-1.008-1.26 3.962 3.962 0 0 0-.666-.45c-.058-.033-.119-.06-.178-.09-.06-.03-.122-.054-.183-.08a3.64 3.64 0 0 0-1.149-.272l-.049-.004c-.032-.002-.08-.006-.145-.005-.065 0-.146-.003-.243.005a3.084 3.084 0 0 0-.334.037v.668c.212.044.363.084.463.114.05.014.087.028.112.035l.036.012a4.105 4.105 0 0 1 .824.386 3.667 3.667 0 0 1 1.063.996 3.595 3.595 0 0 1 .503 1.028 3.55 3.55 0 0 1 .117.563l.016.153.009.154v.001c-.001.09-.002.18-.001.271l-.022.29-.047.29-.035.143c-.012.047-.018.097-.035.143l-.045.141c-.016.048-.028.096-.05.141a3.72 3.72 0 0 1-.257.547l-.078.133c-.025.045-.058.084-.086.127l-.088.13-.098.122c-.034.04-.064.084-.1.123l-.108.117c-.07.081-.15.152-.23.227-.16.148-.336.281-.523.41l-.035.025-.11.065c-.048.03-.11.07-.186.112-.077.04-.168.087-.274.146z" fill="url(#i)"/><path d="M126.776 80.215c.12.006.224.003.317.004.09-.004.165-.016.227-.022l.137-.017.045-.01.18-.04c.061-.015.123-.028.181-.05l.177-.062c.06-.02.119-.043.175-.07.114-.055.233-.104.34-.173l.164-.1c.055-.033.105-.072.158-.11l.155-.116.145-.129c.1-.084.187-.181.276-.278.179-.192.327-.412.464-.64.068-.114.12-.236.181-.356.055-.121.099-.248.145-.374.038-.129.073-.259.106-.39.024-.131.047-.265.064-.398l.027-.37v-.002l-.016-.436c-.016-.135-.035-.269-.055-.403-.024-.133-.064-.263-.096-.395a3.965 3.965 0 0 0-.305-.752c-.057-.123-.134-.235-.207-.349-.07-.116-.156-.22-.24-.325-.042-.052-.081-.107-.129-.155l-.141-.144c-.048-.047-.094-.096-.143-.14l-.155-.13-.155-.125-.167-.111-.167-.108c-.057-.034-.117-.063-.176-.094l-.176-.09c-.059-.03-.123-.05-.184-.074-.123-.047-.243-.098-.373-.126a3.534 3.534 0 0 0-.765-.127s-.065-.003-.193-.004c-.127-.008-.32.016-.567.049v.528c.215.058.37.087.47.128a4.175 4.175 0 0 1 .718.3c.092.043.177.102.262.155.088.05.167.112.247.172.04.03.08.057.119.09l.11.099.112.097.101.108.103.105c.032.036.061.076.092.114l.092.113c.03.038.055.08.083.12.055.08.113.157.156.244.044.086.1.165.135.255.085.173.148.354.205.537.021.093.052.185.068.279l.048.284.021.311v.002l-.001.266c-.006.097-.019.192-.024.29l-.047.288c-.026.094-.046.19-.071.285-.033.092-.057.19-.095.28a3.79 3.79 0 0 1-.257.545l-.077.132c-.025.046-.058.084-.086.128l-.087.13-.097.12c-.033.041-.063.085-.099.124l-.107.117c-.07.082-.15.153-.228.228a4.635 4.635 0 0 1-.519.413l-.034.025-.11.066c-.048.03-.108.07-.184.115-.076.042-.168.088-.273.15z" fill="url(#j)"/><path d="M131.601 103.664c.12.005.225.001.317.002.09-.004.165-.017.226-.023l.138-.018.044-.01.18-.042c.06-.014.122-.028.18-.05.115-.044.24-.077.35-.134.114-.055.232-.105.338-.174l.164-.1c.054-.034.105-.073.157-.11.051-.04.104-.078.154-.118l.145-.129c.1-.084.185-.182.274-.278.177-.193.324-.413.46-.64.067-.115.12-.237.18-.357.053-.122.098-.248.143-.374.036-.129.073-.258.104-.389.023-.132.047-.264.063-.398l.025-.355v-.002l-.016-.45-.056-.401c-.026-.133-.065-.263-.098-.394-.014-.066-.04-.13-.063-.193l-.07-.19-.038-.095-.044-.09-.091-.182c-.056-.123-.135-.234-.207-.348-.07-.115-.157-.218-.24-.324-.08-.108-.176-.202-.27-.297-.048-.047-.093-.096-.143-.14l-.155-.129-.156-.125-.166-.11-.167-.109c-.057-.032-.117-.062-.175-.092l-.176-.09c-.06-.03-.123-.05-.184-.074-.123-.047-.243-.098-.372-.125a3.521 3.521 0 0 0-.764-.127s-.065-.003-.192-.003c-.127-.009-.32.016-.567.049v.527c.215.06.37.088.47.129a4.155 4.155 0 0 1 .717.3c.091.042.176.1.261.153.087.05.167.112.246.171l.12.09c.036.033.072.067.11.1l.111.096.101.107.102.105c.034.036.062.076.093.113l.092.113c.031.037.055.08.083.12.054.08.114.156.156.243.044.086.1.165.136.255.084.172.148.353.206.535.021.093.05.184.068.278.015.095.032.189.049.284l.022.32v.257c-.005.097-.02.192-.024.29l-.045.287c-.026.094-.046.19-.07.285-.032.093-.057.189-.094.28-.07.187-.154.368-.254.545-.05.088-.1.178-.16.26l-.087.13c-.031.041-.064.08-.097.122-.033.04-.063.084-.097.124l-.107.116c-.07.082-.148.154-.226.229-.157.15-.33.284-.515.415l-.035.026-.108.067c-.048.03-.109.07-.184.115-.076.043-.167.089-.271.15z" fill="url(#k)"/><path d="M134.014 115.387c.12.005.224.001.316.002.09-.005.165-.018.226-.024l.137-.018.045-.01.18-.043c.06-.014.121-.028.18-.05.114-.044.238-.077.35-.135.112-.054.23-.105.336-.174l.164-.1c.053-.035.104-.074.156-.112.05-.039.104-.076.153-.117l.145-.129c.1-.084.185-.182.273-.279.177-.193.324-.413.46-.64.065-.115.118-.237.178-.356a6.44 6.44 0 0 0 .142-.375c.035-.128.073-.257.103-.388.023-.132.047-.265.062-.398l.025-.348v-.002c-.004-.152-.01-.304-.018-.456l-.055-.401c-.028-.132-.065-.263-.098-.394-.015-.066-.042-.128-.064-.192l-.07-.19a1.459 1.459 0 0 0-.083-.185l-.09-.181c-.057-.123-.136-.233-.208-.347-.069-.116-.157-.218-.24-.324-.08-.108-.176-.202-.27-.297-.048-.046-.093-.096-.143-.14l-.154-.128-.156-.124-.166-.111-.167-.108c-.058-.032-.117-.062-.176-.092l-.176-.09c-.059-.029-.122-.05-.183-.074-.123-.046-.243-.097-.372-.124a3.514 3.514 0 0 0-.763-.127s-.065-.003-.192-.003c-.127-.009-.32.016-.566.05v.527c.214.059.369.087.469.128a4.147 4.147 0 0 1 .716.3c.092.042.176.1.261.153.042.027.087.05.126.081l.12.09c.04.03.08.058.12.089.036.034.072.067.11.1l.111.096.101.107.102.105c.034.035.062.076.093.113l.092.113c.032.036.055.08.083.119.054.08.114.156.156.243.044.086.101.164.136.254.084.172.148.352.206.534.022.093.05.185.07.278.014.095.03.189.048.283l.023.325v.002l-.001.25c-.003.097-.018.192-.023.29-.012.095-.03.19-.044.287-.025.094-.046.19-.069.285-.032.092-.057.188-.093.28-.04.09-.068.187-.115.276l-.066.135c-.02.046-.046.09-.071.133-.05.088-.1.178-.16.26l-.087.13c-.03.042-.064.081-.096.122-.033.04-.063.084-.097.124l-.107.117c-.069.082-.147.154-.225.229-.156.15-.33.285-.514.416l-.034.026-.108.067c-.048.03-.108.071-.183.116-.076.043-.166.09-.27.151z" fill="url(#l)"/><path d="M129.189 91.94c.12.007.225.004.317.006.091-.004.166-.016.228-.021l.138-.017.045-.01c.06-.012.12-.026.18-.04.061-.015.123-.028.181-.05l.178-.061c.06-.02.118-.044.175-.072.113-.054.232-.103.34-.172l.164-.1c.054-.034.105-.073.158-.11l.155-.118.145-.129c.1-.084.187-.182.275-.279.178-.193.326-.414.463-.642.066-.115.12-.238.179-.357.054-.123.097-.25.143-.376.036-.129.071-.259.103-.39.023-.132.046-.265.061-.399l.025-.362v-.003l-.02-.442a16.02 16.02 0 0 0-.057-.401c-.026-.133-.066-.263-.1-.394a3.958 3.958 0 0 0-.31-.746c-.057-.123-.136-.233-.21-.346-.07-.114-.157-.217-.241-.321-.08-.107-.177-.2-.272-.294-.048-.046-.094-.094-.144-.139a7.079 7.079 0 0 0-.155-.125l-.156-.123-.166-.109a7.277 7.277 0 0 0-.167-.105c-.058-.032-.118-.06-.176-.09l-.176-.087c-.059-.029-.122-.048-.183-.071-.123-.045-.242-.094-.37-.12a3.44 3.44 0 0 0-.76-.113s-.063-.002-.19 0c-.124-.006-.315.022-.557.06v.382c.219.064.376.097.478.14a4.27 4.27 0 0 1 .726.317c.093.045.178.105.264.16.087.052.167.116.247.178.04.03.08.06.12.092.036.035.072.07.11.102l.111.1.1.11.102.107c.033.037.062.078.093.116l.09.115c.032.038.055.082.083.122.054.081.112.16.154.247.043.087.099.167.133.258.083.174.145.357.2.54.021.094.05.186.066.28l.046.285.02.316v.001l-.004.261c-.006.096-.02.192-.026.289l-.047.287c-.027.094-.047.19-.072.284-.033.092-.057.189-.095.28a3.865 3.865 0 0 1-.417.801l-.086.13-.097.12c-.033.04-.063.085-.098.124l-.106.117c-.07.081-.148.153-.226.228-.157.15-.33.285-.515.417l-.034.025-.108.068c-.048.03-.109.071-.184.116-.075.044-.166.09-.271.153z" fill="url(#m)"/><path d="M23.029 136.692c.937-.296 1.74-.608 2.425-.885a29.776 29.776 0 0 0 1.689-.751c.445-.214.773-.385.994-.497l.327-.175c1.745-.93 3.407-2.043 4.913-3.366 1.504-1.32 2.84-2.88 3.82-4.68a13.94 13.94 0 0 0 1.262-3.192v-.003c.249-1.01.383-2.045.43-3.082l-.001-.724c-.001-.121 0-.242-.002-.363l-.024-.36c-.017-.241-.03-.482-.05-.723l-.094-.716-.049-.358-.068-.354-.138-.708-.177-.698-.09-.35c-.028-.116-.07-.229-.104-.344a22.897 22.897 0 0 0-2.543-5.542 28.342 28.342 0 0 0-3.766-4.77 31.915 31.915 0 0 0-4.655-3.887 34.382 34.382 0 0 0-5.277-2.968 36.909 36.909 0 0 0-5.69-2.032c-.522-.13-1.043-.263-1.567-.382l-1.579-.316a.2.2 0 0 1-.17-.143l-.295-1.308-.652-2.87-.665-2.867-.675-2.866a592.13 592.13 0 0 0-2.097-8.58c-.478-1.904-.954-3.81-1.314-5.732 0 0-.128-.47-.31-1.446a34.403 34.403 0 0 0-.392-1.83c-.174-.716-.244-1.438-.518-2.383.137.974-.036 1.512.021 2.517.042.736.077 1.37.155 1.854l.234 1.455a592.125 592.125 0 0 0 2.6 14.493l.557 2.89.569 2.888.58 2.886.267 1.313v.003c.088.42.309.816.617 1.112.308.298.703.5 1.119.58h.003l1.496.323c.496.121.987.257 1.482.38a37.429 37.429 0 0 1 5.378 1.933c1.738.78 3.405 1.71 4.983 2.77a30.877 30.877 0 0 1 4.41 3.592 27.317 27.317 0 0 1 3.6 4.382l.196.295c.065.099.123.202.184.303l.365.607c.063.1.117.205.173.309l.166.312.167.312c.057.104.112.208.16.315.198.428.412.849.58 1.288.088.218.185.433.266.654l.233.665c.035.105.077.207.107.313l.091.317.183.635.147.643.073.322.054.324.11.65c.025.217.046.435.07.653l.034.328c.007.109.01.218.014.327l.027.656a15.159 15.159 0 0 1-.272 2.793v.002a12.675 12.675 0 0 1-1.014 2.946c-.812 1.697-1.987 3.23-3.344 4.587-1.362 1.36-2.917 2.535-4.555 3.587l-.309.196c-.208.126-.519.32-.942.562-.424.242-.956.542-1.607.88-.653.335-1.425.708-2.326 1.099z" fill="url(#c)"/><path d="M47.59 95.191c7.441 2.055 9.107 3.72 11.161 11.16 2.055-7.44 3.72-9.105 11.16-11.16-7.44-2.054-9.105-3.72-11.16-11.16-2.054 7.44-3.72 9.106-11.16 11.16z" fill="#f75e28"/><path d="M61.19 114.679c14.468 3.995 17.707 7.234 21.702 21.703 3.996-14.469 7.235-17.708 21.703-21.703-14.468-3.996-17.707-7.235-21.703-21.703-3.995 14.468-7.234 17.707-21.703 21.703z" fill="url(#b)"/><path d="M48.554 93.126c7.44 2.055 9.105 3.72 11.16 11.16 2.054-7.44 3.72-9.105 11.16-11.16-7.44-2.054-9.106-3.72-11.16-11.16-2.055 7.44-3.72 9.106-11.16 11.16z" fill="url(#n)"/><path d="M143.488 155.358c.205.08.406.154.59.261.186.103.369.206.53.338.087.058.163.129.24.197.08.065.155.134.223.21.146.143.27.307.384.472.12.163.216.34.305.518.089.18.155.368.216.558.056.192.092.387.123.585l.017.219 1.118-.386c-.182-2.057-1.947-3.671-4.1-3.671-.098 0-.195.007-.292.014v.501c.224.062.385.092.49.133l.156.051z" fill="url(#o)"/><path d="M123.361 51.814c.399.598.632 1.316.632 2.089a3.76 3.76 0 0 1-.881 2.422 3.772 3.772 0 0 0 1.91-3.28c0-.569-.128-1.105-.353-1.589l-1.308.358z" fill="#b9471e"/><path fill="none" d="m44.693 175.128-.005-.001"/><path transform="rotate(-11.68 28.241 153.757)" fill="url(#p)" d="M26.388 138.228h3.707v31.058h-3.707z"/><path d="M121.981 56.826c.076.016.144.027.203.033l.146.011.117.002c.08.001.157-.007.237-.012l.117-.015c.04-.006.08-.01.118-.02a3.14 3.14 0 0 0 .464-.126c.151-.057.301-.122.444-.202.073-.038.14-.083.211-.126.068-.046.137-.092.202-.143a3.454 3.454 0 0 0 .837-.92c.043-.072.088-.144.127-.219a3.76 3.76 0 0 0 .351-.946 3.624 3.624 0 0 0 .078-1.02v-.002a2.762 2.762 0 0 0-.149-.735 3.936 3.936 0 0 0-.289-.642s-.016-.034-.055-.098a4.123 4.123 0 0 0-.179-.278l-.08.026-.039.013-.04.013-.04.013-.039.013-.04.012-.04.013-.04.013-.039.013-.04.013-.04.013-.039.013-.04.013-.04.013-.04.012c.006.154.018.262.025.334l.008.08.003.027c.015.14.03.276.042.407l.015.191.006.183c.002.114-.002.223-.012.326-.015.126-.027.25-.05.372-.009.06-.024.117-.034.176-.015.058-.026.116-.042.173-.015.058-.03.115-.048.172-.016.057-.036.113-.054.17a4.022 4.022 0 0 1-.292.652 5.043 5.043 0 0 1-.186.313c-.069.1-.137.204-.214.302-.036.051-.078.097-.117.148l-.061.072a1.27 1.27 0 0 1-.063.073c-.084.097-.176.188-.27.283-.048.044-.094.094-.146.137l-.075.068-.078.067c-.106.09-.216.177-.333.263l-.089.065-.28.198z" fill="url(#q)"/><path d="M181.278 66.764c-.513.13-.896.244-1.144.335l-.376.132c-.496.188-.986.395-1.463.63-.243.11-.473.243-.71.368-.237.121-.462.264-.692.4-.232.132-.452.283-.675.43-.11.075-.225.144-.332.224l-.324.236c-.108.08-.217.156-.323.238l-.313.25-.312.253c-.102.087-.204.174-.303.263l-.301.266-.292.276-.29.278-.28.288-.28.289-.27.297-.27.298c-.087.101-.172.205-.258.308l-.257.308-.248.317-.247.317-.236.325-.233.327-.222.335-.222.335-.21.342-.208.344-.196.351-.194.351-.182.358c-.061.119-.122.238-.18.359l-.166.365c-.055.122-.113.242-.165.365l-.153.37c-.104.247-.194.499-.284.75-.094.25-.174.505-.253.76a17.283 17.283 0 0 0-.662 3.116c-.033.262-.048.527-.073.79-.017.264-.02.529-.032.791 0 0-.002.033-.002.1l.002.296c.001.131.002.296.011.493.012.197.025.426.045.687.036-.26.062-.487.085-.681.025-.194.057-.355.074-.484l.043-.288c.01-.065.017-.096.017-.096.051-.256.094-.51.151-.763.06-.253.108-.506.175-.755.126-.5.27-.995.429-1.482.084-.243.16-.487.254-.726.09-.24.175-.48.278-.715.1-.236.192-.473.302-.704.105-.233.21-.465.328-.691l.168-.343c.057-.114.12-.225.18-.338l.18-.336.192-.33.19-.33.202-.324.202-.323.213-.316.212-.317.222-.31.222-.31.232-.301.232-.303.24-.295.241-.295.25-.287.25-.286.259-.28.258-.28.267-.272.267-.271.276-.263.273-.266.282-.256c.094-.085.187-.172.28-.26l.286-.25c.192-.168.382-.338.578-.5.195-.164.39-.329.59-.488.198-.16.395-.322.599-.478a45.35 45.35 0 0 1 1.229-.928l.314-.226c.104-.077.208-.154.315-.226l.639-.446.323-.22c.213-.153.543-.363.976-.672z" fill="#ff7300"/><path d="M114.926 165.633v-.003l-.001-.002v-.003l-.001-.002-.002-.007-.001-.008-.001-.007-.002-.007v-.006l-.001-.002-3.24.481-2.315.327c-.617.092-1.08.153-1.389.195l-.463.063-1.853.252-1.855.234c-1.236.158-2.473.307-3.71.458-.618.078-1.237.141-1.856.212-.62.069-1.238.142-1.857.206-1.24.126-2.477.259-3.717.376l-1.859.181-1.86.165c-1.24.113-2.48.208-3.72.312l-1.862.137c-.62.047-1.241.091-1.862.13l-1.862.125-1.863.11c-1.241.08-2.485.129-3.726.198-1.243.052-2.485.116-3.728.156a373.31 373.31 0 0 1-7.458.202l-1.865.028-1.864.013c-.622.008-1.244.007-1.865.008-.622.001-1.243.005-1.865 0l-1.82-.011c-1.879-.024-3.758-.051-5.637-.098-1.242-.027-2.484-.07-3.727-.11l-1.862-.073-1.863-.08c-2.483-.112-4.965-.25-7.445-.418l-1.647-.115H31.4a1.643 1.643 0 0 1-1.503-1.32v-.001c-.136-.69-.282-1.376-.422-2.064-.245-1.187-.487-2.374-.742-3.559-.251-1.185-.5-2.371-.763-3.554l-.389-1.776-.398-1.774a401.647 401.647 0 0 0-.813-3.545 397.838 397.838 0 0 0-1.713-7.073l-.11-.44-.34-1.323c-.305-1.175-.761-2.938-1.43-5.276.263 2.417.505 4.222.666 5.425l.185 1.353.064.45a397.79 397.79 0 0 0 1.081 7.196c.192 1.197.384 2.394.586 3.59l.3 1.792.31 1.792c.204 1.194.42 2.387.634 3.58.211 1.193.435 2.383.656 3.575.13.69.254 1.381.389 2.07v.003a3.953 3.953 0 0 0 3.586 3.188h.002l1.66.112c2.498.163 4.997.297 7.498.404 2.501.105 5.004.173 7.506.214.946.02 1.892.026 2.838.036.947.006 1.893.003 2.839.004l1.832-.012c2.502-.024 5.004-.068 7.505-.16 2.5-.089 5-.195 7.498-.352 1.249-.068 2.496-.161 3.744-.243l1.871-.143c.624-.047 1.247-.1 1.87-.155a283.74 283.74 0 0 0 7.466-.73l1.863-.215.931-.107.93-.118 1.86-.236 1.858-.252.93-.126.926-.136 1.854-.275c.618-.093 1.235-.194 1.852-.29.617-.1 1.235-.19 1.85-.296 1.232-.21 2.466-.403 3.694-.634l1.843-.335 1.84-.353.46-.088c.306-.059.766-.145 1.378-.27l2.292-.473c.916-.195 1.983-.427 3.202-.697z" fill="url(#r)"/><ellipse cx="71.95" cy="181.591" rx="46.075" ry="5.35" fill="#090909" opacity=".07"/></svg>