<svg xmlns="http://www.w3.org/2000/svg" width="200" height="200" xmlns:xlink="http://www.w3.org/1999/xlink"><defs><linearGradient id="g" x1="119.414" y1="145.361" x2="13.459" y2="55.653" gradientUnits="userSpaceOnUse"><stop offset="0" stop-color="#c64528"/><stop offset=".049" stop-color="#d04a28"/><stop offset=".134" stop-color="#ed5828"/><stop offset=".16" stop-color="#f75e28"/><stop offset=".263" stop-color="#fc740d"/><stop offset=".338" stop-color="#ff8000"/><stop offset=".653" stop-color="#ff8000"/><stop offset=".684" stop-color="#fe870c"/><stop offset=".739" stop-color="#fd9a2e"/><stop offset=".814" stop-color="#fcba65"/><stop offset=".905" stop-color="#fbe5b0"/><stop offset=".908" stop-color="#fbe7b4"/></linearGradient><linearGradient id="c" x1="31.288" y1="62.136" x2="105.017" y2="174.592" gradientUnits="userSpaceOnUse"><stop offset="0" stop-color="#fbe7b4"/><stop offset=".022" stop-color="#fbd290"/><stop offset=".057" stop-color="#fcb55d"/><stop offset=".09" stop-color="#fd9e34"/><stop offset=".119" stop-color="#fe8d17"/><stop offset=".145" stop-color="#fe8306"/><stop offset=".164" stop-color="#ff8000"/><stop offset=".21" stop-color="#fb7210"/><stop offset=".276" stop-color="#f86321"/><stop offset=".325" stop-color="#f75e28"/><stop offset=".702" stop-color="#f75e28"/><stop offset=".724" stop-color="#f8651f"/><stop offset=".794" stop-color="#fd7808"/><stop offset=".838" stop-color="#ff8000"/><stop offset=".879" stop-color="#fda13a"/><stop offset=".919" stop-color="#fcbf6e"/><stop offset=".954" stop-color="#fbd494"/><stop offset=".982" stop-color="#fbe2ab"/><stop offset="1" stop-color="#fbe7b4"/></linearGradient><linearGradient id="b" x1="22.719" y1="114.471" x2="3.769" y2="104.624" gradientUnits="userSpaceOnUse"><stop offset=".079" stop-color="#c64528"/><stop offset=".141" stop-color="#cb4728" stop-opacity=".883"/><stop offset=".272" stop-color="#da4f28" stop-opacity=".583"/><stop offset=".458" stop-color="#f15b28" stop-opacity=".105"/><stop offset=".498" stop-color="#f75e28" stop-opacity="0"/></linearGradient><linearGradient id="d" x1="30.857" y1="138.858" x2="9.166" y2="127.587" xlink:href="#a"/><linearGradient id="e" x1="68.355" y1="110.164" x2="66.978" y2="79.737" xlink:href="#a"/><linearGradient id="f" x1="70.407" y1="86.659" x2="68.529" y2="45.168" xlink:href="#a"/><linearGradient id="a" x1="75.585" y1="134.398" x2="74.219" y2="104.236" gradientUnits="userSpaceOnUse"><stop offset=".082" stop-color="#c64528"/><stop offset=".144" stop-color="#cb4728" stop-opacity=".883"/><stop offset=".273" stop-color="#da4f28" stop-opacity=".583"/><stop offset=".459" stop-color="#f15b28" stop-opacity=".105"/><stop offset=".498" stop-color="#f75e28" stop-opacity="0"/></linearGradient><linearGradient id="h" x1="148.173" y1="31.294" x2="130.429" y2="180.445" gradientUnits="userSpaceOnUse"><stop offset="0" stop-color="#fbe7b4"/><stop offset=".058" stop-color="#fac995"/><stop offset=".158" stop-color="#f89b66"/><stop offset=".248" stop-color="#f77944"/><stop offset=".321" stop-color="#f7652f"/><stop offset=".369" stop-color="#f75e28"/><stop offset=".73" stop-color="#f75e28"/><stop offset=".77" stop-color="#f76a35"/><stop offset=".844" stop-color="#f88d58"/><stop offset=".943" stop-color="#f9c490"/><stop offset="1" stop-color="#fbe7b4"/></linearGradient><linearGradient id="i" x1="175.417" y1="136.465" x2="89.811" y2="71.722" gradientUnits="userSpaceOnUse"><stop offset="0" stop-color="#f75e28"/><stop offset=".112" stop-color="#f8661e"/><stop offset=".298" stop-color="#fe7b04"/><stop offset=".328" stop-color="#ff8000"/><stop offset=".661" stop-color="#ff8000"/><stop offset=".702" stop-color="#fe8205"/><stop offset=".752" stop-color="#fe8b14"/><stop offset=".807" stop-color="#fe992c"/><stop offset=".866" stop-color="#fdad4f"/><stop offset=".927" stop-color="#fcc67b"/><stop offset=".989" stop-color="#fbe5b1"/><stop offset=".992" stop-color="#fbe7b4"/></linearGradient><linearGradient id="j" x1="133.893" y1="71.351" x2="121.399" y2="112.998" xlink:href="#a"/><linearGradient id="k" x1="139.565" y1="129.126" x2="114.157" y2="97.308" gradientUnits="userSpaceOnUse"><stop offset="0" stop-color="#c64528"/><stop offset=".04" stop-color="#ca4728" stop-opacity=".915"/><stop offset=".235" stop-color="#dd5028" stop-opacity=".526"/><stop offset=".396" stop-color="#eb5728" stop-opacity=".242"/><stop offset=".514" stop-color="#f35c28" stop-opacity=".066"/><stop offset=".578" stop-color="#f75e28" stop-opacity="0"/></linearGradient><linearGradient id="l" x1="21.068" y1="111.253" x2="27.185" y2="122.264" xlink:href="#b"/><linearGradient id="m" x1="28.65" y1="132.918" x2="43.238" y2="153.154" xlink:href="#b"/></defs><path d="m76.18 85.664-1.434.084 9.04-6.95 11.082-21.186a.392.392 0 0 0-.143-.52c-3.482-2.094-9.204-4.995-16.731-6.429-2.816-.536-22.642-4.01-37.032 6.989l-.019.015-.02.015-.018.014-.02.015-.02.015-.018.015-.02.015-.02.015-.019.015-.019.015-.02.015-.018.014-.02.015-.02.015-.018.015-.02.015-.02.015-.018.015-.02.014-.019.015-.019.015-.02.015-.019.015-.02.015-.018.014-.02.016-.02.014-.019.015-.019.015-.02.015-.019.015-.019.015-.02.015-.018.014-.02.015-.02.015-.019.015-.02.015-.018.015-.02.015-.019.015-.02.014a.926.926 0 0 0-.018.015l-.02.015-.02.015-.019.015-.018.014-.02.016-.02.015-.019.014-.02.015-.018.015-.02.015-.02.015-.018.015-.02.014-.02.015-.018.015-.02.015-.02.015-.018.015-.02.015-.02.015-.018.015-.02.014-.02.015-.018.015-.02.015-.019.014-.02.016-.019.014-.019.016-.02.014-.018.015-.02.015-.02.015-.019.015-.018.014-.02.015-.02.015-.019.015-.02.015-.018.015-.02.015-.02.015-.019.015-.018.014-.02.015-.02.015a1.26 1.26 0 0 0-.02.015l-.018.015-.02.014-.019.016-.02.014-.018.015-.02.015-.02.015-.019.015-.019.015-.02.015-.018.014-.02.015-.02.015-.018.015-.02.015-.02.015-.018.015-.02.015-.019.014-.02.015-.019.015-.019.015-.02.015-.018.014-.02.016-.02.015-.019.014-.019.015-.02.015-.019.015-.019.015-.02.015-.018.014-.02.015-.02.015-.019.015-.018.015-.02.015-.02.015-.019.015-.02.014-.018.015-.02.015-.02.015-.019.015-.018.014-.02.016-.02.014-.019.015-.02.015-.018.015-.02.015-.02.015-.018.015-.02.014-.02.015-.018.015-.02.015-.019.015-.02.015-.019.015-.02.015-.018.015-.02.014-.02.015-.018.015-.02.015-.019.015-.02.015-.019.015-.019.014-.02.015-.018.015-.02.015-.02.015-.019.015-.018.014-.02.016-.02.014-.019.015-.02.015-.018.015-.02.015-.02.015-.019.014-.018.015-.02.015-.02.015-.019.015-.02.015-.018.014-.02.016-.02.014-.019.015-.018.015-.02.015-.02.015-.019.015-.019.014-.02.015-.019.015-.02.015-.018.015-.02.015-.02.015-.018.015-.02.015-.019.014-.02.015-.019.015-.02.015-.018.015-.02.014-.02.016-.018.014-.02.015-.019.015-.02.015-.019.015-.019.015-.02.015-.018.014-.02.015-.02.015-.019.015-.018.015-.02.015-.02.015-.019.015-.02.015-.018.014-.02.015-.02.015-.019.015-.018.014-.02.016-.02.015-.019.014-.019.015-.02.015-.019.015-.02.015-.018.015-.02.014-.02.016-.018.014-.02.015-.019.015-.02.015-.019.015-.02.015-.018.014-.02.015-.02.015-.02.016-.018.014-.019.015-.02.015-.019.015-.019.014c-.006.006-.013.01-.02.015l-.018.015-.02.015-.02.015-.019.015-.019.014-.02.015-.019.015-.019.015-.019.015-.02.015-.019.015-.02.015-.019.015-.018.014-.02.015-.02.015-.019.015-.019.014-.02.016-.019.015-.02.015-.019.014-.018.015-.02.015-.02.015-.019.015-.019.014-.02.016-.019.014-.02.015-.018.015-.02.015-.02.015-.018.015-.02.015a.915.915 0 0 0-.019.014l-.02.015-.019.015-.02.015-.018.015-.02.014-.02.016-.018.015-.02.014-.019.015-.02.016-.019.014-.019.015-.019.014-.02.016-.019.015-.02.014-.019.015-.019.015-.02.015-.019.015-.019.015-.019.014-.02.015-.019.015-.02.015-.019.015-.018.015-.02.015-.02.015-.019.014-.019.015-.02.015-.019.015-.02.015-.018.015-.02.014-.02.015-.019.015-.019.015-.019.015-.02.015-.019.015-.02.015-.018.015-.02.014-.02.015-.018.015-.02.015-.019.014-.02.016-.019.015-.019.015-.019.014-.02.015-.02.015-.018.015-.02.015-.019.014-.02.016-.019.014-.019.015-.02.015-.019.015-.019.015-.02.015-.019.015-.019.014-.02.015-.019.015-.019.015-.019.015-.02.015-.019.015-.02.015-.019.014-.018.015-.02.015-.02.015-.019.015-.019.014-.02.016-.019.015-.02.014-.019.015-.018.015-.02.015-.02.015-.019.015-.019.014-.02.015-.019.015-.02.015a.926.926 0 0 0-.018.015l-.02.015-.02.015-.018.015-.02.014-.019.015-.02.015-.019.015-.02.015-.018.014-.02.016-.019.014-.02.015-.019.015a.915.915 0 0 0-.019.015l-.02.015-.019.015-.019.015-.019.014-.02.015-.019.015-.02.016-.019.014c-.007.004-.012.01-.018.014l-.02.016-.02.015-.019.015-.019.014-.02.015-.019.015-.02.015-.019.015-.018.014-.02.016-.02.014-.019.015-.019.015-.02.015-.019.015-.02.015-.018.014-.02.016-.02.014-.018.015-.02.015-.019.015-.02.015-.019.015-.02.014-.018.015-.02.015-.02.015-.018.015-.02.015-.019.014-.02.016-.019.014-.02.015-.018.015-.02.015-.019.015-.02.015-.019.015-.019.014-.02.015-.019.015-.019.015-.019.014-.02.016-.019.015-.02.015-.019.014-.018.015a1.08 1.08 0 0 0-.02.016l-.02.014-.019.015-.019.014-.02.016-.019.014-.02.015-.018.015-.02.015-.02.015-.018.015-.02.015-.019.014-.02.015-.019.015-.02.015-.018.015-.02.015-.02.015-.018.014-.02.016-.019.014-.02.015-.019.015-.02.015-.018.014-.02.016-.019.014c-.006.006-.013.01-.02.015l-.019.015-.019.015-.02.015-.019.015-.019.015a.926.926 0 0 0-.019.014l-.02.015-.019.015-.02.015-.018.015-.02.015-.02.015-.019.015-.019.014-.019.015-.02.015-.019.015-.02.015-.018.014a32.964 32.964 0 0 0-3.535 3.122c-5.738 5.848-8.23 12.74-9.103 15.226a44.258 44.258 0 0 0-2.226 9.808l-.835.122-9.408 7.236a.542.542 0 0 0-.199.548l3.297 14.76a.542.542 0 0 0 .574.421l7.144-.583a.54.54 0 0 1 .577.447c.173.978.397 2.024.682 3.12a.544.544 0 0 1-.192.568s-5.385 4.14-6.117 4.7a.157.157 0 0 0-.057.165l3.832 15.488c.066.264.317.44.588.409l9.788-1.105a62.809 62.809 0 0 0 11.584 15.225c4.031 3.88 16.381 15.765 35.251 16.715 4.016.203 17.49.881 28.054-7.476l9.663-7.432c.71-.56 1.406-1.162 2.086-1.807a31.391 31.391 0 0 0 5.296-6.62l-21.184-16.88-5.914 4.549c-4.222 2.002-8.21 1.83-9.808 1.74-1.997-.114-6.62-.44-10.935-3.816l7.045-.984 9.682-7.447-4.055-14.76a.37.37 0 0 0-.393-.27l-25.01 2.452c-.29-.76-.57-1.598-.82-2.502l14.307-1.801 9.682-7.447-4.053-15.017a.399.399 0 0 0-.408-.294zm-19.625-1.609c4.857-1.207 10.792-.633 16.715 1.832l-17.95 1.682a16.195 16.195 0 0 1 1.235-3.514z" fill="url(#c)"/><path fill="url(#a)" d="m63.627 128.804 2.73 5.544 10.892-1.598 9.63-7.422-23.252 3.476z"/><path fill="url(#b)" d="m9.866 116.327 9.21-7.409 8.11-.662-10.176 7.488-7.144.583z"/><path fill="url(#d)" d="m16.322 140.64 10.15-7.45 9.32-1.102-9.682 7.447-9.788 1.106z"/><path fill="url(#e)" d="m70.96 108.422 9.682-7.447-25.29 2.55 1.3 6.697 14.308-1.8z"/><path d="M56.555 84.055s6.513-16.454 27.231-5.257l-9.04 6.95-1.476.139s-9.23-3.96-16.715-1.832z" fill="url(#f)"/><path d="M94.868 57.612 83.786 78.798c-9.81-4.38-19.798-3.555-24.99 1.986-1.127 1.202-2.675 3.317-3.475 6.785l20.849-1.954a.399.399 0 0 1 .422.293l4.05 15.067-24.99 3.144a28.467 28.467 0 0 0 1.82 8.606l25.01-2.452a.37.37 0 0 1 .394.27l4.055 14.76-21.35 2.978c.775 1.403 2.2 3.561 4.635 5.462 4.311 3.367 8.928 3.693 10.922 3.806 1.843.105 6.859.32 11.75-2.813a17.924 17.924 0 0 0 3.973-3.476l21.183 16.881a31.391 31.391 0 0 1-5.295 6.62c-10.796 10.241-25.838 9.484-30.121 9.268-18.87-.95-31.22-12.836-35.251-16.715a62.808 62.808 0 0 1-11.585-15.226l-10.26 1.159-3.973-16.054 7.779-.993a39.998 39.998 0 0 1-2.152-7.944l-8.11.662-3.475-15.556 10.261-1.49a44.542 44.542 0 0 1 2.483-15.888c.872-2.486 3.365-9.377 9.102-15.226C51.882 46.045 74.94 50.082 77.994 50.663c7.528 1.434 13.249 4.335 16.731 6.43.179.107.24.334.143.519z" fill="#ff8000"/><path d="M94.868 57.612 83.786 78.798c-9.81-4.38-19.798-3.555-24.99 1.986-1.127 1.202-2.675 3.317-3.475 6.785l20.849-1.954a.399.399 0 0 1 .422.293l4.05 15.067-24.99 3.144a28.467 28.467 0 0 0 1.82 8.606l25.01-2.452a.37.37 0 0 1 .394.27l4.055 14.76-21.35 2.978c.775 1.403 2.2 3.561 4.635 5.462 4.311 3.367 8.928 3.693 10.922 3.806 1.843.105 6.859.32 11.75-2.813a17.924 17.924 0 0 0 3.973-3.476l21.183 16.881a31.391 31.391 0 0 1-5.295 6.62c-10.796 10.241-25.838 9.484-30.121 9.268-18.87-.95-31.22-12.836-35.251-16.715a62.808 62.808 0 0 1-11.585-15.226l-10.26 1.159-3.973-16.054 7.779-.993a39.998 39.998 0 0 1-2.152-7.944l-8.11.662-3.475-15.556 10.261-1.49a44.542 44.542 0 0 1 2.483-15.888c.872-2.486 3.365-9.377 9.102-15.226C51.882 46.045 74.94 50.082 77.994 50.663c7.528 1.434 13.249 4.335 16.731 6.43.179.107.24.334.143.519z" fill="url(#g)"/><path d="m80.615 100.829-24.758 3.115.01.16 24.79-3.12-.042-.155zM86.904 125.16l-21.117 2.946.085.148 21.074-2.941-.042-.153zM96.892 131.284l-.016-.013a18.46 18.46 0 0 1-1.05 1.13 18.22 18.22 0 0 0 1.066-1.117zM26.068 91.697a44.54 44.54 0 0 1 2.482-15.888c.872-2.486 3.365-9.378 9.102-15.226.18-.184.363-.362.546-.54-.248.237-.493.478-.736.726-5.738 5.848-8.23 12.74-9.103 15.226a44.51 44.51 0 0 0-2.485 15.73l.194-.028zM59.22 80.191c5.328-5.026 14.958-5.647 24.425-1.421l.114-.219c-9.557-4.239-19.266-3.541-24.54 1.64zM28.194 112.735a39.89 39.89 0 0 0 1.101 3.322l.248-.032a40.009 40.009 0 0 1-2.151-7.944l-8.11.662-3.441-15.404-.225.033 3.476 15.557 8.109-.662c.222 1.364.54 2.866.993 4.468zM82.833 163.854c-18.87-.951-31.22-12.836-35.25-16.716a62.807 62.807 0 0 1-11.586-15.225l-10.26 1.158-3.934-15.896-.229.029 3.972 16.053 10.26-1.158a62.808 62.808 0 0 0 11.586 15.225c4.03 3.88 16.38 15.765 35.25 16.715 4.284.216 19.325.974 30.121-9.267.055-.052.103-.103.157-.155-10.794 10.207-25.808 9.452-30.087 9.237z" fill="#f2a33d"/><path d="M159.577 48.793a2.714 2.714 0 0 1-.044-.008l-22.684-3.966c-21.125-2.97-41.797 19.86-46.173 50.992-4.376 31.132 9.201 58.776 30.326 61.746l21.89 2.715.04.005h.003c20.918 2.941 41.389-19.666 45.722-50.493 4.267-30.358-8.706-57.367-29.08-60.99zm-15.396 54.7c-1.093 7.773-3.831 14.562-7.374 19.251-2.092-5.43-2.845-12.64-1.763-20.337 1.095-7.793 3.864-14.585 7.436-19.234 2.05 5.459 2.78 12.649 1.7 20.32z" fill="url(#h)"/><path d="M136.85 44.819c-21.126-2.97-41.798 19.86-46.174 50.992-4.376 31.132 9.201 58.776 30.326 61.746 21.125 2.97 41.798-19.861 46.174-50.993 4.376-31.132-9.202-58.776-30.327-61.746zm7.33 58.674C142 119.01 133.26 130.61 124.659 129.4c-8.602-1.209-13.806-14.768-11.625-30.285S123.955 72 132.556 73.208c8.602 1.21 13.806 14.768 11.625 30.285z" fill="#ff8000"/><path d="M136.85 44.935c-21.126-2.97-41.798 19.86-46.174 50.993-4.376 31.131 9.201 58.776 30.326 61.745 21.125 2.97 41.798-19.86 46.174-50.992 4.376-31.132-9.202-58.777-30.327-61.746zm7.33 58.675c-2.18 15.517-10.921 27.116-19.522 25.907-8.602-1.21-13.806-14.768-11.625-30.285s10.922-27.116 19.523-25.907c8.602 1.209 13.806 14.768 11.625 30.285z" fill="url(#i)"/><path d="M124.658 129.327c-1.446-.332-2.401-.885-3.016-1.25-.297-.206-.525-.349-.667-.46l-.21-.169c-.57-.435-1.076-.947-1.564-1.467a15.44 15.44 0 0 1-1.296-1.706 20.288 20.288 0 0 1-1.969-3.805 29.691 29.691 0 0 1-1.291-4.101 42.377 42.377 0 0 1-.756-4.245 40.25 40.25 0 0 1-.31-4.307c-.02-.506-.008-1.014-.02-1.52 0-.507.017-1.014.023-1.52l.06-1.283c.09-1.438.24-2.873.442-4.3v-.009c.2-1.428.452-2.848.762-4.255a53.987 53.987 0 0 1 1.13-4.173c.422-1.378.92-2.732 1.486-4.055a42.38 42.38 0 0 1 1.897-3.872c.702-1.254 1.5-2.45 2.372-3.586a20.288 20.288 0 0 1 2.941-3.114 15.441 15.441 0 0 1 1.716-1.284c.613-.364 1.24-.717 1.908-.979a10.324 10.324 0 0 1 2.652-.694l.4-.028c.132-.005.3-.03.501-.025l.707.015-.7-.118c-.202-.034-.372-.033-.508-.047l-.41-.03c-.95-.028-1.905.12-2.83.372-1.466.4-2.831 1.122-4.072 1.995-1.238.882-2.354 1.923-3.37 3.047-1.017 1.124-1.907 2.354-2.723 3.623a33.186 33.186 0 0 0-2.176 3.966 42.172 42.172 0 0 0-1.697 4.185 46.314 46.314 0 0 0-1.244 4.337 57.46 57.46 0 0 0-.844 4.425v.008a57.46 57.46 0 0 0-.41 4.486l-.048 1.337c-.01 1.058-.019 2.117.048 3.174.078 1.504.239 3.004.478 4.492.232 1.489.564 2.964.998 4.411.435 1.446.951 2.873 1.619 4.234.667 1.36 1.453 2.669 2.4 3.858.952 1.181 2.065 2.251 3.363 3.04l.241.15c.162.098.42.22.753.395.68.315 1.756.735 3.234.852z" fill="#ff911a"/><path d="M132.556 73.325c4.363.135 7.788 4.335 9.888 9.862 0 0-4.718 5.886-6.51 14.509l-20.573-4.83s4.879-19.922 17.195-19.541z" fill="url(#j)"/><path d="m114.314 97.696 20.917 3.492c-.704 3.491-.678 8.236-.678 8.236-.156 7.905 2.31 13.363 2.31 13.363-3.539 4.719-7.991 7.841-12.205 6.73-11.604-3.06-11.098-23.22-11.098-23.22.17-2.586.754-8.601.754-8.601z" fill="url(#k)"/><path d="m17.01 115.744 10.176-7.488s1.096 5.61 2.109 7.8l-7.72 1.148-3.498 2.674s.325-.078.137-.854-.627-2.833-.627-2.833-.134-.503-.577-.447z" fill="url(#l)"/><path d="m26.11 139.535 9.682-7.447s5.517 9.497 10.013 13.652l-9.489 7.65s-6.71-6.966-10.206-13.855z" fill="url(#m)"/><path d="M121.002 157.673c12.788 1.358 24.353-6.806 31.59-16.726 14.414-20.039 18.342-47.988 10.012-71.225-3.25-8.668-8.776-16.91-16.943-21.59a28.911 28.911 0 0 0-8.812-3.197c6.317.633 12.281 3.772 16.885 8.2 22.156 22.698 18.826 64.916.222 88.856-7.652 9.893-20.024 18.04-32.954 15.682z" fill="#ff911a"/><ellipse cx="85.438" cy="181.591" rx="60.934" ry="5.35" fill="#090909" opacity=".07"/></svg>