<?xml version="1.0" encoding="UTF-8"?><svg id="Layer_12" xmlns="http://www.w3.org/2000/svg" xmlns:xlink="http://www.w3.org/1999/xlink" viewBox="0 0 200 200"><defs><style>.cls-1{fill:url(#linear-gradient-7);}.cls-2{fill:url(#linear-gradient-5);}.cls-3{fill:url(#linear-gradient-6);}.cls-4{fill:url(#linear-gradient-4);}.cls-5{fill:url(#linear-gradient-3);}.cls-6{fill:url(#linear-gradient-2);}.cls-7{fill:url(#linear-gradient);}.cls-8{fill:none;stroke:#ff8000;stroke-miterlimit:10;stroke-width:6.92px;}.cls-9{fill:#fff;}.cls-10{fill:#090909;opacity:.07;}</style><linearGradient id="linear-gradient" x1="-1222.17" y1="112.59" x2="-1148.01" y2="112.59" gradientTransform="translate(-1085.62) rotate(-180) scale(1 -1)" gradientUnits="userSpaceOnUse"><stop offset=".09" stop-color="#c64528"/><stop offset=".4" stop-color="#e25328"/><stop offset=".67" stop-color="#f75e28"/><stop offset=".73" stop-color="#f7602b"/><stop offset=".77" stop-color="#f76735"/><stop offset=".82" stop-color="#f87446"/><stop offset=".86" stop-color="#f9865d"/><stop offset=".89" stop-color="#fa9d7c"/><stop offset=".93" stop-color="#fbb9a2"/><stop offset=".97" stop-color="#fddacd"/><stop offset="1" stop-color="#fff"/></linearGradient><linearGradient id="linear-gradient-2" x1="-1221.52" y1="49.57" x2="-1221.32" y2="49.48" gradientTransform="translate(-1085.62) rotate(-180) scale(1 -1)" gradientUnits="userSpaceOnUse"><stop offset="0" stop-color="#f75e28"/><stop offset=".19" stop-color="#fa6e14"/><stop offset=".43" stop-color="#ff8000"/><stop offset=".56" stop-color="#ffa143"/><stop offset=".72" stop-color="#ffc992"/><stop offset=".85" stop-color="#ffe6cd"/><stop offset=".95" stop-color="#fff8f1"/><stop offset="1" stop-color="#fff"/></linearGradient><linearGradient id="linear-gradient-3" x1="103.27" y1="125.14" x2="24.4" y2="43.08" gradientUnits="userSpaceOnUse"><stop offset=".04" stop-color="#ff5b00"/><stop offset=".23" stop-color="#ff7300"/><stop offset=".33" stop-color="#fd8818"/><stop offset=".61" stop-color="#f9c761"/><stop offset=".65" stop-color="#fad17f"/><stop offset=".79" stop-color="#fdf2da"/><stop offset=".86" stop-color="#fff"/></linearGradient><linearGradient id="linear-gradient-4" x1="-1163.87" y1="51.34" x2="-1258.41" y2="95.27" gradientTransform="translate(-1085.62) rotate(-180) scale(1 -1)" gradientUnits="userSpaceOnUse"><stop offset=".02" stop-color="#fdfdfd"/><stop offset=".04" stop-color="#f6f6f6"/><stop offset=".25" stop-color="#cacaca"/><stop offset=".4" stop-color="#afaeae"/><stop offset=".49" stop-color="#a5a4a4"/></linearGradient><linearGradient id="linear-gradient-5" x1="-1186.75" y1="164.68" x2="-1148.01" y2="164.68" gradientTransform="translate(-1085.62) rotate(-180) scale(1 -1)" gradientUnits="userSpaceOnUse"><stop offset=".08" stop-color="#f75e28"/><stop offset=".48" stop-color="#fa6e14"/><stop offset=".98" stop-color="#ff8000"/></linearGradient><linearGradient id="linear-gradient-6" x1="-1194.13" y1="122.29" x2="-1144.83" y2="91.09" gradientTransform="translate(-1085.62) rotate(-180) scale(1 -1)" gradientUnits="userSpaceOnUse"><stop offset=".38" stop-color="#c64528"/><stop offset=".74" stop-color="#eb6b0d"/><stop offset=".98" stop-color="#ff8000"/></linearGradient><linearGradient id="linear-gradient-7" x1="-1170.1" y1="82.55" x2="-1195.21" y2="-3.2" gradientTransform="translate(-1085.62) rotate(-180) scale(1 -1)" gradientUnits="userSpaceOnUse"><stop offset=".13" stop-color="#ff8000" stop-opacity="0"/><stop offset=".19" stop-color="#f67906" stop-opacity=".12"/><stop offset=".29" stop-color="#e06a15" stop-opacity=".43"/><stop offset=".45" stop-color="#bc512f" stop-opacity=".92"/><stop offset=".47" stop-color="#b74e33"/></linearGradient></defs><ellipse class="cls-10" cx="68.38" cy="181.59" rx="37.02" ry="5.35"/><path class="cls-7" d="M128.42,63.29c.28-1.64,1.14-4.9,2.25-7.5,1.68-3.96,4.01-6.75,5.2-6.25,1.19.51.78,4.12-.9,8.08-1.11,2.61-2.5,4.71-3.66,5.69l-30.18,112.37-38.75-10.98,66.04-101.41Z"/><path class="cls-6" d="M135.73,49.5s.09.02.14.04l-.14-.04Z"/><path class="cls-5" d="M3.32,130.55L67.72,43.31h0,0s0,0,0,0c.16.07-1.28-2.58-.21-6.5,1.13-4.15,4.4-6.54,5.59-6.03l62.63,18.73c-1.22-.25-3.44,2.48-5.06,6.29-1.68,3.96-2.25,7.5-2.25,7.5l-66.04,101.41L3.32,130.55"/><path class="cls-4" d="M96.95,37.84c-1.19-.51-3.41.62-5.38,4.44-1.79,3.48-2.62,8.07-1.43,8.58l-16.35,22.48,11.52,4.4,16.29-23.55c-1.19-.51-.78-4.12.9-8.08,1.68-3.96,4.57-5.39,5.76-4.89l-11.31-3.38Z"/><polygon class="cls-2" points="101.13 175.68 62.38 164.7 87.39 153.68 101.13 175.68"/><path class="cls-3" d="M87.39,153.68l-25.01,11.03s61.7-94.39,66.04-101.41c1.98,3.38-41.03,90.38-41.03,90.38Z"/><polygon class="cls-1" points="128.42 63.29 67.72 43.31 51.05 65.9 114.06 85.25 128.42 63.29"/><line class="cls-8" x1="167.56" y1="153.68" x2="133.78" y2="153.68"/><line class="cls-8" x1="179.18" y1="121.81" x2="147.05" y2="121.81"/><line class="cls-8" x1="193.42" y1="89.95" x2="133.78" y2="89.95"/><path class="cls-9" d="M41.71,119.14c-.95-.46-1.62-1.21-2-2.26-.38-1.05-.54-2.29-.46-3.73.07-1.44.36-3.02.86-4.75.5-1.73,1.15-3.51,1.95-5.33l-1.67-.8,3.12-5.43,1.28.62c.12-.24.25-.49.41-.76.15-.27.29-.5.4-.69.11-.19.25-.43.41-.72.17-.29.31-.53.44-.71l-1.28-.62,3.12-5.43,1.71.83c1.18-1.59,2.41-3.06,3.68-4.39,1.27-1.33,2.52-2.43,3.75-3.28,1.23-.86,2.42-1.43,3.56-1.71s2.19-.2,3.14.26c1.05.5,1.77,1.27,2.18,2.31.4,1.03.54,2.28.4,3.74l-6.56,5.69c.07-1.34-.29-2.21-1.07-2.59-.5-.24-1.13-.25-1.88-.02-.76.22-1.66.95-2.71,2.16l3.33,1.61-3.12,5.43-3.89-1.88c-.14.18-.3.41-.46.7-.16.29-.3.53-.41.72-.11.19-.24.42-.4.69-.15.27-.28.53-.38.77l3.89,1.88-3.12,5.43-3.33-1.61c-.52,1.52-.69,2.66-.51,3.41.19.75.54,1.25,1.05,1.5.38.19.82.22,1.31.11.48-.11.98-.34,1.49-.68l-1.24,7.75c-2.52,2.23-4.83,2.83-6.96,1.81Z"/><path class="cls-9" d="M55.3,125.71c-1.29-.62-2.09-1.72-2.39-3.3-.31-1.58-.25-3.43.16-5.57s1.13-4.45,2.16-6.93c1.03-2.48,2.23-4.94,3.63-7.37,1.39-2.43,2.92-4.73,4.57-6.91,1.65-2.18,3.32-4.03,5.01-5.56,1.69-1.52,3.32-2.61,4.92-3.27,1.59-.66,3.03-.68,4.32-.05,1.27.61,2.07,1.71,2.38,3.29.32,1.58.27,3.44-.15,5.58-.42,2.14-1.13,4.45-2.16,6.93-1.03,2.48-2.23,4.94-3.63,7.37-1.39,2.43-2.92,4.73-4.57,6.91-1.65,2.18-3.32,4.03-5.01,5.56-1.69,1.52-3.33,2.61-4.93,3.27-1.6.65-3.04.67-4.31.06ZM60.71,116.28c.92.44,2.18-.08,3.78-1.57,1.61-1.49,3.31-3.81,5.13-6.97,1.81-3.16,2.93-5.77,3.36-7.83s.19-3.31-.73-3.75-2.18.08-3.78,1.57c-1.61,1.49-3.31,3.81-5.13,6.97-1.81,3.16-2.94,5.77-3.36,7.83-.43,2.06-.19,3.31.73,3.75Z"/></svg>