<svg xmlns="http://www.w3.org/2000/svg" width="200" height="200" xmlns:xlink="http://www.w3.org/1999/xlink"><defs><linearGradient id="g" x1="102.785" y1="119.732" x2="68.088" y2="147.923" gradientTransform="rotate(45 83.52 135.384)" xlink:href="#a"/><linearGradient id="c" x1="41.882" y1="134.488" x2="152.623" y2="20.856" gradientUnits="userSpaceOnUse"><stop offset=".002" stop-color="#fbe7b4"/><stop offset=".011" stop-color="#fbd696"/><stop offset=".026" stop-color="#fcbb68"/><stop offset=".041" stop-color="#fda643"/><stop offset=".057" stop-color="#fe9525"/><stop offset=".072" stop-color="#fe8910"/><stop offset=".086" stop-color="#fe8204"/><stop offset=".1" stop-color="#ff8000"/><stop offset=".124" stop-color="#f16f0a"/><stop offset=".163" stop-color="#e05a18"/><stop offset=".201" stop-color="#d64e20"/><stop offset=".237" stop-color="#d34a23"/><stop offset=".513" stop-color="#c64528"/><stop offset=".593" stop-color="#cb4a24"/><stop offset=".699" stop-color="#db5b18"/><stop offset=".819" stop-color="#f67606"/><stop offset=".854" stop-color="#ff8000"/><stop offset=".907" stop-color="#fda33e"/><stop offset="1" stop-color="#fbe7b4"/></linearGradient><linearGradient id="b" x1="63.234" y1="75.955" x2="164.065" y2="75.955" gradientUnits="userSpaceOnUse"><stop offset=".29" stop-color="#c64528"/><stop offset=".479" stop-color="#cf4928"/><stop offset=".786" stop-color="#e75628"/><stop offset=".947" stop-color="#f75e28"/></linearGradient><linearGradient id="e" x1="182.796" y1="54.365" x2="64.827" y2="77.785" gradientUnits="userSpaceOnUse"><stop offset=".029" stop-color="#ff7300"/><stop offset=".49" stop-color="#ff8000"/><stop offset=".776" stop-color="#fab344"/><stop offset=".946" stop-color="#f8ce69"/></linearGradient><linearGradient id="f" x1="114.792" y1="48.486" x2="113.084" y2="105.133" gradientUnits="userSpaceOnUse"><stop offset=".005" stop-color="#c64528"/><stop offset=".287" stop-color="#d84e28" stop-opacity=".63"/><stop offset=".569" stop-color="#e85628" stop-opacity=".292"/><stop offset=".775" stop-color="#f35b28" stop-opacity=".081"/><stop offset=".88" stop-color="#f75e28" stop-opacity="0"/></linearGradient><linearGradient id="a" x1="118.451" y1="137.048" x2="80.284" y2="159.601" gradientTransform="rotate(45 98.54 148.814)" gradientUnits="userSpaceOnUse"><stop offset=".028" stop-color="#ff8000"/><stop offset=".422" stop-color="#fc9d28"/><stop offset=".997" stop-color="#f8ce69"/></linearGradient><linearGradient id="d" x1="154.352" y1="128.611" x2="12.492" y2="56.162" gradientUnits="userSpaceOnUse"><stop offset=".303" stop-color="#f75e28"/><stop offset=".475" stop-color="#fb7011"/><stop offset=".594" stop-color="#ff8000"/><stop offset=".78" stop-color="#ff8000"/><stop offset=".804" stop-color="#fe8407"/><stop offset=".841" stop-color="#fe901c"/><stop offset=".885" stop-color="#fda33e"/><stop offset=".936" stop-color="#fcbe6d"/><stop offset=".991" stop-color="#fbe0a9"/><stop offset="1" stop-color="#fbe7b4"/></linearGradient><linearGradient id="h" x1="89.11" y1="106.029" x2="50.944" y2="135.521" gradientTransform="rotate(45 68.5 121.955)" xlink:href="#a"/><linearGradient id="i" x1="77.376" y1="95.274" x2="29.667" y2="121.73" gradientTransform="rotate(45 53.48 108.525)" xlink:href="#a"/><linearGradient id="j" x1="80.139" y1="99.196" x2="32.335" y2="125.706" xlink:href="#b"/><linearGradient id="k" x1="95.151" y1="112.617" x2="47.346" y2="139.127" xlink:href="#b"/><linearGradient id="l" x1="110.162" y1="126.038" x2="62.357" y2="152.548" xlink:href="#b"/><linearGradient id="m" x1="125.173" y1="139.459" x2="77.369" y2="165.969" gradientUnits="userSpaceOnUse"><stop offset=".29" stop-color="#c64528"/><stop offset=".455" stop-color="#ce4e21"/><stop offset=".723" stop-color="#e66611"/><stop offset=".948" stop-color="#ff8000"/></linearGradient></defs><ellipse cx="94.355" cy="181.591" rx="37.022" ry="5.35" fill="#090909" opacity=".07"/><path d="M171.225 46.842a45.986 45.986 0 0 0-7.464-9.78c-17.106-17.106-45.28-16.665-62.928.983l-.044.042C81 20.288 50.767 20.661 32.034 39.395 14.24 57.187 13.02 85.345 28.19 105.086A51.236 51.236 0 0 0 35.69 115a10.7 10.7 0 0 0 3.12 8.196c.305.304.627.58.957.84a10.707 10.707 0 0 0 11.28 7.749 10.684 10.684 0 0 0 2.784 4.84c.303.304.624.577.953.837a10.684 10.684 0 0 0 2.732 4.657 10.704 10.704 0 0 0 8.555 3.094 10.658 10.658 0 0 0 2.78 4.842c.302.303.623.576.95.835a10.665 10.665 0 0 0 2.735 4.659 10.728 10.728 0 0 0 8.552 3.106 10.681 10.681 0 0 0 2.782 4.83c.303.302.623.577.95.836a10.683 10.683 0 0 0 2.736 4.657c4.199 4.199 11.007 4.199 15.206 0l14.133-14.133a10.683 10.683 0 0 0 2.832-5.058c8.572 1.557 17.338-7.897 16.337-15.375 6.122 2.63 18.23-8.665 16.496-15.476 11.421.595 15.903-10.104 15.19-14.784 16.238-16.237 16.807-40.25 3.475-57.31z" fill="url(#c)"/><path d="M102.793 39.982c-19.702-19.702-51.382-19.965-70.76-.587-19.377 19.377-19.114 51.057.588 70.76l63.2 53.676s16.299-13.88 19.555-19.677c8.777 2.192 18.03-7.565 17.002-15.236 6.122 2.629 18.231-8.665 16.496-15.476 11.421.594 15.903-10.104 15.19-14.784-1.877-2.404-61.271-58.676-61.271-58.676z" fill="url(#d)"/><path d="M63.234 74.126s12.777 14.9 30.68.869l22.864-21.743 47.287 45.406-43.737-41.838-22.761 21.94S83.52 91.677 63.234 74.127z" fill="url(#b)"/><path d="M164.065 98.657c17.648-17.648 16.801-44.49-.304-61.595-17.106-17.106-45.28-16.665-62.928.983l-37.6 36.081c8.216 8.75 21.983 9.14 30.68.869l22.865-21.743 47.287 45.406z" fill="url(#e)"/><path d="m164.065 98.657-44.46-41.141-22.038 21.245S83.52 91.194 63.234 74.126l19.138 26.031s40.646 48.468 81.693-1.5z" fill="url(#f)"/><path d="M63.357 74.01c7.595 7.662 20.88 7.97 28.522.56 1.601-1.498 4.06-4.175 5.665-5.812l17.08-17.772 2.17-2.259 2.15 2.27 45.12 47.66-49.451-43.15 4.32.01c-7.26 6.232-17.68 15.503-24.926 21.57-9.117 7.387-23.504 6.062-30.897-2.846l.247-.23z" fill="#ff8000"/><path d="M115.67 142.974c5.95 1.419 11.92-3.059 14.421-8.258 1.3-2.54 1.288-5.074.823-7.73l1.945.814c3.418 1.17 7.492-1.766 10.031-4.114 2.554-2.497 5.498-6.333 4.806-9.944l-.172-1.626c2.298.226 4.692.312 6.927-.363 5.468-1.637 9.723-7.32 9.57-13.089.852 3.79-1.21 8.26-3.81 11.215-2.808 3.222-7.161 4.794-11.4 4.777.001.004 1.245-1.527 1.243-1.511 1.85 7.64-10.57 19.818-18.155 16.891l1.685-1.28c.853 9.36-9.193 18.79-18.503 16.579l.59-2.361z" fill="#c64528"/><rect x="77.794" y="138.062" width="41.492" height="21.504" rx="10.752" ry="10.752" transform="rotate(-45 98.54 148.814)" fill="url(#a)"/><rect x="62.774" y="124.632" width="41.492" height="21.504" rx="10.752" ry="10.752" transform="rotate(-45 83.52 135.384)" fill="url(#g)"/><rect x="47.754" y="111.203" width="41.492" height="21.504" rx="10.752" ry="10.752" transform="rotate(-45 68.5 121.955)" fill="url(#h)"/><rect x="32.734" y="97.773" width="41.492" height="21.504" rx="10.752" ry="10.752" transform="rotate(-45 53.48 108.525)" fill="url(#i)"/><path d="M68.15 93.856c4.199 4.199 4.199 11.007 0 15.205l-14.134 14.134c-3.767 3.767-9.633 4.154-13.832 1.163-.482-.344-.941-.731-1.373-1.163l1.285 1.285c4.2 4.2 11.007 4.2 15.206 0l14.133-14.133c4.2-4.199 4.2-11.007 0-15.206l-1.285-1.285z" fill="url(#j)"/><path d="M83.16 107.277c4.2 4.199 4.2 11.006 0 15.205l-14.132 14.134c-3.767 3.767-9.634 4.154-13.833 1.162-.481-.343-.941-.73-1.373-1.162l1.286 1.285c4.198 4.2 11.006 4.2 15.205 0l14.134-14.133c4.198-4.199 4.198-11.007 0-15.206l-1.286-1.285z" fill="url(#k)"/><path d="M98.172 120.698c4.199 4.199 4.199 11.006 0 15.205l-14.133 14.134c-3.767 3.767-9.634 4.154-13.833 1.162-.481-.343-.94-.73-1.373-1.162l1.286 1.285c4.199 4.2 11.006 4.2 15.205 0l14.134-14.133c4.199-4.199 4.199-11.007 0-15.206l-1.286-1.285z" fill="url(#l)"/><path d="M113.183 134.119c4.2 4.198 4.2 11.006 0 15.205L99.05 163.458c-3.767 3.766-9.634 4.154-13.832 1.162-.482-.343-.942-.73-1.374-1.162l1.286 1.285c4.199 4.2 11.007 4.2 15.206 0l14.133-14.133c4.199-4.199 4.199-11.007 0-15.206l-1.286-1.285z" fill="url(#m)"/><path fill="none" stroke="#c64528" stroke-linecap="round" stroke-miterlimit="10" stroke-width="2.433" d="m133.371 98.657 15.659 15.036M116.806 113.743l15.658 15.035"/><path d="M68.15 93.856c5.038 3.695 5.222 11.625.92 15.992l-2.352 2.412a421.698 421.698 0 0 1-12.052 11.717c-4.322 4.214-12.094 3.98-15.855-.782 4.12 3.5 10.762 3.346 14.429-.667l2.305-2.435c3.093-3.242 6.213-6.457 9.407-9.6l2.391-2.346c3.914-3.683 4.085-10.017.807-14.291zM83.16 107.277c5.04 3.695 5.223 11.625.922 15.992l-2.353 2.412a421.249 421.249 0 0 1-12.052 11.717c-4.322 4.214-12.094 3.98-15.855-.782 4.12 3.499 10.762 3.346 14.429-.667l2.305-2.435c3.093-3.242 6.213-6.457 9.407-9.6l2.392-2.346c3.913-3.683 4.084-10.017.806-14.291zM98.172 120.698c5.039 3.695 5.223 11.625.921 15.992l-2.353 2.411a421.123 421.123 0 0 1-12.052 11.718c-4.322 4.214-12.094 3.98-15.855-.783 4.12 3.5 10.762 3.346 14.43-.667l2.304-2.434c3.093-3.242 6.214-6.457 9.407-9.6l2.392-2.346c3.913-3.683 4.085-10.017.806-14.291zM113.183 134.119c5.039 3.695 5.223 11.625.921 15.992l-2.353 2.411A421.316 421.316 0 0 1 99.7 164.24c-4.322 4.214-12.094 3.98-15.855-.783 4.12 3.5 10.762 3.346 14.43-.667l2.305-2.434c3.093-3.242 6.213-6.457 9.406-9.6l2.392-2.346c3.914-3.683 4.085-10.017.806-14.291z" fill="#ff8000"/><path d="M83.285 27.773C55.478 19.65 25.568 36.316 19.61 64.948c-1.948 8.995-1.409 18.542 1.458 27.498-5.964-12.908-5.548-28.793.98-41.547 10.988-22.193 38.4-32.703 61.237-23.126z" fill="#f6c243"/></svg>