<svg xmlns="http://www.w3.org/2000/svg" width="200" height="200" xmlns:xlink="http://www.w3.org/1999/xlink"><defs><linearGradient id="b" x1="31.412" y1="62.285" x2="105.141" y2="174.741" gradientUnits="userSpaceOnUse"><stop offset="0" stop-color="#fff"/><stop offset=".027" stop-color="#fde5dd"/><stop offset=".071" stop-color="#fbc2ad"/><stop offset=".117" stop-color="#faa384"/><stop offset=".163" stop-color="#f98a63"/><stop offset=".21" stop-color="#f87649"/><stop offset=".258" stop-color="#f76836"/><stop offset=".309" stop-color="#f7602b"/><stop offset=".364" stop-color="#f75e28"/><stop offset=".885" stop-color="#c64528"/></linearGradient><linearGradient id="a" x1="75.709" y1="134.547" x2="74.343" y2="104.385" gradientUnits="userSpaceOnUse"><stop offset=".082" stop-color="#c64528"/><stop offset=".144" stop-color="#cb4728" stop-opacity=".883"/><stop offset=".273" stop-color="#da4f28" stop-opacity=".583"/><stop offset=".459" stop-color="#f15b28" stop-opacity=".105"/><stop offset=".498" stop-color="#f75e28" stop-opacity="0"/></linearGradient><linearGradient id="c" x1="22.843" y1="114.62" x2="3.893" y2="104.773" xlink:href="#a"/><linearGradient id="d" x1="30.981" y1="139.007" x2="9.29" y2="127.736" xlink:href="#a"/><linearGradient id="e" x1="68.479" y1="110.313" x2="67.102" y2="79.886" xlink:href="#a"/><linearGradient id="f" x1="70.531" y1="86.808" x2="68.653" y2="45.317" xlink:href="#a"/><linearGradient id="g" x1="119.089" y1="133.507" x2="22.273" y2="72.438" gradientUnits="userSpaceOnUse"><stop offset=".082" stop-color="#c64528"/><stop offset=".144" stop-color="#cb4728" stop-opacity=".883"/><stop offset=".273" stop-color="#da4f28" stop-opacity=".583"/><stop offset=".459" stop-color="#f15b28" stop-opacity=".105"/><stop offset=".498" stop-color="#f75e28" stop-opacity="0"/><stop offset=".567" stop-color="#f77040" stop-opacity=".114"/><stop offset=".718" stop-color="#fa9f7f" stop-opacity=".405"/><stop offset=".938" stop-color="#fde9e2" stop-opacity=".866"/><stop offset="1" stop-color="#fff"/></linearGradient><linearGradient id="h" x1="148.297" y1="31.444" x2="130.553" y2="180.594" gradientUnits="userSpaceOnUse"><stop offset="0" stop-color="#fff"/><stop offset=".027" stop-color="#fde5dd"/><stop offset=".071" stop-color="#fbc2ad"/><stop offset=".117" stop-color="#faa384"/><stop offset=".163" stop-color="#f98a63"/><stop offset=".21" stop-color="#f87649"/><stop offset=".258" stop-color="#f76836"/><stop offset=".309" stop-color="#f7602b"/><stop offset=".364" stop-color="#f75e28"/><stop offset="1" stop-color="#c64528"/></linearGradient><linearGradient id="i" x1="175.541" y1="136.614" x2="89.936" y2="71.871" gradientUnits="userSpaceOnUse"><stop offset=".174" stop-color="#f75e28" stop-opacity=".7"/><stop offset=".27" stop-color="#f7632f" stop-opacity=".674"/><stop offset=".404" stop-color="#f87446" stop-opacity=".602"/><stop offset=".56" stop-color="#f98f6a" stop-opacity=".483"/><stop offset=".731" stop-color="#fbb59d" stop-opacity=".318"/><stop offset=".914" stop-color="#fde6dd" stop-opacity=".109"/><stop offset="1" stop-color="#fff" stop-opacity="0"/></linearGradient></defs><ellipse cx="78.968" cy="181.591" rx="37.022" ry="5.35" fill="#090909" opacity=".07"/><path d="m76.305 85.813-1.435.084 9.04-6.95L94.992 57.76a.392.392 0 0 0-.143-.52c-3.482-2.094-9.203-4.995-16.731-6.429-2.816-.536-22.642-4.01-37.031 6.989l-.02.015-.02.015-.018.014-.02.015-.02.016-.018.014-.02.015-.02.015-.018.015-.02.015-.02.015-.018.014-.02.015-.019.015-.02.015-.018.015-.02.015-.02.015-.019.015-.019.014-.019.015-.02.015-.019.015-.02.015-.018.014-.02.016-.02.014-.019.015-.018.015-.02.015-.02.015-.019.015-.02.015-.018.014-.02.015-.02.015-.019.015-.019.015-.02.015-.019.015-.019.015-.02.014a.926.926 0 0 0-.018.015l-.02.015-.02.015-.019.015-.018.014-.02.016-.02.015-.019.014-.02.015-.018.015-.02.015-.02.015-.018.015-.02.014-.02.015-.018.015-.02.015-.019.015-.019.015-.02.015-.019.015-.02.015-.018.014-.02.015-.02.015-.019.015-.019.014-.02.016-.019.014-.019.016-.02.014-.018.015-.02.015-.02.015-.019.015-.018.014-.02.015-.02.015-.019.015-.02.015-.018.015-.02.015-.02.015-.019.015-.018.014-.02.015-.02.015a1.26 1.26 0 0 0-.02.015l-.018.015-.019.014-.02.016-.02.014-.018.015-.02.015-.02.015-.018.015-.02.015-.02.015-.018.014-.02.015-.02.015-.018.015-.02.015-.019.015-.02.015-.019.015-.019.014-.02.015-.019.015-.019.015-.02.015-.018.014-.02.016-.02.015-.019.014-.018.015-.02.015-.02.015-.019.015-.02.015-.018.014-.02.016-.02.014-.019.015-.018.015-.02.015-.02.015-.019.015-.02.014-.018.015-.02.015-.02.015-.019.015-.018.014-.02.016-.02.015-.019.014-.02.015-.018.015-.02.015-.02.015-.018.015-.02.014-.02.015-.018.015-.02.015-.019.015-.02.015-.019.015-.02.015-.018.015-.02.014-.019.015-.02.015-.019.015-.019.015-.02.015-.019.015-.019.014-.02.015-.018.015-.02.015-.02.015-.019.015-.018.014-.02.016-.02.014-.019.015-.02.015-.018.015-.02.015-.02.015-.019.014-.018.015-.02.015-.02.015-.019.015-.02.015-.018.014-.02.016-.02.014-.018.015-.02.015-.02.015-.018.015-.02.015-.019.014-.02.015-.019.015-.02.015-.018.015-.02.015-.019.015-.02.015-.019.015-.019.014-.02.015-.019.015-.019.015-.02.015-.018.014-.02.016-.02.015-.019.014-.019.015-.02.015-.019.015-.019.015-.02.015-.018.014-.02.015-.02.015-.019.015-.018.015-.02.015-.02.015-.019.015-.02.015-.018.014-.02.015-.02.015-.019.015-.018.014-.02.016-.02.015-.019.014-.019.015-.02.015-.019.015-.02.015-.018.015-.02.014-.02.016-.018.014-.02.015-.019.015-.02.015-.019.015-.02.015-.018.014-.02.015-.019.015-.02.016-.019.014-.019.015-.02.015-.019.015-.019.014c-.006.006-.013.01-.02.015l-.018.015-.02.015-.02.015-.019.015-.018.014-.02.015-.02.015-.019.015-.019.015-.02.015-.019.015-.02.015-.019.015-.018.014-.02.015-.02.015-.019.015-.019.014-.02.016-.019.015-.02.015-.018.014-.02.015-.02.015-.018.015-.02.015-.019.014-.02.016-.019.014-.02.015-.018.015-.02.015-.02.015-.018.015-.02.015a.915.915 0 0 0-.019.014l-.02.015-.019.015-.019.015-.02.015-.018.014-.02.016-.02.015-.019.014-.019.015-.02.016-.019.014-.019.015-.019.014-.02.016-.019.015-.02.014-.019.015-.018.015-.02.015-.02.015-.019.015-.019.014-.02.015-.019.015-.02.015-.019.015-.018.015-.02.015-.02.015-.019.014-.019.015-.02.015-.019.015-.02.015-.018.015-.02.014-.02.015-.018.015-.02.015-.019.015-.02.015-.019.015-.02.015-.018.015-.02.014-.02.015-.018.015-.02.015-.019.014-.02.016-.019.015-.019.015-.019.014-.02.015-.019.015-.02.015-.019.015-.018.014-.02.016-.02.014-.019.015-.02.015-.019.015-.019.015-.02.015-.019.015-.018.014-.02.015-.02.015-.019.015-.019.015-.02.015-.019.015-.02.015-.019.014-.018.015-.02.015-.02.015-.019.015-.019.014-.02.016-.019.015-.02.014-.018.015-.02.015-.02.015-.018.015-.02.015-.019.014-.02.016-.019.014-.02.015a.926.926 0 0 0-.018.015l-.02.015-.02.015-.018.015-.02.014-.019.015-.02.015-.019.015-.019.015-.019.014-.02.016-.019.015-.02.014-.019.015a.915.915 0 0 0-.018.015l-.02.015-.02.015-.019.015-.019.014-.02.015-.019.015-.02.016-.019.014c-.007.004-.012.01-.018.014l-.02.016-.02.015-.019.015-.019.014-.02.015-.019.015-.02.015-.018.015-.02.014-.02.016-.018.014-.02.015-.019.015-.02.015-.019.015-.02.015-.018.014-.02.016-.02.014-.018.015-.02.015-.019.015-.02.015-.019.015-.019.014-.019.015-.02.015-.019.015-.02.015-.019.015-.019.014-.02.016-.019.014-.019.015-.019.015-.02.015-.019.015-.02.015-.019.015-.018.014-.02.015-.02.015-.019.015-.019.015-.02.015-.019.015-.02.015-.019.014-.018.015a1.08 1.08 0 0 0-.02.016l-.02.014-.019.015-.019.014-.02.016-.019.015-.02.014-.018.015-.02.015-.02.015-.018.015-.02.015-.019.014-.02.015-.019.015-.02.015-.018.015-.02.015-.02.015-.018.015-.02.015-.019.014-.02.015-.019.015-.019.015-.019.014-.02.016-.019.014c-.006.006-.013.01-.02.015l-.019.015-.019.015-.02.015-.019.015-.019.015a.926.926 0 0 0-.019.014l-.02.015-.019.015-.02.015-.018.015-.02.015-.02.015-.019.015-.019.014-.019.015-.02.015-.019.015-.02.015-.018.015a32.964 32.964 0 0 0-3.535 3.121c-5.738 5.848-8.23 12.74-9.103 15.226a44.258 44.258 0 0 0-2.225 9.808l-.836.122-9.408 7.236a.542.542 0 0 0-.199.548l3.298 14.76a.542.542 0 0 0 .573.421l7.144-.583a.54.54 0 0 1 .577.447c.173.978.397 2.024.682 3.12a.544.544 0 0 1-.192.568s-5.385 4.14-6.117 4.7a.157.157 0 0 0-.057.165l3.833 15.488c.065.264.316.44.587.409l9.788-1.105a62.809 62.809 0 0 0 11.584 15.225c4.031 3.88 16.382 15.765 35.252 16.716 4.015.202 17.489.88 28.053-7.477l9.663-7.432c.71-.56 1.406-1.162 2.086-1.807a31.391 31.391 0 0 0 5.296-6.62l-21.184-16.88-5.913 4.549c-4.223 2.002-8.21 1.83-9.81 1.74-1.996-.114-6.62-.44-10.934-3.816l7.045-.984 9.682-7.447L83 110.692a.37.37 0 0 0-.393-.27l-25.01 2.452c-.29-.76-.569-1.598-.82-2.502l14.308-1.8 9.681-7.448-4.053-15.017a.399.399 0 0 0-.408-.294zm-19.626-1.609c4.857-1.207 10.792-.633 16.715 1.832l-17.95 1.682a16.195 16.195 0 0 1 1.235-3.514z" fill="url(#b)"/><path fill="url(#a)" d="m63.75 128.953 2.731 5.544 10.892-1.598 9.63-7.422-23.252 3.476z"/><path fill="url(#c)" d="m9.99 116.476 9.21-7.409 8.11-.662-10.176 7.488-7.144.583z"/><path fill="url(#d)" d="m16.447 140.79 10.15-7.451 9.32-1.102-9.683 7.447-9.787 1.106z"/><path fill="url(#e)" d="m71.084 108.57 9.682-7.446-25.29 2.55 1.3 6.697 14.308-1.8z"/><path d="M56.679 84.204s6.513-16.454 27.231-5.257l-9.04 6.95-1.476.139s-9.23-3.96-16.715-1.832z" fill="url(#f)"/><path d="M94.992 57.76 83.91 78.948c-9.81-4.38-19.798-3.555-24.99 1.986-1.127 1.202-2.675 3.317-3.475 6.785l20.849-1.954a.399.399 0 0 1 .422.293l4.05 15.067-24.99 3.144a28.467 28.467 0 0 0 1.82 8.606l25.01-2.452a.37.37 0 0 1 .394.27l4.055 14.76-21.35 2.979c.775 1.402 2.2 3.56 4.635 5.461 4.311 3.367 8.928 3.693 10.922 3.806 1.843.105 6.859.32 11.75-2.813a17.924 17.924 0 0 0 3.973-3.476l21.184 16.881a31.391 31.391 0 0 1-5.296 6.62c-10.796 10.241-25.838 9.484-30.121 9.268-18.87-.95-31.22-12.836-35.251-16.715a62.808 62.808 0 0 1-11.585-15.226l-10.26 1.159-3.973-16.054 7.779-.993a39.998 39.998 0 0 1-2.152-7.944l-8.11.662-3.475-15.556 10.261-1.49a44.542 44.542 0 0 1 2.483-15.888c.872-2.486 3.365-9.377 9.102-15.226 14.435-14.713 37.493-10.676 40.547-10.095 7.528 1.434 13.249 4.335 16.731 6.43.179.107.24.334.143.519z" fill="#ff8000"/><path d="M94.992 57.76 83.91 78.948c-9.81-4.38-19.798-3.555-24.99 1.986-1.127 1.202-2.675 3.317-3.475 6.785l20.849-1.954a.399.399 0 0 1 .422.293l4.05 15.067-24.99 3.144a28.467 28.467 0 0 0 1.82 8.606l25.01-2.452a.37.37 0 0 1 .394.27l4.055 14.76-21.35 2.979c.775 1.402 2.2 3.56 4.635 5.461 4.311 3.367 8.928 3.693 10.922 3.806 1.843.105 6.859.321 11.75-2.813a17.924 17.924 0 0 0 3.973-3.476l21.184 16.881a31.391 31.391 0 0 1-5.296 6.62c-10.796 10.241-25.838 9.484-30.121 9.268-18.87-.95-31.22-12.836-35.251-16.715a62.808 62.808 0 0 1-11.585-15.226l-10.26 1.159-3.973-16.054 7.779-.993a39.998 39.998 0 0 1-2.152-7.944l-8.11.662-3.475-15.556 10.261-1.49a44.542 44.542 0 0 1 2.483-15.888c.872-2.486 3.365-9.377 9.102-15.226 14.435-14.713 37.493-10.676 40.547-10.095 7.528 1.434 13.25 4.335 16.731 6.43.179.107.24.334.143.519z" fill="url(#g)"/><path d="m80.739 100.978-24.758 3.115.01.16 24.79-3.12-.042-.155zM87.028 125.309l-21.117 2.946.085.148 21.074-2.941-.042-.153zM97.016 131.433 97 131.42a18.46 18.46 0 0 1-1.05 1.13 18.22 18.22 0 0 0 1.066-1.117zM26.192 91.846a44.54 44.54 0 0 1 2.482-15.888c.872-2.486 3.365-9.378 9.103-15.226.18-.184.362-.362.545-.54-.247.237-.493.478-.736.726-5.738 5.848-8.23 12.74-9.102 15.226a44.51 44.51 0 0 0-2.486 15.73l.194-.028zM59.344 80.34c5.328-5.026 14.958-5.647 24.425-1.421l.114-.219c-9.557-4.239-19.266-3.541-24.54 1.64zM82.957 164.003c-18.87-.951-31.22-12.836-35.25-16.716a62.807 62.807 0 0 1-11.585-15.225L25.86 133.22l-3.934-15.896-.229.029 3.972 16.053 10.26-1.158a62.808 62.808 0 0 0 11.586 15.225c4.03 3.88 16.38 15.765 35.25 16.715 4.284.216 19.326.974 30.121-9.267.055-.052.103-.103.157-.155-10.794 10.207-25.808 9.452-30.087 9.237zM28.318 112.884a39.89 39.89 0 0 0 1.101 3.322l.248-.032a40.009 40.009 0 0 1-2.151-7.944l-8.11.662-3.441-15.404-.225.033 3.476 15.557 8.109-.662c.222 1.364.54 2.866.993 4.468z" fill="#f2a33d"/><path d="M159.701 48.942a2.714 2.714 0 0 1-.044-.007l-22.684-3.967c-21.125-2.97-41.797 19.86-46.173 50.992-4.376 31.132 9.202 58.776 30.326 61.746l21.89 2.715.04.005h.003c20.918 2.941 41.389-19.666 45.722-50.493 4.267-30.358-8.706-57.367-29.08-60.99zm-15.396 54.7c-1.093 7.773-3.831 14.562-7.374 19.251-2.092-5.43-2.845-12.64-1.763-20.337 1.095-7.793 3.864-14.585 7.436-19.234 2.05 5.459 2.78 12.649 1.7 20.32z" fill="url(#h)"/><path d="M136.973 44.968c-21.125-2.97-41.797 19.86-46.173 50.992-4.376 31.132 9.201 58.776 30.326 61.746 21.125 2.97 41.798-19.861 46.174-50.993 4.376-31.132-9.202-58.776-30.327-61.745zm7.332 58.674c-2.181 15.517-10.922 27.116-19.523 25.907-8.602-1.209-13.806-14.768-11.625-30.285 2.181-15.517 10.922-27.116 19.523-25.907 8.602 1.21 13.806 14.768 11.625 30.285z" fill="#ff8000"/><path d="M136.973 45.084c-21.125-2.97-41.797 19.86-46.173 50.993-4.376 31.131 9.201 58.776 30.326 61.745 21.125 2.97 41.798-19.86 46.174-50.992 4.376-31.132-9.202-58.777-30.327-61.746zm7.332 58.675c-2.181 15.517-10.922 27.116-19.523 25.907-8.602-1.21-13.806-14.768-11.625-30.285 2.181-15.517 10.922-27.116 19.523-25.907 8.602 1.209 13.806 14.768 11.625 30.285z" fill="url(#i)"/><path d="M124.782 129.476c-1.446-.332-2.401-.885-3.016-1.25-.297-.206-.525-.349-.666-.46l-.211-.169c-.57-.435-1.076-.947-1.564-1.467a15.44 15.44 0 0 1-1.296-1.706 20.288 20.288 0 0 1-1.969-3.805 29.691 29.691 0 0 1-1.291-4.101 42.377 42.377 0 0 1-.756-4.245 40.25 40.25 0 0 1-.31-4.307c-.019-.506-.008-1.014-.02-1.52 0-.507.017-1.014.024-1.52l.06-1.283c.09-1.438.239-2.873.44-4.3l.002-.009c.2-1.428.451-2.848.761-4.255a53.987 53.987 0 0 1 1.13-4.173c.422-1.378.92-2.732 1.486-4.055a42.38 42.38 0 0 1 1.897-3.872c.702-1.254 1.5-2.45 2.372-3.586a20.288 20.288 0 0 1 2.941-3.114 15.441 15.441 0 0 1 1.717-1.284c.612-.364 1.24-.717 1.908-.979a10.324 10.324 0 0 1 2.651-.694l.4-.028c.132-.005.3-.03.501-.025l.707.015-.7-.118c-.202-.034-.372-.033-.508-.047l-.41-.03c-.95-.028-1.904.12-2.83.372-1.466.4-2.83 1.122-4.072 1.995-1.238.882-2.354 1.923-3.37 3.047-1.017 1.124-1.907 2.354-2.723 3.623a33.186 33.186 0 0 0-2.176 3.966 42.172 42.172 0 0 0-1.697 4.185 46.314 46.314 0 0 0-1.244 4.337 57.46 57.46 0 0 0-.844 4.425v.008a57.46 57.46 0 0 0-.41 4.486l-.047 1.337c-.01 1.058-.02 2.117.047 3.174.078 1.504.24 3.004.478 4.492.232 1.489.564 2.964.998 4.411.435 1.446.951 2.873 1.619 4.234.667 1.36 1.453 2.669 2.4 3.858.952 1.181 2.065 2.251 3.363 3.04l.241.15c.162.098.42.22.753.395.68.315 1.756.735 3.234.852z" fill="#ff911a"/></svg>