<svg xmlns="http://www.w3.org/2000/svg" viewBox="0 0 200 200"><defs><linearGradient id="a" x1="146.913" y1="119.825" x2="110.395" y2="42.272" gradientUnits="userSpaceOnUse"><stop offset=".014" stop-color="#f75e28"/><stop offset=".147" stop-color="#f86223"/><stop offset=".295" stop-color="#fb6e16"/><stop offset=".392" stop-color="#fe7b09"/><stop offset=".706" stop-color="#fd9022"/><stop offset=".748" stop-color="#fc9327"/><stop offset=".798" stop-color="#fc9b35"/><stop offset=".853" stop-color="#fcaa4e"/><stop offset=".911" stop-color="#fbbe70"/><stop offset=".97" stop-color="#fbd89b"/><stop offset="1" stop-color="#fbe7b4"/></linearGradient><linearGradient id="b" x1="126.916" y1="138.209" x2="197.861" y2="69.597" gradientUnits="userSpaceOnUse"><stop offset=".206" stop-color="#fbe7b4"/><stop offset=".4" stop-color="#c64528"/><stop offset=".577" stop-color="#f75e28"/><stop offset=".76" stop-color="#ff8000"/><stop offset=".996" stop-color="#fbe7b4"/></linearGradient><linearGradient id="d" x1="-79.787" y1="103.2" x2="60.451" y2="162.419" gradientTransform="matrix(-1 0 0 1 65.478 0)" gradientUnits="userSpaceOnUse"><stop offset="0" stop-color="#fbe7b4"/><stop offset=".024" stop-color="#fbe3ad"/><stop offset=".057" stop-color="#fbd89b"/><stop offset=".096" stop-color="#fcc77d"/><stop offset=".14" stop-color="#fdaf53"/><stop offset=".186" stop-color="#fe911e"/><stop offset=".21" stop-color="#ff8000"/><stop offset=".306" stop-color="#f75e28"/><stop offset=".73" stop-color="#f75e28"/><stop offset=".77" stop-color="#f76a35"/><stop offset=".844" stop-color="#f88d58"/><stop offset=".943" stop-color="#f9c490"/><stop offset="1" stop-color="#fbe7b4"/></linearGradient><linearGradient id="e" x1="95.057" y1="109.111" x2="83.526" y2="101.037" gradientUnits="userSpaceOnUse"><stop offset="0" stop-color="#fdf3d9" stop-opacity="0"/><stop offset=".921" stop-color="#fff" stop-opacity=".79"/></linearGradient><linearGradient id="f" x1="71.215" y1="110.758" x2="63.178" y2="102.738" gradientUnits="userSpaceOnUse"><stop offset=".27" stop-color="#fdf3d9" stop-opacity="0"/><stop offset=".921" stop-color="#fff" stop-opacity=".79"/></linearGradient><linearGradient id="g" x1="107.443" y1="156.313" x2="12.573" y2="64.078" gradientUnits="userSpaceOnUse"><stop offset=".075" stop-color="#ff5b00"/><stop offset=".135" stop-color="#ff6300"/><stop offset=".277" stop-color="#ff7300"/><stop offset=".591" stop-color="#ff8000"/><stop offset=".871" stop-color="#fcc87e"/><stop offset="1" stop-color="#fbe7b4"/></linearGradient><linearGradient id="h" x1="12.631" y1="133.687" x2="13.713" y2="131.733" gradientUnits="userSpaceOnUse"><stop offset="0" stop-color="#f75e28"/><stop offset=".197" stop-color="#f86a1d"/><stop offset=".643" stop-color="#fc820a"/><stop offset=".919" stop-color="#fe8b03"/></linearGradient><clipPath id="c"><path d="M68.307 86.492c5.113-16.55 28.297-25.674 46.54-24.798h51.954c18.244.876 26.786 13.462 19.079 28.112-7.707 14.65-28.745 25.816-46.989 24.94H95.12l-19.717 9.47c-1.433.688-2.917-.846-2.18-2.256l4.62-8.846c-11.753-3.979-13.517-13.736-9.535-26.622z" fill="none"/></clipPath></defs><ellipse cx="62.019" cy="161.652" rx="45.594" ry="8.881" fill="#090909" opacity=".8"/><path fill="#f75e28" d="M136.54 108.467h-12.734l6.447 6.446 12.25-.264-5.963-6.182z"/><path d="M70.064 80.355c7.707-14.65 28.745-25.816 46.989-24.94h51.953c18.244.875 26.786 13.461 19.079 28.111-6.05 11.499-20.31 20.848-34.987 23.916l-4.46 8.812a2.486 2.486 0 0 1-4.007.603l-8.09-8.39H89.142c-18.244-.876-26.786-13.462-19.079-28.112z" fill="url(#a)"/><path d="M186.76 62.403c4.846 5.22 5.682 12.842 1.325 21.123-6.05 11.499-20.31 20.848-34.987 23.916l-4.46 8.812a2.486 2.486 0 0 1-4.007.603l5.172 6.001a2.486 2.486 0 0 0 4.007-.603l4.46-8.811c14.677-3.068 28.938-12.418 34.988-23.916 3.132-5.955 3.58-11.568 1.784-16.193-.539-1.386-1.348-2.651-2.302-3.791l-5.98-7.141z" fill="url(#b)"/><path d="M111.21 75.738c-2.287.033-3.453-1.473-2.604-3.365.85-1.892 3.392-3.452 5.68-3.485h46.965c2.287-.033 3.453 1.473 2.604 3.365-.848 1.891-3.391 3.452-5.678 3.485H111.21zM104.239 86.491c-2.288.033-3.454-1.473-2.605-3.365.849-1.892 3.391-3.452 5.679-3.485h46.966c2.287-.033 3.453 1.473 2.604 3.365-.849 1.892-3.391 3.452-5.679 3.485H104.24z" fill="#fff"/><g clip-path="url(#c)"><path d="M15.971 111.236c7.707-14.65 28.745-25.816 46.989-24.94h51.953c18.244.875 26.786 13.462 19.079 28.112-7.707 14.65-28.745 25.816-46.989 24.94H43.231l-19.717 9.47c-1.433.687-2.917-.847-2.18-2.256l4.62-8.847c-11.753-3.978-16.262-14.542-9.983-26.479z" fill="#f75e28"/></g><path d="M6.742 108.249c7.707-14.65 28.745-25.816 46.989-24.94h51.953c18.244.875 26.786 13.461 19.079 28.111-7.708 14.65-28.745 25.817-46.989 24.94H34.002l-19.717 9.47c-1.433.688-2.917-.846-2.18-2.255l4.62-8.847C4.97 130.749.462 120.185 6.741 108.249z" fill="#ff8000"/><path d="M12.381 145.489a1.623 1.623 0 0 0 1.904.34l19.717-9.468h43.772c18.244.876 39.281-10.29 46.989-24.94 3.53-6.712 3.651-12.99.99-17.908 0 0 6.27 7.066 6.741 11.966.32 3.647-.552 7.696-2.772 11.916-7.707 14.65-28.745 25.816-46.989 24.94H38.962l-19.718 9.47a1.623 1.623 0 0 1-1.904-.341l-4.959-5.975z" fill="url(#d)"/><path d="m16.724 134.728-1.505 2.882-5.672-6.833s2.958 2.427 7.177 3.951z" fill="#f75e28"/><path d="M87.147 96.098c-3.76-.16-8.082 2.165-9.654 5.192-1.572 3.028.202 5.612 3.963 5.772 3.76.16 8.082-2.165 9.654-5.192 1.572-3.028-.202-5.612-3.963-5.772z" fill="url(#e)"/><path d="M64.864 96.098c-3.76-.16-8.082 2.165-9.654 5.192-1.572 3.028.202 5.612 3.963 5.772 3.76.16 8.082-2.165 9.654-5.192 1.572-3.028-.202-5.612-3.963-5.772z" fill="url(#f)"/><path d="M6.742 108.249c7.707-14.65 28.745-25.816 46.989-24.94h51.953c18.244.875 26.786 13.461 19.079 28.111-7.708 14.65-28.745 25.817-46.989 24.94H34.002l-19.717 9.47c-1.433.688-2.917-.846-2.18-2.255l4.62-8.847C4.97 130.749.462 120.185 6.741 108.249z" fill="url(#g)"/><path d="M87.147 96.098c-3.76-.16-8.082 2.165-9.654 5.192-1.572 3.028.202 5.612 3.963 5.772 3.76.16 8.082-2.165 9.654-5.192 1.572-3.028-.202-5.612-3.963-5.772zM64.864 96.098c-3.76-.16-8.082 2.165-9.654 5.192-1.572 3.028.202 5.612 3.963 5.772 3.76.16 8.082-2.165 9.654-5.192 1.572-3.028-.202-5.612-3.963-5.772z" fill="#fff"/><path d="M12.324 145.43a1.688 1.688 0 0 0 1.15.566l.089.004c.239-.001.48-.053.702-.147l.002-.001.848-.364c.46-.196.918-.393 1.377-.59l1.377-.589c.46-.196.918-.393 1.377-.59l1.377-.59L22 142.54l1.377-.59 1.377-.59 1.377-.589 1.376-.59 1.377-.589 1.377-.59 1.377-.59 1.377-.589 1.141-.489 3.48.009h3.691l3.692-.001 3.691-.013 7.383-.025 7.383-.038 7.384-.05 6.835-.054h.002l1.732.03c2.113-.01 4.22-.17 6.304-.455 2.478-.34 4.925-.86 7.325-1.534a59.433 59.433 0 0 0 7.045-2.473 60.664 60.664 0 0 0 6.676-3.32 56.377 56.377 0 0 0 6.197-4.136 49.781 49.781 0 0 0 5.55-4.964 40.628 40.628 0 0 0 4.654-5.806c.167-.238.315-.49.466-.739l.454-.746c.078-.123.147-.252.216-.38l.209-.384.416-.768v-.002l.428-.892c.07-.149.146-.295.21-.447l.193-.455.192-.456c.064-.151.13-.302.183-.459l.337-.929c.056-.143.096-.292.142-.438l.134-.441.134-.441c.042-.148.075-.298.113-.447.071-.299.15-.596.215-.896l.168-.906c.195-1.212.29-2.44.26-3.667l-.03-.469-.038-.585c-.023-.233-.064-.504-.103-.814-.03-.312-.111-.655-.186-1.038l-.06-.294c-.021-.1-.053-.2-.08-.304l-.179-.649a16.236 16.236 0 0 0-1.277-3.004 16.183 16.183 0 0 1 1.18 3.032l.157.65c.023.103.052.203.07.303l.05.294c.062.382.134.723.156 1.032.03.308.063.576.08.807l.02.58.018.463a19.769 19.769 0 0 1-.356 3.606l-.19.886c-.071.294-.158.584-.236.876-.041.145-.077.292-.123.436l-.144.43-.144.43c-.049.142-.092.287-.15.426-.12.301-.239.603-.357.904-.057.152-.126.299-.193.446l-.2.442-.201.443c-.068.147-.147.289-.22.433l-.443.864-.001.002-.429.744-.214.373c-.07.124-.14.248-.22.368l-.463.723c-.155.24-.306.484-.476.715a39.928 39.928 0 0 1-4.706 5.595 48.906 48.906 0 0 1-5.566 4.745 57.482 57.482 0 0 1-6.173 3.923 59.46 59.46 0 0 1-6.606 3.125 58.086 58.086 0 0 1-6.93 2.282 52.811 52.811 0 0 1-7.151 1.353 46.456 46.456 0 0 1-6.095.322l-1.703-.064h-.002l-6.84-.053-7.389-.05-7.39-.038-7.39-.026-3.696-.013h-3.695l-7.39.007h-.237l-.21.102h-.002l-1.32.706-1.321.706-1.321.706-1.321.706-1.321.706-1.321.706-1.321.706-1.321.706-1.321.706-1.321.706-1.321.706-1.321.706-1.321.706-1.321.706-.814.435h-.002a1.67 1.67 0 0 1-.63.19l-.083.003a.807.807 0 0 1-.104 0 1.639 1.639 0 0 1-1.047-.453z" fill="#ff911a"/><path d="M9.547 130.777c.127.12.224.207.29.264l.098.086c.13.116.265.224.398.336.133.111.27.216.405.324.135.108.272.214.41.316l.415.31c.14.1.279.203.42.302l.424.294.429.288c.144.095.287.19.433.281.145.092.29.186.436.274.147.09.295.178.442.265.148.088.298.171.448.255a19.025 19.025 0 0 0 .912.48c.154.076.31.147.466.22l.118.051c.079.035.197.087.358.15l.034-.069.035-.068.069-.136.137-.272.138-.273.138-.272a8.098 8.098 0 0 0-.327-.2l-.11-.064-.445-.249a22.79 22.79 0 0 0-.45-.239c-.15-.077-.3-.156-.453-.231l-.457-.225c-.153-.074-.306-.149-.46-.22l-.464-.215-.466-.21-.468-.208-.47-.205-.472-.201-.476-.197a19.785 19.785 0 0 0-.477-.194c-.16-.062-.319-.13-.481-.19-.162-.06-.322-.125-.485-.183l-.122-.045a14.46 14.46 0 0 0-.37-.13z" fill="url(#h)"/><path d="M45.86 113.55c1.506 5.205 6.86 8.825 14.902 9.167 8.344.355 17.508-2.908 24.323-8.087" fill="none" stroke="#fff" stroke-linecap="round" stroke-miterlimit="10" stroke-width="8.529"/><path d="M186.76 62.358c.86 1.088 1.392 1.97 1.713 2.573.164.299.272.531.35.682.074.153.108.231.108.231.068.156.143.308.206.466l.19.472c.114.32.231.636.328.96.2.645.362 1.3.468 1.963a16.66 16.66 0 0 1 .217 3.429l-.036.573a19.96 19.96 0 0 1-.709 3.937c-.085.323-.194.64-.292.959-.05.16-.11.316-.164.474-.056.158-.108.317-.17.472-.122.312-.24.625-.375.932-.067.154-.129.31-.198.462l-.21.457a9.594 9.594 0 0 1-.202.426l-.21.423c-.142.281-.293.558-.44.837v.001l-.53.93c-.18.307-.374.606-.56.91a36.787 36.787 0 0 1-2.365 3.274 42.717 42.717 0 0 1-2.71 3.006 44.381 44.381 0 0 1-2.972 2.758c-.26.216-.513.44-.778.65l-.793.635c-.266.21-.539.41-.808.616l-.405.305-.413.297c-.276.196-.545.401-.826.591l-.837.575c-.28.19-.568.37-.85.557l-.427.277-.433.266c-.29.176-.575.36-.868.53l-.878.512c-.292.172-.592.33-.888.495l-.445.247c-.148.081-.3.158-.45.238a57.6 57.6 0 0 1-3.655 1.784l-.931.408-.94.39c-.156.065-.312.133-.47.194l-.474.184c-.317.12-.63.25-.95.363l-.957.345c-.318.115-.642.216-.963.326l-.481.163-.486.152c-.323.1-.646.203-.971.3-1.3.379-2.611.722-3.932 1.022h-.001l-.55.165-.16.38c-.12.282-.237.563-.356.845l-.355.844-.355.844-.354.844-.355.843-.355.844-.355.844-.355.844-.355.844-.354.844-.289.685v.002a2.234 2.234 0 0 1-1.245 1.215l-.07.03-.074.021-.147.043c-.1.026-.202.036-.304.056a2.372 2.372 0 0 1-1.102-.141l-.204-.092a2.729 2.729 0 0 1-.562-.379c.202.228.384.376.513.462l.198.126c.35.194.754.305 1.167.318.116-.005.234 0 .35-.014l.175-.025.088-.013.085-.022c.322-.07.63-.212.907-.402.33-.226.612-.53.822-.88v-.003l.382-.638.47-.785.47-.786.47-.785.47-.786.47-.786.47-.785.47-.786.47-.785.47-.786.2-.335a.26.26 0 0 1-.002 0h-.002.002l.016-.003.064-.014.517-.108c.345-.07.686-.154 1.028-.234.687-.154 1.364-.344 2.044-.526a57.691 57.691 0 0 0 4.018-1.292c.332-.116.658-.248.988-.37l.493-.188c.164-.063.326-.132.49-.198.325-.133.651-.264.976-.4l.965-.426a59.8 59.8 0 0 0 3.79-1.857 54.772 54.772 0 0 0 3.644-2.129l.447-.281.44-.292c.292-.196.588-.387.877-.587l.865-.606c.29-.2.568-.417.853-.624l.423-.316.416-.326c.276-.219.556-.432.828-.656l.814-.675c.271-.225.532-.463.799-.693a46.388 46.388 0 0 0 3.049-2.935 42.656 42.656 0 0 0 2.755-3.222 38.593 38.593 0 0 0 2.393-3.508c.188-.326.384-.647.565-.977l.532-.995.001-.002c.145-.3.295-.598.435-.9l.205-.457c.07-.152.137-.304.2-.46l.204-.492c.069-.164.127-.332.19-.499.13-.331.241-.67.355-1.007.06-.168.108-.34.16-.51.05-.171.106-.34.152-.513.09-.345.186-.689.26-1.038.322-1.39.498-2.818.51-4.246l-.006-.614a17.99 17.99 0 0 0-.152-1.827c-.034-.304-.096-.604-.146-.904-.028-.15-.064-.299-.097-.448a15.041 15.041 0 0 0-.781-2.462 13.905 13.905 0 0 0-.948-1.89s-.042-.077-.134-.226l-.178-.277c-.072-.11-.151-.242-.256-.383a15.05 15.05 0 0 0-2.049-2.365z" fill="#ff8000"/></svg>