<svg xmlns="http://www.w3.org/2000/svg" width="200" height="200" xmlns:xlink="http://www.w3.org/1999/xlink"><defs><linearGradient id="b" x1="82.135" y1="174.468" x2="30.464" y2="50.516" gradientUnits="userSpaceOnUse"><stop offset="0" stop-color="#fbe7b4"/><stop offset=".022" stop-color="#fbd290"/><stop offset=".057" stop-color="#fcb55d"/><stop offset=".09" stop-color="#fd9e34"/><stop offset=".119" stop-color="#fe8d17"/><stop offset=".145" stop-color="#fe8306"/><stop offset=".164" stop-color="#ff8000"/><stop offset=".21" stop-color="#fb7210"/><stop offset=".276" stop-color="#f86321"/><stop offset=".325" stop-color="#f75e28"/><stop offset=".702" stop-color="#f75e28"/><stop offset=".724" stop-color="#f8651f"/><stop offset=".794" stop-color="#fd7808"/><stop offset=".838" stop-color="#ff8000"/><stop offset=".879" stop-color="#fda13a"/><stop offset=".919" stop-color="#fcbf6e"/><stop offset=".954" stop-color="#fbd494"/><stop offset=".982" stop-color="#fbe2ab"/><stop offset="1" stop-color="#fbe7b4"/></linearGradient><linearGradient id="c" x1="111.558" y1="150.465" x2="17.817" y2="73.1" gradientUnits="userSpaceOnUse"><stop offset="0" stop-color="#c64528"/><stop offset=".049" stop-color="#d04a28"/><stop offset=".134" stop-color="#ed5828"/><stop offset=".16" stop-color="#f75e28"/><stop offset=".263" stop-color="#fc740d"/><stop offset=".338" stop-color="#ff8000"/><stop offset=".67" stop-color="#ff8000"/><stop offset=".709" stop-color="#fe870c"/><stop offset=".781" stop-color="#fd9a2e"/><stop offset=".878" stop-color="#fcba65"/><stop offset=".996" stop-color="#fbe5b0"/><stop offset="1" stop-color="#fbe7b4"/></linearGradient><linearGradient id="d" x1="122.982" y1="178.635" x2="169.852" y2="50.447" gradientUnits="userSpaceOnUse"><stop offset=".032" stop-color="#fbe7b4"/><stop offset=".052" stop-color="#fbd290"/><stop offset=".082" stop-color="#fcb55d"/><stop offset=".111" stop-color="#fd9e34"/><stop offset=".137" stop-color="#fe8d17"/><stop offset=".16" stop-color="#fe8306"/><stop offset=".177" stop-color="#ff8000"/><stop offset=".226" stop-color="#fb7210"/><stop offset=".297" stop-color="#f86321"/><stop offset=".349" stop-color="#f75e28"/><stop offset=".645" stop-color="#f75e28"/><stop offset=".674" stop-color="#f8651f"/><stop offset=".769" stop-color="#fd7808"/><stop offset=".828" stop-color="#ff8000"/><stop offset=".871" stop-color="#fda13a"/><stop offset=".914" stop-color="#fcbf6e"/><stop offset=".951" stop-color="#fbd494"/><stop offset=".981" stop-color="#fbe2ab"/><stop offset="1" stop-color="#fbe7b4"/></linearGradient><linearGradient id="a" x1="139.382" y1="118.339" x2="137.808" y2="91.585" gradientUnits="userSpaceOnUse"><stop offset=".082" stop-color="#c64528"/><stop offset=".144" stop-color="#cb4728" stop-opacity=".883"/><stop offset=".273" stop-color="#da4f28" stop-opacity=".583"/><stop offset=".459" stop-color="#f15b28" stop-opacity=".105"/><stop offset=".498" stop-color="#f75e28" stop-opacity="0"/></linearGradient><linearGradient id="e" x1="146.227" y1="96.392" x2="171.879" y2="75.146" xlink:href="#a"/><linearGradient id="f" x1="143.044" y1="142.741" x2="112.041" y2="137.705" xlink:href="#a"/><linearGradient id="g" x1="169.494" y1="132.647" x2="98.294" y2="85.18" gradientUnits="userSpaceOnUse"><stop offset="0" stop-color="#f75e28"/><stop offset=".112" stop-color="#f8661e"/><stop offset=".298" stop-color="#fe7b04"/><stop offset=".328" stop-color="#ff8000"/><stop offset=".661" stop-color="#ff8000"/><stop offset=".702" stop-color="#fe8205"/><stop offset=".752" stop-color="#fe8b14"/><stop offset=".807" stop-color="#fe992c"/><stop offset=".866" stop-color="#fdad4f"/><stop offset=".927" stop-color="#fcc67b"/><stop offset=".989" stop-color="#fbe5b1"/><stop offset=".992" stop-color="#fbe7b4"/></linearGradient><linearGradient id="h" x1="52.671" y1="82.372" x2="79.965" y2="110.231" xlink:href="#a"/><linearGradient id="i" x1="73.439" y1="144.058" x2="79.18" y2="103.493" xlink:href="#a"/></defs><ellipse cx="90.469" cy="181.591" rx="55.965" ry="5.35" fill="#090909" opacity=".8"/><path d="M74.374 168.633c.462-.184.903-.385 1.352-.58.462-.183.903-.384 1.352-.58.462-.183.904-.384 1.353-.58.462-.183.903-.384 1.352-.58.462-.183.903-.384 1.352-.58.462-.183.904-.384 1.353-.58.461-.183.903-.384 1.352-.58.461-.183.903-.384 1.351-.579 27.204-10.828 32.082-41.352 23.504-66.862-8.838-26.285-32.277-48.186-61.716-38.287-1.354.456-2.64.972-3.894 1.516-.461.184-.903.385-1.351.58-.463.184-.905.385-1.354.58-.462.184-.903.385-1.352.58-.461.184-.903.385-1.351.58-.462.184-.904.385-1.354.58-.461.184-.903.385-1.352.58-.461.184-.903.385-1.351.58-.462.183-.904.385-1.353.58-.462.184-.904.385-1.353.58-.461.184-.903.385-1.351.58C2.359 76.988-2.52 107.512 6.058 133.02c8.84 26.286 32.278 48.187 61.718 38.288a48.66 48.66 0 0 0 3.893-1.516c.462-.183.904-.385 1.353-.58.462-.184.903-.385 1.352-.58zm-6.382-56.437c3.998 11.892 3.206 21.687-1.123 27.747-8.034-1.16-15.653-8.74-20.107-21.986-3.998-11.89-3.205-21.684 1.124-27.744 8.034 1.159 15.652 8.738 20.106 21.983z" fill="url(#b)"/><path d="M20.934 126.642c-8.839-26.284-3.394-57.898 26.045-67.797 29.439-9.899 52.878 12.002 61.716 38.287 8.84 26.285 3.395 57.899-26.044 67.798s-52.879-12.002-61.717-38.288zm61.933-20.825C77.098 88.66 66.02 81 55.606 84.502c-10.415 3.502-14.612 16.3-8.844 33.455 5.77 17.157 16.847 24.82 27.262 21.318 10.415-3.502 14.612-16.301 8.843-33.458z" fill="#ff8000"/><path d="M20.934 126.642c-8.839-26.284-3.394-57.898 26.045-67.797 29.439-9.899 52.878 12.002 61.716 38.287 8.84 26.285 3.395 57.899-26.044 67.798s-52.879-12.002-61.717-38.288zm61.933-20.825C77.098 88.66 66.02 81 55.606 84.502c-10.415 3.502-14.612 16.3-8.844 33.455 5.77 17.157 16.847 24.82 27.262 21.318 10.415-3.502 14.612-16.301 8.843-33.458z" fill="url(#c)"/><path d="M159.062 61.923c-18.346-3.303-33.486 9.69-42.04 27.553l-8.188-1.56a.752.752 0 0 0-.903.56l-3.369 14.341a.54.54 0 0 0 .283.6c.016.01.034.016.051.024.026.01.046.027.074.033l6.008 1.412c-.396 1.133-.825 2.958-1.098 4.12-.258 1.098-.617 2.636-.815 3.947l-5.926-1.15a.67.67 0 0 0-.804.498l-3.334 14.197a.778.778 0 0 0 .58.936l7.758 1.822c-.853 20.82 7.466 40.291 26.966 44.87.69.162 1.37.306 2.04.432l13.43 2.592c9.696 1.824 17.515-.11 23.76-5.863.393-.363.533-.925.34-1.424l-7.916-20.447a1.014 1.014 0 0 0-.754-.63l-12.904-2.49a14.071 14.071 0 0 1-3.427 1.678c-2.485-2.098-4.35-5.33-4.935-10.123l3.51.824 12.543 2.421a.967.967 0 0 0 1.125-.728l3.301-14.057a.662.662 0 0 0-.493-.796L144.7 121c.064-1.386.454-3.046.727-4.208.235-.998.584-2.48 1.007-3.58l6.63 1.557 12.575 2.427a.933.933 0 0 0 1.085-.703l3.322-14.148a.601.601 0 0 0-.448-.722l-16.445-3.863c2.334-3.678 5.09-5.638 7.903-6.518 1.386 1.133 2.575 2.572 3.546 4.34l.015-.014 12.785 2.484c.412.08.836-.043 1.141-.33l16.8-15.8c.355-.334.454-.865.23-1.297-4.02-7.732-10.996-13.322-21.287-15.739a34.34 34.34 0 0 0-1.795-.371l-13.43-2.592z" fill="url(#d)"/><path fill="url(#a)" d="m144.7 121-12.704-3.213 2.36-7.436 12.078 2.861L144.7 121z"/><path d="m153.153 97.76-11.95-2.989s5.714-12.251 19.853-3.529c0 0-5.572 2.467-7.903 6.518z" fill="url(#e)"/><path d="m143.94 137.851-11.826-2.713s1.416 16.938 16.76 12.836c0 0-3.85-2.57-4.935-10.123z" fill="url(#f)"/><path d="m107.339 129.256-7.759-1.822a.778.778 0 0 1-.58-.936l3.335-14.197a.669.669 0 0 1 .804-.498l5.89 1.383c.188-1.357.578-3.017.851-4.18s.702-2.987 1.098-4.12l-6.008-1.412a.547.547 0 0 1-.408-.657l3.369-14.342a.752.752 0 0 1 .903-.56l8.03 1.886c8.798-18.604 24.713-32.033 43.966-27.511 10.614 2.492 17.7 8.36 21.656 16.472l-17.884 16.82c-2.098-3.82-5.203-6.126-9.152-7.054-5.06-1.188-11.205-.53-15.753 6.635l17.031 4-3.665 15.606-19.87-4.666c-.52 1.104-.948 2.93-1.221 4.092s-.663 2.823-.728 4.208l19.87 4.667-3.665 15.606-17.032-4c.844 8.606 5.69 12.372 10.997 13.618 3.949.927 7.794.079 10.887-1.998l8.43 21.775c-6.77 6.643-15.442 8.635-26.426 6.056-19.5-4.58-27.82-24.05-26.966-44.871z" fill="#ff8000"/><path d="m107.339 129.256-7.759-1.822a.778.778 0 0 1-.58-.936l3.335-14.197a.669.669 0 0 1 .804-.498l5.89 1.383c.188-1.357.578-3.017.851-4.18s.702-2.987 1.098-4.12l-6.008-1.412a.547.547 0 0 1-.408-.657l3.369-14.342a.752.752 0 0 1 .903-.56l8.03 1.886c8.798-18.604 24.713-32.033 43.966-27.511 10.614 2.492 17.7 8.36 21.656 16.472l-17.884 16.82c-2.098-3.82-5.203-6.126-9.152-7.054-5.06-1.188-11.205-.53-15.753 6.635l17.031 4-3.665 15.606-19.87-4.666c-.52 1.104-.948 2.93-1.221 4.092s-.663 2.823-.728 4.208l19.87 4.667-3.665 15.606-17.032-4c.844 8.606 5.69 12.372 10.997 13.618 3.949.927 7.794.079 10.887-1.998l8.43 21.775c-6.77 6.643-15.442 8.635-26.426 6.056-19.5-4.58-27.82-24.05-26.966-44.871z" fill="url(#g)"/><path d="M56.846 57.727c-3.214.26-5.607.704-7.187 1.053a47.52 47.52 0 0 0-1.772.424l-.588.154a44.447 44.447 0 0 0-9.067 3.554 40.813 40.813 0 0 0-8.038 5.59c-2.447 2.185-4.598 4.703-6.436 7.427a42.45 42.45 0 0 0-4.508 8.748c-1.17 3.072-2.02 6.258-2.592 9.487-.572 3.23-.834 6.505-.891 9.773l-.012.972c-.003 2.944.17 5.884.488 8.805l.001.008a70.797 70.797 0 0 0 1.85 9.807c.849 3.22 1.905 6.386 3.212 9.448a69.42 69.42 0 0 0 4.556 8.874 61.53 61.53 0 0 0 5.84 8.08c2.162 2.527 4.52 4.892 7.095 6.996 2.574 2.104 5.343 3.972 8.285 5.511 2.946 1.529 6.06 2.736 9.277 3.51l.603.144c.405.082 1.008.226 1.823.36 1.623.282 4.093.62 7.379.52a35.933 35.933 0 0 1-4.28-.394 39.148 39.148 0 0 1-3.01-.568c-.796-.176-1.383-.349-1.777-.451l-.586-.173a41.45 41.45 0 0 1-8.934-3.854 48.428 48.428 0 0 1-7.89-5.657 57.273 57.273 0 0 1-6.723-6.994 66.132 66.132 0 0 1-5.519-7.978 67.503 67.503 0 0 1-4.299-8.693 70.474 70.474 0 0 1-3.06-9.199 68.713 68.713 0 0 1-1.747-9.525v-.008a78.585 78.585 0 0 1-.52-8.57l.007-.943c.032-3.175.293-6.343.797-9.469.505-3.124 1.277-6.205 2.356-9.175 1.082-2.967 2.458-5.827 4.154-8.492a39.59 39.59 0 0 1 5.998-7.316 39.984 39.984 0 0 1 7.602-5.698c2.746-1.615 5.692-2.894 8.734-3.898l.572-.184c.38-.127.957-.296 1.729-.515a59.033 59.033 0 0 1 7.078-1.491z" fill="#ff911a"/><path d="M74.974 139.022c1.441-.537 2.465-1.11 3.117-1.533a9.18 9.18 0 0 0 .728-.49l.237-.172c1.264-.926 2.357-2.096 3.262-3.4.901-1.31 1.577-2.77 2.07-4.279.497-1.51.786-3.076.964-4.643a32.11 32.11 0 0 0 .187-4.006l-.022-.704a52.639 52.639 0 0 0-.378-4.671c-.2-1.546-.48-3.076-.784-4.599a103.77 103.77 0 0 0-1.042-4.529l-.003-.008a53.004 53.004 0 0 0-1.526-4.739c-.605-1.55-1.277-3.08-2.073-4.549a32.965 32.965 0 0 0-2.706-4.221 26.072 26.072 0 0 0-3.382-3.72c-1.246-1.125-2.599-2.143-4.07-2.961a18.288 18.288 0 0 0-4.673-1.849 16.29 16.29 0 0 0-4.78-.411l-.321.034c-.213.03-.536.04-.959.12-.847.119-2.112.413-3.668 1.08.412-.1.79-.213 1.152-.284.364-.062.695-.14 1.008-.176l.855-.107.702-.044c.414-.034.727-.008.934-.016h.31a16.08 16.08 0 0 1 4.486.807c1.5.482 2.927 1.173 4.238 2.037a22.496 22.496 0 0 1 3.645 2.97 29.183 29.183 0 0 1 3.021 3.617 31.034 31.034 0 0 1 2.429 4.059 44.075 44.075 0 0 1 1.909 4.346 50.937 50.937 0 0 1 1.412 4.545l.002.007c.385 1.467.75 2.939 1.068 4.418.318 1.48.585 2.967.825 4.455.233 1.49.411 2.984.51 4.48l.044.672c.05 1.272.07 2.543 0 3.808a23.816 23.816 0 0 1-.65 4.395 15.665 15.665 0 0 1-1.617 4.114 14.107 14.107 0 0 1-2.756 3.5l-.207.193c-.135.132-.35.316-.646.551-.588.473-1.5 1.17-2.852 1.903z" fill="#ff911a"/><path d="m133.438 110.074 19.726 4.632.048-.205-19.69-4.624c-.028.06-.056.131-.084.197zM117.194 89.575c4.239-8.965 10.131-16.727 17.253-21.859-7.172 5.093-13.11 12.85-17.388 21.828l.135.031zM147.598 138.407l-16.851-3.957c.007.075.017.148.025.223l16.778 3.94.048-.206zM105.07 103.412l6.01 1.41c-.397 1.134-.826 2.96-1.1 4.122-.258 1.104-.621 2.654-.818 3.97l.196.046c.188-1.357.578-3.017.851-4.18.273-1.162.702-2.987 1.098-4.12l-6.008-1.412a.547.547 0 0 1-.408-.657l3.369-14.342c.031-.135.1-.25.189-.344a.748.748 0 0 0-.418.507l-3.368 14.342a.547.547 0 0 0 .407.658zM155.779 88.302c-3.647-.856-7.857-.752-11.626 2.054 3.71-2.644 7.824-2.73 11.398-1.89 3.949.927 7.054 3.233 9.151 7.053l.21-.196c-2.098-3.8-5.196-6.096-9.133-7.02zM134.634 173.9c-19.5-4.579-27.82-24.05-26.966-44.87l-7.759-1.822a.778.778 0 0 1-.58-.936l3.335-14.197a.662.662 0 0 1 .16-.297.666.666 0 0 0-.388.46l-3.334 14.197a.778.778 0 0 0 .58.936l7.757 1.822c-.853 20.82 7.467 40.291 26.967 44.87 9.349 2.196 17.022.759 23.273-3.718-6.21 4.341-13.81 5.724-23.045 3.556z" fill="#f6c243"/><path d="M55.606 84.502c-3.277.797-5.807 3.025-7.724 5.708 0 0 8.74.172 16.391 13.437l13.659-6.012S70.44 80.89 55.606 84.502z" fill="url(#h)"/><path d="m83.69 112.96-14.526 3.184c4.298 15.419-2.296 23.805-2.296 23.805 2.373.343 4.758.049 7.156-.674 14.805-4.46 9.665-26.315 9.665-26.315z" fill="url(#i)"/></svg>