<?xml version="1.0" encoding="UTF-8"?><svg xmlns="http://www.w3.org/2000/svg" width="200" height="200" xmlns:xlink="http://www.w3.org/1999/xlink" viewBox="0 0 200 200"><defs><linearGradient id="uuid-2e8ad1f2-b4a1-41e5-82fd-1edfb04344d9" x1="-1640" y1="-1420" x2="-1639" y2="-1420" gradientTransform="translate(44592.8736 135790.1351) rotate(30.9638) scale(65.8553)" gradientUnits="userSpaceOnUse"><stop offset="0" stop-color="#fbe7b4"/><stop offset=".0363" stop-color="#fbe7b4"/><stop offset=".1286" stop-color="#fcc375"/><stop offset=".214" stop-color="#fda642"/><stop offset=".2881" stop-color="#fe911e"/><stop offset=".3481" stop-color="#fe8408"/><stop offset=".3864" stop-color="#ff8000"/><stop offset=".5776" stop-color="#ff8000"/><stop offset=".7295" stop-color="#fb6f13"/><stop offset=".8618" stop-color="#f75e28"/><stop offset="1" stop-color="#f75e28"/></linearGradient><linearGradient id="uuid-5f0ce242-fdba-41fd-a35a-e3f382eb5ce7" x1="-1640" y1="-1420" x2="-1639" y2="-1420" gradientTransform="translate(27281.2704 88433.8287) rotate(32.0054) scale(42.6193)" gradientUnits="userSpaceOnUse"><stop offset="0" stop-color="#fbe7b4"/><stop offset=".1191" stop-color="#fbe7b4"/><stop offset=".1296" stop-color="#fbdea5"/><stop offset=".1661" stop-color="#fcc57a"/><stop offset=".2042" stop-color="#fdb054"/><stop offset=".2436" stop-color="#fd9e35"/><stop offset=".2848" stop-color="#fe911e"/><stop offset=".3284" stop-color="#fe870d"/><stop offset=".3761" stop-color="#fe8103"/><stop offset=".4358" stop-color="#ff8000"/><stop offset=".6235" stop-color="#ff8000"/><stop offset=".7535" stop-color="#fb6f13"/><stop offset=".8666" stop-color="#f75e28"/><stop offset="1" stop-color="#f75e28"/></linearGradient><linearGradient id="uuid-76af1fd5-cdb9-4582-b80f-313ff256dba6" x1="-1640" y1="-1420" x2="-1639" y2="-1420" gradientTransform="translate(316946.6341 -47473.8325) rotate(32.3536) scale(147.7337 -147.7337)" gradientUnits="userSpaceOnUse"><stop offset="0" stop-color="#fbe7b4"/><stop offset=".0006" stop-color="#fbe6b3"/><stop offset=".0634" stop-color="#fcc77d"/><stop offset=".1248" stop-color="#fdae50"/><stop offset=".1833" stop-color="#fd9a2d"/><stop offset=".2383" stop-color="#fe8b14"/><stop offset=".2883" stop-color="#fe8305"/><stop offset=".3289" stop-color="#ff8000"/><stop offset=".6438" stop-color="#ff8000"/><stop offset=".7913" stop-color="#fb6f13"/><stop offset=".9152" stop-color="#f75e28"/><stop offset="1" stop-color="#f75e28"/></linearGradient><linearGradient id="uuid-24768bde-d3d6-48ec-86b1-b5d764740786" x1="-1640" y1="-1420" x2="-1639" y2="-1420" gradientTransform="translate(239175.5811 -53653.8201) rotate(28.2159) scale(112.9925 -112.9925)" gradientUnits="userSpaceOnUse"><stop offset="0" stop-color="#ff8000"/><stop offset=".7158" stop-color="#f9681b"/><stop offset="1" stop-color="#f75e28"/></linearGradient><linearGradient id="uuid-af75e0b7-7a3f-4934-8a2a-a4a3ae2003f8" x1="-1640" y1="-1420" x2="-1639" y2="-1420" gradientTransform="translate(9406.8981 -7936.3515) scale(5.6897 -5.6897)" gradientUnits="userSpaceOnUse"><stop offset="0" stop-color="#ff8000"/><stop offset=".7158" stop-color="#f9681b"/><stop offset="1" stop-color="#f75e28"/></linearGradient><linearGradient id="uuid-6567648a-5090-40bb-8765-d99f2251dce7" x1="-1640" y1="-1420" x2="-1639" y2="-1420" gradientTransform="translate(9382.2286 -7945.3312) scale(5.6898 -5.6898)" gradientUnits="userSpaceOnUse"><stop offset="0" stop-color="#ff8000"/><stop offset=".7158" stop-color="#f9681b"/><stop offset="1" stop-color="#f75e28"/></linearGradient><linearGradient id="uuid-88c84544-23db-498b-974c-2d325d4e9810" x1="-1640" y1="-1420" x2="-1639" y2="-1420" gradientTransform="translate(110826.1036 -95791.5799) scale(67.5565 -67.5565)" gradientUnits="userSpaceOnUse"><stop offset="0" stop-color="#ff8000"/><stop offset=".7158" stop-color="#f9681b"/><stop offset="1" stop-color="#f75e28"/></linearGradient><linearGradient id="uuid-13a18113-3fe3-4fc3-bb2b-af61e2933c43" x1="-6339.4281" y1="88.7191" x2="-6285.9208" y2="189.2085" gradientTransform="translate(6379.7724)" gradientUnits="userSpaceOnUse"><stop offset="0" stop-color="#e45a2e" stop-opacity="0"/><stop offset=".2405" stop-color="#fff" stop-opacity=".07"/><stop offset=".4756" stop-color="#e5683b" stop-opacity=".3"/><stop offset=".5585" stop-color="#e7805b" stop-opacity=".264"/><stop offset=".6871" stop-color="#edc4b6" stop-opacity=".1655"/><stop offset=".7561" stop-color="#f2f2f2" stop-opacity=".1"/><stop offset="1" stop-color="#e45a2e" stop-opacity="0"/><stop offset="1" stop-color="#e75a2c" stop-opacity=".1815"/><stop offset="1" stop-color="#f05c2a" stop-opacity=".6349"/><stop offset="1" stop-color="#f75e28"/></linearGradient></defs><g id="uuid-dc825feb-d733-4492-a123-2cecbbba3541"><path d="M157.524,23.0918s-4.4683-7.1207-11.3641-11.075c-6.5963-4.4359-14.959-5.2941-14.959-5.2941-9.2886-1.4338-15.9349,5.567-15.9349,5.567-4.2198,4.2788-8.9867,15.0822-8.9867,15.0822-6.4523,15.5062-10.2675,29.0428-10.2675,29.0428-2.4821,7.8381-1.5186,11.7134-1.5186,11.7134l.0258.0159-4.3246,6.9545c-4.0286,6.4768-8.1742,6.4459-8.1742,6.4459l3.0042,1.868,12.0619,7.5007.0171.0106,12.0792,7.5115,2.9869,1.8574s-1.7056-3.4033,1.6952-9.3868l4.8125-7.739.0085.0054s3.9017-.8497,9.8337-6.5426c0,0,10.4535-9.4086,21.507-22.0536,0,0,7.5811-9.0532,9.5522-14.7303,0,0,3.3394-9.0574-2.0547-16.7539Z" fill="url(#uuid-2e8ad1f2-b4a1-41e5-82fd-1edfb04344d9)"/><path d="M110.6341,69.1459c-6.6711-4.1484-13.8899-4.5994-16.1238-1.0072,1.9855-3.1927,9.0029-2.418,15.6741,1.7305,6.6711,4.1484,10.4696,10.0996,8.4843,13.2924,2.2338-3.5922-1.3634-9.8672-8.0345-14.0156Z" fill="#f75e28"/><path d="M113.8647,90.9059l4.8125-7.739c1.9854-3.1927-1.8131-9.1439-8.4843-13.2924-6.6711-4.1484-13.6886-4.9232-15.674-1.7305l-4.3246,6.9545c-4.0286,6.4768-8.1742,6.4459-8.1742,6.4459l3.004,1.868,12.062,7.5007.0171.0106,12.0792,7.5115,2.9868,1.8574s-1.7054-3.4033,1.6953-9.3868Z" fill="url(#uuid-5f0ce242-fdba-41fd-a35a-e3f382eb5ce7)"/><path d="M136.4236,146.4023c4.5853-8.0377,1.1714-20.4154-6.7675-30.6063-14.3315-18.3927-35.9014-32.3252-57.8494-39.7914-11.5543-3.9305-36.7963-9.0535-44.2194,3.1971l-14.978,25.5037c-1.5516,2.5338-2.3372,5.8156-2.0736,10.0117,1.1649,18.5522,21.4921,34.9485,35.4092,44.5029,16.0206,10.9985,36.1587,20.9307,56.0155,21.1267,10.3804.1025,16.571-3.2823,19.4851-8.4409l14.978-25.5035Z" fill="url(#uuid-76af1fd5-cdb9-4582-b80f-313ff256dba6)"/><path d="M114.6479,141.3508c13.0051,16.6945,13.8699,39.2583-12.6875,38.996-19.8568-.196-39.9949-10.1282-56.0155-21.1267-13.9171-9.5544-34.2443-25.9507-35.4092-44.5029-1.5306-24.3766,32.3252-17.8989,46.2628-13.1577,21.948,7.4663,43.5179,21.3987,57.8494,39.7914Z" fill="url(#uuid-24768bde-d3d6-48ec-86b1-b5d764740786)"/><path d="M114.5873,159.4841c-1.8071-4.1627-3.3275-4.1947-4.1628-7.0833-.9387-3.2465.6986-4.1862.002-7.3405-.6691-3.0298-2.767-4.8219-5.8119-7.4229-4.4838-3.8301-6.4491-3.5271-12.0197-8.0743-.9069-.7402-1.8994-1.6506-3.8846-3.4717-6.0168-5.5192-6.3685-6.4918-8.9613-8.3735-3.5822-2.5999-6.9758-3.6931-9.1138-4.3629-5.7432-1.7991-6.6917-.463-12.2405-2.2656-.9781-.3177-.2543-.1338-9.1241-4.0863-4.5457-2.0256-6.4082-2.8192-9.1716-2.8416-1.4357-.0116-3.6881-.0298-5.8665,1.3005-2.5615,1.5645-2.0824,3.1992-4.3171,4.2679-2.4658,1.1793-3.7211-.4896-7.2285.6948-1.1515.3889-2.814.9503-3.6957,2.4911-1.1898,2.0793-.207,4.6309.1995,5.6862,1.301,3.3777,3.1907,3.099,4.064,6.0406.6012,2.0249-.2024,2.4664.3246,6.0371.0619.4192.3961,2.6035,1.0818,4.3347,1.282,3.2368,3.8555,5.0493,7.2028,7.2679,8.373,5.5498,8.1719,4.7488,11.0911,7.0002,5.5538,4.2836,4.8763,6.0985,10.6857,10.3782,2.2261,1.6399,5.1714,3.7739,9.4971,5.2084,5.2615,1.7449,6.2476.3597,12.1074,2.1221.9966.2998,4.0267,1.6204,10.087,4.2615,4.595,2.0024,6.3212,2.8127,9.0386,2.698,1.1621-.0491,3.8875-.1643,6.1693-1.9816,1.8162-1.4465,1.4554-2.4614,3.0358-3.3472,2.1888-1.2269,3.5396.351,7.0796-.4235,1.1167-.2444,4.0057-.8765,4.9614-2.9969.7252-1.6094.004-3.3375-1.0293-5.7177ZM100.9796,156.751c-.577,1.4525-2.5007,1.9773-3.4086,2.225-2.6532.7239-3.6761-.4481-5.2817.4918-1.4282.8362-.9457,1.9551-2.4719,3.0916-1.6879,1.2566-3.8361,1.0483-5.2975.9067-1.0662-.1034-2.4247-.3779-5.8787-2.0239-3.9589-1.8868-3.5448-2.1794-5.5652-2.9816-4.218-1.6744-5.6826-.2639-10.0381-1.905-2.3523-.8862-3.9143-2.047-5.1504-2.9657-4.2285-3.1425-3.7405-4.8005-7.4663-7.6243-2.7708-2.0999-3.1873-1.2939-7.5924-4.3051-4.2649-2.9152-5.0212-4.4543-5.3323-5.4657-.6012-1.9542.1973-2.7924-.0743-5.1449-.3235-2.8027-1.8495-5.0179-3.3566-6.6195-.1366-.2812-.9076-1.9323-.1453-3.468.627-1.2631,1.9229-1.7064,2.7065-1.9746,2.5632-.8771,3.4991.455,5.2765-.3535,1.9481-.8862,1.4741-2.7823,3.4664-3.7463,1.2363-.5981,2.4376-.3375,4.8405.184.6543.1421,2.3202.5348,6.6926,2.4705,3.454,1.5291,3.3331,1.6906,4.767,2.1201,2.7249.8163,3.3053.276,6.1973.928,2.8911.6519,4.939,1.7843,6.4108,2.5981,1.3899.7687,3.5654,1.9923,5.7946,4.2368,1.8136,1.826,1.441,2.0909,3.0443,3.7166,2.0195,2.0479,2.8461,1.8661,7.2947,4.8478,3.5758,2.3966,4.7672,3.6705,5.6248,5.0613.4946.8022,1.1416,1.8783,1.2568,3.3718.137,1.7743-.629,2.1611-.4132,3.5853.2419,1.5961,1.2885,1.6665,2.752,4.1211.9312,1.5619,1.9106,3.2048,1.3478,4.6217Z" fill="#c64528"/><path d="M114.5873,159.4841c-1.8071-4.1627-3.3275-4.1947-4.1628-7.0833-.9387-3.2465.6986-4.1862.002-7.3405-.6691-3.0298-2.767-4.8219-5.8119-7.4229-4.4838-3.8301-6.4491-3.5271-12.0197-8.0743-.9069-.7402-1.8994-1.6506-3.8846-3.4717-6.0168-5.5192-6.3685-6.4918-8.9613-8.3735-3.5822-2.5999-6.9758-3.6931-9.1138-4.3629-5.7432-1.7991-6.6917-.463-12.2405-2.2656-.9781-.3177-.2543-.1338-9.1241-4.0863-4.5457-2.0256-6.4082-2.8192-9.1716-2.8416-1.4357-.0116-3.6881-.0298-5.8665,1.3005-2.5615,1.5645-2.0824,3.1992-4.3171,4.2679-2.4658,1.1793-3.7211-.4896-7.2285.6948-1.1515.3889-2.814.9503-3.6957,2.4911-1.1898,2.0793-.207,4.6309.1995,5.6862,1.301,3.3777,3.1907,3.099,4.064,6.0406.6012,2.0249-.2024,2.4664.3246,6.0371.0619.4192.3961,2.6035,1.0818,4.3347,1.282,3.2368,3.8555,5.0493,7.2028,7.2679,8.373,5.5498,8.1719,4.7488,11.0911,7.0002,5.5538,4.2836,4.8763,6.0985,10.6857,10.3782,2.2261,1.6399,5.1714,3.7739,9.4971,5.2084,5.2615,1.7449,6.2476.3597,12.1074,2.1221.9966.2998,4.0267,1.6204,10.087,4.2615,4.595,2.0024,6.3212,2.8127,9.0386,2.698,1.1621-.0491,3.8875-.1643,6.1693-1.9816,1.8162-1.4465,1.4554-2.4614,3.0358-3.3472,2.1888-1.2269,3.5396.351,7.0796-.4235,1.1167-.2444,4.0057-.8765,4.9614-2.9969.7252-1.6094.004-3.3375-1.0293-5.7177ZM100.9796,156.751c-.577,1.4525-2.5007,1.9773-3.4086,2.225-2.6532.7239-3.6761-.4481-5.2817.4918-1.4282.8362-.9457,1.9551-2.4719,3.0916-1.6879,1.2566-3.8361,1.0483-5.2975.9067-1.0662-.1034-2.4247-.3779-5.8787-2.0239-3.9589-1.8868-3.5448-2.1794-5.5652-2.9816-4.218-1.6744-5.6826-.2639-10.0381-1.905-2.3523-.8862-3.9143-2.047-5.1504-2.9657-4.2285-3.1425-3.7405-4.8005-7.4663-7.6243-2.7708-2.0999-3.1873-1.2939-7.5924-4.3051-4.2649-2.9152-5.0212-4.4543-5.3323-5.4657-.6012-1.9542.1973-2.7924-.0743-5.1449-.3235-2.8027-1.8495-5.0179-3.3566-6.6195-.1366-.2812-.9076-1.9323-.1453-3.468.627-1.2631,1.9229-1.7064,2.7065-1.9746,2.5632-.8771,3.4991.455,5.2765-.3535,1.9481-.8862,1.4741-2.7823,3.4664-3.7463,1.2363-.5981,2.4376-.3375,4.8405.184.6543.1421,2.3202.5348,6.6926,2.4705,3.454,1.5291,3.3331,1.6906,4.767,2.1201,2.7249.8163,3.3053.276,6.1973.928,2.8911.6519,4.939,1.7843,6.4108,2.5981,1.3899.7687,3.5654,1.9923,5.7946,4.2368,1.8136,1.826,1.441,2.0909,3.0443,3.7166,2.0195,2.0479,2.8461,1.8661,7.2947,4.8478,3.5758,2.3966,4.7672,3.6705,5.6248,5.0613.4946.8022,1.1416,1.8783,1.2568,3.3718.137,1.7743-.629,2.1611-.4132,3.5853.2419,1.5961,1.2885,1.6665,2.752,4.1211.9312,1.5619,1.9106,3.2048,1.3478,4.6217Z" fill="#c64528"/><path d="M114.387,159.1234c-1.8071-4.1627-3.3276-4.1947-4.1628-7.0833-.9388-3.2465.6985-4.1862.002-7.3405-.6692-3.0298-2.7671-4.8219-5.812-7.4229-4.4838-3.8301-6.449-3.5271-12.0197-8.0743-.9069-.7402-1.8994-1.6506-3.8846-3.4717-6.0168-5.5192-6.3685-6.4918-8.9613-8.3735-3.582-2.5999-6.9757-3.6931-9.1136-4.3628-5.7432-1.7992-6.6918-.4631-12.2405-2.2657-.9781-.3177-.2544-.1338-9.1243-4.0863-4.5457-2.0255-6.4082-2.8192-9.1715-2.8416-1.4358-.0116-3.6881-.0298-5.8665,1.3005-2.5616,1.5645-2.0825,3.1992-4.3173,4.2679-2.4657,1.1793-3.7209-.4895-7.2284.6948-1.1516.3889-2.8141.9503-3.6957,2.4911-1.1898,2.0795-.207,4.6309.1993,5.6862,1.3011,3.3778,3.1907,3.0991,4.064,6.0406.6012,2.0249-.2023,2.4664.3246,6.0371.0619.4193.3962,2.6035,1.0818,4.3347,1.282,3.2368,3.8555,5.0493,7.2028,7.2679,8.373,5.5498,8.172,4.7488,11.0911,7.0002,5.554,4.2836,4.8765,6.0986,10.6857,10.3782,2.2261,1.6399,5.1714,3.7739,9.4971,5.2084,5.2616,1.7449,6.2476.3597,12.1074,2.1222.9967.2997,4.0269,1.6202,10.0872,4.2614,4.5948,2.0024,6.321,2.8127,9.0385,2.698,1.1621-.0491,3.8875-.1642,6.1693-1.9816,1.8162-1.4465,1.4556-2.4614,3.0358-3.3472,2.1888-1.2269,3.5396.351,7.0796-.4235,1.1167-.2444,4.0059-.8765,4.9614-2.9969.7252-1.6094.004-3.3374-1.0292-5.7177Z" fill="#fff"/><path d="M79.2822,141.86c-1.52-.8801-3.0701-1.05-3.47-.3701-.3899.6699.53,1.9299,2.05,2.8101,1.52.8799,3.0698,1.05,3.46.3799.3899-.6799-.52-1.9399-2.04-2.8198Z" fill="url(#uuid-af75e0b7-7a3f-4934-8a2a-a4a3ae2003f8)"/><path d="M54.5322,132.9398c-1.52-.8799-3.0701-1.0498-3.46-.3699-.3901.6699.52,1.9299,2.05,2.8201,1.5198.8799,3.0698,1.0398,3.46.3699.3899-.6799-.53-1.9399-2.05-2.8201Z" fill="url(#uuid-6567648a-5090-40bb-8765-d99f2251dce7)"/><path d="M99.4314,151.7684c-1.4634-2.4546-2.51-2.5249-2.752-4.1211-.2158-1.4241.5503-1.8109.4133-3.5852-.1152-1.4937-.7622-2.5696-1.2568-3.3718-.8577-1.3909-2.0491-2.6648-5.6248-5.0613-4.4487-2.9817-5.2751-2.7999-7.2947-4.8478-1.6033-1.6256-1.2307-1.8905-3.0444-3.7167-2.229-2.2444-4.4045-3.468-5.7944-4.2367-1.4719-.814-3.5198-1.9464-6.4106-2.5983-2.8921-.652-3.4727-.1116-6.1975-.928-1.4338-.4294-1.3127-.5911-4.7668-2.1201-4.3726-1.9355-6.0383-2.3284-6.6926-2.4703-2.4028-.5215-3.6042-.7821-4.8406-.184-1.9922.9639-1.5183,2.8601-3.4663,3.7463-1.7773.8083-2.7134-.5236-5.2764.3535-.7839.2681-2.0796.7114-2.7068,1.9746-.7622,1.5358.0088,3.1868.1453,3.468,1.5071,1.6016,3.0332,3.8167,3.3567,6.6194.2715,2.3527-.5269,3.1908.0742,5.145.3113,1.0112,1.0674,2.5505,5.3323,5.4656,4.4053,3.0111,4.8218,2.2052,7.5925,4.3052,3.7258,2.8237,3.2378,4.4817,7.4663,7.6243,1.2361.9187,2.7981,2.0793,5.1501,2.9657,4.3557,1.641,5.8203.2306,10.0383,1.905,2.0203.8021,1.6062,1.0947,5.5652,2.9814,3.4539,1.6461,4.8125,1.9205,5.8787,2.0239,1.4614.1417,3.6096.35,5.2974-.9067,1.5264-1.1364,1.0437-2.2552,2.4719-3.0914,1.6057-.9399,2.6287.2319,5.2817-.4919.908-.2477,2.8315-.7725,3.4087-2.2249.563-1.417-.4167-3.0599-1.3479-4.6218ZM61.1921,138.4298c-1.0698,1.8501-5.3298,1.3901-9.51-1.03-4.1799-2.4199-6.6899-5.8799-5.6199-7.73,1.0701-1.8599,5.3298-1.3999,9.51,1.02,4.1799,2.4202,6.7,5.8901,5.6199,7.74ZM68.2322,147.2599l-5.05-.1899.6602-17.3601,5.0498.1899-.6599,17.3601ZM85.9421,147.35c-1.0698,1.8499-5.3298,1.3899-9.51-1.03-4.1799-2.4202-6.7-5.8801-5.6299-7.73,1.0801-1.8601,5.3398-1.4001,9.51,1.02,4.1799,2.4199,6.7,5.8899,5.6299,7.74Z" fill="url(#uuid-88c84544-23db-498b-974c-2d325d4e9810)"/><path d="M51.2714,132.9287c.391-.6753,1.9414-.5085,3.4628.3723.8158.4724,1.448,1.0529,1.8076,1.5951-.2778-.6349-1.0085-1.3766-2.0095-1.9562-1.52-.8799-3.0701-1.0499-3.46-.3699-.1807.3102-.0728.7485.2366,1.2164-.1421-.3275-.1705-.6279-.0375-.8578Z" fill="#c64528"/><path d="M61.1921,138.4299c-1.0698,1.8501-5.3298,1.3901-9.5099-1.03-2.4406-1.4128-4.3044-3.179-5.2262-4.7734.8356,1.6863,2.8038,3.6184,5.4294,5.1387,4.1792,2.4202,8.4371,2.8794,9.5103,1.0261.4468-.7712.2639-1.823-.3944-2.9611.4946.999.5925,1.9116.1908,2.5997Z" fill="#c64528"/><polygon points="68.2322 147.26 63.3982 147.0781 63.3848 147.4277 68.4329 147.6196 69.0924 130.2628 68.8787 130.2546 68.2322 147.26" fill="#c64528"/><path d="M76.0166,141.8468c.3911-.6754,1.9414-.5085,3.4629.3724.8088.4684,1.438,1.0432,1.7993,1.5815-.2803-.6315-1.0039-1.3661-1.9966-1.9408-1.52-.88-3.0701-1.0499-3.47-.37-.1818.3121-.0698.7539.2456,1.2241-.146-.3313-.1755-.6353-.0413-.8673Z" fill="#c64528"/><path d="M85.6428,144.5649c.5776,1.0708.7217,2.0548.2993,2.785-1.0698,1.85-5.3298,1.39-9.5099-1.0299-2.4305-1.4072-4.2928-3.1647-5.2214-4.7542.8417,1.6812,2.8058,3.6035,5.42,5.1174,4.1792,2.4199,8.437,2.8794,9.5103,1.0261.4707-.813.2499-1.9359-.4983-3.1445Z" fill="#c64528"/><path d="M20.2836,98.7894h0c1.3177-.4442,2.4991-.7228,3.5194-.9082,1.0201-.1866,1.8763-.2975,2.563-.368.6868-.0692,1.203-.1047,1.5472-.1252.172-.0116.3011-.0179.3873-.0216l.1293-.0061c1.121-.0525,2.2433-.0626,3.3645-.041,1.6351.0361,3.2681.151,4.894.325,2.7419.2859,5.4657.7345,8.1648,1.2921,1.3488.2839,2.6929.5891,4.0287.9266,1.3359.3368,2.6635.7048,3.9832,1.0944,1.3597.4036,2.7094.8385,4.0411,1.311l.002.0007c.6281.2274,1.2561.455,1.8842.6825.6245.2367,1.249.4735,1.8735.7103,2.5701,1.0005,5.1143,2.066,7.6208,3.2137,2.507,1.1466,4.9845,2.3573,7.4189,3.6492,2.4377,1.2852,4.8385,2.6406,7.1932,4.0714,2.3607,1.421,4.6708,2.9248,6.9348,4.494,2.2681,1.5637,4.4806,3.2067,6.6438,4.9117,2.1641,1.7043,4.2662,3.4863,6.3129,5.3303.2543.2322.5085.4645.7627.6967.2543.2324.5101.463.7577.7024.498.4755,1.001.9464,1.4952,1.426.4906.4835.9811.9672,1.4717,1.4508.4811.493.9622.9861,1.4434,1.4792.4977.5305.9955,1.0612,1.4932,1.5917l1.4623,1.6208c.4757.5508.9513,1.1017,1.4269,1.6525.465.5603.9298,1.1205,1.3947,1.6807l.0013.0016c.9611,1.1941,1.8392,2.4644,2.6536,3.7764.8148,1.3123,1.5553,2.6738,2.2327,4.0668,1.4344,2.9507,2.5663,6.0654,3.2241,9.2882.2799,1.379.4584,2.7804.4961,4.189,0,0,.0016.1176.0048.3529.0006.2352.0026.5885-.0203,1.0591-.0226.4705-.0691,1.0588-.1833,1.7579-.0575.3492-.1317.7264-.2367,1.127-.1022.4011-.23.8274-.3989,1.2716.3981-.8634.6416-1.668.7998-2.3661.16-.6989.2449-1.2924.2977-1.7681.0525-.476.0754-.835.0868-1.0742.0096-.2395.0145-.3591.0145-.3591.0388-1.4343-.0659-2.8716-.2754-4.2916-.2391-1.6609-.6335-3.2963-1.1165-4.9023-.4856-1.606-1.0698-3.1819-1.7367-4.7235-.6328-1.4535-1.3435-2.8745-2.1295-4.2563-.7842-1.3829-1.6545-2.7207-2.6155-4.0022l-.0013-.0017c-.4496-.5863-.8992-1.1725-1.3486-1.7587l-1.3923-1.7249c-.4766-.5649-.9531-1.1298-1.4297-1.6946-.4895-.5537-.979-1.1075-1.4685-1.6613-.4751-.5142-.9502-1.0284-1.4253-1.5426-.485-.505-.97-1.0099-1.455-1.5149-.488-.5021-.9916-.9885-1.4868-1.4836-.2466-.2487-.5016-.4885-.7549-.7302-.2533-.2416-.5067-.4832-.7601-.7247-2.0354-1.9243-4.1519-3.762-6.3242-5.5298-2.1733-1.7671-4.4152-3.4487-6.7039-5.0626-2.2938-1.6068-4.6396-3.1393-7.0336-4.5918-2.3981-1.4457-4.8395-2.8188-7.3224-4.1118-2.4865-1.2863-5.0085-2.5033-7.571-3.6288-2.5629-1.1243-5.1578-2.1752-7.7888-3.1273-.6384-.2266-1.2769-.4532-1.9153-.6799-.642-.2164-1.2839-.4329-1.9258-.6493l-.0021-.0007c-1.3798-.4476-2.7683-.8535-4.1644-1.2268-1.354-.3636-2.7172-.6879-4.0853-.9861-1.3684-.2976-2.743-.5651-4.1238-.7964-2.761-.4637-5.5448-.7993-8.3412-.9561-1.6589-.0886-3.3214-.1169-4.9818-.0653-1.1384.038-2.2764.1068-3.408.2382l-.1304.0146c-.0869.0093-.2173.0242-.3909.0471-.347.0432-.8674.1129-1.5574.2275-.6888.1194-1.5497.2769-2.5629.5458-.5071.131-1.0515.2913-1.6302.4841-.579.1919-1.1912.4213-1.8271.702Z" fill="#ff911a"/><path d="M114.3857,159.1203c-1.8071-4.1627-3.3276-4.1947-4.1628-7.0832-.9388-3.2465.6986-4.1862.002-7.3405-.6691-3.0298-2.7671-4.8219-5.8119-7.4228-4.4838-3.8301-6.4491-3.5271-12.0197-8.0743-.9068-.7403-1.8994-1.6507-3.8846-3.4717-6.0169-5.5191-6.3686-6.4919-8.9613-8.3736-3.5821-2.5998-6.9758-3.6931-9.1137-4.3628-5.7432-1.7992-6.6917-.463-12.2405-2.2657-.9781-.3177-.2543-.1337-9.1242-4.0863-4.5456-2.0256-6.4082-2.8192-9.1716-2.8415-1.4357-.0116-3.6881-.0298-5.8664,1.3005-2.5616,1.5644-2.0825,3.1992-4.3172,4.2679-2.4658,1.1793-3.721-.4896-7.2284.6948-1.1515.3888-2.814.9503-3.6957,2.4911-1.1898,2.0794-.207,4.6309.1994,5.6861,1.3011,3.3778,3.1906,3.0991,4.064,6.0407.6012,2.0249-.2023,2.4664.3246,6.0371.0619.4192.3962,2.6035,1.0818,4.3346,1.282,3.2369,3.8555,5.0493,7.2028,7.268,8.373,5.5498,8.1719,4.7488,11.0911,7.0003,5.5539,4.2835,4.8764,6.0985,10.6856,10.3781,2.2261,1.6399,5.1714,3.7739,9.4971,5.2084,5.2615,1.7449,6.2475.3597,12.1074,2.1221.9966.2997,4.0268,1.6203,10.0871,4.2614,4.5949,2.0025,6.3211,2.8128,9.0385,2.698,1.1621-.0491,3.8875-.1642,6.1693-1.9816,1.8162-1.4465,1.4555-2.4614,3.0357-3.3471,2.1888-1.2269,3.5396.351,7.0796-.4235,1.1167-.2443,4.0058-.8764,4.9614-2.9969.7252-1.6093.0041-3.3375-1.0292-5.7177ZM100.778,156.3872c-.577,1.4525-2.5007,1.9772-3.4086,2.225-2.6532.7239-3.6762-.4481-5.2817.4918-1.4283.8362-.9457,1.9551-2.472,3.0915-1.6878,1.2567-3.836,1.0484-5.2975.9067-1.0662-.1034-2.4247-.3779-5.8786-2.0239-3.9589-1.8868-3.5449-2.1794-5.5653-2.9815-4.218-1.6745-5.6826-.264-10.0381-1.905-2.3523-.8863-3.9143-2.0471-5.1503-2.9657-4.2285-3.1425-3.7405-4.8006-7.4663-7.6243-2.7708-2.0999-3.1873-1.294-7.5924-4.3051-4.2649-2.9152-5.0212-4.4544-5.3323-5.4656-.6011-1.9542.1973-2.7924-.0743-5.145-.3235-2.8027-1.8495-5.0179-3.3567-6.6194-.1366-.2812-.9075-1.9322-.1452-3.468.627-1.2631,1.9228-1.7065,2.7066-1.9747,2.5632-.877,3.4991.455,5.2765-.3535,1.9481-.8862,1.4741-2.7823,3.4664-3.7463,1.2363-.5982,2.4377-.3375,4.8405.184.6543.142,2.3201.5347,6.6926,2.4704,3.454,1.5291,3.3331,1.6906,4.767,2.1201,2.7249.8164,3.3052.276,6.1973.928,2.8911.6518,4.9389,1.7842,6.4108,2.5982,1.3899.7686,3.5654,1.9923,5.7945,4.2367,1.8137,1.8262,1.441,2.091,3.0443,3.7167,2.0196,2.0478,2.8461,1.8661,7.2948,4.8478,3.5757,2.3966,4.7672,3.6705,5.6247,5.0613.4946.8022,1.1416,1.8782,1.2569,3.3718.1369,1.7744-.6291,2.1612-.4132,3.5853.2419,1.5962,1.2885,1.6665,2.7519,4.1211.9312,1.5619,1.9107,3.2049,1.3479,4.6217Z" fill="url(#uuid-13a18113-3fe3-4fc3-bb2b-af61e2933c43)"/></g><g id="uuid-29214e0c-09e7-47af-bc8c-47dad7ae4877"><ellipse cx="96.6548" cy="188.1205" rx="37.0225" ry="5.3503" fill="#090909" opacity=".8"/></g></svg>