<?xml version="1.0" encoding="UTF-8"?><svg id="uuid-f35436c4-643d-403a-968f-acc7d7c4ae2c" xmlns="http://www.w3.org/2000/svg" xmlns:xlink="http://www.w3.org/1999/xlink" viewBox="0 0 200 200"><defs><linearGradient id="uuid-a06351c6-9b64-43bc-9810-7b2287464950" x1="-1883.8821634" y1="147.7284015" x2="-1883.6827005" y2="147.827801" gradientTransform="translate(-1747.9824219 197.3031786) rotate(-180)" gradientUnits="userSpaceOnUse"><stop offset="0" stop-color="#f75e28"/><stop offset=".1925" stop-color="#fa6e14"/><stop offset=".4316" stop-color="#ff8000"/><stop offset=".558" stop-color="#ffa143"/><stop offset=".7185" stop-color="#ffc992"/><stop offset=".8509" stop-color="#ffe6cd"/><stop offset=".9482" stop-color="#fff8f1"/><stop offset="1" stop-color="#fff"/></linearGradient><linearGradient id="uuid-b6ef8cd3-604e-4b3e-8067-d30377808c04" x1="103.2725648" y1="72.165947" x2="24.3982567" y2="154.2270321" gradientTransform="translate(0 197.3031786) scale(1 -1)" gradientUnits="userSpaceOnUse"><stop offset="0" stop-color="#f75e28"/><stop offset=".2005" stop-color="#fe7b09"/><stop offset=".5917" stop-color="#fd9022"/><stop offset=".6313" stop-color="#fca13e"/><stop offset=".7088" stop-color="#fbbe70"/><stop offset=".7766" stop-color="#fbd495"/><stop offset=".8314" stop-color="#fbe2ab"/><stop offset=".8663" stop-color="#fbe7b4"/></linearGradient><linearGradient id="uuid-86d8c21a-7fc7-4ce0-82ae-c121cf3bece6" x1="-1826.2294074" y1="145.9603596" x2="-1920.7670004" y2="102.0367446" gradientTransform="translate(-1747.9824219 197.3031786) rotate(-180)" gradientUnits="userSpaceOnUse"><stop offset=".0182" stop-color="#fdfdfd"/><stop offset=".0683" stop-color="#f6f6f6"/><stop offset=".4656" stop-color="#cacaca"/><stop offset=".7734" stop-color="#afaeae"/><stop offset=".9522" stop-color="#a5a4a4"/></linearGradient><linearGradient id="uuid-546e918c-7b47-4f18-bbe0-8a95b7d9ec2b" x1="-1832.4583461" y1="114.7515534" x2="-1857.5755343" y2="200.5066527" gradientTransform="translate(-1747.9824219 197.3031786) rotate(-180)" gradientUnits="userSpaceOnUse"><stop offset=".1331" stop-color="#ff8000" stop-opacity="0"/><stop offset=".1734" stop-color="#fe7c03" stop-opacity=".0891"/><stop offset=".2574" stop-color="#fc750c" stop-opacity=".3191"/><stop offset=".3768" stop-color="#f9681b" stop-opacity=".6841"/><stop offset=".4739" stop-color="#f75e28"/></linearGradient><linearGradient id="uuid-2d35276d-5e16-450d-b3de-1a33ef2a50b0" x1="-1970.3389706" y1="2033.7949889" x2="-1969.3389706" y2="2033.7949889" gradientTransform="translate(-156306.3812467 164414.741862) rotate(179.5046998) scale(80.1181059)" gradientUnits="userSpaceOnUse"><stop offset="0" stop-color="#c64528"/><stop offset=".0868" stop-color="#c64528"/><stop offset=".4058" stop-color="#e35328"/><stop offset=".6714" stop-color="#f75e28"/><stop offset="1" stop-color="#f75e28"/></linearGradient></defs><g id="uuid-e82ad4d9-ac93-41f7-8e38-e39abc229c85"><path d="M135.7315063,49.5047989c.0478058.0098.0944977.0225983.1390991.0415993l-.1390991-.0415993Z" style="fill:url(#uuid-a06351c6-9b64-43bc-9810-7b2287464950);"/><path d="M67.7189026,43.3115997h0c.1587982.0695-1.2770004-2.5779991-.2068024-6.5045013,1.1306-4.1479988,4.4048004-6.5377007,5.5916977-6.0321999l62.6277084,18.7299004c-1.2223969-.2504997-3.4389954,2.4816017-5.0603943,6.2883987-1.6846924,3.9555016-2.2476044,7.5014992-2.2476044,7.5014992l-66.0388031,101.4078941L3.3203001,130.5493927,67.7189026,43.3115997Z" style="fill:url(#uuid-b6ef8cd3-604e-4b3e-8067-d30377808c04);"/><path d="M96.950798,37.8363991c-1.1868973-.5055008-3.4057999.6221008-5.3775024,4.4426994-1.7944031,3.4771004-2.6167984,8.0746994-1.4299011,8.5802002l-16.3488998,22.4841995,11.5150986,4.3955994,16.2938004-23.5531998c-1.1868973-.5055008-.7834015-4.1218987.9012985-8.0774994,1.6847-3.9555016,4.5740967-5.3932991,5.7610016-4.8878021l-11.3149033-3.3843002.0000076.000103Z" style="fill:url(#uuid-86d8c21a-7fc7-4ce0-82ae-c121cf3bece6);"/><polygon points="128.4235992 63.2947006 67.7189026 43.3115997 51.0466003 65.8967972 114.0568008 85.2525024 128.4235992 63.2947006" style="fill:url(#uuid-546e918c-7b47-4f18-bbe0-8a95b7d9ec2b);"/><rect x="133.782196" y="86.4901962" width="59.6387024" height="6.919899" style="fill:#ff8000;"/><rect x="147.0507965" y="118.3535004" width="32.1278992" height="6.919899" style="fill:#ff8000;"/><rect x="133.782196" y="150.2167969" width="33.7783051" height="6.9199066" style="fill:#ff8000;"/><path d="M134.9700012,57.6199989c-1.1100006,2.6100006-2.5,4.7099991-3.6598969,5.7000999l-30.1800995,112.3598938-22.4701004-35.9900055,49.7600021-76.3999023c.2799988-1.6400986,1.1401062-4.8900986,2.25-7.5,1.690094-3.9500999,4.0099945-6.75,5.2001038-6.2399979,1.190094.5.7799988,4.1198997-.8999939,8.0699005l-.0000153.0000114Z" style="fill:url(#uuid-2d35276d-5e16-450d-b3de-1a33ef2a50b0);"/><path d="M87.3915024,153.6768951l-25.0066986,11.0258026s61.7040024-94.3867035,66.0388107-101.4079971c1.9848938,3.3784027-41.0321045,90.3822098-41.0321045,90.3822098l-.0000076-.0000153Z" style="fill:#c64528;"/><polygon points="101.1331024 175.683197 62.3848 164.7026062 87.3915024 153.6768951 101.1331024 175.683197" style="fill:#ff7300;"/></g><g id="uuid-51af9995-8458-4047-9d3d-020dfa77283a"><ellipse cx="68.3760986" cy="181.5914001" rx="37.0224991" ry="5.350296" style="fill:#090909; isolation:isolate; opacity:.8;"/></g></svg>