<?xml version="1.0" encoding="UTF-8"?><svg xmlns="http://www.w3.org/2000/svg" width="200" height="200" xmlns:xlink="http://www.w3.org/1999/xlink" viewBox="0 0 200 200"><defs><linearGradient id="uuid-b3f304d6-8a6e-4ce1-bcd8-0c184973bacb" x1="-1665.8822" y1="49.5747" x2="-1665.6827" y2="49.4753" gradientTransform="translate(-1529.9824) rotate(-180) scale(1 -1)" gradientUnits="userSpaceOnUse"><stop offset="0" stop-color="#f75e28"/><stop offset=".1925" stop-color="#fa6e14"/><stop offset=".4316" stop-color="#ff8000"/><stop offset=".558" stop-color="#ffa143"/><stop offset=".7185" stop-color="#ffc992"/><stop offset=".8509" stop-color="#ffe6cd"/><stop offset=".9482" stop-color="#fff8f1"/><stop offset="1" stop-color="#fff"/></linearGradient><linearGradient id="uuid-cf700a7f-a410-4c2e-9519-dea008e36cea" x1="103.2726" y1="125.1372" x2="24.3983" y2="43.0761" gradientUnits="userSpaceOnUse"><stop offset="0" stop-color="#f75e28"/><stop offset=".2005" stop-color="#fe7b09"/><stop offset=".5917" stop-color="#fd9022"/><stop offset=".6313" stop-color="#fca13e"/><stop offset=".7088" stop-color="#fbbe70"/><stop offset=".7766" stop-color="#fbd495"/><stop offset=".8314" stop-color="#fbe2ab"/><stop offset=".8663" stop-color="#fbe7b4"/></linearGradient><linearGradient id="uuid-20feb6b0-2fda-4996-a905-ef879265f268" x1="-1608.2294" y1="51.3429" x2="-1702.767" y2="95.2665" gradientTransform="translate(-1529.9824) rotate(-180) scale(1 -1)" gradientUnits="userSpaceOnUse"><stop offset=".0182" stop-color="#fdfdfd"/><stop offset=".0683" stop-color="#f6f6f6"/><stop offset=".4656" stop-color="#cacaca"/><stop offset=".7734" stop-color="#afaeae"/><stop offset=".9522" stop-color="#a5a4a4"/></linearGradient><linearGradient id="uuid-0163bf28-1695-42c5-ae45-ce1e6a9e2386" x1="-1614.4583" y1="82.5516" x2="-1639.5755" y2="-3.2035" gradientTransform="translate(-1529.9824) rotate(-180) scale(1 -1)" gradientUnits="userSpaceOnUse"><stop offset=".1331" stop-color="#ff8000" stop-opacity="0"/><stop offset=".1734" stop-color="#fe7c03" stop-opacity=".0891"/><stop offset=".2574" stop-color="#fc750c" stop-opacity=".3191"/><stop offset=".3768" stop-color="#f9681b" stop-opacity=".6841"/><stop offset=".4739" stop-color="#f75e28"/></linearGradient><linearGradient id="uuid-ac990ccf-cb3e-4de4-88ea-4e0899dc0b26" x1="-1860" y1="-1640" x2="-1859" y2="-1640" gradientTransform="translate(-147739.2955 132789.4731) rotate(179.5047) scale(80.1181 -80.1181)" gradientUnits="userSpaceOnUse"><stop offset="0" stop-color="#c64528"/><stop offset=".0868" stop-color="#c64528"/><stop offset=".4058" stop-color="#e35328"/><stop offset=".6714" stop-color="#f75e28"/><stop offset="1" stop-color="#f75e28"/></linearGradient></defs><g id="uuid-2ca75dd9-207c-423d-bbb8-636d1ace928e"><path d="M135.7315,49.5048c.0478.0098.0945.0226.1391.0416l-.1391-.0416Z" fill="url(#uuid-b3f304d6-8a6e-4ce1-bcd8-0c184973bacb)"/><path d="M67.7189,43.3116h0,0s0,0,0,0c.1588.0695-1.277-2.578-.2068-6.5045,1.1306-4.148,4.4048-6.5377,5.5917-6.0322l62.6277,18.7299c-1.2224-.2505-3.439,2.4816-5.0604,6.2884-1.6847,3.9555-2.2476,7.5015-2.2476,7.5015l-66.0388,101.4079L3.3203,130.5494,67.7189,43.3116Z" fill="url(#uuid-cf700a7f-a410-4c2e-9519-dea008e36cea)"/><path d="M96.9508,37.8364c-1.1869-.5055-3.4058.6221-5.3775,4.4427-1.7944,3.4771-2.6168,8.0747-1.4299,8.5802l-16.3489,22.4842,11.5151,4.3956,16.2938-23.5532c-1.1869-.5055-.7834-4.1219.9013-8.0775,1.6847-3.9555,4.5741-5.3933,5.761-4.8878l-11.3149-3.3843Z" fill="url(#uuid-20feb6b0-2fda-4996-a905-ef879265f268)"/><path d="M41.2667,105.1793l1.7303.9662,3.7785-6.2134-1.3937-.7782,4.2135-6.9285,1.3937.7782,2.0731-3.4089c4.3134-7.0934,9.4106-10.2876,13.1831-8.181,2.283,1.2748,2.4019,4.3613,1.8666,6.9352l-6.1733,4.4345c.2604-1.328.0944-2.3781-.7946-2.8747-.7448-.4157-2.3038-.1816-4.1763,2.8978l-1.6051,2.6392,3.4843,1.9457-4.2135,6.9281-3.4843-1.9453-3.7785,6.2134,2.7874,1.5564c.7931.4428,1.5787-.0022,2.6979-1.3662l1.6121,5.0251c-3.663,4.8048-6.7063,6.0518-9.3259,4.589l-8.8913-4.9646,5.0158-8.2479Z" fill="#fff"/><path d="M62.4971,104.1437c5.5845-9.1829,13.7682-17.1351,18.8627-14.2904,5.0942,2.8446,1.9089,13.5876-3.6752,22.7705-5.5845,9.1825-13.7682,17.1351-18.8623,14.2904-5.0946-2.8446-1.9093-13.5876,3.6748-22.7705ZM73.2145,110.1279c3.6448-5.9935,4.4969-10.3054,2.6949-11.3117-1.8023-1.0063-5.2974,1.8294-8.9421,7.8233-3.6451,5.9935-4.4969,10.3058-2.6946,11.3117,1.802,1.0067,5.297-1.8298,8.9418-7.8233Z" fill="#fff"/><polygon points="128.4236 63.2947 67.7189 43.3116 51.0466 65.8968 114.0568 85.2525 128.4236 63.2947" fill="url(#uuid-0163bf28-1695-42c5-ae45-ce1e6a9e2386)"/><rect x="133.7822" y="86.4902" width="59.6387" height="6.9199" fill="#ff8000"/><rect x="147.0508" y="118.3535" width="32.1279" height="6.9199" fill="#ff8000"/><rect x="133.7822" y="150.2168" width="33.7783" height="6.9199" fill="#ff8000"/><path d="M134.97,57.62c-1.11,2.61-2.5,4.71-3.6599,5.7001l-30.1801,112.3599-22.4701-35.99,49.76-76.3999c.28-1.6401,1.1401-4.8901,2.25-7.5,1.6901-3.9501,4.01-6.75,5.2001-6.24,1.1901.5.78,4.1199-.9,8.0699Z" fill="url(#uuid-ac990ccf-cb3e-4de4-88ea-4e0899dc0b26)"/><path d="M87.3915,153.6769l-25.0067,11.0258s61.704-94.3867,66.0388-101.408c1.9849,3.3784-41.0321,90.3822-41.0321,90.3822Z" fill="#c64528"/><polygon points="101.1331 175.6832 62.3848 164.7026 87.3915 153.6769 101.1331 175.6832" fill="#ff7300"/></g><g id="uuid-0f3f1381-e346-4ddf-af01-3df75c78ac07"><ellipse cx="68.3761" cy="181.5914" rx="37.0225" ry="5.3503" fill="#090909" opacity=".8"/></g></svg>