<svg xmlns="http://www.w3.org/2000/svg" viewBox="0 0 200 200"><defs><linearGradient id="i" x1="217.673" y1="157.842" x2="-39.22" y2="35.177" gradientTransform="matrix(1 -.00049 -.00049 1 -5.618 1.264)" gradientUnits="userSpaceOnUse"><stop offset=".09" stop-color="#fc8d2e"/><stop offset=".207" stop-color="#fc912e"/><stop offset=".306" stop-color="#fc9b2e"/><stop offset=".606" stop-color="#fca22e"/><stop offset=".701" stop-color="#fbb753"/><stop offset=".83" stop-color="#fad181"/><stop offset=".895" stop-color="#fadc93"/></linearGradient><linearGradient id="a" x1="213.154" y1="158.405" x2="-43.843" y2="35.69" gradientTransform="translate(-.624 .14)" gradientUnits="userSpaceOnUse"><stop offset=".09" stop-color="#f8c762"/><stop offset=".306" stop-color="#f8c862"/><stop offset=".606" stop-color="#f8c962"/><stop offset=".895" stop-color="#f8d06e"/></linearGradient><linearGradient id="c" x1="214.286" y1="158.263" x2="-42.686" y2="35.561" gradientTransform="matrix(1 0 -.00033 1 -1.873 .421)" gradientUnits="userSpaceOnUse"><stop offset=".09" stop-color="#f9b855"/><stop offset=".296" stop-color="#f9bc55"/><stop offset=".306" stop-color="#f9bd55"/><stop offset=".606" stop-color="#f9bf55"/><stop offset=".73" stop-color="#f9c865"/><stop offset=".895" stop-color="#f9d377"/></linearGradient><linearGradient id="d" x1="214.851" y1="158.193" x2="-42.107" y2="35.497" gradientTransform="matrix(1 -.00022 -.00022 1 -2.497 .562)" gradientUnits="userSpaceOnUse"><stop offset=".09" stop-color="#fab14f"/><stop offset=".276" stop-color="#fab54f"/><stop offset=".306" stop-color="#fab74f"/><stop offset=".606" stop-color="#fabb4f"/><stop offset=".765" stop-color="#f9ca6a"/><stop offset=".895" stop-color="#f9d47c"/></linearGradient><linearGradient id="e" x1="215.416" y1="158.123" x2="-41.529" y2="35.433" gradientTransform="matrix(1 -.00027 -.00027 1 -3.12 .702)" gradientUnits="userSpaceOnUse"><stop offset=".09" stop-color="#faaa48"/><stop offset=".249" stop-color="#faae48"/><stop offset=".306" stop-color="#fab248"/><stop offset=".606" stop-color="#fab648"/><stop offset=".787" stop-color="#f9cb6e"/><stop offset=".895" stop-color="#f9d680"/></linearGradient><linearGradient id="f" x1="215.98" y1="158.052" x2="-40.951" y2="35.369" gradientTransform="matrix(1 -.00033 -.00033 1 -3.745 .843)" gradientUnits="userSpaceOnUse"><stop offset=".09" stop-color="#fba342"/><stop offset=".239" stop-color="#fba742"/><stop offset=".306" stop-color="#fbac42"/><stop offset=".606" stop-color="#fbb142"/><stop offset=".618" stop-color="#fab245"/><stop offset=".803" stop-color="#f9cc73"/><stop offset=".895" stop-color="#f9d785"/></linearGradient><linearGradient id="g" x1="216.545" y1="157.982" x2="-40.374" y2="35.305" gradientTransform="matrix(1 -.00038 -.00038 1 -4.37 .983)" gradientUnits="userSpaceOnUse"><stop offset=".09" stop-color="#fb9c3b"/><stop offset=".231" stop-color="#fba03b"/><stop offset=".306" stop-color="#fba63b"/><stop offset=".606" stop-color="#fbac3b"/><stop offset=".655" stop-color="#fab44a"/><stop offset=".815" stop-color="#f9ce78"/><stop offset=".895" stop-color="#f9d98a"/></linearGradient><linearGradient id="h" x1="217.109" y1="157.912" x2="-39.796" y2="35.241" gradientTransform="matrix(1 -.00044 -.00043 1 -4.993 1.123)" gradientUnits="userSpaceOnUse"><stop offset=".09" stop-color="#fc9535"/><stop offset=".218" stop-color="#fc9935"/><stop offset=".306" stop-color="#fca135"/><stop offset=".606" stop-color="#fca735"/><stop offset=".68" stop-color="#fbb64f"/><stop offset=".824" stop-color="#fad07d"/><stop offset=".895" stop-color="#fadb8f"/></linearGradient><linearGradient id="b" x1="213.72" y1="158.334" x2="-43.264" y2="35.625" gradientTransform="matrix(1 0 -.00022 1 -1.248 .28)" gradientUnits="userSpaceOnUse"><stop offset=".09" stop-color="#f9c05c"/><stop offset=".306" stop-color="#f9c35c"/><stop offset=".606" stop-color="#f9c45c"/><stop offset=".655" stop-color="#f8c660"/><stop offset=".895" stop-color="#f8d172"/></linearGradient><linearGradient id="j" x1="218.236" y1="157.772" x2="-38.643" y2="35.113" gradientTransform="matrix(1 -.00054 -.00054 1 -6.242 1.404)" gradientUnits="userSpaceOnUse"><stop offset=".09" stop-color="#fc8627"/><stop offset=".203" stop-color="#fc8a27"/><stop offset=".306" stop-color="#fc9527"/><stop offset=".606" stop-color="#fc9d27"/><stop offset=".718" stop-color="#fbb958"/><stop offset=".836" stop-color="#fad386"/><stop offset=".895" stop-color="#fade98"/></linearGradient><linearGradient id="k" x1="218.8" y1="157.702" x2="-38.067" y2="35.049" gradientTransform="matrix(1 -.0006 -.0006 1 -6.866 1.545)" gradientUnits="userSpaceOnUse"><stop offset=".09" stop-color="#fd7f21"/><stop offset=".199" stop-color="#fd8321"/><stop offset=".306" stop-color="#fd8f21"/><stop offset=".606" stop-color="#fd9821"/><stop offset=".731" stop-color="#fbba5c"/><stop offset=".841" stop-color="#fad48b"/><stop offset=".895" stop-color="#fadf9d"/></linearGradient><linearGradient id="l" x1="219.363" y1="157.632" x2="-37.49" y2="34.986" gradientTransform="matrix(1 -.00065 -.00065 1 -7.49 1.685)" gradientUnits="userSpaceOnUse"><stop offset=".09" stop-color="#fd781a"/><stop offset=".192" stop-color="#fd7c1a"/><stop offset=".306" stop-color="#fd8a1a"/><stop offset=".606" stop-color="#fd941a"/><stop offset=".743" stop-color="#fbbc60"/><stop offset=".845" stop-color="#fad68f"/><stop offset=".895" stop-color="#fae1a1"/></linearGradient><linearGradient id="m" x1="219.926" y1="157.562" x2="-36.915" y2="34.922" gradientTransform="matrix(1 -.0007 -.0007 1 -8.114 1.826)" gradientUnits="userSpaceOnUse"><stop offset=".09" stop-color="#fe7114"/><stop offset=".189" stop-color="#fe7514"/><stop offset=".3" stop-color="#fe8214"/><stop offset=".306" stop-color="#fe8414"/><stop offset=".606" stop-color="#fe8f14"/><stop offset=".62" stop-color="#fd931b"/><stop offset=".753" stop-color="#fbbd65"/><stop offset=".848" stop-color="#fad794"/><stop offset=".895" stop-color="#fae2a6"/></linearGradient><linearGradient id="n" x1="220.488" y1="157.492" x2="-36.339" y2="34.858" gradientTransform="matrix(1 -.00076 -.00076 1 -8.738 1.966)" gradientUnits="userSpaceOnUse"><stop offset=".09" stop-color="#fe690d"/><stop offset=".184" stop-color="#fe6d0d"/><stop offset=".288" stop-color="#fe7a0d"/><stop offset=".306" stop-color="#fe7e0d"/><stop offset=".606" stop-color="#fe8a0d"/><stop offset=".638" stop-color="#fd9520"/><stop offset=".762" stop-color="#fcbf6a"/><stop offset=".851" stop-color="#fbd999"/><stop offset=".895" stop-color="#fbe4ab"/></linearGradient><linearGradient id="o" x1="221.05" y1="157.422" x2="-35.764" y2="34.795" gradientTransform="matrix(1 -.00081 -.00081 1 -9.363 2.106)" gradientUnits="userSpaceOnUse"><stop offset=".09" stop-color="#ff6207"/><stop offset=".179" stop-color="#ff6607"/><stop offset=".279" stop-color="#ff7307"/><stop offset=".306" stop-color="#ff7907"/><stop offset=".606" stop-color="#ff8507"/><stop offset=".651" stop-color="#fe9624"/><stop offset=".769" stop-color="#fcc06e"/><stop offset=".853" stop-color="#fbda9d"/><stop offset=".895" stop-color="#fbe5af"/></linearGradient><linearGradient id="p" x1="221.612" y1="157.353" x2="-35.189" y2="34.731" gradientTransform="matrix(1 -.00087 -.00087 1 -9.987 2.247)" gradientUnits="userSpaceOnUse"><stop offset=".09" stop-color="#ff5b00"/><stop offset=".177" stop-color="#ff5f00"/><stop offset=".275" stop-color="#ff6c00"/><stop offset=".306" stop-color="#ff7300"/><stop offset=".606" stop-color="#ff8000"/><stop offset=".665" stop-color="#fe9729"/><stop offset=".776" stop-color="#fcc273"/><stop offset=".856" stop-color="#fbdca2"/><stop offset=".895" stop-color="#fbe7b4"/></linearGradient><radialGradient id="q" cx="151.755" cy="103.373" fx="151.755" fy="103.373" r="65.716" gradientUnits="userSpaceOnUse"><stop offset=".28" stop-color="#fff"/><stop offset=".596" stop-color="#fefefd"/><stop offset=".71" stop-color="#fefcf6"/><stop offset=".791" stop-color="#fef8ea"/><stop offset=".857" stop-color="#fdf2d9"/><stop offset=".913" stop-color="#fcebc3"/><stop offset=".962" stop-color="#fbe2a9"/><stop offset="1" stop-color="#fada8e"/></radialGradient></defs><path d="M173.5 49.143s-1.333-9.11-9.74-7.98l-150.572 33.4s-5.407.562-7.223 5.364c-.418 1.106-.472 2.298-.28 3.442.183 1.102.535 2.938 1.207 5.925l18.341 81.524s1.894 6.836 10.3 5.483l151.003-33.9s6.455-2.385 5.717-8.843L173.5 49.143z" fill="#b9471e"/><path d="M174.416 48.112s-1.333-9.11-9.74-7.98l-150.572 33.4s-5.407.562-7.223 5.364c-.418 1.106-.472 2.298-.28 3.442.183 1.102.535 2.938 1.207 5.924l18.341 81.525s1.894 6.835 10.3 5.483l151.003-33.9s6.455-2.385 5.717-8.843l-18.753-84.415z" fill="#f96422"/><path d="M14.21 73.393s-5.392.553-7.198 5.367a6.137 6.137 0 0 0-.371 1.716 7.2 7.2 0 0 0 .097 1.717c.184 1.103.536 2.938 1.207 5.919l18.342 81.53s1.894 6.835 10.301 5.482l150.939-33.884s6.454-2.385 5.717-8.843L174.49 47.982s-1.333-9.11-9.74-7.98L14.21 73.393z" fill="#f96b26"/><path d="M14.317 73.255s-5.378.543-7.174 5.37a6.23 6.23 0 0 0-.372 1.713c-.038.503-.005 1.054.105 1.71.184 1.104.536 2.938 1.205 5.913l18.344 81.535s1.894 6.836 10.302 5.483l150.874-33.868s6.455-2.385 5.717-8.843l-18.753-84.415s-1.333-9.11-9.74-7.98L14.317 73.255z" fill="#f9712b"/><path d="M14.424 73.117s-5.365.533-7.15 5.371a6.325 6.325 0 0 0-.374 1.71c-.036.468-.004 1.005.113 1.706.185 1.104.537 2.937 1.205 5.907l18.345 81.54s1.894 6.836 10.303 5.483l150.81-33.853s6.455-2.385 5.717-8.843L174.64 47.723s-1.333-9.11-9.74-7.98L14.424 73.117z" fill="#f9782f"/><path d="M14.53 72.98s-5.35.522-7.126 5.372a6.424 6.424 0 0 0-.374 1.708c-.034.431-.004.954.121 1.699.185 1.105.537 2.936 1.204 5.902L26.7 169.205s1.894 6.837 10.304 5.483l150.745-33.837s6.455-2.384 5.717-8.843l-18.752-84.414s-1.334-9.11-9.74-7.98L14.53 72.979z" fill="#f97e34"/><path d="M14.637 72.842s-5.336.512-7.102 5.375a6.526 6.526 0 0 0-.376 1.704c-.032.395-.003.904.13 1.693.185 1.106.537 2.936 1.203 5.896l18.346 81.55s1.895 6.837 10.306 5.483l150.681-33.821s6.455-2.385 5.717-8.843l-18.753-84.415s-1.333-9.11-9.74-7.98L14.637 72.842z" fill="#f98538"/><path d="M14.744 72.704s-5.322.503-7.079 5.377a6.63 6.63 0 0 0-.376 1.701c-.03.36-.003.854.138 1.688.185 1.106.537 2.935 1.201 5.89l18.348 81.554s1.895 6.838 10.307 5.484L187.9 140.592s6.454-2.384 5.717-8.843l-18.753-84.415s-1.333-9.11-9.74-7.98l-150.38 33.35z" fill="#f98c3d"/><path d="M14.85 72.566s-5.308.493-7.054 5.379a6.74 6.74 0 0 0-.377 1.699c-.028.323-.003.803.145 1.68.186 1.108.537 2.936 1.201 5.885l18.35 81.56s1.894 6.837 10.307 5.483l150.552-33.79s6.455-2.384 5.717-8.842l-18.753-84.415s-1.333-9.11-9.74-7.98L14.851 72.565z" fill="#f99241"/><path d="M14.957 72.428s-5.294.483-7.03 5.381c-.19.533-.326 1.1-.379 1.696-.025.287-.002.753.154 1.675.186 1.108.537 2.935 1.2 5.879l18.35 81.564s1.895 6.838 10.31 5.484l150.487-33.774s6.455-2.385 5.717-8.843l-18.753-84.415s-1.333-9.11-9.74-7.98L14.957 72.428z" fill="#f99946"/><path d="M15.064 72.29s-5.28.473-7.007 5.383a6.97 6.97 0 0 0-.38 1.693c-.022.251 0 .703.163 1.67.186 1.108.537 2.933 1.199 5.872l18.35 81.57s1.896 6.838 10.311 5.484l150.423-33.758s6.455-2.385 5.717-8.843l-18.752-84.415s-1.334-9.11-9.74-7.98L15.063 72.29z" fill="#f8a04a"/><path d="M15.17 72.152s-5.265.463-6.982 5.385a7.09 7.09 0 0 0-.38 1.69c-.02.216-.001.653.17 1.664.186 1.109.537 2.933 1.197 5.867l18.353 81.574s1.895 6.839 10.311 5.484l150.36-33.742s6.454-2.385 5.716-8.843l-18.753-84.415s-1.333-9.11-9.74-7.98L15.17 72.152z" fill="#f8a64e"/><path d="M15.277 72.014s-5.252.453-6.958 5.387a7.216 7.216 0 0 0-.382 1.688c-.017.179 0 .602.178 1.657.187 1.11.538 2.933 1.197 5.861l18.353 81.58s1.896 6.839 10.313 5.484l150.295-33.727s6.454-2.384 5.717-8.842l-18.753-84.415s-1.334-9.11-9.74-7.98L15.276 72.014z" fill="#f8ad53"/><path d="M15.384 71.876s-5.238.443-6.934 5.39c-.18.52-.325 1.08-.383 1.684-.014.143 0 .551.186 1.652.187 1.11.538 2.932 1.196 5.855l18.354 81.584s1.896 6.84 10.314 5.484l150.23-33.71s6.455-2.385 5.717-8.843l-18.753-84.415s-1.333-9.11-9.74-7.98l-150.187 33.3z" fill="#f8b457"/><path d="M15.49 71.738s-5.223.434-6.91 5.392a7.482 7.482 0 0 0-.384 1.681c-.01.108.001.501.195 1.646.187 1.111.538 2.932 1.195 5.85l18.355 81.588s1.896 6.84 10.315 5.485l150.166-33.695s6.455-2.384 5.717-8.843l-18.753-84.415s-1.333-9.11-9.74-7.98L15.49 71.739z" fill="#f8ba5c"/><path d="M15.598 71.6s-5.21.424-6.887 5.394a7.622 7.622 0 0 0-.385 1.678c-.007.072.001.451.202 1.64.188 1.112.539 2.931 1.194 5.844L28.08 167.75s1.896 6.84 10.316 5.485l150.101-33.68s6.455-2.384 5.717-8.842L175.46 46.298s-1.333-9.11-9.74-7.98L15.598 71.6z" fill="#f8c160"/><path d="M15.704 71.462s-5.196.414-6.862 5.396a7.768 7.768 0 0 0-.387 1.676c-.003.035.002.4.211 1.633.188 1.113.539 2.931 1.193 5.839l18.358 81.598s1.896 6.841 10.317 5.485l150.037-33.663s6.455-2.384 5.717-8.843l-18.753-84.415s-1.333-9.11-9.74-7.98L15.705 71.463z" fill="#f8c765"/><path d="M175.61 46.039s-1.334-9.11-9.74-7.98L15.81 71.324s-6.291.49-7.226 7.07c0 0 .009 1.229 1.41 7.461l18.36 81.603s1.896 6.842 10.318 5.486l149.973-33.647s6.454-2.385 5.717-8.843L175.61 46.039z" fill="#f8ce69"/><path d="M175.593 46.101s-1.333-9.11-9.743-7.98L15.754 71.397s-6.28.487-7.215 7.067c0 0 .011 1.228 1.413 7.46l18.36 81.605s1.88 6.844 10.304 5.487l150.01-33.656s6.457-2.385 5.72-8.843l-18.753-84.415z" fill="url(#a)"/><path d="M175.576 46.163s-1.333-9.11-9.745-7.979L15.697 71.467s-6.268.484-7.204 7.065c0 0 .014 1.226 1.416 7.459l18.36 81.606s1.863 6.847 10.29 5.49l150.049-33.665s6.458-2.385 5.72-8.844l-18.752-84.415z" fill="url(#b)"/><path d="M175.558 46.226s-1.332-9.11-9.746-7.979L15.64 71.538s-6.256.481-7.193 7.062c0 0 .016 1.226 1.418 7.459l18.36 81.607s1.848 6.85 10.277 5.492l150.087-33.673s6.46-2.386 5.722-8.844l-18.753-84.415z" fill="url(#c)"/><path d="M175.541 46.288s-1.332-9.11-9.748-7.978l-150.21 33.3s-6.245.477-7.182 7.059c0 0 .019 1.225 1.42 7.458l18.36 81.608s1.833 6.852 10.263 5.494l150.126-33.681s6.461-2.387 5.724-8.845l-18.753-84.415z" fill="url(#d)"/><path d="M175.524 46.35s-1.332-9.11-9.75-7.977L15.525 71.68s-6.232.475-7.17 7.056c0 0 .021 1.225 1.423 7.458l18.36 81.609s1.816 6.855 10.25 5.497l150.163-33.69s6.463-2.387 5.726-8.846L175.524 46.35z" fill="url(#e)"/><path d="M175.507 46.413s-1.332-9.11-9.752-7.978L15.468 71.752s-6.22.472-7.16 7.053c0 0 .025 1.225 1.427 7.458l18.36 81.61s1.8 6.858 10.235 5.5l150.202-33.7s6.464-2.387 5.728-8.845l-18.753-84.415z" fill="url(#f)"/><path d="M175.49 46.475s-1.332-9.11-9.754-7.977L15.411 71.824s-6.21.468-7.148 7.05c0 0 .026 1.223 1.429 7.456l18.36 81.612s1.784 6.86 10.22 5.501l150.24-33.707s6.467-2.387 5.73-8.846L175.49 46.475z" fill="url(#g)"/><path d="M175.473 46.537s-1.332-9.11-9.756-7.976L15.354 71.895s-6.198.465-7.138 7.047c0 0 .03 1.223 1.432 7.456l18.361 81.613s1.767 6.864 10.207 5.504l150.278-33.716s6.468-2.388 5.732-8.847l-18.753-84.415z" fill="url(#h)"/><path d="M175.456 46.6s-1.332-9.11-9.758-7.976L15.296 71.966s-6.185.462-7.126 7.045c0 0 .032 1.222 1.435 7.455l18.361 81.614s1.751 6.866 10.193 5.506l150.316-33.725s6.47-2.388 5.733-8.846L175.456 46.6z" fill="url(#i)"/><path d="M175.439 46.662s-1.332-9.11-9.76-7.976L15.24 72.038s-6.174.459-7.115 7.041c0 0 .035 1.222 1.437 7.455l18.362 81.616s1.735 6.868 10.178 5.507l150.355-33.733s6.471-2.388 5.735-8.847L175.44 46.662z" fill="url(#j)"/><path d="M175.422 46.724s-1.331-9.11-9.762-7.975L15.182 72.11s-6.162.456-7.104 7.039c0 0 .037 1.22 1.44 7.454l18.362 81.617s1.719 6.87 10.164 5.51l150.393-33.742s6.473-2.389 5.737-8.848l-18.752-84.415z" fill="url(#k)"/><path d="M175.405 46.787s-1.331-9.11-9.764-7.975L15.125 72.18s-6.15.453-7.093 7.036c0 0 .04 1.22 1.442 7.454l18.362 81.618s1.703 6.874 10.151 5.512l150.43-33.75s6.476-2.39 5.74-8.848l-18.752-84.415z" fill="url(#l)"/><path d="M175.388 46.849s-1.331-9.11-9.766-7.974L15.068 72.252s-6.139.45-7.082 7.032c0 0 .042 1.22 1.445 7.454l18.362 81.619s1.687 6.877 10.137 5.514l150.469-33.759s6.476-2.39 5.74-8.848l-18.751-84.415z" fill="url(#m)"/><path d="M175.37 46.911s-1.33-9.11-9.767-7.974L15.011 72.323s-6.127.446-7.071 7.03c0 0 .045 1.219 1.447 7.453l18.363 81.62s1.67 6.88 10.123 5.517l150.507-33.768s6.478-2.39 5.743-8.849L175.37 46.911z" fill="url(#n)"/><path d="M175.354 46.973s-1.331-9.11-9.77-7.973L14.954 72.394s-6.116.444-7.06 7.027c0 0 .047 1.219 1.45 7.453l18.363 81.621s1.654 6.882 10.108 5.52l150.546-33.777s6.48-2.39 5.745-8.85l-18.752-84.415z" fill="url(#o)"/><path d="M175.336 47.036s-1.33-9.11-9.77-7.973L14.895 72.466s-6.103.44-7.048 7.024c0 0 .05 1.217 1.452 7.451l18.364 81.623s1.638 6.885 10.094 5.521l150.584-33.784s6.481-2.391 5.746-8.85l-18.752-84.415z" fill="url(#p)"/><path d="M177.62 57.233a2.773 2.773 0 0 0-1.842-.448l-7.975.914a1.684 1.684 0 0 0-1.454 2.065l.643 2.693a.102.102 0 0 1-.146.113c-5.64-3.073-11.838-5.884-18.483-8.076a7.047 7.047 0 0 0-4.114-.246l-.003.002a7.047 7.047 0 0 0-3.56 2.078c-22.814 22.912-31.13 53.288-31.345 54.899a2.727 2.727 0 0 0 2.631 3.284l8.063-.357a2.712 2.712 0 0 1 2.464 1.79c.358 1.243 7.815 26.949 11.88 36.75l17.208-3.86a902.872 902.872 0 0 1-3.644-12.154l-.154-.517a1.68 1.68 0 0 0-1.096-1.126 8.558 8.558 0 0 1-5.65-5.748c-2.95-10.564-6.098-22.835-7.817-32.615a1.595 1.595 0 1 1 3.141-.554c1.155 6.517 2.935 14.123 4.864 21.586a1.887 1.887 0 0 0 3.654-.94c-1.941-7.514-3.73-15.17-4.88-21.71a1.595 1.595 0 1 1 3.141-.555c1.149 6.483 2.917 14.043 4.834 21.468l.001.004a1.885 1.885 0 0 0 3.653-.932c-1.931-7.48-3.709-15.094-4.853-21.604a1.595 1.595 0 1 1 3.141-.554c1.684 9.504 4.698 21.324 7.565 31.639a31.675 31.675 0 0 1 .068.255l.026.102a8.551 8.551 0 0 1-1.968 7.722 1.635 1.635 0 0 0-.398 1.37s.19 1.643 2.746 9.218c.528 1.531.984 2.84 1.36 3.91l18.318-4.11c-1.048-7.86-1.87-12.167-1.87-12.167-.112-.469-.555-.735-1.042-.695l-5.487.536c-.875.053-1.498-.346-1.83-.94a2.598 2.598 0 0 1-.262-.804c-5.234-31.444 2.474-44.304 2.474-44.304.228-.378.393-.545.393-.545a1.681 1.681 0 0 1 2.654.135s.136.195.31.712c3.202 9.512 6.724 26.16 9.262 39.197 1.437 7.383 2.58 13.724 3.182 17.129l3.028-.68s6.455-2.384 5.717-8.842L177.62 57.233z" fill="url(#q)"/><path d="m39.973 126.178-1.976-9.763a.903.903 0 0 1 .706-1.064l13.835-2.797a.903.903 0 0 1 1.064.706l1.927 9.49a.903.903 0 0 1-.689 1.062l-13.786 3.069a.903.903 0 0 1-1.081-.703z" fill="#b9471e"/><path d="m38.921 125.531-1.975-9.763a.903.903 0 0 1 .706-1.065l13.835-2.796a.903.903 0 0 1 1.063.705l1.928 9.492a.903.903 0 0 1-.689 1.06l-13.786 3.07a.903.903 0 0 1-1.082-.703z" fill="#fff"/><path d="M75.693 101.943a1.04 1.04 0 0 0-.484 1.483c2.068 3.51 3.31 7.58 3.589 11.766.255 3.823-.293 7.679-1.584 11.15a1.04 1.04 0 0 0 1.948.726c1.393-3.746 1.985-7.9 1.71-12.015-.3-4.508-1.64-8.894-3.873-12.682a1.04 1.04 0 0 0-1.306-.428zM70.985 105.031a1.038 1.038 0 0 0-.468 1.51c1.671 2.647 2.669 5.763 2.886 9.01.188 2.823-.22 5.659-1.183 8.202a1.04 1.04 0 1 0 1.944.736c1.067-2.82 1.521-5.958 1.313-9.076-.24-3.591-1.347-7.043-3.201-9.982a1.04 1.04 0 0 0-1.29-.4zM71.16 115.701c.155 2.309-.193 4.634-1.005 6.724a1.04 1.04 0 1 1-1.938-.754c.703-1.808 1.004-3.824.87-5.831-.166-2.484-.973-4.825-2.334-6.771a1.04 1.04 0 1 1 1.704-1.191c1.578 2.256 2.513 4.962 2.704 7.823zM63.241 109.978a1.04 1.04 0 0 0-.381 1.626c1.078 1.274 1.737 2.959 1.856 4.744a8.49 8.49 0 0 1-.59 3.752 1.04 1.04 0 1 0 1.924.784c.592-1.45.848-3.067.74-4.674-.148-2.226-.98-4.339-2.344-5.949a1.04 1.04 0 0 0-1.205-.283z" fill="#b9471e"/><path d="M75.693 101.943a1.04 1.04 0 0 0-.484 1.483c2.068 3.51 3.31 7.58 3.589 11.766.255 3.823-.293 7.679-1.584 11.15a1.04 1.04 0 0 0 1.948.726c1.393-3.746 1.985-7.9 1.71-12.015-.3-4.508-1.64-8.894-3.873-12.682a1.04 1.04 0 0 0-1.306-.428zM70.985 105.031a1.038 1.038 0 0 0-.468 1.51c1.671 2.647 2.669 5.763 2.886 9.01.188 2.823-.22 5.659-1.183 8.202a1.04 1.04 0 1 0 1.944.736c1.067-2.82 1.521-5.958 1.313-9.076-.24-3.591-1.347-7.043-3.201-9.982a1.04 1.04 0 0 0-1.29-.4zM71.16 115.701c.155 2.309-.193 4.634-1.005 6.724a1.04 1.04 0 1 1-1.938-.754c.703-1.808 1.004-3.824.87-5.831-.166-2.484-.973-4.825-2.334-6.771a1.04 1.04 0 1 1 1.704-1.191c1.578 2.256 2.513 4.962 2.704 7.823zM63.241 109.978a1.04 1.04 0 0 0-.381 1.626c1.078 1.274 1.737 2.959 1.856 4.744a8.49 8.49 0 0 1-.59 3.752 1.04 1.04 0 1 0 1.924.784c.592-1.45.848-3.067.74-4.674-.148-2.226-.98-4.339-2.344-5.949a1.04 1.04 0 0 0-1.205-.283z" fill="#b9471e"/><path d="M73.083 100.695a1.04 1.04 0 0 0-.377 1.513c2.313 3.354 3.842 7.324 4.42 11.48.528 3.796.257 7.68-.783 11.236a1.04 1.04 0 0 0 1.995.583c1.122-3.835 1.415-8.02.847-12.105-.622-4.476-2.271-8.755-4.768-12.374a1.04 1.04 0 0 0-1.334-.333zM73.83 114.146c.43 3.095.201 6.258-.662 9.146a1.04 1.04 0 0 1-1.992-.595c.779-2.605.984-5.463.594-8.265-.448-3.224-1.665-6.26-3.521-8.781a1.04 1.04 0 0 1 1.674-1.233c2.06 2.799 3.411 6.163 3.906 9.728zM69.545 114.742c.319 2.292.138 4.636-.523 6.778a1.039 1.039 0 1 1-1.987-.613c.572-1.854.728-3.886.45-5.879-.342-2.466-1.314-4.743-2.81-6.587a1.04 1.04 0 0 1 1.614-1.31c1.735 2.138 2.861 4.77 3.256 7.61zM61.237 109.599a1.041 1.041 0 0 0-.265 1.649c1.167 1.194 1.945 2.827 2.191 4.6a8.494 8.494 0 0 1-.321 3.783 1.04 1.04 0 1 0 1.976.646c.486-1.49.626-3.12.404-4.716-.307-2.21-1.288-4.257-2.763-5.766a1.04 1.04 0 0 0-1.222-.196z" fill="#fff"/><path d="M177.62 57.233a2.773 2.773 0 0 0-1.842-.448l-7.975.914a1.684 1.684 0 0 0-1.454 2.065l.643 2.693a.102.102 0 0 1-.146.113c-5.64-3.073-11.838-5.884-18.483-8.076a7.047 7.047 0 0 0-4.114-.246l-.003.002a7.047 7.047 0 0 0-3.56 2.078c-22.814 22.912-31.13 53.288-31.345 54.899a2.727 2.727 0 0 0 2.631 3.284l8.063-.357a2.712 2.712 0 0 1 2.464 1.79c.358 1.243 7.815 26.949 11.88 36.75l17.208-3.86a902.872 902.872 0 0 1-3.644-12.154l-.154-.517a1.68 1.68 0 0 0-1.096-1.126 8.558 8.558 0 0 1-5.65-5.748c-2.95-10.564-6.098-22.835-7.817-32.615a1.595 1.595 0 1 1 3.141-.554c1.155 6.517 2.935 14.123 4.864 21.586a1.887 1.887 0 0 0 3.654-.94c-1.941-7.514-3.73-15.17-4.88-21.71a1.595 1.595 0 1 1 3.141-.555c1.149 6.483 2.917 14.043 4.834 21.468l.001.004a1.885 1.885 0 0 0 3.653-.932c-1.931-7.48-3.709-15.094-4.853-21.604a1.595 1.595 0 1 1 3.141-.554c1.684 9.504 4.698 21.324 7.565 31.639a31.675 31.675 0 0 1 .068.255l.026.102a8.551 8.551 0 0 1-1.968 7.722 1.635 1.635 0 0 0-.398 1.37s.19 1.643 2.746 9.218c.528 1.531.984 2.84 1.36 3.91l18.318-4.11c-1.048-7.86-1.87-12.167-1.87-12.167-.112-.469-.555-.735-1.042-.695l-5.487.536c-.875.053-1.498-.346-1.83-.94a2.598 2.598 0 0 1-.262-.804c-5.234-31.444 2.474-44.304 2.474-44.304.228-.378.393-.545.393-.545a1.681 1.681 0 0 1 2.654.135s.136.195.31.712c3.202 9.512 6.724 26.16 9.262 39.197 1.437 7.383 2.58 13.724 3.182 17.129l3.028-.68s6.455-2.384 5.717-8.842L177.62 57.233z" fill="#ffefe1" opacity=".29"/><ellipse cx="57.332" cy="181.591" rx="37.022" ry="5.35" fill="#090909" opacity=".8"/></svg>