<?xml version="1.0" encoding="UTF-8"?><svg xmlns="http://www.w3.org/2000/svg" width="200" height="200" xmlns:xlink="http://www.w3.org/1999/xlink" viewBox="0 0 200 200"><defs><linearGradient id="uuid-b12c9d7e-8eb0-400f-a666-8daa016d5035" x1="64.0422" y1="113.9867" x2="104.2651" y2="143.1429" gradientUnits="userSpaceOnUse"><stop offset="0" stop-color="#ee7b30" stop-opacity="0"/><stop offset=".0253" stop-color="#ea742e" stop-opacity=".1398"/><stop offset=".0714" stop-color="#e4692b" stop-opacity=".3661"/><stop offset=".1189" stop-color="#de5f28" stop-opacity=".5609"/><stop offset=".1672" stop-color="#da5726" stop-opacity=".7199"/><stop offset=".2163" stop-color="#d75125" stop-opacity=".8431"/><stop offset=".2667" stop-color="#d44d23" stop-opacity=".9307"/><stop offset=".3191" stop-color="#d34a23" stop-opacity=".983"/><stop offset=".3769" stop-color="#d34a23"/><stop offset=".6355" stop-color="#c64528"/><stop offset="1" stop-color="#fb5c12" stop-opacity="0"/></linearGradient><linearGradient id="uuid-5ef70e1d-0448-4791-882a-86fdafed27f2" x1="151.3546" y1="55.1049" x2="128.7169" y2="36.8486" gradientUnits="userSpaceOnUse"><stop offset="0" stop-color="#ed8433"/><stop offset=".0306" stop-color="#ef7c2d"/><stop offset=".1339" stop-color="#f56a1e"/><stop offset=".2418" stop-color="#f95f14"/><stop offset=".3608" stop-color="#fb5c12"/><stop offset="1" stop-color="#c64528"/></linearGradient><linearGradient id="uuid-0aae147b-cda1-4750-8ef8-75cef56db067" x1="40.5332" y1="159.605" x2="68.8382" y2="160.8819" xlink:href="#uuid-b12c9d7e-8eb0-400f-a666-8daa016d5035"/><linearGradient id="uuid-69a1bb37-1a2e-4d71-bb81-64b2a94460af" x1="72.4956" y1="97.9294" x2="149.3235" y2="94.7371" gradientUnits="userSpaceOnUse"><stop offset="0" stop-color="#ee7b30" stop-opacity="0"/><stop offset=".0089" stop-color="#ee792e" stop-opacity=".0527"/><stop offset=".0491" stop-color="#f17227" stop-opacity=".272"/><stop offset=".0906" stop-color="#f46c22" stop-opacity=".4665"/><stop offset=".1327" stop-color="#f6671d" stop-opacity=".6306"/><stop offset=".1753" stop-color="#f76319" stop-opacity=".7643"/><stop offset=".2188" stop-color="#f96015" stop-opacity=".868"/><stop offset=".2633" stop-color="#fa5d13" stop-opacity=".9417"/><stop offset=".3097" stop-color="#fa5c12" stop-opacity=".9857"/><stop offset=".3608" stop-color="#fb5c12"/><stop offset=".6262" stop-color="#d34a23"/><stop offset=".705" stop-color="#c64528"/><stop offset=".943" stop-color="#fb5c12" stop-opacity="0"/></linearGradient><linearGradient id="uuid-83136129-db80-417a-a13a-6972249974c3" x1="-1860" y1="-1860" x2="-1859" y2="-1860" gradientTransform="translate(-199368.2059 21482.5439) rotate(-141.1155) scale(76.2791 -76.2791)" gradientUnits="userSpaceOnUse"><stop offset="0" stop-color="#ff7300"/><stop offset=".3988" stop-color="#ff7300"/><stop offset=".4881" stop-color="#fe7a09"/><stop offset=".6344" stop-color="#fc9021"/><stop offset=".8184" stop-color="#fab249"/><stop offset=".9457" stop-color="#f8ce69"/><stop offset=".9951" stop-color="#f8ce69"/><stop offset="1" stop-color="#f8ce69"/></linearGradient></defs><g id="uuid-1f786f29-479c-44a7-9248-240d0a798f2e"><path d="M185.6387,65.1019c.0016-.0274.0026-.055.0042-.0824.0016-.0269.0026-.0538.0042-.0805.0016-.0272.0026-.0544.0042-.0817.0017-.0271.0026-.0544.0042-.0815.0017-.0271.0027-.0543.0043-.0814.0016-.0272.0026-.0544.0042-.0817.0016-.0271.0026-.0542.0042-.0814.0016-.0271.0026-.0544.0042-.0815.0017-.0272.0027-.0544.0042-.0815.0017-.0271.0027-.0543.0043-.0814.0016-.0272.0026-.0544.0042-.0817.0017-.0271.0026-.0544.0042-.0815.0017-.0274.0027-.055.0043-.0823.0016-.0269.0026-.0539.0041-.0807.0017-.0271.0027-.0543.0043-.0814s.0026-.0544.0042-.0815c.0017-.0272.0026-.0544.0042-.0815.0017-.0271.0027-.0544.0043-.0815s.0026-.0544.0042-.0815.0026-.0544.0042-.0815.0026-.0543.0042-.0815c.0017-.0271.0026-.0544.0042-.0815.0017-.0271.0027-.0543.0043-.0814.0016-.0274.0026-.0551.0042-.0826.0017-.0268.0026-.0538.0042-.0806.0016-.0271.0026-.0543.0042-.0814.0017-.0272.0026-.0544.0042-.0817.0017-.0271.0027-.0543.0043-.0815.0016-.0271.0026-.0542.0042-.0814.0017-.0271.0026-.0544.0042-.0815.0017-.0271.0027-.0543.0043-.0814.0016-.0272.0026-.0544.0042-.0817.0016-.0271.0026-.0544.0042-.0815s.0026-.0543.0042-.0814c.0017-.0272.0026-.0544.0042-.0817.0017-.0274.0027-.055.0043-.0824.0016-.0268.0026-.0536.0042-.0805.0016-.0271.0026-.0544.0042-.0815s.0026-.0544.0042-.0815c.0017-.0271.0026-.0544.0042-.0815.0017-.0271.0027-.0544.0043-.0815s.0026-.0543.0042-.0815c.0017-.0271.0026-.0544.0042-.0815.0017-.0271.0027-.0544.0043-.0815s.0026-.0543.0042-.0814c.0016-.0272.0026-.0544.0042-.0817.0017-.0273.0027-.0549.0043-.0823.0016-.0269.0025-.0539.0041-.0807.0017-.0271.0027-.0543.0043-.0815.0016-.0271.0026-.0542.0042-.0814.0016-.0271.0026-.0544.0042-.0815.0016-.0272.0027-.0544.0042-.0815.0017-.0271.0026-.0543.0042-.0814.0017-.0272.0027-.0544.0043-.0817.0016-.0271.0026-.0543.0042-.0814.0017-.0272.0026-.0544.0042-.0817.0017-.0271.0027-.0543.0043-.0815.0016-.0274.0026-.055.0042-.0823.0016-.0269.0026-.0539.0042-.0806.0016-.0272.0026-.0544.0042-.0815.0017-.0271.0026-.0544.0042-.0815.0017-.0271.0027-.0544.0043-.0815s.0026-.0543.0042-.0815c.0016-.0271.0026-.0544.0042-.0815s.0027-.0544.0042-.0815c.0017-.0271.0026-.0543.0042-.0814.0017-.0272.0027-.0544.0043-.0817.0016-.0271.0026-.0544.0042-.0815.0017-.0271.0026-.0543.0042-.0814.0017-.0274.0027-.055.0043-.0826.0016-.0268.0026-.0536.0041-.0805.0017-.0271.0027-.0544.0043-.0815.0016-.0272.0026-.0544.0042-.0815.0017-.0271.0026-.0543.0042-.0814.0017-.0272.0027-.0544.0043-.0817.0016-.0271.0026-.0544.0042-.0815s.0026-.0543.0042-.0814c.0016-.0272.0026-.0544.0042-.0817.0017-.0271.0026-.0543.0042-.0814.0017-.0271.0027-.0544.0043-.0815.0016-.0276.0026-.0551.0042-.0826.0017-.0268.0026-.0536.0042-.0805.0016-.0271.0026-.0544.0042-.0815.0017-.0271.0027-.0544.0042-.0815.0017-.0271.0027-.0543.0043-.0815.0016-.0271.0026-.0544.0042-.0815.0017-.0271.0026-.0543.0042-.0814.0017-.0272.0027-.0544.0043-.0817.0016-.0271.0026-.0544.0042-.0815s.0026-.0543.0042-.0814c.0016-.0272.0026-.0544.0042-.0817.0017-.0273.0027-.055.0043-.0824.0016-.0268.0026-.0536.0042-.0805.0016-.0271.0026-.0544.0042-.0815s.0026-.0543.0042-.0814c.0016-.0272.0026-.0544.0042-.0817.0017-.0271.0027-.0544.0042-.0815.0017-.0271.0027-.0543.0043-.0814.0016-.0272.0026-.0544.0042-.0817.0017-.0271.0026-.0543.0042-.0815.0017-.0271.0027-.0543.0043-.0814s.0026-.0544.0042-.0815c.0016-.0272.0026-.0544.0042-.0815.0017-.0274.0027-.055.0043-.0824.0016-.0269.0025-.0539.0041-.0806.0017-.0271.0027-.0543.0043-.0815.0016-.0271.0026-.0544.0042-.0815s.0026-.0544.0042-.0815.0026-.0543.0042-.0814c.0017-.0272.0026-.0544.0042-.0817.0017-.0271.0027-.0544.0043-.0815s.0026-.0543.0042-.0814c.0017-.0272.0026-.0544.0042-.0817.0017-.0271.0027-.0542.0043-.0814.0016-.0274.0026-.055.0042-.0826.0016-.0268.0026-.0538.0042-.0805.0016-.0271.0026-.0543.0042-.0814.0017-.0272.0026-.0544.0042-.0817.0017-.0271.0027-.0544.0043-.0815s.0026-.0543.0042-.0814c.0016-.0272.0026-.0544.0042-.0817.0016-.0271.0026-.0543.0042-.0814.0017-.0271.0026-.0544.0042-.0815.0017-.0272.0027-.0544.0043-.0815s.0026-.0544.0042-.0815c.0017-.0274.0026-.055.0042-.0824.0017-.0269.0027-.0539.0042-.0806.0017-.0271.0026-.0543.0042-.0815.0017-.0271.0027-.0544.0043-.0815s.0026-.0543.0042-.0814c.0017-.0272.0026-.0544.0042-.0817.0017-.0271.0027-.0544.0043-.0815s.0026-.0543.0042-.0814c.0016-.0272.0026-.0544.0042-.0817.0016-.0271.0027-.0543.0042-.0815.0017-.0271.0026-.0542.0042-.0814.0017-.0271.0027-.0544.0043-.0815.0016-.0274.0026-.055.0042-.0824.0017-.0268.0026-.0539.0042-.0806.0016-.0271.0027-.0544.0042-.0815.0017-.0271.0026-.0543.0042-.0814.0017-.0272.0027-.0544.0043-.0817.0016-.0271.0026-.0543.0042-.0815.0017-.0271.0026-.0543.0042-.0814.0017-.0271.0027-.0544.0043-.0815s.0026-.0544.0042-.0815.0026-.0544.0042-.0815.0027-.0544.0042-.0815c.0017-.0274.0027-.055.0043-.0824.0016-.0268.0026-.0538.0042-.0806.0016-.0271.0026-.0544.0042-.0815s.0026-.0543.0042-.0814c.0016-.0272.0026-.0544.0042-.0817.0017-.0271.0026-.0543.0042-.0814.0017-.0272.0027-.0544.0043-.0817.0016-.0271.0026-.0543.0042-.0815.0017-.0271.0026-.0542.0042-.0814.0017-.0271.0027-.0544.0043-.0815.0016-.0272.0026-.0544.0042-.0815s.0026-.0543.0042-.0814c.0017-.0276.0027-.0551.0043-.0826.0016-.0268.0025-.0538.0041-.0805.0017-.0272.0027-.0544.0043-.0817.0016-.0271.0026-.0543.0042-.0815.0016-.0271.0026-.0543.0042-.0814s.0026-.0544.0042-.0815c.0017-.0272.0027-.0544.0042-.0815.0017-.0271.0027-.0544.0043-.0815s.0026-.0544.0042-.0815c.0017-.0271.0026-.0543.0042-.0815.0017-.0271.0027-.0544.0043-.0815.0016-.0274.0026-.055.0042-.0824.0016-.0269.0026-.0538.0042-.0805.0016-.0272.0026-.0544.0042-.0817.0017-.0271.0026-.0544.0042-.0815.0017-.0271.0027-.0543.0043-.0814.0016-.0272.0026-.0544.0042-.0817.0016-.0271.0026-.0542.0042-.0814.0016-.0271.0026-.0544.0042-.0815.0017-.0272.0027-.0544.0042-.0815.0017-.0271.0027-.0543.0043-.0814.0016-.0272.0026-.0544.0042-.0817.0017-.0274.0026-.055.0042-.0824.0017-.0268.0027-.0538.0042-.0805.0017-.0272.0026-.0544.0042-.0817.0017-.0271.0027-.0543.0043-.0814s.0026-.0544.0042-.0815c.0017-.0272.0026-.0544.0042-.0815.0017-.0271.0027-.0544.0043-.0815s.0026-.0544.0042-.0815.0026-.0544.0042-.0815.0026-.0543.0042-.0815c.0017-.0271.0026-.0544.0042-.0815.0017-.0271.0027-.0543.0043-.0814.0016-.0274.0026-.0551.0042-.0826.0017-.0268.0026-.0538.0042-.0806.0016-.0271.0026-.0543.0042-.0814.0017-.0272.0026-.0544.0042-.0817.0017-.0271.0027-.0543.0043-.0815.0405-.6696.0614-1.3437.0614-2.0218,0-21.496-20.6525-38.922-46.1286-38.922-24.7048,0-44.873,16.3872-46.0713,36.9817-.0017.0271-.0027.0543-.0043.0814-.0016.0272-.0026.0544-.0042.0817-.0017.0271-.0026.0542-.0042.0814-.0017.0271-.0027.0544-.0043.0815-.0016.0272-.0026.0544-.0042.0815s-.0026.0543-.0042.0814c-.0016.0272-.0026.0545-.0042.0817-.0017.0271-.0027.0543-.0042.0815-.0017.0271-.0027.0543-.0043.0814-.0016.0272-.0026.0544-.0042.0817-.0017.0274-.0026.055-.0042.0823-.0017.0269-.0027.0539-.0042.0806-.0017.0272-.0027.0544-.0042.0815-.0017.0271-.0027.0544-.0043.0815s-.0026.0544-.0042.0815c-.0017.0271-.0026.0544-.0042.0815-.0017.0271-.0027.0543-.0043.0815-.0016.0271-.0026.0544-.0042.0815s-.0026.0543-.0042.0814c-.0016.0272-.0026.0544-.0042.0817-.0017.0271-.0027.0544-.0042.0815-.0017.0273-.0027.0549-.0043.0824-.0016.0268-.0026.0538-.0042.0806-.0016.0271-.0026.0543-.0042.0815-.0016.0271-.0026.0542-.0042.0814-.0017.0271-.0026.0544-.0042.0815-.0017.0271-.0027.0543-.0043.0814-.0016.0272-.0026.0544-.0042.0817-.0017.0271-.0026.0544-.0042.0815-.0017.0271-.0027.0543-.0043.0814-.0016.0272-.0026.0544-.0042.0817-.0016.0271-.0026.0543-.0042.0815-.0017.0274-.0027.055-.0043.0823-.0016.0269-.0025.0539-.0041.0806-.0017.0272-.0027.0544-.0043.0815s-.0026.0544-.0042.0815-.0026.0544-.0042.0815-.0026.0543-.0042.0815c-.0017.0271-.0026.0544-.0042.0815-.0017.0271-.0027.0544-.0043.0815s-.0026.0543-.0042.0814c-.0017.0272-.0026.0545-.0042.0817-.0017.0271-.0027.0543-.0043.0815-.0016.0271-.0026.0543-.0042.0814-.0017.0274-.0026.055-.0042.0826-.0016.0268-.0026.0536-.0042.0805-.0017.0271-.0026.0544-.0042.0815-.0017.0272-.0027.0544-.0043.0815s-.0026.0543-.0042.0814c-.0016.0272-.0026.0545-.0042.0817s-.0027.0543-.0042.0815c-.0017.0271-.0026.0543-.0042.0814-.0017.0272-.0027.0544-.0043.0817-.0016.0271-.0026.0543-.0042.0814-.0017.0271-.0026.0544-.0042.0815-.0017.0276-.0027.0551-.0043.0826-.0016.0268-.0026.0536-.0041.0805-.0017.0271-.0027.0544-.0043.0815s-.0026.0544-.0042.0815c-.0017.0271-.0026.0543-.0042.0815-.0017.0271-.0027.0544-.0043.0815s-.0026.0543-.0042.0814c-.0016.0272-.0026.0545-.0042.0817s-.0027.0543-.0042.0815c-.0017.0271-.0026.0543-.0042.0814-.0017.0272-.0027.0544-.0043.0817-.0016.0273-.0026.055-.0042.0824-.0017.0268-.0026.0536-.0042.0805-.0016.0271-.0026.0544-.0042.0815-.0017.0271-.0026.0543-.0042.0814-.0017.0272-.0027.0545-.0043.0817s-.0026.0543-.0042.0815c-.0017.0271-.0026.0543-.0042.0814-.0017.0272-.0027.0544-.0043.0817-.0016.0271-.0026.0543-.0042.0815-.0016.0271-.0026.0543-.0042.0814s-.0026.0544-.0042.0815c-.0017.0271-.0026.0544-.0042.0815-.0017.0274-.0027.055-.0043.0824-.0016.0269-.0026.0538-.0042.0806-.0016.0271-.0026.0543-.0042.0815-.0016.0271-.0026.0544-.0042.0815-.0017.0271-.0027.0544-.0042.0815-.0017.0271-.0027.0543-.0043.0814-.0016.0272-.0026.0545-.0042.0817-.0017.0271-.0026.0543-.0042.0814-.0017.0272-.0027.0544-.0043.0817-.0016.0271-.0026.0543-.0042.0815-.0016.0271-.0026.0542-.0042.0814-.0017.0274-.0027.055-.0043.0826-.0016.0268-.0025.0538-.0041.0805-.0017.0271-.0027.0543-.0043.0814-.0016.0272-.0026.0545-.0042.0817s-.0026.0543-.0042.0814c-.0016.0272-.0026.0544-.0042.0817-.0017.0271-.0027.0543-.0042.0815-.0017.0271-.0027.0543-.0043.0814s-.0026.0544-.0042.0815c-.0017.0272-.0026.0544-.0042.0815-.0017.0271-.0027.0544-.0043.0815-.0016.0274-.0026.055-.0042.0824-.0016.0269-.0026.0538-.0042.0806-.0016.0271-.0026.0544-.0042.0815-.0017.0271-.0026.0544-.0042.0815-.0017.0271-.0027.0543-.0043.0814-.0016.0272-.0026.0545-.0042.0817s-.0026.0543-.0042.0815c-.0016.0271-.0026.0543-.0042.0814-.0017.0272-.0026.0544-.0042.0817-.0017.0271-.0027.0542-.0043.0814-.0016.0271-.0026.0544-.0042.0815-.0017.0272-.0026.0544-.0042.0815-.0017.0274-.0027.055-.0043.0824-.0016.0269-.0026.0539-.0041.0806-.0017.0271-.0027.0543-.0043.0815-.0016.0271-.0026.0543-.0042.0814-.0017.0272-.0026.0544-.0042.0817-.0017.0271-.0027.0543-.0043.0814s-.0026.0544-.0042.0815c-.0016.0272-.0026.0544-.0042.0815s-.0026.0544-.0042.0815c-.0017.0271-.0026.0544-.0042.0815-.0017.0271-.0027.0544-.0043.0815-.0016.0274-.0026.055-.0042.0824-.0017.0269-.0026.0538-.0042.0806-.0016.0271-.0026.0543-.0042.0814-.0017.0272-.0026.0544-.0042.0817-.0017.0271-.0027.0544-.0043.0815s-.0026.0543-.0042.0814c-.0017.0272-.0026.0544-.0042.0817-.0017.0271-.0027.0543-.0043.0815-.0016.0271-.0026.0542-.0042.0814-.0016.0271-.0026.0544-.0042.0815s-.0026.0543-.0042.0814c-.0017.0272-.0026.0544-.0042.0817-.0017.0274-.0027.055-.0043.0824-.0016.0268-.0026.0538-.0042.0805-.0016.0272-.0026.0544-.0042.0817-.0016.0271-.0027.0543-.0042.0815-.0017.0271-.0026.0543-.0042.0814-.0017.0271-.0027.0544-.0043.0815s-.0026.0544-.0042.0815c-.0017.0271-.0026.0544-.0042.0815-.0017.0271-.0027.0544-.0043.0815s-.0026.0543-.0042.0815c-.0016.0271-.0026.0544-.0042.0815-.0017.0274-.0027.055-.0043.0824-.0016.0269-.0025.0538-.0041.0805-.0017.0272-.0027.0545-.0043.0817s-.0026.0543-.0042.0814c-.0016.0272-.0026.0544-.0042.0817-.0016.0271-.0027.0543-.0042.0815-.0017.0271-.0026.0542-.0042.0814-.0017.0271-.0027.0544-.0043.0815-.0016.0272-.0026.0544-.0042.0815-.0017.0271-.0026.0543-.0042.0814-.0017.0272-.0027.0545-.0043.0817-.0016.0274-.0026.055-.0042.0824-.0016.0268-.0026.0538-.0042.0806-.0016.0271-.0026.0543-.0042.0815-.0017.0271-.0026.0543-.0042.0814-.0017.0271-.0027.0544-.0043.0815-.0016.0272-.0026.0544-.0042.0815s-.0026.0544-.0042.0815-.0026.0544-.0042.0815c-.0017.0271-.0026.0543-.0042.0815-.0017.0271-.0027.0544-.0043.0815s-.0026.0544-.0042.0815c-.0017.0271-.0026.0543-.0042.0814-.0017.0274-.0027.0551-.0043.0826-.0016.0269-.0026.0538-.0041.0806-.0017.0271-.0027.0543-.0043.0814-.0016.0272-.0026.0544-.0042.0817-.0017.0271-.0026.0543-.0042.0815-.0017.0271-.0027.0542-.0043.0814-.0016.0271-.0026.0544-.0042.0815s-.0026.0543-.0042.0814c-.0016.0272-.0026.0545-.0042.0817-.0017.0271-.0027.0543-.0042.0815-.0017.0271-.0027.0543-.0043.0814-.0016.0276-.0026.0551-.0042.0826-.0017.0268-.0026.0538-.0042.0806-.0016.0271-.0026.0543-.0042.0814-.0017.0271-.0026.0544-.0042.0815-.0017.0271-.0027.0544-.0043.0815s-.0026.0544-.0042.0815c-.0017.0271-.0026.0544-.0042.0815-.0017.0271-.0027.0543-.0043.0815-.0016.0271-.0026.0544-.0042.0815s-.0026.0544-.0042.0815-.0026.0543-.0042.0814c-.0017.0274-.0027.0551-.0043.0826-.0016.0268-.0026.0538-.0042.0805-.0016.0272-.0026.0544-.0042.0817-.0016.0271-.0026.0543-.0042.0815-.0016.0271-.0026.0542-.0042.0814-.0017.0271-.0026.0544-.0042.0815-.0017.0272-.0027.0544-.0043.0815s-.0026.0543-.0042.0814c-.0017.0272-.0026.0545-.0042.0817-.0407.6696-.0615,1.3437-.0615,2.0218,0,4.7018.9891,9.2084,2.7999,13.3809l-65.3702,59.3768c-.2762.2509-.4031.5966-.3864.9355-.0006.0272-.0056.0543-.0042.0815-.0006.0272-.0056.0542-.0043.0815-.0005.0272-.0055.0542-.0042.0815-.0005.0272-.0056.0542-.0042.0815-.0005.0272-.0056.0542-.0042.0814-.0006.0273-.0056.0543-.0042.0815-.0006.0272-.0057.0543-.0043.0815-.0005.0272-.0056.0543-.0042.0815-.0006.0273-.0056.0544-.0042.0817-.0005.0272-.0056.0542-.0042.0814-.0006.0272-.0056.0543-.0042.0815-.0006.0272-.0057.0543-.0043.0815-.0005.0272-.0056.0543-.0042.0814-.0006.0273-.0056.0544-.0042.0815-.0006.0273-.0056.0544-.0043.0815-.0005.0273-.0055.0543-.0042.0815-.0005.0273-.0056.0543-.0042.0815-.0005.0273-.0056.0543-.0042.0815-.0006.0273-.0056.0543-.0042.0815-.0006.0273-.0057.0544-.0043.0817-.0005.0272-.0055.0542-.0042.0814-.0005.0272-.0056.0543-.0042.0815-.0005.0272-.0056.0543-.0042.0815-.0006.0272-.0056.0542-.0042.0815-.0006.0272-.0057.0542-.0043.0815-.0005.0272-.0056.0542-.0042.0814-.0006.0273-.0056.0543-.0042.0815-.0006.0272-.0056.0543-.0043.0815-.0005.0272-.0055.0543-.0042.0815-.0005.0272-.0056.0543-.0042.0815-.0005.0273-.0056.0544-.0042.0817-.0006.0272-.0056.0542-.0042.0814-.0006.0272-.0056.0543-.0043.0815-.0005.0272-.0055.0543-.0042.0815-.0006.0272-.0056.0543-.0042.0814-.0005.0273-.0056.0544-.0042.0815-.0006.0273-.0056.0543-.0042.0815-.0006.0273-.0057.0543-.0043.0815-.0005.0273-.0056.0543-.0042.0815-.0006.0273-.0056.0543-.0042.0815-.0006.0273-.0056.0543-.0043.0815-.0005.0272-.0055.0543-.0042.0815-.0005.0273-.0056.0544-.0042.0817-.0005.0272-.0056.0542-.0042.0814-.0006.0272-.0056.0542-.0042.0815-.0006.0272-.0056.0542-.0043.0815-.0005.0272-.0055.0542-.0042.0815-.0005.0272-.0056.0542-.0042.0814-.0005.0273-.0056.0543-.0042.0815-.0006.0272-.0056.0543-.0042.0815-.0006.0272-.0057.0543-.0043.0815-.0005.0272-.0056.0543-.0042.0815-.0006.0272-.0056.0543-.0042.0815-.0006.0272-.0056.0544-.0042.0817-.0006.0272-.0056.0542-.0042.0814-.0006.0272-.0057.0543-.0043.0814-.0005.0273-.0056.0544-.0042.0815-.0006.0273-.0056.0544-.0042.0815-.0006.0273-.0056.0543-.0043.0815-.0005.0273-.0055.0543-.0042.0815-.0005.0273-.0056.0543-.0042.0815-.0005.0273-.0056.0543-.0042.0815-.0006.0272-.0056.0543-.0042.0815-.0006.0272-.0057.0543-.0043.0815-.0005.0273-.0056.0544-.0042.0817-.0005.0272-.0056.0542-.0042.0814-.0006.0272-.0056.0542-.0042.0815-.0006.0272-.0056.0542-.0042.0815-.0006.0272-.0057.0542-.0043.0814-.0005.0273-.0056.0543-.0042.0815-.0006.0272-.0056.0543-.0042.0815-.0006.0272-.0056.0543-.0043.0815-.0005.0272-.0055.0543-.0042.0815-.0005.0272-.0056.0543-.0042.0815-.0005.0272-.0056.0543-.0042.0815-.0006.0272-.0056.0543-.0042.0815-.0006.0272-.0057.0543-.0043.0817-.0005.0272-.0055.0542-.0042.0813-.0005.0273-.0056.0544-.0042.0815-.0006.0273-.0056.0543-.0042.0815-.0006.0273-.0056.0543-.0042.0815-.0006.0273-.0057.0543-.0043.0815-.0005.0273-.0056.0543-.0042.0815-.0006.0273-.0056.0543-.0042.0815-.0006.0272-.0056.0543-.0043.0815-.0005.0272-.0055.0543-.0042.0815-.0005.0272-.0056.0543-.0042.0815-.0005.0273-.0056.0544-.0042.0817-.0006.0272-.0056.0542-.0042.0814-.0006.0272-.0056.0542-.0043.0815-.0005.0272-.0055.0542-.0042.0814-.0005.0273-.0056.0543-.0042.0815-.0005.0272-.0056.0543-.0042.0815-.0006.0272-.0056.0543-.0042.0815-.0006.0272-.0057.0543-.0043.0815-.0005.0272-.0056.0543-.0042.0815-.0006.0272-.0056.0543-.0042.0815-.0006.0272-.0056.0543-.0043.0815-.0005.0272-.0055.0543-.0042.0814-.0005.0273-.0056.0544-.0042.0818-.0005.0271-.0056.0542-.0042.0813-.0006.0273-.0056.0543-.0042.0815-.0006.0273-.0056.0543-.0043.0815-.0005.0273-.0055.0543-.0042.0815-.0005.0273-.0056.0543-.0042.0815-.0005.0272-.0056.0543-.0042.0815-.0006.0272-.0056.0543-.0042.0815-.0006.0272-.0057.0543-.0043.0815-.0005.0272-.0056.0542-.0042.0815-.0006.0272-.0056.0542-.0042.0815-.0006.0272-.0056.0544-.0042.0817-.0006.0272-.0056.0541-.0042.0813-.0006.0273-.0057.0543-.0043.0815-.0005.0272-.0056.0543-.0042.0815-.0006.0272-.0056.0543-.0042.0815-.0006.0272-.0056.0543-.0043.0815-.0005.0272-.0055.0543-.0042.0815-.0005.0272-.0056.0543-.0042.0815-.0005.0272-.0056.0543-.0042.0815-.0006.0272-.0056.0543-.0042.0814-.0006.0273-.0057.0544-.0043.0815-.0005.0273-.0056.0544-.0042.0818-.0005.0271-.0056.0542-.0042.0813-.0005.0273-.0056.0543-.0042.0815-.0006.0273-.0056.0543-.0042.0815-.0006.0273-.0057.0543-.0043.0815-.0005.0272-.0056.0543-.0042.0815-.0006.0272-.0056.0543-.0042.0815-.0006.0272-.0056.0543-.0043.0815-.0005.0272-.0055.0543-.0042.0815-.0005.0272-.0056.0542-.0042.0815-.0005.0272-.0056.0542-.0042.0815-.0006.0272-.0056.0542-.0042.0814-.0006.0273-.0057.0544-.0043.0817-.0005.0273-.0055.0542-.0042.0814-.0006.0272-.0056.0543-.0042.0815-.0005.0272-.0056.0543-.0042.0815-.0006.0272-.0056.0543-.0042.0815-.0006.0272-.0057.0543-.0043.0815-.0005.0272-.0056.0543-.0042.0815-.0006.0272-.0056.0543-.0042.0814-.0006.0273-.0056.0544-.0043.0815-.0005.0273-.0055.0544-.0042.0815-.0005.0273-.0056.0543-.0042.0815-.0005.0273-.0056.0544-.0042.0818-.0006.0271-.0056.0542-.0042.0813-.0006.0273-.0056.0543-.0043.0815-.0005.0273-.0055.0543-.0042.0815-.0005.0272-.0056.0543-.0042.0815-.0005.0272-.0056.0543-.0042.0815-.0006.0272-.0056.0543-.0042.0815-.0006.0272-.0057.0542-.0043.0815-.0005.0272-.0056.0542-.0042.0815-.0006.0272-.0056.0542-.0042.0815-.0006.0272-.0056.0542-.0043.0814-.0005.0273-.0055.0544-.0041.0817-.0006.0272-.0057.0542-.0043.0814-.0005.0272-.0056.0543-.0042.0815-.0006.0272-.0056.0543-.0042.0815-.0006.0272-.0056.0543-.0043.0815-.0005.0272-.0055.0543-.0042.0815-.0005.0272-.0056.0543-.0042.0815-.0005.0272-.0056.0543-.0042.0814-.0006.0273-.0056.0544-.0042.0815-.0006.0273-.0057.0543-.0043.0815-.0005.0273-.0056.0543-.0042.0815-.0006.0273-.0056.0543-.0042.0815-.0006.0273-.0056.0544-.0042.0817-.0006.0272-.0056.0542-.0042.0814-.0006.0272-.0057.0543-.0043.0815-.0005.0272-.0056.0543-.0042.0815-.0006.0272-.0056.0543-.0042.0815-.0006.0272-.0056.0543-.0043.0815-.0005.0272-.0055.0542-.0042.0815-.0005.0272-.0056.0542-.0042.0815-.0005.0272-.0056.0542-.0042.0814-.0006.0273-.0056.0543-.0042.0815-.0006.0272-.0057.0543-.0043.0815-.0005.0273-.0056.0544-.0042.0817-.0005.0272-.0056.0542-.0042.0814-.0005.0272-.0056.0543-.0042.0815-.0006.0272-.0056.0543-.0042.0815-.0006.0272-.0057.0543-.0043.0815-.0005.0272-.0056.0543-.0042.0814-.0006.0273-.0056.0544-.0042.0815-.0006.0273-.0056.0544-.0043.0815-.0005.0273-.0055.0543-.0042.0815-.0005.0273-.0056.0543-.0042.0815-.0005.0273-.0056.0543-.0042.0815-.0006.0273-.0056.0544-.0042.0817-.0006.0272-.0056.0542-.0043.0814-.0005.0272-.0055.0543-.0042.0815-.0005.0272-.0056.0543-.0042.0815-.0005.0272-.0056.0543-.0042.0815-.0006.0272-.0056.0542-.0042.0815-.0006.0272-.0057.0542-.0043.0815-.0005.0272-.0056.0542-.0042.0815-.0006.0272-.0056.0542-.0042.0814-.0006.0273-.0056.0543-.0043.0815-.0005.0272-.0055.0543-.0042.0815-.0069.3648.1472.7305.4682.9711l20.087,15.0591c.4586.3437,1.0975.31,1.5173-.0802l6.7982-6.3186c.4315-.401,1.0921-.4241,1.5506-.0542l15.4371,12.4549c.4652.3754,1.1371.3454,1.5671-.0699l17.0237-16.4433c.2552-.2466.3738-.5768.3602-.9018.0007-.0272.0054-.0542.0042-.0815.0007-.0273.0054-.0543.0042-.0817.0007-.0272.0054-.0542.0042-.0814.0007-.0272.0054-.0542.0042-.0814.0008-.0272.0055-.0543.0043-.0815.0007-.0272.0054-.0543.0042-.0815.0007-.0272.0054-.0543.0042-.0815.0007-.0272.0054-.0543.0042-.0815.0008-.0272.0054-.0543.0042-.0815.0008-.0272.0055-.0543.0043-.0815.0007-.0272.0054-.0543.0042-.0815.0007-.0272.0054-.0543.0042-.0815.0007-.0272.0055-.0543.0043-.0815.0007-.0272.0054-.0543.0042-.0817.0007-.0271.0054-.0542.0042-.0813.0007-.0273.0054-.0543.0042-.0815.0007-.0273.0054-.0543.0042-.0815.0008-.0272.0055-.0543.0043-.0815.0007-.0272.0054-.0543.0042-.0815.0007-.0272.0054-.0543.0042-.0815.0007-.0272.0054-.0542.0042-.0815.0008-.0272.0054-.0542.0042-.0815.0008-.0272.0055-.0542.0043-.0815.0007-.0272.0054-.0543.0042-.0815.0007-.0272.0054-.0543.0042-.0815.0007-.0273.0054-.0542.0042-.0814.0008-.0272.0054-.0543.0042-.0815.0008-.0272.0055-.0543.0043-.0815.0007-.0272.0054-.0543.0042-.0815.0007-.0272.0054-.0543.0042-.0815.0008-.0272.0055-.0543.0043-.0815.0007-.0272.0054-.0543.0042-.0815.0007-.0272.0054-.0542.0042-.0814.0007-.0273.0054-.0544.0042-.0815.0008-.0273.0054-.0544.0042-.0817.0008-.0272.0055-.0542.0043-.0814.0007-.0273.0054-.0544.0042-.0817.0007-.0272.0054-.0542.0042-.0814.0007-.0272.0054-.0543.0042-.0815.0008-.0272.0054-.0543.0042-.0815.0008-.0272.0055-.0542.0043-.0815.0007-.0272.0054-.0543.0042-.0815.0008-.0272.0054-.0542.0042-.0815.0007-.0272.0055-.0542.0043-.0815.0007-.0272.0054-.0542.0042-.0815.0007-.0272.0054-.0542.0042-.0815.0007-.0272.0054-.0542.0042-.0815.0008-.0272.0054-.0543.0042-.0815.0008-.0272.0055-.0542.0043-.0814.0007-.0272.0054-.0543.0042-.0815.0007-.0272.0054-.0543.0042-.0815.0007-.0272.0054-.0543.0042-.0815.0008-.0272.0054-.0543.0042-.0815.0008-.0272.0055-.0542.0043-.0814.0007-.0273.0054-.0544.0042-.0815.0007-.0273.0054-.0543.0042-.0815.0007-.0273.0055-.0543.0043-.0815.0007-.0273.0054-.0543.0042-.0815.0007-.0273.0054-.0544.0042-.0817.0007-.0272.0054-.0542.0042-.0814.0007-.0272.0054-.0543.0042-.0815.0007-.0272.0055-.0542.0043-.0815.0007-.0272.0054-.0543.0042-.0815.0007-.0272.0054-.0542.0042-.0815.0007-.0272.0054-.0542.0042-.0815.0008-.0272.0054-.0542.0042-.0815.0008-.0272.0055-.0542.0043-.0815.0007-.0272.0054-.0542.0042-.0814.0007-.0273.0054-.0543.0042-.0817.0007-.0272.0055-.0542.0043-.0814.0007-.0273.0054-.0544.0042-.0817.0007-.0272.0054-.0542.0042-.0814.0007-.0272.0054-.0543.0042-.0815.0008-.0272.0054-.0543.0042-.0815.0008-.0272.0055-.0543.0043-.0815.0007-.0272.0054-.0543.0042-.0814.0007-.0273.0054-.0544.0042-.0815.0007-.0273.0054-.0543.0042-.0815.0008-.0273.0054-.0543.0042-.0815.0008-.0273.0055-.0543.0043-.0815.0007-.0273.0054-.0543.0042-.0815.0007-.0273.0054-.0544.0042-.0817.0007-.0272.0054-.0542.0042-.0814.0008-.0272.0054-.0543.0042-.0815.0008-.0272.0055-.0543.0043-.0815.0007-.0272.0054-.0542.0042-.0815.0008-.0272.0054-.0542.0042-.0815.0008-.0272.0055-.0542.0043-.0815.0007-.0272.0054-.0542.0042-.0814.0007-.0272.0054-.0543.0042-.0815.0007-.0272.0054-.0543.0042-.0815.0008-.0273.0054-.0543.0042-.0815.0008-.0273.0055-.0543.0043-.0817.0007-.0272.0054-.0542.0042-.0814.0007-.0272.0054-.0543.0042-.0815.0007-.0272.0054-.0543.0042-.0815.0008-.0272.0054-.0542.0042-.0814.0008-.0273.0055-.0544.0043-.0815.0007-.0273.0054-.0543.0042-.0815.0007-.0273.0054-.0543.0042-.0815.0007-.0273.0055-.0543.0043-.0815.0007-.0273.0054-.0543.0042-.0815.0007-.0273.0054-.0543.0042-.0815.0007-.0273.0054-.0543.0042-.0815.0008-.0273.0054-.0544.0042-.0817.0008-.0272.0055-.0542.0043-.0814.0007-.0272.0054-.0542.0042-.0815.0007-.0272.0054-.0542.0042-.0815.0007-.0272.0054-.0542.0042-.0815.0008-.0272.0054-.0542.0042-.0815.0008-.0272.0055-.0542.0043-.0814.0007-.0272.0054-.0543.0042-.0815.0007-.0272.0054-.0543.0042-.0815.0007-.0272.0055-.0543.0043-.0815.0007-.0273.0054-.0543.0042-.0815.0007-.0273.0054-.0543.0042-.0817.0007-.0272.0054-.0542.0042-.0814.0007-.0272.0054-.0543.0042-.0815.0007-.0272.0055-.0543.0043-.0814.0007-.0273.0054-.0543.0042-.0815.0007-.0273.0054-.0543.0042-.0815.0007-.0273.0054-.0543.0042-.0815.0008-.0273.0054-.0543.0042-.0815.0008-.0273.0055-.0543.0043-.0815.0007-.0272.0054-.0543.0042-.0815.0007-.0273.0054-.0543.0042-.0815.0007-.0273.0055-.0544.0043-.0817.0007-.0272.0052-.0542.0041-.0814.0008-.0272.0055-.0542.0043-.0815.0007-.0272.0054-.0542.0042-.0815.0008-.0272.0054-.0542.0042-.0815.0007-.0272.0055-.0542.0043-.0814.0007-.0272.0054-.0543.0042-.0815.0007-.0272.0054-.0543.0042-.0815.0007-.0272.0054-.0543.0042-.0815.0008-.0272.0054-.0543.0042-.0815.0008-.0272.0055-.0543.0043-.0815.0007-.0272.0054-.0543.0042-.0815.0007-.0273.0054-.0543.0042-.0817.0007-.0271.0054-.0542.0042-.0813.0008-.0273.0054-.0544.0042-.0815.0008-.0273.0055-.0543.0043-.0815.0007-.0273.0054-.0543.0042-.0815.0008-.0273.0054-.0543.0042-.0815.0007-.0273.0055-.0543.0043-.0815.0007-.0272.0054-.0543.0042-.0815.0007-.0272.0054-.0543.0042-.0815.0007-.0273.0054-.0543.0042-.0815.0008-.0273.0054-.0543.0042-.0815.0008-.0273.0055-.0544.0043-.0817.0007-.0272.0054-.0542.0042-.0814.0007-.0272.0054-.0542.0042-.0815.0007-.0272.0054-.0542.0042-.0814.0008-.0272.0054-.0543.0042-.0815.0005-.0177.0038-.0351.0034-.0526l6.8153,5.3765c.4519.3564,1.0945.3367,1.5235-.0469l17.5014-15.6463c.2754-.2461.4048-.5871.3935-.9236.0009-.0273.0051-.0543.0042-.0817.0009-.0272.0051-.0542.0042-.0814.0009-.0272.0051-.0542.0042-.0815.0009-.0272.0052-.0542.0043-.0814.0009-.0273.0051-.0543.0042-.0815.0009-.0273.0051-.0543.0042-.0815.0009-.0273.0051-.0543.0042-.0815.001-.0273.0052-.0543.0042-.0815.001-.0273.0052-.0543.0043-.0815.0009-.0273.0051-.0543.0042-.0815.0009-.0273.0051-.0543.0042-.0815.0009-.0273.0052-.0543.0043-.0817.0009-.0272.005-.0542.0041-.0814.001-.0273.0052-.0542.0043-.0815.0009-.0272.0051-.0542.0042-.0815.0009-.0272.0051-.0542.0042-.0815.0009-.0272.0052-.0542.0043-.0814.0009-.0273.0051-.0543.0042-.0817.0009-.0272.0051-.0542.0042-.0815.0009-.0272.0052-.0542.0042-.0814.001-.0273.0052-.0543.0042-.0815.001-.0273.0052-.0543.0043-.0815.0009-.0273.0051-.0543.0042-.0817.0009-.0272.0051-.0542.0042-.0814.0009-.0272.0051-.0542.0042-.0814.001-.0273.0051-.0543.0042-.0815.001-.0273.0052-.0543.0043-.0815.0009-.0273.0051-.0542.0042-.0815.0009-.0273.0051-.0543.0042-.0815.0009-.0273.0052-.0543.0043-.0815.0009-.0273.0051-.0543.0042-.0815.0009-.0273.0051-.0543.0042-.0815.0009-.0273.0052-.0542.0042-.0815.001-.0273.0052-.0542.0042-.0815.001-.0273.0052-.0543.0043-.0817.0009-.0272.0051-.0541.0042-.0814.0009-.0272.0051-.0542.0042-.0815.0009-.0272.0051-.0542.0042-.0815.001-.0272.0051-.0542.0042-.0814.001-.0273.0052-.0543.0043-.0815.0009-.0273.0051-.0543.0042-.0815.0009-.0273.0051-.0543.0042-.0815.0009-.0273.0052-.0543.0043-.0815.0009-.0273.0051-.0543.0042-.0815.0009-.0273.0051-.0543.0042-.0815.0009-.0273.0052-.0543.0042-.0817.001-.0272.0051-.0541.0042-.0813.0009-.0273.0052-.0543.0043-.0815.0009-.0273.0051-.0542.0042-.0815.0009-.0273.0051-.0543.0042-.0815.0009-.0273.0051-.0543.0042-.0815.001-.0273.0051-.0543.0042-.0815.001-.0273.0052-.0543.0043-.0815.0009-.0273.0051-.0543.0042-.0815.0009-.0273.0051-.0542.0042-.0815.0009-.0273.0052-.0542.0043-.0815.0009-.0273.0051-.0543.0042-.0817.0009-.0272.0051-.0541.0042-.0814.0009-.0272.0051-.0542.0042-.0815.0009-.0272.0051-.0542.0042-.0814.0009-.0273.0052-.0543.0043-.0815.0009-.0273.0051-.0543.0042-.0815.0009-.0273.0051-.0542.0042-.0815.0009-.0273.0052-.0543.0042-.0815.001-.0273.0052-.0543.0042-.0815.001-.0273.0052-.0543.0043-.0815.0009-.0272.0051-.0543.0042-.0815.0009-.0272.0051-.0542.0042-.0815.0009-.0273.0052-.0543.0043-.0817.0009-.0272.005-.0542.0041-.0813.001-.0273.0052-.0542.0043-.0815.0009-.0273.0051-.0543.0042-.0815.0009-.0273.0051-.0542.0042-.0815.0009-.0273.0052-.0542.0043-.0815.0009-.0273.0051-.0543.0042-.0815.0009-.0273.0051-.0542.0042-.0815.0009-.0273.0052-.0542.0042-.0815.001-.0273.0052-.0542.0042-.0815.001-.0273.0052-.0542.0043-.0815.0009-.0273.0051-.0543.0042-.0817.0009-.0272.0051-.0541.0042-.0814.0009-.0272.0051-.0542.0042-.0814.001-.0273.0051-.0543.0042-.0815.001-.0273.0052-.0542.0043-.0815.0009-.0273.0051-.0543.0042-.0815.0009-.0273.0051-.0543.0042-.0815.0009-.0273.0052-.0543.0043-.0815.0009-.0273.0051-.0543.0042-.0815.0009-.0272.0051-.0543.0042-.0815.0009-.0272.0052-.0542.0042-.0815.001-.0273.0052-.0543.0042-.0817.001-.0272.0052-.0541.0043-.0813.0009-.0273.0051-.0543.0042-.0815.0009-.0273.0051-.0543.0042-.0815.0009-.0273.0051-.0542.0042-.0815.001-.0273.0051-.0542.0042-.0815.001-.0273.0052-.0542.0043-.0815.0009-.0273.0051-.0542.0042-.0815.0009-.0273.0051-.0542.0042-.0815.0009-.0273.0052-.0542.0043-.0815.0009-.0273.0051-.0542.0042-.0815.0009-.0272.0051-.0542.0042-.0815.0009-.0273.0052-.0543.0042-.0815.001-.0273.0051-.0542.0042-.0814.0009-.0273.0052-.0543.0043-.0815.0009-.0273.0051-.0542.0042-.0815.0009-.0273.0051-.0543.0042-.0815.0009-.0272.0051-.0542.0042-.0815.001-.0272.0051-.0543.0042-.0815.001-.0272.0052-.0543.0043-.0815.0009-.0272.0051-.0542.0042-.0815.0009-.0272.0051-.0542.0042-.0815.0009-.0272.0052-.0542.0043-.0815.0009-.0272.0051-.0543.0042-.0817.0009-.0272.0051-.0541.0042-.0813.0009-.0273.0051-.0542.0042-.0815.0009-.0273.0051-.0542.0042-.0815.0009-.0273.0052-.0542.0043-.0815.0009-.0273.0051-.0542.0042-.0815.0009-.0273.0051-.0542.0042-.0815.0009-.0273.0052-.0542.0042-.0815.001-.0273.0052-.0542.0042-.0815.001-.0272.0052-.0542.0043-.0815.0009-.0272.0051-.0542.0042-.0815.0009-.0272.0051-.0542.0042-.0815.0009-.0272.0052-.0542.0043-.0815.0009-.0273.005-.0542.0041-.0814.001-.0273.0052-.0543.0043-.0815.0009-.0273.0051-.0543.0042-.0815.0009-.0272.0051-.0542.0042-.0815.0009-.0272.0052-.0542.0043-.0815.0009-.0272.0051-.0542.0042-.0815.0009-.0272.0051-.0542.0042-.0815.0009-.0272.0052-.0542.0042-.0815.001-.0272.0052-.0542.0042-.0814.001-.0273.0052-.0543.0043-.0815.0009-.0273.0051-.0544.0042-.0817.0009-.0272.0051-.0542.0042-.0814.0009-.0273.0051-.0542.0042-.0815.001-.0273.0051-.0542.0042-.0815.001-.0273.0052-.0542.0043-.0815.0009-.0273.0051-.0542.0042-.0815.0009-.0273.0051-.0542.0042-.0815.0009-.0273.0052-.0542.0043-.0815.0009-.0272.0051-.0542.0042-.0815.0009-.0272.0051-.0542.0042-.0815.0009-.0272.0052-.0542.0042-.0815.001-.0272.0052-.0542.0042-.0815.001-.0273.0052-.0542.0043-.0814.0009-.0273.0051-.0543.0042-.0815.0009-.0272.0051-.0542.0042-.0815.0009-.0272.0051-.0542.0042-.0815.001-.0272.0051-.0542.0042-.0815.001-.0272.0052-.0542.0043-.0814.0009-.0273.0051-.0543.0042-.0817.0009-.0272.0051-.0542.0042-.0814.0009-.0273.0052-.0543.0043-.0815.0009-.0273.0051-.0543.0042-.0815.0009-.0273.0051-.0543.0042-.0815.0009-.0273.0052-.0543.0042-.0817.001-.0272.0051-.0542.0042-.0814.0009-.0273.0052-.0542.0043-.0815.0009-.0273.0051-.0542.0042-.0815.0009-.0272.0051-.0542.0042-.0815.0009-.0272.0051-.0542.0042-.0815.001-.0272.0052-.0542.0042-.0815.001-.0272.0052-.0542.0043-.0815.0009-.0272.0051-.0542.0042-.0815.0009-.0272.0051-.0542.0042-.0815.0009-.0272.0052-.0542.0043-.0814.0009-.0273.0051-.0543.0042-.0817.0009-.0272.0051-.0542.0042-.0814.0009-.0272.0051-.0542.0042-.0815.0009-.0272.0051-.0542.0042-.0815.0009-.0272.0052-.0542.0043-.0814.0009-.0273.0051-.0543.0042-.0815.0009-.0273.0051-.0543.0042-.0817.0009-.0272.0052-.0542.0042-.0814.001-.0273.0052-.0543.0042-.0815.001-.0273.0052-.0543.0043-.0815.0009-.0273.0051-.0543.0042-.0815.0009-.0273.0051-.0543.0042-.0817.0009-.0272.0051-.0541.0042-.0814.001-.0273.0051-.0542.0042-.0815.001-.0273.0052-.0542.0043-.0815.0009-.0272.0051-.0542.0042-.0815.0009-.0272.0051-.0542.0042-.0815.0009-.0272.0052-.0542.0043-.0814.0009-.0273.0051-.0543.0042-.0817.0009-.0272.0051-.0542.0042-.0815.0009-.0272.0052-.0542.0042-.0814.001-.0273.0052-.0543.0042-.0815.001-.0273.0052-.0543.0043-.0815.0009-.0273.0051-.0543.0042-.0817.0009-.0272.0051-.0542.0042-.0814.0009-.0272.0051-.0542.0042-.0814.001-.0273.0051-.0543.0042-.0815.001-.0273.0052-.0543.0043-.0815.0009-.0273.0051-.0542.0042-.0815.0009-.0273.0051-.0543.0042-.0815.0123-.3567-.1297-.7168-.4339-.9627l-7.2785-5.8838,10.7992-10.0372c.2938-.2731.704-.3752,1.093-.2773,4.1842,1.0535,8.6164,1.6211,13.2065,1.6211,24.7048,0,44.8728-16.3872,46.0713-36.9818.0017-.0271.0027-.0544.0043-.0815ZM139.563,48.4022c6.3949,0,11.9916,2.8802,15.0704,7.1866-3.1985,3.7011-8.374,6.1082-14.2183,6.1082-6.3949,0-11.9916-2.8803-15.0704-7.1866,3.1985-3.7012,8.374-6.1082,14.2183-6.1082Z" fill="#f75e28"/><path d="M103.0263,134.2406l-15.5568-12.2727c-.4586-.3619-1.1125-.3354-1.5404.0624l-5.2362,4.8666c-.5238.4866-.5003,1.323.0501,1.7798l14.3849,11.9329c.5434.4505.5745,1.2736.0667,1.7638l-1.5659,1.5126,8.5454,6.7417c.4519.3564,1.0944.3365,1.5235-.0469l.2233-.1996v-15.9014c-.3101.0425-.6339-.0337-.8947-.2393Z" fill="url(#uuid-b12c9d7e-8eb0-400f-a666-8daa016d5035)"/><path d="M139.8267,48.4023c6.3949,0,11.9916,2.8801,15.0704,7.1864,2.1178-2.4506,3.3706-5.4675,3.3706-8.7327,0-8.1963-7.8748-14.8409-17.5888-14.8409s-17.5887,6.6445-17.5887,14.8409c0,2.8006.9204,5.4195,2.5183,7.6545,3.1984-3.7012,8.374-6.1082,14.2183-6.1082Z" fill="url(#uuid-5ef70e1d-0448-4791-882a-86fdafed27f2)"/><path d="M76.3402,158.887l-15.4372-12.4549c-.4585-.3702-1.1191-.347-1.5506.0541l-6.7983,6.3185c-.1753.1629-.3893.2597-.612.297v15.8669l6.5581-6.0952c.4316-.4011,1.0921-.4243,1.5506-.0544l15.4371,12.4549c.4652.3754,1.1372.3453,1.5671-.0698l.2126-.2054v-15.8677c-.3206.0502-.6584-.0271-.9275-.244Z" fill="url(#uuid-0aae147b-cda1-4750-8ef8-75cef56db067)"/><path d="M140.6787,85.7782c-4.5899,0-9.0223-.5678-13.2064-1.6211-.389-.098-.7992.0041-1.093.2774l-19.6244,18.2396c-.5282.4908-.4991,1.3357.0617,1.7892l7.9113,6.3953,10.7992-10.0372c.2938-.273.7039-.3751,1.093-.2771,4.1842,1.0533,8.6165,1.6208,13.2065,1.6208,9.7502,0,18.7878-2.559,26.2376-6.9153v-15.8922c-7.281,4.0581-16.0058,6.4207-25.3855,6.4207Z" fill="url(#uuid-69a1bb37-1a2e-4d71-bb81-64b2a94460af)"/><path d="M31.0099,137.7037l20.087,15.0591c.4586.3438,1.0975.3101,1.5173-.0801l6.7983-6.3185c.4315-.401,1.0921-.4242,1.5506-.0543l15.4371,12.4549c.4652.3753,1.1372.3454,1.5671-.0699l17.0237-16.4434c.5078-.4905.4767-1.3134-.0667-1.7641l-14.3849-11.9329c-.5504-.4566-.5739-1.2929-.0501-1.7797l5.2362-4.8667c.4279-.3977,1.0818-.4242,1.5404-.0623l15.5568,12.2727c.4518.3564,1.0945.3367,1.5235-.0469l17.5014-15.6463c.5445-.4868.5232-1.3455-.0448-1.8047l-15.1898-12.2793c-.5608-.4533-.59-1.2983-.0618-1.7892l19.6244-18.2396c.2939-.2731.704-.3753,1.093-.2773,4.1841,1.0535,8.6165,1.621,13.2065,1.621,25.4761,0,46.1286-17.426,46.1286-38.9221,0-21.496-20.6525-38.922-46.1286-38.922-25.4761,0-46.1287,17.426-46.1287,38.922,0,8.3372,3.1077,16.0616,8.3977,22.395.4035.4831.3442,1.2016-.1217,1.6248L30.9239,135.8786c-.5508.5003-.5095,1.3786.0859,1.825ZM140.4751,61.5749c-9.714,0-17.5888-6.6445-17.5888-14.841,0-8.1963,7.8748-14.8409,17.5888-14.8409,9.714,0,17.5888,6.6445,17.5888,14.8409s-7.8748,14.841-17.5888,14.841Z" fill="#ff8000"/><path d="M31.0099,137.7036l20.0869,15.0592c.4586.3438,1.0975.3099,1.5173-.0802l6.7982-6.3185c.4315-.401,1.0922-.4242,1.5507-.0542l15.437,12.4548c.4652.3754,1.1372.3453,1.5671-.0699l17.0237-16.4434c.5078-.4905.4767-1.3134-.0667-1.764l-14.3849-11.933c-.5504-.4565-.574-1.2928-.0502-1.7797l5.2362-4.8667c.4279-.3977,1.0818-.4242,1.5404-.0624l15.5569,12.2727c.4518.3564,1.0944.3367,1.5234-.0469l17.5015-15.6464c.5444-.4868.5232-1.3456-.0448-1.8047l-15.1898-12.2793c-.5608-.4534-.59-1.2983-.0618-1.7893l19.6244-18.2395c.2939-.2732.7041-.3752,1.0931-.2773,4.1841,1.0535,8.6165,1.621,13.2064,1.621,25.4761,0,46.1285-17.4259,46.1285-38.9221S165.9512,7.8119,140.4751,7.8119s-46.1287,17.426-46.1287,38.922c0,8.3373,3.1077,16.0616,8.3977,22.395.4036.4832.3442,1.2017-.1217,1.6249L30.924,135.8787c-.5508.5004-.5095,1.3787.0859,1.825ZM140.4751,61.575c-9.714,0-17.5887-6.6445-17.5887-14.8411s7.8748-14.8408,17.5887-14.8408,17.5887,6.6445,17.5887,14.8408-7.8748,14.8411-17.5887,14.8411Z" fill="url(#uuid-83136129-db80-417a-a13a-6972249974c3)"/><path d="M31.0311,137.6753c7.2789,4.1538,14.185,8.7746,20.9975,13.5826,0,0,.1267.089.1267.089-.1905-.1644-.4803-.1825-.6974-.0504l-.0699.0485c.0391-.0467.2719-.2626.3202-.3156,2.0456-2.0011,4.4492-4.3221,6.556-6.2514,1.1557-.9597,2.9716-.892,4.0701.1214.1629.1148.5841.4931.7514.6166,4.6674,3.8103,9.8341,8.0807,14.3052,11.957-.1524-.0937-.4141-.0449-.498.0857,0,0,.2421-.2156.2421-.2156,5.8078-5.1826,11.6884-10.2963,17.8561-15.0917-5.0054,5.9981-10.3216,11.6969-15.7015,17.3221-.8635,1.0853-2.5281,1.3996-3.7019.6134-.1815-.1279-.4766-.3459-.6437-.4734,0,0-4.1147-3.1557-4.1147-3.1557-3.7208-2.8223-7.4122-5.8159-11.0817-8.7102.2546.216.7325.2111.9902-.0487-.1812.1571-.5785.539-.7631.7024-1.3656,1.2642-3.412,3.1042-4.8032,4.3505-.926.7794-1.9122,1.9593-3.2309,1.9351-.8552.0454-1.6573-.3476-2.2804-.9097-6.3583-5.1497-12.9409-10.4147-18.6288-16.202h0Z" fill="#ff8000"/><path d="M80.5393,128.5544c-.6964-.263-.9659-1.4505-.3594-2.1411.0701-.1028.3289-.4467.4066-.558.8904-1.2364,1.8238-2.4762,2.7721-3.6548,0,0,1.15-1.4177,1.15-1.4177l.0723-.088c2.2245-2.2836,4.8849.4456,6.9303,1.6125,4.5157,2.9284,8.8514,6.0964,13.075,9.4037-.378-.2605-.8602-.3671-1.3049-.2927-.3334.0538-.6606.2089-.9102.4379,4.6087-4.0342,9.4346-7.7959,14.5947-11.1227,1.0281-.6579,2.0667-1.3041,3.1349-1.9172l1.5277-.8551c.3517-.184.5419-.8085.1744-1.3406.8396.3241,1.0211,1.6139.2736,2.3718-4.5577,6.365-10.0081,12.0234-15.7593,17.2981-1.469,1.3764-3.9683,1.3948-5.4641.0745-.1013-.0714-.4202-.3451-.5282-.4247-4.9443-3.9497-9.7424-8.1189-14.2208-12.6153.2555.1433.6509.0515.7479-.1868,0,0-.0933.0657-.0933.0657-1.7049,1.2073-3.5606,2.4544-5.3455,3.5409,0,0-.3908.2433-.3908.2433l-.1954.1216c-.4838.1976-.6884.8531-.2876,1.4448h0Z" fill="#ff8000"/><path d="M106.6129,104.3412c-.501-.2987-.7423-1.0525-.4149-1.6539.3062-.4706.7937-.9457,1.1436-1.3648,0,0,2.3131-2.5715,2.3131-2.5715,3.0911-3.4156,6.243-6.7716,9.4412-10.0825,1.7922-1.862,3.5814-3.7395,5.4036-5.5714.6271-.7179,1.5436-1.1962,2.5083-1.1869.7972.0225,1.1052.1794,1.7244.2706,24.7084,4.895,53.823-8.8093,57.8714-35.447,1.4108,9.456-2.4123,19.3422-8.7967,26.4153-12.4186,13.5352-32.6385,17.9255-50.0423,13.2115,0,0-.8627-.2449-.8627-.2449-.2529-.0684-.0214-.0138.0653-.0277.2162-.0088.4361-.1053.5881-.2581-.0327.0209-.1976.166-.29.243-6.3494,5.3823-12.8221,10.7071-19.4303,15.7805l-.6902.5225c-.2225.1801-.4884.3412-.629.5126-.3174.3702-.3218,1.0361.0972,1.4528h0Z" fill="#ff8000"/><path d="M94.3464,46.7339c.5313,4.7921,1.8977,9.5066,4.1169,13.7727,1.2687,2.7151,3.2414,4.9541,4.7686,7.4922.4078.8285.8294,1.6848.2694,2.5685-.3666.5796-1.1228.8745-1.6422,1.2604-.5219.335-1.0412.6731-1.5475,1.025.3989-.4703.785-.9548,1.1686-1.442.2015-.3067.9308-1.0218.918-1.3393-.0185-.1602-.2211-.3328-.3743-.3378-.009.005-.059-.0396-.0864-.057l-.3856-.2954c-5.4628-5.9628-7.9814-14.6492-7.2054-22.6472h0Z" fill="#ff8000"/><path d="M122.5179,46.7339c-1.8779-9.9538,8.8028-17.6407,17.9572-17.2847,4.7322.0405,9.5212,1.7029,13.037,4.8992,3.4044,3.022,5.6181,7.9136,4.5517,12.3855-.9884-4.2749-3.6351-7.422-6.8412-9.4384-9.5682-6.0869-25.1486-2.6461-27.9681,9.4383,0,0-.7366,0-.7366,0h0Z" fill="#ff8000"/><path d="M29.9137,75.0119c17.9389,4.9537,21.9546,8.9694,26.9083,26.9083,4.9537-17.9389,8.9694-21.9546,26.9083-26.9083-17.9389-4.9537-21.9546-8.9694-26.9083-26.9083-4.9537,17.9389-8.9694,21.9546-26.9083,26.9083Z" fill="#ff8000"/><path d="M14.2479,48.2905c9.2245,2.5473,11.2895,4.6123,13.8368,13.8368,2.5473-9.2245,4.6123-11.2895,13.8368-13.8368-9.2245-2.5473-11.2895-4.6123-13.8368-13.8368-2.5473,9.2245-4.6123,11.2895-13.8368,13.8368Z" fill="#ff8000"/></g><g id="uuid-86c4b133-e792-43e8-84f6-39ee95bb4a79"><ellipse cx="62.3848" cy="181.5914" rx="37.0225" ry="5.3503" fill="#090909" opacity=".8"/></g></svg>