<?xml version="1.0" encoding="UTF-8"?><svg xmlns="http://www.w3.org/2000/svg" width="200" height="200" xmlns:xlink="http://www.w3.org/1999/xlink" viewBox="0 0 200 200"><defs><linearGradient id="uuid-07864244-6a10-4256-9231-a12cbb28c147" x1="-979.4845" y1="150.4625" x2="-932.7525" y2="-54.6176" gradientTransform="translate(-912.9094) rotate(-180) scale(1 -1)" gradientUnits="userSpaceOnUse"><stop offset=".0294" stop-color="#f75e28"/><stop offset=".4701" stop-color="#d44c28"/><stop offset=".7283" stop-color="#c64528"/></linearGradient><linearGradient id="uuid-af9fd3cb-3181-43c2-9f4d-e0ae974d2c1f" x1="49.4712" y1="186.1547" x2="72.5745" y2="144.948" gradientUnits="userSpaceOnUse"><stop offset=".171" stop-color="#ff8000"/><stop offset=".8865" stop-color="#f75e28"/></linearGradient><linearGradient id="uuid-a79cae40-36b4-40b1-a04b-6ddb87258d1c" x1="-1103.7108" y1="152.505" x2="-922.9623" y2="49.3856" gradientTransform="translate(-912.9094) rotate(-180) scale(1 -1)" gradientUnits="userSpaceOnUse"><stop offset="0" stop-color="#ff5b00"/><stop offset=".1307" stop-color="#ff5f00"/><stop offset=".2763" stop-color="#ff6c00"/><stop offset=".3236" stop-color="#ff7300"/><stop offset=".685" stop-color="#ff8000"/><stop offset=".9005" stop-color="#fcc87e"/><stop offset="1" stop-color="#fbe7b4"/></linearGradient><linearGradient id="uuid-94912f75-7f4d-4365-84ab-22bab0afa670" x1="21.0057" y1="96.9088" x2="25.9962" y2="93.4943" xlink:href="#uuid-af9fd3cb-3181-43c2-9f4d-e0ae974d2c1f"/><radialGradient id="uuid-5e9344e3-f59c-4d8a-8eac-b66a9a1529ba" cx="137.0353" cy="123.3256" fx="137.0353" fy="123.3256" r="2.6705" gradientTransform="translate(4.4737 -86.1727) rotate(1.232) scale(1 1.6752)" gradientUnits="userSpaceOnUse"><stop offset="0" stop-color="#ff5b00"/><stop offset=".1999" stop-color="#fe5c02"/><stop offset=".3468" stop-color="#fe620c"/><stop offset=".4768" stop-color="#fe6b1c"/><stop offset=".597" stop-color="#fe7932"/><stop offset=".7105" stop-color="#fd8a50"/><stop offset=".8189" stop-color="#fc9f73"/><stop offset=".9215" stop-color="#fcb89d"/><stop offset=".947" stop-color="#fcbfa9"/></radialGradient><radialGradient id="uuid-15e59c23-9454-449c-b647-e6a70a4b9dd9" cx="139.437" cy="135.0503" fx="139.437" fy="135.0503" r="2.6698" gradientTransform="translate(4.8965 -94.1367) rotate(1.232) scale(1 1.6752)" xlink:href="#uuid-5e9344e3-f59c-4d8a-8eac-b66a9a1529ba"/><radialGradient id="uuid-4a8155d7-af45-4752-931d-a79361e1a473" cx="141.8388" cy="146.7751" fx="141.8388" fy="146.7751" r="2.6692" gradientTransform="translate(5.3194 -102.1008) rotate(1.232) scale(1 1.6752)" xlink:href="#uuid-5e9344e3-f59c-4d8a-8eac-b66a9a1529ba"/><radialGradient id="uuid-21e15752-e132-48c7-903e-a0f95abc170d" cx="124.7887" cy="64.072" fx="124.7887" fy="64.072" r="3.1228" gradientTransform="translate(0 -34.4412) scale(1 1.5375)" gradientUnits="userSpaceOnUse"><stop offset="0" stop-color="#ff5b00"/><stop offset=".211" stop-color="#fe5c02"/><stop offset=".3662" stop-color="#fe620c"/><stop offset=".5035" stop-color="#fe6b1c"/><stop offset=".6304" stop-color="#fe7932"/><stop offset=".7502" stop-color="#fd8a50"/><stop offset=".8647" stop-color="#fc9f73"/><stop offset=".973" stop-color="#fcb89d"/><stop offset="1" stop-color="#fcbfa9"/></radialGradient><radialGradient id="uuid-4dcb6aad-2fd7-4dfb-82d9-092ec56f0aa7" cx="127.4285" cy="76.4261" fx="127.4285" fy="76.4261" r="2.673" gradientTransform="translate(2.7822 -54.316) rotate(1.232) scale(1 1.6752)" xlink:href="#uuid-5e9344e3-f59c-4d8a-8eac-b66a9a1529ba"/><radialGradient id="uuid-79366233-802a-499b-a1a8-e6dcfad43fec" cx="132.2319" cy="99.8762" fx="132.2319" fy="99.8762" r="2.6719" gradientTransform="translate(3.6279 -70.2446) rotate(1.232) scale(1 1.6752)" xlink:href="#uuid-5e9344e3-f59c-4d8a-8eac-b66a9a1529ba"/><radialGradient id="uuid-0f89678c-00c4-42af-9c40-0c5c4b4bd895" cx="134.6336" cy="111.6009" fx="134.6336" fy="111.6009" r="2.6712" gradientTransform="translate(4.0508 -78.2086) rotate(1.232) scale(1 1.6752)" xlink:href="#uuid-5e9344e3-f59c-4d8a-8eac-b66a9a1529ba"/><radialGradient id="uuid-9f721466-9af1-4fd6-a419-c2d425b0912e" cx="129.8303" cy="88.1831" fx="129.8303" fy="88.1831" r="2.6599" gradientTransform="translate(3.2062 -62.3018) rotate(1.232) scale(1 1.6752)" xlink:href="#uuid-5e9344e3-f59c-4d8a-8eac-b66a9a1529ba"/><radialGradient id="uuid-ea069dce-7c31-489b-9ec7-68ccc85fc799" cx="143.922" cy="157.5324" fx="143.922" fy="157.5324" r="3.2339" gradientUnits="userSpaceOnUse"><stop offset=".4089" stop-color="#ff5b00"/><stop offset=".5624" stop-color="#fd7c38"/><stop offset=".7435" stop-color="#fca074"/><stop offset=".8769" stop-color="#fcb69a"/><stop offset=".947" stop-color="#fcbfa9"/></radialGradient><radialGradient id="uuid-20b2bfef-ced6-4332-9271-fdce07dc4f13" cx="122.9442" cy="53.7754" fx="122.9442" fy="53.7754" r="2.3368" gradientTransform="translate(0 -28.9063) scale(1 1.5375)" xlink:href="#uuid-21e15752-e132-48c7-903e-a0f95abc170d"/><radialGradient id="uuid-d6ba297c-3a5a-4122-9c0f-dabb8b097c23" cx="-1420" cy="-1200" fx="-1420" fy="-1200" r="1" gradientTransform="translate(-15787.6213 13485.2407) rotate(-180) scale(11.1601 -11.1601)" gradientUnits="userSpaceOnUse"><stop offset="0" stop-color="#fff"/><stop offset=".5419" stop-color="#fff"/><stop offset=".6278" stop-color="#fefefc"/><stop offset=".6907" stop-color="#fefaf2"/><stop offset=".7463" stop-color="#fdf5e2"/><stop offset=".7976" stop-color="#fceecc"/><stop offset=".8455" stop-color="#fbe4af"/><stop offset=".8894" stop-color="#fada8e"/><stop offset="1" stop-color="#fada8e"/></radialGradient><radialGradient id="uuid-d5727dc8-9997-4c03-9084-22eaaa3c8b19" cx="-1420" cy="-1200" fx="-1420" fy="-1200" r="1" gradientTransform="translate(-30735.502 26158.3921) rotate(-180) scale(21.7031 -21.7031)" gradientUnits="userSpaceOnUse"><stop offset="0" stop-color="#fff"/><stop offset=".5419" stop-color="#fff"/><stop offset=".6281" stop-color="#fefefc"/><stop offset=".691" stop-color="#fefaf2"/><stop offset=".7464" stop-color="#fdf5e2"/><stop offset=".7976" stop-color="#fceecc"/><stop offset=".8454" stop-color="#fbe5af"/><stop offset=".8894" stop-color="#fada8e"/><stop offset="1" stop-color="#fada8e"/></radialGradient><radialGradient id="uuid-e8685b31-2a44-4903-bf0a-1fdf459acf83" cx="-425.2263" cy="907.5285" fx="-425.2263" fy="907.5285" r="1.1161" gradientTransform="translate(947.9404 39602.612) scale(2.1634 -43.4684)" gradientUnits="userSpaceOnUse"><stop offset="0" stop-color="#fdf2ef" stop-opacity=".7"/><stop offset=".2935" stop-color="#fff" stop-opacity="0"/></radialGradient></defs><g id="uuid-1d39a6b7-fe7c-4165-ba99-19eb82bbb10b"><path d="M31.2169,170.4303c21.5664,1.5466,50.4165,1.4563,83.6034-4.7948,0,0-31.2522,8.7858-85.9492,7.0246-1.2333-.0397-2.2754-.9304-2.512-2.1414-2.0036-10.2535-4.0071-20.5069-6.0107-30.7604-.0882-.4516.0538-.9149.3825-1.2369.5027-.4925,1.5918-1.3839,2.1489-1.8339.2261-.1826.4752-.3299.7449-.4382,3.9061-1.5684,10.5735-3.9703,12.2791-11.2951,2.32-9.9633-6.9537-23.8151-24.1691-27.3844-.9602-.1991-1.717-.9406-1.9225-1.8995-2.1487-10.0274-3.9871-18.7925-6.1359-28.82-.1008-.4704.0437-.9599.3839-1.3001l2.0567-2.4709c2.1473,10.0209,3.7834,19.5581,5.8557,29.508.2912,1.3983,1.3765,2.4998,2.7696,2.8147,16.7724,3.7916,25.7676,17.4055,23.4788,27.2348-1.9269,8.275-11.5321,12.4969-14.7429,13.6949-.5555.2073-.8754.7869-.7617,1.3689,1.985,10.1583,3.9699,20.3166,5.9549,30.4749.2425,1.241,1.2843,2.1644,2.5456,2.2549" fill="url(#uuid-07864244-6a10-4256-9231-a12cbb28c147)"/><path d="M114.9257,165.6329l-.0005-.0026-.0005-.0026-.0005-.0026-.0005-.0026-.0013-.0071-.0013-.0071-.0013-.0071-.0013-.0071-.0004-.002-.0004-.002-.0004-.002-.0004-.002c-1.234.1833-2.3138.3438-3.2394.4813-.9262.1308-1.698.2398-2.3155.327-.6166.0917-1.0801.153-1.389.195l-.4633.0629c-.6176.0839-1.2352.1678-1.8527.2517-.6183.0781-1.2366.1561-1.8549.2342-1.2361.1584-2.4732.3074-3.7098.4576-.6179.078-1.2378.1413-1.8564.2127-.6191.0683-1.2374.1415-1.8569.2058-1.2392.1264-2.4773.2588-3.7168.3764-.6195.0603-1.2391.1207-1.8586.181-.62.0548-1.2401.1097-1.8601.1645-1.2395.1135-2.4808.2079-3.7208.3118l-1.8616.1375c-.6204.0464-1.241.0909-1.8619.1302-.6207.0416-1.2414.0833-1.862.1249-.621.0367-1.2419.0734-1.8629.1102-1.2415.0787-2.4847.128-3.7265.1974-1.2428.0525-2.4848.1166-3.7278.1565-2.4855.0938-4.9717.158-7.4578.202-.6216.0091-1.2431.0182-1.8647.0273-.6216.0044-1.2432.0089-1.8648.0133-.6215.008-1.2431.0069-1.8647.0083-.6216.0005-1.2431.0044-1.8646-.0012l-1.8196-.0104c-1.8794-.0235-3.7586-.051-5.6374-.0975-1.2426-.0276-2.4848-.0695-3.727-.1099l-1.8628-.073-1.8624-.0812c-2.4831-.1113-4.9649-.2501-7.4448-.4175-.5492-.0383-1.0985-.0765-1.6477-.1148h-.0016c-.3585-.0234-.7031-.1661-.9735-.4035-.2708-.2369-.4589-.561-.5299-.9161l-.0003-.0016c-.1352-.689-.2811-1.3759-.4215-2.064-.2446-1.1867-.4863-2.3741-.7413-3.5588-.252-1.1853-.5013-2.3711-.7636-3.5544-.1296-.592-.2592-1.1839-.3888-1.7759l-.3985-1.774c-.2636-1.183-.5377-2.364-.8121-3.545-.5523-2.3612-1.1175-4.7198-1.7134-7.0725l-.1107-.4413c-.0755-.2939-.1887-.7347-.3396-1.3225-.3051-1.1749-.761-2.9377-1.43-5.276h0c.2627,2.4178.5056,4.2221.6664,5.4253l.1845,1.3528.064.4505c.3358,2.4035.7023,4.801,1.0818,7.1959.1914,1.1971.3832,2.3942.5854,3.5892l.3003,1.7931.31,1.7912c.2036,1.1948.4201,2.387.634,3.5798.2109,1.1933.4351,2.3841.6563,3.5754.1296.6901.2537,1.3813.3885,2.0704l.0005.0024c.1601.8414.6078,1.6304,1.2511,2.1995.6398.573,1.477.9273,2.3342.9884l.0024.0002c.5532.0373,1.1065.0746,1.6597.112,2.4979.1631,4.9976.2974,7.4985.404,2.501.1054,5.0034.1732,7.506.2144.946.0196,1.8921.0256,2.8382.0357.9461.0068,1.8923.0028,2.8383.0048.6106-.0042,1.2212-.0084,1.8318-.0125,2.5025-.0239,5.0049-.0681,7.5056-.1609,2.5007-.088,5.0007-.1945,7.4978-.3509,1.249-.0687,2.4965-.1615,3.7446-.2428l1.8706-.1438c.6236-.0467,1.2467-.0995,1.8696-.1545,2.4927-.205,4.981-.4596,7.4665-.7303.621-.0715,1.242-.143,1.863-.2144l.9313-.1079.9302-.1177c.62-.0785,1.24-.157,1.86-.2354l1.8578-.2519.9287-.126.9274-.1365c.618-.0918,1.236-.1836,1.8541-.2753.6179-.0923,1.2345-.1934,1.8517-.2897.6168-.0993,1.2346-.1905,1.8503-.2965,1.2316-.2099,2.4655-.4022,3.6932-.6339.6144-.1117,1.2287-.2235,1.8431-.3352.6132-.1175,1.2265-.235,1.8397-.3525l.4598-.0881c.3065-.0588.7666-.1452,1.3783-.2705l2.2927-.4722c.9156-.1956,1.9831-.427,3.2014-.6973Z" fill="url(#uuid-af9fd3cb-3181-43c2-9f4d-e0ae974d2c1f)"/><path d="M5.8586,64.0894c2.1492,10.0297,4.2984,20.0592,6.4476,30.0889.1011.4716.4793.83.9535.9184,17.7224,3.3022,27.3166,17.4251,24.9613,27.5403-1.9311,8.2932-11.5744,12.5154-14.7641,13.7027-.543.202-.8561.7692-.745,1.3379,2.065,10.5682,4.1301,21.1364,6.1952,31.7046.1025.5245.539.9168,1.0719.957,21.6947,1.6389,51.0153,1.6678,84.8413-4.7036,8.6059-1.6211,16.783-3.5248,24.5256-5.614-.1792-.4396-.2799-.9197-.2799-1.4237,0-1.8465,1.3261-3.381,3.0774-3.7092l-.8912-4.3306c-.2617.0574-.5327.0897-.8116.0897-2.0856,0-3.7763-1.6907-3.7763-3.7763,0-1.8427,1.3205-3.375,3.0663-3.7075l-.891-4.3295c-.2583.0559-.5257.0869-.8007.0869-2.0856,0-3.7763-1.6908-3.7763-3.7764,0-1.8387,1.3148-3.3689,3.0552-3.7057l-.8908-4.3284c-.2549.0542-.5188.0842-.7898.0842-2.0856,0-3.7763-1.6908-3.7763-3.7764,0-1.8349,1.3091-3.3628,3.044-3.704.237-.0465.4816-.0724.7323-.0724,2.0856,0,3.7763,1.6908,3.7763,3.7764,0,1.8146-1.2803,3.3289-2.9865,3.6922l.8908,4.3284c.2336-.0452.4743-.0706.7212-.0706,2.0856,0,3.7763,1.6907,3.7763,3.7763,0,1.8107-1.275,3.3219-2.9756,3.6894l.891,4.3295c.2302-.0439.4671-.0689.71-.0689,2.0856,0,3.7763,1.6908,3.7763,3.7764,0,1.8067-1.2696,3.315-2.9647,3.6866l.8912,4.3306c.2268-.0425.4598-.0672.6989-.0672,1.8753,0,3.427,1.3685,3.7217,3.1604,19.0317-5.6072,35.1691-12.2431,48.0719-18.3901,1.2117-.5773,1.867-1.9086,1.588-3.2215l-6.0917-28.6669c-13.0789-.6245-22.7407-10.8683-22.6579-21.6281.0617-8.0224,5.5354-15.6589,13.775-19.3107-2.0965-10.8526-4.193-21.7052-6.2896-32.5578-.1402-.7258-.9229-1.1253-1.5934-.8142-13.0985,6.079-29.4573,12.6114-48.723,18.0682.2282.4863.3594,1.0271.3594,1.5998,0,1.8379-1.3135,3.3675-3.0526,3.7054l.8907,4.3282c.2541-.0539.5172-.0835.7874-.0835,2.0856,0,3.7763,1.6907,3.7763,3.7763,0,1.834-1.3078,3.3615-3.0415,3.7037l.8905,4.3271c.2507-.0524.5102-.0807.7765-.0807,2.0856,0,3.7763,1.6908,3.7763,3.7764,0,1.8301-1.3022,3.3555-3.0304,3.7019-.2412.0483-.4905.0744-.7459.0744-2.0856,0-3.7763-1.6907-3.7763-3.7763,0-1.8193,1.2868-3.3375,2.9998-3.6957l-.8905-4.3271c-.2378.0469-.4832.0727-.7348.0727-2.0856,0-3.7763-1.6908-3.7763-3.7764,0-1.8153,1.2815-3.3305,2.989-3.6928l-.8907-4.3282c-.2344.0455-.476.071-.7237.071-1.9683,0-3.5831-1.5063-3.7588-3.4287-7.5586,1.9572-15.5237,3.7352-23.8891,5.2459-34.48,6.2261-64.3459,5.9103-86.455,4.0041-.7963-.0687-1.4324.6497-1.2649,1.4313ZM127.0571,99.9659c0-1.8271,1.2978-3.3509,3.0218-3.7006.2438-.0494.4961-.0757.7545-.0757,2.0856,0,3.7763,1.6907,3.7763,3.7763,0,1.8225-1.291,3.343-3.0083,3.6979l.8904,4.3262c.2404-.048.4888-.074.7434-.074,2.0856,0,3.7763,1.6908,3.7763,3.7764,0,1.8185-1.2857,3.3359-2.9974,3.695-.2515.0528-.5118.0813-.7789.0813-2.0856,0-3.7763-1.6907-3.7763-3.7763,0-1.831,1.3035-3.3569,3.0329-3.7024l-.8903-4.3262c-.248.0512-.5048.0785-.768.0785-2.0856,0-3.7763-1.6908-3.7763-3.7764ZM124.6553,88.2395c0-1.8232,1.2922-3.3445,3.0108-3.6985.2472-.0509.5033-.0778.7656-.0778,2.0856,0,3.7763,1.6907,3.7763,3.7763,0,1.8264-1.2965,3.3496-3.0193,3.7002-.2446.0498-.4977.0761-.7571.0761-2.0856,0-3.7763-1.6908-3.7763-3.7764Z" fill="url(#uuid-a79cae40-36b4-40b1-a04b-6ddb87258d1c)"/><path d="M180.4123,69.3682l.8369-2.6038c-8.2396,3.6518-13.7133,11.2883-13.775,19.3107,0,0,.244-11.3452,11.6571-15.3916.6082-.2156,1.0836-.7011,1.281-1.3154Z" fill="#b9471e"/><path d="M145.5452,158.9126l1.0115-.9789s11.1978-3.1123,21.8831-7.2319c0,0-21.2645,7.7317-22.8946,8.2108Z" fill="#b9471e"/><path d="M23.0285,136.6916h0c.937-.2954,1.7405-.6071,2.425-.8848.6845-.2785,1.2442-.5378,1.6892-.7512.4452-.2132.7736-.385.9941-.4968l.3271-.1747c1.7452-.9309,3.4075-2.0429,4.9127-3.366,1.5043-1.3194,2.8399-2.8792,3.8205-4.6791.5452-1.0023.9759-2.0765,1.2622-3.1934l.0005-.0021c.2481-1.0109.3825-2.045.4284-3.0823-.0002-.2415-.0003-.4829-.0005-.7244-.0008-.1208.0009-.2418-.0022-.3625l-.0236-.3608c-.0166-.2405-.0303-.4817-.05-.7221l-.0937-.7163-.0488-.3581-.0685-.354-.1381-.7083-.1769-.6981-.0894-.3491c-.029-.1167-.07-.2293-.1044-.3441-.5922-1.9575-1.4613-3.8211-2.543-5.5419-1.0755-1.726-2.3521-3.3186-3.7663-4.7703-1.4214-1.4457-2.99-2.74-4.655-3.8875-1.6655-1.1482-3.4399-2.1317-5.2767-2.9678-1.8368-.8384-3.7471-1.5056-5.6909-2.0315-.5214-.1298-1.0423-.263-1.5659-.382l-1.5791-.3167-.0009-.0002c-.0875-.013-.1515-.0731-.1687-.1423,0,0,0,.0002-.0002-.0007-.0983-.4357-.1966-.8715-.2949-1.3072-.2175-.9567-.4349-1.9134-.6524-2.8702-.2218-.9558-.4435-1.9116-.6653-2.8674-.225-.9551-.4501-1.9102-.6751-2.8653-.2262-.9548-.4531-1.9096-.6862-2.8629-.4607-1.9079-.9311-3.8138-1.4109-5.7176-.4781-1.9042-.9534-3.8092-1.314-5.7316,0,0-.1279-.4698-.3099-1.4463-.09-.4829-.211-1.0817-.392-1.8295-.1735-.7166-.244-1.4384-.5179-2.3831h0c.1372.9739-.0353,1.5113.0216,2.5166.0416.7356.0766,1.3692.1543,1.8542l.2342,1.4548c.3216,1.9377.6522,3.8735.9963,5.8064.3424,1.9333.6943,3.8645,1.0558,5.7937.178.9652.3622,1.929.5471,2.8927.1861.9634.3722,1.9269.5583,2.8903.1894.9627.3787,1.9255.5681,2.8882.1937.9618.3873,1.9236.581,2.8855l.2666,1.3133.0007.0032c.0876.4206.3078.816.6165,1.112.3076.2977.7025.5,1.1183.5789l.0031.0007,1.4964.3235c.4955.1208.9871.2561,1.4818.3791,1.8417.5054,3.6396,1.1559,5.3779,1.9337,1.7379.7795,3.405,1.71,4.9831,2.7691,1.5783,1.0592,3.0557,2.2649,4.41,3.5932,1.3501,1.3326,2.5575,2.8048,3.5993,4.382l.1971.2949c.0651.0986.1225.2017.1842.3024.1215.2025.243.405.3645.6074.0631.1001.1173.2047.1727.3088l.1667.312.1669.312c.0566.1036.1119.2078.1598.3154.1978.4272.4115.8487.5807,1.2875.0877.2181.1844.4335.2652.6541l.2333.6651c.035.1045.0768.2072.1064.3132l.0916.3172.1832.6349.1462.6429.0736.3217.0542.3245.1089.6496c.026.2174.0464.4355.0702.6534l.0348.3272c.007.1091.0092.2184.0141.3277l.0266.6562c-.0049.9383-.0949,1.8726-.2723,2.7924l-.0004.0019c-.2112,1.0148-.5559,2.0046-1.0132,2.9467-.8119,1.6963-1.9867,3.2288-3.3436,4.587-1.362,1.3588-2.9176,2.5348-4.5558,3.5862l-.3084.1959c-.2084.1261-.5187.3195-.9419.5627-.4239.2416-.9561.5413-1.6078.879-.6525.336-1.4248.7086-2.326,1.0993Z" fill="url(#uuid-94912f75-7f4d-4365-84ab-22bab0afa670)"/><path d="M194.6743,139.6324h0c-.9734.4514-1.7035.79-2.1903,1.0157l-.7316.3352c-.9775.4425-1.9513.893-2.933,1.3259-.9799.4371-1.9594.8747-2.9444,1.2999l-1.4753.6427c-.4935.2101-.9871.4202-1.4806.6303l-1.4813.6285-1.4862.6167c-.9892.4148-1.9843.8155-2.979,1.2167-.9929.4059-1.9923.7953-2.9905,1.1876-.9966.3964-1.9999.7755-3.0019,1.1578-1.0004.3865-2.0072.7561-3.0131,1.1276-.5033.1848-1.0049.3744-1.5096.5553-.5048.1806-1.0097.3612-1.5145.5417-.5049.1803-1.0098.3606-1.5147.5409l-1.5202.5251-1.5201.5251c-.5085.1699-1.0169.3397-1.5254.5096-1.0174.3381-2.0331.6814-3.0557,1.0032l-1.5315.4902-.7657.2451-.7685.2361c-1.0254.3127-2.048.6338-3.0754.9396-.9038.2656-1.8076.5312-2.7114.7968h0c.0003.0014.0019.0144,0-.008l-.0083-.084c-.0047-.0564-.0142-.1117-.0244-.167-.0218-.1282-.0552-.254-.0959-.3774-.0406-.1235-.0895-.2442-.1468-.3609-.0263-.0596-.059-.1158-.0906-.1726-.0304-.0575-.0651-.1125-.1011-.1666-.0696-.1097-.1486-.2133-.2315-.3131-.0831-.0997-.1728-.1937-.2648-.2847-.0913-.0917-.1902-.1755-.2903-.2568-.0998-.0816-.2056-.1558-.3132-.2259-.1073-.0706-.2195-.1336-.3334-.1917-.1137-.0586-.2315-.1086-.35-.1542-.1186-.0457-.2409-.0809-.3624-.1136-.123-.0292-.2462-.0533-.37-.0691l-.1858-.0176-.1855-.0053-.1841.0069-.182.0202-.0898.0149c-.0594.0085-.1486.03-.2634.0629h0c.1146.0378.1974.064.2522.0846l.0817.0281c.1078.0419.2123.0854.314.1311.1014.0471.1995.0971.295.1488l.1404.0814.1356.0862.1313.0898.1267.0941c.083.0641.1624.1316.2401.1994.077.0692.1507.1409.2227.2134.0714.0733.1391.1495.2055.2261.0663.0767.1274.1575.1882.2375.0607.0802.1168.1637.1709.2478.0553.0832.1071.1685.159.2533.0507.0856.1027.1703.151.2573.0256.0428.0494.0865.0733.1303.0254.0431.0491.0872.0724.1315.0254.0435.0484.0882.0719.1329.0252.0441.0478.0895.0718.1346.0835.1567.1666.3178.2624.4844l.0005.0008.2013.3569.2461-.076.001-.0003,3.1634-.9768c1.0253-.3205,2.0457-.6562,3.0687-.9836l.7667-.2471.7638-.2561c.5092-.1707,1.0184-.3414,1.5276-.5121,1.02-.3364,2.0328-.6941,3.0472-1.0467l1.5207-.5313,1.5153-.5467c.5051-.1822,1.0101-.3644,1.5152-.5466l1.5094-.5623,1.509-.5631c.5029-.188,1.0025-.3847,1.5039-.5766,1.002-.3858,2.0047-.7695,3.0009-1.1701.9978-.3965,1.9968-.7896,2.9888-1.2.9937-.4062,1.9885-.8096,2.9766-1.2294.99-.4151,1.9801-.8296,2.9643-1.2582l1.4785-.6373c.4911-.2164.9823-.4327,1.4734-.6491l1.4725-.6508c.489-.221.978-.442,1.467-.6631.9794-.4388,1.9532-.8899,2.9273-1.3405.9759-.4464,1.9437-.9103,2.9152-1.3661l.727-.3452c.4836-.2323,1.209-.5809,2.1763-1.0455Z" fill="#ff7300"/><path d="M181.2784,66.7644h0c-.5131.1301-.8964.2438-1.1446.3347l-.3755.1322c-.4958.1878-.9864.3945-1.4634.6301-.2431.1102-.4732.2429-.7092.3671-.2379.1214-.4627.2641-.6927.3995-.2322.1325-.4518.2838-.675.4306-.1105.0749-.225.1446-.3323.2241l-.3238.2362c-.1075.0794-.217.1564-.323.2379l-.3132.2507-.3122.2522c-.1015.0871-.2032.1741-.303.2633l-.3006.2662-.292.2758-.2897.2782-.2799.2882-.2796.2885-.2703.2973-.2698.2977c-.0878.1012-.1723.2052-.2585.3077l-.2574.3086-.2475.3166-.2467.3172-.2361.3253-.2333.3271-.2225.3346-.2217.3349-.2104.3423-.2077.3436-.1953.3511-.1945.3511-.1825.3576c-.0605.1193-.1212.2385-.1791.359l-.1667.365c-.0547.122-.1128.2423-.1646.3655l-.153.3706c-.1038.2461-.1937.4979-.284.7492-.0944.2495-.174.5046-.2528.7593-.1577.5093-.2926,1.0253-.4023,1.5457-.1129.5196-.1953,1.0449-.2597,1.5706-.0332.2626-.0487.5277-.0731.7904-.0174.2638-.0209.5285-.0319.7914,0,0-.0025.0328-.002.0988l.0018.2965c.0011.1316.002.296.0109.4929.0122.1971.025.4265.0454.6875h0c.0353-.2605.0612-.4874.0847-.6815.0254-.1939.0572-.3544.0742-.4832l.0432-.289c.0095-.0641.017-.0959.017-.0959.0508-.2551.094-.5104.1506-.763.0595-.2522.1082-.5054.1751-.7548.1258-.5003.2691-.9944.4288-1.482.084-.2427.1601-.487.2537-.7258.091-.2395.1752-.4807.2783-.7151.0998-.2355.1923-.4731.3022-.7039.1052-.2326.2095-.465.3273-.6915l.1687-.3428c.0569-.1139.1199-.2248.1795-.3373l.1809-.3361.1916-.3302.1904-.3304.2018-.3237.202-.3232.2131-.3162.2111-.3171.222-.3097.2223-.3092.2326-.3017.2311-.3026.2405-.2953.241-.2948.2505-.2869.2504-.2868.2579-.2802.2581-.2799.2672-.2714.2672-.2714.2755-.2631.2732-.2655.2819-.2564c.0945-.0849.1871-.1719.2799-.2588l.2865-.2517c.1914-.1675.3814-.337.578-.4989.1947-.1643.3893-.3291.5889-.488.1983-.1607.3962-.3225.5994-.4778.402-.3169.8137-.6231,1.2291-.9282l.3139-.2262c.1038-.0771.2081-.154.3155-.2257l.6384-.4464.3235-.2199c.2133-.153.5426-.3633.9763-.6715Z" fill="#ff7300"/><path d="M139.4106,143.9533c-.6792,0-1.3149.1818-1.8656.4956.6927-.8271,1.7322-1.3539,2.8955-1.3539,2.0856,0,3.7763,1.6907,3.7763,3.7763,0,1.4064-.7705,2.6309-1.9108,3.2808.5493-.6558.8809-1.5001.8809-2.4225,0-2.0856-1.6907-3.7763-3.7763-3.7763Z" fill="#b9471e"/><path d="M137.0089,132.227c-.6792,0-1.3149.1818-1.8656.4956.6927-.8271,1.7322-1.3539,2.8955-1.3539,2.0856,0,3.7763,1.6907,3.7763,3.7763,0,1.4064-.7705,2.6309-1.9108,3.2808.5493-.6558.8809-1.5001.8809-2.4225,0-2.0856-1.6907-3.7763-3.7763-3.7763Z" fill="#b9471e"/><path d="M134.6071,120.5006c-.6792,0-1.3149.1818-1.8655.4956.6927-.8271,1.7322-1.3538,2.8955-1.3538,2.0856,0,3.7763,1.6907,3.7763,3.7763,0,1.4064-.7705,2.6309-1.9108,3.2808.5493-.6558.8809-1.5001.8809-2.4225,0-2.0856-1.6907-3.7763-3.7763-3.7763Z" fill="#b9471e"/><path d="M132.2053,108.7742c-.6792,0-1.3149.1818-1.8656.4956.6927-.8271,1.7322-1.3538,2.8955-1.3538,2.0856,0,3.7763,1.6907,3.7763,3.7763,0,1.4064-.7704,2.6308-1.9107,3.2807.5493-.6558.8808-1.5001.8808-2.4225,0-2.0856-1.6907-3.7763-3.7763-3.7763Z" fill="#b9471e"/><path d="M129.8035,97.0479c-.6792,0-1.3149.1818-1.8656.4956.6927-.8271,1.7322-1.3538,2.8955-1.3538,2.0856,0,3.7763,1.6907,3.7763,3.7763,0,1.4064-.7704,2.6308-1.9107,3.2807.5493-.6558.8808-1.5001.8808-2.4225,0-2.0856-1.6907-3.7763-3.7763-3.7763Z" fill="#b9471e"/><path d="M127.4018,85.3215c-.6792,0-1.3149.1818-1.8656.4956.6927-.8271,1.7322-1.3538,2.8955-1.3538,2.0856,0,3.7763,1.6907,3.7763,3.7763,0,1.4064-.7704,2.6308-1.9107,3.2807.5493-.6558.8808-1.5001.8808-2.4225,0-2.0856-1.6907-3.7763-3.7763-3.7763Z" fill="#b9471e"/><path d="M125,73.5951c-.6792,0-1.3149.1818-1.8656.4957.6927-.8271,1.7323-1.3539,2.8955-1.3539,2.0856,0,3.7763,1.6907,3.7763,3.7763,0,1.4064-.7705,2.6309-1.9108,3.2808.5493-.6558.8809-1.5001.8809-2.4225,0-2.0856-1.6907-3.7763-3.7763-3.7763Z" fill="#b9471e"/><path d="M122.5982,61.8688c-.6792,0-1.3149.1818-1.8657.4957.6927-.8271,1.7323-1.3539,2.8955-1.3539,2.0856,0,3.7763,1.6907,3.7763,3.7763,0,1.4064-.7705,2.6309-1.9108,3.2808.5493-.6558.8809-1.5001.8809-2.4225,0-2.0856-1.6907-3.7763-3.7763-3.7763Z" fill="#b9471e"/><path d="M141.8124,155.6797c-.6792,0-1.3149.1818-1.8656.4956.6927-.8271,1.7322-1.3539,2.8955-1.3539,1.8586,0,3.4001,1.3439,3.7144,3.1123l-1.0115.9789c-.2641-1.8274-1.8323-3.2329-3.7328-3.2329Z" fill="#b9471e"/><path d="M141.8124,155.6797c-.6792,0-1.3149.1818-1.8656.4956.6927-.8271,1.7322-1.3539,2.8955-1.3539,1.8586,0,3.4001,1.3439,3.7144,3.1123l-1.0115.9789c-.2641-1.8274-1.8323-3.2329-3.7328-3.2329Z" fill="#b9471e"/><path d="M136.4269,127.1109h0c.1188.0047.2237.0005.3157.0005.0906-.005.1649-.0177.226-.0239l.1368-.0191.0446-.01c.2397-.0506.4794-.1242.7077-.2294.113-.0542.2302-.1056.3363-.1748l.1634-.0997c.0529-.0356.1039-.0739.1556-.112.0507-.0391.1035-.0766.153-.1178l.1444-.1289c.0996-.0841.1836-.1827.2721-.2789.1761-.1935.3221-.4132.4577-.6408.0646-.1153.1186-.2366.1777-.3562.051-.1226.0974-.248.1409-.3744.0345-.1287.073-.2575.1022-.3883.0223-.1318.0477-.2643.061-.3976l.0244-.3399v-.0024c-.0043-.154-.0089-.3085-.018-.4627l-.056-.4008c-.0283-.1319-.065-.2622-.0985-.3929-.0362-.13-.0881-.2553-.1347-.3819-.0224-.0638-.052-.1244-.0827-.1846l-.0905-.1809c-.0559-.1229-.1359-.2325-.2072-.3463-.0693-.1155-.1578-.2174-.2401-.3231-.0793-.1084-.1769-.2011-.2707-.2962-.0478-.0466-.0924-.0964-.1431-.1398l-.154-.1277c-.052-.0416-.1029-.0842-.1558-.1242l-.1658-.1106-.1666-.1077c-.0579-.032-.1173-.0616-.1758-.0921l-.1757-.0898c-.0591-.0285-.1224-.049-.1831-.0734-.1227-.0466-.243-.0966-.3715-.1243-.127-.0304-.2496-.0714-.3797-.0837-.1288-.0154-.254-.0426-.3832-.0421,0,0-.0643-.0029-.1917-.0034-.1263-.0085-.3187.0162-.565.0493v.4948s0,.011,0,.033c.2139.0587.3682.0875.4683.1281.1005.0343.1501.0488.1501.0488.1967.0731.387.1515.5653.2501.0917.0427.176.1002.2612.1531.042.0276.0861.0506.126.0811l.1198.0898.1189.0887c.0366.0337.0731.0672.1104.0993l.1111.0964c.0347.0348.0674.0716.1012.1069.0333.0359.0675.0705.1018.1049.0339.0348.0617.0755.093.1126.0614.0754.1236.1493.1753.2314.0533.0805.1138.1558.156.2429.0234.042.0459.0844.0705.1256.0261.0404.0466.0836.0652.1279.0847.172.1485.3522.2071.5336.022.0929.049.1845.0694.2777.0146.0944.0314.1885.0484.2828l.0243.33v.0017c-.0004.0815-.0008.1631-.0012.2446-.0019.0965-.0178.1916-.0224.2886-.0111.096-.0299.1909-.0434.2876-.0238.0939-.0459.1889-.0681.2847-.0317.0922-.0571.188-.0925.2801-.0393.0901-.0678.1872-.1137.2757l-.0666.1348c-.0198.0468-.0445.0907-.0705.1339-.0505.0876-.0996.1777-.1597.2605l-.0857.1292c-.0301.042-.0638.081-.0957.1222-.0325.0405-.0629.0841-.0966.1244l-.1062.1168c-.0689.0817-.1463.1543-.2244.2291-.1558.15-.3285.2859-.512.4177l-.0341.0257-.1076.0674c-.0481.0305-.108.0712-.1827.1163-.0754.0433-.1658.0896-.2701.1521Z" fill="url(#uuid-5e9344e3-f59c-4d8a-8eac-b66a9a1529ba)"/><path d="M138.8395,138.8344h0c.1187.0044.2235,0,.3154-.0003.0905-.0053.1647-.0181.2257-.0244l.1366-.0195.0445-.0101c.2393-.0511.4787-.1252.7064-.2309.1129-.0542.2297-.1061.3355-.1754l.1631-.0999c.0525-.0359.1037-.0741.1552-.1123.0506-.0392.1035-.0766.1525-.1181l.1441-.129c.0994-.0841.1828-.1831.2713-.2792.1755-.1938.3209-.4135.456-.641.0638-.1156.1181-.2366.1768-.3561.0499-.1229.0974-.2478.1397-.3744.0342-.1287.0732-.2572.1014-.388.022-.1317.048-.264.0602-.3972l.0238-.3324v-.0024c-.0044-.1562-.0085-.313-.0187-.4694l-.056-.4004c-.0293-.1315-.0653-.2618-.099-.3924-.0372-.1295-.0883-.2549-.1351-.3813-.0223-.0638-.0528-.1239-.0831-.1842l-.0904-.1807-.0456-.09-.0529-.0859-.109-.1697c-.0691-.1154-.1582-.2167-.2402-.3225-.0792-.1083-.1772-.2004-.2707-.2957-.0479-.0465-.0921-.0965-.1432-.1394l-.1539-.1275c-.052-.0415-.1027-.0843-.1558-.1239l-.1656-.1105-.1664-.1076-.1757-.0918-.1756-.0896c-.0592-.0281-.1223-.0488-.183-.0731-.1226-.0467-.2428-.0963-.3712-.124-.1269-.0304-.2494-.0711-.3794-.0835-.1287-.0153-.2538-.0426-.3828-.0419,0,0-.0643-.0029-.1915-.0033-.1261-.0085-.3184.0164-.5644.0494v.4948s0,.011,0,.033c.2137.0588.3678.0874.4678.128.1004.0343.15.0488.15.0488.1965.073.3866.1512.5647.2498.0916.0427.1759.0999.2609.1528.042.0275.0859.0508.1259.0809l.1196.0897.1189.0884c.0366.0337.073.0672.1102.0992l.111.0964c.035.0343.0674.0715.1013.1067.0333.0359.0675.0704.1017.1048.0343.0344.0618.0753.0931.1123.0611.0755.1237.1489.1753.231.1141.1555.206.3253.292.4955.0847.1719.1486.3517.2077.5328.0222.0927.0484.1845.0698.2773.0146.0943.0313.1883.0482.2825l.0253.3347v.0017c-.0003.0797-.0008.1595-.0012.2392-.0009.0965-.0175.1914-.0219.2884-.0102.096-.0296.1907-.0428.2873-.0227.0941-.046.1886-.0671.2846-.0314.0922-.0572.1877-.0919.28-.039.0901-.0679.1868-.1131.2756l-.0663.1347c-.0198.0467-.0438.0909-.0701.134-.0505.0874-.0991.1778-.159.2606l-.0854.1292c-.0297.0423-.0635.0811-.0953.1224-.0324.0406-.0628.0839-.0961.1246l-.1058.1169c-.0687.0817-.1456.1547-.2235.2294-.1552.1504-.3274.2866-.5104.4187l-.034.0257-.1073.0677c-.0479.0306-.1077.0714-.1822.1167-.0752.0435-.1653.09-.2694.1528Z" fill="url(#uuid-15e59c23-9454-449c-b647-e6a70a4b9dd9)"/><path d="M141.2522,150.558h0c.1186.0041.2233-.0007.3151-.0011.0903-.0056.1645-.0185.2254-.025l.1364-.0199.0445-.0101c.2389-.0516.4779-.1262.7051-.2324.1127-.0543.2291-.1067.3348-.176l.1628-.1001c.0522-.0363.1034-.0743.1547-.1126.0504-.0393.1034-.0765.152-.1184l.1438-.1291c.0993-.0842.182-.1834.2705-.2794.1748-.194.3196-.4138.4544-.6412.063-.1159.1176-.2366.176-.3561.0488-.1231.0973-.2476.1385-.3744.0338-.1286.0734-.2569.1006-.3878.0217-.1316.0484-.2637.0595-.3969l.0232-.3249v-.0024c-.0045-.1584-.008-.3176-.0195-.476l-.056-.4c-.0304-.1312-.0656-.2615-.0995-.3919-.0381-.1291-.0885-.2546-.1355-.3807-.0222-.0637-.0535-.1235-.0834-.1838l-.0903-.1805-.0456-.0899-.0532-.0857-.1089-.1695c-.069-.1153-.1587-.2161-.2403-.3219-.0791-.1082-.1776-.1998-.2707-.2951-.0912-.0973-.1928-.1837-.297-.2664-.0521-.0413-.1024-.0844-.1559-.1235l-.1655-.1104-.1662-.1075-.1757-.0915-.1754-.0895c-.0594-.0277-.1222-.0486-.1829-.0729-.1224-.0467-.2426-.096-.3708-.1236-.1267-.0305-.2492-.0709-.379-.0832-.1285-.0152-.2535-.0426-.3824-.0417,0,0-.0642-.0029-.1913-.0033-.126-.0085-.3181.0165-.5638.0494v.4948s0,.011,0,.033c.2135.0588.3674.0873.4674.128.1003.0343.1498.0488.1498.0488.1963.0729.3862.1509.5642.2495.0915.0427.1758.0996.2607.1526.042.0274.0857.0509.1259.0807l.1195.0896.1189.0882c.0365.0337.0729.0671.1101.0992l.1109.0963c.0353.0339.0674.0713.1013.1064.0332.0358.0674.0704.1016.1047.0346.0339.0618.0751.0932.112.0607.0756.1239.1485.1753.2306.1141.1554.206.3248.2923.4947l.0594.1303c.02.0433.0417.0859.0547.132.0287.0909.0683.178.0941.2697l.0702.2769c.0146.0942.0312.1881.0481.2822.0114.1126.015.2261.0262.3394v.0017c-.0003.0779-.0007.1558-.0012.2338.0001.0965-.0172.1913-.0213.2881-.0092.0961-.0292.1906-.0422.2871-.0217.0943-.046.1883-.0661.2845-.0312.0922-.0574.1873-.0913.2799-.0388.0901-.0679.1865-.1124.2755l-.0661.1346-.0319.0688-.0377.0653c-.0505.0872-.0985.1779-.1582.2607l-.0851.1291c-.0293.0427-.0632.0813-.0948.1226l-.0957.1248-.1055.1169c-.0685.0817-.145.1551-.2227.2298-.1546.1507-.3262.2872-.5087.4197l-.0339.0258-.107.0681c-.0478.0308-.1074.0715-.1816.1172-.075.0437-.1649.0905-.2686.1535Z" fill="url(#uuid-4a8155d7-af45-4752-931d-a79361e1a473)"/><path d="M124.3629,68.4905h0c.119.0047.2247.0032.3165.0022.0908-.0045.1654-.0168.2267-.0226l.1373-.0181.0449-.0095c.06-.0126.1198-.0273.1802-.0416.0603-.0146.122-.0275.1799-.0494l.177-.0617.0891-.0319.0855-.0392c.1132-.0541.2322-.1033.3389-.1719l.1646-.0986c.0547-.0337.105-.073.1575-.1103l.1552-.1161.1457-.1282c.0481-.0435.0987-.0855.1428-.1332l.1333-.1434c.093-.0934.1686-.2005.2484-.3057l.0594-.0794.053-.0836.1056-.1687c.0363-.056.0639-.1163.0939-.1757l.0886-.1795c.0557-.1213.0998-.2479.1476-.3736.0399-.1279.0734-.2583.1082-.3886.024-.1322.0482-.2651.0676-.3987l.0279-.3763v-.0013c-.0001-.0719-.0003-.1439-.0005-.2158-.0027-.072-.007-.144-.0111-.216-.0124-.135-.028-.2699-.0524-.4036-.0251-.1335-.055-.2663-.0929-.397-.0728-.2622-.1746-.5161-.299-.7577-.1226-.2427-.2739-.4698-.4416-.6822-.169-.2116-.3595-.4051-.5654-.5784-.2073-.1719-.43-.3241-.6661-.4497-.0584-.0323-.119-.0607-.1784-.0907-.0597-.0295-.1222-.0534-.1831-.08-.1231-.0502-.2477-.096-.3752-.1318-.2537-.0744-.5136-.1222-.7734-.14l-.0487-.0032c-.0324-.0021-.0808-.0062-.1459-.0053-.0649.0004-.1455-.0028-.2421.0053-.0964.0037-.2084.0172-.3343.0364v.6262s0,.0139,0,.0417c.2115.0446.3628.0845.4629.1147.0502.0136.0869.0273.1116.035l.0369.0121c.1958.0666.3836.1453.5623.2376.0892.0464.1763.0955.2609.1478.0844.0528.166.109.2462.1663.1584.1176.3081.2446.444.3843.1371.1383.2611.2879.3727.4451.1129.1564.2084.3238.2943.4949.0841.1722.1526.3513.2087.5342.0283.0914.0504.1847.0696.2786.0203.0937.035.1886.0477.284l.0161.1532.0088.1543v.0009c-.001.09-.0015.1802-.0008.2709l-.022.2906-.0466.289-.035.1427c-.0121.0475-.0185.0973-.0349.1437l-.0455.1412c-.0154.0471-.0282.0957-.0495.1406-.0698.1869-.1562.3695-.2576.5466l-.0775.1329c-.0255.045-.0585.0841-.0864.1279l-.0875.1296-.0986.1215c-.0335.0403-.0636.0849-.0994.1236l-.1084.1165c-.0702.0817-.1505.1522-.2297.227-.1596.148-.3359.2816-.5231.4103l-.0349.0249-.1096.0654c-.049.0294-.1099.0696-.1861.1123-.0771.0401-.1683.0865-.2745.146Z" fill="url(#uuid-21e15752-e132-48c7-903e-a0f95abc170d)"/><path d="M126.7758,80.2151h0c.1192.006.2246.0029.3169.0039.0911-.0038.1657-.016.2271-.0215l.1376-.0177.0449-.0094.1805-.0412c.0605-.0144.1222-.0274.1802-.0492l.1773-.0616c.0603-.0194.1186-.0432.1748-.0711.1134-.0541.2324-.1035.3393-.1723l.1647-.0989c.0545-.034.1051-.0732.1575-.1108l.155-.1166.1457-.1285c.1003-.084.1869-.181.2755-.2777.1787-.1925.3273-.4119.4644-.6397.068-.1142.1206-.2367.181-.3562.0549-.1217.0986-.2485.1449-.3746.0375-.1285.0725-.2585.1062-.389.0235-.1322.0464-.2653.0639-.3989l.0268-.3695v-.0024c-.0053-.1455-.0107-.2909-.0161-.4364-.0155-.1342-.0351-.2685-.0547-.4026-.0241-.1332-.0639-.2635-.0965-.395-.0767-.2599-.1771-.5133-.3051-.752-.0564-.1233-.1336-.235-.2065-.3487-.0697-.1159-.156-.22-.2397-.3254-.0427-.052-.0818-.1069-.1292-.1548l-.1415-.1437c-.0476-.0472-.0936-.096-.1428-.1413l-.1546-.1283-.1558-.1255-.1663-.1113-.1672-.1083c-.0572-.0336-.1175-.0623-.1759-.0933l-.1764-.0902c-.0586-.0299-.1226-.0496-.1835-.0745-.1234-.0464-.2437-.0979-.3727-.1256-.2511-.0726-.5098-.1119-.7658-.1275,0,0-.0646-.003-.1925-.0035-.1268-.0086-.32.0158-.5673.0489v.4948s0,.011,0,.033c.2148.0587.3696.0877.4702.1284.1009.0344.1507.0489.1507.0489.1975.0735.3883.1525.5674.2515.0922.0427.1763.1016.262.154.0873.0498.1665.1125.2464.172.0396.0303.0809.0578.119.0896.0368.0338.0734.0674.1108.0996l.1116.0968.1011.108c.0334.036.0679.0707.1023.1052.0324.0366.0616.0762.0926.1137l.0921.1132c.0306.0377.0545.0806.0831.1197.0547.0801.113.1573.1557.2445.0445.0857.0999.165.1351.2551.0847.1727.1482.3542.205.5368.0213.0934.0515.1848.0679.2792l.0478.2841.0216.3112v.0017c-.0004.0886-.0009.1773-.0013.2659-.0059.0965-.019.1923-.0245.2897l-.0466.2882c-.0263.0936-.0454.1901-.0712.2851-.0327.0923-.0565.1894-.0951.2805-.0697.1861-.1559.3678-.2565.5445l-.0771.1325c-.025.0452-.0582.0838-.0857.1276l-.0869.1293-.0977.1214c-.0332.0402-.0632.0847-.0984.1236l-.1075.1165c-.0697.0816-.149.1527-.2277.2276-.1582.1486-.333.2832-.5188.4134l-.0346.0252-.1089.0663c-.0487.03-.1092.0704-.1848.1144-.0762.0425-.1675.0879-.2731.1492Z" fill="url(#uuid-4dcb6aad-2fd7-4dfb-82d9-092ec56f0aa7)"/><path d="M131.6015,103.6637h0c.119.0054.2242.0017.3163.0022.0908-.0044.1653-.0168.2266-.0227l.1372-.0184.0448-.0097.18-.042c.0604-.0145.1218-.0281.1795-.0502.1154-.0435.2395-.0767.3507-.1343.1132-.0542.2313-.1046.3378-.1736l.1641-.0993c.0537-.0348.1045-.0736.1566-.1114.0511-.0388.1036-.0768.154-.1173l.145-.1288c.0999-.0841.1852-.1819.2738-.2784.1774-.1931.3246-.4126.461-.6403.0663-.1148.1196-.2367.1793-.3562.0531-.1221.0976-.2483.1433-.3744.0352-.1288.0725-.258.1038-.3887.0229-.132.047-.2648.0625-.3982l.0256-.355v-.0024c-.0054-.1498-.0109-.2996-.0164-.4493l-.0559-.4017c-.0262-.1326-.0644-.2629-.0974-.394-.0148-.0662-.0403-.129-.063-.1928l-.0709-.1903-.0371-.0944-.0449-.091-.0906-.1814c-.0561-.1231-.1347-.2338-.2068-.3475-.0695-.1157-.1569-.2187-.2399-.3243-.0796-.1085-.1763-.2024-.2706-.2974-.0477-.0469-.093-.0962-.1429-.1406l-.1543-.128-.1558-.1249-.1661-.1109-.1669-.108c-.0576-.0328-.1174-.062-.1758-.0927l-.1761-.09c-.0589-.0292-.1225-.0493-.1833-.074-.1231-.0465-.2433-.0973-.3721-.125-.2506-.0724-.5089-.1113-.7644-.1267,0,0-.0645-.0029-.1921-.0034-.1265-.0085-.3194.016-.5662.0491v.4948s0,.011,0,.033c.2144.0587.3689.0876.4693.1283.1007.0344.1504.0489.1504.0489.1971.0733.3877.152.5664.2508.0919.0427.1761.1009.2616.1536.0871.0498.1665.1117.2461.1715.0396.0301.0805.0581.1189.0892.0367.0338.0733.0673.1106.0995l.1114.0966.1011.1075c.0334.0359.0677.0706.1021.105.0331.0357.0617.0758.0928.1132l.0918.1131c.0315.0368.0547.0802.0834.1191.054.0803.1134.1566.1558.2437.0437.0859.1005.1643.1354.2543.0847.1724.1483.3532.2061.5352.0216.0931.0503.1847.0687.2785.0147.0946.0316.1888.0486.2834l.0224.3205v.0017c-.0004.0852-.0008.1703-.0013.2555-.0039.0965-.0184.192-.0235.2892l-.0446.288c-.0259.0935-.0459.1895-.07.2848-.0322.0923-.0568.1887-.0938.2804-.0691.1859-.1542.3676-.2536.5445-.0504.088-.1008.1775-.1612.2604l-.0863.1293c-.031.0413-.0644.0808-.0967.1218-.0329.0404-.063.0844-.0975.124l-.1068.1167c-.0693.0817-.1476.1535-.226.2284-.157.1494-.3307.2846-.5154.4156l-.0344.0255-.1083.0668c-.0484.0303-.1086.0708-.1838.1154-.0758.0429-.1666.0887-.2716.1507Z" fill="url(#uuid-79366233-802a-499b-a1a8-e6dcfad43fec)"/><path d="M134.0142,115.3873h0c.1189.0051.224.0011.316.0014.0907-.0047.1651-.0173.2263-.0233l.137-.0187.0447-.0099.1797-.0424c.0603-.0145.1215-.0285.1792-.0506.1153-.0436.239-.0773.3501-.135.1131-.0542.2308-.1051.337-.1742l.1637-.0995c.0533-.0352.1042-.0737.1561-.1117.0509-.0389.1035-.0767.1535-.1175l.1447-.1288c.0998-.0841.1844-.1823.273-.2786.1768-.1933.3234-.4129.4593-.6405.0655-.1151.1191-.2366.1785-.3562.0521-.1224.0975-.2482.1421-.3744.0348-.1288.0727-.2578.1029-.3885.0226-.1319.0473-.2645.0617-.3979l.025-.3475v-.0024c-.0041-.1518-.0094-.304-.0172-.456l-.0559-.4012c-.0272-.1322-.0647-.2625-.0979-.3935-.0147-.0661-.0412-.1286-.0635-.1924l-.0708-.19c-.0225-.0638-.0512-.1249-.0823-.185l-.0905-.1812c-.056-.123-.1353-.2332-.207-.3469-.0694-.1156-.1573-.218-.24-.3237-.0794-.1085-.1766-.2017-.2707-.2968-.0478-.0468-.0927-.0963-.143-.1402l-.1542-.1278-.1558-.1246-.1659-.1108-.1667-.1079c-.0578-.0324-.1173-.0618-.1758-.0924l-.1759-.0899c-.059-.0288-.1224-.0491-.1832-.0737-.1229-.0466-.2432-.0969-.3718-.1246-.2504-.0723-.5084-.111-.7636-.1262,0,0-.0644-.0029-.1919-.0034-.1264-.0085-.3191.0161-.5656.0492v.4948s0,.011,0,.033c.2142.0587.3685.0875.4688.1282.1006.0343.1503.0488.1503.0488.1969.0732.3873.1517.5658.2505.0918.0427.176.1006.2614.1533.042.0277.0863.0505.126.0814l.1199.0898c.0397.03.0802.0582.1189.0889.0366.0338.0732.0673.1105.0994l.1113.0965.1012.1072c.0333.0359.0676.0705.102.105.0335.0353.0617.0757.0929.1129l.0917.113c.0319.0364.0548.0801.0835.1188.0537.0804.1136.1562.1559.2433.0433.086.1008.1639.1356.2538.0847.1722.1484.3527.2066.5344.0218.093.0496.1846.069.2781.0147.0945.0314.1887.0485.2831l.0233.3252v.0017c-.0004.0833-.0008.1667-.0012.25-.0029.0965-.0181.1918-.0229.2889-.0121.0959-.0302.1911-.044.2878-.0249.0937-.0459.1892-.0691.2847-.0319.0923-.0569.1884-.0932.2803-.0395.0901-.0677.1875-.1144.2757l-.0668.1349c-.0199.0469-.0451.0904-.071.1338-.0505.0878-.1002.1776-.1605.2604l-.086.1292c-.0306.0417-.0641.0809-.0962.122-.0327.0405-.063.0842-.097.1242l-.1065.1167c-.0691.0817-.147.1539-.2252.2287-.1564.1497-.3296.2853-.5137.4166l-.0343.0256-.108.0671c-.0482.0304-.1083.071-.1832.1158-.0756.0431-.1662.0892-.2708.1514Z" fill="url(#uuid-0f89678c-00c4-42af-9c40-0c5c4b4bd895)"/><path d="M129.1887,91.9398h0c.1194.007.2249.0043.3174.0059.0912-.0034.166-.0153.2276-.0206l.1378-.0173.045-.0093c.0603-.0122.1202-.0268.1809-.0409.0606-.0143.1225-.0273.1805-.0491l.1776-.0615c.0605-.0193.1187-.0434.1751-.0713.1137-.054.2327-.1038.3397-.1728l.1649-.0992c.0542-.0345.1052-.0734.1575-.1112l.1548-.1172.1457-.129c.1003-.0843.1863-.182.275-.279.1782-.1934.3259-.4137.4623-.6422.0669-.1149.1196-.2375.1793-.3573.0538-.1222.0973-.2491.1428-.3755.0359-.129.0715-.2588.1036-.3896.0225-.1323.0453-.2655.0612-.3991l.0244-.3626v-.0024c-.0063-.1475-.0127-.295-.0191-.4425-.0174-.1339-.037-.2678-.0578-.4014-.026-.1326-.0659-.2624-.0995-.3933-.0787-.2586-.1813-.5101-.3107-.7467-.0569-.1224-.1356-.2326-.2089-.3452-.0703-.1147-.1578-.2171-.2417-.3214-.0802-.1074-.1772-.2003-.2722-.2938-.0479-.0464-.0937-.0946-.1435-.1387-.0513-.0425-.1027-.0848-.155-.1258l-.1561-.1228-.1664-.1085c-.0552-.0362-.1113-.0709-.1671-.1054-.0573-.0323-.1174-.0602-.1757-.0902l-.1759-.0872c-.0586-.0285-.1223-.0474-.1829-.0711-.1228-.0444-.2425-.0934-.3707-.1189-.2494-.0681-.5058-.1027-.7586-.1135,0,0-.0638-.0018-.19,0-.125-.0062-.3156.0219-.5582.0599v.3584s0,.008,0,.0239c.219.0636.3762.0962.4783.1392.1024.0368.1529.0524.1529.0524.2002.0781.393.1614.5734.2647.0928.0449.1775.1056.2636.1602.0876.0518.1672.1163.2472.1778.0397.0312.0808.0598.1191.0923.0368.0347.0733.0693.1107.1023l.1114.0993.1007.1103c.0333.0368.0674.0723.1017.1075.0326.0369.0613.0775.0921.1157l.0912.1153c.0307.038.054.0818.0823.1214.0538.0814.112.1594.1538.2476.0434.0869.0987.1668.133.2576.0832.1743.1449.3569.2006.5402.0206.0938.0492.1856.0657.2801l.0457.2845.0192.316v.0017c-.001.0869-.0021.1738-.0032.2607-.0056.0964-.02.1919-.026.2889l-.0471.2874c-.0265.0933-.0466.1891-.0719.2839-.0327.0919-.0572.1883-.0952.2794-.0698.1853-.1556.3662-.2554.5424-.0503.0879-.1012.1767-.1616.2594l-.0862.129-.0968.1214c-.033.0401-.0628.0844-.0975.1237l-.1067.1165c-.0692.0816-.1475.1532-.2257.2282-.1568.1493-.3301.2849-.5145.4166l-.0343.0256-.1081.0673c-.0483.0305-.1085.0714-.1836.1164-.0757.0435-.1666.0898-.2715.1528Z" fill="url(#uuid-9f721466-9af1-4fd6-a419-c2d425b0912e)"/><path d="M143.4884,155.358c.2045.0799.4054.1541.5904.2614.1855.1023.3681.2059.5301.3375.0857.0584.162.1287.2387.1976.0799.0646.1556.1334.2238.2103.1457.1427.2696.3061.3841.4713.1192.1625.2152.3401.3047.5183.0884.1797.1551.3678.2163.5572.0554.1919.0917.3874.123.5853.0054.073.0107.1459.0161.219l1.1181-.3858c-.1819-2.0568-1.9463-3.6715-4.0993-3.6715-.0985,0-.1951.0078-.2919.0145v.5014c.2234.0612.3844.0917.4892.1327.1045.034.1568.051.1568.051Z" fill="url(#uuid-ea069dce-7c31-489b-9ec7-68ccc85fc799)"/><path d="M123.3614,51.814c.3982.5983.6312,1.3161.6312,2.0887,0,.9224-.3316,1.7666-.8809,2.4225,1.1403-.6499,1.9108-1.8743,1.9108-3.2807,0-.5682-.129-1.1049-.3538-1.5883l-1.3073.3578Z" fill="#b9471e"/><path d="M121.981,56.8257h0c.0765.0162.1445.0268.2027.0332.0581.0056.1069.0085.1464.0115l.1174.0012c.0793.0016.1566-.0067.2364-.0117l.1176-.0152c.0395-.0052.0793-.0103.1178-.0191.1574-.0279.3108-.0739.4642-.1263.1507-.0569.301-.1218.4433-.202.0729-.0378.141-.0828.2113-.126.0676-.0463.1368-.0919.2015-.143.1321-.0995.2553-.2112.3726-.3295.1157-.1198.2247-.2471.3235-.3826.0495-.0676.0957-.1378.1414-.2083.043-.0721.0876-.1436.1264-.2184.0807-.1479.1483-.3029.2085-.4606.0576-.1586.1071-.3205.1429-.4855.0362-.1648.0624-.3318.0745-.4995.016-.1739.013-.3484.004-.5212v-.0013c-.0106-.1723-.0392-.3382-.0782-.4957-.0203-.0821-.0442-.162-.0709-.2395-.0262-.0776-.0537-.1533-.0853-.2263-.0612-.1466-.1294-.285-.2033-.4162,0,0-.0173-.0334-.0559-.0973-.038-.0638-.095-.159-.1787-.2782l-.0794.0258-.0397.0129-.0397.0129-.0397.0129-.0397.0129-.0397.0129-.0397.0129-.0397.0129-.0397.0129-.0397.0129-.0397.0129-.0397.0129-.0397.0129-.0397.0129-.0397.0129c.0052.1531.0173.2613.0241.3335.0032.0359.006.0627.0083.0804l.0028.0264c.0145.1412.0306.2766.0422.407.005.0654.011.129.0146.1914.0033.0625.0053.1236.0064.183.0021.1142-.0026.2228-.0127.3254v.0009c-.0145.1254-.027.2496-.0502.3717-.0084.0592-.0234.1172-.0335.1758-.0144.0578-.0256.1162-.0415.1735-.0159.0572-.0295.115-.0483.1713-.0159.0572-.0359.113-.0546.1694-.0402.1116-.0817.2232-.1318.3314-.0473.1095-.1021.216-.1597.3217-.0568.1063-.121.209-.1863.3125-.0686.1007-.1366.2045-.2141.302-.0362.0514-.078.0974-.1164.1483l-.0617.0722c-.02.025-.041.0491-.0627.0724-.0838.0977-.1758.1885-.2693.283-.0482.0448-.095.0941-.1462.1372-.0255.0217-.05.0458-.0756.0686l-.0783.0665c-.1053.0892-.2159.1773-.3328.2632l-.0885.0653-.2793.1973Z" fill="url(#uuid-20b2bfef-ced6-4332-9271-fdce07dc4f13)"/><path d="M47.5909,95.1914c7.4401,2.0546,9.1056,3.7201,11.1602,11.1602,2.0544-7.4401,3.72-9.1056,11.1602-11.1602-7.4402-2.0544-9.1057-3.72-11.1602-11.1602-2.0546,7.4402-3.7201,9.1057-11.1602,11.1602Z" fill="#f75e28"/><path d="M48.5538,93.1265c7.4401,2.0544,9.1056,3.72,11.16,11.16,2.0546-7.4401,3.7201-9.1056,11.1602-11.16-7.4401-2.0546-9.1056-3.7201-11.1602-11.1602-2.0544,7.4401-3.72,9.1056-11.16,11.1602Z" fill="url(#uuid-d6ba297c-3a5a-4122-9c0f-dabb8b097c23)"/><path d="M60.2263,116.7438c14.4688,3.9954,17.7076,7.2344,21.7031,21.7031,3.9954-14.4688,7.2344-17.7078,21.7031-21.7031-14.4688-3.9955-17.7078-7.2344-21.7031-21.7031-3.9955,14.4688-7.2344,17.7076-21.7031,21.7031Z" fill="#f75e28"/><path d="M61.1892,114.6787c14.4686,3.9955,17.7076,7.2344,21.703,21.7031,3.9955-14.4688,7.2344-17.7076,21.7031-21.7031-14.4688-3.9954-17.7076-7.2344-21.7031-21.7031-3.9954,14.4688-7.2344,17.7078-21.703,21.7031Z" fill="url(#uuid-d5727dc8-9997-4c03-9084-22eaaa3c8b19)"/><rect x="26.3879" y="138.2276" width="3.7067" height="31.0581" transform="translate(-30.5438 8.9016) rotate(-11.6805)" fill="url(#uuid-e8685b31-2a44-4903-bf0a-1fdf459acf83)"/></g><g id="uuid-c13302cd-6a3a-46cf-9463-dcb2a6cbad42"><ellipse cx="71.95" cy="181.5914" rx="46.0755" ry="5.3503" fill="#090909" opacity=".8"/></g></svg>