<svg xmlns="http://www.w3.org/2000/svg" xmlns:xlink="http://www.w3.org/1999/xlink" viewBox="0 0 200 200"><defs><radialGradient id="k" cx="132.118" cy="99.541" fx="132.118" fy="99.541" r="2.672" gradientTransform="rotate(1.232 3257.918 133.148) scale(1 1.67524)" xlink:href="#a"/><radialGradient id="l" cx="134.519" cy="111.266" fx="134.519" fy="111.266" r="2.671" gradientTransform="rotate(1.232 3628.5 148.83) scale(1 1.67524)" xlink:href="#a"/><radialGradient id="g" cx="139.323" cy="134.715" fx="139.323" fy="134.715" r="2.67" gradientTransform="rotate(1.232 4369.665 180.197) scale(1 1.67524)" xlink:href="#a"/><radialGradient id="h" cx="141.724" cy="146.44" fx="141.724" fy="146.44" r="2.669" gradientTransform="rotate(1.232 4740.249 195.88) scale(1 1.67524)" xlink:href="#a"/><radialGradient id="i" cx="124.912" cy="64.335" fx="124.912" fy="64.335" r="2.686" gradientTransform="rotate(1.232 2145.177 86.056) scale(1 1.67524)" xlink:href="#a"/><radialGradient id="j" cx="127.314" cy="76.091" fx="127.314" fy="76.091" r="2.673" gradientTransform="rotate(1.232 2516.732 101.78) scale(1 1.67524)" xlink:href="#a"/><radialGradient id="a" cx="136.921" cy="122.99" fx="136.921" fy="122.99" r="2.671" gradientTransform="rotate(1.232 3999.082 164.514) scale(1 1.67524)" gradientUnits="userSpaceOnUse"><stop offset="0" stop-color="#ff5b00"/><stop offset=".2" stop-color="#fe5c02"/><stop offset=".347" stop-color="#fe620c"/><stop offset=".477" stop-color="#fe6b1c"/><stop offset=".597" stop-color="#fe7932"/><stop offset=".71" stop-color="#fd8a50"/><stop offset=".819" stop-color="#fc9f73"/><stop offset=".921" stop-color="#fcb89d"/><stop offset=".947" stop-color="#fcbfa9"/></radialGradient><radialGradient id="m" cx="129.716" cy="87.848" fx="129.716" fy="87.848" r="2.66" gradientTransform="rotate(1.232 2888.329 117.507) scale(1 1.67524)" xlink:href="#a"/><radialGradient id="b" cx="-995.687" cy="114.344" fx="-995.687" fy="114.344" r="21.703" gradientTransform="matrix(-1 0 0 1 -912.91 0)" gradientUnits="userSpaceOnUse"><stop offset=".542" stop-color="#fff"/><stop offset=".627" stop-color="#fefefc"/><stop offset=".69" stop-color="#fefaf2"/><stop offset=".746" stop-color="#fdf5e2"/><stop offset=".798" stop-color="#fceecc"/><stop offset=".846" stop-color="#fbe4af"/><stop offset=".889" stop-color="#fada8e"/></radialGradient><radialGradient id="n" cx="-972.509" cy="92.791" fx="-972.509" fy="92.791" r="11.16" xlink:href="#b"/><radialGradient id="o" cx="143.808" cy="157.197" fx="143.808" fy="157.197" r="3.234" gradientUnits="userSpaceOnUse"><stop offset=".409" stop-color="#ff5b00"/><stop offset=".562" stop-color="#fd7c38"/><stop offset=".744" stop-color="#fca074"/><stop offset=".877" stop-color="#fcb69a"/><stop offset=".947" stop-color="#fcbfa9"/></radialGradient><radialGradient id="p" cx="-514.145" cy="-63.866" fx="-514.145" fy="-63.866" r="1.116" gradientTransform="matrix(2.16343 0 0 -43.46844 1140.46 -2622.72)" gradientUnits="userSpaceOnUse"><stop offset="0" stop-color="#fdf2ef" stop-opacity=".7"/><stop offset=".293" stop-color="#fff" stop-opacity="0"/></radialGradient><radialGradient id="q" cx="122.83" cy="53.44" fx="122.83" fy="53.44" r="2.337" gradientTransform="matrix(1 0 0 1.53754 0 -28.726)" gradientUnits="userSpaceOnUse"><stop offset="0" stop-color="#ff5b00"/><stop offset=".211" stop-color="#fe5c02"/><stop offset=".366" stop-color="#fe620c"/><stop offset=".503" stop-color="#fe6b1c"/><stop offset=".63" stop-color="#fe7932"/><stop offset=".75" stop-color="#fd8a50"/><stop offset=".865" stop-color="#fc9f73"/><stop offset=".973" stop-color="#fcb89d"/><stop offset="1" stop-color="#fcbfa9"/></radialGradient><linearGradient id="e" x1="-1025.794" y1="142.956" x2="-994.897" y2="27.092" gradientTransform="matrix(-1 0 0 1 -912.91 0)" gradientUnits="userSpaceOnUse"><stop offset=".351" stop-color="#ff8000" stop-opacity="0"/><stop offset=".445" stop-color="#ff962c" stop-opacity=".173"/><stop offset=".647" stop-color="#ffc285" stop-opacity=".523"/><stop offset=".812" stop-color="#ffe3c6" stop-opacity=".78"/><stop offset=".931" stop-color="#fff7ef" stop-opacity=".939"/><stop offset=".992" stop-color="#fff"/></linearGradient><linearGradient id="d" x1="-979.37" y1="150.127" x2="-932.638" y2="-54.953" gradientTransform="matrix(-1 0 0 1 -912.91 0)" gradientUnits="userSpaceOnUse"><stop offset=".029" stop-color="#f75e28"/><stop offset=".47" stop-color="#d44c28"/><stop offset=".728" stop-color="#c64528"/></linearGradient><linearGradient id="c" x1="20.891" y1="96.574" x2="25.882" y2="93.159" gradientUnits="userSpaceOnUse"><stop offset=".171" stop-color="#ff8000"/><stop offset=".886" stop-color="#f75e28"/></linearGradient><linearGradient id="f" x1="-1103.597" y1="152.17" x2="-922.848" y2="49.05" gradientTransform="matrix(-1 0 0 1 -912.91 0)" gradientUnits="userSpaceOnUse"><stop offset="0" stop-color="#ff5b00"/><stop offset=".131" stop-color="#ff5f00"/><stop offset=".276" stop-color="#ff6c00"/><stop offset=".324" stop-color="#ff7300"/><stop offset=".685" stop-color="#ff8000"/><stop offset=".9" stop-color="#fcc87e"/><stop offset="1" stop-color="#fbe7b4"/></linearGradient><linearGradient id="r" x1="49.357" y1="185.82" x2="72.46" y2="144.613" xlink:href="#c"/></defs><path d="M31.103 170.095a325.864 325.864 0 0 0 83.603-4.795s-31.252 8.786-85.95 7.025a2.65 2.65 0 0 1-2.511-2.142l-6.01-30.76a1.362 1.362 0 0 1 .382-1.237c.502-.492 1.591-1.384 2.148-1.834.227-.182.476-.33.745-.438 3.906-1.568 10.574-3.97 12.28-11.295 2.32-9.963-6.954-23.815-24.17-27.384-.96-.2-1.717-.941-1.922-1.9-2.149-10.027-3.987-18.792-6.136-28.82-.1-.47.044-.96.384-1.3l2.057-2.47c2.147 10.02 3.783 19.557 5.855 29.507a3.653 3.653 0 0 0 2.77 2.815c16.772 3.791 25.768 17.405 23.479 27.235-1.927 8.275-11.532 12.497-14.743 13.695a1.21 1.21 0 0 0-.762 1.368l5.955 30.475a2.797 2.797 0 0 0 2.546 2.255" fill="url(#d)"/><path d="m5.744 63.754 6.448 30.09c.101.47.48.83.953.917 17.723 3.303 27.317 17.426 24.962 27.54-1.931 8.294-11.575 12.516-14.764 13.703-.543.203-.856.77-.745 1.338l6.195 31.705c.102.524.539.917 1.072.957a325.861 325.861 0 0 0 84.841-4.704 325.102 325.102 0 0 0 24.526-5.614 3.776 3.776 0 0 1 2.798-5.133l-.892-4.33a3.776 3.776 0 1 1-1.522-7.394l-.89-4.33a3.776 3.776 0 1 1-1.522-7.395l-.891-4.328a3.776 3.776 0 1 1-1.58-7.384 3.776 3.776 0 0 1 1.58 7.384l.89 4.328a3.776 3.776 0 0 1 1.522 7.395l.891 4.33a3.776 3.776 0 0 1 1.522 7.394l.891 4.33a3.774 3.774 0 0 1 4.42 3.093 326.14 326.14 0 0 0 48.073-18.39 2.898 2.898 0 0 0 1.588-3.221l-6.092-28.667c-13.079-.624-22.74-10.868-22.658-21.628.062-8.022 5.535-15.659 13.775-19.31l-6.29-32.559a1.135 1.135 0 0 0-1.593-.814 328.379 328.379 0 0 1-48.723 18.068c.228.487.36 1.028.36 1.6a3.776 3.776 0 0 1-3.053 3.706l.89 4.328a3.776 3.776 0 1 1 1.522 7.396l.891 4.327a3.776 3.776 0 1 1 1.553 7.391 3.776 3.776 0 0 1-1.553-7.39l-.89-4.328a3.776 3.776 0 0 1-1.522-7.396l-.891-4.328a3.776 3.776 0 0 1-4.482-3.358 327.27 327.27 0 0 1-23.89 5.246A328.078 328.078 0 0 1 7.01 62.323a1.187 1.187 0 0 0-1.265 1.431zm121.199 35.877a3.777 3.777 0 1 1 4.544 3.698l.89 4.326a3.776 3.776 0 1 1 1.487 7.405 3.776 3.776 0 0 1-1.486-7.405l-.89-4.326a3.776 3.776 0 0 1-4.544-3.698zm-2.402-11.727a3.777 3.777 0 1 1 7.555.001 3.777 3.777 0 0 1-7.555 0z" fill="url(#e)"/><path d="m5.744 63.754 6.448 30.09c.101.47.48.83.953.917 17.723 3.303 27.317 17.426 24.962 27.54-1.931 8.294-11.575 12.516-14.764 13.703-.543.203-.856.77-.745 1.338l6.195 31.705c.102.524.539.917 1.072.957a325.866 325.866 0 0 0 84.841-4.704 325.136 325.136 0 0 0 24.526-5.614 3.776 3.776 0 0 1 2.798-5.133l-.892-4.33a3.776 3.776 0 1 1-1.522-7.394l-.89-4.33a3.776 3.776 0 1 1-1.522-7.395l-.891-4.328a3.776 3.776 0 1 1-1.58-7.384 3.776 3.776 0 0 1 1.58 7.384l.89 4.328a3.776 3.776 0 0 1 1.522 7.395l.891 4.33c.23-.044.467-.07.71-.07a3.776 3.776 0 0 1 .812 7.464l.891 4.33a3.774 3.774 0 0 1 4.42 3.093 326.144 326.144 0 0 0 48.073-18.39 2.898 2.898 0 0 0 1.588-3.221l-6.092-28.667c-13.079-.624-22.74-10.868-22.658-21.628.062-8.022 5.535-15.659 13.775-19.31l-6.29-32.559a1.135 1.135 0 0 0-1.593-.814 328.392 328.392 0 0 1-48.723 18.068c.228.487.36 1.028.36 1.6a3.776 3.776 0 0 1-3.053 3.706l.89 4.328a3.776 3.776 0 1 1 1.522 7.396l.891 4.327a3.776 3.776 0 1 1 1.553 7.391 3.776 3.776 0 0 1-1.553-7.39l-.89-4.328a3.776 3.776 0 0 1-1.522-7.396l-.891-4.328a3.776 3.776 0 0 1-4.482-3.358 327.322 327.322 0 0 1-23.89 5.246A328.077 328.077 0 0 1 7.01 62.323a1.187 1.187 0 0 0-1.265 1.431zm121.199 35.877a3.777 3.777 0 1 1 4.544 3.698l.89 4.326a3.776 3.776 0 1 1 1.487 7.405 3.776 3.776 0 0 1-1.486-7.405l-.89-4.326a3.776 3.776 0 0 1-4.544-3.698zm-2.402-11.727a3.778 3.778 0 0 1 3.776-3.776 3.776 3.776 0 1 1-3.776 3.776z" fill="url(#f)"/><path d="m180.298 69.033.837-2.604c-8.24 3.652-13.713 11.289-13.775 19.311 0 0 .244-11.345 11.657-15.392a2.07 2.07 0 0 0 1.281-1.315zM139.296 143.618c-.679 0-1.315.182-1.865.496a3.776 3.776 0 1 1 4.761 5.703 3.776 3.776 0 0 0-2.895-6.199zM136.895 131.892c-.68 0-1.315.182-1.866.495a3.776 3.776 0 1 1 4.761 5.703 3.776 3.776 0 0 0-2.895-6.199zM134.493 120.165c-.68 0-1.315.182-1.866.496a3.776 3.776 0 1 1 4.761 5.703 3.776 3.776 0 0 0-2.895-6.199zM132.091 108.44c-.68 0-1.315.18-1.866.495a3.776 3.776 0 1 1 4.761 5.703 3.776 3.776 0 0 0-2.896-6.199zM129.69 96.713c-.68 0-1.316.181-1.866.495a3.776 3.776 0 1 1 4.761 5.703 3.776 3.776 0 0 0-2.896-6.199zM127.287 84.986c-.679 0-1.314.182-1.865.496a3.776 3.776 0 1 1 4.761 5.703 3.776 3.776 0 0 0-2.896-6.199zM124.886 73.26c-.68 0-1.315.182-1.866.496a3.776 3.776 0 1 1 4.761 5.703 3.776 3.776 0 0 0-2.895-6.199zM122.484 61.534c-.68 0-1.315.181-1.866.495a3.776 3.776 0 1 1 4.761 5.703 3.776 3.776 0 0 0-2.895-6.199zM141.698 155.345c-.679 0-1.315.181-1.865.495a3.775 3.775 0 0 1 6.61 1.758l-1.012.98a3.774 3.774 0 0 0-3.733-3.233z" fill="#b9471e"/><path d="M141.698 155.345c-.679 0-1.315.181-1.865.495a3.775 3.775 0 0 1 6.61 1.758l-1.012.98a3.774 3.774 0 0 0-3.733-3.233z" fill="#b9471e"/><path d="m145.431 158.577 1.011-.978s11.198-3.113 21.884-7.232c0 0-21.265 7.731-22.895 8.21z" fill="#b9471e"/><path d="M60.112 116.409c14.469 3.995 17.708 7.234 21.703 21.703 3.996-14.469 7.235-17.708 21.703-21.703-14.468-3.996-17.707-7.235-21.703-21.703-3.995 14.468-7.234 17.707-21.703 21.703z" fill="#f75e28"/><path d="M136.313 126.776c.118.004.223 0 .315 0 .09-.005.165-.017.226-.024l.137-.019.045-.01c.24-.05.48-.124.707-.23.113-.053.23-.105.337-.174l.163-.1c.053-.035.104-.074.156-.112.05-.039.103-.076.153-.117l.144-.13c.1-.083.184-.182.272-.278.176-.194.322-.413.458-.641.065-.115.118-.237.178-.356.05-.123.097-.248.14-.375.035-.128.073-.257.103-.388.022-.132.047-.264.06-.397l.025-.34v-.003a15.175 15.175 0 0 0-.018-.462l-.056-.401c-.028-.132-.065-.262-.098-.393-.037-.13-.088-.255-.135-.382a1.509 1.509 0 0 0-.083-.185l-.09-.18c-.056-.124-.136-.233-.208-.347-.069-.115-.157-.217-.24-.323-.079-.108-.177-.201-.27-.296-.048-.047-.093-.097-.143-.14l-.154-.128c-.052-.041-.103-.084-.156-.124l-.166-.11-.167-.108c-.058-.032-.117-.062-.175-.092l-.176-.09c-.06-.029-.122-.05-.183-.074-.123-.046-.243-.096-.372-.124-.127-.03-.25-.071-.38-.084-.128-.015-.253-.042-.383-.042 0 0-.064-.003-.191-.003-.127-.008-.319.016-.565.05v.527c.214.059.368.088.468.128.1.035.15.049.15.049.197.073.387.151.565.25.092.043.176.1.262.153.042.028.086.05.126.081l.12.09.118.089.11.1.112.096c.034.034.067.071.101.106.033.036.068.07.102.105.034.035.062.076.093.113.061.075.123.15.175.231.053.08.114.156.156.243.023.042.046.085.07.126a3.957 3.957 0 0 1 .272.661c.023.093.05.185.07.278.015.094.032.188.049.283l.024.33v.001l-.001.245c-.002.096-.018.192-.023.289-.01.096-.03.19-.043.287-.024.094-.046.19-.068.285-.032.092-.057.188-.093.28-.039.09-.067.187-.113.276l-.067.134c-.02.047-.044.091-.07.134-.051.088-.1.178-.16.26l-.086.13c-.03.042-.064.081-.096.122-.032.04-.063.084-.096.125l-.106.116c-.07.082-.147.155-.225.23-.156.15-.328.286-.512.417l-.034.026-.108.067c-.048.03-.108.072-.182.117-.076.043-.166.09-.27.152z" fill="url(#a)"/><path d="M138.725 138.5c.119.004.224 0 .316-.001.09-.005.164-.018.225-.024l.137-.02.045-.01c.239-.051.478-.125.706-.23.113-.055.23-.107.335-.176l.164-.1c.052-.036.103-.074.155-.112.05-.04.103-.077.152-.119l.144-.129c.1-.084.183-.183.272-.279.175-.193.32-.413.456-.64.063-.116.118-.237.176-.357.05-.123.098-.248.14-.374.034-.129.073-.257.102-.388.022-.132.048-.264.06-.398l.024-.332v-.002c-.005-.157-.009-.313-.02-.47l-.055-.4c-.03-.132-.065-.262-.1-.392-.036-.13-.087-.255-.134-.382-.023-.064-.053-.124-.083-.184l-.09-.18-.046-.09-.053-.087-.11-.17c-.068-.115-.157-.216-.24-.322-.079-.108-.177-.2-.27-.296-.048-.046-.092-.096-.143-.139l-.154-.128c-.052-.041-.103-.084-.156-.123l-.166-.11-.166-.108-.176-.092-.175-.09c-.06-.028-.122-.049-.183-.073-.123-.047-.243-.096-.371-.124-.127-.03-.25-.071-.38-.083-.128-.016-.254-.043-.383-.042 0 0-.064-.003-.191-.004-.126-.008-.318.017-.564.05v.527c.213.06.367.088.467.128a4.127 4.127 0 0 1 .715.299c.092.043.176.1.261.153.042.027.086.05.126.08l.12.09.118.089.11.1.112.096c.035.034.067.071.101.106a4.1 4.1 0 0 0 .102.105c.034.034.061.075.093.112.06.076.123.15.175.231a3.481 3.481 0 0 1 .5 1.029c.022.092.048.184.07.277.014.094.03.188.048.282l.025.335v.002l-.001.239c-.001.096-.018.191-.022.288-.01.096-.03.191-.043.288-.023.094-.046.188-.067.284-.031.092-.057.188-.092.28-.039.09-.068.187-.113.276l-.066.135a1.04 1.04 0 0 1-.07.134c-.05.087-.1.177-.16.26l-.085.13c-.03.042-.063.08-.095.122-.032.04-.063.084-.096.124l-.106.117c-.069.082-.146.155-.223.23-.156.15-.328.286-.51.418l-.035.026-.107.068c-.048.03-.108.071-.182.117-.076.043-.166.09-.27.152z" fill="url(#g)"/><path d="M141.138 150.223c.119.004.223 0 .315-.001.09-.006.165-.019.225-.025l.137-.02.044-.01a3.32 3.32 0 0 0 .705-.233c.113-.054.23-.106.335-.176l.163-.1a5.84 5.84 0 0 0 .155-.112c.05-.04.103-.077.152-.119l.143-.129c.1-.084.182-.183.27-.28.176-.193.32-.413.455-.64.063-.116.118-.237.176-.357.05-.123.098-.247.139-.374.034-.129.073-.257.1-.388.022-.131.049-.263.06-.397l.023-.325v-.002c-.004-.158-.008-.318-.02-.476l-.055-.4c-.03-.131-.066-.261-.1-.392-.038-.129-.088-.254-.135-.38-.023-.064-.054-.124-.084-.184l-.09-.18-.046-.09-.053-.086-.109-.17c-.069-.115-.158-.216-.24-.322-.08-.108-.178-.2-.27-.295a2.708 2.708 0 0 0-.298-.266c-.052-.042-.102-.085-.156-.124l-.165-.11-.166-.108-.176-.091-.175-.09c-.06-.027-.123-.048-.183-.073-.123-.046-.243-.096-.371-.123-.127-.03-.25-.071-.38-.083-.128-.016-.253-.043-.382-.042 0 0-.064-.003-.19-.003-.127-.009-.319.016-.565.049v.528c.214.059.368.087.468.128.1.034.15.048.15.048.196.073.386.151.564.25.091.043.175.1.26.153.042.027.086.05.126.08l.12.09.119.088.11.1.11.096c.036.033.068.07.102.106.033.036.067.07.101.105.035.034.062.075.094.112.06.075.124.148.175.23.114.155.206.325.292.495l.06.13c.02.043.041.086.054.132.029.091.069.178.094.27l.07.277c.015.094.032.188.049.282.011.113.015.226.026.34v.001l-.001.234c0 .096-.017.191-.022.288-.009.096-.029.19-.042.287-.022.094-.046.188-.066.285-.031.092-.057.187-.091.28-.039.09-.068.186-.113.275l-.066.135-.032.068-.037.066c-.05.087-.099.178-.159.26l-.085.13c-.029.042-.063.08-.094.122l-.096.125-.106.117a4.573 4.573 0 0 1-.731.65l-.034.025-.107.068c-.048.03-.107.072-.182.117-.075.044-.164.09-.268.154z" fill="url(#h)"/><path d="m194.56 139.297-2.19 1.016-.732.335c-.977.443-1.951.893-2.933 1.326-.98.437-1.96.875-2.944 1.3l-1.476.643-1.48.63-1.481.629-1.487.616c-.989.415-1.984.816-2.979 1.217-.993.406-1.992.795-2.99 1.188-.997.396-2 .775-3.002 1.157-1 .387-2.007.756-3.013 1.128-.504.185-1.005.374-1.51.555l-1.514.542-1.515.54-1.52.526-1.52.525-1.526.51c-1.017.338-2.033.681-3.056 1.003l-1.531.49-.766.245-.768.236c-1.026.313-2.048.634-3.076.94l-2.711.797c0 .001.002.014 0-.008l-.008-.084a2.584 2.584 0 0 0-.12-.544 2.816 2.816 0 0 0-.148-.362c-.026-.06-.059-.115-.09-.172a3.055 3.055 0 0 0-.333-.48 4.028 4.028 0 0 0-.868-.767 3.516 3.516 0 0 0-1.046-.46 3.53 3.53 0 0 0-.37-.069l-.186-.018-.185-.005-.184.007-.182.02-.09.015c-.06.009-.149.03-.264.063.115.038.198.064.253.085l.081.028c.108.042.213.085.314.13.102.048.2.098.295.15l.14.081.136.086.132.09.126.094c.083.064.163.132.24.2.077.069.151.14.223.213.072.073.14.15.206.226.066.077.127.158.188.238.06.08.117.163.17.247.056.084.108.169.16.254.05.085.102.17.15.257.026.043.05.087.074.13.025.044.05.088.072.132.026.044.049.088.072.133.026.044.048.09.072.135.084.156.167.317.262.484l.202.358.246-.076h.001l3.164-.977c1.025-.32 2.045-.657 3.068-.984l.767-.247.764-.256 1.528-.512c1.02-.336 2.032-.694 3.047-1.047l1.52-.531 1.516-.547 1.515-.546 1.51-.563 1.508-.563c.503-.188 1.003-.385 1.504-.576 1.002-.386 2.005-.77 3.001-1.17.998-.397 1.997-.79 2.989-1.2.994-.407 1.988-.81 2.977-1.23.99-.415 1.98-.83 2.964-1.258l1.478-.637 1.474-.65 1.472-.65 1.467-.663c.98-.44 1.953-.89 2.928-1.34.975-.447 1.943-.911 2.915-1.367l.727-.345 2.176-1.046z" fill="#ff7300"/><path d="M124.249 68.155c.119.005.224.004.316.003.091-.005.166-.017.227-.023l.137-.018.045-.01c.06-.012.12-.027.18-.041.06-.015.122-.028.18-.05l.177-.061.09-.032.085-.04c.113-.053.232-.103.339-.171l.164-.099c.055-.034.105-.073.158-.11l.155-.116.146-.128c.048-.044.098-.086.142-.134l.134-.143c.093-.093.168-.2.248-.306l.06-.08.053-.083.105-.168c.036-.056.064-.117.094-.176l.089-.18c.055-.12.1-.247.147-.373.04-.128.074-.258.108-.389.024-.132.049-.265.068-.398l.028-.377v-.217l-.012-.216a4.212 4.212 0 0 0-.444-1.558 4.06 4.06 0 0 0-1.007-1.26 3.962 3.962 0 0 0-.666-.45c-.058-.033-.12-.061-.179-.091-.06-.03-.122-.053-.183-.08a3.64 3.64 0 0 0-1.149-.272l-.048-.003c-.032-.002-.08-.006-.146-.005-.065 0-.145-.003-.242.005a3.084 3.084 0 0 0-.334.036v.668c.211.045.363.085.463.115.05.014.087.027.111.035l.037.012a4.105 4.105 0 0 1 .823.385 3.667 3.667 0 0 1 1.063.996 3.595 3.595 0 0 1 .503 1.03 3.55 3.55 0 0 1 .117.563l.017.152.008.154v.272l-.022.29-.047.29-.035.142c-.012.048-.019.098-.035.144l-.045.141c-.016.047-.029.096-.05.14a3.72 3.72 0 0 1-.258.547l-.077.133c-.026.045-.059.084-.086.128l-.088.13-.098.121c-.034.04-.064.085-.1.124l-.108.116c-.07.082-.15.153-.23.227-.16.148-.336.282-.523.41l-.035.026-.11.065c-.049.03-.11.07-.186.112-.077.04-.168.087-.274.146z" fill="url(#i)"/><path d="M126.662 79.88c.119.006.224.003.316.004.092-.004.166-.016.228-.022l.137-.017.045-.01.18-.041c.061-.014.123-.027.18-.05l.178-.06c.06-.02.119-.044.175-.072.113-.054.232-.104.34-.172l.164-.1c.054-.033.105-.072.157-.11l.155-.117.146-.128c.1-.084.187-.181.276-.278.178-.192.327-.412.464-.64.068-.114.12-.236.18-.356.056-.121.1-.248.146-.374.037-.129.072-.259.106-.39.024-.132.046-.265.064-.398l.027-.37v-.002l-.016-.437c-.016-.134-.036-.268-.055-.402-.024-.133-.064-.264-.097-.395a3.965 3.965 0 0 0-.305-.752c-.056-.123-.133-.235-.206-.349-.07-.116-.156-.22-.24-.325-.043-.052-.082-.107-.129-.155l-.141-.144c-.048-.047-.094-.096-.143-.141l-.155-.128-.156-.126-.166-.111-.167-.108c-.057-.034-.118-.063-.176-.094l-.177-.09c-.058-.03-.122-.05-.183-.074-.124-.047-.244-.098-.373-.126a3.534 3.534 0 0 0-.766-.128s-.064-.003-.192-.003c-.127-.009-.32.016-.567.049v.528c.214.058.37.087.47.128a4.175 4.175 0 0 1 .718.3c.092.043.176.102.262.154.087.05.166.113.246.172.04.03.081.058.12.09.036.034.073.068.11.1l.112.097.101.107c.033.036.068.071.102.106.033.036.062.076.093.113l.092.114c.03.037.054.08.083.12.055.08.113.157.156.244.044.086.1.165.135.255.084.173.148.354.205.537.021.093.051.184.068.279l.047.284.022.311v.002l-.001.266c-.006.096-.02.192-.025.29l-.046.288c-.027.093-.046.19-.072.285-.032.092-.056.19-.095.28a3.79 3.79 0 0 1-.256.545l-.077.132c-.025.045-.058.084-.086.128l-.087.13-.098.12c-.033.04-.063.085-.098.124l-.107.117c-.07.081-.15.152-.228.227a4.635 4.635 0 0 1-.519.414l-.035.025-.109.066c-.048.03-.109.07-.184.115-.077.042-.168.088-.273.149z" fill="url(#j)"/><path d="M131.487 103.329c.12.005.224.001.317.002.09-.005.165-.017.226-.023l.137-.018.045-.01.18-.042c.06-.015.122-.028.18-.05.115-.044.24-.077.35-.134.114-.055.232-.105.338-.174l.164-.1c.054-.034.105-.073.157-.11.05-.04.103-.078.154-.118l.145-.129c.1-.084.185-.182.273-.278.178-.193.325-.413.461-.64.067-.115.12-.237.18-.357.053-.122.097-.248.143-.374.035-.129.072-.258.104-.389.023-.132.047-.265.062-.398l.026-.355v-.002l-.017-.45-.055-.401c-.027-.133-.065-.263-.098-.394-.015-.067-.04-.13-.063-.193l-.07-.19-.038-.095-.045-.09-.09-.182c-.057-.123-.135-.234-.207-.348-.07-.115-.157-.218-.24-.324-.08-.109-.176-.202-.27-.297-.049-.047-.094-.097-.144-.14l-.154-.129-.156-.125-.166-.11-.167-.109c-.057-.033-.117-.062-.176-.093l-.176-.09c-.059-.029-.122-.049-.183-.073-.123-.047-.243-.098-.372-.125a3.521 3.521 0 0 0-.765-.127s-.064-.003-.192-.004c-.126-.008-.319.016-.566.05v.527c.215.059.37.088.47.129.1.034.15.048.15.048.197.074.388.152.566.251.092.043.176.101.262.154.087.05.166.112.246.171.04.03.08.058.119.09l.11.099.112.097.101.107c.033.036.068.07.102.105.033.036.062.076.093.113l.092.113c.031.037.054.08.083.12.054.08.114.156.156.243.044.086.1.164.135.254.085.173.149.354.206.536.022.093.05.184.07.278.014.095.03.189.048.283l.022.32v.003l-.001.255c-.004.097-.019.192-.024.29l-.044.287c-.026.094-.046.19-.07.285-.033.092-.057.189-.094.28-.07.186-.154.368-.254.545-.05.088-.1.178-.161.26l-.086.13c-.031.041-.065.08-.097.121-.033.04-.063.085-.097.125l-.107.116c-.07.082-.148.154-.226.229-.157.149-.331.284-.516.415l-.034.026-.108.067c-.049.03-.109.07-.184.115-.076.043-.167.089-.272.15z" fill="url(#k)"/><path d="M133.9 115.052c.119.005.224.001.316.002.09-.005.165-.018.226-.024l.137-.018.045-.01.18-.043c.06-.014.121-.028.179-.05.115-.044.239-.078.35-.135.113-.054.23-.105.337-.175l.164-.099c.053-.035.104-.074.156-.112.05-.039.103-.076.153-.117l.145-.13c.1-.083.184-.181.273-.278.177-.193.323-.413.46-.64.065-.115.118-.237.178-.356a6.44 6.44 0 0 0 .142-.375c.035-.129.072-.258.103-.388.022-.132.047-.265.061-.398l.025-.348v-.002c-.004-.152-.009-.304-.017-.456l-.056-.401c-.027-.133-.064-.263-.098-.394-.014-.066-.04-.128-.063-.192l-.071-.19a1.459 1.459 0 0 0-.082-.185l-.09-.181c-.057-.123-.136-.234-.208-.347-.07-.116-.157-.218-.24-.324-.08-.108-.176-.202-.27-.297-.048-.047-.093-.096-.144-.14l-.154-.128-.156-.124-.166-.111-.166-.108c-.058-.032-.118-.062-.176-.092l-.176-.09c-.059-.03-.122-.05-.183-.074-.123-.047-.243-.097-.372-.125a3.514 3.514 0 0 0-.764-.126s-.064-.003-.191-.003c-.127-.009-.32.016-.566.049v.528c.214.058.368.087.469.128a4.147 4.147 0 0 1 .716.3c.092.042.176.1.261.153.042.027.086.05.126.08l.12.09.12.09c.036.033.072.067.11.1l.11.096.102.107c.033.036.068.07.102.105.033.035.062.075.093.113l.092.113c.031.036.054.08.083.118.054.08.114.157.156.244.043.086.1.164.136.254.084.172.148.352.206.534.022.093.05.185.07.278.014.095.03.189.048.283l.023.325v.002l-.001.25c-.003.097-.018.192-.023.289-.012.096-.03.191-.044.288-.025.094-.046.189-.07.285-.031.092-.056.188-.092.28-.04.09-.068.187-.115.276l-.067.134c-.02.047-.045.09-.07.134-.051.088-.1.178-.161.26l-.086.13c-.03.042-.064.08-.096.122-.033.04-.063.084-.097.124l-.107.117c-.069.082-.147.154-.225.229-.156.15-.33.285-.514.416l-.034.026-.108.067c-.048.03-.108.071-.183.116-.076.043-.167.089-.271.151z" fill="url(#l)"/><path d="M129.074 91.605c.12.007.225.004.318.005.091-.003.166-.015.227-.02l.138-.017.045-.01c.06-.012.12-.027.181-.04.06-.015.123-.028.18-.05l.178-.061c.06-.02.119-.044.175-.072.114-.054.233-.103.34-.172l.165-.1c.054-.034.105-.073.157-.11l.155-.118.146-.13c.1-.083.186-.181.275-.278.178-.194.326-.414.462-.642.067-.115.12-.238.18-.358.053-.122.097-.249.142-.375.036-.13.072-.259.104-.39.022-.132.045-.265.061-.399l.024-.362v-.003l-.019-.442a16.02 16.02 0 0 0-.057-.402c-.026-.132-.066-.262-.1-.393a3.958 3.958 0 0 0-.31-.747c-.058-.122-.136-.232-.21-.345-.07-.114-.157-.217-.241-.321-.08-.108-.177-.2-.272-.294-.048-.046-.094-.095-.144-.139a7.079 7.079 0 0 0-.155-.125l-.156-.123-.166-.109a7.277 7.277 0 0 0-.168-.105c-.057-.032-.117-.06-.175-.09l-.176-.087c-.059-.029-.122-.048-.183-.072-.123-.044-.243-.093-.37-.118a3.44 3.44 0 0 0-.76-.114s-.063-.002-.19 0c-.124-.006-.315.022-.558.06v.382c.22.064.377.096.479.14a4.27 4.27 0 0 1 .726.317c.093.044.177.105.264.16.087.052.167.116.247.178.04.03.08.06.119.092.037.035.073.07.11.102l.112.1.1.11.102.107c.033.037.061.078.092.116l.092.115c.03.038.053.082.082.122.054.081.112.159.154.247.043.087.098.167.133.258.083.174.145.357.2.54.02.094.05.186.066.28l.046.285.019.316v.001l-.003.26c-.006.097-.02.193-.026.29l-.047.287c-.027.093-.047.19-.072.284-.033.092-.057.188-.096.28a3.865 3.865 0 0 1-.417.801l-.086.13-.097.12c-.033.04-.062.085-.097.124l-.107.117c-.069.081-.147.153-.225.228-.157.15-.33.285-.515.417l-.034.025-.108.067c-.049.031-.109.072-.184.117-.076.043-.167.09-.272.153z" fill="url(#m)"/><path d="M22.914 136.356c.937-.295 1.74-.607 2.425-.884a29.776 29.776 0 0 0 1.69-.752c.445-.213.773-.385.994-.496l.327-.175c1.745-.931 3.407-2.043 4.912-3.366 1.505-1.32 2.84-2.88 3.82-4.68a13.94 13.94 0 0 0 1.263-3.193v-.002c.249-1.01.383-2.045.429-3.082v-.724c-.001-.121 0-.242-.003-.363l-.023-.36c-.017-.241-.03-.482-.05-.723l-.094-.716-.049-.358-.068-.354-.138-.709-.177-.698-.09-.349c-.029-.116-.07-.229-.104-.344a22.897 22.897 0 0 0-2.543-5.542 28.342 28.342 0 0 0-3.766-4.77 31.915 31.915 0 0 0-4.655-3.888 34.382 34.382 0 0 0-5.277-2.967 36.909 36.909 0 0 0-5.691-2.032c-.521-.13-1.042-.263-1.566-.382l-1.58-.317a.2.2 0 0 1-.169-.142l-.295-1.308-.652-2.87-.665-2.868-.676-2.865a592.13 592.13 0 0 0-2.097-8.58c-.478-1.904-.953-3.81-1.314-5.732 0 0-.128-.47-.31-1.446a34.403 34.403 0 0 0-.392-1.83c-.173-.716-.244-1.438-.517-2.383.137.974-.036 1.512.021 2.517.042.735.077 1.37.154 1.854l.235 1.455a592.125 592.125 0 0 0 2.6 14.493l.557 2.89.568 2.888.581 2.886.267 1.313v.003c.088.42.308.816.617 1.112.308.298.703.5 1.118.58h.003l1.497.323c.495.121.987.256 1.482.38a37.429 37.429 0 0 1 5.378 1.933c1.737.78 3.405 1.71 4.983 2.77a30.877 30.877 0 0 1 4.41 3.592 27.317 27.317 0 0 1 3.599 4.382l.197.295c.065.099.122.202.184.303l.365.607c.063.1.117.205.172.309l.167.312.167.312c.057.103.112.208.16.315.198.427.411.849.58 1.288.088.218.185.433.266.654l.233.665c.035.104.077.207.106.313l.092.317.183.635.146.643.074.322.054.324.109.65c.026.217.046.435.07.653l.035.327c.007.11.01.219.014.328l.027.656a15.159 15.159 0 0 1-.273 2.793v.002a12.675 12.675 0 0 1-1.013 2.946c-.812 1.697-1.987 3.23-3.344 4.587-1.362 1.36-2.917 2.535-4.556 3.587l-.308.195c-.208.127-.519.32-.942.563-.424.242-.956.541-1.608.88-.652.335-1.425.708-2.326 1.098z" fill="url(#c)"/><path d="M47.477 94.856c7.44 2.055 9.105 3.72 11.16 11.16 2.054-7.44 3.72-9.105 11.16-11.16-7.44-2.054-9.106-3.72-11.16-11.16-2.055 7.44-3.72 9.106-11.16 11.16z" fill="#f75e28"/><path d="M61.075 114.344c14.469 3.995 17.708 7.234 21.703 21.703 3.995-14.469 7.234-17.708 21.703-21.703-14.469-3.996-17.708-7.235-21.703-21.704-3.995 14.47-7.234 17.708-21.703 21.704z" fill="url(#b)"/><path d="M48.44 92.791c7.44 2.055 9.105 3.72 11.16 11.16 2.054-7.44 3.72-9.105 11.16-11.16-7.44-2.054-9.106-3.72-11.16-11.16-2.055 7.44-3.72 9.106-11.16 11.16z" fill="url(#n)"/><path d="M143.374 155.023c.205.08.406.154.59.261.186.103.369.206.53.338.086.058.163.128.24.197.08.065.155.134.223.21.146.143.27.307.384.472.12.162.215.34.305.518.088.18.155.368.216.557.056.192.092.388.123.586l.016.219 1.118-.386c-.182-2.057-1.946-3.672-4.099-3.672-.099 0-.195.008-.292.015v.501c.224.061.384.092.49.133l.156.05z" fill="url(#o)"/><path d="M123.247 51.479c.398.598.631 1.316.631 2.089a3.76 3.76 0 0 1-.88 2.422 3.772 3.772 0 0 0 1.91-3.28c0-.569-.129-1.106-.353-1.589l-1.308.358z" fill="#b9471e"/><path fill="none" d="m44.579 174.793-.006-.001"/><path transform="rotate(-11.68 28.127 153.422)" fill="url(#p)" d="M26.274 137.892h3.707v31.058h-3.707z"/><path d="M121.867 56.49c.076.017.144.027.202.034l.147.011.117.001c.08.002.157-.006.237-.011l.117-.016c.04-.005.08-.01.118-.019a3.14 3.14 0 0 0 .464-.126c.15-.057.301-.122.444-.202.072-.038.14-.083.21-.126.068-.046.138-.092.202-.143a3.454 3.454 0 0 0 .838-.92c.043-.072.088-.144.126-.219a3.76 3.76 0 0 0 .352-.946 3.624 3.624 0 0 0 .078-1.02v-.002a2.762 2.762 0 0 0-.149-.735 3.936 3.936 0 0 0-.289-.642s-.017-.034-.055-.098a4.123 4.123 0 0 0-.179-.278l-.08.026-.04.013-.039.013-.04.013-.04.012-.039.013-.04.013-.04.013-.04.013-.039.013-.04.013-.04.013-.039.013-.04.012-.04.013c.006.153.018.262.025.334l.008.08.003.027c.014.14.03.276.042.407l.015.191.006.183c.002.114-.003.223-.013.325v.001c-.014.126-.027.25-.05.372-.008.06-.023.117-.033.176-.015.058-.026.116-.042.173-.016.058-.03.115-.048.172-.016.057-.036.113-.055.17a4.022 4.022 0 0 1-.291.652 5.043 5.043 0 0 1-.186.313c-.07.1-.137.204-.215.302-.036.051-.078.097-.116.148l-.062.072a1.27 1.27 0 0 1-.062.072c-.084.098-.176.189-.27.283-.048.045-.095.095-.146.138-.025.021-.05.045-.075.068l-.079.067c-.105.089-.216.177-.333.263l-.088.065-.28.197z" fill="url(#q)"/><path d="M181.164 66.43c-.513.13-.896.243-1.145.334l-.375.132c-.496.188-.986.395-1.463.63-.243.11-.474.243-.71.367-.238.122-.462.265-.692.4-.232.132-.452.284-.675.43-.11.075-.225.145-.333.225l-.323.236c-.108.08-.217.156-.323.238l-.313.25-.313.253c-.101.087-.203.174-.303.263l-.3.266-.292.276-.29.278-.28.288-.28.289-.27.297-.27.298c-.088.101-.172.205-.258.308l-.258.308-.247.317-.247.317-.236.325-.233.327-.223.335-.221.335-.21.342-.209.344-.195.35-.194.352-.183.358c-.06.119-.12.238-.179.359l-.167.365c-.054.122-.112.242-.164.365l-.153.37c-.104.247-.194.499-.284.75-.095.25-.174.505-.253.76a17.283 17.283 0 0 0-.662 3.116c-.033.262-.049.527-.073.79-.017.264-.021.528-.032.791 0 0-.003.033-.002.1l.002.296c0 .131.002.296.01.493.013.197.026.426.046.687.035-.26.061-.487.085-.681.025-.194.057-.355.074-.484l.043-.289c.01-.064.017-.096.017-.096.05-.255.094-.51.15-.763.06-.252.109-.505.176-.754.126-.5.269-.995.429-1.482.084-.243.16-.487.253-.726.091-.24.176-.48.279-.715.1-.236.192-.473.302-.704.105-.233.21-.465.327-.692l.169-.342c.057-.114.12-.225.18-.338l.18-.336.192-.33.19-.33.202-.324.202-.323.213-.317.211-.317.222-.31.223-.309.232-.301.231-.303.24-.295.242-.295.25-.287.25-.287.258-.28.259-.28.267-.271.267-.272.276-.263.273-.265.282-.257c.094-.084.187-.171.28-.258l.286-.252c.192-.168.381-.337.578-.499.195-.164.39-.329.589-.488.198-.16.396-.322.6-.478a45.35 45.35 0 0 1 1.228-.928l.314-.226c.104-.077.208-.154.316-.226l.638-.446.324-.22c.213-.153.542-.363.976-.672z" fill="#ff7300"/><path d="M114.811 165.298v-.005l-.001-.003v-.002l-.002-.008-.001-.007-.002-.007v-.007l-.001-.002v-.002l-.001-.002v-.002l-3.24.481-2.315.327c-.617.092-1.08.153-1.39.195l-.463.063-1.852.252-1.855.234c-1.236.158-2.473.307-3.71.458-.618.078-1.238.14-1.856.212-.62.068-1.238.142-1.857.206-1.24.126-2.478.259-3.717.376l-1.859.181-1.86.165c-1.24.113-2.48.208-3.72.312l-1.862.137c-.62.046-1.241.091-1.862.13l-1.862.125-1.863.11c-1.242.08-2.485.128-3.727.198-1.242.052-2.484.116-3.727.156a373.31 373.31 0 0 1-7.458.202l-1.865.028-1.865.013c-.621.008-1.243.007-1.864.008-.622 0-1.243.005-1.865 0l-1.82-.011c-1.879-.024-3.758-.051-5.637-.098-1.243-.027-2.485-.07-3.727-.11l-1.863-.073-1.862-.08c-2.483-.112-4.965-.251-7.445-.418l-1.648-.115h-.001a1.643 1.643 0 0 1-1.504-1.32v-.001c-.135-.69-.281-1.376-.421-2.064-.245-1.187-.487-2.374-.742-3.56-.252-1.184-.501-2.37-.763-3.553l-.39-1.776-.398-1.774a401.647 401.647 0 0 0-.812-3.545 397.838 397.838 0 0 0-1.713-7.073l-.11-.441-.34-1.323c-.306-1.174-.761-2.937-1.43-5.276.262 2.418.505 4.223.666 5.426l.184 1.352.064.45a397.79 397.79 0 0 0 1.082 7.197c.192 1.197.383 2.394.586 3.59l.3 1.792.31 1.791c.203 1.195.42 2.387.634 3.58.21 1.194.435 2.384.656 3.576.13.69.254 1.38.389 2.07v.002a3.953 3.953 0 0 0 3.585 3.188h.003l1.66.113c2.497.163 4.997.297 7.498.404 2.501.105 5.003.173 7.506.214.946.02 1.892.025 2.838.036.946.006 1.892.002 2.839.004l1.831-.012c2.503-.024 5.005-.068 7.506-.161 2.5-.088 5-.195 7.498-.35 1.249-.07 2.496-.162 3.744-.244l1.87-.143c.624-.047 1.247-.1 1.87-.155a283.74 283.74 0 0 0 7.467-.73l1.863-.215.931-.108.93-.117 1.86-.236 1.858-.252.929-.126.927-.136 1.854-.275c.618-.093 1.235-.194 1.852-.29.617-.1 1.235-.19 1.85-.297 1.232-.21 2.466-.402 3.693-.633l1.843-.336 1.84-.352.46-.088c.307-.059.767-.146 1.378-.27l2.293-.473c.916-.196 1.983-.427 3.201-.697z" fill="url(#r)"/><ellipse cx="71.836" cy="181.256" rx="46.075" ry="5.35" fill="#090909" opacity=".8"/></svg>